<svg xmlns="http://www.w3.org/2000/svg" height="20" width="20"><path d="M14.229 10.708V4.271q0-.375.292-.656.291-.282.646-.282.375 0 .656.282.281.281.281.656v4.562Zm-10.167 6q-.374 0-.656-.281-.281-.281-.281-.656v-11.5q0-.375.281-.656.282-.282.656-.282.376 0 .657.282.281.281.281.656v11.5q0 .375-.281.656t-.657.281Zm5.521-10.02q-.375 0-.656-.282-.281-.281-.281-.656V4.271q0-.375.281-.656.281-.282.656-.282.355 0 .646.282.292.281.292.656V5.75q0 .375-.292.656-.291.282-.646.282Zm0 5q-.375 0-.656-.292t-.281-.646V9.271q0-.354.281-.646.281-.292.656-.292.355 0 .646.292.292.292.292.646v1.479q0 .354-.292.646-.291.292-.646.292Zm0 5.02q-.375 0-.656-.281t-.281-.656v-1.479q0-.375.281-.657.281-.281.656-.281.355 0 .646.281.292.282.292.657v1.479q0 .375-.292.656-.291.281-.646.281Zm9.375-4.729.667-.667q.229-.25.229-.572 0-.323-.229-.552l-.708-.709q-.229-.229-.563-.229-.333 0-.562.229l-.688.667Zm-6.062 4.729q-.229 0-.365-.135-.135-.135-.135-.365v-1.104q0-.062.125-.375l4-3.979 1.833 1.833-3.979 4q-.042.021-.375.125Z"/></svg>