<svg xmlns="http://www.w3.org/2000/svg" height="40" viewBox="0 -960 960 960" width="40"><path d="M64.17-632.74v-94.94q0-36.6 25.86-62.56 25.85-25.96 62.29-25.96h655.36q36.6 0 62.56 25.96t25.96 62.56v171.32q0 18.5-13.04 31.28-13.04 12.79-31.56 12.79-18.51 0-31.22-12.79-12.7-12.78-12.7-31.28v-171.32H152.32v94.94q0 18.5-12.82 31.29-12.82 12.78-31.37 12.78t-31.25-12.78q-12.71-12.79-12.71-31.29ZM280-278.38q-12.3 0-22.57-5.82-10.26-5.81-16.2-16.13l-68.11-138.05h-67.56q-17.32 0-29.47-12.19-12.15-12.19-12.15-29.58t12.15-29.62Q88.24-522 105.56-522h94.06q11.71 0 21.68 6.58 9.97 6.58 15 16.99l43.7 85.49 122.46-245.49q5.09-10.56 15.42-16.06Q428.2-680 440.11-680q11.34 0 21.75 5.51 10.4 5.5 15.68 16.06l75.1 152q-18.63 10.13-35.7 24.05-17.08 13.92-31.16 30.02L440-545.83 316.3-300.9q-4.82 10.89-14.76 16.7-9.94 5.82-21.54 5.82ZM152.32-144.17q-36.44 0-62.29-25.86-25.86-25.85-25.86-62.29v-94.94q0-18.45 12.82-31.45t31.37-13q18.55 0 31.26 13 12.7 13 12.7 31.45v94.94h245.61q18.5 0 31 12.82 12.51 12.82 12.51 31.37t-12.51 31.25q-12.5 12.71-31 12.71H152.32ZM480-480ZM679.93-86.67q-80.26 0-136.76-56.57-56.5-56.57-56.5-136.83 0-80.26 56.57-136.76 56.57-56.5 136.83-56.5 80.26 0 136.76 56.57 56.5 56.57 56.5 136.83 0 80.26-56.57 136.76-56.57 56.5-136.83 56.5ZM765-337q6-6 6-14t-6-14q-6-6-14-6t-14 6l-63 62q-6 6-6 14.5t6 14.5q6 6 14.5 6t14.5-6l62-63Z"/></svg>