<svg xmlns="http://www.w3.org/2000/svg" height="48" viewBox="0 96 960 960" width="48"><path d="M754.231 723.615q4.461-4.461 4.846-10.538.385-6.077-4.846-11.308-4.462-4.461-10.923-4.461-6.462 0-10.923 4.461l-55.308 55.077q-4.462 4.462-4.846 10.654-.385 6.192 4.846 11.423 4.461 4.462 11.038 4.462t11.039-4.462l55.077-55.308Zm-74.283 207.77q-65.102 0-110.217-45.167-45.116-45.167-45.116-110.27 0-65.102 45.167-110.217 45.167-45.116 110.27-45.116 65.102 0 110.217 45.167 45.116 45.167 45.116 110.27 0 65.102-45.167 110.217-45.167 45.116-110.27 45.116ZM120 560.615V351.384q0-23.057 16.163-39.221Q152.327 296 175.384 296h609.232q23.057 0 39.221 16.163Q840 328.327 840 351.384v247.693Q808.077 568 766.731 551.231q-41.346-16.77-86.731-16.77-39.854 0-75.389 11.924-35.534 11.923-65.303 33.769l-86.154-171q-1.692-3.385-5.273-4.962-3.581-1.577-7.808-1.577t-8.265 1.577q-4.039 1.577-5.731 4.962L280 702.077l-67.077-132.923q-1.692-4.154-5.154-6.346-3.461-2.193-7.769-2.193h-80ZM175.384 856q-23.057 0-39.221-16.163Q120 823.673 120 800.616V591.385h70.231l74.846 152.461q2.692 4.154 6.084 5.846 3.392 1.693 8.766 1.693 4.227 0 7.445-1.693 3.218-1.692 5.551-5.846l146.308-292.923 74.384 150.769q-35.077 32.462-55.115 77.212-20.039 44.75-20.039 97.096 0 21.231 3.77 40.846Q446 836.462 453.308 856H175.384Z"/></svg>