<svg xmlns="http://www.w3.org/2000/svg" height="20" width="20"><path d="M14.354 8Q14.021 7.708 14.021 7.271Q14.021 6.833 14.354 6.5L14.771 6.083H11.896Q11.479 6.083 11.167 5.76Q10.854 5.438 10.854 5.021Q10.854 4.583 11.167 4.271Q11.479 3.958 11.896 3.958H14.771L14.375 3.562Q14.083 3.25 14.083 2.823Q14.083 2.396 14.396 2.083Q14.688 1.771 15.125 1.771Q15.562 1.771 15.875 2.083L18 4.229Q18.167 4.396 18.26 4.615Q18.354 4.833 18.354 5.042Q18.354 5.25 18.25 5.469Q18.146 5.688 17.979 5.854L15.833 8Q15.542 8.292 15.115 8.292Q14.688 8.292 14.354 8ZM16.667 17.875Q13.854 17.875 11.229 16.646Q8.604 15.417 6.583 13.385Q4.562 11.354 3.333 8.74Q2.104 6.125 2.104 3.312Q2.104 2.812 2.479 2.448Q2.854 2.083 3.354 2.083H6.812Q7.375 2.083 7.74 2.375Q8.104 2.667 8.208 3.208L8.771 5.938Q8.875 6.396 8.76 6.75Q8.646 7.104 8.354 7.375L6.25 9.333Q6.938 10.542 8.062 11.677Q9.188 12.812 10.5 13.604L12.542 11.562Q12.896 11.229 13.26 11.135Q13.625 11.042 14.083 11.125L16.771 11.729Q17.312 11.833 17.604 12.177Q17.896 12.521 17.896 13.062V16.604Q17.896 17.125 17.531 17.5Q17.167 17.875 16.667 17.875ZM5.146 7.229 6.438 6.021Q6.438 6.021 6.438 6.021Q6.438 6.021 6.438 6.021L6.125 4.375Q6.125 4.375 6.125 4.375Q6.125 4.375 6.125 4.375H4.438Q4.438 4.375 4.438 4.375Q4.438 4.375 4.438 4.375Q4.521 5.125 4.677 5.823Q4.833 6.521 5.146 7.229ZM15.604 15.5Q15.604 15.5 15.604 15.5Q15.604 15.5 15.604 15.5V13.812Q15.604 13.812 15.604 13.812Q15.604 13.812 15.604 13.812L13.917 13.458Q13.917 13.458 13.917 13.458Q13.917 13.458 13.917 13.458L12.625 14.771Q13.354 15.062 14.083 15.219Q14.812 15.375 15.604 15.5ZM12.625 14.771Q12.625 14.771 12.625 14.771Q12.625 14.771 12.625 14.771Q12.625 14.771 12.625 14.771Q12.625 14.771 12.625 14.771Q12.625 14.771 12.625 14.771Q12.625 14.771 12.625 14.771Q12.625 14.771 12.625 14.771Q12.625 14.771 12.625 14.771ZM5.146 7.229Q5.146 7.229 5.146 7.229Q5.146 7.229 5.146 7.229Q5.146 7.229 5.146 7.229Q5.146 7.229 5.146 7.229Q5.146 7.229 5.146 7.229Q5.146 7.229 5.146 7.229Q5.146 7.229 5.146 7.229Q5.146 7.229 5.146 7.229Z"/></svg>