<svg xmlns="http://www.w3.org/2000/svg" height="48" viewBox="0 -960 960 960" width="48"><path d="M297.5-200q-23.031 0-40.266-17.234Q240-234.469 240-257.5v-560q0-23.031 17.234-40.266Q274.469-875 297.5-875h440q23.031 0 40.266 17.234Q795-840.531 795-817.5v560q0 23.031-17.234 40.266Q760.531-200 737.5-200h-440Zm-115 115q-23.031 0-40.266-17.234Q125-119.469 125-142.5v-589q0-11.675 8.425-20.088 8.426-8.412 20.5-8.412 12.075 0 20.325 8.412 8.25 8.413 8.25 20.088v589h469q11.675 0 20.088 8.463Q680-125.574 680-113.825q0 12.325-8.412 20.575Q663.175-85 651.5-85h-469Zm254-522.5h58V-506q0 10.267 6.866 17.383 6.867 7.117 17.204 7.117t17.383-7.117Q543-495.733 543-506v-101.5h56.5v164q0 10.267 7.15 17.383Q613.799-419 624.116-419q10.101 0 16.992-7.117Q648-433.233 648-443.5V-623q0-14.45-8.987-23.725Q630.025-656 616-656H420q-14.025 0-23.013 9.275Q388-637.45 388-623v179.5q0 10.267 7.15 17.383Q402.299-419 412.616-419q10.101 0 16.992-7.117 6.892-7.116 6.892-17.383v-164Z"/></svg>