<svg xmlns="http://www.w3.org/2000/svg" height="48" width="48"><path d="M18.2 18.5 7.1 11.9l16.95-9.15 16.9 9.15-11.15 6.6q-1.2-1.2-2.625-1.85Q25.75 16 24 16q-1.75 0-3.175.65-1.425.65-2.625 1.85Zm3.85 25.6-17.1-9.8V15.25L16.3 22q-.15.6-.2 1.075-.05.475-.05.925 0 2.85 1.675 4.95t4.325 2.8ZM24 28q-1.6 0-2.8-1.175Q20 25.65 20 24q0-1.65 1.175-2.85 1.175-1.2 2.825-1.2 1.65 0 2.85 1.2 1.2 1.2 1.2 2.85 0 1.6-1.2 2.8Q25.65 28 24 28Zm2 16.1V31.7q2.6-.65 4.3-2.75Q32 26.85 32 24q0-.4-.075-.9T31.8 22l11.3-6.75V34.3Z"/></svg>