<svg xmlns="http://www.w3.org/2000/svg" height="48" width="48"><path d="M24 45.05q-.85 0-1.45-.6t-.6-1.45v-8.05q0-2.2-.65-3.8-.65-1.6-2.45-3.4l3-2.95q.45.5 1.1 1.325.65.825 1.05 1.425.75-1.1 1.525-2.025.775-.925 1.575-1.575 3.35-2.5 4.5-5.825t.8-7.475l-2.95 2.9q-.6.65-1.425.65-.825 0-1.475-.65-.55-.55-.575-1.4-.025-.85.575-1.45l6.6-6.55q.25-.3.625-.45.375-.15.775-.15.45 0 .825.15.375.15.675.45l6.5 6.45q.6.65.575 1.5-.025.85-.575 1.45-.7.65-1.5.65t-1.4-.65l-3-2.95q.2 5.45-1.15 9.125-1.35 3.675-5.65 7.475-2.4 2.1-3.075 3.825-.675 1.725-.675 3.925V43q0 .85-.625 1.45t-1.475.6Zm-12.3-28.4q-.2-.8-.35-2.425-.15-1.625-.05-3.625l-2.85 2.95q-.65.65-1.525.65-.875 0-1.425-.65-.65-.6-.65-1.425 0-.825.65-1.525L12 4.15q.25-.3.625-.45.375-.15.825-.15.4 0 .775.15t.675.45l6.5 6.45q.6.65.625 1.5.025.85-.625 1.45-.6.65-1.425.65-.825 0-1.475-.65l-2.95-2.95q-.15 1.7-.05 2.925.1 1.225.25 2.175Zm4.65 8.7q-1-.9-2.025-2.35-1.025-1.45-1.625-2.95l4.2-1.1q.35.9 1.025 1.925.675 1.025 1.325 1.575Z"/></svg>