<svg xmlns="http://www.w3.org/2000/svg" height="20" viewBox="0 96 960 960" width="20"><path d="m274 659 24.794 202q2 12.5 11 20.25t21 7.75H629.5q12 0 21-7.75t11-20.25l27-216.5h-12.16q-29.34 0-56.34-5.25-27-5.25-66.5-16.75-25.5-7.5-49.417-10.75-23.916-3.25-49.083-3.25-48.705 0-94.353 12.75Q315 634 274 659Zm-2.5-18q42-24 87.699-37 45.7-13 94.801-13 27.152 0 54.076 4.25T560 607q34 10.5 62.5 15.25T676 627h15.5l44-364.5H225L271.5 641ZM332 906.5q-18.662 0-32.535-12.563Q285.592 881.373 282.5 864l-79-619h553l-79 619q-3.094 17.373-16.921 29.937-13.828 12.563-31.878 12.563H332ZM299 889h362.5H299Z"/></svg>