<svg xmlns="http://www.w3.org/2000/svg" height="40" viewBox="0 -960 960 960" width="40"><path d="M575.31-516.97q18.89 0 31.14-12.38 12.24-12.37 12.24-31.27v-10l10 3.59q19.53 7.08 35.78 3.21t25.19-16.72q8.98-14.74 5.89-34.56-3.09-19.82-21.73-27.67l-10.41-4.39 10.41-4.79q17.97-9.18 21.79-27.48 3.83-18.29-5.89-32.67-8.87-13.87-24.96-17.54-16.09-3.67-36.07 3.54l-10 3.59v-11.34q0-18.89-12.24-31.14-12.25-12.24-31.14-12.24-19.57 0-31.81 12.24-12.24 12.25-12.24 31.14v11.34l-10-3.59q-20.39-7.21-36.4-3.54-16.01 3.67-24.63 17.54-10.38 14.38-6.56 32.67 3.82 18.3 22.46 27.48l10.41 4.79-10.41 4.39q-19.31 7.85-22.4 28.13t6.56 34.1q8.27 13.77 24.33 17.18t36.46-3.67l10.18-3.59v10q0 18.9 12.24 31.27 12.24 12.38 31.81 12.38Zm-.11-85.54q-20.05 0-32.33-12.72-12.28-12.72-12.28-32.11 0-19.38 12.39-31.99 12.38-12.62 32.43-12.62 19.13 0 31.87 12.72 12.74 12.72 12.74 32.1 0 19.39-12.84 32-12.85 12.62-31.98 12.62ZM341.97-269.28q-33.23 0-56.56-23.67-23.33-23.66-23.33-56.23v-466.41q0-32.57 23.33-56.23 23.33-23.67 56.56-23.67h466.41q32.57 0 56.24 23.67 23.66 23.66 23.66 56.23v466.41q0 32.57-23.66 56.23-23.67 23.67-56.24 23.67H341.97ZM224.39-85.59q-32.89 3.41-59.01-16.31-26.13-19.72-29.97-53.1L78.85-602.74q-4.21-33.13 16.38-59.19 20.59-26.06 53.41-30.58l43.18-4.92v388.76q0 45.86 31.56 77.75t78.08 31.89h471.98q3.79 18.44-7.23 32.99-11.03 14.55-27.88 16.5L224.39-85.59Zm350.92-301.95q36.29-1.08 68.36-14.73 32.06-13.65 57.77-38.14 21.41-19.41 35.94-44 14.53-24.59 21.47-53.46 2.41-9.67-4.71-17.4-7.12-7.73-17.86-6.78-29.41 4.61-55.14 17.02t-47.22 32.49q-25.97 23.9-41.96 55.8-15.99 31.89-16.65 69.2Zm0 0q-1.59-37.31-16.79-69.26-15.19-31.96-40.75-55.74-21.16-20.08-47.22-32.49-26.06-12.41-54.55-17.02-10.53-.95-17.09 6.45-6.55 7.39-4.47 17.73 5.74 29.2 20.06 53.63 14.32 24.42 35.47 43.83 24.9 23.96 56.67 37.88 31.77 13.91 68.67 14.99Z"/></svg>