<svg xmlns="http://www.w3.org/2000/svg" height="40" viewBox="0 -960 960 960" width="40"><path d="M169.334-28.667q-25.532 2.333-44.599-11.834-19.068-14.166-21.068-38.833l-71-552.333q-2.333-25.905 10.472-43.397 12.806-17.492 40.195-22.269l107-11.667v395.334q0 52.749 36.124 89.208Q262.583-188 316-188h451.335l3 28.678q1.333 25.226-13.063 44.218-14.395 18.992-38.937 21.103L169.334-28.667Zm147.999-225.999q-25.625 0-42.979-17.538Q257-289.741 257-314.333v-553.333q0-24.958 17.354-42.646 17.354-17.687 42.979-17.687h552.648q25.31 0 43.331 17.687 18.021 17.688 18.021 42.646v553.333q0 24.592-18.159 42.129-18.158 17.538-43.175 17.538H317.333Zm276-139.666q-1.667-73.001-58.794-125.334Q477.411-572 403.666-572q6.666 73.667 61.5 124.334 54.833 50.667 128.167 53.334Zm.5-129.001q19.167 0 31.667-13t12.5-31.666v-10l10 3.333q21 7.333 37.269 3.333t25.005-16.85q8.393-15.483 6.559-34.817-1.833-19.333-23.166-28L683-655.666 693.667-661q20-11 22.833-28.833 2.833-17.834-6.167-32.5-9-15-25.166-17.834Q669-743 648-736.067L638-733v-10.333Q638-763 625.5-775.5T593.333-788q-19.334 0-32.334 12.5-13 12.5-13 32.167V-733l-10-3.333q-21.666-6.667-37.166-3.834-15.5 2.834-25.103 17.834-8.064 14-5.731 32.166Q472.332-672 492.333-661l10.666 5.334L492.333-651q-21.334 8.781-23.167 28.724-1.833 19.943 6.559 34.093 8.816 14.184 24.684 17.517t37.568-4l10.022-3.333v10q0 18.666 13 31.666t32.834 13Zm-.272-87.333q-19.895 0-32.562-12.772-12.666-12.772-12.666-32t12.772-32.228q12.772-13 32.333-13 19.562 0 32.228 13.105 12.667 13.105 12.667 32 0 19.561-12.772 32.228-12.772 12.667-32 12.667Zm-.228 216.334q74.333-2.667 128.667-53.334Q776.333-498.333 783.667-572q-74.334 0-131.834 52.334-57.5 52.333-58.5 125.334Z"/></svg>