<svg xmlns="http://www.w3.org/2000/svg" height="20" viewBox="0 -960 960 960" width="20"><path d="M287.04-652Q250-652 224-677.75t-26-62.5q0-36.75 25.96-63.25 25.95-26.5 63-26.5Q324-830 350-803.74q26 26.27 26 63.74 0 36.65-25.96 62.33-25.95 25.67-63 25.67ZM179-62q-48.56 0-82.78-34.22T62-179v-213q0-24 17.5-41.5T121-451h87v-40q0-38.8 29-66.4 29-27.6 69-27.6 20 0 39 8.5t34 22.5l103 95q2 3 4 4.5t4 3.5h349q24 0 41.5 17.5T898-392v213q0 48.56-34.22 82.78T781-62H179Zm597-505q-21.49 0-36.24-15Q725-597 726-618q2-22-5-44t-22.9-37.54Q679-718 666.5-743.5T654-797q-1-21.56 14.26-37.28Q683.51-850 705-850q20.05 0 34.03 14.92Q753-820.15 754-799q1 17 7 31.5t19 26.5q25 23 36.5 55.5T825-619q-1 20-14.76 36-13.75 16-34.24 16Zm-171 0q-21.49 0-36.74-15.5Q553-598 554-619q2-21-4.5-43t-22.4-37.9Q508-720 494.5-744T482-797q-1-21.56 13.96-37.28 14.96-15.72 36-15.72t36.54 14.84Q584-820.32 585-799q1 15.93 7 31.47 6 15.53 17.27 26.8Q634-717 647.5-685.5 661-654 657-619q-1 21-15.76 36.5Q626.49-567 605-567Zm60 387h69v-154h-69v154Zm-146 0h69v-154h-69v154Zm-147 0h69v-154h-69v154Zm-146 0h69v-154h-69v154Z"/></svg>