<svg xmlns="http://www.w3.org/2000/svg" height="20" width="20"><path d="M6.354 19.042Q5.5 19.042 4.938 18.479Q4.375 17.917 4.375 17.062V2.938Q4.375 2.083 4.938 1.521Q5.5 0.958 6.354 0.958H13.646Q14.5 0.958 15.062 1.521Q15.625 2.083 15.625 2.938V17.062Q15.625 17.917 15.062 18.479Q14.5 19.042 13.646 19.042ZM5.833 12.667Q6.812 12.188 7.823 11.906Q8.833 11.625 10 11.625Q11.167 11.625 12.177 11.906Q13.188 12.188 14.167 12.667V4.958H5.833ZM10.021 10.667Q11.042 10.667 11.729 9.979Q12.417 9.292 12.417 8.271Q12.417 7.25 11.729 6.562Q11.042 5.875 10.021 5.875Q9 5.875 8.312 6.562Q7.625 7.25 7.625 8.271Q7.625 9.292 8.312 9.979Q9 10.667 10.021 10.667Z"/></svg>