<svg xmlns="http://www.w3.org/2000/svg" version="1.1" width="3300" height="2000"><g id="Notes"><style>
    text {
      font-family: monospace;
      text-anchor: middle;
    }
    text.emphasis {
      font-weight:bold;
    }
    text.lanchor {
      text-anchor: start;
    }
  </style><rect height="2200" id="artboard" fill="white" width="3300" x="0" y="0"/><line id="" style="fill:none;stroke:black;stroke-width:0.5;" x1="263" x2="3036" y1="292" y2="292"/><text class="lanchor emphasis" transform="matrix(1 0 0 1 263 322)">Weight/Scale Variations</text><text transform="matrix(1 0 0 1 559.711 322)">Ultralight</text><text transform="matrix(1 0 0 1 856.422 322)">Thin</text><text transform="matrix(1 0 0 1 1153.13 322)">Light</text><text transform="matrix(1 0 0 1 1449.84 322)">Regular</text><text transform="matrix(1 0 0 1 1746.56 322)">Medium</text><text transform="matrix(1 0 0 1 2043.27 322)">Semibold</text><text transform="matrix(1 0 0 1 2339.98 322)">Bold</text><text transform="matrix(1 0 0 1 2636.69 322)">Heavy</text><text transform="matrix(1 0 0 1 2933.4 322)">Black</text><text id="template-version" style="text-anchor: end;" transform="matrix(1 0 0 1 3036 1933)">Template v.1.0</text><text class="lanchor" transform="matrix(1 0 0 1 263 726)">Small</text><text class="lanchor" transform="matrix(1 0 0 1 263 1156)">Medium</text><text class="lanchor" transform="matrix(1 0 0 1 263 1586)">Large</text></g><g id="Guides"><g id="H-reference" style="fill:#27AAE1;stroke:none;" transform="matrix(1 0 0 1 339 696)"><path d="M 54.9316 0 L 57.666 0 L 30.5664 -70.459 L 28.0762 -70.459 L 0.976562 0 L 3.66211 0 L 12.9395 -24.4629 L 45.7031 -24.4629 Z M 29.1992 -67.0898 L 29.4434 -67.0898 L 44.8242 -26.709 L 13.8184 -26.709 Z"/></g><line id="Baseline-S" style="fill:none;stroke:#27AAE1;opacity:1;stroke-width:0.577;" x1="263" x2="3036" y1="696" y2="696"/><line id="Capline-S" style="fill:none;stroke:#27AAE1;opacity:1;stroke-width:0.577;" x1="263" x2="3036" y1="625.541" y2="625.541"/><g id="H-reference" style="fill:#27AAE1;stroke:none;" transform="matrix(1 0 0 1 339 1126)"><path d="M 54.9316 0 L 57.666 0 L 30.5664 -70.459 L 28.0762 -70.459 L 0.976562 0 L 3.66211 0 L 12.9395 -24.4629 L 45.7031 -24.4629 Z M 29.1992 -67.0898 L 29.4434 -67.0898 L 44.8242 -26.709 L 13.8184 -26.709 Z"/></g><line id="Baseline-M" style="fill:none;stroke:#27AAE1;opacity:1;stroke-width:0.577;" x1="263" x2="3036" y1="1126" y2="1126"/><line id="Capline-M" style="fill:none;stroke:#27AAE1;opacity:1;stroke-width:0.577;" x1="263" x2="3036" y1="1055.54" y2="1055.54"/><g id="H-reference" style="fill:#27AAE1;stroke:none;" transform="matrix(1 0 0 1 339 1556)"><path d="M 54.9316 0 L 57.666 0 L 30.5664 -70.459 L 28.0762 -70.459 L 0.976562 0 L 3.66211 0 L 12.9395 -24.4629 L 45.7031 -24.4629 Z M 29.1992 -67.0898 L 29.4434 -67.0898 L 44.8242 -26.709 L 13.8184 -26.709 Z"/></g><line id="Baseline-L" style="fill:none;stroke:#27AAE1;opacity:1;stroke-width:0.577;" x1="263" x2="3036" y1="1556" y2="1556"/><line id="Capline-L" style="fill:none;stroke:#27AAE1;opacity:1;stroke-width:0.577;" x1="263" x2="3036" y1="1485.54" y2="1485.54"/><rect height="119.336" id="left-margin" style="fill:darkred;stroke:none;opacity:0.4;" width="12.4512" x="1394.06" y="1030.79"/><rect height="119.336" id="right-margin" style="fill:darkgreen;stroke:none;opacity:0.4;" width="12.4512" x="1502.5112" y="1030.79"/><rect x="1406.5112" y="1045" width="96" height="96" fill="none" stroke="blue" stroke-dasharray="5"/><rect x="1394.06" y="1030.79" width="120.9024" height="119.336" fill="none" stroke="blue"/></g><g id="Symbols"><g id="Bold-L" transform="matrix(1 0 0 1 2266 1556)"><path d="M77.444 32.495 Q63.049 32.495 50.634 27.282 Q38.221 22.067 29.162 13.008 Q20.103 3.949 14.888 -8.464 Q9.675 -20.879 9.675 -35.274 Q9.675 -46.851 13.058 -57.2 Q16.443 -67.548 22.736 -76.187 L9.501 -89.397 Q7.982 -90.942 7.901 -93.217 Q7.821 -95.491 9.531 -97.087 Q11.241 -98.682 13.482 -98.682 Q15.722 -98.682 17.496 -97.15 L139.32 24.674 Q140.852 26.206 140.852 28.585 Q140.852 30.963 139.338 32.495 Q137.661 34.188 135.416 34.188 Q133.173 34.188 131.546 32.477 L118.358 19.434 Q109.718 25.727 99.37 29.112 Q89.021 32.495 77.444 32.495 Z M58.569 -41.357 H48.767 Q46.214 -41.357 44.674 -39.818 Q43.134 -38.278 43.134 -35.875 Q43.134 -33.553 44.744 -31.852 Q46.355 -30.151 48.639 -30.151 H69.66 L58.569 -41.357 Z M124.646 -5.721  100.056 -30.151 H109.328 Q110.295 -31.279 110.9 -32.69 Q111.504 -34.101 111.504 -35.794 Q111.504 -37.979 109.902 -39.668 Q108.299 -41.357 106.103 -41.357 H88.849 L47.891 -82.476 Q44.505 -85.701 45.271 -90.498 Q46.037 -95.296 50.229 -97.069 Q56.196 -100.052 63.01 -101.584 Q69.823 -103.116 77.4 -103.116 Q91.887 -103.116 104.227 -97.884 Q116.566 -92.65 125.693 -83.523 Q134.82 -74.396 140.054 -62.057 Q145.286 -49.717 145.286 -35.23 Q145.286 -27.659 143.754 -20.893 Q142.222 -14.126 139.239 -8.059 Q137.627 -3.706 132.83 -2.94 Q128.032 -2.174 124.646 -5.721 Z"/></g><g id="Semibold-L" transform="matrix(1 0 0 1 1970.27 1556)"><path d="M77.424 30.742 Q63.399 30.742 51.334 25.674 Q39.271 20.608 30.417 11.753 Q21.562 2.899 16.496 -9.164 Q11.428 -21.229 11.428 -35.254 Q11.428 -46.566 14.743 -56.604 Q18.057 -66.641 24.139 -74.996 L11.47 -87.651 Q10.015 -89.12 9.97 -91.247 Q9.923 -93.374 11.486 -94.87 Q13.048 -96.368 15.156 -96.368 Q17.263 -96.368 18.899 -94.907 L137.077 23.272 Q138.538 24.734 138.538 26.903 Q138.538 29.07 137.087 30.533 Q135.508 32.085 133.399 32.085 Q131.288 32.085 129.774 30.523 L117.166 18.031 Q108.811 24.113 98.774 27.427 Q88.736 30.742 77.424 30.742 Z M58.869 -40.937 H49.397 Q47.083 -40.937 45.635 -39.489 Q44.186 -38.039 44.186 -35.84 Q44.186 -33.721 45.674 -32.147 Q47.162 -30.571 49.26 -30.571 H69.17 L58.869 -40.937 Z M124.156 -4.318  97.813 -30.571 H107.294 Q108.683 -31.21 109.603 -32.585 Q110.522 -33.961 110.522 -35.794 Q110.522 -37.8 109.039 -39.369 Q107.554 -40.937 105.541 -40.937 H87.446 L46.488 -81.986 Q43.663 -84.719 44.22 -88.746 Q44.774 -92.772 48.267 -94.406 Q54.654 -97.81 61.975 -99.551 Q69.297 -101.294 77.4 -101.294 Q91.442 -101.294 103.464 -96.197 Q115.487 -91.102 124.379 -82.209 Q133.272 -73.317 138.367 -61.294 Q143.464 -49.272 143.464 -35.23 Q143.464 -27.13 141.721 -19.853 Q139.98 -12.576 136.576 -6.097 Q135.032 -2.514 131.008 -1.958 Q126.981 -1.403 124.156 -4.318 Z"/></g><g id="Medium-L" transform="matrix(1 0 0 1 1674.31 1556)"><path d="M77.41 29.428 Q63.662 29.428 51.86 24.47 Q40.058 19.511 31.358 10.812 Q22.659 2.112 17.7 -9.69 Q12.742 -21.491 12.742 -35.24 Q12.742 -46.351 16.006 -56.157 Q19.268 -65.963 25.19 -74.103 L12.947 -86.34 Q11.541 -87.752 11.521 -89.768 Q11.502 -91.784 12.953 -93.209 Q14.404 -94.633 16.414 -94.633 Q18.421 -94.633 19.95 -93.224 L135.394 22.22 Q136.803 23.629 136.803 25.64 Q136.803 27.651 135.398 29.06 Q133.892 30.507 131.885 30.507 Q129.876 30.507 128.444 29.056 L116.273 16.98 Q108.133 22.902 98.327 26.164 Q88.521 29.428 77.41 29.428 Z M59.095 -40.621 H49.871 Q47.735 -40.621 46.355 -39.24 Q44.974 -37.86 44.974 -35.814 Q44.974 -33.848 46.372 -32.368 Q47.769 -30.888 49.726 -30.888 H68.801 L59.095 -40.621 Z M123.787 -3.267  96.129 -30.888 H105.769 Q107.473 -31.157 108.629 -32.506 Q109.787 -33.856 109.787 -35.794 Q109.787 -37.666 108.391 -39.144 Q106.996 -40.621 105.12 -40.621 H86.395 L45.437 -81.617 Q43.033 -83.984 43.431 -87.431 Q43.828 -90.879 46.795 -92.408 Q53.496 -96.126 61.199 -98.026 Q68.902 -99.927 77.4 -99.927 Q91.109 -99.927 102.894 -94.933 Q114.678 -89.939 123.393 -81.223 Q132.109 -72.508 137.103 -60.724 Q142.097 -48.939 142.097 -35.23 Q142.097 -26.734 140.196 -19.073 Q138.296 -11.412 134.578 -4.625 Q133.088 -1.621 129.64 -1.222 Q126.193 -0.824 123.787 -3.267 Z"/></g><g id="Regular-L" transform="matrix(1 0 0 1 1378.56 1556)"><path d="M77.4 28.464 Q63.855 28.464 52.245 23.586 Q40.635 18.708 32.048 10.122 Q23.462 1.535 18.584 -10.075 Q13.706 -21.685 13.706 -35.23 Q13.706 -46.195 16.931 -55.83 Q20.156 -65.464 25.961 -73.446 L14.029 -85.379 Q12.658 -86.749 12.658 -88.684 Q12.658 -90.619 14.029 -91.99 Q15.399 -93.361 17.334 -93.361 Q19.269 -93.361 20.721 -91.99 L134.16 21.449 Q135.531 22.82 135.531 24.715 Q135.531 26.609 134.16 27.98 Q132.709 29.351 130.774 29.351 Q128.839 29.351 127.468 27.98 L115.616 16.209 Q107.634 22.014 98 25.239 Q88.365 28.464 77.4 28.464 Z M59.259 -40.39 H50.218 Q48.214 -40.39 46.883 -39.06 Q45.553 -37.729 45.553 -35.794 Q45.553 -33.94 46.883 -32.529 Q48.214 -31.118 50.068 -31.118 H68.531 L59.259 -40.39 Z M123.517 -2.496  94.896 -31.118 H104.651 Q106.586 -31.118 107.917 -32.448 Q109.247 -33.779 109.247 -35.794 Q109.247 -37.568 107.917 -38.979 Q106.586 -40.39 104.812 -40.39 H85.624 L44.666 -81.347 Q42.57 -83.444 42.852 -86.467 Q43.134 -89.491 45.714 -90.942 Q52.648 -94.892 60.63 -96.908 Q68.612 -98.924 77.4 -98.924 Q90.864 -98.924 102.474 -94.006 Q114.084 -89.087 122.671 -80.501 Q131.257 -71.914 136.176 -60.304 Q141.094 -48.694 141.094 -35.23 Q141.094 -26.442 139.078 -18.5 Q137.062 -10.559 133.112 -3.544 Q131.661 -0.964 128.637 -0.682 Q125.614 -0.4 123.517 -2.496 Z"/></g><g id="Light-L" transform="matrix(1 0 0 1 1082.77 1556)"><path d="M77.4 25.548 Q64.587 25.548 53.512 20.866 Q42.436 16.181 34.216 7.951 Q25.993 -0.281 21.308 -11.35 Q16.622 -22.422 16.622 -35.23 Q16.622 -46.143 20.032 -55.696 Q23.444 -65.247 29.496 -73.043 L17.068 -85.534 Q16.07 -86.532 16.038 -88.018 Q16.007 -89.504 17.068 -90.563 Q18.066 -91.563 19.568 -91.563 Q21.067 -91.563 22.215 -90.556 L132.757 19.985 Q133.7 20.99 133.717 22.498 Q133.733 24.004 132.749 25.003 Q131.624 26.063 130.122 26.063 Q128.621 26.063 127.623 25.003 L115.213 12.674 Q107.417 18.726 97.866 22.138 Q88.313 25.548 77.4 25.548 Z M63.757 -39.15 H50.594 Q49.023 -39.15 48.017 -38.136 Q47.011 -37.121 47.011 -35.652 Q47.011 -34.201 47.999 -33.14 Q48.989 -32.079 50.441 -32.079 H70.826 L63.757 -39.15 Z M121.999 -5.349  95.268 -32.079 H104.309 Q105.777 -32.079 106.783 -33.093 Q107.789 -34.106 107.789 -35.657 Q107.789 -37.028 106.801 -38.089 Q105.811 -39.15 104.471 -39.15 H88.197 L47.53 -79.817 Q45.547 -81.786 45.845 -84.755 Q46.143 -87.723 48.723 -89.112 Q55.052 -92.567 62.267 -94.288 Q69.481 -96.008 77.374 -96.008 Q90.144 -96.008 101.234 -91.314 Q112.325 -86.62 120.557 -78.387 Q128.79 -70.155 133.484 -59.064 Q138.178 -47.974 138.178 -35.204 Q138.178 -27.311 136.427 -20.152 Q134.674 -12.994 131.282 -6.553 Q129.893 -3.973 126.949 -3.628 Q124.004 -3.285 121.999 -5.349 Z"/></g><g id="Thin-L" transform="matrix(1 0 0 1 787.282 1556)"><path d="M77.4 22.635 Q65.319 22.635 54.778 18.145 Q44.239 13.656 36.381 5.781 Q28.524 -2.096 24.029 -12.628 Q19.535 -23.159 19.535 -35.23 Q19.535 -46.093 23.133 -55.562 Q26.73 -65.031 33.032 -72.64 L20.106 -85.688 Q19.481 -86.316 19.418 -87.351 Q19.356 -88.386 20.106 -89.137 Q20.734 -89.763 21.799 -89.763 Q22.867 -89.763 23.712 -89.123 L131.356 18.521 Q131.872 19.161 131.903 20.28 Q131.933 21.399 131.338 22.027 Q130.538 22.776 129.471 22.776 Q128.405 22.776 127.778 22.027 L114.81 9.138 Q107.201 15.44 97.732 19.037 Q88.263 22.635 77.4 22.635 Z M68.252 -37.91 H50.971 Q49.833 -37.91 49.151 -37.212 Q48.469 -36.515 48.469 -35.511 Q48.469 -34.464 49.117 -33.751 Q49.765 -33.04 50.813 -33.04 H73.12 L68.252 -37.91 Z M120.478 -8.201  95.641 -33.04 H103.969 Q104.967 -33.04 105.649 -33.738 Q106.331 -34.435 106.331 -35.52 Q106.331 -36.486 105.683 -37.197 Q105.035 -37.91 104.13 -37.91 H90.771 L50.394 -78.287 Q48.523 -80.127 48.838 -83.042 Q49.151 -85.956 51.731 -87.283 Q57.455 -90.24 63.902 -91.667 Q70.349 -93.095 77.348 -93.095 Q89.423 -93.095 99.994 -88.625 Q110.564 -84.155 118.445 -76.275 Q126.325 -68.394 130.795 -57.824 Q135.265 -47.253 135.265 -35.178 Q135.265 -28.179 133.776 -21.803 Q132.286 -15.427 129.453 -9.561 Q128.126 -6.981 125.261 -6.574 Q122.397 -6.168 120.478 -8.201 Z"/></g><g id="Ultralight-L" transform="matrix(1 0 0 1 491.205 1556)"><path d="M77.4 20.885 Q65.758 20.885 55.539 16.512 Q45.319 12.14 37.681 4.478 Q30.042 -3.185 25.663 -13.394 Q21.285 -23.601 21.285 -35.23 Q21.285 -46.063 24.994 -55.481 Q28.703 -64.9 35.153 -72.398 L21.93 -85.782 Q21.527 -86.185 21.446 -86.951 Q21.366 -87.717 21.93 -88.281 Q22.333 -88.684 23.139 -88.684 Q23.946 -88.684 24.608 -88.264 L130.514 17.642 Q130.774 18.063 130.814 18.95 Q130.854 19.837 130.492 20.24 Q129.887 20.804 129.081 20.804 Q128.274 20.804 127.871 20.24 L114.568 7.018 Q107.07 13.468 97.651 17.176 Q88.233 20.885 77.4 20.885 Z M70.95 -37.165 H51.197 Q50.318 -37.165 49.829 -36.659 Q49.343 -36.151 49.343 -35.425 Q49.343 -34.62 49.786 -34.119 Q50.229 -33.617 51.036 -33.617 H74.498 L70.95 -37.165 Z M119.567 -9.914  95.863 -33.617 H103.764 Q104.482 -33.617 104.969 -34.124 Q105.457 -34.632 105.457 -35.438 Q105.457 -36.162 105.014 -36.664 Q104.571 -37.165 103.926 -37.165 H92.316 L52.111 -77.369 Q50.31 -79.132 50.633 -82.013 Q50.955 -84.895 53.535 -86.185 Q58.897 -88.846 64.884 -90.095 Q70.869 -91.345 77.332 -91.345 Q88.991 -91.345 99.249 -87.011 Q109.508 -82.675 117.177 -75.007 Q124.845 -67.338 129.181 -57.079 Q133.515 -46.821 133.515 -35.162 Q133.515 -28.699 132.185 -22.794 Q130.854 -16.888 128.355 -11.365 Q127.065 -8.785 124.248 -8.342 Q121.431 -7.898 119.567 -9.914 Z"/></g><g id="Bold-M" transform="matrix(1 0 0 1 2281.8 1126)"><path d="M60.021 17.77 Q48.875 17.77 39.22 13.635 Q29.566 9.499 22.419 2.351 Q15.271 -4.796 11.135 -14.45 Q7 -24.105 7 -35.251 Q7 -43.489 9.312 -51.047 Q11.625 -58.605 16.125 -65.167 L6.99 -74.407 Q5.312 -76.105 5.312 -78.337 Q5.312 -80.569 7.014 -82.244 Q8.714 -83.917 10.982 -83.917 Q13.25 -83.917 14.938 -82.23 L107.062 9.77 Q108.75 11.458 108.688 13.77 Q108.625 16.083 106.951 17.77 Q105.276 19.458 103.045 19.458 Q100.812 19.458 99.115 17.756 L89.938 8.645 Q83.375 13.145 75.817 15.458 Q68.259 17.77 60.021 17.77 Z M40.438 -40.98 H38.804 Q36.45 -40.98 34.788 -39.317 Q33.125 -37.655 33.125 -35.292 Q33.125 -32.93 34.72 -31.267 Q36.314 -29.605 38.688 -29.605 H51.688 L40.438 -40.98 Z M96.188 -16.855  83.438 -29.605 H84.438 Q85.5 -30.73 86.062 -32.23 Q86.625 -33.73 86.625 -35.292 Q86.625 -37.655 85.066 -39.317 Q83.506 -40.98 81.188 -40.98 H72.062 L41.625 -71.417 Q38.125 -74.917 39.031 -79.605 Q39.938 -84.292 44.375 -85.855 Q47.938 -87.167 51.847 -87.699 Q55.758 -88.23 60 -88.23 Q71.188 -88.23 80.811 -84.095 Q90.434 -79.959 97.581 -72.811 Q104.729 -65.664 108.865 -56.041 Q113 -46.417 113 -35.23 Q113 -31.03 112.375 -27.161 Q111.75 -23.292 110.625 -19.605 Q109.312 -15.042 104.562 -14.136 Q99.812 -13.23 96.188 -16.855 Z"/></g><g id="Semibold-M" transform="matrix(1 0 0 1 1985.97 1126)"><path d="M60.013 15.923 Q49.31 15.923 39.98 11.928 Q30.651 7.933 23.745 1.025 Q16.837 -5.881 12.842 -15.21 Q8.848 -24.54 8.848 -35.242 Q8.848 -43.159 11.079 -50.42 Q13.31 -57.681 17.593 -63.972 L9.005 -72.619 Q7.433 -74.202 7.433 -76.294 Q7.433 -78.384 9.019 -79.955 Q10.605 -81.526 12.715 -81.526 Q14.826 -81.526 16.405 -79.947 L104.726 8.303 Q106.305 9.881 106.269 12.004 Q106.234 14.126 104.662 15.705 Q103.091 17.284 101.001 17.284 Q98.91 17.284 97.326 15.698 L88.743 7.178 Q82.451 11.46 75.19 13.691 Q67.929 15.923 60.013 15.923 Z M41.09 -40.545 H39.456 Q37.288 -40.545 35.75 -39.007 Q34.212 -37.47 34.212 -35.292 Q34.212 -33.115 35.684 -31.577 Q37.156 -30.04 39.34 -30.04 H51.525 L41.09 -40.545 Z M95.699 -15.442  81.101 -30.04 H82.373 Q83.815 -30.676 84.731 -32.121 Q85.646 -33.567 85.646 -35.292 Q85.646 -37.47 84.195 -39.007 Q82.743 -40.545 80.59 -40.545 H70.595 L40.212 -70.929 Q37.31 -73.83 37.999 -77.757 Q38.688 -81.684 42.364 -83.137 Q46.416 -84.831 50.828 -85.606 Q55.237 -86.382 60 -86.382 Q70.752 -86.382 80.051 -82.387 Q89.349 -78.392 96.255 -71.485 Q103.162 -64.579 107.157 -55.281 Q111.153 -45.982 111.153 -35.23 Q111.153 -30.492 110.31 -26.104 Q109.468 -21.716 107.907 -17.594 Q106.595 -13.847 102.66 -13.131 Q98.725 -12.415 95.699 -15.442 Z"/></g><g id="Medium-M" transform="matrix(1 0 0 1 1689.91 1126)"><path d="M60.005 14.536 Q49.636 14.536 40.551 10.646 Q31.465 6.756 24.739 0.031 Q18.014 -6.695 14.124 -15.781 Q10.234 -24.866 10.234 -35.235 Q10.234 -42.911 12.404 -49.95 Q14.574 -56.989 18.692 -63.075 L10.516 -71.276 Q9.021 -72.776 9.021 -74.76 Q9.021 -76.745 10.523 -78.239 Q12.023 -79.732 14.015 -79.732 Q16.009 -79.732 17.505 -78.235 L102.972 7.203 Q104.47 8.699 104.455 10.679 Q104.44 12.659 102.946 14.156 Q101.453 15.654 99.468 15.654 Q97.484 15.654 95.984 14.153 L87.845 6.078 Q81.759 10.196 74.72 12.366 Q67.681 14.536 60.005 14.536 Z M41.579 -40.219 H39.945 Q37.915 -40.219 36.471 -38.775 Q35.028 -37.331 35.028 -35.292 Q35.028 -33.254 36.407 -31.81 Q37.788 -30.366 39.829 -30.366 H51.403 L41.579 -40.219 Z M95.331 -14.382  79.347 -30.366 H80.824 Q82.551 -30.635 83.733 -32.04 Q84.912 -33.445 84.912 -35.292 Q84.912 -37.331 83.541 -38.775 Q82.17 -40.219 80.141 -40.219 H69.495 L39.153 -70.561 Q36.699 -73.015 37.224 -76.371 Q37.75 -79.727 40.856 -81.1 Q45.275 -83.077 50.061 -84.037 Q54.849 -84.996 60 -84.996 Q70.426 -84.996 79.48 -81.106 Q88.535 -77.216 95.261 -70.491 Q101.986 -63.765 105.876 -54.71 Q109.766 -45.656 109.766 -35.23 Q109.766 -30.089 108.761 -25.311 Q107.755 -20.534 105.87 -16.086 Q104.558 -12.95 101.234 -12.376 Q97.91 -11.804 95.331 -14.382 Z"/></g><g id="Regular-M" transform="matrix(1 0 0 1 1394.06 1126)"><path d="M60 13.52 Q49.875 13.52 40.969 9.708 Q32.062 5.895 25.469 -0.699 Q18.875 -7.292 15.062 -16.199 Q11.25 -25.105 11.25 -35.23 Q11.25 -42.73 13.375 -49.605 Q15.5 -56.48 19.5 -62.417 L11.625 -70.292 Q10.188 -71.73 10.188 -73.636 Q10.188 -75.542 11.625 -76.98 Q13.062 -78.417 14.969 -78.417 Q16.875 -78.417 18.312 -76.98 L101.688 6.395 Q103.125 7.833 103.125 9.708 Q103.125 11.583 101.688 13.02 Q100.25 14.458 98.344 14.458 Q96.438 14.458 95 13.02 L87.188 5.27 Q81.25 9.27 74.375 11.395 Q67.5 13.52 60 13.52 Z M41.938 -39.98 H40.304 Q38.375 -39.98 37 -38.605 Q35.625 -37.23 35.625 -35.292 Q35.625 -33.355 36.938 -31.98 Q38.25 -30.605 40.188 -30.605 H51.312 L41.938 -39.98 Z M95.062 -13.605  78.062 -30.605 H79.688 Q81.625 -30.605 83 -31.98 Q84.375 -33.355 84.375 -35.292 Q84.375 -37.23 83.062 -38.605 Q81.75 -39.98 79.812 -39.98 H68.688 L38.375 -70.292 Q36.25 -72.417 36.656 -75.355 Q37.062 -78.292 39.75 -79.605 Q44.438 -81.792 49.5 -82.886 Q54.562 -83.98 60 -83.98 Q70.188 -83.98 79.062 -80.167 Q87.938 -76.355 94.531 -69.761 Q101.125 -63.167 104.938 -54.292 Q108.75 -45.417 108.75 -35.23 Q108.75 -29.792 107.625 -24.73 Q106.5 -19.667 104.375 -14.98 Q103.062 -12.292 100.188 -11.824 Q97.312 -11.355 95.062 -13.605 Z"/></g><g id="Light-M" transform="matrix(1 0 0 1 1098.18 1126)"><path d="M60 11.26 Q50.346 11.26 41.855 7.623 Q33.364 3.985 27.076 -2.31 Q20.789 -8.604 17.15 -17.092 Q13.51 -25.58 13.51 -35.23 Q13.51 -42.979 15.875 -49.934 Q18.24 -56.889 22.578 -62.73 L13.932 -71.374 Q12.88 -72.427 12.856 -73.84 Q12.832 -75.254 13.932 -76.355 Q15.034 -77.456 16.435 -77.456 Q17.836 -77.456 18.942 -76.35 L101.081 5.789 Q102.139 6.846 102.151 8.253 Q102.164 9.659 101.075 10.76 Q99.985 11.861 98.584 11.861 Q97.183 11.861 96.081 10.76 L87.5 2.193 Q81.659 6.53 74.704 8.895 Q67.749 11.26 60 11.26 Z M46.529 -38.777 H40.259 Q38.81 -38.777 37.782 -37.745 Q36.755 -36.711 36.755 -35.279 Q36.755 -33.846 37.731 -32.815 Q38.706 -31.782 40.14 -31.782 H53.524 L46.529 -38.777 Z M93.933 -14.807  76.956 -31.782 H79.76 Q81.19 -31.782 82.218 -32.816 Q83.245 -33.85 83.245 -35.282 Q83.245 -36.715 82.269 -37.746 Q81.294 -38.777 79.885 -38.777 H69.961 L39.585 -69.155 Q37.644 -71.084 38.039 -73.786 Q38.432 -76.49 40.88 -77.657 Q45.291 -79.701 50.071 -80.71 Q54.851 -81.72 59.98 -81.72 Q69.677 -81.72 78.149 -78.081 Q86.621 -74.442 92.918 -68.147 Q99.213 -61.851 102.851 -53.379 Q106.49 -44.907 106.49 -35.21 Q106.49 -30.081 105.449 -25.312 Q104.409 -20.545 102.427 -16.11 Q101.26 -13.662 98.614 -13.217 Q95.969 -12.774 93.933 -14.807 Z"/></g><g id="Thin-M" transform="matrix(1 0 0 1 802.565 1126)"><path d="M60 9.001 Q50.818 9.001 42.741 5.538 Q34.664 2.075 28.684 -3.92 Q22.703 -9.915 19.236 -17.985 Q15.769 -26.055 15.769 -35.23 Q15.769 -43.227 18.375 -50.262 Q20.981 -57.297 25.654 -63.042 L16.24 -72.456 Q15.572 -73.124 15.524 -74.045 Q15.476 -74.965 16.24 -75.73 Q17.005 -76.495 17.901 -76.495 Q18.797 -76.495 19.574 -75.719 L100.475 5.183 Q101.154 5.861 101.177 6.799 Q101.203 7.736 100.461 8.501 Q99.721 9.265 98.825 9.265 Q97.927 9.265 97.164 8.501 L87.812 -0.884 Q82.067 3.789 75.032 6.395 Q67.998 9.001 60 9.001 Z M51.12 -37.576 H40.214 Q39.245 -37.576 38.565 -36.885 Q37.885 -36.192 37.885 -35.265 Q37.885 -34.337 38.524 -33.649 Q39.164 -32.961 40.091 -32.961 H55.735 L51.12 -37.576 Z M92.802 -16.009  75.851 -32.961 H79.831 Q80.755 -32.961 81.435 -33.652 Q82.115 -34.344 82.115 -35.271 Q82.115 -36.199 81.476 -36.887 Q80.836 -37.576 79.956 -37.576 H71.235 L40.795 -68.016 Q39.039 -69.751 39.421 -72.219 Q39.803 -74.686 42.01 -75.711 Q46.145 -77.61 50.642 -78.535 Q55.14 -79.461 59.96 -79.461 Q69.166 -79.461 77.236 -75.996 Q85.305 -72.531 91.304 -66.534 Q97.301 -60.535 100.766 -52.466 Q104.231 -44.396 104.231 -35.19 Q104.231 -30.37 103.274 -25.896 Q102.317 -21.422 100.481 -17.24 Q99.456 -15.032 97.041 -14.612 Q94.626 -14.191 92.802 -16.009 Z"/></g><g id="Ultralight-M" transform="matrix(1 0 0 1 506.415 1126)"><path d="M60 7.645 Q51.1 7.645 43.273 4.286 Q35.444 0.929 29.648 -4.886 Q23.851 -10.701 20.488 -18.521 Q17.125 -26.34 17.125 -35.23 Q17.125 -43.377 19.875 -50.46 Q22.625 -57.542 27.5 -63.23 L17.625 -73.105 Q17.188 -73.542 17.125 -74.167 Q17.062 -74.792 17.625 -75.355 Q18.188 -75.917 18.781 -75.917 Q19.375 -75.917 19.951 -75.341 L100.111 4.819 Q100.562 5.27 100.594 5.926 Q100.625 6.583 100.094 7.145 Q99.562 7.708 98.969 7.708 Q98.375 7.708 97.812 7.145 L88 -2.73 Q82.312 2.145 75.23 4.895 Q68.147 7.645 60 7.645 Z M53.875 -36.855 H40.188 Q39.506 -36.855 39.034 -36.369 Q38.562 -35.881 38.562 -35.256 Q38.562 -34.632 39 -34.15 Q39.438 -33.667 40.062 -33.667 H57.062 L53.875 -36.855 Z M92.125 -16.73  75.188 -33.667 H79.875 Q80.494 -33.667 80.965 -34.154 Q81.438 -34.641 81.438 -35.266 Q81.438 -35.89 81 -36.372 Q80.562 -36.855 80 -36.855 H72 L41.521 -67.334 Q39.875 -68.95 40.25 -71.277 Q40.625 -73.605 42.688 -74.542 Q46.656 -76.355 50.985 -77.23 Q55.312 -78.105 59.947 -78.105 Q68.86 -78.105 76.688 -74.745 Q84.515 -71.384 90.335 -65.565 Q96.154 -59.745 99.515 -51.917 Q102.875 -44.09 102.875 -35.177 Q102.875 -30.542 101.969 -26.246 Q101.062 -21.949 99.312 -17.917 Q98.375 -15.855 96.097 -15.449 Q93.82 -15.042 92.125 -16.73 Z"/></g><g id="Bold-S" transform="matrix(1 0 0 1 2294.23 696)"><path d="M47.405 5.009 Q38.951 5.009 31.632 1.894 Q24.314 -1.221 18.823 -6.713 Q13.331 -12.204 10.216 -19.522 Q7.101 -26.841 7.101 -35.295 Q7.101 -41.549 8.926 -47.444 Q10.75 -53.339 14.301 -58.456 L8.671 -64.267 Q7.446 -65.508 7.446 -67.023 Q7.446 -68.537 8.69 -69.76 Q9.933 -70.982 11.541 -70.982 Q13.15 -70.982 14.35 -69.749 L81.9 -2.297 Q83.141 -1.056 83.092 0.589 Q83.042 2.234 81.82 3.431 Q80.63 4.664 79.05 4.664 Q77.47 4.664 76.229 3.42 L70.566 -2.191 Q65.449 1.36 59.554 3.184 Q53.659 5.009 47.405 5.009 Z M33.483 -39.372 H31.011 Q29.321 -39.372 28.123 -38.18 Q26.925 -36.987 26.925 -35.3 Q26.925 -33.613 28.072 -32.399 Q29.219 -31.186 30.919 -31.186 H41.57 L33.483 -39.372 Z M74.807 -20.732  64.353 -31.186 H66.227 Q66.897 -32.074 67.228 -33.138 Q67.558 -34.202 67.558 -35.259 Q67.558 -36.946 66.439 -38.159 Q65.32 -39.372 63.662 -39.372 H56.167 L32.842 -62.697 Q30.179 -65.36 30.894 -68.812 Q31.609 -72.264 34.815 -73.398 Q37.672 -74.532 40.807 -75.001 Q43.941 -75.469 47.34 -75.469 Q55.871 -75.469 63.119 -72.354 Q70.366 -69.239 75.857 -63.747 Q81.349 -58.256 84.464 -51.009 Q87.579 -43.761 87.579 -35.23 Q87.579 -31.865 87.037 -28.763 Q86.494 -25.66 85.508 -22.705 Q84.563 -19.398 81.016 -18.733 Q77.47 -18.069 74.807 -20.732 Z"/></g><g id="Semibold-S" transform="matrix(1 0 0 1 1998.1 696)"><path d="M47.398 3.551 Q39.294 3.551 32.232 0.547 Q25.17 -2.457 19.869 -7.759 Q14.567 -13.06 11.563 -20.122 Q8.559 -27.184 8.559 -35.288 Q8.559 -41.289 10.319 -46.95 Q12.08 -52.61 15.458 -57.513 L10.261 -62.856 Q9.119 -64.007 9.119 -65.41 Q9.119 -66.813 10.272 -67.954 Q11.425 -69.095 12.909 -69.095 Q14.393 -69.095 15.508 -67.948 L80.056 -3.455 Q81.212 -2.3 81.183 -0.805 Q81.156 0.69 80.014 1.802 Q78.906 2.949 77.437 2.949 Q75.969 2.949 74.818 1.796 L69.623 -3.348 Q64.72 0.03 59.06 1.791 Q53.399 3.551 47.398 3.551 Z M33.998 -39.029 H31.525 Q29.982 -39.029 28.882 -37.935 Q27.783 -36.842 27.783 -35.3 Q27.783 -33.759 28.832 -32.644 Q29.882 -31.53 31.434 -31.53 H41.442 L33.998 -39.029 Z M74.421 -19.618  62.51 -31.53 H64.597 Q65.568 -32.032 66.177 -33.052 Q66.786 -34.073 66.786 -35.259 Q66.786 -36.8 65.752 -37.915 Q64.718 -39.029 63.191 -39.029 H55.009 L31.728 -62.311 Q29.536 -64.502 30.08 -67.354 Q30.623 -70.205 33.228 -71.254 Q36.472 -72.689 40.001 -73.35 Q43.531 -74.011 47.34 -74.011 Q55.528 -74.011 62.519 -71.007 Q69.51 -68.003 74.811 -62.701 Q80.113 -57.4 83.117 -50.409 Q86.121 -43.418 86.121 -35.23 Q86.121 -31.441 85.407 -27.929 Q84.693 -24.417 83.364 -21.118 Q82.419 -18.454 79.515 -17.94 Q76.612 -17.426 74.421 -19.618 Z"/></g><g id="Medium-S" transform="matrix(1 0 0 1 1701.85 696)"><path d="M47.392 2.458 Q39.551 2.458 32.681 -0.464 Q25.812 -3.385 20.653 -8.543 Q15.495 -13.702 12.574 -20.571 Q9.652 -27.441 9.652 -35.282 Q9.652 -41.093 11.365 -46.579 Q13.077 -52.063 16.326 -56.805 L11.453 -61.797 Q10.372 -62.881 10.372 -64.2 Q10.372 -65.52 11.458 -66.6 Q12.543 -67.68 13.935 -67.68 Q15.326 -67.68 16.376 -66.597 L78.673 -4.323 Q79.764 -3.233 79.752 -1.85 Q79.74 -0.468 78.66 0.58 Q77.613 1.663 76.228 1.663 Q74.844 1.663 73.759 0.577 L68.915 -4.216 Q64.173 -0.967 58.689 0.745 Q53.203 2.458 47.392 2.458 Z M34.384 -38.772 H31.911 Q30.477 -38.772 29.451 -37.752 Q28.426 -36.732 28.426 -35.3 Q28.426 -33.868 29.403 -32.827 Q30.38 -31.787 31.819 -31.787 H41.346 L34.384 -38.772 Z M74.131 -18.781  61.126 -31.787 H63.375 Q64.571 -31.999 65.389 -32.988 Q66.207 -33.977 66.207 -35.259 Q66.207 -36.691 65.236 -37.731 Q64.266 -38.772 62.837 -38.772 H54.141 L30.891 -62.021 Q29.054 -63.859 29.468 -66.26 Q29.883 -68.662 32.038 -69.646 Q35.571 -71.305 39.398 -72.112 Q43.223 -72.918 47.34 -72.918 Q55.27 -72.918 62.069 -69.996 Q68.868 -67.075 74.027 -61.917 Q79.185 -56.758 82.106 -49.959 Q85.028 -43.16 85.028 -35.23 Q85.028 -31.122 84.185 -27.304 Q83.342 -23.485 81.756 -19.928 Q80.81 -17.747 78.39 -17.345 Q75.969 -16.944 74.131 -18.781 Z"/></g><g id="Regular-S" transform="matrix(1 0 0 1 1405.73 696)"><path d="M47.388 1.656 Q39.74 1.656 33.012 -1.204 Q26.284 -4.064 21.229 -9.119 Q16.175 -14.174 13.314 -20.902 Q10.454 -27.63 10.454 -35.278 Q10.454 -40.95 12.131 -46.307 Q13.808 -51.662 16.963 -56.286 L12.328 -61.02 Q11.293 -62.056 11.293 -63.313 Q11.293 -64.571 12.328 -65.606 Q13.364 -66.642 14.687 -66.642 Q16.01 -66.642 17.013 -65.606 L77.659 -4.96 Q78.703 -3.917 78.703 -2.617 Q78.703 -1.317 77.667 -0.317 Q76.664 0.719 75.342 0.719 Q74.018 0.719 72.983 -0.317 L68.396 -4.853 Q63.772 -1.697 58.417 -0.021 Q53.06 1.656 47.388 1.656 Z M34.667 -38.583 H32.194 Q30.84 -38.583 29.869 -37.618 Q28.897 -36.652 28.897 -35.3 Q28.897 -33.948 29.821 -32.962 Q30.745 -31.975 32.102 -31.975 H41.275 L34.667 -38.583 Z M73.919 -18.168  60.112 -31.975 H62.479 Q63.84 -31.975 64.811 -32.941 Q65.783 -33.906 65.783 -35.259 Q65.783 -36.611 64.859 -37.597 Q63.935 -38.583 62.578 -38.583 H53.504 L30.278 -61.809 Q28.7 -63.387 29.02 -65.459 Q29.341 -67.53 31.166 -68.467 Q34.91 -70.291 38.955 -71.203 Q42.999 -72.116 47.34 -72.116 Q55.082 -72.116 61.739 -69.256 Q68.396 -66.395 73.451 -61.341 Q78.505 -56.286 81.366 -49.629 Q84.226 -42.972 84.226 -35.23 Q84.226 -30.889 83.289 -26.845 Q82.352 -22.8 80.577 -19.055 Q79.632 -17.228 77.565 -16.908 Q75.497 -16.59 73.919 -18.168 Z"/></g><g id="Light-S" transform="matrix(1 0 0 1 1109.75 696)"><path d="M47.388 -0.127 Q40.112 -0.127 33.711 -2.849 Q27.31 -5.571 22.497 -10.39 Q17.684 -15.208 14.961 -21.606 Q12.237 -28.005 12.237 -35.278 Q12.237 -41.147 14.103 -46.566 Q15.969 -51.984 19.392 -56.533 L14.149 -61.874 Q13.417 -62.606 13.398 -63.474 Q13.379 -64.343 14.149 -65.113 Q14.919 -65.884 15.844 -65.884 Q16.769 -65.884 17.51 -65.109 L77.181 -5.438 Q77.925 -4.695 77.934 -3.764 Q77.944 -2.834 77.184 -2.1 Q76.456 -1.33 75.531 -1.33 Q74.606 -1.33 73.836 -2.1 L68.643 -7.282 Q64.094 -3.859 58.676 -1.993 Q53.257 -0.127 47.388 -0.127 Z M38.289 -37.634 H32.159 Q31.183 -37.634 30.486 -36.939 Q29.789 -36.243 29.789 -35.289 Q29.789 -34.335 30.448 -33.62 Q31.106 -32.904 32.065 -32.904 H43.019 L38.289 -37.634 Z M73.028 -19.117  59.239 -32.904 H62.536 Q63.497 -32.904 64.194 -33.601 Q64.891 -34.297 64.891 -35.251 Q64.891 -36.204 64.232 -36.919 Q63.574 -37.634 62.635 -37.634 H54.509 L31.233 -60.912 Q29.8 -62.335 30.111 -64.221 Q30.422 -66.108 32.057 -66.93 Q35.584 -68.641 39.405 -69.486 Q43.226 -70.333 47.324 -70.333 Q54.68 -70.333 61.018 -67.61 Q67.358 -64.887 72.178 -60.068 Q76.997 -55.248 79.72 -48.908 Q82.443 -42.57 82.443 -35.214 Q82.443 -31.116 81.572 -27.304 Q80.702 -23.493 79.04 -19.947 Q78.209 -18.309 76.323 -18.009 Q74.437 -17.709 73.028 -19.117 Z"/></g><g id="Thin-S" transform="matrix(1 0 0 1 814.015 696)"><path d="M47.388 -1.91 Q40.484 -1.91 34.409 -4.495 Q28.336 -7.078 23.766 -11.661 Q19.194 -16.243 16.607 -22.311 Q14.02 -28.38 14.02 -35.278 Q14.02 -41.343 16.076 -46.825 Q18.132 -52.307 21.819 -56.78 L15.969 -62.728 Q15.541 -63.156 15.503 -63.636 Q15.465 -64.115 15.969 -64.62 Q16.474 -65.125 17.001 -65.125 Q17.528 -65.125 18.008 -64.611 L76.703 -5.917 Q77.147 -5.472 77.166 -4.912 Q77.186 -4.351 76.7 -3.882 Q76.247 -3.378 75.72 -3.378 Q75.194 -3.378 74.69 -3.882 L68.89 -9.709 Q64.417 -6.022 58.935 -3.966 Q53.453 -1.91 47.388 -1.91 Z M41.912 -36.687 H32.123 Q31.526 -36.687 31.103 -36.261 Q30.68 -35.834 30.68 -35.278 Q30.68 -34.723 31.073 -34.278 Q31.466 -33.834 32.026 -33.834 H44.764 L41.912 -36.687 Z M72.136 -20.064  58.367 -33.834 H62.592 Q63.154 -33.834 63.577 -34.261 Q64 -34.687 64 -35.242 Q64 -35.797 63.607 -36.242 Q63.214 -36.687 62.691 -36.687 H55.514 L32.187 -60.013 Q30.9 -61.284 31.202 -62.984 Q31.503 -64.684 32.949 -65.394 Q36.258 -66.991 39.855 -67.77 Q43.453 -68.55 47.308 -68.55 Q54.276 -68.55 60.298 -65.965 Q66.319 -63.379 70.904 -58.794 Q75.489 -54.209 78.075 -48.188 Q80.66 -42.166 80.66 -35.198 Q80.66 -31.343 79.856 -27.764 Q79.052 -24.185 77.504 -20.839 Q76.786 -19.39 75.082 -19.109 Q73.378 -18.828 72.136 -20.064 Z"/></g><g id="Ultralight-S" transform="matrix(1 0 0 1 517.792 696)"><path d="M47.388 -2.98 Q40.706 -2.98 34.829 -5.482 Q28.951 -7.983 24.526 -12.423 Q20.101 -16.863 17.595 -22.734 Q15.09 -28.604 15.09 -35.278 Q15.09 -41.461 17.259 -46.98 Q19.429 -52.5 23.276 -56.927 L17.062 -63.239 Q16.816 -63.486 16.766 -63.733 Q16.717 -63.979 17.062 -64.324 Q17.407 -64.67 17.695 -64.67 Q17.982 -64.67 18.306 -64.314 L76.416 -6.204 Q76.681 -5.938 76.706 -5.6 Q76.73 -5.262 76.41 -4.952 Q76.122 -4.607 75.835 -4.607 Q75.547 -4.607 75.202 -4.952 L69.038 -11.165 Q64.61 -7.319 59.09 -5.149 Q53.571 -2.98 47.388 -2.98 Z M44.085 -36.118 H32.102 Q31.733 -36.118 31.474 -35.853 Q31.215 -35.588 31.215 -35.272 Q31.215 -34.956 31.449 -34.674 Q31.682 -34.392 32.004 -34.392 H45.811 L44.085 -36.118 Z M71.602 -20.633  57.844 -34.392 H62.627 Q62.947 -34.392 63.207 -34.656 Q63.465 -34.921 63.465 -35.237 Q63.465 -35.553 63.231 -35.836 Q62.998 -36.118 62.726 -36.118 H56.118 L32.76 -59.475 Q31.56 -60.652 31.856 -62.241 Q32.152 -63.831 33.483 -64.472 Q36.661 -66.001 40.126 -66.741 Q43.59 -67.48 47.299 -67.48 Q54.035 -67.48 59.865 -64.977 Q65.696 -62.473 70.14 -58.03 Q74.583 -53.586 77.087 -47.755 Q79.59 -41.925 79.59 -35.189 Q79.59 -31.48 78.826 -28.04 Q78.062 -24.6 76.582 -21.373 Q75.933 -20.039 74.338 -19.769 Q72.742 -19.499 71.602 -20.633 Z"/></g></g></svg>