<svg xmlns="http://www.w3.org/2000/svg" height="24" width="24"><path d="M4.1 19.775q-.775 0-1.325-.55-.55-.55-.55-1.325v-2.95H4.1v2.95h2.95v1.875ZM8.875 16l1.05-5.175L8 11.6v3.35H6.125v-4.575l3.9-1.65q.85-.375 1.25-.475.4-.1.725-.1.525 0 .938.25.412.25.687.7l1 1.575q.1.15.2.287.1.138.225.263-1.2.8-1.962 2.037-.763 1.238-.963 2.738Zm4.6-8.425q-.8 0-1.375-.575t-.575-1.375q0-.825.575-1.388.575-.562 1.375-.562.825 0 1.388.562.562.563.562 1.388 0 .8-.562 1.375-.563.575-1.388.575ZM2.225 5.05V2.1q0-.775.55-1.325.55-.55 1.325-.55h2.95V2.1H4.1v2.95Zm17.675 0V2.1h-2.95V.225h2.95q.775 0 1.325.55.55.55.55 1.325v2.95ZM18.875 21.7q-2 0-3.412-1.412-1.413-1.413-1.413-3.413 0-2.025 1.413-3.425 1.412-1.4 3.412-1.4 2.025 0 3.425 1.4t1.4 3.425q0 2-1.4 3.413-1.4 1.412-3.425 1.412Zm-.475-3.875h.95v-3.85h-.95Zm.475 1.95q.2 0 .35-.15.15-.15.15-.35 0-.2-.15-.35-.15-.15-.35-.15-.2 0-.35.15-.15.15-.15.35 0 .2.15.35.15.15.35.15Z"/></svg>