<svg xmlns="http://www.w3.org/2000/svg" height="40" viewBox="0 -960 960 960" width="40"><path d="M657.13-200.15v-183.49h40.82v-40q0-30.23 20.42-51.48 20.42-21.24 50.66-21.24 30.23 0 50.57 21.24 20.35 21.25 20.35 51.48v40H880v183.49H657.13Zm71.59-183.49h81.13v-40q0-17.31-11.84-29.63-11.83-12.32-28.98-12.32-17.16 0-28.73 12.32-11.58 12.32-11.58 29.63v40ZM129.26-545.21 74.82-599.8q82.87-77.61 187.05-118.83T480-759.85q113.95 0 218.13 41.22 104.18 41.22 187.05 118.83l-25.08 25.85q-21.05-9.38-42.86-13.69-21.8-4.31-44.88-4.62-65.08-44.51-139.26-67.25-74.18-22.75-153.1-22.75-98.31 0-188.82 35.32-90.51 35.32-161.92 101.73Zm160.69 159.98-52.26-52.92q49.05-46.9 111.66-71.89 62.6-24.99 130.65-24.99 28.69 0 56.72 4.72 28.02 4.72 54.87 14.08-13.64 14.41-25.32 29.76-11.68 15.34-20.22 33.32-16.36-3.85-32.78-5.53-16.42-1.68-33.27-1.68-53.72 0-102.42 19.44-48.71 19.43-87.63 55.69ZM480-191.9l-87.49-88.31q17.41-15.74 39.7-24.76Q454.49-314 480-314q18.59 0 35.33 5.03 16.75 5.02 31.85 13.33v34.97L480-191.9Z"/></svg>