<svg xmlns="http://www.w3.org/2000/svg" height="24" width="24"><path d="M4.825 16.15H6.925Q6.875 15.3 6.275 14.7Q5.675 14.1 4.825 14.05ZM10.025 16.15Q10.35 16.15 10.55 15.912Q10.75 15.675 10.7 15.4Q10.425 13.375 9.013 11.962Q7.6 10.55 5.575 10.275Q5.3 10.225 5.062 10.438Q4.825 10.65 4.825 11Q4.825 11.275 5.037 11.512Q5.25 11.75 5.575 11.825Q6.95 12.075 7.925 13.05Q8.9 14.025 9.15 15.4Q9.2 15.725 9.463 15.938Q9.725 16.15 10.025 16.15ZM13.85 16.15Q14.175 16.15 14.388 15.925Q14.6 15.7 14.575 15.4Q14.3 11.775 11.75 9.225Q9.2 6.675 5.575 6.4Q5.275 6.375 5.05 6.6Q4.825 6.825 4.825 7.15Q4.825 7.45 5.05 7.675Q5.275 7.9 5.575 7.95Q8.55 8.2 10.663 10.312Q12.775 12.425 13.025 15.375Q13.075 15.7 13.3 15.925Q13.525 16.15 13.85 16.15ZM9 21.325Q8.5 21.325 8.15 20.975Q7.8 20.625 7.8 20.125V19.275H4.15Q3.1 19.275 2.4 18.575Q1.7 17.875 1.7 16.825V5.175Q1.7 4.125 2.4 3.425Q3.1 2.725 4.15 2.725H19.85Q20.9 2.725 21.6 3.425Q22.3 4.125 22.3 5.175V16.825Q22.3 17.875 21.6 18.575Q20.9 19.275 19.85 19.275H16.2V20.125Q16.2 20.625 15.85 20.975Q15.5 21.325 15 21.325Z"/></svg>