<svg xmlns="http://www.w3.org/2000/svg" height="48" viewBox="0 -960 960 960" width="48"><path d="M184.65-119.02q-26.57 0-46.1-19.53t-19.53-46.1v-136.28q0-13.35 9.62-22.96 9.62-9.61 23.37-9.61 13.75 0 23.2 9.61 9.44 9.61 9.44 22.96v136.28h136.28q13.35 0 22.96 9.66 9.61 9.66 9.61 23.08 0 14-9.61 23.44-9.61 9.45-22.96 9.45H184.65Zm590.7 0H639.57q-13.93 0-23.5-9.62t-9.57-23.37q0-13.75 9.57-23.2 9.57-9.44 23.5-9.44h135.78v-136.28q0-13.35 9.62-22.96 9.62-9.61 23.35-9.61 13.73 0 23.31 9.61 9.59 9.61 9.59 22.96v136.28q0 26.57-19.6 46.1-19.61 19.53-46.27 19.53ZM119.02-639.57v-135.78q0-26.66 19.53-46.27 19.53-19.6 46.1-19.6h136.28q13.35 0 22.96 9.8 9.61 9.8 9.61 23.2 0 13.98-9.61 23.43-9.61 9.44-22.96 9.44H184.65v135.78q0 13.93-9.66 23.5t-23.08 9.57q-14 0-23.44-9.57-9.45-9.57-9.45-23.5Zm656.33 0v-135.78H639.57q-13.93 0-23.5-9.62t-9.57-23.35q0-13.73 9.57-23.31 9.57-9.59 23.5-9.59h135.78q26.66 0 46.27 19.6 19.6 19.61 19.6 46.27v135.78q0 13.93-9.8 23.5t-23.2 9.57q-13.98 0-23.43-9.57-9.44-9.57-9.44-23.5ZM479.98-335.46q-63.43 0-103.98-40.54-40.54-40.55-40.54-103.98 0-63.43 40.54-104.12 40.55-40.68 103.98-40.68 63.43 0 104.12 40.68 40.68 40.69 40.68 104.12 0 63.43-40.68 103.98-40.69 40.54-104.12 40.54Z"/></svg>