<svg xmlns="http://www.w3.org/2000/svg" height="48" width="48"><path d="M14.3 43.25q-4.3 0-7.225-2.925T4.15 33.15q0-2.55 1.2-4.775 1.2-2.225 3.3-3.675V10.25q0-2.3 1.65-3.975 1.65-1.675 4-1.675 2.3 0 3.95 1.675Q19.9 7.95 19.9 10.25V24.7q2.1 1.45 3.3 3.675 1.2 2.225 1.2 4.775 0 4.25-2.95 7.175T14.3 43.25ZM8 33.15h12.5q0-1.9-.975-3.625T16.8 26.9l-.75-.25v-16.4q0-.7-.525-1.225Q15 8.5 14.3 8.5q-.8 0-1.275.525-.475.525-.475 1.225v16.4l-.75.25q-1.9 1-2.85 2.7Q8 31.3 8 33.15Zm18.8-7.1 7.35-19.3h3.25l7.3 19.3h-3.3l-1.95-5.45H32.1l-2 5.45Zm6.15-8.1h5.65l-2.45-7.05h-.8Z"/></svg>