<svg xmlns="http://www.w3.org/2000/svg" height="40" width="40"><path d="M8.583 24.792h22.834q.125-.417.208-.875.083-.459.083-1.042v-8.208q0-2.625-1.875-4.5t-4.541-1.875H14.667q-2.625 0-4.5 1.875t-1.875 4.5v8.208q0 .583.083 1.042.083.458.208.875Zm6.125 11.125q-4.375 0-7.5-3.125t-3.125-7.5V14.708q0-4.416 3.125-7.541t7.5-3.125h10.584q4.416 0 7.541 3.125t3.125 7.541v10.584q0 4.375-3.125 7.5t-7.541 3.125ZM20 24.792Zm-4.875 6.916q0-.583.375-.958t.958-.375q.542 0 .917.375t.375.958h4.5q0-.583.375-.958t.917-.375q.583 0 .958.375t.375.958q1.875 0 3.208-.666 1.334-.667 2.292-2h-2q0 .583-.354.958t-.938.375q-.541 0-.937-.375t-.396-.958h-4.417q0 .583-.375.958t-.958.375q-.583 0-.938-.375-.354-.375-.354-.958H14.25q0 .583-.375.958t-.958.375q-.542 0-.917-.375t-.375-.958H9.667q.875 1.291 2.229 1.979 1.354.687 3.229.687Z"/></svg>