<svg xmlns="http://www.w3.org/2000/svg" height="20" viewBox="0 -960 960 960" width="20"><path d="M124.08-292.08v-97.19q0-52.11 36.98-88.31 36.98-36.19 91.07-36.19H607v-49.7q-1-13.59-11.33-23.69-10.32-10.11-24.63-10.11H402.61q-14.89 0-25.65 9.98-10.77 9.97-10.77 23.71h-47.96q0-33.95 24.54-57.8 24.54-23.85 60.05-23.85h167.94q35.09 0 59.15 23.85 24.05 23.85 25.05 57.8v163.2h25.15q15.08 0 26.27-9.84 11.2-9.83 11.2-23.8v-152.47q0-33.87 24.29-57.65t59.37-23.78h34.68v47.96h-34.75q-15.2 0-25.42 9.98-10.21 9.97-10.21 23.39v152.51q0 33.96-25.11 57.81-25.12 23.85-60.51 23.85h-25.15v60.34H124.08Z"/></svg>