<svg xmlns="http://www.w3.org/2000/svg" height="48" viewBox="0 -960 960 960" width="48"><path d="M99.83-143.33q-32.44 0-54.88-22.43-22.43-22.43-22.43-54.87v-518.74q0-32.54 22.43-55.04 22.44-22.5 54.88-22.5h760.34q32.44 0 54.88 22.5 22.43 22.5 22.43 55.04v518.74q0 32.44-22.43 54.87-22.44 22.43-54.88 22.43H99.83Zm95.6-77.3h569.14v-518.74H195.43v518.74Zm451.59-119.94h-90.61q-12.08 0-20.73 8.63-8.66 8.63-8.66 19.72 0 11.08 8.66 20.02 8.65 8.94 20.73 8.94h119.48q11.56 0 20.12-8.99t8.56-20.45v-119.71q0-10.81-8.66-19.49-8.65-8.67-19.9-8.67-11.24 0-20.11 8.67-8.88 8.68-8.88 19.49v91.84Zm-334.04-281.5h91.85q10.81 0 19.48-8.84 8.67-8.85 8.67-19.94 0-11.08-8.67-19.8t-19.48-8.72H285.11q-11.56 0-20.62 8.56t-9.06 20.11v119.48q0 11.85 8.88 20.5 8.87 8.65 20.12 8.65 11.24 0 19.89-8.65 8.66-8.65 8.66-20.5v-90.85Z"/></svg>