<svg xmlns="http://www.w3.org/2000/svg" height="40" viewBox="0 -960 960 960" width="40"><path d="M122.333-138q-41.8 0-71.566-29.767Q21-197.533 21-239.333v-481.334q0-42.075 29.767-72.037 29.766-29.963 71.566-29.963h715.334q41.8 0 71.566 29.963Q939-762.742 939-720.667v481.334q0 41.8-29.767 71.566Q879.467-138 837.667-138H122.333Zm34.666-582.667h-34.666v481.334h34.666v-481.334Zm63.333 481.334h519.336v-481.334H220.332v481.334Zm582.669-481.334v481.334h34.666v-481.334h-34.666Zm0 0h34.666-34.666Zm-646.002 0h-34.666 34.666Zm449.169 336.168h-72.167q-17.206 0-29.186 12.071-11.981 12.072-11.981 28.75t11.981 28.595q11.98 11.916 29.186 11.916h116.462q15.716 0 26.71-10.994 10.994-10.994 10.994-26.672V-457q0-16.683-12.071-28.758-12.072-12.075-29.083-12.075-17.012 0-28.929 12.075-11.916 12.075-11.916 28.758v72.501ZM354.165-587.834h72.501q16.683 0 28.758-12.006 12.075-12.005 12.075-28.583 0-16.577-12.075-28.66-12.075-12.084-28.758-12.084H310.499q-15.966 0-27.15 10.995-11.183 10.994-11.183 26.71V-515q0 16.539 12.006 28.519 12.005 11.981 28.916 11.981t28.994-11.981q12.083-11.98 12.083-28.519v-72.834Z"/></svg>