<svg xmlns="http://www.w3.org/2000/svg" height="40" width="40"><path d="M9.25 35.458Q7.5 35.458 5.854 34.75Q4.208 34.042 3.042 32.667Q4.417 32.417 5.312 31.479Q6.208 30.542 6.208 28.875Q6.208 26.833 7.646 25.417Q9.083 24 11.125 24Q13.167 24 14.562 25.417Q15.958 26.833 15.958 28.833Q15.958 31.667 14 33.562Q12.042 35.458 9.25 35.458ZM9.375 32.417Q10.792 32.417 11.917 31.354Q13.042 30.292 13.042 28.875Q13.042 28.083 12.542 27.562Q12.042 27.042 11.25 27.042Q10.458 27.042 9.917 27.562Q9.375 28.083 9.375 28.875Q9.375 30.25 9.042 31.083Q8.708 31.917 7.792 32.208Q8 32.292 8.583 32.354Q9.167 32.417 9.375 32.417ZM19.167 25.208 14.875 20.792 31.917 3.667 36.292 8.083ZM9.375 32.417Q9.167 32.417 8.583 32.354Q8 32.292 7.792 32.208Q8.708 31.917 9.042 31.083Q9.375 30.25 9.375 28.875Q9.375 28.083 9.917 27.562Q10.458 27.042 11.25 27.042Q12.042 27.042 12.542 27.562Q13.042 28.083 13.042 28.875Q13.042 30.333 11.917 31.375Q10.792 32.417 9.375 32.417Z"/></svg>