<svg xmlns="http://www.w3.org/2000/svg" height="24" width="24"><path d="M19.275 5.8q-.875 0-1.5-.612-.625-.613-.625-1.488t.613-1.488q.612-.612 1.487-.612.875 0 1.488.612.612.613.612 1.488t-.612 1.488q-.613.612-1.463.612ZM17.2 22.15v-8.275q0-.825-.3-1.5t-1-1.125l1.275-3.225q.275-.6.837-.963.563-.362 1.238-.362t1.25.362q.575.363.825.963L24.75 16.5h-3.375v5.65Zm-4.7-10.375q-.725 0-1.225-.5-.5-.5-.5-1.225 0-.725.5-1.225.5-.5 1.225-.5.725 0 1.225.512.5.513.5 1.213 0 .725-.5 1.225-.5.5-1.225.5ZM4 5.8q-.875 0-1.5-.612-.625-.613-.625-1.488t.612-1.488Q3.1 1.6 3.975 1.6t1.488.612q.612.613.612 1.488t-.612 1.488Q4.85 5.8 4 5.8ZM1.9 22.15v-6.2H-.675V9.475q0-1.05.7-1.763Q.725 7 1.775 7h4.4q1.05 0 1.75.712.7.713.7 1.763v6.475H6.05v6.2Zm8.9 0V18h-1v-3.625q0-.775.55-1.325.55-.55 1.325-.55h1.65q.775 0 1.325.55.55.55.55 1.325V18h-1v4.15Z"/></svg>