<svg xmlns="http://www.w3.org/2000/svg" height="24" width="24"><path d="M12.325 3.5Q15.625 3.5 18 5.713Q20.375 7.925 20.7 11.175Q20.7 11.275 20.7 11.35Q20.7 11.425 20.7 11.525H19.325Q19.325 11.425 19.325 11.35Q19.325 11.275 19.325 11.175Q19.025 8.5 17.038 6.675Q15.05 4.85 12.325 4.85Q10.65 4.85 9.175 5.562Q7.7 6.275 6.675 7.55H8.65Q8.925 7.55 9.125 7.75Q9.325 7.95 9.325 8.225Q9.325 8.5 9.125 8.7Q8.925 8.9 8.65 8.9H5.525Q5.075 8.9 4.775 8.6Q4.475 8.3 4.475 7.85V4.725Q4.475 4.45 4.675 4.25Q4.875 4.05 5.15 4.05Q5.425 4.05 5.625 4.25Q5.825 4.45 5.825 4.725V6.5Q7 5.025 8.713 4.262Q10.425 3.5 12.325 3.5ZM13.1 14.325 11.35 12.6Q11.175 12.425 11.113 12.262Q11.05 12.1 11.05 11.875V7.275Q11.05 7 11.25 6.8Q11.45 6.6 11.725 6.6Q12 6.6 12.2 6.8Q12.4 7 12.4 7.275V11.7L13.825 13.125ZM11.025 20.475Q8.3 20.075 6.363 18.275Q4.425 16.475 3.95 13.9Q3.825 13.6 4 13.35Q4.175 13.1 4.475 13.05Q4.7 13 4.9 13.075Q5.1 13.15 5.2 13.375Q5.725 15.45 6.988 16.837Q8.25 18.225 10 18.725L11.025 20.475Q11.025 20.475 11.025 20.475Q11.025 20.475 11.025 20.475ZM18.25 22.35Q17.8 22.275 17.425 22.05Q17.05 21.825 16.775 21.525L15.775 21.85Q15.65 21.875 15.525 21.837Q15.4 21.8 15.325 21.675L15.05 21.225Q14.975 21.075 14.975 20.913Q14.975 20.75 15.1 20.675L15.875 20.05Q15.75 19.6 15.75 19.125Q15.75 18.65 15.875 18.2L15.1 17.55Q14.95 17.475 14.963 17.312Q14.975 17.15 15.05 17L15.3 16.55Q15.375 16.4 15.525 16.325Q15.675 16.25 15.825 16.325L16.8 16.7Q17.075 16.425 17.462 16.188Q17.85 15.95 18.25 15.85L18.425 14.85Q18.45 14.7 18.6 14.613Q18.75 14.525 18.875 14.525H19.375Q19.5 14.525 19.638 14.625Q19.775 14.725 19.8 14.875L19.95 15.85Q20.375 16 20.788 16.212Q21.2 16.425 21.5 16.775L22.475 16.425Q22.625 16.35 22.775 16.425Q22.925 16.5 23 16.65L23.25 17.05Q23.325 17.2 23.338 17.362Q23.35 17.525 23.2 17.6L22.35 18.3Q22.475 18.675 22.488 19.138Q22.5 19.6 22.35 19.975L23.225 20.675Q23.35 20.75 23.35 20.9Q23.35 21.05 23.275 21.2L23.025 21.65Q22.95 21.775 22.825 21.837Q22.7 21.9 22.55 21.85L21.5 21.475Q21.225 21.8 20.8 22.013Q20.375 22.225 19.95 22.35L19.8 23.325Q19.775 23.475 19.638 23.575Q19.5 23.675 19.375 23.675H18.875Q18.75 23.675 18.6 23.587Q18.45 23.5 18.425 23.35ZM19.1 21.475Q20.075 21.475 20.763 20.788Q21.45 20.1 21.45 19.15Q21.45 18.2 20.763 17.487Q20.075 16.775 19.1 16.775Q18.125 16.775 17.438 17.487Q16.75 18.2 16.75 19.15Q16.75 20.1 17.438 20.788Q18.125 21.475 19.1 21.475Z"/></svg>