<svg xmlns="http://www.w3.org/2000/svg" height="40" viewBox="0 -960 960 960" width="40"><path d="M307.333-353h345.334v-25.144q0-44.604-48.581-71.897-48.58-27.292-124.166-27.292-75.587 0-124.087 27.292-48.5 27.293-48.5 71.897V-353Zm172.643-181.334q35.166 0 58.595-24.073Q562-582.481 562-617.478t-23.43-58.259Q515.14-699 479.941-699t-58.57 23.322Q398-652.357 398-617.443q0 34.915 23.406 59.012 23.405 24.097 58.57 24.097ZM310.334-90.667V-171H50.667v-699H910v699H650.333v80.333H310.334ZM156.666-277h646.668v-486.334H156.666V-277Zm0 0v-486.334V-277Z"/></svg>