<svg xmlns="http://www.w3.org/2000/svg" height="40" viewBox="0 -960 960 960" width="40"><path d="M388.72-146.26h182.72v-50.71l41.38-16.62q73.64-27.15 121.59-76.41t67.95-108.67H160.31q20 59.41 67.16 108.88 47.17 49.46 119.86 76.2l41.39 16.62v50.71Zm-67.59 67.59v-74.31Q217.82-189.41 152.7-268.89q-65.11-79.47-74.03-181.03v-16.33h80V-806l722.66-75.33v53.87l-457.07 47.57v83.15h457.07v53.48H424.26v177.01h457.07v14.66q-8.74 100.38-74.32 181.41t-167.99 117.2v74.31H321.13Zm-2.92-618.07h52.56v-77.98l-52.56 5.46v72.52Zm-106.06 0h52.57v-67.8l-52.57 6.23v61.57Zm106.06 230.49h52.56v-177.01h-52.56v177.01Zm-106.06 0h52.57v-177.01h-52.57v177.01Zm269.18 67.58Z"/></svg>