<svg xmlns="http://www.w3.org/2000/svg" height="40" width="40"><path d="M11.667 33.333H6.125Q5 33.333 4.167 32.5Q3.333 31.667 3.333 30.542V9.458Q3.333 8.333 4.167 7.5Q5 6.667 6.125 6.667H33.333V9.458H6.125Q6.125 9.458 6.125 9.458Q6.125 9.458 6.125 9.458V30.542Q6.125 30.542 6.125 30.542Q6.125 30.542 6.125 30.542H11.667ZM15.542 33.333V30.5Q14.792 29.792 14.333 28.917Q13.875 28.042 13.875 26.958Q13.875 25.875 14.333 24.979Q14.792 24.083 15.542 23.375V20.542H21.667V23.375Q22.417 24.083 22.875 24.979Q23.333 25.875 23.333 26.958Q23.333 28.042 22.875 28.917Q22.417 29.792 21.667 30.5V33.333ZM18.625 29.708Q19.792 29.708 20.583 28.938Q21.375 28.167 21.375 26.958Q21.375 25.75 20.604 24.958Q19.833 24.167 18.625 24.167Q17.417 24.167 16.625 24.958Q15.833 25.75 15.833 26.958Q15.833 28.125 16.625 28.917Q17.417 29.708 18.625 29.708ZM35.292 33.333H26.958Q26.375 33.333 25.958 32.917Q25.542 32.5 25.542 31.958V16.958Q25.542 16.375 25.958 15.958Q26.375 15.542 26.958 15.542H35.292Q35.875 15.542 36.271 15.958Q36.667 16.375 36.667 16.958V31.958Q36.667 32.5 36.271 32.917Q35.875 33.333 35.292 33.333ZM28.333 30.542H33.875V18.333H28.333Z"/></svg>