<svg xmlns="http://www.w3.org/2000/svg" height="24" viewBox="0 -960 960 960" width="24"><path d="m536-472 94.97 93.93Q633-376 641.95-374q10.81 0 14.43-9.31Q660-392.62 653-400l-87-82 87-80.27q7-6.23 3-14.98T642.65-586q-2.14 0-4.75 1.07-2.61 1.06-4.68 3.17L536-490v-82q0-6-4-10t-10-4q-6 0-10 4t-4 10v184q0 6 4 10t10 4q6 0 10-4t4-10v-84Zm-182-86v169.68q0 6.32 4 10.32t10 4q6 0 10-4.14t4-10.36v-183q0-6.22-4-10.36T367.64-586H306q-6 0-10 4t-4 10q0 6 4 10t10 4h48ZM232-146q-36.73 0-61.36-24.64Q146-195.27 146-232v-496q0-36.72 24.64-61.36Q195.27-814 232-814h496q36.72 0 61.36 24.64T814-728v496q0 36.73-24.64 61.36Q764.72-146 728-146H232Z"/></svg>