<svg xmlns="http://www.w3.org/2000/svg" height="24" width="24"><path d="M13.05 14.65Q13.2 14.65 13.3 14.55Q13.4 14.45 13.4 14.3V12.2L15.825 14.6Q15.875 14.65 15.938 14.65Q16 14.65 16.05 14.65Q16.325 14.65 16.413 14.425Q16.5 14.2 16.3 14.05L14.15 11.95L16.375 9.95Q16.575 9.8 16.488 9.575Q16.4 9.35 16.1 9.35Q16.025 9.35 15.963 9.375Q15.9 9.4 15.875 9.425L13.4 11.75V9.675Q13.4 9.55 13.3 9.45Q13.2 9.35 13.05 9.35Q12.9 9.35 12.8 9.45Q12.7 9.55 12.7 9.7V14.325Q12.7 14.45 12.8 14.55Q12.9 14.65 13.05 14.65ZM9.2 14.65Q9.35 14.65 9.45 14.55Q9.55 14.45 9.55 14.3V9.7Q9.55 9.55 9.45 9.45Q9.35 9.35 9.2 9.35H7.625Q7.5 9.35 7.4 9.45Q7.3 9.55 7.3 9.7Q7.3 9.85 7.4 9.95Q7.5 10.05 7.65 10.05H8.85V14.325Q8.85 14.45 8.95 14.55Q9.05 14.65 9.2 14.65ZM5.8 20.35Q4.875 20.35 4.263 19.738Q3.65 19.125 3.65 18.2V5.8Q3.65 4.875 4.263 4.262Q4.875 3.65 5.8 3.65H18.2Q19.125 3.65 19.738 4.262Q20.35 4.875 20.35 5.8V18.2Q20.35 19.125 19.738 19.738Q19.125 20.35 18.2 20.35ZM5.8 19H18.2Q18.55 19 18.775 18.775Q19 18.55 19 18.2V5.8Q19 5.45 18.775 5.225Q18.55 5 18.2 5H5.8Q5.45 5 5.225 5.225Q5 5.45 5 5.8V18.2Q5 18.55 5.225 18.775Q5.45 19 5.8 19ZM5 5Q5 5 5 5.225Q5 5.45 5 5.8V18.2Q5 18.55 5 18.775Q5 19 5 19Q5 19 5 18.775Q5 18.55 5 18.2V5.8Q5 5.45 5 5.225Q5 5 5 5Z"/></svg>