<svg xmlns="http://www.w3.org/2000/svg" height="40" viewBox="0 -960 960 960" width="40"><path d="M525.62-260.92q22.48 0 39.87-14.04 17.38-14.03 17.38-35.55v-93.5q0-21.14-17.49-35.17-17.49-14.02-39.76-14.02h-96.83v-73.78h123.62q12.55 0 21.51-8.75 8.95-8.76 8.95-21.84 0-13.07-8.72-21.7-8.72-8.63-21.74-8.63H418.22q-16.48 0-28.08 11.65-11.6 11.65-11.6 27.97v116.38q0 16.06 11.65 27.84 11.65 11.78 27.96 11.78h107.47v70.43H409q-13.02 0-21.74 8.76-8.72 8.76-8.72 21.84 0 13.07 8.72 21.7 8.72 8.63 21.74 8.63h116.62Zm-131.8-596.16q-14.35 0-24.24-10.05-9.89-10.04-9.89-23.99 0-13.96 9.89-23.75 9.89-9.8 24.24-9.8h173.03q13.7 0 23.58 9.93 9.88 9.92 9.88 23.88 0 13.95-9.88 23.86-9.88 9.92-23.58 9.92H393.82Zm86.18 790q-74.19 0-139.05-28.21Q276.09-123.5 227.46-172q-48.63-48.5-76.71-113.49-28.08-64.99-28.08-138.92 0-74.19 28.08-139.05 28.08-64.86 76.71-113.49 48.63-48.63 113.49-76.71 64.86-28.08 139.05-28.08 63.64 0 120.87 20.66 57.23 20.67 103.77 59.49l31.18-30.92q10.23-10.23 23.87-10.42 13.64-.2 24.26 10.42 10.61 10.61 10.61 24.06t-10.61 24.07l-31.18 31.18q39.51 45.89 62.04 102.55 22.52 56.65 22.52 126.24 0 73.93-28.08 138.92Q781.17-220.5 732.54-172q-48.63 48.5-113.49 76.71Q554.19-67.08 480-67.08Z"/></svg>