<svg xmlns="http://www.w3.org/2000/svg" height="20" width="20"><path d="M7.792 9.354Q7.938 9.354 8.052 9.24Q8.167 9.125 8.167 8.958V5.542Q8.167 5.292 7.969 5.083Q7.771 4.875 7.5 4.875H6.5Q6.333 4.875 6.229 4.979Q6.125 5.083 6.125 5.25Q6.125 5.417 6.24 5.531Q6.354 5.646 6.521 5.646H7.396V8.979Q7.396 9.146 7.5 9.25Q7.604 9.354 7.792 9.354ZM10.479 9.354H12.75Q13.021 9.354 13.219 9.167Q13.417 8.979 13.417 8.708V5.542Q13.417 5.271 13.229 5.073Q13.042 4.875 12.75 4.875H10.458Q10.312 4.875 10.208 4.979Q10.104 5.083 10.104 5.25Q10.104 5.417 10.208 5.531Q10.312 5.646 10.479 5.646H12.667V6.812H11.083Q10.938 6.812 10.854 6.896Q10.771 6.979 10.771 7.104Q10.771 7.229 10.865 7.323Q10.958 7.417 11.083 7.417H12.667V8.583H10.458Q10.312 8.583 10.208 8.688Q10.104 8.792 10.104 8.958Q10.104 9.125 10.208 9.24Q10.312 9.354 10.479 9.354ZM4.771 16.667Q4.146 16.667 3.74 16.26Q3.333 15.854 3.333 15.229V4.771Q3.333 4.146 3.74 3.74Q4.146 3.333 4.771 3.333H15.229Q15.854 3.333 16.26 3.74Q16.667 4.146 16.667 4.771V15.229Q16.667 15.854 16.26 16.26Q15.854 16.667 15.229 16.667ZM5.688 15.104Q5.833 15.104 5.948 14.99Q6.062 14.875 6.062 14.708V11.396H7.354V13.5Q7.354 13.667 7.458 13.771Q7.562 13.875 7.75 13.875Q7.896 13.875 8.01 13.76Q8.125 13.646 8.125 13.479V11.396H9.417V14.729Q9.417 14.896 9.521 15Q9.625 15.104 9.812 15.104Q9.958 15.104 10.073 14.99Q10.188 14.875 10.188 14.708V11.229Q10.188 10.979 10.021 10.802Q9.854 10.625 9.583 10.625H5.896Q5.646 10.625 5.469 10.792Q5.292 10.958 5.292 11.229V14.729Q5.292 14.896 5.396 15Q5.5 15.104 5.688 15.104ZM11.812 15.104Q11.958 15.104 12.073 14.99Q12.188 14.875 12.188 14.708V13.875H14.104Q14.375 13.875 14.542 13.719Q14.708 13.562 14.708 13.292V11.229Q14.708 10.979 14.542 10.802Q14.375 10.625 14.104 10.625H12.021Q11.771 10.625 11.594 10.802Q11.417 10.979 11.417 11.229V14.729Q11.417 14.896 11.521 15Q11.625 15.104 11.812 15.104ZM12.188 11.396H13.938V13.104H12.188Z"/></svg>