<svg xmlns="http://www.w3.org/2000/svg" height="40" viewBox="0 -960 960 960" width="40"><path d="M314.03-104.17q-87.89 0-148.88-60.98-60.98-60.99-60.98-148.88v-332.32q0-87.69 60.98-148.77 60.99-61.08 148.88-61.08h332.32q87.69 0 148.77 61.08 61.08 61.08 61.08 148.77v332.32q0 87.89-61.08 148.88-61.08 60.98-148.77 60.98H314.03Zm.19-88.15h331.56q51.48 0 86.69-35.18 35.21-35.17 35.21-86.72v-331.56q0-51.48-35.21-86.69t-86.69-35.21H314.22q-51.55 0-86.72 35.21-35.18 35.21-35.18 86.69v331.56q0 51.55 35.18 86.72 35.17 35.18 86.72 35.18Zm165.53-87.25q-83.63 0-141.91-58.41-58.27-58.41-58.27-142.21 0-84.17 58.41-142.21 58.41-58.03 142.21-58.03 84.17 0 142.21 58.04 58.03 58.04 58.03 142.64 0 83.63-58.04 141.91-58.04 58.27-142.64 58.27Zm.25-88.52q47.53 0 79.91-32.14 32.38-32.14 32.38-79.77 0-47.53-32.38-79.91-32.38-32.38-80.19-32.38-47.43 0-79.53 32.38t-32.1 80.19q0 47.43 32.14 79.53t79.77 32.1Z"/></svg>