<svg xmlns="http://www.w3.org/2000/svg" height="20" width="20"><path d="M5.771 16.792 5.625 15.479 7.875 9.229Q8.125 9.417 8.417 9.573Q8.708 9.729 8.979 9.792L6.771 15.896ZM14.229 16.792 13.208 15.896 11 9.792Q11.271 9.729 11.562 9.573Q11.854 9.417 12.104 9.229L14.375 15.479ZM10 8.625Q9.062 8.625 8.396 7.958Q7.729 7.292 7.729 6.354Q7.729 5.5 8.208 4.927Q8.688 4.354 9.375 4.167V2.125H10.583V4.167Q11.271 4.354 11.771 4.927Q12.271 5.5 12.271 6.354Q12.271 7.292 11.604 7.958Q10.938 8.625 10 8.625ZM10 7.417Q10.438 7.417 10.75 7.104Q11.062 6.792 11.062 6.354Q11.062 5.917 10.75 5.604Q10.438 5.292 10 5.292Q9.562 5.292 9.25 5.604Q8.938 5.917 8.938 6.354Q8.938 6.792 9.25 7.104Q9.562 7.417 10 7.417Z"/></svg>