<svg xmlns="http://www.w3.org/2000/svg" height="40" width="40"><path d="m11.667 33.917-.292-2.167 4.708-13.042q.417.334.855.563.437.229.937.396L13.25 32.375Zm16.708 0-1.583-1.542-4.667-12.708q.5-.125.937-.355.438-.229.855-.604l4.75 13.042ZM20 17.875q-1.875 0-3.188-1.313Q15.5 15.25 15.5 13.375q0-1.667 1.021-2.875T19 9V5.083h2V9q1.5.292 2.521 1.5t1.021 2.875q0 1.875-1.334 3.187-1.333 1.313-3.208 1.313Zm.042-2q1.041 0 1.77-.729.73-.729.73-1.771 0-1.042-.73-1.771-.729-.729-1.812-.729-1.042 0-1.771.729-.729.729-.729 1.771 0 1.042.729 1.771.729.729 1.813.729Z"/></svg>