<svg xmlns="http://www.w3.org/2000/svg" height="20" viewBox="0 -960 960 960" width="20"><path d="M480-188q61 0 104.5-43.5T628-336q0-61-43.5-104.5T480-484q-61 0-104.5 43.5T332-336q0 61 43.5 104.5T480-188ZM378-571q13-5 25.5-9t28.5-7l-83-185h-61l90 201Zm204 0 89-201h-61l-71 157 15.36 33.81Q562-579 568.5-576q6.5 3 13.5 5ZM243-238q-8.64-22.89-13.82-47.26-5.18-24.37-5.18-50.55 0-26.19 5.18-50.7T243-434q-36 5-60.5 33.69Q158-371.61 158-336t24.5 64.31Q207-243 243-238Zm474 0q36-5 60.5-33.69Q802-300.39 802-336t-24.5-64.31Q753-429 717-434q8.64 22.89 13.82 47.26 5.18 24.37 5.18 50.55 0 26.19-5.18 50.7T717-238ZM480.16-80Q434-80 393.5-94.5T320-137q-16 4-31.11 6.5-15.1 2.5-31.89 2.5-86.01 0-146.51-60.49Q50-248.99 50-335q0-86 62-147.5T261-542h11L118-880h300l62 138 62-138h300L688-544h10q88-2 150 59.5t62 148.02q0 87.18-60.85 147.83Q788.29-128 702-128q-15.5 0-30.25-3T641-137q-33 28-74.09 42.5T480.16-80ZM480-336ZM378-571l-90-201 90 201Zm204 0 89-201-89 201ZM411-236l26-85-69-49h84.93L480-460l27.07 90H592l-69 49 26 85-69-53-69 53Z"/></svg>