<svg xmlns="http://www.w3.org/2000/svg" height="40" width="40"><path d="m20 27.917 2.167-2.209h3.666V22l2.042-2.083-2.042-2.042v-3.708h-3.625L20.042 12l-2.167 2.208h-3.667v3.667l-2.041 2.083L14.208 22v3.708h3.667Zm0-3.334v-9.25q1.917 0 3.25 1.355 1.333 1.354 1.333 3.27 0 1.917-1.333 3.271-1.333 1.354-3.25 1.354ZM6.792 33.167q-1.375 0-2.354-.979-.98-.98-.98-2.355V10.167q0-1.375.98-2.354.979-.98 2.354-.98h26.416q1.375 0 2.354.98.98.979.98 2.354v19.666q0 1.375-.98 2.355-.979.979-2.354.979Zm0-2.834h26.416q.209 0 .375-.145.167-.146.167-.355V10.167q0-.209-.167-.354-.166-.146-.375-.146H6.792q-.209 0-.375.146-.167.145-.167.354v19.666q0 .209.167.355.166.145.375.145Zm-.542 0V9.667v20.666Z"/></svg>