<svg xmlns="http://www.w3.org/2000/svg" height="40" viewBox="0 -960 960 960" width="40"><path d="M149.26-66.06v-88.14h76.8v-98.41H200q-39.1 0-66.52-27.53-27.42-27.53-27.42-66.79v-80q0-38.84 27.42-66.39 27.42-27.55 66.52-27.55h26.06v-98.4h-76.8v-88.53h86.07q22.39-80.98 89.28-133.75 66.88-52.77 155.39-52.77 88.51 0 155.39 52.77 66.89 52.77 89.28 133.75h86.07v88.53h-76.42v98.4H760q39.26 0 66.79 27.55 27.53 27.55 27.53 66.39v80q0 39.26-27.53 66.79-27.53 27.53-66.79 27.53h-25.68v98.41h76.42v88.14H149.26ZM480.1-256.35q54.13 0 92.31-38.27 38.17-38.28 38.17-92.42 0-53.74-38.27-92.1-38.27-38.37-92.41-38.37-54.13 0-92.31 38.48-38.17 38.48-38.17 92.41 0 53.92 38.27 92.1 38.27 38.17 92.41 38.17Zm.19-76.08q-22.9 0-38.84-15.66-15.94-15.65-15.94-38.36t15.65-38.84q15.65-16.13 38.55-16.13t38.84 15.81q15.94 15.81 15.94 38.39 0 22.9-15.65 38.84-15.65 15.95-38.55 15.95Z"/></svg>