<svg xmlns="http://www.w3.org/2000/svg" height="48" viewBox="0 -960 960 960" width="48"><path d="M180.11-142.8q-30.75 0-54.03-23.28t-23.28-54.03v-599.78q0-30.85 23.28-54.2 23.28-23.34 54.03-23.34h599.78q30.85 0 54.2 23.34 23.34 23.35 23.34 54.2v187.69q0 16.49-11.29 27.32-11.29 10.84-27.17 10.84-16.88 0-27.98-11.27-11.1-11.27-11.1-27.89v-186.69H180.11v397.85h136q17.51 0 29.64 4.24 12.12 4.23 20.51 16.31 12.89 19.92 31.29 34.92 18.41 15 39.22 21.86 9.23 3.43 14.51 11.85 5.29 8.43 5.29 16.52 0 19.67-15.29 29.69-15.28 10.02-32.52 3.54-26.57-9.33-49.54-26.79-22.96-17.46-39.85-42.97H180.11v132.76h237.54q15.58 0 27.37 11.32 11.78 11.32 11.78 27.01 0 17.02-11.78 28-11.79 10.98-27.37 10.98H180.11Zm0-77.31h275.02-275.02Zm513.35 75.76q-22.24-6-39.62-16.5t-29.38-22.5l-32.89 14.12q-6.85 2.64-13.88.9-7.04-1.74-11.03-8.37l-22.54-38.02q-4.99-5.39-3.75-12.37 1.24-6.98 7.24-12.45l30.09-23.09q-5.48-16.83-5.48-37.28 0-20.44 5.48-37.44l-30.09-24.32q-6.24-4.24-7.36-11.34t3.87-13.37l22.54-39.02q3.99-5.51 10.92-7.37 6.93-1.86 14.17.51l32.71 14.39q12-11 29.38-21.38 17.38-10.38 39.62-16.38l5.46-40.66q1.06-7.43 6.18-11.55 5.12-4.12 12.38-4.12h39.71q7.27 0 12.39 4.12 5.12 4.12 6.98 11.58l4.9 40.63q22 6 39.38 16.38 17.38 10.38 29.38 21.38l33.68-14.15q6.05-2.61 12.97-.75 6.91 1.86 11.14 7.37l23.31 39.02q4.22 6.27 3.1 13.37-1.12 7.1-7.35 11.34l-30.09 24.43q5.24 16.83 5.24 37.27 0 20.44-5.24 37.34l30.09 23.09q6.23 5.47 7.35 12.7 1.12 7.23-2.49 12.28l-23.87 37.88q-4.28 6.61-11.09 8.35-6.81 1.74-13.28-.63l-33.47-14.39q-12 12-29.38 22.5t-39.38 16.5l-4.9 38.77q-1.86 8.32-6.98 12.44-5.12 4.12-12.39 4.12h-39.71q-7.26 0-12.38-4.12-5.12-4.12-6.18-12.41l-5.46-38.8Zm44.1-56.72q42.18 0 70.94-28.36 28.76-28.36 28.76-71.71 0-42.35-28.76-71.06t-71.04-28.71q-43.29 0-71.67 28.74-28.38 28.74-28.38 71.09 0 43.35 28.38 71.68 28.39 28.33 71.77 28.33Z"/></svg>