<svg xmlns="http://www.w3.org/2000/svg" height="20" viewBox="0 -960 960 960" width="20"><path d="M190.09-408v-138.85q0-12.76 9.15-21.91t21.91-9.15H288q20.16 0 35.03 14.81 14.88 14.82 14.88 34.9v31.86q0 14.82-8.5 26.2-8.5 11.38-20.26 19.86l15.68 35.36q5.32 11.92-2.22 22.38-7.53 10.45-20.61 10.45-7.72 0-12.96-3.86-5.24-3.85-8.71-10.33l-22.53-49.81h-15.89v37.77q0 11.15-7.34 18.69-7.34 7.54-18.57 7.54t-18.57-7.34q-7.34-7.34-7.34-18.57Zm191.04-5.69 34.26-137.27q3.15-12.18 12.89-19.57 9.75-7.38 22.49-7.38h18.29q12.96 0 22.73 7.38 9.78 7.39 12.95 19.57L539-414.4q3.46 12.4-4.51 22.36-7.96 9.95-20.35 9.95-9.25 0-15.76-5.47t-8.52-14.29l-6.99-24.65h-47.28l-6.9 25.3q-1.91 8.4-8.31 13.75-6.4 5.36-15.21 5.36-11.42 0-19.46-9.71-8.04-9.72-4.58-21.89Zm223.11 12.21-37.05-145.14q-3.54-11.86 4.36-21.58 7.9-9.71 20.19-9.71 8.78 0 15.02 5.48 6.24 5.47 8.17 13.91l19.59 74.93 19.42-76.12q1.63-8.2 7.93-13.2 6.31-5 14.19-5H688q8.52 0 14.52 5.13t7.69 13.31l19.59 75.88 19.66-74.93q1.87-8.44 8.59-13.91 6.73-5.48 15.14-5.48 11.77 0 19.86 9.71 8.1 9.72 4.63 21.82l-37.15 145.14q-1.86 8.44-8.37 13.79-6.51 5.36-14.87 5.36h-12.61q-9 0-15.76-5.38-6.76-5.39-8.55-14.05l-18.09-70.83-18.45 71.01q-1.87 8.3-8.39 13.77-6.51 5.48-14.9 5.48h-12.66q-9.03 0-15.39-5.48-6.36-5.47-8.25-13.91ZM447.59-474.5h23.76l-11.2-45.02h-1.37l-11.19 45.02Zm-205.68-19.59h44.18v-32h-44.18v32Z"/></svg>