<svg xmlns="http://www.w3.org/2000/svg" height="48" viewBox="0 -960 960 960" width="48"><path d="M235.46-144q-11.68 0-20.18-8.76-8.51-8.76-8.51-20.81 0-12.05 8.51-20.43 8.5-8.39 20.18-8.39h490.08q11.68 0 20.18 8.58 8.51 8.57 8.51 20.62t-8.51 20.62q-8.5 8.57-20.18 8.57H235.46Zm29.85-143.54q-25.92 0-45.85-17.07-19.93-17.08-23.84-42.85l-48.7-278.92q-2.23 1.61-5.08 1.92-2.85.31-6.22.31-22.03 0-36.82-15.09Q84-654.33 84-675.95q0-21.54 15.14-37.18t36.68-15.64q21.53 0 37.16 15.56 15.64 15.55 15.64 37.44 0 7.58-2.33 14.91-2.34 7.33-5.98 11.94l131.54 56.53q3.84 1.54 7.69.39 3.85-1.15 6.54-4.62l131.3-181.53q-13.15-4.88-21.27-17.42-8.11-12.54-8.11-27.84 0-21.56 14.87-37.08Q457.73-876 479.71-876q21.98 0 37.64 15.49Q533-845.02 533-823.49q0 15.57-8.89 27.9-8.9 12.32-21.11 18.44l131.92 180.53q2.69 3.47 6.54 4.62t7.69-.39l131.54-56.53q-3.18-4.48-5.74-11.93-2.57-7.46-2.57-14.92 0-21.89 14.66-37.44 14.66-15.56 36.98-15.56 21.13 0 36.56 15.52Q876-697.73 876-675.89q0 21.85-15.29 36.79-15.28 14.95-36.79 14.95-1.99 0-4.99-.81-3.01-.81-4.99-2.04l-48.17 280.54q-4.99 25.53-24.71 42.23-19.73 16.69-44.98 16.69H265.31Z"/></svg>