<svg xmlns="http://www.w3.org/2000/svg" height="24" width="24"><path d="M12.025 5.175q.325 0 .537-.212.213-.213.213-.538 0-.325-.213-.538-.212-.212-.537-.212-.325 0-.537.212-.213.213-.213.538 0 .325.213.538.212.212.537.212Zm-6.35 15.35q-.925 0-1.537-.612-.613-.613-.613-1.538V5.725q0-.925.613-1.538.612-.612 1.537-.612h4.475q.275-.575.75-.913.475-.337 1.125-.337.6 0 1.1.337.5.338.775.913h4.475q.925 0 1.538.612.612.613.612 1.538v12.65q0 .925-.612 1.538-.613.612-1.538.612Zm0-1.35h12.7q.3 0 .55-.25.25-.25.25-.55V5.725q0-.3-.25-.55-.25-.25-.55-.25h-2.5v.85q0 .925-.613 1.537-.612.613-1.537.613h-3.4q-.925 0-1.537-.613-.613-.612-.613-1.537v-.85h-2.5q-.3 0-.55.25-.25.25-.25.55v12.65q0 .3.25.55.25.25.55.25Z"/></svg>