<svg xmlns="http://www.w3.org/2000/svg" height="48" viewBox="0 -960 960 960" width="48"><path d="m480-363.5 98 75.5q13.5 10.5 27.75-.25T615.5-316l-41-121.5L672-507q13.5-9.5 8.75-25.75T659.5-549H540.29L501.5-675.5q-5.12-15.5-21.31-15.5-16.19 0-21.69 15.5L418.97-549H301q-18.25 0-22.87 16.25-4.63 16.25 9.37 25.75l97 69.5L345-315q-5 17 9.25 27.25T382-288l98-75.5Zm.5 303.5Q391-60 314.01-92.33q-76.98-32.34-133.16-88.52-56.18-56.18-88.52-133.16Q60-391 60-480.5q0-89 32.1-165.55 32.09-76.55 88.51-133.17 56.42-56.61 133.4-89.2Q391-901 480.5-901q89 0 165.61 32.45 76.6 32.46 133.26 89.06t89.14 133.12Q901-569.84 901-480q0 89-32.58 165.99-32.59 76.98-89.2 133.4-56.62 56.42-133.17 88.51Q569.5-60 480.5-60Zm-.5-420Zm-.18 328.5q140.18 0 234.43-93.58 94.25-93.57 94.25-234.75 0-141.17-94.07-234.92-94.06-93.75-234.25-93.75-140.18 0-234.43 93.58-94.25 93.57-94.25 234.75 0 141.17 94.07 234.92 94.06 93.75 234.25 93.75Z"/></svg>