<svg xmlns="http://www.w3.org/2000/svg" height="40" viewBox="0 96 960 960" width="40"><path d="M480 949.167q-94.167 0-153.667-25.655T266.833 858q0-17.667 16.25-35.083 16.25-17.417 45.343-30.75L334.833 814q-21 10.458-32.166 21.313-11.167 10.854-13.5 22.687 6.364 31.833 59.862 49.917Q402.527 926 480.014 926q76.486 0 130.472-18.083 53.986-18.084 61.181-49.917-2.167-11.167-13.834-21.854-11.666-10.688-32.666-22.146L633 792.167q28.333 13.333 44.667 30.75Q694 840.333 694 858q0 39.857-59.917 65.512Q574.167 949.167 480 949.167Zm.032-149.5q-8.138 0-15.585-6.084Q457 787.5 454.5 778.167q-27.749-61.45-60.198-103.049-32.449-41.599-60.471-79.405Q305 558.758 286.25 517.351q-18.75-41.408-18.75-101.954 0-89.49 61.333-151.36 61.334-61.87 151.167-61.87t151.583 61.87q61.75 61.87 61.75 151.233 0 60.458-19.083 102.094-19.083 41.636-47.332 78.469-28.585 37.5-60.649 79.229-32.065 41.73-59.936 103.105-3.268 9.333-10.715 15.416-7.447 6.084-15.586 6.084Zm.1-336.5q19.701 0 34.035-13.716 14.333-13.715 14.333-34.083 0-19.701-14.222-33.701t-34.167-14q-19.944 0-33.528 13.889Q433 395.445 433 415.389q0 20.611 13.715 34.194 13.716 13.584 33.417 13.584Z"/></svg>