<svg xmlns="http://www.w3.org/2000/svg" height="40" viewBox="0 -960 960 960" width="40"><path d="M98.67-525.82v-51.97q93.07-24.88 189.09-35.39 96.01-10.51 192.24-10.51 96.29 0 192.28 10.34 95.98 10.35 189.05 35.56v50.97q-20-5-40-9.36-20-4.35-40-8.13v115.41h-50.18v-123.84q-63.06-10.17-125.3-15.47-62.23-5.3-125.85-5.3t-125.74 5.22q-62.13 5.21-124.75 14.55v124.84h-50.84v-116.07q-20 5-40 9.57-20 4.58-40 9.58Zm173.66 387.15 51.59-330.82q17.13-1.33 24.84-1.88 7.7-.55 25.5-2.55l-50.9 335.25h-51.03Zm105.72-682.66h50.18l-14.64 93.43q-18.34.84-25.73 2.19-7.4 1.35-24.78 2.68l14.97-98.3Zm77.03 682.66h50.84v-117.95h-50.84v117.95Zm0-236.82h50.84v-97.25h-50.84v97.25Zm76.69-445.84h51.18l14.97 98.3q-17.79-1.33-25.65-2.6-7.87-1.27-25.76-2.27l-14.74-93.43Zm105.72 682.66-51.9-335.25q17.89 2.16 26.13 2.34 8.23.18 26.13 1.99l50.82 330.92h-51.18Z"/></svg>