<svg xmlns="http://www.w3.org/2000/svg" version="1.1" width="3300" height="2000"><g id="Notes"><style>
    text {
      font-family: monospace;
      text-anchor: middle;
    }
    text.emphasis {
      font-weight:bold;
    }
    text.lanchor {
      text-anchor: start;
    }
  </style><rect height="2200" id="artboard" fill="white" width="3300" x="0" y="0"/><line id="" style="fill:none;stroke:black;stroke-width:0.5;" x1="263" x2="3036" y1="292" y2="292"/><text class="lanchor emphasis" transform="matrix(1 0 0 1 263 322)">Weight/Scale Variations</text><text transform="matrix(1 0 0 1 559.711 322)">Ultralight</text><text transform="matrix(1 0 0 1 856.422 322)">Thin</text><text transform="matrix(1 0 0 1 1153.13 322)">Light</text><text transform="matrix(1 0 0 1 1449.84 322)">Regular</text><text transform="matrix(1 0 0 1 1746.56 322)">Medium</text><text transform="matrix(1 0 0 1 2043.27 322)">Semibold</text><text transform="matrix(1 0 0 1 2339.98 322)">Bold</text><text transform="matrix(1 0 0 1 2636.69 322)">Heavy</text><text transform="matrix(1 0 0 1 2933.4 322)">Black</text><text id="template-version" style="text-anchor: end;" transform="matrix(1 0 0 1 3036 1933)">Template v.1.0</text><text class="lanchor" transform="matrix(1 0 0 1 263 726)">Small</text><text class="lanchor" transform="matrix(1 0 0 1 263 1156)">Medium</text><text class="lanchor" transform="matrix(1 0 0 1 263 1586)">Large</text></g><g id="Guides"><g id="H-reference" style="fill:#27AAE1;stroke:none;" transform="matrix(1 0 0 1 339 696)"><path d="M 54.9316 0 L 57.666 0 L 30.5664 -70.459 L 28.0762 -70.459 L 0.976562 0 L 3.66211 0 L 12.9395 -24.4629 L 45.7031 -24.4629 Z M 29.1992 -67.0898 L 29.4434 -67.0898 L 44.8242 -26.709 L 13.8184 -26.709 Z"/></g><line id="Baseline-S" style="fill:none;stroke:#27AAE1;opacity:1;stroke-width:0.577;" x1="263" x2="3036" y1="696" y2="696"/><line id="Capline-S" style="fill:none;stroke:#27AAE1;opacity:1;stroke-width:0.577;" x1="263" x2="3036" y1="625.541" y2="625.541"/><g id="H-reference" style="fill:#27AAE1;stroke:none;" transform="matrix(1 0 0 1 339 1126)"><path d="M 54.9316 0 L 57.666 0 L 30.5664 -70.459 L 28.0762 -70.459 L 0.976562 0 L 3.66211 0 L 12.9395 -24.4629 L 45.7031 -24.4629 Z M 29.1992 -67.0898 L 29.4434 -67.0898 L 44.8242 -26.709 L 13.8184 -26.709 Z"/></g><line id="Baseline-M" style="fill:none;stroke:#27AAE1;opacity:1;stroke-width:0.577;" x1="263" x2="3036" y1="1126" y2="1126"/><line id="Capline-M" style="fill:none;stroke:#27AAE1;opacity:1;stroke-width:0.577;" x1="263" x2="3036" y1="1055.54" y2="1055.54"/><g id="H-reference" style="fill:#27AAE1;stroke:none;" transform="matrix(1 0 0 1 339 1556)"><path d="M 54.9316 0 L 57.666 0 L 30.5664 -70.459 L 28.0762 -70.459 L 0.976562 0 L 3.66211 0 L 12.9395 -24.4629 L 45.7031 -24.4629 Z M 29.1992 -67.0898 L 29.4434 -67.0898 L 44.8242 -26.709 L 13.8184 -26.709 Z"/></g><line id="Baseline-L" style="fill:none;stroke:#27AAE1;opacity:1;stroke-width:0.577;" x1="263" x2="3036" y1="1556" y2="1556"/><line id="Capline-L" style="fill:none;stroke:#27AAE1;opacity:1;stroke-width:0.577;" x1="263" x2="3036" y1="1485.54" y2="1485.54"/><rect height="119.336" id="left-margin" style="fill:darkred;stroke:none;opacity:0.4;" width="12.4512" x="1394.06" y="1030.79"/><rect height="119.336" id="right-margin" style="fill:darkgreen;stroke:none;opacity:0.4;" width="12.4512" x="1502.5112" y="1030.79"/><rect x="1406.5112" y="1045" width="96" height="96" fill="none" stroke="blue" stroke-dasharray="5"/><rect x="1394.06" y="1030.79" width="120.9024" height="119.336" fill="none" stroke="blue"/></g><g id="Symbols"><g id="Bold-L" transform="matrix(1 0 0 1 2266 1556)"><path d="M77.561 24.594 Q51.922 24.594 34.749 7.501 Q17.576 -9.591 17.576 -35.23 Q17.576 -55.064 27.735 -70.141 Q37.894 -85.217 57.889 -91.99 Q62.565 -93.441 65.871 -93.119 Q69.176 -92.796 71.273 -91.022 Q73.369 -89.249 74.094 -86.346 Q74.82 -83.444 74.014 -79.09 Q74.175 -75.865 73.933 -73.204 Q73.691 -70.544 73.691 -68.125 Q73.691 -52.806 84.495 -42.002 Q95.299 -31.199 110.779 -31.199 Q113.359 -31.199 116.019 -31.118 Q118.68 -31.037 121.583 -31.037 Q126.097 -31.682 129.081 -30.957 Q132.064 -30.231 133.676 -28.135 Q135.127 -26.039 135.289 -22.814 Q135.45 -19.589 133.999 -14.912 Q127.226 2.664 112.714 13.629 Q98.201 24.594 77.561 24.594 Z"/></g><g id="Semibold-L" transform="matrix(1 0 0 1 1970.27 1556)"><path d="M77.492 23.823 Q52.484 23.823 35.415 6.8 Q18.347 -10.222 18.347 -35.23 Q18.347 -55.905 29.664 -71.016 Q40.978 -86.129 61.323 -91.85 Q65.369 -93.02 68.218 -92.558 Q71.069 -92.095 72.814 -90.321 Q74.56 -88.618 74.936 -85.925 Q75.31 -83.234 74.294 -79.371 Q73.754 -75.934 73.267 -72.748 Q72.78 -69.562 72.78 -66.443 Q72.78 -51.474 83.303 -40.951 Q93.827 -30.428 108.886 -30.428 Q112.096 -30.428 115.249 -30.697 Q118.399 -30.968 121.583 -31.528 Q125.677 -32.453 128.484 -31.973 Q131.293 -31.494 132.905 -29.747 Q134.426 -28.001 134.728 -25.128 Q135.029 -22.253 133.858 -18.137 Q128.137 0.28 113.344 12.052 Q98.551 23.823 77.492 23.823 Z"/></g><g id="Medium-L" transform="matrix(1 0 0 1 1674.31 1556)"><path d="M77.439 23.244 Q52.905 23.244 35.915 6.274 Q18.926 -10.696 18.926 -35.23 Q18.926 -56.536 31.108 -71.674 Q43.292 -86.812 63.9 -91.745 Q67.472 -92.704 69.981 -92.137 Q72.488 -91.569 73.972 -89.795 Q75.454 -88.144 75.567 -85.609 Q75.679 -83.076 74.504 -79.58 Q73.438 -75.988 72.767 -72.406 Q72.096 -68.826 72.096 -65.181 Q72.096 -50.475 82.41 -40.163 Q92.722 -29.849 107.467 -29.849 Q111.15 -29.849 114.67 -30.381 Q118.19 -30.915 121.583 -31.897 Q125.361 -33.032 128.037 -32.735 Q130.714 -32.44 132.327 -30.957 Q133.9 -29.473 134.307 -26.863 Q134.713 -24.25 133.754 -20.556 Q128.821 -1.508 113.818 10.868 Q98.814 23.244 77.439 23.244 Z"/></g><g id="Regular-L" transform="matrix(1 0 0 1 1378.56 1556)"><path d="M77.4 22.82 Q53.212 22.82 36.281 5.889 Q19.35 -11.042 19.35 -35.23 Q19.35 -56.999 32.169 -72.156 Q44.989 -87.314 65.79 -91.667 Q69.015 -92.474 71.273 -91.829 Q73.53 -91.184 74.82 -89.41 Q76.11 -87.797 76.029 -85.379 Q75.949 -82.96 74.659 -79.735 Q73.207 -76.026 72.401 -72.156 Q71.595 -68.286 71.595 -64.255 Q71.595 -49.742 81.754 -39.584 Q91.913 -29.425 106.425 -29.425 Q110.456 -29.425 114.246 -30.151 Q118.035 -30.876 121.583 -32.166 Q125.13 -33.456 127.71 -33.295 Q130.29 -33.134 131.903 -31.844 Q133.515 -30.554 133.999 -28.135 Q134.483 -25.716 133.676 -22.33 Q129.322 -2.819 114.165 10.001 Q99.008 22.82 77.4 22.82 Z"/></g><g id="Light-L" transform="matrix(1 0 0 1 1082.77 1556)"><path d="M77.585 19.595 Q54.764 19.595 38.763 3.594 Q22.762 -12.407 22.762 -35.23 Q22.762 -53.959 33.348 -67.938 Q43.934 -81.918 62.255 -87.388 Q65.169 -88.255 67.178 -87.828 Q69.188 -87.401 70.416 -85.937 Q71.582 -84.572 71.656 -82.494 Q71.73 -80.417 70.752 -77.689 Q69.673 -74.414 69.113 -71.071 Q68.555 -67.728 68.555 -64.255 Q68.555 -48.378 79.645 -37.289 Q90.734 -26.2 106.61 -26.2 Q110.642 -26.2 114.152 -26.863 Q117.663 -27.527 120.652 -28.196 Q123.579 -28.991 125.601 -28.706 Q127.623 -28.42 128.863 -27.316 Q130.042 -26.211 130.308 -24.228 Q130.575 -22.243 129.769 -19.477 Q124.795 -2.446 110.846 8.574 Q96.898 19.595 77.585 19.595 Z"/></g><g id="Thin-L" transform="matrix(1 0 0 1 787.282 1556)"><path d="M77.772 16.37 Q56.313 16.37 41.243 1.3 Q26.172 -13.771 26.172 -35.23 Q26.172 -50.921 34.527 -63.721 Q42.88 -76.523 58.719 -83.108 Q61.325 -84.039 63.086 -83.828 Q64.847 -83.618 66.013 -82.463 Q67.056 -81.347 67.285 -79.611 Q67.514 -77.874 66.845 -75.642 Q66.137 -72.801 65.827 -69.986 Q65.517 -67.17 65.517 -64.255 Q65.517 -47.014 77.537 -34.995 Q89.555 -22.975 106.797 -22.975 Q110.829 -22.975 114.06 -23.576 Q117.29 -24.178 119.722 -24.228 Q122.029 -24.526 123.493 -24.117 Q124.956 -23.707 125.825 -22.79 Q126.568 -21.87 126.618 -20.321 Q126.668 -18.77 125.862 -16.625 Q120.268 -2.074 107.53 7.148 Q94.791 16.37 77.772 16.37 Z"/></g><g id="Ultralight-L" transform="matrix(1 0 0 1 491.205 1556)"><path d="M77.884 14.435 Q57.244 14.435 42.731 -0.077 Q28.219 -14.59 28.219 -35.23 Q28.219 -49.097 35.233 -61.191 Q42.248 -73.285 56.599 -80.541 Q59.017 -81.509 60.63 -81.428 Q62.242 -81.347 63.371 -80.38 Q64.339 -79.412 64.661 -77.881 Q64.984 -76.349 64.5 -74.414 Q64.016 -71.834 63.855 -69.334 Q63.694 -66.835 63.694 -64.255 Q63.694 -46.195 76.271 -33.617 Q88.849 -21.04 106.909 -21.04 Q110.94 -21.04 114.004 -21.604 Q117.068 -22.169 119.164 -21.846 Q121.099 -21.846 122.228 -21.362 Q123.356 -20.879 124.001 -20.072 Q124.485 -19.266 124.404 -17.976 Q124.324 -16.686 123.517 -14.912 Q117.551 -1.851 105.538 6.292 Q93.525 14.435 77.884 14.435 Z"/></g><g id="Bold-M" transform="matrix(1 0 0 1 2281.8 1126)"><path d="M60.125 11.645 Q39.875 11.645 26.5 -1.667 Q13.125 -14.98 13.125 -35.23 Q13.125 -50.355 21.625 -63.042 Q30.125 -75.73 46.875 -80.23 Q49.75 -81.23 52.125 -80.917 Q54.5 -80.605 56.125 -79.355 Q57.875 -78.105 58.625 -76.105 Q59.375 -74.105 59.125 -71.605 Q58.625 -68.855 58.125 -66.48 Q57.625 -64.105 57.625 -61.73 Q57.625 -49.605 66.188 -41.105 Q74.75 -32.605 87 -32.605 Q89.5 -32.605 92.062 -32.917 Q94.625 -33.23 97 -33.73 Q99.375 -33.98 101.188 -33.292 Q103 -32.605 104.125 -31.23 Q105.25 -29.855 105.562 -27.667 Q105.875 -25.48 105 -22.605 Q101 -7.23 88.562 2.208 Q76.125 11.645 60.125 11.645 Z"/></g><g id="Semibold-M" transform="matrix(1 0 0 1 1985.97 1126)"><path d="M60.071 10.83 Q40.419 10.83 27.179 -2.374 Q13.94 -15.577 13.94 -35.23 Q13.94 -51.279 23.636 -63.966 Q33.331 -76.654 50.407 -80.121 Q52.739 -80.795 54.625 -80.32 Q56.511 -79.844 57.755 -78.649 Q59.07 -77.452 59.521 -75.67 Q59.972 -73.887 59.396 -71.876 Q58.19 -68.909 57.446 -65.991 Q56.701 -63.072 56.701 -59.991 Q56.701 -48.246 64.965 -40.017 Q73.229 -31.79 85.044 -31.79 Q88.141 -31.79 91.248 -32.455 Q94.354 -33.121 97 -34.274 Q98.94 -34.795 100.59 -34.38 Q102.239 -33.964 103.364 -32.915 Q104.544 -31.866 105.019 -30.086 Q105.495 -28.306 104.891 -25.92 Q101.87 -9.73 89.215 0.55 Q76.56 10.83 60.071 10.83 Z"/></g><g id="Medium-M" transform="matrix(1 0 0 1 1689.91 1126)"><path d="M60.03 10.219 Q40.826 10.219 27.689 -2.904 Q14.551 -16.026 14.551 -35.23 Q14.551 -51.971 25.144 -64.659 Q35.736 -77.346 53.057 -80.04 Q54.981 -80.469 56.5 -79.871 Q58.019 -79.274 58.979 -78.119 Q59.968 -76.964 60.194 -75.344 Q60.421 -73.725 59.6 -72.08 Q57.864 -68.95 56.936 -65.624 Q56.009 -62.297 56.009 -58.686 Q56.009 -47.227 64.047 -39.202 Q72.088 -31.179 83.576 -31.179 Q87.123 -31.179 90.636 -32.109 Q94.15 -33.04 97 -34.681 Q98.614 -35.406 100.141 -35.195 Q101.669 -34.982 102.794 -34.179 Q104.014 -33.374 104.611 -31.9 Q105.209 -30.425 104.81 -28.406 Q102.521 -11.605 89.704 -0.694 Q76.886 10.219 60.03 10.219 Z"/></g><g id="Regular-M" transform="matrix(1 0 0 1 1394.06 1126)"><path d="M60 9.77 Q41.125 9.77 28.062 -3.292 Q15 -16.355 15 -35.23 Q15 -52.48 26.25 -65.167 Q37.5 -77.855 55 -79.98 Q56.625 -80.23 57.875 -79.542 Q59.125 -78.855 59.875 -77.73 Q60.625 -76.605 60.688 -75.105 Q60.75 -73.605 59.75 -72.23 Q57.625 -68.98 56.562 -65.355 Q55.5 -61.73 55.5 -57.73 Q55.5 -46.48 63.375 -38.605 Q71.25 -30.73 82.5 -30.73 Q86.375 -30.73 90.188 -31.855 Q94 -32.98 97 -34.98 Q98.375 -35.855 99.812 -35.792 Q101.25 -35.73 102.375 -35.105 Q103.625 -34.48 104.312 -33.23 Q105 -31.98 104.75 -30.23 Q103 -12.98 90.062 -1.605 Q77.125 9.77 60 9.77 Z"/></g><g id="Light-M" transform="matrix(1 0 0 1 1098.18 1126)"><path d="M60.144 7.27 Q42.375 7.27 30.01 -5.095 Q17.645 -17.461 17.645 -35.23 Q17.645 -50.027 26.802 -61.537 Q35.961 -73.047 51.201 -76.374 Q52.779 -76.769 53.98 -76.297 Q55.182 -75.826 55.932 -74.894 Q56.682 -73.96 56.818 -72.629 Q56.951 -71.297 56.193 -69.97 Q54.644 -67.152 53.894 -64.105 Q53.144 -61.056 53.144 -57.73 Q53.144 -45.422 61.74 -36.826 Q70.336 -28.23 82.644 -28.23 Q86.328 -28.23 89.683 -29.162 Q93.039 -30.095 95.558 -31.326 Q96.789 -31.864 97.961 -31.706 Q99.135 -31.547 99.971 -30.922 Q100.885 -30.297 101.331 -29.215 Q101.779 -28.134 101.433 -26.672 Q98.769 -11.922 87.081 -2.326 Q75.394 7.27 60.144 7.27 Z"/></g><g id="Thin-M" transform="matrix(1 0 0 1 802.565 1126)"><path d="M60.289 4.77 Q43.625 4.77 31.956 -6.899 Q20.289 -18.566 20.289 -35.23 Q20.289 -47.576 27.356 -57.907 Q34.422 -68.24 47.404 -72.769 Q48.932 -73.307 50.086 -73.052 Q51.24 -72.797 51.99 -72.057 Q52.74 -71.316 52.947 -70.152 Q53.154 -68.99 52.635 -67.711 Q51.664 -65.326 51.226 -62.855 Q50.789 -60.384 50.789 -57.73 Q50.789 -44.365 60.106 -35.047 Q69.422 -25.73 82.789 -25.73 Q86.279 -25.73 89.177 -26.47 Q92.078 -27.211 94.115 -27.672 Q95.203 -27.874 96.11 -27.62 Q97.019 -27.365 97.567 -26.74 Q98.144 -26.115 98.351 -25.201 Q98.558 -24.287 98.115 -23.115 Q94.539 -10.865 84.101 -3.047 Q73.664 4.77 60.289 4.77 Z"/></g><g id="Ultralight-M" transform="matrix(1 0 0 1 506.415 1126)"><path d="M60.375 3.27 Q44.375 3.27 33.125 -7.98 Q21.875 -19.23 21.875 -35.23 Q21.875 -46.105 27.688 -55.73 Q33.5 -65.355 45.125 -70.605 Q46.625 -71.23 47.75 -71.105 Q48.875 -70.98 49.625 -70.355 Q50.375 -69.73 50.625 -68.667 Q50.875 -67.605 50.5 -66.355 Q49.875 -64.23 49.625 -62.105 Q49.375 -59.98 49.375 -57.73 Q49.375 -43.73 59.125 -33.98 Q68.875 -24.23 82.875 -24.23 Q86.25 -24.23 88.875 -24.855 Q91.5 -25.48 93.25 -25.48 Q94.25 -25.48 95 -25.167 Q95.75 -24.855 96.125 -24.23 Q96.5 -23.605 96.562 -22.792 Q96.625 -21.98 96.125 -20.98 Q92 -10.23 82.312 -3.48 Q72.625 3.27 60.375 3.27 Z"/></g><g id="Bold-S" transform="matrix(1 0 0 1 2294.23 696)"><path d="M47.439 -0.613 Q32.546 -0.613 22.634 -10.475 Q12.723 -20.338 12.723 -35.23 Q12.723 -46.177 18.837 -55.547 Q24.952 -64.916 36.984 -68.368 Q39.154 -69.157 40.979 -68.861 Q42.803 -68.565 43.987 -67.579 Q45.269 -66.593 45.861 -65.015 Q46.452 -63.437 46.354 -61.464 Q46.255 -59.59 45.959 -57.963 Q45.663 -56.336 45.663 -54.955 Q45.663 -45.881 51.975 -39.619 Q58.287 -33.356 67.46 -33.356 Q69.038 -33.356 70.665 -33.455 Q72.292 -33.553 74.067 -33.751 Q75.941 -33.948 77.371 -33.356 Q78.801 -32.764 79.689 -31.679 Q80.478 -30.595 80.774 -28.918 Q81.07 -27.241 80.379 -25.17 Q77.223 -14.026 68.199 -7.319 Q59.175 -0.613 47.439 -0.613 Z"/></g><g id="Semibold-S" transform="matrix(1 0 0 1 1998.1 696)"><path d="M47.396 -1.256 Q32.975 -1.256 23.17 -11.032 Q13.366 -20.809 13.366 -35.23 Q13.366 -46.906 20.424 -56.276 Q27.482 -65.645 39.772 -68.282 Q41.512 -68.814 42.951 -68.39 Q44.39 -67.965 45.273 -67.022 Q46.212 -66.078 46.568 -64.672 Q46.924 -63.265 46.568 -61.678 Q45.912 -59.633 45.424 -57.577 Q44.935 -55.521 44.935 -53.583 Q44.935 -44.809 51.011 -38.761 Q57.087 -32.713 65.916 -32.713 Q67.965 -32.713 70.022 -33.09 Q72.078 -33.468 74.067 -34.18 Q75.598 -34.591 76.9 -34.214 Q78.201 -33.836 79.088 -33.009 Q79.921 -32.182 80.345 -30.826 Q80.77 -29.471 80.294 -27.786 Q77.91 -15.998 68.714 -8.627 Q59.518 -1.256 47.396 -1.256 Z"/></g><g id="Medium-S" transform="matrix(1 0 0 1 1701.85 696)"><path d="M47.364 -1.738 Q33.297 -1.738 23.572 -11.451 Q13.848 -21.163 13.848 -35.23 Q13.848 -47.453 21.614 -56.822 Q29.379 -66.191 41.862 -68.218 Q43.282 -68.556 44.431 -68.036 Q45.58 -67.515 46.238 -66.604 Q46.92 -65.692 47.098 -64.414 Q47.278 -63.137 46.729 -61.839 Q45.654 -59.665 45.021 -57.287 Q44.388 -54.91 44.388 -52.553 Q44.388 -44.006 50.287 -38.118 Q56.187 -32.231 64.758 -32.231 Q67.162 -32.231 69.54 -32.817 Q71.917 -33.403 74.067 -34.501 Q75.341 -35.073 76.546 -34.857 Q77.751 -34.64 78.639 -34.006 Q79.503 -33.371 80.023 -32.257 Q80.544 -31.143 80.229 -29.747 Q78.424 -17.477 69.1 -9.608 Q59.776 -1.738 47.364 -1.738 Z"/></g><g id="Regular-S" transform="matrix(1 0 0 1 1405.73 696)"><path d="M47.34 -2.092 Q33.532 -2.092 23.867 -11.757 Q14.202 -21.422 14.202 -35.23 Q14.202 -47.854 22.486 -57.223 Q30.771 -66.593 43.395 -68.171 Q44.579 -68.368 45.515 -67.776 Q46.452 -67.184 46.946 -66.297 Q47.439 -65.409 47.488 -64.226 Q47.537 -63.042 46.847 -61.957 Q45.466 -59.689 44.726 -57.075 Q43.987 -54.462 43.987 -51.799 Q43.987 -43.416 49.756 -37.646 Q55.526 -31.877 63.909 -31.877 Q66.572 -31.877 69.185 -32.616 Q71.799 -33.356 74.067 -34.737 Q75.152 -35.427 76.286 -35.329 Q77.421 -35.23 78.308 -34.737 Q79.196 -34.244 79.788 -33.307 Q80.379 -32.37 80.182 -31.186 Q78.801 -18.562 69.383 -10.327 Q59.964 -2.092 47.34 -2.092 Z"/></g><g id="Light-S" transform="matrix(1 0 0 1 1109.75 696)"><path d="M47.453 -4.064 Q34.519 -4.064 25.404 -13.179 Q16.289 -22.295 16.289 -35.23 Q16.289 -45.919 22.922 -54.359 Q29.557 -62.8 40.398 -65.325 Q41.544 -65.637 42.442 -65.216 Q43.342 -64.795 43.835 -64.059 Q44.328 -63.322 44.435 -62.272 Q44.54 -61.222 44.04 -60.174 Q43.114 -58.247 42.621 -56.089 Q42.128 -53.93 42.128 -51.799 Q42.128 -42.582 48.466 -36.243 Q54.805 -29.904 64.022 -29.904 Q66.534 -29.904 68.787 -30.492 Q71.041 -31.08 72.929 -31.854 Q73.901 -32.278 74.826 -32.105 Q75.752 -31.93 76.412 -31.437 Q77.034 -30.944 77.435 -30.139 Q77.838 -29.335 77.565 -28.38 Q75.463 -17.728 67.03 -10.896 Q58.598 -4.064 47.453 -4.064 Z"/></g><g id="Thin-S" transform="matrix(1 0 0 1 814.015 696)"><path d="M47.568 -6.037 Q35.505 -6.037 26.939 -14.603 Q18.375 -23.167 18.375 -35.23 Q18.375 -43.985 23.359 -51.495 Q28.343 -59.007 37.402 -62.481 Q38.509 -62.906 39.37 -62.656 Q40.231 -62.405 40.724 -61.821 Q41.217 -61.236 41.381 -60.318 Q41.544 -59.401 41.233 -58.392 Q40.763 -56.806 40.516 -55.103 Q40.27 -53.4 40.27 -51.799 Q40.27 -41.747 47.177 -34.839 Q54.084 -27.932 64.137 -27.932 Q66.496 -27.932 68.389 -28.368 Q70.282 -28.805 71.791 -28.971 Q72.649 -29.13 73.365 -28.881 Q74.082 -28.63 74.515 -28.137 Q74.871 -27.644 75.084 -26.972 Q75.296 -26.3 74.947 -25.573 Q72.125 -16.894 64.679 -11.465 Q57.233 -6.037 47.568 -6.037 Z"/></g><g id="Ultralight-S" transform="matrix(1 0 0 1 517.792 696)"><path d="M47.636 -7.22 Q36.097 -7.22 27.862 -15.456 Q19.626 -23.691 19.626 -35.23 Q19.626 -42.824 23.621 -49.777 Q27.615 -56.73 35.604 -60.774 Q36.689 -61.267 37.527 -61.119 Q38.365 -60.971 38.858 -60.478 Q39.351 -59.985 39.549 -59.147 Q39.746 -58.308 39.549 -57.322 Q39.351 -55.941 39.253 -54.511 Q39.154 -53.081 39.154 -51.799 Q39.154 -41.246 46.403 -33.997 Q53.652 -26.748 64.205 -26.748 Q66.473 -26.748 68.15 -27.093 Q69.827 -27.439 71.109 -27.241 Q71.898 -27.241 72.489 -26.945 Q73.081 -26.65 73.377 -26.156 Q73.574 -25.663 73.673 -25.072 Q73.772 -24.48 73.377 -23.888 Q70.122 -16.393 63.268 -11.807 Q56.413 -7.22 47.636 -7.22 Z"/></g></g></svg>