<svg xmlns="http://www.w3.org/2000/svg" height="40" viewBox="0 -960 960 960" width="40"><path d="M687.9-213.67q-15.27 0-26.17-10.99-10.9-10.99-10.9-26.84v-103.36q0-14.69 10.78-25 10.77-10.31 26.32-10.31h3.9v-40.16q0-29.27 19.59-49.05 19.58-19.79 47.83-19.79 27.92 0 47.92 19.79 20 19.78 20 49.05v40.16h3q15.16 0 25.66 10.21t10.5 24.96v103.36q0 15.79-10.2 26.88-10.21 11.09-25.75 11.09H687.9Zm31.77-176.5H800v-40.31q0-16.63-11.97-28.82-11.97-12.2-28.82-12.2-17.18 0-28.36 12.09t-11.18 29.08v40.16Zm-239.8 176.5q-22.2 0-36.62-14.83-14.42-14.83-14.42-36.75t14.55-36.33Q457.94-316 480.13-316q22.2 0 36.62 14.54 14.42 14.53 14.42 36.71 0 21.58-14.55 36.33-14.56 14.75-36.75 14.75ZM480-466.5q-45.03 0-86.68 14.17-41.65 14.16-77.15 40-10.67 9-23.87 8.44-13.19-.55-21.95-10.12-9.18-7.88-9.64-20.8-.45-12.91 10.46-21.86 44.07-35.48 97.68-54.16Q422.47-529.5 480-529.5q23.76 0 47.05 3.33 23.28 3.34 46.28 9.34-11.5 13-22 25.5t-18.16 27.66q-13.24-1.54-26.55-2.18-13.3-.65-26.62-.65Zm-.17-214.83q-88.36 0-170.26 28.83-81.9 28.83-150.07 84-10.33 8.83-24.6 8.54-14.26-.29-23-10.48-9.57-8.39-8.65-21.89.92-13.5 11.25-22.34 77.54-63.72 171.1-97.69 93.55-33.97 194.54-33.97t194.36 33.97q93.38 33.97 171.96 97.69 9.37 8.84 10.29 22.34.92 13.5-8.65 21.89-8.74 10.19-23 10.48-14.27.29-24.6-8.54-68.17-55.17-150.24-84-82.07-28.83-170.43-28.83Z"/></svg>