<svg xmlns="http://www.w3.org/2000/svg" height="20" viewBox="0 -960 960 960" width="20"><path d="M228.21-192q-15.21 0-25.71-10.34-10.5-10.35-10.5-25.64v-503.73q0-15.29 10.29-25.79t25.5-10.5q15.21 0 25.71 10.34 10.5 10.35 10.5 25.64v503.73q0 15.29-10.29 25.79t-25.5 10.5Zm288-396q-15.21 0-25.71-10.33t-10.5-25.6v-107.8q0-15.27 10.29-25.77t25.5-10.5q15.21 0 25.71 10.33t10.5 25.6v107.8q0 15.27-10.29 25.77t-25.5 10.5ZM658-370q-10.67 11-25.33 11Q618-359 607-369.93q-11-10.93-11-25.5T607-421l23-23H371.96q-15.28 0-25.62-10.29Q336-464.58 336-479.79t10.34-25.71q10.34-10.5 25.62-10.5H630l-23-24q-11-10.64-11-24.82T607-590q11-11 25.67-11 14.66 0 25.33 11l85 85q11 10.64 11 24.82T743-455l-85 85ZM516.21-192q-15.21 0-25.71-10.33t-10.5-25.6v-107.8q0-15.27 10.29-25.77t25.5-10.5q15.21 0 25.71 10.33t10.5 25.6v107.8q0 15.27-10.29 25.77t-25.5 10.5Z"/></svg>