<svg xmlns="http://www.w3.org/2000/svg" height="24" width="24"><path d="M3.825 20.7q-.725 0-1.213-.5-.487-.5-.487-1.2V5q0-.7.487-1.2.488-.5 1.213-.5.7 0 1.188.5.487.5.487 1.2v14q0 .7-.487 1.2-.488.5-1.188.5Zm8.75-12.4q-.725 0-1.225-.5-.5-.5-.5-1.2V5q0-.7.5-1.2t1.2-.5q.725 0 1.212.5.488.5.488 1.2v1.6q0 .7-.488 1.2-.487.5-1.187.5Zm5.325 7.725q-.525.5-1.212.487Q16 16.5 15.5 16q-.5-.475-.5-1.15 0-.675.45-1.175l-.025.025H9.2q-.7 0-1.2-.5T7.5 12q0-.7.5-1.2t1.2-.5h6.225l.025.025Q15 9.8 15 9.137q0-.662.475-1.137.525-.5 1.225-.5.7 0 1.225.5l2.775 2.775q.525.5.525 1.212 0 .713-.525 1.213ZM12.575 20.7q-.725 0-1.225-.5-.5-.5-.5-1.2v-1.6q0-.7.5-1.2t1.2-.5q.725 0 1.212.5.488.5.488 1.2V19q0 .7-.488 1.2-.487.5-1.187.5Z"/></svg>