<svg xmlns="http://www.w3.org/2000/svg" height="48" viewBox="0 -960 960 960" width="48"><path d="M190.5-161.5q-12.25 0-20.62-8-8.38-8-8.38-20.5v-580q0-12.25 8.43-20.63 8.42-8.37 20.75-8.37 11.82 0 20.07 8.37Q219-782.25 219-770v580q0 11.5-8.37 20-8.38 8.5-20.13 8.5Zm339.82-450q-12.32 0-20.57-8.13-8.25-8.12-8.25-20.37v-130q0-12.25 8.43-20.63 8.42-8.37 20.75-8.37 11.82 0 20.07 8.37Q559-782.25 559-770v130q0 11.5-8.43 20-8.42 8.5-20.25 8.5ZM693.5-375q-9.07 9-20.78 9-11.72 0-20.22-9-9-8.5-9-20t9-20.5l36-36h-338q-11.5 0-20.25-8.13-8.75-8.12-8.75-20.37 0-12.25 8.25-20.63Q338-509 350.5-509h338l-36-36q-9-8.5-9-20t9.05-20.5q8.56-8.5 20.25-8.5 11.7 0 20.7 8.5l85 85q8.5 9 8.5 20.5t-8.5 20l-85 85Zm-163 213.5q-12.25 0-20.62-8-8.38-8-8.38-20.5v-130q0-12.25 8.43-20.63 8.42-8.37 20.75-8.37 11.82 0 20.07 8.37Q559-332.25 559-320v130q0 11.5-8.37 20-8.38 8.5-20.13 8.5Z"/></svg>