<svg xmlns="http://www.w3.org/2000/svg" height="24" viewBox="0 -960 960 960" width="24"><path d="M756.5-95.87q-13.39 5.22-25.8-2.36-12.42-7.57-14.7-22.25-2.02-12.22 4.45-23.22 6.46-11 18.68-16.02 38.13-15.8 60.56-49.61 22.42-33.8 22.42-75.45 0-41.65-22.54-75.1-22.55-33.45-60.44-49.73-12.48-5.26-18.81-16.14-6.34-10.88-4.32-23.1 2.28-14.91 15.05-22.49 12.78-7.57 26.65-2.36 59.6 21.77 94.77 73.66 35.16 51.89 35.16 115.26 0 63.37-35.76 115.02T756.5-95.87Zm-137.5-.3q-21.61-6.09-40.38-18.13-18.77-12.05-35.19-28.46-15.93-15.94-27.26-34.23-11.32-18.29-18.6-38.94-4.5-12.92 2.94-24.48 7.45-11.57 21.38-13.85 11.72-2.02 22.72 4.46 11 6.47 16.26 18.45 5 11.94 11.86 22.49 6.86 10.56 16.55 20.25 9.7 9.7 20.38 16.68 10.69 6.97 22.36 11.97 11.98 5.26 18.33 16.39 6.35 11.14 4.32 22.85-2.28 13.7-12.76 20.89-10.47 7.2-22.91 3.66Zm42.44-117.94q-5.72 3.48-11.32.37-5.6-3.11-5.6-9.56v-122.72q0-6.46 5.6-9.57 5.6-3.11 11.32.37l94.71 61.74q5.22 2.98 5.22 8.7 0 5.71-5.22 8.69l-94.71 61.98ZM522.13-315.3q-14.17-2.29-21.62-13.97-7.44-11.69-2.71-24.84 7.53-20.41 18.73-38.71 11.21-18.29 26.9-33.98 16.42-16.42 35.91-28.34 19.49-11.93 39.66-18.01 12.44-3.55 22.91 3.77 10.48 7.31 12.76 21.01 2.03 11.72-4.32 22.73t-18.33 16.27q-11.67 5-22.24 11.98-10.56 6.98-20.26 16.67-9.69 9.7-16.67 20.13-6.98 10.44-11.98 22.37-5.26 11.98-16.14 18.46t-22.6 4.46ZM419.85-81.87q-23.2 0-38.98-15.35-15.78-15.35-18.78-38.04l-10-73.74q-11.09-4.78-22.79-11.08-11.69-6.29-21.26-13.09l-68.26 28q-21.45 9.24-43.15 1.87t-33.67-27.57l-58.05-100.87q-11.98-19.96-7.11-42.53 4.87-22.58 23.33-37.06l59.76-45.5q-.76-5.54-.76-10.58V-480q0-5.04.25-11.09.25-6.04 1.01-14.08l-59.26-43.76q-18.7-14.48-23.7-36.81-5-22.33 6.98-43.02l57.55-100.13q11.97-19.96 33.8-27.45 21.83-7.49 43.28 1.75l69.98 29q8.57-6.8 18.9-12.73 10.34-5.92 23.17-11.2l10-75.98q3-22.93 20.33-38.28 17.34-15.35 40.54-15.35h114.58q23.2 0 40.29 15.35 17.08 15.35 20.08 38.28l10 74.48q12.09 4.78 22.29 10.95 10.19 6.18 19.76 14.48l70.26-29q21.45-9.24 43.15-1.75t33.67 27.45l60.42 104.91q10.78 18.05 5.18 39.19-5.6 21.14-22.62 33.46l-28.74 20.94q-14.41 10-31.21 7.52-16.81-2.48-27.29-16.15-7.87-9.39-6.34-21.07 1.52-11.67 11.41-19.54l18.45-13.65-43.23-75.13-100.53 43q-19.5-21.72-46.59-37.58-27.1-15.86-56.08-23.12l-13-107.02h-73.48l-13.02 106.28q-32.72 8.26-57.44 22.37-24.71 14.11-48.45 38.07l-97.78-42-35.87 62.69 84.54 62.79q-5 16.47-7.24 31.33t-2.24 31.1q0 15.24 1.99 30.22 1.99 14.98 6.99 31.95l-84.04 63.05 35.87 62.69 97.28-41.76q19.22 19.46 40.16 32.94 20.95 13.48 44.9 21.98 1.26 41.26 13.54 79 12.27 37.73 33.55 69.71 9.94 16.35 1.47 32.6-8.47 16.25-26.88 16.25h-10.87ZM479.5-480Zm0 0Zm-.72-135q-56 0-95.5 39.37T343.78-480q0 22 6.87 42.62 6.87 20.62 20.11 38.62 11.72 15.46 30.04 18.84 18.33 3.38 32.05-8.34 13.72-11.46 15.47-28.03 1.75-16.58-10.21-27.8-7.02-7.04-10.54-16.31-3.53-9.27-3.53-19.84.24-22.85 16.07-38.67 15.82-15.83 38.67-15.83 9.81 0 18.99 3.53 9.19 3.54 16.47 9.58 11.93 8.04 26.54 4.37 14.61-3.67 23.63-16.65 9.52-13.22 6.54-30.21-2.99-16.99-16.73-27.27-14.26-11.81-33.57-17.71-19.3-5.9-41.87-5.9Z"/></svg>