<svg xmlns="http://www.w3.org/2000/svg" height="20" width="20"><path d="M10 10.646q.25 0 .448-.198t.198-.448q0-.25-.198-.448T10 9.354q-.25 0-.448.198T9.354 10q0 .25.198.448t.448.198Zm2.5 0q.25 0 .448-.198t.198-.448q0-.25-.198-.448t-.448-.198q-.25 0-.448.198t-.198.448q0 .25.198.448t.448.198Zm-5 0q.25 0 .448-.198T8.146 10q0-.25-.198-.448T7.5 9.354q-.25 0-.448.198T6.854 10q0 .25.198.448t.448.198Zm2.5 2.5q.25 0 .448-.198t.198-.448q0-.25-.198-.448T10 11.854q-.25 0-.448.198t-.198.448q0 .25.198.448t.448.198Zm2.5 0q.25 0 .448-.198t.198-.448q0-.25-.198-.448t-.448-.198q-.25 0-.448.198t-.198.448q0 .25.198.448t.448.198Zm-5 0q.25 0 .448-.198t.198-.448q0-.25-.198-.448t-.448-.198q-.25 0-.448.198t-.198.448q0 .25.198.448t.448.198Zm2.5-5q.25 0 .448-.198t.198-.448q0-.25-.198-.448T10 6.854q-.25 0-.448.198t-.198.448q0 .25.198.448t.448.198Zm2.5 0q.25 0 .448-.198t.198-.448q0-.25-.198-.448t-.448-.198q-.25 0-.448.198t-.198.448q0 .25.198.448t.448.198Zm-5 0q.25 0 .448-.198t.198-.448q0-.25-.198-.448T7.5 6.854q-.25 0-.448.198t-.198.448q0 .25.198.448t.448.198Zm2.5 9.229q-1.521 0-2.875-.583-1.354-.584-2.344-1.584-.989-1-1.573-2.343-.583-1.344-.583-2.865 0-1.521.583-2.875.584-1.354 1.584-2.344 1-.989 2.343-1.573Q8.479 2.625 10 2.625q1.521 0 2.875.583 1.354.584 2.344 1.584.989 1 1.573 2.343.583 1.344.583 2.865 0 1.521-.583 2.875-.584 1.354-1.584 2.344-1 .989-2.343 1.573-1.344.583-2.865.583Z"/></svg>