<svg xmlns="http://www.w3.org/2000/svg" height="48" viewBox="0 -960 960 960" width="48"><path d="M480-100q-80.38 0-149.73-29.16-69.35-29.15-120.65-80.46-51.31-51.3-80.46-120.65Q100-399.62 100-480q0-79.77 29.16-149.11 29.15-69.35 80.46-120.66 51.3-51.31 120.65-80.77Q399.62-860 480-860q79.77 0 149.11 29.46 69.35 29.46 120.66 80.77 51.31 51.31 80.77 120.66Q860-559.77 860-480q0 80.38-29.46 149.73t-80.77 120.65q-51.31 51.31-120.66 80.46Q559.77-100 480-100Zm0-45.39q62.77 0 118.54-21.96t100.38-61.11L567.39-360H632l99.54 99.92q39.15-45 61.11-101.07 21.96-56.08 21.96-118.85 0-138.08-98.26-236.35-98.27-98.26-236.35-98.26-62.77 0-118.85 21.96-56.07 21.96-101.07 61.5L392.23-600H328l-99.54-99.92q-39.15 45-61.11 101.07-21.96 56.08-21.96 118.85 0 138.08 98.26 236.35 98.27 98.26 236.35 98.26Zm-265-262.3L269.46-480 215-552.69h41.46L290-507.77l34.15-44.92H365L310.92-480 365-407.69h-40.85L290-452.23l-33.54 44.54H215Zm190 0L459.46-480 405-552.69h41.46L480-507.77l34.15-44.92H555L500.92-480 555-407.69h-40.85L480-452.23l-33.54 44.54H405Zm190 0L649.46-480 595-552.69h41.46L670-507.77l34.15-44.92H745L690.92-480 745-407.69h-40.85L670-452.23l-33.54 44.54H595Z"/></svg>