<svg xmlns="http://www.w3.org/2000/svg" height="40" viewBox="0 -960 960 960" width="40"><path d="M330.67-432q-83.34 0-141-58.17Q132-548.33 132-631.67q0-73.33 47-129 47-55.66 119.33-67.33H296q-9.33 20-14.17 41.17-4.83 21.16-4.83 43.5 0 81.33 56.67 137.5 56.66 56.16 138.66 56.16 10.67 0 21.5-1.16 10.84-1.17 21.84-2.84-24.34 56-74.17 88.84Q391.67-432 330.67-432Zm349.66-62H806v-163.33H680.33V-494ZM92-132v-24h95q-8.67-8.67-14.5-19.33-5.83-10.67-7.83-22.34l-28-107h385.66l-27.33 107q-2 11.67-8.17 22.34-6.16 10.66-14.16 19.33h258.66v-164.67q-32-5-53.5-29.33t-21.5-56.33v-275H830v275q0 32-21.33 56.33-21.34 24.33-53.34 29.33V-156H868v24H92Z"/></svg>