<svg xmlns="http://www.w3.org/2000/svg" height="40" viewBox="0 -960 960 960" width="40"><path d="M316.72-191.04h-81.71q-24.49 0-44.68-11.89-20.19-11.9-32.85-32.98l-44.33-78.79q-11.22-19.68-11.22-43.19 0-23.5 11.3-44.07L157.38-480l-44.15-78.7q-11.3-19.68-11.3-43.19 0-23.5 11.22-44.07l44.33-78.13q12.66-21.08 32.85-33.31 20.19-12.23 44.68-12.23h81.71l44.33-76.7q12.44-20.98 32.58-33.14 20.13-12.16 44.71-12.16h83.99q23.73 0 43.95 12.16 20.23 12.16 33.5 33.14l43.65 76.7h82.23q23.64 0 43.92 12.23t33.61 33.31l43.82 78.13q11.06 20.54 11.06 44.05 0 23.5-11.3 43.21L803.44-480l43.33 78.04q11.3 20.54 11.3 44.05 0 23.5-11.06 43.21l-43.82 78.79q-13.33 21.08-33.61 32.98-20.28 11.89-43.92 11.89h-82.23l-43.65 77.37q-13.27 20.98-33.5 32.81-20.22 11.82-43.95 11.82h-83.99q-24.58 0-44.71-11.82-20.14-11.83-32.58-32.81l-44.33-77.37ZM644.41-524.3h81.37l44.94-77.7-45-78.37h-81.38L599.78-602l44.63 77.7ZM439.57-403.63h80.79L565.72-480l-45.25-77.04h-80.8L395.11-480l44.46 76.37Zm.08-242.67h80.75l45.41-78.03-45.05-78.04H439.1l-44.25 78.04 44.8 78.03ZM361.72-602l-45.41-78.37h-80.97L190.77-602l44.64 77.7h80.97l45.34-77.7Zm0 244-46.05-78.37h-81.33L190.11-358l45.3 77.7h80.97l45.34-77.7Zm77.71 43.63-44.58 78.7 44.31 77.37h81.66l44.99-77.37-45.63-78.7h-80.75Zm204.98 34.07h80.97l45.34-77.7-45.41-78.37h-80.97L601.78-358l42.63 77.7Z"/></svg>