<svg xmlns="http://www.w3.org/2000/svg" height="40" viewBox="0 96 960 960" width="40"><path d="M462.102 957.333q-79.091 0-148.667-30.276-69.576-30.277-121.16-82.002-51.585-51.726-81.545-120.916-29.96-69.191-29.96-147.844 0-79.063 30.019-148.904 30.019-69.842 81.705-121.527 51.685-51.684 121.159-81.441 69.474-29.756 148.449-29.756 78.767 0 148.179 29.756 69.411 29.757 121.193 81.539t81.872 121.53q30.09 69.747 30.09 148.897 0 78.996-30.09 147.931-30.09 68.936-81.859 120.639-51.768 51.704-121.188 82.039t-148.197 30.335Zm41.744-53.41q112.487-13.974 192.013-93.5 79.526-79.526 94.167-192.68l-286.18 286.18ZM134.41 530.744l282.949-282.437q-110.79 14.671-189.754 93.477-78.965 78.806-93.195 188.96Zm16.838 157.23 422.983-422.758q-24.052-9.397-50.359-13.909-26.308-4.513-53.41-4.999L132.41 584.109q.461 28.019 4.991 54.25 4.531 26.231 13.847 49.615Zm65.146 109.385 466.734-467.051q-17.231-15.154-35.814-27.287t-38.981-22.919L166.205 721.611q10.59 20.902 22.872 40.15 12.282 19.247 27.317 35.598Zm99.324 73.872L757.256 428.34q-10.273-19.981-22.547-38.558-12.273-18.577-27.427-35.808L241.743 821.692q16.052 15.154 34.443 27.385 18.391 12.231 39.532 22.154Zm137.358 34.462 338.719-338.469q-1.128-27.352-5.322-53.327-4.194-25.974-13.614-50.692L349.307 886.769q24.052 9.402 50.359 13.918 26.308 4.515 53.41 5.006Z"/></svg>