<svg xmlns="http://www.w3.org/2000/svg" height="48" width="48"><path d="m40.85 35.7-20-20h9.4v-4.5q0-2.7-1.9-4.55-1.9-1.85-4.55-1.85-2.7 0-4.575 1.85t-1.875 4.5v1l-3.3-3.25q.55-3.5 3.275-5.725Q20.05.95 23.8.95q4.25 0 7.3 2.975t3.05 7.225v4.55h2.8q1.6 0 2.75 1.125t1.15 2.725Zm-29.8 9.35q-1.6 0-2.75-1.15t-1.15-2.7V19.55q0-1.3.875-2.35t2.125-1.25L.4 6.2q-.55-.5-.525-1.225Q-.1 4.25.5 3.7q.5-.55 1.225-.55.725 0 1.275.55l42 41.95q.55.6.525 1.275-.025.675-.575 1.225-.55.6-1.275.6-.725 0-1.275-.6l-3.65-3.55q-.25.15-.7.3-.45.15-1.1.15Zm10.2-18q-.55.55-.875 1.325-.325.775-.325 1.575 0 1.75 1.15 2.85t2.9 1.1q.8 0 1.525-.275.725-.275 1.275-.825Z"/></svg>