<svg xmlns="http://www.w3.org/2000/svg" height="20" width="20"><path d="m16.25 14.271-1.333-1.333V8.667q0-.105-.073-.177-.073-.073-.177-.073h-4.271L9.062 7.083h3.396V5.438q0-1.021-.75-1.73Q10.958 3 9.958 3q-1.02 0-1.739.708-.719.709-.761 1.688v.021L6.375 4.333q.313-1.187 1.292-1.927.979-.739 2.271-.739 1.604 0 2.729 1.093 1.125 1.094 1.125 2.678v1.645h.875q.666 0 1.125.459.458.458.458 1.125ZM5.333 17.917q-.666 0-1.125-.469-.458-.469-.458-1.136V8.646q0-.521.292-.886.291-.364.75-.552L1.188 3.562Q1 3.375 1 3.104t.208-.479q.209-.208.48-.208.27 0 .458.208l15.25 15.271q.187.187.198.448.01.26-.219.489-.208.209-.458.209t-.459-.209l-1.104-1.083q-.166.104-.396.135-.229.032-.5.032Zm8.855-1.334-3.084-3.104q-.208.209-.479.323-.271.115-.583.115-.625 0-1.063-.427-.437-.428-.437-1.032 0-.312.114-.604.115-.292.323-.479L6.021 8.417h-.688q-.104 0-.177.073-.073.072-.073.177v7.666q0 .105.073.177.073.073.177.073ZM10.104 12.5Zm2.563-1.833Z"/></svg>