<svg xmlns="http://www.w3.org/2000/svg" height="20" viewBox="0 -960 960 960" width="20"><path d="M653.96-184.08q-8.46 0-15.77-7.06-7.3-7.05-7.3-17.01 0-8.27 7.05-16.08 7.06-7.81 17.02-7.81h194.46q8.27 0 16.17 7.81 7.91 7.81 7.91 16.08 0 9.96-7.91 17.01-7.9 7.06-16.17 7.06H653.96Zm-173.96 60q-64.15 0-120.13-24.21-55.98-24.21-98.08-66.31-42.1-42.09-66.31-98.07-24.21-55.98-24.21-120.14 0-64.15 24.21-120.13 24.21-55.98 66.31-98.08 42.1-42.09 98.08-66.31 55.98-24.21 120.13-24.21 56.88 0 108.08 19.06 51.19 19.06 92.84 54.52l55.93-55.62q7.8-7.8 17.21-7.55 9.4.25 17.21 7.86 8 8.19 7.65 17.25-.34 9.06-8.54 16.37l-55.61 55.54q34.42 40.42 52.86 93.13 18.45 52.71 20.79 107.86 0 10.66-7.06 18-7.05 7.35-16.51 7.35-9.66 0-16.87-6.96-7.21-6.96-7.21-17.42 0-105.77-77.87-183.6-77.86-77.83-182.9-77.83-108.38 0-184.58 76.2-76.19 76.19-76.19 184.57 0 107.69 75.4 184.23 75.41 76.54 185.37 76.54 14.73 0 29.35-1.9 14.61-1.91 29.03-4.91 8.08.16 14.64 4.56 6.56 4.41 9.56 12.1 3 9.46-2 19.32-5 9.87-14.27 12.68-16.16 4.88-32.75 5.5-16.6.61-33.56.61Zm48.85-95.46q1.03-36.38 13.3-70.19 12.27-33.81 35.7-61.81 23.23-28 54.03-46.77 30.81-18.77 66.62-25.58.92-7.57.62-15.9-.31-8.33-.93-16.21H567.92L433.27-219.35q29.23 6.27 50.88 6.2 21.66-.08 44.7-6.39Zm-38.73-279.04h199.11q-14.31-44.15-44.44-78.44-30.14-34.29-76.79-56.9l-77.88 135.34Zm-62.7 24 99.7-172.19q-50-10.12-95.66-.04-45.65 10.08-81.34 37.96l77.3 134.27Zm-165.61 64.96h154.73L318-581q-30.73 35.65-47.65 79.62-16.93 43.96-8.54 91.76Zm130.38 177.35 76.12-134.77H271.27q12.54 45.23 43.38 79.67 30.85 34.45 77.54 55.1Zm-11.54-579.69q-8.46 0-15.77-7.06-7.3-7.06-7.3-17.02 0-8.27 7.05-16.07 7.06-7.81 17.02-7.81h196.89q8.27 0 16.08 7.81 7.8 7.8 7.8 16.07 0 9.96-7.8 17.02-7.81 7.06-16.08 7.06H380.65Z"/></svg>