<svg xmlns="http://www.w3.org/2000/svg" height="48" width="48"><path d="M6.8 38.65 5.7 37.5 14.95 28.25Q16.45 26.75 16.975 24.65Q17.5 22.55 17.5 18.55Q17.5 15.9 18.675 13.35Q19.85 10.8 22.05 8.55Q25.95 4.7 30.5 4.1Q35.05 3.5 38 6.4Q40.9 9.35 40.3 13.9Q39.7 18.45 35.8 22.35Q33.6 24.55 31.075 25.675Q28.55 26.8 25.85 26.8Q21.95 26.8 19.775 27.325Q17.6 27.85 16.05 29.4ZM20.9 23.35Q23.35 25.75 27.425 25.125Q31.5 24.5 34.8 21.2Q38.05 17.95 38.675 13.9Q39.3 9.85 36.9 7.5Q34.55 5.15 30.475 5.775Q26.4 6.4 23.15 9.65Q19.9 12.9 19.225 16.95Q18.55 21 20.9 23.35ZM36.65 44Q34.3 44 32.675 42.35Q31.05 40.7 31.05 38.35Q31.05 36 32.7 34.375Q34.35 32.75 36.65 32.75Q39 32.75 40.65 34.375Q42.3 36 42.3 38.35Q42.3 40.7 40.675 42.35Q39.05 44 36.65 44Z"/></svg>