<svg xmlns="http://www.w3.org/2000/svg" height="24" width="24"><path d="M17.85 20.85H3.65Q2.725 20.85 2.112 20.238Q1.5 19.625 1.5 18.7V9.3H2.85V18.7Q2.85 19 3.1 19.25Q3.35 19.5 3.65 19.5H17.85ZM7 17.5Q6.075 17.5 5.463 16.887Q4.85 16.275 4.85 15.35V6.2H10V4.7Q10 3.775 10.613 3.162Q11.225 2.55 12.15 2.55H15.2Q16.125 2.55 16.738 3.162Q17.35 3.775 17.35 4.7V6.2H22.5V15.35Q22.5 16.275 21.888 16.887Q21.275 17.5 20.35 17.5ZM11.35 6.2H16V4.7Q16 4.4 15.75 4.15Q15.5 3.9 15.2 3.9H12.15Q11.85 3.9 11.6 4.15Q11.35 4.4 11.35 4.7ZM7 16.15H20.35Q20.65 16.15 20.9 15.9Q21.15 15.65 21.15 15.35V7.55H6.2V15.35Q6.2 15.65 6.45 15.9Q6.7 16.15 7 16.15ZM6.2 7.55V15.35Q6.2 15.7 6.2 15.925Q6.2 16.15 6.2 16.15Q6.2 16.15 6.2 15.925Q6.2 15.7 6.2 15.35Z"/></svg>