<svg xmlns="http://www.w3.org/2000/svg" height="48" viewBox="0 -960 960 960" width="48"><path d="m438-204.85 142.33-142.32q10.54-10.71 27.08-11.22 16.55-.5 28.02 11.11 10.72 11.84 10.72 27.79t-10.72 27.42l-169.76 169q-11.56 11.72-27.71 11.72-16.16 0-26.63-11.72l-85.76-85.76q-11.72-10.5-11.22-26.68.5-16.19 12.22-28.03 10.47-10.35 26.31-10.35 15.84 0 27.55 10.72L438-204.85ZM299.28-650.76l17.48 56.43h327.75l16.21-56.43H299.28Zm17.48 133.98q-26.41 0-47.1-15.32-20.68-15.32-27.68-40.99l-23.52-77.67h-45.53q-32.43 0-54.87-22.44-22.43-22.43-22.43-54.87v-60q0-31.53 22.43-54.53 22.44-23.01 54.87-23.01h614.14q32.53 0 55.03 23.01 22.51 23 22.51 54.53v60q0 32.44-22.51 54.87-22.5 22.44-55.03 22.44h-45.29l-27.04 80.96q-7.63 24.67-28.62 38.84-20.99 14.18-46.16 14.18h-323.2Z"/></svg>