<svg xmlns="http://www.w3.org/2000/svg" height="48" width="48"><path d="m9.85 46.55-2.55-1.6 9.9-15.05q-3.75-1.45-6.075-4.525T8.4 18.25h27.3q-.4 4.05-2.8 7.1t-6 4.5l2.9 4.5q-.7.35-1.35.8-.65.45-1.05 1l-3.55-5.5q-.4.1-1.85.1h-.9q-.5 0-.85-.1l-5.55 8.5h12.65q.5-1.8 1.925-2.95 1.425-1.15 3.275-1.15 2.3 0 3.9 1.6t1.6 3.9q0 2.3-1.6 3.9t-3.9 1.6q-1.8 0-3.25-1.075t-1.95-2.825H12.7Zm22.7-3.5q1.05 0 1.775-.725.725-.725.725-1.775 0-1.05-.725-1.775-.725-.725-1.775-.725-1.05 0-1.775.725-.725.725-.725 1.775 0 1.05.725 1.775.725.725 1.775.725ZM22 27.75q3.25 0 5.925-1.75t3.975-4.75H12.2q1.2 3 3.875 4.75T22 27.75Zm-3.75-11.4q.25-1.4-.075-2.45-.325-1.05-1.475-2.6-1.1-1.45-1.4-2.575Q15 7.6 15.25 6h1.5q-.15 1.65.15 2.625.3.975 1.35 2.375 1 1.4 1.35 2.575.35 1.175.15 2.775Zm3.85 0q.15-1.8-.15-2.775-.3-.975-1.35-2.275-1.1-1.4-1.425-2.55Q18.85 7.6 19.1 6h1.5q-.25 1.3.05 2.35T22.1 11q1 1.35 1.325 2.55.325 1.2.175 2.8Zm3.8 0q.2-1.75-.1-2.75-.3-1-1.35-2.3-1.15-1.45-1.475-2.6Q22.65 7.55 22.9 6h1.5q-.25 1.3.075 2.35T25.95 11q1 1.3 1.325 2.5.325 1.2.125 2.85ZM22 27.75Z"/></svg>