<svg xmlns="http://www.w3.org/2000/svg" height="24" width="24"><path d="M9.95 22.875q-.225 0-.362-.15-.138-.15-.138-.35v-4.8l-3.175 3.15q-.15.175-.337.175-.188 0-.363-.175-.175-.15-.175-.338 0-.187.175-.362L18.05 7.575q.15-.175.337-.175.188 0 .363.175t.175.363q0 .187-.175.337l-3.175 3.175h4.8q.2 0 .35.15.15.15.15.35 0 .225-.15.362-.15.138-.35.138H14.55l-1.7 1.7 1.95 1.95h5.575q.2 0 .35.138.15.137.15.362 0 .2-.15.35-.15.15-.35.15H15.8l2.925 2.925q.175.175.175.362 0 .188-.175.338-.15.175-.338.175-.187 0-.362-.175L15.1 17.8v4.575q0 .2-.15.35-.15.15-.35.15-.225 0-.362-.15-.138-.15-.138-.35V16.8l-1.95-1.95-1.7 1.725v5.8q0 .2-.15.35-.15.15-.35.15Zm-3.55-6.5q-1.325-.8-2.113-2.138Q3.5 12.9 3.5 11.425q0-1.4.5-2.45.5-1.05 1.575-2.125.925-.975 1.575-2 .65-1.025.65-2.475v-1.2q2.125 1.425 3.825 3.4 1.7 1.975 2.45 4.125l-.8.8q-.525-1.9-1.812-3.525-1.288-1.625-2.713-2.85-.15 1.15-.738 2.2Q7.425 6.375 6.4 7.4q-1.025 1-1.462 1.925-.438.925-.438 2.1 0 1.125.575 2.162.575 1.038 1.6 1.763-.275-1.125.188-2.475.462-1.35 1.812-3.025.075-.075.137-.1.063-.025.163-.025.075 0 .15.025t.15.075q.3.3.763.9.462.6.787 1.225l-.75.725q-.15-.375-.45-.813-.3-.437-.625-.812-.675.975-1.062 1.837-.388.863-.388 1.538 0 .2.012.375.013.175.063.35Z"/></svg>