<svg xmlns="http://www.w3.org/2000/svg" height="40" viewBox="0 -960 960 960" width="40"><path d="M290-4.62q-9.33 0-16.46-7.12-7.13-7.13-7.13-16.98 0-9.33 7.13-16.46 7.13-7.13 16.46-7.13 9.33 0 16.72 7.13 7.38 7.13 7.38 16.46 0 9.85-7.38 16.98-7.39 7.12-16.72 7.12Zm340 0q-9.33 0-16.46-7.12-7.13-7.13-7.13-16.98 0-9.33 7.13-16.46 7.13-7.13 16.46-7.13 9.33 0 16.72 7.13 7.38 7.13 7.38 16.46 0 9.85-7.38 16.98-7.39 7.12-16.72 7.12ZM270-95.38q-40.31 0-76.06-18.02-35.76-18.01-58.4-48.75-1.57-2.61-2.22-4.82-.65-2.22-.65-4.87 0-5.44 3.7-10.01 3.71-4.56 10.9-4.56 3.96 0 6.74 1.69 2.78 1.69 4.5 3.8 16 23.41 41.48 37.39 25.47 13.99 55.45 17.61l136.33-164.95-72.21-195.1 133.77-217.11H310.51l-73.48 120.11-28.98-18 84.67-135.95H508q21.24 0 34.05 11.68 12.8 11.68 17.49 22.45l21 47.23q21.69 48.77 64.88 81.16 43.2 32.4 99.2 36.71v33.84q-61.8-3.12-112.03-38.42-50.23-35.29-86.67-99.58L440.64-476.18l176.28 108.13v243.43h35.8q32.79 0 61.18-15.1 28.38-15.1 47.59-40.43 2.83-2.88 5.08-4.57 2.25-1.69 6.17-1.69 6.31 0 10.45 4.51 4.14 4.5 4.14 9.87 0 2.62-.65 4.9-.65 2.28-2.22 4.98-22.64 30.74-57.1 48.75-34.46 18.02-74.64 18.02H270Zm29.23-29.24h283.85v-221.33L388.31-449.49l42.31 162.52-131.39 162.35Zm302.93-651.89q-27.01 0-46.33-19.27-19.32-19.27-19.32-46.27 0-27.51 19.27-46.58 19.27-19.06 46.27-19.06 27.51 0 46.58 19.01 19.06 19.01 19.06 46.52 0 27.01-19.01 46.33-19.01 19.32-46.52 19.32Z"/></svg>