<svg xmlns="http://www.w3.org/2000/svg" height="40" viewBox="0 -960 960 960" width="40"><path d="m865.67-10.33-862-871L60-937 921.67-65.67l-56 55.34ZM174.33-764.67 279-659.33V-219h408.67l98 98v106.67H174.33v-750.34ZM279-152.33V-119h402v-33.33H279Zm18.67-637.34v-18H681V-841H297.67v51.33l-97-97v-59h585v243H681V-741H347.33l-49.66-48.67ZM279-152.33V-119v-33.33ZM766-360l-47.33-47.33q15-14.34 22.83-33.72 7.83-19.38 7.83-40.28 0-20.91-7.5-40.62-7.5-19.72-22.5-34.05L766-603.33q24.33 24.33 37.17 55.83Q816-516 816-482t-13.08 65.83Q789.84-384.33 766-360Zm88.67 88.67-46-46.67Q841-350.33 859-392.33t18-88.34q0-47-18.67-89-18.66-42-54.33-71.66l49.33-49.34q43.67 41.34 67 95.67 23.34 54.33 23.34 114.33t-23 114q-23 54-66 95.34ZM681-841v33.33V-841Z"/></svg>