<svg xmlns="http://www.w3.org/2000/svg" height="40" viewBox="0 -960 960 960" width="40"><path d="M836.54-75.1 707.62-203.79v20q.2 18.41-12.68 31.87-12.89 13.46-31.45 13.46H182.67q-18.29 0-31.25-12.96t-12.96-31.25v-344.82q0-18.28 12.96-31.24 12.96-12.96 31.25-12.96h89.07l32.52-35.98-216.9-216.89q-4.87-4.36-5.26-11.53-.38-7.17 5.26-12.29 5.13-5.65 11.91-5.65t11.91 5.65L860.87-99.21q4.87 4.88 5.26 11.93.38 7.05-5.26 12.18-5.64 5.64-12.16 5.64-6.53 0-12.17-5.64ZM434.97-476.44q-3.07-.77-5.76-.77h-5.77q-52.18-.15-88.58 36.39t-36.4 88.51q0 52.16 36.23 88.39 36.23 36.23 88.39 36.23 51.97 0 88.41-36.36 36.43-36.36 36.72-88.46-.08-2.93-.04-5.7.04-2.76-.73-5.84L434.97-476.44Zm-11.89 214.9q-37.46 0-64.12-26.65-26.65-26.66-26.65-64.12 0-38.23 26.65-64.5 26.66-26.27 64.12-26.27 38.23 0 64.5 26.27 26.27 26.27 26.27 64.5 0 37.46-26.27 64.12-26.27 26.65-64.5 26.65Zm322.66-447.69h-6.66q-6.16 0-10.52-4.36-4.35-4.36-4.35-10.51v-98.46q0-5.65 4.35-10 4.36-4.36 10.52-4.36h59.1q8.23 0 12.37 6.43 4.14 6.44.73 14.08l-33.48 75.79h25.74q7.72 0 12.04 6.98 4.32 6.97.75 14.61l-56.71 109.8q-3.08 5.15-8.48 4.08-5.4-1.08-5.4-6.72v-97.36Zm-38.05 181.74v126.62q0 12.59-11.65 17.11-11.66 4.53-20.4-4.21L464.9-598.72q-6.11-6.1-5.3-12.78.81-6.68 5.96-11.32 4.64-4.64 11.4-5.37 6.76-.73 12.86 5.37l50.69 51.13h122.98q18.28 0 31.24 12.96 12.96 12.96 12.96 31.24Z"/></svg>