<svg xmlns="http://www.w3.org/2000/svg" height="48" viewBox="0 -960 960 960" width="48"><path d="M295.96-146.43q-94.87-36.64-162.11-107.87-67.24-71.22-67.24-170.4 0-15.83 10.79-27.04 10.79-11.22 26.9-11.22h36.87v-315.52q0-15.25 10.35-26.82t26.61-14.83l688.7-74.7q14.13-1.43 23.34 6.45 9.22 7.88 9.22 21.57 0 11.78-7.78 20.73-7.78 8.95-18.78 9.38l-454.26 49.25v88.84h451.26q11.79 0 20.68 8.54 8.88 8.55 8.88 20.96t-8.88 21.02q-8.89 8.61-20.68 8.61H418.57v176.52h438q16.38 0 27.82 11.22 11.44 11.21 11.44 27.04 0 99.18-69.09 169.79-69.09 70.61-163.26 108.48v43.17q0 18.58-11.74 30.33-11.75 11.76-29.35 11.76H338.04q-18.57 0-30.33-11.76-11.75-11.75-11.75-30.33v-43.17Zm13.47-552.18h50v-81.26l-50 4.75v76.51Zm-109.13 0h50v-70.26l-50 5v65.26Zm109.13 235.65h50v-176.52h-50v176.52Zm-109.13 0h50v-176.52h-50v176.52Z"/></svg>