<svg xmlns="http://www.w3.org/2000/svg" height="20" width="20"><path d="M10 13.833q-.354 0-.615-.26-.26-.261-.26-.615V9.979q0-.375.26-.635.261-.261.615-.261t.615.261q.26.26.26.635v2.979q0 .354-.26.615-.261.26-.615.26Zm0-5.437q-.354 0-.615-.261-.26-.26-.26-.614t.26-.615q.261-.26.615-.26t.615.26q.26.261.26.615t-.26.614q-.261.261-.615.261ZM6.083 19.542q-.937 0-1.614-.677t-.677-1.615V2.75q0-.938.677-1.615T6.083.458h7.834q.937 0 1.614.677t.677 1.615v14.5q0 .938-.677 1.615t-1.614.677Zm0-4.917h7.834v-9.25H6.083Z"/></svg>