<svg xmlns="http://www.w3.org/2000/svg" height="48" viewBox="0 -960 960 960" width="48"><path d="M480.07-132.5q-72.06 0-135.5-27.2-63.45-27.19-110.38-74.13-46.94-46.94-74.31-110.4-27.38-63.46-27.38-135.61 0-72.02 27.2-135.44Q186.89-678.7 233.83-726q46.94-47.31 110.4-74.9 63.46-27.6 135.61-27.6t135.68 27.56q63.53 27.57 110.53 74.82 47 47.25 74.72 110.6 27.73 63.34 27.73 135.36 0 72.15-27.56 135.68-27.57 63.53-74.82 110.53-47.25 47-110.63 74.22-63.37 27.23-135.42 27.23Zm-.08-22q136.39 0 231.45-94.56 95.06-94.55 95.06-230.93 0-136.39-94.91-231.45T480.15-806.5q-136.52 0-231.09 94.91-94.56 94.91-94.56 231.44 0 136.52 94.56 231.09 94.55 94.56 230.93 94.56Zm-.19-138q78.2 0 133.45-54.99 55.25-54.99 55.25-132.72 0-39.16-14.75-73.23Q639-587.5 613-613l-15 15q21.5 23 35 53.54 13.5 30.55 13.5 64.51 0 69.31-48.22 117.38-48.21 48.07-118 48.07-69.78 0-117.78-47.93t-48-117.73q0-34.21 12.87-64.53Q340.23-575 363-598l-16-15q-25.5 25.66-40 59.65-14.5 34-14.5 73.45 0 77.59 54.55 132.5 54.54 54.9 132.75 54.9ZM469.5-480h22v-188.5h-22V-480Zm10.5 0Z"/></svg>