<svg xmlns="http://www.w3.org/2000/svg" height="24" viewBox="0 -960 960 960" width="24"><path d="M596.65-191.87H531q-19.15 0-32.33-13.17-13.17-13.18-13.17-32.33t13.17-32.33q13.18-13.17 32.33-13.17h65.65L736.5-480 596.69-677.13H202.87V-611q0 19.15-13.17 32.33-13.18 13.17-32.33 13.17t-32.33-13.17q-13.17-13.18-13.17-32.33v-66.13q0-37.54 26.73-64.27 26.73-26.73 64.27-26.73h393.78q22.39 0 42.17 9.96 19.77 9.95 32.2 28.1l139.57 197.61q16.91 23.97 16.91 52.51t-16.91 52.41L671.02-229.93q-12.43 17.91-32.2 27.98-19.78 10.08-42.17 10.08ZM469.8-480ZM194.5-274.5H120q-19.15 0-32.33-13.17Q74.5-300.85 74.5-320t13.17-32.33Q100.85-365.5 120-365.5h74.5V-440q0-19.15 13.17-32.33Q220.85-485.5 240-485.5t32.33 13.17Q285.5-459.15 285.5-440v74.5H360q19.15 0 32.33 13.17Q405.5-339.15 405.5-320t-13.17 32.33Q379.15-274.5 360-274.5h-74.5v74.5q0 19.15-13.17 32.33Q259.15-154.5 240-154.5t-32.33-13.17Q194.5-180.85 194.5-200v-74.5Z"/></svg>