<svg xmlns="http://www.w3.org/2000/svg" height="40" width="40"><path d="M32.5 27.083q-.208-.208-.208-.479t.208-.521q1.083-1.291 1.646-2.875.562-1.583.562-3.208 0-1.667-.562-3.25-.563-1.583-1.688-2.833-.25-.209-.25-.5 0-.292.25-.5.209-.209.48-.229.27-.021.479.187 1.291 1.458 1.979 3.292.687 1.833.687 3.833 0 1.958-.687 3.792-.688 1.833-1.979 3.291-.209.209-.459.209t-.458-.209Zm-3.333-3.375q-.209-.125-.229-.396-.021-.27.187-.52.542-.584.854-1.313.313-.729.313-1.521 0-.75-.313-1.5-.312-.75-.854-1.375-.208-.208-.187-.458.02-.25.229-.458.166-.167.458-.167.292 0 .458.167.709.791 1.146 1.771.438.979.438 2.02 0 1.084-.438 2.042-.437.958-1.104 1.708-.25.209-.521.209t-.437-.209ZM12.458 36.542q-.958 0-1.666-.688-.709-.687-.709-1.687V5.833q0-1 .709-1.687.708-.688 1.666-.688h15.084q.958 0 1.666.688.709.687.709 1.687v5.25h-1.375V8.542H11.458v22.916h17.084v-2.541h1.375v5.25q0 1-.709 1.687-.708.688-1.666.688Z"/></svg>