<svg xmlns="http://www.w3.org/2000/svg" version="1.1" width="3300" height="2000"><g id="Notes"><style>
    text {
      font-family: monospace;
      text-anchor: middle;
    }
    text.emphasis {
      font-weight:bold;
    }
    text.lanchor {
      text-anchor: start;
    }
  </style><rect height="2200" id="artboard" fill="white" width="3300" x="0" y="0"/><line id="" style="fill:none;stroke:black;stroke-width:0.5;" x1="263" x2="3036" y1="292" y2="292"/><text class="lanchor emphasis" transform="matrix(1 0 0 1 263 322)">Weight/Scale Variations</text><text transform="matrix(1 0 0 1 559.711 322)">Ultralight</text><text transform="matrix(1 0 0 1 856.422 322)">Thin</text><text transform="matrix(1 0 0 1 1153.13 322)">Light</text><text transform="matrix(1 0 0 1 1449.84 322)">Regular</text><text transform="matrix(1 0 0 1 1746.56 322)">Medium</text><text transform="matrix(1 0 0 1 2043.27 322)">Semibold</text><text transform="matrix(1 0 0 1 2339.98 322)">Bold</text><text transform="matrix(1 0 0 1 2636.69 322)">Heavy</text><text transform="matrix(1 0 0 1 2933.4 322)">Black</text><text id="template-version" style="text-anchor: end;" transform="matrix(1 0 0 1 3036 1933)">Template v.1.0</text><text class="lanchor" transform="matrix(1 0 0 1 263 726)">Small</text><text class="lanchor" transform="matrix(1 0 0 1 263 1156)">Medium</text><text class="lanchor" transform="matrix(1 0 0 1 263 1586)">Large</text></g><g id="Guides"><g id="H-reference" style="fill:#27AAE1;stroke:none;" transform="matrix(1 0 0 1 339 696)"><path d="M 54.9316 0 L 57.666 0 L 30.5664 -70.459 L 28.0762 -70.459 L 0.976562 0 L 3.66211 0 L 12.9395 -24.4629 L 45.7031 -24.4629 Z M 29.1992 -67.0898 L 29.4434 -67.0898 L 44.8242 -26.709 L 13.8184 -26.709 Z"/></g><line id="Baseline-S" style="fill:none;stroke:#27AAE1;opacity:1;stroke-width:0.577;" x1="263" x2="3036" y1="696" y2="696"/><line id="Capline-S" style="fill:none;stroke:#27AAE1;opacity:1;stroke-width:0.577;" x1="263" x2="3036" y1="625.541" y2="625.541"/><g id="H-reference" style="fill:#27AAE1;stroke:none;" transform="matrix(1 0 0 1 339 1126)"><path d="M 54.9316 0 L 57.666 0 L 30.5664 -70.459 L 28.0762 -70.459 L 0.976562 0 L 3.66211 0 L 12.9395 -24.4629 L 45.7031 -24.4629 Z M 29.1992 -67.0898 L 29.4434 -67.0898 L 44.8242 -26.709 L 13.8184 -26.709 Z"/></g><line id="Baseline-M" style="fill:none;stroke:#27AAE1;opacity:1;stroke-width:0.577;" x1="263" x2="3036" y1="1126" y2="1126"/><line id="Capline-M" style="fill:none;stroke:#27AAE1;opacity:1;stroke-width:0.577;" x1="263" x2="3036" y1="1055.54" y2="1055.54"/><g id="H-reference" style="fill:#27AAE1;stroke:none;" transform="matrix(1 0 0 1 339 1556)"><path d="M 54.9316 0 L 57.666 0 L 30.5664 -70.459 L 28.0762 -70.459 L 0.976562 0 L 3.66211 0 L 12.9395 -24.4629 L 45.7031 -24.4629 Z M 29.1992 -67.0898 L 29.4434 -67.0898 L 44.8242 -26.709 L 13.8184 -26.709 Z"/></g><line id="Baseline-L" style="fill:none;stroke:#27AAE1;opacity:1;stroke-width:0.577;" x1="263" x2="3036" y1="1556" y2="1556"/><line id="Capline-L" style="fill:none;stroke:#27AAE1;opacity:1;stroke-width:0.577;" x1="263" x2="3036" y1="1485.54" y2="1485.54"/><rect height="119.336" id="left-margin" style="fill:darkred;stroke:none;opacity:0.4;" width="12.4512" x="1394.06" y="1030.79"/><rect height="119.336" id="right-margin" style="fill:darkgreen;stroke:none;opacity:0.4;" width="12.4512" x="1502.5112" y="1030.79"/><rect x="1406.5112" y="1045" width="96" height="96" fill="none" stroke="blue" stroke-dasharray="5"/><rect x="1394.06" y="1030.79" width="120.9024" height="119.336" fill="none" stroke="blue"/></g><g id="Symbols"><g id="Bold-L" transform="matrix(1 0 0 1 2266 1556)"><path d="M30.799 35.881 Q24.663 35.881 20.353 31.524 Q16.044 27.167 16.044 20.966 V-72.076 Q16.044 -78.277 20.353 -82.634 Q24.663 -86.991 30.799 -86.991 H52.568 L77.561 -111.824 L102.716 -86.991 H124.001 Q130.203 -86.991 134.56 -82.634 Q138.917 -78.277 138.917 -72.076 V20.966 Q138.917 27.167 134.56 31.524 Q130.203 35.881 124.001 35.881 H30.799 Z M36.443 6.534 H118.761 L93.203 -29.022 L72.079 -1.206 L57.244 -21.685 L36.443 6.534 Z M65.871 -86.991 H89.413 L77.561 -98.601 L65.871 -86.991 Z"/></g><g id="Semibold-L" transform="matrix(1 0 0 1 1970.27 1556)"><path d="M30.168 32.656 Q25.087 32.656 21.441 28.985 Q17.797 25.313 17.797 20.195 V-74.178 Q17.797 -79.296 21.441 -82.968 Q25.087 -86.641 30.168 -86.641 H52.427 L77.561 -111.683 L102.857 -86.641 H124.632 Q129.75 -86.641 133.421 -82.968 Q137.095 -79.296 137.095 -74.178 V20.195 Q137.095 25.313 133.421 28.985 Q129.75 32.656 124.632 32.656 H30.168 Z M37.354 5.062 H117.85 L93.203 -28.741 L72.079 -0.926 L57.244 -21.404 L37.354 5.062 Z M64.468 -86.641 H90.745 L77.561 -99.653 L64.468 -86.641 Z"/></g><g id="Medium-L" transform="matrix(1 0 0 1 1674.31 1556)"><path d="M29.694 30.238 Q25.405 30.238 22.259 27.079 Q19.111 23.921 19.111 19.616 V-75.757 Q19.111 -80.061 22.259 -83.22 Q25.405 -86.379 29.694 -86.379 H52.322 L77.561 -111.579 L102.961 -86.379 H125.106 Q129.411 -86.379 132.568 -83.22 Q135.727 -80.061 135.727 -75.757 V19.616 Q135.727 23.921 132.568 27.079 Q129.411 30.238 125.106 30.238 H29.694 Z M38.037 3.957 H117.166 L93.203 -28.532 L72.079 -0.716 L57.244 -21.195 L38.037 3.957 Z M63.416 -86.379 H91.745 L77.561 -100.441 L63.416 -86.379 Z"/></g><g id="Regular-L" transform="matrix(1 0 0 1 1378.56 1556)"><path d="M29.348 28.464 Q25.639 28.464 22.857 25.682 Q20.076 22.901 20.076 19.192 V-76.913 Q20.076 -80.622 22.857 -83.403 Q25.639 -86.185 29.348 -86.185 H52.245 L77.561 -111.501 L103.039 -86.185 H125.453 Q129.161 -86.185 131.943 -83.403 Q134.724 -80.622 134.724 -76.913 V19.192 Q134.724 22.901 131.943 25.682 Q129.161 28.464 125.453 28.464 H29.348 Z M38.539 3.148 H116.664 L93.203 -28.377 L72.079 -0.561 L57.244 -21.04 L38.539 3.148 Z M62.646 -86.185 H92.477 L77.561 -101.02 L62.646 -86.185 Z"/></g><g id="Light-L" transform="matrix(1 0 0 1 1082.77 1556)"><path d="M32.076 25.548 Q28.399 25.548 25.71 22.86 Q23.022 20.172 23.022 16.494 V-74.153 Q23.022 -77.831 25.71 -80.519 Q28.399 -83.208 32.076 -83.208 H54.851 L77.5 -105.857 L100.31 -83.208 H122.724 Q126.401 -83.208 129.09 -80.519 Q131.778 -77.831 131.778 -74.153 V16.494 Q131.778 20.172 129.09 22.86 Q126.401 25.548 122.724 25.548 H32.076 Z M43.376 1.659 H112.23 L91.527 -26.113 L72.079 -1.058 L58.919 -18.434 L43.376 1.659 Z M63.421 -83.208 H91.577 L77.5 -97.237 L63.421 -83.208 Z"/></g><g id="Thin-L" transform="matrix(1 0 0 1 787.282 1556)"><path d="M34.806 22.635 Q31.158 22.635 28.562 20.038 Q25.968 17.442 25.968 13.796 V-71.394 Q25.968 -75.039 28.562 -77.636 Q31.158 -80.232 34.806 -80.232 H57.455 L77.437 -100.214 L97.58 -80.232 H119.994 Q123.642 -80.232 126.238 -77.636 Q128.832 -75.039 128.832 -71.394 V13.796 Q128.832 17.442 126.238 20.038 Q123.642 22.635 119.994 22.635 H34.806 Z M48.214 0.171 H107.796 L89.853 -23.849 L72.079 -1.553 L60.593 -15.83 L48.214 0.171 Z M64.197 -80.232 H90.679 L77.437 -93.454 L64.197 -80.232 Z"/></g><g id="Ultralight-L" transform="matrix(1 0 0 1 491.205 1556)"><path d="M36.443 20.885 Q32.814 20.885 30.275 18.345 Q27.735 15.806 27.735 12.178 V-69.737 Q27.735 -73.366 30.275 -75.905 Q32.814 -78.445 36.443 -78.445 H59.017 L77.4 -96.827 L95.944 -78.445 H118.358 Q121.986 -78.445 124.525 -75.905 Q127.065 -73.366 127.065 -69.737 V12.178 Q127.065 15.806 124.525 18.345 Q121.986 20.885 118.358 20.885 H36.443 Z M51.116 -0.722 H105.135 L88.849 -22.491 L72.079 -1.851 L61.598 -14.267 L51.116 -0.722 Z M64.661 -78.445 H90.139 L77.4 -91.184 L64.661 -78.445 Z"/></g><g id="Bold-M" transform="matrix(1 0 0 1 2281.8 1126)"><path d="M27 21.145 Q20.625 21.145 16.25 16.77 Q11.875 12.395 11.875 6.02 V-59.855 Q11.875 -66.23 16.25 -70.605 Q20.625 -74.98 27 -74.98 H41.125 L60 -93.855 L78.875 -74.98 H93 Q99.375 -74.98 103.75 -70.605 Q108.125 -66.23 108.125 -59.855 V6.02 Q108.125 12.395 103.75 16.77 Q99.375 21.145 93 21.145 H27 Z M28.875 -2.48 H91.25 L71 -30.73 L56.25 -11.105 L45.25 -25.605 L28.875 -2.48 Z M53.875 -74.98 H66.125 L60 -80.98 L53.875 -74.98 Z"/></g><g id="Semibold-M" transform="matrix(1 0 0 1 1985.97 1126)"><path d="M26.348 17.83 Q21.06 17.83 17.391 14.161 Q13.723 10.493 13.723 5.205 V-62.029 Q13.723 -67.317 17.391 -70.985 Q21.06 -74.654 26.348 -74.654 H40.962 L60 -93.692 L79.037 -74.654 H93.653 Q98.94 -74.654 102.609 -70.985 Q106.278 -67.317 106.278 -62.029 V5.205 Q106.278 10.493 102.609 14.161 Q98.94 17.83 93.653 17.83 H26.348 Z M29.799 -4.001 H90.326 L71 -30.459 L56.25 -10.834 L45.25 -25.334 L29.799 -4.001 Z M52.462 -74.654 H67.537 L60 -82.067 L52.462 -74.654 Z"/></g><g id="Medium-M" transform="matrix(1 0 0 1 1689.91 1126)"><path d="M25.859 15.344 Q21.386 15.344 18.247 12.205 Q15.109 9.066 15.109 4.594 V-63.659 Q15.109 -68.132 18.247 -71.271 Q21.386 -74.409 25.859 -74.409 H40.84 L60 -93.57 L79.16 -74.409 H94.141 Q98.614 -74.409 101.752 -71.271 Q104.891 -68.132 104.891 -63.659 V4.594 Q104.891 9.066 101.752 12.205 Q98.614 15.344 94.141 15.344 H25.859 Z M30.491 -5.142 H89.634 L71 -30.255 L56.25 -10.63 L45.25 -25.13 L30.491 -5.142 Z M51.403 -74.409 H68.597 L60 -82.882 L51.403 -74.409 Z"/></g><g id="Regular-M" transform="matrix(1 0 0 1 1394.06 1126)"><path d="M25.5 13.52 Q21.625 13.52 18.875 10.77 Q16.125 8.02 16.125 4.145 V-64.855 Q16.125 -68.73 18.875 -71.48 Q21.625 -74.23 25.5 -74.23 H40.75 L60 -93.48 L79.25 -74.23 H94.5 Q98.375 -74.23 101.125 -71.48 Q103.875 -68.73 103.875 -64.855 V4.145 Q103.875 8.02 101.125 10.77 Q98.375 13.52 94.5 13.52 H25.5 Z M31 -5.98 H89.125 L71 -30.105 L56.25 -10.48 L45.25 -24.98 L31 -5.98 Z M50.625 -74.23 H69.375 L60 -83.48 L50.625 -74.23 Z"/></g><g id="Light-M" transform="matrix(1 0 0 1 1098.18 1126)"><path d="M26.942 11.26 Q23.38 11.26 20.895 8.775 Q18.409 6.289 18.409 2.726 V-63.389 Q18.409 -66.951 20.895 -69.436 Q23.38 -71.922 26.942 -71.922 H42.818 L60 -89.105 L77.183 -71.922 H93.058 Q96.62 -71.922 99.105 -69.436 Q101.591 -66.951 101.591 -63.389 V2.726 Q101.591 6.289 99.105 8.775 Q96.62 11.26 93.058 11.26 H26.942 Z M34.557 -7.086 H85.927 L69.99 -28.302 L56.154 -10.336 L46.356 -22.72 L34.557 -7.086 Z M50.697 -71.922 H69.302 L60 -81.124 L50.697 -71.922 Z"/></g><g id="Thin-M" transform="matrix(1 0 0 1 802.565 1126)"><path d="M28.385 9.001 Q25.135 9.001 22.914 6.78 Q20.692 4.559 20.692 1.309 V-61.922 Q20.692 -65.172 22.914 -67.394 Q25.135 -69.615 28.385 -69.615 H44.885 L60 -84.73 L75.115 -69.615 H91.615 Q94.865 -69.615 97.086 -67.394 Q99.308 -65.172 99.308 -61.922 V1.309 Q99.308 4.559 97.086 6.78 Q94.865 9.001 91.615 9.001 H28.385 Z M38.115 -8.191 H82.731 L68.981 -26.499 L56.057 -10.191 L47.461 -20.461 L38.115 -8.191 Z M50.769 -69.615 H69.231 L60 -78.769 L50.769 -69.615 Z"/></g><g id="Ultralight-M" transform="matrix(1 0 0 1 506.415 1126)"><path d="M29.25 7.645 Q26.188 7.645 24.125 5.583 Q22.062 3.52 22.062 0.458 V-61.042 Q22.062 -64.105 24.125 -66.167 Q26.188 -68.23 29.25 -68.23 H46.125 L60 -82.105 L73.875 -68.23 H90.75 Q93.812 -68.23 95.875 -66.167 Q97.938 -64.105 97.938 -61.042 V0.458 Q97.938 3.52 95.875 5.583 Q93.812 7.645 90.75 7.645 H29.25 Z M40.25 -8.855 H80.812 L68.375 -25.417 L56 -10.105 L48.125 -19.105 L40.25 -8.855 Z M50.812 -68.23 H69.188 L60 -77.355 L50.812 -68.23 Z"/></g><g id="Bold-S" transform="matrix(1 0 0 1 2294.23 696)"><path d="M22.881 7.672 Q18.147 7.672 14.942 4.467 Q11.736 1.261 11.736 -3.473 V-52.292 Q11.736 -57.026 14.942 -60.231 Q18.147 -63.437 22.881 -63.437 H29.292 L47.34 -81.485 L65.388 -63.437 H71.799 Q76.533 -63.437 79.738 -60.231 Q82.944 -57.026 82.944 -52.292 V-3.473 Q82.944 1.261 79.738 4.467 Q76.533 7.672 71.799 7.672 H22.881 Z M25.149 -9.39 H69.629 L54.244 -30.89 L43.79 -16.984 L36.886 -26.058 L25.149 -9.39 Z M37.773 -63.437 H56.907 L47.34 -72.905 L37.773 -63.437 Z"/></g><g id="Semibold-S" transform="matrix(1 0 0 1 1998.1 696)"><path d="M22.366 5.056 Q18.49 5.056 15.842 2.408 Q13.194 -0.24 13.194 -4.116 V-54.007 Q13.194 -57.884 15.842 -60.531 Q18.49 -63.179 22.366 -63.179 H29.163 L47.34 -81.357 L65.517 -63.179 H72.314 Q76.19 -63.179 78.838 -60.531 Q81.486 -57.884 81.486 -54.007 V-4.116 Q81.486 -0.24 78.838 2.408 Q76.19 5.056 72.314 5.056 H22.366 Z M25.878 -10.591 H68.9 L54.244 -30.676 L43.79 -16.77 L36.886 -25.844 L25.878 -10.591 Z M36.659 -63.179 H58.021 L47.34 -73.763 L36.659 -63.179 Z"/></g><g id="Medium-S" transform="matrix(1 0 0 1 1701.85 696)"><path d="M21.981 3.095 Q18.748 3.095 16.518 0.865 Q14.288 -1.365 14.288 -4.598 V-55.293 Q14.288 -58.527 16.518 -60.757 Q18.748 -62.986 21.981 -62.986 H29.067 L47.34 -81.26 L65.613 -62.986 H72.699 Q75.932 -62.986 78.162 -60.757 Q80.392 -58.527 80.392 -55.293 V-4.598 Q80.392 -1.365 78.162 0.865 Q75.932 3.095 72.699 3.095 H21.981 Z M26.425 -11.491 H68.354 L54.244 -30.516 L43.79 -16.61 L36.886 -25.683 L26.425 -11.491 Z M35.823 -62.986 H58.857 L47.34 -74.406 L35.823 -62.986 Z"/></g><g id="Regular-S" transform="matrix(1 0 0 1 1405.73 696)"><path d="M21.698 1.656 Q18.936 1.656 17.013 -0.267 Q15.09 -2.191 15.09 -4.952 V-56.237 Q15.09 -58.999 17.013 -60.922 Q18.936 -62.845 21.698 -62.845 H28.996 L47.34 -81.189 L65.684 -62.845 H72.983 Q75.744 -62.845 77.667 -60.922 Q79.59 -58.999 79.59 -56.237 V-4.952 Q79.59 -2.191 77.667 -0.267 Q75.744 1.656 72.983 1.656 H21.698 Z M26.826 -12.152 H67.953 L54.244 -30.397 L43.79 -16.491 L36.886 -25.565 L26.826 -12.152 Z M35.209 -62.845 H59.471 L47.34 -74.877 L35.209 -62.845 Z"/></g><g id="Light-S" transform="matrix(1 0 0 1 1109.75 696)"><path d="M22.836 -0.127 Q20.321 -0.127 18.607 -1.841 Q16.892 -3.557 16.892 -6.072 V-55.08 Q16.892 -57.595 18.607 -59.309 Q20.321 -61.024 22.836 -61.024 H30.627 L47.34 -77.737 L64.053 -61.024 H71.844 Q74.359 -61.024 76.073 -59.309 Q77.788 -57.595 77.788 -55.08 V-6.072 Q77.788 -3.557 76.073 -1.841 Q74.359 -0.127 71.844 -0.127 H22.836 Z M29.633 -13.025 H65.43 L53.447 -28.975 L43.714 -16.378 L37.759 -23.782 L29.633 -13.025 Z M35.266 -61.024 H59.414 L47.34 -73.018 L35.266 -61.024 Z"/></g><g id="Thin-S" transform="matrix(1 0 0 1 814.015 696)"><path d="M23.974 -1.91 Q21.705 -1.91 20.199 -3.416 Q18.693 -4.922 18.693 -7.19 V-53.923 Q18.693 -56.192 20.199 -57.698 Q21.705 -59.204 23.974 -59.204 H32.258 L47.34 -74.285 L62.422 -59.204 H70.706 Q72.975 -59.204 74.481 -57.698 Q75.987 -56.192 75.987 -53.923 V-7.19 Q75.987 -4.922 74.481 -3.416 Q72.975 -1.91 70.706 -1.91 H23.974 Z M32.44 -13.896 H62.908 L52.651 -27.552 L43.638 -16.263 L38.63 -21.999 L32.44 -13.896 Z M35.323 -59.204 H59.357 L47.34 -71.16 L35.323 -59.204 Z"/></g><g id="Ultralight-S" transform="matrix(1 0 0 1 517.792 696)"><path d="M24.656 -2.98 Q22.536 -2.98 21.155 -4.36 Q19.774 -5.741 19.774 -7.862 V-53.229 Q19.774 -55.349 21.155 -56.73 Q22.536 -58.111 24.656 -58.111 H33.237 L47.34 -72.214 L61.443 -58.111 H70.024 Q72.144 -58.111 73.525 -56.73 Q74.906 -55.349 74.906 -53.229 V-7.862 Q74.906 -5.741 73.525 -4.36 Q72.144 -2.98 70.024 -2.98 H24.656 Z M34.124 -14.42 H61.394 L52.173 -26.699 L43.592 -16.195 L39.154 -20.929 L34.124 -14.42 Z M35.357 -58.111 H59.323 L47.34 -70.045 L35.357 -58.111 Z"/></g></g></svg>