<svg xmlns="http://www.w3.org/2000/svg" height="20" viewBox="0 -960 960 960" width="20"><path d="M686.39-18.67 431.46-273.85l199.63-199.39-80.96-80.96 55.3-55.3 335.9 335.65L686.39-18.67ZM544.7-276.24h283.15L686.39-417.7 544.7-276.24ZM183.87-135.87v-80.61h75.46q-57.09-46.95-90.28-115.1-33.18-68.14-33.18-148.42 0-70.67 27.1-133.61 27.1-62.93 73.79-109.63 46.7-46.69 109.63-73.79 62.94-27.1 133.61-27.1 124.35 0 217.74 76.89Q791.13-670.35 816.37-553h-83.85q-23-82.76-92.88-136.64-69.88-53.88-160.64-53.88-108.76 0-185.64 76.88-76.88 76.88-76.88 185.64 0 58.65 23.11 109.26 23.11 50.61 64.28 86.61v-51.35h80.61v200.61H183.87Z"/></svg>