<svg xmlns="http://www.w3.org/2000/svg" height="20" width="20"><path d="M10 17.75Q8.396 17.75 6.99 17.135Q5.583 16.521 4.531 15.469Q3.479 14.417 2.865 13.01Q2.25 11.604 2.25 10Q2.25 8.396 2.865 6.99Q3.479 5.583 4.531 4.531Q5.583 3.479 6.99 2.865Q8.396 2.25 10 2.25Q10.354 2.25 10.698 2.271Q11.042 2.292 11.375 2.354V6.062Q11.125 5.354 10.792 4.677Q10.458 4 10 3.396Q9.396 4.25 8.969 5.146Q8.542 6.042 8.271 7H11.375V8.25H7.979Q7.917 8.729 7.885 9.156Q7.854 9.583 7.854 9.979Q7.854 10.396 7.885 10.823Q7.917 11.25 7.979 11.729H12.021Q12.104 11.125 12.135 10.74Q12.167 10.354 12.167 9.979Q12.167 9.75 12.146 9.469Q12.125 9.188 12.104 8.75H13.354Q13.375 9.188 13.396 9.479Q13.417 9.771 13.417 9.979Q13.417 10.312 13.385 10.719Q13.354 11.125 13.271 11.729H16.271Q16.396 11.333 16.448 10.896Q16.5 10.458 16.5 9.979Q16.5 9.667 16.479 9.365Q16.458 9.062 16.396 8.75H17.667Q17.708 9.042 17.729 9.354Q17.75 9.667 17.75 10Q17.75 11.604 17.135 13.01Q16.521 14.417 15.469 15.469Q14.417 16.521 13.01 17.135Q11.604 17.75 10 17.75ZM3.729 11.729H6.729Q6.667 11.25 6.635 10.812Q6.604 10.375 6.604 9.979Q6.604 9.604 6.635 9.167Q6.667 8.729 6.729 8.25H3.729Q3.604 8.75 3.552 9.188Q3.5 9.625 3.5 10Q3.5 10.375 3.552 10.802Q3.604 11.229 3.729 11.729ZM8.396 16.292Q7.958 15.646 7.573 14.771Q7.188 13.896 7 12.979H4.25Q4.875 14.25 5.969 15.094Q7.062 15.938 8.396 16.292ZM4.25 7H7Q7.208 6.083 7.583 5.24Q7.958 4.396 8.396 3.708Q7.042 4.042 5.969 4.875Q4.896 5.708 4.25 7ZM10 16.583Q10.625 15.75 11.052 14.854Q11.479 13.958 11.729 12.979H8.271Q8.542 13.958 8.958 14.833Q9.375 15.708 10 16.583ZM11.604 16.292Q12.938 15.938 14.042 15.094Q15.146 14.25 15.771 12.979H13.042Q12.792 13.854 12.406 14.729Q12.021 15.604 11.604 16.292ZM13.167 6.833V2.25H17.75V6.833ZM15.542 4.458H17.021V2.979H15.542Z"/></svg>