<svg xmlns="http://www.w3.org/2000/svg" height="40" viewBox="0 -960 960 960" width="40"><path d="M611.74-437.94 439.36-611.07l223.02-223.02q10.08-10.08 23.76-15.77 13.67-5.68 28.32-5.68 13.8 0 27.45 5.57 13.66 5.56 25.21 15.65l68.2 66.84q10.75 11.36 15.91 25.3 5.16 13.93 5.16 28.15 0 14.36-5.49 28.28-5.49 13.91-15.58 24.37L611.74-437.94ZM803.01-49.68l-290.02-289.6-235.25 235.11h-172.9v-172l235.44-235.82-290.6-291.02 51.9-51.9 753.33 753.33-51.9 51.9Zm-85.85-620.25 45.33-44.77-46.56-47.13-45.9 45.34 47.13 46.56Z"/></svg>