<svg xmlns="http://www.w3.org/2000/svg" height="24" viewBox="0 -960 960 960" width="24"><path d="M160-242v-476 231.08-4.77V-242Zm24.62 66q-38.35 0-64.48-26.14Q94-228.27 94-266.62v-426.76q0-38.35 26.14-64.48Q146.27-784 184.62-784h590.76q38.35 0 64.48 26.14Q866-731.73 866-693.38v173.46q0 13.54-9.73 23.27T833-486.92q-13.54 0-23.27-9.73T800-519.92v-173.46q0-9.24-7.69-16.93-7.69-7.69-16.93-7.69H184.62q-9.24 0-16.93 7.69-7.69 7.69-7.69 16.93v426.76q0 9.24 7.69 16.93 7.69 7.69 16.93 7.69h252.92q13.54 0 23.27 9.73t9.73 23.27q0 13.54-9.73 23.27T437.54-176H184.62Zm453.96 80.73Q592-141.85 592-208.69q0-66.85 46.58-113.43 46.57-46.57 113.42-46.57t113.42 46.57Q912-275.54 912-208.69q0 66.84-46.58 113.42Q818.85-48.69 752-48.69T638.58-95.27ZM709.19-133q9.96 0 16.93-6.86 6.96-6.86 6.96-16.52V-261q0-9.66-6.46-16.52-6.47-6.86-16.43-6.86t-16.92 6.86q-6.96 6.86-6.96 16.52v104.62q0 9.66 6.46 16.52 6.46 6.86 16.42 6.86Zm84.62 0q9.96 0 16.92-6.86 6.96-6.86 6.96-16.52V-261q0-9.66-6.46-16.52-6.46-6.86-16.42-6.86t-16.93 6.86q-6.96 6.86-6.96 16.52v104.62q0 9.66 6.46 16.52 6.47 6.86 16.43 6.86ZM481.23-288.31q20.23-68 70.5-118.61Q602-457.54 670-479q-72.77-13.92-119.65-62.08-46.89-48.15-61.85-107.77-2.06-6-8.25-6-6.19 0-8.25 6-15.38 59.69-57.8 102.54-42.43 42.85-103.05 58.31-6 .23-6 7.5 0 6.5 6.36 8.61 59.26 15.35 106.64 62.85 47.39 47.5 63.08 120.73Z"/></svg>