<svg xmlns="http://www.w3.org/2000/svg" height="40" viewBox="0 -960 960 960" width="40"><path d="M611-346v-112.667L569.333-536q-27.666 1-46 21.333Q505-494.333 505-467.333v177q0 8 2 15.333t7 14.333L592-132h235l-37-414.667q-1-8.333-4.167-16.166-3.166-7.834-9.166-14.167L561.333-837.333q-9-9.667-21.166-10-12.167-.334-20.167 10-20.667 28.333-27.5 62.166-6.833 33.834 9.833 63.5L635-465.333V-346h-24Zm-287 0v-119.333l132.667-246.334q16.666-29.666 9.833-63.5Q459.667-809 439-837.333q-8.333-10.334-20.333-10.334-12 0-20.334 10.334L182.333-577q-6 6.333-9.166 14.167Q170-555 169-546.667L132-132h235l78-128.667q5-7 7-14.333t2-15.333v-177q0-27-18.333-46.834-18.334-19.833-46-20.833L348-458.667V-346h-24Z"/></svg>