<svg xmlns="http://www.w3.org/2000/svg" height="40" width="40"><path d="M13.333 20.25H16.708V11.917H13.333ZM23.333 20.25H26.708V11.917H23.333ZM16.917 29.458H23.083V26.375Q23.083 25.125 22.188 24.208Q21.292 23.292 20 23.292Q18.708 23.292 17.812 24.188Q16.917 25.083 16.917 26.375ZM20 37.875Q16.292 37.875 12.979 36.5Q9.667 35.125 7.271 32.729Q4.875 30.333 3.5 27.021Q2.125 23.708 2.125 20Q2.125 16.25 3.479 12.979Q4.833 9.708 7.25 7.292Q9.667 4.875 12.979 3.479Q16.292 2.083 20 2.083Q23.75 2.083 27.042 3.458Q30.333 4.833 32.75 7.25Q35.167 9.667 36.542 12.958Q37.917 16.25 37.917 20Q37.917 23.75 36.521 27.042Q35.125 30.333 32.708 32.75Q30.292 35.167 27.021 36.521Q23.75 37.875 20 37.875Z"/></svg>