<svg xmlns="http://www.w3.org/2000/svg" height="48" viewBox="0 -960 960 960" width="48"><path d="M486.57-382.96q29.27 0 48.02-19.13 18.76-19.13 18.76-47.65v-200.3q0-28.53-18.76-47.66-18.75-19.13-48.02-19.13H416.7q-28.53 0-47.37 19.13-18.85 19.13-18.85 47.66V-583q0 28.52 18.85 47.65 18.84 19.13 47.37 19.13h69.87v66.48h-58.42q-14.31 0-23.99 9.65-9.68 9.65-9.68 23.92 0 14.74 9.36 23.98 9.36 9.23 23.86 9.23h58.87Zm0-200.04H416.7v-67.04h69.87V-583Zm337.95-241.52ZM679.57-521.61V-468q0 12.75 8.67 21.37 8.68 8.63 21.5 8.63 12.83 0 21.33-8.63 8.5-8.62 8.5-21.37v-53.61h73.95v-60h-73.95v-49.61q0-12.75-8.68-21.37-8.67-8.63-21.5-8.63-12.82 0-21.32 8.63-8.5 8.62-8.5 21.37v49.61h-45.09q-12.75 0-21.38 8.68-8.62 8.67-8.62 21.5 0 12.82 8.62 21.32 8.63 8.5 21.38 8.5h45.09ZM274.7-195.48q-32.51 0-55.87-23.35-23.35-23.36-23.35-55.87v-549.82q0-32.74 23.35-56.26 23.36-23.53 55.87-23.53h549.82q32.74 0 56.26 23.53 23.53 23.52 23.53 56.26v549.82q0 32.51-23.53 55.87-23.52 23.35-56.26 23.35H274.7Zm0-79.22h549.82v-549.82H274.7v549.82ZM135.48-55.69q-32.74 0-56.26-23.53-23.53-23.52-23.53-56.26v-589.43q0-16.71 11.51-28.16 11.5-11.45 28.56-11.45 17.07 0 28.39 11.45 11.33 11.45 11.33 28.16v589.43h589.43q16.71 0 28.16 11.5 11.45 11.51 11.45 28.57 0 17.06-11.45 28.39-11.45 11.33-28.16 11.33H135.48ZM274.7-824.52v549.82-549.82Z"/></svg>