<svg xmlns="http://www.w3.org/2000/svg" height="48" viewBox="0 -960 960 960" width="48"><path d="M446-408q27.47 0 47.24-19.75Q513-447.5 513-475v-159q0-27.5-19.76-47.25Q473.47-701 446-701h-31q-27.5 0-47.25 19.75T348-634v32q0 27.5 19.75 47.25T415-535h63v60q0 14-9.5 23t-22.5 9h-59q-7.73 0-12.86 5.19-5.14 5.2-5.14 12.32t5.14 12.31Q379.27-408 387-408h59Zm32-162h-63q-14 0-23-9t-9-23v-32q0-14 9-23t23-9h31q13 0 22.5 9t9.5 23v64Zm279-238 32 32q0-12-10-22t-22-10ZM651-540v62q0 6.42 3.99 10.71 4 4.29 11.2 4.29 7.21 0 11.01-3.94T681-478v-62h79v-30h-79v-61q0-5.45-3.99-10.22-4-4.78-11.2-4.78-7.21 0-11.01 4.42-3.8 4.43-3.8 10.58v61h-61q-6.42 0-10.71 3.99-4.29 4-4.29 11.2 0 7.21 3.94 11.01T590-540h61ZM313-265q-28.14 0-47.57-19.75T246-332v-444q0-27.5 19.43-47.25T313-843h444q27.5 0 47.25 19.75T824-776v444q0 27.5-19.75 47.25T757-265H313Zm0-35h444q12 0 22-10t10-22v-444q0-12-10-22t-22-10H313q-12 0-22 10t-10 22v444q0 12 10 22t22 10ZM204-156q-28.14 0-47.57-19.75T137-223v-462q0-6.75 5.18-11.88 5.17-5.12 12-5.12 6.82 0 12.32 5.12 5.5 5.13 5.5 11.88v462q0 12 10 22t22 10h461q7.17 0 12.59 5.19 5.41 5.2 5.41 12.32t-5.41 12.31Q672.17-156 665-156H204Zm77-652v508-508Z"/></svg>