<svg xmlns="http://www.w3.org/2000/svg" height="20" viewBox="0 -960 960 960" width="20"><path d="m80.33-83.93-49.68-88.79q44.24-29.24 69.98-72.26 25.74-43.02 25.74-90.06v-454.68q-14-23.24-25.74-44.98-11.74-21.73-21.98-46.45l94.55-39.92q42 99.24 123.76 160.98 81.76 61.74 183.04 61.74 101.28 0 183.04-61.74 81.76-61.74 123.76-160.98l94.55 38.92q-10.24 24.72-21.48 46.83-11.24 22.12-26.24 44.6v455.68q0 47.04 26.12 90.18 26.12 43.14 70.36 72.38l-50.44 88.55q-68.91-42.72-108.87-104.84-39.95-62.12-39.95-146.27v-348.09q-52.76 41.28-117.67 64.42-64.9 23.14-133.18 23.14t-132.57-22.52q-64.28-22.52-118.28-63.8v346.85q0 74.71-38.95 141.67-38.96 66.96-109.87 109.44Zm323.34-84.59q-53 0-89.76-36.76-36.76-36.76-36.76-89.76v-290.53l63.52 21q46.29 16 80.81 41.41Q456-497.76 480-461.48q24-36.28 58.52-61.68 34.52-25.41 80.81-41.41l63.52-21v290.53q0 53-36.76 89.76-36.76 36.76-89.76 36.76-22.29 0-41.43-6.64T480-194.33q-15.76 12.53-34.9 19.17-19.14 6.64-41.43 6.64Z"/></svg>