<svg xmlns="http://www.w3.org/2000/svg" height="48" viewBox="0 -960 960 960" width="48"><path d="M729.45-216.77q27.24 0 46.7-19 19.46-19.01 19.46-46.16 0-27.15-19.48-46.26-19.48-19.12-47-19.12-27.53 0-45.79 18.88-18.26 18.88-18.26 46.55 0 27.68 18.77 46.39 18.78 18.72 45.6 18.72Zm-.32 130.54q32.91 0 61.38-14.85 28.47-14.85 46.34-41.61-24.98-13-52.04-21.62-27.07-8.61-55.09-8.61-28.03 0-55.37 8.61-27.34 8.62-52.12 21.62 17.54 27.27 45.77 41.87 28.22 14.59 61.13 14.59ZM124-124v-711h712v376.15q-13.92-7.3-28.58-12.27-14.65-4.96-29.81-8.57v-296.92H182.39v594.22h283.53q2.04 15.97 5.73 31.08 3.7 15.12 9.73 27.31H124Zm58.39-93.33v34.94-594.22 296.92-4.62 266.98ZM282-282.62h189.61q3.62-15.77 9.16-30.11 5.54-14.35 14.61-28.27H282v58.38Zm0-167.69h320.69q15.46-9.08 31.58-15.61 16.11-6.54 35.27-9.54v-33.23H282v58.38ZM282-617h396v-58.38H282V-617ZM729.36-31.31q-76.53 0-130.72-54.26-54.18-54.26-54.18-130.27 0-76.45 54.04-131.23 54.04-54.77 131.09-54.77 76.03 0 130.53 54.77 54.49 54.78 54.49 131.23 0 76.01-54.36 130.27-54.36 54.26-130.89 54.26Z"/></svg>