<svg xmlns="http://www.w3.org/2000/svg" height="20" viewBox="0 -960 960 960" width="20"><path d="M480-79.96 359.31-200.65h241.38L480-79.96ZM124.08-288.85v-499.07h711.84v499.07H124.08Zm220.27-102.19h271.5v-58.73h-271.5v58.73ZM225.96-509.42h58.73v-58.73h-58.73v58.73Zm112.39 0h58.73v-58.73h-58.73v58.73Zm112.38 0h58.73v-58.73h-58.73v58.73Zm112.39 0h58.73v-58.73h-58.73v58.73Zm112.38 0h58.73v-58.73H675.5v58.73ZM225.96-627.81h58.73v-58.73h-58.73v58.73Zm112.39 0h58.73v-58.73h-58.73v58.73Zm112.38 0h58.73v-58.73h-58.73v58.73Zm112.39 0h58.73v-58.73h-58.73v58.73Zm112.38 0h58.73v-58.73H675.5v58.73Z"/></svg>