<svg xmlns="http://www.w3.org/2000/svg" height="48" viewBox="0 -960 960 960" width="48"><path d="M478-371Zm135 233H253q-96.34 0-164.17-67.76Q21-273.52 21-369q0-81.64 50.5-148.32Q122-584 204-597q22-100 100.13-162.5Q382.27-822 482-822q122 0 204 88t83 212v16q-26.35 2-50.28 12.62T678-468v-42q5-90-53.5-155t-146.98-65q-85.44 0-142.39 64.59-56.95 64.58-56.95 152.67h-27.93q-57.2 0-97.73 40.44Q112-431.86 112-371.69q0 57.69 40.88 100.19T253-229h360v91Zm95 0q-15.12 0-25.06-9.94T673-173v-120q0-14 12-24t28-10v-46q0-29.53 21.67-51.76 21.67-22.24 53-22.24Q818-447 840-424.76q22 22.23 22 51.76v46q16 0 28 10t12 24v120q0 15.12-10.21 25.06Q881.57-138 868-138H708Zm34-189h91v-45.72q0-18.28-13.49-31.78-13.48-13.5-31.42-13.5-19.09 0-32.59 13.66Q742-390.69 742-372.5v45.5Z"/></svg>