<svg xmlns="http://www.w3.org/2000/svg" height="40" width="40"><path d="M30.25 30.5q1.125 0 1.917-.792.791-.791.791-1.916t-.791-1.896q-.792-.771-1.917-.771-1.083 0-1.875.771t-.792 1.896q0 1.125.792 1.916.792.792 1.875.792Zm0 5.333q1.333 0 2.5-.625t1.917-1.708q-1.042-.583-2.146-.917-1.104-.333-2.271-.333-1.167 0-2.25.333-1.083.334-2.125.917.708 1.083 1.875 1.708t2.5.625Zm-22.375-.541q-1.292 0-2.229-.917-.938-.917-.938-2.208V7.917q0-1.334.938-2.25.937-.917 2.229-.917h24.25q1.292 0 2.229.917.938.916.938 2.25v13.125q-.75-.417-1.542-.709-.792-.291-1.625-.458V7.917H7.875v24.25h11.75q.125.833.375 1.625.25.791.625 1.5Zm0-4.75v1.625-24.25 11.958-.125 10.792Zm3.875-3.667q0 .583.417.979.416.396 1 .396h6.583q.167-.708.417-1.417.25-.708.625-1.333h-7.625q-.584 0-1 .396-.417.396-.417.979Zm0-6.833q0 .583.417.979.416.396 1 .396h11.541q.792-.542 1.646-.917.854-.375 1.896-.542v-.291q-.125-.417-.521-.729-.396-.313-.896-.313H13.167q-.584 0-1 .396-.417.396-.417 1.021Zm0-6.875q0 .625.417 1.021.416.395 1 .395h13.666q.584 0 1-.416.417-.417.417-1 0-.584-.417-.979-.416-.396-1-.396H13.167q-.584 0-1 .396-.417.395-.417.979ZM30.25 38.5q-3.292 0-5.646-2.354T22.25 30.5q0-3.292 2.354-5.646T30.25 22.5q3.292 0 5.646 2.354T38.25 30.5q0 3.292-2.354 5.646T30.25 38.5Z"/></svg>