<svg xmlns="http://www.w3.org/2000/svg" height="20" viewBox="0 -960 960 960" width="20"><path d="M850-228.461 500.461-578h266.924q34.846 0 58.731 23.884Q850-530.231 850-495.385v266.924ZM526-665.385v-109q0-10-7.308-17.307Q511.385-799 501.385-799H279.462l-58.001-58h279.924q34.846 0 58.731 23.884Q584-809.231 584-774.385v109h-58ZM831.462-63.461 790.923-104H458.615q-34.846 0-58.731-23.884Q376-151.769 376-186.615v-333.308l-208-209v263.308q0 10.769 6.923 17.692T192.615-441h96v58h-96q-34.846 0-58.731-23.884Q110-430.769 110-465.615v-321.308l-29.539-29.539L121-857l753 753-42.538 40.539Z"/></svg>