<svg xmlns="http://www.w3.org/2000/svg" height="20" viewBox="0 -960 960 960" width="20"><path d="M479.79-665.5q13.71 0 23.71 9.85t10 23.65v444.5q0 13.8-9.79 23.65-9.79 9.85-23.5 9.85t-23.71-9.85q-10-9.85-10-23.65V-632q0-13.8 9.79-23.65 9.79-9.85 23.5-9.85Zm-152.5 93q13.71 0 23.71 9.85T361-539v258.5q0 13.8-9.79 23.65-9.79 9.85-23.5 9.85T304-256.85q-10-9.85-10-23.65V-539q0-13.8 9.79-23.65 9.79-9.85 23.5-9.85Zm305 0q13.71 0 23.71 9.85T666-539v258.5q0 13.8-9.79 23.65-9.79 9.85-23.5 9.85T609-256.85q-10-9.85-10-23.65V-539q0-13.8 9.79-23.65 9.79-9.85 23.5-9.85ZM480-739q-48 0-87.75 21.5t-65.75 61Q301-618 262.24-596.75 223.48-575.5 179-575.5h-39.5q-13.8 0-23.65-9.79-9.85-9.79-9.85-23.5t9.85-23.71q9.85-10 23.65-10H179q28.12 0 52.06-13.25t39.44-35.75q34-53.5 89.31-84 55.3-30.5 120-30.5 64.19 0 119.69 30.5t89.5 84q15.5 22.5 39.44 35.75 23.94 13.25 52.06 13.25h40q13.8 0 23.65 9.79 9.85 9.79 9.85 23.5t-9.85 23.71q-9.85 10-23.65 10H780q-44.48 0-82.99-21.25T633-656.5q-26-39.5-66-61T480-739ZM187.71-376.5q-13.71 0-23.71-9.79t-10-23.5q0-13.71 9.79-23.71t23.5-10q13.71 0 23.71 9.79t10 23.5q0 13.71-9.79 23.71t-23.5 10Zm585 0q-13.71 0-23.71-9.79t-10-23.5q0-13.71 9.79-23.71t23.5-10q13.71 0 23.71 9.79t10 23.5q0 13.71-9.79 23.71t-23.5 10Z"/></svg>