<svg xmlns="http://www.w3.org/2000/svg" height="24" width="24"><path d="M11.975 21.8Q9.925 21.8 8.163 21.025Q6.4 20.25 5.075 18.925Q3.75 17.6 2.975 15.825Q2.2 14.05 2.2 12Q2.2 9.95 2.975 8.162Q3.75 6.375 5.075 5.05Q6.4 3.725 8.175 2.962Q9.95 2.2 12 2.2Q13.325 2.2 14.562 2.537Q15.8 2.875 16.9 3.55Q17.225 3.7 17.288 4.05Q17.35 4.4 17.125 4.75Q16.9 5 16.6 5.037Q16.3 5.075 15.95 4.925Q15.15 4.375 14.137 4.112Q13.125 3.85 12 3.85Q8.6 3.85 6.225 6.225Q3.85 8.6 3.85 12Q3.85 15.4 6.225 17.775Q8.6 20.15 12 20.15Q12.75 20.15 13.463 19.987Q14.175 19.825 14.875 19.55Q15.275 19.425 15.65 19.538Q16.025 19.65 16.1 19.95Q16.275 20.275 16.15 20.6Q16.025 20.925 15.7 21.025Q14.725 21.425 13.788 21.613Q12.85 21.8 11.975 21.8ZM9.775 15.625 7.05 12.9Q6.825 12.675 6.838 12.337Q6.85 12 7.075 11.775Q7.35 11.5 7.663 11.5Q7.975 11.5 8.25 11.775L10.55 14.1L20.1 4.575Q20.325 4.35 20.65 4.362Q20.975 4.375 21.225 4.6Q21.475 4.875 21.475 5.188Q21.475 5.5 21.225 5.775L11.35 15.625Q11 15.975 10.562 15.975Q10.125 15.975 9.775 15.625ZM20 19.825Q19.65 19.825 19.413 19.587Q19.175 19.35 19.175 19V16.825H17Q16.65 16.825 16.413 16.575Q16.175 16.325 16.175 16Q16.175 15.65 16.413 15.412Q16.65 15.175 17 15.175H19.175V13Q19.175 12.65 19.425 12.412Q19.675 12.175 20 12.175Q20.35 12.175 20.588 12.412Q20.825 12.65 20.825 13V15.175H23Q23.35 15.175 23.588 15.425Q23.825 15.675 23.825 16Q23.825 16.35 23.588 16.587Q23.35 16.825 23 16.825H20.825V19Q20.825 19.35 20.575 19.587Q20.325 19.825 20 19.825Z"/></svg>