<?xml version="1.0" standalone="no"?>
<!DOCTYPE svg PUBLIC "-//W3C//DTD SVG 1.1//EN" "http://www.w3.org/Graphics/SVG/1.1/DTD/svg11.dtd" >
<svg 
  xmlns="http://www.w3.org/2000/svg">
  <metadata></metadata>
  <defs>
    <font id="FontForge 2.0 : Material Icons : 16-11-2015" horiz-adv-x="512">
      <font-face font-family="Material Icons" font-weight="400" font-stretch="normal" units-per-em="512" panose-1="2 0 5 3 0 0 0 0 0 0" ascent="512" descent="0" x-height="0" bbox="0 -2 512 516" underline-thickness="50" underline-position="-125" unicode-range="U+0030-ffff" />
      <missing-glyph horiz-adv-x="512" d="M17 0 L17 341 L153 341 L153 0 L17 0 ZM34 17 L136 17 L136 324 L34 324 L34 17 Z" />
      <glyph glyph-name="" unicode="" d="" />
      <glyph glyph-name="" unicode="" d="" />
      <glyph glyph-name="" unicode="0" d="M0 0 L0 0 Z" />
      <glyph glyph-name="" unicode="1" d="M0 0 L0 0 Z" />
      <glyph glyph-name="" unicode="2" d="M0 0 L0 0 Z" />
      <glyph glyph-name="" unicode="3" d="M0 0 L0 0 Z" />
      <glyph glyph-name="" unicode="4" d="M0 0 L0 0 Z" />
      <glyph glyph-name="" unicode="5" d="M0 0 L0 0 Z" />
      <glyph glyph-name="" unicode="6" d="M0 0 L0 0 Z" />
      <glyph glyph-name="" unicode="7" d="M0 0 L0 0 Z" />
      <glyph glyph-name="" unicode="8" d="M0 0 L0 0 Z" />
      <glyph glyph-name="" unicode="9" d="M0 0 L0 0 Z" />
      <glyph glyph-name="" unicode="_" d="M0 0 L0 0 Z" />
      <glyph glyph-name="" unicode="a" d="M0 0 L0 0 Z" />
      <glyph glyph-name="" unicode="b" d="M0 0 L0 0 Z" />
      <glyph glyph-name="" unicode="c" d="M0 0 L0 0 Z" />
      <glyph glyph-name="" unicode="d" d="M0 0 L0 0 Z" />
      <glyph glyph-name="" unicode="e" d="M0 0 L0 0 Z" />
      <glyph glyph-name="" unicode="f" d="M0 0 L0 0 Z" />
      <glyph glyph-name="" unicode="g" d="M0 0 L0 0 Z" />
      <glyph glyph-name="" unicode="h" d="M0 0 L0 0 Z" />
      <glyph glyph-name="" unicode="i" d="M0 0 L0 0 Z" />
      <glyph glyph-name="" unicode="j" d="M0 0 L0 0 Z" />
      <glyph glyph-name="" unicode="k" d="M0 0 L0 0 Z" />
      <glyph glyph-name="" unicode="l" d="M0 0 L0 0 Z" />
      <glyph glyph-name="" unicode="m" d="M0 0 L0 0 Z" />
      <glyph glyph-name="" unicode="n" d="M0 0 L0 0 Z" />
      <glyph glyph-name="" unicode="o" d="M0 0 L0 0 Z" />
      <glyph glyph-name="" unicode="p" d="M0 0 L0 0 Z" />
      <glyph glyph-name="" unicode="q" d="M0 0 L0 0 Z" />
      <glyph glyph-name="" unicode="r" d="M0 0 L0 0 Z" />
      <glyph glyph-name="" unicode="s" d="M0 0 L0 0 Z" />
      <glyph glyph-name="" unicode="t" d="M0 0 L0 0 Z" />
      <glyph glyph-name="" unicode="u" d="M0 0 L0 0 Z" />
      <glyph glyph-name="" unicode="v" d="M0 0 L0 0 Z" />
      <glyph glyph-name="" unicode="w" d="M0 0 L0 0 Z" />
      <glyph glyph-name="" unicode="x" d="M0 0 L0 0 Z" />
      <glyph glyph-name="" unicode="y" d="M0 0 L0 0 Z" />
      <glyph glyph-name="" unicode="z" d="M0 0 L0 0 Z" />
      <glyph glyph-name="" unicode="&#xe000;" d="M277 235 L277 363 L235 363 L235 235 L277 235 ZM277 149 L277 192 L235 192 L235 149 L277 149 ZM105.5 406.5 Q168 469 256 469 Q344 469 406.5 406.5 Q469 344 469 256 Q469 168 406.5 105.5 Q344 43 256 43 Q168 43 105.5 105.5 Q43 168 43 256 Q43 344 105.5 406.5 Z" />
      <glyph glyph-name="" unicode="&#xe001;" d="M135.5 135.5 Q186 85 256 85 Q326 85 376.5 135.5 Q427 186 427 256 Q427 326 376.5 376.5 Q326 427 256 427 Q186 427 135.5 376.5 Q85 326 85 256 Q85 186 135.5 135.5 ZM105.5 406.5 Q168 469 256 469 Q344 469 406.5 406.5 Q469 344 469 256 Q469 168 406.5 105.5 Q344 43 256 43 Q168 43 105.5 105.5 Q43 168 43 256 Q43 344 105.5 406.5 ZM235 363 L277 363 L277 235 L235 235 L235 363 ZM235 192 L277 192 L277 149 L235 149 L235 192 Z" />
      <glyph glyph-name="" unicode="&#xe002;" d="M277 213 L277 299 L235 299 L235 213 L277 213 ZM277 128 L277 171 L235 171 L235 128 L277 128 ZM21 64 L256 469 L491 64 L21 64 Z" />
      <glyph glyph-name="" unicode="&#xe003;" d="M341 234 L341 277 L277 277 L277 341 L235 341 L235 277 L171 277 L171 234 L235 234 L235 170 L277 170 L277 234 L341 234 ZM403 153 L448 108 L448 85 L64 85 L64 108 L109 153 L109 277 Q109 328 141 368.5 Q173 409 222 420 L222 435 Q222 449 232 459 Q242 469 256 469 Q270 469 280 459 Q290 449 290 435 L290 420 Q339 409 371 368.5 Q403 328 403 277 L403 153 ZM214 64 L298 64 Q298 47 285.5 34 Q273 21 256 21 Q239 21 226.5 34 Q214 47 214 64 Z" />
      <glyph glyph-name="" unicode="&#xe019;" d="M241 271 Q247 277 256 277 Q265 277 271 271 Q277 265 277 256 Q277 247 271 241 Q265 235 256 235 Q247 235 241 241 Q235 247 235 256 Q235 265 241 271 ZM188 188 Q216 160 256 160 Q296 160 324 188 Q352 216 352 256 Q352 296 324 324 Q296 352 256 352 Q216 352 188 324 Q160 296 160 256 Q160 216 188 188 ZM105.5 406.5 Q168 469 256 469 Q344 469 406.5 406.5 Q469 344 469 256 Q469 168 406.5 105.5 Q344 43 256 43 Q168 43 105.5 105.5 Q43 168 43 256 Q43 344 105.5 406.5 Z" />
      <glyph glyph-name="" unicode="&#xe01b;" d="M134 241 Q128 247 128 256 Q128 265 134 271 Q140 277 149 277 Q158 277 164.5 271 Q171 265 171 256 Q171 247 164.5 241 Q158 235 149 235 Q140 235 134 241 ZM378 271 Q384 265 384 256 Q384 247 378 241 Q372 235 363 235 Q354 235 347.5 241 Q341 247 341 256 Q341 265 347.5 271 Q354 277 363 277 Q372 277 378 271 ZM235 448 L256 448 Q336 448 392 392 Q448 336 448 256 Q448 176 392 120 Q336 64 256 64 Q176 64 120 120 Q64 176 64 256 Q64 352 141 409 L141 410 L286 265 L256 235 L140 350 Q107 309 107 256 Q107 194 150.5 150.5 Q194 107 256 107 Q318 107 361.5 150.5 Q405 194 405 256 Q405 312 368 354 Q331 396 277 404 L277 363 L235 363 L235 448 ZM241 134 Q235 140 235 149 Q235 158 241 164.5 Q247 171 256 171 Q265 171 271 164.5 Q277 158 277 149 Q277 140 271 134 Q265 128 256 128 Q247 128 241 134 Z" />
      <glyph glyph-name="" unicode="&#xe01c;" d="M384 277 L384 299 Q384 308 378 314 Q372 320 363 320 L299 320 Q290 320 283.5 314 Q277 308 277 299 L277 213 Q277 204 283.5 198 Q290 192 299 192 L363 192 Q372 192 378 198 Q384 204 384 213 L384 235 L352 235 L352 224 L309 224 L309 288 L352 288 L352 277 L384 277 ZM235 277 L235 299 Q235 308 228.5 314 Q222 320 213 320 L149 320 Q140 320 134 314 Q128 308 128 299 L128 213 Q128 204 134 198 Q140 192 149 192 L213 192 Q222 192 228.5 198 Q235 204 235 213 L235 235 L203 235 L203 224 L160 224 L160 288 L203 288 L203 277 L235 277 ZM405 427 Q422 427 435 414 Q448 401 448 384 L448 128 Q448 111 435 98 Q422 85 405 85 L107 85 Q89 85 76.5 98 Q64 111 64 128 L64 384 Q64 401 76.5 414 Q89 427 107 427 L405 427 Z" />
      <glyph glyph-name="" unicode="&#xe01d;" d="M341 320 L427 320 L427 85 L341 85 L341 320 ZM85 85 L85 256 L171 256 L171 85 L85 85 ZM213 85 L213 427 L299 427 L299 85 L213 85 Z" />
      <glyph glyph-name="" unicode="&#xe01e;" d="M320 320 L320 363 L192 363 L192 149 L320 149 L320 192 L235 192 L235 235 L320 235 L320 277 L235 277 L235 320 L320 320 ZM405 448 Q422 448 435 435 Q448 422 448 405 L448 107 Q448 90 435 77 Q422 64 405 64 L107 64 Q90 64 77 77 Q64 90 64 107 L64 405 Q64 422 77 435 Q90 448 107 448 L405 448 Z" />
      <glyph glyph-name="" unicode="&#xe01f;" d="M277 384 L459 256 L277 128 L277 384 ZM85 128 L85 384 L267 256 L85 128 Z" />
      <glyph glyph-name="" unicode="&#xe020;" d="M245 256 L427 384 L427 128 L245 256 ZM235 128 L53 256 L235 384 L235 128 Z" />
      <glyph glyph-name="" unicode="&#xe021;" d="M352 320 L469 320 L469 192 L352 192 L288 256 L352 320 ZM192 160 L256 224 L320 160 L320 43 L192 43 L192 160 ZM160 320 L224 256 L160 192 L43 192 L43 320 L160 320 ZM320 352 L256 288 L192 352 L192 469 L320 469 L320 352 Z" />
      <glyph glyph-name="" unicode="&#xe023;" d="M261 282.5 Q245 298 245 320 Q245 342 261 357.5 Q277 373 299 373 Q321 373 336.5 357.5 Q352 342 352 320 Q352 298 336.5 282.5 Q321 267 299 267 Q277 267 261 282.5 ZM163 456 Q107 400 107 320 Q107 240 163 184 L133 154 Q64 223 64 320 Q64 417 133 486 L163 456 ZM363 85 Q380 85 392.5 98 Q405 111 405 128 L448 128 Q448 93 423 68 Q398 43 363 43 Q343 43 328 50 Q287 71 269 126 Q262 148 233 170 Q192 200 172 237 Q149 278 149 320 Q149 383 192.5 426 Q236 469 299 469 Q362 469 405 426 Q448 383 448 320 L405 320 Q405 365 374.5 396 Q344 427 299 427 Q254 427 223 396 Q192 365 192 320 Q192 288 209 257 Q223 230 259 203 Q299 173 310 139 Q323 101 346 89 Q354 85 363 85 Z" />
      <glyph glyph-name="" unicode="&#xe024;" d="M309 224 L309 288 L352 288 L352 224 L309 224 ZM384 213 L384 299 Q384 308 378 314 Q372 320 363 320 L299 320 Q290 320 283.5 314 Q277 308 277 299 L277 213 Q277 204 283.5 198 Q290 192 299 192 L315 192 L315 160 L347 160 L347 192 L363 192 Q372 192 378 198 Q384 204 384 213 ZM235 192 L235 320 L203 320 L203 267 L160 267 L160 320 L128 320 L128 192 L160 192 L160 235 L203 235 L203 192 L235 192 ZM405 427 Q422 427 435 414 Q448 401 448 384 L448 128 Q448 111 435 98 Q422 85 405 85 L107 85 Q89 85 76.5 98 Q64 111 64 128 L64 384 Q64 401 76.5 414 Q89 427 107 427 L405 427 Z" />
      <glyph glyph-name="" unicode="&#xe028;" d="M256 128 L256 192 L341 107 L256 21 L256 85 Q186 85 135.5 135.5 Q85 186 85 256 Q85 306 112 347 L143 316 Q128 289 128 256 Q128 203 165.5 165.5 Q203 128 256 128 ZM256 427 Q326 427 376.5 376.5 Q427 326 427 256 Q427 206 400 165 L369 196 Q384 223 384 256 Q384 309 346.5 346.5 Q309 384 256 384 L256 320 L171 405 L256 491 L256 427 Z" />
      <glyph glyph-name="" unicode="&#xe029;" d="M369 277 L405 277 Q405 223 367.5 182.5 Q330 142 277 134 L277 64 L235 64 L235 134 Q182 142 144.5 182.5 Q107 223 107 277 L143 277 Q143 230 176.5 199.5 Q210 169 256 169 Q302 169 335.5 199.5 Q369 230 369 277 ZM301 232 Q282 213 256 213 Q230 213 211 232 Q192 251 192 277 L192 405 Q192 431 211 450 Q230 469 256 469 Q282 469 301 450 Q320 431 320 405 L320 277 Q320 251 301 232 Z" />
      <glyph glyph-name="" unicode="&#xe02a;" d="M369 277 L405 277 Q405 223 367.5 182.5 Q330 142 277 134 L277 64 L235 64 L235 134 Q182 142 144.5 182.5 Q107 223 107 277 L143 277 Q143 230 176.5 199.5 Q210 169 256 169 Q302 169 335.5 199.5 Q369 230 369 277 ZM230 407 L230 275 Q230 265 237.5 257.5 Q245 250 256 250 Q266 250 273.5 257 Q281 264 281 275 L282 407 Q282 418 274 425.5 Q266 433 256 433 Q246 433 238 425.5 Q230 418 230 407 ZM301 232 Q282 213 256 213 Q230 213 211 232 Q192 251 192 277 L192 405 Q192 431 211 450 Q230 469 256 469 Q282 469 301 450 Q320 431 320 405 L320 277 Q320 251 301 232 Z" />
      <glyph glyph-name="" unicode="&#xe02b;" d="M91 448 L448 91 L421 64 L332 153 Q310 139 277 134 L277 64 L235 64 L235 134 Q182 142 144.5 182.5 Q107 223 107 277 L143 277 Q143 230 176.5 199.5 Q210 169 256 169 Q281 169 305 180 L270 215 Q262 213 256 213 Q230 213 211 232 Q192 251 192 277 L192 293 L64 421 L91 448 ZM320 274 L192 401 L192 405 Q192 431 211 450 Q230 469 256 469 Q282 469 301 450 Q320 431 320 405 L320 274 ZM405 277 Q405 240 386 207 L360 234 Q369 254 369 277 L405 277 Z" />
      <glyph glyph-name="" unicode="&#xe02c;" d="M384 427 L469 427 L469 128 Q469 111 456.5 98 Q444 85 427 85 L85 85 Q68 85 55.5 98 Q43 111 43 128 L43 384 Q43 401 55.5 414 Q68 427 85 427 L107 427 L149 341 L213 341 L171 427 L213 427 L256 341 L320 341 L277 427 L320 427 L363 341 L427 341 L384 427 Z" />
      <glyph glyph-name="" unicode="&#xe02e;" d="M405 277 L405 320 L320 320 L320 405 L277 405 L277 320 L192 320 L192 277 L277 277 L277 192 L320 192 L320 277 L405 277 ZM427 469 Q444 469 456.5 456.5 Q469 444 469 427 L469 171 Q469 154 456.5 141 Q444 128 427 128 L171 128 Q154 128 141 141 Q128 154 128 171 L128 427 Q128 444 141 456.5 Q154 469 171 469 L427 469 ZM85 384 L85 85 L384 85 L384 43 L85 43 Q68 43 55.5 55.5 Q43 68 43 85 L43 384 L85 384 Z" />
      <glyph glyph-name="" unicode="&#xe02f;" d="M405 363 L405 405 L192 405 L192 363 L405 363 ZM320 192 L320 235 L192 235 L192 192 L320 192 ZM405 277 L405 320 L192 320 L192 277 L405 277 ZM427 469 Q444 469 456.5 456.5 Q469 444 469 427 L469 171 Q469 154 456.5 141 Q444 128 427 128 L171 128 Q154 128 141 141 Q128 154 128 171 L128 427 Q128 444 141 456.5 Q154 469 171 469 L427 469 ZM85 384 L85 85 L384 85 L384 43 L85 43 Q68 43 55.5 55.5 Q43 68 43 85 L43 384 L85 384 Z" />
      <glyph glyph-name="" unicode="&#xe030;" d="M85 384 L85 85 L384 85 L384 43 L85 43 Q68 43 55.5 55.5 Q43 68 43 85 L43 384 L85 384 ZM384 363 L384 405 L299 405 L299 288 Q285 299 267 299 Q245 299 229 283 Q213 267 213 245 Q213 223 229 207.5 Q245 192 267 192 Q289 192 304.5 207.5 Q320 223 320 245 L320 363 L384 363 ZM427 469 Q444 469 456.5 456.5 Q469 444 469 427 L469 171 Q469 154 456.5 141 Q444 128 427 128 L171 128 Q154 128 141 141 Q128 154 128 171 L128 427 Q128 444 141 456.5 Q154 469 171 469 L427 469 Z" />
      <glyph glyph-name="" unicode="&#xe031;" d="M277 235 L277 363 L235 363 L235 235 L277 235 ZM277 149 L277 192 L235 192 L235 149 L277 149 ZM491 256 L439 197 L446 118 L369 101 L329 33 L256 64 L183 33 L143 100 L66 118 L73 197 L21 256 L73 316 L66 394 L143 411 L183 479 L256 448 L329 479 L369 411 L446 394 L439 315 L491 256 Z" />
      <glyph glyph-name="" unicode="&#xe033;" d="M391 151 Q427 196 427 256 Q427 326 376.5 376.5 Q326 427 256 427 Q196 427 151 391 L391 151 ZM256 85 Q316 85 361 121 L121 361 Q85 316 85 256 Q85 186 135.5 135.5 Q186 85 256 85 ZM105.5 406.5 Q168 469 256 469 Q344 469 406.5 406.5 Q469 344 469 256 Q469 168 406.5 105.5 Q344 43 256 43 Q168 43 105.5 105.5 Q43 168 43 256 Q43 344 105.5 406.5 Z" />
      <glyph glyph-name="" unicode="&#xe034;" d="M299 405 L384 405 L384 107 L299 107 L299 405 ZM128 107 L128 405 L213 405 L213 107 L128 107 Z" />
      <glyph glyph-name="" unicode="&#xe035;" d="M320 171 L320 341 L277 341 L277 171 L320 171 ZM235 171 L235 341 L192 341 L192 171 L235 171 ZM105.5 406.5 Q168 469 256 469 Q344 469 406.5 406.5 Q469 344 469 256 Q469 168 406.5 105.5 Q344 43 256 43 Q168 43 105.5 105.5 Q43 168 43 256 Q43 344 105.5 406.5 Z" />
      <glyph glyph-name="" unicode="&#xe036;" d="M277 171 L277 341 L320 341 L320 171 L277 171 ZM135.5 135.5 Q186 85 256 85 Q326 85 376.5 135.5 Q427 186 427 256 Q427 326 376.5 376.5 Q326 427 256 427 Q186 427 135.5 376.5 Q85 326 85 256 Q85 186 135.5 135.5 ZM105.5 406.5 Q168 469 256 469 Q344 469 406.5 406.5 Q469 344 469 256 Q469 168 406.5 105.5 Q344 43 256 43 Q168 43 105.5 105.5 Q43 168 43 256 Q43 344 105.5 406.5 ZM192 171 L192 341 L235 341 L235 171 L192 171 Z" />
      <glyph glyph-name="" unicode="&#xe037;" d="M171 405 L405 256 L171 107 L171 405 Z" />
      <glyph glyph-name="" unicode="&#xe038;" d="M213 160 L341 256 L213 352 L213 160 ZM105.5 406.5 Q168 469 256 469 Q344 469 406.5 406.5 Q469 344 469 256 Q469 168 406.5 105.5 Q344 43 256 43 Q168 43 105.5 105.5 Q43 168 43 256 Q43 344 105.5 406.5 Z" />
      <glyph glyph-name="" unicode="&#xe039;" d="M135.5 135.5 Q186 85 256 85 Q326 85 376.5 135.5 Q427 186 427 256 Q427 326 376.5 376.5 Q326 427 256 427 Q186 427 135.5 376.5 Q85 326 85 256 Q85 186 135.5 135.5 ZM105.5 406.5 Q168 469 256 469 Q344 469 406.5 406.5 Q469 344 469 256 Q469 168 406.5 105.5 Q344 43 256 43 Q168 43 105.5 105.5 Q43 168 43 256 Q43 344 105.5 406.5 ZM213 160 L213 352 L341 256 L213 160 Z" />
      <glyph glyph-name="" unicode="&#xe03b;" d="M43 171 L43 213 L213 213 L213 171 L43 171 ZM384 213 L469 213 L469 171 L384 171 L384 85 L341 85 L341 171 L256 171 L256 213 L341 213 L341 299 L384 299 L384 213 ZM299 384 L299 341 L43 341 L43 384 L299 384 ZM299 299 L299 256 L43 256 L43 299 L299 299 Z" />
      <glyph glyph-name="" unicode="&#xe03c;" d="M405 277 L405 320 L320 320 L320 405 L277 405 L277 320 L192 320 L192 277 L277 277 L277 192 L320 192 L320 277 L405 277 ZM427 469 Q444 469 456.5 456.5 Q469 444 469 427 L469 171 Q469 154 456.5 141 Q444 128 427 128 L171 128 Q154 128 141 141 Q128 154 128 171 L128 427 Q128 444 141 456.5 Q154 469 171 469 L427 469 ZM85 384 L85 85 L384 85 L384 43 L85 43 Q68 43 55.5 55.5 Q43 68 43 85 L43 384 L85 384 Z" />
      <glyph glyph-name="" unicode="&#xe03d;" d="M363 384 L469 384 L469 341 L405 341 L405 149 Q405 123 386 104 Q367 85 341 85 Q315 85 296 104 Q277 123 277 149 Q277 175 296 194 Q315 213 341 213 Q349 213 363 209 L363 384 ZM64 171 L64 213 L235 213 L235 171 L64 171 ZM320 299 L320 256 L64 256 L64 299 L320 299 ZM320 384 L320 341 L64 341 L64 384 L320 384 Z" />
      <glyph glyph-name="" unicode="&#xe03e;" d="M427 256 L427 341 L85 341 L85 256 L341 256 L341 299 L384 299 L384 256 L427 256 ZM104 104 Q123 85 149 85 Q175 85 194 104 Q213 123 213 149 Q213 175 194 194 Q175 213 149 213 Q123 213 104 194 Q85 175 85 149 Q85 123 104 104 ZM69 381 L339 491 L353 455 L177 384 L427 384 Q445 384 457 371.5 Q469 359 469 341 L469 85 Q469 68 457 55.5 Q445 43 427 43 L85 43 Q67 43 55 55.5 Q43 68 43 85 L43 341 Q43 371 69 381 Z" />
      <glyph glyph-name="" unicode="&#xe03f;" d="M267 149 L267 165 Q267 187 234 200 Q201 213 171 213 Q141 213 108 200 Q75 187 75 165 L75 149 L267 149 ZM204.5 332.5 Q190 347 171 347 Q152 347 137.5 332.5 Q123 318 123 299 Q123 280 137.5 265.5 Q152 251 171 251 Q190 251 204.5 265.5 Q219 280 219 299 Q219 318 204.5 332.5 ZM299 405 Q308 405 314 399 Q320 393 320 384 L320 128 Q320 119 314 113 Q308 107 299 107 L43 107 Q34 107 27.5 113 Q21 119 21 128 L21 384 Q21 393 27.5 399 Q34 405 43 405 L299 405 ZM363 107 L363 405 L405 405 L405 107 L363 107 ZM448 405 L491 405 L491 107 L448 107 L448 405 Z" />
      <glyph glyph-name="" unicode="&#xe040;" d="M363 149 L363 235 L405 235 L405 107 L149 107 L149 43 L64 128 L149 213 L149 149 L363 149 ZM149 363 L149 277 L107 277 L107 405 L363 405 L363 469 L448 384 L363 299 L363 363 L149 363 Z" />
      <glyph glyph-name="" unicode="&#xe041;" d="M277 192 L245 192 L245 277 L213 277 L213 299 L256 320 L277 320 L277 192 ZM363 149 L363 235 L405 235 L405 107 L149 107 L149 43 L64 128 L149 213 L149 149 L363 149 ZM149 363 L149 277 L107 277 L107 405 L363 405 L363 469 L448 384 L363 299 L363 363 L149 363 Z" />
      <glyph glyph-name="" unicode="&#xe042;" d="M256 405 Q327 405 377 355 Q427 305 427 235 Q427 164 376.5 114 Q326 64 256 64 Q186 64 135.5 114 Q85 164 85 235 L128 235 Q128 182 165.5 144.5 Q203 107 256 107 Q309 107 346.5 144.5 Q384 182 384 235 Q384 288 346.5 325.5 Q309 363 256 363 L256 277 L149 384 L256 491 L256 405 Z" />
      <glyph glyph-name="" unicode="&#xe043;" d="M316 226 L383 159 L427 203 L427 85 L309 85 L353 129 L286 196 L316 226 ZM309 427 L427 427 L427 309 L383 353 L115 85 L85 115 L353 383 L309 427 ZM226 316 L196 286 L85 397 L115 427 L226 316 Z" />
      <glyph glyph-name="" unicode="&#xe044;" d="M341 384 L384 384 L384 128 L341 128 L341 384 ZM128 128 L128 384 L309 256 L128 128 Z" />
      <glyph glyph-name="" unicode="&#xe045;" d="M203 256 L384 384 L384 128 L203 256 ZM128 384 L171 384 L171 128 L128 128 L128 384 Z" />
      <glyph glyph-name="" unicode="&#xe046;" d="M192 277 L192 320 L320 320 L320 282 L243 192 L320 192 L320 149 L192 149 L192 188 L269 277 L192 277 ZM150.5 129 Q194 85 256 85 Q318 85 361.5 129 Q405 173 405 235 Q405 297 361.5 340.5 Q318 384 256 384 Q194 384 150.5 340.5 Q107 297 107 235 Q107 173 150.5 129 ZM120 370.5 Q176 427 256 427 Q336 427 392 370.5 Q448 314 448 235 Q448 156 392 99.5 Q336 43 256 43 Q176 43 120 99.5 Q64 156 64 235 Q64 314 120 370.5 ZM469 390 L442 357 L344 440 L371 472 L469 390 ZM168 440 L70 358 L43 390 L141 472 L168 440 Z" />
      <glyph glyph-name="" unicode="&#xe047;" d="M128 384 L384 384 L384 128 L128 128 L128 384 Z" />
      <glyph glyph-name="" unicode="&#xe048;" d="M427 213 L427 256 L213 256 L213 213 L427 213 ZM427 128 L427 171 L341 171 L341 128 L427 128 ZM299 128 L299 171 L85 171 L85 128 L299 128 ZM85 256 L85 213 L171 213 L171 256 L85 256 ZM427 427 Q444 427 456.5 414 Q469 401 469 384 L469 128 Q469 111 456.5 98 Q444 85 427 85 L85 85 Q68 85 55.5 98 Q43 111 43 128 L43 384 Q43 401 55.5 414 Q68 427 85 427 L427 427 Z" />
      <glyph glyph-name="" unicode="&#xe049;" d="M226 286 Q239 299 256 299 Q273 299 286 286 Q299 273 299 256 Q299 239 286 226 Q273 213 256 213 Q239 213 226 226 Q213 239 213 256 Q213 273 226 286 ZM377 135 Q427 185 427 256 Q427 327 377 377 L346 346 Q384 308 384 256 Q384 202 347 165 L377 135 ZM196 196 Q221 171 256 171 Q291 171 316 196 Q341 221 341 256 Q341 291 316 316 Q291 341 256 341 Q221 341 196 316 Q171 291 171 256 Q171 221 196 196 ZM166 166 Q128 204 128 256 Q128 310 165 347 L135 377 Q85 327 85 256 Q85 185 135 135 L166 166 ZM427 427 Q444 427 456.5 414 Q469 401 469 384 L469 128 Q469 111 456.5 98 Q444 85 427 85 L85 85 Q68 85 55.5 98 Q43 111 43 128 L43 384 Q43 401 55.5 414 Q68 427 85 427 L427 427 Z" />
      <glyph glyph-name="" unicode="&#xe04a;" d="M256 203 L384 299 L256 395 L256 203 ZM427 469 Q444 469 456.5 456.5 Q469 444 469 427 L469 171 Q469 154 456.5 141 Q444 128 427 128 L171 128 Q154 128 141 141 Q128 154 128 171 L128 427 Q128 444 141 456.5 Q154 469 171 469 L427 469 ZM85 384 L85 85 L384 85 L384 43 L85 43 Q68 43 55.5 55.5 Q43 68 43 85 L43 384 L85 384 Z" />
      <glyph glyph-name="" unicode="&#xe04b;" d="M363 288 L448 373 L448 139 L363 224 L363 149 Q363 140 356.5 134 Q350 128 341 128 L85 128 Q76 128 70 134 Q64 140 64 149 L64 363 Q64 372 70 378 Q76 384 85 384 L341 384 Q350 384 356.5 378 Q363 372 363 363 L363 288 Z" />
      <glyph glyph-name="" unicode="&#xe04c;" d="M70 469 L448 91 L421 64 L353 132 Q347 128 341 128 L85 128 Q76 128 70 134 Q64 140 64 149 L64 363 Q64 372 70 378 Q76 384 85 384 L101 384 L43 442 L70 469 ZM448 373 L448 145 L209 384 L341 384 Q350 384 356.5 378 Q363 372 363 363 L363 288 L448 373 Z" />
      <glyph glyph-name="" unicode="&#xe04d;" d="M107 320 L192 320 L299 427 L299 85 L192 192 L107 192 L107 320 ZM341 342 Q395 315 395 256 Q395 197 341 170 L341 342 Z" />
      <glyph glyph-name="" unicode="&#xe04e;" d="M149 320 L235 320 L341 427 L341 85 L235 192 L149 192 L149 320 Z" />
      <glyph glyph-name="" unicode="&#xe04f;" d="M256 427 L256 337 L211 382 L256 427 ZM91 448 L448 91 L421 64 L377 108 Q340 79 299 69 L299 113 Q324 120 347 138 L256 229 L256 85 L149 192 L64 192 L64 320 L165 320 L64 421 L91 448 ZM405 256 Q405 307 375.5 346 Q346 385 299 399 L299 443 Q364 429 406 376.5 Q448 324 448 256 Q448 208 426 167 L394 200 Q405 227 405 256 ZM352 256 Q352 247 351 243 L299 295 L299 342 Q352 316 352 256 Z" />
      <glyph glyph-name="" unicode="&#xe050;" d="M299 443 Q364 429 406 376.5 Q448 324 448 256 Q448 188 406 135.5 Q364 83 299 69 L299 113 Q346 127 375.5 166 Q405 205 405 256 Q405 307 375.5 346 Q346 385 299 399 L299 443 ZM299 342 Q352 316 352 256 Q352 196 299 170 L299 342 ZM64 320 L149 320 L256 427 L256 85 L149 192 L64 192 L64 320 Z" />
      <glyph glyph-name="" unicode="&#xe051;" d="M427 128 L427 320 L341 320 L341 128 L427 128 ZM320 235 L320 320 L85 320 L85 235 L320 235 ZM320 128 L320 213 L85 213 L85 128 L320 128 ZM427 427 Q444 427 456.5 414 Q469 401 469 384 L469 128 Q469 111 456.5 98 Q444 85 427 85 L85 85 Q68 85 55.5 98 Q43 111 43 128 L43 384 Q43 401 55.5 414 Q68 427 85 427 L427 427 Z" />
      <glyph glyph-name="" unicode="&#xe052;" d="M309 224 L309 288 L352 288 L352 224 L309 224 ZM277 320 L277 192 L363 192 Q372 192 378 198 Q384 204 384 213 L384 299 Q384 308 378 314 Q372 320 363 320 L277 320 ZM235 192 L235 320 L203 320 L203 267 L160 267 L160 320 L128 320 L128 192 L160 192 L160 235 L203 235 L203 192 L235 192 ZM405 448 Q422 448 435 435 Q448 422 448 405 L448 107 Q448 90 435 77 Q422 64 405 64 L107 64 Q89 64 76.5 77 Q64 90 64 107 L64 405 Q64 422 76.5 435 Q89 448 107 448 L405 448 Z" />
      <glyph glyph-name="" unicode="&#xe053;" d="M336 168 L466 168 L466 134 L284 134 L284 161 L410 344 L285 344 L285 378 L462 378 L462 351 L336 168 ZM106 221 L189 221 L147 332 L106 221 ZM130 378 L165 378 L261 134 L222 134 L202 186 L93 186 L73 134 L34 134 L130 378 ZM219 99 L318 99 L268 49 L219 99 ZM319 413 L218 413 L268 463 L319 413 Z" />
      <glyph glyph-name="" unicode="&#xe055;" d="M448 448 Q465 448 478 435 Q491 422 491 405 L491 149 Q491 132 478 119.5 Q465 107 448 107 L363 107 L363 149 L448 149 L448 405 L64 405 L64 149 L149 149 L149 107 L64 107 Q47 107 34 119.5 Q21 132 21 149 L21 405 Q21 422 34 435 Q47 448 64 448 L448 448 ZM128 43 L256 171 L384 43 L128 43 Z" />
      <glyph glyph-name="" unicode="&#xe056;" d="M282 188 Q282 181 292 181 Q297 181 299 183 L303 188 Q305 192 305 194 L305 237 Q303 241 303 243 Q303 245 298.5 247.5 Q294 250 292 250 Q289 250 286 247 L282 243 Q279 239 279 237 L279 194 Q282 190 282 188 ZM322 209 Q322 196 320 192 L314 179 Q307 173 303 173 Q301 173 296.5 172 Q292 171 290 171 Q281 171 277 173 Q275 174 272 176 Q269 178 267 179 Q258 184 258 209 L258 224 Q258 237 260 241 L267 254 Q273 260 277 260 Q279 260 283.5 261 Q288 262 290 262 Q299 262 303 260 Q305 259 308.5 257 Q312 255 314 254 Q316 253 320 241 Q322 235 322 224 L322 209 ZM233 171 L213 171 L213 241 L192 235 L192 250 L230 262 L233 262 L233 171 ZM85 235 Q85 305 135 355 Q185 405 256 405 L256 491 L363 384 L256 277 L256 363 Q204 363 166 325.5 Q128 288 128 235 Q128 182 166 144.5 Q204 107 256 107 Q308 107 346 144.5 Q384 182 384 235 L427 235 Q427 164 376.5 114 Q326 64 256 64 Q186 64 135.5 114 Q85 164 85 235 Z" />
      <glyph glyph-name="" unicode="&#xe057;" d="M85 235 Q85 305 135 355 Q185 405 256 405 L256 491 L363 384 L256 277 L256 363 Q204 363 166 325.5 Q128 288 128 235 Q128 182 166 144.5 Q204 107 256 107 Q308 107 346 144.5 Q384 182 384 235 L427 235 Q427 164 376.5 114 Q326 64 256 64 Q186 64 135.5 114 Q85 164 85 235 ZM284 188 Q284 181 294 181 Q299 181 301 183 L305 188 Q307 192 307 194 L307 237 Q305 241 305 243 Q305 245 300.5 247.5 Q296 250 294 250 Q291 250 288 247 L284 243 Q282 239 282 237 L282 194 Q284 190 284 188 ZM326 209 Q326 196 324 192 L318 179 Q311 173 307 173 Q305 173 300.5 172 Q296 171 294 171 Q287 171 271 179 Q269 180 265 192 Q262 201 262 209 L262 224 Q262 235 265 241 L271 254 Q278 260 282 260 Q284 260 288 261 Q292 262 294 262 Q303 262 307 260 Q309 259 312.5 257 Q316 255 318 254 Q320 253 324 241 Q326 235 326 224 L326 209 ZM213 224 Q228 224 228 237 L228 241 Q226 243 226 245 Q226 247 222 247 L211 247 Q209 245 207 245 Q205 245 205 241 L205 237 L183 237 Q183 245 188.5 252.5 Q194 260 201 260 Q202 260 206 261 Q210 262 211 262 Q223 262 235 256 Q243 252 243 237 L243 230 Q241 226 241 224 Q241 220 237 220 Q235 220 230 215 Q239 210 241 207 Q245 199 245 194 Q245 185 243 183 Q242 182 240 179 Q238 176 237 175 Q233 171 226 171 Q224 171 219.5 170 Q215 169 213 169 Q205 169 203 171 Q202 172 198 173 Q194 174 192 175 Q183 180 183 196 L201 196 L201 192 Q203 190 203 188 Q203 186 207 186 L218 186 Q220 188 222 188 Q224 188 224 192 L224 203 Q222 205 222 207 Q222 209 218 209 L205 209 L205 224 L213 224 Z" />
      <glyph glyph-name="" unicode="&#xe058;" d="M250 222 Q243 219 243 218 L241 215 L228 215 L233 262 L284 262 L284 247 L247 247 L245 228 Q247 228 247 230 Q247 231 248.5 231.5 Q250 232 250 233 L254 233 L258 233 Q266 233 269 230 Q270 229 273 227 Q276 225 277 224 Q286 215 286 201 Q286 192 284 190 Q283 189 281 185 Q279 181 277 179 Q269 171 254 171 Q245 171 243 173 Q242 174 238.5 175 Q235 176 233 177 Q224 182 224 196 L241 196 Q241 186 254 186 Q258 186 260 188 L265 192 Q267 196 267 198 L267 211 L265 215 L260 220 Q256 222 254 222 L250 222 ZM85 235 Q85 305 135 355 Q185 405 256 405 L256 491 L363 384 L256 277 L256 363 Q204 363 166 325.5 Q128 288 128 235 Q128 182 166 144.5 Q204 107 256 107 Q308 107 346 144.5 Q384 182 384 235 L427 235 Q427 164 376.5 114 Q326 64 256 64 Q186 64 135.5 114 Q85 164 85 235 Z" />
      <glyph glyph-name="" unicode="&#xe059;" d="M282 188 Q282 181 292 181 Q297 181 299 183 L303 188 Q305 192 305 194 L305 237 Q303 241 303 243 Q303 245 298.5 247.5 Q294 250 292 250 Q289 250 286 247 L282 243 Q279 239 279 237 L279 194 Q282 190 282 188 ZM324 209 Q324 196 322 192 L316 179 Q309 173 305 173 Q303 173 298.5 172 Q294 171 292 171 Q283 171 279 173 Q277 174 274 176 Q271 178 269 179 Q260 184 260 209 L260 224 Q260 237 262 241 L269 254 Q275 260 279 260 Q281 260 285.5 261 Q290 262 292 262 Q301 262 305 260 Q307 259 310.5 257 Q314 255 316 254 Q318 253 322 241 Q324 235 324 224 L324 209 ZM233 171 L213 171 L213 241 L192 235 L192 250 L230 262 L233 262 L233 171 ZM256 405 Q327 405 377 355 Q427 305 427 235 Q427 164 376.5 114 Q326 64 256 64 Q186 64 135.5 114 Q85 164 85 235 L128 235 Q128 182 166 144.5 Q204 107 256 107 Q308 107 346 144.5 Q384 182 384 235 Q384 288 346 325.5 Q308 363 256 363 L256 277 L149 384 L256 491 L256 405 Z" />
      <glyph glyph-name="" unicode="&#xe05a;" d="M286 188 Q286 181 297 181 Q301 181 303 183 L307 188 Q309 192 309 194 L309 237 Q309 238 308 240 Q307 242 307 243 Q307 245 303 247.5 Q299 250 297 250 Q293 250 290 247 L286 243 Q284 239 284 237 L284 194 Q286 190 286 188 ZM326 209 Q326 196 324 192 L318 179 Q311 173 307 173 Q305 173 300.5 172 Q296 171 294 171 Q287 171 271 179 Q269 180 265 192 Q262 201 262 209 L262 224 Q262 235 265 241 L271 254 Q278 260 282 260 Q284 260 288 261 Q292 262 294 262 Q303 262 307 260 Q309 259 312.5 257 Q316 255 318 254 Q320 253 324 241 Q326 235 326 224 L326 209 ZM213 224 Q228 224 228 237 L228 241 Q226 243 226 245 Q226 247 222 247 L211 247 Q209 245 207 245 Q205 245 205 241 L205 237 L183 237 Q183 245 188.5 252.5 Q194 260 201 260 Q202 260 206 261 Q210 262 211 262 Q223 262 235 256 Q243 252 243 237 L243 230 Q241 226 241 224 Q241 220 237 220 Q235 220 230 215 Q239 210 241 207 Q245 199 245 194 Q245 185 243 183 Q242 182 240 179 Q238 176 237 175 Q233 171 226 171 Q224 171 219.5 170 Q215 169 213 169 Q205 169 203 171 Q202 172 198 173 Q194 174 192 175 Q183 180 183 196 L201 196 L201 192 Q203 190 203 188 Q203 186 207 186 L218 186 Q220 188 222 188 Q224 188 224 192 L224 203 Q222 205 222 207 Q222 209 218 209 L205 209 L205 224 L213 224 ZM256 405 Q327 405 377 355 Q427 305 427 235 Q427 164 376.5 114 Q326 64 256 64 Q186 64 135.5 114 Q85 164 85 235 L128 235 Q128 182 166 144.5 Q204 107 256 107 Q308 107 346 144.5 Q384 182 384 235 Q384 288 346 325.5 Q308 363 256 363 L256 277 L149 384 L256 491 L256 405 Z" />
      <glyph glyph-name="" unicode="&#xe05b;" d="M252 222 Q245 219 245 218 L243 215 L228 215 L233 262 L284 262 L284 247 L247 247 L245 228 Q247 228 247 230 Q247 231 248.5 231.5 Q250 232 250 233 L254 233 L258 233 Q266 233 269 230 Q270 229 273 227 Q276 225 277 224 Q286 215 286 201 Q286 192 284 190 Q283 189 281 185 Q279 181 277 179 Q275 177 272.5 175.5 Q270 174 269 173 Q267 171 256 171 Q247 171 245 173 Q244 174 240.5 175 Q237 176 235 177 Q226 182 226 196 L243 196 Q243 186 256 186 Q260 186 262 188 L267 192 Q269 196 269 198 L269 211 L267 215 L262 220 Q258 222 256 222 L252 222 ZM256 405 Q327 405 377 355 Q427 305 427 235 Q427 164 376.5 114 Q326 64 256 64 Q186 64 135.5 114 Q85 164 85 235 L128 235 Q128 182 166 144.5 Q204 107 256 107 Q308 107 346 144.5 Q384 182 384 235 Q384 288 346 325.5 Q308 363 256 363 L256 277 L149 384 L256 491 L256 405 Z" />
      <glyph glyph-name="" unicode="&#xe05c;" d="M341 299 L341 256 L277 256 L277 192 L235 192 L235 256 L171 256 L171 299 L235 299 L235 363 L277 363 L277 299 L341 299 ZM448 149 L448 405 L64 405 L64 149 L448 149 ZM448 448 Q465 448 478 435.5 Q491 423 491 405 L490 149 Q490 132 477.5 119.5 Q465 107 448 107 L341 107 L341 64 L171 64 L171 107 L64 107 Q46 107 33.5 119.5 Q21 132 21 149 L21 405 Q21 423 33.5 435.5 Q46 448 64 448 L448 448 Z" />
      <glyph glyph-name="" unicode="&#xe05d;" d="M448 267 L448 288 Q448 302 439 311 Q430 320 416 320 L341 320 L341 192 L373 192 L373 235 L398 235 L416 192 L448 192 L429 237 Q448 246 448 267 ZM269 192 L307 320 L275 320 L253 247 L232 320 L200 320 L237 192 L269 192 ZM171 224 L171 288 Q171 302 161.5 311 Q152 320 139 320 L64 320 L64 192 L139 192 Q152 192 161.5 201 Q171 210 171 224 ZM448 448 Q466 448 478.5 435.5 Q491 423 491 405 L491 107 Q491 90 478.5 77 Q466 64 448 64 L64 64 Q46 64 33.5 77 Q21 90 21 107 L21 405 Q21 423 33.5 435.5 Q46 448 64 448 L448 448 ZM96 288 L139 288 L139 224 L96 224 L96 288 ZM373 288 L416 288 L416 267 L373 267 L373 288 Z" />
      <glyph glyph-name="" unicode="&#xe05e;" d="M437 213 L437 320 L411 320 L411 224 L387 224 L387 299 L360 299 L360 224 L336 224 L336 320 L309 320 L309 213 Q309 204 315.5 198 Q322 192 331 192 L416 192 Q425 192 431 198 Q437 204 437 213 ZM288 293 L288 320 L203 320 L203 192 L288 192 L288 219 L235 219 L235 242 L288 242 L288 269 L235 269 L235 293 L288 293 ZM181 192 L181 320 L155 320 L155 245 L101 320 L75 320 L75 192 L101 192 L101 267 L156 192 L181 192 ZM427 427 Q445 427 457 414.5 Q469 402 469 384 L469 128 Q469 110 457 97.5 Q445 85 427 85 L85 85 Q67 85 55 97.5 Q43 110 43 128 L43 384 Q43 402 55 414.5 Q67 427 85 427 L427 427 Z" />
      <glyph glyph-name="" unicode="&#xe05f;" d="M363 235 L469 171 L363 107 L363 235 ZM43 192 L43 235 L320 235 L320 192 L43 192 ZM405 405 L405 363 L43 363 L43 405 L405 405 ZM405 320 L405 277 L43 277 L43 320 L405 320 Z" />
      <glyph glyph-name="" unicode="&#xe060;" d="M224 192 L176 256 L139 208 L112 240 L75 192 L224 192 ZM256 320 L256 192 Q256 175 243 162 Q230 149 213 149 L85 149 Q68 149 55.5 162 Q43 175 43 192 L43 320 Q43 337 55.5 350 Q68 363 85 363 L213 363 Q230 363 243 350 Q256 337 256 320 ZM299 149 L299 192 L469 192 L469 149 L299 149 ZM469 363 L469 320 L299 320 L299 363 L469 363 ZM469 235 L299 235 L299 277 L469 277 L469 235 Z" />
      <glyph glyph-name="" unicode="&#xe061;" d="M135.5 135.5 Q85 186 85 256 Q85 326 135.5 376.5 Q186 427 256 427 Q326 427 376.5 376.5 Q427 326 427 256 Q427 186 376.5 135.5 Q326 85 256 85 Q186 85 135.5 135.5 Z" />
      <glyph glyph-name="" unicode="&#xe062;" d="M363 421 Q419 407 455 361 Q491 315 491 256 Q491 197 455 151 Q419 105 363 91 L363 135 Q401 148 424.5 181 Q448 214 448 256 Q448 298 424.5 331 Q401 364 363 377 L363 421 ZM71.5 135.5 Q21 186 21 256 Q21 326 71.5 376.5 Q122 427 192 427 Q262 427 312.5 376.5 Q363 326 363 256 Q363 186 312.5 135.5 Q262 85 192 85 Q122 85 71.5 135.5 Z" />
      <glyph glyph-name="" unicode="&#xe063;" d="M190 147 Q171 166 171 192 Q171 218 190 237 Q209 256 235 256 Q242 256 256 252 L256 384 L363 384 L363 341 L299 341 L299 191 Q299 165 280 146.5 Q261 128 235 128 Q209 128 190 147 ZM448 107 L448 405 L64 405 L64 107 L448 107 ZM448 448 Q465 448 478 435 Q491 422 491 405 L491 107 Q491 90 478 77 Q465 64 448 64 L64 64 Q47 64 34 77 Q21 90 21 107 L21 405 Q21 422 34 435 Q47 448 64 448 L448 448 Z" />
      <glyph glyph-name="" unicode="&#xe064;" d="M341 171 L213 240 L213 101 L341 171 ZM469 256 L469 85 Q469 68 456.5 55.5 Q444 43 427 43 L85 43 Q68 43 55.5 55.5 Q43 68 43 85 L43 256 Q43 273 55.5 286 Q68 299 85 299 L427 299 Q444 299 456.5 286 Q469 273 469 256 ZM384 469 L384 427 L128 427 L128 469 L384 469 ZM427 341 L85 341 L85 384 L427 384 L427 341 Z" />
      <glyph glyph-name="" unicode="&#xe065;" d="M459 267 L491 235 L342 85 L245 181 L277 213 L342 149 L459 267 ZM43 171 L43 213 L213 213 L213 171 L43 171 ZM299 384 L299 341 L43 341 L43 384 L299 384 ZM299 299 L299 256 L43 256 L43 299 L299 299 Z" />
      <glyph glyph-name="" unicode="&#xe066;" d="M512 128 L416 32 L384 64 L448 128 L384 192 L416 224 L512 128 ZM277 299 L341 299 L341 256 L277 256 L277 192 L235 192 L235 256 L171 256 L171 299 L235 299 L235 363 L277 363 L277 299 ZM448 448 Q465 448 478 435.5 Q491 423 491 405 L491 235 L448 235 L448 405 L64 405 L64 149 L384 149 L384 107 L341 107 L341 64 L171 64 L171 107 L64 107 Q46 107 33.5 119.5 Q21 132 21 149 L21 405 Q21 423 33.5 435.5 Q46 448 64 448 L448 448 Z" />
      <glyph glyph-name="" unicode="&#xe067;" d="M341 299 L341 256 L171 256 L171 299 L341 299 ZM448 149 L448 405 L64 405 L64 149 L448 149 ZM448 448 Q465 448 478 435.5 Q491 423 491 405 L490 149 Q490 132 477.5 119.5 Q465 107 448 107 L341 107 L341 64 L171 64 L171 107 L64 107 Q46 107 33.5 119.5 Q21 132 21 149 L21 405 Q21 423 33.5 435.5 Q46 448 64 448 L448 448 Z" />
      <glyph glyph-name="" unicode="&#xe068;" d="M414 399 Q469 338 469 256 Q469 174 414 113 Q359 52 278 44 L278 87 Q341 95 384 143.5 Q427 192 427 256 Q427 320 384 368.5 Q341 417 278 425 L278 468 Q359 460 414 399 ZM121 91 L151 121 Q188 93 235 87 L235 44 Q172 50 121 91 ZM87 235 Q93 188 121 152 L91 121 Q50 172 44 235 L87 235 ZM121 361 Q93 324 87 277 L44 277 Q50 340 91 391 L121 361 ZM235 425 Q188 419 151 391 L121 421 Q172 462 235 468 L235 425 ZM278 303 L341 256 Q278 209 213 160 L278 303 Z" />
      <glyph glyph-name="" unicode="&#xe069;" d="M405 128 L405 341 L107 341 L107 128 L405 128 ZM405 427 Q423 427 435.5 414 Q448 401 448 384 L448 128 Q448 111 435 98 Q422 85 405 85 L107 85 Q89 85 76.5 98 Q64 111 64 128 L64 384 Q64 401 76.5 414 Q89 427 107 427 L405 427 Z" />
      <glyph glyph-name="" unicode="&#xe06a;" d="M427 192 L427 320 L400 320 L400 245 L347 320 L320 320 L320 192 L347 192 L347 267 L401 192 L427 192 ZM267 192 L267 320 L235 320 L235 192 L267 192 ZM192 267 L192 288 Q192 302 183 311 Q174 320 160 320 L85 320 L85 192 L117 192 L117 235 L160 235 Q174 235 183 244.5 Q192 254 192 267 ZM427 427 Q445 427 457 414.5 Q469 402 469 384 L469 128 Q469 110 457 97.5 Q445 85 427 85 L85 85 Q67 85 55 97.5 Q43 110 43 128 L43 384 Q43 402 55 414.5 Q67 427 85 427 L427 427 ZM117 288 L160 288 L160 267 L117 267 L117 288 Z" />
      <glyph glyph-name="" unicode="&#xe0af;" d="M384 192 L384 149 L341 149 L341 192 L384 192 ZM384 277 L384 235 L341 235 L341 277 L384 277 ZM427 107 L427 320 L256 320 L256 277 L299 277 L299 235 L256 235 L256 192 L299 192 L299 149 L256 149 L256 107 L427 107 ZM213 363 L213 405 L171 405 L171 363 L213 363 ZM213 277 L213 320 L171 320 L171 277 L213 277 ZM213 192 L213 235 L171 235 L171 192 L213 192 ZM213 107 L213 149 L171 149 L171 107 L213 107 ZM128 363 L128 405 L85 405 L85 363 L128 363 ZM128 277 L128 320 L85 320 L85 277 L128 277 ZM128 192 L128 235 L85 235 L85 192 L128 192 ZM128 107 L128 149 L85 149 L85 107 L128 107 ZM256 363 L469 363 L469 64 L43 64 L43 448 L256 448 L256 363 Z" />
      <glyph glyph-name="" unicode="&#xe0b0;" d="M141 282 Q189 189 282 141 L329 188 Q339 198 351 193 Q387 181 427 181 Q436 181 442 175 Q448 169 448 160 L448 85 Q448 76 442 70 Q436 64 427 64 Q277 64 170.5 170.5 Q64 277 64 427 Q64 436 70 442 Q76 448 85 448 L160 448 Q169 448 175 442 Q181 436 181 427 Q181 387 193 351 Q197 338 188 329 L141 282 Z" />
      <glyph glyph-name="" unicode="&#xe0b1;" d="M256 320 Q204 320 158 305 L158 239 Q158 224 146 219 Q114 204 89 180 Q83 174 74 174 Q65 174 59 180 L6 233 Q0 239 0 248 Q0 257 6 263 Q111 363 256 363 Q401 363 506 263 Q512 257 512 248 Q512 239 506 233 L453 180 Q447 174 438 174 Q429 174 423 180 Q398 204 366 219 Q354 224 354 238 L354 304 Q304 320 256 320 Z" />
      <glyph glyph-name="" unicode="&#xe0b2;" d="M192 405 L405 405 L405 192 L363 192 L363 333 L115 85 L85 115 L333 363 L192 363 L192 405 Z" />
      <glyph glyph-name="" unicode="&#xe0b3;" d="M160 341 L256 437 L352 341 L277 341 L277 205 L149 77 L119 107 L235 222 L235 341 L160 341 ZM363 77 L290 149 L320 179 L393 107 L363 77 Z" />
      <glyph glyph-name="" unicode="&#xe0b4;" d="M418 363 L448 333 L256 141 L107 290 L107 192 L64 192 L64 363 L235 363 L235 320 L137 320 L256 201 L418 363 Z" />
      <glyph glyph-name="" unicode="&#xe0b5;" d="M427 397 L179 149 L320 149 L320 107 L107 107 L107 320 L149 320 L149 179 L397 427 L427 397 Z" />
      <glyph glyph-name="" unicode="&#xe0b6;" d="M213 427 L164 378 L277 265 L277 85 L235 85 L235 247 L134 348 L85 299 L85 427 L213 427 ZM299 427 L427 427 L427 299 L378 348 L316 286 L286 316 L348 378 L299 427 Z" />
      <glyph glyph-name="" unicode="&#xe0b7;" d="M384 341 L384 384 L128 384 L128 341 L384 341 ZM299 213 L299 256 L128 256 L128 213 L299 213 ZM128 320 L128 277 L384 277 L384 320 L128 320 ZM427 469 Q444 469 456.5 456.5 Q469 444 469 427 L469 171 Q469 154 456.5 141 Q444 128 427 128 L128 128 L43 43 L43 427 Q43 444 55.5 456.5 Q68 469 85 469 L427 469 Z" />
      <glyph glyph-name="" unicode="&#xe0b8;" d="M149 363 L448 363 L448 320 L149 320 L149 363 ZM64 149 L64 192 L363 192 L363 149 L64 149 ZM107 235 L107 277 L405 277 L405 235 L107 235 Z" />
      <glyph glyph-name="" unicode="&#xe0b9;" d="M384 341 L384 384 L128 384 L128 341 L384 341 ZM384 277 L384 320 L128 320 L128 277 L384 277 ZM384 213 L384 256 L128 256 L128 213 L384 213 ZM469 427 L469 43 L384 128 L85 128 Q68 128 55.5 141 Q43 154 43 171 L43 427 Q43 444 55.5 456.5 Q68 469 85 469 L427 469 Q444 469 456.5 456.5 Q469 444 469 427 Z" />
      <glyph glyph-name="" unicode="&#xe0ba;" d="M363 149 L363 181 Q363 205 326.5 220 Q290 235 256 235 Q222 235 185.5 220 Q149 205 149 181 L149 149 L363 149 ZM290 354 Q276 368 256 368 Q236 368 222 354 Q208 340 208 320 Q208 300 222 286 Q236 272 256 272 Q276 272 290 286 Q304 300 304 320 Q304 340 290 354 ZM427 427 Q444 427 456.5 414 Q469 401 469 384 L469 128 Q469 111 456.5 98 Q444 85 427 85 L85 85 Q68 85 55.5 98 Q43 111 43 128 L43 384 Q43 401 55.5 414 Q68 427 85 427 L427 427 ZM85 0 L85 43 L427 43 L427 0 L85 0 ZM427 512 L427 469 L85 469 L85 512 L427 512 Z" />
      <glyph glyph-name="" unicode="&#xe0bb;" d="M427 181 Q436 181 442 175 Q448 169 448 160 L448 85 Q448 76 442 70 Q436 64 427 64 Q277 64 170.5 170.5 Q64 277 64 427 Q64 436 70 442 Q76 448 85 448 L160 448 Q169 448 175 442 Q181 436 181 427 Q181 387 193 351 Q197 338 188 329 L141 282 Q188 190 282 141 L329 188 Q338 197 351 193 Q387 181 427 181 ZM427 405 L427 427 L405 427 L405 405 L427 405 ZM384 448 L448 448 L448 384 L405 384 L405 341 L384 341 L384 448 ZM320 405 L320 341 L256 341 L256 363 L299 363 L299 384 L256 384 L256 448 L320 448 L320 427 L277 427 L277 405 L320 405 ZM363 448 L363 341 L341 341 L341 448 L363 448 Z" />
      <glyph glyph-name="" unicode="&#xe0bc;" d="M226 478 Q239 491 256 491 Q273 491 286 478 Q299 465 299 448 Q299 431 286 418 Q273 405 256 405 Q239 405 226 418 Q213 431 213 448 Q213 465 226 478 ZM226 350 Q239 363 256 363 Q273 363 286 350 Q299 337 299 320 Q299 303 286 290 Q273 277 256 277 Q239 277 226 290 Q213 303 213 320 Q213 337 226 350 ZM354 350 Q367 363 384 363 Q401 363 414 350 Q427 337 427 320 Q427 303 414 290 Q401 277 384 277 Q367 277 354 290 Q341 303 341 320 Q341 337 354 350 ZM354 222 Q367 235 384 235 Q401 235 414 222 Q427 209 427 192 Q427 175 414 162 Q401 149 384 149 Q367 149 354 162 Q341 175 341 192 Q341 209 354 222 ZM226 222 Q239 235 256 235 Q273 235 286 222 Q299 209 299 192 Q299 175 286 162 Q273 149 256 149 Q239 149 226 162 Q213 175 213 192 Q213 209 226 222 ZM414 418 Q401 405 384 405 Q367 405 354 418 Q341 431 341 448 Q341 465 354 478 Q367 491 384 491 Q401 491 414 478 Q427 465 427 448 Q427 431 414 418 ZM98 222 Q111 235 128 235 Q145 235 158 222 Q171 209 171 192 Q171 175 158 162 Q145 149 128 149 Q111 149 98 162 Q85 175 85 192 Q85 209 98 222 ZM98 350 Q111 363 128 363 Q145 363 158 350 Q171 337 171 320 Q171 303 158 290 Q145 277 128 277 Q111 277 98 290 Q85 303 85 320 Q85 337 98 350 ZM98 478 Q111 491 128 491 Q145 491 158 478 Q171 465 171 448 Q171 431 158 418 Q145 405 128 405 Q111 405 98 418 Q85 431 85 448 Q85 465 98 478 ZM226 94 Q239 107 256 107 Q273 107 286 94 Q299 81 299 64 Q299 47 286 34 Q273 21 256 21 Q239 21 226 34 Q213 47 213 64 Q213 81 226 94 Z" />
      <glyph glyph-name="" unicode="&#xe0be;" d="M427 341 L427 384 L256 277 L85 384 L85 341 L256 235 L427 341 ZM427 427 Q444 427 456.5 414 Q469 401 469 384 L469 128 Q469 111 456.5 98 Q444 85 427 85 L85 85 Q68 85 55.5 98 Q43 111 43 128 L43 384 Q43 401 55.5 414 Q68 427 85 427 L427 427 Z" />
      <glyph glyph-name="" unicode="&#xe0bf;" d="M363 256 Q363 247 356.5 241 Q350 235 341 235 L128 235 L43 149 L43 448 Q43 457 49 463 Q55 469 64 469 L341 469 Q350 469 356.5 463 Q363 457 363 448 L363 256 ZM448 384 Q457 384 463 378 Q469 372 469 363 L469 43 L384 128 L149 128 Q140 128 134 134 Q128 140 128 149 L128 192 L405 192 L405 384 L448 384 Z" />
      <glyph glyph-name="" unicode="&#xe0c3;" d="M341 149 L405 149 L320 64 L235 149 L299 149 L299 299 L341 299 L341 149 ZM192 448 L277 363 L213 363 L213 213 L171 213 L171 363 L107 363 L192 448 Z" />
      <glyph glyph-name="" unicode="&#xe0c4;" d="M256 403 L207 355 L177 385 L256 464 L377 343 Q415 305 424 251.5 Q433 198 411 151 L256 305 L256 403 ZM256 94 L256 197 L154 299 Q128 265 128 222 Q128 170 166 132 Q204 94 256 94 ZM441 67 L448 59 L421 32 L363 90 Q316 52 256 52 Q185 52 135 102 Q89 149 85.5 214.5 Q82 280 123 330 L64 389 L91 416 Q390 117 441 67 Z" />
      <glyph glyph-name="" unicode="&#xe0c6;" d="M321 293 Q341 313 341 341 Q341 376 316 401.5 Q291 427 256 427 Q221 427 196 401.5 Q171 376 171 341 L213 341 Q213 358 226 371 Q239 384 256 384 Q273 384 286 371 Q299 358 299 341 Q299 324 286 311 L260 284 Q235 257 235 224 L235 213 L277 213 Q277 247 302 274 L321 293 ZM277 128 L277 171 L235 171 L235 128 L277 128 ZM405 469 Q422 469 435 456.5 Q448 444 448 427 L448 128 Q448 111 435 98 Q422 85 405 85 L320 85 L256 21 L192 85 L107 85 Q89 85 76.5 98 Q64 111 64 128 L64 427 Q64 444 76.5 456.5 Q89 469 107 469 L405 469 Z" />
      <glyph glyph-name="" unicode="&#xe0c7;" d="M250 267 Q359 159 427 91 L400 64 L328 135 Q312 111 294 88 Q276 65 266 54 L256 43 Q250 50 240 61.5 Q230 73 204 107.5 Q178 142 158.5 174.5 Q139 207 123 248 Q107 289 107 320 Q107 331 111 353 L43 421 L70 448 L248 270 L250 267 ZM256 373 Q233 373 217 355 L148 423 Q192 469 256 469 Q318 469 361.5 425.5 Q405 382 405 320 Q405 272 369 203 L292 281 Q309 296 309 320 Q309 342 293.5 357.5 Q278 373 256 373 Z" />
      <glyph glyph-name="" unicode="&#xe0c8;" d="M218.5 282.5 Q234 267 256 267 Q278 267 293.5 282.5 Q309 298 309 320 Q309 342 293.5 357.5 Q278 373 256 373 Q234 373 218.5 357.5 Q203 342 203 320 Q203 298 218.5 282.5 ZM150.5 425.5 Q194 469 256 469 Q318 469 361.5 425.5 Q405 382 405 320 Q405 289 389.5 249 Q374 209 352 174 Q330 139 308.5 108.5 Q287 78 272 60 L256 43 Q250 50 240 61.5 Q230 73 204 107.5 Q178 142 158.5 174.5 Q139 207 123 248 Q107 289 107 320 Q107 382 150.5 425.5 Z" />
      <glyph glyph-name="" unicode="&#xe0c9;" d="M384 341 L384 384 L128 384 L128 341 L384 341 ZM384 277 L384 320 L128 320 L128 277 L384 277 ZM384 213 L384 256 L128 256 L128 213 L384 213 ZM427 469 Q444 469 456.5 456.5 Q469 444 469 427 L469 171 Q469 154 456.5 141 Q444 128 427 128 L128 128 L43 43 L43 427 Q43 444 55.5 456.5 Q68 469 85 469 L427 469 Z" />
      <glyph glyph-name="" unicode="&#xe0ca;" d="M427 469 Q444 469 456.5 456.5 Q469 444 469 427 L469 171 Q469 154 456.5 141 Q444 128 427 128 L128 128 L43 43 L43 427 Q43 444 55.5 456.5 Q68 469 85 469 L427 469 Z" />
      <glyph glyph-name="" unicode="&#xe0cb;" d="M427 171 L427 427 L85 427 L85 128 L128 171 L427 171 ZM427 469 Q444 469 456.5 456.5 Q469 444 469 427 L469 171 Q469 154 456.5 141 Q444 128 427 128 L128 128 L43 43 L43 427 Q43 444 55.5 456.5 Q68 469 85 469 L427 469 Z" />
      <glyph glyph-name="" unicode="&#xe0cc;" d="M78 429 L451 57 L423 29 L383 70 Q371 64 363 64 L149 64 Q132 64 119.5 77 Q107 90 107 107 L107 346 L51 402 L78 429 ZM405 405 L405 156 L163 398 L213 448 L363 448 Q380 448 392.5 435 Q405 422 405 405 Z" />
      <glyph glyph-name="" unicode="&#xe0cd;" d="M141 282 Q189 189 282 141 L329 188 Q339 198 351 193 Q387 181 427 181 Q436 181 442 175 Q448 169 448 160 L448 85 Q448 76 442 70 Q436 64 427 64 Q277 64 170.5 170.5 Q64 277 64 427 Q64 436 70 442 Q76 448 85 448 L160 448 Q169 448 175 442 Q181 436 181 427 Q181 387 193 351 Q197 338 188 329 L141 282 Z" />
      <glyph glyph-name="" unicode="&#xe0ce;" d="M70 459 L91 437 L448 80 L421 53 L261 214 L260 214 L256 213 Q239 213 226 226 Q213 239 213 256 L214 260 L180 294 Q171 276 171 256 Q171 207 213 182 L192 145 Q163 162 145.5 191.5 Q128 221 128 256 Q128 294 148 325 L118 356 Q85 310 85 256 Q85 210 108 170.5 Q131 131 170 108 L149 71 Q100 99 71.5 148.5 Q43 198 43 256 Q43 330 87 387 L43 432 L70 459 ZM256 427 Q213 427 176 407 L145 438 Q195 469 256 469 Q344 469 406.5 406.5 Q469 344 469 256 Q469 195 438 145 L406 176 Q427 215 427 256 Q427 326 376.5 376.5 Q326 427 256 427 ZM375 208 L340 243 Q341 247 341 256 Q341 291 316 316 Q291 341 256 341 Q247 341 243 340 L208 375 Q230 384 256 384 Q309 384 346.5 346.5 Q384 309 384 256 Q384 230 375 208 Z" />
      <glyph glyph-name="" unicode="&#xe0cf;" d="M381 213 Q373 234 373 256 Q373 278 381 299 L416 299 L448 341 L406 384 Q362 351 347 299 Q341 278 341 256 Q341 234 347 213 Q362 161 406 128 L448 171 L416 213 L381 213 ZM299 128 L299 149 Q299 178 255 196.5 Q211 215 171 215 Q131 215 87 196.5 Q43 178 43 149 L43 128 L299 128 ZM216 365 Q197 384 171 384 Q145 384 126 365 Q107 346 107 320 Q107 294 126 275 Q145 256 171 256 Q197 256 216 275 Q235 294 235 320 Q235 346 216 365 ZM469 448 Q486 448 499 435 Q512 422 512 405 L512 107 Q512 90 499 77 Q486 64 469 64 L43 64 Q26 64 13 77 Q0 90 0 107 L0 405 Q0 422 13 435 Q26 448 43 448 L469 448 Z" />
      <glyph glyph-name="" unicode="&#xe0d0;" d="M469 256 L469 384 L299 384 L299 256 L469 256 ZM299 128 L299 149 Q299 178 255 196.5 Q211 215 171 215 Q131 215 87 196.5 Q43 178 43 149 L43 128 L299 128 ZM216 365 Q197 384 171 384 Q145 384 126 365 Q107 346 107 320 Q107 294 126 275 Q145 256 171 256 Q197 256 216 275 Q235 294 235 320 Q235 346 216 365 ZM469 448 Q486 448 499 435 Q512 422 512 405 L512 107 Q512 90 499 77 Q486 64 469 64 L43 64 Q26 64 13 77 Q0 90 0 107 L0 405 Q0 422 13 435 Q26 448 43 448 L469 448 ZM448 341 L384 299 L320 341 L320 363 L384 320 L448 363 L448 341 Z" />
      <glyph glyph-name="" unicode="&#xe0d1;" d="M137 303 Q63 377 61 378 L91 409 L167 333 L137 303 ZM277 469 L277 363 L235 363 L235 469 L277 469 ZM451 378 L375 303 L345 333 L421 409 L451 378 ZM506 156 Q512 150 512 141 Q512 132 506 126 L453 73 Q447 67 438 67 Q429 67 423 73 Q395 99 366 113 Q354 118 354 132 L354 198 Q308 213 256 213 Q204 213 158 198 L158 132 Q158 117 146 112 Q114 97 89 73 Q83 67 74 67 Q65 67 59 73 L6 126 Q0 132 0 141 Q0 150 6 156 Q111 256 256 256 Q401 256 506 156 Z" />
      <glyph glyph-name="" unicode="&#xe0d2;" d="M320 85 L320 256 L192 256 L192 85 L320 85 ZM317 298 Q327 298 334 291 Q341 284 341 274 L341 67 Q341 57 334 50 Q327 43 317 43 L195 43 Q185 43 178 50 Q171 57 171 67 L171 274 Q171 284 178 291.5 Q185 299 195 299 L317 298 ZM91 422 Q160 491 256 491 Q352 491 421 422 L391 392 Q335 448 256 448 Q177 448 121 392 L91 422 ZM149 361 Q193 405 256 405 Q319 405 363 361 L332 331 Q301 362 256 362 Q211 362 180 331 L149 361 Z" />
      <glyph glyph-name="" unicode="&#xe0d3;" d="M405 363 L107 363 L107 149 L405 149 L405 363 ZM22 363 Q22 380 34.5 392.5 Q47 405 64 405 L448 405 Q465 405 478 392.5 Q491 380 491 363 L491 149 Q491 132 478 119.5 Q465 107 448 107 L64 107 Q47 107 34 119.5 Q21 132 21 149 L22 363 Z" />
      <glyph glyph-name="" unicode="&#xe0d4;" d="M363 107 L363 405 L149 405 L149 107 L363 107 ZM363 490 Q380 490 392.5 477.5 Q405 465 405 448 L405 64 Q405 47 392.5 34 Q380 21 363 21 L149 21 Q132 21 119.5 34 Q107 47 107 64 L107 448 Q107 465 119.5 478 Q132 491 149 491 L363 490 Z" />
      <glyph glyph-name="" unicode="&#xe0d5;" d="M405 363 L107 363 L107 149 L405 149 L405 363 ZM22 363 Q22 380 34.5 392.5 Q47 405 64 405 L448 405 Q465 405 478 392.5 Q491 380 491 363 L491 149 Q491 132 478 119.5 Q465 107 448 107 L64 107 Q47 107 34 119.5 Q21 132 21 149 L22 363 Z" />
      <glyph glyph-name="" unicode="&#xe0d6;" d="M363 107 L363 405 L149 405 L149 107 L363 107 ZM363 490 Q380 490 392.5 477.5 Q405 465 405 448 L405 64 Q405 47 392.5 34 Q380 21 363 21 L149 21 Q132 21 119.5 34 Q107 47 107 64 L107 448 Q107 465 119.5 478 Q132 491 149 491 L363 490 Z" />
      <glyph glyph-name="" unicode="&#xe0d7;" d="M384 427 L469 341 L405 341 L405 192 Q405 157 380 132 Q355 107 320 107 Q285 107 260 132 Q235 157 235 192 L235 341 Q235 358 222 371 Q209 384 192 384 Q175 384 162 371 Q149 358 149 341 L149 192 L213 192 L128 107 L43 192 L107 192 L107 341 Q107 376 132 401.5 Q157 427 192 427 Q227 427 252 401.5 Q277 376 277 341 L277 192 Q277 175 290 162 Q303 149 320 149 Q337 149 350 162 Q363 175 363 192 L363 341 L299 341 L384 427 Z" />
      <glyph glyph-name="" unicode="&#xe0d8;" d="M363 277 L363 320 L320 320 L320 277 L363 277 ZM277 277 L277 320 L235 320 L235 277 L277 277 ZM192 277 L192 320 L149 320 L149 277 L192 277 ZM427 469 Q444 469 456.5 456.5 Q469 444 469 427 L469 171 Q469 154 456.5 141 Q444 128 427 128 L128 128 L43 43 L43 427 Q43 444 55.5 456.5 Q68 469 85 469 L427 469 Z" />
      <glyph glyph-name="" unicode="&#xe0d9;" d="M342 214 Q364 192 395 192 Q426 192 447.5 214 Q469 236 469 267 Q469 298 447.5 319.5 Q426 341 395 341 Q364 341 342 319.5 Q320 298 320 267 Q320 236 342 214 ZM64.5 214 Q86 192 117 192 Q148 192 170 214 Q192 236 192 267 Q192 298 170 319.5 Q148 341 117 341 Q86 341 64.5 319.5 Q43 298 43 267 Q43 236 64.5 214 ZM311.5 350 Q346 384 395 384 Q444 384 478 350 Q512 316 512 267 Q512 218 478 183.5 Q444 149 395 149 L117 149 Q68 149 34 183.5 Q0 218 0 267 Q0 316 34 350 Q68 384 117 384 Q166 384 200.5 350 Q235 316 235 267 Q235 224 208 192 L304 192 Q277 224 277 267 Q277 316 311.5 350 Z" />
      <glyph glyph-name="" unicode="&#xe0da;" d="M119.5 226 Q132 213 149 213 Q166 213 179 226 Q192 239 192 256 Q192 273 179 286 Q166 299 149 299 Q132 299 119.5 286 Q107 273 107 256 Q107 239 119.5 226 ZM270 299 L491 299 L491 213 L448 213 L448 128 L363 128 L363 213 L270 213 Q257 175 224 151.5 Q191 128 149 128 Q96 128 58.5 165.5 Q21 203 21 256 Q21 309 58.5 346.5 Q96 384 149 384 Q191 384 224 360.5 Q257 337 270 299 Z" />
      <glyph glyph-name="" unicode="&#xe0db;" d="M405 491 Q422 491 435 478 Q448 465 448 448 L448 64 Q448 47 435 34 Q422 21 405 21 L192 21 Q175 21 162 34 Q149 47 149 64 L149 128 L192 128 L192 85 L405 85 L405 427 L192 427 L192 384 L149 384 L149 448 Q149 465 162 478 Q175 491 192 491 L405 491 ZM277 337 L192 252 L277 166 L256 145 L171 230 L85 145 L64 166 L149 252 L64 337 L85 358 L171 273 L256 358 L277 337 Z" />
      <glyph glyph-name="" unicode="&#xe0dc;" d="M203 277 L203 309 Q203 321 193.5 329 Q184 337 171 337 Q158 337 148.5 329 Q139 321 139 309 L139 277 L203 277 ZM230 277 Q240 277 248 269 Q256 261 256 250 L256 175 Q256 165 247.5 157 Q239 149 228 149 L111 149 Q101 149 93 157.5 Q85 166 85 177 L85 252 Q85 262 93 269.5 Q101 277 111 277 L111 309 Q111 331 129.5 347 Q148 363 171 363 Q194 363 212 347 Q230 331 230 309 L230 277 ZM405 491 Q422 491 435 478 Q448 465 448 448 L448 64 Q448 47 435 34 Q422 21 405 21 L192 21 Q175 21 162 34 Q149 47 149 64 L149 128 L192 128 L192 85 L405 85 L405 427 L192 427 L192 384 L149 384 L149 448 Q149 465 162 478 Q175 491 192 491 L405 491 Z" />
      <glyph glyph-name="" unicode="&#xe0dd;" d="M299 85 L299 427 L85 427 L85 85 L299 85 ZM299 491 Q316 491 328.5 478 Q341 465 341 448 L341 64 Q341 47 328.5 34 Q316 21 299 21 L85 21 Q68 21 55.5 34 Q43 47 43 64 L43 448 Q43 465 55.5 478 Q68 491 85 491 L299 491 ZM384 303 Q404 282 404 256 Q404 230 384 211 L363 233 Q381 258 363 282 L384 303 ZM429 348 Q469 310 469 256.5 Q469 203 429 166 L407 188 Q436 219 436 258.5 Q436 298 407 326 L429 348 Z" />
      <glyph glyph-name="" unicode="&#xe0de;" d="M405 491 Q422 491 435 478 Q448 465 448 448 L448 64 Q448 47 435 34 Q422 21 405 21 L192 21 Q175 21 162 34 Q149 47 149 64 L149 128 L192 128 L192 85 L405 85 L405 427 L192 427 L192 384 L149 384 L149 448 Q149 465 162 478 Q175 491 192 491 L405 491 ZM141 226 Q154 213 171 213 Q188 213 200.5 226 Q213 239 213 256 Q213 273 200.5 286 Q188 299 171 299 Q154 299 141 286 Q128 273 128 256 Q128 239 141 226 ZM252 245 L275 226 Q279 222 277 220 L256 183 Q254 181 250 181 L222 192 Q208 183 203 181 L198 154 Q193 149 192 149 L149 149 Q147 149 145.5 151 Q144 153 145 154 L141 181 Q136 183 122 192 L92 183 Q90 181 85 186 L64 222 Q64 226 66 230 L90 247 L90 269 L66 286 Q62 290 64 292 L85 329 Q87 331 92 331 L119 320 Q132 329 139 331 L143 358 Q148 363 149 363 L192 363 Q198 363 198 358 L203 331 Q208 329 222 320 L250 329 Q252 330 256 326 L277 290 Q277 286 275 284 L252 267 L252 245 Z" />
      <glyph glyph-name="" unicode="&#xe0df;" d="M213 256 L171 256 L256 341 L341 256 L299 256 L299 171 L213 171 L213 256 ZM448 106 L448 406 L64 406 L64 106 L448 106 ZM448 448 Q466 448 478.5 435.5 Q491 423 491 405 L491 107 Q491 89 478.5 76.5 Q466 64 448 64 L64 64 Q46 64 33.5 76.5 Q21 89 21 107 L21 405 Q21 423 33.5 435.5 Q46 448 64 448 L448 448 Z" />
      <glyph glyph-name="" unicode="&#xe0e0;" d="M448 117 L448 363 Q415 373 373 373 Q308 373 256 341 L256 96 Q308 128 373 128 Q412 128 448 117 ZM373 416 Q449 416 491 384 L491 73 Q491 69 487.5 65.5 Q484 62 480 62 Q477 62 475 63 Q434 85 373 85 Q308 85 256 53 Q213 85 139 85 Q85 85 37 62 Q36 62 34.5 61.5 Q33 61 32 61 Q28 61 24.5 64 Q21 67 21 71 L21 384 Q64 416 139 416 Q213 416 256 384 Q299 416 373 416 Z" />
      <glyph glyph-name="" unicode="&#xe0e1;" d="M256 277 L427 384 L85 384 L256 277 ZM427 128 L427 341 L256 235 L85 341 L85 128 L427 128 ZM427 427 Q444 427 456.5 414 Q469 401 469 384 L469 128 Q469 111 456.5 98 Q444 85 427 85 L85 85 Q68 85 55.5 98 Q43 111 43 128 L43 384 Q43 401 55.5 414 Q68 427 85 427 L427 427 Z" />
      <glyph glyph-name="" unicode="&#xe0e2;" d="M277 203 L363 283 L277 363 L277 317 Q172 302 149 192 Q192 250 277 250 L277 203 ZM427 128 L512 128 L512 85 L0 85 L0 128 L85 128 Q67 128 55 140.5 Q43 153 43 171 L43 384 Q43 402 55 414.5 Q67 427 85 427 L427 427 Q444 427 456.5 414.5 Q469 402 469 384 L469 171 Q469 154 456.5 141 Q444 128 427 128 Z" />
      <glyph glyph-name="" unicode="&#xe0e3;" d="M149 192 Q178 232 227 244 L193 278 Q161 247 149 192 ZM51 475 L472 54 L445 27 L387 85 L0 85 L0 128 L85 128 Q67 128 55 140.5 Q43 153 43 170 L43 384 Q43 403 57 415 L24 448 L51 475 ZM469 170 Q469 145 447 133 L329 251 L363 283 L277 362 L277 317 Q275 316 271.5 316 Q268 316 266 315 L154 426 L427 426 Q444 426 456.5 414 Q469 402 469 384 L469 170 ZM453 128 L512 128 L512 85 L495 85 L453 128 Z" />
      <glyph glyph-name="" unicode="&#xe0e4;" d="M64 333 L94 363 L256 201 L375 320 L277 320 L277 363 L448 363 L448 192 L405 192 L405 290 L256 141 L64 333 Z" />
      <glyph glyph-name="" unicode="&#xe145;" d="M405 235 L277 235 L277 107 L235 107 L235 235 L107 235 L107 277 L235 277 L235 405 L277 405 L277 277 L405 277 L405 235 Z" />
      <glyph glyph-name="" unicode="&#xe146;" d="M363 235 L363 277 L277 277 L277 363 L235 363 L235 277 L149 277 L149 235 L235 235 L235 149 L277 149 L277 235 L363 235 ZM405 448 Q422 448 435 435 Q448 422 448 405 L448 107 Q448 90 435 77 Q422 64 405 64 L107 64 Q89 64 76.5 77 Q64 90 64 107 L64 405 Q64 422 76.5 435 Q89 448 107 448 L405 448 Z" />
      <glyph glyph-name="" unicode="&#xe147;" d="M363 235 L363 277 L277 277 L277 363 L235 363 L235 277 L149 277 L149 235 L235 235 L235 149 L277 149 L277 235 L363 235 ZM105.5 406.5 Q168 469 256 469 Q344 469 406.5 406.5 Q469 344 469 256 Q469 168 406.5 105.5 Q344 43 256 43 Q168 43 105.5 105.5 Q43 168 43 256 Q43 344 105.5 406.5 Z" />
      <glyph glyph-name="" unicode="&#xe148;" d="M135.5 135.5 Q186 85 256 85 Q326 85 376.5 135.5 Q427 186 427 256 Q427 326 376.5 376.5 Q326 427 256 427 Q186 427 135.5 376.5 Q85 326 85 256 Q85 186 135.5 135.5 ZM105.5 406.5 Q168 469 256 469 Q344 469 406.5 406.5 Q469 344 469 256 Q469 168 406.5 105.5 Q344 43 256 43 Q168 43 105.5 105.5 Q43 168 43 256 Q43 344 105.5 406.5 ZM277 363 L277 277 L363 277 L363 235 L277 235 L277 149 L235 149 L235 235 L149 235 L149 277 L235 277 L235 363 L277 363 Z" />
      <glyph glyph-name="" unicode="&#xe149;" d="M109 405 L403 405 L383 427 L127 427 L109 405 ZM256 139 L373 256 L299 256 L299 299 L213 299 L213 256 L139 256 L256 139 ZM438 400 Q448 388 448 373 L448 107 Q448 90 435 77 Q422 64 405 64 L107 64 Q90 64 77 77 Q64 90 64 107 L64 373 Q64 388 74 400 L103 436 Q113 448 128 448 L384 448 Q399 448 409 436 L438 400 Z" />
      <glyph glyph-name="" unicode="&#xe14a;" d="M405 179 L329 256 L405 333 L375 363 L299 286 L222 363 L192 333 L269 256 L192 179 L222 149 L299 226 L375 149 L405 179 ZM469 448 Q486 448 499 435 Q512 422 512 405 L512 107 Q512 90 499 77 Q486 64 469 64 L149 64 Q129 64 115 83 L0 256 L115 429 Q129 448 149 448 L469 448 Z" />
      <glyph glyph-name="" unicode="&#xe14b;" d="M256 85 Q326 85 376.5 135.5 Q427 186 427 256 Q427 316 391 361 L151 121 Q196 85 256 85 ZM85 256 Q85 196 121 151 L361 391 Q316 427 256 427 Q186 427 135.5 376.5 Q85 326 85 256 ZM105.5 406.5 Q168 469 256 469 Q344 469 406.5 406.5 Q469 344 469 256 Q469 168 406.5 105.5 Q344 43 256 43 Q168 43 105.5 105.5 Q43 168 43 256 Q43 344 105.5 406.5 Z" />
      <glyph glyph-name="" unicode="&#xe14c;" d="M405 375 L286 256 L405 137 L375 107 L256 226 L137 107 L107 137 L226 256 L107 375 L137 405 L256 286 L375 405 L405 375 Z" />
      <glyph glyph-name="" unicode="&#xe14d;" d="M405 64 L405 363 L171 363 L171 64 L405 64 ZM405 405 Q422 405 435 392.5 Q448 380 448 363 L448 64 Q448 47 435 34 Q422 21 405 21 L171 21 Q154 21 141 34 Q128 47 128 64 L128 363 Q128 380 141 392.5 Q154 405 171 405 L405 405 ZM341 491 L341 448 L85 448 L85 149 L43 149 L43 448 Q43 465 55.5 478 Q68 491 85 491 L341 491 Z" />
      <glyph glyph-name="" unicode="&#xe14e;" d="M405 448 L469 448 L469 427 L320 277 L277 320 L405 448 ZM245 256 Q245 245 256 245 Q267 245 267 256 Q267 267 256 267 Q245 267 245 256 ZM98 97.5 Q111 85 128 85 Q145 85 158 97.5 Q171 110 171 128 Q171 146 158 158.5 Q145 171 128 171 Q111 171 98 158.5 Q85 146 85 128 Q85 110 98 97.5 ZM98 353.5 Q111 341 128 341 Q145 341 158 353.5 Q171 366 171 384 Q171 402 158 414.5 Q145 427 128 427 Q111 427 98 414.5 Q85 402 85 384 Q85 366 98 353.5 ZM206 349 L469 85 L469 64 L405 64 L256 213 L206 163 Q213 148 213 128 Q213 93 188 68 Q163 43 128 43 Q93 43 68 68 Q43 93 43 128 Q43 163 68 188 Q93 213 128 213 Q148 213 163 206 L213 256 L163 306 Q148 299 128 299 Q93 299 68 324 Q43 349 43 384 Q43 419 68 444 Q93 469 128 469 Q163 469 188 444 Q213 419 213 384 Q213 364 206 349 Z" />
      <glyph glyph-name="" unicode="&#xe14f;" d="M405 85 L405 427 L363 427 L363 363 L149 363 L149 427 L107 427 L107 85 L405 85 ZM271 463 Q265 469 256 469 Q247 469 241 463 Q235 457 235 448 Q235 439 241 433 Q247 427 256 427 Q265 427 271 433 Q277 439 277 448 Q277 457 271 463 ZM405 469 Q422 469 435 456.5 Q448 444 448 427 L448 85 Q448 68 435 55.5 Q422 43 405 43 L107 43 Q90 43 77 55.5 Q64 68 64 85 L64 427 Q64 444 77 456.5 Q90 469 107 469 L196 469 Q203 488 219 500 Q235 512 256 512 Q277 512 293 500 Q309 488 316 469 L405 469 Z" />
      <glyph glyph-name="" unicode="&#xe150;" d="M442 362 L403 323 L323 403 L362 442 Q368 448 377 448 Q386 448 392 442 L442 392 Q448 386 448 377 Q448 368 442 362 ZM64 144 L300 380 L380 300 L144 64 L64 64 L64 144 Z" />
      <glyph glyph-name="" unicode="&#xe151;" d="M256 235 L432 345 L256 448 L80 345 L256 235 ZM469 341 L469 128 Q469 111 456.5 98 Q444 85 427 85 L85 85 Q68 85 55.5 98 Q43 111 43 128 L43 341 Q43 366 63 378 L256 491 L449 378 Q469 366 469 341 Z" />
      <glyph glyph-name="" unicode="&#xe152;" d="M128 235 L128 277 L384 277 L384 235 L128 235 ZM64 384 L448 384 L448 341 L64 341 L64 384 ZM213 128 L213 171 L299 171 L299 128 L213 128 Z" />
      <glyph glyph-name="" unicode="&#xe153;" d="M307 384 L427 384 L427 171 L277 171 L269 213 L149 213 L149 64 L107 64 L107 427 L299 427 L307 384 Z" />
      <glyph glyph-name="" unicode="&#xe154;" d="M256 341 L256 427 L427 256 L256 85 L256 171 L85 171 L85 341 L256 341 Z" />
      <glyph glyph-name="" unicode="&#xe155;" d="M296 116 Q310 116 324 134.5 Q338 153 342 191 Q312 183 296 164 Q280 145 280 132 Q280 125 285 120.5 Q290 116 296 116 ZM98 365 L61 401 Q71 413 79 421 Q106 448 137 448 Q156 448 173.5 433 Q191 418 191 387 Q191 357 163 317 Q135 278 124 242 Q118 225 120.5 213 Q123 201 131 201 Q140 201 155 219 Q177 241 204 277 Q252 337 309 337 Q351 337 371.5 309.5 Q392 282 395 248 L448 248 L448 195 L396 195 Q390 126 359 95 Q328 64 295 64 Q267 64 247 83.5 Q227 103 227 130 Q227 163 257 199 Q287 235 342 245 Q341 253 340.5 256 Q340 259 337.5 265.5 Q335 272 331.5 275 Q328 278 321 280.5 Q314 283 304 283 Q276 283 217 210 Q200 189 193.5 181.5 Q187 174 175 164 Q163 154 152 151 Q117 140 92 164 Q67 188 67 224 Q67 239 72.5 257 Q78 275 87 292 Q96 309 104 322.5 Q112 336 119.5 347 Q127 358 128 359 Q145 387 134 391 Q127 394 98 365 Z" />
      <glyph glyph-name="" unicode="&#xe156;" d="M405 192 L405 405 L106 405 L106 192 L192 192 Q192 166 211 147 Q230 128 256 128 Q282 128 301 147 Q320 166 320 192 L405 192 ZM405 448 Q422 448 435 435.5 Q448 423 448 405 L448 107 Q448 90 435 77 Q422 64 405 64 L106 64 Q88 64 76 76.5 Q64 89 64 107 L64 405 Q64 423 76 435.5 Q88 448 106 448 L405 448 Z" />
      <glyph glyph-name="" unicode="&#xe157;" d="M363 363 Q407 363 438 331.5 Q469 300 469 256 Q469 212 438 180.5 Q407 149 363 149 L277 149 L277 190 L363 190 Q390 190 409.5 209.5 Q429 229 429 256 Q429 283 409.5 302.5 Q390 322 363 322 L277 322 L277 363 L363 363 ZM171 235 L171 277 L341 277 L341 235 L171 235 ZM102.5 302.5 Q83 283 83 256 Q83 229 102.5 209.5 Q122 190 149 190 L235 190 L235 149 L149 149 Q105 149 74 180.5 Q43 212 43 256 Q43 300 74 331.5 Q105 363 149 363 L235 363 L235 322 L149 322 Q122 322 102.5 302.5 Z" />
      <glyph glyph-name="" unicode="&#xe158;" d="M427 341 L427 384 L256 277 L85 384 L85 341 L256 235 L427 341 ZM427 427 Q444 427 456.5 414 Q469 401 469 384 L469 128 Q469 111 456.5 98 Q444 85 427 85 L85 85 Q68 85 55.5 98 Q43 111 43 128 L43 384 Q43 401 55.5 414 Q68 427 85 427 L427 427 Z" />
      <glyph glyph-name="" unicode="&#xe159;" d="M427 341 L427 384 L256 277 L85 384 L85 341 L256 235 L427 341 ZM427 427 Q444 427 456.5 414 Q469 401 469 384 L469 128 Q469 111 456.5 98 Q444 85 427 85 L85 85 Q68 85 55.5 98 Q43 111 43 128 L43 384 Q43 401 55.5 414 Q68 427 85 427 L427 427 Z" />
      <glyph glyph-name="" unicode="&#xe15a;" d="M393 286 L469 363 L469 171 L277 171 L355 248 Q307 288 245 288 Q189 288 144.5 255.5 Q100 223 83 171 L33 187 Q55 255 113.5 298 Q172 341 245 341 Q330 341 393 286 Z" />
      <glyph glyph-name="" unicode="&#xe15b;" d="M405 235 L107 235 L107 277 L405 277 L405 235 Z" />
      <glyph glyph-name="" unicode="&#xe15c;" d="M363 235 L363 277 L149 277 L149 235 L363 235 ZM105.5 406.5 Q168 469 256 469 Q344 469 406.5 406.5 Q469 344 469 256 Q469 168 406.5 105.5 Q344 43 256 43 Q168 43 105.5 105.5 Q43 168 43 256 Q43 344 105.5 406.5 Z" />
      <glyph glyph-name="" unicode="&#xe15d;" d="M135.5 135.5 Q186 85 256 85 Q326 85 376.5 135.5 Q427 186 427 256 Q427 326 376.5 376.5 Q326 427 256 427 Q186 427 135.5 376.5 Q85 326 85 256 Q85 186 135.5 135.5 ZM105.5 406.5 Q168 469 256 469 Q344 469 406.5 406.5 Q469 344 469 256 Q469 168 406.5 105.5 Q344 43 256 43 Q168 43 105.5 105.5 Q43 168 43 256 Q43 344 105.5 406.5 ZM149 277 L363 277 L363 235 L149 235 L149 277 Z" />
      <glyph glyph-name="" unicode="&#xe15e;" d="M213 320 Q317 305 373.5 240.5 Q430 176 448 85 Q371 194 213 194 L213 107 L64 256 L213 405 L213 320 Z" />
      <glyph glyph-name="" unicode="&#xe15f;" d="M277 320 Q381 305 437.5 240.5 Q494 176 512 85 Q435 194 277 194 L277 107 L128 256 L277 405 L277 320 ZM149 341 L64 256 L149 171 L149 107 L0 256 L149 405 L149 341 Z" />
      <glyph glyph-name="" unicode="&#xe160;" d="M277 235 L277 363 L235 363 L235 235 L277 235 ZM236.5 151.5 Q245 143 256 143 Q267 143 275.5 151.5 Q284 160 284 171 Q284 182 275.5 190 Q267 198 256 198 Q245 198 236.5 190 Q228 182 228 171 Q228 160 236.5 151.5 ZM336 448 L448 336 L448 176 L336 64 L176 64 L64 176 L64 336 L176 448 L336 448 Z" />
      <glyph glyph-name="" unicode="&#xe161;" d="M320 320 L320 405 L107 405 L107 320 L320 320 ZM211 126 Q230 107 256 107 Q282 107 301 126 Q320 145 320 171 Q320 197 301 216 Q282 235 256 235 Q230 235 211 216 Q192 197 192 171 Q192 145 211 126 ZM363 448 L448 363 L448 107 Q448 90 435 77 Q422 64 405 64 L107 64 Q89 64 76.5 77 Q64 90 64 107 L64 405 Q64 422 76.5 435 Q89 448 107 448 L363 448 Z" />
      <glyph glyph-name="" unicode="&#xe162;" d="M192 320 L192 192 L320 192 L320 320 L192 320 ZM149 149 L149 363 L363 363 L363 149 L149 149 ZM320 405 L320 448 L363 448 L363 405 L320 405 ZM320 64 L320 107 L363 107 L363 64 L320 64 ZM405 149 L405 192 L448 192 L448 149 L405 149 ZM405 320 L405 363 L448 363 L448 320 L405 320 ZM405 64 L405 107 L448 107 Q448 90 435 77 Q422 64 405 64 ZM405 235 L405 277 L448 277 L448 235 L405 235 ZM235 64 L235 107 L277 107 L277 64 L235 64 ZM192 448 L192 405 L149 405 L149 448 L192 448 ZM64 149 L64 192 L107 192 L107 149 L64 149 ZM107 64 Q90 64 77 77 Q64 90 64 107 L107 107 L107 64 ZM405 448 Q422 448 435 435 Q448 422 448 405 L405 405 L405 448 ZM277 448 L277 405 L235 405 L235 448 L277 448 ZM64 320 L64 363 L107 363 L107 320 L64 320 ZM149 64 L149 107 L192 107 L192 64 L149 64 ZM64 235 L64 277 L107 277 L107 235 L64 235 ZM64 405 Q64 422 77 435 Q90 448 107 448 L107 405 L64 405 Z" />
      <glyph glyph-name="" unicode="&#xe163;" d="M43 64 L43 213 L363 256 L43 299 L43 448 L491 256 L43 64 Z" />
      <glyph glyph-name="" unicode="&#xe164;" d="M64 235 L64 277 L320 277 L320 235 L64 235 ZM64 384 L448 384 L448 341 L64 341 L64 384 ZM64 128 L64 171 L192 171 L192 128 L64 128 Z" />
      <glyph glyph-name="" unicode="&#xe165;" d="M256 384 L216 277 L296 277 L256 384 ZM203 239 L183 192 L139 192 L240 427 L272 427 L373 192 L329 192 L309 239 L203 239 ZM107 149 L405 149 L405 107 L107 107 L107 149 Z" />
      <glyph glyph-name="" unicode="&#xe166;" d="M267 341 Q340 341 398 298 Q456 255 479 187 L429 171 Q412 223 367.5 255.5 Q323 288 267 288 Q205 288 157 248 L235 171 L43 171 L43 363 L119 286 Q182 341 267 341 Z" />
      <glyph glyph-name="" unicode="&#xe167;" d="M340 117 L385 117 L276 395 L236 395 L127 117 L172 117 L196 181 L316 181 L340 117 ZM427 469 Q444 469 456.5 456.5 Q469 444 469 427 L469 85 Q469 68 456.5 55.5 Q444 43 427 43 L85 43 Q68 43 55.5 55.5 Q43 68 43 85 L43 427 Q43 444 55.5 456.5 Q68 469 85 469 L427 469 ZM212 224 L256 342 L300 224 L212 224 Z" />
      <glyph glyph-name="" unicode="&#xe168;" d="M341 299 L256 213 L171 299 L213 299 L213 363 L299 363 L299 299 L341 299 ZM405 192 L405 405 L106 405 L106 192 L192 192 Q192 166 211 147 Q230 128 256 128 Q282 128 301 147 Q320 166 320 192 L405 192 ZM405 448 Q422 448 435 435 Q448 422 448 405 L448 107 Q448 90 435 77 Q422 64 405 64 L106 64 Q88 64 76 76.5 Q64 89 64 107 L64 405 Q64 423 76 435.5 Q88 448 106 448 L405 448 Z" />
      <glyph glyph-name="" unicode="&#xe169;" d="M109 405 L403 405 L383 427 L127 427 L109 405 ZM256 309 L139 192 L213 192 L213 149 L299 149 L299 192 L373 192 L256 309 ZM438 401 Q448 389 448 373 L448 107 Q448 90 435 77 Q422 64 405 64 L107 64 Q89 64 76.5 77 Q64 90 64 107 L64 373 Q64 389 74 401 L103 436 Q113 448 128 448 L384 448 Q399 448 409 436 L438 401 Z" />
      <glyph glyph-name="" unicode="&#xe16a;" d="M235 117 L320 203 L235 288 L213 267 L277 203 L213 139 L235 117 ZM213 405 L213 363 L299 363 L299 405 L213 405 ZM299 448 Q316 448 328.5 435.5 Q341 423 341 405 L341 363 L427 363 Q444 363 456.5 350 Q469 337 469 320 L469 85 Q469 68 456.5 55.5 Q444 43 427 43 L85 43 Q68 43 55.5 55.5 Q43 68 43 85 L43 320 Q43 337 55.5 350 Q68 363 85 363 L171 363 L171 405 Q171 422 183.5 435 Q196 448 213 448 L299 448 Z" />
      <glyph glyph-name="" unicode="&#xe16b;" d="M384 405 Q401 405 414 392.5 Q427 380 427 363 L427 317 Q408 310 396 294 Q384 278 384 257 L384 213 L128 213 L128 257 Q128 278 116 294 Q104 310 85 317 L85 363 Q85 380 98 392.5 Q111 405 128 405 L384 405 ZM418 286 Q431 299 448 299 Q465 299 478 286 Q491 273 491 256 L491 149 Q491 132 478 119.5 Q465 107 448 107 L64 107 Q47 107 34 119.5 Q21 132 21 149 L21 256 Q21 273 34 286 Q47 299 64 299 Q81 299 94 286 Q107 273 107 256 L107 192 L405 192 L405 256 Q405 273 418 286 Z" />
      <glyph glyph-name="" unicode="&#xe190;" d="M150.5 129 Q194 85 256 85 Q318 85 361.5 129 Q405 173 405 235 Q405 297 361.5 340.5 Q318 384 256 384 Q194 384 150.5 340.5 Q107 297 107 235 Q107 173 150.5 129 ZM120 370.5 Q176 427 256 427 Q336 427 392 370.5 Q448 314 448 235 Q448 156 392 99.5 Q336 43 256 43 Q176 43 120 99.5 Q64 156 64 235 Q64 314 120 370.5 ZM267 341 L267 229 L352 179 L336 153 L235 213 L235 341 L267 341 ZM168 440 L70 358 L43 390 L141 472 L168 440 ZM469 390 L442 357 L344 440 L371 472 L469 390 Z" />
      <glyph glyph-name="" unicode="&#xe191;" d="M150.5 129 Q194 85 256 85 Q318 85 361.5 129 Q405 173 405 235 Q405 297 361.5 340.5 Q318 384 256 384 Q194 384 150.5 340.5 Q107 297 107 235 Q107 173 150.5 129 ZM120 371 Q176 427 256 427 Q336 427 392 371 Q448 315 448 235 Q448 155 392 99 Q336 43 256 43 Q176 43 120 99 Q64 155 64 235 Q64 315 120 371 ZM267 341 L267 228 L352 177 L335 151 L235 213 L235 341 L267 341 ZM169 439 L70 358 L43 390 L141 471 L169 439 ZM469 390 L442 358 L343 442 L371 474 L469 390 Z" />
      <glyph glyph-name="" unicode="&#xe192;" d="M267 363 L267 251 L363 194 L347 167 L235 235 L235 363 L267 363 ZM135.5 135.5 Q186 85 256 85 Q326 85 376.5 135.5 Q427 186 427 256 Q427 326 376.5 376.5 Q326 427 256 427 Q186 427 135.5 376.5 Q85 326 85 256 Q85 186 135.5 135.5 ZM105.5 406.5 Q168 469 256 469 Q344 469 406.5 406.5 Q469 344 469 256 Q469 168 406.5 105.5 Q344 43 256 43 Q168 43 105.5 105.5 Q43 168 43 256 Q43 344 105.5 406.5 Z" />
      <glyph glyph-name="" unicode="&#xe193;" d="M277 320 L277 256 L341 256 L341 213 L277 213 L277 149 L235 149 L235 213 L171 213 L171 256 L235 256 L235 320 L277 320 ZM150.5 129 Q194 85 256 85 Q318 85 361.5 129 Q405 173 405 235 Q405 297 361.5 340.5 Q318 384 256 384 Q194 384 150.5 340.5 Q107 297 107 235 Q107 173 150.5 129 ZM120 370.5 Q176 427 256 427 Q336 427 392 370.5 Q448 314 448 235 Q448 156 392 99.5 Q336 43 256 43 Q176 43 120 99.5 Q64 156 64 235 Q64 314 120 370.5 ZM469 390 L442 357 L344 440 L371 472 L469 390 ZM168 440 L70 358 L43 390 L141 472 L168 440 Z" />
      <glyph glyph-name="" unicode="&#xe194;" d="M64 400 L91 427 L427 91 L400 64 L277 186 L277 107 L320 75 L320 43 L245 64 L171 43 L171 75 L213 107 L213 224 L43 171 L43 213 L170 293 L64 400 ZM277 320 L448 213 L448 171 L380 192 L213 359 L213 437 Q213 450 222.5 459.5 Q232 469 245 469 Q258 469 267.5 459.5 Q277 450 277 437 L277 320 Z" />
      <glyph glyph-name="" unicode="&#xe195;" d="M217 320 L217 320 ZM448 171 L277 224 L277 107 L320 75 L320 43 L245 64 L171 43 L171 75 L213 107 L213 224 L43 171 L43 213 L213 320 L213 437 Q213 450 222.5 459.5 Q232 469 245 469 Q258 469 267.5 459.5 Q277 450 277 437 L277 320 L448 213 L448 171 Z" />
      <glyph glyph-name="" unicode="&#xe19c;" d="M277 213 L277 320 L235 320 L235 213 L277 213 ZM277 128 L277 171 L235 171 L235 128 L277 128 ZM334 427 Q346 427 354.5 418.5 Q363 410 363 398 L363 71 Q363 59 354.5 51 Q346 43 334 43 L178 43 Q166 43 157.5 51 Q149 59 149 71 L149 398 Q149 410 157.5 418.5 Q166 427 178 427 L213 427 L213 469 L299 469 L299 427 L334 427 Z" />
      <glyph glyph-name="" unicode="&#xe1a3;" d="M235 85 L320 245 L277 245 L277 363 L192 203 L235 203 L235 85 ZM334 427 Q346 427 354.5 418.5 Q363 410 363 398 L363 71 Q363 59 354.5 51 Q346 43 334 43 L178 43 Q166 43 157.5 51 Q149 59 149 71 L149 398 Q149 410 157.5 418.5 Q166 427 178 427 L213 427 L213 469 L299 469 L299 427 L334 427 Z" />
      <glyph glyph-name="" unicode="&#xe1a4;" d="M334 427 Q346 427 354.5 418.5 Q363 410 363 398 L363 71 Q363 59 354.5 51 Q346 43 334 43 L178 43 Q166 43 157.5 51 Q149 59 149 71 L149 398 Q149 410 157.5 418.5 Q166 427 178 427 L213 427 L213 469 L299 469 L299 427 L334 427 Z" />
      <glyph glyph-name="" unicode="&#xe1a5;" d="M334 427 Q346 427 354.5 418.5 Q363 410 363 398 L363 71 Q363 59 354.5 51 Q346 43 334 43 L178 43 Q166 43 157.5 51 Q149 59 149 71 L149 398 Q149 410 157.5 418.5 Q166 427 178 427 L213 427 L213 469 L299 469 L299 427 L334 427 Z" />
      <glyph glyph-name="" unicode="&#xe1a6;" d="M305 241 Q320 256 320 277 Q320 303 301 322 Q282 341 256 341 Q230 341 211 322 Q192 303 192 277 L224 277 Q224 290 233 299.5 Q242 309 256 309 Q270 309 279 299.5 Q288 290 288 277 Q288 264 279 255 L259 235 Q239 215 239 192 L273 192 Q273 208 291 226 L305 241 ZM276 129 L276 170 L236 170 L236 129 L276 129 ZM334 427 Q346 427 354.5 418.5 Q363 410 363 398 L363 71 Q363 59 354.5 51 Q346 43 334 43 L178 43 Q166 43 157.5 51 Q149 59 149 71 L149 398 Q149 410 157.5 418.5 Q166 427 178 427 L213 427 L213 469 L299 469 L299 427 L334 427 Z" />
      <glyph glyph-name="" unicode="&#xe1a7;" d="M317 164 L277 205 L277 124 L317 164 ZM277 388 L277 307 L317 348 L277 388 ZM378 348 L286 256 L378 164 L256 43 L235 43 L235 205 L137 107 L107 137 L226 256 L107 375 L137 405 L235 307 L235 469 L256 469 L378 348 Z" />
      <glyph glyph-name="" unicode="&#xe1a8;" d="M405 299 L448 256 L405 213 L363 256 L405 299 ZM317 164 L277 205 L277 124 L317 164 ZM277 388 L277 307 L317 348 L277 388 ZM378 348 L286 256 L378 164 L256 43 L235 43 L235 205 L137 107 L107 137 L226 256 L107 375 L137 405 L235 307 L235 469 L256 469 L378 348 ZM149 256 L107 213 L64 256 L107 299 L149 256 Z" />
      <glyph glyph-name="" unicode="&#xe1a9;" d="M277 124 L317 164 L277 205 L277 124 ZM115 427 L427 115 L397 85 L348 134 L256 43 L235 43 L235 205 L137 107 L107 137 L226 256 L85 397 L115 427 ZM277 388 L277 319 L235 362 L235 469 L256 469 L378 348 L313 283 L283 313 L317 348 L277 388 Z" />
      <glyph glyph-name="" unicode="&#xe1aa;" d="M275 164 L235 205 L235 124 L275 164 ZM235 388 L235 307 L275 348 L235 388 ZM335 348 L243 256 L335 164 L213 43 L192 43 L192 205 L94 107 L64 137 L183 256 L64 375 L94 405 L192 307 L192 469 L213 469 L335 348 ZM417 369 Q448 319 448 258 Q448 197 415 145 L390 170 Q411 212 411 256 Q411 300 390 342 L417 369 ZM304 256 L353 305 Q363 280 363 256 Q363 231 353 206 L304 256 Z" />
      <glyph glyph-name="" unicode="&#xe1ab;" d="M305 171 L346 171 L277 363 L235 363 L166 171 L207 171 L222 213 L290 213 L305 171 ZM427 327 L497 256 L427 185 L427 85 L327 85 L256 15 L185 85 L85 85 L85 185 L15 256 L85 327 L85 427 L185 427 L256 497 L327 427 L427 427 L427 327 ZM231 242 L256 320 L281 242 L231 242 Z" />
      <glyph glyph-name="" unicode="&#xe1ac;" d="M196 316 Q221 341 256 341 Q291 341 316 316 Q341 291 341 256 Q341 221 316 196 Q291 171 256 171 Q221 171 196 196 Q171 221 171 256 Q171 291 196 316 ZM165.5 165.5 Q203 128 256 128 Q309 128 346.5 165.5 Q384 203 384 256 Q384 309 346.5 346.5 Q309 384 256 384 Q203 384 165.5 346.5 Q128 309 128 256 Q128 203 165.5 165.5 ZM427 327 L497 256 L427 185 L427 85 L327 85 L256 15 L185 85 L85 85 L85 185 L15 256 L85 327 L85 427 L185 427 L256 497 L327 427 L427 427 L427 327 Z" />
      <glyph glyph-name="" unicode="&#xe1ad;" d="M165.5 165.5 Q203 128 256 128 Q309 128 346.5 165.5 Q384 203 384 256 Q384 309 346.5 346.5 Q309 384 256 384 Q203 384 165.5 346.5 Q128 309 128 256 Q128 203 165.5 165.5 ZM427 185 L427 85 L327 85 L256 15 L185 85 L85 85 L85 185 L15 256 L85 327 L85 427 L185 427 L256 497 L327 427 L427 427 L427 327 L497 256 L427 185 Z" />
      <glyph glyph-name="" unicode="&#xe1ae;" d="M256 128 Q309 128 346.5 165.5 Q384 203 384 256 Q384 309 346.5 346.5 Q309 384 256 384 L256 128 ZM427 185 L427 85 L327 85 L256 15 L185 85 L85 85 L85 185 L15 256 L85 327 L85 427 L185 427 L256 497 L327 427 L427 427 L427 327 L497 256 L427 185 Z" />
      <glyph glyph-name="" unicode="&#xe1af;" d="M256 107 Q328 107 372 163 L428 130 Q364 43 256 43 Q168 43 105.5 105.5 Q43 168 43 256 Q43 339 98.5 399.5 Q154 460 235 468 L235 404 Q181 396 144 354 Q107 312 107 256 Q107 194 150.5 150.5 Q194 107 256 107 ZM277 468 Q358 460 413.5 399.5 Q469 339 469 256 Q469 208 451 169 L395 202 Q405 230 405 256 Q405 312 368 354 Q331 396 277 404 L277 468 Z" />
      <glyph glyph-name="" unicode="&#xe1b0;" d="M363 107 L363 149 L405 149 L405 64 Q405 47 392.5 34 Q380 21 363 21 L149 21 Q132 21 119.5 34 Q107 47 107 64 L107 149 L149 149 L149 107 L363 107 ZM213 188 L183 158 L85 256 L183 354 L213 324 L146 256 L213 188 ZM329 158 L299 188 L366 256 L299 324 L329 354 L427 256 L329 158 ZM149 405 L149 363 L107 363 L107 448 Q107 465 119.5 478 Q132 491 149 491 L363 490 Q380 490 392.5 477.5 Q405 465 405 448 L405 363 L363 363 L363 405 L149 405 Z" />
      <glyph glyph-name="" unicode="&#xe1b1;" d="M469 149 L469 299 L384 299 L384 149 L469 149 ZM491 341 Q500 341 506 335 Q512 329 512 320 L512 107 Q512 98 506 91.5 Q500 85 491 85 L363 85 Q354 85 347.5 91.5 Q341 98 341 107 L341 320 Q341 329 347.5 335 Q354 341 363 341 L491 341 ZM85 384 L85 149 L299 149 L299 85 L0 85 L0 149 L43 149 L43 384 Q43 401 55.5 414 Q68 427 85 427 L469 427 L469 384 L85 384 Z" />
      <glyph glyph-name="" unicode="&#xe1b2;" d="M149 256 L149 213 L107 213 L107 256 L149 256 ZM149 341 L149 299 L107 299 L107 341 L149 341 ZM405 256 L405 213 L171 213 L171 256 L405 256 ZM405 341 L405 299 L171 299 L171 341 L405 341 ZM448 149 L448 405 L64 405 L64 149 L448 149 ZM448 448 Q465 448 478 435 Q491 422 491 405 L490 149 Q490 132 477.5 119.5 Q465 107 448 107 L341 107 L341 64 L171 64 L171 107 L64 107 Q47 107 34 119.5 Q21 132 21 149 L21 405 Q21 422 34 435 Q47 448 64 448 L448 448 Z" />
      <glyph glyph-name="" unicode="&#xe1b3;" d="M150.5 150.5 Q194 107 256 107 Q318 107 361.5 150.5 Q405 194 405 256 Q405 318 361.5 361.5 Q318 405 256 405 Q194 405 150.5 361.5 Q107 318 107 256 Q107 194 150.5 150.5 ZM447 277 L491 277 L491 235 L447 235 Q440 168 392 120 Q344 72 277 65 L277 21 L235 21 L235 65 Q168 72 120 120 Q72 168 65 235 L21 235 L21 277 L65 277 Q72 344 120 392 Q168 440 235 447 L235 491 L277 491 L277 447 Q344 440 392 392 Q440 344 447 277 ZM196 316 Q221 341 256 341 Q291 341 316 316 Q341 291 341 256 Q341 221 316 196 Q291 171 256 171 Q221 171 196 196 Q171 221 171 256 Q171 291 196 316 Z" />
      <glyph glyph-name="" unicode="&#xe1b4;" d="M150.5 150.5 Q194 107 256 107 Q318 107 361.5 150.5 Q405 194 405 256 Q405 318 361.5 361.5 Q318 405 256 405 Q194 405 150.5 361.5 Q107 318 107 256 Q107 194 150.5 150.5 ZM447 277 L491 277 L491 235 L447 235 Q440 168 392 120 Q344 72 277 65 L277 21 L235 21 L235 65 Q168 72 120 120 Q72 168 65 235 L21 235 L21 277 L65 277 Q72 344 120 392 Q168 440 235 447 L235 491 L277 491 L277 447 Q344 440 392 392 Q440 344 447 277 Z" />
      <glyph glyph-name="" unicode="&#xe1b5;" d="M347 138 L138 347 Q107 306 107 256 Q107 194 150.5 150.5 Q194 107 256 107 Q306 107 347 138 ZM64 421 L91 448 L448 91 L421 64 L377 108 Q332 71 277 65 L277 21 L235 21 L235 65 Q168 72 120 120 Q72 168 65 235 L21 235 L21 277 L65 277 Q71 332 108 377 L64 421 ZM447 277 L491 277 L491 235 L447 235 Q442 196 426 167 L394 199 Q405 226 405 256 Q405 318 361.5 361.5 Q318 405 256 405 Q226 405 199 394 L167 426 Q198 442 235 447 L235 491 L277 491 L277 447 Q344 440 392 392 Q440 344 447 277 Z" />
      <glyph glyph-name="" unicode="&#xe1b6;" d="M347 138 L138 347 Q107 306 107 256 Q107 194 150.5 150.5 Q194 107 256 107 Q306 107 347 138 ZM64 421 L91 448 L448 91 L421 64 L377 108 Q332 71 277 65 L277 21 L235 21 L235 65 Q168 72 120 120 Q72 168 65 235 L21 235 L21 277 L65 277 Q71 332 108 377 L64 421 ZM447 277 L491 277 L491 235 L447 235 Q442 196 426 167 L394 199 Q405 226 405 256 Q405 318 361.5 361.5 Q318 405 256 405 Q226 405 199 394 L167 426 Q198 442 235 447 L235 491 L277 491 L277 447 Q344 440 392 392 Q440 344 447 277 Z" />
      <glyph glyph-name="" unicode="&#xe1b7;" d="M150.5 150.5 Q194 107 256 107 Q318 107 361.5 150.5 Q405 194 405 256 Q405 318 361.5 361.5 Q318 405 256 405 Q194 405 150.5 361.5 Q107 318 107 256 Q107 194 150.5 150.5 ZM447 277 L491 277 L491 235 L447 235 Q440 168 392 120 Q344 72 277 65 L277 21 L235 21 L235 65 Q168 72 120 120 Q72 168 65 235 L21 235 L21 277 L65 277 Q72 344 120 392 Q168 440 235 447 L235 491 L277 491 L277 447 Q344 440 392 392 Q440 344 447 277 Z" />
      <glyph glyph-name="" unicode="&#xe1b8;" d="M405 299 L448 299 L448 213 L405 213 L405 299 ZM320 128 L320 384 L363 384 L363 128 L320 128 ZM64 213 L64 299 L107 299 L107 213 L64 213 ZM235 43 L235 469 L277 469 L277 43 L235 43 ZM149 128 L149 384 L192 384 L192 128 L149 128 Z" />
      <glyph glyph-name="" unicode="&#xe1b9;" d="M469 43 L43 43 L469 469 L469 43 Z" />
      <glyph glyph-name="" unicode="&#xe1ba;" d="M436 279 L437 278 L256 54 L75 278 Q75 278 76 279 L8 363 Q129 448 256 448 Q383 448 504 363 L436 279 Z" />
      <glyph glyph-name="" unicode="&#xe1bb;" d="M384 384 L384 128 L128 128 L128 384 L213 384 L213 341 L171 341 L171 171 L341 171 L341 341 L277 341 L277 293 Q299 281 299 256 Q299 239 286 226 Q273 213 256 213 Q239 213 226 226 Q213 239 213 256 Q213 281 235 293 L235 341 Q235 358 247.5 371 Q260 384 277 384 L384 384 ZM427 85 L427 427 L85 427 L85 85 L427 85 ZM427 469 Q444 469 456.5 456.5 Q469 444 469 427 L469 85 Q469 68 456.5 55.5 Q444 43 427 43 L85 43 Q68 43 55.5 55.5 Q43 68 43 85 L43 427 Q43 444 55.5 456.5 Q68 469 85 469 L427 469 Z" />
      <glyph glyph-name="" unicode="&#xe1bc;" d="M85 235 L85 85 L235 85 L235 43 L85 43 Q68 43 55.5 55.5 Q43 68 43 85 L43 235 L85 235 ZM427 85 L427 235 L469 235 L469 85 Q469 68 456.5 55.5 Q444 43 427 43 L277 43 L277 85 L427 85 ZM427 469 Q444 469 456.5 456.5 Q469 444 469 427 L469 277 L427 277 L427 427 L277 427 L277 469 L427 469 ZM353.5 353.5 Q363 344 363 331 Q363 318 353.5 308.5 Q344 299 331 299 Q318 299 308.5 308.5 Q299 318 299 331 Q299 344 308.5 353.5 Q318 363 331 363 Q344 363 353.5 353.5 ZM213 235 L277 156 L320 213 L384 128 L128 128 L213 235 ZM85 427 L85 277 L43 277 L43 427 Q43 444 55.5 456.5 Q68 469 85 469 L235 469 L235 427 L85 427 Z" />
      <glyph glyph-name="" unicode="&#xe1bd;" d="M355 476 L476 355 L355 235 L448 235 L448 64 L277 64 L277 235 L355 235 L235 355 L235 277 L64 277 L64 448 L235 448 L235 355 L355 476 ZM64 64 L64 235 L235 235 L235 64 L64 64 Z" />
      <glyph glyph-name="" unicode="&#xe1be;" d="M230 299 L230 277 L282 277 L282 299 Q282 309 274.5 316.5 Q267 324 256 324 Q245 324 237.5 316.5 Q230 309 230 299 ZM213 171 Q204 171 198 177 Q192 183 192 192 L192 256 Q192 265 198 271 Q204 277 213 277 L213 299 Q213 316 225.5 328.5 Q238 341 256 341 Q274 341 286.5 329 Q299 317 299 299 L299 277 Q308 277 314 271 Q320 265 320 256 L320 192 Q320 183 314 177 Q308 171 299 171 L213 171 ZM405 149 L405 363 L107 363 L107 149 L405 149 ZM448 405 Q465 405 478 392.5 Q491 380 491 363 L491 149 Q491 132 478 119.5 Q465 107 448 107 L64 107 Q47 107 34 119.5 Q21 132 21 149 L21 363 Q21 380 34 392.5 Q47 405 64 405 L448 405 Z" />
      <glyph glyph-name="" unicode="&#xe1bf;" d="M363 107 L363 405 L149 405 L149 107 L363 107 ZM363 491 Q380 491 392.5 478 Q405 465 405 448 L405 64 Q405 47 392.5 34 Q380 21 363 21 L149 21 Q132 21 119.5 34 Q107 47 107 64 L107 448 Q107 465 119.5 478 Q132 491 149 491 L363 491 ZM230 299 L230 277 L282 277 L282 299 Q282 309 274.5 316.5 Q267 324 256 324 Q245 324 237.5 316.5 Q230 309 230 299 ZM213 171 Q204 171 198 177 Q192 183 192 192 L192 256 Q192 265 198 271 Q204 277 213 277 L213 299 Q213 316 225.5 328.5 Q238 341 256 341 Q274 341 286.5 329 Q299 317 299 299 L299 277 Q308 277 314 271 Q320 265 320 256 L320 192 Q320 183 314 177 Q308 171 299 171 L213 171 Z" />
      <glyph glyph-name="" unicode="&#xe1c0;" d="M358 459 L358 448 L431 448 L431 459 Q431 474 420.5 484.5 Q410 495 395 495 Q380 495 369 484.5 Q358 474 358 459 ZM341 320 Q332 320 326 326 Q320 332 320 341 L320 427 Q320 436 326 442 Q332 448 341 448 L341 459 Q341 481 357 496.5 Q373 512 395 512 Q417 512 432.5 496.5 Q448 481 448 459 L448 448 Q457 448 463 442 Q469 436 469 427 L469 341 Q469 332 463 326 Q457 320 448 320 L341 320 ZM181 75 L209 103 L290 22 L276 21 Q176 21 102.5 89 Q29 157 21 256 L53 256 Q59 197 93.5 148.5 Q128 100 181 75 ZM496 240 Q506 231 506 217.5 Q506 204 496 194 L360 59 Q351 49 338 49 Q325 49 315 59 L59 315 Q49 324 49 337 Q49 350 59 360 L194 496 Q203 506 216.5 506 Q230 506 240 496 L292 444 L262 414 L217 458 L96 338 L338 96 L458 217 L411 264 L441 294 L496 240 Z" />
      <glyph glyph-name="" unicode="&#xe1c1;" d="M160 54 L189 82 L270 1 L256 0 Q156 0 82.5 68 Q9 136 1 235 L33 235 Q39 175 73 127 Q107 79 160 54 ZM316 60 L452 196 L196 452 L60 316 L316 60 ZM218 475 L475 218 Q485 209 485 196 Q485 183 475 173 L339 37 Q330 27 317 27 Q304 27 294 37 L37 294 Q27 303 27 316 Q27 329 37 339 L173 475 Q182 485 195 485 Q208 485 218 475 ZM352 458 L323 430 L242 511 L256 512 Q356 512 429.5 444 Q503 376 511 277 L479 277 Q473 337 439 385 Q405 433 352 458 Z" />
      <glyph glyph-name="" unicode="&#xe1c2;" d="M384 341 L384 427 L341 427 L341 341 L384 341 ZM320 341 L320 427 L277 427 L277 341 L320 341 ZM256 341 L256 427 L213 427 L213 341 L256 341 ZM384 469 Q401 469 414 456.5 Q427 444 427 427 L427 85 Q427 68 414 55.5 Q401 43 384 43 L128 43 Q111 43 98 55.5 Q85 68 85 85 L86 341 L213 469 L384 469 Z" />
      <glyph glyph-name="" unicode="&#xe1c3;" d="M448 106 L448 406 L64 406 L64 106 L448 106 ZM448 448 Q465 448 478 435 Q491 422 491 405 L491 107 Q491 90 478 77 Q465 64 448 64 L64 64 Q47 64 34 77 Q21 90 21 107 L21 405 Q21 422 34 435 Q47 448 64 448 L448 448 ZM192 171 Q166 171 147 190 Q128 209 128 235 Q128 260 144.5 278 Q161 296 185 298 L189 298 Q210 341 256 341 Q284 341 305 322.5 Q326 304 330 277 L331 277 Q353 277 368.5 261.5 Q384 246 384 224 Q384 202 368.5 186.5 Q353 171 331 171 L192 171 Z" />
      <glyph glyph-name="" unicode="&#xe1c8;" d="M43 43 L469 469 L469 43 L43 43 Z" />
      <glyph glyph-name="" unicode="&#xe1cd;" d="M43 43 L469 469 L469 341 L384 341 L384 43 L43 43 ZM427 43 L427 85 L469 85 L469 43 L427 43 ZM427 128 L427 299 L469 299 L469 128 L427 128 Z" />
      <glyph glyph-name="" unicode="&#xe1ce;" d="M78 429 L451 57 L423 29 L383 70 Q371 64 363 64 L149 64 Q132 64 119.5 77 Q107 90 107 107 L107 346 L51 402 L78 429 ZM405 405 L405 156 L163 398 L213 448 L363 448 Q380 448 392.5 435 Q405 422 405 405 Z" />
      <glyph glyph-name="" unicode="&#xe1cf;" d="M469 469 L469 43 L43 43 L469 469 ZM427 366 L146 85 L427 85 L427 366 Z" />
      <glyph glyph-name="" unicode="&#xe1d0;" d="M102 416 L469 48 L442 21 L400 64 L21 64 L210 253 L75 389 L102 416 ZM448 491 L448 124 L265 307 L448 491 Z" />
      <glyph glyph-name="" unicode="&#xe1d8;" d="M256 54 L8 363 Q129 448 256 448 Q383 448 504 363 L256 54 Z" />
      <glyph glyph-name="" unicode="&#xe1d9;" d="M331 203 L331 147 L256 53 L9 363 L15 368 Q21 372 27.5 376.5 Q34 381 45 388 Q56 395 68.5 401 Q81 407 97 414.5 Q113 422 131 427.5 Q149 433 168.5 438 Q188 443 210.5 445.5 Q233 448 256 448 Q279 448 301.5 445.5 Q324 443 343.5 438 Q363 433 381 427.5 Q399 422 415 414.5 Q431 407 443.5 401 Q456 395 467 388 Q478 381 484.5 376.5 Q491 372 497 368 L503 363 L459 307 Q453 309 437 309 Q392 309 361.5 278.5 Q331 248 331 203 ZM469 171 L469 203 Q469 216 459.5 225.5 Q450 235 437 235 Q424 235 414.5 225.5 Q405 216 405 203 L405 171 L469 171 ZM491 171 Q499 171 505.5 164 Q512 157 512 149 L512 64 Q512 56 505.5 49.5 Q499 43 491 43 L384 43 Q376 43 369.5 49.5 Q363 56 363 64 L363 149 Q363 157 369.5 164 Q376 171 384 171 L384 203 Q384 226 399 241 Q414 256 437 256 Q460 256 475.5 240.5 Q491 225 491 203 L491 171 Z" />
      <glyph glyph-name="" unicode="&#xe1da;" d="M70 481 Q82 469 223.5 328 Q365 187 437 113 L410 86 L339 157 L256 54 L8 363 Q41 390 86 410 L43 454 L70 481 ZM504 363 L388 218 L167 438 Q212 448 256 448 Q383 448 504 363 Z" />
      <glyph glyph-name="" unicode="&#xe1db;" d="M85 277 L85 235 L128 235 L128 277 L85 277 ZM43 213 L43 299 L469 299 L469 213 L43 213 ZM128 363 L128 405 L85 405 L85 363 L128 363 ZM43 427 L469 427 L469 341 L43 341 L43 427 ZM85 149 L85 107 L128 107 L128 149 L85 149 ZM43 85 L43 171 L469 171 L469 85 L43 85 Z" />
      <glyph glyph-name="" unicode="&#xe1e0;" d="M320 363 L405 363 L405 277 L384 277 L384 235 Q384 217 371.5 204.5 Q359 192 341 192 L277 192 L277 127 Q303 113 303 85 Q303 66 289.5 52 Q276 38 256 38 Q236 38 222.5 52 Q209 66 209 85 Q209 113 235 127 L235 192 L171 192 Q153 192 140.5 204.5 Q128 217 128 235 L128 279 Q102 293 102 320 Q102 340 116 353.5 Q130 367 149 367 Q168 367 182 353.5 Q196 340 196 320 Q196 292 171 279 L171 235 L235 235 L235 405 L192 405 L256 491 L320 405 L277 405 L277 235 L341 235 L341 277 L320 277 L320 363 Z" />
      <glyph glyph-name="" unicode="&#xe1e1;" d="M469 171 L469 203 Q469 216 459.5 225.5 Q450 235 437 235 Q424 235 414.5 225.5 Q405 216 405 203 L405 171 L469 171 ZM491 171 Q500 171 506 164.5 Q512 158 512 149 L512 64 Q512 55 506 49 Q500 43 491 43 L384 43 Q375 43 369 49 Q363 55 363 64 L363 149 Q363 158 369 164.5 Q375 171 384 171 L384 203 Q384 225 399.5 240.5 Q415 256 437 256 Q459 256 475 240.5 Q491 225 491 203 L491 171 ZM437 309 Q393 309 362 278 Q331 247 331 203 L331 142 L256 43 L0 384 Q112 469 256 469 Q400 469 512 384 L455 308 Q449 309 437 309 Z" />
      <glyph glyph-name="" unicode="&#xe1e2;" d="M105.5 386 Q168 448 256 448 Q344 448 406.5 386 Q469 324 469 235 Q469 177 440.5 127.5 Q412 78 363 50 L341 87 Q380 110 403.5 149.5 Q427 189 427 235 Q427 305 377 355 Q327 405 256 405 Q185 405 135 355 Q85 305 85 235 Q85 188 108 149 Q131 110 170 87 L149 50 Q100 78 71.5 127.5 Q43 177 43 235 Q43 324 105.5 386 ZM384 235 Q384 200 366.5 170.5 Q349 141 320 124 L299 161 Q341 186 341 235 Q341 270 316 295 Q291 320 256 320 Q221 320 196 295 Q171 270 171 235 Q171 186 213 161 L192 124 Q163 141 145.5 170.5 Q128 200 128 235 Q128 288 165.5 325.5 Q203 363 256 363 Q309 363 346.5 325.5 Q384 288 384 235 ZM226 264.5 Q239 277 256 277 Q273 277 286 264.5 Q299 252 299 235 Q299 218 286 205 Q273 192 256 192 Q239 192 226 205 Q213 218 213 235 Q213 252 226 264.5 Z" />
      <glyph glyph-name="" unicode="&#xe226;" d="M352 384 L384 384 L384 139 Q384 90 350 55.5 Q316 21 267 21 Q218 21 183.5 55.5 Q149 90 149 139 L149 405 Q149 440 174.5 465.5 Q200 491 235 491 Q270 491 295 465.5 Q320 440 320 405 L320 181 Q320 159 304.5 143.5 Q289 128 267 128 Q245 128 229 143.5 Q213 159 213 181 L213 384 L245 384 L245 181 Q245 172 251.5 166 Q258 160 267 160 Q276 160 282 166 Q288 172 288 181 L288 405 Q288 427 272.5 443 Q257 459 235 459 Q213 459 197 443 Q181 427 181 405 L181 139 Q181 104 206.5 78.5 Q232 53 267 53 Q302 53 327 78.5 Q352 104 352 139 L352 384 Z" />
      <glyph glyph-name="" unicode="&#xe227;" d="M252 279 Q274 273 288.5 267 Q303 261 319 250.5 Q335 240 343.5 224 Q352 208 352 186 Q352 155 331.5 135.5 Q311 116 277 110 L277 64 L213 64 L213 110 Q180 117 158.5 138 Q137 159 135 192 L182 192 Q186 147 245 147 Q276 147 289.5 158.5 Q303 170 303 185 Q303 221 239 237 Q139 260 139 325 Q139 354 160 374.5 Q181 395 213 402 L213 448 L277 448 L277 401 Q310 393 327.5 371 Q345 349 346 320 L299 320 Q297 365 245 365 Q219 365 203.5 354 Q188 343 188 325 Q188 296 252 279 Z" />
      <glyph glyph-name="" unicode="&#xe228;" d="M405 277 L405 405 L277 405 L277 277 L405 277 ZM405 107 L405 235 L277 235 L277 107 L405 107 ZM235 277 L235 405 L107 405 L107 277 L235 277 ZM235 107 L235 235 L107 235 L107 107 L235 107 ZM64 448 L448 448 L448 64 L64 64 L64 448 Z" />
      <glyph glyph-name="" unicode="&#xe229;" d="M107 192 L107 149 L64 149 L64 192 L107 192 ZM64 64 L64 107 L448 107 L448 64 L64 64 ZM107 277 L107 235 L64 235 L64 277 L107 277 ZM405 320 L405 363 L448 363 L448 320 L405 320 ZM405 448 L448 448 L448 405 L405 405 L405 448 ZM107 363 L107 320 L64 320 L64 363 L107 363 ZM405 149 L405 192 L448 192 L448 149 L405 149 ZM405 235 L405 277 L448 277 L448 235 L405 235 ZM363 448 L363 405 L320 405 L320 448 L363 448 ZM277 448 L277 405 L235 405 L235 448 L277 448 ZM363 277 L363 235 L320 235 L320 277 L363 277 ZM277 363 L277 320 L235 320 L235 363 L277 363 ZM107 448 L107 405 L64 405 L64 448 L107 448 ZM277 277 L277 235 L235 235 L235 277 L277 277 ZM192 448 L192 405 L149 405 L149 448 L192 448 ZM277 192 L277 149 L235 149 L235 192 L277 192 ZM192 277 L192 235 L149 235 L149 277 L192 277 Z" />
      <glyph glyph-name="" unicode="&#xe22a;" d="M320 405 L320 448 L363 448 L363 405 L320 405 ZM320 235 L320 277 L363 277 L363 235 L320 235 ZM320 64 L320 107 L363 107 L363 64 L320 64 ZM235 405 L235 448 L277 448 L277 405 L235 405 ZM405 448 L448 448 L448 405 L405 405 L405 448 ZM235 320 L235 363 L277 363 L277 320 L235 320 ZM405 320 L405 363 L448 363 L448 320 L405 320 ZM405 64 L405 107 L448 107 L448 64 L405 64 ZM405 235 L405 277 L448 277 L448 235 L405 235 ZM405 149 L405 192 L448 192 L448 149 L405 149 ZM235 235 L235 277 L277 277 L277 235 L235 235 ZM64 405 L64 448 L107 448 L107 405 L64 405 ZM64 320 L64 363 L107 363 L107 320 L64 320 ZM64 235 L64 277 L107 277 L107 235 L64 235 ZM64 149 L64 192 L107 192 L107 149 L64 149 ZM64 64 L64 107 L107 107 L107 64 L64 64 ZM235 64 L235 107 L277 107 L277 64 L235 64 ZM235 149 L235 192 L277 192 L277 149 L235 149 ZM149 64 L149 107 L192 107 L192 64 L149 64 ZM149 235 L149 277 L192 277 L192 235 L149 235 ZM149 405 L149 448 L192 448 L192 405 L149 405 Z" />
      <glyph glyph-name="" unicode="&#xe22b;" d="M0 85 L512 85 L512 0 L0 0 L0 85 ZM442 426 L400 384 L320 464 L362 506 Q368 512 377 512 Q386 512 392 506 L442 456 Q448 450 448 441 Q448 432 442 426 ZM379 363 L165 149 L85 149 L85 229 L299 443 L379 363 Z" />
      <glyph glyph-name="" unicode="&#xe22c;" d="M405 64 L405 107 L448 107 L448 64 L405 64 ZM320 64 L320 107 L363 107 L363 64 L320 64 ZM235 149 L235 192 L277 192 L277 149 L235 149 ZM405 320 L405 363 L448 363 L448 320 L405 320 ZM405 448 L448 448 L448 405 L405 405 L405 448 ZM64 235 L64 277 L448 277 L448 235 L64 235 ZM235 64 L235 107 L277 107 L277 64 L235 64 ZM405 149 L405 192 L448 192 L448 149 L405 149 ZM277 448 L277 405 L235 405 L235 448 L277 448 ZM277 363 L277 320 L235 320 L235 363 L277 363 ZM363 448 L363 405 L320 405 L320 448 L363 448 ZM192 448 L192 405 L149 405 L149 448 L192 448 ZM107 448 L107 405 L64 405 L64 448 L107 448 ZM149 64 L149 107 L192 107 L192 64 L149 64 ZM64 149 L64 192 L107 192 L107 149 L64 149 ZM107 363 L107 320 L64 320 L64 363 L107 363 ZM64 64 L64 107 L107 107 L107 64 L64 64 Z" />
      <glyph glyph-name="" unicode="&#xe22d;" d="M405 149 L405 192 L448 192 L448 149 L405 149 ZM405 64 L405 107 L448 107 L448 64 L405 64 ZM277 448 L277 277 L448 277 L448 235 L277 235 L277 64 L235 64 L235 235 L64 235 L64 277 L235 277 L235 448 L277 448 ZM320 64 L320 107 L363 107 L363 64 L320 64 ZM405 448 L448 448 L448 405 L405 405 L405 448 ZM405 320 L405 363 L448 363 L448 320 L405 320 ZM363 448 L363 405 L320 405 L320 448 L363 448 ZM107 448 L107 405 L64 405 L64 448 L107 448 ZM192 448 L192 405 L149 405 L149 448 L192 448 ZM64 149 L64 192 L107 192 L107 149 L64 149 ZM107 363 L107 320 L64 320 L64 363 L107 363 ZM149 64 L149 107 L192 107 L192 64 L149 64 ZM64 64 L64 107 L107 107 L107 64 L64 64 Z" />
      <glyph glyph-name="" unicode="&#xe22e;" d="M320 405 L320 448 L363 448 L363 405 L320 405 ZM320 235 L320 277 L363 277 L363 235 L320 235 ZM405 64 L405 107 L448 107 L448 64 L405 64 ZM405 235 L405 277 L448 277 L448 235 L405 235 ZM405 448 L448 448 L448 405 L405 405 L405 448 ZM405 149 L405 192 L448 192 L448 149 L405 149 ZM320 64 L320 107 L363 107 L363 64 L320 64 ZM405 320 L405 363 L448 363 L448 320 L405 320 ZM64 64 L64 448 L107 448 L107 64 L64 64 ZM149 235 L149 277 L192 277 L192 235 L149 235 ZM149 405 L149 448 L192 448 L192 405 L149 405 ZM149 64 L149 107 L192 107 L192 64 L149 64 ZM235 235 L235 277 L277 277 L277 235 L235 235 ZM235 320 L235 363 L277 363 L277 320 L235 320 ZM235 405 L235 448 L277 448 L277 405 L235 405 ZM235 149 L235 192 L277 192 L277 149 L235 149 ZM235 64 L235 107 L277 107 L277 64 L235 64 Z" />
      <glyph glyph-name="" unicode="&#xe22f;" d="M192 277 L192 235 L149 235 L149 277 L192 277 ZM277 192 L277 149 L235 149 L235 192 L277 192 ZM405 107 L405 405 L107 405 L107 107 L405 107 ZM64 448 L448 448 L448 64 L64 64 L64 448 ZM363 277 L363 235 L320 235 L320 277 L363 277 ZM277 277 L277 235 L235 235 L235 277 L277 277 ZM277 363 L277 320 L235 320 L235 363 L277 363 Z" />
      <glyph glyph-name="" unicode="&#xe230;" d="M235 320 L235 363 L277 363 L277 320 L235 320 ZM235 405 L235 448 L277 448 L277 405 L235 405 ZM235 235 L235 277 L277 277 L277 235 L235 235 ZM320 405 L320 448 L363 448 L363 405 L320 405 ZM320 64 L320 107 L363 107 L363 64 L320 64 ZM405 448 L448 448 L448 64 L405 64 L405 448 ZM320 235 L320 277 L363 277 L363 235 L320 235 ZM235 149 L235 192 L277 192 L277 149 L235 149 ZM64 320 L64 363 L107 363 L107 320 L64 320 ZM64 149 L64 192 L107 192 L107 149 L64 149 ZM64 235 L64 277 L107 277 L107 235 L64 235 ZM235 64 L235 107 L277 107 L277 64 L235 64 ZM64 64 L64 107 L107 107 L107 64 L64 64 ZM149 235 L149 277 L192 277 L192 235 L149 235 ZM149 405 L149 448 L192 448 L192 405 L149 405 ZM64 405 L64 448 L107 448 L107 405 L64 405 ZM149 64 L149 107 L192 107 L192 64 L149 64 Z" />
      <glyph glyph-name="" unicode="&#xe231;" d="M405 320 L405 363 L448 363 L448 320 L405 320 ZM64 448 L448 448 L448 405 L107 405 L107 64 L64 64 L64 448 ZM405 235 L405 277 L448 277 L448 235 L405 235 ZM405 149 L405 192 L448 192 L448 149 L405 149 ZM235 64 L235 107 L277 107 L277 64 L235 64 ZM149 64 L149 107 L192 107 L192 64 L149 64 ZM405 64 L405 107 L448 107 L448 64 L405 64 ZM320 64 L320 107 L363 107 L363 64 L320 64 Z" />
      <glyph glyph-name="" unicode="&#xe232;" d="M320 235 L320 277 L363 277 L363 235 L320 235 ZM405 64 L405 107 L448 107 L448 64 L405 64 ZM235 320 L235 363 L277 363 L277 320 L235 320 ZM320 64 L320 107 L363 107 L363 64 L320 64 ZM405 149 L405 192 L448 192 L448 149 L405 149 ZM64 448 L448 448 L448 405 L64 405 L64 448 ZM405 235 L405 277 L448 277 L448 235 L405 235 ZM405 320 L405 363 L448 363 L448 320 L405 320 ZM235 149 L235 192 L277 192 L277 149 L235 149 ZM64 320 L64 363 L107 363 L107 320 L64 320 ZM64 235 L64 277 L107 277 L107 235 L64 235 ZM64 64 L64 107 L107 107 L107 64 L64 64 ZM64 149 L64 192 L107 192 L107 149 L64 149 ZM235 64 L235 107 L277 107 L277 64 L235 64 ZM235 235 L235 277 L277 277 L277 235 L235 235 ZM149 235 L149 277 L192 277 L192 235 L149 235 ZM149 64 L149 107 L192 107 L192 64 L149 64 Z" />
      </font>
</defs>
</svg>
