<svg xmlns="http://www.w3.org/2000/svg" height="24" viewBox="0 -960 960 960" width="24"><path d="M480-330.174q-68.435 0-126.174 19.021-57.739 19.022-107.043 54.196v90.174h466.434v-90.74q-49.304-35.173-107.043-53.912Q548.435-330.174 480-330.174ZM246.783-60.782q-44.305 0-75.153-30.848-30.848-30.848-30.848-75.153v-626.434q0-44.305 30.848-75.153 30.848-30.848 75.153-30.848h466.434q44.305 0 75.153 30.848 30.848 30.848 30.848 75.153v626.434q0 44.305-30.848 75.153-30.848 30.848-75.153 30.848H246.783ZM480-388.695q60.261 0 102.391-42.131 42.131-42.13 42.131-102.391t-42.131-102.109Q540.261-677.174 480-677.174t-102.391 41.848q-42.131 41.848-42.131 102.109 0 60.261 42.131 102.391 42.13 42.131 102.391 42.131Z"/></svg>