<svg xmlns="http://www.w3.org/2000/svg" height="20" viewBox="0 -960 960 960" width="20"><path d="M264-168v-624 624Zm216-217q60 0 103-39t51-97q-11-8-20.5-14.5T592-548H434q3-43 15-77.5t31-58.36V-696q-65 0-110 45.71t-45 110.5Q325-475 370.15-430T480-385ZM244-148v-664h264q-.52 6.07-.76 10.53-.24 4.47-2.18 9.47H264v624h432v-336q4 2 9 5t11 5v346H244Zm236-251q-19-25-31-59t-15-74h92q-3 40-15 74t-31 59Zm-26-1q-46-11-78-47t-38-85h80.3q1.14 31.07 9.92 64.54Q437-434 454-400ZM338-548q7-52 42-89.5t82-45.5q-20 25-30.78 59.96-10.78 34.97-12.92 75.04H338Zm162 148q18-31 28.78-64.96 10.78-33.97 12.92-67.04H576q10 8 19.5 13.5T616-508q-12 40-43 69.5T500-400ZM360-256h240v-16H360v16Zm379-336q-6 0-8-6-12-50-47.5-85.5t-85.86-47.72Q592-733 592-739.5q0-7.5 6-7.5 49.93-12.86 85.47-47.93Q719-830 731.22-880.36 733-886 739-886q7 0 8 6 12 50 47.65 85.14 35.64 35.14 85.73 47.94Q886-746 886-739q0 6-6 8-50 12-85.5 47.5t-47.62 85.86Q746-592 739-592Z"/></svg>