<svg xmlns="http://www.w3.org/2000/svg" height="48" width="48"><path d="M28.1 41q-.35 0-.6-.25t-.25-.6q0-.35.25-.625t.6-.275h9.25L29.85 34q-.3-.2-.4-.55-.1-.35.15-.65.15-.3.5-.375.35-.075.7.075l7.55 5.3-3.2-8.65q-.1-.4.05-.7.15-.3.55-.4.3-.15.675.025.375.175.475.525l3.05 8.6 2.45-8.85q.05-.3.35-.5t.7-.15q.3.1.5.4.2.3.15.6L41 40.3q-.1.25-.35.475-.25.225-.55.225ZM7 39.6V12.3q0-1.4.95-2.375.95-.975 2.4-.975H33.7q1.4 0 2.375.975.975.975.975 2.375v9.75q-.3 0-.55-.025Q36.25 22 36 22q-.2 0-.375.025T35.3 22v-9.7q0-.6-.5-1.1-.5-.5-1.1-.5H10.35q-.6 0-1.1.5-.5.5-.5 1.1v23.35l2.35-2.4h12.95q0 .2-.025.375T24 34q0 .25.025.5t.075.5H11.6Zm7-20.9v-1.75h16.05v1.75Zm0 8.15V25.1h10.05v1.75Z"/></svg>