<svg xmlns="http://www.w3.org/2000/svg" height="24" width="24"><path d="m10.725 17.4-2.65 1.65q-.2.1-.387 0-.188-.1-.188-.325V15.35q0-.225.188-.338.187-.112.387.013l2.65 1.625q.2.125.2.388 0 .262-.2.362ZM13.1 9.175q-1.075 0-1.812-.75-.738-.75-.738-1.8 0-1.075.738-1.825.737-.75 1.812-.75h.5q.3 0 .5.2t.2.5q0 .275-.2.475-.2.2-.5.2h-.5q-.5 0-.837.35-.338.35-.338.85 0 .475.338.825.337.35.837.35h.5q.3 0 .5.2t.2.5q0 .275-.2.475-.2.2-.5.2Zm4 0h-.5q-.3 0-.487-.2-.188-.2-.188-.5t.188-.488Q16.3 7.8 16.6 7.8h.5q.5 0 .85-.35t.35-.85q0-.5-.35-.838-.35-.337-.85-.337h-.5q-.3 0-.487-.2-.188-.2-.188-.5t.188-.488q.187-.187.487-.187h.5q1.075 0 1.825.75t.75 1.8q0 1.075-.75 1.825t-1.825.75ZM16.35 7.3h-2.5q-.3 0-.487-.2-.188-.2-.188-.5t.188-.487q.187-.188.487-.188h2.5q.3 0 .5.2t.2.5q0 .275-.2.475-.2.2-.5.2Zm-.25 7.475v-3.35h4.65V3.25H9.45v8.175H6.1v-8.5q0-1.275.875-2.15T9.125-.1h11.95q1.275 0 2.15.875t.875 2.15v8.825q0 1.275-.875 2.15t-2.15.875ZM2.925 24.1q-1.275 0-2.15-.875t-.875-2.15V13q0-1.275.875-2.15t2.15-.875h11.95q1.275 0 2.15.875T17.9 13v8.075q0 1.275-.875 2.15t-2.15.875Zm.325-3.35h11.3v-7.425H3.25v7.425ZM15.1 7.325Zm-6.2 9.7Z"/></svg>