<svg xmlns="http://www.w3.org/2000/svg" height="24" viewBox="0 -960 960 960" width="24"><path d="M315-97q-24.44 0-40.97-16.77-16.53-16.76-16.53-40.73v-651q0-24.44 16.27-40.97Q290.03-863 315-863h335.5q23.97 0 40.73 16.77Q708-829.47 708-805.5v131q13.5 0 24.25 8.89T743-643.02v65.98q0 14.04-10.75 23.29T708-545v390.5q0 23.97-16.77 40.73Q674.47-97 650.5-97H315Zm153.5-283.6q1.05 6.04 4.83 9.82 3.77 3.78 9.9 3.78h-1.04q5.81 0 9.58-3.86 3.77-3.86 4.73-9.64l1.1-12.96q18.2-2.9 30.85-10.69 12.65-7.79 21.55-18.35l10.97 4.87q5.03 3.13 10.28 1.88 5.25-1.25 8.25-6.25l-.37 1.67q2.87-4.7 1.62-10.19-1.25-5.48-6.06-9.27L564.5-447q6-17.1 6-32.75 0-15.65-6-32.75l10.42-7.62q4.58-2.66 5.83-7.91 1.25-5.24-1.53-10L580-537q-3-4.5-8.75-6.5t-10.99 1.05L549.78-537q-8.66-10.82-21.3-18.71-12.63-7.9-30.79-10.65l-1.23-13.47q-1.06-5.87-4.68-9.52-3.61-3.65-9.51-3.65h.96q-6.13 0-9.95 3.72-3.81 3.72-4.78 9.28l-1.17 13.63q-18.18 2.76-30.81 10.66-12.64 7.89-21.3 18.71l-11.48-5.45q-5.24-3.05-10.49-1.55-5.25 1.5-7.95 6.09l.74-1.01q-3.04 4.79-1.79 10.11 1.25 5.31 5.85 8.91l10.4 7.4q-6 17.1-6 32.75 0 15.65 6 32.75l-9.87 7.31q-5.13 3.19-6.38 8.44t2.1 9.72L386-423q2.5 5 8.25 6.75t10.78-1.38l9.97-4.87q8.9 10.56 21.6 18.27 12.7 7.72 30.97 10.9l.93 12.73Zm14-37.4q-26 0-44-18t-18-44q0-26 18-44t44-18q26 0 44 18t18 44q0 26-18 44t-44 18Z"/></svg>