<svg xmlns="http://www.w3.org/2000/svg" height="24" width="24"><path d="M17.35 21.3q-1.8 0-3.075-1.275Q13 18.75 13 16.95q0-1.825 1.275-3.1 1.275-1.275 3.075-1.275 1.8 0 3.075 1.275 1.275 1.275 1.275 3.1 0 1.8-1.262 3.075Q19.175 21.3 17.35 21.3Zm1.35-2.425q.125.125.288.125.162 0 .312-.125.125-.125.113-.3-.013-.175-.138-.3l-1.5-1.5v-2.3q0-.15-.125-.287-.125-.138-.3-.138t-.312.138q-.138.137-.138.287v2.3q0 .15.063.312.062.163.212.288ZM5.4 20.3q-.7 0-1.2-.5t-.5-1.2V5.4q0-.725.5-1.225.5-.5 1.2-.5h4.425q.2-.725.8-1.2Q11.225 2 12 2t1.375.475q.6.475.8 1.2H18.6q.725 0 1.225.5.5.5.5 1.225v6.05q-.35-.2-.675-.325-.325-.125-.725-.25V5.4q0-.15-.088-.238-.087-.087-.237-.087h-2.225V5.9q0 .7-.5 1.2t-1.2.5H9.35q-.7 0-1.2-.5t-.5-1.2v-.825H5.4q-.125 0-.212.087Q5.1 5.25 5.1 5.4v13.2q0 .125.088.212.087.088.212.088h6.025q.125.425.275.737.15.313.4.663ZM12 5.125q.375 0 .625-.25t.25-.625q0-.35-.262-.6Q12.35 3.4 12 3.4t-.6.25q-.25.25-.25.6 0 .375.25.625t.6.25Z"/></svg>