<svg xmlns="http://www.w3.org/2000/svg" version="1.1" width="3300" height="2000"><g id="Notes"><style>
    text {
      font-family: monospace;
      text-anchor: middle;
    }
    text.emphasis {
      font-weight:bold;
    }
    text.lanchor {
      text-anchor: start;
    }
  </style><rect height="2200" id="artboard" fill="white" width="3300" x="0" y="0"/><line id="" style="fill:none;stroke:black;stroke-width:0.5;" x1="263" x2="3036" y1="292" y2="292"/><text class="lanchor emphasis" transform="matrix(1 0 0 1 263 322)">Weight/Scale Variations</text><text transform="matrix(1 0 0 1 559.711 322)">Ultralight</text><text transform="matrix(1 0 0 1 856.422 322)">Thin</text><text transform="matrix(1 0 0 1 1153.13 322)">Light</text><text transform="matrix(1 0 0 1 1449.84 322)">Regular</text><text transform="matrix(1 0 0 1 1746.56 322)">Medium</text><text transform="matrix(1 0 0 1 2043.27 322)">Semibold</text><text transform="matrix(1 0 0 1 2339.98 322)">Bold</text><text transform="matrix(1 0 0 1 2636.69 322)">Heavy</text><text transform="matrix(1 0 0 1 2933.4 322)">Black</text><text id="template-version" style="text-anchor: end;" transform="matrix(1 0 0 1 3036 1933)">Template v.1.0</text><text class="lanchor" transform="matrix(1 0 0 1 263 726)">Small</text><text class="lanchor" transform="matrix(1 0 0 1 263 1156)">Medium</text><text class="lanchor" transform="matrix(1 0 0 1 263 1586)">Large</text></g><g id="Guides"><g id="H-reference" style="fill:#27AAE1;stroke:none;" transform="matrix(1 0 0 1 339 696)"><path d="M 54.9316 0 L 57.666 0 L 30.5664 -70.459 L 28.0762 -70.459 L 0.976562 0 L 3.66211 0 L 12.9395 -24.4629 L 45.7031 -24.4629 Z M 29.1992 -67.0898 L 29.4434 -67.0898 L 44.8242 -26.709 L 13.8184 -26.709 Z"/></g><line id="Baseline-S" style="fill:none;stroke:#27AAE1;opacity:1;stroke-width:0.577;" x1="263" x2="3036" y1="696" y2="696"/><line id="Capline-S" style="fill:none;stroke:#27AAE1;opacity:1;stroke-width:0.577;" x1="263" x2="3036" y1="625.541" y2="625.541"/><g id="H-reference" style="fill:#27AAE1;stroke:none;" transform="matrix(1 0 0 1 339 1126)"><path d="M 54.9316 0 L 57.666 0 L 30.5664 -70.459 L 28.0762 -70.459 L 0.976562 0 L 3.66211 0 L 12.9395 -24.4629 L 45.7031 -24.4629 Z M 29.1992 -67.0898 L 29.4434 -67.0898 L 44.8242 -26.709 L 13.8184 -26.709 Z"/></g><line id="Baseline-M" style="fill:none;stroke:#27AAE1;opacity:1;stroke-width:0.577;" x1="263" x2="3036" y1="1126" y2="1126"/><line id="Capline-M" style="fill:none;stroke:#27AAE1;opacity:1;stroke-width:0.577;" x1="263" x2="3036" y1="1055.54" y2="1055.54"/><g id="H-reference" style="fill:#27AAE1;stroke:none;" transform="matrix(1 0 0 1 339 1556)"><path d="M 54.9316 0 L 57.666 0 L 30.5664 -70.459 L 28.0762 -70.459 L 0.976562 0 L 3.66211 0 L 12.9395 -24.4629 L 45.7031 -24.4629 Z M 29.1992 -67.0898 L 29.4434 -67.0898 L 44.8242 -26.709 L 13.8184 -26.709 Z"/></g><line id="Baseline-L" style="fill:none;stroke:#27AAE1;opacity:1;stroke-width:0.577;" x1="263" x2="3036" y1="1556" y2="1556"/><line id="Capline-L" style="fill:none;stroke:#27AAE1;opacity:1;stroke-width:0.577;" x1="263" x2="3036" y1="1485.54" y2="1485.54"/><rect height="119.336" id="left-margin" style="fill:darkred;stroke:none;opacity:0.4;" width="12.4512" x="1394.06" y="1030.79"/><rect height="119.336" id="right-margin" style="fill:darkgreen;stroke:none;opacity:0.4;" width="12.4512" x="1502.5112" y="1030.79"/><rect x="1406.5112" y="1045" width="96" height="96" fill="none" stroke="blue" stroke-dasharray="5"/><rect x="1394.06" y="1030.79" width="120.9024" height="119.336" fill="none" stroke="blue"/></g><g id="Symbols"><g id="Bold-L" transform="matrix(1 0 0 1 2266 1556)"><path d="M35.31375 27.6575 Q32.73375 28.786250000000024 29.992500000000003 28.30250000000001 Q27.25125 27.818749999999994 25.31625 25.88375000000002 Q23.38125 23.787499999999994 22.816875 21.20750000000001 Q22.2525 18.627500000000026 23.38125 16.047500000000014 L70.46625 -91.345 Q72.40125 -95.86 77.4 -95.86 Q82.39875 -95.86 84.33375 -91.345 L131.41875000000002 16.047500000000014 Q132.5475 18.627500000000026 131.983125 21.20750000000001 Q131.41875000000002 23.787499999999994 129.48375 25.88375000000002 Q127.54875 27.818749999999994 124.80750000000002 28.30250000000001 Q122.06625000000001 28.786250000000024 119.48625 27.6575 L77.4 8.46875 L35.31375 27.6575 Z M44.66625 6.695000000000007  77.4 -7.8174999999999955  110.13374999999999 6.695000000000007  77.4 -69.57624999999999  44.66625 6.695000000000007 Z"/></g><g id="Semibold-L" transform="matrix(1 0 0 1 1970.27 1556)"><path d="M34.66875 24.91624999999999 Q32.5725 25.88375000000002 30.395625000000003 25.480625000000003 Q28.21875 25.077500000000015 26.60625 23.465000000000003 Q24.993750000000002 21.85250000000002 24.509999999999998 19.756249999999994 Q24.02625 17.659999999999997 24.993750000000002 15.563749999999999 L71.595 -90.53875 Q73.2075 -94.40875 77.4 -94.40875 Q81.5925 -94.40875 83.205 -90.53875 L129.80625 15.563749999999999 Q130.77375 17.659999999999997 130.29 19.756249999999994 Q129.80625 21.85250000000002 128.19375 23.465000000000003 Q126.58125 25.077500000000015 124.40437500000002 25.480625000000003 Q122.22749999999999 25.88375000000002 120.13125000000001 24.91624999999999 L77.4 5.405000000000015 L34.66875 24.91624999999999 Z M43.37625 6.856250000000003  77.4 -8.301249999999982  111.42375 6.856250000000003  77.4 -72.3175  43.37625 6.856250000000003 Z"/></g><g id="Medium-L" transform="matrix(1 0 0 1 1674.31 1556)"><path d="M34.02375 22.82000000000002 Q32.41125 23.62625 30.6375 23.303750000000008 Q28.86375 22.98124999999999 27.573750000000004 21.691249999999997 Q26.1225 20.401250000000005 25.8 18.627500000000026 Q25.477500000000003 16.85374999999999 26.1225 15.241250000000008 L72.40125 -90.05499999999999 Q73.85249999999999 -93.28 77.4 -93.28 Q80.9475 -93.28 82.39875 -90.05499999999999 L128.6775 15.241250000000008 Q129.32250000000002 16.85374999999999 129.0 18.627500000000026 Q128.6775 20.401250000000005 127.22625000000001 21.691249999999997 Q125.93625 22.98124999999999 124.16250000000001 23.303750000000008 Q122.38875000000002 23.62625 120.77625000000002 22.82000000000002 L77.4 3.147500000000008 L34.02375 22.82000000000002 Z M42.408750000000005 7.0175000000000125  77.4 -8.623749999999987  112.39125000000001 7.0175000000000125  77.4 -74.41375  42.408750000000005 7.0175000000000125 Z"/></g><g id="Regular-L" transform="matrix(1 0 0 1 1378.56 1556)"><path d="M33.70125 21.368750000000006 Q32.25 22.013750000000016 30.798750000000002 21.771874999999994 Q29.3475 21.53 28.21875 20.401250000000005 Q27.090000000000003 19.272500000000008 26.767500000000002 17.82125000000002 Q26.444999999999997 16.370000000000005 27.090000000000003 14.918750000000003 L73.04625 -89.57124999999999 Q74.33625 -92.47375 77.4 -92.47375 Q80.46375 -92.47375 81.75375000000001 -89.57124999999999 L127.71000000000001 14.918750000000003 Q128.355 16.370000000000005 128.0325 17.82125000000002 Q127.71000000000001 19.272500000000008 126.58125 20.401250000000005 Q125.4525 21.53 124.00125000000001 21.771874999999994 Q122.55 22.013750000000016 121.09875 21.368750000000006 L77.4 1.5349999999999966 L33.70125 21.368750000000006 Z M41.6025 7.0175000000000125  77.4 -8.784999999999982  113.1975 7.0175000000000125  77.4 -75.865  41.6025 7.0175000000000125 Z"/></g><g id="Light-L" transform="matrix(1 0 0 1 1082.77 1556)"><path d="M36.4425 17.015000000000015 Q35.31375 17.49875 34.265625 17.256875000000008 Q33.2175 17.015000000000015 32.41125 16.20875000000001 Q31.605000000000004 15.563749999999999 31.363125 14.515625 Q31.121250000000003 13.467500000000015 31.605000000000004 12.338750000000005 L73.2075 -81.99249999999999 Q74.4975 -84.895 77.4 -84.895 Q80.3025 -84.895 81.5925 -81.99249999999999 L123.19500000000001 12.338750000000005 Q123.67875000000001 13.467500000000015 123.436875 14.515625 Q123.19500000000001 15.563749999999999 122.38875000000002 16.20875000000001 Q121.58250000000001 17.015000000000015 120.534375 17.256875000000008 Q119.48625 17.49875 118.35750000000002 17.015000000000015 L77.4 -1.3674999999999926 L36.4425 17.015000000000015 Z M42.73125 5.888750000000002  77.4 -9.268749999999997  112.06875000000001 5.888750000000002  77.4 -73.76874999999998  42.73125 5.888750000000002 Z"/></g><g id="Thin-L" transform="matrix(1 0 0 1 787.282 1556)"><path d="M39.0225 12.5 Q38.377500000000005 12.822500000000005 37.7325 12.741875000000007 Q37.0875 12.66125000000001 36.60375 12.01625 Q36.12 11.693749999999994 35.95875 11.048750000000013 Q35.7975 10.403750000000002 35.95875 9.75875000000002 L73.36875 -74.57499999999999 Q74.65875 -77.155 77.4 -77.155 Q80.14125000000001 -77.155 81.43125 -74.57499999999999 L118.84125 9.75875000000002 Q119.0025 10.403750000000002 118.84125 11.048750000000013 Q118.67999999999999 11.693749999999994 118.19624999999999 12.01625 Q117.7125 12.66125000000001 117.0675 12.741875000000007 Q116.42250000000001 12.822500000000005 115.7775 12.5 L77.4 -4.431250000000006 L39.0225 12.5 Z M43.86 4.760000000000005  77.4 -9.752499999999998  110.94 4.760000000000005  77.4 -71.6725  43.86 4.760000000000005 Z"/></g><g id="Ultralight-L" transform="matrix(1 0 0 1 491.205 1556)"><path d="M40.635 9.920000000000002 Q40.3125 10.081249999999997 39.82875 10.000625 Q39.345 9.920000000000002 39.18375 9.597499999999997 Q38.861250000000005 9.436250000000015 38.7 9.033125000000013 Q38.53875 8.63000000000001 38.7 8.307500000000005 L73.53 -70.06 Q74.65875 -72.63999999999999 77.4 -72.63999999999999 Q80.14125000000001 -72.63999999999999 81.27 -70.06 L116.10000000000001 8.307500000000005 Q116.26124999999999 8.63000000000001 116.10000000000001 9.033125000000013 Q115.93875000000001 9.436250000000015 115.7775 9.597499999999997 Q115.455 9.920000000000002 114.97125 10.000625 Q114.4875 10.081249999999997 114.16499999999999 9.920000000000002 L77.4 -6.204999999999998 L40.635 9.920000000000002 Z M44.505 4.115000000000023  77.4 -10.074999999999989  110.29500000000002 4.115000000000023  77.4 -70.3825  44.505 4.115000000000023 Z"/></g><g id="Bold-M" transform="matrix(1 0 0 1 2281.8 1126)"><path d="M29.875 14.89500000000001 Q27.25 16.02000000000001 24.439999999999998 15.52000000000001 Q21.625 15.02000000000001 19.5 12.89500000000001 Q17.375 10.77000000000001 16.875 8.02000000000001 Q16.375 5.27000000000001 17.5 2.6450000000000102 L52.75 -76.72999999999999 Q54.875 -81.47999999999999 60.0 -81.47999999999999 Q65.125 -81.47999999999999 67.25 -76.72999999999999 L102.5 2.6450000000000102 Q103.625 5.27000000000001 103.125 8.02000000000001 Q102.625 10.77000000000001 100.5 12.89500000000001 Q98.375 15.02000000000001 95.565 15.52000000000001 Q92.75 16.02000000000001 90.125 14.89500000000001 L60.0 2.0200000000000102 L29.875 14.89500000000001 Z M38.625 -5.97999999999999  60.0 -15.22999999999999  81.375 -5.97999999999999  60.0 -54.22999999999999  38.625 -5.97999999999999 Z"/></g><g id="Semibold-M" transform="matrix(1 0 0 1 1985.97 1126)"><path d="M29.125 12.02000000000001 Q27.0 13.02000000000001 24.75 12.580000000000013 Q22.5 12.14500000000001 20.75 10.39500000000001 Q19.125 8.77000000000001 18.69 6.52000000000001 Q18.25 4.27000000000001 19.125 2.1450000000000102 L53.875 -75.97999999999999 Q55.75 -79.97999999999999 60.0 -79.97999999999999 Q64.25 -79.97999999999999 66.125 -75.97999999999999 L100.875 2.1450000000000102 Q101.75 4.27000000000001 101.31500000000001 6.52000000000001 Q100.875 8.77000000000001 99.25 10.39500000000001 Q97.5 12.14500000000001 95.25 12.580000000000013 Q93.0 13.02000000000001 90.875 12.02000000000001 L60.0 -1.1049999999999898 L29.125 12.02000000000001 Z M37.25 -5.85499999999999  60.0 -15.60499999999999  82.75 -5.85499999999999  60.0 -57.10499999999999  37.25 -5.85499999999999 Z"/></g><g id="Medium-M" transform="matrix(1 0 0 1 1689.91 1126)"><path d="M28.625 9.89500000000001 Q26.875 10.64500000000001 25.0 10.335000000000008 Q23.125 10.02000000000001 21.75 8.64500000000001 Q20.375 7.27000000000001 20.064999999999998 5.39500000000001 Q19.75 3.5200000000000102 20.5 1.7700000000000102 L54.75 -75.35499999999999 Q56.25 -78.85499999999999 60.0 -78.85499999999999 Q63.75 -78.85499999999999 65.25 -75.35499999999999 L99.5 1.7700000000000102 Q100.25 3.5200000000000102 99.94 5.39500000000001 Q99.625 7.27000000000001 98.25 8.64500000000001 Q96.875 10.02000000000001 95.0 10.335000000000008 Q93.125 10.64500000000001 91.375 9.89500000000001 L60.0 -3.4799999999999898 L28.625 9.89500000000001 Z M36.25 -5.72999999999999  60.0 -15.97999999999999  83.75 -5.72999999999999  60.0 -59.22999999999999  36.25 -5.72999999999999 Z"/></g><g id="Regular-M" transform="matrix(1 0 0 1 1394.06 1126)"><path d="M28.25 8.39500000000001 Q26.75 9.02000000000001 25.19 8.710000000000008 Q23.625 8.39500000000001 22.5 7.27000000000001 Q21.375 6.14500000000001 21.065 4.5800000000000125 Q20.75 3.0200000000000102 21.375 1.5200000000000102 L55.375 -74.97999999999999 Q56.75 -77.97999999999999 60.0 -77.97999999999999 Q63.25 -77.97999999999999 64.625 -74.97999999999999 L98.625 1.5200000000000102 Q99.25 3.0200000000000102 98.94 4.5800000000000125 Q98.625 6.14500000000001 97.5 7.27000000000001 Q96.375 8.39500000000001 94.815 8.710000000000008 Q93.25 9.02000000000001 91.75 8.39500000000001 L60.0 -5.22999999999999 L28.25 8.39500000000001 Z M35.5 -5.72999999999999  60.0 -16.22999999999999  84.5 -5.72999999999999  60.0 -60.72999999999999  35.5 -5.72999999999999 Z"/></g><g id="Light-M" transform="matrix(1 0 0 1 1098.18 1126)"><path d="M29.75 5.02000000000001 Q28.625 5.52000000000001 27.5 5.27000000000001 Q26.375 5.02000000000001 25.625 4.27000000000001 Q24.75 3.3950000000000102 24.5 2.2700000000000102 Q24.25 1.1450000000000102 24.75 0.14500000000001023 L55.875 -69.72999999999999 Q57.125 -72.47999999999999 60.0 -72.47999999999999 Q62.875 -72.47999999999999 64.125 -69.72999999999999 L95.25 0.14500000000001023 Q95.75 1.1450000000000102 95.5 2.2700000000000102 Q95.25 3.3950000000000102 94.375 4.27000000000001 Q93.625 5.02000000000001 92.5 5.27000000000001 Q91.375 5.52000000000001 90.25 5.02000000000001 L60.0 -7.97999999999999 L29.75 5.02000000000001 Z M35.5 -5.72999999999999  60.0 -16.22999999999999  84.5 -5.72999999999999  60.0 -60.72999999999999  35.5 -5.72999999999999 Z"/></g><g id="Thin-M" transform="matrix(1 0 0 1 802.565 1126)"><path d="M31.25 1.6450000000000102 Q30.625 2.0200000000000102 29.875 1.835000000000008 Q29.125 1.6450000000000102 28.625 1.2700000000000102 Q28.25 0.7700000000000102 28.0 0.0800000000000125 Q27.75 -0.6049999999999898 28.125 -1.2299999999999898 L56.375 -64.60499999999999 Q57.375 -66.97999999999999 60.0 -66.97999999999999 Q62.625 -66.97999999999999 63.625 -64.60499999999999 L91.875 -1.2299999999999898 Q92.25 -0.6049999999999898 92.0 0.0800000000000125 Q91.75 0.7700000000000102 91.375 1.2700000000000102 Q90.875 1.6450000000000102 90.125 1.835000000000008 Q89.375 2.0200000000000102 88.75 1.6450000000000102 L60.0 -10.60499999999999 L31.25 1.6450000000000102 Z M35.5 -5.72999999999999  60.0 -16.22999999999999  84.5 -5.72999999999999  60.0 -60.72999999999999  35.5 -5.72999999999999 Z"/></g><g id="Ultralight-M" transform="matrix(1 0 0 1 506.415 1126)"><path d="M32.125 -0.35499999999998977 Q31.75 -0.10499999999998977 31.25 -0.22999999999998977 Q30.75 -0.35499999999998977 30.5 -0.6049999999999898 Q30.25 -0.8549999999999898 30.064999999999998 -1.289999999999992 Q29.875 -1.7299999999999898 30.125 -2.1049999999999898 L56.625 -61.47999999999999 Q57.625 -63.72999999999999 60.0 -63.72999999999999 Q62.375 -63.72999999999999 63.375 -61.47999999999999 L89.875 -2.1049999999999898 Q90.125 -1.7299999999999898 89.94 -1.289999999999992 Q89.75 -0.8549999999999898 89.5 -0.6049999999999898 Q89.25 -0.35499999999998977 88.75 -0.22999999999998977 Q88.25 -0.10499999999998977 87.875 -0.35499999999998977 L60.0 -12.22999999999999 L32.125 -0.35499999999998977 Z M35.5 -5.72999999999999  60.0 -16.22999999999999  84.5 -5.72999999999999  60.0 -60.72999999999999  35.5 -5.72999999999999 Z"/></g><g id="Bold-S" transform="matrix(1 0 0 1 2294.23 696)"><path d="M23.868828 4.218422000000004 Q21.695922 5.1084140000000104 19.480410000000003 4.762832000000003 Q17.260164 4.41725000000001 15.484914 2.64200000000001 Q13.709664 0.8667500000000103 13.312007999999999 -1.3534959999999927 Q12.919086 -3.5690079999999966 13.908492 -5.642499999999998 L41.521914 -67.577422 Q43.19775 -71.426164 47.34 -71.426164 Q51.48225 -71.426164 53.158086 -67.577422 L80.77150800000001 -5.642499999999998 Q81.760914 -3.5690079999999966 81.367992 -1.3534959999999927 Q80.97033599999999 0.8667500000000103 79.19508599999999 2.64200000000001 Q77.41983599999999 4.41725000000001 75.19959 4.762832000000003 Q72.984078 5.1084140000000104 70.811172 4.218422000000004 L47.34 -5.741913999999994 L23.868828 4.218422000000004 Z M31.064508 -12.842913999999993  47.34 -19.745085999999986  63.615492 -12.842913999999993  47.34 -49.233171999999996  31.064508 -12.842913999999993 Z"/></g><g id="Semibold-S" transform="matrix(1 0 0 1 1998.1 696)"><path d="M23.277078 1.9508360000000096 Q21.501828 2.741414000000006 19.726578 2.443172000000004 Q17.951328 2.1496640000000156 16.469586 0.6679220000000043 Q15.091992000000001 -0.7096719999999834 14.746410000000001 -2.536996000000002 Q14.400827999999999 -4.359585999999993 15.186672000000002 -6.035421999999983 L42.407172 -66.985672 Q43.88891400000001 -70.24266399999999 47.34 -70.24266399999999 Q50.79108599999999 -70.24266399999999 52.272828 -66.985672 L79.493328 -6.035421999999983 Q80.27917199999999 -4.359585999999993 79.93359000000001 -2.536996000000002 Q79.588008 -0.7096719999999834 78.210414 0.6679220000000043 Q76.72867199999999 2.1496640000000156 74.953422 2.443172000000004 Q73.178172 2.741414000000006 71.402922 1.9508360000000096 L47.34 -8.208327999999995 L23.277078 1.9508360000000096 Z M29.980422 -12.743499999999997  47.34 -20.043327999999995  64.699578 -12.743499999999997  47.34 -51.50549199999999  29.980422 -12.743499999999997 Z"/></g><g id="Medium-S" transform="matrix(1 0 0 1 1701.85 696)"><path d="M22.879422 0.2750000000000057 Q21.402414 0.8667500000000103 19.920672 0.6679220000000043 Q18.443664 0.4738280000000117 17.260164 -0.7096719999999834 Q16.076664 -1.8931719999999927 15.830496 -3.422253999999981 Q15.584328 -4.9513359999999835 16.275492 -6.333663999999999 L43.098335999999996 -66.493336 Q44.281836 -69.352672 47.34 -69.352672 Q50.398164 -69.352672 51.581664 -66.493336 L78.404508 -6.333663999999999 Q79.095672 -4.9513359999999835 78.849504 -3.422253999999981 Q78.603336 -1.8931719999999927 77.41983599999999 -0.7096719999999834 Q76.236336 0.4738280000000117 74.759328 0.6679220000000043 Q73.277586 0.8667500000000103 71.800578 0.2750000000000057 L47.34 -10.08299199999999 L22.879422 0.2750000000000057 Z M29.194578 -12.644085999999987  47.34 -20.33683599999999  65.485422 -12.644085999999987  47.34 -53.18132799999999  29.194578 -12.644085999999987 Z"/></g><g id="Regular-S" transform="matrix(1 0 0 1 1405.73 696)"><path d="M22.585914 -0.9084999999999894 Q21.303 -0.41616399999999487 20.07216 -0.6149919999999867 Q18.836586 -0.8090859999999935 17.851914 -1.7984919999999818 Q16.862508 -2.7831639999999993 16.616339999999997 -4.0660780000000045 Q16.370172 -5.348991999999981 16.961922 -6.532491999999991 L43.590672 -66.199828 Q44.679492 -68.661508 47.34 -68.661508 Q50.000507999999996 -68.661508 51.089328 -66.199828 L77.718078 -6.532491999999991 Q78.30982800000001 -5.348991999999981 78.06366 -4.0660780000000045 Q77.81749199999999 -2.7831639999999993 76.828086 -1.7984919999999818 Q75.84341400000001 -0.8090859999999935 74.60784 -0.6149919999999867 Q73.377 -0.41616399999999487 72.09408599999999 -0.9084999999999894 L47.34 -11.460585999999992 L22.585914 -0.9084999999999894 Z M28.602828 -12.644085999999987  47.34 -20.535663999999997  66.077172 -12.644085999999987  47.34 -54.36482799999999  28.602828 -12.644085999999987 Z"/></g><g id="Light-S" transform="matrix(1 0 0 1 1109.75 696)"><path d="M23.769414 -3.5690079999999966 Q22.780008000000002 -3.1760859999999838 21.89475 -3.3228399999999993 Q21.009491999999998 -3.474328 20.318327999999998 -4.165491999999986 Q19.52775 -4.9513359999999835 19.328922000000002 -5.888667999999996 Q19.134828 -6.825999999999993 19.627164 -7.61657799999999 L43.988327999999996 -62.05757799999999 Q44.973 -64.325164 47.34 -64.325164 Q49.707 -64.325164 50.691672000000004 -62.05757799999999 L75.052836 -7.61657799999999 Q75.545172 -6.825999999999993 75.351078 -5.888667999999996 Q75.15225 -4.9513359999999835 74.361672 -4.165491999999986 Q73.670508 -3.474328 72.78525 -3.3228399999999993 Q71.899992 -3.1760859999999838 70.910586 -3.5690079999999966 L47.34 -13.63349199999999 L23.769414 -3.5690079999999966 Z M28.602828 -12.644085999999987  47.34 -20.535663999999997  66.077172 -12.644085999999987  47.34 -54.36482799999999  28.602828 -12.644085999999987 Z"/></g><g id="Thin-S" transform="matrix(1 0 0 1 814.015 696)"><path d="M24.952914 -6.234249999999989 Q24.361164 -5.936008000000001 23.769414 -6.035421999999983 Q23.177664 -6.134835999999993 22.685328 -6.532491999999991 Q22.287672 -7.024827999999999 22.093578 -7.61657799999999 Q21.89475 -8.208327999999995 22.287672 -8.700664000000003 L44.38125 -58.010008 Q45.171828 -59.98408599999999 47.34 -59.98408599999999 Q49.508172 -59.98408599999999 50.29875 -58.010008 L72.39232799999999 -8.700664000000003 Q72.78525 -8.208327999999995 72.586422 -7.61657799999999 Q72.39232799999999 -7.024827999999999 71.994672 -6.532491999999991 Q71.502336 -6.134835999999993 70.910586 -6.035421999999983 Q70.31883599999999 -5.936008000000001 69.727086 -6.234249999999989 L47.34 -15.702249999999992 L24.952914 -6.234249999999989 Z M28.602828 -12.644085999999987  47.34 -20.535663999999997  66.077172 -12.644085999999987  47.34 -54.36482799999999  28.602828 -12.644085999999987 Z"/></g><g id="Ultralight-S" transform="matrix(1 0 0 1 517.792 696)"><path d="M25.644078 -7.810671999999997 Q25.246422 -7.61657799999999 24.8535 -7.663917999999995 Q24.460577999999998 -7.715992 24.162336 -8.009499999999989 Q23.868828 -8.303007999999991 23.71734 -8.700664000000003 Q23.570586 -9.093585999999988 23.868828 -9.39182799999999 L44.580078 -55.54832799999999 Q45.365922 -57.422991999999994 47.34 -57.422991999999994 Q49.314078 -57.422991999999994 50.099922 -55.54832799999999 L70.811172 -9.39182799999999 Q71.109414 -9.093585999999988 70.96266 -8.700664000000003 Q70.811172 -8.303007999999991 70.51766400000001 -8.009499999999989 Q70.219422 -7.715992 69.8265 -7.663917999999995 Q69.433578 -7.61657799999999 69.035922 -7.810671999999997 L47.34 -16.985163999999997 L25.644078 -7.810671999999997 Z M28.602828 -12.644085999999987  47.34 -20.535663999999997  66.077172 -12.644085999999987  47.34 -54.36482799999999  28.602828 -12.644085999999987 Z"/></g></g></svg>