<svg xmlns="http://www.w3.org/2000/svg" height="48" viewBox="0 -960 960 960" width="48"><path d="M141.7-77.78q-17.2 0-28.86-12.39-11.67-12.38-11.67-29.77 0-18.17 11.76-29.6 11.75-11.42 30.33-11.42h422.17q17.71 0 29.68 11.49 11.98 11.48 11.98 29.67t-11.98 30.1q-11.97 11.92-29.68 11.92H141.7Zm0-183.18q-17.2 0-28.86-12.18-11.67-12.18-11.67-29.55 0-17.61 11.76-29.31 11.75-11.7 30.33-11.7H818.3q17.13 0 29.11 11.65 11.98 11.64 11.98 29.68 0 17.61-11.81 29.51-11.81 11.9-29.28 11.9H141.7Zm42.65-182.74q-33.5 0-58.34-25-24.84-25-24.84-58.74v-271.6q0-33.74 24.84-58.74t58.34-25h591.3q33.74 0 58.74 25t25 58.74v271.6q0 33.74-25 58.74t-58.74 25h-591.3Zm-.57-83.17h593.44v-273.17H183.78v273.17Zm0 0v-273.17 273.17Z"/></svg>