<svg xmlns="http://www.w3.org/2000/svg" height="48" viewBox="0 -960 960 960" width="48"><path d="M183-172q-4.93 0-7.96-3.05-3.04-3.06-3.04-8 0-4.95 3.04-7.95 3.03-3 7.96-3h371q4.92 0 7.96 3.05 3.04 3.06 3.04 8 0 4.95-3.04 7.95t-7.96 3H183Zm0-128q-4.93 0-7.96-3.05-3.04-3.06-3.04-8 0-4.95 3.04-7.95 3.03-3 7.96-3h594q4.92 0 7.96 3.05 3.04 3.06 3.04 8 0 4.95-3.04 7.95t-7.96 3H183Zm43-128q-22.77 0-38.39-15.61Q172-459.23 172-482v-252q0-22.78 15.61-38.39Q203.23-788 226-788h508q22.78 0 38.39 15.61T788-734v252q0 22.77-15.61 38.39Q756.78-428 734-428H226Z"/></svg>