<svg xmlns="http://www.w3.org/2000/svg" height="40" width="40"><path d="M20 29.208q-2.833 0-5.438 1.042-2.604 1.042-4.895 3.083v.167q.125.125.25.167.125.041.291.041h19.5q.167 0 .271-.041.104-.042.271-.167v-.083q-2.167-2.042-4.792-3.125-2.625-1.084-5.458-1.084ZM7.917 32.042q2.375-2.292 5.437-3.625 3.063-1.334 6.646-1.334 3.542 0 6.625 1.334 3.083 1.333 5.458 3.625v-21.75q0-.375-.312-.709-.313-.333-.688-.333H8.917q-.375 0-.688.333-.312.334-.312.709ZM20 22.917q-2.25 0-3.833-1.584-1.584-1.583-1.584-3.833 0-2.208 1.584-3.792Q17.75 12.125 20 12.125t3.833 1.583q1.584 1.584 1.584 3.792 0 2.25-1.584 3.833Q22.25 22.917 20 22.917Zm0-2.125q1.375 0 2.312-.959.938-.958.938-2.333 0-1.333-.958-2.292-.959-.958-2.292-.958-1.375 0-2.312.958-.938.959-.938 2.334 0 1.333.958 2.291.959.959 2.292.959ZM8.917 35.833q-1.292 0-2.209-.916-.916-.917-.916-2.25V10.292q0-1.292.916-2.23.917-.937 2.209-.937h2.416V3.792h2.292v3.333H26.5V3.792h2.208v3.333h2.375q1.292 0 2.209.937.916.938.916 2.23v22.375q0 1.333-.916 2.25-.917.916-2.209.916ZM20 17.5Zm0 16.208h10.25H9.667 20Z"/></svg>