<svg xmlns="http://www.w3.org/2000/svg" version="1.1" width="3300" height="2000"><g id="Notes"><style>
    text {
      font-family: monospace;
      text-anchor: middle;
    }
    text.emphasis {
      font-weight:bold;
    }
    text.lanchor {
      text-anchor: start;
    }
  </style><rect height="2200" id="artboard" fill="white" width="3300" x="0" y="0"/><line id="" style="fill:none;stroke:black;stroke-width:0.5;" x1="263" x2="3036" y1="292" y2="292"/><text class="lanchor emphasis" transform="matrix(1 0 0 1 263 322)">Weight/Scale Variations</text><text transform="matrix(1 0 0 1 559.711 322)">Ultralight</text><text transform="matrix(1 0 0 1 856.422 322)">Thin</text><text transform="matrix(1 0 0 1 1153.13 322)">Light</text><text transform="matrix(1 0 0 1 1449.84 322)">Regular</text><text transform="matrix(1 0 0 1 1746.56 322)">Medium</text><text transform="matrix(1 0 0 1 2043.27 322)">Semibold</text><text transform="matrix(1 0 0 1 2339.98 322)">Bold</text><text transform="matrix(1 0 0 1 2636.69 322)">Heavy</text><text transform="matrix(1 0 0 1 2933.4 322)">Black</text><text id="template-version" style="text-anchor: end;" transform="matrix(1 0 0 1 3036 1933)">Template v.1.0</text><text class="lanchor" transform="matrix(1 0 0 1 263 726)">Small</text><text class="lanchor" transform="matrix(1 0 0 1 263 1156)">Medium</text><text class="lanchor" transform="matrix(1 0 0 1 263 1586)">Large</text></g><g id="Guides"><g id="H-reference" style="fill:#27AAE1;stroke:none;" transform="matrix(1 0 0 1 339 696)"><path d="M 54.9316 0 L 57.666 0 L 30.5664 -70.459 L 28.0762 -70.459 L 0.976562 0 L 3.66211 0 L 12.9395 -24.4629 L 45.7031 -24.4629 Z M 29.1992 -67.0898 L 29.4434 -67.0898 L 44.8242 -26.709 L 13.8184 -26.709 Z"/></g><line id="Baseline-S" style="fill:none;stroke:#27AAE1;opacity:1;stroke-width:0.577;" x1="263" x2="3036" y1="696" y2="696"/><line id="Capline-S" style="fill:none;stroke:#27AAE1;opacity:1;stroke-width:0.577;" x1="263" x2="3036" y1="625.541" y2="625.541"/><g id="H-reference" style="fill:#27AAE1;stroke:none;" transform="matrix(1 0 0 1 339 1126)"><path d="M 54.9316 0 L 57.666 0 L 30.5664 -70.459 L 28.0762 -70.459 L 0.976562 0 L 3.66211 0 L 12.9395 -24.4629 L 45.7031 -24.4629 Z M 29.1992 -67.0898 L 29.4434 -67.0898 L 44.8242 -26.709 L 13.8184 -26.709 Z"/></g><line id="Baseline-M" style="fill:none;stroke:#27AAE1;opacity:1;stroke-width:0.577;" x1="263" x2="3036" y1="1126" y2="1126"/><line id="Capline-M" style="fill:none;stroke:#27AAE1;opacity:1;stroke-width:0.577;" x1="263" x2="3036" y1="1055.54" y2="1055.54"/><g id="H-reference" style="fill:#27AAE1;stroke:none;" transform="matrix(1 0 0 1 339 1556)"><path d="M 54.9316 0 L 57.666 0 L 30.5664 -70.459 L 28.0762 -70.459 L 0.976562 0 L 3.66211 0 L 12.9395 -24.4629 L 45.7031 -24.4629 Z M 29.1992 -67.0898 L 29.4434 -67.0898 L 44.8242 -26.709 L 13.8184 -26.709 Z"/></g><line id="Baseline-L" style="fill:none;stroke:#27AAE1;opacity:1;stroke-width:0.577;" x1="263" x2="3036" y1="1556" y2="1556"/><line id="Capline-L" style="fill:none;stroke:#27AAE1;opacity:1;stroke-width:0.577;" x1="263" x2="3036" y1="1485.54" y2="1485.54"/><rect height="119.336" id="left-margin" style="fill:darkred;stroke:none;opacity:0.4;" width="12.4512" x="1394.06" y="1030.79"/><rect height="119.336" id="right-margin" style="fill:darkgreen;stroke:none;opacity:0.4;" width="12.4512" x="1502.5112" y="1030.79"/><rect x="1406.5112" y="1045" width="96" height="96" fill="none" stroke="blue" stroke-dasharray="5"/><rect x="1394.06" y="1030.79" width="120.9024" height="119.336" fill="none" stroke="blue"/></g><g id="Symbols"><g id="Bold-L" transform="matrix(1 0 0 1 2266 1556)"><path d="M1402.875 3060.77 V2754.395 H1699.575 V3060.77 H1402.875 Z M1402.875 732.32 V429.1700000000001 H1699.575 V732.32 H1402.875 Z M1980.15 3060.77 V2754.395 H2276.85 V3060.77 H1980.15 Z M1980.15 732.32 V429.1700000000001 H2276.85 V732.32 H1980.15 Z M2283.3 1896.545 H1409.325 Q1342.40625 1896.545 1298.465625 1852.4431250000002 Q1254.525 1808.338025 1254.525 1744.4056250000003 Q1254.525 1680.4700000000003 1298.465625 1636.9325 Q1342.40625 1593.395 1409.325 1593.395 H2283.3 L2202.675 1509.545 Q2160.75 1464.395 2160.75 1407.9575 Q2160.75 1351.52 2207.160975 1303.4255750000002 Q2251.05 1254.77 2312.3250000000003 1254.77 Q2373.6 1254.77 2421.975 1303.145 L2754.15 1635.3200000000002 Q2799.3 1681.6439 2799.3 1745.5569500000001 Q2799.3 1809.4700000000003 2754.15 1854.62 L2418.75 2190.02 Q2373.6 2235.17 2310.7125 2233.5575 Q2247.8250000000003 2231.945 2199.4500000000003 2180.345 Q2154.3 2135.91095 2155.9125 2080.727975 Q2157.525 2025.545 2199.4500000000003 1980.395 L2283.3 1896.545 Z M525.6750000000001 2754.395 V732.32 H383.77500000000003 Q320.08125 732.32 276.140625 688.218125 Q232.20000000000002 644.113025 232.20000000000002 580.180625 Q232.20000000000002 516.245 276.140625 472.7075 Q320.08125 429.1700000000001 383.77500000000003 429.1700000000001 H964.275 Q1027.565625 429.1700000000001 1073.3187 473.271875 Q1119.075 517.376975 1119.075 581.309375 Q1119.075 645.245 1073.3187 688.7825 Q1027.565625 732.32 964.275 732.32 H828.825 V2754.395 H964.275 Q1027.565625 2754.395 1073.3187 2800.393175 Q1119.075 2846.39135 1119.075 2910.0431750000002 Q1119.075 2973.695 1073.3187 3017.2325 Q1027.565625 3060.77 964.275 3060.77 H383.77500000000003 Q320.08125 3060.77 276.140625 3016.668125 Q232.20000000000002 2972.563025 232.20000000000002 2908.9112 Q232.20000000000002 2845.2593749999996 276.140625 2799.8288 Q320.08125 2754.395 383.77500000000003 2754.395 H525.6750000000001 Z M2560.65 732.32 V429.1700000000001 Q2683.2000000000003 429.1700000000001 2773.5 519.47 Q2863.8 609.77 2863.8 732.32 H2560.65 Z M2560.65 3060.77 V2754.395 H2863.8 Q2863.8 2880.17 2773.5 2970.47 Q2683.2000000000003 3060.77 2560.65 3060.77 Z"/></g><g id="Semibold-L" transform="matrix(1 0 0 1 1970.27 1556)"><path d="M1408.483275 2993.4707 V2736.1672999999996 H1692.5638500000002 V2993.4707 H1408.483275 Z M1408.483275 751.950575 V496.4693 H1692.5638500000002 V751.950575 H1408.483275 Z M1973.13885 2993.4707 V2736.1672999999996 H2257.2194250000002 V2993.4707 H1973.13885 Z M1973.13885 751.950575 V496.4693 H2257.2194250000002 V751.950575 H1973.13885 Z M2307.135975 1872.709025 H1419.1386750000001 Q1363.436475 1872.709025 1326.507 1835.6183 Q1289.5775250000002 1798.5243500000001 1289.5775250000002 1744.4056250000003 Q1289.5775250000002 1690.2836750000001 1326.507 1653.757325 Q1363.436475 1617.230975 1419.1386750000001 1617.230975 H2307.135975 L2188.6527 1495.5227 Q2153.73885 1457.3838500000002 2153.039025 1408.6573250000001 Q2152.335975 1359.934025 2191.190775 1320.1278500000003 Q2228.6169 1280.0088500000002 2280.078225 1280.0088500000002 Q2331.536325 1280.0088500000002 2371.5005250000004 1319.9698250000001 L2705.0784 1653.5477 Q2743.21725 1692.3509 2743.21725 1745.3021749999998 Q2743.21725 1798.2534500000002 2705.0784 1836.3923 L2369.6784000000002 2171.7922999999996 Q2331.536325 2209.93115 2279.1655499999997 2209.0217000000002 Q2226.7947750000003 2208.109025 2186.830575 2166.3227 Q2148.691725 2128.5902 2150.304225 2080.573175 Q2151.916725 2032.55615 2186.830575 1994.4172999999996 L2307.135975 1872.709025 Z M585.9631499999999 2736.1672999999996 V751.950575 H427.23832500000003 Q373.361475 751.950575 336.42877500000003 714.856625 Q299.4993 677.7626750000001 299.4993 623.64395 Q299.4993 569.525225 336.42877500000003 532.99565 Q373.361475 496.4693 427.23832500000003 496.4693 H995.122125 Q1048.7732250000001 496.4693 1086.7282500000001 533.56325 Q1124.6832749999999 570.6572000000001 1124.6832749999999 624.775925 Q1124.6832749999999 678.8946500000001 1086.7282500000001 715.421 Q1048.7732250000001 751.950575 995.122125 751.950575 H841.444425 V2736.1672999999996 H995.122125 Q1048.7732250000001 2736.1672999999996 1086.7282500000001 2774.3319500000002 Q1124.6832749999999 2812.4966 1124.6832749999999 2866.4573 Q1124.6832749999999 2920.414775 1086.7282500000001 2956.94435 Q1048.7732250000001 2993.4707 995.122125 2993.4707 H427.23832500000003 Q373.361475 2993.4707 336.42877500000003 2956.37675 Q299.4993 2919.2828 299.4993 2865.3253250000002 Q299.4993 2811.3646249999997 336.42877500000003 2773.767575 Q373.361475 2736.1672999999996 427.23832500000003 2736.1672999999996 H585.9631499999999 Z M2541.019425 751.950575 V496.4693 Q2643.942075 496.4693 2720.219775 572.750225 Q2796.5007 649.027925 2796.5007 751.950575 H2541.019425 Z M2541.019425 2993.4707 V2736.1672999999996 H2796.5007 Q2796.5007 2840.912075 2720.219775 2917.1897750000003 Q2643.942075 2993.4707 2541.019425 2993.4707 Z"/></g><g id="Medium-L" transform="matrix(1 0 0 1 1674.31 1556)"><path d="M1412.688675 2942.989775 V2722.496525 H1687.3071000000002 V2942.989775 H1412.688675 Z M1412.688675 766.6727 V546.9502249999999 H1687.3071000000002 V766.6727 H1412.688675 Z M1967.8821 2942.989775 V2722.496525 H2242.4973 V2942.989775 H1967.8821 Z M1967.8821 766.6727 V546.9502249999999 H2242.4973 V766.6727 H1967.8821 Z M2325.015375 1854.8296250000003 H1426.50135 Q1379.213175 1854.8296250000003 1347.54045 1822.9956499999998 Q1315.87095 1791.1616749999998 1315.87095 1744.4056250000003 Q1315.87095 1697.64635 1347.54045 1666.37675 Q1379.213175 1635.1103749999997 1426.50135 1635.1103749999997 H2325.015375 L2178.135975 1485.005975 Q2148.4821 1452.1271000000002 2147.2533750000002 1409.183 Q2146.0278749999998 1366.2421250000002 2179.2099000000003 1332.6569749999999 Q2211.78885 1298.9396000000002 2255.8875000000003 1298.9396000000002 Q2299.98615 1298.9396000000002 2333.6390250000004 1332.58925 L2668.26825 1667.2184750000001 Q2701.1471250000004 1700.3811500000002 2701.1471250000004 1745.108675 Q2701.1471250000004 1789.8394250000001 2668.26825 1822.7215250000004 L2332.86825 2158.121525 Q2299.98615 2191.0004 2255.503725 2190.6166249999997 Q2211.018075 2190.229625 2177.3652 2155.8059749999998 Q2144.486325 2123.0980250000002 2146.098825 2080.4570750000003 Q2147.711325 2037.8129 2177.3652 2004.934025 L2325.015375 1854.8296250000003 Z M631.1873250000001 2722.496525 V766.6727 H459.843075 Q413.32567500000005 766.6727 381.65295000000003 734.8387250000001 Q349.980225 703.0047500000001 349.980225 656.245475 Q349.980225 609.4894250000001 381.65295000000003 578.219825 Q413.32567500000005 546.9502249999999 459.843075 546.9502249999999 H1018.2582749999999 Q1064.678925 546.9502249999999 1096.7838000000002 578.787425 Q1128.8886750000001 610.6214000000001 1128.8886750000001 657.3774500000001 Q1128.8886750000001 704.1367250000001 1096.7838000000002 735.4031000000001 Q1064.678925 766.6727 1018.2582749999999 766.6727 H850.9098 V2722.496525 H1018.2582749999999 Q1064.678925 2722.496525 1096.7838000000002 2754.782 Q1128.8886750000001 2787.0706999999998 1128.8886750000001 2833.76225 Q1128.8886750000001 2880.450575 1096.7838000000002 2911.720175 Q1064.678925 2942.989775 1018.2582749999999 2942.989775 H459.843075 Q413.32567500000005 2942.989775 381.65295000000003 2911.152575 Q349.980225 2879.3186 349.980225 2832.630275 Q349.980225 2785.938725 381.65295000000003 2754.217625 Q413.32567500000005 2722.496525 459.843075 2722.496525 H631.1873250000001 Z M2526.2972999999997 766.6727 V546.9502249999999 Q2614.4946 546.9502249999999 2680.255575 612.714425 Q2746.019775 678.4754 2746.019775 766.6727 H2526.2972999999997 Z M2526.2972999999997 2942.989775 V2722.496525 H2746.019775 Q2746.019775 2811.4646000000002 2680.255575 2877.225575 Q2614.4946 2942.989775 2526.2972999999997 2942.989775 Z"/></g><g id="Regular-L" transform="matrix(1 0 0 1 1378.56 1556)"><path d="M1415.775 2905.97 V2712.47 H1683.45 V2905.97 H1415.775 Z M1415.775 777.47 V583.97 H1683.45 V777.47 H1415.775 Z M1964.025 2905.97 V2712.47 H2231.7000000000003 V2905.97 H1964.025 Z M1964.025 777.47 V583.97 H2231.7000000000003 V777.47 H1964.025 Z M2338.125 1841.7200000000003 H1431.9 Q1390.78125 1841.7200000000003 1362.965625 1813.7431250000004 Q1335.15 1785.7630250000002 1335.15 1744.4056250000003 Q1335.15 1703.045 1362.965625 1675.6325000000002 Q1390.78125 1648.2200000000003 1431.9 1648.2200000000003 H2338.125 L2170.425 1477.295 Q2144.625 1448.27 2143.0125000000003 1409.5700000000002 Q2141.4 1370.87 2170.425 1341.8450000000003 Q2199.4500000000003 1312.8200000000002 2238.15 1312.8200000000002 Q2276.85 1312.8200000000002 2305.875 1341.8450000000003 L2641.275 1677.245 Q2670.3 1706.27 2670.3 1744.9700000000003 Q2670.3 1783.67 2641.275 1812.6950000000002 L2305.875 2148.095 Q2276.85 2177.12 2238.15 2177.12 Q2199.4500000000003 2177.12 2170.425 2148.095 Q2141.4 2119.07 2143.0125000000003 2080.37 Q2144.625 2041.67 2170.425 2012.645 L2338.125 1841.7200000000003 Z M664.35 2712.47 V777.47 H483.75 Q442.63125 777.47 414.815625 749.493125 Q387.0 721.5130250000001 387.0 680.155625 Q387.0 638.7950000000001 414.815625 611.3825 Q442.63125 583.97 483.75 583.97 H1035.2250000000001 Q1076.34375 583.97 1104.159375 611.9468750000001 Q1131.9750000000001 639.926975 1131.9750000000001 681.2843750000001 Q1131.9750000000001 722.645 1104.159375 750.0575 Q1076.34375 777.47 1035.2250000000001 777.47 H857.85 V2712.47 H1035.2250000000001 Q1076.34375 2712.47 1104.159375 2740.4468749999996 Q1131.9750000000001 2768.426975 1131.9750000000001 2809.7843749999997 Q1131.9750000000001 2851.145 1104.159375 2878.5575 Q1076.34375 2905.97 1035.2250000000001 2905.97 H483.75 Q442.63125 2905.97 414.815625 2877.993125 Q387.0 2850.013025 387.0 2808.6556250000003 Q387.0 2767.295 414.815625 2739.8825 Q442.63125 2712.47 483.75 2712.47 H664.35 Z M2515.5 777.47 V583.97 Q2592.9 583.97 2650.9500000000003 642.02 Q2709.0 700.07 2709.0 777.47 H2515.5 Z M2515.5 2905.97 V2712.47 H2709.0 Q2709.0 2789.87 2650.9500000000003 2847.92 Q2592.9 2905.97 2515.5 2905.97 Z"/></g><g id="Light-L" transform="matrix(1 0 0 1 1082.77 1556)"><path d="M1417.016625 2841.466775 V2695.103375 H1682.2083750000002 V2841.466775 H1417.016625 Z M1417.016625 794.836625 V648.4732250000001 H1682.2083750000002 V794.836625 H1417.016625 Z M1956.5817000000002 2841.466775 V2695.103375 H2221.776675 V2841.466775 H1956.5817000000002 Z M1956.5817000000002 794.836625 V648.4732250000001 H2221.776675 V794.836625 H1956.5817000000002 Z M2362.934925 1818.1517 H1441.823325 Q1410.721425 1818.1517 1389.681525 1796.9312 Q1368.641625 1775.7074749999997 1368.641625 1744.3379 Q1368.641625 1712.9683249999998 1389.681525 1692.3799250000002 Q1410.721425 1671.7883000000002 1441.823325 1671.7883000000002 H2362.934925 L2156.780025 1461.17 Q2137.1817 1439.585075 2135.5692 1409.5700000000002 Q2133.9567 1379.554925 2155.2159 1358.295725 Q2177.1201 1336.3883 2207.1384000000003 1337.010725 Q2237.153475 1337.6299250000002 2258.7384 1359.211625 L2579.2518 1679.7250250000002 Q2607.035175 1707.7373750000002 2607.035175 1745.082875 Q2607.035175 1782.428375 2579.2518 1810.2149749999999 L2257.496775 2131.97 Q2235.915075 2153.5517 2207.1384000000003 2153.5517 Q2178.361725 2153.5517 2155.2707250000003 2131.753925 Q2132.715075 2110.385075 2134.3275750000003 2080.37 Q2135.940075 2050.354925 2155.5384 2028.77 L2362.934925 1818.1517 Z M723.893175 2695.103375 V794.836625 H524.684925 Q493.583025 794.836625 472.54312500000003 773.616125 Q451.50322500000004 752.3956250000001 451.50322500000004 721.0260499999999 Q451.50322500000004 689.6532500000001 472.54312500000003 669.06485 Q493.583025 648.4732250000001 524.684925 648.4732250000001 H1066.2366 Q1097.3385 648.4732250000001 1118.3784 669.69695 Q1139.4183 690.91745 1139.4183 722.2870250000001 Q1139.4183 753.6566 1118.3784 774.2482249999999 Q1097.3385 794.836625 1066.2366 794.836625 H870.2533500000001 V2695.103375 H1066.2366 Q1097.3385 2695.103375 1118.3784 2716.323875 Q1139.4183 2737.544375 1139.4183 2768.9139499999997 Q1139.4183 2800.28675 1118.3784 2820.8751500000003 Q1097.3385 2841.466775 1066.2366 2841.466775 H524.684925 Q493.583025 2841.466775 472.54312500000003 2820.24305 Q451.50322500000004 2799.0225499999997 451.50322500000004 2767.652975 Q451.50322500000004 2736.2834 472.54312500000003 2715.6917750000002 Q493.583025 2695.103375 524.684925 2695.103375 H723.893175 Z M2498.133375 794.836625 V648.4732250000001 Q2556.0898500000003 648.4732250000001 2600.2917 692.6783 Q2644.496775 736.88015 2644.496775 794.836625 H2498.133375 Z M2498.133375 2841.466775 V2695.103375 H2644.496775 Q2644.496775 2753.895125 2600.2917 2797.68095 Q2556.0898500000003 2841.466775 2498.133375 2841.466775 Z"/></g><g id="Thin-L" transform="matrix(1 0 0 1 787.282 1556)"><path d="M1418.2550250000002 2776.97 V2677.739975 H1680.969975 V2776.97 H1418.2550250000002 Z M1418.2550250000002 812.2000250000001 V712.97 H1680.969975 V812.2000250000001 H1418.2550250000002 Z M1949.141625 2776.97 V2677.739975 H2211.85335 V2776.97 H1949.141625 Z M1949.141625 812.2000250000001 V712.97 H2211.85335 V812.2000250000001 H1949.141625 Z M2387.741625 1794.586625 H1451.74665 Q1430.658375 1794.586625 1416.3942 1780.1225 Q1402.1300250000002 1765.65515 1402.1300250000002 1744.2734 Q1402.1300250000002 1722.89165 1416.3942 1709.1241249999998 Q1430.658375 1695.3533750000001 1451.74665 1695.3533750000001 H2387.741625 L2143.138275 1445.045 Q2129.741625 1430.9033749999999 2128.129125 1409.5700000000002 Q2126.516625 1388.236625 2140.010025 1374.7432250000002 Q2154.79665 1359.953375 2176.130025 1361.1950000000002 Q2197.466625 1362.4366249999998 2211.6050250000003 1376.575025 L2517.238275 1682.20505 Q2543.780025 1709.201525 2543.780025 1745.1957500000003 Q2543.780025 1781.1899750000002 2517.238275 1807.73495 L2209.125 2115.845 Q2194.9866 2129.986625 2176.130025 2129.986625 Q2157.276675 2129.986625 2140.11645 2115.4128499999997 Q2124.033375 2101.703375 2125.645875 2080.37 Q2127.258375 2059.0366249999997 2140.655025 2044.895 L2387.741625 1794.586625 Z M783.426675 2677.739975 V812.2000250000001 H565.6134 Q544.52835 812.2000250000001 530.264175 797.7359 Q516.0 783.2717749999999 516.0 761.8900249999999 Q516.0 740.5050500000001 530.264175 726.737525 Q544.52835 712.97 565.6134 712.97 H1097.244975 Q1118.330025 712.97 1132.5942 727.4341250000001 Q1146.858375 741.8982500000001 1146.858375 763.2800000000001 Q1146.858375 784.664975 1132.5942 798.4325 Q1118.330025 812.2000250000001 1097.244975 812.2000250000001 H882.6567 V2677.739975 H1097.244975 Q1118.330025 2677.739975 1132.5942 2692.2041 Q1146.858375 2706.668225 1146.858375 2728.049975 Q1146.858375 2749.43495 1132.5942 2763.202475 Q1118.330025 2776.97 1097.244975 2776.97 H565.6134 Q544.52835 2776.97 530.264175 2762.505875 Q516.0 2748.04175 516.0 2726.66 Q516.0 2705.275025 530.264175 2691.5075 Q544.52835 2677.739975 565.6134 2677.739975 H783.426675 Z M2480.769975 812.2000250000001 V712.97 Q2519.282925 712.97 2549.643075 743.3269250000001 Q2580.0 773.687075 2580.0 812.2000250000001 H2480.769975 Z M2480.769975 2776.97 V2677.739975 H2580.0 Q2580.0 2717.9267 2549.643075 2747.44835 Q2519.282925 2776.97 2480.769975 2776.97 Z"/></g><g id="Ultralight-L" transform="matrix(1 0 0 1 491.205 1556)"><path d="M1419.0 2738.27 V2667.32 H1680.2250000000001 V2738.27 H1419.0 Z M1419.0 822.62 V751.6700000000001 H1680.2250000000001 V822.62 H1419.0 Z M1944.675 2738.27 V2667.32 H2205.9 V2738.27 H1944.675 Z M1944.675 822.62 V751.6700000000001 H2205.9 V822.62 H1944.675 Z M2402.625 1780.4450000000002 H1457.7 Q1442.623125 1780.4450000000002 1432.42245 1770.0347000000002 Q1422.2250000000001 1759.6244000000002 1422.2250000000001 1744.2347000000004 Q1422.2250000000001 1728.8450000000003 1432.42245 1719.17 Q1442.623125 1709.495 1457.7 1709.495 H2402.625 L2134.9500000000003 1435.37 Q2125.275 1425.6950000000002 2123.6625 1409.5700000000002 Q2122.05 1393.4450000000002 2130.883275 1384.6117250000002 Q2141.4 1374.0950000000003 2157.525 1375.7075 Q2173.65 1377.3200000000002 2183.3250000000003 1386.995 L2480.025 1683.6950000000002 Q2505.8250000000003 1710.0819500000002 2505.8250000000003 1745.2634750000002 Q2505.8250000000003 1780.4450000000002 2480.025 1806.245 L2180.1 2106.17 Q2170.425 2115.845 2157.525 2115.845 Q2144.625 2115.845 2131.025175 2105.60885 Q2118.8250000000003 2096.495 2120.4375 2080.37 Q2122.05 2064.245 2131.725 2054.57 L2402.625 1780.4450000000002 Z M819.15 2667.32 V822.62 H590.1750000000001 Q575.098125 822.62 564.9006750000001 812.2097 Q554.7 801.7994 554.7 786.4097 Q554.7 771.02 564.9006750000001 761.345 Q575.098125 751.6700000000001 590.1750000000001 751.6700000000001 H1115.8500000000001 Q1130.926875 751.6700000000001 1141.1275500000002 762.0803000000001 Q1151.325 772.4906000000001 1151.325 787.8803 Q1151.325 803.27 1141.1275500000002 812.945 Q1130.926875 822.62 1115.8500000000001 822.62 H890.1 V2667.32 H1115.8500000000001 Q1130.926875 2667.32 1141.1275500000002 2677.7302999999997 Q1151.325 2688.1406 1151.325 2703.5303 Q1151.325 2718.92 1141.1275500000002 2728.595 Q1130.926875 2738.27 1115.8500000000001 2738.27 H590.1750000000001 Q575.098125 2738.27 564.9006750000001 2727.8597 Q554.7 2717.4494 554.7 2702.0597000000002 Q554.7 2686.67 564.9006750000001 2676.995 Q575.098125 2667.32 590.1750000000001 2667.32 H819.15 Z M2470.35 822.62 V751.6700000000001 Q2497.1981250000003 751.6700000000001 2519.2474500000003 773.7225500000001 Q2541.3 795.771875 2541.3 822.62 H2470.35 Z M2470.35 2738.27 V2667.32 H2541.3 Q2541.3 2696.345 2519.2474500000003 2717.3075 Q2497.1981250000003 2738.27 2470.35 2738.27 Z"/></g><g id="Bold-M" transform="matrix(1 0 0 1 2281.8 1126)"><path d="M2170.0 4904.77 V4274.77 H2630.0 V4904.77 H2170.0 Z M2170.0 1294.77 V664.77 H2630.0 V1294.77 H2170.0 Z M3030.0 4904.77 V4274.77 H3490.0 V4904.77 H3030.0 Z M3030.0 1294.77 V664.77 H3490.0 V1294.77 H3030.0 Z M3320.0 3099.77 H2150.0 Q2020.0 3099.77 1927.5 3007.27 Q1835.0 2914.77 1835.0 2784.77 Q1835.0 2654.77 1927.5 2562.27 Q2020.0 2469.77 2150.0 2469.77 H3320.0 Q3235.0 2384.77 3235.0 2264.77 Q3235.0 2144.77 3335.0 2044.77 Q3425.0 1949.77 3555.0 1949.77 Q3685.0 1949.77 3780.0 2044.77 L4295.0 2559.77 Q4390.0 2654.77 4390.0 2784.77 Q4390.0 2914.77 4295.0 3009.77 L3775.0 3529.77 Q3685.0 3619.77 3552.5 3617.27 Q3420.0 3614.77 3320.0 3509.77 Q3235.0 3424.77 3235.0 3304.77 Q3235.0 3184.77 3320.0 3099.77 Z M710.0 4274.77 V1294.77 H595.0 Q465.0 1294.77 372.5 1202.27 Q280.0 1109.77 280.0 979.77 Q280.0 849.77 372.5 757.27 Q465.0 664.77 595.0 664.77 H1455.0 Q1585.0 664.77 1677.5 757.27 Q1770.0 849.77 1770.0 979.77 Q1770.0 1109.77 1677.5 1202.27 Q1585.0 1294.77 1455.0 1294.77 H1340.0 V4274.77 H1455.0 Q1585.0 4274.77 1677.5 4367.27 Q1770.0 4459.77 1770.0 4589.77 Q1770.0 4719.77 1677.5 4812.27 Q1585.0 4904.77 1455.0 4904.77 H595.0 Q465.0 4904.77 372.5 4812.27 Q280.0 4719.77 280.0 4589.77 Q280.0 4459.77 372.5 4367.27 Q465.0 4274.77 595.0 4274.77 H710.0 Z M3890.0 1294.77 V664.77 Q4155.0 664.77 4337.5 847.27 Q4520.0 1029.77 4520.0 1294.77 H3890.0 Z M3890.0 4904.77 V4274.77 H4520.0 Q4520.0 4539.77 4337.5 4722.27 Q4155.0 4904.77 3890.0 4904.77 Z"/></g><g id="Semibold-M" transform="matrix(1 0 0 1 1985.97 1126)"><path d="M2183.045 4765.650000000001 V4235.64 H2616.955 V4765.650000000001 H2183.045 Z M2183.045 1333.9 V803.8900000000001 H2616.955 V1333.9 H2183.045 Z M3016.955 4765.650000000001 V4235.64 H3450.87 V4765.650000000001 H3016.955 Z M3016.955 1333.9 V803.8900000000001 H3450.87 V1333.9 H3016.955 Z M3369.995 3049.775 H2171.7400000000002 Q2061.3 3049.775 1984.02 2972.49 Q1906.735 2895.205 1906.735 2784.77 Q1906.735 2674.335 1984.02 2597.05 Q2061.3 2519.765 2171.7400000000002 2519.765 H3369.995 L3291.74 2441.51 Q3219.785 2369.555 3219.785 2265.855 Q3219.785 2162.16 3302.3950000000004 2079.55 Q3377.1749999999997 2001.94 3487.6150000000002 2001.94 Q3598.05 2001.94 3675.66 2079.55 L4192.835 2596.725 Q4272.615 2676.5099999999998 4272.615 2784.77 Q4272.615 2893.03 4192.835 2972.815 L3672.835 3492.815 Q3598.05 3567.6 3487.285 3567.275 Q3376.5249999999996 3566.9449999999997 3293.915 3481.5099999999998 Q3221.955 3409.555 3221.955 3304.77 Q3221.955 3199.985 3293.915 3128.03 L3369.995 3049.775 Z M836.08 4235.64 V1333.9 H684.125 Q573.69 1333.9 496.40500000000003 1256.6150000000002 Q419.12 1179.33 419.12 1068.895 Q419.12 958.46 496.40500000000003 881.175 Q573.69 803.8900000000001 684.125 803.8900000000001 H1518.04 Q1628.475 803.8900000000001 1705.76 881.175 Q1783.0449999999998 958.46 1783.0449999999998 1068.895 Q1783.0449999999998 1179.33 1705.76 1256.6150000000002 Q1628.475 1333.9 1518.04 1333.9 H1366.085 V4235.64 H1518.04 Q1628.475 4235.64 1705.76 4312.925 Q1783.0449999999998 4390.21 1783.0449999999998 4500.645 Q1783.0449999999998 4611.08 1705.76 4688.365000000001 Q1628.475 4765.650000000001 1518.04 4765.650000000001 H684.125 Q573.69 4765.650000000001 496.40500000000003 4688.365000000001 Q419.12 4611.08 419.12 4500.645 Q419.12 4390.21 496.40500000000003 4312.925 Q573.69 4235.64 684.125 4235.64 H836.08 Z M3850.87 1333.9 V803.8900000000001 Q4072.3950000000004 803.8900000000001 4226.639999999999 958.1299999999999 Q4380.88 1112.375 4380.88 1333.9 H3850.87 Z M3850.87 4765.650000000001 V4235.64 H4380.88 Q4380.88 4457.165000000001 4226.639999999999 4611.41 Q4072.3950000000004 4765.650000000001 3850.87 4765.650000000001 Z"/></g><g id="Medium-M" transform="matrix(1 0 0 1 1689.91 1126)"><path d="M2192.825 4661.295 V4206.29 H2607.1749999999997 V4661.295 H2192.825 Z M2192.825 1363.25 V908.2449999999999 H2607.1749999999997 V1363.25 H2192.825 Z M3007.1749999999997 4661.295 V4206.29 H3421.52 V4661.295 H3007.1749999999997 Z M3007.1749999999997 1363.25 V908.2449999999999 H3421.52 V1363.25 H3007.1749999999997 Z M3407.5 3012.27 H2188.045 Q2092.28 3012.27 2026.4099999999999 2946.4 Q1960.5449999999998 2880.53 1960.5449999999998 2784.77 Q1960.5449999999998 2689.0099999999998 2026.4099999999999 2623.14 Q2092.28 2557.27 2188.045 2557.27 H3407.5 L3270.545 2420.315 Q3208.37 2358.14 3208.37 2266.67 Q3208.37 2175.205 3277.935 2105.64 Q3341.305 2041.0750000000003 3437.065 2041.0750000000003 Q3532.8250000000003 2041.0750000000003 3597.3950000000004 2105.64 L4116.195 2624.4449999999997 Q4184.5650000000005 2692.815 4184.5650000000005 2784.77 Q4184.5650000000005 2876.725 4116.195 2945.0950000000003 L3596.195 3465.0950000000003 Q3532.8250000000003 3528.465 3438.37 3529.77 Q3343.915 3531.075 3274.35 3460.315 Q3212.1749999999997 3398.14 3212.1749999999997 3304.77 Q3212.1749999999997 3211.4 3274.35 3149.225 L3407.5 3012.27 Z M930.65 4206.29 V1363.25 H750.9749999999999 Q655.215 1363.25 589.345 1297.3799999999999 Q523.4749999999999 1231.51 523.4749999999999 1135.745 Q523.4749999999999 1039.9850000000001 589.345 974.115 Q655.215 908.2449999999999 750.9749999999999 908.2449999999999 H1565.325 Q1661.085 908.2449999999999 1726.9550000000002 974.115 Q1792.825 1039.9850000000001 1792.825 1135.745 Q1792.825 1231.51 1726.9550000000002 1297.3799999999999 Q1661.085 1363.25 1565.325 1363.25 H1385.65 V4206.29 H1565.325 Q1661.085 4206.29 1726.9550000000002 4272.16 Q1792.825 4338.030000000001 1792.825 4433.795 Q1792.825 4529.555 1726.9550000000002 4595.425 Q1661.085 4661.295 1565.325 4661.295 H750.9749999999999 Q655.215 4661.295 589.345 4595.425 Q523.4749999999999 4529.555 523.4749999999999 4433.795 Q523.4749999999999 4338.030000000001 589.345 4272.16 Q655.215 4206.29 750.9749999999999 4206.29 H930.65 Z M3821.52 1363.25 V908.2449999999999 Q4010.435 908.2449999999999 4143.4800000000005 1041.29 Q4276.525 1174.335 4276.525 1363.25 H3821.52 Z M3821.52 4661.295 V4206.29 H4276.525 Q4276.525 4395.205 4143.4800000000005 4528.250000000001 Q4010.435 4661.295 3821.52 4661.295 Z"/></g><g id="Regular-M" transform="matrix(1 0 0 1 1394.06 1126)"><path d="M2200.0 4584.77 V4184.77 H2600.0 V4584.77 H2200.0 Z M2200.0 1384.77 V984.77 H2600.0 V1384.77 H2200.0 Z M3000.0 4584.77 V4184.77 H3400.0 V4584.77 H3000.0 Z M3000.0 1384.77 V984.77 H3400.0 V1384.77 H3000.0 Z M3435.0 2984.77 H2200.0 Q2115.0 2984.77 2057.5 2927.27 Q2000.0 2869.77 2000.0 2784.77 Q2000.0 2699.77 2057.5 2642.27 Q2115.0 2584.77 2200.0 2584.77 H3435.0 L3255.0 2404.77 Q3200.0 2349.77 3200.0 2267.27 Q3200.0 2184.77 3260.0 2124.77 Q3315.0 2069.77 3400.0 2069.77 Q3485.0 2069.77 3540.0 2124.77 L4060.0 2644.77 Q4120.0 2704.77 4120.0 2784.77 Q4120.0 2864.77 4060.0 2924.77 L3540.0 3444.77 Q3485.0 3499.77 3402.5 3502.27 Q3320.0 3504.77 3260.0 3444.77 Q3205.0 3389.77 3205.0 3304.77 Q3205.0 3219.77 3260.0 3164.77 L3435.0 2984.77 Z M1000.0 4184.77 V1384.77 H800.0 Q715.0 1384.77 657.5 1327.27 Q600.0 1269.77 600.0 1184.77 Q600.0 1099.77 657.5 1042.27 Q715.0 984.77 800.0 984.77 H1600.0 Q1685.0 984.77 1742.5 1042.27 Q1800.0 1099.77 1800.0 1184.77 Q1800.0 1269.77 1742.5 1327.27 Q1685.0 1384.77 1600.0 1384.77 H1400.0 V4184.77 H1600.0 Q1685.0 4184.77 1742.5 4242.27 Q1800.0 4299.77 1800.0 4384.77 Q1800.0 4469.77 1742.5 4527.27 Q1685.0 4584.77 1600.0 4584.77 H800.0 Q715.0 4584.77 657.5 4527.27 Q600.0 4469.77 600.0 4384.77 Q600.0 4299.77 657.5 4242.27 Q715.0 4184.77 800.0 4184.77 H1000.0 Z M3800.0 1384.77 V984.77 Q3965.0 984.77 4082.5 1102.27 Q4200.0 1219.77 4200.0 1384.77 H3800.0 Z M3800.0 4584.77 V4184.77 H4200.0 Q4200.0 4349.77 4082.5 4467.27 Q3965.0 4584.77 3800.0 4584.77 Z"/></g><g id="Light-M" transform="matrix(1 0 0 1 1098.18 1126)"><path d="M2200.0 4484.765 V4184.77 H2600.0 V4484.765 H2200.0 Z M2200.0 1384.77 V1084.775 H2600.0 V1384.77 H2200.0 Z M3000.0 4484.765 V4184.77 H3400.0 V4484.765 H3000.0 Z M3000.0 1384.77 V1084.775 H3400.0 V1384.77 H3000.0 Z M3525.39 2934.765 H2221.1549999999997 Q2157.4049999999997 2934.765 2114.2850000000003 2891.625 Q2071.1600000000003 2848.48 2071.1600000000003 2784.705 Q2071.1600000000003 2720.9249999999997 2114.2850000000003 2677.85 Q2157.4049999999997 2634.775 2221.1549999999997 2634.775 H3525.39 L3262.6949999999997 2370.15 Q3221.1549999999997 2328.6150000000002 3220.1949999999997 2266.31 Q3219.23 2204.0 3265.1850000000004 2159.0550000000003 Q3307.3050000000003 2117.85 3371.15 2118.81 Q3434.995 2119.775 3476.535 2161.31 L3973.455 2658.235 Q4027.6850000000004 2712.4649999999997 4027.6850000000004 2784.77 Q4027.6850000000004 2857.0750000000003 3973.455 2911.305 L3474.61 3410.15 Q3433.075 3451.69 3372.69 3453.23 Q3312.3050000000003 3454.765 3265.3500000000004 3409.82 Q3222.31 3368.6150000000002 3223.27 3304.77 Q3224.23 3240.9249999999997 3265.77 3199.39 L3525.39 2934.765 Z M1100.005 4184.77 V1384.77 H850.005 Q786.255 1384.77 743.13 1341.625 Q700.005 1298.485 700.005 1234.7050000000002 Q700.005 1170.93 743.13 1127.855 Q786.255 1084.775 850.005 1084.775 H1650.0049999999999 Q1713.75 1084.775 1756.875 1127.92 Q1800.0 1171.0649999999998 1800.0 1234.8400000000001 Q1800.0 1298.62 1756.875 1341.695 Q1713.75 1384.77 1650.0049999999999 1384.77 H1400.0 V4184.77 H1650.0049999999999 Q1713.75 4184.77 1756.875 4227.915000000001 Q1800.0 4271.055 1800.0 4334.835000000001 Q1800.0 4398.610000000001 1756.875 4441.685 Q1713.75 4484.765 1650.0049999999999 4484.765 H850.005 Q786.255 4484.765 743.13 4441.620000000001 Q700.005 4398.475 700.005 4334.700000000001 Q700.005 4270.92 743.13 4227.845 Q786.255 4184.77 850.005 4184.77 H1100.005 Z M3800.0 1384.77 V1084.775 Q3923.745 1084.775 4011.87 1172.9 Q4099.995 1261.0249999999999 4099.995 1384.77 H3800.0 Z M3800.0 4484.765 V4184.77 H4099.995 Q4099.995 4309.380000000001 4011.87 4397.075000000001 Q3923.745 4484.765 3800.0 4484.765 Z"/></g><g id="Thin-M" transform="matrix(1 0 0 1 802.565 1126)"><path d="M2200.0 4384.77 V4184.77 H2600.0 V4384.77 H2200.0 Z M2200.0 1384.77 V1184.77 H2600.0 V1384.77 H2200.0 Z M3000.0 4384.77 V4184.77 H3400.0 V4384.77 H3000.0 Z M3000.0 1384.77 V1184.77 H3400.0 V1384.77 H3000.0 Z M3615.77 2884.77 H2242.3050000000003 Q2199.8050000000003 2884.77 2171.0550000000003 2855.98 Q2142.3050000000003 2827.19 2142.3050000000003 2784.6349999999998 Q2142.3050000000003 2742.0750000000003 2171.0550000000003 2713.4249999999997 Q2199.8050000000003 2684.77 2242.3050000000003 2684.77 H3615.77 L3270.385 2335.54 Q3242.3050000000003 2307.4649999999997 3240.385 2265.345 Q3238.46 2223.23 3270.37 2193.33 Q3299.615 2165.9249999999997 3342.31 2167.845 Q3385.0 2169.77 3413.08 2197.845 L3886.925 2671.695 Q3935.385 2720.155 3935.385 2784.77 Q3935.385 2849.3849999999998 3886.925 2897.845 L3409.23 3375.54 Q3381.1549999999997 3403.6150000000002 3342.885 3404.195 Q3304.615 3404.77 3270.7 3374.87 Q3239.615 3347.4649999999997 3241.54 3304.77 Q3243.46 3262.0750000000003 3271.54 3234.0 L3615.77 2884.77 Z M1200.0 4184.77 V1384.77 H900.0 Q857.5 1384.77 828.75 1355.98 Q800.0 1327.1899999999998 800.0 1284.635 Q800.0 1242.075 828.75 1213.425 Q857.5 1184.77 900.0 1184.77 H1700.0 Q1742.5 1184.77 1771.25 1213.56 Q1800.0 1242.3449999999998 1800.0 1284.905 Q1800.0 1327.46 1771.25 1356.115 Q1742.5 1384.77 1700.0 1384.77 H1400.0 V4184.77 H1700.0 Q1742.5 4184.77 1771.25 4213.56 Q1800.0 4242.35 1800.0 4284.905000000001 Q1800.0 4327.465 1771.25 4356.115000000001 Q1742.5 4384.77 1700.0 4384.77 H900.0 Q857.5 4384.77 828.75 4355.9800000000005 Q800.0 4327.195000000001 800.0 4284.635 Q800.0 4242.08 828.75 4213.425 Q857.5 4184.77 900.0 4184.77 H1200.0 Z M3800.0 1384.77 V1184.77 Q3882.5 1184.77 3941.25 1243.52 Q4000.0 1302.27 4000.0 1384.77 H3800.0 Z M3800.0 4384.77 V4184.77 H4000.0 Q4000.0 4269.0 3941.25 4326.885 Q3882.5 4384.77 3800.0 4384.77 Z"/></g><g id="Ultralight-M" transform="matrix(1 0 0 1 506.415 1126)"><path d="M2200.0 4324.77 V4184.77 H2600.0 V4324.77 H2200.0 Z M2200.0 1384.77 V1244.77 H2600.0 V1384.77 H2200.0 Z M3000.0 4324.77 V4184.77 H3400.0 V4324.77 H3000.0 Z M3000.0 1384.77 V1244.77 H3400.0 V1384.77 H3000.0 Z M3670.0 2854.77 H2255.0 Q2225.25 2854.77 2205.125 2834.5950000000003 Q2185.0 2814.4199999999996 2185.0 2784.5950000000003 Q2185.0 2754.77 2205.125 2734.77 Q2225.25 2714.77 2255.0 2714.77 H3670.0 L3275.0 2314.77 Q3255.0 2294.77 3252.5 2264.77 Q3250.0 2234.77 3273.48 2213.9 Q3295.0 2194.77 3325.0 2197.27 Q3355.0 2199.77 3375.0 2219.77 L3835.0 2679.77 Q3880.0 2724.77 3880.0 2784.77 Q3880.0 2844.77 3835.0 2889.77 L3370.0 3354.77 Q3350.0 3374.77 3325.0 3374.77 Q3300.0 3374.77 3273.915 3353.9 Q3250.0 3334.77 3252.5 3304.77 Q3255.0 3274.77 3275.0 3254.77 L3670.0 2854.77 Z M1260.0 4184.77 V1384.77 H930.0 Q900.25 1384.77 880.125 1364.5949999999998 Q860.0 1344.42 860.0 1314.5949999999998 Q860.0 1284.77 880.125 1264.77 Q900.25 1244.77 930.0 1244.77 H1730.0 Q1759.75 1244.77 1779.875 1264.9450000000002 Q1800.0 1285.12 1800.0 1314.9450000000002 Q1800.0 1344.77 1779.875 1364.77 Q1759.75 1384.77 1730.0 1384.77 H1400.0 V4184.77 H1730.0 Q1759.75 4184.77 1779.875 4204.945000000001 Q1800.0 4225.120000000001 1800.0 4254.945000000001 Q1800.0 4284.77 1779.875 4304.77 Q1759.75 4324.77 1730.0 4324.77 H930.0 Q900.25 4324.77 880.125 4304.595 Q860.0 4284.42 860.0 4254.595 Q860.0 4224.77 880.125 4204.77 Q900.25 4184.77 930.0 4184.77 H1260.0 Z M3800.0 1384.77 V1244.77 Q3857.75 1244.77 3898.875 1285.895 Q3940.0 1327.02 3940.0 1384.77 H3800.0 Z M3800.0 4324.77 V4184.77 H3940.0 Q3940.0 4244.77 3898.875 4284.77 Q3857.75 4324.77 3800.0 4324.77 Z"/></g><g id="Bold-S" transform="matrix(1 0 0 1 2294.23 696)"><path d="M2073.492 4537.814 V3979.2019999999998 H2471.148 V4537.814 H2073.492 Z M2073.492 1309.226 V750.614 H2471.148 V1309.226 H2073.492 Z M2840.4 4537.814 V3979.2019999999998 H3238.056 V4537.814 H2840.4 Z M2840.4 1309.226 V750.614 H3238.056 V1309.226 H2840.4 Z M3100.77 2923.52 H2182.374 Q2067.3378 2923.52 1985.2029 2841.673874 Q1903.068 2759.823014 1903.068 2645.212874 Q1903.068 2530.598 1985.2029 2447.7529999999997 Q2067.3378 2364.908 2182.374 2364.908 H3100.77 L3119.706 2383.844 Q3039.228 2303.366 3041.595 2199.218 Q3043.962 2095.0699999999997 3133.908 2005.124 Q3219.12 1915.178 3330.369 1915.178 Q3441.618 1915.178 3531.564 2005.124 L3968.2328939999998 2446.039292 Q4052.304 2530.598 4052.304 2645.0755879999997 Q4052.304 2759.553176 3967.092 2843.042 L3522.096 3288.038 Q3436.884 3373.25 3323.268 3366.149 Q3209.652 3359.048 3119.706 3264.368 Q3039.228 3183.89 3039.228 3082.109 Q3039.228 2980.328 3119.706 2899.85 L3100.77 2923.52 Z M804.78 3979.2019999999998 V1309.226 H658.026 Q542.9898000000001 1309.226 460.8549 1227.3798740000002 Q378.72 1145.529014 378.72 1030.9188740000002 Q378.72 916.3040000000001 460.8549 833.4590000000001 Q542.9898000000001 750.614 658.026 750.614 H1510.146 Q1625.1822 750.614 1707.3171 832.460126 Q1789.452 914.310986 1789.452 1028.921126 Q1789.452 1143.536 1707.3171 1226.381 Q1625.1822 1309.226 1510.146 1309.226 H1363.392 V3979.2019999999998 H1510.146 Q1625.1822 3979.2019999999998 1707.3171 4061.048126 Q1789.452 4142.898986 1789.452 4257.509126 Q1789.452 4372.124000000001 1707.3171 4454.969 Q1625.1822 4537.814 1510.146 4537.814 H658.026 Q542.9898000000001 4537.814 460.8549 4455.967874 Q378.72 4374.117014 378.72 4259.506874000001 Q378.72 4144.892 460.8549 4062.047 Q542.9898000000001 3979.2019999999998 658.026 3979.2019999999998 H804.78 Z M3607.308 1309.226 V750.614 Q3842.5878000000002 750.614 4004.2539 912.2801 Q4165.92 1073.9462 4165.92 1309.226 H3607.308 Z M3607.308 4537.814 V3979.2019999999998 H4165.92 Q4165.92 4215.902 4004.2539 4376.858 Q3842.5878000000002 4537.814 3607.308 4537.814 Z"/></g><g id="Semibold-S" transform="matrix(1 0 0 1 1998.1 696)"><path d="M2085.843006 4406.095184000001 V3942.153716 H2458.796994 V4406.095184000001 H2085.843006 Z M2085.843006 1346.274284 V882.3328160000001 H2458.796994 V1346.274284 H2085.843006 Z M2828.0489939999998 4406.095184000001 V3942.153716 H3201.007716 V4406.095184000001 H2828.0489939999998 Z M2828.0489939999998 1346.274284 V882.3328160000001 H3201.007716 V1346.274284 H2828.0489939999998 Z M3148.105266 2876.184734 H2202.957432 Q2106.44064 2876.184734 2038.716036 2808.739436 Q1970.986698 2741.298872 1970.986698 2645.212874 Q1970.986698 2549.1221419999997 2038.716036 2480.682704 Q2106.44064 2412.243266 2202.957432 2412.243266 H3148.105266 L3092.949432 2357.087432 Q3024.822438 2288.9604379999996 3027.189438 2200.245278 Q3029.556438 2111.534852 3103.0375860000004 2038.0537040000002 Q3173.83929 1964.572556 3266.568882 1964.572556 Q3359.29374 1964.572556 3432.774888 2038.0537040000002 L3871.503072 2481.0282859999998 Q3941.1638820000003 2551.1814319999994 3941.1638820000003 2645.0755879999997 Q3941.1638820000003 2738.9697439999995 3870.362178 2808.053006 L3425.366178 3253.049006 Q3354.55974 3323.855444 3261.522438 3318.813734 Q3168.48987 3313.76729 3095.008722 3237.6114319999997 Q3026.8769939999997 3169.484438 3026.8769939999997 3082.109 Q3026.8769939999997 2994.733562 3095.008722 2926.606568 L3148.105266 2876.184734 Z M924.152544 3942.153716 V1346.274284 H742.40955 Q645.8974919999999 1346.274284 578.168154 1278.828986 Q510.438816 1211.3884220000002 510.438816 1115.29769 Q510.438816 1019.2116920000001 578.168154 950.772254 Q645.8974919999999 882.3328160000001 742.40955 882.3328160000001 H1569.832272 Q1666.3443300000001 882.3328160000001 1734.073668 949.7733800000001 Q1801.8030059999999 1017.2186780000002 1801.8030059999999 1113.304676 Q1801.8030059999999 1209.3954079999999 1734.073668 1277.8348460000002 Q1666.3443300000001 1346.274284 1569.832272 1346.274284 H1388.089278 V3942.153716 H1569.832272 Q1666.3443300000001 3942.153716 1734.073668 4009.599014 Q1801.8030059999999 4077.0395780000003 1801.8030059999999 4173.1303100000005 Q1801.8030059999999 4269.216308 1734.073668 4337.655746 Q1666.3443300000001 4406.095184000001 1569.832272 4406.095184000001 H742.40955 Q645.8974919999999 4406.095184000001 578.168154 4338.65462 Q510.438816 4271.209322000001 510.438816 4175.123324 Q510.438816 4079.032592 578.168154 4010.5931539999997 Q645.8974919999999 3942.153716 742.40955 3942.153716 H924.152544 Z M3570.259716 1346.274284 V882.3328160000001 Q3764.3773859999997 882.3328160000001 3899.291652 1017.242348 Q4034.201184 1152.1566140000002 4034.201184 1346.274284 H3570.259716 Z M3570.259716 4406.095184000001 V3942.153716 H4034.201184 Q4034.201184 4137.691586000001 3899.291652 4271.895752 Q3764.3773859999997 4406.095184000001 3570.259716 4406.095184000001 Z"/></g><g id="Medium-S" transform="matrix(1 0 0 1 1701.85 696)"><path d="M2095.10271 4307.29187 V3914.365136 H2449.5372899999998 V4307.29187 H2095.10271 Z M2095.10271 1374.0628640000002 V981.1361300000001 H2449.5372899999998 V1374.0628640000002 H2095.10271 Z M2818.7892899999997 4307.29187 V3914.365136 H3173.2191359999997 V4307.29187 H2818.7892899999997 Z M2818.7892899999997 1374.0628640000002 V981.1361300000001 H3173.2191359999997 V1374.0628640000002 H2818.7892899999997 Z M3183.615 2840.6749999999997 H2218.3950059999997 Q2135.772504 2840.6749999999997 2078.850888 2784.042158 Q2021.934006 2727.4045819999997 2021.934006 2645.212874 Q2021.934006 2563.0164319999994 2078.850888 2505.3847159999996 Q2135.772504 2447.7529999999997 2218.3950059999997 2447.7529999999997 H3183.615 L3072.8820060000003 2337.0200059999997 Q3014.0147159999997 2278.1527159999996 3016.381716 2201.01692 Q3018.748716 2123.8858579999996 3079.878858 2062.7557159999997 Q3139.8775739999996 2001.6255740000004 3218.708142 2001.6255740000004 Q3297.5387100000003 2001.6255740000004 3358.6735860000003 2062.7557159999997 L3798.945054 2507.273582 Q3857.798142 2566.619006 3857.798142 2645.0755879999997 Q3857.798142 2723.53217 3797.799426 2781.80771 L3352.803426 3226.80371 Q3292.8047100000003 3286.802426 3215.209716 3283.3039999999996 Q3137.6147220000003 3279.8055739999995 3076.48458 3217.544006 Q3017.6172899999997 3158.676716 3017.6172899999997 3082.109 Q3017.6172899999997 3005.541284 3076.48458 2946.6739939999998 L3183.615 2840.6749999999997 Z M1013.69142 3914.365136 V1374.0628640000002 H805.70313 Q723.0853619999999 1374.0628640000002 666.163746 1317.4252880000001 Q609.24213 1260.7924460000002 609.24213 1178.596004 Q609.24213 1096.399562 666.163746 1038.767846 Q723.0853619999999 981.1361300000001 805.70313 981.1361300000001 H1614.60171 Q1697.219478 981.1361300000001 1754.141094 1037.773706 Q1811.06271 1094.4065480000002 1811.06271 1176.60299 Q1811.06271 1258.799432 1754.141094 1316.4311480000001 Q1697.219478 1374.0628640000002 1614.60171 1374.0628640000002 H1406.61342 V3914.365136 H1614.60171 Q1697.219478 3914.365136 1754.141094 3971.002712 Q1811.06271 4027.635554 1811.06271 4109.831996000001 Q1811.06271 4192.028438 1754.141094 4249.660154 Q1697.219478 4307.29187 1614.60171 4307.29187 H805.70313 Q723.0853619999999 4307.29187 666.163746 4250.654294 Q609.24213 4194.021452000001 609.24213 4111.8250100000005 Q609.24213 4029.6285679999996 666.163746 3971.9968519999998 Q723.0853619999999 3914.365136 805.70313 3914.365136 H1013.69142 Z M3542.4711359999997 1374.0628640000002 V981.1361300000001 Q3705.713658 981.1361300000001 3820.555764 1095.9782360000002 Q3935.39787 1210.8203420000002 3935.39787 1374.0628640000002 H3542.4711359999997 Z M3542.4711359999997 4307.29187 V3914.365136 H3935.39787 Q3935.39787 4079.027858 3820.555764 4193.159864 Q3705.713658 4307.29187 3542.4711359999997 4307.29187 Z"/></g><g id="Regular-S" transform="matrix(1 0 0 1 1405.73 696)"><path d="M2101.896 4234.838000000001 V3893.99 H2442.744 V4234.838000000001 H2101.896 Z M2101.896 1394.438 V1053.5900000000001 H2442.744 V1394.438 H2101.896 Z M2811.996 4234.838000000001 V3893.99 H3152.844 V4234.838000000001 H2811.996 Z M2811.996 1394.438 V1053.5900000000001 H3152.844 V1394.438 H2811.996 Z M3209.652 2814.638 H2229.714 Q2157.2838 2814.638 2108.2869 2765.929874 Q2059.29 2717.217014 2059.29 2645.212874 Q2059.29 2573.2039999999997 2108.2869 2523.497 Q2157.2838 2473.79 2229.714 2473.79 H3209.652 L3058.164 2322.3019999999997 Q3006.09 2270.2279999999996 3008.457 2201.585 Q3010.824 2132.942 3062.898 2080.868 Q3114.972 2028.794 3183.615 2028.794 Q3252.258 2028.794 3304.332 2080.868 L3745.7348939999997 2526.517292 Q3796.668 2577.9379999999996 3796.668 2645.0755879999997 Q3796.668 2712.213176 3744.594 2762.564 L3299.598 3207.56 Q3247.524 3259.634 3181.248 3257.267 Q3114.972 3254.8999999999996 3062.898 3202.826 Q3010.824 3150.752 3010.824 3082.109 Q3010.824 3013.466 3062.898 2961.392 L3209.652 2814.638 Z M1079.352 3893.99 V1394.438 H852.12 Q779.6898 1394.438 730.6929 1345.729874 Q681.696 1297.017014 681.696 1225.012874 Q681.696 1153.0040000000001 730.6929 1103.297 Q779.6898 1053.5900000000001 852.12 1053.5900000000001 H1647.432 Q1719.8622 1053.5900000000001 1768.8591 1102.298126 Q1817.856 1151.010986 1817.856 1223.015126 Q1817.856 1295.0240000000001 1768.8591 1344.731 Q1719.8622 1394.438 1647.432 1394.438 H1420.2 V3893.99 H1647.432 Q1719.8622 3893.99 1768.8591 3942.698126 Q1817.856 3991.4109859999994 1817.856 4063.4151259999994 Q1817.856 4135.424 1768.8591 4185.131 Q1719.8622 4234.838000000001 1647.432 4234.838000000001 H852.12 Q779.6898 4234.838000000001 730.6929 4186.129874 Q681.696 4137.417014000001 681.696 4065.412874 Q681.696 3993.404 730.6929 3943.6969999999997 Q779.6898 3893.99 852.12 3893.99 H1079.352 Z M3522.096 1394.438 V1053.5900000000001 Q3662.6958000000004 1053.5900000000001 3762.8199 1153.7141 Q3862.944 1253.8382000000001 3862.944 1394.438 H3522.096 Z M3522.096 4234.838000000001 V3893.99 H3862.944 Q3862.944 4036.0099999999998 3762.8199 4135.424 Q3662.6958000000004 4234.838000000001 3522.096 4234.838000000001 Z"/></g><g id="Light-S" transform="matrix(1 0 0 1 1109.75 696)"><path d="M2101.896 4140.153266 V3893.99 H2442.744 V4140.153266 H2101.896 Z M2101.896 1394.438 V1148.2747339999999 H2442.744 V1394.438 H2101.896 Z M2811.996 4140.153266 V3893.99 H3152.844 V4140.153266 H2811.996 Z M2811.996 1394.438 V1148.2747339999999 H3152.844 V1394.438 H2811.996 Z M3295.233252 2767.293266 H2249.743554 Q2197.432854 2767.293266 2162.050938 2732.176454 Q2126.664288 2697.0596419999997 2126.664288 2645.146598 Q2126.664288 2593.233554 2162.050938 2557.184144 Q2197.432854 2521.1347339999998 2249.743554 2521.1347339999998 H3295.233252 L3065.449626 2289.523784 Q3026.119554 2250.198446 3027.577626 2200.6760719999997 Q3029.030964 2151.148964 3067.807158 2113.329038 Q3107.686374 2074.316144 3156.29982 2075.2250719999997 Q3204.913266 2076.1387339999997 3244.243338 2115.4640719999998 L3663.794088 2539.26122 Q3709.264158 2585.223626 3709.264158 2645.0755879999997 Q3709.264158 2704.92755 3662.653194 2749.815338 L3237.686748 3174.781784 Q3198.36141 3214.111856 3153.023892 3210.835928 Q3107.686374 3207.555266 3067.96338 3169.7353399999997 Q3027.213108 3130.7224459999998 3028.1220359999998 3082.109 Q3029.030964 3033.4955539999996 3068.361036 2994.1702159999995 L3295.233252 2767.293266 Z M1174.036734 3893.99 V1394.438 H899.464734 Q847.1540339999999 1394.438 811.767384 1359.3211880000001 Q776.3807340000001 1324.204376 776.3807340000001 1272.291332 Q776.3807340000001 1220.378288 811.767384 1184.3288780000003 Q847.1540339999999 1148.2747339999999 899.464734 1148.2747339999999 H1694.7767339999998 Q1747.0827000000002 1148.2747339999999 1782.4693499999998 1183.3962800000002 Q1817.856 1218.5130920000001 1817.856 1270.426136 Q1817.856 1322.33918 1782.4693499999998 1358.38859 Q1747.0827000000002 1394.438 1694.7767339999998 1394.438 H1420.2 V3893.99 H1694.7767339999998 Q1747.0827000000002 3893.99 1782.4693499999998 3929.106812 Q1817.856 3964.2236239999997 1817.856 4016.1366679999996 Q1817.856 4068.0497119999995 1782.4693499999998 4104.0991220000005 Q1747.0827000000002 4140.153266 1694.7767339999998 4140.153266 H899.464734 Q847.1540339999999 4140.153266 811.767384 4105.031720000001 Q776.3807340000001 4069.914908 776.3807340000001 4018.0018640000003 Q776.3807340000001 3966.08882 811.767384 3930.03941 Q847.1540339999999 3893.99 899.464734 3893.99 H1174.036734 Z M3522.096 1394.438 V1148.2747339999999 Q3623.635566 1148.2747339999999 3695.9474160000004 1220.5865840000001 Q3768.259266 1292.898434 3768.259266 1394.438 H3522.096 Z M3522.096 4140.153266 V3893.99 H3768.259266 Q3768.259266 3997.768748 3695.9474160000004 4068.9633739999995 Q3623.635566 4140.153266 3522.096 4140.153266 Z"/></g><g id="Thin-S" transform="matrix(1 0 0 1 814.015 696)"><path d="M2101.896 4045.4779999999996 V3893.99 H2442.744 V4045.4779999999996 H2101.896 Z M2101.896 1394.438 V1242.95 H2442.744 V1394.438 H2101.896 Z M2811.996 4045.4779999999996 V3893.99 H3152.844 V4045.4779999999996 H2811.996 Z M2811.996 1394.438 V1242.95 H3152.844 V1394.438 H2811.996 Z M3380.8050359999997 2719.9579999999996 H2269.768374 Q2237.577174 2719.9579999999996 2215.800774 2698.4325019999997 Q2194.024374 2676.9070039999997 2194.024374 2645.085056 Q2194.024374 2613.258374 2215.800774 2590.8665539999997 Q2237.577174 2568.47 2269.768374 2568.47 H3380.8050359999997 L3072.730518 2256.755036 Q3046.144374 2230.173626 3046.693518 2199.76241 Q3047.237928 2169.355928 3072.716316 2145.7806079999996 Q3100.405482 2119.833554 3128.994108 2121.65141 Q3157.578 2123.4739999999997 3184.164144 2150.05541 L3581.867484 2552.009882 Q3621.874518 2592.5045179999997 3621.874518 2645.0755879999997 Q3621.874518 2697.646658 3580.7265899999998 2737.07141 L3175.784964 3142.013036 Q3149.203554 3168.594446 3124.804518 3164.4095899999998 Q3100.405482 3160.22 3073.02876 3136.64468 Q3043.597482 3110.6976259999997 3045.420072 3082.109 Q3047.237928 3053.5203739999997 3073.824072 3026.938964 L3380.8050359999997 2719.9579999999996 Z M1268.712 3893.99 V1394.438 H946.8 Q914.6088 1394.438 892.8324 1372.912502 Q871.056 1351.3870040000002 871.056 1319.560322 Q871.056 1287.738374 892.8324 1265.346554 Q914.6088 1242.95 946.8 1242.95 H1742.112 Q1774.3032 1242.95 1796.0795999999998 1264.4754980000002 Q1817.856 1286.000996 1817.856 1317.822944 Q1817.856 1349.644892 1796.0795999999998 1372.0414460000002 Q1774.3032 1394.438 1742.112 1394.438 H1420.2 V3893.99 H1742.112 Q1774.3032 3893.99 1796.0795999999998 3915.5154979999998 Q1817.856 3937.04573 1817.856 3968.867678 Q1817.856 4000.689626 1796.0795999999998 4023.0814459999997 Q1774.3032 4045.4779999999996 1742.112 4045.4779999999996 H946.8 Q914.6088 4045.4779999999996 892.8324 4023.9525019999996 Q871.056 4002.4270039999997 871.056 3970.605056 Q871.056 3938.7831079999996 892.8324 3916.3865539999997 Q914.6088 3893.99 946.8 3893.99 H1268.712 Z M3522.096 1394.438 V1242.95 Q3584.5848 1242.95 3629.0844 1287.4496 Q3673.584 1331.9492 3673.584 1394.438 H3522.096 Z M3522.096 4045.4779999999996 V3893.99 H3673.584 Q3673.584 3959.536964 3629.0844 4002.507482 Q3584.5848 4045.4779999999996 3522.096 4045.4779999999996 Z"/></g><g id="Ultralight-S" transform="matrix(1 0 0 1 517.792 696)"><path d="M2101.896 3988.6699999999996 V3893.99 H2442.744 V3988.6699999999996 H2101.896 Z M2101.896 1394.438 V1299.758 H2442.744 V1394.438 H2101.896 Z M2811.996 3988.6699999999996 V3893.99 H3152.844 V3988.6699999999996 H2811.996 Z M2811.996 1394.438 V1299.758 H3152.844 V1394.438 H2811.996 Z M3432.15 2691.5539999999996 H2281.788 Q2261.6684999999998 2691.5539999999996 2248.05825 2678.18045 Q2234.448 2664.8116339999997 2234.448 2645.0424499999995 Q2234.448 2625.278 2248.05825 2611.076 Q2261.6684999999998 2596.874 2281.788 2596.874 H3432.15 L3077.1 2237.0899999999997 Q3058.164 2218.154 3058.164 2199.218 Q3058.164 2180.2819999999997 3075.660864 2165.256284 Q3096.036 2147.144 3112.605 2149.511 Q3129.174 2151.8779999999997 3148.11 2170.814 L3532.704894 2559.655292 Q3569.436 2596.874 3569.436 2645.0755879999997 Q3569.436 2693.277176 3531.564 2729.426 L3138.642 3122.348 Q3119.706 3141.2839999999997 3107.871 3136.5499999999997 Q3096.036 3131.816 3076.072722 3116.790284 Q3053.43 3098.678 3055.797 3082.109 Q3058.164 3065.54 3077.1 3046.604 L3432.15 2691.5539999999996 Z M1325.52 3893.99 V1394.438 H975.204 Q955.0845 1394.438 941.47425 1381.06445 Q927.864 1367.6956340000002 927.864 1347.9264500000002 Q927.864 1328.162 941.47425 1313.96 Q955.0845 1299.758 975.204 1299.758 H1770.516 Q1790.6355 1299.758 1804.24575 1313.13155 Q1817.856 1326.500366 1817.856 1346.26955 Q1817.856 1366.034 1804.24575 1380.236 Q1790.6355 1394.438 1770.516 1394.438 H1420.2 V3893.99 H1770.516 Q1790.6355 3893.99 1804.24575 3907.36355 Q1817.856 3920.7323659999997 1817.856 3940.50155 Q1817.856 3960.2659999999996 1804.24575 3974.468 Q1790.6355 3988.6699999999996 1770.516 3988.6699999999996 H975.204 Q955.0845 3988.6699999999996 941.47425 3975.29645 Q927.864 3961.9276339999997 927.864 3942.1584499999994 Q927.864 3922.394 941.47425 3908.192 Q955.0845 3893.99 975.204 3893.99 H1325.52 Z M3522.096 1394.438 V1299.758 Q3561.1515 1299.758 3588.96375 1327.57025 Q3616.776 1355.3825000000002 3616.776 1394.438 H3522.096 Z M3522.096 3988.6699999999996 V3893.99 H3616.776 Q3616.776 3936.596 3588.96375 3962.633 Q3561.1515 3988.6699999999996 3522.096 3988.6699999999996 Z"/></g></g></svg>