<svg xmlns="http://www.w3.org/2000/svg" height="48" viewBox="0 -960 960 960" width="48"><path d="M874.52-33.13 770.43-137.65q-15.77 9.87-35.47 15.52t-40.44 5.65q-63.23 0-106.9-43.65-43.66-43.65-43.66-106.87 0-63.21 43.73-106.63 43.74-43.41 106.9-43.41 63.17 0 106.55 43.5 43.38 43.5 43.38 106.5 0 22.91-6.15 42.98-6.15 20.06-18.02 37.49L923.87-83.04l-49.35 49.91ZM694.65-187.22q33.62 0 56.38-23.05 22.75-23.04 22.75-56.9 0-33.62-22.94-56.38-22.95-22.75-56.65-22.75-33.71 0-56.6 22.94t-22.89 56.65q0 33.71 23.04 56.6 23.05 22.89 56.91 22.89ZM100.78-70.39v-261.48q0-46.94 32.43-79.6 32.42-32.66 79.83-32.66h99.79q67.98 0 89.94-23.11 21.97-23.11 21.97-58.63 0-34.4-18.64-54.46-18.64-20.06-45.32-20.06-25 0-42.5-17.5t-17.5-42.5v-229.22h279v90q113.7 3.96 196.85 86.63 83.15 82.68 83.15 196.94v91.39q-32.56-34.91-75.08-53.65-42.53-18.74-90.18-18.74-95.43 0-161.87 65.3-66.43 65.31-68.69 159.61-.57 21.09 2.84 41.39 3.42 20.31 10.81 38.83h-64.78q-14.22 0-23.63 9.62-9.42 9.63-9.42 23.42v88.48h-279Z"/></svg>