<svg xmlns="http://www.w3.org/2000/svg" height="48" viewBox="0 -960 960 960" width="48"><path d="M480-558q-63-50-102.5-81t-62-53.5Q293-715 285-734.5t-8-46.5q0-46.58 35.45-81.29Q347.9-897 398-897q25.35 0 47.17 12.5Q467-872 480-850q13-22 35.2-34.5 22.2-12.5 47.41-12.5 50.75 0 85.57 34.71Q683-827.58 683-781q0 27-8 46.5t-30.5 42Q622-670 582.5-639T480-558Zm0-111q78-61 101-77.72 23-16.73 23-32.35 0-14.93-11.05-26.43T567.41-817q-12.78 0-23.1 7-10.31 7-24.12 17.58L479-767l-39-27q-13.51-9.07-24.07-16.03-10.56-6.97-23.34-6.97-14.49 0-25.04 11.5Q357-794 357-779.07q0 15.62 22.5 32.35Q402-730 480-669ZM94-55v-127q-18.57-5.24-31.71-20.58Q49.15-217.92 47-237.7L10-653h31.15q27.93 0 48.03 18.46Q109.28-616.07 112-588l26 273h149q38 0 66 27.48 28 27.47 28 66.52v47h-41v119h-67v-119H161v119H94Zm350 0v-360H212q0-34 23.63-57 23.62-23 56.37-23h377q31.75 0 55.38 23.62Q748-447.75 748-415H516v360h-72Zm177 0v-119h-41v-47q0-39.05 27.77-66.52Q635.54-315 675-315h148l26-273q1.56-28.15 22.29-46.57Q892.02-653 919.43-653H950l-37.05 415.3q-2.02 20.78-14.99 36.12Q885-186.24 866-181v126h-66v-119H687v119h-66ZM480-669Z"/></svg>