<svg xmlns="http://www.w3.org/2000/svg" height="20" viewBox="0 -960 960 960" width="20"><path d="M479.97-261.61q40.75 0 78.58-19.22 37.84-19.21 70.8-55.41l-55.59-51.11q-21.24 23.48-45.24 35.72-24 12.24-48.52 12.24-24.52 0-48.52-12.24-24-12.24-45.24-35.72l-55.59 51.11q33.2 36.2 70.88 55.41 37.69 19.22 78.44 19.22Zm.01 173.74q-80.65 0-152.09-30.6-71.43-30.6-125.13-84.29-53.69-53.7-84.29-125.15-30.6-71.46-30.6-152.11 0-81.65 30.6-152.59 30.6-70.93 84.29-124.63 53.7-53.69 125.15-84.29 71.46-30.6 152.11-30.6 81.65 0 152.59 30.6 70.93 30.6 124.63 84.29 53.69 53.7 84.29 124.65 30.6 70.96 30.6 152.61 0 80.65-30.6 152.09-30.6 71.43-84.29 125.13-53.7 53.69-124.65 84.29-70.96 30.6-152.61 30.6ZM336-477.61q41.72 0 70.12-29.49 28.4-29.5 39.75-71.18l-74.54-19.2q-4 16.28-12.06 29.69-8.05 13.4-23.3 13.4t-23.27-13.4q-8.03-13.41-12.03-29.69l-74.54 19.2q11.35 41.68 39.75 71.18 28.4 29.49 70.12 29.49Zm288 0q41.72 0 70.12-29.49 28.4-29.5 39.75-71.18l-74.54-19.2q-4 16.28-12.06 29.69-8.05 13.4-23.3 13.4t-23.27-13.4q-8.03-13.41-12.03-29.69l-74.54 19.2q11.35 41.68 39.75 71.18 28.4 29.49 70.12 29.49Z"/></svg>