<svg xmlns="http://www.w3.org/2000/svg" height="20" viewBox="0 -960 960 960" width="20"><path d="M363-813v-67h234v67H363Zm117.22 707q-68.27 0-127.67-25.76-59.39-25.75-103.7-70.15-44.31-44.4-70.08-103.74Q153-365 153-433.14q0-68.13 25.77-127.4 25.77-59.27 70.08-103.61 44.31-44.34 103.63-70.09Q411.8-760 479.56-760q59.78 0 110.86 19.75T686-686.5l50-49 46.5 46.5-49 50q33.5 42.5 53.5 94.31t20 111.83q0 68.01-25.76 127.29t-70.05 103.63q-44.29 44.35-103.49 70.15Q548.5-106 480.22-106Zm-.11-67q108.39 0 184.14-75.86Q740-324.72 740-433.11t-75.86-184.14Q588.28-693 479.89-693t-184.14 75.86Q220-541.28 220-432.89t75.86 184.14Q371.72-173 480.11-173ZM480-433Zm-69 138 207-138-207-138v276Z"/></svg>