<svg xmlns="http://www.w3.org/2000/svg" height="20" viewBox="0 -960 960 960" width="20"><path d="M50.78-76.78V-155H216.3q-30.56-29.56-63.97-63.04-33.42-33.48-62.11-70.18-28.7-37.26-46.76-81.45-18.07-44.2-18.07-90.33 0-97.65 62.17-161.33Q149.74-685 249.39-685t161.83 63.67q62.17 63.68 62.17 161.33 0 46.13-18.06 89.83-18.07 43.69-46.76 80.95-28.7 36.7-62.61 70.68-33.92 33.98-63.48 63.54h626.74v78.22H50.78ZM248.83-418.7q20.56 0 34.56-14 14-14 14-34.56 0-20-14-33.72-14-13.72-34.56-13.72-20 0-33.72 13.72-13.72 13.72-13.72 33.72 0 20.56 13.72 34.56 13.72 14 33.72 14Zm363.69 136.92-72.17-115.83q3.3-14.74 4.17-30.69.87-15.96.87-31.7 0-22-2.22-41.37-2.21-19.37-6.65-38.8L626-594.74l80.35 48.52-21.26-90.91 71.22-61.09-94.48-8.13L626-792.7l-35.82 86.35-150.22 12.83q-19.61-14.92-43.53-27.87-23.91-12.96-49.13-22.09v-73.96q0-44.3 23.74-68.04 23.74-23.74 68.05-23.74h372.13q44.3 0 71.15 26.85 26.85 26.85 26.85 71.15v310.44q0 44.3-26.85 71.15-26.85 26.85-71.15 26.85H687.44l-74.92 121Z"/></svg>