<svg xmlns="http://www.w3.org/2000/svg" height="24" width="24"><path d="M10.525 5.95h2.95v-.875h-2.95Zm6-.875v.875H17q2.7 0 4.6 1.9 1.9 1.9 1.9 4.6 0 2.575-1.725 4.425-1.725 1.85-4.25 2.05V20.7q0 .625-.45 1.075-.45.45-1.075.45t-1.075-.45q-.45-.45-.45-1.075v-1.75h-4.95v1.75q0 .625-.45 1.075-.45.45-1.075.45t-1.075-.45q-.45-.45-.45-1.075v-1.775q-2.525-.2-4.25-2.05Q.5 15.025.5 12.45q0-2.7 1.9-4.6 1.9-1.9 4.6-1.9h.475v-.875q0-1.275.888-2.163.887-.887 2.162-.887h2.95q1.275 0 2.163.887.887.888.887 2.163ZM7 15.875h10q1.425 0 2.425-1 1-1 1-2.425 0-1.425-1-2.425-1-1-2.425-1H7q-1.425 0-2.425 1-1 1-1 2.425 0 1.425 1 2.425 1 1 2.425 1Zm5-3.425Z"/></svg>