<svg xmlns="http://www.w3.org/2000/svg" height="40" viewBox="0 -960 960 960" width="40"><path d="M151.059-397.18q-34.742 0-59.413-24.74-24.671-24.741-24.671-59.483t24.74-59.413q24.741-24.671 59.483-24.671t59.413 24.741q24.671 24.74 24.671 59.482 0 34.742-24.741 59.413-24.74 24.671-59.482 24.671Zm-.597-57.537q11.884 0 19.583-7.699 7.699-7.699 7.699-19.584t-7.853-19.584q-7.852-7.699-19.096-7.699-12.218 0-19.917 7.853-7.699 7.853-7.699 19.097 0 12.218 7.699 19.917 7.699 7.699 19.584 7.699Zm220.802 57.537q-34.999 0-59.541-24.74-24.543-24.741-24.543-59.483t24.612-59.413q24.612-24.671 59.611-24.671 34.742 0 59.413 24.741 24.671 24.74 24.671 59.482 0 34.742-24.741 59.413-24.74 24.671-59.482 24.671Zm-.726-57.537q12.013 0 19.712-7.699T397.949-482q0-11.885-7.853-19.584-7.852-7.699-19.224-7.699-12.347 0-20.046 7.853-7.698 7.853-7.698 19.097 0 12.218 7.698 19.917 7.699 7.699 19.712 7.699Zm218.623 57.537q-34.742 0-59.413-24.74-24.671-24.741-24.671-59.483t24.741-59.413q24.74-24.671 59.482-24.671 34.999 0 59.541 24.741 24.543 24.74 24.543 59.482 0 34.742-24.612 59.413t-59.611 24.671Zm-.469-57.537q12.013 0 19.712-7.699T616.103-482q0-11.885-7.853-19.584-7.852-7.699-19.224-7.699-12.347 0-20.046 7.853t-7.699 19.097q0 12.218 7.699 19.917 7.699 7.699 19.712 7.699Zm220.11 57.537q-34.742 0-59.413-24.74-24.671-24.741-24.671-59.483t24.741-59.413q24.74-24.671 59.482-24.671 34.742 0 59.413 24.741 24.671 24.74 24.671 59.482 0 34.742-24.74 59.413-24.741 24.671-59.483 24.671Z"/></svg>