<svg xmlns="http://www.w3.org/2000/svg" height="24" viewBox="0 96 960 960" width="24"><path d="M720 951.153 648.847 880l53.064-53.499H549.499V725.499h152.412L648.847 672 720 600.847 895.153 776 720 951.153ZM253.672 504.24h350.611v-91.958H253.672v91.958Zm0 155.478h230.611V567.76H253.672v91.958ZM86.89 961.089V346.501q0-42.243 29.379-71.622 29.379-29.38 71.622-29.38h481.608q42.243 0 71.622 29.38 29.38 29.379 29.38 71.622v194.825q-12.202-3.696-24.968-4.761Q732.766 535.5 720 535.5q-100.261 0-170.13 70.935Q480 677.37 480 775.773q0 13.118 1.065 25.843t4.761 24.885H221.477L86.889 961.089Z"/></svg>