<svg xmlns="http://www.w3.org/2000/svg" height="48" viewBox="0 -960 960 960" width="48"><path d="M479.96-731.23q-106.34 0-201.77 35.15-95.42 35.16-177.81 98.77l120.85 120.62q54.68-41.79 119.61-65.63 64.92-23.83 139.16-23.83 32.5 0 62.25 6.88 29.75 6.89 57.44 18.19 12.41 3.9 14.28 18.38 1.88 14.47-10.05 22.78-44.53 30.69-71.07 81.07-26.54 50.39-26.54 119.64 0 11.57 1.5 21.54 1.5 9.98 4.81 19.75 3.53 10.77 7.61 21.01 4.08 10.25 4.08 21.83 0 18.26-13.3 30.06-13.3 11.79-30.47 11.79-8.08 0-16.46-3.45-8.37-3.46-15.08-11.01L70.92-566q-7.55-7.04-10.54-15.13-3-8.09-3-17.64 0-9.53 3.81-18.69 3.81-9.16 12.96-16.31 90.62-63.46 192.71-102.35Q368.95-775 480.09-775q111.14 0 213.14 38.88 102 38.89 193.62 102.35 8.15 7.15 11.96 16.27 3.81 9.12 3.81 18.61 0 9.3-2.81 17.63-2.81 8.34-9.73 15.26l-53.16 54.15q-6.38 7.61-15.18 6.88-8.8-.72-14.82-6.88-7.15-6.32-7.15-14.2 0-7.87 7.15-15.8l53.7-55.46q-83.39-63.61-178.86-98.77-95.46-35.15-201.8-35.15Zm184.87 570.31q-14.53 0-25.33-10.69-10.81-10.69-10.81-25.24v-117.64q0-14.13 10.69-24.43 10.69-10.31 25.24-10.31h5.07V-389q0-31.15 22.18-53.08Q714.04-464 745.44-464q30.64 0 53.06 21.92 22.42 21.93 22.42 53.08v39.77H827q14.23 0 23.81 10.19 9.57 10.19 9.57 24.73v117.64q0 14.14-10.39 24.94-10.39 10.81-24.49 10.81H664.83Zm39.63-188.31h81.69V-389q0-17.46-11.5-29.35-11.5-11.88-28.96-11.88-18.23 0-29.73 11.88-11.5 11.89-11.5 29.35v39.77Z"/></svg>