<svg xmlns="http://www.w3.org/2000/svg" height="24" viewBox="0 -960 960 960" width="24"><path d="M673-339.769Zm0 0ZM826.231-57.154 75.615-807.538q-9.846-9.58-10.23-22.752-.385-13.172 10.02-23.787 10.404-10.615 23.269-10.615 12.864 0 23.48 10.615l750.615 750.615q9.846 9.665 10.231 22.679.385 13.014-10.02 23.63-10.405 10.615-23.27 10.615-12.864 0-23.479-10.616ZM673-339.769Zm0 0Zm.087 251.77q-80.6 0-136.844-56.146Q480-200.291 480-281v-120q0-20.154 4.307-39.769 4.308-19.616 13.462-37.693L628.231-348H546v67q0 52.614 37.193 89.807Q620.386-154 673-154q31 0 57.5-13t43.5-35.231l46.539 46.539q-26.51 31.319-64.905 49.506Q717.24-88 673.087-88Zm186.375-141.232L800-288.692q.769 0 .385-.747Q800-290.186 800-291v-57h-59.308L640-448.692v-71.154q-15.692 2.461-28.077 8-12.385 5.538-21.461 13.615l-46.539-46.538q25.615-23.385 58.801-36.308Q635.909-594 673-594q80.709 0 136.855 56.145Q866-481.709 866-401v120q0 14.342-1.307 27.017-1.308 12.675-5.231 24.752ZM706-414h90.769q-3.384-40.308-26.769-69-23.385-28.692-64-36.846V-414ZM425.692-550.539Zm50.462-62ZM184.615-176Q145-176 119.5-201.5 94-227 94-266.615v-426.77q0-37.103 23.5-62.359T177.615-784h14.616l66 66h-73.616q-10.769 0-17.692 6.923T160-693.385v426.77q0 10.769 6.923 17.692T184.615-242h202.769q1.693 19 6.231 35.116Q398.154-190.769 405-176H184.615ZM866-614.846q-14.307-14.231-30.59-24.538-16.282-10.307-35.41-19.155v-34.846q0-10.769-6.923-17.692T775.385-718H370.692l-66-66h470.693q38.34 0 64.478 23Q866-738 866-699.385v84.539Z"/></svg>