<svg xmlns="http://www.w3.org/2000/svg" version="1.1" width="3300" height="2000"><g id="Notes"><style>
    text {
      font-family: monospace;
      text-anchor: middle;
    }
    text.emphasis {
      font-weight:bold;
    }
    text.lanchor {
      text-anchor: start;
    }
  </style><rect height="2200" id="artboard" fill="white" width="3300" x="0" y="0"/><line id="" style="fill:none;stroke:black;stroke-width:0.5;" x1="263" x2="3036" y1="292" y2="292"/><text class="lanchor emphasis" transform="matrix(1 0 0 1 263 322)">Weight/Scale Variations</text><text transform="matrix(1 0 0 1 559.711 322)">Ultralight</text><text transform="matrix(1 0 0 1 856.422 322)">Thin</text><text transform="matrix(1 0 0 1 1153.13 322)">Light</text><text transform="matrix(1 0 0 1 1449.84 322)">Regular</text><text transform="matrix(1 0 0 1 1746.56 322)">Medium</text><text transform="matrix(1 0 0 1 2043.27 322)">Semibold</text><text transform="matrix(1 0 0 1 2339.98 322)">Bold</text><text transform="matrix(1 0 0 1 2636.69 322)">Heavy</text><text transform="matrix(1 0 0 1 2933.4 322)">Black</text><text id="template-version" style="text-anchor: end;" transform="matrix(1 0 0 1 3036 1933)">Template v.1.0</text><text class="lanchor" transform="matrix(1 0 0 1 263 726)">Small</text><text class="lanchor" transform="matrix(1 0 0 1 263 1156)">Medium</text><text class="lanchor" transform="matrix(1 0 0 1 263 1586)">Large</text></g><g id="Guides"><g id="H-reference" style="fill:#27AAE1;stroke:none;" transform="matrix(1 0 0 1 339 696)"><path d="M 54.9316 0 L 57.666 0 L 30.5664 -70.459 L 28.0762 -70.459 L 0.976562 0 L 3.66211 0 L 12.9395 -24.4629 L 45.7031 -24.4629 Z M 29.1992 -67.0898 L 29.4434 -67.0898 L 44.8242 -26.709 L 13.8184 -26.709 Z"/></g><line id="Baseline-S" style="fill:none;stroke:#27AAE1;opacity:1;stroke-width:0.577;" x1="263" x2="3036" y1="696" y2="696"/><line id="Capline-S" style="fill:none;stroke:#27AAE1;opacity:1;stroke-width:0.577;" x1="263" x2="3036" y1="625.541" y2="625.541"/><g id="H-reference" style="fill:#27AAE1;stroke:none;" transform="matrix(1 0 0 1 339 1126)"><path d="M 54.9316 0 L 57.666 0 L 30.5664 -70.459 L 28.0762 -70.459 L 0.976562 0 L 3.66211 0 L 12.9395 -24.4629 L 45.7031 -24.4629 Z M 29.1992 -67.0898 L 29.4434 -67.0898 L 44.8242 -26.709 L 13.8184 -26.709 Z"/></g><line id="Baseline-M" style="fill:none;stroke:#27AAE1;opacity:1;stroke-width:0.577;" x1="263" x2="3036" y1="1126" y2="1126"/><line id="Capline-M" style="fill:none;stroke:#27AAE1;opacity:1;stroke-width:0.577;" x1="263" x2="3036" y1="1055.54" y2="1055.54"/><g id="H-reference" style="fill:#27AAE1;stroke:none;" transform="matrix(1 0 0 1 339 1556)"><path d="M 54.9316 0 L 57.666 0 L 30.5664 -70.459 L 28.0762 -70.459 L 0.976562 0 L 3.66211 0 L 12.9395 -24.4629 L 45.7031 -24.4629 Z M 29.1992 -67.0898 L 29.4434 -67.0898 L 44.8242 -26.709 L 13.8184 -26.709 Z"/></g><line id="Baseline-L" style="fill:none;stroke:#27AAE1;opacity:1;stroke-width:0.577;" x1="263" x2="3036" y1="1556" y2="1556"/><line id="Capline-L" style="fill:none;stroke:#27AAE1;opacity:1;stroke-width:0.577;" x1="263" x2="3036" y1="1485.54" y2="1485.54"/><rect height="119.336" id="left-margin" style="fill:darkred;stroke:none;opacity:0.4;" width="12.4512" x="1394.06" y="1030.79"/><rect height="119.336" id="right-margin" style="fill:darkgreen;stroke:none;opacity:0.4;" width="12.4512" x="1502.5112" y="1030.79"/><rect x="1406.5112" y="1045" width="96" height="96" fill="none" stroke="blue" stroke-dasharray="5"/><rect x="1394.06" y="1030.79" width="120.9024" height="119.336" fill="none" stroke="blue"/></g><g id="Symbols"><g id="Bold-L" transform="matrix(1 0 0 1 2266 1556)"><path d="M24.509999999999998 26.85125000000002 Q21.285 26.85125000000002 19.108125 24.674375000000026 Q16.931250000000002 22.497500000000002 16.931250000000002 19.111250000000013 Q16.931250000000002 16.047500000000014 19.108125 13.870625000000018 Q21.285 11.693749999999994 24.509999999999998 11.693749999999994 H27.25125 V-27.65124999999999 H22.8975 Q19.6725 -27.65124999999999 17.495625 -29.908749999999998 Q15.31875 -32.16624999999999 15.31875 -35.39125 Q15.31875 -38.455 17.495625 -40.631874999999994 Q19.6725 -42.80875 22.8975 -42.80875 H27.25125 V-82.15375 H24.509999999999998 Q21.285 -82.15375 19.108125 -84.41125 Q16.931250000000002 -86.66874999999999 16.931250000000002 -89.89375 Q16.931250000000002 -92.9575 19.108125 -95.21499999999999 Q21.285 -97.4725 24.509999999999998 -97.4725 H130.29 Q133.515 -97.4725 135.691875 -95.21499999999999 Q137.86875 -92.9575 137.86875 -89.73249999999999 Q137.86875 -86.66874999999999 135.691875 -84.41125 Q133.515 -82.15375 130.29 -82.15375 H127.54875 V-42.80875 H131.9025 Q135.1275 -42.80875 137.38500000000002 -40.631874999999994 Q139.64249999999998 -38.455 139.64249999999998 -35.22999999999999 Q139.64249999999998 -32.16624999999999 137.38500000000002 -29.908749999999998 Q135.1275 -27.65124999999999 131.9025 -27.65124999999999 H127.54875 V11.693749999999994 H130.29 Q133.515 11.693749999999994 135.691875 13.870625000000018 Q137.86875 16.047500000000014 137.86875 19.272500000000008 Q137.86875 22.497500000000002 135.691875 24.674375000000026 Q133.515 26.85125000000002 130.29 26.85125000000002 H24.509999999999998 Z M77.4 -13.138749999999987 Q84.33375 -13.138749999999987 89.17125 -17.814999999999998 Q94.00874999999999 -22.491249999999994 94.00874999999999 -29.263749999999987 Q94.00874999999999 -33.61749999999999 92.07375 -36.51999999999998 Q90.13875 -39.4225 84.495 -46.03375 L81.5925 -49.58124999999999 Q79.98 -51.677499999999995 77.31937500000001 -51.677499999999995 Q74.65875 -51.677499999999995 73.04625 -49.58124999999999 L70.305 -46.19499999999999 Q64.5 -39.583749999999995 62.72625 -36.600624999999994 Q60.9525 -33.61749999999999 60.9525 -29.263749999999987 Q60.9525 -22.491249999999994 65.70937500000001 -17.814999999999998 Q70.46625 -13.138749999999987 77.4 -13.138749999999987 Z"/></g><g id="Semibold-L" transform="matrix(1 0 0 1 1970.27 1556)"><path d="M24.993750000000002 25.077500000000015 Q22.41375 25.077500000000015 20.559375 23.22312500000001 Q18.705 21.368750000000006 18.705 18.627500000000026 Q18.705 16.047500000000014 20.559375 14.193125000000023 Q22.41375 12.338750000000005 24.993750000000002 12.338750000000005 H29.3475 V-28.779999999999987 H23.38125 Q20.80125 -28.779999999999987 18.946875000000002 -30.715000000000003 Q17.0925 -32.64999999999999 17.0925 -35.39125 Q17.0925 -37.97125 18.946875000000002 -39.825625 Q20.80125 -41.67999999999999 23.38125 -41.67999999999999 H29.3475 V-82.79875 H24.993750000000002 Q22.41375 -82.79875 20.559375 -84.73374999999999 Q18.705 -86.66874999999999 18.705 -89.24875 Q18.705 -91.82875 20.559375 -93.76374999999999 Q22.41375 -95.69874999999999 24.993750000000002 -95.69874999999999 H129.80625 Q132.38625 -95.69874999999999 134.240625 -93.76374999999999 Q136.095 -91.82875 136.095 -89.24875 Q136.095 -86.66874999999999 134.240625 -84.73374999999999 Q132.38625 -82.79875 129.80625 -82.79875 H125.4525 V-41.67999999999999 H131.41875000000002 Q133.99875 -41.67999999999999 135.93375 -39.825625 Q137.86875 -37.97125 137.86875 -35.22999999999999 Q137.86875 -32.64999999999999 135.93375 -30.715000000000003 Q133.99875 -28.779999999999987 131.41875000000002 -28.779999999999987 H125.4525 V12.338750000000005 H129.80625 Q132.38625 12.338750000000005 134.240625 14.193125000000023 Q136.095 16.047500000000014 136.095 18.78875000000002 Q136.095 21.368750000000006 134.240625 23.22312500000001 Q132.38625 25.077500000000015 129.80625 25.077500000000015 H24.993750000000002 Z M77.4 -12.493749999999991 Q84.495 -12.493749999999991 89.49375 -17.331249999999997 Q94.4925 -22.16874999999999 94.4925 -29.102499999999992 Q94.4925 -33.61749999999999 92.476875 -36.600624999999994 Q90.46125 -39.583749999999995 84.65625 -46.5175 L81.43125 -50.54874999999999 Q79.81875000000001 -52.48375 77.31937500000001 -52.48375 Q74.82 -52.48375 73.36875 -50.54874999999999 L70.14375 -46.678749999999994 Q64.1775 -39.74499999999999 62.323125 -36.68124999999999 Q60.46875 -33.61749999999999 60.46875 -29.102499999999992 Q60.46875 -22.16874999999999 65.386875 -17.331249999999997 Q70.305 -12.493749999999991 77.4 -12.493749999999991 Z"/></g><g id="Medium-L" transform="matrix(1 0 0 1 1674.31 1556)"><path d="M25.477500000000003 23.787499999999994 Q23.220000000000002 23.787499999999994 21.6075 22.17500000000001 Q19.995 20.5625 19.995 18.14375000000001 Q19.995 15.886250000000018 21.6075 14.354375000000005 Q23.220000000000002 12.822500000000005 25.477500000000003 12.822500000000005 H31.121250000000003 V-29.747500000000002 H23.865000000000002 Q21.6075 -29.747500000000002 19.995 -31.36 Q18.3825 -32.9725 18.3825 -35.39125 Q18.3825 -37.64874999999999 19.995 -39.18062499999999 Q21.6075 -40.71249999999999 23.865000000000002 -40.71249999999999 H31.121250000000003 V-83.2825 H25.477500000000003 Q23.220000000000002 -83.2825 21.6075 -84.895 Q19.995 -86.5075 19.995 -88.76499999999999 Q19.995 -91.18374999999999 21.6075 -92.71562499999999 Q23.220000000000002 -94.2475 25.477500000000003 -94.2475 H129.32250000000002 Q131.57999999999998 -94.2475 133.1925 -92.63499999999999 Q134.805 -91.0225 134.805 -88.76499999999999 Q134.805 -86.5075 133.1925 -84.895 Q131.57999999999998 -83.2825 129.32250000000002 -83.2825 H123.67875000000001 V-40.71249999999999 H130.935 Q133.1925 -40.71249999999999 134.805 -39.099999999999994 Q136.4175 -37.4875 136.4175 -35.22999999999999 Q136.4175 -32.9725 134.805 -31.36 Q133.1925 -29.747500000000002 130.935 -29.747500000000002 H123.67875000000001 V12.822500000000005 H129.32250000000002 Q131.57999999999998 12.822500000000005 133.1925 14.354375000000005 Q134.805 15.886250000000018 134.805 18.305000000000007 Q134.805 20.5625 133.1925 22.17500000000001 Q131.57999999999998 23.787499999999994 129.32250000000002 23.787499999999994 H25.477500000000003 Z M77.4 -11.848749999999995 Q84.65625 -11.848749999999995 89.735625 -16.847499999999997 Q94.815 -21.846249999999998 94.815 -28.941249999999997 Q94.815 -33.61749999999999 92.799375 -36.68124999999999 Q90.78375 -39.74499999999999 84.81750000000001 -46.84 L81.27 -51.193749999999994 Q79.6575 -52.967499999999994 77.31937500000001 -52.967499999999994 Q74.98125 -52.967499999999994 73.53 -51.193749999999994 L69.9825 -47.001249999999985 Q64.01625 -39.906249999999986 62.00062500000001 -36.761875 Q59.98500000000001 -33.61749999999999 59.98500000000001 -28.941249999999997 Q59.98500000000001 -21.846249999999998 65.064375 -16.847499999999997 Q70.14375 -11.848749999999995 77.4 -11.848749999999995 Z"/></g><g id="Regular-L" transform="matrix(1 0 0 1 1378.56 1556)"><path d="M25.8 22.82000000000002 Q23.865000000000002 22.82000000000002 22.41375 21.368750000000006 Q20.962500000000002 19.917500000000018 20.962500000000002 17.82125000000002 Q20.962500000000002 15.886250000000018 22.41375 14.515625 Q23.865000000000002 13.14500000000001 25.8 13.14500000000001 H32.25 V-30.3925 H24.1875 Q22.2525 -30.3925 20.80125 -31.843749999999986 Q19.35 -33.29499999999999 19.35 -35.39125 Q19.35 -37.32624999999999 20.80125 -38.69687499999999 Q22.2525 -40.067499999999995 24.1875 -40.067499999999995 H32.25 V-83.60499999999999 H25.8 Q23.865000000000002 -83.60499999999999 22.41375 -85.05624999999999 Q20.962500000000002 -86.5075 20.962500000000002 -88.60374999999999 Q20.962500000000002 -90.53875 22.41375 -91.909375 Q23.865000000000002 -93.28 25.8 -93.28 H129.0 Q131.09625 -93.28 132.46687500000002 -91.909375 Q133.8375 -90.53875 133.8375 -88.4425 Q133.8375 -86.5075 132.46687500000002 -85.05624999999999 Q131.09625 -83.60499999999999 129.0 -83.60499999999999 H122.55 V-40.067499999999995 H130.6125 Q132.70875 -40.067499999999995 134.079375 -38.69687499999999 Q135.45000000000002 -37.32624999999999 135.45000000000002 -35.22999999999999 Q135.45000000000002 -33.29499999999999 134.079375 -31.843749999999986 Q132.70875 -30.3925 130.6125 -30.3925 H122.55 V13.14500000000001 H129.0 Q131.09625 13.14500000000001 132.46687500000002 14.515625 Q133.8375 15.886250000000018 133.8375 17.982500000000016 Q133.8375 19.917500000000018 132.46687500000002 21.368750000000006 Q131.09625 22.82000000000002 129.0 22.82000000000002 H25.8 Z M77.4 -11.52624999999999 Q84.81750000000001 -11.52624999999999 89.97749999999999 -16.605625000000003 Q95.1375 -21.685000000000002 95.1375 -28.941249999999997 Q95.1375 -33.61749999999999 93.04125 -36.761875 Q90.945 -39.906249999999986 84.81750000000001 -47.162499999999994 L81.10875 -51.677499999999995 Q79.6575 -53.45124999999999 77.4 -53.45124999999999 Q75.1425 -53.45124999999999 73.69125000000001 -51.677499999999995 L69.9825 -47.32374999999999 Q63.855000000000004 -40.067499999999995 61.75875 -36.84249999999999 Q59.6625 -33.61749999999999 59.6625 -28.941249999999997 Q59.6625 -21.685000000000002 64.8225 -16.605625000000003 Q69.9825 -11.52624999999999 77.4 -11.52624999999999 Z"/></g><g id="Light-L" transform="matrix(1 0 0 1 1082.77 1556)"><path d="M27.4125 19.595 Q25.8 19.595 24.751875000000002 18.546875 Q23.70375 17.49875 23.70375 15.886250000000018 Q23.70375 14.273750000000007 24.751875000000002 13.306250000000006 Q25.8 12.338750000000005 27.4125 12.338750000000005 H34.5075 V-31.521249999999995 H26.1225 Q24.67125 -31.521249999999995 23.623125 -32.64999999999999 Q22.575 -33.77875 22.575 -35.22999999999999 Q22.575 -36.84249999999999 23.623125 -37.890624999999986 Q24.67125 -38.938749999999985 26.1225 -38.938749999999985 H34.5075 V-82.79875 H27.4125 Q25.8 -82.79875 24.751875000000002 -83.846875 Q23.70375 -84.895 23.70375 -86.5075 Q23.70375 -87.95875 24.751875000000002 -89.006875 Q25.8 -90.05499999999999 27.4125 -90.05499999999999 H127.3875 Q129.0 -90.05499999999999 130.048125 -89.006875 Q131.09625 -87.95875 131.09625 -86.34625 Q131.09625 -84.895 130.048125 -83.846875 Q129.0 -82.79875 127.3875 -82.79875 H120.29249999999999 V-38.938749999999985 H128.51625 Q130.12875 -38.938749999999985 131.176875 -37.890624999999986 Q132.225 -36.84249999999999 132.225 -35.22999999999999 Q132.225 -33.77875 131.176875 -32.64999999999999 Q130.12875 -31.521249999999995 128.51625 -31.521249999999995 H120.29249999999999 V12.338750000000005 H127.3875 Q129.0 12.338750000000005 130.048125 13.386875000000018 Q131.09625 14.435000000000002 131.09625 15.886250000000018 Q131.09625 17.49875 130.048125 18.546875 Q129.0 19.595 127.3875 19.595 H27.4125 Z M77.4 -12.977499999999992 Q84.33375 -12.977499999999992 89.17125 -17.734374999999986 Q94.00874999999999 -22.491249999999994 94.00874999999999 -29.263749999999987 Q94.00874999999999 -33.61749999999999 92.07375 -36.600624999999994 Q90.13875 -39.583749999999995 84.33375 -46.35624999999999 L80.9475 -50.38749999999999 Q79.49625 -52.161249999999995 77.31937500000001 -52.161249999999995 Q75.1425 -52.161249999999995 73.85249999999999 -50.38749999999999 L70.46625 -46.5175 Q64.66125000000001 -39.74499999999999 62.72625 -36.68124999999999 Q60.791250000000005 -33.61749999999999 60.791250000000005 -29.263749999999987 Q60.791250000000005 -22.491249999999994 65.62875000000001 -17.734374999999986 Q70.46625 -12.977499999999992 77.4 -12.977499999999992 Z"/></g><g id="Thin-L" transform="matrix(1 0 0 1 787.282 1556)"><path d="M28.86375 16.370000000000005 Q27.896250000000002 16.370000000000005 27.170625000000005 15.644374999999997 Q26.444999999999997 14.918750000000003 26.444999999999997 13.79000000000002 Q26.444999999999997 12.822500000000005 27.170625000000005 12.096874999999997 Q27.896250000000002 11.371250000000018 28.86375 11.371250000000018 H36.765 V-32.81124999999999 H28.21875 Q27.090000000000003 -32.81124999999999 26.364375000000003 -33.45625 Q25.63875 -34.10124999999999 25.63875 -35.22999999999999 Q25.63875 -36.35875 26.364375000000003 -37.00375 Q27.090000000000003 -37.64874999999999 28.21875 -37.64874999999999 H36.765 V-81.83125 H28.86375 Q27.896250000000002 -81.83125 27.170625000000005 -82.55687499999999 Q26.444999999999997 -83.2825 26.444999999999997 -84.41125 Q26.444999999999997 -85.37875 27.170625000000005 -86.104375 Q27.896250000000002 -86.83 28.86375 -86.83 H125.775 Q126.90375 -86.83 127.54875 -86.104375 Q128.19375 -85.37875 128.19375 -84.41125 Q128.19375 -83.2825 127.54875 -82.55687499999999 Q126.90375 -81.83125 125.775 -81.83125 H118.03500000000001 V-37.64874999999999 H126.58125 Q127.54875 -37.64874999999999 128.274375 -37.00375 Q129.0 -36.35875 129.0 -35.22999999999999 Q129.0 -34.10124999999999 128.274375 -33.45625 Q127.54875 -32.81124999999999 126.58125 -32.81124999999999 H118.03500000000001 V11.371250000000018 H125.775 Q126.90375 11.371250000000018 127.54875 12.096874999999997 Q128.19375 12.822500000000005 128.19375 13.951250000000002 Q128.19375 14.918750000000003 127.54875 15.644374999999997 Q126.90375 16.370000000000005 125.775 16.370000000000005 H28.86375 Z M77.4 -14.428749999999994 Q83.85000000000001 -14.428749999999994 88.284375 -18.863124999999997 Q92.71875 -23.2975 92.71875 -29.586249999999993 Q92.71875 -33.61749999999999 91.025625 -36.439375 Q89.3325 -39.26124999999999 84.01125 -45.55 L80.9475 -49.0975 Q79.49625 -50.709999999999994 77.4 -50.709999999999994 Q75.30375000000001 -50.709999999999994 73.85249999999999 -49.0975 L70.95 -45.71124999999999 Q65.62875000000001 -39.26124999999999 63.855000000000004 -36.439375 Q62.081250000000004 -33.61749999999999 62.081250000000004 -29.586249999999993 Q62.081250000000004 -23.2975 66.515625 -18.863124999999997 Q70.95 -14.428749999999994 77.4 -14.428749999999994 Z"/></g><g id="Ultralight-L" transform="matrix(1 0 0 1 491.205 1556)"><path d="M29.83125 14.435000000000002 Q29.025000000000002 14.435000000000002 28.541249999999998 13.951250000000002 Q28.057499999999997 13.467500000000015 28.057499999999997 12.66125000000001 Q28.057499999999997 11.855000000000018 28.541249999999998 11.371250000000018 Q29.025000000000002 10.887500000000003 29.83125 10.887500000000003 H38.05500000000001 V-33.45625 H29.3475 Q28.541249999999998 -33.45625 28.057499999999997 -33.94 Q27.573750000000004 -34.42375 27.573750000000004 -35.22999999999999 Q27.573750000000004 -36.036249999999995 28.057499999999997 -36.51999999999998 Q28.541249999999998 -37.00375 29.3475 -37.00375 H38.05500000000001 V-81.3475 H29.83125 Q29.025000000000002 -81.3475 28.541249999999998 -81.83125 Q28.057499999999997 -82.315 28.057499999999997 -83.12124999999999 Q28.057499999999997 -83.9275 28.541249999999998 -84.41125 Q29.025000000000002 -84.895 29.83125 -84.895 H124.80750000000002 Q125.61375000000001 -84.895 126.09750000000001 -84.41125 Q126.58125 -83.9275 126.58125 -83.12124999999999 Q126.58125 -82.315 126.09750000000001 -81.83125 Q125.61375000000001 -81.3475 124.80750000000002 -81.3475 H116.74500000000002 V-37.00375 H125.29125 Q126.09750000000001 -37.00375 126.58125 -36.51999999999998 Q127.065 -36.036249999999995 127.065 -35.22999999999999 Q127.065 -34.42375 126.58125 -33.94 Q126.09750000000001 -33.45625 125.29125 -33.45625 H116.74500000000002 V10.887500000000003 H124.80750000000002 Q125.61375000000001 10.887500000000003 126.09750000000001 11.371250000000018 Q126.58125 11.855000000000018 126.58125 12.66125000000001 Q126.58125 13.467500000000015 126.09750000000001 13.951250000000002 Q125.61375000000001 14.435000000000002 124.80750000000002 14.435000000000002 H29.83125 Z M77.4 -15.396249999999995 Q83.5275 -15.396249999999995 87.80062500000001 -19.58874999999999 Q92.07375 -23.781249999999986 92.07375 -29.747500000000002 Q92.07375 -33.61749999999999 90.46125 -36.35875 Q88.84875000000001 -39.099999999999994 83.68875 -45.06625 L80.78625000000001 -48.29124999999999 Q79.49625 -49.903749999999995 77.4 -49.903749999999995 Q75.30375000000001 -49.903749999999995 74.01375 -48.29124999999999 L71.27250000000001 -45.06625 Q66.1125 -39.099999999999994 64.419375 -36.35875 Q62.72625 -33.61749999999999 62.72625 -29.747500000000002 Q62.72625 -23.781249999999986 66.999375 -19.58874999999999 Q71.27250000000001 -15.396249999999995 77.4 -15.396249999999995 Z"/></g><g id="Bold-M" transform="matrix(1 0 0 1 2281.8 1126)"><path d="M18.625 14.02000000000001 Q15.375 14.02000000000001 13.06 11.710000000000022 Q10.75 9.39500000000001 10.75 6.14500000000001 Q10.75 2.8950000000000102 13.06 0.585000000000008 Q15.375 -1.7299999999999898 18.625 -1.7299999999999898 H19.875 V-27.35499999999999 H18.625 Q15.375 -27.35499999999999 13.06 -29.669999999999987 Q10.75 -31.97999999999999 10.75 -35.22999999999999 Q10.75 -38.47999999999999 13.06 -40.79499999999999 Q15.375 -43.10499999999999 18.625 -43.10499999999999 H19.875 V-68.72999999999999 H18.625 Q15.375 -68.72999999999999 13.06 -71.03999999999999 Q10.75 -73.35499999999999 10.75 -76.60499999999999 Q10.75 -79.85499999999999 13.06 -82.16999999999999 Q15.375 -84.47999999999999 18.625 -84.47999999999999 H101.25 Q104.5 -84.47999999999999 106.815 -82.16999999999999 Q109.125 -79.85499999999999 109.125 -76.60499999999999 Q109.125 -73.35499999999999 106.815 -71.03999999999999 Q104.5 -68.72999999999999 101.25 -68.72999999999999 H100.125 V-43.10499999999999 H101.375 Q104.625 -43.10499999999999 106.94000000000001 -40.79499999999999 Q109.25 -38.47999999999999 109.25 -35.22999999999999 Q109.25 -31.97999999999999 106.94000000000001 -29.669999999999987 Q104.625 -27.35499999999999 101.375 -27.35499999999999 H100.125 V-1.7299999999999898 H101.25 Q104.5 -1.7299999999999898 106.815 0.585000000000008 Q109.125 2.8950000000000102 109.125 6.14500000000001 Q109.125 9.39500000000001 106.815 11.710000000000022 Q104.5 14.02000000000001 101.25 14.02000000000001 H18.625 Z M60.0 -16.85499999999999 Q65.75 -16.85499999999999 69.75 -20.794999999999987 Q73.75 -24.72999999999999 73.75 -30.35499999999999 Q73.75 -33.97999999999999 72.25 -36.35499999999999 Q70.75 -38.72999999999999 66.0 -44.35499999999999 L64.25 -46.22999999999999 Q62.5 -48.22999999999999 59.94 -48.22999999999999 Q57.375 -48.22999999999999 55.625 -46.22999999999999 L54.0 -44.35499999999999 Q49.25 -38.72999999999999 47.75 -36.35499999999999 Q46.25 -33.97999999999999 46.25 -30.35499999999999 Q46.25 -24.72999999999999 50.25 -20.794999999999987 Q54.25 -16.85499999999999 60.0 -16.85499999999999 Z"/></g><g id="Semibold-M" transform="matrix(1 0 0 1 1985.97 1126)"><path d="M19.25 12.14500000000001 Q16.5 12.14500000000001 14.565 10.205000000000013 Q12.625 8.27000000000001 12.625 5.52000000000001 Q12.625 2.7700000000000102 14.565 0.8300000000000125 Q16.5 -1.1049999999999898 19.25 -1.1049999999999898 H22.125 V-28.60499999999999 H19.25 Q16.5 -28.60499999999999 14.565 -30.539999999999992 Q12.625 -32.47999999999999 12.625 -35.22999999999999 Q12.625 -37.97999999999999 14.565 -39.919999999999995 Q16.5 -41.85499999999999 19.25 -41.85499999999999 H22.125 V-69.35499999999999 H19.25 Q16.5 -69.35499999999999 14.565 -71.29499999999999 Q12.625 -73.22999999999999 12.625 -75.97999999999999 Q12.625 -78.72999999999999 14.565 -80.66999999999999 Q16.5 -82.60499999999999 19.25 -82.60499999999999 H100.75 Q103.5 -82.60499999999999 105.44 -80.66999999999999 Q107.375 -78.72999999999999 107.375 -75.97999999999999 Q107.375 -73.22999999999999 105.44 -71.29499999999999 Q103.5 -69.35499999999999 100.75 -69.35499999999999 H97.875 V-41.85499999999999 H100.75 Q103.5 -41.85499999999999 105.44 -39.919999999999995 Q107.375 -37.97999999999999 107.375 -35.22999999999999 Q107.375 -32.47999999999999 105.44 -30.539999999999992 Q103.5 -28.60499999999999 100.75 -28.60499999999999 H97.875 V-1.1049999999999898 H100.75 Q103.5 -1.1049999999999898 105.44 0.8300000000000125 Q107.375 2.7700000000000102 107.375 5.52000000000001 Q107.375 8.27000000000001 105.44 10.205000000000013 Q103.5 12.14500000000001 100.75 12.14500000000001 H19.25 Z M60.0 -16.10499999999999 Q66.0 -16.10499999999999 70.125 -20.22999999999999 Q74.25 -24.35499999999999 74.25 -30.22999999999999 Q74.25 -33.97999999999999 72.69 -36.53999999999999 Q71.125 -39.10499999999999 66.125 -44.85499999999999 L64.0 -47.10499999999999 Q62.375 -49.10499999999999 59.94 -49.10499999999999 Q57.5 -49.10499999999999 55.875 -47.10499999999999 L53.875 -44.85499999999999 Q48.875 -39.10499999999999 47.315 -36.53999999999999 Q45.75 -33.97999999999999 45.75 -30.22999999999999 Q45.75 -24.35499999999999 49.875 -20.22999999999999 Q54.0 -16.10499999999999 60.0 -16.10499999999999 Z"/></g><g id="Medium-M" transform="matrix(1 0 0 1 1689.91 1126)"><path d="M19.625 10.77000000000001 Q17.25 10.77000000000001 15.625 9.14500000000001 Q14.0 7.52000000000001 14.0 5.14500000000001 Q14.0 2.6450000000000102 15.625 1.0200000000000102 Q17.25 -0.6049999999999898 19.625 -0.6049999999999898 H23.75 V-29.47999999999999 H19.625 Q17.25 -29.47999999999999 15.625 -31.169999999999987 Q14.0 -32.85499999999999 14.0 -35.22999999999999 Q14.0 -37.60499999999999 15.625 -39.289999999999985 Q17.25 -40.97999999999999 19.625 -40.97999999999999 H23.75 V-69.85499999999999 H19.625 Q17.25 -69.85499999999999 15.625 -71.47999999999999 Q14.0 -73.10499999999999 14.0 -75.60499999999999 Q14.0 -77.97999999999999 15.625 -79.60499999999999 Q17.25 -81.22999999999999 19.625 -81.22999999999999 H100.25 Q102.75 -81.22999999999999 104.375 -79.60499999999999 Q106.0 -77.97999999999999 106.0 -75.60499999999999 Q106.0 -73.10499999999999 104.375 -71.47999999999999 Q102.75 -69.85499999999999 100.25 -69.85499999999999 H96.25 V-40.97999999999999 H100.375 Q102.75 -40.97999999999999 104.375 -39.289999999999985 Q106.0 -37.60499999999999 106.0 -35.22999999999999 Q106.0 -32.85499999999999 104.375 -31.169999999999987 Q102.75 -29.47999999999999 100.375 -29.47999999999999 H96.25 V-0.6049999999999898 H100.25 Q102.75 -0.6049999999999898 104.375 1.0200000000000102 Q106.0 2.6450000000000102 106.0 5.14500000000001 Q106.0 7.52000000000001 104.375 9.14500000000001 Q102.75 10.77000000000001 100.25 10.77000000000001 H19.625 Z M60.0 -15.60499999999999 Q66.125 -15.60499999999999 70.44 -19.85499999999999 Q74.75 -24.10499999999999 74.75 -30.10499999999999 Q74.75 -33.97999999999999 73.065 -36.66999999999999 Q71.375 -39.35499999999999 66.25 -45.22999999999999 L63.875 -47.85499999999999 Q62.25 -49.60499999999999 59.94 -49.60499999999999 Q57.625 -49.60499999999999 56.125 -47.85499999999999 L53.75 -45.22999999999999 Q48.625 -39.35499999999999 46.94 -36.66999999999999 Q45.25 -33.97999999999999 45.25 -30.10499999999999 Q45.25 -24.10499999999999 49.565 -19.85499999999999 Q53.875 -15.60499999999999 60.0 -15.60499999999999 Z"/></g><g id="Regular-M" transform="matrix(1 0 0 1 1394.06 1126)"><path d="M20.0 9.77000000000001 Q17.875 9.77000000000001 16.439999999999998 8.330000000000013 Q15.0 6.89500000000001 15.0 4.77000000000001 Q15.0 2.6450000000000102 16.439999999999998 1.210000000000008 Q17.875 -0.22999999999998977 20.0 -0.22999999999998977 H25.0 V-30.22999999999999 H20.0 Q17.875 -30.22999999999999 16.439999999999998 -31.669999999999987 Q15.0 -33.10499999999999 15.0 -35.22999999999999 Q15.0 -37.35499999999999 16.439999999999998 -38.79499999999999 Q17.875 -40.22999999999999 20.0 -40.22999999999999 H25.0 V-70.22999999999999 H20.0 Q17.875 -70.22999999999999 16.439999999999998 -71.66999999999999 Q15.0 -73.10499999999999 15.0 -75.22999999999999 Q15.0 -77.35499999999999 16.439999999999998 -78.79499999999999 Q17.875 -80.22999999999999 20.0 -80.22999999999999 H100.0 Q102.125 -80.22999999999999 103.56 -78.79499999999999 Q105.0 -77.35499999999999 105.0 -75.22999999999999 Q105.0 -73.10499999999999 103.56 -71.66999999999999 Q102.125 -70.22999999999999 100.0 -70.22999999999999 H95.0 V-40.22999999999999 H100.0 Q102.125 -40.22999999999999 103.56 -38.79499999999999 Q105.0 -37.35499999999999 105.0 -35.22999999999999 Q105.0 -33.10499999999999 103.56 -31.669999999999987 Q102.125 -30.22999999999999 100.0 -30.22999999999999 H95.0 V-0.22999999999998977 H100.0 Q102.125 -0.22999999999998977 103.56 1.210000000000008 Q105.0 2.6450000000000102 105.0 4.77000000000001 Q105.0 6.89500000000001 103.56 8.330000000000013 Q102.125 9.77000000000001 100.0 9.77000000000001 H20.0 Z M60.0 -15.22999999999999 Q66.25 -15.22999999999999 70.625 -19.544999999999987 Q75.0 -23.85499999999999 75.0 -29.97999999999999 Q75.0 -33.97999999999999 73.315 -36.72999999999999 Q71.625 -39.47999999999999 66.375 -45.47999999999999 L63.75 -48.35499999999999 Q62.25 -50.10499999999999 60.0 -50.10499999999999 Q57.75 -50.10499999999999 56.25 -48.35499999999999 L53.75 -45.47999999999999 Q48.5 -39.47999999999999 46.75 -36.72999999999999 Q45.0 -33.97999999999999 45.0 -29.97999999999999 Q45.0 -23.85499999999999 49.375 -19.544999999999987 Q53.75 -15.22999999999999 60.0 -15.22999999999999 Z"/></g><g id="Light-M" transform="matrix(1 0 0 1 1098.18 1126)"><path d="M21.25 7.27000000000001 Q19.625 7.27000000000001 18.565 6.210000000000008 Q17.5 5.14500000000001 17.5 3.5200000000000102 Q17.5 1.8950000000000102 18.565 0.8300000000000125 Q19.625 -0.22999999999998977 21.25 -0.22999999999998977 H26.75 V-31.47999999999999 H21.25 Q19.625 -31.47999999999999 18.565 -32.54499999999999 Q17.5 -33.60499999999999 17.5 -35.22999999999999 Q17.5 -36.85499999999999 18.565 -37.91999999999999 Q19.625 -38.97999999999999 21.25 -38.97999999999999 H26.75 V-70.22999999999999 H21.25 Q19.625 -70.22999999999999 18.565 -71.29499999999999 Q17.5 -72.35499999999999 17.5 -73.97999999999999 Q17.5 -75.60499999999999 18.565 -76.66999999999999 Q19.625 -77.72999999999999 21.25 -77.72999999999999 H98.75 Q100.375 -77.72999999999999 101.44 -76.66999999999999 Q102.5 -75.60499999999999 102.5 -73.97999999999999 Q102.5 -72.35499999999999 101.44 -71.29499999999999 Q100.375 -70.22999999999999 98.75 -70.22999999999999 H93.25 V-38.97999999999999 H98.75 Q100.375 -38.97999999999999 101.44 -37.91999999999999 Q102.5 -36.85499999999999 102.5 -35.22999999999999 Q102.5 -33.60499999999999 101.44 -32.54499999999999 Q100.375 -31.47999999999999 98.75 -31.47999999999999 H93.25 V-0.22999999999998977 H98.75 Q100.375 -0.22999999999998977 101.44 0.8300000000000125 Q102.5 1.8950000000000102 102.5 3.5200000000000102 Q102.5 5.14500000000001 101.44 6.210000000000008 Q100.375 7.27000000000001 98.75 7.27000000000001 H21.25 Z M60.0 -16.85499999999999 Q65.75 -16.85499999999999 69.75 -20.794999999999987 Q73.75 -24.72999999999999 73.75 -30.35499999999999 Q73.75 -33.97999999999999 72.19 -36.53999999999999 Q70.625 -39.10499999999999 65.875 -44.60499999999999 L63.375 -47.22999999999999 Q62.0 -48.85499999999999 60.0 -48.85499999999999 Q58.0 -48.85499999999999 56.625 -47.22999999999999 L54.25 -44.60499999999999 Q49.5 -39.10499999999999 47.875 -36.53999999999999 Q46.25 -33.97999999999999 46.25 -30.35499999999999 Q46.25 -24.72999999999999 50.25 -20.794999999999987 Q54.25 -16.85499999999999 60.0 -16.85499999999999 Z"/></g><g id="Thin-M" transform="matrix(1 0 0 1 802.565 1126)"><path d="M22.375 4.77000000000001 Q21.375 4.77000000000001 20.625 4.02000000000001 Q19.875 3.2700000000000102 19.875 2.2700000000000102 Q19.875 1.1450000000000102 20.625 0.4550000000000125 Q21.375 -0.22999999999998977 22.375 -0.22999999999998977 H28.5 V-32.72999999999999 H22.375 Q21.375 -32.72999999999999 20.625 -33.47999999999999 Q19.875 -34.22999999999999 19.875 -35.22999999999999 Q19.875 -36.35499999999999 20.625 -37.04499999999999 Q21.375 -37.72999999999999 22.375 -37.72999999999999 H28.5 V-70.22999999999999 H22.375 Q21.375 -70.22999999999999 20.625 -70.97999999999999 Q19.875 -71.72999999999999 19.875 -72.72999999999999 Q19.875 -73.85499999999999 20.625 -74.54499999999999 Q21.375 -75.22999999999999 22.375 -75.22999999999999 H97.5 Q98.625 -75.22999999999999 99.315 -74.47999999999999 Q100.0 -73.72999999999999 100.0 -72.72999999999999 Q100.0 -71.60499999999999 99.315 -70.91999999999999 Q98.625 -70.22999999999999 97.5 -70.22999999999999 H91.5 V-37.72999999999999 H97.5 Q98.625 -37.72999999999999 99.315 -36.97999999999999 Q100.0 -36.22999999999999 100.0 -35.22999999999999 Q100.0 -34.10499999999999 99.315 -33.41499999999999 Q98.625 -32.72999999999999 97.5 -32.72999999999999 H91.5 V-0.22999999999998977 H97.5 Q98.625 -0.22999999999998977 99.315 0.5200000000000102 Q100.0 1.2700000000000102 100.0 2.2700000000000102 Q100.0 3.3950000000000102 99.315 4.085000000000008 Q98.625 4.77000000000001 97.5 4.77000000000001 H22.375 Z M60.0 -18.35499999999999 Q65.25 -18.35499999999999 68.875 -21.97999999999999 Q72.5 -25.60499999999999 72.5 -30.60499999999999 Q72.5 -33.97999999999999 71.065 -36.29499999999999 Q69.625 -38.60499999999999 65.25 -43.72999999999999 L63.125 -46.10499999999999 Q61.875 -47.60499999999999 60.0 -47.60499999999999 Q58.125 -47.60499999999999 56.875 -46.10499999999999 L54.75 -43.72999999999999 Q50.375 -38.60499999999999 48.94 -36.29499999999999 Q47.5 -33.97999999999999 47.5 -30.60499999999999 Q47.5 -25.60499999999999 51.125 -21.97999999999999 Q54.75 -18.35499999999999 60.0 -18.35499999999999 Z"/></g><g id="Ultralight-M" transform="matrix(1 0 0 1 506.415 1126)"><path d="M23.125 3.2700000000000102 Q22.375 3.2700000000000102 21.875 2.7700000000000102 Q21.375 2.2700000000000102 21.375 1.5200000000000102 Q21.375 0.7700000000000102 21.875 0.27000000000001023 Q22.375 -0.22999999999998977 23.125 -0.22999999999998977 H29.5 V-33.47999999999999 H23.125 Q22.375 -33.47999999999999 21.875 -33.97999999999999 Q21.375 -34.47999999999999 21.375 -35.22999999999999 Q21.375 -35.97999999999999 21.875 -36.47999999999999 Q22.375 -36.97999999999999 23.125 -36.97999999999999 H29.5 V-70.22999999999999 H23.125 Q22.375 -70.22999999999999 21.875 -70.72999999999999 Q21.375 -71.22999999999999 21.375 -71.97999999999999 Q21.375 -72.72999999999999 21.875 -73.22999999999999 Q22.375 -73.72999999999999 23.125 -73.72999999999999 H96.75 Q97.5 -73.72999999999999 98.0 -73.22999999999999 Q98.5 -72.72999999999999 98.5 -71.97999999999999 Q98.5 -71.22999999999999 98.0 -70.72999999999999 Q97.5 -70.22999999999999 96.75 -70.22999999999999 H90.5 V-36.97999999999999 H96.75 Q97.5 -36.97999999999999 98.0 -36.47999999999999 Q98.5 -35.97999999999999 98.5 -35.22999999999999 Q98.5 -34.47999999999999 98.0 -33.97999999999999 Q97.5 -33.47999999999999 96.75 -33.47999999999999 H90.5 V-0.22999999999998977 H96.75 Q97.5 -0.22999999999998977 98.0 0.27000000000001023 Q98.5 0.7700000000000102 98.5 1.5200000000000102 Q98.5 2.2700000000000102 98.0 2.7700000000000102 Q97.5 3.2700000000000102 96.75 3.2700000000000102 H23.125 Z M60.0 -19.35499999999999 Q64.875 -19.35499999999999 68.315 -22.72999999999999 Q71.75 -26.10499999999999 71.75 -30.85499999999999 Q71.75 -33.97999999999999 70.44 -36.169999999999995 Q69.125 -38.35499999999999 65.0 -43.10499999999999 L62.875 -45.47999999999999 Q61.75 -46.85499999999999 60.0 -46.85499999999999 Q58.25 -46.85499999999999 57.125 -45.47999999999999 L55.125 -43.10499999999999 Q51.0 -38.35499999999999 49.625 -36.169999999999995 Q48.25 -33.97999999999999 48.25 -30.85499999999999 Q48.25 -26.10499999999999 51.69 -22.72999999999999 Q55.125 -19.35499999999999 60.0 -19.35499999999999 Z"/></g><g id="Bold-S" transform="matrix(1 0 0 1 2294.23 696)"><path d="M14.893163999999999 3.6266719999999992 Q12.327336 3.6266719999999992 10.405332 1.704667999999998 Q8.483328 -0.21733599999998887 8.483328 -2.7831639999999993 Q8.483328 -5.348991999999981 10.405332 -7.270995999999997 Q12.327336 -9.192999999999998 14.893163999999999 -9.192999999999998 H15.679008 V-28.820164 H14.893163999999999 Q12.327336 -28.820164 10.405332 -30.742167999999992 Q8.483328 -32.66417199999999 8.483328 -35.22999999999999 Q8.483328 -37.79582799999999 10.405332 -39.717831999999994 Q12.327336 -41.63983599999999 14.893163999999999 -41.63983599999999 H15.679008 V-61.266999999999996 H14.893163999999999 Q12.327336 -61.266999999999996 10.405332 -63.189004 Q8.483328 -65.111008 8.483328 -67.676836 Q8.483328 -70.24266399999999 10.405332 -72.16466799999999 Q12.327336 -74.086672 14.893163999999999 -74.086672 H79.687422 Q82.25325 -74.086672 84.175254 -72.16466799999999 Q86.101992 -70.24266399999999 86.101992 -67.676836 Q86.101992 -65.111008 84.175254 -63.189004 Q82.25325 -61.266999999999996 79.687422 -61.266999999999996 H79.000992 V-41.63983599999999 H79.786836 Q82.352664 -41.63983599999999 84.27466799999999 -39.717831999999994 Q86.19667199999999 -37.79582799999999 86.19667199999999 -35.22999999999999 Q86.19667199999999 -32.66417199999999 84.27466799999999 -30.742167999999992 Q82.352664 -28.820164 79.786836 -28.820164 H79.000992 V-9.192999999999998 H79.687422 Q82.25325 -9.192999999999998 84.175254 -7.270995999999997 Q86.101992 -5.348991999999981 86.101992 -2.7831639999999993 Q86.101992 -0.21733599999998887 84.175254 1.704667999999998 Q82.25325 3.6266719999999992 79.687422 3.6266719999999992 H14.893163999999999 Z M47.34 -20.734491999999996 Q51.875172 -20.734491999999996 55.03275 -23.839995999999992 Q58.190328 -26.945499999999996 58.190328 -31.385991999999995 Q58.190328 -34.24532799999999 57.006828 -36.119991999999996 Q55.823328 -37.98992199999999 52.074 -42.430414 L50.8905 -43.808007999999994 Q49.413492000000005 -45.389163999999994 47.29266 -45.389163999999994 Q45.171828 -45.389163999999994 43.690085999999994 -43.808007999999994 L42.606 -42.430414 Q38.856672 -37.98992199999999 37.673172 -36.119991999999996 Q36.489672 -34.24532799999999 36.489672 -31.385991999999995 Q36.489672 -26.945499999999996 39.64725 -23.839995999999992 Q42.804828 -20.734491999999996 47.34 -20.734491999999996 Z"/></g><g id="Semibold-S" transform="matrix(1 0 0 1 1998.1 696)"><path d="M15.3855 2.1496640000000156 Q13.217327999999998 2.1496640000000156 11.588832 0.521168000000003 Q9.960336 -1.1073279999999954 9.960336 -3.275499999999994 Q9.960336 -5.443671999999992 11.588832 -7.072167999999991 Q13.217327999999998 -8.700664000000003 15.3855 -8.700664000000003 H17.458992000000002 V-29.804835999999987 H15.3855 Q13.217327999999998 -29.804835999999987 11.588832 -31.433331999999993 Q9.960336 -33.06182799999999 9.960336 -35.22999999999999 Q9.960336 -37.398171999999995 11.588832 -39.026667999999994 Q13.217327999999998 -40.655164 15.3855 -40.655164 H17.458992000000002 V-61.75933599999999 H15.3855 Q13.217327999999998 -61.75933599999999 11.588832 -63.387831999999996 Q9.960336 -65.01632799999999 9.960336 -67.18449999999999 Q9.960336 -69.352672 11.588832 -70.981168 Q13.217327999999998 -72.609664 15.3855 -72.609664 H79.2945 Q81.462672 -72.609664 83.091168 -70.981168 Q84.71966400000001 -69.352672 84.71966400000001 -67.18449999999999 Q84.71966400000001 -65.01632799999999 83.091168 -63.387831999999996 Q81.462672 -61.75933599999999 79.2945 -61.75933599999999 H77.22100800000001 V-40.655164 H79.2945 Q81.462672 -40.655164 83.091168 -39.026667999999994 Q84.71966400000001 -37.398171999999995 84.71966400000001 -35.22999999999999 Q84.71966400000001 -33.06182799999999 83.091168 -31.433331999999993 Q81.462672 -29.804835999999987 79.2945 -29.804835999999987 H77.22100800000001 V-8.700664000000003 H79.2945 Q81.462672 -8.700664000000003 83.091168 -7.072167999999991 Q84.71966400000001 -5.443671999999992 84.71966400000001 -3.275499999999994 Q84.71966400000001 -1.1073279999999954 83.091168 0.521168000000003 Q81.462672 2.1496640000000156 79.2945 2.1496640000000156 H15.3855 Z M47.34 -20.138007999999992 Q52.074 -20.138007999999992 55.330992 -23.394999999999996 Q58.58325 -26.651991999999993 58.58325 -31.28657799999999 Q58.58325 -34.24532799999999 57.35241 -36.26674599999999 Q56.116836 -38.288163999999995 52.173414 -42.82333599999999 L50.691672000000004 -44.499171999999994 Q49.314078 -46.080327999999994 47.29266 -46.080327999999994 Q45.266507999999995 -46.080327999999994 43.88891400000001 -44.499171999999994 L42.506586 -42.82333599999999 Q38.563164 -38.288163999999995 37.32759 -36.26674599999999 Q36.09675 -34.24532799999999 36.09675 -31.28657799999999 Q36.09675 -26.651991999999993 39.349008 -23.394999999999996 Q42.606 -20.138007999999992 47.34 -20.138007999999992 Z"/></g><g id="Medium-S" transform="matrix(1 0 0 1 1701.85 696)"><path d="M15.679008 1.0655780000000163 Q13.809078 1.0655780000000163 12.42675 -0.316749999999999 Q11.044422 -1.699078 11.044422 -3.5690079999999966 Q11.044422 -5.543085999999988 12.42675 -6.9254140000000035 Q13.809078 -8.303007999999991 15.679008 -8.303007999999991 H18.737172 V-30.495999999999995 H15.679008 Q13.809078 -30.495999999999995 12.42675 -31.925667999999995 Q11.044422 -33.35533599999999 11.044422 -35.22999999999999 Q11.044422 -37.104664 12.42675 -38.53433199999999 Q13.809078 -39.96399999999999 15.679008 -39.96399999999999 H18.737172 V-62.15699199999999 H15.679008 Q13.809078 -62.15699199999999 12.42675 -63.53458599999999 Q11.044422 -64.91691399999999 11.044422 -66.890992 Q11.044422 -68.760922 12.42675 -70.14325 Q13.809078 -71.525578 15.679008 -71.525578 H78.901578 Q80.870922 -71.525578 82.25325 -70.14325 Q83.63557800000001 -68.760922 83.63557800000001 -66.890992 Q83.63557800000001 -64.91691399999999 82.25325 -63.53458599999999 Q80.870922 -62.15699199999999 78.901578 -62.15699199999999 H75.942828 V-39.96399999999999 H79.000992 Q80.870922 -39.96399999999999 82.25325 -38.53433199999999 Q83.63557800000001 -37.104664 83.63557800000001 -35.22999999999999 Q83.63557800000001 -33.35533599999999 82.25325 -31.925667999999995 Q80.870922 -30.495999999999995 79.000992 -30.495999999999995 H75.942828 V-8.303007999999991 H78.901578 Q80.870922 -8.303007999999991 82.25325 -6.9254140000000035 Q83.63557800000001 -5.543085999999988 83.63557800000001 -3.5690079999999966 Q83.63557800000001 -1.699078 82.25325 -0.316749999999999 Q80.870922 1.0655780000000163 78.901578 1.0655780000000163 H15.679008 Z M47.34 -19.745085999999986 Q52.173414 -19.745085999999986 55.57716 -23.101491999999993 Q58.976172 -26.453163999999994 58.976172 -31.187163999999996 Q58.976172 -34.24532799999999 57.645917999999995 -36.366159999999994 Q56.315664000000005 -38.486991999999994 52.272828 -43.12157799999999 L50.596992 -45.09092199999999 Q49.214664000000006 -46.47324999999999 47.29266 -46.47324999999999 Q45.365922 -46.47324999999999 44.083008 -45.09092199999999 L42.407172 -43.12157799999999 Q38.364335999999994 -38.486991999999994 37.034082000000005 -36.366159999999994 Q35.703828 -34.24532799999999 35.703828 -31.187163999999996 Q35.703828 -26.453163999999994 39.10284 -23.101491999999993 Q42.506586 -19.745085999999986 47.34 -19.745085999999986 Z"/></g><g id="Regular-S" transform="matrix(1 0 0 1 1405.73 696)"><path d="M15.97725 0.2750000000000057 Q14.301414 0.2750000000000057 13.06584 -0.9558399999999949 Q11.835 -2.1914139999999946 11.835 -3.8672499999999985 Q11.835 -5.543085999999988 13.06584 -6.778659999999988 Q14.301414 -8.009499999999989 15.97725 -8.009499999999989 H19.726578 V-31.087749999999993 H15.97725 Q14.301414 -31.087749999999993 13.06584 -32.31858999999999 Q11.835 -33.554164 11.835 -35.22999999999999 Q11.835 -36.90583599999999 13.06584 -38.14140999999999 Q14.301414 -39.372249999999994 15.97725 -39.372249999999994 H19.726578 V-62.45049999999999 H15.97725 Q14.301414 -62.45049999999999 13.06584 -63.68133999999999 Q11.835 -64.91691399999999 11.835 -66.59275 Q11.835 -68.268586 13.06584 -69.50416 Q14.301414 -70.73499999999999 15.97725 -70.73499999999999 H78.70275 Q80.378586 -70.73499999999999 81.61416 -69.50416 Q82.845 -68.268586 82.845 -66.59275 Q82.845 -64.91691399999999 81.61416 -63.68133999999999 Q80.378586 -62.45049999999999 78.70275 -62.45049999999999 H74.953422 V-39.372249999999994 H78.70275 Q80.378586 -39.372249999999994 81.61416 -38.14140999999999 Q82.845 -36.90583599999999 82.845 -35.22999999999999 Q82.845 -33.554164 81.61416 -32.31858999999999 Q80.378586 -31.087749999999993 78.70275 -31.087749999999993 H74.953422 V-8.009499999999989 H78.70275 Q80.378586 -8.009499999999989 81.61416 -6.778659999999988 Q82.845 -5.543085999999988 82.845 -3.8672499999999985 Q82.845 -2.1914139999999946 81.61416 -0.9558399999999949 Q80.378586 0.2750000000000057 78.70275 0.2750000000000057 H15.97725 Z M47.34 -19.45157799999999 Q52.272828 -19.45157799999999 55.723914 -22.85058999999999 Q59.175 -26.254335999999988 59.175 -31.087749999999993 Q59.175 -34.24532799999999 57.844745999999994 -36.41349999999999 Q56.514492000000004 -38.581672 52.367507999999994 -43.31567199999999 L50.497578 -45.48857799999999 Q49.214664000000006 -46.86617199999999 47.34 -46.86617199999999 Q45.46533599999999 -46.86617199999999 44.182422 -45.48857799999999 L42.407172 -43.31567199999999 Q38.264922 -38.581672 36.887328 -36.41349999999999 Q35.505 -34.24532799999999 35.505 -31.087749999999993 Q35.505 -26.254335999999988 38.956086 -22.85058999999999 Q42.407172 -19.45157799999999 47.34 -19.45157799999999 Z"/></g><g id="Light-S" transform="matrix(1 0 0 1 1109.75 696)"><path d="M16.961922 -1.699078 Q15.679008 -1.699078 14.746410000000001 -2.6364099999999837 Q13.809078 -3.5690079999999966 13.809078 -4.851921999999988 Q13.809078 -6.134835999999993 14.746410000000001 -7.072167999999991 Q15.679008 -8.009499999999989 16.961922 -8.009499999999989 H21.104172000000002 V-32.072421999999996 H16.961922 Q15.679008 -32.072421999999996 14.746410000000001 -33.009753999999994 Q13.809078 -33.94708599999999 13.809078 -35.22999999999999 Q13.809078 -36.512913999999995 14.746410000000001 -37.45024599999999 Q15.679008 -38.38757799999999 16.961922 -38.38757799999999 H21.104172000000002 V-62.45049999999999 H16.961922 Q15.679008 -62.45049999999999 14.746410000000001 -63.387831999999996 Q13.809078 -64.325164 13.809078 -65.60807799999999 Q13.809078 -66.890992 14.746410000000001 -67.82359 Q15.679008 -68.760922 16.961922 -68.760922 H77.718078 Q79.000992 -68.760922 79.93359000000001 -67.82359 Q80.870922 -66.890992 80.870922 -65.60807799999999 Q80.870922 -64.325164 79.93359000000001 -63.387831999999996 Q79.000992 -62.45049999999999 77.718078 -62.45049999999999 H73.575828 V-38.38757799999999 H77.718078 Q79.000992 -38.38757799999999 79.93359000000001 -37.45024599999999 Q80.870922 -36.512913999999995 80.870922 -35.22999999999999 Q80.870922 -33.94708599999999 79.93359000000001 -33.009753999999994 Q79.000992 -32.072421999999996 77.718078 -32.072421999999996 H73.575828 V-8.009499999999989 H77.718078 Q79.000992 -8.009499999999989 79.93359000000001 -7.072167999999991 Q80.870922 -6.134835999999993 80.870922 -4.851921999999988 Q80.870922 -3.5690079999999966 79.93359000000001 -2.6364099999999837 Q79.000992 -1.699078 77.718078 -1.699078 H16.961922 Z M47.34 -20.734491999999996 Q51.875172 -20.734491999999996 55.03275 -23.839995999999992 Q58.190328 -26.945499999999996 58.190328 -31.385991999999995 Q58.190328 -34.24532799999999 56.954754 -36.26674599999999 Q55.723914 -38.288163999999995 51.974585999999995 -42.62450799999999 L50.199335999999995 -44.59858599999999 Q49.01583599999999 -45.881499999999996 47.34 -45.881499999999996 Q45.66416400000001 -45.881499999999996 44.480664000000004 -44.59858599999999 L42.804828 -42.62450799999999 Q39.0555 -38.288163999999995 37.772586 -36.26674599999999 Q36.489672 -34.24532799999999 36.489672 -31.385991999999995 Q36.489672 -26.945499999999996 39.64725 -23.839995999999992 Q42.804828 -20.734491999999996 47.34 -20.734491999999996 Z"/></g><g id="Thin-S" transform="matrix(1 0 0 1 814.015 696)"><path d="M17.851914 -3.6684219999999925 Q17.061336 -3.6684219999999925 16.370172 -4.359585999999993 Q15.679008 -5.050749999999994 15.679008 -5.841328000000004 Q15.679008 -6.726585999999983 16.370172 -7.370409999999993 Q17.061336 -8.009499999999989 17.851914 -8.009499999999989 H22.4865 V-33.06182799999999 H17.851914 Q17.061336 -33.06182799999999 16.370172 -33.752992 Q15.679008 -34.43942199999999 15.679008 -35.22999999999999 Q15.679008 -36.119991999999996 16.370172 -36.75908199999999 Q17.061336 -37.398171999999995 17.851914 -37.398171999999995 H22.4865 V-62.45049999999999 H17.851914 Q17.061336 -62.45049999999999 16.370172 -63.14166399999999 Q15.679008 -63.83282799999999 15.679008 -64.61867199999999 Q15.679008 -65.508664 16.370172 -66.14775399999999 Q17.061336 -66.79157799999999 17.851914 -66.79157799999999 H76.72867199999999 Q77.61866400000001 -66.79157799999999 78.25775399999999 -66.100414 Q78.901578 -65.40924999999999 78.901578 -64.61867199999999 Q78.901578 -63.733413999999996 78.25775399999999 -63.08958999999999 Q77.61866400000001 -62.45049999999999 76.72867199999999 -62.45049999999999 H72.1935 V-37.398171999999995 H76.72867199999999 Q77.61866400000001 -37.398171999999995 78.25775399999999 -36.70700799999999 Q78.901578 -36.02057799999999 78.901578 -35.22999999999999 Q78.901578 -34.34000799999999 78.25775399999999 -33.700917999999994 Q77.61866400000001 -33.06182799999999 76.72867199999999 -33.06182799999999 H72.1935 V-8.009499999999989 H76.72867199999999 Q77.61866400000001 -8.009499999999989 78.25775399999999 -7.318335999999988 Q78.901578 -6.627171999999987 78.901578 -5.841328000000004 Q78.901578 -4.9513359999999835 78.25775399999999 -4.312246000000002 Q77.61866400000001 -3.6684219999999925 76.72867199999999 -3.6684219999999925 H17.851914 Z M47.34 -21.917991999999998 Q51.48225 -21.917991999999998 54.341586 -24.77732799999999 Q57.200922 -27.636663999999996 57.200922 -31.580085999999987 Q57.200922 -34.24532799999999 56.069495999999994 -36.06791799999999 Q54.933336 -37.89050799999999 51.48225 -41.93807799999999 L50.000507999999996 -43.71332799999999 Q48.916422 -44.89682799999999 47.34 -44.89682799999999 Q45.763578 -44.89682799999999 44.679492 -43.71332799999999 L43.19775 -41.93807799999999 Q39.746664 -37.89050799999999 38.610504000000006 -36.06791799999999 Q37.479078 -34.24532799999999 37.479078 -31.580085999999987 Q37.479078 -27.636663999999996 40.338414 -24.77732799999999 Q43.19775 -21.917991999999998 47.34 -21.917991999999998 Z"/></g><g id="Ultralight-S" transform="matrix(1 0 0 1 517.792 696)"><path d="M18.443664 -4.851921999999988 Q17.851914 -4.851921999999988 17.359578 -5.348991999999981 Q16.862508 -5.841328000000004 16.862508 -6.433077999999995 Q16.862508 -7.024827999999999 17.359578 -7.517163999999994 Q17.851914 -8.009499999999989 18.443664 -8.009499999999989 H23.277078 V-33.653577999999996 H18.443664 Q17.851914 -33.653577999999996 17.359578 -34.145914 Q16.862508 -34.63824999999999 16.862508 -35.22999999999999 Q16.862508 -35.821749999999994 17.359578 -36.31408599999999 Q17.851914 -36.80642199999999 18.443664 -36.80642199999999 H23.277078 V-62.45049999999999 H18.443664 Q17.851914 -62.45049999999999 17.359578 -62.94283599999999 Q16.862508 -63.435171999999994 16.862508 -64.026922 Q16.862508 -64.61867199999999 17.359578 -65.111008 Q17.851914 -65.60807799999999 18.443664 -65.60807799999999 H76.136922 Q76.72867199999999 -65.60807799999999 77.22100800000001 -65.111008 Q77.718078 -64.61867199999999 77.718078 -64.026922 Q77.718078 -63.435171999999994 77.22100800000001 -62.94283599999999 Q76.72867199999999 -62.45049999999999 76.136922 -62.45049999999999 H71.402922 V-36.80642199999999 H76.136922 Q76.72867199999999 -36.80642199999999 77.22100800000001 -36.31408599999999 Q77.718078 -35.821749999999994 77.718078 -35.22999999999999 Q77.718078 -34.63824999999999 77.22100800000001 -34.145914 Q76.72867199999999 -33.653577999999996 76.136922 -33.653577999999996 H71.402922 V-8.009499999999989 H76.136922 Q76.72867199999999 -8.009499999999989 77.22100800000001 -7.517163999999994 Q77.718078 -7.024827999999999 77.718078 -6.433077999999995 Q77.718078 -5.841328000000004 77.22100800000001 -5.348991999999981 Q76.72867199999999 -4.851921999999988 76.136922 -4.851921999999988 H18.443664 Z M47.34 -22.70383599999999 Q51.184008 -22.70383599999999 53.896589999999996 -25.369077999999995 Q56.609172 -28.029585999999988 56.609172 -31.778914 Q56.609172 -34.24532799999999 55.57716 -35.968503999999996 Q54.540414000000006 -37.696414 51.283422 -41.44100799999999 L49.806414000000004 -43.220991999999995 Q48.817007999999994 -44.305077999999995 47.34 -44.305077999999995 Q45.862992000000006 -44.305077999999995 44.873585999999996 -43.220991999999995 L43.495992 -41.44100799999999 Q40.239 -37.696414 39.154914000000005 -35.968503999999996 Q38.070828 -34.24532799999999 38.070828 -31.778914 Q38.070828 -28.029585999999988 40.78341 -25.369077999999995 Q43.495992 -22.70383599999999 47.34 -22.70383599999999 Z"/></g></g></svg>