<svg xmlns="http://www.w3.org/2000/svg" height="20" viewBox="0 -960 960 960" width="20"><path d="M419.74-478.85q10.53 0 18.47-7.47 7.94-7.48 7.94-17.72 0-10.23-7.68-18.67-7.67-8.44-18.21-8.44-10.53 0-18.47 8.39-7.94 8.39-7.94 18.62t7.68 17.76q7.67 7.53 18.21 7.53Zm120 0q10.53 0 18.47-7.47 7.94-7.48 7.94-17.72 0-10.23-7.68-18.67-7.67-8.44-18.21-8.44-10.53 0-18.47 8.39-7.94 8.39-7.94 18.62t7.68 17.76q7.67 7.53 18.21 7.53Zm-240 0q10.53 0 18.47-7.47 7.94-7.48 7.94-17.72 0-10.23-7.68-18.67-7.67-8.44-18.21-8.44-10.53 0-18.47 8.39-7.94 8.39-7.94 18.62t7.68 17.76q7.67 7.53 18.21 7.53Zm360 0q10.53 0 18.47-7.47 7.94-7.48 7.94-17.72 0-10.23-7.68-18.67-7.67-8.44-18.21-8.44-10.53 0-18.47 8.39-7.94 8.39-7.94 18.62t7.68 17.76q7.67 7.53 18.21 7.53ZM260-284.92l-27.04 74.57q-.95 1.68-2.8 2.38-1.84.7-3.97.7h-1.83q-3.4 0-4.71-1.48-1.3-1.48-1.3-5.29v-70.88h-24q-22.01-.62-37.1-16.16-15.1-15.55-15.1-37.38v-330.46q0-22.09 15.73-37.81 15.73-15.73 37.81-15.73h568.62q22.08 0 37.81 15.73 15.73 15.72 15.73 37.81v330.64q0 20.99-14.95 36.42-14.94 15.43-36.86 17.05h-24v71.77q0 2.39-1.75 4.08-1.74 1.69-4.28 1.69h-2.67q-2.29 0-4.14-1.13-1.85-1.14-2.55-2.83l-25.88-73.69H260Zm-64.31-28.93h568.62q10.77 0 17.69-6.92 6.92-6.92 6.92-17.69v-330.46q0-10.77-6.92-17.7-6.92-6.92-17.69-6.92H195.69q-10.77 0-17.69 6.92-6.92 6.93-6.92 17.7v330.46q0 10.77 6.92 17.69 6.92 6.92 17.69 6.92ZM480-503.88Z"/></svg>