<svg xmlns="http://www.w3.org/2000/svg" height="48" viewBox="0 -960 960 960" width="48"><path d="M144.652-224.152h670.696v-511.696H144.652v511.696Zm0 65.63q-26.568 0-46.099-19.531-19.531-19.531-19.531-46.099v-511.696q0-26.666 19.531-46.268t46.099-19.602h670.696q26.666 0 46.268 19.602t19.602 46.268v511.696q0 26.568-19.602 46.099-19.602 19.531-46.268 19.531H144.652Zm0-65.63v-511.696 511.696ZM480.053-480Q462-480 449.25-492.697q-12.75-12.698-12.75-30.75 0-18.053 12.697-30.803Q461.895-567 479.947-567q18.053 0 30.803 12.697 12.75 12.698 12.75 30.75 0 18.053-12.697 30.803Q498.105-480 480.053-480Zm.108-217.5q-68.449 0-121.305 48Q306-601.5 306-519.5q0 72.5 56.391 138.391 56.392 65.892 97.892 101.392 4.478 4.25 9.167 5.494 4.689 1.245 10.239 1.245 5.55 0 10.546-1.37 4.995-1.369 9.982-5.369 41-35.5 97.392-101.357Q654-446.93 654-519.5q0-82-52.695-130t-121.144-48Z"/></svg>