<svg xmlns="http://www.w3.org/2000/svg" height="40" width="40"><path d="M29 34.292 28.875 33q-1.042-.208-1.792-.667-.75-.458-1.333-1.083l-1.125.625-.917-1.25 1.084-.833q-.334-1.042-.334-1.938 0-.896.334-1.937l-1.084-.834.917-1.25 1.125.625q.583-.625 1.333-1.083.75-.458 1.792-.667L29 21.417h1.375l.125 1.291q1.042.209 1.792.667.75.458 1.333 1.083l1.125-.583.875 1.208-1.083.834q.375 1.041.375 1.958t-.375 1.917l1.083.833-.875 1.25-1.125-.625q-.583.625-1.333 1.083-.75.459-1.792.667l-.125 1.292Zm.708-2.584q1.584 0 2.709-1.125t1.125-2.708q0-1.625-1.125-2.75T29.708 24q-1.625 0-2.77 1.125-1.146 1.125-1.146 2.75 0 1.583 1.146 2.708 1.145 1.125 2.77 1.125ZM19.292 21.292q.541 0 .916-.396t.375-.896q0-.5-.375-.896t-.916-.396q-.5 0-.896.396T18 20q0 .5.396.896t.896.396ZM7.5 33.333v-1.416H11V6.667h13.208v1.708h4.834v9.958h-1.417V9.792h-3.417v10.25q-.458.333-.77.604-.313.271-.646.646-1.292 1.25-1.98 3.02-.687 1.771-.687 3.563 0 1.167.25 2.167.25 1 .667 1.875.208.416.375.708.166.292.416.708Z"/></svg>