<svg xmlns="http://www.w3.org/2000/svg" height="40" viewBox="0 -960 960 960" width="40"><path d="M120.67-120v-67.59h87.28v-653.74h392.46v42.31h152.31v259.89h-67.59v-192.31h-84.72v256.93h-67.59v-299.23H275.54v586.15h176.77V-120H120.67ZM683.6-87.13l-7.55-52.03q-18.77-3.74-35.77-13.15-16.99-9.4-26.41-20.87l-47.55 17.31-37.42-57.93 41.49-34.66q-4.85-17.18-4.85-35.57 0-18.38 4.85-35.89l-41.49-34.67 37.42-58.59 47.55 17.31q9.42-10.35 26.41-19.59 17-9.23 35.77-12.98l7.55-53.76h68.81l9.18 53.76q18.51 3.75 35.5 13.09 16.99 9.35 27.09 19.86l47.81-17.3 37.16 58.99L867-319.13q4.84 17.18 4.84 35.69 0 18.52-4.84 35.11l42.15 34.66-37.16 58.59-47.81-18.1q-10.1 11.33-27.09 20.81-16.99 9.47-35.5 13.21l-9.18 52.03H683.6Zm33.77-105.23q39.29 0 66.09-26.59 26.8-26.59 26.8-65.51t-26.63-65.84q-26.63-26.93-65.6-26.93-40.05 0-66.35 26.34-26.3 26.35-26.3 66.14t26.22 66.09q26.22 26.3 65.77 26.3ZM447.42-439.28q-16.9 0-28.88-11.84-11.97-11.84-11.97-28.74t11.83-28.88q11.84-11.98 28.74-11.98 17.16 0 29.01 11.84Q488-497.04 488-480.14t-11.71 28.88q-11.71 11.98-28.87 11.98ZM275.54-187.59V-773.74v586.15Z"/></svg>