<svg xmlns="http://www.w3.org/2000/svg" height="24" viewBox="0 -960 960 960" width="24"><path d="M109.391-348.435q0 17.174 17.87 28.478 17.869 11.305 53.609 17.305 22.26 3 35.608 21.978 13.348 18.978 12.913 41.674-1 24.826-17.695 40.739-16.696 15.913-38.957 13.348-79.174-10.261-129.913-46.37Q-7.914-267.391-7.914-349q0-71 54.805-115.283 54.804-44.282 155.804-56.239 38.653-4.261 54.022-9.913 15.37-5.652 15.37-14.956 0-12.739-18.435-22.174Q235.217-577 196.043-583q-22.695-3.565-36.109-22.261-13.413-18.696-10.847-41.957 2-24.826 19.695-40.174 17.696-15.348 41.522-11.348 89.131 15.696 134.109 54.174 44.978 38.479 44.978 99.175 0 56-44.065 92.978-44.065 36.978-124.456 47.5-55.174 7.826-83.326 21.696-28.153 13.869-28.153 34.782Zm488.088 126.653L404.435-415.391l342.782-341.913q26.957-26.957 63.913-27.174 36.957-.218 63.914 26.174l65.782 65.347q26.392 26.392 26.392 64.131 0 37.739-26.392 64.696L597.479-221.782Zm-226.218 93.956q-27.391 5.566-46.935-14.195-19.544-19.761-14.544-46.718l34.131-167.391 194.739 194.739-167.391 33.565Z"/></svg>