<svg xmlns="http://www.w3.org/2000/svg" height="48" width="48"><path d="M24 38.2q-5.5 0-9.5-3.625T9.9 25.65H3.45v-3.3H9.9q.6-5.3 4.6-8.925Q18.5 9.8 24 9.8t9.5 3.625q4 3.625 4.6 8.925h6.45v3.3H38.1q-.6 5.3-4.6 8.925-4 3.625-9.5 3.625Zm-3.8-7.45h7.6q.8 0 1.375-.55t.575-1.35v-5.7q0-.8-.55-1.35t-1.4-.55h-.05V19.3q0-1.6-1.075-2.75T23.95 15.4q-1.55 0-2.625 1.15T20.25 19.3v1.95h-.05q-.8 0-1.375.55t-.575 1.35v5.7q0 .8.575 1.35t1.375.55Zm3.8-3.2q-.65 0-1.1-.45-.45-.45-.45-1.1 0-.65.45-1.1.45-.45 1.1-.45.65 0 1.1.45.45.45.45 1.1 0 .65-.45 1.1-.45.45-1.1.45Zm-2.2-6.3V19.3q0-.95.625-1.65t1.575-.7q.95 0 1.575.7t.625 1.65v1.95Z"/></svg>