<svg xmlns="http://www.w3.org/2000/svg" height="40" viewBox="0 -960 960 960" width="40"><path d="M519.33-362h51.34v-88.67L650.08-362h65.77L610.72-480l105.13-118h-65.77l-79.41 88.67V-598h-51.34v236Zm-257.07 0h135.17q14.98 0 24.57-9.58 9.59-9.59 9.59-24.42v-66.67q0-14.83-9.58-24.41-9.58-9.59-24.42-9.59h-84v-50h118V-598H262.26v135.33h118v49.34h-118V-362Zm-70.54 242.7q-29.61 0-51.01-21.41-21.41-21.4-21.41-51.01v-576.56q0-29.68 21.41-51.13 21.4-21.45 51.01-21.45h576.56q29.68 0 51.13 21.45 21.45 21.45 21.45 51.13v576.56q0 29.61-21.45 51.01-21.45 21.41-51.13 21.41H191.72Zm0-72.42h576.56v-576.56H191.72v576.56Zm0-576.56v576.56-576.56Z"/></svg>