<svg xmlns="http://www.w3.org/2000/svg" height="24" width="24"><path d="m21.975 18.4-6.625-6.65q.35-.375.85-.6.5-.225 1.125-.225h1.825v-.4q0-2.925-2.05-4.988-2.05-2.062-5-2.062-1.1 0-2.075.312-.975.313-1.775.863L6.225 2.625Q7.5 1.65 8.988 1.15q1.487-.5 3.112-.5 2.05 0 3.85.787 1.8.788 3.137 2.125Q20.425 4.9 21.2 6.7q.775 1.8.775 3.825Zm-8.525 5.45q-.55 0-.95-.388-.4-.387-.4-.962t.4-.962q.4-.388.95-.388h4.7l-.825-.85h-.05q-1.15 0-1.963-.8-.812-.8-.812-1.95v-.05L5.4 8.375q-.2.525-.275 1.05-.075.525-.075 1.1v.4h1.825q1.175 0 2 .825t.825 2v3.725q0 1.2-.825 2.013-.825.812-2 .812H5.05q-1.175 0-2-.825t-.825-2v-6.95q0-1.15.25-2.25t.75-2.075l-1.85-1.85Q1 3.975 1 3.475t.4-.9q.375-.375.9-.375t.9.375l19.075 19.1q.4.375.4.887 0 .513-.4.888-.375.375-.887.387-.513.013-.863-.337H20.5q-.3.175-.625.263-.325.087-.725.087Z"/></svg>