<svg xmlns="http://www.w3.org/2000/svg" height="40" width="40"><path d="M3.208 32.167Q1.792 32.167 0.75 31.125Q-0.292 30.083 -0.292 28.667V11.333Q-0.292 9.917 0.771 8.875Q1.833 7.833 3.208 7.833H9.583V18.25Q9.583 18.958 10.104 19.479Q10.625 20 11.333 20Q12.042 20 12.562 19.479Q13.083 18.958 13.083 18.25V7.833H18.25V18.25Q18.25 18.958 18.771 19.479Q19.292 20 20 20Q20.708 20 21.229 19.479Q21.75 18.958 21.75 18.25V7.833H26.917V18.25Q26.917 18.958 27.438 19.479Q27.958 20 28.667 20Q29.375 20 29.896 19.479Q30.417 18.958 30.417 18.25V7.833H36.792Q38.208 7.833 39.25 8.896Q40.292 9.958 40.292 11.333V28.667Q40.292 30.083 39.229 31.125Q38.167 32.167 36.792 32.167Z"/></svg>