<svg xmlns="http://www.w3.org/2000/svg" height="48" viewBox="0 -960 960 960" width="48"><path d="M793-99q-121 0-244.5-58T321-319Q216-423 157.5-548T99-792q0-29.29 19.86-49.64Q138.71-862 168-862h135q31 0 51 16.5t26 47.5l26.93 105.64Q409-666 403.5-645t-20.73 34.23L281-517q20 36 46.5 68.5T385-387q33 36 67 61.5t69 44.5l99-99q16-18 37.65-24.5T704-405l95 22q30 9 46.5 29.04Q862-333.91 862-304v136q0 29.29-20.36 49.14Q821.29-99 793-99Zm-88-453q-21 0-33.5-12.5T659-597q0-18 12.5-32t33.5-14q19 0 31.5 14.21T749-597q0 20-12.5 32.5T705-552Zm0-131q-18 0-36 6.55-18 6.54-31 16.45-12.78 6-26.39 5.5Q598-655 591-664.23q-10-10.44-10-22.83 0-12.38 11.17-20.22Q618-727 645.5-737.5T705-748q31 0 58 11t52.83 28.86Q827-700 827.5-686.73q.5 13.28-9.5 23.73-8 10-21 9.5t-25-6.5q-15-9.48-32.5-16.24Q722-683 705-683Zm0-107q-41.09 0-76.57 13.78-35.47 13.78-65.43 38.99-11 9.23-24.5 9.23T515-738.29q-11-9.28-9-23Q508-775 519-785q38.21-32.16 85.13-50.58Q651.05-854 705.02-854q51.98 0 98.38 18.42T890-785q11 10 12 23.42 1 13.42-8 22.87-9 11.71-22.5 10.21t-24.61-8.04q-30.89-25.95-66.68-39.71Q744.43-790 705-790Z"/></svg>