<svg xmlns="http://www.w3.org/2000/svg" height="20" viewBox="0 -960 960 960" width="20"><path d="m609.92-220 55.2-55.19 55.69 55.5 23.84-23.85-55.88-56.08 55.5-55.5-23.85-24.03-55.19 55.19-55.69-55.5-23.85 23.75 55.19 55.24-55.69 55.74L609.92-220Zm-434-9v-170.5l235.23-81-235.23-80v-173.04l500.5 201.5q-3.46-.31-7.85-.4-4.39-.1-7.69-.1-86.5 3.66-152.44 58.56-65.94 54.9-74.71 140.13L175.92-229Zm489.86 96.42q-69.55 0-117.97-48.37t-48.42-117.92q0-69.55 48.36-117.98 48.37-48.42 117.93-48.42 69.55 0 117.97 48.37 48.43 48.37 48.43 117.92 0 69.56-48.37 117.98t-117.93 48.42Z"/></svg>