<svg xmlns="http://www.w3.org/2000/svg" height="48" viewBox="0 -960 960 960" width="48"><path d="M196.35-161.15q-22.89 0-38.85-16.17t-15.96-38.48v-528.52q0-22.31 15.94-38.47 15.95-16.17 38.81-16.17h372q6.3 0 10.73 4.49 4.44 4.5 4.44 10.38 0 6.9-4.44 11.11-4.44 4.21-10.74 4.21H196.35q-9.62 0-17.12 7.69-7.5 7.7-7.5 16.93v528.19q0 9.23 7.5 16.92 7.5 7.69 17.12 7.69h528.19q9.23 0 16.92-7.69 7.69-7.69 7.69-16.92V-588.4q0-6.32 3.99-10.69 3.98-4.37 10.88-4.37t11.11 4.37q4.22 4.37 4.22 10.69v372.44q0 22.47-16.44 38.64-16.43 16.17-37.98 16.17H196.35ZM335.85-299q-6.81 0-10.73-4.62-3.93-4.62-3.93-10.69 0-6.07 3.93-10.48 3.92-4.4 10.73-4.4h248.53q6.81 0 11.18 4.49 4.36 4.5 4.36 10.38 0 6.9-4.36 11.11-4.37 4.21-11.18 4.21H335.85Zm0-123.04q-6.81 0-10.73-4.62-3.93-4.62-3.93-10.69 0-6.07 3.93-10.48 3.92-4.4 10.73-4.4h248.53q6.81 0 11.18 4.49 4.36 4.5 4.36 10.38 0 6.9-4.36 11.11-4.37 4.21-11.18 4.21H335.85Zm0-123.04q-6.81 0-10.73-4.62-3.93-4.62-3.93-10.69 0-6.07 3.93-10.47 3.92-4.41 10.73-4.41h248.53q6.81 0 11.18 4.49 4.36 4.5 4.36 10.38 0 6.9-4.36 11.11-4.37 4.21-11.18 4.21H335.85Zm384.55-96.61q-6.75 0-10.77-4.19-4.01-4.19-4.01-10.74v-68.88h-69.04q-6.66 0-10.83-4.62t-4.17-10.69q0-6.07 4.06-10.48 4.07-4.4 11.09-4.4h68.89v-68.62q0-5.79 4.23-10.22 4.24-4.43 10.99-4.43t10.86 4.43q4.11 4.43 4.11 10.22v68.62h68.11q6.76 0 11.09 4.49 4.34 4.5 4.34 10.38 0 6.9-4.34 11.08-4.34 4.19-11.11 4.19h-68.14v68.76q0 6.92-4.3 11.01-4.31 4.09-11.06 4.09Z"/></svg>