<svg xmlns="http://www.w3.org/2000/svg" height="40" viewBox="0 -960 960 960" width="40"><path d="M465.03-386.83H496q5.47 0 10.23-5.39 4.77-5.38 3.44-11.45L490.5-511.83q16.71-5.52 28.19-19.1 11.48-13.57 11.48-31.07 0-21.08-14.6-35.62-14.59-14.55-35.75-14.55-21.15 0-35.57 14.5-14.42 14.49-14.42 35.5 0 17.79 11.48 31.31 11.48 13.51 29.02 19.03l-20 108.16q-1.33 6.07 3.63 11.45 4.96 5.39 11.07 5.39ZM480-140.67q-5.63 0-10.72-1.16-5.09-1.17-9.54-2.84-114.07-44.5-180.16-148-66.08-103.5-66.08-225.05v-167q0-17.19 9.98-31.9 9.98-14.71 26.19-20.38L461-815.17q9.58-3.16 19-3.16t19.83 3.16L711.17-737q15.37 5.67 25.35 20.38 9.98 14.71 9.98 31.9v167q0 121.55-66.08 225.05-66.09 103.5-179.57 148-5.2 1.67-10.21 2.84-5.01 1.16-10.64 1.16Z"/></svg>