<svg xmlns="http://www.w3.org/2000/svg" height="24" width="24"><path d="M8 23.7Q7.725 23.7 7.513 23.487Q7.3 23.275 7.3 23Q7.3 22.725 7.513 22.513Q7.725 22.3 8 22.3Q8.275 22.3 8.488 22.513Q8.7 22.725 8.7 23Q8.7 23.275 8.488 23.487Q8.275 23.7 8 23.7ZM12 23.7Q11.725 23.7 11.513 23.487Q11.3 23.275 11.3 23Q11.3 22.725 11.513 22.513Q11.725 22.3 12 22.3Q12.275 22.3 12.488 22.513Q12.7 22.725 12.7 23Q12.7 23.275 12.488 23.487Q12.275 23.7 12 23.7ZM16 23.7Q15.725 23.7 15.513 23.487Q15.3 23.275 15.3 23Q15.3 22.725 15.513 22.513Q15.725 22.3 16 22.3Q16.275 22.3 16.488 22.513Q16.7 22.725 16.7 23Q16.7 23.275 16.488 23.487Q16.275 23.7 16 23.7ZM11.95 18.725Q11.825 18.675 11.738 18.538Q11.65 18.4 11.65 18.275V10.85L6.65 15.85Q6.55 15.95 6.413 15.962Q6.275 15.975 6.15 15.85Q6.025 15.725 6.025 15.6Q6.025 15.475 6.15 15.35L11.5 10L6.15 4.65Q6.05 4.55 6.038 4.412Q6.025 4.275 6.15 4.15Q6.275 4.025 6.4 4.025Q6.525 4.025 6.65 4.15L11.65 9.15V1.725Q11.65 1.6 11.738 1.462Q11.825 1.325 11.95 1.275Q12.075 1.225 12.225 1.25Q12.375 1.275 12.475 1.375L16.275 5.175Q16.4 5.3 16.45 5.425Q16.5 5.55 16.5 5.7Q16.5 5.85 16.45 5.975Q16.4 6.1 16.275 6.225L12.5 10L16.275 13.775Q16.4 13.9 16.45 14.025Q16.5 14.15 16.5 14.3Q16.5 14.45 16.45 14.575Q16.4 14.7 16.275 14.825L12.475 18.625Q12.375 18.725 12.225 18.75Q12.075 18.775 11.95 18.725ZM12.35 9.15 15.8 5.7 12.35 2.25ZM12.35 17.75 15.8 14.3 12.35 10.85Z"/></svg>