<svg xmlns="http://www.w3.org/2000/svg" height="48" viewBox="0 -960 960 960" width="48"><path d="M396.92-63.15q-42.61 0-77.77-25.43Q284-114 269.85-155.85q-9.23-30.84-27.73-53.65t-46.89-22.81q-18.54 0-36.19 8.66-17.66 8.65-31.89 23.42l-21-21.46q17.39-19.69 40.66-30.54 23.27-10.85 48.42-10.85 38.15 0 64.58 28.93 26.42 28.92 40.57 69.77 10.24 31.3 37.08 50.88 26.85 19.58 59.46 19.58 26.7 0 47.43-14.31t35.57-34l1.54-2.31-297.92-434L500-902.69l316.46 324.15-301.23 439.39q-23.61 36-53.35 56-29.73 20-64.96 20Z"/></svg>