<svg xmlns="http://www.w3.org/2000/svg" height="40" width="40"><path d="M20 25.042Q19.792 25.042 19.646 24.896Q19.5 24.75 19.5 24.542V10.042L15.958 13.542Q15.833 13.708 15.625 13.708Q15.417 13.708 15.25 13.542Q15.083 13.375 15.083 13.188Q15.083 13 15.25 12.833L19.167 8.917Q19.375 8.708 19.562 8.625Q19.75 8.542 20 8.542Q20.25 8.542 20.438 8.625Q20.625 8.708 20.833 8.917L24.75 12.833Q24.875 12.958 24.896 13.167Q24.917 13.375 24.75 13.542Q24.583 13.708 24.396 13.708Q24.208 13.708 24.042 13.542L20.5 10.042V24.542Q20.5 24.75 20.354 24.896Q20.208 25.042 20 25.042ZM11.167 31.167Q10.167 31.167 9.5 30.5Q8.833 29.833 8.833 28.833V25.458Q8.833 25.25 8.979 25.104Q9.125 24.958 9.333 24.958Q9.542 24.958 9.688 25.104Q9.833 25.25 9.833 25.458V28.833Q9.833 29.333 10.25 29.75Q10.667 30.167 11.167 30.167H28.833Q29.333 30.167 29.75 29.75Q30.167 29.333 30.167 28.833V25.458Q30.167 25.25 30.312 25.104Q30.458 24.958 30.667 24.958Q30.875 24.958 31.021 25.104Q31.167 25.25 31.167 25.458V28.833Q31.167 29.833 30.5 30.5Q29.833 31.167 28.833 31.167Z"/></svg>