<svg xmlns="http://www.w3.org/2000/svg" version="1.1" width="3300" height="2000"><g id="Notes"><style>
    text {
      font-family: monospace;
      text-anchor: middle;
    }
    text.emphasis {
      font-weight:bold;
    }
    text.lanchor {
      text-anchor: start;
    }
  </style><rect height="2200" id="artboard" fill="white" width="3300" x="0" y="0"/><line id="" style="fill:none;stroke:black;stroke-width:0.5;" x1="263" x2="3036" y1="292" y2="292"/><text class="lanchor emphasis" transform="matrix(1 0 0 1 263 322)">Weight/Scale Variations</text><text transform="matrix(1 0 0 1 559.711 322)">Ultralight</text><text transform="matrix(1 0 0 1 856.422 322)">Thin</text><text transform="matrix(1 0 0 1 1153.13 322)">Light</text><text transform="matrix(1 0 0 1 1449.84 322)">Regular</text><text transform="matrix(1 0 0 1 1746.56 322)">Medium</text><text transform="matrix(1 0 0 1 2043.27 322)">Semibold</text><text transform="matrix(1 0 0 1 2339.98 322)">Bold</text><text transform="matrix(1 0 0 1 2636.69 322)">Heavy</text><text transform="matrix(1 0 0 1 2933.4 322)">Black</text><text id="template-version" style="text-anchor: end;" transform="matrix(1 0 0 1 3036 1933)">Template v.1.0</text><text class="lanchor" transform="matrix(1 0 0 1 263 726)">Small</text><text class="lanchor" transform="matrix(1 0 0 1 263 1156)">Medium</text><text class="lanchor" transform="matrix(1 0 0 1 263 1586)">Large</text></g><g id="Guides"><g id="H-reference" style="fill:#27AAE1;stroke:none;" transform="matrix(1 0 0 1 339 696)"><path d="M 54.9316 0 L 57.666 0 L 30.5664 -70.459 L 28.0762 -70.459 L 0.976562 0 L 3.66211 0 L 12.9395 -24.4629 L 45.7031 -24.4629 Z M 29.1992 -67.0898 L 29.4434 -67.0898 L 44.8242 -26.709 L 13.8184 -26.709 Z"/></g><line id="Baseline-S" style="fill:none;stroke:#27AAE1;opacity:1;stroke-width:0.577;" x1="263" x2="3036" y1="696" y2="696"/><line id="Capline-S" style="fill:none;stroke:#27AAE1;opacity:1;stroke-width:0.577;" x1="263" x2="3036" y1="625.541" y2="625.541"/><g id="H-reference" style="fill:#27AAE1;stroke:none;" transform="matrix(1 0 0 1 339 1126)"><path d="M 54.9316 0 L 57.666 0 L 30.5664 -70.459 L 28.0762 -70.459 L 0.976562 0 L 3.66211 0 L 12.9395 -24.4629 L 45.7031 -24.4629 Z M 29.1992 -67.0898 L 29.4434 -67.0898 L 44.8242 -26.709 L 13.8184 -26.709 Z"/></g><line id="Baseline-M" style="fill:none;stroke:#27AAE1;opacity:1;stroke-width:0.577;" x1="263" x2="3036" y1="1126" y2="1126"/><line id="Capline-M" style="fill:none;stroke:#27AAE1;opacity:1;stroke-width:0.577;" x1="263" x2="3036" y1="1055.54" y2="1055.54"/><g id="H-reference" style="fill:#27AAE1;stroke:none;" transform="matrix(1 0 0 1 339 1556)"><path d="M 54.9316 0 L 57.666 0 L 30.5664 -70.459 L 28.0762 -70.459 L 0.976562 0 L 3.66211 0 L 12.9395 -24.4629 L 45.7031 -24.4629 Z M 29.1992 -67.0898 L 29.4434 -67.0898 L 44.8242 -26.709 L 13.8184 -26.709 Z"/></g><line id="Baseline-L" style="fill:none;stroke:#27AAE1;opacity:1;stroke-width:0.577;" x1="263" x2="3036" y1="1556" y2="1556"/><line id="Capline-L" style="fill:none;stroke:#27AAE1;opacity:1;stroke-width:0.577;" x1="263" x2="3036" y1="1485.54" y2="1485.54"/><rect height="119.336" id="left-margin" style="fill:darkred;stroke:none;opacity:0.4;" width="12.4512" x="1394.06" y="1030.79"/><rect height="119.336" id="right-margin" style="fill:darkgreen;stroke:none;opacity:0.4;" width="12.4512" x="1502.5112" y="1030.79"/><rect x="1406.5112" y="1045" width="96" height="96" fill="none" stroke="blue" stroke-dasharray="5"/><rect x="1394.06" y="1030.79" width="120.9024" height="119.336" fill="none" stroke="blue"/></g><g id="Symbols"><g id="Bold-L" transform="matrix(1 0 0 1 2266 1556)"><path d="M86.027 32.495 V9.517 L122.389 -26.522 Q124.19 -28.245 126.352 -29.117 Q128.515 -29.989 130.675 -29.989 Q133.034 -29.989 135.177 -29.062 Q137.321 -28.135 139.239 -26.361 L145.206 -20.395 Q146.923 -18.62 147.716 -16.451 Q148.511 -14.282 148.511 -12.124 Q148.511 -9.752 147.639 -7.566 Q146.767 -5.379 145.056 -3.622 L109.005 32.495 H86.027 Z M97.959 20.563 H104.048 L123.276 1.25 L120.391 -1.834 L117.346 -4.754 L97.959 14.396 V20.563 Z M34.804 32.495 Q28.682 32.495 24.378 28.183 Q20.076 23.871 20.076 17.741 V-88.201 Q20.076 -94.397 24.387 -98.758 Q28.699 -103.116 34.83 -103.116 H89.736 L130.048 -62.804 V-46.276 H115.133 V-53.256 H80.222 V-88.201 H34.83 Q34.83 -88.201 34.83 -88.201 Q34.83 -88.201 34.83 -88.201 V17.741 Q34.83 17.741 34.83 17.741 Q34.83 17.741 34.83 17.741 H76.755 V32.495 H34.804 Z M120.373 -1.851  117.309 -4.754  123.276 1.213  120.373 -1.851 Z"/></g><g id="Semibold-L" transform="matrix(1 0 0 1 1970.27 1556)"><path d="M87.289 30.742 V9.236 L123.3 -26.522 Q124.949 -28.091 126.925 -28.865 Q128.902 -29.639 130.877 -29.639 Q133.033 -29.639 134.997 -28.817 Q136.963 -27.995 138.678 -26.361 L144.644 -20.395 Q146.23 -18.771 146.95 -16.786 Q147.67 -14.801 147.67 -12.829 Q147.67 -10.735 146.87 -8.708 Q146.068 -6.681 144.495 -5.094 L108.795 30.742 H87.289 Z M98.169 19.861 H104.259 L123.696 0.322 L120.812 -2.753 L117.767 -5.665 L98.169 13.713 V19.861 Z M35.225 30.742 Q30.157 30.742 26.518 27.095 Q22.88 23.447 22.88 18.371 V-88.831 Q22.88 -93.944 26.527 -97.619 Q30.175 -101.294 35.251 -101.294 H90.016 L129.277 -62.033 V-44.734 H116.814 V-53.887 H81.904 V-88.831 H35.251 Q35.251 -88.831 35.251 -88.831 Q35.251 -88.831 35.251 -88.831 V18.371 Q35.251 18.371 35.251 18.371 Q35.251 18.371 35.251 18.371 H78.018 V30.742 H35.225 Z M120.794 -2.762  117.73 -5.665  123.696 0.301  120.794 -2.762 Z"/></g><g id="Medium-L" transform="matrix(1 0 0 1 1674.31 1556)"><path d="M88.236 29.428 V9.027 L123.984 -26.522 Q125.519 -27.977 127.355 -28.677 Q129.192 -29.377 131.029 -29.377 Q133.031 -29.377 134.863 -28.633 Q136.695 -27.89 138.257 -26.361 L144.224 -20.395 Q145.71 -18.884 146.375 -17.038 Q147.039 -15.191 147.039 -13.356 Q147.039 -11.47 146.292 -9.564 Q145.546 -7.656 144.074 -6.199 L108.637 29.428 H88.236 Z M98.327 19.335 H104.416 L124.013 -0.374 L121.128 -3.441 L118.083 -6.349 L98.327 13.198 V19.335 Z M35.54 29.428 Q31.263 29.428 28.124 26.279 Q24.982 23.13 24.982 18.845 V-89.305 Q24.982 -93.604 28.133 -96.766 Q31.283 -99.927 35.567 -99.927 H90.226 L128.698 -61.454 V-43.576 H118.077 V-54.359 H83.166 V-89.305 H35.567 Q35.567 -89.305 35.567 -89.305 Q35.567 -89.305 35.567 -89.305 V18.845 Q35.567 18.845 35.567 18.845 Q35.567 18.845 35.567 18.845 H78.964 V29.428 H35.54 Z M121.11 -3.446  118.046 -6.349  124.013 -0.382  121.11 -3.446 Z"/></g><g id="Regular-L" transform="matrix(1 0 0 1 1378.56 1556)"><path d="M88.929 28.464 V8.872 L124.485 -26.522 Q125.936 -27.893 127.67 -28.538 Q129.405 -29.183 131.138 -29.183 Q133.03 -29.183 134.765 -28.498 Q136.498 -27.812 137.949 -26.361 L143.916 -20.395 Q145.328 -18.968 145.952 -17.222 Q146.576 -15.477 146.576 -13.743 Q146.576 -12.01 145.87 -10.191 Q145.164 -8.372 143.766 -7.008 L108.521 28.464 H88.929 Z M98.443 18.95 H104.532 L124.243 -0.884 L121.358 -3.947 L118.314 -6.85 L98.443 12.823 V18.95 Z M35.772 28.464 Q32.076 28.464 29.301 25.679 Q26.526 22.896 26.526 19.192 V-89.652 Q26.526 -93.356 29.31 -96.139 Q32.094 -98.924 35.797 -98.924 H90.381 L128.274 -61.03 V-42.728 H119.002 V-54.707 H84.092 V-89.652 H35.797 Q35.797 -89.652 35.797 -89.652 Q35.797 -89.652 35.797 -89.652 V19.192 Q35.797 19.192 35.797 19.192 Q35.797 19.192 35.797 19.192 H79.657 V28.464 H35.772 Z M121.341 -3.947  118.277 -6.85  124.243 -0.884  121.341 -3.947 Z"/></g><g id="Light-L" transform="matrix(1 0 0 1 1082.77 1556)"><path d="M88.341 25.548 V8.624 L123.305 -26.181 Q124.509 -27.242 125.896 -27.763 Q127.281 -28.283 128.637 -28.283 Q130.114 -28.283 131.512 -27.738 Q132.91 -27.192 134.104 -26.052 L140.07 -20.053 Q141.142 -18.844 141.658 -17.439 Q142.173 -16.035 142.173 -14.69 Q142.173 -13.344 141.59 -11.897 Q141.007 -10.449 139.981 -9.333 L105.266 25.548 H88.341 Z M95.961 17.926 H102.036 L123.127 -3.209 L120.249 -6.337 L117.213 -9.299 L95.961 11.799 V17.926 Z M38.5 25.548 Q34.849 25.548 32.16 22.851 Q29.472 20.153 29.472 16.507 V-86.967 Q29.472 -90.613 32.169 -93.311 Q34.867 -96.008 38.526 -96.008 H91.962 L125.328 -62.642 V-45.334 H118.258 V-57.869 H87.223 V-88.939 H38.526 Q37.782 -88.939 37.162 -88.318 Q36.542 -87.698 36.542 -86.954 V16.494 Q36.542 17.238 37.162 17.858 Q37.782 18.479 38.526 18.479 H76.805 V25.548 H38.5 Z M120.225 -6.337  117.161 -9.299  123.127 -3.209  120.225 -6.337 Z"/></g><g id="Thin-L" transform="matrix(1 0 0 1 787.282 1556)"><path d="M87.751 22.635 V8.375 L122.126 -25.837 Q123.084 -26.59 124.122 -26.987 Q125.159 -27.385 126.136 -27.385 Q127.2 -27.385 128.261 -26.979 Q129.322 -26.572 130.259 -25.74 L136.226 -19.713 Q136.956 -18.72 137.362 -17.655 Q137.769 -16.593 137.769 -15.635 Q137.769 -14.677 137.311 -13.602 Q136.853 -12.528 136.197 -11.657 L102.01 22.635 H87.751 Z M93.481 16.904 H99.541 L122.01 -5.536 L119.14 -8.727 L116.111 -11.749 L93.481 10.776 V16.904 Z M41.228 22.635 Q37.623 22.635 35.02 20.022 Q32.418 17.41 32.418 13.824 V-84.284 Q32.418 -87.87 35.03 -90.482 Q37.641 -93.095 41.256 -93.095 H93.544 L122.382 -64.255 V-47.938 H117.514 V-61.033 H90.356 V-88.225 H41.256 Q39.767 -88.225 38.526 -86.985 Q37.286 -85.745 37.286 -84.256 V13.796 Q37.286 15.285 38.526 16.525 Q39.767 17.765 41.256 17.765 H73.952 V22.635 H41.228 Z M119.107 -8.727  116.044 -11.749  122.01 -5.536  119.107 -8.727 Z"/></g><g id="Ultralight-L" transform="matrix(1 0 0 1 491.205 1556)"><path d="M87.398 20.885 V8.227 L121.418 -25.632 Q122.228 -26.2 123.056 -26.522 Q123.887 -26.845 124.635 -26.845 Q125.451 -26.845 126.31 -26.522 Q127.17 -26.2 127.952 -25.555 L133.918 -19.508 Q134.444 -18.645 134.786 -17.786 Q135.127 -16.928 135.127 -16.202 Q135.127 -15.477 134.744 -14.625 Q134.36 -13.774 133.926 -13.052 L100.056 20.885 H87.398 Z M91.993 16.289 H98.043 L121.341 -6.931 L118.475 -10.16 L115.45 -13.219 L91.993 10.162 V16.289 Z M42.867 20.885 Q39.287 20.885 36.736 18.324 Q34.185 15.764 34.185 12.213 V-82.673 Q34.185 -86.224 36.746 -88.784 Q39.306 -91.345 42.892 -91.345 H94.493 L120.615 -65.222 V-49.501 H117.068 V-62.931 H92.235 V-87.797 H42.892 Q40.958 -87.797 39.345 -86.185 Q37.733 -84.572 37.733 -82.637 V12.178 Q37.733 14.113 39.345 15.725 Q40.958 17.338 42.892 17.338 H72.24 V20.885 H42.867 Z M118.438 -10.16  115.374 -13.219  121.341 -6.931  118.438 -10.16 Z"/></g><g id="Bold-M" transform="matrix(1 0 0 1 2281.8 1126)"><path d="M64.875 17.77 V-0.667 L93.125 -28.792 Q94.562 -30.252 96.345 -30.929 Q98.126 -31.605 99.909 -31.605 Q101.853 -31.605 103.62 -30.886 Q105.388 -30.167 106.812 -28.73 L111.438 -24.042 Q112.761 -22.615 113.505 -20.87 Q114.25 -19.126 114.25 -17.292 Q114.25 -15.292 113.578 -13.57 Q112.905 -11.847 111.438 -10.417 L83.312 17.77 H64.875 Z M74.562 8.083 H79.312 L94.188 -6.917 L91.938 -9.292 L89.562 -11.542 L74.562 3.333 V8.083 Z M29.469 17.77 Q23.115 17.77 18.745 13.391 Q14.375 9.013 14.375 2.645 V-73.105 Q14.375 -79.472 18.754 -83.851 Q23.133 -88.23 29.5 -88.23 H69.375 L100.625 -56.98 V-44.417 H85.5 V-48.954 H61.375 V-73.105 H29.5 Q29.5 -73.105 29.5 -73.105 Q29.5 -73.105 29.5 -73.105 V2.645 Q29.5 2.645 29.5 2.645 Q29.5 2.645 29.5 2.645 H55.5 V17.77 H29.469 Z M91.938 -9.292  89.562 -11.542  94.188 -6.917  91.938 -9.292 Z"/></g><g id="Semibold-M" transform="matrix(1 0 0 1 1985.97 1126)"><path d="M66.179 15.923 V-0.994 L94.104 -28.792 Q95.377 -30.08 96.96 -30.679 Q98.544 -31.279 100.126 -31.279 Q101.853 -31.279 103.427 -30.641 Q105.001 -30.005 106.269 -28.73 L110.894 -24.042 Q112.064 -22.777 112.722 -21.232 Q113.38 -19.687 113.38 -18.054 Q113.38 -16.325 112.789 -14.765 Q112.198 -13.206 110.894 -11.939 L83.095 15.923 H66.179 Z M74.78 7.321 H79.53 L94.623 -7.896 L92.373 -10.271 L89.998 -12.521 L74.78 2.571 V7.321 Z M29.904 15.923 Q24.636 15.923 20.973 12.25 Q17.31 8.578 17.31 3.298 V-73.757 Q17.31 -79.037 20.983 -82.71 Q24.655 -86.382 29.935 -86.382 H69.701 L99.864 -56.219 V-42.841 H87.239 V-49.605 H63.114 V-73.757 H29.935 Q29.935 -73.757 29.935 -73.757 Q29.935 -73.757 29.935 -73.757 V3.298 Q29.935 3.298 29.935 3.298 Q29.935 3.298 29.935 3.298 H56.804 V15.923 H29.904 Z M92.373 -10.271  89.998 -12.521  94.623 -7.896  92.373 -10.271 Z"/></g><g id="Medium-M" transform="matrix(1 0 0 1 1689.91 1126)"><path d="M67.157 14.536 V-1.239 L94.838 -28.792 Q95.989 -29.95 97.422 -30.492 Q98.856 -31.034 100.289 -31.034 Q101.853 -31.034 103.282 -30.459 Q104.713 -29.882 105.861 -28.73 L110.486 -24.042 Q111.541 -22.9 112.135 -21.505 Q112.729 -20.109 112.729 -18.624 Q112.729 -17.1 112.199 -15.662 Q111.668 -14.225 110.486 -13.08 L82.933 14.536 H67.157 Z M74.942 6.751 H79.692 L94.949 -8.63 L92.699 -11.005 L90.324 -13.255 L74.942 2.001 V6.751 Z M30.23 14.536 Q25.777 14.536 22.644 11.394 Q19.511 8.251 19.511 3.786 V-74.246 Q19.511 -78.711 22.654 -81.854 Q25.796 -84.996 30.261 -84.996 H69.946 L99.294 -55.649 V-41.659 H88.544 V-50.095 H64.419 V-74.246 H30.261 Q30.261 -74.246 30.261 -74.246 Q30.261 -74.246 30.261 -74.246 V3.786 Q30.261 3.786 30.261 3.786 Q30.261 3.786 30.261 3.786 H57.782 V14.536 H30.23 Z M92.699 -11.005  90.324 -13.255  94.949 -8.63  92.699 -11.005 Z"/></g><g id="Regular-M" transform="matrix(1 0 0 1 1394.06 1126)"><path d="M67.875 13.52 V-1.417 L95.375 -28.792 Q96.438 -29.855 97.761 -30.355 Q99.085 -30.855 100.409 -30.855 Q101.853 -30.855 103.176 -30.324 Q104.5 -29.792 105.562 -28.73 L110.188 -24.042 Q111.157 -22.99 111.704 -21.704 Q112.25 -20.417 112.25 -19.042 Q112.25 -17.667 111.765 -16.32 Q111.28 -14.972 110.188 -13.917 L82.812 13.52 H67.875 Z M75.062 6.333 H79.812 L95.188 -9.167 L92.938 -11.542 L90.562 -13.792 L75.062 1.583 V6.333 Z M30.469 13.52 Q26.615 13.52 23.87 10.766 Q21.125 8.013 21.125 4.145 V-74.605 Q21.125 -78.472 23.879 -81.226 Q26.633 -83.98 30.5 -83.98 H70.125 L98.875 -55.23 V-40.792 H89.5 V-50.454 H65.375 V-74.605 H30.5 Q30.5 -74.605 30.5 -74.605 Q30.5 -74.605 30.5 -74.605 V4.145 Q30.5 4.145 30.5 4.145 Q30.5 4.145 30.5 4.145 H58.5 V13.52 H30.469 Z M92.938 -11.542  90.562 -13.792  95.188 -9.167  92.938 -11.542 Z"/></g><g id="Light-M" transform="matrix(1 0 0 1 1098.18 1126)"><path d="M67.419 11.26 V-1.61 L94.46 -28.527 Q95.331 -29.35 96.385 -29.754 Q97.44 -30.157 98.469 -30.157 Q99.593 -30.157 100.655 -29.735 Q101.719 -29.311 102.581 -28.49 L107.206 -23.777 Q107.961 -22.894 108.399 -21.872 Q108.836 -20.85 108.836 -19.776 Q108.836 -18.701 108.448 -17.642 Q108.058 -16.582 107.205 -15.72 L80.289 11.26 H67.419 Z M73.139 5.539 H77.877 L94.323 -10.97 L92.078 -13.395 L89.709 -15.691 L73.139 0.789 V5.539 Z M31.911 11.26 Q28.37 11.26 25.889 8.771 Q23.409 6.281 23.409 2.738 V-73.197 Q23.409 -76.741 25.899 -79.231 Q28.387 -81.72 31.942 -81.72 H71.351 L96.591 -56.48 V-42.956 H89.596 V-52.905 H67.802 V-74.725 H31.942 Q31.365 -74.725 30.885 -74.245 Q30.404 -73.764 30.404 -73.186 V2.726 Q30.404 3.304 30.885 3.785 Q31.365 4.265 31.942 4.265 H56.961 V11.26 H31.911 Z M92.073 -13.395  89.698 -15.691  94.323 -10.97  92.073 -13.395 Z"/></g><g id="Thin-M" transform="matrix(1 0 0 1 802.565 1126)"><path d="M66.961 9.001 V-1.802 L93.546 -28.261 Q94.226 -28.845 95.01 -29.152 Q95.794 -29.461 96.53 -29.461 Q97.334 -29.461 98.135 -29.146 Q98.938 -28.831 99.601 -28.249 L104.226 -23.514 Q104.764 -22.797 105.094 -22.04 Q105.422 -21.282 105.422 -20.509 Q105.422 -19.735 105.13 -18.964 Q104.838 -18.194 104.224 -17.521 L77.765 9.001 H66.961 Z M71.216 4.746 H75.944 L93.456 -12.774 L91.218 -15.247 L88.854 -17.59 L71.216 -0.004 V4.746 Z M33.354 9.001 Q30.124 9.001 27.909 6.776 Q25.692 4.551 25.692 1.33 V-71.79 Q25.692 -75.011 27.918 -77.236 Q30.142 -79.461 33.385 -79.461 H72.578 L94.308 -57.73 V-45.12 H89.692 V-55.357 H70.231 V-74.845 H33.385 Q32.231 -74.845 31.269 -73.884 Q30.308 -72.922 30.308 -71.769 V1.309 Q30.308 2.463 31.269 3.424 Q32.231 4.385 33.385 4.385 H55.422 V9.001 H33.354 Z M91.206 -15.247  88.831 -17.59  93.456 -12.774  91.206 -15.247 Z"/></g><g id="Ultralight-M" transform="matrix(1 0 0 1 506.415 1126)"><path d="M66.688 7.645 V-1.917 L92.998 -28.102 Q93.562 -28.542 94.185 -28.792 Q94.808 -29.042 95.368 -29.042 Q95.978 -29.042 96.623 -28.792 Q97.269 -28.542 97.812 -28.105 L102.438 -23.355 Q102.845 -22.74 103.11 -22.141 Q103.375 -21.542 103.375 -20.949 Q103.375 -20.355 103.14 -19.757 Q102.905 -19.16 102.435 -18.602 L76.25 7.645 H66.688 Z M70.062 4.27 H74.782 L92.938 -13.855 L90.701 -16.359 L88.341 -18.73 L70.062 -0.48 V4.27 Z M34.219 7.645 Q31.177 7.645 29.12 5.579 Q27.062 3.513 27.062 0.485 V-70.945 Q27.062 -73.972 29.129 -76.039 Q31.195 -78.105 34.25 -78.105 H73.312 L92.938 -58.48 V-46.417 H89.75 V-56.829 H71.688 V-74.917 H34.25 Q32.75 -74.917 31.5 -73.667 Q30.25 -72.417 30.25 -70.917 V0.458 Q30.25 1.958 31.5 3.208 Q32.75 4.458 34.25 4.458 H54.5 V7.645 H34.219 Z M90.688 -16.359  88.312 -18.73  92.938 -13.855  90.688 -16.359 Z"/></g><g id="Bold-S" transform="matrix(1 0 0 1 2294.23 696)"><path d="M52.764 5.009 V-8.552 L73.969 -29.658 Q74.931 -30.653 76.128 -31.116 Q77.323 -31.581 78.508 -31.581 Q79.801 -31.581 80.974 -31.112 Q82.148 -30.644 83.092 -29.707 L87.431 -25.22 Q88.336 -24.265 88.845 -23.098 Q89.354 -21.932 89.354 -20.706 Q89.354 -19.349 88.893 -18.221 Q88.432 -17.093 87.431 -16.146 L66.325 5.009 H52.764 Z M59.224 -1.451 H63.662 L74.807 -12.596 L72.637 -14.864 L70.468 -17.034 L59.224 -5.889 V-1.451 Z M25.618 5.009 Q20.901 5.009 17.699 1.786 Q14.498 -1.437 14.498 -6.136 V-64.324 Q14.498 -69.023 17.721 -72.246 Q20.944 -75.469 25.643 -75.469 H56.315 L76.237 -55.547 V-42.479 H65.093 V-48.425 H49.214 V-64.324 H25.643 Q25.643 -64.324 25.643 -64.324 Q25.643 -64.324 25.643 -64.324 V-6.136 Q25.643 -6.136 25.643 -6.136 Q25.643 -6.136 25.643 -6.136 H46.157 V5.009 H25.618 Z M72.637 -14.864  70.468 -17.034  74.807 -12.596  72.637 -14.864 Z"/></g><g id="Semibold-S" transform="matrix(1 0 0 1 1998.1 696)"><path d="M53.793 3.551 V-8.809 L74.741 -29.658 Q75.574 -30.517 76.613 -30.92 Q77.652 -31.323 78.68 -31.323 Q79.801 -31.323 80.822 -30.919 Q81.843 -30.516 82.663 -29.707 L87.002 -25.22 Q87.786 -24.394 88.227 -23.384 Q88.668 -22.375 88.668 -21.307 Q88.668 -20.164 88.271 -19.165 Q87.875 -18.165 87.002 -17.346 L66.154 3.551 H53.793 Z M59.396 -2.052 H63.834 L75.15 -13.368 L72.981 -15.636 L70.811 -17.806 L59.396 -6.49 V-2.052 Z M25.961 3.551 Q22.101 3.551 19.457 0.885 Q16.814 -1.78 16.814 -5.621 V-64.839 Q16.814 -68.68 19.479 -71.345 Q22.145 -74.011 25.986 -74.011 H56.572 L75.636 -54.946 V-41.235 H66.464 V-48.939 H50.586 V-64.839 H25.986 Q25.986 -64.839 25.986 -64.839 Q25.986 -64.839 25.986 -64.839 V-5.621 Q25.986 -5.621 25.986 -5.621 Q25.986 -5.621 25.986 -5.621 H47.185 V3.551 H25.961 Z M72.981 -15.636  70.811 -17.806  75.15 -13.368  72.981 -15.636 Z"/></g><g id="Medium-S" transform="matrix(1 0 0 1 1701.85 696)"><path d="M54.565 2.458 V-9.003 L75.32 -29.658 Q76.057 -30.414 76.978 -30.772 Q77.899 -31.13 78.808 -31.13 Q79.801 -31.13 80.708 -30.775 Q81.615 -30.419 82.341 -29.707 L86.681 -25.22 Q87.374 -24.491 87.763 -23.599 Q88.154 -22.708 88.154 -21.757 Q88.154 -20.776 87.805 -19.872 Q87.457 -18.97 86.681 -18.247 L66.025 2.458 H54.565 Z M59.524 -2.501 H63.962 L75.408 -13.947 L73.238 -16.215 L71.068 -18.385 L59.524 -6.939 V-2.501 Z M26.218 2.458 Q23.001 2.458 20.775 0.21 Q18.55 -2.038 18.55 -5.235 V-65.225 Q18.55 -68.422 20.798 -70.67 Q23.046 -72.918 26.243 -72.918 H56.766 L75.187 -54.496 V-40.302 H67.494 V-49.325 H51.615 V-65.225 H26.243 Q26.243 -65.225 26.243 -65.225 Q26.243 -65.225 26.243 -65.225 V-5.235 Q26.243 -5.235 26.243 -5.235 Q26.243 -5.235 26.243 -5.235 H47.957 V2.458 H26.218 Z M73.238 -16.215  71.068 -18.385  75.408 -13.947  73.238 -16.215 Z"/></g><g id="Regular-S" transform="matrix(1 0 0 1 1405.73 696)"><path d="M55.131 1.656 V-9.144 L75.744 -29.658 Q76.411 -30.339 77.245 -30.665 Q78.079 -30.989 78.903 -30.989 Q79.801 -30.989 80.624 -30.669 Q81.447 -30.348 82.105 -29.707 L86.445 -25.22 Q87.071 -24.561 87.424 -23.756 Q87.776 -22.951 87.776 -22.087 Q87.776 -21.223 87.463 -20.391 Q87.15 -19.558 86.445 -18.908 L65.931 1.656 H55.131 Z M59.619 -2.832 H64.057 L75.596 -14.371 L73.426 -16.639 L71.257 -18.809 L59.619 -7.27 V-2.832 Z M26.407 1.656 Q23.662 1.656 21.743 -0.285 Q19.824 -2.226 19.824 -4.952 V-65.508 Q19.824 -68.234 21.765 -70.175 Q23.706 -72.116 26.431 -72.116 H56.907 L74.856 -54.166 V-39.619 H68.249 V-49.609 H52.37 V-65.508 H26.431 Q26.431 -65.508 26.431 -65.508 Q26.431 -65.508 26.431 -65.508 V-4.952 Q26.431 -4.952 26.431 -4.952 Q26.431 -4.952 26.431 -4.952 H48.524 V1.656 H26.407 Z M73.426 -16.639  71.257 -18.809  75.596 -14.371  73.426 -16.639 Z"/></g><g id="Light-S" transform="matrix(1 0 0 1 1109.75 696)"><path d="M54.771 -0.127 V-9.296 L75.022 -29.449 Q75.538 -29.941 76.159 -30.19 Q76.782 -30.439 77.372 -30.439 Q78.018 -30.439 78.636 -30.204 Q79.253 -29.968 79.753 -29.518 L84.093 -25.01 Q84.548 -24.485 84.816 -23.889 Q85.083 -23.292 85.083 -22.666 Q85.083 -22.039 84.845 -21.434 Q84.608 -20.83 84.092 -20.33 L63.94 -0.127 H54.771 Z M58.101 -3.458 H62.53 L74.914 -15.793 L72.748 -18.101 L70.583 -20.307 L58.101 -7.896 V-3.458 Z M27.545 -0.127 Q25.047 -0.127 23.336 -1.859 Q21.626 -3.592 21.626 -6.063 V-64.397 Q21.626 -66.868 23.358 -68.601 Q25.09 -70.333 27.57 -70.333 H57.874 L73.054 -55.152 V-41.326 H68.324 V-51.543 H54.285 V-65.603 H27.57 Q27.114 -65.603 26.735 -65.224 Q26.356 -64.844 26.356 -64.388 V-6.072 Q26.356 -5.616 26.735 -5.236 Q27.114 -4.857 27.57 -4.857 H47.309 V-0.127 H27.545 Z M72.744 -18.101  70.574 -20.307  74.914 -15.793  72.744 -18.101 Z"/></g><g id="Thin-S" transform="matrix(1 0 0 1 814.015 696)"><path d="M54.41 -1.91 V-9.447 L74.301 -29.239 Q74.666 -29.542 75.074 -29.716 Q75.483 -29.889 75.843 -29.889 Q76.235 -29.889 76.647 -29.74 Q77.059 -29.59 77.402 -29.327 L81.741 -24.802 Q82.026 -24.409 82.208 -24.021 Q82.389 -23.634 82.389 -23.244 Q82.389 -22.855 82.229 -22.478 Q82.067 -22.1 81.739 -21.751 L61.948 -1.91 H54.41 Z M56.584 -4.083 H61.004 L74.23 -17.216 L72.069 -19.562 L69.908 -21.805 L56.584 -8.521 V-4.083 Z M28.683 -1.91 Q26.431 -1.91 24.929 -3.433 Q23.427 -4.957 23.427 -7.173 V-63.287 Q23.427 -65.503 24.951 -67.027 Q26.475 -68.55 28.708 -68.55 H58.842 L71.253 -56.138 V-43.033 H68.4 V-53.478 H56.201 V-65.697 H28.708 Q27.797 -65.697 27.038 -64.939 Q26.28 -64.18 26.28 -63.27 V-7.19 Q26.28 -6.28 27.038 -5.521 Q27.797 -4.763 28.708 -4.763 H46.095 V-1.91 H28.683 Z M72.06 -19.562  69.891 -21.805  74.23 -17.216  72.06 -19.562 Z"/></g><g id="Ultralight-S" transform="matrix(1 0 0 1 517.792 696)"><path d="M54.194 -2.98 V-9.538 L73.868 -29.113 Q74.142 -29.304 74.423 -29.432 Q74.704 -29.559 74.924 -29.559 Q75.166 -29.559 75.454 -29.46 Q75.742 -29.362 75.991 -29.214 L80.33 -24.677 Q80.513 -24.363 80.644 -24.101 Q80.774 -23.839 80.774 -23.591 Q80.774 -23.344 80.657 -23.103 Q80.542 -22.862 80.328 -22.604 L60.753 -2.98 H54.194 Z M55.674 -4.459 H60.088 L73.821 -18.069 L71.662 -20.439 L69.504 -22.705 L55.674 -8.897 V-4.459 Z M29.366 -2.98 Q27.262 -2.98 25.885 -4.378 Q24.508 -5.777 24.508 -7.84 V-62.62 Q24.508 -64.683 25.907 -66.082 Q27.305 -67.48 29.39 -67.48 H59.422 L70.172 -56.73 V-44.057 H68.446 V-54.638 H57.35 V-65.754 H29.39 Q28.207 -65.754 27.221 -64.768 Q26.234 -63.782 26.234 -62.598 V-7.862 Q26.234 -6.678 27.221 -5.692 Q28.207 -4.706 29.39 -4.706 H45.367 V-2.98 H29.366 Z M71.651 -20.439  69.481 -22.705  73.821 -18.069  71.651 -20.439 Z"/></g></g></svg>