<svg xmlns="http://www.w3.org/2000/svg" height="48" width="48"><path d="M25.6 13.9q-1.3 0-2.225-.925t-.925-2.225q0-1.3.925-2.225T25.6 7.6q1.3 0 2.225.925t.925 2.225q0 1.3-.925 2.225T25.6 13.9Zm-8.05 27.5v-9.5l-5.05-4.95.7 6.05-6.15 7.85-1.25-.95 5.65-7.25L8.5 23.2l7.5-7.4q.45-.4.95-.6.5-.2 1-.2.7 0 1.225.275.525.275.775.525l2.9 2.8q1.6 1.6 3.5 2.775 1.9 1.175 4.6 1.225h5.55l1.6 15.45q.75.15 1.225.75.475.6.475 1.45 0 .9-.6 1.525-.6.625-1.55.625-.9 0-1.55-.625t-.65-1.525q0-.7.35-1.225.35-.525.9-.825l-.45-4.45h-7.4l-.75 7.65h-1.4l1.8-17.55q-2-.5-3.625-1.525T21.9 19.95l-1.1-1.1-6.5 6.4 4.8 5.95v10.2ZM29 32.45h7.15l-.9-8.55H29.8Z"/></svg>