<svg xmlns="http://www.w3.org/2000/svg" height="20" viewBox="0 -960 960 960" width="20"><path d="M480.5-118.38q-60.12 0-117.1-17.18t-100.81-49q-43.82-31.82-70.01-78.86-26.2-47.04-26.2-105.96v-104.31l126.24 107.31-58.85 58.84q37 61.16 87.35 93.12 50.34 31.96 129.88 36.34v-309.84H343v-58h108V-620q-35.23-9.38-59.62-39.09Q367-688.79 367-728.62q0-46.95 33.02-79.97 33.02-33.03 79.98-33.03t79.98 33.03Q593-775.57 593-728.62q0 40.27-24.38 69.75Q544.23-629.38 509-620v74.08h108v58H509v309.84q79.54-4.38 130.27-36.46 50.73-32.08 86.96-93.23l-58.85-58.61 126.24-107.31v104.31q0 58.92-26.2 105.96-26.19 47.04-70.01 79.36-43.83 32.32-100.31 49-56.48 16.68-116.6 16.68Zm-.5-555.24q22.57 0 38.78-16.21Q535-706.05 535-728.62q0-22.56-16.22-38.78-16.21-16.22-38.78-16.22t-38.78 16.22Q425-751.18 425-728.62q0 22.57 16.22 38.79 16.21 16.21 38.78 16.21Z"/></svg>