<svg xmlns="http://www.w3.org/2000/svg" height="40" width="40"><path d="M11.417 20.042q.583 0 .979-.417t.396-1q0-.583-.417-1-.417-.417-1-.417t-.979.417q-.396.417-.396 1t.417 1q.416.417 1 .417Zm0 5.666h12q.583 0 1-.416.416-.417.416-1 0-.542-.416-.98-.417-.437-1-.437h-12q-.625 0-1.021.417-.396.416-.396 1.041 0 .542.396.959.396.416 1.021.416Zm17.208 0q.583 0 .979-.416.396-.417.396-1 0-.542-.417-.98-.416-.437-.958-.437-.583 0-1 .417-.417.416-.417 1.041 0 .542.417.959.417.416 1 .416Zm-12.042-5.666h12.042q.583 0 .979-.417t.396-1q0-.583-.396-1-.396-.417-.979-.417H16.583q-.583 0-1 .417-.416.417-.416 1t.416 1q.417.417 1 .417ZM6.792 33.167q-1.375 0-2.354-.979-.98-.98-.98-2.355V10.167q0-1.375.98-2.354.979-.98 2.354-.98h26.416q1.375 0 2.354.98.98.979.98 2.354v19.666q0 1.375-.98 2.355-.979.979-2.354.979Zm0-2.834q-.25 0-.396-.145-.146-.146-.146-.355V10.167q0-.209.146-.354.146-.146.396-.146-.25 0-.396.146-.146.145-.146.354v19.666q0 .209.146.355.146.145.396.145Zm0 0h26.416q.25 0 .396-.145.146-.146.146-.355V10.167q0-.209-.146-.354-.146-.146-.396-.146H6.792q-.25 0-.396.146-.146.145-.146.354v19.666q0 .209.146.355.146.145.396.145Z"/></svg>