<svg xmlns="http://www.w3.org/2000/svg" height="40" width="40"><path d="M28.167 22.375Q26.792 22.375 25.875 21.438Q24.958 20.5 24.958 19.125Q24.958 17.792 25.875 16.854Q26.792 15.917 28.167 15.917Q29.5 15.917 30.438 16.854Q31.375 17.792 31.375 19.125Q31.375 20.5 30.438 21.438Q29.5 22.375 28.167 22.375ZM20.75 30.875V29.458Q20.75 28.708 21.104 28.104Q21.458 27.5 22.167 27.208Q23.583 26.583 25.083 26.25Q26.583 25.917 28.167 25.917Q29.708 25.917 31.208 26.25Q32.708 26.583 34.167 27.208Q34.833 27.458 35.188 28.083Q35.542 28.708 35.542 29.458V30.875ZM16 19Q13.958 19 12.583 17.604Q11.208 16.208 11.208 14.167Q11.208 12.083 12.583 10.708Q13.958 9.333 16 9.333Q18.042 9.333 19.438 10.708Q20.833 12.083 20.833 14.167Q20.833 16.208 19.438 17.604Q18.042 19 16 19ZM4.458 30.875V28.5Q4.458 27.333 5.042 26.438Q5.625 25.542 6.667 25.125Q9 24.042 11.312 23.479Q13.625 22.917 16 22.917Q16.792 22.917 17.375 22.938Q17.958 22.958 18.375 23V23.875Q18.208 24 18.125 24.104Q18.042 24.208 17.958 24.333Q17 25.583 16.729 26.729Q16.458 27.875 16.458 29.542V30.875Z"/></svg>