<svg xmlns="http://www.w3.org/2000/svg" height="40" viewBox="0 -960 960 960" width="40"><path d="M481-40q-39 0-65-26.28-26-26.27-26-64.39h181q0 38-26.28 64.34Q518.45-40 481-40ZM184-170.67q-23.67 0-38.5-14.83-14.83-14.83-14.83-38 0-22.5 14.83-37.83 14.83-15.34 38.5-15.34h16.67v-267.67q0-76.33 36.5-140.49Q273.67-749 337-783q28-18.33 58.33-4.33 30.34 14 27.42 60.2-1.75 9.46-2.42 23.96-.66 14.5-.66 25.3 0 113.54 87.16 190.7Q594-410 707-411q21 0 37.5 13.68t16.5 33.99v86.66h16q21.6 0 37.8 15.54Q831-245.6 831-224q0 23.67-16.2 38.5-16.2 14.83-37.8 14.83H184Zm515.25-314.66q-16.25 0-28.92-9.34-12.66-9.33-14.66-26.66L653-541.67q-15.67-5-29.33-12.66-13.67-7.67-25.34-19l-17.66 8q-15.67 6.66-31.08.67-15.41-6-22.77-20.09l-7.79-12.39q-8.36-13.53-6.36-30.69 2-17.17 16.66-28.17L544-667.33q-5.67-15-5.67-30.34 0-15.33 5.67-31.33l-14.67-11.67q-13.46-9.66-16.56-26.5-3.1-16.83 6.22-31.75l7.61-12.56q8.33-13.14 23.7-19.17 15.37-6.02 30.03 1.32l18 6.66q11.34-10.66 25.08-18.03 13.74-7.36 29.59-11.97l2.33-20.61q1.67-16.39 14.84-26.89 13.16-10.5 29.08-10.5h15.8q15.24 0 27.43 10.26 12.18 10.26 14.52 26.74l3 21q16 4.67 29.47 12.16 13.48 7.49 26.2 17.84l16-6.33q14.93-6.67 29.63-1t23.63 19.13l7.74 12.2q9 13.67 6.5 30.84-2.5 17.16-15.84 27.5L869.67-729q4.33 15.67 4.33 31t-4.33 30.67l13.66 11.29q13.34 11.37 16.34 28.87t-6 30.5l-7.2 12.09q-8.27 14.52-24.54 19.72-16.26 5.19-31.1-1.17l-15.16-7.3q-13.34 11.33-26.5 19Q776-546.67 760-541.67l-3.33 20.34q-2.34 16.17-14.36 26.08-12.02 9.92-27.26 9.92h-15.8Zm7.54-124q36.54 0 62.04-25.34 25.5-25.33 25.5-62.66 0-37.34-25.5-62.5Q743.33-785 706.79-785q-37.21 0-63.5 25.17Q617-734.67 617-697.33q0 37.33 26.29 62.66 26.29 25.34 63.5 25.34Z"/></svg>