<svg xmlns="http://www.w3.org/2000/svg" height="24" viewBox="0 -960 960 960" width="24"><path d="M747.69-220H332.31Q302-220 281-241q-21-21-21-51.31v-535.38Q260-858 281-879q21-21 51.31-21h247.77q14.46 0 27.81 5.62 13.34 5.61 23.19 15.46l167.84 167.84q9.85 9.85 15.46 23.19 5.62 13.35 5.62 27.81v367.77Q820-262 799-241q-21 21-51.31 21ZM760-660H628.46q-20.38 0-34.42-14.04Q580-688.08 580-708.46V-840H332.31q-4.62 0-8.46 3.85-3.85 3.84-3.85 8.46v535.38q0 4.62 3.85 8.46 3.84 3.85 8.46 3.85h415.38q4.62 0 8.46-3.85 3.85-3.84 3.85-8.46V-660ZM172.31-60Q142-60 121-81q-21-21-21-51.31V-630q0-12.77 8.62-21.38Q117.23-660 130-660t21.38 8.62Q160-642.77 160-630v497.69q0 4.62 3.85 8.46 3.84 3.85 8.46 3.85H550q12.77 0 21.38 8.62Q580-102.77 580-90t-8.62 21.38Q562.77-60 550-60H172.31ZM320-840v180-180V-280v-560Z"/></svg>