<svg xmlns="http://www.w3.org/2000/svg" height="48" width="48"><path d="M37.55 36.1H17.35Q16 36.1 15 35.125Q14 34.15 14 32.75V6.45Q14 5.05 15 4.075Q16 3.1 17.35 3.1H30.55Q31.2 3.1 31.825 3.375Q32.45 3.65 32.95 4.1L39.9 11.1Q40.4 11.6 40.65 12.225Q40.9 12.85 40.9 13.55V32.75Q40.9 34.15 39.925 35.125Q38.95 36.1 37.55 36.1ZM8.65 44.8Q7.3 44.8 6.3 43.825Q5.3 42.85 5.3 41.45V16.95Q5.3 16.6 5.55 16.35Q5.8 16.1 6.2 16.1Q6.55 16.1 6.8 16.35Q7.05 16.6 7.05 16.95V41.45Q7.05 42.05 7.55 42.55Q8.05 43.05 8.65 43.05H27Q27.35 43.05 27.625 43.325Q27.9 43.6 27.9 43.95Q27.9 44.3 27.625 44.55Q27.35 44.8 27 44.8ZM32.65 12.95H39.15L31 4.85V11.3Q31 12.05 31.475 12.5Q31.95 12.95 32.65 12.95Z"/></svg>