<svg xmlns="http://www.w3.org/2000/svg" height="24" viewBox="0 -960 960 960" width="24"><path d="M75.17-111.87q-19.15 0-31.94-13.17-12.8-13.18-12.8-32.33 0-17.48 11.15-29.7 11.14-12.21 27.66-14.13h1.52L106-729.54q2-33.44 26.2-56.01 24.19-22.58 57.63-22.58h255.28q33.43 0 57.63 22.58 24.19 22.57 26.19 56.01l36 526.67h155.55v-240.26q-52.72-14.72-86.48-57.91-33.76-43.2-33.76-100.39 0-34.72 13-64.7 13-29.98 36-52.7-4.76-11-6.64-22t-1.88-23q0-51.67 36.19-87.99 36.2-36.31 87.87-36.31 51.68 0 87.99 36.31 36.32 36.32 36.32 87.99 0 12-2 23t-6.76 22q23 22.72 36.12 52.7 13.12 29.98 13.12 64.7 0 57.19-33.89 100.39-33.88 43.19-86.59 57.91v240.26h74.74q19.15 0 32.32 13.17 13.18 13.18 13.18 32.33t-13.18 32.33q-13.17 13.17-32.32 13.17H75.17Zm84.96-91h315.44l-35-516.65h-30.09v359.56q12.28 4.2 20.06 15.32 7.79 11.12 7.79 25.12 0 18.67-12.82 31.49-12.81 12.81-31.49 12.81H241.91q-18.67 0-31.49-12.81-12.81-12.82-12.81-31.49 0-14 7.9-25.12 7.9-11.12 20.19-15.32v-359.56h-30.57l-35 516.65Zm130.35-160.96h55.22v-355.69h-55.22v355.69Z"/></svg>