<svg xmlns="http://www.w3.org/2000/svg" height="24" width="24"><path d="M17.025 18.9q-1.2 0-2.062-.862-.863-.863-.863-2.063 0-1.225.863-2.075.862-.85 2.062-.85 1.225 0 2.075.85.85.85.85 2.075 0 1.2-.85 2.063-.85.862-2.075.862Zm-.675-7.15V9.4h1.35v2.35Zm0 10.8V20.2h1.35v2.35Zm4.125-9.075-.95-.95 1.65-1.65.95.95Zm-7.6 7.6-.95-.925 1.65-1.675.95.95Zm8.375-4.425V15.3h2.35v1.35Zm-10.8 0V15.3h2.35v1.35Zm10.75 4.425-1.65-1.65.95-.95 1.65 1.65Zm-7.625-7.625-1.65-1.65.95-.95 1.65 1.65Zm-7.925 6q-.925 0-1.537-.613Q3.5 18.225 3.5 17.3V4.6q0-.925.613-1.538.612-.612 1.537-.612h1.2V.25H8.3v2.2h7.5V.25h1.35v2.2h1.2q.925 0 1.538.612.612.613.612 1.538v3.7H4.85v9q0 .3.25.55.25.25.55.25h3.7v1.35Zm-.8-12.5h14.3V4.6q0-.3-.25-.55-.25-.25-.55-.25H5.65q-.3 0-.55.25-.25.25-.25.55Zm0 0V3.8v3.15Z"/></svg>