<svg xmlns="http://www.w3.org/2000/svg" height="40" width="40"><path d="M3.833 10.792V3.042H5.625V7.417Q8.625 4.833 12.292 3.479Q15.958 2.125 19.958 2.125Q23.958 2.125 27.646 3.479Q31.333 4.833 34.375 7.417V3.042H36.167V10.792H28.5V9.042H33.583Q30.708 6.583 27.229 5.188Q23.75 3.792 19.958 3.792Q16.167 3.792 12.729 5.208Q9.292 6.625 6.375 9.042H11.458V10.792ZM17.583 37.5Q17.042 37.5 16.583 37.292Q16.125 37.083 15.75 36.708L7.708 28.667L9.5 26.833Q9.917 26.417 10.438 26.208Q10.958 26 11.542 26.125L15.833 27.125V12.5Q15.833 11.083 16.792 10.125Q17.75 9.167 19.167 9.167Q20.583 9.167 21.542 10.125Q22.5 11.083 22.5 12.5V20.5H23.833Q24.042 20.5 24.208 20.542Q24.375 20.583 24.542 20.667L30.333 23.25Q31.417 23.75 31.896 24.875Q32.375 26 32.167 27.208L30.75 35.458Q30.625 36.333 29.917 36.917Q29.208 37.5 28.292 37.5ZM17.417 35.417H28.625L30.167 26.542Q30.208 26.208 30.104 25.833Q30 25.458 29.625 25.292L23.042 22.292H20.417V12.5Q20.417 11.958 20.062 11.604Q19.708 11.25 19.167 11.25Q18.625 11.25 18.271 11.604Q17.917 11.958 17.917 12.5V29.667L11.125 28.208L10.667 28.667ZM17.417 35.417H17.917Q17.917 35.417 18.271 35.417Q18.625 35.417 19.167 35.417Q19.708 35.417 20.062 35.417Q20.417 35.417 20.417 35.417H23.042H28.583Q28.583 35.417 28.583 35.417Q28.583 35.417 28.583 35.417Z"/></svg>