<svg xmlns="http://www.w3.org/2000/svg" height="24" width="24"><path d="M4.3 20.25Q3.25 20.25 2.513 19.512Q1.775 18.775 1.775 17.725V6.275Q1.775 5.225 2.513 4.487Q3.25 3.75 4.3 3.75H19.7Q20.75 3.75 21.488 4.487Q22.225 5.225 22.225 6.275V17.725Q22.225 18.775 21.488 19.512Q20.75 20.25 19.7 20.25ZM6.6 15.125H7.85V9.05H6.825L5.05 10.35L5.7 11.275L6.6 10.625ZM9.65 15.125H13.475V14.05H11.2L11.175 14Q11.75 13.45 12.062 13.125Q12.375 12.8 12.6 12.575Q13.075 12.025 13.288 11.625Q13.5 11.225 13.5 10.8Q13.5 10.025 12.913 9.525Q12.325 9.025 11.45 9.025Q10.85 9.025 10.312 9.4Q9.775 9.775 9.55 10.35L10.625 10.775Q10.725 10.5 10.95 10.325Q11.175 10.15 11.45 10.15Q11.8 10.15 12.013 10.35Q12.225 10.55 12.225 10.85Q12.225 11.125 12.113 11.363Q12 11.6 11.725 11.875Q11.4 12.2 10.925 12.675Q10.45 13.15 9.65 13.95ZM16.925 15.15Q17.825 15.15 18.413 14.625Q19 14.1 19 13.3Q19 12.825 18.7 12.462Q18.4 12.1 17.925 11.95V11.875Q18.3 11.775 18.55 11.425Q18.8 11.075 18.8 10.65Q18.8 9.975 18.238 9.5Q17.675 9.025 16.85 9.025Q16.275 9.025 15.725 9.375Q15.175 9.725 15 10.25L16.05 10.725Q16.15 10.425 16.35 10.287Q16.55 10.15 16.85 10.15Q17.15 10.15 17.35 10.337Q17.55 10.525 17.55 10.8Q17.55 11.1 17.337 11.287Q17.125 11.475 16.775 11.475H16.3V12.525H16.775Q17.25 12.525 17.5 12.725Q17.75 12.925 17.75 13.275Q17.75 13.6 17.513 13.825Q17.275 14.05 16.925 14.05Q16.5 14.05 16.263 13.875Q16.025 13.7 15.875 13.25L14.925 13.625Q15.125 14.35 15.65 14.75Q16.175 15.15 16.925 15.15ZM4.3 17.725H19.7Q19.7 17.725 19.7 17.725Q19.7 17.725 19.7 17.725V6.275Q19.7 6.275 19.7 6.275Q19.7 6.275 19.7 6.275H4.3Q4.3 6.275 4.3 6.275Q4.3 6.275 4.3 6.275V17.725Q4.3 17.725 4.3 17.725Q4.3 17.725 4.3 17.725ZM4.3 17.725Q4.3 17.725 4.3 17.725Q4.3 17.725 4.3 17.725V6.275Q4.3 6.275 4.3 6.275Q4.3 6.275 4.3 6.275H19.7Q19.7 6.275 19.7 6.275Q19.7 6.275 19.7 6.275V17.725Q19.7 17.725 19.7 17.725Q19.7 17.725 19.7 17.725Z"/></svg>