<svg xmlns="http://www.w3.org/2000/svg" height="40" width="40"><path d="M4.042 34V9.458H12.042L15.083 6H24.875V11.458H6.042V32H33.333V13.167H35.292V34ZM34.333 11.5Q34.333 8.25 32.083 5.958Q29.833 3.667 26.542 3.667V2.083Q30.458 2.083 33.229 4.833Q36 7.583 36 11.5ZM30.417 11.5Q30.417 9.875 29.292 8.75Q28.167 7.625 26.542 7.625V5.958Q28.833 5.958 30.438 7.583Q32.042 9.208 32.042 11.5ZM19.667 21.708Q19.667 21.708 19.667 21.708Q19.667 21.708 19.667 21.708ZM19.667 28.25Q22.458 28.25 24.333 26.375Q26.208 24.5 26.208 21.708Q26.208 18.958 24.333 17.083Q22.458 15.208 19.667 15.208Q16.875 15.208 15 17.083Q13.125 18.958 13.125 21.708Q13.125 24.5 15 26.375Q16.875 28.25 19.667 28.25Z"/></svg>