<svg xmlns="http://www.w3.org/2000/svg" version="1.1" width="3300" height="2000"><g id="Notes"><style>
    text {
      font-family: monospace;
      text-anchor: middle;
    }
    text.emphasis {
      font-weight:bold;
    }
    text.lanchor {
      text-anchor: start;
    }
  </style><rect height="2200" id="artboard" fill="white" width="3300" x="0" y="0"/><line id="" style="fill:none;stroke:black;stroke-width:0.5;" x1="263" x2="3036" y1="292" y2="292"/><text class="lanchor emphasis" transform="matrix(1 0 0 1 263 322)">Weight/Scale Variations</text><text transform="matrix(1 0 0 1 559.711 322)">Ultralight</text><text transform="matrix(1 0 0 1 856.422 322)">Thin</text><text transform="matrix(1 0 0 1 1153.13 322)">Light</text><text transform="matrix(1 0 0 1 1449.84 322)">Regular</text><text transform="matrix(1 0 0 1 1746.56 322)">Medium</text><text transform="matrix(1 0 0 1 2043.27 322)">Semibold</text><text transform="matrix(1 0 0 1 2339.98 322)">Bold</text><text transform="matrix(1 0 0 1 2636.69 322)">Heavy</text><text transform="matrix(1 0 0 1 2933.4 322)">Black</text><text id="template-version" style="text-anchor: end;" transform="matrix(1 0 0 1 3036 1933)">Template v.1.0</text><text class="lanchor" transform="matrix(1 0 0 1 263 726)">Small</text><text class="lanchor" transform="matrix(1 0 0 1 263 1156)">Medium</text><text class="lanchor" transform="matrix(1 0 0 1 263 1586)">Large</text></g><g id="Guides"><g id="H-reference" style="fill:#27AAE1;stroke:none;" transform="matrix(1 0 0 1 339 696)"><path d="M 54.9316 0 L 57.666 0 L 30.5664 -70.459 L 28.0762 -70.459 L 0.976562 0 L 3.66211 0 L 12.9395 -24.4629 L 45.7031 -24.4629 Z M 29.1992 -67.0898 L 29.4434 -67.0898 L 44.8242 -26.709 L 13.8184 -26.709 Z"/></g><line id="Baseline-S" style="fill:none;stroke:#27AAE1;opacity:1;stroke-width:0.577;" x1="263" x2="3036" y1="696" y2="696"/><line id="Capline-S" style="fill:none;stroke:#27AAE1;opacity:1;stroke-width:0.577;" x1="263" x2="3036" y1="625.541" y2="625.541"/><g id="H-reference" style="fill:#27AAE1;stroke:none;" transform="matrix(1 0 0 1 339 1126)"><path d="M 54.9316 0 L 57.666 0 L 30.5664 -70.459 L 28.0762 -70.459 L 0.976562 0 L 3.66211 0 L 12.9395 -24.4629 L 45.7031 -24.4629 Z M 29.1992 -67.0898 L 29.4434 -67.0898 L 44.8242 -26.709 L 13.8184 -26.709 Z"/></g><line id="Baseline-M" style="fill:none;stroke:#27AAE1;opacity:1;stroke-width:0.577;" x1="263" x2="3036" y1="1126" y2="1126"/><line id="Capline-M" style="fill:none;stroke:#27AAE1;opacity:1;stroke-width:0.577;" x1="263" x2="3036" y1="1055.54" y2="1055.54"/><g id="H-reference" style="fill:#27AAE1;stroke:none;" transform="matrix(1 0 0 1 339 1556)"><path d="M 54.9316 0 L 57.666 0 L 30.5664 -70.459 L 28.0762 -70.459 L 0.976562 0 L 3.66211 0 L 12.9395 -24.4629 L 45.7031 -24.4629 Z M 29.1992 -67.0898 L 29.4434 -67.0898 L 44.8242 -26.709 L 13.8184 -26.709 Z"/></g><line id="Baseline-L" style="fill:none;stroke:#27AAE1;opacity:1;stroke-width:0.577;" x1="263" x2="3036" y1="1556" y2="1556"/><line id="Capline-L" style="fill:none;stroke:#27AAE1;opacity:1;stroke-width:0.577;" x1="263" x2="3036" y1="1485.54" y2="1485.54"/><rect height="119.336" id="left-margin" style="fill:darkred;stroke:none;opacity:0.4;" width="12.4512" x="1394.06" y="1030.79"/><rect height="119.336" id="right-margin" style="fill:darkgreen;stroke:none;opacity:0.4;" width="12.4512" x="1502.5112" y="1030.79"/><rect x="1406.5112" y="1045" width="96" height="96" fill="none" stroke="blue" stroke-dasharray="5"/><rect x="1394.06" y="1030.79" width="120.9024" height="119.336" fill="none" stroke="blue"/></g><g id="Symbols"><g id="Bold-L" transform="matrix(1 0 0 1 2266 1556)"><path d="M9.675 26.045 V-82.718 H44.599 L57.808 -96.666 H96.992 L110.363 -82.718 H145.286 V26.045 H9.675 Z M24.429 11.291 H130.371 V-67.802 H104.135 L91.148 -81.751 H64.016 L50.391 -67.802 H24.429 V11.291 Z M77.4 4.196 Q90.945 4.196 99.969 -5.842 Q108.992 -15.88 109.811 -29.667 L116.019 -23.378 L121.583 -28.861 L105.699 -44.502 L90.058 -28.861 L95.621 -23.378 L102.152 -29.909 Q101.181 -19.255 94.388 -11.439 Q87.594 -3.625 77.406 -3.625 Q75.223 -3.625 73.046 -3.907 Q70.869 -4.189 68.963 -5.157 L63.129 0.406 Q66.354 2.341 69.983 3.268 Q73.611 4.196 77.4 4.196 Z M49.423 -12.01  65.064 -27.651  59.501 -33.134  52.971 -26.603 Q53.941 -37.257 60.735 -45.073 Q67.528 -52.887 77.716 -52.887 Q79.899 -52.887 82.076 -52.605 Q84.253 -52.322 86.159 -51.355 L91.993 -56.918 Q88.768 -58.853 85.14 -59.78 Q81.512 -60.707 77.722 -60.707 Q64.177 -60.707 55.154 -50.67 Q46.13 -40.632 45.311 -26.845 L39.103 -33.134 L33.54 -27.651 L49.423 -12.01 Z"/></g><g id="Semibold-L" transform="matrix(1 0 0 1 1970.27 1556)"><path d="M11.428 24.292 V-80.896 H45.51 L58.018 -94.844 H96.782 L109.382 -80.896 H143.464 V24.292 H11.428 Z M23.799 11.921 H131.001 V-68.433 H103.995 L91.569 -82.381 H63.455 L50.671 -68.433 H23.799 V11.921 Z M77.4 4.196 Q90.945 4.196 99.969 -5.842 Q108.992 -15.88 109.811 -29.667 L116.019 -23.378 L121.583 -28.861 L105.699 -44.502 L90.058 -28.861 L95.621 -23.378 L102.152 -29.909 Q101.181 -19.255 94.388 -11.439 Q87.594 -3.625 77.406 -3.625 Q75.223 -3.625 73.046 -3.907 Q70.869 -4.189 68.963 -5.157 L63.129 0.406 Q66.354 2.341 69.983 3.268 Q73.611 4.196 77.4 4.196 Z M49.423 -12.01  65.064 -27.651  59.501 -33.134  52.971 -26.603 Q53.941 -37.257 60.735 -45.073 Q67.528 -52.887 77.716 -52.887 Q79.899 -52.887 82.076 -52.605 Q84.253 -52.322 86.159 -51.355 L91.993 -56.918 Q88.768 -58.853 85.14 -59.78 Q81.512 -60.707 77.722 -60.707 Q64.177 -60.707 55.154 -50.67 Q46.13 -40.632 45.311 -26.845 L39.103 -33.134 L33.54 -27.651 L49.423 -12.01 Z"/></g><g id="Medium-L" transform="matrix(1 0 0 1 1674.31 1556)"><path d="M12.742 22.978 V-79.529 H46.193 L58.176 -93.477 H96.624 L108.645 -79.529 H142.097 V22.978 H12.742 Z M23.325 12.395 H131.475 V-68.907 H103.89 L91.883 -82.855 H63.034 L50.881 -68.907 H23.325 V12.395 Z M77.4 4.196 Q90.945 4.196 99.969 -5.842 Q108.992 -15.88 109.811 -29.667 L116.019 -23.378 L121.583 -28.861 L105.699 -44.502 L90.058 -28.861 L95.621 -23.378 L102.152 -29.909 Q101.181 -19.255 94.388 -11.439 Q87.594 -3.625 77.406 -3.625 Q75.223 -3.625 73.046 -3.907 Q70.869 -4.189 68.963 -5.157 L63.129 0.406 Q66.354 2.341 69.983 3.268 Q73.611 4.196 77.4 4.196 Z M49.423 -12.01  65.064 -27.651  59.501 -33.134  52.971 -26.603 Q53.941 -37.257 60.735 -45.073 Q67.528 -52.887 77.716 -52.887 Q79.899 -52.887 82.076 -52.605 Q84.253 -52.322 86.159 -51.355 L91.993 -56.918 Q88.768 -58.853 85.14 -59.78 Q81.512 -60.707 77.722 -60.707 Q64.177 -60.707 55.154 -50.67 Q46.13 -40.632 45.311 -26.845 L39.103 -33.134 L33.54 -27.651 L49.423 -12.01 Z"/></g><g id="Regular-L" transform="matrix(1 0 0 1 1378.56 1556)"><path d="M13.706 22.014 V-78.526 H46.695 L58.292 -92.474 H96.508 L108.105 -78.526 H141.094 V22.014 H13.706 Z M22.978 12.742 H131.822 V-69.254 H103.813 L92.116 -83.202 H62.726 L51.036 -69.254 H22.978 V12.742 Z M77.4 4.196 Q90.945 4.196 99.969 -5.842 Q108.992 -15.88 109.811 -29.667 L116.019 -23.378 L121.583 -28.861 L105.699 -44.502 L90.058 -28.861 L95.621 -23.378 L102.152 -29.909 Q101.181 -19.255 94.388 -11.439 Q87.594 -3.625 77.406 -3.625 Q75.223 -3.625 73.046 -3.907 Q70.869 -4.189 68.963 -5.157 L63.129 0.406 Q66.354 2.341 69.983 3.268 Q73.611 4.196 77.4 4.196 Z M49.423 -12.01  65.064 -27.651  59.501 -33.134  52.971 -26.603 Q53.941 -37.257 60.735 -45.073 Q67.528 -52.887 77.716 -52.887 Q79.899 -52.887 82.076 -52.605 Q84.253 -52.322 86.159 -51.355 L91.993 -56.918 Q88.768 -58.853 85.14 -59.78 Q81.512 -60.707 77.722 -60.707 Q64.177 -60.707 55.154 -50.67 Q46.13 -40.632 45.311 -26.845 L39.103 -33.134 L33.54 -27.651 L49.423 -12.01 Z"/></g><g id="Light-L" transform="matrix(1 0 0 1 1082.77 1556)"><path d="M16.622 19.098 V-75.92 H47.846 L59.564 -89.558 H95.236 L106.954 -75.92 H138.178 V19.098 H16.622 Z M23.691 12.029 H131.109 V-68.851 H103.708 L91.914 -82.489 H62.944 L51.129 -68.851 H23.691 V12.029 Z M77.4 3.048 Q90.727 3.048 99.424 -7.114 Q108.12 -17.275 108.757 -31 L115.555 -24.339 L120.094 -28.83 L105.482 -43.292 L91.019 -28.83 L95.621 -24.339 L102.494 -31.212 Q101.646 -20.087 94.812 -11.7 Q87.978 -3.315 77.406 -3.315 Q75.317 -3.315 73.248 -3.612 Q71.179 -3.91 69.315 -4.754 L64.463 -0.09 Q67.47 1.504 70.727 2.277 Q73.983 3.048 77.4 3.048 Z M49.578 -13.498  63.979 -27.961  59.44 -32.452  52.568 -25.579 Q53.416 -36.704 60.217 -45.09 Q67.02 -53.475 77.653 -53.475 Q79.745 -53.475 81.781 -53.148 Q83.819 -52.819 85.745 -52.037 L90.535 -56.7 Q87.528 -58.295 84.303 -59.068 Q81.078 -59.838 77.661 -59.838 Q64.332 -59.838 55.638 -49.678 Q46.941 -39.516 46.303 -25.79 L39.506 -32.452 L34.967 -27.961 L49.578 -13.498 Z"/></g><g id="Thin-L" transform="matrix(1 0 0 1 787.282 1556)"><path d="M19.535 16.185 V-73.316 H48.997 L60.835 -86.645 H93.965 L105.803 -73.316 H135.265 V16.185 H19.535 Z M24.405 11.315 H130.395 V-68.447 H103.602 L91.714 -81.775 H63.16 L51.221 -68.447 H24.405 V11.315 Z M77.4 1.901 Q90.511 1.901 98.879 -8.385 Q107.247 -18.671 107.702 -32.334 L115.089 -25.3 L118.606 -28.799 L105.266 -42.083 L91.98 -28.799 L95.621 -25.3 L102.834 -32.513 Q102.108 -20.921 95.236 -11.963 Q88.363 -3.004 77.406 -3.004 Q75.409 -3.004 73.449 -3.319 Q71.49 -3.631 69.668 -4.351 L65.796 -0.585 Q68.588 0.667 71.471 1.283 Q74.356 1.901 77.4 1.901 Z M49.733 -14.987  62.894 -28.272  59.377 -31.77  52.164 -24.557 Q52.89 -36.151 59.701 -45.108 Q66.511 -54.066 77.592 -54.066 Q79.59 -54.066 81.488 -53.69 Q83.386 -53.314 85.33 -52.719 L89.078 -56.484 Q86.288 -57.737 83.466 -58.353 Q80.644 -58.971 77.598 -58.971 Q64.487 -58.971 56.12 -48.685 Q47.751 -38.399 47.296 -24.736 L39.909 -31.77 L36.393 -28.272 L49.733 -14.987 Z"/></g><g id="Ultralight-L" transform="matrix(1 0 0 1 491.205 1556)"><path d="M21.285 14.435 V-71.753 H49.689 L61.598 -84.895 H93.203 L105.111 -71.753 H133.515 V14.435 H21.285 Z M24.832 10.888 H129.968 V-68.206 H103.539 L91.593 -81.347 H63.291 L51.278 -68.206 H24.832 V10.888 Z M77.4 1.213 Q90.381 1.213 98.553 -9.148 Q106.723 -19.508 107.07 -33.134 L114.81 -25.877 L117.713 -28.78 L105.135 -41.357 L92.558 -28.78 L95.621 -25.877 L103.039 -33.295 Q102.387 -21.419 95.491 -12.12 Q88.594 -2.819 77.406 -2.819 Q75.465 -2.819 73.57 -3.141 Q71.676 -3.464 69.879 -4.109 L66.596 -0.884 Q69.257 0.164 71.918 0.688 Q74.578 1.213 77.4 1.213 Z M49.826 -15.88  62.242 -28.457  59.34 -31.36  51.922 -23.942 Q52.574 -35.819 59.39 -45.118 Q66.206 -54.419 77.555 -54.419 Q79.496 -54.419 81.31 -54.016 Q83.124 -53.612 85.082 -53.129 L88.204 -56.354 Q85.543 -57.402 82.963 -57.926 Q80.383 -58.45 77.561 -58.45 Q64.581 -58.45 56.408 -48.09 Q48.238 -37.729 47.891 -24.104 L40.151 -31.36 L37.249 -28.457 L49.826 -15.88 Z"/></g><g id="Bold-M" transform="matrix(1 0 0 1 2281.8 1126)"><path d="M7 12.77 V-73.292 H34.125 L44.875 -83.23 H75.125 L85.875 -73.292 H113 V12.77 H7 Z M22.125 -2.355 H97.875 V-58.167 H79.812 L69.438 -68.105 H50.938 L39.875 -58.167 H22.125 V-2.355 Z M60 -5.855 Q69.75 -5.855 76.688 -12.574 Q83.625 -19.292 84.25 -29.105 L88.125 -25.355 L93 -30.355 L80.875 -42.355 L68.875 -30.355 L73.75 -25.355 L77.125 -28.73 Q76.375 -22.042 71.562 -17.511 Q66.75 -12.98 60 -12.98 Q58.438 -12.98 56.875 -13.23 Q55.312 -13.48 53.875 -14.105 L48.625 -8.98 Q51.25 -7.542 54.125 -6.699 Q57 -5.855 60 -5.855 Z M39.125 -18.23  51.125 -30.23  46.25 -35.23  42.875 -31.855 Q43.625 -38.542 48.438 -43.074 Q53.25 -47.605 60 -47.605 Q61.562 -47.605 63.125 -47.355 Q64.688 -47.105 66.125 -46.48 L71.375 -51.605 Q68.75 -53.042 65.875 -53.886 Q63 -54.73 60 -54.73 Q50.25 -54.73 43.312 -48.011 Q36.375 -41.292 35.75 -31.48 L31.875 -35.23 L27 -30.23 L39.125 -18.23 Z"/></g><g id="Semibold-M" transform="matrix(1 0 0 1 1985.97 1126)"><path d="M8.848 10.923 V-71.445 H35.104 L45.093 -81.382 H74.907 L84.896 -71.445 H111.153 V10.923 H8.848 Z M21.473 -1.702 H98.528 V-58.82 H79.65 L69.873 -68.757 H50.34 L40.201 -58.82 H21.473 V-1.702 Z M60 -5.855 Q69.75 -5.855 76.688 -12.574 Q83.625 -19.292 84.25 -29.105 L88.125 -25.355 L93 -30.355 L80.875 -42.355 L68.875 -30.355 L73.75 -25.355 L77.125 -28.73 Q76.375 -22.042 71.562 -17.511 Q66.75 -12.98 60 -12.98 Q58.438 -12.98 56.875 -13.23 Q55.312 -13.48 53.875 -14.105 L48.625 -8.98 Q51.25 -7.542 54.125 -6.699 Q57 -5.855 60 -5.855 Z M39.125 -18.23  51.125 -30.23  46.25 -35.23  42.875 -31.855 Q43.625 -38.542 48.438 -43.074 Q53.25 -47.605 60 -47.605 Q61.562 -47.605 63.125 -47.355 Q64.688 -47.105 66.125 -46.48 L71.375 -51.605 Q68.75 -53.042 65.875 -53.886 Q63 -54.73 60 -54.73 Q50.25 -54.73 43.312 -48.011 Q36.375 -41.292 35.75 -31.48 L31.875 -35.23 L27 -30.23 L39.125 -18.23 Z"/></g><g id="Medium-M" transform="matrix(1 0 0 1 1689.91 1126)"><path d="M10.234 9.536 V-70.059 H35.837 L45.255 -79.996 H74.745 L84.162 -70.059 H109.766 V9.536 H10.234 Z M20.984 -1.214 H99.016 V-59.309 H79.528 L70.199 -69.246 H49.891 L40.446 -59.309 H20.984 V-1.214 Z M60 -5.855 Q69.75 -5.855 76.688 -12.574 Q83.625 -19.292 84.25 -29.105 L88.125 -25.355 L93 -30.355 L80.875 -42.355 L68.875 -30.355 L73.75 -25.355 L77.125 -28.73 Q76.375 -22.042 71.562 -17.511 Q66.75 -12.98 60 -12.98 Q58.438 -12.98 56.875 -13.23 Q55.312 -13.48 53.875 -14.105 L48.625 -8.98 Q51.25 -7.542 54.125 -6.699 Q57 -5.855 60 -5.855 Z M39.125 -18.23  51.125 -30.23  46.25 -35.23  42.875 -31.855 Q43.625 -38.542 48.438 -43.074 Q53.25 -47.605 60 -47.605 Q61.562 -47.605 63.125 -47.355 Q64.688 -47.105 66.125 -46.48 L71.375 -51.605 Q68.75 -53.042 65.875 -53.886 Q63 -54.73 60 -54.73 Q50.25 -54.73 43.312 -48.011 Q36.375 -41.292 35.75 -31.48 L31.875 -35.23 L27 -30.23 L39.125 -18.23 Z"/></g><g id="Regular-M" transform="matrix(1 0 0 1 1394.06 1126)"><path d="M11.25 8.52 V-69.042 H36.375 L45.375 -78.98 H74.625 L83.625 -69.042 H108.75 V8.52 H11.25 Z M20.625 -0.855 H99.375 V-59.667 H79.438 L70.438 -69.605 H49.562 L40.625 -59.667 H20.625 V-0.855 Z M60 -5.855 Q69.75 -5.855 76.688 -12.574 Q83.625 -19.292 84.25 -29.105 L88.125 -25.355 L93 -30.355 L80.875 -42.355 L68.875 -30.355 L73.75 -25.355 L77.125 -28.73 Q76.375 -22.042 71.562 -17.511 Q66.75 -12.98 60 -12.98 Q58.438 -12.98 56.875 -13.23 Q55.312 -13.48 53.875 -14.105 L48.625 -8.98 Q51.25 -7.542 54.125 -6.699 Q57 -5.855 60 -5.855 Z M39.125 -18.23  51.125 -30.23  46.25 -35.23  42.875 -31.855 Q43.625 -38.542 48.438 -43.074 Q53.25 -47.605 60 -47.605 Q61.562 -47.605 63.125 -47.355 Q64.688 -47.105 66.125 -46.48 L71.375 -51.605 Q68.75 -53.042 65.875 -53.886 Q63 -54.73 60 -54.73 Q50.25 -54.73 43.312 -48.011 Q36.375 -41.292 35.75 -31.48 L31.875 -35.23 L27 -30.23 L39.125 -18.23 Z"/></g><g id="Light-M" transform="matrix(1 0 0 1 1098.18 1126)"><path d="M13.51 6.26 V-66.782 H37.316 L46.361 -76.72 H73.639 L82.684 -66.782 H106.49 V6.26 H13.51 Z M20.505 -0.735 H99.495 V-59.787 H79.596 L70.522 -69.725 H49.49 L40.456 -59.787 H20.505 V-0.735 Z M60 -6.504 Q69.774 -6.504 76.434 -13.607 Q83.093 -20.711 83.576 -30.716 L88.198 -26.341 L92.086 -30.331 L80.948 -41.369 L69.909 -30.331 L73.797 -26.341 L77.919 -30.461 Q77.264 -22.929 72.3 -17.545 Q67.336 -12.162 60 -12.162 Q58.461 -12.162 56.959 -12.425 Q55.456 -12.686 54.051 -13.215 L49.803 -9.076 Q52.211 -7.902 54.774 -7.204 Q57.336 -6.504 60 -6.504 Z M39.053 -19.191  50.091 -30.23  46.203 -34.22  42.081 -30.1 Q42.736 -37.632 47.7 -43.015 Q52.664 -48.399 60 -48.399 Q61.539 -48.399 63.041 -48.136 Q64.544 -47.874 65.949 -47.345 L70.198 -51.485 Q67.789 -52.657 65.226 -53.357 Q62.664 -54.056 60 -54.056 Q50.226 -54.056 43.566 -46.954 Q36.907 -39.85 36.424 -29.845 L31.802 -34.22 L27.914 -30.23 L39.053 -19.191 Z"/></g><g id="Thin-M" transform="matrix(1 0 0 1 802.565 1126)"><path d="M15.769 4.001 V-64.524 H38.258 L47.346 -74.461 H72.654 L81.743 -64.524 H104.231 V4.001 H15.769 Z M20.385 -0.615 H99.615 V-59.907 H79.755 L70.606 -69.845 H49.419 L40.289 -59.907 H20.385 V-0.615 Z M60 -7.152 Q69.797 -7.152 76.18 -14.641 Q82.561 -22.129 82.904 -32.326 L88.269 -27.326 L91.172 -30.307 L81.019 -40.384 L70.942 -30.307 L73.846 -27.326 L78.711 -32.191 Q78.151 -23.814 73.037 -17.58 Q67.922 -11.345 60 -11.345 Q58.485 -11.345 57.044 -11.62 Q55.601 -11.894 54.229 -12.326 L50.981 -9.172 Q53.172 -8.264 55.422 -7.709 Q57.672 -7.152 60 -7.152 Z M38.981 -20.152  49.057 -30.23  46.154 -33.211  41.289 -28.345 Q41.849 -36.722 46.962 -42.957 Q52.078 -49.191 60 -49.191 Q61.515 -49.191 62.956 -48.917 Q64.399 -48.644 65.771 -48.211 L69.019 -51.365 Q66.828 -52.274 64.578 -52.829 Q62.328 -53.384 60 -53.384 Q50.203 -53.384 43.82 -45.896 Q37.439 -38.407 37.096 -28.211 L31.731 -33.211 L28.828 -30.23 L38.981 -20.152 Z"/></g><g id="Ultralight-M" transform="matrix(1 0 0 1 506.415 1126)"><path d="M17.125 2.645 V-63.167 H38.822 L47.938 -73.105 H72.062 L81.177 -63.167 H102.875 V2.645 H17.125 Z M20.312 -0.542 H99.688 V-59.98 H79.85 L70.657 -69.917 H49.375 L40.188 -59.98 H20.312 V-0.542 Z M60 -7.542 Q69.812 -7.542 76.028 -15.261 Q82.243 -22.98 82.5 -33.292 L88.312 -27.917 L90.625 -30.292 L81.062 -39.792 L71.562 -30.292 L73.875 -27.917 L79.188 -33.23 Q78.685 -24.346 73.48 -17.6 Q68.275 -10.855 60 -10.855 Q58.5 -10.855 57.094 -11.136 Q55.688 -11.417 54.335 -11.792 L51.688 -9.23 Q53.75 -8.48 55.812 -8.011 Q57.875 -7.542 60 -7.542 Z M38.938 -20.73  48.438 -30.23  46.125 -32.605  40.812 -27.292 Q41.315 -36.176 46.52 -42.922 Q51.725 -49.667 60 -49.667 Q61.5 -49.667 62.906 -49.386 Q64.312 -49.105 65.665 -48.73 L68.312 -51.292 Q66.25 -52.042 64.188 -52.511 Q62.125 -52.98 60 -52.98 Q50.188 -52.98 43.972 -45.261 Q37.758 -37.542 37.5 -27.23 L31.688 -32.605 L29.375 -30.23 L38.938 -20.73 Z"/></g><g id="Bold-S" transform="matrix(1 0 0 1 2294.23 696)"><path d="M7.101 0.275 V-61.316 H27.122 L35.406 -70.735 H59.274 L67.558 -61.316 H87.579 V0.275 H7.101 Z M18.246 -10.87 H76.434 V-50.172 H62.775 L54.688 -59.59 H40.288 L31.659 -50.172 H18.246 V-10.87 Z M47.34 -14.42 Q54.244 -14.42 58.978 -19.425 Q63.712 -24.431 63.515 -31.384 L67.361 -27.439 L70.418 -30.595 L61.246 -39.668 L52.173 -30.595 L55.23 -27.439 L59.076 -31.285 Q59.274 -26.206 55.822 -22.532 Q52.37 -18.858 47.34 -18.858 Q45.91 -18.858 44.529 -19.203 Q43.148 -19.549 41.817 -20.239 L38.562 -17.083 Q40.436 -15.752 42.705 -15.086 Q44.973 -14.42 47.34 -14.42 Z M33.434 -21.422  42.507 -30.496  39.45 -33.652  35.604 -29.806 Q35.406 -34.885 38.858 -38.559 Q42.31 -42.232 47.34 -42.232 Q48.77 -42.232 50.151 -41.887 Q51.532 -41.542 52.863 -40.852 L56.118 -44.008 Q54.244 -45.339 51.975 -46.005 Q49.707 -46.67 47.34 -46.67 Q40.338 -46.67 35.653 -41.665 Q30.968 -36.66 31.166 -29.707 L27.319 -33.652 L24.262 -30.496 L33.434 -21.422 Z"/></g><g id="Semibold-S" transform="matrix(1 0 0 1 1998.1 696)"><path d="M8.559 -1.183 V-59.859 H27.894 L35.578 -69.277 H59.102 L66.786 -59.859 H86.121 V-1.183 H8.559 Z M17.731 -10.355 H76.949 V-50.687 H62.647 L55.031 -60.105 H39.817 L31.916 -50.687 H17.731 V-10.355 Z M47.34 -14.42 Q54.244 -14.42 58.978 -19.425 Q63.712 -24.431 63.515 -31.384 L67.361 -27.439 L70.418 -30.595 L61.246 -39.668 L52.173 -30.595 L55.23 -27.439 L59.076 -31.285 Q59.274 -26.206 55.822 -22.532 Q52.37 -18.858 47.34 -18.858 Q45.91 -18.858 44.529 -19.203 Q43.148 -19.549 41.817 -20.239 L38.562 -17.083 Q40.436 -15.752 42.705 -15.086 Q44.973 -14.42 47.34 -14.42 Z M33.434 -21.422  42.507 -30.496  39.45 -33.652  35.604 -29.806 Q35.406 -34.885 38.858 -38.559 Q42.31 -42.232 47.34 -42.232 Q48.77 -42.232 50.151 -41.887 Q51.532 -41.542 52.863 -40.852 L56.118 -44.008 Q54.244 -45.339 51.975 -46.005 Q49.707 -46.67 47.34 -46.67 Q40.338 -46.67 35.653 -41.665 Q30.968 -36.66 31.166 -29.707 L27.319 -33.652 L24.262 -30.496 L33.434 -21.422 Z"/></g><g id="Medium-S" transform="matrix(1 0 0 1 1701.85 696)"><path d="M9.652 -2.276 V-58.765 H28.473 L35.706 -68.184 H58.974 L66.207 -58.765 H85.028 V-2.276 H9.652 Z M17.345 -9.969 H77.335 V-51.072 H62.55 L55.288 -60.491 H39.463 L32.109 -51.072 H17.345 V-9.969 Z M47.34 -14.42 Q54.244 -14.42 58.978 -19.425 Q63.712 -24.431 63.515 -31.384 L67.361 -27.439 L70.418 -30.595 L61.246 -39.668 L52.173 -30.595 L55.23 -27.439 L59.076 -31.285 Q59.274 -26.206 55.822 -22.532 Q52.37 -18.858 47.34 -18.858 Q45.91 -18.858 44.529 -19.203 Q43.148 -19.549 41.817 -20.239 L38.562 -17.083 Q40.436 -15.752 42.705 -15.086 Q44.973 -14.42 47.34 -14.42 Z M33.434 -21.422  42.507 -30.496  39.45 -33.652  35.604 -29.806 Q35.406 -34.885 38.858 -38.559 Q42.31 -42.232 47.34 -42.232 Q48.77 -42.232 50.151 -41.887 Q51.532 -41.542 52.863 -40.852 L56.118 -44.008 Q54.244 -45.339 51.975 -46.005 Q49.707 -46.67 47.34 -46.67 Q40.338 -46.67 35.653 -41.665 Q30.968 -36.66 31.166 -29.707 L27.319 -33.652 L24.262 -30.496 L33.434 -21.422 Z"/></g><g id="Regular-S" transform="matrix(1 0 0 1 1405.73 696)"><path d="M10.454 -3.078 V-57.963 H28.897 L35.801 -67.382 H58.879 L65.783 -57.963 H84.226 V-3.078 H10.454 Z M17.062 -9.686 H77.618 V-51.355 H62.479 L55.477 -60.774 H39.203 L32.25 -51.355 H17.062 V-9.686 Z M47.34 -14.42 Q54.244 -14.42 58.978 -19.425 Q63.712 -24.431 63.515 -31.384 L67.361 -27.439 L70.418 -30.595 L61.246 -39.668 L52.173 -30.595 L55.23 -27.439 L59.076 -31.285 Q59.274 -26.206 55.822 -22.532 Q52.37 -18.858 47.34 -18.858 Q45.91 -18.858 44.529 -19.203 Q43.148 -19.549 41.817 -20.239 L38.562 -17.083 Q40.436 -15.752 42.705 -15.086 Q44.973 -14.42 47.34 -14.42 Z M33.434 -21.422  42.507 -30.496  39.45 -33.652  35.604 -29.806 Q35.406 -34.885 38.858 -38.559 Q42.31 -42.232 47.34 -42.232 Q48.77 -42.232 50.151 -41.887 Q51.532 -41.542 52.863 -40.852 L56.118 -44.008 Q54.244 -45.339 51.975 -46.005 Q49.707 -46.67 47.34 -46.67 Q40.338 -46.67 35.653 -41.665 Q30.968 -36.66 31.166 -29.707 L27.319 -33.652 L24.262 -30.496 L33.434 -21.422 Z"/></g><g id="Light-S" transform="matrix(1 0 0 1 1109.75 696)"><path d="M12.237 -4.861 V-56.18 H29.64 L36.579 -65.599 H58.101 L65.04 -56.18 H82.443 V-4.861 H12.237 Z M16.967 -9.591 H77.713 V-51.45 H62.604 L55.544 -60.869 H39.146 L32.117 -51.45 H16.967 V-9.591 Z M47.34 -14.932 Q54.262 -14.932 58.778 -20.241 Q63.292 -25.55 62.983 -32.655 L67.418 -28.217 L69.697 -30.576 L61.303 -38.89 L52.988 -30.576 L55.267 -28.217 L59.703 -32.651 Q59.975 -26.905 56.404 -22.559 Q52.832 -18.213 47.34 -18.213 Q45.929 -18.213 44.595 -18.568 Q43.262 -18.922 41.956 -19.537 L39.491 -17.159 Q41.195 -16.036 43.216 -15.484 Q45.238 -14.932 47.34 -14.932 Z M33.377 -22.181  41.692 -30.496  39.413 -32.855  34.977 -28.421 Q34.705 -34.167 38.276 -38.512 Q41.848 -42.859 47.34 -42.859 Q48.751 -42.859 50.085 -42.504 Q51.418 -42.149 52.724 -41.534 L55.189 -43.913 Q53.485 -45.035 51.464 -45.588 Q49.442 -46.139 47.34 -46.139 Q40.319 -46.139 35.853 -40.831 Q31.388 -35.522 31.697 -28.417 L27.262 -32.855 L24.983 -30.496 L33.377 -22.181 Z"/></g><g id="Thin-S" transform="matrix(1 0 0 1 814.015 696)"><path d="M14.02 -6.644 V-54.398 H30.382 L37.356 -63.816 H57.324 L64.298 -54.398 H80.66 V-6.644 H14.02 Z M16.873 -9.497 H77.807 V-51.545 H62.729 L55.61 -60.963 H39.09 L31.985 -51.545 H16.873 V-9.497 Z M47.34 -15.444 Q54.281 -15.444 58.577 -21.057 Q62.872 -26.668 62.452 -33.925 L67.474 -28.994 L68.976 -30.557 L61.36 -38.113 L53.804 -30.557 L55.306 -28.994 L60.328 -34.016 Q60.675 -27.603 56.986 -22.586 Q53.295 -17.568 47.34 -17.568 Q45.947 -17.568 44.662 -17.933 Q43.376 -18.297 42.096 -18.836 L40.421 -17.235 Q41.953 -16.321 43.728 -15.883 Q45.504 -15.444 47.34 -15.444 Z M33.32 -22.939  40.876 -30.496  39.374 -32.059  34.352 -27.036 Q34.005 -33.449 37.694 -38.467 Q41.385 -43.484 47.34 -43.484 Q48.733 -43.484 50.018 -43.12 Q51.304 -42.756 52.584 -42.218 L54.259 -43.818 Q52.727 -44.733 50.952 -45.17 Q49.176 -45.608 47.34 -45.608 Q40.3 -45.608 36.053 -39.997 Q31.808 -34.384 32.228 -27.128 L27.206 -32.059 L25.704 -30.496 L33.32 -22.939 Z"/></g><g id="Ultralight-S" transform="matrix(1 0 0 1 517.792 696)"><path d="M15.09 -7.714 V-53.328 H30.828 L37.823 -62.746 H56.857 L63.852 -53.328 H79.59 V-7.714 H15.09 Z M16.816 -9.44 H77.864 V-51.602 H62.804 L55.65 -61.02 H39.056 L31.905 -51.602 H16.816 V-9.44 Z M47.34 -15.752 Q54.293 -15.752 58.457 -21.546 Q62.621 -27.34 62.134 -34.688 L67.509 -29.46 L68.544 -30.545 L61.394 -37.646 L54.293 -30.545 L55.329 -29.46 L60.704 -34.835 Q61.096 -28.023 57.335 -22.602 Q53.573 -17.182 47.34 -17.182 Q45.959 -17.182 44.702 -17.551 Q43.444 -17.921 42.18 -18.414 L40.979 -17.28 Q42.409 -16.491 44.036 -16.121 Q45.663 -15.752 47.34 -15.752 Z M33.286 -23.395  40.387 -30.496  39.351 -31.581  33.976 -26.206 Q33.584 -33.018 37.345 -38.439 Q41.107 -43.86 47.34 -43.86 Q48.721 -43.86 49.978 -43.49 Q51.236 -43.12 52.5 -42.627 L53.701 -43.761 Q52.271 -44.55 50.644 -44.92 Q49.017 -45.29 47.34 -45.29 Q40.288 -45.29 36.174 -39.496 Q32.059 -33.701 32.546 -26.354 L27.171 -31.581 L26.136 -30.496 L33.286 -23.395 Z"/></g></g></svg>