<svg xmlns="http://www.w3.org/2000/svg" height="24" viewBox="0 -960 960 960" width="24"><path d="M851.92-187.27H572.27q0-13.69-.87-27.88-.86-14.2-2.71-28.08h227.27v-474.35H164.04v69.39q-13.89-2.04-28.08-2.91-14.19-.86-27.88-.86v-121.58h743.84v586.27Zm-743.84 0v-94.11q38.75 0 66.18 27.57 27.43 27.58 27.43 66.54h-93.61Zm177.29 0q0-73.64-51.93-125.23-51.93-51.58-125.36-52.54V-421q97.11 0 165.17 68.29 68.06 68.3 68.06 165.44h-55.94Zm147.28 0q0-67.55-25.59-126.54-25.6-59-69.52-103.17-43.92-44.17-102.92-69.73-58.99-25.55-126.54-25.55v-56.05q79.02 0 148.21 29.94 69.18 29.94 121.01 81.69t81.57 121.04q29.74 69.29 29.74 148.37h-55.96Zm113.53-155.38q-33.87-96.77-104.66-168.81-70.79-72.04-166.9-106.69h420.3v275.5H546.18Z"/></svg>