<svg xmlns="http://www.w3.org/2000/svg" height="48" viewBox="0 -960 960 960" width="48"><path d="M274-221h133v-170h40v-117q0-35.36-25.32-60.68T360-594h-40q-36.36 0-61.18 25.32T234-508v117h40v170Zm66-399q26.46 0 44.73-17.77Q403-655.54 403-683q0-26.46-18.27-44.23Q366.46-745 340-745q-26.46 0-44.23 17.77Q278-709.46 278-683q0 27.46 17.77 45.23Q313.54-620 340-620Zm161 96h223L613-703 501-524Zm112 266 111-179H501l112 179ZM180-107q-28.73 0-50.86-22.14Q107-151.27 107-180v-600q0-28.72 22.14-50.86Q151.27-853 180-853h600q28.72 0 50.86 22.14T853-780v600q0 28.73-22.14 50.86Q808.72-107 780-107H180Zm0-73h600v-600H180v600Zm0 0v-600 600Z"/></svg>