<svg xmlns="http://www.w3.org/2000/svg" height="24" viewBox="0 -960 960 960" width="24"><path d="M290-4.62q-10.15 0-17.77-7.61-7.61-7.62-7.61-17.77 0-10.15 7.61-17.77 7.62-7.61 17.77-7.61 10.15 0 17.77 7.61 7.61 7.62 7.61 17.77 0 10.15-7.61 17.77-7.62 7.61-17.77 7.61Zm340 0q-10.15 0-17.77-7.61-7.61-7.62-7.61-17.77 0-10.15 7.61-17.77 7.62-7.61 17.77-7.61 10.15 0 17.77 7.61 7.61 7.62 7.61 17.77 0 10.15-7.61 17.77-7.62 7.61-17.77 7.61ZM270-92.31q-41.28 0-76.14-18.34Q159-129 135.54-158.92q-2.23-2.7-2.96-5.54-.73-2.85-.73-5.59 0-6.57 4.76-12.1 4.76-5.54 13.09-5.54 4.76 0 7.95 1.84 3.2 1.85 5.89 4.77 15.84 21.62 38.96 35.04 23.12 13.42 51.81 16.89l134.23-162.54-62.23-171.39q-4.23-11.61-1.85-25.54 2.39-13.92 9.08-25.84L448-700H312.46l-64.23 104.15q-4.38 7.08-12.31 8.77-7.92 1.7-15.04-2.74-7.12-4.43-9.15-12.3-2.04-7.88 2.35-14.96l67-107.77q4.09-7.17 11.46-11.16 7.37-3.99 16.38-3.99H508q22.15 0 35.69 12.31t18.77 23.77l21 47.23q19.31 43.61 56.92 74.31 37.62 30.69 86.77 39.15 8.54 1.69 14.54 7.66 6 5.97 6 14.8 0 8.62-5.61 14.19-5.62 5.58-13.93 4.35-57.23-7.23-103.19-40.65-45.96-33.43-79.04-92.97L444.69-477l159.39 94.23q7.54 4.1 11.73 11.47 4.19 7.37 4.19 16.38v227.23h30.46q32.11 0 59.79-14.54 27.67-14.54 46.21-38.08 2.92-3.69 6.14-5.54 3.21-1.84 7.88-1.84 7.6 0 12.64 5.54 5.03 5.53 5.03 12.1 0 2.74-.73 5.59-.73 2.84-2.96 5.54Q761-129 726.31-110.65q-34.69 18.34-75.85 18.34H270Zm35.54-35.38H580v-219.39l-185.38-94.15 35.53 139.46q2.23 7.69.65 14.95-1.58 7.25-7.11 13.05L305.54-127.69ZM600-772.31q-27.92 0-47.81-19.88-19.88-19.89-19.88-47.81t19.88-47.81q19.89-19.88 47.81-19.88t47.81 19.88q19.88 19.89 19.88 47.81t-19.88 47.81q-19.89 19.88-47.81 19.88Z"/></svg>