<svg xmlns="http://www.w3.org/2000/svg" height="48" width="48"><path d="M40.8 11.2H7.2v25.6h19.5v4.15H7.2q-1.65 0-2.9-1.275T3.05 36.8V11.2q0-1.65 1.25-2.925T7.2 7h33.6q1.65 0 2.9 1.275t1.25 2.925v16.2H40.8Zm-.75 29.75h-8.6q-.7 0-1.225-.525-.525-.525-.525-1.275 0-.8.525-1.3t1.225-.5h8.6l-2.2-2.2q-.5-.5-.475-1.25.025-.75.525-1.3.5-.5 1.25-.475.75.025 1.35.575l4.95 5q.65.6.65 1.425 0 .825-.65 1.475l-4.95 5q-.6.55-1.35.575-.75.025-1.25-.575-.55-.55-.55-1.25t.55-1.25ZM7.2 11.2v25.6-9.4V27.55 11.2ZM24 21.9l16.8-10.7v3.75L25.15 24.9q-.55.35-1.15.35-.6 0-1.1-.35L7.2 14.95V11.2Z"/></svg>