<svg xmlns="http://www.w3.org/2000/svg" height="20" viewBox="0 -960 960 960" width="20"><path d="M806.31-232H644.54q-6.8 0-11.36-4.52t-4.56-11.27q0-6.75 4.56-11.48t11.36-4.73h162.54l-66.1-66.1q-4.6-4.59-5.36-11.4-.77-6.81 4.84-12.13 4.85-5.14 11.66-4.37 6.8.77 11.47 5.46l84.54 84.74q4.64 4.66 6.87 9.44 2.23 4.79 2.23 10.48 0 4.92-2.23 10.09t-6.46 9.41L763-142.85q-5.62 5.62-11.15 4.35-5.54-1.27-10.39-6.12-5.61-5.61-5.61-10.88 0-5.27 5.61-10.88L806.31-232Zm-613.69 0q-23.55 0-40.09-16.55Q136-265.09 136-288.66v-383.01q0-23.56 16.53-39.95Q169.07-728 192.62-728h574.76q23.55 0 40.09 16.53Q824-694.93 824-671.38v240.92q0 12.55-9.15 19.31-9.16 6.77-22.85 4.07-12.15-3.46-24.04-4.19-11.88-.73-25.04-.73-71.15 0-121.04 48.88Q572-314.23 572-243.08v2q0 3.76-2.66 6.42t-6.42 2.66h-370.3ZM480-517 203.77-683.23q-9.77-4.85-18.54-.95-8.77 3.89-11.08 13.98-2.3 6.66.89 14.01 3.19 7.34 8.88 10.81l281.16 169.53q6.46 4.23 14.92 4.23t14.92-4.23l282.16-169.53q5.69-3.47 8.77-10.75 3.07-7.28 0-14.33-2.31-9.96-11.08-13.41-8.77-3.44-18.54 1.41L480-517Z"/></svg>