<svg xmlns="http://www.w3.org/2000/svg" height="24" width="24"><path d="M19.925 6.1H4.075v11.8H13.2v3.075H4.075q-1.275 0-2.175-.9-.9-.9-.9-2.175V6.1q0-1.275.9-2.175.9-.9 2.175-.9h15.85q1.275 0 2.175.9.9.9.9 2.175v7.775h-3.075Zm-1.05 14.875H16.55q-.575 0-.962-.4-.388-.4-.388-.95 0-.575.388-.962.387-.388.962-.388h2.325l-.3-.3q-.4-.425-.387-.975.012-.55.412-.95.4-.4.938-.388.537.013.937.413l2.5 2.475q.425.425.425 1.063 0 .637-.425 1.087l-2.5 2.45q-.375.4-.925.412-.55.013-.95-.412-.4-.375-.4-.925t.375-.95ZM4.075 6.1v11.8V6.1ZM12 11.175 19.925 6.1v2.825l-7.1 4.525q-.4.25-.837.25-.438 0-.813-.25l-7.1-4.525V6.1Z"/></svg>