<svg xmlns="http://www.w3.org/2000/svg" height="24" width="24"><path d="M1.85 10V8.85Q1.85 6.05 4.638 4.438Q7.425 2.825 12 2.825Q16.575 2.825 19.363 4.438Q22.15 6.05 22.15 8.85V10ZM1.85 14.5V12.375Q2.75 12.375 3.3 11.875Q3.85 11.375 5.25 11.375Q6.65 11.375 7.175 11.875Q7.7 12.375 8.6 12.375Q9.5 12.375 10.05 11.875Q10.6 11.375 12 11.375Q13.4 11.375 13.95 11.875Q14.5 12.375 15.4 12.375Q16.3 12.375 16.825 11.875Q17.35 11.375 18.75 11.375Q20.15 11.375 20.75 11.875Q21.35 12.375 22.15 12.375V14.5Q20.75 14.5 20.25 14Q19.75 13.5 18.85 13.5Q17.95 13.5 17.375 14Q16.8 14.5 15.4 14.5Q14 14.5 13.45 14Q12.9 13.5 12 13.5Q11.1 13.5 10.55 14Q10 14.5 8.6 14.5Q7.2 14.5 6.675 14Q6.15 13.5 5.25 13.5Q4.35 13.5 3.8 14Q3.25 14.5 1.85 14.5ZM4.15 21.3Q3.2 21.3 2.525 20.638Q1.85 19.975 1.85 19.025V15.9H22.15V19.025Q22.15 19.975 21.475 20.638Q20.8 21.3 19.85 21.3Z"/></svg>