<svg xmlns="http://www.w3.org/2000/svg" height="40" viewBox="0 -960 960 960" width="40"><path d="M480-236q24.67 0 41.67-17t17-41.67q0-24.66-17-41.66-17-17-41.67-17t-41.67 17q-17 17-17 41.66 0 24.67 17 41.67T480-236Zm0-185.33q24.67 0 41.67-17t17-41.67q0-24.67-17-41.67t-41.67-17q-24.67 0-41.67 17t-17 41.67q0 24.67 17 41.67t41.67 17Zm0-185.34q24.67 0 41.67-17t17-41.66q0-24.67-17-41.67T480-724q-24.67 0-41.67 17t-17 41.67q0 24.66 17 41.66 17 17 41.67 17ZM276.67-351.33V-420q-41-9-70.67-36.17-29.67-27.16-40.67-62.83-2-15 7.34-26Q182-556 197-556h79.67v-66.67q-41-9-70.67-35.83T165.33-721q-2-15 7.34-26Q182-758 197-758h79.67v-16q0-28.33 19.16-47.17Q315-840 343.33-840h273.34q28.33 0 47.5 18.83 19.16 18.84 19.16 47.17v16H763q15 0 24.33 11 9.34 11 7.34 26-11 35.67-40.67 62.5t-70.67 35.83V-556H763q15 0 24.33 11 9.34 11 7.34 26-11 35.67-40.67 62.83Q724.33-429 683.33-420v68.67h79q15 0 24.67 11 9.67 11 7.67 26-11 35.66-40.67 62.5Q724.33-225 683.33-216v29.33q0 28.34-19.16 47.5Q645-120 616.67-120H343.33q-28.33 0-47.5-19.17-19.16-19.16-19.16-47.5V-216q-41-9-70.67-35.83-29.67-26.84-40.67-62.5-2-15 7.67-26t24.67-11h79Z"/></svg>