<svg xmlns="http://www.w3.org/2000/svg" height="40" viewBox="0 -960 960 960" width="40"><path d="M375.53-360.77q7.26 0 12.02-4.86t4.76-12.06v-204.62q0-7.2-4.9-12.06t-12.17-4.86q-7.27 0-12.02 4.86-4.76 4.86-4.76 12.06v204.62q0 7.2 4.9 12.06t12.17 4.86Zm146.03-25 113.9-75.79q9.8-6.36 9.8-18.3 0-11.93-9.8-18.58l-113.9-75.79q-10.79-7.64-22.33-1.16-11.54 6.48-11.54 19.6v151.07q0 13.63 11.54 20.11 11.54 6.48 22.33-1.16ZM480.31-120q-75.01 0-140.33-28.34-65.33-28.34-114.29-77.25-48.96-48.92-77.32-114.23Q120-405.14 120-480.2q0-74.55 28.34-140.18 28.34-65.63 77.25-114.26 48.92-48.63 114.23-76.99Q405.14-840 480.2-840q74.55 0 140.18 28.34 65.63 28.34 114.26 76.92 48.63 48.58 76.99 114.26Q840-554.81 840-480.31q0 75.01-28.34 140.33-28.34 65.33-76.92 114.16-48.58 48.84-114.26 77.33Q554.81-120 480.31-120Z"/></svg>