<svg xmlns="http://www.w3.org/2000/svg" height="20" viewBox="0 -960 960 960" width="20"><path d="M457-89v-112l-80 66-30-34 110-93v-178l-155 88-26 141-45-9 19-100-80 47-23-42 80-46-97-33 15-43 134 47 154-89-154-88-134 45-15-41 97-35-80-46 23-42 80 47-19-100 45-9 26 141 155 88v-178l-110-93 30-34 80 66v-112h46v112l77-66 30 34-107 93v178l154-88 26-141 45 9-19 100 90-57 23 42-90 56 97 35-15 41-134-45-155 88 155 89 134-47 15 43-97 33 80 46-23 42-80-47 19 100-45 9-26-141-154-88v178l107 93-30 34-77-66v112h-46Z"/></svg>