<svg xmlns="http://www.w3.org/2000/svg" height="20" width="20"><path d="M10.646 13.521Q10.896 13.271 10.906 12.938Q10.917 12.604 10.667 12.354L9.938 11.646H12.396Q12.729 11.646 12.979 11.396Q13.229 11.146 13.229 10.833Q13.229 10.5 12.979 10.25Q12.729 10 12.396 10H9.938L10.667 9.292Q10.917 9.021 10.917 8.708Q10.917 8.396 10.646 8.146Q10.396 7.896 10.062 7.896Q9.729 7.896 9.479 8.146L7.542 10.062Q7.229 10.375 7.229 10.844Q7.229 11.312 7.542 11.604L9.479 13.542Q9.792 13.875 10.146 13.854Q10.5 13.833 10.646 13.521ZM3.667 16.896Q2.75 16.896 2.115 16.26Q1.479 15.625 1.479 14.708V5.208Q1.479 4.292 2.115 3.656Q2.75 3.021 3.667 3.021H7.271Q7.708 3.021 8.115 3.198Q8.521 3.375 8.833 3.688L10 4.854H16.333Q17.25 4.854 17.885 5.49Q18.521 6.125 18.521 7.042V14.708Q18.521 15.625 17.885 16.26Q17.25 16.896 16.333 16.896ZM3.667 5.208V14.708Q3.667 14.708 3.667 14.708Q3.667 14.708 3.667 14.708H16.333Q16.333 14.708 16.333 14.708Q16.333 14.708 16.333 14.708V7.042Q16.333 7.042 16.333 7.042Q16.333 7.042 16.333 7.042H9.083L7.271 5.208H3.667Q3.667 5.208 3.667 5.208Q3.667 5.208 3.667 5.208ZM3.667 5.208Q3.667 5.208 3.667 5.208Q3.667 5.208 3.667 5.208V7.042Q3.667 7.042 3.667 7.042Q3.667 7.042 3.667 7.042V14.708Q3.667 14.708 3.667 14.708Q3.667 14.708 3.667 14.708Q3.667 14.708 3.667 14.708Q3.667 14.708 3.667 14.708Z"/></svg>