<svg xmlns="http://www.w3.org/2000/svg" height="40" width="40"><path d="M6.958 32.375q-1.041 0-1.812-.771-.771-.771-.771-1.812v-1.667q0-1.042.771-1.813.771-.77 1.812-.77 1.042 0 1.813.77.771.771.771 1.813v1.667q0 1.041-.771 1.812-.771.771-1.813.771Zm28.125.458H32.75q-.292 0-.458-.229-.167-.229-.084-.521l.375-1.25q.042-.208.25-.312.209-.104.417-.104l2 .291q.417.042.667.334.25.291.25.708t-.334.75q-.333.333-.75.333Zm-6.25-.625-4.291-1.416q-.209-.084-.313-.334-.104-.25-.021-.458l1.042-2.375q.125-.25.354-.313.229-.062.479.063l3.584 2.042q.166.083.229.271.062.187.062.354l-.333 1.75q-.083.25-.292.375-.208.125-.5.041Zm-7.75-2.916-3-.792q-.416-.083-.666-.396-.25-.312-.25-.729v-1.542q0-.666.187-1.312.188-.646.604-1.104.209-.209.542-.209.333 0 .625.125l3.667 2q.166.125.25.334.083.208 0 .416L21.792 29q-.084.167-.292.25-.208.083-.417.042Zm-8.375-1.459q-.208 0-.375-.187-.166-.188-.208-.479-.292-2.042-1.833-3.188-1.542-1.146-3.625-1.146h-.834q-.166 0-.25-.083-.083-.083-.083-.25 0-.167.083-.25.084-.083.25-.083h1.5q.792 0 1.542-.209.75-.208 1.458-.583.25-.125.479-.125.23 0 .48.125.833.417 1.625.604.791.188 1.666.188.334 0 .5.291.167.292.042.584-.292.625-.458 1.333-.167.708-.167 1.458v1.417q0 .25-.167.417-.166.166-.416.166Zm-5.291-8.416q-1.25 0-2.084-.855-.833-.854-.833-2.02 0-.584.208-1.104.209-.521.584-.938l2.541-2.458V8.333h6v3.709l2.542 2.458q.375.417.583.938.209.52.209 1.104 0 1.166-.834 2.02-.833.855-2.083.855-.625 0-1.125-.25t-.958-.625q-.292-.25-.605-.438-.312-.187-.729-.187-.333 0-1.375.625-.458.333-.979.604-.521.271-1.062.271Z"/></svg>