<svg xmlns="http://www.w3.org/2000/svg" height="40" viewBox="0 -960 960 960" width="40"><path d="M500.05-460.64h46.68l86.33 86.2q5.88 5.94 14.03 6.34 8.15.39 13.76-5.47 5.85-5.87 5.66-14.19-.19-8.33-6.05-14.46l-57.73-58.42h73.53q8.16 0 13.77-5.52 5.61-5.52 5.61-13.72 0-8.21-5.61-13.98-5.61-5.78-13.77-5.78h-73.53l58.12-59.03q5.85-5.44 5.85-13.43 0-7.99-5.85-14.57-5.62-5.62-14.11-5.06-8.48.56-14.15 6.48l-85.86 85.61h-46.68v-46.68l86.74-86.74q5.5-5.5 5.71-13.64.2-8.13-5.42-13.73-6.13-5.61-14.55-5.61-8.43 0-13.84 5.61l-58.64 58.11v-73.27q0-8.42-5.63-14.03-5.63-5.61-14.09-5.61-8.2 0-13.74 5.61-5.54 5.61-5.54 14.03v391.2q0 8.43 5.52 14.04 5.52 5.61 13.72 5.61 8.46 0 14.11-5.74 5.65-5.74 5.65-14.41v-72.79l58.64 58.14q5.41 5.86 13.58 5.83 8.17-.03 14.61-5.83 5.82-5.79 5.36-14.1-.47-8.3-6.36-14.19l-85.83-85.82v-46.99Zm-19.92 355.9q-77.54 0-145.83-29.65-68.3-29.64-119.31-80.59-51.02-50.95-80.63-119.15-29.62-68.19-29.62-145.74 0-77.95 29.65-146.37 29.64-68.42 80.59-119.27 50.95-50.85 119.15-80.3 68.19-29.45 145.74-29.45 77.95 0 146.38 29.56 68.42 29.56 119.27 80.26 50.84 50.71 80.29 119.03 29.45 68.32 29.45 146.28 0 77.54-29.48 145.83-29.48 68.3-80.26 119.31-50.79 51.02-119.11 80.63-68.32 29.62-146.28 29.62ZM325.87-496.97q-13.04 25.02-22.53 50.35-9.49 25.32-9.49 52.94 0 21.53 7.81 40.98 7.8 19.46 21.52 35.71 6.06 9.47 16.82 12.74 10.77 3.28 19.75-3.19 7.43-5.33 9.26-14.08 1.84-8.76-3.51-14.9-11.93-11.65-19.04-26.64-7.1-15-7.1-31.66 0-16.37 7.45-36.06 7.46-19.69 18.28-41.18 11.76-23.48 22.06-48.25 10.31-24.77 10.31-51.93 0-20.98-9.2-39.66-9.21-18.67-23.34-34.33-7.16-8.61-17.91-11.11-10.74-2.5-18.91 4.1-6.89 6.22-8.26 14.95-1.38 8.73 4.74 14.38 11.14 10.18 19.25 23.32 8.12 13.13 8.12 28.64 0 20.32-8.7 38.5t-17.38 36.38Z"/></svg>