<svg xmlns="http://www.w3.org/2000/svg" height="20" width="20"><path d="M14.458 16.792h.98v-1.48h1.479v-.958h-1.479v-1.479h-.98v1.479h-1.479v.958h1.479Zm.48 1.896q-1.605 0-2.73-1.126-1.125-1.124-1.125-2.729 0-1.604 1.125-2.729t2.73-1.125q1.604 0 2.729 1.125t1.125 2.729q0 1.605-1.125 2.729-1.125 1.126-2.729 1.126ZM6.104 7.5h7.792V6.104H6.104Zm3.958 9.292H4.583q-.583 0-.989-.407-.406-.406-.406-.989V4.583q0-.583.406-.989t.989-.406h10.834q.583 0 .989.406t.406.989v5.334q-.458-.146-.937-.219-.479-.073-.917-.073-.25 0-.52.021-.271.021-.542.062v-.416H6.104v1.396h5.646q-.479.354-.875.802-.396.448-.667.989H6.104v1.396h3.625q-.041.25-.062.479-.021.229 0 .479.021.417.125.99t.27.969Z"/></svg>