<svg xmlns="http://www.w3.org/2000/svg" height="20" viewBox="0 -960 960 960" width="20"><path d="M311.27-121.5Q221-121.5 158-184.91 95-248.32 95-338.5q0-51.5 22.25-96.5t60.25-72.5v-197q0-56 38.75-95.25T311.5-839q56 0 95.25 39.25T446-704.5v197q38.5 27.5 60.75 72.5T529-338.5q0 90.18-63.73 153.59-63.72 63.41-154 63.41ZM208-338.5h208q0-28-14.5-53.25T362-434l-29-20v-250.5q0-7.8-6.79-14.65-6.79-6.85-14.5-6.85-8.21 0-14.71 6.85t-6.5 14.65V-454l-27 20Q238-415 223-389.25t-15 50.75ZM723.5-592l3-2.5q-17 16.5-37 16.75T653-594.5q-16.5-17-16.5-37.25t17-36.75L735-750q17.41-17.5 40.7-17.5 23.3 0 40.8 17.5l80.5 79.5q17 15.5 17.5 36.75t-15 38.25q-15.5 17-36.25 16.75T825.5-594.5l1 1v374.11q0 20.75-15.29 36.07t-36 15.32q-20.71 0-36.21-15.3t-15.5-36.02V-592Z"/></svg>