<svg xmlns="http://www.w3.org/2000/svg" height="48" width="48"><path d="M7.85 40.7q-.25 0-.4-.15-.15-.15-.15-.4t.15-.4q.15-.15.4-.15h32.3q.25 0 .4.15.15.15.15.4t-.15.4q-.15.15-.4.15Zm0-8.1q-.25 0-.4-.15-.15-.15-.15-.4 0-.2.15-.375t.4-.175h8q.25 0 .4.175.15.175.15.425 0 .2-.15.35-.15.15-.4.15Zm0-8.05q-.25 0-.4-.15-.15-.15-.15-.4t.15-.4q.15-.15.4-.15h8q.25 0 .4.15.15.15.15.4t-.15.4q-.15.15-.4.15Zm0-8.1q-.25 0-.4-.15-.15-.15-.15-.4 0-.2.15-.375t.4-.175h8q.25 0 .4.175.15.175.15.425 0 .2-.15.35-.15.15-.4.15Zm0-8.05q-.25 0-.4-.15-.15-.15-.15-.4t.15-.4q.15-.15.4-.15h32.3q.25 0 .4.15.15.15.15.4t-.15.4q-.15.15-.4.15ZM24.5 32.75q-.55 0-.95-.4-.4-.4-.4-.95V16.55q0-.55.4-.95.4-.4.95-.4h14.85q.55 0 .95.4.4.4.4.95V31.4q0 .55-.4.95-.4.4-.95.4Zm-.25-1.1H39.6V16.3H24.25Z"/></svg>