<svg xmlns="http://www.w3.org/2000/svg" height="48" viewBox="0 -960 960 960" width="48"><path d="M332-338v-35h92q-5 8-8.5 17t-5.5 18h-78Zm3.38 222q-75.18 0-127.28-51.39Q156-218.78 156-293v-356q-28-3-46.5-20.67Q91-687.35 91-715v-62q0-28.94 20-47.97Q131-844 161-844h347q29.3 0 50.15 19.03Q579-805.94 579-777v62q0 26.83-19.5 44.91Q540-652 513-649v160q-1.25-.36-2.12-1.18Q510-491 508-493H332v-35h146v-120H191v355q0 60.5 41.43 101.25Q273.85-151 334.6-151q28.54 0 52.97-10.5T431-190q3 9.71 6.5 17.86Q441-164 447-155q-24.34 18.79-52.3 28.89Q366.74-116 335.38-116ZM160-683h349q14 0 24.5-9.5T544-716v-59q0-14-10.5-24T509-809H160q-14 0-24 10t-10 24v59q0 14 10 23.5t24 9.5Zm495.86 508q47.08 0 80.11-32.36t33.03-80q0-47.64-32.9-80.14t-80-32.5q-47.1 0-79.6 32.6-32.5 32.6-32.5 79.26 0 48.14 32.6 80.64t79.26 32.5ZM860-60 747-172q-18.54 15-41.87 23.5Q681.81-140 656-140q-61.83 0-104.42-42.93Q509-225.85 509-288.18 509-349 551.62-392q42.62-43 104.5-43T761-391.88q43 43.13 43 103.88 0 26.81-8.5 50.13Q787-214.54 772-197L884-84l-24 24ZM126-683v-126 126Z"/></svg>