<svg xmlns="http://www.w3.org/2000/svg" height="40" viewBox="0 -960 960 960" width="40"><path d="M191.35-386.17q-16.62 0-28.56-11.95-11.95-11.94-11.95-28.75 0-16.8 11.95-28.94 11.94-12.13 28.56-12.13h577.3q16.52 0 28.7 12.18 12.19 12.19 12.19 28.7 0 17-12.19 28.94-12.18 11.95-28.7 11.95h-577.3Zm-2.84-131.77q-15.95 0-26.81-10.86-10.86-10.87-10.86-26.74 0-15.55 10.86-26.67 10.86-11.12 26.81-11.12h583.31q15.51 0 26.61 11.12 11.11 11.12 11.11 26.67 0 15.87-11.11 26.74-11.1 10.86-26.61 10.86H188.51ZM479.09-48.98q-15.87 0-26.92-11.11-11.05-11.1-11.05-26.94v-101.2l-40.77 40.48q-11.65 10.88-26.97 11.13-15.31.25-26.53-11.71-11.55-11.3-11.55-26.5t11.55-26.76l102.21-101.55q6.21-6.11 13.79-9.49 7.59-3.38 15.92-3.38 8.76 0 16.47 3.38 7.72 3.38 14.13 9.49l100.95 101.39q10.91 11.55 10.87 27.18-.05 15.62-10.87 26.82-11.55 11.58-27.18 11.2-15.63-.38-26.44-11.93l-39.82-40.88v102.33q0 15.84-11.12 26.94-11.12 11.11-26.67 11.11Zm-.13-614.75q-8.58 0-16.14-3.21-7.57-3.21-13.76-9.66L347.51-778.15q-10.88-10.65-11.21-26.22-.34-15.57 11.21-26.93 11.22-11.03 26.45-11.03 15.24 0 26.89 10.84l39.6 40.98v-101.53q0-15.51 11.12-26.61 11.13-11.1 27-11.1 15.55 0 26.6 11.1t11.05 26.61v101.53l41.64-40.98q10.84-10.55 26.13-10.69 15.28-.15 26.83 10.69 11.74 12.22 11.82 27.25.08 15.04-11.65 26.59L509.37-676.6q-6.41 6.45-14.13 9.66-7.71 3.21-16.28 3.21Z"/></svg>