<svg xmlns="http://www.w3.org/2000/svg" height="24" viewBox="0 -960 960 960" width="24"><path d="M860.415-247.565 759.413-348.567v-280.954h-193.5v-193h-217.39v63.63l-94.218-96.48v.392q7.218-26.609 32.327-47.576 25.108-20.968 61.891-20.968H618.11l242.305 241.859v434.099ZM348.523-313.98h214.542L348.523-528.521v214.541ZM842.937-34.108 664.066-212.979H348.523q-42.242 0-71.622-29.379-29.379-29.38-29.379-71.622v-315.543L58.783-818.262l58.718-59.217L902.154-92.826l-59.217 58.718ZM554.218-585.544Zm-98.174 164.043ZM172.522-36.977q-42.242 0-71.622-29.38-29.38-29.38-29.38-71.622v-502.717h101.002v502.717h476.087v101.002H172.522Z"/></svg>