<svg xmlns="http://www.w3.org/2000/svg" height="40" viewBox="0 -960 960 960" width="40"><path d="M479.88-110.84q-17.71 0-29.92-12.45-12.2-12.46-12.2-30.12V-437.2H153.41q-17.66 0-30.12-12.32-12.45-12.32-12.45-30t12.45-30.27q12.46-12.59 30.12-12.59H437.2v-284.54q0-17.24 12.32-29.93 12.32-12.69 30-12.69t30.27 12.69q12.59 12.69 12.59 29.93v284.35h284.54q17.24 0 29.93 12.48 12.69 12.49 12.69 30.21 0 17.71-12.69 29.92-12.69 12.2-29.93 12.2H522.57v284.35q0 17.66-12.48 30.12-12.49 12.45-30.21 12.45Z"/></svg>