<svg xmlns="http://www.w3.org/2000/svg" height="20" width="20"><path d="M10 4.417q-.375 0-.656-.282-.282-.281-.282-.656t.282-.656q.281-.281.656-.281t.656.271q.282.27.282.666 0 .375-.282.656-.281.282-.656.282Zm0-2.709q-.375 0-.656-.281-.282-.281-.282-.656t.282-.656q.281-.282.656-.282t.656.282q.282.281.282.656t-.282.656q-.281.281-.656.281ZM7 18.646q-1.354-.792-2.146-2.198-.792-1.406-.792-2.969 0-1.625.844-3.041.844-1.417 2.406-2.271V6.271q0-.396.292-.688.292-.291.688-.291h3.416q.396 0 .688.291.292.292.292.688v1.896q1.5.833 2.385 2.218.885 1.386.885 3.094 0 1.542-.76 2.917-.76 1.375-2.177 2.25ZM5.479 2.667q-.375 0-.656-.282-.281-.281-.281-.656t.281-.656q.281-.281.656-.281t.656.271q.282.27.282.666 0 .375-.282.656-.281.282-.656.282Zm9.042 0q-.375 0-.646-.282-.271-.281-.271-.656t.271-.656q.271-.281.646-.281.396 0 .667.271.27.27.27.666 0 .375-.27.656-.271.282-.667.282Zm-7.229 1.75q-.375 0-.657-.282-.281-.281-.281-.656t.281-.656q.282-.281.657-.281.375 0 .656.271.281.27.281.666 0 .375-.281.656-.281.282-.656.282Zm5.416 0q-.375 0-.656-.282-.281-.281-.281-.656t.281-.656q.281-.281.656-.281t.657.271q.281.27.281.666 0 .375-.281.656-.282.282-.657.282Z"/></svg>