<svg xmlns="http://www.w3.org/2000/svg" height="48" width="48"><path d="M17.25 22.45Q16.75 22.45 16.4 22.1Q16.05 21.75 16.05 21.25Q16.05 20.75 16.4 20.4Q16.75 20.05 17.25 20.05H30.75Q31.25 20.05 31.6 20.4Q31.95 20.75 31.95 21.25Q31.95 21.75 31.6 22.1Q31.25 22.45 30.75 22.45ZM19.3 28.95Q18.8 28.95 18.425 28.6Q18.05 28.25 18.05 27.7Q18.05 27.2 18.425 26.85Q18.8 26.5 19.3 26.5H28.75Q29.2 26.5 29.575 26.875Q29.95 27.25 29.95 27.75Q29.95 28.25 29.6 28.6Q29.25 28.95 28.75 28.95ZM13.2 46.05Q11.85 46.05 10.875 45.075Q9.9 44.1 9.9 42.75V5.25Q9.9 3.9 10.875 2.925Q11.85 1.95 13.2 1.95H34.8Q36.15 1.95 37.125 2.925Q38.1 3.9 38.1 5.25V42.75Q38.1 44.1 37.125 45.075Q36.15 46.05 34.8 46.05ZM13.2 38.3H34.8V9.7H13.2Z"/></svg>