<svg xmlns="http://www.w3.org/2000/svg" height="48" viewBox="0 -960 960 960" width="48"><path d="M679.71-84q-12.22 0-21.12-8.71-8.9-8.7-8.9-20.5 0-11.79 8.9-20.48 8.9-8.7 20.79-8.7h143.47v-104.84H679.38q-11.89 0-20.79-8.9-8.9-8.91-8.9-20.31 0-11.79 8.9-20.48 8.9-8.7 20.79-8.7h143.47v-103.84H679.38q-11.89 0-20.79-8.9-8.9-8.91-8.9-20.31 0-11.79 8.9-20.48 8.9-8.7 20.79-8.7h143.47v-105.23H679.38q-11.89 0-20.79-8.7-8.9-8.71-8.9-20.31 0-11.6 8.9-20.49 8.9-8.88 20.79-8.88h143.47v-103.85H679.38q-11.89 0-20.79-8.7-8.9-8.71-8.9-20.31 0-11.6 8.9-20.49 8.9-8.88 21.12-8.88h163.21q30.69 0 51.46 20.77t20.77 51.46v565.23q0 30.69-20.77 51.46T842.92-84H679.71Zm-428.47-58.39h117.84q3.46 0 6.73-2.11 3.27-2.12 4.81-5.96l117.53-326.31q1.16-3.84-.19-8.27-1.35-4.42-5.19-6.73l-137.54-80.08h-90.46l-138.54 80.08q-3.84 2.31-5.38 6.73-1.54 4.43 0 8.27L239.7-150.46q1.54 3.84 4.61 5.96 3.08 2.11 6.93 2.11Zm58.07-215.23ZM184.62-131.46 65.08-456.38q-8.62-24.23-.72-47.94 7.9-23.7 30.95-37.37l154.38-90.69v-209.93q0-13.61 10.23-23.84t23.66-10.23h51.31q14.19 0 24.8 10.23 10.62 10.23 10.62 23.84v209.93l153.38 90.69q23.06 13.82 30.76 37.51 7.7 23.69-.53 47.8L435.38-131.46q-7.94 21.3-25.76 34.38Q391.8-84 369.69-84H250.31q-23.42 0-40.75-13.12-17.33-13.11-24.94-34.34Z"/></svg>