<svg xmlns="http://www.w3.org/2000/svg" height="20" viewBox="0 -960 960 960" width="20"><path d="M704.539-104q-10.8 0-19.901-9.047-9.1-9.047-9.1-19.769 0-10.722 9.1-19.953Q693.739-162 704.539-162h117.999v-92.769H704.801q-10.762 0-20.013-9.047-9.25-9.048-9.25-19.77t9.1-19.952q9.101-9.231 19.901-9.231h117.999v-90.769H704.801q-10.762 0-20.013-9.048-9.25-9.047-9.25-19.769 0-10.722 9.1-19.953 9.101-9.231 19.901-9.231h117.999v-92.769H704.801q-10.762 0-20.013-9.047-9.25-9.047-9.25-19.769 0-10.722 9.1-19.953 9.101-9.231 19.901-9.231h117.999v-90.769H704.801q-10.762 0-20.013-9.047-9.25-9.047-9.25-19.769 0-10.723 9.1-19.953 9.101-9.231 19.901-9.231h130.154q29.315 0 47.965 18.65 18.65 18.65 18.65 47.965v523.847q0 29.315-18.65 47.965Q864.008-104 834.693-104H704.539ZM201-157 85.077-453.615q-11.462-29.282-.123-58.332 11.34-29.05 38.969-44.207l125.538-62.769v-199.308q0-15.685 12.017-27.727Q273.496-858 289.143-858h38.287q15.647 0 27.839 12.042 12.193 12.042 12.193 27.727v199.308L493-556.154q27.63 15.157 38.969 44.207 11.339 29.05-.123 58.332L415.923-157q-10.23 24.385-30.546 38.693Q365.061-104 339.539-104h-62.154q-25.523 0-45.839-14.307Q211.231-132.615 201-157Z"/></svg>