<svg xmlns="http://www.w3.org/2000/svg" height="48" viewBox="0 -960 960 960" width="48"><path d="M836.109-37.174 799.5-74.022H691.478v-65.739h54.044v8L125.761-747.522h14v56.044h-65.74v-107.783L25.045-848l44.913-44.913L880.783-82.087l-44.674 44.913Zm50.109-129.304-60-60v-42.044h60v102.044Zm-659.74-659.74-60-60h102.044v60h-42.044ZM74.022-74.022v-194.5h65.5v129h129v65.5h-194.5Zm746.456-617.456v-129h-129v-65.74h194.74v194.74h-65.74ZM763.63-288.826 562.783-489.913 695.5-565.174v-37.239l-30.761-17.761-147.195 85.261-186.153-186.152L480-808.87l283.63 167.913v352.131ZM478-145.696 196.37-310.609v-330.348L275-687.63l132.37 132.369-112.109-64.913-29.761 17.761v37.239L450-459.043V-241.5l30 18 30-18v-211.37l183.544 183.544L478-145.696Z"/></svg>