<svg xmlns="http://www.w3.org/2000/svg" height="20" viewBox="0 -960 960 960" width="20"><path d="M293.29-136.617q-16.058 0-27.673-11.405-11.616-11.404-11.616-27.384 0-15.979 11.466-27.595 11.465-11.615 27.534-11.615h224.998v-319.925l29.925 29.925q12.307 12.307 26.384 12.499 14.076.193 27.768-12.499 13.693-13.693 14.193-28.077.5-14.384-13.193-28.076l-90.931-90.907q-13.711-13.708-31.659-13.708-17.947 0-31.759 13.811l-92.803 92.804q-12.308 12.307-12 26.884.307 14.576 13 27.269 12.692 12.692 27.076 12.692t27.076-12.692l28.925-28.925v199.54H174.309q-38.008 0-64.158-26.15t-26.15-64.158v-319.382q0-38.008 26.15-64.158t64.158-26.15h611.382q38.008 0 64.158 26.15t26.15 64.158v319.382q0 38.008-26.15 64.158t-64.158 26.15H557.998v119.385h109.001q16.069 0 27.534 11.405 11.466 11.405 11.466 27.384 0 15.979-11.458 27.595-11.458 11.615-27.515 11.615H293.29Z"/></svg>