<svg xmlns="http://www.w3.org/2000/svg" height="24" width="24"><path d="M12 6.325q-.2 0-.35-.15-.15-.15-.15-.35 0-.2.15-.35.15-.15.35-.15.2 0 .35.15.15.15.15.35 0 .2-.15.35-.15.15-.35.15Zm2 0q-.2 0-.35-.15-.15-.15-.15-.35 0-.2.15-.35.15-.15.35-.15.2 0 .35.15.15.15.15.35 0 .2-.15.35-.15.15-.35.15Zm-4 0q-.2 0-.35-.15-.15-.15-.15-.35 0-.2.15-.35.15-.15.35-.15.2 0 .35.15.15.15.15.35 0 .2-.15.35-.15.15-.35.15Zm7 1q-.2 0-.35-.15-.15-.15-.15-.35 0-.2.15-.35.15-.15.35-.15.2 0 .35.15.15.15.15.35 0 .2-.15.35-.15.15-.35.15Zm-8 0q-.2 0-.35-.15-.15-.15-.15-.35 0-.2.15-.35.15-.15.35-.15.2 0 .35.15.15.15.15.35 0 .2-.15.35-.15.15-.35.15Zm-2 0q-.2 0-.35-.15-.15-.15-.15-.35 0-.2.15-.35.15-.15.35-.15.2 0 .35.15.15.15.15.35 0 .2-.15.35-.15.15-.35.15Zm4 0q-.2 0-.35-.15-.15-.15-.15-.35 0-.2.15-.35.15-.15.35-.15.2 0 .35.15.15.15.15.35 0 .2-.15.35-.15.15-.35.15Zm2 0q-.2 0-.35-.15-.15-.15-.15-.35 0-.2.15-.35.15-.15.35-.15.2 0 .35.15.15.15.15.35 0 .2-.15.35-.15.15-.35.15Zm2 0q-.2 0-.35-.15-.15-.15-.15-.35 0-.2.15-.35.15-.15.35-.15.2 0 .35.15.15.15.15.35 0 .2-.15.35-.15.15-.35.15Zm-3 1q-.2 0-.35-.15-.15-.15-.15-.35 0-.2.15-.35.15-.15.35-.15.2 0 .35.15.15.15.15.35 0 .2-.15.35-.15.15-.35.15Zm2 0q-.2 0-.35-.15-.15-.15-.15-.35 0-.2.15-.35.15-.15.35-.15.2 0 .35.15.15.15.15.35 0 .2-.15.35-.15.15-.35.15Zm2 0q-.2 0-.35-.15-.15-.15-.15-.35 0-.2.15-.35.15-.15.35-.15.2 0 .35.15.15.15.15.35 0 .2-.15.35-.15.15-.35.15Zm-6 0q-.2 0-.35-.15-.15-.15-.15-.35 0-.2.15-.35.15-.15.35-.15.2 0 .35.15.15.15.15.35 0 .2-.15.35-.15.15-.35.15Zm-2 0q-.2 0-.35-.15-.15-.15-.15-.35 0-.2.15-.35.15-.15.35-.15.2 0 .35.15.15.15.15.35 0 .2-.15.35-.15.15-.35.15Zm1 1q-.2 0-.35-.15-.15-.15-.15-.35 0-.2.15-.35.15-.15.35-.15.2 0 .35.15.15.15.15.35 0 .2-.15.35-.15.15-.35.15Zm-2 0q-.2 0-.35-.15-.15-.15-.15-.35 0-.2.15-.35.15-.15.35-.15.2 0 .35.15.15.15.15.35 0 .2-.15.35-.15.15-.35.15Zm4 0q-.2 0-.35-.15-.15-.15-.15-.35 0-.2.15-.35.15-.15.35-.15.2 0 .35.15.15.15.15.35 0 .2-.15.35-.15.15-.35.15Zm2 0q-.2 0-.35-.15-.15-.15-.15-.35 0-.2.15-.35.15-.15.35-.15.2 0 .35.15.15.15.15.35 0 .2-.15.35-.15.15-.35.15Zm2 0q-.2 0-.35-.15-.15-.15-.15-.35 0-.2.15-.35.15-.15.35-.15.2 0 .35.15.15.15.15.35 0 .2-.15.35-.15.15-.35.15Zm2 0q-.2 0-.35-.15-.15-.15-.15-.35 0-.2.15-.35.15-.15.35-.15.2 0 .35.15.15.15.15.35 0 .2-.15.35-.15.15-.35.15Zm-12 0q-.2 0-.35-.15-.15-.15-.15-.35 0-.2.15-.35.15-.15.35-.15.2 0 .35.15.15.15.15.35 0 .2-.15.35-.15.15-.35.15Zm1-1q-.2 0-.35-.15-.15-.15-.15-.35 0-.2.15-.35.15-.15.35-.15.2 0 .35.15.15.15.15.35 0 .2-.15.35-.15.15-.35.15Zm2-2q-.2 0-.35-.15-.15-.15-.15-.35 0-.2.15-.35.15-.15.35-.15.2 0 .35.15.15.15.15.35 0 .2-.15.35-.15.15-.35.15Zm1-1q-.2 0-.35-.15-.15-.15-.15-.35 0-.2.15-.35.15-.15.35-.15.2 0 .35.15.15.15.15.35 0 .2-.15.35-.15.15-.35.15Zm2 0q-.2 0-.35-.15-.15-.15-.15-.35 0-.2.15-.35.15-.15.35-.15.2 0 .35.15.15.15.15.35 0 .2-.15.35-.15.15-.35.15Zm2 0q-.2 0-.35-.15-.15-.15-.15-.35 0-.2.15-.35.15-.15.35-.15.2 0 .35.15.15.15.15.35 0 .2-.15.35-.15.15-.35.15Zm2 0q-.2 0-.35-.15-.15-.15-.15-.35 0-.2.15-.35.15-.15.35-.15.2 0 .35.15.15.15.15.35 0 .2-.15.35-.15.15-.35.15Zm1 1q-.2 0-.35-.15-.15-.15-.15-.35 0-.2.15-.35.15-.15.35-.15.2 0 .35.15.15.15.15.35 0 .2-.15.35-.15.15-.35.15Zm2 2q-.2 0-.35-.15-.15-.15-.15-.35 0-.2.15-.35.15-.15.35-.15.2 0 .35.15.15.15.15.35 0 .2-.15.35-.15.15-.35.15Zm1 1q-.2 0-.35-.15-.15-.15-.15-.35 0-.2.15-.35.15-.15.35-.15.2 0 .35.15.15.15.15.35 0 .2-.15.35-.15.15-.35.15ZM9 14.25q-.525 0-.887-.363-.363-.362-.363-.887t.363-.887q.362-.363.887-.363t.887.363q.363.362.363.887t-.363.887q-.362.363-.887.363Zm6 0q-.525 0-.887-.363-.363-.362-.363-.887t.363-.887q.362-.363.887-.363t.887.363q.363.362.363.887t-.363.887q-.362.363-.887.363Zm-3 6.45q-1.8 0-3.387-.688-1.588-.687-2.763-1.862-1.175-1.175-1.863-2.763Q3.3 13.8 3.3 12t.687-3.388q.688-1.587 1.863-2.775Q7.025 4.65 8.613 3.975 10.2 3.3 12 3.3t3.388.675q1.587.675 2.775 1.862 1.187 1.188 1.862 2.775Q20.7 10.2 20.7 12q0 1.8-.675 3.387-.675 1.588-1.862 2.763-1.188 1.175-2.775 1.862Q13.8 20.7 12 20.7Zm0-.7q3.35 0 5.675-2.337Q20 15.325 20 12q0-3.35-2.325-5.675Q15.35 4 12 4 8.675 4 6.338 6.325 4 8.65 4 12q0 3.325 2.338 5.663Q8.675 20 12 20Z"/></svg>