<svg xmlns="http://www.w3.org/2000/svg" height="20" width="20"><path d="M7.854 11.562 8.729 8.896 6.479 7.354H9.208L10.021 4.542L10.812 7.354H13.521L11.312 8.896L12.146 11.562L10 9.896ZM4.875 19.312V12.792Q4.042 11.875 3.604 10.729Q3.167 9.583 3.167 8.312Q3.167 5.458 5.167 3.458Q7.167 1.458 10 1.458Q12.833 1.458 14.833 3.458Q16.833 5.458 16.833 8.312Q16.833 9.583 16.396 10.729Q15.958 11.875 15.125 12.792V19.312L10 17.625ZM10 13.167Q12.042 13.167 13.448 11.75Q14.854 10.333 14.854 8.312Q14.854 6.271 13.448 4.854Q12.042 3.438 10 3.438Q7.958 3.438 6.552 4.854Q5.146 6.271 5.146 8.312Q5.146 10.333 6.552 11.75Q7.958 13.167 10 13.167Z"/></svg>