<svg xmlns="http://www.w3.org/2000/svg" height="48" viewBox="0 96 960 960" width="48"><path d="M480 764.5q75.378 0 129.439-51Q663.5 662.5 669 587h-37.5q-4.5 60-48 100t-103.775 40q-63.276 0-107-43.811Q329 639.379 329 575.939q0-63.439 43.793-107.439 43.793-44 107.207-44h7L429 486l26 27 104.5-104L455 304.5 428 332l55 55q-79.5 2-135.5 56.5t-56 132.748q0 78.215 55.061 133.233Q401.622 764.5 480 764.5Zm.202 231.5q-87.109 0-163.755-32.847-76.646-32.846-133.713-90.012-57.067-57.166-89.9-133.539Q60 663.229 60 576.202q0-88.109 32.847-164.755t89.855-133.515q57.009-56.87 133.455-89.901Q392.604 155 479.714 155q88.193 0 164.963 33.085t133.559 89.803q56.789 56.717 89.777 133.268Q901 487.706 901 575.936q0 87.246-33.044 163.876-33.044 76.63-90.013 133.575-56.968 56.946-133.341 89.779Q568.229 996 480.202 996Zm-.235-91.5q136.533 0 232.533-95.839t96-232.628q0-136.533-95.967-232.533t-233-96q-136.033 0-232.033 95.967t-96 233q0 136.033 95.839 232.033t232.628 96ZM480 576Z"/></svg>