<svg xmlns="http://www.w3.org/2000/svg" height="20" viewBox="0 -960 960 960" width="20"><path d="m480-241.38 94.76-94.76q11.14-11.01 25.65-11.21 14.51-.19 26.82 11.62 12.31 11.81 12.81 26.19.5 14.39-11.71 26.62l-116.6 116.98q-6.99 7.26-14.83 10.25-7.83 3-16.9 3-9.07 0-16.9-3-7.84-2.99-14.83-10.25l-116.6-116.98q-11.82-11.85-11.02-26.43.81-14.57 13.12-26.38 12.31-11.81 26.19-12.31 13.89-.5 26.16 11.9L480-241.38Zm0-484.78-94.76 94.77q-11.14 11-25.65 11.2-14.51.19-26.82-11.62-12.31-11.81-12.81-26.19t11.71-26.62l116.6-116.97q6.99-7.27 14.83-10.26 7.83-3 16.9-3 9.07 0 16.9 3 7.84 2.99 14.83 10.26l116.6 116.97q11.82 11.85 11.52 25.93-.31 14.07-12.62 25.88-12.31 11.81-26.19 12.31-13.89.5-26.28-11.78L480-726.16Z"/></svg>