<svg xmlns="http://www.w3.org/2000/svg" height="20" width="20"><path d="M8.375 8.167h5.708q.229 0 .427-.188.198-.187.198-.437 0-.23-.198-.427-.198-.198-.427-.198H8.375q-.25 0-.437.198-.188.197-.188.427 0 .25.188.437.187.188.437.188Zm0 3.271h5.708q.229 0 .427-.198.198-.198.198-.428 0-.25-.198-.437t-.427-.187H8.375q-.25 0-.437.187-.188.187-.188.437 0 .23.188.428.187.198.437.198ZM5.938 8.229q.291 0 .489-.208.198-.209.198-.479 0-.271-.198-.479-.198-.209-.469-.209-.291 0-.489.209-.198.208-.198.479 0 .27.198.479.198.208.469.208Zm0 3.25q.291 0 .489-.198t.198-.469q0-.27-.198-.479-.198-.208-.469-.208-.291 0-.489.198t-.198.469q0 .291.198.489t.469.198Zm1.937 5.459q-.313 0-.531-.23-.219-.229-.219-.52v-.896H3.75q-.625 0-1.062-.448-.438-.448-.438-1.073V4.583q0-.645.438-1.083.437-.438 1.062-.438h12.5q.625 0 1.062.438.438.438.438 1.083v9.188q0 .625-.438 1.073-.437.448-1.062.448h-3.375v.896q0 .291-.219.52-.218.23-.531.23Z"/></svg>