<svg xmlns="http://www.w3.org/2000/svg" height="40" width="40"><path d="M32.958 34.417 5.625 7.042l.708-.709 27.375 27.375Zm-.166-10.084L31.375 21h-3v2.875l-1.083-1.083v-7.125h4.625q1 0 1.708.708t.708 1.708v.5q0 .875-.541 1.5-.542.625-1.334.792l1.5 3.458Zm-4.417-4.416h3.583q.5 0 .917-.417.417-.417.417-.917v-.541q0-.5-.417-.917-.417-.417-.917-.417h-3.583ZM23.542 19l-3.334-3.333h.917q.917 0 1.667.708t.75 1.708ZM5.667 24.333v-8.666h1.041v3.416h4.834v-3.416h1.083v8.666h-1.083v-4.208H6.708v4.208Zm10.791-7.041 1.084 1.083v4.917h3.583q.25 0 .479-.125.229-.125.438-.292l.75.75q-.334.292-.771.5-.438.208-.896.208h-4.667Z"/></svg>