<svg xmlns="http://www.w3.org/2000/svg" version="1.1" width="3300" height="2000"><g id="Notes"><style>
    text {
      font-family: monospace;
      text-anchor: middle;
    }
    text.emphasis {
      font-weight:bold;
    }
    text.lanchor {
      text-anchor: start;
    }
  </style><rect height="2200" id="artboard" fill="white" width="3300" x="0" y="0"/><line id="" style="fill:none;stroke:black;stroke-width:0.5;" x1="263" x2="3036" y1="292" y2="292"/><text class="lanchor emphasis" transform="matrix(1 0 0 1 263 322)">Weight/Scale Variations</text><text transform="matrix(1 0 0 1 559.711 322)">Ultralight</text><text transform="matrix(1 0 0 1 856.422 322)">Thin</text><text transform="matrix(1 0 0 1 1153.13 322)">Light</text><text transform="matrix(1 0 0 1 1449.84 322)">Regular</text><text transform="matrix(1 0 0 1 1746.56 322)">Medium</text><text transform="matrix(1 0 0 1 2043.27 322)">Semibold</text><text transform="matrix(1 0 0 1 2339.98 322)">Bold</text><text transform="matrix(1 0 0 1 2636.69 322)">Heavy</text><text transform="matrix(1 0 0 1 2933.4 322)">Black</text><text id="template-version" style="text-anchor: end;" transform="matrix(1 0 0 1 3036 1933)">Template v.1.0</text><text class="lanchor" transform="matrix(1 0 0 1 263 726)">Small</text><text class="lanchor" transform="matrix(1 0 0 1 263 1156)">Medium</text><text class="lanchor" transform="matrix(1 0 0 1 263 1586)">Large</text></g><g id="Guides"><g id="H-reference" style="fill:#27AAE1;stroke:none;" transform="matrix(1 0 0 1 339 696)"><path d="M 54.9316 0 L 57.666 0 L 30.5664 -70.459 L 28.0762 -70.459 L 0.976562 0 L 3.66211 0 L 12.9395 -24.4629 L 45.7031 -24.4629 Z M 29.1992 -67.0898 L 29.4434 -67.0898 L 44.8242 -26.709 L 13.8184 -26.709 Z"/></g><line id="Baseline-S" style="fill:none;stroke:#27AAE1;opacity:1;stroke-width:0.577;" x1="263" x2="3036" y1="696" y2="696"/><line id="Capline-S" style="fill:none;stroke:#27AAE1;opacity:1;stroke-width:0.577;" x1="263" x2="3036" y1="625.541" y2="625.541"/><g id="H-reference" style="fill:#27AAE1;stroke:none;" transform="matrix(1 0 0 1 339 1126)"><path d="M 54.9316 0 L 57.666 0 L 30.5664 -70.459 L 28.0762 -70.459 L 0.976562 0 L 3.66211 0 L 12.9395 -24.4629 L 45.7031 -24.4629 Z M 29.1992 -67.0898 L 29.4434 -67.0898 L 44.8242 -26.709 L 13.8184 -26.709 Z"/></g><line id="Baseline-M" style="fill:none;stroke:#27AAE1;opacity:1;stroke-width:0.577;" x1="263" x2="3036" y1="1126" y2="1126"/><line id="Capline-M" style="fill:none;stroke:#27AAE1;opacity:1;stroke-width:0.577;" x1="263" x2="3036" y1="1055.54" y2="1055.54"/><g id="H-reference" style="fill:#27AAE1;stroke:none;" transform="matrix(1 0 0 1 339 1556)"><path d="M 54.9316 0 L 57.666 0 L 30.5664 -70.459 L 28.0762 -70.459 L 0.976562 0 L 3.66211 0 L 12.9395 -24.4629 L 45.7031 -24.4629 Z M 29.1992 -67.0898 L 29.4434 -67.0898 L 44.8242 -26.709 L 13.8184 -26.709 Z"/></g><line id="Baseline-L" style="fill:none;stroke:#27AAE1;opacity:1;stroke-width:0.577;" x1="263" x2="3036" y1="1556" y2="1556"/><line id="Capline-L" style="fill:none;stroke:#27AAE1;opacity:1;stroke-width:0.577;" x1="263" x2="3036" y1="1485.54" y2="1485.54"/><rect height="119.336" id="left-margin" style="fill:darkred;stroke:none;opacity:0.4;" width="12.4512" x="1394.06" y="1030.79"/><rect height="119.336" id="right-margin" style="fill:darkgreen;stroke:none;opacity:0.4;" width="12.4512" x="1502.5112" y="1030.79"/><rect x="1406.5112" y="1045" width="96" height="96" fill="none" stroke="blue" stroke-dasharray="5"/><rect x="1394.06" y="1030.79" width="120.9024" height="119.336" fill="none" stroke="blue"/></g><g id="Symbols"><g id="Bold-L" transform="matrix(1 0 0 1 2266 1556)"><path d="M110.94 26.126 Q107.836 26.126 105.679 23.969 Q103.523 21.812 103.523 18.708 V-47.404 Q103.523 -53.653 99.189 -57.986 Q94.855 -62.32 88.607 -62.32 H66.677 Q63.573 -62.32 61.456 -64.477 Q59.34 -66.633 59.34 -69.737 V-91.184 Q59.34 -94.207 61.456 -96.364 Q63.573 -98.521 66.677 -98.521 H132.386 Q135.41 -98.521 137.566 -96.364 Q139.723 -94.207 139.723 -91.184 V18.708 Q139.723 21.812 137.566 23.969 Q135.41 26.126 132.386 26.126 H110.94 Z M66.677 26.126 Q63.573 26.126 61.456 23.969 Q59.34 21.812 59.34 18.708 V-40.067 Q59.34 -43.091 61.456 -45.248 Q63.573 -47.404 66.677 -47.404 H81.27 Q84.293 -47.404 86.45 -45.248 Q88.607 -43.091 88.607 -40.067 V18.708 Q88.607 21.812 86.45 23.969 Q84.293 26.126 81.27 26.126 H66.677 Z M22.656 26.126 Q19.39 26.126 17.234 23.969 Q15.077 21.812 15.077 18.708 V-40.067 Q15.077 -43.091 17.234 -45.248 Q19.39 -47.404 22.656 -47.404 H37.007 Q40.111 -47.404 42.348 -45.248 Q44.586 -43.091 44.586 -40.067 V18.708 Q44.586 21.812 42.348 23.969 Q40.111 26.126 37.007 26.126 H22.656 Z"/></g><g id="Semibold-L" transform="matrix(1 0 0 1 1970.27 1556)"><path d="M108.346 24.373 Q105.733 24.373 103.927 22.567 Q102.12 20.761 102.12 18.147 V-48.035 Q102.12 -53.232 98.488 -56.865 Q94.855 -60.497 89.658 -60.497 H65.906 Q63.292 -60.497 61.527 -62.304 Q59.761 -64.11 59.761 -66.723 V-89.782 Q59.761 -92.314 61.527 -94.121 Q63.292 -95.927 65.906 -95.927 H131.405 Q133.937 -95.927 135.744 -94.121 Q137.55 -92.314 137.55 -89.782 V18.147 Q137.55 20.761 135.744 22.567 Q133.937 24.373 131.405 24.373 H108.346 Z M65.906 24.373 Q63.292 24.373 61.527 22.567 Q59.761 20.761 59.761 18.147 V-41.89 Q59.761 -44.423 61.527 -46.229 Q63.292 -48.035 65.906 -48.035 H83.513 Q86.046 -48.035 87.852 -46.229 Q89.658 -44.423 89.658 -41.89 V18.147 Q89.658 20.761 87.852 22.567 Q86.046 24.373 83.513 24.373 H65.906 Z M23.567 24.373 Q20.863 24.373 19.056 22.567 Q17.25 20.761 17.25 18.147 V-41.89 Q17.25 -44.423 19.056 -46.229 Q20.863 -48.035 23.567 -48.035 H41.073 Q43.686 -48.035 45.538 -46.229 Q47.39 -44.423 47.39 -41.89 V18.147 Q47.39 20.761 45.538 22.567 Q43.686 24.373 41.073 24.373 H23.567 Z"/></g><g id="Medium-L" transform="matrix(1 0 0 1 1674.31 1556)"><path d="M106.4 23.058 Q104.155 23.058 102.612 21.515 Q101.069 19.972 101.069 17.727 V-48.509 Q101.069 -52.917 97.962 -56.023 Q94.855 -59.13 90.447 -59.13 H65.327 Q63.082 -59.13 61.579 -60.673 Q60.076 -62.217 60.076 -64.462 V-88.73 Q60.076 -90.895 61.579 -92.438 Q63.082 -93.981 65.327 -93.981 H130.669 Q132.833 -93.981 134.377 -92.438 Q135.92 -90.895 135.92 -88.73 V17.727 Q135.92 19.972 134.377 21.515 Q132.833 23.058 130.669 23.058 H106.4 Z M65.327 23.058 Q63.082 23.058 61.579 21.515 Q60.076 19.972 60.076 17.727 V-43.257 Q60.076 -45.422 61.579 -46.965 Q63.082 -48.509 65.327 -48.509 H85.196 Q87.361 -48.509 88.904 -46.965 Q90.447 -45.422 90.447 -43.257 V17.727 Q90.447 19.972 88.904 21.515 Q87.361 23.058 85.196 23.058 H65.327 Z M24.251 23.058 Q21.967 23.058 20.423 21.515 Q18.88 19.972 18.88 17.727 V-43.257 Q18.88 -45.422 20.423 -46.965 Q21.967 -48.509 24.251 -48.509 H44.123 Q46.368 -48.509 47.931 -46.965 Q49.493 -45.422 49.493 -43.257 V17.727 Q49.493 19.972 47.931 21.515 Q46.368 23.058 44.123 23.058 H24.251 Z"/></g><g id="Regular-L" transform="matrix(1 0 0 1 1378.56 1556)"><path d="M104.974 22.094 Q102.998 22.094 101.648 20.744 Q100.297 19.393 100.297 17.418 V-48.856 Q100.297 -52.685 97.576 -55.406 Q94.855 -58.127 91.026 -58.127 H64.903 Q62.928 -58.127 61.618 -59.478 Q60.308 -60.828 60.308 -62.804 V-87.959 Q60.308 -89.853 61.618 -91.204 Q62.928 -92.554 64.903 -92.554 H130.129 Q132.023 -92.554 133.374 -91.204 Q134.724 -89.853 134.724 -87.959 V17.418 Q134.724 19.393 133.374 20.744 Q132.023 22.094 130.129 22.094 H104.974 Z M64.903 22.094 Q62.928 22.094 61.618 20.744 Q60.308 19.393 60.308 17.418 V-44.26 Q60.308 -46.155 61.618 -47.505 Q62.928 -48.856 64.903 -48.856 H86.43 Q88.325 -48.856 89.675 -47.505 Q91.026 -46.155 91.026 -44.26 V17.418 Q91.026 19.393 89.675 20.744 Q88.325 22.094 86.43 22.094 H64.903 Z M24.752 22.094 Q22.777 22.094 21.426 20.744 Q20.076 19.393 20.076 17.418 V-44.26 Q20.076 -46.155 21.426 -47.505 Q22.777 -48.856 24.752 -48.856 H46.359 Q48.335 -48.856 49.685 -47.505 Q51.036 -46.155 51.036 -44.26 V17.418 Q51.036 19.393 49.685 20.744 Q48.335 22.094 46.359 22.094 H24.752 Z"/></g><g id="Light-L" transform="matrix(1 0 0 1 1082.77 1556)"><path d="M102.524 19.148 Q100.564 19.148 99.252 17.837 Q97.941 16.525 97.941 14.565 V-46.716 Q97.941 -50.406 95.258 -53.088 Q92.576 -55.771 88.886 -55.771 H65.058 Q63.098 -55.771 61.842 -57.082 Q60.587 -58.394 60.587 -60.354 V-85.137 Q60.587 -86.985 61.842 -88.297 Q63.098 -89.608 65.058 -89.608 H127.307 Q129.155 -89.608 130.467 -88.297 Q131.778 -86.985 131.778 -85.137 V14.565 Q131.778 16.525 130.467 17.837 Q129.155 19.148 127.307 19.148 H102.524 Z M65.058 19.148 Q63.098 19.148 61.842 17.837 Q60.587 16.525 60.587 14.565 V-44.229 Q60.587 -46.015 61.842 -47.358 Q63.098 -48.701 65.058 -48.701 H86.399 Q88.185 -48.701 89.528 -47.358 Q90.871 -46.015 90.871 -44.229 V14.565 Q90.871 16.525 89.528 17.837 Q88.185 19.148 86.399 19.148 H65.058 Z M27.605 19.148 Q25.645 19.148 24.333 17.837 Q23.022 16.525 23.022 14.565 V-44.229 Q23.022 -46.015 24.333 -47.358 Q25.645 -48.701 27.605 -48.701 H48.933 Q50.893 -48.701 52.205 -47.358 Q53.517 -46.015 53.517 -44.229 V14.565 Q53.517 16.525 52.205 17.837 Q50.893 19.148 48.933 19.148 H27.605 Z"/></g><g id="Thin-L" transform="matrix(1 0 0 1 787.282 1556)"><path d="M100.074 16.203 Q98.13 16.203 96.857 14.93 Q95.584 13.657 95.584 11.712 V-44.576 Q95.584 -48.127 92.94 -50.77 Q90.297 -53.414 86.746 -53.414 H65.213 Q63.269 -53.414 62.067 -54.687 Q60.866 -55.96 60.866 -57.904 V-82.315 Q60.866 -84.117 62.067 -85.39 Q63.269 -86.663 65.213 -86.663 H124.485 Q126.287 -86.663 127.56 -85.39 Q128.833 -84.117 128.833 -82.315 V11.712 Q128.833 13.657 127.56 14.93 Q126.287 16.203 124.485 16.203 H100.074 Z M65.213 16.203 Q63.269 16.203 62.067 14.93 Q60.866 13.657 60.866 11.712 V-44.198 Q60.866 -45.876 62.067 -47.211 Q63.269 -48.546 65.213 -48.546 H86.368 Q88.046 -48.546 89.381 -47.211 Q90.716 -45.876 90.716 -44.198 V11.712 Q90.716 13.657 89.381 14.93 Q88.046 16.203 86.368 16.203 H65.213 Z M30.458 16.203 Q28.513 16.203 27.24 14.93 Q25.967 13.657 25.967 11.712 V-44.198 Q25.967 -45.876 27.24 -47.211 Q28.513 -48.546 30.458 -48.546 H51.507 Q53.451 -48.546 54.724 -47.211 Q55.997 -45.876 55.997 -44.198 V11.712 Q55.997 13.657 54.724 14.93 Q53.451 16.203 51.507 16.203 H30.458 Z"/></g><g id="Ultralight-L" transform="matrix(1 0 0 1 491.205 1556)"><path d="M98.604 14.435 Q96.669 14.435 95.42 13.185 Q94.17 11.936 94.17 10.001 V-43.292 Q94.17 -46.759 91.55 -49.38 Q88.929 -52 85.463 -52 H65.306 Q63.371 -52 62.202 -53.25 Q61.033 -54.499 61.033 -56.434 V-80.622 Q61.033 -82.396 62.202 -83.645 Q63.371 -84.895 65.306 -84.895 H122.792 Q124.566 -84.895 125.815 -83.645 Q127.065 -82.396 127.065 -80.622 V10.001 Q127.065 11.936 125.815 13.185 Q124.566 14.435 122.792 14.435 H98.604 Z M65.306 14.435 Q63.371 14.435 62.202 13.185 Q61.033 11.936 61.033 10.001 V-44.179 Q61.033 -45.792 62.202 -47.122 Q63.371 -48.452 65.306 -48.452 H86.349 Q87.962 -48.452 89.292 -47.122 Q90.623 -45.792 90.623 -44.179 V10.001 Q90.623 11.936 89.292 13.185 Q87.962 14.435 86.349 14.435 H65.306 Z M32.169 14.435 Q30.234 14.435 28.985 13.185 Q27.735 11.936 27.735 10.001 V-44.179 Q27.735 -45.792 28.985 -47.122 Q30.234 -48.452 32.169 -48.452 H53.051 Q54.986 -48.452 56.236 -47.122 Q57.486 -45.792 57.486 -44.179 V10.001 Q57.486 11.936 56.236 13.185 Q54.986 14.435 53.051 14.435 H32.169 Z"/></g><g id="Bold-M" transform="matrix(1 0 0 1 2281.8 1126)"><path d="M90.062 12.895 Q87 12.895 84.75 10.645 Q82.5 8.395 82.5 5.333 V-43.605 Q82.5 -49.98 78.125 -54.355 Q73.75 -58.73 67.375 -58.73 H54.25 Q51.188 -58.73 48.938 -60.98 Q46.688 -63.23 46.688 -66.292 V-77.667 Q46.688 -80.73 48.938 -82.98 Q51.188 -85.23 54.25 -85.23 H101.438 Q104.5 -85.23 106.75 -82.98 Q109 -80.73 109 -77.667 V5.333 Q109 8.395 106.75 10.645 Q104.5 12.895 101.438 12.895 H90.062 Z M54.25 12.895 Q51.188 12.895 48.938 10.645 Q46.688 8.395 46.688 5.333 V-36.042 Q46.688 -39.105 48.938 -41.355 Q51.188 -43.605 54.25 -43.605 H59.812 Q62.875 -43.605 65.125 -41.355 Q67.375 -39.105 67.375 -36.042 V5.333 Q67.375 8.395 65.125 10.645 Q62.875 12.895 59.812 12.895 H54.25 Z M18.562 12.895 Q15.5 12.895 13.25 10.645 Q11 8.395 11 5.333 V-36.042 Q11 -39.105 13.25 -41.355 Q15.5 -43.605 18.562 -43.605 H24 Q27.062 -43.605 29.312 -41.355 Q31.562 -39.105 31.562 -36.042 V5.333 Q31.562 8.395 29.312 10.645 Q27.062 12.895 24 12.895 H18.562 Z"/></g><g id="Semibold-M" transform="matrix(1 0 0 1 1985.97 1126)"><path d="M87.4 11.047 Q84.826 11.047 82.957 9.178 Q81.087 7.308 81.087 4.735 V-44.257 Q81.087 -49.545 77.418 -53.214 Q73.75 -56.882 68.462 -56.882 H53.435 Q50.861 -56.882 48.992 -58.752 Q47.122 -60.621 47.122 -63.195 V-76.254 Q47.122 -78.828 48.992 -80.697 Q50.861 -82.567 53.435 -82.567 H100.459 Q103.033 -82.567 104.902 -80.697 Q106.772 -78.828 106.772 -76.254 V4.735 Q106.772 7.308 104.902 9.178 Q103.033 11.047 100.459 11.047 H87.4 Z M53.435 11.047 Q50.861 11.047 48.992 9.178 Q47.122 7.308 47.122 4.735 V-37.944 Q47.122 -40.518 48.992 -42.387 Q50.861 -44.257 53.435 -44.257 H62.149 Q64.723 -44.257 66.592 -42.387 Q68.462 -40.518 68.462 -37.944 V4.735 Q68.462 7.308 66.592 9.178 Q64.723 11.047 62.149 11.047 H53.435 Z M19.541 11.047 Q16.967 11.047 15.098 9.178 Q13.228 7.308 13.228 4.735 V-37.944 Q13.228 -40.518 15.098 -42.387 Q16.967 -44.257 19.541 -44.257 H28.184 Q30.758 -44.257 32.627 -42.387 Q34.497 -40.518 34.497 -37.944 V4.735 Q34.497 7.308 32.627 9.178 Q30.758 11.047 28.184 11.047 H19.541 Z"/></g><g id="Medium-M" transform="matrix(1 0 0 1 1689.91 1126)"><path d="M85.402 9.661 Q83.196 9.661 81.611 8.077 Q80.027 6.493 80.027 4.286 V-44.746 Q80.027 -49.219 76.889 -52.358 Q73.75 -55.496 69.277 -55.496 H52.823 Q50.617 -55.496 49.033 -57.081 Q47.448 -58.665 47.448 -60.871 V-75.195 Q47.448 -77.401 49.033 -78.985 Q50.617 -80.57 52.823 -80.57 H99.725 Q101.932 -80.57 103.516 -78.985 Q105.101 -77.401 105.101 -75.195 V4.286 Q105.101 6.493 103.516 8.077 Q101.932 9.661 99.725 9.661 H85.402 Z M52.823 9.661 Q50.617 9.661 49.033 8.077 Q47.448 6.493 47.448 4.286 V-39.371 Q47.448 -41.578 49.033 -43.162 Q50.617 -44.746 52.823 -44.746 H63.902 Q66.109 -44.746 67.693 -43.162 Q69.277 -41.578 69.277 -39.371 V4.286 Q69.277 6.493 67.693 8.077 Q66.109 9.661 63.902 9.661 H52.823 Z M20.274 9.661 Q18.068 9.661 16.484 8.077 Q14.899 6.493 14.899 4.286 V-39.371 Q14.899 -41.578 16.484 -43.162 Q18.068 -44.746 20.274 -44.746 H31.323 Q33.53 -44.746 35.114 -43.162 Q36.698 -41.578 36.698 -39.371 V4.286 Q36.698 6.493 35.114 8.077 Q33.53 9.661 31.323 9.661 H20.274 Z"/></g><g id="Regular-M" transform="matrix(1 0 0 1 1394.06 1126)"><path d="M83.938 8.645 Q82 8.645 80.625 7.27 Q79.25 5.895 79.25 3.958 V-45.105 Q79.25 -48.98 76.5 -51.73 Q73.75 -54.48 69.875 -54.48 H52.375 Q50.438 -54.48 49.062 -55.855 Q47.688 -57.23 47.688 -59.167 V-74.417 Q47.688 -76.355 49.062 -77.73 Q50.438 -79.105 52.375 -79.105 H99.188 Q101.125 -79.105 102.5 -77.73 Q103.875 -76.355 103.875 -74.417 V3.958 Q103.875 5.895 102.5 7.27 Q101.125 8.645 99.188 8.645 H83.938 Z M52.375 8.645 Q50.438 8.645 49.062 7.27 Q47.688 5.895 47.688 3.958 V-40.417 Q47.688 -42.355 49.062 -43.73 Q50.438 -45.105 52.375 -45.105 H65.188 Q67.125 -45.105 68.5 -43.73 Q69.875 -42.355 69.875 -40.417 V3.958 Q69.875 5.895 68.5 7.27 Q67.125 8.645 65.188 8.645 H52.375 Z M20.812 8.645 Q18.875 8.645 17.5 7.27 Q16.125 5.895 16.125 3.958 V-40.417 Q16.125 -42.355 17.5 -43.73 Q18.875 -45.105 20.812 -45.105 H33.625 Q35.562 -45.105 36.938 -43.73 Q38.312 -42.355 38.312 -40.417 V3.958 Q38.312 5.895 36.938 7.27 Q35.562 8.645 33.625 8.645 H20.812 Z"/></g><g id="Light-M" transform="matrix(1 0 0 1 1098.18 1126)"><path d="M81.173 6.361 Q79.392 6.361 78.143 5.112 Q76.894 3.864 76.894 2.082 V-43.59 Q76.894 -47.117 74.391 -49.62 Q71.887 -52.124 68.361 -52.124 H51.918 Q50.137 -52.124 48.9 -53.373 Q47.663 -54.622 47.663 -56.403 V-72.566 Q47.663 -74.324 48.9 -75.572 Q50.137 -76.821 51.918 -76.821 H97.336 Q99.094 -76.821 100.342 -75.572 Q101.591 -74.324 101.591 -72.566 V2.082 Q101.591 3.864 100.342 5.112 Q99.094 6.361 97.336 6.361 H81.173 Z M51.918 6.361 Q50.137 6.361 48.9 5.112 Q47.663 3.864 47.663 2.082 V-40.874 Q47.663 -42.631 48.9 -43.88 Q50.137 -45.129 51.918 -45.129 H65.644 Q67.401 -45.129 68.65 -43.88 Q69.899 -42.631 69.899 -40.874 V2.082 Q69.899 3.864 68.65 5.112 Q67.401 6.361 65.644 6.361 H51.918 Z M22.688 6.361 Q20.906 6.361 19.658 5.112 Q18.409 3.864 18.409 2.082 V-40.874 Q18.409 -42.631 19.658 -43.88 Q20.906 -45.129 22.688 -45.129 H36.39 Q38.171 -45.129 39.42 -43.88 Q40.669 -42.631 40.669 -40.874 V2.082 Q40.669 3.864 39.42 5.112 Q38.171 6.361 36.39 6.361 H22.688 Z"/></g><g id="Thin-M" transform="matrix(1 0 0 1 802.565 1126)"><path d="M78.409 4.078 Q76.784 4.078 75.661 2.955 Q74.538 1.833 74.538 0.208 V-42.076 Q74.538 -45.254 72.281 -47.511 Q70.024 -49.768 66.846 -49.768 H51.462 Q49.837 -49.768 48.738 -50.891 Q47.639 -52.014 47.639 -53.639 V-70.716 Q47.639 -72.292 48.738 -73.415 Q49.837 -74.538 51.462 -74.538 H95.486 Q97.062 -74.538 98.185 -73.415 Q99.308 -72.292 99.308 -70.716 V0.208 Q99.308 1.833 98.185 2.955 Q97.062 4.078 95.486 4.078 H78.409 Z M51.462 4.078 Q49.837 4.078 48.738 2.955 Q47.639 1.833 47.639 0.208 V-41.331 Q47.639 -42.908 48.738 -44.03 Q49.837 -45.153 51.462 -45.153 H66.101 Q67.678 -45.153 68.8 -44.03 Q69.923 -42.908 69.923 -41.331 V0.208 Q69.923 1.833 68.8 2.955 Q67.678 4.078 66.101 4.078 H51.462 Z M24.562 4.078 Q22.938 4.078 21.815 2.955 Q20.692 1.833 20.692 0.208 V-41.331 Q20.692 -42.908 21.815 -44.03 Q22.938 -45.153 24.562 -45.153 H39.154 Q40.779 -45.153 41.901 -44.03 Q43.024 -42.908 43.024 -41.331 V0.208 Q43.024 1.833 41.901 2.955 Q40.779 4.078 39.154 4.078 H24.562 Z"/></g><g id="Ultralight-M" transform="matrix(1 0 0 1 506.415 1126)"><path d="M76.75 2.708 Q75.219 2.708 74.172 1.661 Q73.125 0.614 73.125 -0.917 V-41.167 Q73.125 -44.136 71.016 -46.246 Q68.906 -48.355 65.938 -48.355 H51.188 Q49.656 -48.355 48.641 -49.402 Q47.625 -50.449 47.625 -51.98 V-69.605 Q47.625 -71.074 48.641 -72.121 Q49.656 -73.167 51.188 -73.167 H94.375 Q95.844 -73.167 96.891 -72.121 Q97.938 -71.074 97.938 -69.605 V-0.917 Q97.938 0.614 96.891 1.661 Q95.844 2.708 94.375 2.708 H76.75 Z M51.188 2.708 Q49.656 2.708 48.641 1.661 Q47.625 0.614 47.625 -0.917 V-41.605 Q47.625 -43.074 48.641 -44.121 Q49.656 -45.167 51.188 -45.167 H66.375 Q67.844 -45.167 68.891 -44.121 Q69.938 -43.074 69.938 -41.605 V-0.917 Q69.938 0.614 68.891 1.661 Q67.844 2.708 66.375 2.708 H51.188 Z M25.688 2.708 Q24.156 2.708 23.109 1.661 Q22.062 0.614 22.062 -0.917 V-41.605 Q22.062 -43.074 23.109 -44.121 Q24.156 -45.167 25.688 -45.167 H40.812 Q42.344 -45.167 43.391 -44.121 Q44.438 -43.074 44.438 -41.605 V-0.917 Q44.438 0.614 43.391 1.661 Q42.344 2.708 40.812 2.708 H25.688 Z"/></g><g id="Bold-S" transform="matrix(1 0 0 1 2294.23 696)"><path d="M69.087 0.374 Q66.838 0.374 65.176 -1.288 Q63.515 -2.95 63.515 -5.199 V-41.049 Q63.515 -45.753 60.294 -48.973 Q57.074 -52.193 52.37 -52.193 H42.803 Q40.555 -52.193 38.893 -53.855 Q37.231 -55.517 37.231 -57.766 V-66.741 Q37.231 -68.989 38.893 -70.651 Q40.555 -72.313 42.803 -72.313 H78.062 Q80.31 -72.313 81.972 -70.651 Q83.634 -68.989 83.634 -66.741 V-5.199 Q83.634 -2.95 81.972 -1.288 Q80.31 0.374 78.062 0.374 H69.087 Z M42.803 0.374 Q40.555 0.374 38.893 -1.288 Q37.231 -2.95 37.231 -5.199 V-35.477 Q37.231 -37.725 38.893 -39.387 Q40.555 -41.049 42.803 -41.049 H46.798 Q49.046 -41.049 50.708 -39.387 Q52.37 -37.725 52.37 -35.477 V-5.199 Q52.37 -2.95 50.708 -1.288 Q49.046 0.374 46.798 0.374 H42.803 Z M16.618 0.374 Q14.37 0.374 12.708 -1.288 Q11.046 -2.95 11.046 -5.199 V-35.477 Q11.046 -37.725 12.708 -39.387 Q14.37 -41.049 16.618 -41.049 H20.514 Q22.763 -41.049 24.424 -39.387 Q26.086 -37.725 26.086 -35.477 V-5.199 Q26.086 -2.95 24.424 -1.288 Q22.763 0.374 20.514 0.374 H16.618 Z"/></g><g id="Semibold-S" transform="matrix(1 0 0 1 1998.1 696)"><path d="M66.986 -1.084 Q65.123 -1.084 63.761 -2.446 Q62.4 -3.808 62.4 -5.67 V-41.563 Q62.4 -45.41 59.737 -48.073 Q57.074 -50.736 53.227 -50.736 H42.16 Q40.297 -50.736 38.936 -52.097 Q37.574 -53.459 37.574 -55.322 V-65.626 Q37.574 -67.489 38.936 -68.85 Q40.297 -70.212 42.16 -70.212 H77.29 Q79.153 -70.212 80.514 -68.85 Q81.876 -67.489 81.876 -65.626 V-5.67 Q81.876 -3.808 80.514 -2.446 Q79.153 -1.084 77.29 -1.084 H66.986 Z M42.16 -1.084 Q40.297 -1.084 38.936 -2.446 Q37.574 -3.808 37.574 -5.67 V-36.977 Q37.574 -38.84 38.936 -40.202 Q40.297 -41.563 42.16 -41.563 H48.641 Q50.504 -41.563 51.866 -40.202 Q53.227 -38.84 53.227 -36.977 V-5.67 Q53.227 -3.808 51.866 -2.446 Q50.504 -1.084 48.641 -1.084 H42.16 Z M17.39 -1.084 Q15.527 -1.084 14.166 -2.446 Q12.804 -3.808 12.804 -5.67 V-36.977 Q12.804 -38.84 14.166 -40.202 Q15.527 -41.563 17.39 -41.563 H23.816 Q25.678 -41.563 27.04 -40.202 Q28.402 -38.84 28.402 -36.977 V-5.67 Q28.402 -3.808 27.04 -2.446 Q25.678 -1.084 23.816 -1.084 H17.39 Z"/></g><g id="Medium-S" transform="matrix(1 0 0 1 1701.85 696)"><path d="M65.41 -2.178 Q63.837 -2.178 62.7 -3.314 Q61.564 -4.451 61.564 -6.024 V-41.949 Q61.564 -45.153 59.319 -47.398 Q57.074 -49.642 53.871 -49.642 H41.678 Q40.104 -49.642 38.968 -50.779 Q37.831 -51.915 37.831 -53.489 V-64.79 Q37.831 -66.363 38.968 -67.5 Q40.104 -68.636 41.678 -68.636 H76.711 Q78.284 -68.636 79.421 -67.5 Q80.557 -66.363 80.557 -64.79 V-6.024 Q80.557 -4.451 79.421 -3.314 Q78.284 -2.178 76.711 -2.178 H65.41 Z M41.678 -2.178 Q40.104 -2.178 38.968 -3.314 Q37.831 -4.451 37.831 -6.024 V-38.103 Q37.831 -39.676 38.968 -40.813 Q40.104 -41.949 41.678 -41.949 H50.024 Q51.598 -41.949 52.734 -40.813 Q53.871 -39.676 53.871 -38.103 V-6.024 Q53.871 -4.451 52.734 -3.314 Q51.598 -2.178 50.024 -2.178 H41.678 Z M17.969 -2.178 Q16.396 -2.178 15.259 -3.314 Q14.123 -4.451 14.123 -6.024 V-38.103 Q14.123 -39.676 15.259 -40.813 Q16.396 -41.949 17.969 -41.949 H26.292 Q27.865 -41.949 29.002 -40.813 Q30.139 -39.676 30.139 -38.103 V-6.024 Q30.139 -4.451 29.002 -3.314 Q27.865 -2.178 26.292 -2.178 H17.969 Z"/></g><g id="Regular-S" transform="matrix(1 0 0 1 1405.73 696)"><path d="M64.254 -2.98 Q62.893 -2.98 61.922 -3.951 Q60.95 -4.923 60.95 -6.284 V-42.232 Q60.95 -44.964 59.012 -46.902 Q57.074 -48.84 54.342 -48.84 H41.324 Q39.963 -48.84 38.991 -49.812 Q38.02 -50.783 38.02 -52.144 V-64.176 Q38.02 -65.537 38.991 -66.509 Q39.963 -67.48 41.324 -67.48 H76.286 Q77.647 -67.48 78.619 -66.509 Q79.59 -65.537 79.59 -64.176 V-6.284 Q79.59 -4.923 78.619 -3.951 Q77.647 -2.98 76.286 -2.98 H64.254 Z M41.324 -2.98 Q39.963 -2.98 38.991 -3.951 Q38.02 -4.923 38.02 -6.284 V-38.928 Q38.02 -40.289 38.991 -41.261 Q39.963 -42.232 41.324 -42.232 H51.038 Q52.399 -42.232 53.371 -41.261 Q54.342 -40.289 54.342 -38.928 V-6.284 Q54.342 -4.923 53.371 -3.951 Q52.399 -2.98 51.038 -2.98 H41.324 Z M18.394 -2.98 Q17.033 -2.98 16.061 -3.951 Q15.09 -4.923 15.09 -6.284 V-38.928 Q15.09 -40.289 16.061 -41.261 Q17.033 -42.232 18.394 -42.232 H28.108 Q29.469 -42.232 30.441 -41.261 Q31.412 -40.289 31.412 -38.928 V-6.284 Q31.412 -4.923 30.441 -3.951 Q29.469 -2.98 28.108 -2.98 H18.394 Z"/></g><g id="Light-S" transform="matrix(1 0 0 1 1109.75 696)"><path d="M62.073 -4.782 Q60.835 -4.782 59.963 -5.653 Q59.091 -6.525 59.091 -7.763 V-41.037 Q59.091 -43.494 57.348 -45.238 Q55.604 -46.981 53.147 -46.981 H40.963 Q39.726 -46.981 38.863 -47.853 Q38.001 -48.725 38.001 -49.963 V-62.716 Q38.001 -63.935 38.863 -64.807 Q39.726 -65.678 40.963 -65.678 H74.826 Q76.045 -65.678 76.917 -64.807 Q77.788 -63.935 77.788 -62.716 V-7.763 Q77.788 -6.525 76.917 -5.653 Q76.045 -4.782 74.826 -4.782 H62.073 Z M40.963 -4.782 Q39.726 -4.782 38.863 -5.653 Q38.001 -6.525 38.001 -7.763 V-39.289 Q38.001 -40.508 38.863 -41.379 Q39.726 -42.251 40.963 -42.251 H51.399 Q52.618 -42.251 53.489 -41.379 Q54.361 -40.508 54.361 -39.289 V-7.763 Q54.361 -6.525 53.489 -5.653 Q52.618 -4.782 51.399 -4.782 H40.963 Z M19.873 -4.782 Q18.635 -4.782 17.763 -5.653 Q16.892 -6.525 16.892 -7.763 V-39.289 Q16.892 -40.508 17.763 -41.379 Q18.635 -42.251 19.873 -42.251 H30.289 Q31.527 -42.251 32.399 -41.379 Q33.271 -40.508 33.271 -39.289 V-7.763 Q33.271 -6.525 32.399 -5.653 Q31.527 -4.782 30.289 -4.782 H19.873 Z"/></g><g id="Thin-S" transform="matrix(1 0 0 1 814.015 696)"><path d="M59.892 -6.583 Q58.777 -6.583 58.005 -7.356 Q57.233 -8.128 57.233 -9.242 V-39.843 Q57.233 -42.025 55.684 -43.574 Q54.135 -45.123 51.953 -45.123 H40.603 Q39.489 -45.123 38.735 -45.895 Q37.982 -46.667 37.982 -47.782 V-61.256 Q37.982 -62.332 38.735 -63.104 Q39.489 -63.877 40.603 -63.877 H73.366 Q74.442 -63.877 75.214 -63.104 Q75.987 -62.332 75.987 -61.256 V-9.242 Q75.987 -8.128 75.214 -7.356 Q74.442 -6.583 73.366 -6.583 H59.892 Z M40.603 -6.583 Q39.489 -6.583 38.735 -7.356 Q37.982 -8.128 37.982 -9.242 V-39.649 Q37.982 -40.726 38.735 -41.498 Q39.489 -42.27 40.603 -42.27 H51.759 Q52.836 -42.27 53.608 -41.498 Q54.38 -40.726 54.38 -39.649 V-9.242 Q54.38 -8.128 53.608 -7.356 Q52.836 -6.583 51.759 -6.583 H40.603 Z M21.352 -6.583 Q20.238 -6.583 19.466 -7.356 Q18.693 -8.128 18.693 -9.242 V-39.649 Q18.693 -40.726 19.466 -41.498 Q20.238 -42.27 21.352 -42.27 H32.47 Q33.585 -42.27 34.357 -41.498 Q35.129 -40.726 35.129 -39.649 V-9.242 Q35.129 -8.128 34.357 -7.356 Q33.585 -6.583 32.47 -6.583 H21.352 Z"/></g><g id="Ultralight-S" transform="matrix(1 0 0 1 517.792 696)"><path d="M58.583 -7.664 Q57.543 -7.664 56.83 -8.377 Q56.118 -9.089 56.118 -10.13 V-39.126 Q56.118 -41.143 54.685 -42.575 Q53.253 -44.008 51.236 -44.008 H40.387 Q39.346 -44.008 38.659 -44.72 Q37.971 -45.433 37.971 -46.473 V-60.379 Q37.971 -61.371 38.659 -62.083 Q39.346 -62.796 40.387 -62.796 H72.489 Q73.481 -62.796 74.193 -62.083 Q74.906 -61.371 74.906 -60.379 V-10.13 Q74.906 -9.089 74.193 -8.377 Q73.481 -7.664 72.489 -7.664 H58.583 Z M40.387 -7.664 Q39.346 -7.664 38.659 -8.377 Q37.971 -9.089 37.971 -10.13 V-39.865 Q37.971 -40.857 38.659 -41.569 Q39.346 -42.282 40.387 -42.282 H51.975 Q52.967 -42.282 53.679 -41.569 Q54.392 -40.857 54.392 -39.865 V-10.13 Q54.392 -9.089 53.679 -8.377 Q52.967 -7.664 51.975 -7.664 H40.387 Z M22.24 -7.664 Q21.199 -7.664 20.487 -8.377 Q19.774 -9.089 19.774 -10.13 V-39.865 Q19.774 -40.857 20.487 -41.569 Q21.199 -42.282 22.24 -42.282 H33.779 Q34.82 -42.282 35.532 -41.569 Q36.245 -40.857 36.245 -39.865 V-10.13 Q36.245 -9.089 35.532 -8.377 Q34.82 -7.664 33.779 -7.664 H22.24 Z"/></g></g></svg>