<svg xmlns="http://www.w3.org/2000/svg" height="24" width="24"><path d="M4.7 18.85q-.65 0-1.1-.437-.45-.438-.45-1.088V6.675q0-.65.45-1.088.45-.437 1.1-.437h14.6q.65 0 1.1.437.45.438.45 1.088v10.65q0 .65-.45 1.088-.45.437-1.1.437Zm-.625-7.325H8.75V6.05H4.7q-.275 0-.45.175t-.175.45Zm5.6 0h4.65V6.05h-4.65v5.475Zm5.575 0h4.675v-4.85q0-.275-.175-.45t-.45-.175h-4.05v5.475Zm-6.5 6.425v-5.5H4.075v4.875q0 .275.175.45t.45.175Zm.925 0h4.65v-5.5h-4.65v5.5Zm5.575 0h4.05q.275 0 .45-.175t.175-.45V12.45H15.25v5.5Z"/></svg>