<svg xmlns="http://www.w3.org/2000/svg" height="24" viewBox="0 -960 960 960" width="24"><path d="M205-202.62q-17.75 0-30.37-12.62Q162-227.87 162-245.63q0-17.75 12.63-30.37 12.62-12.61 30.37-12.61h31.31v-276.47q0-31.84 8.27-63.93t26.81-58.37l121.3 122.3h-120.3L73.46-765.38q-11.92-11.93-12.11-29.89-.19-17.96 12.11-30.27 12.31-12.3 29.89-12.3 17.57 0 29.88 12.3l693.92 695.93q12.31 12.3 13 29.57.7 17.27-12.91 30.58-12.39 12.31-29.97 12.81t-29.88-11.81L630.23-202.62H205ZM480.93-66.31q-34.39 0-58.81-24.47-24.43-24.47-24.43-58.84h166.62q0 34.93-24.49 59.12-24.5 24.19-58.89 24.19ZM480.92-595 358.23-717.69q-14.85-14.85-12.54-34.5 2.31-19.66 19.77-29.27 12.31-7.11 25.39-11.86 13.07-4.76 27.15-7.76V-828q0-25.83 18.07-43.92Q454.14-890 479.95-890q26.65 0 45.35 18.08Q544-853.83 544-828v26.87q5.38 1.67 9.67 2.56 4.28.9 10.02 2.72 18.85 7.24 19.04 27 .19 19.77-17.88 32.77-33.62 25.77-55.35 61.73-21.73 35.97-28.58 79.35Zm217.02 167.31q-14.56 0-24.32-9.59-9.77-9.59-9.77-24.26v-196.92q0-14.67 9.52-24.26 9.51-9.59 24.07-9.59t24.33 9.59q9.77 9.59 9.77 24.26v196.92q0 14.67-9.52 24.26-9.52 9.59-24.08 9.59ZM586.4-493.85q-14.55 0-24.32-9.59t-9.77-24.25v-64.62q0-14.66 9.52-24.25t24.07-9.59q14.56 0 24.33 9.59 9.77 9.59 9.77 24.25v64.62q0 14.66-9.52 24.25t-24.08 9.59Zm223.08 0q-14.56 0-24.33-9.59-9.77-9.59-9.77-24.25v-64.62q0-14.66 9.52-24.25t24.08-9.59q14.56 0 24.33 9.59 9.77 9.59 9.77 24.25v64.62q0 14.66-9.52 24.25t-24.08 9.59Z"/></svg>