<svg xmlns="http://www.w3.org/2000/svg" height="40" width="40"><path d="M20 35.333Q13.583 35.333 9.125 30.875Q4.667 26.417 4.667 20Q4.667 13.583 9.125 9.104Q13.583 4.625 20 4.625Q20.25 4.625 20.646 4.646Q21.042 4.667 21.667 4.708Q20.125 6.292 19.5 8.25Q18.875 10.208 18.875 11.833Q18.875 15.458 21.5 18.292Q24.125 21.125 28.208 21.125Q30.375 21.125 32.125 20.438Q33.875 19.75 35.25 18.417Q35.333 18.958 35.354 19.417Q35.375 19.875 35.375 20Q35.375 26.417 30.896 30.875Q26.417 35.333 20 35.333Z"/></svg>