<svg xmlns="http://www.w3.org/2000/svg" height="48" viewBox="0 -960 960 960" width="48"><path d="M650-304.7H375q-29.52 0-45.28 20.48-15.76 20.48-12.16 41.75-3.13 18.37 5.12 36.94 8.25 18.57 30.32 26.83l256 101q8 3 15 2t13-4.71q6-4.29 9.5-10.96 3.5-6.67 3.5-14.33v-199ZM399.95-906.39q70.18 0 120.31 49.99 50.13 49.99 50.13 120.34T520.4-616.44q-49.99 49.27-120.34 49.27t-119.62-49.3q-49.27-49.29-49.27-119.48 0-70.18 49.3-120.31 49.29-50.13 119.48-50.13Zm375 379.22q31.35 0 53.4 21.08 22.04 21.09 22.04 52.59 0 24.11-16.08 41.21-16.09 17.1-40.14 23.2l-84.74 24.39H374.84q-51.93 0-88.39 36.5Q250-291.7 250-239.7q0 25.89 10.83 50.32 10.82 24.42 30.34 41.42h-180v-169.46q0-86.49 60.83-148.12 60.82-61.63 148-61.63h454.95Z"/></svg>