<svg xmlns="http://www.w3.org/2000/svg" version="1.1" width="3300" height="2000"><g id="Notes"><style>
    text {
      font-family: monospace;
      text-anchor: middle;
    }
    text.emphasis {
      font-weight:bold;
    }
    text.lanchor {
      text-anchor: start;
    }
  </style><rect height="2200" id="artboard" fill="white" width="3300" x="0" y="0"/><line id="" style="fill:none;stroke:black;stroke-width:0.5;" x1="263" x2="3036" y1="292" y2="292"/><text class="lanchor emphasis" transform="matrix(1 0 0 1 263 322)">Weight/Scale Variations</text><text transform="matrix(1 0 0 1 559.711 322)">Ultralight</text><text transform="matrix(1 0 0 1 856.422 322)">Thin</text><text transform="matrix(1 0 0 1 1153.13 322)">Light</text><text transform="matrix(1 0 0 1 1449.84 322)">Regular</text><text transform="matrix(1 0 0 1 1746.56 322)">Medium</text><text transform="matrix(1 0 0 1 2043.27 322)">Semibold</text><text transform="matrix(1 0 0 1 2339.98 322)">Bold</text><text transform="matrix(1 0 0 1 2636.69 322)">Heavy</text><text transform="matrix(1 0 0 1 2933.4 322)">Black</text><text id="template-version" style="text-anchor: end;" transform="matrix(1 0 0 1 3036 1933)">Template v.1.0</text><text class="lanchor" transform="matrix(1 0 0 1 263 726)">Small</text><text class="lanchor" transform="matrix(1 0 0 1 263 1156)">Medium</text><text class="lanchor" transform="matrix(1 0 0 1 263 1586)">Large</text></g><g id="Guides"><g id="H-reference" style="fill:#27AAE1;stroke:none;" transform="matrix(1 0 0 1 339 696)"><path d="M 54.9316 0 L 57.666 0 L 30.5664 -70.459 L 28.0762 -70.459 L 0.976562 0 L 3.66211 0 L 12.9395 -24.4629 L 45.7031 -24.4629 Z M 29.1992 -67.0898 L 29.4434 -67.0898 L 44.8242 -26.709 L 13.8184 -26.709 Z"/></g><line id="Baseline-S" style="fill:none;stroke:#27AAE1;opacity:1;stroke-width:0.577;" x1="263" x2="3036" y1="696" y2="696"/><line id="Capline-S" style="fill:none;stroke:#27AAE1;opacity:1;stroke-width:0.577;" x1="263" x2="3036" y1="625.541" y2="625.541"/><g id="H-reference" style="fill:#27AAE1;stroke:none;" transform="matrix(1 0 0 1 339 1126)"><path d="M 54.9316 0 L 57.666 0 L 30.5664 -70.459 L 28.0762 -70.459 L 0.976562 0 L 3.66211 0 L 12.9395 -24.4629 L 45.7031 -24.4629 Z M 29.1992 -67.0898 L 29.4434 -67.0898 L 44.8242 -26.709 L 13.8184 -26.709 Z"/></g><line id="Baseline-M" style="fill:none;stroke:#27AAE1;opacity:1;stroke-width:0.577;" x1="263" x2="3036" y1="1126" y2="1126"/><line id="Capline-M" style="fill:none;stroke:#27AAE1;opacity:1;stroke-width:0.577;" x1="263" x2="3036" y1="1055.54" y2="1055.54"/><g id="H-reference" style="fill:#27AAE1;stroke:none;" transform="matrix(1 0 0 1 339 1556)"><path d="M 54.9316 0 L 57.666 0 L 30.5664 -70.459 L 28.0762 -70.459 L 0.976562 0 L 3.66211 0 L 12.9395 -24.4629 L 45.7031 -24.4629 Z M 29.1992 -67.0898 L 29.4434 -67.0898 L 44.8242 -26.709 L 13.8184 -26.709 Z"/></g><line id="Baseline-L" style="fill:none;stroke:#27AAE1;opacity:1;stroke-width:0.577;" x1="263" x2="3036" y1="1556" y2="1556"/><line id="Capline-L" style="fill:none;stroke:#27AAE1;opacity:1;stroke-width:0.577;" x1="263" x2="3036" y1="1485.54" y2="1485.54"/><rect height="119.336" id="left-margin" style="fill:darkred;stroke:none;opacity:0.4;" width="12.4512" x="1394.06" y="1030.79"/><rect height="119.336" id="right-margin" style="fill:darkgreen;stroke:none;opacity:0.4;" width="12.4512" x="1502.5112" y="1030.79"/><rect x="1406.5112" y="1045" width="96" height="96" fill="none" stroke="blue" stroke-dasharray="5"/><rect x="1394.06" y="1030.79" width="120.9024" height="119.336" fill="none" stroke="blue"/></g><g id="Symbols"><g id="Bold-L" transform="matrix(1 0 0 1 2266 1556)"><path d="M61.275 -13.622499999999988  68.20875 -20.394999999999982  53.37375 -35.22999999999999  67.88625 -49.74249999999999  60.9525 -56.67624999999999  39.50625 -35.22999999999999  61.275 -13.622499999999988 Z M93.68625 -13.622499999999988  115.29375 -35.22999999999999  93.68625 -56.998749999999994  86.59125 -50.226249999999986  101.5875 -35.22999999999999  86.59125 -20.394999999999982  93.68625 -13.622499999999988 Z M16.125 26.045000000000016 V-96.82749999999999 H138.9975 V26.045000000000016 H16.125 Z"/></g><g id="Semibold-L" transform="matrix(1 0 0 1 1970.27 1556)"><path d="M61.275 -13.622499999999988  68.20875 -20.394999999999982  53.37375 -35.22999999999999  67.88625 -49.74249999999999  60.9525 -56.67624999999999  39.50625 -35.22999999999999  61.275 -13.622499999999988 Z M93.68625 -13.622499999999988  115.29375 -35.22999999999999  93.68625 -56.998749999999994  86.59125 -50.226249999999986  101.5875 -35.22999999999999  86.59125 -20.394999999999982  93.68625 -13.622499999999988 Z M17.7375 24.432500000000005 V-94.8925 H137.0625 V24.432500000000005 H17.7375 Z"/></g><g id="Medium-L" transform="matrix(1 0 0 1 1674.31 1556)"><path d="M61.275 -13.622499999999988  68.0475 -20.394999999999982  53.2125 -35.22999999999999  67.88625 -49.903749999999995  60.9525 -56.67624999999999  39.50625 -35.22999999999999  61.275 -13.622499999999988 Z M93.68625 -13.622499999999988  115.29375 -35.22999999999999  93.68625 -56.998749999999994  86.7525 -50.226249999999986  101.5875 -35.22999999999999  86.7525 -20.394999999999982  93.68625 -13.622499999999988 Z M19.188750000000002 22.98124999999999 V-93.60249999999999 H135.7725 V22.98124999999999 H19.188750000000002 Z"/></g><g id="Regular-L" transform="matrix(1 0 0 1 1378.56 1556)"><path d="M61.275 -13.622499999999988  68.0475 -20.394999999999982  53.2125 -35.22999999999999  67.88625 -49.903749999999995  61.113749999999996 -56.83749999999999  39.50625 -35.22999999999999  61.275 -13.622499999999988 Z M93.68625 -13.622499999999988  115.29375 -35.22999999999999  93.68625 -56.998749999999994  86.7525 -50.226249999999986  101.74875 -35.22999999999999  86.7525 -20.394999999999982  93.68625 -13.622499999999988 Z M20.15625 22.013750000000016 V-92.63499999999999 H134.805 V22.013750000000016 H20.15625 Z"/></g><g id="Light-L" transform="matrix(1 0 0 1 1082.77 1556)"><path d="M61.43625 -15.235  66.59625 -20.55624999999999  51.92250000000001 -35.22999999999999  66.435 -49.74249999999999  61.275 -55.06374999999999  41.44125 -35.22999999999999  61.43625 -15.235 Z M93.525 -15.235  113.35875 -35.22999999999999  93.525 -55.224999999999994  88.20375000000001 -50.065  103.03875000000001 -35.22999999999999  88.20375000000001 -20.55624999999999  93.525 -15.235 Z M23.058750000000003 19.111250000000013 V-89.57124999999999 H131.74125 V19.111250000000013 H23.058750000000003 Z"/></g><g id="Thin-L" transform="matrix(1 0 0 1 787.282 1556)"><path d="M61.597500000000004 -17.008749999999992  65.145 -20.717499999999987  50.6325 -35.22999999999999  65.145 -49.58124999999999  61.43625 -53.29  43.5375 -35.22999999999999  61.597500000000004 -17.008749999999992 Z M93.36375 -17.008749999999992  111.2625 -35.22999999999999  93.36375 -53.45124999999999  89.655 -49.903749999999995  104.32875000000001 -35.22999999999999  89.655 -20.717499999999987  93.36375 -17.008749999999992 Z M25.961250000000003 16.20875000000001 V-86.66874999999999 H128.83875 V16.20875000000001 H25.961250000000003 Z"/></g><g id="Ultralight-L" transform="matrix(1 0 0 1 491.205 1556)"><path d="M61.75875 -18.13749999999999  64.33875 -20.878749999999997  49.987500000000004 -35.22999999999999  64.33875 -49.58124999999999  61.597500000000004 -52.3225  44.66625 -35.22999999999999  61.75875 -18.13749999999999 Z M93.2025 -18.13749999999999  110.13374999999999 -35.22999999999999  93.2025 -52.3225  90.46125 -49.903749999999995  105.135 -35.22999999999999  90.46125 -20.878749999999997  93.2025 -18.13749999999999 Z M27.735 14.435000000000002 V-84.895 H127.065 V14.435000000000002 H27.735 Z"/></g><g id="Bold-M" transform="matrix(1 0 0 1 2281.8 1126)"><path d="M48.125 -17.85499999999999  54.875 -24.60499999999999  44.25 -35.22999999999999  54.75 -45.72999999999999  48.0 -52.47999999999999  30.75 -35.22999999999999  48.125 -17.85499999999999 Z M71.875 -17.85499999999999  89.25 -35.22999999999999  71.875 -52.60499999999999  65.125 -45.97999999999999  75.875 -35.22999999999999  65.125 -24.60499999999999  71.875 -17.85499999999999 Z M11.875 12.89500000000001 V-83.35499999999999 H108.125 V12.89500000000001 H11.875 Z"/></g><g id="Semibold-M" transform="matrix(1 0 0 1 1985.97 1126)"><path d="M48.125 -17.85499999999999  54.875 -24.60499999999999  44.125 -35.22999999999999  54.75 -45.72999999999999  48.0 -52.47999999999999  30.75 -35.22999999999999  48.125 -17.85499999999999 Z M71.875 -17.85499999999999  89.25 -35.22999999999999  71.875 -52.60499999999999  65.125 -45.97999999999999  75.875 -35.22999999999999  65.125 -24.60499999999999  71.875 -17.85499999999999 Z M13.75 11.02000000000001 V-81.47999999999999 H106.25 V11.02000000000001 H13.75 Z"/></g><g id="Medium-M" transform="matrix(1 0 0 1 1689.91 1126)"><path d="M48.125 -17.85499999999999  54.75 -24.60499999999999  44.125 -35.22999999999999  54.75 -45.85499999999999  48.0 -52.47999999999999  30.75 -35.22999999999999  48.125 -17.85499999999999 Z M71.875 -17.85499999999999  89.25 -35.22999999999999  71.875 -52.60499999999999  65.25 -45.97999999999999  75.875 -35.22999999999999  65.25 -24.60499999999999  71.875 -17.85499999999999 Z M15.125 9.64500000000001 V-80.10499999999999 H104.875 V9.64500000000001 H15.125 Z"/></g><g id="Regular-M" transform="matrix(1 0 0 1 1394.06 1126)"><path d="M48.125 -17.85499999999999  54.75 -24.60499999999999  44.125 -35.22999999999999  54.75 -45.85499999999999  48.125 -52.60499999999999  30.75 -35.22999999999999  48.125 -17.85499999999999 Z M71.875 -17.85499999999999  89.25 -35.22999999999999  71.875 -52.60499999999999  65.25 -45.97999999999999  76.0 -35.22999999999999  65.25 -24.60499999999999  71.875 -17.85499999999999 Z M16.125 8.64500000000001 V-79.10499999999999 H103.875 V8.64500000000001 H16.125 Z"/></g><g id="Light-M" transform="matrix(1 0 0 1 1098.18 1126)"><path d="M48.125 -19.47999999999999  53.125 -24.47999999999999  42.25 -35.22999999999999  53.0 -45.85499999999999  48.0 -50.85499999999999  32.375 -35.22999999999999  48.125 -19.47999999999999 Z M71.875 -19.47999999999999  87.625 -35.22999999999999  71.875 -50.97999999999999  66.875 -45.97999999999999  77.75 -35.22999999999999  66.875 -24.47999999999999  71.875 -19.47999999999999 Z M18.375 6.39500000000001 V-76.85499999999999 H101.625 V6.39500000000001 H18.375 Z"/></g><g id="Thin-M" transform="matrix(1 0 0 1 802.565 1126)"><path d="M48.125 -21.10499999999999  51.375 -24.35499999999999  40.5 -35.22999999999999  51.25 -45.97999999999999  48.0 -49.22999999999999  33.875 -35.22999999999999  48.125 -21.10499999999999 Z M71.875 -21.10499999999999  86.125 -35.22999999999999  71.875 -49.35499999999999  68.625 -46.10499999999999  79.5 -35.22999999999999  68.625 -24.35499999999999  71.875 -21.10499999999999 Z M20.75 4.02000000000001 V-74.47999999999999 H99.25 V4.02000000000001 H20.75 Z"/></g><g id="Ultralight-M" transform="matrix(1 0 0 1 506.415 1126)"><path d="M48.125 -22.10499999999999  50.375 -24.35499999999999  39.5 -35.22999999999999  50.25 -45.97999999999999  48.0 -48.35499999999999  34.875 -35.22999999999999  48.125 -22.10499999999999 Z M72.0 -22.10499999999999  85.125 -35.22999999999999  72.0 -48.47999999999999  69.625 -46.22999999999999  80.625 -35.22999999999999  69.625 -24.35499999999999  72.0 -22.10499999999999 Z M22.125 2.6450000000000102 V-73.22999999999999 H98.0 V2.6450000000000102 H22.125 Z"/></g><g id="Bold-S" transform="matrix(1 0 0 1 2294.23 696)"><path d="M37.971414 -23.88733599999999  42.804828 -28.621335999999992  36.196163999999996 -35.22999999999999  42.705414000000005 -41.73924999999999  37.872 -46.47324999999999  26.62875 -35.22999999999999  37.971414 -23.88733599999999 Z M56.708586 -23.88733599999999  68.05125 -35.22999999999999  56.708586 -46.572663999999996  51.875172 -41.93807799999999  58.58325 -35.22999999999999  51.875172 -28.621335999999992  56.708586 -23.88733599999999 Z M11.735586 0.3744140000000158 V-70.834414 H82.94441400000001 V0.3744140000000158 H11.735586 Z"/></g><g id="Semibold-S" transform="matrix(1 0 0 1 1998.1 696)"><path d="M37.971414 -23.88733599999999  42.804828 -28.621335999999992  36.09675 -35.22999999999999  42.705414000000005 -41.73924999999999  37.872 -46.47324999999999  26.62875 -35.22999999999999  37.971414 -23.88733599999999 Z M56.708586 -23.88733599999999  68.05125 -35.22999999999999  56.708586 -46.572663999999996  51.875172 -41.93807799999999  58.58325 -35.22999999999999  51.875172 -28.621335999999992  56.708586 -23.88733599999999 Z M13.217327999999998 -1.1073279999999954 V-69.352672 H81.462672 V-1.1073279999999954 H13.217327999999998 Z"/></g><g id="Medium-S" transform="matrix(1 0 0 1 1701.85 696)"><path d="M37.971414 -23.88733599999999  42.705414000000005 -28.621335999999992  36.09675 -35.22999999999999  42.705414000000005 -41.838663999999994  37.872 -46.47324999999999  26.62875 -35.22999999999999  37.971414 -23.88733599999999 Z M56.708586 -23.88733599999999  68.05125 -35.22999999999999  56.708586 -46.572663999999996  51.974585999999995 -41.93807799999999  58.58325 -35.22999999999999  51.974585999999995 -28.621335999999992  56.708586 -23.88733599999999 Z M14.301414 -2.1914139999999946 V-68.268586 H80.378586 V-2.1914139999999946 H14.301414 Z"/></g><g id="Regular-S" transform="matrix(1 0 0 1 1405.73 696)"><path d="M37.971414 -23.88733599999999  42.705414000000005 -28.621335999999992  36.09675 -35.22999999999999  42.705414000000005 -41.838663999999994  37.971414 -46.572663999999996  26.62875 -35.22999999999999  37.971414 -23.88733599999999 Z M56.708586 -23.88733599999999  68.05125 -35.22999999999999  56.708586 -46.572663999999996  51.974585999999995 -41.93807799999999  58.682664 -35.22999999999999  51.974585999999995 -28.621335999999992  56.708586 -23.88733599999999 Z M15.091992000000001 -2.981991999999991 V-67.47800799999999 H79.588008 V-2.981991999999991 H15.091992000000001 Z"/></g><g id="Light-S" transform="matrix(1 0 0 1 1109.75 696)"><path d="M37.971414 -25.170249999999996  41.4225 -28.521921999999996  34.615008 -35.22999999999999  41.323085999999996 -41.838663999999994  37.872 -45.190335999999995  27.911664 -35.22999999999999  37.971414 -25.170249999999996 Z M56.708586 -25.170249999999996  66.76833599999999 -35.22999999999999  56.708586 -45.28974999999999  53.2575 -41.93807799999999  60.064992000000004 -35.22999999999999  53.2575 -28.521921999999996  56.708586 -25.170249999999996 Z M16.862508 -4.752508000000006 V-65.707492 H77.81749199999999 V-4.752508000000006 H16.862508 Z"/></g><g id="Thin-S" transform="matrix(1 0 0 1 814.015 696)"><path d="M37.971414 -26.453163999999994  40.040172 -28.422507999999993  33.237414 -35.22999999999999  39.945492 -41.93807799999999  37.872 -43.907422  29.095164 -35.22999999999999  37.971414 -26.453163999999994 Z M56.708586 -26.453163999999994  65.584836 -35.22999999999999  56.708586 -44.00683599999999  54.639828 -42.03749199999999  61.442586 -35.22999999999999  54.639828 -28.422507999999993  56.708586 -26.453163999999994 Z M18.737172 -6.627171999999987 V-63.83282799999999 H75.942828 V-6.627171999999987 H18.737172 Z"/></g><g id="Ultralight-S" transform="matrix(1 0 0 1 517.792 696)"><path d="M37.971414 -27.23900799999999  39.254328 -28.422507999999993  32.446836 -35.22999999999999  39.154914000000005 -41.93807799999999  37.872 -43.220991999999995  29.881008 -35.22999999999999  37.971414 -27.23900799999999 Z M56.808 -27.23900799999999  64.798992 -35.22999999999999  56.808 -43.31567199999999  55.425672 -42.132172  62.332578 -35.22999999999999  55.425672 -28.422507999999993  56.808 -27.23900799999999 Z M19.825992 -7.715992 V-62.84342199999999 H74.953422 V-7.715992 H19.825992 Z"/></g></g></svg>