<svg xmlns="http://www.w3.org/2000/svg" height="40" width="40"><path d="M12.208 29.542h1.834l1.75-5.167h8.416l1.75 5.167h1.834l-7-19.584h-1.584Zm4.209-6.792 3.5-9.875h.166l3.5 9.875ZM7.708 35.375q-1.291 0-2.166-.875t-.875-2.167V7.667q0-1.292.875-2.167.875-.875 2.166-.875h24.667q1.292 0 2.167.875.875.875.875 2.167v24.666q0 1.292-.875 2.167-.875.875-2.167.875Zm0-1.708h24.667q.5 0 .917-.417.416-.417.416-.917V7.667q0-.5-.416-.917-.417-.417-.917-.417H7.708q-.5 0-.916.417-.417.417-.417.917v24.666q0 .5.417.917.416.417.916.417ZM6.375 6.333V33.667 6.333Z"/></svg>