<svg xmlns="http://www.w3.org/2000/svg" height="48" viewBox="0 -960 960 960" width="48"><path d="M479.69-222.15q141.45 0 239.92-98.55 98.48-98.55 98.48-239.06 0-38.08-8.38-73.46-8.38-35.39-22.67-67.67-28 20.52-60.27 31.9-32.28 11.38-66.71 11.38-54.85 0-101.22-27.64-46.36-27.64-78.84-71.92-32.48 44.28-78.87 71.92-46.39 27.64-101.22 27.64-34.12 0-66.42-11.38-32.29-11.38-60.29-31.9-14.49 32.63-22.65 68.24-8.16 35.61-8.16 72.89 0 140.51 98.56 239.06 98.55 98.55 238.74 98.55ZM355.18-462.52q23.02 0 38.64-15.85 15.61-15.84 15.61-38.86 0-23.01-15.84-38.63-15.85-15.62-38.86-15.62-23.01 0-38.63 15.85-15.62 15.84-15.62 38.86 0 23.01 15.84 38.63 15.85 15.62 38.86 15.62Zm251.09 0q23.01 0 38.75-15.85 15.74-15.84 15.74-38.86 0-23.01-15.96-38.63-15.97-15.62-38.98-15.62-23.02 0-38.64 15.85-15.61 15.84-15.61 38.86 0 23.01 15.84 38.63 15.85 15.62 38.86 15.62ZM300-722.39q62.01 0 104.81-42.8 42.8-42.8 42.8-104.81v-26.61q-75.33 7.24-137.77 43.78-62.45 36.55-103.49 94.87 19.27 16.6 43.26 26.08 24 9.49 50.39 9.49Zm360 0q26.7 0 50.65-9.76 23.96-9.76 43.48-26.05-41.28-58.08-103.97-94.63-62.68-36.54-137.77-43.78V-870q0 62.01 42.8 104.81 42.8 42.8 104.81 42.8ZM-6.7-74.02l44.72-488.46q8-85.43 45.98-159.39 37.98-73.96 97.37-128.22 59.38-54.26 136.03-85.19 76.64-30.94 162.73-30.94 86.08 0 162.68 30.94 76.61 30.93 135.96 85.2 59.36 54.26 97.3 128.27 37.94 74.01 46.15 159.33l44.71 488.46H-6.7Zm486.77-80q-136.16 0-241.94-80.37T94.96-439.41L68.39-142.15h823.22l-26.57-297.02q-37.39 124.65-142.55 204.9-105.16 80.25-242.42 80.25Zm32.32-742.59Zm-64.78 0Zm32.46 762.59h411.54H68.39 480.07Z"/></svg>