<svg xmlns="http://www.w3.org/2000/svg" height="48" width="48"><path d="M24 36.75q7 0 11.9-4.875T40.8 20q0-1.9-.425-3.675T39.25 12.95q-1.4 1-2.975 1.55-1.575.55-3.275.55-2.75 0-5.075-1.4T24 10q-1.6 2.25-3.925 3.65-2.325 1.4-5.075 1.4-1.65 0-3.25-.55T8.8 12.95q-.7 1.65-1.125 3.425Q7.25 18.15 7.25 20q0 7 4.9 11.875T24 36.75ZM17.8 24.8q1.15 0 1.925-.775.775-.775.775-1.925 0-1.1-.775-1.875-.775-.775-1.925-.775t-1.925.775Q15.1 21 15.1 22.15q0 1.1.775 1.875.775.775 1.925.775Zm12.45 0q1.15 0 1.925-.775.775-.775.775-1.925 0-1.1-.775-1.875-.775-.775-1.925-.775t-1.925.775q-.775.775-.775 1.925 0 1.1.775 1.875.775.775 1.925.775ZM15 11.95q3.15 0 5.3-2.175T22.45 4.5V3.3q-3.75.4-6.875 2.225Q12.45 7.35 10.4 10.25q1 .8 2.15 1.25 1.15.45 2.45.45Zm18 0q1.3 0 2.475-.475T37.65 10.2q-2.1-2.85-5.225-4.675Q29.3 3.7 25.55 3.3v1.2q0 3.1 2.175 5.275Q29.9 11.95 33 11.95Zm-9-12q4.25 0 8.05 1.525 3.8 1.525 6.725 4.2Q41.7 8.35 43.575 12q1.875 3.65 2.275 7.9l2.2 24.15H-.05l2.2-24.15q.4-4.25 2.275-7.9 1.875-3.65 4.8-6.325Q12.15 3 15.95 1.475 19.75-.05 24-.05Zm0 40.1q-6.8 0-12.05-4.05Q6.7 31.95 4.9 25.75l-1.35 15h40.9l-1.35-15q-1.8 6.2-7.025 10.25Q30.85 40.05 24 40.05ZM25.55 3.3Zm-3.1 0ZM24 40.75H44.45 3.55 24Z"/></svg>