<svg xmlns="http://www.w3.org/2000/svg" height="20" viewBox="0 96 960 960" width="20"><path d="M675 941.87 593.565 861l69-69-69-69L675 641.565l69 69 69-69L893.87 723l-69 69 69 69L813 941.87l-69-69-69 69Zm-355.783 63.96q-28.391 0-48.435-20.329-20.044-20.327-20.044-48.718V292.391q0-28.392 20.044-48.435 20.044-20.044 48.435-20.044h75.782v-73.435h170.002v73.435h75.782q28.391 0 48.435 20.044 20.044 20.043 20.044 48.435v257.043q-90.044 11.348-150.806 81.217-60.761 69.87-60.761 161.349 0 62.522 28.044 119.761 28.043 57.24 80.131 94.069H319.217Z"/></svg>