<svg xmlns="http://www.w3.org/2000/svg" height="48" width="48"><path d="M7.5 44.45V32.5q0-1.05.525-2.025.525-.975 1.425-1.625l3.2-2.15q.3 4.15 1.05 7.425.75 3.275 2.4 6.975Zm10.65-4.25q-1.6-3.75-2.45-7.575-.85-3.825-.85-7.425 0-6.2 2.525-11.75T24 4.9q4.1 3 6.625 8.55Q33.15 19 33.15 25.2q0 3.65-.85 7.45-.85 3.8-2.45 7.55ZM24 25.4q1.4 0 2.4-1t1-2.4q0-1.4-1-2.375-1-.975-2.4-.975t-2.375.975Q20.65 20.6 20.65 22t.975 2.4q.975 1 2.375 1Zm16.5 19.05-8.55-3.35q1.6-3.7 2.35-6.975.75-3.275 1.05-7.425l3.2 2.15q.9.65 1.425 1.6.525.95.525 2.05Z"/></svg>