<svg xmlns="http://www.w3.org/2000/svg" height="24" viewBox="0 -960 960 960" width="24"><path d="M158-442.62q0-31.84 17.38-58.61Q192.77-528 223.62-534H239v-97.39q0-38.84 25.88-64.73Q290.77-722 329.62-722h300.76q38.85 0 64.74 25.88Q721-670.23 721-631.39V-534h15.38q30.85 6 48.24 32.38Q802-475.23 802-443.38V-327q0 18.77-14.12 32.88Q773.77-280 754.89-280l-18.43 71.62q-2.23 4.69-5.42 7.53-3.19 2.85-8.89 2.85h-12.3q-5.7 0-8.89-2.85-3.19-2.84-5.42-7.53L677-280H283l-18.54 71.62q-2.23 4.69-5.42 7.53-3.19 2.85-8.89 2.85h-12.3q-5.7 0-8.89-2.85-3.19-2.84-5.42-7.53L205.11-280q-18.88 0-32.99-14.12Q158-308.23 158-327v-115.62ZM513-534h142v-97.39q0-10.76-6.92-17.69-6.93-6.92-17.7-6.92H513v122Zm-208 0h142v-122H329.62q-10.77 0-17.7 6.92-6.92 6.93-6.92 17.69V-534Zm-81 188h512v-97.38q0-10.77-6.92-17.7-6.93-6.92-17.7-6.92H248.62q-10.77 0-17.7 6.92-6.92 6.93-6.92 17.7V-346Zm512 0H224h512Z"/></svg>