<svg xmlns="http://www.w3.org/2000/svg" height="24" viewBox="0 -960 960 960" width="24"><path d="M401.95-326Q386-326 375-337.09T364-364v-115.75Q364-496 375.09-507T402-518h3v-40q0-32 21.79-53t54-21Q513-632 535-611t22 53v40h3q14.82 0 25.41 11.09T596-480v115.75Q596-348 584.82-337t-27.14 11H401.95ZM441-518h80v-40q0-17-11.5-28.5T481-598q-17 0-28.5 11.5T441-558v40ZM308-58q-36.73 0-61.36-24.64Q222-107.28 222-144v-672q0-36.72 24.64-61.36Q271.27-902 308-902h344q36.72 0 61.36 24.64T738-816v672q0 36.72-24.64 61.36T652-58H308Zm-32-110v24q0 12 10 22t22 10h344q12 0 22-10t10-22v-24H276Zm0-54h408v-516H276v516Zm0-570h408v-24q0-12-10-22t-22-10H308q-12 0-22 10t-10 22v24Zm0 0v-56 56Zm0 624v56-56Z"/></svg>