<svg xmlns="http://www.w3.org/2000/svg" height="48" viewBox="0 -960 960 960" width="48"><path d="M570.62-43.5q-9.56 0-15.66-6.07-6.11-6.06-6.11-15.69 0-9.62 6.36-15.86 6.36-6.23 15.91-6.23 122.55.39 208.23-85.3 85.69-85.68 86-208.93 0-8.78 6.06-15.17 6.07-6.4 15.7-6.4 9.62 0 15.85 6.4 6.23 6.39 6.23 15.17-.5 70.7-27.21 132.09-26.7 61.39-72.27 107.23-45.56 45.84-107.09 72.49-61.54 26.65-132 26.27Zm0-115.39q-9.56 0-15.66-6.06-6.11-6.07-6.11-15.69 0-9.63 6.36-15.86 6.36-6.23 15.91-6.23 73.8.19 126.07-52.01 52.27-52.21 52.77-126.84 0-8.78 6.07-15.17 6.07-6.4 15.69-6.4 9.63 0 15.86 6.4 6.23 6.39 6.23 15.17-1 93.12-65.64 157.75-64.63 64.64-157.55 64.94ZM233.39-73.58q-10.75 0-21.15-3.67-10.39-3.67-18.01-11.29L31.92-250.85q-7.61-7.44-11.28-17.83-3.68-10.38-3.68-21.4 0-10.61 3.72-20.53 3.72-9.91 11.24-17.85l136.77-136.77q15.73-15.83 38.56-15.84 22.83-.01 38.67 15.84l65.39 64.5L361.27-450l-65.19-65q-15.85-16.1-15.85-38.63 0-22.52 15.85-38.37l62.3-62.31q16.15-15.84 38.77-15.84 22.62 0 38.46 15.84l65 64.5 50.35-49.65-65.19-65q-15.85-16.14-15.85-38.96 0-22.81 15.85-38.66l136.77-136.76q8.39-8.43 18.04-12.54 9.65-4.12 20.63-4.12 10.79 0 20.77 3.42 9.98 3.43 18.79 12.24l162.31 162.3q8.1 7.75 11.87 18.37 3.78 10.61 3.78 21.47 0 10.7-4.23 20.84-4.23 10.13-12.04 17.94L725.69-542.15q-20.19 20.3-38.75 20.3t-38.86-20.3l-65-65.2L533.42-557l64.5 65q15.85 16.14 15.54 38.96-.31 22.81-16.15 38.66L536-353.08q-16.14 15.85-38.96 16.04-22.81.19-38.65-15.65l-65-65.2-49.28 49.97 64.5 65.38q15.85 15.73 15.85 38.56 0 22.83-15.85 38.67L271.85-88.54q-7.95 7.71-17.97 11.34-10.03 3.62-20.49 3.62ZM227-118.42q2.69 2.69 6.54 2.69t6.54-2.69l53.5-52.43-178.35-178.34-52.42 53.5q-2.69 2.69-2.69 6.54 0 3.84 2.69 6.53L227-118.42Zm99.31-86.23 53.11-52.81q2.5-2.69 2.5-6.54t-2.5-6.54L214.54-435.42q-2.69-2.5-6.54-2.5t-6.54 2.5l-52.81 53.11 177.66 177.66Zm354.15-368.39q2.69 2.69 6.54 2.69t6.54-2.69l53.5-52.42-178.35-178.35-52.42 53.5q-2.69 2.69-2.69 6.54t2.69 6.54l164.19 164.19Zm99.69-85.84 53.12-52.81q2.5-2.31 2.5-6.35 0-4.04-2.5-6.73L668.38-889.65q-2.69-2.5-6.73-2.5-4.04 0-6.34 2.5l-52.81 53.11 177.65 177.66Z"/></svg>