<svg xmlns="http://www.w3.org/2000/svg" height="20" viewBox="0 -960 960 960" width="20"><path d="M181.5-791.5V-809H260v17.5h-78.5Zm-21 640h311v-128h-288l-23 128ZM252-597l-12-12 55-55.5 11.5 12.5-54.5 55Zm-65 301h284.5v-132H211.05L187-296Zm292.97-376.5q-58.97 0-99.22-40.27T340.5-812h279q0 59-40.28 99.25-40.27 40.25-99.25 40.25Zm-8.47 153V-598H489v78.5h-17.5Zm17.5 368h309.5l-23-128H489v128Zm0-144.5h283l-24-132H489v132Zm222-301-57-56 12-11.5 57.5 55.5-12.5 12Zm-10.5-194.5V-809H779v17.5h-78.5Z"/></svg>