<svg xmlns="http://www.w3.org/2000/svg" height="20" width="20"><path d="M6.729 10.062H10.812Q11.146 10.062 11.396 9.802Q11.646 9.542 11.646 9.208Q11.646 8.875 11.385 8.604Q11.125 8.333 10.792 8.333H6.708Q6.375 8.333 6.115 8.604Q5.854 8.875 5.854 9.208Q5.854 9.542 6.125 9.802Q6.396 10.062 6.729 10.062ZM6.729 7.562H10.812Q11.146 7.562 11.396 7.302Q11.646 7.042 11.646 6.708Q11.646 6.375 11.385 6.104Q11.125 5.833 10.792 5.833H6.708Q6.375 5.833 6.115 6.104Q5.854 6.375 5.854 6.708Q5.854 7.042 6.125 7.302Q6.396 7.562 6.729 7.562ZM6.75 12.625H7.562Q7.917 12.625 8.167 12.354Q8.417 12.083 8.417 11.729Q8.417 11.375 8.156 11.104Q7.896 10.833 7.542 10.833H6.729Q6.396 10.833 6.125 11.104Q5.854 11.375 5.854 11.729Q5.854 12.083 6.125 12.354Q6.396 12.625 6.75 12.625ZM10 18.292Q8.271 18.292 6.76 17.646Q5.25 17 4.125 15.875Q3 14.75 2.354 13.24Q1.708 11.729 1.708 10Q1.708 8.271 2.354 6.76Q3 5.25 4.125 4.125Q5.25 3 6.76 2.354Q8.271 1.708 10 1.708Q11.729 1.708 13.24 2.354Q14.75 3 15.875 4.125Q17 5.25 17.646 6.76Q18.292 8.271 18.292 10Q18.292 11.729 17.646 13.24Q17 14.75 15.875 15.875Q14.75 17 13.24 17.646Q11.729 18.292 10 18.292ZM11.646 12.917 11.083 12.354Q10.833 12.104 10.5 12.104Q10.167 12.104 9.917 12.354Q9.667 12.604 9.667 12.958Q9.667 13.312 9.917 13.562L10.958 14.625Q11.229 14.896 11.635 14.896Q12.042 14.896 12.292 14.625L15.188 11.729Q15.438 11.479 15.427 11.135Q15.417 10.792 15.188 10.542Q14.938 10.292 14.583 10.302Q14.229 10.312 14 10.542Z"/></svg>