<svg xmlns="http://www.w3.org/2000/svg" height="24" viewBox="0 -960 960 960" width="24"><path d="M592-302v-86q0-6.07 3.95-10.03 3.96-3.97 10-3.97 6.05 0 10.05 3.97 4 3.96 4 10.03v84q0 12.75-8.62 21.37Q602.75-274 590-274h-84q-6.07 0-10.03-3.95-3.97-3.96-3.97-10 0-6.05 3.97-10.05 3.96-4 10.03-4h86ZM368-658v86q0 6.07-3.95 10.03-3.96 3.97-10 3.97-6.05 0-10.05-3.97-4-3.96-4-10.03v-84q0-12.75 8.63-21.38Q357.25-686 370-686h84q6.07 0 10.03 3.95 3.97 3.96 3.97 10 0 6.05-3.97 10.05-3.96 4-10.03 4h-86ZM312-92q-26 0-43-17t-17-43v-656q0-26 17-43t43-17h336q26 0 43 17t17 43v656q0 26-17 43t-43 17H312Zm-32-122h400v-532H280v532Z"/></svg>