<svg xmlns="http://www.w3.org/2000/svg" height="48" width="48"><path d="M24 34.15q-4.2 0-7.175-2.975Q13.85 28.2 13.85 24q0-4.2 2.975-7.175Q19.8 13.85 24 13.85q4.2 0 7.175 2.975Q34.15 19.8 34.15 24q0 4.2-2.975 7.175Q28.2 34.15 24 34.15ZM24 24Zm0 6.3q2.65 0 4.475-1.825Q30.3 26.65 30.3 24q0-2.65-1.825-4.475Q26.65 17.7 24 17.7q-2.65 0-4.475 1.825Q17.7 21.35 17.7 24q0 2.65 1.825 4.475Q21.35 30.3 24 30.3ZM7.05 17.55q-.8 0-1.35-.55t-.55-1.4V9q0-1.55 1.15-2.7Q7.45 5.15 9 5.15h6.65q.8 0 1.35.55t.55 1.35q0 .85-.55 1.4-.55.55-1.35.55H9v6.6q0 .85-.575 1.4-.575.55-1.375.55ZM9 42.85q-1.55 0-2.7-1.15-1.15-1.15-1.15-2.7v-6.65q0-.8.55-1.35t1.4-.55q.8 0 1.35.55T9 32.35V39h6.65q.8 0 1.35.575t.55 1.375q0 .8-.55 1.35t-1.35.55Zm23.4 0q-.85 0-1.4-.55-.55-.55-.55-1.4 0-.8.55-1.35t1.4-.55H39v-6.65q0-.8.575-1.35t1.375-.55q.8 0 1.35.55t.55 1.35V39q0 1.55-1.15 2.7-1.15 1.15-2.7 1.15Zm8.55-25.3q-.85 0-1.4-.55-.55-.55-.55-1.4V9h-6.6q-.85 0-1.4-.575-.55-.575-.55-1.375T31 5.7q.55-.55 1.4-.55H39q1.55 0 2.7 1.15 1.15 1.15 1.15 2.7v6.6q0 .85-.55 1.4-.55.55-1.35.55Z"/></svg>