<svg xmlns="http://www.w3.org/2000/svg" version="1.1" width="3300" height="2000"><g id="Notes"><style>
    text {
      font-family: monospace;
      text-anchor: middle;
    }
    text.emphasis {
      font-weight:bold;
    }
    text.lanchor {
      text-anchor: start;
    }
  </style><rect height="2200" id="artboard" fill="white" width="3300" x="0" y="0"/><line id="" style="fill:none;stroke:black;stroke-width:0.5;" x1="263" x2="3036" y1="292" y2="292"/><text class="lanchor emphasis" transform="matrix(1 0 0 1 263 322)">Weight/Scale Variations</text><text transform="matrix(1 0 0 1 559.711 322)">Ultralight</text><text transform="matrix(1 0 0 1 856.422 322)">Thin</text><text transform="matrix(1 0 0 1 1153.13 322)">Light</text><text transform="matrix(1 0 0 1 1449.84 322)">Regular</text><text transform="matrix(1 0 0 1 1746.56 322)">Medium</text><text transform="matrix(1 0 0 1 2043.27 322)">Semibold</text><text transform="matrix(1 0 0 1 2339.98 322)">Bold</text><text transform="matrix(1 0 0 1 2636.69 322)">Heavy</text><text transform="matrix(1 0 0 1 2933.4 322)">Black</text><text id="template-version" style="text-anchor: end;" transform="matrix(1 0 0 1 3036 1933)">Template v.1.0</text><text class="lanchor" transform="matrix(1 0 0 1 263 726)">Small</text><text class="lanchor" transform="matrix(1 0 0 1 263 1156)">Medium</text><text class="lanchor" transform="matrix(1 0 0 1 263 1586)">Large</text></g><g id="Guides"><g id="H-reference" style="fill:#27AAE1;stroke:none;" transform="matrix(1 0 0 1 339 696)"><path d="M 54.9316 0 L 57.666 0 L 30.5664 -70.459 L 28.0762 -70.459 L 0.976562 0 L 3.66211 0 L 12.9395 -24.4629 L 45.7031 -24.4629 Z M 29.1992 -67.0898 L 29.4434 -67.0898 L 44.8242 -26.709 L 13.8184 -26.709 Z"/></g><line id="Baseline-S" style="fill:none;stroke:#27AAE1;opacity:1;stroke-width:0.577;" x1="263" x2="3036" y1="696" y2="696"/><line id="Capline-S" style="fill:none;stroke:#27AAE1;opacity:1;stroke-width:0.577;" x1="263" x2="3036" y1="625.541" y2="625.541"/><g id="H-reference" style="fill:#27AAE1;stroke:none;" transform="matrix(1 0 0 1 339 1126)"><path d="M 54.9316 0 L 57.666 0 L 30.5664 -70.459 L 28.0762 -70.459 L 0.976562 0 L 3.66211 0 L 12.9395 -24.4629 L 45.7031 -24.4629 Z M 29.1992 -67.0898 L 29.4434 -67.0898 L 44.8242 -26.709 L 13.8184 -26.709 Z"/></g><line id="Baseline-M" style="fill:none;stroke:#27AAE1;opacity:1;stroke-width:0.577;" x1="263" x2="3036" y1="1126" y2="1126"/><line id="Capline-M" style="fill:none;stroke:#27AAE1;opacity:1;stroke-width:0.577;" x1="263" x2="3036" y1="1055.54" y2="1055.54"/><g id="H-reference" style="fill:#27AAE1;stroke:none;" transform="matrix(1 0 0 1 339 1556)"><path d="M 54.9316 0 L 57.666 0 L 30.5664 -70.459 L 28.0762 -70.459 L 0.976562 0 L 3.66211 0 L 12.9395 -24.4629 L 45.7031 -24.4629 Z M 29.1992 -67.0898 L 29.4434 -67.0898 L 44.8242 -26.709 L 13.8184 -26.709 Z"/></g><line id="Baseline-L" style="fill:none;stroke:#27AAE1;opacity:1;stroke-width:0.577;" x1="263" x2="3036" y1="1556" y2="1556"/><line id="Capline-L" style="fill:none;stroke:#27AAE1;opacity:1;stroke-width:0.577;" x1="263" x2="3036" y1="1485.54" y2="1485.54"/><rect height="119.336" id="left-margin" style="fill:darkred;stroke:none;opacity:0.4;" width="12.4512" x="1394.06" y="1030.79"/><rect height="119.336" id="right-margin" style="fill:darkgreen;stroke:none;opacity:0.4;" width="12.4512" x="1502.5112" y="1030.79"/><rect x="1406.5112" y="1045" width="96" height="96" fill="none" stroke="blue" stroke-dasharray="5"/><rect x="1394.06" y="1030.79" width="120.9024" height="119.336" fill="none" stroke="blue"/></g><g id="Symbols"><g id="Bold-L" transform="matrix(1 0 0 1 2266 1556)"><path d="M64.5 -24.668 Q55.531 -24.668 49.252 -30.942 Q42.973 -37.215 42.973 -46.177 Q42.973 -49.765 44.062 -53.074 Q45.15 -56.381 47.327 -59.095 Q46.682 -60.506 46.44 -62.125 Q46.198 -63.742 46.198 -65.551 Q46.198 -72.072 49.773 -77.366 Q53.35 -82.66 58.988 -85.201 Q62.334 -89.044 67.051 -91.324 Q71.768 -93.602 77.361 -93.602 Q82.957 -93.602 87.697 -91.305 Q92.438 -89.007 95.863 -85.217 Q101.489 -82.591 105.085 -77.349 Q108.683 -72.108 108.683 -65.553 Q108.683 -63.766 108.4 -62.172 Q108.118 -60.577 107.634 -59.139 Q109.771 -56.381 110.84 -53.074 Q111.907 -49.765 111.907 -46.21 Q111.907 -37.202 105.606 -30.936 Q99.303 -24.668 90.3 -24.668 H64.5 Z M64.5 -38.294 H90.3 Q93.615 -38.294 95.949 -40.672 Q98.282 -43.051 98.282 -46.24 Q98.282 -47.424 97.838 -48.743 Q97.395 -50.063 96.428 -51.142 Q94.815 -53.069 94.291 -54.804 Q93.767 -56.541 93.767 -58.177 Q93.767 -59.659 94.412 -61.393 Q95.057 -63.126 95.057 -65.553 Q95.057 -68.054 93.694 -70 Q92.332 -71.947 90.184 -73.043 Q88.991 -73.504 87.952 -74.282 Q86.914 -75.059 85.874 -76.026 Q85.016 -77.155 82.889 -78.566 Q80.762 -79.977 77.427 -79.977 Q74.094 -79.977 71.94 -78.518 Q69.787 -77.06 68.926 -75.865 Q67.967 -74.897 66.878 -74.011 Q65.79 -73.124 64.742 -72.801 Q62.407 -71.921 61.115 -69.976 Q59.824 -68.033 59.824 -65.553 Q59.824 -63.126 60.469 -61.393 Q61.114 -59.659 61.114 -58.177 Q61.114 -56.534 60.549 -54.791 Q59.985 -53.048 58.373 -51.142 Q57.405 -50.063 57.002 -48.743 Q56.599 -47.424 56.599 -46.24 Q56.599 -43.051 58.892 -40.672 Q61.185 -38.294 64.5 -38.294 Z M22.494 34.349 V15.356 Q22.494 8.219 26.135 2.964 Q29.776 -2.291 35.585 -5.023 Q46.601 -9.914 56.834 -12.413 Q67.067 -14.912 77.356 -14.912 Q87.955 -14.912 98.077 -12.373 Q108.199 -9.833 119.067 -4.967 Q125.103 -2.451 128.786 2.84 Q132.467 8.13 132.467 15.353 V34.349 H22.494 Z M37.249 19.595 H117.551 V15.988 Q117.551 13.461 115.979 11.183 Q114.407 8.906 112.23 7.824 Q102.555 3.389 94.526 1.696 Q86.498 0.003 77.342 0.003 Q68.451 0.003 60.146 1.696 Q51.842 3.389 42.559 7.798 Q40.232 8.882 38.74 11.178 Q37.249 13.476 37.249 16.006 V19.595 Z"/></g><g id="Semibold-L" transform="matrix(1 0 0 1 1970.27 1556)"><path d="M64.5 -23.757 Q55.968 -23.757 49.997 -29.725 Q44.024 -35.694 44.024 -44.22 Q44.024 -47.793 45.131 -51.029 Q46.237 -54.266 48.449 -56.921 Q47.804 -58.421 47.527 -60.111 Q47.249 -61.802 47.249 -63.589 Q47.249 -69.912 50.684 -74.954 Q54.12 -79.996 59.619 -82.397 Q62.896 -86.17 67.436 -88.38 Q71.977 -90.589 77.361 -90.589 Q82.747 -90.589 87.312 -88.36 Q91.877 -86.133 95.233 -82.413 Q100.71 -79.956 104.171 -74.946 Q107.631 -69.934 107.631 -63.591 Q107.631 -61.817 107.313 -60.138 Q106.996 -58.461 106.443 -56.947 Q108.649 -54.266 109.753 -51.029 Q110.856 -47.793 110.856 -44.252 Q110.856 -35.68 104.861 -29.718 Q98.866 -23.757 90.3 -23.757 H64.5 Z M64.5 -35.49 H90.3 Q93.967 -35.49 96.545 -38.149 Q99.124 -40.808 99.124 -44.252 Q99.124 -45.639 98.645 -47.063 Q98.166 -48.486 97.058 -49.763 Q95.586 -51.528 95.097 -53.122 Q94.609 -54.717 94.609 -56.213 Q94.609 -57.837 95.254 -59.605 Q95.899 -61.373 95.899 -63.591 Q95.899 -66.372 94.409 -68.522 Q92.92 -70.671 90.463 -71.851 Q89.341 -72.313 88.407 -73.019 Q87.475 -73.727 86.536 -74.623 Q85.575 -75.823 83.26 -77.339 Q80.944 -78.855 77.415 -78.855 Q73.885 -78.855 71.555 -77.292 Q69.226 -75.728 68.264 -74.462 Q67.406 -73.566 66.422 -72.748 Q65.44 -71.932 64.392 -71.61 Q61.841 -70.631 60.412 -68.489 Q58.982 -66.35 58.982 -63.591 Q58.982 -61.373 59.627 -59.605 Q60.272 -57.837 60.272 -56.213 Q60.272 -54.711 59.743 -53.108 Q59.214 -51.507 57.742 -49.763 Q56.634 -48.486 56.196 -47.063 Q55.757 -45.639 55.757 -44.252 Q55.757 -40.808 58.295 -38.149 Q60.833 -35.49 64.5 -35.49 Z M24.247 31.686 V14.569 Q24.247 7.89 27.619 3.07 Q30.992 -1.75 36.355 -4.252 Q47.232 -9.072 57.258 -11.538 Q67.283 -14.001 77.376 -14.001 Q87.643 -14.001 97.571 -11.497 Q107.497 -8.991 118.296 -4.194 Q123.869 -1.817 127.257 3.017 Q130.645 7.85 130.645 14.585 V31.686 H24.247 Z M36.618 19.314 H118.182 V14.936 Q118.182 12.363 116.61 10.049 Q115.037 7.733 112.86 6.632 Q102.905 1.987 94.702 0.224 Q86.498 -1.538 77.376 -1.538 Q68.381 -1.538 59.97 0.224 Q51.561 1.987 41.898 6.618 Q39.601 7.721 38.11 10.052 Q36.618 12.382 36.618 14.954 V19.314 Z"/></g><g id="Medium-L" transform="matrix(1 0 0 1 1674.31 1556)"><path d="M64.5 -23.073 Q56.297 -23.073 50.555 -28.812 Q44.813 -34.553 44.813 -42.751 Q44.813 -46.313 45.932 -49.496 Q47.051 -52.679 49.289 -55.291 Q48.644 -56.855 48.341 -58.602 Q48.038 -60.348 48.038 -62.117 Q48.038 -68.291 51.368 -73.145 Q54.699 -77.998 60.093 -80.293 Q63.316 -84.015 67.725 -86.17 Q72.135 -88.326 77.361 -88.326 Q82.589 -88.326 87.023 -86.151 Q91.456 -83.976 94.759 -80.311 Q100.125 -77.981 103.484 -73.141 Q106.843 -68.304 106.843 -62.118 Q106.843 -60.354 106.499 -58.613 Q106.156 -56.873 105.549 -55.302 Q107.809 -52.679 108.937 -49.496 Q110.068 -46.313 110.068 -42.783 Q110.068 -34.538 104.301 -28.806 Q98.537 -23.073 90.3 -23.073 H64.5 Z M64.5 -33.387 H90.3 Q94.23 -33.387 96.992 -36.256 Q99.754 -39.124 99.754 -42.76 Q99.754 -44.3 99.249 -45.802 Q98.745 -47.304 97.532 -48.728 Q96.165 -50.37 95.702 -51.86 Q95.239 -53.35 95.239 -54.741 Q95.239 -56.47 95.884 -58.265 Q96.529 -60.059 96.529 -62.118 Q96.529 -65.11 94.946 -67.412 Q93.362 -69.713 90.674 -70.958 Q89.603 -71.418 88.749 -72.072 Q87.896 -72.727 87.033 -73.572 Q85.996 -74.823 83.539 -76.418 Q81.081 -78.014 77.405 -78.014 Q73.727 -78.014 71.266 -76.371 Q68.805 -74.728 67.767 -73.411 Q66.985 -72.566 66.08 -71.801 Q65.177 -71.039 64.129 -70.716 Q61.415 -69.663 59.883 -67.375 Q58.352 -65.087 58.352 -62.118 Q58.352 -60.059 58.997 -58.265 Q59.642 -56.47 59.642 -54.741 Q59.642 -53.343 59.138 -51.847 Q58.635 -50.349 57.268 -48.728 Q56.055 -47.304 55.591 -45.802 Q55.127 -44.3 55.127 -42.76 Q55.127 -39.124 57.848 -36.256 Q60.57 -33.387 64.5 -33.387 Z M25.561 29.688 V13.98 Q25.561 7.643 28.733 3.149 Q31.903 -1.343 36.934 -3.673 Q47.706 -8.442 57.576 -10.88 Q67.444 -13.318 77.39 -13.318 Q87.409 -13.318 97.19 -10.839 Q106.972 -8.361 117.717 -3.617 Q122.942 -1.342 126.11 3.149 Q129.277 7.64 129.277 14.009 V29.688 H25.561 Z M36.144 19.105 H118.656 V14.146 Q118.656 11.541 117.084 9.198 Q115.511 6.855 113.335 5.739 Q103.168 0.935 94.833 -0.881 Q86.496 -2.696 77.402 -2.696 Q68.328 -2.696 59.84 -0.881 Q51.352 0.935 41.401 5.732 Q39.127 6.85 37.636 9.206 Q36.144 11.563 36.144 14.164 V19.105 Z"/></g><g id="Regular-L" transform="matrix(1 0 0 1 1378.56 1556)"><path d="M64.5 -22.572 Q56.539 -22.572 50.965 -28.143 Q45.392 -33.714 45.392 -41.674 Q45.392 -45.227 46.521 -48.372 Q47.649 -51.516 49.907 -54.096 Q49.262 -55.709 48.939 -57.495 Q48.617 -59.28 48.617 -61.036 Q48.617 -67.103 51.869 -71.818 Q55.123 -76.533 60.44 -78.751 Q63.624 -82.433 67.938 -84.552 Q72.251 -86.669 77.361 -86.669 Q82.473 -86.669 86.811 -84.532 Q91.148 -82.396 94.412 -78.767 Q99.698 -76.531 102.981 -71.821 Q106.264 -67.109 106.264 -61.038 Q106.264 -59.28 105.901 -57.495 Q105.538 -55.709 104.893 -54.096 Q107.191 -51.516 108.341 -48.372 Q109.489 -45.227 109.489 -41.706 Q109.489 -33.701 103.892 -28.137 Q98.295 -22.572 90.3 -22.572 H64.5 Z M64.5 -31.844 H90.3 Q94.422 -31.844 97.319 -34.867 Q100.217 -37.891 100.217 -41.665 Q100.217 -43.318 99.693 -44.878 Q99.169 -46.437 97.879 -47.969 Q96.589 -49.522 96.145 -50.934 Q95.702 -52.348 95.702 -53.662 Q95.702 -55.467 96.347 -57.281 Q96.992 -59.095 96.992 -61.038 Q96.992 -64.184 95.339 -66.598 Q93.686 -69.012 90.829 -70.302 Q89.797 -70.763 89 -71.379 Q88.204 -71.995 87.398 -72.801 Q86.306 -74.091 83.744 -75.744 Q81.183 -77.397 77.397 -77.397 Q73.611 -77.397 71.053 -75.696 Q68.497 -73.996 67.403 -72.64 Q66.677 -71.834 65.83 -71.108 Q64.984 -70.382 63.936 -70.06 Q61.104 -68.954 59.496 -66.558 Q57.889 -64.163 57.889 -61.038 Q57.889 -59.095 58.534 -57.281 Q59.179 -55.467 59.179 -53.662 Q59.179 -52.342 58.695 -50.921 Q58.211 -49.501 56.921 -47.969 Q55.631 -46.437 55.148 -44.878 Q54.664 -43.318 54.664 -41.665 Q54.664 -37.891 57.521 -34.867 Q60.378 -31.844 64.5 -31.844 Z M26.526 28.222 V13.548 Q26.526 7.461 29.549 3.209 Q32.572 -1.045 37.358 -3.249 Q48.053 -7.979 57.808 -10.397 Q67.564 -12.816 77.4 -12.816 Q87.236 -12.816 96.911 -10.357 Q106.586 -7.898 117.293 -3.193 Q122.263 -0.993 125.269 3.246 Q128.274 7.485 128.274 13.587 V28.222 H26.526 Z M35.797 18.95 H119.002 V13.569 Q119.002 10.937 117.43 8.575 Q115.858 6.211 113.681 5.083 Q103.361 0.164 94.929 -1.69 Q86.496 -3.544 77.421 -3.544 Q68.289 -3.544 59.743 -1.69 Q51.197 0.164 41.038 5.083 Q38.781 6.211 37.289 8.586 Q35.797 10.962 35.797 13.587 V18.95 Z"/></g><g id="Light-L" transform="matrix(1 0 0 1 1082.77 1556)"><path d="M64.5 -24.494 Q57.815 -24.494 53.185 -29.185 Q48.556 -33.875 48.556 -40.434 Q48.556 -44.452 50.11 -47.069 Q51.666 -49.686 53.038 -52.701 Q52.674 -54.406 52.227 -56.197 Q51.781 -57.989 51.781 -59.811 Q51.781 -64.921 54.506 -68.897 Q57.231 -72.872 62.32 -74.967 Q65.145 -78.029 68.713 -80.162 Q72.282 -82.296 77.361 -82.296 Q82.566 -82.296 86.098 -80.098 Q89.629 -77.898 92.551 -74.985 Q97.558 -72.872 100.344 -68.899 Q103.132 -64.924 103.132 -59.804 Q103.132 -57.979 102.629 -56.192 Q102.126 -54.406 101.762 -52.701 Q103.19 -49.686 104.774 -47.069 Q106.357 -44.452 106.357 -40.477 Q106.357 -33.856 101.705 -29.175 Q97.055 -24.494 90.3 -24.494 H64.5 Z M64.5 -31.565 H90.3 Q94.026 -31.565 96.656 -34.262 Q99.286 -36.96 99.286 -40.422 Q99.286 -41.936 98.793 -43.336 Q98.3 -44.736 97.134 -46.139 Q95.731 -47.849 95.25 -49.414 Q94.771 -50.978 94.771 -52.424 Q94.771 -54.438 95.416 -56.27 Q96.061 -58.103 96.061 -59.801 Q96.061 -62.61 94.563 -64.819 Q93.065 -67.027 90.424 -68.193 Q89.3 -68.623 88.38 -69.318 Q87.459 -70.013 86.653 -70.971 Q85.637 -72.142 83.265 -73.683 Q80.894 -75.226 77.39 -75.226 Q73.885 -75.226 71.524 -73.624 Q69.163 -72.019 68.147 -70.779 Q67.39 -69.912 66.435 -69.154 Q65.48 -68.398 64.339 -67.951 Q61.72 -66.977 60.285 -64.784 Q58.85 -62.591 58.85 -59.801 Q58.85 -58.103 59.495 -56.275 Q60.14 -54.446 60.14 -52.439 Q60.14 -50.978 59.604 -49.399 Q59.069 -47.82 57.666 -46.139 Q56.5 -44.731 56.062 -43.333 Q55.625 -41.933 55.625 -40.419 Q55.625 -36.96 58.206 -34.262 Q60.786 -31.565 64.5 -31.565 Z M29.472 24.16 V12.215 Q29.472 7.021 32.2 3.231 Q34.928 -0.556 39.305 -2.591 Q49.431 -7.045 58.776 -9.357 Q68.118 -11.668 77.398 -11.668 Q86.68 -11.668 95.982 -9.349 Q105.283 -7.029 115.389 -2.524 Q119.909 -0.521 122.618 3.262 Q125.328 7.045 125.328 12.253 V24.16 H29.472 Z M36.542 17.089 H118.258 V12.244 Q118.258 9.667 116.624 7.35 Q114.989 5.033 112.533 3.688 Q102.981 -0.89 94.621 -2.745 Q86.262 -4.599 77.418 -4.599 Q68.517 -4.599 60.074 -2.745 Q51.631 -0.89 42.278 3.688 Q39.711 5.033 38.126 7.367 Q36.542 9.702 36.542 12.253 V17.089 Z"/></g><g id="Thin-L" transform="matrix(1 0 0 1 787.282 1556)"><path d="M64.5 -26.418 Q59.092 -26.418 55.404 -30.226 Q51.718 -34.035 51.718 -39.194 Q51.718 -43.676 53.699 -45.768 Q55.681 -47.857 56.171 -51.305 Q56.084 -53.105 55.514 -54.899 Q54.943 -56.696 54.943 -58.585 Q54.943 -62.739 57.141 -65.977 Q59.34 -69.213 64.2 -71.184 Q66.664 -73.627 69.487 -75.775 Q72.313 -77.924 77.361 -77.924 Q82.66 -77.924 85.385 -75.663 Q88.109 -73.403 90.69 -71.202 Q95.418 -69.213 97.709 -65.977 Q99.999 -62.741 99.999 -58.571 Q99.999 -56.676 99.357 -54.89 Q98.716 -53.105 98.629 -51.305 Q99.19 -47.857 101.207 -45.768 Q103.224 -43.676 103.224 -39.248 Q103.224 -34.011 99.52 -30.215 Q95.815 -26.418 90.3 -26.418 H64.5 Z M64.5 -31.286 H90.3 Q93.631 -31.286 95.994 -33.658 Q98.356 -36.03 98.356 -39.177 Q98.356 -40.554 97.895 -41.794 Q97.432 -43.034 96.39 -44.31 Q94.873 -46.177 94.357 -47.891 Q93.841 -49.607 93.841 -51.187 Q93.841 -53.409 94.486 -55.26 Q95.131 -57.11 95.131 -58.564 Q95.131 -61.036 93.788 -63.039 Q92.446 -65.042 90.023 -66.085 Q88.804 -66.483 87.76 -67.257 Q86.715 -68.033 85.909 -69.142 Q84.967 -70.192 82.786 -71.624 Q80.606 -73.056 77.382 -73.056 Q74.159 -73.056 71.995 -71.55 Q69.829 -70.044 68.891 -68.918 Q68.104 -67.988 67.04 -67.201 Q65.975 -66.413 64.742 -65.843 Q62.338 -65 61.073 -63.01 Q59.811 -61.022 59.811 -58.564 Q59.811 -57.11 60.456 -55.269 Q61.101 -53.425 61.101 -51.215 Q61.101 -49.615 60.514 -47.877 Q59.927 -46.139 58.41 -44.31 Q57.368 -43.026 56.978 -41.786 Q56.586 -40.548 56.586 -39.173 Q56.586 -36.03 58.89 -33.658 Q61.194 -31.286 64.5 -31.286 Z M32.418 20.098 V10.881 Q32.418 6.581 34.851 3.256 Q37.284 -0.068 41.251 -1.933 Q50.81 -6.111 59.742 -8.316 Q68.673 -10.522 77.398 -10.522 Q86.124 -10.522 95.052 -8.342 Q103.982 -6.161 113.485 -1.856 Q117.553 -0.047 119.968 3.278 Q122.382 6.603 122.382 10.92 V20.098 H32.418 Z M37.286 15.228 H117.514 V10.918 Q117.514 8.395 115.818 6.124 Q114.121 3.854 111.387 2.291 Q102.6 -1.945 94.314 -3.799 Q86.027 -5.654 77.413 -5.654 Q68.742 -5.654 60.404 -3.799 Q52.064 -1.945 43.518 2.291 Q40.641 3.854 38.963 6.148 Q37.286 8.441 37.286 10.92 V15.228 Z"/></g><g id="Ultralight-L" transform="matrix(1 0 0 1 491.205 1556)"><path d="M64.5 -27.571 Q59.858 -27.571 56.736 -30.85 Q53.616 -34.132 53.616 -38.449 Q53.616 -43.212 55.854 -44.986 Q58.09 -46.759 58.05 -50.468 Q58.131 -52.322 57.486 -54.12 Q56.841 -55.92 56.841 -57.85 Q56.841 -61.432 58.722 -64.224 Q60.606 -67.019 65.327 -68.915 Q67.575 -70.984 69.953 -73.143 Q72.332 -75.301 77.361 -75.301 Q82.715 -75.301 84.956 -73.003 Q87.198 -70.705 89.574 -68.931 Q94.135 -67.017 96.128 -64.224 Q98.121 -61.43 98.121 -57.829 Q98.121 -55.894 97.395 -54.109 Q96.669 -52.322 96.75 -50.468 Q96.79 -46.759 99.069 -44.986 Q101.346 -43.212 101.346 -38.511 Q101.346 -34.104 98.208 -30.838 Q95.07 -27.571 90.3 -27.571 H64.5 Z M64.5 -31.118 H90.3 Q93.394 -31.118 95.595 -33.295 Q97.798 -35.472 97.798 -38.431 Q97.798 -39.726 97.355 -40.869 Q96.911 -42.014 95.944 -43.212 Q94.359 -45.174 93.82 -46.979 Q93.283 -48.785 93.283 -50.444 Q93.283 -52.792 93.928 -54.654 Q94.573 -56.515 94.573 -57.823 Q94.573 -60.093 93.323 -61.972 Q92.074 -63.852 89.781 -64.819 Q88.507 -65.2 87.388 -66.022 Q86.269 -66.845 85.463 -68.044 Q84.566 -69.023 82.499 -70.389 Q80.433 -71.753 77.379 -71.753 Q74.323 -71.753 72.277 -70.305 Q70.231 -68.859 69.338 -67.802 Q68.531 -66.835 67.403 -66.029 Q66.274 -65.222 64.984 -64.577 Q62.707 -63.815 61.548 -61.948 Q60.388 -60.079 60.388 -57.823 Q60.388 -56.515 61.033 -54.664 Q61.678 -52.813 61.678 -50.479 Q61.678 -48.796 61.061 -46.964 Q60.441 -45.131 58.856 -43.212 Q57.889 -42.002 57.526 -40.859 Q57.163 -39.718 57.163 -38.426 Q57.163 -35.472 59.301 -33.295 Q61.441 -31.118 64.5 -31.118 Z M34.185 17.66 V10.081 Q34.185 6.316 36.441 3.27 Q38.697 0.224 42.418 -1.54 Q51.639 -5.552 60.322 -7.692 Q69.005 -9.833 77.397 -9.833 Q85.79 -9.833 94.496 -7.737 Q103.2 -5.641 112.341 -1.456 Q116.14 0.237 118.378 3.286 Q120.615 6.337 120.615 10.12 V17.66 H34.185 Z M37.733 14.113 H117.068 V10.123 Q117.068 7.632 115.334 5.39 Q113.601 3.148 110.698 1.454 Q102.373 -2.577 94.13 -4.431 Q85.887 -6.286 77.411 -6.286 Q68.88 -6.286 60.603 -4.431 Q52.326 -2.577 44.263 1.454 Q41.199 3.148 39.466 5.416 Q37.733 7.687 37.733 10.12 V14.113 Z"/></g><g id="Bold-M" transform="matrix(1 0 0 1 2281.8 1126)"><path d="M50 -27.667 Q42.839 -27.667 37.825 -32.679 Q32.812 -37.691 32.812 -44.85 Q32.812 -47.685 33.641 -50.25 Q34.469 -52.814 36.125 -54.917 Q35.688 -56.074 35.5 -57.277 Q35.312 -58.48 35.312 -59.831 Q35.312 -65 38.146 -69.186 Q40.981 -73.372 45.415 -75.467 Q48.125 -78.417 51.894 -80.23 Q55.663 -82.042 59.985 -82.042 Q64.308 -82.042 68.076 -80.23 Q71.845 -78.417 74.562 -75.48 Q79.006 -73.384 81.847 -69.194 Q84.688 -65.005 84.688 -59.832 Q84.688 -58.48 84.5 -57.277 Q84.312 -56.074 83.875 -54.917 Q85.531 -52.814 86.36 -50.25 Q87.188 -47.685 87.188 -44.85 Q87.188 -37.691 82.175 -32.679 Q77.161 -27.667 70 -27.667 H50 Z M50 -41.542 H70 Q71.507 -41.542 72.41 -42.605 Q73.312 -43.667 73.312 -44.924 Q73.312 -45.474 73.125 -45.945 Q72.938 -46.416 72.5 -46.917 Q70.875 -48.855 70.344 -50.605 Q69.812 -52.355 69.812 -54.105 Q69.812 -55.542 70.312 -56.886 Q70.812 -58.23 70.812 -59.855 Q70.812 -60.972 70.256 -61.77 Q69.7 -62.567 68.75 -62.917 Q67.422 -63.525 66.399 -64.315 Q65.375 -65.105 64.375 -66.167 Q63.875 -66.855 62.799 -67.511 Q61.724 -68.167 59.986 -68.167 Q58.25 -68.167 57.219 -67.48 Q56.188 -66.792 55.625 -66.105 Q54.688 -65.105 53.625 -64.261 Q52.562 -63.417 51.25 -62.855 Q50.3 -62.505 49.744 -61.726 Q49.188 -60.949 49.188 -59.855 Q49.188 -58.23 49.688 -56.886 Q50.188 -55.542 50.188 -54.105 Q50.188 -52.355 49.656 -50.605 Q49.125 -48.855 47.5 -46.917 Q47.062 -46.416 46.875 -45.945 Q46.688 -45.474 46.688 -44.924 Q46.688 -43.667 47.59 -42.605 Q48.492 -41.542 50 -41.542 Z M16.875 19.52 V1.77 Q16.875 -3.517 19.619 -7.899 Q22.361 -12.28 27.003 -14.606 Q35 -18.48 43.276 -20.511 Q51.553 -22.542 60 -22.542 Q68.688 -22.542 76.969 -20.574 Q85.25 -18.605 92.998 -14.731 Q97.639 -12.422 100.381 -8.076 Q103.125 -3.73 103.125 1.764 V19.52 H16.875 Z M32 4.395 H88 V2.395 Q88 1.118 87.312 0.073 Q86.625 -0.972 85.438 -1.542 Q79.5 -4.355 73.166 -5.886 Q66.831 -7.417 60 -7.417 Q53.375 -7.417 46.812 -5.886 Q40.25 -4.355 34.562 -1.542 Q33.375 -0.972 32.688 0.073 Q32 1.118 32 2.395 V4.395 Z"/></g><g id="Semibold-M" transform="matrix(1 0 0 1 1985.97 1126)"><path d="M50 -26.744 Q43.291 -26.744 38.595 -31.439 Q33.9 -36.132 33.9 -42.84 Q33.9 -45.612 34.755 -48.121 Q35.61 -50.631 37.32 -52.69 Q36.829 -53.914 36.614 -55.191 Q36.4 -56.469 36.4 -57.82 Q36.4 -62.771 39.097 -66.714 Q41.796 -70.655 46.068 -72.586 Q48.669 -75.482 52.246 -77.214 Q55.825 -78.945 59.985 -78.945 Q64.145 -78.945 67.724 -77.214 Q71.301 -75.482 73.91 -72.6 Q78.191 -70.666 80.896 -66.721 Q83.6 -62.776 83.6 -57.821 Q83.6 -56.469 83.386 -55.191 Q83.171 -53.914 82.68 -52.69 Q84.39 -50.631 85.245 -48.121 Q86.1 -45.612 86.1 -42.84 Q86.1 -36.132 81.405 -31.439 Q76.709 -26.744 70 -26.744 H50 Z M50 -38.662 H70 Q71.834 -38.662 73.007 -39.969 Q74.183 -41.276 74.183 -42.894 Q74.183 -43.601 73.94 -44.207 Q73.699 -44.814 73.153 -45.45 Q71.636 -47.225 71.159 -48.866 Q70.683 -50.507 70.683 -52.094 Q70.683 -53.695 71.183 -55.066 Q71.683 -56.436 71.683 -57.844 Q71.683 -59.179 70.974 -60.215 Q70.265 -61.252 69.076 -61.722 Q67.856 -62.275 66.888 -62.984 Q65.919 -63.692 65.028 -64.7 Q64.472 -65.442 63.208 -66.234 Q61.941 -67.026 59.986 -67.026 Q58.032 -67.026 56.811 -66.202 Q55.59 -65.38 54.972 -64.637 Q54.144 -63.692 53.136 -62.93 Q52.127 -62.167 50.924 -61.66 Q49.735 -61.19 49.026 -60.172 Q48.318 -59.155 48.318 -57.844 Q48.318 -56.436 48.818 -55.066 Q49.318 -53.695 49.318 -52.094 Q49.318 -50.507 48.841 -48.866 Q48.364 -47.225 46.847 -45.45 Q46.301 -44.814 46.06 -44.207 Q45.818 -43.601 45.818 -42.894 Q45.818 -41.276 46.992 -39.969 Q48.166 -38.662 50 -38.662 Z M18.723 16.749 V0.955 Q18.723 -3.827 21.184 -7.785 Q23.644 -11.741 27.817 -13.845 Q35.653 -17.665 43.712 -19.641 Q51.774 -21.619 60 -21.619 Q68.361 -21.619 76.425 -19.677 Q84.489 -17.735 92.183 -13.916 Q96.356 -11.822 98.816 -7.885 Q101.278 -3.947 101.278 0.951 V16.749 H18.723 Z M31.348 4.124 H88.653 V1.308 Q88.653 -0.022 87.965 -1.11 Q87.278 -2.199 86.09 -2.792 Q79.826 -5.822 73.329 -7.407 Q66.831 -8.994 60 -8.994 Q53.266 -8.994 46.65 -7.407 Q40.032 -5.822 33.91 -2.792 Q32.722 -2.199 32.035 -1.11 Q31.348 -0.022 31.348 1.308 V4.124 Z"/></g><g id="Medium-M" transform="matrix(1 0 0 1 1689.91 1126)"><path d="M50 -26.051 Q43.631 -26.051 39.172 -30.507 Q34.715 -34.965 34.715 -41.331 Q34.715 -44.057 35.59 -46.525 Q36.466 -48.994 38.218 -51.017 Q37.685 -52.294 37.45 -53.627 Q37.215 -54.961 37.215 -56.312 Q37.215 -61.1 39.811 -64.859 Q42.407 -68.616 46.556 -70.426 Q49.076 -73.281 52.511 -74.951 Q55.947 -76.621 59.985 -76.621 Q64.022 -76.621 67.459 -74.951 Q70.894 -73.281 73.421 -70.439 Q77.58 -68.629 80.183 -64.866 Q82.785 -61.105 82.785 -56.314 Q82.785 -54.961 82.55 -53.627 Q82.315 -52.294 81.782 -51.017 Q83.534 -48.994 84.41 -46.525 Q85.285 -44.057 85.285 -41.331 Q85.285 -34.965 80.828 -30.507 Q76.369 -26.051 70 -26.051 H50 Z M50 -36.501 H70 Q72.079 -36.501 73.456 -37.992 Q74.834 -39.482 74.834 -41.37 Q74.834 -42.196 74.551 -42.904 Q74.269 -43.611 73.641 -44.35 Q72.206 -46.001 71.77 -47.561 Q71.334 -49.121 71.334 -50.586 Q71.334 -52.309 71.834 -53.7 Q72.334 -55.091 72.334 -56.336 Q72.334 -57.834 71.511 -59.05 Q70.689 -60.266 69.321 -60.825 Q68.183 -61.337 67.255 -61.985 Q66.326 -62.632 65.516 -63.6 Q64.921 -64.382 63.513 -65.276 Q62.104 -66.17 59.986 -66.17 Q57.87 -66.17 56.505 -65.245 Q55.141 -64.32 54.484 -63.537 Q53.736 -62.632 52.769 -61.931 Q51.801 -61.23 50.679 -60.762 Q49.311 -60.204 48.489 -59.006 Q47.666 -57.81 47.666 -56.336 Q47.666 -55.091 48.166 -53.7 Q48.666 -52.309 48.666 -50.586 Q48.666 -49.121 48.23 -47.561 Q47.794 -46.001 46.359 -44.35 Q45.731 -43.611 45.449 -42.904 Q45.166 -42.196 45.166 -41.37 Q45.166 -39.482 46.544 -37.992 Q47.921 -36.501 50 -36.501 Z M20.109 14.67 V0.344 Q20.109 -4.06 22.358 -7.699 Q24.606 -11.339 28.429 -13.275 Q36.141 -17.054 44.041 -18.99 Q51.94 -20.926 60 -20.926 Q68.116 -20.926 76.017 -19.005 Q83.919 -17.084 91.571 -13.305 Q95.394 -11.372 97.642 -7.741 Q99.891 -4.11 99.891 0.341 V14.67 H20.109 Z M30.859 3.92 H89.141 V0.493 Q89.141 -0.876 88.454 -1.997 Q87.766 -3.119 86.579 -3.73 Q80.071 -6.922 73.451 -8.549 Q66.831 -10.176 60 -10.176 Q53.185 -10.176 46.528 -8.549 Q39.87 -6.922 33.421 -3.73 Q32.234 -3.119 31.546 -1.997 Q30.859 -0.876 30.859 0.493 V3.92 Z"/></g><g id="Regular-M" transform="matrix(1 0 0 1 1394.06 1126)"><path d="M50 -25.542 Q43.88 -25.542 39.596 -29.825 Q35.312 -34.107 35.312 -40.225 Q35.312 -42.917 36.204 -45.355 Q37.094 -47.792 38.875 -49.792 Q38.312 -51.105 38.062 -52.48 Q37.812 -53.855 37.812 -55.206 Q37.812 -59.875 40.334 -63.499 Q42.856 -67.122 46.915 -68.842 Q49.375 -71.667 52.706 -73.292 Q56.038 -74.917 59.985 -74.917 Q63.932 -74.917 67.264 -73.292 Q70.595 -71.667 73.062 -68.855 Q77.131 -67.134 79.66 -63.506 Q82.188 -59.88 82.188 -55.207 Q82.188 -53.855 81.938 -52.48 Q81.688 -51.105 81.125 -49.792 Q82.906 -47.792 83.797 -45.355 Q84.688 -42.917 84.688 -40.225 Q84.688 -34.107 80.404 -29.825 Q76.12 -25.542 70 -25.542 H50 Z M50 -34.917 H70 Q72.257 -34.917 73.785 -36.542 Q75.312 -38.167 75.312 -40.254 Q75.312 -41.166 75 -41.947 Q74.688 -42.73 74 -43.542 Q72.625 -45.105 72.219 -46.605 Q71.812 -48.105 71.812 -49.48 Q71.812 -51.292 72.312 -52.699 Q72.812 -54.105 72.812 -55.23 Q72.812 -56.847 71.906 -58.195 Q71 -59.542 69.5 -60.167 Q68.422 -60.65 67.524 -61.252 Q66.625 -61.855 65.875 -62.792 Q65.25 -63.605 63.736 -64.574 Q62.224 -65.542 59.986 -65.542 Q57.75 -65.542 56.281 -64.542 Q54.812 -63.542 54.125 -62.73 Q53.438 -61.855 52.5 -61.199 Q51.562 -60.542 50.5 -60.105 Q49 -59.48 48.094 -58.152 Q47.188 -56.824 47.188 -55.23 Q47.188 -54.105 47.688 -52.699 Q48.188 -51.292 48.188 -49.48 Q48.188 -48.105 47.781 -46.605 Q47.375 -45.105 46 -43.542 Q45.312 -42.73 45 -41.947 Q44.688 -41.166 44.688 -40.254 Q44.688 -38.167 46.215 -36.542 Q47.742 -34.917 50 -34.917 Z M21.125 13.145 V-0.105 Q21.125 -4.23 23.219 -7.636 Q25.312 -11.042 28.878 -12.856 Q36.5 -16.605 44.281 -18.511 Q52.062 -20.417 60 -20.417 Q67.938 -20.417 75.719 -18.511 Q83.5 -16.605 91.123 -12.856 Q94.688 -11.042 96.781 -7.636 Q98.875 -4.23 98.875 -0.105 V13.145 H21.125 Z M30.5 3.77 H89.5 V-0.105 Q89.5 -1.504 88.812 -2.647 Q88.125 -3.792 86.938 -4.417 Q80.25 -7.73 73.541 -9.386 Q66.831 -11.042 60 -11.042 Q53.125 -11.042 46.438 -9.386 Q39.75 -7.73 33.062 -4.417 Q31.875 -3.792 31.188 -2.647 Q30.5 -1.504 30.5 -0.105 V3.77 Z"/></g><g id="Light-M" transform="matrix(1 0 0 1 1098.18 1126)"><path d="M50 -27.032 Q44.87 -27.032 41.318 -30.632 Q37.765 -34.231 37.765 -39.264 Q37.765 -42.316 38.986 -44.345 Q40.208 -46.374 41.303 -48.711 Q40.958 -50.095 40.611 -51.474 Q40.265 -52.852 40.265 -54.256 Q40.265 -58.184 42.377 -61.235 Q44.49 -64.285 48.373 -65.909 Q50.553 -68.254 53.307 -69.891 Q56.061 -71.527 59.985 -71.527 Q64.005 -71.527 66.711 -69.855 Q69.418 -68.181 71.62 -65.922 Q75.472 -64.297 77.616 -61.241 Q79.76 -58.186 79.76 -54.251 Q79.76 -52.845 79.401 -51.47 Q79.043 -50.095 78.698 -48.711 Q79.805 -46.374 81.032 -44.345 Q82.26 -42.316 82.26 -39.274 Q82.26 -34.227 78.709 -30.63 Q75.159 -27.032 70 -27.032 H50 Z M50 -34.027 H70 Q72.237 -34.027 73.751 -35.617 Q75.265 -37.206 75.265 -39.282 Q75.265 -40.19 74.953 -40.969 Q74.64 -41.747 73.953 -42.556 Q72.578 -44.126 72.171 -45.631 Q71.765 -47.137 71.765 -48.519 Q71.765 -50.35 72.265 -51.771 Q72.765 -53.191 72.765 -54.269 Q72.765 -55.867 71.859 -57.2 Q70.953 -58.532 69.476 -59.157 Q68.374 -59.616 67.475 -60.232 Q66.578 -60.847 65.828 -61.806 Q65.203 -62.595 63.703 -63.564 Q62.204 -64.532 59.986 -64.532 Q57.77 -64.532 56.315 -63.521 Q54.86 -62.509 54.172 -61.72 Q53.461 -60.845 52.536 -60.189 Q51.61 -59.532 50.524 -59.095 Q49.045 -58.476 48.153 -57.161 Q47.26 -55.846 47.26 -54.269 Q47.26 -53.191 47.76 -51.774 Q48.26 -50.356 48.26 -48.529 Q48.26 -47.144 47.841 -45.631 Q47.422 -44.119 46.047 -42.556 Q45.36 -41.744 45.06 -40.966 Q44.76 -40.189 44.76 -39.28 Q44.76 -37.206 46.266 -35.617 Q47.773 -34.027 50 -34.027 Z M23.409 9.996 V-0.514 Q23.409 -4.091 25.321 -7.089 Q27.235 -10.087 30.531 -11.721 Q37.858 -15.256 45.225 -17.055 Q52.591 -18.855 60.001 -18.855 Q67.41 -18.855 74.782 -17.056 Q82.154 -15.259 89.475 -11.724 Q92.769 -10.089 94.68 -7.09 Q96.591 -4.091 96.591 -0.514 V9.996 H23.409 Z M30.404 3.001 H89.596 V-0.507 Q89.596 -2.056 88.716 -3.357 Q87.836 -4.657 86.289 -5.499 Q79.859 -8.644 73.279 -10.251 Q66.698 -11.86 59.998 -11.86 Q53.252 -11.86 46.694 -10.251 Q40.135 -8.644 33.736 -5.499 Q32.164 -4.657 31.284 -3.352 Q30.404 -2.047 30.404 -0.514 V3.001 Z"/></g><g id="Thin-M" transform="matrix(1 0 0 1 802.565 1126)"><path d="M50 -28.524 Q45.859 -28.524 43.038 -31.44 Q40.216 -34.356 40.216 -38.302 Q40.216 -41.715 41.767 -43.336 Q43.32 -44.956 43.731 -47.629 Q43.601 -49.086 43.159 -50.469 Q42.716 -51.851 42.716 -53.305 Q42.716 -56.492 44.42 -58.971 Q46.125 -61.449 49.83 -62.976 Q51.731 -64.84 53.907 -66.49 Q56.085 -68.139 59.985 -68.139 Q64.078 -68.139 66.159 -66.417 Q68.239 -64.696 70.177 -62.99 Q73.815 -61.461 75.573 -58.977 Q77.331 -56.494 77.331 -53.294 Q77.331 -51.836 76.865 -50.461 Q76.399 -49.086 76.269 -47.629 Q76.704 -44.956 78.267 -43.336 Q79.831 -41.715 79.831 -38.321 Q79.831 -34.347 77.014 -31.436 Q74.196 -28.524 70 -28.524 H50 Z M50 -33.139 H70 Q72.218 -33.139 73.716 -34.691 Q75.216 -36.245 75.216 -38.311 Q75.216 -39.216 74.904 -39.991 Q74.591 -40.766 73.904 -41.571 Q72.529 -43.146 72.123 -44.659 Q71.716 -46.171 71.716 -47.557 Q71.716 -49.409 72.216 -50.844 Q72.716 -52.277 72.716 -53.307 Q72.716 -54.887 71.81 -56.206 Q70.904 -57.524 69.453 -58.149 Q68.326 -58.582 67.427 -59.211 Q66.529 -59.841 65.779 -60.821 Q65.154 -61.586 63.669 -62.555 Q62.182 -63.524 59.986 -63.524 Q57.791 -63.524 56.35 -62.499 Q54.909 -61.475 54.221 -60.711 Q53.485 -59.836 52.572 -59.18 Q51.659 -58.524 50.547 -58.086 Q49.09 -57.474 48.211 -56.171 Q47.331 -54.87 47.331 -53.307 Q47.331 -52.277 47.831 -50.85 Q48.331 -49.421 48.331 -47.577 Q48.331 -46.182 47.901 -44.657 Q47.471 -43.134 46.096 -41.571 Q45.409 -40.759 45.12 -39.985 Q44.831 -39.211 44.831 -38.309 Q44.831 -36.245 46.318 -34.691 Q47.804 -33.139 50 -33.139 Z M25.692 6.848 V-0.922 Q25.692 -3.951 27.425 -6.541 Q29.157 -9.131 32.184 -10.586 Q39.215 -13.907 46.167 -15.6 Q53.12 -17.292 60.001 -17.292 Q66.882 -17.292 73.845 -15.602 Q80.808 -13.912 87.828 -10.59 Q90.85 -9.135 92.579 -6.544 Q94.308 -3.952 94.308 -0.922 V6.848 H25.692 Z M30.308 2.231 H89.692 V-0.91 Q89.692 -2.61 88.62 -4.066 Q87.547 -5.524 85.64 -6.581 Q79.469 -9.557 73.016 -11.117 Q66.564 -12.677 59.994 -12.677 Q53.38 -12.677 46.95 -11.117 Q40.519 -9.557 34.409 -6.581 Q32.453 -5.524 31.38 -4.057 Q30.308 -2.591 30.308 -0.922 V2.231 Z"/></g><g id="Ultralight-M" transform="matrix(1 0 0 1 506.415 1126)"><path d="M50 -29.417 Q46.454 -29.417 44.07 -31.924 Q41.688 -34.43 41.688 -37.725 Q41.688 -41.355 43.438 -42.73 Q45.188 -44.105 45.188 -46.98 Q45.188 -48.48 44.688 -49.865 Q44.188 -51.249 44.188 -52.735 Q44.188 -55.479 45.646 -57.612 Q47.106 -59.747 50.704 -61.217 Q52.438 -62.792 54.269 -64.449 Q56.1 -66.105 59.985 -66.105 Q64.12 -66.105 65.826 -64.355 Q67.532 -62.605 69.312 -61.23 Q72.819 -59.759 74.347 -57.617 Q75.875 -55.477 75.875 -52.72 Q75.875 -51.23 75.344 -49.855 Q74.812 -48.48 74.812 -46.98 Q74.844 -44.105 76.61 -42.73 Q78.375 -41.355 78.375 -37.75 Q78.375 -34.42 75.998 -31.919 Q73.62 -29.417 70 -29.417 H50 Z M50 -32.605 H70 Q72.205 -32.605 73.696 -34.136 Q75.188 -35.667 75.188 -37.729 Q75.188 -38.631 74.875 -39.404 Q74.562 -40.176 73.875 -40.98 Q72.5 -42.559 72.094 -44.075 Q71.688 -45.591 71.688 -46.98 Q71.688 -48.844 72.188 -50.287 Q72.688 -51.73 72.688 -52.73 Q72.688 -54.3 71.781 -55.609 Q70.875 -56.917 69.438 -57.542 Q68.297 -57.962 67.399 -58.6 Q66.5 -59.237 65.75 -60.23 Q65.125 -60.98 63.648 -61.949 Q62.17 -62.917 59.986 -62.917 Q57.803 -62.917 56.37 -61.886 Q54.938 -60.855 54.25 -60.105 Q53.5 -59.23 52.594 -58.574 Q51.688 -57.917 50.562 -57.48 Q49.117 -56.872 48.246 -55.577 Q47.375 -54.284 47.375 -52.73 Q47.375 -51.73 47.875 -50.295 Q48.375 -48.86 48.375 -47.007 Q48.375 -45.605 47.938 -44.074 Q47.5 -42.542 46.125 -40.98 Q45.438 -40.167 45.156 -39.396 Q44.875 -38.625 44.875 -37.725 Q44.875 -35.667 46.349 -34.136 Q47.822 -32.605 50 -32.605 Z M27.062 4.958 V-1.167 Q27.062 -3.869 28.686 -6.214 Q30.31 -8.559 33.175 -9.905 Q40.03 -13.099 46.734 -14.726 Q53.438 -16.355 60.002 -16.355 Q66.566 -16.355 73.284 -14.73 Q80 -13.105 86.84 -9.911 Q89.698 -8.562 91.317 -6.216 Q92.938 -3.87 92.938 -1.167 V4.958 H27.062 Z M30.25 1.77 H89.75 V-1.151 Q89.75 -2.941 88.562 -4.491 Q87.375 -6.042 85.25 -7.23 Q79.234 -10.105 72.859 -11.636 Q66.484 -13.167 59.992 -13.167 Q53.458 -13.167 47.104 -11.636 Q40.75 -10.105 34.812 -7.23 Q32.625 -6.042 31.438 -4.48 Q30.25 -2.917 30.25 -1.167 V1.77 Z"/></g><g id="Bold-S" transform="matrix(1 0 0 1 2294.23 696)"><path d="M39.749 -27.685 Q34.293 -27.685 30.485 -31.496 Q26.678 -35.306 26.678 -40.749 Q26.678 -42.789 27.332 -44.763 Q27.985 -46.737 29.193 -48.396 Q28.848 -49.309 28.7 -50.182 Q28.552 -51.054 28.552 -52.045 Q28.552 -55.858 30.689 -59.112 Q32.827 -62.366 36.326 -64.019 Q38.464 -66.346 41.388 -67.678 Q44.312 -69.009 47.377 -69.009 Q50.443 -69.009 53.318 -67.678 Q56.193 -66.346 58.337 -64.028 Q61.843 -62.375 63.986 -59.118 Q66.128 -55.862 66.128 -52.046 Q66.128 -51.054 65.98 -50.182 Q65.832 -49.309 65.487 -48.434 Q66.695 -46.835 67.349 -44.881 Q68.002 -42.928 68.002 -40.769 Q68.002 -35.298 64.182 -31.491 Q60.363 -27.685 54.907 -27.685 H39.749 Z M39.746 -37.844 H54.934 Q56.25 -37.844 57.047 -38.731 Q57.844 -39.619 57.844 -40.836 Q57.844 -41.367 57.646 -41.824 Q57.449 -42.281 57.104 -42.676 Q56.118 -43.909 55.6 -45.191 Q55.082 -46.473 55.082 -48.051 Q55.082 -48.692 55.477 -49.654 Q55.871 -50.615 55.871 -52.292 Q55.871 -53.272 55.432 -53.902 Q54.993 -54.531 54.145 -54.807 Q53.186 -55.25 52.453 -55.829 Q51.719 -56.408 50.989 -57.174 Q50.299 -58.21 49.351 -58.53 Q48.404 -58.851 47.329 -58.851 Q46.255 -58.851 45.343 -58.555 Q44.431 -58.259 43.691 -57.223 Q43.007 -56.434 42.24 -55.769 Q41.472 -55.103 40.535 -54.758 Q39.687 -54.482 39.248 -53.867 Q38.809 -53.254 38.809 -52.292 Q38.809 -50.615 39.203 -49.654 Q39.598 -48.692 39.598 -48.051 Q39.598 -46.473 39.08 -45.191 Q38.562 -43.909 37.576 -42.676 Q37.231 -42.281 37.034 -41.824 Q36.836 -41.367 36.836 -40.836 Q36.836 -39.619 37.633 -38.731 Q38.43 -37.844 39.746 -37.844 Z M16.47 6.39 V-6.037 Q16.47 -9.124 18.142 -11.841 Q19.813 -14.558 22.784 -16.196 Q28.601 -19.351 34.806 -21.102 Q41.01 -22.853 47.34 -22.853 Q53.591 -22.853 59.539 -21.349 Q65.487 -19.844 70.811 -16.985 Q74.275 -15.262 76.242 -12.425 Q78.21 -9.587 78.21 -6.042 V6.39 H16.47 Z M27.615 -4.755 H67.065 V-5.544 Q67.065 -5.953 66.769 -6.288 Q66.473 -6.623 65.931 -6.875 Q61.609 -9.193 56.982 -10.45 Q52.353 -11.708 47.34 -11.708 Q42.31 -11.708 37.477 -10.45 Q32.645 -9.193 28.749 -6.875 Q28.207 -6.623 27.911 -6.288 Q27.615 -5.953 27.615 -5.544 V-4.755 Z"/></g><g id="Semibold-S" transform="matrix(1 0 0 1 1998.1 696)"><path d="M39.749 -26.956 Q34.65 -26.956 31.093 -30.517 Q27.536 -34.077 27.536 -39.163 Q27.536 -41.153 28.211 -43.084 Q28.885 -45.015 30.136 -46.639 Q29.748 -47.604 29.579 -48.536 Q29.41 -49.468 29.41 -50.458 Q29.41 -54.1 31.44 -57.161 Q33.47 -60.222 36.84 -61.745 Q38.893 -64.03 41.666 -65.298 Q44.44 -66.565 47.377 -66.565 Q50.315 -66.565 53.04 -65.298 Q55.764 -64.03 57.822 -61.756 Q61.2 -60.23 63.235 -57.167 Q65.27 -54.104 65.27 -50.459 Q65.27 -49.468 65.101 -48.536 Q64.932 -47.604 64.544 -46.676 Q65.795 -45.113 66.469 -43.203 Q67.144 -41.292 67.144 -39.183 Q67.144 -34.068 63.576 -30.513 Q60.006 -26.956 54.907 -26.956 H39.749 Z M39.746 -35.571 H54.934 Q56.507 -35.571 57.518 -36.651 Q58.53 -37.732 58.53 -39.233 Q58.53 -39.89 58.289 -40.453 Q58.05 -41.016 57.619 -41.518 Q56.718 -42.623 56.243 -43.819 Q55.768 -45.016 55.768 -46.464 Q55.768 -47.235 56.163 -48.218 Q56.557 -49.2 56.557 -50.705 Q56.557 -51.857 55.998 -52.675 Q55.439 -53.493 54.403 -53.864 Q53.529 -54.264 52.838 -54.778 Q52.148 -55.292 51.504 -56.016 Q50.77 -57.095 49.673 -57.522 Q48.576 -57.95 47.329 -57.95 Q46.084 -57.95 45.021 -57.547 Q43.959 -57.144 43.176 -56.066 Q42.578 -55.32 41.853 -54.718 Q41.129 -54.117 40.277 -53.815 Q39.241 -53.444 38.682 -52.641 Q38.123 -51.838 38.123 -50.705 Q38.123 -49.2 38.517 -48.218 Q38.912 -47.235 38.912 -46.464 Q38.912 -45.016 38.437 -43.819 Q37.962 -42.623 37.061 -41.518 Q36.63 -41.016 36.391 -40.453 Q36.15 -39.89 36.15 -39.233 Q36.15 -37.732 37.162 -36.651 Q38.173 -35.571 39.746 -35.571 Z M17.928 4.203 V-6.68 Q17.928 -9.369 19.377 -11.751 Q20.825 -14.133 23.427 -15.596 Q29.116 -18.708 35.151 -20.416 Q41.185 -22.124 47.34 -22.124 Q53.333 -22.124 59.11 -20.641 Q64.886 -19.158 70.168 -16.342 Q73.264 -14.789 75.007 -12.274 Q76.752 -9.759 76.752 -6.683 V4.203 H17.928 Z M27.1 -4.969 H67.58 V-6.402 Q67.58 -6.853 67.284 -7.221 Q66.988 -7.59 66.446 -7.862 Q61.866 -10.351 57.11 -11.651 Q52.353 -12.952 47.34 -12.952 Q42.224 -12.952 37.349 -11.651 Q32.473 -10.351 28.234 -7.862 Q27.692 -7.59 27.396 -7.221 Q27.1 -6.853 27.1 -6.402 V-4.969 Z"/></g><g id="Medium-S" transform="matrix(1 0 0 1 1701.85 696)"><path d="M39.749 -26.41 Q34.918 -26.41 31.548 -29.782 Q28.179 -33.155 28.179 -37.973 Q28.179 -39.927 28.87 -41.824 Q29.561 -43.723 30.844 -45.319 Q30.424 -46.326 30.238 -47.302 Q30.053 -48.278 30.053 -49.267 Q30.053 -52.781 32.003 -55.698 Q33.953 -58.613 37.226 -60.041 Q39.214 -62.294 41.875 -63.513 Q44.537 -64.732 47.377 -64.732 Q50.218 -64.732 52.83 -63.513 Q55.442 -62.294 57.436 -60.051 Q60.717 -58.623 62.672 -55.704 Q64.627 -52.785 64.627 -49.268 Q64.627 -48.278 64.442 -47.302 Q64.256 -46.326 63.836 -45.358 Q65.119 -43.821 65.81 -41.943 Q66.501 -40.066 66.501 -37.992 Q66.501 -33.147 63.12 -29.778 Q59.738 -26.41 54.907 -26.41 H39.749 Z M39.746 -33.866 H54.934 Q56.7 -33.866 57.872 -35.092 Q59.044 -36.317 59.044 -38.032 Q59.044 -38.781 58.772 -39.425 Q58.499 -40.068 58.004 -40.65 Q57.168 -41.657 56.725 -42.79 Q56.282 -43.922 56.282 -45.275 Q56.282 -46.141 56.677 -47.14 Q57.071 -48.139 57.071 -49.516 Q57.071 -50.796 56.422 -51.756 Q55.773 -52.715 54.596 -53.156 Q53.786 -53.524 53.128 -53.99 Q52.469 -54.456 51.89 -55.148 Q51.124 -56.259 49.914 -56.767 Q48.704 -57.275 47.329 -57.275 Q45.955 -57.275 44.78 -56.791 Q43.605 -56.308 42.79 -55.198 Q42.257 -54.484 41.565 -53.93 Q40.871 -53.377 40.084 -53.107 Q38.907 -52.666 38.258 -51.721 Q37.609 -50.777 37.609 -49.516 Q37.609 -48.139 38.003 -47.14 Q38.398 -46.141 38.398 -45.275 Q38.398 -43.922 37.955 -42.79 Q37.512 -41.657 36.676 -40.65 Q36.181 -40.068 35.908 -39.425 Q35.636 -38.781 35.636 -38.032 Q35.636 -36.317 36.808 -35.092 Q37.98 -33.866 39.746 -33.866 Z M19.022 2.563 V-7.162 Q19.022 -9.552 20.303 -11.683 Q21.584 -13.816 23.91 -15.146 Q29.502 -18.226 35.409 -19.902 Q41.317 -21.577 47.34 -21.577 Q53.14 -21.577 58.788 -20.111 Q64.437 -18.644 69.685 -15.86 Q72.504 -14.434 74.081 -12.161 Q75.658 -9.887 75.658 -7.164 V2.563 H19.022 Z M26.715 -5.13 H67.965 V-7.045 Q67.965 -7.527 67.67 -7.922 Q67.374 -8.316 66.831 -8.601 Q62.06 -11.219 57.206 -12.551 Q52.353 -13.885 47.34 -13.885 Q42.16 -13.885 37.253 -12.551 Q32.345 -11.219 27.849 -8.601 Q27.306 -8.316 27.01 -7.922 Q26.715 -7.527 26.715 -7.045 V-5.13 Z"/></g><g id="Regular-S" transform="matrix(1 0 0 1 1405.73 696)"><path d="M39.749 -26.009 Q35.114 -26.009 31.883 -29.243 Q28.651 -32.478 28.651 -37.1 Q28.651 -39.027 29.354 -40.901 Q30.056 -42.775 31.363 -44.353 Q30.919 -45.388 30.722 -46.397 Q30.524 -47.405 30.524 -48.395 Q30.524 -51.815 32.415 -54.625 Q34.307 -57.434 37.509 -58.792 Q39.45 -61.02 42.029 -62.204 Q44.608 -63.387 47.377 -63.387 Q50.147 -63.387 52.677 -62.204 Q55.206 -61.02 57.153 -58.801 Q60.363 -57.443 62.26 -54.631 Q64.156 -51.819 64.156 -48.396 Q64.156 -47.405 63.958 -46.397 Q63.761 -45.388 63.317 -44.39 Q64.624 -42.873 65.327 -41.019 Q66.029 -39.166 66.029 -37.12 Q66.029 -32.47 62.786 -29.24 Q59.542 -26.009 54.907 -26.009 H39.749 Z M39.746 -32.616 H54.934 Q56.842 -32.616 58.132 -33.948 Q59.422 -35.279 59.422 -37.15 Q59.422 -37.969 59.126 -38.671 Q58.83 -39.372 58.287 -40.013 Q57.498 -40.95 57.079 -42.035 Q56.66 -43.12 56.66 -44.402 Q56.66 -45.339 57.055 -46.35 Q57.449 -47.361 57.449 -48.643 Q57.449 -50.018 56.734 -51.081 Q56.019 -52.144 54.737 -52.637 Q53.975 -52.982 53.34 -53.413 Q52.705 -53.843 52.173 -54.511 Q51.384 -55.645 50.091 -56.212 Q48.799 -56.78 47.329 -56.78 Q45.861 -56.78 44.603 -56.237 Q43.346 -55.695 42.507 -54.56 Q42.021 -53.87 41.352 -53.352 Q40.683 -52.835 39.943 -52.588 Q38.661 -52.095 37.946 -51.047 Q37.231 -49.999 37.231 -48.643 Q37.231 -47.361 37.625 -46.35 Q38.02 -45.339 38.02 -44.402 Q38.02 -43.12 37.601 -42.035 Q37.182 -40.95 36.393 -40.013 Q35.85 -39.372 35.554 -38.671 Q35.258 -37.969 35.258 -37.15 Q35.258 -35.279 36.548 -33.948 Q37.838 -32.616 39.746 -32.616 Z M19.824 1.36 V-7.516 Q19.824 -9.686 20.982 -11.634 Q22.141 -13.582 24.264 -14.816 Q29.785 -17.872 35.599 -19.524 Q41.413 -21.176 47.34 -21.176 Q52.999 -21.176 58.553 -19.721 Q64.106 -18.266 69.331 -15.506 Q71.947 -14.174 73.402 -12.078 Q74.856 -9.982 74.856 -7.516 V1.36 H19.824 Z M26.431 -5.248 H68.249 V-7.516 Q68.249 -8.021 67.953 -8.435 Q67.657 -8.848 67.114 -9.144 Q62.201 -11.856 57.277 -13.212 Q52.353 -14.568 47.34 -14.568 Q42.113 -14.568 37.182 -13.212 Q32.25 -11.856 27.566 -9.144 Q27.023 -8.848 26.727 -8.435 Q26.431 -8.021 26.431 -7.516 V-5.248 Z"/></g><g id="Light-S" transform="matrix(1 0 0 1 1109.75 696)"><path d="M39.749 -27.184 Q35.896 -27.184 33.241 -29.881 Q30.586 -32.577 30.586 -36.342 Q30.586 -38.553 31.549 -40.104 Q32.513 -41.655 33.278 -43.5 Q33.006 -44.591 32.733 -45.603 Q32.459 -46.614 32.459 -47.645 Q32.459 -50.48 34.028 -52.839 Q35.596 -55.196 38.659 -56.477 Q40.379 -58.327 42.503 -59.52 Q44.627 -60.713 47.377 -60.713 Q50.204 -60.713 52.241 -59.492 Q54.277 -58.27 56.015 -56.488 Q59.055 -55.206 60.647 -52.843 Q62.24 -50.482 62.24 -47.641 Q62.24 -46.608 61.957 -45.6 Q61.674 -44.591 61.402 -43.537 Q62.177 -41.754 63.146 -40.223 Q64.114 -38.692 64.114 -36.368 Q64.114 -32.565 61.448 -29.875 Q58.782 -27.184 54.907 -27.184 H39.749 Z M39.746 -31.914 H54.934 Q56.825 -31.914 58.104 -33.218 Q59.384 -34.521 59.384 -36.384 Q59.384 -37.2 59.088 -37.899 Q58.792 -38.597 58.25 -39.235 Q57.461 -40.178 57.042 -41.267 Q56.623 -42.357 56.623 -43.644 Q56.623 -44.595 57.017 -45.618 Q57.412 -46.64 57.412 -47.885 Q57.412 -49.245 56.697 -50.296 Q55.982 -51.347 54.718 -51.84 Q53.937 -52.166 53.302 -52.608 Q52.668 -53.049 52.135 -53.733 Q51.346 -54.848 50.064 -55.416 Q48.783 -55.983 47.329 -55.983 Q45.876 -55.983 44.63 -55.431 Q43.383 -54.879 42.545 -53.764 Q42.04 -53.073 41.38 -52.555 Q40.72 -52.038 39.962 -51.791 Q38.697 -51.303 37.992 -50.265 Q37.288 -49.228 37.288 -47.885 Q37.288 -46.64 37.683 -45.62 Q38.077 -44.6 38.077 -43.652 Q38.077 -42.362 37.648 -41.267 Q37.219 -40.172 36.43 -39.235 Q35.888 -38.594 35.602 -37.896 Q35.316 -37.198 35.316 -36.383 Q35.316 -34.521 36.589 -33.218 Q37.863 -31.914 39.746 -31.914 Z M21.626 -1.124 V-7.839 Q21.626 -9.577 22.641 -11.202 Q23.658 -12.828 25.569 -13.92 Q30.856 -16.808 36.343 -18.375 Q41.83 -19.943 47.341 -19.943 Q52.583 -19.943 57.813 -18.573 Q63.044 -17.204 68.032 -14.612 Q70.433 -13.421 71.744 -11.647 Q73.054 -9.873 73.054 -7.839 V-1.124 H21.626 Z M26.356 -5.855 H68.324 V-7.834 Q68.324 -8.457 67.877 -8.994 Q67.429 -9.53 66.602 -9.997 Q61.892 -12.577 57.07 -13.894 Q52.248 -15.213 47.338 -15.213 Q42.213 -15.213 37.384 -13.894 Q32.554 -12.577 28.097 -9.997 Q27.251 -9.53 26.803 -8.991 Q26.356 -8.45 26.356 -7.839 V-5.855 Z"/></g><g id="Thin-S" transform="matrix(1 0 0 1 814.015 696)"><path d="M39.749 -28.361 Q36.676 -28.361 34.598 -30.518 Q32.52 -32.675 32.52 -35.583 Q32.52 -38.078 33.744 -39.308 Q34.968 -40.537 35.194 -42.646 Q35.092 -43.796 34.743 -44.809 Q34.393 -45.824 34.393 -46.895 Q34.393 -49.146 35.639 -51.052 Q36.886 -52.958 39.809 -54.163 Q41.309 -55.634 42.977 -56.837 Q44.646 -58.039 47.377 -58.039 Q50.261 -58.039 51.805 -56.78 Q53.347 -55.52 54.877 -54.174 Q57.747 -52.968 59.035 -51.057 Q60.324 -49.147 60.324 -46.886 Q60.324 -45.812 59.956 -44.804 Q59.588 -43.796 59.486 -42.684 Q59.73 -40.636 60.964 -39.426 Q62.198 -38.217 62.198 -35.618 Q62.198 -32.66 60.111 -30.511 Q58.024 -28.361 54.907 -28.361 H39.749 Z M39.746 -31.213 H54.934 Q56.809 -31.213 58.077 -32.487 Q59.346 -33.762 59.346 -35.619 Q59.346 -36.43 59.05 -37.127 Q58.754 -37.823 58.211 -38.458 Q57.422 -39.405 57.003 -40.5 Q56.584 -41.594 56.584 -42.885 Q56.584 -43.853 56.979 -44.886 Q57.373 -45.919 57.373 -47.126 Q57.373 -48.471 56.658 -49.512 Q55.943 -50.551 54.699 -51.045 Q53.9 -51.351 53.264 -51.803 Q52.629 -52.255 52.097 -52.956 Q51.308 -54.053 50.037 -54.62 Q48.766 -55.187 47.329 -55.187 Q45.893 -55.187 44.657 -54.625 Q43.422 -54.063 42.583 -52.968 Q42.06 -52.277 41.409 -51.76 Q40.759 -51.242 39.981 -50.995 Q38.732 -50.512 38.039 -49.484 Q37.344 -48.458 37.344 -47.126 Q37.344 -45.919 37.739 -44.891 Q38.133 -43.863 38.133 -42.901 Q38.133 -41.603 37.695 -40.499 Q37.258 -39.395 36.469 -38.458 Q35.926 -37.817 35.649 -37.122 Q35.372 -36.426 35.372 -35.616 Q35.372 -33.762 36.629 -32.487 Q37.887 -31.213 39.746 -31.213 Z M23.427 -3.609 V-8.161 Q23.427 -9.466 24.301 -10.77 Q25.175 -12.074 26.872 -13.025 Q31.927 -15.744 37.087 -17.227 Q42.247 -18.71 47.341 -18.71 Q52.167 -18.71 57.074 -17.426 Q61.982 -16.142 66.732 -13.718 Q68.919 -12.669 70.086 -11.216 Q71.253 -9.763 71.253 -8.161 V-3.609 H23.427 Z M26.28 -6.462 H68.4 V-8.152 Q68.4 -8.894 67.801 -9.554 Q67.201 -10.214 66.091 -10.851 Q61.584 -13.298 56.863 -14.578 Q52.142 -15.858 47.335 -15.858 Q42.314 -15.858 37.586 -14.578 Q32.857 -13.298 28.628 -10.851 Q27.479 -10.214 26.879 -9.546 Q26.28 -8.879 26.28 -8.161 V-6.462 Z"/></g><g id="Ultralight-S" transform="matrix(1 0 0 1 517.792 696)"><path d="M39.749 -29.066 Q37.145 -29.066 35.412 -30.899 Q33.68 -32.734 33.68 -35.127 Q33.68 -37.794 35.061 -38.83 Q36.442 -39.865 36.343 -42.134 Q36.343 -43.317 35.949 -44.333 Q35.554 -45.35 35.554 -46.446 Q35.554 -48.346 36.607 -49.98 Q37.66 -51.616 40.498 -52.775 Q41.866 -54.018 43.262 -55.226 Q44.657 -56.434 47.377 -56.434 Q50.295 -56.434 51.542 -55.152 Q52.79 -53.87 54.194 -52.785 Q56.961 -51.624 58.068 -49.984 Q59.175 -48.345 59.175 -46.434 Q59.175 -45.334 58.756 -44.326 Q58.337 -43.317 58.337 -42.171 Q58.263 -39.964 59.656 -38.948 Q61.049 -37.933 61.049 -35.167 Q61.049 -32.717 59.309 -30.891 Q57.569 -29.066 54.907 -29.066 H39.749 Z M39.746 -30.792 H54.934 Q56.799 -30.792 58.062 -32.049 Q59.323 -33.307 59.323 -35.159 Q59.323 -35.969 59.027 -36.663 Q58.731 -37.357 58.189 -37.991 Q57.4 -38.941 56.981 -40.039 Q56.561 -41.137 56.561 -42.43 Q56.561 -43.407 56.956 -44.447 Q57.35 -45.487 57.35 -46.67 Q57.35 -48.008 56.635 -49.04 Q55.92 -50.073 54.688 -50.566 Q53.877 -50.861 53.242 -51.32 Q52.607 -51.777 52.074 -52.489 Q51.285 -53.574 50.021 -54.141 Q48.756 -54.708 47.329 -54.708 Q45.902 -54.708 44.673 -54.141 Q43.444 -53.574 42.606 -52.489 Q42.07 -51.799 41.426 -51.281 Q40.781 -50.763 39.992 -50.517 Q38.754 -50.038 38.066 -49.016 Q37.379 -47.995 37.379 -46.67 Q37.379 -45.487 37.773 -44.453 Q38.168 -43.42 38.168 -42.451 Q38.168 -41.147 37.724 -40.038 Q37.28 -38.928 36.491 -37.991 Q35.949 -37.35 35.678 -36.657 Q35.406 -35.964 35.406 -35.155 Q35.406 -33.307 36.654 -32.049 Q37.902 -30.792 39.746 -30.792 Z M24.508 -5.1 V-8.355 Q24.508 -9.401 25.296 -10.512 Q26.084 -11.622 27.654 -12.487 Q32.57 -15.106 37.534 -16.538 Q42.498 -17.971 47.342 -17.971 Q51.917 -17.971 56.63 -16.738 Q61.345 -15.505 65.953 -13.182 Q68.01 -12.217 69.091 -10.957 Q70.172 -9.698 70.172 -8.355 V-5.1 H24.508 Z M26.234 -6.826 H68.446 V-8.342 Q68.446 -9.156 67.755 -9.889 Q67.065 -10.623 65.783 -11.363 Q61.399 -13.73 56.739 -14.987 Q52.079 -16.245 47.334 -16.245 Q42.375 -16.245 37.707 -14.987 Q33.039 -13.73 28.946 -11.363 Q27.615 -10.623 26.925 -9.88 Q26.234 -9.137 26.234 -8.355 V-6.826 Z"/></g></g></svg>