<svg xmlns="http://www.w3.org/2000/svg" height="40" width="40"><path d="M20 37.167q-3.583 0-6.708-1.334-3.125-1.333-5.459-3.645-2.333-2.313-3.666-5.459Q2.833 23.583 2.833 20t1.334-6.708Q5.5 10.167 7.812 7.833q2.313-2.333 5.417-3.666 3.104-1.334 6.646-1.334 1.583 0 3.25.292t2.792.708v3.542q0 1.458-1.084 2.521-1.083 1.062-2.583 1.062h-4.125v3.5q0 .792-.542 1.334-.541.541-1.291.541H12.75v3.625H23.5q.75 0 1.312.563.563.562.563 1.312v5.459h1.792q1.166 0 2.104.666.937.667 1.271 1.75 1.875-2 2.833-4.5.958-2.5.958-5.125v-1.208q0-.667-.083-1.125h2.792q.083.417.104 1.021.021.604.021 1.229 0 3.625-1.334 6.75-1.333 3.125-3.645 5.438-2.313 2.312-5.438 3.645-3.125 1.334-6.75 1.334Zm-1.875-2.75v-3.709q-1.417 0-2.458-1.02-1.042-1.021-1.042-2.48V25.5l-8.667-8.667q-.125.917-.208 1.625-.083.709-.083 1.5 0 5.542 3.541 9.646 3.542 4.104 8.917 4.813Zm10.708-19.625V6.333h1.834V4.625q0-1.417.958-2.375t2.333-.958q1.375 0 2.334.958.958.958.958 2.375v1.708h1.792v8.459Zm3.375-8.459h3.5V4.625q0-.75-.5-1.292-.5-.541-1.25-.541t-1.25.541q-.5.542-.5 1.292Z"/></svg>