<svg xmlns="http://www.w3.org/2000/svg" height="20" viewBox="0 -960 960 960" width="20"><path d="M480.21-732.22q-18.8 0-32.75-13.74-13.96-13.75-13.96-32.55 0-18.79 13.75-32.75 13.74-13.96 32.54-13.96 18.8 0 32.75 13.75 13.96 13.74 13.96 32.54 0 18.8-13.75 32.76-13.74 13.95-32.54 13.95Zm149.89 0q-18.8 0-32.75-13.74-13.96-13.75-13.96-32.55 0-18.79 13.75-32.75 13.74-13.96 32.54-13.96 18.8 0 32.76 13.75 13.95 13.74 13.95 32.54 0 18.8-13.74 32.76-13.75 13.95-32.55 13.95Zm148.83 0q-18.8 0-32.76-13.74-13.95-13.75-13.95-32.55 0-18.79 13.74-32.75 13.75-13.96 32.55-13.96 18.79 0 32.75 13.75 13.96 13.74 13.96 32.54 0 18.8-13.75 32.76-13.74 13.95-32.54 13.95Zm0 148.83q-18.8 0-32.76-13.75-13.95-13.74-13.95-32.54 0-18.8 13.74-32.76 13.75-13.95 32.55-13.95 18.79 0 32.75 13.74 13.96 13.75 13.96 32.55 0 18.8-13.75 32.75-13.74 13.96-32.54 13.96Zm0 149.89q-18.8 0-32.76-13.75-13.95-13.74-13.95-32.54 0-18.8 13.74-32.75 13.75-13.96 32.55-13.96 18.79 0 32.75 13.75 13.96 13.74 13.96 32.54 0 18.8-13.75 32.75-13.74 13.96-32.54 13.96Zm0 148.83q-18.8 0-32.76-13.75-13.95-13.75-13.95-32.54 0-18.8 13.74-32.76 13.75-13.95 32.55-13.95 18.79 0 32.75 13.74 13.96 13.75 13.96 32.55 0 18.79-13.75 32.75-13.74 13.96-32.54 13.96ZM480.71-134.78q-18.8 0-32.75-13.75Q434-162.27 434-181.07q0-18.8 13.75-32.76 13.74-13.95 32.54-13.95 18.8 0 32.5 13.74 13.71 13.75 13.71 32.55 0 18.79-13.5 32.75-13.49 13.96-32.29 13.96Zm148.89 0q-18.8 0-32.75-13.75-13.96-13.74-13.96-32.54 0-18.8 13.75-32.76 13.74-13.95 32.54-13.95 18.8 0 32.76 13.74 13.95 13.75 13.95 32.55 0 18.79-13.74 32.75-13.75 13.96-32.55 13.96Zm149.33 0q-18.8 0-32.76-13.75-13.95-13.74-13.95-32.54 0-18.8 13.74-32.76 13.75-13.95 32.55-13.95 18.79 0 32.75 13.74 13.96 13.75 13.96 32.55 0 18.79-13.75 32.75-13.74 13.96-32.54 13.96Zm-597.65 0q-18.88 0-32.69-13.75-13.81-13.74-13.81-32.54 0-18.8 13.81-32.76 13.81-13.95 32.69-13.95h37.2v-504.44h-37.2q-18.88 0-32.69-13.74-13.81-13.75-13.81-32.55 0-18.79 13.81-32.75t32.69-13.96h166.83q18.89 0 32.69 13.75 13.81 13.74 13.81 32.54 0 18.8-13.81 32.76-13.8 13.95-32.69 13.95h-36.63v504.44h36.63q18.89 0 32.69 13.74 13.81 13.75 13.81 32.55 0 18.79-13.81 32.75-13.8 13.96-32.69 13.96H181.28Z"/></svg>