<svg xmlns="http://www.w3.org/2000/svg" height="48" width="48"><path d="M7.15 22.45V9.95Q7.15 8.8 7.975 7.975Q8.8 7.15 9.95 7.15H38.05Q39.2 7.15 40.025 7.975Q40.85 8.8 40.85 9.95V22.65L37.5 19.3Q37.3 19.1 37.05 18.975Q36.8 18.85 36.5 18.85Q36.2 18.85 35.975 18.975Q35.75 19.1 35.55 19.3L28.2 26.65L20.8 19.3Q20.6 19.1 20.35 19Q20.1 18.9 19.85 18.9Q19.55 18.9 19.3 19Q19.05 19.1 18.85 19.3L11.45 26.75ZM9.95 40.85Q8.8 40.85 7.975 40.025Q7.15 39.2 7.15 38.05V25.55L10.45 28.9Q10.7 29.1 10.925 29.2Q11.15 29.3 11.45 29.3Q11.7 29.3 11.95 29.2Q12.2 29.1 12.4 28.9L19.85 21.45L27.2 28.8Q27.4 29 27.65 29.1Q27.9 29.2 28.2 29.2Q28.45 29.2 28.675 29.1Q28.9 29 29.15 28.8L36.55 21.45L40.85 25.8V38.05Q40.85 39.2 40.025 40.025Q39.2 40.85 38.05 40.85Z"/></svg>