<svg xmlns="http://www.w3.org/2000/svg" height="40" viewBox="0 -960 960 960" width="40"><path d="M174.46-180q-31.3 0-53.55-22.05-22.24-22.06-22.24-53.74v-448.42q0-31.68 22.24-53.74Q143.16-780 174.46-780h611.08q31.69 0 53.74 22.05 22.05 22.06 22.05 53.74v195.6q0 10.24-7.55 17.75-7.54 7.5-18.04 7.5-10.49 0-18.04-7.5-7.55-7.51-7.55-17.75v-171.54L500.64-480.69q-5.33 3.1-10.41 4.43-5.08 1.34-10.23 1.34t-10.23-1.34q-5.08-1.33-9.9-4.43L149.85-680.15v424.36q0 10.76 6.92 17.69 6.92 6.92 17.69 6.92H493q10.25 0 17.75 7.55 7.51 7.55 7.51 18.04 0 10.5-7.51 18.04Q503.25-180 493-180H174.46ZM480-522.1l323.18-206.72H156.82L480-522.1ZM149.85-231.18v-250.56 3.3-201.71 6.15V-713.59v1.95-17.18 18.01-3.22V-674v-6.15 448.97ZM766.81-58.67q-72.5 0-123.6-50.83-51.11-50.83-51.11-123.75 0-73.47 51.02-124.06 51.01-50.59 123.51-50.59t123.6 50.59q51.1 50.59 51.1 123.72t-51.01 124.03Q839.3-58.67 766.81-58.67Zm-87.26-158.87h174.82q8.19 0 12.81-4.67 4.61-4.68 4.61-12.76t-4.61-12.71q-4.62-4.63-12.81-4.63H679.55q-8.39 0-13.15 4.56-4.76 4.57-4.76 12.49 0 8.2 4.76 12.96 4.76 4.76 13.15 4.76Z"/></svg>