<svg xmlns="http://www.w3.org/2000/svg" height="20" viewBox="0 -960 960 960" width="20"><path d="M186.62-202q-34.35 0-58.48-24.14Q104-250.27 104-284.62v-390.76q0-35.05 24.14-58.83Q152.27-758 186.62-758h586.76q34.35 0 58.48 23.79Q856-710.43 856-675.38v152.61q0 11.84-8.52 20.42-8.52 8.58-20.27 8.58t-20.48-8.58q-8.73-8.58-8.73-20.42v-108.08l-297.16 173.3q-5.4 2.93-9.62 7.43-4.22 4.5-11.22 4.5-7 0-11.72-4.5-4.72-4.5-10.1-7.43L162-630.85v346.23q0 10.77 6.92 17.7 6.93 6.92 17.7 6.92H491q11.84 0 20.42 8.52 8.58 8.52 8.58 20.27t-8.58 20.48Q502.84-202 491-202H186.62ZM480-517l313.69-183H166.31L480-517ZM162-260v-219 3V-683.59v3.36V-700v20.54-3.92V-260ZM771.77-56q-75.24 0-127.5-52.49Q592-160.99 592-236.23t52.49-127.5Q696.99-416 772.23-416t127.5 52.49Q952-311.01 952-235.77t-52.49 127.5Q847.01-56 771.77-56Zm-67.23-158.62h134.92q10.06 0 16.22-6.16 6.17-6.16 6.17-16.22 0-10.06-6.17-16.22-6.16-6.16-16.22-6.16H704.54q-10.06 0-16.22 6.16-6.17 6.16-6.17 16.22 0 10.06 6.17 16.22 6.16 6.16 16.22 6.16Z"/></svg>