<svg xmlns="http://www.w3.org/2000/svg" version="1.1" width="3300" height="2000"><g id="Notes"><style>
    text {
      font-family: monospace;
      text-anchor: middle;
    }
    text.emphasis {
      font-weight:bold;
    }
    text.lanchor {
      text-anchor: start;
    }
  </style><rect height="2200" id="artboard" fill="white" width="3300" x="0" y="0"/><line id="" style="fill:none;stroke:black;stroke-width:0.5;" x1="263" x2="3036" y1="292" y2="292"/><text class="lanchor emphasis" transform="matrix(1 0 0 1 263 322)">Weight/Scale Variations</text><text transform="matrix(1 0 0 1 559.711 322)">Ultralight</text><text transform="matrix(1 0 0 1 856.422 322)">Thin</text><text transform="matrix(1 0 0 1 1153.13 322)">Light</text><text transform="matrix(1 0 0 1 1449.84 322)">Regular</text><text transform="matrix(1 0 0 1 1746.56 322)">Medium</text><text transform="matrix(1 0 0 1 2043.27 322)">Semibold</text><text transform="matrix(1 0 0 1 2339.98 322)">Bold</text><text transform="matrix(1 0 0 1 2636.69 322)">Heavy</text><text transform="matrix(1 0 0 1 2933.4 322)">Black</text><text id="template-version" style="text-anchor: end;" transform="matrix(1 0 0 1 3036 1933)">Template v.1.0</text><text class="lanchor" transform="matrix(1 0 0 1 263 726)">Small</text><text class="lanchor" transform="matrix(1 0 0 1 263 1156)">Medium</text><text class="lanchor" transform="matrix(1 0 0 1 263 1586)">Large</text></g><g id="Guides"><g id="H-reference" style="fill:#27AAE1;stroke:none;" transform="matrix(1 0 0 1 339 696)"><path d="M 54.9316 0 L 57.666 0 L 30.5664 -70.459 L 28.0762 -70.459 L 0.976562 0 L 3.66211 0 L 12.9395 -24.4629 L 45.7031 -24.4629 Z M 29.1992 -67.0898 L 29.4434 -67.0898 L 44.8242 -26.709 L 13.8184 -26.709 Z"/></g><line id="Baseline-S" style="fill:none;stroke:#27AAE1;opacity:1;stroke-width:0.577;" x1="263" x2="3036" y1="696" y2="696"/><line id="Capline-S" style="fill:none;stroke:#27AAE1;opacity:1;stroke-width:0.577;" x1="263" x2="3036" y1="625.541" y2="625.541"/><g id="H-reference" style="fill:#27AAE1;stroke:none;" transform="matrix(1 0 0 1 339 1126)"><path d="M 54.9316 0 L 57.666 0 L 30.5664 -70.459 L 28.0762 -70.459 L 0.976562 0 L 3.66211 0 L 12.9395 -24.4629 L 45.7031 -24.4629 Z M 29.1992 -67.0898 L 29.4434 -67.0898 L 44.8242 -26.709 L 13.8184 -26.709 Z"/></g><line id="Baseline-M" style="fill:none;stroke:#27AAE1;opacity:1;stroke-width:0.577;" x1="263" x2="3036" y1="1126" y2="1126"/><line id="Capline-M" style="fill:none;stroke:#27AAE1;opacity:1;stroke-width:0.577;" x1="263" x2="3036" y1="1055.54" y2="1055.54"/><g id="H-reference" style="fill:#27AAE1;stroke:none;" transform="matrix(1 0 0 1 339 1556)"><path d="M 54.9316 0 L 57.666 0 L 30.5664 -70.459 L 28.0762 -70.459 L 0.976562 0 L 3.66211 0 L 12.9395 -24.4629 L 45.7031 -24.4629 Z M 29.1992 -67.0898 L 29.4434 -67.0898 L 44.8242 -26.709 L 13.8184 -26.709 Z"/></g><line id="Baseline-L" style="fill:none;stroke:#27AAE1;opacity:1;stroke-width:0.577;" x1="263" x2="3036" y1="1556" y2="1556"/><line id="Capline-L" style="fill:none;stroke:#27AAE1;opacity:1;stroke-width:0.577;" x1="263" x2="3036" y1="1485.54" y2="1485.54"/><rect height="119.336" id="left-margin" style="fill:darkred;stroke:none;opacity:0.4;" width="12.4512" x="1394.06" y="1030.79"/><rect height="119.336" id="right-margin" style="fill:darkgreen;stroke:none;opacity:0.4;" width="12.4512" x="1502.5112" y="1030.79"/><rect x="1406.5112" y="1045" width="96" height="96" fill="none" stroke="blue" stroke-dasharray="5"/><rect x="1394.06" y="1030.79" width="120.9024" height="119.336" fill="none" stroke="blue"/></g><g id="Symbols"><g id="Bold-L" transform="matrix(1 0 0 1 2266 1556)"><path d="M10.078 -42.567 Q10.723 -49.501 13.787 -57.845 Q16.851 -66.19 21.043 -72.801 Q30.879 -64.416 34.79 -57.12 Q38.7 -49.823 39.99 -42.567 H10.078 Z M114.891 -42.567 Q116.1 -49.823 120.091 -57.362 Q124.082 -64.9 133.596 -72.962 Q137.949 -66.351 141.013 -57.926 Q144.077 -49.501 144.722 -42.567 H114.891 Z M21.204 2.422 Q16.851 -3.947 13.706 -12.453 Q10.562 -20.959 10.078 -27.893 H39.99 Q38.7 -20.637 34.87 -13.098 Q31.041 -5.56 21.204 2.422 Z M133.596 2.261 Q124.082 -5.721 120.091 -13.179 Q116.1 -20.637 114.891 -27.893 H144.722 Q144.077 -20.959 141.013 -12.615 Q137.949 -4.27 133.596 2.261 Z M55.551 -42.567 Q53.858 -53.129 48.738 -63.086 Q43.618 -73.043 30.96 -84.572 Q37.652 -90.861 47.287 -96.021 Q56.921 -101.181 70.063 -102.552 V-42.567 H55.551 Z M84.737 -42.567 V-102.552 Q97.879 -101.181 107.594 -96.021 Q117.309 -90.861 124.001 -84.572 Q111.504 -73.043 106.223 -63.086 Q100.943 -53.129 99.249 -42.567 H84.737 Z M70.063 32.092 Q56.276 30.56 47.045 25.481 Q37.813 20.401 31.121 14.113 Q43.618 2.583 48.738 -7.455 Q53.858 -17.492 55.551 -27.893 H70.063 V32.092 Z M84.737 32.092 V-27.893 H99.249 Q100.943 -17.492 106.223 -7.535 Q111.504 2.422 124.001 13.951 Q117.309 20.24 107.997 25.4 Q98.685 30.56 84.737 32.092 Z"/></g><g id="Semibold-L" transform="matrix(1 0 0 1 1970.27 1556)"><path d="M11.691 -41.375 Q12.195 -48.59 15.399 -57.355 Q18.603 -66.121 23.146 -72.871 Q33.122 -64.347 37.137 -56.594 Q41.154 -48.841 42.373 -41.375 H11.691 Z M112.507 -41.375 Q113.646 -48.841 117.708 -56.731 Q121.768 -64.619 131.562 -72.962 Q136.197 -66.211 139.401 -57.4 Q142.605 -48.59 143.109 -41.375 H112.507 Z M23.238 2.353 Q18.603 -4.228 15.354 -13.05 Q12.103 -21.87 11.691 -29.085 H42.373 Q41.154 -21.619 37.184 -13.764 Q33.214 -5.91 23.238 2.353 Z M131.562 2.261 Q121.768 -6.002 117.708 -13.81 Q113.646 -21.619 112.507 -29.085 H143.109 Q142.605 -21.87 139.401 -13.14 Q136.197 -4.41 131.562 2.261 Z M55.27 -41.375 Q53.788 -51.587 48.878 -61.404 Q43.968 -71.221 31.45 -82.61 Q38.213 -89.108 48.057 -94.409 Q57.903 -99.709 71.255 -100.939 V-41.375 H55.27 Z M83.545 -41.375 V-100.939 Q96.897 -99.709 106.823 -94.409 Q116.748 -89.108 123.511 -82.61 Q111.084 -71.221 106.048 -61.404 Q101.012 -51.587 99.53 -41.375 H83.545 Z M71.255 30.479 Q57.187 29.157 47.746 23.868 Q38.303 18.579 31.542 12.079 Q43.968 0.69 48.878 -9.137 Q53.788 -18.965 55.27 -29.085 H71.255 V30.479 Z M83.545 30.479 V-29.085 H99.53 Q101.012 -18.965 106.048 -9.183 Q111.084 0.6 123.511 11.989 Q116.748 18.487 107.226 23.823 Q97.703 29.157 83.545 30.479 Z"/></g><g id="Medium-L" transform="matrix(1 0 0 1 1674.31 1556)"><path d="M12.9 -40.482 Q13.3 -47.906 16.609 -56.986 Q19.918 -66.067 24.724 -72.924 Q34.806 -64.294 38.9 -56.199 Q42.994 -48.106 44.162 -40.482 H12.9 Z M110.719 -40.482 Q111.806 -48.106 115.919 -56.257 Q120.033 -64.41 130.037 -72.962 Q134.882 -66.106 138.191 -57.005 Q141.5 -47.906 141.9 -40.482 H110.719 Z M24.763 2.299 Q19.918 -4.438 16.589 -13.497 Q13.261 -22.554 12.9 -29.978 H44.162 Q42.994 -22.354 38.919 -14.264 Q34.845 -6.173 24.763 2.299 Z M130.037 2.261 Q120.033 -6.211 115.919 -14.284 Q111.806 -22.354 110.719 -29.978 H141.9 Q141.5 -22.554 138.191 -13.535 Q134.882 -4.515 130.037 2.261 Z M55.06 -40.482 Q53.735 -50.429 48.983 -60.142 Q44.231 -69.854 31.819 -81.138 Q38.634 -87.794 48.636 -93.199 Q58.639 -98.604 72.148 -99.73 V-40.482 H55.06 Z M82.652 -40.482 V-99.73 Q96.161 -98.604 106.244 -93.199 Q116.327 -87.794 123.142 -81.138 Q110.767 -69.854 105.917 -60.142 Q101.065 -50.429 99.74 -40.482 H82.652 Z M72.148 29.27 Q57.871 28.106 48.272 22.659 Q38.673 17.212 31.858 10.554 Q44.231 -0.729 48.983 -10.399 Q53.735 -20.069 55.06 -29.978 H72.148 V29.27 Z M82.652 29.27 V-29.978 H99.74 Q101.065 -20.069 105.917 -10.418 Q110.767 -0.768 123.142 10.517 Q116.327 17.173 106.648 22.639 Q96.968 28.106 82.652 29.27 Z"/></g><g id="Regular-L" transform="matrix(1 0 0 1 1378.56 1556)"><path d="M13.787 -39.826 Q14.109 -47.404 17.496 -56.717 Q20.882 -66.029 25.881 -72.962 Q36.039 -64.255 40.192 -55.91 Q44.344 -47.566 45.473 -39.826 H13.787 Z M109.408 -39.826 Q110.456 -47.566 114.608 -55.91 Q118.761 -64.255 128.919 -72.962 Q133.918 -66.029 137.304 -56.717 Q140.691 -47.404 141.013 -39.826 H109.408 Z M25.881 2.261 Q20.882 -4.592 17.496 -13.824 Q14.109 -23.056 13.787 -30.634 H45.473 Q44.344 -22.894 40.192 -14.63 Q36.039 -6.366 25.881 2.261 Z M128.919 2.261 Q118.761 -6.366 114.608 -14.63 Q110.456 -22.894 109.408 -30.634 H141.013 Q140.691 -23.056 137.304 -13.824 Q133.918 -4.592 128.919 2.261 Z M54.906 -39.826 Q53.696 -49.581 49.06 -59.216 Q44.424 -68.851 32.089 -80.057 Q38.942 -86.83 49.06 -92.312 Q59.179 -97.795 72.804 -98.843 V-39.826 H54.906 Z M81.996 -39.826 V-98.843 Q95.621 -97.795 105.82 -92.312 Q116.019 -86.83 122.873 -80.057 Q110.537 -68.851 105.82 -59.216 Q101.104 -49.581 99.894 -39.826 H81.996 Z M72.804 28.383 Q58.373 27.335 48.657 21.772 Q38.942 16.209 32.089 9.436 Q44.424 -1.771 49.06 -11.325 Q53.696 -20.879 54.906 -30.634 H72.804 V28.383 Z M81.996 28.383 V-30.634 H99.894 Q101.104 -20.879 105.82 -11.325 Q110.537 -1.771 122.873 9.436 Q116.019 16.209 106.223 21.772 Q96.428 27.335 81.996 28.383 Z"/></g><g id="Light-L" transform="matrix(1 0 0 1 1082.77 1556)"><path d="M16.733 -38.74 Q16.994 -46.753 20.287 -55.817 Q23.58 -64.881 28.703 -71.877 Q37.807 -63.697 41.898 -55.244 Q45.987 -46.79 46.93 -38.74 H16.733 Z M107.981 -38.74 Q108.813 -46.79 112.811 -55.151 Q116.806 -63.51 126.097 -71.69 Q131.22 -64.789 134.513 -55.739 Q137.806 -46.692 138.067 -38.74 H107.981 Z M28.703 1.021 Q23.58 -5.833 20.334 -14.771 Q17.086 -23.707 16.733 -31.72 H46.93 Q45.987 -23.67 41.898 -15.39 Q37.807 -7.111 28.703 1.021 Z M126.097 1.021 Q116.806 -7.111 112.811 -15.39 Q108.813 -23.67 107.981 -31.72 H138.067 Q137.806 -23.768 134.513 -14.801 Q131.22 -5.833 126.097 1.021 Z M54.13 -38.74 Q53.2 -48.341 48.718 -57.728 Q44.239 -67.114 33.453 -77.081 Q40.4 -84.381 50.579 -89.753 Q60.761 -95.128 73.89 -95.897 V-38.74 H54.13 Z M80.91 -38.74 V-95.897 Q94.039 -95.128 104.269 -89.753 Q114.5 -84.381 121.508 -77.081 Q110.537 -67.207 106.069 -57.774 Q101.6 -48.341 100.67 -38.74 H80.91 Z M73.89 25.437 Q60.109 24.668 50.254 19.182 Q40.4 13.696 33.453 6.397 Q44.424 -3.538 48.812 -12.752 Q53.2 -21.964 54.13 -31.72 H73.89 V25.437 Z M80.91 25.437 V-31.72 H100.67 Q101.6 -21.964 106.069 -12.689 Q110.537 -3.414 121.508 6.521 Q114.5 13.821 104.58 19.245 Q94.66 24.668 80.91 25.437 Z"/></g><g id="Thin-L" transform="matrix(1 0 0 1 787.282 1556)"><path d="M19.679 -37.655 Q19.877 -46.101 23.078 -54.919 Q26.277 -63.734 31.524 -70.792 Q39.574 -63.139 43.602 -54.577 Q47.63 -46.014 48.388 -37.655 H19.679 Z M106.556 -37.655 Q107.17 -46.014 111.011 -54.391 Q114.854 -62.767 123.276 -70.42 Q128.523 -63.549 131.722 -54.762 Q134.923 -45.977 135.121 -37.655 H106.556 Z M31.524 -0.219 Q26.277 -7.073 23.17 -15.716 Q20.063 -24.359 19.679 -32.805 H48.388 Q47.63 -24.446 43.602 -16.149 Q39.574 -7.855 31.524 -0.219 Z M123.276 -0.219 Q114.854 -7.855 111.011 -16.149 Q107.17 -24.446 106.556 -32.805 H135.121 Q134.923 -24.483 131.722 -15.778 Q128.523 -7.073 123.276 -0.219 Z M53.354 -37.655 Q52.705 -47.101 48.378 -56.239 Q44.052 -65.377 34.817 -74.104 Q41.857 -81.931 52.1 -87.196 Q62.342 -92.461 74.975 -92.951 V-37.655 H53.354 Z M79.825 -37.655 V-92.951 Q92.458 -92.461 102.719 -87.196 Q112.98 -81.931 120.144 -74.104 Q110.537 -65.564 106.317 -56.333 Q102.095 -47.101 101.446 -37.655 H79.825 Z M74.975 22.491 Q61.846 22.001 51.852 16.593 Q41.857 11.186 34.817 3.359 Q44.424 -5.305 48.564 -14.177 Q52.705 -23.049 53.354 -32.805 H74.975 V22.491 Z M79.825 22.491 V-32.805 H101.446 Q102.095 -23.049 106.317 -14.053 Q110.537 -5.057 120.144 3.607 Q112.98 11.433 102.937 16.717 Q92.893 22.001 79.825 22.491 Z"/></g><g id="Ultralight-L" transform="matrix(1 0 0 1 491.205 1556)"><path d="M21.446 -37.004 Q21.608 -45.711 24.752 -54.378 Q27.896 -63.046 33.218 -70.141 Q40.635 -62.804 44.626 -54.177 Q48.617 -45.55 49.262 -37.004 H21.446 Z M105.699 -37.004 Q106.183 -45.55 109.932 -53.935 Q113.681 -62.32 121.583 -69.657 Q126.904 -62.804 130.048 -54.177 Q133.192 -45.55 133.354 -37.004 H105.699 Z M33.218 -0.964 Q27.896 -7.817 24.873 -16.283 Q21.849 -24.749 21.446 -33.456 H49.262 Q48.617 -24.91 44.626 -16.606 Q40.635 -8.301 33.218 -0.964 Z M121.583 -0.964 Q113.681 -8.301 109.932 -16.606 Q106.183 -24.91 105.699 -33.456 H133.354 Q133.192 -24.91 130.048 -16.364 Q126.904 -7.817 121.583 -0.964 Z M52.89 -37.004 Q52.406 -46.356 48.173 -55.346 Q43.941 -64.336 35.636 -72.317 Q42.731 -80.461 53.011 -85.661 Q63.291 -90.861 75.626 -91.184 V-37.004 H52.89 Z M79.174 -37.004 V-91.184 Q91.509 -90.861 101.789 -85.661 Q112.069 -80.461 119.325 -72.317 Q110.537 -64.577 106.465 -55.467 Q102.394 -46.356 101.91 -37.004 H79.174 Z M75.626 20.724 Q62.888 20.401 52.809 15.04 Q42.731 9.678 35.636 1.535 Q44.424 -6.366 48.415 -15.033 Q52.406 -23.701 52.89 -33.456 H75.626 V20.724 Z M79.174 20.724 V-33.456 H101.91 Q102.394 -23.701 106.465 -14.872 Q110.537 -6.044 119.325 1.858 Q112.069 10.001 101.95 15.201 Q91.832 20.401 79.174 20.724 Z"/></g><g id="Bold-M" transform="matrix(1 0 0 1 2281.8 1126)"><path d="M7.5 -42.855 Q8.438 -48.48 10.125 -53.199 Q11.812 -57.917 14.5 -62.292 Q18.5 -58.355 21.156 -53.605 Q23.812 -48.855 24.812 -42.855 H7.5 Z M95.188 -42.855 Q96.188 -48.855 98.906 -53.73 Q101.625 -58.605 105.375 -62.417 Q108.062 -57.98 109.812 -53.23 Q111.562 -48.48 112.5 -42.855 H95.188 Z M14.625 -7.792 Q11.938 -12.23 10.156 -17.105 Q8.375 -21.98 7.5 -27.605 H24.812 Q23.812 -21.605 21.219 -16.605 Q18.625 -11.605 14.625 -7.792 Z M105.375 -8.042 Q101.625 -11.855 98.906 -16.73 Q96.188 -21.605 95.188 -27.605 H112.5 Q111.562 -21.98 109.812 -17.23 Q108.062 -12.48 105.375 -8.042 Z M40.625 -42.855 Q39.312 -52.417 35.031 -60.261 Q30.75 -68.105 24.25 -74.355 Q30 -79.667 37.062 -83.042 Q44.125 -86.417 52.375 -87.73 V-42.855 H40.625 Z M67.625 -42.855 V-87.73 Q75.875 -86.417 82.938 -83.042 Q90 -79.667 95.75 -74.355 Q89.438 -68.105 85.062 -60.261 Q80.688 -52.417 79.375 -42.855 H67.625 Z M52.375 17.27 Q44.25 15.833 37.188 12.52 Q30.125 9.208 24.375 4.02 Q30.688 -2.23 35 -10.136 Q39.312 -18.042 40.625 -27.605 H52.375 V17.27 Z M67.625 17.27 V-27.605 H79.375 Q80.688 -18.042 85.062 -10.199 Q89.438 -2.355 95.75 3.895 Q90 9.208 82.938 12.52 Q75.875 15.833 67.625 17.27 Z"/></g><g id="Semibold-M" transform="matrix(1 0 0 1 1985.97 1126)"><path d="M9.185 -41.605 Q9.959 -47.556 11.81 -52.682 Q13.66 -57.809 16.674 -62.401 Q20.836 -58.246 23.601 -53.007 Q26.366 -47.767 27.258 -41.605 H9.185 Z M92.743 -41.605 Q93.634 -47.767 96.406 -53.051 Q99.18 -58.334 103.255 -62.417 Q106.269 -57.817 108.155 -52.66 Q110.041 -47.501 110.815 -41.605 H92.743 Z M16.745 -7.901 Q13.731 -12.501 11.841 -17.702 Q9.951 -22.904 9.185 -28.855 H27.258 Q26.366 -22.692 23.637 -17.339 Q20.907 -11.985 16.745 -7.901 Z M103.255 -8.042 Q99.18 -12.126 96.406 -17.409 Q93.634 -22.692 92.743 -28.855 H110.815 Q110.041 -22.959 108.155 -17.8 Q106.269 -12.642 103.255 -8.042 Z M40.354 -41.605 Q39.204 -50.841 35.14 -58.522 Q31.076 -66.202 24.739 -72.344 Q30.544 -77.929 37.85 -81.412 Q45.157 -84.896 53.625 -86.045 V-41.605 H40.354 Z M66.375 -41.605 V-86.045 Q74.843 -84.896 82.15 -81.412 Q89.456 -77.929 95.261 -72.344 Q89.002 -66.257 84.9 -58.55 Q80.796 -50.841 79.646 -41.605 H66.375 Z M53.625 15.585 Q45.174 14.365 37.894 10.89 Q30.614 7.414 24.81 1.9 Q31.067 -4.186 35.136 -11.902 Q39.204 -19.619 40.354 -28.855 H53.625 V15.585 Z M66.375 15.585 V-28.855 H79.646 Q80.796 -19.619 84.9 -11.91 Q89.002 -4.202 95.261 1.884 Q89.456 7.469 82.15 10.916 Q74.843 14.365 66.375 15.585 Z"/></g><g id="Medium-M" transform="matrix(1 0 0 1 1689.91 1126)"><path d="M10.449 -40.667 Q11.1 -46.864 13.074 -52.295 Q15.046 -57.727 18.304 -62.482 Q22.59 -58.165 25.436 -52.559 Q28.282 -46.952 29.093 -40.667 H10.449 Z M90.907 -40.667 Q91.718 -46.952 94.531 -52.541 Q97.345 -58.13 101.666 -62.417 Q104.924 -57.695 106.911 -52.231 Q108.9 -46.767 109.551 -40.667 H90.907 Z M18.334 -7.982 Q15.076 -12.705 13.105 -18.151 Q11.134 -23.596 10.449 -29.792 H29.093 Q28.282 -23.507 25.451 -17.889 Q22.62 -12.271 18.334 -7.982 Z M101.666 -8.042 Q97.345 -12.33 94.531 -17.919 Q91.718 -23.507 90.907 -29.792 H109.551 Q108.9 -23.692 106.911 -18.229 Q104.924 -12.765 101.666 -8.042 Z M40.15 -40.667 Q39.123 -49.659 35.221 -57.217 Q31.321 -64.776 25.106 -70.836 Q30.951 -76.624 38.441 -80.189 Q45.932 -83.755 54.562 -84.781 V-40.667 H40.15 Z M65.438 -40.667 V-84.781 Q74.067 -83.755 81.559 -80.189 Q89.049 -76.624 94.894 -70.836 Q88.676 -64.871 84.778 -57.265 Q80.877 -49.659 79.85 -40.667 H65.438 Z M54.562 14.321 Q45.866 13.265 38.424 9.666 Q30.981 6.069 25.136 0.311 Q31.354 -5.654 35.237 -13.227 Q39.123 -20.801 40.15 -29.792 H54.562 V14.321 Z M65.438 14.321 V-29.792 H79.85 Q80.877 -20.801 84.778 -13.195 Q88.676 -5.589 94.894 0.376 Q89.049 6.164 81.559 9.714 Q74.067 13.265 65.438 14.321 Z"/></g><g id="Regular-M" transform="matrix(1 0 0 1 1394.06 1126)"><path d="M11.375 -39.98 Q11.938 -46.355 14 -52.011 Q16.062 -57.667 19.5 -62.542 Q23.875 -58.105 26.781 -52.23 Q29.688 -46.355 30.438 -39.98 H11.375 Z M89.562 -39.98 Q90.312 -46.355 93.156 -52.167 Q96 -57.98 100.5 -62.417 Q103.938 -57.605 106 -51.917 Q108.062 -46.23 108.625 -39.98 H89.562 Z M19.5 -8.042 Q16.062 -12.855 14.031 -18.48 Q12 -24.105 11.375 -30.48 H30.438 Q29.688 -24.105 26.781 -18.292 Q23.875 -12.48 19.5 -8.042 Z M100.5 -8.042 Q96 -12.48 93.156 -18.292 Q90.312 -24.105 89.562 -30.48 H108.625 Q108.062 -24.23 106 -18.542 Q103.938 -12.855 100.5 -8.042 Z M40 -39.98 Q39.062 -48.792 35.281 -56.261 Q31.5 -63.73 25.375 -69.73 Q31.25 -75.667 38.875 -79.292 Q46.5 -82.917 55.25 -83.855 V-39.98 H40 Z M64.75 -39.98 V-83.855 Q73.5 -82.917 81.125 -79.292 Q88.75 -75.667 94.625 -69.73 Q88.438 -63.855 84.688 -56.324 Q80.938 -48.792 80 -39.98 H64.75 Z M55.25 13.395 Q46.375 12.458 38.812 8.77 Q31.25 5.083 25.375 -0.855 Q31.562 -6.73 35.312 -14.199 Q39.062 -21.667 40 -30.48 H55.25 V13.395 Z M64.75 13.395 V-30.48 H80 Q80.938 -21.667 84.688 -14.136 Q88.438 -6.605 94.625 -0.73 Q88.75 5.208 81.125 8.833 Q73.5 12.458 64.75 13.395 Z"/></g><g id="Light-M" transform="matrix(1 0 0 1 1098.18 1126)"><path d="M13.611 -38.754 Q14.029 -45.369 16.188 -51.242 Q18.346 -57.115 21.976 -62.134 Q26.495 -57.527 29.426 -51.4 Q32.356 -45.274 32.961 -38.754 H13.611 Z M87.062 -38.754 Q87.644 -45.274 90.44 -51.266 Q93.235 -57.259 98.024 -61.912 Q101.654 -56.931 103.812 -51.064 Q105.971 -45.196 106.389 -38.754 H87.062 Z M21.976 -8.571 Q18.346 -13.529 16.255 -19.31 Q14.164 -25.091 13.611 -31.706 H32.961 Q32.356 -25.186 29.426 -19.194 Q26.495 -13.201 21.976 -8.571 Z M98.024 -8.571 Q93.235 -13.201 90.44 -19.194 Q87.644 -25.186 87.062 -31.706 H106.389 Q105.971 -25.264 103.812 -19.396 Q101.654 -13.529 98.024 -8.571 Z M40.12 -38.754 Q39.399 -47.11 35.834 -54.337 Q32.269 -61.566 26.385 -67.374 Q32.188 -73.48 39.909 -77.189 Q47.63 -80.897 56.476 -81.619 V-38.754 H40.12 Z M63.524 -38.754 V-81.619 Q72.37 -80.897 80.091 -77.189 Q87.812 -73.48 93.615 -67.374 Q87.62 -61.764 84.11 -54.436 Q80.601 -47.11 79.88 -38.754 H63.524 Z M56.476 11.159 Q47.481 10.438 39.834 6.643 Q32.188 2.846 26.385 -3.259 Q32.38 -8.917 35.89 -16.097 Q39.399 -23.279 40.12 -31.706 H56.476 V11.159 Z M63.524 11.159 V-31.706 H79.88 Q80.601 -23.279 84.11 -15.987 Q87.62 -8.696 93.615 -3.086 Q87.812 3.02 80.091 6.729 Q72.37 10.438 63.524 11.159 Z"/></g><g id="Thin-M" transform="matrix(1 0 0 1 802.565 1126)"><path d="M15.846 -37.527 Q16.12 -44.384 18.375 -50.472 Q20.63 -56.561 24.453 -61.725 Q29.115 -56.951 32.07 -50.571 Q35.024 -44.191 35.485 -37.527 H15.846 Z M84.562 -37.527 Q84.976 -44.191 87.724 -50.365 Q90.471 -56.537 95.547 -61.407 Q99.37 -56.259 101.625 -50.211 Q103.88 -44.162 104.154 -37.527 H84.562 Z M24.453 -9.1 Q20.63 -14.201 18.479 -20.139 Q16.328 -26.076 15.846 -32.932 H35.485 Q35.024 -26.269 32.07 -20.095 Q29.115 -13.922 24.453 -9.1 Z M95.547 -9.1 Q90.471 -13.922 87.724 -20.095 Q84.976 -26.269 84.562 -32.932 H104.154 Q103.88 -26.297 101.625 -20.249 Q99.37 -14.201 95.547 -9.1 Z M40.24 -37.527 Q39.735 -45.427 36.388 -52.415 Q33.039 -59.402 27.394 -65.019 Q33.125 -71.292 40.943 -75.086 Q48.76 -78.879 57.703 -79.384 V-37.527 H40.24 Z M62.297 -37.527 V-79.384 Q71.24 -78.879 79.058 -75.086 Q86.875 -71.292 92.606 -65.019 Q86.802 -59.672 83.534 -52.55 Q80.265 -45.427 79.76 -37.527 H62.297 Z M57.703 8.924 Q48.586 8.419 40.856 4.515 Q33.125 0.611 27.394 -5.662 Q33.197 -11.105 36.466 -17.996 Q39.735 -24.889 40.24 -32.932 H57.703 V8.924 Z M62.297 8.924 V-32.932 H79.76 Q80.265 -24.889 83.534 -17.839 Q86.802 -10.787 92.606 -5.441 Q86.875 0.833 79.058 4.626 Q71.24 8.419 62.297 8.924 Z"/></g><g id="Ultralight-M" transform="matrix(1 0 0 1 506.415 1126)"><path d="M17.188 -36.792 Q17.375 -43.792 19.688 -50.011 Q22 -56.23 25.938 -61.48 Q30.688 -56.605 33.656 -50.074 Q36.625 -43.542 37 -36.792 H17.188 Z M83.062 -36.792 Q83.375 -43.542 86.094 -49.824 Q88.812 -56.105 94.062 -61.105 Q98 -55.855 100.312 -49.699 Q102.625 -43.542 102.812 -36.792 H83.062 Z M25.938 -9.417 Q22 -14.605 19.812 -20.636 Q17.625 -26.667 17.188 -33.667 H37 Q36.625 -26.917 33.656 -20.636 Q30.688 -14.355 25.938 -9.417 Z M94.062 -9.417 Q88.812 -14.355 86.094 -20.636 Q83.375 -26.917 83.062 -33.667 H102.812 Q102.625 -26.917 100.312 -20.761 Q98 -14.605 94.062 -9.417 Z M40.312 -36.792 Q39.938 -44.417 36.719 -51.261 Q33.5 -58.105 28 -63.605 Q33.688 -69.98 41.562 -73.824 Q49.438 -77.667 58.438 -78.042 V-36.792 H40.312 Z M61.562 -36.792 V-78.042 Q70.562 -77.667 78.438 -73.824 Q86.312 -69.98 92 -63.605 Q86.312 -58.417 83.188 -51.417 Q80.062 -44.417 79.688 -36.792 H61.562 Z M58.438 7.583 Q49.25 7.208 41.469 3.239 Q33.688 -0.73 28 -7.105 Q33.688 -12.417 36.812 -19.136 Q39.938 -25.855 40.312 -33.667 H58.438 V7.583 Z M61.562 7.583 V-33.667 H79.688 Q80.062 -25.855 83.188 -18.949 Q86.312 -12.042 92 -6.855 Q86.312 -0.48 78.438 3.364 Q70.562 7.208 61.562 7.583 Z"/></g><g id="Bold-S" transform="matrix(1 0 0 1 2294.23 696)"><path d="M7.397 -40.753 Q8.137 -44.895 9.517 -48.569 Q10.898 -52.243 12.821 -55.695 Q17.753 -53.377 20.835 -49.728 Q23.917 -46.079 24.804 -40.753 H7.397 Z M69.876 -40.753 Q70.763 -46.079 73.993 -49.925 Q77.223 -53.771 81.76 -55.892 Q83.881 -52.391 85.261 -48.692 Q86.642 -44.994 87.283 -40.753 H69.876 Z M12.92 -14.371 Q10.997 -17.773 9.542 -21.57 Q8.087 -25.367 7.397 -29.707 H24.804 Q23.917 -24.48 20.884 -20.584 Q17.851 -16.688 12.92 -14.371 Z M81.76 -14.568 Q77.125 -16.59 73.944 -20.486 Q70.763 -24.381 69.876 -29.707 H87.283 Q86.642 -25.466 85.261 -21.768 Q83.881 -18.069 81.76 -14.568 Z M36.59 -40.753 Q35.456 -48.495 31.141 -54.733 Q26.826 -60.971 20.218 -64.817 Q24.755 -69.009 30.179 -71.573 Q35.604 -74.138 41.817 -75.074 V-40.753 H36.59 Z M52.863 -40.753 V-75.074 Q59.076 -74.138 64.501 -71.573 Q69.925 -69.009 74.462 -64.817 Q68.002 -60.971 63.564 -54.733 Q59.126 -48.495 58.09 -40.753 H52.863 Z M41.817 4.615 Q35.9 3.579 30.377 1.113 Q24.854 -1.352 20.317 -5.445 Q26.777 -9.39 31.166 -15.727 Q35.554 -22.064 36.59 -29.707 H41.817 V4.615 Z M52.863 4.615 V-29.707 H58.09 Q59.126 -21.965 63.564 -15.776 Q68.002 -9.587 74.462 -5.642 Q69.925 -1.451 64.501 1.064 Q59.076 3.579 52.863 4.615 Z"/></g><g id="Semibold-S" transform="matrix(1 0 0 1 1998.1 696)"><path d="M8.726 -39.767 Q9.337 -44.166 10.847 -48.162 Q12.356 -52.157 14.536 -55.78 Q19.596 -53.291 22.764 -49.256 Q25.931 -45.221 26.733 -39.767 H8.726 Z M67.947 -39.767 Q68.749 -45.221 72.021 -49.39 Q75.294 -53.557 80.087 -55.892 Q82.465 -52.263 83.954 -48.243 Q85.442 -44.222 85.954 -39.767 H67.947 Z M14.593 -14.457 Q12.412 -17.987 10.871 -22.042 Q9.331 -26.096 8.726 -30.693 H26.733 Q25.931 -25.338 22.792 -21.163 Q19.652 -16.988 14.593 -14.457 Z M80.087 -14.568 Q75.196 -16.804 71.972 -21.021 Q68.749 -25.239 67.947 -30.693 H85.954 Q85.442 -26.238 83.954 -22.217 Q82.465 -18.197 80.087 -14.568 Z M36.376 -39.767 Q35.37 -47.251 31.227 -53.361 Q27.083 -59.47 20.604 -63.231 Q25.184 -67.637 30.801 -70.287 Q36.418 -72.937 42.803 -73.745 V-39.767 H36.376 Z M51.877 -39.767 V-73.745 Q58.262 -72.937 63.879 -70.287 Q69.496 -67.637 74.076 -63.231 Q67.659 -59.513 63.436 -53.383 Q59.211 -47.251 58.304 -39.767 H51.877 Z M42.803 3.285 Q36.628 2.421 30.934 -0.173 Q25.239 -2.768 20.66 -7.118 Q27.077 -10.934 31.273 -17.12 Q35.469 -23.307 36.376 -30.693 H42.803 V3.285 Z M51.877 3.285 V-30.693 H58.304 Q59.211 -23.209 63.436 -17.126 Q67.659 -11.045 74.076 -7.229 Q69.496 -2.823 63.879 -0.201 Q58.262 2.421 51.877 3.285 Z"/></g><g id="Medium-S" transform="matrix(1 0 0 1 1701.85 696)"><path d="M9.723 -39.027 Q10.237 -43.62 11.844 -47.856 Q13.449 -52.093 15.822 -55.845 Q20.98 -53.227 24.211 -48.902 Q27.443 -44.578 28.181 -39.027 H9.723 Z M66.499 -39.027 Q67.237 -44.578 70.542 -48.987 Q73.846 -53.397 78.834 -55.892 Q81.404 -52.166 82.972 -47.904 Q84.541 -43.643 84.957 -39.027 H66.499 Z M15.846 -14.521 Q13.473 -18.148 11.869 -22.396 Q10.264 -26.643 9.723 -31.433 H28.181 Q27.443 -25.981 24.223 -21.597 Q21.003 -17.214 15.846 -14.521 Z M78.834 -14.568 Q73.748 -16.965 70.492 -21.423 Q67.237 -25.882 66.499 -31.433 H84.957 Q84.541 -26.817 82.972 -22.556 Q81.404 -18.294 78.834 -14.568 Z M36.215 -39.027 Q35.306 -46.318 31.291 -52.332 Q27.277 -58.345 20.894 -62.041 Q25.505 -66.608 31.267 -69.322 Q37.03 -72.037 43.543 -72.748 V-39.027 H36.215 Z M51.137 -39.027 V-72.748 Q57.65 -72.037 63.413 -69.322 Q69.175 -66.608 73.786 -62.041 Q67.401 -58.42 63.339 -52.369 Q59.276 -46.318 58.465 -39.027 H51.137 Z M43.543 2.288 Q37.175 1.553 31.352 -1.138 Q25.529 -3.829 20.917 -8.371 Q27.302 -12.092 31.353 -18.166 Q35.404 -24.24 36.215 -31.433 H43.543 V2.288 Z M51.137 2.288 V-31.433 H58.465 Q59.276 -24.142 63.339 -18.14 Q67.401 -12.139 73.786 -8.419 Q69.175 -3.852 63.413 -1.15 Q57.65 1.553 51.137 2.288 Z"/></g><g id="Regular-S" transform="matrix(1 0 0 1 1405.73 696)"><path d="M10.454 -38.485 Q10.898 -43.219 12.575 -47.632 Q14.251 -52.046 16.766 -55.892 Q21.993 -53.18 25.273 -48.643 Q28.552 -44.106 29.242 -38.485 H10.454 Z M65.438 -38.485 Q66.128 -44.106 69.457 -48.692 Q72.785 -53.278 77.914 -55.892 Q80.626 -52.095 82.253 -47.657 Q83.881 -43.219 84.226 -38.485 H65.438 Z M16.766 -14.568 Q14.251 -18.266 12.599 -22.655 Q10.947 -27.044 10.454 -31.975 H29.242 Q28.552 -26.452 25.273 -21.916 Q21.993 -17.379 16.766 -14.568 Z M77.914 -14.568 Q72.687 -17.083 69.407 -21.718 Q66.128 -26.354 65.438 -31.975 H84.226 Q83.881 -27.241 82.253 -22.803 Q80.626 -18.365 77.914 -14.568 Z M36.097 -38.485 Q35.258 -45.635 31.338 -51.577 Q27.418 -57.519 21.106 -61.168 Q25.741 -65.853 31.609 -68.615 Q37.477 -71.376 44.085 -72.017 V-38.485 H36.097 Z M50.595 -38.485 V-72.017 Q57.203 -71.376 63.071 -68.615 Q68.939 -65.853 73.574 -61.168 Q67.213 -57.618 63.268 -51.626 Q59.323 -45.635 58.583 -38.485 H50.595 Z M44.085 1.557 Q37.576 0.916 31.659 -1.845 Q25.741 -4.607 21.106 -9.292 Q27.467 -12.941 31.412 -18.932 Q35.357 -24.924 36.097 -31.975 H44.085 V1.557 Z M50.595 1.557 V-31.975 H58.583 Q59.323 -24.825 63.268 -18.883 Q67.213 -12.941 73.574 -9.292 Q68.939 -4.607 63.071 -1.845 Q57.203 0.916 50.595 1.557 Z"/></g><g id="Light-S" transform="matrix(1 0 0 1 1109.75 696)"><path d="M12.219 -37.517 Q12.548 -42.44 14.301 -47.026 Q16.053 -51.61 18.72 -55.569 Q24.061 -52.724 27.36 -47.988 Q30.658 -43.253 31.234 -37.517 H12.219 Z M63.465 -37.517 Q64.022 -43.253 67.314 -47.981 Q70.604 -52.709 75.96 -55.493 Q78.824 -51.563 80.527 -46.983 Q82.231 -42.403 82.461 -37.517 H63.465 Z M18.72 -14.985 Q16.053 -18.798 14.354 -23.31 Q12.655 -27.822 12.219 -32.943 H31.234 Q30.658 -27.305 27.36 -22.627 Q24.061 -17.948 18.72 -14.985 Z M75.96 -14.985 Q70.505 -17.652 67.264 -22.429 Q64.022 -27.207 63.465 -32.943 H82.461 Q82.231 -28.057 80.527 -23.477 Q78.824 -18.897 75.96 -14.985 Z M36.191 -37.517 Q35.524 -44.307 31.774 -50.059 Q28.024 -55.812 21.903 -59.309 Q26.481 -64.127 32.425 -66.955 Q38.369 -69.782 45.053 -70.253 V-37.517 H36.191 Z M49.627 -37.517 V-70.253 Q56.311 -69.782 62.255 -66.955 Q68.199 -64.127 72.777 -59.309 Q66.568 -55.968 62.812 -50.137 Q59.058 -44.307 58.489 -37.517 H49.627 Z M45.053 -0.207 Q38.449 -0.678 32.464 -3.524 Q26.481 -6.371 21.903 -11.188 Q28.112 -14.667 31.868 -20.43 Q35.622 -26.195 36.191 -32.943 H45.053 V-0.207 Z M49.627 -0.207 V-32.943 H58.489 Q59.058 -26.096 62.812 -20.344 Q66.568 -14.591 72.777 -11.151 Q68.199 -6.333 62.255 -3.505 Q56.311 -0.678 49.627 -0.207 Z"/></g><g id="Thin-S" transform="matrix(1 0 0 1 814.015 696)"><path d="M13.982 -36.55 Q14.198 -41.663 16.027 -46.418 Q17.855 -51.173 20.674 -55.247 Q26.128 -52.269 29.445 -47.334 Q32.762 -42.399 33.225 -36.55 H13.982 Z M61.493 -36.55 Q61.918 -42.399 65.17 -47.27 Q68.423 -52.14 74.006 -55.095 Q77.022 -51.033 78.801 -46.311 Q80.581 -41.587 80.698 -36.55 H61.493 Z M20.674 -15.402 Q17.855 -19.329 16.108 -23.964 Q14.362 -28.599 13.982 -33.91 H33.225 Q32.762 -28.16 29.445 -23.338 Q26.128 -18.517 20.674 -15.402 Z M74.006 -15.402 Q68.324 -18.221 65.121 -23.141 Q61.918 -28.061 61.493 -33.91 H80.698 Q80.581 -28.873 78.801 -24.149 Q77.022 -19.427 74.006 -15.402 Z M36.286 -36.55 Q35.789 -42.98 32.211 -48.542 Q28.632 -54.105 22.699 -57.451 Q27.221 -62.401 33.241 -65.296 Q39.261 -68.189 46.02 -68.489 V-36.55 H36.286 Z M48.66 -36.55 V-68.489 Q55.419 -68.189 61.439 -65.296 Q67.46 -62.401 71.981 -57.451 Q65.923 -54.318 62.358 -48.649 Q58.792 -42.98 58.394 -36.55 H48.66 Z M46.02 -1.971 Q39.321 -2.271 33.271 -5.203 Q27.221 -8.135 22.699 -13.085 Q28.757 -16.393 32.322 -21.928 Q35.888 -27.465 36.286 -33.91 H46.02 V-1.971 Z M48.66 -1.971 V-33.91 H58.394 Q58.792 -27.367 62.358 -21.804 Q65.923 -16.241 71.981 -13.009 Q67.46 -8.059 61.439 -5.164 Q55.419 -2.271 48.66 -1.971 Z"/></g><g id="Ultralight-S" transform="matrix(1 0 0 1 517.792 696)"><path d="M15.04 -35.97 Q15.188 -41.197 17.062 -46.054 Q18.936 -50.911 21.845 -55.054 Q27.368 -51.996 30.697 -46.942 Q34.026 -41.887 34.42 -35.97 H15.04 Z M60.309 -35.97 Q60.654 -41.887 63.884 -46.843 Q67.114 -51.799 72.835 -54.856 Q75.941 -50.714 77.766 -45.906 Q79.59 -41.098 79.64 -35.97 H60.309 Z M21.845 -15.653 Q18.936 -19.647 17.161 -24.357 Q15.386 -29.066 15.04 -34.49 H34.42 Q34.026 -28.671 30.697 -23.765 Q27.368 -18.858 21.845 -15.653 Z M72.835 -15.653 Q67.016 -18.562 63.835 -23.568 Q60.654 -28.573 60.309 -34.49 H79.64 Q79.59 -29.362 77.766 -24.554 Q75.941 -19.746 72.835 -15.653 Z M36.343 -35.97 Q35.949 -42.183 32.472 -47.632 Q28.996 -53.081 23.177 -56.336 Q27.664 -61.366 33.73 -64.3 Q39.795 -67.234 46.6 -67.431 V-35.97 H36.343 Z M48.08 -35.97 V-67.431 Q54.885 -67.234 60.95 -64.3 Q67.016 -61.366 71.503 -56.336 Q65.536 -53.328 62.084 -47.755 Q58.633 -42.183 58.337 -35.97 H48.08 Z M46.6 -3.029 Q39.845 -3.226 33.754 -6.21 Q27.664 -9.193 23.177 -14.223 Q29.144 -17.428 32.596 -22.828 Q36.047 -28.228 36.343 -34.49 H46.6 V-3.029 Z M48.08 -3.029 V-34.49 H58.337 Q58.633 -28.129 62.084 -22.68 Q65.536 -17.231 71.503 -14.124 Q67.016 -9.094 60.95 -6.16 Q54.885 -3.226 48.08 -3.029 Z"/></g></g></svg>