<svg xmlns="http://www.w3.org/2000/svg" height="24" viewBox="0 -960 960 960" width="24"><path d="M447-60.78q-20.09 0-39.53-7.7-19.44-7.69-34.99-23.08L91.56-372.48q-15.95-15.39-23.43-34.75t-7.48-39.39q0-20.03 7.48-39.55 7.48-19.53 23.43-35.48l346.35-346.22q14.39-14.96 34-23.15 19.61-8.2 40.52-8.2h281.35q43.49 0 74.47 30.97 30.97 30.98 30.97 74.47v281.35q0 21.22-8.26 40.46-8.26 19.23-22.66 33.62L521.52-91.56q-15.55 15.39-34.99 23.08-19.44 7.7-39.53 7.7Zm247.28-574.7q24.5 0 41.72-17.15t17.22-41.65q0-24.5-17.15-41.72t-41.66-17.22q-24.5 0-41.71 17.15-17.22 17.15-17.22 41.66 0 24.5 17.15 41.71 17.15 17.22 41.65 17.22Z"/></svg>