<svg xmlns="http://www.w3.org/2000/svg" height="24" viewBox="0 -960 960 960" width="24"><path d="m872-231.54-66-66v-213.08H592.92l-66-66H872v345.08Zm-276.23-66.84ZM840.31-54.62 808.15-86H383.38v-424.77L199.15-695q-21.01 28.08-33.08 62.21Q154-598.65 154-560q0 69 35.5 128.5T288-342v72.46q-92.08-34.23-146.04-113.27Q88-461.85 88-560q0-52.04 15.85-98.63 15.84-46.6 46.3-85.37l-85.54-85.54 47.31-47.31 774.93 774.93-46.54 47.3ZM359.38-629.38Zm147 433.69 66.62-90 48 66 66.31-81.77 105.77 105.77h-286.7Zm-57 43.69h292.77L449.38-444.77V-152Zm249.7-251.69ZM616-672q-32-62-90.5-98t-127.11-36q-21.69 0-42.58 3.73-20.89 3.73-43.12 12.19l-50.54-49.77q32.31-16.07 65.98-24.11Q361.79-872 398-872q98.15 0 177.69 54.46Q655.23-763.08 690.46-672H616Zm-185.46 0Z"/></svg>