<svg xmlns="http://www.w3.org/2000/svg" height="48" viewBox="0 -960 960 960" width="48"><path d="M648.153-285.77q-73.384 0-124.115-50.731-50.73-50.73-50.73-124.114 0-72.769 50.73-123.807 50.731-51.039 123.115-51.039 72.384 0 122.615 51.231 50.231 51.23 50.231 123.615 0 38.461-15.616 72.73-15.615 34.269-44.231 59.731l15.154 21.923q3.846 6.461 2.539 14.115-1.308 7.654-7.299 12.5-6.932 4.846-15.893 3.731-8.962-1.116-13.192-7.962l-13.77-21.923q-18.558 10-38.539 15t-40.999 5Zm-430.691-92.692-26.127 70.854q-2.334 6.761-7.935 10.492-5.601 3.731-11.937 3.731-11.581 0-18.098-9.487-6.517-9.487-2.287-19.744L260.215-612.19q2.632-7.579 9.136-11.617 6.504-4.038 14.014-4.038h18.271q7.51 0 13.821 4.038 6.312 4.038 8.98 11.588l111.255 289.373q3.846 10.615-2.596 20.038t-18.173 9.423q-6.497 0-12.294-3.989-5.796-3.988-7.705-10.55l-26.253-70.538H217.462Zm429.902 52.769q15.174 0 29.058-3.192 13.885-3.192 28.27-10.577l-30-45.615q-4.231-6.462-3.116-14.423 1.116-7.961 7.962-12.692 6.846-4.346 15.307-2.731 8.462 1.616 12.692 8.462l29 43q19.77-19.616 30.847-44.745 11.077-25.128 11.077-52.704 0-55.551-37.748-95.09-37.747-39.538-93.576-39.538-55.83 0-94.061 39.717-38.23 39.718-38.23 95.206 0 55.487 38.315 95.205 38.315 39.717 94.203 39.717ZM231.385-417.23H354.77l-59.641-163.077h-4.436L231.385-417.23Z"/></svg>