<svg xmlns="http://www.w3.org/2000/svg" height="40" viewBox="0 -960 960 960" width="40"><path d="M139.57-60v-173.69q-33.44-10.62-56.5-38.02Q60-299.1 60-334.33v-379.9h79.57v-160.64q0-11.26 6.93-18.2 6.94-6.93 18.21-6.93 11.26 0 18.19 6.93 6.92 6.94 6.92 18.2v160.64h79.56v379.9q0 35.23-22.85 62.62-22.86 27.4-56.71 38.02V-60h-50.25Zm315.3 0v-173.69q-33.43-10.62-56.5-38.02-23.06-27.39-23.06-62.62v-379.9h79.56v-160.64q0-11.26 6.94-18.2 6.94-6.93 18.2-6.93 11.27 0 18.19 6.93 6.93 6.94 6.93 18.2v160.64h79.56v379.9q0 35.23-22.86 62.62-22.86 27.4-56.7 38.02V-60h-50.26Zm315.31 0v-173.69q-33.44-10.62-56.5-38.02-23.06-27.39-23.06-62.62v-379.9h79.56v-160.64q0-11.26 6.94-18.2 6.93-6.93 18.2-6.93t18.19 6.93q6.92 6.94 6.92 18.2v160.64H900v379.9q0 35.23-23.07 62.62-23.06 27.4-56.5 38.02V-60h-50.25ZM110.26-663.98v185.75h108.87v-185.75H110.26Zm315.3 0v185.75h108.88v-185.75H425.56Zm315.31 0v185.75h108.87v-185.75H740.87ZM164.56-281.33q22.52 0 38.54-15.64 16.03-15.64 16.03-37.31v-93.7H110.26v93.7q0 21.67 15.89 37.31 15.9 15.64 38.41 15.64Zm315.41 0q22.41 0 38.44-15.64 16.03-15.64 16.03-37.31v-93.7H425.56v93.7q0 21.67 16 37.31 15.99 15.64 38.41 15.64Zm315.34 0q22.64 0 38.54-15.64 15.89-15.64 15.89-37.31v-93.7H740.87v93.7q0 21.67 16 37.31 16.01 15.64 38.44 15.64ZM164.69-453.1Zm315.31 0Zm315.31 0Z"/></svg>