<svg xmlns="http://www.w3.org/2000/svg" height="48" viewBox="0 -960 960 960" width="48"><path d="M190.5-524 350-364.5q12.5 13.5 12.5 32t-13.5 32q-13.5 14-33.25 14t-32.25-14L92-491q-6.5-6.5-10.75-15.25T77-524q0-9 4.25-17.75T92-557.5L284.5-749q14-13.5 32.5-13.5t33 13.5q13.5 14 13.5 33T350-683.5L190.5-524ZM457-478.5l113.5 114q12.5 13.5 12.75 32.25T570-300q-13 13.5-32.5 13.5t-33-14L314-491q-7-6.5-11-15.25T299-524q0-9 4-17.75t11-15.75L505.5-749q14-14 33.25-13.75T571-749q13.5 13.5 13.5 32.5T571-685L457-570h229.5q91 0 152.25 61.5t61.25 151V-226q0 19.5-13.75 32.75T853.5-180q-19.5 0-32.75-13.25T807.5-226v-131.5q0-54-33.5-87.5t-87.5-33.5H457Z"/></svg>