<svg xmlns="http://www.w3.org/2000/svg" version="1.1" width="3300" height="2000"><g id="Notes"><style>
    text {
      font-family: monospace;
      text-anchor: middle;
    }
    text.emphasis {
      font-weight:bold;
    }
    text.lanchor {
      text-anchor: start;
    }
  </style><rect height="2200" id="artboard" fill="white" width="3300" x="0" y="0"/><line id="" style="fill:none;stroke:black;stroke-width:0.5;" x1="263" x2="3036" y1="292" y2="292"/><text class="lanchor emphasis" transform="matrix(1 0 0 1 263 322)">Weight/Scale Variations</text><text transform="matrix(1 0 0 1 559.711 322)">Ultralight</text><text transform="matrix(1 0 0 1 856.422 322)">Thin</text><text transform="matrix(1 0 0 1 1153.13 322)">Light</text><text transform="matrix(1 0 0 1 1449.84 322)">Regular</text><text transform="matrix(1 0 0 1 1746.56 322)">Medium</text><text transform="matrix(1 0 0 1 2043.27 322)">Semibold</text><text transform="matrix(1 0 0 1 2339.98 322)">Bold</text><text transform="matrix(1 0 0 1 2636.69 322)">Heavy</text><text transform="matrix(1 0 0 1 2933.4 322)">Black</text><text id="template-version" style="text-anchor: end;" transform="matrix(1 0 0 1 3036 1933)">Template v.1.0</text><text class="lanchor" transform="matrix(1 0 0 1 263 726)">Small</text><text class="lanchor" transform="matrix(1 0 0 1 263 1156)">Medium</text><text class="lanchor" transform="matrix(1 0 0 1 263 1586)">Large</text></g><g id="Guides"><g id="H-reference" style="fill:#27AAE1;stroke:none;" transform="matrix(1 0 0 1 339 696)"><path d="M 54.9316 0 L 57.666 0 L 30.5664 -70.459 L 28.0762 -70.459 L 0.976562 0 L 3.66211 0 L 12.9395 -24.4629 L 45.7031 -24.4629 Z M 29.1992 -67.0898 L 29.4434 -67.0898 L 44.8242 -26.709 L 13.8184 -26.709 Z"/></g><line id="Baseline-S" style="fill:none;stroke:#27AAE1;opacity:1;stroke-width:0.577;" x1="263" x2="3036" y1="696" y2="696"/><line id="Capline-S" style="fill:none;stroke:#27AAE1;opacity:1;stroke-width:0.577;" x1="263" x2="3036" y1="625.541" y2="625.541"/><g id="H-reference" style="fill:#27AAE1;stroke:none;" transform="matrix(1 0 0 1 339 1126)"><path d="M 54.9316 0 L 57.666 0 L 30.5664 -70.459 L 28.0762 -70.459 L 0.976562 0 L 3.66211 0 L 12.9395 -24.4629 L 45.7031 -24.4629 Z M 29.1992 -67.0898 L 29.4434 -67.0898 L 44.8242 -26.709 L 13.8184 -26.709 Z"/></g><line id="Baseline-M" style="fill:none;stroke:#27AAE1;opacity:1;stroke-width:0.577;" x1="263" x2="3036" y1="1126" y2="1126"/><line id="Capline-M" style="fill:none;stroke:#27AAE1;opacity:1;stroke-width:0.577;" x1="263" x2="3036" y1="1055.54" y2="1055.54"/><g id="H-reference" style="fill:#27AAE1;stroke:none;" transform="matrix(1 0 0 1 339 1556)"><path d="M 54.9316 0 L 57.666 0 L 30.5664 -70.459 L 28.0762 -70.459 L 0.976562 0 L 3.66211 0 L 12.9395 -24.4629 L 45.7031 -24.4629 Z M 29.1992 -67.0898 L 29.4434 -67.0898 L 44.8242 -26.709 L 13.8184 -26.709 Z"/></g><line id="Baseline-L" style="fill:none;stroke:#27AAE1;opacity:1;stroke-width:0.577;" x1="263" x2="3036" y1="1556" y2="1556"/><line id="Capline-L" style="fill:none;stroke:#27AAE1;opacity:1;stroke-width:0.577;" x1="263" x2="3036" y1="1485.54" y2="1485.54"/><rect height="119.336" id="left-margin" style="fill:darkred;stroke:none;opacity:0.4;" width="12.4512" x="1394.06" y="1030.79"/><rect height="119.336" id="right-margin" style="fill:darkgreen;stroke:none;opacity:0.4;" width="12.4512" x="1502.5112" y="1030.79"/><rect x="1406.5112" y="1045" width="96" height="96" fill="none" stroke="blue" stroke-dasharray="5"/><rect x="1394.06" y="1030.79" width="120.9024" height="119.336" fill="none" stroke="blue"/></g><g id="Symbols"><g id="Bold-L" transform="matrix(1 0 0 1 2266 1556)"><path d="M35.717 -6.366 H97.879 V-42.889 H35.717 V-6.366 Z M107.554 -28.377 H119.083 V-64.094 H54.18 V-52.605 H107.554 V-28.377 Z M9.675 19.676 V-90.297 H145.286 V19.676 H9.675 Z M24.429 4.921 H130.371 V-75.381 H24.429 V4.921 Z"/></g><g id="Semibold-L" transform="matrix(1 0 0 1 1970.27 1556)"><path d="M37.189 -7.838 H97.738 V-42.749 H37.189 V-7.838 Z M108.465 -30.339 H117.611 V-62.622 H55.862 V-53.516 H108.465 V-30.339 Z M11.428 17.923 V-88.475 H143.464 V17.923 H11.428 Z M23.799 5.552 H131.001 V-76.012 H23.799 V5.552 Z"/></g><g id="Medium-L" transform="matrix(1 0 0 1 1674.31 1556)"><path d="M38.294 -8.943 H97.634 V-42.644 H38.294 V-8.943 Z M109.149 -31.811 H116.506 V-61.517 H57.124 V-54.199 H109.149 V-31.811 Z M12.742 16.609 V-87.107 H142.097 V16.609 H12.742 Z M23.325 6.026 H131.475 V-76.486 H23.325 V6.026 Z"/></g><g id="Regular-L" transform="matrix(1 0 0 1 1378.56 1556)"><path d="M39.103 -9.752 H97.556 V-42.567 H39.103 V-9.752 Z M109.65 -32.892 H115.697 V-60.707 H58.05 V-54.701 H109.65 V-32.892 Z M13.706 15.644 V-86.104 H141.094 V15.644 H13.706 Z M22.978 6.373 H131.822 V-76.832 H22.978 V6.373 Z"/></g><g id="Light-L" transform="matrix(1 0 0 1 1082.77 1556)"><path d="M40.188 -10.868 H96.75 V-41.73 H40.188 V-10.868 Z M109.526 -32.427 H114.612 V-59.592 H58.05 V-54.561 H109.526 V-32.427 Z M16.622 12.698 V-83.158 H138.178 V12.698 H16.622 Z M23.691 5.628 H131.109 V-76.088 H23.691 V5.628 Z"/></g><g id="Thin-L" transform="matrix(1 0 0 1 787.282 1556)"><path d="M41.274 -11.986 H95.944 V-40.893 H41.274 V-11.986 Z M109.402 -31.961 H113.526 V-58.474 H58.05 V-54.422 H109.402 V-31.961 Z M19.535 9.752 V-80.212 H135.265 V9.752 H19.535 Z M24.405 4.884 H130.395 V-75.344 H24.405 V4.884 Z"/></g><g id="Ultralight-L" transform="matrix(1 0 0 1 491.205 1556)"><path d="M41.925 -12.655 H95.46 V-40.39 H41.925 V-12.655 Z M109.328 -31.682 H112.875 V-57.805 H58.05 V-54.338 H109.328 V-31.682 Z M21.285 7.985 V-78.445 H133.515 V7.985 H21.285 Z M24.832 4.438 H129.968 V-74.897 H24.832 V4.438 Z"/></g><g id="Bold-M" transform="matrix(1 0 0 1 2281.8 1126)"><path d="M27.125 -12.23 H76.5 V-41.855 H27.125 V-12.23 Z M80.25 -26.855 H92.875 V-58.23 H41 V-45.605 H80.25 V-26.855 Z M7 7.895 V-78.355 H113 V7.895 H7 Z M22.125 -7.23 H97.875 V-63.23 H22.125 V-7.23 Z"/></g><g id="Semibold-M" transform="matrix(1 0 0 1 1985.97 1126)"><path d="M28.646 -13.751 H76.391 V-41.746 H28.646 V-13.751 Z M81.229 -28.92 H91.354 V-56.709 H42.739 V-46.584 H81.229 V-28.92 Z M8.848 6.048 V-76.507 H111.153 V6.048 H8.848 Z M21.473 -6.577 H98.528 V-63.882 H21.473 V-6.577 Z"/></g><g id="Medium-M" transform="matrix(1 0 0 1 1689.91 1126)"><path d="M29.788 -14.892 H76.31 V-41.665 H29.788 V-14.892 Z M81.963 -30.469 H90.213 V-55.567 H44.044 V-47.317 H81.963 V-30.469 Z M10.234 4.661 V-75.121 H109.766 V4.661 H10.234 Z M20.984 -6.089 H99.016 V-64.371 H20.984 V-6.089 Z"/></g><g id="Regular-M" transform="matrix(1 0 0 1 1394.06 1126)"><path d="M30.625 -15.73 H76.25 V-41.605 H30.625 V-15.73 Z M82.5 -31.605 H89.375 V-54.73 H45 V-47.855 H82.5 V-31.605 Z M11.25 3.645 V-74.105 H108.75 V3.645 H11.25 Z M20.625 -5.73 H99.375 V-64.73 H20.625 V-5.73 Z"/></g><g id="Light-M" transform="matrix(1 0 0 1 1098.18 1126)"><path d="M31.466 -16.595 H75.625 V-40.956 H31.466 V-16.595 Z M83.078 -31.917 H88.534 V-53.865 H45 V-48.42 H83.078 V-31.917 Z M13.51 1.361 V-71.821 H106.49 V1.361 H13.51 Z M20.505 -5.634 H99.495 V-64.826 H20.505 V-5.634 Z"/></g><g id="Thin-M" transform="matrix(1 0 0 1 802.565 1126)"><path d="M32.307 -17.461 H75 V-40.307 H32.307 V-17.461 Z M83.654 -32.23 H87.692 V-52.999 H45 V-48.985 H83.654 V-32.23 Z M15.769 -0.922 V-69.537 H104.231 V-0.922 H15.769 Z M20.385 -5.537 H99.615 V-64.922 H20.385 V-5.537 Z"/></g><g id="Ultralight-M" transform="matrix(1 0 0 1 506.415 1126)"><path d="M32.812 -17.98 H74.625 V-39.917 H32.812 V-17.98 Z M84 -32.417 H87.188 V-52.48 H45 V-49.324 H84 V-32.417 Z M17.125 -2.292 V-68.167 H102.875 V-2.292 H17.125 Z M20.312 -5.48 H99.688 V-64.98 H20.312 V-5.48 Z"/></g><g id="Bold-S" transform="matrix(1 0 0 1 2294.23 696)"><path d="M21.402 -18.661 H61.542 V-40.063 H21.402 V-18.661 Z M63.317 -29.017 H73.278 V-51.799 H30.377 V-41.838 H63.317 V-29.017 Z M7.101 -4.36 V-66.1 H87.579 V-4.36 H7.101 Z M18.246 -15.505 H76.434 V-54.955 H18.246 V-15.505 Z"/></g><g id="Semibold-S" transform="matrix(1 0 0 1 1998.1 696)"><path d="M22.602 -19.861 H61.456 V-39.977 H22.602 V-19.861 Z M64.089 -30.646 H72.078 V-50.599 H31.748 V-42.61 H64.089 V-30.646 Z M8.559 -5.818 V-64.642 H86.121 V-5.818 H8.559 Z M17.731 -14.99 H76.949 V-55.47 H17.731 V-14.99 Z"/></g><g id="Medium-S" transform="matrix(1 0 0 1 1701.85 696)"><path d="M23.502 -20.762 H61.392 V-39.913 H23.502 V-20.762 Z M64.668 -31.868 H71.178 V-49.698 H32.778 V-43.189 H64.668 V-31.868 Z M9.652 -6.912 V-63.548 H85.028 V-6.912 H9.652 Z M17.345 -14.605 H77.335 V-55.855 H17.345 V-14.605 Z"/></g><g id="Regular-S" transform="matrix(1 0 0 1 1405.73 696)"><path d="M24.163 -21.422 H61.345 V-39.865 H24.163 V-21.422 Z M65.093 -32.764 H70.517 V-49.037 H33.532 V-43.613 H65.093 V-32.764 Z M10.454 -7.714 V-62.746 H84.226 V-7.714 H10.454 Z M17.062 -14.321 H77.618 V-56.138 H17.062 V-14.321 Z"/></g><g id="Light-S" transform="matrix(1 0 0 1 1109.75 696)"><path d="M24.827 -22.105 H60.852 V-39.354 H24.827 V-22.105 Z M65.548 -33.011 H69.853 V-48.355 H33.532 V-44.059 H65.548 V-33.011 Z M12.237 -9.516 V-60.944 H82.443 V-9.516 H12.237 Z M16.967 -14.246 H77.713 V-56.214 H16.967 V-14.246 Z"/></g><g id="Thin-S" transform="matrix(1 0 0 1 814.015 696)"><path d="M25.491 -22.788 H60.358 V-38.842 H25.491 V-22.788 Z M66.003 -33.257 H69.189 V-47.672 H33.532 V-44.505 H66.003 V-33.257 Z M14.02 -11.317 V-59.143 H80.66 V-11.317 H14.02 Z M16.873 -14.17 H77.807 V-56.29 H16.873 V-14.17 Z"/></g><g id="Ultralight-S" transform="matrix(1 0 0 1 517.792 696)"><path d="M25.889 -23.198 H60.063 V-38.534 H25.889 V-23.198 Z M66.276 -33.405 H68.791 V-47.262 H33.532 V-44.772 H66.276 V-33.405 Z M15.09 -12.398 V-58.062 H79.59 V-12.398 H15.09 Z M16.816 -14.124 H77.864 V-56.336 H16.816 V-14.124 Z"/></g></g></svg>