<svg xmlns="http://www.w3.org/2000/svg" height="48" viewBox="0 -960 960 960" width="48"><path d="M919-480q0 116.5-81.25 197.5T640-201.5q-38 0-73-9.25t-65.5-26.75q57.5-43.5 89.25-107T622.5-480q0-72-31.75-135.5t-89.25-107q30.5-17.5 65.5-27t73-9.5q116.5 0 197.75 81.25T919-480ZM480-260.5q-5 0-9.25-1.25T462-267q-48-41-74.25-95T361.5-480q0-64 26.25-118T462-693q4.5-4 8.75-5.25t9.25-1.25q5 0 9.25 1.25t9.25 5.25q47.5 41 74 95T599-480q0 64-26.5 118t-74 95q-5 4-9.25 5.25T480-260.5ZM41.5-480q0-55.5 20.75-106.5T123-677q55.5-56 131.5-74.5t152 5.5q11.5 4.5 17.25 15t1.25 21.5q-4.5 11.5-14.75 16.75T389-692q-60.5-18.5-120.5-4T164-637q-31 31-48 71.5T99-480q0 44 17 84.5t48 71.5q44.5 44.5 104.5 59.5t120.5-4q11-4 21.5 1.25t15 16.25q4 12-1.25 22.25T407.5-214q-75.5 25-152 6T123-283q-40-40-60.75-90.75T41.5-480Z"/></svg>