<svg xmlns="http://www.w3.org/2000/svg" height="40" viewBox="0 -960 960 960" width="40"><path d="M686.86-103.3 502.95-209.98V-424l183.67-106.83L870.6-424v213.69L686.86-103.3Zm-97.19-304.87 97.19 56.82 97.02-56.82-97.02-55.98-97.19 55.98Zm125.76 220.54 97.61-55.54v-116.56l-97.61 57.64v114.46Zm-154.92-55.74 97.61 57.41v-115.23l-97.61-56.88v114.7ZM399.97-486.76q-68.98 0-114.49-45.51-45.51-45.51-45.51-114.49 0-68.98 45.51-114.48t114.49-45.5q68.98 0 114.6 45.5 45.62 45.5 45.62 114.48t-45.62 114.49q-45.62 45.51-114.6 45.51ZM73.3-152.54v-107.18q0-37.28 19.21-66.97 19.21-29.69 51.21-44.85 65-30 128.81-45.61 63.8-15.61 127.47-15.61h14.05q8.04 0 14.17.67-7.14 15.49-12.53 34.89-5.39 19.41-7.88 40.35h-7.25q-60.82 0-116.47 13.81t-107.01 39.03q-13.68 6.97-20.85 19.32-7.17 12.34-7.17 26.01v30.38h260.62q5.49 21.16 15.53 40.68 10.03 19.53 22.05 35.08H73.3Zm326.66-409.97q36 0 60.16-24.13 24.16-24.13 24.16-60.14 0-36.08-24.13-60.14-24.12-24.07-60.11-24.07-36 0-60.16 24.09-24.16 24.09-24.16 60.04 0 36.05 24.13 60.2 24.12 24.15 60.11 24.15Zm.04-84.28Zm9.68 418.49Z"/></svg>