<svg xmlns="http://www.w3.org/2000/svg" height="24" width="24"><path d="M4.5 14.875q-.3 0-.575-.1-.275-.1-.525-.35L1.225 12.25q-.325-.325-.338-.775-.012-.45.338-.8.325-.325.788-.338.462-.012.787.313l.425.45q-.05-.375-.075-.775-.025-.4-.025-.825 0-1.875.538-3.613Q4.2 4.15 5.25 2.575q.3-.45.838-.538.537-.087.962.338.275.275.3.675.025.4-.2.75-.825 1.275-1.3 2.725-.475 1.45-.475 2.975 0 .45.05.9t.125.9l.65-.625q.325-.325.788-.325.462 0 .787.325t.325.787q0 .463-.325.788L5.6 14.425q-.25.25-.525.35-.275.1-.575.1ZM14.725 22.2 9.7 20.25q-.75-.275-1.187-1.012-.438-.738-.338-1.538.1-.725.637-1.275.538-.55 1.188-.675l1.5-.3-3.15-7.025q-.5-1.1-.063-2.213Q8.725 5.1 9.825 4.6t2.2-.063q1.1.438 1.6 1.538l1.6 3.575.225-.1q.15-.075.325-.088.175-.012.35-.012l4.075.175q.8.05 1.4.537.6.488.8 1.288l1.4 5.325q.225.85-.175 1.638-.4.787-1.2 1.137l-5.85 2.6q-.45.2-.925.225-.475.025-.925-.175Zm.875-2.225 5.85-2.6L20.1 12l-4.625-.175-1.6.7L11.45 7.05q-.1-.2-.287-.275-.188-.075-.388.025t-.275.275q-.075.175.025.375l4.325 9.675-4.25.925Zm0 0Z"/></svg>