<svg xmlns="http://www.w3.org/2000/svg" height="20" width="20"><path d="M3.75 12.292q-.208 0-.427-.094t-.385-.26l-1.834-1.834q-.229-.229-.229-.583t.229-.583q.229-.23.584-.23.354 0 .583.23l.625.645q-.084-.416-.115-.812-.031-.396-.031-.854 0-1.563.448-2.979.448-1.417 1.281-2.667.229-.333.615-.396.385-.063.677.229.208.208.229.479.021.271-.146.521-.729 1.063-1.104 2.271-.375 1.208-.375 2.542 0 .479.042.875.041.396.145.833l.667-.687q.229-.23.583-.23.355 0 .584.23.229.229.229.583t-.229.583l-1.834 1.834q-.166.166-.385.26t-.427.094Zm9 6.375-5.125-1.813q-.687-.25-1.042-.792-.354-.541-.187-1.166.166-.604.594-.938.427-.333 1.135-.437l1.937-.209-3.083-6.958q-.375-.833-.062-1.604.312-.771 1.145-1.146.834-.375 1.605-.073t1.145 1.136l1.792 4.021.417-.188q.312-.167.812-.26.5-.094 1.021-.094l2.563.042q.604 0 1.021.364.416.365.624 1.094L20.292 14q.229.792-.177 1.552-.407.76-1.177 1.115l-4.584 2.021q-.396.145-.771.145t-.833-.166Z"/></svg>