<svg xmlns="http://www.w3.org/2000/svg" height="24" viewBox="0 -960 960 960" width="24"><path d="M128.26-506.48q-3.74-21.35-5.04-42.41-1.31-21.07-1.31-42.41 0-74.57 23.7-144 23.69-69.44 66.26-130.57 9.69-13.83 25.65-15.33 15.96-1.5 27.78 10.33 11.83 11.83 13.11 29.85Q279.7-823 270-808.61q-32.17 49.18-49.96 103.72-17.78 54.54-17.78 113.59 0 22.6 1.87 44.99 1.87 22.4 6.61 44.57l31-30.56q11.82-11.4 28.35-11.61 16.52-.22 28.34 11.61 11.83 11.82 11.55 28.34-.28 16.53-12.11 28.35l-88.17 88.18q-15.96 15.95-37.61 15.95-21.66 0-37.61-15.95l-88.74-88.74Q33.91-488 33.91-504.24q0-16.24 11.83-28.06 11.82-11.83 28.35-11.83 16.52 0 28.34 11.83l25.83 25.82Zm511.09 397.57q-24.13 8.56-49.61 7.78-25.48-.78-48.05-11.78L290.26-234.87q-11.04-5.3-15.63-16.85-4.59-11.54.15-22.58l.87-1.74q12.26-30.18 38.46-48.89 26.19-18.72 58.37-19.59l57.82-2.18-110.87-304.73Q312.3-669.7 321-687.3q8.69-17.61 26.96-24.74 18.26-7.13 35.87 1.56 17.6 8.7 24.73 26.96L540.83-320.3q7.56 21.26-5.42 40.3-12.98 19.04-35.8 19.35l-43.05.74 125.35 60.43q5.87 2.44 12.46 2.94 6.59.5 12.45-1.5L810.18-272q28.17-10.44 41.04-37.83 12.87-27.39 2.43-55.56L793-531.78q-7.13-18.26 1.57-35.87 8.69-17.61 26.95-24.74 18.26-7.13 35.59 1.56 17.33 8.7 24.46 26.96l61.21 166.39q24.13 65.83-5.06 128.15-29.2 62.33-95.02 86.46l-203.35 73.96ZM527.26-613.22q18.26-7.13 35.87 1.57 17.61 8.69 24.74 26.95l43.26 117.66q7.13 18.82-1.28 36.37-8.42 17.54-27.24 24.67-18.83 7.13-36.37-1.57-17.54-8.69-24.68-26.95l-42.82-118.09q-7.13-18.26 1.56-35.87 8.7-17.61 26.96-24.74Zm140.13-8.09q18.26-7.13 35.87 1.29 17.61 8.41 24.74 26.67l29.26 80.65q7.13 18.83-1.06 36.16-8.2 17.32-27.03 24.45-18.82 7.13-36.37-1.56-17.54-8.7-24.67-26.96l-29.26-80.09q-7.13-18.26 1.56-35.87 8.7-17.61 26.96-24.74Zm3.13 262.92Z"/></svg>