<svg xmlns="http://www.w3.org/2000/svg" height="48" viewBox="0 -960 960 960" width="48"><path d="M356.89-307.37v-212.48h-52.8v-50.19h104.95v262.67h-52.15Zm105.15 0v-262.67h175.55v262.67H462.04Zm52.39-51.2h71v-161.28h-71v161.28ZM480.08-72.83q-76.28 0-142.95-28.42-66.67-28.43-116.58-78.34-49.91-49.9-78.34-116.52-28.43-66.61-28.43-142.88 0-76.38 28.48-143.01t78.32-116.47q49.83-49.83 116.55-78.31 66.72-28.48 143.11-28.48h21l-76.33-76.33 42.92-43.15L619.37-773.2 467.83-621.41l-42.92-42.92 72.57-72.56h-17.24q-124.28 0-211.31 86.78-87.02 86.79-87.02 210.95 0 124.16 86.93 211.06t211.12 86.9q124.18 0 211.15-86.78 86.98-86.78 86.98-211.06h68.13q0 76.43-28.42 143-28.42 66.58-78.32 116.42-49.89 49.84-116.51 78.32-66.61 28.47-142.89 28.47Z"/></svg>