<svg xmlns="http://www.w3.org/2000/svg" height="48" viewBox="0 -960 960 960" width="48"><path d="M469.39-619.72v-122h-123v-57.5h123v-122h57.5v122h122v57.5h-122v122h-57.5ZM291.37-78.78q-29.13 0-49.75-20.75T221-149.41q0-29.13 20.75-49.75 20.74-20.62 49.88-20.62 29.13 0 49.75 20.74Q362-178.29 362-149.15q0 29.13-20.75 49.75-20.74 20.62-49.88 20.62Zm400 0q-29.13 0-49.75-20.75T621-149.41q0-29.13 20.75-49.75 20.74-20.62 49.88-20.62 29.13 0 49.75 20.74Q762-178.29 762-149.15q0 29.13-20.75 49.75-20.74 20.62-49.88 20.62Zm-630.59-734v-69.94h124.24L350.12-529h283.52l155.4-270.22h79.26L707.04-497.89q-11.63 19.63-30.35 32.26Q657.96-453 635.31-453H339.35l-52.55 98.78h481.42v69.94H286.13q-40.71 0-61.59-32.36-20.89-32.36-3.19-65.75l62.3-114.12L140.1-812.78H60.78Z"/></svg>