<svg xmlns="http://www.w3.org/2000/svg" height="40" viewBox="0 96 960 960" width="40"><path d="M316.591 670.082q0 10.554 9.885 14.453 9.884 3.9 17.339-3.555l83.172-83.173q9.244-9.243 9.244-21.807 0-12.564-9.359-21.923l-83.067-83.067q-7.445-7.445-17.329-3.641-9.885 3.803-9.885 14.504v188.209ZM202.565 915.999q-25.609 0-44.086-18.478-18.478-18.477-18.478-44.086v-554.87q0-25.609 18.478-44.086 18.477-18.478 44.086-18.478h554.87q25.609 0 44.086 18.478 18.478 18.477 18.478 44.086v554.87q0 25.609-18.478 44.086-18.477 18.478-44.086 18.478h-554.87Zm383.795-50.255V286.256H202.565q-4.616 0-8.462 3.847-3.847 3.846-3.847 8.462v554.87q0 4.616 3.847 8.462 3.846 3.847 8.462 3.847H586.36Z"/></svg>