<svg xmlns="http://www.w3.org/2000/svg" height="20" width="20"><path d="M9.458 11.542V13q0 .229.157.385.156.157.385.157t.396-.157q.166-.156.166-.385v-1.458H12q.229 0 .396-.157.166-.156.166-.385t-.166-.396q-.167-.166-.396-.166h-1.438V9q0-.229-.166-.396-.167-.166-.396-.166t-.385.166q-.157.167-.157.396v1.438H8q-.229 0-.385.166-.157.167-.157.396t.157.385q.156.157.385.157Zm-3.396 4.5q-.458 0-.781-.323t-.323-.781V8.521q0-.271.104-.5.105-.229.334-.396l3.937-2.979q.334-.208.667-.208t.667.208l3.937 2.979q.229.167.334.396.104.229.104.5v6.417q0 .458-.323.781t-.781.323Z"/></svg>