<svg xmlns="http://www.w3.org/2000/svg" height="40" width="40"><path d="M13.25 28.458H21.708Q22.333 28.458 22.792 28Q23.25 27.542 23.25 26.875Q23.25 26.25 22.792 25.792Q22.333 25.333 21.708 25.333H13.25Q12.625 25.333 12.167 25.792Q11.708 26.25 11.708 26.917Q11.708 27.583 12.167 28.021Q12.625 28.458 13.25 28.458ZM13.25 21.625H26.75Q27.375 21.625 27.833 21.167Q28.292 20.708 28.292 20.083Q28.292 19.417 27.833 18.958Q27.375 18.5 26.75 18.5H13.25Q12.625 18.5 12.167 18.979Q11.708 19.458 11.708 20.083Q11.708 20.708 12.167 21.167Q12.625 21.625 13.25 21.625ZM13.25 14.792H26.75Q27.375 14.792 27.833 14.354Q28.292 13.917 28.292 13.25Q28.292 12.583 27.833 12.125Q27.375 11.667 26.75 11.667H13.25Q12.625 11.667 12.167 12.125Q11.708 12.583 11.708 13.25Q11.708 13.917 12.167 14.354Q12.625 14.792 13.25 14.792ZM7.958 36.167Q6.25 36.167 5.083 34.979Q3.917 33.792 3.917 32.125V8Q3.917 6.333 5.083 5.167Q6.25 4 7.958 4H14.5Q15.375 2.5 16.812 1.562Q18.25 0.625 20.042 0.625Q21.792 0.625 23.229 1.562Q24.667 2.5 25.5 4H32.042Q33.75 4 34.917 5.167Q36.083 6.333 36.083 8V32.125Q36.083 33.792 34.917 34.979Q33.75 36.167 32.042 36.167ZM20 7.042Q20.667 7.042 21.104 6.583Q21.542 6.125 21.542 5.5Q21.542 4.833 21.104 4.396Q20.667 3.958 20 3.958Q19.333 3.958 18.896 4.396Q18.458 4.833 18.458 5.5Q18.458 6.125 18.896 6.583Q19.333 7.042 20 7.042Z"/></svg>