<svg xmlns="http://www.w3.org/2000/svg" version="1.1" width="3300" height="2000"><g id="Notes"><style>
    text {
      font-family: monospace;
      text-anchor: middle;
    }
    text.emphasis {
      font-weight:bold;
    }
    text.lanchor {
      text-anchor: start;
    }
  </style><rect height="2200" id="artboard" fill="white" width="3300" x="0" y="0"/><line id="" style="fill:none;stroke:black;stroke-width:0.5;" x1="263" x2="3036" y1="292" y2="292"/><text class="lanchor emphasis" transform="matrix(1 0 0 1 263 322)">Weight/Scale Variations</text><text transform="matrix(1 0 0 1 559.711 322)">Ultralight</text><text transform="matrix(1 0 0 1 856.422 322)">Thin</text><text transform="matrix(1 0 0 1 1153.13 322)">Light</text><text transform="matrix(1 0 0 1 1449.84 322)">Regular</text><text transform="matrix(1 0 0 1 1746.56 322)">Medium</text><text transform="matrix(1 0 0 1 2043.27 322)">Semibold</text><text transform="matrix(1 0 0 1 2339.98 322)">Bold</text><text transform="matrix(1 0 0 1 2636.69 322)">Heavy</text><text transform="matrix(1 0 0 1 2933.4 322)">Black</text><text id="template-version" style="text-anchor: end;" transform="matrix(1 0 0 1 3036 1933)">Template v.1.0</text><text class="lanchor" transform="matrix(1 0 0 1 263 726)">Small</text><text class="lanchor" transform="matrix(1 0 0 1 263 1156)">Medium</text><text class="lanchor" transform="matrix(1 0 0 1 263 1586)">Large</text></g><g id="Guides"><g id="H-reference" style="fill:#27AAE1;stroke:none;" transform="matrix(1 0 0 1 339 696)"><path d="M 54.9316 0 L 57.666 0 L 30.5664 -70.459 L 28.0762 -70.459 L 0.976562 0 L 3.66211 0 L 12.9395 -24.4629 L 45.7031 -24.4629 Z M 29.1992 -67.0898 L 29.4434 -67.0898 L 44.8242 -26.709 L 13.8184 -26.709 Z"/></g><line id="Baseline-S" style="fill:none;stroke:#27AAE1;opacity:1;stroke-width:0.577;" x1="263" x2="3036" y1="696" y2="696"/><line id="Capline-S" style="fill:none;stroke:#27AAE1;opacity:1;stroke-width:0.577;" x1="263" x2="3036" y1="625.541" y2="625.541"/><g id="H-reference" style="fill:#27AAE1;stroke:none;" transform="matrix(1 0 0 1 339 1126)"><path d="M 54.9316 0 L 57.666 0 L 30.5664 -70.459 L 28.0762 -70.459 L 0.976562 0 L 3.66211 0 L 12.9395 -24.4629 L 45.7031 -24.4629 Z M 29.1992 -67.0898 L 29.4434 -67.0898 L 44.8242 -26.709 L 13.8184 -26.709 Z"/></g><line id="Baseline-M" style="fill:none;stroke:#27AAE1;opacity:1;stroke-width:0.577;" x1="263" x2="3036" y1="1126" y2="1126"/><line id="Capline-M" style="fill:none;stroke:#27AAE1;opacity:1;stroke-width:0.577;" x1="263" x2="3036" y1="1055.54" y2="1055.54"/><g id="H-reference" style="fill:#27AAE1;stroke:none;" transform="matrix(1 0 0 1 339 1556)"><path d="M 54.9316 0 L 57.666 0 L 30.5664 -70.459 L 28.0762 -70.459 L 0.976562 0 L 3.66211 0 L 12.9395 -24.4629 L 45.7031 -24.4629 Z M 29.1992 -67.0898 L 29.4434 -67.0898 L 44.8242 -26.709 L 13.8184 -26.709 Z"/></g><line id="Baseline-L" style="fill:none;stroke:#27AAE1;opacity:1;stroke-width:0.577;" x1="263" x2="3036" y1="1556" y2="1556"/><line id="Capline-L" style="fill:none;stroke:#27AAE1;opacity:1;stroke-width:0.577;" x1="263" x2="3036" y1="1485.54" y2="1485.54"/><rect height="119.336" id="left-margin" style="fill:darkred;stroke:none;opacity:0.4;" width="12.4512" x="1394.06" y="1030.79"/><rect height="119.336" id="right-margin" style="fill:darkgreen;stroke:none;opacity:0.4;" width="12.4512" x="1502.5112" y="1030.79"/><rect x="1406.5112" y="1045" width="96" height="96" fill="none" stroke="blue" stroke-dasharray="5"/><rect x="1394.06" y="1030.79" width="120.9024" height="119.336" fill="none" stroke="blue"/></g><g id="Symbols"><g id="Bold-L" transform="matrix(1 0 0 1 2266 1556)"><path d="M77.4 32.656 Q53.396 26.527 37.945 5.123 Q22.494 -16.282 22.494 -41.961 V-82.61 L77.4 -103.116 L132.467 -82.557 V-43.131 H117.551 V-4.351 L97.556 -23.701 Q99.33 -26.039 100.136 -29.236 Q100.943 -32.432 100.943 -35.593 Q100.943 -45.469 94.109 -52.363 Q87.275 -59.256 77.4 -59.256 Q67.525 -59.256 60.691 -52.363 Q53.858 -45.469 53.858 -35.593 Q53.858 -25.716 60.696 -18.944 Q67.535 -12.171 77.447 -12.171 Q80.752 -12.171 83.94 -13.139 Q87.127 -14.106 90.05 -15.557 L115.133 8.953 Q108.924 16.854 97.919 23.667 Q86.914 30.479 77.4 32.656 Z M77.444 -23.217 Q82.56 -23.217 86.228 -26.832 Q89.897 -30.449 89.897 -35.62 Q89.897 -40.793 86.185 -44.502 Q82.471 -48.211 77.356 -48.211 Q72.24 -48.211 68.572 -44.497 Q64.903 -40.783 64.903 -35.588 Q64.903 -30.392 68.615 -26.805 Q72.329 -23.217 77.444 -23.217 Z M137.746 32.495 Q134.644 32.495 132.507 30.329 Q130.371 28.165 130.371 25.089 Q130.371 22.014 132.536 19.877 Q134.7 17.741 137.762 17.741 Q140.823 17.741 143.055 19.911 Q145.286 22.083 145.286 25.107 Q145.286 28.222 143.021 30.358 Q140.755 32.495 137.746 32.495 Z M130.371 10.888 V-33.859 H145.286 V10.888 H130.371 Z"/></g><g id="Semibold-L" transform="matrix(1 0 0 1 1970.27 1556)"><path d="M77.4 30.834 Q54.151 24.902 39.2 3.994 Q24.247 -16.912 24.247 -41.983 V-81.386 L77.4 -101.294 L130.645 -81.365 V-42.501 H118.182 V-3.159 L97.276 -23.351 Q99.154 -25.829 100.049 -29.096 Q100.943 -32.363 100.943 -35.593 Q100.943 -45.469 94.109 -52.363 Q87.275 -59.256 77.4 -59.256 Q67.525 -59.256 60.691 -52.363 Q53.858 -45.469 53.858 -35.593 Q53.858 -25.716 60.696 -18.944 Q67.535 -12.171 77.447 -12.171 Q80.823 -12.171 84.081 -13.208 Q87.338 -14.247 90.331 -15.838 L114.15 7.411 Q107.662 15.382 97.463 21.914 Q87.264 28.446 77.4 30.834 Z M77.435 -22.446 Q82.91 -22.446 86.79 -26.263 Q90.668 -30.08 90.668 -35.612 Q90.668 -41.143 86.754 -45.063 Q82.841 -48.981 77.365 -48.981 Q71.89 -48.981 68.01 -45.068 Q64.132 -41.153 64.132 -35.598 Q64.132 -30.043 68.046 -26.244 Q71.959 -22.446 77.435 -22.446 Z M137.191 30.742 Q134.574 30.742 132.788 28.928 Q131.001 27.114 131.001 24.529 Q131.001 21.944 132.815 20.158 Q134.631 18.371 137.208 18.371 Q139.784 18.371 141.624 20.192 Q143.464 22.012 143.464 24.545 Q143.464 27.171 141.59 28.956 Q139.715 30.742 137.191 30.742 Z M131.001 10.467 V-33.229 H143.464 V10.467 H131.001 Z"/></g><g id="Medium-L" transform="matrix(1 0 0 1 1674.31 1556)"><path d="M77.4 29.467 Q54.717 23.683 40.14 3.149 Q25.561 -17.386 25.561 -41.999 V-80.469 L77.4 -99.927 L129.277 -80.472 V-42.027 H118.656 V-2.266 L97.066 -23.088 Q99.024 -25.671 99.983 -28.99 Q100.943 -32.31 100.943 -35.593 Q100.943 -45.469 94.109 -52.363 Q87.275 -59.256 77.4 -59.256 Q67.525 -59.256 60.691 -52.363 Q53.858 -45.469 53.858 -35.593 Q53.858 -25.716 60.696 -18.944 Q67.535 -12.171 77.447 -12.171 Q80.875 -12.171 84.185 -13.261 Q87.494 -14.351 90.542 -16.048 L113.415 6.253 Q106.715 14.277 97.121 20.6 Q87.526 26.921 77.4 29.467 Z M77.427 -21.867 Q83.173 -21.867 87.21 -25.836 Q91.247 -29.802 91.247 -35.604 Q91.247 -41.406 87.181 -45.484 Q83.118 -49.56 77.373 -49.56 Q71.627 -49.56 67.59 -45.495 Q63.553 -41.43 63.553 -35.604 Q63.553 -29.78 67.619 -25.823 Q71.682 -21.867 77.427 -21.867 Z M136.775 29.428 Q134.521 29.428 132.997 27.877 Q131.475 26.326 131.475 24.108 Q131.475 21.891 133.026 20.367 Q134.578 18.845 136.792 18.845 Q139.006 18.845 140.55 20.403 Q142.097 21.961 142.097 24.125 Q142.097 26.382 140.516 27.904 Q138.936 29.428 136.775 29.428 Z M131.475 10.151 V-32.755 H142.097 V10.151 H131.475 Z"/></g><g id="Regular-L" transform="matrix(1 0 0 1 1378.56 1556)"><path d="M77.4 28.464 Q55.133 22.788 40.828 2.528 Q26.526 -17.733 26.526 -42.012 V-79.795 L77.4 -98.924 L128.274 -79.816 V-41.68 H119.002 V-1.609 L96.911 -22.894 Q98.927 -25.555 99.935 -28.914 Q100.943 -32.271 100.943 -35.593 Q100.943 -45.469 94.109 -52.363 Q87.275 -59.256 77.4 -59.256 Q67.525 -59.256 60.691 -52.363 Q53.858 -45.469 53.858 -35.593 Q53.858 -25.716 60.696 -18.944 Q67.535 -12.171 77.447 -12.171 Q80.914 -12.171 84.263 -13.3 Q87.61 -14.429 90.695 -16.202 L112.875 5.405 Q106.022 13.468 96.871 19.635 Q87.72 25.803 77.4 28.464 Z M77.423 -21.443 Q83.366 -21.443 87.518 -25.521 Q91.671 -29.599 91.671 -35.599 Q91.671 -41.599 87.496 -45.792 Q83.321 -49.984 77.377 -49.984 Q71.434 -49.984 67.282 -45.808 Q63.129 -41.633 63.129 -35.609 Q63.129 -29.586 67.304 -25.515 Q71.479 -21.443 77.423 -21.443 Z M136.469 28.464 Q134.483 28.464 133.152 27.104 Q131.822 25.747 131.822 23.799 Q131.822 21.853 133.181 20.522 Q134.539 19.192 136.487 19.192 Q138.433 19.192 139.763 20.556 Q141.094 21.922 141.094 23.817 Q141.094 25.803 139.73 27.133 Q138.364 28.464 136.469 28.464 Z M131.822 9.92 V-32.408 H141.094 V9.92 H131.822 Z"/></g><g id="Light-L" transform="matrix(1 0 0 1 1082.77 1556)"><path d="M77.4 25.424 Q56.562 19.664 43.017 0.626 Q29.472 -18.415 29.472 -41.769 V-77.771 L77.4 -95.76 L125.328 -77.8 V-42.672 H115.963 V-3.004 L94.617 -23.731 Q96.384 -26.268 97.392 -29.286 Q98.4 -32.305 98.4 -35.532 Q98.4 -44.278 92.316 -50.434 Q86.233 -56.589 77.413 -56.589 Q68.593 -56.589 62.497 -50.434 Q56.4 -44.278 56.4 -35.499 Q56.4 -26.722 62.492 -20.656 Q68.583 -14.59 77.447 -14.59 Q80.76 -14.59 83.894 -15.688 Q87.027 -16.786 89.874 -18.621 L111.263 2.365 Q104.906 10.397 96.095 16.534 Q87.286 22.672 77.4 25.424 Z M77.423 -21.661 Q83.211 -21.661 87.27 -25.647 Q91.329 -29.635 91.329 -35.538 Q91.329 -41.32 87.248 -45.419 Q83.166 -49.52 77.377 -49.52 Q71.589 -49.52 67.53 -45.437 Q63.471 -41.354 63.471 -35.548 Q63.471 -29.622 67.552 -25.64 Q71.634 -21.661 77.423 -21.661 Z M133.923 25.548 Q132.373 25.548 131.369 24.513 Q130.364 23.476 130.364 21.982 Q130.364 20.488 131.401 19.484 Q132.436 18.479 133.931 18.479 Q135.424 18.479 136.43 19.522 Q137.435 20.567 137.435 21.99 Q137.435 23.539 136.39 24.544 Q135.345 25.548 133.923 25.548 Z M130.364 6.943 V-31.136 H137.435 V6.943 H130.364 Z"/></g><g id="Thin-L" transform="matrix(1 0 0 1 787.282 1556)"><path d="M77.4 22.386 Q57.992 16.541 45.205 -1.279 Q32.418 -19.097 32.418 -41.524 V-75.747 L77.4 -92.598 L122.382 -75.784 V-43.665 H112.925 V-4.401 L92.322 -24.568 Q93.841 -26.982 94.849 -29.66 Q95.857 -32.339 95.857 -35.469 Q95.857 -43.086 90.524 -48.504 Q85.192 -53.922 77.426 -53.922 Q69.66 -53.922 64.302 -48.504 Q58.943 -43.086 58.943 -35.407 Q58.943 -27.727 64.287 -22.369 Q69.633 -17.009 77.447 -17.009 Q80.607 -17.009 83.526 -18.076 Q86.445 -19.142 89.055 -21.04 L109.65 -0.673 Q103.789 7.327 95.32 13.434 Q86.852 19.539 77.4 22.386 Z M77.423 -21.877 Q83.057 -21.877 87.022 -25.773 Q90.989 -29.67 90.989 -35.475 Q90.989 -41.041 86.999 -45.047 Q83.01 -49.054 77.377 -49.054 Q71.743 -49.054 67.778 -45.065 Q63.811 -41.075 63.811 -35.485 Q63.811 -29.656 67.801 -25.766 Q71.79 -21.877 77.423 -21.877 Z M131.378 22.635 Q130.266 22.635 129.585 21.92 Q128.906 21.206 128.906 20.164 Q128.906 19.124 129.621 18.445 Q130.335 17.765 131.377 17.765 Q132.417 17.765 133.096 18.49 Q133.776 19.214 133.776 20.163 Q133.776 21.275 133.051 21.954 Q132.327 22.635 131.378 22.635 Z M128.906 3.967 V-29.865 H133.776 V3.967 H128.906 Z"/></g><g id="Ultralight-L" transform="matrix(1 0 0 1 491.205 1556)"><path d="M77.4 20.563 Q58.848 14.666 46.517 -2.42 Q34.185 -19.507 34.185 -41.377 V-74.533 L77.4 -90.7 L120.615 -74.575 V-44.26 H111.101 V-5.237 L90.945 -25.071 Q92.316 -27.409 93.323 -29.885 Q94.331 -32.358 94.331 -35.432 Q94.331 -42.372 89.449 -47.346 Q84.568 -52.322 77.434 -52.322 Q70.302 -52.322 65.385 -47.346 Q60.469 -42.372 60.469 -35.351 Q60.469 -28.33 65.366 -23.396 Q70.261 -18.46 77.447 -18.46 Q80.515 -18.46 83.305 -19.508 Q86.095 -20.556 88.562 -22.491 L108.683 -2.496 Q103.119 5.486 94.855 11.573 Q86.591 17.66 77.4 20.563 Z M77.423 -22.007 Q82.963 -22.007 86.873 -25.848 Q90.784 -29.691 90.784 -35.438 Q90.784 -40.874 86.851 -44.824 Q82.918 -48.775 77.377 -48.775 Q71.837 -48.775 67.927 -44.84 Q64.016 -40.908 64.016 -35.448 Q64.016 -29.677 67.949 -25.842 Q71.882 -22.007 77.423 -22.007 Z M129.85 20.885 Q129 20.885 128.516 20.364 Q128.032 19.843 128.032 19.074 Q128.032 18.305 128.553 17.821 Q129.074 17.338 129.843 17.338 Q130.613 17.338 131.096 17.87 Q131.58 18.403 131.58 19.068 Q131.58 19.918 131.048 20.401 Q130.514 20.885 129.85 20.885 Z M128.032 2.18 V-29.102 H131.58 V2.18 H128.032 Z"/></g><g id="Bold-M" transform="matrix(1 0 0 1 2281.8 1126)"><path d="M60 17.895 Q41.267 13.269 29.071 -3.186 Q16.875 -19.64 16.875 -39.73 V-72.287 L60 -88.355 L103.125 -72.23 V-46.73 H88 V-15.105 L77.125 -26.105 Q78.25 -28.105 78.75 -30.48 Q79.25 -32.855 79.25 -35.261 Q79.25 -43.23 73.625 -48.855 Q68 -54.48 60 -54.48 Q52 -54.48 46.375 -48.855 Q40.75 -43.23 40.75 -35.23 Q40.75 -27.23 46.375 -21.605 Q52 -15.98 60.024 -15.98 Q62.453 -15.98 64.694 -16.48 Q66.936 -16.98 69 -18.105 L87.75 0.645 Q83.438 6.77 75.156 11.52 Q66.875 16.27 60 17.895 Z M60.009 -27.23 Q63.312 -27.23 65.656 -29.582 Q68 -31.935 68 -35.239 Q68 -38.542 65.647 -40.886 Q63.295 -43.23 59.991 -43.23 Q56.688 -43.23 54.344 -40.877 Q52 -38.525 52 -35.221 Q52 -31.917 54.352 -29.574 Q56.705 -27.23 60.009 -27.23 Z M105.438 17.77 Q102.375 17.77 100.125 15.52 Q97.875 13.27 97.875 10.208 Q97.875 7.145 100.125 4.895 Q102.375 2.645 105.438 2.645 Q108.5 2.645 110.75 4.895 Q113 7.145 113 10.208 Q113 13.27 110.75 15.52 Q108.5 17.77 105.438 17.77 Z M97.875 -4.23 V-37.355 H113 V-4.23 H97.875 Z"/></g><g id="Semibold-M" transform="matrix(1 0 0 1 1985.97 1126)"><path d="M60 15.993 Q42.07 11.52 30.396 -4.392 Q18.723 -20.304 18.723 -39.73 V-71.012 L60 -86.452 L101.278 -70.98 V-46.077 H88.653 V-13.91 L76.854 -25.779 Q78.088 -27.887 78.669 -30.317 Q79.25 -32.746 79.25 -35.261 Q79.25 -43.23 73.625 -48.855 Q68 -54.48 60 -54.48 Q52 -54.48 46.375 -48.855 Q40.75 -43.23 40.75 -35.23 Q40.75 -27.23 46.375 -21.605 Q52 -15.98 60.024 -15.98 Q62.506 -15.98 64.858 -16.561 Q67.209 -17.142 69.326 -18.376 L86.771 -0.931 Q82.134 5.194 74.694 9.7 Q67.255 14.205 60 15.993 Z M60.001 -26.415 Q63.639 -26.415 66.226 -29.005 Q68.815 -31.595 68.815 -35.231 Q68.815 -38.869 66.225 -41.456 Q63.635 -44.045 59.999 -44.045 Q56.361 -44.045 53.774 -41.455 Q51.185 -38.865 51.185 -35.229 Q51.185 -31.591 53.775 -29.004 Q56.365 -26.415 60.001 -26.415 Z M104.84 15.923 Q102.266 15.923 100.396 14.053 Q98.528 12.183 98.528 9.61 Q98.528 7.036 100.396 5.166 Q102.266 3.298 104.84 3.298 Q107.412 3.298 109.282 5.166 Q111.153 7.036 111.153 9.61 Q111.153 12.183 109.282 14.053 Q107.412 15.923 104.84 15.923 Z M98.528 -4.665 V-36.702 H111.153 V-4.665 H98.528 Z"/></g><g id="Medium-M" transform="matrix(1 0 0 1 1689.91 1126)"><path d="M60 14.566 Q42.672 10.208 31.39 -5.296 Q20.109 -20.801 20.109 -39.73 V-70.056 L60 -85.026 L99.891 -70.042 V-45.589 H89.141 V-13.012 L76.65 -25.534 Q77.965 -27.725 78.608 -30.195 Q79.25 -32.665 79.25 -35.261 Q79.25 -43.23 73.625 -48.855 Q68 -54.48 60 -54.48 Q52 -54.48 46.375 -48.855 Q40.75 -43.23 40.75 -35.23 Q40.75 -27.23 46.375 -21.605 Q52 -15.98 60.024 -15.98 Q62.547 -15.98 64.98 -16.622 Q67.412 -17.265 69.571 -18.58 L86.037 -2.114 Q81.155 4.011 74.347 8.334 Q67.541 12.656 60 14.566 Z M59.996 -25.804 Q63.884 -25.804 66.655 -28.571 Q69.426 -31.339 69.426 -35.226 Q69.426 -39.114 66.659 -41.885 Q63.891 -44.656 60.004 -44.656 Q56.116 -44.656 53.345 -41.889 Q50.574 -39.121 50.574 -35.234 Q50.574 -31.346 53.341 -28.575 Q56.109 -25.804 59.996 -25.804 Z M104.391 14.536 Q102.185 14.536 100.6 12.953 Q99.016 11.368 99.016 9.161 Q99.016 6.955 100.6 5.37 Q102.185 3.786 104.391 3.786 Q106.597 3.786 108.183 5.37 Q109.766 6.955 109.766 9.161 Q109.766 11.368 108.183 12.953 Q106.597 14.536 104.391 14.536 Z M99.016 -4.991 V-36.214 H109.766 V-4.991 H99.016 Z"/></g><g id="Regular-M" transform="matrix(1 0 0 1 1394.06 1126)"><path d="M60 13.52 Q43.114 9.245 32.119 -5.96 Q21.125 -21.166 21.125 -39.73 V-69.355 L60 -83.98 L98.875 -69.355 V-45.23 H89.5 V-12.355 L76.5 -25.355 Q77.875 -27.605 78.562 -30.105 Q79.25 -32.605 79.25 -35.261 Q79.25 -43.23 73.625 -48.855 Q68 -54.48 60 -54.48 Q52 -54.48 46.375 -48.855 Q40.75 -43.23 40.75 -35.23 Q40.75 -27.23 46.375 -21.605 Q52 -15.98 60.024 -15.98 Q62.578 -15.98 65.069 -16.667 Q67.561 -17.355 69.75 -18.73 L85.5 -2.98 Q80.438 3.145 74.094 7.333 Q67.75 11.52 60 13.52 Z M59.992 -25.355 Q64.062 -25.355 66.969 -28.254 Q69.875 -31.152 69.875 -35.222 Q69.875 -39.292 66.976 -42.199 Q64.078 -45.105 60.008 -45.105 Q55.938 -45.105 53.031 -42.206 Q50.125 -39.307 50.125 -35.237 Q50.125 -31.167 53.024 -28.261 Q55.922 -25.355 59.992 -25.355 Z M104.062 13.52 Q102.125 13.52 100.75 12.145 Q99.375 10.77 99.375 8.833 Q99.375 6.895 100.75 5.52 Q102.125 4.145 104.062 4.145 Q106 4.145 107.375 5.52 Q108.75 6.895 108.75 8.833 Q108.75 10.77 107.375 12.145 Q106 13.52 104.062 13.52 Z M99.375 -5.23 V-35.855 H108.75 V-5.23 H99.375 Z"/></g><g id="Light-M" transform="matrix(1 0 0 1 1098.18 1126)"><path d="M60 11.164 Q44.174 6.824 33.791 -7.556 Q23.409 -21.935 23.409 -39.732 V-67.786 L60 -81.527 L96.591 -67.792 V-44.652 H87.817 V-12.571 L74.24 -26.149 Q75.519 -28.206 76.206 -30.49 Q76.894 -32.775 76.894 -35.261 Q76.894 -42.259 71.961 -47.191 Q67.029 -52.124 60 -52.124 Q52.971 -52.124 48.039 -47.191 Q43.106 -42.259 43.106 -35.23 Q43.106 -28.201 48.039 -23.269 Q52.971 -18.336 60.024 -18.336 Q62.49 -18.336 64.849 -19.047 Q67.206 -19.759 69.21 -21.182 L84.731 -5.672 Q80.101 0.476 73.734 4.784 Q67.365 9.093 60 11.164 Z M59.992 -25.331 Q64.086 -25.331 66.993 -28.23 Q69.899 -31.127 69.899 -35.222 Q69.899 -39.316 67 -42.222 Q64.103 -45.129 60.008 -45.129 Q55.914 -45.129 53.008 -42.23 Q50.101 -39.332 50.101 -35.237 Q50.101 -31.144 53 -28.237 Q55.898 -25.331 59.992 -25.331 Z M102.426 11.26 Q100.971 11.26 99.945 10.233 Q98.919 9.204 98.919 7.761 Q98.919 6.318 99.946 5.291 Q100.975 4.265 102.418 4.265 Q103.86 4.265 104.886 5.295 Q105.914 6.325 105.914 7.753 Q105.914 9.208 104.884 10.234 Q103.854 11.26 102.426 11.26 Z M98.919 -6.191 V-34.196 H105.914 V-6.191 H98.919 Z"/></g><g id="Thin-M" transform="matrix(1 0 0 1 802.565 1126)"><path d="M60 8.809 Q45.234 4.403 35.462 -9.151 Q25.692 -22.704 25.692 -39.736 V-66.217 L60 -79.076 L94.308 -66.23 V-44.076 H86.135 V-12.787 L71.981 -26.941 Q73.164 -28.807 73.851 -30.876 Q74.539 -32.945 74.539 -35.261 Q74.539 -41.286 70.297 -45.527 Q66.056 -49.769 60 -49.769 Q53.944 -49.769 49.703 -45.527 Q45.461 -41.286 45.461 -35.23 Q45.461 -29.174 49.703 -24.932 Q53.944 -20.691 60.024 -20.691 Q62.404 -20.691 64.627 -21.427 Q66.85 -22.162 68.67 -23.634 L83.961 -8.365 Q79.765 -2.191 73.373 2.236 Q66.981 6.664 60 8.809 Z M59.992 -25.307 Q64.11 -25.307 67.016 -28.205 Q69.922 -31.104 69.922 -35.222 Q69.922 -39.34 67.025 -42.246 Q64.126 -45.152 60.008 -45.152 Q55.89 -45.152 52.984 -42.255 Q50.078 -39.356 50.078 -35.237 Q50.078 -31.12 52.975 -28.214 Q55.874 -25.307 59.992 -25.307 Z M100.79 9.001 Q99.817 9.001 99.14 8.32 Q98.461 7.639 98.461 6.69 Q98.461 5.741 99.142 5.064 Q99.824 4.385 100.772 4.385 Q101.721 4.385 102.399 5.07 Q103.078 5.755 103.078 6.673 Q103.078 7.645 102.392 8.323 Q101.707 9.001 100.79 9.001 Z M98.461 -7.152 V-32.537 H103.078 V-7.152 H98.461 Z"/></g><g id="Ultralight-M" transform="matrix(1 0 0 1 506.415 1126)"><path d="M60 7.395 Q45.869 2.949 36.466 -10.109 Q27.062 -23.166 27.062 -39.737 V-65.276 L60 -77.605 L92.938 -65.292 V-43.73 H85.125 V-12.917 L70.625 -27.417 Q71.75 -29.167 72.438 -31.107 Q73.125 -33.047 73.125 -35.261 Q73.125 -40.704 69.299 -44.529 Q65.474 -48.355 60 -48.355 Q54.526 -48.355 50.701 -44.529 Q46.875 -40.704 46.875 -35.23 Q46.875 -29.756 50.701 -25.931 Q54.526 -22.105 60.024 -22.105 Q62.352 -22.105 64.494 -22.855 Q66.636 -23.605 68.346 -25.105 L83.5 -9.98 Q79.562 -3.792 73.156 0.708 Q66.75 5.208 60 7.395 Z M59.992 -25.292 Q64.125 -25.292 67.031 -28.191 Q69.938 -31.09 69.938 -35.222 Q69.938 -39.355 67.039 -42.261 Q64.14 -45.167 60.008 -45.167 Q55.875 -45.167 52.969 -42.269 Q50.062 -39.37 50.062 -35.237 Q50.062 -31.105 52.961 -28.199 Q55.86 -25.292 59.992 -25.292 Z M99.808 7.645 Q99.125 7.645 98.656 7.171 Q98.188 6.699 98.188 6.046 Q98.188 5.395 98.661 4.926 Q99.134 4.458 99.786 4.458 Q100.438 4.458 100.906 4.935 Q101.375 5.414 101.375 6.025 Q101.375 6.708 100.897 7.176 Q100.419 7.645 99.808 7.645 Z M98.188 -7.73 V-31.542 H101.375 V-7.73 H98.188 Z"/></g><g id="Bold-S" transform="matrix(1 0 0 1 2294.23 696)"><path d="M47.34 5.108 Q32.856 1.162 24.663 -11.575 Q16.47 -24.31 16.47 -38.682 V-62.89 L47.34 -75.568 L78.21 -62.845 V-38.78 H67.065 V-21.225 L59.471 -28.918 Q60.26 -30.29 60.605 -31.942 Q60.95 -33.594 60.95 -35.255 Q60.95 -40.95 57.005 -44.895 Q53.06 -48.84 47.34 -48.84 Q41.62 -48.84 37.675 -44.895 Q33.73 -40.95 33.73 -35.23 Q33.73 -29.51 37.675 -25.565 Q41.62 -21.62 47.359 -21.62 Q49.176 -21.62 50.698 -21.916 Q52.221 -22.211 53.764 -23.099 L67.953 -8.897 Q65.635 -4.163 58.657 -0.119 Q51.68 3.924 47.34 5.108 Z M47.368 -29.707 Q49.658 -29.707 51.26 -31.337 Q52.863 -32.969 52.863 -35.258 Q52.863 -37.548 51.233 -39.15 Q49.601 -40.753 47.312 -40.753 Q45.022 -40.753 43.42 -39.123 Q41.817 -37.491 41.817 -35.202 Q41.817 -32.912 43.447 -31.31 Q45.079 -29.707 47.368 -29.707 Z M79.66 5.009 Q77.421 5.009 75.744 3.353 Q74.067 1.697 74.067 -0.543 Q74.067 -2.782 75.723 -4.459 Q77.379 -6.136 79.619 -6.136 Q81.859 -6.136 83.535 -4.48 Q85.212 -2.824 85.212 -0.584 Q85.212 1.656 83.556 3.332 Q81.9 5.009 79.66 5.009 Z M74.067 -10.771 V-32.173 H85.212 V-10.771 H74.067 Z"/></g><g id="Semibold-S" transform="matrix(1 0 0 1 1998.1 696)"><path d="M47.34 3.607 Q33.489 -0.218 25.709 -12.527 Q17.928 -24.834 17.928 -38.682 V-61.884 L47.34 -74.067 L76.752 -61.859 V-38.266 H67.58 V-20.282 L59.257 -28.661 Q60.132 -30.119 60.541 -31.814 Q60.95 -33.509 60.95 -35.255 Q60.95 -40.95 57.005 -44.895 Q53.06 -48.84 47.34 -48.84 Q41.62 -48.84 37.675 -44.895 Q33.73 -40.95 33.73 -35.23 Q33.73 -29.51 37.675 -25.565 Q41.62 -21.62 47.359 -21.62 Q49.219 -21.62 50.827 -21.98 Q52.436 -22.34 54.022 -23.313 L67.18 -10.141 Q64.606 -5.407 58.292 -1.555 Q51.979 2.295 47.34 3.607 Z M47.363 -29.064 Q49.915 -29.064 51.71 -30.882 Q53.506 -32.699 53.506 -35.253 Q53.506 -37.805 51.688 -39.6 Q49.871 -41.396 47.317 -41.396 Q44.765 -41.396 42.97 -39.578 Q41.174 -37.761 41.174 -35.207 Q41.174 -32.655 42.992 -30.86 Q44.809 -29.064 47.363 -29.064 Z M79.189 3.551 Q77.335 3.551 75.958 2.195 Q74.582 0.84 74.582 -1.014 Q74.582 -2.868 75.937 -4.245 Q77.293 -5.621 79.148 -5.621 Q81.001 -5.621 82.378 -4.266 Q83.754 -2.91 83.754 -1.055 Q83.754 0.798 82.398 2.175 Q81.043 3.551 79.189 3.551 Z M74.582 -11.114 V-31.658 H83.754 V-11.114 H74.582 Z"/></g><g id="Medium-S" transform="matrix(1 0 0 1 1701.85 696)"><path d="M47.34 2.481 Q33.964 -1.254 26.493 -13.24 Q19.022 -25.226 19.022 -38.682 V-61.13 L47.34 -72.941 L75.658 -61.119 V-37.88 H67.965 V-19.574 L59.096 -28.467 Q60.035 -29.99 60.493 -31.717 Q60.95 -33.444 60.95 -35.255 Q60.95 -40.95 57.005 -44.895 Q53.06 -48.84 47.34 -48.84 Q41.62 -48.84 37.675 -44.895 Q33.73 -40.95 33.73 -35.23 Q33.73 -29.51 37.675 -25.565 Q41.62 -21.62 47.359 -21.62 Q49.251 -21.62 50.924 -22.028 Q52.597 -22.436 54.214 -23.474 L66.601 -11.074 Q63.834 -6.34 58.019 -2.633 Q52.205 1.073 47.34 2.481 Z M47.358 -28.582 Q50.108 -28.582 52.048 -30.539 Q53.988 -32.498 53.988 -35.248 Q53.988 -37.998 52.031 -39.938 Q50.072 -41.878 47.322 -41.878 Q44.572 -41.878 42.632 -39.921 Q40.692 -37.962 40.692 -35.212 Q40.692 -32.462 42.649 -30.522 Q44.608 -28.582 47.358 -28.582 Z M78.835 2.458 Q77.271 2.458 76.119 1.327 Q74.968 0.196 74.968 -1.368 Q74.968 -2.932 76.098 -4.084 Q77.229 -5.235 78.793 -5.235 Q80.358 -5.235 81.51 -4.105 Q82.661 -2.974 82.661 -1.41 Q82.661 0.155 81.53 1.307 Q80.399 2.458 78.835 2.458 Z M74.968 -11.372 V-31.272 H82.661 V-11.372 H74.968 Z"/></g><g id="Regular-S" transform="matrix(1 0 0 1 1405.73 696)"><path d="M47.34 1.656 Q34.313 -2.013 27.068 -13.763 Q19.824 -25.514 19.824 -38.682 V-60.577 L47.34 -72.116 L74.856 -60.577 V-37.597 H68.249 V-19.055 L58.978 -28.326 Q59.964 -29.895 60.457 -31.646 Q60.95 -33.397 60.95 -35.255 Q60.95 -40.95 57.005 -44.895 Q53.06 -48.84 47.34 -48.84 Q41.62 -48.84 37.675 -44.895 Q33.73 -40.95 33.73 -35.23 Q33.73 -29.51 37.675 -25.565 Q41.62 -21.62 47.359 -21.62 Q49.275 -21.62 50.994 -22.064 Q52.714 -22.507 54.356 -23.592 L66.177 -11.757 Q63.268 -7.023 57.819 -3.423 Q52.37 0.176 47.34 1.656 Z M47.355 -28.228 Q50.249 -28.228 52.296 -30.289 Q54.342 -32.35 54.342 -35.245 Q54.342 -38.139 52.281 -40.186 Q50.22 -42.232 47.325 -42.232 Q44.431 -42.232 42.384 -40.171 Q40.338 -38.11 40.338 -35.215 Q40.338 -32.321 42.399 -30.274 Q44.46 -28.228 47.355 -28.228 Z M78.576 1.656 Q77.223 1.656 76.237 0.69 Q75.251 -0.275 75.251 -1.627 Q75.251 -2.98 76.216 -3.966 Q77.182 -4.952 78.534 -4.952 Q79.886 -4.952 80.873 -3.987 Q81.859 -3.021 81.859 -1.669 Q81.859 -0.317 80.893 0.67 Q79.928 1.656 78.576 1.656 Z M75.251 -11.56 V-30.989 H81.859 V-11.56 H75.251 Z"/></g><g id="Light-S" transform="matrix(1 0 0 1 1109.75 696)"><path d="M47.34 -0.203 Q35.149 -3.923 28.387 -15.023 Q21.626 -26.121 21.626 -38.684 V-59.339 L47.34 -70.181 L73.054 -59.344 V-37.141 H66.921 V-19.226 L57.195 -28.953 Q58.105 -30.37 58.598 -31.951 Q59.091 -33.532 59.091 -35.255 Q59.091 -40.184 55.693 -43.583 Q52.294 -46.981 47.34 -46.981 Q42.386 -46.981 38.987 -43.583 Q35.589 -40.184 35.589 -35.23 Q35.589 -30.276 38.987 -26.877 Q42.386 -23.479 47.359 -23.479 Q49.206 -23.479 50.82 -23.941 Q52.434 -24.404 53.93 -25.527 L65.571 -13.882 Q63.003 -9.129 57.535 -5.434 Q52.066 -1.739 47.34 -0.203 Z M47.355 -28.209 Q50.268 -28.209 52.315 -30.27 Q54.361 -32.331 54.361 -35.245 Q54.361 -38.158 52.3 -40.205 Q50.239 -42.251 47.325 -42.251 Q44.412 -42.251 42.365 -40.19 Q40.319 -38.129 40.319 -35.215 Q40.319 -32.302 42.38 -30.255 Q44.441 -28.209 47.355 -28.209 Z M77.285 -0.127 Q76.313 -0.127 75.602 -0.819 Q74.891 -1.511 74.891 -2.473 Q74.891 -3.435 75.582 -4.146 Q76.274 -4.857 77.236 -4.857 Q78.198 -4.857 78.909 -4.164 Q79.621 -3.471 79.621 -2.521 Q79.621 -1.55 78.928 -0.838 Q78.234 -0.127 77.285 -0.127 Z M74.891 -12.318 V-29.68 H79.621 V-12.318 H74.891 Z"/></g><g id="Thin-S" transform="matrix(1 0 0 1 814.015 696)"><path d="M47.34 -2.061 Q35.985 -5.834 29.706 -16.281 Q23.427 -26.728 23.427 -38.687 V-58.101 L47.34 -68.247 L71.253 -58.111 V-36.687 H65.594 V-19.397 L55.412 -29.578 Q56.247 -30.844 56.74 -32.254 Q57.233 -33.666 57.233 -35.255 Q57.233 -39.417 54.38 -42.27 Q51.527 -45.123 47.34 -45.123 Q43.153 -45.123 40.3 -42.27 Q37.447 -39.417 37.447 -35.23 Q37.447 -31.043 40.3 -28.19 Q43.153 -25.337 47.359 -25.337 Q49.138 -25.337 50.646 -25.819 Q52.153 -26.3 53.504 -27.461 L64.963 -16.006 Q62.737 -11.234 57.25 -7.444 Q51.763 -3.655 47.34 -2.061 Z M47.355 -28.19 Q50.287 -28.19 52.333 -30.251 Q54.38 -32.313 54.38 -35.245 Q54.38 -38.177 52.319 -40.223 Q50.257 -42.27 47.325 -42.27 Q44.393 -42.27 42.347 -40.209 Q40.3 -38.147 40.3 -35.215 Q40.3 -32.283 42.361 -30.237 Q44.423 -28.19 47.355 -28.19 Z M75.994 -1.91 Q75.403 -1.91 74.967 -2.328 Q74.53 -2.746 74.53 -3.318 Q74.53 -3.89 74.948 -4.326 Q75.366 -4.763 75.938 -4.763 Q76.51 -4.763 76.946 -4.342 Q77.383 -3.921 77.383 -3.373 Q77.383 -2.782 76.962 -2.346 Q76.541 -1.91 75.994 -1.91 Z M74.53 -13.077 V-28.372 H77.383 V-13.077 H74.53 Z"/></g><g id="Ultralight-S" transform="matrix(1 0 0 1 517.792 696)"><path d="M47.34 -3.177 Q36.486 -6.981 30.498 -17.037 Q24.508 -27.092 24.508 -38.688 V-57.358 L47.34 -67.086 L70.172 -57.371 V-36.413 H64.797 V-19.499 L54.342 -29.954 Q55.131 -31.128 55.625 -32.437 Q56.118 -33.746 56.118 -35.255 Q56.118 -38.957 53.592 -41.482 Q51.067 -44.008 47.34 -44.008 Q43.613 -44.008 41.088 -41.482 Q38.562 -38.957 38.562 -35.23 Q38.562 -31.503 41.088 -28.978 Q43.613 -26.452 47.359 -26.452 Q49.097 -26.452 50.54 -26.945 Q51.984 -27.439 53.249 -28.622 L64.599 -17.28 Q62.578 -12.497 57.079 -8.651 Q51.581 -4.804 47.34 -3.177 Z M47.355 -28.178 Q50.299 -28.178 52.345 -30.24 Q54.392 -32.301 54.392 -35.245 Q54.392 -38.189 52.33 -40.235 Q50.269 -42.282 47.325 -42.282 Q44.381 -42.282 42.335 -40.22 Q40.288 -38.159 40.288 -35.215 Q40.288 -32.271 42.35 -30.225 Q44.411 -28.178 47.355 -28.178 Z M75.219 -2.98 Q74.856 -2.98 74.585 -3.233 Q74.314 -3.488 74.314 -3.825 Q74.314 -4.163 74.567 -4.434 Q74.822 -4.706 75.159 -4.706 Q75.497 -4.706 75.769 -4.448 Q76.04 -4.191 76.04 -3.885 Q76.04 -3.522 75.782 -3.251 Q75.525 -2.98 75.219 -2.98 Z M74.314 -13.532 V-27.587 H76.04 V-13.532 H74.314 Z"/></g></g></svg>