<svg xmlns="http://www.w3.org/2000/svg" height="20" viewBox="0 -960 960 960" width="20"><path d="m667.87-360.3-28.47-16.72q-10.9-6.5-11.9-18.47-1-11.96 9.33-19.57l89.91-67.85q9.83-7.7 24.28-8.51 14.46-.82 25.85 5.94l28.47 15.72q11.07 6.37 12.52 18.33 1.45 11.95-9.95 19.71l-88.97 68.57q-10.76 7.98-25.22 8.79-14.46.82-25.85-5.94ZM505.11-495.2l73.52-56-214.98-130.19-47.21 73.15L505.11-495.2Zm-57.33-93.06ZM229-182.78q-19.07 0-32.64-13.75-13.58-13.74-13.58-32.68 0-18.94 13.81-32.33 13.81-13.39 32.69-13.39h129.57v-202.44l-89.76-53.71q-33.57-20-42.4-57.6-8.82-37.6 12.15-71.28l45.71-74.58q19.91-32.61 57.11-40.78 37.21-8.16 69.78 11.92l277.01 167.46q21.31 12.67 22.43 37.44 1.12 24.76-18.97 38.72L558.48-417.52q-18.89 15.39-45.83 16.67-26.93 1.29-48.58-12.41l-12.79-7.52v144.97q0 38.95-27 65.99-27 27.04-65.9 27.04H229Z"/></svg>