<svg xmlns="http://www.w3.org/2000/svg" height="40" width="40"><path d="M8.708 35.833Q8.25 35.833 7.958 35.542Q7.667 35.25 7.667 34.792Q7.667 34.333 7.958 34.042Q8.25 33.75 8.708 33.75H11.417V28.583Q11.417 25.792 12.896 23.438Q14.375 21.083 16.958 20.083L16.75 19.875Q15.167 19.167 14 17.938Q12.833 16.708 12.167 15.167L2.875 5.833Q2.542 5.542 2.542 5.104Q2.542 4.667 2.875 4.333Q3.208 4 3.625 4Q4.042 4 4.375 4.333L35.708 35.708Q36 36 36.021 36.417Q36.042 36.833 35.708 37.167Q35.375 37.5 34.958 37.5Q34.542 37.5 34.208 37.167L32.833 35.833ZM23.75 19.583 22.167 18.042Q24.083 17.292 25.292 15.458Q26.5 13.625 26.5 11.375V6.25H13.5V9.333L11.583 7.458V6.25H10.417L8.333 4.167H31.292Q31.75 4.167 32.042 4.458Q32.333 4.75 32.333 5.208Q32.333 5.667 32.042 5.958Q31.75 6.25 31.292 6.25H28.583V11.375Q28.583 14 27.292 16.208Q26 18.417 23.75 19.583ZM13.5 33.75H26.5V29.5L18.708 21.708Q16.417 22.167 14.958 24.125Q13.5 26.083 13.5 28.583ZM28.583 33.75H30.917L28.583 31.417Z"/></svg>