<svg xmlns="http://www.w3.org/2000/svg" height="48" viewBox="0 96 960 960" width="48"><path d="M331.5 792q36-36 84.75-53.5t100.75-12q-13.5 27.5-19.75 58.25T491 847.5q0 26.5 5.5 50.25t15 44.75l-15 15.5-165-166ZM250 711l-76.5-74.5Q236 574 314 535.5T480 497q69 0 132.75 22.25T733 582.5q-35.5 3-68 14.75T606 628q-31.5-11-62.25-16.5T480 606q-65.5 0-124.25 30T250 711ZM86.5 547.5l-76.5-76q94-96 214.75-151.5T480 264.5q134.5 0 255.25 55.5T950 471.5l-76 76Q791 471 691 422.25T480 373.5q-111 0-211 48.75T86.5 547.5ZM793 642l6.5 51.5q21.5 6 38.75 15.75T867.5 731l43-20.5 44 69L914 810q5.5 16.5 5.5 37.5T914 885l40.5 30.5-44 69-43-21.5q-12 11.5-29.25 22.5t-38.75 17L793 1052h-76.5l-5.5-49.5q-21.5-6-38.75-17T643 963l-43 21.5-43-69 39.5-30.5q-6.5-16.5-6.5-37.5t6.5-37.5L557 779.5l43-69 43 20.5q12-11.5 29.25-21.5t38.75-16l5.5-51.5H793Zm-37.5 108.5q-41 0-69 28t-28 68q0 41 28 69t69 28q39.5 0 67.75-28t28.25-69q0-40-28.25-68t-67.75-28Z"/></svg>