<svg xmlns="http://www.w3.org/2000/svg" height="24" viewBox="0 -960 960 960" width="24"><path d="M171.783-149.782q-42.305 0-71.653-29.348-29.348-29.348-29.348-71.653v-458.434q0-38.348 24.543-66.283 24.544-27.935 61.196-33.023h4.435l243.457 243.458q-21.456 34.891-33.5 74.631-12.043 39.739-12.043 83.891v108.087q0 39.391 9.88 76.902t29.141 71.772H171.783ZM277-810.218h511.217q42.305 0 71.653 29.348 29.348 29.348 29.348 71.653v102.718q-44.261-49.827-103.054-76.272-58.794-26.446-124.62-26.446-59.674 0-111.413 21.706-51.739 21.707-92.304 58.12L277-810.218Zm429.392 383.219v-203.588q74.5 17.827 126 72.925 51.5 55.097 56.826 130.663H706.392Zm-89.696-203.588v159.499L510.957-576.261q21.739-19.413 48.783-33.369 27.043-13.957 56.956-20.957ZM873.11-215.239 750.481-337.303h138.737v38.847q0 22.304-4.119 43.076-4.12 20.771-11.989 40.141ZM661.544-70.782q-94.957 0-161.316-66.358-66.358-66.359-66.358-161.316v-38.847h80.001L36.174-815l59.152-59.152 789.37 789.37-59.152 59.152-66.848-66.847q-22.195 11.13-46.608 16.413-24.414 5.282-50.544 5.282Z"/></svg>