<svg xmlns="http://www.w3.org/2000/svg" height="48" viewBox="0 -960 960 960" width="48"><path d="M140-148q-30 0-51.5-21.5T67-221v-518q0-29 20.5-50t49.5-23h19l261 260q-18 31-27.5 66.5T380-411v120q0 39 9 74.5t29 68.5H140Zm102-664h578q29 0 51 20.5t22 49.5v154q-39-51-101-80t-125-29q-65 0-120 26t-94 70L242-812Zm461 385v-208q77 14 129.5 72T893-427H703Zm-73-208v197h-14L496-558q25-30 59.5-50t74.5-27Zm238 448L700-354h193v63q0 29-6.5 55T868-187ZM667-64q-95 0-161-66t-66-161v-63h70L15-850l52-52L888-81l-52 52-62-62q-25 13-51.5 20T667-64Z"/></svg>