<svg xmlns="http://www.w3.org/2000/svg" height="20" viewBox="0 -960 960 960" width="20"><path d="M249.76-200.5q-20.26 0-34.76-14.5-14.5-14.5-14.5-34.76v-460.48q0-20.96 14.5-35.11 14.5-14.15 34.76-14.15h460.48q20.96 0 35.11 14.15 14.15 14.15 14.15 35.11v460.48q0 20.26-14.15 34.76-14.15 14.5-35.11 14.5H249.76ZM742-460.5V-499L515.5-272.5l-127-130.25q-7.91-7.75-18.36-7.75-10.46 0-18.18 7.54L218-268v30h5l145-145.5 131.08 131.08q7.92 7.92 18.01 7.92 10.09 0 17.91-7.5l207-208.5Zm-238.3-60q3.2 0 5.25-2t2.05-5.45v-142.39q0-2.56-2-4.86-2.01-2.3-5.2-2.3-3.2 0-5.25 2.08t-2.05 4.65v142.39q0 3.45 2 5.66 2.01 2.22 5.2 2.22Zm27.8-79 57.47-63.96q3.53-3.54 1.13-8.79-2.39-5.25-6.69-5.25-2.19 0-3.77.54-1.59.54-2.64 1.46L511-599l65.68 76.59q1.06 1.22 2.67 1.56 1.61.35 3.48.35 5.43 0 8.05-4.25 2.62-4.25-1.88-7.75l-57.5-67Zm-195 64.5v-57h72.2q2.6 0 4.7-1.99t2.1-5.42v-70.85q0-2.59-2.09-4.92-2.09-2.32-4.67-2.32h-78.88q-3.43 0-5.64 2-2.22 2.01-2.22 5.2 0 3.2 2.02 5.25 2.01 2.05 5.48 2.05H401v56.5h-71.5q-3.47 0-5.48 2.06-2.02 2.06-2.02 4.6v71.48q0 3.43 1.99 5.64 2 2.22 5.43 2.22h78.87q2.58 0 4.9-2 2.31-2.01 2.31-5.2 0-3.2-2.1-5.25t-4.7-2.05h-72.2Z"/></svg>