<svg xmlns="http://www.w3.org/2000/svg" height="20" viewBox="0 -960 960 960" width="20"><path d="m726.31-298.54-54.16 75.31q-3.61 5.08-10.92 6.81-7.31 1.73-12.38-2.66-5.08-4.38-6.43-11.19-1.34-6.81 3.04-11.88l55.16-74.54-89.16-28.46q-5.54-2.7-9.46-9.27-3.92-6.58-1.23-12.12 2.69-5.54 9.27-9.08 6.58-3.53 12.11-.84L710.31-347v-93.69q0-6.8 4.54-11.4 4.55-4.6 11.27-4.6 6.73 0 11.46 4.6t4.73 11.4V-347l89.15-29.46q5.76-2.69 11.5.5 5.74 3.2 8.27 9.08 2.54 5.88-1.5 12.46-4.04 6.57-9.58 9.27L752-316.69l55.15 74.54q4.39 5.07 2.66 11.88-1.73 6.81-6.81 11.19-5.08 4.39-11.62 2.27-6.53-2.11-10.92-7.19l-54.15-74.54ZM240.62-184q-23.36 0-39.99-16.63Q184-217.26 184-240.62v-478.76q0-23.36 16.63-39.99Q217.26-776 240.62-776h478.76q23.36 0 39.99 16.63Q776-742.74 776-719.38v188.53q0 6.03-4.55 10.52-4.54 4.48-11.27 4.48-6.72 0-11.45-4.6-4.73-4.6-4.73-11.4v-187.53q0-10.77-6.92-17.7-6.93-6.92-17.7-6.92H240.62q-10.77 0-17.7 6.92-6.92 6.93-6.92 17.7v312h139.93q10.84 0 19.84 4.23t11 15q7 33.84 33.58 54.61 26.57 20.77 59.65 25 5.69-.54 6.15 3.5.47 4.04 1.77 10.04 1.93 24 12.43 45.65 10.5 21.66 23.27 42.97 5.46 7-1 14.69-6.47 7.69-16.39 7.69H240.62ZM324-608.92h312q6.8 0 11.4-4.55 4.6-4.55 4.6-11.27t-4.6-11.45q-4.6-4.73-11.4-4.73H324q-6.8 0-11.4 4.54-4.6 4.55-4.6 11.27 0 6.73 4.6 11.46t11.4 4.73Zm0 103.07h236.31q6.8 0 11.4-4.54 4.6-4.55 4.6-11.27t-4.6-11.46q-4.6-4.73-11.4-4.73H324q-6.8 0-11.4 4.55-4.6 4.55-4.6 11.27t4.6 11.45q4.6 4.73 11.4 4.73Z"/></svg>