<svg xmlns="http://www.w3.org/2000/svg" height="20" width="20"><path d="M14.188 10.208Q15.812 10.208 16.958 11.354Q18.104 12.5 18.104 14.125Q18.104 15.729 16.958 16.865Q15.812 18 14.188 18Q12.583 18 11.458 16.865Q10.333 15.729 10.333 14.104Q10.333 12.479 11.458 11.344Q12.583 10.208 14.188 10.208ZM14.396 14.083V12.042Q14.396 11.917 14.312 11.844Q14.229 11.771 14.125 11.771Q14 11.771 13.917 11.854Q13.833 11.938 13.833 12.021V14.062Q13.833 14.167 13.875 14.271Q13.917 14.375 14.021 14.479L15.333 15.792Q15.417 15.875 15.531 15.885Q15.646 15.896 15.75 15.792Q15.833 15.708 15.833 15.604Q15.833 15.5 15.75 15.396ZM8.208 3.938H11.812Q12.042 3.938 12.24 4.125Q12.438 4.312 12.458 4.542H15.229Q15.312 4.542 15.417 4.646Q15.521 4.75 15.521 4.854Q15.521 4.958 15.438 5.042Q15.354 5.125 15.271 5.146H14.708V8.562Q14.562 8.479 14.406 8.458Q14.25 8.438 14.083 8.438Q13.542 8.438 12.917 8.594Q12.292 8.75 11.792 8.979V7.188Q11.792 7.104 11.688 7Q11.583 6.896 11.479 6.896Q11.375 6.896 11.281 7Q11.188 7.104 11.188 7.188V9.312Q10.417 9.792 9.781 10.615Q9.146 11.438 8.854 12.292V7.188Q8.854 7.104 8.75 7Q8.646 6.896 8.542 6.896Q8.438 6.896 8.344 7Q8.25 7.104 8.25 7.188V13.625Q8.25 13.75 8.344 13.844Q8.438 13.938 8.562 13.938Q8.521 14.521 8.635 15.156Q8.75 15.792 9 16.312H6.583Q6.042 16.312 5.677 15.948Q5.312 15.583 5.312 15.042V5.146H4.771Q4.646 5.125 4.583 5.042Q4.521 4.958 4.521 4.854Q4.521 4.729 4.615 4.635Q4.708 4.542 4.833 4.542H7.562Q7.583 4.292 7.771 4.115Q7.958 3.938 8.208 3.938Z"/></svg>