<svg xmlns="http://www.w3.org/2000/svg" height="20" width="20"><path d="M16.708 18.083.875 2.229q-.25-.271-.25-.646t.25-.645q.271-.25.646-.25t.646.25l15.812 15.874q.271.271.271.646t-.271.625q-.25.271-.635.271-.386 0-.636-.271ZM3.479 2.396v2.229q0 .417-.281.708-.281.292-.719.292-.396 0-.687-.292-.292-.291-.292-.708V2.396q0-.396.167-.761.166-.364.541-.656l1.396 1.417h-.125Zm13.042 15.021h-2.229q-.417 0-.709-.292-.291-.292-.291-.687 0-.438.291-.719.292-.281.709-.281h2.312l1.375 1.395q-.312.25-.687.417-.375.167-.771.167ZM6.021 2.292 4.125.417h1.583q.417 0 .709.291.291.292.291.688 0 .333-.208.594-.208.26-.521.302Zm12.479 12.5-1.875-1.875v.041q.083-.333.333-.541.25-.209.563-.209.396 0 .687.302.292.302.292.698ZM3.479 17.438q-.833 0-1.406-.573T1.5 15.458v-2.229q0-.417.292-.708.291-.292.687-.292.417 0 .709.292.291.291.291.708v2.229h2.229q.417 0 .709.292.291.292.291.708 0 .396-.291.688-.292.292-.709.292ZM14.292 2.417q-.417 0-.709-.292-.291-.292-.291-.708 0-.396.291-.688.292-.291.709-.291h2.229q.833 0 1.406.572.573.573.573 1.407v2.229q0 .416-.292.708-.291.292-.687.292-.417 0-.709-.292-.291-.292-.291-.708V2.417ZM5.167 9.812q-.459 0-.719.355-.26.354-.115.771.438 1.229 1.323 2.166.886.938 2.094 1.417.5.187.948-.073.448-.26.448-.76 0-.376-.229-.626t-.563-.374q-.729-.313-1.25-.865t-.833-1.261q-.146-.333-.448-.541-.302-.209-.656-.209Zm9.666-1.75q.459 0 .719-.354.26-.354.094-.77-.438-1.23-1.313-2.167-.875-.938-2.083-1.417-.5-.187-.948.073-.448.261-.448.761 0 .374.229.624t.563.376q.729.312 1.239.864.511.552.823 1.26.146.334.459.542.312.208.666.208Zm-9.645.042q-.459 0-.719-.354-.261-.354-.094-.771.208-.625.583-1.177T6 4.792l1.292 1.27q-.375.292-.604.615-.23.323-.396.677-.146.334-.438.542-.292.208-.666.208ZM13 11.812l1.292 1.292q-.375.458-.907.813-.531.354-1.135.604-.5.187-.948-.073-.448-.26-.448-.76 0-.376.24-.626.239-.25.552-.374.354-.167.687-.396.334-.23.667-.48ZM8.729 4.979 7.312 3.604q.126-.062.219-.114.094-.052.219-.073.5-.209.958.062.459.271.459.771 0 .25-.115.427-.114.177-.323.302Zm6.104 4.854q.459 0 .719.344.26.344.094.781-.042.167-.094.313t-.135.291l-1.375-1.354q.166-.187.364-.281.198-.094.427-.094Z"/></svg>