<svg xmlns="http://www.w3.org/2000/svg" height="20" width="20"><path d="M7.667 6.958q-.417 0-.729-.302-.313-.302-.313-.718v-.459q0-.417.313-.729.312-.312.729-.312.416 0 .718.312.303.312.303.729v.459q0 .416-.303.718-.302.302-.718.302Zm0 7.313q-.417 0-.729-.313-.313-.312-.313-.729v-1.917q0-.416.313-.729.312-.312.729-.312.416 0 .718.312.303.313.303.729v1.917q0 .417-.303.729-.302.313-.718.313Zm-2.334 4.771q-1.125 0-1.916-.792-.792-.792-.792-1.917V3.667q0-1.125.792-1.917.791-.792 1.916-.792h9.334q1.125 0 1.916.792.792.792.792 1.917v12.666q0 1.125-.792 1.917-.791.792-1.916.792Zm0-2.709h9.334V9.479H5.333v6.854Zm0-8.604h9.334V3.667H5.333Z"/></svg>