<svg xmlns="http://www.w3.org/2000/svg" height="20" width="20"><path d="M13.938 15.479h-2.167v1.229q0 .063-.052.104-.052.042-.115.042-.062 0-.104-.042-.042-.041-.042-.104v-2.75q0-.125.136-.25.135-.125.26-.125h2.084q-.063 0-.126-.041-.062-.042-.062-.104v2.229q0-.042.062-.115.063-.073.126-.073Zm1.937-.104v1.333q0 .063-.052.104-.052.042-.094.042-.062 0-.104-.042-.042-.041-.042-.104V13.75q0-.062.042-.115.042-.052.083-.052.063 0 .115.052.052.053.052.094v1.354h1.687v-1.354q0-.041.042-.094.042-.052.084-.052.062 0 .114.052.052.053.052.094v2.979q0 .063-.052.104-.052.042-.094.042-.062 0-.104-.042-.042-.041-.042-.104v-1.333Zm-4.104-.208h1.667v-1.229h-1.667Zm-1.75 1.708q-2.417.167-4.146-1.427T4.146 11.5q0-1.083.521-2.156.521-1.073 1.271-2.094.75-1.021 1.624-1.906.876-.886 1.563-1.532.083-.083.187-.114.105-.031.188-.031t.177.041q.094.042.156.125.667.667 1.521 1.532.854.864 1.604 1.833.75.969 1.302 1.99.552 1.02.615 2.062 0 .229-.021.448t-.062.448h-3.75q-.417 0-.719.302t-.302.719Z"/></svg>