<svg xmlns="http://www.w3.org/2000/svg" height="20" viewBox="0 96 960 960" width="20"><path d="M480.276 969.218q-81.704 0-153.248-30.723-71.543-30.724-125.184-84.464-53.642-53.74-84.352-125.17t-30.71-153.319q0-81.971 30.723-153.014 30.724-71.043 84.464-124.684 53.74-53.642 125.17-84.352t153.319-30.71q81.971 0 153.014 30.723 71.043 30.724 124.684 84.464 53.642 53.74 84.352 124.936t30.71 152.819q0 81.704-30.723 153.248-30.724 71.543-84.464 125.184-53.74 53.642-124.936 84.352t-152.819 30.71ZM431 763h98q33.855 0 54.667-20.812 20.812-20.811 20.812-54.667v-73.999q0-33.855-20.812-54.95-20.812-21.094-54.667-21.094h-98v-72.999h113.022q15.482 0 26.469-11.09 10.988-11.089 10.988-26.722 0-15.392-10.988-26.529Q559.504 389 544.022 389H431q-33.855 0-54.667 20.812-20.812 20.811-20.812 54.667v223.042q0 33.856 20.812 54.667Q397.145 763 431 763Zm0-149.478h98v73.999h-98v-73.999Z"/></svg>