<svg xmlns="http://www.w3.org/2000/svg" height="48" viewBox="0 -960 960 960" width="48"><path d="M133-63q-19.75 0-33.37-13.63Q86-90.25 86-110v-231q0-47.83 33.08-80.92Q152.17-455 200-455h115q63 0 80.5-15.5T413-515q0-36-19.25-57T346-593q-24.75 0-42.37-17.63Q286-628.25 286-653v-197q0-19.75 13.63-33.38Q313.25-897 333-897h214q19.75 0 33.88 13.62Q595-869.75 595-850v43q115 7 197.5 92.5T875-513v40q0 122-83.5 208.5T587-178H415q-9.25 0-14.62 5.87Q395-166.25 395-158v48q0 19.75-14.12 33.37Q366.75-63 347-63H133Z"/></svg>