<svg xmlns="http://www.w3.org/2000/svg" height="40" viewBox="0 -960 960 960" width="40"><path d="M811.38-492.24q-17.21 0-29.28-12.28-12.06-12.28-12.06-29.62v-233.18q0-16.7 12.25-29.04 12.25-12.33 29.3-12.33 17.06 0 29.39 12.33 12.33 12.34 12.33 29.04v233.18q0 17.34-12.36 29.62-12.36 12.28-29.57 12.28Zm-411.38 0q-55.29 0-94.02-38.74-38.74-38.73-38.74-94.02t38.74-94.02q38.73-38.73 94.02-38.73t94.02 38.73q38.74 38.73 38.74 94.02t-38.74 94.02q-38.73 38.74-94.02 38.74ZM104.27-193.86v-77.41q0-29.54 16.16-53.96t43.49-37.17q56.1-25.61 115.29-41.07 59.2-15.45 120.79-15.45 61.83 0 120.69 15.65 58.86 15.66 115.05 40.7 27.24 12.67 43.62 37.25 16.37 24.58 16.37 54.3v77.16H104.27Zm47.88-47.88h495.7v-29.39q0-15.76-9.14-28.53-9.13-12.78-23.27-20-50.66-24.58-104.92-37.98-54.26-13.4-110.38-13.4t-110.72 13.23q-54.61 13.23-104.75 38.15-14.93 7.22-23.72 20.07-8.8 12.85-8.8 28.57v29.28Zm247.83-298.39q35.58 0 60.24-24.78 24.65-24.78 24.65-60.22 0-35.43-24.63-60.09-24.64-24.65-60.22-24.65t-60.24 24.64q-24.65 24.64-24.65 60.23 0 35.31 24.63 60.09 24.64 24.78 60.22 24.78ZM400-625Zm0 383.26Z"/></svg>