<svg xmlns="http://www.w3.org/2000/svg" height="48" viewBox="0 -960 960 960" width="48"><path d="m673.5-190 104-104-18-18-73 74v-166h-24.86v166l-74.54-73.7-17.6 17.7 104 104ZM182-236.5v-492L677.5-515q-5.5.5-7.75.25T663-515q-10.29 2-21.45 2.53-11.17.54-17.55-.03l-420-177v168l181 41L204-440v167.5l269-114q-4.5 6.5-8 17.25t-5 12.75l-278 120ZM672.93-152Q613-152 570.5-194.07q-42.5-42.06-42.5-103 0-59.93 42.57-102.43 42.56-42.5 102.5-42.5 59.93 0 102.43 42.57 42.5 42.56 42.5 102.5Q818-236 775.43-194q-42.56 42-102.5 42ZM204-386.5v-303 417-114Z"/></svg>