<svg xmlns="http://www.w3.org/2000/svg" height="20" viewBox="0 -960 960 960" width="20"><path d="M278.48-119.89q-13.89 14.46-32.3 14.46-18.4 0-32.85-14.46l-93.58-93.07q-14.32-14.32-14.32-33.16 0-18.83 14.46-32.92l93.44-92.94q14.45-13.96 32.85-13.92 18.41.03 35.12 16.27 13.33 13.8 13.33 30.64 0 16.85-13.33 29.84l-15.71 16.71h429.39l-16.78-16.21q-14.4-13.33-12.52-30.82 1.88-17.49 16.91-32.51 14.45-13.96 32.82-13.96t32.83 14.46l92.57 93.14q14.32 14.32 14.04 32.87-.28 18.55-14.18 32.64l-94 93.44q-13.95 13.96-32.35 13.67-18.41-.28-34.56-15.39-13.33-13.8-13.33-31.21 0-17.4 13.33-30.4l15.72-16.71H264.52l17.22 17.21q13.89 12.83 12.83 30.07-1.07 17.24-16.09 32.26Zm21.69-394.74 126.19-332.68q5.1-12.08 15.82-19 10.73-6.91 23.07-6.91h29.5q12.9 0 23.63 7.68 10.73 7.67 15.86 19.47l125.59 329.96q9.82 22.72-4.18 41.8-14 19.09-38.76 19.09-15.76 0-27.34-8.54-11.58-8.55-16.59-23.57l-23.66-64.15H405l-23.36 67.32q-3.96 13.2-15.07 21.07-11.1 7.87-24.72 7.87-23.65 0-36.76-18.77-13.11-18.76-4.92-40.64Zm126.44-108.28H531l-50.75-150.57h-3.95l-49.69 150.57Z"/></svg>