<svg xmlns="http://www.w3.org/2000/svg" height="20" viewBox="0 -960 960 960" width="20"><path d="M563.8-77.59q-13.54 4.37-24.95-4.54-11.42-8.91-11.42-22.61V-361.7q0-13.69 11.7-22.32t23.83-4.07q41.82 13.57 85.17 19.13 43.35 5.57 88.78 5.57 44.44 0 87.83-5.57 43.39-5.56 85.38-19.69 13.53-4.57 24.95 4.35 11.41 8.91 11.41 22.6v256.96q0 13.7-11.41 22.61-11.42 8.91-24.95 4.35-41.99-14.13-85.36-19.7-43.37-5.56-87.78-5.56-44.41 0-87.81 5.85-43.39 5.84-85.37 19.6Zm-177.19.81L363.48-197q-18.72-7.36-36.42-17.07-17.71-9.71-33.32-22.89l-115.65 39.83-93.96-163.52 91.52-79.39q-1.43-9.65-2.43-19.46-1-9.81-1-20.45 0-10.64 1-20.46 1-9.81 2.43-19.55l-91.52-80.39 93.96-162.39 116.78 40.26q15.61-13.17 32.59-22.63 16.97-9.46 36.02-16.76l23.13-121.35h186.78l23.13 121.35q18.72 7.21 36.42 16.72 17.71 9.5 33.32 22.67l115.65-39.26 93.96 162.39-92.09 79.39q1.44 10.83 2.44 21.74 1 10.91 1 22.74 0 9.18-1 18.35-1 9.17-1.87 18.35H616q3.15-9.31 4.73-19.7 1.57-10.39 1.57-21.52 0-60-42-102t-102-42q-59.43 0-101.71 42-42.29 42-42.29 102 0 54 34.79 94.28 34.78 40.29 86.34 47.72v261.22h-68.82Z"/></svg>