<svg xmlns="http://www.w3.org/2000/svg" height="20" viewBox="0 -960 960 960" width="20"><path d="m702-441.616 77.999 77.998v279.616H86.001v-695.997h286.615q-7.692 18.539-12.846 37.154-5.154 18.615-4.612 40.845H164v540h538v-279.616Zm50.076-167.461 101.308 104.308-55.153 55.153-101.308-104.308q-22.462 19.923-45.669 24.231-23.208 4.307-47.254 4.307-73.846 0-124.23-51.384T429.386-702q0-73.846 50.384-124.23T604-876.614q73.846 0 125.23 50.384T780.614-702q0 24-5.192 48.231-5.192 24.23-23.346 44.692Zm-147.118 5.693q40.965 0 69.311-28.304 28.347-28.304 28.347-69.27 0-40.965-28.304-69.311-28.304-28.347-69.27-28.347-40.965 0-69.311 28.304-28.347 28.304-28.347 69.27 0 40.965 28.304 69.311 28.304 28.347 69.27 28.347ZM164-442.014V-162v-540 248.614-12.615 23.987Z"/></svg>