<svg xmlns="http://www.w3.org/2000/svg" height="40" viewBox="0 -960 960 960" width="40"><path d="M202.57-100q-25.71 0-44.14-18.43T140-162.57v-491.94q0-21.04 11.12-38.71 11.13-17.68 31.7-24.27L485.28-820.1q30.49-10.36 56.4 8.32 25.91 18.67 25.91 51.48v49.07h26.87q25.96 0 44.26 18.43 18.3 18.43 18.3 44.13V-560q0 10.71-7.24 17.92-7.25 7.21-18 7.21t-17.88-7.21q-7.13-7.21-7.13-17.92v-88.67q0-5.12-3.46-8.71-3.46-3.59-8.85-3.59H202.57q-5.39 0-8.85 3.59t-3.46 8.71v486.1q0 5.39 3.46 8.85t8.85 3.46h234.69q10.45 0 17.79 7.25 7.34 7.24 7.34 18 0 10.75-7.34 17.88-7.34 7.13-17.79 7.13H202.57Zm115.17-611.23h199.59v-49.54q0-5.89-4.8-9.74-4.81-3.85-10.58-2.18l-184.21 61.46Zm358.67 601.74q-74.92 0-126.31-51.26-51.38-51.25-51.38-126.17 0-74.93 51.38-126.31 51.39-51.38 126.31-51.38 74.67 0 126.05 51.38 51.38 51.38 51.38 126.31 0 74.92-51.38 126.17-51.38 51.26-126.05 51.26Zm-21.44-109.84 83.13-55.18q6.98-4.62 6.98-13.02 0-8.39-6.98-13.34l-83.13-55.18q-8.15-5.21-16.33-.82-8.18 4.38-8.18 14v110.36q0 9.62 8.18 14 8.18 4.38 16.33-.82Zm-464.71 69.07v-510.71 510.71Z"/></svg>