<svg xmlns="http://www.w3.org/2000/svg" height="24" viewBox="0 -960 960 960" width="24"><path d="m272.38-218.38-231.61-42 11.85-64.54 236 43.77-16.24 62.77Zm36.47-138.85L44.08-428.15l19.77-61.77 262 69.15-17 63.54ZM548-593.08 373-849.15l52.92-38.47 176.23 257.54-54.15 37Zm191.69 245.77L696-391.54l63.15-47.38q6.54-4.31 11.35-10.23 4.81-5.93 7.58-14.23L817-631.23l-104.15 92.92L570.77-896l56.54-25.38 119.46 284.92 82.38-91.62 73.54 40.93-62.07 241.46q-6.47 19.92-17.16 34.57-10.69 14.66-25.84 25.35l-57.93 38.46ZM611-358 161.46-589.08l35.08-58.38 263.08 138.08L611-358ZM75.69-81.15l8.69-66.54L462.23-113q31.39 3.77 56.73-14.69 25.35-18.46 34.89-49.08l32.23-113.54L65.69-811.69 112-858l752 752-46.31 46.31-179.23-178.23-22.08 78.38q-16.69 55-60.5 86.27Q512.08-42 456.31-48L75.69-81.15Zm510.39-209.16ZM696-391.54Z"/></svg>