<svg xmlns="http://www.w3.org/2000/svg" height="24" width="24"><path d="M0.95 21.7V17.875Q0.95 16.825 1.5 15.925Q2.05 15.025 2.95 14.55Q4.525 13.75 6.325 13.3Q8.125 12.85 9.925 12.85Q10.7 12.85 11.638 12.962Q12.575 13.075 13.35 13.25L10.6 15.975Q10.45 15.95 10.288 15.938Q10.125 15.925 9.925 15.925Q8.45 15.925 7.025 16.325Q5.6 16.725 4.475 17.225Q4.25 17.325 4.138 17.512Q4.025 17.7 4.025 17.95V18.625H10L13.2 21.7ZM16.075 21.5 12.15 17.575 14 15.725 16.075 17.8 21.175 12.7 23.05 14.55ZM9.925 11.55Q7.9 11.55 6.488 10.15Q5.075 8.75 5.075 6.725Q5.075 4.7 6.488 3.3Q7.9 1.9 9.925 1.9Q11.95 1.9 13.363 3.3Q14.775 4.7 14.775 6.725Q14.775 8.75 13.363 10.15Q11.95 11.55 9.925 11.55ZM10 18.625Q10 18.625 10 18.625Q10 18.625 10 18.625Q10 18.625 10 18.625Q10 18.625 10 18.625Q10 18.625 10 18.625Q10 18.625 10 18.625ZM9.925 8.475Q10.65 8.475 11.175 7.962Q11.7 7.45 11.7 6.725Q11.7 6 11.188 5.487Q10.675 4.975 9.925 4.975Q9.2 4.975 8.675 5.487Q8.15 6 8.15 6.725Q8.15 7.45 8.663 7.962Q9.175 8.475 9.925 8.475ZM9.925 6.725Q9.925 6.725 9.925 6.725Q9.925 6.725 9.925 6.725Q9.925 6.725 9.925 6.725Q9.925 6.725 9.925 6.725Q9.925 6.725 9.925 6.725Q9.925 6.725 9.925 6.725Q9.925 6.725 9.925 6.725Q9.925 6.725 9.925 6.725Z"/></svg>