<svg xmlns="http://www.w3.org/2000/svg" height="40" viewBox="0 -960 960 960" width="40"><path d="M346.41-308.8q-14.35 0-24.24-9.93-9.89-9.93-9.89-24.33 0-13.74 9.89-23.53 9.89-9.79 24.24-9.79h78.34q13.67 0 23.9 9.93 10.22 9.92 10.22 23.66 0 14.4-10.22 24.2-10.23 9.79-23.9 9.79h-78.34ZM322.59-78.67q-85.24 0-144.58-60.07-59.34-60.08-59.34-145.31v-350.54q-32.64-4-55.03-25.53-22.38-21.52-22.38-53.83v-87.64q0-33.81 24.46-56.78 24.47-22.96 59.28-22.96h395.13q34.3 0 59.05 22.96 24.74 22.97 24.74 56.78v87.64q0 31.64-22.91 53.5t-54.55 25.86v84.97q0 33.61-23.48 56.76-23.47 23.14-56.42 23.14H346.41q-14.35 0-24.24-9.93-9.89-9.93-9.89-24.33 0-13.74 9.89-23.53 9.89-9.8 24.24-9.8h112.46v-96.28H186.26v349.54q0 57.75 39.22 97.77 39.22 40.02 97.21 40.02 22.93 0 43.79-7.64 20.87-7.65 37.62-20.84 11.03-7.75 24.64-3.94 13.62 3.81 20.75 15.45 7.56 13.31 2.25 27.94-5.32 14.64-18.41 22.75-23.66 16.2-51.9 25.04-28.24 8.83-58.84 8.83ZM671.57-180.1q42.56 0 72.67-29.69 30.12-29.69 30.12-72.91 0-42.56-30.02-72.34t-72.58-29.78q-42.56 0-72.34 29.69t-29.78 72.24q0 43.22 29.69 73.01 29.69 29.78 72.24 29.78Zm.1 67.59q-71.2 0-120.41-49.57-49.21-49.57-49.21-120.81 0-70.57 49.24-120.05 49.23-49.47 120.47-49.47 71.24 0 120.71 49.54 49.48 49.54 49.48 120.07 0 26.3-7.45 49.77-7.45 23.47-21.3 43.77l86.49 87.49q9.23 9.9 9.73 23.14t-9.73 23.48q-9.9 9.89-23.9 9.89-14 0-23.1-9.89l-87.49-86.11q-20.97 13.85-44.44 21.3-23.46 7.45-49.09 7.45Z"/></svg>