<svg xmlns="http://www.w3.org/2000/svg" height="48" viewBox="0 -960 960 960" width="48"><path d="M251.91-189.87q-45.94 0-68.27-39.64-22.34-39.64 3.38-78.82l110.83-171.92-110.83-171.92q-25.72-38.68-3.38-78.6 22.33-39.93 68.27-39.93h338.17q26.55 0 48.72 13.17 22.17 13.16 37.81 34.18L818.28-524.8q14.46 19.59 14.21 44.55-.25 24.97-14.71 45.05L675.04-234.52q-14.07 19.09-35.04 31.87-20.97 12.78-45.42 12.78H251.91Zm351.24-76.72L754.96-480 603.39-693.41H252.98l109.76 171.17q12.33 19.96 12.33 42.43 0 22.46-12.33 42.05L252.98-266.59h350.17ZM504.22-480Z"/></svg>