<svg xmlns="http://www.w3.org/2000/svg" height="20" width="20"><path d="M16.667 19.021 1.375 3.708q-.25-.25-.26-.625-.011-.375.239-.625.292-.27.656-.27.365 0 .636.27l15.292 15.271q.25.292.25.656 0 .365-.25.636-.271.25-.636.25-.364 0-.635-.25Zm1.187-3.667-1.979-1.979.937-7.542h-8.25l-.124-.979q-.042-.5.281-.854t.802-.354h3.146V1.729q0-.396.302-.708.302-.313.698-.313.395 0 .698.313.302.312.302.708v1.917h3.395q.48 0 .792.364.313.365.271.865Zm-5.625-5.625ZM1.625 15.833q-.354 0-.635-.271-.282-.27-.282-.624 0-.355.282-.636.281-.281.635-.281h10.021q.354 0 .625.281t.271.636q0 .354-.271.624-.271.271-.625.271Zm0 3.5q-.354 0-.635-.281-.282-.281-.282-.635 0-.375.282-.646.281-.271.635-.271h10.021q.354 0 .625.271t.271.646q0 .354-.271.635t-.625.281Zm6.417-11.5v1.834q-.354-.063-.719-.105-.365-.041-.698-.041-.937 0-1.844.291-.906.292-1.51.917h7.625l1.833 1.813H1.896q-.5 0-.823-.354-.323-.355-.198-.813.479-1.854 2.156-2.76 1.677-.907 3.615-.907.354 0 .708.032.354.031.688.093Zm-1.417 2.896Z"/></svg>