<svg xmlns="http://www.w3.org/2000/svg" height="20" width="20"><path d="M3.5 17.25Q3.208 17.25 2.979 17.021Q2.75 16.792 2.75 16.5V11.625Q2.75 11.375 2.938 11.188Q3.125 11 3.375 11Q3.625 11 3.812 11.188Q4 11.375 4 11.625V15.104L15.104 4H11.625Q11.375 4 11.188 3.812Q11 3.625 11 3.375Q11 3.125 11.188 2.938Q11.375 2.75 11.625 2.75H16.5Q16.792 2.75 17.021 2.979Q17.25 3.208 17.25 3.5V8.375Q17.25 8.625 17.062 8.812Q16.875 9 16.625 9Q16.375 9 16.188 8.812Q16 8.625 16 8.375V4.896L4.896 16H8.375Q8.625 16 8.812 16.188Q9 16.375 9 16.625Q9 16.875 8.812 17.062Q8.625 17.25 8.375 17.25Z"/></svg>