<svg xmlns="http://www.w3.org/2000/svg" height="20" viewBox="0 -960 960 960" width="20"><path d="m772.59-91.96-57.46-57.45v8.61H238.87v-146.3h-139v-241.91q0-38.42 26.25-66.72 26.25-28.29 64.47-30.68h47.54L91.46-773.09l49.89-49.89 681.13 681.13-49.89 49.89ZM316.87-217.13h320.26v-10.28L521.59-342.72H316.87v125.59Zm459.7-70.17-78-78h83.56v-149.37q0-14.47-9.44-24.47-9.44-9.99-23.73-9.99H514.98l-78-78h325.74q40.15 0 68.78 29.01 28.63 29.01 28.63 69.12v241.7h-83.56Zm-598.7-78h61v-55.42h204.72L315.41-549.13H212.28q-14.05 0-24.23 10.03-10.18 10.04-10.18 24.5v149.3Zm465.26-261.83v-107H329.98l-78.24-78h469.39v185h-78Zm59.66 175.04q14.52 0 25.07-10.34t10.55-24.86q0-14.52-10.34-25.07t-24.86-10.55q-14.52 0-25.07 10.34t-10.55 24.86q0 14.52 10.34 25.07t24.86 10.55Zm-490.51-97.04h103.13H177.87h34.41Zm536.68 0h34.17-268.15 233.98Z"/></svg>