<svg xmlns="http://www.w3.org/2000/svg" height="20" viewBox="0 -960 960 960" width="20"><path d="M170.5-310q-8-10-12.75-18.75T153-347.5V-650q0-14.5 7.25-24.25T180-689.5l235.5-108q9.5-5.5 20-5t20 5l235 108q9.5 3 15 9.25t8.5 14.75h-19L435.5-789l-265 123.5V-310ZM331-201q-21.5 0-35.5-14.25t-14-35.25v-255q0-21 14-35.25T331-555h426.5q21 0 35.25 14.25T807-505.5v255q0 21-14.25 35.25T757.5-201H331Zm213.5-177q5.5 0 11.75-2t12.25-5L785-502q2.5-1.5 4.75-3.5t3.25-5q1-9.5-6.75-15t-15.75-.5l-226 122-226-122q-7.5-5-15.75.5t-6.75 15q1 3.5 3 5.25t5 3.25l216.5 117q5.5 3 11.75 5t12.25 2Z"/></svg>