<svg xmlns="http://www.w3.org/2000/svg" height="40" width="40"><path d="m20 25.125-3.5 3.542q-.167.125-.375.145-.208.021-.333-.145-.167-.167-.167-.355 0-.187.167-.354l3.5-3.5-3.5-3.583q-.125-.083-.146-.292-.021-.208.146-.375.125-.166.312-.166.188 0 .396.166L20 23.75l3.542-3.542q.125-.125.333-.146.208-.02.375.146.125.167.125.354 0 .188-.125.313l-3.542 3.583 3.542 3.5q.083.125.104.334.021.208-.104.375-.167.166-.354.166-.188 0-.354-.166ZM9.5 34.417q-.917 0-1.604-.667-.688-.667-.688-1.625V11q0-.917.688-1.604.687-.688 1.646-.688h3.583V5.625q0-.208.146-.396.146-.187.396-.187.291 0 .458.187.167.188.167.396v3.083h11.583V5.542q0-.209.146-.354.146-.146.354-.146.25 0 .396.166.146.167.146.334v3.166h3.541q.959 0 1.646.688.688.687.688 1.604v21.125q0 .958-.688 1.625-.687.667-1.604.667Zm.042-.959h20.916q.584 0 .959-.375t.375-.958V17.917H8.208v14.208q0 .583.375.958t.959.375Zm-1.334-16.5h23.584V11q0-.583-.375-.958t-.959-.375H9.542q-.584 0-.959.375T8.208 11Zm0 0V9.667v7.291Z"/></svg>