<svg xmlns="http://www.w3.org/2000/svg" height="20" viewBox="0 -960 960 960" width="20"><path d="m435-456.5 46.5-129q17.38-44.16 59.72-64.33 42.35-20.17 86.28-2.67l184 66q66.62 23.19 95.56 86.6Q936-436.5 913-371l-28 77.5q-7.58 21.93-28.54 31.47-20.96 9.53-42.96 2.03l-345-125q-21.93-7.58-31.47-28.54-9.53-20.96-2.03-42.96ZM759-108 93-351q-21-8.51-31.25-29.57-10.25-21.06-1.25-42.46 9-21.97 28.5-31.22t41.5-1.75L796-212.5q22 8.51 32.25 29.07 10.25 20.56 1.25 42.96-9 21.97-28.75 30.97T759-108ZM280.94-461Q220-461 178-503.56t-42-103.5q0-60.94 42.06-103.44t103-42.5q60.94 0 103.44 42.56t42.5 103.5q0 60.94-42.56 103.44T280.94-461Z"/></svg>