<svg xmlns="http://www.w3.org/2000/svg" version="1.1" width="3300" height="2000"><g id="Notes"><style>
    text {
      font-family: monospace;
      text-anchor: middle;
    }
    text.emphasis {
      font-weight:bold;
    }
    text.lanchor {
      text-anchor: start;
    }
  </style><rect height="2200" id="artboard" fill="white" width="3300" x="0" y="0"/><line id="" style="fill:none;stroke:black;stroke-width:0.5;" x1="263" x2="3036" y1="292" y2="292"/><text class="lanchor emphasis" transform="matrix(1 0 0 1 263 322)">Weight/Scale Variations</text><text transform="matrix(1 0 0 1 559.711 322)">Ultralight</text><text transform="matrix(1 0 0 1 856.422 322)">Thin</text><text transform="matrix(1 0 0 1 1153.13 322)">Light</text><text transform="matrix(1 0 0 1 1449.84 322)">Regular</text><text transform="matrix(1 0 0 1 1746.56 322)">Medium</text><text transform="matrix(1 0 0 1 2043.27 322)">Semibold</text><text transform="matrix(1 0 0 1 2339.98 322)">Bold</text><text transform="matrix(1 0 0 1 2636.69 322)">Heavy</text><text transform="matrix(1 0 0 1 2933.4 322)">Black</text><text id="template-version" style="text-anchor: end;" transform="matrix(1 0 0 1 3036 1933)">Template v.1.0</text><text class="lanchor" transform="matrix(1 0 0 1 263 726)">Small</text><text class="lanchor" transform="matrix(1 0 0 1 263 1156)">Medium</text><text class="lanchor" transform="matrix(1 0 0 1 263 1586)">Large</text></g><g id="Guides"><g id="H-reference" style="fill:#27AAE1;stroke:none;" transform="matrix(1 0 0 1 339 696)"><path d="M 54.9316 0 L 57.666 0 L 30.5664 -70.459 L 28.0762 -70.459 L 0.976562 0 L 3.66211 0 L 12.9395 -24.4629 L 45.7031 -24.4629 Z M 29.1992 -67.0898 L 29.4434 -67.0898 L 44.8242 -26.709 L 13.8184 -26.709 Z"/></g><line id="Baseline-S" style="fill:none;stroke:#27AAE1;opacity:1;stroke-width:0.577;" x1="263" x2="3036" y1="696" y2="696"/><line id="Capline-S" style="fill:none;stroke:#27AAE1;opacity:1;stroke-width:0.577;" x1="263" x2="3036" y1="625.541" y2="625.541"/><g id="H-reference" style="fill:#27AAE1;stroke:none;" transform="matrix(1 0 0 1 339 1126)"><path d="M 54.9316 0 L 57.666 0 L 30.5664 -70.459 L 28.0762 -70.459 L 0.976562 0 L 3.66211 0 L 12.9395 -24.4629 L 45.7031 -24.4629 Z M 29.1992 -67.0898 L 29.4434 -67.0898 L 44.8242 -26.709 L 13.8184 -26.709 Z"/></g><line id="Baseline-M" style="fill:none;stroke:#27AAE1;opacity:1;stroke-width:0.577;" x1="263" x2="3036" y1="1126" y2="1126"/><line id="Capline-M" style="fill:none;stroke:#27AAE1;opacity:1;stroke-width:0.577;" x1="263" x2="3036" y1="1055.54" y2="1055.54"/><g id="H-reference" style="fill:#27AAE1;stroke:none;" transform="matrix(1 0 0 1 339 1556)"><path d="M 54.9316 0 L 57.666 0 L 30.5664 -70.459 L 28.0762 -70.459 L 0.976562 0 L 3.66211 0 L 12.9395 -24.4629 L 45.7031 -24.4629 Z M 29.1992 -67.0898 L 29.4434 -67.0898 L 44.8242 -26.709 L 13.8184 -26.709 Z"/></g><line id="Baseline-L" style="fill:none;stroke:#27AAE1;opacity:1;stroke-width:0.577;" x1="263" x2="3036" y1="1556" y2="1556"/><line id="Capline-L" style="fill:none;stroke:#27AAE1;opacity:1;stroke-width:0.577;" x1="263" x2="3036" y1="1485.54" y2="1485.54"/><rect height="119.336" id="left-margin" style="fill:darkred;stroke:none;opacity:0.4;" width="12.4512" x="1394.06" y="1030.79"/><rect height="119.336" id="right-margin" style="fill:darkgreen;stroke:none;opacity:0.4;" width="12.4512" x="1502.5112" y="1030.79"/><rect x="1406.5112" y="1045" width="96" height="96" fill="none" stroke="blue" stroke-dasharray="5"/><rect x="1394.06" y="1030.79" width="120.9024" height="119.336" fill="none" stroke="blue"/></g><g id="Symbols"><g id="Bold-L" transform="matrix(1 0 0 1 2266 1556)"><path d="M25.155 12.338750000000005 Q19.027500000000003 12.338750000000005 14.754375000000001 8.065624999999997 Q10.481250000000001 3.792500000000018 10.481250000000001 -2.3349999999999795 V-68.28625 Q10.481250000000001 -74.2525 14.754375000000001 -78.60624999999999 Q19.027500000000003 -82.96 25.155 -82.96 H129.80625 Q135.7725 -82.96 140.12625 -78.60624999999999 Q144.48 -74.2525 144.48 -68.28625 V-2.3349999999999795 Q144.48 3.792500000000018 140.12625 8.065624999999997 Q135.7725 12.338750000000005 129.80625 12.338750000000005 H25.155 Z M91.2675 -42.647499999999994 H129.80625 V-68.28625 Q129.80625 -68.28625 129.80625 -68.28625 Q129.80625 -68.28625 129.80625 -68.28625 H91.2675 V-42.647499999999994 Z M25.155 -2.3349999999999795 H76.59375 V-68.28625 H25.155 Q25.155 -68.28625 25.155 -68.28625 Q25.155 -68.28625 25.155 -68.28625 V-2.3349999999999795 Q25.155 -2.3349999999999795 25.155 -2.3349999999999795 Q25.155 -2.3349999999999795 25.155 -2.3349999999999795 Z M51.6 -24.748749999999987 Q47.24625 -24.748749999999987 44.1825 -27.812499999999986 Q41.11875 -30.876249999999985 41.11875 -35.39125 Q41.11875 -39.74499999999999 44.1825 -42.80875 Q47.24625 -45.8725 51.761250000000004 -45.8725 Q56.114999999999995 -45.8725 59.17875000000001 -42.72812499999999 Q62.24250000000001 -39.583749999999995 62.24250000000001 -35.22999999999999 Q62.24250000000001 -30.876249999999985 59.098124999999996 -27.812499999999986 Q55.95375000000001 -24.748749999999987 51.6 -24.748749999999987 Z M91.2675 -2.3349999999999795 H129.80625 Q129.80625 -2.3349999999999795 129.80625 -2.3349999999999795 Q129.80625 -2.3349999999999795 129.80625 -2.3349999999999795 V-27.973749999999995 H91.2675 V-2.3349999999999795 Z"/></g><g id="Semibold-L" transform="matrix(1 0 0 1 1970.27 1556)"><path d="M24.509999999999998 11.693749999999994 Q19.027500000000003 11.693749999999994 15.076875 7.7431250000000205 Q11.12625 3.792500000000018 11.12625 -1.6899999999999977 V-68.93124999999999 Q11.12625 -74.2525 15.076875 -78.28375 Q19.027500000000003 -82.315 24.509999999999998 -82.315 H130.45125000000002 Q135.7725 -82.315 139.80375 -78.28375 Q143.835 -74.2525 143.835 -68.93124999999999 V-1.6899999999999977 Q143.835 3.792500000000018 139.80375 7.7431250000000205 Q135.7725 11.693749999999994 130.45125000000002 11.693749999999994 H24.509999999999998 Z M90.6225 -42.0025 H130.45125000000002 V-68.93124999999999 Q130.45125000000002 -68.93124999999999 130.45125000000002 -68.93124999999999 Q130.45125000000002 -68.93124999999999 130.45125000000002 -68.93124999999999 H90.6225 V-42.0025 Z M24.509999999999998 -1.6899999999999977 H77.23875 V-68.93124999999999 H24.509999999999998 Q24.509999999999998 -68.93124999999999 24.509999999999998 -68.93124999999999 Q24.509999999999998 -68.93124999999999 24.509999999999998 -68.93124999999999 V-1.6899999999999977 Q24.509999999999998 -1.6899999999999977 24.509999999999998 -1.6899999999999977 Q24.509999999999998 -1.6899999999999977 24.509999999999998 -1.6899999999999977 Z M51.6 -25.393749999999997 Q47.4075 -25.393749999999997 44.585625 -28.29625 Q41.76375 -31.19874999999999 41.76375 -35.39125 Q41.76375 -39.583749999999995 44.66625 -42.405625 Q47.56875 -45.22749999999999 51.761250000000004 -45.22749999999999 Q55.95375000000001 -45.22749999999999 58.775625000000005 -42.32499999999999 Q61.597500000000004 -39.4225 61.597500000000004 -35.22999999999999 Q61.597500000000004 -31.037499999999994 58.695 -28.21562499999999 Q55.792500000000004 -25.393749999999997 51.6 -25.393749999999997 Z M90.6225 -1.6899999999999977 H130.45125000000002 Q130.45125000000002 -1.6899999999999977 130.45125000000002 -1.6899999999999977 Q130.45125000000002 -1.6899999999999977 130.45125000000002 -1.6899999999999977 V-28.61874999999999 H90.6225 V-1.6899999999999977 Z"/></g><g id="Medium-L" transform="matrix(1 0 0 1 1674.31 1556)"><path d="M24.02625 11.210000000000008 Q19.027500000000003 11.210000000000008 15.31875 7.501250000000013 Q11.610000000000001 3.792500000000018 11.610000000000001 -1.2062499999999972 V-69.41499999999999 Q11.610000000000001 -74.41375 15.31875 -78.1225 Q19.027500000000003 -81.83125 24.02625 -81.83125 H130.935 Q135.93375 -81.83125 139.64249999999998 -78.1225 Q143.35125000000002 -74.41375 143.35125000000002 -69.41499999999999 V-1.2062499999999972 Q143.35125000000002 3.792500000000018 139.64249999999998 7.501250000000013 Q135.93375 11.210000000000008 130.935 11.210000000000008 H24.02625 Z M90.13875 -41.51875 H130.935 V-69.41499999999999 Q130.935 -69.41499999999999 130.935 -69.41499999999999 Q130.935 -69.41499999999999 130.935 -69.41499999999999 H90.13875 V-41.51875 Z M24.02625 -1.2062499999999972 H77.72250000000001 V-69.41499999999999 H24.02625 Q24.02625 -69.41499999999999 24.02625 -69.41499999999999 Q24.02625 -69.41499999999999 24.02625 -69.41499999999999 V-1.2062499999999972 Q24.02625 -1.2062499999999972 24.02625 -1.2062499999999972 Q24.02625 -1.2062499999999972 24.02625 -1.2062499999999972 Z M51.6 -25.877499999999998 Q47.730000000000004 -25.877499999999998 44.988749999999996 -28.61874999999999 Q42.2475 -31.36 42.2475 -35.39125 Q42.2475 -39.26124999999999 44.988749999999996 -42.0025 Q47.730000000000004 -44.74374999999999 51.761250000000004 -44.74374999999999 Q55.63125 -44.74374999999999 58.37250000000001 -42.0025 Q61.113749999999996 -39.26124999999999 61.113749999999996 -35.22999999999999 Q61.113749999999996 -31.36 58.37250000000001 -28.61874999999999 Q55.63125 -25.877499999999998 51.6 -25.877499999999998 Z M90.13875 -1.2062499999999972 H130.935 Q130.935 -1.2062499999999972 130.935 -1.2062499999999972 Q130.935 -1.2062499999999972 130.935 -1.2062499999999972 V-29.102499999999992 H90.13875 V-1.2062499999999972 Z"/></g><g id="Regular-L" transform="matrix(1 0 0 1 1378.56 1556)"><path d="M23.70375 10.887500000000003 Q19.027500000000003 10.887500000000003 15.48 7.340000000000018 Q11.932500000000001 3.792500000000018 11.932500000000001 -0.883749999999992 V-69.73749999999998 Q11.932500000000001 -74.41375 15.48 -77.96124999999999 Q19.027500000000003 -81.50874999999999 23.70375 -81.50874999999999 H131.25750000000002 Q135.93375 -81.50874999999999 139.48125000000002 -77.96124999999999 Q143.02875 -74.41375 143.02875 -69.73749999999998 V-0.883749999999992 Q143.02875 3.792500000000018 139.48125000000002 7.340000000000018 Q135.93375 10.887500000000003 131.25750000000002 10.887500000000003 H23.70375 Z M89.81625000000001 -41.19624999999999 H131.25750000000002 V-69.73749999999998 Q131.25750000000002 -69.73749999999998 131.25750000000002 -69.73749999999998 Q131.25750000000002 -69.73749999999998 131.25750000000002 -69.73749999999998 H89.81625000000001 V-41.19624999999999 Z M23.70375 -0.883749999999992 H78.045 V-69.73749999999998 H23.70375 Q23.70375 -69.73749999999998 23.70375 -69.73749999999998 Q23.70375 -69.73749999999998 23.70375 -69.73749999999998 V-0.883749999999992 Q23.70375 -0.883749999999992 23.70375 -0.883749999999992 Q23.70375 -0.883749999999992 23.70375 -0.883749999999992 Z M51.6 -26.19999999999999 Q47.89125 -26.19999999999999 45.230625 -28.860624999999985 Q42.57 -31.521249999999995 42.57 -35.39125 Q42.57 -39.099999999999994 45.230625 -41.76062499999999 Q47.89125 -44.42125 51.761250000000004 -44.42125 Q55.47 -44.42125 58.130624999999995 -41.76062499999999 Q60.791250000000005 -39.099999999999994 60.791250000000005 -35.22999999999999 Q60.791250000000005 -31.521249999999995 58.130624999999995 -28.860624999999985 Q55.47 -26.19999999999999 51.6 -26.19999999999999 Z M89.81625000000001 -0.883749999999992 H131.25750000000002 Q131.25750000000002 -0.883749999999992 131.25750000000002 -0.883749999999992 Q131.25750000000002 -0.883749999999992 131.25750000000002 -0.883749999999992 V-29.424999999999997 H89.81625000000001 V-0.883749999999992 Z"/></g><g id="Light-L" transform="matrix(1 0 0 1 1082.77 1556)"><path d="M26.1225 7.984999999999999 Q21.446250000000003 7.984999999999999 18.140625 4.679375000000007 Q14.834999999999999 1.3737500000000153 14.834999999999999 -3.302499999999995 V-67.31875 Q14.834999999999999 -71.83375 18.140625 -75.22 Q21.446250000000003 -78.60624999999999 26.1225 -78.60624999999999 H128.83875 Q133.35375000000002 -78.60624999999999 136.74 -75.22 Q140.12625 -71.83375 140.12625 -67.31875 V-3.302499999999995 Q140.12625 1.3737500000000153 136.74 4.679375000000007 Q133.35375000000002 7.984999999999999 128.83875 7.984999999999999 H26.1225 Z M88.0425 -40.067499999999995 H130.77375 V-67.31875 Q130.77375 -67.96375 130.12875 -68.60874999999999 Q129.48375 -69.25375 128.83875 -69.25375 H88.0425 V-40.067499999999995 Z M26.1225 -1.3674999999999926 H78.52875 V-69.25375 H26.1225 Q25.477500000000003 -69.25375 24.8325 -68.60874999999999 Q24.1875 -67.96375 24.1875 -67.31875 V-3.302499999999995 Q24.1875 -2.6574999999999847 24.8325 -2.012500000000003 Q25.477500000000003 -1.3674999999999926 26.1225 -1.3674999999999926 Z M51.6 -27.32875 Q48.21375 -27.32875 45.956250000000004 -29.586249999999993 Q43.698750000000004 -31.843749999999986 43.698750000000004 -35.22999999999999 Q43.698750000000004 -38.7775 45.956250000000004 -41.035 Q48.21375 -43.29249999999999 51.6 -43.29249999999999 Q55.14750000000001 -43.29249999999999 57.405 -40.954374999999985 Q59.6625 -38.616249999999994 59.6625 -35.22999999999999 Q59.6625 -31.843749999999986 57.324374999999996 -29.586249999999993 Q54.986250000000005 -27.32875 51.6 -27.32875 Z M88.0425 -1.3674999999999926 H128.83875 Q129.48375 -1.3674999999999926 130.12875 -2.012500000000003 Q130.77375 -2.6574999999999847 130.77375 -3.302499999999995 V-30.553749999999994 H88.0425 V-1.3674999999999926 Z"/></g><g id="Thin-L" transform="matrix(1 0 0 1 787.282 1556)"><path d="M28.7025 5.243750000000006 Q24.02625 5.243750000000006 20.80125 2.018749999999997 Q17.57625 -1.2062499999999972 17.57625 -5.882499999999993 V-64.73875 Q17.57625 -69.25375 20.80125 -72.55937499999999 Q24.02625 -75.865 28.7025 -75.865 H126.25874999999999 Q130.77375 -75.865 134.079375 -72.55937499999999 Q137.38500000000002 -69.25375 137.38500000000002 -64.73875 V-5.882499999999993 Q137.38500000000002 -1.2062499999999972 134.079375 2.018749999999997 Q130.77375 5.243750000000006 126.25874999999999 5.243750000000006 H28.7025 Z M86.26875 -38.7775 H130.29 V-64.73875 Q130.29 -66.19 129.0 -67.47999999999999 Q127.71000000000001 -68.77 126.25874999999999 -68.77 H86.26875 V-38.7775 Z M28.7025 -1.8512499999999932 H79.17375 V-68.77 H28.7025 Q27.25125 -68.77 25.961250000000003 -67.47999999999999 Q24.67125 -66.19 24.67125 -64.73875 V-5.882499999999993 Q24.67125 -4.431250000000006 25.961250000000003 -3.141249999999985 Q27.25125 -1.8512499999999932 28.7025 -1.8512499999999932 Z M51.6 -28.29625 Q48.53625 -28.29625 46.60125 -30.23124999999999 Q44.66625 -32.16624999999999 44.66625 -35.22999999999999 Q44.66625 -38.29374999999999 46.60125 -40.30937499999999 Q48.53625 -42.32499999999999 51.6 -42.32499999999999 Q54.66375 -42.32499999999999 56.679375 -40.22874999999999 Q58.695 -38.13249999999999 58.695 -35.22999999999999 Q58.695 -32.16624999999999 56.59875 -30.23124999999999 Q54.5025 -28.29625 51.6 -28.29625 Z M86.26875 -1.8512499999999932 H126.25874999999999 Q127.71000000000001 -1.8512499999999932 129.0 -3.141249999999985 Q130.29 -4.431250000000006 130.29 -5.882499999999993 V-31.843749999999986 H86.26875 V-1.8512499999999932 Z"/></g><g id="Ultralight-L" transform="matrix(1 0 0 1 491.205 1556)"><path d="M30.15375 3.470000000000013 Q25.63875 3.470000000000013 22.494374999999998 0.3256250000000023 Q19.35 -2.8187500000000085 19.35 -7.333749999999995 V-63.287499999999994 Q19.35 -67.8025 22.494374999999998 -70.94687499999999 Q25.63875 -74.09125 30.15375 -74.09125 H124.80750000000002 Q129.32250000000002 -74.09125 132.46687500000002 -70.94687499999999 Q135.61124999999998 -67.8025 135.61124999999998 -63.287499999999994 V-7.333749999999995 Q135.61124999999998 -2.8187500000000085 132.46687500000002 0.3256250000000023 Q129.32250000000002 3.470000000000013 124.80750000000002 3.470000000000013 H30.15375 Z M85.14 -38.13249999999999 H129.9675 V-63.287499999999994 Q129.9675 -65.2225 128.355 -66.835 Q126.74249999999999 -68.44749999999999 124.80750000000002 -68.44749999999999 H85.14 V-38.13249999999999 Z M30.15375 -2.1737499999999983 H79.49625 V-68.44749999999999 H30.15375 Q28.21875 -68.44749999999999 26.60625 -66.835 Q24.993750000000002 -65.2225 24.993750000000002 -63.287499999999994 V-7.333749999999995 Q24.993750000000002 -5.398749999999993 26.60625 -3.7862499999999955 Q28.21875 -2.1737499999999983 30.15375 -2.1737499999999983 Z M51.6 -28.941249999999997 Q48.85875 -28.941249999999997 47.085 -30.715000000000003 Q45.31125 -32.48874999999998 45.31125 -35.22999999999999 Q45.31125 -37.97125 47.085 -39.825625 Q48.85875 -41.67999999999999 51.6 -41.67999999999999 Q54.34125000000001 -41.67999999999999 56.19562500000001 -39.825625 Q58.050000000000004 -37.97125 58.050000000000004 -35.22999999999999 Q58.050000000000004 -32.48874999999998 56.19562500000001 -30.715000000000003 Q54.34125000000001 -28.941249999999997 51.6 -28.941249999999997 Z M85.14 -2.1737499999999983 H124.80750000000002 Q126.74249999999999 -2.1737499999999983 128.355 -3.7862499999999955 Q129.9675 -5.398749999999993 129.9675 -7.333749999999995 V-32.48874999999998 H85.14 V-2.1737499999999983 Z"/></g><g id="Bold-M" transform="matrix(1 0 0 1 2281.8 1126)"><path d="M23.5 3.2700000000000102 Q16.375 3.2700000000000102 11.44 -1.6699999999999875 Q6.5 -6.60499999999999 6.5 -13.72999999999999 V-56.72999999999999 Q6.5 -63.85499999999999 11.44 -68.79499999999999 Q16.375 -73.72999999999999 23.5 -73.72999999999999 H96.5 Q103.625 -73.72999999999999 108.565 -68.79499999999999 Q113.5 -63.85499999999999 113.5 -56.72999999999999 V-13.72999999999999 Q113.5 -6.60499999999999 108.565 -1.6699999999999875 Q103.625 3.2700000000000102 96.5 3.2700000000000102 H23.5 Z M73.5 -43.72999999999999 H96.5 V-56.72999999999999 Q96.5 -56.72999999999999 96.5 -56.72999999999999 Q96.5 -56.72999999999999 96.5 -56.72999999999999 H73.5 V-43.72999999999999 Z M23.5 -13.72999999999999 H56.5 V-56.72999999999999 H23.5 Q23.5 -56.72999999999999 23.5 -56.72999999999999 Q23.5 -56.72999999999999 23.5 -56.72999999999999 V-13.72999999999999 Q23.5 -13.72999999999999 23.5 -13.72999999999999 Q23.5 -13.72999999999999 23.5 -13.72999999999999 Z M40.0 -24.22999999999999 Q35.5 -24.22999999999999 32.25 -27.47999999999999 Q29.0 -30.72999999999999 29.0 -35.35499999999999 Q29.0 -39.85499999999999 32.25 -43.039999999999985 Q35.5 -46.22999999999999 40.125 -46.22999999999999 Q44.625 -46.22999999999999 47.809999999999995 -43.039999999999985 Q51.0 -39.85499999999999 51.0 -35.22999999999999 Q51.0 -30.72999999999999 47.809999999999995 -27.47999999999999 Q44.625 -24.22999999999999 40.0 -24.22999999999999 Z M73.5 -13.72999999999999 H96.5 Q96.5 -13.72999999999999 96.5 -13.72999999999999 Q96.5 -13.72999999999999 96.5 -13.72999999999999 V-26.72999999999999 H73.5 V-13.72999999999999 Z"/></g><g id="Semibold-M" transform="matrix(1 0 0 1 1985.97 1126)"><path d="M22.625 2.3950000000000102 Q16.25 2.3950000000000102 11.81 -2.0449999999999875 Q7.375 -6.47999999999999 7.375 -12.85499999999999 V-57.60499999999999 Q7.375 -63.97999999999999 11.81 -68.41999999999999 Q16.25 -72.85499999999999 22.625 -72.85499999999999 H97.375 Q103.75 -72.85499999999999 108.19000000000001 -68.41999999999999 Q112.625 -63.97999999999999 112.625 -57.60499999999999 V-12.85499999999999 Q112.625 -6.47999999999999 108.19000000000001 -2.0449999999999875 Q103.75 2.3950000000000102 97.375 2.3950000000000102 H22.625 Z M72.625 -42.85499999999999 H97.375 V-57.60499999999999 Q97.375 -57.60499999999999 97.375 -57.60499999999999 Q97.375 -57.60499999999999 97.375 -57.60499999999999 H72.625 V-42.85499999999999 Z M22.625 -12.85499999999999 H57.375 V-57.60499999999999 H22.625 Q22.625 -57.60499999999999 22.625 -57.60499999999999 Q22.625 -57.60499999999999 22.625 -57.60499999999999 V-12.85499999999999 Q22.625 -12.85499999999999 22.625 -12.85499999999999 Q22.625 -12.85499999999999 22.625 -12.85499999999999 Z M40.0 -25.10499999999999 Q35.75 -25.10499999999999 32.81 -28.039999999999992 Q29.875 -30.97999999999999 29.875 -35.22999999999999 Q29.875 -39.47999999999999 32.81 -42.419999999999995 Q35.75 -45.35499999999999 40.0 -45.35499999999999 Q44.25 -45.35499999999999 47.190000000000005 -42.419999999999995 Q50.125 -39.47999999999999 50.125 -35.22999999999999 Q50.125 -30.97999999999999 47.190000000000005 -28.039999999999992 Q44.25 -25.10499999999999 40.0 -25.10499999999999 Z M72.625 -12.85499999999999 H97.375 Q97.375 -12.85499999999999 97.375 -12.85499999999999 Q97.375 -12.85499999999999 97.375 -12.85499999999999 V-27.60499999999999 H72.625 V-12.85499999999999 Z"/></g><g id="Medium-M" transform="matrix(1 0 0 1 1689.91 1126)"><path d="M22.125 1.8950000000000102 Q16.25 1.8950000000000102 12.065 -2.2949999999999875 Q7.875 -6.47999999999999 7.875 -12.35499999999999 V-58.10499999999999 Q7.875 -63.97999999999999 12.065 -68.16999999999999 Q16.25 -72.35499999999999 22.125 -72.35499999999999 H97.875 Q103.75 -72.35499999999999 107.935 -68.16999999999999 Q112.125 -63.97999999999999 112.125 -58.10499999999999 V-12.35499999999999 Q112.125 -6.47999999999999 107.935 -2.2949999999999875 Q103.75 1.8950000000000102 97.875 1.8950000000000102 H22.125 Z M72.125 -42.35499999999999 H97.875 V-58.10499999999999 Q97.875 -58.10499999999999 97.875 -58.10499999999999 Q97.875 -58.10499999999999 97.875 -58.10499999999999 H72.125 V-42.35499999999999 Z M22.125 -12.35499999999999 H57.875 V-58.10499999999999 H22.125 Q22.125 -58.10499999999999 22.125 -58.10499999999999 Q22.125 -58.10499999999999 22.125 -58.10499999999999 V-12.35499999999999 Q22.125 -12.35499999999999 22.125 -12.35499999999999 Q22.125 -12.35499999999999 22.125 -12.35499999999999 Z M40.0 -25.60499999999999 Q36.0 -25.60499999999999 33.19 -28.419999999999987 Q30.375 -31.22999999999999 30.375 -35.22999999999999 Q30.375 -39.22999999999999 33.19 -42.04499999999999 Q36.0 -44.85499999999999 40.0 -44.85499999999999 Q44.0 -44.85499999999999 46.815 -42.04499999999999 Q49.625 -39.22999999999999 49.625 -35.22999999999999 Q49.625 -31.22999999999999 46.815 -28.419999999999987 Q44.0 -25.60499999999999 40.0 -25.60499999999999 Z M72.125 -12.35499999999999 H97.875 Q97.875 -12.35499999999999 97.875 -12.35499999999999 Q97.875 -12.35499999999999 97.875 -12.35499999999999 V-28.10499999999999 H72.125 V-12.35499999999999 Z"/></g><g id="Regular-M" transform="matrix(1 0 0 1 1394.06 1126)"><path d="M21.625 1.3950000000000102 Q16.125 1.3950000000000102 12.25 -2.4799999999999898 Q8.375 -6.35499999999999 8.375 -11.85499999999999 V-58.60499999999999 Q8.375 -64.10499999999999 12.25 -67.97999999999999 Q16.125 -71.85499999999999 21.625 -71.85499999999999 H98.375 Q103.875 -71.85499999999999 107.75 -67.97999999999999 Q111.625 -64.10499999999999 111.625 -58.60499999999999 V-11.85499999999999 Q111.625 -6.35499999999999 107.75 -2.4799999999999898 Q103.875 1.3950000000000102 98.375 1.3950000000000102 H21.625 Z M71.625 -41.85499999999999 H98.375 V-58.60499999999999 Q98.375 -58.60499999999999 98.375 -58.60499999999999 Q98.375 -58.60499999999999 98.375 -58.60499999999999 H71.625 V-41.85499999999999 Z M21.625 -11.85499999999999 H58.375 V-58.60499999999999 H21.625 Q21.625 -58.60499999999999 21.625 -58.60499999999999 Q21.625 -58.60499999999999 21.625 -58.60499999999999 V-11.85499999999999 Q21.625 -11.85499999999999 21.625 -11.85499999999999 Q21.625 -11.85499999999999 21.625 -11.85499999999999 Z M40.0 -26.10499999999999 Q36.25 -26.10499999999999 33.565 -28.794999999999987 Q30.875 -31.47999999999999 30.875 -35.22999999999999 Q30.875 -38.97999999999999 33.565 -41.66999999999999 Q36.25 -44.35499999999999 40.0 -44.35499999999999 Q43.75 -44.35499999999999 46.44 -41.66999999999999 Q49.125 -38.97999999999999 49.125 -35.22999999999999 Q49.125 -31.47999999999999 46.44 -28.794999999999987 Q43.75 -26.10499999999999 40.0 -26.10499999999999 Z M71.625 -11.85499999999999 H98.375 Q98.375 -11.85499999999999 98.375 -11.85499999999999 Q98.375 -11.85499999999999 98.375 -11.85499999999999 V-28.60499999999999 H71.625 V-11.85499999999999 Z"/></g><g id="Light-M" transform="matrix(1 0 0 1 1098.18 1126)"><path d="M22.875 -0.8549999999999898 Q17.75 -0.8549999999999898 14.190000000000001 -4.414999999999992 Q10.625 -7.97999999999999 10.625 -13.10499999999999 V-57.35499999999999 Q10.625 -62.47999999999999 14.190000000000001 -66.03999999999999 Q17.75 -69.60499999999999 22.875 -69.60499999999999 H97.125 Q102.25 -69.60499999999999 105.815 -66.03999999999999 Q109.375 -62.47999999999999 109.375 -57.35499999999999 V-13.10499999999999 Q109.375 -7.97999999999999 105.815 -4.414999999999992 Q102.25 -0.8549999999999898 97.125 -0.8549999999999898 H22.875 Z M69.875 -40.60499999999999 H98.625 V-57.35499999999999 Q98.625 -57.97999999999999 98.19000000000001 -58.41999999999999 Q97.75 -58.85499999999999 97.125 -58.85499999999999 H69.875 V-40.60499999999999 Z M22.875 -11.60499999999999 H59.125 V-58.85499999999999 H22.875 Q22.25 -58.85499999999999 21.815 -58.41999999999999 Q21.375 -57.97999999999999 21.375 -57.35499999999999 V-13.10499999999999 Q21.375 -12.47999999999999 21.815 -12.039999999999978 Q22.25 -11.60499999999999 22.875 -11.60499999999999 Z M40.0 -27.22999999999999 Q36.625 -27.22999999999999 34.315000000000005 -29.544999999999987 Q32.0 -31.85499999999999 32.0 -35.22999999999999 Q32.0 -38.60499999999999 34.315000000000005 -40.91999999999999 Q36.625 -43.22999999999999 40.0 -43.22999999999999 Q43.375 -43.22999999999999 45.69 -40.91999999999999 Q48.0 -38.60499999999999 48.0 -35.22999999999999 Q48.0 -31.85499999999999 45.69 -29.544999999999987 Q43.375 -27.22999999999999 40.0 -27.22999999999999 Z M69.875 -11.60499999999999 H97.125 Q97.75 -11.60499999999999 98.19000000000001 -12.039999999999978 Q98.625 -12.47999999999999 98.625 -13.10499999999999 V-29.85499999999999 H69.875 V-11.60499999999999 Z"/></g><g id="Thin-M" transform="matrix(1 0 0 1 802.565 1126)"><path d="M24.125 -2.9799999999999898 Q19.375 -2.9799999999999898 16.065 -6.289999999999992 Q12.75 -9.60499999999999 12.75 -14.35499999999999 V-56.10499999999999 Q12.75 -60.85499999999999 16.065 -64.16499999999999 Q19.375 -67.47999999999999 24.125 -67.47999999999999 H95.875 Q100.625 -67.47999999999999 103.94 -64.16499999999999 Q107.25 -60.85499999999999 107.25 -56.10499999999999 V-14.35499999999999 Q107.25 -9.60499999999999 103.94 -6.289999999999992 Q100.625 -2.9799999999999898 95.875 -2.9799999999999898 H24.125 Z M68.125 -39.35499999999999 H99.0 V-56.10499999999999 Q99.0 -57.22999999999999 98.0 -58.22999999999999 Q97.0 -59.22999999999999 95.875 -59.22999999999999 H68.125 V-39.35499999999999 Z M24.125 -11.22999999999999 H59.875 V-59.22999999999999 H24.125 Q23.0 -59.22999999999999 22.0 -58.22999999999999 Q21.0 -57.22999999999999 21.0 -56.10499999999999 V-14.35499999999999 Q21.0 -13.22999999999999 22.0 -12.22999999999999 Q23.0 -11.22999999999999 24.125 -11.22999999999999 Z M40.0 -28.35499999999999 Q37.125 -28.35499999999999 35.125 -30.35499999999999 Q33.125 -32.35499999999999 33.125 -35.22999999999999 Q33.125 -38.10499999999999 35.125 -40.10499999999999 Q37.125 -42.10499999999999 40.0 -42.10499999999999 Q42.875 -42.10499999999999 44.875 -40.10499999999999 Q46.875 -38.10499999999999 46.875 -35.22999999999999 Q46.875 -32.35499999999999 44.875 -30.35499999999999 Q42.875 -28.35499999999999 40.0 -28.35499999999999 Z M68.125 -11.22999999999999 H95.875 Q97.0 -11.22999999999999 98.0 -12.22999999999999 Q99.0 -13.22999999999999 99.0 -14.35499999999999 V-31.10499999999999 H68.125 V-11.22999999999999 Z"/></g><g id="Ultralight-M" transform="matrix(1 0 0 1 506.415 1126)"><path d="M24.875 -4.35499999999999 Q20.25 -4.35499999999999 17.19 -7.4199999999999875 Q14.125 -10.47999999999999 14.125 -15.10499999999999 V-55.35499999999999 Q14.125 -59.97999999999999 17.19 -63.03999999999999 Q20.25 -66.10499999999999 24.875 -66.10499999999999 H95.125 Q99.75 -66.10499999999999 102.81 -63.03999999999999 Q105.875 -59.97999999999999 105.875 -55.35499999999999 V-15.10499999999999 Q105.875 -10.47999999999999 102.81 -7.4199999999999875 Q99.75 -4.35499999999999 95.125 -4.35499999999999 H24.875 Z M67.125 -38.60499999999999 H99.125 V-55.35499999999999 Q99.125 -56.85499999999999 97.875 -58.10499999999999 Q96.625 -59.35499999999999 95.125 -59.35499999999999 H67.125 V-38.60499999999999 Z M24.875 -11.10499999999999 H60.375 V-59.35499999999999 H24.875 Q23.375 -59.35499999999999 22.125 -58.10499999999999 Q20.875 -56.85499999999999 20.875 -55.35499999999999 V-15.10499999999999 Q20.875 -13.60499999999999 22.125 -12.35499999999999 Q23.375 -11.10499999999999 24.875 -11.10499999999999 Z M40.0 -29.10499999999999 Q37.5 -29.10499999999999 35.69 -30.914999999999992 Q33.875 -32.72999999999999 33.875 -35.22999999999999 Q33.875 -37.72999999999999 35.69 -39.54499999999999 Q37.5 -41.35499999999999 40.0 -41.35499999999999 Q42.5 -41.35499999999999 44.315 -39.54499999999999 Q46.125 -37.72999999999999 46.125 -35.22999999999999 Q46.125 -32.72999999999999 44.315 -30.914999999999992 Q42.5 -29.10499999999999 40.0 -29.10499999999999 Z M67.125 -11.10499999999999 H95.125 Q96.625 -11.10499999999999 97.875 -12.35499999999999 Q99.125 -13.60499999999999 99.125 -15.10499999999999 V-31.85499999999999 H67.125 V-11.10499999999999 Z"/></g><g id="Bold-S" transform="matrix(1 0 0 1 2294.23 696)"><path d="M19.328922000000002 -8.800078 Q14.003172000000001 -8.800078 10.357992000000001 -12.449991999999995 Q6.708078 -16.09517199999999 6.708078 -21.420921999999997 V-49.03907799999999 Q6.708078 -54.36482799999999 10.357992000000001 -58.010008 Q14.003172000000001 -61.659921999999995 19.328922000000002 -61.659921999999995 H75.351078 Q80.676828 -61.659921999999995 84.32200800000001 -58.010008 Q87.97192199999999 -54.36482799999999 87.97192199999999 -49.03907799999999 V-21.420921999999997 Q87.97192199999999 -16.09517199999999 84.32200800000001 -12.449991999999995 Q80.676828 -8.800078 75.351078 -8.800078 H19.328922000000002 Z M57.200922 -41.54042199999999 H75.351078 V-49.03907799999999 Q75.351078 -49.03907799999999 75.351078 -49.03907799999999 Q75.351078 -49.03907799999999 75.351078 -49.03907799999999 H57.200922 V-41.54042199999999 Z M19.328922000000002 -21.420921999999997 H44.580078 V-49.03907799999999 H19.328922000000002 Q19.328922000000002 -49.03907799999999 19.328922000000002 -49.03907799999999 Q19.328922000000002 -49.03907799999999 19.328922000000002 -49.03907799999999 V-21.420921999999997 Q19.328922000000002 -21.420921999999997 19.328922000000002 -21.420921999999997 Q19.328922000000002 -21.420921999999997 19.328922000000002 -21.420921999999997 Z M31.9545 -27.736077999999992 Q28.896336 -27.736077999999992 26.67609 -29.95158999999999 Q24.460577999999998 -32.17183599999999 24.460577999999998 -35.329414 Q24.460577999999998 -38.38757799999999 26.67609 -40.555749999999996 Q28.896336 -42.723921999999995 32.053914 -42.723921999999995 Q35.112078 -42.723921999999995 37.28025 -40.555749999999996 Q39.448422 -38.38757799999999 39.448422 -35.22999999999999 Q39.448422 -32.17183599999999 37.28025 -29.95158999999999 Q35.112078 -27.736077999999992 31.9545 -27.736077999999992 Z M57.200922 -21.420921999999997 H75.351078 Q75.351078 -21.420921999999997 75.351078 -21.420921999999997 Q75.351078 -21.420921999999997 75.351078 -21.420921999999997 V-28.919577999999994 H57.200922 V-21.420921999999997 Z"/></g><g id="Semibold-S" transform="matrix(1 0 0 1 1998.1 696)"><path d="M18.642492 -9.486507999999986 Q13.908492 -9.486507999999986 10.6515 -12.743499999999997 Q7.394508 -16.000491999999994 7.394508 -20.734491999999996 V-49.725508 Q7.394508 -54.459508 10.6515 -57.716499999999996 Q13.908492 -60.97349199999999 18.642492 -60.97349199999999 H76.037508 Q80.77150800000001 -60.97349199999999 84.0285 -57.716499999999996 Q87.28549199999999 -54.459508 87.28549199999999 -49.725508 V-20.734491999999996 Q87.28549199999999 -16.000491999999994 84.0285 -12.743499999999997 Q80.77150800000001 -9.486507999999986 76.037508 -9.486507999999986 H18.642492 Z M56.514492000000004 -40.853992 H76.037508 V-49.725508 Q76.037508 -49.725508 76.037508 -49.725508 Q76.037508 -49.725508 76.037508 -49.725508 H56.514492000000004 V-40.853992 Z M18.642492 -20.734491999999996 H45.266507999999995 V-49.725508 H18.642492 Q18.642492 -49.725508 18.642492 -49.725508 Q18.642492 -49.725508 18.642492 -49.725508 V-20.734491999999996 Q18.642492 -20.734491999999996 18.642492 -20.734491999999996 Q18.642492 -20.734491999999996 18.642492 -20.734491999999996 Z M31.9545 -28.422507999999993 Q29.095164 -28.422507999999993 27.121086000000002 -30.396585999999992 Q25.147008 -32.370664 25.147008 -35.22999999999999 Q25.147008 -38.08933599999999 27.121086000000002 -40.063413999999995 Q29.095164 -42.03749199999999 31.9545 -42.03749199999999 Q34.813836 -42.03749199999999 36.787914 -40.063413999999995 Q38.761992 -38.08933599999999 38.761992 -35.22999999999999 Q38.761992 -32.370664 36.787914 -30.396585999999992 Q34.813836 -28.422507999999993 31.9545 -28.422507999999993 Z M56.514492000000004 -20.734491999999996 H76.037508 Q76.037508 -20.734491999999996 76.037508 -20.734491999999996 Q76.037508 -20.734491999999996 76.037508 -20.734491999999996 V-29.60600799999999 H56.514492000000004 V-20.734491999999996 Z"/></g><g id="Medium-S" transform="matrix(1 0 0 1 1701.85 696)"><path d="M18.244836 -9.884163999999998 Q13.908492 -9.884163999999998 10.850328 -12.94232799999999 Q7.792164 -16.000491999999994 7.792164 -20.33683599999999 V-50.123163999999996 Q7.792164 -54.459508 10.850328 -57.51767199999999 Q13.908492 -60.575835999999995 18.244836 -60.575835999999995 H76.435164 Q80.77150800000001 -60.575835999999995 83.82967199999999 -57.51767199999999 Q86.887836 -54.459508 86.887836 -50.123163999999996 V-20.33683599999999 Q86.887836 -16.000491999999994 83.82967199999999 -12.94232799999999 Q80.77150800000001 -9.884163999999998 76.435164 -9.884163999999998 H18.244836 Z M56.116836 -40.456335999999986 H76.435164 V-50.123163999999996 Q76.435164 -50.123163999999996 76.435164 -50.123163999999996 Q76.435164 -50.123163999999996 76.435164 -50.123163999999996 H56.116836 V-40.456335999999986 Z M18.244836 -20.33683599999999 H45.66416400000001 V-50.123163999999996 H18.244836 Q18.244836 -50.123163999999996 18.244836 -50.123163999999996 Q18.244836 -50.123163999999996 18.244836 -50.123163999999996 V-20.33683599999999 Q18.244836 -20.33683599999999 18.244836 -20.33683599999999 Q18.244836 -20.33683599999999 18.244836 -20.33683599999999 Z M31.9545 -28.820164 Q29.293992 -28.820164 27.419328 -30.694827999999994 Q25.544664 -32.569492 25.544664 -35.22999999999999 Q25.544664 -37.89050799999999 27.419328 -39.76517199999999 Q29.293992 -41.63983599999999 31.9545 -41.63983599999999 Q34.615008 -41.63983599999999 36.489672 -39.76517199999999 Q38.364335999999994 -37.89050799999999 38.364335999999994 -35.22999999999999 Q38.364335999999994 -32.569492 36.489672 -30.694827999999994 Q34.615008 -28.820164 31.9545 -28.820164 Z M56.116836 -20.33683599999999 H76.435164 Q76.435164 -20.33683599999999 76.435164 -20.33683599999999 Q76.435164 -20.33683599999999 76.435164 -20.33683599999999 V-30.003664 H56.116836 V-20.33683599999999 Z"/></g><g id="Regular-S" transform="matrix(1 0 0 1 1405.73 696)"><path d="M17.851914 -10.277085999999983 Q13.908492 -10.277085999999983 11.044422 -13.136421999999996 Q8.185086 -16.000491999999994 8.185086 -19.943914 V-50.516085999999994 Q8.185086 -54.459508 11.044422 -57.323578 Q13.908492 -60.182914 17.851914 -60.182914 H76.828086 Q80.77150800000001 -60.182914 83.63557800000001 -57.323578 Q86.49491400000001 -54.459508 86.49491400000001 -50.516085999999994 V-19.943914 Q86.49491400000001 -16.000491999999994 83.63557800000001 -13.136421999999996 Q80.77150800000001 -10.277085999999983 76.828086 -10.277085999999983 H17.851914 Z M55.723914 -40.063413999999995 H76.828086 V-50.516085999999994 Q76.828086 -50.516085999999994 76.828086 -50.516085999999994 Q76.828086 -50.516085999999994 76.828086 -50.516085999999994 H55.723914 V-40.063413999999995 Z M17.851914 -19.943914 H46.057086 V-50.516085999999994 H17.851914 Q17.851914 -50.516085999999994 17.851914 -50.516085999999994 Q17.851914 -50.516085999999994 17.851914 -50.516085999999994 V-19.943914 Q17.851914 -19.943914 17.851914 -19.943914 Q17.851914 -19.943914 17.851914 -19.943914 Z M31.9545 -29.21308599999999 Q29.488086 -29.21308599999999 27.712836 -30.98833599999999 Q25.937586 -32.76358599999999 25.937586 -35.22999999999999 Q25.937586 -37.696414 27.712836 -39.471664 Q29.488086 -41.246914 31.9545 -41.246914 Q34.420913999999996 -41.246914 36.196163999999996 -39.471664 Q37.971414 -37.696414 37.971414 -35.22999999999999 Q37.971414 -32.76358599999999 36.196163999999996 -30.98833599999999 Q34.420913999999996 -29.21308599999999 31.9545 -29.21308599999999 Z M55.723914 -19.943914 H76.828086 Q76.828086 -19.943914 76.828086 -19.943914 Q76.828086 -19.943914 76.828086 -19.943914 V-30.396585999999992 H55.723914 V-19.943914 Z"/></g><g id="Light-S" transform="matrix(1 0 0 1 1109.75 696)"><path d="M18.836586 -12.052335999999983 Q15.091992000000001 -12.052335999999983 12.526164 -14.618163999999993 Q9.960336 -17.18399199999999 9.960336 -20.92858599999999 V-49.53141399999999 Q9.960336 -53.27600799999999 12.526164 -55.841835999999994 Q15.091992000000001 -58.407664 18.836586 -58.407664 H75.84341400000001 Q79.588008 -58.407664 82.153836 -55.841835999999994 Q84.71966400000001 -53.27600799999999 84.71966400000001 -49.53141399999999 V-20.92858599999999 Q84.71966400000001 -17.18399199999999 82.153836 -14.618163999999993 Q79.588008 -12.052335999999983 75.84341400000001 -12.052335999999983 H18.836586 Z M54.341586 -39.07400799999999 H77.026914 V-49.53141399999999 Q77.026914 -50.02374999999999 76.681332 -50.36933199999999 Q76.33575 -50.71491399999999 75.84341400000001 -50.71491399999999 H54.341586 V-39.07400799999999 Z M18.836586 -19.745085999999986 H46.648835999999996 V-50.71491399999999 H18.836586 Q18.34425 -50.71491399999999 17.998668 -50.36933199999999 Q17.653086000000002 -50.02374999999999 17.653086000000002 -49.53141399999999 V-20.92858599999999 Q17.653086000000002 -20.436249999999994 17.998668 -20.090667999999994 Q18.34425 -19.745085999999986 18.836586 -19.745085999999986 Z M31.9545 -30.10307799999999 Q29.786327999999997 -30.10307799999999 28.304586 -31.580085999999987 Q26.827578 -33.06182799999999 26.827578 -35.22999999999999 Q26.827578 -37.398171999999995 28.304586 -38.879914 Q29.786327999999997 -40.356922 31.9545 -40.356922 Q34.122672 -40.356922 35.604414 -38.879914 Q37.081422 -37.398171999999995 37.081422 -35.22999999999999 Q37.081422 -33.06182799999999 35.604414 -31.580085999999987 Q34.122672 -30.10307799999999 31.9545 -30.10307799999999 Z M54.341586 -19.745085999999986 H75.84341400000001 Q76.33575 -19.745085999999986 76.681332 -20.090667999999994 Q77.026914 -20.436249999999994 77.026914 -20.92858599999999 V-31.385991999999995 H54.341586 V-19.745085999999986 Z"/></g><g id="Thin-S" transform="matrix(1 0 0 1 814.015 696)"><path d="M19.825992 -13.728172 Q16.370172 -13.728172 14.003172000000001 -16.09517199999999 Q11.636172 -18.462171999999995 11.636172 -21.917991999999998 V-48.542007999999996 Q11.636172 -51.99782799999999 14.003172000000001 -54.36482799999999 Q16.370172 -56.73182799999999 19.825992 -56.73182799999999 H74.854008 Q78.30982800000001 -56.73182799999999 80.676828 -54.36482799999999 Q83.043828 -51.99782799999999 83.043828 -48.542007999999996 V-21.917991999999998 Q83.043828 -18.462171999999995 80.676828 -16.09517199999999 Q78.30982800000001 -13.728172 74.854008 -13.728172 H19.825992 Z M52.963992000000005 -38.08933599999999 H77.320422 V-48.542007999999996 Q77.320422 -49.431999999999995 76.53457800000001 -50.22257799999999 Q75.744 -51.008421999999996 74.854008 -51.008421999999996 H52.963992000000005 V-38.08933599999999 Z M19.825992 -19.45157799999999 H47.24058599999999 V-51.008421999999996 H19.825992 Q18.936 -51.008421999999996 18.145422 -50.22257799999999 Q17.359578 -49.431999999999995 17.359578 -48.542007999999996 V-21.917991999999998 Q17.359578 -21.02799999999999 18.145422 -20.237421999999995 Q18.936 -19.45157799999999 19.825992 -19.45157799999999 Z M31.9545 -30.98833599999999 Q30.17925 -30.98833599999999 28.948410000000003 -32.22391 Q27.712836 -33.45474999999999 27.712836 -35.22999999999999 Q27.712836 -37.00525 28.948410000000003 -38.23608999999999 Q30.17925 -39.471664 31.9545 -39.471664 Q33.72975 -39.471664 34.960589999999996 -38.23608999999999 Q36.196163999999996 -37.00525 36.196163999999996 -35.22999999999999 Q36.196163999999996 -33.45474999999999 34.960589999999996 -32.22391 Q33.72975 -30.98833599999999 31.9545 -30.98833599999999 Z M52.963992000000005 -19.45157799999999 H74.854008 Q75.744 -19.45157799999999 76.53457800000001 -20.237421999999995 Q77.320422 -21.02799999999999 77.320422 -21.917991999999998 V-32.370664 H52.963992000000005 V-19.45157799999999 Z"/></g><g id="Ultralight-S" transform="matrix(1 0 0 1 517.792 696)"><path d="M20.413008 -14.816991999999999 Q17.16075 -14.816991999999999 14.940504 -17.032504000000003 Q12.724992 -19.252749999999992 12.724992 -22.50500799999999 V-47.95499199999999 Q12.724992 -51.207249999999995 14.940504 -53.42749599999999 Q17.16075 -55.643007999999995 20.413008 -55.643007999999995 H74.266992 Q77.51925 -55.643007999999995 79.739496 -53.42749599999999 Q81.955008 -51.207249999999995 81.955008 -47.95499199999999 V-22.50500799999999 Q81.955008 -19.252749999999992 79.739496 -17.032504000000003 Q77.51925 -14.816991999999999 74.266992 -14.816991999999999 H20.413008 Z M52.173414 -37.49758599999999 H77.41983599999999 V-47.95499199999999 Q77.41983599999999 -49.13849199999999 76.435164 -50.123163999999996 Q75.450492 -51.10783599999999 74.266992 -51.10783599999999 H52.173414 V-37.49758599999999 Z M20.413008 -19.352163999999995 H47.633508 V-51.10783599999999 H20.413008 Q19.229508000000003 -51.10783599999999 18.244836 -50.123163999999996 Q17.260164 -49.13849199999999 17.260164 -47.95499199999999 V-22.50500799999999 Q17.260164 -21.321507999999987 18.244836 -20.33683599999999 Q19.229508000000003 -19.352163999999995 20.413008 -19.352163999999995 Z M31.9545 -31.580085999999987 Q30.477491999999998 -31.580085999999987 29.388672 -32.66417199999999 Q28.304586 -33.752992 28.304586 -35.22999999999999 Q28.304586 -36.70700799999999 29.388672 -37.79582799999999 Q30.477491999999998 -38.879914 31.9545 -38.879914 Q33.431508 -38.879914 34.520328 -37.79582799999999 Q35.604414 -36.70700799999999 35.604414 -35.22999999999999 Q35.604414 -33.752992 34.520328 -32.66417199999999 Q33.431508 -31.580085999999987 31.9545 -31.580085999999987 Z M52.173414 -19.352163999999995 H74.266992 Q75.450492 -19.352163999999995 76.435164 -20.33683599999999 Q77.41983599999999 -21.321507999999987 77.41983599999999 -22.50500799999999 V-32.962413999999995 H52.173414 V-19.352163999999995 Z"/></g></g></svg>