<svg xmlns="http://www.w3.org/2000/svg" height="48" width="48"><path d="M7.55 32V1.45H27.1v9.8q0 1.25.5 2.275t1.75 1.375L40.8 18v14Zm10.4-22.2q0-.3.2-.475t.5-.175h3.9V6H12.1v21.45h24.15v-6l-8.2-2.15q-2.3-.75-3.45-2.075-1.15-1.325-1.65-2.975h-4.3q-.3 0-.5-.2t-.2-.55q0-.3.2-.475t.5-.175h3.9q-.05-.55-.05-1.075V10.55h-3.8q-.35 0-.55-.2-.2-.2-.2-.55ZM12.1 27.45ZM8.45 47.5q-2.45 0-4.2-1.75T2.5 41.5q0-2.45 1.75-4.225Q6 35.5 8.5 35.5q2.45 0 4.225 1.775Q14.5 39.05 14.5 41.55q0 2.45-1.775 4.2T8.45 47.5Zm0-3.4q1.1 0 1.85-.725t.75-1.825q0-1.1-.75-1.85t-1.8-.75q-1.15 0-1.875.75-.725.75-.725 1.8 0 1.15.725 1.875.725.725 1.825.725Zm31.1 3.4q-2.5 0-4.275-1.75Q33.5 44 33.5 41.5q0-2.45 1.775-4.225Q37.05 35.5 39.55 35.5q2.5 0 4.25 1.775t1.75 4.275q0 2.45-1.75 4.2t-4.25 1.75Zm0-3.4q1.1 0 1.825-.725.725-.725.725-1.875 0-1.05-.725-1.8t-1.825-.75q-1.05 0-1.825.75-.775.75-.775 1.8 0 1.15.75 1.875.75.725 1.85.725ZM24 47.5q-2.5 0-4.225-1.75Q18.05 44 18.05 41.5q0-2.45 1.725-4.225Q21.5 35.5 24.05 35.5q2.5 0 4.225 1.775Q30 39.05 30 41.55q0 2.45-1.725 4.2T24 47.5Zm0-3.4q1.1 0 1.85-.725t.75-1.875q0-1.05-.725-1.8T24 38.95q-1.1 0-1.825.75-.725.75-.725 1.8 0 1.15.725 1.875.725.725 1.825.725ZM8.5 41.5Zm15.5 0Zm15.55 0Z"/></svg>