<svg xmlns="http://www.w3.org/2000/svg" height="40" viewBox="0 -960 960 960" width="40"><path d="M454.49-586.36v181.9q0 10.7 7.25 17.91 7.25 7.22 18 7.22t17.87-7.22q7.13-7.21 7.13-17.91v-181.49l61.36 61.62q7.54 7.21 17.66 7.38 10.11.18 17.93-7.51 7.82-7.69 7.82-17.54 0-9.85-7.82-17.72L479.62-681.79l-121.31 121.3q-7.44 7.37-7.63 17.27-.19 9.89 7.52 17.58 7.72 7.69 17.75 7.69 10.02 0 17.95-7.82l60.59-60.59ZM80.51-150.77q-10.7 0-17.91-7.25-7.21-7.25-7.21-18t7.21-17.88q7.21-7.13 17.91-7.13h798.98q10.7 0 17.91 7.25 7.21 7.25 7.21 18t-7.21 17.88q-7.21 7.13-17.91 7.13H80.51Zm82.06-100q-25.79 0-44.18-18.39T100-313.33V-748.2q0-25.79 18.39-44.18t44.18-18.39h634.86q25.79 0 44.18 18.39T860-748.2v434.87q0 25.78-18.39 44.17t-44.18 18.39H162.57Zm0-50.25h634.86q4.62 0 8.47-3.85 3.84-3.85 3.84-8.46V-748.2q0-4.62-3.84-8.47-3.85-3.84-8.47-3.84H162.57q-4.62 0-8.47 3.84-3.84 3.85-3.84 8.47v434.87q0 4.61 3.84 8.46 3.85 3.85 8.47 3.85Zm-12.31 0v-459.49 459.49Z"/></svg>