<svg xmlns="http://www.w3.org/2000/svg" height="20" viewBox="0 -960 960 960" width="20"><path d="M799.41-76.15V-702.7q0-29.52-20.52-49.92-20.52-20.4-50.04-20.4l-33.13 12-12 31.65q0 13.39-8.56 21.95-8.55 8.55-20.94 8.55h-223q-17.35 0-25.17-15.25-7.81-15.25.15-31.64l79.87-153.26q6.95-15.68 21.89-24.25 14.93-8.58 31.84-8.58h89.46q22.63 0 38.54 15.68 15.92 15.67 15.92 38.3v33.85l45.13-12q64.54 0 109.05 44.39 44.51 44.39 44.51 108.93v626.55h-83Zm-616.98 0q-43.82 0-74.33-30.51Q77.59-137.17 77.59-181v-126.46q0-32.39 22.31-54.7 22.32-22.32 54.71-22.32t54.71 22.32q22.31 22.31 22.31 54.7V-229h349.15v-79.41q0-32.39 22.44-54.11 22.43-21.72 54.58-21.96 32.4 0 54.59 21.84 22.2 21.84 22.2 54.23V-181q0 43.83-30.39 74.34-30.4 30.51-74.22 30.51H182.43Zm100.79-204.44v-27.82q0-57.89-37.51-93.61T158.2-436.3v-42.98q0-34.55 24.22-58.77 24.23-24.23 58.78-24.23h330.02q34.54 0 58.77 24.23 24.23 24.22 24.23 58.77v42.98q-50-1.44-87.51 34.28-37.51 35.72-37.51 93.61v27.82H283.22Z"/></svg>