<svg xmlns="http://www.w3.org/2000/svg" height="40" width="40"><path d="M24.958 33.083Q19.5 33.083 15.688 29.271Q11.875 25.458 11.875 20Q11.875 14.5 15.688 10.708Q19.5 6.917 24.958 6.917Q30.458 6.917 34.25 10.729Q38.042 14.542 38.042 20Q38.042 25.5 34.25 29.292Q30.458 33.083 24.958 33.083ZM10.667 32.208Q6.75 31 4.354 27.625Q1.958 24.25 1.958 20Q1.958 15.75 4.354 12.375Q6.75 9 10.667 7.792Q11.333 7.583 11.812 7.958Q12.292 8.333 12.292 9.042Q12.292 9.417 12.021 9.75Q11.75 10.083 11.417 10.25Q8.292 11.25 6.438 13.958Q4.583 16.667 4.583 20Q4.583 23.333 6.438 26.042Q8.292 28.75 11.417 29.75Q11.75 29.917 12.021 30.229Q12.292 30.542 12.292 30.958Q12.292 31.667 11.812 32.042Q11.333 32.417 10.667 32.208ZM24.958 20Q24.958 20 24.958 20Q24.958 20 24.958 20Q24.958 20 24.958 20Q24.958 20 24.958 20Q24.958 20 24.958 20Q24.958 20 24.958 20Q24.958 20 24.958 20Q24.958 20 24.958 20ZM24.958 30.458Q29.292 30.458 32.354 27.375Q35.417 24.292 35.417 20Q35.417 15.667 32.354 12.604Q29.292 9.542 24.958 9.542Q20.667 9.542 17.604 12.625Q14.542 15.708 14.542 20Q14.542 24.333 17.604 27.396Q20.667 30.458 24.958 30.458Z"/></svg>