<svg xmlns="http://www.w3.org/2000/svg" height="24" viewBox="0 -960 960 960" width="24"><path d="M104.78-244.92q-7.78 0-13.2-5.45-5.43-5.44-5.43-13.21v-473.23q0-7.32 5.45-12.8 5.45-5.47 13.04-5.47 7.59 0 13.01 5.47 5.43 5.48 5.43 12.8v335.58h338.77v-237.54q0-14.81 11.05-25.86 11.06-11.06 25.87-11.06h258.77q48.45 0 82.38 33.93 33.93 33.92 33.93 82.38v295.8q0 7.77-5.48 13.21-5.48 5.45-12.82 5.45-7.78 0-13.2-5.45-5.43-5.44-5.43-13.21v-100.73H123.08v100.73q0 7.77-5.48 13.21-5.48 5.45-12.82 5.45Zm176.94-232.93q-34.03 0-57.72-23.82-23.69-23.81-23.69-57.84t23.82-57.72q23.82-23.69 57.84-23.69 34.03 0 57.72 23.82 23.69 23.81 23.69 57.84t-23.81 57.72q-23.82 23.69-57.85 23.69Zm217.05 76.62h338.15V-559.6q0-32.67-23.36-55.92-23.37-23.25-56.18-23.25H498.77v237.54ZM281.85-514.77q18.53 0 31.57-13.04t13.04-31.57q0-18.54-13.04-31.58T281.85-604q-18.54 0-31.58 13.04t-13.04 31.58q0 18.53 13.04 31.57t31.58 13.04Zm0-44.61Zm216.92-79.39v237.54-237.54Z"/></svg>