<svg xmlns="http://www.w3.org/2000/svg" height="20" viewBox="0 -960 960 960" width="20"><path d="M141.91-145.87q-46.27 0-78.62-32.42-32.36-32.42-32.36-78.74 0-35.06 20-63.64 20-28.59 52-40.23v-238.2q-32-11.64-52-40.09-20-28.45-20-63.91 0-46.28 32.39-78.66 32.38-32.37 78.64-32.37 46.27 0 78.62 32.42t32.35 78.74q0 35.06-20 63.64-20 28.59-52 40.3V-519H417v-80.03q-32-11.71-52-40.16-20-28.45-20-63.91 0-46.28 32.38-78.66 32.39-32.37 78.65-32.37 46.26 0 78.62 32.42Q567-749.29 567-702.97q0 35.06-20 63.64-20 28.59-52 40.3V-519h203.07q14.02 0 23.51-9.49 9.49-9.49 9.49-23.51v-47.04q-32-11.7-52-40.15t-20-63.91q0-46.28 32.38-78.66 32.38-32.37 78.64-32.37 46.27 0 78.62 32.42 32.36 32.42 32.36 78.74 0 35.06-20 63.64-20 28.59-52 40.29V-552q0 46.25-32.38 78.63Q744.32-441 698.07-441H495v80.03q32 11.71 52 40.16 20 28.45 20 63.91 0 46.28-32.38 78.66-32.39 32.37-78.65 32.37-46.26 0-78.62-32.42Q345-210.71 345-257.03q0-35.06 20-63.64 20-28.59 52-40.3V-441H180.93v80.03q32 11.71 52 40.16 20 28.45 20 63.91 0 46.28-32.38 78.66-32.38 32.37-78.64 32.37Z"/></svg>