<svg xmlns="http://www.w3.org/2000/svg" height="20" width="20"><path d="M8.917 14.583Q10.188 14.583 11.031 13.729Q11.875 12.875 11.875 11.625Q11.875 10.354 11.031 9.51Q10.188 8.667 8.938 8.667Q7.667 8.667 6.812 9.51Q5.958 10.354 5.958 11.604Q5.958 12.875 6.812 13.729Q7.667 14.583 8.917 14.583ZM2.979 17.25Q2.396 17.25 2.021 16.875Q1.646 16.5 1.646 15.917V7.333Q1.646 6.75 2.021 6.375Q2.396 6 2.979 6H5.333L6.458 4.771Q6.646 4.562 6.906 4.458Q7.167 4.354 7.438 4.354H11.25Q11.521 4.354 11.719 4.552Q11.917 4.75 11.917 5.021V6.667L2.979 7.333Q2.688 7.333 2.5 7.333Q2.312 7.333 2.312 7.333V15.917Q2.312 16.208 2.5 16.396Q2.688 16.583 2.979 16.583H14.854Q15.146 16.583 15.333 16.396Q15.521 16.208 15.521 15.917V8.625H15.542Q15.125 8.625 15.177 8.698Q15.229 8.771 15.448 8.865Q15.667 8.958 15.927 9.073Q16.188 9.188 16.188 9.292V15.917Q16.188 16.5 15.812 16.875Q15.438 17.25 14.854 17.25ZM15.542 5.021H14.229Q14.104 5.021 14 4.917Q13.896 4.812 13.896 4.688Q13.896 4.562 14 4.458Q14.104 4.354 14.229 4.354H15.542V3.021Q15.542 2.896 15.646 2.792Q15.75 2.688 15.875 2.688Q16 2.688 16.104 2.792Q16.208 2.896 16.208 3.021V4.354H17.542Q17.667 4.354 17.771 4.458Q17.875 4.562 17.875 4.688Q17.875 4.812 17.771 4.917Q17.667 5.021 17.542 5.021H16.208V6.333Q16.208 6.458 16.104 6.563Q16 6.667 15.875 6.667Q15.75 6.667 15.646 6.563Q15.542 6.458 15.542 6.333ZM2.312 7.333Q2.312 7.333 2.312 7.333Q2.312 7.333 2.312 7.333V7.958Q2.312 8.229 2.312 8.427Q2.312 8.625 2.312 8.625V15.917Q2.312 16.208 2.312 16.396Q2.312 16.583 2.312 16.583Q2.312 16.583 2.312 16.396Q2.312 16.208 2.312 15.917V7.333Q2.312 7.333 2.312 7.333Q2.312 7.333 2.312 7.333Z"/></svg>