<svg xmlns="http://www.w3.org/2000/svg" height="20" viewBox="0 -960 960 960" width="20"><path d="M362.31-504Zm-182 340q-26.53 0-45.42-18.89T116-228.31v-551.38q0-26.53 18.89-45.42T180.31-844h364q26.52 0 45.41 18.89 18.89 18.89 18.89 45.42v127.07q-13.51 1.15-26.56 2.73-13.04 1.59-25.43 3.89v-133.69q0-5.39-3.47-8.85-3.46-3.46-8.84-3.46h-364q-5.39 0-8.85 3.46t-3.46 8.85v551.38q0 5.39 3.46 8.85t8.85 3.46h152.61v52H180.31Zm152.61-111.23v-70.16q0 4.24-.19 8.27-.19 4.04-.96 8.27-24.08-10.3-39.69-31.84-15.62-21.54-15.62-48.85 0-35.77 25.04-60.81t60.81-25.04q1.5 0 2.42-.19.92-.19 2.42-.58 6.08-12.38 13.38-25.04 7.29-12.67 16.7-23.18-7.81-1.31-16.69-2.16-8.89-.84-18.23-.84-57.11 0-97.48 40.36-40.37 40.37-40.37 97.48 0 49.77 31.04 87.32 31.04 37.55 77.42 46.99ZM362.35-600q23.42 0 39.77-16.39 16.34-16.39 16.34-39.81 0-23.41-16.39-39.76-16.39-16.35-39.81-16.35-23.41 0-39.76 16.39-16.35 16.4-16.35 39.81 0 23.42 16.4 39.76Q338.94-600 362.35-600ZM532-116h-55.29q-26.61 0-45.35-18.89-18.74-18.89-18.74-45.42v-178.46q0-89.87 62.93-152.78 62.94-62.91 152.85-62.91t152.75 62.91Q844-448.64 844-358.77v178.46q0 26.53-18.89 45.42T779.69-116h-55.07v-179.69h59.69v-63.08q0-65-45.5-110.5t-110.5-45.5q-65 0-110.5 45.5t-45.5 110.5v63.08H532V-116Z"/></svg>