<svg xmlns="http://www.w3.org/2000/svg" height="24" viewBox="0 -960 960 960" width="24"><path d="M480-6q-21 0-42-1.5T396-14Q296 52 179.5 26T3-103q-45-77-35-163.5T35-420q-57-58-63.5-154.5T3.16-737.44Q36-794 105-836.5T253-874q37-54 96.61-87t130.5-33q70.89 0 130.39 33 59.5 33 96.5 87 79-5 148 37.5t101.84 99.06Q995-671 988.5-574.5 982-478 925-420q57 67 67 153.5T957-103Q897 0 780.5 26T564-14q-21 5-42 6.5T480-6ZM249-74q-29-18-53.5-39.5t-46-47.5q-21.5-26-39-54.5T80-275q-12 32-6 65t23.22 62.1Q121-108 162-87.5T249-74Zm462 0q46 7 87-13.5t64.78-60.4Q880-177 886-210t-6-65q-13 31-30 59.5T811.5-161Q790-135 765-113.5T711-74Zm-231-58q128 0 218.5-88.93T789-438q0-23-3-46t-10-44q-29 17-62.06 26.5Q680.89-492 645-492q-103 0-177-70t-80-172q-94 30-154.5 111T173-438q0 128.14 89.5 217.07T480-132ZM365-347q-23 0-38-15t-15-38q0-23 15-38t38-15q23 0 38 15t15 38q0 23-15 38t-38 15Zm230 0q-23 0-38-15t-15-38q0-23 15-38t38-15q23 0 38 15t15 38q0 23-15 38t-38 15ZM73-588q9-25 21-48t26-45q14-22 30.8-42.12Q167.59-743.24 187-760q-29 10-52.5 29.5T95-685q-13 22-20 46.5T73-588Zm814 0q5-26-2-50.5T865-685q-16-26-39.5-45.5T773-760q20 17 36.54 36.76 16.53 19.77 30.5 42Q854-659 866-636q12 23 21 48Zm-242-10q23 0 44.13-6.62Q710.25-611.24 728-623q-20-28-46-49.5t-55.99-38.53q-29.98-17.04-63.5-26Q529-746 493-748q1 63 44.93 106.5Q581.85-598 645-598ZM544-869q-17-9-33-14t-31-5q-15 0-31 5t-33 14q16-2 32.14-3.5T481-874q16.04 0 31.52 1.5T544-869ZM120-681Zm720 0Zm-347-67Zm-12-126ZM149-161Zm662 0Z"/></svg>