<svg xmlns="http://www.w3.org/2000/svg" height="20" viewBox="0 -960 960 960" width="20"><path d="M408-96v-24q0-29.7 21.5-50.85Q451-192 480-192h195q14 0 27 3t26 9v-40q0-64 15.5-124.5T789-461l20-37q12-22 8.5-46T797-586q-8-8-11.5-16.5T782-622q0-21 15.23-35.5 15.24-14.5 35.85-14.5 17.92 0 32.72 9.35 14.8 9.36 22.88 25.39 11.66 23.16 17.49 47.21Q912-566 912-541q0 14-1.5 27.5T905-486l-90 336q-7 23-26.17 38.5Q769.65-96 745-96H408Zm251.75-576q-34.75 0-59.25-24.75t-24.5-59.5q0-34.75 24.75-59.25t59.5-24.5q34.75 0 59.25 24.75t24.5 59.5q0 34.75-24.75 59.25t-59.5 24.5ZM160-303l-42-43 39-40H48v-60h109l-39-40 42-42 113 112-113 113Zm215-252-50-33 8-12q3-3.86 4-8.11t1-8.89q0-7.16-1.5-12.08T329-640q-10.84-11.02-19.42-28.94-8.58-17.91-8.58-36.28 0-13.78 4.5-26.78 4.5-13 12.5-24l7-12 50 34-7 11q-3 4-5 8.62-2 4.62-2 9.66 0 6.72 2.5 11.22Q366-689 372-683q10.24 10.43 16.76 25.6 6.52 15.17 8.38 31.28Q399-610 395.5-595T383-566l-8 11Zm-126-3-54-27 7-14q2-5 2.5-9.67.5-4.66.5-9.33 0-8-1-13t-6.25-12.24Q189-655 182.5-671.5T176-704q0-12.39 3.32-24.3 3.33-11.92 9.03-22.4L195-765l54 27-7 14q-2 5-4 9.53-2 4.53-2 9.47 0 8 2.5 13.5t7.83 12.86q8.89 11.95 13.78 28.5 4.89 16.55 4.89 32.19 0 11.95-2.5 23.45t-7.58 22.08L249-558Zm244-78h-61l29-193q-43-11-86-17t-87-6q-44 0-87 6t-86 17l29 193H83L48-872.57l70.5-19.72Q189-912 288-912q49 0 92.5 5.85T457-892.5q39 8.78 71 19.5l-35 237ZM160-48 48-160l42-43 40 40v-110h60v110l40-40 43 43L160-48Zm188-152-53-52 41-72q9.9-17.1 26.55-26.55T399-360h105l49-199q8.44-28.8 31.22-46.9Q607-624 636.24-624q41.29 0 67.53 32Q730-560 720-519l-47 199q-6 25-25.46 40.5T603-264H385l-37 64Z"/></svg>