<svg xmlns="http://www.w3.org/2000/svg" version="1.1" width="3300" height="2000"><g id="Notes"><style>
    text {
      font-family: monospace;
      text-anchor: middle;
    }
    text.emphasis {
      font-weight:bold;
    }
    text.lanchor {
      text-anchor: start;
    }
  </style><rect height="2200" id="artboard" fill="white" width="3300" x="0" y="0"/><line id="" style="fill:none;stroke:black;stroke-width:0.5;" x1="263" x2="3036" y1="292" y2="292"/><text class="lanchor emphasis" transform="matrix(1 0 0 1 263 322)">Weight/Scale Variations</text><text transform="matrix(1 0 0 1 559.711 322)">Ultralight</text><text transform="matrix(1 0 0 1 856.422 322)">Thin</text><text transform="matrix(1 0 0 1 1153.13 322)">Light</text><text transform="matrix(1 0 0 1 1449.84 322)">Regular</text><text transform="matrix(1 0 0 1 1746.56 322)">Medium</text><text transform="matrix(1 0 0 1 2043.27 322)">Semibold</text><text transform="matrix(1 0 0 1 2339.98 322)">Bold</text><text transform="matrix(1 0 0 1 2636.69 322)">Heavy</text><text transform="matrix(1 0 0 1 2933.4 322)">Black</text><text id="template-version" style="text-anchor: end;" transform="matrix(1 0 0 1 3036 1933)">Template v.1.0</text><text class="lanchor" transform="matrix(1 0 0 1 263 726)">Small</text><text class="lanchor" transform="matrix(1 0 0 1 263 1156)">Medium</text><text class="lanchor" transform="matrix(1 0 0 1 263 1586)">Large</text></g><g id="Guides"><g id="H-reference" style="fill:#27AAE1;stroke:none;" transform="matrix(1 0 0 1 339 696)"><path d="M 54.9316 0 L 57.666 0 L 30.5664 -70.459 L 28.0762 -70.459 L 0.976562 0 L 3.66211 0 L 12.9395 -24.4629 L 45.7031 -24.4629 Z M 29.1992 -67.0898 L 29.4434 -67.0898 L 44.8242 -26.709 L 13.8184 -26.709 Z"/></g><line id="Baseline-S" style="fill:none;stroke:#27AAE1;opacity:1;stroke-width:0.577;" x1="263" x2="3036" y1="696" y2="696"/><line id="Capline-S" style="fill:none;stroke:#27AAE1;opacity:1;stroke-width:0.577;" x1="263" x2="3036" y1="625.541" y2="625.541"/><g id="H-reference" style="fill:#27AAE1;stroke:none;" transform="matrix(1 0 0 1 339 1126)"><path d="M 54.9316 0 L 57.666 0 L 30.5664 -70.459 L 28.0762 -70.459 L 0.976562 0 L 3.66211 0 L 12.9395 -24.4629 L 45.7031 -24.4629 Z M 29.1992 -67.0898 L 29.4434 -67.0898 L 44.8242 -26.709 L 13.8184 -26.709 Z"/></g><line id="Baseline-M" style="fill:none;stroke:#27AAE1;opacity:1;stroke-width:0.577;" x1="263" x2="3036" y1="1126" y2="1126"/><line id="Capline-M" style="fill:none;stroke:#27AAE1;opacity:1;stroke-width:0.577;" x1="263" x2="3036" y1="1055.54" y2="1055.54"/><g id="H-reference" style="fill:#27AAE1;stroke:none;" transform="matrix(1 0 0 1 339 1556)"><path d="M 54.9316 0 L 57.666 0 L 30.5664 -70.459 L 28.0762 -70.459 L 0.976562 0 L 3.66211 0 L 12.9395 -24.4629 L 45.7031 -24.4629 Z M 29.1992 -67.0898 L 29.4434 -67.0898 L 44.8242 -26.709 L 13.8184 -26.709 Z"/></g><line id="Baseline-L" style="fill:none;stroke:#27AAE1;opacity:1;stroke-width:0.577;" x1="263" x2="3036" y1="1556" y2="1556"/><line id="Capline-L" style="fill:none;stroke:#27AAE1;opacity:1;stroke-width:0.577;" x1="263" x2="3036" y1="1485.54" y2="1485.54"/><rect height="119.336" id="left-margin" style="fill:darkred;stroke:none;opacity:0.4;" width="12.4512" x="1394.06" y="1030.79"/><rect height="119.336" id="right-margin" style="fill:darkgreen;stroke:none;opacity:0.4;" width="12.4512" x="1502.5112" y="1030.79"/><rect x="1406.5112" y="1045" width="96" height="96" fill="none" stroke="blue" stroke-dasharray="5"/><rect x="1394.06" y="1030.79" width="120.9024" height="119.336" fill="none" stroke="blue"/></g><g id="Symbols"><g id="Bold-L" transform="matrix(1 0 0 1 2266 1556)"><path d="M122.2275 15.241250000000015  127.71000000000001 9.436250000000015  113.8425 -3.0095087499999806 V-23.297499999999985 H105.4575 V-0.4361199999999812 L122.2275 15.241250000000015 Z M15.963750000000001 -70.44812875  77.4 -105.69624999999999  139.15875 -70.05999999999999 V-33.61749999999999 Q135.66688125000002 -37.02890499999998 132.01086 -39.35445249999998 Q128.355 -41.67999999999999 124.32375 -42.969999999999985 V-54.741249999999994 L107.715 -44.90499999999999 Q95.46000000000001 -44.25999999999999 85.4625 -37.32624999999999 Q75.465 -30.392499999999984 70.6275 -19.427499999999988 V-31.68249999999999 L30.6375 -54.741249999999994 V-8.784999999999982 L71.11125 14.435000000000016 Q72.885 22.658750000000015 73.449375 27.012500000000017 Q74.01375 31.366250000000015 79.17375 34.75250000000001 L77.88375 35.397500000000015 L15.963750000000001 -0.2387499999999818 V-70.44812875 Z M37.893750000000004 -66.02874999999999  77.4 -42.969999999999985  116.90625 -66.02874999999999  77.4 -88.92624999999998  37.893750000000004 -66.02874999999999 Z M110.28871125 27.657500000000013 Q97.87875 27.657500000000013 89.01 18.847767500000018 Q80.14125 10.037873750000017 80.14125 -2.2380887499999886 Q80.14125 -14.742381249999987 89.01628875 -23.615646249999983 Q97.8913275 -32.48874999999998 110.30128875 -32.48874999999998 Q122.38875 -32.48874999999998 131.41875000000002 -23.63515749999999 Q140.44875 -14.781403749999988 140.44875 -2.167461249999988 Q140.44875 10.151393750000018 131.41246125 18.904366250000017 Q122.37617250000001 27.657500000000013 110.28871125 27.657500000000013 Z"/></g><g id="Semibold-L" transform="matrix(1 0 0 1 1970.27 1556)"><path d="M123.41929875 15.731933750000017  128.55124125 10.417778750000014  114.75388500000001 -2.015241249999981 V-23.01708624999999 H106.85956875000001 V0.334977500000015 L123.41929875 15.731933750000017 Z M16.3143075 -70.13917374999998  77.4 -105.20556624999998  138.66806625 -69.84973 V-35.72068374999999 Q135.45661125 -38.43097374999999 132.11615625000002 -40.37097249999999 Q128.77570125 -42.310971249999994 125.16499125 -43.46068374999999 V-55.65263499999999 L107.43458625 -45.185413749999995 Q95.38985625000001 -44.18985624999999 85.67277 -37.22111499999998 Q75.95568375 -30.252212499999985 71.04820125 -19.637769999999982 V-31.75264374999999 L29.726115000000004 -55.65263499999999 V-8.294316249999987 L71.11125 15.486511250000014 Q72.81485625 22.027778750000017 72.7834125 26.241402500000014 Q72.7518075 30.454865000000016 77.2809975 33.911258750000016 L76.55182500000001 34.27584500000002 L16.3143075 -0.4490199999999831 V-70.13917374999998 Z M36.6318075 -66.23901999999998  77.4 -42.47931624999998  118.09804875 -66.23901999999998  77.4 -89.837635  36.6318075 -66.23901999999998 Z M111.48325125000001 29.760683750000016 Q98.579865 29.760683750000016 89.3605575 20.581688750000016 Q80.14125 11.402855000000013 80.14125 -1.3968474999999856 Q80.14125 -14.395693749999985 89.36410500000001 -23.61741999999998 Q98.58679875 -32.83930749999999 111.49034625 -32.83930749999999 Q124.14137625000001 -32.83930749999999 133.48678125 -23.63789874999999 Q142.8323475 -14.436328749999987 142.8323475 -1.3289612499999919 Q142.8323475 11.483318750000013 133.48323375 20.622001250000014 Q124.13428125000002 29.760683750000016 111.48325125000001 29.760683750000016 Z"/></g><g id="Medium-L" transform="matrix(1 0 0 1 1674.31 1556)"><path d="M124.31326874999999 16.100067500000016  129.1822125 11.153885000000013  115.43742375 -1.269459999999988 V-22.806816249999983 H107.91124125 V0.9133812500000147 L124.31326874999999 16.100067500000016 Z M16.577145 -69.90745749999998  77.4 -104.83743249999998  138.2999325 -69.69186624999999 V-37.298192499999985 Q135.29874750000002 -39.48280749999999 132.1950075 -41.13352374999998 Q129.09110625000002 -42.78423999999998 125.7959625 -43.828817499999985 V-56.336173749999986 L107.22431625 -45.39568374999999 Q95.33728875000001 -44.137288749999996 85.83063375 -37.142263749999984 Q76.3238175 -30.14707749999998 71.36360625 -19.795633749999986 V-31.805211249999985 L29.042576250000003 -56.336173749999986 V-7.926182499999982 L71.11125 16.275346250000016 Q72.76228875 21.554510000000015 72.28386 25.662837500000016 Q71.80527 29.771326250000016 75.86119125 33.280287500000014 L75.55272 33.43444250000002 L16.577145 -0.6068837499999873 V-69.90745749999998 Z M35.68527 -66.39688374999999  77.4 -42.111182499999984  118.99201875 -66.39688374999999  77.4 -90.52117374999997  35.68527 -66.39688374999999 Z M112.37915625 31.338192500000012 Q99.10570125000001 31.338192500000012 89.623395 21.882492500000016 Q80.14125 12.426631250000014 80.14125 -0.7658762499999838 Q80.14125 -14.135758749999987 89.6250075 -23.618871249999984 Q99.10860375 -33.10214499999998 112.38221999999999 -33.10214499999998 Q125.45604750000001 -33.10214499999998 135.03800625000002 -23.63983374999998 Q144.62012625 -14.177522499999988 144.62012625 -0.6999249999999861 Q144.62012625 12.482423750000013 135.03655500000002 21.910388750000013 Q125.45298375000002 31.338192500000012 112.37915625 31.338192500000012 Z"/></g><g id="Regular-L" transform="matrix(1 0 0 1 1378.56 1556)"><path d="M124.96875 16.370000000000015  129.645 11.693750000000016  115.93875 -0.7224999999999824 V-22.65249999999999 H108.6825 V1.3376300000000185 L124.96875 16.370000000000015 Z M16.77 -69.73749999999998  77.4 -104.5675  138.03 -69.57624999999999 V-38.454999999999984 Q135.18313125 -40.25390499999999 132.252735 -41.692577499999985 Q129.3225 -43.13124999999998 126.25875 -44.09874999999998 V-56.83749999999999 L107.07000000000001 -45.54999999999998 Q95.29875 -44.09874999999998 85.94625 -37.08437499999998 Q76.59375 -30.069999999999993 71.595 -19.91124999999999 V-31.843749999999986 L28.54125 -56.83749999999999 V-7.656249999999986 L71.11125 16.853750000000016 Q72.72375 21.207500000000014 71.9175 25.238750000000014 Q71.11125 29.270000000000017 74.82000000000001 32.81750000000002 L16.77 -0.7224999999999824 V-69.73749999999998 Z M34.99125 -66.51249999999999  77.4 -41.84124999999999  119.64750000000001 -66.51249999999999  77.4 -91.02249999999998  34.99125 -66.51249999999999 Z M113.03625000000001 32.49500000000002 Q99.49125000000001 32.49500000000002 89.81625 22.836286250000015 Q80.14125 13.177411250000013 80.14125 -0.30308874999998636 Q80.14125 -13.944999999999986 89.81625 -23.61999999999999 Q99.49125000000001 -33.29499999999999 113.03625000000001 -33.29499999999999 Q126.42 -33.29499999999999 136.175625 -23.641446249999987 Q145.93125 -13.987731249999982 145.93125 -0.2387499999999818 Q145.93125 13.215143750000017 136.175625 22.854991250000015 Q126.42 32.49500000000002 113.03625000000001 32.49500000000002 Z"/></g><g id="Light-L" transform="matrix(1 0 0 1 1082.77 1556)"><path d="M124.16250000000001 14.385173750000014  128.40450375 10.143170000000012  115.25650125 -2.0250774999999805 V-23.210747499999982 H108.8685825 V-0.05073249999998808 L124.16250000000001 14.385173750000014 Z M19.995161250000002 -67.87683624999998  77.4 -100.84601125  134.80483875000002 -67.77750624999999 V-40.93599249999998 Q132.44478375 -42.23873124999999 130.13471625 -43.333779999999976 Q127.82464875000001 -44.428989999999985 125.39041875000001 -45.15316374999999 V-57.64374999999998 L106.01558625 -46.29432999999999 Q95.1126675 -44.96708124999998 86.41145625 -38.60399499999998 Q77.710245 -32.24090874999999 72.773415 -23.13641124999998 V-32.525998749999985 L29.40958125 -57.70583124999999 V-8.152416249999987 L70.80116625000001 15.675335000000015 Q72.1035825 19.284755000000015 71.7314175 22.571675000000013 Q71.35941375 25.858756250000017 74.38575375 28.785927500000014 L19.995161250000002 -2.583163749999983 V-67.87683624999998 Z M34.681166250000004 -65.33408499999999  77.4 -40.47675249999999  120.019665 -65.33408499999999  77.4 -90.03016749999998  34.681166250000004 -65.33408499999999 Z M112.59797250000001 28.525508750000014 Q100.17349875000001 28.525508750000014 91.33587 19.704005000000013 Q82.49808 10.882662500000016 82.49808 -1.543584999999986 Q82.49808 -14.03739624999998 91.34006250000002 -22.859867499999993 Q100.18188375000001 -31.682338749999985 112.60619625 -31.682338749999985 Q124.86942 -31.682338749999985 133.78767375 -22.88131374999999 Q142.70608875000002 -14.080127499999989 142.70608875000002 -1.4792462499999814 Q142.70608875000002 10.920233750000016 133.78348125 19.722871250000015 Q124.861035 28.525508750000014 112.59797250000001 28.525508750000014 Z"/></g><g id="Thin-L" transform="matrix(1 0 0 1 787.282 1556)"><path d="M123.35625 12.400831250000014  127.16416875 8.592751250000013  114.57441375 -3.327332499999983 V-23.768833749999985 H109.054665 V-1.4387724999999847 L123.35625 12.400831250000014 Z M23.22 -66.01633374999999  77.4 -97.12516749999998  131.58 -65.97908499999998 V-43.41650124999998 Q129.70692 -44.22307374999998 128.01685875 -44.97482124999999 Q126.32695875 -45.726568749999984 124.52224875 -46.20741624999998 V-58.44999999999999 L104.96133375000001 -47.03849874999999 Q94.926585 -45.835251249999985 86.87650125 -40.12329249999999 Q78.8264175 -34.41133374999998 73.95166875000001 -26.361249999999984 V-33.208086249999994 L30.27775125 -58.57400124999998 V-8.648582499999982 L70.4910825 14.497081250000015 Q71.483415 17.362332500000015 71.54533500000001 19.905083750000017 Q71.60741625 22.447996250000013 73.95166875000001 24.755000000000017 L23.22 -4.4436662499999855 V-66.01633374999999 Z M34.3710825 -64.15583124999999  77.4 -39.11241624999998  120.39166875000001 -64.15583124999999  77.4 -89.037835  34.3710825 -64.15583124999999 Z M112.159695 24.556662500000016 Q100.85558625 24.556662500000016 92.85516750000001 16.572368750000013 Q84.85474875 8.588075000000018 84.85474875 -2.7839199999999806 Q84.85474875 -14.129792499999986 92.86355250000001 -22.099896249999986 Q100.87235625000001 -30.069999999999993 112.17630375 -30.069999999999993 Q123.31900125 -30.069999999999993 131.40020625 -22.121342499999983 Q139.48125000000002 -14.17252374999999 139.48125000000002 -2.719581249999983 Q139.48125000000002 8.625807500000015 131.39182125 16.59123500000002 Q123.30239250000001 24.556662500000016 112.159695 24.556662500000016 Z"/></g><g id="Ultralight-L" transform="matrix(1 0 0 1 491.205 1556)"><path d="M122.8725 11.210000000000015  126.42 7.662500000000016  114.165 -4.108749999999986 V-24.10374999999999 H109.16625 V-2.2716287499999908 L122.8725 11.210000000000015 Z M25.155 -64.89999999999999  77.4 -94.89249999999998  129.645 -64.89999999999999 V-44.90499999999999 Q128.06394375000002 -45.41390499999997 126.74604750000002 -45.95957499999999 Q125.4283125 -46.50508374999998 124.00125 -46.83999999999999 V-58.93374999999999 L104.32875 -47.484999999999985 Q94.815 -46.35624999999999 87.155625 -41.03499999999998 Q79.49625 -35.71374999999999 74.65875 -28.296249999999986 V-33.61749999999999 L30.798750000000002 -59.094999999999985 V-8.946249999999985 L70.305 13.790000000000013 Q71.11125 16.208750000000016 71.43375 18.305000000000014 Q71.75625000000001 20.401250000000015 73.69125 22.336250000000014 L25.155 -5.559999999999988 V-64.89999999999999 Z M34.185 -63.44874999999999  77.4 -38.29374999999999  120.61500000000001 -63.44874999999999  77.4 -88.4425  34.185 -63.44874999999999 Z M111.89669625 22.175000000000015 Q101.265 22.175000000000015 93.766875 14.693161250000013 Q86.26875 7.211161250000011 86.26875 -3.528088749999988 Q86.26875 -14.185262499999986 93.77767875 -21.643881249999986 Q101.2866075 -29.102499999999992 111.91830375 -29.102499999999992 Q122.38875 -29.102499999999992 129.9675 -21.665327499999982 Q137.54625000000001 -14.227993749999982 137.54625000000001 -3.4637499999999832 Q137.54625000000001 7.248893750000015 129.95669625 14.711866250000018 Q122.3671425 22.175000000000015 111.89669625 22.175000000000015 Z"/></g><g id="Bold-M" transform="matrix(1 0 0 1 2281.8 1126)"><path d="M93.5 8.02000000000001  98.5 2.8950000000000102  88.75 -6.752874999999989 V-22.60499999999999 H81.625 V-3.9799999999999898 L93.5 8.02000000000001 Z M9.25 -64.280875  60.0 -93.35499999999999  110.75 -64.10499999999999 V-30.97999999999999 Q107.125 -34.60499999999999 102.8125 -37.10499999999999 Q98.5 -39.60499999999999 93.75 -40.72999999999999 V-45.72999999999999 L87.375 -41.97999999999999 Q76.0 -42.47999999999999 66.4375 -36.54249999999999 Q56.875 -30.60499999999999 52.125 -20.47999999999999 V-30.72999999999999 L26.25 -45.85499999999999 V-16.22999999999999 L49.0 -3.1049999999999898 Q49.875 6.27000000000001 53.25 11.95750000000001 Q56.625 17.64500000000001 61.875 22.52000000000001 L60.625 23.27000000000001 L9.25 -6.22999999999999 V-64.280875 Z M34.5 -59.10499999999999  60.0 -44.22999999999999  85.5 -59.10499999999999  60.0 -73.72999999999999  34.5 -59.10499999999999 Z M85.245125 20.89500000000001 Q74.375 20.89500000000001 66.625 13.17812500000001 Q58.875 5.46125000000001 58.875 -5.35499999999999 Q58.875 -16.22312499999999 66.629875 -23.97662499999999 Q74.38475 -31.72999999999999 85.254875 -31.72999999999999 Q96.125 -31.72999999999999 103.875 -23.97512499999999 Q111.625 -16.220249999999993 111.625 -5.350124999999991 Q111.625 5.52000000000001 103.870125 13.20750000000001 Q96.11525 20.89500000000001 85.245125 20.89500000000001 Z"/></g><g id="Semibold-M" transform="matrix(1 0 0 1 1985.97 1126)"><path d="M94.5325 8.346125000000011  99.09775 3.7101250000000086  89.4565 -5.873374999999989 V-22.22462499999999 H82.92925 V-3.327874999999988 L94.5325 8.346125000000011 Z M10.010875 -63.76962499999999  60.0 -92.431125  109.934875 -63.670249999999996 V-32.99074999999999 Q106.5815 -35.90924999999999 102.70375 -37.97449999999999 Q98.826125 -40.039749999999984 94.565125 -41.00174999999999 V-46.816874999999996 L86.39675 -42.03437499999998 Q75.510875 -42.045249999999996 66.464625 -36.21637499999999 Q57.4185 -30.387624999999993 52.72275 -20.86037499999999 V-30.947374999999987 L25.3805 -46.941874999999996 V-15.740874999999988 L49.10875 -2.072499999999991 Q49.820625 5.509125000000012 52.5435 10.92500000000001 Q55.266375 16.34075000000001 59.809875 21.16137500000001 L59.103375 21.58537500000001 L10.010875 -6.664749999999991 V-63.76962499999999 Z M33.141375 -59.21374999999999  60.0 -43.57787499999999  86.858625 -59.21374999999999  60.0 -74.65387499999999  33.141375 -59.21374999999999 Z M86.27975 22.57962500000001 Q75.027125 22.57962500000001 67.005375 14.57662500000001 Q58.98375 6.5736250000000105 58.98375 -4.648499999999991 Q58.98375 -15.899999999999991 67.008125 -23.92374999999999 Q75.032625 -31.947374999999987 86.28525 -31.947374999999987 Q97.538 -31.947374999999987 105.559625 -23.92287499999999 Q113.581375 -15.898499999999991 113.581375 -4.645749999999989 Q113.581375 6.606875000000009 105.556875 14.59325000000001 Q97.5325 22.57962500000001 86.27975 22.57962500000001 Z"/></g><g id="Medium-M" transform="matrix(1 0 0 1 1689.91 1126)"><path d="M95.307 8.59062500000001  99.54625 4.321625000000012  89.986375 -5.21374999999999 V-21.939249999999987 H83.907625 V-2.8387499999999903 L95.307 8.59062500000001 Z M10.5815 -63.38624999999999  60.0 -91.738125  109.323375 -63.34412499999999 V-34.49899999999999 Q106.173875 -36.88762499999999 102.62225 -38.62674999999999 Q99.070625 -40.36587499999999 95.176625 -41.20549999999999 V-47.63212499999999 L85.663 -42.075124999999986 Q75.144 -41.71912499999999 66.485 -35.97187499999999 Q57.826125 -30.22462499999999 53.17125 -21.145749999999992 V-31.11037499999999 L24.72825 -47.75712499999999 V-15.373999999999988 L49.19025 -1.2979999999999912 Q49.779875 4.938500000000012 52.013625 10.15050000000001 Q54.24725 15.36237500000001 58.260875 20.14225000000001 L57.962 20.32162500000001 L10.5815 -6.990874999999988 V-63.38624999999999 Z M32.12225 -59.295249999999996  60.0 -43.08874999999999  87.87775 -59.295249999999996  60.0 -75.34687499999998  32.12225 -59.295249999999996 Z M87.055875 23.84337500000001 Q75.51625 23.84337500000001 67.29075 15.62575000000001 Q59.06525 7.408125000000009 59.06525 -4.118624999999991 Q59.06525 -15.657749999999993 67.291875 -23.88412499999999 Q75.518625 -32.11037499999999 87.05825 -32.11037499999999 Q98.59775 -32.11037499999999 106.823375 -23.883749999999992 Q115.048875 -15.65699999999999 115.048875 -4.1173749999999885 Q115.048875 7.422125000000012 106.82225 15.63275000000001 Q98.5955 23.84337500000001 87.055875 23.84337500000001 Z"/></g><g id="Regular-M" transform="matrix(1 0 0 1 1394.06 1126)"><path d="M95.875 8.77000000000001  99.875 4.77000000000001  90.375 -4.72999999999999 V-21.72999999999999 H84.625 V-2.4799999999999898 L95.875 8.77000000000001 Z M11.0 -63.10499999999999  60.0 -91.22999999999999  108.875 -63.10499999999999 V-35.60499999999999 Q105.875 -37.60499999999999 102.5625 -39.10499999999999 Q99.25 -40.60499999999999 95.625 -41.35499999999999 V-48.22999999999999 L85.125 -42.10499999999999 Q74.875 -41.47999999999999 66.5 -35.79249999999999 Q58.125 -30.10499999999999 53.5 -21.35499999999999 V-31.22999999999999 L24.25 -48.35499999999999 V-15.10499999999999 L49.25 -0.7299999999999898 Q49.75 4.52000000000001 51.625 9.58250000000001 Q53.5 14.64500000000001 57.125 19.39500000000001 L11.0 -7.22999999999999 V-63.10499999999999 Z M31.375 -59.35499999999999  60.0 -42.72999999999999  88.625 -59.35499999999999  60.0 -75.85499999999999  31.375 -59.35499999999999 Z M87.625 24.77000000000001 Q75.875 24.77000000000001 67.5 16.39500000000001 Q59.125 8.02000000000001 59.125 -3.7299999999999898 Q59.125 -15.47999999999999 67.5 -23.85499999999999 Q75.875 -32.22999999999999 87.625 -32.22999999999999 Q99.375 -32.22999999999999 107.75 -23.85499999999999 Q116.125 -15.47999999999999 116.125 -3.7299999999999898 Q116.125 8.02000000000001 107.75 16.39500000000001 Q99.375 24.77000000000001 87.625 24.77000000000001 Z"/></g><g id="Light-M" transform="matrix(1 0 0 1 1098.18 1126)"><path d="M95.875 6.462125000000011  99.490375 2.8467500000000108  90.0865 -6.5569999999999915 V-23.364749999999987 H84.9135 V-4.49937499999999 L95.875 6.462125000000011 Z M13.500125 -61.66262499999999  60.0 -88.345125  106.374875 -61.66262499999999 V-38.34562499999999 Q103.90375 -39.86474999999999 101.24025 -41.028249999999986 Q98.576875 -42.19162499999999 95.625 -42.70124999999999 V-49.67237499999999 L84.788375 -43.35512499999999 Q75.115375 -42.82624999999999 67.173125 -37.54737499999999 Q59.230875 -32.26862499999999 54.750125 -24.143624999999993 V-31.951249999999987 L24.25 -49.79737499999999 V-15.10499999999999 L50.452 -0.00874999999998849 Q50.952 4.231500000000011 52.5385 8.380500000000008 Q54.125 12.52950000000001 57.221125 16.558250000000008 L13.500125 -8.672374999999988 V-61.66262499999999 Z M30.124875 -58.63374999999999  60.0 -41.28762499999999  89.875125 -58.63374999999999  60.0 -75.85499999999999  30.124875 -58.63374999999999 Z M87.625 20.34662500000001 Q76.88475 20.34662500000001 69.254875 12.71687500000001 Q61.625125 5.087125000000011 61.625125 -5.653249999999989 Q61.625125 -16.39349999999999 69.254875 -24.02324999999999 Q76.88475 -31.65299999999999 87.625 -31.65299999999999 Q98.36525 -31.65299999999999 105.995125 -24.02324999999999 Q113.624875 -16.39349999999999 113.624875 -5.653249999999989 Q113.624875 5.087125000000011 105.995125 12.71687500000001 Q98.36525 20.34662500000001 87.625 20.34662500000001 Z"/></g><g id="Thin-M" transform="matrix(1 0 0 1 802.565 1126)"><path d="M95.875 4.15462500000001  99.10575 0.9238750000000095  89.798125 -8.383874999999989 V-24.99924999999999 H85.201875 V-6.518374999999988 L95.875 4.15462500000001 Z M16.0 -60.22037499999999  60.0 -85.46074999999999  103.875 -60.22037499999999 V-41.08574999999999 Q101.93275 -42.12424999999999 99.91825 -42.95112499999999 Q97.903875 -43.77799999999999 95.625 -44.04724999999999 V-51.11462499999999 L84.451875 -44.60499999999999 Q75.35575 -44.17224999999999 67.846125 -39.30212499999999 Q60.3365 -34.43187499999999 56.0 -26.93187499999999 V-32.67224999999999 L24.25 -51.23962499999999 V-15.10499999999999 L51.653875 0.7122500000000116 Q52.153875 3.943125000000009 53.451875 7.178625000000011 Q54.75 10.41425000000001 57.31725 13.72200000000001 L16.0 -10.11462499999999 V-60.22037499999999 Z M28.875 -57.91274999999999  60.0 -39.84537499999999  91.125 -57.91274999999999  60.0 -75.85499999999999  28.875 -57.91274999999999 Z M87.625 15.92387500000001 Q77.89425 15.92387500000001 71.009625 9.03925000000001 Q64.125 2.15462500000001 64.125 -7.5761249999999905 Q64.125 -17.30687499999999 71.009625 -24.19149999999999 Q77.89425 -31.07612499999999 87.625 -31.07612499999999 Q97.35575 -31.07612499999999 104.240375 -24.19149999999999 Q111.125 -17.30687499999999 111.125 -7.5761249999999905 Q111.125 2.15462500000001 104.240375 9.03925000000001 Q97.35575 15.92387500000001 87.625 15.92387500000001 Z"/></g><g id="Ultralight-M" transform="matrix(1 0 0 1 506.415 1126)"><path d="M95.875 2.7700000000000102  98.875 -0.22999999999998977  89.625 -9.47999999999999 V-25.97999999999999 H85.375 V-7.72999999999999 L95.875 2.7700000000000102 Z M17.5 -59.35499999999999  60.0 -83.72999999999999  102.375 -59.35499999999999 V-42.72999999999999 Q100.75 -43.47999999999999 99.125 -44.10499999999999 Q97.5 -44.72999999999999 95.625 -44.85499999999999 V-51.97999999999999 L84.25 -45.35499999999999 Q75.5 -44.97999999999999 68.25 -40.35499999999999 Q61.0 -35.72999999999999 56.75 -28.60499999999999 V-33.10499999999999 L24.25 -52.10499999999999 V-15.10499999999999 L52.375 1.1450000000000102 Q52.875 3.7700000000000102 54.0 6.45750000000001 Q55.125 9.14500000000001 57.375 12.02000000000001 L17.5 -10.97999999999999 V-59.35499999999999 Z M28.125 -57.47999999999999  60.0 -38.97999999999999  91.875 -57.47999999999999  60.0 -75.85499999999999  28.125 -57.47999999999999 Z M87.625 13.27000000000001 Q78.5 13.27000000000001 72.0625 6.83250000000001 Q65.625 0.39500000000001023 65.625 -8.72999999999999 Q65.625 -17.85499999999999 72.0625 -24.29249999999999 Q78.5 -30.72999999999999 87.625 -30.72999999999999 Q96.75 -30.72999999999999 103.1875 -24.29249999999999 Q109.625 -17.85499999999999 109.625 -8.72999999999999 Q109.625 0.39500000000001023 103.1875 6.83250000000001 Q96.75 13.27000000000001 87.625 13.27000000000001 Z"/></g><g id="Bold-S" transform="matrix(1 0 0 1 2294.23 696)"><path d="M71.897625 -1.5988749999999872  76.434375 -6.234249999999989  69.62925 -12.958798374999986 V-22.90187499999999 H63.218625 V-10.376499999999986 L71.897625 -1.5988749999999872 Z M9.66525 -57.55939037499999  47.241375000000005 -79.21674999999999  85.01475 -57.42062499999999 V-31.087749999999986 Q81.7873455 -34.02795849999999 77.97667275 -36.05904174999999 Q74.166 -38.090124999999986 70.02375 -38.781486249999986 V-40.25987499999999 L67.4595 -38.68187499999999 Q58.386 -38.87912499999999 50.989125 -33.79993749999999 Q43.59225 -28.72074999999999 40.337625 -20.23899999999999 V-31.18637499999999 L24.65625 -40.358499999999985 V-21.61491737499999 L39.25275 -13.236624999999986 Q39.548625 -5.445249999999987 42.0635625 -0.6126249999999871 Q44.578500000000005 4.220000000000013 48.72075 8.362250000000014 L47.734500000000004 8.954000000000013 L9.66525 -12.940749999999987 V-57.55939037499999 Z M31.1655 -52.68662499999999  47.34 -43.31724999999999  63.514500000000005 -52.68662499999999  47.34 -61.957374999999985  31.1655 -52.68662499999999 Z M66.447114375 8.263625000000014 Q58.188750000000006 8.263625000000014 52.3205625 2.3992838750000125 Q46.452375 -3.4650572499999868 46.452375 -11.680914249999987 Q46.452375 -19.937700624999984 52.346698125 -25.808649624999987 Q58.24102125 -31.67949999999999 66.499385625 -31.67949999999999 Q74.75775 -31.67949999999999 80.6259375 -25.78517687499999 Q86.494125 -19.89085374999999 86.494125 -11.632489374999988 Q86.494125 -3.374124999999987 80.59980187500001 2.4447500000000133 Q74.70547875000001 8.263625000000014 66.447114375 8.263625000000014 Z"/></g><g id="Semibold-S" transform="matrix(1 0 0 1 1998.1 696)"><path d="M72.7122675 -1.3415623749999863  76.90599975 -5.591116374999988  70.18667850000001 -12.264872874999988 V-22.601759124999987 H64.24767824999999 V-9.861973374999987 L72.7122675 -1.3415623749999863 Z M10.265580375 -57.156014124999984  47.241375000000005 -78.48781262499999  84.371616375 -57.07760725 V-32.67423174999999 Q81.358524 -35.057110374999986 77.89086900000001 -36.745077249999994 Q74.42331262500001 -38.43314274999998 70.666883625 -38.995896999999985 V-41.11741937499999 L66.68766075 -38.72477687499998 Q58.000080375 -38.53610724999999 51.010526625000004 -33.54262487499999 Q44.021071500000005 -28.549241124999988 40.80924975 -20.539115874999986 V-31.357883874999985 L23.9702145 -41.216044374999996 V-21.229096374999983 L39.33855375 -12.421982499999988 Q39.505723125 -6.045580374999986 41.506134 -1.4272674999999868 Q43.506544874999996 3.1909467500000144 47.091366375 7.290294875000013 L46.533937875 7.624830875000014 L10.265580375 -13.283767749999988 V-57.156014124999984 Z M30.093544875 -52.77242874999999  47.34 -42.80272337499999  64.586455125 -52.77242874999999  47.34 -62.686312374999986  30.093544875 -52.77242874999999 Z M67.26343349999999 9.592794125000013 Q58.703276625 9.592794125000013 52.620678375000004 3.502700375000014 Q46.53817875 -2.587393374999987 46.53817875 -11.12348574999999 Q46.53817875 -19.68275499999999 52.645137375000004 -25.766931249999992 Q58.752194625 -31.851008874999984 67.3123515 -31.851008874999984 Q75.872607 -31.851008874999984 81.955106625 -25.743951624999987 Q88.037704875 -19.636894374999986 88.037704875 -11.076737499999986 Q88.037704875 -2.516580624999987 81.930647625 3.538106750000013 Q75.82359037500001 9.592794125000013 67.26343349999999 9.592794125000013 Z"/></g><g id="Medium-S" transform="matrix(1 0 0 1 1701.85 696)"><path d="M73.32334800000001 -1.1486518749999863  77.25986625 -5.108642874999987  70.604749875 -11.744428749999987 V-22.376598249999986 H65.019616125 V-9.476053749999988 L73.32334800000001 -1.1486518749999863 Z M10.7158035 -56.85353124999999  47.241375000000005 -77.941035625  83.889142875 -56.82029462499999 V-33.864240999999986 Q81.03690787500001 -35.828949624999986 77.8265655 -37.25970249999999 Q74.616223125 -38.690455374999985 71.14935712500001 -39.15675437499999 V-41.76065162499999 L66.108732 -38.756928624999986 Q57.71061600000001 -38.27879462499999 51.0266025 -33.34971437499999 Q44.342687625 -28.420634124999985 41.16311625 -20.764276749999993 V-31.486490874999987 L23.45558925 -41.859276624999985 V-20.93963199999999 L39.402857250000004 -11.810901999999988 Q39.473571375 -6.495803499999987 41.088062625 -2.0383479999999867 Q42.70245525 2.4190088750000136 45.869205375 6.486205250000014 L45.633393000000005 6.627732125000013 L10.7158035 -13.541080374999986 V-56.85353124999999 Z M29.289455250000003 -52.83673225  47.34 -42.41680374999999  65.39054475 -52.83673225  47.34 -63.23308937499998  29.289455250000003 -52.83673225 Z M67.87579612500001 10.589892875000015 Q59.08919625 10.589892875000015 52.845839250000004 4.330460000000014 Q46.60248225 -1.928972874999987 46.60248225 -10.70541437499999 Q46.60248225 -19.49161974999999 52.86911475 -25.735667124999985 Q59.135648625 -31.979615874999986 67.92224850000001 -31.979615874999986 Q76.70874975000001 -31.979615874999986 82.952205375 -25.713081999999993 Q89.195562375 -19.44644949999999 89.195562375 -10.659849624999985 Q89.195562375 -1.8733483749999849 82.92892987500001 4.358272250000013 Q76.662396 10.589892875000015 67.87579612500001 10.589892875000015 Z"/></g><g id="Regular-S" transform="matrix(1 0 0 1 1405.73 696)"><path d="M73.7715 -1.007124999999986  77.51925 -4.754874999999988  70.911375 -11.362749999999988 V-22.211499999999987 H65.58562500000001 V-9.192999999999987 L73.7715 -1.007124999999986 Z M11.046000000000001 -56.631624999999985  47.241375000000005 -77.54012499999999  83.535375 -56.631624999999985 V-34.73687499999999 Q80.8010955 -36.39495849999999 77.77942275000001 -37.63704174999999 Q74.75775 -38.87912499999999 71.503125 -39.274611249999985 V-42.23237499999999 L65.68425 -38.78049999999999 Q57.498375 -38.090124999999986 51.0384375 -33.20818749999999 Q44.578500000000005 -28.326249999999987 41.4225 -20.929374999999986 V-31.580874999999992 L23.07825 -42.33099999999999 V-20.72729237499999 L39.45 -11.362749999999988 Q39.45 -6.825999999999986 40.7814375 -2.486499999999987 Q42.112875 1.853000000000014 44.973 5.8966250000000136 L11.046000000000001 -13.729749999999989 V-56.631624999999985 Z M28.699875000000002 -52.88387499999999  47.34 -42.13374999999999  65.980125 -52.88387499999999  47.34 -63.633999999999986  28.699875000000002 -52.88387499999999 Z M68.32483575 11.321000000000014 Q59.37225 11.321000000000014 53.010937500000004 4.9373982500000135 Q46.649625 -1.4462034999999869 46.649625 -10.398789249999986 Q46.649625 -19.351374999999987 53.033226750000004 -25.712687499999987 Q59.4168285 -32.07399999999999 68.36941425 -32.07399999999999 Q77.322 -32.07399999999999 83.6833125 -25.690398249999987 Q90.04462500000001 -19.306796499999987 90.04462500000001 -10.354210749999986 Q90.04462500000001 -1.4016249999999868 83.66102325 4.959687500000014 Q77.2774215 11.321000000000014 68.32483575 11.321000000000014 Z"/></g><g id="Light-S" transform="matrix(1 0 0 1 1109.75 696)"><path d="M73.7715 -2.828038374999986  77.21578087500001 -6.272319249999988  70.68374850000001 -12.804252999999989 V-23.501317749999984 H65.8132515 V-10.786286874999988 L73.7715 -2.828038374999986 Z M13.018598625000001 -55.493591124999995  47.241375000000005 -75.263958625  81.56277637500001 -55.493591124999995 V-36.899228124999986 Q79.245680625 -38.17799987499999 76.7361675 -39.15448599999999 Q74.22665437500001 -40.130972124999985 71.503125 -40.33690112499998 V-43.37040887499999 L65.418652875 -39.76684862499999 Q57.688030875 -39.152316249999984 51.569533125 -34.59278387499999 Q45.451035375000004 -30.03335012499999 42.408848625 -23.12960012499999 V-32.14994124999998 L23.07825 -43.46903387499999 V-20.72729237499999 L40.398378 -10.793683749999985 Q40.398378 -7.053626499999986 41.502189 -3.4348779999999888 Q42.606 0.18387050000001182 45.048842625000006 3.6584292500000135 L13.018598625000001 -14.867783874999986 V-55.493591124999995 Z M27.713526375000004 -52.31480875  47.34 -40.99571612499999  66.966473625 -52.31480875  47.34 -63.633999999999986  27.713526375000004 -52.31480875 Z M68.32483575 7.830957125000014 Q60.16894275 7.830957125000014 54.395533875 2.035357625000014 Q48.622223625 -3.7603404999999874 48.622223625 -11.916233499999986 Q48.622223625 -20.07212649999999 54.41792175 -25.84543674999999 Q60.21352125 -31.618746999999992 68.36941425 -31.618746999999992 Q76.52530725000001 -31.618746999999992 82.298716125 -25.82314749999999 Q88.07202637500001 -20.02754799999999 88.07202637500001 -11.871654999999986 Q88.07202637500001 -3.715663374999986 82.27632825 2.057646875000014 Q76.48072875000001 7.830957125000014 68.32483575 7.830957125000014 Z"/></g><g id="Thin-S" transform="matrix(1 0 0 1 814.015 696)"><path d="M73.7715 -4.648655874999989  76.91231175 -7.789467624999986  70.456220625 -14.245657374999986 V-24.79093824999999 H66.040779375 V-12.379277874999985 L73.7715 -4.648655874999989 Z M14.991000000000001 -54.355655875  47.241375000000005 -72.98818675  79.59037500000001 -54.355655875 V-39.06118674999999 Q77.69066025000001 -39.96064674999999 75.6931095 -40.67163437499998 Q73.695657375 -41.38262199999999 71.503125 -41.39889512499999 V-44.50834412499999 L65.153154375 -40.752999999999986 Q57.87768675 -40.21431024999999 52.100530125000006 -35.97728162499999 Q46.3233735 -31.74015437499999 43.395 -25.329529374999986 V-32.71881024999999 L23.07825 -44.60696912499999 V-20.72729237499999 L41.346657375 -10.224814749999986 Q41.346657375 -7.281154374999989 42.222841875 -4.3831573749999855 Q43.099125 -1.4850617499999874 45.124685250000006 1.420628000000013 L14.991000000000001 -16.005719124999988 V-54.355655875 Z M26.727375000000002 -51.74593974999999  47.34 -39.85778087499999  67.952625 -51.74593974999999  47.34 -63.633999999999986  26.727375000000002 -51.74593974999999 Z M68.32483575 4.341407375000013 Q60.965438250000005 4.341407375000013 55.780031625 -0.8662884999999871 Q50.594625 -6.073984374999988 50.594625 -13.433381874999988 Q50.594625 -20.792779374999988 55.802320875 -25.978185999999987 Q61.010016750000005 -31.163592624999986 68.36941425 -31.163592624999986 Q75.72881175 -31.163592624999986 80.914218375 -25.955896749999987 Q86.099625 -20.748200874999988 86.099625 -13.388803374999988 Q86.099625 -6.029405874999988 80.891929125 -0.8439992499999871 Q75.68423325 4.341407375000013 68.32483575 4.341407375000013 Z"/></g><g id="Ultralight-S" transform="matrix(1 0 0 1 517.792 696)"><path d="M73.7715 -5.741124999999986  76.73025 -8.699874999999988  70.319625 -15.110499999999988 V-25.56474999999999 H66.177375 V-13.335249999999988 L73.7715 -5.741124999999986 Z M16.174500000000002 -53.67287499999999  47.241375000000005 -71.62262499999999  78.406875 -53.67287499999999 V-40.358499999999985 Q76.7574705 -41.03033349999999 75.06723525000001 -41.58204174999998 Q73.37700000000001 -42.13374999999999 71.503125 -42.03611124999999 V-45.191124999999985 L64.993875 -41.34474999999999 Q57.9915 -40.85162499999999 52.4191875 -36.807999999999986 Q46.846875000000004 -32.76437499999999 43.98675 -26.649624999999986 V-33.06024999999999 L23.07825 -45.28974999999999 V-20.72729237499999 L41.915625 -9.883374999999987 Q41.915625 -7.417749999999987 42.6553125 -4.952124999999988 Q43.395 -2.486499999999987 45.17025 0.07775000000001242 L16.174500000000002 -16.688499999999987 V-53.67287499999999 Z M26.135625 -51.40449999999999  47.34 -39.17499999999999  68.544375 -51.40449999999999  47.34 -63.633999999999986  26.135625 -51.40449999999999 Z M68.32483575 2.247500000000013 Q61.443375 2.247500000000013 56.61075 -2.6074142499999873 Q51.778125 -7.4623284999999875 51.778125 -14.343789249999986 Q51.778125 -21.22524999999999 56.63303925 -26.05787499999999 Q61.4879535 -30.89049999999999 68.36941425 -30.89049999999999 Q75.25087500000001 -30.89049999999999 80.0835 -26.03558574999999 Q84.91612500000001 -21.18067149999999 84.91612500000001 -14.299210749999986 Q84.91612500000001 -7.417749999999987 80.06121075 -2.5851249999999872 Q75.20629650000001 2.247500000000013 68.32483575 2.247500000000013 Z"/></g></g></svg>