<svg xmlns="http://www.w3.org/2000/svg" height="40" width="40"><path d="M5.417 32.167q-.542 0-.917-.375t-.375-.917v-2.042q0-1.333.667-2.312.666-.979 1.833-1.563 2.583-1.208 4.854-1.791 2.271-.584 5.146-.584 1.208 0 2.375.105 1.167.104 2.25.395l-1.792 1.792q-.666-.083-1.375-.146-.708-.062-1.458-.062-2.708 0-4.75.541-2.042.542-4.333 1.625-.709.375-1.021.896-.313.521-.313 1.104v1.25h11.5l2.084 2.084Zm20.333.708q-.25 0-.458-.083-.209-.084-.459-.292l-3.541-3.583q-.334-.292-.334-.729 0-.438.334-.73.291-.333.708-.333t.75.333l3 3 7.917-7.875q.291-.291.729-.312.437-.021.729.312.333.292.333.729 0 .438-.333.73L26.667 32.5q-.209.208-.438.292-.229.083-.479.083Zm-9.125-13.417q-2.417 0-4.021-1.625t-1.604-4q0-2.416 1.604-4.041 1.604-1.625 4.021-1.625t4.021 1.625q1.604 1.625 1.604 4.041 0 2.375-1.604 4t-4.021 1.625Zm1.083 10.625Zm-1.083-12.75q1.5 0 2.521-1.021 1.021-1.02 1.021-2.52 0-1.459-1.021-2.479-1.021-1.021-2.521-1.021t-2.521 1.021q-1.021 1.02-1.021 2.479 0 1.5 1.021 2.52 1.021 1.021 2.521 1.021Zm0-3.541Z"/></svg>