<svg xmlns="http://www.w3.org/2000/svg" height="24" width="24"><path d="M12 17.05Q11.175 17.05 10.425 16.812Q9.675 16.575 9 16.15Q8.05 16.1 7.062 15.75Q6.075 15.4 5.263 14.613Q4.45 13.825 3.925 12.55Q3.4 11.275 3.4 9.35V8.9Q3.4 8.075 3.975 7.5Q4.55 6.925 5.375 6.925Q6.125 6.925 6.688 7.537Q7.25 8.15 7.325 9.05Q8.05 8.85 8.5 8.637Q8.95 8.425 9.35 8.225Q10.025 7.85 10.613 7.612Q11.2 7.375 12 7.375Q12.8 7.375 13.388 7.612Q13.975 7.85 14.65 8.225Q15.05 8.425 15.5 8.637Q15.95 8.85 16.675 9.05Q16.75 8.125 17.312 7.525Q17.875 6.925 18.625 6.925Q19.45 6.925 20.025 7.5Q20.6 8.075 20.6 8.9V9.35Q20.6 11.275 20.075 12.55Q19.55 13.825 18.738 14.613Q17.925 15.4 16.938 15.75Q15.95 16.1 15 16.15Q14.325 16.575 13.575 16.812Q12.825 17.05 12 17.05ZM7.9 15.2Q7.275 14.475 6.9 13.562Q6.525 12.65 6.525 11.55V8.9Q6.525 8.425 6.188 8.087Q5.85 7.75 5.375 7.75Q4.875 7.75 4.55 8.087Q4.225 8.425 4.225 8.9V9.35Q4.225 12.275 5.375 13.5Q6.525 14.725 7.9 15.2ZM12 16.25Q13.95 16.25 15.312 14.875Q16.675 13.5 16.675 11.55V9.875Q15.825 9.675 15.238 9.438Q14.65 9.2 14.225 8.925Q13.575 8.55 13.062 8.362Q12.55 8.175 12 8.175Q11.475 8.175 10.975 8.362Q10.475 8.55 9.8 8.925Q9.35 9.2 8.775 9.45Q8.2 9.7 7.325 9.875V11.55Q7.325 13.5 8.688 14.875Q10.05 16.25 12 16.25ZM16.075 15.225Q17.45 14.75 18.625 13.512Q19.8 12.275 19.8 9.35V8.9Q19.8 8.425 19.462 8.087Q19.125 7.75 18.625 7.75Q18.15 7.75 17.812 8.087Q17.475 8.425 17.475 8.9V11.55Q17.475 12.65 17.087 13.575Q16.7 14.5 16.075 15.225ZM9.9 10.95Q10.15 10.85 10.375 10.738Q10.6 10.625 10.825 10.5Q11.1 10.325 11.388 10.188Q11.675 10.05 12 10.05Q12.35 10.05 12.613 10.175Q12.875 10.3 13.175 10.5Q13.4 10.625 13.613 10.738Q13.825 10.85 14.1 10.975Q14.3 11.05 14.45 10.95Q14.6 10.85 14.6 10.6Q14.6 10.5 14.55 10.412Q14.5 10.325 14.4 10.3Q14.15 10.175 13.963 10.087Q13.775 10 13.575 9.875Q13.2 9.675 12.863 9.5Q12.525 9.325 12 9.325Q11.475 9.325 11.125 9.5Q10.775 9.675 10.4 9.875Q10.2 10 10.025 10.1Q9.85 10.2 9.625 10.3Q9.5 10.35 9.45 10.425Q9.4 10.5 9.4 10.6Q9.4 10.825 9.55 10.925Q9.7 11.025 9.9 10.95ZM12 12.2Q12 12.2 12 12.2Q12 12.2 12 12.2Q12 12.2 12 12.2Q12 12.2 12 12.2Q12 12.2 12 12.2Q12 12.2 12 12.2Q12 12.2 12 12.2Q12 12.2 12 12.2Q12 12.2 12 12.2Q12 12.2 12 12.2Q12 12.2 12 12.2Q12 12.2 12 12.2Z"/></svg>