<svg xmlns="http://www.w3.org/2000/svg" height="24" width="24"><path d="M12 18Q11.05 18 10.163 17.738Q9.275 17.475 8.525 16.975Q7.425 16.9 6.275 16.5Q5.125 16.1 4.175 15.175Q3.225 14.25 2.612 12.75Q2 11.25 2 9V8.5Q2 7.45 2.725 6.725Q3.45 6 4.5 6Q5.475 6 6.188 6.675Q6.9 7.35 6.975 8.3Q7.675 8.1 8.225 7.8Q8.775 7.5 9.35 7.225Q9.925 6.925 10.55 6.713Q11.175 6.5 12 6.5Q12.85 6.5 13.463 6.713Q14.075 6.925 14.65 7.225Q15.2 7.5 15.762 7.8Q16.325 8.1 17.025 8.3Q17.1 7.325 17.812 6.662Q18.525 6 19.5 6Q20.55 6 21.275 6.725Q22 7.45 22 8.5V9Q22 11.25 21.388 12.75Q20.775 14.25 19.825 15.175Q18.875 16.1 17.725 16.5Q16.575 16.9 15.475 16.975Q14.725 17.475 13.838 17.738Q12.95 18 12 18ZM6.5 14.975Q6.025 14.225 5.763 13.337Q5.5 12.45 5.5 11.5V8.5Q5.5 8.075 5.213 7.787Q4.925 7.5 4.5 7.5Q4.075 7.5 3.788 7.787Q3.5 8.075 3.5 8.5V9Q3.5 11.75 4.425 13.1Q5.35 14.45 6.5 14.975ZM17.5 14.975Q18.65 14.45 19.575 13.1Q20.5 11.75 20.5 9V8.5Q20.5 8.075 20.212 7.787Q19.925 7.5 19.5 7.5Q19.075 7.5 18.788 7.787Q18.5 8.075 18.5 8.5V11.5Q18.5 12.45 18.25 13.337Q18 14.225 17.5 14.975ZM9.7 11Q10 10.875 10.238 10.738Q10.475 10.6 10.7 10.475Q11.05 10.275 11.338 10.137Q11.625 10 12 10Q12.375 10 12.663 10.137Q12.95 10.275 13.3 10.475Q13.525 10.6 13.762 10.75Q14 10.9 14.3 11.025Q14.575 11.15 14.788 10.987Q15 10.825 15 10.5Q15 10.375 14.925 10.262Q14.85 10.15 14.725 10.1Q14.45 9.975 14.225 9.863Q14 9.75 13.8 9.625Q13.4 9.375 12.988 9.188Q12.575 9 12 9Q11.425 9 11.013 9.188Q10.6 9.375 10.175 9.625Q9.975 9.75 9.763 9.85Q9.55 9.95 9.275 10.075Q9.15 10.125 9.075 10.262Q9 10.4 9 10.525Q9 10.85 9.213 10.988Q9.425 11.125 9.7 11Z"/></svg>