<svg xmlns="http://www.w3.org/2000/svg" height="48" viewBox="0 -960 960 960" width="48"><path d="M157-95q-38.15 0-64.57-26.6Q66-148.2 66-186v-565q0-36.75 26.43-63.88Q118.85-842 157-842h243q36.75 0 63.88 27.12Q491-787.75 491-751v70h312q38.15 0 64.58 27.12Q894-626.75 894-590v404q0 37.8-26.42 64.4Q841.15-95 803-95H157Zm-11-80h265v-104H146v104Zm0-161h265v-105H146v105Zm0-161h265v-105H146v105Zm0-162h265v-104H146v104Zm322 484h346v-427H468v427Zm108-265q-11.75 0-20.37-8.64-8.63-8.64-8.63-20.5t8.63-19.86q8.62-8 20.37-8h106q10.78 0 19.39 8.25 8.61 8.26 8.61 19.82t-8.61 20.25Q692.78-440 682-440H576Zm0 161q-11.75 0-20.37-8.64-8.63-8.64-8.63-20.5t8.63-19.86q8.62-8 20.37-8h106q10.78 0 19.39 8.25 8.61 8.26 8.61 19.82t-8.61 20.25Q692.78-279 682-279H576Z"/></svg>