<svg xmlns="http://www.w3.org/2000/svg" version="1.1" width="3300" height="2000"><g id="Notes"><style>
    text {
      font-family: monospace;
      text-anchor: middle;
    }
    text.emphasis {
      font-weight:bold;
    }
    text.lanchor {
      text-anchor: start;
    }
  </style><rect height="2200" id="artboard" fill="white" width="3300" x="0" y="0"/><line id="" style="fill:none;stroke:black;stroke-width:0.5;" x1="263" x2="3036" y1="292" y2="292"/><text class="lanchor emphasis" transform="matrix(1 0 0 1 263 322)">Weight/Scale Variations</text><text transform="matrix(1 0 0 1 559.711 322)">Ultralight</text><text transform="matrix(1 0 0 1 856.422 322)">Thin</text><text transform="matrix(1 0 0 1 1153.13 322)">Light</text><text transform="matrix(1 0 0 1 1449.84 322)">Regular</text><text transform="matrix(1 0 0 1 1746.56 322)">Medium</text><text transform="matrix(1 0 0 1 2043.27 322)">Semibold</text><text transform="matrix(1 0 0 1 2339.98 322)">Bold</text><text transform="matrix(1 0 0 1 2636.69 322)">Heavy</text><text transform="matrix(1 0 0 1 2933.4 322)">Black</text><text id="template-version" style="text-anchor: end;" transform="matrix(1 0 0 1 3036 1933)">Template v.1.0</text><text class="lanchor" transform="matrix(1 0 0 1 263 726)">Small</text><text class="lanchor" transform="matrix(1 0 0 1 263 1156)">Medium</text><text class="lanchor" transform="matrix(1 0 0 1 263 1586)">Large</text></g><g id="Guides"><g id="H-reference" style="fill:#27AAE1;stroke:none;" transform="matrix(1 0 0 1 339 696)"><path d="M 54.9316 0 L 57.666 0 L 30.5664 -70.459 L 28.0762 -70.459 L 0.976562 0 L 3.66211 0 L 12.9395 -24.4629 L 45.7031 -24.4629 Z M 29.1992 -67.0898 L 29.4434 -67.0898 L 44.8242 -26.709 L 13.8184 -26.709 Z"/></g><line id="Baseline-S" style="fill:none;stroke:#27AAE1;opacity:1;stroke-width:0.577;" x1="263" x2="3036" y1="696" y2="696"/><line id="Capline-S" style="fill:none;stroke:#27AAE1;opacity:1;stroke-width:0.577;" x1="263" x2="3036" y1="625.541" y2="625.541"/><g id="H-reference" style="fill:#27AAE1;stroke:none;" transform="matrix(1 0 0 1 339 1126)"><path d="M 54.9316 0 L 57.666 0 L 30.5664 -70.459 L 28.0762 -70.459 L 0.976562 0 L 3.66211 0 L 12.9395 -24.4629 L 45.7031 -24.4629 Z M 29.1992 -67.0898 L 29.4434 -67.0898 L 44.8242 -26.709 L 13.8184 -26.709 Z"/></g><line id="Baseline-M" style="fill:none;stroke:#27AAE1;opacity:1;stroke-width:0.577;" x1="263" x2="3036" y1="1126" y2="1126"/><line id="Capline-M" style="fill:none;stroke:#27AAE1;opacity:1;stroke-width:0.577;" x1="263" x2="3036" y1="1055.54" y2="1055.54"/><g id="H-reference" style="fill:#27AAE1;stroke:none;" transform="matrix(1 0 0 1 339 1556)"><path d="M 54.9316 0 L 57.666 0 L 30.5664 -70.459 L 28.0762 -70.459 L 0.976562 0 L 3.66211 0 L 12.9395 -24.4629 L 45.7031 -24.4629 Z M 29.1992 -67.0898 L 29.4434 -67.0898 L 44.8242 -26.709 L 13.8184 -26.709 Z"/></g><line id="Baseline-L" style="fill:none;stroke:#27AAE1;opacity:1;stroke-width:0.577;" x1="263" x2="3036" y1="1556" y2="1556"/><line id="Capline-L" style="fill:none;stroke:#27AAE1;opacity:1;stroke-width:0.577;" x1="263" x2="3036" y1="1485.54" y2="1485.54"/><rect height="119.336" id="left-margin" style="fill:darkred;stroke:none;opacity:0.4;" width="12.4512" x="1394.06" y="1030.79"/><rect height="119.336" id="right-margin" style="fill:darkgreen;stroke:none;opacity:0.4;" width="12.4512" x="1502.5112" y="1030.79"/><rect x="1406.5112" y="1045" width="96" height="96" fill="none" stroke="blue" stroke-dasharray="5"/><rect x="1394.06" y="1030.79" width="120.9024" height="119.336" fill="none" stroke="blue"/></g><g id="Symbols"><g id="Bold-L" transform="matrix(1 0 0 1 2266 1556)"><path d="M58.05 6.856  16.125 -35.069  58.05 -76.994  68.531 -66.432  44.586 -42.325 H123.921 V-69.899 H138.836 V-27.732 H44.747 L68.531 -3.786 L58.05 6.856 Z"/></g><g id="Semibold-L" transform="matrix(1 0 0 1 1970.27 1556)"><path d="M58.119 5.174  17.878 -35.069  58.119 -75.312  66.919 -66.432  41.712 -41.133 H124.551 V-68.707 H137.014 V-28.924 H41.873 L66.919 -3.786 L58.119 5.174 Z"/></g><g id="Medium-L" transform="matrix(1 0 0 1 1674.31 1556)"><path d="M58.173 3.912  19.192 -35.069  58.173 -74.049  65.709 -66.432  39.555 -40.24 H125.025 V-67.814 H135.647 V-29.817 H39.716 L65.709 -3.786 L58.173 3.912 Z"/></g><g id="Regular-L" transform="matrix(1 0 0 1 1378.56 1556)"><path d="M58.211 2.986  20.156 -35.069  58.211 -73.124  64.823 -66.432  37.974 -39.584 H125.372 V-67.157 H134.644 V-30.473 H38.136 L64.823 -3.786 L58.211 2.986 Z"/></g><g id="Light-L" transform="matrix(1 0 0 1 1082.77 1556)"><path d="M59.142 0.94  23.072 -35.13  59.142 -71.139  64.202 -66.059  36.702 -38.56 H124.659 V-65.7 H131.728 V-31.652 H36.802 L64.202 -4.251 L59.142 0.94 Z"/></g><g id="Thin-L" transform="matrix(1 0 0 1 787.282 1556)"><path d="M60.072 -1.106  25.985 -35.193  60.072 -69.154  63.582 -65.687  35.431 -37.537 H123.945 V-64.242 H128.815 V-32.831 H35.469 L63.582 -4.717 L60.072 -1.106 Z"/></g><g id="Ultralight-L" transform="matrix(1 0 0 1 491.205 1556)"><path d="M60.63 -2.335  27.735 -35.23  60.63 -67.964  63.21 -65.464  34.669 -36.923 H123.517 V-63.368 H127.065 V-33.537 H34.669 L63.21 -4.996 L60.63 -2.335 Z"/></g><g id="Bold-M" transform="matrix(1 0 0 1 2281.8 1126)"><path d="M45.375 -1.98  12 -35.23  45.375 -68.48  55.875 -57.792  40.875 -42.792 H92.875 V-62.542 H108 V-27.667 H40.875 L55.875 -12.667 L45.375 -1.98 Z"/></g><g id="Semibold-M" transform="matrix(1 0 0 1 1985.97 1126)"><path d="M45.429 -3.719  13.848 -35.23  45.429 -66.741  54.19 -57.792  37.94 -41.542 H93.528 V-61.292 H106.153 V-28.917 H37.94 L54.19 -12.667 L45.429 -3.719 Z"/></g><g id="Medium-M" transform="matrix(1 0 0 1 1689.91 1126)"><path d="M45.47 -5.024  15.234 -35.23  45.47 -65.436  52.926 -57.792  35.739 -40.605 H94.016 V-60.355 H104.766 V-29.855 H35.739 L52.926 -12.667 L45.47 -5.024 Z"/></g><g id="Regular-M" transform="matrix(1 0 0 1 1394.06 1126)"><path d="M45.5 -5.98  16.25 -35.23  45.5 -64.48  52 -57.792  34.125 -39.917 H94.375 V-59.667 H103.75 V-30.542 H34.125 L52 -12.667 L45.5 -5.98 Z"/></g><g id="Light-M" transform="matrix(1 0 0 1 1098.18 1126)"><path d="M46.174 -7.566  18.51 -35.23  46.174 -62.894  51.039 -57.889  31.889 -38.74 H94.495 V-58.537 H101.49 V-31.745 H31.889 L51.039 -12.595 L46.174 -7.566 Z"/></g><g id="Thin-M" transform="matrix(1 0 0 1 802.565 1126)"><path d="M46.846 -9.152  20.769 -35.23  46.846 -61.307  50.078 -57.985  29.654 -37.561 H94.615 V-57.407 H99.231 V-32.946 H29.654 L50.078 -12.524 L46.846 -9.152 Z"/></g><g id="Ultralight-M" transform="matrix(1 0 0 1 506.415 1126)"><path d="M47.25 -10.105  22.125 -35.23  47.25 -60.355  49.5 -58.042  28.312 -36.855 H94.688 V-56.73 H97.875 V-33.667 H28.312 L49.5 -12.48 L47.25 -10.105 Z"/></g><g id="Bold-S" transform="matrix(1 0 0 1 2294.23 696)"><path d="M35.209 -11.954  11.835 -35.23  35.209 -58.505  43.001 -50.566  33.237 -40.802 H71.7 V-51.257 H82.845 V-29.658 H33.237 L43.001 -19.894 L35.209 -11.954 Z"/></g><g id="Semibold-S" transform="matrix(1 0 0 1 1998.1 696)"><path d="M35.252 -13.326  13.293 -35.23  35.252 -57.134  41.671 -50.566  30.921 -39.816 H72.215 V-50.27 H81.387 V-30.644 H30.921 L41.671 -19.894 L35.252 -13.326 Z"/></g><g id="Medium-S" transform="matrix(1 0 0 1 1701.85 696)"><path d="M35.284 -14.356  14.386 -35.23  35.284 -56.104  40.674 -50.566  29.184 -39.076 H72.601 V-49.531 H80.294 V-31.384 H29.184 L40.674 -19.894 L35.284 -14.356 Z"/></g><g id="Regular-S" transform="matrix(1 0 0 1 1405.73 696)"><path d="M35.308 -15.11  15.188 -35.23  35.308 -55.349  39.943 -50.566  27.911 -38.534 H72.884 V-48.988 H79.492 V-31.926 H27.911 L39.943 -19.894 L35.308 -15.11 Z"/></g><g id="Light-S" transform="matrix(1 0 0 1 1109.75 696)"><path d="M35.839 -16.362  16.971 -35.23  35.839 -54.098  39.185 -50.642  26.146 -37.605 H72.979 V-48.097 H77.709 V-32.875 H26.146 L39.185 -19.837 L35.839 -16.362 Z"/></g><g id="Thin-S" transform="matrix(1 0 0 1 814.015 696)"><path d="M36.37 -17.614  18.754 -35.23  36.37 -52.846  38.426 -50.718  24.383 -36.675 H73.073 V-47.205 H75.926 V-33.823 H24.383 L38.426 -19.78 L36.37 -17.614 Z"/></g><g id="Ultralight-S" transform="matrix(1 0 0 1 517.792 696)"><path d="M36.689 -18.365  19.824 -35.23  36.689 -52.095  37.971 -50.763  23.325 -36.118 H73.13 V-46.67 H74.856 V-34.392 H23.325 L37.971 -19.746 L36.689 -18.365 Z"/></g></g></svg>