<svg xmlns="http://www.w3.org/2000/svg" height="24" width="24"><path d="m18.05 8.35-.925-1.95-1.925-.9 1.925-.9.925-1.95.9 1.95 1.95.9-1.95.9Zm2 7.3-.7-1.475-1.45-.675 1.45-.675.7-1.475.675 1.475 1.475.675-1.475.675ZM7.925 21l-.25-2.05q-.375-.125-.812-.388-.438-.262-.713-.512l-1.875.825-1.625-2.8 1.675-1.225q-.1-.475-.1-.85t.1-.85L2.65 11.925l1.625-2.8 1.875.825q.275-.25.713-.512.437-.263.812-.388L7.925 7h3.225l.275 2.05q.375.125.813.388.437.262.687.512l1.9-.825 1.6 2.8-1.65 1.225q.1.475.1.85t-.1.85l1.65 1.225-1.6 2.8-1.9-.825q-.25.25-.687.512-.438.263-.813.388L11.15 21Zm1.625-4.55q1.025 0 1.738-.712Q12 15.025 12 14t-.712-1.738q-.713-.712-1.738-.712t-1.75.712q-.725.713-.725 1.738t.725 1.738q.725.712 1.75.712Z"/></svg>