<svg xmlns="http://www.w3.org/2000/svg" height="48" viewBox="0 -960 960 960" width="48"><path d="M514-375h25v-97l103 97h40L565-482l117-103h-38l-105 94.5V-585h-25v210Zm-180 0h28.09l63.73-178.62q4.18-12.84-3.32-22.11T402.75-585H279v25h122l-67 185ZM226-159q-27.5 0-47.25-19.75T159-226v-508q0-27.5 19.75-47.25T226-801h508q27.5 0 47.25 19.75T801-734v508q0 27.5-19.75 47.25T734-159H226Zm0-35h508q12 0 22-10t10-22v-508q0-12-10-22t-22-10H226q-12 0-22 10t-10 22v508q0 12 10 22t22 10Zm-32-572v572-572Z"/></svg>