<svg xmlns="http://www.w3.org/2000/svg" height="20" width="20"><path d="M8.75 8.25Q9.229 8.25 9.573 7.906Q9.917 7.562 9.917 7.083Q9.917 6.604 9.573 6.26Q9.229 5.917 8.75 5.917Q8.271 5.917 7.927 6.26Q7.583 6.604 7.583 7.083Q7.583 7.562 7.927 7.906Q8.271 8.25 8.75 8.25ZM7.083 12.417Q7.562 12.417 7.906 12.073Q8.25 11.729 8.25 11.25Q8.25 10.771 7.906 10.427Q7.562 10.083 7.083 10.083Q6.604 10.083 6.26 10.427Q5.917 10.771 5.917 11.25Q5.917 11.729 6.26 12.073Q6.604 12.417 7.083 12.417ZM12.5 13.292Q12.812 13.292 13.052 13.052Q13.292 12.812 13.292 12.5Q13.292 12.188 13.052 11.948Q12.812 11.708 12.5 11.708Q12.188 11.708 11.948 11.948Q11.708 12.188 11.708 12.5Q11.708 12.812 11.948 13.052Q12.188 13.292 12.5 13.292ZM10 18.125Q8.312 18.125 6.833 17.49Q5.354 16.854 4.25 15.75Q3.146 14.646 2.51 13.167Q1.875 11.688 1.875 10Q1.875 8.042 2.719 6.406Q3.562 4.771 4.917 3.667Q6.271 2.562 8.01 2.094Q9.75 1.625 11.542 2Q11.438 2.917 11.708 3.688Q11.979 4.458 12.552 5Q13.125 5.542 13.938 5.802Q14.75 6.062 15.729 5.938Q15.5 7.104 16.125 8.156Q16.75 9.208 18.104 9.312Q18.208 11.062 17.635 12.656Q17.062 14.25 15.969 15.469Q14.875 16.688 13.333 17.406Q11.792 18.125 10 18.125ZM10 16.792Q12.625 16.792 14.594 14.969Q16.562 13.146 16.771 10.333Q15.729 9.896 15.146 9.094Q14.562 8.292 14.375 7.25Q12.771 7.021 11.615 5.927Q10.458 4.833 10.25 3.188Q8.729 3.125 7.438 3.677Q6.146 4.229 5.208 5.188Q4.271 6.146 3.74 7.406Q3.208 8.667 3.208 10Q3.208 12.833 5.188 14.812Q7.167 16.792 10 16.792ZM10 9.875Q10 9.875 10 9.875Q10 9.875 10 9.875Q10 9.875 10 9.875Q10 9.875 10 9.875Q10 9.875 10 9.875Q10 9.875 10 9.875Q10 9.875 10 9.875Q10 9.875 10 9.875Q10 9.875 10 9.875Q10 9.875 10 9.875Q10 9.875 10 9.875Q10 9.875 10 9.875Z"/></svg>