<svg xmlns="http://www.w3.org/2000/svg" height="48" viewBox="0 -960 960 960" width="48"><path d="M350.08-452.08h38.77v-106.77q0-36 26.41-62.81 26.42-26.8 64.74-26.8v-38.77q-54 0-91.96 37.43-37.96 37.43-37.96 90.95v106.77ZM172.38-144q-28.25 0-48.31-20.07Q104-184.13 104-212.38v-72.7q0-28.25 20.07-48.31 20.06-20.07 48.31-20.07h49.16v-205.39q0-106.3 75.25-181.73Q372.04-816 479.98-816t183.71 74.92q75.77 74.93 75.77 182.23v205.39h48.16q28.25 0 48.31 20.07Q856-313.33 856-285.08v72.7q0 28.25-20.07 48.31Q815.87-144 787.62-144H172.38Z"/></svg>