<svg xmlns="http://www.w3.org/2000/svg" height="20" viewBox="0 -960 960 960" width="20"><path d="M323.826-258.826v-459.871h21.651q1.131-55.848 40.343-95.186Q425.032-853.22 480-853.22q56.098 0 95.31 39.212 39.213 39.213 39.213 95.311h21.651v459.871H323.826ZM408-718.697h144q0-30-21-51t-51-21q-30 0-51 21t-21 51Zm268.218 459.871v-459.871h36.999q39.242-3 66.122 24.911 26.879 27.91 26.879 68.09v273.869q0 38.118-26.879 64.559-26.88 26.442-66.122 28.442h-36.999Zm-429.435 0q-39.242-2-66.122-28.442-26.879-26.441-26.879-64.559v-273.869q0-40.18 26.879-68.09 26.88-27.911 66.122-24.911h36.999v459.871h-36.999ZM109.477-98.824v-93.002h741.046v93.002H109.477Z"/></svg>