<svg xmlns="http://www.w3.org/2000/svg" height="20" width="20"><path d="M10.917 9.708h.75q.021-.5.145-.76.126-.26.626-.719.479-.479.687-.833.208-.354.208-.834 0-.833-.593-1.364-.594-.531-1.469-.531-.646 0-1.177.364-.532.365-.782.99l.667.312q.229-.458.542-.698.312-.239.75-.239.562 0 .948.344.385.343.385.864 0 .313-.177.584-.177.27-.635.687-.417.417-.646.833-.229.417-.229 1Zm.395 2.271q.271 0 .469-.198.198-.198.198-.469 0-.27-.198-.458-.198-.187-.469-.187-.27 0-.458.187-.187.188-.187.458 0 .271.187.469.188.198.458.198ZM5.583 14V2.625h11.375V14Zm-2.541 2.542V5.688h.854v10h10v.854Z"/></svg>