<svg xmlns="http://www.w3.org/2000/svg" height="48" viewBox="0 -960 960 960" width="48"><path d="M482.5-156q-137.5 0-232-94.21T156-480.5q0-136.92 94.5-232.21Q345-808 481.5-808T713-712.53q95 95.46 95 231.03 0 137.08-95.17 231.29Q617.65-156 482.5-156Zm2.5-77q102 0 173.5-72.08Q730-377.17 730-479.56q0-20.44-3-38.94-3-18.5-13-39.5-37 5-52.33 7.5-15.34 2.5-26.17 2.5-63.5 0-127.5-34.5T398.53-681Q375-615 333.5-568T231-500q-2 119 73.42 193T485-233ZM252-575q28-16 52-46t31-63q-29 21-50.5 48.5T252-575Zm150.5 159q-17.5 0-29.5-10.79T361-456q0-17.58 11.69-30.29T403.4-499q15.75 0 28.18 12.37Q444-474.25 444-456.2q0 18.62-12.64 29.41Q418.73-416 402.5-416ZM649-603q13 0 25-2t22-4.04Q660-665 605-698.5 550-732 481-732q-10 0-19 1t-20 3q30 59 90 92t117 33Zm-89.9 188q-16.91 0-29-11.08Q518-437.15 518-456q0-18.42 12.1-30.71 12.09-12.29 29-12.29 16.9 0 29.4 12.36Q601-474.27 601-456.1q0 18.76-12.5 29.93Q576-415 559.1-415ZM19-728v-214h213v92H110v122H19Zm0 709v-213h91v122h122v91H19Zm709 0v-91h122v-122h92v213H728Zm122-709v-122H728v-92h214v214h-92Zm-408 0Zm-107 44Z"/></svg>