<svg xmlns="http://www.w3.org/2000/svg" height="24" viewBox="0 -960 960 960" width="24"><path d="M480.02-420.5q-24.02 0-41.77-17.73-17.75-17.73-17.75-41.75t17.73-41.77q17.73-17.75 41.75-17.75t41.77 17.73q17.75 17.73 17.75 41.75t-17.73 41.77q-17.73 17.75-41.75 17.75Zm-.02 121q75.5 0 128-52.5t52.5-128q0-75.5-52.5-128t-128-52.5q-75.5 0-128 52.5t-52.5 128q0 75.5 52.5 128t128 52.5ZM177-135q-50.94 0-85.97-35.03T56-256v-448q0-50.94 35.03-85.97T177-825h606q50.94 0 85.97 35.03T904-704v448q0 50.94-35.03 85.97T783-135H177Zm0-121h606v-448H177v448Zm0 0v-448 448Z"/></svg>