<svg xmlns="http://www.w3.org/2000/svg" version="1.1" width="3300" height="2000"><g id="Notes"><style>
    text {
      font-family: monospace;
      text-anchor: middle;
    }
    text.emphasis {
      font-weight:bold;
    }
    text.lanchor {
      text-anchor: start;
    }
  </style><rect height="2200" id="artboard" fill="white" width="3300" x="0" y="0"/><line id="" style="fill:none;stroke:black;stroke-width:0.5;" x1="263" x2="3036" y1="292" y2="292"/><text class="lanchor emphasis" transform="matrix(1 0 0 1 263 322)">Weight/Scale Variations</text><text transform="matrix(1 0 0 1 559.711 322)">Ultralight</text><text transform="matrix(1 0 0 1 856.422 322)">Thin</text><text transform="matrix(1 0 0 1 1153.13 322)">Light</text><text transform="matrix(1 0 0 1 1449.84 322)">Regular</text><text transform="matrix(1 0 0 1 1746.56 322)">Medium</text><text transform="matrix(1 0 0 1 2043.27 322)">Semibold</text><text transform="matrix(1 0 0 1 2339.98 322)">Bold</text><text transform="matrix(1 0 0 1 2636.69 322)">Heavy</text><text transform="matrix(1 0 0 1 2933.4 322)">Black</text><text id="template-version" style="text-anchor: end;" transform="matrix(1 0 0 1 3036 1933)">Template v.1.0</text><text class="lanchor" transform="matrix(1 0 0 1 263 726)">Small</text><text class="lanchor" transform="matrix(1 0 0 1 263 1156)">Medium</text><text class="lanchor" transform="matrix(1 0 0 1 263 1586)">Large</text></g><g id="Guides"><g id="H-reference" style="fill:#27AAE1;stroke:none;" transform="matrix(1 0 0 1 339 696)"><path d="M 54.9316 0 L 57.666 0 L 30.5664 -70.459 L 28.0762 -70.459 L 0.976562 0 L 3.66211 0 L 12.9395 -24.4629 L 45.7031 -24.4629 Z M 29.1992 -67.0898 L 29.4434 -67.0898 L 44.8242 -26.709 L 13.8184 -26.709 Z"/></g><line id="Baseline-S" style="fill:none;stroke:#27AAE1;opacity:1;stroke-width:0.577;" x1="263" x2="3036" y1="696" y2="696"/><line id="Capline-S" style="fill:none;stroke:#27AAE1;opacity:1;stroke-width:0.577;" x1="263" x2="3036" y1="625.541" y2="625.541"/><g id="H-reference" style="fill:#27AAE1;stroke:none;" transform="matrix(1 0 0 1 339 1126)"><path d="M 54.9316 0 L 57.666 0 L 30.5664 -70.459 L 28.0762 -70.459 L 0.976562 0 L 3.66211 0 L 12.9395 -24.4629 L 45.7031 -24.4629 Z M 29.1992 -67.0898 L 29.4434 -67.0898 L 44.8242 -26.709 L 13.8184 -26.709 Z"/></g><line id="Baseline-M" style="fill:none;stroke:#27AAE1;opacity:1;stroke-width:0.577;" x1="263" x2="3036" y1="1126" y2="1126"/><line id="Capline-M" style="fill:none;stroke:#27AAE1;opacity:1;stroke-width:0.577;" x1="263" x2="3036" y1="1055.54" y2="1055.54"/><g id="H-reference" style="fill:#27AAE1;stroke:none;" transform="matrix(1 0 0 1 339 1556)"><path d="M 54.9316 0 L 57.666 0 L 30.5664 -70.459 L 28.0762 -70.459 L 0.976562 0 L 3.66211 0 L 12.9395 -24.4629 L 45.7031 -24.4629 Z M 29.1992 -67.0898 L 29.4434 -67.0898 L 44.8242 -26.709 L 13.8184 -26.709 Z"/></g><line id="Baseline-L" style="fill:none;stroke:#27AAE1;opacity:1;stroke-width:0.577;" x1="263" x2="3036" y1="1556" y2="1556"/><line id="Capline-L" style="fill:none;stroke:#27AAE1;opacity:1;stroke-width:0.577;" x1="263" x2="3036" y1="1485.54" y2="1485.54"/><rect height="119.336" id="left-margin" style="fill:darkred;stroke:none;opacity:0.4;" width="12.4512" x="1394.06" y="1030.79"/><rect height="119.336" id="right-margin" style="fill:darkgreen;stroke:none;opacity:0.4;" width="12.4512" x="1502.5112" y="1030.79"/><rect x="1406.5112" y="1045" width="96" height="96" fill="none" stroke="blue" stroke-dasharray="5"/><rect x="1394.06" y="1030.79" width="120.9024" height="119.336" fill="none" stroke="blue"/></g><g id="Symbols"><g id="Bold-L" transform="matrix(1 0 0 1 2266 1556)"><path d="M44.66625 2.180000000000014 H110.295 Q112.02843750000001 2.180000000000014 113.41921875 0.8164700000000096 Q114.81 -0.5470599999999806 114.81 -2.5697799999999873 Q114.81 -4.431249999999984 113.41921875 -5.7212499999999835 Q112.02843750000001 -7.011249999999983 110.295 -7.011249999999983 H44.66625 Q42.7715625 -7.011249999999983 41.38078125 -5.680292499999979 Q39.99 -4.349173749999984 39.99 -2.5359174999999823 Q39.99 -0.5612499999999869 41.38078125 0.809375000000017 Q42.7715625 2.180000000000014 44.66625 2.180000000000014 Z M30.47625 26.367500000000014 Q24.4374375 26.367500000000014 20.11996875 22.050031250000014 Q15.8025 17.732562500000014 15.8025 11.693750000000016 V-82.15374999999999 Q15.8025 -88.25915874999998 20.11996875 -92.62387375 Q24.4374375 -96.98874999999998 30.47625 -96.98874999999998 H124.32375 Q130.42915875 -96.98874999999998 134.79387375000002 -92.62387375 Q139.15875 -88.25915874999998 139.15875 -82.15374999999999 V11.693750000000016 Q139.15875 17.732562500000014 134.79387375000002 22.050031250000014 Q130.42915875 26.367500000000014 124.32375 26.367500000000014 H30.47625 Z M30.47625 11.693750000000016 H124.32375 Q124.32375 11.693750000000016 124.32375 11.693750000000016 Q124.32375 11.693750000000016 124.32375 11.693750000000016 V-82.15374999999999 Q124.32375 -82.15374999999999 124.32375 -82.15374999999999 Q124.32375 -82.15374999999999 124.32375 -82.15374999999999 H30.47625 Q30.47625 -82.15374999999999 30.47625 -82.15374999999999 Q30.47625 -82.15374999999999 30.47625 -82.15374999999999 V11.693750000000016 Q30.47625 11.693750000000016 30.47625 11.693750000000016 Q30.47625 11.693750000000016 30.47625 11.693750000000016 Z"/></g><g id="Semibold-L" transform="matrix(1 0 0 1 1970.27 1556)"><path d="M44.87652 2.5305575000000147 H110.08473000000001 Q112.09858125 2.5305575000000147 113.62948875 1.0114212500000122 Q115.1605575 -0.5077149999999833 115.1605575 -2.760377499999983 Q115.1605575 -4.851951249999985 113.62948875 -6.317068749999983 Q112.09858125 -7.782347499999986 110.08473000000001 -7.782347499999986 H44.87652 Q42.70141875 -7.782347499999986 41.170511250000004 -6.281593749999992 Q39.6394425 -4.7808399999999835 39.6394425 -2.7166787499999856 Q39.6394425 -0.4911062499999872 41.170511250000004 1.0196450000000183 Q42.70141875 2.5305575000000147 44.87652 2.5305575000000147 Z M29.84527875 25.736528750000016 Q24.39889875 25.736528750000016 20.416185 21.753815000000017 Q16.43347125 17.771101250000015 16.43347125 12.324721250000017 V-82.78472124999999 Q16.43347125 -88.26867249999998 20.416185 -92.27815375 Q24.39889875 -96.287635 29.84527875 -96.287635 H124.95472125 Q130.4386725 -96.287635 134.44815375000002 -92.27815375 Q138.457635 -88.26867249999998 138.457635 -82.78472124999999 V12.324721250000017 Q138.457635 17.771101250000015 134.44815375000002 21.753815000000017 Q130.4386725 25.736528750000016 124.95472125 25.736528750000016 H29.84527875 Z M29.84527875 12.324721250000017 H124.95472125 Q124.95472125 12.324721250000017 124.95472125 12.324721250000017 Q124.95472125 12.324721250000017 124.95472125 12.324721250000017 V-82.78472124999999 Q124.95472125 -82.78472124999999 124.95472125 -82.78472124999999 Q124.95472125 -82.78472124999999 124.95472125 -82.78472124999999 H29.84527875 Q29.84527875 -82.78472124999999 29.84527875 -82.78472124999999 Q29.84527875 -82.78472124999999 29.84527875 -82.78472124999999 V12.324721250000017 Q29.84527875 12.324721250000017 29.84527875 12.324721250000017 Q29.84527875 12.324721250000017 29.84527875 12.324721250000017 Z"/></g><g id="Medium-L" transform="matrix(1 0 0 1 1674.31 1556)"><path d="M45.03438375 2.793395000000018 H109.92686625 Q112.15114875 2.793395000000018 113.78735250000001 1.1576750000000118 Q115.423395 -0.4782062499999853 115.423395 -2.903406249999982 Q115.423395 -5.167356249999983 113.78735250000001 -6.764053749999981 Q112.15114875 -8.360912499999984 109.92686625 -8.360912499999984 H45.03438375 Q42.64885125 -8.360912499999984 41.0126475 -6.732771249999992 Q39.376605 -5.104791249999991 39.376605 -2.8522899999999893 Q39.376605 -0.438538749999978 41.0126475 1.1775087500000154 Q42.64885125 2.793395000000018 45.03438375 2.793395000000018 Z M29.37201 25.263260000000017 Q24.370035 25.263260000000017 20.6383875 21.531612500000016 Q16.90674 17.799965000000014 16.90674 12.797990000000016 V-83.25798999999998 Q16.90674 -88.27592874999999 20.6383875 -92.01886374999998 Q24.370035 -95.76179874999997 29.37201 -95.76179874999997 H125.42799 Q130.44592875 -95.76179874999997 134.18886375 -92.01886374999998 Q137.93179874999998 -88.27592874999999 137.93179874999998 -83.25798999999998 V12.797990000000016 Q137.93179874999998 17.799965000000014 134.18886375 21.531612500000016 Q130.44592875 25.263260000000017 125.42799 25.263260000000017 H29.37201 Z M29.37201 12.797990000000016 H125.42799 Q125.42799 12.797990000000016 125.42799 12.797990000000016 Q125.42799 12.797990000000016 125.42799 12.797990000000016 V-83.25798999999998 Q125.42799 -83.25798999999998 125.42799 -83.25798999999998 Q125.42799 -83.25798999999998 125.42799 -83.25798999999998 H29.37201 Q29.37201 -83.25798999999998 29.37201 -83.25798999999998 Q29.37201 -83.25798999999998 29.37201 -83.25798999999998 V12.797990000000016 Q29.37201 12.797990000000016 29.37201 12.797990000000016 Q29.37201 12.797990000000016 29.37201 12.797990000000016 Z"/></g><g id="Regular-L" transform="matrix(1 0 0 1 1378.56 1556)"><path d="M45.15 2.9862500000000125 H109.81125 Q112.1896875 2.9862500000000125 113.90296875 1.26490625000001 Q115.61625000000001 -0.4565987499999835 115.61625000000001 -3.0082187499999904 Q115.61625000000001 -5.3987499999999855 113.90296875 -7.0918749999999875 Q112.1896875 -8.784999999999982 109.81125 -8.784999999999982 H45.15 Q42.6103125 -8.784999999999982 40.89703125 -7.063656249999987 Q39.18375 -5.342151249999986 39.18375 -2.951781249999982 Q39.18375 -0.39999999999998437 40.89703125 1.2931250000000176 Q42.6103125 2.9862500000000125 45.15 2.9862500000000125 Z M29.025000000000002 24.916250000000016 Q24.34875 24.916250000000016 20.80125 21.368750000000016 Q17.25375 17.821250000000017 17.25375 13.145000000000014 V-83.60499999999999 Q17.25375 -88.28125 20.80125 -91.82874999999999 Q24.34875 -95.37625 29.025000000000002 -95.37625 H125.775 Q130.45125000000002 -95.37625 133.99875 -91.82874999999999 Q137.54625000000001 -88.28125 137.54625000000001 -83.60499999999999 V13.145000000000014 Q137.54625000000001 17.821250000000017 133.99875 21.368750000000016 Q130.45125000000002 24.916250000000016 125.775 24.916250000000016 H29.025000000000002 Z M29.025000000000002 13.145000000000014 H125.775 Q125.775 13.145000000000014 125.775 13.145000000000014 Q125.775 13.145000000000014 125.775 13.145000000000014 V-83.60499999999999 Q125.775 -83.60499999999999 125.775 -83.60499999999999 Q125.775 -83.60499999999999 125.775 -83.60499999999999 H29.025000000000002 Q29.025000000000002 -83.60499999999999 29.025000000000002 -83.60499999999999 Q29.025000000000002 -83.60499999999999 29.025000000000002 -83.60499999999999 V13.145000000000014 Q29.025000000000002 13.145000000000014 29.025000000000002 13.145000000000014 Q29.025000000000002 13.145000000000014 29.025000000000002 13.145000000000014 Z"/></g><g id="Light-L" transform="matrix(1 0 0 1 1082.77 1556)"><path d="M45.58424625 1.3735887500000175 H109.37700375 Q111.25782375 1.3735887500000175 112.63070625 -0.00767874999998952 Q114.00358875 -1.3891074999999873 114.00358875 -3.443593749999984 Q114.00358875 -5.336668749999987 112.63070625 -6.688749999999985 Q111.25782375 -8.040669999999984 109.37700375 -8.040669999999984 H45.58424625 Q43.54217625 -8.040669999999984 42.16929375 -6.659402499999985 Q40.79641125 -5.27797374999998 40.79641125 -3.3847374999999857 Q40.79641125 -1.33041249999998 42.16929375 0.021668750000017667 Q43.54217625 1.3735887500000175 45.58424625 1.3735887500000175 Z M31.8781575 21.691088750000013 Q27.27785625 21.691088750000013 23.87838375 18.291616250000015 Q20.478911250000003 14.892143750000017 20.478911250000003 10.291842500000016 V-80.7518425 Q20.478911250000003 -85.35214375 23.87838375 -88.75161624999998 Q27.27785625 -92.15108874999999 31.8781575 -92.15108874999999 H122.92184250000001 Q127.52214375000001 -92.15108874999999 130.92161625 -88.75161624999998 Q134.32108875 -85.35214375 134.32108875 -80.7518425 V10.291842500000016 Q134.32108875 14.892143750000017 130.92161625 18.291616250000015 Q127.52214375000001 21.691088750000013 122.92184250000001 21.691088750000013 H31.8781575 Z M31.8781575 12.276668750000017 H122.92184250000001 Q123.6661725 12.276668750000017 124.28650125 11.656501250000016 Q124.90666875000001 11.036172500000013 124.90666875000001 10.291842500000016 V-80.7518425 Q124.90666875000001 -81.49617249999999 124.28650125 -82.11650124999998 Q123.6661725 -82.73666874999999 122.92184250000001 -82.73666874999999 H31.8781575 Q31.133827500000002 -82.73666874999999 30.51349875 -82.11650124999998 Q29.89333125 -81.49617249999999 29.89333125 -80.7518425 V10.291842500000016 Q29.89333125 11.036172500000013 30.51349875 11.656501250000016 Q31.133827500000002 12.276668750000017 31.8781575 12.276668750000017 Z"/></g><g id="Thin-L" transform="matrix(1 0 0 1 787.282 1556)"><path d="M46.01833125 -0.2387499999999818 H108.94291875 Q110.32596000000001 -0.2387499999999818 111.358605 -1.280102499999991 Q112.39125 -2.321454999999986 112.39125 -3.8788074999999864 Q112.39125 -5.274748749999986 111.358605 -6.285624999999989 Q110.32596000000001 -7.296501249999984 108.94291875 -7.296501249999984 H46.01833125 Q44.47404 -7.296501249999984 43.441395 -6.255148749999982 Q42.40875 -5.213796249999987 42.40875 -3.8178549999999873 Q42.40875 -2.260502499999987 43.441395 -1.2496262499999844 Q44.47404 -0.2387499999999818 46.01833125 -0.2387499999999818 Z M34.730669999999996 18.466250000000016 Q30.206478750000002 18.466250000000016 26.955033750000002 15.214966250000014 Q23.70375 11.963521250000014 23.70375 7.4393300000000195 V-77.89932999999999 Q23.70375 -82.42352125 26.955033750000002 -85.67496624999998 Q30.206478750000002 -88.92624999999998 34.730669999999996 -88.92624999999998 H120.06933000000001 Q124.59352125000001 -88.92624999999998 127.84496625 -85.67496624999998 Q131.09625 -82.42352125 131.09625 -77.89932999999999 V7.4393300000000195 Q131.09625 11.963521250000014 127.84496625 15.214966250000014 Q124.59352125000001 18.466250000000016 120.06933000000001 18.466250000000016 H34.730669999999996 Z M34.730669999999996 11.408498750000014 H120.06933000000001 Q121.55766750000001 11.408498750000014 122.79816375 10.168163750000012 Q124.03849875 8.927667500000013 124.03849875 7.4393300000000195 V-77.89932999999999 Q124.03849875 -79.38766749999999 122.79816375 -80.62816374999998 Q121.55766750000001 -81.86849874999999 120.06933000000001 -81.86849874999999 H34.730669999999996 Q33.2423325 -81.86849874999999 32.001836250000004 -80.62816374999998 Q30.761501250000002 -79.38766749999999 30.761501250000002 -77.89932999999999 V7.4393300000000195 Q30.761501250000002 8.927667500000013 32.001836250000004 10.168163750000012 Q33.2423325 11.408498750000014 34.730669999999996 11.408498750000014 Z"/></g><g id="Ultralight-L" transform="matrix(1 0 0 1 491.205 1556)"><path d="M46.27875 -1.206249999999983 H108.6825 Q109.76690625 -1.206249999999983 110.5952475 -2.0436212499999797 Q111.42375 -2.8809924999999907 111.42375 -4.139871249999985 Q111.42375 -5.237499999999983 110.5952475 -6.043749999999989 Q109.76690625 -6.849999999999987 108.6825 -6.849999999999987 H46.27875 Q45.03309375 -6.849999999999987 44.2047525 -6.01262874999999 Q43.37625 -5.175257499999979 43.37625 -4.077628749999988 Q43.37625 -2.818749999999987 44.2047525 -2.0124999999999886 Q45.03309375 -1.206249999999983 46.27875 -1.206249999999983 Z M36.4425 16.531250000000014 Q31.96378125 16.531250000000014 28.80134625 13.368653750000014 Q25.63875 10.206218750000016 25.63875 5.727500000000013 V-76.18749999999999 Q25.63875 -80.66621874999998 28.80134625 -83.82881499999999 Q31.96378125 -86.99124999999998 36.4425 -86.99124999999998 H118.3575 Q122.83621875 -86.99124999999998 125.99881500000001 -83.82881499999999 Q129.16125 -80.66621874999998 129.16125 -76.18749999999999 V5.727500000000013 Q129.16125 10.206218750000016 125.99881500000001 13.368653750000014 Q122.83621875 16.531250000000014 118.3575 16.531250000000014 H36.4425 Z M36.4425 10.887500000000014 H118.3575 Q120.2925 10.887500000000014 121.905 9.275000000000013 Q123.5175 7.662500000000016 123.5175 5.727500000000013 V-76.18749999999999 Q123.5175 -78.12249999999999 121.905 -79.73499999999999 Q120.2925 -81.34749999999998 118.3575 -81.34749999999998 H36.4425 Q34.5075 -81.34749999999998 32.895 -79.73499999999999 Q31.282500000000002 -78.12249999999999 31.282500000000002 -76.18749999999999 V5.727500000000013 Q31.282500000000002 7.662500000000016 32.895 9.275000000000013 Q34.5075 10.887500000000014 36.4425 10.887500000000014 Z"/></g><g id="Bold-M" transform="matrix(1 0 0 1 2281.8 1126)"><path d="M37.375 -6.97999999999999 H82.625 Q84.875 -6.97999999999999 86.5625 -8.64012499999999 Q88.25 -10.300124999999987 88.25 -12.64012499999999 Q88.25 -14.97999999999999 86.5625 -16.60499999999999 Q84.875 -18.22999999999999 82.625 -18.22999999999999 H37.375 Q35.125 -18.22999999999999 33.4375 -16.59512499999999 Q31.75 -14.960249999999988 31.75 -12.657624999999989 Q31.75 -10.35499999999999 33.4375 -8.66749999999999 Q35.125 -6.97999999999999 37.375 -6.97999999999999 Z M26.5 15.27000000000001 Q19.325 15.27000000000001 14.4125 10.35750000000001 Q9.5 5.445000000000011 9.5 -1.7299999999999898 V-68.72999999999999 Q9.5 -75.90499999999999 14.4125 -80.8175 Q19.325 -85.72999999999999 26.5 -85.72999999999999 H93.5 Q100.675 -85.72999999999999 105.5875 -80.8175 Q110.5 -75.90499999999999 110.5 -68.72999999999999 V-1.7299999999999898 Q110.5 5.445000000000011 105.5875 10.35750000000001 Q100.675 15.27000000000001 93.5 15.27000000000001 H26.5 Z M26.5 -1.7299999999999898 H93.5 Q93.5 -1.7299999999999898 93.5 -1.7299999999999898 Q93.5 -1.7299999999999898 93.5 -1.7299999999999898 V-68.72999999999999 Q93.5 -68.72999999999999 93.5 -68.72999999999999 Q93.5 -68.72999999999999 93.5 -68.72999999999999 H26.5 Q26.5 -68.72999999999999 26.5 -68.72999999999999 Q26.5 -68.72999999999999 26.5 -68.72999999999999 V-1.7299999999999898 Q26.5 -1.7299999999999898 26.5 -1.7299999999999898 Q26.5 -1.7299999999999898 26.5 -1.7299999999999898 Z"/></g><g id="Semibold-M" transform="matrix(1 0 0 1 1985.97 1126)"><path d="M37.375 -6.545249999999989 H82.625 Q85.092375 -6.545249999999989 86.888625 -8.325999999999986 Q88.68475 -10.106624999999987 88.68475 -12.624874999999989 Q88.68475 -15.142999999999986 86.888625 -16.903874999999992 Q85.092375 -18.66474999999999 82.625 -18.66474999999999 H37.375 Q34.907625 -18.66474999999999 33.111375 -16.89824999999999 Q31.31525 -15.131874999999987 31.31525 -12.63474999999999 Q31.31525 -10.137624999999993 33.111375 -8.341374999999992 Q34.907625 -6.545249999999989 37.375 -6.545249999999989 Z M25.847875 14.291750000000011 Q19.401125 14.291750000000011 14.939625 9.83037500000001 Q10.47825 5.36887500000001 10.47825 -1.0778749999999881 V-69.38212499999999 Q10.47825 -75.828875 14.939625 -80.29037499999998 Q19.401125 -84.75174999999999 25.847875 -84.75174999999999 H94.152125 Q100.598875 -84.75174999999999 105.060375 -80.29037499999998 Q109.52175 -75.828875 109.52175 -69.38212499999999 V-1.0778749999999881 Q109.52175 5.36887500000001 105.060375 9.83037500000001 Q100.598875 14.291750000000011 94.152125 14.291750000000011 H25.847875 Z M25.847875 -1.0778749999999881 H94.152125 Q94.152125 -1.0778749999999881 94.152125 -1.0778749999999881 Q94.152125 -1.0778749999999881 94.152125 -1.0778749999999881 V-69.38212499999999 Q94.152125 -69.38212499999999 94.152125 -69.38212499999999 Q94.152125 -69.38212499999999 94.152125 -69.38212499999999 H25.847875 Q25.847875 -69.38212499999999 25.847875 -69.38212499999999 Q25.847875 -69.38212499999999 25.847875 -69.38212499999999 V-1.0778749999999881 Q25.847875 -1.0778749999999881 25.847875 -1.0778749999999881 Q25.847875 -1.0778749999999881 25.847875 -1.0778749999999881 Z"/></g><g id="Medium-M" transform="matrix(1 0 0 1 1689.91 1126)"><path d="M37.375 -6.219124999999991 H82.625 Q85.255375 -6.219124999999991 87.133125 -8.09024999999999 Q89.010875 -9.961499999999987 89.010875 -12.61337499999999 Q89.010875 -15.265374999999992 87.133125 -17.12812499999999 Q85.255375 -18.99087499999999 82.625 -18.99087499999999 H37.375 Q34.744625 -18.99087499999999 32.866875 -17.12574999999999 Q30.989125 -15.26062499999999 30.989125 -12.61762499999999 Q30.989125 -9.974624999999989 32.866875 -8.09687499999999 Q34.744625 -6.219124999999991 37.375 -6.219124999999991 Z M25.35875 13.55800000000001 Q19.458125 13.55800000000001 15.335 9.43500000000001 Q11.212 5.311875000000011 11.212 -0.5887499999999903 V-69.87124999999999 Q11.212 -75.771875 15.335 -79.895 Q19.458125 -84.01799999999999 25.35875 -84.01799999999999 H94.64125 Q100.541875 -84.01799999999999 104.665 -79.895 Q108.788 -75.771875 108.788 -69.87124999999999 V-0.5887499999999903 Q108.788 5.311875000000011 104.665 9.43500000000001 Q100.541875 13.55800000000001 94.64125 13.55800000000001 H25.35875 Z M25.35875 -0.5887499999999903 H94.64125 Q94.64125 -0.5887499999999903 94.64125 -0.5887499999999903 Q94.64125 -0.5887499999999903 94.64125 -0.5887499999999903 V-69.87124999999999 Q94.64125 -69.87124999999999 94.64125 -69.87124999999999 Q94.64125 -69.87124999999999 94.64125 -69.87124999999999 H25.35875 Q25.35875 -69.87124999999999 25.35875 -69.87124999999999 Q25.35875 -69.87124999999999 25.35875 -69.87124999999999 V-0.5887499999999903 Q25.35875 -0.5887499999999903 25.35875 -0.5887499999999903 Q25.35875 -0.5887499999999903 25.35875 -0.5887499999999903 Z"/></g><g id="Regular-M" transform="matrix(1 0 0 1 1394.06 1126)"><path d="M37.375 -5.97999999999999 H82.625 Q85.375 -5.97999999999999 87.3125 -7.91749999999999 Q89.25 -9.85499999999999 89.25 -12.60499999999999 Q89.25 -15.35499999999999 87.3125 -17.29249999999999 Q85.375 -19.22999999999999 82.625 -19.22999999999999 H37.375 Q34.625 -19.22999999999999 32.6875 -17.29249999999999 Q30.75 -15.35499999999999 30.75 -12.60499999999999 Q30.75 -9.85499999999999 32.6875 -7.91749999999999 Q34.625 -5.97999999999999 37.375 -5.97999999999999 Z M25.0 13.02000000000001 Q19.5 13.02000000000001 15.625 9.14500000000001 Q11.75 5.27000000000001 11.75 -0.22999999999998977 V-70.22999999999999 Q11.75 -75.72999999999999 15.625 -79.60499999999999 Q19.5 -83.47999999999999 25.0 -83.47999999999999 H95.0 Q100.5 -83.47999999999999 104.375 -79.60499999999999 Q108.25 -75.72999999999999 108.25 -70.22999999999999 V-0.22999999999998977 Q108.25 5.27000000000001 104.375 9.14500000000001 Q100.5 13.02000000000001 95.0 13.02000000000001 H25.0 Z M25.0 -0.22999999999998977 H95.0 Q95.0 -0.22999999999998977 95.0 -0.22999999999998977 Q95.0 -0.22999999999998977 95.0 -0.22999999999998977 V-70.22999999999999 Q95.0 -70.22999999999999 95.0 -70.22999999999999 Q95.0 -70.22999999999999 95.0 -70.22999999999999 H25.0 Q25.0 -70.22999999999999 25.0 -70.22999999999999 Q25.0 -70.22999999999999 25.0 -70.22999999999999 V-0.22999999999998977 Q25.0 -0.22999999999998977 25.0 -0.22999999999998977 Q25.0 -0.22999999999998977 25.0 -0.22999999999998977 Z"/></g><g id="Light-M" transform="matrix(1 0 0 1 1098.18 1126)"><path d="M37.375 -7.230124999999987 H82.625 Q84.846125 -7.230124999999987 86.423 -8.806999999999988 Q87.999875 -10.383874999999989 87.999875 -12.60499999999999 Q87.999875 -14.82612499999999 86.423 -16.40299999999999 Q84.846125 -17.979874999999993 82.625 -17.979874999999993 H37.375 Q35.153875 -17.979874999999993 33.577 -16.40299999999999 Q32.000125 -14.82612499999999 32.000125 -12.60499999999999 Q32.000125 -10.383874999999989 33.577 -8.806999999999988 Q35.153875 -7.230124999999987 37.375 -7.230124999999987 Z M26.538625 10.51987500000001 Q21.375125 10.51987500000001 17.812625 6.95737500000001 Q14.250125 3.3948750000000096 14.250125 -1.7686249999999895 V-68.691375 Q14.250125 -73.85487499999999 17.812625 -77.41737499999999 Q21.375125 -80.97987499999999 26.538625 -80.97987499999999 H93.461375 Q98.624875 -80.97987499999999 102.187375 -77.41737499999999 Q105.749875 -73.85487499999999 105.749875 -68.691375 V-1.7686249999999895 Q105.749875 3.3948750000000096 102.187375 6.95737500000001 Q98.624875 10.51987500000001 93.461375 10.51987500000001 H26.538625 Z M26.538625 -0.22999999999998977 H93.461375 Q94.038375 -0.22999999999998977 94.51925 -0.7107499999999902 Q95.0 -1.1916249999999913 95.0 -1.7686249999999895 V-68.691375 Q95.0 -69.26837499999999 94.51925 -69.74924999999999 Q94.038375 -70.22999999999999 93.461375 -70.22999999999999 H26.538625 Q25.961625 -70.22999999999999 25.48075 -69.74924999999999 Q25.0 -69.26837499999999 25.0 -68.691375 V-1.7686249999999895 Q25.0 -1.1916249999999913 25.48075 -0.7107499999999902 Q25.961625 -0.22999999999998977 26.538625 -0.22999999999998977 Z"/></g><g id="Thin-M" transform="matrix(1 0 0 1 802.565 1126)"><path d="M37.375 -8.47999999999999 H82.625 Q84.317375 -8.47999999999999 85.533625 -9.696374999999989 Q86.75 -10.912624999999991 86.75 -12.60499999999999 Q86.75 -14.297374999999988 85.533625 -15.51362499999999 Q84.317375 -16.72999999999999 82.625 -16.72999999999999 H37.375 Q35.682625 -16.72999999999999 34.466375 -15.51362499999999 Q33.25 -14.297374999999988 33.25 -12.60499999999999 Q33.25 -10.912624999999991 34.466375 -9.696374999999989 Q35.682625 -8.47999999999999 37.375 -8.47999999999999 Z M28.076875 8.02000000000001 Q23.25 8.02000000000001 20.0 4.77000000000001 Q16.75 1.5200000000000102 16.75 -3.306874999999991 V-67.15312499999999 Q16.75 -71.97999999999999 20.0 -75.22999999999999 Q23.25 -78.47999999999999 28.076875 -78.47999999999999 H91.923125 Q96.75 -78.47999999999999 100.0 -75.22999999999999 Q103.25 -71.97999999999999 103.25 -67.15312499999999 V-3.306874999999991 Q103.25 1.5200000000000102 100.0 4.77000000000001 Q96.75 8.02000000000001 91.923125 8.02000000000001 H28.076875 Z M28.076875 -0.22999999999998977 H91.923125 Q93.076875 -0.22999999999998977 94.0385 -1.1914999999999907 Q95.0 -2.1531249999999886 95.0 -3.306874999999991 V-67.15312499999999 Q95.0 -68.30687499999999 94.0385 -69.26849999999999 Q93.076875 -70.22999999999999 91.923125 -70.22999999999999 H28.076875 Q26.923125 -70.22999999999999 25.9615 -69.26849999999999 Q25.0 -68.30687499999999 25.0 -67.15312499999999 V-3.306874999999991 Q25.0 -2.1531249999999886 25.9615 -1.1914999999999907 Q26.923125 -0.22999999999998977 28.076875 -0.22999999999998977 Z"/></g><g id="Ultralight-M" transform="matrix(1 0 0 1 506.415 1126)"><path d="M37.375 -9.22999999999999 H82.625 Q84.0 -9.22999999999999 85.0 -10.22999999999999 Q86.0 -11.22999999999999 86.0 -12.60499999999999 Q86.0 -13.97999999999999 85.0 -14.97999999999999 Q84.0 -15.97999999999999 82.625 -15.97999999999999 H37.375 Q36.0 -15.97999999999999 35.0 -14.97999999999999 Q34.0 -13.97999999999999 34.0 -12.60499999999999 Q34.0 -11.22999999999999 35.0 -10.22999999999999 Q36.0 -9.22999999999999 37.375 -9.22999999999999 Z M29.0 6.52000000000001 Q24.375 6.52000000000001 21.3125 3.4575000000000102 Q18.25 0.39500000000001023 18.25 -4.22999999999999 V-66.22999999999999 Q18.25 -70.85499999999999 21.3125 -73.91749999999999 Q24.375 -76.97999999999999 29.0 -76.97999999999999 H91.0 Q95.625 -76.97999999999999 98.6875 -73.91749999999999 Q101.75 -70.85499999999999 101.75 -66.22999999999999 V-4.22999999999999 Q101.75 0.39500000000001023 98.6875 3.4575000000000102 Q95.625 6.52000000000001 91.0 6.52000000000001 H29.0 Z M29.0 -0.22999999999998977 H91.0 Q92.5 -0.22999999999998977 93.75 -1.4799999999999898 Q95.0 -2.7299999999999898 95.0 -4.22999999999999 V-66.22999999999999 Q95.0 -67.72999999999999 93.75 -68.97999999999999 Q92.5 -70.22999999999999 91.0 -70.22999999999999 H29.0 Q27.5 -70.22999999999999 26.25 -68.97999999999999 Q25.0 -67.72999999999999 25.0 -66.22999999999999 V-4.22999999999999 Q25.0 -2.7299999999999898 26.25 -1.4799999999999898 Q27.5 -0.22999999999998977 29.0 -0.22999999999998977 Z"/></g><g id="Bold-S" transform="matrix(1 0 0 1 2294.23 696)"><path d="M31.45881075 -15.307749999999988 H63.190122375 Q64.796625 -15.307749999999988 66.0294375 -16.498153749999986 Q67.26225000000001 -17.688557499999987 67.26225000000001 -19.358278749999986 Q67.26225000000001 -21.027999999999984 66.04502025000001 -22.211499999999987 Q64.82769187500001 -23.39499999999999 63.221189249999995 -23.39499999999999 H31.489877625000002 Q29.883375 -23.39499999999999 28.6505625 -22.224518499999988 Q27.41775 -21.053938374999987 27.41775 -19.413705999999987 Q27.41775 -17.773374999999987 28.63497975 -16.540562499999986 Q29.852308125 -15.307749999999988 31.45881075 -15.307749999999988 Z M22.4865 2.247500000000013 Q17.1508875 2.247500000000013 13.50669375 -1.3966937499999865 Q9.8625 -5.040887499999986 9.8625 -10.376499999999986 V-60.08349999999999 Q9.8625 -65.4191125 13.50669375 -69.06330624999998 Q17.1508875 -72.7075 22.4865 -72.7075 H72.1935 Q77.52911250000001 -72.7075 81.17330625 -69.06330624999998 Q84.81750000000001 -65.4191125 84.81750000000001 -60.08349999999999 V-10.376499999999986 Q84.81750000000001 -5.040887499999986 81.17330625 -1.3966937499999865 Q77.52911250000001 2.247500000000013 72.1935 2.247500000000013 H22.4865 Z M22.4865 -10.376499999999986 H72.1935 Q72.1935 -10.376499999999986 72.1935 -10.376499999999986 Q72.1935 -10.376499999999986 72.1935 -10.376499999999986 V-60.08349999999999 Q72.1935 -60.08349999999999 72.1935 -60.08349999999999 Q72.1935 -60.08349999999999 72.1935 -60.08349999999999 H22.4865 Q22.4865 -60.08349999999999 22.4865 -60.08349999999999 Q22.4865 -60.08349999999999 22.4865 -60.08349999999999 V-10.376499999999986 Q22.4865 -10.376499999999986 22.4865 -10.376499999999986 Q22.4865 -10.376499999999986 22.4865 -10.376499999999986 Z"/></g><g id="Semibold-S" transform="matrix(1 0 0 1 1998.1 696)"><path d="M31.45881075 -14.964732249999987 H63.190122375 Q64.968133875 -14.964732249999987 66.28675012500001 -16.25030912499999 Q67.60526775 -17.535885999999987 67.60526775 -19.346246499999985 Q67.60526775 -21.156606999999987 66.30223425 -22.44731237499999 Q64.99920075 -23.73801774999999 63.221189249999995 -23.73801774999999 H31.489877625000002 Q29.711866125000004 -23.73801774999999 28.393249875000002 -22.463684124999986 Q27.07473225 -21.18935049999999 27.07473225 -19.395657624999988 Q27.07473225 -17.60186612499999 28.37776575 -16.28324987499999 Q29.680799250000003 -14.964732249999987 31.45881075 -14.964732249999987 Z M21.971973375 1.4756607500000136 Q17.210950125 1.4756607500000136 13.922595375 -1.8125953749999866 Q10.63433925 -5.1009501249999865 10.63433925 -9.861973374999987 V-60.59802662499999 Q10.63433925 -65.35904987499998 13.922595375 -68.647404625 Q17.210950125 -71.93566074999998 21.971973375 -71.93566074999998 H72.708026625 Q77.469049875 -71.93566074999998 80.757404625 -68.647404625 Q84.04566075 -65.35904987499998 84.04566075 -60.59802662499999 V-9.861973374999987 Q84.04566075 -5.1009501249999865 80.757404625 -1.8125953749999866 Q77.469049875 1.4756607500000136 72.708026625 1.4756607500000136 H21.971973375 Z M21.971973375 -9.861973374999987 H72.708026625 Q72.708026625 -9.861973374999987 72.708026625 -9.861973374999987 Q72.708026625 -9.861973374999987 72.708026625 -9.861973374999987 V-60.59802662499999 Q72.708026625 -60.59802662499999 72.708026625 -60.59802662499999 Q72.708026625 -60.59802662499999 72.708026625 -60.59802662499999 H21.971973375 Q21.971973375 -60.59802662499999 21.971973375 -60.59802662499999 Q21.971973375 -60.59802662499999 21.971973375 -60.59802662499999 V-9.861973374999987 Q21.971973375 -9.861973374999987 21.971973375 -9.861973374999987 Q21.971973375 -9.861973374999987 21.971973375 -9.861973374999987 Z"/></g><g id="Medium-S" transform="matrix(1 0 0 1 1701.85 696)"><path d="M31.45881075 -14.70741962499999 H63.190122375 Q65.09674087500001 -14.70741962499999 66.47966062500001 -16.06440099999999 Q67.86258037500001 -17.421382374999986 67.86258037500001 -19.33727162499999 Q67.86258037500001 -21.253160874999992 66.495243375 -22.624245624999986 Q65.12790637500001 -23.995330374999988 63.221189249999995 -23.995330374999988 H31.489877625000002 Q29.583259125 -23.995330374999988 28.200339375000002 -22.643082999999983 Q26.817419625000003 -21.290934249999985 26.817419625000003 -19.382047374999985 Q26.817419625000003 -17.473259124999988 28.184756625 -16.09033937499999 Q29.552093625000005 -14.70741962499999 31.45881075 -14.70741962499999 Z M21.58605375 0.8967320000000125 Q17.255923125000002 0.8967320000000125 14.234546250000001 -2.1245462499999874 Q11.213268000000001 -5.145923124999989 11.213268000000001 -9.476053749999988 V-60.98394624999999 Q11.213268000000001 -65.31407687499998 14.234546250000001 -68.33545374999999 Q17.255923125000002 -71.356732 21.58605375 -71.356732 H73.09394625 Q77.424076875 -71.356732 80.44545375 -68.33545374999999 Q83.46673200000001 -65.31407687499998 83.46673200000001 -60.98394624999999 V-9.476053749999988 Q83.46673200000001 -5.145923124999989 80.44545375 -2.1245462499999874 Q77.424076875 0.8967320000000125 73.09394625 0.8967320000000125 H21.58605375 Z M21.58605375 -9.476053749999988 H73.09394625 Q73.09394625 -9.476053749999988 73.09394625 -9.476053749999988 Q73.09394625 -9.476053749999988 73.09394625 -9.476053749999988 V-60.98394624999999 Q73.09394625 -60.98394624999999 73.09394625 -60.98394624999999 Q73.09394625 -60.98394624999999 73.09394625 -60.98394624999999 H21.58605375 Q21.58605375 -60.98394624999999 21.58605375 -60.98394624999999 Q21.58605375 -60.98394624999999 21.58605375 -60.98394624999999 V-9.476053749999988 Q21.58605375 -9.476053749999988 21.58605375 -9.476053749999988 Q21.58605375 -9.476053749999988 21.58605375 -9.476053749999988 Z"/></g><g id="Regular-S" transform="matrix(1 0 0 1 1405.73 696)"><path d="M31.45881075 -14.518749999999986 H63.190122375 Q65.191125 -14.518749999999986 66.6211875 -15.928002624999987 Q68.05125 -17.337353874999987 68.05125 -19.330565124999985 Q68.05125 -21.323874999999987 66.63677025 -22.753937499999985 Q65.22219187500001 -24.18399999999999 63.221189249999995 -24.18399999999999 H31.489877625000002 Q29.488875 -24.18399999999999 28.058812500000002 -22.77474737499999 Q26.62875 -21.36539612499999 26.62875 -19.372184874999988 Q26.62875 -17.378874999999987 28.04322975 -15.948812499999988 Q29.457808125000003 -14.518749999999986 31.45881075 -14.518749999999986 Z M21.303 0.47225000000001316 Q17.2889625 0.47225000000001316 14.46335625 -2.3533562499999867 Q11.63775 -5.178962499999987 11.63775 -9.192999999999987 V-61.266999999999996 Q11.63775 -65.2810375 14.46335625 -68.10664374999999 Q17.2889625 -70.93225 21.303 -70.93225 H73.37700000000001 Q77.39103750000001 -70.93225 80.21664375 -68.10664374999999 Q83.04225000000001 -65.2810375 83.04225000000001 -61.266999999999996 V-9.192999999999987 Q83.04225000000001 -5.178962499999987 80.21664375 -2.3533562499999867 Q77.39103750000001 0.47225000000001316 73.37700000000001 0.47225000000001316 H21.303 Z M21.303 -9.192999999999987 H73.37700000000001 Q73.37700000000001 -9.192999999999987 73.37700000000001 -9.192999999999987 Q73.37700000000001 -9.192999999999987 73.37700000000001 -9.192999999999987 V-61.266999999999996 Q73.37700000000001 -61.266999999999996 73.37700000000001 -61.266999999999996 Q73.37700000000001 -61.266999999999996 73.37700000000001 -61.266999999999996 H21.303 Q21.303 -61.266999999999996 21.303 -61.266999999999996 Q21.303 -61.266999999999996 21.303 -61.266999999999996 V-9.192999999999987 Q21.303 -9.192999999999987 21.303 -9.192999999999987 Q21.303 -9.192999999999987 21.303 -9.192999999999987 Z"/></g><g id="Light-S" transform="matrix(1 0 0 1 1109.75 696)"><path d="M31.45881075 -15.505098624999984 H63.190122375 Q64.773842625 -15.505098624999984 65.91937200000001 -16.629818124999986 Q67.064901375 -17.754636249999987 67.064901375 -19.330565124999985 Q67.064901375 -20.906592624999988 65.93495475 -22.05212199999999 Q64.8049095 -23.197651374999992 63.221189249999995 -23.197651374999992 H31.489877625000002 Q29.906157375 -23.197651374999992 28.760628 -22.072931874999988 Q27.615098624999998 -20.94811374999999 27.615098624999998 -19.372184874999988 Q27.615098624999998 -17.796157374999986 28.745045250000004 -16.650627999999987 Q29.875090500000002 -15.505098624999984 31.45881075 -15.505098624999984 Z M22.516975125000002 -1.5003486249999867 Q18.768436125 -1.5003486249999867 16.189392375 -4.079392374999987 Q13.610348625 -6.658436124999987 13.610348625 -10.406975124999988 V-60.05302487499999 Q13.610348625 -63.801563874999985 16.189392375 -66.380607625 Q18.768436125 -68.95965137499999 22.516975125000002 -68.95965137499999 H72.163024875 Q75.911563875 -68.95965137499999 78.49060762500001 -66.380607625 Q81.069651375 -63.801563874999985 81.069651375 -60.05302487499999 V-10.406975124999988 Q81.069651375 -6.658436124999987 78.49060762500001 -4.079392374999987 Q75.911563875 -1.5003486249999867 72.163024875 -1.5003486249999867 H22.516975125000002 Z M22.516975125000002 -9.192999999999987 H72.163024875 Q72.618277875 -9.192999999999987 72.99768825 -9.572311749999987 Q73.37700000000001 -9.95172212499999 73.37700000000001 -10.406975124999988 V-60.05302487499999 Q73.37700000000001 -60.50827787499999 72.99768825 -60.88768824999998 Q72.618277875 -61.266999999999996 72.163024875 -61.266999999999996 H22.516975125000002 Q22.061722125000003 -61.266999999999996 21.68231175 -60.88768824999998 Q21.303 -60.50827787499999 21.303 -60.05302487499999 V-10.406975124999988 Q21.303 -9.95172212499999 21.68231175 -9.572311749999987 Q22.061722125000003 -9.192999999999987 22.516975125000002 -9.192999999999987 Z"/></g><g id="Thin-S" transform="matrix(1 0 0 1 814.015 696)"><path d="M31.45881075 -16.491249999999987 H63.190122375 Q64.35665887500001 -16.491249999999987 65.21765512500001 -17.331534999999985 Q66.07875 -18.17181999999999 66.07875 -19.330565124999985 Q66.07875 -20.489408874999988 65.233237875 -21.350405124999988 Q64.38772575 -22.211499999999987 63.221189249999995 -22.211499999999987 H31.489877625000002 Q30.323341125000002 -22.211499999999987 29.462344875 -21.371214999999992 Q28.60125 -20.530929999999984 28.60125 -19.372184874999988 Q28.60125 -18.21334112499999 29.446762125 -17.352344874999986 Q30.292274250000002 -16.491249999999987 31.45881075 -16.491249999999987 Z M23.730654375 -3.472749999999987 Q20.247712500000002 -3.472749999999987 17.91523125 -5.805231249999988 Q15.58275 -8.137712499999989 15.58275 -11.620654374999987 V-58.83934562499999 Q15.58275 -62.32228749999999 17.91523125 -64.65476874999999 Q20.247712500000002 -66.98724999999999 23.730654375 -66.98724999999999 H70.949345625 Q74.4322875 -66.98724999999999 76.76476875 -64.65476874999999 Q79.09725 -62.32228749999999 79.09725 -58.83934562499999 V-11.620654374999987 Q79.09725 -8.137712499999989 76.76476875 -5.805231249999988 Q74.4322875 -3.472749999999987 70.949345625 -3.472749999999987 H23.730654375 Z M23.730654375 -9.192999999999987 H70.949345625 Q71.859654375 -9.192999999999987 72.6183765 -9.95162349999999 Q73.37700000000001 -10.710345624999988 73.37700000000001 -11.620654374999987 V-58.83934562499999 Q73.37700000000001 -59.74965437499999 72.6183765 -60.50837649999998 Q71.859654375 -61.266999999999996 70.949345625 -61.266999999999996 H23.730654375 Q22.820345625 -61.266999999999996 22.061623500000003 -60.50837649999998 Q21.303 -59.74965437499999 21.303 -58.83934562499999 V-11.620654374999987 Q21.303 -10.710345624999988 22.061623500000003 -9.95162349999999 Q22.820345625 -9.192999999999987 23.730654375 -9.192999999999987 Z"/></g><g id="Ultralight-S" transform="matrix(1 0 0 1 517.792 696)"><path d="M31.45881075 -17.082999999999988 H63.190122375 Q64.10625 -17.082999999999988 64.796625 -17.752565124999986 Q65.48700000000001 -18.422228874999988 65.48700000000001 -19.330565124999985 Q65.48700000000001 -20.23899999999999 64.81220775 -20.929374999999986 Q64.13731687500001 -21.61974999999999 63.221189249999995 -21.61974999999999 H31.489877625000002 Q30.57375 -21.61974999999999 29.883375 -20.95018487499999 Q29.193 -20.280521124999986 29.193 -19.372184874999988 Q29.193 -18.463749999999987 29.86779225 -17.773374999999987 Q30.542683125 -17.082999999999988 31.45881075 -17.082999999999988 Z M24.459 -4.656249999999986 Q21.135337500000002 -4.656249999999986 18.950793750000003 -6.840793749999989 Q16.76625 -9.025337499999988 16.76625 -12.348999999999986 V-58.11099999999999 Q16.76625 -61.43466249999999 18.950793750000003 -63.61920624999999 Q21.135337500000002 -65.80375 24.459 -65.80375 H70.221 Q73.5446625 -65.80375 75.72920625 -63.61920624999999 Q77.91375000000001 -61.43466249999999 77.91375000000001 -58.11099999999999 V-12.348999999999986 Q77.91375000000001 -9.025337499999988 75.72920625 -6.840793749999989 Q73.5446625 -4.656249999999986 70.221 -4.656249999999986 H24.459 Z M24.459 -9.192999999999987 H70.221 Q71.4045 -9.192999999999987 72.39075 -10.179249999999989 Q73.37700000000001 -11.165499999999987 73.37700000000001 -12.348999999999986 V-58.11099999999999 Q73.37700000000001 -59.294499999999985 72.39075 -60.28074999999998 Q71.4045 -61.266999999999996 70.221 -61.266999999999996 H24.459 Q23.2755 -61.266999999999996 22.289250000000003 -60.28074999999998 Q21.303 -59.294499999999985 21.303 -58.11099999999999 V-12.348999999999986 Q21.303 -11.165499999999987 22.289250000000003 -10.179249999999989 Q23.2755 -9.192999999999987 24.459 -9.192999999999987 Z"/></g></g></svg>