<svg xmlns="http://www.w3.org/2000/svg" height="24" viewBox="0 -960 960 960" width="24"><path d="M72.694-332.116v-227.691q0-28.161 20.054-48.215 20.054-20.054 48.215-20.054h78.653q28.161 0 48.215 20.054 20.054 20.054 20.054 48.215v227.691h-55.96v-80H128.654v80h-55.96Zm55.96-135.96h103.271v-91.731q0-5.193-3.462-8.751t-8.847-3.558h-78.653q-5.385 0-8.847 3.558-3.462 3.558-3.462 8.751v91.731Zm245.001 135.96v-295.96h147.691q28.211 0 48.24 20.054 20.029 20.054 20.029 48.215v159.422q0 28.341-20.054 48.305t-48.215 19.964H373.655Zm55.96-55.96h91.731q5.193 0 8.751-3.462t3.558-8.847v-159.422q0-5.193-3.558-8.751t-8.751-3.558h-91.731v184.04Zm272.269 9.421-39.422-39.538q12.116-11.947 18.673-27.788 6.558-15.842 6.558-33.947 0-18.645-6.558-34.205-6.557-15.559-18.673-27.867l39.422-40.037q19.557 19.846 30.663 46.035 11.106 26.19 11.106 56.01 0 29.82-11.106 55.828-11.106 26.008-30.663 45.509Zm102.038 99.769-39.345-40.384q31.033-30.878 48.901-72.058 17.868-41.179 17.868-88.767 0-47.636-17.868-88.691-17.868-41.056-48.901-72.136l39.345-40.499q38.951 39.027 61.167 90.63 22.217 51.604 22.217 110.779 0 59.176-22.217 110.621-22.216 51.446-61.167 90.505Z"/></svg>