<svg xmlns="http://www.w3.org/2000/svg" height="20" viewBox="0 -960 960 960" width="20"><path d="M516-93v-33q41-6 79-24t70-49l23.31 21.77q-34.31 35.85-79.27 56.27Q564.08-100.54 516-93Zm-72 0q-111.31-11.69-185.65-95.04Q184-271.38 184-387q0-61.54 23.04-115.23 23.04-53.69 63.54-94.19t94.19-63.04Q418.46-682 480-682h63.62L432.08-792.54l23.3-21.77L597.69-672 455.38-530.69 432.08-554l97-96H479q-110 0-186.5 76.5T216-387q0 101 64 174t164 88.54V-93Zm288.77-138.69L708-257q19-33 27.38-68.62 8.39-35.61 9.16-73.38H776q0 43.31-9.81 86.27-9.81 42.96-33.42 81.04ZM765-471h-34.46q-9.77-28.77-25.16-54.38Q690-551 667-574l21.77-22.31q26.85 26.08 46.04 57.77Q754-506.85 765-471Z"/></svg>