<svg xmlns="http://www.w3.org/2000/svg" height="40" viewBox="0 -960 960 960" width="40"><path d="M96.75-141.72v-717.23q0-18.52 13.05-31.49 13.04-12.97 31.7-12.97 18.67 0 31.59 12.97 12.92 12.97 12.92 31.49v35.54h587.98v-35.54q0-18.52 13.21-31.49 13.21-12.97 31.64-12.97 18.77 0 31.67 12.97 12.9 12.97 12.9 31.49v717.23q0 19.19-13.02 32.08-13.01 12.89-31.66 12.89t-31.7-12.89q-13.04-12.89-13.04-32.08v-409.67H186.01v409.67q0 19.19-13.08 32.08-13.09 12.89-31.54 12.89-18.78 0-31.71-12.89t-12.93-32.08Zm89.26-498.93h587.98v-93.34H186.01v93.34ZM435.7-141.72v-79.72h-78.6q-19.01 0-32.07-13.21-13.05-13.22-13.05-31.66 0-18.45 13.05-31.42 13.06-12.97 32.07-12.97h246.62q18.21 0 31.25 13.09 13.05 13.08 13.05 31.53 0 18.45-13.05 31.54-13.04 13.1-31.25 13.1h-78.76v79.72q0 19.19-13.27 32.08-13.27 12.89-31.81 12.89-18.25 0-31.21-12.89-12.97-12.89-12.97-32.08ZM186.01-640.65v-93.34 93.34Z"/></svg>