<svg xmlns="http://www.w3.org/2000/svg" height="24" viewBox="0 -960 960 960" width="24"><path d="M140-167v-666q0-10.95 8.04-18.97 8.03-8.03 19-8.03 10.96 0 18.96 8.03 8 8.02 8 18.97v53h572v-53q0-10.95 8.04-18.97 8.03-8.03 19-8.03 10.96 0 18.96 8.03 8 8.02 8 18.97v666q0 10.95-8.04 18.98-8.03 8.02-19 8.02-10.96 0-18.96-8.02-8-8.03-8-18.98v-385H194v385q0 10.95-8.04 18.98-8.03 8.02-19 8.02-10.96 0-18.96-8.02-8-8.03-8-18.98Zm54-439h572v-120H194v120Zm259 439v-90h-91q-10.95 0-18.98-8.04-8.02-8.03-8.02-19 0-10.96 8.02-18.96 8.03-8 18.98-8h235q10.95 0 18.97 8.04 8.03 8.03 8.03 19 0 10.96-8.03 18.96-8.02 8-18.97 8h-90v90q0 10.95-8.04 18.98-8.03 8.02-19 8.02-10.96 0-18.96-8.02-8-8.03-8-18.98ZM194-606v-120 120Z"/></svg>