<svg xmlns="http://www.w3.org/2000/svg" height="24" width="24"><path d="M10.525 15.125q-.5 0-.825-.325-.325-.325-.325-.825V13.9q0-.375.262-.638Q9.9 13 10.275 13q.2 0 .363.075.162.075.262.225h1.925v-.775h-2.3q-.5 0-.825-.325-.325-.325-.325-.825v-1.35q0-.5.325-.825.325-.325.825-.325H13.5q.475 0 .812.325.338.325.338.825v.05q0 .4-.275.663-.275.262-.65.262-.2 0-.362-.075-.163-.075-.288-.225H11.2v.775h2.3q.475 0 .812.325.338.325.338.825v1.35q0 .5-.338.825-.337.325-.812.325Zm6.5 0q-.5 0-.825-.325-.325-.325-.325-.825V13.9q0-.375.263-.638.262-.262.637-.262.2 0 .363.075.162.075.262.225h1.925v-.775h-2.3q-.5 0-.825-.325-.325-.325-.325-.825v-1.35q0-.5.325-.825.325-.325.825-.325H20q.475 0 .812.325.338.325.338.825v.05q0 .4-.275.663-.275.262-.65.262-.2 0-.362-.075-.163-.075-.288-.225H17.7v.775H20q.475 0 .812.325.338.325.338.825v1.35q0 .5-.338.825-.337.325-.812.325Zm-13 0q-.5 0-.825-.325-.325-.325-.325-.825v-3.95q0-.5.325-.825.325-.325.825-.325H7q.475 0 .812.325.338.325.338.825v.25q0 .4-.275.663-.275.262-.65.262-.25 0-.45-.113-.2-.112-.35-.387H4.7v2.6h1.725q.175-.275.363-.388.187-.112.437-.112.375 0 .65.262.275.263.275.638v.275q0 .5-.338.825-.337.325-.812.325Z"/></svg>