<svg xmlns="http://www.w3.org/2000/svg" height="20" viewBox="0 -960 960 960" width="20"><path d="M480.35-353q58.11 0 98.38-40.62Q619-434.23 619-492.35q0-58.11-40.62-98.38Q537.77-631 479.65-631q-58.11 0-98.38 40.62Q341-549.77 341-491.65q0 58.11 40.62 98.38Q422.23-353 480.35-353ZM451-149.23h-49q-9.8 0-16.4-7.14-6.6-7.15-6.6-16.85 0-9.7 7.1-16.21 7.1-6.51 16.9-6.51h48v-100.98q-73.26-12.36-120.63-66.76Q283-418.08 283-492q0-33.54 11.42-63.92 11.43-30.39 32.73-60.16l-44.84-44.84-30.62 30.61q-9.61 9.62-20.27 7.85-10.65-1.77-18.63-9.67-9.48-9.41-9.48-21.19 0-11.78 9.61-19.3l29.85-28.07L161-782.46v74.34q0 11.85-8.55 20.49-8.54 8.63-20.27 8.63-11.72 0-20.45-8.58-8.73-8.59-8.73-20.36v-131.48q0-17 12.12-29.29Q127.25-881 144.25-881h131.47q11.78 0 20.53 8.55 8.75 8.54 8.75 20.27 0 11.72-8.63 20.45-8.64 8.73-20.49 8.73h-74.34l81.77 81.77 29.84-29.85q9.43-9.61 21.23-9.61t19.45 7.9q9.48 9.41 9.48 21.19 0 11.78-9.62 19.29l-31.61 29.85 48.61 48.61q24.74-14.95 52.25-25.05Q450.45-689 480-689q30.54 0 57.92 10.31 27.39 10.31 51.39 24.84L758.46-823h-74.34q-11.85 0-20.49-8.55-8.63-8.54-8.63-20.27 0-11.72 8.58-20.45 8.59-8.73 20.36-8.73h131.48q17 0 29.29 12.12Q857-856.75 857-839.75v131.47q0 11.78-8.55 20.53-8.54 8.75-20.27 8.75-11.72 0-20.45-8.63-8.73-8.64-8.73-20.49v-74.34L632.85-614.54q21.3 27.23 32.73 58.48Q677-524.81 677-492q0 73.92-47.37 128.32-47.37 54.4-120.63 66.76v100.98h49q9.8 0 16.4 6.54 6.6 6.53 6.6 16.24 0 9.7-6.6 16.81-6.6 7.12-16.4 7.12h-49v41.11q0 11.85-8.61 20.49Q491.78-79 479.97-79q-11.81 0-20.39-8.63-8.58-8.64-8.58-20.49v-41.11Z"/></svg>