<svg xmlns="http://www.w3.org/2000/svg" height="40" viewBox="0 -960 960 960" width="40"><path d="M374.69-762.33q-36.36 0-62.02-26.4Q287-815.12 287-850.89q0-36.11 25.8-62.44 25.79-26.34 61.86-26.34 36.39 0 63.2 26.42 26.81 26.41 26.81 62.66 0 35.65-26.65 61.95-26.64 26.31-63.33 26.31ZM88-27l115.33-576.33L131-571v137H36.67v-200.33L247-721q35.67-14.67 71.12-5.39 35.44 9.27 56.55 40.72L418.28-621q29.39 45.67 75.22 70t100.17 24.33V-434q-66 0-122.17-24.67-56.17-24.66-100.83-74.66l-29.67 112 89 81V-27h-92.67v-247.67L257-346.33 182.33-27H88Zm581.67-.33v-569H507.33v-342.34h419v342.34H763v569h-93.33Zm58.66-623L845.67-767 728.33-884.33l-47.66 47.66 36 36H584V-733h132.67l-36 36 47.66 46.67Z"/></svg>