<svg xmlns="http://www.w3.org/2000/svg" height="20" viewBox="0 -960 960 960" width="20"><path d="M691.15-568q-31.85 0-56-24.06Q611-616.13 611-648v-143.51q0-33.37 23.88-56.93Q658.75-872 691.15-872q32.85 0 56.35 23.56t23.5 56.93V-648q0 31.87-23.51 55.94Q723.97-568 691.15-568ZM217.83-38q-56.2 0-94.02-38.81Q86-115.63 86-171v-623q0-53.38 37.31-90.69Q160.63-922 214-922h316v128H214v628h413v-58h128v53q0 55.74-37.81 94.37T623.17-38H217.83ZM286-224v-86h273v86H286Zm0-134v-72h196v72H286Zm469 74H627v-143q-68-20-112-73.7T471-624h109q0 42.64 33.29 70.32Q646.58-526 691.4-526q45.6 0 79.1-27.68Q804-581.36 804-624h109q0 69.6-44.5 123.3T755-427v143Z"/></svg>