<svg xmlns="http://www.w3.org/2000/svg" height="20" viewBox="0 -960 960 960" width="20"><path d="M480-824q8.15 0 16.31.5 8.15.5 16.31.77v32.42q-7.16-.46-15.5-1.46-8.35-1-17.12-1-106.85 0-175.35 70.92-68.5 70.93-68.5 176.7 0 74.07 67.04 174.07T480-177.92q108.23-91.62 174.88-189.7 66.66-98.07 68.97-172.15v-10.42q0-5.21-1-10.43h32q1 5.47 1 10.59v10.26q-1.54 55.2-28.93 111.35-27.39 56.16-65.46 106.52-38.08 50.36-79.73 92.16-41.65 41.81-70.88 68.12-7.65 5.93-14.88 8.89-7.24 2.96-15.97 2.96-8.38 0-15.27-2.58-6.88-2.57-14.81-8.5-17.69-14.23-58.04-52.38-40.34-38.15-82.65-90.23-42.31-52.08-73.69-114.81-31.39-62.73-31.39-126.88 0-110.93 75.16-194.89Q354.46-824 480-824Zm.35 333.23q23.5 0 39.88-16.73 16.39-16.74 16.39-40.23 0-23.5-16.74-39.89Q503.15-604 479.65-604q-23.5 0-39.88 16.73-16.39 16.74-16.39 40.23 0 23.5 16.74 39.89 16.73 16.38 40.23 16.38Zm-.35-56.61ZM720-768v104q0 6.8 4.55 11.4 4.54 4.6 11.27 4.6 6.72 0 11.45-4.6Q752-657.2 752-664v-104h104q6.8 0 11.4-4.55 4.6-4.54 4.6-11.27 0-6.72-4.6-11.45Q862.8-800 856-800H752v-104q0-6.8-4.55-11.4-4.54-4.6-11.27-4.6-6.72 0-11.45 4.6Q720-910.8 720-904v104H616q-6.8 0-11.4 4.55-4.6 4.54-4.6 11.27 0 6.72 4.6 11.45Q609.2-768 616-768h104Z"/></svg>