<svg xmlns="http://www.w3.org/2000/svg" height="48" viewBox="0 -960 960 960" width="48"><path d="M479.89-729Q368-729 265.56-691.52 163.12-654.04 77-583q-14.14 12-34.07 12T10.6-584.83Q-5-599.66-3.53-618.71-2.06-637.76 13-651q97.83-82.04 217.92-126.52Q351-822 480-822t249 44.5Q849-733 948-651q14.24 13.44 15.62 32.72Q965-599 951-584q-13.66 14.06-33.77 13.53Q897.12-571 883-583q-86.17-71.04-188.7-108.52Q591.77-729 479.89-729Zm.02 591Q448-138 425-161.38q-23-23.38-23-54.5Q402-248 424.91-271q22.9-23 55.46-23 31.62 0 54.63 23.09 23 23.09 23 55 0 30.91-23.09 54.41-23.09 23.5-55 23.5Zm.09-238q-42.11 0-80.55 11.5Q361-353 327-331.29q-18 10.29-37.76 10.82-19.77.53-33.53-13.53-14.71-15.18-13.76-34.55.94-19.37 16.78-30.65Q307-434 362.96-452.5 418.91-471 479.79-471q53.21 0 102.68 14 49.47 14 94.53 41-19 15-33.86 33.52Q628.29-363.95 621-341q-34-16-68.86-25.5T480-376Zm342.01 263q-20.64 0-33.33-13.36Q776-139.72 776-158.86q0-20.14 12.86-32.64t33.5-12.5Q842-204 855-191.32q13 12.67 13 32.81 0 19.14-13.18 32.33Q841.65-113 822.01-113Zm0-151q-20.64 0-33.33-13.13Q776-290.25 776-310.01V-388q0-20.08 12.86-33.54t33.5-13.46Q842-435 855-421.54T868-388v77.99q0 19.76-13.18 32.88Q841.65-264 822.01-264ZM482-554q-77.2 0-149.52 26.02Q260.16-501.96 201-456q-16.02 12-35.51 11.5t-33.9-14.5Q117-473 118.5-491.87 120-510.74 135-524q73.07-57.98 161.39-90.49T480.82-647q95.1 0 183.6 31.81 88.51 31.8 161.89 90.05Q838-515 839-500t-7 26q-1.76 1-2.26 2.5-.5 1.5-1.74 1.5-17.78 0-35.25 2.43-17.46 2.43-32.75 8.57-59-44-130.89-69.5Q557.22-554 482-554Z"/></svg>