<svg xmlns="http://www.w3.org/2000/svg" height="40" viewBox="0 -960 960 960" width="40"><path d="M136-305.33 42.67-398q-10-10-9.67-23.33.33-13.34 9.67-24 84-95.67 199-145.17Q356.67-640 480-640q123.33 0 238.17 49.5Q833-541 917.33-445.33q9.34 10.66 9.67 24 .33 13.33-9.67 23.33L824-305.33q-9 9-23.83 10-14.84 1-24.84-6.67l-114.66-86q-6.67-5-10-11.67-3.34-6.66-3.34-15v-130.66q-40.66-14.67-83-21.34-42.33-6.66-84.33-6.66t-84.33 6.66q-42.34 6.67-83 21.34v130.66q0 8.34-3.34 15-3.33 6.67-10 11.67l-114.79 86.19q-11.87 8.81-25.17 7.86-13.29-.95-23.37-11.38ZM242.67-518q-35 17.67-67.34 41.83Q143-452 112-424l51.33 52.67 79.34-59.34V-518ZM714-520v85.33L796-372l52-51.33q-31-30.67-64.33-54Q750.33-500.67 714-520Zm-471.33 2ZM714-520Z"/></svg>