<svg xmlns="http://www.w3.org/2000/svg" height="40" viewBox="0 -960 960 960" width="40"><path d="M463.64-440.67 268.83-245.86q-4.79 4.8-11.6 5.18-6.81.39-11.65-5.18-5.57-4.85-5.57-11.27t5.57-11.99l205.55-205.55-315.14-315.86q-5.02-4.29-5.29-10.93-.28-6.64 5.29-11.82 4.84-5.18 11.21-5.18 6.36 0 11.54 5.18l700 700q4.3 4.29 4.74 11.04.44 6.75-4.74 11.93-5.18 5.18-11.54 5.18-6.37 0-11.21-5.18L646.04-280.47 512.26-146.69q-4.07 4.06-9.54 6.14-5.46 2.08-10.19 2.08-11.31 0-20.1-7.48-8.79-7.47-8.79-20.99v-273.73Zm32.44 263.18L622.6-303.23 496.08-429.76v252.27Zm47.61-343.73-22.75-22.91 107.24-107.31-132.1-131.35v213.8l-32.44-32.43v-192.64q0-12.8 8.79-20.63 8.79-7.84 20.1-7.84 4.73 0 10.19 2.44 5.47 2.44 9.54 6.5l142.42 141.71q4.06 4.78 6.1 9.42 2.04 4.65 2.04 11.02 0 6.38-2.04 11.02-2.04 4.65-6.1 8.71L543.69-521.22Z"/></svg>