<svg xmlns="http://www.w3.org/2000/svg" height="40" viewBox="0 -960 960 960" width="40"><path d="M652.49-126.26q-76.98 0-130.64-53.54-53.66-53.53-53.66-130.74 0-77.21 53.69-131.09 53.69-53.89 130.82-53.89 77.14 0 131.02 53.73 53.89 53.74 53.89 131.23 0 26.05-6.31 50.41-6.31 24.37-20.72 45.03l97.36 96.7q12.78 13.46 12.78 31.74 0 18.29-12.66 30.75Q894.73-42.8 876.4-42.8t-30.87-13.21l-97.36-96.45q-21.34 14.49-45.52 20.35-24.19 5.85-50.16 5.85Zm-.04-89.26q39.95 0 67.84-27.71 27.9-27.71 27.9-67.18 0-39.74-27.79-67.8-27.8-28.05-67.67-28.05-39.95 0-67.54 27.91-27.58 27.91-27.58 67.67 0 39.76 27.59 67.46 27.59 27.7 67.25 27.7ZM186.01-99.8q-37.83 0-63.54-25.47-25.72-25.47-25.72-63.79v-588.21q0-38.32 25.31-63.87 25.3-25.55 63.95-25.55h177.28q12.83-36.35 44.67-59.04 31.84-22.69 72.82-22.69 39.68 0 71.87 22.57 32.18 22.58 46.07 59.16h175.27q38.65 0 64.03 25.55 25.39 25.55 25.39 63.87v170.79q0 18.53-13.02 31.41-13.01 12.88-31.66 12.88t-31.7-12.88q-13.04-12.88-13.04-31.41v-170.79h-65.32v78.82q0 19.52-12.87 32.41-12.88 12.89-31.42 12.89H296.29q-19.19 0-32.08-12.89-12.88-12.89-12.88-32.41v-78.82h-65.32v588.21h170.55q18.82 0 31.89 13.09t13.07 31.54q0 18.44-13.07 31.54-13.07 13.09-31.89 13.09H186.01Zm294.87-681.27q16.21 0 28.05-11.7 11.83-11.7 11.83-28.42 0-16.88-11.83-28.38-11.84-11.5-28.17-11.5-16.76 0-28.38 11.5-11.62 11.5-11.62 28.5 0 16.6 11.62 28.3t28.5 11.7Z"/></svg>