<svg xmlns="http://www.w3.org/2000/svg" height="20" width="20"><path d="M4.25 17.5Q3.521 17.5 3.01 16.99Q2.5 16.479 2.5 15.75V4.25Q2.5 3.521 3.01 3.01Q3.521 2.5 4.25 2.5H15.75Q16.479 2.5 16.99 3.01Q17.5 3.521 17.5 4.25V15.75Q17.5 16.479 16.99 16.99Q16.479 17.5 15.75 17.5ZM7.792 12.479Q8.062 12.479 8.24 12.292Q8.417 12.104 8.417 11.833V8.354Q8.417 8 8.167 7.75Q7.917 7.5 7.562 7.5H6.5Q6.25 7.5 6.062 7.677Q5.875 7.854 5.875 8.125Q5.875 8.396 6.062 8.583Q6.25 8.771 6.521 8.771H7.146V11.854Q7.146 12.104 7.333 12.292Q7.521 12.479 7.792 12.479ZM10.417 12.479H12.542Q12.896 12.479 13.146 12.24Q13.396 12 13.396 11.646V8.354Q13.396 8 13.146 7.75Q12.896 7.5 12.542 7.5H10.417Q10.062 7.5 9.812 7.75Q9.562 8 9.562 8.354V11.646Q9.562 12 9.812 12.24Q10.062 12.479 10.417 12.479ZM10.833 9.562V8.333H12.125V9.562ZM10.833 11.646V10.396H12.125V11.646Z"/></svg>