<svg xmlns="http://www.w3.org/2000/svg" height="40" width="40"><path d="M7.583 18.167V16.375Q7.583 13.167 9.042 10.583Q10.5 8 12.917 6.25L9.583 2.958L11.167 1.333L14.917 5.083Q16.042 4.542 17.354 4.271Q18.667 4 20 4Q21.333 4 22.646 4.271Q23.958 4.542 25.083 5.083L28.833 1.333L30.417 2.958L27.083 6.25Q29.5 8 30.958 10.604Q32.417 13.208 32.417 16.375V18.167ZM25.292 14.625Q26.042 14.625 26.562 14.125Q27.083 13.625 27.083 12.875Q27.083 12.125 26.562 11.604Q26.042 11.083 25.333 11.083Q24.583 11.083 24.062 11.604Q23.542 12.125 23.542 12.833Q23.542 13.583 24.042 14.104Q24.542 14.625 25.292 14.625ZM14.667 14.625Q15.417 14.625 15.938 14.125Q16.458 13.625 16.458 12.875Q16.458 12.125 15.958 11.604Q15.458 11.083 14.708 11.083Q13.958 11.083 13.438 11.604Q12.917 12.125 12.917 12.833Q12.917 13.583 13.417 14.104Q13.917 14.625 14.667 14.625ZM20 39.5Q14.792 39.5 11.188 35.854Q7.583 32.208 7.583 27.042V19.917H32.417V27.042Q32.417 32.208 28.792 35.854Q25.167 39.5 20 39.5Z"/></svg>