<svg xmlns="http://www.w3.org/2000/svg" height="24" width="24"><path d="M6.95 18.125q-2.5 0-4.3-1.8-1.8-1.8-1.8-4.3 0-2.525 1.8-4.312 1.8-1.788 4.3-1.788H9q.725 0 1.213.487.487.488.487 1.213 0 .7-.487 1.2-.488.5-1.213.5H6.95q-1.125 0-1.913.775-.787.775-.787 1.925 0 1.125.787 1.913.788.787 1.913.787H9q.725 0 1.213.487.487.488.487 1.213 0 .7-.487 1.2-.488.5-1.213.5Zm1.6-4.8q-.575 0-.95-.375T7.225 12q0-.55.375-.938.375-.387.95-.387h6.9q.575 0 .95.387.375.388.375.938 0 .575-.375.95t-.95.375Zm14.6-1.3h-3.4q0-1.15-.788-1.925-.787-.775-1.912-.775H15q-.725 0-1.212-.5-.488-.5-.488-1.2 0-.725.488-1.213.487-.487 1.212-.487h2.05q2.5 0 4.3 1.788 1.8 1.787 1.8 4.312Zm-4.35 9.35q-.575 0-.95-.375t-.375-.95v-1.5h-1.5q-.55 0-.937-.375-.388-.375-.388-.925 0-.575.388-.95.387-.375.937-.375h1.5V14.4q0-.55.375-.925t.95-.375q.55 0 .938.375.387.375.387.925v1.525h1.5q.55 0 .937.375.388.375.388.95 0 .55-.388.925-.387.375-.937.375h-1.5v1.5q0 .575-.387.95-.388.375-.938.375Z"/></svg>