<svg xmlns="http://www.w3.org/2000/svg" height="24" width="24"><path d="M4.65 21.825Q3.675 21.825 3.025 21.175Q2.375 20.525 2.375 19.55V16.7Q2.375 15.725 3.025 15.075Q3.675 14.425 4.65 14.425H14.425V11.2Q14.425 10.85 14.663 10.613Q14.9 10.375 15.25 10.375Q15.575 10.375 15.825 10.613Q16.075 10.85 16.075 11.2V14.425H17.7Q18.675 14.425 19.325 15.075Q19.975 15.725 19.975 16.7V19.55Q19.975 20.525 19.325 21.175Q18.675 21.825 17.7 21.825ZM17.7 20.175Q17.975 20.175 18.15 20Q18.325 19.825 18.325 19.55V16.7Q18.325 16.425 18.15 16.25Q17.975 16.075 17.7 16.075H4.65Q4.375 16.075 4.2 16.25Q4.025 16.425 4.025 16.7V19.55Q4.025 19.825 4.2 20Q4.375 20.175 4.65 20.175ZM7 18.125Q7 17.75 6.725 17.475Q6.45 17.2 6.075 17.2Q5.7 17.2 5.425 17.475Q5.15 17.75 5.15 18.125Q5.15 18.5 5.425 18.775Q5.7 19.05 6.075 19.05Q6.45 19.05 6.725 18.775Q7 18.5 7 18.125ZM10.575 18.125Q10.575 17.75 10.3 17.475Q10.025 17.2 9.65 17.2Q9.275 17.2 9 17.475Q8.725 17.75 8.725 18.125Q8.725 18.5 9 18.775Q9.275 19.05 9.65 19.05Q10.025 19.05 10.3 18.775Q10.575 18.5 10.575 18.125ZM13.225 19.05Q13.6 19.05 13.875 18.775Q14.15 18.5 14.15 18.125Q14.15 17.75 13.875 17.475Q13.6 17.2 13.225 17.2Q12.85 17.2 12.575 17.475Q12.3 17.75 12.3 18.125Q12.3 18.5 12.575 18.775Q12.85 19.05 13.225 19.05ZM12 7.95Q11.75 7.7 11.775 7.412Q11.8 7.125 12.075 6.925Q12.8 6.375 13.575 6.1Q14.35 5.825 15.25 5.825Q16.15 5.825 16.925 6.1Q17.7 6.375 18.4 6.925Q18.7 7.125 18.712 7.425Q18.725 7.725 18.475 8Q18.25 8.2 17.925 8.237Q17.6 8.275 17.25 8.125Q16.8 7.8 16.312 7.637Q15.825 7.475 15.25 7.475Q14.675 7.475 14.175 7.637Q13.675 7.8 13.25 8.125Q12.9 8.275 12.562 8.225Q12.225 8.175 12 7.95ZM8.8 4.75Q8.525 4.475 8.525 4.137Q8.525 3.8 8.8 3.575Q10.125 2.45 11.762 1.862Q13.4 1.275 15.25 1.275Q17.1 1.275 18.713 1.887Q20.325 2.5 21.675 3.6Q21.95 3.825 21.975 4.137Q22 4.45 21.7 4.75Q21.475 4.975 21.138 4.975Q20.8 4.975 20.5 4.775Q19.525 3.95 18.188 3.437Q16.85 2.925 15.25 2.925Q13.65 2.925 12.312 3.437Q10.975 3.95 10 4.775Q9.7 4.975 9.363 4.975Q9.025 4.975 8.8 4.75ZM4.025 20.175Q4.025 20.175 4.025 20Q4.025 19.825 4.025 19.55V16.7Q4.025 16.425 4.025 16.25Q4.025 16.075 4.025 16.075Q4.025 16.075 4.025 16.25Q4.025 16.425 4.025 16.7V19.55Q4.025 19.825 4.025 20Q4.025 20.175 4.025 20.175Z"/></svg>