<svg xmlns="http://www.w3.org/2000/svg" height="40" viewBox="0 -960 960 960" width="40"><path d="M196.67-92q-43.7 0-74.19-30.48Q92-152.97 92-196.67V-386q0-43.98 30.48-74.65 30.49-30.68 74.19-30.68h384V-551q0-22 15.16-37.17 15.17-15.16 37.11-15.16 21.94 0 37.5 15.16Q686-573 686-551v59.67h76.33q43.98 0 74.66 30.68 30.68 30.67 30.68 74.65v189.33q0 43.7-30.68 74.19Q806.31-92 762.33-92H196.67Zm94.66-158q17.67 0 29.5-11.83 11.84-11.84 11.84-29.5 0-17.67-11.84-29.5-11.83-11.84-29.5-11.84-17.66 0-29.5 11.84Q250-309 250-291.33q0 17.66 11.83 29.5Q273.67-250 291.33-250ZM420-250q17.67 0 29.5-11.83 11.83-11.84 11.83-29.5 0-17.67-11.83-29.5-11.83-11.84-29.5-11.84t-29.5 11.84q-11.83 11.83-11.83 29.5 0 17.66 11.83 29.5Q402.33-250 420-250Zm128.67 0q17.66 0 29.5-11.83Q590-273.67 590-291.33q0-17.67-11.83-29.5-11.84-11.84-29.5-11.84-17.67 0-29.5 11.84-11.84 11.83-11.84 29.5 0 17.66 11.84 29.5Q531-250 548.67-250Zm84.36-439q-11.36 0-23.53 3.33-12.17 3.34-22.83 8-15.02 6-30.84 4-15.83-2-27.16-13-12-11.66-12.34-26.5-.33-14.83 12.74-23.66 22.13-15.13 48.75-23.65 26.62-8.52 55.19-8.52 28.66 0 55.41 8.85Q715.17-751.3 738-736q12 8.67 12.17 23.5.16 14.83-10.5 25.5-11.34 11.33-27.5 13.5-16.17 2.17-31.39-4.17-10.45-5.66-22.3-8.5-11.85-2.83-25.45-2.83Zm-.34-140q-43.64 0-80.83 13.17-37.19 13.16-65.53 33.5-13.41 10.33-29.37 9.66-15.96-.66-27.96-12.66t-10.83-29.34q1.16-17.33 14.5-27.33 37.33-28 89.31-47.33 51.98-19.34 111.52-19.34t112.02 19.84Q798-869 835.33-840.51q13 10.41 13 26.8 0 16.38-11.33 28.38-12 12-27.96 12.33-15.95.33-29.37-10-28.34-19.34-65.84-32.67Q676.33-829 632.69-829Z"/></svg>