<svg xmlns="http://www.w3.org/2000/svg" height="40" viewBox="0 -960 960 960" width="40"><path d="M315.77-201.33q18.56 15.33 41.45 25.4 22.89 10.06 48.78 14.31V-117q-24.33-3.33-46.33-11.33t-41.34-18q-30.66 19-60.66 28-30 9-59.34 9h-49v-41.34h49q33.14 0 66.9-13.83 33.77-13.83 50.54-36.83ZM464-523Zm-80-326.33h188.67v84.66h118q30.43 0 51.88 21.12Q764-722.43 764-691.33V-608q-8.67-1.33-19.44-2.33-10.77-1-21.89-2v-83q0-12-8.5-20t-20.5-8H263q-12 0-20.5 8t-8.5 20V-491l225.33-76.67-23-3.33q-4 10.67 4 27T464-523L172.67-422.67l29.66 144.34q30.67-8 54.8-25.06Q281.26-320.44 303-344l19-16.67q17.33 16.67 38.67 34.34Q382-308.67 406-296v40.67q-7.33-.34-24.83-12.5Q363.67-280 326.33-322q-39.66 42.33-77.33 60.83t-85.33 23.5L132.33-408q-2.33-10.71 2-22.23T150-447.67l42.67-24v-219.62q0-31.14 21.11-52.26 21.12-21.12 52.22-21.12h118v-84.66Zm172.67 738.66q-8.47 0-13.07-4.8T539-129v-49.02q-17.05-8.34-27.02-25.8Q502-221.28 502-240v-185.67q0-46.26 41.5-68.46 41.5-22.2 131.76-22.2 92.57 0 133.32 21.4t40.75 69.26V-240q0 19.52-9.7 35.7-9.7 16.17-26.63 26.3v49q0 8.73-5 13.53-5 4.8-13.33 4.8h-40q-8.47 0-13.07-4.8T737-129v-39H615.33v39q0 8.73-5.17 13.53-5.16 4.8-13.49 4.8h-40Zm39.19-117.66q14.49 0 24.81-9.74Q631-247.8 631-262.57q0-14.76-10.07-24.93-10.06-10.17-24.83-10.17-14.77 0-24.6 10.33-9.83 10.33-9.83 24.82 0 14.85 9.66 24.52 9.67 9.67 24.53 9.67Zm159.33 0q14.49 0 24.82-9.74 10.32-9.73 10.32-24.5 0-14.76-10.06-24.93-10.07-10.17-24.84-10.17-14.76 0-24.6 10.33-9.83 10.33-9.83 24.82 0 14.85 9.67 24.52 9.66 9.67 24.52 9.67ZM554-366.33h243.33v-68H554v68Z"/></svg>