<svg xmlns="http://www.w3.org/2000/svg" height="40" viewBox="0 -960 960 960" width="40"><path d="M329.24-202.49q22.03 14.85 46.31 25.32 24.28 10.48 50.19 15.48v34.64q-24.83-4.49-49.21-12.62-24.38-8.14-47.66-20.29-36.11 18.99-72.56 28.06-36.44 9.08-73.3 9.08h-20.19v-32.44h20.19q37.87 0 75.68-12.28 37.82-12.28 70.55-34.95Zm235.03 79.67q-7.51 0-12.32-4.87-4.81-4.87-4.81-12.14v-39.78q-15.98-8.49-24.78-23.99-8.8-15.5-8.8-33.91v-179.35q0-43.31 38.9-63.43 38.9-20.12 122.49-20.12 86.28 0 124.26 19.29 37.97 19.3 37.97 64.26v179.62q0 17.76-8.87 33.28-8.86 15.53-24.69 24.04v39.97q0 7.19-4.89 12.16t-11.47 4.97h-26.38q-7.51 0-12.32-4.88-4.82-4.88-4.82-12.15v-30.6H607.25v30.7q0 7.22-4.97 12.07-4.97 4.86-12.2 4.86h-25.81Zm38.56-107.83q11.43 0 19.75-7.97 8.33-7.97 8.33-19.75 0-11.78-8.33-19.86-8.32-8.08-19.75-8.08-12.14 0-20.11 7.98-7.96 7.97-7.96 19.74 0 11.89 8.02 19.91 8.03 8.03 20.05 8.03Zm145.8 0q11.42 0 19.75-7.97t8.33-19.75q0-11.78-8.33-19.86t-19.75-8.08q-12.14 0-20.11 7.98-7.97 7.97-7.97 19.74 0 11.89 8.03 19.91 8.02 8.03 20.05 8.03ZM550.36-351.27h250.02v-63.83H550.36v63.83ZM404.85-748.79v-88.54h147.73v88.54H684.5q23.73 0 40.39 16.66t16.66 40.39v105.97q-7.49-.51-15.39-1.41-7.9-.9-17.04-1.05v-106.59q0-9.23-6.54-15.39-6.54-6.15-15.77-6.15h-416.2q-9.23 0-15.76 6.15-6.54 6.16-6.54 15.39v178.49l230.15-73.25 54.31 17.71q-57.59 16.83-82.16 53.47-24.57 36.64-24.87 97.18v154.86q-20.21-7.67-43.19-26.42-22.99-18.75-52.59-52.68-34.05 37.97-63.02 58.56-28.98 20.58-61.47 31.44l-54.38-199.87q-2.8-10.56 1.99-20.76 4.78-10.19 16.27-13.58l46.52-15.71v-186.36q0-23.73 16.66-40.39 16.67-16.66 40.39-16.66h131.93Z"/></svg>