<svg xmlns="http://www.w3.org/2000/svg" height="40" viewBox="0 -960 960 960" width="40"><path d="M172.13-120.64q-21.04-7.97-32.53-20.46-11.49-12.49-18.46-33.53l666.73-665.56q18.96 5.73 33.03 19.92 14.07 14.19 19.22 33.23l-667.99 666.4Zm-52.16-259.94v-102.46L477.3-840.19h102.12L119.97-380.58Zm0-312.87v-74.16q0-29.65 21.38-51.11 21.39-21.47 51.04-21.47h74.49L119.97-693.45Zm573.48 573.48 146.74-146.91v74.49q0 29.65-21.47 51.04-21.46 21.38-51.11 21.38h-74.16Zm-312.87 0 459.61-459.45v102.12L483.04-119.97H380.58Z"/></svg>