<svg xmlns="http://www.w3.org/2000/svg" height="48" width="48"><path d="M24.05 23.75V2.85H43.45V17.7H30.35ZM28.6 7.45V13.1ZM28.6 13.1H38.9V7.45H28.6ZM39.2 42.95Q32.95 43 26.725 39.95Q20.5 36.9 15.6 31.925Q10.7 26.95 7.625 20.725Q4.55 14.5 4.55 8.35Q4.55 7.55 4.6 6.575Q4.65 5.6 4.75 4.9H17.9L20.5 15.9L13.65 22.1Q16.1 26.05 19.05 28.925Q22 31.8 25.6 33.85L32.35 27.05L42.65 29.5V42.7Q41.95 42.75 40.95 42.85Q39.95 42.95 39.2 42.95ZM11.3 18.1 15.4 14.3 14.3 9.45H9.15Q9.1 11.15 9.6 13.25Q10.1 15.35 11.3 18.1ZM29.8 36.2Q31.55 37.1 33.725 37.65Q35.9 38.2 38.05 38.35V33.15L33.65 32.1ZM11.3 18.1Q11.3 18.1 11.3 18.1Q11.3 18.1 11.3 18.1ZM29.8 36.2Q29.8 36.2 29.8 36.2Q29.8 36.2 29.8 36.2Z"/></svg>