<svg xmlns="http://www.w3.org/2000/svg" height="48" width="48"><path d="M30.3 32.45H36.9Q37.65 32.45 38.2 31.9Q38.75 31.35 38.75 30.6V17.4Q38.75 16.65 38.2 16.1Q37.65 15.55 36.9 15.55H30.3Q29.55 15.55 29.025 16.1Q28.5 16.65 28.5 17.4V30.6Q28.5 31.35 29.025 31.9Q29.55 32.45 30.3 32.45ZM32.15 28.8V19.2H35.1V28.8ZM17.65 32.45H24Q24.75 32.45 25.3 31.9Q25.85 31.35 25.85 30.6V17.4Q25.85 16.65 25.3 16.1Q24.75 15.55 24 15.55H17.65Q16.9 15.55 16.35 16.1Q15.8 16.65 15.8 17.4V30.6Q15.8 31.35 16.35 31.9Q16.9 32.45 17.65 32.45ZM19.45 28.8V19.2H22.2V28.8ZM9.25 32.45H12.9V15.55H9.25ZM3.2 40.75V7.25H44.8V40.75Z"/></svg>