<svg xmlns="http://www.w3.org/2000/svg" height="48" viewBox="0 -960 960 960" width="48"><path d="M534-140q-19.25 0-32.37-13.43-13.13-13.42-13.13-32.5 0-19.07 13.13-32.32Q514.75-231.5 534-231.5h240q19.25 0 33.13 13.43Q821-204.65 821-185.57q0 19.07-13.87 32.32Q793.25-140 774-140H534ZM320-571 169-723q-13.5-13.3-13.5-31.65 0-18.35 13.5-32.1t32.25-13.75q18.75 0 32.25 13.5l184 183q13.5 13.5 13.5 33.25t-13.5 33.25L233.5-355q-13.5 14-32.25 14t-32.75-13.8q-14-13.81-14-32.5 0-18.7 14.5-32.7l151-151Z"/></svg>