<svg xmlns="http://www.w3.org/2000/svg" height="20" width="20"><path d="M12.521 13.146 9.125 9.729l1.021-1.021 2.375 2.396 4.729-4.75 1.042 1.021Zm-7 5.896q-.854 0-1.417-.563-.562-.562-.562-1.417V2.938q0-.855.562-1.417.563-.563 1.417-.563h7.291q.855 0 1.417.563.563.562.563 1.417v2.624h-1.459v-.604H5v10.084h8.333v-.604h1.459v2.624q0 .855-.563 1.417-.562.563-1.417.563ZM5 16.5v.562q0 .209.156.365t.365.156h7.291q.209 0 .365-.156t.156-.365V16.5Zm0-13h8.333v-.562q0-.209-.156-.365t-.365-.156H5.521q-.209 0-.365.156T5 2.938Zm0-1.083V3.5 2.417Zm0 15.166V16.5v1.083Z"/></svg>