<svg xmlns="http://www.w3.org/2000/svg" height="24" width="24"><path d="M9.575 10.775H10.575V7.35H9.575ZM12.375 10.775H13.375V7.35H12.375ZM15.2 10.775H16.2V7.35H15.2ZM6.625 21Q5.925 21 5.463 20.538Q5 20.075 5 19.375V8.425L10.425 3H17.375Q18.075 3 18.538 3.462Q19 3.925 19 4.625V19.375Q19 20.075 18.538 20.538Q18.075 21 17.375 21ZM6.625 20H17.375Q17.625 20 17.812 19.812Q18 19.625 18 19.375V4.625Q18 4.375 17.812 4.188Q17.625 4 17.375 4H10.85L6 8.85V19.375Q6 19.625 6.188 19.812Q6.375 20 6.625 20ZM6.625 20Q6.375 20 6.188 20Q6 20 6 20H10.85H17.375Q17.625 20 17.812 20Q18 20 18 20Q18 20 17.812 20Q17.625 20 17.375 20Z"/></svg>