<svg xmlns="http://www.w3.org/2000/svg" height="40" width="40"><path d="M12.292 27.708q.333 0 .583-.25.25-.25.25-.625V18.25q0-.333-.25-.583-.25-.25-.583-.25-.375 0-.625.25t-.25.583v8.583q0 .375.271.625.27.25.604.25Zm6.666 0q.334 0 .584-.25.25-.25.25-.625V13.125q0-.333-.25-.583-.25-.25-.584-.25-.375 0-.625.25t-.25.583v13.708q0 .375.271.625t.604.25Zm6.625 0q.334 0 .584-.25.25-.25.25-.625v-3.458q0-.292-.25-.563-.25-.27-.625-.27-.334 0-.584.27-.25.271-.25.563v3.458q0 .375.25.625t.625.25Zm-17.333 6q-1.292 0-2.167-.875-.875-.875-.875-2.166V9.333q0-1.291.875-2.166t2.167-.875h15.458q.292 0 .563.25.271.25.271.583 0 .375-.271.625t-.563.25H8.25q-.583 0-.958.375t-.375.958v21.334q0 .583.375.958T8.25 32h21.333q.584 0 .959-.375t.375-.958V15.208q0-.291.271-.562.27-.271.604-.271.333 0 .583.271.25.271.25.562v15.459q0 1.291-.875 2.166t-2.167.875Zm22.292-21.083q-.334 0-.584-.271-.25-.271-.25-.604V9.208h-2.541q-.334 0-.605-.25-.27-.25-.27-.625 0-.333.27-.583.271-.25.605-.25h2.541V4.958q0-.333.25-.583.25-.25.625-.25.334 0 .584.25.25.25.25.583V7.5h2.541q.334 0 .584.25.25.25.25.625 0 .333-.25.583-.25.25-.584.25h-2.541v2.542q0 .333-.25.604-.25.271-.625.271Z"/></svg>