<svg xmlns="http://www.w3.org/2000/svg" height="40" viewBox="0 -960 960 960" width="40"><path d="M202.43-173.5q-22.8 0-38.87-16.06-16.06-16.07-16.06-38.87v-503.14q0-22.8 16.06-38.87 16.07-16.06 39.11-16.06h371.16q4.62 0 8.31 3.48 3.69 3.47 3.69 7.85 0 5.34-3.69 8.59t-8.31 3.25H202.67q-14 0-23 9t-9 23v502.66q0 14 9 23t23 9h502.66q14 0 23-9t9-23v-371.16q0-4.62 3.42-8.31 3.41-3.69 8.33-3.69t8.17 3.69q3.25 3.69 3.25 8.31v371.16q0 23.04-16.06 39.11-16.07 16.06-38.87 16.06H202.43ZM305.5-532.17q-5.33 0-8.58 3.43t-3.25 7.74v202.83q0 5.27 3.41 8.64 3.41 3.36 8.33 3.36t8.17-3.36q3.25-3.37 3.25-8.64V-521q0-4.31-3.47-7.74-3.48-3.43-7.86-3.43Zm148.84-121.66q-5.34 0-8.59 3.43-3.25 3.42-3.25 7.73v324.5q0 5.27 3.41 8.64 3.42 3.36 8.34 3.36t8.17-3.36q3.25-3.37 3.25-8.64v-324.5q0-4.31-3.48-7.73-3.48-3.43-7.85-3.43ZM603-411.17q-5.33 0-8.58 3.76-3.25 3.75-3.25 7.41v81.83q0 5.27 3.41 8.64 3.41 3.36 8.33 3.36t8.17-3.36q3.25-3.37 3.25-8.64V-400q0-3.66-3.47-7.41-3.48-3.76-7.86-3.76Zm105.17-323H639q-5.27 0-8.63-3.41-3.37-3.41-3.37-8.33t3.37-8.17q3.36-3.25 8.63-3.25h69.17v-70q0-4.31 3.41-7.74 3.41-3.43 8.33-3.43t8.17 3.43q3.25 3.43 3.25 7.74v70h70q4.31 0 7.74 3.47 3.43 3.48 3.43 7.86 0 5.33-3.43 8.58t-7.74 3.25h-70V-665q0 5.27-3.47 8.63Q724.38-653 720-653q-5.33 0-8.58-3.37-3.25-3.36-3.25-8.63v-69.17ZM454-480Z"/></svg>