<svg xmlns="http://www.w3.org/2000/svg" height="20" width="20"><path d="M10.021 14.479Q11.521 14.479 12.542 13.448Q13.562 12.417 13.562 10.938Q13.562 9.438 12.531 8.417Q11.5 7.396 10 7.396Q8.5 7.396 7.49 8.427Q6.479 9.458 6.479 10.938Q6.479 12.438 7.5 13.458Q8.521 14.479 10.021 14.479ZM10.021 12.604Q9.312 12.604 8.833 12.115Q8.354 11.625 8.354 10.938Q8.354 10.25 8.833 9.76Q9.312 9.271 10.021 9.271Q10.708 9.271 11.198 9.76Q11.688 10.25 11.688 10.938Q11.688 11.625 11.198 12.115Q10.708 12.604 10.021 12.604ZM3.542 17.771Q2.667 17.771 2.042 17.146Q1.417 16.521 1.417 15.646V6.25Q1.417 5.375 2.042 4.75Q2.667 4.125 3.542 4.125H5.896L7.583 2.271H12.396L14.125 4.125H16.458Q17.333 4.125 17.958 4.75Q18.583 5.375 18.583 6.25V15.646Q18.583 16.521 17.958 17.146Q17.333 17.771 16.458 17.771ZM16.458 15.896Q16.562 15.896 16.635 15.823Q16.708 15.75 16.708 15.646V6.25Q16.708 6.146 16.635 6.073Q16.562 6 16.458 6H13.333L11.583 4.146H8.438L6.688 6H3.542Q3.438 6 3.365 6.073Q3.292 6.146 3.292 6.25V15.646Q3.292 15.75 3.365 15.823Q3.438 15.896 3.542 15.896ZM10 10.938Q10 10.938 10 10.938Q10 10.938 10 10.938Q10 10.938 10 10.938Q10 10.938 10 10.938Q10 10.938 10 10.938Q10 10.938 10 10.938Q10 10.938 10 10.938Q10 10.938 10 10.938Z"/></svg>