<svg xmlns="http://www.w3.org/2000/svg" height="24" viewBox="0 -960 960 960" width="24"><path d="M654.31-79.23 526.54-207l41.77-41.77 85 85 170-170L865.08-291 654.31-79.23ZM296-294.23 254.23-336l64-64-64-64L296-505.77l64 64 64-64L465.77-464l-64 64 64 64L424-294.23l-64-64-64 64ZM212.31-100Q182-100 161-121q-21-21-21-51.31v-535.38Q140-738 161-759q21-21 51.31-21h55.38v-84.61h61.54V-780h303.08v-84.61h60V-780h55.38Q778-780 799-759q21 21 21 51.31v241.31l-60 60.99v-142.3H200v375.38q0 4.62 3.85 8.46 3.84 3.85 8.46 3.85h226.54L499-100H212.31Z"/></svg>