<svg xmlns="http://www.w3.org/2000/svg" height="48" width="48"><path d="M35 31.25 34.75 29q-.6-.1-1.1-.425-.5-.325-.85-.725l-1.95.9-1.4-2.15 1.75-1.3q-.25-.55-.25-1.375t.25-1.425l-1.75-1.3 1.4-2.2 1.95.95q.35-.45.8-.75.45-.3 1.15-.45l.25-2.2h2.7l.25 2.2q.7.15 1.175.45.475.3.825.75L41.9 19l1.35 2.2-1.75 1.3q.25.6.25 1.425 0 .825-.25 1.375l1.75 1.3-1.4 2.15-1.9-.9q-.35.4-.85.7-.5.3-1.15.5l-.25 2.2Zm1.35-4.05q1.4 0 2.35-.95.95-.95.95-2.35 0-1.4-.95-2.35-.95-.95-2.35-.95-1.4 0-2.35.95-.95.95-.95 2.35 0 1.4.95 2.35.95.95 2.35.95ZM13.1 45.75q-1.25 0-2.075-.825-.825-.825-.825-2.075V5.1q0-1.2.825-2.025T13.1 2.25h21.85q1.2 0 2.025.825T37.8 5.1v7.15h-2.85v-2.7H13.1v28.9h21.85V35.7h2.85v7.15q0 1.25-.825 2.075-.825.825-2.025.825Z"/></svg>