<svg xmlns="http://www.w3.org/2000/svg" height="20" width="20"><path d="M14.562 7.917Q14.458 7.833 14.448 7.719Q14.438 7.604 14.521 7.521L15.438 6.625Q15.521 6.521 15.625 6.531Q15.729 6.542 15.812 6.646Q15.917 6.75 15.917 6.844Q15.917 6.938 15.812 7.062L14.938 7.938Q14.833 8.042 14.74 8.021Q14.646 8 14.562 7.917ZM2.792 15.917Q2.667 15.917 2.573 15.823Q2.479 15.729 2.479 15.604Q2.479 15.5 2.573 15.406Q2.667 15.312 2.792 15.312H17.229Q17.333 15.312 17.438 15.417Q17.542 15.521 17.542 15.625Q17.542 15.729 17.438 15.823Q17.333 15.917 17.229 15.917ZM10 6.229Q9.896 6.229 9.802 6.135Q9.708 6.042 9.708 5.917V4.75Q9.708 4.646 9.802 4.542Q9.896 4.438 10.021 4.438Q10.125 4.438 10.219 4.542Q10.312 4.646 10.312 4.75V5.917Q10.312 6.042 10.208 6.135Q10.104 6.229 10 6.229ZM5.062 7.958 4.146 7.062Q4.042 6.979 4.052 6.875Q4.062 6.771 4.167 6.667Q4.271 6.562 4.375 6.562Q4.479 6.562 4.583 6.688L5.479 7.562Q5.562 7.646 5.552 7.75Q5.542 7.854 5.458 7.938Q5.354 8.042 5.25 8.052Q5.146 8.062 5.062 7.958ZM5.562 11.979Q5.938 10.458 7.188 9.49Q8.438 8.521 10.021 8.521Q11.583 8.521 12.833 9.49Q14.083 10.458 14.458 11.979Z"/></svg>