<svg xmlns="http://www.w3.org/2000/svg" height="20" width="20"><path d="M14.688 7.812Q14.562 7.688 14.552 7.51Q14.542 7.333 14.688 7.208L15.5 6.375Q15.625 6.25 15.792 6.26Q15.958 6.271 16.104 6.417Q16.25 6.562 16.25 6.719Q16.25 6.875 16.104 7.042L15.292 7.833Q15.167 7.979 15 7.969Q14.833 7.958 14.688 7.812ZM2.542 16.25Q2.354 16.25 2.219 16.104Q2.083 15.958 2.083 15.792Q2.083 15.604 2.219 15.469Q2.354 15.333 2.542 15.333H17.458Q17.646 15.333 17.781 15.479Q17.917 15.625 17.917 15.792Q17.917 15.979 17.781 16.115Q17.646 16.25 17.458 16.25ZM10 6.021Q9.812 6.021 9.677 5.885Q9.542 5.75 9.542 5.562V4.5Q9.542 4.312 9.688 4.177Q9.833 4.042 10 4.042Q10.188 4.042 10.323 4.177Q10.458 4.312 10.458 4.5V5.562Q10.458 5.75 10.312 5.885Q10.167 6.021 10 6.021ZM4.667 7.854 3.854 7.042Q3.708 6.896 3.719 6.74Q3.729 6.583 3.875 6.438Q4.021 6.292 4.188 6.292Q4.354 6.292 4.5 6.438L5.312 7.25Q5.438 7.375 5.427 7.531Q5.417 7.688 5.292 7.833Q5.146 7.979 4.979 7.979Q4.812 7.979 4.667 7.854ZM5.104 12.333Q5.375 10.542 6.771 9.354Q8.167 8.167 10 8.167Q11.833 8.167 13.229 9.354Q14.625 10.542 14.896 12.333Z"/></svg>