<svg xmlns="http://www.w3.org/2000/svg" height="20" viewBox="0 -960 960 960" width="20"><path d="M479.78-604.62q-42.47 0-71.74-29.49-29.27-29.49-29.27-71.96t29.49-71.74q29.49-29.27 71.96-29.27t71.74 29.49q29.27 29.5 29.27 71.97t-29.49 71.74q-29.49 29.26-71.96 29.26Zm.22 439.39L275.38-371.69q-14.23-14.39-21.42-34.39-7.19-20-7.19-39.07 0-41.93 29.65-72.08 29.66-30.15 71.58-30.15 19.08 0 38.19 7.3 19.12 7.31 33.66 22.5l60.15 61.5 60.15-61.5q13.77-14.42 33.27-22.11 19.5-7.69 38.58-7.69 41.92 0 71.58 30.15 29.65 30.15 29.65 72.08 0 19.07-7.19 39.07t-21.42 34.39L480-165.23Z"/></svg>