<svg xmlns="http://www.w3.org/2000/svg" height="20" width="20"><path d="M8.833 11.208 6.979 9.354Q6.792 9.146 6.531 9.146Q6.271 9.146 6.062 9.354Q5.854 9.542 5.854 9.812Q5.854 10.083 6.062 10.292L8.271 12.521Q8.5 12.729 8.844 12.729Q9.188 12.729 9.396 12.521L13.958 7.958Q14.146 7.771 14.156 7.5Q14.167 7.229 13.958 7.021Q13.75 6.812 13.49 6.812Q13.229 6.812 13.021 7.021ZM4.5 17.083Q3.854 17.083 3.385 16.615Q2.917 16.146 2.917 15.5V4.5Q2.917 3.854 3.385 3.385Q3.854 2.917 4.5 2.917H8.125Q8.188 2.229 8.719 1.74Q9.25 1.25 10 1.25Q10.75 1.25 11.281 1.74Q11.812 2.229 11.875 2.917H15.5Q16.146 2.917 16.615 3.385Q17.083 3.854 17.083 4.5V15.5Q17.083 16.146 16.615 16.615Q16.146 17.083 15.5 17.083ZM10 3.708Q10.25 3.708 10.438 3.521Q10.625 3.333 10.625 3.083Q10.625 2.833 10.438 2.646Q10.25 2.458 10 2.458Q9.75 2.458 9.562 2.646Q9.375 2.833 9.375 3.083Q9.375 3.333 9.562 3.521Q9.75 3.708 10 3.708ZM4.5 15.75H15.5Q15.583 15.75 15.667 15.667Q15.75 15.583 15.75 15.5V4.5Q15.75 4.417 15.667 4.333Q15.583 4.25 15.5 4.25H4.5Q4.417 4.25 4.333 4.333Q4.25 4.417 4.25 4.5V15.5Q4.25 15.583 4.333 15.667Q4.417 15.75 4.5 15.75ZM4.25 4.229Q4.25 4.229 4.25 4.313Q4.25 4.396 4.25 4.479V15.5Q4.25 15.583 4.25 15.667Q4.25 15.75 4.25 15.75Q4.25 15.75 4.25 15.667Q4.25 15.583 4.25 15.5V4.479Q4.25 4.396 4.25 4.313Q4.25 4.229 4.25 4.229Z"/></svg>