<svg xmlns="http://www.w3.org/2000/svg" height="40" viewBox="0 -960 960 960" width="40"><path d="M305.33-69.33q-30.57 0-51.95-21.38Q232-112.09 232-142.67v-674.66q0-30.58 21.38-51.96 21.38-21.38 51.95-21.38H568v41.34H305.33q-12 0-22 10t-10 22V-792H568v41.33H273.33v541.34h413.34V-294H728v151.33q0 30.58-21.38 51.96-21.38 21.38-51.95 21.38H305.33Zm-32-98.67v25.33q0 12 10 22t22 10h349.34q12 0 22-10t10-22V-168H273.33Zm449.34-259.67L549.33-601l29.34-29.33 123.66 123V-821h41.34v313.67l123-123L896-601 722.67-427.67ZM273.33-792v-57.33V-792Zm0 624v57.33V-168Z"/></svg>