<svg xmlns="http://www.w3.org/2000/svg" height="24" viewBox="0 -960 960 960" width="24"><path d="M507-447q18 0 29.5-12.5T548-488v-13q11-5 17-14.5t6-21.5q0-18-11.5-29.5T530-578q-12 0-21.5 6.5T494-555l-116-56q5-4 13-27 0-18-11.5-29.5T350-679q-16 0-28.5 11.5T309-638v9q-14 4-22 15t-8 25q0 16 12.5 28.5T320-548q11 0 20.5-5.5T356-567l120 56q-2 2-10 23 0 16 12.5 28.5T507-447Zm-378-81 216-292 264 121q59 26 92 79t33 117v423l-312-1q-23-49-29-100.5t-5.5-96q.5-44.5 5-77.5t3.5-44q0-6-2-11t-8-6q-3-1-28.5-5.5t-62-17Q259-451 214.5-472T129-528Z"/></svg>