<svg xmlns="http://www.w3.org/2000/svg" height="24" viewBox="0 -960 960 960" width="24"><path d="M335-437.5q1-9.5 1.75-16.25t.75-14.25q0-35-15.25-59.25T288.5-575.5q-29-37.5-39-66.25t-10-59.25q0-9.5.5-19.75t2-22.25h25.5q-1.5 10.5-2 20.5T265-704q0 40 15.25 67.25T314-584.5q27.5 37 38.25 63T363-466q0 7-.5 13.75T360-437.5h-25Zm130 0q1-9.5 1.75-16.25t.75-14.25q0-35-15.25-59.25T418.5-575.5q-29-37.5-39-66.25t-10-59.25q0-9.5.5-19.75t2-22.25h25.5q-1.5 10.5-2.5 20.25T394-704q0 40 15.25 67.25T443-584.5q27.5 37 38.25 63T492-466q0 7.5-.25 14.25T490-437.5h-25Zm130 0q1-9.5 1.75-16.25t.75-14.25q0-35-15.25-59.25T548.5-575.5q-29-37.5-39-66.25t-10-59.25q0-9.5.5-19.75t2-22.25h25.5q-1.5 10.5-2.5 20.25T524-704q0 40 15.25 67.25T573-584.5q27.5 37 38.25 63T622-466q0 7.5-.25 14.25T620-437.5h-25Zm-115 220q-126.5 0-214.5-44.5t-88-109q0-23.5 16.75-47.25T243-462v28q-20 14.5-30 30.5T203-372q0 52.5 82.5 90.75T480-243q112 0 194.75-38.25T757.5-372q0-15.5-10.25-31.5T717.5-434v-28q31.5 20 48.5 43.75T783-371q0 64.5-88.25 109T480-217.5Z"/></svg>