<svg xmlns="http://www.w3.org/2000/svg" height="24" viewBox="0 -960 960 960" width="24"><path d="M455.23-460H120q-8.54 0-14.27-5.73T100-480q0-8.54 5.73-14.27T120-500h335.23l-69.61-69.85q-5.62-5.61-6-13.65-.39-8.04 6.23-14.65 6.38-6.39 14.15-6.39 7.77 0 14.15 6.39l95.54 95.53q9.69 9.7 9.69 22.62 0 12.92-9.69 22.62l-95.54 95.53q-5.61 5.62-13.65 6.12t-14.65-6.12q-6.39-6.38-6.5-14.03-.12-7.66 6.27-14.27L455.23-460ZM304.62-80Q277-80 258.5-98.5 240-117 240-144.62V-340q0-8.54 5.73-14.27T260-360q8.54 0 14.27 5.73T280-340v120h400v-520H280v120q0 8.54-5.73 14.27T260-600q-8.54 0-14.27-5.73T240-620v-195.38q0-27.62 18.5-46.12Q277-880 304.62-880h350.76q27.62 0 46.12 18.5Q720-843 720-815.38v670.76q0 27.62-18.5 46.12Q683-80 655.38-80H304.62Z"/></svg>