<svg xmlns="http://www.w3.org/2000/svg" height="24" width="24"><path d="M8.4 11.625 10.525 9.5l-2.15-2.15L7.3 8.425l1.075 1.05L7.3 10.55ZM21 9q-.825 0-1.413-.588Q19 7.825 19 7q0-.675.388-1.45.387-.775 1.612-2.575 1.225 1.8 1.613 2.575Q23 6.325 23 7q0 .825-.587 1.412Q21.825 9 21 9Zm-5.375 2.65 1.1-1.1-1.075-1.075 1.05-1.05-1.075-1.075-2.15 2.15ZM12 13.475q-.675 0-1.287.162-.613.163-1.188.463l-3.1-1.8q-.025-.4-.212-.75-.188-.35-.563-.55-.525-.3-1.137-.138-.613.163-.913.688-.3.55-.137 1.15.162.6.687.925.35.2.75.187.4-.012.75-.212l2.55 1.5q-.35.375-.65.813-.3.437-.5.962H8.7q.525-.85 1.375-1.363Q10.925 15 12 15q1.075 0 1.925.512.85.513 1.375 1.363h1.65q-.6-1.525-1.925-2.463-1.325-.937-3.025-.937Zm0 8.475q-2.075 0-3.9-.787-1.825-.788-3.162-2.125Q3.6 17.7 2.825 15.875 2.05 14.05 2.05 12t.775-3.875Q3.6 6.3 4.938 4.963 6.275 3.625 8.1 2.837 9.925 2.05 12 2.05q1.85 0 3.463.6 1.612.6 2.937 1.7-.35.625-.625 1.275Q17.5 6.275 17.5 7q0 1.475 1.025 2.488Q19.55 10.5 21 10.5q.225 0 .425-.038.2-.037.4-.087.075.4.1.8.025.4.025.825 0 2.075-.787 3.887-.788 1.813-2.125 3.151-1.338 1.337-3.151 2.125-1.812.787-3.887.787Z"/></svg>