<svg xmlns="http://www.w3.org/2000/svg" height="48" width="48"><path d="M8.45 41.75Q7.55 41.75 6.9 41.1Q6.25 40.45 6.25 39.5V32.95Q6.25 32.15 6.75 31.55Q7.25 30.95 8 30.8L13.85 29.55Q14.45 29.4 15.05 29.6Q15.65 29.8 16.1 30.35L20.9 35.25Q25.3 32.8 28.75 29.375Q32.2 25.95 35 21.3L30.05 16.3Q29.7 15.95 29.55 15.375Q29.4 14.8 29.5 14.15L30.85 7.95Q31 7.15 31.525 6.675Q32.05 6.2 32.75 6.2H39.55Q40.5 6.2 41.15 6.85Q41.8 7.5 41.8 8.45Q41.8 14.4 38.825 20.35Q35.85 26.3 31.1 31.05Q26.35 35.8 20.4 38.775Q14.45 41.75 8.45 41.75Z"/></svg>