<svg xmlns="http://www.w3.org/2000/svg" height="20" width="20"><path d="M8.188 7.583q-.48 0-.792-.312-.313-.313-.313-.792 0-.479.313-.802.312-.323.792-.323.458 0 .791.334.333.333.333.791 0 .479-.333.792-.333.312-.791.312ZM14 17.542q-1.479 0-2.51-1.032-1.032-1.031-1.032-2.51 0-1.479 1.032-2.521 1.031-1.041 2.51-1.041 1.479 0 2.521 1.041 1.041 1.042 1.041 2.521 0 1.479-1.041 2.51-1.042 1.032-2.521 1.032Zm1.146-1.813.583-.583-1.333-1.313v-1.729h-.792v2.063Zm-9.979 1.396q-.459 0-.782-.323t-.323-.781V3.979q0-.437.323-.781.323-.344.782-.344h6.041q.459 0 .792.344t.333.781v4.959q-.187.083-.323.135-.135.052-.302.135V3.979q0-.229-.146-.375-.145-.146-.374-.146H5.167q-.209 0-.355.146-.145.146-.145.375v6.167q.333-.334.791-.563.459-.229.98-.229h3.5q.27 0 .51.073t.469.219q-.959.708-1.542 1.646-.583.937-.729 2.041H8.5v-1.895h-.604v1.5h-1.5v.604h1.5v1.5h.75v-1.334q-.021.938.271 1.813.291.875.854 1.604Z"/></svg>