<svg xmlns="http://www.w3.org/2000/svg" height="40" viewBox="0 -960 960 960" width="40"><path d="M641.33-104.17v-198.67H682v-39.33q0-33.29 23.83-57.31 23.84-24.03 57.5-24.03 33.67 0 57.5 24.03 23.84 24.02 23.84 57.31v39.33h40.66v198.67h-244ZM722-302.84h82.67v-39.33q0-17.96-11.5-29.65-11.5-11.69-29.84-11.69-18.33 0-29.83 11.69T722-342.17v39.33ZM480-83.64 0-600q97.1-97.45 219.65-152.78Q342.2-808.1 480-808.1t260.35 55.32Q862.9-697.45 960-600L840.78-473.81q-26.35-8.99-54.1-11.03-27.75-2.04-54.83 3.15-81.29 11.32-137.89 71.59-56.6 60.28-62.26 143.07-2.74 28.2 1.94 55.58t17.06 52.78L480-83.64Z"/></svg>