<svg xmlns="http://www.w3.org/2000/svg" height="40" width="40"><path d="M5.917 36.167v-9.209q0-1.875 1.27-3.146 1.271-1.27 3.146-1.27h3.584q2.458 0 3.895-1.271Q19.25 20 19.25 18.042q0-1.334-.896-2.209t-2.146-.875q-.833 0-1.396-.562-.562-.563-.562-1.438V3.792h2.167V12q.041.375.229.604.187.229.562.229 1.834.292 3 1.75 1.167 1.459 1.167 3.459 0 2.791-2.063 4.708-2.062 1.917-5.395 1.917h-3.584q-1 0-1.645.666-.646.667-.646 1.625v9.209Zm8.125 0h-2.125v-2.292q0-1.833 1.291-3.125 1.292-1.292 3.125-1.292H23q3.708 0 6.312-2.583 2.605-2.583 2.605-6.333v-2.209q0-3.583-2.25-6.271-2.25-2.687-5.709-2.687-1.541 0-2.625-1.083-1.083-1.084-1.083-2.625V3.792h2.125v1.875q0 .666.479 1.125.479.458 1.104.458 4.292 0 7.188 3.312 2.896 3.313 2.896 7.771v2.209q0 4.625-3.209 7.854-3.208 3.229-7.833 3.229h-6.667q-1 0-1.645.646-.646.646-.646 1.604Zm-6 0v-9.209q0-.958.646-1.625.645-.666 1.645-.666h3.584q3.333 0 5.395-1.917 2.063-1.917 2.063-4.708 0-2-1.25-3.459-1.25-1.458-3.75-1.75l.042-9.041-.042 9.041q2.5.292 3.75 1.75 1.25 1.459 1.25 3.459 0 2.791-2.063 4.708-2.062 1.917-5.395 1.917h-3.584q-1 0-1.645.666-.646.667-.646 1.625v9.209Z"/></svg>