<svg xmlns="http://www.w3.org/2000/svg" height="24" viewBox="0 -960 960 960" width="24"><path d="M274-585h325v-79.08q0-49.42-34.69-84.17T480.06-783q-49.56 0-84.31 34.71T361-664h-25.5q0-60.5 42-102.5t102.5-42q60.5 0 102.5 42t42 102.73V-585H686q23.97 0 40.73 16.77 16.77 16.76 16.77 40.73v333q0 23.97-16.77 40.73Q709.97-137 686-137H274q-23.97 0-40.73-16.77-16.77-16.76-16.77-40.73v-333q0-23.97 16.77-40.73Q250.03-585 274-585Zm0 422.5h412q14 0 23-9t9-23v-333q0-14-9-23t-23-9H274q-14 0-23 9t-9 23v333q0 14 9 23t23 9Zm205.92-146q22.34 0 37.46-15.03 15.12-15.04 15.12-37.39 0-22.34-15.03-37.46-15.04-15.12-37.39-15.12-22.34 0-37.46 15.03-15.12 15.04-15.12 37.39 0 22.34 15.03 37.46 15.04 15.12 37.39 15.12ZM242-162.5v-397 397Z"/></svg>