<svg xmlns="http://www.w3.org/2000/svg" height="20" width="20"><path d="M16.667 14.188 14.792 12.312V10.938H16.438Q16.646 10.938 16.792 10.792Q16.938 10.646 16.938 10.438Q16.938 10.229 16.792 10.083Q16.646 9.938 16.438 9.938H14.792V5.208H10.083V3.583Q10.083 3.375 9.938 3.229Q9.792 3.083 9.583 3.083Q9.375 3.083 9.229 3.229Q9.083 3.375 9.083 3.583V5.208H7.708L5.833 3.333H7.396Q7.479 2.417 8.083 1.854Q8.688 1.292 9.583 1.292Q10.479 1.292 11.094 1.854Q11.708 2.417 11.792 3.333H16.667V8.229Q17.583 8.312 18.146 8.927Q18.708 9.542 18.708 10.438Q18.708 11.333 18.146 11.938Q17.583 12.542 16.667 12.625ZM11.271 8.792Q11.271 8.792 11.271 8.792Q11.271 8.792 11.271 8.792Q11.271 8.792 11.271 8.792Q11.271 8.792 11.271 8.792Q11.271 8.792 11.271 8.792Q11.271 8.792 11.271 8.792Q11.271 8.792 11.271 8.792Q11.271 8.792 11.271 8.792ZM16.458 18.792 1.188 3.521 2.396 2.312 17.646 17.583ZM8.833 11.146Q8.833 11.146 8.833 11.146Q8.833 11.146 8.833 11.146Q8.833 11.146 8.833 11.146Q8.833 11.146 8.833 11.146Q8.833 11.146 8.833 11.146Q8.833 11.146 8.833 11.146Q8.833 11.146 8.833 11.146Q8.833 11.146 8.833 11.146ZM2.521 17.479V12.583Q3.479 12.562 4.156 11.958Q4.833 11.354 4.833 10.438Q4.833 9.521 4.156 8.906Q3.479 8.292 2.521 8.271V3.875L4.396 5.208V6.854Q5.438 7.417 6.073 8.354Q6.708 9.292 6.708 10.438Q6.708 11.583 6.052 12.5Q5.396 13.417 4.396 13.979V15.604H6.042Q6.604 14.604 7.51 13.948Q8.417 13.292 9.583 13.292Q10.75 13.292 11.667 13.948Q12.583 14.604 13.167 15.604H14.792L16.125 17.479H11.75Q11.729 16.521 11.115 15.844Q10.5 15.167 9.583 15.167Q8.667 15.167 8.062 15.844Q7.458 16.521 7.438 17.479Z"/></svg>