<svg xmlns="http://www.w3.org/2000/svg" height="20" width="20"><path d="M3.667 18.833q-.917 0-1.552-.635-.636-.636-.636-1.552V7.229q0-.729.302-1.417.302-.687.969-.979l9.375-3.812q.271-.104.49.104.218.208.489.313.125.27 0 .572-.125.302-.416.428L6.271 5.062h10.062q.917 0 1.552.636.636.635.636 1.552v9.396q0 .916-.636 1.552-.635.635-1.552.635Zm0-9.229h9.395v-.833q0-.313.25-.563.25-.25.584-.25.312 0 .562.25.25.25.25.563v.833h1.625V7.25H3.667Zm2.895 6.354q.855 0 1.438-.583t.583-1.417q0-.854-.583-1.448-.583-.593-1.438-.593-.854 0-1.437.593-.583.594-.583 1.448 0 .834.583 1.417.583.583 1.437.583Z"/></svg>