<svg xmlns="http://www.w3.org/2000/svg" height="40" viewBox="0 -960 960 960" width="40"><path d="M142.29-51.17v-381.32q-51.42-15.54-88.48-58.56-37.06-43.03-39.06-101.28h88.81q2 33.98 26.35 56.49 24.35 22.51 55.45 22.51h36.93v-89.9q-51.42-15.54-88.48-58.56-37.06-43.03-39.06-101.28h88.81q2 33.98 26.35 56.49 24.35 22.51 55.45 22.51h17.35L480-945.62l197.29 261.55h17.35q31.1 0 55.45-22.51t26.35-56.49h89.18q-2.37 58.18-39.13 101.3-36.75 43.12-88.4 58.54v89.9h36.55q31.1 0 55.45-22.51t26.35-56.49h89.18q-2.37 58.55-39.13 101.51-36.75 42.96-88.4 58.33v381.32H522.9v-214.02h-85.8v214.02H142.29Zm250.88-632.9h173.66L480-801.36l-86.83 117.29Zm-82.74 170.74h339.14v-82.6H310.43v82.6Zm-80 373.64h118.53v-213.64h262.46v213.64h118.15v-285.5H230.43v285.5ZM480-425.19Zm0-258.88Zm0 170.74Z"/></svg>