<svg xmlns="http://www.w3.org/2000/svg" height="20" viewBox="0 -960 960 960" width="20"><path d="M480.08-94.39q-18.54 0-35.68-4.42t-29.01-16.27L115.08-415.39q-11.85-11.82-16.27-28.91t-4.42-35.62q0-18.54 4.92-35.18t16.77-28.51l300.31-300.31q11.82-11.85 28.91-17.27t35.62-5.42q18.54 0 35.18 4.92t28.51 16.77l300.31 300.31q11.85 11.82 16.77 28.41t4.92 35.12q0 18.54-5.42 35.68t-17.27 29.01L543.61-116.08q-11.82 11.85-28.41 16.77t-35.12 4.92ZM480-281.85 678.15-480 480-678.15 424.85-623l105.77 103H281.85v78h248.77L424.85-337 480-281.85Z"/></svg>