<svg xmlns="http://www.w3.org/2000/svg" height="48" viewBox="0 -960 960 960" width="48"><path d="M736.35-231.35h-87.44q-13.92 0-23.24-9.73-9.32-9.73-9.32-23.38 0-13.65 9.32-23.2 9.32-9.56 23.24-9.56h87.44v-87.43q0-13.35 9.37-22.96 9.37-9.61 23.35-9.61 13.98 0 23.56 9.61 9.59 9.61 9.59 22.96v87.43h86.69q13.9 0 23.6 9.66 9.71 9.66 9.71 23.2 0 14.12-9.71 23.57-9.7 9.44-23.6 9.44h-86.69v86.7q0 14.16-9.76 23.73-9.77 9.57-23.74 9.57-13.98 0-23.18-9.57-9.19-9.57-9.19-23.73v-86.7ZM480.06-798.61q117.13 0 223.49 40.13 106.36 40.13 196.41 112.18 12.43 9.55 18.4 22.92 5.97 13.38 5.97 27.34 0 12.59-4.74 25.46-4.74 12.86-14.8 23.5l-57.99 57.65q-8.95 9.67-22.38 10.03-13.42.36-22.84-8.84-9.19-8.72-9.55-21.91-.36-13.2 8.39-22.51l58.06-58.67q-84.35-65.82-178.13-103.62-93.78-37.79-200.63-37.79-105.85 0-200.1 37.79-94.25 37.8-178.1 103.62L480-204.96l38.59-38.58q6.78-6.79 18.34-6.07 11.56.72 22.57 11.57 8.96 9.09 9.08 22.21.12 13.11-8.6 22.55l-37.59 37.35q-8.74 9.21-19.4 13.32-10.66 4.11-22.81 4.11-12.14 0-22.81-4.11-10.68-4.11-19.6-13.42L56.59-547.02q-9.76-9.78-14.85-22.55-5.09-12.78-5.09-25.47 0-14.94 5.79-28.44 5.78-13.51 18.34-23.06Q151.07-718.35 257-758.48q105.93-40.13 223.06-40.13ZM480-468.85Z"/></svg>