<svg xmlns="http://www.w3.org/2000/svg" height="40" viewBox="0 -960 960 960" width="40"><path d="M174.33-.83q-43 7-76.91-19.17Q63.5-46.17 61.5-90.17L4.67-541.83q-6.34-41.84 19.58-74.92 25.92-33.08 69.42-38.92l53.66-6.33v330q0 77.67 53 131T331-147.67h393q0 38-27.25 63.42t-64.08 28.58L174.33-.83ZM312-211q-43.5 0-72.42-29.25-28.91-29.25-28.91-72.75v-460.33q0-42 28.91-72 28.92-30 72.42-30h274.83q-1.33 11.66-2 22.91-.66 11.25-.66 23.09 0 24 4.91 47.33 4.92 23.33 17.42 44.17-15.5-5.67-32.17-10.34-16.66-4.66-31.66-4.66-48.34 0-81.17 34.25T428.67-638q0 47.33 33.33 80.17Q495.33-525 542.67-525q50.33 0 84.66-36.5Q661.67-598 657.5-651q0-2.67-.5-5.67t-.83-7q35 34.67 79.66 53 44.67 18.34 92 18.34 11.84 0 23.5-.84 11.67-.83 24-2.66V-313q0 43.5-30 72.75t-72 29.25H312Zm1-103h459.33v-22.16q-43.66-52.34-104.16-83.42-60.5-31.09-125.5-31.09-66.34 0-126.17 29.84Q356.67-391 313-336.16V-314Zm412.67-412.5L805.5-949h49.83l78 222.5h-46l-18-49h-78l-17.5 49h-48.16Zm76-82.83h56.83l-28.17-90-28.66 90Z"/></svg>