<svg xmlns="http://www.w3.org/2000/svg" height="24" width="24"><path d="M-.225 20.4v-3.175q0-.95.475-1.738.475-.787 1.325-1.212 1.575-.75 3.2-1.15 1.625-.4 3.25-.4 1.675 0 3.287.388 1.613.387 3.138 1.162.85.4 1.338 1.187.487.788.487 1.763V20.4Zm8.25-8.625q-1.825 0-3.087-1.263Q3.675 9.25 3.675 7.425q0-1.825 1.263-3.075Q6.2 3.1 8.025 3.1q1.825 0 3.088 1.25 1.262 1.25 1.262 3.075 0 1.825-1.262 3.087-1.263 1.263-3.088 1.263Zm4.55-.075q.825-.875 1.25-1.988.425-1.112.425-2.287 0-1.175-.45-2.313-.45-1.137-1.25-1.962 1.65.325 2.613 1.562.962 1.238.962 2.713 0 1.55-.975 2.775-.975 1.225-2.575 1.5Zm5.7 8.7v-3.275q0-1.05-.362-1.9-.363-.85-1.088-1.525 1.475.35 2.512 1.212 1.038.863 1.038 2.238v3.25Zm2.05-7.825v-2h-2V8.7h2V6.675H22.2V8.7h2.025v1.875H22.2v2Z"/></svg>