<svg xmlns="http://www.w3.org/2000/svg" height="48" width="48"><path d="M24 22.5Q24.75 22.5 25.2 22.025Q25.65 21.55 25.65 20.8V13.65Q25.65 12.95 25.2 12.475Q24.75 12 24 12Q23.25 12 22.8 12.475Q22.35 12.95 22.35 13.65V20.8Q22.35 21.55 22.8 22.025Q23.25 22.5 24 22.5ZM24 29.15Q24.7 29.15 25.175 28.65Q25.65 28.15 25.65 27.5Q25.65 26.8 25.175 26.325Q24.7 25.85 24 25.85Q23.35 25.85 22.85 26.325Q22.35 26.8 22.35 27.5Q22.35 28.15 22.85 28.65Q23.35 29.15 24 29.15ZM24 43.75Q23.55 43.75 23.125 43.625Q22.7 43.5 22.35 43.2Q14.9 36.55 11.2 30.925Q7.5 25.3 7.5 20.4Q7.5 12.7 12.475 8.1Q17.45 3.5 24 3.5Q30.55 3.5 35.525 8.1Q40.5 12.7 40.5 20.4Q40.5 25.3 36.8 30.925Q33.1 36.55 25.65 43.2Q25.3 43.5 24.9 43.625Q24.5 43.75 24 43.75Z"/></svg>