<svg xmlns="http://www.w3.org/2000/svg" height="24" width="24"><path d="M14.425 18.225Q14.15 17.95 14.15 17.562Q14.15 17.175 14.425 16.9L18.375 12.95H3.025Q2.625 12.95 2.35 12.675Q2.075 12.4 2.075 12Q2.075 11.625 2.35 11.35Q2.625 11.075 3.025 11.075H18.375L14.425 7.1Q14.15 6.85 14.15 6.462Q14.15 6.075 14.425 5.8Q14.7 5.525 15.075 5.525Q15.45 5.525 15.725 5.8L21.275 11.35Q21.425 11.5 21.488 11.662Q21.55 11.825 21.55 12Q21.55 12.2 21.488 12.362Q21.425 12.525 21.275 12.65L15.725 18.225Q15.45 18.475 15.075 18.488Q14.7 18.5 14.425 18.225Z"/></svg>