<svg xmlns="http://www.w3.org/2000/svg" height="24" viewBox="0 -960 960 960" width="24"><path d="M436.65-240.54q-41.52 27-85.79 46.76-44.27 19.76-93.01 19.76-53.86 0-102.13-21.22-48.26-21.22-90.98-54.93-14.2-11.03-14.2-28.67t13.96-28.83q30.52-24.76 65.18-42.88 34.67-18.12 72.95-26.84-59.04-49.68-89.45-118.27-30.4-68.6-38.4-145.08-2.24-19.91 12.2-34.47 14.43-14.55 35.11-12.31 59.32 5.94 113.7 27.23t100.14 57.05v-6.09q.48-79.95 32.1-151.55 31.62-71.6 79.62-135.56 12.29-16.15 32.4-16.15 20.1 0 32.3 16.15 47.76 63.96 79.26 135.56 31.5 71.6 32.46 151.55 0 1.53-.39 3.05-.38 1.52-.38 3.04 46.49-35.7 100.88-56.52 54.39-20.82 113.73-27.76 19.92-2.24 34.85 11.93 14.94 14.18 12.7 34.85-7.24 76.48-38.76 145.08-31.53 68.59-90.33 118.27 38.28 8.72 72.56 26.84 34.29 18.12 65.57 42.88 13.96 10.95 14.08 28.75.12 17.79-14.08 28.75-42.72 33.71-90.63 54.93-47.92 21.22-101.96 21.22-49.52 0-93.9-19.76t-84.9-46.76v125.56q0 18.2-12.4 30.65Q498.32-71.87 480-71.87q-18.42 0-30.89-12.46-12.46-12.46-12.46-30.89v-125.32Zm-57.91-140.48q-11-37.05-28.14-70.95-17.14-33.9-44.19-60.66-27.04-27.28-60.23-44.87-33.19-17.6-69.75-28.65 10.76 37.26 27.86 71.09 17.1 33.82 44.47 61.28 26.04 27.52 59.61 45.02 33.56 17.5 70.37 27.74ZM257.85-260q20.76 0 40.64-5.02t38.88-13.77q-19-7.78-38.83-13.42-19.82-5.64-40.64-5.64-20.81 0-40.69 5.64t-39.64 13.42q19 8.75 39.26 13.77 20.26 5.02 41.02 5.02Zm222.03-159.17q25.16-43.76 41.45-90.26 16.28-46.5 16.28-96.79 0-50.28-16.28-96.66-16.29-46.38-41.33-89.62-25.28 43-41.57 89.38-16.28 46.38-16.28 96.9t16.28 97.29q16.29 46.76 41.45 89.76Zm101.14 38.15q36.81-10.24 70.11-27.74t59.25-45.02q26.9-27.52 44.04-61.43 17.15-33.9 28.15-70.94-36.57 11-69.87 28.62-33.31 17.62-60.11 44.9-27.05 27-44.19 60.78-17.14 33.78-27.38 70.83ZM701.92-260q20.75 0 40.63-5.14 19.88-5.14 39.12-13.66-19.24-7.77-39.06-13.41-19.83-5.64-40.64-5.64-20.82 0-40.7 5.64-19.88 5.64-39.64 13.31 19 8.62 39.26 13.76 20.27 5.14 41.03 5.14ZM378.74-381.02ZM337.37-278.8ZM480-419.17Zm101.02 38.15Zm40.61 102.22Z"/></svg>