<svg xmlns="http://www.w3.org/2000/svg" height="24" viewBox="0 -960 960 960" width="24"><path d="M165.77-306.46v-347.08q0-25.38 18.08-43.46 18.07-18.08 43.46-18.08h505.5q25.38 0 43.46 18.08 18.08 18.08 18.08 43.46v347.08q0 25.38-18.08 43.46-18.08 18.08-43.46 18.08h-505.5q-25.39 0-43.46-18.08-18.08-18.08-18.08-43.46Zm61.81 24.61H363v-396.3H227.58q-9.62 0-17.12 7.69-7.5 7.69-7.5 16.92v347.08q0 9.23 7.5 16.92 7.5 7.69 17.12 7.69Zm172.34 0h160.43v-396.3H399.92v396.3Zm197.35 0h135.42q9.23 0 16.93-7.69 7.69-7.69 7.69-16.92v-347.08q0-9.23-7.69-16.92-7.7-7.69-16.93-7.69H597.27v396.3Z"/></svg>