<svg xmlns="http://www.w3.org/2000/svg" height="20" viewBox="0 -960 960 960" width="20"><path d="M229.18-200q-11.72 0-20.45-8.59-8.73-8.6-8.73-20.39v-502.73q0-11.79 8.55-20.54 8.54-8.75 20.27-8.75 11.72 0 20.45 8.59 8.73 8.6 8.73 20.39v502.73q0 11.79-8.55 20.54-8.54 8.75-20.27 8.75Zm502 0q-11.72 0-20.45-8.59-8.73-8.6-8.73-20.39v-502.73q0-11.79 8.55-20.54 8.54-8.75 20.27-8.75 11.72 0 20.45 8.59 8.73 8.6 8.73 20.39v502.73q0 11.79-8.55 20.54-8.54 8.75-20.27 8.75Zm-282.8-88.85-79.53-78.53q-12.7-12.33-12.7-28.44 0-16.1 12.7-28.8l79.31-80.19q10.65-10.7 22.28-8.95 11.64 1.76 24.62 14.61 7.48 8.36 7.48 15.14 0 6.78-7.62 15.39L451.31-425h34.92q33.93 0 56.47-22.6 22.53-22.59 22.53-56.61 0-34.02-22.53-56.41Q520.16-583 486.23-583H365.77q-11.8 0-20.4-8.55-8.6-8.54-8.6-20.27 0-11.72 8.6-20.45 8.6-8.73 20.4-8.73h120.46q58.31 0 97.65 39.35 39.35 39.34 39.35 97.65t-39.35 97.65Q544.54-367 486.23-367h-34.92l43.61 43.62q7.62 8.42 6.62 16.55-1 8.14-12.14 17.98-9.32 9.62-20.91 9.23-11.59-.38-20.11-9.23Z"/></svg>