<svg xmlns="http://www.w3.org/2000/svg" height="40" width="40"><path d="M7.667 33.333q-.625 0-1.042-.437-.417-.438-.417-1.063V8.5q0-.625.417-1.062Q7.042 7 7.708 7q.625 0 1.063.438.437.437.437 1.062v23.333q0 .625-.437 1.063-.438.437-1.104.437Zm24.666 0q-.625 0-1.062-.437-.438-.438-.438-1.063V8.5q0-.625.438-1.062Q31.708 7 32.333 7q.667 0 1.105.438.437.437.437 1.062v23.333q0 .625-.458 1.063-.459.437-1.084.437Zm-16.708-4.666L12 25q-.458-.458-.458-1.062 0-.605.458-1.063l3.667-3.667q.416-.416 1.021-.416.604 0 1.02.458.459.417.459 1.021 0 .604-.459 1.021l-1.166 1.166h5.833q1.667 0 2.833-1.146 1.167-1.145 1.167-2.812 0-1.667-1.167-2.833-1.166-1.167-2.833-1.167H12.208q-.625 0-1.041-.417-.417-.416-.417-1.041T11.167 12q.416-.417 1.041-.417h10.167q2.917 0 4.937 2.021 2.021 2.021 2.021 4.896t-2.021 4.896q-2.02 2.021-4.937 2.021h-5.833l1.166 1.166q.459.459.459 1.042t-.459 1q-.416.458-1.02.458-.605 0-1.063-.416Z"/></svg>