<svg xmlns="http://www.w3.org/2000/svg" height="48" viewBox="0 -960 960 960" width="48"><path d="M479.92-61.28q-144.16 0-240.38-98.41-96.21-98.4-96.21-246.88 0-105.65 83.74-228.9Q310.8-758.72 480-901.39 649.2-758.72 733.05-635.4q83.86 123.31 83.86 228.81 0 148.27-96.42 246.79-96.42 98.52-240.57 98.52Zm-.05-77.31q110.93 0 185.22-76.5 74.28-76.51 74.28-191.83 0-78.12-66.78-178.57-66.77-100.44-192.58-212.92Q354.2-685.93 287.41-585.2q-66.78 100.74-66.78 178.7 0 115.1 74.15 191.51 74.15 76.4 185.09 76.4ZM355.15-254.07h250.7v-69.17h-250.7v69.17Zm90.76-100.76h69.18v-90.76h90.76v-69.17h-90.76v-90.76h-69.18v90.76h-90.76v69.17h90.76v90.76ZM480-481.72Z"/></svg>