<svg xmlns="http://www.w3.org/2000/svg" height="48" width="48"><path d="M37.7 31.8 36.4 30.55V25.35H39.35V31.8ZM34.2 28.3 31.25 25.35H34.2ZM41.6 31.8V25.35H44.55V31.8ZM41.45 45.25 28 31.8H6.15Q4.75 31.8 3.85 30.9Q2.95 30 2.95 28.6Q2.95 27.2 3.85 26.275Q4.75 25.35 6.15 25.35H21.5L4.35 8.2Q3.8 7.65 3.825 6.975Q3.85 6.3 4.4 5.75Q4.95 5.15 5.65 5.175Q6.35 5.2 6.9 5.75L43.9 42.85Q44.5 43.4 44.5 44.05Q44.5 44.7 43.9 45.25Q43.35 45.85 42.65 45.85Q41.95 45.85 41.45 45.25ZM37.9 23.05Q37.3 23.05 36.85 22.625Q36.4 22.2 36.4 21.55V20.35Q36.4 18.3 35.175 17.05Q33.95 15.8 32.25 15.8H28.7Q25.8 15.8 23.9 13.6Q22 11.4 22 8.5Q22 6 23.45 4.2Q24.9 2.4 27.35 1.9Q27.85 1.85 28.275 2.15Q28.7 2.45 28.7 3.15Q28.7 3.7 28.275 4.225Q27.85 4.75 27.2 5Q26.1 5.4 25.5 6.3Q24.9 7.2 24.9 8.5Q24.9 10.25 25.95 11.55Q27 12.85 28.7 12.85H32.25Q35.25 12.85 37.3 14.9Q39.35 16.95 39.35 19.75V21.55Q39.35 22.2 38.925 22.625Q38.5 23.05 37.9 23.05ZM43.05 23.05Q42.45 23.05 42.025 22.625Q41.6 22.2 41.6 21.55V18.15Q41.6 14.8 39.625 12.575Q37.65 10.35 34.55 9.8Q33.85 9.75 33.375 9.25Q32.9 8.75 32.9 8.15Q32.9 7.7 33.35 7.175Q33.8 6.65 34.45 6.35Q35.2 6.05 35.725 5.4Q36.25 4.75 36.5 3.95Q36.7 3.4 37.125 3Q37.55 2.6 38.1 2.6Q38.75 2.6 39.225 3.075Q39.7 3.55 39.55 4.15Q39.35 5.35 38.675 6.25Q38 7.15 37.15 7.75Q39.95 8.35 42.25 11.275Q44.55 14.2 44.55 18.1V21.55Q44.55 22.2 44.125 22.625Q43.7 23.05 43.05 23.05Z"/></svg>