<svg xmlns="http://www.w3.org/2000/svg" height="24" viewBox="0 -960 960 960" width="24"><path d="M241.43-382.04q41.05.47 76.33 24 35.28 23.52 51.81 60.8l14.23 35.2h37.44q33.28 0 56.68 24.4 23.41 24.4 23.41 56.92 0 34.05-23.53 57.69-23.52 23.64-57.8 23.64H240q-59.04 0-100.18-41.02-41.15-41.02-41.15-100.31 0-59.28 41.15-100.3 41.14-41.02 101.61-41.02Zm330.48-109.87q55.76 55.52 134.14 85.16 78.38 29.64 156.67 26.55 14.48-.52 26.57 4.96 12.1 5.48 20.34 16.2 8.24 10.47 11.24 22.69t-1.24 26.94Q885.39-181.65 768.1-102.77 650.8-23.89 523.28-24.13q-17.43 0-35.49-1.74-18.05-1.74-35.49-3.74 53.63-12.8 87.17-55Q573-126.8 573-180.72q0-60-40.74-103.5t-100.5-48.5q-26-55.76-78-88.38T240-453.72q-36.72 0-70.67 12.1-33.96 12.1-63.2 35.05-1-9.23-1.5-18.47-.5-9.24-.5-18.48-.24-132.28 77.26-244.08 77.5-111.79 205.26-150.03 13.96-4.48 27.18-1.62 13.21 2.86 23.93 11.1 10.48 8.24 16.46 20.07 5.98 11.84 5.21 26.56-2.04 79.56 27.2 156.44t85.28 133.17Z"/></svg>