<svg xmlns="http://www.w3.org/2000/svg" version="1.1" width="3300" height="2000"><g id="Notes"><style>
    text {
      font-family: monospace;
      text-anchor: middle;
    }
    text.emphasis {
      font-weight:bold;
    }
    text.lanchor {
      text-anchor: start;
    }
  </style><rect height="2200" id="artboard" fill="white" width="3300" x="0" y="0"/><line id="" style="fill:none;stroke:black;stroke-width:0.5;" x1="263" x2="3036" y1="292" y2="292"/><text class="lanchor emphasis" transform="matrix(1 0 0 1 263 322)">Weight/Scale Variations</text><text transform="matrix(1 0 0 1 559.711 322)">Ultralight</text><text transform="matrix(1 0 0 1 856.422 322)">Thin</text><text transform="matrix(1 0 0 1 1153.13 322)">Light</text><text transform="matrix(1 0 0 1 1449.84 322)">Regular</text><text transform="matrix(1 0 0 1 1746.56 322)">Medium</text><text transform="matrix(1 0 0 1 2043.27 322)">Semibold</text><text transform="matrix(1 0 0 1 2339.98 322)">Bold</text><text transform="matrix(1 0 0 1 2636.69 322)">Heavy</text><text transform="matrix(1 0 0 1 2933.4 322)">Black</text><text id="template-version" style="text-anchor: end;" transform="matrix(1 0 0 1 3036 1933)">Template v.1.0</text><text class="lanchor" transform="matrix(1 0 0 1 263 726)">Small</text><text class="lanchor" transform="matrix(1 0 0 1 263 1156)">Medium</text><text class="lanchor" transform="matrix(1 0 0 1 263 1586)">Large</text></g><g id="Guides"><g id="H-reference" style="fill:#27AAE1;stroke:none;" transform="matrix(1 0 0 1 339 696)"><path d="M 54.9316 0 L 57.666 0 L 30.5664 -70.459 L 28.0762 -70.459 L 0.976562 0 L 3.66211 0 L 12.9395 -24.4629 L 45.7031 -24.4629 Z M 29.1992 -67.0898 L 29.4434 -67.0898 L 44.8242 -26.709 L 13.8184 -26.709 Z"/></g><line id="Baseline-S" style="fill:none;stroke:#27AAE1;opacity:1;stroke-width:0.577;" x1="263" x2="3036" y1="696" y2="696"/><line id="Capline-S" style="fill:none;stroke:#27AAE1;opacity:1;stroke-width:0.577;" x1="263" x2="3036" y1="625.541" y2="625.541"/><g id="H-reference" style="fill:#27AAE1;stroke:none;" transform="matrix(1 0 0 1 339 1126)"><path d="M 54.9316 0 L 57.666 0 L 30.5664 -70.459 L 28.0762 -70.459 L 0.976562 0 L 3.66211 0 L 12.9395 -24.4629 L 45.7031 -24.4629 Z M 29.1992 -67.0898 L 29.4434 -67.0898 L 44.8242 -26.709 L 13.8184 -26.709 Z"/></g><line id="Baseline-M" style="fill:none;stroke:#27AAE1;opacity:1;stroke-width:0.577;" x1="263" x2="3036" y1="1126" y2="1126"/><line id="Capline-M" style="fill:none;stroke:#27AAE1;opacity:1;stroke-width:0.577;" x1="263" x2="3036" y1="1055.54" y2="1055.54"/><g id="H-reference" style="fill:#27AAE1;stroke:none;" transform="matrix(1 0 0 1 339 1556)"><path d="M 54.9316 0 L 57.666 0 L 30.5664 -70.459 L 28.0762 -70.459 L 0.976562 0 L 3.66211 0 L 12.9395 -24.4629 L 45.7031 -24.4629 Z M 29.1992 -67.0898 L 29.4434 -67.0898 L 44.8242 -26.709 L 13.8184 -26.709 Z"/></g><line id="Baseline-L" style="fill:none;stroke:#27AAE1;opacity:1;stroke-width:0.577;" x1="263" x2="3036" y1="1556" y2="1556"/><line id="Capline-L" style="fill:none;stroke:#27AAE1;opacity:1;stroke-width:0.577;" x1="263" x2="3036" y1="1485.54" y2="1485.54"/><rect height="119.336" id="left-margin" style="fill:darkred;stroke:none;opacity:0.4;" width="12.4512" x="1394.06" y="1030.79"/><rect height="119.336" id="right-margin" style="fill:darkgreen;stroke:none;opacity:0.4;" width="12.4512" x="1502.5112" y="1030.79"/><rect x="1406.5112" y="1045" width="96" height="96" fill="none" stroke="blue" stroke-dasharray="5"/><rect x="1394.06" y="1030.79" width="120.9024" height="119.336" fill="none" stroke="blue"/></g><g id="Symbols"><g id="Bold-L" transform="matrix(1 0 0 1 2266 1556)"><path d="M137.86875 39.26750000000001  92.39625 -6.3662499999999795 H3.7087499999999998 Q3.7087499999999998 -24.426249999999982 17.415000000000003 -34.42375 Q31.121250000000003 -44.42125 55.14750000000001 -43.614999999999995 L4.515 -94.2475 L12.5775 -102.14874999999999 L145.77 31.366250000000008 L137.86875 39.26750000000001 Z M12.9 38.6225 Q8.86875 38.6225 6.28875 36.04250000000002 Q3.7087499999999998 33.462500000000006 3.7087499999999998 29.431250000000006 V24.27125000000001 H100.45875 V29.431250000000006 Q100.45875 33.462500000000006 97.87875000000001 36.04250000000002 Q95.29875 38.6225 91.42875000000001 38.6225 H12.9 Z M3.7087499999999998 16.047500000000014 V1.8575000000000017 H100.45875 V16.047500000000014 H3.7087499999999998 Z M129.645 1.8575000000000017  72.24 -55.224999999999994  69.49875 -80.0575 H102.39375 V-108.92125 H115.29375 V-80.0575 H151.09125 L129.645 1.8575000000000017 Z"/></g><g id="Semibold-L" transform="matrix(1 0 0 1 1970.27 1556)"><path d="M136.25625 37.33250000000001  92.5575 -6.3662499999999795 H5.32125 Q5.32125 -24.10374999999999 18.705 -33.94 Q32.08875 -43.77624999999999 55.63125 -43.45375 L4.8375 -94.2475 L12.254999999999999 -101.66499999999999 L143.67374999999998 29.91500000000002 L136.25625 37.33250000000001 Z M13.70625 37.00999999999999 Q10.15875 37.00999999999999 7.74 34.59125 Q5.32125 32.172500000000014 5.32125 28.625 V24.27125000000001 H102.07124999999999 V28.625 Q102.07124999999999 32.172500000000014 99.6525 34.59125 Q97.23375 37.00999999999999 93.84750000000001 37.00999999999999 H13.70625 Z M5.32125 15.241250000000008 V2.6637500000000074 H102.07124999999999 V15.241250000000008 H5.32125 Z M133.35375000000002 6.372500000000002  73.36875 -53.45124999999999  70.6275 -78.445 H103.36125 V-107.30874999999999 H114.81 V-78.445 H149.47875000000002 L133.35375000000002 6.372500000000002 Z"/></g><g id="Medium-L" transform="matrix(1 0 0 1 1674.31 1556)"><path d="M135.1275 35.881249999999994  92.88000000000001 -6.3662499999999795 H6.45 Q6.45 -23.781249999999986 19.591875 -33.61749999999999 Q32.73375 -43.45375 55.95375000000001 -43.29249999999999 L4.99875 -94.2475 L11.932500000000001 -101.18124999999999 L141.9 28.94749999999999 L135.1275 35.881249999999994 Z M14.35125 35.881249999999994 Q11.12625 35.881249999999994 8.788125 33.54312500000003 Q6.45 31.205000000000013 6.45 28.141250000000014 V24.27125000000001 H103.2 V28.141250000000014 Q103.2 31.205000000000013 100.94250000000001 33.54312500000003 Q98.685 35.881249999999994 95.62125 35.881249999999994 H14.35125 Z M6.45 14.757500000000007 V3.147500000000008 H103.2 V14.757500000000007 H6.45 Z M136.095 9.75875000000002  74.175 -51.99999999999999  71.43375 -77.31625 H104.16749999999999 V-106.17999999999999 H114.32625000000002 V-77.31625 H148.35 L136.095 9.75875000000002 Z"/></g><g id="Regular-L" transform="matrix(1 0 0 1 1378.56 1556)"><path d="M134.16 34.752500000000026  93.04125 -6.3662499999999795 H7.4174999999999995 Q7.4174999999999995 -23.781249999999986 20.398125 -33.536874999999995 Q33.37875 -43.29249999999999 56.27625 -43.131249999999994 L5.16 -94.2475 L11.932500000000001 -100.85875 L140.77125 28.141250000000014 L134.16 34.752500000000026 Z M14.67375 34.91375000000002 Q11.77125 34.91375000000002 9.594375000000001 32.736875000000026 Q7.4174999999999995 30.560000000000002 7.4174999999999995 27.6575 V24.27125000000001 H104.16749999999999 V27.6575 Q104.16749999999999 30.560000000000002 101.99062500000001 32.736875000000026 Q99.81375 34.91375000000002 96.91125000000001 34.91375000000002 H14.67375 Z M7.4174999999999995 14.273750000000007 V3.6312499999999943 H104.16749999999999 V14.273750000000007 H7.4174999999999995 Z M138.19125 12.177500000000023  74.98125 -51.03249999999999  72.07875000000001 -76.34875 H104.8125 V-105.21249999999999 H114.00375000000001 V-76.34875 H147.38250000000002 L138.19125 12.177500000000023 Z"/></g><g id="Light-L" transform="matrix(1 0 0 1 1082.77 1556)"><path d="M132.38625 33.140000000000015  91.42875000000001 -7.65625 H11.77125 Q11.77125 -22.974999999999994 24.8325 -31.521249999999995 Q37.893750000000004 -40.067499999999995 59.017500000000005 -39.583749999999995 H59.50125 L5.4825 -93.76374999999999 L10.6425 -98.76249999999999 L137.38500000000002 28.141250000000014 L132.38625 33.140000000000015 Z M18.3825 32.01125000000002 Q15.48 32.01125000000002 13.625625 30.156875000000014 Q11.77125 28.30250000000001 11.77125 25.722499999999997 V23.948750000000018 H102.8775 V25.722499999999997 Q102.8775 28.30250000000001 100.94250000000001 30.156875000000014 Q99.00750000000001 32.01125000000002 96.26625000000001 32.01125000000002 H18.3825 Z M11.77125 12.177500000000023 V4.115000000000023 H102.8775 V12.177500000000023 H11.77125 Z M134.48250000000002 10.403750000000002  75.78750000000001 -48.129999999999995  72.885 -73.12375 H104.16749999999999 V-101.18124999999999 H111.2625 V-73.12375 H143.02875 L134.48250000000002 10.403750000000002 Z"/></g><g id="Thin-L" transform="matrix(1 0 0 1 787.282 1556)"><path d="M130.6125 31.527500000000032  89.97749999999999 -9.107499999999987 H15.963750000000001 Q15.963750000000001 -22.33 29.186250000000005 -29.586249999999993 Q42.408750000000005 -36.84249999999999 61.75875 -36.036249999999995 H62.8875 L5.805000000000001 -93.28 L9.3525 -96.82749999999999 L133.99875 27.980000000000018 L130.6125 31.527500000000032 Z M21.93 29.108750000000015 Q19.188750000000002 29.108750000000015 17.57625 27.576875 Q15.963750000000001 26.045000000000016 15.963750000000001 23.62625 H101.5875 Q101.5875 26.045000000000016 99.97500000000001 27.576875 Q98.3625 29.108750000000015 95.7825 29.108750000000015 H21.93 Z M15.963750000000001 9.920000000000002 V4.4375 H101.5875 V9.920000000000002 H15.963750000000001 Z M130.6125 8.63000000000001  76.75500000000001 -45.38874999999999  73.53 -69.73749999999998 H103.52250000000001 V-96.98875 H108.36000000000001 V-69.73749999999998 H138.83625 L130.6125 8.63000000000001 Z"/></g><g id="Ultralight-L" transform="matrix(1 0 0 1 491.205 1556)"><path d="M129.645 30.398750000000007  89.01 -9.913749999999993 H18.54375 Q18.54375 -21.846249999999998 31.846875 -28.457499999999982 Q45.15 -35.068749999999994 63.371249999999996 -33.94 H64.98375 L5.9662500000000005 -92.9575 L8.707500000000001 -95.69874999999999 L132.06375 27.980000000000018 L129.645 30.398750000000007 Z M24.02625 27.335000000000008 Q21.446250000000003 27.335000000000008 19.995 25.964375000000018 Q18.54375 24.59375 18.54375 22.497500000000002 V23.465000000000003 H100.78125 V22.497500000000002 Q100.78125 24.59375 99.33 25.964375000000018 Q97.87875000000001 27.335000000000008 95.46000000000001 27.335000000000008 H24.02625 Z M18.54375 8.63000000000001 V4.760000000000005 H100.78125 V8.63000000000001 H18.54375 Z M128.51625 7.501250000000013  77.4 -43.614999999999995  74.01375 -67.8025 H103.2 V-94.57 H106.7475 V-67.8025 H136.25625 L128.51625 7.501250000000013 Z"/></g><g id="Bold-M" transform="matrix(1 0 0 1 2281.8 1126)"><path d="M106.0 24.64500000000001  61.875 -19.47999999999999 H2.625 Q2.625 -30.85499999999999 11.125 -38.47999999999999 Q19.625 -46.10499999999999 33.75 -47.60499999999999 L4.25 -77.10499999999999 L12.25 -85.10499999999999 L113.875 16.77000000000001 L106.0 24.64500000000001 Z M9.625 22.39500000000001 Q6.5 22.39500000000001 4.565 20.455000000000013 Q2.625 18.52000000000001 2.625 15.39500000000001 V9.02000000000001 H75.625 V15.39500000000001 Q75.625 18.52000000000001 73.75 20.455000000000013 Q71.875 22.39500000000001 68.75 22.39500000000001 H9.625 Z M2.625 1.3950000000000102 V-11.85499999999999 H75.625 V1.3950000000000102 H2.625 Z M98.0 -12.60499999999999  54.5 -55.47999999999999  52.625 -72.85499999999999 H77.125 V-92.60499999999999 H90.375 V-72.85499999999999 H117.375 L98.0 -12.60499999999999 Z"/></g><g id="Semibold-M" transform="matrix(1 0 0 1 1985.97 1126)"><path d="M104.25 22.64500000000001  62.125 -19.47999999999999 H4.25 Q4.25 -30.60499999999999 12.375 -38.10499999999999 Q20.5 -45.60499999999999 34.25 -47.35499999999999 L4.5 -77.10499999999999 L11.875 -84.47999999999999 L111.625 15.27000000000001 L104.25 22.64500000000001 Z M10.5 20.77000000000001 Q7.75 20.77000000000001 6.0 19.02000000000001 Q4.25 17.27000000000001 4.25 14.52000000000001 V9.02000000000001 H77.25 V14.52000000000001 Q77.25 17.27000000000001 75.625 19.02000000000001 Q74.0 20.77000000000001 71.25 20.77000000000001 H10.5 Z M4.25 0.5200000000000102 V-10.97999999999999 H77.25 V0.5200000000000102 H4.25 Z M101.75 -7.97999999999999  55.75 -53.60499999999999  53.75 -71.22999999999999 H78.25 V-90.97999999999999 H89.75 V-71.22999999999999 H115.75 L101.75 -7.97999999999999 Z"/></g><g id="Medium-M" transform="matrix(1 0 0 1 1689.91 1126)"><path d="M103.0 21.14500000000001  62.375 -19.47999999999999 H5.625 Q5.625 -30.35499999999999 13.440000000000001 -37.78999999999999 Q21.25 -45.22999999999999 34.625 -47.22999999999999 L4.75 -77.10499999999999 L11.75 -84.10499999999999 L110.0 14.14500000000001 L103.0 21.14500000000001 Z M11.0 19.39500000000001 Q8.625 19.39500000000001 7.125 17.89500000000001 Q5.625 16.39500000000001 5.625 14.02000000000001 V9.02000000000001 H78.625 V14.02000000000001 Q78.625 16.39500000000001 77.065 17.89500000000001 Q75.5 19.39500000000001 73.125 19.39500000000001 H11.0 Z M5.625 0.020000000000010232 V-10.47999999999999 H78.625 V0.020000000000010232 H5.625 Z M104.75 -4.47999999999999  56.625 -52.22999999999999  54.625 -69.85499999999999 H79.0 V-89.60499999999999 H89.375 V-69.85499999999999 H114.375 L104.75 -4.47999999999999 Z"/></g><g id="Regular-M" transform="matrix(1 0 0 1 1394.06 1126)"><path d="M102.125 20.02000000000001  62.5 -19.47999999999999 H6.5 Q6.5 -30.22999999999999 14.185 -37.66999999999999 Q21.875 -45.10499999999999 34.875 -47.10499999999999 L4.875 -77.10499999999999 L11.625 -83.85499999999999 L108.75 13.39500000000001 L102.125 20.02000000000001 Z M11.5 18.52000000000001 Q9.375 18.52000000000001 7.935 17.080000000000013 Q6.5 15.64500000000001 6.5 13.52000000000001 V9.02000000000001 H79.5 V13.52000000000001 Q79.5 15.64500000000001 78.065 17.080000000000013 Q76.625 18.52000000000001 74.5 18.52000000000001 H11.5 Z M6.5 -0.47999999999998977 V-9.97999999999999 H79.5 V-0.47999999999998977 H6.5 Z M106.875 -1.9799999999999898  57.375 -51.22999999999999  55.25 -68.97999999999999 H79.625 V-88.72999999999999 H89.0 V-68.97999999999999 H113.5 L106.875 -1.9799999999999898 Z"/></g><g id="Light-M" transform="matrix(1 0 0 1 1098.18 1126)"><path d="M101.125 18.39500000000001  64.125 -18.60499999999999 H9.875 Q9.875 -28.47999999999999 18.25 -34.919999999999995 Q26.625 -41.35499999999999 39.75 -42.47999999999999 H40.25 L5.125 -77.72999999999999 L10.125 -82.72999999999999 L106.125 13.39500000000001 L101.125 18.39500000000001 Z M14.5 16.27000000000001 Q12.375 16.27000000000001 11.125 15.02000000000001 Q9.875 13.77000000000001 9.875 11.89500000000001 V9.14500000000001 H78.75 V11.89500000000001 Q78.75 13.77000000000001 77.5 15.02000000000001 Q76.25 16.27000000000001 74.125 16.27000000000001 H14.5 Z M9.875 -1.2299999999999898 V-8.35499999999999 H78.75 V-1.2299999999999898 H9.875 Z M103.75 -2.4799999999999898  58.375 -47.85499999999999  56.0 -65.72999999999999 H79.5 V-85.60499999999999 H86.5 V-65.72999999999999 H110.125 L103.75 -2.4799999999999898 Z"/></g><g id="Thin-M" transform="matrix(1 0 0 1 802.565 1126)"><path d="M100.25 16.64500000000001  65.75 -17.85499999999999 H13.125 Q13.125 -26.85499999999999 22.315 -32.29499999999999 Q31.5 -37.72999999999999 44.625 -37.97999999999999 H45.625 L5.25 -78.35499999999999 L8.625 -81.60499999999999 L103.5 13.39500000000001 L100.25 16.64500000000001 Z M17.375 14.02000000000001 Q15.375 14.02000000000001 14.25 12.89500000000001 Q13.125 11.77000000000001 13.125 10.14500000000001 V9.27000000000001 H78.0 V10.14500000000001 Q78.0 11.77000000000001 76.875 12.89500000000001 Q75.75 14.02000000000001 73.75 14.02000000000001 H17.375 Z M13.125 -1.9799999999999898 V-6.60499999999999 H78.0 V-1.9799999999999898 H13.125 Z M100.75 -2.9799999999999898  59.25 -44.47999999999999  56.75 -62.47999999999999 H79.5 V-82.35499999999999 H84.125 V-62.47999999999999 H106.875 L100.75 -2.9799999999999898 Z"/></g><g id="Ultralight-M" transform="matrix(1 0 0 1 506.415 1126)"><path d="M99.75 15.64500000000001  66.75 -17.35499999999999 H15.125 Q15.125 -25.85499999999999 24.815 -30.72999999999999 Q34.5 -35.60499999999999 47.625 -35.22999999999999 H48.875 L5.375 -78.72999999999999 L7.75 -80.97999999999999 L102.0 13.39500000000001 L99.75 15.64500000000001 Z M19.125 12.64500000000001 Q17.25 12.64500000000001 16.19 11.64500000000001 Q15.125 10.64500000000001 15.125 9.14500000000001 V9.39500000000001 H77.625 V9.14500000000001 Q77.625 10.64500000000001 76.56 11.64500000000001 Q75.5 12.64500000000001 73.625 12.64500000000001 H19.125 Z M15.125 -2.3549999999999898 V-5.60499999999999 H77.625 V-2.3549999999999898 H15.125 Z M99.0 -3.2299999999999898  59.875 -42.47999999999999  57.25 -60.60499999999999 H79.5 V-80.47999999999999 H82.625 V-60.60499999999999 H104.875 L99.0 -3.2299999999999898 Z"/></g><g id="Bold-S" transform="matrix(1 0 0 1 2294.23 696)"><path d="M83.237922 12.010586000000004  48.031164000000004 -23.196171999999997 H2.073492 Q2.073492 -32.271249999999995 8.431254 -38.33550399999999 Q14.79375 -44.404492 25.544664 -45.78208599999999 L3.3516719999999998 -67.975078 L9.860922 -74.48432799999999 L89.652492 5.600750000000005 L83.237922 12.010586000000004 Z M7.394508 10.235336000000004 Q5.027508 10.235336000000004 3.5505 8.75832800000002 Q2.073492 7.276586000000009 2.073492 4.9095860000000044 V-0.41616399999999487 H58.090914000000005 V4.9095860000000044 Q58.090914000000005 7.276586000000009 56.661246 8.75832800000002 Q55.231578 10.235336000000004 52.864578 10.235336000000004 H7.394508 Z M2.073492 -6.532491999999991 V-17.084577999999993 H58.090914000000005 V-6.532491999999991 H2.073492 Z M76.037508 -19.053921999999993  39.547836 -55.15067199999999  38.563164 -66.59275 H59.075585999999994 V-80.49650799999999 H69.925914 V-66.59275 H92.606508 L76.037508 -19.053921999999993 Z"/></g><g id="Semibold-S" transform="matrix(1 0 0 1 1998.1 696)"><path d="M81.86032800000001 10.43416400000001  48.229992 -23.196171999999997 H3.3516719999999998 Q3.3516719999999998 -32.072421999999996 9.42066 -38.04199599999999 Q15.484914 -44.00683599999999 25.937586 -45.58799199999999 L3.5505 -67.975078 L9.567414 -73.991992 L87.87250800000001 4.41725000000001 L81.86032800000001 10.43416400000001 Z M8.085672 8.952421999999999 Q6.016914 8.952421999999999 4.68666 7.622168000000002 Q3.3516719999999998 6.291914000000006 3.3516719999999998 4.218422000000004 V-0.41616399999999487 H59.373827999999996 V4.218422000000004 Q59.373827999999996 6.291914000000006 58.138254 7.622168000000002 Q56.907414 8.952421999999999 54.833922 8.952421999999999 H8.085672 Z M3.3516719999999998 -7.218921999999992 V-16.393413999999993 H59.373827999999996 V-7.218921999999992 H3.3516719999999998 Z M79.000992 -15.40400799999999  40.532508 -53.67366399999999  39.448422 -65.30983599999999 H59.965578 V-79.218328 H69.433578 V-65.30983599999999 H91.32832800000001 L79.000992 -15.40400799999999 Z"/></g><g id="Medium-S" transform="matrix(1 0 0 1 1701.85 696)"><path d="M80.870922 9.250664000000015  48.424085999999996 -23.196171999999997 H4.440492 Q4.440492 -31.87832799999999 10.258578 -37.79582799999999 Q16.076664 -43.71332799999999 26.235827999999998 -45.48857799999999 L3.749328 -67.975078 L9.468 -73.69375 L86.594328 3.5319920000000025 L80.870922 9.250664000000015 Z M8.483328 7.868335999999999 Q6.708078 7.868335999999999 5.571918 6.736909999999995 Q4.440492 5.600750000000005 4.440492 3.8255000000000052 V-0.41616399999999487 H60.457914 V3.8255000000000052 Q60.457914 5.600750000000005 59.274414 6.736909999999995 Q58.090914000000005 7.868335999999999 56.315664000000005 7.868335999999999 H8.483328 Z M4.440492 -7.61657799999999 V-16.000491999999994 H60.457914 V-7.61657799999999 H4.440492 Z M81.367992 -12.644085999999987  41.223672 -52.58957799999999  40.139585999999994 -64.22574999999999 H60.557328 V-78.12950799999999 H69.135336 V-64.22574999999999 H90.239508 L81.367992 -12.644085999999987 Z"/></g><g id="Regular-S" transform="matrix(1 0 0 1 1405.73 696)"><path d="M80.18449199999999 8.360671999999994  48.5235 -23.196171999999997 H5.1269219999999995 Q5.1269219999999995 -31.778914 10.850328 -37.696414 Q16.569 -43.613913999999994 26.429922 -45.389163999999994 L3.844008 -67.975078 L9.368586 -73.49492199999999 L85.60492199999999 2.935508000000013 L80.18449199999999 8.360671999999994 Z M8.87625 7.177171999999999 Q7.299828 7.177171999999999 6.2110080000000005 6.093086 Q5.1269219999999995 5.009 5.1269219999999995 3.432578000000021 V-0.41616399999999487 H61.149077999999996 V3.432578000000021 Q61.149077999999996 5.009 60.064992000000004 6.093086 Q58.976172 7.177171999999999 57.39975 7.177171999999999 H8.87625 Z M5.1269219999999995 -8.009499999999989 V-15.602835999999996 H61.149077999999996 V-8.009499999999989 H5.1269219999999995 Z M83.043828 -10.670007999999996  41.815422 -51.79899999999999  40.631922 -63.53458599999999 H61.04966400000001 V-77.443078 H68.84182799999999 V-63.53458599999999 H89.55307800000001 L83.043828 -10.670007999999996 Z"/></g><g id="Light-S" transform="matrix(1 0 0 1 1109.75 696)"><path d="M79.39391400000001 7.082492000000002  49.806414000000004 -22.50500799999999 H7.792164 Q7.792164 -30.396585999999992 14.055245999999999 -35.52350799999999 Q20.318327999999998 -40.655164 30.278664 -41.73924999999999 H30.671586 L4.042836 -68.46741399999999 L8.185086 -72.609664 L83.536164 2.935508000000013 L79.39391400000001 7.082492000000002 Z M11.24325 5.401921999999999 Q9.666827999999999 5.401921999999999 8.729496000000001 4.464590000000015 Q7.792164 3.5319920000000025 7.792164 2.1496640000000156 V-0.316749999999999 H60.557328 V2.1496640000000156 Q60.557328 3.5319920000000025 59.619996 4.464590000000015 Q58.682664 5.401921999999999 57.101507999999995 5.401921999999999 H11.24325 Z M7.792164 -8.601249999999993 V-14.319921999999991 H60.557328 V-8.601249999999993 H7.792164 Z M80.577414 -11.067663999999994  42.606 -49.13849199999999  41.223672 -60.97349199999999 H60.95025 V-74.976664 H66.86775 V-60.97349199999999 H86.887836 L80.577414 -11.067663999999994 Z"/></g><g id="Thin-S" transform="matrix(1 0 0 1 814.015 696)"><path d="M78.70275 5.700164000000015  51.089328 -21.917991999999998 H10.357992000000001 Q10.357992000000001 -29.113671999999994 17.260164 -33.45474999999999 Q24.162336 -37.79582799999999 34.122672 -38.18874999999999 H34.91325 L4.14225 -68.95974999999999 L7.0015860000000005 -71.71967199999999 L81.462672 2.935508000000013 L78.70275 5.700164000000015 Z M13.510836000000001 3.6266719999999992 Q12.033828 3.6266719999999992 11.195910000000001 2.7887539999999973 Q10.357992000000001 1.9508360000000096 10.357992000000001 0.7673360000000002 V-0.21733599999998887 H59.965578 V0.7673360000000002 Q59.965578 1.9508360000000096 59.12766 2.7887539999999973 Q58.285008 3.6266719999999992 56.808 3.6266719999999992 H13.510836000000001 Z M10.357992000000001 -9.192999999999998 V-12.94232799999999 H59.965578 V-9.192999999999998 H10.357992000000001 Z M78.210414 -11.460585999999992  43.297164 -46.47324999999999  41.815422 -58.407664 H60.95025 V-72.41083599999999 H64.99308599999999 V-58.407664 H84.32200800000001 L78.210414 -11.460585999999992 Z"/></g><g id="Ultralight-S" transform="matrix(1 0 0 1 517.792 696)"><path d="M78.30982800000001 4.9095860000000044  51.875172 -21.520335999999986 H11.934414 Q11.934414 -28.32782799999999 19.229508000000003 -32.22391 Q26.529336 -36.119991999999996 36.489672 -36.02057799999999 H37.479078 L4.241664 -69.257992 L6.310422 -71.227336 L80.27917199999999 2.935508000000013 L78.30982800000001 4.9095860000000044 Z M14.893163999999999 2.542586 Q13.510836000000001 2.542586 12.724992 1.8040820000000082 Q11.934414 1.0655780000000163 11.934414 -0.018507999999997082 V-0.11792199999999298 H59.667336 V-0.018507999999997082 Q59.667336 1.0655780000000163 58.881492 1.8040820000000082 Q58.090914000000005 2.542586 56.708586 2.542586 H14.893163999999999 Z M11.934414 -9.486507999999986 V-12.151749999999993 H59.667336 V-9.486507999999986 H11.934414 Z M76.828086 -11.659413999999998  43.7895 -44.89682799999999  42.213077999999996 -56.92592199999999 H60.95025 V-70.93382799999999 H63.809585999999996 V-56.92592199999999 H82.745586 L76.828086 -11.659413999999998 Z"/></g></g></svg>