<svg xmlns="http://www.w3.org/2000/svg" height="24" viewBox="0 -960 960 960" width="24"><path d="M397.5-685h275q15.5 0 26.5 11t11 26.5q0 15.5-11 26.5t-26.5 11h-275q-15.5 0-26.5-11t-11-26.5q0-15.5 11-26.5t26.5-11Zm0 120h275q15.5 0 26.5 11t11 26.5q0 15.5-11 26.5t-26.5 11h-275q-15.5 0-26.5-11t-11-26.5q0-15.5 11-26.5t26.5-11ZM480-165H205h275ZM245-90q-47.5 0-81.25-33.25T130-204v-83.5q0-15.5 11-26.5t26.42-11H240v-470q0-30.94 22.03-52.97Q284.06-870 315-870h440q30.94 0 52.97 22.03Q830-825.94 830-795v230q0 15.5-11 26.5t-26.5 11q-15.5 0-26.5-11T755-565v-230H315v470h127.5q15.5 0 26.5 11t11 26.5q0 15.5-11 26.5t-26.5 11H205v46q0 16.57 11.5 27.79Q228-165 245-165h197.5q15.5 0 26.5 11t11 26.5q0 15.5-11 26.5t-26.5 11H245Zm310-37.5v-66q0-7.45 2.75-14.43 2.75-6.98 8.25-12.57l209-208q8.5-8.5 19.09-12.5t21.18-4q11.55 0 22.14 4.25T856.5-428l37 37.5q7.76 8.42 12.13 18.71Q910-361.5 910-350.5t-3.88 21.78q-3.88 10.78-12.62 19.22L685.5-101q-5.59 5.5-12.57 8.25T658.5-90h-66Q577-90 566-101t-11-26.5Zm297.5-223-37-37 37 37Zm-240 203h38l123-124-18-19-19-18-124 123v38Zm143-143-19-18 37 37-18-19Z"/></svg>