<svg xmlns="http://www.w3.org/2000/svg" height="40" viewBox="0 -960 960 960" width="40"><path d="M479.277-342q31.485 0 53.438-21.563 21.952-21.562 21.952-53.048 0-31.485-21.896-53.104-21.896-21.618-53.048-21.618t-52.771 21.925q-21.619 21.926-21.619 52.715 0 30.789 21.721 52.741Q448.775-342 479.277-342ZM159.999-98.667q-42.324 0-71.828-29.504-29.504-29.504-29.504-71.828v-433.335q0-42.6 29.504-72.299 29.504-29.7 71.828-29.7h138.334v-90.03q0-41.637 29.504-71.47t71.829-29.833h160.668q42.325 0 71.829 29.854 29.504 29.854 29.504 71.478v90.001h138.334q42.599 0 72.299 29.7 29.7 29.699 29.7 72.299v433.335q0 42.324-29.7 71.828-29.7 29.504-72.299 29.504H159.999Zm0-101.332h640.002v-433.335H159.999v433.335Zm239.667-535.334h160.668v-90.001H399.666v90.001ZM159.999-199.999v-433.335 433.335Z"/></svg>