<svg xmlns="http://www.w3.org/2000/svg" height="40" width="40"><path d="M10.708 31.667q-3.083 0-5.229-2.146t-2.146-5.229q0-2.959 2.063-5.125Q7.458 17 10.25 16.917q.5-3.709 3.271-6.146 2.771-2.438 6.521-2.438 4.083 0 6.937 2.917t2.854 7.042v2h1.042q2.417-.042 4.104 1.583 1.688 1.625 1.688 4.083 0 2.375-1.667 4.042-1.667 1.667-4.042 1.667Zm6.5-4.959q.25 0 .459-.083.208-.083.416-.292l6.959-7q.208-.166.229-.437.021-.271-.229-.479-.209-.25-.48-.25-.27 0-.479.25L17.25 25.25l-3.292-3.292q-.208-.166-.479-.187-.271-.021-.479.187-.25.209-.25.48 0 .27.25.479l3.375 3.416q.208.209.417.292.208.083.416.083Zm-6.5 3.542h20.25Q32.75 30.25 34 29q1.25-1.25 1.25-3.042 0-1.75-1.25-3t-3.042-1.25h-2.541v-3.416q0-3.542-2.459-6.042-2.458-2.5-6-2.5-3.5 0-5.979 2.5T11.5 18.292h-.875q-2.375 0-4.125 1.75t-1.75 4.25q0 2.5 1.75 4.229t4.208 1.729ZM20 20Z"/></svg>