<svg xmlns="http://www.w3.org/2000/svg" height="24" viewBox="0 -960 960 960" width="24"><path d="M363.39-728.96h86.72v-86.47h-86.72v86.47Zm173.2 0v-86.47h86.48v86.47h-86.48ZM363.39-382.8v-86.48h86.72v86.48h-86.72Zm346.39-172.96v-86.72h86.48v86.72h-86.48Zm0 172.96v-86.48h86.48v86.48h-86.48Zm-173.19 0v-86.48h86.48v86.48h-86.48Zm173.19-346.16v-86.47h86.48v86.47h-86.48Zm-259.67 86.48v-86.48h86.48v86.48h-86.48Zm-229.66 503.5q-23.56 0-40.13-16.45-16.58-16.46-16.58-40.14v-563.28q0-23.67 16.62-40.13 16.63-16.45 39.97-16.45 23.67 0 40.13 16.45 16.45 16.46 16.45 40.13v29.89h86.48v86.56h-86.48v86.56h86.48v86.56h-86.48v273.71q0 23.68-16.45 40.14-16.46 16.45-40.01 16.45Zm402.62-330.3v-86.48h86.71v86.48h-86.71Zm-172.96 0v-86.48h86.48v86.48h-86.48Zm-86.72-86.48v-86.72h86.72v86.72h-86.72Zm173.2 0v-86.72h86.48v86.72h-86.48Zm86.48-86.72v-86.48h86.71v86.48h-86.71Z"/></svg>