<svg xmlns="http://www.w3.org/2000/svg" height="24" viewBox="0 -960 960 960" width="24"><path d="M153.74-114.5v-131h129.5l-97.7-319.65q-31.3-14.76-51.55-46.15-20.25-31.4-20.25-68.7 0-53.11 37.03-90.26 37.03-37.15 90.14-37.15 42.11 0 74.64 24.41 32.54 24.41 45.49 63h116.29v-83.59h62.34l13.24 14.81 88.29-83.52 213.97 100.15-27.82 59.41-171.48-78.96-91.13 85.13v52.66l91.13 83.61 173-78.24 28.06 57.97-215.5 102.87-88.52-83.52-15.52 14.81h-60.06V-640H361.04q-3.47 9.43-8.29 19.3-4.82 9.87-11.77 18.11L534.04-245.5h152.37v131H153.74ZM240.91-640q17 0 28.5-11.5t11.5-28.5q0-17-11.5-28.5t-28.5-11.5q-17 0-28.5 11.5t-11.5 28.5q0 17 11.5 28.5t28.5 11.5Z"/></svg>