<svg xmlns="http://www.w3.org/2000/svg" height="40" viewBox="0 -960 960 960" width="40"><path d="M151.5-109v-136h143.17l-90-300q-44.84-13.5-71.67-48.08-26.83-34.59-26.83-88.25 0-57.17 41.25-99.09 41.25-41.91 98.75-41.91 52.16 0 89.08 29.83t50.42 79.83h98.83v-97.66h65.67l4.66 20.33L645-876.5l225 105-35.5 69-175.67-86.17L573.5-704v40.67l85.33 88.66 173.67-83.5 37.67 65.5L645.33-486.5l-90.5-84.83L553-551h-68.5v-98.33H384.17q-3 16.5-13.34 37.25-10.33 20.75-21.66 29.08L525-245h182.17v136H151.5Zm94.67-520.33q21.83 0 36.91-14.92 15.09-14.92 15.09-37.08 0-22.17-15.09-37.09-15.08-14.91-36.91-14.91-22.17 0-37.09 14.91-14.91 14.92-14.91 37.09 0 22.16 14.91 37.08 14.92 14.92 37.09 14.92Z"/></svg>