<svg xmlns="http://www.w3.org/2000/svg" version="1.1" width="3300" height="2000"><g id="Notes"><style>
    text {
      font-family: monospace;
      text-anchor: middle;
    }
    text.emphasis {
      font-weight:bold;
    }
    text.lanchor {
      text-anchor: start;
    }
  </style><rect height="2200" id="artboard" fill="white" width="3300" x="0" y="0"/><line id="" style="fill:none;stroke:black;stroke-width:0.5;" x1="263" x2="3036" y1="292" y2="292"/><text class="lanchor emphasis" transform="matrix(1 0 0 1 263 322)">Weight/Scale Variations</text><text transform="matrix(1 0 0 1 559.711 322)">Ultralight</text><text transform="matrix(1 0 0 1 856.422 322)">Thin</text><text transform="matrix(1 0 0 1 1153.13 322)">Light</text><text transform="matrix(1 0 0 1 1449.84 322)">Regular</text><text transform="matrix(1 0 0 1 1746.56 322)">Medium</text><text transform="matrix(1 0 0 1 2043.27 322)">Semibold</text><text transform="matrix(1 0 0 1 2339.98 322)">Bold</text><text transform="matrix(1 0 0 1 2636.69 322)">Heavy</text><text transform="matrix(1 0 0 1 2933.4 322)">Black</text><text id="template-version" style="text-anchor: end;" transform="matrix(1 0 0 1 3036 1933)">Template v.1.0</text><text class="lanchor" transform="matrix(1 0 0 1 263 726)">Small</text><text class="lanchor" transform="matrix(1 0 0 1 263 1156)">Medium</text><text class="lanchor" transform="matrix(1 0 0 1 263 1586)">Large</text></g><g id="Guides"><g id="H-reference" style="fill:#27AAE1;stroke:none;" transform="matrix(1 0 0 1 339 696)"><path d="M 54.9316 0 L 57.666 0 L 30.5664 -70.459 L 28.0762 -70.459 L 0.976562 0 L 3.66211 0 L 12.9395 -24.4629 L 45.7031 -24.4629 Z M 29.1992 -67.0898 L 29.4434 -67.0898 L 44.8242 -26.709 L 13.8184 -26.709 Z"/></g><line id="Baseline-S" style="fill:none;stroke:#27AAE1;opacity:1;stroke-width:0.577;" x1="263" x2="3036" y1="696" y2="696"/><line id="Capline-S" style="fill:none;stroke:#27AAE1;opacity:1;stroke-width:0.577;" x1="263" x2="3036" y1="625.541" y2="625.541"/><g id="H-reference" style="fill:#27AAE1;stroke:none;" transform="matrix(1 0 0 1 339 1126)"><path d="M 54.9316 0 L 57.666 0 L 30.5664 -70.459 L 28.0762 -70.459 L 0.976562 0 L 3.66211 0 L 12.9395 -24.4629 L 45.7031 -24.4629 Z M 29.1992 -67.0898 L 29.4434 -67.0898 L 44.8242 -26.709 L 13.8184 -26.709 Z"/></g><line id="Baseline-M" style="fill:none;stroke:#27AAE1;opacity:1;stroke-width:0.577;" x1="263" x2="3036" y1="1126" y2="1126"/><line id="Capline-M" style="fill:none;stroke:#27AAE1;opacity:1;stroke-width:0.577;" x1="263" x2="3036" y1="1055.54" y2="1055.54"/><g id="H-reference" style="fill:#27AAE1;stroke:none;" transform="matrix(1 0 0 1 339 1556)"><path d="M 54.9316 0 L 57.666 0 L 30.5664 -70.459 L 28.0762 -70.459 L 0.976562 0 L 3.66211 0 L 12.9395 -24.4629 L 45.7031 -24.4629 Z M 29.1992 -67.0898 L 29.4434 -67.0898 L 44.8242 -26.709 L 13.8184 -26.709 Z"/></g><line id="Baseline-L" style="fill:none;stroke:#27AAE1;opacity:1;stroke-width:0.577;" x1="263" x2="3036" y1="1556" y2="1556"/><line id="Capline-L" style="fill:none;stroke:#27AAE1;opacity:1;stroke-width:0.577;" x1="263" x2="3036" y1="1485.54" y2="1485.54"/><rect height="119.336" id="left-margin" style="fill:darkred;stroke:none;opacity:0.4;" width="12.4512" x="1394.06" y="1030.79"/><rect height="119.336" id="right-margin" style="fill:darkgreen;stroke:none;opacity:0.4;" width="12.4512" x="1502.5112" y="1030.79"/><rect x="1406.5112" y="1045" width="96" height="96" fill="none" stroke="blue" stroke-dasharray="5"/><rect x="1394.06" y="1030.79" width="120.9024" height="119.336" fill="none" stroke="blue"/></g><g id="Symbols"><g id="Bold-L" transform="matrix(1 0 0 1 2266 1556)"><path d="M30.476 11.694 H92.074 V-20.556 H124.324 V-82.154 Q124.324 -82.154 124.324 -82.154 Q124.324 -82.154 124.324 -82.154 H30.476 Q30.476 -82.154 30.476 -82.154 Q30.476 -82.154 30.476 -82.154 V11.694 Q30.476 11.694 30.476 11.694 Q30.476 11.694 30.476 11.694 Z M30.476 26.851 Q24.223 26.851 19.771 22.399 Q15.319 17.947 15.319 11.694 V-82.154 Q15.319 -88.473 19.771 -92.972 Q24.223 -97.472 30.476 -97.472 H124.324 Q130.643 -97.472 135.142 -92.972 Q139.643 -88.473 139.643 -82.154 V-15.235 L97.395 26.851 H30.476 Z M49.826 -24.104 V-35.552 H76.11 V-24.104 H49.826 Z M49.826 -51.677 V-63.287 H104.974 V-51.677 H49.826 Z"/></g><g id="Semibold-L" transform="matrix(1 0 0 1 1970.27 1556)"><path d="M29.846 12.324 H92.704 V-19.926 H124.954 V-82.784 Q124.954 -82.784 124.954 -82.784 Q124.954 -82.784 124.954 -82.784 H29.846 Q29.846 -82.784 29.846 -82.784 Q29.846 -82.784 29.846 -82.784 V12.324 Q29.846 12.324 29.846 12.324 Q29.846 12.324 29.846 12.324 Z M29.846 25.098 Q24.576 25.098 20.824 21.346 Q17.072 17.594 17.072 12.324 V-82.784 Q17.072 -88.091 20.824 -91.871 Q24.576 -95.65 29.846 -95.65 H124.954 Q130.261 -95.65 134.041 -91.871 Q137.82 -88.091 137.82 -82.784 V-15.516 L97.114 25.098 H29.846 Z M49.196 -24.734 V-35.412 H75.97 V-24.734 H49.196 Z M49.196 -51.537 V-62.305 H105.604 V-51.537 H49.196 Z"/></g><g id="Medium-L" transform="matrix(1 0 0 1 1674.31 1556)"><path d="M29.372 12.798 H93.178 V-19.452 H125.428 V-83.258 Q125.428 -83.258 125.428 -83.258 Q125.428 -83.258 125.428 -83.258 H29.372 Q29.372 -83.258 29.372 -83.258 Q29.372 -83.258 29.372 -83.258 V12.798 Q29.372 12.798 29.372 12.798 Q29.372 12.798 29.372 12.798 Z M29.372 23.784 Q24.841 23.784 21.612 20.558 Q18.386 17.329 18.386 12.798 V-83.258 Q18.386 -87.806 21.612 -91.043 Q24.841 -94.283 29.372 -94.283 H125.428 Q129.976 -94.283 133.213 -91.043 Q136.453 -87.806 136.453 -83.258 V-15.725 L96.905 23.784 H29.372 Z M48.722 -25.208 V-35.307 H75.865 V-25.208 H48.722 Z M48.722 -51.432 V-61.57 H106.078 V-51.432 H48.722 Z"/></g><g id="Regular-L" transform="matrix(1 0 0 1 1378.56 1556)"><path d="M29.025 13.145 H93.525 V-19.105 H125.775 V-83.605 Q125.775 -83.605 125.775 -83.605 Q125.775 -83.605 125.775 -83.605 H29.025 Q29.025 -83.605 29.025 -83.605 Q29.025 -83.605 29.025 -83.605 V13.145 Q29.025 13.145 29.025 13.145 Q29.025 13.145 29.025 13.145 Z M29.025 22.82 Q25.034 22.82 22.193 19.977 Q19.35 17.136 19.35 13.145 V-83.605 Q19.35 -87.596 22.193 -90.439 Q25.034 -93.28 29.025 -93.28 H125.775 Q129.766 -93.28 132.609 -90.439 Q135.45 -87.596 135.45 -83.605 V-15.88 L96.75 22.82 H29.025 Z M48.375 -25.555 V-35.23 H75.788 V-25.555 H48.375 Z M48.375 -51.355 V-61.03 H106.425 V-51.355 H48.375 Z"/></g><g id="Light-L" transform="matrix(1 0 0 1 1082.77 1556)"><path d="M31.878 12.276 H92.656 V-19.974 H124.906 V-80.752 Q124.906 -81.62 124.348 -82.178 Q123.79 -82.736 122.922 -82.736 H31.878 Q31.01 -82.736 30.452 -82.178 Q29.894 -81.62 29.894 -80.752 V10.292 Q29.894 11.16 30.452 11.718 Q31.01 12.276 31.878 12.276 Z M31.878 19.595 Q28.074 19.595 25.324 16.846 Q22.575 14.096 22.575 10.292 V-80.752 Q22.575 -84.556 25.324 -87.306 Q28.074 -90.055 31.878 -90.055 H122.922 Q126.726 -90.055 129.476 -87.306 Q132.225 -84.556 132.225 -80.752 V-18.175 L94.455 19.595 H31.878 Z M50.36 -26.424 V-33.742 H76.221 V-26.424 H50.36 Z M50.36 -52.1 V-59.417 H104.44 V-52.1 H50.36 Z"/></g><g id="Thin-L" transform="matrix(1 0 0 1 787.282 1556)"><path d="M34.73 11.408 H91.788 V-20.842 H124.038 V-77.9 Q124.038 -79.635 122.922 -80.752 Q121.805 -81.868 120.07 -81.868 H34.73 Q32.995 -81.868 31.878 -80.752 Q30.762 -79.635 30.762 -77.9 V7.44 Q30.762 9.175 31.878 10.292 Q32.995 11.408 34.73 11.408 Z M34.73 16.37 Q31.112 16.37 28.456 13.714 Q25.8 11.058 25.8 7.44 V-77.9 Q25.8 -81.518 28.456 -84.174 Q31.112 -86.83 34.73 -86.83 H120.07 Q123.688 -86.83 126.344 -84.174 Q129 -81.518 129 -77.9 V-20.469 L92.161 16.37 H34.73 Z M52.345 -27.292 V-32.253 H76.655 V-27.292 H52.345 Z M52.345 -52.843 V-57.805 H102.455 V-52.843 H52.345 Z"/></g><g id="Ultralight-L" transform="matrix(1 0 0 1 491.205 1556)"><path d="M36.443 10.888 H91.267 V-21.362 H123.517 V-76.187 Q123.517 -78.445 122.066 -79.896 Q120.615 -81.347 118.358 -81.347 H36.443 Q34.185 -81.347 32.734 -79.896 Q31.283 -78.445 31.283 -76.187 V5.728 Q31.283 7.985 32.734 9.436 Q34.185 10.888 36.443 10.888 Z M36.443 14.435 Q32.935 14.435 30.336 11.834 Q27.735 9.235 27.735 5.728 V-76.187 Q27.735 -79.695 30.336 -82.296 Q32.935 -84.895 36.443 -84.895 H118.358 Q121.865 -84.895 124.466 -82.296 Q127.065 -79.695 127.065 -76.187 V-21.846 L90.784 14.435 H36.443 Z M53.535 -27.812 V-31.36 H76.916 V-27.812 H53.535 Z M53.535 -53.29 V-56.837 H101.265 V-53.29 H53.535 Z"/></g><g id="Bold-M" transform="matrix(1 0 0 1 2281.8 1126)"><path d="M26.5 -1.73 H68.5 V-26.73 H93.5 V-68.73 Q93.5 -68.73 93.5 -68.73 Q93.5 -68.73 93.5 -68.73 H26.5 Q26.5 -68.73 26.5 -68.73 Q26.5 -68.73 26.5 -68.73 V-1.73 Q26.5 -1.73 26.5 -1.73 Q26.5 -1.73 26.5 -1.73 Z M26.5 14.02 Q20.003 14.02 15.376 9.394 Q10.75 4.768 10.75 -1.73 V-68.73 Q10.75 -75.226 15.376 -79.854 Q20.003 -84.48 26.5 -84.48 H93.5 Q99.996 -84.48 104.624 -79.854 Q109.25 -75.226 109.25 -68.73 V-19.605 L75.625 14.02 H26.5 Z M36.5 -23.73 V-35.605 H60.375 V-23.73 H36.5 Z M36.5 -45.605 V-57.48 H83.5 V-45.605 H36.5 Z"/></g><g id="Semibold-M" transform="matrix(1 0 0 1 1985.97 1126)"><path d="M25.848 -1.077 H69.153 V-26.077 H94.153 V-69.382 Q94.153 -69.382 94.153 -69.382 Q94.153 -69.382 94.153 -69.382 H25.848 Q25.848 -69.382 25.848 -69.382 Q25.848 -69.382 25.848 -69.382 V-1.077 Q25.848 -1.077 25.848 -1.077 Q25.848 -1.077 25.848 -1.077 Z M25.848 12.173 Q20.383 12.173 16.49 8.28 Q12.598 4.388 12.598 -1.077 V-69.382 Q12.598 -74.847 16.49 -78.74 Q20.383 -82.632 25.848 -82.632 H94.153 Q99.618 -82.632 103.51 -78.74 Q107.403 -74.847 107.403 -69.382 V-19.876 L75.354 12.173 H25.848 Z M35.847 -24.382 V-35.442 H60.212 V-24.382 H35.847 Z M35.847 -45.442 V-56.501 H84.153 V-45.442 H35.847 Z"/></g><g id="Medium-M" transform="matrix(1 0 0 1 1689.91 1126)"><path d="M25.359 -0.589 H69.641 V-25.589 H94.641 V-69.871 Q94.641 -69.871 94.641 -69.871 Q94.641 -69.871 94.641 -69.871 H25.359 Q25.359 -69.871 25.359 -69.871 Q25.359 -69.871 25.359 -69.871 V-0.589 Q25.359 -0.589 25.359 -0.589 Q25.359 -0.589 25.359 -0.589 Z M25.359 10.786 Q20.666 10.786 17.325 7.445 Q13.984 4.104 13.984 -0.589 V-69.871 Q13.984 -74.564 17.325 -77.905 Q20.666 -81.246 25.359 -81.246 H94.641 Q99.334 -81.246 102.675 -77.905 Q106.016 -74.564 106.016 -69.871 V-20.08 L75.15 10.786 H25.359 Z M35.359 -24.871 V-35.32 H60.09 V-24.871 H35.359 Z M35.359 -45.32 V-55.767 H84.641 V-45.32 H35.359 Z"/></g><g id="Regular-M" transform="matrix(1 0 0 1 1394.06 1126)"><path d="M25 -0.23 H70 V-25.23 H95 V-70.23 Q95 -70.23 95 -70.23 Q95 -70.23 95 -70.23 H25 Q25 -70.23 25 -70.23 Q25 -70.23 25 -70.23 V-0.23 Q25 -0.23 25 -0.23 Q25 -0.23 25 -0.23 Z M25 9.77 Q20.875 9.77 17.938 6.833 Q15 3.895 15 -0.23 V-70.23 Q15 -74.355 17.938 -77.292 Q20.875 -80.23 25 -80.23 H95 Q99.125 -80.23 102.062 -77.292 Q105 -74.355 105 -70.23 V-20.23 L75 9.77 H25 Z M35 -25.23 V-35.23 H60 V-25.23 H35 Z M35 -45.23 V-55.23 H85 V-45.23 H35 Z"/></g><g id="Light-M" transform="matrix(1 0 0 1 1098.18 1126)"><path d="M26.539 -0.23 H70 V-25.23 H95 V-68.691 Q95 -69.365 94.567 -69.797 Q94.135 -70.23 93.461 -70.23 H26.539 Q25.865 -70.23 25.433 -69.797 Q25 -69.365 25 -68.691 V-1.769 Q25 -1.095 25.433 -0.662 Q25.865 -0.23 26.539 -0.23 Z M26.539 7.27 Q22.799 7.27 20.149 4.621 Q17.5 1.971 17.5 -1.769 V-68.691 Q17.5 -72.431 20.149 -75.081 Q22.799 -77.73 26.539 -77.73 H93.461 Q97.201 -77.73 99.851 -75.081 Q102.5 -72.431 102.5 -68.691 V-22.009 L73.221 7.27 H26.539 Z M37.211 -26.576 V-34.076 H60 V-26.576 H37.211 Z M37.211 -46.48 V-53.98 H82.789 V-46.48 H37.211 Z"/></g><g id="Thin-M" transform="matrix(1 0 0 1 802.565 1126)"><path d="M28.078 -0.23 H70 V-25.23 H95 V-67.152 Q95 -68.499 94.135 -69.365 Q93.269 -70.23 91.922 -70.23 H28.078 Q26.731 -70.23 25.865 -69.365 Q25 -68.499 25 -67.152 V-3.307 Q25 -1.961 25.865 -1.095 Q26.731 -0.23 28.078 -0.23 Z M28.078 4.77 Q24.721 4.77 22.36 2.41 Q20 0.049 20 -3.307 V-67.152 Q20 -70.509 22.36 -72.87 Q24.721 -75.23 28.078 -75.23 H91.922 Q95.279 -75.23 97.64 -72.87 Q100 -70.509 100 -67.152 V-23.787 L71.442 4.77 H28.078 Z M39.422 -27.922 V-32.922 H60 V-27.922 H39.422 Z M39.422 -47.73 V-52.73 H80.578 V-47.73 H39.422 Z"/></g><g id="Ultralight-M" transform="matrix(1 0 0 1 506.415 1126)"><path d="M29 -0.23 H70 V-25.23 H95 V-66.23 Q95 -67.98 93.875 -69.105 Q92.75 -70.23 91 -70.23 H29 Q27.25 -70.23 26.125 -69.105 Q25 -67.98 25 -66.23 V-4.23 Q25 -2.48 26.125 -1.355 Q27.25 -0.23 29 -0.23 Z M29 3.27 Q25.875 3.27 23.688 1.083 Q21.5 -1.105 21.5 -4.23 V-66.23 Q21.5 -69.355 23.688 -71.542 Q25.875 -73.73 29 -73.73 H91 Q94.125 -73.73 96.312 -71.542 Q98.5 -69.355 98.5 -66.23 V-24.855 L70.375 3.27 H29 Z M40.75 -28.73 V-32.23 H60 V-28.73 H40.75 Z M40.75 -48.48 V-51.98 H79.25 V-48.48 H40.75 Z"/></g><g id="Bold-S" transform="matrix(1 0 0 1 2294.23 696)"><path d="M22.486 -10.376 H53.258 V-29.312 H72.194 V-60.083 Q72.194 -60.083 72.194 -60.083 Q72.194 -60.083 72.194 -60.083 H22.486 Q22.486 -60.083 22.486 -60.083 Q22.486 -60.083 22.486 -60.083 V-10.376 Q22.486 -10.376 22.486 -10.376 Q22.486 -10.376 22.486 -10.376 Z M22.486 1.261 Q17.685 1.261 14.267 -2.157 Q10.849 -5.575 10.849 -10.376 V-60.083 Q10.849 -64.884 14.267 -68.303 Q17.685 -71.721 22.486 -71.721 H72.194 Q76.994 -71.721 80.413 -68.303 Q83.831 -64.884 83.831 -60.083 V-25.269 L57.301 1.261 H22.486 Z M29.588 -26.945 V-35.526 H47.636 V-26.945 H29.588 Z M29.588 -42.627 V-51.207 H65.093 V-42.627 H29.588 Z"/></g><g id="Semibold-S" transform="matrix(1 0 0 1 1998.1 696)"><path d="M21.972 -9.862 H53.772 V-28.798 H72.708 V-60.598 Q72.708 -60.598 72.708 -60.598 Q72.708 -60.598 72.708 -60.598 H21.972 Q21.972 -60.598 21.972 -60.598 Q21.972 -60.598 21.972 -60.598 V-9.862 Q21.972 -9.862 21.972 -9.862 Q21.972 -9.862 21.972 -9.862 Z M21.972 -0.196 Q17.985 -0.196 15.146 -3.036 Q12.306 -5.875 12.306 -9.862 V-60.598 Q12.306 -64.585 15.146 -67.424 Q17.985 -70.264 21.972 -70.264 H72.708 Q76.695 -70.264 79.534 -67.424 Q82.374 -64.585 82.374 -60.598 V-25.483 L57.087 -0.196 H21.972 Z M29.073 -27.46 V-35.398 H47.508 V-27.46 H29.073 Z M29.073 -42.499 V-50.435 H65.607 V-42.499 H29.073 Z"/></g><g id="Medium-S" transform="matrix(1 0 0 1 1701.85 696)"><path d="M21.586 -9.476 H54.158 V-28.412 H73.094 V-60.984 Q73.094 -60.984 73.094 -60.984 Q73.094 -60.984 73.094 -60.984 H21.586 Q21.586 -60.984 21.586 -60.984 Q21.586 -60.984 21.586 -60.984 V-9.476 Q21.586 -9.476 21.586 -9.476 Q21.586 -9.476 21.586 -9.476 Z M21.586 -1.29 Q18.209 -1.29 15.805 -3.695 Q13.4 -6.099 13.4 -9.476 V-60.984 Q13.4 -64.361 15.805 -66.765 Q18.209 -69.17 21.586 -69.17 H73.094 Q76.471 -69.17 78.875 -66.765 Q81.28 -64.361 81.28 -60.984 V-25.644 L56.926 -1.29 H21.586 Z M28.687 -27.846 V-35.301 H47.411 V-27.846 H28.687 Z M28.687 -42.402 V-49.856 H65.993 V-42.402 H28.687 Z"/></g><g id="Regular-S" transform="matrix(1 0 0 1 1405.73 696)"><path d="M21.303 -9.193 H54.441 V-28.129 H73.377 V-61.267 Q73.377 -61.267 73.377 -61.267 Q73.377 -61.267 73.377 -61.267 H21.303 Q21.303 -61.267 21.303 -61.267 Q21.303 -61.267 21.303 -61.267 V-9.193 Q21.303 -9.193 21.303 -9.193 Q21.303 -9.193 21.303 -9.193 Z M21.303 -2.092 Q18.374 -2.092 16.288 -4.178 Q14.202 -6.264 14.202 -9.193 V-61.267 Q14.202 -64.196 16.288 -66.282 Q18.374 -68.368 21.303 -68.368 H73.377 Q76.306 -68.368 78.392 -66.282 Q80.478 -64.196 80.478 -61.267 V-25.762 L56.808 -2.092 H21.303 Z M28.404 -28.129 V-35.23 H47.34 V-28.129 H28.404 Z M28.404 -42.331 V-49.432 H66.276 V-42.331 H28.404 Z"/></g><g id="Light-S" transform="matrix(1 0 0 1 1109.75 696)"><path d="M22.517 -9.193 H54.441 V-28.129 H73.377 V-60.053 Q73.377 -60.585 73.036 -60.926 Q72.695 -61.267 72.163 -61.267 H22.517 Q21.985 -61.267 21.644 -60.926 Q21.303 -60.585 21.303 -60.053 V-10.407 Q21.303 -9.875 21.644 -9.534 Q21.985 -9.193 22.517 -9.193 Z M22.517 -4.064 Q19.892 -4.064 18.033 -5.923 Q16.175 -7.782 16.175 -10.407 V-60.053 Q16.175 -62.678 18.033 -64.537 Q19.892 -66.395 22.517 -66.395 H72.163 Q74.788 -66.395 76.647 -64.537 Q78.505 -62.678 78.505 -60.053 V-27.165 L55.405 -4.064 H22.517 Z M30.149 -29.191 V-34.32 H47.34 V-29.191 H30.149 Z M30.149 -43.317 V-48.446 H64.531 V-43.317 H30.149 Z"/></g><g id="Thin-S" transform="matrix(1 0 0 1 814.015 696)"><path d="M23.731 -9.193 H54.441 V-28.129 H73.377 V-58.839 Q73.377 -59.901 72.695 -60.585 Q72.011 -61.267 70.949 -61.267 H23.731 Q22.669 -61.267 21.985 -60.585 Q21.303 -59.901 21.303 -58.839 V-11.621 Q21.303 -10.559 21.985 -9.875 Q22.669 -9.193 23.731 -9.193 Z M23.731 -6.037 Q21.409 -6.037 19.777 -7.667 Q18.147 -9.299 18.147 -11.621 V-58.839 Q18.147 -61.161 19.777 -62.793 Q21.409 -64.423 23.731 -64.423 H70.949 Q73.271 -64.423 74.903 -62.793 Q76.533 -61.161 76.533 -58.839 V-28.569 L54.001 -6.037 H23.731 Z M31.893 -30.253 V-33.409 H47.34 V-30.253 H31.893 Z M31.893 -44.303 V-47.459 H62.787 V-44.303 H31.893 Z"/></g><g id="Ultralight-S" transform="matrix(1 0 0 1 517.792 696)"><path d="M24.459 -9.193 H54.441 V-28.129 H73.377 V-58.111 Q73.377 -59.492 72.489 -60.379 Q71.602 -61.267 70.221 -61.267 H24.459 Q23.078 -61.267 22.191 -60.379 Q21.303 -59.492 21.303 -58.111 V-12.349 Q21.303 -10.968 22.191 -10.081 Q23.078 -9.193 24.459 -9.193 Z M24.459 -7.22 Q22.319 -7.22 20.825 -8.715 Q19.331 -10.209 19.331 -12.349 V-58.111 Q19.331 -60.251 20.825 -61.745 Q22.319 -63.239 24.459 -63.239 H70.221 Q72.361 -63.239 73.855 -61.745 Q75.35 -60.251 75.35 -58.111 V-29.411 L53.159 -7.22 H24.459 Z M32.941 -30.89 V-32.863 H47.34 V-30.89 H32.941 Z M32.941 -44.895 V-46.868 H61.739 V-44.895 H32.941 Z"/></g></g></svg>