<svg xmlns="http://www.w3.org/2000/svg" height="48" width="48"><path d="M30.85 35.55q.45 0 .75-.3t.3-.75v-2.35h2.35q.45 0 .75-.325t.3-.725q0-.45-.3-.775T34.25 30H31.9v-2.35q0-.4-.3-.725-.3-.325-.75-.325t-.775.325q-.325.325-.325.725V30h-2.3q-.45 0-.775.325t-.325.725q0 .45.3.775t.75.325h2.35v2.3q0 .45.325.775t.775.325ZM15.05 23.6q.45 0 .75-.325t.3-.725V18.3h5.35v4.2q0 .4.3.75t.8.35q.4 0 .725-.325.325-.325.325-.725v-9.6q0-.45-.325-.775t-.725-.325q-.45 0-.775.325t-.325.725v3.25H16.1V12.9q0-.4-.3-.725-.3-.325-.75-.325t-.775.325q-.325.325-.325.775v9.55q0 .4.325.75t.775.35Zm12.6 0h5.5q.9 0 1.525-.65.625-.65.625-1.55v-7.35q0-.9-.625-1.55t-1.525-.65h-5.5q-.45 0-.725.3-.275.3-.275.7v9.75q0 .4.275.7.275.3.725.3ZM24 44.45q-4.3 0-8.05-1.575-3.75-1.575-6.5-4.325t-4.325-6.475Q3.55 28.35 3.55 24t1.575-8.075Q6.7 12.2 9.45 9.45 12.2 6.7 15.925 5.1 19.65 3.5 24 3.5t8.075 1.6Q35.8 6.7 38.55 9.45q2.75 2.75 4.35 6.475Q44.5 19.65 44.5 24t-1.6 8.075q-1.6 3.725-4.35 6.475-2.75 2.75-6.475 4.325Q28.35 44.45 24 44.45Zm4.8-23V14h3.75q.25 0 .425.175t.175.425v6.25q0 .25-.175.425t-.425.175ZM20.9 32.2h-4.5v-3.4h4.5q.25 0 .425.175t.175.425v2.2q0 .25-.175.425t-.425.175Zm-4.5 2.05h3.1l1.4 3.6q.15.35.375.5.225.15.525.15.5 0 .8-.4.3-.4.1-.9l-1.15-2.95q.9-.05 1.45-.625.55-.575.55-1.425v-3.35q0-.9-.6-1.5t-1.45-.6h-6.05q-.45 0-.775.325t-.325.775v9.65q0 .45.3.725.3.275.75.275t.725-.3q.275-.3.275-.75Z"/></svg>