<svg xmlns="http://www.w3.org/2000/svg" height="40" width="40"><path d="M25.667 29.708q.5 0 .812-.312.313-.313.313-.813v-1.625h1.625q.5 0 .812-.333.313-.333.313-.833 0-.459-.313-.792-.312-.333-.812-.333h-1.625v-1.625q0-.459-.313-.792-.312-.333-.812-.333t-.834.333q-.333.333-.333.792v1.625h-1.583q-.5 0-.834.312-.333.313-.333.813 0 .541.312.854.313.312.813.312H24.5v1.584q0 .5.333.833.334.333.834.333Zm-13.084-9.791q.5 0 .834-.334.333-.333.333-.791v-3.084h3.875v3.042q0 .5.313.833.312.334.854.334.458 0 .791-.313.334-.312.334-.812v-7.75q0-.5-.334-.813-.333-.312-.833-.312-.5 0-.812.312-.313.313-.313.813v2.375H13.75v-2.375q0-.5-.333-.813-.334-.312-.834-.312-.5 0-.833.312-.333.313-.333.813v7.708q0 .5.333.833.333.334.833.334Zm10.334 0h4.333q.958 0 1.625-.667t.667-1.625v-5.417q0-1-.667-1.645-.667-.646-1.625-.646h-4.333q-.375 0-.688.291-.312.292-.312.709v8q0 .375.312.687.313.313.688.313ZM20 37.75q-3.708 0-6.979-1.354t-5.667-3.75q-2.396-2.396-3.75-5.667T2.25 20q0-3.75 1.375-6.979t3.771-5.625Q9.792 5 13.042 3.625T20 2.25q3.708 0 6.958 1.375t5.646 3.771Q35 9.792 36.375 13.021T37.75 20q0 3.75-1.375 6.979t-3.771 5.625Q30.208 35 26.979 36.375T20 37.75Zm4.208-20.125v-5.417h2.709q.125 0 .229.084.104.083.104.25v4.75q0 .166-.104.25-.104.083-.229.083Zm-6.833 8.792h-3.458V24.25h3.458q.167 0 .25.104.083.104.083.229v1.5q0 .125-.083.229-.083.105-.25.105Zm-3.458 2.25h2.208l1.125 2.791q.125.334.396.5.271.167.604.167.542 0 .854-.458.313-.459.146-1l-.875-2.084q.75-.208 1.167-.791.416-.584.416-1.375V24.25q0-.958-.666-1.604Q18.625 22 17.708 22h-4.875q-.541 0-.854.333-.312.334-.312.792v7.917q0 .5.312.791.313.292.813.292.5 0 .812-.313.313-.312.313-.812Z"/></svg>