<svg xmlns="http://www.w3.org/2000/svg" height="20" width="20"><path d="M12 13V8.75h1.292l1.375 1.375V13Zm-.25 1.042h3.167q.312 0 .552-.24.239-.24.239-.552v-3.229q0-.125-.052-.271-.052-.146-.177-.25l-1.562-1.562q-.105-.126-.25-.178-.146-.052-.292-.052H11.75q-.312 0-.552.24-.24.24-.24.552v4.75q0 .312.24.552.24.24.552.24ZM3.667 16.25q-.667 0-1.125-.458-.459-.459-.459-1.125v-9q0-.667.459-1.136.458-.469 1.125-.469H8q.271 0 .531.105.261.104.448.312L10 5.5h6.333q.667 0 1.125.458.459.459.459 1.125v7.584q0 .666-.459 1.125-.458.458-1.125.458Zm-.25-10.583v9q0 .104.073.177.072.073.177.073h12.666q.105 0 .177-.073.073-.073.073-.177V7.083q0-.104-.073-.177-.072-.073-.177-.073H9.438L8.021 5.396H3.667q-.105 0-.177.073-.073.073-.073.198Zm0 0v-.271V14.917v-.25Z"/></svg>