<svg xmlns="http://www.w3.org/2000/svg" height="20" width="20"><path d="M12.854 8.333q-.521 0-.854-.333-.333-.333-.333-.854 0-.521.333-.854.333-.334.854-.334.521 0 .854.334.334.333.334.854 0 .521-.334.854-.333.333-.854.333Zm-10.875.521V4.583q0-1.104.75-1.854t1.854-.75h4.292v2.604H4.583v4.271Zm6.896 9.167H4.583q-1.104 0-1.854-.75t-.75-1.854v-4.292h2.604v4.292h4.292Zm6.542-9.167V4.583h-4.271V1.979h4.271q1.104 0 1.854.75t.75 1.854v4.271Zm-4.271 9.167v-2.604h4.271v-4.292h2.604v4.292q0 1.104-.75 1.854t-1.854.75ZM4.896 14l2.687-3.792 1.813 2.396 2.416-3.229L15.146 14Z"/></svg>