<svg xmlns="http://www.w3.org/2000/svg" height="24" viewBox="0 -960 960 960" width="24"><path d="M206.78-100.78q-44.3 0-75.15-30.85-30.85-30.85-30.85-75.15v-224.74h106v224.74h224.74v106H206.78Zm321.7 0v-106h224.74v-224.74h106v224.74q0 44.3-30.85 75.15-30.85 30.85-75.15 30.85H528.48ZM230.39-280 360-458.09l90 120 120-160L729.61-280H230.39ZM100.78-528.48v-224.74q0-44.3 30.85-75.15 30.85-30.85 75.15-30.85h224.74v106H206.78v224.74h-106Zm652.44 0v-224.74H528.48v-106h224.74q44.3 0 75.15 30.85 30.85 30.85 30.85 75.15v224.74h-106ZM620-560q-26 0-43-17t-17-43q0-26 17-43t43-17q26 0 43 17t17 43q0 26-17 43t-43 17Z"/></svg>