<svg xmlns="http://www.w3.org/2000/svg" height="24" viewBox="0 -960 960 960" width="24"><path d="m433-645-70-69q-20-20-20-48.091T363-811l70-69q20-20 48-20t48 20l69 69q21 20.818 21 48.909Q619-734 598-714l-69 69q-20 20-48 20t-48-20ZM64-76q-27.6 0-47.8-20.2Q-4-116.4-4-144v-120q0-44.6 32.15-76.3Q60.3-372 104-372h137q21.214 0 34.107 6T296-348q32 46 80 71t104.041 25Q535-252 584-277t82-71q7-12 20.093-18 13.092-6 32.907-6h138q44.6 0 76.3 31.7Q965-308.6 965-264v120q0 27.6-20.2 47.8Q924.6-76 897-76H697q-27.6 0-47.8-20.2Q629-116.4 629-144v-27q-35 16-72.5 25.5t-76.364 9.5q-37.799 0-75.467-9Q367-154 332-170v26q0 27.6-20.2 47.8Q291.6-76 264-76H64Zm96-392q-55.667 0-95.333-39.749Q25-547.497 25-603.281 25-659 64.749-698.5 104.496-738 160.28-738 216-738 255.5-698.3 295-658.6 295-603q0 55.667-39.7 95.333Q215.6-468 160-468Zm640 0q-55.667 0-95.333-39.749Q665-547.497 665-603.281 665-659 704.749-698.5q39.748-39.5 95.532-39.5Q856-738 895.5-698.3 935-658.6 935-603q0 55.667-39.7 95.333Q855.6-468 800-468Z"/></svg>