<svg xmlns="http://www.w3.org/2000/svg" height="48" width="48"><path d="M24.05 19 20.15 15.15Q20.3 15.1 20.7 15.025Q21.1 14.95 21.4 14.95Q22.65 14.95 23.475 15.775Q24.3 16.6 24.3 17.85Q24.3 18.15 24.25 18.525Q24.2 18.9 24.05 19ZM41.45 31.3 35.2 25.05V30.2L33.45 28.45V13.2Q33.45 12.5 33 12.05Q32.55 11.6 31.85 11.6H16.65L14.9 9.85H31.85Q33.25 9.85 34.225 10.825Q35.2 11.8 35.2 13.2V22.8L41.45 16.45ZM39.55 42.2 34.45 37Q34.1 37.6 33.325 37.875Q32.55 38.15 32 38.15H10.25Q8.85 38.15 7.875 37.175Q6.9 36.2 6.9 34.8V13.2Q6.9 12.6 7.15 11.85Q7.4 11.1 8.05 10.7L4.7 7.45L5.95 6.2L40.7 40.95ZM22 36.4H31.85Q32.25 36.4 32.525 36.25Q32.8 36.1 33.1 35.8L27.15 29.85Q26.2 30.8 25.05 31.45Q23.9 32.1 22 32.3ZM10.25 36.4H20.8V32.3Q17.7 32.05 15.575 29.975Q13.45 27.9 13.15 24.8H14.6Q14.8 27.35 16.775 29.1Q18.75 30.85 21.4 30.85Q22.95 30.85 24.075 30.275Q25.2 29.7 26.1 28.8L23.25 25.95Q22.95 26.4 22.4 26.65Q21.85 26.9 21.4 26.9Q20.2 26.9 19.35 26.05Q18.5 25.2 18.5 24V21.2L9.25 11.95Q9 12.1 8.825 12.45Q8.65 12.8 8.65 13.25V34.8Q8.65 35.5 9.1 35.95Q9.55 36.4 10.25 36.4Z"/></svg>