<svg xmlns="http://www.w3.org/2000/svg" height="24" viewBox="0 -960 960 960" width="24"><path d="M402.46-665.15q4.31-1.54 9.16-2.04 4.84-.5 9.92-.5 27.61 0 47.65 20.04 20.04 20.03 20.04 47.65v21.62l-86.77-86.77Zm420.62 335.92L701.54-450.77v84.69l-40-40V-720H347.62l-40-40h393.92v250.77l121.54-121.54v301.54ZM700-200H141.54v-558.46h53.84L233.85-720h-52.31v480h224.31v-62q-65.77-6.38-111.58-53.15-45.81-46.77-50.42-112.54h34.69q3.84 56.15 44.96 93.81 41.12 37.65 98.04 37.65 33 0 63.27-14.12 30.27-14.11 50.27-40.11l24.07 24.08q-23.23 28.23-54.84 44.57-31.62 16.35-67.08 19.81v62h224.31v-52.31L700-253.85V-200Zm104.15 50.31-28.3 28.31L467-430.23q-9 9.61-20.69 13.77-11.69 4.15-24.77 4.15-27.62 0-47.66-20.04-20.03-20.03-20.03-47.65v-63.38L96.77-800.46l28.31-28.31 679.07 679.08ZM424-473.23Zm80.69-89.92ZM405.85-240h31.38-31.38Z"/></svg>