<svg xmlns="http://www.w3.org/2000/svg" height="24" viewBox="0 -960 960 960" width="24"><path d="M234.31-153h172.54q16.27 0 29.06-10.85 12.78-10.84 16.57-26.4l14.37-57.52H173.31l14.61 57.46q4.54 15.62 17.33 26.46Q218.03-153 234.31-153ZM103.46-495h-65v-104.69h65V-495Zm220.92-91.31-73.76-74 46.3-47.31 74 74-46.54 47.31ZM70.46-694.46h-32v-65h32q53.72 0 90.63-36.91T198-887v-32h65v32q0 79.9-56.32 136.22-56.32 56.32-136.22 56.32ZM463-854H358.31v-65H463v65ZM41-88v-65h98q-5.38-3.85-9.23-9.62-3.85-5.76-4.62-11.92L90.08-312.77h461L515-174.54q-.77 6.16-4.62 11.92-3.84 5.77-9.23 9.62h271.16l28.54-334.69h-241.7l6.77 79.54h-65.23l-12.46-144.54H871L837.54-153H921v65H41Zm-2.54-831ZM680-153Zm-359.54 0Z"/></svg>