<svg xmlns="http://www.w3.org/2000/svg" height="24" viewBox="0 -960 960 960" width="24"><path d="M481.11-324q64.39 0 110.14-45.86Q637-415.71 637-480.11q0-64.39-45.86-110.14Q545.29-636 480.89-636q-64.39 0-110.14 45.86Q325-544.29 325-479.89q0 64.39 45.86 110.14Q416.71-324 481.11-324Zm-.11-56q-42 0-70.5-29T382-480q0-12 3-24t9-23l134 134q-9.5 7-22.25 10T481-380Zm87-53L434-567q10-7 22.5-10t24.5-3q42 0 70.5 29t28.5 71q0 12-2.5 23.75T568-433ZM191.85-30.78v-898.44h578.3v211.11h39.07v197.2h-39.07v490.13h-578.3Zm100.43-100.44h377.44v-697.56H292.28v697.56Zm0 0v-697.56 697.56Z"/></svg>