<svg xmlns="http://www.w3.org/2000/svg" height="48" viewBox="0 -960 960 960" width="48"><path d="M147.59-110.87q-31.48 0-54.1-22.62t-22.62-54.1v-498.47q0-31.03 22.62-54.08 22.62-23.06 54.1-23.06h134.56l55.48-62.7q10.35-12.14 24.88-17.97 14.52-5.83 31.01-5.83h173.89q15.46 0 30.03 5.83 14.58 5.83 25.34 18.07l55.63 62.6h134q31.71 0 54.5 23.06 22.79 23.05 22.79 54.08v498.47q0 31.48-22.79 54.1t-54.5 22.62h-204.3q-16.21 0-27.41-11.25t-11.2-27.28q0-16.03 11.2-27.11 11.2-11.08 27.41-11.08h204.3v-498.32H644.84l-76.97-86.5h-174.2l-79.43 86.5H147.59v498.32h203.8q15.63 0 26.87 11.29t11.24 27q0 16.28-11.24 27.35-11.24 11.08-26.87 11.08h-203.8Zm332.52-307.11q27.89 0 45.89-18.07 18-18.08 18-45.72v-173.42q0-27.07-18.11-45.43-18.1-18.36-46-18.36-27.89 0-46.39 18.36T415-655.19v173.42q0 27.64 18.61 45.72 18.6 18.07 46.5 18.07ZM147.59-187.59H812.41 147.59ZM479.83-322q-62.83 0-109.65-36.19-46.82-36.18-59.31-91.56-2.87-12.63-11.24-22.43-8.37-9.8-20.88-9.8-12.81 0-20.78 10.1-7.97 10.1-5.47 22.4 11.83 75.18 66.66 127.09Q374-270.48 450-260.98v121.11q0 12.33 8.37 20.66 8.38 8.34 20.75 8.34 12.38 0 20.63-8.34 8.25-8.33 8.25-20.66v-121.11q75.85-9.69 131.54-61.38 55.69-51.69 67.41-126.94 2.05-12.48-6.09-22.58-8.14-10.1-20.07-10.1-13.29 0-21.54 9.8T648.5-449.5q-13.1 55.28-59.47 91.39T479.83-322Z"/></svg>