<svg xmlns="http://www.w3.org/2000/svg" height="48" viewBox="0 -960 960 960" width="48"><path d="M124.001-124.001v-588.305l95.001-123.693h521.996l95.001 122.818v236.18q-17.615-6.692-35.368-9.846Q782.879-490 765.539-490q-40.283 0-75.373 13.615-35.09 13.616-63.167 37.078v-219.308H334.001v322.613L480-409.001l81.462 40.538q-14.077 24.693-21.501 53.12-7.423 28.426-7.423 58.343 0 37.266 11.154 70.978 11.153 33.713 33.845 62.021H124.001Zm610.846 15.693v-120h-120v-58.384h120v-120h58.383v120h120v58.384h-120v120h-58.383ZM200.616-716.999H759l-49.21-60.616H248.418l-47.802 60.616Z"/></svg>