<svg xmlns="http://www.w3.org/2000/svg" height="40" width="40"><path d="M32.708 36.292 20.75 24.25h-.083q-1.209 2.708-3.584 4.125-2.375 1.417-5.125 1.417-4.083 0-6.937-2.854Q2.167 24.083 2.167 20q0-2.75 1.395-5.104 1.396-2.354 4.063-3.688l-3.708-3.75q-.375-.375-.375-.916 0-.542.375-.959.416-.375.958-.375t.917.375l28.833 28.792q.375.417.375.958 0 .542-.417.959-.416.375-.937.375-.521 0-.938-.375ZM37.5 19.917q0 .291-.104.521-.104.229-.313.395L32.917 25q-.167.25-.375.333-.209.084-.5.084-.292 0-.5-.084-.209-.083-.417-.291l-2.458-2.334-1.042 1-6.792-6.791h13.625q.25 0 .48.083.229.083.437.292l1.75 1.75q.167.208.271.416.104.209.104.459Zm-25.542 4.875q2 0 3.334-1.334 1.333-1.333 1.416-3.166l-.77-.792q-.771-.792-1.73-1.729-.958-.938-1.729-1.729l-.771-.792q-1.833.042-3.187 1.396Q7.167 18 7.167 20t1.395 3.396q1.396 1.396 3.396 1.396Z"/></svg>