<svg xmlns="http://www.w3.org/2000/svg" height="48" width="48"><path d="m39.9 44.25-15-15q-1.55 3.5-4.575 5.275Q17.3 36.3 14 36.3q-5.1 0-8.7-3.6-3.6-3.6-3.6-8.7 0-3.3 1.7-6.275 1.7-2.975 5.2-4.775L3.75 8.1q-.45-.45-.45-1.075T3.75 5.9q.5-.45 1.15-.45.65 0 1.1.45L42.15 42q.45.45.425 1.1-.025.65-.475 1.15-.5.45-1.125.45t-1.075-.45Zm5.8-20.35q0 .35-.125.625t-.425.575l-4.95 5q-.3.25-.55.375-.25.125-.65.125-.35 0-.625-.125t-.575-.425L34.7 27 33 28.65l-8.5-8.55h17.4q.35 0 .625.125t.575.425l2.1 2.05q.25.3.375.575.125.275.125.625ZM14 30.45q2.7 0 4.425-1.725Q20.15 27 20.4 24.8l-1.1-1.125q-1.1-1.125-2.45-2.475l-2.475-2.475L13.25 17.6q-2.15.2-3.925 1.95T7.55 24q0 2.7 1.875 4.575T14 30.45Z"/></svg>