<svg xmlns="http://www.w3.org/2000/svg" version="1.1" width="3300" height="2000"><g id="Notes"><style>
    text {
      font-family: monospace;
      text-anchor: middle;
    }
    text.emphasis {
      font-weight:bold;
    }
    text.lanchor {
      text-anchor: start;
    }
  </style><rect height="2200" id="artboard" fill="white" width="3300" x="0" y="0"/><line id="" style="fill:none;stroke:black;stroke-width:0.5;" x1="263" x2="3036" y1="292" y2="292"/><text class="lanchor emphasis" transform="matrix(1 0 0 1 263 322)">Weight/Scale Variations</text><text transform="matrix(1 0 0 1 559.711 322)">Ultralight</text><text transform="matrix(1 0 0 1 856.422 322)">Thin</text><text transform="matrix(1 0 0 1 1153.13 322)">Light</text><text transform="matrix(1 0 0 1 1449.84 322)">Regular</text><text transform="matrix(1 0 0 1 1746.56 322)">Medium</text><text transform="matrix(1 0 0 1 2043.27 322)">Semibold</text><text transform="matrix(1 0 0 1 2339.98 322)">Bold</text><text transform="matrix(1 0 0 1 2636.69 322)">Heavy</text><text transform="matrix(1 0 0 1 2933.4 322)">Black</text><text id="template-version" style="text-anchor: end;" transform="matrix(1 0 0 1 3036 1933)">Template v.1.0</text><text class="lanchor" transform="matrix(1 0 0 1 263 726)">Small</text><text class="lanchor" transform="matrix(1 0 0 1 263 1156)">Medium</text><text class="lanchor" transform="matrix(1 0 0 1 263 1586)">Large</text></g><g id="Guides"><g id="H-reference" style="fill:#27AAE1;stroke:none;" transform="matrix(1 0 0 1 339 696)"><path d="M 54.9316 0 L 57.666 0 L 30.5664 -70.459 L 28.0762 -70.459 L 0.976562 0 L 3.66211 0 L 12.9395 -24.4629 L 45.7031 -24.4629 Z M 29.1992 -67.0898 L 29.4434 -67.0898 L 44.8242 -26.709 L 13.8184 -26.709 Z"/></g><line id="Baseline-S" style="fill:none;stroke:#27AAE1;opacity:1;stroke-width:0.577;" x1="263" x2="3036" y1="696" y2="696"/><line id="Capline-S" style="fill:none;stroke:#27AAE1;opacity:1;stroke-width:0.577;" x1="263" x2="3036" y1="625.541" y2="625.541"/><g id="H-reference" style="fill:#27AAE1;stroke:none;" transform="matrix(1 0 0 1 339 1126)"><path d="M 54.9316 0 L 57.666 0 L 30.5664 -70.459 L 28.0762 -70.459 L 0.976562 0 L 3.66211 0 L 12.9395 -24.4629 L 45.7031 -24.4629 Z M 29.1992 -67.0898 L 29.4434 -67.0898 L 44.8242 -26.709 L 13.8184 -26.709 Z"/></g><line id="Baseline-M" style="fill:none;stroke:#27AAE1;opacity:1;stroke-width:0.577;" x1="263" x2="3036" y1="1126" y2="1126"/><line id="Capline-M" style="fill:none;stroke:#27AAE1;opacity:1;stroke-width:0.577;" x1="263" x2="3036" y1="1055.54" y2="1055.54"/><g id="H-reference" style="fill:#27AAE1;stroke:none;" transform="matrix(1 0 0 1 339 1556)"><path d="M 54.9316 0 L 57.666 0 L 30.5664 -70.459 L 28.0762 -70.459 L 0.976562 0 L 3.66211 0 L 12.9395 -24.4629 L 45.7031 -24.4629 Z M 29.1992 -67.0898 L 29.4434 -67.0898 L 44.8242 -26.709 L 13.8184 -26.709 Z"/></g><line id="Baseline-L" style="fill:none;stroke:#27AAE1;opacity:1;stroke-width:0.577;" x1="263" x2="3036" y1="1556" y2="1556"/><line id="Capline-L" style="fill:none;stroke:#27AAE1;opacity:1;stroke-width:0.577;" x1="263" x2="3036" y1="1485.54" y2="1485.54"/><rect height="119.336" id="left-margin" style="fill:darkred;stroke:none;opacity:0.4;" width="12.4512" x="1394.06" y="1030.79"/><rect height="119.336" id="right-margin" style="fill:darkgreen;stroke:none;opacity:0.4;" width="12.4512" x="1502.5112" y="1030.79"/><rect x="1406.5112" y="1045" width="96" height="96" fill="none" stroke="blue" stroke-dasharray="5"/><rect x="1394.06" y="1030.79" width="120.9024" height="119.336" fill="none" stroke="blue"/></g><g id="Symbols"><g id="Bold-L" transform="matrix(1 0 0 1 2266 1556)"><path d="M36.926249999999996 32.65625 Q31.121250000000003 32.65625 26.686875 28.30250000000001 Q22.2525 23.948750000000018 22.2525 17.982500000000016 V-88.4425 Q22.2525 -94.57 26.686875 -98.92375 Q31.121250000000003 -103.2775 36.926249999999996 -103.2775 H95.62125 L132.70875 -66.51249999999999 V17.982500000000016 Q132.70875 23.948750000000018 128.19375 28.30250000000001 Q123.67875000000001 32.65625 117.87375 32.65625 H36.926249999999996 Z M87.88125000000001 -59.09499999999999 V-88.4425 H36.926249999999996 Q36.926249999999996 -88.4425 36.926249999999996 -88.4425 Q36.926249999999996 -88.4425 36.926249999999996 -88.4425 V17.982500000000016 Q36.926249999999996 17.982500000000016 36.926249999999996 17.982500000000016 Q36.926249999999996 17.982500000000016 36.926249999999996 17.982500000000016 H117.87375 Q117.87375 17.982500000000016 117.87375 17.982500000000016 Q117.87375 17.982500000000016 117.87375 17.982500000000016 V-59.09499999999999 H87.88125000000001 Z"/></g><g id="Semibold-L" transform="matrix(1 0 0 1 1970.27 1556)"><path d="M36.12 32.33375000000001 Q30.96 32.33375000000001 26.848125 28.30250000000001 Q22.73625 24.27125000000001 22.73625 18.94999999999999 V-89.41 Q22.73625 -94.73124999999999 26.848125 -98.76249999999999 Q30.96 -102.79374999999999 36.12 -102.79374999999999 H94.33125 L132.225 -65.38374999999999 V18.94999999999999 Q132.225 24.27125000000001 128.113125 28.30250000000001 Q124.00125000000001 32.33375000000001 118.67999999999999 32.33375000000001 H36.12 Z M87.39750000000001 -58.772499999999994 V-89.41 H36.12 Q36.12 -89.41 36.12 -89.41 Q36.12 -89.41 36.12 -89.41 V18.94999999999999 Q36.12 18.94999999999999 36.12 18.94999999999999 Q36.12 18.94999999999999 36.12 18.94999999999999 H118.67999999999999 Q118.67999999999999 18.94999999999999 118.67999999999999 18.94999999999999 Q118.67999999999999 18.94999999999999 118.67999999999999 18.94999999999999 V-58.772499999999994 H87.39750000000001 Z"/></g><g id="Medium-L" transform="matrix(1 0 0 1 1674.31 1556)"><path d="M35.636250000000004 32.01125000000002 Q30.6375 32.01125000000002 26.848125 28.30250000000001 Q23.058750000000003 24.59375 23.058750000000003 19.595 V-90.05499999999999 Q23.058750000000003 -95.05375 26.848125 -98.76249999999999 Q30.6375 -102.47125 35.636250000000004 -102.47125 H93.36375 L131.74125 -64.41624999999999 V19.595 Q131.74125 24.59375 127.951875 28.30250000000001 Q124.16250000000001 32.01125000000002 119.16375000000001 32.01125000000002 H35.636250000000004 Z M87.075 -58.44999999999999 V-90.05499999999999 H35.636250000000004 Q35.636250000000004 -90.05499999999999 35.636250000000004 -90.05499999999999 Q35.636250000000004 -90.05499999999999 35.636250000000004 -90.05499999999999 V19.595 Q35.636250000000004 19.595 35.636250000000004 19.595 Q35.636250000000004 19.595 35.636250000000004 19.595 H119.16375000000001 Q119.16375000000001 19.595 119.16375000000001 19.595 Q119.16375000000001 19.595 119.16375000000001 19.595 V-58.44999999999999 H87.075 Z"/></g><g id="Regular-L" transform="matrix(1 0 0 1 1378.56 1556)"><path d="M35.1525 31.849999999999994 Q30.47625 31.849999999999994 26.92875 28.30250000000001 Q23.38125 24.755000000000024 23.38125 20.078750000000014 V-90.53875 Q23.38125 -95.21499999999999 26.92875 -98.76249999999999 Q30.47625 -102.31 35.1525 -102.31 H92.71875 L131.41875000000002 -63.771249999999995 V20.078750000000014 Q131.41875000000002 24.755000000000024 127.87125 28.30250000000001 Q124.32374999999999 31.849999999999994 119.64750000000001 31.849999999999994 H35.1525 Z M86.91375 -58.288749999999986 V-90.53875 H35.1525 Q35.1525 -90.53875 35.1525 -90.53875 Q35.1525 -90.53875 35.1525 -90.53875 V20.078750000000014 Q35.1525 20.078750000000014 35.1525 20.078750000000014 Q35.1525 20.078750000000014 35.1525 20.078750000000014 H119.64750000000001 Q119.64750000000001 20.078750000000014 119.64750000000001 20.078750000000014 Q119.64750000000001 20.078750000000014 119.64750000000001 20.078750000000014 V-58.288749999999986 H86.91375 Z"/></g><g id="Light-L" transform="matrix(1 0 0 1 1082.77 1556)"><path d="M38.05500000000001 28.625 Q33.37875 28.625 29.992500000000003 25.23875000000001 Q26.60625 21.85250000000002 26.60625 17.17625000000001 V-87.63624999999999 Q26.60625 -92.3125 29.992500000000003 -95.69874999999999 Q33.37875 -99.085 38.05500000000001 -99.085 H93.36375 L128.19375 -64.41624999999999 V17.17625000000001 Q128.19375 21.85250000000002 124.80750000000002 25.23875000000001 Q121.42125 28.625 116.74500000000002 28.625 H38.05500000000001 Z M88.84875000000001 -60.06249999999999 V-89.73249999999999 H38.05500000000001 Q37.24875 -89.73249999999999 36.60375 -89.08749999999999 Q35.95875 -88.4425 35.95875 -87.63624999999999 V17.17625000000001 Q35.95875 17.982500000000016 36.60375 18.627500000000026 Q37.24875 19.272500000000008 38.05500000000001 19.272500000000008 H116.74500000000002 Q117.55125000000001 19.272500000000008 118.19624999999999 18.627500000000026 Q118.84125 17.982500000000016 118.84125 17.17625000000001 V-60.06249999999999 H88.84875000000001 Z"/></g><g id="Thin-L" transform="matrix(1 0 0 1 787.282 1556)"><path d="M40.79625 25.400000000000006 Q36.4425 25.400000000000006 33.136875 22.094375000000014 Q29.83125 18.78875000000002 29.83125 14.435000000000002 V-84.895 Q29.83125 -89.24875 33.136875 -92.554375 Q36.4425 -95.86 40.79625 -95.86 H94.00874999999999 L124.96875 -65.06125 V14.435000000000002 Q124.96875 18.78875000000002 121.66312500000001 22.094375000000014 Q118.35750000000002 25.400000000000006 114.00375000000001 25.400000000000006 H40.79625 Z M90.6225 -61.83624999999999 V-88.76499999999999 H40.79625 Q39.345 -88.76499999999999 38.135625 -87.55562499999999 Q36.926249999999996 -86.34625 36.926249999999996 -84.895 V14.435000000000002 Q36.926249999999996 15.886250000000018 38.135625 17.095625000000013 Q39.345 18.305000000000007 40.79625 18.305000000000007 H114.00375000000001 Q115.455 18.305000000000007 116.66437499999999 17.095625000000013 Q117.87375 15.886250000000018 117.87375 14.435000000000002 V-61.83624999999999 H90.6225 Z"/></g><g id="Ultralight-L" transform="matrix(1 0 0 1 491.205 1556)"><path d="M42.57 23.465000000000003 Q38.21625 23.465000000000003 34.99125 20.24000000000001 Q31.76625 17.015000000000015 31.76625 12.66125000000001 V-83.12124999999999 Q31.76625 -87.63624999999999 34.99125 -90.78062499999999 Q38.21625 -93.925 42.57 -93.925 H94.4925 L123.03375 -65.54499999999999 V12.66125000000001 Q123.03375 17.015000000000015 119.889375 20.24000000000001 Q116.74500000000002 23.465000000000003 112.22999999999999 23.465000000000003 H42.57 Z M91.75125 -62.803749999999994 V-88.28125 H42.57 Q40.635 -88.28125 39.0225 -86.66874999999999 Q37.41 -85.05624999999999 37.41 -83.12124999999999 V12.66125000000001 Q37.41 14.596250000000012 39.0225 16.20875000000001 Q40.635 17.82125000000002 42.57 17.82125000000002 H112.22999999999999 Q114.16499999999999 17.82125000000002 115.7775 16.20875000000001 Q117.39 14.596250000000012 117.39 12.66125000000001 V-62.803749999999994 H91.75125 Z"/></g><g id="Bold-M" transform="matrix(1 0 0 1 2281.8 1126)"><path d="M31.25 20.52000000000001 Q24.25 20.52000000000001 19.25 15.585000000000008 Q14.25 10.64500000000001 14.25 3.5200000000000102 V-73.97999999999999 Q14.25 -81.10499999999999 19.25 -86.04499999999999 Q24.25 -90.97999999999999 31.25 -90.97999999999999 H71.125 L105.75 -56.60499999999999 V3.5200000000000102 Q105.75 10.64500000000001 100.75 15.585000000000008 Q95.75 20.52000000000001 88.75 20.52000000000001 H31.25 Z M62.375 -47.72999999999999 V-73.97999999999999 H31.25 Q31.25 -73.97999999999999 31.25 -73.97999999999999 Q31.25 -73.97999999999999 31.25 -73.97999999999999 V3.5200000000000102 Q31.25 3.5200000000000102 31.25 3.5200000000000102 Q31.25 3.5200000000000102 31.25 3.5200000000000102 H88.75 Q88.75 3.5200000000000102 88.75 3.5200000000000102 Q88.75 3.5200000000000102 88.75 3.5200000000000102 V-47.72999999999999 H62.375 Z"/></g><g id="Semibold-M" transform="matrix(1 0 0 1 1985.97 1126)"><path d="M30.5 19.77000000000001 Q24.125 19.77000000000001 19.625 15.27000000000001 Q15.125 10.77000000000001 15.125 4.39500000000001 V-74.85499999999999 Q15.125 -81.22999999999999 19.625 -85.72999999999999 Q24.125 -90.22999999999999 30.5 -90.22999999999999 H70.0 L104.875 -55.47999999999999 V4.39500000000001 Q104.875 10.77000000000001 100.375 15.27000000000001 Q95.875 19.77000000000001 89.5 19.77000000000001 H30.5 Z M62.25 -47.60499999999999 V-74.85499999999999 H30.5 Q30.5 -74.85499999999999 30.5 -74.85499999999999 Q30.5 -74.85499999999999 30.5 -74.85499999999999 V4.39500000000001 Q30.5 4.39500000000001 30.5 4.39500000000001 Q30.5 4.39500000000001 30.5 4.39500000000001 H89.5 Q89.5 4.39500000000001 89.5 4.39500000000001 Q89.5 4.39500000000001 89.5 4.39500000000001 V-47.60499999999999 H62.25 Z"/></g><g id="Medium-M" transform="matrix(1 0 0 1 1689.91 1126)"><path d="M29.875 19.14500000000001 Q24.125 19.14500000000001 19.94 15.02000000000001 Q15.75 10.89500000000001 15.75 5.02000000000001 V-75.47999999999999 Q15.75 -81.35499999999999 19.94 -85.47999999999999 Q24.125 -89.60499999999999 29.875 -89.60499999999999 H69.125 L104.25 -54.72999999999999 V5.02000000000001 Q104.25 10.89500000000001 100.06500000000001 15.02000000000001 Q95.875 19.14500000000001 90.125 19.14500000000001 H29.875 Z M62.125 -47.47999999999999 V-75.47999999999999 H29.875 Q29.875 -75.47999999999999 29.875 -75.47999999999999 Q29.875 -75.47999999999999 29.875 -75.47999999999999 V5.02000000000001 Q29.875 5.02000000000001 29.875 5.02000000000001 Q29.875 5.02000000000001 29.875 5.02000000000001 H90.125 Q90.125 5.02000000000001 90.125 5.02000000000001 Q90.125 5.02000000000001 90.125 5.02000000000001 V-47.47999999999999 H62.125 Z"/></g><g id="Regular-M" transform="matrix(1 0 0 1 1394.06 1126)"><path d="M29.5 18.77000000000001 Q24.0 18.77000000000001 20.125 14.89500000000001 Q16.25 11.02000000000001 16.25 5.52000000000001 V-75.97999999999999 Q16.25 -81.47999999999999 20.125 -85.35499999999999 Q24.0 -89.22999999999999 29.5 -89.22999999999999 H68.5 L103.75 -54.10499999999999 V5.52000000000001 Q103.75 11.02000000000001 99.875 14.89500000000001 Q96.0 18.77000000000001 90.5 18.77000000000001 H29.5 Z M62.0 -47.47999999999999 V-75.97999999999999 H29.5 Q29.5 -75.97999999999999 29.5 -75.97999999999999 Q29.5 -75.97999999999999 29.5 -75.97999999999999 V5.52000000000001 Q29.5 5.52000000000001 29.5 5.52000000000001 Q29.5 5.52000000000001 29.5 5.52000000000001 H90.5 Q90.5 5.52000000000001 90.5 5.52000000000001 Q90.5 5.52000000000001 90.5 5.52000000000001 V-47.47999999999999 H62.0 Z"/></g><g id="Light-M" transform="matrix(1 0 0 1 1098.18 1126)"><path d="M31.0 16.27000000000001 Q25.875 16.27000000000001 22.315 12.705000000000013 Q18.75 9.14500000000001 18.75 4.02000000000001 V-74.47999999999999 Q18.75 -79.60499999999999 22.315 -83.16999999999999 Q25.875 -86.72999999999999 31.0 -86.72999999999999 H69.75 L101.25 -55.35499999999999 V4.02000000000001 Q101.25 9.14500000000001 97.69 12.705000000000013 Q94.125 16.27000000000001 89.0 16.27000000000001 H31.0 Z M64.5 -49.97999999999999 V-75.97999999999999 H31.0 Q30.5 -75.97999999999999 30.0 -75.47999999999999 Q29.5 -74.97999999999999 29.5 -74.47999999999999 V4.02000000000001 Q29.5 4.52000000000001 30.0 5.02000000000001 Q30.5 5.52000000000001 31.0 5.52000000000001 H89.0 Q89.5 5.52000000000001 90.0 5.02000000000001 Q90.5 4.52000000000001 90.5 4.02000000000001 V-49.97999999999999 H64.5 Z"/></g><g id="Thin-M" transform="matrix(1 0 0 1 802.565 1126)"><path d="M32.625 13.77000000000001 Q27.75 13.77000000000001 24.5 10.52000000000001 Q21.25 7.27000000000001 21.25 2.3950000000000102 V-72.85499999999999 Q21.25 -77.72999999999999 24.5 -80.97999999999999 Q27.75 -84.22999999999999 32.625 -84.22999999999999 H71.0 L98.75 -56.60499999999999 V2.3950000000000102 Q98.75 7.27000000000001 95.5 10.52000000000001 Q92.25 13.77000000000001 87.375 13.77000000000001 H32.625 Z M67.0 -52.47999999999999 V-75.97999999999999 H32.625 Q31.375 -75.97999999999999 30.44 -75.04499999999999 Q29.5 -74.10499999999999 29.5 -72.85499999999999 V2.3950000000000102 Q29.5 3.6450000000000102 30.44 4.5800000000000125 Q31.375 5.52000000000001 32.625 5.52000000000001 H87.375 Q88.625 5.52000000000001 89.565 4.5800000000000125 Q90.5 3.6450000000000102 90.5 2.3950000000000102 V-52.47999999999999 H67.0 Z"/></g><g id="Ultralight-M" transform="matrix(1 0 0 1 506.415 1126)"><path d="M33.5 12.27000000000001 Q28.875 12.27000000000001 25.81 9.205000000000013 Q22.75 6.14500000000001 22.75 1.5200000000000102 V-71.97999999999999 Q22.75 -76.60499999999999 25.81 -79.66999999999999 Q28.875 -82.72999999999999 33.5 -82.72999999999999 H71.75 L97.25 -57.35499999999999 V1.5200000000000102 Q97.25 6.14500000000001 94.19 9.205000000000013 Q91.125 12.27000000000001 86.5 12.27000000000001 H33.5 Z M68.5 -53.97999999999999 V-75.97999999999999 H33.5 Q32.0 -75.97999999999999 30.75 -74.72999999999999 Q29.5 -73.47999999999999 29.5 -71.97999999999999 V1.5200000000000102 Q29.5 3.0200000000000102 30.75 4.27000000000001 Q32.0 5.52000000000001 33.5 5.52000000000001 H86.5 Q88.0 5.52000000000001 89.25 4.27000000000001 Q90.5 3.0200000000000102 90.5 1.5200000000000102 V-53.97999999999999 H68.5 Z"/></g><g id="Bold-S" transform="matrix(1 0 0 1 2294.23 696)"><path d="M27.021672000000002 7.177171999999999 Q21.795336 7.177171999999999 18.098081999999998 3.5319920000000025 Q14.400827999999999 -0.11792199999999298 14.400827999999999 -5.443671999999992 V-65.01632799999999 Q14.400827999999999 -70.34207799999999 18.145422 -73.987258 Q21.89475 -77.63717199999999 27.021672000000002 -77.63717199999999 H57.697992 L80.27917199999999 -55.250085999999996 V-5.443671999999992 Q80.27917199999999 -0.11792199999999298 76.53457800000001 3.5319920000000025 Q72.78525 7.177171999999999 67.658328 7.177171999999999 H27.021672000000002 Z M50.000507999999996 -47.457921999999996 V-65.01632799999999 H27.021672000000002 Q27.021672000000002 -65.01632799999999 27.021672000000002 -65.01632799999999 Q27.021672000000002 -65.01632799999999 27.021672000000002 -65.01632799999999 V-5.443671999999992 Q27.021672000000002 -5.443671999999992 27.021672000000002 -5.443671999999992 Q27.021672000000002 -5.443671999999992 27.021672000000002 -5.443671999999992 H67.658328 Q67.658328 -5.443671999999992 67.658328 -5.443671999999992 Q67.658328 -5.443671999999992 67.658328 -5.443671999999992 V-47.457921999999996 H50.000507999999996 Z"/></g><g id="Semibold-S" transform="matrix(1 0 0 1 1998.1 696)"><path d="M26.429922 6.585421999999994 Q21.695922 6.585421999999994 18.391589999999997 3.2810900000000203 Q15.091992000000001 -0.018507999999997082 15.091992000000001 -4.752508000000006 V-65.707492 Q15.091992000000001 -70.441492 18.443664 -73.74108999999999 Q21.795336 -77.04542199999999 26.429922 -77.04542199999999 H56.808 L79.588008 -54.36482799999999 V-4.752508000000006 Q79.588008 -0.018507999999997082 76.236336 3.2810900000000203 Q72.884664 6.585421999999994 68.250078 6.585421999999994 H26.429922 Z M49.905828 -47.35850799999999 V-65.707492 H26.429922 Q26.429922 -65.707492 26.429922 -65.707492 Q26.429922 -65.707492 26.429922 -65.707492 V-4.752508000000006 Q26.429922 -4.752508000000006 26.429922 -4.752508000000006 Q26.429922 -4.752508000000006 26.429922 -4.752508000000006 H68.250078 Q68.250078 -4.752508000000006 68.250078 -4.752508000000006 Q68.250078 -4.752508000000006 68.250078 -4.752508000000006 V-47.35850799999999 H49.905828 Z"/></g><g id="Medium-S" transform="matrix(1 0 0 1 1701.85 696)"><path d="M25.937586 6.093086 Q21.695922 6.093086 18.642492 3.0869960000000134 Q15.584328 0.07617199999999968 15.584328 -4.260171999999983 V-66.199828 Q15.584328 -70.536172 18.642492 -73.546996 Q21.695922 -76.553086 25.937586 -76.553086 H56.116836 L79.095672 -53.77307799999999 V-4.260171999999983 Q79.095672 0.07617199999999968 76.037508 3.0869960000000134 Q72.984078 6.093086 68.742414 6.093086 H25.937586 Z M49.806414000000004 -47.26382799999999 V-66.199828 H25.937586 Q25.937586 -66.199828 25.937586 -66.199828 Q25.937586 -66.199828 25.937586 -66.199828 V-4.260171999999983 Q25.937586 -4.260171999999983 25.937586 -4.260171999999983 Q25.937586 -4.260171999999983 25.937586 -4.260171999999983 H68.742414 Q68.742414 -4.260171999999983 68.742414 -4.260171999999983 Q68.742414 -4.260171999999983 68.742414 -4.260171999999983 V-47.26382799999999 H49.806414000000004 Z"/></g><g id="Regular-S" transform="matrix(1 0 0 1 1405.73 696)"><path d="M25.644078 5.799578000000011 Q21.596508 5.799578000000011 18.789246 2.935508000000013 Q15.97725 0.07617199999999968 15.97725 -3.8672499999999985 V-66.59275 Q15.97725 -70.536172 18.836586 -73.39550799999999 Q21.695922 -76.25957799999999 25.644078 -76.25957799999999 H55.6245 L78.70275 -53.27600799999999 V-3.8672499999999985 Q78.70275 0.07617199999999968 75.84341400000001 2.935508000000013 Q72.984078 5.799578000000011 69.035922 5.799578000000011 H25.644078 Z M49.707 -47.26382799999999 V-66.59275 H25.644078 Q25.644078 -66.59275 25.644078 -66.59275 Q25.644078 -66.59275 25.644078 -66.59275 V-3.8672499999999985 Q25.644078 -3.8672499999999985 25.644078 -3.8672499999999985 Q25.644078 -3.8672499999999985 25.644078 -3.8672499999999985 H69.035922 Q69.035922 -3.8672499999999985 69.035922 -3.8672499999999985 Q69.035922 -3.8672499999999985 69.035922 -3.8672499999999985 V-47.26382799999999 H49.707 Z"/></g><g id="Light-S" transform="matrix(1 0 0 1 1109.75 696)"><path d="M26.827578 3.8255000000000052 Q23.07825 3.8255000000000052 20.512422 1.2123320000000035 Q17.951328 -1.400835999999984 17.951328 -5.050749999999994 V-65.40924999999999 Q17.951328 -69.059164 20.564496000000002 -71.672332 Q23.177664 -74.2855 26.827578 -74.2855 H56.609172 L76.72867199999999 -54.26541399999999 V-5.050749999999994 Q76.72867199999999 -1.400835999999984 74.115504 1.2123320000000035 Q71.502336 3.8255000000000052 67.852422 3.8255000000000052 H26.827578 Z M51.681078 -49.233171999999996 V-66.59275 H26.827578 Q26.429922 -66.59275 26.037 -66.199828 Q25.644078 -65.802172 25.644078 -65.40924999999999 V-5.050749999999994 Q25.644078 -4.657827999999995 26.037 -4.260171999999983 Q26.429922 -3.8672499999999985 26.827578 -3.8672499999999985 H67.852422 Q68.250078 -3.8672499999999985 68.643 -4.260171999999983 Q69.035922 -4.657827999999995 69.035922 -5.050749999999994 V-49.233171999999996 H51.681078 Z"/></g><g id="Thin-S" transform="matrix(1 0 0 1 814.015 696)"><path d="M28.011077999999998 1.8514219999999995 Q24.559991999999998 1.8514219999999995 22.240332000000002 -0.515578000000005 Q19.920672 -2.882577999999995 19.920672 -6.333663999999999 V-64.126336 Q19.920672 -67.577422 22.287672 -69.94442199999999 Q24.654672 -72.311422 28.110491999999997 -72.311422 H57.598577999999996 L74.759328 -55.250085999999996 V-6.333663999999999 Q74.759328 -2.882577999999995 72.39232799999999 -0.515578000000005 Q70.025328 1.8514219999999995 66.569508 1.8514219999999995 H28.011077999999998 Z M53.650422 -51.207249999999995 V-66.59275 H28.110491999999997 Q27.121086000000002 -66.59275 26.382582000000003 -65.85424599999999 Q25.644078 -65.111008 25.644078 -64.126336 V-6.333663999999999 Q25.644078 -5.348991999999981 26.382582000000003 -4.60575399999999 Q27.121086000000002 -3.8672499999999985 28.110491999999997 -3.8672499999999985 H66.569508 Q67.558914 -3.8672499999999985 68.297418 -4.60575399999999 Q69.035922 -5.348991999999981 69.035922 -6.333663999999999 V-51.207249999999995 H53.650422 Z"/></g><g id="Ultralight-S" transform="matrix(1 0 0 1 517.792 696)"><path d="M28.796922000000002 0.6679220000000043 Q25.44525 0.6679220000000043 23.277078 -1.5475899999999996 Q21.104172000000002 -3.7678359999999884 21.104172000000002 -7.024827999999999 V-63.435171999999994 Q21.104172000000002 -66.69216399999999 23.324417999999998 -68.91241 Q25.544664 -71.127922 28.796922000000002 -71.127922 H58.190328 L73.575828 -55.841835999999994 V-7.024827999999999 Q73.575828 -3.7678359999999884 71.355582 -1.5475899999999996 Q69.135336 0.6679220000000043 65.883078 0.6679220000000043 H28.796922000000002 Z M54.833922 -52.39075 V-66.59275 H28.796922000000002 Q27.613422 -66.59275 26.62875 -65.60807799999999 Q25.644078 -64.61867199999999 25.644078 -63.435171999999994 V-7.024827999999999 Q25.644078 -5.841328000000004 26.62875 -4.851921999999988 Q27.613422 -3.8672499999999985 28.796922000000002 -3.8672499999999985 H65.883078 Q67.06657799999999 -3.8672499999999985 68.05125 -4.851921999999988 Q69.035922 -5.841328000000004 69.035922 -7.024827999999999 V-52.39075 H54.833922 Z"/></g></g></svg>