<svg xmlns="http://www.w3.org/2000/svg" height="24" width="24"><path d="M2.6 17.35q-.25-.3-.25-.625t.275-.575l5.925-5.925q.15-.2.35-.263.2-.062.425-.062.225 0 .413.062.187.063.387.263l3.3 3.3L19.2 7.8h-2.1q-.325 0-.575-.25-.25-.25-.25-.575 0-.35.25-.588.25-.237.575-.237h3.775q.475 0 .788.312.312.313.312.788v3.825q0 .325-.237.575-.238.25-.588.25-.325 0-.575-.25-.25-.25-.25-.575V8.95l-6.1 6.15q-.175.2-.387.275-.213.075-.413.075-.2 0-.4-.075t-.375-.275l-3.325-3.3-5.575 5.575q-.225.225-.55.225-.325 0-.6-.25Z"/></svg>