<svg xmlns="http://www.w3.org/2000/svg" height="20" width="20"><path d="M9.979 12.458Q8.958 12.458 8.25 11.75Q7.542 11.042 7.542 10.021Q7.542 8.979 8.25 8.26Q8.958 7.542 9.979 7.542Q11.021 7.542 11.74 8.26Q12.458 8.979 12.458 10.021Q12.458 11.042 11.74 11.75Q11.021 12.458 9.979 12.458ZM2.688 7.583V4.333Q2.688 3.646 3.167 3.167Q3.646 2.688 4.333 2.688H7.583V4.333H4.333Q4.333 4.333 4.333 4.333Q4.333 4.333 4.333 4.333V7.583ZM7.583 17.312H4.333Q3.646 17.312 3.167 16.833Q2.688 16.354 2.688 15.667V12.417H4.333V15.667Q4.333 15.667 4.333 15.667Q4.333 15.667 4.333 15.667H7.583ZM12.417 17.312V15.667H15.667Q15.667 15.667 15.667 15.667Q15.667 15.667 15.667 15.667V12.417H17.312V15.667Q17.312 16.354 16.833 16.833Q16.354 17.312 15.667 17.312ZM15.667 7.583V4.333Q15.667 4.333 15.667 4.333Q15.667 4.333 15.667 4.333H12.417V2.688H15.667Q16.354 2.688 16.833 3.167Q17.312 3.646 17.312 4.333V7.583Z"/></svg>