<svg xmlns="http://www.w3.org/2000/svg" height="48" width="48"><path d="M24 27.15Q22.65 27.15 21.75 26.25Q20.85 25.35 20.85 24Q20.85 22.65 21.75 21.75Q22.65 20.85 24 20.85Q25.35 20.85 26.25 21.75Q27.15 22.65 27.15 24Q27.15 25.35 26.25 26.25Q25.35 27.15 24 27.15ZM8.6 17.9V11.3Q8.6 10.15 9.375 9.375Q10.15 8.6 11.3 8.6H17.9V9.7H11.3Q10.7 9.7 10.2 10.2Q9.7 10.7 9.7 11.3V17.9ZM17.9 39.4H11.3Q10.15 39.4 9.375 38.625Q8.6 37.85 8.6 36.7V30.1H9.7V36.7Q9.7 37.3 10.2 37.8Q10.7 38.3 11.3 38.3H17.9ZM30.1 39.4V38.3H36.7Q37.3 38.3 37.8 37.8Q38.3 37.3 38.3 36.7V30.1H39.4V36.7Q39.4 37.85 38.625 38.625Q37.85 39.4 36.7 39.4ZM38.3 17.9V11.3Q38.3 10.7 37.8 10.2Q37.3 9.7 36.7 9.7H30.1V8.6H36.7Q37.85 8.6 38.625 9.375Q39.4 10.15 39.4 11.3V17.9Z"/></svg>