<svg xmlns="http://www.w3.org/2000/svg" height="48" width="48"><path d="M32 44.6q-3.5 0-5.4-1.275-1.9-1.275-3.15-2.575-.85-.85-1.625-1.5t-1.875-.65q-2.3 0-5.175-.85T9.4 35.05q-2.5-1.85-4.225-4.825Q3.45 27.25 3.4 22.95q0-8.45 4.375-14Q12.15 3.4 19.95 3.4q3.5 0 6.025.975Q28.5 5.35 30.3 6.9q1.8 1.55 3.075 3.4 1.275 1.85 2.375 3.6.6 1 1.25 1.975.65.975 1.45 1.725 3.05 3.1 4.6 5.375Q44.6 25.25 44.6 30q0 6.3-3.925 10.45Q36.75 44.6 32 44.6Zm-8-14.7q2.5 0 4.225-1.725Q29.95 26.45 29.95 24q0-2.5-1.75-4.225-1.75-1.725-4.2-1.725t-4.175 1.75Q18.1 21.55 18.1 24t1.725 4.175Q21.55 29.9 24 29.9Z"/></svg>