<svg xmlns="http://www.w3.org/2000/svg" height="48" width="48"><path d="M21.85 18.55q-1.1 0-1.95-.825-.85-.825-.85-1.975 0-1.1.85-1.9.85-.8 1.95-.8t1.9.8q.8.8.8 1.9 0 1.15-.8 1.975-.8.825-1.9.825Zm-9.35 22.6q-.4 0-.65-.25t-.25-.65q0-.35.25-.6t.65-.25h9.3V33h-1.5q-3.7 0-6.2-2.625T11.6 24q0-2.7 1.475-4.9t4.025-3.3q-.05.2-.025.725.025.525.275.925-1.75.9-2.875 2.6-1.125 1.7-1.125 3.95 0 3.05 2.125 5.15 2.125 2.1 5.175 2.1h14.7q.35 0 .6.25t.25.6q0 .4-.25.65t-.6.25h-11.3v6.4h11.5q.35 0 .6.25t.25.6q0 .4-.25.65t-.6.25Zm18.3-18.7q-.55.2-1-.075-.45-.275-.6-.675l-.3-.65-.6.25q-.75.25-1.275-.025Q26.5 21 26.2 20.35l-.65-1.7q.65-.65.85-1.45.2-.8.2-1.45 0-1.7-1.075-2.975Q24.45 11.5 22.85 11.15l-.6-1.5q-.15-.45.025-1.075T23.1 7.6l.55-.2-.25-.75q0-.4.125-.925T24.15 5q.4-.15.85.175.45.325.65.725l.2.7.5-.2q.7-.15 1.2.175.5.325.7.875l3.95 10.6q.2.55.025 1.125-.175.575-.775.875l-.55.2.3.7q.1.45 0 .9t-.4.6Z"/></svg>