<svg xmlns="http://www.w3.org/2000/svg" height="24" width="24"><path d="M8.5 15.9Q9.325 15.9 9.9 15.325Q10.475 14.75 10.475 13.925Q10.475 13.1 9.9 12.525Q9.325 11.95 8.5 11.95Q7.675 11.95 7.1 12.525Q6.525 13.1 6.525 13.925Q6.525 14.75 7.1 15.325Q7.675 15.9 8.5 15.9ZM12 10.35Q12.825 10.35 13.4 9.775Q13.975 9.2 13.975 8.375Q13.975 7.55 13.4 6.975Q12.825 6.4 12 6.4Q11.175 6.4 10.6 6.975Q10.025 7.55 10.025 8.375Q10.025 9.2 10.6 9.775Q11.175 10.35 12 10.35ZM15.5 15.9Q16.325 15.9 16.9 15.325Q17.475 14.75 17.475 13.925Q17.475 13.1 16.9 12.525Q16.325 11.95 15.5 11.95Q14.675 11.95 14.1 12.525Q13.525 13.1 13.525 13.925Q13.525 14.75 14.1 15.325Q14.675 15.9 15.5 15.9ZM12 21.95Q9.925 21.95 8.113 21.163Q6.3 20.375 4.963 19.038Q3.625 17.7 2.838 15.887Q2.05 14.075 2.05 12Q2.05 9.925 2.838 8.113Q3.625 6.3 4.963 4.963Q6.3 3.625 8.113 2.837Q9.925 2.05 12 2.05Q14.075 2.05 15.887 2.837Q17.7 3.625 19.038 4.963Q20.375 6.3 21.163 8.113Q21.95 9.925 21.95 12Q21.95 14.075 21.163 15.887Q20.375 17.7 19.038 19.038Q17.7 20.375 15.887 21.163Q14.075 21.95 12 21.95ZM12 12Q12 12 12 12Q12 12 12 12Q12 12 12 12Q12 12 12 12Q12 12 12 12Q12 12 12 12Q12 12 12 12Q12 12 12 12ZM12 19.8Q15.225 19.8 17.513 17.525Q19.8 15.25 19.8 12Q19.8 8.75 17.513 6.475Q15.225 4.2 12 4.2Q8.775 4.2 6.488 6.475Q4.2 8.75 4.2 12Q4.2 15.25 6.488 17.525Q8.775 19.8 12 19.8Z"/></svg>