<svg xmlns="http://www.w3.org/2000/svg" height="20" viewBox="0 -960 960 960" width="20"><path d="M277.28-136.17q-55.41 0-93.21-38.79-37.79-38.8-36.79-94.21H59.69l29.22-93h105.13q15.48-15.79 37.11-25.39 21.63-9.61 46.07-9.61 24.63 0 46.48 9.61 21.84 9.6 37.33 25.39h196.22l85.51-344.66h-436l8.92-28.39q9.39-29.23 33.65-46.92 24.27-17.69 54.5-17.69h457.71L720.83-634.5h85.43l125.85 175.61-53.35 189.72h-46.09q1 55.41-37.01 94.21-38.01 38.79-93.38 38.79-55.41 0-93.21-38.79-37.79-38.8-36.79-94.21h-164.5q1 55.65-37.04 94.32-38.04 38.68-93.46 38.68Zm393.09-298h153.46l3.69-10.46-69.45-96.87h-60.39l-27.31 107.33Zm-32.04-252.79 4.43-19.87-85.39 344.66 4.43-20.44 36.96-147.96 39.57-156.39ZM20.3-414.3l23.05-93h211.74l-23.05 93H20.3Zm71.5-147.96 23.22-93h247.57l-23.22 93H91.8Zm185.35 333.09q15.88 0 26.76-10.75 10.87-10.74 10.87-26.62t-10.74-26.76q-10.74-10.87-26.62-10.87-15.89 0-26.76 10.74-10.88 10.74-10.88 26.62 0 15.89 10.75 26.76 10.74 10.88 26.62 10.88Zm425 0q15.88 0 26.76-10.75 10.87-10.74 10.87-26.62t-10.74-26.76q-10.74-10.87-26.62-10.87-15.89 0-26.76 10.74-10.88 10.74-10.88 26.62 0 15.89 10.75 26.76 10.74 10.88 26.62 10.88Z"/></svg>