<svg xmlns="http://www.w3.org/2000/svg" height="20" viewBox="0 -960 960 960" width="20"><path d="M668-148q-34 0-48.05-15.21Q605.91-178.42 602-184q-12-12-16.5-12H516q-21.16 0-31.58-14.27Q474-224.55 474-239.06q0-7.94 5-16.94t15-17l31-27q9-8 14.5-18t5.5-22v-199q0-8-2-15.5t-7-14.5l-54-79q-5-7-7-12t-2-13q0-16.16 11.92-29.58Q496.84-716 517-716h168q21.36 0 33.18 14T730-671.79q0 5.79-2.5 12.45-2.5 6.66-6.5 13.34l-55 78q-5 6-7 14t-2 16v209q0 11 4 20t12 17l32 32q10 8 17 22.03 7 14.04 7 28.97 0 26.08-17.46 43.54T668-148Zm0-20q17.42 0 29.21-11.92T709-209.45q0-15.55-8.5-25.55l-8.5-10-33-32q-10-10-16-23.59t-6-28.68v-209.46q0-11.27 3.14-21.94 3.14-10.66 9.42-19.55l55.65-79.11q-.21.33 3.79-13.26 0-9.41-6.5-16.41t-17.5-7H517q-11 0-17.5 7.04-6.5 7.05-6.5 16.44 0 3.89 1.5 7.21Q496-662 498-659l54.81 79.11Q559-570 562-559.71q3 10.29 3 20.93V-341q0 17-6.5 31T539-285l-34 28q-6 5-8.5 9.3-2.5 4.31-2.5 9.05 0 8.91 7.5 15.78Q509-216 516-216h58q16 0 30 6t24 18q8 9 15.5 16.5T668-168Zm-294-34q-5.5 4-11.75 5.5T351-195q-16.13 0-32.07-13Q303-221 303-244v-358q0-11-2-21t-7-19l-60.4-123.02q-1.6-3.98-2.1-7.45-.5-3.46-.5-6.93 0-10.6 8.42-21.6 8.42-11 23.58-11h128v84q0 5 3.5 8.5t8.5 3.5h40q13.16 0 23.08 9.24 9.92 9.24 9.92 22.62 0 4.14-1.5 10.64Q473-667 468-661l-35 39.66q-9 12-13.5 26t-4.5 29V-401q0 14 3.5 27.5T430-349l40 61q4.24 3.88 4.62 7.41.38 3.52.38 8.59 0 9.69-5.86 16.51-5.87 6.83-13.14 10.49l-82 43Zm-11-17 85-43q3-2 5-4.5t2-6.5q0-4-2-6l-46-69q-6-9-8.5-18.5T395-387v-190q0-12 3-24t11-22l44-53q1-1 3-8 0-4.8-3.5-8.4-3.5-3.6-9.5-3.6h-24q-20.4 0-34.2-13.51Q371-723.03 371-743v-49H263q-4.8 0-8.4 3.76-3.6 3.77-3.6 9.24 0 6 1 4l64 133q4 8 5.5 15.47 1.5 7.48 1.5 15.53v367q0 11.85 8 19.92 8 8.08 19 8.08 1 0 13-3Zm238-213Zm-248-72Z"/></svg>