<svg xmlns="http://www.w3.org/2000/svg" height="20" viewBox="0 -960 960 960" width="20"><path d="m270-257.62 41.08-89.46q6.15-11.46 16.61-18.3 10.46-6.85 25-6.85H451v-174.54q-133.85-4.69-222.08-32.85-88.23-28.17-88.23-68.85 0-45.22 98.02-73.11 98.03-27.88 240.99-27.88 142.22 0 240.92 27.69 98.69 27.69 98.69 73.77 0 41.26-89.12 68.9-89.11 27.64-221.19 32.33v174.54h98.31q15.15 0 25.31 6.85 10.15 6.84 16.3 18.3L690-257.62q6.15 14.54-1.32 26.97-7.48 12.42-23.76 12.42-8.93 0-16.04-5.31-7.11-5.31-9.8-10.92l-38.85-79.77H359.77l-39.62 80.77q-2.69 5.61-9.41 10.42-6.73 4.81-16.66 4.81-14.77 0-22.5-11.92-7.73-11.93-1.58-27.47Zm210.19-346.92q90.58 0 160.46-12.58 69.89-12.57 96.12-30.88-26.23-19.31-96.31-31.38-70.07-12.08-160.65-12.08-91.58 0-160.96 12.08-69.39 12.07-95.62 31.38 26.23 18.31 95.81 30.88 69.57 12.58 161.15 12.58ZM480-642Z"/></svg>