<svg xmlns="http://www.w3.org/2000/svg" version="1.1" width="3300" height="2000"><g id="Notes"><style>
    text {
      font-family: monospace;
      text-anchor: middle;
    }
    text.emphasis {
      font-weight:bold;
    }
    text.lanchor {
      text-anchor: start;
    }
  </style><rect height="2200" id="artboard" fill="white" width="3300" x="0" y="0"/><line id="" style="fill:none;stroke:black;stroke-width:0.5;" x1="263" x2="3036" y1="292" y2="292"/><text class="lanchor emphasis" transform="matrix(1 0 0 1 263 322)">Weight/Scale Variations</text><text transform="matrix(1 0 0 1 559.711 322)">Ultralight</text><text transform="matrix(1 0 0 1 856.422 322)">Thin</text><text transform="matrix(1 0 0 1 1153.13 322)">Light</text><text transform="matrix(1 0 0 1 1449.84 322)">Regular</text><text transform="matrix(1 0 0 1 1746.56 322)">Medium</text><text transform="matrix(1 0 0 1 2043.27 322)">Semibold</text><text transform="matrix(1 0 0 1 2339.98 322)">Bold</text><text transform="matrix(1 0 0 1 2636.69 322)">Heavy</text><text transform="matrix(1 0 0 1 2933.4 322)">Black</text><text id="template-version" style="text-anchor: end;" transform="matrix(1 0 0 1 3036 1933)">Template v.1.0</text><text class="lanchor" transform="matrix(1 0 0 1 263 726)">Small</text><text class="lanchor" transform="matrix(1 0 0 1 263 1156)">Medium</text><text class="lanchor" transform="matrix(1 0 0 1 263 1586)">Large</text></g><g id="Guides"><g id="H-reference" style="fill:#27AAE1;stroke:none;" transform="matrix(1 0 0 1 339 696)"><path d="M 54.9316 0 L 57.666 0 L 30.5664 -70.459 L 28.0762 -70.459 L 0.976562 0 L 3.66211 0 L 12.9395 -24.4629 L 45.7031 -24.4629 Z M 29.1992 -67.0898 L 29.4434 -67.0898 L 44.8242 -26.709 L 13.8184 -26.709 Z"/></g><line id="Baseline-S" style="fill:none;stroke:#27AAE1;opacity:1;stroke-width:0.577;" x1="263" x2="3036" y1="696" y2="696"/><line id="Capline-S" style="fill:none;stroke:#27AAE1;opacity:1;stroke-width:0.577;" x1="263" x2="3036" y1="625.541" y2="625.541"/><g id="H-reference" style="fill:#27AAE1;stroke:none;" transform="matrix(1 0 0 1 339 1126)"><path d="M 54.9316 0 L 57.666 0 L 30.5664 -70.459 L 28.0762 -70.459 L 0.976562 0 L 3.66211 0 L 12.9395 -24.4629 L 45.7031 -24.4629 Z M 29.1992 -67.0898 L 29.4434 -67.0898 L 44.8242 -26.709 L 13.8184 -26.709 Z"/></g><line id="Baseline-M" style="fill:none;stroke:#27AAE1;opacity:1;stroke-width:0.577;" x1="263" x2="3036" y1="1126" y2="1126"/><line id="Capline-M" style="fill:none;stroke:#27AAE1;opacity:1;stroke-width:0.577;" x1="263" x2="3036" y1="1055.54" y2="1055.54"/><g id="H-reference" style="fill:#27AAE1;stroke:none;" transform="matrix(1 0 0 1 339 1556)"><path d="M 54.9316 0 L 57.666 0 L 30.5664 -70.459 L 28.0762 -70.459 L 0.976562 0 L 3.66211 0 L 12.9395 -24.4629 L 45.7031 -24.4629 Z M 29.1992 -67.0898 L 29.4434 -67.0898 L 44.8242 -26.709 L 13.8184 -26.709 Z"/></g><line id="Baseline-L" style="fill:none;stroke:#27AAE1;opacity:1;stroke-width:0.577;" x1="263" x2="3036" y1="1556" y2="1556"/><line id="Capline-L" style="fill:none;stroke:#27AAE1;opacity:1;stroke-width:0.577;" x1="263" x2="3036" y1="1485.54" y2="1485.54"/><rect height="119.336" id="left-margin" style="fill:darkred;stroke:none;opacity:0.4;" width="12.4512" x="1394.06" y="1030.79"/><rect height="119.336" id="right-margin" style="fill:darkgreen;stroke:none;opacity:0.4;" width="12.4512" x="1502.5112" y="1030.79"/><rect x="1406.5112" y="1045" width="96" height="96" fill="none" stroke="blue" stroke-dasharray="5"/><rect x="1394.06" y="1030.79" width="120.9024" height="119.336" fill="none" stroke="blue"/></g><g id="Symbols"><g id="Bold-L" transform="matrix(1 0 0 1 2266 1556)"><path d="M61.597500000000004 35.23625000000001 Q58.695 35.23625000000001 56.4375 33.05937499999999 Q54.18000000000001 30.88250000000002 54.18000000000001 27.818749999999994 V-98.44 Q54.18000000000001 -101.50375 56.4375 -103.68062499999999 Q58.695 -105.85749999999999 61.597500000000004 -105.85749999999999 Q64.66125000000001 -105.85749999999999 66.7575 -103.68062499999999 Q68.85375 -101.50375 68.85375 -98.44 V27.818749999999994 Q68.85375 30.88250000000002 66.7575 33.05937499999999 Q64.66125000000001 35.23625000000001 61.597500000000004 35.23625000000001 Z M29.508750000000003 -3.4637499999999903 Q26.60625 -3.4637499999999903 24.34875 -5.640625 Q22.09125 -7.8174999999999955 22.09125 -10.881249999999994 V-59.74 Q22.09125 -62.803749999999994 24.34875 -64.980625 Q26.60625 -67.1575 29.508750000000003 -67.1575 Q32.41125 -67.1575 34.66875 -64.980625 Q36.926249999999996 -62.803749999999994 36.926249999999996 -59.74 V-10.881249999999994 Q36.926249999999996 -7.8174999999999955 34.66875 -5.640625 Q32.41125 -3.4637499999999903 29.508750000000003 -3.4637499999999903 Z M93.36375 9.436250000000015 Q90.46125 9.436250000000015 88.20375000000001 7.259375000000006 Q85.94624999999999 5.08250000000001 85.94624999999999 2.018749999999997 V-72.63999999999999 Q85.94624999999999 -75.70375 88.20375000000001 -77.880625 Q90.46125 -80.0575 93.36375 -80.0575 Q96.26625000000001 -80.0575 98.52375 -77.880625 Q100.78125 -75.70375 100.78125 -72.63999999999999 V2.018749999999997 Q100.78125 5.08250000000001 98.52375 7.259375000000006 Q96.26625000000001 9.436250000000015 93.36375 9.436250000000015 Z M125.4525 -9.913749999999993 Q122.55 -9.913749999999993 120.29249999999999 -12.090624999999989 Q118.03500000000001 -14.267499999999998 118.03500000000001 -17.331249999999997 V-53.29 Q118.03500000000001 -56.35375 120.29249999999999 -58.530625 Q122.55 -60.70749999999999 125.4525 -60.70749999999999 Q128.51625 -60.70749999999999 130.6125 -58.530625 Q132.70875 -56.35375 132.70875 -53.29 V-17.331249999999997 Q132.70875 -14.267499999999998 130.6125 -12.090624999999989 Q128.51625 -9.913749999999993 125.4525 -9.913749999999993 Z"/></g><g id="Semibold-L" transform="matrix(1 0 0 1 1970.27 1556)"><path d="M62.24250000000001 33.62375 Q59.50125 33.62375 57.485625 31.608125 Q55.47 29.5925 55.47 26.690000000000026 V-97.31125 Q55.47 -100.0525 57.485625 -102.068125 Q59.50125 -104.08375 62.24250000000001 -104.08375 Q64.98375 -104.08375 66.91875 -102.068125 Q68.85375 -100.0525 68.85375 -97.31125 V26.690000000000026 Q68.85375 29.5925 66.91875 31.608125 Q64.98375 33.62375 62.24250000000001 33.62375 Z M31.44375 -5.0762499999999875 Q28.86375 -5.0762499999999875 26.767500000000002 -7.0918749999999875 Q24.67125 -9.107499999999987 24.67125 -12.009999999999991 V-58.61124999999999 Q24.67125 -61.35249999999999 26.767500000000002 -63.36812499999999 Q28.86375 -65.38374999999999 31.44375 -65.38374999999999 Q34.185 -65.38374999999999 36.200625 -63.36812499999999 Q38.21625 -61.35249999999999 38.21625 -58.61124999999999 V-12.009999999999991 Q38.21625 -9.107499999999987 36.200625 -7.0918749999999875 Q34.185 -5.0762499999999875 31.44375 -5.0762499999999875 Z M92.71875 7.823750000000018 Q89.97749999999999 7.823750000000018 87.96187499999999 5.808125000000018 Q85.94624999999999 3.792500000000018 85.94624999999999 0.8900000000000148 V-71.51124999999999 Q85.94624999999999 -74.2525 87.96187499999999 -76.268125 Q89.97749999999999 -78.28375 92.71875 -78.28375 Q95.46000000000001 -78.28375 97.47562500000001 -76.268125 Q99.49125000000001 -74.2525 99.49125000000001 -71.51124999999999 V0.8900000000000148 Q99.49125000000001 3.792500000000018 97.47562500000001 5.808125000000018 Q95.46000000000001 7.823750000000018 92.71875 7.823750000000018 Z M123.5175 -11.52624999999999 Q120.77625000000002 -11.52624999999999 118.76062500000002 -13.54187499999999 Q116.74500000000002 -15.55749999999999 116.74500000000002 -18.459999999999994 V-52.161249999999995 Q116.74500000000002 -55.06374999999999 118.76062500000002 -56.998749999999994 Q120.77625000000002 -58.933749999999996 123.5175 -58.933749999999996 Q126.25874999999999 -58.933749999999996 128.19375 -56.918124999999996 Q130.12875 -54.902499999999996 130.12875 -52.161249999999995 V-18.459999999999994 Q130.12875 -15.55749999999999 128.19375 -13.54187499999999 Q126.25874999999999 -11.52624999999999 123.5175 -11.52624999999999 Z"/></g><g id="Medium-L" transform="matrix(1 0 0 1 1674.31 1556)"><path d="M62.72625 32.33375000000001 Q60.146249999999995 32.33375000000001 58.291875 30.398750000000007 Q56.4375 28.463750000000005 56.4375 26.045000000000016 V-96.66624999999999 Q56.4375 -99.085 58.291875 -100.939375 Q60.146249999999995 -102.79374999999999 62.72625 -102.79374999999999 Q65.30625 -102.79374999999999 67.08 -100.939375 Q68.85375 -99.085 68.85375 -96.66624999999999 V26.045000000000016 Q68.85375 28.463750000000005 67.08 30.398750000000007 Q65.30625 32.33375000000001 62.72625 32.33375000000001 Z M32.894999999999996 -6.3662499999999795 Q30.47625 -6.3662499999999795 28.541249999999998 -8.301249999999982 Q26.60625 -10.236249999999998 26.60625 -12.654999999999987 V-57.966249999999995 Q26.60625 -60.385 28.541249999999998 -62.239374999999995 Q30.47625 -64.09375 32.894999999999996 -64.09375 Q35.475 -64.09375 37.329375 -62.239374999999995 Q39.18375 -60.385 39.18375 -57.966249999999995 V-12.654999999999987 Q39.18375 -10.236249999999998 37.329375 -8.301249999999982 Q35.475 -6.3662499999999795 32.894999999999996 -6.3662499999999795 Z M92.23500000000001 6.533750000000012 Q89.81625000000001 6.533750000000012 87.88125000000001 4.59875000000001 Q85.94624999999999 2.6637500000000074 85.94624999999999 0.24500000000000455 V-70.86625 Q85.94624999999999 -73.285 87.88125000000001 -75.139375 Q89.81625000000001 -76.99374999999999 92.23500000000001 -76.99374999999999 Q94.815 -76.99374999999999 96.669375 -75.139375 Q98.52375 -73.285 98.52375 -70.86625 V0.24500000000000455 Q98.52375 2.6637500000000074 96.669375 4.59875000000001 Q94.815 6.533750000000012 92.23500000000001 6.533750000000012 Z M121.905 -12.816249999999997 Q119.48625 -12.816249999999997 117.63187500000001 -14.751249999999985 Q115.7775 -16.686249999999987 115.7775 -19.10499999999999 V-51.51625 Q115.7775 -53.934999999999995 117.63187500000001 -55.78937499999999 Q119.48625 -57.64374999999999 121.905 -57.64374999999999 Q124.64625 -57.64374999999999 126.42000000000002 -55.78937499999999 Q128.19375 -53.934999999999995 128.19375 -51.51625 V-19.10499999999999 Q128.19375 -16.686249999999987 126.42000000000002 -14.751249999999985 Q124.64625 -12.816249999999997 121.905 -12.816249999999997 Z"/></g><g id="Regular-L" transform="matrix(1 0 0 1 1378.56 1556)"><path d="M63.048750000000005 31.366250000000008 Q60.63 31.366250000000008 58.85625 29.5925 Q57.082499999999996 27.818749999999994 57.082499999999996 25.400000000000006 V-96.02125 Q57.082499999999996 -98.44 58.85625 -100.13312499999999 Q60.63 -101.82624999999999 63.048750000000005 -101.82624999999999 Q65.4675 -101.82624999999999 67.160625 -100.13312499999999 Q68.85375 -98.44 68.85375 -96.02125 V25.400000000000006 Q68.85375 27.818749999999994 67.160625 29.5925 Q65.4675 31.366250000000008 63.048750000000005 31.366250000000008 Z M34.02375 -7.333749999999995 Q31.605000000000004 -7.333749999999995 29.83125 -9.107499999999987 Q28.057499999999997 -10.881249999999994 28.057499999999997 -13.299999999999997 V-57.32125 Q28.057499999999997 -59.74 29.83125 -61.433125 Q31.605000000000004 -63.12624999999999 34.02375 -63.12624999999999 Q36.4425 -63.12624999999999 38.135625 -61.433125 Q39.82875 -59.74 39.82875 -57.32125 V-13.299999999999997 Q39.82875 -10.881249999999994 38.135625 -9.107499999999987 Q36.4425 -7.333749999999995 34.02375 -7.333749999999995 Z M91.91250000000001 5.566249999999997 Q89.49375 5.566249999999997 87.72 3.792500000000018 Q85.94624999999999 2.018749999999997 85.94624999999999 -0.4000000000000057 V-70.22125 Q85.94624999999999 -72.63999999999999 87.72 -74.333125 Q89.49375 -76.02625 91.91250000000001 -76.02625 Q94.33125 -76.02625 96.02437499999999 -74.333125 Q97.7175 -72.63999999999999 97.7175 -70.22125 V-0.4000000000000057 Q97.7175 2.018749999999997 96.02437499999999 3.792500000000018 Q94.33125 5.566249999999997 91.91250000000001 5.566249999999997 Z M120.9375 -13.783749999999998 Q118.51875 -13.783749999999998 116.74500000000002 -15.55749999999999 Q114.97125 -17.331249999999997 114.97125 -19.749999999999986 V-50.871249999999996 Q114.97125 -53.29 116.74500000000002 -54.983124999999994 Q118.51875 -56.67624999999999 120.9375 -56.67624999999999 Q123.35625 -56.67624999999999 125.049375 -54.983124999999994 Q126.74249999999999 -53.29 126.74249999999999 -50.871249999999996 V-19.749999999999986 Q126.74249999999999 -17.331249999999997 125.049375 -15.55749999999999 Q123.35625 -13.783749999999998 120.9375 -13.783749999999998 Z"/></g><g id="Light-L" transform="matrix(1 0 0 1 1082.77 1556)"><path d="M63.048750000000005 29.753749999999997 Q61.275 29.753749999999997 59.823750000000004 28.383125000000007 Q58.37250000000001 27.01249999999999 58.37250000000001 24.91624999999999 V-95.5375 Q58.37250000000001 -97.4725 59.823750000000004 -98.84312499999999 Q61.275 -100.21374999999999 63.048750000000005 -100.21374999999999 Q65.145 -100.21374999999999 66.435 -98.84312499999999 Q67.72500000000001 -97.4725 67.72500000000001 -95.5375 V24.91624999999999 Q67.72500000000001 27.01249999999999 66.435 28.383125000000007 Q65.145 29.753749999999997 63.048750000000005 29.753749999999997 Z M34.346250000000005 -8.946249999999992 Q32.5725 -8.946249999999992 31.121250000000003 -10.316874999999982 Q29.669999999999998 -11.687499999999986 29.669999999999998 -13.783749999999998 V-56.83749999999999 Q29.669999999999998 -58.772499999999994 31.121250000000003 -60.143125 Q32.5725 -61.513749999999995 34.346250000000005 -61.513749999999995 Q36.4425 -61.513749999999995 37.7325 -60.143125 Q39.0225 -58.772499999999994 39.0225 -56.83749999999999 V-13.783749999999998 Q39.0225 -11.687499999999986 37.7325 -10.316874999999982 Q36.4425 -8.946249999999992 34.346250000000005 -8.946249999999992 Z M91.75125 3.9537499999999994 Q89.81625000000001 3.9537499999999994 88.445625 2.5831250000000097 Q87.075 1.2124999999999915 87.075 -0.883749999999992 V-69.73749999999998 Q87.075 -71.6725 88.445625 -73.043125 Q89.81625000000001 -74.41375 91.75125 -74.41375 Q93.68625 -74.41375 95.056875 -73.043125 Q96.4275 -71.6725 96.4275 -69.73749999999998 V-0.883749999999992 Q96.4275 1.2124999999999915 95.056875 2.5831250000000097 Q93.68625 3.9537499999999994 91.75125 3.9537499999999994 Z M120.45375000000001 -15.396249999999995 Q118.51875 -15.396249999999995 117.14812500000001 -16.766874999999985 Q115.7775 -18.13749999999999 115.7775 -20.23375 V-50.38749999999999 Q115.7775 -52.3225 117.14812500000001 -53.693124999999995 Q118.51875 -55.06374999999999 120.45375000000001 -55.06374999999999 Q122.38875000000002 -55.06374999999999 123.759375 -53.693124999999995 Q125.13 -52.3225 125.13 -50.38749999999999 V-20.23375 Q125.13 -18.13749999999999 123.759375 -16.766874999999985 Q122.38875000000002 -15.396249999999995 120.45375000000001 -15.396249999999995 Z"/></g><g id="Thin-L" transform="matrix(1 0 0 1 787.282 1556)"><path d="M63.21000000000001 28.141250000000014 Q61.75875 28.141250000000014 60.710625 27.093125000000015 Q59.6625 26.045000000000016 59.6625 24.59375 V-95.21499999999999 Q59.6625 -96.505 60.710625 -97.553125 Q61.75875 -98.60125 63.21000000000001 -98.60125 Q64.66125000000001 -98.60125 65.70937500000001 -97.553125 Q66.7575 -96.505 66.7575 -95.21499999999999 V24.59375 Q66.7575 26.045000000000016 65.70937500000001 27.093125000000015 Q64.66125000000001 28.141250000000014 63.21000000000001 28.141250000000014 Z M34.830000000000005 -10.558750000000003 Q33.37875 -10.558750000000003 32.330625000000005 -11.606874999999988 Q31.2825 -12.654999999999987 31.2825 -14.106249999999989 V-56.515 Q31.2825 -57.80499999999999 32.330625000000005 -58.85312499999999 Q33.37875 -59.90124999999999 34.830000000000005 -59.90124999999999 Q36.28125 -59.90124999999999 37.329375 -58.85312499999999 Q38.377500000000005 -57.80499999999999 38.377500000000005 -56.515 V-14.106249999999989 Q38.377500000000005 -12.654999999999987 37.329375 -11.606874999999988 Q36.28125 -10.558750000000003 34.830000000000005 -10.558750000000003 Z M91.59 2.3412500000000023 Q90.13875 2.3412500000000023 89.090625 1.2931250000000176 Q88.0425 0.24500000000000455 88.0425 -1.2062499999999972 V-69.41499999999999 Q88.0425 -70.70499999999998 89.090625 -71.75312499999998 Q90.13875 -72.80125 91.59 -72.80125 Q93.04125 -72.80125 94.089375 -71.75312499999998 Q95.1375 -70.70499999999998 95.1375 -69.41499999999999 V-1.2062499999999972 Q95.1375 0.24500000000000455 94.089375 1.2931250000000176 Q93.04125 2.3412500000000023 91.59 2.3412500000000023 Z M119.97000000000001 -17.008749999999992 Q118.51875 -17.008749999999992 117.470625 -18.05687499999999 Q116.42250000000001 -19.10499999999999 116.42250000000001 -20.55624999999999 V-50.065 Q116.42250000000001 -51.355 117.470625 -52.40312499999999 Q118.51875 -53.45124999999999 119.97000000000001 -53.45124999999999 Q121.42125 -53.45124999999999 122.46937500000001 -52.40312499999999 Q123.5175 -51.355 123.5175 -50.065 V-20.55624999999999 Q123.5175 -19.10499999999999 122.46937500000001 -18.05687499999999 Q121.42125 -17.008749999999992 119.97000000000001 -17.008749999999992 Z"/></g><g id="Ultralight-L" transform="matrix(1 0 0 1 491.205 1556)"><path d="M63.371249999999996 27.173750000000013 Q62.081250000000004 27.173750000000013 61.275 26.367500000000007 Q60.46875 25.56125 60.46875 24.27125000000001 V-94.8925 Q60.46875 -96.02125 61.275 -96.82749999999999 Q62.081250000000004 -97.63374999999999 63.371249999999996 -97.63374999999999 Q64.5 -97.63374999999999 65.30625 -96.82749999999999 Q66.1125 -96.02125 66.1125 -94.8925 V24.27125000000001 Q66.1125 25.56125 65.30625 26.367500000000007 Q64.5 27.173750000000013 63.371249999999996 27.173750000000013 Z M35.1525 -11.52624999999999 Q33.862500000000004 -11.52624999999999 33.05625 -12.332499999999982 Q32.25 -13.138749999999987 32.25 -14.428749999999994 V-56.192499999999995 Q32.25 -57.32125 33.05625 -58.1275 Q33.862500000000004 -58.933749999999996 35.1525 -58.933749999999996 Q36.28125 -58.933749999999996 37.0875 -58.1275 Q37.893750000000004 -57.32125 37.893750000000004 -56.192499999999995 V-14.428749999999994 Q37.893750000000004 -13.138749999999987 37.0875 -12.332499999999982 Q36.28125 -11.52624999999999 35.1525 -11.52624999999999 Z M91.59 1.3737500000000153 Q90.3 1.3737500000000153 89.49375 0.5675000000000097 Q88.6875 -0.2387499999999818 88.6875 -1.528749999999988 V-69.0925 Q88.6875 -70.22125 89.49375 -71.0275 Q90.3 -71.83375 91.59 -71.83375 Q92.71875 -71.83375 93.525 -71.0275 Q94.33125 -70.22125 94.33125 -69.0925 V-1.528749999999988 Q94.33125 -0.2387499999999818 93.525 0.5675000000000097 Q92.71875 1.3737500000000153 91.59 1.3737500000000153 Z M119.80875 -17.976249999999993 Q118.51875 -17.976249999999993 117.7125 -18.782499999999985 Q116.90625 -19.58874999999999 116.90625 -20.878749999999997 V-49.74249999999999 Q116.90625 -50.871249999999996 117.7125 -51.677499999999995 Q118.51875 -52.48375 119.80875 -52.48375 Q120.9375 -52.48375 121.74375 -51.677499999999995 Q122.55 -50.871249999999996 122.55 -49.74249999999999 V-20.878749999999997 Q122.55 -19.58874999999999 121.74375 -18.782499999999985 Q120.9375 -17.976249999999993 119.80875 -17.976249999999993 Z"/></g><g id="Bold-M" transform="matrix(1 0 0 1 2281.8 1126)"><path d="M46.5 22.77000000000001 Q43.0 22.77000000000001 40.5 20.27000000000001 Q38.0 17.77000000000001 38.0 14.27000000000001 V-84.72999999999999 Q38.0 -88.22999999999999 40.5 -90.72999999999999 Q43.0 -93.22999999999999 46.5 -93.22999999999999 Q50.0 -93.22999999999999 52.5 -90.72999999999999 Q55.0 -88.22999999999999 55.0 -84.72999999999999 V14.27000000000001 Q55.0 17.77000000000001 52.5 20.27000000000001 Q50.0 22.77000000000001 46.5 22.77000000000001 Z M19.5 -7.22999999999999 Q16.0 -7.22999999999999 13.5 -9.72999999999999 Q11.0 -12.22999999999999 11.0 -15.72999999999999 V-54.72999999999999 Q11.0 -58.22999999999999 13.5 -60.72999999999999 Q16.0 -63.22999999999999 19.5 -63.22999999999999 Q23.0 -63.22999999999999 25.5 -60.72999999999999 Q28.0 -58.22999999999999 28.0 -54.72999999999999 V-15.72999999999999 Q28.0 -12.22999999999999 25.5 -9.72999999999999 Q23.0 -7.22999999999999 19.5 -7.22999999999999 Z M73.5 2.7700000000000102 Q70.0 2.7700000000000102 67.5 0.27000000000001023 Q65.0 -2.2299999999999898 65.0 -5.72999999999999 V-64.72999999999999 Q65.0 -68.22999999999999 67.5 -70.72999999999999 Q70.0 -73.22999999999999 73.5 -73.22999999999999 Q77.0 -73.22999999999999 79.5 -70.72999999999999 Q82.0 -68.22999999999999 82.0 -64.72999999999999 V-5.72999999999999 Q82.0 -2.2299999999999898 79.5 0.27000000000001023 Q77.0 2.7700000000000102 73.5 2.7700000000000102 Z M100.5 -12.22999999999999 Q97.0 -12.22999999999999 94.5 -14.72999999999999 Q92.0 -17.22999999999999 92.0 -20.72999999999999 V-49.72999999999999 Q92.0 -53.22999999999999 94.5 -55.72999999999999 Q97.0 -58.22999999999999 100.5 -58.22999999999999 Q104.0 -58.22999999999999 106.5 -55.72999999999999 Q109.0 -53.22999999999999 109.0 -49.72999999999999 V-20.72999999999999 Q109.0 -17.22999999999999 106.5 -14.72999999999999 Q104.0 -12.22999999999999 100.5 -12.22999999999999 Z"/></g><g id="Semibold-M" transform="matrix(1 0 0 1 1985.97 1126)"><path d="M47.375 20.64500000000001 Q44.125 20.64500000000001 41.875 18.39500000000001 Q39.625 16.14500000000001 39.625 13.02000000000001 V-83.47999999999999 Q39.625 -86.60499999999999 41.875 -88.85499999999999 Q44.125 -91.10499999999999 47.375 -91.10499999999999 Q50.5 -91.10499999999999 52.75 -88.85499999999999 Q55.0 -86.60499999999999 55.0 -83.47999999999999 V13.02000000000001 Q55.0 16.14500000000001 52.75 18.39500000000001 Q50.5 20.64500000000001 47.375 20.64500000000001 Z M22.0 -9.35499999999999 Q18.75 -9.35499999999999 16.5 -11.60499999999999 Q14.25 -13.85499999999999 14.25 -16.97999999999999 V-53.47999999999999 Q14.25 -56.60499999999999 16.5 -58.85499999999999 Q18.75 -61.10499999999999 22.0 -61.10499999999999 Q25.125 -61.10499999999999 27.375 -58.85499999999999 Q29.625 -56.60499999999999 29.625 -53.47999999999999 V-16.97999999999999 Q29.625 -13.85499999999999 27.375 -11.60499999999999 Q25.125 -9.35499999999999 22.0 -9.35499999999999 Z M72.625 0.6450000000000102 Q69.5 0.6450000000000102 67.25 -1.6049999999999898 Q65.0 -3.8549999999999898 65.0 -6.97999999999999 V-63.47999999999999 Q65.0 -66.60499999999999 67.25 -68.85499999999999 Q69.5 -71.10499999999999 72.625 -71.10499999999999 Q75.875 -71.10499999999999 78.125 -68.85499999999999 Q80.375 -66.60499999999999 80.375 -63.47999999999999 V-6.97999999999999 Q80.375 -3.8549999999999898 78.125 -1.6049999999999898 Q75.875 0.6450000000000102 72.625 0.6450000000000102 Z M98.0 -14.35499999999999 Q94.875 -14.35499999999999 92.625 -16.60499999999999 Q90.375 -18.85499999999999 90.375 -21.97999999999999 V-48.47999999999999 Q90.375 -51.60499999999999 92.625 -53.85499999999999 Q94.875 -56.10499999999999 98.0 -56.10499999999999 Q101.25 -56.10499999999999 103.5 -53.85499999999999 Q105.75 -51.60499999999999 105.75 -48.47999999999999 V-21.97999999999999 Q105.75 -18.85499999999999 103.5 -16.60499999999999 Q101.25 -14.35499999999999 98.0 -14.35499999999999 Z"/></g><g id="Medium-M" transform="matrix(1 0 0 1 1689.91 1126)"><path d="M47.875 19.14500000000001 Q45.0 19.14500000000001 42.94 17.080000000000013 Q40.875 15.02000000000001 40.875 12.14500000000001 V-82.60499999999999 Q40.875 -85.47999999999999 42.94 -87.54499999999999 Q45.0 -89.60499999999999 47.875 -89.60499999999999 Q50.875 -89.60499999999999 52.94 -87.54499999999999 Q55.0 -85.47999999999999 55.0 -82.60499999999999 V12.14500000000001 Q55.0 15.02000000000001 52.94 17.080000000000013 Q50.875 19.14500000000001 47.875 19.14500000000001 Z M23.75 -10.85499999999999 Q20.875 -10.85499999999999 18.814999999999998 -12.919999999999987 Q16.75 -14.97999999999999 16.75 -17.85499999999999 V-52.60499999999999 Q16.75 -55.47999999999999 18.814999999999998 -57.54499999999999 Q20.875 -59.60499999999999 23.75 -59.60499999999999 Q26.75 -59.60499999999999 28.814999999999998 -57.54499999999999 Q30.875 -55.47999999999999 30.875 -52.60499999999999 V-17.85499999999999 Q30.875 -14.97999999999999 28.814999999999998 -12.919999999999987 Q26.75 -10.85499999999999 23.75 -10.85499999999999 Z M72.125 -0.8549999999999898 Q69.125 -0.8549999999999898 67.065 -2.9199999999999875 Q65.0 -4.97999999999999 65.0 -7.85499999999999 V-62.60499999999999 Q65.0 -65.47999999999999 67.065 -67.54499999999999 Q69.125 -69.60499999999999 72.125 -69.60499999999999 Q75.0 -69.60499999999999 77.065 -67.54499999999999 Q79.125 -65.47999999999999 79.125 -62.60499999999999 V-7.85499999999999 Q79.125 -4.97999999999999 77.065 -2.9199999999999875 Q75.0 -0.8549999999999898 72.125 -0.8549999999999898 Z M96.25 -15.85499999999999 Q93.25 -15.85499999999999 91.19 -17.919999999999987 Q89.125 -19.97999999999999 89.125 -22.85499999999999 V-47.60499999999999 Q89.125 -50.47999999999999 91.19 -52.54499999999999 Q93.25 -54.60499999999999 96.25 -54.60499999999999 Q99.125 -54.60499999999999 101.19 -52.54499999999999 Q103.25 -50.47999999999999 103.25 -47.60499999999999 V-22.85499999999999 Q103.25 -19.97999999999999 101.19 -17.919999999999987 Q99.125 -15.85499999999999 96.25 -15.85499999999999 Z"/></g><g id="Regular-M" transform="matrix(1 0 0 1 1394.06 1126)"><path d="M48.375 18.02000000000001 Q45.625 18.02000000000001 43.69 16.080000000000013 Q41.75 14.14500000000001 41.75 11.39500000000001 V-81.85499999999999 Q41.75 -84.60499999999999 43.69 -86.54499999999999 Q45.625 -88.47999999999999 48.375 -88.47999999999999 Q51.125 -88.47999999999999 53.065 -86.54499999999999 Q55.0 -84.60499999999999 55.0 -81.85499999999999 V11.39500000000001 Q55.0 14.14500000000001 53.065 16.080000000000013 Q51.125 18.02000000000001 48.375 18.02000000000001 Z M25.125 -11.97999999999999 Q22.375 -11.97999999999999 20.44 -13.919999999999987 Q18.5 -15.85499999999999 18.5 -18.60499999999999 V-51.85499999999999 Q18.5 -54.60499999999999 20.44 -56.54499999999999 Q22.375 -58.47999999999999 25.125 -58.47999999999999 Q27.875 -58.47999999999999 29.815 -56.54499999999999 Q31.75 -54.60499999999999 31.75 -51.85499999999999 V-18.60499999999999 Q31.75 -15.85499999999999 29.815 -13.919999999999987 Q27.875 -11.97999999999999 25.125 -11.97999999999999 Z M71.625 -1.9799999999999898 Q68.875 -1.9799999999999898 66.935 -3.9199999999999875 Q65.0 -5.85499999999999 65.0 -8.60499999999999 V-61.85499999999999 Q65.0 -64.60499999999999 66.935 -66.54499999999999 Q68.875 -68.47999999999999 71.625 -68.47999999999999 Q74.375 -68.47999999999999 76.31 -66.54499999999999 Q78.25 -64.60499999999999 78.25 -61.85499999999999 V-8.60499999999999 Q78.25 -5.85499999999999 76.31 -3.9199999999999875 Q74.375 -1.9799999999999898 71.625 -1.9799999999999898 Z M94.875 -16.97999999999999 Q92.125 -16.97999999999999 90.19 -18.919999999999987 Q88.25 -20.85499999999999 88.25 -23.60499999999999 V-46.85499999999999 Q88.25 -49.60499999999999 90.19 -51.53999999999999 Q92.125 -53.47999999999999 94.875 -53.47999999999999 Q97.625 -53.47999999999999 99.565 -51.53999999999999 Q101.5 -49.60499999999999 101.5 -46.85499999999999 V-23.60499999999999 Q101.5 -20.85499999999999 99.565 -18.919999999999987 Q97.625 -16.97999999999999 94.875 -16.97999999999999 Z"/></g><g id="Light-M" transform="matrix(1 0 0 1 1098.18 1126)"><path d="M48.375 16.77000000000001 Q46.125 16.77000000000001 44.56 15.205000000000013 Q43.0 13.64500000000001 43.0 11.39500000000001 V-81.85499999999999 Q43.0 -84.10499999999999 44.56 -85.66999999999999 Q46.125 -87.22999999999999 48.375 -87.22999999999999 Q50.625 -87.22999999999999 52.190000000000005 -85.66999999999999 Q53.75 -84.10499999999999 53.75 -81.85499999999999 V11.39500000000001 Q53.75 13.64500000000001 52.190000000000005 15.205000000000013 Q50.625 16.77000000000001 48.375 16.77000000000001 Z M25.125 -13.22999999999999 Q22.875 -13.22999999999999 21.314999999999998 -14.794999999999987 Q19.75 -16.35499999999999 19.75 -18.60499999999999 V-51.85499999999999 Q19.75 -54.10499999999999 21.314999999999998 -55.66999999999999 Q22.875 -57.22999999999999 25.125 -57.22999999999999 Q27.375 -57.22999999999999 28.94 -55.66999999999999 Q30.5 -54.10499999999999 30.5 -51.85499999999999 V-18.60499999999999 Q30.5 -16.35499999999999 28.94 -14.794999999999987 Q27.375 -13.22999999999999 25.125 -13.22999999999999 Z M71.625 -3.2299999999999898 Q69.375 -3.2299999999999898 67.81 -4.7949999999999875 Q66.25 -6.35499999999999 66.25 -8.60499999999999 V-61.85499999999999 Q66.25 -64.10499999999999 67.81 -65.66999999999999 Q69.375 -67.22999999999999 71.625 -67.22999999999999 Q73.875 -67.22999999999999 75.44 -65.66999999999999 Q77.0 -64.10499999999999 77.0 -61.85499999999999 V-8.60499999999999 Q77.0 -6.35499999999999 75.44 -4.7949999999999875 Q73.875 -3.2299999999999898 71.625 -3.2299999999999898 Z M94.875 -18.22999999999999 Q92.625 -18.22999999999999 91.065 -19.789999999999992 Q89.5 -21.35499999999999 89.5 -23.60499999999999 V-46.85499999999999 Q89.5 -49.10499999999999 91.065 -50.66999999999999 Q92.625 -52.22999999999999 94.875 -52.22999999999999 Q97.125 -52.22999999999999 98.69 -50.66999999999999 Q100.25 -49.10499999999999 100.25 -46.85499999999999 V-23.60499999999999 Q100.25 -21.35499999999999 98.69 -19.789999999999992 Q97.125 -18.22999999999999 94.875 -18.22999999999999 Z"/></g><g id="Thin-M" transform="matrix(1 0 0 1 802.565 1126)"><path d="M48.375 15.52000000000001 Q46.625 15.52000000000001 45.44 14.335000000000008 Q44.25 13.14500000000001 44.25 11.39500000000001 V-81.85499999999999 Q44.25 -83.60499999999999 45.5 -84.79499999999999 Q46.75 -85.97999999999999 48.375 -85.97999999999999 Q50.125 -85.97999999999999 51.31 -84.79499999999999 Q52.5 -83.60499999999999 52.5 -81.85499999999999 V11.39500000000001 Q52.5 13.14500000000001 51.25 14.335000000000008 Q50.0 15.52000000000001 48.375 15.52000000000001 Z M25.125 -14.47999999999999 Q23.375 -14.47999999999999 22.189999999999998 -15.669999999999987 Q21.0 -16.85499999999999 21.0 -18.60499999999999 V-51.85499999999999 Q21.0 -53.60499999999999 22.25 -54.79499999999999 Q23.5 -55.97999999999999 25.125 -55.97999999999999 Q26.875 -55.97999999999999 28.065 -54.79499999999999 Q29.25 -53.60499999999999 29.25 -51.85499999999999 V-18.60499999999999 Q29.25 -16.85499999999999 28.0 -15.669999999999987 Q26.75 -14.47999999999999 25.125 -14.47999999999999 Z M71.625 -4.47999999999999 Q69.875 -4.47999999999999 68.69 -5.664999999999992 Q67.5 -6.85499999999999 67.5 -8.60499999999999 V-61.85499999999999 Q67.5 -63.60499999999999 68.75 -64.79499999999999 Q70.0 -65.97999999999999 71.625 -65.97999999999999 Q73.375 -65.97999999999999 74.565 -64.79499999999999 Q75.75 -63.60499999999999 75.75 -61.85499999999999 V-8.60499999999999 Q75.75 -6.85499999999999 74.5 -5.664999999999992 Q73.25 -4.47999999999999 71.625 -4.47999999999999 Z M94.875 -19.47999999999999 Q93.125 -19.47999999999999 91.94000000000001 -20.669999999999987 Q90.75 -21.85499999999999 90.75 -23.60499999999999 V-46.85499999999999 Q90.75 -48.60499999999999 92.0 -49.79499999999999 Q93.25 -50.97999999999999 94.875 -50.97999999999999 Q96.625 -50.97999999999999 97.81 -49.79499999999999 Q99.0 -48.60499999999999 99.0 -46.85499999999999 V-23.60499999999999 Q99.0 -21.85499999999999 97.75 -20.669999999999987 Q96.5 -19.47999999999999 94.875 -19.47999999999999 Z"/></g><g id="Ultralight-M" transform="matrix(1 0 0 1 506.415 1126)"><path d="M48.375 14.77000000000001 Q47.0 14.77000000000001 46.0 13.77000000000001 Q45.0 12.77000000000001 45.0 11.39500000000001 V-81.85499999999999 Q45.0 -83.22999999999999 46.0 -84.22999999999999 Q47.0 -85.22999999999999 48.375 -85.22999999999999 Q49.75 -85.22999999999999 50.75 -84.22999999999999 Q51.75 -83.22999999999999 51.75 -81.85499999999999 V11.39500000000001 Q51.75 12.77000000000001 50.75 13.77000000000001 Q49.75 14.77000000000001 48.375 14.77000000000001 Z M25.125 -15.22999999999999 Q23.75 -15.22999999999999 22.75 -16.22999999999999 Q21.75 -17.22999999999999 21.75 -18.60499999999999 V-51.85499999999999 Q21.75 -53.22999999999999 22.75 -54.22999999999999 Q23.75 -55.22999999999999 25.125 -55.22999999999999 Q26.5 -55.22999999999999 27.5 -54.22999999999999 Q28.5 -53.22999999999999 28.5 -51.85499999999999 V-18.60499999999999 Q28.5 -17.22999999999999 27.5 -16.22999999999999 Q26.5 -15.22999999999999 25.125 -15.22999999999999 Z M71.625 -5.22999999999999 Q70.25 -5.22999999999999 69.25 -6.22999999999999 Q68.25 -7.22999999999999 68.25 -8.60499999999999 V-61.85499999999999 Q68.25 -63.22999999999999 69.25 -64.22999999999999 Q70.25 -65.22999999999999 71.625 -65.22999999999999 Q73.0 -65.22999999999999 74.0 -64.22999999999999 Q75.0 -63.22999999999999 75.0 -61.85499999999999 V-8.60499999999999 Q75.0 -7.22999999999999 74.0 -6.22999999999999 Q73.0 -5.22999999999999 71.625 -5.22999999999999 Z M94.875 -20.22999999999999 Q93.5 -20.22999999999999 92.5 -21.22999999999999 Q91.5 -22.22999999999999 91.5 -23.60499999999999 V-46.85499999999999 Q91.5 -48.22999999999999 92.5 -49.22999999999999 Q93.5 -50.22999999999999 94.875 -50.22999999999999 Q96.25 -50.22999999999999 97.25 -49.22999999999999 Q98.25 -48.22999999999999 98.25 -46.85499999999999 V-23.60499999999999 Q98.25 -22.22999999999999 97.25 -21.22999999999999 Q96.25 -20.22999999999999 94.875 -20.22999999999999 Z"/></g><g id="Bold-S" transform="matrix(1 0 0 1 2294.23 696)"><path d="M36.787914 10.53357800000002 Q34.027992 10.53357800000002 31.9545 8.460086000000004 Q29.881008 6.391328000000016 29.881008 3.6266719999999992 V-74.086672 Q29.881008 -76.851328 31.9545 -78.920086 Q34.027992 -80.993578 36.787914 -80.993578 Q39.547836 -80.993578 41.621328 -78.920086 Q43.690085999999994 -76.851328 43.690085999999994 -74.086672 V3.6266719999999992 Q43.690085999999994 6.391328000000016 41.621328 8.460086000000004 Q39.547836 10.53357800000002 36.787914 10.53357800000002 Z M15.584328 -13.136421999999996 Q12.819672 -13.136421999999996 10.750914 -15.209913999999998 Q8.677422 -17.278672 8.677422 -20.043327999999995 V-50.41667199999999 Q8.677422 -53.18132799999999 10.750914 -55.250085999999996 Q12.819672 -57.323578 15.584328 -57.323578 Q18.34425 -57.323578 20.413008 -55.250085999999996 Q22.4865 -53.18132799999999 22.4865 -50.41667199999999 V-20.043327999999995 Q22.4865 -17.278672 20.413008 -15.209913999999998 Q18.34425 -13.136421999999996 15.584328 -13.136421999999996 Z M57.892086 -5.249578 Q55.132164 -5.249578 53.058672 -7.318335999999988 Q50.989914000000006 -9.39182799999999 50.989914000000006 -12.151749999999993 V-58.308249999999994 Q50.989914000000006 -61.06817199999999 53.058672 -63.14166399999999 Q55.132164 -65.210422 57.892086 -65.210422 Q60.652007999999995 -65.210422 62.7255 -63.14166399999999 Q64.798992 -61.06817199999999 64.798992 -58.308249999999994 V-12.151749999999993 Q64.798992 -9.39182799999999 62.7255 -7.318335999999988 Q60.652007999999995 -5.249578 57.892086 -5.249578 Z M79.095672 -17.084577999999993 Q76.33575 -17.084577999999993 74.266992 -19.15333599999999 Q72.1935 -21.22682799999999 72.1935 -23.986749999999994 V-46.47324999999999 Q72.1935 -49.233171999999996 74.266992 -51.306664 Q76.33575 -53.37542199999999 79.095672 -53.37542199999999 Q81.86032800000001 -53.37542199999999 83.929086 -51.306664 Q86.00257800000001 -49.233171999999996 86.00257800000001 -46.47324999999999 V-23.986749999999994 Q86.00257800000001 -21.22682799999999 83.929086 -19.15333599999999 Q81.86032800000001 -17.084577999999993 79.095672 -17.084577999999993 Z"/></g><g id="Semibold-S" transform="matrix(1 0 0 1 1998.1 696)"><path d="M37.479078 8.853008000000017 Q34.91325 8.853008000000017 33.038586 6.98307800000002 Q31.163922 5.1084140000000104 31.163922 2.64200000000001 V-73.10199999999999 Q31.163922 -75.56841399999999 33.038586 -77.443078 Q34.91325 -79.313008 37.479078 -79.313008 Q39.945492 -79.313008 41.815422 -77.443078 Q43.690085999999994 -75.56841399999999 43.690085999999994 -73.10199999999999 V2.64200000000001 Q43.690085999999994 5.1084140000000104 41.815422 6.98307800000002 Q39.945492 8.853008000000017 37.479078 8.853008000000017 Z M17.553672000000002 -14.816991999999999 Q14.992578 -14.816991999999999 13.117913999999999 -16.686921999999996 Q11.24325 -18.56158599999999 11.24325 -21.02799999999999 V-49.431999999999995 Q11.24325 -51.89841399999999 13.117913999999999 -53.77307799999999 Q14.992578 -55.643007999999995 17.553672000000002 -55.643007999999995 Q20.020086 -55.643007999999995 21.89475 -53.77307799999999 Q23.769414 -51.89841399999999 23.769414 -49.431999999999995 V-21.02799999999999 Q23.769414 -18.56158599999999 21.89475 -16.686921999999996 Q20.020086 -14.816991999999999 17.553672000000002 -14.816991999999999 Z M57.200922 -6.9254140000000035 Q54.734508 -6.9254140000000035 52.864578 -8.800078 Q50.989914000000006 -10.670007999999996 50.989914000000006 -13.136421999999996 V-57.323578 Q50.989914000000006 -59.78999199999999 52.864578 -61.659921999999995 Q54.734508 -63.53458599999999 57.200922 -63.53458599999999 Q59.76675 -63.53458599999999 61.641414000000005 -61.659921999999995 Q63.516078 -59.78999199999999 63.516078 -57.323578 V-13.136421999999996 Q63.516078 -10.670007999999996 61.641414000000005 -8.800078 Q59.76675 -6.9254140000000035 57.200922 -6.9254140000000035 Z M77.126328 -18.760413999999997 Q74.659914 -18.760413999999997 72.78525 -20.635077999999993 Q70.910586 -22.50500799999999 70.910586 -24.971421999999997 V-45.48857799999999 Q70.910586 -47.95499199999999 72.78525 -49.824921999999994 Q74.659914 -51.699586 77.126328 -51.699586 Q79.687422 -51.699586 81.562086 -49.824921999999994 Q83.43675 -47.95499199999999 83.43675 -45.48857799999999 V-24.971421999999997 Q83.43675 -22.50500799999999 81.562086 -20.635077999999993 Q79.687422 -18.760413999999997 77.126328 -18.760413999999997 Z"/></g><g id="Medium-S" transform="matrix(1 0 0 1 1701.85 696)"><path d="M37.872 7.6695080000000075 Q35.604414 7.6695080000000075 33.876504 5.946332000000012 Q32.153328 4.218422000000004 32.153328 1.9508360000000096 V-72.41083599999999 Q32.153328 -74.678422 33.876504 -76.40633199999999 Q35.604414 -78.12950799999999 37.872 -78.12950799999999 Q40.239 -78.12950799999999 41.96691 -76.40633199999999 Q43.690085999999994 -74.678422 43.690085999999994 -72.41083599999999 V1.9508360000000096 Q43.690085999999994 4.218422000000004 41.96691 5.946332000000012 Q40.239 7.6695080000000075 37.872 7.6695080000000075 Z M18.936 -16.000491999999994 Q16.668414 -16.000491999999994 14.940504 -17.72366799999999 Q13.217327999999998 -19.45157799999999 13.217327999999998 -21.719164 V-48.740835999999994 Q13.217327999999998 -51.008421999999996 14.940504 -52.73633199999999 Q16.668414 -54.459508 18.936 -54.459508 Q21.303 -54.459508 23.030910000000002 -52.73633199999999 Q24.754086 -51.008421999999996 24.754086 -48.740835999999994 V-21.719164 Q24.754086 -19.45157799999999 23.030910000000002 -17.72366799999999 Q21.303 -16.000491999999994 18.936 -16.000491999999994 Z M56.808 -8.108913999999999 Q54.441 -8.108913999999999 52.71309 -9.832089999999994 Q50.989914000000006 -11.559999999999988 50.989914000000006 -13.827585999999997 V-56.632414 Q50.989914000000006 -58.89999999999999 52.71309 -60.62790999999999 Q54.441 -62.351085999999995 56.808 -62.351085999999995 Q59.075585999999994 -62.351085999999995 60.803495999999996 -60.62790999999999 Q62.526672 -58.89999999999999 62.526672 -56.632414 V-13.827585999999997 Q62.526672 -11.559999999999988 60.803495999999996 -9.832089999999994 Q59.075585999999994 -8.108913999999999 56.808 -8.108913999999999 Z M75.744 -19.943914 Q73.377 -19.943914 71.64909 -21.667089999999995 Q69.925914 -23.394999999999996 69.925914 -25.66258599999999 V-44.797413999999996 Q69.925914 -47.06499999999999 71.64909 -48.79290999999999 Q73.377 -50.516085999999994 75.744 -50.516085999999994 Q78.011586 -50.516085999999994 79.739496 -48.79290999999999 Q81.462672 -47.06499999999999 81.462672 -44.797413999999996 V-25.66258599999999 Q81.462672 -23.394999999999996 79.739496 -21.667089999999995 Q78.011586 -19.943914 75.744 -19.943914 Z"/></g><g id="Regular-S" transform="matrix(1 0 0 1 1405.73 696)"><path d="M38.264922 6.78425 Q36.09675 6.78425 34.468254 5.155754000000002 Q32.844491999999995 3.5319920000000025 32.844491999999995 1.359086000000005 V-71.819086 Q32.844491999999995 -73.991992 34.468254 -75.615754 Q36.09675 -77.24425 38.264922 -77.24425 Q40.437827999999996 -77.24425 42.061589999999995 -75.615754 Q43.690085999999994 -73.991992 43.690085999999994 -71.819086 V1.359086000000005 Q43.690085999999994 3.5319920000000025 42.061589999999995 5.155754000000002 Q40.437827999999996 6.78425 38.264922 6.78425 Z M20.020086 -16.885749999999987 Q17.851914 -16.885749999999987 16.223418 -18.514245999999986 Q14.594922 -20.138007999999992 14.594922 -22.310913999999997 V-48.149086 Q14.594922 -50.321991999999995 16.223418 -51.945753999999994 Q17.851914 -53.57424999999999 20.020086 -53.57424999999999 Q22.192992 -53.57424999999999 23.816754 -51.945753999999994 Q25.44525 -50.321991999999995 25.44525 -48.149086 V-22.310913999999997 Q25.44525 -20.138007999999992 23.816754 -18.514245999999986 Q22.192992 -16.885749999999987 20.020086 -16.885749999999987 Z M56.415078 -8.994171999999992 Q54.242172000000004 -8.994171999999992 52.618410000000004 -10.62266799999999 Q50.989914000000006 -12.251164000000003 50.989914000000006 -14.419335999999987 V-56.04066399999999 Q50.989914000000006 -58.20883599999999 52.618410000000004 -59.837331999999996 Q54.242172000000004 -61.46582799999999 56.415078 -61.46582799999999 Q58.58325 -61.46582799999999 60.211746 -59.837331999999996 Q61.835508 -58.20883599999999 61.835508 -56.04066399999999 V-14.419335999999987 Q61.835508 -12.251164000000003 60.211746 -10.62266799999999 Q58.58325 -8.994171999999992 56.415078 -8.994171999999992 Z M74.659914 -20.829171999999993 Q72.487008 -20.829171999999993 70.863246 -22.45766799999999 Q69.23475 -24.086163999999997 69.23475 -26.254335999999988 V-44.205664 Q69.23475 -46.373836 70.863246 -48.002331999999996 Q72.487008 -49.630827999999994 74.659914 -49.630827999999994 Q76.828086 -49.630827999999994 78.456582 -48.002331999999996 Q80.08507800000001 -46.373836 80.08507800000001 -44.205664 V-26.254335999999988 Q80.08507800000001 -24.086163999999997 78.456582 -22.45766799999999 Q76.828086 -20.829171999999993 74.659914 -20.829171999999993 Z"/></g><g id="Light-S" transform="matrix(1 0 0 1 1109.75 696)"><path d="M38.264922 5.799578000000011 Q36.489672 5.799578000000011 35.159417999999995 4.464590000000015 Q33.829164 3.1343360000000047 33.829164 1.359086000000005 V-71.819086 Q33.829164 -73.594336 35.159417999999995 -74.92459 Q36.489672 -76.25957799999999 38.264922 -76.25957799999999 Q40.040172 -76.25957799999999 41.37516 -74.92459 Q42.705414000000005 -73.594336 42.705414000000005 -71.819086 V1.359086000000005 Q42.705414000000005 3.1343360000000047 41.37516 4.464590000000015 Q40.040172 5.799578000000011 38.264922 5.799578000000011 Z M20.020086 -17.87042199999999 Q18.244836 -17.87042199999999 16.914582 -19.205409999999993 Q15.584328 -20.535663999999997 15.584328 -22.310913999999997 V-48.149086 Q15.584328 -49.924336 16.914582 -51.25458999999999 Q18.244836 -52.58957799999999 20.020086 -52.58957799999999 Q21.795336 -52.58957799999999 23.12559 -51.25458999999999 Q24.460577999999998 -49.924336 24.460577999999998 -48.149086 V-22.310913999999997 Q24.460577999999998 -20.535663999999997 23.12559 -19.205409999999993 Q21.795336 -17.87042199999999 20.020086 -17.87042199999999 Z M56.415078 -9.983577999999994 Q54.639828 -9.983577999999994 53.30484 -11.31383199999999 Q51.974585999999995 -12.644085999999987 51.974585999999995 -14.419335999999987 V-56.04066399999999 Q51.974585999999995 -57.81591399999999 53.30484 -59.14616799999999 Q54.639828 -60.47642199999999 56.415078 -60.47642199999999 Q58.190328 -60.47642199999999 59.520582000000005 -59.14616799999999 Q60.850835999999994 -57.81591399999999 60.850835999999994 -56.04066399999999 V-14.419335999999987 Q60.850835999999994 -12.644085999999987 59.520582000000005 -11.31383199999999 Q58.190328 -9.983577999999994 56.415078 -9.983577999999994 Z M74.659914 -21.818577999999995 Q72.884664 -21.818577999999995 71.55441 -23.148832 Q70.219422 -24.479085999999988 70.219422 -26.254335999999988 V-44.205664 Q70.219422 -45.98091399999999 71.55441 -47.31116799999999 Q72.884664 -48.64142199999999 74.659914 -48.64142199999999 Q76.435164 -48.64142199999999 77.765418 -47.31116799999999 Q79.095672 -45.98091399999999 79.095672 -44.205664 V-26.254335999999988 Q79.095672 -24.479085999999988 77.765418 -23.148832 Q76.435164 -21.818577999999995 74.659914 -21.818577999999995 Z"/></g><g id="Thin-S" transform="matrix(1 0 0 1 814.015 696)"><path d="M38.264922 4.810171999999994 Q36.887328 4.810171999999994 35.850582 3.7781599999999997 Q34.813836 2.741414000000006 34.813836 1.359086000000005 V-71.819086 Q34.813836 -73.201414 35.897922 -74.23816 Q36.982008 -75.27017199999999 38.264922 -75.27017199999999 Q39.64725 -75.27017199999999 40.683996 -74.23816 Q41.716007999999995 -73.201414 41.716007999999995 -71.819086 V1.359086000000005 Q41.716007999999995 2.741414000000006 40.631922 3.7781599999999997 Q39.547836 4.810171999999994 38.264922 4.810171999999994 Z M20.020086 -18.859827999999993 Q18.642492 -18.859827999999993 17.605746 -19.891839999999995 Q16.569 -20.92858599999999 16.569 -22.310913999999997 V-48.149086 Q16.569 -49.53141399999999 17.653086000000002 -50.56815999999999 Q18.737172 -51.60017199999999 20.020086 -51.60017199999999 Q21.402414 -51.60017199999999 22.43916 -50.56815999999999 Q23.471172 -49.53141399999999 23.471172 -48.149086 V-22.310913999999997 Q23.471172 -20.92858599999999 22.387086 -19.891839999999995 Q21.303 -18.859827999999993 20.020086 -18.859827999999993 Z M56.415078 -10.968249999999998 Q55.03275 -10.968249999999998 53.996004 -12.004995999999991 Q52.963992000000005 -13.037007999999986 52.963992000000005 -14.419335999999987 V-56.04066399999999 Q52.963992000000005 -57.422991999999994 54.048078 -58.45500399999999 Q55.132164 -59.491749999999996 56.415078 -59.491749999999996 Q57.792672 -59.491749999999996 58.829418 -58.45500399999999 Q59.866164000000005 -57.422991999999994 59.866164000000005 -56.04066399999999 V-14.419335999999987 Q59.866164000000005 -13.037007999999986 58.782078 -12.004995999999991 Q57.697992 -10.968249999999998 56.415078 -10.968249999999998 Z M74.659914 -22.80324999999999 Q73.277586 -22.80324999999999 72.24084 -23.839995999999992 Q71.208828 -24.872007999999994 71.208828 -26.254335999999988 V-44.205664 Q71.208828 -45.58799199999999 72.29291400000001 -46.620003999999994 Q73.377 -47.656749999999995 74.659914 -47.656749999999995 Q76.037508 -47.656749999999995 77.074254 -46.620003999999994 Q78.111 -45.58799199999999 78.111 -44.205664 V-26.254335999999988 Q78.111 -24.872007999999994 77.026914 -23.839995999999992 Q75.942828 -22.80324999999999 74.659914 -22.80324999999999 Z"/></g><g id="Ultralight-S" transform="matrix(1 0 0 1 517.792 696)"><path d="M38.264922 4.218422000000004 Q37.180836 4.218422000000004 36.295578 3.3331640000000107 Q35.405586 2.443172000000004 35.405586 1.359086000000005 V-71.819086 Q35.405586 -72.903172 36.295578 -73.79316399999999 Q37.180836 -74.678422 38.264922 -74.678422 Q39.349008 -74.678422 40.239 -73.79316399999999 Q41.128992000000004 -72.903172 41.128992000000004 -71.819086 V1.359086000000005 Q41.128992000000004 2.443172000000004 40.239 3.3331640000000107 Q39.349008 4.218422000000004 38.264922 4.218422000000004 Z M20.020086 -19.45157799999999 Q18.936 -19.45157799999999 18.046008 -20.33683599999999 Q17.16075 -21.22682799999999 17.16075 -22.310913999999997 V-48.149086 Q17.16075 -49.233171999999996 18.046008 -50.123163999999996 Q18.936 -51.008421999999996 20.020086 -51.008421999999996 Q21.104172000000002 -51.008421999999996 21.994163999999998 -50.123163999999996 Q22.879422 -49.233171999999996 22.879422 -48.149086 V-22.310913999999997 Q22.879422 -21.22682799999999 21.994163999999998 -20.33683599999999 Q21.104172000000002 -19.45157799999999 20.020086 -19.45157799999999 Z M56.415078 -11.559999999999988 Q55.330992 -11.559999999999988 54.441 -12.449991999999995 Q53.551007999999996 -13.335249999999988 53.551007999999996 -14.419335999999987 V-56.04066399999999 Q53.551007999999996 -57.12474999999999 54.441 -58.010008 Q55.330992 -58.89999999999999 56.415078 -58.89999999999999 Q57.499164 -58.89999999999999 58.384422 -58.010008 Q59.274414 -57.12474999999999 59.274414 -56.04066399999999 V-14.419335999999987 Q59.274414 -13.335249999999988 58.384422 -12.449991999999995 Q57.499164 -11.559999999999988 56.415078 -11.559999999999988 Z M74.659914 -23.394999999999996 Q73.575828 -23.394999999999996 72.685836 -24.284991999999995 Q71.800578 -25.170249999999996 71.800578 -26.254335999999988 V-44.205664 Q71.800578 -45.28974999999999 72.685836 -46.17500799999999 Q73.575828 -47.06499999999999 74.659914 -47.06499999999999 Q75.744 -47.06499999999999 76.63399199999999 -46.17500799999999 Q77.51925 -45.28974999999999 77.51925 -44.205664 V-26.254335999999988 Q77.51925 -25.170249999999996 76.63399199999999 -24.284991999999995 Q75.744 -23.394999999999996 74.659914 -23.394999999999996 Z"/></g></g></svg>