<svg xmlns="http://www.w3.org/2000/svg" height="48" viewBox="0 -960 960 960" width="48"><path d="M159.02-159.02v-394.41L78.8-492.02l-40.02-52.96L480-882.22l441.22 337.98-39.52 52.22L480-798.93 224.41-603.89v379.48h229.35v65.39H159.02Zm540.73 83.15q-44.47 29.76-91.08 26.52-46.6-3.24-81.34-38.1-35.24-35.35-38.23-82.46-2.99-47.11 26.77-90.34-29.76-44.47-26.52-91.08 3.24-46.6 38.1-81.34 35.35-35.24 82.46-38.23 47.11-2.99 90.34 26.77 44.47-29.76 91.08-26.52 46.6 3.24 81.34 38.1 35.24 35.35 38.23 82.46 2.99 47.11-26.77 90.34 29.76 44.47 26.52 91.08-3.24 46.6-38.1 81.34-35.35 35.24-82.46 38.23-47.11 2.99-90.34-26.77Zm.25-76.5 40.7 28.46q20.25 14.26 45.8 12.51 25.54-1.75 42.83-19.27 17.42-17.25 19.22-43.05 1.8-25.81-12.22-46.08l-28.7-40.2 28.7-40.7q14.02-20.25 12.27-45.8-1.75-25.54-19.27-42.83-17.25-17.42-43.05-19.22-25.81-1.8-45.58 12.22l-40.7 28.7-40.2-28.7q-20.75-14.02-46.3-12.27-25.54 1.75-42.83 19.27-17.42 17.25-19.22 43.05-1.8 25.81 12.46 45.58l28.46 40.7-28.46 40.2q-14.26 20.75-12.51 46.3 1.75 25.54 19.27 42.83 17.25 17.42 43.05 19.22 25.81 1.8 46.08-12.46l40.2-28.46Zm.08-66.74q16.99 0 29.15-11.99t12.16-28.98q0-16.99-12.24-29.15t-29.23-12.16q-16.99 0-28.9 12.24t-11.91 29.23q0 16.99 11.99 28.9t28.98 11.91ZM480-479.48ZM700-260Z"/></svg>