<svg xmlns="http://www.w3.org/2000/svg" height="40" viewBox="0 -960 960 960" width="40"><path d="M317.83-286.67q-13.5 0-22.33-9.28-8.83-9.28-8.83-22.67 0-13.05 9.25-22.21 9.25-9.17 22.58-9.17h324.67q13 0 22.25 9.28 9.25 9.29 9.25 22.34 0 13.38-9.25 22.55-9.25 9.16-22.25 9.16H317.83ZM155.72-613.33q-13.39 0-22.55-9.29-9.17-9.28-9.17-22.66 0-13.05 9.28-22.22 9.29-9.17 22.67-9.17 13.05 0 22.22 9.29 9.16 9.28 9.16 22.33 0 13.38-9.28 22.55t-22.33 9.17Zm162.66 0q-13.38 0-22.55-9.29-9.16-9.28-9.16-22.66 0-13.05 9.28-22.22 9.28-9.17 22.67-9.17 13.05 0 22.21 9.29 9.17 9.28 9.17 22.33 0 13.38-9.28 22.55-9.29 9.17-22.34 9.17Zm162 0q-13.38 0-22.55-9.29-9.16-9.28-9.16-22.66 0-13.05 9.28-22.22 9.28-9.17 22.67-9.17 13.05 0 22.21 9.29 9.17 9.28 9.17 22.33 0 13.38-9.28 22.55-9.29 9.17-22.34 9.17Zm162.67 0q-13.38 0-22.55-9.29-9.17-9.28-9.17-22.66 0-13.05 9.29-22.22 9.28-9.17 22.66-9.17 13.05 0 22.22 9.29 9.17 9.28 9.17 22.33 0 13.38-9.29 22.55-9.28 9.17-22.33 9.17Zm162 0q-13.38 0-22.55-9.29-9.17-9.28-9.17-22.66 0-13.05 9.29-22.22 9.28-9.17 22.66-9.17 13.05 0 22.22 9.29 9.17 9.28 9.17 22.33 0 13.38-9.29 22.55-9.28 9.17-22.33 9.17Zm0 163.33q-13.38 0-22.55-9.28-9.17-9.29-9.17-22.67 0-13.05 9.29-22.22 9.28-9.16 22.66-9.16 13.05 0 22.22 9.28 9.17 9.28 9.17 22.33 0 13.39-9.29 22.55-9.28 9.17-22.33 9.17Zm-162 0q-13.38 0-22.55-9.28-9.17-9.29-9.17-22.67 0-13.05 9.29-22.22 9.28-9.16 22.66-9.16 13.05 0 22.22 9.28 9.17 9.28 9.17 22.33 0 13.39-9.29 22.55-9.28 9.17-22.33 9.17Zm-162.67 0q-13.38 0-22.55-9.28-9.16-9.29-9.16-22.67 0-13.05 9.28-22.22 9.28-9.16 22.67-9.16 13.05 0 22.21 9.28 9.17 9.28 9.17 22.33 0 13.39-9.28 22.55-9.29 9.17-22.34 9.17Zm-162 0q-13.38 0-22.55-9.28-9.16-9.29-9.16-22.67 0-13.05 9.28-22.22 9.28-9.16 22.67-9.16 13.05 0 22.21 9.28 9.17 9.28 9.17 22.33 0 13.39-9.28 22.55-9.29 9.17-22.34 9.17Zm-162.66 0q-13.39 0-22.55-9.28-9.17-9.29-9.17-22.67 0-13.05 9.28-22.22 9.29-9.16 22.67-9.16 13.05 0 22.22 9.28 9.16 9.28 9.16 22.33 0 13.39-9.28 22.55-9.28 9.17-22.33 9.17Z"/></svg>