<svg xmlns="http://www.w3.org/2000/svg" height="24" viewBox="0 -960 960 960" width="24"><path d="M830.52-327.74v-226.19L521.26-385.54q-19.63 10.19-41.26 10.31-21.63.12-41.26-10.31L116.65-561.72q-11.43-6.21-16.77-16.28t-5.34-21.5q0-11.43 5.34-21.5t16.77-16.28l322.59-175.44q9.69-5.71 19.76-8.07 10.07-2.36 21-2.36t21 2.36q10.07 2.36 19.76 8.07l369.81 201.05q10.19 5.71 16.28 15.78 6.08 10.06 6.08 22v246.39q0 16.93-12.07 29.01-12.08 12.08-29.01 12.08-16.94 0-29.13-12.2-12.2-12.19-12.2-29.13ZM438.74-153.78l-189.35-102.7q-21.13-11.43-32.93-31.69-11.81-20.26-11.81-44.37V-472l234.09 127.54q19.63 10.2 41.26 10.2t41.26-10.2L755.35-472v139.46q0 24.11-11.81 44.37-11.8 20.26-32.93 31.69l-189.35 102.7q-9.69 5.71-20.01 7.95-10.32 2.24-21.25 2.24t-21.25-2.24q-10.32-2.24-20.01-7.95Z"/></svg>