<svg xmlns="http://www.w3.org/2000/svg" height="24" viewBox="0 -960 960 960" width="24"><path d="M479.917-361.283q22.04 0 37.137-15.042 15.098-15.042 15.098-37.174 0-22.131-14.966-37.11-14.967-14.978-36.935-14.978-21.968 0-37.186 14.803-15.217 14.803-15.217 36.935t15.014 37.349q15.015 15.217 37.055 15.217Zm.163-182.499q21.92 0 37.42-15.381 15.5-15.38 15.5-37.38v-137.674q0-21.905-15.548-37.452-15.548-15.548-37.452-15.548-21.904 0-37.452 15.38Q427-756.456 427-734.217v137.674q0 10.361 3.975 20.418 3.975 10.057 11.244 17.196 7.268 7.14 17.213 11.143 9.945 4.004 20.648 4.004ZM226.826-218.261l-85.956 85.957q-26.674 26.674-61.446 12.175-34.772-14.499-34.772-52.567V-812.5q0-46.929 33.122-80.052 33.123-33.122 80.052-33.122h644.348q46.929 0 80.052 33.122 33.122 33.123 33.122 80.052v481.065q0 46.93-33.122 80.052-33.123 33.122-80.052 33.122H226.826Z"/></svg>