<svg xmlns="http://www.w3.org/2000/svg" height="20" viewBox="0 -960 960 960" width="20"><path d="M643.38-249.54q30.39 0 51.74-25.77 21.34-25.77 19.57-45.54-1.77-30.38-21.34-50.84-19.58-20.46-49.97-20.46-30.38 0-50.84 20.46-20.46 20.46-20.46 50.84 0 30.39 20.46 50.85t50.84 20.46Zm0 58q-54.46 0-91.88-37.42-37.42-37.42-37.42-91.89 0-54.46 37.42-91.88 37.42-37.42 91.88-37.42 54.47 0 91.89 37.42t37.42 91.88q0 18.23-5.65 34.97-5.66 16.73-14.19 31.19l96 97q8.61 8.61 9 17.27.38 8.65-8.23 17.27-8.62 9.38-18.66 9-10.04-.39-18.65-9l-95-94q-16.46 12.3-35.19 18.96-18.74 6.65-38.74 6.65Zm-431.69 10.69q-21.38 6.7-40.04-5.34Q153-198.23 153-223.62v-481.23q0-14.69 8.69-27.53 8.69-12.85 20.62-16.31l148.31-49.77q12.69-3.46 25.88-2.96t25.88 2.96L603-732.92l145.31-48.23q21.38-7.7 40.04 4.19Q807-765.08 807-739.46v217.23q0 16.92-16.42 25.42-16.43 8.5-30.89-4.42-25.38-17.54-55.07-26.92-29.7-9.39-61.24-9.39-6.92 0-10.69 1-3.77 1-10.69 1.46-18.92 4.23-33.96-6.84Q573-553 573-571.92v-109.93l-186-57.84v457.77q0 19.15-11.58 35.96-11.57 16.81-31.5 22.27l-132.23 42.84Z"/></svg>