<svg xmlns="http://www.w3.org/2000/svg" version="1.1" width="3300" height="2000"><g id="Notes"><style>
    text {
      font-family: monospace;
      text-anchor: middle;
    }
    text.emphasis {
      font-weight:bold;
    }
    text.lanchor {
      text-anchor: start;
    }
  </style><rect height="2200" id="artboard" fill="white" width="3300" x="0" y="0"/><line id="" style="fill:none;stroke:black;stroke-width:0.5;" x1="263" x2="3036" y1="292" y2="292"/><text class="lanchor emphasis" transform="matrix(1 0 0 1 263 322)">Weight/Scale Variations</text><text transform="matrix(1 0 0 1 559.711 322)">Ultralight</text><text transform="matrix(1 0 0 1 856.422 322)">Thin</text><text transform="matrix(1 0 0 1 1153.13 322)">Light</text><text transform="matrix(1 0 0 1 1449.84 322)">Regular</text><text transform="matrix(1 0 0 1 1746.56 322)">Medium</text><text transform="matrix(1 0 0 1 2043.27 322)">Semibold</text><text transform="matrix(1 0 0 1 2339.98 322)">Bold</text><text transform="matrix(1 0 0 1 2636.69 322)">Heavy</text><text transform="matrix(1 0 0 1 2933.4 322)">Black</text><text id="template-version" style="text-anchor: end;" transform="matrix(1 0 0 1 3036 1933)">Template v.1.0</text><text class="lanchor" transform="matrix(1 0 0 1 263 726)">Small</text><text class="lanchor" transform="matrix(1 0 0 1 263 1156)">Medium</text><text class="lanchor" transform="matrix(1 0 0 1 263 1586)">Large</text></g><g id="Guides"><g id="H-reference" style="fill:#27AAE1;stroke:none;" transform="matrix(1 0 0 1 339 696)"><path d="M 54.9316 0 L 57.666 0 L 30.5664 -70.459 L 28.0762 -70.459 L 0.976562 0 L 3.66211 0 L 12.9395 -24.4629 L 45.7031 -24.4629 Z M 29.1992 -67.0898 L 29.4434 -67.0898 L 44.8242 -26.709 L 13.8184 -26.709 Z"/></g><line id="Baseline-S" style="fill:none;stroke:#27AAE1;opacity:1;stroke-width:0.577;" x1="263" x2="3036" y1="696" y2="696"/><line id="Capline-S" style="fill:none;stroke:#27AAE1;opacity:1;stroke-width:0.577;" x1="263" x2="3036" y1="625.541" y2="625.541"/><g id="H-reference" style="fill:#27AAE1;stroke:none;" transform="matrix(1 0 0 1 339 1126)"><path d="M 54.9316 0 L 57.666 0 L 30.5664 -70.459 L 28.0762 -70.459 L 0.976562 0 L 3.66211 0 L 12.9395 -24.4629 L 45.7031 -24.4629 Z M 29.1992 -67.0898 L 29.4434 -67.0898 L 44.8242 -26.709 L 13.8184 -26.709 Z"/></g><line id="Baseline-M" style="fill:none;stroke:#27AAE1;opacity:1;stroke-width:0.577;" x1="263" x2="3036" y1="1126" y2="1126"/><line id="Capline-M" style="fill:none;stroke:#27AAE1;opacity:1;stroke-width:0.577;" x1="263" x2="3036" y1="1055.54" y2="1055.54"/><g id="H-reference" style="fill:#27AAE1;stroke:none;" transform="matrix(1 0 0 1 339 1556)"><path d="M 54.9316 0 L 57.666 0 L 30.5664 -70.459 L 28.0762 -70.459 L 0.976562 0 L 3.66211 0 L 12.9395 -24.4629 L 45.7031 -24.4629 Z M 29.1992 -67.0898 L 29.4434 -67.0898 L 44.8242 -26.709 L 13.8184 -26.709 Z"/></g><line id="Baseline-L" style="fill:none;stroke:#27AAE1;opacity:1;stroke-width:0.577;" x1="263" x2="3036" y1="1556" y2="1556"/><line id="Capline-L" style="fill:none;stroke:#27AAE1;opacity:1;stroke-width:0.577;" x1="263" x2="3036" y1="1485.54" y2="1485.54"/><rect height="119.336" id="left-margin" style="fill:darkred;stroke:none;opacity:0.4;" width="12.4512" x="1394.06" y="1030.79"/><rect height="119.336" id="right-margin" style="fill:darkgreen;stroke:none;opacity:0.4;" width="12.4512" x="1502.5112" y="1030.79"/><rect x="1406.5112" y="1045" width="96" height="96" fill="none" stroke="blue" stroke-dasharray="5"/><rect x="1394.06" y="1030.79" width="120.9024" height="119.336" fill="none" stroke="blue"/></g><g id="Symbols"><g id="Bold-L" transform="matrix(1 0 0 1 2266 1556)"><path d="M98.20125 33.30125000000001  69.015 3.9537499999999994  79.33500000000001 -6.204999999999998  98.20125 12.983750000000015  135.45000000000002 -24.265  145.60875 -14.106249999999989  98.20125 33.30125000000001 Z M24.02625 -38.938749999999985 H130.77375 V-61.35249999999999 H24.02625 V-38.938749999999985 Z M8.86875 20.401250000000005 V-91.0225 H146.0925 V-38.938749999999985 H136.57875 L98.20125 -0.2387499999999818 L79.17375 -19.749999999999986 L58.050000000000004 1.2124999999999915 L62.081250000000004 5.243750000000006 V20.401250000000005 H8.86875 Z"/></g><g id="Semibold-L" transform="matrix(1 0 0 1 1970.27 1556)"><path d="M97.395 31.527500000000032  69.015 2.9862500000000125  77.88374999999999 -5.721249999999998  97.395 14.112499999999997  135.28875000000002 -23.781249999999986  143.99625 -15.07374999999999  97.395 31.527500000000032 Z M23.38125 -38.7775 H131.41875000000002 V-61.19125 H23.38125 V-38.7775 Z M10.6425 18.627500000000026 V-89.24875 H144.31875 V-38.7775 H136.57875 L97.395 0.8900000000000148 L77.72250000000001 -19.26625 L56.92124999999999 1.5349999999999966 L61.275 5.888750000000002 V18.627500000000026 H10.6425 Z"/></g><g id="Medium-L" transform="matrix(1 0 0 1 1674.31 1556)"><path d="M96.91125000000001 30.23750000000001  69.015 2.3412500000000023  76.75500000000001 -5.398749999999993  96.91125000000001 14.757500000000007  135.1275 -23.458749999999995  142.8675 -15.718749999999986  96.91125000000001 30.23750000000001 Z M22.8975 -38.616249999999994 H131.9025 V-61.029999999999994 H22.8975 V-38.616249999999994 Z M11.932500000000001 17.337500000000006 V-87.7975 H142.8675 V-38.616249999999994 H136.74 L96.91125000000001 1.5349999999999966 L76.75500000000001 -18.943749999999994 L55.95375000000001 1.6962500000000205 L60.63 6.372500000000002 V17.337500000000006 H11.932500000000001 Z"/></g><g id="Regular-L" transform="matrix(1 0 0 1 1378.56 1556)"><path d="M96.4275 29.27000000000001  69.015 1.8575000000000017  75.94875 -5.0762499999999875  96.4275 15.402500000000003  135.1275 -23.2975  141.9 -16.2025  96.4275 29.27000000000001 Z M22.575 -38.616249999999994 H132.225 V-61.029999999999994 H22.575 V-38.616249999999994 Z M12.9 16.370000000000005 V-86.83 H141.9 V-38.616249999999994 H136.74 L96.4275 2.180000000000007 L75.94875 -18.782499999999985 L55.308749999999996 1.8575000000000017 L60.146249999999995 6.695000000000007 V16.370000000000005 H12.9 Z"/></g><g id="Light-L" transform="matrix(1 0 0 1 1082.77 1556)"><path d="M95.46000000000001 24.59375  70.305 -0.5612499999999869  75.465 -5.882499999999993  95.46000000000001 14.112499999999997  133.67625 -24.10374999999999  138.83625 -18.782499999999985  95.46000000000001 24.59375 Z M23.38125 -40.22874999999999 H131.41875000000002 V-58.44999999999999 H23.38125 V-40.22874999999999 Z M16.125 13.14500000000001 V-83.60499999999999 H138.675 V-40.22874999999999 H134.805 L95.46000000000001 -0.5612499999999869 L75.465 -20.717499999999987 L55.308749999999996 -0.5612499999999869 L61.75875 5.888750000000002 V13.14500000000001 H16.125 Z"/></g><g id="Thin-L" transform="matrix(1 0 0 1 787.282 1556)"><path d="M94.4925 19.917500000000018  71.43375 -3.141249999999985  75.1425 -6.688749999999985  94.4925 12.66125000000001  132.225 -25.071249999999992  135.7725 -21.362499999999997  94.4925 19.917500000000018 Z M24.34875 -42.0025 H130.45125000000002 V-55.86999999999999 H24.34875 V-42.0025 Z M19.35 9.920000000000002 V-80.38 H135.45000000000002 V-42.0025 H133.03125 L94.4925 -3.141249999999985 L75.1425 -22.813749999999985 L55.308749999999996 -3.141249999999985 L63.5325 4.921250000000015 V9.920000000000002 H19.35 Z"/></g><g id="Ultralight-L" transform="matrix(1 0 0 1 491.205 1556)"><path d="M93.84750000000001 17.015000000000015  72.24 -4.592499999999987  74.82 -7.172499999999985  93.84750000000001 11.855000000000018  131.25750000000002 -25.554999999999993  133.8375 -22.974999999999994  93.84750000000001 17.015000000000015 Z M24.8325 -42.969999999999985 H129.9675 V-54.257499999999986 H24.8325 V-42.969999999999985 Z M21.285 7.984999999999999 V-78.445 H133.515 V-42.969999999999985 H131.9025 L93.84750000000001 -4.753749999999982 L74.82 -23.942499999999995 L55.308749999999996 -4.592499999999987 L64.5 4.4375 V7.984999999999999 H21.285 Z"/></g><g id="Bold-M" transform="matrix(1 0 0 1 2281.8 1126)"><path d="M76.625 19.02000000000001  53.5 -4.22999999999999  64.0 -14.60499999999999  76.625 -1.9799999999999898  103.375 -28.72999999999999  113.875 -18.22999999999999  76.625 19.02000000000001 Z M21.5 -35.60499999999999 H98.5 V-55.60499999999999 H21.5 V-35.60499999999999 Z M5.75 9.02000000000001 V-79.47999999999999 H114.25 V-35.60499999999999 H96.125 L76.625 -16.10499999999999 L64.0 -28.72999999999999 L42.25 -7.10499999999999 L42.5 -6.72999999999999 V9.02000000000001 H5.75 Z"/></g><g id="Semibold-M" transform="matrix(1 0 0 1 1985.97 1126)"><path d="M75.75 17.14500000000001  53.5 -5.22999999999999  62.5 -14.10499999999999  75.75 -0.8549999999999898  103.25 -28.35499999999999  112.25 -19.22999999999999  75.75 17.14500000000001 Z M20.875 -35.47999999999999 H99.125 V-55.47999999999999 H20.875 V-35.47999999999999 Z M7.625 7.14500000000001 V-77.60499999999999 H112.375 V-35.47999999999999 H96.25 L75.75 -14.97999999999999 L62.5 -28.35499999999999 L41.0 -6.85499999999999 L41.625 -6.10499999999999 V7.14500000000001 H7.625 Z"/></g><g id="Medium-M" transform="matrix(1 0 0 1 1689.91 1126)"><path d="M75.25 15.77000000000001  53.5 -5.97999999999999  61.375 -13.72999999999999  75.25 -0.10499999999998977  103.125 -27.97999999999999  110.875 -19.97999999999999  75.25 15.77000000000001 Z M20.375 -35.35499999999999 H99.625 V-55.35499999999999 H20.375 V-35.35499999999999 Z M9.0 5.77000000000001 V-76.22999999999999 H111.0 V-35.35499999999999 H96.375 L75.25 -14.22999999999999 L61.375 -27.97999999999999 L40.125 -6.60499999999999 L41.0 -5.60499999999999 V5.77000000000001 H9.0 Z"/></g><g id="Regular-M" transform="matrix(1 0 0 1 1394.06 1126)"><path d="M74.75 14.77000000000001  53.5 -6.47999999999999  60.5 -13.47999999999999  74.75 0.5200000000000102  103.0 -27.72999999999999  110.0 -20.47999999999999  74.75 14.77000000000001 Z M20.0 -35.22999999999999 H100.0 V-55.22999999999999 H20.0 V-35.22999999999999 Z M10.0 4.77000000000001 V-75.22999999999999 H110.0 V-35.22999999999999 H96.375 L74.75 -13.60499999999999 L60.625 -27.72999999999999 L39.375 -6.47999999999999 L40.5 -5.22999999999999 V4.77000000000001 H10.0 Z"/></g><g id="Light-M" transform="matrix(1 0 0 1 1098.18 1126)"><path d="M74.0 11.14500000000001  54.5 -8.35499999999999  59.75 -13.72999999999999  74.0 0.39500000000001023  102.375 -27.97999999999999  107.625 -22.47999999999999  74.0 11.14500000000001 Z M20.0 -37.22999999999999 H100.0 V-53.22999999999999 H20.0 V-37.22999999999999 Z M12.5 2.2700000000000102 V-72.72999999999999 H107.5 V-37.22999999999999 H97.5 L74.0 -13.72999999999999 L59.75 -27.85499999999999 L40.375 -8.35499999999999 L43.375 -5.22999999999999 V2.2700000000000102 H12.5 Z"/></g><g id="Thin-M" transform="matrix(1 0 0 1 802.565 1126)"><path d="M73.25 7.52000000000001  55.375 -10.35499999999999  59.0 -13.85499999999999  73.25 0.27000000000001023  101.625 -28.10499999999999  105.25 -24.47999999999999  73.25 7.52000000000001 Z M20.0 -39.22999999999999 H100.0 V-51.22999999999999 H20.0 V-39.22999999999999 Z M15.0 -0.22999999999998977 V-70.22999999999999 H105.0 V-39.22999999999999 H98.625 L73.25 -13.85499999999999 L59.0 -27.97999999999999 L41.25 -10.35499999999999 L46.375 -5.22999999999999 V-0.22999999999998977 H15.0 Z"/></g><g id="Ultralight-M" transform="matrix(1 0 0 1 506.415 1126)"><path d="M72.75 5.27000000000001  56.0 -11.47999999999999  58.5 -13.97999999999999  72.75 0.27000000000001023  101.25 -28.22999999999999  103.75 -25.72999999999999  72.75 5.27000000000001 Z M20.0 -40.47999999999999 H100.0 V-49.97999999999999 H20.0 V-40.47999999999999 Z M16.5 -1.7299999999999898 V-68.72999999999999 H103.5 V-40.47999999999999 H99.375 L72.75 -13.85499999999999 L58.5 -28.10499999999999 L41.875 -11.47999999999999 L48.125 -5.22999999999999 V-1.7299999999999898 H16.5 Z"/></g><g id="Bold-S" transform="matrix(1 0 0 1 2294.23 696)"><path d="M60.457914 7.574828000000011  42.213077999999996 -10.769421999999992  50.79108599999999 -19.252749999999992  60.557328 -9.486507999999986  81.16916400000001 -30.10307799999999  89.74717199999999 -21.719164  60.457914 7.574828000000011 Z M17.359578 -35.13058599999999 H77.320422 V-51.50549199999999 H17.359578 V-35.13058599999999 Z M4.535172 -0.41616399999999487 V-70.14325 H90.144828 V-35.13058599999999 H74.5605 L60.457914 -21.127413999999995 L50.691672000000004 -30.888921999999994 L34.3215 -14.618163999999993 L35.703828 -13.235835999999992 V-0.41616399999999487 H4.535172 Z"/></g><g id="Semibold-S" transform="matrix(1 0 0 1 1998.1 696)"><path d="M59.76675 6.093086  42.213077999999996 -11.559999999999988  49.607586 -18.859827999999993  59.866164000000005 -8.601249999999993  81.06975 -29.804835999999987  88.468992 -22.50500799999999  59.76675 6.093086 Z M16.862508 -35.03117199999999 H77.81749199999999 V-51.406077999999994 H16.862508 V-35.03117199999999 Z M6.016914 -1.8931719999999927 V-68.661508 H88.66308599999999 V-35.03117199999999 H74.659914 L59.76675 -20.237421999999995 L49.508172 -30.595413999999998 L33.336828 -14.419335999999987 L35.012664 -12.743499999999997 V-1.8931719999999927 H6.016914 Z"/></g><g id="Medium-S" transform="matrix(1 0 0 1 1701.85 696)"><path d="M59.373827999999996 5.009  42.213077999999996 -12.151749999999993  48.722328 -18.56158599999999  59.468508 -8.009499999999989  80.97033599999999 -29.511327999999992  87.38017199999999 -23.101491999999993  59.373827999999996 5.009 Z M16.469586 -34.936491999999994 H78.210414 V-51.306664 H16.469586 V-34.936491999999994 Z M7.101 -2.981991999999991 V-67.577422 H87.579 V-34.936491999999994 H74.759328 L59.373827999999996 -19.645671999999998 L48.622914 -30.297171999999996 L32.645664 -14.220507999999995 L34.520328 -12.350577999999999 V-2.981991999999991 H7.101 Z"/></g><g id="Regular-S" transform="matrix(1 0 0 1 1405.73 696)"><path d="M58.976172 4.218422000000004  42.213077999999996 -12.544671999999991  48.031164000000004 -18.367492  59.075585999999994 -7.517163999999994  80.870922 -29.312499999999993  86.689008 -23.494414  58.976172 4.218422000000004 Z M16.176078 -34.83707799999999 H78.50392199999999 V-51.207249999999995 H16.176078 V-34.83707799999999 Z M7.891578 -3.7678359999999884 V-66.79157799999999 H86.788422 V-34.83707799999999 H74.759328 L58.976172 -19.15333599999999 L48.031164000000004 -30.10307799999999 L32.053914 -14.125827999999998 L34.122672 -12.052335999999983 V-3.7678359999999884 H7.891578 Z"/></g><g id="Light-S" transform="matrix(1 0 0 1 1109.75 696)"><path d="M58.384422 1.359086000000005  42.998922 -14.026414000000003  47.439414000000006 -18.56158599999999  58.483836 -7.61657799999999  80.378586 -29.511327999999992  84.819078 -25.070835999999993  58.384422 1.359086000000005 Z M16.176078 -36.41349999999999 H78.50392199999999 V-49.630827999999994 H16.176078 V-36.41349999999999 Z M9.860922 -5.741913999999994 V-64.8175 H84.819078 V-36.41349999999999 H75.64458599999999 L58.384422 -19.252749999999992 L47.34 -30.202492 L32.844491999999995 -15.602835999999996 L36.394992 -12.052335999999983 V-5.741913999999994 H9.860922 Z"/></g><g id="Thin-S" transform="matrix(1 0 0 1 814.015 696)"><path d="M57.792672 -1.500249999999994  43.690085999999994 -15.602835999999996  46.847664 -18.660999999999994  57.892086 -7.715992  79.786836 -29.60600799999999  82.94441400000001 -26.651991999999993  57.792672 -1.500249999999994 Z M16.176078 -37.98992199999999 H78.50392199999999 V-48.049671999999994 H16.176078 V-37.98992199999999 Z M11.835 -7.715992 V-62.84342199999999 H82.845 V-37.98992199999999 H76.53457800000001 L57.792672 -19.352163999999995 L46.74825 -30.297171999999996 L33.530922000000004 -17.18399199999999 L38.761992 -12.052335999999983 V-7.715992 H11.835 Z"/></g><g id="Ultralight-S" transform="matrix(1 0 0 1 517.792 696)"><path d="M57.39975 -3.275499999999994  44.182422 -16.49282799999999  46.450008 -18.760413999999997  57.499164 -7.715992  79.493328 -29.70542199999999  81.760914 -27.636663999999996  57.39975 -3.275499999999994 Z M16.176078 -38.979327999999995 H78.50392199999999 V-47.06499999999999 H16.176078 V-38.979327999999995 Z M13.0185 -8.899491999999995 V-61.659921999999995 H81.6615 V-38.979327999999995 H77.126328 L57.39975 -19.352163999999995 L46.355328 -30.396585999999992 L34.027992 -18.069249999999997 L40.139585999999994 -12.052335999999983 V-8.899491999999995 H13.0185 Z"/></g></g></svg>