<svg xmlns="http://www.w3.org/2000/svg" height="48" width="48"><path d="M24 41.7Q20.35 41.7 17.125 40.325Q13.9 38.95 11.475 36.55Q9.05 34.15 7.675 30.925Q6.3 27.7 6.3 24Q6.3 20.35 7.675 17.125Q9.05 13.9 11.475 11.475Q13.9 9.05 17.125 7.65Q20.35 6.25 23.95 6.25Q27.65 6.25 30.9 7.65Q34.15 9.05 36.55 11.45Q38.95 13.85 40.35 17.1Q41.75 20.35 41.75 24Q41.75 27.65 40.35 30.875Q38.95 34.1 36.55 36.525Q34.15 38.95 30.9 40.325Q27.65 41.7 24 41.7ZM24 33.7Q19.95 33.7 17.125 30.9Q14.3 28.1 14.3 24Q14.3 19.95 17.1 17.1Q19.9 14.25 24 14.25Q28.05 14.25 30.9 17.075Q33.75 19.9 33.75 24Q33.75 25.75 33.15 27.325Q32.55 28.9 31.55 30.15L35.95 34.55Q37.85 32.45 38.925 29.775Q40 27.1 40 24Q40 17.35 35.325 12.675Q30.65 8 24 8Q17.35 8 12.7 12.675Q8.05 17.35 8.05 24Q8.05 30.65 12.7 35.3Q17.35 39.95 24 39.95Q27.1 39.95 29.825 38.85Q32.55 37.75 34.7 35.85L30.25 31.45Q28.95 32.55 27.375 33.125Q25.8 33.7 24 33.7ZM24 25.7Q23.3 25.7 22.8 25.2Q22.3 24.7 22.3 24Q22.3 23.3 22.8 22.775Q23.3 22.25 24 22.25Q24.7 22.25 25.225 22.775Q25.75 23.3 25.75 24Q25.75 24.1 25.725 24.2Q25.7 24.3 25.65 24.35L30.25 28.95Q31.05 27.9 31.525 26.65Q32 25.4 32 24Q32 20.65 29.65 18.325Q27.3 16 24 16Q20.65 16 18.35 18.35Q16.05 20.7 16.05 24Q16.05 27.35 18.35 29.65Q20.65 31.95 24 31.95Q25.4 31.95 26.675 31.5Q27.95 31.05 28.95 30.2L24.4 25.65Q24.35 25.65 24.225 25.675Q24.1 25.7 24 25.7Z"/></svg>