<svg xmlns="http://www.w3.org/2000/svg" height="40" width="40"><path d="M20 38.042q-3.75 0-7.021-1.417T7.25 32.75q-2.458-2.458-3.875-5.729Q1.958 23.75 1.958 20q0-3.708 1.417-7T7.25 7.25Q9.708 4.792 13 3.375q3.292-1.417 7-1.417t7.021 1.417q3.312 1.417 5.75 3.854 2.437 2.438 3.854 5.75 1.417 3.313 1.417 7.021 0 3.708-1.417 7t-3.875 5.75q-2.458 2.458-5.75 3.875-3.292 1.417-7 1.417Zm0-3.75q2.583 0 4.854-.813 2.271-.812 4.146-2.312l-2.333-2.292q-1.417 1.042-3.084 1.604-1.666.563-3.583.563-4.625 0-7.833-3.209Q8.958 24.625 8.958 20t3.209-7.854Q15.375 8.917 20 8.917t7.854 3.229q3.229 3.229 3.229 7.854 0 1.875-.583 3.542-.583 1.666-1.625 3.083l2.292 2.292q1.458-1.834 2.312-4.105.854-2.27.854-4.812 0-5.958-4.187-10.146Q25.958 5.667 20 5.667q-5.958 0-10.125 4.187Q5.708 14.042 5.708 20q0 5.958 4.167 10.125T20 34.292Zm0-6.959q1.083 0 2.083-.291 1-.292 1.875-.875L21.5 23.792q-.292.125-.688.208-.395.083-.812.083-1.708 0-2.896-1.187-1.187-1.188-1.187-2.896 0-1.75 1.187-2.938 1.188-1.187 2.896-1.187 1.75 0 2.938 1.208 1.187 1.209 1.187 2.917 0 .417-.104.833-.104.417-.313.75l2.459 2.375q.583-.875.875-1.854.291-.979.291-2.104 0-3.083-2.125-5.208T20 12.667q-3.042 0-5.188 2.125-2.145 2.125-2.145 5.208 0 3.042 2.145 5.188 2.146 2.145 5.188 2.145Z"/></svg>