<svg xmlns="http://www.w3.org/2000/svg" height="48" width="48"><path d="M43.1 44.15q-.25.25-.575.25-.325 0-.525-.25l-10.25-10.2H8.8q-1.1 0-1.925-.8T6.05 31.2V9q0-.2.025-.375T6.15 8.3L4.4 6.5q-.25-.15-.25-.5t.25-.55q.2-.2.525-.2t.525.2l37.65 37.6q.2.25.2.575 0 .325-.2.525Zm-1.15-7.1-4.6-4.6h3.1V8.8q0-.55-.35-.9t-.9-.35H12.45l-1.5-1.5H39.2q1.15 0 1.95.8t.8 1.95ZM8.8 32.45h21.45l-5.45-5.5h-11q-.35 0-.55-.2-.2-.2-.2-.55 0-.3.2-.525.2-.225.55-.225h9.5l-4.75-4.7H13.8q-.35 0-.55-.225-.2-.225-.2-.575 0-.4.275-.65t.775-.15h2.85l-9.4-9.4V31.2q0 .55.35.9t.9.35Zm23.1-5.5-1.55-1.5h3.9q.25 0 .475.225.225.225.225.525 0 .35-.225.55-.225.2-.475.2Zm-6.25-6.2-1.5-1.5h10.1q.25 0 .475.225.225.225.225.525 0 .35-.225.55-.225.2-.475.2Zm-6.2-6.2L17.95 13h16.3q.25 0 .475.225.225.225.225.525 0 .35-.225.575-.225.225-.475.225Zm-.55 6.55Zm6.95-.2Z"/></svg>