<svg xmlns="http://www.w3.org/2000/svg" height="40" viewBox="0 -960 960 960" width="40"><path d="M105-174.13v-67.64l128.33 42.44 400.31-132.9 85.67 112.56q28.18 38.23 7.28 79.79-20.9 41.55-68.28 41.55H180.79q-32.07 0-53.93-21.86T105-174.13ZM233.33-254 105-295.72v-98.36l128.33 42.44 231.31-75.82 126.98 55.51L233.33-254Zm512.98-167.56 78.1-35.75q15.03-6.56 24.42-20.82 9.4-14.25 9.4-31.2v-30.77q0-19.7-12.29-35.49-12.3-15.79-31.91-20.36l-70.29-15.18q-12.46-3.08-25.14-.29-12.68 2.78-22.73 11.01l-34.2 26.56q-10.05 8.75-15.41 20.5-5.36 11.76-5.36 24.48v34.51q0 13.39 5.36 25.14 5.36 11.76 15.41 20.5l24.43 20.18q12.13 10.05 28.68 11.76 16.55 1.7 31.53-4.78Zm-512.98 15.25L105-448.03v-71.84q0-31.41 21.86-53.6 21.86-22.2 53.93-22.2h80.08q17.36 0 33.27 7.59 15.91 7.59 26.96 21.9l81.18 106.26-168.95 53.61Zm272.46-235.92 101.31-40.46q15.62-6.49 25.43-21.12 9.8-14.63 9.8-30.98v-69.16q0-19.77-12.92-36.02-12.92-16.26-32.61-18.9l-93.9-19.64q-11.39-1.67-22.19-.05-10.81 1.61-19.94 8.1l-50.92 34.23q-11.62 8.49-18.23 20.65Q385-803.41 385-789.1v65.41q0 14.97 6.62 27.31 6.61 12.33 18.23 19.64l42 30.02q11.71 8.49 26.14 9.57 14.42 1.07 27.8-5.08Z"/></svg>