<svg xmlns="http://www.w3.org/2000/svg" height="40" width="40"><path d="M8.333 22v-1.708h6.25q.584 0 .959-.375t.375-.959v-1.375q0-.583-.375-.958t-.959-.375H8.292V14.5h6.291q.584 0 .959-.375t.375-.958v-1.334q0-.583-.375-.958t-.959-.375h-6.25V8.792h6.25q1.292 0 2.167.875.875.875.875 2.166v1.5q0 .792-.542 1.396-.541.604-1.125.604.584 0 1.125.667.542.667.542 1.458v1.5q0 1.25-.875 2.146-.875.896-2.167.896Zm20.292 0h-3.208q-1.292 0-2.167-.896-.875-.896-.875-2.146v-7.125q0-1.291.875-2.166t2.167-.875h3.208q1.292 0 2.187.875.896.875.896 2.166v7.125q0 1.25-.896 2.146-.895.896-2.187.896Zm0-1.708q.583 0 .958-.375t.375-.959v-7.125q0-.583-.375-.958t-.958-.375h-3.208q-.542 0-.938.375-.396.375-.396.958v7.125q0 .584.396.959t.938.375ZM6.042 36.25v-6.833h1.166v6.833Zm5.166 0v-6.833h1.167v6.833Zm5.167 0v-6.833h1.167v6.833Zm5.167 0v-6.833h12.416v6.833Z"/></svg>