<svg xmlns="http://www.w3.org/2000/svg" height="24" viewBox="0 -960 960 960" width="24"><path d="m684.54-656.08 126.84-127.61q5.85-6.62 13.89-6.62 8.04 0 14.65 6.62 6.62 6.61 6.62 14.27 0 7.65-6.62 14.27L707.15-622.62q-9.69 9.7-22.61 9.7t-22.62-9.7l-48.54-48.53q-5.61-5.62-5.61-13.66t5.61-13.88q5.85-6.62 14.27-6.23 8.43.38 14.27 6.23l42.62 42.61ZM480-283.08l-149.54 64.31q-32.31 13.92-61.38-5.35Q240-243.38 240-277.92v-457.46q0-26.85 18.88-45.74Q277.77-800 304.62-800h202.69q14.92 0 22 12.54 7.07 12.54 1.38 26.46-5.46 14.69-8.07 29.38Q520-716.92 520-700q0 69.69 46.27 120.46 46.27 50.77 113.73 57.85 2.77.46 4.96.57 2.19.12 4.27.12 12.39.77 21.58 9.35 9.19 8.57 9.19 20.73v213q0 34.54-29.08 53.8-29.07 19.27-61.38 5.35L480-283.08Z"/></svg>