<svg xmlns="http://www.w3.org/2000/svg" height="24" width="24"><path d="M17.475 8.625Q17.3 8.625 17.138 8.562Q16.975 8.5 16.825 8.375L15.525 7.05Q15.3 6.825 15.3 6.525Q15.3 6.225 15.525 6Q15.725 5.775 16.05 5.775Q16.375 5.775 16.575 6L17.475 6.875L20.475 3.85Q20.7 3.625 21 3.625Q21.3 3.625 21.525 3.875Q21.75 4.1 21.75 4.412Q21.75 4.725 21.525 4.925L18.1 8.375Q17.95 8.5 17.8 8.562Q17.65 8.625 17.475 8.625ZM6.775 19.7Q6.325 19.9 5.912 19.637Q5.5 19.375 5.5 18.875V5.3Q5.5 4.55 6.025 4.025Q6.55 3.5 7.3 3.5H13.875Q13.45 4.175 13.225 4.812Q13 5.45 13 6.25Q13 8.025 14.15 9.35Q15.3 10.675 17 10.925Q17.425 10.975 17.75 10.975Q18.075 10.975 18.5 10.925V18.875Q18.5 19.375 18.087 19.637Q17.675 19.9 17.225 19.7L12 17.45Z"/></svg>