<svg xmlns="http://www.w3.org/2000/svg" height="40" width="40"><path d="M10.833 13.333q-1.875 0-3.146-1.312-1.27-1.313-1.27-3.104V5.583q0-1.875 1.27-3.145 1.271-1.271 3.146-1.271h18.334q1.875 0 3.166 1.271 1.292 1.27 1.292 3.145v3.334q0 1.791-1.292 3.104-1.291 1.312-3.166 1.312Zm-.5-3.875h19.334V5.042H10.333v4.416Zm-4.75 29.375q-1.875 0-3.145-1.271-1.271-1.27-1.271-3.145V32.75h37.666v1.667q0 1.875-1.271 3.145-1.27 1.271-3.145 1.271Zm-4.416-7.5 6.375-13.958q.5-1.167 1.583-1.875t2.417-.708h16.916q1.334 0 2.417.708 1.083.708 1.625 1.875l6.375 13.958Zm12.5-3.291h1.666q.459 0 .75-.313.292-.312.292-.771 0-.458-.292-.791-.291-.334-.75-.334h-1.666q-.5 0-.813.334-.312.333-.312.75 0 .5.312.812.313.313.813.313Zm0-3.875h1.666q.459 0 .75-.313.292-.312.292-.771 0-.5-.292-.791-.291-.292-.75-.292h-1.666q-.5 0-.813.292-.312.291-.312.75 0 .5.312.812.313.313.813.313Zm0-3.834h1.666q.459 0 .75-.312.292-.313.292-.771 0-.5-.292-.812-.291-.313-.75-.313h-1.666q-.5 0-.813.313-.312.312-.312.77 0 .459.312.792.313.333.813.333Zm5.5 7.709h1.666q.459 0 .792-.313.333-.312.333-.771 0-.458-.333-.791-.333-.334-.792-.334h-1.666q-.459 0-.792.334-.333.333-.333.75 0 .5.333.812.333.313.792.313Zm0-3.875h1.666q.459 0 .792-.313.333-.312.333-.771 0-.5-.333-.791-.333-.292-.792-.292h-1.666q-.459 0-.792.292-.333.291-.333.75 0 .5.333.812.333.313.792.313Zm0-3.834h1.666q.459 0 .792-.312.333-.313.333-.771 0-.5-.333-.812-.333-.313-.792-.313h-1.666q-.459 0-.792.313-.333.312-.333.77 0 .459.333.792t.792.333Zm5.5 7.709h1.666q.5 0 .813-.313.312-.312.312-.771 0-.458-.312-.791-.313-.334-.813-.334h-1.666q-.417 0-.729.334-.313.333-.313.75 0 .5.313.812.312.313.729.313Zm0-3.875h1.666q.5 0 .813-.313.312-.312.312-.771 0-.5-.312-.791-.313-.292-.813-.292h-1.666q-.417 0-.729.292-.313.291-.313.75 0 .5.313.812.312.313.729.313Zm0-3.834h1.666q.5 0 .813-.312.312-.313.312-.771 0-.5-.312-.812-.313-.313-.813-.313h-1.666q-.417 0-.729.313-.313.312-.313.77 0 .459.313.792.312.333.729.333Z"/></svg>