<svg xmlns="http://www.w3.org/2000/svg" height="24" width="24"><path d="M4.625 20q-.7 0-1.162-.462Q3 19.075 3 18.375V5.625q0-.7.463-1.162Q3.925 4 4.625 4h14.75q.7 0 1.163.463.462.462.462 1.162v12.75q0 .7-.462 1.163-.463.462-1.163.462Zm0-1h14.75q.25 0 .437-.188.188-.187.188-.437V5.625q0-.25-.188-.437Q19.625 5 19.375 5H4.625q-.25 0-.437.188Q4 5.375 4 5.625v12.75q0 .25.188.437.187.188.437.188Zm.875-2.5h4v-1h-4Zm9.05-2.2 4.25-4.25-.725-.725-3.525 3.55-1.425-1.425-.7.725ZM5.5 12.5h4v-1h-4Zm0-4h4v-1h-4ZM4 19V5v14Z"/></svg>