<svg xmlns="http://www.w3.org/2000/svg" height="24" width="24"><path d="M5.5 8.5H9.5V7.5H5.5ZM5.5 12.5H9.5V11.5H5.5ZM5.5 16.5H9.5V15.5H5.5ZM14.55 14.3 18.8 10.05 18.075 9.325 14.55 12.875 13.125 11.45 12.425 12.175ZM4.625 20Q3.925 20 3.463 19.538Q3 19.075 3 18.375V5.625Q3 4.925 3.463 4.463Q3.925 4 4.625 4H19.375Q20.075 4 20.538 4.463Q21 4.925 21 5.625V18.375Q21 19.075 20.538 19.538Q20.075 20 19.375 20ZM4.625 19H19.375Q19.625 19 19.812 18.812Q20 18.625 20 18.375V5.625Q20 5.375 19.812 5.188Q19.625 5 19.375 5H4.625Q4.375 5 4.188 5.188Q4 5.375 4 5.625V18.375Q4 18.625 4.188 18.812Q4.375 19 4.625 19ZM4.625 19Q4.375 19 4.188 18.812Q4 18.625 4 18.375V5.625Q4 5.375 4.188 5.188Q4.375 5 4.625 5H19.375Q19.625 5 19.812 5.188Q20 5.375 20 5.625V18.375Q20 18.625 19.812 18.812Q19.625 19 19.375 19Z"/></svg>