<svg xmlns="http://www.w3.org/2000/svg" height="48" viewBox="0 -960 960 960" width="48"><path d="M360.17-491.5q28.33 0 48.58-20.17Q429-531.85 429-560.17q0-28.33-20.28-48.58Q388.45-629 359.97-629q-28.47 0-48.47 20.28-20 20.27-20 48.75 0 28.47 20.17 48.47 20.18 20 48.5 20Zm240 0q28.33 0 48.58-20.17Q669-531.85 669-560.17q0-28.33-20.28-48.58Q628.45-629 599.97-629q-28.47 0-48.47 20.28-20 20.27-20 48.75 0 28.47 20.17 48.47 20.18 20 48.5 20ZM349-121.5v-170h102.5v170H349Zm160 0v-170h102.5v170H509Zm-330 0q-24.19 0-40.84-16.66Q121.5-154.81 121.5-179v-421q0-99.58 69.56-169.29Q260.63-839 360-839h240q99.58 0 169.29 69.71T839-600v421q0 24.19-16.89 40.84-16.89 16.66-40.61 16.66H669v-170q0-23.72-16.89-40.61T611.5-349H349q-24.19 0-40.84 16.89-16.66 16.89-16.66 40.61v170H179Z"/></svg>