<svg xmlns="http://www.w3.org/2000/svg" height="48" width="48"><path d="M8.85 25.55q-.65 0-1.1-.45-.45-.45-.45-1.1 0-.65.45-1.1.45-.45 1.1-.45.65 0 1.1.45.45.45.45 1.1 0 .65-.45 1.1-.45.45-1.1.45Zm0-12.15q-.65 0-1.1-.45-.45-.45-.45-1.1 0-.65.45-1.1.45-.45 1.1-.45.65 0 1.1.45.45.45.45 1.1 0 .65-.45 1.1-.45.45-1.1.45Zm0 24.3q-.65 0-1.1-.45-.45-.45-.45-1.1 0-.65.45-1.1.45-.45 1.1-.45.65 0 1.1.45.45.45.45 1.1 0 .65-.45 1.1-.45.45-1.1.45Zm9-1q-.25 0-.4-.15-.15-.15-.15-.4t.15-.4q.15-.15.4-.15h22.3q.25 0 .4.15.15.15.15.4t-.15.4q-.15.15-.4.15Zm0-12.15q-.25 0-.4-.15-.15-.15-.15-.4t.15-.4q.15-.15.4-.15h22.3q.25 0 .4.15.15.15.15.4t-.15.4q-.15.15-.4.15Zm0-12.15q-.25 0-.4-.15-.15-.15-.15-.4t.15-.4q.15-.15.4-.15h22.3q.25 0 .4.15.15.15.15.4t-.15.4q-.15.15-.4.15Z"/></svg>