<svg xmlns="http://www.w3.org/2000/svg" version="1.1" width="3300" height="2000"><g id="Notes"><style>
    text {
      font-family: monospace;
      text-anchor: middle;
    }
    text.emphasis {
      font-weight:bold;
    }
    text.lanchor {
      text-anchor: start;
    }
  </style><rect height="2200" id="artboard" fill="white" width="3300" x="0" y="0"/><line id="" style="fill:none;stroke:black;stroke-width:0.5;" x1="263" x2="3036" y1="292" y2="292"/><text class="lanchor emphasis" transform="matrix(1 0 0 1 263 322)">Weight/Scale Variations</text><text transform="matrix(1 0 0 1 559.711 322)">Ultralight</text><text transform="matrix(1 0 0 1 856.422 322)">Thin</text><text transform="matrix(1 0 0 1 1153.13 322)">Light</text><text transform="matrix(1 0 0 1 1449.84 322)">Regular</text><text transform="matrix(1 0 0 1 1746.56 322)">Medium</text><text transform="matrix(1 0 0 1 2043.27 322)">Semibold</text><text transform="matrix(1 0 0 1 2339.98 322)">Bold</text><text transform="matrix(1 0 0 1 2636.69 322)">Heavy</text><text transform="matrix(1 0 0 1 2933.4 322)">Black</text><text id="template-version" style="text-anchor: end;" transform="matrix(1 0 0 1 3036 1933)">Template v.1.0</text><text class="lanchor" transform="matrix(1 0 0 1 263 726)">Small</text><text class="lanchor" transform="matrix(1 0 0 1 263 1156)">Medium</text><text class="lanchor" transform="matrix(1 0 0 1 263 1586)">Large</text></g><g id="Guides"><g id="H-reference" style="fill:#27AAE1;stroke:none;" transform="matrix(1 0 0 1 339 696)"><path d="M 54.9316 0 L 57.666 0 L 30.5664 -70.459 L 28.0762 -70.459 L 0.976562 0 L 3.66211 0 L 12.9395 -24.4629 L 45.7031 -24.4629 Z M 29.1992 -67.0898 L 29.4434 -67.0898 L 44.8242 -26.709 L 13.8184 -26.709 Z"/></g><line id="Baseline-S" style="fill:none;stroke:#27AAE1;opacity:1;stroke-width:0.577;" x1="263" x2="3036" y1="696" y2="696"/><line id="Capline-S" style="fill:none;stroke:#27AAE1;opacity:1;stroke-width:0.577;" x1="263" x2="3036" y1="625.541" y2="625.541"/><g id="H-reference" style="fill:#27AAE1;stroke:none;" transform="matrix(1 0 0 1 339 1126)"><path d="M 54.9316 0 L 57.666 0 L 30.5664 -70.459 L 28.0762 -70.459 L 0.976562 0 L 3.66211 0 L 12.9395 -24.4629 L 45.7031 -24.4629 Z M 29.1992 -67.0898 L 29.4434 -67.0898 L 44.8242 -26.709 L 13.8184 -26.709 Z"/></g><line id="Baseline-M" style="fill:none;stroke:#27AAE1;opacity:1;stroke-width:0.577;" x1="263" x2="3036" y1="1126" y2="1126"/><line id="Capline-M" style="fill:none;stroke:#27AAE1;opacity:1;stroke-width:0.577;" x1="263" x2="3036" y1="1055.54" y2="1055.54"/><g id="H-reference" style="fill:#27AAE1;stroke:none;" transform="matrix(1 0 0 1 339 1556)"><path d="M 54.9316 0 L 57.666 0 L 30.5664 -70.459 L 28.0762 -70.459 L 0.976562 0 L 3.66211 0 L 12.9395 -24.4629 L 45.7031 -24.4629 Z M 29.1992 -67.0898 L 29.4434 -67.0898 L 44.8242 -26.709 L 13.8184 -26.709 Z"/></g><line id="Baseline-L" style="fill:none;stroke:#27AAE1;opacity:1;stroke-width:0.577;" x1="263" x2="3036" y1="1556" y2="1556"/><line id="Capline-L" style="fill:none;stroke:#27AAE1;opacity:1;stroke-width:0.577;" x1="263" x2="3036" y1="1485.54" y2="1485.54"/><rect height="119.336" id="left-margin" style="fill:darkred;stroke:none;opacity:0.4;" width="12.4512" x="1394.06" y="1030.79"/><rect height="119.336" id="right-margin" style="fill:darkgreen;stroke:none;opacity:0.4;" width="12.4512" x="1502.5112" y="1030.79"/><rect x="1406.5112" y="1045" width="96" height="96" fill="none" stroke="blue" stroke-dasharray="5"/><rect x="1394.06" y="1030.79" width="120.9024" height="119.336" fill="none" stroke="blue"/></g><g id="Symbols"><g id="Bold-L" transform="matrix(1 0 0 1 2266 1556)"><path d="M77.803 10.888  97.153 -8.301  77.964 -27.571  69.983 -19.75  76.029 -13.784 Q71.918 -14.106 68.249 -15.598 Q64.581 -17.089 61.92 -19.75 Q58.856 -22.814 57.244 -26.845 Q55.631 -30.876 55.631 -35.069 Q55.631 -37.649 56.317 -40.511 Q57.002 -43.373 58.453 -46.195 L50.391 -54.096 Q47.407 -49.501 45.916 -44.744 Q44.424 -39.987 44.424 -35.23 Q44.424 -28.699 46.803 -22.733 Q49.181 -16.767 54.18 -12.01 Q58.373 -7.576 63.936 -5.197 Q69.499 -2.819 75.546 -2.577 L69.983 3.148 L77.803 10.888 Z M104.651 -16.364 Q107.392 -20.959 108.924 -25.716 Q110.456 -30.473 110.456 -35.23 Q110.456 -41.761 107.997 -47.727 Q105.538 -53.693 100.781 -58.611 Q96.347 -62.884 90.824 -65.263 Q85.301 -67.641 79.416 -67.964 L84.817 -73.607 L77.078 -81.428 L57.727 -62.159 L76.916 -42.97 L84.817 -50.71 L78.851 -56.837 Q82.802 -56.354 86.47 -54.902 Q90.139 -53.451 92.88 -50.71 Q95.944 -47.646 97.597 -43.615 Q99.249 -39.584 99.249 -35.391 Q99.249 -32.811 98.524 -29.949 Q97.798 -27.087 96.347 -24.507 L104.651 -16.364 Z M77.4 32.495 Q63.371 32.495 51.036 27.214 Q38.7 21.933 29.468 12.702 Q20.237 3.47 14.956 -8.866 Q9.675 -21.201 9.675 -35.23 Q9.675 -49.42 14.956 -61.756 Q20.237 -74.091 29.468 -83.282 Q38.7 -92.474 51.036 -97.795 Q63.371 -103.116 77.4 -103.116 Q91.59 -103.116 103.926 -97.795 Q116.261 -92.474 125.453 -83.282 Q134.644 -74.091 139.965 -61.756 Q145.286 -49.42 145.286 -35.23 Q145.286 -21.201 139.965 -8.866 Q134.644 3.47 125.453 12.702 Q116.261 21.933 103.926 27.214 Q91.59 32.495 77.4 32.495 Z M77.4 17.741 Q99.411 17.741 114.891 2.261 Q130.371 -13.219 130.371 -35.23 Q130.371 -57.241 114.891 -72.721 Q99.411 -88.201 77.4 -88.201 Q55.389 -88.201 39.909 -72.721 Q24.429 -57.241 24.429 -35.23 Q24.429 -13.219 39.909 2.261 Q55.389 17.741 77.4 17.741 Z"/></g><g id="Semibold-L" transform="matrix(1 0 0 1 1970.27 1556)"><path d="M77.803 10.326  96.592 -8.301  77.895 -27.009  70.544 -19.75  77.081 -13.294 Q72.619 -13.405 68.599 -14.967 Q64.581 -16.528 61.639 -19.469 Q58.506 -22.604 56.858 -26.705 Q55.21 -30.807 55.21 -35.069 Q55.21 -37.718 55.896 -40.511 Q56.581 -43.304 57.963 -46.055 L50.46 -53.466 Q47.617 -49.151 46.232 -44.534 Q44.845 -39.918 44.845 -35.23 Q44.845 -28.84 47.224 -22.909 Q49.602 -16.976 54.461 -12.291 Q58.793 -7.785 64.532 -5.407 Q70.27 -3.028 76.457 -2.857 L70.544 3.148 L77.803 10.326 Z M104.511 -16.994 Q107.183 -21.309 108.608 -25.926 Q110.035 -30.542 110.035 -35.23 Q110.035 -41.62 107.612 -47.587 Q105.188 -53.553 100.501 -58.331 Q95.997 -62.744 90.263 -65.087 Q84.53 -67.432 78.434 -67.614 L84.256 -73.607 L77.078 -80.867 L58.289 -62.159 L76.986 -43.531 L84.256 -50.71 L77.729 -57.328 Q82.031 -57.055 86.12 -55.499 Q90.208 -53.941 93.161 -50.991 Q96.294 -47.856 97.982 -43.755 Q99.67 -39.653 99.67 -35.391 Q99.67 -32.742 98.945 -29.949 Q98.219 -27.156 96.837 -24.576 L104.511 -16.994 Z M77.4 30.742 Q63.792 30.742 51.771 25.566 Q39.751 20.392 30.765 11.405 Q21.778 2.419 16.604 -9.601 Q11.428 -21.622 11.428 -35.23 Q11.428 -48.999 16.604 -61.02 Q21.778 -73.04 30.765 -81.986 Q39.751 -90.932 51.771 -96.113 Q63.792 -101.294 77.4 -101.294 Q91.169 -101.294 103.19 -96.113 Q115.21 -90.932 124.156 -81.986 Q133.102 -73.04 138.283 -61.02 Q143.464 -48.999 143.464 -35.23 Q143.464 -21.622 138.283 -9.601 Q133.102 2.419 124.156 11.405 Q115.21 20.392 103.19 25.566 Q91.169 30.742 77.4 30.742 Z M77.4 18.371 Q99.691 18.371 115.347 2.681 Q131.001 -13.01 131.001 -35.23 Q131.001 -57.521 115.347 -73.177 Q99.691 -88.831 77.4 -88.831 Q55.18 -88.831 39.489 -73.177 Q23.799 -57.521 23.799 -35.23 Q23.799 -13.01 39.489 2.681 Q55.18 18.371 77.4 18.371 Z"/></g><g id="Medium-L" transform="matrix(1 0 0 1 1674.31 1556)"><path d="M77.803 9.905  96.171 -8.301  77.842 -26.589  70.965 -19.75  77.869 -12.924 Q73.145 -12.879 68.862 -14.493 Q64.581 -16.107 61.43 -19.26 Q58.243 -22.446 56.57 -26.6 Q54.894 -30.754 54.894 -35.069 Q54.894 -37.771 55.58 -40.511 Q56.265 -43.251 57.594 -45.95 L50.513 -52.992 Q47.775 -48.888 46.467 -44.376 Q45.161 -39.864 45.161 -35.23 Q45.161 -28.944 47.54 -23.039 Q49.918 -17.135 54.67 -12.5 Q59.109 -7.943 64.979 -5.565 Q70.848 -3.186 77.14 -3.067 L70.965 3.148 L77.803 9.905 Z M104.406 -17.468 Q107.025 -21.572 108.373 -26.084 Q109.719 -30.596 109.719 -35.23 Q109.719 -41.516 107.323 -47.482 Q104.925 -53.448 100.291 -58.121 Q95.734 -62.639 89.842 -64.956 Q83.952 -67.274 77.698 -67.351 L83.835 -73.607 L77.078 -80.446 L58.71 -62.159 L77.039 -43.952 L83.835 -50.71 L76.889 -57.697 Q81.452 -57.581 85.858 -55.946 Q90.261 -54.311 93.37 -51.2 Q96.556 -48.014 98.271 -43.86 Q99.986 -39.706 99.986 -35.391 Q99.986 -32.689 99.261 -29.949 Q98.535 -27.209 97.206 -24.629 L104.406 -17.468 Z M77.4 29.428 Q64.108 29.428 52.324 24.331 Q40.54 19.234 31.739 10.431 Q22.936 1.63 17.839 -10.154 Q12.742 -21.938 12.742 -35.23 Q12.742 -48.683 17.839 -60.467 Q22.936 -72.251 31.739 -81.012 Q40.54 -89.774 52.324 -94.851 Q64.108 -99.927 77.4 -99.927 Q90.853 -99.927 102.637 -94.851 Q114.421 -89.774 123.182 -81.012 Q131.944 -72.251 137.021 -60.467 Q142.097 -48.683 142.097 -35.23 Q142.097 -21.938 137.021 -10.154 Q131.944 1.63 123.182 10.431 Q114.421 19.234 102.637 24.331 Q90.853 29.428 77.4 29.428 Z M77.4 18.845 Q99.901 18.845 115.689 2.998 Q131.475 -12.852 131.475 -35.23 Q131.475 -57.731 115.689 -73.519 Q99.901 -89.305 77.4 -89.305 Q55.022 -89.305 39.172 -73.519 Q23.325 -57.731 23.325 -35.23 Q23.325 -12.852 39.172 2.998 Q55.022 18.845 77.4 18.845 Z"/></g><g id="Regular-L" transform="matrix(1 0 0 1 1378.56 1556)"><path d="M77.803 9.598  95.863 -8.301  77.803 -26.281  71.273 -19.75  78.448 -12.655 Q73.53 -12.494 69.055 -14.147 Q64.581 -15.799 61.275 -19.105 Q58.05 -22.33 56.357 -26.522 Q54.664 -30.715 54.664 -35.069 Q54.664 -37.81 55.349 -40.511 Q56.034 -43.212 57.324 -45.872 L50.552 -52.645 Q47.891 -48.694 46.642 -44.26 Q45.392 -39.826 45.392 -35.23 Q45.392 -29.022 47.77 -23.136 Q50.149 -17.251 54.825 -12.655 Q59.34 -8.059 65.306 -5.681 Q71.273 -3.302 77.642 -3.222 L71.273 3.148 L77.803 9.598 Z M104.329 -17.815 Q106.909 -21.766 108.199 -26.2 Q109.489 -30.634 109.489 -35.23 Q109.489 -41.438 107.11 -47.404 Q104.732 -53.371 100.136 -57.966 Q95.541 -62.562 89.534 -64.86 Q83.528 -67.157 77.158 -67.157 L83.528 -73.607 L77.078 -80.138 L59.017 -62.159 L77.078 -44.26 L83.528 -50.71 L76.271 -57.966 Q81.028 -57.966 85.664 -56.273 Q90.3 -54.58 93.525 -51.355 Q96.75 -48.13 98.483 -43.937 Q100.217 -39.745 100.217 -35.391 Q100.217 -32.65 99.491 -29.949 Q98.766 -27.248 97.476 -24.668 L104.329 -17.815 Z M77.4 28.464 Q64.339 28.464 52.729 23.425 Q41.119 18.386 32.452 9.718 Q23.784 1.051 18.745 -10.559 Q13.706 -22.169 13.706 -35.23 Q13.706 -48.452 18.745 -60.062 Q23.784 -71.672 32.452 -80.299 Q41.119 -88.926 52.729 -93.925 Q64.339 -98.924 77.4 -98.924 Q90.623 -98.924 102.233 -93.925 Q113.843 -88.926 122.469 -80.299 Q131.096 -71.672 136.095 -60.062 Q141.094 -48.452 141.094 -35.23 Q141.094 -22.169 136.095 -10.559 Q131.096 1.051 122.469 9.718 Q113.843 18.386 102.233 23.425 Q90.623 28.464 77.4 28.464 Z M77.4 19.192 Q100.056 19.192 115.939 3.228 Q131.822 -12.736 131.822 -35.23 Q131.822 -57.886 115.939 -73.769 Q100.056 -89.652 77.4 -89.652 Q54.906 -89.652 38.942 -73.769 Q22.978 -57.886 22.978 -35.23 Q22.978 -12.736 38.942 3.228 Q54.906 19.192 77.4 19.192 Z"/></g><g id="Light-L" transform="matrix(1 0 0 1 1082.77 1556)"><path d="M77.864 8.325  94.623 -8.301  77.864 -25.041  72.575 -19.75  80.681 -11.755 Q74.399 -11.625 69.21 -13.371 Q64.023 -15.117 60.654 -18.484 Q57.244 -21.896 55.504 -26.253 Q53.764 -30.612 53.764 -35.13 Q53.764 -37.841 54.388 -40.572 Q55.01 -43.305 56.239 -45.903 L50.737 -51.157 Q48.449 -47.485 47.387 -43.449 Q46.322 -39.413 46.322 -35.23 Q46.322 -29.211 48.593 -23.51 Q50.861 -17.809 55.446 -13.29 Q59.867 -8.772 66.422 -6.503 Q72.979 -4.233 79.906 -4.183 L72.575 3.148 L77.864 8.325 Z M104.235 -19.303 Q106.414 -22.964 107.533 -26.99 Q108.652 -31.017 108.652 -35.23 Q108.652 -41.249 106.335 -47.029 Q104.019 -52.809 99.515 -57.284 Q95.044 -61.817 88.452 -64.037 Q81.86 -66.258 74.957 -66.258 L82.287 -73.607 L77.108 -78.898 L60.351 -62.159 L77.108 -45.532 L82.287 -50.71 L74.162 -58.835 Q80.315 -58.835 85.587 -57.079 Q90.858 -55.325 94.225 -51.958 Q97.593 -48.593 99.401 -44.218 Q101.209 -39.843 101.209 -35.336 Q101.209 -32.619 100.53 -29.888 Q99.851 -27.155 98.624 -24.668 L104.235 -19.303 Z M77.415 25.548 Q64.897 25.548 53.841 20.741 Q42.786 15.935 34.506 7.666 Q26.226 -0.605 21.424 -11.65 Q16.622 -22.698 16.622 -35.215 Q16.622 -47.832 21.429 -58.919 Q26.235 -70.005 34.504 -78.245 Q42.775 -86.485 53.82 -91.247 Q64.868 -96.008 77.385 -96.008 Q90.002 -96.008 101.089 -91.242 Q112.175 -86.475 120.415 -78.247 Q128.655 -70.016 133.417 -58.939 Q138.178 -47.862 138.178 -35.245 Q138.178 -22.727 133.412 -11.671 Q128.645 -0.616 120.417 7.664 Q112.186 15.944 101.109 20.746 Q90.032 25.548 77.415 25.548 Z M77.398 18.479 Q99.746 18.479 115.428 2.749 Q131.109 -12.979 131.109 -35.228 Q131.109 -57.576 115.429 -73.258 Q99.749 -88.939 77.402 -88.939 Q55.154 -88.939 39.422 -73.259 Q23.691 -57.579 23.691 -35.232 Q23.691 -12.984 39.421 2.748 Q55.149 18.479 77.398 18.479 Z"/></g><g id="Thin-L" transform="matrix(1 0 0 1 787.282 1556)"><path d="M77.927 7.055  93.383 -8.301  77.927 -23.801  73.877 -19.75  82.913 -10.857 Q75.267 -10.757 69.365 -12.595 Q63.465 -14.435 60.035 -17.865 Q56.438 -21.462 54.651 -25.986 Q52.866 -30.509 52.866 -35.193 Q52.866 -37.871 53.427 -40.635 Q53.988 -43.397 55.154 -45.934 L50.924 -49.668 Q49.007 -46.276 48.13 -42.638 Q47.253 -39 47.253 -35.23 Q47.253 -29.401 49.413 -23.884 Q51.576 -18.366 56.065 -13.926 Q60.395 -9.486 67.54 -7.324 Q74.683 -5.163 82.17 -5.144 L73.877 3.148 L77.927 7.055 Z M104.143 -20.792 Q105.919 -24.16 106.867 -27.78 Q107.815 -31.399 107.815 -35.23 Q107.815 -41.061 105.559 -46.655 Q103.305 -52.248 98.896 -56.602 Q94.549 -61.074 87.37 -63.217 Q80.193 -65.36 72.754 -65.36 L81.047 -73.607 L77.139 -77.658 L61.685 -62.159 L77.139 -46.803 L81.047 -50.71 L72.055 -59.703 Q79.601 -59.703 85.509 -57.886 Q91.416 -56.068 94.926 -52.563 Q98.435 -49.057 100.318 -44.499 Q102.202 -39.942 102.202 -35.28 Q102.202 -32.589 101.568 -29.825 Q100.936 -27.063 99.77 -24.668 L104.143 -20.792 Z M77.429 22.635 Q65.455 22.635 54.954 18.058 Q44.452 13.484 36.559 5.611 Q28.665 -2.261 24.1 -12.744 Q19.535 -23.227 19.535 -35.201 Q19.535 -47.212 24.112 -57.776 Q28.686 -68.339 36.559 -76.192 Q44.431 -84.045 54.914 -88.57 Q65.397 -93.095 77.371 -93.095 Q89.382 -93.095 99.946 -88.559 Q110.509 -84.024 118.362 -76.192 Q126.215 -68.362 130.74 -57.816 Q135.265 -47.271 135.265 -35.259 Q135.265 -23.285 130.729 -12.784 Q126.194 -2.282 118.362 5.611 Q110.532 13.505 99.986 18.07 Q89.441 22.635 77.429 22.635 Z M77.395 17.765 Q99.435 17.765 114.915 2.27 Q130.395 -13.224 130.395 -35.225 Q130.395 -57.265 114.92 -72.745 Q99.443 -88.225 77.405 -88.225 Q55.402 -88.225 39.903 -72.75 Q24.405 -57.273 24.405 -35.235 Q24.405 -13.232 39.9 2.267 Q55.394 17.765 77.395 17.765 Z"/></g><g id="Ultralight-L" transform="matrix(1 0 0 1 491.205 1556)"><path d="M77.964 6.292  92.638 -8.301  77.964 -23.056  74.659 -19.75  84.253 -10.317 Q75.788 -10.236 69.458 -12.131 Q63.129 -14.026 59.663 -17.492 Q55.954 -21.201 54.14 -25.824 Q52.326 -30.446 52.326 -35.23 Q52.326 -37.891 52.85 -40.672 Q53.374 -43.454 54.503 -45.953 L51.036 -48.775 Q49.343 -45.55 48.577 -42.151 Q47.811 -38.753 47.811 -35.23 Q47.811 -29.514 49.907 -24.109 Q52.003 -18.702 56.438 -14.308 Q60.711 -9.914 68.209 -7.817 Q75.707 -5.721 83.528 -5.721 L74.659 3.148 L77.964 6.292 Z M104.087 -21.685 Q105.622 -24.879 106.467 -28.254 Q107.312 -31.628 107.312 -35.23 Q107.312 -40.948 105.095 -46.429 Q102.877 -51.911 98.524 -56.192 Q94.251 -60.627 86.722 -62.723 Q79.191 -64.819 71.434 -64.819 L80.303 -73.607 L77.158 -76.913 L62.484 -62.159 L77.158 -47.566 L80.303 -50.71 L70.789 -60.224 Q79.174 -60.224 85.463 -58.369 Q91.751 -56.515 95.347 -52.926 Q98.941 -49.335 100.87 -44.668 Q102.797 -40 102.797 -35.246 Q102.797 -32.569 102.192 -29.788 Q101.588 -27.006 100.459 -24.668 L104.087 -21.685 Z M77.439 20.885 Q65.79 20.885 55.622 16.449 Q45.452 12.013 37.791 4.379 Q30.13 -3.254 25.708 -13.398 Q21.285 -23.543 21.285 -35.191 Q21.285 -46.84 25.721 -57.089 Q30.157 -67.34 37.791 -74.96 Q45.424 -82.581 55.568 -86.962 Q65.713 -91.345 77.361 -91.345 Q89.01 -91.345 99.259 -86.949 Q109.51 -82.554 117.13 -74.96 Q124.751 -67.367 129.132 -57.142 Q133.515 -46.917 133.515 -35.269 Q133.515 -23.62 129.119 -13.452 Q124.724 -3.282 117.13 4.379 Q109.537 12.04 99.312 16.462 Q89.087 20.885 77.439 20.885 Z M77.395 17.338 Q99.249 17.338 114.608 1.983 Q129.968 -13.369 129.968 -35.225 Q129.968 -57.079 114.613 -72.438 Q99.261 -87.797 77.405 -87.797 Q55.551 -87.797 40.192 -72.443 Q24.832 -57.091 24.832 -35.235 Q24.832 -13.381 40.187 1.978 Q55.539 17.338 77.395 17.338 Z"/></g><g id="Bold-M" transform="matrix(1 0 0 1 2281.8 1126)"><path d="M60.312 0.708  75.438 -14.355  60.438 -29.417  54.125 -23.23  58.688 -18.667 Q55.5 -19.105 52.719 -20.261 Q49.938 -21.417 48 -23.23 Q45.625 -25.605 44.406 -28.699 Q43.188 -31.792 43.188 -35.105 Q43.188 -37.105 43.719 -39.292 Q44.25 -41.48 45.375 -43.667 L38.938 -49.98 Q36.625 -46.355 35.469 -42.574 Q34.312 -38.792 34.312 -35.23 Q34.312 -30.167 36.188 -25.48 Q38.062 -20.792 41.812 -17.042 Q45 -13.855 49.281 -12.011 Q53.562 -10.167 58.375 -9.855 L54.125 -5.48 L60.312 0.708 Z M81.062 -20.48 Q83.375 -24.105 84.531 -27.886 Q85.688 -31.667 85.688 -35.23 Q85.688 -40.292 83.781 -44.949 Q81.875 -49.605 78.125 -53.355 Q74.938 -56.542 70.688 -58.417 Q66.438 -60.292 61.625 -60.667 L65.875 -64.98 L59.688 -71.167 L44.562 -56.105 L59.562 -41.042 L65.875 -47.23 L61.375 -51.73 Q64.625 -51.355 67.312 -50.23 Q70 -49.105 72 -47.23 Q74.375 -44.855 75.594 -41.761 Q76.812 -38.667 76.812 -35.355 Q76.812 -33.355 76.281 -31.167 Q75.75 -28.98 74.625 -26.792 L81.062 -20.48 Z M60 17.77 Q48.875 17.77 39.25 13.614 Q29.625 9.458 22.469 2.301 Q15.312 -4.855 11.156 -14.48 Q7 -24.105 7 -35.23 Q7 -46.355 11.156 -55.98 Q15.312 -65.605 22.469 -72.761 Q29.625 -79.917 39.25 -84.074 Q48.875 -88.23 60 -88.23 Q71.125 -88.23 80.75 -84.074 Q90.375 -79.917 97.531 -72.761 Q104.688 -65.605 108.844 -55.98 Q113 -46.355 113 -35.23 Q113 -24.105 108.844 -14.48 Q104.688 -4.855 97.531 2.301 Q90.375 9.458 80.75 13.614 Q71.125 17.77 60 17.77 Z M60 2.645 Q75.938 2.645 86.906 -8.324 Q97.875 -19.292 97.875 -35.23 Q97.875 -51.167 86.906 -62.136 Q75.938 -73.105 60 -73.105 Q44.062 -73.105 33.094 -62.136 Q22.125 -51.167 22.125 -35.23 Q22.125 -19.292 33.094 -8.324 Q44.062 2.645 60 2.645 Z"/></g><g id="Semibold-M" transform="matrix(1 0 0 1 1985.97 1126)"><path d="M60.312 0.11  74.84 -14.355  60.384 -28.82  54.722 -23.23  59.775 -18.179 Q56.206 -18.399 53.072 -19.609 Q49.938 -20.82 47.729 -22.959 Q45.299 -25.387 44.026 -28.562 Q42.752 -31.739 42.752 -35.105 Q42.752 -37.159 43.284 -39.292 Q43.815 -41.426 44.886 -43.559 L39.046 -49.327 Q36.896 -45.975 35.822 -42.356 Q34.748 -38.739 34.748 -35.23 Q34.748 -30.276 36.623 -25.642 Q38.498 -21.01 42.139 -17.369 Q45.435 -14.072 49.906 -12.229 Q54.377 -10.385 59.354 -10.181 L54.722 -5.48 L60.312 0.11 Z M80.954 -21.132 Q83.104 -24.485 84.177 -28.104 Q85.252 -31.721 85.252 -35.23 Q85.252 -40.184 83.374 -44.812 Q81.495 -49.442 77.854 -53.084 Q74.558 -56.38 70.09 -58.227 Q65.623 -60.075 60.646 -60.287 L65.278 -64.98 L59.688 -70.57 L45.16 -56.105 L59.616 -41.64 L65.278 -47.23 L60.234 -52.274 Q63.81 -52.061 66.933 -50.855 Q70.054 -49.649 72.271 -47.501 Q74.701 -45.072 75.974 -41.897 Q77.248 -38.721 77.248 -35.355 Q77.248 -33.301 76.716 -31.167 Q76.185 -29.034 75.114 -26.901 L80.954 -21.132 Z M60 15.923 Q49.31 15.923 40.011 11.903 Q30.712 7.881 23.8 0.97 Q16.889 -5.942 12.867 -15.241 Q8.848 -24.54 8.848 -35.23 Q8.848 -45.92 12.867 -55.219 Q16.889 -64.517 23.8 -71.43 Q30.712 -78.341 40.011 -82.362 Q49.31 -86.382 60 -86.382 Q70.69 -86.382 79.989 -82.362 Q89.287 -78.341 96.2 -71.43 Q103.111 -64.517 107.132 -55.219 Q111.153 -45.92 111.153 -35.23 Q111.153 -24.54 107.132 -15.241 Q103.111 -5.942 96.2 0.97 Q89.287 7.881 79.989 11.903 Q70.69 15.923 60 15.923 Z M60 3.298 Q76.155 3.298 87.341 -7.889 Q98.528 -19.075 98.528 -35.23 Q98.528 -51.385 87.341 -62.571 Q76.155 -73.757 60 -73.757 Q43.845 -73.757 32.659 -62.571 Q21.473 -51.385 21.473 -35.23 Q21.473 -19.075 32.659 -7.889 Q43.845 3.298 60 3.298 Z"/></g><g id="Medium-M" transform="matrix(1 0 0 1 1689.91 1126)"><path d="M60.312 -0.339  74.391 -14.355  60.343 -28.371  55.171 -23.23  60.59 -17.811 Q56.736 -17.869 53.337 -19.12 Q49.938 -20.371 47.525 -22.755 Q45.054 -25.225 43.74 -28.461 Q42.426 -31.697 42.426 -35.105 Q42.426 -37.2 42.958 -39.292 Q43.489 -41.385 44.519 -43.477 L39.127 -48.839 Q37.1 -45.689 36.087 -42.194 Q35.074 -38.697 35.074 -35.23 Q35.074 -30.357 36.949 -25.765 Q38.824 -21.172 42.384 -17.614 Q45.761 -14.235 50.375 -12.391 Q54.989 -10.547 60.087 -10.426 L55.171 -5.48 L60.312 -0.339 Z M80.873 -21.621 Q82.9 -24.771 83.912 -28.266 Q84.926 -31.762 84.926 -35.23 Q84.926 -40.102 83.067 -44.711 Q81.209 -49.32 77.65 -52.88 Q74.271 -56.257 69.641 -58.085 Q65.011 -59.912 59.913 -60.001 L64.829 -64.98 L59.688 -70.121 L45.609 -56.105 L59.657 -42.089 L64.829 -47.23 L59.377 -52.681 Q63.199 -52.591 66.646 -51.324 Q70.095 -50.056 72.475 -47.705 Q74.946 -45.235 76.26 -41.999 Q77.574 -38.762 77.574 -35.355 Q77.574 -33.26 77.043 -31.167 Q76.511 -29.075 75.481 -26.982 L80.873 -21.621 Z M60 14.536 Q49.636 14.536 40.581 10.618 Q31.527 6.699 24.799 -0.029 Q18.071 -6.757 14.152 -15.811 Q10.234 -24.866 10.234 -35.23 Q10.234 -45.594 14.152 -54.649 Q18.071 -63.702 24.799 -70.431 Q31.527 -77.159 40.581 -81.077 Q49.636 -84.996 60 -84.996 Q70.364 -84.996 79.419 -81.077 Q88.472 -77.159 95.201 -70.431 Q101.929 -63.702 105.847 -54.649 Q109.766 -45.594 109.766 -35.23 Q109.766 -24.866 105.847 -15.811 Q101.929 -6.757 95.201 -0.029 Q88.472 6.699 79.419 10.618 Q70.364 14.536 60 14.536 Z M60 3.786 Q76.317 3.786 87.668 -7.562 Q99.016 -18.912 99.016 -35.23 Q99.016 -51.547 87.668 -62.897 Q76.317 -74.246 60 -74.246 Q43.682 -74.246 32.333 -62.897 Q20.984 -51.547 20.984 -35.23 Q20.984 -18.912 32.333 -7.562 Q43.682 3.786 60 3.786 Z"/></g><g id="Regular-M" transform="matrix(1 0 0 1 1394.06 1126)"><path d="M60.312 -0.667  74.062 -14.355  60.312 -28.042  55.5 -23.23  61.188 -17.542 Q57.125 -17.48 53.531 -18.761 Q49.938 -20.042 47.375 -22.605 Q44.875 -25.105 43.531 -28.386 Q42.188 -31.667 42.188 -35.105 Q42.188 -37.23 42.719 -39.292 Q43.25 -41.355 44.25 -43.417 L39.188 -48.48 Q37.25 -45.48 36.281 -42.074 Q35.312 -38.667 35.312 -35.23 Q35.312 -30.417 37.188 -25.855 Q39.062 -21.292 42.562 -17.792 Q46 -14.355 50.719 -12.511 Q55.438 -10.667 60.625 -10.605 L55.5 -5.48 L60.312 -0.667 Z M80.812 -21.98 Q82.75 -24.98 83.719 -28.386 Q84.688 -31.792 84.688 -35.23 Q84.688 -40.042 82.844 -44.636 Q81 -49.23 77.5 -52.73 Q74.062 -56.167 69.312 -57.98 Q64.562 -59.792 59.375 -59.792 L64.5 -64.98 L59.688 -69.792 L45.938 -56.105 L59.688 -42.417 L64.5 -47.23 L58.75 -52.98 Q62.75 -52.98 66.438 -51.667 Q70.125 -50.355 72.625 -47.855 Q75.125 -45.355 76.469 -42.074 Q77.812 -38.792 77.812 -35.355 Q77.812 -33.23 77.281 -31.167 Q76.75 -29.105 75.75 -27.042 L80.812 -21.98 Z M60 13.52 Q49.875 13.52 41 9.676 Q32.125 5.833 25.531 -0.761 Q18.938 -7.355 15.094 -16.23 Q11.25 -25.105 11.25 -35.23 Q11.25 -45.355 15.094 -54.23 Q18.938 -63.105 25.531 -69.699 Q32.125 -76.292 41 -80.136 Q49.875 -83.98 60 -83.98 Q70.125 -83.98 79 -80.136 Q87.875 -76.292 94.469 -69.699 Q101.062 -63.105 104.906 -54.23 Q108.75 -45.355 108.75 -35.23 Q108.75 -25.105 104.906 -16.23 Q101.062 -7.355 94.469 -0.761 Q87.875 5.833 79 9.676 Q70.125 13.52 60 13.52 Z M60 4.145 Q76.438 4.145 87.906 -7.324 Q99.375 -18.792 99.375 -35.23 Q99.375 -51.667 87.906 -63.136 Q76.438 -74.605 60 -74.605 Q43.562 -74.605 32.094 -63.136 Q20.625 -51.667 20.625 -35.23 Q20.625 -18.792 32.094 -7.324 Q43.562 4.145 60 4.145 Z"/></g><g id="Light-M" transform="matrix(1 0 0 1 1098.18 1126)"><path d="M60.36 -1.654  73.101 -14.355  60.36 -27.081  56.51 -23.23  62.919 -16.845 Q57.799 -16.806 53.651 -18.16 Q49.505 -19.514 46.894 -22.124 Q44.25 -24.769 42.87 -28.177 Q41.49 -31.587 41.49 -35.152 Q41.49 -37.254 41.974 -39.34 Q42.456 -41.427 43.409 -43.441 L39.331 -47.326 Q37.682 -44.542 36.859 -41.445 Q36.034 -38.347 36.034 -35.23 Q36.034 -30.564 37.825 -26.145 Q39.615 -21.725 43.044 -18.285 Q46.409 -14.907 51.584 -13.149 Q56.76 -11.389 62.38 -11.35 L56.51 -5.48 L60.36 -1.654 Z M80.74 -23.134 Q82.366 -25.909 83.203 -28.999 Q84.039 -32.089 84.039 -35.23 Q84.039 -39.896 82.243 -44.345 Q80.448 -48.795 77.019 -52.201 Q73.677 -55.59 68.474 -57.342 Q63.27 -59.095 57.669 -59.095 L63.539 -64.98 L59.711 -68.831 L46.971 -56.105 L59.711 -43.404 L63.539 -47.23 L57.115 -53.654 Q62.197 -53.654 66.377 -52.292 Q70.558 -50.932 73.168 -48.322 Q75.779 -45.714 77.18 -42.291 Q78.581 -38.869 78.581 -35.312 Q78.581 -33.206 78.086 -31.12 Q77.591 -29.032 76.64 -27.042 L80.74 -23.134 Z M60.011 11.26 Q50.356 11.26 41.886 7.596 Q33.417 3.933 27.124 -2.352 Q20.83 -8.639 17.17 -17.101 Q13.51 -25.562 13.51 -35.219 Q13.51 -44.874 17.174 -53.344 Q20.837 -61.812 27.122 -68.106 Q33.409 -74.4 41.871 -78.06 Q50.333 -81.72 59.989 -81.72 Q69.644 -81.72 78.114 -78.056 Q86.582 -74.392 92.876 -68.107 Q99.17 -61.821 102.83 -53.359 Q106.49 -44.897 106.49 -35.241 Q106.49 -25.586 102.826 -17.116 Q99.162 -8.647 92.877 -2.354 Q86.591 3.94 78.129 7.6 Q69.668 11.26 60.011 11.26 Z M59.999 4.265 Q76.485 4.265 87.99 -7.237 Q99.495 -18.741 99.495 -35.229 Q99.495 -51.715 87.993 -63.22 Q76.489 -74.725 60.001 -74.725 Q43.515 -74.725 32.01 -63.222 Q20.505 -51.719 20.505 -35.231 Q20.505 -18.745 32.008 -7.24 Q43.511 4.265 59.999 4.265 Z"/></g><g id="Thin-M" transform="matrix(1 0 0 1 802.565 1126)"><path d="M60.409 -2.639  72.14 -14.355  60.409 -26.12  57.519 -23.23  64.649 -16.149 Q58.471 -16.134 53.771 -17.559 Q49.072 -18.985 46.414 -21.644 Q43.625 -24.432 42.209 -27.97 Q40.794 -31.507 40.794 -35.201 Q40.794 -37.277 41.229 -39.389 Q41.664 -41.499 42.568 -43.465 L39.476 -46.172 Q38.115 -43.605 37.435 -40.816 Q36.755 -38.027 36.755 -35.23 Q36.755 -30.711 38.461 -26.435 Q40.169 -22.157 43.524 -18.777 Q46.818 -15.461 52.45 -13.785 Q58.081 -12.11 64.135 -12.095 L57.519 -5.48 L60.409 -2.639 Z M80.669 -24.287 Q81.983 -26.836 82.686 -29.611 Q83.39 -32.385 83.39 -35.23 Q83.39 -39.75 81.641 -44.055 Q79.894 -48.36 76.539 -51.672 Q73.294 -55.014 67.635 -56.706 Q61.977 -58.399 55.961 -58.399 L62.578 -64.98 L59.735 -67.87 L48.005 -56.105 L59.735 -44.389 L62.578 -47.23 L55.481 -54.326 Q61.644 -54.326 66.317 -52.917 Q70.99 -51.509 73.711 -48.791 Q76.431 -46.074 77.891 -42.509 Q79.351 -38.945 79.351 -35.269 Q79.351 -33.182 78.891 -31.071 Q78.433 -28.961 77.529 -27.042 L80.669 -24.287 Z M60.023 9.001 Q50.836 9.001 42.773 5.516 Q34.709 2.033 28.715 -3.945 Q22.721 -9.922 19.245 -17.971 Q15.769 -26.021 15.769 -35.207 Q15.769 -44.394 19.254 -52.457 Q22.738 -60.521 28.715 -66.515 Q34.693 -72.509 42.741 -75.985 Q50.791 -79.461 59.977 -79.461 Q69.164 -79.461 77.228 -75.976 Q85.291 -72.492 91.285 -66.515 Q97.279 -60.539 100.755 -52.489 Q104.231 -44.439 104.231 -35.252 Q104.231 -26.066 100.746 -18.002 Q97.263 -9.939 91.285 -3.945 Q85.309 2.049 77.259 5.525 Q69.209 9.001 60.023 9.001 Z M59.996 4.385 Q76.534 4.385 88.075 -7.152 Q99.615 -18.69 99.615 -35.226 Q99.615 -51.764 88.078 -63.305 Q76.54 -74.845 60.004 -74.845 Q43.466 -74.845 31.925 -63.307 Q20.385 -51.77 20.385 -35.234 Q20.385 -18.696 31.922 -7.155 Q43.46 4.385 59.996 4.385 Z"/></g><g id="Ultralight-M" transform="matrix(1 0 0 1 506.415 1126)"><path d="M60.438 -3.23  71.562 -14.355  60.438 -25.542  58.125 -23.23  65.688 -15.73 Q58.875 -15.73 53.844 -17.199 Q48.812 -18.667 46.125 -21.355 Q43.25 -24.23 41.812 -27.845 Q40.375 -31.459 40.375 -35.23 Q40.375 -37.292 40.781 -39.417 Q41.188 -41.542 42.062 -43.48 L39.562 -45.48 Q38.375 -43.042 37.781 -40.439 Q37.188 -37.836 37.188 -35.23 Q37.188 -30.799 38.844 -26.609 Q40.5 -22.417 43.812 -19.074 Q47.062 -15.792 52.969 -14.167 Q58.875 -12.542 65.188 -12.542 L58.125 -5.48 L60.438 -3.23 Z M80.625 -24.98 Q81.752 -27.394 82.376 -29.979 Q83 -32.562 83 -35.23 Q83 -39.662 81.281 -43.88 Q79.562 -48.099 76.25 -51.355 Q73.062 -54.667 67.132 -56.324 Q61.201 -57.98 54.938 -57.98 L62 -64.98 L59.75 -67.292 L48.625 -56.105 L59.75 -44.98 L62 -47.23 L54.5 -54.73 Q61.312 -54.73 66.281 -53.292 Q71.25 -51.855 74.037 -49.072 Q76.824 -46.289 78.319 -42.64 Q79.812 -38.99 79.812 -35.242 Q79.812 -33.167 79.375 -31.042 Q78.938 -28.917 78.062 -27.042 L80.625 -24.98 Z M60.03 7.645 Q51.125 7.645 43.305 4.269 Q35.484 0.893 29.67 -4.9 Q23.856 -10.692 20.491 -18.494 Q17.125 -26.295 17.125 -35.2 Q17.125 -44.105 20.501 -51.925 Q23.878 -59.746 29.67 -65.56 Q35.462 -71.374 43.264 -74.739 Q51.065 -78.105 59.97 -78.105 Q68.875 -78.105 76.695 -74.729 Q84.516 -71.352 90.33 -65.56 Q96.144 -59.767 99.509 -51.966 Q102.875 -44.165 102.875 -35.26 Q102.875 -26.355 99.499 -18.535 Q96.123 -10.714 90.33 -4.9 Q84.537 0.914 76.736 4.279 Q68.935 7.645 60.03 7.645 Z M59.996 4.458 Q76.562 4.458 88.125 -7.101 Q99.688 -18.659 99.688 -35.226 Q99.688 -51.792 88.129 -63.355 Q76.571 -74.917 60.004 -74.917 Q43.438 -74.917 31.875 -63.359 Q20.312 -51.801 20.312 -35.234 Q20.312 -18.667 31.871 -7.105 Q43.429 4.458 59.996 4.458 Z"/></g><g id="Bold-S" transform="matrix(1 0 0 1 2294.23 696)"><path d="M46.798 -7.862  57.548 -18.661  46.995 -29.46  42.803 -25.367  46.304 -21.768 Q43.691 -22.211 41.398 -23.124 Q39.105 -24.036 37.576 -25.466 Q35.702 -27.34 34.691 -29.83 Q33.68 -32.321 33.68 -35.23 Q33.68 -36.709 33.952 -38.238 Q34.223 -39.767 34.913 -41.295 L30.722 -45.388 Q29.39 -42.824 28.626 -40.285 Q27.862 -37.745 27.862 -35.23 Q27.862 -31.236 29.292 -27.685 Q30.722 -24.135 33.483 -21.373 Q35.998 -18.858 39.327 -17.502 Q42.655 -16.146 46.65 -15.998 L42.705 -11.954 L46.798 -7.862 Z M63.958 -25.072 Q65.29 -27.636 66.054 -30.175 Q66.818 -32.715 66.818 -35.23 Q66.818 -39.224 65.265 -42.701 Q63.712 -46.177 60.95 -48.939 Q58.534 -51.355 55.131 -52.785 Q51.729 -54.215 47.833 -54.413 L51.975 -58.505 L47.882 -62.598 L37.132 -51.799 L47.784 -41 L51.975 -45.092 L48.425 -48.643 Q51.384 -48.347 53.356 -47.509 Q55.329 -46.67 57.104 -44.994 Q58.978 -43.12 59.989 -40.63 Q61 -38.139 61 -35.23 Q61 -33.751 60.728 -32.222 Q60.457 -30.693 59.767 -29.165 L63.958 -25.072 Z M47.34 5.009 Q38.957 5.009 31.659 1.878 Q24.36 -1.254 18.862 -6.752 Q13.364 -12.25 10.232 -19.549 Q7.101 -26.847 7.101 -35.23 Q7.101 -43.712 10.232 -50.961 Q13.364 -58.21 18.862 -63.708 Q24.36 -69.206 31.659 -72.338 Q38.957 -75.469 47.34 -75.469 Q55.822 -75.469 63.071 -72.338 Q70.32 -69.206 75.818 -63.708 Q81.316 -58.21 84.448 -50.961 Q87.579 -43.712 87.579 -35.23 Q87.579 -26.847 84.448 -19.549 Q81.316 -12.25 75.818 -6.752 Q70.32 -1.254 63.071 1.878 Q55.822 5.009 47.34 5.009 Z M47.34 -6.136 Q59.52 -6.136 67.977 -14.593 Q76.434 -23.05 76.434 -35.23 Q76.434 -47.41 67.977 -55.867 Q59.52 -64.324 47.34 -64.324 Q35.16 -64.324 26.703 -55.867 Q18.246 -47.41 18.246 -35.23 Q18.246 -23.05 26.703 -14.593 Q35.16 -6.136 47.34 -6.136 Z"/></g><g id="Semibold-S" transform="matrix(1 0 0 1 1998.1 696)"><path d="M46.798 -8.333  57.076 -18.661  46.952 -28.989  43.275 -25.367  47.162 -21.382 Q44.248 -21.654 41.677 -22.609 Q39.105 -23.565 37.362 -25.252 Q35.445 -27.168 34.392 -29.723 Q33.337 -32.278 33.337 -35.23 Q33.337 -36.752 33.608 -38.238 Q33.88 -39.724 34.528 -41.21 L30.807 -44.874 Q29.604 -42.524 28.905 -40.113 Q28.205 -37.703 28.205 -35.23 Q28.205 -31.321 29.635 -27.813 Q31.065 -24.306 33.741 -21.631 Q36.341 -19.03 39.82 -17.674 Q43.298 -16.318 47.422 -16.256 L43.176 -11.954 L46.798 -8.333 Z M63.873 -25.586 Q65.076 -27.936 65.775 -30.347 Q66.475 -32.757 66.475 -35.23 Q66.475 -39.139 64.944 -42.593 Q63.412 -46.049 60.736 -48.725 Q58.234 -51.227 54.66 -52.635 Q51.086 -54.044 47.061 -54.113 L51.504 -58.505 L47.882 -62.127 L37.604 -51.799 L47.826 -41.471 L51.504 -45.092 L47.524 -49.072 Q50.741 -48.904 53.056 -48.002 Q55.371 -47.1 57.318 -45.208 Q59.235 -43.292 60.288 -40.737 Q61.343 -38.182 61.343 -35.23 Q61.343 -33.708 61.072 -32.222 Q60.8 -30.736 60.152 -29.25 L63.873 -25.586 Z M47.34 3.551 Q39.3 3.551 32.259 0.527 Q25.218 -2.497 19.912 -7.802 Q14.607 -13.108 11.583 -20.149 Q8.559 -27.19 8.559 -35.23 Q8.559 -43.369 11.583 -50.36 Q14.607 -57.352 19.912 -62.658 Q25.218 -67.963 32.259 -70.987 Q39.3 -74.011 47.34 -74.011 Q55.479 -74.011 62.47 -70.987 Q69.462 -67.963 74.768 -62.658 Q80.073 -57.352 83.097 -50.36 Q86.121 -43.369 86.121 -35.23 Q86.121 -27.19 83.097 -20.149 Q80.073 -13.108 74.768 -7.802 Q69.462 -2.497 62.47 0.527 Q55.479 3.551 47.34 3.551 Z M47.34 -5.621 Q59.692 -5.621 68.32 -14.25 Q76.949 -22.878 76.949 -35.23 Q76.949 -47.582 68.32 -56.21 Q59.692 -64.839 47.34 -64.839 Q34.988 -64.839 26.36 -56.21 Q17.731 -47.582 17.731 -35.23 Q17.731 -22.878 26.36 -14.25 Q34.988 -5.621 47.34 -5.621 Z"/></g><g id="Medium-S" transform="matrix(1 0 0 1 1701.85 696)"><path d="M46.798 -8.687  56.722 -18.661  46.92 -28.635  43.629 -25.367  47.806 -21.092 Q44.666 -21.236 41.886 -22.223 Q39.105 -23.211 37.201 -25.091 Q35.252 -27.04 34.166 -29.643 Q33.08 -32.246 33.08 -35.23 Q33.08 -36.784 33.351 -38.238 Q33.622 -39.692 34.238 -41.146 L30.872 -44.488 Q29.765 -42.298 29.114 -39.985 Q28.462 -37.67 28.462 -35.23 Q28.462 -31.386 29.892 -27.91 Q31.322 -24.435 33.934 -21.824 Q36.599 -19.158 40.19 -17.802 Q43.781 -16.446 48.001 -16.449 L43.53 -11.954 L46.798 -8.687 Z M63.808 -25.972 Q64.915 -28.162 65.566 -30.475 Q66.218 -32.79 66.218 -35.23 Q66.218 -39.074 64.702 -42.513 Q63.186 -45.953 60.575 -48.564 Q58.008 -51.13 54.306 -52.523 Q50.604 -53.915 46.482 -53.887 L51.15 -58.505 L47.882 -61.773 L37.958 -51.799 L47.859 -41.825 L51.15 -45.092 L46.849 -49.394 Q50.258 -49.323 52.83 -48.372 Q55.404 -47.421 57.479 -45.369 Q59.428 -43.42 60.514 -40.817 Q61.6 -38.214 61.6 -35.23 Q61.6 -33.676 61.329 -32.222 Q61.058 -30.768 60.442 -29.314 L63.808 -25.972 Z M47.34 2.458 Q39.558 2.458 32.709 -0.486 Q25.861 -3.43 20.7 -8.59 Q15.54 -13.751 12.596 -20.599 Q9.652 -27.448 9.652 -35.23 Q9.652 -43.111 12.596 -49.91 Q15.54 -56.709 20.7 -61.87 Q25.861 -67.03 32.709 -69.974 Q39.558 -72.918 47.34 -72.918 Q55.221 -72.918 62.02 -69.974 Q68.819 -67.03 73.98 -61.87 Q79.14 -56.709 82.084 -49.91 Q85.028 -43.111 85.028 -35.23 Q85.028 -27.448 82.084 -20.599 Q79.14 -13.751 73.98 -8.59 Q68.819 -3.43 62.02 -0.486 Q55.221 2.458 47.34 2.458 Z M47.34 -5.235 Q59.82 -5.235 68.578 -13.992 Q77.335 -22.75 77.335 -35.23 Q77.335 -47.71 68.578 -56.468 Q59.82 -65.225 47.34 -65.225 Q34.86 -65.225 26.102 -56.468 Q17.345 -47.71 17.345 -35.23 Q17.345 -22.75 26.102 -13.992 Q34.86 -5.235 47.34 -5.235 Z"/></g><g id="Regular-S" transform="matrix(1 0 0 1 1405.73 696)"><path d="M46.798 -8.946  56.463 -18.661  46.896 -28.376  43.888 -25.367  48.277 -20.88 Q44.973 -20.929 42.039 -21.94 Q39.105 -22.951 37.083 -24.973 Q35.111 -26.945 34.001 -29.584 Q32.891 -32.222 32.891 -35.23 Q32.891 -36.808 33.163 -38.238 Q33.434 -39.668 34.026 -41.098 L30.919 -44.205 Q29.883 -42.134 29.267 -39.89 Q28.651 -37.646 28.651 -35.23 Q28.651 -31.433 30.081 -27.981 Q31.511 -24.529 34.075 -21.965 Q36.787 -19.253 40.461 -17.897 Q44.135 -16.541 48.425 -16.59 L43.79 -11.954 L46.798 -8.946 Z M63.761 -26.255 Q64.797 -28.326 65.413 -30.57 Q66.029 -32.814 66.029 -35.23 Q66.029 -39.027 64.525 -42.454 Q63.021 -45.881 60.457 -48.446 Q57.844 -51.059 54.047 -52.44 Q50.249 -53.821 46.058 -53.722 L50.891 -58.505 L47.882 -61.514 L38.217 -51.799 L47.882 -42.084 L50.891 -45.092 L46.354 -49.629 Q49.904 -49.629 52.666 -48.643 Q55.427 -47.657 57.597 -45.487 Q59.57 -43.514 60.679 -40.876 Q61.789 -38.238 61.789 -35.23 Q61.789 -33.652 61.517 -32.222 Q61.246 -30.792 60.654 -29.362 L63.761 -26.255 Z M47.34 1.656 Q39.746 1.656 33.039 -1.229 Q26.333 -4.114 21.278 -9.168 Q16.224 -14.223 13.339 -20.929 Q10.454 -27.636 10.454 -35.23 Q10.454 -42.923 13.339 -49.58 Q16.224 -56.237 21.278 -61.292 Q26.333 -66.346 33.039 -69.231 Q39.746 -72.116 47.34 -72.116 Q55.033 -72.116 61.69 -69.231 Q68.347 -66.346 73.402 -61.292 Q78.456 -56.237 81.341 -49.58 Q84.226 -42.923 84.226 -35.23 Q84.226 -27.636 81.341 -20.929 Q78.456 -14.223 73.402 -9.168 Q68.347 -4.114 61.69 -1.229 Q55.033 1.656 47.34 1.656 Z M47.34 -4.952 Q59.915 -4.952 68.766 -13.804 Q77.618 -22.655 77.618 -35.23 Q77.618 -47.805 68.766 -56.656 Q59.915 -65.508 47.34 -65.508 Q34.765 -65.508 25.914 -56.656 Q17.062 -47.805 17.062 -35.23 Q17.062 -22.655 25.914 -13.804 Q34.765 -4.952 47.34 -4.952 Z"/></g><g id="Light-S" transform="matrix(1 0 0 1 1109.75 696)"><path d="M46.835 -9.725  55.704 -18.661  46.934 -27.617  44.685 -25.367  49.643 -20.33 Q45.505 -20.398 42.134 -21.466 Q38.764 -22.534 36.703 -24.593 Q34.617 -26.68 33.479 -29.419 Q32.341 -32.159 32.341 -35.267 Q32.341 -36.827 32.575 -38.276 Q32.808 -39.725 33.362 -41.117 L31.032 -43.295 Q30.225 -41.394 29.723 -39.394 Q29.22 -37.394 29.22 -35.23 Q29.22 -31.548 30.584 -28.21 Q31.947 -24.87 34.455 -22.354 Q37.11 -19.689 41.143 -18.4 Q45.178 -17.11 49.81 -17.178 L44.586 -11.954 L46.835 -9.725 Z M63.704 -27.165 Q64.494 -29.059 65.006 -31.053 Q65.518 -33.047 65.518 -35.23 Q65.518 -38.912 64.051 -42.224 Q62.585 -45.538 60.077 -48.029 Q57.54 -50.604 53.385 -51.937 Q49.23 -53.27 44.712 -53.172 L50.132 -58.505 L47.901 -60.755 L39.033 -51.799 L47.901 -42.863 L50.132 -45.092 L45.064 -50.161 Q49.468 -50.161 52.618 -49.136 Q55.768 -48.112 58.025 -45.856 Q60.085 -43.798 61.24 -41.048 Q62.395 -38.298 62.395 -35.196 Q62.395 -33.633 62.152 -32.184 Q61.91 -30.735 61.357 -29.362 L63.704 -27.165 Z M47.349 -0.127 Q40.126 -0.127 33.739 -2.87 Q27.353 -5.613 22.535 -10.424 Q17.717 -15.236 14.977 -21.617 Q12.237 -27.997 12.237 -35.221 Q12.237 -42.543 14.98 -48.881 Q17.723 -55.217 22.534 -60.035 Q27.346 -64.853 33.727 -67.593 Q40.107 -70.333 47.331 -70.333 Q54.653 -70.333 60.991 -67.59 Q67.327 -64.847 72.145 -60.036 Q76.963 -55.224 79.703 -48.893 Q82.443 -42.562 82.443 -35.239 Q82.443 -28.016 79.7 -21.629 Q76.957 -15.243 72.146 -10.425 Q67.334 -5.607 61.003 -2.867 Q54.672 -0.127 47.349 -0.127 Z M47.339 -4.857 Q59.952 -4.857 68.832 -13.736 Q77.713 -22.615 77.713 -35.229 Q77.713 -47.842 68.834 -56.722 Q59.955 -65.603 47.341 -65.603 Q34.728 -65.603 25.848 -56.724 Q16.967 -47.845 16.967 -35.231 Q16.967 -22.618 25.846 -13.738 Q34.725 -4.857 47.339 -4.857 Z"/></g><g id="Thin-S" transform="matrix(1 0 0 1 814.015 696)"><path d="M46.874 -10.502  54.946 -18.661  46.972 -26.859  45.481 -25.367  51.008 -19.78 Q46.035 -19.867 42.228 -20.992 Q38.422 -22.117 36.325 -24.215 Q34.124 -26.415 32.958 -29.255 Q31.792 -32.096 31.792 -35.306 Q31.792 -36.845 31.987 -38.314 Q32.182 -39.782 32.698 -41.136 L31.147 -42.384 Q30.566 -40.654 30.177 -38.898 Q29.789 -37.141 29.789 -35.23 Q29.789 -31.665 31.086 -28.439 Q32.384 -25.212 34.833 -22.742 Q37.432 -20.126 41.827 -18.902 Q46.221 -17.679 51.194 -17.765 L45.382 -11.954 L46.874 -10.502 Z M63.648 -28.076 Q64.191 -29.791 64.598 -31.536 Q65.006 -33.281 65.006 -35.23 Q65.006 -38.796 63.577 -41.996 Q62.149 -45.195 59.699 -47.611 Q57.237 -50.149 52.723 -51.435 Q48.21 -52.721 43.364 -52.623 L49.374 -58.505 L47.92 -59.997 L39.848 -51.799 L47.92 -43.64 L49.374 -45.092 L43.775 -50.691 Q49.031 -50.691 52.571 -49.629 Q56.11 -48.567 58.454 -46.226 Q60.6 -44.082 61.801 -41.219 Q63.003 -38.358 63.003 -35.162 Q63.003 -33.615 62.788 -32.146 Q62.574 -30.678 62.058 -29.362 L63.648 -28.076 Z M47.358 -1.91 Q40.504 -1.91 34.438 -4.511 Q28.371 -7.112 23.79 -11.68 Q19.209 -16.249 16.614 -22.303 Q14.02 -28.359 14.02 -35.212 Q14.02 -42.164 16.621 -48.181 Q19.222 -54.199 23.79 -58.78 Q28.359 -63.361 34.413 -65.956 Q40.469 -68.55 47.322 -68.55 Q54.274 -68.55 60.291 -65.949 Q66.309 -63.348 70.89 -58.78 Q75.471 -54.212 78.066 -48.206 Q80.66 -42.2 80.66 -35.248 Q80.66 -28.394 78.059 -22.328 Q75.458 -16.261 70.89 -11.68 Q66.322 -7.099 60.316 -4.504 Q54.31 -1.91 47.358 -1.91 Z M47.337 -4.763 Q59.991 -4.763 68.899 -13.669 Q77.807 -22.574 77.807 -35.227 Q77.807 -47.881 68.901 -56.789 Q59.996 -65.697 47.343 -65.697 Q34.689 -65.697 25.781 -56.791 Q16.873 -47.886 16.873 -35.233 Q16.873 -22.579 25.779 -13.671 Q34.684 -4.763 47.337 -4.763 Z"/></g><g id="Ultralight-S" transform="matrix(1 0 0 1 517.792 696)"><path d="M46.896 -10.968  54.49 -18.661  46.995 -26.403  45.959 -25.367  51.827 -19.45 Q46.354 -19.549 42.285 -20.707 Q38.217 -21.866 36.097 -23.987 Q33.828 -26.255 32.645 -29.157 Q31.461 -32.057 31.461 -35.329 Q31.461 -36.857 31.634 -38.337 Q31.807 -39.816 32.3 -41.147 L31.215 -41.838 Q30.771 -40.211 30.45 -38.6 Q30.13 -36.99 30.13 -35.23 Q30.13 -31.734 31.387 -28.576 Q32.645 -25.417 35.061 -22.976 Q37.625 -20.387 42.236 -19.203 Q46.847 -18.02 52.025 -18.119 L45.861 -11.954 L46.896 -10.968 Z M63.613 -28.622 Q64.01 -30.231 64.354 -31.826 Q64.698 -33.421 64.698 -35.23 Q64.698 -38.727 63.293 -41.858 Q61.887 -44.989 59.471 -47.361 Q57.055 -49.876 52.326 -51.133 Q47.597 -52.391 42.557 -52.292 L48.918 -58.505 L47.932 -59.541 L40.338 -51.799 L47.932 -44.106 L48.918 -45.092 L43.001 -51.01 Q48.77 -51.01 52.542 -49.925 Q56.315 -48.84 58.711 -46.448 Q60.91 -44.251 62.139 -41.323 Q63.367 -38.394 63.367 -35.141 Q63.367 -33.603 63.169 -32.123 Q62.972 -30.644 62.479 -29.362 L63.613 -28.622 Z M47.364 -2.98 Q40.732 -2.98 34.858 -5.496 Q28.983 -8.011 24.544 -12.434 Q20.105 -16.856 17.598 -22.715 Q15.09 -28.575 15.09 -35.206 Q15.09 -41.936 17.606 -47.761 Q20.121 -53.587 24.544 -58.026 Q28.966 -62.465 34.825 -64.972 Q40.685 -67.48 47.316 -67.48 Q54.047 -67.48 59.871 -64.964 Q65.697 -62.449 70.136 -58.026 Q74.575 -53.604 77.082 -47.794 Q79.59 -41.984 79.59 -35.254 Q79.59 -28.622 77.074 -22.748 Q74.559 -16.873 70.136 -12.434 Q65.714 -7.995 59.904 -5.488 Q54.094 -2.98 47.364 -2.98 Z M47.337 -4.706 Q60.013 -4.706 68.939 -13.628 Q77.864 -22.55 77.864 -35.227 Q77.864 -47.903 68.942 -56.829 Q60.02 -65.754 47.343 -65.754 Q34.667 -65.754 25.741 -56.832 Q16.816 -47.91 16.816 -35.233 Q16.816 -22.557 25.738 -13.631 Q34.66 -4.706 47.337 -4.706 Z"/></g></g></svg>