<svg xmlns="http://www.w3.org/2000/svg" version="1.1" width="3300" height="2000"><g id="Notes"><style>
    text {
      font-family: monospace;
      text-anchor: middle;
    }
    text.emphasis {
      font-weight:bold;
    }
    text.lanchor {
      text-anchor: start;
    }
  </style><rect height="2200" id="artboard" fill="white" width="3300" x="0" y="0"/><line id="" style="fill:none;stroke:black;stroke-width:0.5;" x1="263" x2="3036" y1="292" y2="292"/><text class="lanchor emphasis" transform="matrix(1 0 0 1 263 322)">Weight/Scale Variations</text><text transform="matrix(1 0 0 1 559.711 322)">Ultralight</text><text transform="matrix(1 0 0 1 856.422 322)">Thin</text><text transform="matrix(1 0 0 1 1153.13 322)">Light</text><text transform="matrix(1 0 0 1 1449.84 322)">Regular</text><text transform="matrix(1 0 0 1 1746.56 322)">Medium</text><text transform="matrix(1 0 0 1 2043.27 322)">Semibold</text><text transform="matrix(1 0 0 1 2339.98 322)">Bold</text><text transform="matrix(1 0 0 1 2636.69 322)">Heavy</text><text transform="matrix(1 0 0 1 2933.4 322)">Black</text><text id="template-version" style="text-anchor: end;" transform="matrix(1 0 0 1 3036 1933)">Template v.1.0</text><text class="lanchor" transform="matrix(1 0 0 1 263 726)">Small</text><text class="lanchor" transform="matrix(1 0 0 1 263 1156)">Medium</text><text class="lanchor" transform="matrix(1 0 0 1 263 1586)">Large</text></g><g id="Guides"><g id="H-reference" style="fill:#27AAE1;stroke:none;" transform="matrix(1 0 0 1 339 696)"><path d="M 54.9316 0 L 57.666 0 L 30.5664 -70.459 L 28.0762 -70.459 L 0.976562 0 L 3.66211 0 L 12.9395 -24.4629 L 45.7031 -24.4629 Z M 29.1992 -67.0898 L 29.4434 -67.0898 L 44.8242 -26.709 L 13.8184 -26.709 Z"/></g><line id="Baseline-S" style="fill:none;stroke:#27AAE1;opacity:1;stroke-width:0.577;" x1="263" x2="3036" y1="696" y2="696"/><line id="Capline-S" style="fill:none;stroke:#27AAE1;opacity:1;stroke-width:0.577;" x1="263" x2="3036" y1="625.541" y2="625.541"/><g id="H-reference" style="fill:#27AAE1;stroke:none;" transform="matrix(1 0 0 1 339 1126)"><path d="M 54.9316 0 L 57.666 0 L 30.5664 -70.459 L 28.0762 -70.459 L 0.976562 0 L 3.66211 0 L 12.9395 -24.4629 L 45.7031 -24.4629 Z M 29.1992 -67.0898 L 29.4434 -67.0898 L 44.8242 -26.709 L 13.8184 -26.709 Z"/></g><line id="Baseline-M" style="fill:none;stroke:#27AAE1;opacity:1;stroke-width:0.577;" x1="263" x2="3036" y1="1126" y2="1126"/><line id="Capline-M" style="fill:none;stroke:#27AAE1;opacity:1;stroke-width:0.577;" x1="263" x2="3036" y1="1055.54" y2="1055.54"/><g id="H-reference" style="fill:#27AAE1;stroke:none;" transform="matrix(1 0 0 1 339 1556)"><path d="M 54.9316 0 L 57.666 0 L 30.5664 -70.459 L 28.0762 -70.459 L 0.976562 0 L 3.66211 0 L 12.9395 -24.4629 L 45.7031 -24.4629 Z M 29.1992 -67.0898 L 29.4434 -67.0898 L 44.8242 -26.709 L 13.8184 -26.709 Z"/></g><line id="Baseline-L" style="fill:none;stroke:#27AAE1;opacity:1;stroke-width:0.577;" x1="263" x2="3036" y1="1556" y2="1556"/><line id="Capline-L" style="fill:none;stroke:#27AAE1;opacity:1;stroke-width:0.577;" x1="263" x2="3036" y1="1485.54" y2="1485.54"/><rect height="119.336" id="left-margin" style="fill:darkred;stroke:none;opacity:0.4;" width="12.4512" x="1394.06" y="1030.79"/><rect height="119.336" id="right-margin" style="fill:darkgreen;stroke:none;opacity:0.4;" width="12.4512" x="1502.5112" y="1030.79"/><rect x="1406.5112" y="1045" width="96" height="96" fill="none" stroke="blue" stroke-dasharray="5"/><rect x="1394.06" y="1030.79" width="120.9024" height="119.336" fill="none" stroke="blue"/></g><g id="Symbols"><g id="Bold-L" transform="matrix(1 0 0 1 2266 1556)"><path d="M77.72250000000001 10.887500000000003  97.0725 -8.301249999999982  77.88374999999999 -27.489999999999995  69.9825 -19.749999999999986  75.94875 -13.783749999999998 Q72.07875000000001 -13.944999999999993 68.450625 -15.396249999999995 Q64.8225 -16.847499999999997 62.081250000000004 -19.911249999999995 Q58.85625 -22.813749999999985 57.24375 -26.925624999999997 Q55.63125 -31.037499999999994 55.63125 -35.068749999999994 Q55.63125 -37.64874999999999 56.27625 -40.55124999999998 Q56.92124999999999 -43.45375 58.53375 -46.19499999999999 L50.31 -54.09625 Q47.4075 -49.58124999999999 45.875625 -44.824375 Q44.34375 -40.067499999999995 44.34375 -35.22999999999999 Q44.34375 -28.779999999999987 46.7625 -22.733124999999987 Q49.18125 -16.686249999999987 54.18000000000001 -12.009999999999991 Q58.695 -7.333749999999995 64.1775 -4.99562499999999 Q69.66000000000001 -2.6574999999999847 75.465 -2.4962500000000034 L69.9825 3.147500000000008 L77.72250000000001 10.887500000000003 Z M104.65125000000002 -16.363749999999982 Q107.3925 -20.878749999999997 108.924375 -25.63562499999999 Q110.45625 -30.3925 110.45625 -35.22999999999999 Q110.45625 -41.67999999999999 108.03750000000001 -47.646249999999995 Q105.61875 -53.61249999999999 100.94250000000001 -58.772499999999994 Q96.26625000000001 -63.12624999999999 90.703125 -65.46437499999999 Q85.14 -67.8025 79.6575 -67.96375 L84.81750000000001 -73.60749999999999 L77.0775 -81.3475 L57.7275 -62.15874999999999 L77.0775 -42.969999999999985 L84.81750000000001 -50.709999999999994 L78.85125 -56.998749999999994 Q82.56 -56.67624999999999 86.26875 -55.06374999999999 Q89.97749999999999 -53.45124999999999 92.88000000000001 -50.709999999999994 Q95.94375000000001 -47.646249999999995 97.55625 -43.534375 Q99.16875 -39.4225 99.16875 -35.39125 Q99.16875 -32.81124999999999 98.52375 -29.908749999999998 Q97.87875000000001 -27.006249999999994 96.26625000000001 -24.426249999999982 L104.65125000000002 -16.363749999999982 Z M77.4 32.65625 Q63.371249999999996 32.65625 50.955000000000005 27.415625000000006 Q38.53875 22.17500000000001 29.266875 12.903125000000003 Q19.995 3.6312499999999943 14.754375000000001 -8.784999999999982 Q9.513750000000002 -21.201249999999987 9.513750000000002 -35.22999999999999 Q9.513750000000002 -49.25875 14.754375000000001 -61.67499999999999 Q19.995 -74.09125 29.266875 -83.363125 Q38.53875 -92.63499999999999 50.955000000000005 -97.95625 Q63.371249999999996 -103.2775 77.4 -103.2775 Q91.42875000000001 -103.2775 103.84500000000001 -97.95625 Q116.26124999999999 -92.63499999999999 125.533125 -83.363125 Q134.805 -74.09125 140.12625 -61.67499999999999 Q145.44750000000002 -49.25875 145.44750000000002 -35.22999999999999 Q145.44750000000002 -21.201249999999987 140.12625 -8.784999999999982 Q134.805 3.6312499999999943 125.533125 12.903125000000003 Q116.26124999999999 22.17500000000001 103.84500000000001 27.415625000000006 Q91.42875000000001 32.65625 77.4 32.65625 Z"/></g><g id="Semibold-L" transform="matrix(1 0 0 1 1970.27 1556)"><path d="M77.72250000000001 10.887500000000003  97.0725 -8.301249999999982  77.88374999999999 -27.489999999999995  69.9825 -19.749999999999986  75.94875 -13.783749999999998 Q72.07875000000001 -13.944999999999993 68.450625 -15.396249999999995 Q64.8225 -16.847499999999997 62.081250000000004 -19.911249999999995 Q58.85625 -22.813749999999985 57.24375 -26.925624999999997 Q55.63125 -31.037499999999994 55.63125 -35.068749999999994 Q55.63125 -37.64874999999999 56.27625 -40.55124999999998 Q56.92124999999999 -43.45375 58.53375 -46.19499999999999 L50.31 -54.09625 Q47.4075 -49.58124999999999 45.875625 -44.824375 Q44.34375 -40.067499999999995 44.34375 -35.22999999999999 Q44.34375 -28.779999999999987 46.7625 -22.733124999999987 Q49.18125 -16.686249999999987 54.18000000000001 -12.009999999999991 Q58.695 -7.333749999999995 64.1775 -4.99562499999999 Q69.66000000000001 -2.6574999999999847 75.465 -2.4962500000000034 L69.9825 3.147500000000008 L77.72250000000001 10.887500000000003 Z M104.65125000000002 -16.363749999999982 Q107.3925 -20.878749999999997 108.924375 -25.63562499999999 Q110.45625 -30.3925 110.45625 -35.22999999999999 Q110.45625 -41.67999999999999 108.03750000000001 -47.646249999999995 Q105.61875 -53.61249999999999 100.94250000000001 -58.772499999999994 Q96.26625000000001 -63.12624999999999 90.703125 -65.46437499999999 Q85.14 -67.8025 79.6575 -67.96375 L84.81750000000001 -73.60749999999999 L77.0775 -81.3475 L57.7275 -62.15874999999999 L77.0775 -42.969999999999985 L84.81750000000001 -50.709999999999994 L78.85125 -56.998749999999994 Q82.56 -56.67624999999999 86.26875 -55.06374999999999 Q89.97749999999999 -53.45124999999999 92.88000000000001 -50.709999999999994 Q95.94375000000001 -47.646249999999995 97.55625 -43.534375 Q99.16875 -39.4225 99.16875 -35.39125 Q99.16875 -32.81124999999999 98.52375 -29.908749999999998 Q97.87875000000001 -27.006249999999994 96.26625000000001 -24.426249999999982 L104.65125000000002 -16.363749999999982 Z M77.4 32.33375000000001 Q63.371249999999996 32.33375000000001 51.11625 27.01249999999999 Q38.861250000000005 21.691249999999997 29.669999999999998 12.5 Q20.478749999999998 3.3087500000000176 15.1575 -8.946249999999992 Q9.83625 -21.201249999999987 9.83625 -35.22999999999999 Q9.83625 -49.25875 15.1575 -61.594375 Q20.478749999999998 -73.92999999999999 29.669999999999998 -83.12124999999999 Q38.861250000000005 -92.3125 51.11625 -97.553125 Q63.371249999999996 -102.79374999999999 77.4 -102.79374999999999 Q91.42875000000001 -102.79374999999999 103.76437499999999 -97.553125 Q116.10000000000001 -92.3125 125.29125 -83.12124999999999 Q134.48250000000002 -73.92999999999999 139.723125 -61.594375 Q144.96375 -49.25875 144.96375 -35.22999999999999 Q144.96375 -21.201249999999987 139.723125 -8.946249999999992 Q134.48250000000002 3.3087500000000176 125.29125 12.5 Q116.10000000000001 21.691249999999997 103.76437499999999 27.01249999999999 Q91.42875000000001 32.33375000000001 77.4 32.33375000000001 Z"/></g><g id="Medium-L" transform="matrix(1 0 0 1 1674.31 1556)"><path d="M77.72250000000001 11.048750000000013  97.23375 -8.301249999999982  77.88374999999999 -27.65124999999999  69.82124999999999 -19.749999999999986  75.78750000000001 -13.783749999999998 Q72.07875000000001 -14.106249999999989 68.450625 -15.55749999999999 Q64.8225 -17.008749999999992 62.081250000000004 -19.911249999999995 Q58.85625 -22.974999999999994 57.24375 -27.006249999999994 Q55.63125 -31.037499999999994 55.63125 -35.068749999999994 Q55.63125 -37.81 56.35687500000001 -40.55124999999998 Q57.082499999999996 -43.29249999999999 58.53375 -46.03375 L50.31 -54.257499999999986 Q47.4075 -49.74249999999999 45.875625 -44.90499999999999 Q44.34375 -40.067499999999995 44.34375 -35.22999999999999 Q44.34375 -28.779999999999987 46.7625 -22.733124999999987 Q49.18125 -16.686249999999987 54.018750000000004 -11.848749999999995 Q58.53375 -7.333749999999995 64.01625 -4.99562499999999 Q69.49875 -2.6574999999999847 75.30375000000001 -2.3349999999999795 L69.82124999999999 3.147500000000008 L77.72250000000001 11.048750000000013 Z M104.49 -16.2025 Q107.3925 -20.717499999999987 108.924375 -25.63562499999999 Q110.45625 -30.553749999999994 110.45625 -35.22999999999999 Q110.45625 -41.67999999999999 108.11812499999999 -47.72687499999999 Q105.77999999999999 -53.77374999999999 100.94250000000001 -58.772499999999994 Q96.4275 -63.12624999999999 90.86437500000001 -65.46437499999999 Q85.30125 -67.8025 79.6575 -68.125 L84.97875 -73.60749999999999 L77.0775 -81.50874999999999 L57.566250000000004 -62.15874999999999 L77.0775 -42.80875 L84.97875 -50.709999999999994 L79.0125 -56.83749999999999 Q82.72125 -56.515 86.349375 -54.902499999999996 Q89.97749999999999 -53.29 92.88000000000001 -50.709999999999994 Q95.94375000000001 -47.485 97.55625 -43.45375 Q99.16875 -39.4225 99.16875 -35.39125 Q99.16875 -32.64999999999999 98.443125 -29.908749999999998 Q97.7175 -27.16749999999999 96.26625000000001 -24.426249999999982 L104.49 -16.2025 Z M77.4 32.01125000000002 Q63.5325 32.01125000000002 51.2775 26.690000000000026 Q39.0225 21.368750000000006 29.911875000000002 12.258125000000007 Q20.80125 3.147500000000008 15.48 -9.107499999999987 Q10.15875 -21.362499999999997 10.15875 -35.22999999999999 Q10.15875 -49.0975 15.48 -61.433125 Q20.80125 -73.76874999999998 29.911875000000002 -82.879375 Q39.0225 -91.99 51.2775 -97.23062499999999 Q63.5325 -102.47125 77.4 -102.47125 Q91.2675 -102.47125 103.603125 -97.23062499999999 Q115.93875000000001 -91.99 125.049375 -82.879375 Q134.16 -73.76874999999998 139.40062500000002 -61.433125 Q144.64125 -49.0975 144.64125 -35.22999999999999 Q144.64125 -21.362499999999997 139.40062500000002 -9.107499999999987 Q134.16 3.147500000000008 125.049375 12.258125000000007 Q115.93875000000001 21.368750000000006 103.603125 26.690000000000026 Q91.2675 32.01125000000002 77.4 32.01125000000002 Z"/></g><g id="Regular-L" transform="matrix(1 0 0 1 1378.56 1556)"><path d="M77.72250000000001 11.048750000000013  97.23375 -8.301249999999982  77.88374999999999 -27.65124999999999  69.82124999999999 -19.749999999999986  75.78750000000001 -13.783749999999998 Q72.07875000000001 -14.106249999999989 68.450625 -15.55749999999999 Q64.8225 -17.008749999999992 62.081250000000004 -19.911249999999995 Q58.85625 -22.974999999999994 57.24375 -27.006249999999994 Q55.63125 -31.037499999999994 55.63125 -35.068749999999994 Q55.63125 -37.81 56.35687500000001 -40.55124999999998 Q57.082499999999996 -43.29249999999999 58.53375 -46.03375 L50.31 -54.257499999999986 Q47.4075 -49.74249999999999 45.875625 -44.90499999999999 Q44.34375 -40.067499999999995 44.34375 -35.22999999999999 Q44.34375 -28.779999999999987 46.7625 -22.733124999999987 Q49.18125 -16.686249999999987 54.018750000000004 -11.848749999999995 Q58.53375 -7.333749999999995 64.01625 -4.99562499999999 Q69.49875 -2.6574999999999847 75.30375000000001 -2.3349999999999795 L69.82124999999999 3.147500000000008 L77.72250000000001 11.048750000000013 Z M104.49 -16.2025 Q107.3925 -20.717499999999987 108.924375 -25.63562499999999 Q110.45625 -30.553749999999994 110.45625 -35.22999999999999 Q110.45625 -41.67999999999999 108.11812499999999 -47.72687499999999 Q105.77999999999999 -53.77374999999999 100.94250000000001 -58.772499999999994 Q96.4275 -63.12624999999999 90.86437500000001 -65.46437499999999 Q85.30125 -67.8025 79.6575 -68.125 L84.97875 -73.60749999999999 L77.0775 -81.50874999999999 L57.566250000000004 -62.15874999999999 L77.0775 -42.80875 L84.97875 -50.709999999999994 L79.0125 -56.83749999999999 Q82.72125 -56.515 86.349375 -54.902499999999996 Q89.97749999999999 -53.29 92.88000000000001 -50.709999999999994 Q95.94375000000001 -47.485 97.55625 -43.45375 Q99.16875 -39.4225 99.16875 -35.39125 Q99.16875 -32.64999999999999 98.443125 -29.908749999999998 Q97.7175 -27.16749999999999 96.26625000000001 -24.426249999999982 L104.49 -16.2025 Z M77.4 31.849999999999994 Q63.5325 31.849999999999994 51.358125 26.528750000000002 Q39.18375 21.20750000000001 30.073124999999997 12.096874999999997 Q20.962500000000002 2.9862500000000125 15.64125 -9.188124999999985 Q10.32 -21.362499999999997 10.32 -35.22999999999999 Q10.32 -49.0975 15.64125 -61.35249999999999 Q20.962500000000002 -73.60749999999999 30.073124999999997 -82.71812499999999 Q39.18375 -91.82875 51.358125 -97.069375 Q63.5325 -102.31 77.4 -102.31 Q91.2675 -102.31 103.52250000000001 -97.069375 Q115.7775 -91.82875 124.888125 -82.71812499999999 Q133.99875 -73.60749999999999 139.239375 -61.35249999999999 Q144.48 -49.0975 144.48 -35.22999999999999 Q144.48 -21.362499999999997 139.239375 -9.188124999999985 Q133.99875 2.9862500000000125 124.888125 12.096874999999997 Q115.7775 21.20750000000001 103.52250000000001 26.528750000000002 Q91.2675 31.849999999999994 77.4 31.849999999999994 Z"/></g><g id="Light-L" transform="matrix(1 0 0 1 1082.77 1556)"><path d="M77.72250000000001 9.75875000000002  95.94375000000001 -8.301249999999982  77.88374999999999 -26.36125  71.27250000000001 -19.749999999999986  78.20625 -12.816249999999997 Q73.04625 -13.138749999999987 68.611875 -14.670624999999987 Q64.1775 -16.2025 61.43625 -19.26625 Q58.050000000000004 -22.491249999999994 56.35687500000001 -26.683750000000003 Q54.66375 -30.876249999999985 54.66375 -35.068749999999994 Q54.66375 -37.81 55.308749999999996 -40.55124999999998 Q55.95375000000001 -43.29249999999999 57.405 -46.03375 L50.471250000000005 -52.64499999999999 Q48.0525 -48.4525 46.681875 -44.018125 Q45.31125 -39.583749999999995 45.31125 -35.22999999999999 Q45.31125 -28.941249999999997 47.649375 -23.055624999999992 Q49.987500000000004 -17.169999999999987 54.66375 -12.493749999999991 Q59.017500000000005 -8.14 65.145 -5.882499999999993 Q71.27250000000001 -3.625 77.72250000000001 -3.4637499999999903 L71.27250000000001 3.147500000000008 L77.72250000000001 9.75875000000002 Z M104.32875000000001 -17.814999999999998 Q106.90875 -22.007499999999993 108.19874999999999 -26.522499999999994 Q109.48875000000001 -31.037499999999994 109.48875000000001 -35.22999999999999 Q109.48875000000001 -41.51875 107.23125 -47.32374999999999 Q104.97375 -53.12875 100.29750000000001 -57.966249999999995 Q95.94375000000001 -62.31999999999999 89.735625 -64.57749999999999 Q83.5275 -66.835 77.23875 -67.1575 L83.68875 -73.60749999999999 L77.0775 -80.21875 L59.017500000000005 -62.15874999999999 L77.0775 -44.098749999999995 L83.68875 -50.709999999999994 L76.75500000000001 -57.80499999999999 Q81.91499999999999 -57.48249999999999 86.26875 -55.78937499999999 Q90.6225 -54.09625 93.68625 -51.355 Q96.91125000000001 -47.968749999999986 98.604375 -43.77624999999999 Q100.29750000000001 -39.583749999999995 100.29750000000001 -35.39125 Q100.29750000000001 -32.64999999999999 99.571875 -29.908749999999998 Q98.84625 -27.16749999999999 97.55625 -24.426249999999982 L104.32875000000001 -17.814999999999998 Z M77.4 28.625 Q64.1775 28.625 52.5675 23.545625 Q40.957499999999996 18.466250000000002 32.330625000000005 9.839375000000018 Q23.70375 1.2124999999999915 18.624375 -10.397499999999994 Q13.545000000000002 -22.007499999999993 13.545000000000002 -35.22999999999999 Q13.545000000000002 -48.4525 18.624375 -60.143125 Q23.70375 -71.83375 32.330625000000005 -80.460625 Q40.957499999999996 -89.08749999999999 52.5675 -94.08624999999999 Q64.1775 -99.085 77.4 -99.085 Q90.6225 -99.085 102.31312500000001 -94.08624999999999 Q114.00375000000001 -89.08749999999999 122.630625 -80.460625 Q131.25750000000002 -71.83375 136.25625 -60.143125 Q141.255 -48.4525 141.255 -35.22999999999999 Q141.255 -22.007499999999993 136.25625 -10.397499999999994 Q131.25750000000002 1.2124999999999915 122.630625 9.839375000000018 Q114.00375000000001 18.466250000000002 102.31312500000001 23.545625 Q90.6225 28.625 77.4 28.625 Z"/></g><g id="Thin-L" transform="matrix(1 0 0 1 787.282 1556)"><path d="M77.88374999999999 8.307500000000005  94.4925 -8.301249999999982  78.045 -24.909999999999997  72.72375000000001 -19.749999999999986  80.625 -11.848749999999995 Q74.01375 -12.17125 68.773125 -13.864374999999995 Q63.5325 -15.55749999999999 60.791250000000005 -18.621250000000003 Q57.082499999999996 -22.007499999999993 55.389375 -26.36125 Q53.69625 -30.715000000000003 53.69625 -35.22999999999999 Q53.69625 -37.97125 54.260625 -40.71249999999999 Q54.825 -43.45375 56.114999999999995 -46.03375 L50.6325 -51.03249999999999 Q48.6975 -47.162499999999994 47.488125000000004 -43.131249999999994 Q46.27875 -39.099999999999994 46.27875 -35.22999999999999 Q46.27875 -29.102499999999992 48.53625 -23.458749999999995 Q50.79375 -17.814999999999998 55.308749999999996 -13.138749999999987 Q59.50125 -8.946249999999992 66.27375 -6.769374999999982 Q73.04625 -4.592499999999987 80.3025 -4.431250000000006 L72.72375000000001 3.147500000000008 L77.88374999999999 8.307500000000005 Z M104.16749999999999 -19.427499999999995 Q106.26375000000002 -23.2975 107.3925 -27.409374999999997 Q108.52125 -31.521249999999995 108.52125 -35.22999999999999 Q108.52125 -41.35749999999999 106.34437500000001 -47.001249999999985 Q104.16749999999999 -52.64499999999999 99.6525 -57.32125 Q95.46000000000001 -61.35249999999999 88.606875 -63.61 Q81.75375000000001 -65.86749999999999 74.82 -66.19 L82.2375 -73.60749999999999 L77.0775 -78.76749999999998 L60.46875 -62.15874999999999 L77.0775 -45.55 L82.2375 -50.709999999999994 L74.4975 -58.772499999999994 Q81.27 -58.44999999999999 86.26875 -56.67624999999999 Q91.2675 -54.902499999999996 94.33125 -51.99999999999999 Q97.7175 -48.4525 99.49125000000001 -44.098749999999995 Q101.265 -39.74499999999999 101.265 -35.22999999999999 Q101.265 -32.48874999999998 100.700625 -29.747500000000002 Q100.13625 -27.006249999999994 98.685 -24.426249999999982 L104.16749999999999 -19.427499999999995 Z M77.4 25.400000000000006 Q64.8225 25.400000000000006 53.8575 20.5625 Q42.892500000000005 15.724999999999994 34.66875 7.501250000000013 Q26.444999999999997 -0.7224999999999824 21.6075 -11.606874999999988 Q16.77 -22.491249999999994 16.77 -35.22999999999999 Q16.77 -47.80749999999999 21.6075 -58.85312499999999 Q26.444999999999997 -69.89874999999999 34.66875 -78.1225 Q42.892500000000005 -86.34625 53.776875000000004 -91.10312499999999 Q64.66125000000001 -95.86 77.4 -95.86 Q89.97749999999999 -95.86 101.02312500000001 -91.10312499999999 Q112.06875000000001 -86.34625 120.29249999999999 -78.1225 Q128.51625 -69.89874999999999 133.27312500000002 -58.85312499999999 Q138.03 -47.80749999999999 138.03 -35.22999999999999 Q138.03 -22.652500000000003 133.27312500000002 -11.687499999999986 Q128.51625 -0.7224999999999824 120.29249999999999 7.501250000000013 Q112.06875000000001 15.724999999999994 101.02312500000001 20.5625 Q89.97749999999999 25.400000000000006 77.4 25.400000000000006 Z"/></g><g id="Ultralight-L" transform="matrix(1 0 0 1 491.205 1556)"><path d="M77.88374999999999 7.501250000000013  93.68625 -8.301249999999982  78.045 -24.10374999999999  73.53 -19.749999999999986  82.07625 -11.20375 Q74.4975 -11.687499999999986 68.85375 -13.380624999999995 Q63.21000000000001 -15.07374999999999 60.3075 -18.13749999999999 Q56.59875 -21.685000000000002 54.825 -26.19999999999999 Q53.051249999999996 -30.715000000000003 53.051249999999996 -35.22999999999999 Q53.051249999999996 -37.97125 53.615625 -40.71249999999999 Q54.18000000000001 -43.45375 55.47 -46.03375 L50.79375 -50.065 Q49.019999999999996 -46.35624999999999 47.971875000000004 -42.647499999999994 Q46.923750000000005 -38.938749999999985 46.923750000000005 -35.22999999999999 Q46.923750000000005 -29.263749999999987 49.100625 -23.700625000000002 Q51.2775 -18.13749999999999 55.792500000000004 -13.622499999999988 Q59.823750000000004 -9.429999999999993 66.999375 -7.333749999999995 Q74.175 -5.237499999999997 81.75375000000001 -5.0762499999999875 L73.53 3.147500000000008 L77.88374999999999 7.501250000000013 Z M104.16749999999999 -20.394999999999982 Q105.94125000000001 -24.10374999999999 106.989375 -27.893124999999998 Q108.03750000000001 -31.68249999999999 108.03750000000001 -35.22999999999999 Q108.03750000000001 -41.19624999999999 105.86062500000001 -46.678749999999994 Q103.68375 -52.161249999999995 99.16875 -56.83749999999999 Q95.1375 -60.86874999999999 87.96187499999999 -63.045624999999994 Q80.78625000000001 -65.2225 73.36875 -65.54499999999999 L81.43125 -73.60749999999999 L77.0775 -77.96124999999999 L61.275 -62.15874999999999 L77.0775 -46.35624999999999 L81.43125 -50.709999999999994 L73.04625 -59.256249999999994 Q80.78625000000001 -58.933749999999996 86.18812500000001 -57.16 Q91.59 -55.38625 94.815 -52.48375 Q98.3625 -48.77499999999999 100.13625 -44.25999999999999 Q101.91000000000001 -39.74499999999999 101.91000000000001 -35.22999999999999 Q101.91000000000001 -32.48874999999998 101.345625 -29.747500000000002 Q100.78125 -27.006249999999994 99.49125000000001 -24.426249999999982 L104.16749999999999 -20.394999999999982 Z M77.4 23.465000000000003 Q65.145 23.465000000000003 54.583125 18.78875000000002 Q44.02125 14.112499999999997 36.03937500000001 6.130625000000023 Q28.057499999999997 -1.8512499999999932 23.38125 -12.413124999999994 Q18.705 -22.974999999999994 18.705 -35.22999999999999 Q18.705 -47.32374999999999 23.38125 -58.04687499999999 Q28.057499999999997 -68.77 36.03937500000001 -76.75187499999998 Q44.02125 -84.73374999999999 54.583125 -89.329375 Q65.145 -93.925 77.4 -93.925 Q89.49375 -93.925 100.216875 -89.329375 Q110.94 -84.73374999999999 118.921875 -76.75187499999998 Q126.90375 -68.77 131.499375 -58.04687499999999 Q136.095 -47.32374999999999 136.095 -35.22999999999999 Q136.095 -22.974999999999994 131.499375 -12.413124999999994 Q126.90375 -1.8512499999999932 118.921875 6.130625000000023 Q110.94 14.112499999999997 100.216875 18.78875000000002 Q89.49375 23.465000000000003 77.4 23.465000000000003 Z"/></g><g id="Bold-M" transform="matrix(1 0 0 1 2281.8 1126)"><path d="M60.25 1.7700000000000102  76.5 -14.35499999999999  60.375 -30.47999999999999  53.0 -23.22999999999999  56.625 -19.60499999999999 Q54.375 -20.10499999999999 52.315 -21.169999999999987 Q50.25 -22.22999999999999 48.625 -23.85499999999999 Q46.25 -26.10499999999999 45.125 -29.10499999999999 Q44.0 -32.10499999999999 44.0 -35.10499999999999 Q44.0 -36.97999999999999 44.565 -39.289999999999985 Q45.125 -41.60499999999999 46.375 -43.85499999999999 L38.75 -51.22999999999999 Q36.125 -47.10499999999999 34.815 -43.039999999999985 Q33.5 -38.97999999999999 33.5 -35.22999999999999 Q33.5 -30.10499999999999 35.375 -25.22999999999999 Q37.25 -20.35499999999999 41.25 -16.47999999999999 Q44.5 -13.22999999999999 48.375 -11.419999999999987 Q52.25 -9.60499999999999 56.375 -9.10499999999999 L53.0 -5.47999999999999 L60.25 1.7700000000000102 Z M81.25 -19.22999999999999 Q83.875 -23.35499999999999 85.19 -27.35499999999999 Q86.5 -31.35499999999999 86.5 -35.22999999999999 Q86.5 -40.35499999999999 84.565 -45.16999999999999 Q82.625 -49.97999999999999 78.75 -53.97999999999999 Q75.5 -57.22999999999999 71.625 -59.04499999999999 Q67.75 -60.85499999999999 63.625 -61.35499999999999 L67.0 -64.97999999999999 L59.75 -72.22999999999999 L43.5 -56.10499999999999 L59.625 -39.97999999999999 L67.0 -47.22999999999999 L63.375 -50.85499999999999 Q65.625 -50.35499999999999 67.69 -49.289999999999985 Q69.75 -48.22999999999999 71.375 -46.60499999999999 Q73.75 -44.35499999999999 74.875 -41.35499999999999 Q76.0 -38.35499999999999 76.0 -35.35499999999999 Q76.0 -33.47999999999999 75.44 -31.169999999999987 Q74.875 -28.85499999999999 73.625 -26.60499999999999 L81.25 -19.22999999999999 Z M60.0 20.52000000000001 Q48.375 20.52000000000001 38.19 16.210000000000008 Q28.0 11.89500000000001 20.44 4.335000000000008 Q12.875 -3.2299999999999898 8.565000000000001 -13.420000000000002 Q4.25 -23.60499999999999 4.25 -35.22999999999999 Q4.25 -46.85499999999999 8.565000000000001 -57.044999999999995 Q12.875 -67.22999999999999 20.44 -74.79499999999999 Q28.0 -82.35499999999999 38.19 -86.66999999999999 Q48.375 -90.97999999999999 60.0 -90.97999999999999 Q71.625 -90.97999999999999 81.815 -86.66999999999999 Q92.0 -82.35499999999999 99.565 -74.79499999999999 Q107.125 -67.22999999999999 111.44 -57.044999999999995 Q115.75 -46.85499999999999 115.75 -35.22999999999999 Q115.75 -23.60499999999999 111.44 -13.420000000000002 Q107.125 -3.2299999999999898 99.565 4.335000000000008 Q92.0 11.89500000000001 81.815 16.210000000000008 Q71.625 20.52000000000001 60.0 20.52000000000001 Z"/></g><g id="Semibold-M" transform="matrix(1 0 0 1 1985.97 1126)"><path d="M60.25 1.6450000000000102  76.375 -14.35499999999999  60.375 -30.35499999999999  53.125 -23.22999999999999  56.875 -19.47999999999999 Q54.5 -19.97999999999999 52.375 -21.044999999999987 Q50.25 -22.10499999999999 48.625 -23.85499999999999 Q46.25 -26.10499999999999 45.06 -29.10499999999999 Q43.875 -32.10499999999999 43.875 -35.10499999999999 Q43.875 -36.97999999999999 44.5 -39.289999999999985 Q45.125 -41.60499999999999 46.25 -43.85499999999999 L38.75 -51.10499999999999 Q36.25 -47.10499999999999 34.940000000000005 -43.039999999999985 Q33.625 -38.97999999999999 33.625 -35.22999999999999 Q33.625 -30.10499999999999 35.5 -25.22999999999999 Q37.375 -20.35499999999999 41.25 -16.47999999999999 Q44.5 -13.22999999999999 48.440000000000005 -11.419999999999987 Q52.375 -9.60499999999999 56.625 -9.10499999999999 L53.125 -5.47999999999999 L60.25 1.6450000000000102 Z M81.25 -19.35499999999999 Q83.75 -23.35499999999999 85.06500000000001 -27.35499999999999 Q86.375 -31.35499999999999 86.375 -35.22999999999999 Q86.375 -40.35499999999999 84.5 -45.16999999999999 Q82.625 -49.97999999999999 78.75 -53.97999999999999 Q75.5 -57.22999999999999 71.56 -59.04499999999999 Q67.625 -60.85499999999999 63.375 -61.35499999999999 L66.875 -64.97999999999999 L59.75 -72.10499999999999 L43.625 -56.10499999999999 L59.625 -40.10499999999999 L66.875 -47.22999999999999 L63.125 -50.97999999999999 Q65.5 -50.47999999999999 67.625 -49.41999999999999 Q69.75 -48.35499999999999 71.375 -46.60499999999999 Q73.75 -44.35499999999999 74.94 -41.35499999999999 Q76.125 -38.35499999999999 76.125 -35.35499999999999 Q76.125 -33.47999999999999 75.5 -31.169999999999987 Q74.875 -28.85499999999999 73.75 -26.60499999999999 L81.25 -19.35499999999999 Z M60.0 19.77000000000001 Q48.5 19.77000000000001 38.5 15.455000000000013 Q28.5 11.14500000000001 21.065 3.710000000000008 Q13.625 -3.7299999999999898 9.315 -13.72999999999999 Q5.0 -23.72999999999999 5.0 -35.22999999999999 Q5.0 -46.72999999999999 9.315 -56.78999999999999 Q13.625 -66.85499999999999 21.065 -74.28999999999999 Q28.5 -81.72999999999999 38.5 -85.97999999999999 Q48.5 -90.22999999999999 60.0 -90.22999999999999 Q71.5 -90.22999999999999 81.56 -85.97999999999999 Q91.625 -81.72999999999999 99.06 -74.28999999999999 Q106.5 -66.85499999999999 110.75 -56.78999999999999 Q115.0 -46.72999999999999 115.0 -35.22999999999999 Q115.0 -23.72999999999999 110.75 -13.72999999999999 Q106.5 -3.7299999999999898 99.06 3.710000000000008 Q91.625 11.14500000000001 81.56 15.455000000000013 Q71.5 19.77000000000001 60.0 19.77000000000001 Z"/></g><g id="Medium-M" transform="matrix(1 0 0 1 1689.91 1126)"><path d="M60.25 1.5200000000000102  76.25 -14.35499999999999  60.375 -30.22999999999999  53.25 -23.22999999999999  57.0 -19.35499999999999 Q54.625 -19.85499999999999 52.44 -20.914999999999992 Q50.25 -21.97999999999999 48.5 -23.72999999999999 Q46.125 -26.10499999999999 44.94 -29.10499999999999 Q43.75 -32.10499999999999 43.75 -35.10499999999999 Q43.75 -37.10499999999999 44.375 -39.289999999999985 Q45.0 -41.47999999999999 46.125 -43.72999999999999 L38.875 -50.97999999999999 Q36.375 -46.97999999999999 35.065 -42.97999999999999 Q33.75 -38.97999999999999 33.75 -35.22999999999999 Q33.75 -30.10499999999999 35.625 -25.294999999999987 Q37.5 -20.47999999999999 41.375 -16.60499999999999 Q44.625 -13.35499999999999 48.565 -11.539999999999992 Q52.5 -9.72999999999999 56.75 -9.22999999999999 L53.25 -5.47999999999999 L60.25 1.5200000000000102 Z M81.125 -19.47999999999999 Q83.625 -23.47999999999999 84.94 -27.47999999999999 Q86.25 -31.47999999999999 86.25 -35.22999999999999 Q86.25 -40.35499999999999 84.375 -45.16999999999999 Q82.5 -49.97999999999999 78.625 -53.85499999999999 Q75.375 -57.10499999999999 71.44 -58.919999999999995 Q67.5 -60.72999999999999 63.25 -61.22999999999999 L66.75 -64.97999999999999 L59.75 -71.97999999999999 L43.75 -56.10499999999999 L59.625 -40.22999999999999 L66.75 -47.22999999999999 L63.0 -51.10499999999999 Q65.375 -50.60499999999999 67.565 -49.54499999999999 Q69.75 -48.47999999999999 71.5 -46.72999999999999 Q73.875 -44.35499999999999 75.06 -41.35499999999999 Q76.25 -38.35499999999999 76.25 -35.35499999999999 Q76.25 -33.35499999999999 75.625 -31.169999999999987 Q75.0 -28.97999999999999 73.875 -26.72999999999999 L81.125 -19.47999999999999 Z M60.0 19.14500000000001 Q48.625 19.14500000000001 38.75 14.89500000000001 Q28.875 10.64500000000001 21.5 3.2700000000000102 Q14.125 -4.10499999999999 9.875 -13.97999999999999 Q5.625 -23.85499999999999 5.625 -35.22999999999999 Q5.625 -46.60499999999999 9.875 -56.54499999999999 Q14.125 -66.47999999999999 21.5 -73.85499999999999 Q28.875 -81.22999999999999 38.75 -85.41999999999999 Q48.625 -89.60499999999999 60.0 -89.60499999999999 Q71.375 -89.60499999999999 81.31 -85.41999999999999 Q91.25 -81.22999999999999 98.625 -73.85499999999999 Q106.0 -66.47999999999999 110.19 -56.54499999999999 Q114.375 -46.60499999999999 114.375 -35.22999999999999 Q114.375 -23.85499999999999 110.19 -13.97999999999999 Q106.0 -4.10499999999999 98.625 3.2700000000000102 Q91.25 10.64500000000001 81.31 14.89500000000001 Q71.375 19.14500000000001 60.0 19.14500000000001 Z"/></g><g id="Regular-M" transform="matrix(1 0 0 1 1394.06 1126)"><path d="M60.25 1.5200000000000102  76.25 -14.35499999999999  60.375 -30.22999999999999  53.25 -23.22999999999999  57.125 -19.35499999999999 Q54.75 -19.85499999999999 52.5 -20.914999999999992 Q50.25 -21.97999999999999 48.5 -23.72999999999999 Q46.125 -26.10499999999999 44.94 -29.10499999999999 Q43.75 -32.10499999999999 43.75 -35.10499999999999 Q43.75 -37.10499999999999 44.375 -39.289999999999985 Q45.0 -41.47999999999999 46.125 -43.72999999999999 L38.875 -50.97999999999999 Q36.375 -46.97999999999999 35.065 -42.97999999999999 Q33.75 -38.97999999999999 33.75 -35.22999999999999 Q33.75 -30.10499999999999 35.625 -25.294999999999987 Q37.5 -20.47999999999999 41.375 -16.60499999999999 Q44.625 -13.35499999999999 48.625 -11.539999999999992 Q52.625 -9.72999999999999 56.875 -9.22999999999999 L53.25 -5.47999999999999 L60.25 1.5200000000000102 Z M81.125 -19.47999999999999 Q83.625 -23.47999999999999 84.94 -27.47999999999999 Q86.25 -31.47999999999999 86.25 -35.22999999999999 Q86.25 -40.35499999999999 84.375 -45.16999999999999 Q82.5 -49.97999999999999 78.625 -53.85499999999999 Q75.375 -57.10499999999999 71.375 -58.919999999999995 Q67.375 -60.72999999999999 63.125 -61.22999999999999 L66.75 -64.97999999999999 L59.75 -71.97999999999999 L43.75 -56.10499999999999 L59.625 -40.22999999999999 L66.75 -47.22999999999999 L62.875 -51.10499999999999 Q65.25 -50.60499999999999 67.5 -49.54499999999999 Q69.75 -48.47999999999999 71.5 -46.72999999999999 Q73.875 -44.35499999999999 75.06 -41.35499999999999 Q76.25 -38.35499999999999 76.25 -35.35499999999999 Q76.25 -33.35499999999999 75.625 -31.169999999999987 Q75.0 -28.97999999999999 73.875 -26.72999999999999 L81.125 -19.47999999999999 Z M60.0 18.77000000000001 Q48.75 18.77000000000001 38.935 14.52000000000001 Q29.125 10.27000000000001 21.815 2.960000000000022 Q14.5 -4.35499999999999 10.25 -14.169999999999987 Q6.0 -23.97999999999999 6.0 -35.22999999999999 Q6.0 -46.47999999999999 10.25 -56.35499999999999 Q14.5 -66.22999999999999 21.815 -73.53999999999999 Q29.125 -80.85499999999999 38.935 -85.04499999999999 Q48.75 -89.22999999999999 60.0 -89.22999999999999 Q71.25 -89.22999999999999 81.125 -85.04499999999999 Q91.0 -80.85499999999999 98.315 -73.53999999999999 Q105.625 -66.22999999999999 109.81 -56.35499999999999 Q114.0 -46.47999999999999 114.0 -35.22999999999999 Q114.0 -23.97999999999999 109.81 -14.169999999999987 Q105.625 -4.35499999999999 98.315 2.960000000000022 Q91.0 10.27000000000001 81.125 14.52000000000001 Q71.25 18.77000000000001 60.0 18.77000000000001 Z"/></g><g id="Light-M" transform="matrix(1 0 0 1 1098.18 1126)"><path d="M60.25 0.5200000000000102  75.25 -14.35499999999999  60.375 -29.22999999999999  54.375 -23.22999999999999  59.0 -18.60499999999999 Q55.5 -19.10499999999999 52.625 -20.22999999999999 Q49.75 -21.35499999999999 48.0 -23.22999999999999 Q45.5 -25.72999999999999 44.25 -28.85499999999999 Q43.0 -31.97999999999999 43.0 -35.10499999999999 Q43.0 -37.10499999999999 43.565 -39.289999999999985 Q44.125 -41.47999999999999 45.25 -43.72999999999999 L39.0 -49.72999999999999 Q36.875 -45.97999999999999 35.69 -42.29499999999999 Q34.5 -38.60499999999999 34.5 -35.22999999999999 Q34.5 -30.22999999999999 36.315 -25.539999999999992 Q38.125 -20.85499999999999 41.875 -17.10499999999999 Q45.0 -13.97999999999999 49.5 -12.22999999999999 Q54.0 -10.47999999999999 58.75 -10.10499999999999 L54.375 -5.47999999999999 L60.25 0.5200000000000102 Z M81.0 -20.72999999999999 Q83.25 -24.47999999999999 84.375 -28.169999999999987 Q85.5 -31.85499999999999 85.5 -35.22999999999999 Q85.5 -40.22999999999999 83.69 -44.85499999999999 Q81.875 -49.47999999999999 78.125 -53.22999999999999 Q75.0 -56.47999999999999 70.5 -58.22999999999999 Q66.0 -59.97999999999999 61.25 -60.47999999999999 L65.75 -64.97999999999999 L59.75 -70.97999999999999 L44.875 -56.10499999999999 L59.625 -41.22999999999999 L65.75 -47.22999999999999 L61.125 -51.85499999999999 Q64.625 -51.35499999999999 67.44 -50.22999999999999 Q70.25 -49.10499999999999 72.125 -47.22999999999999 Q74.625 -44.72999999999999 75.875 -41.60499999999999 Q77.125 -38.47999999999999 77.125 -35.35499999999999 Q77.125 -33.35499999999999 76.5 -31.169999999999987 Q75.875 -28.97999999999999 74.875 -26.72999999999999 L81.0 -20.72999999999999 Z M60.0 16.27000000000001 Q49.25 16.27000000000001 39.875 12.210000000000008 Q30.5 8.14500000000001 23.565 1.210000000000008 Q16.625 -5.72999999999999 12.565 -15.10499999999999 Q8.5 -24.47999999999999 8.5 -35.22999999999999 Q8.5 -45.97999999999999 12.565 -55.41999999999999 Q16.625 -64.85499999999999 23.565 -71.79499999999999 Q30.5 -78.72999999999999 39.875 -82.72999999999999 Q49.25 -86.72999999999999 60.0 -86.72999999999999 Q70.75 -86.72999999999999 80.19 -82.72999999999999 Q89.625 -78.72999999999999 96.56 -71.79499999999999 Q103.5 -64.85499999999999 107.5 -55.41999999999999 Q111.5 -45.97999999999999 111.5 -35.22999999999999 Q111.5 -24.47999999999999 107.5 -15.10499999999999 Q103.5 -5.72999999999999 96.56 1.210000000000008 Q89.625 8.14500000000001 80.19 12.210000000000008 Q70.75 16.27000000000001 60.0 16.27000000000001 Z"/></g><g id="Thin-M" transform="matrix(1 0 0 1 802.565 1126)"><path d="M60.375 -0.6049999999999898  74.125 -14.35499999999999  60.5 -28.10499999999999  55.5 -23.22999999999999  60.875 -17.85499999999999 Q56.25 -18.35499999999999 52.75 -19.60499999999999 Q49.25 -20.85499999999999 47.5 -22.72999999999999 Q44.75 -25.35499999999999 43.5 -28.60499999999999 Q42.25 -31.85499999999999 42.25 -35.22999999999999 Q42.25 -37.22999999999999 42.75 -39.41999999999999 Q43.25 -41.60499999999999 44.25 -43.72999999999999 L39.125 -48.47999999999999 Q37.375 -44.97999999999999 36.315 -41.60499999999999 Q35.25 -38.22999999999999 35.25 -35.22999999999999 Q35.25 -30.35499999999999 37.0 -25.85499999999999 Q38.75 -21.35499999999999 42.375 -17.60499999999999 Q45.375 -14.60499999999999 50.375 -12.919999999999987 Q55.375 -11.22999999999999 60.75 -10.85499999999999 L55.5 -5.47999999999999 L60.375 -0.6049999999999898 Z M80.875 -21.97999999999999 Q82.75 -25.47999999999999 83.75 -28.85499999999999 Q84.75 -32.22999999999999 84.75 -35.22999999999999 Q84.75 -40.10499999999999 83.0 -44.60499999999999 Q81.25 -49.10499999999999 77.625 -52.72999999999999 Q74.625 -55.72999999999999 69.625 -57.47999999999999 Q64.625 -59.22999999999999 59.375 -59.72999999999999 L64.625 -64.97999999999999 L59.75 -69.85499999999999 L46.0 -56.10499999999999 L59.625 -42.35499999999999 L64.625 -47.22999999999999 L59.375 -52.60499999999999 Q64.125 -52.10499999999999 67.44 -50.91499999999999 Q70.75 -49.72999999999999 72.625 -47.72999999999999 Q75.25 -45.10499999999999 76.56 -41.85499999999999 Q77.875 -38.60499999999999 77.875 -35.22999999999999 Q77.875 -33.22999999999999 77.375 -31.044999999999987 Q76.875 -28.85499999999999 75.75 -26.72999999999999 L80.875 -21.97999999999999 Z M60.0 13.77000000000001 Q49.75 13.77000000000001 40.875 9.89500000000001 Q32.0 6.02000000000001 25.375 -0.6049999999999898 Q18.75 -7.22999999999999 14.875 -16.10499999999999 Q11.0 -24.97999999999999 11.0 -35.22999999999999 Q11.0 -45.47999999999999 14.875 -54.41999999999999 Q18.75 -63.35499999999999 25.375 -69.97999999999999 Q32.0 -76.60499999999999 40.875 -80.41999999999999 Q49.75 -84.22999999999999 60.0 -84.22999999999999 Q70.25 -84.22999999999999 79.19 -80.41999999999999 Q88.125 -76.60499999999999 94.75 -69.97999999999999 Q101.375 -63.35499999999999 105.19 -54.41999999999999 Q109.0 -45.47999999999999 109.0 -35.22999999999999 Q109.0 -24.97999999999999 105.19 -16.10499999999999 Q101.375 -7.22999999999999 94.75 -0.6049999999999898 Q88.125 6.02000000000001 79.19 9.89500000000001 Q70.25 13.77000000000001 60.0 13.77000000000001 Z"/></g><g id="Ultralight-M" transform="matrix(1 0 0 1 506.415 1126)"><path d="M60.375 -1.2299999999999898  73.5 -14.35499999999999  60.5 -27.47999999999999  56.125 -23.22999999999999  62.0 -17.35499999999999 Q56.625 -17.97999999999999 52.809999999999995 -19.22999999999999 Q49.0 -20.47999999999999 47.125 -22.35499999999999 Q44.375 -25.10499999999999 43.065 -28.47999999999999 Q41.75 -31.85499999999999 41.75 -35.22999999999999 Q41.75 -37.22999999999999 42.25 -39.41999999999999 Q42.75 -41.60499999999999 43.75 -43.72999999999999 L39.25 -47.72999999999999 Q37.625 -44.35499999999999 36.69 -41.22999999999999 Q35.75 -38.10499999999999 35.75 -35.22999999999999 Q35.75 -30.47999999999999 37.440000000000005 -26.044999999999987 Q39.125 -21.60499999999999 42.75 -17.97999999999999 Q45.625 -14.97999999999999 50.940000000000005 -13.35499999999999 Q56.25 -11.72999999999999 61.875 -11.35499999999999 L56.125 -5.47999999999999 L60.375 -1.2299999999999898 Z M80.875 -22.72999999999999 Q82.5 -26.10499999999999 83.44 -29.22999999999999 Q84.375 -32.35499999999999 84.375 -35.22999999999999 Q84.375 -39.97999999999999 82.625 -44.35499999999999 Q80.875 -48.72999999999999 77.25 -52.35499999999999 Q74.375 -55.35499999999999 69.125 -57.044999999999995 Q63.875 -58.72999999999999 58.25 -59.22999999999999 L64.0 -64.97999999999999 L59.75 -69.22999999999999 L46.625 -56.10499999999999 L59.625 -42.97999999999999 L64.0 -47.22999999999999 L58.25 -52.97999999999999 Q63.75 -52.47999999999999 67.375 -51.29499999999999 Q71.0 -50.10499999999999 73.0 -48.10499999999999 Q75.75 -45.35499999999999 77.065 -41.97999999999999 Q78.375 -38.60499999999999 78.375 -35.22999999999999 Q78.375 -33.22999999999999 77.875 -31.044999999999987 Q77.375 -28.85499999999999 76.375 -26.72999999999999 L80.875 -22.72999999999999 Z M60.0 12.27000000000001 Q50.125 12.27000000000001 41.5 8.52000000000001 Q32.875 4.77000000000001 26.435 -1.6699999999999875 Q20.0 -8.10499999999999 16.25 -16.72999999999999 Q12.5 -25.35499999999999 12.5 -35.22999999999999 Q12.5 -45.10499999999999 16.25 -53.79499999999999 Q20.0 -62.47999999999999 26.435 -68.91999999999999 Q32.875 -75.35499999999999 41.5 -79.04499999999999 Q50.125 -82.72999999999999 60.0 -82.72999999999999 Q69.875 -82.72999999999999 78.565 -79.04499999999999 Q87.25 -75.35499999999999 93.69 -68.91999999999999 Q100.125 -62.47999999999999 103.81500000000001 -53.79499999999999 Q107.5 -45.10499999999999 107.5 -35.22999999999999 Q107.5 -25.35499999999999 103.81500000000001 -16.72999999999999 Q100.125 -8.10499999999999 93.69 -1.6699999999999875 Q87.25 4.77000000000001 78.565 8.52000000000001 Q69.875 12.27000000000001 60.0 12.27000000000001 Z"/></g><g id="Bold-S" transform="matrix(1 0 0 1 2294.23 696)"><path d="M46.74825 -7.024827999999999  58.384422 -18.660999999999994  46.947078 -30.297171999999996  41.914835999999994 -25.369077999999995  44.679492 -22.50500799999999 Q42.804828 -23.00207799999999 41.076918 -23.839995999999992 Q39.349008 -24.677913999999994 38.070828 -25.960827999999992 Q36.196163999999996 -27.736077999999992 35.258832000000005 -30.150417999999995 Q34.3215 -32.569492 34.3215 -35.22999999999999 Q34.3215 -36.61232799999999 34.615008 -38.23608999999999 Q34.91325 -39.86458599999999 35.703828 -41.44100799999999 L30.572172000000002 -46.373836 Q28.99575 -43.41508599999999 28.110491999999997 -40.655164 Q27.2205 -37.89050799999999 27.2205 -35.22999999999999 Q27.2205 -31.187163999999996 28.650167999999997 -27.489909999999995 Q30.079836 -23.787921999999995 33.038586 -20.92858599999999 Q35.604414 -18.367492 38.610504000000006 -17.032504000000003 Q41.621328 -15.702249999999992 45.072414 -15.40400799999999 L41.815422 -11.952922000000001 L46.74825 -7.024827999999999 Z M64.107828 -24.086163999999997 Q65.68425 -27.044914 66.569508 -29.75749599999999 Q67.4595 -32.470077999999994 67.4595 -35.22999999999999 Q67.4595 -39.27283599999999 65.883078 -42.875409999999995 Q64.301922 -46.47324999999999 61.442586 -49.431999999999995 Q58.976172 -51.89841399999999 55.870667999999995 -53.27600799999999 Q52.765164000000006 -54.65833599999999 49.413492000000005 -54.95657799999999 L52.864578 -58.50707799999999 L47.93175 -63.435171999999994 L36.295578 -51.79899999999999 L47.832336 -40.16282799999999 L52.864578 -45.09092199999999 L50.000507999999996 -47.95499199999999 Q52.173414 -47.55733599999999 53.650422 -46.766757999999996 Q55.132164 -45.98091399999999 56.609172 -44.499171999999994 Q58.483836 -42.723921999999995 59.421167999999994 -40.30958199999999 Q60.3585 -37.89050799999999 60.3585 -35.22999999999999 Q60.3585 -33.847671999999996 60.064992000000004 -32.22391 Q59.76675 -30.595413999999998 58.976172 -29.018991999999997 L64.107828 -24.086163999999997 Z M47.34 7.177171999999999 Q38.563164 7.177171999999999 30.81834 3.9249140000000153 Q23.07825 0.6679220000000043 17.260164 -5.150164000000004 Q11.442077999999999 -10.968249999999998 8.185086 -18.708339999999993 Q4.932828 -26.453163999999994 4.932828 -35.22999999999999 Q4.932828 -44.106249999999996 8.185086 -51.79899999999999 Q11.442077999999999 -59.491749999999996 17.260164 -65.30983599999999 Q23.07825 -71.127922 30.81834 -74.384914 Q38.563164 -77.63717199999999 47.34 -77.63717199999999 Q56.21625 -77.63717199999999 63.909 -74.384914 Q71.60175 -71.127922 77.41983599999999 -65.30983599999999 Q83.237922 -59.491749999999996 86.49491400000001 -51.79899999999999 Q89.74717199999999 -44.106249999999996 89.74717199999999 -35.22999999999999 Q89.74717199999999 -26.453163999999994 86.49491400000001 -18.708339999999993 Q83.237922 -10.968249999999998 77.41983599999999 -5.150164000000004 Q71.60175 0.6679220000000043 63.909 3.9249140000000153 Q56.21625 7.177171999999999 47.34 7.177171999999999 Z"/></g><g id="Semibold-S" transform="matrix(1 0 0 1 1998.1 696)"><path d="M46.74825 -7.119507999999996  58.285008 -18.660999999999994  46.947078 -30.202492  42.01425 -25.369077999999995  44.873585999999996 -22.410327999999993 Q42.899508 -22.902663999999994 41.128992000000004 -23.740581999999996 Q39.349008 -24.57849999999999 38.070828 -25.960827999999992 Q36.196163999999996 -27.736077999999992 35.211492 -30.150417999999995 Q34.222086 -32.569492 34.222086 -35.22999999999999 Q34.222086 -36.61232799999999 34.567668 -38.23608999999999 Q34.91325 -39.86458599999999 35.604414 -41.44100799999999 L30.572172000000002 -46.274421999999994 Q29.095164 -43.41508599999999 28.205172 -40.655164 Q27.319914 -37.89050799999999 27.319914 -35.22999999999999 Q27.319914 -31.187163999999996 28.749582 -27.489909999999995 Q30.17925 -23.787921999999995 33.038586 -20.92858599999999 Q35.604414 -18.367492 38.662577999999996 -17.032504000000003 Q41.716007999999995 -15.702249999999992 45.266507999999995 -15.40400799999999 L41.914835999999994 -11.952922000000001 L46.74825 -7.119507999999996 Z M64.107828 -24.185577999999992 Q65.584836 -27.044914 66.474828 -29.75749599999999 Q67.360086 -32.470077999999994 67.360086 -35.22999999999999 Q67.360086 -39.27283599999999 65.83100400000001 -42.875409999999995 Q64.301922 -46.47324999999999 61.442586 -49.431999999999995 Q58.976172 -51.89841399999999 55.823328 -53.27600799999999 Q52.66575 -54.65833599999999 49.214664000000006 -54.95657799999999 L52.765164000000006 -58.50707799999999 L47.93175 -63.34049199999999 L36.394992 -51.79899999999999 L47.832336 -40.25750799999999 L52.765164000000006 -45.09092199999999 L49.806414000000004 -48.049671999999994 Q52.074 -47.656749999999995 53.603082 -46.86617199999999 Q55.132164 -46.080327999999994 56.609172 -44.499171999999994 Q58.483836 -42.723921999999995 59.468508 -40.30958199999999 Q60.457914 -37.89050799999999 60.457914 -35.22999999999999 Q60.457914 -33.847671999999996 60.112332 -32.22391 Q59.76675 -30.595413999999998 59.075585999999994 -29.018991999999997 L64.107828 -24.185577999999992 Z M47.34 6.585421999999994 Q38.662577999999996 6.585421999999994 31.064508 3.3331640000000107 Q23.471172 0.07617199999999968 17.7525 -5.642499999999998 Q12.033828 -11.361171999999996 8.776836000000001 -18.95450799999999 Q5.524578 -26.55257799999999 5.524578 -35.22999999999999 Q5.524578 -44.00683599999999 8.776836000000001 -51.60017199999999 Q12.033828 -59.193507999999994 17.7525 -64.91691399999999 Q23.471172 -70.63558599999999 31.064508 -73.840504 Q38.662577999999996 -77.04542199999999 47.34 -77.04542199999999 Q56.116836 -77.04542199999999 63.710172 -73.840504 Q71.303508 -70.63558599999999 77.026914 -64.91691399999999 Q82.745586 -59.193507999999994 85.950504 -51.60017199999999 Q89.15542199999999 -44.00683599999999 89.15542199999999 -35.22999999999999 Q89.15542199999999 -26.55257799999999 85.950504 -18.95450799999999 Q82.745586 -11.361171999999996 77.026914 -5.642499999999998 Q71.303508 0.07617199999999968 63.710172 3.3331640000000107 Q56.116836 6.585421999999994 47.34 6.585421999999994 Z"/></g><g id="Medium-S" transform="matrix(1 0 0 1 1701.85 696)"><path d="M46.74825 -7.218921999999992  58.190328 -18.660999999999994  46.947078 -30.10307799999999  42.11366400000001 -25.369077999999995  44.973 -22.310913999999997 Q42.998922 -22.80324999999999 41.176332 -23.641167999999993 Q39.349008 -24.479085999999988 37.971414 -25.861413999999996 Q36.09675 -27.736077999999992 35.112078 -30.150417999999995 Q34.122672 -32.569492 34.122672 -35.22999999999999 Q34.122672 -36.70700799999999 34.468254 -38.23608999999999 Q34.813836 -39.76517199999999 35.505 -41.34632799999999 L30.671586 -46.17500799999999 Q29.194578 -43.31567199999999 28.304586 -40.603089999999995 Q27.419328 -37.89050799999999 27.419328 -35.22999999999999 Q27.419328 -31.187163999999996 28.848996 -27.537249999999993 Q30.278664 -23.88733599999999 33.138 -21.02799999999999 Q35.703828 -18.462171999999995 38.761992 -17.131917999999985 Q41.815422 -15.801664000000002 45.365922 -15.503422 L42.01425 -11.952922000000001 L46.74825 -7.218921999999992 Z M64.008414 -24.284991999999995 Q65.485422 -27.144327999999994 66.375414 -29.856909999999992 Q67.260672 -32.569492 67.260672 -35.22999999999999 Q67.260672 -39.27283599999999 65.73159 -42.875409999999995 Q64.202508 -46.47324999999999 61.343172 -49.33258599999999 Q58.881492 -51.79899999999999 55.723914 -53.18132799999999 Q52.56633599999999 -54.558921999999995 49.11525 -54.857164 L52.66575 -58.50707799999999 L47.93175 -63.24107799999999 L36.489672 -51.79899999999999 L47.832336 -40.356922 L52.66575 -45.09092199999999 L49.707 -48.149086 Q51.974585999999995 -47.75616399999999 53.551007999999996 -46.965585999999995 Q55.132164 -46.17500799999999 56.708586 -44.59858599999999 Q58.58325 -42.723921999999995 59.567922 -40.30958199999999 Q60.557328 -37.89050799999999 60.557328 -35.22999999999999 Q60.557328 -33.752992 60.211746 -32.22391 Q59.866164000000005 -30.694827999999994 59.175 -29.113671999999994 L64.008414 -24.284991999999995 Z M47.34 6.093086 Q38.761992 6.093086 31.263336 2.8881680000000074 Q23.769414 -0.316749999999999 18.098081999999998 -5.9880819999999915 Q12.42675 -11.659413999999998 9.221832 -19.15333599999999 Q6.016914 -26.651991999999993 6.016914 -35.22999999999999 Q6.016914 -43.907422 9.221832 -51.406077999999994 Q12.42675 -58.89999999999999 18.098081999999998 -64.571332 Q23.769414 -70.24266399999999 31.263336 -73.39550799999999 Q38.761992 -76.553086 47.34 -76.553086 Q56.017422 -76.553086 63.516078 -73.39550799999999 Q71.01 -70.24266399999999 76.681332 -64.571332 Q82.352664 -58.89999999999999 85.505508 -51.406077999999994 Q88.66308599999999 -43.907422 88.66308599999999 -35.22999999999999 Q88.66308599999999 -26.651991999999993 85.505508 -19.15333599999999 Q82.352664 -11.659413999999998 76.681332 -5.9880819999999915 Q71.01 -0.316749999999999 63.516078 2.8881680000000074 Q56.017422 6.093086 47.34 6.093086 Z"/></g><g id="Regular-S" transform="matrix(1 0 0 1 1405.73 696)"><path d="M46.74825 -7.218921999999992  58.190328 -18.660999999999994  46.947078 -30.10307799999999  42.11366400000001 -25.369077999999995  45.072414 -22.310913999999997 Q43.098335999999996 -22.80324999999999 41.223672 -23.641167999999993 Q39.349008 -24.479085999999988 37.971414 -25.861413999999996 Q36.09675 -27.736077999999992 35.112078 -30.150417999999995 Q34.122672 -32.569492 34.122672 -35.22999999999999 Q34.122672 -36.70700799999999 34.468254 -38.23608999999999 Q34.813836 -39.76517199999999 35.505 -41.34632799999999 L30.671586 -46.17500799999999 Q29.194578 -43.31567199999999 28.304586 -40.603089999999995 Q27.419328 -37.89050799999999 27.419328 -35.22999999999999 Q27.419328 -31.187163999999996 28.848996 -27.537249999999993 Q30.278664 -23.88733599999999 33.138 -21.02799999999999 Q35.703828 -18.462171999999995 38.809332000000005 -17.131917999999985 Q41.914835999999994 -15.801664000000002 45.46533599999999 -15.503422 L42.01425 -11.952922000000001 L46.74825 -7.218921999999992 Z M64.008414 -24.284991999999995 Q65.485422 -27.144327999999994 66.375414 -29.856909999999992 Q67.260672 -32.569492 67.260672 -35.22999999999999 Q67.260672 -39.27283599999999 65.73159 -42.875409999999995 Q64.202508 -46.47324999999999 61.343172 -49.33258599999999 Q58.881492 -51.79899999999999 55.671839999999996 -53.18132799999999 Q52.466922000000004 -54.558921999999995 49.01583599999999 -54.857164 L52.66575 -58.50707799999999 L47.93175 -63.24107799999999 L36.489672 -51.79899999999999 L47.832336 -40.356922 L52.66575 -45.09092199999999 L49.607586 -48.149086 Q51.875172 -47.75616399999999 53.503668 -46.965585999999995 Q55.132164 -46.17500799999999 56.708586 -44.59858599999999 Q58.58325 -42.723921999999995 59.567922 -40.30958199999999 Q60.557328 -37.89050799999999 60.557328 -35.22999999999999 Q60.557328 -33.752992 60.211746 -32.22391 Q59.866164000000005 -30.694827999999994 59.175 -29.113671999999994 L64.008414 -24.284991999999995 Z M47.34 5.799578000000011 Q38.856672 5.799578000000011 31.41009 2.5946600000000046 Q23.963508 -0.6149919999999867 18.34425 -6.234249999999989 Q12.724992 -11.85350799999999 9.515339999999998 -19.30008999999999 Q6.310422 -26.746671999999997 6.310422 -35.22999999999999 Q6.310422 -43.808007999999994 9.515339999999998 -51.25458999999999 Q12.724992 -58.70117199999999 18.34425 -64.325164 Q23.963508 -69.94442199999999 31.41009 -73.10199999999999 Q38.856672 -76.25957799999999 47.34 -76.25957799999999 Q55.918008 -76.25957799999999 63.36459 -73.10199999999999 Q70.811172 -69.94442199999999 76.435164 -64.325164 Q82.05442199999999 -58.70117199999999 85.212 -51.25458999999999 Q88.369578 -43.808007999999994 88.369578 -35.22999999999999 Q88.369578 -26.746671999999997 85.212 -19.30008999999999 Q82.05442199999999 -11.85350799999999 76.435164 -6.234249999999989 Q70.811172 -0.6149919999999867 63.36459 2.5946600000000046 Q55.918008 5.799578000000011 47.34 5.799578000000011 Z"/></g><g id="Light-S" transform="matrix(1 0 0 1 1109.75 696)"><path d="M46.74825 -8.009499999999989  57.39975 -18.660999999999994  46.947078 -29.312499999999993  42.998922 -25.369077999999995  46.549422 -21.719164 Q43.690085999999994 -22.211499999999994 41.323085999999996 -23.101491999999993 Q38.956086 -23.986749999999994 37.578492 -25.468491999999998 Q35.604414 -27.43783599999999 34.567668 -29.95158999999999 Q33.530922000000004 -32.470077999999994 33.530922000000004 -35.22999999999999 Q33.530922000000004 -36.70700799999999 33.829164 -38.23608999999999 Q34.122672 -39.76517199999999 34.813836 -41.34632799999999 L30.771 -45.190335999999995 Q29.5875 -42.529827999999995 28.796922000000002 -40.063413999999995 Q28.011077999999998 -37.596999999999994 28.011077999999998 -35.22999999999999 Q28.011077999999998 -31.28657799999999 29.388672 -27.736077999999992 Q30.771 -24.185577999999992 33.530922000000004 -21.420921999999997 Q35.997336 -18.95450799999999 39.500496 -17.676327999999998 Q42.998922 -16.393413999999993 46.947078 -16.194585999999987 L42.899508 -11.952922000000001 L46.74825 -8.009499999999989 Z M63.909 -25.269664 Q65.191914 -27.930171999999992 65.930418 -30.396585999999992 Q66.668922 -32.86299999999999 66.668922 -35.22999999999999 Q66.668922 -39.173421999999995 65.191914 -42.62450799999999 Q63.710172 -46.080327999999994 60.95025 -48.84024999999999 Q58.58325 -51.306664 54.98541 -52.636917999999994 Q51.382836 -53.96717199999999 47.538828 -54.26541399999999 L51.875172 -58.50707799999999 L47.93175 -62.45049999999999 L37.379664 -51.79899999999999 L47.832336 -41.147499999999994 L51.875172 -45.09092199999999 L48.229992 -48.740835999999994 Q51.382836 -48.347913999999996 53.456328 -47.509995999999994 Q55.525085999999995 -46.67207799999999 57.200922 -44.991507999999996 Q59.175 -43.022164 60.211746 -40.50841 Q61.248492000000006 -37.98992199999999 61.248492000000006 -35.22999999999999 Q61.248492000000006 -33.752992 60.90291 -32.22391 Q60.557328 -30.694827999999994 59.965578 -29.113671999999994 L63.909 -25.269664 Z M47.34 3.8255000000000052 Q39.254328 3.8255000000000052 32.153328 0.7673360000000002 Q25.052328 -2.2908280000000047 19.726578 -7.61657799999999 Q14.400827999999999 -12.94232799999999 11.342664 -20.043327999999995 Q8.2845 -27.144327999999994 8.2845 -35.22999999999999 Q8.2845 -43.41508599999999 11.342664 -50.516085999999994 Q14.400827999999999 -57.61708599999999 19.726578 -62.94283599999999 Q25.052328 -68.268586 32.153328 -71.27941 Q39.254328 -74.2855 47.34 -74.2855 Q55.525085999999995 -74.2855 62.626085999999994 -71.27941 Q69.727086 -68.268586 75.052836 -62.94283599999999 Q80.378586 -57.61708599999999 83.38941 -50.516085999999994 Q86.3955 -43.41508599999999 86.3955 -35.22999999999999 Q86.3955 -27.144327999999994 83.38941 -20.043327999999995 Q80.378586 -12.94232799999999 75.052836 -7.61657799999999 Q69.727086 -2.2908280000000047 62.626085999999994 0.7673360000000002 Q55.525085999999995 3.8255000000000052 47.34 3.8255000000000052 Z"/></g><g id="Thin-S" transform="matrix(1 0 0 1 814.015 696)"><path d="M46.847664 -8.899491999999995  56.514492000000004 -18.660999999999994  47.046492 -28.422507999999993  43.88891400000001 -25.369077999999995  48.031164000000004 -21.127413999999995 Q44.281836 -21.619749999999996 41.4225 -22.604421999999992 Q38.563164 -23.593827999999995 37.180836 -25.070835999999993 Q35.012664 -27.144327999999994 33.975918 -29.75749599999999 Q32.939172 -32.370664 32.939172 -35.329414 Q32.939172 -36.80642199999999 33.18534 -38.33550399999999 Q33.431508 -39.86458599999999 34.027992 -41.34632799999999 L30.870414 -44.205664 Q29.980422 -41.73924999999999 29.293992 -39.519003999999995 Q28.602828 -37.303492 28.602828 -35.22999999999999 Q28.602828 -31.385991999999995 29.933082000000002 -27.98224599999999 Q31.263336 -24.57849999999999 33.928578 -21.818577999999995 Q36.295578 -19.45157799999999 40.19166 -18.216003999999998 Q44.083008 -16.985163999999997 48.5235 -16.78633599999999 L43.7895 -11.952922000000001 L46.847664 -8.899491999999995 Z M63.809585999999996 -26.254335999999988 Q64.798992 -28.720749999999995 65.43808200000001 -30.94099599999999 Q66.077172 -33.15650799999999 66.077172 -35.22999999999999 Q66.077172 -39.07400799999999 64.647504 -42.430414 Q63.217836 -45.78208599999999 60.557328 -48.44732799999999 Q58.285008 -50.71491399999999 54.294245999999994 -52.04516799999999 Q50.29875 -53.37542199999999 46.057086 -53.67366399999999 L50.989914000000006 -58.50707799999999 L47.93175 -61.560508 L38.264922 -51.79899999999999 L47.832336 -42.03749199999999 L50.989914000000006 -45.09092199999999 L46.847664 -49.33258599999999 Q50.989914000000006 -48.93966399999999 53.456328 -48.049671999999994 Q55.918008 -47.164413999999994 57.598577999999996 -45.389163999999994 Q59.667336 -43.31567199999999 60.751422 -40.702504 Q61.835508 -38.08933599999999 61.835508 -35.13058599999999 Q61.835508 -33.653577999999996 61.58934 -32.12449599999999 Q61.343172 -30.595413999999998 60.652007999999995 -29.113671999999994 L63.809585999999996 -26.254335999999988 Z M47.34 1.8514219999999995 Q39.64725 1.8514219999999995 32.939172 -1.0552539999999908 Q26.235827999999998 -3.9666639999999944 21.156246000000003 -9.046245999999996 Q16.076664 -14.125827999999998 13.165254000000001 -20.829171999999993 Q10.258578 -27.537249999999993 10.258578 -35.22999999999999 Q10.258578 -43.022164 13.165254000000001 -49.725508 Q16.076664 -56.43358599999999 21.156246000000003 -61.51316799999999 Q26.235827999999998 -66.59275 32.939172 -69.452086 Q39.64725 -72.311422 47.34 -72.311422 Q55.132164 -72.311422 61.835508 -69.452086 Q68.54358599999999 -66.59275 73.62316799999999 -61.51316799999999 Q78.70275 -56.43358599999999 81.562086 -49.725508 Q84.42142199999999 -43.022164 84.42142199999999 -35.22999999999999 Q84.42142199999999 -27.537249999999993 81.562086 -20.829171999999993 Q78.70275 -14.125827999999998 73.62316799999999 -9.046245999999996 Q68.54358599999999 -3.9666639999999944 61.835508 -1.0552539999999908 Q55.132164 1.8514219999999995 47.34 1.8514219999999995 Z"/></g><g id="Ultralight-S" transform="matrix(1 0 0 1 517.792 696)"><path d="M46.847664 -9.39182799999999  56.017422 -18.660999999999994  47.046492 -27.930171999999992  44.38125 -25.369077999999995  48.916422 -20.734491999999996 Q44.580078 -21.321507999999987 41.46984 -22.310913999999997 Q38.364335999999994 -23.295585999999993 36.887328 -24.77732799999999 Q34.714422 -26.945499999999996 33.630336 -29.658081999999993 Q32.54625 -32.370664 32.54625 -35.329414 Q32.54625 -36.80642199999999 32.792418 -38.33550399999999 Q33.038586 -39.86458599999999 33.630336 -41.34632799999999 L30.969828 -43.613913999999994 Q30.17925 -41.246914 29.5875 -39.22549599999999 Q28.99575 -37.204077999999996 28.99575 -35.22999999999999 Q28.99575 -31.48067199999999 30.278664 -28.12899999999999 Q31.561578 -24.77732799999999 34.222086 -22.11208599999999 Q36.489672 -19.745085999999986 40.631922 -18.56158599999999 Q44.774172 -17.378085999999996 49.413492000000005 -17.18399199999999 L44.281836 -11.952922000000001 L46.847664 -9.39182799999999 Z M63.809585999999996 -26.846085999999993 Q64.600164 -29.21308599999999 65.191914 -31.234503999999994 Q65.783664 -33.25592199999999 65.783664 -35.22999999999999 Q65.783664 -38.979327999999995 64.353996 -42.23158599999999 Q62.924327999999996 -45.48857799999999 60.259085999999996 -48.149086 Q58.090914000000005 -50.41667199999999 53.896589999999996 -51.699586 Q49.707 -52.982499999999995 45.171828 -53.27600799999999 L50.497578 -58.50707799999999 L47.93175 -61.06817199999999 L38.761992 -51.79899999999999 L47.832336 -42.529827999999995 L50.497578 -45.09092199999999 L45.957672 -49.630827999999994 Q50.691672000000004 -49.233171999999996 53.404254 -48.347913999999996 Q56.116836 -47.457921999999996 57.892086 -45.682672 Q60.064992000000004 -43.51449999999999 61.149077999999996 -40.80191799999999 Q62.233164 -38.08933599999999 62.233164 -35.13058599999999 Q62.233164 -33.653577999999996 61.986996 -32.12449599999999 Q61.740828 -30.595413999999998 61.149077999999996 -29.113671999999994 L63.809585999999996 -26.846085999999993 Z M47.34 0.6679220000000043 Q39.945492 0.6679220000000043 33.431508 -2.1393400000000042 Q26.926992 -4.9513359999999835 21.994163999999998 -9.884163999999998 Q17.061336 -14.816991999999999 14.249339999999998 -21.321507999999987 Q11.442077999999999 -27.835491999999995 11.442077999999999 -35.22999999999999 Q11.442077999999999 -42.723921999999995 14.249339999999998 -49.233171999999996 Q17.061336 -55.74242199999999 21.994163999999998 -60.67524999999999 Q26.926992 -65.60807799999999 33.431508 -68.368 Q39.945492 -71.127922 47.34 -71.127922 Q54.833922 -71.127922 61.343172 -68.368 Q67.852422 -65.60807799999999 72.78525 -60.67524999999999 Q77.718078 -55.74242199999999 80.478 -49.233171999999996 Q83.237922 -42.723921999999995 83.237922 -35.22999999999999 Q83.237922 -27.835491999999995 80.478 -21.321507999999987 Q77.718078 -14.816991999999999 72.78525 -9.884163999999998 Q67.852422 -4.9513359999999835 61.343172 -2.1393400000000042 Q54.833922 0.6679220000000043 47.34 0.6679220000000043 Z"/></g></g></svg>