<svg xmlns="http://www.w3.org/2000/svg" height="40" width="40"><path d="M9.5 32.833Q8.542 32.833 7.854 32.146Q7.167 31.458 7.167 30.5V20Q7.167 17.333 8.167 15Q9.167 12.667 10.917 10.917Q12.667 9.167 15 8.167Q17.333 7.167 20 7.167Q22.667 7.167 25 8.167Q27.333 9.167 29.083 10.917Q30.833 12.667 31.833 15Q32.833 17.333 32.833 20V30.5Q32.833 31.458 32.146 32.146Q31.458 32.833 30.5 32.833H29.625Q28.625 32.833 27.958 32.146Q27.292 31.458 27.292 30.5V26.042Q27.292 25.083 27.958 24.396Q28.625 23.708 29.625 23.708H31.833V20Q31.833 15.042 28.396 11.604Q24.958 8.167 20 8.167Q15.042 8.167 11.604 11.604Q8.167 15.042 8.167 20V23.708H10.375Q11.375 23.708 12.042 24.396Q12.708 25.083 12.708 26.042V30.5Q12.708 31.458 12.042 32.146Q11.375 32.833 10.375 32.833ZM9.5 31.833H10.375Q10.958 31.833 11.333 31.458Q11.708 31.083 11.708 30.5V26.042Q11.708 25.458 11.333 25.083Q10.958 24.708 10.375 24.708H8.167V30.5Q8.167 31.083 8.542 31.458Q8.917 31.833 9.5 31.833ZM29.625 31.833H30.5Q31.083 31.833 31.458 31.458Q31.833 31.083 31.833 30.5V24.708H29.625Q29.042 24.708 28.667 25.083Q28.292 25.458 28.292 26.042V30.5Q28.292 31.083 28.667 31.458Q29.042 31.833 29.625 31.833ZM9.5 31.833Q8.917 31.833 8.542 31.833Q8.167 31.833 8.167 31.833H10.375Q10.958 31.833 11.333 31.833Q11.708 31.833 11.708 31.833Q11.708 31.833 11.333 31.833Q10.958 31.833 10.375 31.833ZM29.625 31.833Q29.042 31.833 28.667 31.833Q28.292 31.833 28.292 31.833Q28.292 31.833 28.667 31.833Q29.042 31.833 29.625 31.833H31.833Q31.833 31.833 31.458 31.833Q31.083 31.833 30.5 31.833Z"/></svg>