<svg xmlns="http://www.w3.org/2000/svg" height="20" width="20"><path d="M4.312 17.646q-.833 0-1.406-.573t-.573-1.406V10q0-1.583.605-2.99.604-1.406 1.635-2.437Q5.604 3.542 7.01 2.938q1.407-.605 2.99-.605 1.583 0 2.99.605 1.406.604 2.437 1.635 1.031 1.031 1.635 2.437.605 1.407.605 2.99v5.667q0 .833-.584 1.406-.583.573-1.395.573h-1.605q-.812 0-1.395-.573-.584-.573-.584-1.406v-3.105q0-.833.584-1.406.583-.573 1.395-.573h1.605V10q0-2.375-1.657-4.031Q12.375 4.312 10 4.312T5.969 5.969Q4.312 7.625 4.312 10v.583h1.605q.812 0 1.395.573.584.573.584 1.406v3.105q0 .833-.584 1.406-.583.573-1.395.573Z"/></svg>