<svg xmlns="http://www.w3.org/2000/svg" version="1.1" width="3300" height="2000"><g id="Notes"><style>
    text {
      font-family: monospace;
      text-anchor: middle;
    }
    text.emphasis {
      font-weight:bold;
    }
    text.lanchor {
      text-anchor: start;
    }
  </style><rect height="2200" id="artboard" fill="white" width="3300" x="0" y="0"/><line id="" style="fill:none;stroke:black;stroke-width:0.5;" x1="263" x2="3036" y1="292" y2="292"/><text class="lanchor emphasis" transform="matrix(1 0 0 1 263 322)">Weight/Scale Variations</text><text transform="matrix(1 0 0 1 559.711 322)">Ultralight</text><text transform="matrix(1 0 0 1 856.422 322)">Thin</text><text transform="matrix(1 0 0 1 1153.13 322)">Light</text><text transform="matrix(1 0 0 1 1449.84 322)">Regular</text><text transform="matrix(1 0 0 1 1746.56 322)">Medium</text><text transform="matrix(1 0 0 1 2043.27 322)">Semibold</text><text transform="matrix(1 0 0 1 2339.98 322)">Bold</text><text transform="matrix(1 0 0 1 2636.69 322)">Heavy</text><text transform="matrix(1 0 0 1 2933.4 322)">Black</text><text id="template-version" style="text-anchor: end;" transform="matrix(1 0 0 1 3036 1933)">Template v.1.0</text><text class="lanchor" transform="matrix(1 0 0 1 263 726)">Small</text><text class="lanchor" transform="matrix(1 0 0 1 263 1156)">Medium</text><text class="lanchor" transform="matrix(1 0 0 1 263 1586)">Large</text></g><g id="Guides"><g id="H-reference" style="fill:#27AAE1;stroke:none;" transform="matrix(1 0 0 1 339 696)"><path d="M 54.9316 0 L 57.666 0 L 30.5664 -70.459 L 28.0762 -70.459 L 0.976562 0 L 3.66211 0 L 12.9395 -24.4629 L 45.7031 -24.4629 Z M 29.1992 -67.0898 L 29.4434 -67.0898 L 44.8242 -26.709 L 13.8184 -26.709 Z"/></g><line id="Baseline-S" style="fill:none;stroke:#27AAE1;opacity:1;stroke-width:0.577;" x1="263" x2="3036" y1="696" y2="696"/><line id="Capline-S" style="fill:none;stroke:#27AAE1;opacity:1;stroke-width:0.577;" x1="263" x2="3036" y1="625.541" y2="625.541"/><g id="H-reference" style="fill:#27AAE1;stroke:none;" transform="matrix(1 0 0 1 339 1126)"><path d="M 54.9316 0 L 57.666 0 L 30.5664 -70.459 L 28.0762 -70.459 L 0.976562 0 L 3.66211 0 L 12.9395 -24.4629 L 45.7031 -24.4629 Z M 29.1992 -67.0898 L 29.4434 -67.0898 L 44.8242 -26.709 L 13.8184 -26.709 Z"/></g><line id="Baseline-M" style="fill:none;stroke:#27AAE1;opacity:1;stroke-width:0.577;" x1="263" x2="3036" y1="1126" y2="1126"/><line id="Capline-M" style="fill:none;stroke:#27AAE1;opacity:1;stroke-width:0.577;" x1="263" x2="3036" y1="1055.54" y2="1055.54"/><g id="H-reference" style="fill:#27AAE1;stroke:none;" transform="matrix(1 0 0 1 339 1556)"><path d="M 54.9316 0 L 57.666 0 L 30.5664 -70.459 L 28.0762 -70.459 L 0.976562 0 L 3.66211 0 L 12.9395 -24.4629 L 45.7031 -24.4629 Z M 29.1992 -67.0898 L 29.4434 -67.0898 L 44.8242 -26.709 L 13.8184 -26.709 Z"/></g><line id="Baseline-L" style="fill:none;stroke:#27AAE1;opacity:1;stroke-width:0.577;" x1="263" x2="3036" y1="1556" y2="1556"/><line id="Capline-L" style="fill:none;stroke:#27AAE1;opacity:1;stroke-width:0.577;" x1="263" x2="3036" y1="1485.54" y2="1485.54"/><rect height="119.336" id="left-margin" style="fill:darkred;stroke:none;opacity:0.4;" width="12.4512" x="1394.06" y="1030.79"/><rect height="119.336" id="right-margin" style="fill:darkgreen;stroke:none;opacity:0.4;" width="12.4512" x="1502.5112" y="1030.79"/><rect x="1406.5112" y="1045" width="96" height="96" fill="none" stroke="blue" stroke-dasharray="5"/><rect x="1394.06" y="1030.79" width="120.9024" height="119.336" fill="none" stroke="blue"/></g><g id="Symbols"><g id="Bold-L" transform="matrix(1 0 0 1 2266 1556)"><path d="M114.004 12.016 H119.97 V6.05 H114.004 V12.016 Z M114.004 -5.721 H119.97 V-11.687 H114.004 V-5.721 Z M131.741 12.016 H137.708 V6.05 H131.741 V12.016 Z M109.914 26.206 Q106.673 26.206 104.453 23.986 Q102.233 21.765 102.233 18.524 V-13.139 Q102.233 -16.404 104.471 -18.642 Q106.707 -20.879 109.972 -20.879 H124.001 Q127.267 -20.879 129.505 -18.642 Q131.741 -16.404 131.741 -13.139 V-3.141 H141.739 Q145.004 -3.141 147.242 -0.905 Q149.479 1.333 149.479 4.599 V18.466 Q149.479 21.732 147.242 23.968 Q145.004 26.206 141.739 26.206 H109.914 Z M77.374 27.496 Q75.949 27.496 74.417 26.851 Q72.885 26.206 71.906 24.966 L10.643 -43.131 Q8.869 -45.227 7.821 -47.969 Q6.772 -50.71 6.772 -53.451 Q6.772 -56.354 8.067 -59.34 Q9.364 -62.326 11.933 -64.577 Q26.123 -75.542 42.731 -81.992 Q59.34 -88.442 77.405 -88.442 Q96.115 -88.442 112.88 -81.831 Q129.645 -75.22 143.996 -63.61 Q146.576 -61.675 147.705 -59.135 Q148.834 -56.596 148.834 -53.733 Q148.834 -51.355 147.947 -48.936 Q147.06 -46.517 145.286 -44.421 L135.611 -34.746 Q134.531 -33.416 132.975 -33.114 Q131.419 -32.811 130.129 -33.134 Q126.097 -33.779 122.469 -33.456 Q118.841 -33.134 115.133 -32.166 Q103.669 -29.102 96.016 -20.637 Q88.365 -12.171 87.075 -0.239 Q86.591 3.846 86.672 7.635 Q86.752 11.424 88.365 14.919 Q88.688 16.37 88.636 17.884 Q88.584 19.398 87.559 20.563 L83.205 24.916 Q81.947 26.206 80.373 26.851 Q78.798 27.496 77.374 27.496 Z"/></g><g id="Semibold-L" transform="matrix(1 0 0 1 1970.27 1556)"><path d="M113.863 12.157 H120.039 V5.981 H113.863 V12.157 Z M113.863 -5.581 H120.039 V-11.757 H113.863 V-5.581 Z M131.601 12.157 H137.777 V5.981 H131.601 V12.157 Z M109.589 25.856 Q106.519 25.856 104.411 23.747 Q102.302 21.64 102.302 18.569 V-13.84 Q102.302 -16.894 104.421 -18.992 Q106.538 -21.088 109.623 -21.088 H124.351 Q127.407 -21.088 129.505 -18.992 Q131.601 -16.894 131.601 -13.84 V-3.351 H142.089 Q145.144 -3.351 147.242 -1.255 Q149.338 0.843 149.338 3.897 V18.536 Q149.338 21.62 147.242 23.738 Q145.144 25.856 142.089 25.856 H109.589 Z M77.39 25.323 Q75.879 25.323 74.312 24.713 Q72.745 24.104 71.63 22.772 L8.54 -44.113 Q6.766 -46.069 5.752 -48.67 Q4.739 -51.271 4.739 -53.872 Q4.739 -56.634 5.928 -59.374 Q7.116 -62.114 9.478 -64.157 Q24.16 -75.612 41.364 -82.202 Q58.569 -88.792 77.403 -88.792 Q96.602 -88.792 113.894 -82.112 Q131.187 -75.43 145.959 -63.61 Q148.398 -61.744 149.493 -59.293 Q150.587 -56.841 150.587 -54.101 Q150.587 -51.705 149.664 -49.286 Q148.742 -46.867 146.899 -44.842 L136.522 -34.466 Q135.424 -33.193 133.983 -32.968 Q132.541 -32.742 131.251 -33.134 Q127.85 -33.779 124.712 -33.701 Q121.576 -33.624 118.287 -33.077 Q105.632 -31.136 96.963 -22.04 Q88.296 -12.942 87.425 -0.029 Q87.152 3.496 87.269 6.748 Q87.383 9.999 88.646 13.026 Q88.968 14.477 88.868 15.894 Q88.77 17.31 87.768 18.389 L83.415 22.743 Q82.088 24.104 80.494 24.713 Q78.901 25.323 77.39 25.323 Z"/></g><g id="Medium-L" transform="matrix(1 0 0 1 1674.31 1556)"><path d="M113.759 12.261 H120.093 V5.927 H113.759 V12.261 Z M113.759 -5.476 H120.093 V-11.81 H113.759 V-5.476 Z M131.496 12.261 H137.83 V5.927 H131.496 V12.261 Z M109.345 25.594 Q106.402 25.594 104.379 23.57 Q102.355 21.546 102.355 18.603 V-14.366 Q102.355 -17.264 104.384 -19.255 Q106.41 -21.246 109.36 -21.246 H124.614 Q127.512 -21.246 129.505 -19.255 Q131.496 -17.264 131.496 -14.366 V-3.509 H142.351 Q145.249 -3.509 147.242 -1.517 Q149.234 0.474 149.234 3.372 V18.589 Q149.234 21.538 147.242 23.565 Q145.249 25.594 142.351 25.594 H109.345 Z M77.403 23.692 Q75.826 23.692 74.233 23.109 Q72.64 22.525 71.424 21.125 L6.961 -44.849 Q5.187 -46.7 4.201 -49.196 Q3.214 -51.692 3.214 -54.188 Q3.214 -56.844 4.322 -59.4 Q5.429 -61.954 7.638 -63.841 Q22.688 -75.665 40.338 -82.36 Q57.99 -89.055 77.402 -89.055 Q96.966 -89.055 114.655 -82.321 Q132.344 -75.588 147.431 -63.61 Q149.766 -61.798 150.833 -59.411 Q151.901 -57.025 151.901 -54.377 Q151.901 -51.968 150.953 -49.549 Q150.004 -47.13 148.108 -45.158 L137.206 -34.256 Q136.093 -33.027 134.737 -32.858 Q133.381 -32.689 132.091 -33.134 Q129.164 -33.779 126.396 -33.885 Q123.626 -33.993 120.654 -33.761 Q107.104 -32.661 97.674 -23.091 Q88.242 -13.521 87.688 0.129 Q87.573 3.233 87.715 6.082 Q87.857 8.93 88.855 11.607 Q89.178 13.058 89.044 14.401 Q88.908 15.744 87.926 16.759 L83.573 21.112 Q82.192 22.525 80.585 23.109 Q78.979 23.692 77.403 23.692 Z"/></g><g id="Regular-L" transform="matrix(1 0 0 1 1378.56 1556)"><path d="M113.681 12.339 H120.131 V5.889 H113.681 V12.339 Z M113.681 -5.399 H120.131 V-11.849 H113.681 V-5.399 Z M131.419 12.339 H137.869 V5.889 H131.419 V12.339 Z M109.166 25.4 Q106.317 25.4 104.356 23.438 Q102.394 21.477 102.394 18.628 V-14.751 Q102.394 -17.533 104.356 -19.448 Q106.317 -21.362 109.166 -21.362 H124.808 Q127.589 -21.362 129.505 -19.448 Q131.419 -17.533 131.419 -14.751 V-3.625 H142.545 Q145.327 -3.625 147.242 -1.711 Q149.156 0.205 149.156 2.986 V18.628 Q149.156 21.477 147.242 23.438 Q145.327 25.4 142.545 25.4 H109.166 Z M77.411 22.498 Q75.788 22.498 74.175 21.933 Q72.562 21.369 71.273 19.918 L5.805 -45.389 Q4.031 -47.162 3.064 -49.581 Q2.096 -52 2.096 -54.419 Q2.096 -56.999 3.144 -59.417 Q4.192 -61.836 6.289 -63.61 Q21.608 -75.704 39.587 -82.476 Q57.566 -89.249 77.4 -89.249 Q97.234 -89.249 115.213 -82.476 Q133.192 -75.704 148.511 -63.61 Q150.769 -61.836 151.817 -59.498 Q152.865 -57.16 152.865 -54.58 Q152.865 -52.161 151.898 -49.742 Q150.93 -47.324 148.995 -45.389 L137.708 -34.101 Q136.585 -32.905 135.292 -32.777 Q133.999 -32.65 132.709 -33.134 Q130.129 -33.779 127.629 -34.021 Q125.13 -34.262 122.389 -34.262 Q108.184 -33.779 98.193 -23.862 Q88.204 -13.945 87.881 0.245 Q87.881 3.039 88.043 5.594 Q88.204 8.146 89.01 10.565 Q89.332 12.016 89.171 13.306 Q89.01 14.596 88.043 15.564 L83.689 19.918 Q82.27 21.369 80.652 21.933 Q79.035 22.498 77.411 22.498 Z"/></g><g id="Light-L" transform="matrix(1 0 0 1 1082.77 1556)"><path d="M111.448 9.548 H119.573 V1.424 H111.448 V9.548 Z M111.448 -7.88 H119.573 V-16.004 H111.448 V-7.88 Z M128.876 9.548 H137 V1.424 H128.876 V9.548 Z M107.739 20.624 Q105.356 20.624 103.751 19.019 Q102.145 17.413 102.145 15.03 V-18.163 Q102.145 -20.418 103.751 -21.975 Q105.356 -23.533 107.739 -23.533 H123.505 Q125.759 -23.533 127.318 -21.975 Q128.876 -20.418 128.876 -18.163 V-6.107 H140.933 Q143.187 -6.107 144.744 -4.547 Q146.304 -2.99 146.304 -0.735 V15.03 Q146.304 17.413 144.744 19.019 Q143.187 20.624 140.933 20.624 H107.739 Z M77.411 18.094 Q75.849 18.094 74.33 17.56 Q72.811 17.026 71.663 15.719 L10.27 -45.574 Q8.559 -47.224 7.622 -49.551 Q6.685 -51.876 6.685 -54.233 Q6.685 -56.75 7.767 -59.103 Q8.848 -61.456 10.941 -63.238 Q25.453 -74.028 42.244 -80.027 Q59.034 -86.024 77.39 -86.024 Q95.745 -86.024 112.546 -80.027 Q129.347 -74.028 143.843 -63.254 Q146.117 -61.527 147.228 -59.219 Q148.337 -56.912 148.337 -54.395 Q148.337 -52.037 147.37 -49.712 Q146.402 -47.385 144.591 -45.574 L136.592 -37.575 Q135.473 -36.364 134.239 -36.243 Q133.007 -36.123 131.778 -36.607 Q129.26 -37.191 126.833 -37.463 Q124.406 -37.736 121.707 -37.736 Q107.093 -37.313 96.873 -27.137 Q86.653 -16.959 86.393 -2.422 Q86.393 0.332 86.585 2.812 Q86.777 5.294 87.522 7.65 Q87.781 9.04 87.62 10.297 Q87.459 11.557 86.554 12.463 L83.316 15.699 Q82.021 17.026 80.498 17.56 Q78.974 18.094 77.411 18.094 Z"/></g><g id="Thin-L" transform="matrix(1 0 0 1 787.282 1556)"><path d="M109.216 6.756 H119.015 V-3.041 H109.216 V6.756 Z M109.216 -10.36 H119.015 V-20.16 H109.216 V-10.36 Z M126.333 6.756 H136.132 V-3.041 H126.333 V6.756 Z M106.314 15.849 Q104.395 15.849 103.147 14.601 Q101.897 13.351 101.897 11.433 V-21.574 Q101.897 -23.301 103.147 -24.502 Q104.395 -25.703 106.314 -25.703 H122.203 Q123.93 -25.703 125.132 -24.502 Q126.333 -23.301 126.333 -21.574 V-8.587 H139.32 Q141.047 -8.587 142.248 -7.385 Q143.451 -6.184 143.451 -4.455 V11.433 Q143.451 13.351 142.248 14.601 Q141.047 15.849 139.32 15.849 H106.314 Z M77.411 13.69 Q75.912 13.69 74.485 13.189 Q73.059 12.685 72.053 11.52 L14.735 -45.761 Q13.085 -47.287 12.181 -49.52 Q11.275 -51.752 11.275 -54.046 Q11.275 -56.502 12.389 -58.789 Q13.505 -61.075 15.591 -62.865 Q29.298 -72.355 44.9 -77.577 Q60.503 -82.799 77.379 -82.799 Q94.257 -82.799 109.879 -77.577 Q125.502 -72.355 139.176 -62.897 Q141.466 -61.215 142.639 -58.94 Q143.811 -56.663 143.811 -54.208 Q143.811 -51.913 142.843 -49.681 Q141.876 -47.448 140.188 -45.761 L135.474 -41.048 Q134.362 -39.821 133.188 -39.708 Q132.014 -39.597 130.848 -40.08 Q128.392 -40.601 126.038 -40.904 Q123.684 -41.209 121.025 -41.209 Q106.001 -40.85 95.552 -30.41 Q85.103 -19.973 84.905 -5.089 Q84.905 -2.377 85.127 0.032 Q85.351 2.441 86.033 4.736 Q86.232 6.063 86.07 7.29 Q85.909 8.519 85.066 9.362 L82.944 11.483 Q81.773 12.685 80.343 13.189 Q78.911 13.69 77.411 13.69 Z"/></g><g id="Ultralight-L" transform="matrix(1 0 0 1 491.205 1556)"><path d="M107.876 5.083 H118.68 V-5.721 H107.876 V5.083 Z M107.876 -11.849 H118.68 V-22.652 H107.876 V-11.849 Z M124.808 5.083 H135.611 V-5.721 H124.808 V5.083 Z M105.457 12.984 Q103.818 12.984 102.784 11.949 Q101.749 10.915 101.749 9.275 V-23.62 Q101.749 -25.031 102.784 -26.019 Q103.818 -27.006 105.457 -27.006 H121.421 Q122.832 -27.006 123.821 -26.019 Q124.808 -25.031 124.808 -23.62 V-10.075 H138.352 Q139.763 -10.075 140.752 -9.088 Q141.739 -8.1 141.739 -6.689 V9.275 Q141.739 10.915 140.752 11.949 Q139.763 12.984 138.352 12.984 H105.457 Z M77.411 11.049 Q75.949 11.049 74.578 10.565 Q73.207 10.081 72.288 9.001 L17.415 -45.872 Q15.803 -47.324 14.916 -49.501 Q14.029 -51.677 14.029 -53.935 Q14.029 -56.354 15.162 -58.6 Q16.298 -60.848 18.383 -62.642 Q31.605 -71.35 46.493 -76.107 Q61.383 -80.864 77.373 -80.864 Q93.364 -80.864 108.279 -76.107 Q123.195 -71.35 136.377 -62.683 Q138.675 -61.03 139.884 -58.772 Q141.094 -56.515 141.094 -54.096 Q141.094 -51.839 140.126 -49.662 Q139.159 -47.485 137.546 -45.872 L134.805 -43.131 Q133.694 -41.894 132.557 -41.788 Q131.419 -41.68 130.29 -42.164 Q127.871 -42.647 125.561 -42.97 Q123.248 -43.292 120.615 -43.292 Q105.346 -42.97 94.76 -32.376 Q84.172 -21.782 84.011 -6.689 Q84.011 -4.001 84.253 -1.637 Q84.495 0.729 85.14 2.986 Q85.301 4.276 85.14 5.486 Q84.979 6.695 84.172 7.501 L82.721 8.953 Q81.625 10.081 80.249 10.565 Q78.874 11.049 77.411 11.049 Z"/></g><g id="Bold-M" transform="matrix(1 0 0 1 2281.8 1126)"><path d="M89.25 0.52 H92 V-2.23 H89.25 V0.52 Z M89.25 -13.23 H92 V-15.98 H89.25 V-13.23 Z M103 0.52 H105.75 V-2.23 H103 V0.52 Z M85.75 15.52 Q82.625 15.52 80.438 13.333 Q78.25 11.145 78.25 8.02 V-15.355 Q78.25 -18.48 80.438 -20.667 Q82.625 -22.855 85.75 -22.855 H95.5 Q98.625 -22.855 100.812 -20.667 Q103 -18.48 103 -15.355 V-9.105 H109.25 Q112.375 -9.105 114.562 -6.917 Q116.75 -4.73 116.75 -1.605 V8.02 Q116.75 11.145 114.562 13.333 Q112.375 15.52 109.25 15.52 H85.75 Z M60 18.645 Q59 18.645 57.938 18.208 Q56.875 17.77 56.125 16.895 L9.25 -37.355 Q7 -39.855 5.812 -42.98 Q4.625 -46.105 4.625 -49.23 Q4.625 -52.855 6.125 -56.105 Q7.625 -59.355 10.625 -61.855 Q21.375 -69.855 33.938 -74.355 Q46.5 -78.855 60 -78.855 Q74 -78.855 86.875 -74.105 Q99.75 -69.355 110.625 -60.855 Q113.375 -58.73 114.75 -55.792 Q116.125 -52.855 116.125 -49.605 Q116.125 -46.73 115.062 -43.855 Q114 -40.98 111.875 -38.605 L112.25 -38.98 Q111 -37.48 109.125 -37.042 Q107.25 -36.605 105.375 -37.23 Q101.25 -38.23 97 -38.23 Q92.75 -38.23 88.5 -37.23 Q78 -34.605 70.875 -26.48 Q63.75 -18.355 62.5 -7.23 Q62 -2.73 62.562 1.52 Q63.125 5.77 64.875 9.77 Q65.625 11.52 65.438 13.458 Q65.25 15.395 63.875 16.895 Q63.125 17.77 62.062 18.208 Q61 18.645 60 18.645 Z"/></g><g id="Semibold-M" transform="matrix(1 0 0 1 1985.97 1126)"><path d="M89.032 0.738 H92.218 V-2.447 H89.032 V0.738 Z M89.032 -13.012 H92.218 V-16.197 H89.032 V-13.012 Z M102.782 0.738 H105.968 V-2.447 H102.782 V0.738 Z M85.588 14.759 Q82.625 14.759 80.546 12.68 Q78.468 10.601 78.468 7.64 V-16.116 Q78.468 -19.077 80.546 -21.156 Q82.625 -23.235 85.588 -23.235 H95.662 Q98.625 -23.235 100.704 -21.156 Q102.782 -19.077 102.782 -16.116 V-9.485 H109.412 Q112.375 -9.485 114.454 -7.406 Q116.532 -5.327 116.532 -2.366 V7.64 Q116.532 10.601 114.454 12.68 Q112.375 14.759 109.412 14.759 H85.588 Z M60 15.874 Q58.891 15.874 57.775 15.436 Q56.657 14.999 55.799 14.069 L7.348 -38.55 Q5.152 -40.887 4.019 -43.795 Q2.886 -46.702 2.886 -49.665 Q2.886 -52.964 4.25 -55.942 Q5.614 -58.92 8.342 -61.202 Q19.527 -69.637 32.688 -74.274 Q45.847 -78.909 60 -78.909 Q74.435 -78.909 87.771 -74.132 Q101.109 -69.355 112.364 -60.637 Q115.005 -58.621 116.299 -55.82 Q117.593 -53.017 117.593 -49.931 Q117.593 -47.11 116.502 -44.317 Q115.412 -41.524 113.287 -39.257 L112.847 -38.817 Q111.597 -37.426 109.831 -37.07 Q108.065 -36.714 106.299 -37.339 Q102.771 -38.339 99.12 -38.584 Q95.468 -38.827 91.706 -38.262 Q79.956 -36.725 71.854 -28.056 Q63.75 -19.387 62.989 -7.284 Q62.706 -3.382 63.269 0.27 Q63.831 3.923 65.255 7.379 Q65.951 9.075 65.736 10.876 Q65.521 12.678 64.201 14.069 Q63.343 14.999 62.225 15.436 Q61.109 15.874 60 15.874 Z"/></g><g id="Medium-M" transform="matrix(1 0 0 1 1689.91 1126)"><path d="M88.87 0.9 H92.38 V-2.61 H88.87 V0.9 Z M88.87 -12.85 H92.38 V-16.36 H88.87 V-12.85 Z M102.62 0.9 H106.13 V-2.61 H102.62 V0.9 Z M85.465 14.189 Q82.625 14.189 80.627 12.191 Q78.63 10.194 78.63 7.354 V-16.686 Q78.63 -19.526 80.627 -21.524 Q82.625 -23.521 85.465 -23.521 H95.785 Q98.625 -23.521 100.623 -21.524 Q102.62 -19.526 102.62 -16.686 V-9.771 H109.535 Q112.375 -9.771 114.373 -7.774 Q116.37 -5.776 116.37 -2.936 V7.354 Q116.37 10.194 114.373 12.191 Q112.375 14.189 109.535 14.189 H85.465 Z M60 13.795 Q58.81 13.795 57.653 13.358 Q56.495 12.92 55.554 11.95 L5.921 -39.447 Q3.766 -41.662 2.674 -44.406 Q1.581 -47.151 1.581 -49.991 Q1.581 -53.045 2.844 -55.82 Q4.106 -58.594 6.63 -60.714 Q18.141 -69.475 31.75 -74.212 Q45.359 -78.95 60 -78.95 Q74.761 -78.95 88.444 -74.152 Q102.127 -69.355 113.669 -60.475 Q116.229 -58.54 117.46 -55.84 Q118.692 -53.14 118.692 -50.176 Q118.692 -47.396 117.582 -44.664 Q116.472 -41.931 114.347 -39.746 L113.296 -38.695 Q112.046 -37.385 110.361 -37.09 Q108.676 -36.795 106.991 -37.42 Q103.912 -38.42 100.709 -38.849 Q97.505 -39.276 94.111 -39.037 Q81.424 -38.314 72.588 -29.239 Q63.75 -20.162 63.356 -7.325 Q63.236 -3.871 63.799 -0.667 Q64.361 2.536 65.541 5.585 Q66.196 7.24 65.96 8.94 Q65.725 10.64 64.446 11.95 Q63.505 12.92 62.347 13.358 Q61.19 13.795 60 13.795 Z"/></g><g id="Regular-M" transform="matrix(1 0 0 1 1394.06 1126)"><path d="M88.75 1.02 H92.5 V-2.73 H88.75 V1.02 Z M88.75 -12.73 H92.5 V-16.48 H88.75 V-12.73 Z M102.5 1.02 H106.25 V-2.73 H102.5 V1.02 Z M85.375 13.77 Q82.625 13.77 80.688 11.833 Q78.75 9.895 78.75 7.145 V-17.105 Q78.75 -19.855 80.688 -21.792 Q82.625 -23.73 85.375 -23.73 H95.875 Q98.625 -23.73 100.562 -21.792 Q102.5 -19.855 102.5 -17.105 V-9.98 H109.625 Q112.375 -9.98 114.312 -8.042 Q116.25 -6.105 116.25 -3.355 V7.145 Q116.25 9.895 114.312 11.833 Q112.375 13.77 109.625 13.77 H85.375 Z M60 12.27 Q58.75 12.27 57.562 11.833 Q56.375 11.395 55.375 10.395 L4.875 -40.105 Q2.75 -42.23 1.688 -44.855 Q0.625 -47.48 0.625 -50.23 Q0.625 -53.105 1.812 -55.73 Q3 -58.355 5.375 -60.355 Q17.125 -69.355 31.062 -74.167 Q45 -78.98 60 -78.98 Q75 -78.98 88.938 -74.167 Q102.875 -69.355 114.625 -60.355 Q117.125 -58.48 118.312 -55.855 Q119.5 -53.23 119.5 -50.355 Q119.5 -47.605 118.375 -44.917 Q117.25 -42.23 115.125 -40.105 L113.625 -38.605 Q112.375 -37.355 110.75 -37.105 Q109.125 -36.855 107.5 -37.48 Q104.75 -38.48 101.875 -39.042 Q99 -39.605 95.875 -39.605 Q82.5 -39.48 73.125 -30.105 Q63.75 -20.73 63.625 -7.355 Q63.625 -4.23 64.188 -1.355 Q64.75 1.52 65.75 4.27 Q66.375 5.895 66.125 7.52 Q65.875 9.145 64.625 10.395 Q63.625 11.395 62.438 11.833 Q61.25 12.27 60 12.27 Z"/></g><g id="Light-M" transform="matrix(1 0 0 1 1098.18 1126)"><path d="M87.019 -1.144 H92.067 V-6.191 H87.019 V-1.144 Z M87.019 -14.654 H92.067 V-19.701 H87.019 V-14.654 Z M100.529 -1.144 H105.576 V-6.191 H100.529 V-1.144 Z M83.74 10.068 Q81.591 10.068 80.075 8.551 Q78.558 7.034 78.558 4.885 V-20.23 Q78.558 -22.379 80.075 -23.896 Q81.591 -25.412 83.74 -25.412 H95.346 Q97.495 -25.412 99.013 -23.896 Q100.529 -22.379 100.529 -20.23 V-11.904 H108.856 Q111.005 -11.904 112.521 -10.386 Q114.039 -8.87 114.039 -6.721 V4.885 Q114.039 7.034 112.521 8.551 Q111.005 10.068 108.856 10.068 H83.74 Z M60 8.904 Q58.797 8.904 57.731 8.515 Q56.664 8.125 55.726 7.188 L7.808 -40.73 Q5.875 -42.662 4.885 -45.12 Q3.895 -47.576 3.895 -50.086 Q3.895 -52.816 5.035 -55.246 Q6.176 -57.675 8.453 -59.537 Q19.721 -67.72 32.81 -72.1 Q45.898 -76.48 59.992 -76.48 Q74.086 -76.48 87.183 -72.1 Q100.279 -67.72 111.536 -59.55 Q113.951 -57.806 115.115 -55.374 Q116.279 -52.941 116.279 -50.211 Q116.279 -47.701 115.201 -45.182 Q114.125 -42.662 112.192 -40.73 L111.461 -39.999 Q110.311 -38.834 108.829 -38.614 Q107.346 -38.394 105.817 -38.922 Q103.356 -39.779 100.705 -40.269 Q98.055 -40.759 95.154 -40.759 Q82.039 -40.634 72.846 -31.441 Q63.654 -22.249 63.529 -9.134 Q63.529 -6.234 64.019 -3.582 Q64.51 -0.932 65.365 1.53 Q65.942 3.059 65.692 4.539 Q65.442 6.02 64.289 7.174 Q63.336 8.125 62.269 8.515 Q61.203 8.904 60 8.904 Z"/></g><g id="Thin-M" transform="matrix(1 0 0 1 802.565 1126)"><path d="M85.289 -3.307 H91.635 V-9.652 H85.289 V-3.307 Z M85.289 -16.576 H91.635 V-22.922 H85.289 V-16.576 Z M98.558 -3.307 H104.904 V-9.652 H98.558 V-3.307 Z M82.106 6.366 Q80.558 6.366 79.461 5.27 Q78.365 4.174 78.365 2.626 V-23.355 Q78.365 -24.902 79.461 -25.999 Q80.558 -27.095 82.106 -27.095 H94.817 Q96.365 -27.095 97.461 -25.999 Q98.558 -24.902 98.558 -23.355 V-13.826 H108.086 Q109.635 -13.826 110.731 -12.73 Q111.828 -11.634 111.828 -10.086 V2.626 Q111.828 4.174 110.731 5.27 Q109.635 6.366 108.086 6.366 H82.106 Z M60 5.539 Q58.846 5.539 57.899 5.198 Q56.953 4.856 56.076 3.981 L10.74 -41.355 Q9 -43.095 8.081 -45.384 Q7.164 -47.672 7.164 -49.941 Q7.164 -52.527 8.258 -54.762 Q9.352 -56.996 11.529 -58.72 Q22.317 -66.086 34.556 -70.032 Q46.795 -73.98 59.984 -73.98 Q73.172 -73.98 85.427 -70.032 Q97.683 -66.086 108.448 -58.745 Q110.779 -57.134 111.919 -54.894 Q113.058 -52.652 113.058 -50.066 Q113.058 -47.797 112.029 -45.446 Q111 -43.095 109.26 -41.355 L109.297 -41.394 Q108.248 -40.311 106.907 -40.121 Q105.567 -39.932 104.135 -40.365 Q101.961 -41.076 99.535 -41.495 Q97.109 -41.912 94.433 -41.912 Q81.578 -41.787 72.567 -32.777 Q63.557 -23.769 63.432 -10.912 Q63.432 -8.236 63.851 -5.81 Q64.269 -3.384 64.981 -1.211 Q65.51 0.223 65.26 1.559 Q65.01 2.895 63.953 3.953 Q63.047 4.856 62.101 5.198 Q61.154 5.539 60 5.539 Z"/></g><g id="Ultralight-M" transform="matrix(1 0 0 1 506.415 1126)"><path d="M84.25 -4.605 H91.375 V-11.73 H84.25 V-4.605 Z M84.25 -17.73 H91.375 V-24.855 H84.25 V-17.73 Z M97.375 -4.605 H104.5 V-11.73 H97.375 V-4.605 Z M81.125 4.145 Q79.938 4.145 79.094 3.301 Q78.25 2.458 78.25 1.27 V-25.23 Q78.25 -26.417 79.094 -27.261 Q79.938 -28.105 81.125 -28.105 H94.5 Q95.688 -28.105 96.531 -27.261 Q97.375 -26.417 97.375 -25.23 V-14.98 H107.625 Q108.812 -14.98 109.656 -14.136 Q110.5 -13.292 110.5 -12.105 V1.27 Q110.5 2.458 109.656 3.301 Q108.812 4.145 107.625 4.145 H81.125 Z M60 3.52 Q58.875 3.52 58 3.208 Q57.125 2.895 56.288 2.058 L12.5 -41.73 Q10.875 -43.355 10 -45.542 Q9.125 -47.73 9.125 -49.855 Q9.125 -52.355 10.191 -54.471 Q11.259 -56.589 13.375 -58.23 Q23.875 -65.105 35.604 -68.792 Q47.334 -72.48 59.979 -72.48 Q72.625 -72.48 84.375 -68.792 Q96.125 -65.105 106.594 -58.261 Q108.875 -56.73 110 -54.605 Q111.125 -52.48 111.125 -49.98 Q111.125 -47.855 110.125 -45.605 Q109.125 -43.355 107.5 -41.73 L108 -42.23 Q107.009 -41.199 105.755 -41.027 Q104.5 -40.855 103.125 -41.23 Q101.125 -41.855 98.834 -42.23 Q96.541 -42.605 94 -42.605 Q81.3 -42.48 72.4 -33.58 Q63.5 -24.68 63.375 -11.98 Q63.375 -9.439 63.75 -7.146 Q64.125 -4.855 64.75 -2.855 Q65.25 -1.48 65 -0.23 Q64.75 1.02 63.75 2.02 Q62.875 2.895 62 3.208 Q61.125 3.52 60 3.52 Z"/></g><g id="Bold-S" transform="matrix(1 0 0 1 2294.23 696)"><path d="M72.391 -12.941 H74.363 V-14.913 H72.391 V-12.941 Z M72.391 -22.409 H74.363 V-24.381 H72.391 V-22.409 Z M81.859 -12.941 H83.831 V-14.913 H81.859 V-12.941 Z M69.629 -2.289 Q67.657 -2.289 66.276 -3.67 Q64.895 -5.051 64.895 -7.023 V-23.888 Q64.895 -25.861 66.276 -27.241 Q67.657 -28.622 69.629 -28.622 H77.125 Q79.097 -28.622 80.478 -27.241 Q81.859 -25.861 81.859 -23.888 V-19.154 H86.593 Q88.565 -19.154 89.946 -17.773 Q91.327 -16.393 91.327 -14.42 V-7.023 Q91.327 -5.051 89.946 -3.67 Q88.565 -2.289 86.593 -2.289 H69.629 Z M47.34 4.615 Q46.354 4.615 45.417 4.22 Q44.48 3.826 43.691 2.938 L6.805 -39.767 Q5.227 -41.542 4.34 -43.958 Q3.452 -46.375 3.452 -48.544 Q3.452 -51.404 4.586 -53.722 Q5.72 -56.04 7.989 -57.914 Q16.47 -63.93 26.333 -67.579 Q36.195 -71.228 47.34 -71.228 Q58.879 -71.228 68.988 -67.382 Q79.097 -63.535 87.678 -57.125 Q89.749 -55.448 90.834 -53.426 Q91.919 -51.404 91.919 -48.84 Q91.919 -46.868 91.08 -44.649 Q90.242 -42.43 88.763 -40.753 L87.086 -39.076 Q86.198 -37.991 84.867 -37.745 Q83.535 -37.498 82.155 -37.794 Q79.196 -38.386 76.237 -38.238 Q73.278 -38.09 70.024 -37.301 Q62.035 -35.033 56.66 -28.573 Q51.285 -22.113 50.299 -14.42 Q49.904 -10.771 50.249 -7.911 Q50.595 -5.051 51.778 -2.191 Q52.271 -0.908 52.123 0.472 Q51.975 1.853 50.989 2.938 Q50.2 3.826 49.263 4.22 Q48.326 4.615 47.34 4.615 Z"/></g><g id="Semibold-S" transform="matrix(1 0 0 1 1998.1 696)"><path d="M72.219 -12.769 H74.535 V-15.085 H72.219 V-12.769 Z M72.219 -22.237 H74.535 V-24.553 H72.219 V-22.237 Z M81.687 -12.769 H84.003 V-15.085 H81.687 V-12.769 Z M69.501 -2.89 Q67.657 -2.89 66.362 -4.185 Q65.067 -5.48 65.067 -7.323 V-24.489 Q65.067 -26.332 66.362 -27.627 Q67.657 -28.922 69.501 -28.922 H77.253 Q79.097 -28.922 80.392 -27.627 Q81.687 -26.332 81.687 -24.489 V-19.454 H86.721 Q88.565 -19.454 89.86 -18.159 Q91.155 -16.864 91.155 -15.021 V-7.323 Q91.155 -5.48 89.86 -4.185 Q88.565 -2.89 86.721 -2.89 H69.501 Z M47.34 2.428 Q46.268 2.428 45.289 2.033 Q44.308 1.639 43.433 0.708 L5.304 -40.71 Q3.769 -42.357 2.924 -44.601 Q2.08 -46.846 2.08 -48.888 Q2.08 -51.49 3.107 -53.594 Q4.133 -55.697 6.188 -57.399 Q15.013 -63.758 25.347 -67.515 Q35.681 -71.271 47.34 -71.271 Q59.222 -71.271 69.695 -67.403 Q80.169 -63.535 89.049 -56.953 Q91.035 -55.362 92.056 -53.448 Q93.076 -51.533 93.076 -49.098 Q93.076 -47.168 92.216 -45.014 Q91.356 -42.859 89.877 -41.268 L87.557 -38.948 Q86.67 -37.949 85.424 -37.767 Q84.178 -37.584 82.883 -37.88 Q80.396 -38.472 77.91 -38.517 Q75.422 -38.562 72.553 -38.116 Q63.579 -36.705 57.432 -29.816 Q51.285 -22.928 50.684 -14.463 Q50.461 -11.286 50.807 -8.897 Q51.152 -6.508 52.078 -4.077 Q52.529 -2.838 52.359 -1.564 Q52.189 -0.291 51.247 0.708 Q50.372 1.639 49.391 2.033 Q48.412 2.428 47.34 2.428 Z"/></g><g id="Medium-S" transform="matrix(1 0 0 1 1701.85 696)"><path d="M72.091 -12.641 H74.663 V-15.213 H72.091 V-12.641 Z M72.091 -22.109 H74.663 V-24.681 H72.091 V-22.109 Z M81.559 -12.641 H84.131 V-15.213 H81.559 V-12.641 Z M69.404 -3.34 Q67.657 -3.34 66.426 -4.57 Q65.195 -5.801 65.195 -7.549 V-24.938 Q65.195 -26.686 66.426 -27.917 Q67.657 -29.148 69.404 -29.148 H77.35 Q79.097 -29.148 80.328 -27.917 Q81.559 -26.686 81.559 -24.938 V-19.68 H86.818 Q88.565 -19.68 89.796 -18.449 Q91.027 -17.218 91.027 -15.47 V-7.549 Q91.027 -5.801 89.796 -4.57 Q88.565 -3.34 86.818 -3.34 H69.404 Z M47.34 0.788 Q46.204 0.788 45.192 0.393 Q44.18 -0.001 43.24 -0.964 L4.179 -41.418 Q2.676 -42.968 1.863 -45.084 Q1.05 -47.2 1.05 -49.145 Q1.05 -51.554 1.997 -53.497 Q2.944 -55.439 4.837 -57.013 Q13.919 -63.63 24.607 -67.467 Q35.295 -71.303 47.34 -71.303 Q59.48 -71.303 70.226 -67.419 Q80.973 -63.535 90.079 -56.825 Q92 -55.298 92.972 -53.464 Q93.944 -51.629 93.944 -49.291 Q93.944 -47.393 93.068 -45.287 Q92.193 -43.18 90.713 -41.653 L87.911 -38.852 Q87.024 -37.917 85.842 -37.782 Q84.661 -37.648 83.43 -37.944 Q81.297 -38.536 79.163 -38.726 Q77.03 -38.916 74.451 -38.727 Q64.736 -37.959 58.011 -30.749 Q51.285 -23.539 50.974 -14.495 Q50.88 -11.671 51.225 -9.637 Q51.57 -7.602 52.304 -5.493 Q52.722 -4.285 52.536 -3.092 Q52.35 -1.899 51.44 -0.964 Q50.5 -0.001 49.488 0.393 Q48.476 0.788 47.34 0.788 Z"/></g><g id="Regular-S" transform="matrix(1 0 0 1 1405.73 696)"><path d="M71.996 -12.546 H74.758 V-15.308 H71.996 V-12.546 Z M71.996 -22.014 H74.758 V-24.776 H71.996 V-22.014 Z M81.464 -12.546 H84.226 V-15.308 H81.464 V-12.546 Z M69.333 -3.67 Q67.657 -3.67 66.473 -4.853 Q65.29 -6.037 65.29 -7.714 V-25.269 Q65.29 -26.945 66.473 -28.129 Q67.657 -29.312 69.333 -29.312 H77.421 Q79.097 -29.312 80.281 -28.129 Q81.464 -26.945 81.464 -25.269 V-19.844 H86.889 Q88.565 -19.844 89.749 -18.661 Q90.932 -17.477 90.932 -15.801 V-7.714 Q90.932 -6.037 89.749 -4.853 Q88.565 -3.67 86.889 -3.67 H69.333 Z M47.34 -0.415 Q46.157 -0.415 45.121 -0.81 Q44.085 -1.204 43.099 -2.191 L3.353 -41.936 Q1.874 -43.416 1.085 -45.438 Q0.296 -47.459 0.296 -49.333 Q0.296 -51.602 1.183 -53.426 Q2.071 -55.251 3.846 -56.73 Q13.117 -63.535 24.065 -67.431 Q35.012 -71.327 47.34 -71.327 Q59.668 -71.327 70.615 -67.431 Q81.563 -63.535 90.834 -56.73 Q92.708 -55.251 93.644 -53.476 Q94.581 -51.7 94.581 -49.432 Q94.581 -47.558 93.694 -45.487 Q92.806 -43.416 91.327 -41.936 L88.171 -38.78 Q87.283 -37.893 86.149 -37.794 Q85.015 -37.696 83.831 -37.991 Q81.957 -38.583 80.084 -38.879 Q78.21 -39.175 75.843 -39.175 Q65.586 -38.879 58.435 -31.433 Q51.285 -23.987 51.186 -14.519 Q51.186 -11.954 51.532 -10.179 Q51.877 -8.404 52.468 -6.53 Q52.863 -5.347 52.666 -4.212 Q52.468 -3.078 51.581 -2.191 Q50.595 -1.204 49.559 -0.81 Q48.524 -0.415 47.34 -0.415 Z"/></g><g id="Light-S" transform="matrix(1 0 0 1 1109.75 696)"><path d="M70.63 -14.253 H74.417 V-18.039 H70.63 V-14.253 Z M70.63 -23.532 H74.417 V-27.317 H70.63 V-23.532 Z M79.909 -14.253 H83.694 V-18.039 H79.909 V-14.253 Z M68.043 -6.591 Q66.841 -6.591 65.99 -7.442 Q65.138 -8.295 65.138 -9.497 V-27.734 Q65.138 -28.937 65.99 -29.789 Q66.841 -30.64 68.043 -30.64 H77.003 Q78.206 -30.64 79.058 -29.789 Q79.909 -28.937 79.909 -27.734 V-21.362 H86.282 Q87.484 -21.362 88.335 -20.51 Q89.188 -19.659 89.188 -18.457 V-9.497 Q89.188 -8.295 88.335 -7.442 Q87.484 -6.591 86.282 -6.591 H68.043 Z M47.34 -3.071 Q46.194 -3.071 45.254 -3.427 Q44.313 -3.784 43.376 -4.721 L5.667 -42.43 Q4.34 -43.757 3.608 -45.647 Q2.876 -47.535 2.876 -49.22 Q2.876 -51.374 3.726 -53.045 Q4.577 -54.714 6.275 -56.085 Q15.166 -62.245 25.443 -65.8 Q35.72 -69.354 47.334 -69.354 Q58.947 -69.354 69.231 -65.8 Q79.514 -62.245 88.397 -56.095 Q90.203 -54.719 91.122 -53.096 Q92.04 -51.473 92.04 -49.319 Q92.04 -47.634 91.19 -45.696 Q90.341 -43.757 89.013 -42.43 L86.464 -39.88 Q85.655 -39.06 84.633 -38.985 Q83.611 -38.91 82.504 -39.13 Q80.858 -39.608 79.16 -39.847 Q77.464 -40.085 75.274 -40.085 Q65.222 -39.789 58.215 -32.487 Q51.209 -25.185 51.11 -15.922 Q51.11 -13.535 51.398 -11.937 Q51.687 -10.339 52.165 -8.692 Q52.522 -7.584 52.325 -6.565 Q52.127 -5.544 51.316 -4.732 Q50.367 -3.784 49.426 -3.427 Q48.486 -3.071 47.34 -3.071 Z"/></g><g id="Thin-S" transform="matrix(1 0 0 1 814.015 696)"><path d="M69.265 -15.961 H74.075 V-20.77 H69.265 V-15.961 Z M69.265 -25.049 H74.075 V-29.859 H69.265 V-25.049 Z M78.354 -15.961 H83.164 V-20.77 H78.354 V-15.961 Z M66.754 -9.512 Q66.025 -9.512 65.506 -10.031 Q64.986 -10.551 64.986 -11.279 V-30.2 Q64.986 -30.928 65.506 -31.448 Q66.025 -31.967 66.754 -31.967 H76.586 Q77.314 -31.967 77.834 -31.448 Q78.354 -30.928 78.354 -30.2 V-22.879 H85.675 Q86.403 -22.879 86.923 -22.359 Q87.443 -21.84 87.443 -21.112 V-11.279 Q87.443 -10.551 86.923 -10.031 Q86.403 -9.512 85.675 -9.512 H66.754 Z M47.34 -5.726 Q46.232 -5.726 45.386 -6.045 Q44.541 -6.363 43.652 -7.251 L7.981 -42.923 Q6.805 -44.098 6.13 -45.855 Q5.455 -47.611 5.455 -49.106 Q5.455 -51.146 6.269 -52.663 Q7.083 -54.179 8.702 -55.44 Q17.214 -60.956 26.821 -64.169 Q36.428 -67.382 47.327 -67.382 Q58.226 -67.382 67.846 -64.169 Q77.466 -60.956 85.96 -55.46 Q87.7 -54.189 88.6 -52.717 Q89.498 -51.245 89.498 -49.204 Q89.498 -47.71 88.687 -45.904 Q87.875 -44.098 86.699 -42.923 L84.756 -40.981 Q84.027 -40.225 83.117 -40.174 Q82.208 -40.124 81.176 -40.268 Q79.757 -40.632 78.237 -40.814 Q76.717 -40.996 74.704 -40.996 Q64.858 -40.7 57.995 -33.542 Q51.133 -26.384 51.034 -17.326 Q51.034 -15.115 51.266 -13.694 Q51.497 -12.273 51.862 -10.855 Q52.181 -9.822 51.983 -8.916 Q51.786 -8.009 51.05 -7.274 Q50.139 -6.363 49.294 -6.045 Q48.448 -5.726 47.34 -5.726 Z"/></g><g id="Ultralight-S" transform="matrix(1 0 0 1 517.792 696)"><path d="M68.446 -16.984 H73.87 V-22.409 H68.446 V-16.984 Z M68.446 -25.959 H73.87 V-31.384 H68.446 V-25.959 Z M77.421 -16.984 H82.845 V-22.409 H77.421 V-16.984 Z M65.98 -11.264 Q65.536 -11.264 65.216 -11.585 Q64.895 -11.905 64.895 -12.349 V-31.679 Q64.895 -32.123 65.216 -32.444 Q65.536 -32.764 65.98 -32.764 H76.336 Q76.78 -32.764 77.1 -32.444 Q77.421 -32.123 77.421 -31.679 V-23.789 H85.311 Q85.754 -23.789 86.075 -23.469 Q86.395 -23.148 86.395 -22.705 V-12.349 Q86.395 -11.905 86.075 -11.585 Q85.754 -11.264 85.311 -11.264 H65.98 Z M47.34 -7.319 Q46.255 -7.319 45.466 -7.615 Q44.677 -7.911 43.819 -8.769 L9.369 -43.219 Q8.284 -44.303 7.643 -45.98 Q7.002 -47.657 7.002 -49.037 Q7.002 -51.01 7.794 -52.433 Q8.587 -53.857 10.158 -55.054 Q18.443 -60.182 27.648 -63.19 Q36.853 -66.198 47.323 -66.198 Q57.794 -66.198 67.016 -63.19 Q76.237 -60.182 84.497 -55.078 Q86.198 -53.87 87.086 -52.489 Q87.974 -51.109 87.974 -49.136 Q87.974 -47.755 87.184 -46.029 Q86.395 -44.303 85.311 -43.219 L83.733 -41.641 Q83.049 -40.926 82.208 -40.889 Q81.366 -40.852 80.379 -40.95 Q79.097 -41.246 77.684 -41.394 Q76.27 -41.542 74.363 -41.542 Q64.639 -41.246 57.863 -34.175 Q51.088 -27.103 50.989 -18.168 Q50.989 -16.064 51.186 -14.749 Q51.384 -13.434 51.68 -12.152 Q51.975 -11.165 51.778 -10.327 Q51.581 -9.489 50.891 -8.798 Q50.003 -7.911 49.214 -7.615 Q48.425 -7.319 47.34 -7.319 Z"/></g></g></svg>