<svg xmlns="http://www.w3.org/2000/svg" height="40" viewBox="0 -960 960 960" width="40"><path d="M196.667-156.833h566.666v-57.334q-10 3-19.833 4.5-9.833 1.5-21.005 1.5-61.879 0-105.187-44.267Q574-296.702 574-358.731q0-61.291 43.533-103.78Q661.066-505 722.352-505q11.315 0 21.148 1.5t19.833 4.5v-62.167H547.5v-67.903q16-13.43 24.833-33.138 8.834-19.707 8.834-40.292 0-42.28-29.572-71.474-29.571-29.193-71.698-29.193-42.127 0-71.262 29.193Q379.5-744.78 379.5-702.5q0 21.032 7.5 40.766 7.5 19.734 24.167 32.664v67.903h-214.5V-499q10-3 19.833-4.5 9.833-1.5 20.919-1.5 61.29 0 104.935 42.408Q386-420.184 386-358.217q0 61.48-43.308 105.765-43.308 44.285-104.999 44.285-11.223 0-21.101-1.5-9.878-1.5-19.925-4.5v57.334ZM786.5-239v105.333h-613v-105.999h15q12 5 24.024 6.666 12.025 1.667 25.143 1.667 50.833 0 88-36.834Q362.833-305 362.833-356.25t-37.166-88.417q-37.167-37.166-88-37.166-10.853 0-20.26.833-9.407.833-18.741 3.333H173.5v-106.666h219.833v-24.334q-19.5-18.333-28.25-42.833t-8.75-51.5q0-51.611 35.998-87.472 35.997-35.861 87.708-35.861t88.003 35.861q36.291 35.861 36.291 87.472 0 27-9.083 51.5t-28.583 42.833v24.334H786.5v106.666h-24.589q-10.578-2.166-19.612-3.166-9.035-1-19.132-1-51.667 0-88.834 37.166-37.166 37.167-37.166 88.417t36.969 88.083q36.968 36.834 89.191 36.834 12.566 0 24.309-1.682 11.742-1.683 24.031-5.985H786.5ZM480-480Z"/></svg>