<svg xmlns="http://www.w3.org/2000/svg" version="1.1" width="3300" height="2000"><g id="Notes"><style>
    text {
      font-family: monospace;
      text-anchor: middle;
    }
    text.emphasis {
      font-weight:bold;
    }
    text.lanchor {
      text-anchor: start;
    }
  </style><rect height="2200" id="artboard" fill="white" width="3300" x="0" y="0"/><line id="" style="fill:none;stroke:black;stroke-width:0.5;" x1="263" x2="3036" y1="292" y2="292"/><text class="lanchor emphasis" transform="matrix(1 0 0 1 263 322)">Weight/Scale Variations</text><text transform="matrix(1 0 0 1 559.711 322)">Ultralight</text><text transform="matrix(1 0 0 1 856.422 322)">Thin</text><text transform="matrix(1 0 0 1 1153.13 322)">Light</text><text transform="matrix(1 0 0 1 1449.84 322)">Regular</text><text transform="matrix(1 0 0 1 1746.56 322)">Medium</text><text transform="matrix(1 0 0 1 2043.27 322)">Semibold</text><text transform="matrix(1 0 0 1 2339.98 322)">Bold</text><text transform="matrix(1 0 0 1 2636.69 322)">Heavy</text><text transform="matrix(1 0 0 1 2933.4 322)">Black</text><text id="template-version" style="text-anchor: end;" transform="matrix(1 0 0 1 3036 1933)">Template v.1.0</text><text class="lanchor" transform="matrix(1 0 0 1 263 726)">Small</text><text class="lanchor" transform="matrix(1 0 0 1 263 1156)">Medium</text><text class="lanchor" transform="matrix(1 0 0 1 263 1586)">Large</text></g><g id="Guides"><g id="H-reference" style="fill:#27AAE1;stroke:none;" transform="matrix(1 0 0 1 339 696)"><path d="M 54.9316 0 L 57.666 0 L 30.5664 -70.459 L 28.0762 -70.459 L 0.976562 0 L 3.66211 0 L 12.9395 -24.4629 L 45.7031 -24.4629 Z M 29.1992 -67.0898 L 29.4434 -67.0898 L 44.8242 -26.709 L 13.8184 -26.709 Z"/></g><line id="Baseline-S" style="fill:none;stroke:#27AAE1;opacity:1;stroke-width:0.577;" x1="263" x2="3036" y1="696" y2="696"/><line id="Capline-S" style="fill:none;stroke:#27AAE1;opacity:1;stroke-width:0.577;" x1="263" x2="3036" y1="625.541" y2="625.541"/><g id="H-reference" style="fill:#27AAE1;stroke:none;" transform="matrix(1 0 0 1 339 1126)"><path d="M 54.9316 0 L 57.666 0 L 30.5664 -70.459 L 28.0762 -70.459 L 0.976562 0 L 3.66211 0 L 12.9395 -24.4629 L 45.7031 -24.4629 Z M 29.1992 -67.0898 L 29.4434 -67.0898 L 44.8242 -26.709 L 13.8184 -26.709 Z"/></g><line id="Baseline-M" style="fill:none;stroke:#27AAE1;opacity:1;stroke-width:0.577;" x1="263" x2="3036" y1="1126" y2="1126"/><line id="Capline-M" style="fill:none;stroke:#27AAE1;opacity:1;stroke-width:0.577;" x1="263" x2="3036" y1="1055.54" y2="1055.54"/><g id="H-reference" style="fill:#27AAE1;stroke:none;" transform="matrix(1 0 0 1 339 1556)"><path d="M 54.9316 0 L 57.666 0 L 30.5664 -70.459 L 28.0762 -70.459 L 0.976562 0 L 3.66211 0 L 12.9395 -24.4629 L 45.7031 -24.4629 Z M 29.1992 -67.0898 L 29.4434 -67.0898 L 44.8242 -26.709 L 13.8184 -26.709 Z"/></g><line id="Baseline-L" style="fill:none;stroke:#27AAE1;opacity:1;stroke-width:0.577;" x1="263" x2="3036" y1="1556" y2="1556"/><line id="Capline-L" style="fill:none;stroke:#27AAE1;opacity:1;stroke-width:0.577;" x1="263" x2="3036" y1="1485.54" y2="1485.54"/><rect height="119.336" id="left-margin" style="fill:darkred;stroke:none;opacity:0.4;" width="12.4512" x="1394.06" y="1030.79"/><rect height="119.336" id="right-margin" style="fill:darkgreen;stroke:none;opacity:0.4;" width="12.4512" x="1502.5112" y="1030.79"/><rect x="1406.5112" y="1045" width="96" height="96" fill="none" stroke="blue" stroke-dasharray="5"/><rect x="1394.06" y="1030.79" width="120.9024" height="119.336" fill="none" stroke="blue"/></g><g id="Symbols"><g id="Bold-L" transform="matrix(1 0 0 1 2266 1556)"><path d="M7.256 8.308 V-78.848 H35.802 L101.507 -13.139 H85.785 L5.805 -93.28 L13.545 -101.101 L143.19 28.544 L135.45 36.365 L107.231 8.308 H7.256 Z M51.358 -79.009 H147.786 V5.566 H136.095 L51.358 -79.009 Z M110.418 -54.177 Q107.525 -54.177 105.524 -52.097 Q103.523 -50.018 103.523 -47.124 Q103.523 -44.231 105.548 -42.23 Q107.573 -40.229 110.466 -40.229 Q113.359 -40.229 115.415 -42.254 Q117.471 -44.279 117.471 -47.172 Q117.471 -50.065 115.391 -52.121 Q113.312 -54.177 110.418 -54.177 Z M45.714 -13.139 H54.986 V-30.151 H71.998 V-39.422 H54.986 V-56.434 H45.714 V-39.422 H28.783 V-30.151 H45.714 V-13.139 Z"/></g><g id="Semibold-L" transform="matrix(1 0 0 1 1970.27 1556)"><path d="M10.06 5.924 V-76.465 H37.344 L100.665 -13.139 H85.995 L7.979 -91.247 L15.227 -98.577 L140.666 26.863 L133.417 34.191 L105.058 5.924 H10.06 Z M51.919 -76.555 H144.912 V4.444 H133.01 L51.919 -76.555 Z M109.998 -54.177 Q107.105 -54.177 105.103 -52.097 Q103.102 -50.018 103.102 -47.124 Q103.102 -44.231 105.127 -42.23 Q107.152 -40.229 110.045 -40.229 Q112.938 -40.229 114.994 -42.254 Q117.05 -44.279 117.05 -47.172 Q117.05 -50.065 114.97 -52.121 Q112.891 -54.177 109.998 -54.177 Z M46.135 -13.139 H55.407 V-30.151 H72.419 V-39.422 H55.407 V-56.434 H46.135 V-39.422 H29.204 V-30.151 H46.135 V-13.139 Z"/></g><g id="Medium-L" transform="matrix(1 0 0 1 1674.31 1556)"><path d="M12.163 4.136 V-74.677 H38.502 L100.035 -13.139 H86.153 L9.609 -89.721 L16.489 -96.684 L138.773 25.6 L131.891 32.561 L103.427 4.136 H12.163 Z M52.34 -74.715 H142.755 V3.604 H130.696 L52.34 -74.715 Z M109.682 -54.177 Q106.789 -54.177 104.788 -52.097 Q102.786 -50.018 102.786 -47.124 Q102.786 -44.231 104.811 -42.23 Q106.836 -40.229 109.729 -40.229 Q112.622 -40.229 114.678 -42.254 Q116.734 -44.279 116.734 -47.172 Q116.734 -50.065 114.655 -52.121 Q112.575 -54.177 109.682 -54.177 Z M46.451 -13.139 H55.723 V-30.151 H72.735 V-39.422 H55.723 V-56.434 H46.451 V-39.422 H29.52 V-30.151 H46.451 V-13.139 Z"/></g><g id="Regular-L" transform="matrix(1 0 0 1 1378.56 1556)"><path d="M13.706 2.825 V-73.366 H39.35 L99.572 -13.139 H86.269 L10.804 -88.604 L17.415 -95.296 L137.385 24.674 L130.774 31.366 L102.233 2.825 H13.706 Z M52.648 -73.366 H141.174 V2.986 H129 L52.648 -73.366 Z M109.45 -54.177 Q106.557 -54.177 104.556 -52.097 Q102.555 -50.018 102.555 -47.124 Q102.555 -44.231 104.58 -42.23 Q106.606 -40.229 109.498 -40.229 Q112.391 -40.229 114.447 -42.254 Q116.503 -44.279 116.503 -47.172 Q116.503 -50.065 114.423 -52.121 Q112.344 -54.177 109.45 -54.177 Z M46.682 -13.139 H55.954 V-30.151 H72.966 V-39.422 H55.954 V-56.434 H46.682 V-39.422 H29.751 V-30.151 H46.682 V-13.139 Z"/></g><g id="Light-L" transform="matrix(1 0 0 1 1082.77 1556)"><path d="M16.622 -0.184 V-70.357 H42.36 L97.214 -15.496 H87.106 L14.619 -87.983 L19.648 -93.062 L135.152 22.441 L130.185 27.583 L102.357 -0.184 H16.622 Z M56.991 -70.357 H138.259 V-0.084 H127.263 L56.991 -70.357 Z M110.443 -52.689 Q107.886 -52.689 106.135 -50.862 Q104.385 -49.036 104.385 -46.505 Q104.385 -43.947 106.144 -42.196 Q107.904 -40.446 110.45 -40.446 Q112.998 -40.446 114.812 -42.206 Q116.627 -43.965 116.627 -46.511 Q116.627 -49.059 114.8 -50.873 Q112.975 -52.689 110.443 -52.689 Z M47.83 -15.496 H54.899 V-31.391 H70.795 V-38.461 H54.899 V-54.325 H47.83 V-38.461 H32.045 V-31.391 H47.83 V-15.496 Z"/></g><g id="Thin-L" transform="matrix(1 0 0 1 787.282 1556)"><path d="M19.535 -3.191 V-67.349 H45.369 L94.859 -17.852 H87.943 L18.432 -87.364 L21.88 -90.831 L132.92 20.209 L129.595 23.8 L102.481 -3.191 H19.535 Z M61.331 -67.349 H135.345 V-3.154 H125.527 L61.331 -67.349 Z M111.435 -51.2 Q109.215 -51.2 107.713 -49.626 Q106.214 -48.054 106.214 -45.884 Q106.214 -43.663 107.709 -42.164 Q109.203 -40.663 111.403 -40.663 Q113.602 -40.663 115.176 -42.157 Q116.751 -43.652 116.751 -45.852 Q116.751 -48.051 115.178 -49.626 Q113.605 -51.2 111.435 -51.2 Z M48.976 -17.852 H53.845 V-32.631 H68.625 V-37.5 H53.845 V-52.218 H48.976 V-37.5 H34.34 V-32.631 H48.976 V-17.852 Z"/></g><g id="Ultralight-L" transform="matrix(1 0 0 1 491.205 1556)"><path d="M21.285 -4.996 V-65.545 H47.175 L93.444 -19.266 H88.446 L20.721 -86.991 L23.22 -89.491 L131.58 18.869 L129.242 21.53 L102.555 -4.996 H21.285 Z M63.936 -65.545 H133.596 V-4.996 H124.485 L63.936 -65.545 Z M112.03 -50.307 Q110.011 -50.307 108.662 -48.886 Q107.312 -47.464 107.312 -45.511 Q107.312 -43.492 108.647 -42.143 Q109.982 -40.793 111.974 -40.793 Q113.965 -40.793 115.395 -42.128 Q116.826 -43.463 116.826 -45.455 Q116.826 -47.446 115.405 -48.877 Q113.983 -50.307 112.03 -50.307 Z M49.665 -19.266 H53.212 V-33.376 H67.322 V-36.923 H53.212 V-50.952 H49.665 V-36.923 H35.717 V-33.376 H49.665 V-19.266 Z"/></g><g id="Bold-M" transform="matrix(1 0 0 1 2281.8 1126)"><path d="M4.5 -0.417 V-70.105 H27.188 L77.062 -20.23 H61.188 L3.062 -78.355 L11 -86.292 L111 13.708 L103.062 21.645 L80.875 -0.417 H4.5 Z M42.938 -70.105 H115.562 V-3.792 H109.375 L42.938 -70.105 Z M87.504 -50.292 Q84.562 -50.292 82.5 -48.234 Q80.438 -46.175 80.438 -43.234 Q80.438 -40.292 82.496 -38.23 Q84.555 -36.167 87.496 -36.167 Q90.438 -36.167 92.5 -38.226 Q94.562 -40.285 94.562 -43.226 Q94.562 -46.167 92.504 -48.23 Q90.445 -50.292 87.504 -50.292 Z M34.625 -20.23 H44 V-30.542 H54.312 V-39.917 H44 V-50.292 H34.625 V-39.917 H24.312 V-30.542 H34.625 V-20.23 Z"/></g><g id="Semibold-M" transform="matrix(1 0 0 1 1985.97 1126)"><path d="M7.435 -2.917 V-67.66 H28.764 L76.192 -20.23 H61.405 L5.345 -76.29 L12.739 -83.684 L108.391 11.969 L100.998 19.363 L78.647 -2.917 H7.435 Z M43.535 -67.605 H112.627 V-4.987 H106.222 L43.535 -67.605 Z M87.069 -50.292 Q84.127 -50.292 82.065 -48.234 Q80.002 -46.175 80.002 -43.234 Q80.002 -40.292 82.061 -38.23 Q84.12 -36.167 87.061 -36.167 Q90.002 -36.167 92.065 -38.226 Q94.127 -40.285 94.127 -43.226 Q94.127 -46.167 92.069 -48.23 Q90.01 -50.292 87.069 -50.292 Z M35.06 -20.23 H44.435 V-30.542 H54.748 V-39.917 H44.435 V-50.292 H35.06 V-39.917 H24.747 V-30.542 H35.06 V-20.23 Z"/></g><g id="Medium-M" transform="matrix(1 0 0 1 1689.91 1126)"><path d="M9.636 -4.792 V-65.825 H29.946 L75.541 -20.23 H61.568 L7.058 -74.741 L14.044 -81.727 L106.435 10.664 L99.449 17.65 L76.975 -4.792 H9.636 Z M43.984 -65.73 H110.426 V-5.885 H103.859 L43.984 -65.73 Z M86.743 -50.292 Q83.801 -50.292 81.739 -48.234 Q79.676 -46.175 79.676 -43.234 Q79.676 -40.292 81.735 -38.23 Q83.794 -36.167 86.735 -36.167 Q89.676 -36.167 91.739 -38.226 Q93.801 -40.285 93.801 -43.226 Q93.801 -46.167 91.743 -48.23 Q89.684 -50.292 86.743 -50.292 Z M35.386 -20.23 H44.761 V-30.542 H55.074 V-39.917 H44.761 V-50.292 H35.386 V-39.917 H25.074 V-30.542 H35.386 V-20.23 Z"/></g><g id="Regular-M" transform="matrix(1 0 0 1 1394.06 1126)"><path d="M11.25 -6.167 V-64.48 H30.812 L75.062 -20.23 H61.688 L8.312 -73.605 L15 -80.292 L105 9.708 L98.312 16.395 L75.75 -6.167 H11.25 Z M44.312 -64.355 H108.812 V-6.542 H102.125 L44.312 -64.355 Z M86.504 -50.292 Q83.562 -50.292 81.5 -48.234 Q79.438 -46.175 79.438 -43.234 Q79.438 -40.292 81.496 -38.23 Q83.555 -36.167 86.496 -36.167 Q89.438 -36.167 91.5 -38.226 Q93.562 -40.285 93.562 -43.226 Q93.562 -46.167 91.504 -48.23 Q89.445 -50.292 86.504 -50.292 Z M35.625 -20.23 H45 V-30.542 H55.312 V-39.917 H45 V-50.292 H35.625 V-39.917 H25.312 V-30.542 H35.625 V-20.23 Z"/></g><g id="Light-M" transform="matrix(1 0 0 1 1098.18 1126)"><path d="M13.51 -8.5 V-62.1 H33.194 L73.812 -21.48 H63.828 L11.461 -73.845 L16.442 -78.85 L103.558 8.265 L98.578 13.27 L76.808 -8.5 H13.51 Z M46.716 -62.022 H106.552 V-8.73 H100.01 L46.716 -62.022 Z M86.696 -49.042 Q84.236 -49.042 82.521 -47.32 Q80.808 -45.597 80.808 -43.137 Q80.808 -40.677 82.513 -38.964 Q84.218 -37.249 86.677 -37.249 Q89.138 -37.249 90.869 -38.954 Q92.601 -40.659 92.601 -43.119 Q92.601 -45.579 90.879 -47.311 Q89.156 -49.042 86.696 -49.042 Z M36.755 -21.48 H43.75 V-31.745 H54.014 V-38.74 H43.75 V-49.042 H36.755 V-38.74 H26.515 V-31.745 H36.755 V-21.48 Z"/></g><g id="Thin-M" transform="matrix(1 0 0 1 802.565 1126)"><path d="M15.769 -10.831 V-59.72 H35.575 L72.562 -22.73 H65.966 L14.61 -74.086 L17.885 -77.407 L102.115 6.823 L98.841 10.145 L77.865 -10.831 H15.769 Z M49.12 -59.691 H104.294 V-10.917 H97.894 L49.12 -59.691 Z M86.889 -47.792 Q84.909 -47.792 83.544 -46.406 Q82.177 -45.021 82.177 -43.041 Q82.177 -41.061 83.529 -39.696 Q84.879 -38.331 86.859 -38.331 Q88.838 -38.331 90.239 -39.681 Q91.64 -41.031 91.64 -43.011 Q91.64 -44.991 90.254 -46.391 Q88.868 -47.792 86.889 -47.792 Z M37.885 -22.73 H42.5 V-32.946 H52.716 V-37.561 H42.5 V-47.792 H37.885 V-37.561 H27.716 V-32.946 H37.885 V-22.73 Z"/></g><g id="Ultralight-M" transform="matrix(1 0 0 1 506.415 1126)"><path d="M17.125 -12.23 V-58.292 H37.004 L71.812 -23.48 H67.25 L16.5 -74.23 L18.75 -76.542 L101.25 5.958 L99 8.27 L78.5 -12.23 H17.125 Z M50.562 -58.292 H102.938 V-12.23 H96.625 L50.562 -58.292 Z M87.004 -47.042 Q85.312 -47.042 84.156 -45.859 Q83 -44.675 83 -42.984 Q83 -41.292 84.138 -40.136 Q85.276 -38.98 86.968 -38.98 Q88.657 -38.98 89.86 -40.117 Q91.062 -41.256 91.062 -42.947 Q91.062 -44.637 89.879 -45.84 Q88.695 -47.042 87.004 -47.042 Z M38.562 -23.48 H41.75 V-33.667 H51.938 V-36.855 H41.75 V-47.042 H38.562 V-36.855 H28.438 V-33.667 H38.562 V-23.48 Z"/></g><g id="Bold-S" transform="matrix(1 0 0 1 2294.23 696)"><path d="M5.128 -7.763 V-62.648 H21.55 L60.802 -23.395 H49.46 L5.868 -66.987 L11.539 -72.658 L84.719 0.522 L79.048 6.193 L64.994 -7.763 H5.128 Z M32.694 -62.746 H89.601 V-9.933 H85.606 L32.694 -62.746 Z M68.646 -47.114 Q66.128 -47.114 64.599 -45.095 Q63.071 -43.077 63.071 -40.361 Q63.071 -38.041 64.695 -36.413 Q66.319 -34.786 68.64 -34.786 Q72.046 -34.786 74.906 -36.065 Q77.766 -37.345 77.766 -40.356 Q77.766 -43.564 74.958 -45.339 Q72.15 -47.114 68.646 -47.114 Z M28.108 -23.395 H34.716 V-31.926 H43.247 V-38.534 H34.716 V-47.114 H28.108 V-38.534 H19.577 V-31.926 H28.108 V-23.395 Z"/></g><g id="Semibold-S" transform="matrix(1 0 0 1 1998.1 696)"><path d="M7.444 -9.735 V-60.719 H22.793 L60.116 -23.395 H49.632 L7.669 -65.358 L12.911 -70.6 L82.661 -0.85 L77.419 4.392 L63.236 -9.735 H7.444 Z M33.166 -60.774 H87.285 V-10.876 H83.119 L33.166 -60.774 Z M68.303 -47.114 Q65.785 -47.114 64.256 -45.095 Q62.727 -43.077 62.727 -40.361 Q62.727 -38.041 64.352 -36.413 Q65.976 -34.786 68.297 -34.786 Q71.702 -34.786 74.562 -36.065 Q77.423 -37.345 77.423 -40.356 Q77.423 -43.564 74.615 -45.339 Q71.807 -47.114 68.303 -47.114 Z M28.451 -23.395 H35.059 V-31.926 H43.59 V-38.534 H35.059 V-47.114 H28.451 V-38.534 H19.92 V-31.926 H28.451 V-23.395 Z"/></g><g id="Medium-S" transform="matrix(1 0 0 1 1701.85 696)"><path d="M9.181 -11.215 V-59.271 H23.726 L59.602 -23.395 H49.76 L9.02 -64.136 L13.941 -69.056 L81.117 -1.88 L76.197 3.04 L61.917 -11.215 H9.181 Z M33.52 -59.294 H85.548 V-11.584 H81.254 L33.52 -59.294 Z M68.045 -47.114 Q65.527 -47.114 63.999 -45.095 Q62.47 -43.077 62.47 -40.361 Q62.47 -38.041 64.094 -36.413 Q65.719 -34.786 68.039 -34.786 Q71.445 -34.786 74.305 -36.065 Q77.165 -37.345 77.165 -40.356 Q77.165 -43.564 74.357 -45.339 Q71.549 -47.114 68.045 -47.114 Z M28.709 -23.395 H35.317 V-31.926 H43.848 V-38.534 H35.317 V-47.114 H28.709 V-38.534 H20.178 V-31.926 H28.709 V-23.395 Z"/></g><g id="Regular-S" transform="matrix(1 0 0 1 1405.73 696)"><path d="M10.454 -12.3 V-58.21 H24.41 L59.224 -23.395 H49.855 L10.01 -63.239 L14.695 -67.924 L79.985 -2.634 L75.3 2.05 L60.95 -12.3 H10.454 Z M33.779 -58.21 H84.275 V-12.102 H79.886 L33.779 -58.21 Z M67.857 -47.114 Q65.339 -47.114 63.81 -45.095 Q62.282 -43.077 62.282 -40.361 Q62.282 -38.041 63.906 -36.413 Q65.53 -34.786 67.851 -34.786 Q71.257 -34.786 74.117 -36.065 Q76.977 -37.345 76.977 -40.356 Q76.977 -43.564 74.169 -45.339 Q71.361 -47.114 67.857 -47.114 Z M28.897 -23.395 H35.505 V-31.926 H44.036 V-38.534 H35.505 V-47.114 H28.897 V-38.534 H20.366 V-31.926 H28.897 V-23.395 Z"/></g><g id="Light-S" transform="matrix(1 0 0 1 1109.75 696)"><path d="M12.237 -14.14 V-56.332 H26.288 L58.238 -24.381 H51.543 L12.495 -63.429 L15.833 -66.786 L78.847 -3.773 L75.509 -0.415 L61.785 -14.14 H12.237 Z M35.676 -56.369 H82.492 V-13.828 H78.218 L35.676 -56.369 Z M68.009 -46.128 Q65.871 -46.128 64.616 -44.375 Q63.363 -42.621 63.363 -40.286 Q63.363 -38.345 64.708 -36.992 Q66.053 -35.639 67.994 -35.639 Q71.02 -35.639 73.619 -36.639 Q76.218 -37.639 76.218 -40.271 Q76.218 -43.099 73.676 -44.614 Q71.133 -46.128 68.009 -46.128 Z M29.789 -24.381 H34.519 V-32.875 H43.011 V-37.605 H34.519 V-46.128 H29.789 V-37.605 H21.315 V-32.875 H29.789 V-24.381 Z"/></g><g id="Thin-S" transform="matrix(1 0 0 1 814.015 696)"><path d="M14.02 -15.979 V-54.454 H28.167 L57.252 -25.367 H53.231 L14.979 -63.619 L16.971 -65.648 L77.709 -4.911 L75.717 -2.881 L62.619 -15.979 H14.02 Z M37.572 -54.53 H80.71 V-15.554 H76.548 L37.572 -54.53 Z M68.161 -45.142 Q66.401 -45.142 65.423 -43.654 Q64.444 -42.166 64.444 -40.21 Q64.444 -38.647 65.51 -37.57 Q66.575 -36.493 68.137 -36.493 Q70.783 -36.493 73.122 -37.213 Q75.46 -37.933 75.46 -40.186 Q75.46 -42.636 73.183 -43.888 Q70.905 -45.142 68.161 -45.142 Z M30.68 -25.367 H33.532 V-33.823 H41.988 V-36.675 H33.532 V-45.142 H30.68 V-36.675 H22.263 V-33.823 H30.68 V-25.367 Z"/></g><g id="Ultralight-S" transform="matrix(1 0 0 1 517.792 696)"><path d="M15.09 -17.083 V-53.328 H29.295 L56.66 -25.959 H54.244 L16.47 -63.733 L17.654 -64.965 L77.026 -5.593 L75.843 -4.36 L63.12 -17.083 H15.09 Z M38.71 -53.426 H79.64 V-16.59 H75.547 L38.71 -53.426 Z M68.251 -44.55 Q66.72 -44.55 65.906 -43.222 Q65.093 -41.893 65.093 -40.164 Q65.093 -38.83 65.99 -37.918 Q66.888 -37.005 68.223 -37.005 Q70.641 -37.005 72.823 -37.558 Q75.004 -38.111 75.004 -40.136 Q75.004 -42.357 72.887 -43.453 Q70.769 -44.55 68.251 -44.55 Z M31.215 -25.959 H32.941 V-34.392 H41.373 V-36.118 H32.941 V-44.55 H31.215 V-36.118 H22.832 V-34.392 H31.215 V-25.959 Z"/></g></g></svg>