<svg xmlns="http://www.w3.org/2000/svg" height="48" viewBox="0 -960 960 960" width="48"><path d="M215.66-161.04q-22.23 0-38.42-16.2-16.2-16.19-16.2-38.42v-528.68q0-22.23 16.2-38.42 16.19-16.2 38.42-16.2h528.68q22.23 0 38.42 16.2 16.2 16.19 16.2 38.42v528.68q0 22.23-16.2 38.42-16.19 16.2-38.42 16.2H215.66Zm142.69-405.61v192.34q0 7.1 4.41 10.88 4.42 3.78 10.7 3.78 6.27 0 10.67-3.78 4.41-3.78 4.41-10.88v-192.34h113.11l73.43 197.04q1.15 3.69 4.8 6.82 3.65 3.14 9.14 3.14h13.12q4.78 0 8.73-3.11 3.94-3.1 5.83-6.6L695-576.33q2.23-6.42-2.06-13.47-4.28-7.05-12.52-7.05-3.69 0-7.48 2.75-3.79 2.75-4.59 6.37L595.5-400.69l-67.58-178.16q-3.11-8.5-10.24-13.25-7.13-4.75-15.6-4.75H263.69q-7.09 0-11.32 4.23-4.22 4.22-4.22 11.33 0 7.1 4.22 10.87 4.23 3.77 11.32 3.77h94.66Z"/></svg>