<svg xmlns="http://www.w3.org/2000/svg" height="40" viewBox="0 -960 960 960" width="40"><path d="M805.82-55.3 48.42-811.46l46.82-47.42L852.4-102.12 805.82-55.3ZM711.8-463.99Zm208.39 67.4H732.67q-2.8-17.71-8.26-34.49-5.46-16.77-12.61-32.91h133.56q-.84-10.01-7.19-18.85-6.35-8.84-16.3-13.73-31.56-15.82-65.46-23.67-33.9-7.85-69.27-8.83-4.82 0-9.22.16-4.41.17-9.22.5-16.17-18.08-35.04-32.91-18.86-14.82-40.04-25.9 20.55-4.78 42.52-7.33 21.98-2.56 43.93-2.56 48 0 93.26 11.22 45.26 11.22 87.05 33.08 28.02 14.94 43.92 38.5 15.89 23.56 15.89 51.51v66.21ZM679.58-640.26q-49.82 0-84.82-35.14-35-35.15-35-84.97t35.14-84.82q35.15-35 84.97-35t84.82 35.14q35 35.15 35 84.97t-35.14 84.82q-35.15 35-84.97 35Zm.16-67.32q21.95 0 37.29-15.35 15.34-15.34 15.34-37.29 0-21.81-15.35-37.23-15.35-15.42-37.31-15.42-21.95 0-37.29 15.41-15.34 15.42-15.34 37.31t15.35 37.23q15.35 15.34 37.31 15.34Zm-.02-52.64ZM248.2-463.99Zm-208.23 67.4v-66.21q0-27.93 15.79-51.47t44.2-38.54q41.45-21.86 86.71-33.08 45.26-11.22 93.61-11.22 17.72 0 34.9 1.78 17.19 1.78 35.14 4.61l.17 67.39q-17.62-2.83-35.27-4.53-17.64-1.69-35.18-1.69-37.28 0-72.9 8.22-35.62 8.22-69.01 24.76-9.91 4.96-16.23 13.74-6.32 8.79-7.1 18.84h133.4q-7.15 16.14-12.61 32.91-5.46 16.78-7.9 34.49H39.97Zm326.46-280.93L197.57-846.38q16.39-15.74 37.46-25.02 21.08-9.29 44.92-9.29 50.25.5 85.27 35.6 35.02 35.1 35.02 84.77 0 24.05-8.95 45.23-8.96 21.18-24.86 37.57Zm113.64 392.56q-30.18 0-51.74-21.59-21.55-21.58-21.55-51.89v-117.11q0-14.92 5.81-27.74 5.82-12.81 15.46-22.86l125.44 125.52v42.19q0 30.31-21.61 51.89-21.61 21.59-51.81 21.59ZM454.99-79.97v-82.2q-72.68-9.2-121.77-63.96-49.1-54.76-49.1-130.48h50.44q0 60.49 42.36 103.15 42.36 42.66 103.09 42.66 54.49 0 93.96-34.82 39.47-34.82 48.31-86.38l42.21 42.3q-17.88 51.42-60.78 85.87-42.91 34.45-98.28 41.44v82.42h-50.44Z"/></svg>