<svg xmlns="http://www.w3.org/2000/svg" height="40" width="40"><path d="M36.667 3.333v14.875q-1.375-1.083-3.063-1.666-1.687-.584-3.437-.584-1.042 0-2.042.188-1 .187-1.958.562v-2.375l-8.792-6.208V3.333ZM28.917 11h2.333V8.667h-2.333Zm1.25 22.333q-2.709 0-4.605-1.895-1.895-1.896-1.895-4.605 0-2.708 1.895-4.625 1.896-1.916 4.605-1.916 2.708 0 4.604 1.916 1.896 1.917 1.896 4.625 0 2.709-1.896 4.605-1.896 1.895-4.604 1.895Zm-.584-1.583h1.209v-4.333h4.291V26.25h-4.291v-4.292h-1.209v4.292h-4.291v1.167h4.291ZM3.333 30V15.958l9.875-7.041 9.875 7.041v2.584q-1.791 1.583-2.791 3.729t-1 4.562q0 .792.146 1.584.145.791.395 1.583h-3.541v-8.208h-6.167V30Z"/></svg>