<svg xmlns="http://www.w3.org/2000/svg" height="48" viewBox="0 -960 960 960" width="48"><path d="M748.12-671Q699-671 665-705.18q-34-34.17-34-83 0-48.82 34.18-83.32 34.17-34.5 83-34.5 48.82 0 83.32 34.38 34.5 34.38 34.5 83.5T831.62-705q-34.38 34-83.5 34ZM561-732H101q-20.1 0-33.05-13.68Q55-759.35 55-779.33q0-19.99 13.63-33.33Q82.25-826 102-826h453q-2 10-3 19.32t-1 18.63q0 14.48 2.5 28.77Q556-745 561-732Zm-8 597q-19.97 0-33.49-13.68Q506-162.35 506-182.42t13.63-32.83Q533.25-228 553-228h259v-377q28-8 52.36-25.12Q888.71-647.23 906-671v442q0 39.05-27.77 66.52Q850.46-135 811-135H553ZM240.33-55Q224-55 212.5-66.13 201-77.25 201-94v-159H92q-30.16 0-44.58-26Q33-305 48-332l69-123v-91H94q-16.75 0-27.87-11.87Q55-569.74 55-586.37 55-603 66.13-614.5 77.25-626 94-626h294q16.48 0 28.24 11.87Q428-602.26 428-585.63q0 16.63-11.76 28.13T388-546h-23v91l69 122q15 27 .58 53.5T390-253H280v159q0 16.75-11.67 27.87Q256.67-55 240.33-55ZM140-333h202l-56-97v-102h-89v102l-57 97Zm101 0Z"/></svg>