<svg xmlns="http://www.w3.org/2000/svg" height="24" viewBox="0 -960 960 960" width="24"><path d="M193.566-80.087q-46.994 0-80.237-32.5-33.242-32.5-33.242-80.109v-488.825q0-21.306 7.63-41.392 7.63-20.086 20.997-36.889l66.721-80.546q16.245-20.524 40.494-30.327 24.25-9.804 49.985-9.804h428.172q25.688 0 49.235 9.718 23.548 9.717 40.244 29.413l67.286 79.676q13.801 16.803 21.432 36.939 7.63 20.136 7.63 42.343v187.172q-27.695-13.13-57.589-19.413-29.893-6.282-61.889-6.282-26.372 0-51.86 4.652t-49.923 13.956v-97.911H301.348v335.651L480-353.391l20.999 10.782q-9.565 23.566-14.565 48.588-5 25.021-5 52.328 0 44.113 13.435 84.794 13.435 40.682 38.869 76.813H193.566Zm505.955 19.218v-120h-120v-122.957h120v-120h122.958v120h120v122.957h-120v120H699.521ZM233.914-717.52h493.172l-34-40H266.759l-32.845 40Z"/></svg>