<svg xmlns="http://www.w3.org/2000/svg" height="24" width="24"><path d="M5.625 14.4V15.375Q5.625 15.8 5.35 16.075Q5.075 16.35 4.65 16.35Q4.25 16.35 3.963 16.075Q3.675 15.8 3.675 15.375V8.15L5.7 2.4Q5.8 2.1 6.075 1.912Q6.35 1.725 6.7 1.725H17.35Q17.675 1.725 17.938 1.912Q18.2 2.1 18.3 2.4L20.325 8.15V15.375Q20.325 15.8 20.038 16.075Q19.75 16.35 19.325 16.35Q18.925 16.35 18.65 16.075Q18.375 15.8 18.375 15.375V14.4ZM5.65 6.75H18.35L17.075 3.125H6.925ZM5.075 8.15V13ZM7.5 11.825Q8.025 11.825 8.4 11.45Q8.775 11.075 8.775 10.55Q8.775 10.025 8.4 9.662Q8.025 9.3 7.5 9.3Q6.975 9.3 6.6 9.662Q6.225 10.025 6.225 10.55Q6.225 11.075 6.6 11.45Q6.975 11.825 7.5 11.825ZM16.5 11.825Q17.025 11.825 17.4 11.45Q17.775 11.075 17.775 10.55Q17.775 10.025 17.4 9.662Q17.025 9.3 16.5 9.3Q15.975 9.3 15.6 9.662Q15.225 10.025 15.225 10.55Q15.225 11.075 15.6 11.45Q15.975 11.825 16.5 11.825ZM12.9 22.675 7.5 19.95H11.1V18.125L16.5 20.85H12.9ZM5.075 13H18.925V8.15H5.075Z"/></svg>