<svg xmlns="http://www.w3.org/2000/svg" height="48" width="48"><path d="M9.8 28.8v2.75q0 .55-.4.95-.4.4-.95.4-.55 0-.925-.4t-.375-.95v-15.1l4.1-12.2q.1-.5.575-.8.475-.3 1.025-.3h22.4q.55 0 .975.3.425.3.525.8l4.1 12.2v15.1q0 .55-.4.95-.4.4-.95.4-.55 0-.925-.4t-.375-.95V28.8Zm.4-14.55h27.6l-3-8.9H13.2Zm4.25 9.65q1 0 1.675-.7t.675-1.65q0-1.05-.7-1.75t-1.65-.7q-1.05 0-1.75.675T12 21.5q0 1.05.7 1.725t1.75.675Zm19.15 0q1.05 0 1.75-.7t.7-1.65q0-1.05-.7-1.75t-1.75-.7q-1 0-1.7.675t-.7 1.725q0 1.05.725 1.725t1.675.675Zm-7.9 21.65L15.3 40.1h6.85v-3.55l10.55 5.3h-7Z"/></svg>