<svg xmlns="http://www.w3.org/2000/svg" height="40" viewBox="0 96 960 960" width="40"><path d="M140.717 543.986q-11.725-11.926-11.725-28.64 0-16.715 11.578-28.299l119.024-118.663-49.413-50.08-22.856 23.298q-12.293 11.905-28.72 11.905-16.426 0-28.063-11.8-12.101-11.668-12.101-28.097 0-16.429 12.027-28.577l102.51-102.744q11.768-11.95 28.195-11.95 16.426 0 28.588 12.211 11.391 11.543 11.391 28.079t-11.319 27.74l-23.616 24.773 49.747 49.205 119.652-120.319q11.868-11.616 28.433-11.616 16.565 0 28.437 11.616 11.282 11.994 11.282 28.559t-11.282 28.311l-27.181 27.181 315.529 314.863q24.616 25.05 24.616 60.115t-24.616 59.886l-32.732 31.811L894.74 890.667q9.782 9.783 4.672 23.268-5.11 13.486-19.394 13.486h-34.767q-12.417 0-23.921-4.788-11.503-4.788-20.863-14.043L691.732 799.856l-32.543 32.377q-25.169 24.572-59.982 24.572t-60.396-24.572l-314.529-315.53-26.782 27.181q-11.54 12.305-28.243 12.305t-28.54-12.203Zm139.5-83.319L598.384 778.5l128.66-127.485-71.109-71.21-54.231 54.796q-11.893 12.557-28.085 12.42-16.191-.137-28.271-11.775-11.696-11.924-11.696-28.611 0-16.686 11.783-28.259l54.609-54.63-63.761-64.26-54.797 54.231q-11.882 12.681-28.572 12.681-16.691 0-28.281-12.539-12.031-10.858-12.031-27.618 0-16.76 11.905-28.835l54.406-54.124-70.5-71.376-128.196 128.761ZM275.55 456l128.196-128.761L275.55 456Z"/></svg>