<svg xmlns="http://www.w3.org/2000/svg" height="20" width="20"><path d="M11.062 9.792H12.292Q12.292 9.229 12.406 8.948Q12.521 8.667 12.958 8.229Q13.542 7.625 13.75 7.26Q13.958 6.896 13.958 6.396Q13.958 5.479 13.312 4.917Q12.667 4.354 11.646 4.354Q10.854 4.354 10.24 4.813Q9.625 5.271 9.396 6.042L10.5 6.5Q10.667 6.021 10.958 5.76Q11.25 5.5 11.646 5.5Q12.125 5.5 12.427 5.781Q12.729 6.062 12.729 6.5Q12.729 6.771 12.583 7.01Q12.438 7.25 12.021 7.625Q11.438 8.188 11.25 8.562Q11.062 8.938 11.062 9.792ZM11.708 12.354Q12.083 12.354 12.323 12.104Q12.562 11.854 12.562 11.479Q12.562 11.104 12.323 10.865Q12.083 10.625 11.708 10.625Q11.333 10.625 11.083 10.865Q10.833 11.104 10.833 11.479Q10.833 11.854 11.083 12.104Q11.333 12.354 11.708 12.354ZM6.812 14.833Q6.125 14.833 5.646 14.354Q5.167 13.875 5.167 13.188V3.521Q5.167 2.833 5.646 2.354Q6.125 1.875 6.812 1.875H16.479Q17.167 1.875 17.646 2.354Q18.125 2.833 18.125 3.521V13.188Q18.125 13.875 17.646 14.354Q17.167 14.833 16.479 14.833ZM3.521 18.125Q2.833 18.125 2.354 17.646Q1.875 17.167 1.875 16.479V5.167H3.521V16.479Q3.521 16.479 3.521 16.479Q3.521 16.479 3.521 16.479H14.833V18.125Z"/></svg>