<svg xmlns="http://www.w3.org/2000/svg" height="48" viewBox="0 -960 960 960" width="48"><path d="M461.58-201.04q-12.06 0-19.51-7.89-7.45-7.9-7.45-19.95l-.39-247.2-57.15-58.04H170.77q-12.06 0-19.95-7.45-7.9-7.45-7.9-19.51v-143.07q0-13.65 5.16-24.67 5.15-11.01 15.07-19.22l-47.53-47.54q-4.39-3.5-4.77-10-.39-6.5 4.77-11.65 4.26-4.27 10.38-4.27 6.12 0 11.27 4.27l660.85 660.85q3.5 4.38 3.88 10.88.39 6.5-3.88 10.77-5.16 5.15-11.27 5.15-6.12 0-10.39-5.15l-87.42-87.42q-9.1 9.92-19.37 15.52-10.27 5.59-23.86 5.59H461.58Zm239.27-152.58L295.5-758.96h350.54q22.02 0 38.41 16.39 16.4 16.4 16.4 38.42v201.92l96.96-96.97q5.88-5.88 14.94-2.75 9.06 3.14 9.06 12.1v219.58q0 8.97-9.06 12.1-9.06 3.13-14.94-2.75l-96.96-97.73v105.03ZM202.39-158.54q-11.51 0-21.45-4.02t-16.86-11.82l-77.12-76.74.69-1.73q2.5-2.91 6.31-5.09 3.82-2.18 8.42-2.18 5.04 0 10.91 2.04 5.86 2.04 9.56 5.46l35.61 36.89v-185.92q0-5.53 3.84-9.38 3.84-3.85 9.07-3.85 5.48 0 9.08 3.85 3.59 3.85 3.59 9.38v90.03h26.15v-138.5q0-5.52 3.84-9.37 3.84-3.86 9.07-3.86 5.48 0 9.08 3.86 3.59 3.85 3.59 9.37v138.5h26.15V-425.5q0-5.53 3.84-9.38 3.84-3.85 9.07-3.85 5.49 0 9.08 3.85t3.59 9.38v113.88h26.15v-81.57q0-5.53 3.84-9.38 3.84-3.85 9.07-3.85 5.49 0 9.08 3.85t3.59 9.38v179.84q0 22.27-16.36 38.54-16.37 16.27-38.45 16.27h-82.03Z"/></svg>