<svg xmlns="http://www.w3.org/2000/svg" height="48" viewBox="0 -960 960 960" width="48"><path d="M538.65-691.69q0-7.18 2.48-12.9 2.48-5.71 7.96-11.19l105.52-106.76q9.75-9.48 23.19-9.48 13.44 0 22.66 9.48 8.98 9.71 9.48 22.67t-8.98 22.44l-53.13 53.13h174.41q13.72 0 22.43 9.34 8.72 9.34 8.72 23.05 0 13.7-9.22 22.93-9.21 9.22-22.93 9.22H647.83l53.13 53.37q9.48 9.78 9.48 22.97 0 13.18-9.48 22.9-9.72 9.72-23.3 9.22-13.57-.5-23.05-10.22L549.09-667.04q-5.39-4.91-7.91-11.31-2.53-6.4-2.53-13.34Zm-222.12-48.94q-30.16 0-51.52-21.16-21.36-21.15-21.36-51.31 0-29.92 21.16-51.52 21.15-21.6 51.31-21.6 29.92 0 51.52 21.4 21.6 21.39 21.6 51.31 0 30.16-21.4 51.52-21.39 21.36-51.31 21.36ZM774.11-88.78q-11.96 6-24.68 2.52-12.71-3.48-18.95-15.2l-104-181.74H354.15q-23.33 0-41.33-14.57-18-14.58-22.21-37.25l-45.76-234.41q-8.24-44.48 19.94-78.46t72.25-33.98q32.79 0 58.85 20.5 26.07 20.5 35.31 52.74l61.04 217.26h113.39q18.02 0 32.84 8.59 14.82 8.6 23.23 23.8l126.04 226.09q6.24 12.19 2.52 25.15-3.72 12.96-16.15 18.96Zm-561.7 14.76q-25.61 0-45.62-14.98-20.01-14.98-26.01-39.17L40.59-518.48q-4-12.76-6-27.62-2-14.86-2-32.33 0-27.39 6.62-54.53 6.62-27.15 18.86-53.39 8.31-17.11 23.39-27.13t33.45-10.02q21.22 0 35.68 14.72 14.45 14.71 14.45 36.17 0 10.05-3.62 19.23t-10.09 14.66q-20.53 21.76-25.41 52.4-4.88 30.65 8.88 59.65l16.77 43.47q38.19 89.35 54.69 152.99 16.5 63.64 16.5 120.69v53.04q8.76-13.24 24.88-19.98 16.12-6.74 36.84-6.74h257.13q22.92 0 38.75 15.9 15.84 15.9 15.84 38.51 0 22.86-15.84 38.81-15.83 15.96-38.75 15.96h-329.2Z"/></svg>