<svg xmlns="http://www.w3.org/2000/svg" height="40" viewBox="0 -960 960 960" width="40"><path d="M781.32-162.82H179.4q-7.17 0-11.87-4.74-4.71-4.74-4.71-11.6 0-6.87 4.71-11.48 4.7-4.62 11.87-4.62h601.92q6.34 0 11.1 4.8 4.76 4.79 4.76 11.19 0 7.22-4.76 11.83-4.76 4.62-11.1 4.62ZM219.73-295.38q-23.45 0-40.18-16.74-16.73-16.73-16.73-40.32v-387.69q0-23.59 16.73-40.32t40.18-16.73h520.54q23.45 0 40.18 16.73t16.73 40.32v387.69q0 23.59-16.73 40.32-16.73 16.74-40.18 16.74H219.73Zm.14-32.44h520.26q10.77 0 17.69-6.92 6.92-6.93 6.92-17.7v-387.69q0-10.77-6.92-17.69-6.92-6.92-17.69-6.92H219.87q-10.77 0-17.69 6.92-6.92 6.92-6.92 17.69v387.69q0 10.77 6.92 17.7 6.92 6.92 17.69 6.92Zm-24.61 0v-436.92 436.92Z"/></svg>