<svg xmlns="http://www.w3.org/2000/svg" height="24" viewBox="0 -960 960 960" width="24"><path d="M397.6-387.67q22.83 0 38.81-15.98 15.98-15.98 15.98-38.94v-118.54q0-22.71-15.98-38.69-15.98-15.98-38.69-15.98-22.96 0-38.94 16.14-15.98 16.15-15.98 38.77v118.54q0 23.05 15.98 38.86 15.98 15.82 38.82 15.82Zm-223.67-55.09q-51-27.72-80.14-77.04-29.14-49.33-29.14-107.15 0-85.28 56.3-146.84 56.29-61.56 138.96-61.56 13.37 0 25.87.88 12.5.88 25.79 4.4 28.47-41.76 72.95-63.52 44.48-21.76 95.6-21.76t95.6 21.76q44.48 21.76 72.95 63.52 12.53-3.28 24.75-4.28 12.23-1 25.16-1 83.36 0 140.06 61.72 56.71 61.72 56.71 147.2 0 57.82-29.22 107.2-29.23 49.38-79.59 76.47v223.33H173.93v-223.33ZM563-387.67q22.96 0 38.82-15.98 15.85-15.98 15.85-38.94v-118.54q0-22.71-15.81-38.69-15.81-15.98-38.74-15.98-22.84 0-38.94 16.14-16.09 16.15-16.09 38.77v118.54q0 23.05 16.14 38.86 16.15 15.82 38.77 15.82Zm-275.89 57.45h386.26V-512.3l54.91-26.96q24.81-12.52 39.47-36.33 14.66-23.8 14.66-51.4 0-39.98-29.16-67.2-29.17-27.22-69.77-27.22-7.95 0-15.56.82-7.6.83-15.51 3.37l-55.08 16.29-26.61-45.9q-14.24-24.71-38.22-40.03-23.98-15.31-52.38-15.31-30.4 0-54.64 17.95-24.24 17.96-39.24 44.2l-22.81 39.09-55.84-16.29q-6.72-2.48-13.96-3.33-7.25-.86-14.87-.86-41.33 0-71.13 27.65-29.8 27.66-29.8 67.71 0 27.66 15.04 51.08 15.04 23.43 39.61 35.71l54.63 26.96v182.08ZM173.93-219.43h113.18v61.6h386.26v-61.6h113.17v61.6q0 47.87-32.48 80.53-32.49 32.65-80.69 32.65H287.11q-48.21 0-80.69-32.65-32.49-32.66-32.49-80.53v-61.6Zm306.31-110.79Z"/></svg>