<svg xmlns="http://www.w3.org/2000/svg" height="20" viewBox="0 96 960 960" width="20"><path d="M116.5 812.5q-12.5-11-23.929-20.607Q81.143 782.286 68.5 774.5 102 741 121.25 703t19.25-87.5v-124h310V655H199q-4.5 46.5-27.75 85t-54.75 72.5ZM204 613h184v-79.5H204V613ZM84 544q-4-11.5-8.432-23.5T61.5 498q60-29 115.25-65.75T276 346.5h42q46.5 46.5 101.75 81.25T532 495.5q-9 10.5-14.5 21.25t-10.325 23.75q-55-30.941-108.087-62.971Q346 445.5 296 404.5q-45.838 45.6-100.419 78.55Q141 516 84 544Zm95.5 246V676.5h287V790h-62v-79h-162v79h-63Zm56-315.5v-43h129v43h-129Zm-75 119v-41h274v41h-274Zm33 182.5v-43h250v43h-250ZM707 708q20.537 0 45.519-12.25Q777.5 683.5 801 661.5V583q-19.5 3-37.393 7.865Q745.714 595.731 728.5 602 693 614 677 629.25t-16 35.231Q661 684 674.25 696T707 708Zm-23.5 80q-51 0-83.75-30.657T567 674q0-52.178 34.5-86.839T704 532.5q20.209-6.3 42.209-10.55 22-4.25 53.791-8.95-3-36-18.5-53.25t-48-17.25q-25.5 0-52 10.5T622 488l-43-72.5q40.5-31.5 84.75-47T746.5 353q71 0 109.25 46T894 530.544V779h-79l-7-42q-28 25.5-61.25 38.25T683.5 788Z"/></svg>