<svg xmlns="http://www.w3.org/2000/svg" height="48" viewBox="0 96 960 960" width="48"><path d="M104.478 818.044q-8.826-9.131-17.022-16.261-8.196-7.131-17.891-13.261 35.565-34.435 54.282-67.739 18.718-33.304 18.718-83.304V499.043h313.478v152.74h-270q-3 48.565-24.13 91.283-21.131 42.717-57.435 74.978Zm84.565-197.653h220.522v-89.956H189.043v89.956ZM82.565 539.957q-3.87-9.131-8.37-18.109-4.5-8.978-11.63-16.544 62.13-29.13 117.826-67.63 55.696-38.5 97.391-93.065h40.566q43.13 54 100.913 89.847Q477.043 470.304 539.043 500q-7.565 8.565-12.782 17.478-5.218 8.913-10.218 18.479-61-29.131-118.065-64.631t-101.326-86.369q-42.131 53-96.826 90.934-54.696 37.935-117.261 64.066Zm93.261 266.608V682.913h292.478v123.652h-46.478v-95.652H222.304v95.652h-46.478Zm41.696-328.087v-29.957h173.086v29.957H217.522Zm-53.957 112.479v-30.522h275.478v30.522H163.565Zm20.261 200.608v-32.522h260.478v32.522H183.826Zm528.087-62.348q27.478 0 57.065-13.587 29.587-13.587 56.152-38.76V566.044q-27.304 4-47.608 8.5t-39.174 10.5q-46.608 14.869-68.782 35.826-22.174 20.956-22.174 49 0 26.739 17.739 43.043t46.782 16.304Zm-16.826 60.044q-53.435 0-85.935-30.717-32.5-30.718-32.5-83.283 0-50 34.848-84.631 34.848-34.63 105.848-55.76 20.304-6 46.543-10.935Q790.13 519 825.13 514q0-51.478-16.521-76.282-16.522-24.805-60-24.805-25.435 0-53.282 10.066-27.848 10.065-65.283 34.195l-30.087-52.609q37.826-26.261 79.239-40.326 41.413-14.065 81.413-14.065 70.131 0 102.979 43.63 32.847 43.631 32.847 124.457v262h-60.174l-6-45.609q-30 26.87-65.935 40.739-35.935 13.87-69.239 13.87Z"/></svg>