<svg xmlns="http://www.w3.org/2000/svg" height="40" viewBox="0 -960 960 960" width="40"><path d="M199.74-102.26V-295.1h73.57v192.84h-73.57Zm199.98 0v-519.5q-62.14 20.34-97.88 61.43-35.74 41.1-42.66 118.51h-32.44q6.93-107.59 74.26-162.73 67.34-55.14 179.7-55.14 107.01 0 164.83-30.55 57.83-30.54 62.44-131.97h32.44q-2.31 86.28-46.36 134.53-44.05 48.24-130.84 56.52v528.9h-32.44V-341.1h-98.62v238.84h-32.43Zm81.15-630.61q-27.47 0-46.27-18.98-18.81-18.99-18.81-45.97 0-26.99 18.75-46.05 18.75-19.05 45.97-19.05t46.28 18.98q19.06 18.98 19.06 45.97 0 26.98-18.99 46.04t-45.99 19.06Z"/></svg>