<svg xmlns="http://www.w3.org/2000/svg" height="48" viewBox="0 -960 960 960" width="48"><path d="m420.38-393.96 53.81 16.42q4.12 1.5 7.98-1.52 3.87-3.02 3.87-7.33v-4.53q0-2.31-3.93-7.73l-41.76-27.27v-134.12l135.46 44.92q3.84 2.5 8.23-.76 4.38-3.27 4.38-9.31v-3.35q0-1.69-4.54-8.08l-143.53-83.03v-95.66q0-8.57-5.85-15.27-5.85-6.69-14.12-6.69-7.88 0-13.38 6.69-5.5 6.7-5.5 15.27v95.66l-143.31 82.84q-.69 1.39-5.15 9.27v1.62q0 5.07 4.35 8.54 4.34 3.46 9.88 1.26l134.23-43.92v134.12l-41.15 26.65q-1.23.62-4.93 9.35v1.73q0 5.73 4.23 8.15t9.35 1.5l51.38-15.42Zm163.77 290.88q-8.8 0-15.38-6.73t-6.58-16.23q0-3.77 1.43-7.36 1.42-3.6 4.38-7.64 83.08-85.85 155.62-192.5 72.53-106.65 72.53-216.42 0-77.96-29.42-151.04t-74.92-122.27q-2.85-2.27-4.12-5.67-1.27-3.41-1.27-7.75 0-9.62 6.29-16.25 6.29-6.64 15.91-6.64 4.34 0 8.57 2.22 4.23 2.21 7.58 4.94 48.19 47.73 81.71 130.23Q840-639.69 840-549.96q0 109.65-74.48 223.57Q691.04-212.46 600.69-111q-2.73 3.34-7.46 5.63t-9.08 2.29Zm-166.07-17.58q-9.16 0-18-2.67-8.85-2.67-16.08-9.71-32.81-29.77-78.63-75.13-45.83-45.37-87.1-100.45-41.27-55.07-70.15-117.05-28.89-61.98-28.89-124.29 0-137.04 88.56-222.1 88.56-85.05 210.29-85.05 121.73 0 210.28 85.05 88.56 85.06 88.56 222.1 0 86.19-64.36 188.38-64.37 102.19-200.02 228.16-7.23 7.03-16.27 9.9-9.04 2.86-18.19 2.86Z"/></svg>