<svg xmlns="http://www.w3.org/2000/svg" version="1.1" width="3300" height="2000"><g id="Notes"><style>
    text {
      font-family: monospace;
      text-anchor: middle;
    }
    text.emphasis {
      font-weight:bold;
    }
    text.lanchor {
      text-anchor: start;
    }
  </style><rect height="2200" id="artboard" fill="white" width="3300" x="0" y="0"/><line id="" style="fill:none;stroke:black;stroke-width:0.5;" x1="263" x2="3036" y1="292" y2="292"/><text class="lanchor emphasis" transform="matrix(1 0 0 1 263 322)">Weight/Scale Variations</text><text transform="matrix(1 0 0 1 559.711 322)">Ultralight</text><text transform="matrix(1 0 0 1 856.422 322)">Thin</text><text transform="matrix(1 0 0 1 1153.13 322)">Light</text><text transform="matrix(1 0 0 1 1449.84 322)">Regular</text><text transform="matrix(1 0 0 1 1746.56 322)">Medium</text><text transform="matrix(1 0 0 1 2043.27 322)">Semibold</text><text transform="matrix(1 0 0 1 2339.98 322)">Bold</text><text transform="matrix(1 0 0 1 2636.69 322)">Heavy</text><text transform="matrix(1 0 0 1 2933.4 322)">Black</text><text id="template-version" style="text-anchor: end;" transform="matrix(1 0 0 1 3036 1933)">Template v.1.0</text><text class="lanchor" transform="matrix(1 0 0 1 263 726)">Small</text><text class="lanchor" transform="matrix(1 0 0 1 263 1156)">Medium</text><text class="lanchor" transform="matrix(1 0 0 1 263 1586)">Large</text></g><g id="Guides"><g id="H-reference" style="fill:#27AAE1;stroke:none;" transform="matrix(1 0 0 1 339 696)"><path d="M 54.9316 0 L 57.666 0 L 30.5664 -70.459 L 28.0762 -70.459 L 0.976562 0 L 3.66211 0 L 12.9395 -24.4629 L 45.7031 -24.4629 Z M 29.1992 -67.0898 L 29.4434 -67.0898 L 44.8242 -26.709 L 13.8184 -26.709 Z"/></g><line id="Baseline-S" style="fill:none;stroke:#27AAE1;opacity:1;stroke-width:0.577;" x1="263" x2="3036" y1="696" y2="696"/><line id="Capline-S" style="fill:none;stroke:#27AAE1;opacity:1;stroke-width:0.577;" x1="263" x2="3036" y1="625.541" y2="625.541"/><g id="H-reference" style="fill:#27AAE1;stroke:none;" transform="matrix(1 0 0 1 339 1126)"><path d="M 54.9316 0 L 57.666 0 L 30.5664 -70.459 L 28.0762 -70.459 L 0.976562 0 L 3.66211 0 L 12.9395 -24.4629 L 45.7031 -24.4629 Z M 29.1992 -67.0898 L 29.4434 -67.0898 L 44.8242 -26.709 L 13.8184 -26.709 Z"/></g><line id="Baseline-M" style="fill:none;stroke:#27AAE1;opacity:1;stroke-width:0.577;" x1="263" x2="3036" y1="1126" y2="1126"/><line id="Capline-M" style="fill:none;stroke:#27AAE1;opacity:1;stroke-width:0.577;" x1="263" x2="3036" y1="1055.54" y2="1055.54"/><g id="H-reference" style="fill:#27AAE1;stroke:none;" transform="matrix(1 0 0 1 339 1556)"><path d="M 54.9316 0 L 57.666 0 L 30.5664 -70.459 L 28.0762 -70.459 L 0.976562 0 L 3.66211 0 L 12.9395 -24.4629 L 45.7031 -24.4629 Z M 29.1992 -67.0898 L 29.4434 -67.0898 L 44.8242 -26.709 L 13.8184 -26.709 Z"/></g><line id="Baseline-L" style="fill:none;stroke:#27AAE1;opacity:1;stroke-width:0.577;" x1="263" x2="3036" y1="1556" y2="1556"/><line id="Capline-L" style="fill:none;stroke:#27AAE1;opacity:1;stroke-width:0.577;" x1="263" x2="3036" y1="1485.54" y2="1485.54"/><rect height="119.336" id="left-margin" style="fill:darkred;stroke:none;opacity:0.4;" width="12.4512" x="1394.06" y="1030.79"/><rect height="119.336" id="right-margin" style="fill:darkgreen;stroke:none;opacity:0.4;" width="12.4512" x="1502.5112" y="1030.79"/><rect x="1406.5112" y="1045" width="96" height="96" fill="none" stroke="blue" stroke-dasharray="5"/><rect x="1394.06" y="1030.79" width="120.9024" height="119.336" fill="none" stroke="blue"/></g><g id="Symbols"><g id="Bold-L" transform="matrix(1 0 0 1 2266 1556)"><path d="M67.403 -31.199  76.916 -21.685 Q78.218 -20.395 80.227 -20.395 Q82.237 -20.395 83.689 -21.685 L104.812 -42.809 V-35.069 Q104.812 -33.134 106.204 -31.763 Q107.594 -30.392 109.65 -30.392 Q111.585 -30.392 113.036 -31.784 Q114.487 -33.174 114.487 -35.23 V-54.58 Q114.487 -56.515 113.036 -57.966 Q111.585 -59.417 109.65 -59.417 H90.139 Q88.204 -59.417 86.833 -57.966 Q85.463 -56.515 85.463 -54.499 Q85.463 -52.484 86.854 -51.113 Q88.244 -49.742 90.3 -49.742 H97.879 L80.303 -32.005 L70.789 -41.519 Q69.338 -42.97 67.327 -42.97 Q65.318 -42.97 64.016 -41.519 L44.344 -21.846 Q42.892 -20.395 42.892 -18.375 Q42.892 -16.356 44.407 -15.048 Q45.795 -13.622 47.806 -13.622 Q49.815 -13.622 51.116 -15.074 L67.403 -31.199 Z M30.476 26.368 Q24.481 26.368 20.142 22.028 Q15.803 17.689 15.803 11.694 V-82.154 Q15.803 -88.215 20.142 -92.601 Q24.481 -96.989 30.476 -96.989 H124.324 Q130.385 -96.989 134.771 -92.601 Q139.159 -88.215 139.159 -82.154 V11.694 Q139.159 17.689 134.771 22.028 Q130.385 26.368 124.324 26.368 H30.476 Z M30.476 11.694 H124.324 Q124.324 11.694 124.324 11.694 Q124.324 11.694 124.324 11.694 V-82.154 Q124.324 -82.154 124.324 -82.154 Q124.324 -82.154 124.324 -82.154 H30.476 Q30.476 -82.154 30.476 -82.154 Q30.476 -82.154 30.476 -82.154 V11.694 Q30.476 11.694 30.476 11.694 Q30.476 11.694 30.476 11.694 Z"/></g><g id="Semibold-L" transform="matrix(1 0 0 1 1970.27 1556)"><path d="M67.403 -31.199  76.916 -21.685 Q78.218 -20.395 80.227 -20.395 Q82.237 -20.395 83.689 -21.685 L104.812 -42.809 V-35.069 Q104.812 -33.134 106.204 -31.763 Q107.594 -30.392 109.65 -30.392 Q111.585 -30.392 113.036 -31.784 Q114.487 -33.174 114.487 -35.23 V-54.58 Q114.487 -56.515 113.036 -57.966 Q111.585 -59.417 109.65 -59.417 H90.139 Q88.204 -59.417 86.833 -57.966 Q85.463 -56.515 85.463 -54.499 Q85.463 -52.484 86.854 -51.113 Q88.244 -49.742 90.3 -49.742 H97.879 L80.303 -32.005 L70.789 -41.519 Q69.338 -42.97 67.327 -42.97 Q65.318 -42.97 64.016 -41.519 L44.344 -21.846 Q42.892 -20.395 42.892 -18.375 Q42.892 -16.356 44.407 -15.048 Q45.795 -13.622 47.806 -13.622 Q49.815 -13.622 51.116 -15.074 L67.403 -31.199 Z M29.846 25.737 Q24.444 25.737 20.438 21.732 Q16.433 17.726 16.433 12.324 V-82.784 Q16.433 -88.225 20.438 -92.256 Q24.444 -96.287 29.846 -96.287 H124.954 Q130.395 -96.287 134.426 -92.256 Q138.457 -88.225 138.457 -82.784 V12.324 Q138.457 17.726 134.426 21.732 Q130.395 25.737 124.954 25.737 H29.846 Z M29.846 12.324 H124.954 Q124.954 12.324 124.954 12.324 Q124.954 12.324 124.954 12.324 V-82.784 Q124.954 -82.784 124.954 -82.784 Q124.954 -82.784 124.954 -82.784 H29.846 Q29.846 -82.784 29.846 -82.784 Q29.846 -82.784 29.846 -82.784 V12.324 Q29.846 12.324 29.846 12.324 Q29.846 12.324 29.846 12.324 Z"/></g><g id="Medium-L" transform="matrix(1 0 0 1 1674.31 1556)"><path d="M67.403 -31.199  76.916 -21.685 Q78.218 -20.395 80.227 -20.395 Q82.237 -20.395 83.689 -21.685 L104.812 -42.809 V-35.069 Q104.812 -33.134 106.204 -31.763 Q107.594 -30.392 109.65 -30.392 Q111.585 -30.392 113.036 -31.784 Q114.487 -33.174 114.487 -35.23 V-54.58 Q114.487 -56.515 113.036 -57.966 Q111.585 -59.417 109.65 -59.417 H90.139 Q88.204 -59.417 86.833 -57.966 Q85.463 -56.515 85.463 -54.499 Q85.463 -52.484 86.854 -51.113 Q88.244 -49.742 90.3 -49.742 H97.879 L80.303 -32.005 L70.789 -41.519 Q69.338 -42.97 67.327 -42.97 Q65.318 -42.97 64.016 -41.519 L44.344 -21.846 Q42.892 -20.395 42.892 -18.375 Q42.892 -16.356 44.407 -15.048 Q45.795 -13.622 47.806 -13.622 Q49.815 -13.622 51.116 -15.074 L67.403 -31.199 Z M29.372 25.263 Q24.415 25.263 20.661 21.509 Q16.907 17.755 16.907 12.798 V-83.258 Q16.907 -88.231 20.661 -91.996 Q24.415 -95.762 29.372 -95.762 H125.428 Q130.401 -95.762 134.166 -91.996 Q137.932 -88.231 137.932 -83.258 V12.798 Q137.932 17.755 134.166 21.509 Q130.401 25.263 125.428 25.263 H29.372 Z M29.372 12.798 H125.428 Q125.428 12.798 125.428 12.798 Q125.428 12.798 125.428 12.798 V-83.258 Q125.428 -83.258 125.428 -83.258 Q125.428 -83.258 125.428 -83.258 H29.372 Q29.372 -83.258 29.372 -83.258 Q29.372 -83.258 29.372 -83.258 V12.798 Q29.372 12.798 29.372 12.798 Q29.372 12.798 29.372 12.798 Z"/></g><g id="Regular-L" transform="matrix(1 0 0 1 1378.56 1556)"><path d="M67.403 -31.199  76.916 -21.685 Q78.218 -20.395 80.227 -20.395 Q82.237 -20.395 83.689 -21.685 L104.812 -42.809 V-35.069 Q104.812 -33.134 106.204 -31.763 Q107.594 -30.392 109.65 -30.392 Q111.585 -30.392 113.036 -31.784 Q114.487 -33.174 114.487 -35.23 V-54.58 Q114.487 -56.515 113.036 -57.966 Q111.585 -59.417 109.65 -59.417 H90.139 Q88.204 -59.417 86.833 -57.966 Q85.463 -56.515 85.463 -54.499 Q85.463 -52.484 86.854 -51.113 Q88.244 -49.742 90.3 -49.742 H97.879 L80.303 -32.005 L70.789 -41.519 Q69.338 -42.97 67.327 -42.97 Q65.318 -42.97 64.016 -41.519 L44.344 -21.846 Q42.892 -20.395 42.892 -18.375 Q42.892 -16.356 44.407 -15.048 Q45.795 -13.622 47.806 -13.622 Q49.815 -13.622 51.116 -15.074 L67.403 -31.199 Z M29.025 24.916 Q24.392 24.916 20.824 21.346 Q17.254 17.778 17.254 13.145 V-83.605 Q17.254 -88.236 20.824 -91.806 Q24.392 -95.376 29.025 -95.376 H125.775 Q130.406 -95.376 133.976 -91.806 Q137.546 -88.236 137.546 -83.605 V13.145 Q137.546 17.778 133.976 21.346 Q130.406 24.916 125.775 24.916 H29.025 Z M29.025 13.145 H125.775 Q125.775 13.145 125.775 13.145 Q125.775 13.145 125.775 13.145 V-83.605 Q125.775 -83.605 125.775 -83.605 Q125.775 -83.605 125.775 -83.605 H29.025 Q29.025 -83.605 29.025 -83.605 Q29.025 -83.605 29.025 -83.605 V13.145 Q29.025 13.145 29.025 13.145 Q29.025 13.145 29.025 13.145 Z"/></g><g id="Light-L" transform="matrix(1 0 0 1 1082.77 1556)"><path d="M67.403 -32.874  77.04 -23.236 Q78.292 -21.946 80.233 -21.946 Q82.176 -21.946 83.565 -23.236 L105.991 -45.6 V-35.069 Q105.991 -33.63 107.041 -32.6 Q108.092 -31.571 109.65 -31.571 Q111.088 -31.571 112.199 -32.621 Q113.309 -33.672 113.309 -35.23 V-53.588 Q113.309 -55.46 111.92 -56.85 Q110.53 -58.239 108.658 -58.239 H90.139 Q88.7 -58.239 87.67 -57.129 Q86.641 -56.018 86.641 -54.53 Q86.641 -52.98 87.691 -51.95 Q88.742 -50.921 90.3 -50.921 H100.67 L80.303 -30.33 L70.665 -39.968 Q69.276 -41.357 67.333 -41.357 Q65.392 -41.357 64.14 -39.968 L45.15 -21.04 Q44.071 -19.898 44.071 -18.381 Q44.071 -16.864 45.213 -15.854 Q46.292 -14.738 47.799 -14.738 Q49.307 -14.738 50.31 -15.88 L67.403 -32.874 Z M31.878 21.691 Q27.322 21.691 23.9 18.27 Q20.479 14.848 20.479 10.292 V-80.752 Q20.479 -85.308 23.9 -88.73 Q27.322 -92.151 31.878 -92.151 H122.922 Q127.478 -92.151 130.9 -88.73 Q134.321 -85.308 134.321 -80.752 V10.292 Q134.321 14.848 130.9 18.27 Q127.478 21.691 122.922 21.691 H31.878 Z M31.878 12.276 H122.922 Q123.666 12.276 124.287 11.657 Q124.906 11.036 124.906 10.292 V-80.752 Q124.906 -81.496 124.287 -82.117 Q123.666 -82.736 122.922 -82.736 H31.878 Q31.134 -82.736 30.513 -82.117 Q29.894 -81.496 29.894 -80.752 V10.292 Q29.894 11.036 30.513 11.657 Q31.134 12.276 31.878 12.276 Z"/></g><g id="Thin-L" transform="matrix(1 0 0 1 787.282 1556)"><path d="M67.403 -34.548  77.165 -24.786 Q78.366 -23.496 80.24 -23.496 Q82.113 -23.496 83.44 -24.786 L107.17 -48.391 V-35.069 Q107.17 -34.125 107.879 -33.437 Q108.589 -32.75 109.65 -32.75 Q110.593 -32.75 111.362 -33.459 Q112.13 -34.169 112.13 -35.23 V-52.595 Q112.13 -54.406 110.803 -55.733 Q109.476 -57.06 107.665 -57.06 H90.139 Q89.195 -57.06 88.507 -56.292 Q87.82 -55.523 87.82 -54.561 Q87.82 -53.475 88.529 -52.787 Q89.239 -52.1 90.3 -52.1 H103.461 L80.303 -28.656 L70.54 -38.418 Q69.213 -39.745 67.34 -39.745 Q65.466 -39.745 64.265 -38.418 L45.956 -20.234 Q45.25 -19.403 45.25 -18.387 Q45.25 -17.373 46.019 -16.66 Q46.787 -15.856 47.793 -15.856 Q48.799 -15.856 49.504 -16.686 L67.403 -34.548 Z M34.73 18.466 Q30.25 18.466 26.977 15.193 Q23.704 11.92 23.704 7.44 V-77.9 Q23.704 -82.379 26.977 -85.653 Q30.25 -88.926 34.73 -88.926 H120.07 Q124.549 -88.926 127.823 -85.653 Q131.096 -82.379 131.096 -77.9 V7.44 Q131.096 11.92 127.823 15.193 Q124.549 18.466 120.07 18.466 H34.73 Z M34.73 11.408 H120.07 Q121.558 11.408 122.798 10.168 Q124.038 8.928 124.038 7.44 V-77.9 Q124.038 -79.388 122.798 -80.628 Q121.558 -81.868 120.07 -81.868 H34.73 Q33.242 -81.868 32.002 -80.628 Q30.762 -79.388 30.762 -77.9 V7.44 Q30.762 8.928 32.002 10.168 Q33.242 11.408 34.73 11.408 Z"/></g><g id="Ultralight-L" transform="matrix(1 0 0 1 491.205 1556)"><path d="M67.403 -35.552  77.239 -25.716 Q78.411 -24.426 80.243 -24.426 Q82.076 -24.426 83.366 -25.716 L107.876 -50.065 V-35.069 Q107.876 -34.424 108.383 -33.94 Q108.889 -33.456 109.65 -33.456 Q110.295 -33.456 110.859 -33.963 Q111.424 -34.467 111.424 -35.23 V-52 Q111.424 -53.774 110.134 -55.064 Q108.844 -56.354 107.07 -56.354 H90.139 Q89.494 -56.354 89.01 -55.789 Q88.526 -55.225 88.526 -54.58 Q88.526 -53.774 89.033 -53.29 Q89.539 -52.806 90.3 -52.806 H105.135 L80.303 -27.651 L70.466 -37.487 Q69.176 -38.777 67.343 -38.777 Q65.511 -38.777 64.339 -37.487 L46.44 -19.75 Q45.956 -19.105 45.956 -18.391 Q45.956 -17.678 46.503 -17.144 Q47.085 -16.525 47.79 -16.525 Q48.493 -16.525 49.02 -17.17 L67.403 -35.552 Z M36.443 16.531 Q32.008 16.531 28.823 13.347 Q25.639 10.162 25.639 5.728 V-76.187 Q25.639 -80.622 28.823 -83.807 Q32.008 -86.991 36.443 -86.991 H118.358 Q122.792 -86.991 125.977 -83.807 Q129.161 -80.622 129.161 -76.187 V5.728 Q129.161 10.162 125.977 13.347 Q122.792 16.531 118.358 16.531 H36.443 Z M36.443 10.888 H118.358 Q120.293 10.888 121.905 9.275 Q123.517 7.663 123.517 5.728 V-76.187 Q123.517 -78.122 121.905 -79.735 Q120.293 -81.347 118.358 -81.347 H36.443 Q34.508 -81.347 32.895 -79.735 Q31.283 -78.122 31.283 -76.187 V5.728 Q31.283 7.663 32.895 9.275 Q34.508 10.888 36.443 10.888 Z"/></g><g id="Bold-M" transform="matrix(1 0 0 1 2281.8 1126)"><path d="M52.25 -30.355  58.75 -23.855 Q60.125 -22.48 62.25 -22.48 Q64.375 -22.48 65.75 -23.855 L80 -38.105 V-35.105 Q80 -32.98 81.438 -31.605 Q82.875 -30.23 85 -30.23 Q87.125 -30.23 88.562 -31.667 Q90 -33.105 90 -35.23 V-50.23 Q90 -52.355 88.562 -53.792 Q87.125 -55.23 85 -55.23 H69.875 Q67.75 -55.23 66.375 -53.792 Q65 -52.355 65 -50.23 Q65 -48.105 66.438 -46.667 Q67.875 -45.23 70 -45.23 H72.875 L62.25 -34.48 L55.75 -40.98 Q54.375 -42.48 52.25 -42.48 Q50.125 -42.48 48.75 -40.98 L33.5 -25.73 Q32 -24.355 32 -22.23 Q32 -20.105 33.5 -18.73 Q34.875 -17.23 37 -17.23 Q39.125 -17.23 40.5 -18.73 L52.25 -30.355 Z M26.5 15.27 Q19.36 15.27 14.43 10.34 Q9.5 5.41 9.5 -1.73 V-68.73 Q9.5 -75.871 14.43 -80.8 Q19.36 -85.73 26.5 -85.73 H93.5 Q100.641 -85.73 105.57 -80.8 Q110.5 -75.871 110.5 -68.73 V-1.73 Q110.5 5.41 105.57 10.34 Q100.641 15.27 93.5 15.27 H26.5 Z M26.5 -1.73 H93.5 Q93.5 -1.73 93.5 -1.73 Q93.5 -1.73 93.5 -1.73 V-68.73 Q93.5 -68.73 93.5 -68.73 Q93.5 -68.73 93.5 -68.73 H26.5 Q26.5 -68.73 26.5 -68.73 Q26.5 -68.73 26.5 -68.73 V-1.73 Q26.5 -1.73 26.5 -1.73 Q26.5 -1.73 26.5 -1.73 Z"/></g><g id="Semibold-M" transform="matrix(1 0 0 1 1985.97 1126)"><path d="M52.25 -30.355  58.75 -23.855 Q60.125 -22.48 62.25 -22.48 Q64.375 -22.48 65.75 -23.855 L80 -38.105 V-35.105 Q80 -32.98 81.438 -31.605 Q82.875 -30.23 85 -30.23 Q87.125 -30.23 88.562 -31.667 Q90 -33.105 90 -35.23 V-50.23 Q90 -52.355 88.562 -53.792 Q87.125 -55.23 85 -55.23 H69.875 Q67.75 -55.23 66.375 -53.792 Q65 -52.355 65 -50.23 Q65 -48.105 66.438 -46.667 Q67.875 -45.23 70 -45.23 H72.875 L62.25 -34.48 L55.75 -40.98 Q54.375 -42.48 52.25 -42.48 Q50.125 -42.48 48.75 -40.98 L33.5 -25.73 Q32 -24.355 32 -22.23 Q32 -20.105 33.5 -18.73 Q34.875 -17.23 37 -17.23 Q39.125 -17.23 40.5 -18.73 L52.25 -30.355 Z M25.848 14.291 Q19.435 14.291 14.956 9.814 Q10.479 5.335 10.479 -1.077 V-69.382 Q10.479 -75.795 14.956 -80.274 Q19.435 -84.751 25.848 -84.751 H94.153 Q100.565 -84.751 105.044 -80.274 Q109.521 -75.795 109.521 -69.382 V-1.077 Q109.521 5.335 105.044 9.814 Q100.565 14.291 94.153 14.291 H25.848 Z M25.848 -1.077 H94.153 Q94.153 -1.077 94.153 -1.077 Q94.153 -1.077 94.153 -1.077 V-69.382 Q94.153 -69.382 94.153 -69.382 Q94.153 -69.382 94.153 -69.382 H25.848 Q25.848 -69.382 25.848 -69.382 Q25.848 -69.382 25.848 -69.382 V-1.077 Q25.848 -1.077 25.848 -1.077 Q25.848 -1.077 25.848 -1.077 Z"/></g><g id="Medium-M" transform="matrix(1 0 0 1 1689.91 1126)"><path d="M52.25 -30.355  58.75 -23.855 Q60.125 -22.48 62.25 -22.48 Q64.375 -22.48 65.75 -23.855 L80 -38.105 V-35.105 Q80 -32.98 81.438 -31.605 Q82.875 -30.23 85 -30.23 Q87.125 -30.23 88.562 -31.667 Q90 -33.105 90 -35.23 V-50.23 Q90 -52.355 88.562 -53.792 Q87.125 -55.23 85 -55.23 H69.875 Q67.75 -55.23 66.375 -53.792 Q65 -52.355 65 -50.23 Q65 -48.105 66.438 -46.667 Q67.875 -45.23 70 -45.23 H72.875 L62.25 -34.48 L55.75 -40.98 Q54.375 -42.48 52.25 -42.48 Q50.125 -42.48 48.75 -40.98 L33.5 -25.73 Q32 -24.355 32 -22.23 Q32 -20.105 33.5 -18.73 Q34.875 -17.23 37 -17.23 Q39.125 -17.23 40.5 -18.73 L52.25 -30.355 Z M25.359 13.558 Q19.492 13.558 15.352 9.418 Q11.213 5.278 11.213 -0.589 V-69.871 Q11.213 -75.737 15.352 -79.877 Q19.492 -84.017 25.359 -84.017 H94.641 Q100.507 -84.017 104.647 -79.877 Q108.787 -75.737 108.787 -69.871 V-0.589 Q108.787 5.278 104.647 9.418 Q100.507 13.558 94.641 13.558 H25.359 Z M25.359 -0.589 H94.641 Q94.641 -0.589 94.641 -0.589 Q94.641 -0.589 94.641 -0.589 V-69.871 Q94.641 -69.871 94.641 -69.871 Q94.641 -69.871 94.641 -69.871 H25.359 Q25.359 -69.871 25.359 -69.871 Q25.359 -69.871 25.359 -69.871 V-0.589 Q25.359 -0.589 25.359 -0.589 Q25.359 -0.589 25.359 -0.589 Z"/></g><g id="Regular-M" transform="matrix(1 0 0 1 1394.06 1126)"><path d="M52.25 -30.355  58.75 -23.855 Q60.125 -22.48 62.25 -22.48 Q64.375 -22.48 65.75 -23.855 L80 -38.105 V-35.105 Q80 -32.98 81.438 -31.605 Q82.875 -30.23 85 -30.23 Q87.125 -30.23 88.562 -31.667 Q90 -33.105 90 -35.23 V-50.23 Q90 -52.355 88.562 -53.792 Q87.125 -55.23 85 -55.23 H69.875 Q67.75 -55.23 66.375 -53.792 Q65 -52.355 65 -50.23 Q65 -48.105 66.438 -46.667 Q67.875 -45.23 70 -45.23 H72.875 L62.25 -34.48 L55.75 -40.98 Q54.375 -42.48 52.25 -42.48 Q50.125 -42.48 48.75 -40.98 L33.5 -25.73 Q32 -24.355 32 -22.23 Q32 -20.105 33.5 -18.73 Q34.875 -17.23 37 -17.23 Q39.125 -17.23 40.5 -18.73 L52.25 -30.355 Z M25 13.02 Q19.534 13.02 15.643 9.128 Q11.75 5.236 11.75 -0.23 V-70.23 Q11.75 -75.695 15.643 -79.587 Q19.534 -83.48 25 -83.48 H95 Q100.465 -83.48 104.358 -79.587 Q108.25 -75.695 108.25 -70.23 V-0.23 Q108.25 5.236 104.358 9.128 Q100.465 13.02 95 13.02 H25 Z M25 -0.23 H95 Q95 -0.23 95 -0.23 Q95 -0.23 95 -0.23 V-70.23 Q95 -70.23 95 -70.23 Q95 -70.23 95 -70.23 H25 Q25 -70.23 25 -70.23 Q25 -70.23 25 -70.23 V-0.23 Q25 -0.23 25 -0.23 Q25 -0.23 25 -0.23 Z"/></g><g id="Light-M" transform="matrix(1 0 0 1 1098.18 1126)"><path d="M52.25 -32.134  59.086 -25.297 Q60.318 -24.019 62.226 -24.019 Q64.135 -24.019 65.414 -25.297 L81.25 -41.086 V-35.105 Q81.25 -33.557 82.328 -32.519 Q83.404 -31.48 85 -31.48 Q86.547 -31.48 87.649 -32.557 Q88.75 -33.634 88.75 -35.23 V-49.461 Q88.75 -51.345 87.433 -52.662 Q86.115 -53.98 84.231 -53.98 H69.875 Q68.328 -53.98 67.289 -52.879 Q66.25 -51.777 66.25 -50.23 Q66.25 -48.634 67.328 -47.557 Q68.404 -46.48 70 -46.48 H75.856 L62.25 -32.701 L55.414 -39.537 Q54.135 -40.894 52.226 -40.894 Q50.318 -40.894 49.086 -39.537 L34.365 -24.865 Q33.25 -23.777 33.25 -22.206 Q33.25 -20.634 34.365 -19.595 Q35.453 -18.432 37.024 -18.432 Q38.596 -18.432 39.635 -19.595 L52.25 -32.134 Z M26.539 10.52 Q21.41 10.52 17.83 6.94 Q14.25 3.36 14.25 -1.769 V-68.691 Q14.25 -73.82 17.83 -77.4 Q21.41 -80.98 26.539 -80.98 H93.461 Q98.59 -80.98 102.17 -77.4 Q105.75 -73.82 105.75 -68.691 V-1.769 Q105.75 3.36 102.17 6.94 Q98.59 10.52 93.461 10.52 H26.539 Z M26.539 -0.23 H93.461 Q94.039 -0.23 94.519 -0.711 Q95 -1.191 95 -1.769 V-68.691 Q95 -69.269 94.519 -69.749 Q94.039 -70.23 93.461 -70.23 H26.539 Q25.961 -70.23 25.481 -69.749 Q25 -69.269 25 -68.691 V-1.769 Q25 -1.191 25.481 -0.711 Q25.961 -0.23 26.539 -0.23 Z"/></g><g id="Thin-M" transform="matrix(1 0 0 1 802.565 1126)"><path d="M52.25 -33.912  59.422 -26.74 Q60.51 -25.557 62.203 -25.557 Q63.894 -25.557 65.078 -26.74 L82.5 -44.066 V-35.105 Q82.5 -34.134 83.216 -33.432 Q83.933 -32.73 85 -32.73 Q85.971 -32.73 86.735 -33.446 Q87.5 -34.162 87.5 -35.23 V-48.691 Q87.5 -50.336 86.302 -51.532 Q85.106 -52.73 83.461 -52.73 H69.875 Q68.904 -52.73 68.203 -51.965 Q67.5 -51.201 67.5 -50.23 Q67.5 -49.162 68.216 -48.446 Q68.933 -47.73 70 -47.73 H78.836 L62.25 -30.922 L55.078 -38.095 Q53.894 -39.307 52.203 -39.307 Q50.51 -39.307 49.422 -38.095 L35.231 -23.999 Q34.5 -23.201 34.5 -22.182 Q34.5 -21.162 35.231 -20.461 Q36.029 -19.634 37.047 -19.634 Q38.068 -19.634 38.769 -20.461 L52.25 -33.912 Z M28.078 8.02 Q23.284 8.02 20.017 4.753 Q16.75 1.486 16.75 -3.307 V-67.152 Q16.75 -71.946 20.017 -75.212 Q23.284 -78.48 28.078 -78.48 H91.922 Q96.716 -78.48 99.983 -75.212 Q103.25 -71.946 103.25 -67.152 V-3.307 Q103.25 1.486 99.983 4.753 Q96.716 8.02 91.922 8.02 H28.078 Z M28.078 -0.23 H91.922 Q93.078 -0.23 94.039 -1.191 Q95 -2.152 95 -3.307 V-67.152 Q95 -68.307 94.039 -69.269 Q93.078 -70.23 91.922 -70.23 H28.078 Q26.922 -70.23 25.961 -69.269 Q25 -68.307 25 -67.152 V-3.307 Q25 -2.152 25.961 -1.191 Q26.922 -0.23 28.078 -0.23 Z"/></g><g id="Ultralight-M" transform="matrix(1 0 0 1 506.415 1126)"><path d="M52.25 -34.98  59.625 -27.605 Q60.625 -26.48 62.188 -26.48 Q63.75 -26.48 64.875 -27.605 L83.25 -45.855 V-35.105 Q83.25 -34.48 83.75 -33.98 Q84.25 -33.48 85 -33.48 Q85.625 -33.48 86.188 -33.98 Q86.75 -34.48 86.75 -35.23 V-48.23 Q86.75 -49.73 85.625 -50.855 Q84.5 -51.98 83 -51.98 H69.875 Q69.25 -51.98 68.75 -51.417 Q68.25 -50.855 68.25 -50.23 Q68.25 -49.48 68.75 -48.98 Q69.25 -48.48 70 -48.48 H80.625 L62.25 -29.855 L54.875 -37.23 Q53.75 -38.355 52.188 -38.355 Q50.625 -38.355 49.625 -37.23 L35.75 -23.48 Q35.25 -22.855 35.25 -22.167 Q35.25 -21.48 35.75 -20.98 Q36.375 -20.355 37.062 -20.355 Q37.75 -20.355 38.25 -20.98 L52.25 -34.98 Z M29 6.52 Q24.409 6.52 21.33 3.44 Q18.25 0.361 18.25 -4.23 V-66.23 Q18.25 -70.82 21.33 -73.9 Q24.409 -76.98 29 -76.98 H91 Q95.59 -76.98 98.67 -73.9 Q101.75 -70.82 101.75 -66.23 V-4.23 Q101.75 0.361 98.67 3.44 Q95.59 6.52 91 6.52 H29 Z M29 -0.23 H91 Q92.5 -0.23 93.75 -1.48 Q95 -2.73 95 -4.23 V-66.23 Q95 -67.73 93.75 -68.98 Q92.5 -70.23 91 -70.23 H29 Q27.5 -70.23 26.25 -68.98 Q25 -67.73 25 -66.23 V-4.23 Q25 -2.73 26.25 -1.48 Q27.5 -0.23 29 -0.23 Z"/></g><g id="Bold-S" transform="matrix(1 0 0 1 2294.23 696)"><path d="M41.521 -31.482  46.058 -26.945 Q47.143 -25.861 48.573 -25.861 Q50.003 -25.861 51.088 -26.945 L61.542 -37.301 V-33.948 Q61.542 -32.567 62.563 -31.532 Q63.584 -30.496 65.093 -30.496 Q66.473 -30.496 67.558 -31.517 Q68.643 -32.538 68.643 -34.046 V-45.881 Q68.643 -47.262 67.558 -48.347 Q66.473 -49.432 65.093 -49.432 H53.159 Q51.778 -49.432 50.743 -48.347 Q49.707 -47.262 49.707 -45.832 Q49.707 -44.402 50.728 -43.367 Q51.749 -42.331 53.258 -42.331 H56.512 L48.622 -34.441 L43.987 -38.978 Q42.902 -40.063 41.472 -40.063 Q40.042 -40.063 38.957 -38.978 L28.503 -28.523 Q27.418 -27.439 27.418 -26.009 Q27.418 -24.578 28.503 -23.494 Q29.588 -22.409 31.018 -22.409 Q32.448 -22.409 33.532 -23.494 L41.521 -31.482 Z M22.486 2.248 Q17.179 2.248 13.521 -1.411 Q9.863 -5.069 9.863 -10.376 V-60.083 Q9.863 -65.392 13.521 -69.049 Q17.179 -72.707 22.486 -72.707 H72.194 Q77.502 -72.707 81.159 -69.049 Q84.818 -65.392 84.818 -60.083 V-10.376 Q84.818 -5.069 81.159 -1.411 Q77.502 2.248 72.194 2.248 H22.486 Z M22.486 -10.376 H72.194 Q72.194 -10.376 72.194 -10.376 Q72.194 -10.376 72.194 -10.376 V-60.083 Q72.194 -60.083 72.194 -60.083 Q72.194 -60.083 72.194 -60.083 H22.486 Q22.486 -60.083 22.486 -60.083 Q22.486 -60.083 22.486 -60.083 V-10.376 Q22.486 -10.376 22.486 -10.376 Q22.486 -10.376 22.486 -10.376 Z"/></g><g id="Semibold-S" transform="matrix(1 0 0 1 1998.1 696)"><path d="M41.521 -31.482  46.058 -26.945 Q47.143 -25.861 48.573 -25.861 Q50.003 -25.861 51.088 -26.945 L61.542 -37.301 V-33.948 Q61.542 -32.567 62.563 -31.532 Q63.584 -30.496 65.093 -30.496 Q66.473 -30.496 67.558 -31.517 Q68.643 -32.538 68.643 -34.046 V-45.881 Q68.643 -47.262 67.558 -48.347 Q66.473 -49.432 65.093 -49.432 H53.159 Q51.778 -49.432 50.743 -48.347 Q49.707 -47.262 49.707 -45.832 Q49.707 -44.402 50.728 -43.367 Q51.749 -42.331 53.258 -42.331 H56.512 L48.622 -34.441 L43.987 -38.978 Q42.902 -40.063 41.472 -40.063 Q40.042 -40.063 38.957 -38.978 L28.503 -28.523 Q27.418 -27.439 27.418 -26.009 Q27.418 -24.578 28.503 -23.494 Q29.588 -22.409 31.018 -22.409 Q32.448 -22.409 33.532 -23.494 L41.521 -31.482 Z M21.972 1.475 Q17.238 1.475 13.936 -1.826 Q10.635 -5.128 10.635 -9.862 V-60.598 Q10.635 -65.332 13.936 -68.634 Q17.238 -71.935 21.972 -71.935 H72.708 Q77.442 -71.935 80.744 -68.634 Q84.045 -65.332 84.045 -60.598 V-9.862 Q84.045 -5.128 80.744 -1.826 Q77.442 1.475 72.708 1.475 H21.972 Z M21.972 -9.862 H72.708 Q72.708 -9.862 72.708 -9.862 Q72.708 -9.862 72.708 -9.862 V-60.598 Q72.708 -60.598 72.708 -60.598 Q72.708 -60.598 72.708 -60.598 H21.972 Q21.972 -60.598 21.972 -60.598 Q21.972 -60.598 21.972 -60.598 V-9.862 Q21.972 -9.862 21.972 -9.862 Q21.972 -9.862 21.972 -9.862 Z"/></g><g id="Medium-S" transform="matrix(1 0 0 1 1701.85 696)"><path d="M41.521 -31.482  46.058 -26.945 Q47.143 -25.861 48.573 -25.861 Q50.003 -25.861 51.088 -26.945 L61.542 -37.301 V-33.948 Q61.542 -32.567 62.563 -31.532 Q63.584 -30.496 65.093 -30.496 Q66.473 -30.496 67.558 -31.517 Q68.643 -32.538 68.643 -34.046 V-45.881 Q68.643 -47.262 67.558 -48.347 Q66.473 -49.432 65.093 -49.432 H53.159 Q51.778 -49.432 50.743 -48.347 Q49.707 -47.262 49.707 -45.832 Q49.707 -44.402 50.728 -43.367 Q51.749 -42.331 53.258 -42.331 H56.512 L48.622 -34.441 L43.987 -38.978 Q42.902 -40.063 41.472 -40.063 Q40.042 -40.063 38.957 -38.978 L28.503 -28.523 Q27.418 -27.439 27.418 -26.009 Q27.418 -24.578 28.503 -23.494 Q29.588 -22.409 31.018 -22.409 Q32.448 -22.409 33.532 -23.494 L41.521 -31.482 Z M21.586 0.896 Q17.283 0.896 14.248 -2.138 Q11.214 -5.173 11.214 -9.476 V-60.984 Q11.214 -65.287 14.248 -68.322 Q17.283 -71.356 21.586 -71.356 H73.094 Q77.397 -71.356 80.432 -68.322 Q83.466 -65.287 83.466 -60.984 V-9.476 Q83.466 -5.173 80.432 -2.138 Q77.397 0.896 73.094 0.896 H21.586 Z M21.586 -9.476 H73.094 Q73.094 -9.476 73.094 -9.476 Q73.094 -9.476 73.094 -9.476 V-60.984 Q73.094 -60.984 73.094 -60.984 Q73.094 -60.984 73.094 -60.984 H21.586 Q21.586 -60.984 21.586 -60.984 Q21.586 -60.984 21.586 -60.984 V-9.476 Q21.586 -9.476 21.586 -9.476 Q21.586 -9.476 21.586 -9.476 Z"/></g><g id="Regular-S" transform="matrix(1 0 0 1 1405.73 696)"><path d="M41.521 -31.482  46.058 -26.945 Q47.143 -25.861 48.573 -25.861 Q50.003 -25.861 51.088 -26.945 L61.542 -37.301 V-33.948 Q61.542 -32.567 62.563 -31.532 Q63.584 -30.496 65.093 -30.496 Q66.473 -30.496 67.558 -31.517 Q68.643 -32.538 68.643 -34.046 V-45.881 Q68.643 -47.262 67.558 -48.347 Q66.473 -49.432 65.093 -49.432 H53.159 Q51.778 -49.432 50.743 -48.347 Q49.707 -47.262 49.707 -45.832 Q49.707 -44.402 50.728 -43.367 Q51.749 -42.331 53.258 -42.331 H56.512 L48.622 -34.441 L43.987 -38.978 Q42.902 -40.063 41.472 -40.063 Q40.042 -40.063 38.957 -38.978 L28.503 -28.523 Q27.418 -27.439 27.418 -26.009 Q27.418 -24.578 28.503 -23.494 Q29.588 -22.409 31.018 -22.409 Q32.448 -22.409 33.532 -23.494 L41.521 -31.482 Z M21.303 0.472 Q17.316 0.472 14.477 -2.367 Q11.638 -5.206 11.638 -9.193 V-61.267 Q11.638 -65.253 14.477 -68.093 Q17.316 -70.932 21.303 -70.932 H73.377 Q77.363 -70.932 80.203 -68.093 Q83.042 -65.253 83.042 -61.267 V-9.193 Q83.042 -5.206 80.203 -2.367 Q77.363 0.472 73.377 0.472 H21.303 Z M21.303 -9.193 H73.377 Q73.377 -9.193 73.377 -9.193 Q73.377 -9.193 73.377 -9.193 V-61.267 Q73.377 -61.267 73.377 -61.267 Q73.377 -61.267 73.377 -61.267 H21.303 Q21.303 -61.267 21.303 -61.267 Q21.303 -61.267 21.303 -61.267 V-9.193 Q21.303 -9.193 21.303 -9.193 Q21.303 -9.193 21.303 -9.193 Z"/></g><g id="Light-S" transform="matrix(1 0 0 1 1109.75 696)"><path d="M41.521 -32.886  46.323 -28.084 Q47.295 -27.075 48.554 -27.075 Q49.814 -27.075 50.822 -28.084 L62.528 -39.653 V-33.948 Q62.528 -33.023 63.265 -32.253 Q64.001 -31.482 65.093 -31.482 Q66.018 -31.482 66.837 -32.219 Q67.657 -32.955 67.657 -34.046 V-45.275 Q67.657 -46.465 66.667 -47.456 Q65.676 -48.446 64.486 -48.446 H53.159 Q52.234 -48.446 51.464 -47.626 Q50.693 -46.807 50.693 -45.832 Q50.693 -44.819 51.43 -44.069 Q52.166 -43.317 53.258 -43.317 H58.864 L48.622 -33.038 L43.721 -37.84 Q42.713 -38.811 41.453 -38.811 Q40.194 -38.811 39.222 -37.84 L29.185 -27.841 Q28.404 -26.983 28.404 -25.99 Q28.404 -24.996 29.185 -24.176 Q30.043 -23.358 31.036 -23.358 Q32.03 -23.358 32.85 -24.176 L41.521 -32.886 Z M22.517 -1.5 Q18.796 -1.5 16.203 -4.093 Q13.61 -6.686 13.61 -10.407 V-60.053 Q13.61 -63.774 16.203 -66.367 Q18.796 -68.96 22.517 -68.96 H72.163 Q75.884 -68.96 78.477 -66.367 Q81.07 -63.774 81.07 -60.053 V-10.407 Q81.07 -6.686 78.477 -4.093 Q75.884 -1.5 72.163 -1.5 H22.517 Z M22.517 -9.193 H72.163 Q72.619 -9.193 72.997 -9.573 Q73.377 -9.951 73.377 -10.407 V-60.053 Q73.377 -60.509 72.997 -60.887 Q72.619 -61.267 72.163 -61.267 H22.517 Q22.061 -61.267 21.683 -60.887 Q21.303 -60.509 21.303 -60.053 V-10.407 Q21.303 -9.951 21.683 -9.573 Q22.061 -9.193 22.517 -9.193 Z"/></g><g id="Thin-S" transform="matrix(1 0 0 1 814.015 696)"><path d="M41.521 -34.289  46.588 -29.222 Q47.447 -28.289 48.535 -28.289 Q49.623 -28.289 50.557 -29.222 L63.515 -42.005 V-33.948 Q63.515 -33.477 63.966 -32.973 Q64.418 -32.468 65.093 -32.468 Q65.563 -32.468 66.116 -32.92 Q66.671 -33.372 66.671 -34.046 V-44.667 Q66.671 -45.669 65.775 -46.564 Q64.88 -47.459 63.878 -47.459 H53.159 Q52.688 -47.459 52.184 -46.905 Q51.68 -46.352 51.68 -45.832 Q51.68 -45.236 52.131 -44.77 Q52.583 -44.303 53.258 -44.303 H61.216 L48.622 -31.634 L43.456 -36.701 Q42.522 -37.56 41.434 -37.56 Q40.346 -37.56 39.487 -36.701 L29.869 -27.158 Q29.39 -26.528 29.39 -25.971 Q29.39 -25.413 29.869 -24.86 Q30.498 -24.305 31.055 -24.305 Q31.613 -24.305 32.167 -24.86 L41.521 -34.289 Z M23.731 -3.473 Q20.274 -3.473 17.929 -5.819 Q15.583 -8.164 15.583 -11.621 V-58.839 Q15.583 -62.296 17.929 -64.641 Q20.274 -66.987 23.731 -66.987 H70.949 Q74.406 -66.987 76.751 -64.641 Q79.097 -62.296 79.097 -58.839 V-11.621 Q79.097 -8.164 76.751 -5.819 Q74.406 -3.473 70.949 -3.473 H23.731 Z M23.731 -9.193 H70.949 Q71.86 -9.193 72.619 -9.951 Q73.377 -10.71 73.377 -11.621 V-58.839 Q73.377 -59.75 72.619 -60.509 Q71.86 -61.267 70.949 -61.267 H23.731 Q22.82 -61.267 22.061 -60.509 Q21.303 -59.75 21.303 -58.839 V-11.621 Q21.303 -10.71 22.061 -9.951 Q22.82 -9.193 23.731 -9.193 Z"/></g><g id="Ultralight-S" transform="matrix(1 0 0 1 517.792 696)"><path d="M41.521 -35.131  46.748 -29.904 Q47.537 -29.017 48.524 -29.017 Q49.51 -29.017 50.397 -29.904 L64.106 -43.416 V-33.948 Q64.106 -33.751 64.387 -33.405 Q64.668 -33.06 65.093 -33.06 Q65.29 -33.06 65.684 -33.341 Q66.079 -33.622 66.079 -34.046 V-44.303 Q66.079 -45.191 65.24 -46.029 Q64.402 -46.868 63.515 -46.868 H53.159 Q52.962 -46.868 52.616 -46.473 Q52.271 -46.079 52.271 -45.832 Q52.271 -45.487 52.552 -45.191 Q52.833 -44.895 53.258 -44.895 H62.627 L48.622 -30.792 L43.296 -36.019 Q42.409 -36.808 41.422 -36.808 Q40.436 -36.808 39.647 -36.019 L30.278 -26.748 Q29.982 -26.255 29.982 -25.959 Q29.982 -25.663 30.278 -25.269 Q30.771 -24.874 31.067 -24.874 Q31.363 -24.874 31.757 -25.269 L41.521 -35.131 Z M24.459 -4.656 Q21.162 -4.656 18.965 -6.855 Q16.766 -9.052 16.766 -12.349 V-58.111 Q16.766 -61.407 18.965 -63.605 Q21.162 -65.804 24.459 -65.804 H70.221 Q73.517 -65.804 75.715 -63.605 Q77.914 -61.407 77.914 -58.111 V-12.349 Q77.914 -9.052 75.715 -6.855 Q73.517 -4.656 70.221 -4.656 H24.459 Z M24.459 -9.193 H70.221 Q71.404 -9.193 72.391 -10.179 Q73.377 -11.165 73.377 -12.349 V-58.111 Q73.377 -59.294 72.391 -60.281 Q71.404 -61.267 70.221 -61.267 H24.459 Q23.276 -61.267 22.289 -60.281 Q21.303 -59.294 21.303 -58.111 V-12.349 Q21.303 -11.165 22.289 -10.179 Q23.276 -9.193 24.459 -9.193 Z"/></g></g></svg>