<svg xmlns="http://www.w3.org/2000/svg" height="40" width="40"><path d="M7.417 19.958q-1 0-1.688-.687-.687-.688-.687-1.688V9.042q0-.959.687-1.667.688-.708 1.688-.708h25.208q.958 0 1.667.708.708.708.708 1.667v8.541q0 1-.708 1.688-.709.687-1.667.687H28.75V15q0-.958-.708-1.667-.709-.708-1.667-.708H13.708q-1 0-1.687.708-.688.709-.688 1.667v4.958Zm5.25 0V15q0-.417.291-.708.292-.292.75-.292h12.667q.417 0 .708.292.292.291.292.708v4.958Zm.583 3.834q.25 0 .458.187.209.188.209.479 0 2.334-1.625 3.98-1.625 1.645-3.959 1.645-.291 0-.479-.208-.187-.208-.187-.5 0-.25.166-.458.167-.209.459-.209 1.791 0 3.062-1.27 1.271-1.271 1.271-3.063 0-.25.187-.417.188-.166.438-.166Zm13.458 0q-.25 0-.437.187-.188.188-.188.479 0 2.334 1.625 3.98 1.625 1.645 4 1.645.25 0 .438-.208.187-.208.187-.5 0-.25-.166-.458-.167-.209-.459-.209-1.833 0-3.062-1.27-1.229-1.271-1.229-3.063 0-.25-.209-.417-.208-.166-.5-.166ZM20 31.833q-.292 0-.479-.187-.188-.188-.188-.479V24.5q0-.292.188-.5.187-.208.479-.208t.5.208q.208.208.208.5v6.667q0 .291-.208.479-.208.187-.5.187Z"/></svg>