<svg xmlns="http://www.w3.org/2000/svg" height="40" viewBox="0 -960 960 960" width="40"><path d="M774.03-133.67q-22.36 0-37.11-14.5t-14.75-37q0-3.66 1.08-8.33t1.42-8.33l-92.5-55.34q-7.67 7.5-16.79 11.5t-20.21 4q-22.31 0-37.16-14.88-14.84-14.88-14.84-37.08 0-21.7 14.84-36.45 14.85-14.75 37.16-14.75 11.09 0 20.21 4.83 9.12 4.83 16.79 11.5l93.5-55.83q-8.17-24.5 7.37-46t41.92-21.5q21.72 0 36.54 14.91 14.83 14.91 14.83 36.39 0 22.36-14.85 37.11t-36.23 14.75q-11.83 0-21.54-4.33-9.71-4.33-16.88-11.83l-92.5 56q2 8.66 2 16.08 0 7.42-2 14.92l92.5 56.33q7.17-6.67 16.43-11t21.07-4.33q21.31 0 36.16 14.91 14.84 14.91 14.84 36.39 0 22.36-14.91 37.11t-36.39 14.75ZM173.5-173.5v-613h613v261.17q-5.56-2.67-11.37-6.49-5.8-3.82-11.8-7.22v-224.29H196.67v400.16h168q11.5 27.84 33.09 48.31 21.6 20.47 50.91 27.69 8.16 33.12 24.83 61.73 16.67 28.61 40.33 51.94H173.5ZM306.17-608h347.66v-23.17H306.17V-608Zm0 117.83h201.16q4.5-5 9.84-10.75 5.33-5.75 10.33-12.41H306.17v23.16Z"/></svg>