<svg xmlns="http://www.w3.org/2000/svg" height="20" width="20"><path d="M3.021 12.438q-1.083 0-1.844-.761-.76-.76-.76-1.844V3.354q0-1.062.76-1.833Q1.938.75 3.021.75H17q1.062 0 1.833.771.771.771.771 1.833v6.479q0 1.084-.771 1.844-.771.761-1.833.761Zm0-2.605H17V3.354H3.021v6.479Zm.208 6.188q-.458.041-.791-.281-.334-.323-.376-.782-.041-.458.261-.781t.76-.365l13.729-.708q.459-.042.792.271.334.313.375.771.042.458-.26.792-.302.333-.761.374Zm-.104 2.896q-.458 0-.781-.323t-.323-.782q0-.458.323-.781t.781-.323h13.75q.458 0 .781.323t.323.781q0 .459-.323.782t-.781.323Zm-.104-9.084V3.354v6.479Zm1.687-2.062Q6 8.833 7.24 8.906q1.239.073 1.614.073.354 0 1.677-.041 1.323-.042 3.011-1.626.166.417.458.646.292.23.604.396.5.229.948-.135Q16 7.854 16 7.208V6q0-.625-.448-1t-.948-.146q-.312.208-.614.448-.302.24-.469.636-1.917-1.709-3.125-1.719-1.208-.011-1.521-.011-.396 0-1.635.063Q6 4.333 4.708 5.396q-.541.375-.541 1.187 0 .813.541 1.188Z"/></svg>