<svg xmlns="http://www.w3.org/2000/svg" height="40" viewBox="0 -960 960 960" width="40"><path d="M142.85-387.05q-32.08 0-53.94-21.86t-21.86-53.94v-314.97q0-31.41 21.86-53.6 21.86-22.2 53.94-22.2h674.97q31.41 0 53.6 22.2 22.2 22.19 22.2 53.6v314.97q0 32.08-22.2 53.94-22.19 21.86-53.6 21.86H142.85Zm668.38 103.36-659 34q-7.61.23-13.15-4.31t-5.77-12.15q-.23-7.62 4.81-13.16 5.03-5.54 12.65-5.77l659-34q7.61-.23 13.15 4.31t5.77 12.15q.23 7.62-4.81 13.16-5.03 5.54-12.65 5.77Zm-1.23 135H150q-7.62 0-12.65-5.04-5.04-5.04-5.04-12.65 0-7.62 5.04-12.66 5.03-5.04 12.65-5.04h660q7.62 0 12.65 5.04 5.04 5.04 5.04 12.66 0 7.61-5.04 12.65-5.03 5.04-12.65 5.04ZM436.1-522.54q57.69 0 111.93-19.84 54.23-19.85 97.35-59.08 7 24.59 26.31 40.11 19.31 15.53 43.8 20.43 9.38 2 17.01-2.7 7.63-4.69 7.63-16.28v-120.2q0-11.59-7.8-15.9-7.79-4.31-17.18-2.31-25.41 5.57-44.41 21.02-19 15.44-25.51 39.6-43.87-38.34-97.65-59.39-53.79-21.05-111.48-21.05-63.02 0-116 19.75-52.97 19.74-97.69 65.23-2.26 2.92-4.41 13.15 0-.46 4.41 13.15 44.72 45.49 97.69 64.9 52.98 19.41 116 19.41Z"/></svg>