<svg xmlns="http://www.w3.org/2000/svg" height="48" viewBox="0 -960 960 960" width="48"><path d="M270-81.5q-12.5 0-20.5-8t-8-20.5v-142.5q-57.5-52-88.75-121.25T121.5-520q0-149.5 104.5-254.25T480-879q124.5 0 220.5 73.5T826-615l55 218q3.5 14-5 24.75t-23 10.75h-94V-219q0 24.5-16.75 41t-40.75 16.5H599v51.5q0 12.5-8.25 20.5t-20.75 8H270ZM480-320q17.5 0 28.75-11.5T520-360q0-17-11.5-28.5T480-400q-17 0-28.5 11.5T440-360q0 17 11.25 28.5T480-320Zm1-128q11 0 20.5-7.5T514-476q3-12 9.5-23.5T544-526q32-35 42-53t10-41q0-42-32.5-71T483-720q-30.5 0-57.25 13.75T382-668q-8.5 11.5-4.75 24.5T393-625q11 5 21.5 1.5T433-638q10-12 23-18.5t27-6.5q22 0 36.5 12t14.5 31q0 16-8.5 30.5T492-549q-19 20-27.5 35.5T453-478q-2 12 6.5 21t21.5 9Z"/></svg>