<svg xmlns="http://www.w3.org/2000/svg" height="20" width="20"><path d="M2.667 17.333V2.667H17.333V17.333ZM4.125 15.875H15.875V4.125H4.125ZM9.958 14.729Q10.333 14.729 10.594 14.469Q10.854 14.208 10.854 13.833Q10.854 13.458 10.594 13.188Q10.333 12.917 9.938 12.917Q9.562 12.917 9.302 13.188Q9.042 13.458 9.042 13.833Q9.042 14.208 9.312 14.469Q9.583 14.729 9.958 14.729ZM9.229 11.667H10.604Q10.625 11.042 10.76 10.635Q10.896 10.229 11.646 9.542Q12.042 9.188 12.375 8.688Q12.708 8.188 12.708 7.438Q12.708 6.25 11.792 5.667Q10.875 5.083 9.896 5.083Q8.792 5.083 8.104 5.719Q7.417 6.354 7.146 7.062L8.417 7.583Q8.625 7.229 8.896 6.802Q9.167 6.375 10.021 6.375Q10.792 6.375 11.094 6.792Q11.396 7.208 11.396 7.604Q11.396 8.104 11.094 8.417Q10.792 8.729 10.521 8.979Q9.562 9.875 9.396 10.26Q9.229 10.646 9.229 11.667ZM4.125 15.875V4.125Z"/></svg>