<svg xmlns="http://www.w3.org/2000/svg" height="48" width="48"><path d="M8.75 38.65q-.9 0-1.5-.625t-.6-1.475q0-.95.6-1.525t1.5-.575h2.35V20.1q0-4.4 2.6-7.975Q16.3 8.55 20.6 7.5V6.2q0-1.4 1-2.325 1-.925 2.4-.925t2.4.925q1 .925 1 2.325v1.3q1.15.25 2.475.875Q31.2 9 32.15 9.85L30.6 11.4l-1.5 1.5q-1.05-.75-2.4-1.175-1.35-.425-2.7-.425-3.75 0-6.225 2.55Q15.3 16.4 15.3 20.1v14.35h17.5V28.3H37v6.15h2.3q.85 0 1.475.6.625.6.625 1.5t-.625 1.5q-.625.6-1.475.6ZM24 44.9q-1.75 0-3.05-1.275-1.3-1.275-1.3-3.025h8.7q0 1.8-1.275 3.05Q25.8 44.9 24 44.9Zm15.9-18.8q-.8 0-1.3-.5t-.5-1.25v-4.6h-4.55q-.8 0-1.3-.5t-.5-1.25q0-.75.5-1.275.5-.525 1.3-.525h4.55v-4.55q0-.75.525-1.275.525-.525 1.275-.525.8 0 1.275.525.475.525.475 1.275v4.55h4.6q.75 0 1.25.525T48 18q0 .75-.5 1.25t-1.25.5h-4.6v4.6q0 .75-.475 1.25t-1.275.5Zm-15.85-3.25Z"/></svg>