<svg xmlns="http://www.w3.org/2000/svg" height="48" width="48"><path d="M21.5 32.55q-1.4 0-2.4-1t-1-2.45V18.85q0-1.4 1-2.425t2.4-1.025h5.05q1.35 0 2.375 1.025t1.025 2.425V29.1q0 1.45-1.025 2.45-1.025 1-2.375 1Zm-17.25 0v-2.2h6.45q.55 0 .9-.35t.35-.9v-2.8q0-.55-.35-.9t-.9-.35H7.65q-1.4 0-2.4-1t-1-2.4v-2.8q0-1.4 1-2.425t2.4-1.025h6.45v2.2H7.65q-.55 0-.875.35-.325.35-.325.9v2.8q0 .55.325.9t.875.35h3.05q1.35 0 2.375 1.025T14.1 26.3v2.8q0 1.45-1.025 2.45-1.025 1-2.375 1Zm29.7 0v-2.2h6.45q.55 0 .875-.35.325-.35.325-.9v-2.8q0-.55-.325-.9t-.875-.35h-3.05q-1.4 0-2.4-1t-1-2.4v-2.8q0-1.4 1-2.425t2.4-1.025h6.45v2.2h-6.45q-.55 0-.9.35t-.35.9v2.8q0 .55.35.9t.9.35h3.05q1.35 0 2.375 1.025T43.8 26.3v2.8q0 1.45-1.025 2.45-1.025 1-2.375 1Zm-12.45-2.2h5.05q.55 0 .9-.35t.35-.9V18.85q0-.55-.35-.9t-.9-.35H21.5q-.55 0-.9.35t-.35.9V29.1q0 .55.35.9t.9.35Z"/></svg>