<svg xmlns="http://www.w3.org/2000/svg" height="24" viewBox="0 -960 960 960" width="24"><path d="M142.8-535.85q7.78 0 13.2 5.45 5.42 5.44 5.42 12.82V-480q0 7.77-5.45 13.02t-13.23 5.25q-7.78 0-13.01-5.25-5.23-5.25-5.23-13.02v-37.58q0-7.38 5.26-12.82 5.26-5.45 13.04-5.45Zm198.93-82.03q5.73-5.74 12.9-5.74 7.18 0 13.29 5.74l27.12 27.23q4.84 5.52 4.84 12.55 0 7.02-5.34 12.75-5.23 6-12.54 5.62-7.31-.39-13.04-5.62l-27.23-26.07q-6.11-5.42-6.11-12.88 0-7.47 6.11-13.58Zm82.92-197.72q0-7.4 5.25-12.82 5.25-5.43 13.02-5.43H480q7.77 0 13.21 5.45 5.44 5.45 5.44 12.85 0 7.78-5.44 13.2-5.44 5.43-13.21 5.43h-37.08q-7.77 0-13.02-5.45t-5.25-13.23ZM142.77-647.73q-7.77 0-13.02-5.25T124.5-666v-137.27q0-12.61 8.79-21.6 8.79-8.98 21.79-8.98h137.38q7.77 0 13.21 5.45 5.45 5.44 5.45 12.82 0 69.85-49.26 118.85-49.25 49-119.09 49Zm33.38 484.65q-6.5-7.34-11.09-15.73-4.6-8.38-6.37-18.04l-19.37-77.11q-3.97-14.42 5.22-26.23T169.15-312h322.04q15.04 0 24.43 11.81 9.38 11.81 5.41 26.23l-19.38 77.11q-2.15 9.66-6.75 18.04-4.59 8.39-10.71 15.73h103.77l42.69-164.38q7.47-29.35-10.9-53.1t-48.63-23.75h-31.24q-12.47 0-21.35-8.02t-9.61-19.94l-5.34-70q-2-13.69 7.38-23.63 9.39-9.95 23.4-9.95h266.08q13.64 0 22.83 9.95 9.19 9.94 7.96 22.86L803-163.08h52.58q7.38 0 12.82 5.45 5.45 5.45 5.45 12.85 0 7.78-5.45 13.2-5.44 5.43-12.82 5.43H104.81q-7.77 0-13.21-5.45-5.45-5.45-5.45-13.23 0-7.4 5.45-12.82 5.44-5.43 13.21-5.43h71.34Z"/></svg>