<svg xmlns="http://www.w3.org/2000/svg" version="1.1" width="3300" height="2000"><g id="Notes"><style>
    text {
      font-family: monospace;
      text-anchor: middle;
    }
    text.emphasis {
      font-weight:bold;
    }
    text.lanchor {
      text-anchor: start;
    }
  </style><rect height="2200" id="artboard" fill="white" width="3300" x="0" y="0"/><line id="" style="fill:none;stroke:black;stroke-width:0.5;" x1="263" x2="3036" y1="292" y2="292"/><text class="lanchor emphasis" transform="matrix(1 0 0 1 263 322)">Weight/Scale Variations</text><text transform="matrix(1 0 0 1 559.711 322)">Ultralight</text><text transform="matrix(1 0 0 1 856.422 322)">Thin</text><text transform="matrix(1 0 0 1 1153.13 322)">Light</text><text transform="matrix(1 0 0 1 1449.84 322)">Regular</text><text transform="matrix(1 0 0 1 1746.56 322)">Medium</text><text transform="matrix(1 0 0 1 2043.27 322)">Semibold</text><text transform="matrix(1 0 0 1 2339.98 322)">Bold</text><text transform="matrix(1 0 0 1 2636.69 322)">Heavy</text><text transform="matrix(1 0 0 1 2933.4 322)">Black</text><text id="template-version" style="text-anchor: end;" transform="matrix(1 0 0 1 3036 1933)">Template v.1.0</text><text class="lanchor" transform="matrix(1 0 0 1 263 726)">Small</text><text class="lanchor" transform="matrix(1 0 0 1 263 1156)">Medium</text><text class="lanchor" transform="matrix(1 0 0 1 263 1586)">Large</text></g><g id="Guides"><g id="H-reference" style="fill:#27AAE1;stroke:none;" transform="matrix(1 0 0 1 339 696)"><path d="M 54.9316 0 L 57.666 0 L 30.5664 -70.459 L 28.0762 -70.459 L 0.976562 0 L 3.66211 0 L 12.9395 -24.4629 L 45.7031 -24.4629 Z M 29.1992 -67.0898 L 29.4434 -67.0898 L 44.8242 -26.709 L 13.8184 -26.709 Z"/></g><line id="Baseline-S" style="fill:none;stroke:#27AAE1;opacity:1;stroke-width:0.577;" x1="263" x2="3036" y1="696" y2="696"/><line id="Capline-S" style="fill:none;stroke:#27AAE1;opacity:1;stroke-width:0.577;" x1="263" x2="3036" y1="625.541" y2="625.541"/><g id="H-reference" style="fill:#27AAE1;stroke:none;" transform="matrix(1 0 0 1 339 1126)"><path d="M 54.9316 0 L 57.666 0 L 30.5664 -70.459 L 28.0762 -70.459 L 0.976562 0 L 3.66211 0 L 12.9395 -24.4629 L 45.7031 -24.4629 Z M 29.1992 -67.0898 L 29.4434 -67.0898 L 44.8242 -26.709 L 13.8184 -26.709 Z"/></g><line id="Baseline-M" style="fill:none;stroke:#27AAE1;opacity:1;stroke-width:0.577;" x1="263" x2="3036" y1="1126" y2="1126"/><line id="Capline-M" style="fill:none;stroke:#27AAE1;opacity:1;stroke-width:0.577;" x1="263" x2="3036" y1="1055.54" y2="1055.54"/><g id="H-reference" style="fill:#27AAE1;stroke:none;" transform="matrix(1 0 0 1 339 1556)"><path d="M 54.9316 0 L 57.666 0 L 30.5664 -70.459 L 28.0762 -70.459 L 0.976562 0 L 3.66211 0 L 12.9395 -24.4629 L 45.7031 -24.4629 Z M 29.1992 -67.0898 L 29.4434 -67.0898 L 44.8242 -26.709 L 13.8184 -26.709 Z"/></g><line id="Baseline-L" style="fill:none;stroke:#27AAE1;opacity:1;stroke-width:0.577;" x1="263" x2="3036" y1="1556" y2="1556"/><line id="Capline-L" style="fill:none;stroke:#27AAE1;opacity:1;stroke-width:0.577;" x1="263" x2="3036" y1="1485.54" y2="1485.54"/><rect height="119.336" id="left-margin" style="fill:darkred;stroke:none;opacity:0.4;" width="12.4512" x="1394.06" y="1030.79"/><rect height="119.336" id="right-margin" style="fill:darkgreen;stroke:none;opacity:0.4;" width="12.4512" x="1502.5112" y="1030.79"/><rect x="1406.5112" y="1045" width="96" height="96" fill="none" stroke="blue" stroke-dasharray="5"/><rect x="1394.06" y="1030.79" width="120.9024" height="119.336" fill="none" stroke="blue"/></g><g id="Symbols"><g id="Bold-L" transform="matrix(1 0 0 1 2266 1556)"><path d="M38.21625 -20.717499999999987 Q29.83125 -31.037499999999994 25.155 -43.856875 Q20.478749999999998 -56.67624999999999 20.478749999999998 -70.70499999999998 Q20.478749999999998 -73.76874999999998 20.559375 -77.235625 Q20.64 -80.70249999999999 21.285 -84.41125 L11.932500000000001 -75.22 L3.7087499999999998 -83.44375 L27.896250000000002 -107.47 L52.083749999999995 -83.44375 L44.02125 -75.22 L33.05625 -86.02374999999999 Q32.41125 -81.99249999999999 32.25 -77.96124999999999 Q32.08875 -73.92999999999999 32.08875 -70.70499999999998 Q32.08875 -59.57875 36.03937500000001 -48.77499999999999 Q39.99 -37.97125 46.7625 -29.102499999999992 L38.21625 -20.717499999999987 Z M96.4275 29.27000000000001  52.5675 11.693749999999994  55.308749999999996 2.825000000000003 Q56.27625 -0.4000000000000057 58.775625000000005 -1.8512499999999932 Q61.275 -3.302499999999995 64.98375 -3.9474999999999767 L84.33375 -7.49499999999999 L58.53375 -65.54499999999999 Q56.4375 -70.06 58.050000000000004 -74.333125 Q59.6625 -78.60624999999999 64.1775 -80.70249999999999 Q68.85375 -82.79875 73.126875 -81.10562499999999 Q77.4 -79.4125 79.49625 -74.8975 L94.17 -41.84125 L99.49125000000001 -44.25999999999999 Q101.265 -45.06625 102.474375 -45.38874999999999 Q103.68375 -45.71124999999999 105.45750000000001 -45.55 L133.03125 -44.42125 Q138.03 -44.25999999999999 141.41625000000002 -41.035 Q144.8025 -37.81 146.25375 -32.9725 L153.8325 -4.592499999999987 Q155.28375 0.5675000000000097 152.62312500000002 5.324375000000018 Q149.9625 10.081249999999997 145.125 12.338750000000005 L107.23125 29.27000000000001 Q104.65125000000002 30.398750000000007 101.91000000000001 30.398750000000007 Q99.16875 30.398750000000007 96.4275 29.27000000000001 Z"/></g><g id="Semibold-L" transform="matrix(1 0 0 1 1970.27 1556)"><path d="M38.21625 -21.846249999999998 Q30.15375 -32.004999999999995 25.719375 -44.501875 Q21.285 -56.998749999999994 21.285 -70.70499999999998 Q21.285 -74.41375 21.446250000000003 -78.445 Q21.6075 -82.47625 22.41375 -86.66874999999999 L11.932500000000001 -76.34875 L4.8375 -83.44375 L27.896250000000002 -106.34125 L50.955000000000005 -83.44375 L43.86 -76.34875 L32.5725 -87.63624999999999 Q31.76625 -83.2825 31.524375000000003 -78.848125 Q31.2825 -74.41375 31.2825 -70.70499999999998 Q31.2825 -59.4175 35.1525 -48.694374999999994 Q39.0225 -37.97125 45.63375 -29.102499999999992 L38.21625 -21.846249999999998 Z M97.395 28.30250000000001  55.308749999999996 11.210000000000008  58.050000000000004 3.147500000000008 Q59.017500000000005 0.24500000000000455 61.19437500000001 -1.1256249999999852 Q63.371249999999996 -2.4962500000000034 66.59625 -3.141249999999985 L85.4625 -6.688749999999985 L59.017500000000005 -66.67374999999998 Q56.92124999999999 -70.70499999999998 58.53375 -74.73624999999998 Q60.146249999999995 -78.76749999999998 64.1775 -80.70249999999999 Q68.53125 -82.63749999999999 72.481875 -81.02499999999999 Q76.4325 -79.4125 78.3675 -75.22 L93.68625 -41.19624999999999 L99.00750000000001 -43.614999999999995 Q100.62 -44.42125 101.91000000000001 -44.74374999999999 Q103.2 -45.06625 104.8125 -44.90499999999999 L133.1925 -43.614999999999995 Q137.86875 -43.45375 141.174375 -40.55124999999998 Q144.48 -37.64874999999999 145.77 -32.9725 L153.67125 -4.753749999999982 Q154.96125 0.24500000000000455 152.5425 4.760000000000005 Q150.12375 9.275000000000006 145.44750000000002 11.371250000000018 L107.87625000000001 28.141250000000014 Q105.29625 29.27000000000001 102.635625 29.27000000000001 Q99.97500000000001 29.27000000000001 97.395 28.30250000000001 Z"/></g><g id="Medium-L" transform="matrix(1 0 0 1 1674.31 1556)"><path d="M38.377500000000005 -22.813749999999985 Q30.47625 -32.64999999999999 26.1225 -44.90499999999999 Q21.76875 -57.16 21.76875 -70.70499999999998 Q21.76875 -74.8975 22.09125 -79.331875 Q22.41375 -83.76625 23.38125 -88.4425 L12.09375 -77.31625 L5.805000000000001 -83.60499999999999 L27.896250000000002 -105.535 L49.987500000000004 -83.60499999999999 L43.698750000000004 -77.31625 L32.25 -88.76499999999999 Q31.2825 -84.25 31.040625000000002 -79.49312499999999 Q30.798750000000002 -74.73624999999998 30.798750000000002 -70.70499999999998 Q30.798750000000002 -59.256249999999994 34.5075 -48.533125 Q38.21625 -37.81 44.8275 -29.263749999999987 L38.377500000000005 -22.813749999999985 Z M98.03999999999999 27.496250000000003  57.405 10.726250000000007  60.146249999999995 3.3087500000000176 Q60.9525 0.8900000000000148 63.048750000000005 -0.5612499999999869 Q65.145 -2.012500000000003 67.72500000000001 -2.4962500000000034 L86.43 -6.204999999999998 L59.339999999999996 -67.31875 Q57.405 -71.35 58.936875 -75.139375 Q60.46875 -78.92875 64.33875 -80.70249999999999 Q68.20875 -82.47625 71.998125 -80.944375 Q75.78750000000001 -79.4125 77.72250000000001 -75.54249999999999 L93.2025 -40.71249999999999 L98.52375 -43.131249999999994 Q100.13625 -43.937499999999986 101.42625 -44.17937499999999 Q102.71625 -44.42125 104.32875000000001 -44.25999999999999 L133.35375000000002 -43.131249999999994 Q137.7075 -42.80875 140.9325 -40.14812499999999 Q144.15750000000003 -37.4875 145.44750000000002 -33.13374999999999 L153.51000000000002 -4.914999999999992 Q154.8 -0.07750000000000057 152.5425 4.2762500000000045 Q150.285 8.63000000000001 145.77 10.565000000000012 L108.36000000000001 27.335000000000008 Q105.94125000000001 28.463750000000005 103.2 28.544375000000002 Q100.45875 28.625 98.03999999999999 27.496250000000003 Z"/></g><g id="Regular-L" transform="matrix(1 0 0 1 1378.56 1556)"><path d="M38.377500000000005 -23.458749999999995 Q30.6375 -33.13374999999999 26.444999999999997 -45.22749999999999 Q22.2525 -57.32125 22.2525 -70.70499999999998 Q22.2525 -75.22 22.575 -79.97687499999999 Q22.8975 -84.73374999999999 24.02625 -89.73249999999999 L12.09375 -77.96124999999999 L6.45 -83.60499999999999 L27.896250000000002 -104.89 L49.3425 -83.60499999999999 L43.698750000000004 -77.96124999999999 L31.927500000000002 -89.57124999999999 Q30.96 -84.895 30.6375 -79.89625 Q30.315 -74.8975 30.315 -70.70499999999998 Q30.315 -59.09499999999999 34.02375 -48.4525 Q37.7325 -37.81 44.1825 -29.263749999999987 L38.377500000000005 -23.458749999999995 Z M98.52375 27.01249999999999  59.017500000000005 10.403750000000002  61.597500000000004 3.470000000000013 Q62.40375000000001 1.2124999999999915 64.33875 -0.1581249999999983 Q66.27375 -1.528749999999988 68.69250000000001 -2.012500000000003 L87.075 -5.721249999999998 L59.50125 -67.96375 Q57.7275 -71.6725 59.17875000000001 -75.300625 Q60.63 -78.92875 64.33875 -80.70249999999999 Q68.0475 -82.47625 71.67562500000001 -80.944375 Q75.30375000000001 -79.4125 77.0775 -75.70375 L92.88000000000001 -40.39 L98.20125 -42.80875 Q99.81375 -43.614999999999995 101.10375 -43.856875 Q102.39375 -44.098749999999995 104.00625000000001 -43.937499999999986 L133.35375000000002 -42.647499999999994 Q137.7075 -42.32499999999999 140.851875 -39.825625 Q143.99625 -37.32624999999999 145.28625 -33.13374999999999 L153.34875 -4.914999999999992 Q154.63875000000002 -0.2387499999999818 152.461875 3.9537499999999994 Q150.285 8.146250000000023 145.93125 10.081249999999997 L108.68250000000002 26.690000000000026 Q106.26375000000002 27.818749999999994 103.603125 27.89937500000002 Q100.94250000000001 27.980000000000018 98.52375 27.01249999999999 Z"/></g><g id="Light-L" transform="matrix(1 0 0 1 1082.77 1556)"><path d="M38.861250000000005 -24.58749999999999 Q31.44375 -34.26249999999999 27.4125 -45.953124999999986 Q23.38125 -57.64374999999999 23.38125 -70.70499999999998 Q23.38125 -75.70375 23.70375 -80.944375 Q24.02625 -86.185 24.993750000000002 -91.345 L12.41625 -78.92875 L7.74 -83.44375 L28.21875 -103.76124999999999 L48.6975 -83.44375 L44.02125 -78.92875 L31.44375 -91.50625 Q30.47625 -86.185 30.15375 -80.54124999999999 Q29.83125 -74.8975 29.83125 -70.70499999999998 Q29.83125 -59.256249999999994 33.54 -48.613749999999996 Q37.24875 -37.97125 43.5375 -29.424999999999997 L38.861250000000005 -24.58749999999999 Z M98.3625 24.432500000000005  60.3075 8.952500000000015  62.565 2.825000000000003 Q63.21000000000001 1.0512500000000102 64.66125000000001 0.003124999999997158 Q66.1125 -1.0449999999999875 68.0475 -1.528749999999988 L87.72 -5.721249999999998 L60.9525 -65.86749999999999 Q59.339999999999996 -69.41499999999999 60.710625 -72.72062499999998 Q62.081250000000004 -76.02625 65.4675 -77.63874999999999 Q69.015 -79.25125 72.320625 -77.880625 Q75.62625 -76.50999999999999 77.23875 -73.12375 L92.39625 -39.26124999999999 L98.03999999999999 -42.0025 Q99.33 -42.48625 100.29750000000001 -42.647499999999994 Q101.265 -42.80875 102.39375 -42.80875 L129.0 -41.51875 Q133.67625 -41.35749999999999 137.0625 -38.374375 Q140.44875 -35.39125 141.73875 -30.715000000000003 L149.15625 -3.625 Q150.12375 -0.07750000000000057 148.430625 2.9862500000000125 Q146.7375 6.049999999999997 143.51250000000002 7.662499999999994 L105.94125000000001 24.27125000000001 Q104.16749999999999 25.077500000000015 102.2325 25.158125000000013 Q100.29750000000001 25.23875000000001 98.3625 24.432500000000005 Z"/></g><g id="Thin-L" transform="matrix(1 0 0 1 787.282 1556)"><path d="M39.18375 -25.877499999999998 Q32.25 -35.22999999999999 28.299375 -46.598124999999996 Q24.34875 -57.966249999999995 24.34875 -70.70499999999998 Q24.34875 -76.02625 24.67125 -81.83125 Q24.993750000000002 -87.63624999999999 25.961250000000003 -93.11874999999999 L12.5775 -79.89625 L9.03 -83.2825 L28.541249999999998 -102.79374999999999 L48.0525 -83.2825 L44.505 -79.89625 L30.96 -93.44125 Q29.83125 -87.475 29.589375000000004 -81.266875 Q29.3475 -75.05875 29.3475 -70.70499999999998 Q29.3475 -59.4175 32.975625 -48.77499999999999 Q36.60375 -38.13249999999999 42.892500000000005 -29.586249999999993 L39.18375 -25.877499999999998 Z M98.20125 21.85250000000002  61.43625 7.501250000000013  63.5325 2.180000000000007 Q64.01625 0.8900000000000148 64.98375 0.0837500000000233 Q65.95125 -0.7224999999999824 67.4025 -0.883749999999992 L88.365 -5.559999999999988 L62.40375000000001 -63.9325 Q60.9525 -67.1575 62.24250000000001 -70.22125 Q63.5325 -73.285 66.7575 -74.57499999999999 Q69.9825 -76.1875 72.965625 -74.97812499999999 Q75.94875 -73.76874999999998 77.4 -70.54374999999999 L91.75125 -38.29374999999999 L97.87875000000001 -41.035 Q98.685 -41.51875 99.410625 -41.599374999999995 Q100.13625 -41.67999999999999 100.94250000000001 -41.51875 L124.48500000000001 -40.55124999999998 Q129.645 -40.39 133.1925 -36.84249999999999 Q136.74 -33.29499999999999 138.19125 -28.29625 L144.96375 -2.1737499999999983 Q145.60875 0.0837500000000233 144.48 2.0993750000000233 Q143.35125000000002 4.115000000000023 141.09375 5.08250000000001 L103.36125 22.013750000000016 Q102.2325 22.497500000000002 100.94250000000001 22.416875000000005 Q99.6525 22.336250000000007 98.20125 21.85250000000002 Z"/></g><g id="Ultralight-L" transform="matrix(1 0 0 1 491.205 1556)"><path d="M39.50625 -26.522499999999994 Q32.73375 -35.874999999999986 28.86375 -47.001249999999985 Q24.993750000000002 -58.1275 24.993750000000002 -70.70499999999998 Q24.993750000000002 -76.34875 25.31625 -82.47625 Q25.63875 -88.60374999999999 26.444999999999997 -94.08624999999999 L12.738750000000001 -80.38 L9.83625 -83.2825 L28.7025 -102.14874999999999 L47.56875 -83.2825 L44.66625 -80.38 L30.6375 -94.57 Q29.508750000000003 -88.28125 29.266875 -81.66999999999999 Q29.025000000000002 -75.05875 29.025000000000002 -70.70499999999998 Q29.025000000000002 -59.4175 32.653125 -48.77499999999999 Q36.28125 -38.13249999999999 42.408750000000005 -29.586249999999993 L39.50625 -26.522499999999994 Z M98.20125 20.401250000000005  62.24250000000001 6.533750000000012  64.01625 1.8575000000000017 Q64.5 0.8900000000000148 65.145 0.24500000000000455 Q65.78999999999999 -0.4000000000000057 66.91875 -0.5612499999999869 L88.84875000000001 -5.559999999999988 L63.371249999999996 -62.64249999999999 Q61.92 -65.70624999999998 63.129374999999996 -68.60874999999999 Q64.33875 -71.51124999999999 67.4025 -72.80125 Q70.46625 -74.2525 73.28812500000001 -73.12375 Q76.11000000000001 -71.995 77.56125 -68.93124999999999 L91.42875000000001 -37.64874999999999 L97.7175 -40.55124999999998 Q98.3625 -40.87374999999999 98.92687500000001 -40.87374999999999 Q99.49125000000001 -40.87374999999999 99.97500000000001 -40.87374999999999 L121.905 -39.906249999999986 Q127.22625000000001 -39.74499999999999 130.935 -35.955625 Q134.64375 -32.16624999999999 136.095 -26.844999999999985 L142.54500000000002 -1.3674999999999926 Q142.8675 0.0837500000000233 142.06125 1.454375000000013 Q141.255 2.825000000000003 139.64249999999998 3.6312499999999943 L101.74875 20.5625 Q100.94250000000001 20.88499999999999 100.05562499999999 20.80437500000002 Q99.16875 20.723750000000024 98.20125 20.401250000000005 Z"/></g><g id="Bold-M" transform="matrix(1 0 0 1 2281.8 1126)"><path d="M30.375 -22.35499999999999 Q23.5 -30.85499999999999 19.564999999999998 -41.10499999999999 Q15.625 -51.35499999999999 15.625 -62.72999999999999 Q15.625 -64.85499999999999 15.75 -66.78999999999999 Q15.875 -68.72999999999999 16.125 -70.60499999999999 L10.0 -64.60499999999999 L2.125 -72.47999999999999 L22.5 -92.85499999999999 L42.875 -72.47999999999999 L35.0 -64.60499999999999 L27.75 -71.72999999999999 Q27.375 -69.47999999999999 27.125 -67.22999999999999 Q26.875 -64.97999999999999 26.875 -62.72999999999999 Q26.875 -53.97999999999999 30.0 -45.72999999999999 Q33.125 -37.47999999999999 38.625 -30.35499999999999 L30.375 -22.35499999999999 Z M74.125 15.52000000000001  39.125 1.8950000000000102  41.375 -5.60499999999999 Q42.0 -7.72999999999999 43.565 -8.669999999999987 Q45.125 -9.60499999999999 47.75 -10.10499999999999 L65.0 -13.10499999999999 L45.125 -57.97999999999999 Q43.375 -61.60499999999999 44.75 -65.10499999999999 Q46.125 -68.60499999999999 49.75 -70.35499999999999 Q53.375 -72.10499999999999 56.94 -70.66999999999999 Q60.5 -69.22999999999999 62.25 -65.60499999999999 L73.375 -40.60499999999999 L77.5 -42.47999999999999 Q78.625 -42.97999999999999 79.75 -43.29499999999999 Q80.875 -43.60499999999999 82.125 -43.47999999999999 L103.125 -42.72999999999999 Q107.125 -42.47999999999999 109.875 -39.85499999999999 Q112.625 -37.22999999999999 113.625 -33.35499999999999 L119.375 -11.60499999999999 Q120.5 -7.35499999999999 118.5 -3.4200000000000017 Q116.5 0.5200000000000102 112.5 2.2700000000000102 L83.625 15.14500000000001 Q81.375 16.14500000000001 78.875 16.330000000000013 Q76.375 16.52000000000001 74.125 15.52000000000001 Z"/></g><g id="Semibold-M" transform="matrix(1 0 0 1 1985.97 1126)"><path d="M30.5 -23.60499999999999 Q23.875 -31.72999999999999 20.19 -41.66999999999999 Q16.5 -51.60499999999999 16.5 -62.72999999999999 Q16.5 -65.47999999999999 16.69 -67.97999999999999 Q16.875 -70.47999999999999 17.375 -72.97999999999999 L10.125 -65.85499999999999 L3.375 -72.60499999999999 L22.5 -91.72999999999999 L41.625 -72.60499999999999 L34.875 -65.85499999999999 L27.25 -73.35499999999999 Q26.75 -70.72999999999999 26.375 -68.04499999999999 Q26.0 -65.35499999999999 26.0 -62.72999999999999 Q26.0 -53.85499999999999 29.060000000000002 -45.66999999999999 Q32.125 -37.47999999999999 37.5 -30.47999999999999 L30.5 -23.60499999999999 Z M75.125 14.52000000000001  42.0 1.2700000000000102  44.25 -5.35499999999999 Q44.75 -6.97999999999999 46.065 -7.9199999999999875 Q47.375 -8.85499999999999 49.375 -9.22999999999999 L66.25 -12.35499999999999 L45.5 -59.10499999999999 Q44.0 -62.35499999999999 45.25 -65.60499999999999 Q46.5 -68.85499999999999 49.75 -70.35499999999999 Q53.125 -71.85499999999999 56.375 -70.54499999999999 Q59.625 -69.22999999999999 61.125 -65.97999999999999 L72.75 -39.97999999999999 L76.875 -41.85499999999999 Q78.0 -42.22999999999999 79.19 -42.54499999999999 Q80.375 -42.85499999999999 81.5 -42.72999999999999 L103.25 -41.85499999999999 Q107.0 -41.60499999999999 109.625 -39.289999999999985 Q112.25 -36.97999999999999 113.25 -33.47999999999999 L119.125 -11.72999999999999 Q120.25 -7.72999999999999 118.44 -4.039999999999992 Q116.625 -0.35499999999998977 112.875 1.2700000000000102 L84.25 14.02000000000001 Q82.125 15.02000000000001 79.69 15.205000000000013 Q77.25 15.39500000000001 75.125 14.52000000000001 Z"/></g><g id="Medium-M" transform="matrix(1 0 0 1 1689.91 1126)"><path d="M30.625 -24.47999999999999 Q24.125 -32.47999999999999 20.565 -42.16999999999999 Q17.0 -51.85499999999999 17.0 -62.72999999999999 Q17.0 -65.85499999999999 17.315 -68.85499999999999 Q17.625 -71.85499999999999 18.25 -74.72999999999999 L10.25 -66.72999999999999 L4.25 -72.72999999999999 L22.5 -90.85499999999999 L40.75 -72.72999999999999 L34.75 -66.72999999999999 L26.875 -74.60499999999999 Q26.25 -71.60499999999999 25.875 -68.66999999999999 Q25.5 -65.72999999999999 25.5 -62.72999999999999 Q25.5 -53.72999999999999 28.439999999999998 -45.539999999999985 Q31.375 -37.35499999999999 36.625 -30.60499999999999 L30.625 -24.47999999999999 Z M75.875 13.77000000000001  44.25 0.8950000000000102  46.375 -5.10499999999999 Q46.75 -6.47999999999999 47.875 -7.35499999999999 Q49.0 -8.22999999999999 50.75 -8.60499999999999 L67.125 -11.72999999999999 L45.875 -59.85499999999999 Q44.5 -62.97999999999999 45.625 -65.97999999999999 Q46.75 -68.97999999999999 49.875 -70.35499999999999 Q52.875 -71.72999999999999 55.940000000000005 -70.53999999999999 Q59.0 -69.35499999999999 60.375 -66.22999999999999 L72.375 -39.47999999999999 L76.5 -41.35499999999999 Q77.5 -41.72999999999999 78.69 -42.04499999999999 Q79.875 -42.35499999999999 81.0 -42.22999999999999 L103.375 -41.35499999999999 Q106.875 -41.10499999999999 109.44000000000001 -38.91999999999999 Q112.0 -36.72999999999999 112.875 -33.60499999999999 L119.0 -11.85499999999999 Q120.0 -8.10499999999999 118.375 -4.60499999999999 Q116.75 -1.1049999999999898 113.125 0.5200000000000102 L84.75 13.14500000000001 Q82.625 14.14500000000001 80.19 14.335000000000008 Q77.75 14.52000000000001 75.875 13.77000000000001 Z"/></g><g id="Regular-M" transform="matrix(1 0 0 1 1394.06 1126)"><path d="M30.625 -25.22999999999999 Q24.375 -32.97999999999999 20.939999999999998 -42.47999999999999 Q17.5 -51.97999999999999 17.5 -62.72999999999999 Q17.5 -66.22999999999999 17.875 -69.54499999999999 Q18.25 -72.85499999999999 19.0 -76.10499999999999 L10.25 -67.47999999999999 L5.0 -72.72999999999999 L22.5 -90.22999999999999 L40.0 -72.72999999999999 L34.75 -67.47999999999999 L26.625 -75.47999999999999 Q25.875 -72.35499999999999 25.44 -69.16999999999999 Q25.0 -65.97999999999999 25.0 -62.72999999999999 Q25.0 -53.60499999999999 27.875 -45.47999999999999 Q30.75 -37.35499999999999 36.0 -30.60499999999999 L30.625 -25.22999999999999 Z M76.375 13.14500000000001  45.875 0.5200000000000102  47.875 -4.97999999999999 Q48.25 -6.10499999999999 49.25 -6.97999999999999 Q50.25 -7.85499999999999 51.625 -8.10499999999999 L67.875 -11.35499999999999 L46.125 -60.47999999999999 Q44.875 -63.35499999999999 45.940000000000005 -66.22999999999999 Q47.0 -69.10499999999999 49.875 -70.35499999999999 Q52.75 -71.60499999999999 55.625 -70.47999999999999 Q58.5 -69.35499999999999 59.75 -66.47999999999999 L72.0 -39.10499999999999 L76.125 -40.97999999999999 Q77.125 -41.35499999999999 78.375 -41.66999999999999 Q79.625 -41.97999999999999 80.625 -41.85499999999999 L103.5 -40.85499999999999 Q106.75 -40.60499999999999 109.25 -38.60499999999999 Q111.75 -36.60499999999999 112.625 -33.60499999999999 L118.875 -11.97999999999999 Q119.875 -8.35499999999999 118.375 -4.97999999999999 Q116.875 -1.6049999999999898 113.375 -0.10499999999998977 L85.125 12.52000000000001 Q83.0 13.52000000000001 80.625 13.710000000000008 Q78.25 13.89500000000001 76.375 13.14500000000001 Z"/></g><g id="Light-M" transform="matrix(1 0 0 1 1098.18 1126)"><path d="M30.75 -26.35499999999999 Q24.75 -33.97999999999999 21.5 -43.16999999999999 Q18.25 -52.35499999999999 18.25 -62.72999999999999 Q18.25 -66.60499999999999 18.565 -70.41999999999999 Q18.875 -74.22999999999999 19.625 -77.72999999999999 L10.25 -68.47999999999999 L6.0 -72.60499999999999 L22.5 -89.10499999999999 L39.0 -72.60499999999999 L34.75 -68.47999999999999 L25.75 -77.47999999999999 Q24.875 -73.72999999999999 24.565 -69.85499999999999 Q24.25 -65.97999999999999 24.25 -62.72999999999999 Q24.25 -53.72999999999999 27.065 -45.60499999999999 Q29.875 -37.47999999999999 35.0 -30.72999999999999 L30.75 -26.35499999999999 Z M76.25 11.14500000000001  46.75 -0.7299999999999898  48.5 -5.47999999999999 Q48.875 -6.47999999999999 49.690000000000005 -7.164999999999992 Q50.5 -7.85499999999999 51.5 -8.10499999999999 L68.25 -11.60499999999999 L47.25 -58.97999999999999 Q46.125 -61.60499999999999 47.125 -64.22999999999999 Q48.125 -66.85499999999999 50.75 -68.10499999999999 Q53.5 -69.22999999999999 56.125 -68.22999999999999 Q58.75 -67.22999999999999 59.875 -64.47999999999999 L71.625 -38.35499999999999 L76.0 -40.35499999999999 Q76.75 -40.72999999999999 77.69 -40.91999999999999 Q78.625 -41.10499999999999 79.375 -40.97999999999999 L100.0 -40.10499999999999 Q103.625 -39.85499999999999 106.31500000000001 -37.47999999999999 Q109.0 -35.10499999999999 109.875 -31.72999999999999 L115.625 -10.85499999999999 Q116.375 -8.10499999999999 115.25 -5.664999999999992 Q114.125 -3.2299999999999898 111.5 -1.9799999999999898 L82.875 10.77000000000001 Q81.25 11.39500000000001 79.5 11.52000000000001 Q77.75 11.64500000000001 76.25 11.14500000000001 Z"/></g><g id="Thin-M" transform="matrix(1 0 0 1 802.565 1126)"><path d="M30.875 -27.47999999999999 Q25.25 -34.85499999999999 22.125 -43.79499999999999 Q19.0 -52.72999999999999 19.0 -62.72999999999999 Q19.0 -66.85499999999999 19.315 -71.22999999999999 Q19.625 -75.60499999999999 20.25 -79.47999999999999 L10.125 -69.35499999999999 L7.0 -72.47999999999999 L22.5 -87.97999999999999 L38.0 -72.47999999999999 L34.875 -69.35499999999999 L24.75 -79.47999999999999 Q24.0 -75.10499999999999 23.75 -70.60499999999999 Q23.5 -66.10499999999999 23.5 -62.72999999999999 Q23.5 -53.85499999999999 26.314999999999998 -45.72999999999999 Q29.125 -37.60499999999999 34.0 -30.85499999999999 L30.875 -27.47999999999999 Z M76.125 9.14500000000001  47.75 -1.9799999999999898  49.25 -5.97999999999999 Q49.5 -6.72999999999999 50.06 -7.22999999999999 Q50.625 -7.72999999999999 51.375 -7.97999999999999 L68.75 -11.85499999999999 L48.375 -57.35499999999999 Q47.375 -59.85499999999999 48.315 -62.29499999999999 Q49.25 -64.72999999999999 51.75 -65.72999999999999 Q54.25 -66.85499999999999 56.625 -65.91499999999999 Q59.0 -64.97999999999999 60.0 -62.47999999999999 L71.125 -37.60499999999999 L75.875 -39.72999999999999 Q76.5 -39.97999999999999 77.125 -40.04499999999999 Q77.75 -40.10499999999999 78.25 -40.10499999999999 L96.625 -39.35499999999999 Q100.5 -39.10499999999999 103.315 -36.35499999999999 Q106.125 -33.60499999999999 107.125 -29.85499999999999 L112.375 -9.72999999999999 Q112.875 -7.97999999999999 112.065 -6.35499999999999 Q111.25 -4.72999999999999 109.5 -3.9799999999999898 L80.5 9.02000000000001 Q79.5 9.39500000000001 78.375 9.460000000000008 Q77.25 9.52000000000001 76.125 9.14500000000001 Z"/></g><g id="Ultralight-M" transform="matrix(1 0 0 1 506.415 1126)"><path d="M30.875 -28.22999999999999 Q25.5 -35.47999999999999 22.5 -44.22999999999999 Q19.5 -52.97999999999999 19.5 -62.72999999999999 Q19.5 -67.10499999999999 19.75 -71.72999999999999 Q20.0 -76.35499999999999 20.625 -80.47999999999999 L10.125 -69.97999999999999 L7.625 -72.47999999999999 L22.5 -87.35499999999999 L37.375 -72.47999999999999 L34.875 -69.97999999999999 L24.25 -80.60499999999999 Q23.375 -75.97999999999999 23.189999999999998 -71.04499999999999 Q23.0 -66.10499999999999 23.0 -62.72999999999999 Q23.0 -53.85499999999999 25.815 -45.72999999999999 Q28.625 -37.60499999999999 33.375 -30.85499999999999 L30.875 -28.22999999999999 Z M76.125 7.89500000000001  48.25 -2.7299999999999898  49.625 -6.35499999999999 Q49.875 -6.97999999999999 50.309999999999995 -7.35499999999999 Q50.75 -7.72999999999999 51.375 -7.97999999999999 L69.0 -11.97999999999999 L49.125 -56.47999999999999 Q48.125 -58.85499999999999 49.0 -61.10499999999999 Q49.875 -63.35499999999999 52.25 -64.35499999999999 Q54.625 -65.35499999999999 56.875 -64.54499999999999 Q59.125 -63.72999999999999 60.125 -61.35499999999999 L70.875 -37.10499999999999 L75.75 -39.35499999999999 Q76.25 -39.60499999999999 76.69 -39.60499999999999 Q77.125 -39.60499999999999 77.5 -39.60499999999999 L94.5 -38.85499999999999 Q98.625 -38.60499999999999 101.56 -35.66999999999999 Q104.5 -32.72999999999999 105.5 -28.72999999999999 L110.5 -9.10499999999999 Q110.75 -7.85499999999999 110.19 -6.789999999999992 Q109.625 -5.72999999999999 108.375 -5.10499999999999 L79.125 7.89500000000001 Q78.5 8.14500000000001 77.69 8.14500000000001 Q76.875 8.14500000000001 76.125 7.89500000000001 Z"/></g><g id="Bold-S" transform="matrix(1 0 0 1 2294.23 696)"><path d="M24.8535 -24.479085999999988 Q19.229508000000003 -30.98833599999999 15.97725 -38.879914 Q12.724992 -46.771491999999995 12.724992 -55.15067199999999 Q12.724992 -57.22416399999999 12.971160000000001 -59.344995999999995 Q13.217327999999998 -61.46582799999999 13.809078 -63.435171999999994 L7.891578 -57.51767199999999 L2.466414 -62.84342199999999 L18.145422 -78.527164 L33.829164 -62.84342199999999 L28.304586 -57.51767199999999 L21.695922 -64.026922 Q21.009491999999998 -61.85874999999999 20.71125 -59.63850399999999 Q20.413008 -57.422991999999994 20.413008 -55.15067199999999 Q20.413008 -48.542007999999996 23.12559 -42.03749199999999 Q25.838172 -35.52350799999999 30.477491999999998 -29.90424999999999 L24.8535 -24.479085999999988 Z M59.175 4.024328000000011  33.336828 -5.348991999999981  34.420913999999996 -8.994171999999992 Q35.505 -12.151749999999993 37.180836 -13.188495999999986 Q38.856672 -14.220507999999995 42.407172 -14.618163999999993 L53.749835999999995 -15.40400799999999 L38.46375 -49.924336 Q36.982008 -52.783671999999996 38.165507999999996 -55.54832799999999 Q39.349008 -58.308249999999994 42.213077999999996 -59.69057799999999 Q45.072414 -61.06817199999999 47.832336 -59.936746 Q50.596992 -58.800585999999996 52.074 -55.94125 L60.259085999999996 -37.303492 L67.4595 -40.555749999999996 Q67.558914 -40.655164 67.4595 -40.655164 Q67.360086 -40.655164 67.558914 -40.655164 L81.955008 -40.063413999999995 Q84.819078 -39.96399999999999 86.840496 -38.04199599999999 Q88.861914 -36.119991999999996 89.55307800000001 -33.15650799999999 L93.59591400000001 -16.000491999999994 Q94.38649199999999 -12.94232799999999 92.805336 -10.177672000000001 Q91.228914 -7.417749999999998 88.468992 -6.134835999999993 L65.191914 4.119008000000008 Q63.809585999999996 4.715491999999998 62.332578 4.715491999999998 Q60.850835999999994 4.715491999999998 59.175 4.024328000000011 Z"/></g><g id="Semibold-S" transform="matrix(1 0 0 1 1998.1 696)"><path d="M24.952914 -25.468491999999998 Q19.52775 -31.67949999999999 16.469586 -39.324909999999996 Q13.411422 -46.965585999999995 13.411422 -55.15067199999999 Q13.411422 -57.716499999999996 13.709664 -60.28232799999999 Q14.003172000000001 -62.84342199999999 14.79375 -65.30983599999999 L7.990991999999999 -58.50707799999999 L3.451086 -62.94283599999999 L18.145422 -77.63717199999999 L32.844491999999995 -62.94283599999999 L28.205172 -58.50707799999999 L21.303 -65.30983599999999 Q20.512422 -62.84342199999999 20.1195 -60.28232799999999 Q19.726578 -57.716499999999996 19.726578 -55.15067199999999 Q19.726578 -48.44732799999999 22.387086 -41.98541799999999 Q25.052328 -35.52350799999999 29.5875 -30.003664 L24.952914 -25.468491999999998 Z M59.965578 3.2337500000000006  35.604414 -5.841328000000004  36.6885 -8.800078 Q37.673172 -11.559999999999988 39.154914000000005 -12.596745999999996 Q40.631922 -13.63349199999999 43.690085999999994 -13.926999999999992 L54.734508 -14.816991999999999 L38.761992 -50.81432799999999 Q37.479078 -53.37542199999999 38.563164 -55.94125 Q39.64725 -58.50707799999999 42.213077999999996 -59.69057799999999 Q44.873585999999996 -60.874078 47.38734 -59.837331999999996 Q49.905828 -58.800585999999996 51.184008 -56.23949199999999 L59.76675 -36.80642199999999 L66.967164 -40.063413999999995 Q67.06657799999999 -40.063413999999995 67.014504 -40.063413999999995 Q66.967164 -40.063413999999995 67.06657799999999 -40.063413999999995 L82.05442199999999 -39.372249999999994 Q84.71966400000001 -39.27283599999999 86.641668 -37.596999999999994 Q88.563672 -35.921164 89.254836 -33.25592199999999 L93.397086 -16.09517199999999 Q94.187664 -13.235835999999992 92.757996 -10.670007999999996 Q91.32832800000001 -8.108913999999999 88.7625 -6.9254140000000035 L65.68425 3.2337500000000006 Q64.401336 3.8255000000000052 62.971668 3.8255000000000052 Q61.542 3.8255000000000052 59.965578 3.2337500000000006 Z"/></g><g id="Medium-S" transform="matrix(1 0 0 1 1701.85 696)"><path d="M25.052328 -26.154921999999992 Q19.726578 -32.271249999999995 16.767827999999998 -39.717831999999994 Q13.809078 -47.164413999999994 13.809078 -55.15067199999999 Q13.809078 -58.010008 14.202 -60.97349199999999 Q14.594922 -63.92750799999999 15.484914 -66.69216399999999 L8.085672 -59.193507999999994 L4.14225 -63.042249999999996 L18.145422 -76.94600799999999 L32.153328 -63.042249999999996 L28.110491999999997 -59.193507999999994 L21.009491999999998 -66.294508 Q20.1195 -63.53458599999999 19.726578 -60.774663999999994 Q19.328922000000002 -58.010008 19.328922000000002 -55.15067199999999 Q19.328922000000002 -48.347913999999996 21.89475 -41.88600399999999 Q24.460577999999998 -35.428827999999996 28.896336 -30.10307799999999 L25.052328 -26.154921999999992 Z M60.557328 2.64200000000001  37.379664 -6.134835999999993  38.364335999999994 -8.601249999999993 Q39.254328 -11.16707799999999 40.584582000000005 -12.151749999999993 Q41.914835999999994 -13.136421999999996 44.774172 -13.434663999999998 L55.425672 -14.319921999999991 L39.0555 -51.406077999999994 Q37.872 -53.872491999999994 38.856672 -56.23949199999999 Q39.846078 -58.60649199999999 42.312492000000006 -59.69057799999999 Q44.679492 -60.774663999999994 47.046492 -59.837331999999996 Q49.413492000000005 -58.89999999999999 50.596992 -56.43358599999999 L59.468508 -36.41349999999999 L66.668922 -39.670491999999996 Q66.668922 -39.670491999999996 66.621582 -39.670491999999996 Q66.569508 -39.670491999999996 66.668922 -39.670491999999996 L82.153836 -38.979327999999995 Q84.62025 -38.879914 86.49491400000001 -37.303492 Q88.369578 -35.72233599999999 88.96132800000001 -33.35533599999999 L93.29767199999999 -16.194585999999987 Q93.98883599999999 -13.534077999999994 92.70592199999999 -11.115003999999999 Q91.42300800000001 -8.700664000000003 88.96132800000001 -7.517163999999994 L66.077172 2.542586 Q64.798992 3.1343360000000047 63.36459 3.1343360000000047 Q61.934922 3.1343360000000047 60.557328 2.64200000000001 Z"/></g><g id="Regular-S" transform="matrix(1 0 0 1 1405.73 696)"><path d="M25.052328 -26.746671999999997 Q19.920672 -32.66417199999999 17.061336 -39.96399999999999 Q14.202 -47.26382799999999 14.202 -55.15067199999999 Q14.202 -58.308249999999994 14.646996 -61.51316799999999 Q15.091992000000001 -64.718086 16.076664 -67.77624999999999 L8.085672 -59.78999199999999 L4.734 -63.042249999999996 L18.145422 -76.453672 L31.561578 -63.042249999999996 L28.110491999999997 -59.78999199999999 L20.810664 -66.985672 Q19.825992 -64.126336 19.380996 -61.16758599999999 Q18.936 -58.20883599999999 18.936 -55.15067199999999 Q18.936 -48.24849999999999 21.449754 -41.838663999999994 Q23.963508 -35.428827999999996 28.404 -30.10307799999999 L25.052328 -26.746671999999997 Z M60.95025 2.1496640000000156  38.662577999999996 -6.433077999999995  39.547836 -8.501835999999983 Q40.437827999999996 -10.868835999999988 41.668668 -11.85350799999999 Q42.899508 -12.842913999999993 45.46533599999999 -13.037007999999986 L56.017422 -14.026414000000003 L39.254328 -51.89841399999999 Q38.165507999999996 -54.166 39.10284 -56.43358599999999 Q40.040172 -58.70117199999999 42.312492000000006 -59.69057799999999 Q44.580078 -60.67524999999999 46.79559 -59.78999199999999 Q49.01583599999999 -58.89999999999999 50.099922 -56.632414 L59.175 -36.119991999999996 L66.375414 -39.372249999999994 Q66.375414 -39.372249999999994 66.375414 -39.372249999999994 Q66.375414 -39.372249999999994 66.375414 -39.372249999999994 L82.25325 -38.581672 Q84.520836 -38.486991999999994 86.34816 -37.052589999999995 Q88.17075 -35.622921999999996 88.7625 -33.35533599999999 L93.202992 -16.293999999999997 Q93.889422 -13.728172 92.70592199999999 -11.413245999999987 Q91.52242199999999 -9.093585999999988 89.15542199999999 -8.009499999999989 L66.375414 2.0502500000000055 Q65.0925 2.64200000000001 63.710172 2.64200000000001 Q62.332578 2.64200000000001 60.95025 2.1496640000000156 Z"/></g><g id="Light-S" transform="matrix(1 0 0 1 1109.75 696)"><path d="M25.147008 -27.636663999999996 Q20.218913999999998 -33.45474999999999 17.506332 -40.50841 Q14.79375 -47.55733599999999 14.79375 -55.15067199999999 Q14.79375 -58.60649199999999 15.186672000000002 -62.204331999999994 Q15.584328 -65.802172 16.569 -69.059164 L8.085672 -60.575835999999995 L5.524578 -62.94283599999999 L18.145422 -75.56841399999999 L30.771 -62.94283599999999 L28.110491999999997 -60.575835999999995 L20.1195 -68.56682799999999 Q19.035414 -65.210422 18.689832 -61.711996 Q18.34425 -58.20883599999999 18.34425 -55.15067199999999 Q18.34425 -48.347913999999996 20.810664 -41.93807799999999 Q23.277078 -35.52350799999999 27.613422 -30.202492 L25.147008 -27.636663999999996 Z M60.850835999999994 0.5685080000000085  39.349008 -7.417749999999998  40.040172 -8.899491999999995 Q40.930164000000005 -11.16707799999999 42.01425 -12.004995999999991 Q43.098335999999996 -12.842913999999993 45.365922 -13.037007999999986 L56.315664000000005 -14.220507999999995 L40.139585999999994 -50.71491399999999 Q39.154914000000005 -52.783671999999996 40.040172 -54.857164 Q40.930164000000005 -56.92592199999999 42.998922 -57.91532799999999 Q45.171828 -58.800585999999996 47.193245999999995 -58.010008 Q49.214664000000006 -57.22416399999999 50.199335999999995 -55.05599199999999 L58.881492 -35.52350799999999 L66.276 -38.879914 Q66.077172 -38.879914 65.83100400000001 -38.780499999999996 Q65.584836 -38.681085999999986 65.386008 -38.681085999999986 L79.493328 -37.98992199999999 Q82.05442199999999 -37.89050799999999 84.0285 -36.167331999999995 Q86.00257800000001 -34.43942199999999 86.594328 -31.87832799999999 L90.637164 -15.40400799999999 Q91.1295 -13.534077999999994 90.239508 -11.952922000000001 Q89.35425 -10.376499999999993 87.678414 -9.486507999999986 L64.600164 0.6679220000000043 Q63.710172 0.9661640000000062 62.82491400000001 0.9140900000000158 Q61.934922 0.8667500000000103 60.850835999999994 0.5685080000000085 Z"/></g><g id="Thin-S" transform="matrix(1 0 0 1 814.015 696)"><path d="M25.246422 -28.521921999999996 Q20.611836 -34.145914 17.998668 -41.00074599999999 Q15.3855 -47.855577999999994 15.3855 -55.15067199999999 Q15.3855 -58.800585999999996 15.778422 -62.84342199999999 Q16.176078 -66.890992 17.061336 -70.441492 L7.990991999999999 -61.266999999999996 L6.310422 -62.84342199999999 L18.145422 -74.678422 L29.980422 -62.84342199999999 L28.205172 -61.266999999999996 L19.328922000000002 -70.14325 Q18.34425 -66.294508 18.046008 -62.30374599999999 Q17.7525 -58.308249999999994 17.7525 -55.15067199999999 Q17.7525 -48.44732799999999 20.218913999999998 -42.03749199999999 Q22.685328 -35.622921999999996 26.827578 -30.297171999999996 L25.246422 -28.521921999999996 Z M60.751422 -1.0079139999999995  40.139585999999994 -8.402421999999987  40.631922 -9.292413999999994 Q41.4225 -11.361171999999996 42.312492000000006 -12.052335999999983 Q43.19775 -12.743499999999997 45.266507999999995 -12.94232799999999 L56.708586 -14.419335999999987 L41.029578 -49.431999999999995 Q40.139585999999994 -51.406077999999994 40.977504 -53.328081999999995 Q41.815422 -55.250085999999996 43.7895 -56.04066399999999 Q45.763578 -56.92592199999999 47.586168 -56.187417999999994 Q49.413492000000005 -55.44891399999999 50.29875 -53.474835999999996 L58.483836 -34.936491999999994 L66.176586 -38.38757799999999 Q65.883078 -38.288163999999995 65.386008 -38.08933599999999 Q64.893672 -37.89050799999999 64.50075 -37.98992199999999 L76.828086 -37.398171999999995 Q79.588008 -37.303492 81.6615 -35.277339999999995 Q83.73499199999999 -33.25592199999999 84.42142199999999 -30.396585999999992 L88.071336 -14.518749999999997 Q88.369578 -13.434663999999998 87.725754 -12.497332 Q87.086664 -11.559999999999988 86.101992 -11.067663999999994 L62.7255 -0.7096719999999834 Q62.332578 -0.6149919999999867 61.934922 -0.7096719999999834 Q61.542 -0.8090859999999935 60.751422 -1.0079139999999995 Z"/></g><g id="Ultralight-S" transform="matrix(1 0 0 1 517.792 696)"><path d="M25.246422 -29.113671999999994 Q20.810664 -34.63824999999999 18.29691 -41.34632799999999 Q15.778422 -48.049671999999994 15.778422 -55.15067199999999 Q15.778422 -58.999413999999994 16.124004 -63.24107799999999 Q16.469586 -67.47800799999999 17.359578 -71.227336 L7.990991999999999 -61.75933599999999 L6.807492 -62.84342199999999 L18.145422 -74.18608599999999 L29.488086 -62.84342199999999 L28.205172 -61.75933599999999 L18.936 -71.02850799999999 Q17.851914 -66.985672 17.605746 -62.649328 Q17.359578 -58.308249999999994 17.359578 -55.15067199999999 Q17.359578 -48.44732799999999 19.825992 -42.03749199999999 Q22.287672 -35.622921999999996 26.330508000000002 -30.297171999999996 L25.246422 -29.113671999999994 Z M60.751422 -1.9925859999999886  40.532508 -8.994171999999992  40.930164000000005 -9.585921999999997 Q41.716007999999995 -11.559999999999988 42.506586 -12.151749999999993 Q43.297164 -12.743499999999997 45.266507999999995 -12.94232799999999 L56.907414 -14.518749999999997 L41.621328 -48.740835999999994 Q40.731336 -50.6155 41.521914 -52.39075 Q42.312492000000006 -54.166 44.182422 -54.95657799999999 Q46.057086 -55.74242199999999 47.784996 -55.103331999999995 Q49.508172 -54.459508 50.398164 -52.58957799999999 L58.285008 -34.53883599999999 L66.077172 -38.08933599999999 Q65.68425 -37.98992199999999 65.04516 -37.743753999999996 Q64.401336 -37.49758599999999 63.909 -37.596999999999994 L75.15225 -37.00525 Q78.111 -36.90583599999999 80.27917199999999 -34.737663999999995 Q82.452078 -32.569492 83.138508 -29.511327999999992 L86.594328 -14.026414000000003 Q86.689008 -13.335249999999988 86.24874600000001 -12.842913999999993 Q85.80375 -12.350577999999999 85.212 -11.952922000000001 L61.641414000000005 -1.5996640000000042 Q61.542 -1.5996640000000042 61.395246 -1.7464179999999914 Q61.248492000000006 -1.8931719999999927 60.751422 -1.9925859999999886 Z"/></g></g></svg>