<svg xmlns="http://www.w3.org/2000/svg" version="1.1" width="3300" height="2000"><g id="Notes"><style>
    text {
      font-family: monospace;
      text-anchor: middle;
    }
    text.emphasis {
      font-weight:bold;
    }
    text.lanchor {
      text-anchor: start;
    }
  </style><rect height="2200" id="artboard" fill="white" width="3300" x="0" y="0"/><line id="" style="fill:none;stroke:black;stroke-width:0.5;" x1="263" x2="3036" y1="292" y2="292"/><text class="lanchor emphasis" transform="matrix(1 0 0 1 263 322)">Weight/Scale Variations</text><text transform="matrix(1 0 0 1 559.711 322)">Ultralight</text><text transform="matrix(1 0 0 1 856.422 322)">Thin</text><text transform="matrix(1 0 0 1 1153.13 322)">Light</text><text transform="matrix(1 0 0 1 1449.84 322)">Regular</text><text transform="matrix(1 0 0 1 1746.56 322)">Medium</text><text transform="matrix(1 0 0 1 2043.27 322)">Semibold</text><text transform="matrix(1 0 0 1 2339.98 322)">Bold</text><text transform="matrix(1 0 0 1 2636.69 322)">Heavy</text><text transform="matrix(1 0 0 1 2933.4 322)">Black</text><text id="template-version" style="text-anchor: end;" transform="matrix(1 0 0 1 3036 1933)">Template v.1.0</text><text class="lanchor" transform="matrix(1 0 0 1 263 726)">Small</text><text class="lanchor" transform="matrix(1 0 0 1 263 1156)">Medium</text><text class="lanchor" transform="matrix(1 0 0 1 263 1586)">Large</text></g><g id="Guides"><g id="H-reference" style="fill:#27AAE1;stroke:none;" transform="matrix(1 0 0 1 339 696)"><path d="M 54.9316 0 L 57.666 0 L 30.5664 -70.459 L 28.0762 -70.459 L 0.976562 0 L 3.66211 0 L 12.9395 -24.4629 L 45.7031 -24.4629 Z M 29.1992 -67.0898 L 29.4434 -67.0898 L 44.8242 -26.709 L 13.8184 -26.709 Z"/></g><line id="Baseline-S" style="fill:none;stroke:#27AAE1;opacity:1;stroke-width:0.577;" x1="263" x2="3036" y1="696" y2="696"/><line id="Capline-S" style="fill:none;stroke:#27AAE1;opacity:1;stroke-width:0.577;" x1="263" x2="3036" y1="625.541" y2="625.541"/><g id="H-reference" style="fill:#27AAE1;stroke:none;" transform="matrix(1 0 0 1 339 1126)"><path d="M 54.9316 0 L 57.666 0 L 30.5664 -70.459 L 28.0762 -70.459 L 0.976562 0 L 3.66211 0 L 12.9395 -24.4629 L 45.7031 -24.4629 Z M 29.1992 -67.0898 L 29.4434 -67.0898 L 44.8242 -26.709 L 13.8184 -26.709 Z"/></g><line id="Baseline-M" style="fill:none;stroke:#27AAE1;opacity:1;stroke-width:0.577;" x1="263" x2="3036" y1="1126" y2="1126"/><line id="Capline-M" style="fill:none;stroke:#27AAE1;opacity:1;stroke-width:0.577;" x1="263" x2="3036" y1="1055.54" y2="1055.54"/><g id="H-reference" style="fill:#27AAE1;stroke:none;" transform="matrix(1 0 0 1 339 1556)"><path d="M 54.9316 0 L 57.666 0 L 30.5664 -70.459 L 28.0762 -70.459 L 0.976562 0 L 3.66211 0 L 12.9395 -24.4629 L 45.7031 -24.4629 Z M 29.1992 -67.0898 L 29.4434 -67.0898 L 44.8242 -26.709 L 13.8184 -26.709 Z"/></g><line id="Baseline-L" style="fill:none;stroke:#27AAE1;opacity:1;stroke-width:0.577;" x1="263" x2="3036" y1="1556" y2="1556"/><line id="Capline-L" style="fill:none;stroke:#27AAE1;opacity:1;stroke-width:0.577;" x1="263" x2="3036" y1="1485.54" y2="1485.54"/><rect height="119.336" id="left-margin" style="fill:darkred;stroke:none;opacity:0.4;" width="12.4512" x="1394.06" y="1030.79"/><rect height="119.336" id="right-margin" style="fill:darkgreen;stroke:none;opacity:0.4;" width="12.4512" x="1502.5112" y="1030.79"/><rect x="1406.5112" y="1045" width="96" height="96" fill="none" stroke="blue" stroke-dasharray="5"/><rect x="1394.06" y="1030.79" width="120.9024" height="119.336" fill="none" stroke="blue"/></g><g id="Symbols"><g id="Bold-L" transform="matrix(1 0 0 1 2266 1556)"><path d="M76.337 1.938 Q79.212 1.938 81.41 -0.219 Q83.608 -2.377 83.608 -5.278 Q83.608 -8.179 81.438 -10.296 Q79.267 -12.413 76.286 -12.413 Q73.491 -12.413 71.374 -10.32 Q69.257 -8.225 69.257 -5.237 Q69.257 -2.377 71.36 -0.219 Q73.462 1.938 76.337 1.938 Z M96.75 -54.14 Q96.75 -62.713 91.224 -67.878 Q85.696 -73.043 76.513 -73.043 Q70.063 -73.043 64.621 -70.1 Q59.179 -67.157 55.551 -61.594 Q54.261 -59.659 55.188 -57.442 Q56.115 -55.225 58.527 -54.427 Q60.549 -53.612 62.849 -54.264 Q65.147 -54.914 66.801 -56.757 Q68.692 -59.176 71.044 -60.224 Q73.395 -61.272 76.508 -61.272 Q80.523 -61.272 82.873 -59.124 Q85.221 -56.976 85.221 -53.13 Q85.221 -50.8 83.769 -48.393 Q82.318 -45.984 79.416 -42.809 Q73.933 -37.407 72.211 -34.303 Q70.487 -31.199 70.036 -26.79 Q69.902 -24.488 71.585 -23.006 Q73.267 -21.524 75.57 -21.524 Q77.779 -21.524 79.301 -23.009 Q80.823 -24.492 81.673 -27.087 Q82.399 -29.425 84.172 -31.803 Q85.946 -34.182 88.854 -36.984 Q92.719 -40.874 94.734 -45.165 Q96.75 -49.455 96.75 -54.14 Z M30.799 26.126 Q24.668 26.126 20.356 21.814 Q16.044 17.502 16.044 11.371 V-81.831 Q16.044 -88.028 20.356 -92.388 Q24.668 -96.747 30.799 -96.747 H124.001 Q130.198 -96.747 134.558 -92.388 Q138.917 -88.028 138.917 -81.831 V11.371 Q138.917 17.502 134.558 21.814 Q130.198 26.126 124.001 26.126 H30.799 Z"/></g><g id="Semibold-L" transform="matrix(1 0 0 1 1970.27 1556)"><path d="M76.582 1.938 Q79.282 1.938 81.27 -0.01 Q83.258 -1.956 83.258 -4.681 Q83.258 -7.408 81.293 -9.349 Q79.327 -11.291 76.566 -11.291 Q73.912 -11.291 71.971 -9.367 Q70.028 -7.443 70.028 -4.676 Q70.028 -1.956 71.955 -0.01 Q73.883 1.938 76.582 1.938 Z M96.89 -54.293 Q96.89 -62.752 91.398 -67.828 Q85.908 -72.903 76.723 -72.903 Q70.203 -72.903 64.831 -70.031 Q59.459 -67.157 56.041 -61.735 Q54.891 -60.009 55.749 -58.039 Q56.605 -56.067 58.739 -55.338 Q60.619 -54.524 62.638 -55.14 Q64.656 -55.756 66.101 -57.387 Q68.131 -59.946 70.758 -61.17 Q73.383 -62.394 76.79 -62.394 Q81.32 -62.394 83.935 -60.035 Q86.553 -57.678 86.553 -53.506 Q86.553 -50.831 84.996 -48.225 Q83.44 -45.619 80.046 -42.107 Q74.844 -37.057 73.046 -33.882 Q71.25 -30.709 70.808 -26.369 Q70.673 -24.294 72.203 -22.909 Q73.732 -21.524 75.85 -21.524 Q77.848 -21.524 79.266 -22.902 Q80.683 -24.283 81.323 -26.561 Q81.978 -29.075 83.682 -31.487 Q85.385 -33.901 88.502 -36.957 Q92.788 -41.224 94.839 -45.445 Q96.89 -49.665 96.89 -54.293 Z M30.168 24.373 Q25.092 24.373 21.445 20.725 Q17.797 17.078 17.797 12.002 V-82.462 Q17.797 -87.575 21.445 -91.25 Q25.092 -94.925 30.168 -94.925 H124.632 Q129.745 -94.925 133.42 -91.25 Q137.095 -87.575 137.095 -82.462 V12.002 Q137.095 17.078 133.42 20.725 Q129.745 24.373 124.632 24.373 H30.168 Z"/></g><g id="Medium-L" transform="matrix(1 0 0 1 1674.31 1556)"><path d="M76.766 1.938 Q79.335 1.938 81.165 0.148 Q82.995 -1.64 82.995 -4.235 Q82.995 -6.829 81.183 -8.64 Q79.37 -10.451 76.778 -10.451 Q74.228 -10.451 72.417 -8.653 Q70.607 -6.856 70.607 -4.255 Q70.607 -1.64 72.403 0.148 Q74.198 1.938 76.766 1.938 Z M96.995 -54.409 Q96.995 -62.783 91.53 -67.79 Q86.064 -72.798 76.881 -72.798 Q70.308 -72.798 64.989 -69.978 Q59.669 -67.157 56.41 -61.839 Q55.365 -60.272 56.17 -58.485 Q56.974 -56.697 58.895 -56.022 Q60.672 -55.207 62.48 -55.797 Q64.289 -56.386 65.576 -57.861 Q67.71 -60.525 70.544 -61.88 Q73.375 -63.234 77.003 -63.234 Q81.917 -63.234 84.734 -60.719 Q87.552 -58.203 87.552 -53.788 Q87.552 -50.855 85.917 -48.101 Q84.281 -45.347 80.52 -41.582 Q75.528 -36.794 73.675 -33.566 Q71.821 -30.339 71.385 -26.053 Q71.252 -24.149 72.666 -22.836 Q74.08 -21.524 76.062 -21.524 Q77.901 -21.524 79.24 -22.825 Q80.578 -24.125 81.06 -26.166 Q81.662 -28.812 83.313 -31.252 Q84.964 -33.692 88.236 -36.938 Q92.841 -41.486 94.918 -45.655 Q96.995 -49.823 96.995 -54.409 Z M29.694 23.059 Q25.41 23.059 22.261 19.909 Q19.111 16.76 19.111 12.476 V-82.936 Q19.111 -87.235 22.261 -90.397 Q25.41 -93.557 29.694 -93.557 H125.106 Q129.405 -93.557 132.567 -90.397 Q135.727 -87.235 135.727 -82.936 V12.476 Q135.727 16.76 132.567 19.909 Q129.405 23.059 125.106 23.059 H29.694 Z"/></g><g id="Regular-L" transform="matrix(1 0 0 1 1378.56 1556)"><path d="M76.902 1.938 Q79.374 1.938 81.088 0.264 Q82.802 -1.409 82.802 -3.907 Q82.802 -6.405 81.102 -8.119 Q79.403 -9.833 76.931 -9.833 Q74.459 -9.833 72.745 -8.129 Q71.031 -6.426 71.031 -3.947 Q71.031 -1.409 72.73 0.264 Q74.43 1.938 76.902 1.938 Z M97.073 -54.493 Q97.073 -62.804 91.627 -67.762 Q86.18 -72.721 76.997 -72.721 Q70.386 -72.721 65.105 -69.939 Q59.824 -67.157 56.679 -61.917 Q55.712 -60.466 56.478 -58.813 Q57.244 -57.16 59.011 -56.523 Q60.711 -55.709 62.365 -56.28 Q64.018 -56.849 65.189 -58.208 Q67.403 -60.949 70.386 -62.401 Q73.369 -63.852 77.158 -63.852 Q82.354 -63.852 85.319 -61.22 Q88.284 -58.589 88.284 -53.995 Q88.284 -50.871 86.591 -48.009 Q84.898 -45.147 80.867 -41.196 Q76.029 -36.601 74.135 -33.335 Q72.24 -30.07 71.809 -25.823 Q71.676 -24.042 73.006 -22.783 Q74.336 -21.524 76.215 -21.524 Q77.94 -21.524 79.221 -22.767 Q80.501 -24.009 80.867 -25.877 Q81.431 -28.619 83.044 -31.078 Q84.656 -33.537 88.043 -36.923 Q92.88 -41.68 94.976 -45.81 Q97.073 -49.939 97.073 -54.493 Z M29.348 22.094 Q25.644 22.094 22.86 19.31 Q20.076 16.526 20.076 12.823 V-83.282 Q20.076 -86.986 22.86 -89.77 Q25.644 -92.554 29.348 -92.554 H125.453 Q129.156 -92.554 131.94 -89.77 Q134.724 -86.986 134.724 -83.282 V12.823 Q134.724 16.526 131.94 19.31 Q129.156 22.094 125.453 22.094 H29.348 Z"/></g><g id="Light-L" transform="matrix(1 0 0 1 1082.77 1556)"><path d="M77.144 -0.419 Q79.219 -0.419 80.715 -1.829 Q82.213 -3.24 82.213 -5.349 Q82.213 -7.46 80.736 -8.956 Q79.259 -10.454 77.186 -10.454 Q75.11 -10.454 73.644 -8.97 Q72.179 -7.489 72.179 -5.405 Q72.179 -3.24 73.624 -1.829 Q75.07 -0.419 77.144 -0.419 Z M95.832 -53.501 Q95.832 -61.186 90.679 -66.022 Q85.525 -70.86 77.182 -70.86 Q71.255 -70.86 66.314 -68.249 Q61.375 -65.639 58.416 -60.707 Q57.603 -59.505 58.168 -58.168 Q58.73 -56.831 60.159 -56.367 Q61.548 -55.709 62.923 -56.186 Q64.298 -56.663 65.097 -57.744 Q67.278 -60.795 70.261 -62.323 Q73.245 -63.852 77.282 -63.852 Q82.726 -63.852 85.862 -60.982 Q88.997 -58.11 88.997 -53.158 Q88.997 -50.096 87.428 -47.343 Q85.859 -44.589 81.952 -40.887 Q77.394 -36.415 75.468 -33.134 Q73.543 -29.852 73.175 -25.853 Q73.04 -24.484 74.067 -23.515 Q75.093 -22.548 76.547 -22.548 Q77.91 -22.548 78.89 -23.496 Q79.87 -24.446 80.185 -25.908 Q80.686 -28.619 82.221 -31.017 Q83.756 -33.413 87.173 -36.862 Q91.919 -41.495 93.875 -45.313 Q95.832 -49.133 95.832 -53.501 Z M32.061 19.148 Q28.404 19.148 25.713 16.457 Q23.022 13.766 23.022 10.109 V-80.569 Q23.022 -84.226 25.713 -86.917 Q28.404 -89.608 32.061 -89.608 H122.739 Q126.396 -89.608 129.087 -86.917 Q131.778 -84.226 131.778 -80.569 V10.109 Q131.778 13.766 129.087 16.457 Q126.396 19.148 122.739 19.148 H32.061 Z"/></g><g id="Thin-L" transform="matrix(1 0 0 1 787.282 1556)"><path d="M77.385 -2.775 Q79.064 -2.775 80.343 -3.922 Q81.623 -5.068 81.623 -6.79 Q81.623 -8.514 80.37 -9.793 Q79.116 -11.073 77.439 -11.073 Q75.762 -11.073 74.543 -9.812 Q73.325 -8.551 73.325 -6.863 Q73.325 -5.068 74.517 -3.922 Q75.708 -2.775 77.385 -2.775 Z M94.592 -52.508 Q94.592 -59.567 89.732 -64.284 Q84.872 -68.999 77.369 -68.999 Q72.122 -68.999 67.523 -66.559 Q62.925 -64.118 60.153 -59.498 Q59.495 -58.544 59.856 -57.523 Q60.219 -56.5 61.306 -56.212 Q62.384 -55.709 63.481 -56.093 Q64.577 -56.476 65.003 -57.278 Q67.154 -60.64 70.137 -62.246 Q73.12 -63.852 77.406 -63.852 Q83.099 -63.852 86.404 -60.741 Q89.711 -57.632 89.711 -52.321 Q89.711 -49.32 88.265 -46.676 Q86.82 -44.031 83.037 -40.575 Q78.758 -36.228 76.802 -32.932 Q74.844 -29.636 74.539 -25.884 Q74.404 -24.926 75.126 -24.249 Q75.849 -23.57 76.879 -23.57 Q77.877 -23.57 78.558 -24.226 Q79.24 -24.883 79.503 -25.939 Q79.943 -28.619 81.401 -30.954 Q82.858 -33.289 86.306 -36.799 Q90.958 -41.308 92.775 -44.818 Q94.592 -48.327 94.592 -52.508 Z M34.775 16.202 Q31.163 16.202 28.565 13.605 Q25.968 11.007 25.968 7.395 V-77.855 Q25.968 -81.467 28.565 -84.065 Q31.163 -86.662 34.775 -86.662 H120.025 Q123.637 -86.662 126.235 -84.065 Q128.832 -81.467 128.832 -77.855 V7.395 Q128.832 11.007 126.235 13.605 Q123.637 16.202 120.025 16.202 H34.775 Z"/></g><g id="Ultralight-L" transform="matrix(1 0 0 1 491.205 1556)"><path d="M77.532 -4.189 Q78.971 -4.189 80.12 -5.178 Q81.27 -6.166 81.27 -7.656 Q81.27 -9.146 80.149 -10.296 Q79.03 -11.446 77.59 -11.446 Q76.152 -11.446 75.083 -10.317 Q74.014 -9.188 74.014 -7.737 Q74.014 -6.166 75.054 -5.178 Q76.092 -4.189 77.532 -4.189 Z M93.847 -51.913 Q93.847 -58.598 89.163 -63.241 Q84.479 -67.883 77.481 -67.883 Q72.643 -67.883 68.249 -65.545 Q63.855 -63.207 61.194 -58.772 Q60.63 -57.966 60.87 -57.134 Q61.111 -56.304 61.994 -56.12 Q62.888 -55.709 63.816 -56.038 Q64.743 -56.365 64.947 -56.999 Q67.08 -60.546 70.063 -62.199 Q73.046 -63.852 77.481 -63.852 Q83.321 -63.852 86.73 -60.598 Q90.139 -57.345 90.139 -51.818 Q90.139 -48.856 88.768 -46.276 Q87.398 -43.696 83.689 -40.39 Q79.577 -36.117 77.602 -32.811 Q75.626 -29.506 75.357 -25.903 Q75.223 -25.191 75.763 -24.687 Q76.302 -24.184 77.079 -24.184 Q77.86 -24.184 78.359 -24.665 Q78.861 -25.145 79.093 -25.958 Q79.496 -28.619 80.907 -30.917 Q82.318 -33.214 85.785 -36.762 Q90.381 -41.196 92.114 -44.52 Q93.847 -47.843 93.847 -51.913 Z M36.404 14.435 Q32.819 14.435 30.278 11.892 Q27.735 9.351 27.735 5.766 V-76.226 Q27.735 -79.811 30.278 -82.352 Q32.819 -84.895 36.404 -84.895 H118.396 Q121.981 -84.895 124.522 -82.352 Q127.065 -79.811 127.065 -76.226 V5.766 Q127.065 9.351 124.522 11.892 Q121.981 14.435 118.396 14.435 H36.404 Z"/></g><g id="Bold-M" transform="matrix(1 0 0 1 2281.8 1126)"><path d="M59.375 -6.042 Q62.343 -6.042 64.484 -8.184 Q66.625 -10.325 66.625 -13.292 Q66.625 -16.26 64.484 -18.339 Q62.343 -20.417 59.375 -20.417 Q56.407 -20.417 54.329 -18.339 Q52.25 -16.26 52.25 -13.292 Q52.25 -10.325 54.329 -8.184 Q56.407 -6.042 59.375 -6.042 Z M76.875 -49.642 Q76.875 -56.355 72.312 -60.449 Q67.75 -64.542 60.438 -64.542 Q55.438 -64.542 51.031 -62.105 Q46.625 -59.667 43.812 -55.23 Q42.625 -53.355 43.562 -51.355 Q44.5 -49.355 46.807 -48.424 Q48.75 -47.73 50.782 -48.391 Q52.814 -49.051 54.5 -50.98 Q55.75 -52.355 57.062 -53.011 Q58.375 -53.667 60.062 -53.667 Q62.34 -53.667 63.858 -52.24 Q65.375 -50.811 65.375 -48.605 Q65.375 -47.167 64.312 -45.417 Q63.25 -43.667 61.625 -41.98 Q57.062 -37.855 55.719 -35.636 Q54.375 -33.417 53.916 -30 Q53.688 -27.792 55.344 -26.23 Q57 -24.667 59.4 -24.667 Q61.438 -24.667 63.078 -26.1 Q64.716 -27.531 65.562 -29.917 Q66.188 -31.542 67.375 -33.167 Q68.562 -34.792 70.75 -36.792 Q73.938 -39.98 75.406 -43.074 Q76.875 -46.167 76.875 -49.642 Z M27 12.895 Q20.633 12.895 16.254 8.516 Q11.875 4.138 11.875 -2.23 V-68.23 Q11.875 -74.597 16.254 -78.976 Q20.633 -83.355 27 -83.355 H93 Q99.368 -83.355 103.746 -78.976 Q108.125 -74.597 108.125 -68.23 V-2.23 Q108.125 4.138 103.746 8.516 Q99.368 12.895 93 12.895 H27 Z"/></g><g id="Semibold-M" transform="matrix(1 0 0 1 1985.97 1126)"><path d="M59.646 -6.042 Q62.396 -6.042 64.347 -7.994 Q66.299 -9.945 66.299 -12.695 Q66.299 -15.445 64.347 -17.36 Q62.396 -19.276 59.646 -19.276 Q56.896 -19.276 54.981 -17.36 Q53.065 -15.445 53.065 -12.695 Q53.065 -9.945 54.981 -7.994 Q56.896 -6.042 59.646 -6.042 Z M77.037 -49.806 Q77.037 -56.409 72.502 -60.421 Q67.968 -64.434 60.655 -64.434 Q55.546 -64.434 51.249 -62.077 Q46.951 -59.721 44.301 -55.392 Q43.278 -53.735 44.133 -51.952 Q44.989 -50.17 47.025 -49.347 Q48.75 -48.709 50.565 -49.315 Q52.38 -49.921 53.794 -51.632 Q55.097 -53.225 56.709 -54.016 Q58.321 -54.809 60.334 -54.809 Q63.155 -54.809 64.971 -53.164 Q66.787 -51.517 66.787 -48.985 Q66.787 -47.221 65.59 -45.255 Q64.391 -43.287 62.278 -41.274 Q58.041 -37.475 56.615 -35.201 Q55.19 -32.929 54.731 -29.565 Q54.502 -27.575 55.996 -26.121 Q57.489 -24.667 59.671 -24.667 Q61.546 -24.667 63.05 -25.964 Q64.554 -27.26 65.183 -29.429 Q65.699 -31.216 66.859 -32.869 Q68.019 -34.521 70.424 -36.792 Q74.046 -40.415 75.543 -43.4 Q77.037 -46.385 77.037 -49.806 Z M26.348 11.048 Q21.067 11.048 17.395 7.375 Q13.723 3.703 13.723 -1.577 V-68.882 Q13.723 -74.162 17.395 -77.835 Q21.067 -81.507 26.348 -81.507 H93.653 Q98.933 -81.507 102.605 -77.835 Q106.278 -74.162 106.278 -68.882 V-1.577 Q106.278 3.703 102.605 7.375 Q98.933 11.048 93.653 11.048 H26.348 Z"/></g><g id="Medium-M" transform="matrix(1 0 0 1 1689.91 1126)"><path d="M59.85 -6.042 Q62.438 -6.042 64.246 -7.851 Q66.054 -9.659 66.054 -12.246 Q66.054 -14.834 64.246 -16.626 Q62.438 -18.42 59.85 -18.42 Q57.264 -18.42 55.47 -16.626 Q53.676 -14.834 53.676 -12.246 Q53.676 -9.659 55.47 -7.851 Q57.264 -6.042 59.85 -6.042 Z M77.16 -49.929 Q77.16 -56.45 72.645 -60.401 Q68.13 -64.352 60.818 -64.352 Q55.627 -64.352 51.411 -62.057 Q47.196 -59.762 44.669 -55.515 Q43.766 -54.021 44.561 -52.401 Q45.356 -50.781 47.189 -50.04 Q48.75 -49.442 50.401 -50.007 Q52.054 -50.574 53.264 -52.121 Q54.609 -53.876 56.444 -54.771 Q58.28 -55.665 60.538 -55.665 Q63.767 -55.665 65.808 -53.856 Q67.847 -52.047 67.847 -49.271 Q67.847 -47.262 66.547 -45.132 Q65.248 -43.001 62.766 -40.744 Q58.775 -37.189 57.288 -34.875 Q55.801 -32.561 55.344 -29.239 Q55.114 -27.412 56.485 -26.04 Q57.856 -24.667 59.875 -24.667 Q61.627 -24.667 63.029 -25.861 Q64.431 -27.056 64.896 -29.061 Q65.331 -30.971 66.471 -32.645 Q67.611 -34.317 70.179 -36.792 Q74.127 -40.741 75.644 -43.645 Q77.16 -46.547 77.16 -49.929 Z M25.859 9.661 Q21.394 9.661 18.251 6.519 Q15.109 3.376 15.109 -1.089 V-69.371 Q15.109 -73.836 18.251 -76.979 Q21.394 -80.121 25.859 -80.121 H94.141 Q98.606 -80.121 101.749 -76.979 Q104.891 -73.836 104.891 -69.371 V-1.089 Q104.891 3.376 101.749 6.519 Q98.606 9.661 94.141 9.661 H25.859 Z"/></g><g id="Regular-M" transform="matrix(1 0 0 1 1394.06 1126)"><path d="M60 -6.042 Q62.468 -6.042 64.171 -7.746 Q65.875 -9.45 65.875 -11.917 Q65.875 -14.385 64.171 -16.089 Q62.468 -17.792 60 -17.792 Q57.532 -17.792 55.829 -16.089 Q54.125 -14.385 54.125 -11.917 Q54.125 -9.45 55.829 -7.746 Q57.532 -6.042 60 -6.042 Z M77.25 -50.017 Q77.25 -56.48 72.75 -60.386 Q68.25 -64.292 60.938 -64.292 Q55.688 -64.292 51.531 -62.042 Q47.375 -59.792 44.938 -55.605 Q44.125 -54.23 44.875 -52.73 Q45.625 -51.23 47.307 -50.549 Q48.75 -49.98 50.282 -50.516 Q51.814 -51.051 52.875 -52.48 Q54.25 -54.355 56.25 -55.324 Q58.25 -56.292 60.688 -56.292 Q64.215 -56.292 66.42 -54.365 Q68.625 -52.436 68.625 -49.48 Q68.625 -47.292 67.25 -45.042 Q65.875 -42.792 63.125 -40.355 Q59.312 -36.98 57.781 -34.636 Q56.25 -32.292 55.791 -29 Q55.562 -27.292 56.844 -25.98 Q58.125 -24.667 60.025 -24.667 Q61.688 -24.667 63.015 -25.787 Q64.341 -26.906 64.688 -28.792 Q65.062 -30.792 66.188 -32.48 Q67.312 -34.167 70 -36.792 Q74.188 -40.98 75.719 -43.824 Q77.25 -46.667 77.25 -50.017 Z M25.5 8.645 Q21.633 8.645 18.879 5.891 Q16.125 3.138 16.125 -0.73 V-69.73 Q16.125 -73.597 18.879 -76.351 Q21.633 -79.105 25.5 -79.105 H94.5 Q98.368 -79.105 101.121 -76.351 Q103.875 -73.597 103.875 -69.73 V-0.73 Q103.875 3.138 101.121 5.891 Q98.368 8.645 94.5 8.645 H25.5 Z"/></g><g id="Light-M" transform="matrix(1 0 0 1 1098.18 1126)"><path d="M60.091 -8.062 Q62.108 -8.062 63.498 -9.441 Q64.889 -10.82 64.889 -12.842 Q64.889 -14.866 63.502 -16.257 Q62.116 -17.649 60.1 -17.649 Q58.085 -17.649 56.694 -16.26 Q55.303 -14.872 55.303 -12.855 Q55.303 -10.82 56.69 -9.441 Q58.076 -8.062 60.091 -8.062 Z M75.664 -49.201 Q75.664 -55.177 71.486 -58.941 Q67.31 -62.706 60.697 -62.706 Q56.072 -62.706 52.205 -60.612 Q48.336 -58.519 46.044 -54.667 Q45.399 -53.581 45.944 -52.397 Q46.49 -51.215 47.812 -50.716 Q48.966 -50.269 50.186 -50.684 Q51.405 -51.1 52.178 -52.215 Q53.625 -54.379 55.697 -55.456 Q57.769 -56.532 60.495 -56.532 Q64.36 -56.532 66.745 -54.371 Q69.13 -52.21 69.13 -48.831 Q69.13 -46.644 67.875 -44.526 Q66.62 -42.407 63.919 -39.97 Q60.226 -36.595 58.695 -34.215 Q57.164 -31.836 56.801 -28.735 Q56.62 -27.442 57.594 -26.451 Q58.568 -25.461 59.994 -25.461 Q61.279 -25.461 62.278 -26.305 Q63.275 -27.149 63.534 -28.576 Q63.909 -30.6 65.045 -32.336 Q66.183 -34.071 68.846 -36.696 Q72.721 -40.547 74.192 -43.271 Q75.664 -45.994 75.664 -49.201 Z M26.931 6.361 Q23.387 6.361 20.899 3.871 Q18.409 1.383 18.409 -2.161 V-68.299 Q18.409 -71.842 20.899 -74.331 Q23.387 -76.821 26.931 -76.821 H93.069 Q96.612 -76.821 99.101 -74.331 Q101.591 -71.842 101.591 -68.299 V-2.161 Q101.591 1.383 99.101 3.871 Q96.612 6.361 93.069 6.361 H26.931 Z"/></g><g id="Thin-M" transform="matrix(1 0 0 1 802.565 1126)"><path d="M60.184 -10.081 Q61.746 -10.081 62.825 -11.136 Q63.904 -12.19 63.904 -13.769 Q63.904 -15.346 62.834 -16.425 Q61.764 -17.504 60.201 -17.504 Q58.639 -17.504 57.56 -16.431 Q56.481 -15.359 56.481 -13.792 Q56.481 -12.19 57.551 -11.136 Q58.621 -10.081 60.184 -10.081 Z M74.078 -48.384 Q74.078 -53.876 70.224 -57.497 Q66.37 -61.12 60.456 -61.12 Q56.456 -61.12 52.877 -59.182 Q49.297 -57.245 47.149 -53.73 Q46.672 -52.932 47.014 -52.066 Q47.354 -51.2 48.318 -50.885 Q49.182 -50.557 50.09 -50.852 Q50.998 -51.147 51.481 -51.951 Q53 -54.402 55.144 -55.589 Q57.289 -56.774 60.303 -56.774 Q64.504 -56.774 67.069 -54.377 Q69.635 -51.982 69.635 -48.182 Q69.635 -45.995 68.5 -44.009 Q67.365 -42.024 64.711 -39.586 Q61.14 -36.211 59.609 -33.795 Q58.078 -31.379 57.811 -28.471 Q57.678 -27.592 58.344 -26.924 Q59.009 -26.254 59.964 -26.254 Q60.87 -26.254 61.54 -26.822 Q62.209 -27.391 62.38 -28.36 Q62.755 -30.407 63.904 -32.191 Q65.052 -33.975 67.692 -36.6 Q71.255 -40.115 72.666 -42.717 Q74.078 -45.321 74.078 -48.384 Z M28.361 4.078 Q25.142 4.078 22.918 1.853 Q20.692 -0.372 20.692 -3.591 V-66.869 Q20.692 -70.087 22.918 -72.312 Q25.142 -74.537 28.361 -74.537 H91.639 Q94.858 -74.537 97.082 -72.312 Q99.308 -70.087 99.308 -66.869 V-3.591 Q99.308 -0.372 97.082 1.853 Q94.858 4.078 91.639 4.078 H28.361 Z"/></g><g id="Ultralight-M" transform="matrix(1 0 0 1 506.415 1126)"><path d="M60.239 -11.292 Q61.53 -11.292 62.421 -12.152 Q63.312 -13.012 63.312 -14.324 Q63.312 -15.635 62.432 -16.526 Q61.553 -17.417 60.261 -17.417 Q58.97 -17.417 58.079 -16.534 Q57.188 -15.651 57.188 -14.355 Q57.188 -13.012 58.068 -12.152 Q58.947 -11.292 60.239 -11.292 Z M73.125 -47.892 Q73.125 -53.095 69.466 -56.631 Q65.806 -60.167 60.312 -60.167 Q56.688 -60.167 53.281 -58.324 Q49.875 -56.48 47.812 -53.167 Q47.438 -52.542 47.655 -51.866 Q47.873 -51.191 48.62 -50.986 Q49.312 -50.73 50.032 -50.954 Q50.751 -51.176 51.062 -51.792 Q52.625 -54.417 54.812 -55.667 Q57 -56.917 60.188 -56.917 Q64.59 -56.917 67.264 -54.382 Q69.938 -51.846 69.938 -47.792 Q69.938 -45.605 68.875 -43.699 Q67.812 -41.792 65.188 -39.355 Q61.688 -35.98 60.156 -33.542 Q58.625 -31.105 58.416 -28.312 Q58.312 -27.682 58.794 -27.206 Q59.274 -26.73 59.945 -26.73 Q60.625 -26.73 61.097 -27.134 Q61.57 -27.537 61.688 -28.23 Q62.062 -30.292 63.219 -32.105 Q64.375 -33.917 67 -36.542 Q70.375 -39.855 71.75 -42.386 Q73.125 -44.917 73.125 -47.892 Z M29.22 2.708 Q26.195 2.708 24.129 0.641 Q22.062 -1.425 22.062 -4.45 V-66.01 Q22.062 -69.035 24.129 -71.101 Q26.195 -73.167 29.22 -73.167 H90.78 Q93.805 -73.167 95.871 -71.101 Q97.938 -69.035 97.938 -66.01 V-4.45 Q97.938 -1.425 95.871 0.641 Q93.805 2.708 90.78 2.708 H29.22 Z"/></g><g id="Bold-S" transform="matrix(1 0 0 1 2294.23 696)"><path d="M46.824 -14.568 Q48.991 -14.568 50.532 -16.136 Q52.074 -17.705 52.074 -19.871 Q52.074 -22.038 50.526 -23.481 Q48.977 -24.924 46.84 -24.924 Q44.703 -24.924 43.161 -23.481 Q41.62 -22.038 41.62 -19.871 Q41.62 -17.705 43.139 -16.136 Q44.658 -14.568 46.824 -14.568 Z M58.583 -44.826 Q58.583 -49.629 55.181 -52.81 Q51.778 -55.991 46.6 -55.991 Q43.642 -55.991 40.707 -54.265 Q37.773 -52.539 35.752 -49.629 Q34.815 -48.15 35.456 -46.67 Q36.097 -45.191 37.811 -44.51 Q39.253 -44.008 40.716 -44.492 Q42.181 -44.976 43.415 -46.399 Q44.283 -47.361 44.973 -47.731 Q45.663 -48.101 46.699 -48.101 Q48.32 -48.101 49.408 -47.002 Q50.496 -45.903 50.496 -44.205 Q50.496 -43.268 49.855 -42.38 Q49.214 -41.493 47.636 -39.569 Q44.135 -36.216 43.518 -34.909 Q42.902 -33.603 42.737 -31.301 Q42.655 -29.658 43.861 -28.622 Q45.066 -27.587 46.804 -27.587 Q48.277 -27.587 49.423 -28.667 Q50.568 -29.747 51.137 -31.433 Q51.532 -32.518 52.321 -33.603 Q53.11 -34.688 54.836 -36.068 Q56.463 -37.597 57.523 -39.916 Q58.583 -42.233 58.583 -44.826 Z M22.881 0.374 Q18.183 0.374 14.959 -2.849 Q11.736 -6.073 11.736 -10.771 V-59.689 Q11.736 -64.387 14.959 -67.611 Q18.183 -70.834 22.881 -70.834 H71.799 Q76.497 -70.834 79.721 -67.611 Q82.944 -64.387 82.944 -59.689 V-10.771 Q82.944 -6.073 79.721 -2.849 Q76.497 0.374 71.799 0.374 H22.881 Z"/></g><g id="Semibold-S" transform="matrix(1 0 0 1 1998.1 696)"><path d="M47.039 -14.568 Q49.033 -14.568 50.425 -15.986 Q51.817 -17.406 51.817 -19.4 Q51.817 -21.395 50.418 -22.709 Q49.02 -24.023 47.054 -24.023 Q45.088 -24.023 43.676 -22.709 Q42.263 -21.395 42.263 -19.4 Q42.263 -17.406 43.653 -15.986 Q45.044 -14.568 47.039 -14.568 Z M58.711 -44.955 Q58.711 -49.672 55.331 -52.788 Q51.95 -55.905 46.772 -55.905 Q43.727 -55.905 40.879 -54.243 Q38.031 -52.581 36.137 -49.757 Q35.329 -48.45 35.905 -47.142 Q36.482 -45.834 37.982 -45.238 Q39.253 -44.78 40.546 -45.221 Q41.838 -45.663 42.857 -46.914 Q43.768 -48.047 44.694 -48.524 Q45.621 -49.001 46.913 -49.001 Q48.964 -49.001 50.287 -47.731 Q51.61 -46.46 51.61 -44.505 Q51.61 -43.31 50.863 -42.252 Q50.114 -41.193 48.151 -39.012 Q44.907 -35.916 44.225 -34.566 Q43.545 -33.217 43.38 -30.958 Q43.298 -29.486 44.375 -28.536 Q45.451 -27.587 47.019 -27.587 Q48.363 -27.587 49.401 -28.56 Q50.44 -29.533 50.837 -31.047 Q51.146 -32.26 51.913 -33.367 Q52.681 -34.474 54.578 -36.068 Q56.549 -37.94 57.631 -40.173 Q58.711 -42.405 58.711 -44.955 Z M22.366 -1.084 Q18.526 -1.084 15.86 -3.75 Q13.194 -6.416 13.194 -10.256 V-60.204 Q13.194 -64.044 15.86 -66.71 Q18.526 -69.376 22.366 -69.376 H72.314 Q76.154 -69.376 78.82 -66.71 Q81.486 -64.044 81.486 -60.204 V-10.256 Q81.486 -6.416 78.82 -3.75 Q76.154 -1.084 72.314 -1.084 H22.366 Z"/></g><g id="Medium-S" transform="matrix(1 0 0 1 1701.85 696)"><path d="M47.2 -14.568 Q49.066 -14.568 50.345 -15.874 Q51.623 -17.18 51.623 -19.047 Q51.623 -20.913 50.338 -22.13 Q49.052 -23.348 47.215 -23.348 Q45.378 -23.348 44.062 -22.13 Q42.745 -20.913 42.745 -19.047 Q42.745 -17.18 44.04 -15.874 Q45.334 -14.568 47.2 -14.568 Z M58.808 -45.052 Q58.808 -49.704 55.443 -52.772 Q52.078 -55.841 46.9 -55.841 Q43.791 -55.841 41.007 -54.227 Q38.224 -52.614 36.427 -49.854 Q35.715 -48.676 36.244 -47.496 Q36.772 -46.316 38.112 -45.786 Q39.253 -45.359 40.417 -45.768 Q41.58 -46.177 42.438 -47.3 Q43.382 -48.561 44.485 -49.119 Q45.588 -49.677 47.074 -49.677 Q49.447 -49.677 50.947 -48.277 Q52.447 -46.879 52.447 -44.731 Q52.447 -43.343 51.618 -42.155 Q50.79 -40.967 48.536 -38.594 Q45.486 -35.691 44.756 -34.309 Q44.027 -32.927 43.863 -30.7 Q43.781 -29.358 44.761 -28.472 Q45.741 -27.587 47.18 -27.587 Q48.427 -27.587 49.384 -28.479 Q50.343 -29.373 50.611 -30.757 Q50.856 -32.067 51.608 -33.19 Q52.359 -34.313 54.385 -36.068 Q56.613 -38.198 57.71 -40.365 Q58.808 -42.534 58.808 -45.052 Z M21.981 -2.178 Q18.783 -2.178 16.535 -4.425 Q14.288 -6.673 14.288 -9.871 V-60.589 Q14.288 -63.787 16.535 -66.035 Q18.783 -68.282 21.981 -68.282 H72.699 Q75.897 -68.282 78.145 -66.035 Q80.392 -63.787 80.392 -60.589 V-9.871 Q80.392 -6.673 78.145 -4.425 Q75.897 -2.178 72.699 -2.178 H21.981 Z"/></g><g id="Regular-S" transform="matrix(1 0 0 1 1405.73 696)"><path d="M47.317 -14.568 Q49.09 -14.568 50.286 -15.791 Q51.482 -17.015 51.482 -18.786 Q51.482 -20.559 50.279 -21.706 Q49.076 -22.853 47.333 -22.853 Q45.59 -22.853 44.345 -21.706 Q43.099 -20.559 43.099 -18.786 Q43.099 -17.015 44.322 -15.791 Q45.546 -14.568 47.317 -14.568 Z M58.879 -45.122 Q58.879 -49.728 55.526 -52.761 Q52.173 -55.793 46.995 -55.793 Q43.839 -55.793 41.102 -54.215 Q38.365 -52.637 36.639 -49.925 Q35.998 -48.84 36.491 -47.755 Q36.984 -46.67 38.205 -46.186 Q39.253 -45.783 40.322 -46.168 Q41.392 -46.554 42.133 -47.583 Q43.099 -48.939 44.332 -49.555 Q45.565 -50.172 47.192 -50.172 Q49.8 -50.172 51.43 -48.679 Q53.06 -47.185 53.06 -44.895 Q53.06 -43.367 52.173 -42.084 Q51.285 -40.802 48.819 -38.287 Q45.91 -35.526 45.146 -34.12 Q44.381 -32.715 44.217 -30.512 Q44.135 -29.263 45.044 -28.425 Q45.953 -27.587 47.298 -27.587 Q48.474 -27.587 49.374 -28.421 Q50.272 -29.254 50.447 -30.545 Q50.644 -31.926 51.384 -33.06 Q52.123 -34.194 54.244 -36.068 Q56.66 -38.386 57.77 -40.507 Q58.879 -42.628 58.879 -45.122 Z M21.698 -2.98 Q18.972 -2.98 17.031 -4.921 Q15.09 -6.862 15.09 -9.587 V-60.872 Q15.09 -63.598 17.031 -65.539 Q18.972 -67.48 21.698 -67.48 H72.983 Q75.708 -67.48 77.649 -65.539 Q79.59 -63.598 79.59 -60.872 V-9.587 Q79.59 -6.862 77.649 -4.921 Q75.708 -2.98 72.983 -2.98 H21.698 Z"/></g><g id="Light-S" transform="matrix(1 0 0 1 1109.75 696)"><path d="M47.39 -16.162 Q48.806 -16.162 49.754 -17.128 Q50.704 -18.096 50.704 -19.517 Q50.704 -20.938 49.751 -21.839 Q48.798 -22.739 47.412 -22.739 Q46.026 -22.739 45.027 -21.841 Q44.028 -20.943 44.028 -19.527 Q44.028 -18.096 45.002 -17.128 Q45.975 -16.162 47.39 -16.162 Z M57.628 -44.478 Q57.628 -48.7 54.529 -51.62 Q51.431 -54.542 46.805 -54.542 Q44.143 -54.542 41.634 -53.087 Q39.124 -51.632 37.512 -49.185 Q37.003 -48.328 37.334 -47.493 Q37.667 -46.659 38.604 -46.319 Q39.423 -46.011 40.246 -46.302 Q41.069 -46.593 41.582 -47.374 Q42.606 -48.958 43.896 -49.66 Q45.185 -50.361 47.04 -50.361 Q49.914 -50.361 51.686 -48.683 Q53.459 -47.006 53.459 -44.383 Q53.459 -42.855 52.666 -41.677 Q51.873 -40.499 49.446 -37.984 Q46.631 -35.222 45.867 -33.788 Q45.102 -32.355 45.013 -30.303 Q44.969 -29.382 45.636 -28.797 Q46.302 -28.213 47.274 -28.213 Q48.152 -28.213 48.792 -28.829 Q49.431 -29.446 49.536 -30.375 Q49.734 -31.774 50.482 -32.947 Q51.232 -34.118 53.333 -35.992 Q55.503 -38.045 56.565 -40.071 Q57.628 -42.097 57.628 -44.478 Z M22.827 -4.782 Q20.356 -4.782 18.624 -6.514 Q16.892 -8.246 16.892 -10.717 V-59.743 Q16.892 -62.214 18.624 -63.946 Q20.356 -65.678 22.827 -65.678 H71.853 Q74.324 -65.678 76.056 -63.946 Q77.788 -62.214 77.788 -59.743 V-10.717 Q77.788 -8.246 76.056 -6.514 Q74.324 -4.782 71.853 -4.782 H22.827 Z"/></g><g id="Thin-S" transform="matrix(1 0 0 1 814.015 696)"><path d="M47.462 -17.755 Q48.521 -17.755 49.224 -18.466 Q49.927 -19.177 49.927 -20.247 Q49.927 -21.317 49.224 -21.971 Q48.521 -22.625 47.492 -22.625 Q46.463 -22.625 45.711 -21.976 Q44.958 -21.327 44.958 -20.266 Q44.958 -19.177 45.681 -18.466 Q46.404 -17.755 47.462 -17.755 Z M56.376 -43.833 Q56.376 -47.674 53.533 -50.481 Q50.689 -53.29 46.615 -53.29 Q44.445 -53.29 42.164 -51.959 Q39.882 -50.627 38.384 -48.446 Q38.008 -47.817 38.179 -47.232 Q38.348 -46.647 39.002 -46.452 Q39.594 -46.239 40.171 -46.434 Q40.747 -46.63 41.032 -47.166 Q42.113 -48.976 43.459 -49.764 Q44.806 -50.551 46.888 -50.551 Q50.028 -50.551 51.942 -48.689 Q53.857 -46.827 53.857 -43.872 Q53.857 -42.343 53.159 -41.269 Q52.461 -40.196 50.071 -37.681 Q47.352 -34.919 46.587 -33.457 Q45.823 -31.994 45.81 -30.095 Q45.803 -29.5 46.228 -29.169 Q46.651 -28.838 47.249 -28.838 Q47.829 -28.838 48.21 -29.238 Q48.59 -29.637 48.626 -30.204 Q48.823 -31.622 49.582 -32.832 Q50.34 -34.043 52.423 -35.916 Q54.346 -37.704 55.361 -39.635 Q56.376 -41.566 56.376 -43.833 Z M23.955 -6.583 Q21.741 -6.583 20.217 -8.107 Q18.693 -9.631 18.693 -11.845 V-58.615 Q18.693 -60.829 20.217 -62.353 Q21.741 -63.877 23.955 -63.877 H70.725 Q72.939 -63.877 74.463 -62.353 Q75.987 -60.829 75.987 -58.615 V-11.845 Q75.987 -9.631 74.463 -8.107 Q72.939 -6.583 70.725 -6.583 H23.955 Z"/></g><g id="Ultralight-S" transform="matrix(1 0 0 1 517.792 696)"><path d="M47.506 -18.71 Q48.35 -18.71 48.905 -19.268 Q49.46 -19.826 49.46 -20.685 Q49.46 -21.545 48.907 -22.051 Q48.354 -22.557 47.539 -22.557 Q46.725 -22.557 46.12 -22.057 Q45.515 -21.558 45.515 -20.709 Q45.515 -19.826 46.088 -19.268 Q46.662 -18.71 47.506 -18.71 Z M55.625 -43.445 Q55.625 -47.057 52.935 -49.798 Q50.245 -52.539 46.502 -52.539 Q44.628 -52.539 42.483 -51.281 Q40.338 -50.024 38.908 -48.002 Q38.612 -47.509 38.685 -47.074 Q38.758 -46.64 39.241 -46.531 Q39.697 -46.375 40.125 -46.514 Q40.554 -46.653 40.703 -47.04 Q41.817 -48.988 43.198 -49.826 Q44.579 -50.665 46.798 -50.665 Q50.096 -50.665 52.096 -48.692 Q54.096 -46.72 54.096 -43.564 Q54.096 -42.035 53.455 -41.024 Q52.814 -40.013 50.447 -37.498 Q47.784 -34.737 47.019 -33.257 Q46.255 -31.778 46.288 -29.969 Q46.304 -29.571 46.583 -29.392 Q46.861 -29.214 47.234 -29.214 Q47.636 -29.214 47.861 -29.483 Q48.086 -29.752 48.08 -30.101 Q48.277 -31.532 49.041 -32.764 Q49.806 -33.997 51.877 -35.871 Q53.652 -37.498 54.638 -39.373 Q55.625 -41.247 55.625 -43.445 Z M24.633 -7.664 Q22.571 -7.664 21.173 -9.063 Q19.774 -10.461 19.774 -12.523 V-57.937 Q19.774 -59.999 21.173 -61.397 Q22.571 -62.796 24.633 -62.796 H70.047 Q72.109 -62.796 73.507 -61.397 Q74.906 -59.999 74.906 -57.937 V-12.523 Q74.906 -10.461 73.507 -9.063 Q72.109 -7.664 70.047 -7.664 H24.633 Z"/></g></g></svg>