<svg xmlns="http://www.w3.org/2000/svg" version="1.1" width="3300" height="2000"><g id="Notes"><style>
    text {
      font-family: monospace;
      text-anchor: middle;
    }
    text.emphasis {
      font-weight:bold;
    }
    text.lanchor {
      text-anchor: start;
    }
  </style><rect height="2200" id="artboard" fill="white" width="3300" x="0" y="0"/><line id="" style="fill:none;stroke:black;stroke-width:0.5;" x1="263" x2="3036" y1="292" y2="292"/><text class="lanchor emphasis" transform="matrix(1 0 0 1 263 322)">Weight/Scale Variations</text><text transform="matrix(1 0 0 1 559.711 322)">Ultralight</text><text transform="matrix(1 0 0 1 856.422 322)">Thin</text><text transform="matrix(1 0 0 1 1153.13 322)">Light</text><text transform="matrix(1 0 0 1 1449.84 322)">Regular</text><text transform="matrix(1 0 0 1 1746.56 322)">Medium</text><text transform="matrix(1 0 0 1 2043.27 322)">Semibold</text><text transform="matrix(1 0 0 1 2339.98 322)">Bold</text><text transform="matrix(1 0 0 1 2636.69 322)">Heavy</text><text transform="matrix(1 0 0 1 2933.4 322)">Black</text><text id="template-version" style="text-anchor: end;" transform="matrix(1 0 0 1 3036 1933)">Template v.1.0</text><text class="lanchor" transform="matrix(1 0 0 1 263 726)">Small</text><text class="lanchor" transform="matrix(1 0 0 1 263 1156)">Medium</text><text class="lanchor" transform="matrix(1 0 0 1 263 1586)">Large</text></g><g id="Guides"><g id="H-reference" style="fill:#27AAE1;stroke:none;" transform="matrix(1 0 0 1 339 696)"><path d="M 54.9316 0 L 57.666 0 L 30.5664 -70.459 L 28.0762 -70.459 L 0.976562 0 L 3.66211 0 L 12.9395 -24.4629 L 45.7031 -24.4629 Z M 29.1992 -67.0898 L 29.4434 -67.0898 L 44.8242 -26.709 L 13.8184 -26.709 Z"/></g><line id="Baseline-S" style="fill:none;stroke:#27AAE1;opacity:1;stroke-width:0.577;" x1="263" x2="3036" y1="696" y2="696"/><line id="Capline-S" style="fill:none;stroke:#27AAE1;opacity:1;stroke-width:0.577;" x1="263" x2="3036" y1="625.541" y2="625.541"/><g id="H-reference" style="fill:#27AAE1;stroke:none;" transform="matrix(1 0 0 1 339 1126)"><path d="M 54.9316 0 L 57.666 0 L 30.5664 -70.459 L 28.0762 -70.459 L 0.976562 0 L 3.66211 0 L 12.9395 -24.4629 L 45.7031 -24.4629 Z M 29.1992 -67.0898 L 29.4434 -67.0898 L 44.8242 -26.709 L 13.8184 -26.709 Z"/></g><line id="Baseline-M" style="fill:none;stroke:#27AAE1;opacity:1;stroke-width:0.577;" x1="263" x2="3036" y1="1126" y2="1126"/><line id="Capline-M" style="fill:none;stroke:#27AAE1;opacity:1;stroke-width:0.577;" x1="263" x2="3036" y1="1055.54" y2="1055.54"/><g id="H-reference" style="fill:#27AAE1;stroke:none;" transform="matrix(1 0 0 1 339 1556)"><path d="M 54.9316 0 L 57.666 0 L 30.5664 -70.459 L 28.0762 -70.459 L 0.976562 0 L 3.66211 0 L 12.9395 -24.4629 L 45.7031 -24.4629 Z M 29.1992 -67.0898 L 29.4434 -67.0898 L 44.8242 -26.709 L 13.8184 -26.709 Z"/></g><line id="Baseline-L" style="fill:none;stroke:#27AAE1;opacity:1;stroke-width:0.577;" x1="263" x2="3036" y1="1556" y2="1556"/><line id="Capline-L" style="fill:none;stroke:#27AAE1;opacity:1;stroke-width:0.577;" x1="263" x2="3036" y1="1485.54" y2="1485.54"/><rect height="119.336" id="left-margin" style="fill:darkred;stroke:none;opacity:0.4;" width="12.4512" x="1394.06" y="1030.79"/><rect height="119.336" id="right-margin" style="fill:darkgreen;stroke:none;opacity:0.4;" width="12.4512" x="1502.5112" y="1030.79"/><rect x="1406.5112" y="1045" width="96" height="96" fill="none" stroke="blue" stroke-dasharray="5"/><rect x="1394.06" y="1030.79" width="120.9024" height="119.336" fill="none" stroke="blue"/></g><g id="Symbols"><g id="Bold-L" transform="matrix(1 0 0 1 2266 1556)"><path d="M29.508750000000003 29.27000000000001 V13.951250000000002 H125.29125 V29.27000000000001 H29.508750000000003 Z M77.4 2.9862500000000125 Q58.85625 2.9862500000000125 47.971875000000004 -7.414374999999993 Q37.0875 -17.814999999999998 37.0875 -35.874999999999986 V-92.79624999999999 H55.63125 V-36.68124999999999 Q55.63125 -26.522499999999994 61.516875 -20.959374999999994 Q67.4025 -15.396249999999995 77.4 -15.396249999999995 Q87.39750000000001 -15.396249999999995 93.283125 -20.959374999999994 Q99.16875 -26.522499999999994 99.16875 -36.68124999999999 V-92.79624999999999 H117.87375 V-35.874999999999986 Q117.87375 -17.814999999999998 106.90875 -7.414374999999993 Q95.94375000000001 2.9862500000000125 77.4 2.9862500000000125 Z"/></g><g id="Semibold-L" transform="matrix(1 0 0 1 1970.27 1556)"><path d="M30.6375 25.077500000000015 V12.177500000000023 H124.16250000000001 V25.077500000000015 H30.6375 Z M77.4 0.40625 Q59.98500000000001 0.40625 49.82625 -9.591249999999988 Q39.667500000000004 -19.58874999999999 39.667500000000004 -36.84249999999999 V-92.9575 H55.95375000000001 V-37.16499999999999 Q55.95375000000001 -27.006249999999994 61.678125 -21.201249999999987 Q67.4025 -15.396249999999995 77.4 -15.396249999999995 Q87.39750000000001 -15.396249999999995 93.121875 -21.201249999999987 Q98.84625 -27.006249999999994 98.84625 -37.16499999999999 V-92.9575 H115.13250000000001 V-36.84249999999999 Q115.13250000000001 -19.58874999999999 104.97375 -9.591249999999988 Q94.815 0.40625 77.4 0.40625 Z"/></g><g id="Medium-L" transform="matrix(1 0 0 1 1674.31 1556)"><path d="M31.605000000000004 21.85250000000002 V10.887500000000003 H123.19500000000001 V21.85250000000002 H31.605000000000004 Z M77.4 -1.528749999999988 Q60.63 -1.528749999999988 51.11625 -11.20375 Q41.6025 -20.878749999999997 41.6025 -37.4875 V-93.11874999999999 H56.27625 V-37.64874999999999 Q56.27625 -27.489999999999995 61.839375000000004 -21.523749999999993 Q67.4025 -15.55749999999999 77.4 -15.55749999999999 Q87.39750000000001 -15.55749999999999 92.960625 -21.523749999999993 Q98.52375 -27.489999999999995 98.52375 -37.64874999999999 V-93.11874999999999 H113.1975 V-37.4875 Q113.1975 -20.878749999999997 103.68375 -11.20375 Q94.17 -1.528749999999988 77.4 -1.528749999999988 Z"/></g><g id="Regular-L" transform="matrix(1 0 0 1 1378.56 1556)"><path d="M32.25 19.595 V9.920000000000002 H122.55 V19.595 H32.25 Z M77.4 -2.9799999999999898 Q61.275 -2.9799999999999898 52.16437500000001 -12.413124999999994 Q43.05375 -21.846249999999998 43.05375 -37.97125 V-93.28 H56.4375 V-37.97125 Q56.4375 -27.812499999999986 61.92 -21.685000000000002 Q67.4025 -15.55749999999999 77.4 -15.55749999999999 Q87.39750000000001 -15.55749999999999 92.88000000000001 -21.685000000000002 Q98.3625 -27.812499999999986 98.3625 -37.97125 V-93.28 H111.74625 V-37.97125 Q111.74625 -21.846249999999998 102.635625 -12.413124999999994 Q93.525 -2.9799999999999898 77.4 -2.9799999999999898 Z"/></g><g id="Light-L" transform="matrix(1 0 0 1 1082.77 1556)"><path d="M34.5075 14.757500000000007 V7.501250000000013 H120.29249999999999 V14.757500000000007 H34.5075 Z M77.4 -6.043750000000003 Q62.565 -6.043750000000003 54.018750000000004 -14.670624999999987 Q45.4725 -23.2975 45.4725 -38.13249999999999 V-90.53875 H55.14750000000001 V-38.29374999999999 Q55.14750000000001 -27.65124999999999 61.033125000000005 -21.362499999999997 Q66.91875 -15.07374999999999 77.4 -15.07374999999999 Q87.88125000000001 -15.07374999999999 93.766875 -21.362499999999997 Q99.6525 -27.65124999999999 99.6525 -38.29374999999999 V-90.53875 H109.3275 V-38.13249999999999 Q109.3275 -23.2975 100.78125 -14.670624999999987 Q92.23500000000001 -6.043750000000003 77.4 -6.043750000000003 Z"/></g><g id="Thin-L" transform="matrix(1 0 0 1 787.282 1556)"><path d="M36.765 10.081249999999997 V5.08250000000001 H118.03500000000001 V10.081249999999997 H36.765 Z M77.4 -9.107499999999987 Q63.69375 -9.107499999999987 55.792500000000004 -16.928124999999994 Q47.89125 -24.748749999999987 47.89125 -38.29374999999999 V-87.95875 H53.69625 V-38.455 Q53.69625 -27.489999999999995 60.065625000000004 -21.12062499999999 Q66.435 -14.751249999999985 77.4 -14.751249999999985 Q88.365 -14.751249999999985 94.734375 -21.12062499999999 Q101.10375 -27.489999999999995 101.10375 -38.455 V-87.95875 H106.90875 V-38.29374999999999 Q106.90875 -24.748749999999987 99.00750000000001 -16.928124999999994 Q91.10625 -9.107499999999987 77.4 -9.107499999999987 Z"/></g><g id="Ultralight-L" transform="matrix(1 0 0 1 491.205 1556)"><path d="M38.05500000000001 7.178750000000008 V3.6312499999999943 H116.74500000000002 V7.178750000000008 H38.05500000000001 Z M77.4 -10.881249999999994 Q64.5 -10.881249999999994 56.92124999999999 -18.218125 Q49.3425 -25.554999999999993 49.3425 -38.29374999999999 V-86.34625 H52.88999999999999 V-38.616249999999994 Q52.88999999999999 -27.32875 59.50125 -20.878749999999997 Q66.1125 -14.428749999999994 77.4 -14.428749999999994 Q88.6875 -14.428749999999994 95.29875 -20.878749999999997 Q101.91000000000001 -27.32875 101.91000000000001 -38.616249999999994 V-86.34625 H105.45750000000001 V-38.29374999999999 Q105.45750000000001 -25.554999999999993 97.87875000000001 -18.218125 Q90.3 -10.881249999999994 77.4 -10.881249999999994 Z"/></g><g id="Bold-M" transform="matrix(1 0 0 1 2281.8 1126)"><path d="M22.125 19.77000000000001 V4.02000000000001 H97.875 V19.77000000000001 H22.125 Z M60.0 -3.9799999999999898 Q44.875 -3.9799999999999898 36.0 -12.85499999999999 Q27.125 -21.72999999999999 27.125 -36.85499999999999 V-79.72999999999999 H45.375 V-36.85499999999999 Q45.375 -30.10499999999999 49.315 -26.169999999999987 Q53.25 -22.22999999999999 60.0 -22.22999999999999 Q66.75 -22.22999999999999 70.69 -26.169999999999987 Q74.625 -30.10499999999999 74.625 -36.85499999999999 V-79.72999999999999 H92.875 V-36.85499999999999 Q92.875 -21.72999999999999 84.0 -12.85499999999999 Q75.125 -3.9799999999999898 60.0 -3.9799999999999898 Z"/></g><g id="Semibold-M" transform="matrix(1 0 0 1 1985.97 1126)"><path d="M23.375 15.39500000000001 V2.1450000000000102 H96.625 V15.39500000000001 H23.375 Z M60.0 -6.72999999999999 Q46.0 -6.72999999999999 37.94 -15.169999999999987 Q29.875 -23.60499999999999 29.875 -37.72999999999999 V-79.97999999999999 H45.75 V-37.47999999999999 Q45.75 -30.60499999999999 49.5 -26.47999999999999 Q53.25 -22.35499999999999 60.0 -22.35499999999999 Q66.75 -22.35499999999999 70.5 -26.47999999999999 Q74.25 -30.60499999999999 74.25 -37.47999999999999 V-79.97999999999999 H90.125 V-37.72999999999999 Q90.125 -23.60499999999999 82.065 -15.169999999999987 Q74.0 -6.72999999999999 60.0 -6.72999999999999 Z"/></g><g id="Medium-M" transform="matrix(1 0 0 1 1689.91 1126)"><path d="M24.25 12.14500000000001 V0.7700000000000102 H95.75 V12.14500000000001 H24.25 Z M60.0 -8.72999999999999 Q46.75 -8.72999999999999 39.31 -16.85499999999999 Q31.875 -24.97999999999999 31.875 -38.47999999999999 V-80.10499999999999 H46.0 V-37.85499999999999 Q46.0 -30.97999999999999 49.625 -26.72999999999999 Q53.25 -22.47999999999999 60.0 -22.47999999999999 Q66.75 -22.47999999999999 70.375 -26.72999999999999 Q74.0 -30.97999999999999 74.0 -37.85499999999999 V-80.10499999999999 H88.125 V-38.47999999999999 Q88.125 -24.97999999999999 80.685 -16.85499999999999 Q73.25 -8.72999999999999 60.0 -8.72999999999999 Z"/></g><g id="Regular-M" transform="matrix(1 0 0 1 1394.06 1126)"><path d="M25.0 9.77000000000001 V-0.22999999999998977 H95.0 V9.77000000000001 H25.0 Z M60.0 -10.22999999999999 Q47.375 -10.22999999999999 40.375 -18.10499999999999 Q33.375 -25.97999999999999 33.375 -38.97999999999999 V-80.22999999999999 H46.25 V-38.22999999999999 Q46.25 -31.22999999999999 49.75 -26.85499999999999 Q53.25 -22.47999999999999 60.0 -22.47999999999999 Q66.75 -22.47999999999999 70.25 -26.85499999999999 Q73.75 -31.22999999999999 73.75 -38.22999999999999 V-80.22999999999999 H86.625 V-38.97999999999999 Q86.625 -25.97999999999999 79.625 -18.10499999999999 Q72.625 -10.22999999999999 60.0 -10.22999999999999 Z"/></g><g id="Light-M" transform="matrix(1 0 0 1 1098.18 1126)"><path d="M26.75 5.39500000000001 V-2.1049999999999898 H93.25 V5.39500000000001 H26.75 Z M60.0 -12.60499999999999 Q48.375 -12.60499999999999 41.815 -19.669999999999987 Q35.25 -26.72999999999999 35.25 -38.60499999999999 V-78.10499999999999 H44.5 V-38.22999999999999 Q44.5 -30.60499999999999 48.565 -26.044999999999987 Q52.625 -21.47999999999999 60.0 -21.47999999999999 Q67.375 -21.47999999999999 71.44 -26.044999999999987 Q75.5 -30.60499999999999 75.5 -38.22999999999999 V-78.10499999999999 H84.75 V-38.60499999999999 Q84.75 -26.72999999999999 78.185 -19.669999999999987 Q71.625 -12.60499999999999 60.0 -12.60499999999999 Z"/></g><g id="Thin-M" transform="matrix(1 0 0 1 802.565 1126)"><path d="M28.5 1.0200000000000102 V-3.9799999999999898 H91.5 V1.0200000000000102 H28.5 Z M60.0 -14.97999999999999 Q49.25 -14.97999999999999 43.19 -21.22999999999999 Q37.125 -27.47999999999999 37.125 -38.35499999999999 V-76.10499999999999 H42.75 V-38.10499999999999 Q42.75 -29.97999999999999 47.315 -25.22999999999999 Q51.875 -20.47999999999999 60.0 -20.47999999999999 Q68.125 -20.47999999999999 72.69 -25.22999999999999 Q77.25 -29.97999999999999 77.25 -38.10499999999999 V-76.10499999999999 H82.875 V-38.35499999999999 Q82.875 -27.47999999999999 76.815 -21.22999999999999 Q70.75 -14.97999999999999 60.0 -14.97999999999999 Z"/></g><g id="Ultralight-M" transform="matrix(1 0 0 1 506.415 1126)"><path d="M29.5 -1.6049999999999898 V-5.10499999999999 H90.5 V-1.6049999999999898 H29.5 Z M60.0 -16.35499999999999 Q49.875 -16.35499999999999 44.059999999999995 -22.164999999999992 Q38.25 -27.97999999999999 38.25 -38.10499999999999 V-74.85499999999999 H41.75 V-38.10499999999999 Q41.75 -29.60499999999999 46.625 -24.72999999999999 Q51.5 -19.85499999999999 60.0 -19.85499999999999 Q68.5 -19.85499999999999 73.375 -24.72999999999999 Q78.25 -29.60499999999999 78.25 -38.10499999999999 V-74.85499999999999 H81.75 V-38.10499999999999 Q81.75 -27.97999999999999 75.94 -22.164999999999992 Q70.125 -16.35499999999999 60.0 -16.35499999999999 Z"/></g><g id="Bold-S" transform="matrix(1 0 0 1 2294.23 696)"><path d="M21.402414 5.799578000000011 V-5.841328000000004 H73.277586 V5.799578000000011 H21.402414 Z M47.34 -11.361171999999996 Q35.897922 -11.361171999999996 29.241918 -18.02190999999999 Q22.585914 -24.677913999999994 22.585914 -36.02057799999999 V-67.975078 H36.394992 V-36.02057799999999 Q36.394992 -30.98833599999999 39.349008 -28.081659999999992 Q42.312492000000006 -25.170249999999996 47.34 -25.170249999999996 Q52.367507999999994 -25.170249999999996 55.330992 -28.081659999999992 Q58.285008 -30.98833599999999 58.285008 -36.02057799999999 V-67.975078 H72.09408599999999 V-36.02057799999999 Q72.09408599999999 -24.677913999999994 65.43808200000001 -18.02190999999999 Q58.782078 -11.361171999999996 47.34 -11.361171999999996 Z"/></g><g id="Semibold-S" transform="matrix(1 0 0 1 1998.1 696)"><path d="M22.387086 2.3484920000000074 V-7.318335999999988 H72.29291400000001 V2.3484920000000074 H22.387086 Z M47.34 -13.534077999999994 Q36.787914 -13.534077999999994 30.771 -19.844499999999996 Q24.754086 -26.154921999999992 24.754086 -36.70700799999999 V-68.16917199999999 H36.6885 V-36.512913999999995 Q36.6885 -31.385991999999995 39.500496 -28.32782799999999 Q42.312492000000006 -25.269664 47.34 -25.269664 Q52.367507999999994 -25.269664 55.179504 -28.32782799999999 Q57.9915 -31.385991999999995 57.9915 -36.512913999999995 V-68.16917199999999 H69.925914 V-36.70700799999999 Q69.925914 -26.154921999999992 63.909 -19.844499999999996 Q57.892086 -13.534077999999994 47.34 -13.534077999999994 Z"/></g><g id="Medium-S" transform="matrix(1 0 0 1 1701.85 696)"><path d="M23.07825 -0.21733599999998887 V-8.402421999999987 H71.60175 V-0.21733599999998887 H23.07825 Z M47.34 -15.110499999999988 Q37.379664 -15.110499999999988 31.855086 -21.174753999999993 Q26.330508000000002 -27.23900799999999 26.330508000000002 -37.303492 V-68.268586 H36.982008 V-36.80642199999999 Q36.982008 -31.67949999999999 39.64725 -28.521921999999996 Q42.312492000000006 -25.369077999999995 47.34 -25.369077999999995 Q52.367507999999994 -25.369077999999995 55.08009 -28.521921999999996 Q57.792672 -31.67949999999999 57.792672 -36.80642199999999 V-68.268586 H68.349492 V-37.303492 Q68.349492 -27.23900799999999 62.82491400000001 -21.174753999999993 Q57.300335999999994 -15.110499999999988 47.34 -15.110499999999988 Z"/></g><g id="Regular-S" transform="matrix(1 0 0 1 1405.73 696)"><path d="M23.67 -2.0919999999999987 V-9.192999999999998 H71.01 V-2.0919999999999987 H23.67 Z M47.34 -16.293999999999997 Q37.872 -16.293999999999997 32.693004 -22.164159999999995 Q27.514008 -28.029585999999988 27.514008 -37.696414 V-68.368 H37.081422 V-37.104664 Q37.081422 -31.87832799999999 39.69459 -28.621335999999992 Q42.312492000000006 -25.369077999999995 47.34 -25.369077999999995 Q52.367507999999994 -25.369077999999995 54.98541 -28.621335999999992 Q57.598577999999996 -31.87832799999999 57.598577999999996 -37.104664 V-68.368 H67.165992 V-37.696414 Q67.165992 -28.029585999999988 61.986996 -22.164159999999995 Q56.808 -16.293999999999997 47.34 -16.293999999999997 Z"/></g><g id="Light-S" transform="matrix(1 0 0 1 1109.75 696)"><path d="M25.052328 -5.543085999999988 V-10.670007999999996 H69.627672 V-5.543085999999988 H25.052328 Z M47.34 -18.168663999999993 Q38.662577999999996 -18.168663999999993 33.829164 -23.394999999999996 Q28.99575 -28.621335999999992 28.99575 -37.398171999999995 V-66.69216399999999 H35.703828 V-37.104664 Q35.703828 -31.385991999999995 38.761992 -27.98224599999999 Q41.815422 -24.57849999999999 47.34 -24.57849999999999 Q52.864578 -24.57849999999999 55.918008 -27.98224599999999 Q58.976172 -31.385991999999995 58.976172 -37.104664 V-66.69216399999999 H65.68425 V-37.398171999999995 Q65.68425 -28.621335999999992 60.850835999999994 -23.394999999999996 Q56.017422 -18.168663999999993 47.34 -18.168663999999993 Z"/></g><g id="Thin-S" transform="matrix(1 0 0 1 814.015 696)"><path d="M26.429922 -8.994171999999992 V-12.151749999999993 H68.250078 V-8.994171999999992 H26.429922 Z M47.34 -20.043327999999995 Q39.349008 -20.043327999999995 34.91325 -24.62583999999999 Q30.477491999999998 -29.21308599999999 30.477491999999998 -37.104664 V-65.111008 H34.420913999999996 V-37.00525 Q34.420913999999996 -30.888921999999994 37.82466 -27.338421999999994 Q41.223672 -23.787921999999995 47.34 -23.787921999999995 Q53.456328 -23.787921999999995 56.907414 -27.338421999999994 Q60.3585 -30.888921999999994 60.3585 -37.00525 V-65.111008 H64.202508 V-37.104664 Q64.202508 -29.21308599999999 59.76675 -24.62583999999999 Q55.330992 -20.043327999999995 47.34 -20.043327999999995 Z"/></g><g id="Ultralight-S" transform="matrix(1 0 0 1 517.792 696)"><path d="M27.2205 -11.067663999999994 V-13.037007999999986 H67.4595 V-11.067663999999994 H27.2205 Z M47.34 -21.127413999999995 Q39.846078 -21.127413999999995 35.604414 -25.369077999999995 Q31.36275 -29.60600799999999 31.36275 -37.00525 V-64.126336 H33.530922000000004 V-37.00525 Q33.530922000000004 -30.595413999999998 37.232910000000004 -26.945499999999996 Q40.930164000000005 -23.295585999999993 47.34 -23.295585999999993 Q53.749835999999995 -23.295585999999993 57.447089999999996 -26.945499999999996 Q61.149077999999996 -30.595413999999998 61.149077999999996 -37.00525 V-64.126336 H63.31725 V-37.00525 Q63.31725 -29.60600799999999 59.075585999999994 -25.369077999999995 Q54.833922 -21.127413999999995 47.34 -21.127413999999995 Z"/></g></g></svg>