<svg xmlns="http://www.w3.org/2000/svg" height="24" viewBox="0 -960 960 960" width="24"><path d="M480.18-276.92q84.36 0 143.63-59.4 59.27-59.4 59.27-143.68h-35.39q0 69.54-49.12 118.62-49.12 49.07-118.62 49.07-69.49 0-118.57-49.12-49.07-49.12-49.07-118.62 0-69.49 49.11-118.57 49.11-49.07 118.58-49.07h5.31L437.85-600l25.07 25.31 90-90-90.77-90.77-25.3 25.31 47.07 47.07q-85.84.46-146.42 59.23-60.58 58.77-60.58 143.85 0 84.28 59.46 143.68 59.45 59.4 143.8 59.4ZM480.13-120q-74.67 0-140.41-28.34-65.73-28.34-114.36-76.92-48.63-48.58-76.99-114.26Q120-405.19 120-479.87q0-74.67 28.34-140.41 28.34-65.73 76.92-114.36 48.58-48.63 114.26-76.99Q405.19-840 479.87-840q74.67 0 140.41 28.34 65.73 28.34 114.36 76.92 48.63 48.58 76.99 114.26Q840-554.81 840-480.13q0 74.67-28.34 140.41-28.34 65.73-76.92 114.36-48.58 48.63-114.26 76.99Q554.81-120 480.13-120Z"/></svg>