<svg xmlns="http://www.w3.org/2000/svg" height="20" viewBox="0 -960 960 960" width="20"><path d="M209.61-311.54q-23.93-36.54-36.15-78.64-12.23-42.1-12.23-89.82 0-48.28 13.01-90.9 13.01-42.62 36.49-79.41l24.92 14.27q-21.69 34.16-33.59 73.41-11.91 39.25-11.91 82.63 0 42.54 11.85 81.54 11.85 39 32.54 72.27l-24.93 14.65Zm540.78 0-24.93-14.65q20.74-33.24 32.56-72.13 11.83-38.89 11.83-81.68 0-43.38-11.91-82.63-11.9-39.25-33.21-73.41l24.92-14.27q23.68 36.78 36.4 79.36 12.72 42.59 12.72 91.02 0 47.47-12.23 89.64-12.22 42.16-36.15 78.75ZM451.46-788.92h57.08H451.46Zm0 617.84H508.54h-57.08Zm-25.31 28.93L388-306.46q-46.19-23.81-74.63-69.31-28.45-45.5-28.45-104.23 0-58.73 28.95-104.23 28.94-45.5 76.13-69.31l36.15-164.31h107.7L570-653.54q47.19 23.81 76.13 69.31 28.95 45.5 28.95 104.23 0 58.73-28.45 104.23-28.44 45.5-74.63 69.31l-38.15 164.31h-107.7Zm53.78-171.7q69.21 0 117.72-48.44 48.5-48.44 48.5-117.64 0-69.21-48.44-117.72-48.44-48.5-117.64-48.5-69.21 0-117.72 48.44-48.5 48.44-48.5 117.64 0 69.21 48.44 117.72 48.44 48.5 117.64 48.5ZM420.08-664q14.69-5.54 30.01-7.92 15.31-2.39 30.03-2.39t29.32 2.39q14.61 2.38 29.48 7.92l-30.38-124.92h-57.08L420.08-664Zm31.38 492.92h57.08L540.92-296q-14.69 5.54-30.01 7.92-15.31 2.39-31.03 2.39t-30.32-2.39q-14.61-2.38-29.48-7.92l31.38 124.92Z"/></svg>