<svg xmlns="http://www.w3.org/2000/svg" height="20" viewBox="0 -960 960 960" width="20"><path d="M672.03-185.3q9.39 0 15.76-6.45 6.36-6.45 6.36-15.91 0-9.45-6.4-15.82-6.4-6.37-15.78-6.37-9.39 0-15.76 6.4-6.36 6.4-6.36 15.79 0 9.38 6.4 15.87 6.4 6.49 15.78 6.49Zm.36-203q-15.87 0-29.97 7.35-14.09 7.36-22.43 20.69-3.62 5.63-.96 11.87 2.66 6.24 9.48 9.15 5.77 2.48 11.61.62 5.84-1.86 10.31-7.58 5-4.52 10.18-8.02t11.39-3.5q10.27 0 17.78 6.97 7.5 6.96 7.5 17.4 0 8.14-5 14.03-5 5.89-11 10.41-6.37 5.24-11.84 10.58-5.46 5.33-9.35 12.63-3 6.37-3.5 13.6-.5 7.23-.5 14.89 0 6.03 5.09 10.72 5.1 4.69 11.97 4.69 6.88 0 11.32-4.5t4.44-11.87q0-9.38 4-16.63 4-7.24 10.74-13.27 10.58-9.08 18.4-20.29 7.82-11.21 7.82-25.98 0-22.81-17.05-38.39-17.05-15.57-40.43-15.57ZM671.77-96Q592-96 536-152.23q-56-56.22-56-136Q480-368 536.23-424q56.22-56 136-56Q752-480 808-423.77q56 56.22 56 136Q864-208 807.77-152q-56.22 56-136 56ZM518.63-621.13h126.5l-168-168 168 168-168-168v126.5q0 17.45 12.02 29.48 12.03 12.02 29.48 12.02ZM218.87-87.87q-34.48 0-58.74-24.26-24.26-24.26-24.26-58.74v-618.26q0-34.48 24.26-58.74 24.26-24.26 58.74-24.26H496.8q16.44 0 31.33 5.84 14.89 5.83 27.57 18.51L703.78-699.7q12.68 12.68 18.51 27.57 5.84 14.89 5.84 31.33v51.89q0 17.36-12.93 28.35-12.94 10.99-30.37 9.28-3.03-.24-5.96-.48-2.94-.24-5.87-.24-60.96 0-113.05 24.66-52.08 24.67-88.84 68.47h-145.5q-15.65 0-26.63 10.77Q288-437.33 288-421.4q0 15.92 10.83 27.02t26.84 11.1h100.09q-6.52 16.04-10.43 33.21-3.92 17.17-5.87 35.2h-83.79q-16.01 0-26.84 10.77Q288-293.33 288-277.4q0 15.92 10.9 27.02t27.01 11.1h85.91q5.18 26 15.25 50.5 10.06 24.5 24.98 46.52 11.86 17.37 3.53 35.88-8.34 18.51-28.2 18.51H218.87Z"/></svg>