<svg xmlns="http://www.w3.org/2000/svg" height="40" viewBox="0 -960 960 960" width="40"><path d="M269.334-529.333v-161.334h-86.668V-648q0 41 24.167 73t62.501 45.667Zm421.332 0Q729-543 753.167-575q24.167-32 24.167-73v-42.667h-86.668v161.334ZM438.334-182.666v-132.001Q386.667-326 345.833-358.334 305-390.667 286.667-440.001q-81-7.333-134.5-67.043-53.5-59.709-53.5-140.956v-42.667q0-35.5 24.25-59.749 24.25-24.25 59.749-24.25h86.668v-18.667q0-27.834 20.083-47.917 20.083-20.083 47.916-20.083h285.334q27.833 0 47.916 20.083t20.083 47.917v18.667h86.668q35.499 0 59.749 24.25 24.25 24.249 24.25 59.749V-648q0 81.247-53.5 140.956-53.5 59.71-134.5 67.043-18.333 49.334-59.166 81.667-40.834 32.334-91.834 43.667v132.001h128.333q17.467 0 29.9 12.283 12.433 12.284 12.433 29.71 0 17.427-12.433 29.717-12.433 12.289-29.9 12.289H309.334q-17.183 0-29.425-12.406-12.242-12.407-12.242-29.833 0-17.427 12.242-29.594 12.242-12.166 29.425-12.166h129Z"/></svg>