<svg xmlns="http://www.w3.org/2000/svg" height="40" viewBox="0 -960 960 960" width="40"><path d="M275.36-155.65h428.48L489.88-370.17 275.36-155.65ZM172.82-70.84q-28.68 0-39.14-26.19t10-46.65l285.9-286.4-321.81-322.16q-10.96-10.65-11.25-25.24-.3-14.59 10.69-25.56 10.63-10.25 25.03-10.25t25.03 10.25L875.49-84.83q10.25 10.26 10.45 24.6.2 14.34-10.43 24.97-10.63 10.99-25.21 10.81-14.58-.18-25.21-10.81l-36.44-35.58H172.82Zm716.72-716.84v523.46q0 21.49-13.23 32.05-13.22 10.57-29.39 10.57-15.77 0-29.17-10.37-13.4-10.36-13.4-31.85v-421.32L614.94-495.8q-13.43 12.87-30.23 13.16-16.8.28-29.51-13.16-12.7-12.7-12.7-29.78 0-17.09 12.7-30.12l261.68-261.68q20.47-20.47 46.56-9.56 26.1 10.91 26.1 39.26Zm-194.31 430.7Zm-97.87 93.85Z"/></svg>