<svg xmlns="http://www.w3.org/2000/svg" height="40" width="40"><path d="M21.75 28.542 27.125 23.042Q27.5 22.667 27.708 22.146Q27.917 21.625 27.917 21.042Q27.917 19.875 27.083 19.021Q26.25 18.167 25.083 18.167Q24.208 18.167 23.417 18.646Q22.625 19.125 21.75 20.292Q20.833 19.125 20.021 18.646Q19.208 18.167 18.417 18.167Q17.25 18.167 16.417 19.021Q15.583 19.875 15.583 21.042Q15.583 21.625 15.771 22.146Q15.958 22.667 16.375 23.042ZM21.458 35.625Q21.042 35.625 20.667 35.5Q20.292 35.375 20 35.083L5 20.042Q4.667 19.75 4.521 19.375Q4.375 19 4.375 18.542V6.375Q4.375 5.5 4.938 4.938Q5.5 4.375 6.375 4.375H18.542Q18.958 4.375 19.354 4.5Q19.75 4.625 20.042 4.917L35.042 19.917Q35.667 20.542 35.688 21.396Q35.708 22.25 35.083 22.875L22.875 35.083Q22.583 35.333 22.208 35.479Q21.833 35.625 21.458 35.625ZM21.458 33.625 33.667 21.458 18.583 6.375H6.375V18.583ZM10.583 12.417Q11.375 12.417 11.917 11.875Q12.458 11.333 12.458 10.583Q12.458 9.792 11.917 9.25Q11.375 8.708 10.625 8.708Q9.833 8.708 9.292 9.25Q8.75 9.792 8.75 10.542Q8.75 11.333 9.292 11.875Q9.833 12.417 10.583 12.417ZM6.375 6.375Z"/></svg>