<svg xmlns="http://www.w3.org/2000/svg" height="40" viewBox="0 -960 960 960" width="40"><path d="M745.33-593.64h155.73v89.47H820.8v271.07q0 50.64-32.91 83.26-32.91 32.62-83.58 32.62-51.28 0-84.15-32.64-32.87-32.65-32.87-82.43 0-49.78 32.8-82.57 32.8-32.79 82.17-32.79 13.11 0 23.93 2.89t19.14 6.46v-255.34ZM65.1-117.22V-243.2q0-39.42 19.72-73.44 19.72-34.01 57.74-52.1 71.96-33.29 136.24-48.79 64.28-15.5 131.39-15.5 54.69 0 107.01 10.31 52.31 10.31 104.64 33.07-25.74 10.33-46.1 28.36-20.35 18.04-33.61 41.96-30.59-8.42-63.43-12.66-32.84-4.23-68.51-4.23-58.1 0-109.99 11.26-51.89 11.26-112.64 41.35-13.94 5.79-19.98 18.12-6.05 12.33-6.05 24.74v27.1h361.66q-.16 29.24 9.46 53.69 9.61 24.44 26.02 42.74H65.1Zm345.29-375.59q-76.35 0-126.23-49.89-49.89-49.88-49.89-126.23t49.89-125.93q49.88-49.59 126.23-49.59t126.22 49.52q49.87 49.52 49.87 126.28 0 76.07-49.87 125.95-49.87 49.89-126.22 49.89Zm-.29-96.44q33.64 0 56.6-22.9 22.97-22.89 22.97-56.55 0-33.82-23.01-56.85-23-23.03-56.41-23.03-33.64 0-56.59 23.08-22.95 23.08-22.95 56.6 0 33.75 22.88 56.7 22.88 22.95 56.51 22.95Zm.09-79.47Zm0 455.07Z"/></svg>