<svg xmlns="http://www.w3.org/2000/svg" height="24" width="24"><path d="M4.375 18.825v-1.4h2v-7.25q0-2 1.225-3.538Q8.825 5.1 10.8 4.65v-.675q0-.525.338-.863.337-.337.862-.337.5 0 .85.337.35.338.35.863v.675q.6.15 1.138.387.537.238 1.012.613l-.475.475-.5.5q-.525-.325-1.125-.512-.6-.188-1.25-.188-1.75 0-3 1.25t-1.25 3v7.25h8.5V13.9h1.4v3.525h1.975v1.4ZM12 21.675q-.75 0-1.262-.512-.513-.513-.513-1.263h3.55q0 .75-.513 1.263-.512.512-1.262.512Zm7.3-9.025V9.7h-2.95V8.3h2.95V5.35h1.4V8.3h2.95v1.4H20.7v2.95Zm-7.3-.975Z"/></svg>