<svg xmlns="http://www.w3.org/2000/svg" height="40" width="40"><path d="M30.75 18.083q-3.667 0-6.271-2.604t-2.604-6.271q0-3.625 2.604-6.25T30.75.333q3.667 0 6.271 2.605 2.604 2.604 2.604 6.27 0 3.709-2.625 6.292-2.625 2.583-6.25 2.583ZM30 10.917h1.625V3.833H30ZM8.958 30.292v1.916q0 .667-.458 1.084-.458.416-1.125.416h-1.25q-.667 0-1.125-.416-.458-.417-.458-1.084V18.417L8.208 7.792q.25-.667.834-1.084.583-.416 1.291-.416h8.417q-.208.708-.292 1.479-.083.771-.083 1.562h-7.5l-2.083 6.042h11.333q1.125 1.917 2.792 3.333 1.666 1.417 3.791 2.125-.541.25-.854.792-.312.542-.312 1.208 0 1 .729 1.729.729.73 1.687.73 1.042 0 1.771-.73.729-.729.729-1.729 0-.375-.146-.708-.145-.333-.437-.542 1.458 0 2.854-.166 1.396-.167 2.729-.75v11.541q0 .667-.458 1.084-.458.416-1.125.416h-1.292q-.666 0-1.104-.416-.437-.417-.437-1.084v-1.916ZM30.833 14.5q.375 0 .667-.25.292-.25.292-.667 0-.416-.292-.687-.292-.271-.667-.271-.416.042-.687.313-.271.27-.271.645 0 .417.292.667.291.25.666.25Zm-18.791 5.833q-1.042 0-1.771.729-.729.73-.729 1.771 0 1 .729 1.729.729.73 1.771.73 1 0 1.729-.73.729-.729.729-1.729 0-1.041-.729-1.771-.729-.729-1.729-.729Z"/></svg>