<svg xmlns="http://www.w3.org/2000/svg" height="24" viewBox="0 -960 960 960" width="24"><path d="M580.35-390.83h71.39q25.16 0 43.32-18.15 18.16-18.16 18.16-43.32v-118q0-25.96-18.16-43.72-18.16-17.76-43.32-17.76h-71.39q-25.17 0-43.32 17.76-18.16 17.76-18.16 43.72v118q0 25.16 18.16 43.32 18.15 18.15 43.32 18.15ZM166.78-125.26q-51.3 0-87.13-35.83-35.82-35.83-35.82-87.13v-463.56q0-51.3 35.82-87.13 35.83-35.83 87.13-35.83h626.44q51.3 0 87.13 35.83 35.82 35.83 35.82 87.13v463.56q0 51.3-35.82 87.13-35.83 35.83-87.13 35.83H166.78Zm0-122.96h626.44v-463.56H166.78v463.56Zm0 0v-463.56 463.56Z"/></svg>