<svg xmlns="http://www.w3.org/2000/svg" height="20" width="20"><path d="M7.229 9.333H9.479Q9.625 9.333 9.719 9.24Q9.812 9.146 9.812 8.958Q9.812 8.833 9.708 8.729Q9.604 8.625 9.479 8.625H7.292V7.438H9.188Q9.458 7.438 9.635 7.25Q9.812 7.062 9.812 6.812V5.583Q9.812 5.333 9.635 5.135Q9.458 4.938 9.188 4.938H6.938Q6.771 4.938 6.677 5.042Q6.583 5.146 6.583 5.292Q6.583 5.438 6.688 5.552Q6.792 5.667 6.958 5.667H9.104V6.833H7.229Q6.958 6.833 6.771 7.031Q6.583 7.229 6.583 7.5V8.688Q6.583 8.958 6.771 9.146Q6.958 9.333 7.229 9.333ZM12.708 9.333Q12.833 9.333 12.948 9.229Q13.062 9.125 13.062 8.958V5.583Q13.062 5.333 12.875 5.135Q12.688 4.938 12.417 4.938H11.417Q11.271 4.938 11.167 5.042Q11.062 5.146 11.062 5.292Q11.062 5.438 11.167 5.552Q11.271 5.667 11.438 5.667H12.333V8.979Q12.333 9.146 12.438 9.24Q12.542 9.333 12.708 9.333ZM4.812 16.542Q4.229 16.542 3.844 16.156Q3.458 15.771 3.458 15.188V4.812Q3.458 4.229 3.844 3.844Q4.229 3.458 4.812 3.458H15.188Q15.771 3.458 16.156 3.844Q16.542 4.229 16.542 4.812V15.188Q16.542 15.771 16.156 16.156Q15.771 16.542 15.188 16.542ZM5.729 15.042Q5.854 15.042 5.969 14.938Q6.083 14.833 6.083 14.667V11.354H7.396V13.458Q7.396 13.625 7.5 13.719Q7.604 13.812 7.771 13.812Q7.896 13.812 8.01 13.708Q8.125 13.604 8.125 13.438V11.354H9.458V14.688Q9.458 14.833 9.552 14.938Q9.646 15.042 9.812 15.042Q9.958 15.042 10.062 14.938Q10.167 14.833 10.167 14.667V11.229Q10.167 10.979 10.01 10.812Q9.854 10.646 9.583 10.646H5.938Q5.708 10.646 5.531 10.812Q5.354 10.979 5.354 11.229V14.667Q5.354 14.833 5.458 14.938Q5.562 15.042 5.729 15.042ZM11.812 15.042Q11.938 15.042 12.042 14.938Q12.146 14.833 12.146 14.667V13.812H14.062Q14.312 13.812 14.479 13.656Q14.646 13.5 14.646 13.271V11.229Q14.646 10.979 14.479 10.812Q14.312 10.646 14.062 10.646H12.021Q11.792 10.646 11.615 10.812Q11.438 10.979 11.438 11.229V14.667Q11.438 14.833 11.531 14.938Q11.625 15.042 11.812 15.042ZM12.146 11.354H13.917V13.104H12.146Z"/></svg>