<svg xmlns="http://www.w3.org/2000/svg" height="20" viewBox="0 -960 960 960" width="20"><path d="M179.29-227.13q-7.21-7.06-7.21-17.01v-471.61q0-9.75 7-16.96 7-7.21 16.77-7.21t16.98 7.05q7.21 7.06 7.21 16.81v471.61q0 9.95-7 17.16-7 7.21-16.77 7.21t-16.98-7.05Zm213.98-228.99 98.23 98.24q8.11 8.11 7.81 17.17-.31 9.06-8.81 17.56-8.69 8.19-17.46 8.19-8.77 0-17.06-8.55L321.42-459q-4.3-4.52-6.77-9.8-2.46-5.28-2.46-11.4t2.46-11.4q2.47-5.28 6.77-9.59l136.3-136.3q7.97-7.97 16.93-7.41 8.97.55 17.66 9.05 8 8.5 7.84 17.37-.15 8.86-8.34 16.86l-98.54 97.54h370.77q9.76 0 16.82 7 7.06 7.01 7.06 16.87 0 9.86-7.06 16.98-7.06 7.11-16.82 7.11H393.27Z"/></svg>