<svg xmlns="http://www.w3.org/2000/svg" height="40" viewBox="0 -960 960 960" width="40"><path d="M167.44-207.44q-4.62-4.62-4.62-11.96v-521.92q0-6.62 4.62-11.24 4.63-4.62 11.61-4.62 6.98 0 11.59 4.62 4.62 4.62 4.62 11.24v521.92q0 7.34-4.63 11.96-4.62 4.62-11.6 4.62-6.98 0-11.59-4.62Zm190.28-256.7L474.5-347.36q4.08 4.41 4.38 11.24.31 6.84-4.53 12.02-5.57 5.06-12.07 5.06t-11.34-5.56L315.23-460.31q-4.74-4.02-6.67-8.74-1.93-4.71-1.93-11.02 0-6.3 1.93-10.95 1.93-4.65 6.59-9.31L452.5-637.68q4.08-4.08 11.22-4.3 7.14-.23 12.45 4.95 4.42 5.18 4.36 11.71-.06 6.53-5.12 11.2L357.72-496.58h423.6q6.62 0 11.24 4.63 4.62 4.62 4.62 11.96 0 7.34-4.62 11.59-4.62 4.26-11.24 4.26h-423.6Z"/></svg>