<svg xmlns="http://www.w3.org/2000/svg" height="48" width="48"><path d="M23.8 30.65q-.3 0-.425-.2T23.25 30q.15-2 1.05-3.675.9-1.675 3.35-3.825 1.8-1.6 2.675-3.225.875-1.625.875-3.575 0-2.95-2.025-4.875Q27.15 8.9 23.7 8.9q-2.5 0-4.05.95-1.55.95-2.6 2.55-.1.2-.35.25-.25.05-.5-.05-.2-.1-.2-.35 0-.25.15-.4 1.3-2 3.125-3.025T23.7 7.8q4.15 0 6.375 2.4 2.225 2.4 2.225 5.55 0 2.05-.925 3.9t-2.575 3.3q-2.6 2.25-3.475 3.775T24.4 30.05q0 .25-.175.425t-.425.175Zm-.1 10.75q-.5 0-.875-.375t-.375-.875q0-.5.375-.875t.875-.375q.5 0 .875.375t.375.875q0 .5-.375.875t-.875.375Z"/></svg>