<svg xmlns="http://www.w3.org/2000/svg" height="24" width="24"><path d="M2.9 21.1V8.8q0-1.75.95-3.138Q4.8 4.275 6.5 3.6q1.25-.5 2.725-.6Q10.7 2.9 12 2.9q1.3 0 2.775.1 1.475.1 2.725.6 1.7.675 2.65 2.062.95 1.388.95 3.138v12.3Zm5.75-.95h6.7l-1.55-1.7h-3.6Zm-1.25-6.9h9.2v-4.3H7.4Zm7.7 3.15q.325 0 .563-.238.237-.237.237-.562 0-.325-.237-.563-.238-.237-.563-.237-.325 0-.562.237-.238.238-.238.563 0 .325.238.562.237.238.562.238Zm-6.2 0q.325 0 .563-.238.237-.237.237-.562 0-.325-.237-.563-.238-.237-.563-.237-.325 0-.562.237-.238.238-.238.563 0 .325.238.562.237.238.562.238Zm-5.05 3.75h4v-.5l1.1-1.25q-1.125-.125-1.762-.9-.638-.775-.638-1.95v-6.6Q6.55 7.5 8.088 7 9.625 6.5 12 6.5t3.912.5q1.538.5 1.538 1.95v6.6q0 1.175-.638 1.938-.637.762-1.762.912l1.1 1.25v.5h4V8.8q0-1.55-.75-2.638-.75-1.087-2.25-1.662-1.125-.425-2.475-.538Q13.325 3.85 12 3.85q-1.325 0-2.675.112-1.35.113-2.475.538-1.5.575-2.25 1.662Q3.85 7.25 3.85 8.8Zm0 0h16.3H3.85Z"/></svg>