<svg xmlns="http://www.w3.org/2000/svg" height="40" viewBox="0 -960 960 960" width="40"><path d="M73.33-160q-14.16 0-23.75-9.62Q40-179.23 40-193.45q0-14.22 9.58-23.72 9.59-9.5 23.75-9.5h166v-94h-126q-14.16 0-23.75-9.61Q80-339.9 80-354.12q0-14.21 9.58-23.71 9.59-9.5 23.75-9.5h126v-94H158q-14.17 0-23.75-9.62t-9.58-23.83q0-14.22 9.58-23.72 9.58-9.5 23.75-9.5h81.33v-126L175-822q-5.67-12.33-.83-25.17 4.83-12.83 17.16-18.5 12.34-5.66 25.5-1.16 13.17 4.5 18.84 17.5l75 170.66h496L741-822q-5.67-12.33-.83-25.17 4.83-12.83 17.16-18.5 12.34-5.66 25.5-.83 13.17 4.83 18.84 17.17L874-692q2.67 6.67 4.33 13.83Q880-671 880-664v437.33q0 27.5-19.58 47.09Q840.83-160 813.33-160h-740Zm402-288h169.34q14.16 0 23.75-9.62 9.58-9.61 9.58-23.83 0-14.22-9.58-23.72-9.59-9.5-23.75-9.5H475.33q-14.16 0-23.75 9.62-9.58 9.62-9.58 23.83 0 14.22 9.58 23.72 9.59 9.5 23.75 9.5ZM306-226.67h507.33V-612H306v385.33Zm0 0V-612v385.33Z"/></svg>