<svg xmlns="http://www.w3.org/2000/svg" height="40" viewBox="0 -960 960 960" width="40"><path d="M480.04-394.28q99.34 0 175.12-57.8t75.78-151.35q0-37.93-13.78-69.89-13.79-31.97-38.46-57.77-67.26 2.6-115 49.76-47.74 47.16-47.74 115.21h-71.92q0-68.94-47.96-116.13-47.95-47.19-115.21-48.99-24.79 25.83-38.3 57.95-13.51 32.11-13.51 69.89 0 93.58 75.82 151.35 75.82 57.77 175.16 57.77ZM335.48-567.55q-15.22 0-25.44-10.34-10.21-10.33-10.21-25.55t10.33-25.55q10.33-10.33 25.56-10.33 15.22 0 25.55 10.45 10.32 10.44 10.32 25.66t-10.44 25.44q-10.45 10.22-25.67 10.22Zm288.74 0q-15.22 0-25.52-10.34-10.29-10.33-10.29-25.55t10.44-25.55q10.45-10.33 25.67-10.33 15.22 0 25.52 10.45 10.29 10.44 10.29 25.66t-10.44 25.44q-10.45 10.22-25.67 10.22ZM480-73.3q-135.96 0-231.33-94.28-95.37-94.27-95.37-230.05v-205.73q0-123.82 97.97-203.66 97.96-79.84 228.73-79.84 130.71 0 228.78 79.84 98.08 79.84 98.08 203.66v454.3h-75.92q-57.74 0-98.22-41.2-40.47-41.21-40.47-99.09v-46.88q-18.74 6.4-37.72 10.43-18.98 4.04-38.04 5.48v30.97q0 89.57 62.55 152.81 62.54 63.24 151.9 63.24H480Z"/></svg>