<svg xmlns="http://www.w3.org/2000/svg" height="24" width="24"><path d="M10 22Q9.575 22 9.288 21.712Q9 21.425 9 21V3Q9 2.575 9.288 2.287Q9.575 2 10 2Q10.425 2 10.713 2.287Q11 2.575 11 3V21Q11 21.425 10.713 21.712Q10.425 22 10 22ZM6 16Q5.575 16 5.287 15.712Q5 15.425 5 15V9Q5 8.575 5.287 8.287Q5.575 8 6 8Q6.425 8 6.713 8.287Q7 8.575 7 9V15Q7 15.425 6.713 15.712Q6.425 16 6 16ZM14 18Q13.575 18 13.288 17.712Q13 17.425 13 17V7Q13 6.575 13.288 6.287Q13.575 6 14 6Q14.425 6 14.713 6.287Q15 6.575 15 7V17Q15 17.425 14.713 17.712Q14.425 18 14 18ZM18 15Q17.575 15 17.288 14.712Q17 14.425 17 14V10Q17 9.575 17.288 9.287Q17.575 9 18 9Q18.425 9 18.712 9.287Q19 9.575 19 10V14Q19 14.425 18.712 14.712Q18.425 15 18 15Z"/></svg>