<svg xmlns="http://www.w3.org/2000/svg" height="20" viewBox="0 -960 960 960" width="20"><path d="M173.5-72q-26.64 0-44.32-21.2T119-141.5L263-734l1.5-2.5q-.01-17.2-10.15-28.35Q244.21-776 228.5-776q-15.5 0-26 15.14Q192-745.71 192-727.5v13.5q0 22.8-16.29 39.15-16.29 16.35-39 16.35T97-675.35Q80-692.2 80-715v-32.5q0-58.13 40.69-99.31Q161.38-888 219.5-888h456.62q52.74 0 89.56 35.25T804-766l32.5 634.5q2 24.99-14.78 42.24Q804.94-72 780.06-72H173.5ZM244-184h51.5l-9-173.5L244-184Zm301.5-122q10.5 0 18.5-7.37 8-7.36 8-18.13V-404q22-6 37.25-24.75t15.25-43.75v-133.81q0-7.48-4.85-12.34-4.85-4.85-12.65-4.85-7.84 0-12.72 4.86-4.88 4.86-4.88 12.39V-483H563v-123.25q0-7.53-4.85-12.39t-12.65-4.86q-7.84 0-12.72 4.86-4.88 4.86-4.88 12.39V-483h-26.4v-123.25q0-7.53-4.85-12.39T484-623.5q-7.8 0-12.65 4.85-4.85 4.86-4.85 12.34v133.81q0 25 15.08 43.28Q496.65-410.94 519-404v72.59q0 10.41 8 17.91t18.5 7.5Z"/></svg>