<svg xmlns="http://www.w3.org/2000/svg" height="48" width="48"><path d="M16.75 27.35q.6 0 1-.4t.4-.95q0-.55-.4-.975-.4-.425-1-.425-.55 0-.95.425-.4.425-.4.975t.4.95q.4.4.95.4Zm6.15 0q.6 0 1-.4t.4-.95q0-.55-.4-.975-.4-.425-1-.425-.55 0-.925.425T21.6 26q0 .55.375.95.375.4.925.4Zm6.2 0q.55 0 .95-.4.4-.4.4-.95 0-.55-.4-.975-.4-.425-.95-.425-.6 0-.975.425T27.75 26q0 .55.375.95.375.4.975.4Zm6.15 0q.55 0 .95-.4.4-.4.4-.95 0-.55-.4-.975-.4-.425-.95-.425-.6 0-.975.425T33.9 26q0 .55.375.95.375.4.975.4ZM26 43.9q-3.75 0-7-1.4t-5.675-3.825Q10.9 36.25 9.5 33q-1.4-3.25-1.4-7 0-7.4 5-12.425T24.9 8.1V1.65q0-.5.325-.825Q25.55.5 26 .5q.5 0 .8.325.3.325.3.825V8.1q6.8.45 11.8 5.475 5 5.025 5 12.425 0 3.75-1.4 7t-3.825 5.675Q36.25 41.1 33 42.5q-3.25 1.4-7 1.4Zm0-2.15q6.5 0 11.125-4.675T41.75 26q0-6.5-4.625-11.125T26 10.25q-6.5 0-11.125 4.625T10.25 26q0 6.4 4.625 11.075Q19.5 41.75 26 41.75ZM26 26Z"/></svg>