<svg xmlns="http://www.w3.org/2000/svg" height="40" viewBox="0 -960 960 960" width="40"><path d="M41.79-480.645v-69.391h69.391v69.391H41.79Zm806.95 0v-69.391h69.231v69.391H848.74ZM41.79-646.051v-69.232h69.391v69.232H41.79Zm806.95 0v-69.232h69.231v69.232H848.74ZM41.79-811.298v-69.391h69.391v69.391H41.79Zm165.406 330.653v-69.391h69.231v69.391h-69.231Zm476.138 0v-69.391h69.391v69.391h-69.391ZM848.74-811.298v-69.391h69.231v69.391H848.74Zm-641.544 0v-69.391h69.231v69.391h-69.231Zm158.579 0v-69.391h69.392v69.391h-69.392Zm158.979 0v-69.391h69.231v69.391h-69.231Zm158.58 0v-69.391h69.391v69.391h-69.391ZM436.398-33.543q-22.854 0-43.804-8.478-20.95-8.478-37.153-24.746L154.434-267.992l29.946-29.924q13.538-13.525 31.571-18.065 18.034-4.54 36.577.445l75.928 21.225v-347.015q0-14.587 10.394-24.685 10.393-10.098 24.714-10.098 14.254 0 24.268 10.098 10.015 10.098 10.015 24.685v439.152l-111.493-31.427 118.159 117.857q6.153 6.86 14.174 9.915 8.02 3.054 17.711 3.054h198.189q35.378 0 60.298-25.033 24.919-25.032 24.919-60.184v-162.682q0-14.586 10.323-24.684 10.322-10.098 24.653-10.098t24.294 10.098q9.962 10.098 9.962 24.684v162.682q0 64.91-44.936 109.68-44.936 44.769-109.513 44.769H436.398Zm22.783-285.87v-161.116q0-14.753 10.292-24.768t24.579-10.015q14.286 0 24.323 10.098t10.037 24.685v161.116h-69.231Zm129.898 0v-106.478q0-14.587 10.394-24.685 10.394-10.098 24.715-10.098 14.253 0 24.268 10.098t10.015 24.685v106.478h-69.392Zm45.508 216.638H404.311h230.276Z"/></svg>