<svg xmlns="http://www.w3.org/2000/svg" height="24" viewBox="0 -960 960 960" width="24"><path d="M246.07-302.78q26 0 44.76-18.79 18.76-18.79 18.76-44.5 0-26-18.76-44.76-18.76-18.76-44.65-18.76-25.88 0-44.64 18.76t-18.76 44.65q0 25.88 18.79 44.64t44.5 18.76Zm-101.85 38.56v-202.17 202.17Zm44.65 99.57v80H44.65v-383.18l104.68-296.78h195.04v99.33H219.02l-39.04 110.32h254.5l88.56 88.57H144.22v202.17h564.35v-24.63l99.56-99.56v303.76H663.91v-80H188.87Zm412.09-559.42q17 0 28.5-11.5t11.5-28.5q0-17-11.5-28.5t-28.5-11.5q-17 0-28.5 11.5t-11.5 28.5q0 17 11.5 28.5t28.5 11.5ZM705.2-395.28 424.37-676.63v-264.02h263.26L969.22-659.3 705.2-395.28Zm0-160.05L807.98-655 640.52-827.48H537.54v103.74L705.2-555.33Zm-98.48 252.55q16 0 29.42-7.29 13.43-7.28 22.43-19.8l-87.53-87.52q-13.04 8.24-20.44 21.73-7.4 13.5-7.4 29.59 0 25.71 18.76 44.5t44.76 18.79Zm66.04-389Z"/></svg>