<svg xmlns="http://www.w3.org/2000/svg" height="24" width="24"><path d="M11.5 18.95Q10.85 18.95 10.312 18.612Q9.775 18.275 9.5 17.75Q9.375 17.575 9.488 17.45Q9.6 17.325 9.775 17.325Q9.9 17.325 9.975 17.362Q10.05 17.4 10.075 17.5Q10.3 17.85 10.688 18.075Q11.075 18.3 11.5 18.3Q12.175 18.3 12.675 17.812Q13.175 17.325 13.175 16.65Q13.175 15.975 12.675 15.475Q12.175 14.975 11.525 14.975H3.075Q2.925 14.975 2.838 14.887Q2.75 14.8 2.75 14.675Q2.75 14.55 2.838 14.45Q2.925 14.35 3.075 14.35H11.525Q12.475 14.35 13.15 15.025Q13.825 15.7 13.825 16.65Q13.825 17.6 13.138 18.275Q12.45 18.95 11.5 18.95ZM3.075 9.65Q2.925 9.65 2.838 9.55Q2.75 9.45 2.75 9.325Q2.75 9.2 2.838 9.1Q2.925 9 3.075 9H15.475Q16.375 9 17.013 8.375Q17.65 7.75 17.65 6.85Q17.65 5.95 17.013 5.312Q16.375 4.675 15.475 4.675Q14.775 4.675 14.25 5.037Q13.725 5.4 13.5 5.975Q13.45 6.075 13.375 6.125Q13.3 6.175 13.2 6.175Q12.975 6.175 12.888 6.025Q12.8 5.875 12.9 5.675Q13.225 4.925 13.913 4.487Q14.6 4.05 15.475 4.05Q16.65 4.05 17.463 4.862Q18.275 5.675 18.275 6.85Q18.275 8.025 17.463 8.837Q16.65 9.65 15.475 9.65ZM19.6 17.075Q19.425 17.15 19.288 17.05Q19.15 16.95 19.15 16.75Q19.15 16.65 19.188 16.587Q19.225 16.525 19.325 16.475Q19.9 16.25 20.263 15.712Q20.625 15.175 20.625 14.475Q20.625 13.575 19.988 12.938Q19.35 12.3 18.475 12.3H3.075Q2.925 12.3 2.838 12.212Q2.75 12.125 2.75 12Q2.75 11.875 2.838 11.775Q2.925 11.675 3.075 11.675H18.475Q19.625 11.675 20.45 12.487Q21.275 13.3 21.275 14.475Q21.275 15.35 20.812 16.05Q20.35 16.75 19.6 17.075Z"/></svg>