<svg xmlns="http://www.w3.org/2000/svg" height="40" viewBox="0 -960 960 960" width="40"><path d="M746.77-70.94q-84.35 0-143.02-58.89-58.68-58.88-58.68-142.86 0-83.97 58.7-142.84 58.7-58.86 143.05-58.86 83.97 0 142.84 58.89 58.86 58.88 58.86 142.86 0 83.97-58.89 142.83-58.88 58.87-142.86 58.87Zm61.26-96.9 33.49-34.62-76.19-75.6v-121.9h-48.42v139.89l91.12 92.23ZM236.74-566.1h368.69v-157.16H236.74v157.16ZM190.58-94.35q-39.43 0-67.93-28.89-28.5-28.9-28.5-67.54v-592.74q0-39.59 28.5-68.2t67.93-28.61h502.45l173.2 173.12v194.62q-28.32-14.16-57.95-21.31-29.64-7.16-61.28-7.16-60.35 0-111.83 24.31-51.47 24.3-88.34 66.06-14.3-9.32-31.24-15.27-16.95-5.94-35.59-5.94-47.05 0-80.31 33.27-33.27 33.26-33.27 80.31 0 46.58 32.17 80.23 32.16 33.65 79.35 34.34h2.67q4.1 42.04 20.65 79.62 16.55 37.58 45.92 69.78h-356.6Z"/></svg>