<svg xmlns="http://www.w3.org/2000/svg" version="1.1" width="3300" height="2000"><g id="Notes"><style>
    text {
      font-family: monospace;
      text-anchor: middle;
    }
    text.emphasis {
      font-weight:bold;
    }
    text.lanchor {
      text-anchor: start;
    }
  </style><rect height="2200" id="artboard" fill="white" width="3300" x="0" y="0"/><line id="" style="fill:none;stroke:black;stroke-width:0.5;" x1="263" x2="3036" y1="292" y2="292"/><text class="lanchor emphasis" transform="matrix(1 0 0 1 263 322)">Weight/Scale Variations</text><text transform="matrix(1 0 0 1 559.711 322)">Ultralight</text><text transform="matrix(1 0 0 1 856.422 322)">Thin</text><text transform="matrix(1 0 0 1 1153.13 322)">Light</text><text transform="matrix(1 0 0 1 1449.84 322)">Regular</text><text transform="matrix(1 0 0 1 1746.56 322)">Medium</text><text transform="matrix(1 0 0 1 2043.27 322)">Semibold</text><text transform="matrix(1 0 0 1 2339.98 322)">Bold</text><text transform="matrix(1 0 0 1 2636.69 322)">Heavy</text><text transform="matrix(1 0 0 1 2933.4 322)">Black</text><text id="template-version" style="text-anchor: end;" transform="matrix(1 0 0 1 3036 1933)">Template v.1.0</text><text class="lanchor" transform="matrix(1 0 0 1 263 726)">Small</text><text class="lanchor" transform="matrix(1 0 0 1 263 1156)">Medium</text><text class="lanchor" transform="matrix(1 0 0 1 263 1586)">Large</text></g><g id="Guides"><g id="H-reference" style="fill:#27AAE1;stroke:none;" transform="matrix(1 0 0 1 339 696)"><path d="M 54.9316 0 L 57.666 0 L 30.5664 -70.459 L 28.0762 -70.459 L 0.976562 0 L 3.66211 0 L 12.9395 -24.4629 L 45.7031 -24.4629 Z M 29.1992 -67.0898 L 29.4434 -67.0898 L 44.8242 -26.709 L 13.8184 -26.709 Z"/></g><line id="Baseline-S" style="fill:none;stroke:#27AAE1;opacity:1;stroke-width:0.577;" x1="263" x2="3036" y1="696" y2="696"/><line id="Capline-S" style="fill:none;stroke:#27AAE1;opacity:1;stroke-width:0.577;" x1="263" x2="3036" y1="625.541" y2="625.541"/><g id="H-reference" style="fill:#27AAE1;stroke:none;" transform="matrix(1 0 0 1 339 1126)"><path d="M 54.9316 0 L 57.666 0 L 30.5664 -70.459 L 28.0762 -70.459 L 0.976562 0 L 3.66211 0 L 12.9395 -24.4629 L 45.7031 -24.4629 Z M 29.1992 -67.0898 L 29.4434 -67.0898 L 44.8242 -26.709 L 13.8184 -26.709 Z"/></g><line id="Baseline-M" style="fill:none;stroke:#27AAE1;opacity:1;stroke-width:0.577;" x1="263" x2="3036" y1="1126" y2="1126"/><line id="Capline-M" style="fill:none;stroke:#27AAE1;opacity:1;stroke-width:0.577;" x1="263" x2="3036" y1="1055.54" y2="1055.54"/><g id="H-reference" style="fill:#27AAE1;stroke:none;" transform="matrix(1 0 0 1 339 1556)"><path d="M 54.9316 0 L 57.666 0 L 30.5664 -70.459 L 28.0762 -70.459 L 0.976562 0 L 3.66211 0 L 12.9395 -24.4629 L 45.7031 -24.4629 Z M 29.1992 -67.0898 L 29.4434 -67.0898 L 44.8242 -26.709 L 13.8184 -26.709 Z"/></g><line id="Baseline-L" style="fill:none;stroke:#27AAE1;opacity:1;stroke-width:0.577;" x1="263" x2="3036" y1="1556" y2="1556"/><line id="Capline-L" style="fill:none;stroke:#27AAE1;opacity:1;stroke-width:0.577;" x1="263" x2="3036" y1="1485.54" y2="1485.54"/><rect height="119.336" id="left-margin" style="fill:darkred;stroke:none;opacity:0.4;" width="12.4512" x="1394.06" y="1030.79"/><rect height="119.336" id="right-margin" style="fill:darkgreen;stroke:none;opacity:0.4;" width="12.4512" x="1502.5112" y="1030.79"/><rect x="1406.5112" y="1045" width="96" height="96" fill="none" stroke="blue" stroke-dasharray="5"/><rect x="1394.06" y="1030.79" width="120.9024" height="119.336" fill="none" stroke="blue"/></g><g id="Symbols"><g id="Bold-L" transform="matrix(1 0 0 1 2266 1556)"><path d="M71.918 -41.841 V-27.974 Q71.918 -25.729 73.475 -24.11 Q75.033 -22.491 77.426 -22.491 Q79.819 -22.491 81.431 -24.041 Q83.044 -25.592 83.044 -28.03 V-41.841 H96.911 Q99.156 -41.841 100.775 -43.462 Q102.394 -45.084 102.394 -47.332 Q102.394 -49.512 100.775 -51.16 Q99.156 -52.806 96.911 -52.806 H83.044 V-66.512 Q83.044 -68.826 81.439 -70.492 Q79.835 -72.156 77.371 -72.156 Q74.978 -72.156 73.448 -70.56 Q71.918 -68.963 71.918 -66.456 V-52.806 H57.889 Q55.712 -52.806 54.14 -51.184 Q52.568 -49.56 52.568 -47.309 Q52.568 -45.128 54.186 -43.484 Q55.805 -41.841 58.05 -41.841 H71.918 Z M77.281 28.786 Q75.465 28.786 73.354 28.141 Q71.243 27.496 69.66 26.045 Q61.92 19.918 53.616 11.657 Q45.31 3.397 38.377 -6 Q31.444 -15.396 26.929 -25.868 Q22.414 -36.339 22.414 -47.324 Q22.414 -73.079 39.029 -88.259 Q55.644 -103.439 77.4 -103.439 Q99.087 -103.439 115.818 -88.259 Q132.548 -73.079 132.548 -47.324 Q132.548 -36.339 127.952 -25.868 Q123.356 -15.396 116.422 -6 Q109.49 3.397 101.184 11.657 Q92.88 19.918 85.463 26.045 Q83.534 27.496 81.315 28.141 Q79.096 28.786 77.281 28.786 Z"/></g><g id="Semibold-L" transform="matrix(1 0 0 1 1970.27 1556)"><path d="M71.777 -42.051 V-28.324 Q71.777 -26.019 73.404 -24.36 Q75.033 -22.701 77.426 -22.701 Q79.819 -22.701 81.501 -24.321 Q83.184 -25.942 83.184 -28.356 V-42.051 H96.842 Q99.175 -42.051 100.855 -43.715 Q102.534 -45.379 102.534 -47.69 Q102.534 -49.963 100.855 -51.665 Q99.175 -53.367 96.842 -53.367 H83.184 V-66.933 Q83.184 -69.307 81.509 -71.011 Q79.835 -72.717 77.371 -72.717 Q74.978 -72.717 73.377 -71.05 Q71.777 -69.384 71.777 -66.901 V-53.367 H57.958 Q55.693 -53.367 54.061 -51.682 Q52.427 -49.997 52.427 -47.654 Q52.427 -45.379 54.086 -43.715 Q55.746 -42.051 58.05 -42.051 H71.777 Z M77.315 28.506 Q75.465 28.506 73.396 27.861 Q71.326 27.216 69.729 25.764 Q62.13 19.497 53.861 11.237 Q45.59 2.977 38.692 -6.419 Q31.794 -15.817 27.279 -26.148 Q22.764 -36.478 22.764 -47.254 Q22.764 -72.256 39.131 -87.638 Q55.497 -103.018 77.4 -103.018 Q99.262 -103.018 115.695 -87.638 Q132.127 -72.256 132.127 -47.254 Q132.127 -36.478 127.566 -26.148 Q123.006 -15.817 116.108 -6.419 Q109.21 2.977 100.939 11.237 Q92.67 19.497 85.322 25.764 Q83.461 27.216 81.314 27.861 Q79.166 28.506 77.315 28.506 Z"/></g><g id="Medium-L" transform="matrix(1 0 0 1 1674.31 1556)"><path d="M71.672 -42.209 V-28.586 Q71.672 -26.237 73.353 -24.549 Q75.033 -22.859 77.426 -22.859 Q79.819 -22.859 81.554 -24.533 Q83.289 -26.205 83.289 -28.601 V-42.209 H96.789 Q99.19 -42.209 100.915 -43.905 Q102.639 -45.6 102.639 -47.959 Q102.639 -50.3 100.915 -52.045 Q99.19 -53.788 96.789 -53.788 H83.289 V-67.249 Q83.289 -69.667 81.562 -71.402 Q79.835 -73.138 77.371 -73.138 Q74.978 -73.138 73.325 -71.419 Q71.672 -69.7 71.672 -67.235 V-53.788 H58.011 Q55.678 -53.788 53.999 -52.056 Q52.322 -50.325 52.322 -47.912 Q52.322 -45.568 54.011 -43.889 Q55.701 -42.209 58.05 -42.209 H71.672 Z M77.34 28.296 Q75.465 28.296 73.427 27.651 Q71.389 27.006 69.783 25.555 Q62.288 19.181 54.045 10.921 Q45.801 2.661 38.929 -6.736 Q32.056 -16.133 27.542 -26.358 Q23.027 -36.584 23.027 -47.201 Q23.027 -71.64 39.208 -87.172 Q55.389 -102.702 77.4 -102.702 Q99.394 -102.702 115.603 -87.172 Q131.811 -71.64 131.811 -47.201 Q131.811 -36.584 127.278 -26.358 Q122.744 -16.133 115.871 -6.736 Q108.999 2.661 100.755 10.921 Q92.512 19.181 85.217 25.555 Q83.407 27.006 81.312 27.651 Q79.217 28.296 77.34 28.296 Z"/></g><g id="Regular-L" transform="matrix(1 0 0 1 1378.56 1556)"><path d="M71.595 -42.325 V-28.78 Q71.595 -26.398 73.314 -24.686 Q75.033 -22.975 77.426 -22.975 Q79.819 -22.975 81.593 -24.686 Q83.366 -26.398 83.366 -28.78 V-42.325 H96.75 Q99.201 -42.325 100.959 -44.044 Q102.716 -45.763 102.716 -48.156 Q102.716 -50.549 100.959 -52.322 Q99.201 -54.096 96.75 -54.096 H83.366 V-67.48 Q83.366 -69.931 81.601 -71.689 Q79.835 -73.446 77.371 -73.446 Q74.978 -73.446 73.287 -71.689 Q71.595 -69.931 71.595 -67.48 V-54.096 H58.05 Q55.668 -54.096 53.956 -52.331 Q52.245 -50.565 52.245 -48.101 Q52.245 -45.706 53.956 -44.017 Q55.668 -42.325 58.05 -42.325 H71.595 Z M77.36 28.141 Q75.465 28.141 73.449 27.496 Q71.434 26.851 69.821 25.4 Q62.404 18.95 54.18 10.689 Q45.955 2.43 39.103 -6.968 Q32.25 -16.364 27.735 -26.513 Q23.22 -36.662 23.22 -47.162 Q23.22 -71.189 39.264 -86.83 Q55.309 -102.471 77.4 -102.471 Q99.491 -102.471 115.536 -86.83 Q131.58 -71.189 131.58 -47.162 Q131.58 -36.662 127.065 -26.513 Q122.55 -16.364 115.697 -6.968 Q108.845 2.43 100.62 10.689 Q92.396 18.95 85.14 25.4 Q83.366 26.851 81.31 27.496 Q79.254 28.141 77.36 28.141 Z"/></g><g id="Light-L" transform="matrix(1 0 0 1 1082.77 1556)"><path d="M72.774 -43.504 V-28.78 Q72.774 -26.898 74.154 -25.526 Q75.534 -24.154 77.429 -24.154 Q79.322 -24.154 80.756 -25.526 Q82.188 -26.898 82.188 -28.78 V-43.504 H96.75 Q98.7 -43.504 100.119 -44.884 Q101.538 -46.264 101.538 -48.159 Q101.538 -50.052 100.119 -51.486 Q98.7 -52.918 96.75 -52.918 H82.188 V-67.48 Q82.188 -69.43 80.76 -70.849 Q79.332 -72.268 77.368 -72.268 Q75.473 -72.268 74.123 -70.849 Q72.774 -69.43 72.774 -67.48 V-52.918 H58.05 Q56.168 -52.918 54.796 -51.49 Q53.424 -50.062 53.424 -48.098 Q53.424 -46.203 54.796 -44.853 Q56.168 -43.504 58.05 -43.504 H72.774 Z M77.376 25.35 Q75.713 25.35 73.914 24.799 Q72.116 24.245 70.627 22.981 Q64.016 17.213 56.226 9.356 Q48.436 1.5 41.77 -7.619 Q35.103 -16.736 30.62 -26.668 Q26.135 -36.599 26.135 -46.853 Q26.135 -69.018 41.062 -84.132 Q55.991 -99.246 77.4 -99.246 Q98.809 -99.246 113.738 -84.132 Q128.665 -69.018 128.665 -46.853 Q128.665 -36.599 124.18 -26.668 Q119.697 -16.736 113.062 -7.65 Q106.425 1.437 98.635 9.294 Q90.845 17.152 84.395 22.918 Q82.768 24.184 80.917 24.768 Q79.066 25.35 77.376 25.35 Z"/></g><g id="Thin-L" transform="matrix(1 0 0 1 787.282 1556)"><path d="M73.952 -44.682 V-28.78 Q73.952 -27.4 74.994 -26.366 Q76.037 -25.332 77.432 -25.332 Q78.827 -25.332 79.919 -26.366 Q81.009 -27.4 81.009 -28.78 V-44.682 H96.75 Q98.2 -44.682 99.28 -45.724 Q100.359 -46.767 100.359 -48.162 Q100.359 -49.557 99.28 -50.649 Q98.2 -51.739 96.75 -51.739 H81.009 V-67.48 Q81.009 -68.93 79.919 -70.01 Q78.829 -71.089 77.365 -71.089 Q75.97 -71.089 74.96 -70.01 Q73.952 -68.93 73.952 -67.48 V-51.739 H58.05 Q56.67 -51.739 55.636 -50.649 Q54.602 -49.559 54.602 -48.095 Q54.602 -46.7 55.636 -45.69 Q56.67 -44.682 58.05 -44.682 H73.952 Z M77.39 22.559 Q75.962 22.559 74.38 22.101 Q72.798 21.641 71.434 20.563 Q65.629 15.477 58.273 8.024 Q50.916 0.569 44.436 -8.269 Q37.955 -17.109 33.503 -26.822 Q29.049 -36.538 29.049 -46.542 Q29.049 -66.848 42.862 -81.435 Q56.673 -96.021 77.4 -96.021 Q98.127 -96.021 111.938 -81.435 Q125.751 -66.848 125.751 -46.542 Q125.751 -36.538 121.297 -26.822 Q116.845 -17.109 110.426 -8.332 Q104.008 0.445 96.652 7.9 Q89.295 15.353 83.652 20.438 Q82.17 21.517 80.523 22.038 Q78.877 22.559 77.39 22.559 Z"/></g><g id="Ultralight-L" transform="matrix(1 0 0 1 491.205 1556)"><path d="M74.659 -45.389 V-28.78 Q74.659 -27.7 75.499 -26.869 Q76.339 -26.039 77.434 -26.039 Q78.529 -26.039 79.416 -26.869 Q80.303 -27.7 80.303 -28.78 V-45.389 H96.75 Q97.9 -45.389 98.775 -46.229 Q99.653 -47.069 99.653 -48.164 Q99.653 -49.259 98.775 -50.146 Q97.9 -51.032 96.75 -51.032 H80.303 V-67.48 Q80.303 -68.63 79.416 -69.505 Q78.527 -70.382 77.363 -70.382 Q76.268 -70.382 75.463 -69.505 Q74.659 -68.63 74.659 -67.48 V-51.032 H58.05 Q56.97 -51.032 56.139 -50.146 Q55.309 -49.257 55.309 -48.093 Q55.309 -46.996 56.139 -46.193 Q56.97 -45.389 58.05 -45.389 H74.659 Z M77.4 20.885 Q76.11 20.885 74.659 20.482 Q73.207 20.079 71.918 19.111 Q66.596 14.435 59.501 7.222 Q52.405 0.011 46.037 -8.661 Q39.668 -17.331 35.233 -26.916 Q30.799 -36.501 30.799 -46.356 Q30.799 -65.545 43.941 -79.816 Q57.083 -94.086 77.4 -94.086 Q97.718 -94.086 110.859 -79.816 Q124.001 -65.545 124.001 -46.356 Q124.001 -36.501 119.567 -26.916 Q115.133 -17.331 108.844 -8.741 Q102.557 -0.15 95.46 7.061 Q88.365 14.274 83.205 18.95 Q81.812 19.918 80.288 20.401 Q78.763 20.885 77.4 20.885 Z"/></g><g id="Bold-M" transform="matrix(1 0 0 1 2281.8 1126)"><path d="M53.375 -37.73 V-29.355 Q53.375 -26.605 55.312 -24.667 Q57.25 -22.73 60 -22.73 Q62.75 -22.73 64.688 -24.667 Q66.625 -26.605 66.625 -29.355 V-37.73 H75.125 Q77.821 -37.73 79.724 -39.667 Q81.625 -41.605 81.625 -44.355 Q81.625 -47.051 79.724 -48.954 Q77.821 -50.855 75.125 -50.855 H66.625 V-59.23 Q66.625 -61.98 64.688 -63.917 Q62.75 -65.855 60 -65.855 Q57.25 -65.855 55.312 -63.917 Q53.375 -61.98 53.375 -59.23 V-50.855 H44.875 Q42.178 -50.855 40.276 -48.952 Q38.375 -47.05 38.375 -44.352 Q38.375 -41.655 40.312 -39.692 Q42.25 -37.73 45 -37.73 H53.375 Z M59.939 16.145 Q57.5 16.145 55.176 15.395 Q52.852 14.645 50.875 12.895 Q41.625 4.895 34.75 -2.542 Q27.875 -9.98 23.312 -16.98 Q18.75 -23.98 16.5 -30.917 Q14.25 -37.855 14.25 -44.855 Q14.25 -65.32 27.906 -78.212 Q41.564 -91.105 60 -91.105 Q78.436 -91.105 92.094 -78.212 Q105.75 -65.32 105.75 -44.855 Q105.75 -37.855 103.5 -30.917 Q101.25 -23.98 96.688 -16.98 Q92.125 -9.98 85.25 -2.542 Q78.375 4.895 69.125 12.895 Q67.13 14.645 64.754 15.395 Q62.377 16.145 59.939 16.145 Z"/></g><g id="Semibold-M" transform="matrix(1 0 0 1 1985.97 1126)"><path d="M53.375 -38.11 V-29.735 Q53.375 -26.985 55.312 -25.047 Q57.25 -23.11 60 -23.11 Q62.75 -23.11 64.688 -25.047 Q66.625 -26.985 66.625 -29.735 V-38.11 H75.071 Q77.791 -38.11 79.707 -40.047 Q81.625 -41.985 81.625 -44.735 Q81.625 -47.455 79.707 -49.372 Q77.791 -51.29 75.071 -51.29 H66.625 V-59.665 Q66.625 -62.415 64.688 -64.352 Q62.75 -66.29 60 -66.29 Q57.25 -66.29 55.312 -64.352 Q53.375 -62.415 53.375 -59.665 V-51.29 H44.929 Q42.209 -51.29 40.292 -49.372 Q38.375 -47.455 38.375 -44.734 Q38.375 -42.014 40.312 -40.062 Q42.25 -38.11 45 -38.11 H53.375 Z M59.965 15.548 Q57.609 15.548 55.344 14.798 Q53.08 14.048 51.146 12.351 Q42.005 4.298 35.212 -3.14 Q28.419 -10.577 23.938 -17.55 Q19.456 -24.524 17.234 -31.297 Q15.011 -38.072 15.011 -44.746 Q15.011 -64.411 28.328 -77.377 Q41.645 -90.344 60 -90.344 Q78.355 -90.344 91.672 -77.377 Q104.989 -64.411 104.989 -44.746 Q104.989 -38.072 102.766 -31.297 Q100.544 -24.524 96.062 -17.55 Q91.581 -10.577 84.787 -3.14 Q77.995 4.298 68.854 12.351 Q66.911 14.048 64.616 14.798 Q62.322 15.548 59.965 15.548 Z"/></g><g id="Medium-M" transform="matrix(1 0 0 1 1689.91 1126)"><path d="M53.375 -38.396 V-30.021 Q53.375 -27.271 55.312 -25.334 Q57.25 -23.396 60 -23.396 Q62.75 -23.396 64.688 -25.334 Q66.625 -27.271 66.625 -30.021 V-38.396 H75.03 Q77.767 -38.396 79.696 -40.334 Q81.625 -42.271 81.625 -45.021 Q81.625 -47.757 79.696 -49.687 Q77.767 -51.616 75.03 -51.616 H66.625 V-59.991 Q66.625 -62.741 64.688 -64.679 Q62.75 -66.616 60 -66.616 Q57.25 -66.616 55.312 -64.679 Q53.375 -62.741 53.375 -59.991 V-51.616 H44.97 Q42.233 -51.616 40.304 -49.686 Q38.375 -47.757 38.375 -45.02 Q38.375 -42.282 40.312 -40.339 Q42.25 -38.396 45 -38.396 H53.375 Z M59.985 15.099 Q57.69 15.099 55.47 14.349 Q53.25 13.599 51.35 11.944 Q42.291 3.849 35.559 -3.589 Q28.826 -11.026 24.406 -17.979 Q19.986 -24.931 17.784 -31.584 Q15.581 -38.235 15.581 -44.665 Q15.581 -63.73 28.644 -76.751 Q41.705 -89.774 60 -89.774 Q78.295 -89.774 91.356 -76.751 Q104.419 -63.73 104.419 -44.665 Q104.419 -38.235 102.216 -31.584 Q100.014 -24.931 95.594 -17.979 Q91.174 -11.026 84.441 -3.589 Q77.709 3.849 68.65 11.944 Q66.746 13.599 64.514 14.349 Q62.28 15.099 59.985 15.099 Z"/></g><g id="Regular-M" transform="matrix(1 0 0 1 1394.06 1126)"><path d="M53.375 -38.605 V-30.23 Q53.375 -27.48 55.312 -25.542 Q57.25 -23.605 60 -23.605 Q62.75 -23.605 64.688 -25.542 Q66.625 -27.48 66.625 -30.23 V-38.605 H75 Q77.75 -38.605 79.688 -40.542 Q81.625 -42.48 81.625 -45.23 Q81.625 -47.98 79.688 -49.917 Q77.75 -51.855 75 -51.855 H66.625 V-60.23 Q66.625 -62.98 64.688 -64.917 Q62.75 -66.855 60 -66.855 Q57.25 -66.855 55.312 -64.917 Q53.375 -62.98 53.375 -60.23 V-51.855 H45 Q42.25 -51.855 40.312 -49.917 Q38.375 -47.98 38.375 -45.23 Q38.375 -42.48 40.312 -40.542 Q42.25 -38.605 45 -38.605 H53.375 Z M60 14.77 Q57.75 14.77 55.562 14.02 Q53.375 13.27 51.5 11.645 Q42.5 3.52 35.812 -3.917 Q29.125 -11.355 24.75 -18.292 Q20.375 -25.23 18.188 -31.792 Q16 -38.355 16 -44.605 Q16 -63.23 28.875 -76.292 Q41.75 -89.355 60 -89.355 Q78.25 -89.355 91.125 -76.292 Q104 -63.23 104 -44.605 Q104 -38.355 101.812 -31.792 Q99.625 -25.23 95.25 -18.292 Q90.875 -11.355 84.188 -3.917 Q77.5 3.52 68.5 11.645 Q66.625 13.27 64.438 14.02 Q62.25 14.77 60 14.77 Z"/></g><g id="Light-M" transform="matrix(1 0 0 1 1098.18 1126)"><path d="M54.625 -39.855 V-30.23 Q54.625 -28.011 56.204 -26.434 Q57.782 -24.855 60.001 -24.855 Q62.221 -24.855 63.797 -26.434 Q65.375 -28.011 65.375 -30.23 V-39.855 H75 Q77.219 -39.855 78.796 -41.434 Q80.375 -43.012 80.375 -45.231 Q80.375 -47.451 78.796 -49.027 Q77.219 -50.605 75 -50.605 H65.375 V-60.23 Q65.375 -62.449 63.796 -64.026 Q62.218 -65.605 59.999 -65.605 Q57.779 -65.605 56.203 -64.026 Q54.625 -62.449 54.625 -60.23 V-50.605 H45 Q42.781 -50.605 41.204 -49.026 Q39.625 -47.447 39.625 -45.229 Q39.625 -43.009 41.204 -41.432 Q42.781 -39.855 45 -39.855 H54.625 Z M60 12.846 Q58.039 12.846 56.14 12.218 Q54.24 11.588 52.557 10.155 Q44.953 3.328 38.649 -3.557 Q32.346 -10.441 27.828 -17.259 Q23.308 -24.076 20.784 -30.902 Q18.26 -37.73 18.26 -44.365 Q18.26 -61.547 30.269 -74.201 Q42.279 -86.855 60 -86.855 Q77.721 -86.855 89.731 -74.201 Q101.74 -61.547 101.74 -44.365 Q101.74 -37.73 99.216 -30.927 Q96.692 -24.124 92.198 -17.282 Q87.701 -10.441 81.399 -3.581 Q75.096 3.28 67.49 10.106 Q65.825 11.539 63.904 12.193 Q61.984 12.846 60 12.846 Z"/></g><g id="Thin-M" transform="matrix(1 0 0 1 802.565 1126)"><path d="M55.875 -41.105 V-30.23 Q55.875 -28.542 57.095 -27.324 Q58.315 -26.105 60.004 -26.105 Q61.693 -26.105 62.909 -27.324 Q64.125 -28.542 64.125 -30.23 V-41.105 H75 Q76.688 -41.105 77.906 -42.325 Q79.125 -43.545 79.125 -45.234 Q79.125 -46.922 77.906 -48.139 Q76.688 -49.355 75 -49.355 H64.125 V-60.23 Q64.125 -61.917 62.905 -63.136 Q61.685 -64.355 59.996 -64.355 Q58.307 -64.355 57.091 -63.136 Q55.875 -61.917 55.875 -60.23 V-49.355 H45 Q43.312 -49.355 42.094 -48.135 Q40.875 -46.915 40.875 -45.226 Q40.875 -43.537 42.094 -42.321 Q43.312 -41.105 45 -41.105 H55.875 Z M60 10.924 Q58.328 10.924 56.716 10.414 Q55.106 9.905 53.615 8.664 Q47.404 3.135 41.485 -3.196 Q35.568 -9.527 30.904 -16.225 Q26.24 -22.922 23.38 -30.014 Q20.519 -37.105 20.519 -44.124 Q20.519 -59.865 31.664 -72.11 Q42.807 -84.355 60 -84.355 Q77.192 -84.355 88.336 -72.11 Q99.481 -59.865 99.481 -44.124 Q99.481 -37.105 96.62 -30.061 Q93.76 -23.019 89.144 -16.274 Q84.529 -9.527 78.61 -3.245 Q72.692 3.039 66.481 8.568 Q65.025 9.809 63.371 10.366 Q61.716 10.924 60 10.924 Z"/></g><g id="Ultralight-M" transform="matrix(1 0 0 1 506.415 1126)"><path d="M56.625 -41.855 V-30.23 Q56.625 -28.861 57.63 -27.857 Q58.634 -26.855 60.005 -26.855 Q61.375 -26.855 62.375 -27.857 Q63.375 -28.861 63.375 -30.23 V-41.855 H75 Q76.369 -41.855 77.371 -42.86 Q78.375 -43.864 78.375 -45.235 Q78.375 -46.605 77.371 -47.605 Q76.369 -48.605 75 -48.605 H63.375 V-60.23 Q63.375 -61.599 62.37 -62.601 Q61.366 -63.605 59.995 -63.605 Q58.625 -63.605 57.625 -62.601 Q56.625 -61.599 56.625 -60.23 V-48.605 H45 Q43.631 -48.605 42.627 -47.6 Q41.625 -46.596 41.625 -45.225 Q41.625 -43.855 42.627 -42.855 Q43.631 -41.855 45 -41.855 H56.625 Z M60 9.77 Q58.5 9.77 57.062 9.333 Q55.625 8.895 54.25 7.77 Q48.875 3.02 43.188 -2.98 Q37.5 -8.98 32.75 -15.605 Q28 -22.23 24.938 -29.48 Q21.875 -36.73 21.875 -43.98 Q21.875 -58.855 32.5 -70.855 Q43.125 -82.855 60 -82.855 Q76.875 -82.855 87.5 -70.855 Q98.125 -58.855 98.125 -43.98 Q98.125 -36.73 95.062 -29.542 Q92 -22.355 87.312 -15.667 Q82.625 -8.98 76.938 -3.042 Q71.25 2.895 65.875 7.645 Q64.545 8.77 63.051 9.27 Q61.556 9.77 60 9.77 Z"/></g><g id="Bold-S" transform="matrix(1 0 0 1 2294.23 696)"><path d="M42.532 -36.808 V-30.989 Q42.532 -28.987 43.95 -27.572 Q45.367 -26.156 47.363 -26.156 Q49.359 -26.156 50.769 -27.572 Q52.181 -28.987 52.181 -30.989 V-36.808 H58.067 Q60.02 -36.808 61.423 -38.217 Q62.824 -39.627 62.824 -41.62 Q62.824 -43.571 61.437 -44.96 Q60.05 -46.35 58.09 -46.35 H52.173 V-52.186 Q52.173 -54.191 50.757 -55.609 Q49.342 -57.026 47.34 -57.026 Q45.338 -57.026 43.923 -55.609 Q42.507 -54.191 42.507 -52.186 V-46.35 H36.59 Q34.63 -46.35 33.243 -44.96 Q31.856 -43.57 31.856 -41.639 Q31.856 -39.678 33.273 -38.243 Q34.691 -36.808 36.696 -36.808 H42.532 Z M47.292 4.121 Q45.466 4.121 43.879 3.579 Q42.292 3.037 40.732 1.754 Q35.9 -2.092 30.82 -6.974 Q25.741 -11.856 21.5 -17.428 Q17.259 -23 14.646 -29.362 Q12.032 -35.723 12.032 -42.528 Q12.032 -57.097 22.067 -67.417 Q32.103 -77.737 47.291 -77.737 Q62.478 -77.737 72.563 -67.417 Q82.648 -57.097 82.648 -42.528 Q82.648 -35.723 79.985 -29.312 Q77.322 -22.902 73.13 -17.33 Q68.939 -11.757 63.86 -6.925 Q58.781 -2.092 53.948 1.754 Q52.374 3.037 50.746 3.579 Q49.117 4.121 47.292 4.121 Z"/></g><g id="Semibold-S" transform="matrix(1 0 0 1 1998.1 696)"><path d="M42.532 -37.108 V-31.289 Q42.532 -29.287 43.95 -27.872 Q45.367 -26.456 47.363 -26.456 Q49.359 -26.456 50.769 -27.872 Q52.181 -29.287 52.181 -31.289 V-37.108 H58.024 Q59.997 -37.108 61.41 -38.517 Q62.824 -39.927 62.824 -41.92 Q62.824 -43.889 61.425 -45.291 Q60.026 -46.693 58.048 -46.693 H52.173 V-52.528 Q52.173 -54.534 50.757 -55.951 Q49.342 -57.369 47.34 -57.369 Q45.338 -57.369 43.923 -55.951 Q42.507 -54.534 42.507 -52.528 V-46.693 H36.632 Q34.655 -46.693 33.255 -45.291 Q31.856 -43.889 31.856 -41.939 Q31.856 -39.961 33.273 -38.535 Q34.691 -37.108 36.696 -37.108 H42.532 Z M47.312 3.65 Q45.552 3.65 44.011 3.108 Q42.472 2.565 40.946 1.325 Q36.199 -2.563 31.185 -7.445 Q26.17 -12.327 21.993 -17.878 Q17.817 -23.43 15.225 -29.662 Q12.633 -35.895 12.633 -42.442 Q12.633 -56.38 22.4 -66.758 Q32.168 -77.137 47.291 -77.137 Q62.414 -77.137 72.231 -66.758 Q82.047 -56.38 82.047 -42.442 Q82.047 -35.895 79.406 -29.612 Q76.765 -23.331 72.637 -17.779 Q68.51 -12.229 63.495 -7.396 Q58.481 -2.563 53.734 1.325 Q52.201 2.565 50.637 3.108 Q49.074 3.65 47.312 3.65 Z"/></g><g id="Medium-S" transform="matrix(1 0 0 1 1701.85 696)"><path d="M42.532 -37.334 V-31.515 Q42.532 -29.513 43.95 -28.097 Q45.367 -26.682 47.363 -26.682 Q49.359 -26.682 50.769 -28.097 Q52.181 -29.513 52.181 -31.515 V-37.334 H57.992 Q59.978 -37.334 61.401 -38.743 Q62.824 -40.151 62.824 -42.146 Q62.824 -44.128 61.416 -45.539 Q60.007 -46.951 58.015 -46.951 H52.173 V-52.785 Q52.173 -54.791 50.757 -56.209 Q49.342 -57.627 47.34 -57.627 Q45.338 -57.627 43.923 -56.209 Q42.507 -54.791 42.507 -52.785 V-46.951 H36.665 Q34.673 -46.951 33.264 -45.539 Q31.856 -44.128 31.856 -42.165 Q31.856 -40.173 33.273 -38.753 Q34.691 -37.334 36.696 -37.334 H42.532 Z M47.328 3.296 Q45.616 3.296 44.111 2.753 Q42.606 2.211 41.107 1.004 Q36.425 -2.917 31.458 -7.799 Q26.492 -12.681 22.363 -18.216 Q18.235 -23.751 15.659 -29.887 Q13.083 -36.023 13.083 -42.378 Q13.083 -55.843 22.649 -66.264 Q32.215 -76.687 47.291 -76.687 Q62.367 -76.687 71.981 -66.264 Q81.597 -55.843 81.597 -42.378 Q81.597 -36.023 78.972 -29.838 Q76.347 -23.652 72.267 -18.118 Q68.188 -12.583 63.222 -7.75 Q58.255 -2.917 53.573 1.004 Q52.071 2.211 50.556 2.753 Q49.04 3.296 47.328 3.296 Z"/></g><g id="Regular-S" transform="matrix(1 0 0 1 1405.73 696)"><path d="M42.532 -37.498 V-31.679 Q42.532 -29.677 43.95 -28.262 Q45.367 -26.847 47.363 -26.847 Q49.359 -26.847 50.769 -28.262 Q52.181 -29.677 52.181 -31.679 V-37.498 H57.969 Q59.964 -37.498 61.394 -38.908 Q62.824 -40.317 62.824 -42.31 Q62.824 -44.303 61.409 -45.721 Q59.994 -47.139 57.992 -47.139 H52.173 V-52.975 Q52.173 -54.98 50.757 -56.398 Q49.342 -57.815 47.34 -57.815 Q45.338 -57.815 43.923 -56.398 Q42.507 -54.98 42.507 -52.975 V-47.139 H36.689 Q34.686 -47.139 33.271 -45.721 Q31.856 -44.303 31.856 -42.331 Q31.856 -40.329 33.273 -38.914 Q34.691 -37.498 36.696 -37.498 H42.532 Z M47.34 3.037 Q45.663 3.037 44.184 2.494 Q42.705 1.952 41.225 0.768 Q36.59 -3.177 31.659 -8.059 Q26.727 -12.941 22.634 -18.464 Q18.541 -23.987 15.977 -30.052 Q13.413 -36.118 13.413 -42.331 Q13.413 -55.448 22.832 -65.902 Q32.25 -76.357 47.291 -76.357 Q62.331 -76.357 71.799 -65.902 Q81.267 -55.448 81.267 -42.331 Q81.267 -36.118 78.653 -30.003 Q76.04 -23.888 71.996 -18.365 Q67.953 -12.842 63.021 -8.009 Q58.09 -3.177 53.455 0.768 Q51.975 1.952 50.496 2.494 Q49.017 3.037 47.34 3.037 Z"/></g><g id="Light-S" transform="matrix(1 0 0 1 1109.75 696)"><path d="M43.518 -38.485 V-31.679 Q43.518 -30.097 44.653 -28.965 Q45.788 -27.833 47.365 -27.833 Q48.942 -27.833 50.068 -28.965 Q51.194 -30.097 51.194 -31.679 V-38.485 H57.969 Q59.545 -38.485 60.691 -39.611 Q61.838 -40.737 61.838 -42.311 Q61.838 -43.886 60.706 -45.02 Q59.574 -46.153 57.992 -46.153 H51.186 V-52.975 Q51.186 -54.56 50.054 -55.695 Q48.922 -56.829 47.339 -56.829 Q45.755 -56.829 44.625 -55.695 Q43.494 -54.56 43.494 -52.975 V-46.153 H36.689 Q35.106 -46.153 33.974 -45.018 Q32.842 -43.883 32.842 -42.33 Q32.842 -40.746 33.976 -39.616 Q35.111 -38.485 36.696 -38.485 H43.518 Z M47.34 1.519 Q45.891 1.519 44.64 1.072 Q43.387 0.624 42.06 -0.407 Q38.525 -3.329 33.896 -7.775 Q29.269 -12.22 25.063 -17.648 Q20.855 -23.076 18.026 -29.35 Q15.196 -35.624 15.196 -42.142 Q15.196 -54.121 23.931 -64.252 Q32.668 -74.384 47.291 -74.384 Q61.914 -74.384 70.699 -64.252 Q79.484 -54.121 79.484 -42.142 Q79.484 -35.624 76.605 -29.32 Q73.726 -23.015 69.588 -17.568 Q65.449 -12.121 60.821 -7.744 Q56.194 -3.366 52.658 -0.446 Q51.344 0.586 50.075 1.052 Q48.807 1.519 47.34 1.519 Z"/></g><g id="Thin-S" transform="matrix(1 0 0 1 814.015 696)"><path d="M44.505 -39.471 V-31.679 Q44.505 -30.516 45.356 -29.668 Q46.208 -28.819 47.366 -28.819 Q48.524 -28.819 49.366 -29.668 Q50.208 -30.516 50.208 -31.679 V-39.471 H57.969 Q59.126 -39.471 59.989 -40.314 Q60.852 -41.156 60.852 -42.313 Q60.852 -43.469 60.003 -44.317 Q59.155 -45.166 57.992 -45.166 H50.2 V-52.975 Q50.2 -54.141 49.351 -54.992 Q48.502 -55.843 47.337 -55.843 Q46.172 -55.843 45.326 -54.992 Q44.48 -54.141 44.48 -52.975 V-45.166 H36.689 Q35.525 -45.166 34.677 -44.315 Q33.828 -43.463 33.828 -42.328 Q33.828 -41.163 34.679 -40.317 Q35.53 -39.471 36.696 -39.471 H44.505 Z M47.34 0.002 Q46.119 0.002 45.094 -0.351 Q44.071 -0.703 42.894 -1.584 Q40.459 -3.481 36.134 -7.49 Q31.811 -11.499 27.49 -16.832 Q23.169 -22.166 20.074 -28.649 Q16.978 -35.131 16.978 -41.951 Q16.978 -52.793 25.032 -62.602 Q33.085 -72.412 47.291 -72.412 Q61.497 -72.412 69.599 -62.602 Q77.702 -52.793 77.702 -41.951 Q77.702 -35.131 74.557 -28.637 Q71.412 -22.143 67.178 -16.772 Q62.945 -11.4 58.621 -7.479 Q54.297 -3.557 51.862 -1.66 Q50.713 -0.779 49.655 -0.389 Q48.595 0.002 47.34 0.002 Z"/></g><g id="Ultralight-S" transform="matrix(1 0 0 1 517.792 696)"><path d="M45.096 -40.063 V-31.679 Q45.096 -30.767 45.778 -30.09 Q46.459 -29.411 47.367 -29.411 Q48.274 -29.411 48.945 -30.09 Q49.616 -30.767 49.616 -31.679 V-40.063 H57.969 Q58.874 -40.063 59.567 -40.735 Q60.26 -41.409 60.26 -42.313 Q60.26 -43.219 59.582 -43.896 Q58.904 -44.575 57.992 -44.575 H49.608 V-52.975 Q49.608 -53.89 48.929 -54.57 Q48.25 -55.251 47.336 -55.251 Q46.423 -55.251 45.747 -54.57 Q45.072 -53.89 45.072 -52.975 V-44.575 H36.689 Q35.776 -44.575 35.099 -43.893 Q34.42 -43.212 34.42 -42.327 Q34.42 -41.414 35.101 -40.738 Q35.781 -40.063 36.696 -40.063 H45.096 Z M47.34 -0.908 Q46.255 -0.908 45.367 -1.204 Q44.48 -1.5 43.395 -2.289 Q41.62 -3.571 37.477 -7.319 Q33.335 -11.067 28.946 -16.343 Q24.558 -21.62 21.303 -28.228 Q18.048 -34.835 18.048 -41.838 Q18.048 -51.996 25.692 -61.612 Q33.335 -71.228 47.291 -71.228 Q61.246 -71.228 68.939 -61.612 Q76.632 -51.996 76.632 -41.838 Q76.632 -34.835 73.328 -28.228 Q70.024 -21.62 65.734 -16.294 Q61.443 -10.968 57.301 -7.319 Q53.159 -3.67 51.384 -2.388 Q50.334 -1.599 49.402 -1.254 Q48.469 -0.908 47.34 -0.908 Z"/></g></g></svg>