<svg xmlns="http://www.w3.org/2000/svg" version="1.1" width="3300" height="2000"><g id="Notes"><style>
    text {
      font-family: monospace;
      text-anchor: middle;
    }
    text.emphasis {
      font-weight:bold;
    }
    text.lanchor {
      text-anchor: start;
    }
  </style><rect height="2200" id="artboard" fill="white" width="3300" x="0" y="0"/><line id="" style="fill:none;stroke:black;stroke-width:0.5;" x1="263" x2="3036" y1="292" y2="292"/><text class="lanchor emphasis" transform="matrix(1 0 0 1 263 322)">Weight/Scale Variations</text><text transform="matrix(1 0 0 1 559.711 322)">Ultralight</text><text transform="matrix(1 0 0 1 856.422 322)">Thin</text><text transform="matrix(1 0 0 1 1153.13 322)">Light</text><text transform="matrix(1 0 0 1 1449.84 322)">Regular</text><text transform="matrix(1 0 0 1 1746.56 322)">Medium</text><text transform="matrix(1 0 0 1 2043.27 322)">Semibold</text><text transform="matrix(1 0 0 1 2339.98 322)">Bold</text><text transform="matrix(1 0 0 1 2636.69 322)">Heavy</text><text transform="matrix(1 0 0 1 2933.4 322)">Black</text><text id="template-version" style="text-anchor: end;" transform="matrix(1 0 0 1 3036 1933)">Template v.1.0</text><text class="lanchor" transform="matrix(1 0 0 1 263 726)">Small</text><text class="lanchor" transform="matrix(1 0 0 1 263 1156)">Medium</text><text class="lanchor" transform="matrix(1 0 0 1 263 1586)">Large</text></g><g id="Guides"><g id="H-reference" style="fill:#27AAE1;stroke:none;" transform="matrix(1 0 0 1 339 696)"><path d="M 54.9316 0 L 57.666 0 L 30.5664 -70.459 L 28.0762 -70.459 L 0.976562 0 L 3.66211 0 L 12.9395 -24.4629 L 45.7031 -24.4629 Z M 29.1992 -67.0898 L 29.4434 -67.0898 L 44.8242 -26.709 L 13.8184 -26.709 Z"/></g><line id="Baseline-S" style="fill:none;stroke:#27AAE1;opacity:1;stroke-width:0.577;" x1="263" x2="3036" y1="696" y2="696"/><line id="Capline-S" style="fill:none;stroke:#27AAE1;opacity:1;stroke-width:0.577;" x1="263" x2="3036" y1="625.541" y2="625.541"/><g id="H-reference" style="fill:#27AAE1;stroke:none;" transform="matrix(1 0 0 1 339 1126)"><path d="M 54.9316 0 L 57.666 0 L 30.5664 -70.459 L 28.0762 -70.459 L 0.976562 0 L 3.66211 0 L 12.9395 -24.4629 L 45.7031 -24.4629 Z M 29.1992 -67.0898 L 29.4434 -67.0898 L 44.8242 -26.709 L 13.8184 -26.709 Z"/></g><line id="Baseline-M" style="fill:none;stroke:#27AAE1;opacity:1;stroke-width:0.577;" x1="263" x2="3036" y1="1126" y2="1126"/><line id="Capline-M" style="fill:none;stroke:#27AAE1;opacity:1;stroke-width:0.577;" x1="263" x2="3036" y1="1055.54" y2="1055.54"/><g id="H-reference" style="fill:#27AAE1;stroke:none;" transform="matrix(1 0 0 1 339 1556)"><path d="M 54.9316 0 L 57.666 0 L 30.5664 -70.459 L 28.0762 -70.459 L 0.976562 0 L 3.66211 0 L 12.9395 -24.4629 L 45.7031 -24.4629 Z M 29.1992 -67.0898 L 29.4434 -67.0898 L 44.8242 -26.709 L 13.8184 -26.709 Z"/></g><line id="Baseline-L" style="fill:none;stroke:#27AAE1;opacity:1;stroke-width:0.577;" x1="263" x2="3036" y1="1556" y2="1556"/><line id="Capline-L" style="fill:none;stroke:#27AAE1;opacity:1;stroke-width:0.577;" x1="263" x2="3036" y1="1485.54" y2="1485.54"/><rect height="119.336" id="left-margin" style="fill:darkred;stroke:none;opacity:0.4;" width="12.4512" x="1394.06" y="1030.79"/><rect height="119.336" id="right-margin" style="fill:darkgreen;stroke:none;opacity:0.4;" width="12.4512" x="1502.5112" y="1030.79"/><rect x="1406.5112" y="1045" width="96" height="96" fill="none" stroke="blue" stroke-dasharray="5"/><rect x="1394.06" y="1030.79" width="120.9024" height="119.336" fill="none" stroke="blue"/></g><g id="Symbols"><g id="Bold-L" transform="matrix(1 0 0 1 2266 1556)"><path d="M64.5 -57.805 V-97.472 H124.485 Q130.782 -97.472 135.213 -92.995 Q139.643 -88.517 139.643 -82.154 V-57.805 H64.5 Z M30.476 26.851 Q24.179 26.851 19.748 22.422 Q15.319 17.991 15.319 11.694 V-48.13 H54.825 V26.851 H30.476 Z M15.319 -57.805 V-82.154 Q15.319 -88.517 19.748 -92.995 Q24.179 -97.472 30.476 -97.472 H54.825 V-57.805 H15.319 Z M85.785 33.301  60.63 8.146  85.785 -17.009  94.17 -8.785  82.721 2.341 H100.235 Q106.586 2.341 110.779 -1.866 Q114.971 -6.071 114.971 -12.332 V-29.747 L103.845 -18.621 L95.621 -26.845 L120.776 -52 L146.093 -26.845 L137.708 -18.621 L126.581 -29.747 V-12.332 Q126.581 -1.179 118.936 6.387 Q111.29 13.951 100.297 13.951 H82.721 L94.17 25.078 L85.785 33.301 Z"/></g><g id="Semibold-L" transform="matrix(1 0 0 1 1970.27 1556)"><path d="M63.097 -59.208 V-95.65 H125.046 Q130.287 -95.65 134.054 -91.856 Q137.82 -88.064 137.82 -82.784 V-59.208 H63.097 Z M29.846 25.098 Q24.604 25.098 20.837 21.333 Q17.072 17.566 17.072 12.324 V-49.533 H53.422 V25.098 H29.846 Z M17.072 -59.208 V-82.784 Q17.072 -88.064 20.837 -91.856 Q24.604 -95.65 29.846 -95.65 H53.422 V-59.208 H17.072 Z M84.593 31.548  59.579 6.534  84.593 -18.481  92.348 -10.818  80.198 1.15 H98.65 Q105.183 1.15 109.482 -3.156 Q113.78 -7.461 113.78 -13.945 V-32.342 L101.812 -20.374 L94.149 -28.037 L119.164 -53.051 L144.27 -28.037 L136.516 -20.374 L124.548 -32.342 V-13.945 Q124.548 -3.012 117.001 4.452 Q109.456 11.918 98.685 11.918 H80.198 L92.348 23.886 L84.593 31.548 Z"/></g><g id="Medium-L" transform="matrix(1 0 0 1 1674.31 1556)"><path d="M62.046 -60.259 V-94.283 H125.467 Q129.918 -94.283 133.184 -91.003 Q136.453 -87.725 136.453 -83.258 V-60.259 H62.046 Z M29.372 23.784 Q24.921 23.784 21.654 20.516 Q18.386 17.249 18.386 12.798 V-50.584 H52.371 V23.784 H29.372 Z M18.386 -60.259 V-83.258 Q18.386 -87.725 21.654 -91.003 Q24.921 -94.283 29.372 -94.283 H52.371 V-60.259 H18.386 Z M83.7 30.234  58.79 5.324  83.7 -19.586  90.98 -12.344  78.305 0.256 H97.461 Q104.132 0.256 108.508 -4.125 Q112.886 -8.504 112.886 -15.154 V-34.287 L100.286 -21.688 L93.044 -28.93 L117.954 -53.84 L142.903 -28.93 L135.623 -21.688 L123.022 -34.287 V-15.154 Q123.022 -4.389 115.552 3.002 Q108.079 10.392 97.476 10.392 H78.305 L90.98 22.993 L83.7 30.234 Z"/></g><g id="Regular-L" transform="matrix(1 0 0 1 1378.56 1556)"><path d="M61.275 -61.03 V-93.28 H125.775 Q129.645 -93.28 132.548 -90.377 Q135.45 -87.475 135.45 -83.605 V-61.03 H61.275 Z M29.025 22.82 Q25.155 22.82 22.253 19.918 Q19.35 17.015 19.35 13.145 V-51.355 H51.6 V22.82 H29.025 Z M19.35 -61.03 V-83.605 Q19.35 -87.475 22.253 -90.377 Q25.155 -93.28 29.025 -93.28 H51.6 V-61.03 H19.35 Z M83.044 29.27  58.211 4.438  83.044 -20.395  89.978 -13.461  76.916 -0.4 H96.589 Q103.361 -0.4 107.796 -4.834 Q112.23 -9.269 112.23 -16.041 V-35.714 L99.169 -22.652 L92.235 -29.586 L117.068 -54.419 L141.9 -29.586 L134.966 -22.652 L121.905 -35.714 V-16.041 Q121.905 -5.399 114.487 1.938 Q107.07 9.275 96.589 9.275 H76.916 L89.978 22.336 L83.044 29.27 Z"/></g><g id="Light-L" transform="matrix(1 0 0 1 1082.77 1556)"><path d="M63.384 -62.27 V-90.055 H122.922 Q126.73 -90.055 129.477 -87.307 Q132.225 -84.56 132.225 -80.752 V-62.27 H63.384 Z M31.878 19.595 Q28.07 19.595 25.323 16.847 Q22.575 14.1 22.575 10.292 V-49.246 H50.36 V19.595 H31.878 Z M22.575 -62.27 V-80.752 Q22.575 -84.56 25.323 -87.307 Q28.07 -90.055 31.878 -90.055 H50.36 V-62.27 H22.575 Z M81.68 26.045  58.769 3.197  81.68 -19.65  86.938 -14.392  72.946 -0.461 H95.658 Q102.679 -0.461 107.423 -5.207 Q112.169 -9.951 112.169 -16.972 V-39.684 L98.238 -25.692 L92.98 -31.013 L115.827 -53.861 L138.675 -31.013 L133.415 -25.692 L119.486 -39.684 V-16.972 Q119.486 -6.95 112.503 -0.047 Q105.519 6.856 95.658 6.856 H72.946 L86.938 20.785 L81.68 26.045 Z"/></g><g id="Thin-L" transform="matrix(1 0 0 1 787.282 1556)"><path d="M65.492 -63.51 V-86.83 H120.07 Q123.816 -86.83 126.407 -84.237 Q129 -81.646 129 -77.9 V-63.51 H65.492 Z M34.73 16.37 Q30.984 16.37 28.393 13.777 Q25.8 11.186 25.8 7.44 V-47.138 H49.12 V16.37 H34.73 Z M25.8 -63.51 V-77.9 Q25.8 -81.646 28.393 -84.237 Q30.984 -86.83 34.73 -86.83 H49.12 V-63.51 H25.8 Z M80.315 22.82  59.327 1.957  80.315 -18.907  83.9 -15.322  68.978 -0.524 H94.728 Q101.997 -0.524 107.051 -5.579 Q112.106 -10.633 112.106 -17.902 V-43.652 L97.308 -28.73 L93.723 -32.439 L114.587 -53.303 L135.45 -32.439 L131.865 -28.73 L117.068 -43.652 V-17.902 Q117.068 -8.5 110.518 -2.032 Q103.969 4.438 94.728 4.438 H68.978 L83.9 19.235 L80.315 22.82 Z"/></g><g id="Ultralight-L" transform="matrix(1 0 0 1 491.205 1556)"><path d="M66.758 -64.255 V-84.895 H118.358 Q122.066 -84.895 124.566 -82.396 Q127.065 -79.896 127.065 -76.187 V-64.255 H66.758 Z M36.443 14.435 Q32.734 14.435 30.234 11.936 Q27.735 9.436 27.735 5.728 V-45.872 H48.375 V14.435 H36.443 Z M27.735 -64.255 V-76.187 Q27.735 -79.896 30.234 -82.396 Q32.734 -84.895 36.443 -84.895 H48.375 V-64.255 H27.735 Z M79.496 20.885  59.663 1.213  79.496 -18.46  82.076 -15.88  66.596 -0.561 H94.17 Q101.588 -0.561 106.828 -5.802 Q112.069 -11.042 112.069 -18.46 V-46.034 L96.75 -30.554 L94.17 -33.295 L113.843 -52.967 L133.515 -33.295 L130.935 -30.554 L115.616 -46.034 V-18.46 Q115.616 -9.43 109.328 -3.222 Q103.039 2.986 94.17 2.986 H66.596 L82.076 18.305 L79.496 20.885 Z"/></g><g id="Bold-M" transform="matrix(1 0 0 1 2281.8 1126)"><path d="M53.375 -51.855 V-84.48 H93.625 Q100.25 -84.48 104.812 -79.917 Q109.375 -75.355 109.375 -68.73 V-51.855 H53.375 Z M26.5 14.02 Q19.875 14.02 15.312 9.458 Q10.75 4.895 10.75 -1.73 V-41.855 H43.375 V14.02 H26.5 Z M10.75 -51.855 V-68.73 Q10.75 -75.355 15.312 -79.917 Q19.875 -84.48 26.5 -84.48 H43.375 V-51.855 H10.75 Z M67.875 19.02  47.5 -1.355  67.875 -21.73  76.25 -13.355  70.25 -7.355 H78.875 Q82.5 -7.355 85.188 -10.042 Q87.875 -12.73 87.875 -16.355 V-25.105 L81.875 -18.98 L73.5 -27.355 L93.875 -47.73 L114.25 -27.355 L105.875 -18.98 L99.875 -25.105 V-16.355 Q99.875 -7.605 93.75 -1.48 Q87.625 4.645 78.875 4.645 H70.25 L76.25 10.645 L67.875 19.02 Z"/></g><g id="Semibold-M" transform="matrix(1 0 0 1 1985.97 1126)"><path d="M51.907 -53.322 V-82.632 H94.222 Q99.761 -82.632 103.618 -78.776 Q107.472 -74.92 107.472 -69.382 V-53.322 H51.907 Z M25.848 12.173 Q20.31 12.173 16.454 8.316 Q12.598 4.46 12.598 -1.077 V-43.322 H41.907 V12.173 H25.848 Z M12.598 -53.322 V-69.382 Q12.598 -74.92 16.454 -78.776 Q20.31 -82.632 25.848 -82.632 H41.907 V-53.322 H12.598 Z M66.625 17.173  46.413 -3.04  66.625 -23.251  74.403 -15.475  67.641 -8.605 H77.19 Q81.032 -8.605 83.829 -11.401 Q86.625 -14.197 86.625 -18.04 V-27.767 L79.755 -20.827 L71.979 -28.605 L92.19 -48.817 L112.403 -28.605 L104.625 -20.827 L97.755 -27.767 V-18.04 Q97.755 -9.507 91.739 -3.491 Q85.722 2.525 77.19 2.525 H67.641 L74.403 9.395 L66.625 17.173 Z"/></g><g id="Medium-M" transform="matrix(1 0 0 1 1689.91 1126)"><path d="M50.807 -54.422 V-81.246 H94.671 Q99.394 -81.246 102.72 -77.92 Q106.046 -74.594 106.046 -69.871 V-54.422 H50.807 Z M25.359 10.786 Q20.636 10.786 17.31 7.46 Q13.984 4.134 13.984 -0.589 V-44.422 H40.807 V10.786 H25.359 Z M13.984 -54.422 V-69.871 Q13.984 -74.594 17.31 -77.92 Q20.636 -81.246 25.359 -81.246 H40.807 V-54.422 H13.984 Z M65.688 15.786  45.597 -4.304  65.688 -24.392  73.016 -17.064  65.685 -9.542 H75.926 Q79.933 -9.542 82.81 -12.42 Q85.688 -15.297 85.688 -19.304 V-29.765 L78.166 -22.214 L70.838 -29.542 L90.926 -49.632 L111.016 -29.542 L103.688 -22.214 L96.166 -29.765 V-19.304 Q96.166 -10.934 90.231 -4.999 Q84.296 0.936 75.926 0.936 H65.685 L73.016 8.458 L65.688 15.786 Z"/></g><g id="Regular-M" transform="matrix(1 0 0 1 1394.06 1126)"><path d="M50 -55.23 V-80.23 H95 Q99.125 -80.23 102.062 -77.292 Q105 -74.355 105 -70.23 V-55.23 H50 Z M25 9.77 Q20.875 9.77 17.938 6.833 Q15 3.895 15 -0.23 V-45.23 H40 V9.77 H25 Z M15 -55.23 V-70.23 Q15 -74.355 17.938 -77.292 Q20.875 -80.23 25 -80.23 H40 V-55.23 H15 Z M65 14.77  45 -5.23  65 -25.23  72 -18.23  64.25 -10.23 H75 Q79.125 -10.23 82.062 -13.167 Q85 -16.105 85 -20.23 V-31.23 L77 -23.23 L70 -30.23 L90 -50.23 L110 -30.23 L103 -23.23 L95 -31.23 V-20.23 Q95 -11.98 89.125 -6.105 Q83.25 -0.23 75 -0.23 H64.25 L72 7.77 L65 14.77 Z"/></g><g id="Light-M" transform="matrix(1 0 0 1 1098.18 1126)"><path d="M50.961 -56.191 V-77.73 H93.461 Q97.25 -77.73 99.875 -75.105 Q102.5 -72.48 102.5 -68.691 V-56.191 H50.961 Z M26.539 7.27 Q22.75 7.27 20.125 4.645 Q17.5 2.02 17.5 -1.769 V-44.269 H39.039 V7.27 H26.539 Z M17.5 -56.191 V-68.691 Q17.5 -72.48 20.125 -75.105 Q22.75 -77.73 26.539 -77.73 H39.039 V-56.191 H17.5 Z M63.75 12.27  45.481 -5.999  63.75 -24.269  69.019 -18.999  59.922 -9.749 H74.231 Q78.885 -9.749 82.183 -13.047 Q85.481 -16.345 85.481 -20.999 V-35.461 L76.231 -26.211 L70.961 -31.48 L89.231 -49.749 L107.5 -31.48 L102.231 -26.211 L92.98 -35.461 V-20.999 Q92.98 -13.23 87.49 -7.74 Q82 -2.25 74.231 -2.25 H59.922 L69.019 7.001 L63.75 12.27 Z"/></g><g id="Thin-M" transform="matrix(1 0 0 1 802.565 1126)"><path d="M51.922 -57.152 V-75.23 H91.922 Q95.375 -75.23 97.688 -72.917 Q100 -70.605 100 -67.152 V-57.152 H51.922 Z M28.078 4.77 Q24.625 4.77 22.312 2.458 Q20 0.145 20 -3.307 V-43.307 H38.078 V4.77 H28.078 Z M20 -57.152 V-67.152 Q20 -70.605 22.312 -72.917 Q24.625 -75.23 28.078 -75.23 H38.078 V-57.152 H20 Z M62.5 9.77  45.961 -6.769  62.5 -23.307  66.039 -19.769  55.596 -9.269 H73.461 Q78.644 -9.269 82.302 -12.927 Q85.961 -16.586 85.961 -21.769 V-39.691 L75.461 -29.191 L71.922 -32.73 L88.461 -49.269 L105 -32.73 L101.461 -29.191 L90.961 -39.691 V-21.769 Q90.961 -14.48 85.856 -9.374 Q80.75 -4.269 73.461 -4.269 H55.596 L66.039 6.231 L62.5 9.77 Z"/></g><g id="Ultralight-M" transform="matrix(1 0 0 1 506.415 1126)"><path d="M52.5 -57.73 V-73.73 H91 Q94.25 -73.73 96.375 -71.605 Q98.5 -69.48 98.5 -66.23 V-57.73 H52.5 Z M29 3.27 Q25.75 3.27 23.625 1.145 Q21.5 -0.98 21.5 -4.23 V-42.73 H37.5 V3.27 H29 Z M21.5 -57.73 V-66.23 Q21.5 -69.48 23.625 -71.605 Q25.75 -73.73 29 -73.73 H37.5 V-57.73 H21.5 Z M61.75 8.27  46.25 -7.23  61.75 -22.73  64.25 -20.23  53 -8.98 H73 Q78.5 -8.98 82.375 -12.855 Q86.25 -16.73 86.25 -22.23 V-42.23 L75 -30.98 L72.5 -33.48 L88 -48.98 L103.5 -33.48 L101 -30.98 L89.75 -42.23 V-22.23 Q89.75 -15.23 84.875 -10.355 Q80 -5.48 73 -5.48 H53 L64.25 5.77 L61.75 8.27 Z"/></g><g id="Bold-S" transform="matrix(1 0 0 1 2294.23 696)"><path d="M42.902 -46.769 V-71.721 H72.292 Q77.194 -71.721 80.562 -68.353 Q83.93 -64.985 83.93 -60.083 V-46.769 H42.902 Z M22.486 1.261 Q17.585 1.261 14.217 -2.107 Q10.849 -5.475 10.849 -10.376 V-39.668 H35.801 V1.261 H22.486 Z M10.849 -46.769 V-60.083 Q10.849 -64.985 14.217 -68.353 Q17.585 -71.721 22.486 -71.721 H35.801 V-46.769 H10.849 Z M54.342 5.995  39.845 -8.503  54.342 -23  60.457 -16.886  56.216 -12.842 H63.416 Q65.951 -12.842 67.839 -14.731 Q69.728 -16.619 69.728 -19.154 V-26.255 L65.684 -22.113 L59.57 -28.228 L74.067 -42.725 L88.565 -28.228 L82.451 -22.113 L78.407 -26.255 V-19.154 Q78.407 -12.842 74.067 -8.503 Q69.728 -4.163 63.416 -4.163 H56.216 L60.457 -0.119 L54.342 5.995 Z"/></g><g id="Semibold-S" transform="matrix(1 0 0 1 1998.1 696)"><path d="M41.744 -47.927 V-70.264 H72.764 Q76.808 -70.264 79.619 -67.453 Q82.429 -64.642 82.429 -60.598 V-47.927 H41.744 Z M21.972 -0.196 Q17.928 -0.196 15.117 -3.007 Q12.306 -5.818 12.306 -9.862 V-40.826 H34.643 V-0.196 H21.972 Z M12.306 -47.927 V-60.598 Q12.306 -64.642 15.117 -67.453 Q17.928 -70.264 21.972 -70.264 H34.643 V-47.927 H12.306 Z M53.356 4.538  38.986 -9.832  53.356 -24.201  58.999 -18.558  54.158 -13.828 H62.086 Q64.793 -13.828 66.767 -15.803 Q68.742 -17.777 68.742 -20.484 V-28.356 L64.012 -23.571 L58.369 -29.214 L72.738 -43.584 L87.108 -29.214 L81.464 -23.571 L76.734 -28.356 V-20.484 Q76.734 -14.343 72.48 -10.09 Q68.227 -5.836 62.086 -5.836 H54.158 L58.999 -1.106 L53.356 4.538 Z"/></g><g id="Medium-S" transform="matrix(1 0 0 1 1701.85 696)"><path d="M40.876 -48.795 V-69.17 H73.118 Q76.518 -69.17 78.911 -66.777 Q81.303 -64.385 81.303 -60.984 V-48.795 H40.876 Z M21.586 -1.29 Q18.185 -1.29 15.793 -3.683 Q13.4 -6.075 13.4 -9.476 V-41.694 H33.775 V-1.29 H21.586 Z M13.4 -48.795 V-60.984 Q13.4 -64.385 15.793 -66.777 Q18.185 -69.17 21.586 -69.17 H33.775 V-48.795 H13.4 Z M52.616 3.444  38.343 -10.829  52.616 -25.101  57.906 -19.812  52.614 -14.568 H61.089 Q63.925 -14.568 65.963 -16.607 Q68.002 -18.645 68.002 -21.481 V-29.932 L62.758 -24.664 L57.469 -29.954 L71.741 -44.227 L86.014 -29.954 L80.725 -24.664 L75.481 -29.932 V-21.481 Q75.481 -15.469 71.291 -11.279 Q67.101 -7.089 61.089 -7.089 H52.614 L57.906 -1.845 L52.616 3.444 Z"/></g><g id="Regular-S" transform="matrix(1 0 0 1 1405.73 696)"><path d="M40.239 -49.432 V-68.368 H73.377 Q76.306 -68.368 78.392 -66.282 Q80.478 -64.196 80.478 -61.267 V-49.432 H40.239 Z M21.303 -2.092 Q18.374 -2.092 16.288 -4.178 Q14.202 -6.264 14.202 -9.193 V-42.331 H33.138 V-2.092 H21.303 Z M14.202 -49.432 V-61.267 Q14.202 -64.196 16.288 -66.282 Q18.374 -68.368 21.303 -68.368 H33.138 V-49.432 H14.202 Z M52.074 2.642  37.872 -11.56  52.074 -25.762  57.104 -20.732  51.482 -15.11 H60.358 Q63.288 -15.11 65.374 -17.196 Q67.46 -19.282 67.46 -22.211 V-31.088 L61.838 -25.466 L56.808 -30.496 L71.01 -44.698 L85.212 -30.496 L80.182 -25.466 L74.561 -31.088 V-22.211 Q74.561 -16.294 70.418 -12.152 Q66.276 -8.009 60.358 -8.009 H51.482 L57.104 -2.388 L52.074 2.642 Z"/></g><g id="Light-S" transform="matrix(1 0 0 1 1109.75 696)"><path d="M40.997 -50.19 V-66.395 H72.163 Q74.827 -66.395 76.666 -64.556 Q78.505 -62.717 78.505 -60.053 V-50.19 H40.997 Z M22.517 -4.064 Q19.853 -4.064 18.014 -5.904 Q16.175 -7.743 16.175 -10.407 V-41.573 H32.38 V-4.064 H22.517 Z M16.175 -50.19 V-60.053 Q16.175 -62.717 18.014 -64.556 Q19.853 -66.395 22.517 -66.395 H32.38 V-50.19 H16.175 Z M51.088 0.67  38.252 -12.167  51.088 -25.004  54.752 -21.339  48.068 -14.731 H59.752 Q63.098 -14.731 65.468 -17.102 Q67.839 -19.472 67.839 -22.818 V-34.426 L61.231 -27.818 L57.566 -31.482 L70.403 -44.318 L83.24 -31.482 L79.576 -27.818 L72.967 -34.426 V-22.818 Q72.967 -17.28 69.128 -13.442 Q65.29 -9.603 59.752 -9.603 H48.068 L54.752 -2.994 L51.088 0.67 Z"/></g><g id="Thin-S" transform="matrix(1 0 0 1 814.015 696)"><path d="M41.756 -50.949 V-64.423 H70.949 Q73.347 -64.423 74.94 -62.83 Q76.533 -61.237 76.533 -58.839 V-50.949 H41.756 Z M23.731 -6.037 Q21.333 -6.037 19.74 -7.63 Q18.147 -9.223 18.147 -11.621 V-40.814 H31.621 V-6.037 H23.731 Z M18.147 -50.949 V-58.839 Q18.147 -61.237 19.74 -62.83 Q21.333 -64.423 23.731 -64.423 H31.621 V-50.949 H18.147 Z M50.102 -1.303  38.63 -12.774  50.102 -24.245  52.4 -21.946  44.654 -14.352 H59.144 Q62.908 -14.352 65.563 -17.007 Q68.218 -19.662 68.218 -23.426 V-37.764 L60.624 -30.17 L58.325 -32.468 L69.796 -43.94 L81.267 -32.468 L78.968 -30.17 L71.374 -37.764 V-23.426 Q71.374 -18.266 67.839 -14.731 Q64.303 -11.196 59.144 -11.196 H44.654 L52.4 -3.602 L50.102 -1.303 Z"/></g><g id="Ultralight-S" transform="matrix(1 0 0 1 517.792 696)"><path d="M42.212 -51.404 V-63.239 H70.221 Q72.46 -63.239 73.905 -61.795 Q75.35 -60.35 75.35 -58.111 V-51.404 H42.212 Z M24.459 -7.22 Q22.22 -7.22 20.775 -8.665 Q19.331 -10.11 19.331 -12.349 V-40.358 H31.166 V-7.22 H24.459 Z M19.331 -51.404 V-58.111 Q19.331 -60.35 20.775 -61.795 Q22.22 -63.239 24.459 -63.239 H31.166 V-51.404 H19.331 Z M49.51 -2.486  38.858 -13.138  49.51 -23.789  50.989 -22.31  42.606 -14.124 H58.781 Q62.795 -14.124 65.62 -16.95 Q68.446 -19.775 68.446 -23.789 V-39.767 L60.26 -31.581 L58.781 -33.06 L69.432 -43.712 L80.084 -33.06 L78.604 -31.581 L70.418 -39.767 V-23.789 Q70.418 -18.858 67.065 -15.505 Q63.712 -12.152 58.781 -12.152 H42.606 L50.989 -3.966 L49.51 -2.486 Z"/></g></g></svg>