<svg xmlns="http://www.w3.org/2000/svg" height="48" width="48"><path d="M30.4 25.5h6.7l-3.15-9.4h-.4ZM11 37.4q-.45 0-.875-.15t-.675-.55L4.9 32.15q-.55-.5-.55-1.325t.6-1.425q.5-.55 1.35-.525.85.025 1.45.525L9 30.6V11q0-.75.6-1.35.6-.6 1.45-.6.75 0 1.35.6.6.6.6 1.35v19.6l1.3-1.2q.6-.5 1.4-.525.8-.025 1.45.575.45.55.475 1.375.025.825-.525 1.375l-4.45 4.5q-.35.4-.775.55-.425.15-.875.15Zm15.4-4q-1.15 0-1.7-.75t-.15-1.85L31 13.7q.2-.8 1.075-1.4.875-.6 1.775-.6.85 0 1.75.6t1.1 1.4l6.35 16.9q.4 1.2-.175 2T41 33.4q-.55 0-1.075-.4-.525-.4-.675-.95L38 28.65h-8.6l-1.2 3.5q-.2.55-.725.9-.525.35-1.075.35Z"/></svg>