<svg xmlns="http://www.w3.org/2000/svg" height="24" width="24"><path d="M6.7 17.3Q6.525 17.3 6.363 17.225Q6.2 17.15 6.075 17.025L1.95 12.9Q1.725 12.675 1.725 12.362Q1.725 12.05 1.95 11.825Q2.15 11.6 2.463 11.6Q2.775 11.6 3 11.825L6.725 15.55L7.05 15.2L8.125 16.25L7.325 17.025Q7.2 17.15 7.037 17.225Q6.875 17.3 6.7 17.3ZM12.35 17.275Q12.175 17.275 12.013 17.212Q11.85 17.15 11.725 17.025L7.575 12.875Q7.35 12.65 7.35 12.337Q7.35 12.025 7.575 11.8Q7.8 11.6 8.1 11.6Q8.4 11.6 8.625 11.8L12.35 15.525L21.025 6.85Q21.25 6.65 21.55 6.65Q21.85 6.65 22.075 6.85Q22.3 7.075 22.3 7.387Q22.3 7.7 22.075 7.925L12.975 17.025Q12.85 17.15 12.688 17.212Q12.525 17.275 12.35 17.275ZM12 12.35 10.925 11.3 15.35 6.875Q15.575 6.65 15.887 6.65Q16.2 6.65 16.425 6.875Q16.65 7.1 16.65 7.4Q16.65 7.7 16.425 7.925Z"/></svg>