<svg xmlns="http://www.w3.org/2000/svg" height="40" viewBox="0 -960 960 960" width="40"><path d="M822.57-64.1 70.21-816.21l48.38-48.12 752.1 752.1-48.12 48.13ZM399.08-94.67q-9.34 0-15.5-6.6-6.17-6.61-6.17-15.41 0-8.81 6.36-15.27 6.35-6.46 15.5-6.46 8.88 0 15.38 6.6 6.5 6.61 6.5 15.41 0 8.81-6.5 15.27-6.5 6.46-15.57 6.46Zm163.48 0q-9.07 0-15.24-6.6-6.17-6.61-6.17-15.41 0-8.81 6.36-15.27 6.36-6.46 15.24-6.46 9.15 0 15.65 6.6 6.5 6.61 6.5 15.41 0 8.81-6.5 15.27-6.5 6.46-15.84 6.46ZM236.74-197.49q-16.21 0-27.9-11.75-11.69-11.74-11.69-28.15 0-16.41 11.71-28.1 11.72-11.69 28.07-11.69 15.87 0 27.89 11.75 12.03 11.75 12.03 28.16 0 16.4-11.96 28.09-11.95 11.69-28.15 11.69Zm162.3 0q-16.24 0-27.99-11.75-11.74-11.74-11.74-28.15 0-16.41 11.78-28.1 11.79-11.69 28.25-11.69 15.87 0 27.89 11.75 12.03 11.75 12.03 28.16 0 16.4-11.99 28.09-11.98 11.69-28.23 11.69Zm160.62 0q-16.2 0-27.89-11.75-11.69-11.74-11.69-28.15 0-16.41 11.74-28.1 11.74-11.69 28.14-11.69 15.91 0 27.99 11.75 12.08 11.75 12.08 28.16 0 16.4-12.03 28.09-12.03 11.69-28.34 11.69ZM400.74-343.28q-24.29 0-41.04-16.75t-16.75-40.92q0-24.16 16.75-40.91 16.75-16.75 40.58-16.75t40.92 16.78q17.08 16.79 17.08 40.75 0 24.3-17.17 41.05-17.18 16.75-40.37 16.75Zm-164-17.69q-16.21 0-27.9-11.83-11.69-11.82-11.69-28.34 0-16.4 11.71-28.09 11.72-11.69 28.07-11.69 15.87 0 27.89 11.77 12.03 11.78 12.03 28.24 0 16.45-11.96 28.19-11.95 11.75-28.15 11.75Zm498.13-.21-51.1-51.77q3.77-11.87 14.34-19.92 10.57-8.05 25.57-8.05 15.89 0 27.86 11.73 11.97 11.72 11.97 28.1 0 14.61-7.92 25.38-7.92 10.76-20.72 14.53Zm-619.13-17.9q-9.07 0-15.24-6.6-6.17-6.61-6.17-15.41 0-8.81 6.36-15.27 6.36-6.46 15.24-6.46 9.15 0 15.65 6.6 6.5 6.61 6.5 15.41 0 8.81-6.5 15.27-6.5 6.46-15.84 6.46Zm728.52 0q-9.34 0-15.5-6.6-6.17-6.61-6.17-15.41 0-8.81 6.36-15.27 6.35-6.46 15.5-6.46 8.88 0 15.38 6.6 6.5 6.61 6.5 15.41 0 8.81-6.5 15.27-6.5 6.46-15.57 6.46ZM587.51-508.67l-79.84-79.84q7.69-13.58 21.83-21.56 14.14-7.98 30.61-7.98 23.33 0 40.47 16.75t17.14 40.86q0 16.47-7.87 30.21-7.88 13.74-22.34 21.56Zm-350.77-11.74q-16.21 0-27.9-11.78-11.69-11.78-11.69-28.23 0-16.45 11.71-28.2 11.72-11.74 28.07-11.74 15.87 0 27.89 11.82 12.03 11.82 12.03 28.34 0 16.41-11.96 28.1-11.95 11.69-28.15 11.69Zm486.66 0q-16.2 0-27.89-11.78-11.69-11.78-11.69-28.23 0-16.45 11.71-28.2 11.71-11.74 28.07-11.74 15.87 0 27.89 11.82 12.02 11.82 12.02 28.34 0 16.41-11.95 28.1-11.95 11.69-28.16 11.69Zm-607.66-16.77q-9.07 0-15.24-6.6-6.17-6.61-6.17-15.41 0-8.81 6.36-15.27 6.36-6.46 15.24-6.46 9.15 0 15.65 6.6 6.5 6.61 6.5 15.41 0 8.81-6.5 15.27-6.5 6.46-15.84 6.46Zm728.52 0q-9.34 0-15.5-6.6-6.17-6.61-6.17-15.41 0-8.81 6.36-15.27 6.35-6.46 15.5-6.46 8.88 0 15.38 6.6 6.5 6.61 6.5 15.41 0 8.81-6.5 15.27-6.5 6.46-15.57 6.46Zm-284.6-146.97q-16.2 0-27.89-11.75-11.69-11.75-11.69-28.16t11.74-28.1q11.74-11.69 28.14-11.69 15.91 0 27.99 11.75 12.08 11.75 12.08 28.16T588-695.84q-12.03 11.69-28.34 11.69Zm-148.84-.95-50.97-50.98q3.64-11.79 14.08-19.78 10.44-7.99 25.77-7.99 15.51 0 27.53 11.73 12.03 11.73 12.03 28.11 0 14.59-8.45 24.93t-19.99 13.98Zm312.58.95q-16.2 0-27.89-11.75-11.69-11.75-11.69-28.16t11.71-28.1q11.71-11.69 28.07-11.69 15.87 0 27.89 11.75 12.02 11.75 12.02 28.16t-11.95 28.1q-11.95 11.69-28.16 11.69ZM399.08-822.92q-9.34 0-15.5-6.61-6.17-6.6-6.17-15.41 0-8.8 6.36-15.27 6.35-6.46 15.5-6.46 8.88 0 15.38 6.61 6.5 6.6 6.5 15.41 0 8.8-6.5 15.27-6.5 6.46-15.57 6.46Zm160.51 0q-9.08 0-15.24-6.61-6.17-6.6-6.17-15.41 0-8.8 6.36-15.27 6.35-6.46 15.24-6.46 9.14 0 15.64 6.61 6.5 6.6 6.5 15.41 0 8.8-6.5 15.27-6.5 6.46-15.83 6.46Z"/></svg>