<svg xmlns="http://www.w3.org/2000/svg" height="48" viewBox="0 -960 960 960" width="48"><path d="M431.69-860h290.62q23.98 0 40.83 17.08Q780-825.84 780-802.31V-307q0 9.66-6.57 16.18-6.56 6.51-16.31 6.51-9.74 0-16.12-6.51-6.39-6.52-6.39-16.18v-495.31q0-4.61-3.84-8.46-3.85-3.84-8.46-3.84H428.92l-84.54 84.53q-6.69 6.7-16.61 6.89-9.92.19-17-6.5-6.69-7.08-6.69-16.81 0-9.73 7.07-16.81l79.08-79.46q8-7.61 18.7-12.42t22.76-4.81Zm-194 760q-23.53 0-40.61-17.08T180-157.69v-446.16q0-11.89 4.52-22.91 4.51-11.02 13.1-18.55l21.3-20.69L78.85-806.08q-6.69-6.69-6.89-15.8-.19-9.12 6.89-16.59 7.07-6.3 16-6.3 8.92 0 16 6.69L853.54-95.39q6.69 6.7 6.88 16.16.19 9.47-6.49 16-7.62 6.92-16.57 6.92t-15.82-7.08L253.15-632.77 225.39-605v447.31q0 4.61 3.84 8.46 3.85 3.84 8.46 3.84h484.62q4.61 0 8.46-3.84 3.84-3.85 3.84-8.46v-56.23L780-168.54v10.85q0 23.53-17.08 40.61T722.31-100H237.69ZM535-506.23Zm-39.46 115.08Z"/></svg>