<svg xmlns="http://www.w3.org/2000/svg" height="40" viewBox="0 -960 960 960" width="40"><path d="M917.67-582.67q-69.59 0-132.88-26.43-63.29-26.43-111.44-75.47-49.4-48.13-75.38-111.33Q572-859.1 572-928.67h50q0 59.34 22.84 113.66 22.85 54.32 64.17 95.83t95.18 63.68q53.86 22.17 113.48 22.17v50.66Zm0-207q-27.67 0-53.66-10.99-25.98-11-44.64-30.02-18.4-19.28-30.05-44.75-11.65-25.46-11.65-53.24H830q0 17 6.5 33.46 6.51 16.46 18.5 29.21 12.75 12.72 29.17 19.36 16.42 6.64 33.5 6.64v50.33ZM393.75-513q-51.63 0-86.02-34.51-34.4-34.5-34.4-86.27 0-51.77 34.51-86.16 34.51-34.39 85.94-34.39 51.44 0 86.16 34.31 34.73 34.31 34.73 86.27 0 51.97-34.65 86.36Q445.38-513 393.75-513ZM113-201v-58.19q0-29.48 14.83-48.81 14.84-19.33 41.34-32.51 50.16-23.16 111.09-37.82Q341.18-393 393.76-393q52.57 0 113.41 14.67 60.83 14.66 111.24 37.82 26.26 13.18 41.09 32.45 14.83 19.28 14.83 48.73V-201H113Zm41.33-41.33H633v-17.14q0-16.65-10.18-26.23-10.19-9.58-24.49-17.97Q558.28-324 501-337.83q-57.28-13.84-107.33-13.84-50.06 0-107.34 13.84Q229.05-324 189-303.67q-14.3 7.72-24.48 18.03-10.19 10.3-10.19 26.31v17Zm239.67-312q33.33 0 56.33-22.73 23-22.72 23-56.61 0-33.33-23-56.33t-56.66-23q-33.67 0-56.34 23-22.66 23-22.66 56.67 0 33.66 22.72 56.33 22.73 22.67 56.61 22.67Zm0-79.34Zm0 391.34Z"/></svg>