<svg xmlns="http://www.w3.org/2000/svg" height="20" viewBox="0 96 960 960" width="20"><path d="M387.385 662.769h143.384q12.685 0 21.266-8.581 8.58-8.58 8.58-21.265v-37.385l83.693 46.308V480.615l-83.693 47.308v-38.385q0-12.684-8.597-21.265-8.597-8.581-21.305-8.581H387.101q-12.709 0-21.136 8.597t-8.427 21.306v143.612q0 12.708 8.581 21.135 8.581 8.427 21.266 8.427ZM480 943.385v-98.462q-63.714 0-119.088-23.269-55.374-23.269-96.566-62.961-41.192-39.693-65.077-94.044-23.885-54.352-23.885-115.332 0-60.834 23.885-113.964 23.885-53.13 64.982-92.77 41.098-39.639 96.601-62.804 55.503-23.164 119.056-23.164 63.554 0 118.477 23.175t96.384 62.833q41.462 39.659 65.154 92.671 23.693 53.013 23.693 113.714 0 124.684-84.231 234.607T480 943.385Z"/></svg>