<svg xmlns="http://www.w3.org/2000/svg" version="1.1" width="3300" height="2000"><g id="Notes"><style>
    text {
      font-family: monospace;
      text-anchor: middle;
    }
    text.emphasis {
      font-weight:bold;
    }
    text.lanchor {
      text-anchor: start;
    }
  </style><rect height="2200" id="artboard" fill="white" width="3300" x="0" y="0"/><line id="" style="fill:none;stroke:black;stroke-width:0.5;" x1="263" x2="3036" y1="292" y2="292"/><text class="lanchor emphasis" transform="matrix(1 0 0 1 263 322)">Weight/Scale Variations</text><text transform="matrix(1 0 0 1 559.711 322)">Ultralight</text><text transform="matrix(1 0 0 1 856.422 322)">Thin</text><text transform="matrix(1 0 0 1 1153.13 322)">Light</text><text transform="matrix(1 0 0 1 1449.84 322)">Regular</text><text transform="matrix(1 0 0 1 1746.56 322)">Medium</text><text transform="matrix(1 0 0 1 2043.27 322)">Semibold</text><text transform="matrix(1 0 0 1 2339.98 322)">Bold</text><text transform="matrix(1 0 0 1 2636.69 322)">Heavy</text><text transform="matrix(1 0 0 1 2933.4 322)">Black</text><text id="template-version" style="text-anchor: end;" transform="matrix(1 0 0 1 3036 1933)">Template v.1.0</text><text class="lanchor" transform="matrix(1 0 0 1 263 726)">Small</text><text class="lanchor" transform="matrix(1 0 0 1 263 1156)">Medium</text><text class="lanchor" transform="matrix(1 0 0 1 263 1586)">Large</text></g><g id="Guides"><g id="H-reference" style="fill:#27AAE1;stroke:none;" transform="matrix(1 0 0 1 339 696)"><path d="M 54.9316 0 L 57.666 0 L 30.5664 -70.459 L 28.0762 -70.459 L 0.976562 0 L 3.66211 0 L 12.9395 -24.4629 L 45.7031 -24.4629 Z M 29.1992 -67.0898 L 29.4434 -67.0898 L 44.8242 -26.709 L 13.8184 -26.709 Z"/></g><line id="Baseline-S" style="fill:none;stroke:#27AAE1;opacity:1;stroke-width:0.577;" x1="263" x2="3036" y1="696" y2="696"/><line id="Capline-S" style="fill:none;stroke:#27AAE1;opacity:1;stroke-width:0.577;" x1="263" x2="3036" y1="625.541" y2="625.541"/><g id="H-reference" style="fill:#27AAE1;stroke:none;" transform="matrix(1 0 0 1 339 1126)"><path d="M 54.9316 0 L 57.666 0 L 30.5664 -70.459 L 28.0762 -70.459 L 0.976562 0 L 3.66211 0 L 12.9395 -24.4629 L 45.7031 -24.4629 Z M 29.1992 -67.0898 L 29.4434 -67.0898 L 44.8242 -26.709 L 13.8184 -26.709 Z"/></g><line id="Baseline-M" style="fill:none;stroke:#27AAE1;opacity:1;stroke-width:0.577;" x1="263" x2="3036" y1="1126" y2="1126"/><line id="Capline-M" style="fill:none;stroke:#27AAE1;opacity:1;stroke-width:0.577;" x1="263" x2="3036" y1="1055.54" y2="1055.54"/><g id="H-reference" style="fill:#27AAE1;stroke:none;" transform="matrix(1 0 0 1 339 1556)"><path d="M 54.9316 0 L 57.666 0 L 30.5664 -70.459 L 28.0762 -70.459 L 0.976562 0 L 3.66211 0 L 12.9395 -24.4629 L 45.7031 -24.4629 Z M 29.1992 -67.0898 L 29.4434 -67.0898 L 44.8242 -26.709 L 13.8184 -26.709 Z"/></g><line id="Baseline-L" style="fill:none;stroke:#27AAE1;opacity:1;stroke-width:0.577;" x1="263" x2="3036" y1="1556" y2="1556"/><line id="Capline-L" style="fill:none;stroke:#27AAE1;opacity:1;stroke-width:0.577;" x1="263" x2="3036" y1="1485.54" y2="1485.54"/><rect height="119.336" id="left-margin" style="fill:darkred;stroke:none;opacity:0.4;" width="12.4512" x="1394.06" y="1030.79"/><rect height="119.336" id="right-margin" style="fill:darkgreen;stroke:none;opacity:0.4;" width="12.4512" x="1502.5112" y="1030.79"/><rect x="1406.5112" y="1045" width="96" height="96" fill="none" stroke="blue" stroke-dasharray="5"/><rect x="1394.06" y="1030.79" width="120.9024" height="119.336" fill="none" stroke="blue"/></g><g id="Symbols"><g id="Bold-L" transform="matrix(1 0 0 1 2266 1556)"><path d="M68.82585375000001 -76.83249999999998 Q63.21 -76.83249999999998 59.299687500000005 -80.64928749999999 Q55.389375 -84.46623625 55.389375 -90.129175 Q55.389375 -95.79227499999999 59.246958750000005 -99.77676249999999 Q63.10438125 -103.76124999999999 68.72039625000001 -103.76124999999999 Q74.33625 -103.76124999999999 78.2465625 -99.75725125 Q82.156875 -95.75341374999999 82.156875 -90.15481374999999 Q82.156875 -84.491875 78.29929125 -80.66218749999999 Q74.44186875 -76.83249999999998 68.82585375000001 -76.83249999999998 Z M72.25660875 32.01125000000002 Q69.63549 32.01125000000002 67.7530575 30.083022500000016 Q65.870625 28.154633750000016 65.870625 25.400000000000016 V3.228125000000013 H57.405 Q54.10340625 3.228125000000013 52.00522125 1.129940000000012 Q49.906875 -0.9684062499999797 49.906875 -4.108749999999986 V-49.78136124999999 Q49.906875 -58.44999999999999 54.9162675 -63.20687499999998 Q59.92566 -67.96374999999999 68.55963 -67.96374999999999 Q77.12652 -67.96374999999999 81.8991975 -62.40062499999999 Q86.671875 -56.83749999999999 86.671875 -49.761043749999985 Q95.29875 -48.77499999999999 100.1765625 -42.74650749999999 Q105.05437500000001 -36.718176249999985 105.05437500000001 -27.65124999999999 V-4.108749999999986 Q105.05437500000001 -0.9684062499999797 102.86540624999999 1.129940000000012 Q100.6764375 3.228125000000013 97.55625 3.228125000000013 H78.85125000000001 V25.400000000000016 Q78.85125000000001 28.154633750000016 76.86448874999999 30.083022500000016 Q74.8777275 32.01125000000002 72.25660875 32.01125000000002 Z"/></g><g id="Semibold-L" transform="matrix(1 0 0 1 1970.27 1556)"><path d="M68.80860000000001 -76.48194249999999 Q63.5605575 -76.48194249999999 59.86051500000001 -80.12361249999998 Q56.1604725 -83.76512124999999 56.1604725 -89.03976999999998 Q56.1604725 -94.31441874999999 59.82504 -98.05638624999997 Q63.4896075 -101.79835374999999 68.73765 -101.79835374999999 Q73.9856925 -101.79835374999999 77.685735 -98.051065 Q81.3857775 -94.30361499999998 81.3857775 -89.06540874999999 Q81.3857775 -83.79075999999999 77.72121 -80.13635124999999 Q74.05664250000001 -76.48194249999999 68.80860000000001 -76.48194249999999 Z M72.2648325 30.539037500000017 Q69.75707249999999 30.539037500000017 67.95413625 28.713042500000014 Q66.15103875 26.887047500000016 66.15103875 24.278345000000016 V1.755912500000015 H57.05444250000001 Q54.31367625 1.755912500000015 52.56604875 0.008123750000017083 Q50.81826 -1.7395037499999901 50.81826 -4.38916374999998 V-50.06177499999998 Q50.81826 -58.36824625 55.585938750000004 -62.99079999999998 Q60.3536175 -67.6131925 68.64219 -67.6131925 Q76.89286875 -67.6131925 81.3967425 -62.18454999999999 Q85.90077749999999 -56.75574625 85.90077749999999 -50.04145749999999 Q94.387365 -49.055413749999985 99.23018625 -43.18123749999998 Q104.07284625 -37.306899999999985 104.07284625 -28.422347499999987 V-4.38916374999998 Q104.07284625 -1.7395037499999901 102.27394125 0.008123750000017083 Q100.47487500000001 1.755912500000015 97.83666375000001 1.755912500000015 H78.5006925 V24.278345000000016 Q78.5006925 26.887047500000016 76.63664250000001 28.713042500000014 Q74.7725925 30.539037500000017 72.2648325 30.539037500000017 Z"/></g><g id="Medium-L" transform="matrix(1 0 0 1 1674.31 1556)"><path d="M68.79553875 -76.21910499999998 Q63.823395 -76.21910499999998 60.28121625 -79.72919499999999 Q56.7390375 -83.23928499999998 56.7390375 -88.22255499999997 Q56.7390375 -93.20598625 60.2588025 -96.76590250000001 Q63.77872875 -100.32597999999999 68.75071125 -100.32597999999999 Q73.72285500000001 -100.32597999999999 77.26503375 -96.77106249999997 Q80.8072125 -93.21630625 80.8072125 -88.248355 Q80.8072125 -83.26492374999998 77.2874475 -79.74209499999998 Q73.76752125 -76.21910499999998 68.79553875 -76.21910499999998 Z M72.27096 29.434797500000016 Q69.84834000000001 29.434797500000016 68.104905 27.685396250000018 Q66.36130875 25.935995000000016 66.36130875 23.436942500000015 V0.6516725000000108 H56.791605000000004 Q54.47154 0.6516725000000108 52.98658875 -0.8331174999999789 Q51.501798750000006 -2.3180687499999806 51.501798750000006 -4.599433749999989 V-50.27220624999998 Q51.501798750000006 -58.306809999999984 56.088232500000004 -62.82858249999998 Q60.674505 -67.350355 68.70411 -67.350355 Q76.71759 -67.350355 81.01990125 -62.02233249999999 Q85.3222125 -56.69430999999999 85.3222125 -50.25188874999999 Q93.70382625 -49.265683749999994 98.5202025 -43.50728499999998 Q103.33673999999999 -37.74872499999999 103.33673999999999 -29.000912499999984 V-4.599433749999989 Q103.33673999999999 -2.3180687499999806 101.83018125 -0.8331174999999789 Q100.32362250000001 0.6516725000000108 98.04693375000001 0.6516725000000108 H78.23785500000001 V23.436942500000015 Q78.23785500000001 25.935995000000016 76.46571750000001 27.685396250000018 Q74.69374125 29.434797500000016 72.27096 29.434797500000016 Z"/></g><g id="Regular-L" transform="matrix(1 0 0 1 1378.56 1556)"><path d="M68.786025 -76.02624999999999 Q64.01625 -76.02624999999999 60.589687500000004 -79.43991249999998 Q57.163125 -82.85373624999998 57.163125 -87.62334999999999 Q57.163125 -92.393125 60.5767875 -95.81968749999999 Q63.99061125 -99.24624999999997 68.760225 -99.24624999999997 Q73.53 -99.24624999999997 76.9565625 -95.83258749999999 Q80.383125 -92.41876374999998 80.383125 -87.64914999999999 Q80.383125 -82.87937499999998 76.9694625 -79.4528125 Q73.55563875 -76.02624999999999 68.786025 -76.02624999999999 Z M72.27563625 28.625000000000014 Q69.91525875 28.625000000000014 68.21552249999999 26.931875000000016 Q66.515625 25.238750000000014 66.515625 22.820000000000014 V-0.15812499999998408 H56.59875 Q54.58715625 -0.15812499999998408 53.29522125 -1.4502212499999843 Q52.003125000000004 -2.7421562499999794 52.003125000000004 -4.753749999999982 V-50.426361249999985 Q52.003125000000004 -58.26182124999998 56.4565275 -62.70974124999999 Q60.909768750000005 -67.15749999999998 68.74942125 -67.15749999999998 Q76.58907375 -67.15749999999998 80.74351875 -61.90349124999999 Q84.89812500000001 -56.649321249999986 84.89812500000001 -50.406043749999995 Q93.2025 -49.41999999999999 97.99968750000001 -43.746257499999984 Q102.796875 -38.07267624999999 102.796875 -29.424999999999983 V-4.753749999999982 Q102.796875 -2.7421562499999794 101.50477875 -1.4502212499999843 Q100.21284375 -0.15812499999998408 98.20125 -0.15812499999998408 H78.045 V22.820000000000014 Q78.045 25.238750000000014 76.34042625 26.931875000000016 Q74.6358525 28.625000000000014 72.27563625 28.625000000000014 Z"/></g><g id="Light-L" transform="matrix(1 0 0 1 1082.77 1556)"><path d="M69.37797375 -76.21233249999999 Q64.85362125 -76.21233249999999 61.61314125 -79.43717124999999 Q58.37266125 -82.66217124999999 58.37266125 -87.18652374999999 Q58.37266125 -91.71087624999998 61.597500000000004 -94.95135625 Q64.82233875 -98.19183625 69.34669125 -98.19183625 Q73.871205 -98.19183625 77.111685 -94.96699749999999 Q80.352165 -91.7419975 80.352165 -87.21764499999998 Q80.352165 -82.69329249999998 77.127165 -79.4528125 Q73.90232625 -76.21233249999999 69.37797375 -76.21233249999999 Z M72.7298775 27.260502500000015 Q70.87663125 27.260502500000015 69.58002 25.952442500000014 Q68.2832475 24.644382500000013 68.2832475 22.789040000000018 V-4.096656249999988 H59.57590875 Q57.5814075 -4.096656249999988 56.327366250000004 -5.350697499999988 Q55.073325000000004 -6.6047387499999815 55.073325000000004 -8.599239999999988 V-51.66685749999998 Q55.073325000000004 -58.230861249999975 58.92187875 -62.0739325 Q62.770593749999996 -65.91700374999999 69.33862875 -65.91700374999999 Q75.906825 -65.91700374999999 79.51866375 -61.484725 Q83.1305025 -57.05244624999999 83.1305025 -51.64653999999999 Q90.75262875 -50.722577499999986 95.23957125000001 -45.29683749999998 Q99.72667500000001 -39.871258749999996 99.72667500000001 -31.967912499999983 V-8.599239999999988 Q99.72667500000001 -6.6047387499999815 98.47263375 -5.350697499999988 Q97.2185925 -4.096656249999988 95.22409125000001 -4.096656249999988 H77.17666875 V22.789040000000018 Q77.17666875 24.644382500000013 75.864255 25.952442500000014 Q74.55184125 27.260502500000015 72.7298775 27.260502500000015 Z"/></g><g id="Thin-L" transform="matrix(1 0 0 1 787.282 1556)"><path d="M69.96976125 -76.39841499999999 Q65.69083125 -76.39841499999999 62.636272500000004 -79.43442999999998 Q59.581875000000004 -82.47060624999999 59.581875000000004 -86.74969749999997 Q59.581875000000004 -91.02878874999999 62.61805125 -94.08318624999998 Q65.65406625 -97.13758374999998 69.93315750000001 -97.13758374999998 Q74.21224875 -97.13758374999998 77.26664625000001 -94.1014075 Q80.32104375 -91.06539249999997 80.32104375 -86.78630125000001 Q80.32104375 -82.50720999999999 77.28502875 -79.4528125 Q74.24885250000001 -76.39841499999999 69.96976125 -76.39841499999999 Z M73.1839575 25.896166250000014 Q71.8378425 25.896166250000014 70.94435625 24.973171250000014 Q70.05070875 24.050015000000016 70.05070875 22.757918750000016 V-8.034542499999986 H62.552583750000004 Q60.575013750000004 -8.034542499999986 59.3590275 -9.250528749999987 Q58.14304125 -10.466676249999985 58.14304125 -12.444084999999987 V-52.90719249999998 Q58.14304125 -58.19990124999998 61.38690750000001 -61.43828499999999 Q64.63093500000001 -64.67666874999999 69.92783625 -64.67666874999999 Q75.22457625 -64.67666874999999 78.29380875 -61.06612 Q81.36304125 -57.45557124999998 81.36304125 -52.88687499999999 Q88.30308 -52.02483249999999 92.47993875 -46.84725624999999 Q96.65695875 -41.669679999999985 96.65695875 -34.51050249999999 V-12.444084999999987 Q96.65695875 -10.466676249999985 95.4409725 -9.250528749999987 Q94.22498625 -8.034542499999986 92.24741625 -8.034542499999986 H76.30849875 V22.757918750000016 Q76.30849875 24.050015000000016 75.388245 24.973171250000014 Q74.46799125 25.896166250000014 73.1839575 25.896166250000014 Z"/></g><g id="Ultralight-L" transform="matrix(1 0 0 1 491.205 1556)"><path d="M70.324995 -76.50999999999999 Q66.193125 -76.50999999999999 63.2503125 -79.43281749999998 Q60.307500000000005 -82.35563499999998 60.307500000000005 -86.48750499999997 Q60.307500000000005 -90.61937499999999 63.2303175 -93.5621875 Q66.153135 -96.505 70.285005 -96.505 Q74.416875 -96.505 77.3596875 -93.58218249999999 Q80.30250000000001 -90.65936500000001 80.30250000000001 -86.52749499999999 Q80.30250000000001 -82.39562499999998 77.3796825 -79.4528125 Q74.456865 -76.50999999999999 70.324995 -76.50999999999999 Z M73.45647 25.077500000000015 Q72.41463375000001 25.077500000000015 71.76302249999999 24.385415000000016 Q71.11125 23.693491250000015 71.11125 22.739375000000017 V-10.397499999999987 H64.33875 Q62.371500000000005 -10.397499999999987 61.17825 -11.590749999999979 Q59.985 -12.783999999999985 59.985 -14.751249999999985 V-53.65136124999998 Q59.985 -58.181196249999985 62.866215000000004 -61.05692875 Q65.74726875 -63.93249999999999 70.28129625 -63.93249999999999 Q74.81532375 -63.93249999999999 77.55883125000001 -60.81505374999999 Q80.30250000000001 -57.697446249999985 80.30250000000001 -53.63104374999999 Q86.833125 -52.80624999999999 90.8240625 -47.777507499999984 Q94.815 -42.74892624999998 94.815 -36.03624999999998 V-14.751249999999985 Q94.815 -12.783999999999985 93.62175 -11.590749999999979 Q92.42850000000001 -10.397499999999987 90.46125 -10.397499999999987 H75.78750000000001 V22.739375000000017 Q75.78750000000001 23.693491250000015 75.10251000000001 24.385415000000016 Q74.41768125 25.077500000000015 73.45647 25.077500000000015 Z"/></g><g id="Bold-M" transform="matrix(1 0 0 1 2281.8 1126)"><path d="M55.125 -65.72999999999999 Q50.1875 -65.72999999999999 46.84375 -69.07374999999999 Q43.5 -72.41749999999999 43.5 -77.35499999999999 Q43.5 -82.29249999999999 46.84375 -85.69874999999999 Q50.1875 -89.10499999999999 55.125 -89.10499999999999 Q60.0625 -89.10499999999999 63.40625 -85.67374999999998 Q66.75 -82.24249999999999 66.75 -77.35499999999999 Q66.75 -72.41749999999999 63.40625 -69.07374999999999 Q60.0625 -65.72999999999999 55.125 -65.72999999999999 Z M57.558875 17.27000000000001 Q54.25 17.27000000000001 51.9375 14.91850000000001 Q49.625 12.56687500000001 49.625 9.20750000000001 V-7.35499999999999 H46.0 Q42.909375 -7.35499999999999 40.70475 -9.559749999999987 Q38.5 -11.764374999999987 38.5 -14.85499999999999 V-44.60499999999999 Q38.5 -51.396624999999986 43.273875 -55.93837499999999 Q48.04775 -60.47999999999999 54.867625 -60.47999999999999 Q61.6875 -60.47999999999999 66.53125 -55.93837499999999 Q71.375 -51.396624999999986 71.375 -44.60499999999999 Q76.3125 -42.72999999999999 78.96875 -38.29074999999999 Q81.625 -33.85137499999999 81.625 -28.60499999999999 V-14.85499999999999 Q81.625 -11.764374999999987 79.42025 -9.559749999999987 Q77.215625 -7.35499999999999 74.125 -7.35499999999999 H65.5 V9.20750000000001 Q65.5 12.56687500000001 63.183875 14.91850000000001 Q60.867625 17.27000000000001 57.558875 17.27000000000001 Z"/></g><g id="Semibold-M" transform="matrix(1 0 0 1 1985.97 1126)"><path d="M55.125 -65.40387499999999 Q50.567875 -65.40387499999999 47.4415 -68.53025 Q44.315125 -71.65662499999999 44.315125 -76.21374999999999 Q44.315125 -80.77087499999999 47.4415 -83.93249999999999 Q50.567875 -87.09424999999999 55.125 -87.09424999999999 Q59.682125 -87.09424999999999 62.8085 -83.91837499999998 Q65.934875 -80.74262499999999 65.934875 -76.21374999999999 Q65.934875 -71.65662499999999 62.8085 -68.53025 Q59.682125 -65.40387499999999 55.125 -65.40387499999999 Z M57.558875 15.74837500000001 Q54.385875 15.74837500000001 52.1685 13.50775000000001 Q49.951125 11.26712500000001 49.951125 8.06625000000001 V-8.87662499999999 H45.673875 Q43.072375 -8.87662499999999 41.248125 -10.70087499999999 Q39.423875 -12.525249999999993 39.423875 -15.126749999999987 V-44.87674999999999 Q39.423875 -51.34237499999999 43.96275 -55.74812499999999 Q48.50175 -60.153874999999985 54.985875 -60.153874999999985 Q61.470125 -60.153874999999985 66.042125 -55.74812499999999 Q70.614125 -51.34237499999999 70.614125 -44.87674999999999 Q75.33425 -43.00174999999999 77.9905 -38.73324999999999 Q80.64675 -34.46474999999999 80.64675 -29.42012499999999 V-15.126749999999987 Q80.64675 -12.525249999999993 78.8225 -10.70087499999999 Q76.99825 -8.87662499999999 74.39675 -8.87662499999999 H65.173875 V8.06625000000001 Q65.173875 11.26712500000001 62.952875 13.50775000000001 Q60.73175 15.74837500000001 57.558875 15.74837500000001 Z"/></g><g id="Medium-M" transform="matrix(1 0 0 1 1689.91 1126)"><path d="M55.125 -65.15937499999998 Q50.85325 -65.15937499999998 47.89 -68.12262499999999 Q44.926625 -71.08599999999998 44.926625 -75.35775 Q44.926625 -79.6295 47.89 -82.60775 Q50.85325 -85.58599999999998 55.125 -85.58599999999998 Q59.39675 -85.58599999999998 62.36 -82.60175 Q65.323375 -79.61749999999999 65.323375 -75.35775 Q65.323375 -71.08599999999998 62.36 -68.12262499999999 Q59.39675 -65.15937499999998 55.125 -65.15937499999998 Z M57.558875 14.60700000000001 Q54.48775 14.60700000000001 52.34175 12.44962500000001 Q50.195625 10.29225000000001 50.195625 7.210250000000009 V-10.017999999999986 H45.429375 Q43.19475 -10.017999999999986 41.65575 -11.556999999999988 Q40.116875 -13.095874999999992 40.116875 -15.330499999999986 V-45.08049999999999 Q40.116875 -51.30149999999999 44.4795 -55.60549999999999 Q48.84225 -59.90937499999998 55.074625 -59.90937499999998 Q61.307125 -59.90937499999998 65.67525 -55.60549999999999 Q70.0435 -51.30149999999999 70.0435 -45.08049999999999 Q74.6005 -43.20549999999999 77.25675 -39.06512499999999 Q79.913 -34.92474999999999 79.913 -30.03162499999999 V-15.330499999999986 Q79.913 -13.095874999999992 78.374125 -11.556999999999988 Q76.83525 -10.017999999999986 74.6005 -10.017999999999986 H64.929375 V7.210250000000009 Q64.929375 10.29225000000001 62.779625 12.44962500000001 Q60.629875 14.60700000000001 57.558875 14.60700000000001 Z"/></g><g id="Regular-M" transform="matrix(1 0 0 1 1394.06 1126)"><path d="M55.125 -64.97999999999999 Q51.0625 -64.97999999999999 48.21875 -67.82374999999999 Q45.375 -70.66749999999999 45.375 -74.72999999999999 Q45.375 -78.79249999999999 48.21875 -81.63624999999999 Q51.0625 -84.47999999999999 55.125 -84.47999999999999 Q59.1875 -84.47999999999999 62.03125 -81.63624999999999 Q64.875 -78.79249999999999 64.875 -74.72999999999999 Q64.875 -70.66749999999999 62.03125 -67.82374999999999 Q59.1875 -64.97999999999999 55.125 -64.97999999999999 Z M57.558875 13.77000000000001 Q54.5625 13.77000000000001 52.46875 11.67362500000001 Q50.375 9.57725000000001 50.375 6.58250000000001 V-10.85499999999999 H45.25 Q43.284375 -10.85499999999999 41.95475 -12.184749999999987 Q40.625 -13.514374999999987 40.625 -15.47999999999999 V-45.22999999999999 Q40.625 -51.271624999999986 44.8585 -55.50087499999999 Q49.091875 -59.72999999999999 55.13975 -59.72999999999999 Q61.1875 -59.72999999999999 65.40625 -55.50087499999999 Q69.625 -51.271624999999986 69.625 -45.22999999999999 Q74.0625 -43.35499999999999 76.71875 -39.30862499999999 Q79.375 -35.26212499999999 79.375 -30.47999999999999 V-15.47999999999999 Q79.375 -13.514374999999987 78.04525 -12.184749999999987 Q76.715625 -10.85499999999999 74.75 -10.85499999999999 H64.75 V6.58250000000001 Q64.75 9.57725000000001 62.652625 11.67362500000001 Q60.555125 13.77000000000001 57.558875 13.77000000000001 Z"/></g><g id="Light-M" transform="matrix(1 0 0 1 1098.18 1126)"><path d="M55.101 -65.60499999999999 Q51.327 -65.60499999999999 48.6995 -68.23237499999999 Q46.072125 -70.85987499999999 46.072125 -74.63387499999999 Q46.072125 -78.40787499999999 48.6995 -81.03524999999999 Q51.327 -83.66262499999999 55.101 -83.66262499999999 Q58.875 -83.66262499999999 61.502375 -81.03524999999999 Q64.12975 -78.40787499999999 64.12975 -74.63387499999999 Q64.12975 -70.85987499999999 61.502375 -68.23237499999999 Q58.875 -65.60499999999999 55.101 -65.60499999999999 Z M57.50225 12.71225000000001 Q55.259625 12.71225000000001 53.69475 11.13875000000001 Q52.129875 9.56525000000001 52.129875 7.327750000000009 V-13.234999999999992 H47.22125 Q45.411875 -13.234999999999992 44.2085 -14.43849999999999 Q43.005 -15.641874999999992 43.005 -17.451249999999987 V-46.67237499999999 Q43.005 -51.728374999999986 46.52925 -55.248374999999996 Q50.0535 -58.76837499999999 55.115625 -58.76837499999999 Q60.17775 -58.76837499999999 63.687375 -55.248374999999996 Q67.197 -51.728374999999986 67.197 -46.67237499999999 Q71.6345 -45.133999999999986 74.31475 -41.20774999999999 Q76.995 -37.28149999999999 76.995 -32.54749999999999 V-17.451249999999987 Q76.995 -15.641874999999992 75.7915 -14.43849999999999 Q74.588 -13.234999999999992 72.77875 -13.234999999999992 H62.874875 V7.327750000000009 Q62.874875 9.56525000000001 61.297875 11.13875000000001 Q59.72075 12.71225000000001 57.50225 12.71225000000001 Z"/></g><g id="Thin-M" transform="matrix(1 0 0 1 802.565 1126)"><path d="M55.076875 -66.22999999999999 Q51.591375 -66.22999999999999 49.18025 -68.64099999999999 Q46.76925 -71.05212499999999 46.76925 -74.53774999999999 Q46.76925 -78.02324999999999 49.18025 -80.43437499999999 Q51.591375 -82.84537499999999 55.076875 -82.84537499999999 Q58.5625 -82.84537499999999 60.973625 -80.43437499999999 Q63.384625 -78.02324999999999 63.384625 -74.53774999999999 Q63.384625 -71.05212499999999 60.973625 -68.64099999999999 Q58.5625 -66.22999999999999 55.076875 -66.22999999999999 Z M57.44575 11.65462500000001 Q55.95675 11.65462500000001 54.920625 10.60400000000001 Q53.884625 9.553250000000011 53.884625 8.07287500000001 V-15.61462499999999 H49.19225 Q47.539125 -15.61462499999999 46.461875 -16.69187499999999 Q45.384625 -17.76912499999999 45.384625 -19.42224999999999 V-48.11462499999999 Q45.384625 -52.185124999999985 48.19975 -54.995999999999995 Q51.015 -57.80687499999999 55.091625 -57.80687499999999 Q59.16825 -57.80687499999999 61.96875 -54.995999999999995 Q64.76925 -52.185124999999985 64.76925 -48.11462499999999 Q69.20675 -46.91262499999999 71.911125 -43.106624999999994 Q74.615375 -39.300625 74.615375 -34.61462499999999 V-19.42224999999999 Q74.615375 -17.76912499999999 73.538125 -16.69187499999999 Q72.460875 -15.61462499999999 70.80775 -15.61462499999999 H61.0 V8.07287500000001 Q61.0 9.553250000000011 59.943375 10.60400000000001 Q58.886625 11.65462500000001 57.44575 11.65462500000001 Z"/></g><g id="Ultralight-M" transform="matrix(1 0 0 1 506.415 1126)"><path d="M55.0625 -66.60499999999999 Q51.75 -66.60499999999999 49.46875 -68.88624999999999 Q47.1875 -71.16749999999999 47.1875 -74.47999999999999 Q47.1875 -77.79249999999999 49.46875 -80.07374999999999 Q51.75 -82.35499999999999 55.0625 -82.35499999999999 Q58.375 -82.35499999999999 60.65625 -80.07374999999999 Q62.9375 -77.79249999999999 62.9375 -74.47999999999999 Q62.9375 -71.16749999999999 60.65625 -68.88624999999999 Q58.375 -66.60499999999999 55.0625 -66.60499999999999 Z M57.41175 11.02000000000001 Q56.375 11.02000000000001 55.65625 10.28300000000001 Q54.9375 9.54600000000001 54.9375 8.52000000000001 V-17.04249999999999 H50.375 Q48.815625 -17.04249999999999 47.814125 -18.044124999999987 Q46.8125 -19.045624999999987 46.8125 -20.60499999999999 V-48.97999999999999 Q46.8125 -52.459124999999986 49.20225 -54.84462499999999 Q51.591875 -57.22999999999999 55.07725 -57.22999999999999 Q58.5625 -57.22999999999999 60.9375 -54.84462499999999 Q63.3125 -52.459124999999986 63.3125 -48.97999999999999 Q67.75 -47.97999999999999 70.46875 -44.24612499999999 Q73.1875 -40.51212499999998 73.1875 -35.85499999999999 V-20.60499999999999 Q73.1875 -19.045624999999987 72.185875 -18.044124999999987 Q71.184375 -17.04249999999999 69.625 -17.04249999999999 H59.875 V8.52000000000001 Q59.875 9.54600000000001 59.1305 10.28300000000001 Q58.386 11.02000000000001 57.41175 11.02000000000001 Z"/></g><g id="Bold-S" transform="matrix(1 0 0 1 2294.23 696)"><path d="M43.296375000000005 -59.294499999999985 Q39.441419625 -59.294499999999985 36.832098 -61.903722999999985 Q34.222875 -64.512946 34.222875 -68.368 Q34.222875 -72.30432099999999 36.832098 -75.02084799999999 Q39.441419625 -77.73737499999999 43.296375000000005 -77.73737499999999 Q47.232794625000004 -77.73737499999999 49.899910500000004 -75.00112299999999 Q52.567125000000004 -72.26487099999999 52.567125000000004 -68.368 Q52.567125000000004 -64.512946 49.899910500000004 -61.903722999999985 Q47.232794625000004 -59.294499999999985 43.296375000000005 -59.294499999999985 Z M45.518297625 6.192500000000013 Q42.704625 6.192500000000013 40.732125 4.193272625000013 Q38.759625 2.1940452500000127 38.759625 -0.6619374999999863 V-12.644874999999988 H36.49125 Q34.052746875 -12.644874999999988 32.21467275 -14.483047749999987 Q30.3765 -16.321121874999985 30.3765 -18.75311574999999 V-42.13374999999999 Q30.3765 -47.615623374999984 34.224354375 -51.285360999999995 Q38.072110125 -54.954999999999984 43.569073125 -54.954999999999984 Q49.065937500000004 -54.954999999999984 52.986281250000005 -51.17440787499999 Q56.906625000000005 -47.39371712499999 56.906625000000005 -41.93649999999999 Q60.506437500000004 -40.358499999999985 62.45428125 -37.102494249999985 Q64.402125 -33.846389874999986 64.402125 -29.685105249999992 V-18.769191624999987 Q64.402125 -16.321121874999985 62.56395225 -14.483047749999987 Q60.72587812500001 -12.644874999999988 58.287375000000004 -12.644874999999988 H52.27125 V-0.6619374999999863 Q52.27125 2.1940452500000127 50.301610125 4.193272625000013 Q48.332068875000004 6.192500000000013 45.518297625 6.192500000000013 Z"/></g><g id="Semibold-S" transform="matrix(1 0 0 1 1998.1 696)"><path d="M43.296375000000005 -59.03718737499999 Q39.741535500000005 -59.03718737499999 37.303821375 -61.475000124999994 Q34.866008625000006 -63.91271424999999 34.866008625000006 -67.46755375 Q34.866008625000006 -71.103758875 37.303821375 -73.62737537499999 Q39.741535500000005 -76.15089325 43.296375000000005 -76.15089325 Q46.93258012500001 -76.15089325 49.42828575 -73.61623075 Q51.92399137500001 -71.081469625 51.92399137500001 -67.46755375 Q51.92399137500001 -63.91271424999999 49.42828575 -61.475000124999994 Q46.93258012500001 -59.03718737499999 43.296375000000005 -59.03718737499999 Z M45.518297625 4.991937875000013 Q42.811830375 4.991937875000013 40.914384000000005 3.0802895000000134 Q39.016937625 1.1685425000000134 39.016937625 -1.5623837499999862 V-13.845437124999986 H36.233937375000004 Q34.181353875 -13.845437124999986 32.643395625000004 -15.383395374999989 Q31.105437375000005 -16.92145224999999 31.105437375000005 -18.967526499999988 V-42.348160749999984 Q31.105437375000005 -47.572820124999986 34.76787675 -51.13525374999999 Q38.430316125000004 -54.69768737499999 43.662372375000004 -54.69768737499999 Q48.894428625 -54.69768737499999 52.600361625 -51.02430062499999 Q56.30629462500001 -47.35091387499999 56.30629462500001 -42.15091074999999 Q59.73459825 -40.572910749999984 61.682442 -37.45162674999999 Q63.63028575 -34.330342749999986 63.63028575 -30.32833749999999 V-18.983503749999986 Q63.63028575 -16.92145224999999 62.0923275 -15.383395374999989 Q60.55436925 -13.845437124999986 58.50178575 -13.845437124999986 H52.013937375 V-1.5623837499999862 Q52.013937375 1.1685425000000134 50.11944975 3.0802895000000134 Q48.2248635 4.991937875000013 45.518297625 4.991937875000013 Z"/></g><g id="Medium-S" transform="matrix(1 0 0 1 1701.85 696)"><path d="M43.296375000000005 -58.84427687499998 Q39.966696375 -58.84427687499998 37.65758925 -61.15338399999999 Q35.348482125000004 -63.46239249999999 35.348482125000004 -66.79216975 Q35.348482125000004 -70.20321399999999 37.65758925 -72.58204899999998 Q39.966696375 -74.960884 43.296375000000005 -74.960884 Q46.70741925 -74.960884 49.074517875 -72.57731499999998 Q51.441517875 -70.193844625 51.441517875 -66.79216975 Q51.441517875 -63.46239249999999 49.074517875 -61.15338399999999 Q46.70741925 -58.84427687499998 43.296375000000005 -58.84427687499998 Z M45.518297625 4.0913930000000125 Q42.89220975 4.0913930000000125 41.05107825 2.2453302500000127 Q39.209848125 0.3993661250000127 39.209848125 -2.2377677499999873 V-14.745981999999984 H36.041026875 Q34.277907750000004 -14.745981999999984 32.96501175 -16.058877999999986 Q31.652214375000003 -17.371675374999988 31.652214375000003 -19.128285249999987 V-42.50891949999998 Q31.652214375000003 -47.54056974999999 35.1755925 -51.02272262499999 Q38.698970625 -54.50477687499999 43.732396125 -54.50477687499999 Q48.765821625 -54.50477687499999 52.310897250000004 -50.91176949999999 Q55.8560715 -47.31866349999999 55.8560715 -42.31166949999999 Q59.1556695 -40.73366949999998 61.10351325 -37.713476124999985 Q63.051357 -34.69328274999999 63.051357 -30.810712374999987 V-19.14436112499999 Q63.051357 -17.371675374999988 61.73855962500001 -16.058877999999986 Q60.425762250000005 -14.745981999999984 58.6625445 -14.745981999999984 H51.821026874999994 V-2.2377677499999873 Q51.821026874999994 0.3993661250000127 49.9827555 2.2453302500000127 Q48.144484125 4.0913930000000125 45.518297625 4.0913930000000125 Z"/></g><g id="Regular-S" transform="matrix(1 0 0 1 1405.73 696)"><path d="M43.296375000000005 -58.702749999999995 Q40.131794625000005 -58.702749999999995 37.916973000000006 -60.91747299999999 Q35.70225 -63.13219599999999 35.70225 -66.29687499999999 Q35.70225 -69.54282099999999 37.916973000000006 -71.8155355 Q40.131794625000005 -74.08824999999999 43.296375000000005 -74.08824999999999 Q46.542419625 -74.08824999999999 48.8150355 -71.8155355 Q51.08775 -69.54282099999999 51.08775 -66.29687499999999 Q51.08775 -63.13219599999999 48.8150355 -60.91747299999999 Q46.542419625 -58.702749999999995 43.296375000000005 -58.702749999999995 Z M45.518297625 3.4310000000000134 Q42.9511875 3.4310000000000134 41.151281250000004 1.6331648750000127 Q39.351375000000004 -0.16467024999998614 39.351375000000004 -2.7330624999999866 V-15.406374999999986 H35.8995 Q34.348621875 -15.406374999999986 33.20092275 -16.554172749999985 Q32.053125 -17.701871874999984 32.053125 -19.24624074999999 V-42.62687499999999 Q32.053125 -47.516998374999986 35.474524875 -50.94017349999999 Q38.89592475 -54.363249999999994 43.783681125 -54.363249999999994 Q48.6714375 -54.363249999999994 52.098656250000005 -50.82922037499999 Q55.525875 -47.29509212499999 55.525875 -42.42962499999999 Q58.731187500000004 -40.85162499999999 60.67903125 -37.90559762499999 Q62.626875000000005 -34.95947162499999 62.626875000000005 -31.16448024999999 V-19.262316624999986 Q62.626875000000005 -17.701871874999984 61.479077249999996 -16.554172749999985 Q60.33137812500001 -15.406374999999986 58.7805 -15.406374999999986 H51.679500000000004 V-2.7330624999999866 Q51.679500000000004 -0.16467024999998614 49.882453875 1.6331648750000127 Q48.085506375 3.4310000000000134 45.518297625 3.4310000000000134 Z"/></g><g id="Light-S" transform="matrix(1 0 0 1 1109.75 696)"><path d="M43.277439 -59.19587499999999 Q40.3403865 -59.19587499999999 38.296383375000005 -61.23997674999998 Q36.252281625 -63.283979874999986 36.252281625 -66.221032375 Q36.252281625 -69.239351875 38.296383375000005 -71.34134649999999 Q40.3403865 -73.44334112499999 43.277439 -73.44334112499999 Q46.2957585 -73.44334112499999 48.397753125 -71.34134649999999 Q50.499747750000004 -69.239351875 50.499747750000004 -66.221032375 Q50.499747750000004 -63.283979874999986 48.397753125 -61.23997674999998 Q46.2957585 -59.19587499999999 43.277439 -59.19587499999999 Z M45.473719125 2.596435250000013 Q43.501219125 2.596435250000013 42.11859525 1.2111485000000144 Q40.735971375 -0.17413824999998795 40.735971375 -2.145060249999988 V-17.28419499999999 H37.45481625 Q36.027219375 -17.28419499999999 34.9791315 -18.33238149999999 Q33.930945 -19.38046937499999 33.930945 -20.80155699999999 V-43.76490887499999 Q33.930945 -47.87737412499999 36.79284525 -50.740950999999995 Q39.654646875 -53.60452787499999 43.764745125000005 -53.60452787499999 Q47.874744750000005 -53.60452787499999 50.742463875000006 -50.629997874999994 Q53.610183000000006 -47.655467874999985 53.610183000000006 -43.567658874999985 Q56.815495500000004 -42.25525599999999 58.782275250000005 -39.40400724999999 Q60.749055000000006 -36.55275849999999 60.749055000000006 -32.79573774999999 V-20.817632874999987 Q60.749055000000006 -19.38046937499999 59.7008685 -18.33238149999999 Q58.652682 -17.28419499999999 57.22518375000001 -17.28419499999999 H50.20002637500001 V-2.145060249999988 Q50.20002637500001 -0.17413824999998795 48.813654750000005 1.2111485000000144 Q47.4271845 2.596435250000013 45.473719125 2.596435250000013 Z"/></g><g id="Thin-S" transform="matrix(1 0 0 1 814.015 696)"><path d="M43.258404375000005 -59.68899999999999 Q40.548978375 -59.68899999999999 38.675596500000005 -61.562381874999986 Q36.802313250000005 -63.435665125 36.802313250000005 -66.14518974999999 Q36.802313250000005 -68.935981375 38.675596500000005 -70.867256125 Q40.548978375 -72.798530875 43.258404375000005 -72.798530875 Q46.049294625 -72.798530875 47.980569375 -70.867256125 Q49.911844125 -68.935981375 49.911844125 -66.14518974999999 Q49.911844125 -63.435665125 47.980569375 -61.562381874999986 Q46.049294625 -59.68899999999999 43.258404375000005 -59.68899999999999 Z M45.429042 1.7619691250000127 Q44.05125075 1.7619691250000127 43.085810625 0.7891321250000125 Q42.120469125 -0.1837048749999859 42.120469125 -1.5571566249999869 V-19.161719124999987 H39.009935250000005 Q37.705619625 -19.161719124999987 36.757044375 -20.110294374999988 Q35.808469125 -21.058869624999986 35.808469125 -22.356675999999986 V-44.90284412499999 Q35.808469125 -48.237749874999984 38.110869750000006 -50.54182712499999 Q40.413270375 -52.84590437499999 43.745809125 -52.84590437499999 Q47.07824925 -52.84590437499999 49.38646875 -50.430873999999996 Q51.69468825 -48.01584362499999 51.69468825 -44.70559412499999 Q54.900000750000004 -43.65859112499999 56.885815125 -40.902219624999994 Q58.871530875000005 -38.145848124999986 58.871530875000005 -34.42669937499999 V-22.372751874999985 Q58.871530875000005 -21.058869624999986 57.922955625 -20.110294374999988 Q56.974380375 -19.161719124999987 55.67006475 -19.161719124999987 H48.72075 V-1.5571566249999869 Q48.72075 -0.1837048749999859 47.74485562500001 0.7891321250000125 Q46.76896125 1.7619691250000127 45.429042 1.7619691250000127 Z"/></g><g id="Ultralight-S" transform="matrix(1 0 0 1 517.792 696)"><path d="M43.2470625 -59.98487499999999 Q40.674232125 -59.98487499999999 38.903223000000004 -61.75578549999999 Q37.132312500000005 -63.52669599999999 37.132312500000005 -66.09962499999999 Q37.132312500000005 -68.75382099999999 38.903223000000004 -70.58272299999999 Q40.674232125 -72.41162499999999 43.2470625 -72.41162499999999 Q45.901357125000004 -72.41162499999999 47.730160500000004 -70.58272299999999 Q49.5590625 -68.75382099999999 49.5590625 -66.09962499999999 Q49.5590625 -63.52669599999999 47.730160500000004 -61.75578549999999 Q45.901357125000004 -59.98487499999999 43.2470625 -59.98487499999999 Z M45.402314625 1.2612500000000129 Q44.38125 1.2612500000000129 43.66621875 0.5359617500000127 Q42.9511875 -0.18932649999998752 42.9511875 -1.2043749999999864 V-20.28831249999999 H39.943125 Q38.712778125 -20.28831249999999 37.823969625 -21.177219624999985 Q36.9350625 -22.06602812499999 36.9350625 -23.28986574999999 V-45.585624999999986 Q36.9350625 -48.453935874999985 38.901743625 -50.422392249999994 Q40.86842475 -52.39074999999998 43.734368625 -52.39074999999998 Q46.6003125 -52.39074999999998 48.572812500000005 -50.31143912499999 Q50.5453125 -48.23202962499999 50.5453125 -45.38837499999999 Q53.750625 -44.50074999999999 55.74778125 -41.80128512499999 Q57.744937500000006 -39.10172162499998 57.744937500000006 -35.40535524999999 V-23.30594162499999 Q57.744937500000006 -22.06602812499999 56.856030374999996 -21.177219624999985 Q55.96722187500001 -20.28831249999999 54.736875000000005 -20.28831249999999 H47.833125 V-1.2043749999999864 Q47.833125 -0.18932649999998752 47.103595875 0.5359617500000127 Q46.374066750000004 1.2612500000000129 45.402314625 1.2612500000000129 Z"/></g></g></svg>