<svg xmlns="http://www.w3.org/2000/svg" version="1.1" width="3300" height="2000"><g id="Notes"><style>
    text {
      font-family: monospace;
      text-anchor: middle;
    }
    text.emphasis {
      font-weight:bold;
    }
    text.lanchor {
      text-anchor: start;
    }
  </style><rect height="2200" id="artboard" fill="white" width="3300" x="0" y="0"/><line id="" style="fill:none;stroke:black;stroke-width:0.5;" x1="263" x2="3036" y1="292" y2="292"/><text class="lanchor emphasis" transform="matrix(1 0 0 1 263 322)">Weight/Scale Variations</text><text transform="matrix(1 0 0 1 559.711 322)">Ultralight</text><text transform="matrix(1 0 0 1 856.422 322)">Thin</text><text transform="matrix(1 0 0 1 1153.13 322)">Light</text><text transform="matrix(1 0 0 1 1449.84 322)">Regular</text><text transform="matrix(1 0 0 1 1746.56 322)">Medium</text><text transform="matrix(1 0 0 1 2043.27 322)">Semibold</text><text transform="matrix(1 0 0 1 2339.98 322)">Bold</text><text transform="matrix(1 0 0 1 2636.69 322)">Heavy</text><text transform="matrix(1 0 0 1 2933.4 322)">Black</text><text id="template-version" style="text-anchor: end;" transform="matrix(1 0 0 1 3036 1933)">Template v.1.0</text><text class="lanchor" transform="matrix(1 0 0 1 263 726)">Small</text><text class="lanchor" transform="matrix(1 0 0 1 263 1156)">Medium</text><text class="lanchor" transform="matrix(1 0 0 1 263 1586)">Large</text></g><g id="Guides"><g id="H-reference" style="fill:#27AAE1;stroke:none;" transform="matrix(1 0 0 1 339 696)"><path d="M 54.9316 0 L 57.666 0 L 30.5664 -70.459 L 28.0762 -70.459 L 0.976562 0 L 3.66211 0 L 12.9395 -24.4629 L 45.7031 -24.4629 Z M 29.1992 -67.0898 L 29.4434 -67.0898 L 44.8242 -26.709 L 13.8184 -26.709 Z"/></g><line id="Baseline-S" style="fill:none;stroke:#27AAE1;opacity:1;stroke-width:0.577;" x1="263" x2="3036" y1="696" y2="696"/><line id="Capline-S" style="fill:none;stroke:#27AAE1;opacity:1;stroke-width:0.577;" x1="263" x2="3036" y1="625.541" y2="625.541"/><g id="H-reference" style="fill:#27AAE1;stroke:none;" transform="matrix(1 0 0 1 339 1126)"><path d="M 54.9316 0 L 57.666 0 L 30.5664 -70.459 L 28.0762 -70.459 L 0.976562 0 L 3.66211 0 L 12.9395 -24.4629 L 45.7031 -24.4629 Z M 29.1992 -67.0898 L 29.4434 -67.0898 L 44.8242 -26.709 L 13.8184 -26.709 Z"/></g><line id="Baseline-M" style="fill:none;stroke:#27AAE1;opacity:1;stroke-width:0.577;" x1="263" x2="3036" y1="1126" y2="1126"/><line id="Capline-M" style="fill:none;stroke:#27AAE1;opacity:1;stroke-width:0.577;" x1="263" x2="3036" y1="1055.54" y2="1055.54"/><g id="H-reference" style="fill:#27AAE1;stroke:none;" transform="matrix(1 0 0 1 339 1556)"><path d="M 54.9316 0 L 57.666 0 L 30.5664 -70.459 L 28.0762 -70.459 L 0.976562 0 L 3.66211 0 L 12.9395 -24.4629 L 45.7031 -24.4629 Z M 29.1992 -67.0898 L 29.4434 -67.0898 L 44.8242 -26.709 L 13.8184 -26.709 Z"/></g><line id="Baseline-L" style="fill:none;stroke:#27AAE1;opacity:1;stroke-width:0.577;" x1="263" x2="3036" y1="1556" y2="1556"/><line id="Capline-L" style="fill:none;stroke:#27AAE1;opacity:1;stroke-width:0.577;" x1="263" x2="3036" y1="1485.54" y2="1485.54"/><rect height="119.336" id="left-margin" style="fill:darkred;stroke:none;opacity:0.4;" width="12.4512" x="1394.06" y="1030.79"/><rect height="119.336" id="right-margin" style="fill:darkgreen;stroke:none;opacity:0.4;" width="12.4512" x="1502.5112" y="1030.79"/><rect x="1406.5112" y="1045" width="96" height="96" fill="none" stroke="blue" stroke-dasharray="5"/><rect x="1394.06" y="1030.79" width="120.9024" height="119.336" fill="none" stroke="blue"/></g><g id="Symbols"><g id="Bold-L" transform="matrix(1 0 0 1 2266 1556)"><path d="M117.551 -55.709  97.718 -75.381  107.231 -84.895  117.551 -74.575  141.416 -98.601  150.93 -89.087  117.551 -55.709 Z M77.4 7.958  28.219 28.948 V-98.279 H88.043 Q88.043 -93.749 88.043 -90.619 Q88.043 -87.49 88.043 -82.96 H43.376 V5.889 L77.4 -8.327 L111.424 5.889 V-46.034 Q115.953 -46.034 119.083 -46.034 Q122.213 -46.034 126.743 -46.034 V28.948 L77.4 7.958 Z"/></g><g id="Semibold-L" transform="matrix(1 0 0 1 1970.27 1556)"><path d="M116.64 -55.568  97.998 -74.119  106.32 -82.512  116.64 -72.192  140.505 -96.218  148.897 -87.825  116.64 -55.568 Z M77.4 6.006  29.972 26.284 V-96.457 H88.323 Q88.323 -92.687 88.323 -90.023 Q88.323 -87.361 88.323 -83.59 H42.746 V6.871 L77.4 -7.685 L112.054 6.871 V-45.893 Q115.824 -45.893 118.486 -45.893 Q121.15 -45.893 124.92 -45.893 V26.284 L77.4 6.006 Z"/></g><g id="Medium-L" transform="matrix(1 0 0 1 1674.31 1556)"><path d="M115.956 -55.464  98.208 -73.172  105.636 -80.723  115.956 -70.403  139.821 -94.43  147.371 -86.878  115.956 -55.464 Z M77.4 4.544  31.286 24.286 V-95.089 H88.533 Q88.533 -91.89 88.533 -89.576 Q88.533 -87.264 88.533 -84.065 H42.272 V7.606 L77.4 -7.203 L112.528 7.606 V-45.789 Q115.728 -45.789 118.04 -45.789 Q120.354 -45.789 123.553 -45.789 V24.286 L77.4 4.544 Z"/></g><g id="Regular-L" transform="matrix(1 0 0 1 1378.56 1556)"><path d="M115.455 -55.386  98.362 -72.479  105.135 -79.412  115.455 -69.092  139.32 -93.119  146.254 -86.185  115.455 -55.386 Z M77.4 3.47  32.25 22.82 V-94.086 H88.688 Q88.688 -91.305 88.688 -89.249 Q88.688 -87.193 88.688 -84.411 H41.925 V8.146 L77.4 -6.85 L112.875 8.146 V-45.711 Q115.657 -45.711 117.713 -45.711 Q119.768 -45.711 122.55 -45.711 V22.82 L77.4 3.47 Z"/></g><g id="Light-L" transform="matrix(1 0 0 1 1082.77 1556)"><path d="M113.036 -55.201  97.929 -70.245  103.026 -75.505  113.036 -65.495  136.592 -89.212  141.85 -83.952  113.036 -55.201 Z M77.4 -0.024  35.475 17.983 V-90.674 H87.385 Q87.385 -88.51 87.385 -86.974 Q87.385 -85.437 87.385 -83.357 H42.794 V6.782 L77.4 -7.905 L112.006 6.782 V-44.657 Q114.11 -44.657 115.666 -44.657 Q117.221 -44.657 119.325 -44.657 V17.983 L77.4 -0.024 Z"/></g><g id="Thin-L" transform="matrix(1 0 0 1 787.282 1556)"><path d="M110.618 -55.014  97.495 -68.014  100.918 -71.598  110.618 -61.898  133.862 -85.305  137.446 -81.72  110.618 -55.014 Z M77.4 -3.517  38.7 13.145 V-87.264 H86.083 Q86.083 -85.717 86.083 -84.698 Q86.083 -83.681 86.083 -82.302 H43.662 V5.418 L77.4 -8.959 L111.138 5.418 V-43.602 Q112.565 -43.602 113.62 -43.602 Q114.673 -43.602 116.1 -43.602 V13.145 L77.4 -3.517 Z"/></g><g id="Ultralight-L" transform="matrix(1 0 0 1 491.205 1556)"><path d="M109.166 -54.902  97.234 -66.674  99.653 -69.254  109.166 -59.74  132.225 -82.96  134.805 -80.38  109.166 -54.902 Z M77.4 -5.613  40.635 10.243 V-85.217 H85.301 Q85.301 -84.04 85.301 -83.334 Q85.301 -82.626 85.301 -81.67 H44.183 V4.599 L77.4 -9.591 L110.618 4.599 V-42.97 Q111.638 -42.97 112.391 -42.97 Q113.144 -42.97 114.165 -42.97 V10.243 L77.4 -5.613 Z"/></g><g id="Bold-M" transform="matrix(1 0 0 1 2281.8 1126)"><path d="M91.25 -50.48  74.375 -67.355  84.125 -77.105  91.25 -69.98  108.875 -87.73  118.625 -77.98  91.25 -50.48 Z M60 -0.626  20.75 16.145 V-84.48 H64.375 Q64.375 -79.855 64.375 -76.605 Q64.375 -73.355 64.375 -68.73 H36.5 V-7.73 L60 -17.73 L83.5 -7.73 V-40.48 Q88.125 -40.48 91.375 -40.48 Q94.625 -40.48 99.25 -40.48 V16.145 L60 -0.626 Z"/></g><g id="Semibold-M" transform="matrix(1 0 0 1 1985.97 1126)"><path d="M90.326 -50.371  74.646 -66.051  83.201 -74.66  90.326 -67.535  107.951 -85.285  116.56 -76.676  90.326 -50.371 Z M60 -2.627  22.598 13.374 V-82.632 H64.646 Q64.646 -78.767 64.646 -76.007 Q64.646 -73.246 64.646 -69.382 H35.847 V-6.751 L60 -17.077 L84.153 -6.751 V-40.371 Q88.016 -40.371 90.778 -40.371 Q93.537 -40.371 97.403 -40.371 V13.374 L60 -2.627 Z"/></g><g id="Medium-M" transform="matrix(1 0 0 1 1689.91 1126)"><path d="M89.634 -50.29  74.85 -65.072  82.509 -72.825  89.634 -65.7  107.259 -83.45  115.011 -75.697  89.634 -50.29 Z M60 -4.129  23.984 11.295 V-81.246 H64.85 Q64.85 -77.952 64.85 -75.559 Q64.85 -73.165 64.85 -69.871 H35.359 V-6.017 L60 -16.589 L84.641 -6.017 V-40.29 Q87.935 -40.29 90.329 -40.29 Q92.722 -40.29 96.016 -40.29 V11.295 L60 -4.129 Z"/></g><g id="Regular-M" transform="matrix(1 0 0 1 1394.06 1126)"><path d="M89.125 -50.23  75 -64.355  82 -71.48  89.125 -64.355  106.75 -82.105  113.875 -74.98  89.125 -50.23 Z M60 -5.23  25 9.77 V-80.23 H65 Q65 -77.355 65 -75.23 Q65 -73.105 65 -70.23 H35 V-5.48 L60 -16.23 L85 -5.48 V-40.23 Q87.875 -40.23 90 -40.23 Q92.125 -40.23 95 -40.23 V9.77 L60 -5.23 Z"/></g><g id="Light-M" transform="matrix(1 0 0 1 1098.18 1126)"><path d="M87.346 -50.23  75 -62.576  80.221 -67.922  87.346 -60.797  104.971 -78.547  110.317 -73.201  87.346 -50.23 Z M60 -7.939  27.5 6.02 V-77.73 H65 Q65 -75.574 65 -73.98 Q65 -72.386 65 -70.23 H35 V-5.48 L60 -16.23 L85 -5.48 V-40.23 Q87.156 -40.23 88.75 -40.23 Q90.344 -40.23 92.5 -40.23 V6.02 L60 -7.939 Z"/></g><g id="Thin-M" transform="matrix(1 0 0 1 802.565 1126)"><path d="M85.567 -50.23  75 -60.797  78.442 -64.365  85.567 -57.24  103.192 -74.99  106.76 -71.422  85.567 -50.23 Z M60 -10.646  30 2.27 V-75.23 H65 Q65 -73.792 65 -72.73 Q65 -71.667 65 -70.23 H35 V-5.48 L60 -16.23 L85 -5.48 V-40.23 Q86.438 -40.23 87.5 -40.23 Q88.562 -40.23 90 -40.23 V2.27 L60 -10.646 Z"/></g><g id="Ultralight-M" transform="matrix(1 0 0 1 506.415 1126)"><path d="M84.5 -50.23  75 -59.73  77.375 -62.23  84.5 -55.105  102.125 -72.855  104.625 -70.355  84.5 -50.23 Z M60 -12.271  31.5 0.02 V-73.73 H65 Q65 -72.724 65 -71.98 Q65 -71.236 65 -70.23 H35 V-5.48 L60 -16.23 L85 -5.48 V-40.23 Q86.006 -40.23 86.75 -40.23 Q87.494 -40.23 88.5 -40.23 V0.02 L60 -12.271 Z"/></g><g id="Bold-S" transform="matrix(1 0 0 1 2294.23 696)"><path d="M70.911 -47.262  58.682 -59.492  65.882 -66.593  70.911 -61.563  82.648 -73.299  89.749 -66.198  70.911 -47.262 Z M47.34 -7.928  20.317 2.938 V-71.721 H51.581 Q51.581 -68.299 51.581 -65.902 Q51.581 -63.506 51.581 -60.083 H31.955 V-14.42 L47.34 -20.436 L62.726 -14.42 V-40.161 Q66.175 -40.161 68.593 -40.161 Q71.01 -40.161 74.363 -40.161 V2.938 L47.34 -7.928 Z"/></g><g id="Semibold-S" transform="matrix(1 0 0 1 1998.1 696)"><path d="M70.183 -47.176  58.896 -58.463  65.153 -64.664  70.183 -59.634  81.919 -71.37  88.119 -65.17  70.183 -47.176 Z M47.34 -9.507  21.774 0.751 V-70.264 H51.795 Q51.795 -67.441 51.795 -65.431 Q51.795 -63.42 51.795 -60.598 H31.44 V-13.648 L47.34 -19.921 L63.24 -13.648 V-40.075 Q66.09 -40.075 68.121 -40.075 Q70.152 -40.075 72.906 -40.075 V0.751 L47.34 -9.507 Z"/></g><g id="Medium-S" transform="matrix(1 0 0 1 1701.85 696)"><path d="M69.636 -47.112  59.057 -57.691  64.606 -63.216  69.636 -58.186  81.373 -69.922  86.898 -64.397  69.636 -47.112 Z M47.34 -10.691  22.868 -0.889 V-69.17 H51.956 Q51.956 -66.798 51.956 -65.077 Q51.956 -63.356 51.956 -60.984 H31.054 V-13.069 L47.34 -19.536 L63.626 -13.069 V-40.011 Q66.025 -40.011 67.767 -40.011 Q69.509 -40.011 71.812 -40.011 V-0.889 L47.34 -10.691 Z"/></g><g id="Regular-S" transform="matrix(1 0 0 1 1405.73 696)"><path d="M69.235 -47.065  59.175 -57.125  64.205 -62.155  69.235 -57.125  80.971 -68.861  86.001 -63.831  69.235 -47.065 Z M47.34 -11.56  23.67 -2.092 V-68.368 H52.074 Q52.074 -66.326 52.074 -64.817 Q52.074 -63.309 52.074 -61.267 H30.771 V-12.645 L47.34 -19.253 L63.909 -12.645 V-39.964 Q65.978 -39.964 67.508 -39.964 Q69.038 -39.964 71.01 -39.964 V-2.092 L47.34 -11.56 Z"/></g><g id="Light-S" transform="matrix(1 0 0 1 1109.75 696)"><path d="M67.831 -47.065  59.175 -55.721  62.801 -59.348  67.831 -54.318  79.568 -66.054  83.194 -62.428  67.831 -47.065 Z M47.34 -13.697  25.643 -5.051 V-66.395 H52.074 Q52.074 -64.921 52.074 -63.831 Q52.074 -62.741 52.074 -61.267 H30.771 V-12.645 L47.34 -19.253 L63.909 -12.645 V-39.964 Q65.411 -39.964 66.522 -39.964 Q67.632 -39.964 69.038 -39.964 V-5.051 L47.34 -13.697 Z"/></g><g id="Thin-S" transform="matrix(1 0 0 1 814.015 696)"><path d="M66.428 -47.065  59.175 -54.318  61.398 -56.541  66.428 -51.511  78.164 -63.247  80.387 -61.024  66.428 -47.065 Z M47.34 -15.833  27.615 -8.009 V-64.423 H52.074 Q52.074 -63.516 52.074 -62.845 Q52.074 -62.174 52.074 -61.267 H30.771 V-12.645 L47.34 -19.253 L63.909 -12.645 V-39.964 Q64.844 -39.964 65.535 -39.964 Q66.227 -39.964 67.065 -39.964 V-8.009 L47.34 -15.833 Z"/></g><g id="Ultralight-S" transform="matrix(1 0 0 1 517.792 696)"><path d="M65.586 -47.065  59.175 -53.476  60.556 -54.856  65.586 -49.826  77.322 -61.563  78.703 -60.182  65.586 -47.065 Z M47.34 -17.116  28.799 -9.785 V-63.239 H52.074 Q52.074 -62.672 52.074 -62.253 Q52.074 -61.834 52.074 -61.267 H30.771 V-12.645 L47.34 -19.253 L63.909 -12.645 V-39.964 Q64.504 -39.964 64.944 -39.964 Q65.383 -39.964 65.882 -39.964 V-9.785 L47.34 -17.116 Z"/></g></g></svg>