<svg xmlns="http://www.w3.org/2000/svg" height="24" width="24"><path d="M12 22.95q-2.225 0-4.188-.85-1.962-.85-3.424-2.312-1.463-1.463-2.313-3.426-.85-1.962-.85-4.187 0-2.225.85-4.188.85-1.962 2.313-3.425Q5.85 3.1 7.812 2.25 9.775 1.4 12 1.4V.65q0-.575.538-.8.537-.225.937.175L15.95 2.5q.25.275.25.612 0 .338-.25.588l-2.475 2.475q-.4.4-.937.175Q12 6.125 12 5.55V4.8q-3.05 0-5.212 2.162-2.163 2.163-2.163 5.213 0 1.9.875 3.487.875 1.588 2.325 2.563.45-.775 1.338-1.325.887-.55 2.037-.7-.075-.6-.225-1.2-.15-.6-.35-1.1-.3.25-.662.4-.363.15-.813.15-.925 0-1.588-.663-.662-.662-.662-1.612V11.05q0-.25-.05-.488-.05-.237-.125-.462-.15-.375-.012-.588.137-.212.462-.162.525.05 1.25.162.725.113 1.387.426.663.312 1.126.837.462.525.487 1.4 0 .25-.037.462-.038.213-.163.438-.35-.275-.713-.5-.362-.225-.787-.4.5.375 1.113 1.125.612.75 1.162 1.8.575-1.4 1.425-2.725.85-1.325 1.975-2.475-.625.475-1.237.975-.613.5-1.163 1.075-.2-.325-.312-.7-.113-.375-.113-.775 0-1.2.825-2.013.825-.812 2-.812h1.125q.45 0 .775-.075t.575-.25q.5-.225.738-.125.237.1.212.525-.05.725-.175 1.687-.125.963-.475 1.826-.35.862-1.012 1.462-.663.6-1.763.6-.45 0-.825-.125-.375-.125-.675-.3-.2.525-.45 1.425t-.4 1.925q1.075.2 1.9.737.825.538 1.25 1.263 1.275-.875 2.1-2.2.825-1.325 1.025-2.95.025-.375.3-.637.275-.263.625-.263h1.625q.375 0 .638.263.262.262.212.637-.15 2.075-1.05 3.875-.9 1.8-2.35 3.137-1.45 1.338-3.325 2.101-1.875.762-4 .762Z"/></svg>