<svg xmlns="http://www.w3.org/2000/svg" version="1.1" width="3300" height="2000"><g id="Notes"><style>
    text {
      font-family: monospace;
      text-anchor: middle;
    }
    text.emphasis {
      font-weight:bold;
    }
    text.lanchor {
      text-anchor: start;
    }
  </style><rect height="2200" id="artboard" fill="white" width="3300" x="0" y="0"/><line id="" style="fill:none;stroke:black;stroke-width:0.5;" x1="263" x2="3036" y1="292" y2="292"/><text class="lanchor emphasis" transform="matrix(1 0 0 1 263 322)">Weight/Scale Variations</text><text transform="matrix(1 0 0 1 559.711 322)">Ultralight</text><text transform="matrix(1 0 0 1 856.422 322)">Thin</text><text transform="matrix(1 0 0 1 1153.13 322)">Light</text><text transform="matrix(1 0 0 1 1449.84 322)">Regular</text><text transform="matrix(1 0 0 1 1746.56 322)">Medium</text><text transform="matrix(1 0 0 1 2043.27 322)">Semibold</text><text transform="matrix(1 0 0 1 2339.98 322)">Bold</text><text transform="matrix(1 0 0 1 2636.69 322)">Heavy</text><text transform="matrix(1 0 0 1 2933.4 322)">Black</text><text id="template-version" style="text-anchor: end;" transform="matrix(1 0 0 1 3036 1933)">Template v.1.0</text><text class="lanchor" transform="matrix(1 0 0 1 263 726)">Small</text><text class="lanchor" transform="matrix(1 0 0 1 263 1156)">Medium</text><text class="lanchor" transform="matrix(1 0 0 1 263 1586)">Large</text></g><g id="Guides"><g id="H-reference" style="fill:#27AAE1;stroke:none;" transform="matrix(1 0 0 1 339 696)"><path d="M 54.9316 0 L 57.666 0 L 30.5664 -70.459 L 28.0762 -70.459 L 0.976562 0 L 3.66211 0 L 12.9395 -24.4629 L 45.7031 -24.4629 Z M 29.1992 -67.0898 L 29.4434 -67.0898 L 44.8242 -26.709 L 13.8184 -26.709 Z"/></g><line id="Baseline-S" style="fill:none;stroke:#27AAE1;opacity:1;stroke-width:0.577;" x1="263" x2="3036" y1="696" y2="696"/><line id="Capline-S" style="fill:none;stroke:#27AAE1;opacity:1;stroke-width:0.577;" x1="263" x2="3036" y1="625.541" y2="625.541"/><g id="H-reference" style="fill:#27AAE1;stroke:none;" transform="matrix(1 0 0 1 339 1126)"><path d="M 54.9316 0 L 57.666 0 L 30.5664 -70.459 L 28.0762 -70.459 L 0.976562 0 L 3.66211 0 L 12.9395 -24.4629 L 45.7031 -24.4629 Z M 29.1992 -67.0898 L 29.4434 -67.0898 L 44.8242 -26.709 L 13.8184 -26.709 Z"/></g><line id="Baseline-M" style="fill:none;stroke:#27AAE1;opacity:1;stroke-width:0.577;" x1="263" x2="3036" y1="1126" y2="1126"/><line id="Capline-M" style="fill:none;stroke:#27AAE1;opacity:1;stroke-width:0.577;" x1="263" x2="3036" y1="1055.54" y2="1055.54"/><g id="H-reference" style="fill:#27AAE1;stroke:none;" transform="matrix(1 0 0 1 339 1556)"><path d="M 54.9316 0 L 57.666 0 L 30.5664 -70.459 L 28.0762 -70.459 L 0.976562 0 L 3.66211 0 L 12.9395 -24.4629 L 45.7031 -24.4629 Z M 29.1992 -67.0898 L 29.4434 -67.0898 L 44.8242 -26.709 L 13.8184 -26.709 Z"/></g><line id="Baseline-L" style="fill:none;stroke:#27AAE1;opacity:1;stroke-width:0.577;" x1="263" x2="3036" y1="1556" y2="1556"/><line id="Capline-L" style="fill:none;stroke:#27AAE1;opacity:1;stroke-width:0.577;" x1="263" x2="3036" y1="1485.54" y2="1485.54"/><rect height="119.336" id="left-margin" style="fill:darkred;stroke:none;opacity:0.4;" width="12.4512" x="1394.06" y="1030.79"/><rect height="119.336" id="right-margin" style="fill:darkgreen;stroke:none;opacity:0.4;" width="12.4512" x="1502.5112" y="1030.79"/><rect x="1406.5112" y="1045" width="96" height="96" fill="none" stroke="blue" stroke-dasharray="5"/><rect x="1394.06" y="1030.79" width="120.9024" height="119.336" fill="none" stroke="blue"/></g><g id="Symbols"><g id="Bold-L" transform="matrix(1 0 0 1 2266 1556)"><path d="M111.907 -1.529  101.104 -12.01  117.229 -27.651 H82.237 V-42.647 H117.229 L101.426 -58.127 L112.069 -68.609 L145.447 -35.069 L111.907 -1.529 Z M43.054 -1.529  9.514 -35.069  43.054 -68.609  53.374 -58.127  37.733 -42.647 H72.562 V-27.651 H37.571 L53.374 -12.01 L43.054 -1.529 Z"/></g><g id="Semibold-L" transform="matrix(1 0 0 1 1970.27 1556)"><path d="M112.328 -2.44  102.507 -12.01  119.191 -28.282 H82.237 V-42.017 H119.191 L102.758 -58.127 L112.49 -67.698 L144.957 -35.069 L112.328 -2.44 Z M42.564 -2.44  9.864 -35.069  42.493 -67.698  51.971 -58.127  35.63 -42.017 H72.562 V-28.282 H35.469 L51.971 -12.01 L42.564 -2.44 Z"/></g><g id="Medium-L" transform="matrix(1 0 0 1 1674.31 1556)"><path d="M112.644 -3.124  103.558 -12.01  120.663 -28.756 H82.237 V-41.543 H120.663 L103.758 -58.127 L112.806 -67.014 L144.588 -35.069 L112.644 -3.124 Z M42.194 -3.124  10.127 -35.069  42.072 -67.014  50.92 -58.127  34.051 -41.543 H72.562 V-28.756 H33.89 L50.92 -12.01 L42.194 -3.124 Z"/></g><g id="Regular-L" transform="matrix(1 0 0 1 1378.56 1556)"><path d="M112.875 -3.625  104.329 -12.01  121.744 -29.102 H82.237 V-41.196 H121.744 L104.49 -58.127 L113.036 -66.512 L144.319 -35.069 L112.875 -3.625 Z M41.925 -3.625  10.32 -35.069  41.764 -66.512  50.149 -58.127  32.895 -41.196 H72.562 V-29.102 H32.734 L50.149 -12.01 L41.925 -3.625 Z"/></g><g id="Light-L" transform="matrix(1 0 0 1 1082.77 1556)"><path d="M111.387 -5.3  104.453 -11.949  123.047 -30.281 H82.671 V-40.018 H123.047 L104.614 -58.127 L111.485 -64.837 L141.155 -35.069 L111.387 -5.3 Z M43.538 -5.3  13.545 -35.069  43.315 -64.837  50.087 -58.127  31.655 -40.018 H72.129 V-30.281 H31.431 L50.087 -11.949 L43.538 -5.3 Z"/></g><g id="Thin-L" transform="matrix(1 0 0 1 787.282 1556)"><path d="M109.898 -6.974  104.577 -11.886  124.348 -31.46 H83.105 V-38.839 H124.348 L104.738 -58.127 L109.935 -63.163 L137.993 -35.069 L109.898 -6.974 Z M45.15 -6.974  16.77 -35.069  44.865 -63.163  50.025 -58.127  30.415 -38.839 H71.695 V-31.46 H30.13 L50.025 -11.886 L45.15 -6.974 Z"/></g><g id="Ultralight-L" transform="matrix(1 0 0 1 491.205 1556)"><path d="M109.005 -7.979  104.651 -11.849  125.13 -32.166 H83.366 V-38.132 H125.13 L104.812 -58.127 L109.005 -62.159 L136.095 -35.069 L109.005 -7.979 Z M46.117 -7.979  18.705 -35.069  45.795 -62.159  49.988 -58.127  29.67 -38.132 H71.434 V-32.166 H29.348 L49.988 -11.849 L46.117 -7.979 Z"/></g><g id="Bold-M" transform="matrix(1 0 0 1 2281.8 1126)"><path d="M85.875 -5.23  73.625 -17.105  83.25 -26.605 H65 V-43.73 H83.25 L73.875 -53.105 L85.875 -64.98 L115.75 -35.105 L85.875 -5.23 Z M34.25 -5.23  4.25 -35.105  34.125 -64.98  46.125 -53.105  36.75 -43.73 H55 V-26.605 H36.625 L46.125 -17.105 L34.25 -5.23 Z"/></g><g id="Semibold-M" transform="matrix(1 0 0 1 1985.97 1126)"><path d="M86.201 -6.371  75.146 -17.105  85.532 -27.42 H65 V-42.915 H85.532 L75.343 -53.105 L86.201 -63.839 L114.935 -35.105 L86.201 -6.371 Z M33.87 -6.371  5.011 -35.105  33.745 -63.839  44.604 -53.105  34.414 -42.915 H55 V-27.42 H34.289 L44.604 -17.105 L33.87 -6.371 Z"/></g><g id="Medium-M" transform="matrix(1 0 0 1 1689.91 1126)"><path d="M86.446 -7.227  76.287 -17.105  87.245 -28.031 H65 V-42.304 H87.245 L76.442 -53.105 L86.446 -62.982 L114.324 -35.105 L86.446 -7.227 Z M33.584 -7.227  5.581 -35.105  33.459 -62.982  43.462 -53.105  32.66 -42.304 H55 V-28.031 H32.535 L43.462 -17.105 L33.584 -7.227 Z"/></g><g id="Regular-M" transform="matrix(1 0 0 1 1394.06 1126)"><path d="M86.625 -7.855  77.125 -17.105  88.5 -28.48 H65 V-41.855 H88.5 L77.25 -53.105 L86.625 -62.355 L113.875 -35.105 L86.625 -7.855 Z M33.375 -7.855  6 -35.105  33.25 -62.355  42.625 -53.105  31.375 -41.855 H55 V-28.48 H31.25 L42.625 -17.105 L33.375 -7.855 Z"/></g><g id="Light-M" transform="matrix(1 0 0 1 1098.18 1126)"><path d="M85.904 -9.586  78.086 -17.057  90.76 -29.682 H65 V-40.605 H90.76 L78.26 -53.057 L85.904 -60.527 L111.375 -35.057 L85.904 -9.586 Z M34.144 -9.586  8.5 -35.057  33.971 -60.527  41.615 -53.057  29.115 -40.605 H55 V-29.682 H28.942 L41.615 -17.057 L34.144 -9.586 Z"/></g><g id="Thin-M" transform="matrix(1 0 0 1 802.565 1126)"><path d="M85.183 -11.316  79.047 -17.009  93.019 -30.884 H65 V-39.355 H93.019 L79.269 -53.009 L85.183 -58.701 L108.875 -35.009 L85.183 -11.316 Z M34.914 -11.316  11 -35.009  34.693 -58.701  40.606 -53.009  26.856 -39.355 H55 V-30.884 H26.635 L40.606 -17.009 L34.914 -11.316 Z"/></g><g id="Ultralight-M" transform="matrix(1 0 0 1 506.415 1126)"><path d="M84.75 -12.355  79.625 -16.98  94.375 -31.605 H65 V-38.605 H94.375 L79.875 -52.98 L84.75 -57.605 L107.375 -34.98 L84.75 -12.355 Z M35.375 -12.355  12.5 -34.98  35.125 -57.605  40 -52.98  25.5 -38.605 H55 V-31.605 H25.25 L40 -16.98 L35.375 -12.355 Z"/></g><g id="Bold-S" transform="matrix(1 0 0 1 2294.23 696)"><path d="M66.966 -12.349  57.794 -21.225  65.586 -28.819 H52.074 V-41.542 H65.586 L57.992 -49.037 L66.966 -57.914 L89.749 -35.131 L66.966 -12.349 Z M27.812 -12.349  4.931 -35.131  27.714 -57.914  36.689 -49.037  29.094 -41.542 H42.606 V-28.819 H28.996 L36.689 -21.225 L27.812 -12.349 Z"/></g><g id="Semibold-S" transform="matrix(1 0 0 1 1998.1 696)"><path d="M67.224 -13.249  58.995 -21.225  67.387 -29.462 H52.074 V-40.899 H67.387 L59.149 -49.037 L67.224 -57.013 L89.106 -35.131 L67.224 -13.249 Z M27.512 -13.249  5.532 -35.131  27.414 -57.013  35.488 -49.037  27.251 -40.899 H42.606 V-29.462 H27.152 L35.488 -21.225 L27.512 -13.249 Z"/></g><g id="Medium-S" transform="matrix(1 0 0 1 1701.85 696)"><path d="M67.417 -13.925  59.895 -21.225  68.738 -29.945 H52.074 V-40.417 H68.738 L60.017 -49.037 L67.417 -56.338 L88.623 -35.131 L67.417 -13.925 Z M27.287 -13.925  5.982 -35.131  27.188 -56.338  34.588 -49.037  25.867 -40.417 H42.606 V-29.945 H25.769 L34.588 -21.225 L27.287 -13.925 Z"/></g><g id="Regular-S" transform="matrix(1 0 0 1 1405.73 696)"><path d="M67.558 -14.42  60.556 -21.225  69.728 -30.299 H52.074 V-40.063 H69.728 L60.654 -49.037 L67.558 -55.843 L88.269 -35.131 L67.558 -14.42 Z M27.122 -14.42  6.312 -35.131  27.023 -55.843  33.927 -49.037  24.854 -40.063 H42.606 V-30.299 H24.755 L33.927 -21.225 L27.122 -14.42 Z"/></g><g id="Light-S" transform="matrix(1 0 0 1 1109.75 696)"><path d="M66.989 -15.786  61.314 -21.188  71.511 -31.248 H52.074 V-39.076 H71.511 L61.451 -49 L66.989 -54.401 L86.297 -35.094 L66.989 -15.786 Z M27.728 -15.786  8.284 -35.094  27.592 -54.401  33.13 -49  23.07 -39.076 H42.606 V-31.248 H22.934 L33.13 -21.188 L27.728 -15.786 Z"/></g><g id="Thin-S" transform="matrix(1 0 0 1 814.015 696)"><path d="M66.42 -17.151  62.073 -21.149  73.293 -32.195 H52.074 V-38.09 H73.293 L62.247 -48.962 L66.42 -52.96 L84.324 -35.055 L66.42 -17.151 Z M28.336 -17.151  10.257 -35.055  28.161 -52.96  32.334 -48.962  21.288 -38.09 H42.606 V-32.195 H21.114 L32.334 -21.149 L28.336 -17.151 Z"/></g><g id="Ultralight-S" transform="matrix(1 0 0 1 517.792 696)"><path d="M66.079 -17.971  62.528 -21.127  74.363 -32.764 H52.074 V-37.498 H74.363 L62.726 -48.939 L66.079 -52.095 L83.141 -35.033 L66.079 -17.971 Z M28.7 -17.971  11.441 -35.033  28.503 -52.095  31.856 -48.939  20.218 -37.498 H42.606 V-32.764 H20.021 L31.856 -21.127 L28.7 -17.971 Z"/></g></g></svg>