<svg xmlns="http://www.w3.org/2000/svg" height="24" width="24"><path d="M16.15 10.575Q15.675 10.575 15.338 10.237Q15 9.9 15 9.425Q15 8.95 15.338 8.612Q15.675 8.275 16.15 8.275Q16.625 8.275 16.962 8.612Q17.3 8.95 17.3 9.425Q17.3 9.9 16.962 10.237Q16.625 10.575 16.15 10.575ZM12.925 6.65Q12.65 6.3 12.7 5.887Q12.75 5.475 13.125 5.275Q13.825 4.9 14.588 4.687Q15.35 4.475 16.15 4.475Q16.95 4.475 17.712 4.687Q18.475 4.9 19.175 5.275Q19.525 5.475 19.588 5.9Q19.65 6.325 19.375 6.675Q19.175 6.95 18.812 7Q18.45 7.05 18.1 6.85Q17.65 6.6 17.163 6.487Q16.675 6.375 16.15 6.375Q15.65 6.375 15.15 6.487Q14.65 6.6 14.2 6.85Q13.85 7.05 13.488 6.988Q13.125 6.925 12.925 6.65ZM10.5 3.675Q10.225 3.325 10.275 2.912Q10.325 2.5 10.675 2.275Q11.875 1.475 13.262 1.075Q14.65 0.675 16.15 0.675Q17.65 0.675 19.025 1.075Q20.4 1.475 21.625 2.275Q21.975 2.5 22.025 2.912Q22.075 3.325 21.8 3.675Q21.575 3.95 21.213 4Q20.85 4.05 20.55 3.85Q19.575 3.225 18.463 2.9Q17.35 2.575 16.15 2.575Q14.975 2.575 13.875 2.925Q12.775 3.275 11.775 3.875Q11.45 4.075 11.088 4.012Q10.725 3.95 10.5 3.675ZM20.75 21.8Q17.125 21.8 13.775 20.263Q10.425 18.725 7.85 16.15Q5.275 13.575 3.738 10.212Q2.2 6.85 2.2 3.2Q2.2 2.7 2.475 2.425Q2.75 2.15 3.25 2.15H8.25Q8.6 2.15 8.9 2.387Q9.2 2.625 9.25 2.95L10 7.2Q10.05 7.525 9.988 7.8Q9.925 8.075 9.75 8.25L7.1 10.95Q8.05 12.55 9.6 14.137Q11.15 15.725 12.8 16.75L15.55 14.1Q15.75 13.9 16 13.825Q16.25 13.75 16.5 13.8L20.95 14.75Q21.3 14.825 21.55 15.1Q21.8 15.375 21.8 15.7V20.75Q21.8 21.25 21.525 21.525Q21.25 21.8 20.75 21.8ZM5.85 8.45 7.3 7Q7.3 7 7.3 7Q7.3 7 7.3 7L6.9 4.8Q6.9 4.8 6.9 4.8Q6.9 4.8 6.9 4.8H4.95Q4.95 4.8 4.95 4.8Q4.95 4.8 4.95 4.8Q5.075 5.825 5.275 6.688Q5.475 7.55 5.85 8.45ZM19.15 19.05Q19.15 19.1 19.15 19.075Q19.15 19.05 19.15 19.05V17.05Q19.15 17.05 19.15 17.05Q19.15 17.05 19.15 17.05L16.8 16.55Q16.8 16.55 16.8 16.55Q16.8 16.55 16.8 16.55L15.3 18.05Q16.275 18.475 17.225 18.7Q18.175 18.925 19.15 19.05ZM15.3 18.05Q15.3 18.05 15.3 18.05Q15.3 18.05 15.3 18.05Q15.3 18.05 15.3 18.05Q15.3 18.05 15.3 18.05Q15.3 18.05 15.3 18.05Q15.3 18.05 15.3 18.05Q15.3 18.05 15.3 18.05Q15.3 18.05 15.3 18.05ZM5.85 8.45Q5.85 8.45 5.85 8.45Q5.85 8.45 5.85 8.45Q5.85 8.45 5.85 8.45Q5.85 8.45 5.85 8.45Q5.85 8.45 5.85 8.45Q5.85 8.45 5.85 8.45Q5.85 8.45 5.85 8.45Q5.85 8.45 5.85 8.45Z"/></svg>