<svg xmlns="http://www.w3.org/2000/svg" height="40" viewBox="0 -960 960 960" width="40"><path d="m698.42-153.35 144.23-145.08-32.23-32.24L698.53-218l-58.11-58.67-32.42 32.9 90.42 90.42Zm26.67 102.23q-79.13 0-135.23-55.91-56.11-55.91-56.11-135.42 0-79.13 56.11-135.23 56.1-56.1 135.42-56.1 79.31 0 135.23 56.1 55.91 56.1 55.91 135.42t-55.91 135.23q-55.92 55.91-135.42 55.91Zm-349.68-67.36v-560.69h187.6v-159.66h-24.87q-26.95 0-45.47-18.6-18.53-18.61-18.53-44.73H648.2v415.24q-79.64 26.23-128.71 93.17-49.07 66.93-49.07 151.53 0 32.53 7.21 64.21 7.21 31.68 24.1 59.53H375.41Zm-66.42 0q-34.99 0-59.9-25.02-24.92-25.03-24.92-60.17v-390.69q0-34.99 24.92-59.9 24.91-24.91 59.9-24.91h34.59v560.69h-34.59Z"/></svg>