<svg xmlns="http://www.w3.org/2000/svg" height="40" viewBox="0 -960 960 960" width="40"><path d="M658.667-160.667 816-318l-27-26-130.333 129.667-65-66-27 27.666 92 92Zm31.756 71.333q-69.05 0-117.403-48.238-48.353-48.239-48.353-117.672 0-68.716 48.239-117.069 48.238-48.353 117.671-48.353 68.716 0 117.069 48.263Q856-324.139 856-255.089q0 69.049-48.264 117.402-48.264 48.353-117.313 48.353ZM365.667-162v-489.333H545V-817h-36.666q-14.909-3-23.454-14.866-8.546-11.867-8.546-25.467h109.999V-475q-62.121 31.697-99.894 90.119-37.772 58.423-37.772 127.548 0 24.223 4.167 48.945Q457-183.667 467.667-162h-102ZM325-162q-31.35 0-52.341-20.992-20.992-20.991-20.992-52.341V-578q0-31.35 20.992-52.341Q293.65-651.333 325-651.333h20V-162h-20Z"/></svg>