<svg xmlns="http://www.w3.org/2000/svg" height="24" width="24"><path d="M13.1 23.05q-2.1 0-3.95-.8t-3.225-2.175Q4.55 18.7 3.75 16.85q-.8-1.85-.8-3.95 0-3.125 1.75-5.688Q6.45 4.65 9.375 3.475q.625-.275 1.187.087.563.363.563 1.038 0 2.075.738 3.975.737 1.9 2.212 3.375 1.45 1.45 3.363 2.187 1.912.738 3.962.738.675 0 1.05.5t.15 1.075q-1.125 2.975-3.712 4.788Q16.3 23.05 13.1 23.05Zm0-2.15q2.125 0 3.95-1.063 1.825-1.062 2.9-2.887-2.1-.25-4-1.125t-3.425-2.4q-1.5-1.5-2.388-3.388Q9.25 8.15 9.025 6.05 7.2 7.125 6.15 8.95T5.1 12.9q0 3.35 2.325 5.675Q9.75 20.9 13.1 20.9Zm-.575-7.475Z"/></svg>