<svg xmlns="http://www.w3.org/2000/svg" height="24" viewBox="0 -960 960 960" width="24"><path d="M354.54-30.43q-34.21 0-59.86-22.14Q269.02-74.7 264.54-109l-71.47-533.87h574.1L695.7-109q-4.48 34.3-30.14 56.43-25.66 22.14-59.86 22.14H354.54Zm-2.39-88.61h255.94l57.28-435.22h-371.5l58.28 435.22ZM480-313.54q50.6 0 86.02-35.42 35.41-35.42 35.41-86.02v-79.28h-86.21v79.28q0 14.97-10.13 25.09-10.12 10.13-25.09 10.13t-25.09-10.13q-10.13-10.12-10.13-25.09v-79.28h-86.21v79.28q0 50.6 35.41 86.02 35.42 35.42 86.02 35.42Zm127.17-366.94q-27.39 0-46.8-19.41-19.41-19.41-19.41-46.93 0-27.51 19.41-46.8 19.41-19.29 46.92-19.29t46.81 19.31q19.29 19.31 19.29 46.9 0 27.4-19.31 46.81-19.32 19.41-46.91 19.41Zm-214.34-36.65q-44.4 0-75.31-30.91-30.91-30.92-30.91-75.43 0-44.51 30.91-75.3 30.91-30.8 75.43-30.8 44.51 0 75.3 30.81 30.79 30.8 30.79 75.41 0 44.39-30.8 75.31-30.8 30.91-75.41 30.91Zm215.26 598.09H352.15h255.94Z"/></svg>