<svg xmlns="http://www.w3.org/2000/svg" height="40" width="40"><path d="M29.75 39.125q3.458 0 6.312-2.729 2.855-2.729 3.063-6.646h-1.917q-.291 3-2.375 5.125Q32.75 37 29.75 37.208ZM.917 10.25h1.875q.291-3 2.375-5.125Q7.25 3 10.25 2.792V.875q-3.792.208-6.458 2.896Q1.125 6.458.917 10.25Zm7.833 22q-3.875-3.875-3.875-8.458 0-4.584 3.875-8.5l7.708-7.667 3.25 3.25 6.542-6.542 3.292 3.25 2.583-2.625 3.667 3.667L34.5 9.917l3.458 3.5-3.375 3.333 3.334 3.333L25.75 32.25q-3.917 3.917-8.5 3.917t-8.5-3.917ZM10.042 31q1.666 1.708 3.5 2.562 1.833.855 3.708.855 1.875 0 3.729-.875T24.5 31l10.917-10.958-1.459-1.5-7.708 7.708-1.792-1.75 11.125-11.125-1.5-1.5-9.958 9.958-1.708-1.791L33.625 8.833l-1.5-1.5-11.25 11.25-1.75-1.708L27.75 8.25l-1.458-1.5L15.5 17.542q1 2.125.917 4.458-.084 2.333-1.584 4.708l-1.583-1.541q1.042-2.084.958-4.209-.083-2.125-1.375-4.333l5.125-5.083-1.5-1.5-6.458 6.5q-1.708 1.666-2.542 3.52-.833 1.855-.833 3.73t.854 3.708q.854 1.833 2.563 3.5Z"/></svg>