<svg xmlns="http://www.w3.org/2000/svg" height="24" width="24"><path d="M4.425 21.3q-.725 0-1.212-.5-.488-.5-.488-1.225V4.425q0-.725.488-1.225.487-.5 1.212-.5H19.6q.7 0 1.2.5t.5 1.225v15.15q0 .725-.5 1.225-.5.5-1.2.5Zm4.625-3.55q.375 0 .625-.25t.25-.625q0-.35-.25-.6t-.625-.25q-.35 0-.6.25t-.25.6q0 .375.25.625t.6.25Zm2.975 0q.35 0 .6-.25t.25-.625q0-.35-.25-.6t-.6-.25q-.35 0-.612.25-.263.25-.263.6 0 .375.263.625.262.25.612.25Zm2.95 0q.35 0 .613-.25.262-.25.262-.625 0-.35-.262-.6-.263-.25-.613-.25t-.6.25q-.25.25-.25.6 0 .375.25.625t.6.25ZM9.05 14.8q.375 0 .625-.263.25-.262.25-.612t-.25-.6q-.25-.25-.625-.25-.35 0-.6.25t-.25.6q0 .375.25.625t.6.25Zm2.975 0q.35 0 .6-.263.25-.262.25-.612t-.25-.6q-.25-.25-.6-.25t-.612.25q-.263.25-.263.6 0 .375.263.625.262.25.612.25Zm2.95 0q.35 0 .613-.263.262-.262.262-.612t-.262-.6q-.263-.25-.613-.25t-.6.25q-.25.25-.25.6 0 .375.25.625t.6.25Zm1-3.15q.275 0 .45-.188.175-.187.175-.462 0-1.9-1.35-3.237-1.35-1.338-3.225-1.338-1.9 0-3.25 1.338Q7.425 9.1 7.425 11q0 .275.188.462.187.188.437.188Z"/></svg>