<svg xmlns="http://www.w3.org/2000/svg" height="24" width="24"><path d="M2.175 18.425V16.75Q3.175 16.6 3.763 16.188Q4.35 15.775 5.325 15.775Q6.425 15.775 7.175 16.275Q7.925 16.775 8.65 16.775Q9.475 16.775 10.2 16.275Q10.925 15.775 12 15.775Q13.075 15.775 13.825 16.275Q14.575 16.775 15.35 16.775Q16.1 16.775 16.825 16.275Q17.55 15.775 18.675 15.775Q19.7 15.775 20.238 16.175Q20.775 16.575 21.825 16.75V18.425Q20.75 18.3 20.038 17.863Q19.325 17.425 18.65 17.425Q17.85 17.425 17.125 17.925Q16.4 18.425 15.325 18.425Q14.175 18.425 13.525 17.925Q12.875 17.425 12 17.425Q11.125 17.425 10.475 17.925Q9.825 18.425 8.675 18.425Q7.6 18.425 6.875 17.925Q6.15 17.425 5.35 17.425Q4.625 17.425 3.938 17.863Q3.25 18.3 2.175 18.425ZM5.325 13.925 3.775 12.35 4.925 11.2 6.025 12.275H7.675V9.025L6.6 9.8L5.625 8.475L12 3.775L18.35 8.45L17.375 9.8L16.325 9.025V12.275H17.975L19.075 11.2L20.225 12.35L18.65 13.925ZM9.325 12.275H11.175V10.275H12.825V12.275H14.675V7.825L12 5.825L9.325 7.775ZM9.325 12.275H14.675H12H9.325Z"/></svg>