<svg xmlns="http://www.w3.org/2000/svg" height="24" viewBox="0 -960 960 960" width="24"><path d="M401.52-164 66.65-526.56q-13.13-14.27-19.41-31.53-6.28-17.26-6.28-35.08 0-20.4 8.13-39.29t24.39-33.71q84.26-69.31 191.04-106.37Q371.3-809.61 480-809.61q108.7 0 215.48 37.07 106.78 37.06 191.04 106.37 16.26 14.82 24.39 33.71 8.13 18.89 8.13 39.29 0 17.82-6.28 35.08-6.28 17.26-19.41 31.53L558.48-164q-15.96 17.65-36.61 26.48-20.65 8.83-41.87 8.83t-41.87-8.83q-20.65-8.83-36.61-26.48ZM326.7-400.87q32.91-24.04 72.41-36.72 39.5-12.67 80.89-12.67t80.89 12.67q39.5 12.68 72.41 36.72l177.92-192.61q-76.31-56.17-159.76-83.15Q568-703.61 480-703.61q-88 0-171.46 26.98-83.45 26.98-159.76 83.15L326.7-400.87Z"/></svg>