<svg xmlns="http://www.w3.org/2000/svg" height="48" viewBox="0 -960 960 960" width="48"><path d="M480-480q0-76.54 54.54-131.06 54.55-54.52 131.06-54.52 76.52 0 131.03 54.54Q851.15-556.5 851.15-480H480ZM294.4-294.42q-76.52 0-131.03-54.54Q108.85-403.5 108.85-480H480q0 76.54-54.54 131.06-54.55 54.52-131.06 54.52ZM480-480q-76.54 0-131.06-54.54-54.52-54.55-54.52-131.06 0-76.52 54.54-131.03Q403.5-851.15 480-851.15V-480Zm0 371.15V-480q76.54 0 131.06 54.54 54.52 54.55 54.52 131.06 0 76.52-54.54 131.03Q556.5-108.85 480-108.85Z"/></svg>