<svg xmlns="http://www.w3.org/2000/svg" height="20" viewBox="0 -960 960 960" width="20"><path d="M224-485h48v-145h-48v145Zm0-209h48v-75l-48 5v70Zm112 209h48v-145h-48v145Zm0-209h48v-86l-48 4v82ZM74.48-385Q69-400 67.8-415.36q-1.2-15.37-2.8-31.2-2-15.54 6.5-26.99T93-485h67v-292q0-19.13 12.5-33.07Q185-824 204.14-825.86L861-893q14.03-2 24.52 8.5Q896-874 896-859.67q0 11.27-8.5 19.97T867-830l-419 43.49V-694h416q13.87 0 22.93 9.07Q896-675.87 896-662t-9.07 22.93Q877.87-630 864-630H448v145h398q20 2 34.5 17.79t12.5 37.23q-2 11.98-3.15 23.15-1.16 11.16-3.68 21.83H74.48ZM480.5-64q-128.5 0-230-70T99-313h762q-50 109-151 179T480.5-64Z"/></svg>