<svg xmlns="http://www.w3.org/2000/svg" height="20" viewBox="0 -960 960 960" width="20"><path d="M873.52-10.98 754.42-128.7q-18.62 9.41-38.72 14.73-20.11 5.32-42.33 5.32-74.82 0-126.89-52.07-52.07-52.06-52.07-126.28 0-75.43 52.07-127.51 52.06-52.08 126.28-52.08 75.44 0 127.51 52.08 52.08 52.08 52.08 127.77 0 22.52-6.11 44.37-6.11 21.84-16.17 40.41l117.71 116.2-74.26 74.78Zm-657.91-96.43q-74.95 0-127.57-52.14Q35.41-211.68 35.41-286q0-75.14 52.52-127.86 52.52-52.73 127.12-52.73 75.28 0 127.41 52.56 52.13 52.56 52.13 127.47 0 75.11-52.19 127.13-52.18 52.02-126.79 52.02Zm456.28-104.18q32.19 0 54.24-22.01 22.04-22.01 22.04-52.53 0-32.19-22.29-54.24-22.29-22.04-53.99-22.04-31.69 0-53.12 22.29-21.42 22.29-21.42 53.99 0 31.49 21.91 53.02 21.91 21.52 52.63 21.52ZM215.61-564.41q-74.95 0-127.57-52.67-52.63-52.67-52.63-127.74 0-75.27 52.52-126.9 52.52-51.63 127.12-51.63 75.28 0 127.41 51.6 52.13 51.61 52.13 126.83 0 75.23-52.19 127.87-52.18 52.64-126.79 52.64Zm456.71 0q-75.1 0-127.13-52.67-52.02-52.67-52.02-127.74 0-75.27 52.14-126.9 52.13-51.63 126.45-51.63 75.14 0 127.87 51.6 52.72 51.61 52.72 126.83 0 75.23-52.56 127.87t-127.47 52.64Z"/></svg>