<svg xmlns="http://www.w3.org/2000/svg" height="48" viewBox="0 -960 960 960" width="48"><path d="M667.159-641.154q-9.774 0-17.12-7.495-7.347-7.494-7.347-17.269 0-9.774 7.495-17.121 7.495-7.346 17.269-7.346 9.775 0 17.121 7.495 7.346 7.494 7.346 17.269 0 9.775-7.494 17.121-7.495 7.346-17.27 7.346ZM355.615-396.615 425-491.308l76.462 88.539 112-147.616 105.461 153.77H355.615ZM187.504-132q-28.54 0-48.522-20.3Q119-172.601 119-200.503v-515.343h43.769v515.462q0 9.231 7.692 16.923 7.693 7.692 16.923 7.692h515.463V-132H187.504Zm46.034-446.846v-207.401q0-28.151 19.982-48.452Q273.503-855 301.969-855h192.723v43.769H301.923q-9.231 0-16.923 7.692-7.692 7.693-7.692 16.923v207.77h-43.77Zm68.431 332.308q-28.466 0-48.449-20.301-19.982-20.301-19.982-47.763v-178.09h43.77v177.769q0 9.231 7.692 16.923 7.692 7.693 16.923 7.693h192.769v43.769H301.969Zm278.877 0v-43.769h192.77q9.23 0 16.923-7.693 7.692-7.692 7.692-16.923v-177.769H842v178.09q0 27.462-20.301 47.763t-48.129 20.301H580.846Zm217.385-332.308v-207.77q0-9.23-7.692-16.923-7.693-7.692-16.923-7.692h-192.77V-855H773.57q27.828 0 48.129 20.301T842-786.247v207.401h-43.769Z"/></svg>