<svg xmlns="http://www.w3.org/2000/svg" height="24" width="24"><path d="M19.7 7.55q.175.175.4.175.225 0 .4-.175.175-.175.175-.4 0-.225-.175-.4L19 5.25V2.425q0-.25-.163-.413-.162-.162-.412-.162-.25 0-.412.162-.163.163-.163.413v3q0 .075.2.475ZM6.25 17.3q.7 0 1.175-.488.475-.487.475-1.162 0-.7-.475-1.175Q6.95 14 6.25 14q-.675 0-1.162.475-.488.475-.488 1.175 0 .675.488 1.162.487.488 1.162.488Zm7.1 0q.7 0 1.175-.488.475-.487.475-1.162 0-.7-.475-1.175Q14.05 14 13.35 14q-.675 0-1.162.475-.488.475-.488 1.175 0 .675.488 1.162.487.488 1.162.488Zm-9.3 5.15q-.725 0-1.212-.488-.488-.487-.488-1.212v-1.5q-.45-.575-.675-1.2-.225-.625-.225-1.3v-9.8q0-.9.313-1.725.312-.825 1.337-1.45t2.975-.938q1.95-.312 5.225-.162-.225.525-.35 1.1-.125.575-.175 1.15-2.65-.075-4.3.175t-2.325.75h6.6q.025.575.15 1.138.125.562.325 1.112H3.7v2.75h9.325q1.05 1.1 2.487 1.7 1.438.6 2.638.6v3.6q0 .675-.225 1.3t-.675 1.2v1.5q0 .725-.487 1.212-.488.488-1.213.488-.725 0-1.212-.488-.488-.487-.488-1.212v-.3h-8.1v.3q0 .725-.487 1.212-.488.488-1.213.488Zm9.85-9.35H3.7h12.2-2Zm4.55-1.95q-2.375 0-4.038-1.663Q12.75 7.825 12.75 5.45t1.662-4.038Q16.075-.25 18.45-.25t4.038 1.662Q24.15 3.075 24.15 5.45t-1.662 4.037q-1.663 1.663-4.038 1.663ZM5.75 18.2h8.15q.825 0 1.412-.613.588-.612.588-1.437V13.1H3.7v3.05q0 .825.612 1.437.613.613 1.438.613Zm5-12.35h-6.6H10.75Z"/></svg>