<svg xmlns="http://www.w3.org/2000/svg" height="20" width="20"><path d="M3.062 6.042Q2.896 6.042 2.76 5.906Q2.625 5.771 2.625 5.604V3.271Q2.625 3.021 2.823 2.823Q3.021 2.625 3.271 2.625H5.604Q5.771 2.625 5.906 2.76Q6.042 2.896 6.042 3.042Q6.042 3.208 5.906 3.344Q5.771 3.479 5.625 3.479H3.479V5.604Q3.479 5.771 3.344 5.906Q3.208 6.042 3.062 6.042ZM3.271 17.375Q3.021 17.375 2.823 17.177Q2.625 16.979 2.625 16.729V14.396Q2.625 14.229 2.76 14.094Q2.896 13.958 3.062 13.958Q3.208 13.958 3.344 14.094Q3.479 14.229 3.479 14.375V16.521H5.625Q5.771 16.521 5.906 16.656Q6.042 16.792 6.042 16.938Q6.042 17.104 5.906 17.24Q5.771 17.375 5.604 17.375ZM14.396 17.375Q14.229 17.375 14.094 17.24Q13.958 17.104 13.958 16.938Q13.958 16.792 14.094 16.656Q14.229 16.521 14.396 16.521H16.521V14.375Q16.521 14.229 16.656 14.094Q16.792 13.958 16.938 13.958Q17.104 13.958 17.24 14.094Q17.375 14.229 17.375 14.396V16.729Q17.375 16.979 17.177 17.177Q16.979 17.375 16.729 17.375ZM16.958 6.042Q16.792 6.042 16.656 5.906Q16.521 5.771 16.521 5.604V3.479H14.396Q14.229 3.479 14.094 3.344Q13.958 3.208 13.958 3.062Q13.958 2.896 14.094 2.76Q14.229 2.625 14.396 2.625H16.729Q16.979 2.625 17.177 2.823Q17.375 3.021 17.375 3.271V5.604Q17.375 5.771 17.24 5.906Q17.104 6.042 16.958 6.042ZM14 13.979H14.979V14.979H14ZM14 12.021H14.979V13H14ZM13 13H14V13.979H13ZM12.042 13.979H13V14.979H12.042ZM11.042 13H12.042V13.979H11.042ZM13 11.042H14V12.021H13ZM12.042 12.021H13V13H12.042ZM11.042 11.042H12.042V12.021H11.042ZM14.979 5.021V8.958H11.042V5.021ZM8.958 11.042V14.979H5.021V11.042ZM8.958 5.021V8.958H5.021V5.021ZM8.229 14.229V11.75H5.771V14.229ZM8.229 8.229V5.771H5.771V8.229ZM14.229 8.229V5.771H11.771V8.229Z"/></svg>