<svg xmlns="http://www.w3.org/2000/svg" height="24" width="24"><path d="M12 21.5q-1.5 0-2.95-.475-1.45-.475-2.675-1.4L7.45 18.55q1.05.725 2.2 1.087Q10.8 20 12 20q3.325 0 5.663-2.337Q20 15.325 20 12t-2.337-5.663Q15.325 4 12 4T6.338 6.337Q4 8.675 4 12H2.5q0-1.975.75-3.7t2.037-3.013Q6.575 4 8.3 3.25q1.725-.75 3.7-.75t3.7.75q1.725.75 3.012 2.037Q20 6.575 20.75 8.3q.75 1.725.75 3.7 0 1.95-.75 3.688-.75 1.737-2.038 3.024Q17.425 20 15.7 20.75q-1.725.75-3.7.75Zm-7.825-4.15 3.85-3.875 3 2.5 5.15-5.125v2.975h1.45v-5.45h-5.45v1.45h2.975l-4.175 4.2-3-2.5-4.55 4.55q.2.4.35.663.15.262.4.612ZM12 12Z"/></svg>