<svg xmlns="http://www.w3.org/2000/svg" height="40" width="40"><path d="M32.583 35H7.417Q6.417 35 5.708 34.292Q5 33.583 5 32.583V7.417Q5 6.417 5.708 5.708Q6.417 5 7.417 5H32.583Q33.583 5 34.292 5.708Q35 6.417 35 7.417V32.583Q35 33.583 34.292 34.292Q33.583 35 32.583 35ZM19.292 19.292V6.417H7.417Q7.042 6.417 6.729 6.729Q6.417 7.042 6.417 7.417V19.292ZM19.292 20.708H6.417V32.583Q6.417 32.958 6.729 33.271Q7.042 33.583 7.417 33.583H19.292ZM20.708 20.708V33.583H32.583Q32.958 33.583 33.271 33.271Q33.583 32.958 33.583 32.583V20.708ZM20.708 19.292H33.583V7.417Q33.583 7.042 33.271 6.729Q32.958 6.417 32.583 6.417H20.708Z"/></svg>