<svg xmlns="http://www.w3.org/2000/svg" height="48" viewBox="0 -960 960 960" width="48"><path d="M260.65-71.37v-189.28H71.37v-179.87H346L409.76-343q4.76 8.48 12.62 12.86 7.86 4.38 16.45 4.38 12.41 0 21.95-7.24t13.7-18l56.76-164.04 38.52 57.52q4.52 8 13 12.5t17.24 4.5h289.87v179.87H700.59v189.28H260.65Zm168.11-368.35L391.24-498q-4.31-7.02-13.61-11.63-9.29-4.61-17.63-4.61H71.37v-186.35h189.28v-189.28h439.94v189.28h189.28v186.35H615l-63.76-97.52q-5.52-7.24-14-12.24t-16.95-5q-12.26 0-21.85 7.74-9.6 7.74-13.92 18.74l-55.76 162.8Z"/></svg>