<svg xmlns="http://www.w3.org/2000/svg" height="48" viewBox="0 -960 960 960" width="48"><path d="m637.23-672.62-32-32.69L671.31-771H306.15v-43.84H671l-66.08-66.08 32.31-32 120.15 120.15-120.15 120.15Zm-450.61 478.7h586.76v-206.16H186.62v206.16Zm101.97-55.39q19.14 0 33.51-14.15 14.36-14.14 14.36-33.67 0-19.52-14.34-33.89-14.34-14.36-33.48-14.36-19.52 0-33.89 14.34-14.36 14.34-14.36 33.86 0 19.53 14.34 33.7 14.34 14.17 33.86 14.17Zm383.46 0q19.14 0 33.51-14.15 14.36-14.14 14.36-33.67 0-19.52-14.34-33.89-14.34-14.36-33.48-14.36-19.52 0-33.89 14.34-14.36 14.34-14.36 33.86 0 19.53 14.34 33.7 14.34 14.17 33.86 14.17ZM142.77-443.92h611.38l-59.69-175.16H228.92L295-553l-32.69 31.62-119.77-119.77 119.77-120.16L295-729l-66.08 66.08h475.69q9.63 0 19.27 8.09 9.65 8.1 11.35 17.14l82 237.71v314.83q0 9.17-6.6 15.47-6.6 6.29-15.48 6.29h-8.43q-9.32 0-15.86-6.29-6.55-6.3-6.55-15.47v-64.93H195.69v64.93q0 9.17-6.6 15.47-6.6 6.29-15.47 6.29h-8.43q-9.32 0-15.87-6.29-6.55-6.3-6.55-15.47v-358.77Zm43.85 43.84v206.16-206.16Z"/></svg>