<svg xmlns="http://www.w3.org/2000/svg" height="20" width="20"><path d="M7.542 14.167Q7.188 14.167 6.927 13.906Q6.667 13.646 6.667 13.292V6.708Q6.667 6.354 6.927 6.094Q7.188 5.833 7.542 5.833H12.458Q12.812 5.833 13.073 6.094Q13.333 6.354 13.333 6.708Q13.333 7.062 13.073 7.323Q12.812 7.583 12.458 7.583H8.417V9.125H12.458Q12.812 9.125 13.073 9.385Q13.333 9.646 13.333 10Q13.333 10.354 13.073 10.615Q12.812 10.875 12.458 10.875H8.417V12.417H12.458Q12.812 12.417 13.073 12.677Q13.333 12.938 13.333 13.292Q13.333 13.646 13.073 13.906Q12.812 14.167 12.458 14.167Z"/></svg>