<svg xmlns="http://www.w3.org/2000/svg" height="24" viewBox="0 -960 960 960" width="24"><path d="M332.96-401q16.04 0 27.54-11.46 11.5-11.47 11.5-27.5 0-16.04-11.46-27.54-11.47-11.5-27.5-11.5-16.04 0-27.54 11.46-11.5 11.47-11.5 27.5 0 16.04 11.46 27.54 11.47 11.5 27.5 11.5Zm147 0q16.04 0 27.54-11.46 11.5-11.47 11.5-27.5 0-16.04-11.46-27.54-11.47-11.5-27.5-11.5-16.04 0-27.54 11.46-11.5 11.47-11.5 27.5 0 16.04 11.46 27.54 11.47 11.5 27.5 11.5Zm147 0q16.04 0 27.54-11.46 11.5-11.47 11.5-27.5 0-16.04-11.46-27.54-11.47-11.5-27.5-11.5-16.04 0-27.54 11.46-11.5 11.47-11.5 27.5 0 16.04 11.46 27.54 11.47 11.5 27.5 11.5Zm-145.9 298Q411-103 349.5-129T241-202q-47-47-73-108.44-26-61.45-26-131.5 0-70.06 26-131.56T241-682q47-47 108.44-73 61.45-26 131.5-26 70.06 0 131.56 26T721-682q47 47 73 108.44 26 61.45 26 131.5 0 70.06-26 131.56T721-202q-47 47-108.44 73-61.45 26-131.5 26ZM95-675q-9-9-9-19t9-19l114-114q8-8 18.5-8.5T247-827q9 9 9 19t-9 19L133-675q-8 8-18.5 8.5T95-675Zm772 0q-9 9-19 9t-19-9L715-789q-8-8-8.5-18.5T715-827q9-9 19-9t19 9l114 114q8 8 8.5 18.5T867-675Z"/></svg>