<svg xmlns="http://www.w3.org/2000/svg" height="48" viewBox="0 -960 960 960" width="48"><path d="M325.14-406.69q13.32 0 23.74-10.07 10.43-10.07 10.43-23.38 0-13.32-10.36-23.74-10.36-10.43-24.11-10.43-13.33 0-23.24 10.36-9.91 10.36-9.91 24.11 0 13.33 10.07 23.24 10.07 9.91 23.38 9.91Zm155 0q13.32 0 23.74-10.07 10.43-10.07 10.43-23.38 0-13.32-10.36-23.74-10.36-10.43-24.11-10.43-13.33 0-23.24 10.36-9.91 10.36-9.91 24.11 0 13.33 10.07 23.24 10.07 9.91 23.38 9.91Zm155 0q13.32 0 23.74-10.07 10.43-10.07 10.43-23.38 0-13.32-10.36-23.74-10.36-10.43-24.11-10.43-13.33 0-23.24 10.36-9.91 10.36-9.91 24.11 0 13.33 10.07 23.24 10.07 9.91 23.38 9.91ZM480.44-87.62q-74.03 0-138.47-27.46-64.43-27.46-112.93-75.27-48.5-47.8-76.27-112.49Q125-367.52 125-441.32q0-73.79 27.77-138.47 27.77-64.67 76.27-112.98t112.77-76.27Q406.09-797 479.62-797t137.88 27.96q64.35 27.96 112.65 76.27 48.31 48.31 76.27 112.79 27.96 64.47 27.96 138.3 0 73.83-27.96 138.68-27.96 64.85-76.27 112.65-48.3 47.81-112.63 75.27-64.32 27.46-137.08 27.46Zm-.06-352.76ZM76.69-686.19q-9.07-8.27-8.77-20.19.31-11.93 9.39-21l119.54-116.7q7.69-8.07 19.81-7.76 12.11.3 21.19 8.76 8.07 8.7 7.57 20.81-.5 12.12-8.02 19.74L117.69-685.77q-9.36 9.08-21.14 8.96-11.78-.11-19.86-9.38Zm807.39-.19q-9 9.46-20.96 9.76-11.97.31-20.04-9.15L723.54-802.46q-8.69-7.98-9.19-19.95-.5-11.97 8.8-20.67 8.31-8.46 19.81-8.76 11.5-.31 20.58 7.76l119.54 116.7q7.69 8.68 8.38 20.8.69 12.12-7.38 20.2ZM480.16-146q122.53 0 209.19-86.17Q776-318.34 776-441.16q0-122.98-86.85-210.22-86.84-87.23-209.49-87.23-122.8 0-209.54 86.55-86.73 86.56-86.73 210.15 0 123.6 86.57 209.76Q356.53-146 480.16-146Z"/></svg>