<svg xmlns="http://www.w3.org/2000/svg" height="40" viewBox="0 -960 960 960" width="40"><path d="M447.51-162.15q14.98 9.61 32.49 9.3 17.51-.3 32.49-9.25l181.89-110.49q-47.25-34.2-101.75-53.37-54.5-19.17-112.63-19.17-58.13 0-112.73 19.36T264.41-273.2l183.1 111.05Zm32.56-292.72q51.93 0 88.49-36.63 36.57-36.64 36.57-88.57 0-51.93-36.63-88.49-36.64-36.57-88.57-36.57-51.93 0-88.49 36.63-36.57 36.64-36.57 88.57 0 51.93 36.63 88.49 36.64 36.57 88.57 36.57Zm-32.56 351.69L170.08-272.64q-14.13-8.64-22.11-22.91-7.97-14.28-7.97-31.09v-306.72q0-16.81 7.97-31.09 7.98-14.27 22.11-23.16l277.43-169.21q14.98-9.36 32.49-9.36t32.49 9.36l277.43 169.21q14.13 8.89 22.11 23.16 7.97 14.28 7.97 31.09v306.72q0 16.81-7.97 31.09-7.98 14.27-22.11 22.91L512.49-103.18q-14.98 9.36-32.49 9.36t-32.49-9.36Z"/></svg>