<svg xmlns="http://www.w3.org/2000/svg" height="48" width="48"><path d="M23.4 47.15q-.6 0-1.025-.425-.425-.425-.425-1.025l-.75-19.1-8.65-4.95-.95 3.45 3.05 5.25q.25.5.075 1.05t-.625.9q-.55.3-1.125.15t-.875-.7l-3.35-5.6q-.15-.3-.175-.625-.025-.325.075-.725l1.9-6.8q0-.35.225-.55.225-.2.575-.4l11-6.35-4.25-4.4q-.45-.45-.45-1.025t.45-1.025q.4-.4.975-.4t1.075.4L25.5 9.7q.55.6.45 1.45-.1.85-.8 1.3l-5.4 3.1 5.05 3.6 15-13.35q.4-.3.9-.3t.95.4q.35.4.35.95 0 .55-.3.95L26 24.6l-.95 21.1q0 .65-.5 1.05t-1.15.4ZM9.5 14.05q-1.55 0-2.625-1.075T5.8 10.35q0-1.5 1.075-2.575Q7.95 6.7 9.5 6.7q1.5 0 2.6 1.075t1.1 2.575q0 1.55-1.1 2.625T9.5 14.05Z"/></svg>