<svg xmlns="http://www.w3.org/2000/svg" height="20" viewBox="0 -960 960 960" width="20"><path d="m470.91-185.07-.71-.23q-141.77-4.07-239.48-104.35Q133-389.93 133-531.83q0-144.78 101.12-245.77 101.11-100.99 246.06-100.99 72.35 0 135.2 27.46 62.84 27.46 109.77 74.39 46.94 46.94 74.39 109.83Q827-604.01 827-531.59q0 130.5-94.18 242.06-94.19 111.55-202.45 173.1-10.2 5.71-20.51 5.47-10.32-.24-19.75-5.95-9.44-5.72-14.91-14.54-5.48-8.81-5.24-21.25l.95-32.37ZM552-227.59q80-60 136-139.5t56-164.5q0-109-77.5-186.5T480-795.59q-109 0-186.5 77.5T216-531.59q0 109 77.5 186.5t186.5 77.5h72v40ZM480.24-337.2q18.02 0 30.56-12.54 12.55-12.54 12.55-30.56t-12.55-30.57q-12.54-12.54-30.56-12.54t-30.57 12.54q-12.54 12.55-12.54 30.57t12.54 30.56q12.55 12.54 30.57 12.54Zm-86.2-294.19q12.2 5.24 23.78-.12 11.57-5.36 20.53-16.32 7.76-10.28 18.35-14.8 10.59-4.52 23.92-4.52 21.18 0 34.85 12.1 13.66 12.1 13.66 30.55 0 21.76-14.62 36.5-14.62 14.74-28.1 27.67-18.84 16.4-28.06 32.73-9.22 16.34-9.22 29.62 0 15.27 8.72 25.95t22.91 10.68q11.62 0 19.77-7.62 8.14-7.62 11.1-18.86 2.72-13.52 10.26-24.28 7.54-10.76 16.83-20.04 17.91-18.63 36.03-38.13 18.12-19.5 18.12-56.7 0-45.19-30.24-73.17-30.24-27.98-77.48-27.98-34.19 0-60.65 13.38t-38.22 31.9q-9.19 13.68-7.43 29.83 1.76 16.15 15.19 21.63ZM480-511.59Z"/></svg>