<svg xmlns="http://www.w3.org/2000/svg" height="24" width="24"><path d="M11.425 19.575q-.275 0-.475-.2-.2-.2-.2-.475V6.675h-4.7q.375-1.05 1.3-1.663Q8.275 4.4 9.4 4.4h3.175q.6 0 1.025.425.425.425.425 1.025v1.375l2.575-2.6q.1-.075.25-.15t.275-.075q.125 0 .238.1.112.1.112.25v5.6q0 .15-.1.25t-.25.1q-.125 0-.275-.063-.15-.062-.25-.162l-2.575-2.6V18.9q0 .275-.213.475-.212.2-.487.2Zm1.95-7.6ZM11.4 18.95h1.975V12.3H11.4Zm0-7.275h1.975V5.85q0-.35-.225-.575-.225-.225-.575-.225H9.4q-.65 0-1.238.25-.587.25-.987.75H11.4Zm1.975 0V5.05v6.625Zm0 7.275V12.3v6.65Z"/></svg>