<svg xmlns="http://www.w3.org/2000/svg" height="20" viewBox="0 -960 960 960" width="20"><path d="m572-494 81-81-34-30-78 78 31 33Zm234 235-50-50-8-84.75 74-86.1L748-564l10-114.65L646-704l-60-99-106 44-106-44-42 69-33-33 56-95 125 53 125-53 69 116 133 30-13 136 90 100-90 100 12 121ZM374-157l106-44 106 44 49-80 18-4-167-167-57 56-120-119 34-34 86 89 25-24-224-224-26 6 8 94-74 83.82 75 85.77L202-280l112 25 60 98Zm-19 59-69-116-133-30 13-136-90-100 90-100-12-120 33-7-65-65 33-33 670 670-33 33-103-103-23 5-61 102-125-53-125 53Zm186-429Zm-146 28Z"/></svg>