<svg xmlns="http://www.w3.org/2000/svg" height="40" viewBox="0 -960 960 960" width="40"><path d="M476.77-373.03h97.33q24.18 0 41.32-16.94t17.14-41.52v-244.87q0-24.58-17.14-41.52-17.14-16.94-41.32-16.94h-80q-24.57 0-41.52 16.94-16.94 16.94-16.94 41.52v80.98q0 24.57 16.94 41.51 16.95 16.95 41.52 16.95h104.62v105.43q0 10.26-7.18 17.44-7.18 7.18-17.44 7.18h-97.33v33.84Zm121.95-197.74H494.1q-10.77 0-17.69-6.92-6.92-6.93-6.92-17.69v-80.98q0-10.26 6.92-17.43 6.92-7.18 17.69-7.18h80q10.26 0 17.44 7.18 7.18 7.17 7.18 17.43v105.59ZM306.15-267.69q-24.57 0-41.52-16.94-16.94-16.95-16.94-41.52v-455.39q0-24.58 16.94-41.52Q281.58-840 306.15-840h455.39q24.58 0 41.52 16.94Q820-806.12 820-781.54v455.39q0 24.57-16.94 41.52-16.94 16.94-41.52 16.94H306.15Zm0-33.85h455.39q9.23 0 16.92-7.69 7.69-7.69 7.69-16.92v-455.39q0-9.23-7.69-16.92-7.69-7.69-16.92-7.69H306.15q-9.23 0-16.92 7.69-7.69 7.69-7.69 16.92v455.39q0 9.23 7.69 16.92 7.69 7.69 16.92 7.69ZM198.46-160q-24.58 0-41.52-16.94Q140-193.88 140-218.46v-489.23h33.85v489.23q0 9.23 7.69 16.92 7.69 7.69 16.92 7.69h489.23V-160H198.46Zm83.08-646.15v504.61-504.61Z"/></svg>