<svg xmlns="http://www.w3.org/2000/svg" height="20" viewBox="0 -960 960 960" width="20"><path d="M168-168q-40.42 0-69.21-28.8Q70-225.6 70-266.04v-428.24q0-40.44 28.79-69.08T168-792h624q40.42 0 69.21 28.8Q890-734.4 890-693.96v428.24q0 40.45-28.79 69.08Q832.42-168 792-168H168Zm0-98h624v-428H168v428Zm513.45-48.14 56.1-208.72Q743-542 732.5-560T703-583l-364-99q-19-5-37 6t-23.45 30.14l-56.1 208.72Q217-418 227.5-400t29.5 23l364 99q19 5 37-6t23.45-30.14ZM599-386l-270-72 32-116 270 72-32 116ZM168-266v-428 428Z"/></svg>