<svg xmlns="http://www.w3.org/2000/svg" height="48" width="48"><path d="M30.3 32.85Q30.85 33.05 31.325 32.75Q31.8 32.45 31.95 31.9L34.7 21.2Q34.8 20.65 34.55 20.175Q34.3 19.7 33.75 19.5L17.8 15.15Q17.25 14.95 16.75 15.25Q16.25 15.55 16.15 16.1L13.35 26.7Q13.25 27.25 13.5 27.725Q13.75 28.2 14.3 28.35ZM30.8 31.8 14.35 27.25 17.3 16.15 33.75 20.65ZM9.3 37.4Q8.15 37.4 7.375 36.625Q6.6 35.85 6.6 34.7V13.3Q6.6 12.15 7.375 11.375Q8.15 10.6 9.3 10.6H38.7Q39.85 10.6 40.625 11.375Q41.4 12.15 41.4 13.3V34.7Q41.4 35.85 40.625 36.625Q39.85 37.4 38.7 37.4ZM7.7 36.3Q7.7 36.3 7.7 35.85Q7.7 35.4 7.7 34.7V13.3Q7.7 12.6 7.7 12.15Q7.7 11.7 7.7 11.7Q7.7 11.7 7.7 12.15Q7.7 12.6 7.7 13.3V34.7Q7.7 35.4 7.7 35.85Q7.7 36.3 7.7 36.3ZM9.3 36.3H38.7Q39.3 36.3 39.8 35.8Q40.3 35.3 40.3 34.7V13.3Q40.3 12.7 39.8 12.2Q39.3 11.7 38.7 11.7H9.3Q8.7 11.7 8.2 12.2Q7.7 12.7 7.7 13.3V34.7Q7.7 35.3 8.2 35.8Q8.7 36.3 9.3 36.3Z"/></svg>