<svg xmlns="http://www.w3.org/2000/svg" height="48" viewBox="0 -960 960 960" width="48"><path d="M325-156q-71.44 0-120.22-48.83T156-325.18Q156-358 168-389t35.96-54.78L330-570l26 25-126 124q-19 20.2-29.5 44.46T190-325q0 57 38.79 95.5T325-191q27.34 0 51.17-10.5Q400-212 420-232l126-124 24 25-126.04 125.22Q420-182 389.25-169T325-156Zm75-220-24-25 185-184 24 24-185 185Zm230-16-25-24 126-126q18-17 28.5-40.87 10.5-23.86 10.5-50.26 0-55.87-40.24-96.37-40.24-40.5-94.6-40.5-27.16 0-51.66 11-24.5 11-41.5 28L415-606l-23-25 125-123q23.04-24.55 54.02-37.28Q602-804 637-804q69.42 0 118.71 49.83Q805-704.34 805-634.87 805-600 792.5-570 780-540 756-516L630-392Z"/></svg>