<svg xmlns="http://www.w3.org/2000/svg" height="48" viewBox="0 -960 960 960" width="48"><path d="M480.15-80q-100.23 0-170.19-69.86Q240-219.71 240-320v-320q0-100.29 69.81-170.14Q379.63-880 479.85-880q100.23 0 170.19 69.86Q720-740.29 720-640v320q0 100.29-69.81 170.14Q580.37-80 480.15-80Zm-.25-30.77q87.48 0 148.41-60.85 60.92-60.85 60.92-148.38v-320q0-87.53-60.82-148.38-60.82-60.85-148.31-60.85-87.48 0-148.41 60.85-60.92 60.85-60.92 148.38v320q0 87.53 60.82 148.38 60.82 60.85 148.31 60.85Zm.4-549.23q16.08 0 27.89-12.11Q520-684.21 520-700.3q0-16.08-12.11-27.89Q495.79-740 479.7-740q-16.08 0-27.89 12.11Q440-715.79 440-699.7q0 16.08 12.11 27.89Q464.21-660 480.3-660ZM368.02-484.62q11.9 0 19.63-8.05 7.73-8.05 7.73-19.96t-8.05-19.64q-8.05-7.73-19.96-7.73t-19.64 8.05q-7.73 8.06-7.73 19.97 0 11.9 8.05 19.63 8.06 7.73 19.97 7.73Zm112.3 0q11.91 0 19.64-8.05t7.73-19.96q0-11.91-8.05-19.64-8.06-7.73-19.96-7.73-11.91 0-19.64 8.05-7.73 8.06-7.73 19.97 0 11.9 8.05 19.63 8.06 7.73 19.96 7.73Zm112.31 0q11.91 0 19.64-8.05t7.73-19.96q0-11.91-8.05-19.64-8.06-7.73-19.97-7.73-11.9 0-19.63 8.05-7.73 8.06-7.73 19.97 0 11.9 8.05 19.63 8.05 7.73 19.96 7.73ZM368.02-372.31q11.9 0 19.63-8.05 7.73-8.06 7.73-19.96 0-11.91-8.05-19.64t-19.96-7.73q-11.91 0-19.64 8.05-7.73 8.06-7.73 19.96 0 11.91 8.05 19.64 8.06 7.73 19.97 7.73Zm224.61 0q11.91 0 19.64-8.05 7.73-8.06 7.73-19.96 0-11.91-8.05-19.64-8.06-7.73-19.97-7.73-11.9 0-19.63 8.05-7.73 8.06-7.73 19.96 0 11.91 8.05 19.64t19.96 7.73Zm-112.31 0q11.91 0 19.64-8.05 7.73-8.06 7.73-19.96 0-11.91-8.05-19.64-8.06-7.73-19.96-7.73-11.91 0-19.64 8.05-7.73 8.06-7.73 19.96 0 11.91 8.05 19.64 8.06 7.73 19.96 7.73ZM368.02-260q11.9 0 19.63-8.05 7.73-8.06 7.73-19.97 0-11.9-8.05-19.63-8.05-7.73-19.96-7.73t-19.64 8.05q-7.73 8.05-7.73 19.96t8.05 19.64q8.06 7.73 19.97 7.73Zm224.61 0q11.91 0 19.64-8.05 7.73-8.06 7.73-19.97 0-11.9-8.05-19.63-8.06-7.73-19.97-7.73-11.9 0-19.63 8.05-7.73 8.05-7.73 19.96t8.05 19.64q8.05 7.73 19.96 7.73Zm-112.31 0q11.91 0 19.64-8.05 7.73-8.06 7.73-19.97 0-11.9-8.05-19.63-8.06-7.73-19.96-7.73-11.91 0-19.64 8.05t-7.73 19.96q0 11.91 8.05 19.64 8.06 7.73 19.96 7.73ZM480-480Z"/></svg>