<svg xmlns="http://www.w3.org/2000/svg" height="40" width="40"><path d="M4.625 28.667q-.333-.334-.333-.729 0-.396.333-.688l7.917-7.958q1.291-1.25 3.083-1.25 1.792 0 3.042 1.25l1.916 1.916q.709.709 1.688.709t1.646-.709l8.791-8.75h-4.25q-.416 0-.708-.27-.292-.271-.292-.73 0-.416.292-.708t.708-.292h6.417q.542 0 .896.355.354.354.354.895v6.417q0 .458-.292.729-.291.271-.708.271t-.708-.271q-.292-.271-.292-.729v-4.25l-8.792 8.75q-1.291 1.25-3.083 1.271-1.792.021-3.042-1.229l-1.958-1.959q-.708-.708-1.667-.687-.958.021-1.625.687L6 28.667q-.292.25-.688.271-.395.02-.687-.271Z"/></svg>