<svg xmlns="http://www.w3.org/2000/svg" height="20" width="20"><path d="M2.146 12.083q-.896 0-1.521-.604Q0 10.875 0 9.979V5.667q0-.459.188-.896.187-.438.5-.75L3.771.917q.25-.25.667-.334.416-.083.75.084.333.166.5.521.166.354.104.729l-.438 2.312h2.771q1.25 0 1.865.875.614.875.093 2.084l-1.541 3.541q-.271.604-.834.979-.562.375-1.27.375Zm4.396-2.104 1.583-3.625H3.042l.437-2.125-1.354 1.354v4.396Zm8.396 9.375q-.355-.146-.563-.521-.208-.375-.146-.771l.438-2.291h-2.771q-1.167 0-1.823-.886-.656-.885-.135-2.073l1.52-3.562q.271-.604.844-.979t1.281-.375h4.292q.896 0 1.51.604Q20 9.104 20 10v4.354q0 .458-.177.865-.177.406-.49.739l-3.062 3.104q-.229.209-.625.313-.396.104-.708-.021ZM13.479 10l-1.583 3.625v.021h5.083l-.437 2.104 1.333-1.354V10ZM2.125 9.979V5.583l1.354-1.354-.437 2.125h5.083L6.562 9.979H2.125Zm15.75.021v4.396l-1.333 1.354.437-2.104h-5.083v-.021L13.458 10h4.417Z"/></svg>