<svg xmlns="http://www.w3.org/2000/svg" height="40" viewBox="0 -960 960 960" width="40"><path d="m545.83-372.5-53-52.67-52.66-53L270.67-308l105.66 105.67 169.5-170.17ZM513-551l52.67 54 53 52.33 220.83-220.5L733.33-772 513-551ZM80-96.33l128.17-127.84-46.67-47.33v-72.17l242-243.16L655-336 412.5-93.5h-72.83l-50.17-49.33-47.5 46.5H80Zm323.5-490.5 333-333 249.67 252.66L655-336 403.5-586.83Zm162.17-251.84h-307V-902H629l-63.33 63.33ZM412.33-685.33H138.67v-63.34h337l-63.34 63.34ZM259-532H18.67v-63.33h303.66L259-532Z"/></svg>