<svg xmlns="http://www.w3.org/2000/svg" height="48" viewBox="0 -960 960 960" width="48"><path d="m607.424-409.577-56.154-55.539-55.154-55.769-219.192 219.116 111.307 111 219.193-218.808Zm-80.116-142.499 55.153 56.153 56.154 55.154 219.577-219.577-111.807-111.115-219.077 219.385ZM160.772-137.847l108.191-108.499-35.307-35.693v-38.653l246.768-247.269 173.575 174.268-245.96 245.576h-40.346l-38.731-38.923-49.193 49.193H160.772Zm319.652-430.114L749.423-836.96l173.46 174.383-268.884 268.884-173.575-174.268Zm143.807-245.116H303.078v-43.845h364.998l-43.845 43.845ZM479.616-668.462H183.078v-43.845h340.383l-43.845 43.845ZM335.002-523.847H63.078v-43.846h315.769l-43.845 43.846Z"/></svg>