<svg xmlns="http://www.w3.org/2000/svg" height="48" viewBox="0 -960 960 960" width="48"><path d="M184.35-61.04q-33.5 0-58.34-25.24-24.84-25.23-24.84-57.94v-611.87q0-33.73 24.84-58.73 24.84-25.01 58.34-25.01H239v-59.69h78.57v59.69h324.86v-59.69H721v59.69h54.65q33.74 0 58.74 25.01 25 25 25 58.73v327.13l-83.74 83.18v-227.44h-591.3v429h300.78l83.17 83.18H184.35Zm0-576.13h591.3v-118.92h-591.3v118.92Zm0 0v-118.92 118.92Zm489.39 596L525.96-188.96l58.34-59.34 89.44 89.43 177.3-177.3 60.35 57.34L673.74-41.17Z"/></svg>