<svg xmlns="http://www.w3.org/2000/svg" height="40" viewBox="0 -960 960 960" width="40"><path d="M70.86-301.41q-7.19 0-11.81-4.72-4.61-4.73-4.61-11.86V-523.3q0-6.3 4.76-11.08 4.77-4.77 11.61-4.77 6.83 0 11.45 4.77 4.61 4.78 4.61 11.08v205.31q0 7.13-4.82 11.86-4.82 4.72-11.19 4.72Zm109.92-119.44q-7.19 0-11.81-4.72-4.61-4.72-4.61-11.85v-205.31q0-6.3 4.77-11.08t11.6-4.78q6.83 0 11.45 4.78 4.61 4.78 4.61 11.08v205.31q0 7.13-4.82 11.85t-11.19 4.72ZM331.3-122.82q-23.4 0-40.13-16.73-16.73-16.73-16.73-40.15v-600.6q0-23.42 16.73-40.15 16.73-16.73 40.13-16.73h297.55q23.4 0 40.14 16.73 16.73 16.73 16.73 40.15v600.6q0 23.42-16.73 40.15-16.74 16.73-40.14 16.73H331.3Zm321.98-89.64H306.87v32.59q0 9.23 7.69 16.92 7.7 7.69 16.93 7.69h297.18q9.23 0 16.92-7.69 7.69-7.69 7.69-16.92v-32.59ZM306.87-747.54h346.41v-32.59q0-9.23-7.69-16.92-7.69-7.69-16.92-7.69H331.49q-9.23 0-16.93 7.69-7.69 7.69-7.69 16.92v32.59Zm472.76 446.13q-7.19 0-11.81-4.72-4.61-4.73-4.61-11.86V-523.3q0-6.3 4.76-11.08 4.77-4.77 11.61-4.77 6.83 0 11.45 4.77 4.61 4.78 4.61 11.08v205.31q0 7.13-4.82 11.86-4.82 4.72-11.19 4.72Zm109.92-119.44q-7.19 0-11.81-4.72-4.61-4.72-4.61-11.85v-205.31q0-6.3 4.77-11.08t11.6-4.78q6.83 0 11.45 4.78 4.61 4.78 4.61 11.08v205.31q0 7.13-4.82 11.85t-11.19 4.72ZM306.87-747.54v-57.2 57.2Zm0 535.08v57.2-57.2Zm0-32.44h346.41v-470.2H306.87v470.2Z"/></svg>