<svg xmlns="http://www.w3.org/2000/svg" height="48" width="48"><path d="M7.9 37.95V33.85H20.85Q20.85 33.85 20.85 33.85Q20.85 33.85 20.85 33.85V26.05Q20.85 26.05 20.85 26.05Q20.85 26.05 20.85 26.05H8V21.95H20.85Q20.85 21.95 20.85 21.95Q20.85 21.95 20.85 21.95V14.15Q20.85 14.15 20.85 14.15Q20.85 14.15 20.85 14.15H7.9V10.05H20.85Q22.6 10.05 23.775 11.225Q24.95 12.4 24.95 14.15V20.65Q24.95 21.9 24.2 22.925Q23.45 23.95 22.3 24.1Q23.45 24.25 24.2 25.175Q24.95 26.1 24.95 27.35V33.85Q24.95 35.6 23.8 36.775Q22.65 37.95 20.85 37.95ZM29.8 37.95V34.8H39.1V31.2H32.05Q31.15 31.2 30.475 30.55Q29.8 29.9 29.8 29V23.45Q29.8 22.55 30.45 21.875Q31.1 21.2 32 21.2H42.3V24.4H33V28H40.05Q41 28 41.65 28.65Q42.3 29.3 42.3 30.25V35.75Q42.3 36.65 41.65 37.3Q41 37.95 40.05 37.95Z"/></svg>