<svg xmlns="http://www.w3.org/2000/svg" height="40" viewBox="0 96 960 960" width="40"><path d="M677.761 418.239H600q-17.667 0-29.953-12.32-12.286-12.319-12.286-30.036 0-17.716 12.286-30.086 12.286-12.37 29.953-12.37h77.761V256q0-17.667 12.32-30.12 12.319-12.453 30.036-12.453 17.716 0 30.086 12.453 12.37 12.453 12.37 30.12v77.427H840q17.667 0 30.12 12.487 12.453 12.486 12.453 30.203 0 17.716-12.453 29.919T840 418.239h-77.427V496q0 17.667-12.487 29.953-12.486 12.286-30.203 12.286-17.716 0-29.919-12.286T677.761 496v-77.761Zm58.645 350.921q-44.507 84.051-122.76 134.102Q535.393 953.313 440 953.313q-140.384 0-238.849-98.464Q102.687 756.384 102.687 616q0-117.754 69.986-209.417 69.986-91.664 182.022-120.091 16.732-3.776 30.428.92 13.696 4.696 23.21 13.645 9.138 8.949 12.414 21.852 3.275 12.902-2.609 26.837-9.5 23.732-14.511 47.982-5.011 24.25-5.011 49.605 0 105.329 73.312 178.914 73.313 73.586 178.519 73.586 11.104 0 21.999-.561 10.895-.562 22.439-2.707 12.275-1.978 23.362 3.678 11.086 5.656 17.663 16.192 6.576 10.536 7.355 24.12.779 13.583-6.859 28.605Z"/></svg>