<svg xmlns="http://www.w3.org/2000/svg" height="20" width="20"><path d="M5.396 17.729Q5.167 17.729 5 17.562Q4.833 17.396 4.833 17.167Q4.833 17.021 4.917 16.854Q5 16.688 5.125 16.625L6.083 15.979Q4.854 15.896 4.01 14.99Q3.167 14.083 3.167 12.812V4.979Q3.167 3.146 4.812 2.302Q6.458 1.458 10 1.458Q13.667 1.458 15.25 2.271Q16.833 3.083 16.833 4.979V12.812Q16.833 14.083 15.99 14.99Q15.146 15.896 13.917 15.979L14.875 16.625Q15 16.688 15.083 16.854Q15.167 17.021 15.167 17.167Q15.167 17.396 15 17.562Q14.833 17.729 14.604 17.729ZM5.146 8.208H9.125V5.938H5.146ZM13.604 9.958H6.396Q5.875 9.958 5.51 9.958Q5.146 9.958 5.146 9.958H14.854Q14.854 9.958 14.49 9.958Q14.125 9.958 13.604 9.958ZM10.875 8.208H14.854V5.938H10.875ZM7.167 13.271Q7.708 13.271 8.073 12.906Q8.438 12.542 8.438 12Q8.438 11.458 8.073 11.094Q7.708 10.729 7.167 10.729Q6.625 10.729 6.26 11.094Q5.896 11.458 5.896 12Q5.896 12.542 6.26 12.906Q6.625 13.271 7.167 13.271ZM12.833 13.271Q13.375 13.271 13.74 12.906Q14.104 12.542 14.104 12Q14.104 11.458 13.74 11.094Q13.375 10.729 12.833 10.729Q12.292 10.729 11.927 11.094Q11.562 11.458 11.562 12Q11.562 12.542 11.927 12.906Q12.292 13.271 12.833 13.271ZM6.396 14.042H13.604Q14.125 14.042 14.49 13.688Q14.854 13.333 14.854 12.812V9.958H5.146V12.812Q5.146 13.333 5.51 13.688Q5.875 14.042 6.396 14.042ZM10 3.438Q8.354 3.438 7.208 3.635Q6.062 3.833 5.5 4.188H14.521Q14.104 3.812 12.99 3.625Q11.875 3.438 10 3.438ZM10 4.188Q11.875 4.188 12.99 4.188Q14.104 4.188 14.521 4.188H5.5Q6.062 4.188 7.208 4.188Q8.354 4.188 10 4.188Z"/></svg>