<svg xmlns="http://www.w3.org/2000/svg" height="24" viewBox="0 -960 960 960" width="24"><path d="M278.5-147.88q-22.9 0-39.07-16.24-16.16-16.23-16.16-39.03 0-22.79 16.23-39.15 16.24-16.35 39.03-16.35 22.8 0 39.15 16.31 16.36 16.31 16.36 39.22t-16.31 39.07q-16.32 16.17-39.23 16.17Zm338.62-304.2-125-125 138.65-162.11q14.92-17.66 35.84-28.56 20.91-10.9 44.66-10.9 34.72 0 58.36 23.6 23.64 23.61 23.64 58.56v14.76h-36.92v-15.04q0-19.15-12.95-32.06-12.95-12.9-32.17-12.9-14.74 0-28 7-13.27 7-23.46 18.08l-42.65 50.42v214.15Zm-31.21 77.46 77.55 77.7h-410l164.5-192.7L80.81-827.04l26.46-26.19L871.38-89.12l-26.19 26.47-312.34-311.97h53.06Zm-7.47 226.74q-22.65 0-39.01-16.24-16.35-16.23-16.35-39.03 0-22.79 16.33-39.15 16.33-16.35 39.27-16.35 22.45 0 38.81 16.31 16.36 16.31 16.36 39.22t-16.38 39.07q-16.38 16.17-39.03 16.17ZM451.85-617.35l-138.2-138.19q27.43-11.23 57.15-17.17 29.73-5.94 59.97-5.94 35.2 0 69.24 6.98 34.03 6.98 66.76 19.52l-114.92 134.8Z"/></svg>