<svg xmlns="http://www.w3.org/2000/svg" height="20" width="20"><path d="M9.375 7.667h6.917q-.584-1.479-1.75-2.605-1.167-1.124-2.73-1.52ZM7.646 9.354l3.5-5.979q-.208-.042-.563-.062-.354-.021-.583-.021-1.396 0-2.583.51-1.188.51-2.125 1.427ZM3.5 11.688h4.75L4.854 5.729q-.708.875-1.135 1.969Q3.292 8.792 3.292 10q0 .417.062.854.063.438.146.834Zm4.729 4.77 2.375-4.125H3.708q.625 1.521 1.782 2.625 1.156 1.104 2.739 1.5Zm1.771.25q1.417 0 2.604-.51 1.188-.51 2.104-1.427l-2.333-4.125-3.458 5.958q.229.063.541.084.313.02.542.02Zm5.146-2.437q.666-.875 1.114-1.99.448-1.114.448-2.281 0-.438-.052-.865t-.135-.823h-4.75ZM10 10Zm0 7.917q-1.646 0-3.083-.625-1.438-.625-2.511-1.698-1.073-1.073-1.698-2.511-.625-1.437-.625-3.083 0-1.625.625-3.073t1.698-2.521q1.073-1.073 2.511-1.698Q8.354 2.083 10 2.083q1.625 0 3.073.625t2.521 1.698q1.073 1.073 1.698 2.521T17.917 10q0 1.646-.625 3.083-.625 1.438-1.698 2.511-1.073 1.073-2.521 1.698T10 17.917Z"/></svg>