<svg xmlns="http://www.w3.org/2000/svg" height="20" viewBox="0 -960 960 960" width="20"><path d="M433.83-390.35h92.34V-650.7h-92.34v260.35Zm45.96 153.05q19.17 0 32.78-13.4 13.6-13.4 13.6-32.57 0-19.16-13.39-32.77-13.4-13.61-32.57-13.61t-32.78 13.4q-13.6 13.39-13.6 32.56t13.39 32.78q13.4 13.61 32.57 13.61ZM325.83-76.78q-25.49 0-43.25-17.76t-17.76-43.24v-612.44q0-25.48 17.76-43.24t43.25-17.76H395v-72h170v72h69.17q25.49 0 43.25 17.76t17.76 43.24v612.44q0 25.48-17.76 43.24t-43.25 17.76H325.83Z"/></svg>