<svg xmlns="http://www.w3.org/2000/svg" height="20" viewBox="0 -960 960 960" width="20"><path d="M498-178H148q-40.42 0-69.21-28.8Q50-235.6 50-276.04v-442.24q0-40.44 28.79-69.08T148-816h636q40.42 0 69.21 28.79Q882-758.42 882-718v220h-98v-220H148v442h350v98ZM356-303v-388l304 194-304 194ZM725.17-2 709-74q-10-2-21-8t-17-12l-71 19-44-77 53-52q-1-8-1-20t1-20l-53-51 44-78 70 18q6-7 17.5-13t21.5-8l17.17-74H818l19 74q10 2 21.5 7.5T876-357l70-15 44 75-52 50v22.16q0 10.95-1 20.84l53 51-44 77-71-18q-6 6-17 12t-21 7.69L817-2h-91.83Zm46.54-154q29.29 0 49.79-20.59t20.5-49.5q0-28.91-20.62-49.41-20.63-20.5-49.59-20.5Q742-296 722-275.79t-20 50Q702-196 722.21-176t49.5 20Z"/></svg>