<svg xmlns="http://www.w3.org/2000/svg" height="20" width="20"><path d="M3.333 12.375q-.187-.563-.302-1.177-.114-.615-.114-1.219 0-2.771 1.875-4.802 1.875-2.031 4.625-2.26h.104l-.229-.229q-.334-.334-.334-.792t.375-.834q.334-.333.792-.333t.833.333l2.146 2.188q.188.188.271.396.083.208.083.416 0 .209-.083.417-.083.209-.271.396l-2.208 2.208q-.334.334-.781.334-.448 0-.782-.355-.375-.333-.375-.791 0-.459.375-.833l.209-.209h-.104q-1.709.167-2.969 1.521-1.261 1.354-1.261 3.229 0 .417.073.813.073.396.177.729.104.312.032.635-.073.323-.282.532-.479.479-1.062.385-.584-.094-.813-.698Zm5.729 6.437-2.187-2.145q-.187-.188-.271-.396-.083-.209-.083-.417t.083-.416q.084-.209.271-.396l2.208-2.209q.334-.333.782-.333.447 0 .802.333.354.355.354.813 0 .458-.354.812l-.229.23h.124q1.709-.167 2.969-1.521 1.261-1.355 1.261-3.229 0-.417-.063-.813-.062-.396-.187-.75-.104-.313-.042-.635.062-.323.271-.532.479-.479 1.073-.395.594.083.823.687.208.583.312 1.198.104.614.104 1.24 0 2.77-1.875 4.802-1.875 2.031-4.625 2.26h-.125l.23.229q.333.333.333.792 0 .458-.333.791-.376.376-.834.376-.458 0-.792-.376Z"/></svg>