<svg xmlns="http://www.w3.org/2000/svg" height="24" viewBox="0 -960 960 960" width="24"><path d="m794.35-37.61-149-148.56h57q0 39.61-27.74 67.06-27.74 27.46-66.78 27.46H106.78q-51.78 0-87.37-35.31-35.58-35.3-35.58-87.65v-29.09q0-43.82 21.76-79.93 21.76-36.11 58.15-54.24 66.56-34 137.06-51t142.5-17q11.92 0 22.33.72 10.41.71 21.76 2.15l-51.35-51.91H331q-70.65-3.39-120.85-53.59-50.19-50.2-54.15-120.85V-674.96L46.09-785.43q-15.44-15.44-15.72-36.94-.28-21.5 15.72-37.5 15.43-15.43 36.93-15.43t37.5 15.43l748.26 748.83q15.44 15.43 15.72 36.43.28 21-15.72 37-15.43 16-36.93 16t-37.5-16Zm-95.78-400.74q52.82 7.13 100.13 21.94 47.3 14.8 89.21 37.97 42 21.87 65.13 55.9 23.13 34.02 23.13 71.37v122.21L776.91-328.22q-10.3-28.65-29.5-56.37-19.19-27.71-48.84-53.76Zm-121-88.65q22.26-34.57 33.67-74.33t11.41-80.45q0-48-14.78-93.29-14.78-45.28-44.35-82.71 18.31-7 37.05-9.5 18.73-2.5 37.6-2.5 77.44 0 132.44 55t55 133q0 87.87-66.2 143.48-66.19 55.6-151.19 41.39L577.57-527Zm-67.96-67.96L255.48-849.09q20-9.56 41.91-15.13 21.91-5.56 45.48-5.56 78 0 133 54.71 55 54.72 55 133.29 0 23.56-5.57 45.19-5.56 21.63-15.69 41.63Z"/></svg>