<svg xmlns="http://www.w3.org/2000/svg" height="24" width="24"><path d="m20.95 22.45-4.225-4.225q.1.7-.312 1.1-.413.4-.888.4H2.65q-.45 0-.75-.3t-.3-.75V17.65q0-.825.388-1.375.387-.55 1.062-.875 1.325-.65 2.675-1.05 1.35-.4 3.35-.4 1.25 0 2.163.15.912.15 1.762.4L9.5 11q-.1.025-.225.025H9.05q-1.425 0-2.412-.988-.988-.987-.988-2.412V7.4q0-.125.025-.225L2.15 3.65q-.225-.225-.225-.475 0-.25.225-.475.225-.225.475-.225.25 0 .475.225l18.8 18.8q.225.225.225.475 0 .25-.225.475-.225.225-.487.225-.263 0-.463-.225Zm-3.375-8.175q.875.15 1.688.437.812.288 1.587.688.725.35 1.138.95.412.6.412 1.2v1.375q0 .1-.05.225L17.9 14.7q-.225-.1-.287-.2-.063-.1-.038-.225Zm-3.8-3.7q.375-.675.588-1.438.212-.762.212-1.512 0-.9-.263-1.725-.262-.825-.737-1.575.15-.05.325-.075.175-.025.325-.025 1.425 0 2.412.987.988.988.988 2.413 0 1.6-1.025 2.475t-2.45.85ZM12.2 9 7.675 4.475q.35-.1.675-.175.325-.075.7-.075 1.425 0 2.413.987.987.988.987 2.413 0 .375-.075.7Q12.3 8.65 12.2 9Z"/></svg>