<svg xmlns="http://www.w3.org/2000/svg" height="48" viewBox="0 -960 960 960" width="48"><path d="M729.01-46Q651-46 596-100.7q-55-54.69-55-132.3 0-78.43 54.99-133.72 54.98-55.28 133-55.28Q807-422 862-366.72q55 55.29 55 133.72 0 77.61-54.99 132.3-54.98 54.7-133 54.7Zm-.23-57q12.22 0 20.22-7.78 8-7.78 8-20 0-12.22-7.78-20.22-7.78-8-20-8-12.22 0-20.22 7.78-8 7.78-8 20 0 12.22 7.78 20.22 7.78 8 20 8ZM709-185h40v-10.95q0-12.05 6.5-22.05t15.23-18.4Q786-249 795.5-261.5 805-274 805-294q0-31.72-21.3-50.86Q762.41-364 728.78-364 703-364 682-349.5t-29 39.99L689-294q2-14 13.5-23.5t26.95-9.5q16.55 0 26.05 8.25T765-294q0 11-7 19.5T743-258q-8 7-15.5 14T715-229q-4 7-5 13.3-1 6.3-1 14.7v16ZM506-345Zm-21 60ZM327-439h60v-123q0-38.78 27-66.39T480-656v-60q-64 0-108.5 45.24Q327-625.53 327-562v123ZM80-120v-225h123v-217q0-115 81-196.5T480-840q115 0 196 81.5T757-562v80q-7.24-.67-14.12-.83Q736-483 728.5-483q-7.5 0-15.36.33-7.86.34-16.14 1.67v-81q0-91-63-154.5T480-780q-91 0-154 63.62T263-562.5V-345h243q-7 14-12.6 29.08-5.6 15.08-8.4 30.92H140v105h346.33q3.67 16 8.17 31t12.5 29H80Z"/></svg>