<svg xmlns="http://www.w3.org/2000/svg" height="24" width="24"><path d="M12.05 21.2q-.475 0-.787-.313-.313-.312-.313-.762v-1.1q-1.175-.275-2.05-.938-.875-.662-1.4-1.787-.2-.45 0-.913.2-.462.725-.662.425-.175.863.025.437.2.712.65.425.675 1.025 1.013.6.337 1.425.337.975 0 1.6-.4.625-.4.625-1.25 0-.775-.562-1.275-.563-.5-2.538-1.125-2.1-.65-2.925-1.65-.825-1-.825-2.4 0-1.575 1.012-2.538Q9.65 5.15 10.95 4.925v-1.05q0-.45.313-.763.312-.312.787-.312.475 0 .788.312.312.313.312.763v1.05q.95.2 1.675.663.725.462 1.2 1.162.275.4.1.887-.175.488-.7.713-.375.15-.812.013-.438-.138-.888-.538-.3-.3-.712-.463-.413-.162-.988-.162-1 0-1.475.4-.475.4-.475 1 0 .725.638 1.162.637.438 2.537.988 1.8.525 2.738 1.65.937 1.125.937 2.65 0 1.825-1.087 2.8-1.088.975-2.688 1.225v1.05q0 .45-.312.762-.313.313-.788.313Z"/></svg>