<svg xmlns="http://www.w3.org/2000/svg" height="48" width="48"><path d="M47.4 36.5q-.65 1.55-2.1 2.475-1.45.925-3.2.925h-10q-.8 0-1.375-.55T30.15 38q0-.8.575-1.375t1.375-.575h4L32 31.9h-7.95q0 3.4-2.375 5.7-2.375 2.3-5.575 2.3h-12q-1.9 0-2.925-1.2T.15 36q0-1 .525-1.925T2.3 32.55l7.1-3.9-6.15-1.8q-1.3-.35-1.775-1.425Q1 24.35 1.6 23.15l1.15-2.25q.6-1.2 1.925-1.9Q6 18.3 7.3 18.45l14.85 1.6 6.3-4.7-1.75-1.55h-2.65q-.8 0-1.35-.55t-.55-1.3q0-.8.55-1.35t1.35-.55h3.35q.4 0 .725.15.325.15.625.35l13.9 12.9q.75.75 1.075 1.55.325.8.325 1.5 0 2-1.25 3.45-1.25 1.45-3.6 1.85l-2.05.1 4.4 4.15H42q.4 0 .8-.175t.6-.475q.55-.35 1.05-.85t1.3-.5q.95 0 1.475.775.525.775.175 1.675Zm-41.55-.45H16.1q1.6 0 2.75-1.2T20 31.9l-5.4-1.65-8.95 4.8q-.2.1-.25.225-.05.125-.05.275 0 .2.15.35.15.15.35.15Zm14.9-8h16.6q1.25 0 1.95-.35t.75-1.35l-8.9-8.25-7.9 5.95-16.8-1.85-.85 1.55Zm2.1-5Z"/></svg>