<svg xmlns="http://www.w3.org/2000/svg" height="48" viewBox="0 -960 960 960" width="48"><path d="M97.22-233.07h223.63q35.98 0 60.8-26.97 24.83-26.97 24.83-65.09L290.2-360.96 93.22-255.57q-3.5 1.77-5.25 4.89-1.75 3.11-1.75 6.61 0 4.5 3.25 7.75t7.75 3.25Zm315.21-160h333.2q28.45 0 44.53-9.29 16.08-9.3 16.08-32.14L622.48-605.74 461.91-484.2l-338.06-37.76-20.81 40.13 309.39 88.76Zm42.33-106.95Zm487.09 260.1q0 5.72-2.03 11.81-2.02 6.08-6.69 10.5-16.48 22.22-40.54 36.2-24.07 13.98-51.63 13.98h-200q-13.93 0-23.25-9.38-9.32-9.37-9.32-23.37 0-13.99 9.32-23.44 9.32-9.45 23.25-9.45h93.95l-94.37-94.36H473.78q0 66.97-44.92 113.48-44.93 46.52-107.9 46.52h-240q-34.89 0-53.73-22.45-18.84-22.45-18.84-49.76 0-18.47 9.23-35.72t28.92-28.23l155.16-84.95-134.05-39.18q-21.87-6.21-31.69-27.1-9.83-20.88 1.37-42.25l33.06-64.41q6.62-14.45 19.84-21.77 13.21-7.32 29.14-5.82l323.89 35.77 133.39-98.85-41.67-37.92h-55.46q-13.53 0-22.33-9.01-8.8-9.01-8.8-22.53 0-13.52 8.96-22.49 8.97-8.97 22.41-8.97h53.78q12.69 0 24.37 4.85 11.68 4.85 20.87 12.81l266.81 247.3q15.45 14.72 21.94 29.06 6.49 14.34 6.49 29.25 0 37.06-29.49 65.29-29.49 28.23-74.36 35.14l-43 2 100.85 94.3h10.55q12.65 0 23.75-5.51 11.09-5.51 17.35-16.05 3.98-8.22 12.23-13.33 8.24-5.11 17.24-5.11 14.58 0 23.65 9.58 9.06 9.57 9.06 23.57Z"/></svg>