<svg xmlns="http://www.w3.org/2000/svg" height="40" width="40"><path d="M39.667 30.5Q39.125 31.917 37.854 32.708Q36.583 33.5 35.083 33.5H26.75Q26 33.5 25.458 32.979Q24.917 32.458 24.917 31.667Q24.917 30.875 25.458 30.354Q26 29.833 26.75 29.833H29.583L26.583 26.833H20.25Q20.25 29.625 18.208 31.562Q16.167 33.5 13.417 33.5H3.417Q1.75 33.5 0.833 32.396Q-0.083 31.292 -0.083 30Q-0.083 29.125 0.375 28.292Q0.833 27.458 1.792 26.958L7.25 23.958L2.792 22.625Q1.583 22.292 1.125 21.25Q0.667 20.208 1.208 19.042L1.958 17.583Q2.542 16.417 3.833 15.708Q5.125 15 6.417 15.167L18.375 16.458L23.5 12.667L22.25 11.542H19.958Q19.208 11.542 18.729 11.042Q18.25 10.542 18.25 9.833Q18.25 9.125 18.729 8.646Q19.208 8.167 19.958 8.167H22.833Q23.208 8.167 23.521 8.292Q23.833 8.417 24.125 8.667L35.5 19.25Q36.333 20 36.646 20.708Q36.958 21.417 36.958 22.083Q36.958 23.708 35.708 25Q34.458 26.292 32.375 26.667L31.25 26.708L34.542 29.833H34.833Q35.208 29.833 35.521 29.688Q35.833 29.542 36 29.25Q36.458 28.958 36.896 28.562Q37.333 28.167 37.958 28.167Q38.917 28.167 39.458 28.917Q40 29.667 39.667 30.5ZM5.208 29.833H13.417Q14.667 29.833 15.521 28.938Q16.375 28.042 16.375 26.792L12.208 25.5L5.125 29.292Q5.042 29.333 5 29.396Q4.958 29.458 4.958 29.542Q4.958 29.667 5.042 29.75Q5.125 29.833 5.208 29.833ZM17.292 23.167H31.25Q32.083 23.167 32.562 22.896Q33.042 22.625 33.042 21.958L26 15.375L19.458 20.333L5.458 18.792L4.875 19.958ZM18.958 19.25Q18.958 19.25 18.958 19.25Q18.958 19.25 18.958 19.25Z"/></svg>