<svg xmlns="http://www.w3.org/2000/svg" height="24" viewBox="0 -960 960 960" width="24"><path d="M206.78-60.78q-44.3 0-75.15-30.85-30.85-30.85-30.85-75.15v-546.44q0-44.3 30.85-75.15 30.85-30.85 75.15-30.85H240V-853q0-19.26 13.76-32.74t33.02-13.48q19.26 0 32.74 13.48T333-853v33.78h294V-853q0-19.26 13.76-32.74t33.02-13.48q19.26 0 32.74 13.48T720-853v33.78h33.22q44.3 0 75.15 30.85 30.85 30.85 30.85 75.15v181.92q0 22.08-15.46 37.54t-37.54 15.46q-22.09 0-37.55-15.46-15.45-15.46-15.45-37.54V-560H206.78v393.22h195.91q22.09 0 37.55 15.45 15.45 15.46 15.45 37.55 0 22.08-15.45 37.54-15.46 15.46-37.55 15.46H206.78ZM760 24.31q-62.3 0-112.24-32.11-49.93-32.11-75.33-82.89-7.82-13.83 2.79-27.72 10.61-13.89 28.82-13.89 20.79 0 39.64 10.48 18.84 10.47 34.89 22.91 14.04 17.3 35.3 27.26Q735.13-61.7 760-61.7q51.78 0 88.54-36.76Q885.3-135.22 885.3-187q0-52.35-36.47-88.82Q812.35-312.3 760-312.3q-23.91 0-44.11 7.67-20.19 7.67-34.67 21.59h12.17q15.26 0 26.02 11.32 10.76 11.33 10.76 31.68 0 18.09-12.45 30.54-12.46 12.46-30.55 12.46H588.7q-22.09 0-37.55-15.46-15.46-15.45-15.46-37.54v-98.48q0-18.09 13.59-30.54 13.59-12.46 39.02-12.46 14.13 0 23.77 9.63 9.63 9.63 9.63 23.76v11.74q26.43-23.74 62.15-37.83Q719.57-398.3 760-398.3q88.09 0 149.7 61.6 61.6 61.61 61.6 149.7 0 87.52-61.6 149.41-61.61 61.9-149.7 61.9ZM206.78-640h546.44v-73.22H206.78V-640Zm0 0v-73.22V-640Z"/></svg>