<svg xmlns="http://www.w3.org/2000/svg" height="20" viewBox="0 -960 960 960" width="20"><path d="M651-457v23.58q0 9.52 7.05 16.47Q665.1-410 674.5-410q9.4 0 16.45-7.05Q698-424.1 698-433.5V-457h7q9.6 0 16.3-6.7 6.7-6.7 6.7-16.3 0-9.6-6.7-16.3-6.7-6.7-16.3-6.7h-7v-23.58q0-9.52-7.05-16.47Q683.9-550 674.5-550q-9.4 0-16.45 7.05Q651-535.9 651-526.5v23.5h-24q-9.6 0-16.3 6.7-6.7 6.7-6.7 16.3 0 9.6 6.7 16.3 6.7 6.7 16.3 6.7h24Zm-163 0 50.47 62q1.53 1 15.15 8 12.88 0 18.88-10.62 6-10.62-2-21.14L525-479.62 572-541q7.5-10.2 1.54-21.1-5.97-10.9-19.38-10.9-5.14 0-8.96 1.95-3.82 1.96-6.73 5.99L488.5-503v-47.5q0-9.4-6.62-15.95-6.62-6.55-16.13-6.55-9.51 0-16.13 6.53-6.62 6.54-6.62 15.92v140.67q0 9.38 6.55 16.13Q456.1-387 465.5-387q9.4 0 15.95-6.55Q488-400.1 488-409.5V-457Zm-138 25h-73.5q-9.4 0-15.95 6.55Q254-418.9 254-409.5q0 9.4 6.55 15.95Q267.1-387 276.5-387H373q9.35 0 15.67-6.33Q395-399.65 395-409v-68q0-9.35-6.33-15.67Q382.35-499 373-499h-74v-29h73.5q9.4 0 15.95-6.55Q395-541.1 395-550.5q0-9.4-6.55-15.95Q381.9-573 372.5-573h-96q-9.4 0-15.95 6.55Q254-559.9 254-550.5v67q0 9.4 6.55 15.95Q267.1-461 276.5-461H350v29ZM232-119q-47.64 0-80.32-32.68Q119-184.36 119-232v-496q0-47.64 32.68-80.32Q184.36-841 232-841h496q47.64 0 80.32 32.68Q841-775.64 841-728v496q0 47.64-32.68 80.32Q775.64-119 728-119H232Zm0-113h496v-496H232v496Zm0-496v496-496Z"/></svg>