<svg xmlns="http://www.w3.org/2000/svg" height="20" viewBox="0 -960 960 960" width="20"><path d="M760-696H362.77q-8 0-12-4.96-4-4.95-4-10.9t4-11.04q4-5.1 12-5.1H760q6.8 0 11.4 4.55 4.6 4.54 4.6 11.27 0 6.72-4.6 11.45Q766.8-696 760-696Zm64.77 115.69v307.16q0 8-4.96 12-4.95 4-10.9 4t-11.04-3.9q-5.1-3.9-5.1-11.33v-304.24H618v104.08q0 8-4.96 12-4.95 4-10.9 4t-11.04-3.9q-5.1-3.9-5.1-11.33v-108.54q0-12.03 8.13-20.17 8.12-8.14 20.14-8.14h181.91q12.01 0 20.3 8.14 8.29 8.14 8.29 20.17ZM614.31-232q-12.03 0-20.17-8.14-8.14-8.14-8.14-20.17v-66.31l-322-322V-268h177.23q7.5 0 12.75 5.29t5.25 12.85q0 7.55-5.25 12.71-5.25 5.15-12.75 5.15H154q-7.5 0-12.75-5.29T136-250.14q0-7.55 5.25-12.71Q146.5-268 154-268h78v-412.62l-76.1-76.1q-5.75-5.74-6.13-11.4-.39-5.65 6-12.03 6.38-6.39 11.65-6.39 5.27 0 11.66 6.39l606.46 606.46q5.61 5.61 6 10.77.38 5.15-6 11.54-6.39 6.38-11.66 6.38-5.26 0-11.78-6.38L680.62-232h-66.31Zm91.07-130.54Z"/></svg>