<svg xmlns="http://www.w3.org/2000/svg" height="20" viewBox="0 -960 960 960" width="20"><path d="M86.78-134.78v-594.94h196.05l78.02-95.5h238.41l78.06 95.5h195.9v594.94H86.78Zm93-93h600.44v-408.94H635.11l-77.23-95.5H403.87l-80.26 95.5H179.78v408.94ZM480-433.5ZM331.52-287.22h296.96v-36.13q0-38.02-40.73-62.68Q547.02-410.7 480-410.7q-67.02 0-107.75 24.67-40.73 24.66-40.73 62.68v36.13ZM480.21-437.7q30.81 0 52.06-21.46 21.25-21.46 21.25-52.27 0-30.81-21.46-51.78-21.46-20.96-52.27-20.96-30.81 0-52.06 21.17-21.25 21.18-21.25 51.99 0 30.82 21.46 52.07 21.46 21.24 52.27 21.24Z"/></svg>