<svg xmlns="http://www.w3.org/2000/svg" height="48" viewBox="0 -960 960 960" width="48"><path d="M265.39-39.02q-27.88 0-46.88-19.16-18.99-19.15-18.99-46.47v-750.7q0-26.66 19.6-46.27 19.6-19.6 46.27-19.6h428.72q27.42 0 46.64 19.23 19.23 19.23 19.23 46.64v145.65q17.5 4.05 29.37 17.99 11.87 13.94 11.87 31.79v71.68q0 19.52-11.87 33.99-11.87 14.47-29.37 17.94v431.66q0 27.32-19.23 46.47-19.22 19.16-46.64 19.16H265.39Zm214.54-253.33q13.57 0 22.82-9.18t9.25-22.75q0-13.33-9.18-22.7t-22.75-9.37q-13.57 0-22.82 9.3T448-324.42q0 13.57 9.18 22.82t22.75 9.25Zm.25-97.54q12.32 0 20.57-8.38 8.25-8.37 8.25-20.62v-209.52q0-11.68-8.43-20.09-8.42-8.41-20.75-8.41-12.32 0-20.32 8.41t-8 20.09v209.52q0 12.25 8.18 20.62 8.17 8.38 20.5 8.38Z"/></svg>