<svg xmlns="http://www.w3.org/2000/svg" height="48" viewBox="0 -960 960 960" width="48"><path d="M517-150Zm-290 0v-116.65q0-69.08 36-125.71Q299-449 361-480q-62-31-98-87.96-36-56.95-36-126.39V-810h-42q-20.75 0-33.37-13.56Q139-837.12 139-855.77q0-20.05 12.63-33.14Q164.25-902 185-902h591q19.65 0 32.83 13.26Q822-875.47 822-855.92t-13.17 32.74Q795.65-810 776-810h-42v116q0 77.65-43 140.82Q648-490 576-461q12 5 26.5 12.5T627-433q-7 6-18.5 16T588-397q-24-15-51.17-24-27.16-9-56.83-9-66.46 0-114.23 48Q318-334 318-267.06V-150h199q6 27 17.52 49.4Q546.03-78.21 562-59H185.47q-21.22 0-33.84-12.86Q139-84.72 139-104.36T151.63-137q12.62-13 33.37-13h42Zm253.04-380q66.49 0 114.22-48.5Q642-627 642-693.94V-810H318v116.06q0 66.94 47.78 115.44T480.04-530ZM809-299q-9 0-16 6t-7 16.06V-156q0 10.4 7 16.2 7 5.8 15 5.8 10 0 16.5-5.2t6.5-16.86v-120.88q0-10.06-6.5-16.06-6.5-6-15.5-6ZM704-134q10 0 16-5.7t6-17.3v-120q0-10-6.5-16t-15.5-6q-9 0-16 6t-7 16.06v120.88q0 11.66 7.5 16.86Q696-134 704-134Zm52 108q-78 0-134-55.4t-56-134q0-78.6 56-134.6t134-56q78 0 134 55.87 56 55.86 56 135.13 0 78.43-56 133.72Q834-26 756-26ZM480-810Z"/></svg>