<svg xmlns="http://www.w3.org/2000/svg" height="20" viewBox="0 -960 960 960" width="20"><path d="M216-58.65q-48 0-81.48-33.88-33.48-33.87-33.48-81.08v-160.52l140.87-158.31L323.35-412l-83.09 95.83h479.48l-94.09-108.4L707.09-506l151.87 171.87V-174q0 47.9-33.48 81.62Q792-58.65 744-58.65H216Zm0-114.96h528v-70.56H216v70.56Zm190.56-240.48L287.74-534.04q-26.52-27.74-27.02-65.2-.5-37.46 26.58-64.54l186.96-186.96q26.92-26.8 64.17-26.6 37.24.21 64.44 27.86l119.26 119.83q27.09 27.65 25.74 64.62-1.35 36.96-28.44 64.25L532.87-413.65Q506.32-387 469.98-387q-36.33 0-63.42-27.09Zm216.7-253.26-85.39-83.69-152.7 152.69L470-514.09l153.26-153.26ZM216-173.61v-70.56 70.56Z"/></svg>