<svg xmlns="http://www.w3.org/2000/svg" height="48" width="48"><path d="M16 35.35Q17.65 36.65 19.7 37.325Q21.75 38 24 38Q29.85 38 33.925 33.925Q38 29.85 38 24Q38 18.7 34.55 14.775Q31.1 10.85 26.05 10.1Q25.15 10.05 24.575 10.575Q24 11.1 24 11.95V24L15.8 32.6Q15.2 33.2 15.275 34.025Q15.35 34.85 16 35.35ZM24.05 45Q19.55 45 15.7 43.375Q11.85 41.75 9.05 38.95Q6.25 36.15 4.625 32.3Q3 28.45 3 23.95Q3 19.5 4.6 15.675Q6.2 11.85 9.025 9.025Q11.85 6.2 15.7 4.575Q19.55 2.95 24.05 2.95Q28.5 2.95 32.325 4.575Q36.15 6.2 38.975 9.025Q41.8 11.85 43.425 15.675Q45.05 19.5 45.05 24Q45.05 28.45 43.425 32.3Q41.8 36.15 38.975 38.975Q36.15 41.8 32.325 43.4Q28.5 45 24.05 45Z"/></svg>