<svg xmlns="http://www.w3.org/2000/svg" height="20" viewBox="0 -960 960 960" width="20"><path d="M700.6-184.48q-10.31 0-16.87-7.4-6.56-7.41-6.56-17.86v-146.39q0-10.46 6.56-17.42 6.56-6.97 17.01-6.97h23.93v-49q0-30.16 21.76-51.28 21.76-21.11 52.86-21.11 31.1 0 52.77 21.11 21.66 21.12 21.66 51.28v49h23.93q10.45 0 17.01 6.97 6.56 6.96 6.56 17.42v146.39q0 10.45-6.56 17.86-6.56 7.4-16.86 7.4H700.6Zm63.6-196.04h70v-49q0-14.88-9.99-24.94t-24.75-10.06q-14.76 0-25.01 10.06-10.25 10.06-10.25 24.94v49ZM479.67-182.85q-30.69 0-52.23-21.86-21.53-21.86-21.53-52.55 0-30.7 21.86-52.23 21.86-21.53 52.56-21.53 30.69 0 52.23 21.86 21.53 21.86 21.53 52.55 0 30.7-21.86 52.23-21.86 21.53-52.56 21.53ZM75-557.67 3.65-630.15q95.89-93.65 218.58-144.36 122.69-50.71 257.87-50.71t257.55 50.71q122.37 50.71 217.7 144.36l-73.91 73.98q3.13 1.56 5.16 2.59 2.03 1.04 5.16 2.6-83.36-82.65-188.95-127.26Q597.23-722.85 480-722.85q-113.82 0-218.31 42.55Q157.2-637.76 75-557.67Zm122.59 120.71-72.42-70.41q71.59-70.29 163.42-107.8 91.82-37.5 191.36-37.5 85.76 0 165.76 27.14 80.01 27.14 147.47 80.42-32.46 1.87-62.64 12.94-30.17 11.06-54.43 31.32-45.7-24.76-94.46-36.86-48.76-12.09-100.93-12.09-80.01 0-152.79 28.47-72.78 28.48-130.34 84.37Zm123.08 122.22-73.41-71.91q48.2-45.46 107.85-69.22 59.64-23.76 123.9-23.76 38.87 0 77.17 8.63 38.3 8.63 74.06 26.89-14.26 22.76-20.21 48.02-5.94 25.26-9.64 52.59-27.06-15.06-58.02-24.41-30.96-9.35-62.52-9.35-45.13 0-86.65 16.15-41.53 16.15-72.53 46.37Z"/></svg>