<svg xmlns="http://www.w3.org/2000/svg" height="40" viewBox="0 -960 960 960" width="40"><path d="M282.57-60q-25.71 0-44.14-18.43T220-122.57v-714.86q0-25.79 18.39-44.18T282.57-900H677.9q25.9 0 44.23 18.43t18.33 44.14v139.02q16.72 2.41 28.13 14.78Q780-671.27 780-654.85v72.62q0 17.18-11.41 29.47-11.41 12.3-28.13 14.71v415.48q0 25.71-18.33 44.14T677.9-60H282.57Zm0-50.26H677.9q5.38 0 8.84-3.46 3.47-3.46 3.47-8.85v-714.86q0-5.39-3.47-8.85-3.46-3.46-8.84-3.46H282.57q-5.39 0-8.85 3.46t-3.46 8.85v714.86q0 5.39 3.46 8.85t8.85 3.46Zm-12.31 0v-739.48 739.48ZM442-444.61l-45.08-45.08q-7.61-7.62-17.69-7.62-10.08 0-17.69 7.62-7.62 7.61-7.42 17.88.19 10.27 7.42 17.5l58.54 58.54q9.4 9.36 21.94 9.36 12.54 0 21.9-9.36l144.54-144.54q7.62-7.61 7.62-17.69 0-10.08-7.62-17.69-7.61-7.62-17.88-7.42-10.27.19-17.5 7.42L442-444.61Z"/></svg>