<svg xmlns="http://www.w3.org/2000/svg" height="40" viewBox="0 -960 960 960" width="40"><path d="M315.88 0q-14.21 0-23.71-9.62-9.5-9.61-9.5-23.83 0-14.22 9.61-23.72 9.62-9.5 23.84-9.5 14.21 0 23.71 9.62t9.5 23.83q0 14.22-9.61 23.72Q330.1 0 315.88 0ZM480 0q-13.88 0-23.27-9.83-9.4-9.84-9.4-23.5 0-13.67 9.49-23.5 9.48-9.84 23.5-9.84 14.01 0 23.85 9.62Q514-47.43 514-33.22 514-19 504.22-9.5 494.45 0 480 0Zm164.55 0q-14.22 0-23.72-9.62-9.5-9.61-9.5-23.83 0-14.22 9.62-23.72 9.62-9.5 23.83-9.5 14.22 0 23.72 9.62 9.5 9.62 9.5 23.83Q678-19 668.38-9.5 658.77 0 644.55 0ZM480-415.33q-45.33 0-76.33-32.28t-31-78.39v-247.33q0-44.45 31.29-75.56 31.3-31.11 76-31.11 44.71 0 76.04 31.11 31.33 31.11 31.33 75.56V-526q0 46.11-31 78.39T480-415.33ZM446.67-120v-132q-105.34-12-176-90.17Q200-420.33 200-526h66.67q0 88.33 62.36 149.17Q391.38-316 479.86-316q88.47 0 150.97-60.83 62.5-60.84 62.5-149.17H760q0 105.67-70.67 183.83-70.66 78.17-176 90.17v132h-66.66Z"/></svg>