<svg xmlns="http://www.w3.org/2000/svg" height="20" width="20"><path d="M4.208 18.646Q3.812 18.646 3.51 18.344Q3.208 18.042 3.208 17.646Q3.208 17.25 3.51 16.958Q3.812 16.667 4.208 16.667H15.771Q16.167 16.667 16.469 16.958Q16.771 17.25 16.771 17.646Q16.771 18.042 16.469 18.344Q16.167 18.646 15.771 18.646ZM4.208 3.333Q3.812 3.333 3.51 3.042Q3.208 2.75 3.208 2.354Q3.208 1.958 3.51 1.656Q3.812 1.354 4.208 1.354H15.771Q16.167 1.354 16.469 1.656Q16.771 1.958 16.771 2.354Q16.771 2.75 16.469 3.042Q16.167 3.333 15.771 3.333ZM9.979 15.375Q9.792 15.375 9.604 15.312Q9.417 15.25 9.271 15.083L7.125 12.938Q6.854 12.667 6.854 12.281Q6.854 11.896 7.146 11.604Q7.417 11.333 7.812 11.333Q8.208 11.333 8.479 11.604L9.021 12.167V7.833L8.458 8.396Q8.188 8.667 7.823 8.667Q7.458 8.667 7.146 8.375Q6.875 8.104 6.875 7.708Q6.875 7.312 7.146 7.042L9.271 4.917Q9.417 4.75 9.604 4.688Q9.792 4.625 9.979 4.625Q10.167 4.625 10.354 4.688Q10.542 4.75 10.688 4.917L12.833 7.062Q13.104 7.333 13.115 7.708Q13.125 8.083 12.833 8.375Q12.562 8.646 12.167 8.646Q11.771 8.646 11.5 8.375L10.938 7.833V12.167L11.5 11.604Q11.771 11.333 12.135 11.333Q12.5 11.333 12.812 11.625Q13.083 11.896 13.083 12.292Q13.083 12.688 12.812 12.958L10.688 15.083Q10.542 15.25 10.354 15.312Q10.167 15.375 9.979 15.375Z"/></svg>