<svg xmlns="http://www.w3.org/2000/svg" height="24" viewBox="0 -960 960 960" width="24"><path d="M182.66-101.02q-57.66 0-98.41-40.77T43.5-240v-280q0-57.91 40.78-98.44 40.79-40.54 98.25-40.54 34.93 0 62.05 14.96 27.12 14.95 43.99 37.48h20.93v-227.14h429.48v223.18h29.5q54.37 0 92.44 38.06 38.06 38.06 38.06 92.44v330.63H287.96q-19.79 22.39-46.51 35.37-26.72 12.98-58.79 12.98Zm-.23-101q15.79 0 27.19-11.09 11.4-11.09 11.4-26.89v-280q0-15.8-11.36-26.89t-27.14-11.09q-15.78 0-26.9 11.09T144.5-520v280q0 15.8 11.07 26.89 11.08 11.09 26.86 11.09ZM410.5-610.5h227.48v-122.17H410.5v122.17Zm-80 360h467.48V-480q0-12.98-8.26-21.24-8.27-8.26-21.24-8.26H330.5v259Zm274.02-147.48q15.5 0 26.5-11t11-26.5q0-15.5-11-26.5t-26.5-11q-15.5 0-26.5 11t-11 26.5q0 15.5 11 26.5t26.5 11Zm110.96 0q15.5 0 26.5-11t11-26.5q0-15.5-11-26.5t-26.5-11q-15.5 0-26.5 11t-11 26.5q0 15.5 11 26.5t26.5 11ZM604.52-287.02q15.5 0 26.5-11t11-26.5q0-15.5-11-26.5t-26.5-11q-15.5 0-26.5 11t-11 26.5q0 15.5 11 26.5t26.5 11Zm110.96 0q15.5 0 26.5-11t11-26.5q0-15.5-11-26.5t-26.5-11q-15.5 0-26.5 11t-11 26.5q0 15.5 11 26.5t26.5 11Zm-339.98 0h155v-185.96h-155v185.96Zm-45 36.52v-259 259Z"/></svg>