<svg xmlns="http://www.w3.org/2000/svg" height="40" viewBox="0 -960 960 960" width="40"><path d="M140.67-150.67q-15 15-34.5 6.98t-19.5-29.14V-442.5q0-13.09 9.28-22.21 9.28-9.12 22.5-9.12t22.38 9.12q9.17 9.12 9.17 22.21v192.17l49.17-49.84q4.66-4.66 10.43-6.91 5.78-2.25 12.23-2.25h57.34q12.95 0 22.22 9.31 9.28 9.3 9.28 22.3 0 13.39-9.28 22.55-9.27 9.17-22.22 9.17h-43.84l-94.66 95.33Zm540-95.33q-13.34 0-22.42-9.36-9.08-9.35-9.08-22.42 0-13.07 9.08-22.31 9.08-9.24 22.42-9.24H810v-133q0-13.26 9.36-22.13 9.35-8.87 22.42-8.87 13.07 0 22.31 9.25 9.24 9.25 9.24 22.25v132.5q0 25.68-18.82 44.51Q835.69-246 810-246H680.67ZM457.5-369.25q-9-9.25-9-22.58v-327.5q0-13.34 9.12-22.59 9.11-9.25 22.5-9.25 13.38 0 22.55 9.25 9.16 9.25 9.16 22.59v328q0 13.33-9.28 22.33-9.28 9-22.67 9-13.38 0-22.38-9.25Zm-161-81.67q-9.17-9.08-9.17-22.41v-164.5q0-12.95 9.29-22.23 9.28-9.27 22.5-9.27 13.21 0 22.38 9.27 9.17 9.28 9.17 22.23v164.66q0 13.34-9.29 22.34-9.28 9-22.5 9-13.21 0-22.38-9.09Zm321.67-41.66q-9-9.25-9-22.59v-81.5q0-13.33 9.11-22.58 9.12-9.25 22.5-9.25 13.39 0 22.55 9.25 9.17 9.25 9.17 22.58v82q0 13.34-9.28 22.34-9.29 9-22.67 9-13.38 0-22.38-9.25ZM118.22-647.17q-13.07 0-22.31-9-9.24-9-9.24-22.33v-132.67q0-25.33 18.82-44.08T150-874h129.17q12.95 0 22.22 9.06 9.28 9.06 9.28 22.56 0 13.38-9.28 22.55-9.27 9.16-22.22 9.16H150v133q0 13.26-9.36 21.88-9.35 8.62-22.42 8.62Zm701.02-9.08q-9.24-9.08-9.24-22.42v-132H680.67q-13.34 0-22.42-9.1-9.08-9.11-9.08-22.68 0-13.07 9.08-22.31 9.08-9.24 22.42-9.24H810q25.69 0 44.51 18.75 18.82 18.75 18.82 44.08v133.5q0 13.26-9.35 21.88-9.36 8.62-22.43 8.62t-22.31-9.08Z"/></svg>