<svg xmlns="http://www.w3.org/2000/svg" height="24" width="24"><path d="M4.4 20.65V9.225L12 3.5L19.6 9.225V20.65ZM6.05 19H17.95V10.05L12 5.55L6.05 10.05ZM7.775 17.45H8.625V16.2H15.375V17.45H16.225V14.075Q16.225 13.375 15.725 12.875Q15.225 12.375 14.55 12.375H11.575V15.35H8.625V11.55H7.775ZM10.1 14.925Q10.55 14.925 10.85 14.612Q11.15 14.3 11.15 13.875Q11.15 13.425 10.85 13.112Q10.55 12.8 10.1 12.8Q9.65 12.8 9.35 13.112Q9.05 13.425 9.05 13.875Q9.05 14.325 9.35 14.625Q9.65 14.925 10.1 14.925ZM6.05 19H12H17.95H6.05Z"/></svg>