<svg xmlns="http://www.w3.org/2000/svg" height="48" width="48"><path d="M9.45 43.25q-1.95 0-3.325-1.375Q4.75 40.5 4.75 38.55V9.45q0-1.95 1.375-3.35Q7.5 4.7 9.45 4.7H20.6q1 0 1.675.725T22.95 7.1q0 1-.675 1.675T20.6 9.45H9.45v29.1h29.1V27.4q0-1 .675-1.675t1.675-.675q1 0 1.7.675t.7 1.675v11.15q0 1.95-1.4 3.325-1.4 1.375-3.35 1.375ZM18.6 29.4q-.65-.7-.675-1.625-.025-.925.675-1.675L35.3 9.45h-7q-1 0-1.675-.675T25.95 7.1q0-1 .675-1.7t1.675-.7h12.6q1 0 1.7.7t.7 1.7v12.6q0 1-.725 1.675t-1.675.675q-1 0-1.675-.675T38.55 19.7v-6.95L21.9 29.45q-.65.65-1.625.625-.975-.025-1.675-.675Z"/></svg>