<svg xmlns="http://www.w3.org/2000/svg" height="20" viewBox="0 -960 960 960" width="20"><path d="M274.798-156.304q-5.102 5.717-12.918 8.076-7.815 2.359-14.73 2.359-7.393 0-14.632-3.051-7.238-3.051-12.757-8.623-37.457-41.457-55.674-84.066-18.218-42.609-18.218-89.956 0-33.718 9.99-69.185 9.989-35.467 35.467-102.402 22.739-51.261 29.869-78.772 7.131-27.511 7.131-51.561 0-30.493-14.011-58.026-14.011-27.532-42.533-55.293-4.717-5.218-8.195-12.223-3.478-7.005-3.478-14.652 0-7.169 2.358-14.245 2.359-7.076 8.076-12.794 5.407-6.456 12.524-9.934 7.117-3.479 14.884-3.479 6.636 0 14.582 2.359 7.945 2.359 13.163 8.076 41.678 38.063 61.154 79.649 19.476 41.586 19.476 87.868 0 31.055-9.609 66.585-9.608 35.529-33.847 96.246-21 50.522-30.12 82.022-9.12 31.5-9.12 58.261 0 34.522 12.778 63.935 12.778 29.414 40.005 58.173 5.717 5.704 8.446 12.818 2.728 7.114 2.728 14.108 0 8.096-3.478 14.933-3.479 6.837-9.311 12.794Zm183.267-.5q-6.217 5.263-13.793 7.849-7.576 2.586-14.294 2.586-7.195 0-14.356-3.09-7.162-3.089-12.709-9.823-37.914-41.545-55.903-83.727-17.988-42.181-17.988-89.056 0-34.629 9.239-71.141 9.239-36.511 35.456-99.946 21.5-51.022 29.25-79.134 7.75-28.112 7.75-52.178 0-30.514-14.019-58.085t-42.263-54.755q-5.995-5.4-8.715-12.265-2.72-6.866-2.72-14.822 0-7.957 2.239-15.033t7.287-12.294q5.626-5.456 13.031-8.934 7.404-3.479 15.478-3.479 6.943 0 14.269 2.359 7.326 2.359 12.544 8.076 41.917 38.944 61.274 79.908 19.356 40.965 19.356 87.273 0 31.961-9.489 68.205-9.489 36.245-33.708 94.929-21.259 52.272-30.379 83.039-9.119 30.766-9.119 57.187 0 33.872 13.134 64.016 13.135 30.144 40.673 58.537 5.671 5.841 8.03 13.548 2.358 7.706 2.358 14.913 0 7.206-3.016 13.854-3.017 6.647-8.897 11.483Zm180.768 1.5q-5.333 5.717-12.554 7.826-7.222 2.109-14.914 2.109-8.169 0-15.006-3.186t-12.055-8.988Q546.848-199 528.63-241.609q-18.217-42.609-18.217-89.956 0-33.718 9.739-69.185t35.718-102.402q22.5-51.261 29.5-78.772 7-27.511 7-51.561 0-30.493-13.761-58.026-13.761-27.532-43.022-55.293-5.457-5.393-8.685-12.596-3.228-7.203-3.228-14.695t2.728-14.818q2.728-7.326 8.458-13.044 6.444-6.195 14.026-9.184 7.581-2.99 15.402-2.99 7.342 0 13.892 2.717 6.55 2.716 11.82 8.218 39.935 38.696 60.033 79.606t20.098 87.76q0 32.341-9.74 68.444-9.739 36.103-33.217 94.538-22.239 52.5-30.619 82.75-8.381 30.25-8.381 57.033 0 34.522 13.141 63.424 13.142 28.902 39.403 58.684 5.717 5.218 8.445 12.961 2.728 7.742 2.728 15.366 0 7.862-3.478 14.616-3.478 6.753-9.58 12.71ZM824.341-533.13q-15.863 0-27.537-11.464-11.674-11.463-11.674-27.326 0-15.862 11.464-27.536 11.463-11.674 27.326-11.674 15.863 0 27.537 11.463t11.674 27.326q0 15.863-11.464 27.537-11.463 11.674-27.326 11.674Zm0-131q-15.863 0-27.537-11.524T785.13-703.13v-120q0-15.953 11.464-27.477 11.463-11.524 27.326-11.524 15.863 0 27.537 11.524t11.674 27.477v120q0 15.952-11.464 27.476-11.463 11.524-27.326 11.524Z"/></svg>