<svg xmlns="http://www.w3.org/2000/svg" height="48" viewBox="0 -960 960 960" width="48"><path d="M226-172q-22.77 0-38.39-15.61Q172-203.23 172-226v-508q0-22.78 15.61-38.39Q203.23-788 226-788h508q22.78 0 38.39 15.61T788-734v508q0 22.77-15.61 38.39Q756.78-172 734-172H616q-4.72 0-7.86-3.19-3.14-3.2-3.14-8 0-4.81 3.14-7.81t7.86-3h118q12 0 22-10t10-22v-466H194v466q0 12 10 22t22 10h118q4.73 0 7.86 3.19 3.14 3.2 3.14 8 0 4.81-3.14 7.81-3.13 3-7.86 3H226Zm243-11v-254l-88 88q-3 3-7.5 3.5t-8.89-3.5q-2.61-4-2.61-8t3-8l96-96q4-4 8.77-6.5 4.76-2.5 10.5-2.5 5.73 0 10.23 2.5t8.5 6.5l96 96q3 3 3.5 7.5t-3.11 8.5q-4.39 3-8.39 3-4 0-8-4l-88-87v254q0 4.73-3.19 7.86-3.2 3.14-8 3.14-4.81 0-7.81-3.14-3-3.13-3-7.86Z"/></svg>