<svg xmlns="http://www.w3.org/2000/svg" height="24" width="24"><path d="M13.3 14.425H15.475Q16.525 14.425 17.125 13.825Q17.725 13.225 17.725 12.175V6.925Q17.725 5.875 17.125 5.275Q16.525 4.675 15.475 4.675H13.425Q12.375 4.675 11.775 5.275Q11.175 5.875 11.175 6.925V8.4Q11.175 9.45 11.775 10.062Q12.375 10.675 13.425 10.675H15.475V12.175Q15.475 12.175 15.475 12.175Q15.475 12.175 15.475 12.175H13.275Q12.8 12.175 12.488 12.5Q12.175 12.825 12.175 13.3Q12.175 13.75 12.5 14.087Q12.825 14.425 13.3 14.425ZM15.475 8.4H13.45Q13.45 8.4 13.45 8.4Q13.45 8.4 13.45 8.4V6.925Q13.45 6.925 13.45 6.925Q13.45 6.925 13.45 6.925H15.475Q15.475 6.925 15.475 6.925Q15.475 6.925 15.475 6.925ZM8.75 18.275Q7.475 18.275 6.6 17.4Q5.725 16.525 5.725 15.25V3.85Q5.725 2.575 6.6 1.7Q7.475 0.825 8.75 0.825H20.15Q21.425 0.825 22.3 1.7Q23.175 2.575 23.175 3.85V15.25Q23.175 16.525 22.3 17.4Q21.425 18.275 20.15 18.275ZM3.85 23.175Q2.575 23.175 1.7 22.3Q0.825 21.425 0.825 20.15V7.2Q0.825 6.6 1.275 6.162Q1.725 5.725 2.35 5.725Q2.95 5.725 3.4 6.175Q3.85 6.625 3.85 7.225V20.15Q3.85 20.15 3.85 20.15Q3.85 20.15 3.85 20.15H16.8Q17.4 20.15 17.838 20.6Q18.275 21.05 18.275 21.65Q18.275 22.275 17.825 22.725Q17.375 23.175 16.775 23.175Z"/></svg>