<svg xmlns="http://www.w3.org/2000/svg" height="48" viewBox="0 -960 960 960" width="48"><path d="M310.45-619.61q13.55 0 23.97-10.61 10.43-10.61 10.43-24.16 0-13.54-10.43-23.97-10.42-10.42-23.97-10.42-13.54 0-24.15 10.42-10.61 10.43-10.61 23.97 0 13.55 10.61 24.16t24.15 10.61Zm169.55 0q14.23 0 24.65-10.61 10.43-10.61 10.43-24.16 0-13.54-10.43-23.97-10.42-10.42-24.65-10.42-14.23 0-24.15 10.42-9.93 10.43-9.93 23.97 0 13.55 9.93 24.16 9.92 10.61 24.15 10.61Zm170.91 0q13.55 0 23.97-10.61 10.43-10.61 10.43-24.16 0-13.54-10.43-23.97-10.42-10.42-23.97-10.42-13.54 0-24.15 10.42-10.61 10.43-10.61 23.97 0 13.55 10.61 24.16t24.15 10.61ZM197.69-127q-28.25 0-49.47-21.22T127-197.69v-564.62q0-28.25 21.22-49.47T197.69-833h564.62q28.25 0 49.47 21.22T833-762.31v564.62q0 28.25-21.22 49.47T762.31-127H197.69Zm0-58.39h564.62q4.61 0 8.46-3.84 3.84-3.85 3.84-8.46v-564.62q0-4.61-3.84-8.46-3.85-3.84-8.46-3.84H197.69q-4.61 0-8.46 3.84-3.84 3.85-3.84 8.46v564.62q0 4.61 3.84 8.46 3.85 3.84 8.46 3.84Zm-12.3-589.22v589.22-589.22Z"/></svg>