<svg xmlns="http://www.w3.org/2000/svg" height="40" width="40"><path d="M24.167 29.708q.916 0 1.562-.646.646-.645.646-1.562t-.646-1.562q-.646-.646-1.562-.646-.917 0-1.563.646-.646.645-.646 1.562t.646 1.562q.646.646 1.563.646Zm-8.417-.166 10.458-10.459-1.958-1.958-10.458 10.458Zm.083-8.167q.917 0 1.563-.646.646-.646.646-1.562 0-.917-.646-1.563-.646-.646-1.563-.646-.916 0-1.562.646t-.646 1.563q0 .916.646 1.562t1.562.646ZM20 37.333q-6 0-10-4.104T6 23q0-4.333 3.479-9.437Q12.958 8.458 20 2.458q7.042 6 10.521 11.105Q34 18.667 34 23q0 6.125-4 10.229-4 4.104-10 4.104Zm0-3.666q4.458 0 7.396-3.042 2.937-3.042 2.937-7.625 0-3.083-2.625-7.042Q25.083 12 20 7.375 14.917 12 12.292 15.958 9.667 19.917 9.667 23q0 4.583 2.937 7.625 2.938 3.042 7.396 3.042Zm0-13.75Z"/></svg>