<svg xmlns="http://www.w3.org/2000/svg" height="24" viewBox="0 -960 960 960" width="24"><path d="M184.62-160q-27.62 0-46.12-18.5Q120-197 120-224.62v-510.76q0-27.62 18.5-46.12Q157-800 184.62-800h183.07q27.62 0 46.12 18.5 18.5 18.5 18.5 46.12v510.76q0 27.62-18.5 46.12-18.5 18.5-46.12 18.5H184.62Zm407.69 0q-27.62 0-46.12-18.5-18.5-18.5-18.5-46.12v-510.76q0-27.62 18.5-46.12 18.5-18.5 46.12-18.5h183.07q27.62 0 46.12 18.5Q840-763 840-735.38v510.76q0 27.62-18.5 46.12Q803-160 775.38-160H592.31ZM335.38-404.64q0-8.51-5.75-14.24-5.75-5.74-14.25-5.74h-80q-8.5 0-14.25 5.76t-5.75 14.27q0 8.51 5.75 14.24t14.25 5.73h80q8.5 0 14.25-5.75 5.75-5.76 5.75-14.27Zm409.24 0q0-8.51-5.75-14.24-5.75-5.74-14.25-5.74h-80.77q-8.18 0-13.71 5.76-5.52 5.76-5.52 14.27t5.75 14.24q5.75 5.73 14.25 5.73h80q8.5 0 14.25-5.75 5.75-5.76 5.75-14.27ZM335.38-516.95q0-8.51-5.75-14.24t-14.25-5.73h-80q-8.5 0-14.25 5.75-5.75 5.76-5.75 14.27 0 8.52 5.75 14.25t14.25 5.73h80q8.5 0 14.25-5.76t5.75-14.27Zm409.24 0q0-8.51-5.75-14.24t-14.25-5.73h-80.77q-8.18 0-13.71 5.75-5.52 5.76-5.52 14.27 0 8.52 5.75 14.25t14.25 5.73h80q8.5 0 14.25-5.76t5.75-14.27ZM335.38-630.03q0-8.51-5.75-14.24T315.38-650h-80q-8.5 0-14.25 5.76t-5.75 14.27q0 8.51 5.75 14.24t14.25 5.73h80q8.5 0 14.25-5.76t5.75-14.27Zm409.24 0q0-8.51-5.75-14.24T724.62-650h-80.77q-8.18 0-13.71 5.76-5.52 5.76-5.52 14.27t5.75 14.24q5.75 5.73 14.25 5.73h80q8.5 0 14.25-5.76t5.75-14.27Z"/></svg>