<svg xmlns="http://www.w3.org/2000/svg" height="40" viewBox="0 -960 960 960" width="40"><path d="M152.39-152q-29.62 0-51.02-21.4-21.4-21.4-21.4-51.02v-119.16q0-15.17 10.64-25.77 10.64-10.61 25.69-10.61t25.57 10.61q10.52 10.6 10.52 25.77v119.16h655.22v-511.16H152.39v120.33q0 15.33-10.71 25.77t-25.62 10.44q-14.9 0-25.49-10.44-10.6-10.44-10.6-25.77v-120.33q0-29.68 21.4-51.13 21.4-21.45 51.02-21.45h655.22q29.68 0 51.13 21.45 21.45 21.45 21.45 51.13v511.16q0 29.62-21.45 51.02-21.45 21.4-51.13 21.4H152.39Zm350.34-291.29H116.35q-15.17 0-25.77-10.47-10.61-10.47-10.61-25.69t10.61-25.74q10.6-10.52 25.77-10.52h386.38l-67.53-67.6q-10.95-11.1-10.7-25.71.24-14.61 11.44-25.51 10.66-10.54 25.52-10.32 14.86.21 26.12 11.29L616.3-505.39q10.98 11.31 10.98 26.06 0 14.74-11.11 25.85l-129.5 129.5q-11.3 11.12-25.69 10.53-14.39-.58-25.32-11.15-10.83-10.83-10.79-25.82.05-14.99 11-25.6l66.86-67.27Z"/></svg>