<svg xmlns="http://www.w3.org/2000/svg" height="20" width="20"><path d="M8.188 11.125q.395.417.937.406.542-.01.937-.427l3.417-3.416q.333-.334.333-.803 0-.468-.312-.781-.354-.333-.823-.344-.469-.01-.802.302l-2.771 2.73-.937-.938q-.355-.312-.802-.312-.448 0-.803.333-.374.354-.374.813 0 .458.374.812ZM7.5 14.479h5.042q.458 0 .791-.344.334-.343.334-.802 0-.458-.334-.802-.333-.343-.812-.343H7.479q-.458 0-.791.343-.334.344-.334.802 0 .479.334.813.333.333.812.333Zm2.5 4.688q-1.896 0-3.573-.719T3.51 16.49q-1.239-1.24-1.958-2.917Q.833 11.896.833 10q0-1.917.719-3.594.719-1.677 1.958-2.916 1.24-1.24 2.917-1.948Q8.104.833 10 .833q1.917 0 3.594.709 1.677.708 2.916 1.948 1.24 1.239 1.948 2.916.709 1.677.709 3.594 0 1.917-.709 3.583-.708 1.667-1.948 2.907-1.239 1.239-2.916 1.958-1.677.719-3.594.719ZM10 10Zm0 6.521q2.708 0 4.615-1.896 1.906-1.896 1.906-4.625t-1.896-4.625Q12.729 3.479 10 3.479q-2.708 0-4.615 1.896Q3.479 7.271 3.479 10t1.896 4.625Q7.271 16.521 10 16.521Z"/></svg>