<svg xmlns="http://www.w3.org/2000/svg" height="20" viewBox="0 -960 960 960" width="20"><path d="M371.96-308h215.76q6.78 0 11.53-4.55 4.75-4.54 4.75-11.27 0-6.72-4.59-11.45-4.59-4.73-11.37-4.73H372.28q-6.78 0-11.53 4.55-4.75 4.54-4.75 11.27 0 6.72 4.59 11.45 4.59 4.73 11.37 4.73ZM439-477.31l-73.53-73.53q-5.93-5.93-11.59-6.31-5.65-.39-12.03 6-6.39 6.38-6.39 11.65 0 5.27 6.39 11.65l77.53 77.54q8.33 8.69 19.44 8.69 11.1 0 19.8-8.69l159.53-159.54q4.85-4.84 5.62-10.88.77-6.04-4.85-12.42-5.61-6.39-11.27-6.77-5.65-.39-12.11 6.07L439-477.31ZM480.41-136q-70.95 0-133.69-26.84-62.73-26.84-109.86-73.92t-73.99-109.72Q136-409.11 136-480.32q0-71.22 26.84-133.46 26.84-62.23 73.92-109.36t109.72-73.99Q409.11-824 480.32-824q71.22 0 133.46 26.84 62.23 26.84 109.36 73.92t73.99 109.48Q824-551.36 824-480.41q0 70.95-26.84 133.69-26.84 62.73-73.92 109.86t-109.48 73.99Q551.36-136 480.41-136Z"/></svg>