<svg xmlns="http://www.w3.org/2000/svg" height="20" width="20"><path d="M8.625 10.896Q8.854 11.125 9.156 11.125Q9.458 11.125 9.708 10.875L13.083 7.479Q13.271 7.292 13.354 7.01Q13.438 6.729 13.083 6.583Q12.875 6.396 12.625 6.385Q12.375 6.375 12.167 6.583L9.146 9.583L7.875 8.333Q7.708 8.167 7.479 8.281Q7.25 8.396 6.979 8.354Q6.75 8.562 6.75 8.792Q6.75 9.021 6.979 9.25ZM7.562 13.875H12.479Q12.708 13.875 12.896 13.677Q13.083 13.479 13.083 13.25Q13.083 13.021 12.885 12.823Q12.688 12.625 12.458 12.625H7.542Q7.312 12.625 7.125 12.823Q6.938 13.021 6.938 13.25Q6.938 13.479 7.135 13.677Q7.333 13.875 7.562 13.875ZM10 17.75Q8.396 17.75 6.979 17.146Q5.562 16.542 4.51 15.49Q3.458 14.438 2.854 13.021Q2.25 11.604 2.25 10Q2.25 8.396 2.854 6.979Q3.458 5.562 4.51 4.51Q5.562 3.458 6.979 2.854Q8.396 2.25 10 2.25Q11.604 2.25 13.021 2.854Q14.438 3.458 15.49 4.51Q16.542 5.562 17.146 6.969Q17.75 8.375 17.75 10Q17.75 11.604 17.146 13.021Q16.542 14.438 15.49 15.49Q14.438 16.542 13.031 17.146Q11.625 17.75 10 17.75Z"/></svg>