<svg xmlns="http://www.w3.org/2000/svg" height="20" width="20"><path d="M7.5 4.229Q6.646 4.229 6.052 3.625Q5.458 3.021 5.458 2.167Q5.458 1.292 6.052 0.698Q6.646 0.104 7.5 0.104Q8.375 0.104 8.979 0.698Q9.583 1.292 9.583 2.167Q9.583 3.021 8.979 3.625Q8.375 4.229 7.5 4.229ZM1.25 19.604 3.562 7.979 2.896 8.292V11.25H0.292V6.542L4.792 4.708Q5.646 4.354 6.469 4.552Q7.292 4.75 7.792 5.542L8.646 6.875Q9.229 7.729 10.156 8.198Q11.083 8.667 12.312 8.667V11.25Q10.771 11.25 9.562 10.802Q8.354 10.354 7.542 9.583L7.271 11.042L8.958 12.688V19.604H6.375V14.312L5.333 13.333L3.917 19.604ZM15.104 15.271 12.354 12.521 15.104 9.792 16.312 11 15.688 11.625H19.625V13.417H15.688L16.312 14.042ZM16.958 19.917 15.729 18.708 16.396 18.042H12.479V16.271H16.396L15.729 15.604L16.958 14.396L19.708 17.167Z"/></svg>