<svg xmlns="http://www.w3.org/2000/svg" height="24" viewBox="0 -960 960 960" width="24"><path d="M166.783-125.26q-51.299 0-87.128-35.829-35.83-35.829-35.83-87.129v-463.564q0-51.3 35.83-87.129 35.829-35.829 87.128-35.829h626.434q51.299 0 87.128 35.829t35.829 87.129v463.564q0 51.3-35.829 87.129-35.829 35.829-87.128 35.829H166.783Zm155.173-122.958-2.391-2.999q-11.695-16.245-11.695-35.797 0-19.551 11.695-35.812l53.609-73.86v-92.096q0-19.932 11.311-36.009 11.312-16.076 30.906-21.905l86.866-28.398 54.221-73.949q11.696-16.827 30.145-22.674 18.45-5.848 38.464.282L712-644.13l81.217-25.74v-41.912H166.783v463.564h155.173Zm137.783 0h333.478v-314.608l5.653 7.913-86.87 29-85.87-29-54.293 74.733-87.057 28.38v91.077l-53.389 73.419 28.348 39.086Zm25.087-203.825Z"/></svg>