<svg xmlns="http://www.w3.org/2000/svg" height="48" width="48"><path d="M8.1 43.85Q7.05 43.85 6.375 43.175Q5.7 42.5 5.7 41.45Q5.7 40.45 6.375 39.775Q7.05 39.1 8.1 39.1H36.55Q37.55 39.1 38.225 39.775Q38.9 40.45 38.9 41.5Q38.9 42.5 38.225 43.175Q37.55 43.85 36.55 43.85ZM14.5 36.65Q10.85 36.65 8.275 34.125Q5.7 31.6 5.7 27.95V8.9Q5.7 6.95 7.1 5.55Q8.5 4.15 10.45 4.15H40.65Q42.6 4.15 44 5.55Q45.4 6.95 45.4 8.9V16.9Q45.4 18.85 44 20.225Q42.6 21.6 40.65 21.6H36.45V27.95Q36.45 31.6 33.85 34.125Q31.25 36.65 27.6 36.65ZM36.45 16.9H40.65Q40.65 16.9 40.65 16.9Q40.65 16.9 40.65 16.9V8.9Q40.65 8.9 40.65 8.9Q40.65 8.9 40.65 8.9H36.45Z"/></svg>