<svg xmlns="http://www.w3.org/2000/svg" version="1.1" width="3300" height="2000"><g id="Notes"><style>
    text {
      font-family: monospace;
      text-anchor: middle;
    }
    text.emphasis {
      font-weight:bold;
    }
    text.lanchor {
      text-anchor: start;
    }
  </style><rect height="2200" id="artboard" fill="white" width="3300" x="0" y="0"/><line id="" style="fill:none;stroke:black;stroke-width:0.5;" x1="263" x2="3036" y1="292" y2="292"/><text class="lanchor emphasis" transform="matrix(1 0 0 1 263 322)">Weight/Scale Variations</text><text transform="matrix(1 0 0 1 559.711 322)">Ultralight</text><text transform="matrix(1 0 0 1 856.422 322)">Thin</text><text transform="matrix(1 0 0 1 1153.13 322)">Light</text><text transform="matrix(1 0 0 1 1449.84 322)">Regular</text><text transform="matrix(1 0 0 1 1746.56 322)">Medium</text><text transform="matrix(1 0 0 1 2043.27 322)">Semibold</text><text transform="matrix(1 0 0 1 2339.98 322)">Bold</text><text transform="matrix(1 0 0 1 2636.69 322)">Heavy</text><text transform="matrix(1 0 0 1 2933.4 322)">Black</text><text id="template-version" style="text-anchor: end;" transform="matrix(1 0 0 1 3036 1933)">Template v.1.0</text><text class="lanchor" transform="matrix(1 0 0 1 263 726)">Small</text><text class="lanchor" transform="matrix(1 0 0 1 263 1156)">Medium</text><text class="lanchor" transform="matrix(1 0 0 1 263 1586)">Large</text></g><g id="Guides"><g id="H-reference" style="fill:#27AAE1;stroke:none;" transform="matrix(1 0 0 1 339 696)"><path d="M 54.9316 0 L 57.666 0 L 30.5664 -70.459 L 28.0762 -70.459 L 0.976562 0 L 3.66211 0 L 12.9395 -24.4629 L 45.7031 -24.4629 Z M 29.1992 -67.0898 L 29.4434 -67.0898 L 44.8242 -26.709 L 13.8184 -26.709 Z"/></g><line id="Baseline-S" style="fill:none;stroke:#27AAE1;opacity:1;stroke-width:0.577;" x1="263" x2="3036" y1="696" y2="696"/><line id="Capline-S" style="fill:none;stroke:#27AAE1;opacity:1;stroke-width:0.577;" x1="263" x2="3036" y1="625.541" y2="625.541"/><g id="H-reference" style="fill:#27AAE1;stroke:none;" transform="matrix(1 0 0 1 339 1126)"><path d="M 54.9316 0 L 57.666 0 L 30.5664 -70.459 L 28.0762 -70.459 L 0.976562 0 L 3.66211 0 L 12.9395 -24.4629 L 45.7031 -24.4629 Z M 29.1992 -67.0898 L 29.4434 -67.0898 L 44.8242 -26.709 L 13.8184 -26.709 Z"/></g><line id="Baseline-M" style="fill:none;stroke:#27AAE1;opacity:1;stroke-width:0.577;" x1="263" x2="3036" y1="1126" y2="1126"/><line id="Capline-M" style="fill:none;stroke:#27AAE1;opacity:1;stroke-width:0.577;" x1="263" x2="3036" y1="1055.54" y2="1055.54"/><g id="H-reference" style="fill:#27AAE1;stroke:none;" transform="matrix(1 0 0 1 339 1556)"><path d="M 54.9316 0 L 57.666 0 L 30.5664 -70.459 L 28.0762 -70.459 L 0.976562 0 L 3.66211 0 L 12.9395 -24.4629 L 45.7031 -24.4629 Z M 29.1992 -67.0898 L 29.4434 -67.0898 L 44.8242 -26.709 L 13.8184 -26.709 Z"/></g><line id="Baseline-L" style="fill:none;stroke:#27AAE1;opacity:1;stroke-width:0.577;" x1="263" x2="3036" y1="1556" y2="1556"/><line id="Capline-L" style="fill:none;stroke:#27AAE1;opacity:1;stroke-width:0.577;" x1="263" x2="3036" y1="1485.54" y2="1485.54"/><rect height="119.336" id="left-margin" style="fill:darkred;stroke:none;opacity:0.4;" width="12.4512" x="1394.06" y="1030.79"/><rect height="119.336" id="right-margin" style="fill:darkgreen;stroke:none;opacity:0.4;" width="12.4512" x="1502.5112" y="1030.79"/><rect x="1406.5112" y="1045" width="96" height="96" fill="none" stroke="blue" stroke-dasharray="5"/><rect x="1394.06" y="1030.79" width="120.9024" height="119.336" fill="none" stroke="blue"/></g><g id="Symbols"><g id="Bold-L" transform="matrix(1 0 0 1 2266 1556)"><path d="M18.22125 23.948750000000018 V-94.57 H30.96 V23.948750000000018 H18.22125 Z M70.95 23.948750000000018 V11.210000000000008 H83.85000000000001 V23.948750000000018 H70.95 Z M70.95 -2.4962500000000034 V-15.235 H83.85000000000001 V-2.4962500000000034 H70.95 Z M44.66625 -28.779999999999987 V-41.67999999999999 H57.405 V-28.779999999999987 H44.66625 Z M70.95 -28.779999999999987 V-41.67999999999999 H83.85000000000001 V-28.779999999999987 H70.95 Z M97.395 -28.779999999999987 V-41.67999999999999 H110.29500000000002 V-28.779999999999987 H97.395 Z M70.95 -55.224999999999994 V-68.125 H83.85000000000001 V-55.224999999999994 H70.95 Z M70.95 -81.66999999999999 V-94.57 H83.85000000000001 V-81.66999999999999 H70.95 Z M123.84 23.948750000000018 V-94.57 H136.74 V23.948750000000018 H123.84 Z"/></g><g id="Semibold-L" transform="matrix(1 0 0 1 1970.27 1556)"><path d="M18.86625 23.303750000000008 V-93.76374999999999 H30.15375 V23.303750000000008 H18.86625 Z M71.75625000000001 23.303750000000008 V12.01625 H83.04375 V23.303750000000008 H71.75625000000001 Z M71.75625000000001 -3.141249999999985 V-14.428749999999994 H83.04375 V-3.141249999999985 H71.75625000000001 Z M45.31125 -29.586249999999993 V-40.87374999999999 H56.59875 V-29.586249999999993 H45.31125 Z M71.75625000000001 -29.586249999999993 V-40.87374999999999 H83.04375 V-29.586249999999993 H71.75625000000001 Z M98.20125 -29.586249999999993 V-40.87374999999999 H109.48875000000001 V-29.586249999999993 H98.20125 Z M71.75625000000001 -56.03124999999999 V-67.31875 H83.04375 V-56.03124999999999 H71.75625000000001 Z M71.75625000000001 -82.47625 V-93.76374999999999 H83.04375 V-82.47625 H71.75625000000001 Z M124.64625 23.303750000000008 V-93.76374999999999 H135.93375 V23.303750000000008 H124.64625 Z"/></g><g id="Medium-L" transform="matrix(1 0 0 1 1674.31 1556)"><path d="M19.51125 22.658750000000026 V-93.11874999999999 H29.669999999999998 V22.658750000000026 H19.51125 Z M72.24 22.658750000000026 V12.5 H82.39875 V22.658750000000026 H72.24 Z M72.24 -3.7862499999999955 V-13.944999999999993 H82.39875 V-3.7862499999999955 H72.24 Z M45.956250000000004 -30.069999999999993 V-40.22874999999999 H56.114999999999995 V-30.069999999999993 H45.956250000000004 Z M72.24 -30.069999999999993 V-40.22874999999999 H82.39875 V-30.069999999999993 H72.24 Z M98.685 -30.069999999999993 V-40.22874999999999 H108.84375 V-30.069999999999993 H98.685 Z M72.24 -56.515 V-66.67374999999998 H82.39875 V-56.515 H72.24 Z M72.24 -82.96 V-93.11874999999999 H82.39875 V-82.96 H72.24 Z M125.13 22.658750000000026 V-93.11874999999999 H135.28875000000002 V22.658750000000026 H125.13 Z"/></g><g id="Regular-L" transform="matrix(1 0 0 1 1378.56 1556)"><path d="M19.995 22.17500000000001 V-92.79624999999999 H29.186250000000005 V22.17500000000001 H19.995 Z M72.72375000000001 22.17500000000001 V12.983750000000015 H82.07625 V22.17500000000001 H72.72375000000001 Z M72.72375000000001 -4.269999999999982 V-13.461249999999993 H82.07625 V-4.269999999999982 H72.72375000000001 Z M46.440000000000005 -30.553749999999994 V-39.906249999999986 H55.63125 V-30.553749999999994 H46.440000000000005 Z M72.72375000000001 -30.553749999999994 V-39.906249999999986 H82.07625 V-30.553749999999994 H72.72375000000001 Z M99.16875 -30.553749999999994 V-39.906249999999986 H108.52125 V-30.553749999999994 H99.16875 Z M72.72375000000001 -56.998749999999994 V-66.35125 H82.07625 V-56.998749999999994 H72.72375000000001 Z M72.72375000000001 -83.44375 V-92.79624999999999 H82.07625 V-83.44375 H72.72375000000001 Z M125.61375000000001 22.17500000000001 V-92.79624999999999 H134.96625 V22.17500000000001 H125.61375000000001 Z"/></g><g id="Light-L" transform="matrix(1 0 0 1 1082.77 1556)"><path d="M20.962500000000002 21.20750000000001 V-91.66749999999999 H28.7025 V21.20750000000001 H20.962500000000002 Z M73.53 21.20750000000001 V13.467500000000015 H81.27 V21.20750000000001 H73.53 Z M73.53 -5.0762499999999875 V-12.977499999999992 H81.27 V-5.0762499999999875 H73.53 Z M47.24625 -31.36 V-39.099999999999994 H55.14750000000001 V-31.36 H47.24625 Z M73.53 -31.36 V-39.099999999999994 H81.27 V-31.36 H73.53 Z M99.81375 -31.36 V-39.099999999999994 H107.55375000000001 V-31.36 H99.81375 Z M73.53 -57.64374999999999 V-65.38374999999999 H81.27 V-57.64374999999999 H73.53 Z M73.53 -83.9275 V-91.66749999999999 H81.27 V-83.9275 H73.53 Z M126.09750000000001 21.20750000000001 V-91.66749999999999 H133.8375 V21.20750000000001 H126.09750000000001 Z"/></g><g id="Thin-L" transform="matrix(1 0 0 1 787.282 1556)"><path d="M21.93 20.24000000000001 V-90.69999999999999 H28.380000000000003 V20.24000000000001 H21.93 Z M74.175 20.24000000000001 V13.79000000000002 H80.625 V20.24000000000001 H74.175 Z M74.175 -6.043750000000003 V-12.332499999999982 H80.625 V-6.043750000000003 H74.175 Z M48.21375 -32.004999999999995 V-38.455 H54.5025 V-32.004999999999995 H48.21375 Z M74.175 -32.004999999999995 V-38.455 H80.625 V-32.004999999999995 H74.175 Z M100.45875 -32.004999999999995 V-38.455 H106.7475 V-32.004999999999995 H100.45875 Z M74.175 -58.288749999999986 V-64.57749999999999 H80.625 V-58.288749999999986 H74.175 Z M74.175 -84.25 V-90.69999999999999 H80.625 V-84.25 H74.175 Z M126.42000000000002 20.24000000000001 V-90.69999999999999 H132.87 V20.24000000000001 H126.42000000000002 Z"/></g><g id="Ultralight-L" transform="matrix(1 0 0 1 491.205 1556)"><path d="M22.575 19.595 V-90.05499999999999 H28.057499999999997 V19.595 H22.575 Z M74.65875 19.595 V14.112499999999997 H80.14125000000001 V19.595 H74.65875 Z M74.65875 -6.527500000000003 V-12.009999999999991 H80.14125000000001 V-6.527500000000003 H74.65875 Z M48.6975 -32.48874999999998 V-37.97125 H54.18000000000001 V-32.48874999999998 H48.6975 Z M74.65875 -32.48874999999998 V-37.97125 H80.14125000000001 V-32.48874999999998 H74.65875 Z M100.78125 -32.48874999999998 V-37.97125 H106.26375000000002 V-32.48874999999998 H100.78125 Z M74.65875 -58.61124999999999 V-64.09375 H80.14125000000001 V-58.61124999999999 H74.65875 Z M74.65875 -84.57249999999999 V-90.05499999999999 H80.14125000000001 V-84.57249999999999 H74.65875 Z M126.74249999999999 19.595 V-90.05499999999999 H132.225 V19.595 H126.74249999999999 Z"/></g><g id="Bold-M" transform="matrix(1 0 0 1 2281.8 1126)"><path d="M14.0 10.77000000000001 V-81.22999999999999 H27.125 V10.77000000000001 H14.0 Z M53.375 10.77000000000001 V-2.3549999999999898 H66.5 V10.77000000000001 H53.375 Z M53.375 -8.97999999999999 V-22.10499999999999 H66.5 V-8.97999999999999 H53.375 Z M33.75 -28.60499999999999 V-41.72999999999999 H46.875 V-28.60499999999999 H33.75 Z M53.375 -28.60499999999999 V-41.72999999999999 H66.5 V-28.60499999999999 H53.375 Z M73.125 -28.60499999999999 V-41.72999999999999 H86.25 V-28.60499999999999 H73.125 Z M53.375 -48.35499999999999 V-61.47999999999999 H66.5 V-48.35499999999999 H53.375 Z M53.375 -68.10499999999999 V-81.22999999999999 H66.5 V-68.10499999999999 H53.375 Z M92.875 10.77000000000001 V-81.22999999999999 H106.0 V10.77000000000001 H92.875 Z"/></g><g id="Semibold-M" transform="matrix(1 0 0 1 1985.97 1126)"><path d="M14.875 9.89500000000001 V-80.35499999999999 H26.25 V9.89500000000001 H14.875 Z M54.25 9.89500000000001 V-1.4799999999999898 H65.625 V9.89500000000001 H54.25 Z M54.25 -9.85499999999999 V-21.22999999999999 H65.625 V-9.85499999999999 H54.25 Z M34.625 -29.47999999999999 V-40.85499999999999 H46.0 V-29.47999999999999 H34.625 Z M54.25 -29.47999999999999 V-40.85499999999999 H65.625 V-29.47999999999999 H54.25 Z M74.0 -29.47999999999999 V-40.85499999999999 H85.375 V-29.47999999999999 H74.0 Z M54.25 -49.22999999999999 V-60.60499999999999 H65.625 V-49.22999999999999 H54.25 Z M54.25 -68.97999999999999 V-80.35499999999999 H65.625 V-68.97999999999999 H54.25 Z M93.75 9.89500000000001 V-80.35499999999999 H105.125 V9.89500000000001 H93.75 Z"/></g><g id="Medium-M" transform="matrix(1 0 0 1 1689.91 1126)"><path d="M15.375 9.39500000000001 V-79.85499999999999 H25.75 V9.39500000000001 H15.375 Z M54.75 9.39500000000001 V-0.9799999999999898 H65.125 V9.39500000000001 H54.75 Z M54.75 -10.35499999999999 V-20.72999999999999 H65.125 V-10.35499999999999 H54.75 Z M35.125 -29.97999999999999 V-40.35499999999999 H45.5 V-29.97999999999999 H35.125 Z M54.75 -29.97999999999999 V-40.35499999999999 H65.125 V-29.97999999999999 H54.75 Z M74.5 -29.97999999999999 V-40.35499999999999 H84.875 V-29.97999999999999 H74.5 Z M54.75 -49.72999999999999 V-60.10499999999999 H65.125 V-49.72999999999999 H54.75 Z M54.75 -69.47999999999999 V-79.85499999999999 H65.125 V-69.47999999999999 H54.75 Z M94.25 9.39500000000001 V-79.85499999999999 H104.625 V9.39500000000001 H94.25 Z"/></g><g id="Regular-M" transform="matrix(1 0 0 1 1394.06 1126)"><path d="M15.875 8.89500000000001 V-79.35499999999999 H25.25 V8.89500000000001 H15.875 Z M55.25 8.89500000000001 V-0.47999999999998977 H64.625 V8.89500000000001 H55.25 Z M55.25 -10.85499999999999 V-20.22999999999999 H64.625 V-10.85499999999999 H55.25 Z M35.625 -30.47999999999999 V-39.85499999999999 H45.0 V-30.47999999999999 H35.625 Z M55.25 -30.47999999999999 V-39.85499999999999 H64.625 V-30.47999999999999 H55.25 Z M75.0 -30.47999999999999 V-39.85499999999999 H84.375 V-30.47999999999999 H75.0 Z M55.25 -50.22999999999999 V-59.60499999999999 H64.625 V-50.22999999999999 H55.25 Z M55.25 -69.97999999999999 V-79.35499999999999 H64.625 V-69.97999999999999 H55.25 Z M94.75 8.89500000000001 V-79.35499999999999 H104.125 V8.89500000000001 H94.75 Z"/></g><g id="Light-M" transform="matrix(1 0 0 1 1098.18 1126)"><path d="M16.625 8.14500000000001 V-78.60499999999999 H24.25 V8.14500000000001 H16.625 Z M56.125 8.14500000000001 V0.5200000000000102 H63.75 V8.14500000000001 H56.125 Z M56.125 -11.72999999999999 V-19.22999999999999 H63.75 V-11.72999999999999 H56.125 Z M36.5 -31.35499999999999 V-38.97999999999999 H44.0 V-31.35499999999999 H36.5 Z M56.125 -31.35499999999999 V-38.97999999999999 H63.75 V-31.35499999999999 H56.125 Z M76.0 -31.35499999999999 V-38.97999999999999 H83.5 V-31.35499999999999 H76.0 Z M56.125 -51.22999999999999 V-58.72999999999999 H63.75 V-51.22999999999999 H56.125 Z M56.125 -70.97999999999999 V-78.60499999999999 H63.75 V-70.97999999999999 H56.125 Z M95.75 8.14500000000001 V-78.60499999999999 H103.375 V8.14500000000001 H95.75 Z"/></g><g id="Thin-M" transform="matrix(1 0 0 1 802.565 1126)"><path d="M17.5 7.27000000000001 V-77.72999999999999 H23.25 V7.27000000000001 H17.5 Z M57.125 7.27000000000001 V1.5200000000000102 H62.875 V7.27000000000001 H57.125 Z M57.125 -12.47999999999999 V-18.35499999999999 H62.875 V-12.47999999999999 H57.125 Z M37.25 -32.35499999999999 V-38.10499999999999 H43.125 V-32.35499999999999 H37.25 Z M57.125 -32.35499999999999 V-38.10499999999999 H62.875 V-32.35499999999999 H57.125 Z M76.875 -32.35499999999999 V-38.10499999999999 H82.75 V-32.35499999999999 H76.875 Z M57.125 -52.10499999999999 V-57.97999999999999 H62.875 V-52.10499999999999 H57.125 Z M57.125 -71.97999999999999 V-77.72999999999999 H62.875 V-71.97999999999999 H57.125 Z M96.75 7.27000000000001 V-77.72999999999999 H102.5 V7.27000000000001 H96.75 Z"/></g><g id="Ultralight-M" transform="matrix(1 0 0 1 506.415 1126)"><path d="M18.0 6.77000000000001 V-77.35499999999999 H22.625 V6.77000000000001 H18.0 Z M57.625 6.77000000000001 V2.1450000000000102 H62.375 V6.77000000000001 H57.625 Z M57.625 -13.10499999999999 V-17.72999999999999 H62.375 V-13.10499999999999 H57.625 Z M37.875 -32.85499999999999 V-37.60499999999999 H42.5 V-32.85499999999999 H37.875 Z M57.625 -32.85499999999999 V-37.60499999999999 H62.375 V-32.85499999999999 H57.625 Z M77.5 -32.85499999999999 V-37.60499999999999 H82.25 V-32.85499999999999 H77.5 Z M57.625 -52.72999999999999 V-57.47999999999999 H62.375 V-52.72999999999999 H57.625 Z M57.625 -72.60499999999999 V-77.35499999999999 H62.375 V-72.60499999999999 H57.625 Z M97.375 6.77000000000001 V-77.35499999999999 H102.125 V6.77000000000001 H97.375 Z"/></g><g id="Bold-S" transform="matrix(1 0 0 1 2294.23 696)"><path d="M13.411422 -1.301421999999988 V-69.15857799999999 H22.978836 V-1.301421999999988 H13.411422 Z M42.506586 -1.301421999999988 V-10.868835999999988 H52.074 V-1.301421999999988 H42.506586 Z M42.506586 -16.09517199999999 V-25.66258599999999 H52.074 V-16.09517199999999 H42.506586 Z M27.419328 -30.396585999999992 V-39.96399999999999 H36.982008 V-30.396585999999992 H27.419328 Z M42.11366400000001 -30.396585999999992 V-39.96399999999999 H51.681078 V-30.396585999999992 H42.11366400000001 Z M56.907414 -30.396585999999992 V-39.96399999999999 H66.474828 V-30.396585999999992 H56.907414 Z M42.506586 -45.58799199999999 V-55.15067199999999 H52.074 V-45.58799199999999 H42.506586 Z M42.506586 -59.59116399999999 V-69.15857799999999 H52.074 V-59.59116399999999 H42.506586 Z M71.701164 -1.301421999999988 V-69.15857799999999 H81.268578 V-1.301421999999988 H71.701164 Z"/></g><g id="Semibold-S" transform="matrix(1 0 0 1 1998.1 696)"><path d="M14.102586 -1.9925859999999886 V-68.46741399999999 H22.287672 V-1.9925859999999886 H14.102586 Z M43.19775 -1.9925859999999886 V-10.177672000000001 H51.382836 V-1.9925859999999886 H43.19775 Z M43.19775 -16.78633599999999 V-24.971421999999997 H51.382836 V-16.78633599999999 H43.19775 Z M28.110491999999997 -31.087749999999993 V-39.27283599999999 H36.295578 V-31.087749999999993 H28.110491999999997 Z M42.804828 -31.087749999999993 V-39.27283599999999 H50.989914000000006 V-31.087749999999993 H42.804828 Z M57.598577999999996 -31.087749999999993 V-39.27283599999999 H65.783664 V-31.087749999999993 H57.598577999999996 Z M43.19775 -46.274421999999994 V-54.459508 H51.382836 V-46.274421999999994 H43.19775 Z M43.19775 -60.28232799999999 V-68.46741399999999 H51.382836 V-60.28232799999999 H43.19775 Z M72.39232799999999 -1.9925859999999886 V-68.46741399999999 H80.577414 V-1.9925859999999886 H72.39232799999999 Z"/></g><g id="Medium-S" transform="matrix(1 0 0 1 1701.85 696)"><path d="M14.495508 -2.3855080000000015 V-68.07449199999999 H21.89475 V-2.3855080000000015 H14.495508 Z M43.590672 -2.3855080000000015 V-9.784749999999988 H50.989914000000006 V-2.3855080000000015 H43.590672 Z M43.590672 -17.18399199999999 V-24.57849999999999 H50.989914000000006 V-17.18399199999999 H43.590672 Z M28.503414 -31.48067199999999 V-38.879914 H35.897922 V-31.48067199999999 H28.503414 Z M43.19775 -31.48067199999999 V-38.879914 H50.596992 V-31.48067199999999 H43.19775 Z M57.9915 -31.48067199999999 V-38.879914 H65.386008 V-31.48067199999999 H57.9915 Z M43.590672 -46.67207799999999 V-54.066585999999994 H50.989914000000006 V-46.67207799999999 H43.590672 Z M43.590672 -60.67524999999999 V-68.07449199999999 H50.989914000000006 V-60.67524999999999 H43.590672 Z M72.78525 -2.3855080000000015 V-68.07449199999999 H80.18449199999999 V-2.3855080000000015 H72.78525 Z"/></g><g id="Regular-S" transform="matrix(1 0 0 1 1405.73 696)"><path d="M14.893163999999999 -2.7831639999999993 V-67.676836 H21.501828 V-2.7831639999999993 H14.893163999999999 Z M43.988327999999996 -2.7831639999999993 V-9.39182799999999 H50.596992 V-2.7831639999999993 H43.988327999999996 Z M43.988327999999996 -17.576914000000002 V-24.185577999999992 H50.596992 V-17.576914000000002 H43.988327999999996 Z M28.896336 -31.87832799999999 V-38.486991999999994 H35.505 V-31.87832799999999 H28.896336 Z M43.590672 -31.87832799999999 V-38.486991999999994 H50.199335999999995 V-31.87832799999999 H43.590672 Z M58.384422 -31.87832799999999 V-38.486991999999994 H64.99308599999999 V-31.87832799999999 H58.384422 Z M43.988327999999996 -47.06499999999999 V-53.67366399999999 H50.596992 V-47.06499999999999 H43.988327999999996 Z M43.988327999999996 -61.06817199999999 V-67.676836 H50.596992 V-61.06817199999999 H43.988327999999996 Z M73.178172 -2.7831639999999993 V-67.676836 H79.786836 V-2.7831639999999993 H73.178172 Z"/></g><g id="Light-S" transform="matrix(1 0 0 1 1109.75 696)"><path d="M15.484914 -3.374914000000004 V-67.08508599999999 H20.71125 V-3.374914000000004 H15.484914 Z M44.679492 -3.374914000000004 V-8.601249999999993 H49.905828 V-3.374914000000004 H44.679492 Z M44.679492 -18.26807799999999 V-23.394999999999996 H49.905828 V-18.26807799999999 H44.679492 Z M29.5875 -32.569492 V-37.79582799999999 H34.714422 V-32.569492 H29.5875 Z M44.281836 -32.569492 V-37.79582799999999 H49.508172 V-32.569492 H44.281836 Z M59.175 -32.569492 V-37.79582799999999 H64.301922 V-32.569492 H59.175 Z M44.679492 -47.855577999999994 V-52.982499999999995 H49.905828 V-47.855577999999994 H44.679492 Z M44.679492 -61.85874999999999 V-67.08508599999999 H49.905828 V-61.85874999999999 H44.679492 Z M73.96875 -3.374914000000004 V-67.08508599999999 H79.19508599999999 V-3.374914000000004 H73.96875 Z"/></g><g id="Thin-S" transform="matrix(1 0 0 1 814.015 696)"><path d="M16.176078 -4.0660780000000045 V-66.39392199999999 H19.920672 V-4.0660780000000045 H16.176078 Z M45.46533599999999 -4.0660780000000045 V-7.810671999999997 H49.214664000000006 V-4.0660780000000045 H45.46533599999999 Z M45.46533599999999 -18.859827999999993 V-22.70383599999999 H49.214664000000006 V-18.859827999999993 H45.46533599999999 Z M30.17925 -33.35533599999999 V-37.104664 H34.027992 V-33.35533599999999 H30.17925 Z M45.072414 -33.35533599999999 V-37.104664 H48.817007999999994 V-33.35533599999999 H45.072414 Z M59.866164000000005 -33.35533599999999 V-37.104664 H63.710172 V-33.35533599999999 H59.866164000000005 Z M45.46533599999999 -48.542007999999996 V-52.39075 H49.214664000000006 V-48.542007999999996 H45.46533599999999 Z M45.46533599999999 -62.649328 V-66.39392199999999 H49.214664000000006 V-62.649328 H45.46533599999999 Z M74.759328 -4.0660780000000045 V-66.39392199999999 H78.50392199999999 V-4.0660780000000045 H74.759328 Z"/></g><g id="Ultralight-S" transform="matrix(1 0 0 1 517.792 696)"><path d="M16.569 -4.458999999999989 V-66.100414 H19.428336 V-4.458999999999989 H16.569 Z M45.862992000000006 -4.458999999999989 V-7.318335999999988 H48.817007999999994 V-4.458999999999989 H45.862992000000006 Z M45.862992000000006 -19.352163999999995 V-22.211499999999994 H48.817007999999994 V-19.352163999999995 H45.862992000000006 Z M30.671586 -33.752992 V-36.70700799999999 H33.530922000000004 V-33.752992 H30.671586 Z M45.46533599999999 -33.752992 V-36.70700799999999 H48.424085999999996 V-33.752992 H45.46533599999999 Z M60.3585 -33.752992 V-36.70700799999999 H63.31725 V-33.752992 H60.3585 Z M45.862992000000006 -49.03907799999999 V-51.99782799999999 H48.817007999999994 V-49.03907799999999 H45.862992000000006 Z M45.862992000000006 -63.14166399999999 V-66.100414 H48.817007999999994 V-63.14166399999999 H45.862992000000006 Z M75.251664 -4.458999999999989 V-66.100414 H78.210414 V-4.458999999999989 H75.251664 Z"/></g></g></svg>