<svg xmlns="http://www.w3.org/2000/svg" height="20" width="20"><path d="M3.458 18.083Q2.792 18.083 2.333 17.625Q1.875 17.167 1.875 16.5V5.104Q1.875 4.438 2.333 3.969Q2.792 3.5 3.458 3.5H6.917L9.438 1Q9.667 0.771 10 0.771Q10.333 0.771 10.562 1L13.083 3.5H16.542Q17.208 3.5 17.667 3.969Q18.125 4.438 18.125 5.104V16.5Q18.125 17.167 17.667 17.625Q17.208 18.083 16.542 18.083ZM3.458 16.75H16.542Q16.646 16.75 16.719 16.688Q16.792 16.625 16.792 16.5V5.104Q16.792 4.979 16.719 4.906Q16.646 4.833 16.542 4.833H3.458Q3.354 4.833 3.281 4.906Q3.208 4.979 3.208 5.104V16.5Q3.208 16.625 3.281 16.688Q3.354 16.75 3.458 16.75ZM6 14.75Q5.688 14.75 5.448 14.521Q5.208 14.292 5.208 13.958V7.625Q5.208 7.312 5.448 7.073Q5.688 6.833 6 6.833H14Q14.312 6.833 14.552 7.073Q14.792 7.312 14.792 7.625V13.958Q14.792 14.292 14.552 14.521Q14.312 14.75 14 14.75ZM6.542 13.417V8.167V13.417ZM6.542 13.417H13.458V8.167H6.542Z"/></svg>