<svg xmlns="http://www.w3.org/2000/svg" height="20" width="20"><path d="m7.458 15.417-2.396-2.375q-.333-.334-.51-.761t-.177-.885V7.104q0-.979.656-1.635.657-.657 1.636-.657H7L5.854 5.958V2.979q0-.458.344-.802.344-.344.802-.344.458 0 .802.344.344.344.344.802v2.209h3.708V2.979q0-.458.344-.802.344-.344.802-.344.458 0 .802.344.344.344.344.802v2.979L13 4.812h.333q.979 0 1.636.657.656.656.656 1.635v4.292q0 .458-.177.885t-.51.761l-2.396 2.375v1.625q0 .458-.334.791-.333.334-.791.334H8.583q-.458 0-.791-.334-.334-.333-.334-.791Z"/></svg>