<svg xmlns="http://www.w3.org/2000/svg" height="48" viewBox="0 96 960 960" width="48"><path d="M520 995.999q-64.538 0-102.268-55.038Q380.001 885.922 380.001 816t37.731-124.961q37.73-55.038 102.268-55.038 64.538 0 102.268 55.038Q659.999 746.078 659.999 816t-37.731 124.961Q584.538 995.999 520 995.999ZM169.308 971.23l-42.768-14.384q27.231-93.462 40.154-188.615Q179.617 673.077 179.617 576t-12.923-192.538Q153.771 288 126.54 194.539l42.768-14.769q28.231 97.308 41.962 196.307Q225 475.077 225 576q0 100.307-13.73 199.307-13.731 99-41.962 195.923Zm620.999 0q-28.231-96.923-41.961-195.923-13.731-99-13.731-199.307 0-100.923 13.731-199.923 13.73-98.999 41.961-196.307l42.768 14.769Q805.845 288 792.922 383.462 779.999 478.923 779.999 576q0 97.077 12.923 192.231 12.923 95.153 40.153 188.615l-42.768 14.384ZM520 950.615q45.692 0 70.154-41.461 24.461-41.462 24.461-93.154 0-51.692-24.461-93.154-24.462-41.461-70.154-41.461-45.692 0-70.154 41.461-24.461 41.462-24.461 93.154 0 51.692 24.461 93.154 24.462 41.461 70.154 41.461Zm-26.769-67.231q7.077 6.462 16.577 6.269 9.499-.192 16.961-7.269 13.231-12.846 20.154-30.192T553.846 816q0-18.846-6.808-36t-19.654-30.384q-6.461-7.077-16.076-7.269-9.615-.193-17.077 6.269-7.461 6.461-7.769 16.576-.308 10.115 6.154 17.577 3.077 3.077 8.308 12.346 5.23 9.27 5.23 20.885 0 11.615-5.23 20.885-5.231 9.269-8.308 12.346-7.462 7.462-7.154 17.577.308 10.115 7.769 16.576ZM440 515.999q-64.538 0-102.268-55.038Q300.001 405.922 300.001 336t37.731-124.961q37.73-55.038 102.268-55.038 64.538 0 102.268 55.038Q579.999 266.078 579.999 336t-37.731 124.961Q504.538 515.999 440 515.999Zm0-45.384q45.692 0 70.154-41.461 24.461-41.462 24.461-93.154 0-51.692-24.461-93.154-24.462-41.461-70.154-41.461-45.692 0-70.154 41.461-24.461 41.462-24.461 93.154 0 51.692 24.461 93.154 24.462 41.461 70.154 41.461Zm25.769-67.231q7.461-6.461 7.769-16.576.308-10.115-6.154-17.577-6.154-6.769-9.846-15.423T453.846 336q0-9.154 3.692-17.808t9.846-15.423q6.846-7.462 6.846-17.077 0-9.615-7.461-17.076-7.077-6.462-16.769-6.462-9.692 0-16.769 7.077-13.231 13.231-20.154 30.577-6.923 17.346-6.923 36.192t6.616 36q6.615 17.154 19.846 30.384 7.077 7.077 16.576 7.269 9.5.193 16.577-6.269ZM440 336Zm80 480Z"/></svg>