<svg xmlns="http://www.w3.org/2000/svg" height="48" width="48"><path d="M23.95 42.7Q23.3 42.7 22.675 42.475Q22.05 42.25 21.45 41.8L6.65 30.35Q5.8 29.7 5.8 28.675Q5.8 27.65 6.65 27.05Q7.25 26.7 7.925 26.675Q8.6 26.65 9.15 27.05L23.95 38.55Q23.95 38.55 23.95 38.55Q23.95 38.55 23.95 38.55L38.85 27.05Q39.4 26.7 40.1 26.675Q40.8 26.65 41.4 27.05Q42.2 27.65 42.225 28.675Q42.25 29.7 41.4 30.35L26.6 41.8Q25.95 42.25 25.3 42.475Q24.65 42.7 23.95 42.7ZM23.95 33.7Q23.3 33.7 22.675 33.45Q22.05 33.2 21.45 32.75L6.55 21.3Q6.15 21 5.975 20.55Q5.8 20.1 5.8 19.65Q5.8 19.2 5.975 18.75Q6.15 18.3 6.55 18L21.45 6.55Q22.05 6.15 22.675 5.9Q23.3 5.65 24 5.65Q24.65 5.65 25.3 5.9Q25.95 6.15 26.6 6.55L41.4 18Q41.85 18.3 42.025 18.75Q42.2 19.2 42.2 19.65Q42.2 20.1 42.025 20.55Q41.85 21 41.4 21.3L26.6 32.75Q25.95 33.2 25.3 33.45Q24.65 33.7 23.95 33.7Z"/></svg>