<svg xmlns="http://www.w3.org/2000/svg" height="40" width="40"><path d="m29.708 36.833 2.167-2.208-8.583-8.542-2.209 2.167q-1.791 1.75-1.791 4.271t1.791 4.312q1.792 1.834 4.313 1.813 2.521-.021 4.312-1.813Zm4-4.041 2.209-2.167q1.75-1.75 1.75-4.271t-1.75-4.312q-1.792-1.792-4.313-1.792t-4.271 1.792l-2.166 2.208Zm-21.5-17.834h15.584v-2.625H12.208ZM20 7.417q.708 0 1.188-.479.479-.48.479-1.188 0-.667-.479-1.167-.48-.5-1.188-.5t-1.188.5q-.479.5-.479 1.167 0 .708.479 1.188.48.479 1.188.479ZM17.417 36H8.292q-1.75 0-2.98-1.25-1.229-1.25-1.229-3V8.417q0-1.75 1.229-3 1.23-1.25 2.98-1.25h6.958q.5-1.5 1.792-2.396Q18.333.875 20 .875q1.667 0 2.958.896 1.292.896 1.792 2.396h6.958q1.75 0 3 1.25t1.25 3v10.375q-2.291-1.25-4.791-1.125-2.5.125-4.542 1.5v-.417H12.208v2.667h12l-3.833 3.791h-8.167v2.625h5.834q-1.209 1.834-1.334 3.979-.125 2.146.709 4.188Z"/></svg>