<svg xmlns="http://www.w3.org/2000/svg" height="48" viewBox="0 -960 960 960" width="48"><path d="M480.001-298.424q-76.193 0-128.885-52.66-52.692-52.66-52.692-128.835 0-75.081 52.66-128.715 52.66-53.635 128.835-53.635 75.081 0 128.715 53.545 53.635 53.546 53.635 128.723 0 76.193-53.545 128.885-53.546 52.692-128.723 52.692ZM187.77-312.347q-21.867-36.692-33.433-79.084-11.566-42.392-11.566-89.153 0-47.145 11.566-89.405 11.566-42.259 33.433-79.587l38.269 22.884q-19.818 32.745-29.621 69.324-9.802 36.579-9.802 76.628 0 39.872 9.807 76.94 9.808 37.069 29.616 69.877l-38.269 21.576Zm584.46 0-37.576-21.421q19.115-33.027 28.923-70.104 9.807-37.078 9.807-76.958 0-39.881-9.802-76.509-9.803-36.628-28.928-69.353l37.576-22.884q21.866 37.328 33.433 79.587 11.566 42.26 11.566 89.213 0 46.953-11.566 89.345-11.567 42.392-33.433 79.084Z"/></svg>