<svg xmlns="http://www.w3.org/2000/svg" height="48" width="48"><path d="M27.25 42.7q-.55.1-.95-.25-.4-.35-.4-.95 0-.35.25-.65.25-.3.6-.4 1.85-.35 3.525-1.05 1.675-.7 3.225-1.65.35-.2.775-.175.425.025.725.325.45.45.4 1.05-.05.6-.6.9-1.7 1.05-3.6 1.775-1.9.725-3.95 1.075ZM38 34.95q-.3-.3-.325-.7-.025-.4.225-.7 1-1.5 1.625-3.175.625-1.675.975-3.475.1-.4.4-.65.3-.25.7-.25.55 0 .9.425t.25.975q-.35 2-1.075 3.85t-1.775 3.5q-.3.55-.9.6-.6.05-1-.4ZM41.55 22q-.35 0-.65-.25-.3-.25-.4-.65-.35-1.8-.975-3.475T37.9 14.5q-.25-.35-.225-.75.025-.4.325-.7.45-.45 1.05-.425.6.025.9.575 1.1 1.65 1.775 3.525Q42.4 18.6 42.75 20.6q.15.55-.2.975-.35.425-1 .425ZM33.6 10.3q-1.55-1-3.2-1.7-1.65-.7-3.5-1.05-.35-.1-.6-.4-.25-.3-.25-.65 0-.6.4-.95t.95-.25q2.05.4 3.9 1.125T34.85 8.2q.55.3.625.875.075.575-.425 1.075-.25.3-.7.325-.45.025-.75-.175Zm-20.55-.2q-.5-.45-.425-1.025.075-.575.575-.925 1.75-1.05 3.625-1.75t3.825-1.1q.6-.1 1 .25t.4.95q0 .35-.25.65-.25.3-.6.4-1.8.3-3.475.975T14.5 10.25q-.3.2-.725.15-.425-.05-.725-.3ZM6.45 22q-.6 0-.925-.425-.325-.425-.275-.975.4-2 1.125-3.825Q7.1 14.95 8.15 13.25q.3-.5.9-.575.6-.075 1.05.375.25.3.275.7.025.4-.175.7-1.05 1.5-1.675 3.175Q7.9 19.3 7.55 21.1q-.1.4-.425.65Q6.8 22 6.45 22Zm1.6 12.75q-1.1-1.65-1.775-3.5Q5.6 29.4 5.25 27.4q-.1-.55.25-.975.35-.425 1-.425.3 0 .625.25t.425.65q.35 1.8.975 3.475T10.2 33.5q.2.35.175.75-.025.4-.325.7-.45.45-1.05.4-.6-.05-.95-.6ZM20.5 42.7q-1.95-.4-3.8-1.1-1.85-.7-3.5-1.75-.55-.3-.625-.9-.075-.6.375-1.1.3-.3.725-.3t.725.2q1.5 1 3.175 1.675 1.675.675 3.475 1.025.35.1.6.4.25.3.25.65 0 .6-.425.95t-.975.25Zm3.55-14.45q-1.8 0-3.05-1.225Q19.75 25.8 19.75 24q0-1.8 1.25-3.025 1.25-1.225 3.05-1.225 1.75 0 3 1.225T28.3 24q0 1.8-1.25 3.025-1.25 1.225-3 1.225Z"/></svg>