<svg xmlns="http://www.w3.org/2000/svg" height="40" width="40"><path d="M27.625 35.917q-.708 0-1.208-.459-.5-.458-.5-1.208v-2.167l-12.75-6.25q-.125.084-.375.125-.25.042-.375.042h-5.25q-.709 0-1.209-.5-.5-.5-.5-1.208v-5.25q0-.709.5-1.209.5-.5 1.209-.5h5.375l5.208-5.791q-.083-.167-.125-.354-.042-.188-.042-.48V5.5q0-.708.479-1.229.48-.521 1.23-.521H24.5q.708 0 1.229.521.521.521.521 1.229v5.208q0 .75-.521 1.23-.521.479-1.229.479h-5.292l-5.25 5.916q.084.167.125.396.042.229.042.313v5.375l11.917 5.875v-1.584q-.042-.583.458-1.02.5-.438 1.125-.438h5.208q.709 0 1.229.521.521.521.521 1.229v5.208q0 .75-.521 1.23-.52.479-1.229.479Z"/></svg>