<svg xmlns="http://www.w3.org/2000/svg" height="20" width="20"><path d="M4.771 16.667Q4.167 16.667 3.75 16.25Q3.333 15.833 3.333 15.229V4.771Q3.333 4.167 3.75 3.75Q4.167 3.333 4.771 3.333H15.229Q15.833 3.333 16.25 3.75Q16.667 4.167 16.667 4.771V15.229Q16.667 15.833 16.25 16.25Q15.833 16.667 15.229 16.667ZM6.833 7.417Q7.083 7.417 7.271 7.229Q7.458 7.042 7.458 6.771Q7.458 6.521 7.271 6.333Q7.083 6.146 6.833 6.146Q6.562 6.146 6.375 6.333Q6.188 6.521 6.188 6.771Q6.188 7.042 6.375 7.229Q6.562 7.417 6.833 7.417ZM10.042 7.417Q10.292 7.417 10.49 7.229Q10.688 7.042 10.688 6.771Q10.688 6.521 10.49 6.333Q10.292 6.146 10.042 6.146Q9.792 6.146 9.594 6.333Q9.396 6.521 9.396 6.771Q9.396 7.042 9.594 7.229Q9.792 7.417 10.042 7.417ZM13.229 7.417Q13.5 7.417 13.688 7.229Q13.875 7.042 13.875 6.771Q13.875 6.521 13.688 6.333Q13.5 6.146 13.229 6.146Q12.979 6.146 12.792 6.333Q12.604 6.521 12.604 6.771Q12.604 7.042 12.792 7.229Q12.979 7.417 13.229 7.417ZM13.229 10.604Q13.5 10.604 13.688 10.406Q13.875 10.208 13.875 9.958Q13.875 9.708 13.688 9.51Q13.5 9.312 13.229 9.312Q12.979 9.312 12.792 9.51Q12.604 9.708 12.604 9.958Q12.604 10.208 12.792 10.406Q12.979 10.604 13.229 10.604ZM10.042 10.604Q10.292 10.604 10.49 10.406Q10.688 10.208 10.688 9.958Q10.688 9.708 10.49 9.51Q10.292 9.312 10.042 9.312Q9.792 9.312 9.594 9.51Q9.396 9.708 9.396 9.958Q9.396 10.208 9.594 10.406Q9.792 10.604 10.042 10.604ZM6.833 10.604Q7.083 10.604 7.271 10.406Q7.458 10.208 7.458 9.958Q7.458 9.708 7.271 9.51Q7.083 9.312 6.833 9.312Q6.562 9.312 6.375 9.51Q6.188 9.708 6.188 9.958Q6.188 10.208 6.375 10.406Q6.562 10.604 6.833 10.604ZM4.771 15.75H15.229Q15.458 15.75 15.604 15.604Q15.75 15.458 15.75 15.229V4.771Q15.75 4.542 15.604 4.396Q15.458 4.25 15.229 4.25H4.771Q4.542 4.25 4.396 4.396Q4.25 4.542 4.25 4.771V15.229Q4.25 15.458 4.396 15.604Q4.542 15.75 4.771 15.75ZM4.25 15.75Q4.25 15.75 4.25 15.604Q4.25 15.458 4.25 15.229V4.771Q4.25 4.542 4.25 4.396Q4.25 4.25 4.25 4.25Q4.25 4.25 4.25 4.396Q4.25 4.542 4.25 4.771V15.229Q4.25 15.458 4.25 15.604Q4.25 15.75 4.25 15.75Z"/></svg>