<svg xmlns="http://www.w3.org/2000/svg" height="48" width="48"><path d="M18.05 39.4H9.7q-.45 0-.775-.325T8.6 38.3v-8.35q1.45-.7 2.325-2.05.875-1.35.875-2.95t-.875-2.925Q10.05 20.7 8.6 19.95V11.6q0-.45.325-.775T9.7 10.5h8.25q.85-1.55 2.175-2.425Q21.45 7.2 23.1 7.2q1.6 0 2.925.875Q27.35 8.95 28.2 10.5h8.2q.45 0 .775.325t.325.775v8.2q1.55.85 2.4 2.2.85 1.35.85 3 0 1.6-.85 2.9-.85 1.3-2.4 2.15v8.25q0 .45-.325.775t-.775.325h-8.35q-.8-1.55-2.15-2.375-1.35-.825-2.85-.825t-2.875.825Q18.8 37.85 18.05 39.4Z"/></svg>