<svg xmlns="http://www.w3.org/2000/svg" height="40" width="40"><path d="M18.333 35.083q-3.125 0-5.937-1.208-2.813-1.208-4.917-3.313-2.104-2.104-3.312-4.916-1.209-2.813-1.209-5.979Q2.958 13.458 7.25 9t10.458-4.708q.75 0 1.5.062.75.063 1.542.188.75.083 1.271.5.521.416.521 1.25 0 .875-.604 1.354-.605.479-1.563.396-.625-.125-1.25-.188-.625-.062-1.167-.021-4.791.167-8.125 3.584Q6.5 14.833 6.5 19.667q0 4.958 3.458 8.416 3.459 3.459 8.417 3.459 4.625 0 8-3.125t3.792-7.709q0-.416-.021-.833t.021-.875q-.042-.833.479-1.375T32 17.083q.667 0 1.167.479.5.48.541 1.105.042.625.021 1.229-.021.604-.021 1.146-.5 5.916-4.896 9.979-4.395 4.062-10.479 4.062Zm13.459-20.625q-.625 0-1.063-.437-.437-.438-.437-1.063V9.375h-3.625q-.625 0-1.042-.437-.417-.438-.417-1.063 0-.583.417-1.021.417-.437 1.042-.437h3.625V2.792q0-.625.437-1.063.438-.437 1.063-.437t1.041.437q.417.438.417 1.063v3.625h3.667q.583 0 1 .437.416.438.416 1.063 0 .583-.416 1.021-.417.437-1 .437H33.25v3.583q0 .625-.417 1.063-.416.437-1.041.437Zm-9.834 11.167-4.75-4.667q-.25-.25-.375-.562-.125-.313-.125-.688v-6.833q0-.625.438-1.042.437-.416 1.062-.416.584 0 1.021.416.438.417.438 1.042v6.375l4.375 4.333q.416.459.416 1.042t-.416 1q-.459.458-1.042.458t-1.042-.458Z"/></svg>