<svg xmlns="http://www.w3.org/2000/svg" height="20" viewBox="0 -960 960 960" width="20"><path d="M441.65-307.38h223.58q6.11 0 10.38-4.22 4.27-4.21 4.27-10.04 0-5.82-4.27-10.24-4.27-4.43-10.38-4.43H470.58l-28.93 28.93Zm-134.57 0h39.85q5.34 0 9.66-2.18 4.31-2.17 7.96-5.84l254.27-254.27q2.98-3.5 4.42-7.29 1.45-3.79 1.45-7.74t-1.41-7.84q-1.42-3.89-4.55-7.96l-44.61-45.88q-3.21-2.66-7.45-4.18-4.24-1.52-8.1-1.52-3.74 0-7.97 1.37-4.23 1.38-7.81 5.12L288.58-391.88q-4.12 4.09-6.1 8.41-1.98 4.31-1.98 9.61v39.51q0 11.5 7.54 19.23 7.54 7.74 19.04 7.74Zm295.96-277.27-45-45.77 45 45.77ZM302.15-329.42v-45l208.81-208.7 21.23 23.54 22.77 23-207.81 207.16h-45Zm230.04-230.16 22.77 23-44-46.54 21.23 23.54Zm-289.3 370.04q-22.45 0-37.9-15.45t-15.45-37.9v-474.22q0-22.45 15.45-37.9t37.9-15.45h474.22q22.45 0 37.9 15.45t15.45 37.9v474.22q0 22.45-15.45 37.9t-37.9 15.45H242.89Zm.19-28.92h473.84q9.23 0 16.93-7.69 7.69-7.7 7.69-16.93v-473.84q0-9.23-7.69-16.93-7.7-7.69-16.93-7.69H243.08q-9.23 0-16.93 7.69-7.69 7.7-7.69 16.93v473.84q0 9.23 7.69 16.93 7.7 7.69 16.93 7.69Zm-24.62-523.08V-218.46-741.54Z"/></svg>