<svg xmlns="http://www.w3.org/2000/svg" height="48" width="48"><path d="M5.75 34.15V16.15Q5.75 15.6 6.15 15.2Q6.55 14.8 7.1 14.8H38.8Q39.35 14.8 39.75 15.2Q40.15 15.6 40.15 16.15V34.15Q40.15 34.4 40 34.55Q39.85 34.7 39.6 34.7Q39.5 34.7 39.4 34.65Q39.3 34.6 39.225 34.525Q39.15 34.45 39.1 34.35Q39.05 34.25 39.05 34.15V30.4H28.75V34.15Q28.75 34.25 28.7 34.35Q28.65 34.45 28.575 34.525Q28.5 34.6 28.4 34.65Q28.3 34.7 28.2 34.7Q27.95 34.7 27.8 34.55Q27.65 34.4 27.65 34.15V15.9H6.85V34.15Q6.85 34.4 6.7 34.55Q6.55 34.7 6.3 34.7Q6.05 34.7 5.9 34.55Q5.75 34.4 5.75 34.15ZM28.75 21.3H39.05V15.9H28.75ZM28.75 29.3H39.05V22.4H28.75Z"/></svg>