<svg xmlns="http://www.w3.org/2000/svg" height="48" width="48"><path d="M6.15 34.15V16.15Q6.15 15.55 6.525 15.15Q6.9 14.75 7.5 14.75H39.2Q39.75 14.75 40.15 15.15Q40.55 15.55 40.55 16.15V34.15Q40.55 34.4 40.4 34.525Q40.25 34.65 40 34.65Q39.9 34.65 39.775 34.65Q39.65 34.65 39.575 34.575Q39.5 34.5 39.475 34.375Q39.45 34.25 39.45 34.15V30.35H29.15V34.15Q29.15 34.25 29.1 34.35Q29.05 34.45 28.975 34.525Q28.9 34.6 28.775 34.625Q28.65 34.65 28.55 34.65Q28.3 34.65 28.175 34.525Q28.05 34.4 28.05 34.15V15.85H7.25V34.15Q7.25 34.4 7.1 34.525Q6.95 34.65 6.65 34.65Q6.4 34.65 6.275 34.525Q6.15 34.4 6.15 34.15ZM29.15 21.25H39.45V15.85H29.15ZM29.15 29.25H39.45V22.35H29.15Z"/></svg>