<svg xmlns="http://www.w3.org/2000/svg" height="20" viewBox="0 96 960 960" width="20"><path d="M184.263 931.922q-25.053 0-42.619-17.566t-17.566-42.619V280.263q0-25.053 17.566-42.619t42.619-17.566h591.474q25.053 0 42.619 17.566t17.566 42.619v591.474q0 25.053-17.566 42.619t-42.619 17.566H184.263Zm-12.225-200.038v139.769q0 5.385 3.462 8.847 3.462 3.462 8.847 3.462h65.654v-80.463h-14.596q-7.423 0-11.241-3.98-3.817-3.981-3.817-11.112v-56.523h-48.309Zm0-47.96h48.309v-8.462q0-13.048 7.827-23.389 7.827-10.342 20.096-15.342v-122.73q0-16.635 11.588-28.279 11.588-11.644 28.142-11.644h96q16.634 0 28.279 11.644 11.644 11.644 11.644 28.279v122.73q11.999 5 19.865 15.342 7.865 10.341 7.865 23.389v8.462h336.309V280.347q0-5.385-3.462-8.847-3.462-3.462-8.847-3.462H184.347q-5.385 0-8.847 3.462-3.462 3.462-3.462 8.847v403.577ZM252 771.846h168V667.384H252v104.462Zm84.095-325.806q-21.595 0-36.71-15.077-15.115-15.077-15.115-36.615 0-21.538 15.076-36.75 15.077-15.211 36.616-15.211 21.538 0 36.749 15.116 15.212 15.116 15.212 36.711t-15.117 36.71q-15.116 15.116-36.711 15.116Zm-27.364 437.922h54.538v-80.463h-54.538v80.463Zm113.268 0h353.654q5.385 0 8.847-3.462 3.462-3.462 3.462-8.847V731.884H451.653v56.749q0 7.136-3.865 11.001-3.866 3.865-10.904 3.865h-14.885v80.463Zm73.232-460.116q-15.731-18.551-23.346-37.968-7.615-19.418-7.615-39.977V337q.807-8.192 6.966-12.557 6.159-4.366 14.855-4.366 5.081 0 8.764 5.558 3.683 5.558 2.068 11.043 0 2.322-.5 4.808-.5 2.486-.5 4.472 0 15.35 6.23 29.138 6.231 13.789 18.616 28.866 13.685 16.66 20.42 35.483 6.734 18.823 6.734 43.555-2 9.64-7.637 17.185-5.638 7.545-15.308 7.545-7.67 0-9.689-8.045T515.27 483q11-1.524-2.827-27.954-13.827-26.431-17.212-31.2Zm91 0q-15.731-18.551-23.346-37.968-7.615-19.418-7.615-39.977V337q.807-8.192 6.966-12.557 6.16-4.366 14.855-4.366 5.081 0 8.764 5.558 3.683 5.558 2.068 11.043 0 2.322-.5 4.808-.5 2.486-.5 4.472 0 15.35 6.23 29.138 6.231 13.789 18.616 28.866 13.685 16.66 20.92 35.483 7.234 18.823 7.234 43.555-2 10.64-8.137 17.685-6.138 7.045-15.808 7.045-7.67 0-9.689-8.045T606.27 483q11-1.524-2.827-27.954-13.827-26.431-17.212-31.2Zm94 0q-15.731-18.551-23.346-37.968-7.615-19.418-7.615-39.977V337q.807-8.192 6.966-12.557 6.16-4.366 14.855-4.366 5.081 0 8.764 5.558 3.683 5.558 2.068 11.043 0 2.322-.5 4.808-.5 2.486-.5 4.472 0 15.35 6.23 29.138 6.231 13.789 18.616 28.866 13.685 16.66 20.42 35.483 6.734 18.823 6.734 43.555-2 9.64-7.445 17.185-5.445 7.545-15.115 7.545-7.67 0-9.882-8.045-2.211-8.045-.211-16.685 11-1.524-2.827-27.954-13.827-26.431-17.212-31.2ZM252 771.846V667.384v104.462Z"/></svg>