<svg xmlns="http://www.w3.org/2000/svg" height="40" width="40"><path d="M3.667 28.375Q3.292 28.375 2.958 28.25Q2.625 28.125 2.375 27.833Q2.042 27.542 1.917 27.208Q1.792 26.875 1.792 26.542Q1.792 26.167 1.917 25.854Q2.042 25.542 2.375 25.25L12.583 14.958Q14.042 13.583 16 12.75Q17.958 11.917 20 11.917Q22.042 11.917 23.979 12.708Q25.917 13.5 27.333 14.875L27.875 15.375L25.25 18L24.75 17.5Q23.833 16.708 22.542 16.146Q21.25 15.583 20 15.583Q18.75 15.583 17.417 16.146Q16.083 16.708 15.125 17.625L4.958 27.833Q4.667 28.125 4.312 28.25Q3.958 28.375 3.667 28.375ZM5.542 18.042 2.375 14.792Q2.042 14.5 1.917 14.167Q1.792 13.833 1.792 13.458Q1.792 13.125 1.917 12.792Q2.042 12.458 2.375 12.167Q2.625 11.875 2.958 11.75Q3.292 11.625 3.667 11.625Q3.958 11.625 4.312 11.771Q4.667 11.917 4.958 12.167L8.167 15.417ZM20 28.083Q17.958 28.083 16 27.25Q14.042 26.417 12.667 25.083L12.167 24.583L14.792 21.958L15.292 22.458Q16.208 23.375 17.479 23.896Q18.75 24.417 20 24.417Q21.25 24.417 22.583 23.854Q23.917 23.292 24.875 22.375L35.042 12.167Q35.333 11.875 35.667 11.75Q36 11.625 36.333 11.625Q36.667 11.625 37.021 11.75Q37.375 11.875 37.625 12.167Q37.917 12.458 38.062 12.792Q38.208 13.125 38.208 13.458Q38.208 13.833 38.104 14.146Q38 14.458 37.667 14.75L27.458 24.958Q26.042 26.333 24.042 27.208Q22.042 28.083 20 28.083ZM36.333 28.375Q36.042 28.375 35.708 28.25Q35.375 28.125 35.083 27.833L31.833 24.583L34.417 21.958L37.625 25.208Q37.958 25.5 38.062 25.833Q38.167 26.167 38.167 26.542Q38.167 26.875 38.062 27.208Q37.958 27.542 37.625 27.833Q37.375 28.125 37.042 28.25Q36.708 28.375 36.333 28.375Z"/></svg>