<svg xmlns="http://www.w3.org/2000/svg" height="24" viewBox="0 -960 960 960" width="24"><path d="M358.92-120q-23.38 0-40.92-14.31-17.54-14.31-24.54-35.92L250.77-340h456.92L665-170.23q-7 21.61-24.54 35.92Q622.92-120 599.54-120H358.92Zm120.31-515.38q7.69-73.85 57.92-127.54 50.23-53.7 123.01-69.85 3.99-1.15 7.61.08 3.61 1.23 6.85 4.23 3.23 3 4.34 6.76 1.12 3.75.12 7.93-16.39 66.69-64.5 114.81-48.12 48.11-115.35 61.88v97.85h268.46q13.73 0 23.02 9.29t9.29 23.02v67.3q0 27.77-19.88 47.54-19.89 19.77-47.81 19.77H227.69q-27.92 0-47.81-19.72Q160-411.75 160-439.44v-67.14q0-14.27 9.29-23.46 9.29-9.19 23.02-9.19h266.92v-97.85Q392-650.85 343.88-698.96q-48.11-48.12-64.5-114.81-1-4.18.12-7.93 1.12-3.76 4.35-6.76 3.23-3 7.23-4.23 4-1.23 8-.03 72.77 16.87 122.23 70.57 49.46 53.69 57.92 126.77Z"/></svg>