<svg xmlns="http://www.w3.org/2000/svg" height="40" viewBox="0 -960 960 960" width="40"><path d="m655.769-210.166-92.588 92.92-94.703-94.703 92.92-93.153q-3.746-9.681-5.181-20.174-1.434-10.492-1.434-21.673 0-59.573 41.484-101.131t101.8-41.558q17.868 0 34.928 4.209 17.061 4.209 32.723 12.777l-98.037 97.703 58.5 58.5 98.269-97.602q7.502 15.67 11.961 32.321 4.459 16.65 4.459 34.895 0 60.316-41.558 101.8-41.558 41.484-101.131 41.484-11.115 0-21.923-1.623-10.808-1.623-20.489-4.992Zm188.29-333.167h-82.422Q738.58-639.601 660.64-704.424 582.699-769.247 480-769.247q-120.645 0-204.758 84.301Q191.13-600.645 191.13-480q0 72.344 32.601 132.259 32.602 59.915 87.109 97.705V-351.13h80.29v240.29H150.84v-80.29h102.768q-65.399-49.717-104.083-124.768Q110.84-390.949 110.84-480q0-76.931 28.869-143.893 28.87-66.963 79.153-117.245 50.282-50.283 117.359-79.341Q403.297-849.537 480-849.537q137.678 0 239.524 87.627 101.847 87.627 124.535 218.577Z"/></svg>