<svg xmlns="http://www.w3.org/2000/svg" height="20" viewBox="0 -960 960 960" width="20"><path d="M500.23-216.75q-12.19 0-20.21-8-8.02-8.01-8.02-20.18v-38.67q0-12.17 8.02-20.2t20.21-8.03h61.84l51.85-50.4q6.46-5.69 15.27-2.3 8.81 3.4 8.81 11.99v176.31q0 8.59-8.81 11.99-8.81 3.39-15.27-2.3l-51.85-50.21h-61.84ZM869.69-264q0 62.08-40.38 109.12-40.39 47.03-102.31 58.5-7.08 1.15-12.65-3.77-5.58-4.93-4.5-10.97 1.07-6.03 5.23-11.73 4.15-5.69 11.23-7.07 48-10.85 79.69-48.16 31.69-37.3 31.69-86.69 0-49.38-31.69-86.69-31.69-37.31-79.69-48.16-7.08-1.38-11.23-6.69-4.16-5.31-5.23-11.34-1.08-6.04 4.5-10.97 5.57-4.92 12.65-3.76 61.92 11.46 102.31 58.88 40.38 47.42 40.38 109.5Zm-141.07-55.92q15.46 7.92 24.69 22.84 9.23 14.93 9.23 33.08t-9.62 32.69q-9.61 14.54-25.07 22.46-6.47 2.7-12.16-1.03-5.69-3.74-5.69-12.4v-84.06q0-7.75 5.69-12.4 5.69-4.64 12.93-1.18Zm-536 87.92q-23.55 0-40.09-16.55Q136-265.09 136-288.66v-383.01q0-23.56 16.53-39.95Q169.07-728 192.62-728h48l40 80q5 11 15.78 17.5t23.22 6.5q23.71 0 36.35-20 12.65-20 1.65-42l-21-42h72l40 80q5 11 15.78 17.5t23.22 6.5q23.71 0 36.35-20 12.65-20 1.65-42l-21-42h72l40 80q5 11 15.78 17.5t23.22 6.5q23.71 0 36.35-20 12.65-20 1.65-42l-21-42h94.76q23.55 0 40.09 16.53Q824-694.93 824-671.38v133.61q0 16.15-14.5 24.15T780.38-512q-11.46-4.69-28.92-6.96-17.46-2.27-29-2.27-32.46 0-56.04 6.73-23.57 6.73-42.15 23.77l-97.35 91.19h-85.83q-23.49 0-39.98 16.54-16.49 16.53-16.49 40.08v82.61q0 12.23-8.05 20.27-8.04 8.04-20.26 8.04H192.62Z"/></svg>