<svg xmlns="http://www.w3.org/2000/svg" height="40" viewBox="0 -960 960 960" width="40"><path d="M480-76.25q-11.1 0-22.25-3.01-11.14-3.01-20.92-8.67L150.46-250.49q-21.2-11.99-33.08-31.88-11.89-19.89-11.89-44.4V-639.9q0-24.51 12.22-44.92t33.42-32.02l286.36-156.57q9.79-5.65 20.6-8.33 10.81-2.68 21.91-2.68t21.91 2.68q10.81 2.68 20.97 8.33l285.99 156.57q21.2 11.61 33.42 32.02 12.22 20.41 12.22 44.92v313.13q0 24.51-11.89 44.4-11.88 19.89-33.08 31.88L523.55-87.93q-10.16 5.66-21.3 8.67-11.15 3.01-22.25 3.01ZM364.01-590.86q23.24-22.62 52.55-36.03T480-640.3q34.13 0 63.35 13.41t52.45 36.03l126.36-73.47L480-794.38 237.84-664.33l126.17 73.47Zm75.69 403.09v-137.48q-52.57-14.18-86.29-56.29Q319.7-423.65 319.7-480q0-9.01.62-18.74.62-9.72 4.39-20.83l-131.07-77.04v269.54l246.06 139.3Zm40.38-212.53q33.24 0 56.43-23.6 23.19-23.6 23.19-56.18 0-33.24-23.27-56.43-23.26-23.19-56.51-23.19-32.57 0-56.09 23.27-23.53 23.26-23.53 56.51 0 32.57 23.6 56.09 23.6 23.53 56.18 23.53Zm40.22 212.53 246.06-139.3v-269.54l-130.69 77.04q3.39 11.54 4.01 21.05.62 9.51.62 18.52 0 56.35-33.71 98.46-33.72 42.11-86.29 56.29v137.48Z"/></svg>