<svg xmlns="http://www.w3.org/2000/svg" height="40" viewBox="0 -960 960 960" width="40"><path d="m20.58-134.15 146.75-302.24q11.25-22.81 32.71-36.11 21.47-13.3 47.35-13.3 30.77 0 54.62 20.05 23.84 20.05 31.5 49.62l16.03 38.97q2.53 6.68 10.3 6.13 7.77-.55 9.12-7.61l83.91-288.82q15.65-51.21 57.78-83.77 42.12-32.57 95.09-32.57 52.49 0 94.56 31.34t59.09 82.1l181.84 536.21H20.58Zm212.35-429.53q-54.34 0-93.06-38.39-38.71-38.38-38.71-92.72 0-53.72 38.71-92.58 38.72-38.86 93.06-38.86 53.68 0 92.23 38.86 38.55 38.86 38.55 92.58 0 54.34-38.55 92.72-38.55 38.39-92.23 38.39Z"/></svg>