<svg xmlns="http://www.w3.org/2000/svg" height="20" viewBox="0 -960 960 960" width="20"><path d="M207.5-824.5q-11 32-15.75 65.75T187-691q0 63 20.5 122T267-459.5q6 7 6.75 16T267-427q-6.5 6.5-15.75 5.75T237-429q-45.5-55.5-69.25-122.75T144-691q0-34.5 4.5-68.75T164-827.5l-67 67q-6.5 6.5-15 6.25T67-761q-6.5-6.5-6.5-15.25T67-791.5l93.5-93.5q10.5-10.5 23.5-10.5t23.5 10.5l93 93q6.5 6.5 6.5 15t-6.5 15q-6.5 6.5-15.25 6.75T270-762l-62.5-62.5Zm435 662.5q-22 8-45 7.25T553-165L322-274q-12.5-5-17-17.25t1-25.25l2-5.5q6.5-18.5 22.5-29.5T367-363l89-4.5-108-299q-4.5-13 1.5-25.5t19-17q13-4.5 25.75 1.25T411.5-689L497-451.5l47.5-18-40.5-110q-4.5-13 1.5-25.75t19-17.25q13-4.5 25.75 1T567.5-603L608-491.5l47.5-18L632-575q-4.5-13 1-25.75T651.5-618q13-4.5 25.5 1t17 18.5l25 66.5 47-17.5-7.5-20.5q-4.5-13 1-25.75T778-613q13-4.5 25.75 1T821-593.5l61.5 168q23.5 65-5.25 127.75T783.5-212.5l-141 50.5Z"/></svg>