<svg xmlns="http://www.w3.org/2000/svg" height="24" viewBox="0 -960 960 960" width="24"><path d="M319 13.38q-16.69 0-29.04-12.34Q277.62-11.31 277.62-28q0-16.69 12.34-29.04Q302.31-69.38 319-69.38q16.69 0 29.04 12.34Q360.38-44.69 360.38-28q0 16.69-12.34 29.04Q335.69 13.38 319 13.38Zm165 0q-16.69 0-29.04-12.34Q442.62-11.31 442.62-28q0-16.69 12.34-29.04Q467.31-69.38 484-69.38q16.69 0 29.04 12.34Q525.38-44.69 525.38-28q0 16.69-12.34 29.04Q500.69 13.38 484 13.38Zm163 0q-16.69 0-29.04-12.34Q605.62-11.31 605.62-28q0-16.69 12.34-29.04Q630.31-69.38 647-69.38q16.69 0 29.04 12.34Q688.38-44.69 688.38-28q0 16.69-12.34 29.04Q663.69 13.38 647 13.38ZM440-146.85v-309l-184 186L195.85-330l228-228-228-228L256-846.15l184 184v-307h43L718.15-734l-174 176 174 176L483-146.85h-43Zm86-166.53L597.85-382 526-455.85v142.47Zm0-348.77L597.85-734 526-804.62v142.47Z"/></svg>