<svg xmlns="http://www.w3.org/2000/svg" height="24" width="24"><path d="M3.25 18.375v-3.75q0-.325.2-.563.2-.237.5-.312l7-1.775-7-1.725q-.3-.075-.5-.325t-.2-.575V5.6q0-.5.413-.775.412-.275.862-.075l13 5.475q-.125-.025-.25-.025h-.25q-2.775 0-4.75 1.912-1.975 1.913-2.05 4.688L4.55 19.225q-.475.2-.887-.075-.413-.275-.413-.775Zm13.675 3.35q-2 0-3.412-1.413Q12.1 18.9 12.1 16.9t1.413-3.412q1.412-1.413 3.412-1.413t3.412 1.413Q21.75 14.9 21.75 16.9t-1.413 3.412q-1.412 1.413-3.412 1.413Zm.5-5.025v-2.275q0-.2-.15-.338-.15-.137-.35-.137-.2 0-.338.15-.137.15-.137.325V16.8q0 .15.05.275.05.125.15.225l1.575 1.55q.15.15.35.15.2 0 .325-.15.15-.125.15-.325t-.15-.35Z"/></svg>