<svg xmlns="http://www.w3.org/2000/svg" height="40" width="40"><path d="M5.292 30.125v-6.083q0-.584.354-1 .354-.417.896-.584l10.583-2.583L6.542 17.25q-.542-.167-.896-.562-.354-.396-.354-.98V9.583q0-.833.708-1.333t1.583-.125l22.584 9.625H28q-4.083.125-7.146 2.729-3.062 2.604-3.437 6.604v.375l-9.875 4.167Q6.708 32 6 31.5q-.708-.5-.708-1.375Zm23.041 6.667q-3.333 0-5.708-2.375T20.25 28.75q0-3.375 2.375-5.75t5.708-2.375q3.292 0 5.667 2.375t2.375 5.708q0 3.334-2.375 5.709-2.375 2.375-5.667 2.375Zm.75-8.375V23.75q0-.333-.229-.562-.229-.23-.604-.23-.333 0-.583.23-.25.229-.25.562v4.792q0 .291.083.52.083.23.292.396l2.791 2.834q.25.208.584.208.333 0 .625-.25.25-.25.229-.604-.021-.354-.271-.563Z"/></svg>