<svg xmlns="http://www.w3.org/2000/svg" height="48" viewBox="0 -960 960 960" width="48"><path d="M479.91-480q-51.91 0-88.41-36.58T355-605.06q0-51.94 36.58-88.44t88.48-36.5q51.94 0 88.44 36.57 36.5 36.56 36.5 88.52 0 51.91-36.57 88.41-36.56 36.5-88.52 36.5ZM235-272v-44.11q0-28.44 18-50.17 18-21.72 44.67-35.55 42.17-22.59 88.19-32.88Q431.89-445 479.94-445 528-445 574-434.5t89 32.5q26 14 44 35.72 18 21.73 18 50.17V-272q0 15.75-10.61 26.37Q703.78-235 689-235H272q-15.75 0-26.37-10.63Q235-256.25 235-272ZM137-64q-29 0-51-22t-22-51v-138q0-14.77 10.86-25.39 10.86-10.61 26-10.61t25.64 10.61Q137-289.77 137-275v138h138q14.77 0 25.39 10.68Q311-115.65 311-100.51q0 15.14-10.61 25.83Q289.77-64 275-64H137ZM64-686v-137q0-29 22-51t51-22h138q14.77 0 25.39 10.68Q311-874.65 311-859.51q0 15.14-10.61 25.83Q289.77-823 275-823H137v137q0 15.75-10.68 26.37Q115.65-649 100.51-649q-15.14 0-25.83-10.63Q64-670.25 64-686ZM823-64H686q-15.75 0-26.37-10.86-10.63-10.86-10.63-26t10.63-25.64Q670.25-137 686-137h137v-138q0-14.77 10.86-25.39 10.86-10.61 26-10.61t25.64 10.61Q896-289.77 896-275v138q0 29-22 51t-51 22Zm0-622v-137H686q-15.75 0-26.37-10.86-10.63-10.86-10.63-26t10.63-25.64Q670.25-896 686-896h137q29 0 51 22t22 51v137q0 15.75-10.68 26.37Q874.65-649 859.51-649q-15.14 0-25.83-10.63Q823-670.25 823-686Z"/></svg>