<svg xmlns="http://www.w3.org/2000/svg" height="48" width="48"><path d="M20.9 41.7q-5.55-1.05-9.225-5.45T8 26.05q0-3.55 1.5-6.7Q11 16.2 13.75 14q.4-.3.95-.275.55.025.95.425.5.5.45 1.15-.05.65-.65 1.15-2.1 1.75-3.275 4.275Q11 23.25 11 26.05q0 4.7 2.9 8.175 2.9 3.475 7.35 4.475.55.1.925.55.375.45.375 1 0 .7-.5 1.125-.5.425-1.15.325Zm6.3 0q-.65.1-1.15-.325-.5-.425-.5-1.125 0-.55.375-1 .375-.45.925-.55 4.5-1 7.35-4.475 2.85-3.475 2.85-8.175 0-5.45-3.775-9.225Q29.5 13.05 24.05 13.05h-1L25 15q.4.4.4 1.05T25 17.1q-.45.45-1.1.45-.65 0-1.05-.45l-4.55-4.5q-.25-.25-.35-.5-.1-.25-.1-.55 0-.3.1-.55.1-.25.35-.5l4.55-4.55q.4-.4 1.05-.4t1.1.4q.4.45.4 1.1 0 .65-.4 1.05l-1.95 1.95h1q6.7 0 11.35 4.675 4.65 4.675 4.65 11.325 0 5.8-3.65 10.2-3.65 4.4-9.2 5.45Z"/></svg>