<svg xmlns="http://www.w3.org/2000/svg" height="48" width="48"><path d="M12.9 29.2h5.95q.55 0 .925-.375t.375-.925v-7.8q0-.55-.375-.925t-.925-.375H14.2q-.6 0-.95.375t-.35.925v3.25q0 .6.35.95t.95.35h4.7v3.3h-6Zm1.25-5.85V20.1h4.75v3.25Zm9.6 5.85H25v-4.8l5.1 4.8h2.05l-5.85-5.3 5.85-5.1H30.2L25 23.5v-4.7h-1.25Zm10.1-1.5h1.4v-3.05h3.05v-1.3h-3.05V20.3h-1.4v3.05H30.8v1.3h3.05ZM11.3 39.4q-1.15 0-1.925-.775Q8.6 37.85 8.6 36.7V11.3q0-1.15.775-1.925Q10.15 8.6 11.3 8.6h25.4q1.15 0 1.925.775.775.775.775 1.925v25.4q0 1.15-.775 1.925-.775.775-1.925.775Z"/></svg>