<svg xmlns="http://www.w3.org/2000/svg" height="48" viewBox="0 -960 960 960" width="48"><path d="M172-172v-616h260q-15-30 1-57.5t47-27.5q31 0 47 27.5t1 57.5h260v616H172Zm308-618q13 0 21.5-8.5T510-820q0-12-8.5-21t-21.5-9q-13 0-21.5 9t-8.5 21q0 13 8.5 21.5T480-790ZM194-217q56-54 128.4-86 72.39-32 157.5-32 85.1 0 157.6 32T766-217v-549H194v549Zm287-213q47 0 80-33t33-81q0-47-33-80t-80-33q-48 0-81 33t-33 80q0 48 33 81t81 33ZM209-194h543v-6q-60-57-129-85t-143-28q-73 0-142 27.5T209-202v8Zm272-258q-38.5 0-65.25-26.75T389-544q0-37.5 26.75-64.25T481-635q37.5 0 64.25 26.75T572-544q0 38.5-26.75 65.25T481-452Zm-1-40Z"/></svg>