<svg xmlns="http://www.w3.org/2000/svg" version="1.1" width="3300" height="2000"><g id="Notes"><style>
    text {
      font-family: monospace;
      text-anchor: middle;
    }
    text.emphasis {
      font-weight:bold;
    }
    text.lanchor {
      text-anchor: start;
    }
  </style><rect height="2200" id="artboard" fill="white" width="3300" x="0" y="0"/><line id="" style="fill:none;stroke:black;stroke-width:0.5;" x1="263" x2="3036" y1="292" y2="292"/><text class="lanchor emphasis" transform="matrix(1 0 0 1 263 322)">Weight/Scale Variations</text><text transform="matrix(1 0 0 1 559.711 322)">Ultralight</text><text transform="matrix(1 0 0 1 856.422 322)">Thin</text><text transform="matrix(1 0 0 1 1153.13 322)">Light</text><text transform="matrix(1 0 0 1 1449.84 322)">Regular</text><text transform="matrix(1 0 0 1 1746.56 322)">Medium</text><text transform="matrix(1 0 0 1 2043.27 322)">Semibold</text><text transform="matrix(1 0 0 1 2339.98 322)">Bold</text><text transform="matrix(1 0 0 1 2636.69 322)">Heavy</text><text transform="matrix(1 0 0 1 2933.4 322)">Black</text><text id="template-version" style="text-anchor: end;" transform="matrix(1 0 0 1 3036 1933)">Template v.1.0</text><text class="lanchor" transform="matrix(1 0 0 1 263 726)">Small</text><text class="lanchor" transform="matrix(1 0 0 1 263 1156)">Medium</text><text class="lanchor" transform="matrix(1 0 0 1 263 1586)">Large</text></g><g id="Guides"><g id="H-reference" style="fill:#27AAE1;stroke:none;" transform="matrix(1 0 0 1 339 696)"><path d="M 54.9316 0 L 57.666 0 L 30.5664 -70.459 L 28.0762 -70.459 L 0.976562 0 L 3.66211 0 L 12.9395 -24.4629 L 45.7031 -24.4629 Z M 29.1992 -67.0898 L 29.4434 -67.0898 L 44.8242 -26.709 L 13.8184 -26.709 Z"/></g><line id="Baseline-S" style="fill:none;stroke:#27AAE1;opacity:1;stroke-width:0.577;" x1="263" x2="3036" y1="696" y2="696"/><line id="Capline-S" style="fill:none;stroke:#27AAE1;opacity:1;stroke-width:0.577;" x1="263" x2="3036" y1="625.541" y2="625.541"/><g id="H-reference" style="fill:#27AAE1;stroke:none;" transform="matrix(1 0 0 1 339 1126)"><path d="M 54.9316 0 L 57.666 0 L 30.5664 -70.459 L 28.0762 -70.459 L 0.976562 0 L 3.66211 0 L 12.9395 -24.4629 L 45.7031 -24.4629 Z M 29.1992 -67.0898 L 29.4434 -67.0898 L 44.8242 -26.709 L 13.8184 -26.709 Z"/></g><line id="Baseline-M" style="fill:none;stroke:#27AAE1;opacity:1;stroke-width:0.577;" x1="263" x2="3036" y1="1126" y2="1126"/><line id="Capline-M" style="fill:none;stroke:#27AAE1;opacity:1;stroke-width:0.577;" x1="263" x2="3036" y1="1055.54" y2="1055.54"/><g id="H-reference" style="fill:#27AAE1;stroke:none;" transform="matrix(1 0 0 1 339 1556)"><path d="M 54.9316 0 L 57.666 0 L 30.5664 -70.459 L 28.0762 -70.459 L 0.976562 0 L 3.66211 0 L 12.9395 -24.4629 L 45.7031 -24.4629 Z M 29.1992 -67.0898 L 29.4434 -67.0898 L 44.8242 -26.709 L 13.8184 -26.709 Z"/></g><line id="Baseline-L" style="fill:none;stroke:#27AAE1;opacity:1;stroke-width:0.577;" x1="263" x2="3036" y1="1556" y2="1556"/><line id="Capline-L" style="fill:none;stroke:#27AAE1;opacity:1;stroke-width:0.577;" x1="263" x2="3036" y1="1485.54" y2="1485.54"/><rect height="119.336" id="left-margin" style="fill:darkred;stroke:none;opacity:0.4;" width="12.4512" x="1394.06" y="1030.79"/><rect height="119.336" id="right-margin" style="fill:darkgreen;stroke:none;opacity:0.4;" width="12.4512" x="1502.5112" y="1030.79"/><rect x="1406.5112" y="1045" width="96" height="96" fill="none" stroke="blue" stroke-dasharray="5"/><rect x="1394.06" y="1030.79" width="120.9024" height="119.336" fill="none" stroke="blue"/></g><g id="Symbols"><g id="Bold-L" transform="matrix(1 0 0 1 2266 1556)"><path d="M123.097 -9.43 Q111.65 -9.43 103.313 -16.444 Q94.976 -23.459 92.396 -34.746 H75.949 Q73.551 -34.746 71.927 -36.36 Q70.305 -37.973 70.305 -40.516 Q70.305 -42.873 71.824 -44.534 Q73.345 -46.195 75.949 -46.195 H92.319 Q92.741 -49.925 94.538 -53.693 Q96.334 -57.46 99.008 -60.707 H61.275 Q58.739 -60.707 57.186 -62.209 Q55.631 -63.712 55.631 -66.366 Q55.631 -68.834 57.083 -70.495 Q58.534 -72.156 61.275 -72.156 H105.135 L96.75 -96.344 Q96.75 -96.344 96.75 -96.344 Q96.75 -96.344 96.75 -96.344 H78.045 Q75.578 -96.344 73.909 -97.958 Q72.24 -99.57 72.24 -102.113 Q72.24 -104.471 73.909 -106.132 Q75.578 -107.792 78.045 -107.792 H94.493 Q99.269 -107.792 103.079 -104.959 Q106.888 -102.128 108.36 -97.634 L117.068 -72.156 H121.583 Q136.122 -72.156 145.38 -63.634 Q154.639 -55.114 154.639 -40.656 Q154.639 -27.801 145.248 -18.615 Q135.855 -9.43 123.097 -9.43 Z M123.276 -20.717 Q131.257 -20.717 137.304 -26.542 Q143.351 -32.365 143.351 -40.683 Q143.351 -49.004 137.949 -54.694 Q132.548 -60.385 124.337 -60.546 Q124.351 -60.546 122.953 -60.466 Q121.555 -60.385 121.421 -60.385 L125.775 -48.614 Q126.42 -46.034 125.614 -44.099 Q124.808 -42.164 122.228 -41.519 Q120.293 -40.712 118.116 -41.627 Q115.939 -42.539 115.294 -44.582 L110.647 -56.999 Q106.586 -53.451 104.812 -49.501 Q103.039 -45.55 103.039 -40.767 Q103.039 -32.461 108.992 -26.59 Q114.944 -20.717 123.276 -20.717 Z M45.15 36.365 Q37.987 36.365 32.942 31.803 Q27.896 27.241 27.09 20.401 Q27.09 19.918 27.09 19.514 Q27.09 19.111 27.09 18.628 H6.772 Q3.846 18.628 2.166 16.683 Q0.484 14.738 0.484 12.039 Q0.484 9.34 2.275 7.534 Q4.068 5.728 6.934 5.728 H31.444 Q33.3 3.309 36.971 1.374 Q40.645 -0.561 45.14 -0.561 Q49.155 -0.561 52.667 1.213 Q56.178 2.986 58.856 5.728 H76.594 Q76.594 5.728 76.594 5.728 Q76.594 5.728 76.594 5.728 V-12.01 Q76.594 -12.01 76.594 -12.01 Q76.594 -12.01 76.594 -12.01 H6.772 Q3.846 -12.01 2.166 -13.955 Q0.484 -15.899 0.484 -18.599 Q0.484 -21.524 2.275 -23.217 Q4.068 -24.91 6.934 -24.91 H13.061 V-42.647 H6.772 Q4.184 -42.647 2.335 -44.56 Q0.484 -46.474 0.484 -49.154 Q0.484 -51.834 2.335 -53.692 Q4.184 -55.547 6.772 -55.547 H43.054 Q45.282 -55.547 46.964 -54.453 Q48.646 -53.358 49.504 -51.839 L64.661 -24.91 H74.82 Q80.975 -24.91 85.235 -20.651 Q89.494 -16.391 89.494 -10.236 V3.954 Q89.494 9.885 85.235 14.256 Q80.975 18.628 74.82 18.628 H63.371 Q63.371 19.111 63.371 19.514 Q63.371 19.918 63.371 20.401 Q62.404 27.564 57.197 31.964 Q51.99 36.365 45.15 36.365 Z M25.8 -24.91 H49.988 L39.601 -42.647 H25.8 V-24.91 Z M45.098 24.916 Q48.214 24.916 50.149 23.033 Q52.084 21.151 52.084 18.034 Q52.084 14.919 50.141 12.903 Q48.198 10.888 45.235 10.888 Q42.086 10.888 40.151 12.863 Q38.216 14.838 38.216 17.85 Q38.216 21.046 40.1 22.981 Q41.981 24.916 45.098 24.916 Z"/></g><g id="Semibold-L" transform="matrix(1 0 0 1 1970.27 1556)"><path d="M123.68 -9.149 Q112.041 -9.149 103.719 -16.304 Q95.397 -23.459 92.957 -34.746 H74.407 Q72.096 -34.746 70.536 -36.325 Q68.973 -37.904 68.973 -40.327 Q68.973 -42.565 70.478 -44.17 Q71.98 -45.774 74.407 -45.774 H92.88 Q93.362 -49.776 95.184 -53.693 Q97.005 -57.61 99.778 -60.848 H59.663 Q57.276 -60.848 55.752 -62.364 Q54.228 -63.879 54.228 -66.366 Q54.228 -68.667 55.694 -70.271 Q57.16 -71.876 59.663 -71.876 H105.836 L97.38 -96.344 Q97.38 -96.344 97.38 -96.344 Q97.38 -96.344 97.38 -96.344 H77.274 Q74.896 -96.344 73.288 -97.922 Q71.679 -99.501 71.679 -101.925 Q71.679 -104.163 73.288 -105.767 Q74.896 -107.372 77.274 -107.372 H95.755 Q100.073 -107.372 103.59 -104.824 Q107.107 -102.276 108.429 -98.195 L117.417 -71.876 H122.144 Q136.601 -71.876 145.865 -63.308 Q155.129 -54.741 155.129 -40.401 Q155.129 -27.525 145.836 -18.337 Q136.543 -9.149 123.68 -9.149 Z M123.837 -20.087 Q132.028 -20.087 138.111 -26.027 Q144.193 -31.97 144.193 -40.38 Q144.193 -49.073 138.651 -54.835 Q133.109 -60.595 124.479 -60.687 Q124.479 -60.687 123.111 -60.606 Q121.742 -60.525 121.631 -60.525 L126.125 -48.333 Q126.841 -45.964 125.999 -44.063 Q125.157 -42.164 122.753 -41.449 Q120.854 -40.643 118.746 -41.58 Q116.64 -42.517 115.924 -44.513 L111.195 -57.279 Q107.076 -53.661 105.198 -49.605 Q103.319 -45.55 103.319 -40.463 Q103.319 -31.971 109.307 -26.029 Q115.295 -20.087 123.837 -20.087 Z M45.15 36.715 Q37.918 36.715 32.837 32.013 Q27.756 27.311 27.159 20.332 Q27.159 19.848 27.159 19.445 Q27.159 19.042 27.159 18.558 H5.721 Q3.032 18.558 1.337 16.697 Q-0.358 14.837 -0.358 12.248 Q-0.358 9.662 1.4 7.904 Q3.156 6.148 5.811 6.148 H31.724 Q33.614 3.73 37.128 1.935 Q40.64 0.14 45.145 0.14 Q49.167 0.14 52.553 1.809 Q55.941 3.476 58.647 6.148 H76.944 Q76.944 6.148 76.944 6.148 Q76.944 6.148 76.944 6.148 V-11.589 Q76.944 -11.589 76.944 -11.589 Q76.944 -11.589 76.944 -11.589 H5.721 Q3.032 -11.589 1.337 -13.45 Q-0.358 -15.311 -0.358 -17.897 Q-0.358 -20.613 1.4 -22.306 Q3.156 -23.999 5.811 -23.999 H12.992 V-42.227 H5.721 Q3.222 -42.227 1.432 -44.07 Q-0.358 -45.913 -0.358 -48.488 Q-0.358 -51.065 1.432 -52.851 Q3.222 -54.636 5.721 -54.636 H42.633 Q44.594 -54.636 46.151 -53.635 Q47.707 -52.635 48.522 -51.208 L63.89 -23.999 H75.942 Q81.576 -23.999 85.466 -20.11 Q89.353 -16.222 89.353 -10.586 V5.145 Q89.353 10.654 85.466 14.606 Q81.576 18.558 75.942 18.558 H63.302 Q63.302 19.042 63.302 19.445 Q63.302 19.848 63.302 20.332 Q62.544 27.564 57.373 32.14 Q52.2 36.715 45.15 36.715 Z M25.31 -23.999 H49.707 L39.14 -42.227 H25.31 V-23.999 Z M45.106 25.687 Q48.283 25.687 50.325 23.692 Q52.364 21.696 52.364 18.518 Q52.364 15.34 50.334 13.253 Q48.304 11.168 45.213 11.168 Q42.017 11.168 39.975 13.216 Q37.936 15.264 37.936 18.384 Q37.936 21.607 39.932 23.647 Q41.928 25.687 45.106 25.687 Z"/></g><g id="Medium-L" transform="matrix(1 0 0 1 1674.31 1556)"><path d="M124.119 -8.94 Q112.336 -8.94 104.024 -16.199 Q95.713 -23.459 93.378 -34.746 H73.249 Q71.008 -34.746 69.491 -36.299 Q67.973 -37.852 67.973 -40.185 Q67.973 -42.333 69.467 -43.896 Q70.958 -45.458 73.249 -45.458 H93.301 Q93.828 -49.663 95.668 -53.693 Q97.509 -57.723 100.357 -60.953 H58.453 Q56.178 -60.953 54.678 -62.48 Q53.177 -64.005 53.177 -66.366 Q53.177 -68.539 54.652 -70.104 Q56.13 -71.666 58.453 -71.666 H106.362 L97.855 -96.344 Q97.855 -96.344 97.855 -96.344 Q97.855 -96.344 97.855 -96.344 H76.695 Q74.385 -96.344 72.822 -97.897 Q71.258 -99.449 71.258 -101.783 Q71.258 -103.931 72.822 -105.493 Q74.385 -107.056 76.695 -107.056 H96.702 Q100.676 -107.056 103.974 -104.722 Q107.272 -102.389 108.483 -98.616 L117.68 -71.666 H122.565 Q136.961 -71.666 146.23 -63.063 Q155.498 -54.462 155.498 -40.208 Q155.498 -27.319 146.28 -18.129 Q137.061 -8.94 124.119 -8.94 Z M124.258 -19.613 Q132.607 -19.613 138.715 -25.642 Q144.823 -31.671 144.823 -40.153 Q144.823 -49.127 139.176 -54.94 Q133.53 -60.753 124.585 -60.791 Q124.575 -60.791 123.229 -60.711 Q121.882 -60.63 121.789 -60.63 L126.388 -48.124 Q127.157 -45.911 126.288 -44.037 Q125.42 -42.164 123.148 -41.396 Q121.275 -40.59 119.22 -41.545 Q117.166 -42.499 116.398 -44.46 L111.606 -57.489 Q107.446 -53.819 105.487 -49.684 Q103.529 -45.55 103.529 -40.235 Q103.529 -31.603 109.544 -25.608 Q115.558 -19.613 124.258 -19.613 Z M45.15 36.978 Q37.865 36.978 32.758 32.171 Q27.651 27.364 27.213 20.279 Q27.213 19.795 27.213 19.392 Q27.213 18.989 27.213 18.505 H4.933 Q2.419 18.505 0.716 16.707 Q-0.988 14.911 -0.988 12.406 Q-0.988 9.904 0.742 8.183 Q2.472 6.464 4.971 6.464 H31.934 Q33.851 4.046 37.244 2.356 Q40.637 0.666 45.148 0.666 Q49.175 0.666 52.469 2.256 Q55.762 3.846 58.489 6.464 H77.207 Q77.207 6.464 77.207 6.464 Q77.207 6.464 77.207 6.464 V-11.273 Q77.207 -11.273 77.207 -11.273 Q77.207 -11.273 77.207 -11.273 H4.933 Q2.419 -11.273 0.716 -13.071 Q-0.988 -14.869 -0.988 -17.372 Q-0.988 -19.929 0.742 -21.622 Q2.472 -23.315 4.971 -23.315 H12.939 V-41.911 H4.933 Q2.501 -41.911 0.756 -43.7 Q-0.988 -45.49 -0.988 -47.99 Q-0.988 -50.487 0.756 -52.221 Q2.501 -53.953 4.933 -53.953 H42.317 Q44.078 -53.953 45.54 -53.022 Q47.003 -52.092 47.786 -50.734 L63.312 -23.315 H76.782 Q82.028 -23.315 85.638 -19.705 Q89.249 -16.094 89.249 -10.849 V6.039 Q89.249 11.231 85.638 14.867 Q82.028 18.505 76.782 18.505 H63.249 Q63.249 18.989 63.249 19.392 Q63.249 19.795 63.249 20.279 Q62.649 27.564 57.503 32.271 Q52.358 36.978 45.15 36.978 Z M24.941 -23.315 H49.497 L38.794 -41.911 H24.941 V-23.315 Z M45.111 26.266 Q48.336 26.266 50.455 24.186 Q52.574 22.104 52.574 18.879 Q52.574 15.656 50.479 13.516 Q48.385 11.378 45.197 11.378 Q41.964 11.378 39.845 13.48 Q37.726 15.585 37.726 18.784 Q37.726 22.028 39.806 24.147 Q41.886 26.266 45.111 26.266 Z"/></g><g id="Regular-L" transform="matrix(1 0 0 1 1378.56 1556)"><path d="M124.44 -8.785 Q112.553 -8.785 104.248 -16.122 Q95.944 -23.459 93.686 -34.746 H72.401 Q70.208 -34.746 68.725 -36.28 Q67.241 -37.815 67.241 -40.082 Q67.241 -42.164 68.725 -43.696 Q70.208 -45.227 72.401 -45.227 H93.609 Q94.17 -49.581 96.024 -53.693 Q97.879 -57.805 100.781 -61.03 H57.566 Q55.373 -61.03 53.89 -62.563 Q52.406 -64.099 52.406 -66.366 Q52.406 -68.447 53.89 -69.979 Q55.373 -71.511 57.566 -71.511 H106.748 L98.201 -96.344 Q98.201 -96.344 98.201 -96.344 Q98.201 -96.344 98.201 -96.344 H76.271 Q74.011 -96.344 72.48 -97.877 Q70.95 -99.412 70.95 -101.68 Q70.95 -103.761 72.48 -105.293 Q74.011 -106.825 76.271 -106.825 H97.395 Q101.118 -106.825 104.256 -104.648 Q107.392 -102.471 108.521 -98.924 L117.874 -71.511 H122.873 Q137.224 -71.511 146.496 -62.884 Q155.768 -54.257 155.768 -40.067 Q155.768 -27.167 146.604 -17.976 Q137.44 -8.785 124.44 -8.785 Z M124.566 -19.266 Q133.031 -19.266 139.159 -25.36 Q145.286 -31.454 145.286 -39.987 Q145.286 -49.165 139.562 -55.017 Q133.838 -60.869 124.662 -60.869 Q124.646 -60.869 123.316 -60.788 Q121.986 -60.707 121.905 -60.707 L126.581 -47.969 Q127.388 -45.872 126.501 -44.018 Q125.614 -42.164 123.437 -41.357 Q121.583 -40.551 119.567 -41.519 Q117.551 -42.486 116.745 -44.421 L111.907 -57.644 Q107.715 -53.935 105.699 -49.742 Q103.684 -45.55 103.684 -40.067 Q103.684 -31.333 109.718 -25.3 Q115.75 -19.266 124.566 -19.266 Z M45.15 37.171 Q37.826 37.171 32.7 32.287 Q27.574 27.403 27.251 20.24 Q27.251 19.756 27.251 19.353 Q27.251 18.95 27.251 18.466 H4.354 Q1.972 18.466 0.26 16.715 Q-1.451 14.964 -1.451 12.523 Q-1.451 10.081 0.26 8.388 Q1.972 6.695 4.354 6.695 H32.089 Q34.024 4.276 37.329 2.664 Q40.635 1.051 45.15 1.051 Q49.181 1.051 52.406 2.583 Q55.631 4.115 58.373 6.695 H77.4 Q77.4 6.695 77.4 6.695 Q77.4 6.695 77.4 6.695 V-11.042 Q77.4 -11.042 77.4 -11.042 Q77.4 -11.042 77.4 -11.042 H4.354 Q1.972 -11.042 0.26 -12.794 Q-1.451 -14.545 -1.451 -16.986 Q-1.451 -19.427 0.26 -21.121 Q1.972 -22.814 4.354 -22.814 H12.9 V-41.68 H4.354 Q1.972 -41.68 0.26 -43.431 Q-1.451 -45.182 -1.451 -47.624 Q-1.451 -50.065 0.26 -51.758 Q1.972 -53.451 4.354 -53.451 H42.086 Q43.699 -53.451 45.094 -52.572 Q46.487 -51.695 47.246 -50.387 L62.888 -22.814 H77.4 Q82.358 -22.814 85.766 -19.408 Q89.171 -16.001 89.171 -11.042 V6.695 Q89.171 11.653 85.766 15.059 Q82.358 18.466 77.4 18.466 H63.21 Q63.21 18.95 63.21 19.353 Q63.21 19.756 63.21 20.24 Q62.726 27.564 57.6 32.368 Q52.474 37.171 45.15 37.171 Z M24.671 -22.814 H49.343 L38.539 -41.68 H24.671 V-22.814 Z M45.116 26.69 Q48.375 26.69 50.552 24.547 Q52.729 22.404 52.729 19.145 Q52.729 15.886 50.586 13.709 Q48.443 11.533 45.184 11.533 Q41.925 11.533 39.748 13.676 Q37.571 15.819 37.571 19.077 Q37.571 22.336 39.714 24.513 Q41.857 26.69 45.116 26.69 Z"/></g><g id="Light-L" transform="matrix(1 0 0 1 1082.77 1556)"><path d="M121.897 -7.979 Q110.258 -8.04 102.17 -15.253 Q94.083 -22.467 92.135 -33.94 H71.656 Q69.965 -33.94 68.82 -35.136 Q67.675 -36.331 67.675 -38.1 Q67.675 -39.682 68.82 -40.874 Q69.965 -42.064 71.656 -42.064 H92.059 Q92.558 -47.038 95.094 -52.081 Q97.63 -57.123 101.773 -60.348 H57.07 Q55.378 -60.348 54.233 -61.544 Q53.088 -62.739 53.088 -64.508 Q53.088 -66.09 54.233 -67.282 Q55.378 -68.472 57.07 -68.472 H106.065 L96.403 -95.786 Q96.216 -96.405 95.689 -96.747 Q95.162 -97.089 94.542 -97.089 H75.837 Q74.077 -97.089 72.885 -98.284 Q71.695 -99.48 71.695 -101.249 Q71.695 -102.831 72.885 -104.021 Q74.077 -105.212 75.837 -105.212 H93.736 Q97.319 -105.212 100.349 -103.148 Q103.379 -101.086 104.49 -97.684 L114.71 -68.472 H120.763 Q134.433 -68.472 143.24 -60.032 Q152.046 -51.59 152.046 -38.083 Q152.046 -25.603 143.227 -16.791 Q134.408 -7.979 121.897 -7.979 Z M122.029 -16.103 Q131.109 -16.103 137.516 -22.482 Q143.922 -28.859 143.922 -38.002 Q143.922 -47.677 137.856 -53.932 Q131.791 -60.187 122.113 -60.187 Q121.421 -60.187 119.873 -60.013 Q118.327 -59.838 117.75 -59.653 L122.984 -45.674 Q123.605 -44.012 122.945 -42.586 Q122.286 -41.159 120.584 -40.551 Q119.164 -39.869 117.587 -40.609 Q116.011 -41.349 115.381 -42.87 L110.171 -57.334 Q105.109 -53.874 102.536 -48.906 Q99.962 -43.937 99.962 -38.083 Q99.962 -28.801 106.341 -22.453 Q112.72 -16.103 122.029 -16.103 Z M47.638 35.683 Q40.741 35.683 35.957 31.144 Q31.171 26.606 30.849 19.868 Q30.849 19.011 30.91 18.329 Q30.973 17.647 31.097 16.854 H7.269 Q5.387 16.854 4.015 15.44 Q2.643 14.027 2.643 12.086 Q2.643 10.143 4.015 8.791 Q5.387 7.44 7.269 7.44 H35.128 Q37.062 4.812 40.275 3.335 Q43.488 1.858 47.643 1.858 Q51.352 1.858 54.515 3.296 Q57.678 4.736 60.295 7.44 H77.461 Q78.33 7.44 78.888 6.88 Q79.446 6.323 79.446 5.455 V-8.19 Q79.446 -9.058 78.888 -9.615 Q78.33 -10.173 77.461 -10.173 H7.269 Q5.387 -10.173 4.015 -11.588 Q2.643 -13 2.643 -14.943 Q2.643 -16.885 4.015 -18.236 Q5.387 -19.589 7.269 -19.589 H16.559 V-40.067 H7.269 Q5.387 -40.067 4.015 -41.48 Q2.643 -42.894 2.643 -44.836 Q2.643 -46.777 4.015 -48.13 Q5.387 -49.481 7.269 -49.481 H43.637 Q45.261 -49.481 46.601 -48.62 Q47.941 -47.758 48.673 -46.48 L63.632 -19.589 H77.461 Q82.218 -19.589 85.54 -16.267 Q88.862 -12.947 88.862 -8.19 V5.455 Q88.862 10.212 85.54 13.532 Q82.218 16.854 77.461 16.854 H64.326 Q64.45 17.647 64.513 18.329 Q64.574 19.011 64.574 19.868 Q64.09 26.767 59.313 31.224 Q54.535 35.683 47.638 35.683 Z M25.974 -19.589 H52.877 L41.391 -40.067 H25.974 V-19.589 Z M47.598 27.559 Q51.352 27.559 53.901 25.074 Q56.45 22.589 56.45 18.803 Q56.45 15.017 53.935 12.5 Q51.419 9.981 47.666 9.981 Q43.91 9.981 41.361 12.466 Q38.811 14.949 38.811 18.736 Q38.811 22.522 41.327 25.04 Q43.842 27.559 47.598 27.559 Z"/></g><g id="Thin-L" transform="matrix(1 0 0 1 787.282 1556)"><path d="M119.354 -7.172 Q107.963 -7.297 100.093 -14.385 Q92.222 -21.474 90.585 -33.134 H70.913 Q69.721 -33.134 68.915 -33.992 Q68.109 -34.849 68.109 -36.118 Q68.109 -37.202 68.915 -38.052 Q69.721 -38.902 70.913 -38.902 H90.508 Q90.945 -44.495 94.164 -50.468 Q97.382 -56.441 102.766 -59.666 H56.575 Q55.383 -59.666 54.577 -60.524 Q53.77 -61.382 53.77 -62.651 Q53.77 -63.734 54.577 -64.584 Q55.383 -65.434 56.575 -65.434 H105.383 L94.604 -95.228 Q94.231 -96.468 93.178 -97.15 Q92.124 -97.832 90.884 -97.832 H75.404 Q74.143 -97.832 73.291 -98.69 Q72.438 -99.549 72.438 -100.817 Q72.438 -101.9 73.291 -102.75 Q74.143 -103.6 75.404 -103.6 H90.077 Q93.52 -103.6 96.442 -101.65 Q99.365 -99.701 100.459 -96.444 L111.548 -65.434 H118.656 Q131.641 -65.434 139.984 -57.179 Q148.326 -48.923 148.326 -36.098 Q148.326 -24.041 139.851 -15.606 Q131.377 -7.172 119.354 -7.172 Z M119.494 -12.94 Q129.185 -12.94 135.872 -19.603 Q142.558 -26.264 142.558 -36.017 Q142.558 -46.189 136.151 -52.847 Q129.745 -59.505 119.564 -59.505 Q118.196 -59.505 116.432 -59.237 Q114.668 -58.971 113.594 -58.598 L119.386 -43.38 Q119.822 -42.151 119.389 -41.153 Q118.957 -40.155 117.732 -39.745 Q116.745 -39.187 115.608 -39.7 Q114.471 -40.213 114.017 -41.32 L108.434 -57.023 Q102.505 -53.811 99.374 -48.069 Q96.242 -42.325 96.242 -36.098 Q96.242 -26.268 102.966 -19.605 Q109.692 -12.94 119.494 -12.94 Z M50.126 34.195 Q43.657 34.195 39.213 30.002 Q34.769 25.81 34.446 19.495 Q34.446 18.268 34.569 17.307 Q34.693 16.346 34.941 15.241 H10.183 Q8.803 15.241 7.769 14.166 Q6.735 13.09 6.735 11.649 Q6.735 10.205 7.769 9.194 Q8.803 8.183 10.183 8.183 H38.166 Q40.1 5.345 43.22 4.005 Q46.34 2.664 50.134 2.664 Q53.522 2.664 56.623 4.01 Q59.724 5.355 62.218 8.183 H77.524 Q79.261 8.183 80.377 7.067 Q81.493 5.95 81.493 4.215 V-5.337 Q81.493 -7.073 80.377 -8.19 Q79.261 -9.306 77.524 -9.306 H10.183 Q8.803 -9.306 7.769 -10.381 Q6.735 -11.457 6.735 -12.9 Q6.735 -14.342 7.769 -15.353 Q8.803 -16.364 10.183 -16.364 H20.218 V-38.455 H10.183 Q8.803 -38.455 7.769 -39.531 Q6.735 -40.606 6.735 -42.048 Q6.735 -43.491 7.769 -44.502 Q8.803 -45.513 10.183 -45.513 H45.187 Q46.822 -45.513 48.109 -44.666 Q49.396 -43.821 50.099 -42.573 L64.376 -16.364 H77.524 Q82.079 -16.364 85.316 -13.127 Q88.55 -9.893 88.55 -5.337 V4.215 Q88.55 8.77 85.316 12.005 Q82.079 15.241 77.524 15.241 H65.443 Q65.69 16.346 65.814 17.307 Q65.938 18.268 65.938 19.495 Q65.455 25.971 61.025 30.083 Q56.596 34.195 50.126 34.195 Z M27.275 -16.364 H56.413 L44.244 -38.455 H27.275 V-16.364 Z M50.078 28.427 Q54.328 28.427 57.25 25.602 Q60.17 22.776 60.17 18.463 Q60.17 14.15 57.284 11.291 Q54.396 8.432 50.146 8.432 Q45.895 8.432 42.973 11.257 Q40.051 14.082 40.051 18.395 Q40.051 22.709 42.939 25.568 Q45.826 28.427 50.078 28.427 Z"/></g><g id="Ultralight-L" transform="matrix(1 0 0 1 491.205 1556)"><path d="M117.829 -6.689 Q106.586 -6.85 98.846 -13.864 Q91.106 -20.879 89.655 -32.65 H70.466 Q69.575 -32.65 68.973 -33.306 Q68.37 -33.961 68.37 -34.93 Q68.37 -35.714 68.973 -36.359 Q69.575 -37.004 70.466 -37.004 H89.578 Q89.978 -42.97 93.606 -49.501 Q97.234 -56.031 103.361 -59.256 H56.276 Q55.385 -59.256 54.783 -59.913 Q54.18 -60.567 54.18 -61.536 Q54.18 -62.32 54.783 -62.965 Q55.385 -63.61 56.276 -63.61 H104.974 L93.525 -94.892 Q93.041 -96.505 91.671 -97.392 Q90.3 -98.279 88.688 -98.279 H75.142 Q74.183 -98.279 73.533 -98.935 Q72.885 -99.59 72.885 -100.559 Q72.885 -101.343 73.533 -101.987 Q74.183 -102.632 75.142 -102.632 H87.881 Q91.242 -102.632 94.099 -100.751 Q96.956 -98.869 98.04 -95.699 L109.65 -63.61 H117.39 Q129.968 -63.61 138.03 -55.467 Q146.093 -47.324 146.093 -34.907 Q146.093 -23.102 137.825 -14.896 Q129.558 -6.689 117.829 -6.689 Z M117.974 -11.042 Q128.032 -11.042 134.886 -17.876 Q141.739 -24.708 141.739 -34.827 Q141.739 -45.295 135.127 -52.195 Q128.516 -59.095 118.035 -59.095 Q116.261 -59.095 114.367 -58.772 Q112.472 -58.45 111.101 -57.966 L117.229 -42.002 Q117.551 -41.035 117.256 -40.293 Q116.959 -39.553 116.019 -39.261 Q115.294 -38.777 114.42 -39.153 Q113.547 -39.531 113.198 -40.39 L107.392 -56.837 Q100.943 -53.774 97.476 -47.566 Q94.009 -41.357 94.009 -34.907 Q94.009 -24.749 100.941 -17.896 Q107.875 -11.042 117.974 -11.042 Z M51.619 33.301 Q45.405 33.301 41.166 29.317 Q36.926 25.332 36.604 19.273 Q36.604 17.821 36.765 16.693 Q36.926 15.564 37.249 14.274 H11.933 Q10.852 14.274 10.022 13.401 Q9.191 12.529 9.191 11.386 Q9.191 10.243 10.022 9.436 Q10.852 8.63 11.933 8.63 H39.99 Q41.922 5.666 44.987 4.407 Q48.053 3.148 51.631 3.148 Q54.825 3.148 57.889 4.438 Q60.953 5.728 63.371 8.63 H77.561 Q79.819 8.63 81.27 7.179 Q82.721 5.728 82.721 3.47 V-3.625 Q82.721 -5.882 81.27 -7.334 Q79.819 -8.785 77.561 -8.785 H11.933 Q10.852 -8.785 10.022 -9.657 Q9.191 -10.53 9.191 -11.673 Q9.191 -12.816 10.022 -13.622 Q10.852 -14.429 11.933 -14.429 H22.414 V-37.487 H11.933 Q10.852 -37.487 10.022 -38.36 Q9.191 -39.232 9.191 -40.375 Q9.191 -41.519 10.022 -42.325 Q10.852 -43.131 11.933 -43.131 H46.117 Q47.759 -43.131 49.014 -42.296 Q50.268 -41.459 50.955 -40.229 L64.823 -14.429 H77.561 Q81.996 -14.429 85.18 -11.244 Q88.365 -8.059 88.365 -3.625 V3.47 Q88.365 7.904 85.18 11.089 Q81.996 14.274 77.561 14.274 H66.112 Q66.435 15.564 66.596 16.693 Q66.758 17.821 66.758 19.273 Q66.274 25.494 62.054 29.397 Q57.832 33.301 51.619 33.301 Z M28.058 -14.429 H58.534 L45.956 -37.487 H28.058 V-14.429 Z M51.566 28.948 Q56.115 28.948 59.259 25.918 Q62.404 22.888 62.404 18.258 Q62.404 13.629 59.293 10.565 Q56.183 7.501 51.634 7.501 Q47.085 7.501 43.941 10.531 Q40.796 13.561 40.796 18.191 Q40.796 22.82 43.907 25.884 Q47.017 28.948 51.566 28.948 Z"/></g><g id="Bold-M" transform="matrix(1 0 0 1 2281.8 1126)"><path d="M94.174 -14.98 Q85 -14.98 77.875 -20.667 Q70.75 -26.355 68.5 -34.855 H66.125 Q63.469 -34.855 61.672 -36.656 Q59.875 -38.456 59.875 -41.119 Q59.875 -43.78 61.593 -45.567 Q63.309 -47.355 66.125 -47.355 H68.5 Q68.983 -49.484 69.816 -51.28 Q70.649 -53.075 71.75 -55.105 H55.25 Q52.594 -55.105 50.797 -56.819 Q49 -58.532 49 -61.281 Q49 -64.03 50.718 -65.817 Q52.435 -67.605 55.25 -67.605 H77.75 L73.25 -79.855 Q73.25 -79.855 73.25 -79.855 Q73.25 -79.855 73.25 -79.855 H62.625 Q59.969 -79.855 58.172 -81.656 Q56.375 -83.456 56.375 -86.119 Q56.375 -88.78 58.172 -90.567 Q59.969 -92.355 62.625 -92.355 H70.125 Q75.5 -92.355 79.855 -89.295 Q84.209 -86.235 86 -81.105 L91 -67.73 H94.25 Q105.5 -67.73 113.062 -60.124 Q120.625 -52.519 120.625 -41.124 Q120.625 -30.169 112.812 -22.575 Q105 -14.98 94.174 -14.98 Z M94.188 -27.355 Q100.125 -27.355 104.188 -31.23 Q108.25 -35.105 108.25 -41.105 Q108.25 -46.605 104.75 -50.605 Q101.25 -54.605 95.498 -54.855 Q95.584 -54.855 95.562 -54.855 Q95.541 -54.855 95.5 -54.855 L98.125 -47.98 Q99 -45.48 97.938 -43.23 Q96.875 -40.98 94.312 -40.105 Q92 -39.105 89.625 -40.189 Q87.25 -41.271 86.375 -43.73 L83.897 -50.73 Q82 -48.605 81.125 -46.23 Q80.25 -43.855 80.25 -41.105 Q80.25 -35.105 84.25 -31.23 Q88.25 -27.355 94.188 -27.355 Z M35 21.645 Q29 21.645 24.688 18.02 Q20.375 14.395 19.125 8.895 Q19.125 8.895 19.125 8.895 Q19.125 8.895 19.125 8.895 H6.625 Q3.329 8.895 1.226 6.62 Q-0.875 4.345 -0.875 1.27 Q-0.875 -1.805 1.312 -4.017 Q3.5 -6.23 6.75 -6.23 H23.625 Q25.564 -8.105 28.473 -9.542 Q31.383 -10.98 35 -10.98 Q38.23 -10.98 41.14 -9.73 Q44.049 -8.48 46.375 -6.23 H56.125 Q56.125 -6.23 56.125 -6.23 Q56.125 -6.23 56.125 -6.23 V-13.23 Q56.125 -13.23 56.125 -13.23 Q56.125 -13.23 56.125 -13.23 H6.625 Q3.329 -13.23 1.226 -15.505 Q-0.875 -17.78 -0.875 -20.855 Q-0.875 -24.105 1.312 -26.23 Q3.5 -28.355 6.75 -28.355 H7.125 V-41.23 H6.625 Q3.502 -41.23 1.314 -43.419 Q-0.875 -45.609 -0.875 -48.73 Q-0.875 -51.851 1.314 -54.041 Q3.502 -56.23 6.625 -56.23 H31.875 Q34.324 -56.23 36.249 -55.062 Q38.174 -53.895 39.25 -51.855 L51.875 -28.355 H54.25 Q61.422 -28.355 66.336 -23.441 Q71.25 -18.527 71.25 -11.355 V-8.105 Q71.25 -1.107 66.336 3.894 Q61.422 8.895 54.25 8.895 H50.875 Q50.875 8.895 50.875 8.895 Q50.875 8.895 50.875 8.895 Q49.625 14.52 45.188 18.083 Q40.75 21.645 35 21.645 Z M22.125 -28.355 H34.75 L27.875 -41.23 H22.125 V-28.355 Z M35.023 9.145 Q36.625 9.145 37.688 8.06 Q38.75 6.976 38.75 5.373 Q38.75 3.77 37.691 2.645 Q36.631 1.52 35.066 1.52 Q33.5 1.52 32.375 2.605 Q31.25 3.689 31.25 5.293 Q31.25 6.895 32.335 8.02 Q33.419 9.145 35.023 9.145 Z"/></g><g id="Semibold-M" transform="matrix(1 0 0 1 1985.97 1126)"><path d="M94.735 -14.762 Q85.435 -14.762 78.338 -20.559 Q71.239 -26.355 69.153 -34.909 H64.386 Q61.845 -34.909 60.126 -36.629 Q58.407 -38.349 58.407 -40.89 Q58.407 -43.432 60.081 -45.149 Q61.755 -46.866 64.386 -46.866 H69.153 Q69.696 -49.265 70.575 -51.231 Q71.454 -53.196 72.674 -55.267 H53.403 Q50.861 -55.267 49.142 -56.939 Q47.424 -58.609 47.424 -61.2 Q47.424 -63.791 49.097 -65.507 Q50.771 -67.225 53.403 -67.225 H78.565 L73.903 -79.909 Q73.903 -79.909 73.903 -79.909 Q73.903 -79.909 73.903 -79.909 H61.755 Q59.215 -79.909 57.496 -81.629 Q55.778 -83.349 55.778 -85.89 Q55.778 -88.432 57.496 -90.149 Q59.215 -91.866 61.755 -91.866 H71.537 Q76.37 -91.866 80.353 -89.131 Q84.335 -86.396 85.946 -81.757 L91.326 -67.295 H94.794 Q105.935 -67.295 113.47 -59.681 Q121.005 -52.067 121.005 -40.871 Q121.005 -29.924 113.301 -22.344 Q105.597 -14.762 94.735 -14.762 Z M94.757 -26.649 Q100.886 -26.649 105.002 -30.66 Q109.12 -34.67 109.12 -40.806 Q109.12 -46.659 105.403 -50.767 Q101.685 -54.876 95.608 -55.017 Q95.656 -55.017 95.644 -55.017 Q95.632 -55.017 95.609 -55.017 L98.396 -47.654 Q99.271 -45.317 98.236 -43.121 Q97.201 -40.926 94.801 -40.051 Q92.544 -39.105 90.25 -40.179 Q87.956 -41.254 87.081 -43.621 L84.486 -51.056 Q82.489 -48.931 81.479 -46.366 Q80.468 -43.801 80.468 -40.815 Q80.468 -34.67 84.549 -30.66 Q88.63 -26.649 94.757 -26.649 Z M35 21.808 Q28.891 21.808 24.551 18.02 Q20.212 14.233 19.234 8.515 Q19.234 8.515 19.234 8.515 Q19.234 8.515 19.234 8.515 H5.593 Q2.534 8.515 0.502 6.386 Q-1.528 4.258 -1.528 1.324 Q-1.528 -1.609 0.551 -3.702 Q2.63 -5.795 5.662 -5.795 H23.896 Q25.808 -7.67 28.62 -8.999 Q31.434 -10.327 35 -10.327 Q38.185 -10.327 41.025 -9.16 Q43.865 -7.991 46.157 -5.795 H56.722 Q56.722 -5.795 56.722 -5.795 Q56.722 -5.795 56.722 -5.795 V-13.012 Q56.722 -13.012 56.722 -13.012 Q56.722 -13.012 56.722 -13.012 H5.593 Q2.534 -13.012 0.502 -15.141 Q-1.528 -17.269 -1.528 -20.202 Q-1.528 -23.235 0.551 -25.279 Q2.63 -27.322 5.662 -27.322 H7.287 V-40.795 H5.593 Q2.632 -40.795 0.552 -42.875 Q-1.528 -44.955 -1.528 -47.915 Q-1.528 -50.875 0.552 -52.955 Q2.632 -55.035 5.593 -55.035 H31.549 Q33.71 -55.035 35.47 -53.966 Q37.229 -52.899 38.218 -51.04 L51.06 -27.322 H55.663 Q62.163 -27.322 66.597 -22.887 Q71.032 -18.452 71.032 -11.952 V-6.855 Q71.032 -0.455 66.597 4.03 Q62.163 8.515 55.663 8.515 H50.766 Q50.766 8.515 50.766 8.515 Q50.766 8.515 50.766 8.515 Q49.788 14.303 45.377 18.055 Q40.968 21.808 35 21.808 Z M21.527 -27.322 H34.804 L27.549 -40.795 H21.527 V-27.322 Z M35.001 9.851 Q36.734 9.851 37.905 8.679 Q39.076 7.508 39.076 5.775 Q39.076 4.041 37.919 2.835 Q36.76 1.629 35.049 1.629 Q33.337 1.629 32.13 2.801 Q30.924 3.973 30.924 5.706 Q30.924 7.439 32.096 8.645 Q33.269 9.851 35.001 9.851 Z"/></g><g id="Medium-M" transform="matrix(1 0 0 1 1689.91 1126)"><path d="M95.156 -14.6 Q85.761 -14.6 78.684 -20.477 Q71.606 -26.355 69.641 -34.95 H63.081 Q60.627 -34.95 58.968 -36.609 Q57.307 -38.267 57.307 -40.719 Q57.307 -43.171 58.949 -44.835 Q60.589 -46.499 63.081 -46.499 H69.641 Q70.233 -49.1 71.145 -51.194 Q72.058 -53.287 73.366 -55.39 H52.016 Q49.562 -55.39 47.903 -57.029 Q46.241 -58.666 46.241 -61.139 Q46.241 -63.611 47.883 -65.275 Q49.524 -66.939 52.016 -66.939 H79.176 L74.391 -79.95 Q74.391 -79.95 74.391 -79.95 Q74.391 -79.95 74.391 -79.95 H61.104 Q58.649 -79.95 56.989 -81.609 Q55.329 -83.267 55.329 -85.719 Q55.329 -88.171 56.989 -89.835 Q58.649 -91.499 61.104 -91.499 H72.597 Q77.021 -91.499 80.726 -89.007 Q84.43 -86.516 85.905 -82.246 L91.571 -66.969 H95.201 Q106.261 -66.969 113.776 -59.349 Q121.291 -51.729 121.291 -40.681 Q121.291 -29.74 113.669 -22.17 Q106.046 -14.6 95.156 -14.6 Z M95.186 -26.119 Q101.456 -26.119 105.614 -30.231 Q109.771 -34.344 109.771 -40.582 Q109.771 -46.7 105.891 -50.89 Q102.011 -55.08 95.69 -55.14 Q95.71 -55.14 95.705 -55.14 Q95.7 -55.14 95.69 -55.14 L98.6 -47.409 Q99.475 -45.195 98.46 -43.04 Q97.446 -40.885 95.169 -40.01 Q92.951 -39.105 90.719 -40.172 Q88.486 -41.24 87.611 -43.54 L84.926 -51.301 Q82.856 -49.176 81.744 -46.467 Q80.63 -43.76 80.63 -40.597 Q80.63 -34.344 84.772 -30.231 Q88.916 -26.119 95.186 -26.119 Z M35 21.93 Q28.81 21.93 24.45 18.02 Q20.09 14.11 19.315 8.229 Q19.315 8.229 19.315 8.229 Q19.315 8.229 19.315 8.229 H4.817 Q1.938 8.229 -0.04 6.211 Q-2.016 4.193 -2.016 1.365 Q-2.016 -1.462 -0.019 -3.466 Q1.979 -5.469 4.848 -5.469 H24.1 Q25.991 -7.344 28.731 -8.591 Q31.471 -9.839 35 -9.839 Q38.15 -9.839 40.939 -8.731 Q43.726 -7.624 45.995 -5.469 H57.171 Q57.171 -5.469 57.171 -5.469 Q57.171 -5.469 57.171 -5.469 V-12.85 Q57.171 -12.85 57.171 -12.85 Q57.171 -12.85 57.171 -12.85 H4.817 Q1.938 -12.85 -0.04 -14.867 Q-2.016 -16.886 -2.016 -19.714 Q-2.016 -22.584 -0.019 -24.565 Q1.979 -26.547 4.848 -26.547 H7.41 V-40.469 H4.817 Q1.979 -40.469 -0.019 -42.466 Q-2.016 -44.465 -2.016 -47.304 Q-2.016 -50.142 -0.019 -52.14 Q1.979 -54.137 4.817 -54.137 H31.304 Q33.25 -54.137 34.885 -53.145 Q36.52 -52.152 37.443 -50.429 L50.449 -26.547 H56.722 Q62.718 -26.547 66.794 -22.472 Q70.87 -18.396 70.87 -12.401 V-5.917 Q70.87 0.035 66.794 4.133 Q62.718 8.229 56.722 8.229 H50.685 Q50.685 8.229 50.685 8.229 Q50.685 8.229 50.685 8.229 Q49.91 14.14 45.52 18.035 Q41.13 21.93 35 21.93 Z M21.079 -26.547 H34.845 L27.304 -40.469 H21.079 V-26.547 Z M34.985 10.381 Q36.815 10.381 38.068 9.144 Q39.321 7.905 39.321 6.075 Q39.321 4.245 38.089 2.978 Q36.856 1.71 35.036 1.71 Q33.215 1.71 31.948 2.949 Q30.679 4.186 30.679 6.016 Q30.679 7.846 31.918 9.114 Q33.155 10.381 34.985 10.381 Z"/></g><g id="Regular-M" transform="matrix(1 0 0 1 1394.06 1126)"><path d="M95.465 -14.48 Q86 -14.48 78.938 -20.417 Q71.875 -26.355 70 -34.98 H62.125 Q59.735 -34.98 58.117 -36.594 Q56.5 -38.207 56.5 -40.594 Q56.5 -42.98 58.117 -44.605 Q59.735 -46.23 62.125 -46.23 H70 Q70.625 -48.98 71.562 -51.167 Q72.5 -53.355 73.875 -55.48 H51 Q48.61 -55.48 46.992 -57.094 Q45.375 -58.707 45.375 -61.094 Q45.375 -63.48 46.992 -65.105 Q48.61 -66.73 51 -66.73 H79.625 L74.75 -79.98 Q74.75 -79.98 74.75 -79.98 Q74.75 -79.98 74.75 -79.98 H60.625 Q58.235 -79.98 56.617 -81.594 Q55 -83.207 55 -85.594 Q55 -87.98 56.617 -89.605 Q58.235 -91.23 60.625 -91.23 H73.375 Q77.5 -91.23 81 -88.917 Q84.5 -86.605 85.875 -82.605 L91.75 -66.73 H95.5 Q106.5 -66.73 114 -59.105 Q121.5 -51.48 121.5 -40.542 Q121.5 -29.605 113.938 -22.042 Q106.375 -14.48 95.465 -14.48 Z M95.5 -25.73 Q101.875 -25.73 106.062 -29.917 Q110.25 -34.105 110.25 -40.417 Q110.25 -46.73 106.25 -50.98 Q102.25 -55.23 95.75 -55.23 Q95.75 -55.23 95.75 -55.23 Q95.75 -55.23 95.75 -55.23 L98.75 -47.23 Q99.625 -45.105 98.625 -42.98 Q97.625 -40.855 95.438 -39.98 Q93.25 -39.105 91.062 -40.167 Q88.875 -41.23 88 -43.48 L85.25 -51.48 Q83.125 -49.355 81.938 -46.542 Q80.75 -43.73 80.75 -40.437 Q80.75 -34.105 84.938 -29.917 Q89.125 -25.73 95.5 -25.73 Z M35 22.02 Q28.75 22.02 24.375 18.02 Q20 14.02 19.375 8.02 Q19.375 8.02 19.375 8.02 Q19.375 8.02 19.375 8.02 H4.25 Q1.5 8.02 -0.438 6.083 Q-2.375 4.145 -2.375 1.395 Q-2.375 -1.355 -0.438 -3.292 Q1.5 -5.23 4.25 -5.23 H24.25 Q26.125 -7.105 28.812 -8.292 Q31.5 -9.48 35 -9.48 Q38.125 -9.48 40.875 -8.417 Q43.625 -7.355 45.875 -5.23 H57.5 Q57.5 -5.23 57.5 -5.23 Q57.5 -5.23 57.5 -5.23 V-12.73 Q57.5 -12.73 57.5 -12.73 Q57.5 -12.73 57.5 -12.73 H4.25 Q1.5 -12.73 -0.438 -14.667 Q-2.375 -16.605 -2.375 -19.355 Q-2.375 -22.105 -0.438 -24.042 Q1.5 -25.98 4.25 -25.98 H7.5 V-40.23 H4.25 Q1.5 -40.23 -0.438 -42.167 Q-2.375 -44.105 -2.375 -46.855 Q-2.375 -49.605 -0.438 -51.542 Q1.5 -53.48 4.25 -53.48 H31.125 Q32.913 -53.48 34.456 -52.542 Q36 -51.605 36.875 -49.98 L50 -25.98 H57.5 Q63.125 -25.98 66.938 -22.167 Q70.75 -18.355 70.75 -12.73 V-5.23 Q70.75 0.395 66.938 4.208 Q63.125 8.02 57.5 8.02 H50.625 Q50.625 8.02 50.625 8.02 Q50.625 8.02 50.625 8.02 Q50 14.02 45.625 18.02 Q41.25 22.02 35 22.02 Z M20.75 -25.98 H34.875 L27.125 -40.23 H20.75 V-25.98 Z M34.974 10.77 Q36.875 10.77 38.188 9.484 Q39.5 8.198 39.5 6.296 Q39.5 4.395 38.214 3.083 Q36.928 1.77 35.026 1.77 Q33.125 1.77 31.812 3.056 Q30.5 4.343 30.5 6.244 Q30.5 8.145 31.786 9.458 Q33.072 10.77 34.974 10.77 Z"/></g><g id="Light-M" transform="matrix(1 0 0 1 1098.18 1126)"><path d="M93.83 -13.806 Q84.558 -13.902 77.808 -19.72 Q71.058 -25.537 69.422 -34.306 H60.154 Q58.294 -34.306 57.036 -35.562 Q55.779 -36.817 55.779 -38.672 Q55.779 -40.527 57.036 -41.792 Q58.294 -43.056 60.154 -43.056 H69.422 Q69.951 -46.431 71.539 -49.556 Q73.125 -52.681 75.606 -54.902 H49.221 Q47.361 -54.902 46.104 -56.159 Q44.846 -57.414 44.846 -59.269 Q44.846 -61.124 46.104 -62.389 Q47.361 -63.652 49.221 -63.652 H79.817 L73.74 -80.22 Q73.547 -80.701 73.164 -80.966 Q72.779 -81.23 72.297 -81.23 H59.951 Q58.093 -81.23 56.835 -82.485 Q55.578 -83.74 55.578 -85.596 Q55.578 -87.451 56.835 -88.715 Q58.093 -89.98 59.951 -89.98 H70.922 Q74.731 -89.98 77.987 -87.851 Q81.244 -85.724 82.509 -82.027 L89.297 -63.652 H93.865 Q104.48 -63.652 111.547 -56.412 Q118.615 -49.172 118.615 -38.619 Q118.615 -28.2 111.419 -21.004 Q104.221 -13.806 93.83 -13.806 Z M93.871 -22.556 Q100.769 -22.556 105.317 -27.109 Q109.865 -31.661 109.865 -38.494 Q109.865 -45.431 105.552 -50.042 Q101.24 -54.652 94.115 -54.652 Q93.586 -54.652 93.13 -54.556 Q92.672 -54.461 92.336 -54.365 L95.914 -44.922 Q96.596 -43.326 95.82 -41.677 Q95.045 -40.029 93.37 -39.306 Q91.711 -38.576 89.985 -39.414 Q88.257 -40.252 87.567 -41.99 L84.289 -51.527 Q81.297 -49.355 79.581 -45.869 Q77.865 -42.384 77.865 -38.514 Q77.865 -31.661 82.419 -27.109 Q86.972 -22.556 93.871 -22.556 Z M36.929 20.866 Q31.203 20.866 27.188 17.231 Q23.174 13.595 22.549 8.116 Q22.549 7.731 22.596 7.443 Q22.645 7.155 22.741 6.77 H6.174 Q3.955 6.77 2.376 5.191 Q0.799 3.613 0.799 1.394 Q0.799 -0.826 2.376 -2.402 Q3.955 -3.98 6.174 -3.98 H26.799 Q28.625 -5.999 31.169 -7.066 Q33.711 -8.134 36.932 -8.134 Q39.807 -8.134 42.414 -7.144 Q45.019 -6.152 47.174 -3.98 H57.885 Q58.557 -3.98 58.99 -4.412 Q59.424 -4.845 59.424 -5.519 V-11.191 Q59.424 -11.865 58.99 -12.297 Q58.557 -12.73 57.885 -12.73 H6.174 Q3.955 -12.73 2.376 -14.309 Q0.799 -15.887 0.799 -18.106 Q0.799 -20.326 2.376 -21.902 Q3.955 -23.48 6.174 -23.48 H10.674 V-38.98 H6.174 Q3.955 -38.98 2.376 -40.559 Q0.799 -42.137 0.799 -44.356 Q0.799 -46.576 2.376 -48.152 Q3.955 -49.73 6.174 -49.73 H32.615 Q34.267 -49.73 35.694 -48.842 Q37.12 -47.956 37.932 -46.422 L50.24 -23.48 H57.885 Q63.112 -23.48 66.642 -19.95 Q70.172 -16.42 70.172 -11.191 V-5.519 Q70.172 -0.29 66.642 3.24 Q63.112 6.77 57.885 6.77 H51.106 Q51.203 7.155 51.25 7.443 Q51.299 7.731 51.299 8.116 Q50.674 13.595 46.665 17.231 Q42.656 20.866 36.929 20.866 Z M21.424 -23.48 H38.049 L29.77 -38.98 H21.424 V-23.48 Z M36.898 12.116 Q39.279 12.116 40.976 10.445 Q42.674 8.775 42.674 6.393 Q42.674 4.01 41.002 2.314 Q39.331 0.616 36.95 0.616 Q34.568 0.616 32.87 2.288 Q31.174 3.958 31.174 6.34 Q31.174 8.723 32.844 10.419 Q34.515 12.116 36.898 12.116 Z"/></g><g id="Thin-M" transform="matrix(1 0 0 1 802.565 1126)"><path d="M92.195 -13.134 Q83.115 -13.326 76.677 -19.024 Q70.24 -24.72 68.846 -33.634 H58.182 Q56.855 -33.634 55.956 -34.53 Q55.057 -35.426 55.057 -36.751 Q55.057 -38.076 55.956 -38.98 Q56.855 -39.884 58.182 -39.884 H68.846 Q69.279 -43.884 71.515 -47.946 Q73.75 -52.009 77.336 -54.326 H47.443 Q46.114 -54.326 45.216 -55.222 Q44.318 -56.119 44.318 -57.444 Q44.318 -58.769 45.216 -59.672 Q46.114 -60.576 47.443 -60.576 H80.01 L72.731 -80.461 Q72.346 -81.422 71.578 -81.951 Q70.808 -82.48 69.846 -82.48 H59.279 Q57.951 -82.48 57.053 -83.376 Q56.154 -84.272 56.154 -85.597 Q56.154 -86.922 57.053 -87.826 Q57.951 -88.73 59.279 -88.73 H68.471 Q71.963 -88.73 74.976 -86.786 Q77.989 -84.841 79.144 -81.451 L86.846 -60.576 H92.231 Q102.461 -60.576 109.096 -53.72 Q115.731 -46.865 115.731 -36.696 Q115.731 -26.796 108.9 -19.965 Q102.069 -13.134 92.195 -13.134 Z M92.243 -19.384 Q99.664 -19.384 104.573 -24.3 Q109.481 -29.217 109.481 -36.571 Q109.481 -44.134 104.856 -49.105 Q100.231 -54.076 92.481 -54.076 Q91.422 -54.076 90.51 -53.884 Q89.596 -53.691 88.922 -53.499 L93.078 -42.615 Q93.567 -41.547 93.016 -40.375 Q92.465 -39.201 91.302 -38.634 Q90.172 -38.047 88.907 -38.661 Q87.641 -39.275 87.135 -40.499 L83.328 -51.576 Q79.471 -49.355 77.226 -45.196 Q74.981 -41.037 74.981 -36.591 Q74.981 -29.217 79.901 -24.3 Q84.821 -19.384 92.243 -19.384 Z M38.858 19.713 Q33.654 19.713 30 16.441 Q26.346 13.171 25.721 8.213 Q25.721 7.443 25.817 6.866 Q25.914 6.289 26.106 5.52 H8.096 Q6.409 5.52 5.19 4.3 Q3.971 3.08 3.971 1.391 Q3.971 -0.297 5.19 -1.514 Q6.409 -2.73 8.096 -2.73 H29.346 Q31.125 -4.894 33.524 -5.84 Q35.922 -6.787 38.864 -6.787 Q41.49 -6.787 43.953 -5.87 Q46.414 -4.951 48.471 -2.73 H58.269 Q59.615 -2.73 60.481 -3.595 Q61.346 -4.461 61.346 -5.807 V-9.652 Q61.346 -10.999 60.481 -11.865 Q59.615 -12.73 58.269 -12.73 H8.096 Q6.409 -12.73 5.19 -13.95 Q3.971 -15.17 3.971 -16.859 Q3.971 -18.547 5.19 -19.764 Q6.409 -20.98 8.096 -20.98 H13.846 V-37.73 H8.096 Q6.409 -37.73 5.19 -38.95 Q3.971 -40.17 3.971 -41.859 Q3.971 -43.547 5.19 -44.764 Q6.409 -45.98 8.096 -45.98 H34.106 Q35.621 -45.98 36.93 -45.144 Q38.239 -44.307 38.99 -42.865 L50.481 -20.98 H58.269 Q63.101 -20.98 66.349 -17.732 Q69.596 -14.485 69.596 -9.652 V-5.807 Q69.596 -0.975 66.349 2.273 Q63.101 5.52 58.269 5.52 H51.586 Q51.779 6.289 51.875 6.866 Q51.971 7.443 51.971 8.213 Q51.346 13.171 47.704 16.441 Q44.061 19.713 38.858 19.713 Z M22.096 -20.98 H41.221 L32.414 -37.73 H22.096 V-20.98 Z M38.82 13.463 Q41.682 13.463 43.765 11.408 Q45.846 9.351 45.846 6.489 Q45.846 3.626 43.791 1.544 Q41.735 -0.537 38.873 -0.537 Q36.01 -0.537 33.928 1.518 Q31.846 3.574 31.846 6.436 Q31.846 9.299 33.901 11.38 Q35.958 13.463 38.82 13.463 Z"/></g><g id="Ultralight-M" transform="matrix(1 0 0 1 506.415 1126)"><path d="M91.215 -12.73 Q82.25 -12.98 76 -18.605 Q69.75 -24.23 68.5 -33.23 H57 Q55.99 -33.23 55.307 -33.911 Q54.625 -34.591 54.625 -35.599 Q54.625 -36.605 55.307 -37.292 Q55.99 -37.98 57 -37.98 H68.5 Q68.875 -42.355 71.5 -46.98 Q74.125 -51.605 78.375 -53.98 H46.375 Q45.365 -53.98 44.682 -54.661 Q44 -55.341 44 -56.349 Q44 -57.355 44.682 -58.042 Q45.365 -58.73 46.375 -58.73 H80.125 L72.125 -80.605 Q71.625 -81.855 70.625 -82.542 Q69.625 -83.23 68.375 -83.23 H58.875 Q57.865 -83.23 57.182 -83.911 Q56.5 -84.591 56.5 -85.599 Q56.5 -86.605 57.182 -87.292 Q57.865 -87.98 58.875 -87.98 H67 Q70.301 -87.98 73.169 -86.146 Q76.035 -84.312 77.125 -81.105 L85.375 -58.73 H91.25 Q101.25 -58.73 107.625 -52.105 Q114 -45.48 114 -35.542 Q114 -25.954 107.388 -19.342 Q100.776 -12.73 91.215 -12.73 Z M91.265 -17.48 Q99 -17.48 104.125 -22.615 Q109.25 -27.751 109.25 -35.417 Q109.25 -43.355 104.438 -48.542 Q99.625 -53.73 91.5 -53.73 Q90.125 -53.73 88.938 -53.48 Q87.75 -53.23 86.875 -52.98 L91.375 -41.23 Q91.75 -40.48 91.334 -39.592 Q90.916 -38.706 90.062 -38.23 Q89.25 -37.73 88.26 -38.209 Q87.271 -38.689 86.875 -39.605 L82.75 -51.605 Q78.375 -49.355 75.812 -44.792 Q73.25 -40.23 73.25 -35.437 Q73.25 -27.751 78.39 -22.615 Q83.53 -17.48 91.265 -17.48 Z M40.015 19.02 Q35.125 19.02 31.688 15.968 Q28.25 12.916 27.625 8.27 Q27.625 7.27 27.75 6.52 Q27.875 5.77 28.125 4.77 H9.25 Q7.881 4.77 6.879 3.765 Q5.875 2.761 5.875 1.39 Q5.875 0.02 6.879 -0.98 Q7.881 -1.98 9.25 -1.98 H30.875 Q32.625 -4.23 34.938 -5.105 Q37.25 -5.98 40.024 -5.98 Q42.5 -5.98 44.875 -5.105 Q47.25 -4.23 49.25 -1.98 H58.5 Q60.25 -1.98 61.375 -3.105 Q62.5 -4.23 62.5 -5.98 V-8.73 Q62.5 -10.48 61.375 -11.605 Q60.25 -12.73 58.5 -12.73 H9.25 Q7.881 -12.73 6.879 -13.735 Q5.875 -14.739 5.875 -16.11 Q5.875 -17.48 6.879 -18.48 Q7.881 -19.48 9.25 -19.48 H15.75 V-36.98 H9.25 Q7.881 -36.98 6.879 -37.985 Q5.875 -38.989 5.875 -40.36 Q5.875 -41.73 6.879 -42.73 Q7.881 -43.73 9.25 -43.73 H35 Q36.434 -43.73 37.672 -42.924 Q38.911 -42.119 39.625 -40.73 L50.625 -19.48 H58.5 Q63.094 -19.48 66.172 -16.402 Q69.25 -13.324 69.25 -8.73 V-5.98 Q69.25 -1.386 66.172 1.691 Q63.094 4.77 58.5 4.77 H51.875 Q52.125 5.77 52.25 6.52 Q52.375 7.27 52.375 8.27 Q51.75 12.916 48.328 15.968 Q44.905 19.02 40.015 19.02 Z M22.5 -19.48 H43.125 L34 -36.98 H22.5 V-19.48 Z M39.974 14.27 Q43.125 14.27 45.438 11.984 Q47.75 9.698 47.75 6.546 Q47.75 3.395 45.464 1.083 Q43.178 -1.23 40.026 -1.23 Q36.875 -1.23 34.562 1.056 Q32.25 3.343 32.25 6.494 Q32.25 9.645 34.536 11.958 Q36.822 14.27 39.974 14.27 Z"/></g><g id="Bold-S" transform="matrix(1 0 0 1 2294.23 696)"><path d="M75.092 -20.831 Q68.446 -20.831 63.071 -24.825 Q57.696 -28.819 55.92 -34.934 H51.186 Q49.258 -34.934 47.954 -36.235 Q46.65 -37.537 46.65 -39.46 Q46.65 -41.384 47.891 -42.696 Q49.133 -44.008 51.186 -44.008 H55.427 Q55.611 -46.082 56.466 -47.992 Q57.32 -49.901 58.485 -51.7 H42.409 Q40.481 -51.7 39.177 -52.933 Q37.872 -54.166 37.872 -56.158 Q37.872 -58.15 39.114 -59.462 Q40.355 -60.774 42.409 -60.774 H62.824 L59.372 -70.439 Q59.372 -70.439 59.372 -70.439 Q59.372 -70.439 59.372 -70.439 H48.228 Q46.3 -70.439 44.996 -71.74 Q43.691 -73.042 43.691 -74.965 Q43.691 -76.889 44.996 -78.201 Q46.3 -79.513 48.228 -79.513 H57.794 Q61.385 -79.513 64.321 -77.449 Q67.257 -75.385 68.446 -71.918 L72.513 -60.872 H75.152 Q83.701 -60.872 89.437 -55.096 Q95.173 -49.32 95.173 -40.647 Q95.173 -32.322 89.24 -26.577 Q83.307 -20.831 75.092 -20.831 Z M75.103 -29.806 Q79.788 -29.806 82.993 -32.863 Q86.198 -35.92 86.198 -40.654 Q86.198 -44.994 83.437 -48.15 Q80.675 -51.306 76.137 -51.503 Q76.303 -51.503 76.04 -51.503 Q75.777 -51.503 75.645 -51.404 L78.21 -44.797 Q78.801 -43.021 78.012 -41.443 Q77.223 -39.865 75.38 -39.175 Q73.733 -38.386 72.027 -39.142 Q70.32 -39.898 69.728 -41.641 L67.28 -48.446 Q65.586 -46.67 64.846 -44.778 Q64.106 -42.884 64.106 -40.694 Q64.106 -35.92 67.262 -32.863 Q70.418 -29.806 75.103 -29.806 Z M27.221 8.855 Q22.486 8.855 19.084 6.024 Q15.681 3.192 14.695 -1.106 Q14.695 -1.106 14.695 -1.106 Q14.695 -1.106 14.695 -1.106 H4.833 Q2.4 -1.106 0.854 -2.781 Q-0.69 -4.457 -0.69 -6.707 Q-0.69 -8.956 0.922 -10.603 Q2.535 -12.25 4.931 -12.25 H17.555 Q19.282 -14.519 21.774 -15.702 Q24.268 -16.886 27.221 -16.886 Q30.163 -16.886 32.657 -15.604 Q35.149 -14.321 36.929 -12.25 H44.283 Q44.283 -12.25 44.283 -12.25 Q44.283 -12.25 44.283 -12.25 V-19.549 Q44.283 -19.549 44.283 -19.549 Q44.283 -19.549 44.283 -19.549 H4.833 Q2.4 -19.549 0.854 -21.224 Q-0.69 -22.9 -0.69 -25.15 Q-0.69 -27.537 0.922 -29.115 Q2.535 -30.693 4.931 -30.693 H6.016 V-40.753 H4.833 Q2.538 -40.753 0.923 -42.361 Q-0.69 -43.968 -0.69 -46.255 Q-0.69 -48.541 0.923 -50.171 Q2.538 -51.799 4.833 -51.799 H25.84 Q27.627 -51.799 29.021 -50.878 Q30.415 -49.957 31.264 -48.446 L40.634 -30.693 H43.987 Q48.832 -30.693 52.129 -27.395 Q55.427 -24.098 55.427 -19.253 V-12.546 Q55.427 -7.839 52.129 -4.473 Q48.832 -1.106 43.987 -1.106 H39.746 Q39.746 -1.106 39.746 -1.106 Q39.746 -1.106 39.746 -1.106 Q38.76 3.332 35.258 6.094 Q31.757 8.855 27.221 8.855 Z M17.062 -30.693 H28.01 L22.782 -40.753 H17.062 V-30.693 Z M27.238 -0.218 Q28.838 -0.218 29.903 -1.301 Q30.968 -2.383 30.968 -3.984 Q30.968 -5.583 29.906 -6.698 Q28.843 -7.812 27.273 -7.812 Q25.702 -7.812 24.587 -6.729 Q23.473 -5.647 23.473 -4.047 Q23.473 -2.447 24.556 -1.333 Q25.638 -0.218 27.238 -0.218 Z"/></g><g id="Semibold-S" transform="matrix(1 0 0 1 1998.1 696)"><path d="M75.535 -20.659 Q68.789 -20.659 63.436 -24.739 Q58.081 -28.819 56.435 -34.977 H49.815 Q47.977 -34.977 46.734 -36.214 Q45.492 -37.452 45.492 -39.281 Q45.492 -41.11 46.699 -42.366 Q47.906 -43.622 49.815 -43.622 H55.942 Q56.174 -45.909 57.064 -47.954 Q57.955 -49.997 59.213 -51.829 H40.951 Q39.114 -51.829 37.871 -53.028 Q36.628 -54.226 36.628 -56.094 Q36.628 -57.962 37.836 -59.218 Q39.043 -60.474 40.951 -60.474 H63.467 L59.887 -70.482 Q59.887 -70.482 59.887 -70.482 Q59.887 -70.482 59.887 -70.482 H47.541 Q45.705 -70.482 44.462 -71.719 Q43.219 -72.957 43.219 -74.786 Q43.219 -76.615 44.462 -77.871 Q45.705 -79.127 47.541 -79.127 H58.909 Q62.072 -79.127 64.715 -77.319 Q67.357 -75.512 68.403 -72.433 L72.77 -60.529 H75.581 Q84.044 -60.529 89.759 -54.746 Q95.473 -48.963 95.473 -40.447 Q95.473 -32.128 89.625 -26.394 Q83.778 -20.659 75.535 -20.659 Z M75.553 -29.248 Q80.388 -29.248 83.636 -32.413 Q86.885 -35.577 86.885 -40.419 Q86.885 -45.036 83.952 -48.278 Q81.018 -51.52 76.223 -51.631 Q76.36 -51.631 76.104 -51.631 Q75.849 -51.631 75.731 -51.533 L78.424 -44.539 Q79.015 -42.893 78.248 -41.358 Q77.481 -39.823 75.766 -39.133 Q74.162 -38.386 72.52 -39.135 Q70.877 -39.884 70.285 -41.555 L67.745 -48.703 Q65.971 -46.928 65.125 -44.884 Q64.278 -42.842 64.278 -40.465 Q64.278 -35.577 67.498 -32.413 Q70.718 -29.248 75.553 -29.248 Z M27.221 8.984 Q22.401 8.984 18.976 6.024 Q15.553 3.064 14.781 -1.406 Q14.781 -1.406 14.781 -1.406 Q14.781 -1.406 14.781 -1.406 H4.018 Q1.772 -1.406 0.283 -2.966 Q-1.205 -4.525 -1.205 -6.663 Q-1.205 -8.801 0.322 -10.355 Q1.848 -11.907 4.073 -11.907 H17.769 Q19.474 -14.176 21.891 -15.273 Q24.308 -16.371 27.221 -16.371 Q30.128 -16.371 32.566 -15.154 Q35.004 -13.936 36.758 -11.907 H44.754 Q44.754 -11.907 44.754 -11.907 Q44.754 -11.907 44.754 -11.907 V-19.377 Q44.754 -19.377 44.754 -19.377 Q44.754 -19.377 44.754 -19.377 H4.018 Q1.772 -19.377 0.283 -20.937 Q-1.205 -22.497 -1.205 -24.635 Q-1.205 -26.851 0.322 -28.365 Q1.848 -29.879 4.073 -29.879 H6.144 V-40.41 H4.018 Q1.85 -40.41 0.323 -41.932 Q-1.205 -43.453 -1.205 -45.612 Q-1.205 -47.771 0.323 -49.314 Q1.85 -50.856 4.018 -50.856 H25.582 Q27.143 -50.856 28.406 -50.013 Q29.669 -49.171 30.449 -47.803 L39.99 -29.879 H45.101 Q49.416 -29.879 52.335 -26.958 Q55.256 -24.039 55.256 -19.724 V-11.56 Q55.256 -7.324 52.335 -4.365 Q49.416 -1.406 45.101 -1.406 H39.66 Q39.66 -1.406 39.66 -1.406 Q39.66 -1.406 39.66 -1.406 Q38.888 3.161 35.408 6.072 Q31.929 8.984 27.221 8.984 Z M16.591 -29.879 H28.052 L22.525 -40.41 H16.591 V-29.879 Z M27.221 0.339 Q28.924 0.339 30.075 -0.813 Q31.226 -1.964 31.226 -3.666 Q31.226 -5.369 30.086 -6.548 Q28.944 -7.726 27.259 -7.726 Q25.573 -7.726 24.394 -6.575 Q23.215 -5.424 23.215 -3.72 Q23.215 -2.018 24.367 -0.839 Q25.519 0.339 27.221 0.339 Z"/></g><g id="Medium-S" transform="matrix(1 0 0 1 1701.85 696)"><path d="M75.867 -20.531 Q69.046 -20.531 63.709 -24.675 Q58.371 -28.819 56.821 -35.009 H48.785 Q47.017 -35.009 45.82 -36.198 Q44.624 -37.388 44.624 -39.145 Q44.624 -40.904 45.805 -42.118 Q46.986 -43.332 48.785 -43.332 H56.328 Q56.597 -45.779 57.514 -47.924 Q58.431 -50.069 59.76 -51.925 H39.857 Q38.089 -51.925 36.893 -53.099 Q35.695 -54.272 35.695 -56.046 Q35.695 -57.82 36.877 -59.034 Q38.058 -60.248 39.857 -60.248 H63.949 L60.273 -70.514 Q60.273 -70.514 60.273 -70.514 Q60.273 -70.514 60.273 -70.514 H47.027 Q45.258 -70.514 44.062 -71.703 Q42.865 -72.893 42.865 -74.65 Q42.865 -76.409 44.062 -77.623 Q45.258 -78.837 47.027 -78.837 H59.745 Q62.586 -78.837 65.01 -77.223 Q67.432 -75.607 68.371 -72.819 L72.964 -60.272 H75.903 Q84.302 -60.272 90 -54.484 Q95.699 -48.695 95.699 -40.298 Q95.699 -31.983 89.915 -26.257 Q84.132 -20.531 75.867 -20.531 Z M75.891 -28.83 Q80.838 -28.83 84.118 -32.075 Q87.399 -35.32 87.399 -40.242 Q87.399 -45.069 84.337 -48.375 Q81.276 -51.681 76.288 -51.728 Q76.403 -51.728 76.152 -51.728 Q75.902 -51.728 75.795 -51.629 L78.584 -44.346 Q79.176 -42.797 78.425 -41.293 Q77.674 -39.79 76.055 -39.1 Q74.484 -38.386 72.89 -39.13 Q71.295 -39.873 70.703 -41.491 L68.092 -48.896 Q66.261 -47.121 65.334 -44.965 Q64.406 -42.809 64.406 -40.293 Q64.406 -35.32 67.675 -32.075 Q70.944 -28.83 75.891 -28.83 Z M27.221 9.08 Q22.337 9.08 18.897 6.024 Q15.457 2.967 14.845 -1.631 Q14.845 -1.631 14.845 -1.631 Q14.845 -1.631 14.845 -1.631 H3.407 Q1.302 -1.631 -0.145 -3.104 Q-1.591 -4.577 -1.591 -6.632 Q-1.591 -8.686 -0.128 -10.168 Q1.334 -11.65 3.43 -11.65 H17.93 Q19.619 -13.918 21.979 -14.952 Q24.338 -15.985 27.221 -15.985 Q30.1 -15.985 32.498 -14.816 Q34.895 -13.646 36.629 -11.65 H45.108 Q45.108 -11.65 45.108 -11.65 Q45.108 -11.65 45.108 -11.65 V-19.249 Q45.108 -19.249 45.108 -19.249 Q45.108 -19.249 45.108 -19.249 H3.407 Q1.302 -19.249 -0.145 -20.721 Q-1.591 -22.195 -1.591 -24.249 Q-1.591 -26.337 -0.128 -27.802 Q1.334 -29.267 3.43 -29.267 H6.241 V-40.152 H3.407 Q1.334 -40.152 -0.128 -41.609 Q-1.591 -43.066 -1.591 -45.13 Q-1.591 -47.193 -0.128 -48.671 Q1.334 -50.148 3.407 -50.148 H25.389 Q26.78 -50.148 27.945 -49.365 Q29.11 -48.582 29.838 -47.32 L39.508 -29.267 H45.938 Q49.854 -29.267 52.49 -26.631 Q55.127 -23.995 55.127 -20.078 V-10.82 Q55.127 -6.937 52.49 -4.284 Q49.854 -1.631 45.938 -1.631 H39.596 Q39.596 -1.631 39.596 -1.631 Q39.596 -1.631 39.596 -1.631 Q38.984 3.033 35.521 6.056 Q32.057 9.08 27.221 9.08 Z M16.237 -29.267 H28.084 L22.332 -40.152 H16.237 V-29.267 Z M27.209 0.757 Q28.988 0.757 30.203 -0.446 Q31.419 -1.65 31.419 -3.429 Q31.419 -5.209 30.22 -6.435 Q29.02 -7.662 27.249 -7.662 Q25.477 -7.662 24.25 -6.458 Q23.022 -5.255 23.022 -3.476 Q23.022 -1.697 24.226 -0.47 Q25.429 0.757 27.209 0.757 Z"/></g><g id="Regular-S" transform="matrix(1 0 0 1 1405.73 696)"><path d="M76.111 -20.436 Q69.235 -20.436 63.909 -24.628 Q58.583 -28.819 57.104 -35.033 H48.03 Q46.312 -35.033 45.15 -36.187 Q43.987 -37.341 43.987 -39.047 Q43.987 -40.753 45.15 -41.936 Q46.312 -43.12 48.03 -43.12 H56.611 Q56.907 -45.684 57.844 -47.903 Q58.781 -50.122 60.161 -51.996 H39.056 Q37.337 -51.996 36.175 -53.15 Q35.012 -54.304 35.012 -56.01 Q35.012 -57.716 36.175 -58.9 Q37.337 -60.083 39.056 -60.083 H64.303 L60.556 -70.538 Q60.556 -70.538 60.556 -70.538 Q60.556 -70.538 60.556 -70.538 H46.65 Q44.932 -70.538 43.769 -71.692 Q42.606 -72.846 42.606 -74.552 Q42.606 -76.258 43.769 -77.441 Q44.932 -78.625 46.65 -78.625 H60.358 Q62.963 -78.625 65.226 -77.152 Q67.487 -75.677 68.347 -73.102 L73.105 -60.083 H76.139 Q84.49 -60.083 90.177 -54.291 Q95.864 -48.5 95.864 -40.188 Q95.864 -31.877 90.127 -26.156 Q84.391 -20.436 76.111 -20.436 Z M76.139 -28.523 Q81.168 -28.523 84.472 -31.827 Q87.776 -35.131 87.776 -40.112 Q87.776 -45.092 84.62 -48.446 Q81.464 -51.799 76.336 -51.799 Q76.434 -51.799 76.188 -51.799 Q75.941 -51.799 75.843 -51.7 L78.703 -44.205 Q79.294 -42.725 78.555 -41.246 Q77.815 -39.767 76.268 -39.076 Q74.719 -38.386 73.161 -39.126 Q71.602 -39.865 71.01 -41.443 L68.347 -49.037 Q66.473 -47.262 65.487 -45.024 Q64.501 -42.786 64.501 -40.167 Q64.501 -35.131 67.805 -31.827 Q71.109 -28.523 76.139 -28.523 Z M27.221 9.151 Q22.289 9.151 18.837 6.024 Q15.386 2.896 14.892 -1.796 Q14.892 -1.796 14.892 -1.796 Q14.892 -1.796 14.892 -1.796 H2.959 Q0.957 -1.796 -0.459 -3.205 Q-1.874 -4.615 -1.874 -6.608 Q-1.874 -8.601 -0.459 -10.031 Q0.957 -11.461 2.959 -11.461 H18.048 Q19.725 -13.73 22.043 -14.716 Q24.36 -15.702 27.221 -15.702 Q30.081 -15.702 32.448 -14.568 Q34.815 -13.434 36.535 -11.461 H45.367 Q45.367 -11.461 45.367 -11.461 Q45.367 -11.461 45.367 -11.461 V-19.154 Q45.367 -19.154 45.367 -19.154 Q45.367 -19.154 45.367 -19.154 H2.959 Q0.957 -19.154 -0.459 -20.563 Q-1.874 -21.973 -1.874 -23.966 Q-1.874 -25.959 -0.459 -27.389 Q0.957 -28.819 2.959 -28.819 H6.312 V-39.964 H2.959 Q0.957 -39.964 -0.459 -41.373 Q-1.874 -42.783 -1.874 -44.776 Q-1.874 -46.769 -0.459 -48.199 Q0.957 -49.629 2.959 -49.629 H25.248 Q26.513 -49.629 27.607 -48.89 Q28.7 -48.15 29.39 -46.966 L39.154 -28.819 H46.551 Q50.175 -28.819 52.605 -26.391 Q55.033 -23.962 55.033 -20.338 V-10.278 Q55.033 -6.653 52.605 -4.225 Q50.175 -1.796 46.551 -1.796 H39.549 Q39.549 -1.796 39.549 -1.796 Q39.549 -1.796 39.549 -1.796 Q39.056 2.938 35.604 6.045 Q32.152 9.151 27.221 9.151 Z M15.977 -28.819 H28.108 L22.191 -39.964 H15.977 V-28.819 Z M27.2 1.064 Q29.035 1.064 30.298 -0.178 Q31.56 -1.419 31.56 -3.255 Q31.56 -5.09 30.318 -6.353 Q29.077 -7.615 27.241 -7.615 Q25.406 -7.615 24.143 -6.373 Q22.881 -5.132 22.881 -3.296 Q22.881 -1.461 24.123 -0.198 Q25.364 1.064 27.2 1.064 Z"/></g><g id="Light-S" transform="matrix(1 0 0 1 1109.75 696)"><path d="M74.821 -19.905 Q68.097 -19.981 63.017 -24.077 Q57.938 -28.174 56.648 -34.501 H46.475 Q45.175 -34.501 44.296 -35.373 Q43.418 -36.244 43.418 -37.531 Q43.418 -38.818 44.296 -39.717 Q45.175 -40.616 46.475 -40.616 H56.155 Q56.375 -43.673 57.825 -46.632 Q59.274 -49.591 61.527 -51.541 H37.652 Q36.352 -51.541 35.473 -52.411 Q34.595 -53.283 34.595 -54.57 Q34.595 -55.857 35.473 -56.757 Q36.352 -57.655 37.652 -57.655 H64.455 L59.759 -70.727 Q59.607 -71.107 59.304 -71.316 Q59 -71.524 58.621 -71.524 H46.118 Q44.819 -71.524 43.94 -72.395 Q43.062 -73.266 43.062 -74.554 Q43.062 -75.841 43.94 -76.739 Q44.819 -77.639 46.118 -77.639 H58.423 Q60.779 -77.639 62.849 -76.31 Q64.918 -74.982 65.691 -72.646 L71.17 -57.655 H74.848 Q82.896 -57.655 88.242 -52.167 Q93.587 -46.678 93.587 -38.671 Q93.587 -30.768 88.14 -25.337 Q82.692 -19.905 74.821 -19.905 Z M74.853 -26.019 Q80.296 -26.019 83.885 -29.611 Q87.472 -33.203 87.472 -38.594 Q87.472 -44.068 84.07 -47.706 Q80.667 -51.343 75.046 -51.343 Q74.727 -51.343 74.121 -51.267 Q73.513 -51.192 73.149 -51.018 L76.465 -42.384 Q76.905 -41.322 76.342 -40.218 Q75.78 -39.115 74.636 -38.545 Q73.505 -37.969 72.31 -38.531 Q71.115 -39.094 70.669 -40.268 L67.589 -49.075 Q65.031 -47.262 63.628 -44.493 Q62.224 -41.723 62.224 -38.65 Q62.224 -33.203 65.817 -29.611 Q69.41 -26.019 74.853 -26.019 Z M28.742 8.241 Q24.224 8.241 21.056 5.402 Q17.89 2.562 17.396 -1.72 Q17.396 -2.024 17.434 -2.252 Q17.472 -2.479 17.548 -2.782 H4.477 Q2.894 -2.782 1.761 -3.909 Q0.63 -5.035 0.63 -6.609 Q0.63 -8.184 1.761 -9.329 Q2.894 -10.475 4.477 -10.475 H20.059 Q21.698 -12.857 23.902 -13.748 Q26.105 -14.64 28.745 -14.64 Q31.408 -14.64 33.662 -13.563 Q35.914 -12.485 37.559 -10.475 H45.671 Q46.202 -10.475 46.543 -10.816 Q46.885 -11.158 46.885 -11.689 V-17.94 Q46.885 -18.472 46.543 -18.813 Q46.202 -19.154 45.671 -19.154 H4.477 Q2.894 -19.154 1.761 -20.28 Q0.63 -21.407 0.63 -22.981 Q0.63 -24.556 1.761 -25.701 Q2.894 -26.847 4.477 -26.847 H8.816 V-38.978 H4.477 Q2.894 -38.978 1.761 -40.104 Q0.63 -41.23 0.63 -42.804 Q0.63 -44.379 1.761 -45.524 Q2.894 -46.67 4.477 -46.67 H26.424 Q27.582 -46.67 28.583 -45.97 Q29.584 -45.271 30.225 -44.16 L39.343 -26.847 H46.855 Q50.166 -26.847 52.372 -24.641 Q54.577 -22.435 54.577 -19.124 V-10.506 Q54.577 -7.194 52.372 -4.989 Q50.166 -2.782 46.855 -2.782 H39.928 Q40.004 -2.479 40.042 -2.252 Q40.08 -2.024 40.08 -1.72 Q39.587 2.603 36.424 5.422 Q33.261 8.241 28.742 8.241 Z M16.509 -26.847 H30.612 L24.278 -38.978 H16.509 V-26.847 Z M28.718 2.126 Q30.932 2.126 32.498 0.581 Q34.064 -0.964 34.064 -3.179 Q34.064 -5.394 32.519 -6.959 Q30.973 -8.525 28.759 -8.525 Q26.544 -8.525 24.978 -6.98 Q23.413 -5.435 23.413 -3.22 Q23.413 -1.005 24.957 0.56 Q26.503 2.126 28.718 2.126 Z"/></g><g id="Thin-S" transform="matrix(1 0 0 1 814.015 696)"><path d="M73.531 -19.374 Q66.958 -19.526 62.126 -23.528 Q57.293 -27.529 56.194 -33.971 H44.92 Q44.04 -33.971 43.444 -34.558 Q42.849 -35.146 42.849 -36.015 Q42.849 -36.884 43.444 -37.498 Q44.04 -38.113 44.92 -38.113 H55.7 Q55.844 -41.663 57.806 -45.362 Q59.767 -49.06 62.892 -51.086 H36.249 Q35.368 -51.086 34.773 -51.674 Q34.178 -52.262 34.178 -53.13 Q34.178 -53.999 34.773 -54.614 Q35.368 -55.228 36.249 -55.228 H64.607 L58.963 -70.917 Q58.659 -71.676 58.053 -72.093 Q57.445 -72.51 56.687 -72.51 H45.587 Q44.708 -72.51 44.112 -73.098 Q43.516 -73.686 43.516 -74.555 Q43.516 -75.424 44.112 -76.038 Q44.708 -76.652 45.587 -76.652 H56.489 Q58.595 -76.652 60.472 -75.469 Q62.35 -74.286 63.036 -72.192 L69.236 -55.228 H73.559 Q81.303 -55.228 86.308 -50.043 Q91.312 -44.858 91.312 -37.153 Q91.312 -29.661 86.153 -24.517 Q80.994 -19.374 73.531 -19.374 Z M73.568 -23.516 Q79.424 -23.516 83.297 -27.395 Q87.17 -31.275 87.17 -37.077 Q87.17 -43.044 83.521 -46.966 Q79.871 -50.889 73.757 -50.889 Q73.02 -50.889 72.053 -50.737 Q71.086 -50.585 70.456 -50.334 L74.227 -40.564 Q74.515 -39.919 74.13 -39.191 Q73.744 -38.462 73.005 -38.014 Q72.292 -37.552 71.46 -37.937 Q70.628 -38.323 70.328 -39.091 L66.83 -49.113 Q63.59 -47.262 61.77 -43.962 Q59.949 -40.661 59.949 -37.132 Q59.949 -31.275 63.831 -27.395 Q67.713 -23.516 73.568 -23.516 Z M30.264 7.331 Q26.158 7.331 23.276 4.778 Q20.393 2.227 19.9 -1.644 Q19.9 -2.252 19.976 -2.706 Q20.051 -3.162 20.203 -3.769 H5.993 Q4.83 -3.769 3.981 -4.612 Q3.133 -5.454 3.133 -6.611 Q3.133 -7.767 3.981 -8.628 Q4.83 -9.489 5.993 -9.489 H22.069 Q23.67 -11.985 25.76 -12.781 Q27.85 -13.578 30.269 -13.578 Q32.736 -13.578 34.876 -12.558 Q37.015 -11.537 38.583 -9.489 H45.974 Q47.036 -9.489 47.72 -10.171 Q48.402 -10.855 48.402 -11.917 V-16.726 Q48.402 -17.788 47.72 -18.472 Q47.036 -19.154 45.974 -19.154 H5.993 Q4.83 -19.154 3.981 -19.997 Q3.133 -20.84 3.133 -21.996 Q3.133 -23.152 3.981 -24.013 Q4.83 -24.874 5.993 -24.874 H11.319 V-37.991 H5.993 Q4.83 -37.991 3.981 -38.835 Q3.133 -39.677 3.133 -40.834 Q3.133 -41.99 3.981 -42.851 Q4.83 -43.712 5.993 -43.712 H27.6 Q28.651 -43.712 29.559 -43.052 Q30.466 -42.392 31.059 -41.353 L39.534 -24.874 H47.158 Q50.157 -24.874 52.139 -22.891 Q54.122 -20.909 54.122 -17.909 V-10.734 Q54.122 -7.734 52.139 -5.752 Q50.157 -3.769 47.158 -3.769 H40.307 Q40.459 -3.162 40.535 -2.706 Q40.611 -2.252 40.611 -1.644 Q40.118 2.268 37.244 4.799 Q34.37 7.331 30.264 7.331 Z M17.039 -24.874 H33.115 L26.363 -37.991 H17.039 V-24.874 Z M30.234 3.188 Q32.828 3.188 34.698 1.34 Q36.567 -0.509 36.567 -3.103 Q36.567 -5.697 34.719 -7.567 Q32.87 -9.436 30.276 -9.436 Q27.682 -9.436 25.812 -7.587 Q23.943 -5.738 23.943 -3.144 Q23.943 -0.55 25.791 1.318 Q27.641 3.188 30.234 3.188 Z"/></g><g id="Ultralight-S" transform="matrix(1 0 0 1 517.792 696)"><path d="M72.758 -19.055 Q66.276 -19.253 61.591 -23.198 Q56.907 -27.143 55.92 -33.652 H43.987 Q43.359 -33.652 42.932 -34.07 Q42.507 -34.487 42.507 -35.106 Q42.507 -35.723 42.932 -36.167 Q43.359 -36.611 43.987 -36.611 H55.427 Q55.526 -40.457 57.794 -44.599 Q60.063 -48.742 63.712 -50.813 H35.406 Q34.778 -50.813 34.352 -51.231 Q33.927 -51.648 33.927 -52.266 Q33.927 -52.884 34.352 -53.328 Q34.778 -53.771 35.406 -53.771 H64.698 L58.485 -71.031 Q58.09 -72.017 57.301 -72.56 Q56.512 -73.102 55.526 -73.102 H45.269 Q44.641 -73.102 44.215 -73.52 Q43.79 -73.937 43.79 -74.556 Q43.79 -75.173 44.215 -75.617 Q44.641 -76.061 45.269 -76.061 H55.329 Q57.284 -76.061 59.046 -74.965 Q60.808 -73.868 61.443 -71.918 L68.075 -53.771 H72.785 Q80.348 -53.771 85.147 -48.768 Q89.946 -43.766 89.946 -36.243 Q89.946 -28.996 84.961 -24.026 Q79.974 -19.055 72.758 -19.055 Z M72.797 -22.014 Q78.9 -22.014 82.944 -26.066 Q86.987 -30.118 86.987 -36.167 Q86.987 -42.43 83.19 -46.523 Q79.393 -50.615 72.983 -50.615 Q71.996 -50.615 70.813 -50.418 Q69.629 -50.221 68.84 -49.925 L72.884 -39.471 Q73.081 -39.076 72.802 -38.573 Q72.522 -38.071 72.027 -37.696 Q71.563 -37.301 70.95 -37.58 Q70.336 -37.86 70.122 -38.386 L66.375 -49.136 Q62.726 -47.262 60.654 -43.644 Q58.583 -40.024 58.583 -36.222 Q58.583 -30.118 62.639 -26.066 Q66.694 -22.014 72.797 -22.014 Z M31.177 6.784 Q27.319 6.784 24.607 4.404 Q21.895 2.026 21.402 -1.599 Q21.402 -2.388 21.5 -2.98 Q21.599 -3.571 21.796 -4.36 H6.904 Q5.991 -4.36 5.314 -5.033 Q4.635 -5.707 4.635 -6.611 Q4.635 -7.516 5.314 -8.207 Q5.991 -8.897 6.904 -8.897 H23.276 Q24.854 -11.461 26.875 -12.201 Q28.897 -12.941 31.184 -12.941 Q33.532 -12.941 35.604 -11.954 Q37.675 -10.968 39.198 -8.897 H46.157 Q47.537 -8.897 48.425 -9.785 Q49.312 -10.672 49.312 -12.053 V-15.998 Q49.312 -17.379 48.425 -18.266 Q47.537 -19.154 46.157 -19.154 H6.904 Q5.991 -19.154 5.314 -19.827 Q4.635 -20.5 4.635 -21.405 Q4.635 -22.31 5.314 -23 Q5.991 -23.691 6.904 -23.691 H12.821 V-37.4 H6.904 Q5.991 -37.4 5.314 -38.072 Q4.635 -38.746 4.635 -39.65 Q4.635 -40.556 5.314 -41.246 Q5.991 -41.936 6.904 -41.936 H28.305 Q29.292 -41.936 30.145 -41.3 Q30.997 -40.665 31.56 -39.668 L39.647 -23.691 H47.34 Q50.151 -23.691 52 -21.842 Q53.849 -19.992 53.849 -17.182 V-10.87 Q53.849 -8.059 52 -6.21 Q50.151 -4.36 47.34 -4.36 H40.535 Q40.732 -3.571 40.831 -2.98 Q40.929 -2.388 40.929 -1.599 Q40.436 2.067 37.736 4.425 Q35.036 6.784 31.177 6.784 Z M17.358 -23.691 H34.617 L27.615 -37.4 H17.358 V-23.691 Z M31.145 3.826 Q33.966 3.826 36.018 1.795 Q38.069 -0.236 38.069 -3.058 Q38.069 -5.879 36.039 -7.931 Q34.008 -9.982 31.186 -9.982 Q28.365 -9.982 26.313 -7.951 Q24.262 -5.921 24.262 -3.099 Q24.262 -0.277 26.292 1.774 Q28.323 3.826 31.145 3.826 Z"/></g></g></svg>