<svg xmlns="http://www.w3.org/2000/svg" height="24" width="24"><path d="m11.825 17 2.35-2.325q.45-.45.45-1.1 0-.65-.45-1.1l-2.35-2.325q-.35-.35-.825-.35t-.825.35q-.35.35-.35.825t.35.825l1.75 1.775-1.75 1.775q-.35.35-.35.825t.35.825q.35.35.825.35t.825-.35ZM4.3 21.925q-1.325 0-2.238-.912-.912-.913-.912-2.238v-10.4q0-1.325.912-2.238.913-.912 2.238-.912h2.925v-1.6q0-1.325.913-2.238.912-.912 2.237-.912h3.25q1.325 0 2.238.912.912.913.912 2.238v1.6H19.7q1.325 0 2.238.912.912.913.912 2.238v10.4q0 1.325-.912 2.238-.913.912-2.238.912Zm6.075-16.7h3.25v-1.6h-3.25Z"/></svg>