<svg xmlns="http://www.w3.org/2000/svg" height="40" viewBox="0 -960 960 960" width="40"><path d="M790.33-267q-27.41 0-43.04-22.91-15.62-22.92-3.62-48.76l5.66-14.81q17-45.19 11.5-87.02t-28.16-74.83q-22.67-33-60.93-47.5Q633.49-577.33 588-588l-60.33-36q3-24.33-1.84-46.5Q521-692.67 507-713.33 500-726 500.83-740q.84-14 10.84-24l119-119.33q10-10 24.83-10 14.83 0 24.83 10l3.34 3.33q17.37 17.63 25.35 41.41Q717-814.8 713-791l-13 95.67h148.67q43.36 0 74.01 30.65 30.65 30.65 30.65 74.01v14q0 5.89-1.16 11.28Q951-560 948.67-555L838.6-297.86Q833-283 819.5-275q-13.5 8-29.17 8Zm-577 175q-22 0-37.16-15.17Q161-122.33 161-144.33V-448q0-20.67 7.83-39.84 7.84-19.16 22.5-34.49l186.34-187q10-10.67 25.5-9.34 15.5 1.34 26.83 12.67 17.51 17.48 25.42 41.07 7.91 23.6 4.58 47.93l-13 95.67h141q29.33 0 52.33 14t36.34 36.66Q690-448 692.33-419.94q2.34 28.05-9.66 56.27l-90.34 208.34q-12.33 29.66-38.62 46.5Q527.42-92 495.67-92H213.33ZM50.87-92q-18.54 0-31.37-12.43-12.83-12.42-12.83-30.9V-478q0-18.48 12.96-30.91 12.96-12.42 31.5-12.42T82-508.91Q94.33-496.48 94.33-478v342.67q0 18.48-12.46 30.9Q69.41-92 50.87-92Z"/></svg>