<svg xmlns="http://www.w3.org/2000/svg" height="48" viewBox="0 -960 960 960" width="48"><path d="M125-253.5v-452.9q0-20.43 14.15-34.52Q153.31-755 173.53-755q20.22 0 34.35 14.15Q222-726.71 222-706.5v452.9q0 20.43-14.15 34.52Q193.69-205 173.47-205q-20.22 0-34.34-14.15Q125-233.29 125-253.5ZM331-205q-20.21 0-34.35-14.15-14.15-14.14-14.15-34.35v-452.9q0-20.43 14.15-34.52Q310.79-755 331-755h298q20.21 0 34.35 14.15 14.15 14.14 14.15 34.35v452.9q0 20.43-14.15 34.52Q649.21-205 629-205H331Zm407-48.5v-452.9q0-20.43 14.15-34.52Q766.31-755 786.53-755q20.22 0 34.35 14.15Q835-726.71 835-706.5v452.9q0 20.43-14.15 34.52Q806.69-205 786.47-205q-20.22 0-34.34-14.15Q738-233.29 738-253.5Z"/></svg>