<svg xmlns="http://www.w3.org/2000/svg" height="24" viewBox="0 96 960 960" width="24"><path d="M716.087 476.87 497.696 259.044v94.868q0 52.348 35.587 87.653 35.587 35.305 87.37 35.305h95.434Zm-.435 461.131-40.782 41.347q-17.827 17.261-42.718 16.979-24.892-.283-43.153-18.544-18.391-17.261-18.391-42.653 0-25.391 18.391-43.217l40.217-40.783-40.782-41.347q-18.391-17.826-18.109-42.935.283-25.109 18.674-42.935 17.827-18.392 42.935-18.392 25.109 0 43.501 18.392l40.217 40.782 41.347-40.782q17.261-17.826 42.435-18.044 25.175-.217 44.001 18.609 17.261 17.261 17.261 42.652 0 25.392-17.261 42.653l-40.913 41.347 41.348 41.348q17.826 17.261 17.543 42.152-.283 24.892-18.543 43.153-17.827 17.826-43.218 18.109-25.392.282-42.653-17.544l-41.347-40.347Zm-471.739 77.909q-50.783 0-86.87-35.801-36.087-35.805-36.087-87.153V259.044q0-51.348 36.087-87.153 36.087-35.804 86.87-35.804h265.174q24.392 0 47.001 9.13 22.608 9.131 39.869 26.957l206.434 205.434q17.827 17.826 27.24 40.435 9.413 22.609 9.413 47v155.392q-27.392-14.392-58.848-22.587-31.457-8.196-65.544-8.196-108.392 0-184.435 76.043-76.044 76.044-76.044 184.435 0 44.827 15.065 88.175 15.066 43.347 44.327 77.605H243.913Z"/></svg>