<svg xmlns="http://www.w3.org/2000/svg" version="1.1" width="3300" height="2000"><g id="Notes"><style>
    text {
      font-family: monospace;
      text-anchor: middle;
    }
    text.emphasis {
      font-weight:bold;
    }
    text.lanchor {
      text-anchor: start;
    }
  </style><rect height="2200" id="artboard" fill="white" width="3300" x="0" y="0"/><line id="" style="fill:none;stroke:black;stroke-width:0.5;" x1="263" x2="3036" y1="292" y2="292"/><text class="lanchor emphasis" transform="matrix(1 0 0 1 263 322)">Weight/Scale Variations</text><text transform="matrix(1 0 0 1 559.711 322)">Ultralight</text><text transform="matrix(1 0 0 1 856.422 322)">Thin</text><text transform="matrix(1 0 0 1 1153.13 322)">Light</text><text transform="matrix(1 0 0 1 1449.84 322)">Regular</text><text transform="matrix(1 0 0 1 1746.56 322)">Medium</text><text transform="matrix(1 0 0 1 2043.27 322)">Semibold</text><text transform="matrix(1 0 0 1 2339.98 322)">Bold</text><text transform="matrix(1 0 0 1 2636.69 322)">Heavy</text><text transform="matrix(1 0 0 1 2933.4 322)">Black</text><text id="template-version" style="text-anchor: end;" transform="matrix(1 0 0 1 3036 1933)">Template v.1.0</text><text class="lanchor" transform="matrix(1 0 0 1 263 726)">Small</text><text class="lanchor" transform="matrix(1 0 0 1 263 1156)">Medium</text><text class="lanchor" transform="matrix(1 0 0 1 263 1586)">Large</text></g><g id="Guides"><g id="H-reference" style="fill:#27AAE1;stroke:none;" transform="matrix(1 0 0 1 339 696)"><path d="M 54.9316 0 L 57.666 0 L 30.5664 -70.459 L 28.0762 -70.459 L 0.976562 0 L 3.66211 0 L 12.9395 -24.4629 L 45.7031 -24.4629 Z M 29.1992 -67.0898 L 29.4434 -67.0898 L 44.8242 -26.709 L 13.8184 -26.709 Z"/></g><line id="Baseline-S" style="fill:none;stroke:#27AAE1;opacity:1;stroke-width:0.577;" x1="263" x2="3036" y1="696" y2="696"/><line id="Capline-S" style="fill:none;stroke:#27AAE1;opacity:1;stroke-width:0.577;" x1="263" x2="3036" y1="625.541" y2="625.541"/><g id="H-reference" style="fill:#27AAE1;stroke:none;" transform="matrix(1 0 0 1 339 1126)"><path d="M 54.9316 0 L 57.666 0 L 30.5664 -70.459 L 28.0762 -70.459 L 0.976562 0 L 3.66211 0 L 12.9395 -24.4629 L 45.7031 -24.4629 Z M 29.1992 -67.0898 L 29.4434 -67.0898 L 44.8242 -26.709 L 13.8184 -26.709 Z"/></g><line id="Baseline-M" style="fill:none;stroke:#27AAE1;opacity:1;stroke-width:0.577;" x1="263" x2="3036" y1="1126" y2="1126"/><line id="Capline-M" style="fill:none;stroke:#27AAE1;opacity:1;stroke-width:0.577;" x1="263" x2="3036" y1="1055.54" y2="1055.54"/><g id="H-reference" style="fill:#27AAE1;stroke:none;" transform="matrix(1 0 0 1 339 1556)"><path d="M 54.9316 0 L 57.666 0 L 30.5664 -70.459 L 28.0762 -70.459 L 0.976562 0 L 3.66211 0 L 12.9395 -24.4629 L 45.7031 -24.4629 Z M 29.1992 -67.0898 L 29.4434 -67.0898 L 44.8242 -26.709 L 13.8184 -26.709 Z"/></g><line id="Baseline-L" style="fill:none;stroke:#27AAE1;opacity:1;stroke-width:0.577;" x1="263" x2="3036" y1="1556" y2="1556"/><line id="Capline-L" style="fill:none;stroke:#27AAE1;opacity:1;stroke-width:0.577;" x1="263" x2="3036" y1="1485.54" y2="1485.54"/><rect height="119.336" id="left-margin" style="fill:darkred;stroke:none;opacity:0.4;" width="12.4512" x="1394.06" y="1030.79"/><rect height="119.336" id="right-margin" style="fill:darkgreen;stroke:none;opacity:0.4;" width="12.4512" x="1502.5112" y="1030.79"/><rect x="1406.5112" y="1045" width="96" height="96" fill="none" stroke="blue" stroke-dasharray="5"/><rect x="1394.06" y="1030.79" width="120.9024" height="119.336" fill="none" stroke="blue"/></g><g id="Symbols"><g id="Bold-L" transform="matrix(1 0 0 1 2266 1556)"><path d="M41.441 -9.269 Q45.203 -9.269 47.757 -11.889 Q50.31 -14.509 50.31 -17.976 Q50.31 -21.738 47.769 -24.373 Q45.226 -27.006 41.48 -27.006 Q37.571 -27.006 35.153 -24.384 Q32.734 -21.761 32.734 -18.015 Q32.734 -14.429 35.193 -11.849 Q37.652 -9.269 41.441 -9.269 Z M102.877 -9.269 Q106.801 -9.269 109.355 -11.889 Q111.907 -14.509 111.907 -17.976 Q111.907 -21.738 109.366 -24.373 Q106.823 -27.006 102.916 -27.006 Q99.169 -27.006 96.75 -24.384 Q94.331 -21.761 94.331 -18.015 Q94.331 -14.429 96.79 -11.849 Q99.249 -9.269 102.877 -9.269 Z M19.189 26.529 Q15.359 26.529 12.84 24.089 Q10.32 21.651 10.32 17.821 V-36.083 L23.725 -75.059 Q24.994 -79.09 28.554 -81.67 Q32.115 -84.25 36.48 -84.25 H97.879 V-69.254 H37.571 L29.348 -43.776 H97.879 V-34.262 H25.316 V-1.851 H119.002 V-34.262 H134.16 V17.821 Q134.16 21.651 131.446 24.089 Q128.734 26.529 125.13 26.529 H125.936 Q122.039 26.529 119.552 24.233 Q117.068 21.938 117.068 18.144 V12.984 H27.251 V18.144 Q27.251 21.938 24.733 24.233 Q22.212 26.529 18.544 26.529 H19.189 Z M124.001 -43.454 V-69.254 L109.005 -54.257 L104.974 -58.289 L123.034 -76.187 L104.974 -94.247 L109.005 -98.279 L124.001 -83.121 V-108.921 H125.936 L144.964 -89.665 L131.096 -76.187 L144.964 -62.551 L125.964 -43.454 H124.001 Z M130.613 -85.056  135.773 -89.732  130.613 -94.731 V-85.056 Z M130.613 -57.482  135.773 -62.481  130.613 -67.319 V-57.482 Z"/></g><g id="Semibold-L" transform="matrix(1 0 0 1 1970.27 1556)"><path d="M40.74 -8.779 Q44.573 -8.779 47.196 -11.433 Q49.82 -14.089 49.82 -17.626 Q49.82 -21.458 47.208 -24.128 Q44.595 -26.797 40.779 -26.797 Q36.87 -26.797 34.382 -24.138 Q31.892 -21.48 31.892 -17.663 Q31.892 -14.008 34.422 -11.392 Q36.95 -8.779 40.74 -8.779 Z M103.087 -8.779 Q107.012 -8.779 109.635 -11.433 Q112.257 -14.089 112.257 -17.626 Q112.257 -21.458 109.645 -24.128 Q107.033 -26.797 103.126 -26.797 Q99.309 -26.797 96.819 -24.138 Q94.331 -21.48 94.331 -17.663 Q94.331 -14.008 96.86 -11.392 Q99.39 -8.779 103.087 -8.779 Z M18.487 25.406 Q15.359 25.406 13.295 23.389 Q11.231 21.37 11.231 18.242 V-35.781 L24.637 -74.918 Q25.765 -78.529 28.94 -80.794 Q32.115 -83.058 35.989 -83.058 H97.809 V-70.025 H36.66 L28.296 -44.266 H97.809 V-34.332 H24.265 V-1.08 H119.633 V-34.332 H132.757 V18.242 Q132.757 21.37 130.55 23.389 Q128.342 25.406 125.411 25.406 H124.254 Q121.057 25.406 118.991 23.47 Q116.927 21.532 116.927 18.424 V11.861 H26.971 V18.424 Q26.971 21.532 24.871 23.47 Q22.773 25.406 19.806 25.406 H18.487 Z M123.23 -42.683 V-68.764 L108.023 -53.487 L104.132 -57.378 L122.263 -75.417 L104.132 -93.546 L108.023 -97.508 L123.23 -82.139 V-108.22 H125.025 L143.982 -88.994 L130.045 -75.417 L143.982 -61.609 L125.04 -42.683 H123.23 Z M129.701 -84.074  135.071 -89.031  129.701 -94.31 V-84.074 Z M129.701 -56.291  135.071 -61.57  129.701 -66.829 V-56.291 Z"/></g><g id="Medium-L" transform="matrix(1 0 0 1 1674.31 1556)"><path d="M40.214 -8.409 Q44.1 -8.409 46.775 -11.091 Q49.451 -13.772 49.451 -17.363 Q49.451 -21.248 46.787 -23.942 Q44.121 -26.639 40.253 -26.639 Q36.344 -26.639 33.803 -23.954 Q31.262 -21.271 31.262 -17.401 Q31.262 -13.692 33.843 -11.051 Q36.425 -8.409 40.214 -8.409 Z M103.245 -8.409 Q107.17 -8.409 109.845 -11.091 Q112.52 -13.772 112.52 -17.363 Q112.52 -21.248 109.856 -23.942 Q107.191 -26.639 103.284 -26.639 Q99.414 -26.639 96.873 -23.954 Q94.331 -21.271 94.331 -17.401 Q94.331 -13.692 96.913 -11.051 Q99.494 -8.409 103.245 -8.409 Z M17.962 24.566 Q15.359 24.566 13.637 22.864 Q11.915 21.161 11.915 18.558 V-35.556 L25.319 -74.814 Q26.343 -78.108 29.228 -80.137 Q32.113 -82.165 35.622 -82.165 H97.756 V-70.603 H35.976 L27.508 -44.636 H97.756 V-34.385 H23.476 V-0.502 H120.107 V-34.385 H131.706 V18.558 Q131.706 21.161 129.877 22.864 Q128.047 24.566 125.62 24.566 H122.992 Q120.32 24.566 118.572 22.897 Q116.822 21.228 116.822 18.634 V11.021 H26.761 V18.634 Q26.761 21.228 24.978 22.897 Q23.194 24.566 20.753 24.566 H17.962 Z M122.652 -42.104 V-68.394 L107.288 -52.908 L103.502 -56.694 L121.684 -74.838 L103.502 -93.02 L107.288 -96.929 L122.652 -81.404 V-107.694 H124.341 L143.246 -88.489 L129.256 -74.838 L143.246 -60.903 L124.348 -42.104 H122.652 Z M129.018 -83.339  134.545 -88.505  129.018 -93.994 V-83.339 Z M129.018 -55.398  134.545 -60.886  129.018 -66.459 V-55.398 Z"/></g><g id="Regular-L" transform="matrix(1 0 0 1 1378.56 1556)"><path d="M39.829 -8.14 Q43.752 -8.14 46.467 -10.841 Q49.181 -13.542 49.181 -17.17 Q49.181 -21.093 46.479 -23.809 Q43.775 -26.522 39.867 -26.522 Q35.959 -26.522 33.379 -23.82 Q30.799 -21.116 30.799 -17.209 Q30.799 -13.461 33.419 -10.801 Q36.039 -8.14 39.829 -8.14 Z M103.361 -8.14 Q107.284 -8.14 110 -10.841 Q112.714 -13.542 112.714 -17.17 Q112.714 -21.093 110.011 -23.809 Q107.307 -26.522 103.4 -26.522 Q99.491 -26.522 96.911 -23.82 Q94.331 -21.116 94.331 -17.209 Q94.331 -13.461 96.952 -10.801 Q99.572 -8.14 103.361 -8.14 Z M17.576 23.949 Q15.359 23.949 13.888 22.477 Q12.416 21.006 12.416 18.789 V-35.391 L25.821 -74.736 Q26.768 -77.8 29.439 -79.654 Q32.111 -81.509 35.351 -81.509 H97.718 V-71.027 H35.475 L26.929 -44.905 H97.718 V-34.424 H22.898 V-0.077 H120.454 V-34.424 H130.935 V18.789 Q130.935 21.006 129.384 22.477 Q127.831 23.949 125.775 23.949 H122.066 Q119.781 23.949 118.262 22.477 Q116.745 21.006 116.745 18.789 V10.404 H26.606 V18.789 Q26.606 21.006 25.055 22.477 Q23.502 23.949 21.446 23.949 H17.576 Z M122.228 -41.68 V-68.125 L106.748 -52.484 L103.039 -56.192 L121.26 -74.414 L103.039 -92.635 L106.748 -96.505 L122.228 -80.864 V-107.309 H123.84 L142.706 -88.12 L128.678 -74.414 L142.706 -60.385 L123.84 -41.68 H122.228 Z M128.516 -82.799  134.16 -88.12  128.516 -93.764 V-82.799 Z M128.516 -54.741  134.16 -60.385  128.516 -66.19 V-54.741 Z"/></g><g id="Light-L" transform="matrix(1 0 0 1 1082.77 1556)"><path d="M38.758 -9.38 Q42.264 -9.38 44.637 -11.816 Q47.011 -14.253 47.011 -17.463 Q47.011 -20.969 44.634 -23.343 Q42.257 -25.716 38.766 -25.716 Q35.277 -25.716 32.976 -23.339 Q30.675 -20.963 30.675 -17.473 Q30.675 -14.143 33.03 -11.762 Q35.386 -9.38 38.758 -9.38 Z M101.463 -9.38 Q104.95 -9.38 107.343 -11.816 Q109.737 -14.253 109.737 -17.463 Q109.737 -20.969 107.339 -23.343 Q104.943 -25.716 101.473 -25.716 Q98.003 -25.716 95.702 -23.339 Q93.401 -20.963 93.401 -17.473 Q93.401 -14.143 95.757 -11.762 Q98.113 -9.38 101.463 -9.38 Z M18.073 20.724 Q16.356 20.724 15.224 19.59 Q14.092 18.458 14.092 16.742 V-34.895 L27.24 -73.124 Q27.946 -75.505 30.038 -76.894 Q32.127 -78.284 34.654 -78.284 H96.166 V-70.158 H34.73 L25.44 -42.299 H96.166 V-34.175 H22.215 V-0.76 H118.035 V-34.175 H126.159 V16.742 Q126.159 18.458 124.946 19.59 Q123.732 20.724 122.178 20.724 H120.081 Q118.296 20.724 117.117 19.59 Q115.939 18.458 115.939 16.742 V7.364 H24.312 V16.742 Q24.312 18.458 23.097 19.59 Q21.885 20.724 20.33 20.724 H18.073 Z M120.863 -42.052 V-68.497 L105.196 -52.669 L101.675 -56.192 L119.896 -74.414 L101.675 -92.635 L105.196 -96.32 L120.863 -80.491 V-106.936 H122.476 L140.97 -88.244 L126.941 -74.414 L140.97 -60.385 L122.476 -42.052 H120.863 Z M126.594 -81.93  133.105 -88.244  126.594 -94.755 V-81.93 Z M126.594 -53.872  133.105 -60.385  126.594 -67.059 V-53.872 Z"/></g><g id="Thin-L" transform="matrix(1 0 0 1 787.282 1556)"><path d="M37.687 -10.62 Q40.775 -10.62 42.807 -12.792 Q44.84 -14.964 44.84 -17.757 Q44.84 -20.845 42.789 -22.878 Q40.74 -24.91 37.666 -24.91 Q34.595 -24.91 32.572 -22.861 Q30.55 -20.809 30.55 -17.738 Q30.55 -14.825 32.642 -12.723 Q34.733 -10.62 37.687 -10.62 Z M99.567 -10.62 Q102.615 -10.62 104.688 -12.792 Q106.76 -14.964 106.76 -17.757 Q106.76 -20.845 104.669 -22.878 Q102.579 -24.91 99.546 -24.91 Q96.515 -24.91 94.493 -22.861 Q92.47 -20.809 92.47 -17.738 Q92.47 -14.825 94.562 -12.723 Q96.653 -10.62 99.567 -10.62 Z M18.568 17.499 Q17.354 17.499 16.559 16.705 Q15.765 15.91 15.765 14.696 V-34.4 L28.657 -71.511 Q29.125 -73.211 30.634 -74.135 Q32.144 -75.059 33.958 -75.059 H94.617 V-69.291 H33.987 L23.952 -39.695 H94.617 V-33.927 H21.533 V-1.442 H115.616 V-33.927 H121.384 V14.696 Q121.384 15.91 120.51 16.705 Q119.635 17.499 118.58 17.499 H118.096 Q116.813 17.499 115.973 16.705 Q115.133 15.91 115.133 14.696 V4.326 H22.017 V14.696 Q22.017 15.91 21.143 16.705 Q20.268 17.499 19.213 17.499 H18.568 Z M119.499 -42.425 V-68.87 L103.647 -52.856 L100.31 -56.192 L118.532 -74.414 L100.31 -92.635 L103.647 -96.133 L119.499 -80.119 V-106.564 H121.112 L139.233 -88.368 L125.204 -74.414 L139.233 -60.385 L121.112 -42.425 H119.499 Z M124.67 -81.062  132.051 -88.368  124.67 -95.749 V-81.062 Z M124.67 -53.005  132.051 -60.385  124.67 -67.927 V-53.005 Z"/></g><g id="Ultralight-L" transform="matrix(1 0 0 1 491.205 1556)"><path d="M37.046 -11.365 Q39.882 -11.365 41.711 -13.379 Q43.538 -15.391 43.538 -17.934 Q43.538 -20.771 41.683 -22.599 Q39.829 -24.426 37.007 -24.426 Q34.185 -24.426 32.331 -22.572 Q30.476 -20.717 30.476 -17.896 Q30.476 -15.235 32.41 -13.3 Q34.341 -11.365 37.046 -11.365 Z M98.429 -11.365 Q101.215 -11.365 103.094 -13.379 Q104.974 -15.391 104.974 -17.934 Q104.974 -20.771 103.068 -22.599 Q101.16 -24.426 98.392 -24.426 Q95.621 -24.426 93.767 -22.572 Q91.913 -20.717 91.913 -17.896 Q91.913 -15.235 93.846 -13.3 Q95.778 -11.365 98.429 -11.365 Z M18.866 15.564 Q17.952 15.564 17.36 14.974 Q16.77 14.383 16.77 13.468 V-34.101 L29.509 -70.544 Q29.831 -71.834 30.992 -72.479 Q32.153 -73.124 33.54 -73.124 H93.686 V-68.77 H33.54 L23.059 -38.132 H93.686 V-33.779 H21.124 V-1.851 H114.165 V-33.779 H118.519 V13.468 Q118.519 14.383 117.848 14.974 Q117.176 15.564 116.422 15.564 H116.906 Q115.923 15.564 115.286 14.974 Q114.649 14.383 114.649 13.468 V2.503 H20.64 V13.468 Q20.64 14.383 19.969 14.974 Q19.297 15.564 18.544 15.564 H18.866 Z M118.68 -42.647 V-69.092 L102.716 -52.967 L99.491 -56.192 L117.713 -74.414 L99.491 -92.635 L102.716 -96.021 L118.68 -79.896 V-106.341 H120.293 L138.191 -88.442 L124.163 -74.414 L138.191 -60.385 L120.293 -42.647 H118.68 Z M123.517 -80.541  131.419 -88.442  123.517 -96.344 V-80.541 Z M123.517 -52.484  131.419 -60.385  123.517 -68.447 V-52.484 Z"/></g><g id="Bold-M" transform="matrix(1 0 0 1 2281.8 1126)"><path d="M33.625 -15.73 Q36.75 -15.73 39 -18.042 Q41.25 -20.355 41.25 -23.48 Q41.25 -26.605 39 -28.917 Q36.75 -31.23 33.625 -31.23 Q30.375 -31.23 28.125 -28.917 Q25.875 -26.605 25.875 -23.48 Q25.875 -20.355 28.125 -18.042 Q30.375 -15.73 33.625 -15.73 Z M77.375 -15.73 Q80.625 -15.73 82.875 -18.042 Q85.125 -20.355 85.125 -23.48 Q85.125 -26.605 82.875 -28.917 Q80.625 -31.23 77.375 -31.23 Q74.25 -31.23 72 -28.917 Q69.75 -26.605 69.75 -23.48 Q69.75 -20.355 72 -18.042 Q74.25 -15.73 77.375 -15.73 Z M15 14.645 Q11.125 14.645 8.312 11.895 Q5.5 9.145 5.5 5.27 V-36.141 L16.375 -67.105 Q17.625 -70.73 20.71 -72.917 Q23.795 -75.105 27.625 -75.105 H75.625 V-58.98 H30.625 L26.25 -45.855 H75.625 V-35.355 H21.75 V-11.48 H89.25 V-35.355 H105.5 V5.27 Q105.5 9.145 102.688 11.895 Q99.875 14.645 96 14.645 H94.5 Q90.625 14.645 87.875 12.094 Q85.125 9.543 85.125 5.645 V4.645 H25.875 V5.645 Q25.875 9.543 23.125 12.094 Q20.375 14.645 16.5 14.645 H15 Z M95.875 -42.105 V-60.355 L85.125 -49.48 L80.625 -53.98 L94.75 -67.98 L80.625 -82.105 L85.125 -86.605 L95.875 -75.73 V-93.98 H99.25 L114.5 -78.605 L103.625 -67.98 L114.5 -57.23 L99.25 -42.105 H95.875 Z M102.375 -75.73  105.625 -78.605  102.375 -81.73 V-75.73 Z M102.375 -54.105  105.625 -57.23  102.375 -60.355 V-54.105 Z"/></g><g id="Semibold-M" transform="matrix(1 0 0 1 1985.97 1126)"><path d="M32.972 -15.295 Q36.153 -15.295 38.456 -17.635 Q40.761 -19.975 40.761 -23.154 Q40.761 -26.334 38.456 -28.672 Q36.153 -31.012 32.972 -31.012 Q29.723 -31.012 27.419 -28.672 Q25.114 -26.334 25.114 -23.154 Q25.114 -19.975 27.419 -17.635 Q29.723 -15.295 32.972 -15.295 Z M77.593 -15.295 Q80.843 -15.295 83.146 -17.635 Q85.451 -19.975 85.451 -23.154 Q85.451 -26.334 83.146 -28.672 Q80.843 -31.012 77.593 -31.012 Q74.412 -31.012 72.109 -28.672 Q69.804 -26.334 69.804 -23.154 Q69.804 -19.975 72.109 -17.635 Q74.412 -15.295 77.593 -15.295 Z M14.402 13.286 Q11.234 13.286 8.938 11.025 Q6.641 8.765 6.641 5.596 V-35.854 L17.462 -66.834 Q18.549 -69.969 21.216 -71.857 Q23.884 -73.746 27.19 -73.746 H75.516 V-59.741 H29.755 L25.218 -46.235 H75.516 V-35.409 H20.718 V-10.719 H89.847 V-35.409 H103.924 V5.596 Q103.924 8.765 101.627 11.025 Q99.331 13.286 96.162 13.286 H92.706 Q89.537 13.286 87.278 11.138 Q85.016 8.989 85.016 5.808 V3.286 H25.549 V5.808 Q25.549 8.989 23.288 11.138 Q21.027 13.286 17.859 13.286 H14.402 Z M95.005 -41.29 V-59.866 L84.037 -48.719 L79.755 -53.001 L93.935 -67.11 L79.755 -81.29 L84.037 -85.681 L95.005 -74.535 V-93.11 H98.218 L113.359 -77.79 L102.43 -67.11 L113.359 -56.251 L98.218 -41.29 H95.005 Z M101.287 -74.535  104.864 -77.79  101.287 -81.295 V-74.535 Z M101.287 -52.746  104.864 -56.251  101.287 -59.866 V-52.746 Z"/></g><g id="Medium-M" transform="matrix(1 0 0 1 1689.91 1126)"><path d="M32.484 -14.969 Q35.704 -14.969 38.049 -17.329 Q40.394 -19.689 40.394 -22.909 Q40.394 -26.13 38.049 -28.49 Q35.704 -30.85 32.484 -30.85 Q29.234 -30.85 26.889 -28.49 Q24.544 -26.13 24.544 -22.909 Q24.544 -19.689 26.889 -17.329 Q29.234 -14.969 32.484 -14.969 Z M77.755 -14.969 Q81.005 -14.969 83.35 -17.329 Q85.696 -19.689 85.696 -22.909 Q85.696 -26.13 83.35 -28.49 Q81.005 -30.85 77.755 -30.85 Q74.535 -30.85 72.19 -28.49 Q69.845 -26.13 69.845 -22.909 Q69.845 -19.689 72.19 -17.329 Q74.535 -14.969 77.755 -14.969 Z M13.954 12.268 Q11.315 12.268 9.406 10.374 Q7.497 8.479 7.497 5.841 V-35.637 L18.277 -66.63 Q19.241 -69.399 21.596 -71.062 Q23.951 -72.727 26.864 -72.727 H75.435 V-60.311 H29.104 L24.442 -46.521 H75.435 V-35.45 H19.942 V-10.149 H90.296 V-35.45 H102.741 V5.841 Q102.741 8.479 100.832 10.374 Q98.924 12.268 96.285 12.268 H91.361 Q88.722 12.268 86.829 10.421 Q84.935 8.574 84.935 5.93 V2.268 H25.304 V5.93 Q25.304 8.574 23.41 10.421 Q21.516 12.268 18.878 12.268 H13.954 Z M94.354 -40.679 V-59.499 L83.222 -48.149 L79.104 -52.267 L93.324 -66.459 L79.104 -80.679 L83.222 -84.989 L94.354 -73.637 V-92.459 H97.442 L112.502 -77.179 L101.532 -66.459 L112.502 -55.517 L97.442 -40.679 H94.354 Z M100.472 -73.637  104.294 -77.179  100.472 -80.969 V-73.637 Z M100.472 -51.727  104.294 -55.517  100.472 -59.499 V-51.727 Z"/></g><g id="Regular-M" transform="matrix(1 0 0 1 1394.06 1126)"><path d="M32.125 -14.73 Q35.375 -14.73 37.75 -17.105 Q40.125 -19.48 40.125 -22.73 Q40.125 -25.98 37.75 -28.355 Q35.375 -30.73 32.125 -30.73 Q28.875 -30.73 26.5 -28.355 Q24.125 -25.98 24.125 -22.73 Q24.125 -19.48 26.5 -17.105 Q28.875 -14.73 32.125 -14.73 Z M77.875 -14.73 Q81.125 -14.73 83.5 -17.105 Q85.875 -19.48 85.875 -22.73 Q85.875 -25.98 83.5 -28.355 Q81.125 -30.73 77.875 -30.73 Q74.625 -30.73 72.25 -28.355 Q69.875 -25.98 69.875 -22.73 Q69.875 -19.48 72.25 -17.105 Q74.625 -14.73 77.875 -14.73 Z M13.625 11.52 Q11.375 11.52 9.75 9.895 Q8.125 8.27 8.125 6.02 V-35.48 L18.875 -66.48 Q19.75 -68.98 21.875 -70.48 Q24 -71.98 26.625 -71.98 H75.375 V-60.73 H28.625 L23.875 -46.73 H75.375 V-35.48 H19.375 V-9.73 H90.625 V-35.48 H101.875 V6.02 Q101.875 8.27 100.25 9.895 Q98.625 11.52 96.375 11.52 H90.375 Q88.125 11.52 86.5 9.895 Q84.875 8.27 84.875 6.02 V1.52 H25.125 V6.02 Q25.125 8.27 23.5 9.895 Q21.875 11.52 19.625 11.52 H13.625 Z M93.875 -40.23 V-59.23 L82.625 -47.73 L78.625 -51.73 L92.875 -65.98 L78.625 -80.23 L82.625 -84.48 L93.875 -72.98 V-91.98 H96.875 L111.875 -76.73 L100.875 -65.98 L111.875 -54.98 L96.875 -40.23 H93.875 Z M99.875 -72.98  103.875 -76.73  99.875 -80.73 V-72.98 Z M99.875 -50.98  103.875 -54.98  99.875 -59.23 V-50.98 Z"/></g><g id="Light-M" transform="matrix(1 0 0 1 1098.18 1126)"><path d="M30.886 -15.499 Q33.74 -15.499 35.826 -17.597 Q37.914 -19.695 37.914 -22.549 Q37.914 -25.402 35.815 -27.49 Q33.718 -29.576 30.864 -29.576 Q28.01 -29.576 25.922 -27.479 Q23.836 -25.38 23.836 -22.526 Q23.836 -19.672 25.934 -17.586 Q28.032 -15.499 30.886 -15.499 Z M77.021 -15.499 Q79.875 -15.499 81.961 -17.597 Q84.047 -19.695 84.047 -22.549 Q84.047 -25.402 81.95 -27.49 Q79.853 -29.576 76.999 -29.576 Q74.144 -29.576 72.058 -27.479 Q69.971 -25.38 69.971 -22.526 Q69.971 -19.672 72.069 -17.586 Q74.166 -15.499 77.021 -15.499 Z M13.818 9.02 Q12.099 9.02 10.832 7.754 Q9.568 6.489 9.568 4.77 V-35.095 L20.029 -65.23 Q20.711 -67.201 22.39 -68.34 Q24.067 -69.48 26.144 -69.48 H74.317 V-60.73 H27.664 L21.855 -43.845 H74.317 V-35.095 H18.317 V-9.73 H89.567 V-35.095 H98.317 V4.77 Q98.317 6.489 97.051 7.754 Q95.786 9.02 94.067 9.02 H89.99 Q88.271 9.02 87.006 7.754 Q85.74 6.489 85.74 4.77 V-0.98 H22.144 V4.77 Q22.144 6.489 20.879 7.754 Q19.613 9.02 17.894 9.02 H13.818 Z M93.106 -40.519 V-59.904 L81.567 -48.115 L77.951 -51.73 L92.201 -65.98 L77.951 -80.23 L81.567 -84.095 L93.106 -72.306 V-91.691 H95.721 L110.433 -76.826 L99.433 -65.98 L110.433 -54.98 L95.721 -40.519 H93.106 Z M98.529 -72.306  103.201 -76.826  98.529 -81.499 V-72.306 Z M98.529 -50.306  103.201 -54.98  98.529 -59.904 V-50.306 Z"/></g><g id="Thin-M" transform="matrix(1 0 0 1 802.565 1126)"><path d="M29.648 -16.269 Q32.106 -16.269 33.904 -18.089 Q35.703 -19.91 35.703 -22.367 Q35.703 -24.826 33.881 -26.624 Q32.06 -28.422 29.602 -28.422 Q27.144 -28.422 25.346 -26.601 Q23.547 -24.781 23.547 -22.322 Q23.547 -19.865 25.369 -18.066 Q27.19 -16.269 29.648 -16.269 Z M76.166 -16.269 Q78.625 -16.269 80.422 -18.089 Q82.221 -19.91 82.221 -22.367 Q82.221 -24.826 80.4 -26.624 Q78.58 -28.422 76.121 -28.422 Q73.664 -28.422 71.865 -26.601 Q70.067 -24.781 70.067 -22.322 Q70.067 -19.865 71.888 -18.066 Q73.709 -16.269 76.166 -16.269 Z M14.01 6.52 Q12.822 6.52 11.916 5.614 Q11.01 4.708 11.01 3.52 V-34.711 L21.183 -63.98 Q21.672 -65.422 22.904 -66.201 Q24.135 -66.98 25.664 -66.98 H73.26 V-60.73 H26.703 L19.836 -40.961 H73.26 V-34.711 H17.26 V-9.73 H88.51 V-34.711 H94.76 V3.52 Q94.76 4.708 93.854 5.614 Q92.948 6.52 91.76 6.52 H89.606 Q88.419 6.52 87.513 5.614 Q86.606 4.708 86.606 3.52 V-3.48 H19.164 V3.52 Q19.164 4.708 18.258 5.614 Q17.351 6.52 16.164 6.52 H14.01 Z M92.336 -40.807 V-60.576 L80.51 -48.499 L77.279 -51.73 L91.529 -65.98 L77.279 -80.23 L80.51 -83.711 L92.336 -71.634 V-91.402 H94.567 L108.99 -76.922 L97.99 -65.98 L108.99 -54.98 L94.567 -40.807 H92.336 Z M97.183 -71.634  102.529 -76.922  97.183 -82.269 V-71.634 Z M97.183 -49.634  102.529 -54.98  97.183 -60.576 V-49.634 Z"/></g><g id="Ultralight-M" transform="matrix(1 0 0 1 506.415 1126)"><path d="M28.905 -16.73 Q31.125 -16.73 32.75 -18.385 Q34.375 -20.039 34.375 -22.26 Q34.375 -24.48 32.72 -26.105 Q31.066 -27.73 28.845 -27.73 Q26.625 -27.73 25 -26.075 Q23.375 -24.421 23.375 -22.2 Q23.375 -19.98 25.03 -18.355 Q26.684 -16.73 28.905 -16.73 Z M75.655 -16.73 Q77.875 -16.73 79.5 -18.385 Q81.125 -20.039 81.125 -22.26 Q81.125 -24.48 79.47 -26.105 Q77.816 -27.73 75.595 -27.73 Q73.375 -27.73 71.75 -26.075 Q70.125 -24.421 70.125 -22.2 Q70.125 -19.98 71.78 -18.355 Q73.434 -16.73 75.655 -16.73 Z M14.125 5.02 Q13.256 5.02 12.566 4.33 Q11.875 3.639 11.875 2.77 V-34.48 L21.875 -63.23 Q22.25 -64.355 23.212 -64.917 Q24.175 -65.48 25.375 -65.48 H72.625 V-60.73 H26.125 L18.625 -39.23 H72.625 V-34.48 H16.625 V-9.73 H87.875 V-34.48 H92.625 V2.77 Q92.625 3.639 91.934 4.33 Q91.244 5.02 90.375 5.02 H89.375 Q88.506 5.02 87.816 4.33 Q87.125 3.639 87.125 2.77 V-4.98 H17.375 V2.77 Q17.375 3.639 16.685 4.33 Q15.994 5.02 15.125 5.02 H14.125 Z M91.875 -40.98 V-60.98 L79.875 -48.73 L76.875 -51.73 L91.125 -65.98 L76.875 -80.23 L79.875 -83.48 L91.875 -71.23 V-91.23 H93.875 L108.125 -76.98 L97.125 -65.98 L108.125 -54.98 L93.875 -40.98 H91.875 Z M96.375 -71.23  102.125 -76.98  96.375 -82.73 V-71.23 Z M96.375 -49.23  102.125 -54.98  96.375 -60.98 V-49.23 Z"/></g><g id="Bold-S" transform="matrix(1 0 0 1 2294.23 696)"><path d="M26.925 -20.239 Q28.897 -20.239 30.327 -21.718 Q31.757 -23.198 31.757 -25.17 Q31.757 -27.143 30.327 -28.622 Q28.897 -30.101 26.925 -30.101 Q24.854 -30.101 23.423 -28.622 Q21.993 -27.143 21.993 -25.17 Q21.993 -23.198 23.423 -21.718 Q24.854 -20.239 26.925 -20.239 Z M59.076 -20.239 Q61.148 -20.239 62.578 -21.718 Q64.008 -23.198 64.008 -25.17 Q64.008 -27.143 62.578 -28.622 Q61.148 -30.101 59.076 -30.101 Q57.104 -30.101 55.674 -28.622 Q54.244 -27.143 54.244 -25.17 Q54.244 -23.198 55.674 -21.718 Q57.104 -20.239 59.076 -20.239 Z M11.835 1.754 Q9.448 1.754 7.683 0.038 Q5.918 -1.678 5.918 -4.064 V-35.949 L13.906 -55.941 Q15.09 -58.999 17.77 -60.872 Q20.451 -62.746 23.867 -62.746 H57.301 V-50.813 H24.854 L20.81 -40.457 H57.301 V-32.962 H17.95 V-17.28 H68.051 V-32.962 H80.084 V-4.064 Q80.084 -1.678 78.318 0.038 Q76.553 1.754 74.166 1.754 H72.194 Q69.807 1.754 68.091 0.195 Q66.375 -1.365 66.375 -3.769 V-5.347 H19.626 V-3.769 Q19.626 -1.365 17.91 0.195 Q16.194 1.754 13.808 1.754 H11.835 Z M73.081 -39.076 V-52.687 L66.671 -46.177 L63.416 -49.531 L72.687 -58.703 L63.416 -67.973 L66.671 -71.327 L73.081 -64.817 V-78.428 H76.139 L87.579 -67.086 L79.196 -58.703 L87.579 -50.418 L76.139 -39.076 H73.081 Z M77.815 -63.93  81.07 -67.086  77.815 -70.242 V-63.93 Z M77.815 -47.262  81.07 -50.418  77.815 -53.574 V-47.262 Z"/></g><g id="Semibold-S" transform="matrix(1 0 0 1 1998.1 696)"><path d="M26.41 -19.896 Q28.426 -19.896 29.898 -21.397 Q31.372 -22.898 31.372 -24.913 Q31.372 -26.929 29.898 -28.429 Q28.426 -29.93 26.41 -29.93 Q24.339 -29.93 22.866 -28.429 Q21.393 -26.929 21.393 -24.913 Q21.393 -22.898 22.866 -21.397 Q24.339 -19.896 26.41 -19.896 Z M59.248 -19.896 Q61.319 -19.896 62.792 -21.397 Q64.265 -22.898 64.265 -24.913 Q64.265 -26.929 62.792 -28.429 Q61.319 -29.93 59.248 -29.93 Q57.232 -29.93 55.76 -28.429 Q54.286 -26.929 54.286 -24.913 Q54.286 -22.898 55.76 -21.397 Q57.232 -19.896 59.248 -19.896 Z M11.364 0.682 Q9.534 0.682 8.176 -0.648 Q6.818 -1.978 6.818 -3.807 V-35.722 L14.764 -55.727 Q15.818 -58.398 18.17 -60.036 Q20.521 -61.674 23.524 -61.674 H57.215 V-51.413 H24.167 L19.995 -40.757 H57.215 V-33.004 H17.135 V-16.68 H68.523 V-33.004 H78.84 V-3.807 Q78.84 -1.978 77.482 -0.648 Q76.124 0.682 74.294 0.682 H70.778 Q68.949 0.682 67.619 -0.559 Q66.289 -1.801 66.289 -3.64 V-6.419 H19.369 V-3.64 Q19.369 -1.801 18.039 -0.559 Q16.709 0.682 14.88 0.682 H11.364 Z M72.395 -38.433 V-52.301 L65.812 -45.577 L62.729 -48.758 L72.044 -58.016 L62.729 -67.33 L65.812 -70.598 L72.395 -63.875 V-77.741 H75.324 L86.679 -66.443 L78.253 -58.016 L86.679 -49.646 L75.324 -38.433 H72.395 Z M76.957 -62.987  80.469 -66.443  76.957 -69.899 V-62.987 Z M76.957 -46.19  80.469 -49.646  76.957 -53.189 V-46.19 Z"/></g><g id="Medium-S" transform="matrix(1 0 0 1 1701.85 696)"><path d="M26.024 -19.638 Q28.072 -19.638 29.577 -21.155 Q31.082 -22.672 31.082 -24.72 Q31.082 -26.768 29.577 -28.285 Q28.072 -29.802 26.024 -29.802 Q23.953 -29.802 22.448 -28.285 Q20.943 -26.768 20.943 -24.72 Q20.943 -22.672 22.448 -21.155 Q23.953 -19.638 26.024 -19.638 Z M59.376 -19.638 Q61.447 -19.638 62.952 -21.155 Q64.458 -22.672 64.458 -24.72 Q64.458 -26.768 62.952 -28.285 Q61.447 -29.802 59.376 -29.802 Q57.329 -29.802 55.824 -28.285 Q54.319 -26.768 54.319 -24.72 Q54.319 -22.672 55.824 -21.155 Q57.329 -19.638 59.376 -19.638 Z M11.01 -0.121 Q9.598 -0.121 8.546 -1.162 Q7.494 -2.203 7.494 -3.614 V-35.552 L15.407 -55.566 Q16.365 -57.948 18.47 -59.409 Q20.574 -60.871 23.267 -60.871 H57.151 V-51.863 H23.653 L19.384 -40.983 H57.151 V-33.037 H16.524 V-16.23 H68.877 V-33.037 H77.907 V-3.614 Q77.907 -2.203 76.855 -1.162 Q75.802 -0.121 74.391 -0.121 H69.717 Q68.306 -0.121 67.265 -1.124 Q66.225 -2.128 66.225 -3.544 V-7.222 H19.176 V-3.544 Q19.176 -2.128 18.135 -1.124 Q17.095 -0.121 15.683 -0.121 H11.01 Z M71.881 -37.951 V-52.011 L65.169 -45.127 L62.216 -48.179 L71.561 -57.502 L62.216 -66.848 L65.169 -70.052 L71.881 -63.167 V-77.227 H74.712 L86.003 -65.961 L77.545 -57.502 L86.003 -49.067 L74.712 -37.951 H71.881 Z M76.314 -62.279  80.019 -65.961  76.314 -69.641 V-62.279 Z M76.314 -45.386  80.019 -49.067  76.314 -52.899 V-45.386 Z"/></g><g id="Regular-S" transform="matrix(1 0 0 1 1405.73 696)"><path d="M25.741 -19.45 Q27.812 -19.45 29.341 -20.979 Q30.87 -22.507 30.87 -24.578 Q30.87 -26.65 29.341 -28.178 Q27.812 -29.707 25.741 -29.707 Q23.67 -29.707 22.141 -28.178 Q20.613 -26.65 20.613 -24.578 Q20.613 -22.507 22.141 -20.979 Q23.67 -19.45 25.741 -19.45 Z M59.471 -19.45 Q61.542 -19.45 63.071 -20.979 Q64.599 -22.507 64.599 -24.578 Q64.599 -26.65 63.071 -28.178 Q61.542 -29.707 59.471 -29.707 Q57.4 -29.707 55.871 -28.178 Q54.342 -26.65 54.342 -24.578 Q54.342 -22.507 55.871 -20.979 Q57.4 -19.45 59.471 -19.45 Z M10.75 -0.711 Q9.646 -0.711 8.817 -1.54 Q7.989 -2.368 7.989 -3.473 V-35.427 L15.879 -55.448 Q16.766 -57.618 18.689 -58.949 Q20.613 -60.281 23.078 -60.281 H57.104 V-52.193 H23.276 L18.936 -41.147 H57.104 V-33.06 H16.076 V-15.899 H69.136 V-33.06 H77.223 V-3.473 Q77.223 -2.368 76.395 -1.54 Q75.566 -0.711 74.462 -0.711 H68.939 Q67.834 -0.711 67.006 -1.54 Q66.177 -2.368 66.177 -3.473 V-7.812 H19.035 V-3.473 Q19.035 -2.368 18.206 -1.54 Q17.378 -0.711 16.273 -0.711 H10.75 Z M71.503 -37.597 V-51.799 L64.698 -44.797 L61.838 -47.755 L71.207 -57.125 L61.838 -66.494 L64.698 -69.65 L71.503 -62.648 V-76.85 H74.265 L85.508 -65.606 L77.026 -57.125 L85.508 -48.643 L74.265 -37.597 H71.503 Z M75.843 -61.76  79.689 -65.606  75.843 -69.453 V-61.76 Z M75.843 -44.797  79.689 -48.643  75.843 -52.687 V-44.797 Z"/></g><g id="Light-S" transform="matrix(1 0 0 1 1109.75 696)"><path d="M24.764 -20.057 Q26.522 -20.057 27.823 -21.367 Q29.125 -22.677 29.125 -24.435 Q29.125 -26.194 27.814 -27.496 Q26.504 -28.797 24.746 -28.797 Q22.988 -28.797 21.686 -27.487 Q20.385 -26.176 20.385 -24.418 Q20.385 -22.659 21.695 -21.358 Q23.005 -20.057 24.764 -20.057 Z M58.797 -20.057 Q60.556 -20.057 61.857 -21.367 Q63.157 -22.677 63.157 -24.435 Q63.157 -26.194 61.848 -27.496 Q60.538 -28.797 58.78 -28.797 Q57.02 -28.797 55.719 -27.487 Q54.418 -26.176 54.418 -24.418 Q54.418 -22.659 55.728 -21.358 Q57.038 -20.057 58.797 -20.057 Z M10.902 -2.684 Q10.217 -2.684 9.671 -3.229 Q9.127 -3.774 9.127 -4.459 V-35.123 L16.789 -54.462 Q17.525 -56.214 19.096 -57.261 Q20.666 -58.308 22.699 -58.308 H56.27 V-52.193 H22.517 L17.342 -38.871 H56.27 V-32.756 H15.242 V-15.899 H68.302 V-32.756 H74.417 V-4.459 Q74.417 -3.774 73.871 -3.229 Q73.327 -2.684 72.641 -2.684 H68.635 Q67.95 -2.684 67.405 -3.229 Q66.86 -3.774 66.86 -4.459 V-9.785 H16.682 V-4.459 Q16.682 -3.774 16.138 -3.229 Q15.593 -2.684 14.907 -2.684 H10.902 Z M70.897 -37.825 V-52.331 L63.864 -45.1 L61.306 -47.755 L70.676 -57.125 L61.306 -66.494 L63.864 -69.346 L70.897 -62.116 V-76.622 H73.354 L84.37 -65.682 L75.888 -57.125 L84.37 -48.643 L73.354 -37.825 H70.897 Z M74.78 -61.229  79.157 -65.682  74.78 -70.059 V-61.229 Z M74.78 -44.265  79.157 -48.643  74.78 -53.218 V-44.265 Z"/></g><g id="Thin-S" transform="matrix(1 0 0 1 814.015 696)"><path d="M23.786 -20.664 Q25.233 -20.664 26.306 -21.755 Q27.38 -22.847 27.38 -24.292 Q27.38 -25.739 26.288 -26.812 Q25.197 -27.886 23.751 -27.886 Q22.304 -27.886 21.231 -26.795 Q20.157 -25.704 20.157 -24.257 Q20.157 -22.811 21.249 -21.737 Q22.341 -20.664 23.786 -20.664 Z M58.123 -20.664 Q59.57 -20.664 60.643 -21.755 Q61.717 -22.847 61.717 -24.292 Q61.717 -25.739 60.625 -26.812 Q59.534 -27.886 58.087 -27.886 Q56.641 -27.886 55.567 -26.795 Q54.494 -25.704 54.494 -24.257 Q54.494 -22.811 55.585 -21.737 Q56.677 -20.664 58.123 -20.664 Z M11.054 -4.656 Q10.788 -4.656 10.526 -4.918 Q10.265 -5.179 10.265 -5.445 V-34.821 L17.699 -53.476 Q18.283 -54.811 19.501 -55.573 Q20.719 -56.336 22.32 -56.336 H55.435 V-52.193 H21.759 L15.749 -36.596 H55.435 V-32.454 H14.407 V-15.899 H67.467 V-32.454 H71.61 V-5.445 Q71.61 -5.179 71.348 -4.918 Q71.087 -4.656 70.821 -4.656 H68.332 Q68.066 -4.656 67.805 -4.918 Q67.543 -5.179 67.543 -5.445 V-11.757 H14.331 V-5.445 Q14.331 -5.179 14.07 -4.918 Q13.808 -4.656 13.542 -4.656 H11.054 Z M70.289 -38.053 V-52.861 L63.029 -45.403 L60.776 -47.755 L70.145 -57.125 L60.776 -66.494 L63.029 -69.044 L70.289 -61.586 V-76.394 H72.444 L83.232 -65.758 L74.75 -57.125 L83.232 -48.643 L72.444 -38.053 H70.289 Z M73.718 -60.698  78.627 -65.758  73.718 -70.667 V-60.698 Z M73.718 -43.734  78.627 -48.643  73.718 -53.749 V-43.734 Z"/></g><g id="Ultralight-S" transform="matrix(1 0 0 1 517.792 696)"><path d="M23.201 -21.028 Q24.459 -21.028 25.396 -21.989 Q26.333 -22.948 26.333 -24.208 Q26.333 -25.466 25.372 -26.403 Q24.413 -27.34 23.153 -27.34 Q21.895 -27.34 20.958 -26.379 Q20.021 -25.42 20.021 -24.16 Q20.021 -22.902 20.981 -21.965 Q21.941 -21.028 23.201 -21.028 Z M57.719 -21.028 Q58.978 -21.028 59.915 -21.989 Q60.852 -22.948 60.852 -24.208 Q60.852 -25.466 59.891 -26.403 Q58.931 -27.34 57.672 -27.34 Q56.413 -27.34 55.477 -26.379 Q54.54 -25.42 54.54 -24.16 Q54.54 -22.902 55.5 -21.965 Q56.46 -21.028 57.719 -21.028 Z M11.145 -5.84 Q11.13 -5.84 11.039 -5.931 Q10.947 -6.022 10.947 -6.037 V-34.638 L18.246 -52.884 Q18.739 -53.969 19.745 -54.56 Q20.751 -55.152 22.092 -55.152 H54.934 V-52.193 H21.303 L14.794 -35.23 H54.934 V-32.271 H13.906 V-15.899 H66.966 V-32.271 H69.925 V-6.037 Q69.925 -6.022 69.834 -5.931 Q69.743 -5.84 69.728 -5.84 H68.15 Q68.135 -5.84 68.043 -5.931 Q67.953 -6.022 67.953 -6.037 V-12.941 H12.92 V-6.037 Q12.92 -6.022 12.828 -5.931 Q12.737 -5.84 12.723 -5.84 H11.145 Z M69.925 -38.189 V-53.18 L62.528 -45.586 L60.457 -47.755 L69.827 -57.125 L60.457 -66.494 L62.528 -68.861 L69.925 -61.267 V-76.258 H71.898 L82.549 -65.804 L74.067 -57.125 L82.549 -48.643 L71.898 -38.189 H69.925 Z M73.081 -60.379  78.308 -65.804  73.081 -71.031 V-60.379 Z M73.081 -43.416  78.308 -48.643  73.081 -54.067 V-43.416 Z"/></g></g></svg>