<svg xmlns="http://www.w3.org/2000/svg" height="20" viewBox="0 -960 960 960" width="20"><path d="M828.21-305q-20.21 0-34.71-14.29t-14.5-34.5q0-20.21 14.29-34.71t34.5-14.5q20.21 0 34.71 14.29t14.5 34.5q0 20.21-14.29 34.71t-34.5 14.5ZM779-457v-216h98v216h-98ZM191-232q-56.25 0-95.62-39.38Q56-310.75 56-367v-226q0-56.25 39.38-95.63Q134.75-728 191-728h516v98H192q-16.15 0-27.07 10.92Q154-608.15 154-592v224q0 16.15 10.93 27.08Q175.85-330 192-330h518q8 40 38.68 67.34Q779.35-235.32 821-232H191Zm10-136v-214h506v214H201Z"/></svg>