<svg xmlns="http://www.w3.org/2000/svg" height="48" viewBox="0 -960 960 960" width="48"><path d="M480.57-61.17q-85.89 0-162.74-33.31-76.85-33.3-133.17-89.9-56.32-56.6-89.9-133.06-33.59-76.45-33.59-162.32 0-85.88 33.59-162.57 33.58-76.69 89.9-133.29 56.32-56.6 133.19-90.19 76.86-33.58 162.76-33.58 85.03 0 162 33.58 76.97 33.59 133.29 90.19 56.32 56.6 89.91 133.29 33.58 76.68 33.58 162.38 0 86.16-33.58 162.56-33.59 76.41-89.91 133.01-56.32 56.6-133.42 89.9-77.11 33.31-161.91 33.31ZM374.83-419.22q57.47 0 97.78-40.42 40.3-40.43 40.3-97.95t-40.3-97.94q-40.31-40.43-97.78-40.43-57.48 0-98.07 40.38-40.59 40.38-40.59 97.94 0 57.57 40.59 98 40.59 40.42 98.07 40.42Zm298.19 44.26q42.68 0 73.66-30.85 30.97-30.86 30.97-73.94 0-43.07-31.05-74.18-31.05-31.11-73.85-31.11t-74.28 30.85Q567-523.33 567-480.25q0 43.07 31.55 74.18 31.55 31.11 74.47 31.11ZM480.57-144.35q86.27 0 157.46-38.8 71.19-38.81 117.06-103.37-21.31-6.48-41.26-10.98-19.94-4.5-41.44-4.5-54.72 0-129.8 32.43-75.07 32.44-121.37 119.35 15.15 4 29.71 4.94 14.57.93 29.64.93Zm-136.07-29.3q30.54-67.22 72.26-102.76 41.72-35.55 62.85-50.46-23.31-9-49.48-13-26.18-4-54.98-4-46.71 0-91.26 12.94-44.54 12.93-85.41 33.8 27.4 41.35 64.42 73.26 37.01 31.91 81.6 50.22Z"/></svg>