<svg xmlns="http://www.w3.org/2000/svg" height="48" viewBox="0 -960 960 960" width="48"><path d="M480.08-496.62Zm-.22 392q-26.71 0-45.59-18.98-18.89-18.98-18.89-45.63h129.24q0 26.85-19.03 45.73-19.02 18.88-45.73 18.88ZM200-209.23V-240h64.62v-327.85q0-78.48 49.11-139.28 49.12-60.79 126.27-74.33V-800q0-16.67 11.64-28.33Q463.28-840 479.91-840t28.36 11.67Q520-816.67 520-800v18.92q25.08 4.7 47.15 14.89 22.08 10.19 41.08 25.11L585-717.62q-21.69-16.07-48.51-25.46-26.82-9.38-56.49-9.38-76.54 0-130.58 54.04-54.04 54.04-54.04 130.57V-240H760v30.77H200Zm420.31-197.15-21.77-21q19.08-19.08 29.5-42.66 10.42-23.58 10.42-48.88 0-25.31-10.31-49.13-10.3-23.82-28.38-42.41l20.77-21q24.23 25 36.46 53.69 12.23 28.69 12.23 58.85 0 29.15-12.73 58.34-12.73 29.2-36.19 54.2ZM692-333.92q37.09-35.73 57.16-83.13 20.07-47.4 20.07-101.94 0-52.55-20.07-100.18-20.07-47.63-57.16-83.75l22.46-23.23q41.77 41.98 63.66 95.49Q800-577.15 800-518.44q0 58.72-21.88 112.35-21.89 53.63-63.66 94.63L692-333.92Z"/></svg>