<svg xmlns="http://www.w3.org/2000/svg" height="24" viewBox="0 -960 960 960" width="24"><path d="M480-36q-38 0-65-27t-27-65h184q0 38-27 65t-65 27ZM128-168v-106h80v-282q0-91 55-163.5T406-817v-20q0-31 21.5-52.5T480-911q31 0 52.5 21.5T554-837v20q14 4 27.5 9t26.5 12L463-653v251l238 234H128Zm623-64-75-75q44-45 67.5-101.5T767-527q0-62-23.5-119T676-748l75-75q58 58 89.5 134T872-528q0 83-31 159.5T751-232ZM618-361l-75-75q18-18 27-42t9-50q0-26-9-50t-27-42l75-75q33 35 50 78.5t17 88.5q0 45-17 88.5T618-361Z"/></svg>