<svg xmlns="http://www.w3.org/2000/svg" height="48" viewBox="0 -960 960 960" width="48"><path d="M831.41-643.39q-16.13 0-26.92-10.35-10.79-10.35-10.79-25.69 0-1.8 5.69-18.27 6.94-12.53 10.72-26.5 3.78-13.97 3.78-27.37 0-19.63-6.81-36.56-6.82-16.94-20.42-31.32-6.59-7.31-10.91-15.51-4.31-8.19-4.31-18.69 0-14.48 10.15-24.86 10.15-10.38 24.64-10.38 9.18 0 17.28 4.15 8.1 4.15 15.17 10.09 25.97 21.97 36.97 54.38 11 32.4 11 67.44 0 23.51-6.31 46.9-6.32 23.39-17.95 44.08-4.87 9.32-13.03 13.89-8.15 4.57-17.95 4.57Zm-189.46 0q-16.12 0-26.92-10.35-10.79-10.35-10.79-25.69 0-1.8 5.69-18.27 6.94-12.53 10.72-26.5 3.78-13.97 3.78-27.94 0-19.62-6.53-36.27-6.53-16.66-20.13-30.47-6.68-7.79-10.95-15.83-4.28-8.05-4.28-18.94 0-13.91 9.59-24.58 9.58-10.66 24.39-10.66 9.44 0 17.53 4.15 8.1 4.15 15.17 10.09 25.98 21.97 36.98 54.38 11 32.4 11 67.44 0 23.51-6.32 46.9-6.31 23.39-17.94 44.08-4.88 9.32-13.03 13.89-8.16 4.57-17.96 4.57ZM431.5-70.87q-37.08 0-70.1-14.67-33.02-14.68-55.08-43.63L112.28-378.22q-10.39-14.08-9.2-30.79 1.18-16.7 14.16-28.99l6.19-5.13q17.47-15.29 40.73-18.14 23.27-2.86 45.3 7.33l87.13 43.09v-340.41q0-14.76 10.56-25.3 10.56-10.55 25.83-10.55 14.78 0 25.29 10.55 10.51 10.54 10.51 25.3v224.35H664.3q59.7 0 102.55 42.68 42.85 42.68 42.85 102.64v154.37q0 65.33-45.8 110.84-45.79 45.51-110.36 45.51H431.5Zm23.87-572.52q-15.13 0-25.6-10.59-10.47-10.58-10.47-25.89 0-5.7 5.13-18.33 6.5-11 10.5-24.5t4-28.23q0-44.27-30.88-75.02-30.88-30.75-75-30.75-44.62 0-75.37 30.67-30.75 30.67-30.75 75.33 0 14.5 3.75 28t10.03 24.53q2.79 4.1 4.32 8.47 1.53 4.36 1.53 10.03 0 15.26-11.02 25.77t-25.86 10.51q-11.2 0-19.98-4.88-8.77-4.88-12.83-14.08-11.07-20.76-16.88-42.67-5.82-21.92-5.82-45.71 0-74.68 51.84-126.71 51.85-52.02 126.74-52.02 74.4 0 126.67 51.99 52.28 52 52.28 127.11 0 24.43-6.07 45.84-6.06 21.41-16.8 41.65-4.25 9.78-13.43 14.63-9.19 4.85-20.03 4.85Z"/></svg>