<svg xmlns="http://www.w3.org/2000/svg" height="24" viewBox="0 96 960 960" width="24"><path d="M787 804.579V715q0-10.8-8.143-18.9-8.143-8.1-19-8.1t-19.357 8.1q-8.5 8.1-8.5 18.9v86q0 13 4.5 24.071Q741 836.143 750 845l57 57q8 8 19 7.5t19-8.643q8-8.143 8-19T845 863l-58-58.421ZM505 348v94q0 26 18.5 44.5T568 505h220V348H505Zm255 668q-83 0-141.5-58.5T560 816q0-83 58.5-141.5T760 616q83 0 141.5 58.5T960 816q0 83-58.5 141.5T760 1016Zm-588-86q-53 0-89.5-36.5T46 804V348q0-53 36.5-89.5T172 222h616q53 0 89.5 36.5T914 348v236q-34-23-74.182-35.5Q799.635 536 758 536q-113 0-193.5 77.5T480 804q-1 32 5 64.5t20 61.5H172Z"/></svg>