<svg xmlns="http://www.w3.org/2000/svg" height="20" width="20"><path d="M4.396 17.062q-.958 0-1.625-.666-.667-.667-.667-1.625V3.562q0-.958.667-1.624.667-.667 1.625-.667h11.208q.958 0 1.625.667.667.666.667 1.624v5.771q-.292-.083-.594-.114t-.635-.031h-1.063V3.562H4.396v11.209h1.916q.021.646.178 1.219.156.572.406 1.072Zm0-2.562v.271V3.562 14.5Zm1.208-.938h.75q.208-1.187.865-2.124.656-.938 1.635-1.5h-3.25Zm0-5.166h3.625V4.771H5.604Zm6.063 9.812q-1.5 0-2.573-1.052t-1.073-2.573q0-1.5 1.062-2.573 1.063-1.072 2.584-1.072h1.708V13h-1.708q-.667 0-1.125.458-.459.459-.459 1.104 0 .667.459 1.136.458.469 1.125.469h1.687v2.041Zm-.896-9.812h3.625V4.771h-3.625Zm.896 7.208v-2.062h5v2.062ZM15 18.208v-2.041h1.667q.666 0 1.125-.459.458-.458.458-1.125 0-.666-.458-1.125Q17.333 13 16.667 13h-1.709v-2.062h1.709q1.5 0 2.573 1.062 1.072 1.062 1.072 2.583 0 1.5-1.072 2.563-1.073 1.062-2.573 1.062Z"/></svg>