<svg xmlns="http://www.w3.org/2000/svg" height="40" viewBox="0 -960 960 960" width="40"><path d="M424.62-165.24h111.61q5.65 0 10.23-4.06 4.57-4.05 4.57-10.57 0-6.52-4.64-11.19t-10.3-4.67H424.55q-6.51 0-11.04 4.53-4.54 4.52-4.54 11.33 0 6.52 4.5 10.57 4.49 4.06 11.15 4.06ZM299.14-82.82q-23.42 0-40.15-16.73-16.73-16.73-16.73-40.13v-680.64q0-23.4 16.73-40.13 16.73-16.73 40.15-16.73h361.72q23.42 0 40.15 16.73 16.73 16.73 16.73 40.13v680.64q0 23.4-16.73 40.13-16.73 16.73-40.15 16.73H299.14Zm-24.45-194.1h410.62v-477.9H274.69v477.9Z"/></svg>