<svg xmlns="http://www.w3.org/2000/svg" height="24" viewBox="0 -960 960 960" width="24"><path d="M696.92-89.46 649.62-135l70-71H461.23v-66h258.39l-70-71 47.3-45.54L846.46-239 696.92-89.46ZM110-443.92v-93.7h93.69v93.7H110Zm271.99 0q-50.99 0-86.95-36.02-35.96-36.03-35.96-86.98v-160q0-50.96 36.04-86.98 36.05-36.02 87.04-36.02 50.99 0 86.96 36.02 35.96 36.02 35.96 86.98v160q0 50.95-36.05 86.98-36.05 36.02-87.04 36.02Zm341.39 0q-51 0-86.96-36.02-35.96-36.03-35.96-86.98v-160q0-50.96 36.05-86.98 36.04-36.02 87.04-36.02 50.99 0 86.95 36.02t35.96 86.98v160q0 50.95-36.04 86.98-36.05 36.02-87.04 36.02Zm-341.3-66q23.75 0 40.37-16.63 16.63-16.62 16.63-40.37v-160q0-23.75-16.63-40.38-16.62-16.62-40.37-16.62-23.75 0-40.38 16.62-16.62 16.63-16.62 40.38v160q0 23.75 16.62 40.37 16.63 16.63 40.38 16.63Zm341.38 0q23.75 0 40.38-16.63 16.62-16.62 16.62-40.37v-160q0-23.75-16.62-40.38-16.63-16.62-40.38-16.62-23.75 0-40.37 16.62-16.63 16.63-16.63 40.38v160q0 23.75 16.63 40.37 16.62 16.63 40.37 16.63Z"/></svg>