<svg xmlns="http://www.w3.org/2000/svg" height="24" viewBox="0 -960 960 960" width="24"><path d="M718.5-217v-80h-80v-25.5h80v-80H744v80h80v25.5h-80v80h-25.5Zm-584-327.5-44-44q79.26-74.55 179.63-114.52Q370.5-743 480-743t209.87 39.98Q790.24-663.05 870-588.5l-44.5 44Q755-610 666-645t-186-35q-97 0-186 35T134.5-544.5ZM479.98-217q-21.98 0-36.73-14.77-14.75-14.77-14.75-36.75t14.77-36.73Q458.04-320 480.02-320t36.73 14.77q14.75 14.77 14.75 36.75t-14.77 36.73Q501.96-217 479.98-217ZM291-390l-44.5-44.5Q293-481 353.55-505.75T480-530.5q46.31 0 89.56 12.51T652-483q-16 8-30.75 18.51Q606.49-453.98 594-442q-26.88-11.81-55.56-18.66-28.68-6.84-58.26-6.84-53.97 0-102.58 20.13Q329-427.24 291-390Z"/></svg>