<svg xmlns="http://www.w3.org/2000/svg" height="20" width="20"><path d="m12.604 13.146-2.979-3.021V5.833h.667v4.021l2.791 2.813Zm-2.625 3.271q-2.479 0-4.291-1.584-1.813-1.583-2.084-4.021h.625q.333 2.126 1.948 3.532 1.615 1.406 3.802 1.406 2.396 0 4.063-1.677 1.666-1.677 1.666-4.073 0-2.396-1.666-4.073Q12.375 4.25 9.979 4.25q-1.25 0-2.375.51-1.125.511-1.937 1.428h1.895v.666H4.625V3.729h.667v1.833q.916-.979 2.135-1.479 1.219-.5 2.552-.5 1.313 0 2.479.49 1.167.489 2.052 1.375.886.885 1.375 2.052.49 1.167.49 2.479 0 1.333-.49 2.5-.489 1.167-1.375 2.052-.885.886-2.041 1.386-1.157.5-2.49.5Z"/></svg>