<svg xmlns="http://www.w3.org/2000/svg" height="20" viewBox="0 -960 960 960" width="20"><path d="M39.96-233.46q-18.89 0-32.7-13.8-13.8-13.81-13.8-32.7v-18.87q0-55.19 47.32-85.45Q88.11-414.54 168-414.54q12.48 0 23.42 1.46 10.95 1.47 22.56 3.3-18.2 21.8-27.76 48.7-9.57 26.9-9.57 54.53v73.09H39.96Zm240 0q-18.89 0-32.7-13.8-13.8-13.81-13.8-32.7V-301q0-28.55 14.28-53.35t39.98-37.43q45.69-22.63 93.56-34.7 47.86-12.06 97.99-12.06 51.09 0 98.67 12.06 47.58 12.07 93.28 34.7 25.69 12.63 40.51 37.21 14.81 24.58 14.81 53.57v21.04q0 18.89-13.8 32.7-13.81 13.8-32.7 13.8H279.96Zm503.39 0v-73.68q0-28.4-10.1-54.33t-28.29-48.27q13.61-1.87 24.4-3.34 10.79-1.46 22.64-1.46 80.57 0 127.56 30.78 46.98 30.79 46.98 84.76v19.04q0 18.89-13.8 32.7-13.81 13.8-32.7 13.8H783.35Zm-456.46-82.26h306.22q-12.22-16.04-59.28-28.58-47.07-12.55-93.3-12.55t-93.57 12.55q-47.35 12.54-60.07 28.58ZM167.82-465.28q-31.08 0-53.03-21.94-21.94-21.94-21.94-52.74 0-31.74 21.93-53.68 21.94-21.95 52.74-21.95 31.74 0 53.69 21.66 21.94 21.66 21.94 53.68 0 31.08-21.66 53.02-21.66 21.95-53.67 21.95Zm624 0q-31.08 0-53.03-21.94-21.94-21.94-21.94-52.74 0-31.74 21.93-53.68 21.94-21.95 52.74-21.95 31.74 0 53.69 21.66 21.94 21.66 21.94 53.68 0 31.08-21.66 53.02-21.66 21.95-53.67 21.95Zm-312.55-25.7q-52.04 0-88.93-36.91-36.88-36.91-36.88-89.63 0-51.89 36.9-89.22 36.91-37.33 89.64-37.33 51.89 0 89.22 37.33 37.32 37.33 37.32 89.95 0 52.04-37.32 88.92-37.33 36.89-89.95 36.89Zm1.26-81.7q18.61 0 31.46-13.38 12.86-13.39 12.86-32 0-18.6-12.9-31.46-12.89-12.85-31.95-12.85-18.07 0-31.46 12.89-13.39 12.9-13.39 31.96 0 18.07 13.39 31.46 13.39 13.38 31.99 13.38ZM480-315.72Zm0-301.8Z"/></svg>