<svg xmlns="http://www.w3.org/2000/svg" height="40" width="40"><path d="M14.875 30.208q.667 0 1.146-.479.479-.479.479-1.104 0-.667-.479-1.146Q15.542 27 14.875 27q-.625 0-1.104.479-.479.479-.479 1.146 0 .625.479 1.104.479.479 1.104.479Zm5.167 0q.625 0 1.104-.479.479-.479.479-1.104 0-.667-.479-1.146Q20.667 27 20.042 27q-.667 0-1.146.479-.479.479-.479 1.146 0 .625.479 1.104.479.479 1.146.479Zm5.125 0q.666 0 1.145-.479.48-.479.48-1.104 0-.667-.48-1.146Q25.833 27 25.167 27q-.667 0-1.146.479-.479.479-.479 1.146 0 .625.479 1.104.479.479 1.146.479Zm-10.292-5.125q.667 0 1.146-.458.479-.458.479-1.125t-.479-1.146q-.479-.479-1.146-.479-.625 0-1.104.479-.479.479-.479 1.146 0 .667.479 1.125.479.458 1.104.458Zm5.167 0q.625 0 1.104-.458.479-.458.479-1.125t-.479-1.146q-.479-.479-1.104-.479-.667 0-1.146.479-.479.479-.479 1.146 0 .667.479 1.125.479.458 1.146.458Zm5.125 0q.666 0 1.145-.458.48-.458.48-1.125t-.48-1.146q-.479-.479-1.145-.479-.667 0-1.146.479-.479.479-.479 1.146 0 .667.479 1.125.479.458 1.146.458ZM11.333 20H28.75v-1.708q0-3.709-2.521-6.209-2.521-2.5-6.187-2.5-3.667 0-6.188 2.5t-2.521 6.209ZM14 17.333q.292-2.291 2.042-3.708 1.75-1.417 4-1.417 2.208 0 3.958 1.417t2.042 3.708ZM6.667 37.542q-1.75 0-2.98-1.23-1.229-1.229-1.229-2.979V6.667q0-1.792 1.229-3.021 1.23-1.229 2.98-1.229h26.666q1.792 0 3.021 1.229 1.229 1.229 1.229 3.021v26.666q0 1.75-1.229 2.979-1.229 1.23-3.021 1.23Zm0-4.209h26.666V6.667H6.667v26.666Zm0 0V6.667v26.666Z"/></svg>