<svg xmlns="http://www.w3.org/2000/svg" height="48" width="48"><path d="M17.9 36q.65 0 1.125-.45t.475-1.15q0-.65-.45-1.125T17.9 32.8q-.65 0-1.125.475T16.3 34.45q0 .65.45 1.1.45.45 1.15.45Zm6.15 0q.65 0 1.125-.45t.475-1.15q0-.65-.45-1.125t-1.15-.475q-.65 0-1.125.475t-.475 1.175q0 .65.45 1.1.45.45 1.15.45Zm6.15 0q.65 0 1.125-.45t.475-1.15q0-.65-.45-1.125T30.2 32.8q-.65 0-1.125.475T28.6 34.45q0 .65.45 1.1.45.45 1.15.45Zm-12.3-6.25q.65 0 1.125-.45t.475-1.15q0-.65-.45-1.1-.45-.45-1.15-.45-.65 0-1.125.45T16.3 28.2q0 .65.45 1.1.45.45 1.15.45Zm6.15 0q.65 0 1.125-.45t.475-1.15q0-.65-.45-1.1-.45-.45-1.15-.45-.65 0-1.125.45t-.475 1.15q0 .65.45 1.1.45.45 1.15.45Zm6.15 0q.65 0 1.125-.45t.475-1.15q0-.65-.45-1.1-.45-.45-1.15-.45-.65 0-1.125.45T28.6 28.2q0 .65.45 1.1.45.45 1.15.45ZM15.15 22.5h17.8v-.6q0-3.65-2.6-6.275Q27.75 13 24.05 13q-3.7 0-6.3 2.625-2.6 2.625-2.6 6.275Zm1.7-1.65q.4-2.7 2.425-4.45t4.775-1.75q2.75 0 4.775 1.75 2.025 1.75 2.425 4.45ZM9.15 42.2q-1.35 0-2.35-1t-1-2.35V9.15q0-1.4 1-2.375 1-.975 2.35-.975h29.7q1.4 0 2.375.975.975.975.975 2.375v29.7q0 1.35-.975 2.35t-2.375 1Zm0-1.75h29.7q.6 0 1.1-.5.5-.5.5-1.1V9.15q0-.6-.5-1.1-.5-.5-1.1-.5H9.15q-.6 0-1.1.5-.5.5-.5 1.1v29.7q0 .6.5 1.1.5.5 1.1.5Zm-1.6 0V7.55v32.9Z"/></svg>