<svg xmlns="http://www.w3.org/2000/svg" height="48" viewBox="0 -960 960 960" width="48"><path d="M830-229 708-108q-7 7-15 10t-17 3h-62q-20 0-33.5-13.5T567-142v-62q0-9 3-17t10-15l121-121 129 128ZM189-95q-40 0-67-27t-27-67v-493q0-16 5.5-31t15.5-28l73-95q13-16 31-23t38-7h444q19 0 37 7t31 23l75 95q9 13 15 28t6 31v167q-23-10-47.5-8T771-507q-4 3-8.5 6t-8.5 7l-100 99v-244H307v267q0 26 22 40.5t45 2.5l106-53 107 54-52 54q-13 13-20.5 30t-7.5 36v66q0 20-14 33.5T459-95H189Zm670-163L730-386l66-66q15-15 34-15t33 15l61 61q15 14 15 33t-15 34l-65 66ZM223-726h513l-36-46H259l-36 46Z"/></svg>