<svg xmlns="http://www.w3.org/2000/svg" height="24" viewBox="0 -960 960 960" width="24"><path d="M480.03-420q8.51 0 14.24-5.75T500-440v-200q0-8.5-5.76-14.25T479.97-660q-8.51 0-14.24 5.75T460-640v200q0 8.5 5.76 14.25t14.27 5.75Zm120-60q8.51 0 14.24-5.75T620-500v-100q0-8.5-5.76-14.25T599.97-620q-8.51 0-14.24 5.75T580-600v100q0 8.5 5.76 14.25t14.27 5.75Zm-240-20q8.51 0 14.24-5.75T380-520v-80q0-8.5-5.76-14.25T359.97-620q-8.51 0-14.24 5.75T340-600v80q0 8.5 5.76 14.25t14.27 5.75ZM300-120q-8.5 0-14.25-5.75T280-140v-130.46q-57-52-88.5-116.89Q160-452.23 160-520.56q0-133.1 93.33-226.27Q346.67-840 480-840q108.08 0 195.35 65.81t113.19 169.96l41.47 164.17q3.99 15.21-5.7 27.64Q814.62-400 798.46-400H720v135.38q0 26.66-18.98 45.64T655.38-200H560v60q0 8.5-5.75 14.25T540-120H300Z"/></svg>