<svg xmlns="http://www.w3.org/2000/svg" height="40" width="40"><path d="M16.667 18.708ZM3.208 33.458V13.292L16.667 3.208l11.416 8.542q-1.083.042-2.104.271-1.021.229-2.021.604l-7.291-5.458-10.292 7.708v15.417H16.5q.375.875.833 1.646.459.77 1.084 1.52Zm18.125-.75q-1.583-1.541-2.479-3.541-.896-2-.896-4.167 0-4.458 3.104-7.542 3.105-3.083 7.563-3.083t7.542 3.083Q39.25 20.542 39.25 25q0 2.167-.875 4.167t-2.458 3.5l-1.459-1.5q1.292-1.209 1.98-2.792.687-1.583.687-3.375 0-3.583-2.479-6.062-2.479-2.48-6.021-2.48t-6.042 2.48q-2.5 2.479-2.5 6.062 0 1.792.709 3.396.708 1.604 2.041 2.771Zm2.959-3q-1-.916-1.584-2.146-.583-1.229-.583-2.562 0-2.708 1.917-4.583 1.916-1.875 4.583-1.875 2.708 0 4.583 1.875T35.083 25q0 1.333-.541 2.562Q34 28.792 33 29.75l-1.542-1.5q.709-.625 1.104-1.479.396-.854.396-1.771 0-1.833-1.25-3.104-1.25-1.271-3.083-1.271-1.792 0-3.083 1.271Q24.25 23.167 24.25 25q0 .917.417 1.75.416.833 1.083 1.5Zm3.25 5.375v-8.5q-.375-.291-.604-.708-.23-.417-.23-.875 0-.792.563-1.333.562-.542 1.354-.542t1.333.542q.542.541.542 1.333 0 .458-.208.875-.209.417-.625.708v8.5Z"/></svg>