<svg xmlns="http://www.w3.org/2000/svg" height="24" viewBox="0 -960 960 960" width="24"><path d="M243.39-360h60v-240h-96.61v60h36.61v180ZM380-360h100q17 0 28.5-11.5T520-400v-160q0-17-11.5-28.5T480-600H380q-17 0-28.5 11.5T340-560v160q0 17 11.5 28.5T380-360Zm20-60v-120h60v120h-60Zm151.35 60h60v-90l70 90h71.87l-91.87-120 91.87-120h-71.87l-70 90v-90h-60v240ZM206.78-100.78q-44.3 0-75.15-30.85-30.85-30.85-30.85-75.15v-546.44q0-44.3 30.85-75.15 30.85-30.85 75.15-30.85h546.44q44.3 0 75.15 30.85 30.85 30.85 30.85 75.15v546.44q0 44.3-30.85 75.15-30.85 30.85-75.15 30.85H206.78Zm0-106h546.44v-546.44H206.78v546.44Zm0-546.44v546.44-546.44Z"/></svg>