<svg xmlns="http://www.w3.org/2000/svg" height="24" viewBox="0 -960 960 960" width="24"><path d="M206.31-108q-41.03 0-69.67-28.64T108-206.31v-547.38q0-41.03 28.64-69.67T206.31-852h547.38q41.03 0 69.67 28.64T852-753.69v547.38q0 41.03-28.64 69.67T753.69-108H206.31ZM766-314H194v107.69q0 4.62 3.85 8.46 3.84 3.85 8.46 3.85h547.38q4.62 0 8.46-3.85 3.85-3.84 3.85-8.46V-314Zm-101.69-86H766v-353.69q0-4.62-3.85-8.46-3.84-3.85-8.46-3.85h-89.38v366ZM194-400h101.69v-366h-89.38q-4.62 0-8.46 3.85-3.85 3.84-3.85 8.46V-400Zm187.69 0h196.62v-366H381.69v366Z"/></svg>