<svg xmlns="http://www.w3.org/2000/svg" height="48" viewBox="0 -960 960 960" width="48"><path d="m687.96-364.56-40.31-41.87q12.96-16.27 19.72-35.44 6.76-19.17 6.76-40.13 0-18-4.28-35.28-4.28-17.29-15.08-31.85-8.2-10.44-3.92-21.55 4.28-11.11 13.15-16.89 8.99-6 21.48-4.5t22.14 15.81q13.51 21.26 20.01 44.76 6.5 23.5 6.5 48.5 0 32.82-12.04 63.56-12.05 30.74-34.13 54.88Zm83.43 87-40.43-43q30.52-33.43 47.13-74.45Q794.7-436.03 794.7-481q0-42.04-14.29-77.58-14.28-35.54-41.71-66.85-9.57-10.57-6.57-22.07t12.95-18.5q9.95-7 22.89-6.5 12.93.5 25.58 15.5 30.07 38.31 45.61 83.34Q854.7-528.62 854.7-481q0 57.64-21.61 110.19t-61.7 93.25ZM840.3-15.09 38.83-830q-9.13-10.13-9.63-22.92-.5-12.78 9.63-23.26 10.13-10.47 23.26-10.47t23.26 10.69L887.26-61.61q10.13 10.13 9.63 23.26t-10.63 23.26Q876.13-4.95 863-4.95t-22.7-10.14ZM274.7-933h419.08q32.67 0 55.94 23.28Q773-886.45 773-853.78v34.17q0 16.71-11.78 28.16Q749.43-780 732.65-780t-28.11-11.73q-11.32-11.74-11.32-28.44v-33.61H195.48q0-31.93 23.28-55.58Q242.03-933 274.7-933ZM479-708.7q13.92 0 23.66-9.73 9.73-9.73 9.73-23.66 0-13.92-9.73-23.65-9.74-9.74-23.66-9.74t-23.66 9.74q-9.73 9.73-9.73 23.65 0 13.93 9.73 23.66 9.74 9.73 23.66 9.73ZM266.22-27q-32.67 0-55.94-23.28Q187-73.55 187-106.22v-667.21l79.22 80.78v586.43H693.5h-.28v-152.43L773-177.3v71.08q0 31.54-22.86 55.38Q727.27-27 694.35-27H266.22Zm167.39-371.65Zm83.96-129.22Z"/></svg>