<svg xmlns="http://www.w3.org/2000/svg" height="24" viewBox="0 -960 960 960" width="24"><path d="M125.62-269.65q-21.66 0-37.45-15.5-15.78-15.5-15.78-37.5v-262.26H43.96q-21.76 0-37.1-15.55Q-8.48-616-8.48-638.07q0-21.83 15.5-37.05 15.5-15.23 37.5-15.23h80.87q21.76 0 37.1 15.34t15.34 37.1v315.82q0 21.76-15.28 37.1-15.27 15.34-36.93 15.34Zm639.95-103.22-36.74 73.22q-7.57 14-20.42 22-12.86 8-28.28 8-31.5 0-47.32-26.63-15.81-26.63-1.24-53.76L699.74-484l-63.17-125.39q-14.14-27.13 1.61-54.04 15.74-26.92 46.73-26.92 16.85 0 30.22 8.29 13.37 8.28 21.13 23.15l31.31 66.65 32.17-68.09q7.13-14 20.31-22 13.17-8 28.38-8 31.78 0 48.02 26.63 16.25 26.63 1.12 53.76l-64.18 125.39 68.18 132.96q14.56 28.13-1.72 55.04-16.28 26.92-47.63 26.92-15.57 0-28.86-7.79-13.29-7.78-21.06-22.21l-36.73-73.22ZM440.91-269.65q-26.75 0-42.85-20.63t-9.54-46.89l64.61-247.74H348.91q-21.76 0-37.09-15.55-15.34-15.54-15.34-37.61 0-21.83 15.5-37.05 15.5-15.23 37.5-15.23h118.04q39.79 0 68.66 25.99 28.86 25.98 28.86 64.06 0 4.69-3 21L493.3-309.91q-5 17.56-19.34 28.91-14.35 11.35-33.05 11.35Zm-180.2 0q-21.67 0-37.45-15.43-15.78-15.44-15.78-37.33 0-21.66 15.54-37.17 15.55-15.51 37.62-15.51 21.82 0 37.05 15.39 15.22 15.38 15.22 37.22 0 21.83-15.27 37.33t-36.93 15.5Z"/></svg>