<svg xmlns="http://www.w3.org/2000/svg" height="40" viewBox="0 -960 960 960" width="40"><path d="M480-865.83q-95.27 0-181.89 35.58-86.61 35.58-159.44 96.92H248.5q8.87 0 15.19 6.33 6.31 6.33 6.31 15.22 0 9.28-6.31 15.53-6.32 6.25-15.19 6.25h-130q-13.33 0-22.58-9.25-9.25-9.25-9.25-22.58v-130q0-8.88 6.3-15.19 6.31-6.31 15.42-6.31t15.36 6.31q6.25 6.31 6.25 15.19V-783q76-59.17 164.6-92.67 88.61-33.5 185.46-33.5 96.85 0 185.4 33.5Q754-842.17 830-783v-68.83q0-8.88 6.31-15.19 6.31-6.31 15.42-6.31 9.1 0 15.35 6.31t6.25 15.19v130q0 13.33-9.27 22.58-9.28 9.25-22.23 9.25h-130q-9.25 0-15.54-6.31-6.29-6.31-6.29-15.42 0-9.1 6.29-15.35t15.54-6.25h109.5q-72.83-61.34-159.44-96.92-86.62-35.58-181.89-35.58Zm-9 779.16q-21.88 0-42.27-8.25-20.4-8.25-36.73-24.58L201.83-309.83q-8.33-8-9.66-19.7-1.34-11.69 5.5-21.64l1-1q12-16.83 31.16-23.25 19.17-6.41 39.34-.41l92.66 28.33v-330.33q0-12.95 9.12-22.23 9.12-9.27 22.5-9.27t22.55 9.27q9.17 9.28 9.17 22.23v372q0 16.04-13.05 25.6-13.04 9.56-27.95 4.73l-84-25.17 136.95 136.96q6.55 6.71 15.37 10.21 8.83 3.5 18.63 3.5h164.05q39.36 0 67.1-27.7Q730-205.41 730-245.17v-172.66q0-12.95 9.28-22.23 9.29-9.27 22.5-9.27 13.22 0 22.39 9.27 9.16 9.28 9.16 22.23v172.74q0 65.76-46.33 112.09T635.17-86.67H471Zm45.45-482.66q13.22 0 22.38 9.27 9.17 9.28 9.17 22.23v132.66q0 13.34-9.31 22.59t-22.31 9.25q-13.38 0-22.55-9.25-9.16-9.25-9.16-22.59v-132.66q0-12.95 9.28-22.23 9.28-9.27 22.5-9.27Zm122.33 40q13.39 0 22.55 9.27 9.17 9.28 9.17 22.23v92.66q0 13.34-9.28 22.59-9.29 9.25-22.67 9.25-13.38 0-22.38-9.25-9-9.25-9-22.59v-92.66q0-12.95 9.11-22.23 9.12-9.27 22.5-9.27ZM575-270.5Z"/></svg>