<svg xmlns="http://www.w3.org/2000/svg" height="20" width="20"><path d="M9.125 17.604q-2.687-.292-4.542-2.292-1.854-2-1.854-4.75 0-1.479.615-2.791.614-1.313 1.594-2.313L10 .479l5.062 4.979q.834.792 1.386 1.823.552 1.031.74 2.198h-2.646q-.146-.625-.48-1.146-.333-.521-.812-.979L10 4.146 6.75 7.354q-.604.667-1.01 1.469-.407.802-.407 1.739 0 1.646 1.073 2.886Q7.479 14.688 9.125 15Zm.813-8.083Zm1.041 3.854-.667-1.521q.667-.333 1.313-.552.646-.219 1.292-.219.5 0 .979.115.479.114.958.302.354.146.729.271.375.125.75.125.459 0 .948-.177.49-.177.99-.469l.667 1.542q-.646.312-1.303.531-.656.219-1.302.219-.5 0-.958-.115-.458-.115-.937-.302-.355-.146-.75-.271-.396-.125-.771-.125-.459 0-.948.188-.49.187-.99.458Zm0 2.458-.667-1.521q.667-.333 1.313-.552.646-.218 1.292-.218.5 0 .979.114.479.115.958.302.354.146.729.271.375.125.75.125.459 0 .948-.177.49-.177.99-.469l.667 1.542q-.646.312-1.303.531-.656.219-1.302.219-.5 0-.958-.115-.458-.114-.937-.302-.355-.145-.75-.271-.396-.124-.771-.124-.459 0-.948.187-.49.187-.99.458Zm0 2.459-.667-1.521q.667-.333 1.313-.552.646-.219 1.292-.219.5 0 .979.115.479.114.958.302.354.145.729.271.375.124.75.124.459 0 .948-.177.49-.177.99-.468l.667 1.541q-.646.313-1.303.532-.656.218-1.302.218-.5 0-.958-.114-.458-.115-.937-.302-.355-.146-.75-.271-.396-.125-.771-.125-.459 0-.948.187-.49.188-.99.459Z"/></svg>