<svg xmlns="http://www.w3.org/2000/svg" height="24" viewBox="0 -960 960 960" width="24"><path d="M597-243h326v86H597v-86ZM480-478.13q48.75 0 82.88-34.13Q597-546.38 597-595.13q0-48.75-34.12-82.88-34.13-34.12-82.88-34.12-48.75 0-82.87 34.12Q363-643.88 363-595.13q0 48.75 34.13 82.87 34.12 34.13 82.87 34.13ZM120.87-120.87v-718.26h718.26v410q-19.18-7.17-39.09-10.52Q780.14-443 760-443q-101.65 0-172.33 71.67Q517-299.65 517-198q0 19.64 3.35 39.04 3.35 19.41 10.52 38.09h-410ZM401-576.13v-40h40v40h-40Zm59 0v-40h40v40h-40Zm59 0v-40h40v40h-40Z"/></svg>