<svg xmlns="http://www.w3.org/2000/svg" height="20" width="20"><path d="M11.5 12.5Q11.75 12.5 11.938 12.312Q12.125 12.125 12.125 11.854V10.583L13.396 12.271Q13.479 12.375 13.583 12.438Q13.688 12.5 13.833 12.5Q14.229 12.5 14.396 12.156Q14.562 11.812 14.333 11.5L13.208 10L14.375 8.438Q14.604 8.167 14.438 7.823Q14.271 7.479 13.875 7.479Q13.75 7.479 13.615 7.552Q13.479 7.625 13.417 7.708L12.125 9.417V8.083Q12.125 7.833 11.948 7.656Q11.771 7.479 11.5 7.479Q11.229 7.479 11.042 7.667Q10.854 7.854 10.854 8.104V11.875Q10.854 12.146 11.031 12.323Q11.208 12.5 11.5 12.5ZM7.583 12.5Q7.833 12.5 8 12.354Q8.167 12.208 8.25 12L9.375 8.583Q9.521 8.188 9.229 7.833Q8.938 7.479 8.521 7.479H6.229Q5.958 7.479 5.781 7.656Q5.604 7.833 5.604 8.125Q5.604 8.396 5.792 8.583Q5.979 8.771 6.25 8.771H7.854L6.917 11.604Q6.812 11.938 7.021 12.219Q7.229 12.5 7.583 12.5ZM4.5 18.417Q3.271 18.417 2.427 17.573Q1.583 16.729 1.583 15.5V4.5Q1.583 3.271 2.427 2.427Q3.271 1.583 4.5 1.583H15.5Q16.729 1.583 17.573 2.427Q18.417 3.271 18.417 4.5V15.5Q18.417 16.729 17.573 17.573Q16.729 18.417 15.5 18.417ZM4.5 15.5H15.5Q15.5 15.5 15.5 15.5Q15.5 15.5 15.5 15.5V4.5Q15.5 4.5 15.5 4.5Q15.5 4.5 15.5 4.5H4.5Q4.5 4.5 4.5 4.5Q4.5 4.5 4.5 4.5V15.5Q4.5 15.5 4.5 15.5Q4.5 15.5 4.5 15.5ZM4.5 4.5Q4.5 4.5 4.5 4.5Q4.5 4.5 4.5 4.5V15.5Q4.5 15.5 4.5 15.5Q4.5 15.5 4.5 15.5Q4.5 15.5 4.5 15.5Q4.5 15.5 4.5 15.5V4.5Q4.5 4.5 4.5 4.5Q4.5 4.5 4.5 4.5Z"/></svg>