<svg xmlns="http://www.w3.org/2000/svg" height="20" viewBox="0 -960 960 960" width="20"><path d="M479.78-63.48q-35.02 0-58.24-24.08-23.21-24.09-21.45-60.46h159.82q1.76 36.67-21.67 60.61-23.44 23.93-58.46 23.93Zm.14-741.63q-39.77 0-74.55 12.66-34.78 12.67-62.78 36.43l-74.02-74.78q37.23-37.72 92.95-58.6 55.72-20.88 119.01-20.88 133.74 0 227.52 93.79 93.78 93.8 93.78 227.79 0 55.72-20.98 112.46-20.98 56.74-59.98 100.22l-73.78-73.78q27.24-34.48 38.4-70.65 11.16-36.16 11.16-68.25 0-90.36-63.16-153.38-63.17-63.03-153.57-63.03Zm369.25 662.94-68.76 68.76-241.45-241.46H310.28q-71.95-43.52-112.03-117.05T158.17-588.7q0-21.78 3.74-45.97 3.74-24.2 10.5-47.69L49.09-803.74l69.76-69.76 730.32 731.33ZM343.43-420.04h90.35L265.07-588.52q-1 6.24-1 10.06v6.7q1.67 34.41 22.23 78.56 20.57 44.16 57.13 73.16Zm8.85-81.5Zm139.44-116.11Zm160.04 337.32v97.76H320.24v-97.76h331.52Z"/></svg>