<svg xmlns="http://www.w3.org/2000/svg" height="24" viewBox="0 -960 960 960" width="24"><path d="M339.78-233.78q-44.3 0-75.15-30.85-30.85-30.85-30.85-75.15v-466.44q0-44.3 30.85-75.15 30.85-30.85 75.15-30.85h466.44q44.3 0 75.15 30.85 30.85 30.85 30.85 75.15v466.44q0 44.3-30.85 75.15-30.85 30.85-75.15 30.85H339.78Zm-186 186q-44.3 0-75.15-30.85-30.85-30.85-30.85-75.15v-519.44q0-22.08 15.46-37.54 15.45-15.46 37.54-15.46t37.55 15.46q15.45 15.46 15.45 37.54v519.44h519.44q22.08 0 37.54 15.45 15.46 15.46 15.46 37.55 0 22.09-15.46 37.54-15.46 15.46-37.54 15.46H153.78Zm372.83-404.18L573-498.35l46.96 46.96q15.52 15.52 37.32 15.24 21.81-.28 37.33-15.81 15.52-15.52 15.52-37.32 0-21.81-15.52-37.33L647.65-573l46.96-46.96q15.52-15.52 15.52-37.32 0-21.81-15.52-37.33t-37.33-15.52q-21.8 0-37.32 15.52L573-647.65l-46.96-46.96q-15.52-15.52-37.04-15.52t-37.04 15.52q-15.53 15.52-15.53 37.33 0 21.8 15.53 37.32L498.35-573l-46.96 46.96q-15.52 15.52-15.24 37.04.28 21.52 15.81 37.04 15.52 15.53 37.32 15.53 21.81 0 37.33-15.53Z"/></svg>