<svg xmlns="http://www.w3.org/2000/svg" height="48" width="48"><path d="M9.55 43Q7.65 43 6.325 41.675Q5 40.35 5 38.45V9.55Q5 7.65 6.325 6.275Q7.65 4.9 9.55 4.9H38.45Q40.35 4.9 41.725 6.275Q43.1 7.65 43.1 9.55V38.45Q43.1 40.35 41.725 41.675Q40.35 43 38.45 43ZM12.75 16.4H20.25Q20.9 16.4 21.35 15.975Q21.8 15.55 21.8 14.9Q21.8 14.3 21.35 13.85Q20.9 13.4 20.25 13.4H12.75Q12.1 13.4 11.675 13.825Q11.25 14.25 11.25 14.9Q11.25 15.5 11.675 15.95Q12.1 16.4 12.75 16.4ZM9.55 38.45H38.45Q38.45 38.45 38.45 38.45Q38.45 38.45 38.45 38.45V9.55Q38.45 9.55 38.45 9.55Q38.45 9.55 38.45 9.55L9.55 38.45Q9.55 38.45 9.55 38.45Q9.55 38.45 9.55 38.45ZM30.25 36.1Q29.65 36.1 29.2 35.675Q28.75 35.25 28.75 34.65V31.75H25.85Q25.25 31.75 24.825 31.325Q24.4 30.9 24.4 30.25Q24.4 29.65 24.825 29.2Q25.25 28.75 25.85 28.75H28.75V25.85Q28.75 25.25 29.175 24.8Q29.6 24.35 30.25 24.35Q30.85 24.35 31.3 24.8Q31.75 25.25 31.75 25.85V28.75H34.65Q35.25 28.75 35.7 29.175Q36.15 29.6 36.15 30.25Q36.15 30.85 35.7 31.3Q35.25 31.75 34.65 31.75H31.75V34.65Q31.75 35.25 31.325 35.675Q30.9 36.1 30.25 36.1Z"/></svg>