<svg xmlns="http://www.w3.org/2000/svg" height="20" width="20"><path d="M14.042 17.146q-1.292 0-2.167-.875Q11 15.396 11 14.104q0-1.312.875-2.208Q12.75 11 14.042 11q1.312 0 2.208.896.896.896.896 2.208 0 1.292-.896 2.167-.896.875-2.208.875Zm-.271-.75h.583v-2.021h2.021v-.563h-2.021v-2.041h-.583v2.041H11.75v.563h2.021Zm-3.896.687q-2.271-.75-3.813-2.895-1.541-2.146-1.541-4.917V4.979l5.5-2.041 5.479 2.02V9.5q-.333-.104-.698-.156-.364-.052-.74-.052-2 0-3.374 1.406-1.376 1.406-1.376 3.385 0 .542.198 1.344t.761 1.49q-.083.062-.198.093-.115.032-.198.073Z"/></svg>