<svg xmlns="http://www.w3.org/2000/svg" height="20" width="20"><path d="M0.833 14.167V5.833H2.583V12.417H9.125V5.833H15.771Q17.188 5.833 18.177 6.823Q19.167 7.812 19.167 9.229V14.167ZM10.875 12.417H17.417V9.229Q17.417 8.542 16.938 8.062Q16.458 7.583 15.792 7.583H10.875ZM10.875 7.583Q10.875 7.583 10.875 7.583Q10.875 7.583 10.875 7.583V12.417ZM5.875 11.688Q6.938 11.688 7.698 10.938Q8.458 10.188 8.458 9.125Q8.458 8.042 7.708 7.281Q6.958 6.521 5.875 6.521Q4.792 6.521 4.042 7.281Q3.292 8.042 3.292 9.125Q3.292 10.188 4.052 10.938Q4.812 11.688 5.875 11.688ZM5.875 9.938Q5.521 9.938 5.281 9.708Q5.042 9.479 5.042 9.125Q5.042 8.771 5.281 8.521Q5.521 8.271 5.875 8.271Q6.229 8.271 6.469 8.521Q6.708 8.771 6.708 9.125Q6.708 9.479 6.469 9.708Q6.229 9.938 5.875 9.938ZM5.875 9.104Q5.875 9.104 5.875 9.104Q5.875 9.104 5.875 9.104Q5.875 9.104 5.875 9.104Q5.875 9.104 5.875 9.104Q5.875 9.104 5.875 9.104Q5.875 9.104 5.875 9.104Q5.875 9.104 5.875 9.104Q5.875 9.104 5.875 9.104Z"/></svg>