<svg xmlns="http://www.w3.org/2000/svg" height="40" viewBox="0 -960 960 960" width="40"><path d="M149.62 0q-28.86 0-49.24-20.67Q80-41.35 80-70.44q0-29.1 20.7-49.4 20.69-20.3 49.82-20.3h659.86q28.86 0 49.24 20.42Q880-99.31 880-70.4q0 28.9-20.7 49.65Q838.61 0 809.48 0H149.62Zm10.06-284.88v-88.78q0-7.72 2.61-14.64 2.62-6.92 8.51-12.82l466.03-466.02q10.23-10.22 22.79-15.01 12.57-4.78 25.71-4.78 13.15 0 26.25 4.78 13.11 4.79 22.92 15.11l45.28 45.05q10.47 9.55 15.59 22.78 5.11 13.22 5.11 26.61 0 12.81-4.94 25.39-4.95 12.58-15.53 22.95L313.83-258.08q-5.89 5.89-12.62 8.58-6.74 2.7-13.99 2.7h-89.44q-16.1 0-27.1-10.95-11-10.96-11-27.13Zm522.2-441.48 47.41-47.24-42.81-43.05-47.65 47.48 43.05 42.81Z"/></svg>