<svg xmlns="http://www.w3.org/2000/svg" height="20" viewBox="0 -960 960 960" width="20"><path d="M480-510.67Zm0 0Zm0 0Zm270.89 409.06L106.15-746.35q-11.48-11.51-11.48-26.71 0-15.2 11.51-26.68 11.5-11.48 26.69-11.48 15.2 0 26.67 11.48L804.28-154q11.48 11.52 11.48 26.22 0 14.69-11.5 26.17-11.51 11.48-26.7 11.48t-26.67-11.48ZM552-594.78q-51.04 0-91.14-30.09t-53.45-79.65q-1.76 2-3.38 3-1.62 1-3.62 3-10.28 5.98-22.37 3.82-12.08-2.15-22.84-12.67-13.16-12.91-13.54-30.28-.38-17.37 12.77-30.05l28.37-26.22q15.05-13.91 29.9-26.47 21.63-17.15 46.85-4.48 25.23 12.67 25.23 41.5V-745q0 27.97 19.62 47.59 19.61 19.63 47.6 19.63 15.94 0 29.53-6.56 13.59-6.55 22.88-18.77 7.96-9.19 20.25-11.43 12.3-2.24 22.49 5.71 56.44 44.44 91.03 120.01 34.6 75.58 34.6 156.82 0 9.16-.14 17.45t-1.9 17.62q-1.76 15.67-16.44 24.03-14.67 8.36-31.06 6.03-10.11-4.63-12.98-8.05-2.87-3.43-4.48-8.23-1.61-4.81-4.18-12.9-2.58-8.1-12.1-21.32-.67 6.2-.2-2.29.48-8.49.48-12.34 0-48.37-16.21-95.98-16.21-47.61-46.77-88.13-17 10.04-35.26 15.69-18.26 5.64-39.54 5.64Zm-72 455.56q-122 0-207.39-85.39Q187.22-310 187.22-432q0-61.48 23.36-124.7 23.35-63.21 68.07-124.17l58.65 59.65q-32.8 46.81-49.94 93.49-17.14 46.69-17.14 95.73 0 40.98 16.39 78.17 16.39 37.2 46.13 67.05-.76-3.81-1.26-7.85-.5-4.04-.5-7.85 1.43-25.32 11.55-47.77 10.12-22.45 26.17-39.49l93.56-106.52 56.89 57.89-88.8 104.28q-8.32 9.33-12.94 20.47-4.63 11.15-4.63 24.23 0 28.04 19.61 47.61 19.61 19.56 47.65 19.56 28.05 0 47.61-19.59 19.57-19.59 19.57-47.62 0-12.81-4.52-24.21-4.53-11.4-12.81-20.69l49.15-45.15 128.07 129.07q-39.63 51.55-98.51 81.37-58.88 29.82-128.6 29.82Z"/></svg>