<svg xmlns="http://www.w3.org/2000/svg" height="20" width="20"><path d="M10 15.938q-.125 0-.25-.063t-.229-.167L1.812 8q-.208-.188-.197-.448.01-.26.218-.427Q3.562 5.729 5.656 5.01 7.75 4.292 10 4.292q2.25 0 4.344.718 2.094.719 3.823 2.136.208.166.229.396.021.229-.125.375l-.021.021q-.5-.459-1.198-.709-.698-.25-1.344-.25-1.583 0-2.698 1.115-1.114 1.114-1.114 2.677 0 .812.281 1.479t.698 1.062l-2.396 2.396q-.104.104-.229.167-.125.063-.25.063Zm5.667-2.084q-.146 0-.261-.094-.114-.093-.114-.26.083-.5.281-.875t.719-.937q.396-.376.552-.657.156-.281.156-.573 0-.437-.292-.791-.291-.355-.937-.355-.438 0-.74.188t-.51.438q-.104.124-.25.166-.146.042-.271 0-.146-.062-.198-.198-.052-.135.031-.281.271-.417.782-.729.51-.313 1.156-.313.896 0 1.448.511.552.51.552 1.385 0 .438-.209.781-.208.344-.833.969-.312.333-.469.604-.156.271-.198.667 0 .167-.114.26-.115.094-.281.094Zm0 1.854q-.209 0-.355-.135-.145-.135-.145-.365 0-.208.145-.343.146-.136.355-.136.208 0 .354.136.146.135.146.364 0 .209-.146.344-.146.135-.354.135Z"/></svg>