<svg xmlns="http://www.w3.org/2000/svg" height="24" width="24"><path d="M12 18.85Q11.85 18.85 11.725 18.8Q11.6 18.75 11.475 18.625L2.35 9.5Q2.15 9.3 2.15 9.012Q2.15 8.725 2.375 8.55Q4.425 6.925 6.887 6.113Q9.35 5.3 12 5.3Q14.65 5.3 17.113 6.125Q19.575 6.95 21.625 8.575Q21.85 8.75 21.863 9Q21.875 9.25 21.75 9.375Q21.2 8.95 20.425 8.725Q19.65 8.5 19 8.5Q17.125 8.5 15.812 9.825Q14.5 11.15 14.5 13Q14.5 13.875 14.775 14.6Q15.05 15.325 15.4 15.75L12.525 18.625Q12.4 18.75 12.275 18.8Q12.15 18.85 12 18.85ZM18.95 16.8Q18.8 16.8 18.7 16.7Q18.6 16.6 18.6 16.45Q18.65 15.775 18.888 15.325Q19.125 14.875 19.8 14.15Q20.275 13.675 20.488 13.3Q20.7 12.925 20.7 12.575Q20.7 12.025 20.325 11.537Q19.95 11.05 19.075 11.05Q18.5 11.05 18.113 11.3Q17.725 11.55 17.45 11.9Q17.35 12.025 17.2 12.062Q17.05 12.1 16.925 12.05Q16.8 12 16.763 11.863Q16.725 11.725 16.8 11.6Q17.15 11.1 17.738 10.725Q18.325 10.35 19.075 10.35Q20.1 10.35 20.75 10.95Q21.4 11.55 21.4 12.575Q21.4 13.15 21.15 13.575Q20.9 14 20.15 14.75Q19.7 15.2 19.525 15.55Q19.35 15.9 19.3 16.45Q19.3 16.6 19.2 16.7Q19.1 16.8 18.95 16.8ZM18.95 18.8Q18.725 18.8 18.587 18.663Q18.45 18.525 18.45 18.3Q18.45 18.075 18.587 17.938Q18.725 17.8 18.95 17.8Q19.175 17.8 19.312 17.938Q19.45 18.075 19.45 18.3Q19.45 18.525 19.312 18.663Q19.175 18.8 18.95 18.8Z"/></svg>