<svg xmlns="http://www.w3.org/2000/svg" height="20" width="20"><path d="M8.542 15.625h2.916v-2.5h2.5v-2.917h-2.5v-2.5H8.542v2.5h-2.5v2.917h2.5Zm-4.917 3.813q-1.229 0-2.073-.844-.844-.844-.844-2.073V7.167q0-1.229.844-2.073.844-.844 2.073-.844h2.104V2.938q0-1.23.844-2.073.844-.844 2.073-.844h2.708q1.229 0 2.073.844.844.843.844 2.073V4.25h2.104q1.229 0 2.073.844.844.844.844 2.073v9.354q0 1.229-.844 2.073-.844.844-2.073.844ZM8.646 4.25h2.708V2.938H8.646ZM3.625 16.521h12.75V7.167H3.625v9.354Zm0-9.354v9.354Z"/></svg>