<svg xmlns="http://www.w3.org/2000/svg" height="40" viewBox="0 -960 960 960" width="40"><path d="M701.91-116.92q-67.42 0-113.69-46.57-46.28-46.56-46.28-113.88t46.28-113.77q46.28-46.46 113.51-46.46 67.24 0 114.07 46.46 46.82 46.47 46.82 113.69 0 67.4-46.67 113.96-46.68 46.57-114.04 46.57Zm-.2-87.35q30.17 0 51.87-21.48 21.7-21.49 21.7-51.92 0-29.99-21.7-51.29-21.7-21.29-51.87-21.29-30.17 0-51.3 21.36-21.12 21.37-21.12 51.54 0 30.17 21.12 51.63 21.13 21.45 51.3 21.45Zm-284.13-28.28H147.93q-18.85 0-31.9-13.21-13.06-13.21-13.06-31.74 0-18.53 13.06-31.5 13.05-12.97 31.9-12.97h269.65q18.18 0 31.32 13.09t13.14 31.61q0 18.53-13.14 31.62-13.14 13.1-31.32 13.1ZM258.94-522.4q-67.27 0-113.84-46.56-46.56-46.57-46.56-113.89 0-67.31 46.57-113.77 46.58-46.46 113.81-46.46 67.22 0 113.76 46.47 46.54 46.46 46.54 113.68 0 67.4-46.5 113.97-46.51 46.56-113.78 46.56Zm.07-87.35q29.88 0 51.37-21.48 21.49-21.49 21.49-51.92 0-29.99-21.56-51.29-21.56-21.29-51.54-21.29-29.97 0-51.43 21.36-21.46 21.37-21.46 51.54 0 30.17 21.49 51.63 21.49 21.45 51.64 21.45Zm553.82-28.28H544.18q-19.19 0-32.08-13.21-12.88-13.21-12.88-31.74 0-18.53 12.88-31.5 12.89-12.97 32.08-12.97h268.65q18.46 0 31.79 13.09 13.33 13.09 13.33 31.62 0 18.52-13.33 31.62-13.33 13.09-31.79 13.09ZM701.87-277.67ZM259.13-683.15Z"/></svg>