<svg xmlns="http://www.w3.org/2000/svg" height="20" viewBox="0 -960 960 960" width="20"><path d="M298-115.62q-27.31 0-45.81-18.72-18.5-18.73-18.5-45.54v-91.27q0-18.77 9.66-34.54 9.65-15.77 26.73-23.62l170.38-83.84v-81.08l-117.92 63.61q-9.46 5.62-20.42 8.23-10.97 2.62-21.43 2.62-24.92 0-46.65-13.46-21.73-13.46-34.19-37-9.46-20.31-9.18-43.07.28-22.77 12.41-43.01l113.08-192-34.48-43.99q-12.37-15.93-3.63-33.81Q286.8-844 307.28-844H456q111.37 0 189.3 79t77.93 191.31v393.77q0 26.82-18.74 45.56-18.74 18.74-45.57 18.74H298Z"/></svg>