<svg xmlns="http://www.w3.org/2000/svg" height="40" viewBox="0 -960 960 960" width="40"><path d="M302-131q-24 0-40-16.34-16-16.35-16-39.55v-63.89q0-16.22 7.83-29.26 7.84-13.05 22.17-20.63L464-398v-122.33l-161.67 83q-8 4.33-16.71 6.66-8.72 2.34-17.1 2.34-22.85 0-41.37-12.03-18.53-12.03-29.57-32.49-9.58-19.59-8.15-41.46 1.43-21.86 12.9-40.02l121-187-27.89-44.39q-9.11-13.28-1.04-27.78 8.06-14.5 24.2-14.5H440q110.56 0 188.28 79.95Q706-668.11 706-554.67V-187q0 23.25-16.71 39.63Q672.58-131 650-131H302Z"/></svg>