<svg xmlns="http://www.w3.org/2000/svg" height="20" viewBox="0 -960 960 960" width="20"><path d="M388.92-255.23q-72.46 0-134.19-33.85-61.73-33.84-101.35-94.07l-47.69-74.16q-7.92-10.84-6.81-24.81 1.12-13.96 10.5-23.57l188.77-200.16q6.47-6.69 15.16-11.03 8.69-4.35 17.61-6.35 8.93-2 18.62.5 9.69 2.5 18.38 6.96L481-648.85l101-64q7.85-4.15 16.81-4.69 8.96-.54 16.34 5.85 7.39 7.15 9.23 15.73 1.85 8.58-2.84 17.19l-119 244.69q-6.69 11.08-17.77 16.23-11.08 5.16-22.62 3.7l-317.77-49.54 36.16 60.77q34.23 53.46 89.19 84.19Q324.69-288 388.92-288h198.93q49.23 0 93.57-17.73 44.35-17.73 78.58-52.73l28.46-28.46h-81.23q-21.08 0-34.46-16.12-13.39-16.11-9.15-37.19l34.15-179.69q2.23-8.08 7.5-13.73 5.27-5.66 12.88-7.12 7.62-1.46 14.47.5 6.84 1.96 12.23 8.35l110.3 131q7.16 7.61 9 17.19 1.85 9.58-2.84 20.19l-15.23 35.69q-31.85 80.23-102.96 126.43-71.12 46.19-155.27 46.19H388.92Z"/></svg>