<svg xmlns="http://www.w3.org/2000/svg" height="20" viewBox="0 96 960 960" width="20"><path d="M702.911 814.501h-90.504q-19.06 0-32.984-13.747-13.924-13.746-13.924-32.543 0-18.798 13.924-32.755 13.924-13.957 32.984-13.957h90.504l-16.281-16.716q-14.392-13.326-13.294-30.066 1.098-16.739 16.049-31.761 14.282-14.457 33.083-14.457t32.67 14.238l91.312 92.373q14.051 14.261 14.051 32.902 0 18.64-14.051 32.878l-91.312 92.373q-13.869 14.238-32.901 13.955-19.032-.283-35.113-16.435-13.255-13.326-14.07-29.783-.816-16.457 13.576-29.783l16.281-16.716Zm-457.434-12-94.283 94.283q-9.826 9.826-25.065 4.38-15.24-5.446-15.24-19.902V370.906q0-39.648 27.042-66.527 27.041-26.88 66-26.88h433.852q38.959 0 65.838 27.03 26.88 27.029 26.88 65.972v159.825q-2.327-3.696-5.093-3.511-2.767.185-5.533.185-20.766 2-41.908 4.815-21.141 2.815-40.468 10.511V370.501H203.891v338.998h283.935q-3.713 12.202-5.783 23.968-2.069 11.767-2.069 24.533 0 10.766.569 22.533.57 11.766 4.283 21.968H245.477Zm58.134-290.261h234.41q17.387 0 29.824-12.227 12.438-12.227 12.438-29.542 0-17.313-12.276-29.751-12.276-12.438-29.662-12.438H303.934q-17.386 0-29.824 12.227-12.438 12.227-12.438 29.541t12.276 29.752q12.276 12.438 29.663 12.438Zm.04 139.478h138.653q17.404 0 29.691-12.227 12.288-12.227 12.288-29.541t-12.288-29.752q-12.287-12.438-29.691-12.438H303.651q-17.403 0-29.691 12.227t-12.288 29.541q0 17.314 12.288 29.752 12.288 12.438 29.691 12.438Zm-99.76 57.781V370.501v338.998Z"/></svg>