<svg xmlns="http://www.w3.org/2000/svg" height="40" width="40"><path d="M24.167 25.083q1.416 0 2.416-1t1-2.416q0-1.417-1-2.417-1-1-2.416-1-.625 0-1.209.208-.583.209-1 .625l-4.333-2.166q.042-.042.042-.125v-.25q0-.084-.042-.125L22 14.25q.458.417 1 .625.542.208 1.167.208 1.416 0 2.416-1t1-2.416q0-1.417-1-2.417-1-1-2.416-1-1.417 0-2.396.979-.979.979-1.021 2.396v.104q0 .063.042.146l-4.459 2.208q-.458-.416-1-.625-.541-.208-1.166-.208-1.417 0-2.417 1-1 1-1 2.417 0 1.416 1 2.416t2.417 1q.625 0 1.166-.208.542-.208 1.042-.625l4.417 2.208q-.042.084-.042.146v.104q.042 1.417 1.042 2.396 1 .979 2.375.979ZM2.458 37.833V5.625q0-1.417 1.042-2.458 1.042-1.042 2.458-1.042h28.084q1.416 0 2.458 1.042 1.042 1.041 1.042 2.458v21.333q0 1.375-1.042 2.438-1.042 1.062-2.458 1.062H9.833Zm3.5-8.458 2.417-2.417h25.667V5.625H5.958Zm0-23.75v23.75Z"/></svg>