<svg xmlns="http://www.w3.org/2000/svg" height="20" viewBox="0 -960 960 960" width="20"><path d="M201-159.69 159.69-201l127-127H206v-58h180v180h-58v-80.69l-127 127Zm558 0-127-127V-206h-58v-180h180v58h-80.69l127 127L759-159.69ZM206-574v-58h80.69l-127-127L201-800.31l127 127V-754h58v180H206Zm368 0v-180h58v80.69l127-127L800.31-759l-127 127H754v58H574Zm-94.33 158.08q-26.56 0-45.16-18.92-18.59-18.92-18.59-45.49 0-26.56 18.92-45.16 18.92-18.59 45.49-18.59 26.56 0 45.16 18.92 18.59 18.92 18.59 45.49 0 26.56-18.92 45.16-18.92 18.59-45.49 18.59Z"/></svg>