<svg xmlns="http://www.w3.org/2000/svg" height="20" viewBox="0 96 960 960" width="20"><path d="M552 931.218q-12.122 0-20.322-8.2t-8.2-20.322v-144q0-12.121 8.2-20.321 8.2-8.201 20.322-8.201h96q12.122 0 20.322 8.201 8.2 8.2 8.2 20.321v144q0 12.122-8.2 20.322t-20.322 8.2h-96Zm28.522-57.044h38.956v-86.956h-38.956v86.956Zm132.695 90.348v-91.478q0-12.122 8.2-20.322t20.322-8.2h67.478v-24h-96v-57.044h124.522q12.122 0 20.322 8.2t8.2 20.322v62.956q0 12.122-8.2 20.322t-20.322 8.2h-67.478v24h96v57.044H713.217Zm-261.739 14.131q-135.087-1.696-230.892-95.804-95.804-94.109-95.804-224.675 0-106.739 77.674-222.305Q280.13 320.304 456 167.129q161.305 137.609 248.805 266.284 87.501 128.674 85.24 224.761H549.479q-41.005 0-69.503 28.499-28.498 28.498-28.498 69.503v222.477Z"/></svg>