<svg xmlns="http://www.w3.org/2000/svg" height="40" width="40"><path d="M6 29.333q-.917 0-1.542-.625t-.625-1.583V12.833q0-.916.646-1.541.646-.625 1.521-.625.917 0 1.562.625.646.625.646 1.541v5h5.209v-5q0-.916.645-1.541.646-.625 1.521-.625.917 0 1.563.625.646.625.646 1.541v14.292q0 .958-.646 1.583t-1.563.625q-.916 0-1.541-.625-.625-.625-.625-1.583v-4.958H8.208v4.958q0 .958-.646 1.583-.645.625-1.562.625Zm18.417 0q-.917 0-1.563-.625-.646-.625-.646-1.583 0-.917.646-1.542t1.563-.625h7.375v-2.791h-7.375q-.917 0-1.563-.625-.646-.625-.646-1.542v-7.167q0-.916.646-1.541.646-.625 1.563-.625H34q.917 0 1.562.625.646.625.646 1.541 0 .959-.646 1.584-.645.625-1.562.625h-7.375v2.791h5.167q1.875 0 3.146 1.271 1.27 1.271 1.27 3.063v2.791q0 1.834-1.27 3.104-1.271 1.271-3.146 1.271Z"/></svg>