<svg xmlns="http://www.w3.org/2000/svg" height="20" width="20"><path d="M17 13.458Q16.708 13.458 16.5 13.25Q16.292 13.042 16.292 12.75V10.667Q16.292 10.375 16.5 10.167Q16.708 9.958 17 9.958Q17.292 9.958 17.5 10.167Q17.708 10.375 17.708 10.667V12.75Q17.708 13.042 17.5 13.25Q17.292 13.458 17 13.458ZM7.125 9.292Q6.333 9.25 5.75 8.625Q5.167 8 5.167 7.083Q5.167 6.167 5.75 5.542Q6.333 4.917 7.125 4.875Q7.125 4.875 7.073 4.865Q7.021 4.854 7.042 4.854Q6.688 5.229 6.51 5.781Q6.333 6.333 6.333 7.083Q6.333 7.833 6.5 8.365Q6.667 8.896 7.042 9.312Q7.042 9.312 7.083 9.302Q7.125 9.292 7.125 9.292ZM1.833 15.167V14.083Q1.833 13.729 2.031 13.375Q2.229 13.021 2.667 12.708Q2.917 12.542 3.25 12.396Q3.583 12.25 3.917 12.167Q3.521 12.458 3.26 12.938Q3 13.417 3 14.083V15.167ZM10.333 9.333Q9.396 9.333 8.74 8.677Q8.083 8.021 8.083 7.083Q8.083 6.146 8.74 5.49Q9.396 4.833 10.333 4.833Q11.271 4.833 11.927 5.49Q12.583 6.146 12.583 7.083Q12.583 8.021 11.927 8.677Q11.271 9.333 10.333 9.333ZM4.625 15.167V14.021Q4.625 13.562 4.906 13.188Q5.188 12.812 5.667 12.583Q6.646 12.104 7.833 11.802Q9.021 11.5 10.167 11.5Q10.792 11.5 11.521 11.604Q12.25 11.708 12.854 11.875Q12.812 11.979 12.792 12.188Q12.771 12.396 12.75 12.521Q12.75 12.938 12.823 13.49Q12.896 14.042 13.167 14.5Q13.25 14.667 13.333 14.844Q13.417 15.021 13.521 15.167ZM17 16.542Q16.875 16.542 16.792 16.458Q16.708 16.375 16.708 16.25V15.375Q15.771 15.229 15.167 14.604Q14.562 13.979 14.417 13.083Q14.396 12.938 14.469 12.844Q14.542 12.75 14.708 12.75Q14.812 12.75 14.906 12.844Q15 12.938 15.021 13.042Q15.125 13.771 15.688 14.26Q16.25 14.75 17 14.75Q17.75 14.75 18.312 14.26Q18.875 13.771 18.979 13.042Q19 12.938 19.094 12.844Q19.188 12.75 19.292 12.75Q19.438 12.75 19.521 12.844Q19.604 12.938 19.583 13.083Q19.438 13.979 18.833 14.604Q18.229 15.229 17.292 15.375V16.25Q17.292 16.375 17.208 16.458Q17.125 16.542 17 16.542Z"/></svg>