<svg xmlns="http://www.w3.org/2000/svg" height="48" viewBox="0 -960 960 960" width="48"><path d="M356-776h243v25h144v22h-41v175q-5-1-12.14-1H676q-27 0-59.07 6.82Q584.85-541.36 561-529v-119h-22v131q-40 24-74 67t-49 87v-285h-22v372h12q1 24.9 7.5 52.95Q420-195 429-172H306q-22.77 0-38.39-15.61Q252-203.23 252-226v-503h-41v-22h145v-25Zm320.71 297q81.23 0 138.26 57.4Q872-364.21 872-282.77q0 81.01-57.26 137.89Q757.48-88 676.24-88 595-88 538-145.11q-57-57.11-57-138.13 0-81.86 57.44-138.81Q595.89-479 676.71-479ZM662-397v120l80 80 20-20-72-71.61V-397h-28Z"/></svg>