<svg xmlns="http://www.w3.org/2000/svg" height="40" width="40"><path d="M6.083 22.042 17.667 5.292V22.042ZM9.875 20.042H15.667V11.625ZM21.792 22.042Q22.375 20.042 22.771 17.521Q23.167 15 23.167 12.292Q23.167 9.542 22.792 7.042Q22.417 4.542 21.792 2.375Q23.667 3.208 25.812 5.083Q27.958 6.958 29.792 9.542Q31.625 12.125 32.875 15.333Q34.125 18.542 34.333 22.042ZM24.292 20.042H32.125Q31.458 16.125 29.438 12.646Q27.417 9.167 24.708 6.75Q24.917 8.208 25.042 9.646Q25.167 11.083 25.167 12.292Q25.167 14.208 24.896 16.271Q24.625 18.333 24.292 20.042ZM15 32Q13.667 32 12.375 31.354Q11.083 30.708 10 29.583Q9.542 30.042 8.938 30.521Q8.333 31 7.75 31.208Q6.5 30.375 5.458 28.917Q4.417 27.458 4 25.875H36Q35.583 27.458 34.542 28.917Q33.5 30.375 32.25 31.208Q31.667 31 31.062 30.521Q30.458 30.042 30 29.583Q28.958 30.708 27.646 31.354Q26.333 32 25 32Q23.667 32 22.375 31.354Q21.083 30.708 20 29.542Q18.917 30.708 17.625 31.354Q16.333 32 15 32ZM3.792 37.875V35.875H5Q6.333 35.875 7.583 35.438Q8.833 35 10 34Q11.208 35 12.458 35.417Q13.708 35.833 15 35.833Q16.333 35.833 17.583 35.417Q18.833 35 20 34Q21.208 35 22.458 35.417Q23.708 35.833 25 35.833Q26.333 35.833 27.583 35.417Q28.833 35 30 34Q31.167 35 32.438 35.438Q33.708 35.875 35 35.875H36.208V37.875H35Q33.792 37.875 32.542 37.521Q31.292 37.167 30 36.292Q28.708 37.167 27.458 37.521Q26.208 37.875 25 37.875Q23.792 37.875 22.542 37.521Q21.292 37.167 20 36.292Q18.708 37.167 17.458 37.521Q16.208 37.875 15 37.875Q13.792 37.875 12.542 37.521Q11.292 37.167 10 36.292Q8.708 37.167 7.458 37.521Q6.208 37.875 5 37.875ZM15.667 20.042ZM24.292 20.042Q24.292 20.042 24.292 20.042Q24.292 20.042 24.292 20.042Q24.292 20.042 24.292 20.042Q24.292 20.042 24.292 20.042Q24.292 20.042 24.292 20.042Q24.292 20.042 24.292 20.042Z"/></svg>