<svg xmlns="http://www.w3.org/2000/svg" height="20" viewBox="0 96 960 960" width="20"><path d="M222.783 948.174h4.913v-119.87h-119.87v4.913q0 48.483 33.237 81.72t81.72 33.237Zm93.869 0h118.87v-119.87h-118.87v119.87Zm207.826 0h119.305v-119.87H524.478v119.87Zm209.392 0h3.347q48.483 0 81.72-33.237t33.237-81.72v-4.913H733.87v119.87ZM107.826 322.696h119.87v-118.87h-4.913q-48.483 0-81.72 33.237t-33.237 81.72v3.913Zm0 208.826h119.87v-119.87h-119.87v119.87Zm0 207.826h119.87v-118.87h-119.87v118.87Zm208.826-416.652h118.87v-118.87h-118.87v118.87Zm0 208.826h118.87v-119.87h-118.87v119.87Zm0 207.826h118.87v-118.87h-118.87v118.87Zm207.826-416.652h119.305v-118.87H524.478v118.87Zm0 208.826h119.305v-119.87H524.478v119.87Zm0 207.826h119.305v-118.87H524.478v118.87ZM733.87 322.696h118.304v-3.913q0-48.483-33.237-81.72t-81.72-33.237h-3.347v118.87Zm0 208.826h118.304v-119.87H733.87v119.87Zm0 207.826h118.304v-118.87H733.87v118.87Z"/></svg>