<svg xmlns="http://www.w3.org/2000/svg" version="1.1" width="3300" height="2000"><g id="Notes"><style>
    text {
      font-family: monospace;
      text-anchor: middle;
    }
    text.emphasis {
      font-weight:bold;
    }
    text.lanchor {
      text-anchor: start;
    }
  </style><rect height="2200" id="artboard" fill="white" width="3300" x="0" y="0"/><line id="" style="fill:none;stroke:black;stroke-width:0.5;" x1="263" x2="3036" y1="292" y2="292"/><text class="lanchor emphasis" transform="matrix(1 0 0 1 263 322)">Weight/Scale Variations</text><text transform="matrix(1 0 0 1 559.711 322)">Ultralight</text><text transform="matrix(1 0 0 1 856.422 322)">Thin</text><text transform="matrix(1 0 0 1 1153.13 322)">Light</text><text transform="matrix(1 0 0 1 1449.84 322)">Regular</text><text transform="matrix(1 0 0 1 1746.56 322)">Medium</text><text transform="matrix(1 0 0 1 2043.27 322)">Semibold</text><text transform="matrix(1 0 0 1 2339.98 322)">Bold</text><text transform="matrix(1 0 0 1 2636.69 322)">Heavy</text><text transform="matrix(1 0 0 1 2933.4 322)">Black</text><text id="template-version" style="text-anchor: end;" transform="matrix(1 0 0 1 3036 1933)">Template v.1.0</text><text class="lanchor" transform="matrix(1 0 0 1 263 726)">Small</text><text class="lanchor" transform="matrix(1 0 0 1 263 1156)">Medium</text><text class="lanchor" transform="matrix(1 0 0 1 263 1586)">Large</text></g><g id="Guides"><g id="H-reference" style="fill:#27AAE1;stroke:none;" transform="matrix(1 0 0 1 339 696)"><path d="M 54.9316 0 L 57.666 0 L 30.5664 -70.459 L 28.0762 -70.459 L 0.976562 0 L 3.66211 0 L 12.9395 -24.4629 L 45.7031 -24.4629 Z M 29.1992 -67.0898 L 29.4434 -67.0898 L 44.8242 -26.709 L 13.8184 -26.709 Z"/></g><line id="Baseline-S" style="fill:none;stroke:#27AAE1;opacity:1;stroke-width:0.577;" x1="263" x2="3036" y1="696" y2="696"/><line id="Capline-S" style="fill:none;stroke:#27AAE1;opacity:1;stroke-width:0.577;" x1="263" x2="3036" y1="625.541" y2="625.541"/><g id="H-reference" style="fill:#27AAE1;stroke:none;" transform="matrix(1 0 0 1 339 1126)"><path d="M 54.9316 0 L 57.666 0 L 30.5664 -70.459 L 28.0762 -70.459 L 0.976562 0 L 3.66211 0 L 12.9395 -24.4629 L 45.7031 -24.4629 Z M 29.1992 -67.0898 L 29.4434 -67.0898 L 44.8242 -26.709 L 13.8184 -26.709 Z"/></g><line id="Baseline-M" style="fill:none;stroke:#27AAE1;opacity:1;stroke-width:0.577;" x1="263" x2="3036" y1="1126" y2="1126"/><line id="Capline-M" style="fill:none;stroke:#27AAE1;opacity:1;stroke-width:0.577;" x1="263" x2="3036" y1="1055.54" y2="1055.54"/><g id="H-reference" style="fill:#27AAE1;stroke:none;" transform="matrix(1 0 0 1 339 1556)"><path d="M 54.9316 0 L 57.666 0 L 30.5664 -70.459 L 28.0762 -70.459 L 0.976562 0 L 3.66211 0 L 12.9395 -24.4629 L 45.7031 -24.4629 Z M 29.1992 -67.0898 L 29.4434 -67.0898 L 44.8242 -26.709 L 13.8184 -26.709 Z"/></g><line id="Baseline-L" style="fill:none;stroke:#27AAE1;opacity:1;stroke-width:0.577;" x1="263" x2="3036" y1="1556" y2="1556"/><line id="Capline-L" style="fill:none;stroke:#27AAE1;opacity:1;stroke-width:0.577;" x1="263" x2="3036" y1="1485.54" y2="1485.54"/><rect height="119.336" id="left-margin" style="fill:darkred;stroke:none;opacity:0.4;" width="12.4512" x="1394.06" y="1030.79"/><rect height="119.336" id="right-margin" style="fill:darkgreen;stroke:none;opacity:0.4;" width="12.4512" x="1502.5112" y="1030.79"/><rect x="1406.5112" y="1045" width="96" height="96" fill="none" stroke="blue" stroke-dasharray="5"/><rect x="1394.06" y="1030.79" width="120.9024" height="119.336" fill="none" stroke="blue"/></g><g id="Symbols"><g id="Bold-L" transform="matrix(1 0 0 1 2266 1556)"><path d="M77.4 -16.2025 Q82.72125 -16.2025 86.349375 -19.749999999999986 Q89.97749999999999 -23.2975 89.97749999999999 -28.61874999999999 Q89.97749999999999 -33.94 86.349375 -37.568124999999995 Q82.72125 -41.19624999999999 77.4 -41.19624999999999 Q72.07875000000001 -41.19624999999999 68.53125 -37.64874999999999 Q64.98375 -34.10124999999999 64.98375 -28.779999999999987 Q64.98375 -23.458749999999995 68.53125 -19.830624999999998 Q72.07875000000001 -16.2025 77.4 -16.2025 Z M37.24875 32.495000000000005 Q31.121250000000003 32.495000000000005 26.848125 28.22187500000001 Q22.575 23.948750000000018 22.575 17.659999999999997 V-88.28125 Q22.575 -94.40875 26.848125 -98.76249999999999 Q31.121250000000003 -103.11625 37.24875 -103.11625 H89.97749999999999 Q93.36375 -103.11625 96.26625000000001 -101.82624999999999 Q99.16875 -100.53625 101.42625 -97.95625 L128.83875 -66.835 Q130.6125 -64.73875 131.57999999999998 -62.239374999999995 Q132.5475 -59.74 132.5475 -57.16 V18.78875000000002 L98.685 -14.912499999999994 Q100.62 -17.492499999999993 101.74875 -20.798124999999985 Q102.8775 -24.10374999999999 102.8775 -28.61874999999999 Q102.8775 -39.583749999999995 95.540625 -46.92062499999999 Q88.20375000000001 -54.257499999999986 77.4 -54.257499999999986 Q66.59625 -54.257499999999986 59.339999999999996 -46.84 Q52.083749999999995 -39.4225 52.083749999999995 -28.61874999999999 Q52.083749999999995 -17.814999999999998 59.339999999999996 -10.639374999999987 Q66.59625 -3.4637499999999903 77.4 -3.4637499999999903 Q81.91499999999999 -3.4637499999999903 85.059375 -4.108750000000001 Q88.20375000000001 -4.753749999999982 91.42875000000001 -6.8500000000000085 L125.93625 27.818749999999994 Q122.22749999999999 30.398750000000007 117.22875 31.446875000000006 Q112.22999999999999 32.495000000000005 108.36000000000001 32.495000000000005 H37.24875 Z"/></g><g id="Semibold-L" transform="matrix(1 0 0 1 1970.27 1556)"><path d="M77.4 -15.55749999999999 Q83.04375 -15.55749999999999 86.7525 -19.346874999999997 Q90.46125 -23.13624999999999 90.46125 -28.61874999999999 Q90.46125 -34.26249999999999 86.7525 -38.051874999999995 Q83.04375 -41.84125 77.4 -41.84125 Q71.75625000000001 -41.84125 68.0475 -38.051874999999995 Q64.33875 -34.26249999999999 64.33875 -28.61874999999999 Q64.33875 -23.13624999999999 68.0475 -19.346874999999997 Q71.75625000000001 -15.55749999999999 77.4 -15.55749999999999 Z M36.60375 30.721250000000026 Q31.44375 30.721250000000026 27.815625 27.093125000000015 Q24.1875 23.465000000000003 24.1875 18.305000000000007 V-88.76499999999999 Q24.1875 -93.925 27.896250000000002 -97.63374999999999 Q31.605000000000004 -101.3425 36.60375 -101.3425 H90.3 Q93.2025 -101.3425 95.62125 -100.21374999999999 Q98.03999999999999 -99.085 99.81375 -96.98875 L127.54875 -65.38374999999999 Q129.16125 -63.61 129.886875 -61.513749999999995 Q130.6125 -59.4175 130.6125 -57.32125 V17.659999999999997 L97.7175 -15.235 Q99.6525 -17.814999999999998 100.78125 -21.12062499999999 Q101.91000000000001 -24.426249999999982 101.91000000000001 -28.61874999999999 Q101.91000000000001 -39.099999999999994 94.89562500000001 -46.114374999999995 Q87.88125000000001 -53.12875 77.4 -53.12875 Q66.91875 -53.12875 59.98500000000001 -46.03375 Q53.051249999999996 -38.938749999999985 53.051249999999996 -28.61874999999999 Q53.051249999999996 -18.29875 59.98500000000001 -11.284374999999997 Q66.91875 -4.269999999999982 77.4 -4.269999999999982 Q81.43125 -4.269999999999982 84.575625 -4.99562499999999 Q87.72 -5.721249999999998 90.945 -7.8174999999999955 L125.13 26.528750000000002 Q122.06625000000001 28.786250000000024 117.87375 29.753749999999997 Q113.68125 30.721250000000026 110.29500000000002 30.721250000000026 H36.60375 Z"/></g><g id="Medium-L" transform="matrix(1 0 0 1 1674.31 1556)"><path d="M77.4 -15.07374999999999 Q83.205 -15.07374999999999 87.075 -18.943749999999994 Q90.945 -22.813749999999985 90.945 -28.61874999999999 Q90.945 -34.42375 87.075 -38.374375 Q83.205 -42.32499999999999 77.4 -42.32499999999999 Q71.595 -42.32499999999999 67.72500000000001 -38.374375 Q63.855000000000004 -34.42375 63.855000000000004 -28.61874999999999 Q63.855000000000004 -22.813749999999985 67.72500000000001 -18.943749999999994 Q71.595 -15.07374999999999 77.4 -15.07374999999999 Z M36.12 29.431250000000006 Q31.76625 29.431250000000006 28.7025 26.28687500000001 Q25.63875 23.142500000000013 25.63875 18.78875000000002 V-89.24875 Q25.63875 -93.60249999999999 28.783125000000002 -96.74687499999999 Q31.927500000000002 -99.89125 36.12 -99.89125 H90.6225 Q93.04125 -99.89125 95.1375 -99.004375 Q97.23375 -98.11749999999999 98.84625 -96.1825 L126.74249999999999 -64.255 Q128.0325 -62.803749999999994 128.6775 -61.029999999999994 Q129.32250000000002 -59.256249999999994 129.32250000000002 -57.32125 V16.692500000000024 L96.91125000000001 -15.55749999999999 Q99.00750000000001 -18.13749999999999 100.05562499999999 -21.443124999999995 Q101.10375 -24.748749999999987 101.10375 -28.61874999999999 Q101.10375 -38.7775 94.33125 -45.630624999999995 Q87.55875 -52.48375 77.4 -52.48375 Q67.24125000000001 -52.48375 60.46875 -45.55 Q53.69625 -38.616249999999994 53.69625 -28.61874999999999 Q53.69625 -18.621250000000003 60.46875 -11.768124999999998 Q67.24125000000001 -4.914999999999992 77.4 -4.914999999999992 Q81.27 -4.914999999999992 84.33375 -5.721249999999998 Q87.39750000000001 -6.527500000000003 90.78375 -8.462500000000006 L124.64625 25.56125 Q121.905 27.6575 118.27687499999999 28.544375000000002 Q114.64874999999999 29.431250000000006 111.74625 29.431250000000006 H36.12 Z"/></g><g id="Regular-L" transform="matrix(1 0 0 1 1378.56 1556)"><path d="M77.4 -14.751249999999985 Q83.36625000000001 -14.751249999999985 87.39750000000001 -18.782499999999985 Q91.42875000000001 -22.813749999999985 91.42875000000001 -28.61874999999999 Q91.42875000000001 -34.584999999999994 87.39750000000001 -38.616249999999994 Q83.36625000000001 -42.647499999999994 77.4 -42.647499999999994 Q71.43375 -42.647499999999994 67.483125 -38.616249999999994 Q63.5325 -34.584999999999994 63.5325 -28.61874999999999 Q63.5325 -22.813749999999985 67.483125 -18.782499999999985 Q71.43375 -14.751249999999985 77.4 -14.751249999999985 Z M35.7975 28.463750000000005 Q32.08875 28.463750000000005 29.3475 25.641875 Q26.60625 22.82000000000002 26.60625 19.111250000000013 V-89.73249999999999 Q26.60625 -93.28 29.3475 -96.10187499999999 Q32.08875 -98.92375 35.7975 -98.92375 H90.945 Q93.04125 -98.92375 94.89562500000001 -98.11749999999999 Q96.75 -97.31125 98.03999999999999 -95.69874999999999 L126.09750000000001 -63.61 Q127.22625000000001 -62.31999999999999 127.790625 -60.70749999999999 Q128.355 -59.09499999999999 128.355 -57.48249999999999 V16.047500000000014 L96.4275 -15.879999999999995 Q98.52375 -18.459999999999994 99.571875 -21.765624999999986 Q100.62 -25.071249999999992 100.62 -28.61874999999999 Q100.62 -38.616249999999994 93.92812500000001 -45.30812499999999 Q87.23625 -51.99999999999999 77.4 -51.99999999999999 Q67.56375 -51.99999999999999 60.871875 -45.22749999999999 Q54.18000000000001 -38.455 54.18000000000001 -28.61874999999999 Q54.18000000000001 -18.943749999999994 60.871875 -12.251874999999998 Q67.56375 -5.559999999999988 77.4 -5.559999999999988 Q81.10875 -5.559999999999988 84.17250000000001 -6.285624999999982 Q87.23625 -7.01124999999999 90.46125 -8.946249999999992 L124.16250000000001 24.755000000000024 Q121.905 26.690000000000026 118.67999999999999 27.576875 Q115.455 28.463750000000005 112.875 28.463750000000005 H35.7975 Z"/></g><g id="Light-L" transform="matrix(1 0 0 1 1082.77 1556)"><path d="M77.4 -15.07374999999999 Q83.205 -15.07374999999999 87.155625 -19.024374999999992 Q91.10625 -22.974999999999994 91.10625 -28.779999999999987 Q91.10625 -34.42375 87.155625 -38.455 Q83.205 -42.48625 77.4 -42.48625 Q71.595 -42.48625 67.64437500000001 -38.455 Q63.69375 -34.42375 63.69375 -28.779999999999987 Q63.69375 -22.813749999999985 67.64437500000001 -18.943749999999994 Q71.595 -15.07374999999999 77.4 -15.07374999999999 Z M38.53875 25.56125 Q34.830000000000005 25.56125 32.169375 22.90062499999999 Q29.508750000000003 20.24000000000001 29.508750000000003 16.53125 V-86.99125 Q29.508750000000003 -90.69999999999999 32.169375 -93.360625 Q34.830000000000005 -96.02125 38.53875 -96.02125 H89.97749999999999 Q91.91250000000001 -96.02125 93.766875 -95.21499999999999 Q95.62125 -94.40875 96.91125000000001 -92.79624999999999 L123.19500000000001 -62.48124999999999 Q124.32374999999999 -61.19125 124.80750000000002 -59.65937499999999 Q125.29125 -58.1275 125.29125 -56.515 V14.596250000000012 L94.17 -16.686249999999987 Q96.105 -19.26625 97.153125 -22.249375 Q98.20125 -25.232499999999987 98.20125 -28.779999999999987 Q98.20125 -37.4875 92.23500000000001 -43.45375 Q86.26875 -49.41999999999999 77.4 -49.41999999999999 Q68.53125 -49.41999999999999 62.565 -43.45375 Q56.59875 -37.4875 56.59875 -28.779999999999987 Q56.59875 -19.911249999999995 62.565 -13.944999999999993 Q68.53125 -7.978749999999977 77.4 -7.978749999999977 Q80.78625000000001 -7.978749999999977 83.608125 -8.704374999999985 Q86.43 -9.429999999999993 89.655 -11.52624999999999 L122.06625000000001 21.046250000000015 Q119.48625 23.465000000000003 116.26124999999999 24.513125000000002 Q113.03625 25.56125 109.97250000000001 25.56125 H38.53875 Z"/></g><g id="Thin-L" transform="matrix(1 0 0 1 787.282 1556)"><path d="M77.4 -15.396249999999995 Q83.04375 -15.396249999999995 86.91375 -19.26625 Q90.78375 -23.13624999999999 90.78375 -28.779999999999987 Q90.78375 -34.26249999999999 86.91375 -38.21312499999999 Q83.04375 -42.16374999999999 77.4 -42.16374999999999 Q71.75625000000001 -42.16374999999999 67.88625 -38.29374999999999 Q64.01625 -34.42375 64.01625 -28.779999999999987 Q64.01625 -22.974999999999994 67.88625 -19.185624999999987 Q71.75625000000001 -15.396249999999995 77.4 -15.396249999999995 Z M41.28 22.658750000000026 Q37.57125 22.658750000000026 34.99125 20.078750000000014 Q32.41125 17.49875 32.41125 13.79000000000002 V-84.25 Q32.41125 -87.95875 34.99125 -90.53875 Q37.57125 -93.11874999999999 41.28 -93.11874999999999 H89.01 Q90.945 -93.11874999999999 92.71875 -92.3125 Q94.4925 -91.50625 95.7825 -89.89375 L120.29249999999999 -61.35249999999999 Q121.42125 -60.06249999999999 121.905 -58.530625 Q122.38875000000002 -56.998749999999994 122.38875000000002 -55.38625 V13.14500000000001 L91.91250000000001 -17.492499999999993 Q93.68625 -19.911249999999995 94.65375 -22.652500000000003 Q95.62125 -25.393749999999997 95.62125 -28.779999999999987 Q95.62125 -36.51999999999998 90.380625 -41.84125 Q85.14 -47.162499999999994 77.4 -47.162499999999994 Q69.66000000000001 -47.162499999999994 64.419375 -41.84125 Q59.17875000000001 -36.51999999999998 59.17875000000001 -28.779999999999987 Q59.17875000000001 -21.039999999999992 64.419375 -15.799374999999998 Q69.66000000000001 -10.558750000000003 77.4 -10.558750000000003 Q80.46375 -10.558750000000003 83.124375 -11.284374999999997 Q85.78500000000001 -12.009999999999991 88.6875 -14.106249999999989 L119.97000000000001 17.337500000000006 Q117.0675 20.401250000000005 113.92312500000001 21.53 Q110.77875 22.658750000000026 106.90875 22.658750000000026 H41.28 Z"/></g><g id="Ultralight-L" transform="matrix(1 0 0 1 491.205 1556)"><path d="M77.4 -15.718749999999986 Q83.04375 -15.718749999999986 86.83312500000001 -19.427499999999995 Q90.6225 -23.13624999999999 90.6225 -28.779999999999987 Q90.6225 -34.26249999999999 86.83312500000001 -38.21312499999999 Q83.04375 -42.16374999999999 77.4 -42.16374999999999 Q71.9175 -42.16374999999999 68.0475 -38.21312499999999 Q64.1775 -34.26249999999999 64.1775 -28.779999999999987 Q64.1775 -23.13624999999999 67.966875 -19.427499999999995 Q71.75625000000001 -15.718749999999986 77.4 -15.718749999999986 Z M42.892500000000005 20.88499999999999 Q39.18375 20.88499999999999 36.684375 18.305000000000007 Q34.185 15.724999999999994 34.185 12.177500000000023 V-82.63749999999999 Q34.185 -86.185 36.765 -88.76499999999999 Q39.345 -91.345 42.892500000000005 -91.345 H88.52625 Q90.46125 -91.345 92.154375 -90.53875 Q93.84750000000001 -89.73249999999999 95.29875 -88.12 L118.67999999999999 -60.86874999999999 Q119.64750000000001 -59.4175 120.13125000000001 -57.88562499999999 Q120.615 -56.35375 120.615 -54.902499999999996 V12.177500000000023 L90.46125 -17.976249999999993 Q92.23500000000001 -20.394999999999982 93.2025 -22.974999999999994 Q94.17 -25.554999999999993 94.17 -28.779999999999987 Q94.17 -35.874999999999986 89.3325 -40.793125 Q84.495 -45.71124999999999 77.4 -45.71124999999999 Q70.305 -45.71124999999999 65.4675 -40.793125 Q60.63 -35.874999999999986 60.63 -28.779999999999987 Q60.63 -21.685000000000002 65.4675 -16.928124999999994 Q70.305 -12.17125 77.4 -12.17125 Q80.3025 -12.17125 82.80187500000001 -12.816249999999997 Q85.30125 -13.461249999999993 88.20375000000001 -15.55749999999999 L118.67999999999999 15.080000000000013 Q115.61625000000001 18.466250000000002 112.471875 19.675624999999997 Q109.3275 20.88499999999999 105.135 20.88499999999999 H42.892500000000005 Z"/></g><g id="Bold-M" transform="matrix(1 0 0 1 2281.8 1126)"><path d="M60.0 -21.97999999999999 Q63.5 -21.97999999999999 65.94 -24.419999999999987 Q68.375 -26.85499999999999 68.375 -30.22999999999999 Q68.375 -33.72999999999999 65.94 -36.22999999999999 Q63.5 -38.72999999999999 60.0 -38.72999999999999 Q56.625 -38.72999999999999 54.125 -36.22999999999999 Q51.625 -33.72999999999999 51.625 -30.35499999999999 Q51.625 -26.85499999999999 54.059999999999995 -24.419999999999987 Q56.5 -21.97999999999999 60.0 -21.97999999999999 Z M32.0 17.77000000000001 Q25.625 17.77000000000001 21.25 13.39500000000001 Q16.875 9.02000000000001 16.875 2.6450000000000102 V-73.10499999999999 Q16.875 -79.47999999999999 21.25 -83.85499999999999 Q25.625 -88.22999999999999 32.0 -88.22999999999999 H69.125 Q72.625 -88.22999999999999 75.625 -86.79499999999999 Q78.625 -85.35499999999999 80.875 -82.85499999999999 L99.625 -60.72999999999999 Q101.375 -58.72999999999999 102.25 -56.22999999999999 Q103.125 -53.72999999999999 103.125 -50.97999999999999 V4.64500000000001 L78.75 -19.60499999999999 Q80.0 -21.72999999999999 80.75 -24.169999999999987 Q81.5 -26.60499999999999 81.5 -30.35499999999999 Q81.5 -39.47999999999999 75.31 -45.66999999999999 Q69.125 -51.85499999999999 60.0 -51.85499999999999 Q50.875 -51.85499999999999 44.690000000000005 -45.66999999999999 Q38.5 -39.47999999999999 38.5 -30.35499999999999 Q38.5 -21.22999999999999 44.690000000000005 -15.044999999999987 Q50.875 -8.85499999999999 60.0 -8.85499999999999 Q63.5 -8.85499999999999 66.065 -9.47999999999999 Q68.625 -10.10499999999999 70.75 -11.60499999999999 L96.875 14.64500000000001 Q93.75 16.14500000000001 90.0 16.960000000000008 Q86.25 17.77000000000001 82.375 17.77000000000001 H32.0 Z"/></g><g id="Semibold-M" transform="matrix(1 0 0 1 1985.97 1126)"><path d="M60.0 -21.22999999999999 Q63.75 -21.22999999999999 66.375 -23.919999999999987 Q69.0 -26.60499999999999 69.0 -30.22999999999999 Q69.0 -33.97999999999999 66.375 -36.66999999999999 Q63.75 -39.35499999999999 60.0 -39.35499999999999 Q56.25 -39.35499999999999 53.625 -36.66999999999999 Q51.0 -33.97999999999999 51.0 -30.35499999999999 Q51.0 -26.60499999999999 53.625 -23.919999999999987 Q56.25 -21.22999999999999 60.0 -21.22999999999999 Z M31.375 15.89500000000001 Q26.0 15.89500000000001 22.375 12.210000000000008 Q18.75 8.52000000000001 18.75 3.2700000000000102 V-73.72999999999999 Q18.75 -78.97999999999999 22.44 -82.66999999999999 Q26.125 -86.35499999999999 31.375 -86.35499999999999 H69.5 Q72.375 -86.35499999999999 74.94 -85.16999999999999 Q77.5 -83.97999999999999 79.25 -81.85499999999999 L98.375 -59.22999999999999 Q99.75 -57.47999999999999 100.5 -55.47999999999999 Q101.25 -53.47999999999999 101.25 -51.10499999999999 V3.3950000000000102 L77.75 -19.97999999999999 Q79.125 -22.10499999999999 79.815 -24.544999999999987 Q80.5 -26.97999999999999 80.5 -30.35499999999999 Q80.5 -38.97999999999999 74.565 -44.919999999999995 Q68.625 -50.85499999999999 60.0 -50.85499999999999 Q51.375 -50.85499999999999 45.44 -44.919999999999995 Q39.5 -38.97999999999999 39.5 -30.35499999999999 Q39.5 -21.60499999999999 45.44 -15.664999999999992 Q51.375 -9.72999999999999 60.0 -9.72999999999999 Q63.25 -9.72999999999999 65.75 -10.419999999999987 Q68.25 -11.10499999999999 70.375 -12.47999999999999 L96.0 13.27000000000001 Q93.625 14.52000000000001 90.625 15.205000000000013 Q87.625 15.89500000000001 84.375 15.89500000000001 H31.375 Z"/></g><g id="Medium-M" transform="matrix(1 0 0 1 1689.91 1126)"><path d="M60.0 -20.72999999999999 Q63.875 -20.72999999999999 66.69 -23.544999999999987 Q69.5 -26.35499999999999 69.5 -30.22999999999999 Q69.5 -34.22999999999999 66.69 -37.04499999999999 Q63.875 -39.85499999999999 60.0 -39.85499999999999 Q56.125 -39.85499999999999 53.315 -37.04499999999999 Q50.5 -34.22999999999999 50.5 -30.35499999999999 Q50.5 -26.35499999999999 53.315 -23.544999999999987 Q56.125 -20.72999999999999 60.0 -20.72999999999999 Z M30.875 14.52000000000001 Q26.375 14.52000000000001 23.25 11.39500000000001 Q20.125 8.27000000000001 20.125 3.7700000000000102 V-74.22999999999999 Q20.125 -78.72999999999999 23.25 -81.85499999999999 Q26.375 -84.97999999999999 30.875 -84.97999999999999 H69.875 Q72.25 -84.97999999999999 74.44 -83.97999999999999 Q76.625 -82.97999999999999 78.125 -81.10499999999999 L97.375 -58.10499999999999 Q98.625 -56.72999999999999 99.25 -54.97999999999999 Q99.875 -53.22999999999999 99.875 -51.22999999999999 V2.5200000000000102 L77.0 -20.35499999999999 Q78.375 -22.47999999999999 79.06 -24.919999999999987 Q79.75 -27.35499999999999 79.75 -30.35499999999999 Q79.75 -38.60499999999999 74.0 -44.35499999999999 Q68.25 -50.10499999999999 60.0 -50.10499999999999 Q51.75 -50.10499999999999 46.0 -44.35499999999999 Q40.25 -38.60499999999999 40.25 -30.35499999999999 Q40.25 -21.97999999999999 46.0 -16.22999999999999 Q51.75 -10.47999999999999 60.0 -10.47999999999999 Q63.0 -10.47999999999999 65.44 -11.169999999999987 Q67.875 -11.85499999999999 70.0 -13.22999999999999 L95.5 12.14500000000001 Q93.5 13.39500000000001 91.06 13.955000000000013 Q88.625 14.52000000000001 85.875 14.52000000000001 H30.875 Z"/></g><g id="Regular-M" transform="matrix(1 0 0 1 1394.06 1126)"><path d="M60.0 -20.47999999999999 Q64.125 -20.47999999999999 67.0 -23.35499999999999 Q69.875 -26.22999999999999 69.875 -30.22999999999999 Q69.875 -34.35499999999999 67.0 -37.29499999999999 Q64.125 -40.22999999999999 60.0 -40.22999999999999 Q56.0 -40.22999999999999 53.065 -37.29499999999999 Q50.125 -34.35499999999999 50.125 -30.35499999999999 Q50.125 -26.22999999999999 53.0 -23.35499999999999 Q55.875 -20.47999999999999 60.0 -20.47999999999999 Z M30.5 13.52000000000001 Q26.625 13.52000000000001 23.875 10.77000000000001 Q21.125 8.02000000000001 21.125 4.14500000000001 V-74.60499999999999 Q21.125 -78.47999999999999 23.875 -81.22999999999999 Q26.625 -83.97999999999999 30.5 -83.97999999999999 H70.125 Q72.25 -83.97999999999999 74.125 -83.10499999999999 Q76.0 -82.22999999999999 77.375 -80.60499999999999 L96.75 -57.35499999999999 Q97.75 -56.10499999999999 98.315 -54.54499999999999 Q98.875 -52.97999999999999 98.875 -51.35499999999999 V1.7700000000000102 L76.5 -20.60499999999999 Q77.875 -22.72999999999999 78.565 -25.169999999999987 Q79.25 -27.60499999999999 79.25 -30.35499999999999 Q79.25 -38.35499999999999 73.625 -43.97999999999999 Q68.0 -49.60499999999999 60.0 -49.60499999999999 Q52.0 -49.60499999999999 46.375 -43.97999999999999 Q40.75 -38.35499999999999 40.75 -30.35499999999999 Q40.75 -22.35499999999999 46.375 -16.72999999999999 Q52.0 -11.10499999999999 60.0 -11.10499999999999 Q62.75 -11.10499999999999 65.19 -11.72999999999999 Q67.625 -12.35499999999999 69.75 -13.72999999999999 L95.0 11.39500000000001 Q93.375 12.39500000000001 91.44 12.955000000000013 Q89.5 13.52000000000001 87.0 13.52000000000001 H30.5 Z"/></g><g id="Light-M" transform="matrix(1 0 0 1 1098.18 1126)"><path d="M60.0 -20.35499999999999 Q64.125 -20.35499999999999 67.0 -23.294999999999987 Q69.875 -26.22999999999999 69.875 -30.22999999999999 Q69.875 -34.35499999999999 67.0 -37.29499999999999 Q64.125 -40.22999999999999 60.0 -40.22999999999999 Q55.875 -40.22999999999999 53.0 -37.29499999999999 Q50.125 -34.35499999999999 50.125 -30.22999999999999 Q50.125 -26.22999999999999 53.0 -23.294999999999987 Q55.875 -20.35499999999999 60.0 -20.35499999999999 Z M32.0 11.27000000000001 Q28.375 11.27000000000001 25.875 8.77000000000001 Q23.375 6.27000000000001 23.375 2.7700000000000102 V-73.22999999999999 Q23.375 -76.72999999999999 25.875 -79.22999999999999 Q28.375 -81.72999999999999 31.875 -81.72999999999999 H69.375 Q71.375 -81.72999999999999 73.065 -80.91999999999999 Q74.75 -80.10499999999999 76.0 -78.60499999999999 L94.625 -56.35499999999999 Q95.625 -55.22999999999999 96.125 -53.79499999999999 Q96.625 -52.35499999999999 96.625 -50.85499999999999 V1.2700000000000102 L74.125 -21.22999999999999 Q75.5 -23.22999999999999 76.19 -25.47999999999999 Q76.875 -27.72999999999999 76.875 -30.35499999999999 Q76.875 -37.35499999999999 71.935 -42.29499999999999 Q67.0 -47.22999999999999 60.0 -47.22999999999999 Q53.0 -47.22999999999999 48.065 -42.29499999999999 Q43.125 -37.35499999999999 43.125 -30.22999999999999 Q43.125 -23.22999999999999 48.065 -18.294999999999987 Q53.0 -13.35499999999999 60.0 -13.35499999999999 Q62.5 -13.35499999999999 64.75 -13.97999999999999 Q67.0 -14.60499999999999 69.125 -16.10499999999999 L93.5 8.27000000000001 Q91.625 9.89500000000001 89.435 10.585000000000008 Q87.25 11.27000000000001 84.375 11.27000000000001 H32.0 Z"/></g><g id="Thin-M" transform="matrix(1 0 0 1 802.565 1126)"><path d="M60.0 -20.35499999999999 Q64.125 -20.35499999999999 67.0 -23.294999999999987 Q69.875 -26.22999999999999 69.875 -30.22999999999999 Q69.875 -34.35499999999999 67.0 -37.29499999999999 Q64.125 -40.22999999999999 60.0 -40.22999999999999 Q55.875 -40.22999999999999 53.0 -37.29499999999999 Q50.125 -34.35499999999999 50.125 -30.22999999999999 Q50.125 -26.22999999999999 53.0 -23.294999999999987 Q55.875 -20.35499999999999 60.0 -20.35499999999999 Z M33.375 9.02000000000001 Q30.125 9.02000000000001 27.94 6.77000000000001 Q25.75 4.52000000000001 25.75 1.2700000000000102 V-71.72999999999999 Q25.75 -74.97999999999999 27.94 -77.22999999999999 Q30.125 -79.47999999999999 33.375 -79.47999999999999 H68.75 Q70.5 -79.47999999999999 72.0 -78.79499999999999 Q73.5 -78.10499999999999 74.75 -76.60499999999999 L92.5 -55.35499999999999 Q93.375 -54.35499999999999 93.81500000000001 -53.039999999999985 Q94.25 -51.72999999999999 94.25 -50.35499999999999 V0.7700000000000102 L71.75 -21.85499999999999 Q73.125 -23.72999999999999 73.81 -25.72999999999999 Q74.5 -27.72999999999999 74.5 -30.35499999999999 Q74.5 -36.35499999999999 70.31 -40.60499999999999 Q66.125 -44.85499999999999 60.0 -44.85499999999999 Q53.875 -44.85499999999999 49.690000000000005 -40.60499999999999 Q45.5 -36.35499999999999 45.5 -30.22999999999999 Q45.5 -24.10499999999999 49.690000000000005 -19.919999999999987 Q53.875 -15.72999999999999 60.0 -15.72999999999999 Q62.375 -15.72999999999999 64.375 -16.35499999999999 Q66.375 -16.97999999999999 68.5 -18.47999999999999 L92.125 5.14500000000001 Q89.875 7.39500000000001 87.5 8.210000000000008 Q85.125 9.02000000000001 81.75 9.02000000000001 H33.375 Z"/></g><g id="Ultralight-M" transform="matrix(1 0 0 1 506.415 1126)"><path d="M60.0 -20.35499999999999 Q64.125 -20.35499999999999 67.065 -23.294999999999987 Q70.0 -26.22999999999999 70.0 -30.22999999999999 Q70.0 -34.35499999999999 67.065 -37.29499999999999 Q64.125 -40.22999999999999 60.0 -40.22999999999999 Q55.875 -40.22999999999999 53.0 -37.29499999999999 Q50.125 -34.35499999999999 50.125 -30.22999999999999 Q50.125 -26.22999999999999 53.0 -23.294999999999987 Q55.875 -20.35499999999999 60.0 -20.35499999999999 Z M34.25 7.64500000000001 Q31.25 7.64500000000001 29.19 5.585000000000008 Q27.125 3.5200000000000102 27.125 0.5200000000000102 V-70.97999999999999 Q27.125 -73.97999999999999 29.19 -76.04499999999999 Q31.25 -78.10499999999999 34.25 -78.10499999999999 H68.375 Q70.125 -78.10499999999999 71.5 -77.41999999999999 Q72.875 -76.72999999999999 74.0 -75.47999999999999 L91.375 -54.85499999999999 Q92.125 -53.85499999999999 92.56500000000001 -52.60499999999999 Q93.0 -51.35499999999999 93.0 -50.10499999999999 V0.39500000000001023 L70.375 -22.22999999999999 Q71.75 -24.10499999999999 72.44 -25.97999999999999 Q73.125 -27.85499999999999 73.125 -30.22999999999999 Q73.125 -35.85499999999999 69.315 -39.66499999999999 Q65.5 -43.47999999999999 60.0 -43.47999999999999 Q54.5 -43.47999999999999 50.685 -39.66499999999999 Q46.875 -35.85499999999999 46.875 -30.22999999999999 Q46.875 -24.72999999999999 50.685 -20.97999999999999 Q54.5 -17.22999999999999 60.0 -17.22999999999999 Q62.25 -17.22999999999999 64.125 -17.789999999999992 Q66.0 -18.35499999999999 68.125 -19.85499999999999 L91.25 3.2700000000000102 Q88.875 5.77000000000001 86.375 6.7050000000000125 Q83.875 7.64500000000001 80.25 7.64500000000001 H34.25 Z"/></g><g id="Bold-S" transform="matrix(1 0 0 1 2294.23 696)"><path d="M47.34 -24.971421999999997 Q50.199335999999995 -24.971421999999997 52.02666 -26.798745999999987 Q53.84925 -28.621335999999992 53.84925 -31.385991999999995 Q53.84925 -34.24532799999999 52.02666 -36.119991999999996 Q50.199335999999995 -37.98992199999999 47.34 -37.98992199999999 Q44.580078 -37.98992199999999 42.705414000000005 -36.119991999999996 Q40.83075 -34.24532799999999 40.83075 -31.48067199999999 Q40.83075 -28.621335999999992 42.65334 -26.798745999999987 Q44.480664000000004 -24.971421999999997 47.34 -24.971421999999997 Z M25.644078 6.585421999999994 Q20.413008 6.585421999999994 16.862508 3.0349219999999946 Q13.312007999999999 -0.515578000000005 13.312007999999999 -5.741913999999994 V-64.718086 Q13.312007999999999 -69.94442199999999 16.862508 -73.49492199999999 Q20.413008 -77.04542199999999 25.644078 -77.04542199999999 H54.341586 Q57.300335999999994 -77.04542199999999 59.667336 -75.86192199999999 Q62.034335999999996 -74.678422 63.909 -72.70907799999999 L78.603336 -55.44891399999999 Q79.985664 -53.872491999999994 80.676828 -51.79899999999999 Q81.367992 -49.725508 81.367992 -47.55733599999999 V-3.9666639999999944 L62.332578 -22.902663999999994 Q63.31725 -24.57849999999999 63.95634 -26.55257799999999 Q64.600164 -28.521921999999996 64.600164 -31.48067199999999 Q64.600164 -38.780499999999996 59.619996 -43.76066799999999 Q54.639828 -48.740835999999994 47.34 -48.740835999999994 Q40.040172 -48.740835999999994 35.060004 -43.76066799999999 Q30.079836 -38.780499999999996 30.079836 -31.48067199999999 Q30.079836 -24.185577999999992 35.060004 -19.205409999999993 Q40.040172 -14.220507999999995 47.34 -14.220507999999995 Q50.000507999999996 -14.220507999999995 52.074 -14.764917999999994 Q54.147492 -15.309327999999994 55.823328 -16.393413999999993 L76.33575 4.317836 Q73.277586 5.501336000000009 68.496246 6.045746000000008 Q63.710172 6.585421999999994 59.175 6.585421999999994 H25.644078 Z"/></g><g id="Semibold-S" transform="matrix(1 0 0 1 1998.1 696)"><path d="M47.34 -24.379671999999992 Q50.398164 -24.379671999999992 52.367507999999994 -26.40108999999999 Q54.341586 -28.422507999999993 54.341586 -31.385991999999995 Q54.341586 -34.43942199999999 52.367507999999994 -36.46083999999999 Q50.398164 -38.486991999999994 47.34 -38.486991999999994 Q44.281836 -38.486991999999994 42.312492000000006 -36.46083999999999 Q40.338414 -34.43942199999999 40.338414 -31.48067199999999 Q40.338414 -28.422507999999993 42.312492000000006 -26.40108999999999 Q44.281836 -24.379671999999992 47.34 -24.379671999999992 Z M25.147008 5.1084140000000104 Q20.71125 5.1084140000000104 17.7525 2.097590000000011 Q14.79375 -0.9084999999999894 14.79375 -5.249578 V-65.210422 Q14.79375 -69.55149999999999 17.79984 -72.55758999999999 Q20.810664 -75.56841399999999 25.147008 -75.56841399999999 H54.639828 Q57.101507999999995 -75.56841399999999 59.12766 -74.57900799999999 Q61.149077999999996 -73.594336 62.626085999999994 -71.9185 L77.61866400000001 -54.26541399999999 Q78.70275 -52.88308599999999 79.2945 -51.207249999999995 Q79.88625 -49.53141399999999 79.88625 -47.656749999999995 V-4.9513359999999835 L61.542 -23.196171999999997 Q62.626085999999994 -24.872007999999994 63.217836 -26.846085999999993 Q63.809585999999996 -28.820164 63.809585999999996 -31.48067199999999 Q63.809585999999996 -38.38757799999999 59.028245999999996 -43.16891799999999 Q54.242172000000004 -47.95499199999999 47.34 -47.95499199999999 Q40.437827999999996 -47.95499199999999 35.651754 -43.16891799999999 Q30.870414 -38.38757799999999 30.870414 -31.48067199999999 Q30.870414 -24.479085999999988 35.651754 -19.697745999999988 Q40.437827999999996 -14.911671999999996 47.34 -14.911671999999996 Q49.806414000000004 -14.911671999999996 51.827832 -15.503422 Q53.84925 -16.09517199999999 55.525085999999995 -17.084577999999993 L75.64458599999999 3.2337500000000006 Q73.178172 4.218422000000004 68.98858200000001 4.663418000000007 Q64.798992 5.1084140000000104 60.751422 5.1084140000000104 H25.147008 Z"/></g><g id="Medium-S" transform="matrix(1 0 0 1 1701.85 696)"><path d="M47.34 -23.986749999999994 Q50.497578 -23.986749999999994 52.618410000000004 -26.107581999999994 Q54.734508 -28.228413999999994 54.734508 -31.385991999999995 Q54.734508 -34.63824999999999 52.618410000000004 -36.75908199999999 Q50.497578 -38.879914 47.34 -38.879914 Q44.182422 -38.879914 42.061589999999995 -36.75908199999999 Q39.945492 -34.63824999999999 39.945492 -31.48067199999999 Q39.945492 -28.228413999999994 42.061589999999995 -26.107581999999994 Q44.182422 -23.986749999999994 47.34 -23.986749999999994 Z M24.754086 4.024328000000011 Q21.009491999999998 4.024328000000011 18.443664 1.4585000000000008 Q15.877836 -1.1073279999999954 15.877836 -4.851921999999988 V-65.60807799999999 Q15.877836 -69.352672 18.443664 -71.9185 Q21.009491999999998 -74.48432799999999 24.754086 -74.48432799999999 H54.933336 Q57.006828 -74.48432799999999 58.730004 -73.64640999999999 Q60.457914 -72.808492 61.740828 -71.32674999999999 L76.828086 -53.37542199999999 Q77.81749199999999 -52.291335999999994 78.30982800000001 -50.81432799999999 Q78.802164 -49.33258599999999 78.802164 -47.75616399999999 V-5.642499999999998 L60.95025 -23.494414 Q62.034335999999996 -25.170249999999996 62.626085999999994 -27.144327999999994 Q63.217836 -29.113671999999994 63.217836 -31.48067199999999 Q63.217836 -38.08933599999999 58.58325 -42.723921999999995 Q53.948664 -47.35850799999999 47.34 -47.35850799999999 Q40.731336 -47.35850799999999 36.09675 -42.723921999999995 Q31.462163999999998 -38.08933599999999 31.462163999999998 -31.48067199999999 Q31.462163999999998 -24.77732799999999 36.09675 -20.138007999999992 Q40.731336 -15.503422 47.34 -15.503422 Q49.607586 -15.503422 51.581664 -16.09517199999999 Q53.551007999999996 -16.686921999999996 55.231578 -17.676327999999998 L75.251664 2.3484920000000074 Q73.083492 3.3331640000000107 69.334164 3.678746000000018 Q65.584836 4.024328000000011 61.934922 4.024328000000011 H24.754086 Z"/></g><g id="Regular-S" transform="matrix(1 0 0 1 1405.73 696)"><path d="M47.34 -23.787921999999995 Q50.691672000000004 -23.787921999999995 52.864578 -25.960827999999992 Q55.03275 -28.12899999999999 55.03275 -31.385991999999995 Q55.03275 -34.737663999999995 52.864578 -36.95790999999999 Q50.691672000000004 -39.173421999999995 47.34 -39.173421999999995 Q44.083008 -39.173421999999995 41.867495999999996 -36.95790999999999 Q39.64725 -34.737663999999995 39.64725 -31.48067199999999 Q39.64725 -28.12899999999999 41.815422 -25.960827999999992 Q43.988327999999996 -23.787921999999995 47.34 -23.787921999999995 Z M24.460577999999998 3.2337500000000006 Q21.203586 3.2337500000000006 18.936 0.9661640000000062 Q16.668414 -1.301421999999988 16.668414 -4.558413999999999 V-65.901586 Q16.668414 -69.15857799999999 18.936 -71.426164 Q21.203586 -73.69375 24.460577999999998 -73.69375 H55.132164 Q57.006828 -73.69375 58.483836 -72.95524599999999 Q59.965578 -72.212008 61.149077999999996 -70.93382799999999 L76.33575 -52.783671999999996 Q77.126328 -51.79899999999999 77.56659 -50.468745999999996 Q78.011586 -49.13849199999999 78.011586 -47.855577999999994 V-6.234249999999989 L60.557328 -23.68850799999999 Q61.641414000000005 -25.369077999999995 62.233164 -27.338421999999994 Q62.82491400000001 -29.312499999999993 62.82491400000001 -31.48067199999999 Q62.82491400000001 -37.89050799999999 58.285008 -42.430414 Q53.749835999999995 -46.965585999999995 47.34 -46.965585999999995 Q40.930164000000005 -46.965585999999995 36.390258 -42.430414 Q31.855086 -37.89050799999999 31.855086 -31.48067199999999 Q31.855086 -25.070835999999993 36.390258 -20.535663999999997 Q40.930164000000005 -16.000491999999994 47.34 -16.000491999999994 Q49.413492000000005 -16.000491999999994 51.382836 -16.540167999999994 Q53.356914 -17.084577999999993 55.03275 -18.069249999999997 L74.854008 1.7520080000000178 Q72.984078 2.542586 69.627672 2.8881680000000074 Q66.276 3.2337500000000006 62.82491400000001 3.2337500000000006 H24.460577999999998 Z"/></g><g id="Light-S" transform="matrix(1 0 0 1 1109.75 696)"><path d="M47.34 -23.68850799999999 Q50.691672000000004 -23.68850799999999 52.864578 -25.908753999999995 Q55.03275 -28.12899999999999 55.03275 -31.385991999999995 Q55.03275 -34.737663999999995 52.864578 -36.95790999999999 Q50.691672000000004 -39.173421999999995 47.34 -39.173421999999995 Q43.988327999999996 -39.173421999999995 41.815422 -36.95790999999999 Q39.64725 -34.737663999999995 39.64725 -31.385991999999995 Q39.64725 -28.12899999999999 41.815422 -25.908753999999995 Q43.988327999999996 -23.68850799999999 47.34 -23.68850799999999 Z M25.644078 1.4585000000000008 Q22.585914 1.4585000000000008 20.512422 -0.6149919999999867 Q18.443664 -2.683749999999989 18.443664 -5.642499999999998 V-64.8175 Q18.443664 -67.77624999999999 20.512422 -69.84500799999999 Q22.585914 -71.9185 25.544664 -71.9185 H54.540414000000006 Q56.315664000000005 -71.9185 57.645917999999995 -71.227336 Q58.976172 -70.536172 60.064992000000004 -69.352672 L74.659914 -51.99782799999999 Q75.450492 -51.10783599999999 75.84341400000001 -49.87699599999999 Q76.236336 -48.64142199999999 76.236336 -47.457921999999996 V-6.627171999999987 L58.682664 -24.185577999999992 Q59.76675 -25.761999999999993 60.3585 -27.58458999999999 Q60.95025 -29.411913999999996 60.95025 -31.48067199999999 Q60.95025 -37.104664 56.954754 -41.100159999999995 Q52.963992000000005 -45.09092199999999 47.34 -45.09092199999999 Q41.716007999999995 -45.09092199999999 37.725246 -41.100159999999995 Q33.72975 -37.104664 33.72975 -31.385991999999995 Q33.72975 -25.761999999999993 37.725246 -21.766503999999998 Q41.716007999999995 -17.771007999999995 47.34 -17.771007999999995 Q49.214664000000006 -17.771007999999995 51.037254000000004 -18.315417999999994 Q52.864578 -18.859827999999993 54.540414000000006 -19.943914 L73.670508 -0.7096719999999834 Q71.60175 0.5685080000000085 68.05125 1.0135039999999975 Q64.50075 1.4585000000000008 60.751422 1.4585000000000008 H25.644078 Z"/></g><g id="Thin-S" transform="matrix(1 0 0 1 814.015 696)"><path d="M47.34 -23.68850799999999 Q50.691672000000004 -23.68850799999999 52.864578 -25.908753999999995 Q55.03275 -28.12899999999999 55.03275 -31.385991999999995 Q55.03275 -34.737663999999995 52.864578 -36.95790999999999 Q50.691672000000004 -39.173421999999995 47.34 -39.173421999999995 Q43.988327999999996 -39.173421999999995 41.815422 -36.95790999999999 Q39.64725 -34.737663999999995 39.64725 -31.385991999999995 Q39.64725 -28.12899999999999 41.815422 -25.908753999999995 Q43.988327999999996 -23.68850799999999 47.34 -23.68850799999999 Z M26.728164 -0.316749999999999 Q23.963508 -0.316749999999999 22.140918 -2.1914139999999946 Q20.318327999999998 -4.0660780000000045 20.318327999999998 -6.825999999999993 V-63.63399999999999 Q20.318327999999998 -66.39392199999999 22.140918 -68.268586 Q23.963508 -70.14325 26.728164 -70.14325 H54.048078 Q55.6245 -70.14325 56.808 -69.55149999999999 Q57.9915 -68.95974999999999 59.075585999999994 -67.77624999999999 L72.984078 -51.207249999999995 Q73.670508 -50.41667199999999 74.01609 -49.285245999999994 Q74.361672 -48.149086 74.361672 -47.06499999999999 V-7.024827999999999 L56.808 -24.677913999999994 Q57.892086 -26.154921999999992 58.483836 -27.78341799999999 Q59.075585999999994 -29.411913999999996 59.075585999999994 -31.48067199999999 Q59.075585999999994 -36.31408599999999 55.671839999999996 -39.76517199999999 Q52.272828 -43.220991999999995 47.34 -43.220991999999995 Q42.407172 -43.220991999999995 39.008160000000004 -39.76517199999999 Q35.604414 -36.31408599999999 35.604414 -31.385991999999995 Q35.604414 -26.453163999999994 39.008160000000004 -23.04941799999999 Q42.407172 -19.645671999999998 47.34 -19.645671999999998 Q49.11525 -19.645671999999998 50.743745999999994 -20.190081999999997 Q52.367507999999994 -20.734491999999996 54.048078 -21.818577999999995 L72.586422 -3.1760859999999838 Q70.219422 -1.400835999999984 66.522168 -0.8611599999999839 Q62.82491400000001 -0.316749999999999 58.682664 -0.316749999999999 H26.728164 Z"/></g><g id="Ultralight-S" transform="matrix(1 0 0 1 517.792 696)"><path d="M47.34 -23.68850799999999 Q50.691672000000004 -23.68850799999999 52.911918 -25.908753999999995 Q55.132164 -28.12899999999999 55.132164 -31.385991999999995 Q55.132164 -34.737663999999995 52.911918 -36.95790999999999 Q50.691672000000004 -39.173421999999995 47.34 -39.173421999999995 Q43.988327999999996 -39.173421999999995 41.815422 -36.95790999999999 Q39.64725 -34.737663999999995 39.64725 -31.385991999999995 Q39.64725 -28.12899999999999 41.815422 -25.908753999999995 Q43.988327999999996 -23.68850799999999 47.34 -23.68850799999999 Z M27.419328 -1.400835999999984 Q24.8535 -1.400835999999984 23.12559 -3.1287459999999925 Q21.402414 -4.851921999999988 21.402414 -7.417749999999998 V-63.042249999999996 Q21.402414 -65.60807799999999 23.12559 -67.331254 Q24.8535 -69.059164 27.419328 -69.059164 H53.749835999999995 Q55.330992 -69.059164 56.415078 -68.46741399999999 Q57.499164 -67.875664 58.483836 -66.890992 L72.09408599999999 -50.81432799999999 Q72.685836 -50.02374999999999 73.031418 -48.93966399999999 Q73.377 -47.855577999999994 73.377 -46.86617199999999 V-7.318335999999988 L55.723914 -24.971421999999997 Q56.808 -26.453163999999994 57.39975 -27.98224599999999 Q57.9915 -29.511327999999992 57.9915 -31.385991999999995 Q57.9915 -35.921164 54.885996 -39.026667999999994 Q51.780492 -42.132172 47.34 -42.132172 Q42.899508 -42.132172 39.794004 -39.026667999999994 Q36.6885 -35.921164 36.6885 -31.385991999999995 Q36.6885 -26.945499999999996 39.794004 -23.88733599999999 Q42.899508 -20.829171999999993 47.34 -20.829171999999993 Q49.01583599999999 -20.829171999999993 50.544917999999996 -21.321507999999987 Q52.074 -21.818577999999995 53.749835999999995 -22.902663999999994 L71.899992 -4.657827999999995 Q69.433578 -2.683749999999989 65.63691 -2.044659999999979 Q61.835508 -1.400835999999984 57.499164 -1.400835999999984 H27.419328 Z"/></g></g></svg>