<svg xmlns="http://www.w3.org/2000/svg" height="40" width="40"><path d="M13.667 29.5 5.625 21.417Q5.292 21.125 5.146 20.771Q5 20.417 5 20.042Q5 19.625 5.146 19.271Q5.292 18.917 5.625 18.625L13.625 10.583Q14.25 10 15.104 9.958Q15.958 9.917 16.542 10.542Q17.125 11.125 17.125 11.958Q17.125 12.792 16.542 13.375L11.875 18.042H31.833V12.958Q31.833 12.125 32.396 11.542Q32.958 10.958 33.833 10.958Q34.708 10.958 35.271 11.542Q35.833 12.125 35.833 12.958V20.042Q35.833 20.875 35.25 21.458Q34.667 22.042 33.833 22.042H11.917L16.5 26.625Q17.083 27.208 17.104 28.042Q17.125 28.875 16.542 29.5Q15.958 30.042 15.104 30.042Q14.25 30.042 13.667 29.5Z"/></svg>