<svg xmlns="http://www.w3.org/2000/svg" height="20" width="20"><path d="M10.083 4.854Q9.271 4.854 8.708 4.302Q8.146 3.75 8.146 2.958Q8.146 2.125 8.708 1.573Q9.271 1.021 10.083 1.021Q10.896 1.021 11.438 1.573Q11.979 2.125 11.979 2.958Q11.979 3.75 11.438 4.302Q10.896 4.854 10.083 4.854ZM8.271 18.688Q7.792 18.688 7.438 18.333Q7.083 17.979 7.083 17.521V8.667Q6.896 9.104 6.667 9.688Q6.438 10.271 6.312 11.208Q6.271 11.771 5.885 12.115Q5.5 12.458 4.979 12.458Q4.521 12.458 4.208 12.135Q3.896 11.812 3.938 11.354Q4.146 8.208 5.719 6.823Q7.292 5.438 10.083 5.438Q11.812 5.438 12.729 4.521Q13.646 3.604 13.896 1.979Q13.958 1.5 14.302 1.188Q14.646 0.875 15.062 0.875Q15.583 0.875 15.937 1.25Q16.292 1.625 16.25 2.125Q16.062 3.812 15.271 5.146Q14.479 6.479 13.104 7.125V17.521Q13.104 17.979 12.75 18.333Q12.396 18.688 11.917 18.688Q11.438 18.688 11.083 18.333Q10.729 17.979 10.729 17.521V13.396H9.438V17.521Q9.438 17.979 9.083 18.333Q8.729 18.688 8.271 18.688ZM4.042 18.688Q3.542 18.688 3.188 18.333Q2.833 17.979 2.833 17.5V14.521Q2.833 14.042 3.188 13.688Q3.542 13.333 4.042 13.333H4.833Q5.312 13.333 5.667 13.688Q6.021 14.042 6.021 14.521V17.5Q6.021 17.979 5.667 18.333Q5.312 18.688 4.833 18.688Z"/></svg>