<svg xmlns="http://www.w3.org/2000/svg" height="40" width="40"><path d="M12 28.25q-.542 0-.917-.375t-.375-.917q0-.583.375-.958t.917-.375h6.958q-.833-.875-1.396-2.021-.562-1.146-.729-2.312H8.875q-.542 0-.917-.375T7.583 20q0-.542.375-.938.375-.395.917-.395h7.958q.167-1.084.709-2.229.541-1.146 1.416-2.063H8.042q-.542 0-.917-.375t-.375-.958q0-.542.375-.938.375-.396.917-.396H25q3.417 0 5.854 2.438 2.438 2.437 2.438 5.854 0 3.417-2.438 5.833Q28.417 28.25 25 28.25Zm13-2.625q2.333 0 3.979-1.646T30.625 20q0-2.333-1.646-3.979T25 14.375q-2.333 0-3.979 1.646T19.375 20q0 2.333 1.646 3.979T25 25.625ZM8.042 28.25q-.542 0-.917-.375t-.375-.917q0-.583.375-.958t.917-.375q.583 0 .958.375t.375.958q0 .542-.375.917t-.958.375Z"/></svg>