<svg xmlns="http://www.w3.org/2000/svg" height="40" width="40"><path d="M10.125 35.833Q9.042 35.833 8.271 35.062Q7.5 34.292 7.5 33.208V6.792Q7.5 5.708 8.271 4.938Q9.042 4.167 10.125 4.167H24.167L32.5 12.5V33.208Q32.5 34.292 31.729 35.062Q30.958 35.833 29.875 35.833ZM23.125 13.458H30.417L23.125 6.25ZM26.25 30.75 27.667 29.333 23.125 24.75Q23.583 24.083 23.792 23.312Q24 22.542 24 21.708Q24 19.458 22.438 17.917Q20.875 16.375 18.583 16.375Q16.333 16.375 14.771 17.938Q13.208 19.5 13.208 21.75Q13.208 24.042 14.75 25.604Q16.292 27.167 18.542 27.167Q19.375 27.167 20.188 26.917Q21 26.667 21.708 26.208ZM18.583 25.042Q17.208 25.042 16.25 24.083Q15.292 23.125 15.292 21.75Q15.292 20.375 16.25 19.417Q17.208 18.458 18.583 18.458Q20 18.458 20.958 19.417Q21.917 20.375 21.917 21.75Q21.917 23.125 20.958 24.083Q20 25.042 18.583 25.042Z"/></svg>