<svg xmlns="http://www.w3.org/2000/svg" height="20" viewBox="0 -960 960 960" width="20"><path d="M480.11-392.15q47.89 0 89.89-20.5t66.5-61.5q-34.5-26-73.75-41.5T480-531.15q-43.5 0-82.75 15.5t-73.75 41.5q24.5 41 66.61 61.5t90 20.5Zm-.09-192q28.98 0 49.23-20.27 20.25-20.28 20.25-49.25 0-28.98-20.27-49.23-20.27-20.25-49.25-20.25t-49.23 20.27q-20.25 20.27-20.25 49.25t20.27 49.23q20.27 20.25 49.25 20.25ZM480-86.78Q318.46-221.93 238.62-332.1q-79.84-110.16-79.84-217.47 0-137.73 92.05-230.44 92.04-92.71 229.17-92.71 136.13 0 228.67 92.71 92.55 92.71 92.55 230.44 0 107.31-79.34 216.97Q642.54-222.93 480-86.78Z"/></svg>