<svg xmlns="http://www.w3.org/2000/svg" height="20" width="20"><path d="M9.333 12.625q-.395.271-.812.042-.417-.229-.417-.709V8.042q0-.48.417-.709.417-.229.812.042l3.042 1.958q.208.125.281.292.073.167.073.375t-.073.375q-.073.167-.281.292Zm-.916 5.125q-.75-.167-1.469-.458-.719-.292-1.344-.709-.271-.166-.271-.458 0-.292.209-.5.187-.187.427-.198.239-.01.448.115.5.312 1.052.541.552.229 1.135.355.229.062.396.26t.167.427q0 .333-.219.521-.219.187-.531.104Zm-4.042-3.333q-.229.229-.521.218-.292-.01-.458-.26-.417-.625-.729-1.333-.313-.709-.459-1.459-.062-.291.136-.521.198-.229.51-.229.229 0 .438.167.208.167.27.417.146.562.355 1.114.208.552.521 1.031.124.209.104.459-.021.25-.167.396Zm-1.5-5.229q-.333 0-.542-.23-.208-.229-.125-.52.167-.813.427-1.469.261-.657.719-1.323.188-.25.479-.281.292-.032.521.197.167.167.188.407.02.239-.104.469-.313.479-.532 1.031-.218.552-.344 1.135-.062.25-.26.417-.198.167-.427.167Zm8.687 8.562q-.312.083-.531-.104-.219-.188-.219-.5 0-.25.157-.448.156-.198.406-.26 2.25-.5 3.708-2.303 1.459-1.802 1.459-4.135 0-2.333-1.459-4.135-1.458-1.803-3.708-2.303-.25-.041-.406-.26-.157-.219-.157-.448 0-.312.219-.5.219-.187.511-.104 2.75.583 4.541 2.74 1.792 2.156 1.792 5.01 0 2.854-1.792 5.021-1.791 2.167-4.521 2.729ZM6.396 4.5q-.208.125-.469.094-.26-.032-.406-.198-.209-.25-.198-.531.01-.282.281-.448.646-.438 1.354-.729.709-.292 1.48-.459.291-.062.51.125.219.188.219.5 0 .25-.157.459-.156.208-.406.249-.562.126-1.125.355-.562.229-1.083.583Z"/></svg>