<svg xmlns="http://www.w3.org/2000/svg" height="20" width="20"><path d="M16.667 6.646 17.292 6.021 15.771 4.458V1.625H14.812V4.833ZM5.229 14.438Q5.812 14.438 6.208 14.031Q6.604 13.625 6.604 13.062Q6.604 12.479 6.208 12.083Q5.812 11.688 5.229 11.688Q4.667 11.688 4.26 12.083Q3.854 12.479 3.854 13.062Q3.854 13.625 4.26 14.031Q4.667 14.438 5.229 14.438ZM11.042 14.438Q11.625 14.438 12.021 14.031Q12.417 13.625 12.417 13.042Q12.417 12.479 12.021 12.083Q11.625 11.688 11.042 11.688Q10.479 11.688 10.073 12.083Q9.667 12.479 9.667 13.042Q9.667 13.625 10.073 14.031Q10.479 14.438 11.042 14.438ZM2.833 18.708Q2.438 18.708 2.156 18.427Q1.875 18.146 1.875 17.75V16.021Q1.521 15.542 1.365 15.01Q1.208 14.479 1.208 13.958V5.854Q1.208 5.042 1.49 4.333Q1.771 3.625 2.635 3.115Q3.5 2.604 5.083 2.354Q6.667 2.104 9.292 2.208Q9.062 2.667 8.938 3.177Q8.812 3.688 8.771 4.208Q6.708 4.125 5.427 4.312Q4.146 4.5 3.562 4.896H8.792Q8.812 5.417 8.917 5.906Q9.021 6.396 9.188 6.854H3.167V8.979H10.521Q11.458 10.021 12.74 10.583Q14.021 11.146 15.125 11.146V13.958Q15.125 14.479 14.969 15.01Q14.812 15.542 14.458 16.021V17.75Q14.458 18.146 14.167 18.427Q13.875 18.708 13.5 18.708H12.417Q12.042 18.708 11.75 18.427Q11.458 18.146 11.458 17.75V17.062H4.875V17.75Q4.875 18.146 4.583 18.427Q4.292 18.708 3.917 18.708ZM11.542 10.938H4.854Q4.167 10.938 3.667 10.938Q3.167 10.938 3.167 10.938H13.167Q13.167 10.938 12.688 10.938Q12.208 10.938 11.542 10.938ZM15.333 9.396Q13.312 9.396 11.927 8.01Q10.542 6.625 10.542 4.604Q10.542 2.583 11.927 1.198Q13.312 -0.188 15.333 -0.188Q17.354 -0.188 18.74 1.198Q20.125 2.583 20.125 4.604Q20.125 6.625 18.74 8.01Q17.354 9.396 15.333 9.396ZM4.854 15.125H11.542Q12.208 15.125 12.688 14.625Q13.167 14.125 13.167 13.438V10.938H3.167V13.438Q3.167 14.125 3.667 14.625Q4.167 15.125 4.854 15.125ZM8.833 4.896Q8.812 4.896 8.802 4.896Q8.792 4.896 8.792 4.896H3.562Q4.146 4.896 5.438 4.896Q6.729 4.896 8.833 4.896Z"/></svg>