<svg xmlns="http://www.w3.org/2000/svg" height="20" viewBox="0 -960 960 960" width="20"><path d="M837.152-386.77 599.845-149.463q-5.488 5.462-12.098 8.692-6.61 3.231-15.104 3.231h-32.594q-8.664 0-14.279-5.615-5.616-5.616-5.616-14.28v-32.594q0-8.494 3.231-15.104 3.231-6.61 8.692-12.098l237.307-237.307 67.768 67.768Zm-761.15 62.461v-367.382q0-38.527 25.89-64.417 25.89-25.891 64.417-25.891h613.382q38.527 0 64.417 25.891 25.891 25.89 25.891 64.417v127.462H792l-90.23 90.23H265q-16.05 0-27.524 11.418-11.475 11.418-11.475 27.384 0 15.966 11.475 27.581Q248.95-396.001 265-396.001h358.772l-161.999 162H166.309q-38.527 0-64.417-25.891-25.89-25.89-25.89-64.417ZM265-544.001h172q16.05 0 27.524-11.418 11.475-11.418 11.475-27.384 0-15.966-11.475-27.581Q453.05-621.999 437-621.999H265q-16.05 0-27.524 11.418-11.475 11.418-11.475 27.384 0 15.966 11.475 27.581Q248.95-544.001 265-544.001ZM857.383-407.77l-67.768-67.768 30.649-31.636q4.446-4.671 10.781-4.671 6.335 0 10.724 4.615l46.872 47.137q4.049 4.122 4.049 10.069 0 5.946-4.671 10.618l-30.636 31.636Z"/></svg>