<svg xmlns="http://www.w3.org/2000/svg" height="40" viewBox="0 -960 960 960" width="40"><path d="M98.82-92v-600h240.72l140.61-140.62L620.77-692h240.72v600H98.82ZM150-143.18h660.31v-497.64H150v497.64Zm142.21-99.49h384L555.23-404.05l-107.9 137.08-72.15-84-82.97 108.3ZM673.1-429.74q19.7 0 33.86-14.35 14.17-14.35 14.17-34.04 0-19.69-14.35-33.86-14.35-14.16-34.04-14.16-19.69 0-33.86 14.34-14.16 14.35-14.16 34.04 0 19.69 14.35 33.86 14.34 14.17 34.03 14.17ZM399.03-692H561.8l-81.65-81.13L399.03-692ZM150-143.18v-497.64 497.64Z"/></svg>