<svg xmlns="http://www.w3.org/2000/svg" height="40" width="40"><path d="M14.833 37.375q-1.041 0-1.833-.792-.792-.791-.792-1.875 0-1.041.792-1.833t1.833-.792q1.042 0 1.834.792.791.792.791 1.833 0 1.084-.791 1.875-.792.792-1.834.792Zm18 0q-1.041 0-1.833-.792-.792-.791-.792-1.875 0-1.041.792-1.833t1.875-.792q1.042 0 1.833.792.792.792.792 1.833 0 1.084-.792 1.875-.791.792-1.875.792Zm-9.625-24.417L16.25 4.625q1.792-.875 3.646-1.292 1.854-.416 3.437-.416 1.792 0 3.479.375 1.688.375 3.271 1.166.667.375.729 1.063.063.687-.562 1.271Zm-2.75 17.625q-3.625 0-6.104-2.5t-2.479-6.125V9.125L11 8.083q-.833-.958-1.396-1.333-.562-.375-1.104-.375-.667 0-1.083.396-.417.396-.625.979-.375.375-.792.854-.417.479-1.083.479-.875 0-1.396-.625Q3 7.833 3.208 7.125 3.75 5.25 5.167 4.042 6.583 2.833 8.5 2.833q1.333 0 2.542.584Q12.25 4 13.583 5.625l17.667 21.25q.917 1.042.292 2.375t-2.084 1.333Z"/></svg>