<svg xmlns="http://www.w3.org/2000/svg" height="20" viewBox="0 -960 960 960" width="20"><path d="M190.57-375.87 38.43-528.24l152.14-152.61 58.65 58.65-51.98 52.46h241.09L618.2-789.8l63.13 53.93-205.74 248.89H197.24l51.98 52.46-58.65 58.65Zm234.69-292.09-72.93-73.41H186.74v-82.76h200.13l91.09 91.8-52.7 64.37Zm152.41 474.57q27.85 0 47.42-19.69 19.56-19.68 19.56-48.01 0-28.32-19.56-48.01-19.57-19.68-47.42-19.68-28.08 0-47.65 19.68-19.56 19.69-19.56 48.01 0 28.33 19.56 48.01 19.57 19.69 47.65 19.69Zm0 81.52q-54.95 0-95.65-34.62-40.69-34.62-49.89-86.1H186.74v-82.76h251.15q16.2-42.72 54.01-69.45 37.82-26.74 85.77-26.74 47.96 0 86.28 26.74 38.31 26.73 54.51 69.45h70.91v-160.41q0-25.33-15.19-44.13-15.18-18.81-40.51-22.57l-103.84-16.76 60.89-73.8 54.39 8.04q56.15 8.48 91.59 50.65 35.43 42.18 35.43 98.57v243.17H724.22q-9.44 51.48-50.51 86.1-41.08 34.62-96.04 34.62Z"/></svg>