<svg xmlns="http://www.w3.org/2000/svg" height="20" viewBox="0 -960 960 960" width="20"><path d="m368-592 56 56H312v112h74.86v-19H443v37q0 15-11.5 26.5T405-368H293q-15 0-26-11.5T256-406v-130q0-23 16.5-39.5T312-592h56Zm-74-176h450q29.7 0 50.85 21.15Q816-725.7 816-696v451l-72-73v-378H366l-72-72Zm410 325v36.73q0 8.27-4.5 17.27T688-374l-50-50h10v-19h56Zm-56.14-74v-19H573v47l-56-56v-10q0-15.72 10.78-26.36Q538.56-592 554.5-592H667q15 0 26 10.78t11 26.72v37.5h-56.14ZM545-517Zm-129 74ZM199-761l65 65h-48v432h378L90-768l51-51 678 678-51 51-102-102H216.46Q186-192 165-213.15T144-264v-432q0-38 26.5-51.5T199-761Z"/></svg>