<svg xmlns="http://www.w3.org/2000/svg" height="24" viewBox="0 -960 960 960" width="24"><path d="M480-480ZM68-653.69v-58Q68-753 96.5-781.5t69.81-28.5h627.38q41.31 0 69.81 28.5t28.5 69.81v137q0 17.75-12.63 30.37-12.63 12.63-30.38 12.63-17.76 0-30.37-12.63Q806-556.94 806-574.69v-137q0-4.62-3.85-8.46-3.84-3.85-8.46-3.85H166.31q-4.62 0-8.46 3.85-3.85 3.84-3.85 8.46v58q0 17.75-12.63 30.37-12.63 12.63-30.38 12.63-17.76 0-30.37-12.63Q68-635.94 68-653.69ZM166.31-150Q125-150 96.5-178.5T68-248.31v-58q0-17.75 12.63-30.37 12.63-12.63 30.38-12.63 17.76 0 30.37 12.63Q154-324.06 154-306.31v58q0 5.39 3.46 8.85t8.85 3.46h144q17.75 0 30.37 12.63 12.63 12.63 12.63 30.38 0 17.76-12.63 30.37Q328.06-150 310.31-150h-144ZM280-277q-13.69 0-23.5-5.96t-15.65-17.27L172.77-437h-62.15q-17.75 0-30.38-12.63-12.62-12.63-12.62-30.38 0-17.76 12.62-30.37Q92.87-523 110.62-523h89q12.21 0 22.31 6.53 10.1 6.53 15.84 18.09L280-415.31l120.85-243.07q5.77-11.31 16.31-16.97 10.55-5.65 22.85-5.65t22.18 5.65q9.89 5.66 15.58 16.97l64.61 128.84q-22.61 2-42.55 11.61-19.93 9.6-34.98 25.08l-25.23-50.46-121.85 243.08q-5.85 11.31-15.74 17.27Q292.13-277 280-277ZM482.46-37q-26.19 0-43.82-17.64Q421-72.27 421-98.46v-141.16q0-9.84 1.81-19.76 1.81-9.93 6.81-19.16l58.84-136.77q8.83-21.55 27.39-35.12Q534.41-464 557.38-464H627v-27q0-17.75 12.63-30.37Q652.26-534 670.01-534q17.76 0 30.37 12.63Q713-508.75 713-491v27h67.85q22.88 0 41.36 13.54t27.56 34.77l60.61 136.77q5 9.23 6.81 19.34 1.81 10.12 1.81 20.35v140.77q0 26.19-18.14 43.82Q882.73-37 857.54-37H756.92q-26.19 0-43.82-17.64-17.64-17.63-17.64-43.82v-29.23q0-17.75 12.63-30.38 12.63-12.62 30.38-12.62 14.76 0 26.37 9.12 11.62 9.13 15.62 21.88V-123H833v-121.54L772.62-378H713v43.23l37.69 38.69Q763-282.77 762-265.45t-13.31 29.53q-13.69 13.69-30.57 13.19-16.89-.5-29.58-14.19L670-255.85l-19.92 19.93q-13.31 13.18-30.27 12.55-16.96-.63-29.89-13.55-13.69-13.7-13.69-30.58t13.69-30.58l37.08-36.3V-378h-61.38L507-244.54V-123h53.54v-17.69q5-12.75 15.63-21.38 10.63-8.62 25.38-8.62 17.76 0 30.37 12.62 12.62 12.63 12.62 30.38V-100q0 26.83-18.58 44.92Q607.37-37 581.54-37h-99.08ZM670-251Zm-80.08-47.08 37.08-36.3V-378v43.62l-37.08 36.3Zm160.77 2L713-334.77V-378v43.23l37.69 38.69Z"/></svg>