<svg xmlns="http://www.w3.org/2000/svg" height="48" width="48"><path d="M38.65 44.2 31.25 36.8 30.55 37.65V40.75Q30.55 41.7 29.875 42.35Q29.2 43 28.25 43H19.8Q18.8 43 18.15 42.35Q17.5 41.7 17.5 40.75V36L12.2 30.1Q11.65 29.45 11.3 28.65Q10.95 27.85 10.95 26.9V17.55Q10.95 17.3 10.975 17Q11 16.7 11.05 16.5L3.8 9.4Q3.3 8.85 3.325 8.175Q3.35 7.5 3.85 7Q4.4 6.45 5.075 6.45Q5.75 6.45 6.3 6.95L41.15 41.75Q41.6 42.3 41.575 43.025Q41.55 43.75 41.1 44.2Q40.55 44.75 39.875 44.75Q39.2 44.75 38.65 44.2ZM22.1 38.45H25.95V34.15L27.25 32.65L15.5 21.05V26.85L22.1 34.15ZM34.65 31.35 32.5 29.15V18.05Q32.5 18.05 32.5 18.05Q32.5 18.05 32.5 18.05H21.4L16.55 13.25V7.25Q16.55 6.3 17.225 5.6Q17.9 4.9 18.85 4.9Q19.8 4.9 20.475 5.6Q21.15 6.3 21.15 7.25V13.4H26.9V7.25Q26.9 6.3 27.55 5.6Q28.2 4.9 29.15 4.9Q30.15 4.9 30.8 5.6Q31.45 6.3 31.45 7.25V13.55H33.6Q35.25 13.9 36.2 15.125Q37.15 16.35 37.15 18.1V26.9Q37.15 28.15 36.5 29.075Q35.85 30 34.65 31.35ZM27.05 23.7Q27.05 23.7 27.05 23.7Q27.05 23.7 27.05 23.7ZM21.4 26.85Z"/></svg>