<svg xmlns="http://www.w3.org/2000/svg" height="48" viewBox="0 -960 960 960" width="48"><path d="M114-134.5q-12.25 0-20.62-8.43-8.38-8.42-8.38-20.5 0-12.07 8.38-20.32Q101.75-192 114-192h732.5q11.67 0 20.09 8.46 8.41 8.47 8.41 20.22 0 12.32-8.41 20.57-8.42 8.25-20.09 8.25H114ZM173.1-252q-20.1 0-34.35-14.29T124.5-301v-166.22q0-19.61 14.33-33.95 14.34-14.33 34.82-14.33 19.85 0 34.1 14.35Q222-486.79 222-467v166.22q0 20.24-14.4 34.51Q193.21-252 173.1-252Zm203.84 0q-20.44 0-34.44-14.29-14-14.29-14-34.71v-366q0-19.79 14.21-34.15 14.2-14.35 34.5-14.35 20.29 0 34.54 14.35Q426-686.79 426-667v366.21q0 20.08-14.31 34.44Q397.38-252 376.94-252Zm204.66 0q-20.1 0-34.35-14.29T533-301v-245.85q0-19.98 14.33-34.32 14.34-14.33 34.82-14.33 19.85 0 34.1 14.35Q630.5-566.79 630.5-547v245.92q0 20.41-14.4 34.75Q601.71-252 581.6-252Zm205 0q-20.1 0-34.35-14.29T738-301v-485.8q0-19.99 14.33-34.35 14.34-14.35 34.82-14.35 19.85 0 34.1 14.35 14.25 14.36 14.25 34.35V-301q0 20.42-14.4 34.71Q806.71-252 786.6-252Z"/></svg>