<svg xmlns="http://www.w3.org/2000/svg" height="40" viewBox="0 96 960 960" width="40"><path d="M580.205 821.127q18.666 0 31.794-13.333t13.128-31.999q0-18.666-13.194-31.794T580 730.873q-18.461 0-31.794 13.194-13.333 13.194-13.333 31.933 0 18.461 13.333 31.794 13.333 13.333 31.999 13.333ZM378 812.999 616.999 574 582 539.001 343.001 778 378 812.999Zm2.205-191.872q18.666 0 31.794-13.333t13.128-31.999q0-18.666-13.194-31.794T380 530.873q-18.461 0-31.794 13.194-13.333 13.194-13.333 31.933 0 18.461 13.333 31.794 13.333 13.333 31.999 13.333Zm-137.64 334.872q-25.788 0-44.176-18.388t-18.388-44.176v-634.87q0-25.788 18.388-44.176t44.176-18.388h337.59l199.844 199.844v497.59q0 25.788-18.388 44.176t-44.176 18.388h-474.87Zm312.462-536.513v-173.23H242.565q-4.616 0-8.462 3.847-3.847 3.846-3.847 8.462v634.87q0 4.616 3.847 8.462 3.846 3.847 8.462 3.847h474.87q4.616 0 8.462-3.847 3.847-3.846 3.847-8.462V419.486H555.027Zm-324.771-173.23v173.23-173.23V905.744 246.256Z"/></svg>