<svg xmlns="http://www.w3.org/2000/svg" height="24" width="24"><path d="M6.65 17.7Q6.5 17.7 6.4 17.6Q6.3 17.5 6.3 17.35V6.65Q6.3 6.5 6.4 6.4Q6.5 6.3 6.65 6.3Q6.8 6.3 6.9 6.4Q7 6.5 7 6.65V17.35Q7 17.5 6.9 17.6Q6.8 17.7 6.65 17.7ZM2.35 17.7Q2.2 17.7 2.1 17.6Q2 17.5 2 17.35V6.65Q2 6.5 2.1 6.4Q2.2 6.3 2.35 6.3Q2.5 6.3 2.6 6.4Q2.7 6.5 2.7 6.65V17.35Q2.7 17.5 2.6 17.6Q2.5 17.7 2.35 17.7ZM12.1 17.7Q11.45 17.7 11.025 17.275Q10.6 16.85 10.6 16.2V7.8Q10.6 7.15 11.025 6.725Q11.45 6.3 12.1 6.3H20.5Q21.15 6.3 21.575 6.725Q22 7.15 22 7.8V16.2Q22 16.85 21.575 17.275Q21.15 17.7 20.5 17.7ZM12.1 17H20.5Q20.85 17 21.075 16.775Q21.3 16.55 21.3 16.2V7.8Q21.3 7.45 21.075 7.225Q20.85 7 20.5 7H12.1Q11.75 7 11.525 7.225Q11.3 7.45 11.3 7.8V16.2Q11.3 16.55 11.525 16.775Q11.75 17 12.1 17ZM13.7 14.7H18.9Q19.15 14.7 19.263 14.475Q19.375 14.25 19.225 14.05L18.025 12.425Q17.9 12.25 17.7 12.262Q17.5 12.275 17.375 12.425L15.8 14.5L14.725 13.075Q14.6 12.9 14.4 12.9Q14.2 12.9 14.075 13.075L13.375 14.075Q13.225 14.275 13.338 14.487Q13.45 14.7 13.7 14.7ZM11.3 7Q11.3 7 11.3 7.225Q11.3 7.45 11.3 7.8V16.2Q11.3 16.55 11.3 16.775Q11.3 17 11.3 17Q11.3 17 11.3 16.775Q11.3 16.55 11.3 16.2V7.8Q11.3 7.45 11.3 7.225Q11.3 7 11.3 7Z"/></svg>