<svg xmlns="http://www.w3.org/2000/svg" height="40" viewBox="0 -960 960 960" width="40"><path d="M480.08-310.67q78.92 0 134.09-55.24 55.16-55.25 55.16-134.17 0-78.92-55.24-134.09-55.25-55.16-134.17-55.16-78.92 0-134.09 55.24-55.16 55.25-55.16 134.17 0 78.92 55.24 134.09 55.25 55.16 134.17 55.16Zm-.35-77.33q-46.4 0-79.06-32.94Q368-453.88 368-500.27q0-46.4 32.94-79.06Q433.88-612 480.27-612q46.4 0 79.06 32.94Q592-546.12 592-499.73q0 46.4-32.94 79.06Q526.12-388 479.73-388Zm.27 208q-154.67 0-280.33-88Q74-356 16-500q58-144 183.67-232Q325.33-820 480-820t280.33 88Q886-644 944-500q-58 144-183.67 232Q634.67-180 480-180Z"/></svg>