<svg xmlns="http://www.w3.org/2000/svg" height="20" width="20"><path d="M10 15.812Q10.625 15.812 11.031 15.396Q11.438 14.979 11.396 14.396H8.625Q8.583 14.979 8.99 15.396Q9.396 15.812 10 15.812ZM6.167 13.875H13.854Q14.271 13.875 14.594 13.542Q14.917 13.208 14.917 12.771Q14.917 12.354 14.594 12.042Q14.271 11.729 13.833 11.729V9.604Q13.833 8.167 13.115 6.969Q12.396 5.771 11.021 5.458V5.229Q11.021 4.812 10.729 4.51Q10.438 4.208 10 4.208Q9.562 4.208 9.271 4.5Q8.979 4.792 8.979 5.229V5.458Q7.604 5.771 6.885 6.99Q6.167 8.208 6.167 9.646V11.729H6.146Q5.729 11.729 5.406 12.052Q5.083 12.375 5.083 12.792Q5.083 13.229 5.406 13.552Q5.729 13.875 6.167 13.875ZM10 19Q8.125 19 6.49 18.292Q4.854 17.583 3.635 16.365Q2.417 15.146 1.708 13.51Q1 11.875 1 10Q1 8.125 1.708 6.479Q2.417 4.833 3.635 3.615Q4.854 2.396 6.49 1.698Q8.125 1 10 1Q11.875 1 13.521 1.698Q15.167 2.396 16.385 3.615Q17.604 4.833 18.302 6.479Q19 8.125 19 10Q19 11.875 18.302 13.51Q17.604 15.146 16.385 16.365Q15.167 17.583 13.521 18.292Q11.875 19 10 19ZM10 9.583Z"/></svg>