<svg xmlns="http://www.w3.org/2000/svg" height="40" viewBox="0 -960 960 960" width="40"><path d="M401.01-409.58q-46.85 0-78.92-33.57-32.06-33.57-32.06-81.26v-243.31q0-46.03 32.32-78.09 32.32-32.07 78.66-32.07 46.19 0 78.51 32.07 32.32 32.06 32.32 78.09v243.31q0 47.69-32.06 81.26-32.07 33.57-78.77 33.57Zm-34.6 261.5v-97.44q-96.55-10.66-166.34-78.32-69.79-67.65-81.84-165.28-2.16-14.62 7.49-24.95 9.64-10.34 24.88-10.34 14.61 0 24.85 10.21 10.25 10.21 13.06 25.15 14.05 81.74 75.76 128.84 61.72 47.11 143.14 47.11 10.92 0 19.65 7.66 8.74 7.66 8.74 18.6v138.76q0 14.78-10.09 24.86-10.08 10.08-24.7 10.08-14.77 0-24.69-10.08-9.91-10.08-9.91-24.86Zm214.68-11.37-18.04 7.91q-11.71 5.08-24.13.93-12.41-4.15-19.23-15.36l-5.49-8.8q-7.48-11.02-5.32-24.02 2.16-12.99 13.05-21.43l15.2-12.44q-5.17-17.44-5.17-35.8 0-18.37 5.17-35.81l-15.2-12.2q-10.73-8.64-12.97-21.64-2.24-13.01 5.24-24.64l5.32-8.97q6.82-11.3 19.03-15.24 12.22-3.94 24.42.81l18.12 8.01q13.95-12.11 29.91-21.09t33.78-14.23l3.26-22.04q2.08-12.47 11.38-21.06 9.31-8.6 21.99-8.6h9.49q12.52 0 22.24 8.02 9.72 8.02 11.63 20.48l2.93 23.2q17.57 5.35 33.65 14.2t30.19 21.12l18.22-8.01q12.04-4.75 24.14-.81 12.09 3.94 19.24 15.24l5.39 8.41q7.56 11.67 5.02 25.04-2.53 13.37-13.08 21.8l-15.2 12.2q4.83 17.61 4.83 35.81 0 18.19-4.83 35.8l15.87 12.44q10.55 8.66 12.75 21.48 2.2 12.81-5.36 24.47l-5.08 8.3q-6.98 11.21-19.6 15.36-12.62 4.15-24.17-.93l-18.14-7.91q-13.77 12.77-29.96 21.87-16.18 9.11-33.88 14.35l-2.77 22.18q-2.07 12.81-11.91 20.83-9.84 8.02-22.36 8.02h-9.25q-12.76 0-22.03-8.27-9.26-8.27-11.18-20.89l-3.42-21.82q-17.94-5.4-34.09-14.45-16.15-9.05-29.6-21.82Zm108.97-16.11q38.28 0 65.68-27.36 27.39-27.35 27.39-65.8 0-38.44-27.39-65.75-27.4-27.32-65.68-27.32-38.44 0-65.88 27.32-27.43 27.31-27.43 65.75 0 38.45 27.43 65.8 27.44 27.36 65.88 27.36Z"/></svg>