<svg xmlns="http://www.w3.org/2000/svg" height="24" viewBox="0 -960 960 960" width="24"><path d="M157.69-148.08q-14.25 0-24.24-9.99-9.99-9.99-9.99-24.24v-355.5q0-14.25 9.99-24.18t24.24-9.93h114.62q14.25 0 24.24 9.98 9.99 9.98 9.99 23.97v355.5q0 14.51-9.99 24.45t-24.24 9.94H157.69Zm261.13 0q-14.47 0-24.42-9.99-9.94-9.99-9.94-24.24v-595.57q0-14.03 9.99-24.04 9.99-10 24.24-10h122.69q14.24 0 24.2 10 9.96 10.01 9.96 24.04v595.57q0 14.25-10.01 24.24-10 9.99-24.03 9.99H418.82Zm268.87 0q-14.25 0-24.14-9.94-9.9-9.95-9.9-24.14v-275.91q0-13.95 9.9-23.9 9.89-9.95 24.14-9.95h114.77q14.04 0 24.06 9.95 10.02 9.96 10.02 23.91v275.91q0 14.19-10.02 24.13t-24.06 9.94H687.69Z"/></svg>