<svg xmlns="http://www.w3.org/2000/svg" height="24" viewBox="0 -960 960 960" width="24"><path d="M171.78-211.78h137.96v-296.44H171.78v296.44Zm238.96 0h138.52v-536.44H410.74v536.44Zm239.52 0h137.96v-216.44H650.26v216.44Zm-579.48 0v-296.44q0-42.24 29.38-71.62 29.38-29.38 71.62-29.38h137.96v-139q0-42.24 29.38-71.62 29.38-29.38 71.62-29.38h138.52q42.24 0 71.62 29.38 29.38 29.38 29.38 71.62v219h137.96q42.24 0 71.62 29.38 29.38 29.38 29.38 71.62v216.44q0 42.24-29.38 71.62-29.38 29.38-71.62 29.38H171.78q-42.24 0-71.62-29.38-29.38-29.38-29.38-71.62Z"/></svg>