<svg xmlns="http://www.w3.org/2000/svg" height="48" viewBox="0 -960 960 960" width="48"><path d="M60.3-217.17v-30.35q0-38.7 20.7-71.61t56.39-49.04q59.87-28 123.65-45.22 63.79-17.22 129.66-17.22 13.69 0 22.6 11.76 8.92 11.76 4.22 25.46-7.56 24.56-10.41 49.63-2.85 25.06-2.85 49.63 0 29.87 4 56.89t12.87 54.46q7.13 17.26-1.22 33.02Q411.57-134 394.3-134H143.48q-34.96 0-59.07-24.11T60.3-217.17Zm647.18-12.27q35.17 0 56.26-21.08 21.09-21.09 21.09-56.39 0-34.74-21.09-56.55-21.09-21.8-56.26-21.8-35.74 0-56.83 21.8-21.08 21.81-21.08 56.55 0 35.3 21.08 56.39 21.09 21.08 56.83 21.08ZM399.26-494.39q-73.83 0-120.8-46.98-46.98-46.98-46.98-120.24 0-73.83 46.98-120.52 46.97-46.7 120.8-46.7 73.26 0 120.52 46.7 47.26 46.69 47.26 120.52 0 73.26-47.26 120.24-47.26 46.98-120.52 46.98Zm269.22 370.35-6.44-41.31q-15.56-3.43-31.06-12.43-15.5-9-26.5-20.13l-34.87 8q-11 2-20.28-1.79-9.29-3.78-14.85-13.21l-6.87-12.44q-6.44-8.43-5-20 1.43-11.56 10.56-19.56l29.87-29.44q-2.69-6-2.41-20.5.28-14.5 2.41-20.93l-30.43-30.57q-8-6.43-9.5-17.43t4.5-20.57l6.43-13.87q5.57-9 14.57-12t19.43-1.56l36.44 7q11-9.57 26.5-18.57t31.06-13.87l6.44-40.3q.87-12.57 10.93-20.85 10.07-8.28 23.07-8.28h10.43q11.44 0 21.72 8.5t12.28 21.06l6 39.87q14.57 4.87 30.5 14.15 15.94 9.29 26.94 18.29l36-7q10-1.44 19.78 2.34 9.78 3.79 14.78 12.79l6.87 11.87q5.44 9.43 4.22 20.78-1.22 11.35-9.78 18.35l-31.44 29.87q4.26 7.43 3.7 21.21-.57 13.79-3.7 20.22l31.44 29.44q8.13 8 9.63 19.28 1.5 11.28-3.5 19.85l-7.44 13.87q-5.56 8.43-15.06 12.21-9.5 3.79-19.5.79l-36-7q-11 11.13-26.94 19.63-15.93 8.5-30.5 12.93l-6 39.87q-2 13-12.28 21t-21.72 8h-11.43q-11.44 0-21.78-7.5-10.35-7.5-11.22-20.06Z"/></svg>