<svg xmlns="http://www.w3.org/2000/svg" height="48" width="48"><path d="M31.45 36.1q-1.7 0-3.175-.4-1.475-.4-2.825-1.2.35-.15.725-.575.375-.425.675-.725 1 .5 2.15.825 1.15.325 2.45.325 4.25 0 7.3-3.05T41.8 24q0-4.3-3.05-7.325-3.05-3.025-7.3-3.025-1.3 0-2.45.325-1.15.325-2.15.825-.3-.3-.675-.725-.375-.425-.675-.575 1.4-.8 2.825-1.2 1.425-.4 3.125-.4 5.05 0 8.575 3.525Q43.55 18.95 43.55 24q0 5.05-3.525 8.575Q36.5 36.1 31.45 36.1ZM24 33.45q-1.8 0-3.175-2.9-1.375-2.9-1.375-6.6 0-3.65 1.375-6.55T24 14.5q1.8 0 3.2 2.9 1.4 2.9 1.4 6.55 0 3.7-1.4 6.6-1.4 2.9-3.2 2.9Zm-7.45 2.65q-5.05 0-8.575-3.525Q4.45 29.05 4.45 24q0-5.05 3.525-8.575Q11.5 11.9 16.55 11.9q1.7 0 3.125.4t2.925 1.2q-.4.15-.8.575-.4.425-.65.725-1.05-.5-2.175-.825-1.125-.325-2.425-.325-4.25 0-7.3 3.05T6.2 24q0 4.3 3.05 7.325 3.05 3.025 7.3 3.025 1.3 0 2.425-.325Q20.1 33.7 21.15 33.2q.25.3.65.725t.8.575q-1.45.8-2.9 1.2-1.45.4-3.15.4Z"/></svg>