<svg xmlns="http://www.w3.org/2000/svg" height="48" width="48"><path d="M5.5 44.7q-.9 0-1.55-.65T3.3 42.5q0-.9.6-1.55t1.55-.7h2v-19.1H5.1q-.8 0-1.3-.55t-.5-1.45q0-.75.4-1.375T4.85 16.6L21.7 4.7q.55-.35 1.125-.525Q23.4 4 24 4q.6 0 1.175.175.575.175 1.125.525l16.85 11.9q.75.55 1.175 1.2.425.65.425 1.4 0 .9-.525 1.425t-1.275.525h-2.3v19.1h1.9q.95.05 1.575.7.625.65.625 1.55 0 .95-.675 1.575T42.5 44.7Zm5.9-3.95h25.25Zm6.3-4.8q.65 0 1.075-.425.425-.425.425-1.075v-7.7l3.15 4.75q.3.45.75.675.45.225.9.225.5 0 .925-.225.425-.225.725-.625l3.2-4.8v7.7q0 .65.425 1.075.425.425 1.075.425.65 0 1.075-.425.425-.425.425-1.075v-10.3q0-.8-.525-1.35t-1.375-.55q-.55 0-1.15.3-.6.3-.95.8L24 29.25l-3.85-5.9q-.35-.5-.95-.8-.6-.3-1.15-.3-.75 0-1.3.55t-.55 1.3v10.35q0 .65.425 1.075.425.425 1.075.425Zm18.95 4.8v-23.9L24 8l-12.6 8.85v23.9Z"/></svg>