<svg xmlns="http://www.w3.org/2000/svg" height="48" viewBox="0 -960 960 960" width="48"><path d="M342.48-140.11ZM303.33-62.8q-16.55 0-27.47-10.92-10.93-10.93-10.93-27.24v-694.08q0-16.31 10.93-27.35 10.92-11.04 27.47-11.04h92.6v-64h168.14v64h92.84q16.31 0 27.23 11.04 10.93 11.04 10.93 27.35v275.74q-20.2-1.24-39.28 1.12-19.07 2.35-38.27 7.31v-245.02H342.48v615.78h103.59q8.28 22.44 20.9 41.51 12.62 19.08 27.86 35.8h-191.5Zm346.74 25.43-6.53-54.33q-18-5.47-38.27-16.25-20.28-10.78-30.49-22.98l-48.26 20-41.78-64.72 43.04-34.81q-4.48-18.26-4.36-37.37.12-19.1 4.36-38.1l-43.04-34.81 41.78-65.48 48.02 20q10.45-10.14 30.73-21.07 20.27-10.93 38.27-16.17l6.53-56.08h74.47l8.29 56.08q18 5.24 38.14 16.36t31.62 21.36l48.26-20.48 41.78 66.96-44.04 34.8q4.48 18.26 4.24 37.37-.24 19.11-4.24 36.87l44.04 34.57-41.76 65.48-48.28-20.76q-11.48 12-31.62 22.88-20.14 10.88-38.14 16.35l-8.29 54.33h-74.47Zm37.09-111.04q42.84 0 71.51-28.58 28.68-28.57 28.68-71.47 0-42.79-28.7-71.3-28.69-28.5-71.58-28.5-43.8 0-71.8 28.03-28.01 28.04-28.01 71.87 0 43.84 28.04 71.89 28.03 28.06 71.86 28.06Z"/></svg>