<svg xmlns="http://www.w3.org/2000/svg" height="24" viewBox="0 -960 960 960" width="24"><path d="M777-108q-112.54 0-231.12-56.89-118.57-56.88-221.34-159.65-102.38-102.77-159.46-221.92Q108-665.61 108-777v-75h246.77l38.46 210.15-116.92 115.7q22.69 39.23 50.34 75.34 27.66 36.12 58.04 66.89 29.54 30.31 63.93 56.15 34.38 25.85 74.15 48.54L644-397.38l208 44.61V-108h-75ZM233.92-604.92l68.85-65.39L284.14-766h-89.52q2.07 39.38 11.15 78.35 9.08 38.96 28.15 82.73Zm368 370.69q39.46 17.77 81.03 27.96 41.57 10.19 83.05 12.04v-91.08l-94.77-20-69.31 71.08Zm-368-370.69Zm368 370.69Zm-111.31-295q-16.69 0-29.03-12.35-12.35-12.34-12.35-29.03 0-16.7 12.35-29.04Q473.92-612 490.61-612q16.7 0 29.04 12.35Q532-587.31 532-570.61q0 16.69-12.35 29.03-12.34 12.35-29.04 12.35Zm0-240q-16.69 0-29.03-12.35-12.35-12.34-12.35-29.03 0-16.7 12.35-29.04Q473.92-852 490.61-852q16.7 0 29.04 12.35Q532-827.31 532-810.61q0 16.69-12.35 29.03-12.34 12.35-29.04 12.35Zm80 120q-16.69 0-29.03-12.35-12.35-12.34-12.35-29.03 0-16.7 12.35-29.04Q553.92-732 570.61-732q16.7 0 29.04 12.35Q612-707.31 612-690.61q0 16.69-12.35 29.03-12.34 12.35-29.04 12.35Zm40 120q-16.69 0-29.03-12.35-12.35-12.34-12.35-29.03 0-16.7 12.35-29.04Q593.92-612 610.61-612q16.7 0 29.04 12.35Q652-587.31 652-570.61q0 16.69-12.35 29.03-12.34 12.35-29.04 12.35Zm0-240q-16.69 0-29.03-12.35-12.35-12.34-12.35-29.03 0-16.7 12.35-29.04Q593.92-852 610.61-852q16.7 0 29.04 12.35Q652-827.31 652-810.61q0 16.69-12.35 29.03-12.34 12.35-29.04 12.35Zm80 120q-16.69 0-29.03-12.35-12.35-12.34-12.35-29.03 0-16.7 12.35-29.04Q673.92-732 690.61-732q16.7 0 29.04 12.35Q732-707.31 732-690.61q0 16.69-12.35 29.03-12.34 12.35-29.04 12.35Zm40 120q-16.69 0-29.03-12.35-12.35-12.34-12.35-29.03 0-16.7 12.35-29.04Q713.92-612 730.61-612q16.7 0 29.04 12.35Q772-587.31 772-570.61q0 16.69-12.35 29.03-12.34 12.35-29.04 12.35Zm0-240q-16.69 0-29.03-12.35-12.35-12.34-12.35-29.03 0-16.7 12.35-29.04Q713.92-852 730.61-852q16.7 0 29.04 12.35Q772-827.31 772-810.61q0 16.69-12.35 29.03-12.34 12.35-29.04 12.35Zm80 120q-16.69 0-29.03-12.35-12.35-12.34-12.35-29.03 0-16.7 12.35-29.04Q793.92-732 810.61-732q16.7 0 29.04 12.35Q852-707.31 852-690.61q0 16.69-12.35 29.03-12.34 12.35-29.04 12.35Zm40 120q-16.69 0-29.03-12.35-12.35-12.34-12.35-29.03 0-16.7 12.35-29.04Q833.92-612 850.61-612q16.7 0 29.04 12.35Q892-587.31 892-570.61q0 16.69-12.35 29.03-12.34 12.35-29.04 12.35Zm0-240q-16.69 0-29.03-12.35-12.35-12.34-12.35-29.03 0-16.7 12.35-29.04Q833.92-852 850.61-852q16.7 0 29.04 12.35Q892-827.31 892-810.61q0 16.69-12.35 29.03-12.34 12.35-29.04 12.35Z"/></svg>