<svg xmlns="http://www.w3.org/2000/svg" height="40" width="40"><path d="M20.708 29.208q2.084-1.166 4.188-1.708 2.104-.542 4.396-.542 1.541 0 3.187.271t2.729.771V10.958Q34.042 10.292 32.5 10q-1.542-.292-3.208-.292-2.292 0-4.521.709-2.229.708-4.063 2.083Zm-.666 1.959q-2.125-1.375-4.48-2.105-2.354-.729-4.854-.729-2 0-4.041.584-2.042.583-3.209 1.166V10.042q1.375-.75 3.313-1.209 1.937-.458 3.937-.458 2.5 0 4.875.729t4.459 2.146q2.041-1.417 4.416-2.146 2.375-.729 4.834-.729 2 0 3.916.458 1.917.459 3.334 1.209v20.041q-1.167-.583-3.209-1.166-2.041-.584-4.041-.584-2.5 0-4.854.729-2.355.73-4.396 2.105Z"/></svg>