<svg xmlns="http://www.w3.org/2000/svg" height="48" width="48"><path d="m14.35 46.7-3.15-2.45 4.75-6.35H10.7q.5-6.25 1.8-11.1t2.85-8.15q1.55-3.3 3.225-5 1.675-1.7 3.075-1.7 1.4 0 2.4.7t1.65 1.65l1.8 2.75q1.25 2.05 4 3.5Q34.25 22 37.1 22q1.7 0 2.925 1.2 1.225 1.2 1.225 2.85v20.4H38.6v-20.4q0-.6-.45-1.05-.45-.45-1.05-.45-.6 0-1.05.45-.45.45-.45 1.05v1.5h-2.55V25.5Q31 25 29.125 23.975T25.6 21.1l-1.7 4.45 5.65 11.4v9.5h-4V37.9H21ZM25.8 9.55q-1.7 0-2.95-1.225Q21.6 7.1 21.6 5.35q0-.65.25-1.2-.55-.25-.9-.725T20.6 2.25q0-.9.55-1.5t1.5-.6q.65 0 1.175.375t.675.875q.35-.05.65-.15.3-.1.65-.1 1.7 0 2.925 1.25 1.225 1.25 1.225 2.95 0 1.75-1.225 2.975T25.8 9.55Z"/></svg>