<svg xmlns="http://www.w3.org/2000/svg" height="20" viewBox="0 -960 960 960" width="20"><path d="M480-246.77q59.77 0 99.31-36.73t45.38-93.42q-18.31-18.3-36.95-35.4-18.64-17.11-36.28-34.83 7 11 10.5 24t3.5 27q3.23 36.53-21.61 63.96-24.84 27.42-63.85 27.42-38.22 0-61.72-24.51-23.51-24.52-23.51-60.91 0-35.96 21.65-60.62 21.66-24.65 58.73-24.42 20 0 36 5t30 15q-19.67-18.79-36.35-38.52-16.68-19.72-27.88-41.33-60.84.62-100.5 42.11-39.65 41.5-39.65 102.97 0 60.19 40.52 101.71 40.52 41.52 102.71 41.52ZM373.92-766H418q-1.92 8.77-2.88 18.02-.97 9.24-.97 20.98v15.5q0 7.5 1 15.5h-26.92l-66.77 84H162v444h636v-183.15q14.67-12.73 29.33-26.51Q842-391.45 856-407.92V-110H104v-560h189.92l80-96Zm20.85 375H480h-85.23ZM726-405.46Q855.38-523 903.42-592.31q48.04-69.31 48.04-141.33 0-105.57-68.17-167.69-68.17-62.13-157.5-62.13T569-901.97q-67.46 61.49-67.46 169.23 0 71.14 47.54 140.44T726-405.46Zm-.03-78.16q-108.28-99.76-137.35-154.03-29.08-54.27-29.08-98.42 0-83.89 52.77-126.26 52.76-42.36 113.69-42.36 60.92 0 114.19 42.45 53.27 42.45 53.27 126.5 0 44.2-29.61 98.28-29.6 54.08-137.88 153.84Zm-35.35-194.46 13.61-44.3-38.15-34.24h43.5l16.42-42.3 16.42 42.3h43.5l-37.38 34.24 14.61 44.3L726-706.31l-35.38 28.23ZM727-694.15Z"/></svg>