<svg xmlns="http://www.w3.org/2000/svg" height="48" viewBox="0 -960 960 960" width="48"><path d="M342.77-122.23q-46.62 0-71.04-26.58-24.42-26.58-62.58-26.58-15.53 0-28.11 5t-57.96 30.62q-13.54 8.08-27.58 0T81.46-164q0-6.69 4.54-13.04 4.54-6.34 11-10.19 54.08-31.46 71.92-39 17.85-7.54 40.23-7.54 47.62 0 71.35 26.58 23.73 26.58 63.27 26.58 38.54 0 64.58-26.58 26.03-26.58 72.65-26.58 47 0 71.35 26.58 24.34 26.58 65.27 26.58 37.53 0 62.57-26.58t71.66-26.58q22.38 0 40.34 7.04 17.96 7.04 73.42 39.5 5.47 3.85 9.7 10.19 4.23 6.35 4.23 13.04 0 16.15-14.04 24.23-14.04 8.08-26.58 0-47-25.23-59.27-30.42-12.27-5.2-27.8-5.2-38.16 0-63.89 26.58-25.73 26.58-71.73 26.58-47.61 0-72.46-26.58-24.85-26.58-62.77-26.58-37.54 0-64.08 26.58t-74.15 26.58Zm0-160q-46.62 0-71.04-26.58-24.42-26.58-62.58-26.58-15.53 0-28.8 5.5-13.27 5.5-58.27 31.12-13.54 7.08-27.08-.5t-13.54-23.35q0-7.07 4.04-13.92 4.04-6.84 10.5-10.69 55.08-31.08 72.92-38.81 17.85-7.73 40.23-7.73 47.62 0 71.35 26.58 23.73 26.58 63.27 26.58 38.54 0 64.58-26.58 26.03-26.58 72.65-26.58 47 0 71.35 26.58 24.34 26.58 65.27 26.58 37.53 0 62.57-26.58t71.66-26.58q22.38 0 41.03 7.73 18.66 7.73 74.12 38.81 5.46 3.85 9.5 10.69 4.04 6.85 4.04 13.92 0 15.77-13.85 23.35-13.84 7.58-26.38.5-47-26.23-59.96-31.42-12.97-5.2-28.5-5.2-38.16 0-63.89 26.58-25.73 26.58-71.73 26.58-47.61 0-72.46-26.58-24.85-26.58-62.77-26.58-37.54 0-64.08 26.58t-74.15 26.58ZM480-653.85q-57.15 0-101.19-36t-58.73-91.76q-4.62-14.47 3.23-26.43Q331.15-820 348.23-820h263.54q16.08 0 23.92 11.46 7.85 11.46 4.23 26.93-14.69 55.76-58.73 91.76-44.04 36-101.19 36ZM248.08-797.31q0 9.93-6.39 16.31-6.38 6.39-16.3 6.39h-68.85q-9.92 0-16.31-6.39-6.38-6.38-6.38-16.31 0-9.92 6.38-16.3 6.39-6.39 16.31-6.39h68.85q9.92 0 16.3 6.39 6.39 6.38 6.39 16.3Zm50.84 146.54q6.7 6.69 6.7 16.31 0 9.61-6.7 16.31l-48.54 48.54q-6.69 6.69-15.8 6.69-9.12 0-15.81-6.69-7.08-6.7-6.88-16.31.19-9.62 6.88-16.31l48.54-48.54q6.69-6.69 15.81-6.69 9.11 0 15.8 6.69ZM480-590.38q9.92 0 16.31 6.38 6.38 6.39 6.38 16.31v68.84q0 9.93-6.38 16.31-6.39 6.39-16.31 6.39-9.92 0-16.31-6.39-6.38-6.38-6.38-16.31v-68.84q0-9.92 6.38-16.31 6.39-6.38 16.31-6.38ZM660.85-651q6.69-6.69 15.61-6.58 8.92.12 15.62 6.2L742-602.84q7.08 6.69 7.38 15.99.31 9.31-6.77 16-6.69 7.08-16.11 7.08-9.42 0-16.5-7.08l-49.54-48.92q-6.69-6.69-6.5-15.61.19-8.93 6.89-15.62Zm165.3-146.31q0 9.93-6.38 16.31-6.39 6.39-16.31 6.39h-68.85q-9.92 0-16.3-6.39-6.39-6.38-6.39-16.31 0-9.92 6.39-16.3 6.38-6.39 16.3-6.39h68.85q9.92 0 16.31 6.39 6.38 6.38 6.38 16.3Z"/></svg>