<svg xmlns="http://www.w3.org/2000/svg" height="40" width="40"><path d="M25.583 16.208Q25.042 16.208 24.708 15.854Q24.375 15.5 24.375 14.958V9.792Q24.375 9.292 24.708 8.938Q25.042 8.583 25.583 8.583H26.083V6.917Q26.083 5.708 26.917 4.854Q27.75 4 29 4Q30.208 4 31.042 4.854Q31.875 5.708 31.875 6.917V8.583H32.417Q32.917 8.583 33.271 8.938Q33.625 9.292 33.625 9.792V14.958Q33.625 15.5 33.271 15.854Q32.917 16.208 32.417 16.208ZM27.292 8.583H30.708V6.917Q30.708 6.208 30.208 5.708Q29.708 5.208 29 5.208Q28.292 5.208 27.792 5.708Q27.292 6.208 27.292 6.917ZM31.125 33.125Q26.875 33.125 22.479 30.875Q18.083 28.625 14.5 25.062Q10.917 21.5 8.646 17.104Q6.375 12.708 6.375 8.458Q6.375 7.708 6.896 7.188Q7.417 6.667 8.167 6.667H12Q12.75 6.667 13.25 7.083Q13.75 7.5 13.875 8.25L14.708 12.042Q14.833 12.667 14.688 13.208Q14.542 13.75 14.125 14.083L10.458 17.542Q12.833 21.5 15.75 24.375Q18.667 27.25 22.542 29.375L26.083 25.667Q26.542 25.208 27.021 25.042Q27.5 24.875 28.083 25L31.375 25.708Q32.042 25.833 32.479 26.354Q32.917 26.875 32.917 27.625V31.333Q32.917 32.125 32.417 32.625Q31.917 33.125 31.125 33.125Z"/></svg>