<svg xmlns="http://www.w3.org/2000/svg" height="40" viewBox="0 -960 960 960" width="40"><path d="M130.67-170.67v-106h70V-544q0-94.13 53.33-170.56 53.33-76.44 146.67-99.11v-17q0-32.61 23.11-56.3 23.11-23.7 56.12-23.7 33.02 0 56.22 23.7 23.21 23.69 23.21 56.3v17q92.67 21 147.17 97.78Q761-639.12 761-544v267.33h70v106H130.67ZM480.63-40q-38.26 0-64.45-26.63Q390-93.27 390-130.67h181q0 38-26.7 64.34Q517.6-40 480.63-40ZM445-449.67h71.33V-639H445v189.33ZM479.98-330q15.34 0 28.01-11.95 12.68-11.96 12.68-27.49 0-15.54-12.52-27.88-12.51-12.35-28.14-12.35-15.34 0-27.68 12.33Q440-385.01 440-369.47q0 15.54 12.32 27.51Q464.64-330 479.98-330Z"/></svg>