<svg xmlns="http://www.w3.org/2000/svg" height="40" viewBox="0 -960 960 960" width="40"><path d="M136.75-176.75v-89.26h77.61v-290.16q0-90.23 52.83-162.66 52.82-72.42 141.09-94.33v-18.27q0-29.23 20.93-50.55 20.93-21.33 50.83-21.33t50.79 21.33q20.89 21.32 20.89 50.55v18.27q88.11 21.51 141.59 93.66 53.49 72.16 53.49 163.33v290.16h77.61v89.26H136.75ZM480.12-48.12q-36.78 0-62.69-26.03-25.91-26.04-25.91-62.6h177.2q0 36.98-26.06 62.81-26.07 25.82-62.54 25.82Zm-40.19-397.23h80.97v-205.32h-80.97v205.32Zm40.05 126q17.38 0 30.43-12.71 13.05-12.7 13.05-30.28 0-17.58-12.89-30.3-12.89-12.71-30.56-12.71-17.38 0-30.09 12.7t-12.71 30.28q0 17.58 12.69 30.3 12.69 12.72 30.08 12.72Z"/></svg>