<svg xmlns="http://www.w3.org/2000/svg" height="20" viewBox="0 -960 960 960" width="20"><path d="M369.67-418.09h236.51q37.82 0 63.82-26.36 26-26.35 26-64.45 0-37.38-26.22-63.64-26.22-26.26-63.63-27.46-9.87-44.61-44.73-71.64-34.85-27.03-80.95-27.03-37.23 0-68.21 18.42-30.98 18.42-47.69 51.95-42.29.71-71.43 31.31Q264-566.4 264-523.46q0 44.05 30.8 74.71 30.8 30.66 74.87 30.66Zm-37.26 282.22v-83h72v-72H170.87q-34.48 0-58.74-24.26-24.26-24.26-24.26-58.74v-367.02q0-34.48 24.26-58.74 24.26-24.26 58.74-24.26h618.26q34.48 0 58.74 24.26 24.26 24.26 24.26 58.74v367.02q0 34.48-24.26 58.74-24.26 24.26-58.74 24.26H555.59v72h72v83H332.41Z"/></svg>