<svg xmlns="http://www.w3.org/2000/svg" height="20" viewBox="0 -960 960 960" width="20"><path d="M218.61-49.87v-860.26h524.78v323.41q-16.67-4.18-34.93-6.66-18.25-2.47-36.46-2.23-128.76.02-218.2 89.72T364.39-288q.5 59.5 29.52 129.28 29.02 69.79 80.39 108.85H218.61Zm453.73 2.48q-100.73 0-170.84-70.1-70.11-70.11-70.08-170.42.02-100.79 70.23-170.75 70.2-69.95 170.49-69.95t170.38 70.18q70.09 70.18 70.09 170.33v240.71H672.34Zm-24.23-144v-72.72h-72.72v-47.78h72.72v-72.72h47.78v72.72h72.72v47.78h-72.72v72.72h-47.78ZM480.79-713.54q14.52 0 25.07-10.34t10.55-24.87q0-14.52-10.34-25.07t-24.86-10.55q-14.52 0-25.07 10.34t-10.55 24.86q0 14.53 10.34 25.08 10.34 10.55 24.86 10.55Zm191.18 592.93q69.6 0 118.51-48.88 48.91-48.89 48.91-118.48 0-69.6-48.88-118.51-48.89-48.91-118.48-48.91-69.6 0-118.51 48.88-48.91 48.89-48.91 118.48 0 69.6 48.88 118.51 48.89 48.91 118.48 48.91Z"/></svg>