<svg xmlns="http://www.w3.org/2000/svg" height="24" width="24"><path d="M21.1 22.25 1.35 2.5l.95-.95L22.05 21.3ZM7.15 3.475h10.175q.925 0 1.538.612.612.613.612 1.538V8h2.05v1.35h-2.05v1.725h2.05v1.35h-2.05V14.2h2.05v1.35H19.25l-1.125-1.125v-8.8q0-.3-.25-.55-.25-.25-.55-.25H8.5ZM10.9 7.55l.45.45h-.45Zm2.525 2.2L12.3 8.625V8h2.75v1.75Zm1.625 2.075-.575-.575h.575Zm-3.9.825Zm1.875-3.275ZM7.05 16v-2.75h3.85V16ZM4.2 3.45l1.375 1.375h-.7q-.5 0-.775.237-.275.238-.275.563v12.7q0 .3.25.55.25.25.55.25h12.7q.35 0 .575-.313.225-.312.225-.737v-.7l1.2 1.2q-.05.825-.637 1.363-.588.537-1.363.537h-12.7q-.925 0-1.537-.612-.613-.613-.613-1.538v-12.7q0-.75.475-1.363.475-.612 1.25-.812Zm8.1 8.1 2.75 2.75V16H12.3ZM8.75 8l2.15 2.15v1.6H7.05V8Z"/></svg>