<svg xmlns="http://www.w3.org/2000/svg" height="40" width="40"><path d="M18.417 29.75Q13.708 29.75 10.312 26.417Q6.917 23.083 6.917 18.458V5.25H30.875Q33.125 5.25 34.729 6.812Q36.333 8.375 36.333 10.625Q36.333 12.875 34.729 14.417Q33.125 15.958 30.875 15.958H29.917V18.458Q29.917 23.083 26.521 26.417Q23.125 29.75 18.417 29.75ZM9.542 13.333H27.292V7.875H9.542ZM18.417 27.125Q22.083 27.125 24.688 24.562Q27.292 22 27.292 18.458V15.958H9.542V18.458Q9.542 22 12.146 24.562Q14.75 27.125 18.417 27.125ZM29.917 13.333H30.875Q32.042 13.333 32.875 12.542Q33.708 11.75 33.708 10.625Q33.708 9.458 32.875 8.667Q32.042 7.875 30.875 7.875H29.917ZM6.917 34.75V32.125H32.875V34.75ZM18.417 15.958Q18.417 15.958 18.417 15.958Q18.417 15.958 18.417 15.958Q18.417 15.958 18.417 15.958Q18.417 15.958 18.417 15.958Z"/></svg>