<svg xmlns="http://www.w3.org/2000/svg" height="20" width="20"><path d="M16.5 13.542 14.333 11.417Q14.5 10.875 14.583 10.375Q14.667 9.875 14.667 9.271V5.562L10 3.833L7.625 4.708L5.5 2.583L10 0.938L17.375 3.688V9.271Q17.375 10.542 17.135 11.562Q16.896 12.583 16.5 13.542ZM16.479 19.396 14 16.917Q13.271 17.646 12.188 18.24Q11.104 18.833 10 19.062Q6.812 18.333 4.719 15.552Q2.625 12.771 2.625 9.229V5.521L0.583 3.479L2.042 2.042L17.938 17.938ZM8.708 11.625Q8.708 11.625 8.708 11.625Q8.708 11.625 8.708 11.625Q8.708 11.625 8.708 11.625Q8.708 11.625 8.708 11.625ZM11.062 8.042Q11.062 8.042 11.062 8.042Q11.062 8.042 11.062 8.042ZM10 16.271Q10.688 15.979 11.094 15.729Q11.5 15.479 12.062 14.979L5.333 8.208V9.229Q5.333 11.542 6.688 13.531Q8.042 15.521 10 16.271Z"/></svg>