<svg xmlns="http://www.w3.org/2000/svg" height="24" width="24"><path d="M8 4.6Q7.35 4.6 6.875 4.125Q6.4 3.65 6.4 3Q6.4 2.35 6.875 1.875Q7.35 1.4 8 1.4Q8.65 1.4 9.125 1.875Q9.6 2.35 9.6 3Q9.6 3.65 9.125 4.125Q8.65 4.6 8 4.6ZM16.15 4.2Q16.05 4.1 16.05 3.962Q16.05 3.825 16.15 3.725L18.475 1.4H19.425L16.6 4.225Q16.5 4.325 16.375 4.312Q16.25 4.3 16.15 4.2ZM9 19.15Q8.325 19.15 7.738 18.987Q7.15 18.825 6.75 18.575Q7.025 18.375 7.75 17.837Q8.475 17.3 8.825 17.05L7.025 13.575Q6.825 13.225 6.738 12.825Q6.65 12.425 6.65 12V8Q6.65 7.425 7.038 7.037Q7.425 6.65 8 6.65H11Q12.025 6.65 12.9 6.337Q13.775 6.025 14.525 5.45L15 5.925Q14.175 6.575 13.163 6.962Q12.15 7.35 11 7.35H8.95V12.15H11.45Q11.775 12.15 12.05 12.287Q12.325 12.425 12.55 12.65L13.925 14.15Q15.525 13.475 16.887 13.062Q18.25 12.65 19.15 12.65Q19.575 12.65 19.963 12.775Q20.35 12.9 20.35 13.275Q20.35 14.275 18.625 15.912Q16.9 17.55 14.325 19.1Q14.325 19.1 14.325 19.1Q14.325 19.1 14.325 19.1Q13.75 19.025 13.15 18.762Q12.55 18.5 12 17.975Q11.325 18.625 10.538 18.887Q9.75 19.15 9 19.15ZM9.525 16.55Q10.225 16.125 11.413 15.462Q12.6 14.8 13.25 14.475L12.05 13.15Q11.925 13.025 11.738 12.95Q11.55 12.875 11.35 12.9L8.075 13.325ZM3 22.35Q2.85 22.35 2.75 22.25Q2.65 22.15 2.65 22Q2.65 21.85 2.75 21.75Q2.85 21.65 3 21.65Q3.7 21.65 4.375 21.45Q5.05 21.25 5.7 20.9Q5.825 20.825 6 20.825Q6.175 20.825 6.3 20.9Q6.95 21.25 7.625 21.45Q8.3 21.65 9 21.65Q9.7 21.65 10.375 21.45Q11.05 21.25 11.7 20.9Q11.825 20.825 12 20.825Q12.175 20.825 12.3 20.9Q12.95 21.25 13.625 21.45Q14.3 21.65 15 21.65Q15.7 21.65 16.375 21.45Q17.05 21.25 17.7 20.9Q17.825 20.825 18 20.825Q18.175 20.825 18.3 20.9Q18.95 21.25 19.625 21.45Q20.3 21.65 21 21.65Q21.15 21.65 21.25 21.75Q21.35 21.85 21.35 22Q21.35 22.15 21.25 22.25Q21.15 22.35 21 22.35Q20.3 22.35 19.55 22.15Q18.8 21.95 18 21.525Q17.2 21.95 16.45 22.15Q15.7 22.35 15 22.35Q14.3 22.35 13.55 22.15Q12.8 21.95 12 21.525Q11.2 21.95 10.45 22.15Q9.7 22.35 9 22.35Q8.3 22.35 7.55 22.15Q6.8 21.95 6 21.525Q5.2 21.95 4.45 22.15Q3.7 22.35 3 22.35Z"/></svg>