<svg xmlns="http://www.w3.org/2000/svg" height="40" viewBox="0 -960 960 960" width="40"><path d="M809.03-166.05 568.26-407.33q-15.49 12.46-35.75 24.33-20.25 11.87-38.36 18.59-1.69-9.05-4.55-17.32t-6.88-14.89q55.33-19.94 92.87-68.3 37.54-48.36 37.54-116.21 0-80.79-56.66-137.52-56.65-56.73-137.44-56.73-80.95 0-137.68 56.73-56.73 56.73-56.73 137.52 0 15.39 3.01 31.86 3.01 16.48 6.68 29.96-6.98.46-16.09 3.28-9.12 2.83-16.53 5.39-4.82-14.13-7.87-33.1-3.05-18.98-3.05-37.39 0-95.61 66.32-161.86 66.32-66.24 161.94-66.24 94.94 0 161.44 66.32t66.5 161.78q0 43-15.52 82.17-15.53 39.17-39.58 67.17l242.08 240.82q4.79 4.79 4.96 12.03.17 7.25-4.96 12.89-5.57 5.56-12.46 5.56-6.9 0-12.46-5.56Zm-532.11-17.74q39 0 66.07-27.07 27.06-27.06 27.06-66.06t-27.06-66.07q-27.07-27.06-66.07-27.06-39 0-66.06 27.06-27.07 27.07-27.07 66.07 0 39 27.07 66.06 27.06 27.07 66.06 27.07Zm-92.74-12.52L169.23-189q-6.03 2.62-12.22 1.18-6.19-1.44-10.11-6.9l-1.49-2.77q-3.92-5.95-3.21-12.25.72-6.31 6.44-10.8l12.21-9.97q-7.75-22.8-7.75-46.34 0-23.53 7.75-46.33l-12.21-9.46q-4.95-4.23-6.44-10.96-1.48-6.73 2.44-12.68l3.1-2.85q3.93-5.61 9.7-6.97 5.76-1.36 11.79 1.25l14.95 7.31q14.49-16.87 34.04-27.06 19.55-10.19 40.88-14.58l1.69-16.13q.8-6.61 5.4-11.32 4.6-4.7 11.22-4.7h2.31q6.1 0 11.04 4.41 4.93 4.41 6.24 11.02l1.03 16.72q21.33 4.39 40.88 14.58 19.55 10.19 34.04 27.06l15.1-7.31q6.03-2.61 12.21-1.25 6.18 1.36 10.05 6.97l1.5 2.77q3.98 5.95 3.19 12.33-.79 6.39-6.51 11.39l-12.21 9.46q7.75 22.8 7.75 46.33 0 23.54-7.75 46.34l12.36 9.97q5.46 3.72 6.69 10.37 1.23 6.66-2.69 12.61l-3.1 2.84q-3.92 5.46-9.69 6.9-5.77 1.44-11.8-1.18l-15.1-7.31q-14.59 17.03-34.09 27.22-19.5 10.19-40.83 15.09L297-137.87q-1.31 6.1-6.24 10.73-4.94 4.63-11.04 4.63h-2.31q-6.62 0-11.22-4.75-4.6-4.74-5.4-10.84L259.1-154q-21.33-4.9-40.83-15.09t-34.09-27.22Z"/></svg>