<svg xmlns="http://www.w3.org/2000/svg" height="40" width="40"><path d="M10 36.875q-.792 0-1.333-.542-.542-.541-.542-1.333v-3.083q0-.792.542-1.313.541-.521 1.333-.521h1.667v-6.666H10q-.792 0-1.333-.542-.542-.542-.542-1.333v-3.084q0-.791.542-1.333.541-.542 1.333-.542h1.667V9.917H10q-.792 0-1.333-.521-.542-.521-.542-1.313V5q0-.792.542-1.333.541-.542 1.333-.542h4.75q.792 0 1.312.542.521.541.521 1.333v3.083q0 .792-.521 1.313-.52.521-1.312.521h-1.667v6.666h1.667q.792 0 1.312.542.521.542.521 1.333v.834h8.5v-.834q0-.791.521-1.333.521-.542 1.313-.542h4.75q.791 0 1.333.542.542.542.542 1.333v3.084q0 .791-.542 1.333-.542.542-1.333.542h-4.75q-.792 0-1.313-.542-.521-.542-.521-1.333v-.834h-8.5v.834q0 .791-.521 1.333-.52.542-1.312.542h-1.667v6.666h1.667q.792 0 1.312.521.521.521.521 1.313V35q0 .792-.521 1.333-.52.542-1.312.542Zm.125-1.417h4.542q.25 0 .395-.187.146-.188.146-.396v-2.833q0-.209-.146-.396-.145-.188-.395-.188h-4.542q-.208 0-.396.188-.187.187-.187.396v2.833q0 .208.187.396.188.187.396.187Zm0-13.458h4.542q.25 0 .395-.188.146-.187.146-.395v-2.834q0-.208-.146-.395-.145-.188-.395-.188h-4.542q-.208 0-.396.188-.187.187-.187.395v2.834q0 .208.187.395.188.188.396.188Zm16.917 0h4.5q.208 0 .396-.188.187-.187.187-.395v-2.834q0-.208-.187-.395Q31.75 18 31.542 18h-4.5q-.209 0-.396.188-.188.187-.188.395v2.834q0 .208.188.395.187.188.396.188ZM10.125 8.542h4.542q.25 0 .395-.188.146-.187.146-.396V5.125q0-.208-.146-.396-.145-.187-.395-.187h-4.542q-.208 0-.396.187-.187.188-.187.396v2.833q0 .209.187.396.188.188.396.188Zm2.25-2ZM29.292 20Zm-16.917 0Zm0 13.458Z"/></svg>