<svg xmlns="http://www.w3.org/2000/svg" enable-background="new 0 0 24 24" height="24" viewBox="0 0 24 24" width="24"><g><rect fill="none" height="24" width="24"/><rect fill="none" height="24" width="24"/><rect fill="none" height="24" width="24"/></g><g><g/><g><circle cx="16" cy="17" opacity=".3" r="1"/><rect height="2" width="12" x="3" y="10"/><rect height="2" width="8" x="3" y="14"/><rect height="2" width="12" x="3" y="6"/><path d="M17,14.18C16.69,14.07,16.35,14,16,14c-1.66,0-3,1.34-3,3c0,1.66,1.34,3,3,3s3-1.34,3-3V8h3V6h-5V14.18z M16,18 c-0.55,0-1-0.45-1-1c0-0.55,0.45-1,1-1s1,0.45,1,1C17,17.55,16.55,18,16,18z"/></g></g></svg>