<svg xmlns="http://www.w3.org/2000/svg" height="24" viewBox="0 -960 960 960" width="24"><path d="M281.7-483.17h396.1v-81.22H281.7v81.22Zm0-153.16h396.1v-81.21H281.7v81.21ZM480-598.46Zm-43 430.83V-271.2q-17.74-10.71-28.49-29.18t-10.75-40.69q0-34.42 23.91-58.45 23.9-24.02 58.57-24.02 33.65 0 57.83 24.02 24.17 24.03 24.17 58.45 0 22.22-10.88 40.72t-28.6 29.13v103.59h154.41q33.31 0 57.03 23.72 23.71 23.71 23.71 57.02v5.02H202.09v-5.02q0-33.37 23.4-57.05 23.4-23.69 57.34-23.69H437ZM207.63-318.78q-35.72 0-60.74-25.02-25.02-25.02-25.02-60.74v-387.83q0-35.38 25.02-60.57 25.02-25.19 60.74-25.19h544.74q35.38 0 60.57 25.19 25.19 25.19 25.19 60.57v387.83q0 35.72-25.19 60.74-25.19 25.02-60.57 25.02H635.52q3.2-21.62.41-43.59-2.79-21.97-12.1-42.17h128.54v-387.83H207.63v387.83h128.28q-8.93 20.39-11.78 42.14-2.85 21.75.35 43.62H207.63Z"/></svg>