<svg xmlns="http://www.w3.org/2000/svg" height="20" width="20"><path d="M4.312 17.917q-.916 0-1.562-.636-.646-.635-.646-1.552V5.833h12.084v12.084Zm11.417 0v-2.188h2.188q0 .917-.636 1.552-.635.636-1.552.636ZM3.625 15.104h9.083l-3-3.958-2.166 2.875L6 11.938Zm12.104-1.042v-1.583h2.188v1.583Zm0-3.25V9.229h2.188v1.583Zm0-3.25V5.958h2.188v1.604ZM2.104 4.312q0-.916.646-1.562t1.562-.646v2.208Zm3.854 0V2.104h1.604v2.208Zm3.271 0V2.104h1.583v2.208Zm3.25 0V2.104h1.583v2.208Zm3.25 0V2.104q.917 0 1.552.646.636.646.636 1.562Z"/></svg>