<svg xmlns="http://www.w3.org/2000/svg" height="48" viewBox="0 -960 960 960" width="48"><path d="M280.923-196.807v-530.539q0-12.974 9.379-22.352 9.378-9.379 22.352-9.379h298.885q13.5 0 26.028 6.096 12.529 6.096 19.933 17.135l69.769 101.115q10.231 14.369 10.231 31.383t-10.231 31.002l-70.269 101q-7.282 11.039-19.622 17.135-12.339 6.096-25.839 6.096H311.115v251.308q0 6.846-4.467 11.192-4.466 4.346-10.376 4.346-6.926 0-11.138-4.346-4.211-4.346-4.211-11.192Zm30.192-281.501h300.424q6.923 0 11.923-2.692t8.076-8.077l71.154-99.788q3.847-6.924 3.847-14.231 0-7.308-3.847-13.462l-71.154-101.557q-3.076-5.385-8.076-8.077-5-2.693-11.923-2.693H311.115v250.577Zm0 0v-250.577 250.577Z"/></svg>