<svg xmlns="http://www.w3.org/2000/svg" height="24" viewBox="0 -960 960 960" width="24"><path d="M296-216.5v-500q0-11.969 7.766-19.734Q311.531-744 323.5-744H601q14.5 0 27.494 6.721 12.995 6.72 21.006 18.279l59 87.5q10.5 15.354 10.5 32.584 0 17.231-10.5 32.416l-59.5 87q-7.889 11.559-20.694 18.279Q615.5-454.5 601-454.5H321.5v238q0 5.5-3.788 9.25-3.787 3.75-8.712 3.75-5.5 0-9.25-3.75T296-216.5ZM321.5-480H602q8 0 14.5-3.5T628-494l59-86.75q5-8 5-18t-5-18l-59-87.75q-5-7-11.5-10.5t-14.5-3.5H321.5V-480Zm0 0v-238.5V-480Z"/></svg>