<svg xmlns="http://www.w3.org/2000/svg" height="48" width="48"><path d="M29.85 14.05 23.7 29q-.4.9.05 1.675t1.4.775q.5 0 .95-.325.45-.325.65-.825l6.3-15.35q.2-.45.3-.95.1-.5.1-1.05 0-1.05-.75-1.8t-1.75-.75H23q-.75 0-1.25.525t-.5 1.275q0 .8.525 1.325.525.525 1.275.525Zm-16.6 24.7q-1.5 0-2.575-1.1Q9.6 36.55 9.6 35.1V6.9q0-1.45 1.075-2.55 1.075-1.1 2.575-1.1h28.2q1.45 0 2.55 1.1 1.1 1.1 1.1 2.55v28.2q0 1.45-1.1 2.55-1.1 1.1-2.55 1.1ZM6.6 45.4q-1.5 0-2.575-1.1-1.075-1.1-1.075-2.55v-30.1q0-.7.525-1.225Q4 9.9 4.75 9.9q.75 0 1.3.525T6.6 11.7v30.05h30.05q.75 0 1.275.525.525.525.525 1.275 0 .8-.55 1.325-.55.525-1.3.525Z"/></svg>