<svg xmlns="http://www.w3.org/2000/svg" height="48" width="48"><path d="M28.15 32.7Q28.4 32.7 28.55 32.55Q28.7 32.4 28.7 32.15V26Q28.7 25.75 28.55 25.6Q28.4 25.45 28.15 25.45H20.4V20.4H28.15Q28.4 20.4 28.55 20.25Q28.7 20.1 28.7 19.85Q28.7 19.6 28.55 19.45Q28.4 19.3 28.15 19.3H24.55V17.85Q24.55 17.6 24.4 17.45Q24.25 17.3 24 17.3Q23.75 17.3 23.6 17.45Q23.45 17.6 23.45 17.85V19.3H19.85Q19.6 19.3 19.45 19.45Q19.3 19.6 19.3 19.85V26Q19.3 26.25 19.45 26.4Q19.6 26.55 19.85 26.55H27.6V31.6H19.85Q19.6 31.6 19.45 31.75Q19.3 31.9 19.3 32.15Q19.3 32.4 19.45 32.55Q19.6 32.7 19.85 32.7H23.45V34.15Q23.45 34.4 23.6 34.55Q23.75 34.7 24 34.7Q24.25 34.7 24.4 34.55Q24.55 34.4 24.55 34.15V32.7ZM13.3 41.4Q12.15 41.4 11.375 40.625Q10.6 39.85 10.6 38.7V9.3Q10.6 8.15 11.375 7.375Q12.15 6.6 13.3 6.6H25.8Q26.4 6.6 26.875 6.825Q27.35 7.05 27.75 7.4L36.6 16.25Q36.95 16.65 37.175 17.125Q37.4 17.6 37.4 18.2V38.7Q37.4 39.85 36.625 40.625Q35.85 41.4 34.7 41.4Z"/></svg>