<svg xmlns="http://www.w3.org/2000/svg" height="40" viewBox="0 -960 960 960" width="40"><path d="M426.31-103.85q-44.97 0-68.33-26.77-23.36-26.78-23.36-61.02 0-22.82 9.96-44.63 9.96-21.81 31.27-35.88 22.38-14.77 37.19-39.63 14.81-24.86 21.78-61.17-5.61-1.81-10.37-4.53-4.76-2.73-10.19-7.16l-104.41 37.18q-15.85 5.61-30.42 9.23-14.57 3.61-30.05 3.61-57.38 0-101.46-50.69-44.07-50.69-44.07-148.38 0-44.97 26.71-68.33 26.7-23.36 59.98-23.36 23.31 0 45.42 9.96 22.12 9.96 36.19 31.27 14.77 22.38 40.58 37.73 25.81 15.34 60.22 21.24 2.17-5.53 4.92-10.87 2.75-5.33 6.77-10.1l-37.18-104q-5.61-15.46-9.23-30.31-3.61-14.85-3.61-29.31 0-62.46 54.03-104.42 54.04-41.96 145.04-41.96 44.97 0 68.33 26.65t23.36 59.86q0 22.72-9.96 45.03-9.96 22.3-31.27 36.38-24.54 16.26-39.21 43.41-14.68 27.15-19.35 58.18 6 2.69 10.99 5.04 5 2.34 9.57 6.91l104-38.85q15.85-5.61 29.96-8.73 14.12-3.11 29.6-3.11 73.75 0 110.1 61.61 36.34 61.62 36.34 137.46 0 44.97-28.15 68.33-28.16 23.36-62.47 23.36-21.99 0-42.8-9.96t-34.88-31.27q-14.77-22.38-39.63-37.19-24.86-14.81-61.17-22.45-2.31 6.03-5.18 11.3-2.88 5.27-7.18 10.34l37.85 104q5.5 14.91 9.17 28.42 3.67 13.51 3.67 27.58.23 58.46-50.28 104.23-50.52 45.77-148.79 45.77Zm53.78-310q27.6 0 46.83-19.32 19.23-19.32 19.23-46.92t-19.32-46.83q-19.32-19.23-46.92-19.23t-46.83 19.32q-19.23 19.32-19.23 46.92t19.32 46.83q19.32 19.23 46.92 19.23Zm-55.12-168.48q11.67-5.54 24.58-9.09 12.91-3.55 25.78-4.84 8-42.84 28.43-77.82 20.42-34.97 52.45-55.97 9.23-6.64 14.07-16.45 4.85-9.8 4.85-22.96 0-15.34-9.96-25.89t-31.48-10.55q-41.42 0-94.1 19.69-52.67 19.68-54.72 76.44 0 10.64 2.69 20.08 2.7 9.43 5.11 16.84l32.3 90.52ZM249.23-384.87q13.62 0 37.92-7.8l90.9-32.3q-7.02-11.72-10.56-24.63-3.54-12.91-3.75-25.73-42.84-8-77.82-28.43-34.97-20.42-55.97-52.45-6.64-9.23-17.71-14.07-11.06-4.85-21.7-4.85-17.81 0-27.13 9.96-9.31 9.96-9.31 31.48 0 59.09 24.38 103.95 24.38 44.87 70.75 44.87ZM426.31-154.1q50.74 0 99.85-22.37 49.12-22.38 48.97-75.89 0-10.19-2.49-18.34t-5.31-16.45l-32.3-90.9q-12.08 6.59-25.36 10.14-13.29 3.55-25 4.17-8 42.84-28.43 77.82-20.42 34.97-52.45 55.97-8.43 5.85-13.78 17.12-5.34 11.26-5.14 21.7.62 14.46 10.17 25.74 9.55 11.29 31.27 11.29Zm339.66-230.77q15.89 0 27.91-8.76t12.02-32.68q0-41.92-19.2-94.65-19.2-52.74-77.48-54.17-10.71 0-19.64 2-8.94 2-16.73 4.8l-90.52 33.3q5.41 9.39 9.57 24.06 4.15 14.66 4.36 26.3 42.84 8 77.82 28.43 34.97 20.42 55.97 52.45 5.26 7.89 15.48 13.41 10.22 5.51 20.44 5.51Zm-169.71-99.8ZM475.33-596.26ZM363.74-475.33Zm120.93 111.59Z"/></svg>