<svg xmlns="http://www.w3.org/2000/svg" height="48" viewBox="0 -960 960 960" width="48"><path d="M320-125q-53.15 0-93.27-32-40.11-32-55.96-83.54l-32.15-100.69q-5.62-16.23 5.5-30.85 11.11-14.61 28.34-14.61h615.08q17.23 0 28.15 14.61 10.92 14.62 6.31 30.85l-32.16 100.69Q773-190 732.88-157.5 692.77-125 640.61-125H320ZM207.92-459.77q4.39-31.54 18-60.19 13.62-28.66 34.7-54.58-8.39-10.23-12.08-23.65-3.69-13.42-3.69-29.42 0-54.77 38.27-95.81t95.8-48.66q15.23-27.07 41.62-45.5Q446.92-836 480-836q31.69 0 58.08 18.42 26.38 18.43 43.23 45.5 44 6 78.11 32 34.12 26 46.43 65l61.46-95.23q6.07-9.3 17.88-11.34 11.81-2.04 21.73 3.04 9.31 7.07 12.23 18.5 2.93 11.42-3.15 21.73L704.31-565.62q17.84 23.31 30.03 50.12 12.2 26.81 17.97 55.73H207.92Zm142.23-133.84L480-636.69l130.46 43.08q16.69 5.76 32.5-4.27 15.81-10.04 15.81-29.73 0-32.77-22.96-58.04-22.96-25.27-56.5-30.66l-35.39-4.84-16.69-30.54q-8.38-11.77-20.73-19.85-12.35-8.07-26.5-8.07-15.15 0-27.81 8.07-12.65 8.08-18.42 19.85l-18.08 30.54-33.38 4.84q-35.54 5.39-58 30.66t-22.46 58.04q0 19.69 14.8 29.73 14.81 10.03 33.5 4.27Z"/></svg>