<svg xmlns="http://www.w3.org/2000/svg" height="40" viewBox="0 -960 960 960" width="40"><path d="M479.358-781.833q30.142 0 51.642 20.799 21.5 20.799 21.5 50.588v13.612q65.667 23.501 109.917 79.584T706.667-482v142.833L683.5-362.333V-482q0-84.198-59.585-143.849Q564.331-685.5 480.227-685.5q-32.136 0-55.182 7.25Q402-671 385.833-661.833l-16.166-16.334q5.666-4 17.583-10 11.917-6 20.917-8.671v-12.058q0-29.937 20.721-51.437 20.72-21.5 50.47-21.5Zm.502 23.166q-20.807 0-34.667 14.667-13.86 14.667-13.86 35.333v5.334q10.5-2.334 23.834-3.834 13.333-1.5 25-1.5 11.666 0 24.666 1.5t24.5 3.834v-5.334q0-20.666-14.333-35.333-14.333-14.667-35.14-14.667Zm353.14 685L477-430.5H340.166v-23.167h113.501l-142-142.833q-18.5 23.666-26.834 55.151-8.333 31.485-8.333 59.516v293.166q0 12 10 22t22 10h343q12 0 22-10.583t10-22.583V-257.5l23.167 23.167v45.666q0 22.975-16.096 39.071-16.096 16.096-38.854 16.096H308.283q-22.758 0-38.854-16.096t-16.096-38.851V-481.89q0-36.11 10.334-69.277Q274-584.333 295-613.432L138-769.333l16.833-16.834L850.5-90.5 833-73.667ZM534.333-524.333ZM477-430.5Zm3 53.667Z"/></svg>