<svg xmlns="http://www.w3.org/2000/svg" height="40" width="40"><path d="M8.833 34.5v-29h13.584l8.75 8.75V34.5Zm11.209-6.25q2.75 0 4.625-1.896t1.875-4.646q0-2.791-1.875-4.687-1.875-1.896-4.625-1.896-1.917 0-3.25.875-1.334.875-2.125 1.917v-2.959h-1.042v4.75h4.75v-1.041h-2.917q.625-1 1.854-1.729 1.23-.73 2.73-.73 2.291 0 3.854 1.584 1.562 1.583 1.562 3.916 0 2.292-1.562 3.875-1.563 1.584-3.854 1.584-1.875 0-3.292-1.063-1.417-1.062-2-2.729h-1.125q.708 2.333 2.458 3.604 1.75 1.271 3.959 1.271Z"/></svg>