<svg xmlns="http://www.w3.org/2000/svg" height="20" viewBox="0 -960 960 960" width="20"><path d="M303-262q-62.94 0-106.97-43.25T152-410.91V-550.5q0-43 26.25-77.25T247.5-673q56.5-14 115.01-19.5 58.51-5.5 117.5-5.5t117.32 5.78q58.33 5.77 115.17 19.22 43 10 69 44.65 26 34.66 26 77.85v139.59q0 62.41-44.03 105.66T656.5-262H620q-14.5 0-28.5-3.25t-28-7.75L511-293.5q-15.5-5.5-31.25-5.5t-31.25 5.5L396-273q-14 4.5-28 7.75T339.5-262H303Zm.15-67h36.57q7.92 0 15.35-1.5t15.26-4.41q27.17-10.59 54.18-20.84Q451.53-366 480-366q28.38 0 55.79 10.19 27.42 10.2 53.84 20.87 7.87 2.94 15.27 4.44 7.39 1.5 15.28 1.5h36.35q34.47 0 59.22-23.75T740.5-411v-139.5q0-19.5-12.5-36t-32.36-21.03Q642-620.5 588.25-625.75 534.5-631 480-631t-108.5 5.5q-54 5.5-107 18-20.21 4.93-32.86 21.15Q219-570.13 219-550.5V-411q0 34.5 24.75 58.25t59.4 23.75ZM58-399v-163h43v163H58Zm801 0v-163h43v163h-43Zm-379-81Z"/></svg>