<svg xmlns="http://www.w3.org/2000/svg" height="24" viewBox="0 -960 960 960" width="24"><path d="M252.31-100Q222-100 201-121q-21-21-21-51.31v-615.38Q180-818 201-839q21-21 51.31-21h455.38Q738-860 759-839q21 21 21 51.31v615.38Q780-142 759-121q-21 21-51.31 21H252.31Zm0-60h455.38q4.62 0 8.46-3.85 3.85-3.84 3.85-8.46v-615.38q0-4.62-3.85-8.46-3.84-3.85-8.46-3.85H252.31q-4.62 0-8.46 3.85-3.85 3.84-3.85 8.46v615.38q0 4.62 3.85 8.46 3.84 3.85 8.46 3.85Zm42.31-90h373.84L544.31-413.08l-95.08 121.54-62.77-77.69L294.62-250ZM240-160v-640 640Z"/></svg>