<svg xmlns="http://www.w3.org/2000/svg" height="40" width="40"><path d="M20 24.333q-2.458 0-4.125-1.771-1.667-1.77-1.667-4.229V8.25q0-2.333 1.688-4.042Q17.583 2.5 20 2.5t4.125 1.708q1.708 1.709 1.708 4.042v10.083q0 2.459-1.687 4.229-1.688 1.771-4.146 1.771Zm.042 12.875q-.834 0-1.396-.583-.563-.583-.563-1.417V31.5q-4.5-.417-7.645-3.5-3.146-3.083-3.813-7.417-.083-.875.5-1.562.583-.688 1.583-.688.625 0 1.167.459.542.458.625 1.166.542 3.417 3.229 5.667 2.688 2.25 6.271 2.25 3.542 0 6.25-2.25t3.25-5.667q.083-.708.625-1.166.542-.459 1.25-.459.958 0 1.521.709.562.708.479 1.541-.708 4.292-3.833 7.375-3.125 3.084-7.584 3.542v3.708q0 .834-.604 1.417-.604.583-1.312.583Z"/></svg>