<svg xmlns="http://www.w3.org/2000/svg" height="20" width="20"><path d="M10 18.208Q9.854 18.208 9.708 18.198Q9.562 18.188 9.458 18.146Q6.771 17.271 5.062 14.771Q3.354 12.271 3.354 9.271V5.479Q3.354 4.896 3.688 4.406Q4.021 3.917 4.583 3.729L9.354 1.938Q9.667 1.812 10 1.812Q10.333 1.812 10.646 1.938L15.417 3.729Q15.979 3.917 16.312 4.406Q16.646 4.896 16.646 5.479V9.271Q16.646 12.271 14.938 14.771Q13.229 17.271 10.562 18.146Q10.438 18.188 10.292 18.198Q10.146 18.208 10 18.208ZM10 16.333Q11.896 15.708 13.188 13.948Q14.479 12.188 14.708 10H10V3.708L5.229 5.479Q5.229 5.479 5.229 5.479Q5.229 5.479 5.229 5.479V9.271Q5.229 9.5 5.229 9.635Q5.229 9.771 5.271 10H10Z"/></svg>