<svg xmlns="http://www.w3.org/2000/svg" height="40" width="40"><path d="m25.167 18.875 6.416-3.708-6.416-3.709-6.5 3.709Zm0 5.417 4.458-2.625V18l-4.458 2.625-4.5-2.625v3.667Zm.166 8.208v-2.125h8.417V9.583H6.25v3.209H4.125V7.458h31.75V32.5Zm-21.208 0h3.708q0-1.542-1.083-2.667-1.083-1.125-2.625-1.125Zm8.792 0h2.125q0-4.583-3.167-7.792Q8.708 21.5 4.125 21.5v2.125q3.708.083 6.25 2.646 2.542 2.562 2.542 6.229ZM4.125 14.292v2.125q3.292 0 6.208 1.271 2.917 1.27 5.105 3.458 2.187 2.187 3.437 5.125 1.25 2.937 1.25 6.229h2.167q0-3.792-1.417-7.104-1.417-3.313-3.875-5.771-2.458-2.458-5.792-3.896-3.333-1.437-7.083-1.437Zm14.833 10.875Z"/></svg>