<svg xmlns="http://www.w3.org/2000/svg" height="20" width="20"><path d="M9.312 15Q9.312 15.667 9.5 16.312Q9.688 16.958 10.021 17.542H3.812Q2.979 17.542 2.406 16.969Q1.833 16.396 1.833 15.562V7.479Q1.833 6.646 2.406 6.073Q2.979 5.5 3.812 5.5H6.792V4.354Q6.792 3.521 7.365 2.948Q7.938 2.375 8.771 2.375H11.229Q12.062 2.375 12.635 2.948Q13.208 3.521 13.208 4.354V5.5H16.188Q17.021 5.5 17.594 6.073Q18.167 6.646 18.167 7.479V10.333Q17.479 9.833 16.677 9.573Q15.875 9.312 15 9.312Q12.667 9.312 10.99 10.979Q9.312 12.646 9.312 15ZM8.25 5.5H11.75V4.354Q11.75 4.125 11.604 3.979Q11.458 3.833 11.229 3.833H8.771Q8.542 3.833 8.396 3.979Q8.25 4.125 8.25 4.354ZM15 18.938Q13.375 18.938 12.219 17.781Q11.062 16.625 11.062 15Q11.062 13.354 12.219 12.208Q13.375 11.062 15 11.062Q16.646 11.062 17.792 12.219Q18.938 13.375 18.938 15Q18.938 16.625 17.781 17.781Q16.625 18.938 15 18.938ZM16.375 17.104 16.917 16.562 15.292 14.958V12.125H14.562V15.25Z"/></svg>