<svg xmlns="http://www.w3.org/2000/svg" height="40" viewBox="0 96 960 960" width="40"><path d="M305.167 795.167V637.5H195.5q-32.075 0-46.371-29.083t7.371-54.583L441 200.167q15.087-18.334 38.96-18.334t39.706 18.334l284.168 353.667q21.333 25.5 7.037 54.583T764.834 637.5H655.167v157.667q0 21-14.917 35.917Q625.333 846 604.334 846H355.666q-20.999 0-35.749-14.916-14.75-14.917-14.75-35.917ZM172.833 1017q-21 0-35.917-14.95Q122 987.099 122 965.383q0-20.716 14.916-35.549Q151.833 915 172.833 915h614.668q20.666 0 35.916 14.951 15.25 14.95 15.25 35.666 0 21.716-15.25 36.553-15.25 14.83-35.916 14.83H172.833Z"/></svg>