<svg xmlns="http://www.w3.org/2000/svg" height="40" viewBox="0 -960 960 960" width="40"><path d="M360-318.46v-127.69h-97.21q-18.37 0-26.69-16.02-8.33-16.01 2.69-30.88l217.85-291.87q9.43-11.82 23.46-11.82 14.03 0 23.26 11.82l217.85 291.87q11.02 14.87 2.69 30.88-8.32 16.02-26.69 16.02H600v127.69q0 12.42-8.4 20.83-8.41 8.4-20.83 8.4H389.23q-12.42 0-20.83-8.4-8.4-8.41-8.4-20.83Zm33.85-4.62h172.3V-480h117.98L480-760.21 275.87-480h117.98v156.92ZM480-542.03ZM210.77-160q-7.19 0-12.06-4.91-4.86-4.91-4.86-12.17 0-7.25 4.86-12.01 4.87-4.76 12.06-4.76h538.46q7.19 0 12.06 4.91 4.86 4.91 4.86 12.17t-4.86 12.01q-4.87 4.76-12.06 4.76H210.77Z"/></svg>