<svg xmlns="http://www.w3.org/2000/svg" height="48" viewBox="0 -960 960 960" width="48"><path d="M142.39-223.39v-321.84 20.15-211.53 513.22Zm570.01 97.08q-7.28 0-13.34-2.41-6.05-2.41-10.5-8.11L573.81-251.57q-13.58-12.58-19-27.08-5.42-14.49-5.42-30.67 0-31.95 22.4-56.89t58.72-24.94q28.41 0 44.58 13.02 16.18 13.01 37.64 34.37 20.02-20.2 36.14-33.8 16.12-13.59 45.52-13.59 37.76 0 59.68 25.38Q876-340.38 876-308.65q0 14.8-5.67 29.72-5.68 14.92-17.41 27.01l-115.1 115.09q-5.61 5.61-11.88 8.07-6.27 2.45-13.54 2.45ZM142.39-628.15h675.22v-96.16q0-4.61-3.84-8.46-3.85-3.84-8.46-3.84H154.69q-4.61 0-8.46 3.84-3.84 3.85-3.84 8.46v96.16ZM154.69-165q-28.25 0-49.47-21.22T84-235.69v-488.62q0-28.25 21.22-49.47T154.69-795h650.62q28.25 0 49.47 21.22T876-724.31v181.46q0 16.23-13.42 23.93-13.43 7.69-28.04.46-28.61-12.99-58.94-19.88-30.33-6.89-62.91-6.89-39.84 0-76.65 11.39-36.8 11.39-66.96 31.45H142.39v266.7q0 4.61 3.84 8.46 3.85 3.84 8.46 3.84h247.77q11.69 0 20.19 8.57 8.5 8.57 8.5 20.62 0 12.06-8.5 20.63-8.5 8.57-20.19 8.57H154.69Z"/></svg>