<svg xmlns="http://www.w3.org/2000/svg" height="24" viewBox="0 -960 960 960" width="24"><path d="M472.02-216.5q-107.43-3.3-181.48-79.72Q216.5-372.63 216.5-480q0-109.74 76.88-186.62Q370.26-743.5 480-743.5q107.37 0 184.07 74.33 76.69 74.32 79.43 181.76L646.98-516q-12.5-58.39-58.79-96.69-46.3-38.29-108.19-38.29-70.89 0-120.94 50.04-50.04 50.05-50.04 120.94 0 61.89 37.76 107.9 37.76 46.01 96.65 59.08l28.59 96.52ZM829.48-42.48 654.52-218 603.96-65.87 480-480l414.13 123.96L742-305.48l175.52 174.96-88.04 88.04Z"/></svg>