<svg xmlns="http://www.w3.org/2000/svg" height="48" width="48"><path d="M24 11.5 17.65 5.2 20.85 1.85 24 5.05 30.35 -1.25 33.65 2ZM5 48.9V30L10 14.85H38.05L43.1 30V48.9H37.85V44.75H10.15V48.9ZM10.75 27.35H37.3L34.7 19.45H13.35ZM14.6 37.9Q15.7 37.9 16.475 37.15Q17.25 36.4 17.25 35.3Q17.25 34.1 16.45 33.3Q15.65 32.5 14.6 32.5Q13.4 32.5 12.625 33.3Q11.85 34.1 11.85 35.25Q11.85 36.4 12.6 37.15Q13.35 37.9 14.6 37.9ZM33.5 37.9Q34.65 37.9 35.45 37.15Q36.25 36.4 36.25 35.3Q36.25 34.1 35.475 33.3Q34.7 32.5 33.5 32.5Q32.4 32.5 31.625 33.3Q30.85 34.1 30.85 35.25Q30.85 36.4 31.625 37.15Q32.4 37.9 33.5 37.9Z"/></svg>