<svg xmlns="http://www.w3.org/2000/svg" height="24" viewBox="0 -960 960 960" width="24"><path d="M231.31-228.23q-50.23-43.69-66.77-118.69T148-482.77q0-119.31 79.62-202.19Q307.23-767.85 405-815.61q-3.15-7.62-5.81-15.5-2.65-7.89-2.65-17.04 0-35.4 24.11-59.63Q444.76-932 480-932t59.35 24.22q24.11 24.23 24.11 59.63 0 9.92-2.65 17.5-2.66 7.57-6.58 15.19 97.69 44.54 177.73 126.58Q812-606.85 812-483.15q0 61.76-14.92 135.5-14.93 73.73-69 119.42H231.31ZM200.23-68q-22.02 0-37.12-15.32Q148-98.63 148-120.51q0-21.88 15.35-37.11 15.34-15.23 37.27-15.23h559.15q22.02 0 37.12 15.06Q812-142.74 812-120.86t-15.11 37.37Q781.79-68 759.77-68H200.23ZM437-464v41.08q0 17.85 12.63 29.92 12.63 12.08 30.45 12.08 17.83 0 29.87-12.63Q522-406.17 522-423.92V-464h40.92q17.85 0 29.93-12.63 12.07-12.63 12.07-30.45 0-17.83-12.07-29.87Q580.77-549 562.92-549H522v-39.69q0-17.85-12.06-29.93-12.06-12.07-29.88-12.07-17.83 0-30.44 12.07Q437-606.54 437-588.69V-549h-40.31q-17.85 0-29.92 12.06-12.08 12.06-12.08 29.88 0 17.83 12.63 30.44Q379.94-464 397.69-464H437Z"/></svg>