<svg xmlns="http://www.w3.org/2000/svg" height="20" width="20"><path d="M5.896 16.583h5.542q.354 0 .614.261.26.26.26.614t-.26.615q-.26.26-.614.26H3.771q-.583 0-.802-.541-.219-.542.198-.959L16.833 3.167q.417-.417.959-.198.541.219.541.802v5.333q0 .354-.26.615-.261.26-.615.26t-.614-.26q-.261-.261-.261-.615V5.896Zm9 1.75q-.292 0-.5-.208-.208-.208-.208-.5v-2.687q0-.292.208-.5.208-.209.5-.209H15v-.833q0-.688.49-1.177.489-.49 1.198-.49.687 0 1.177.49.489.489.489 1.177v.833h.104q.292 0 .5.209.209.208.209.5v2.687q0 .292-.209.5-.208.208-.5.208Zm.958-4.104H17.5v-.833q0-.354-.24-.584-.239-.229-.572-.229-.355 0-.594.229-.24.23-.24.584Zm-4.604-3Z"/></svg>