<svg xmlns="http://www.w3.org/2000/svg" height="20" viewBox="0 96 960 960" width="20"><path d="M395.164 903Q357 903 329.5 884T293 830q14 1 24.5 12t8.5 25.976q-72 4.436-124.5-43.732Q149 776.075 147 708q-2-32.069 10-63.825t36-56.512q-8-3.443-20.5-11.553Q160 568 150 551q-1-67 39-119t100-68q4-43 33.617-70 29.617-27 72.409-27Q422 267 441.5 277q19.5 10 38.959 32 20.541-23 37.872-32.5 17.33-9.5 45.443-9.5 40.809 0 71.517 29Q666 325 670 366q60 16 100.5 67.5T810 553q-10 14-22 20.222-12 6.222-19 9.778 23 25.355 33.5 60.177Q813 678 811 709q-1 71-53 117.694-52 46.693-124 41.788-2-16.482 8.351-25.982T666 830q-9 35-36.5 54t-65.939 19q-29.764 0-46.163-9.5Q501 884 480 860q-20 22-37.651 32.5-17.651 10.5-47.185 10.5ZM503 374.703v421.594q0 24.623 17.856 43.163Q538.711 858 564.571 858 590 858 606 844.5q16-13.5 18-38.5-19-1-35.571-9.326Q571.857 788.348 561 773q-6-7.478-3.579-16.572 2.421-9.095 10.079-14.428 7.5-6 17.19-4.342 9.691 1.658 15.31 9.342 12.422 17.939 31.619 27.47 19.197 9.53 41.116 9.53Q711 784 736 758.819T761 695q0-20.667-6-39.333Q749 637 739 618q-18.896 14-42.33 23-23.434 9-48.67 9-9.25 0-16.125-6.825-6.875-6.824-6.875-16Q625 618 631.875 611T648 604q38.638 0 63.819-25.181Q737 553.638 737 515.473q0-34.97-22-60.721Q693 429 656.25 426q-11.25 17-24.438 30.5Q618.625 470 600 477q-8 3-16.786-.93-8.785-3.93-12.214-12.912-4-8.316 1-16.737Q577 438 585.452 434q17.577-6.871 28.563-23.326Q625 394.219 625 374.437 625 350 607.024 331.5q-17.977-18.5-43.08-18.5-25.104 0-43.024 18.54T503 374.703ZM457 796V374.69q0-24.61-18.556-43.15Q419.887 313 394.831 313t-42.944 18.085Q334 349.171 334 375.364q0 20.636 11.545 36.261Q357.091 427.25 374.548 434q8.452 4 13.952 11.87 5.5 7.869.671 17.347-3.195 8.018-12.183 11.9Q368 479 360 476q-19-7-32.5-20t-24.756-30Q266 430 244.5 454.538t-21.5 60.8q0 38.3 25.181 63.481Q273.362 604 312 604q9.25 0 16.125 6.825 6.875 6.824 6.875 16Q335 636 328.125 643T312 650q-25.2 0-48.6-9-23.4-9-41.4-23-9 17-16 37t-7 40q0 38.638 25.24 63.819Q249.48 784 287.853 784q22.28 0 40.438-9.985T360 747q5.857-8.421 15.929-10.211Q386 735 393 740.5q7 5.5 9.5 15.5t-3.25 17.303Q388 789 371.5 797t-36.5 9q2 25 17.986 38t40.919 13q26.181 0 44.638-17.96Q457 821.08 457 796Zm23-210Z"/></svg>