<svg xmlns="http://www.w3.org/2000/svg" height="48" width="48"><path d="M5.4 36.2Q4.7 36.2 4.225 35.75Q3.75 35.3 3.75 34.55V30.15Q3.75 26.75 6.125 24.375Q8.5 22 11.9 22H30.7V19.5Q30.7 18.45 30 17.75Q29.3 17.05 28.25 17.05H19.45Q18.55 17.05 18.125 17.3Q17.7 17.55 17.45 18.05Q17 18.85 16.525 19.175Q16.05 19.5 15.5 19.5Q14.7 19.5 14.25 18.95Q13.8 18.4 14.2 17.45Q14.6 15.95 16.025 14.85Q17.45 13.75 19.4 13.75H28.25Q30.65 13.75 32.325 15.425Q34 17.1 34 19.5V28.25Q35.2 28.25 36.15 27.575Q37.1 26.9 37.1 25.7V17.65Q37.1 15.2 38.75 13.525Q40.4 11.85 42.65 11.85Q43.4 11.85 43.825 12.3Q44.25 12.75 44.25 13.45Q44.25 14.1 43.85 14.55Q43.45 15 42.8 15.1Q41.8 15.15 41.1 15.875Q40.4 16.6 40.4 17.65V25.7Q40.4 28.25 38.5 29.9Q36.6 31.55 34 31.55V34.55Q34 35.3 33.525 35.75Q33.05 36.2 32.35 36.2Z"/></svg>