<svg xmlns="http://www.w3.org/2000/svg" height="20" width="20"><path d="M9.125 18.333V15.833H10.875V18.333ZM1.667 10.875V9.125H4.167V10.875ZM15.833 10.875V9.125H18.333V10.875ZM15.271 16.479 13.521 14.729 14.729 13.521 16.479 15.271ZM4.729 16.479 3.521 15.271 5.271 13.521 6.479 14.729ZM10 14.208Q8.229 14.208 7.01 12.99Q5.792 11.771 5.792 10Q5.792 9 6.229 8.135Q6.667 7.271 7.438 6.667V2.5H12.583V6.667Q13.354 7.271 13.781 8.135Q14.208 9 14.208 10Q14.208 11.771 12.99 12.99Q11.771 14.208 10 14.208ZM9.188 5.875Q9.396 5.833 9.583 5.813Q9.771 5.792 10 5.792Q10.229 5.792 10.427 5.813Q10.625 5.833 10.833 5.875V4.25H9.188Z"/></svg>