<svg xmlns="http://www.w3.org/2000/svg" height="24" viewBox="0 -960 960 960" width="24"><path d="M711.96-570.77q21.77-48.15 31.85-92.58 10.07-44.42 12.77-93.57H651.54l-23.27 109.38 83.69 76.77ZM203.08-203.54q44.46.08 91.05-10.31 46.6-10.38 85.99-29.69l-82.74-83.65-94.3 19.5v104.15Zm450.77-207.54-26.31-26.3q13.42-17.2 30.02-40.85 16.59-23.65 36.86-58.08l-106-99.04 33.43-158.5h172v29.66q0 91-38.08 185.82-38.08 94.83-101.92 167.29ZM196.19-166.15h-30.04v-171l145.08-28.89 104 105.58q39.27-21.81 72.96-45.25 33.69-23.44 61.19-48.6L121.85-782.46l25.84-25.85 664 664-25.84 25.85L576.31-328q-83.85 76.08-183.33 118.96-99.48 42.89-196.79 42.89Zm515.77-404.62ZM380.12-243.54Z"/></svg>