<svg xmlns="http://www.w3.org/2000/svg" height="20" width="20"><path d="M9.125 15.833q-2.083 0-3.542-1.458-1.458-1.458-1.458-3.542 0-.229.052-.562.052-.333.094-.563-.125.042-.281.084-.157.041-.323.041-.875 0-1.438-.562-.562-.563-.562-1.438t.562-1.437q.563-.563 1.438-.563.729 0 1.26.396t.74 1.021q.687-.625 1.573-1.021.885-.396 1.885-.396h8.333q.354 0 .615.261.26.26.26.614v1.584q0 .354-.26.614-.261.261-.615.261h-3.333v1.666q0 2.084-1.458 3.542-1.459 1.458-3.542 1.458ZM3.667 8.667q.354 0 .593-.24.24-.239.24-.594 0-.354-.24-.593Q4.021 7 3.667 7q-.355 0-.594.24-.24.239-.24.593 0 .355.24.594.239.24.594.24ZM9.125 12.5q.687 0 1.177-.49.49-.489.49-1.177 0-.687-.49-1.177-.49-.489-1.177-.489t-1.177.489q-.49.49-.49 1.177 0 .688.49 1.177.49.49 1.177.49Z"/></svg>