<svg xmlns="http://www.w3.org/2000/svg" height="40" viewBox="0 -960 960 960" width="40"><path d="M140-100v-50.26h72.39v-140.13q-33.47-8.61-52.93-34.32Q140-350.41 140-384.77V-690h195.28v305.23q0 32.1-19.65 58.94-19.66 26.83-52.99 35.44v140.13h72.64V-100H140Zm50.26-391h94.77v-148.74h-94.77V-491Zm47.25 153.74q19.23 0 33.38-14.14 14.14-14.14 14.14-33.37v-55.97h-94.77v55.97q0 19.23 14.01 33.37 14.01 14.14 33.24 14.14ZM468.21-100v-478.23l123.74-51.9V-860h142.41v228.8L860-579.28V-100H468.21Zm174-665.92h41.89v-43.82h-41.89v43.82ZM518.46-460.9h291.28v-86.77L684.1-595.8v-119.87h-41.89V-600l-123.75 52.35v86.75Zm0 310.64h291.28v-105.07H518.46v105.07Zm0-155.33h291.28v-105.05H518.46v105.05ZM237.51-440.74Zm280.95 135.15v-105.05 105.05Z"/></svg>