<svg xmlns="http://www.w3.org/2000/svg" height="20" viewBox="0 -960 960 960" width="20"><path d="M154.09-97.91q-43.3 0-74.24-30.78-30.94-30.77-30.94-74.4v-231.06q0-21.64 15.42-37.12 15.41-15.47 36.96-15.47 21.88 0 37.34 15.47 15.46 15.48 15.46 37.12v231.06h328.82q21.64 0 37.12 15.42 15.47 15.41 15.47 36.96 0 21.88-15.47 37.34-15.48 15.46-37.12 15.46H154.09Zm173.34-173.35q-43.62 0-74.4-30.77-30.77-30.78-30.77-74.4v-208.9q0-21.64 15.41-37.11 15.42-15.47 36.97-15.47 21.88 0 37.34 15.47 15.45 15.47 15.45 37.11v208.9h306.66q21.64 0 37.11 15.41 15.47 15.41 15.47 36.96 0 21.89-15.47 37.34-15.47 15.46-37.11 15.46H327.43Zm173.59-173.59q-43.63 0-74.4-30.77-30.77-30.77-30.77-74.4v-207.89q0-43.3 30.77-74.24 30.77-30.94 74.4-30.94h305.65q43.63 0 74.41 30.94 30.77 30.94 30.77 74.24v207.89q0 43.63-30.77 74.4-30.78 30.77-74.41 30.77H501.02Zm0-105.17h305.65v-158.07H501.02v158.07Z"/></svg>