<svg xmlns="http://www.w3.org/2000/svg" height="48" viewBox="0 -960 960 960" width="48"><path d="M101-101v-758h758v758H101Zm80-80h598v-519H181v519Zm299.04-106q-79.65 0-142.35-42.82-62.7-42.82-90.69-110.33 27.99-67.96 90.65-110.9Q400.31-594 479.96-594t142.35 43.1q62.7 43.1 90.69 111.05-27.99 67.51-90.65 110.18Q559.69-287 480.04-287Zm-.1-104q-20.44 0-34.69-14.31Q431-419.62 431-440.06q0-20.44 14.31-34.69Q459.62-489 480.06-489q20.44 0 34.69 14.31Q529-460.38 529-439.94q0 20.44-14.31 34.69Q500.38-391 479.94-391Zm.06 30q33.6 0 56.3-22.7Q559-406.4 559-440q0-33.6-22.7-56.3Q513.6-519 480-519q-33.6 0-56.3 22.7Q401-473.6 401-440q0 33.6 22.7 56.3Q446.4-361 480-361Z"/></svg>