<svg xmlns="http://www.w3.org/2000/svg" height="48" width="48"><path d="M13.9 44.3Q12.1 44.3 11 43.225Q9.9 42.15 9.75 40.45L5.65 3.7H42.35L38.25 40.45Q38.1 42.15 37 43.225Q35.9 44.3 34.15 44.3ZM10.8 19 13.2 40.9Q13.2 40.9 13.2 40.9Q13.2 40.9 13.2 40.9H34.8Q34.8 40.9 34.8 40.9Q34.8 40.9 34.8 40.9L37.2 19ZM10.45 16H37.55L38.55 7.1H9.45ZM24 38.3Q26.25 38.3 27.825 36.75Q29.4 35.2 29.4 33Q29.4 30.65 27.975 28Q26.55 25.35 24 22.95Q21.45 25.35 20.025 28Q18.6 30.65 18.6 33Q18.6 35.2 20.175 36.75Q21.75 38.3 24 38.3ZM37.2 19H10.8Q10.8 19 10.8 19Q10.8 19 10.8 19H37.2Q37.2 19 37.2 19Q37.2 19 37.2 19ZM24 35.35Q23 35.35 22.3 34.65Q21.6 33.95 21.6 32.95Q21.6 31.9 22.175 30.45Q22.75 29 24 27.4Q25.25 29.05 25.825 30.5Q26.4 31.95 26.4 32.95Q26.4 33.95 25.7 34.65Q25 35.35 24 35.35Z"/></svg>