<svg xmlns="http://www.w3.org/2000/svg" height="40" width="40"><path d="M16.5 26.25q.583 0 1-.396.417-.396.417-.979 0-.083-.021-.187-.021-.105-.063-.188.125.042.271.083.146.042.313.042.583 0 1-.437.416-.438.416-1.021 0-.542-.437-.979-.438-.438-1.021-.438-.292 0-.563.125-.27.125-.479.375l-4.666-5.042q.291-.208.479-.52.187-.313.187-.646 0-.584-.437-1.021-.438-.438-.979-.438-.584 0-1 .417-.417.417-.459 1 0 .125.021.229.021.104.104.188-.166-.084-.291-.105-.125-.02-.292-.02-.583 0-1 .416-.417.417-.417 1 0 .584.417 1 .417.417 1 .417.333 0 .667-.146.333-.146.5-.437l4.666 5.041q-.333.167-.541.5-.209.334-.209.75 0 .584.417 1 .417.417 1 .417ZM3.333 21.458l1.542-2.5 13.167 12.334q.541.5 1.208.75.667.25 1.375.25.583 0 1.042-.125.458-.125.958-.417l14-8.833v3.375l-12.542 7.875q-.75.458-1.645.708-.896.25-1.855.25-1.166 0-2.375-.437-1.208-.438-2.125-1.313ZM11.125 9l1.542-2.417q3.083 1.584 5.75 4.271 2.666 2.688 3.916 5.563 1.542-1.792 3.313-2.667 1.771-.875 5.146-1.792 1.833-.458 3.208-.979 1.375-.521 2.625-1.104V13q-1.125.458-2.396.896-1.271.437-2.771.812-3.583.959-5.333 2.021-1.75 1.063-3.25 3.563-.167.25-.458.416-.292.167-.667.167-.417 0-.792-.313-.375-.312-.458-.729-.833-3.208-3.458-6.187T11.125 9Zm-6.25 9.958q3 2.792 6.583 6.188 3.584 3.396 6.584 6.146.541.5 1.208.75.667.25 1.375.25.583 0 1.042-.125.458-.125.958-.417 3.083-1.958 6.896-4.354 3.812-2.396 7.104-4.479l-14 8.833q-.5.292-.958.417-.459.125-1.042.125-.708 0-1.375-.25t-1.208-.75Z"/></svg>