<svg xmlns="http://www.w3.org/2000/svg" height="40" width="40"><path d="M20 20.333q.792 0 1.25-.479.458-.479.458-1.229v-5.75q0-.708-.479-1.187-.479-.48-1.229-.48-.75 0-1.229.48-.479.479-.479 1.187v5.75q0 .75.5 1.229.5.479 1.208.479Zm0 6.375q.833 0 1.354-.541.521-.542.521-1.334 0-.833-.521-1.375-.521-.541-1.354-.541-.833 0-1.354.541-.521.542-.521 1.375 0 .792.521 1.334.521.541 1.354.541Zm0 10.917q-.292 0-.521-.021-.229-.021-.437-.104-5.917-1.833-9.688-7.271-3.771-5.437-3.771-11.937v-7.959q0-1.208.729-2.271Q7.042 7 8.25 6.542l10.375-3.875q.667-.25 1.375-.25t1.417.25l10.375 3.875q1.166.458 1.896 1.5.729 1.041.729 2.291v7.959q0 6.5-3.771 11.937-3.771 5.438-9.688 7.271 0-.042-.958.125Z"/></svg>