<svg xmlns="http://www.w3.org/2000/svg" height="20" viewBox="0 -960 960 960" width="20"><path d="m828-104-92-92H588v-148l-20-20v168H392v-175h169l-20-20H392v-148l-20-20v168H196v-178h166l-20-20H196v-146l-71.15-71.15Q121-810 121.5-813q.5-3 4.72-7.22Q131-825 133-825t7 5l701.66 701.66Q845-115 846-111.5t-3 8.2q-4 4.3-7.5 3.8T828-104Zm-580-92q-21.45 0-36.73-15.27Q196-226.55 196-248v-123h176v175H248Zm516-97-78-78h78v78Zm-98-98-78-78v-100h176v178h-98Zm-98-98-79-80h79v80Zm-99-100-77-77v-98h176v175h-99Zm119 0v-175h124q21.45 0 36.72 15.28Q764-733.45 764-712v123H588Zm-216-97-78-78h78v78Z"/></svg>