<svg xmlns="http://www.w3.org/2000/svg" height="48" viewBox="0 -960 960 960" width="48"><path d="M572.85-132q-17.73 0-34.29-7t-29.57-19.85L364-303q-7.83-8-7.42-18.5Q357-332 364-340l-.3.3q7.3-7.3 16.63-8.8 9.34-1.5 19.67 1.5l89 19v-288q0-4.67 3.04-7.84 3.03-3.16 8-3.16 4.96 0 7.96 3.16 3 3.17 3 7.84v283q0 13.35-10 21.67-10 8.33-23 4.33l-113-28 159 161q10 10 22.5 15t26.5 5h137q44.72 0 76.86-32.02T819-263v-120q0-4.68 3.04-7.84 3.03-3.16 8-3.16 4.96 0 7.96 3.16t3 7.84v120q0 55-38 93t-93 38H572.85Zm36.92-253q-4.77 0-7.77-3.16t-3-7.84v-150q0-4.67 3.04-7.84 3.03-3.16 8-3.16 4.96 0 7.96 3.16 3 3.17 3 7.84v150q0 4.68-3.23 7.84t-8 3.16Zm110 0q-4.77 0-7.77-3.16t-3-7.84v-87q0-4.68 3.04-7.84 3.03-3.16 8-3.16 4.96 0 7.96 3.16t3 7.84v87q0 4.68-3.23 7.84t-8 3.16ZM710-154H524h186Zm-524-98q-22.77 0-38.39-15.61Q132-283.23 132-306v-428q0-22.78 15.61-38.39Q163.23-788 186-788h548q22.78 0 38.39 15.61T788-734v126q0 4.67-3.23 7.84-3.23 3.16-8 3.16t-7.77-3.16q-3-3.17-3-7.84v-126q0-12-10-22t-22-10H186q-12 0-22 10t-10 22v428q0 12 10 22t22 10h81q4.68 0 7.84 3.23t3.16 8q0 4.77-3.16 7.77t-7.84 3h-81Z"/></svg>