<svg xmlns="http://www.w3.org/2000/svg" height="40" viewBox="0 -960 960 960" width="40"><path d="M389.33-42.67 330-102l44.67-44.67H180v-84h196l-46-46L389.33-336l147 146.33-147 147Zm172-104v-84H780v84H561.33Zm-81.57-376q-51.76 0-87.76-36.23-36-36.24-36-88 0-51.77 36.24-87.77 36.23-36 88-36 51.76 0 87.76 36.24 36 36.23 36 88 0 51.76-36.24 87.76-36.23 36-88 36ZM180-270.67V-900h600v217.33h43.67v191.34H780v220.66H501.67l-112.34-113-113 113H180Zm84-162Q317.33-456 371.33-468t108.34-12q54.33 0 108.49 12 54.17 12 107.84 35.33V-816H264v383.33Z"/></svg>