<svg xmlns="http://www.w3.org/2000/svg" height="48" width="48"><path d="M12.35 7.9H38.8q1.3 0 2.3 1 1 1 1 2.3v26.45l-3.3-3.3V11.2H15.65Zm21.2 19.35v-.35q0-.25.175-.425t.425-.175h.9q.3 0 .525.225.225.225.225.525v1.05q0 .6-.45.975t-1.05.325h-.45l-2.15-2.15Zm-5.6-9.15h6.2q.65 0 1.15.5.5.5.5 1.15v1.4q0 .3-.225.525-.225.225-.575.225h-.95q-.35 0-.575-.225-.225-.225-.225-.575v-.5H28.7v3.7l-2.4-2.45v-2.3q.1-.6.55-1.025.45-.425 1.1-.425Zm-.7 4.65Zm-6.3 2.3Zm-2.7-6.95 2.5 2.5h-5.9v6.8h4.85v-.55q0-.3.225-.525.225-.225.525-.225h1q.3 0 .55.225.25.225.25.525v1.35q0 .7-.5 1.175-.5.475-1.15.475h-6.7q-.65 0-1.15-.475-.5-.475-.5-1.175v-8.45q0-.65.5-1.15.5-.5 1.15-.5Zm-10-10 3.1 3.1H9.2v25.6h23.4L2.65 6.75q-.5-.4-.5-1.025 0-.625.45-1.075.5-.45 1.125-.45t1.075.45l38.05 38q.45.5.45 1.1 0 .6-.45 1.05-.5.45-1.125.45t-1.075-.45l-4.75-4.75H9.2q-1.3 0-2.275-.975Q5.95 38.1 5.95 36.8V11.2q0-1.05.65-1.9.65-.85 1.65-1.2Z"/></svg>