<svg xmlns="http://www.w3.org/2000/svg" height="40" viewBox="0 -960 960 960" width="40"><path d="M364.31-408.97h-98.72q-9.22 0-15.25 6.08-6.03 6.08-6.03 15.38t6.03 15.33q6.03 6.03 15.25 6.03h109.54q13.6 0 22.8-9.2 9.2-9.2 9.2-22.8v-163.29q0-13.77-9.2-23.09t-22.8-9.32h-98.82q-13.83 0-22.91 9.32-9.09 9.32-9.09 23.09v65.65q0 13.82 9.09 22.91 9.08 9.08 22.91 9.08h88v54.83Zm-77.18-86.82v-65.65h77.18v65.65h-77.18Zm218.79 37.33 81.49 85.49q1.7 2.32 15.08 6.82 13.64 0 19.16-12.8 5.53-12.79-3.68-22.61l-75.69-79.21 76.03-79.05q9.46-9.69 3.74-21.86-5.72-12.17-19.18-12.17-4.29 0-7.77 1.86-3.48 1.86-6.92 4.96l-82.26 84.72v-70.25q0-9.23-6.12-15.26-6.12-6.03-15.47-6.03-9.25 0-15.24 6.03t-5.99 15.26v184.87q0 9.33 6.09 15.43 6.08 6.11 15.38 6.11t15.33-6.11q6.02-6.1 6.02-15.43v-70.77Zm166.54-5.34v43.55q0 7.33 5.31 12.63 5.31 5.31 12.38 5.31 7.08 0 12.39-5.31 5.31-5.3 5.31-12.63v-43.55h46.1q6.72 0 11.26-4.9 4.53-4.9 4.53-11.43 0-6.54-4.53-11.1-4.54-4.56-11.26-4.56h-46.1v-44.34q0-6.95-5.31-12.25-5.31-5.31-12.39-5.31-7.07 0-12.38 5.31-5.31 5.3-5.31 12.25v44.34h-45.69q-6.72 0-11.26 4.52-4.54 4.53-4.54 11.14t4.87 11.47q4.86 4.86 11.34 4.86h45.28ZM202.56-140q-25.78 0-44.17-18.39T140-202.56v-554.88q0-25.78 18.39-44.17T202.56-820h554.88q25.78 0 44.17 18.39T820-757.44v554.88q0 25.78-18.39 44.17T757.44-140H202.56Z"/></svg>