<svg xmlns="http://www.w3.org/2000/svg" height="20" width="20"><path d="M8.354 17.792Q7.417 17.188 6.385 16.792Q5.354 16.396 4.25 16.208Q3.438 16.083 2.896 15.51Q2.354 14.938 2.354 14.188V9.125Q2.354 8.312 2.948 7.792Q3.542 7.271 4.292 7.396Q5.792 7.667 7.25 8.323Q8.708 8.979 10 9.896Q11.292 8.979 12.75 8.312Q14.208 7.646 15.708 7.375Q16.458 7.25 17.052 7.781Q17.646 8.312 17.646 9.125V14.188Q17.646 14.938 17.104 15.51Q16.562 16.083 15.75 16.208Q14.646 16.396 13.615 16.792Q12.583 17.188 11.646 17.792Q10.938 18.271 10.01 18.271Q9.083 18.271 8.354 17.792ZM10 16.375Q11.188 15.479 12.562 14.896Q13.938 14.312 15.458 14.083V9.667Q14.104 9.854 12.76 10.583Q11.417 11.312 10 12.604Q8.604 11.333 7.271 10.615Q5.938 9.896 4.542 9.667V14.083Q6.021 14.292 7.396 14.875Q8.771 15.458 10 16.375ZM10 7.583Q8.562 7.583 7.562 6.573Q6.562 5.562 6.562 4.125Q6.562 2.708 7.562 1.688Q8.562 0.667 10 0.667Q11.438 0.667 12.438 1.688Q13.438 2.708 13.438 4.146Q13.438 5.583 12.438 6.583Q11.438 7.583 10 7.583ZM10 5.562Q10.604 5.562 11.031 5.146Q11.458 4.729 11.458 4.146Q11.458 3.542 11.031 3.115Q10.604 2.688 10 2.688Q9.396 2.688 8.969 3.115Q8.542 3.542 8.542 4.125Q8.542 4.729 8.969 5.146Q9.396 5.562 10 5.562ZM10.021 4.146Q10.021 4.146 10.021 4.146Q10.021 4.146 10.021 4.146Q10.021 4.146 10.021 4.146Q10.021 4.146 10.021 4.146Q10.021 4.146 10.021 4.146Q10.021 4.146 10.021 4.146Q10.021 4.146 10.021 4.146Q10.021 4.146 10.021 4.146ZM10 13Q10 13 10 13Q10 13 10 13Q10 13 10 13Q10 13 10 13Q10 13 10 13Q10 13 10 13Q10 13 10 13Q10 13 10 13Z"/></svg>