<svg xmlns="http://www.w3.org/2000/svg" height="40" width="40"><path d="M17.667 36.25Q15.375 34.625 12.812 33.604Q10.25 32.583 7.542 32.25Q6.333 32.083 5.521 31.229Q4.708 30.375 4.708 29.208V17.167Q4.708 15.792 5.667 14.917Q6.625 14.042 7.917 14.25Q11.125 14.792 14.229 16.354Q17.333 17.917 20 20.208Q22.667 17.917 25.75 16.354Q28.833 14.792 32.125 14.25Q33.375 14.042 34.333 14.917Q35.292 15.792 35.292 17.167V29.208Q35.292 30.375 34.479 31.229Q33.667 32.083 32.458 32.25Q29.75 32.583 27.188 33.604Q24.625 34.625 22.333 36.25Q21.333 36.958 20 36.958Q18.667 36.958 17.667 36.25ZM20.083 14.667Q17.292 14.667 15.354 12.729Q13.417 10.792 13.417 8Q13.417 5.208 15.354 3.271Q17.292 1.333 20.083 1.333Q22.875 1.333 24.812 3.271Q26.75 5.208 26.75 8Q26.75 10.792 24.812 12.729Q22.875 14.667 20.083 14.667Z"/></svg>