<svg xmlns="http://www.w3.org/2000/svg" height="20" viewBox="0 -960 960 960" width="20"><path d="M202.5-200.5q-21.14 0-35.32-14.18T153-249.8v-412.4q0-20.94 14.18-35.12 14.18-14.18 35.1-14.18h555.44q20.92 0 35.1 14.18T807-662v166.5h-17.5V-662q0-12-10-22t-22-10H489v198.5h-17.5V-694h-269q-12 0-22 10t-10 22v412q0 12 10 22t22 10h257v17.5h-257Zm368 47.5q-8.96 0-14.98-6.02t-6.02-15.09V-289.5H567v119h198.5v-119H783v115.39q0 9.07-6.06 15.09T762.5-153h-192Zm-48-115.5q-8.28 0-13.14-7.54-4.86-7.54-2.86-16.96l18-96q0-7.5 6.33-12.25 6.34-4.75 14.67-4.75h242q7.93 0 14.22 4.75Q808-396.5 808-389l18 96q2 7.42-2.98 15.96-4.97 8.54-12.52 8.54h-288Zm.5-17.5h287l-19.5-102.5h-248L523-286Zm-285.5-30h167v-17.5h-167v17.5Zm0-131h167v-17.5h-167v17.5Zm0-131h167v-17.5h-167v17.5Zm312 0v-17.5H717v17.5H549.5Zm-379 360v-476 476Z"/></svg>