<svg xmlns="http://www.w3.org/2000/svg" height="20" viewBox="0 -960 960 960" width="20"><path d="M158.17-87.12q0-21.64 15.42-37.1 15.42-15.45 37.15-15.45h538.21q21.72 0 37.3 15.24 15.58 15.25 15.58 36.89 0 21.89-15.42 37.34-15.42 15.46-37.15 15.46H211.05q-21.72 0-37.3-15.25-15.58-15.24-15.58-37.13Zm62.26-329.01q-33.15 0-47.72-30.03-14.58-30.04 6.09-55.71l129.77-166.76 75.26 75.02-56.74 72.31h98.21v206.6h109.4v-127.8l105.17 105.17v75.22q0 21.74-15.41 37.16-15.42 15.43-37.14 15.43H373q-21.72 0-37.29-15.43-15.58-15.42-15.58-37.16v-154.02h-99.7Zm300.44-420.83 264.15 339.87q19.72 24.72 4.66 52.84-15.05 28.12-46.53 28.12H725.2q-21.07 0-36.83-9.52-15.76-9.52-26.52-24.56-5.37-9.66-8.68-20.64-3.31-10.98.57-25.58h3.33L480-719.3l-15.3 20.87q-14.53 17.6-37.34 18.8-22.82 1.2-39.49-15.48-13.96-13.96-14.46-33.77-.5-19.82 11.22-35.77l54.5-72.31q15.76-20.43 40.77-20.43 25.01 0 40.97 20.43ZM742.11-98.57 103.15-736.76q-14.76-14.43-14.88-34.1-.12-19.66 14.88-34.66 14.76-14.76 34.43-14.76t34.33 14.76l638.96 639.19q14.76 14.4 14.88 33.58.12 19.18-14.88 34.18-14.76 15-34.43 15-19.66 0-34.33-15ZM495.83-587.15Zm-110.31 133Z"/></svg>