<svg xmlns="http://www.w3.org/2000/svg" version="1.1" width="3300" height="2000"><g id="Notes"><style>
    text {
      font-family: monospace;
      text-anchor: middle;
    }
    text.emphasis {
      font-weight:bold;
    }
    text.lanchor {
      text-anchor: start;
    }
  </style><rect height="2200" id="artboard" fill="white" width="3300" x="0" y="0"/><line id="" style="fill:none;stroke:black;stroke-width:0.5;" x1="263" x2="3036" y1="292" y2="292"/><text class="lanchor emphasis" transform="matrix(1 0 0 1 263 322)">Weight/Scale Variations</text><text transform="matrix(1 0 0 1 559.711 322)">Ultralight</text><text transform="matrix(1 0 0 1 856.422 322)">Thin</text><text transform="matrix(1 0 0 1 1153.13 322)">Light</text><text transform="matrix(1 0 0 1 1449.84 322)">Regular</text><text transform="matrix(1 0 0 1 1746.56 322)">Medium</text><text transform="matrix(1 0 0 1 2043.27 322)">Semibold</text><text transform="matrix(1 0 0 1 2339.98 322)">Bold</text><text transform="matrix(1 0 0 1 2636.69 322)">Heavy</text><text transform="matrix(1 0 0 1 2933.4 322)">Black</text><text id="template-version" style="text-anchor: end;" transform="matrix(1 0 0 1 3036 1933)">Template v.1.0</text><text class="lanchor" transform="matrix(1 0 0 1 263 726)">Small</text><text class="lanchor" transform="matrix(1 0 0 1 263 1156)">Medium</text><text class="lanchor" transform="matrix(1 0 0 1 263 1586)">Large</text></g><g id="Guides"><g id="H-reference" style="fill:#27AAE1;stroke:none;" transform="matrix(1 0 0 1 339 696)"><path d="M 54.9316 0 L 57.666 0 L 30.5664 -70.459 L 28.0762 -70.459 L 0.976562 0 L 3.66211 0 L 12.9395 -24.4629 L 45.7031 -24.4629 Z M 29.1992 -67.0898 L 29.4434 -67.0898 L 44.8242 -26.709 L 13.8184 -26.709 Z"/></g><line id="Baseline-S" style="fill:none;stroke:#27AAE1;opacity:1;stroke-width:0.577;" x1="263" x2="3036" y1="696" y2="696"/><line id="Capline-S" style="fill:none;stroke:#27AAE1;opacity:1;stroke-width:0.577;" x1="263" x2="3036" y1="625.541" y2="625.541"/><g id="H-reference" style="fill:#27AAE1;stroke:none;" transform="matrix(1 0 0 1 339 1126)"><path d="M 54.9316 0 L 57.666 0 L 30.5664 -70.459 L 28.0762 -70.459 L 0.976562 0 L 3.66211 0 L 12.9395 -24.4629 L 45.7031 -24.4629 Z M 29.1992 -67.0898 L 29.4434 -67.0898 L 44.8242 -26.709 L 13.8184 -26.709 Z"/></g><line id="Baseline-M" style="fill:none;stroke:#27AAE1;opacity:1;stroke-width:0.577;" x1="263" x2="3036" y1="1126" y2="1126"/><line id="Capline-M" style="fill:none;stroke:#27AAE1;opacity:1;stroke-width:0.577;" x1="263" x2="3036" y1="1055.54" y2="1055.54"/><g id="H-reference" style="fill:#27AAE1;stroke:none;" transform="matrix(1 0 0 1 339 1556)"><path d="M 54.9316 0 L 57.666 0 L 30.5664 -70.459 L 28.0762 -70.459 L 0.976562 0 L 3.66211 0 L 12.9395 -24.4629 L 45.7031 -24.4629 Z M 29.1992 -67.0898 L 29.4434 -67.0898 L 44.8242 -26.709 L 13.8184 -26.709 Z"/></g><line id="Baseline-L" style="fill:none;stroke:#27AAE1;opacity:1;stroke-width:0.577;" x1="263" x2="3036" y1="1556" y2="1556"/><line id="Capline-L" style="fill:none;stroke:#27AAE1;opacity:1;stroke-width:0.577;" x1="263" x2="3036" y1="1485.54" y2="1485.54"/><rect height="119.336" id="left-margin" style="fill:darkred;stroke:none;opacity:0.4;" width="12.4512" x="1394.06" y="1030.79"/><rect height="119.336" id="right-margin" style="fill:darkgreen;stroke:none;opacity:0.4;" width="12.4512" x="1502.5112" y="1030.79"/><rect x="1406.5112" y="1045" width="96" height="96" fill="none" stroke="blue" stroke-dasharray="5"/><rect x="1394.06" y="1030.79" width="120.9024" height="119.336" fill="none" stroke="blue"/></g><g id="Symbols"><g id="Bold-L" transform="matrix(1 0 0 1 2266 1556)"><path d="M138.917 26.126 H16.044 V-96.747 H138.917 V26.126 Z M82.076 -30.634 V11.371 H124.001 V-30.634 H82.076 Z M82.076 -39.906 H124.001 V-81.831 H82.076 V-39.906 Z M72.804 -39.906 V-81.831 H30.799 V-39.906 H72.804 Z M72.804 -30.634 H30.799 V11.371 H72.804 V-30.634 Z"/></g><g id="Semibold-L" transform="matrix(1 0 0 1 1970.27 1556)"><path d="M137.095 24.373 H17.797 V-94.925 H137.095 V24.373 Z M82.076 -30.634 V12.002 H124.632 V-30.634 H82.076 Z M82.076 -39.906 H124.632 V-82.462 H82.076 V-39.906 Z M72.804 -39.906 V-82.462 H30.168 V-39.906 H72.804 Z M72.804 -30.634 H30.168 V12.002 H72.804 V-30.634 Z"/></g><g id="Medium-L" transform="matrix(1 0 0 1 1674.31 1556)"><path d="M135.727 23.059 H19.111 V-93.557 H135.727 V23.059 Z M82.076 -30.634 V12.476 H125.106 V-30.634 H82.076 Z M82.076 -39.906 H125.106 V-82.936 H82.076 V-39.906 Z M72.804 -39.906 V-82.936 H29.694 V-39.906 H72.804 Z M72.804 -30.634 H29.694 V12.476 H72.804 V-30.634 Z"/></g><g id="Regular-L" transform="matrix(1 0 0 1 1378.56 1556)"><path d="M134.724 22.094 H20.076 V-92.554 H134.724 V22.094 Z M82.076 -30.634 V12.823 H125.453 V-30.634 H82.076 Z M82.076 -39.906 H125.453 V-83.282 H82.076 V-39.906 Z M72.804 -39.906 V-83.282 H29.348 V-39.906 H72.804 Z M72.804 -30.634 H29.348 V12.823 H72.804 V-30.634 Z"/></g><g id="Light-L" transform="matrix(1 0 0 1 1082.77 1556)"><path d="M131.778 19.148 H23.022 V-89.608 H131.778 V19.148 Z M80.991 -31.75 V12.078 H124.708 V-31.75 H80.991 Z M80.991 -38.821 H124.708 V-82.538 H80.991 V-38.821 Z M73.92 -38.821 V-82.538 H30.092 V-38.821 H73.92 Z M73.92 -31.75 H30.092 V12.078 H73.92 V-31.75 Z"/></g><g id="Thin-L" transform="matrix(1 0 0 1 787.282 1556)"><path d="M128.832 16.202 H25.968 V-86.662 H128.832 V16.202 Z M79.906 -32.868 V11.334 H123.964 V-32.868 H79.906 Z M79.906 -37.736 H123.964 V-81.794 H79.906 V-37.736 Z M75.038 -37.736 V-81.794 H30.836 V-37.736 H75.038 Z M75.038 -32.868 H30.836 V11.334 H75.038 V-32.868 Z"/></g><g id="Ultralight-L" transform="matrix(1 0 0 1 491.205 1556)"><path d="M127.065 14.435 H27.735 V-84.895 H127.065 V14.435 Z M79.254 -33.537 V10.888 H123.517 V-33.537 H79.254 Z M79.254 -37.084 H123.517 V-81.347 H79.254 V-37.084 Z M75.707 -37.084 V-81.347 H31.283 V-37.084 H75.707 Z M75.707 -33.537 H31.283 V10.888 H75.707 V-33.537 Z"/></g><g id="Bold-M" transform="matrix(1 0 0 1 2281.8 1126)"><path d="M108.125 12.895 H11.875 V-83.355 H108.125 V12.895 Z M64.688 -30.542 V-2.23 H93 V-30.542 H64.688 Z M64.688 -39.917 H93 V-68.23 H64.688 V-39.917 Z M55.312 -39.917 V-68.23 H27 V-39.917 H55.312 Z M55.312 -30.542 H27 V-2.23 H55.312 V-30.542 Z"/></g><g id="Semibold-M" transform="matrix(1 0 0 1 1985.97 1126)"><path d="M106.278 11.048 H13.723 V-81.507 H106.278 V11.048 Z M64.688 -30.542 V-1.577 H93.653 V-30.542 H64.688 Z M64.688 -39.917 H93.653 V-68.882 H64.688 V-39.917 Z M55.312 -39.917 V-68.882 H26.348 V-39.917 H55.312 Z M55.312 -30.542 H26.348 V-1.577 H55.312 V-30.542 Z"/></g><g id="Medium-M" transform="matrix(1 0 0 1 1689.91 1126)"><path d="M104.891 9.661 H15.109 V-80.121 H104.891 V9.661 Z M64.688 -30.542 V-1.089 H94.141 V-30.542 H64.688 Z M64.688 -39.917 H94.141 V-69.371 H64.688 V-39.917 Z M55.312 -39.917 V-69.371 H25.859 V-39.917 H55.312 Z M55.312 -30.542 H25.859 V-1.089 H55.312 V-30.542 Z"/></g><g id="Regular-M" transform="matrix(1 0 0 1 1394.06 1126)"><path d="M103.875 8.645 H16.125 V-79.105 H103.875 V8.645 Z M64.688 -30.542 V-0.73 H94.5 V-30.542 H64.688 Z M64.688 -39.917 H94.5 V-69.73 H64.688 V-39.917 Z M55.312 -39.917 V-69.73 H25.5 V-39.917 H55.312 Z M55.312 -30.542 H25.5 V-0.73 H55.312 V-30.542 Z"/></g><g id="Light-M" transform="matrix(1 0 0 1 1098.18 1126)"><path d="M101.591 6.361 H18.409 V-76.821 H101.591 V6.361 Z M63.51 -31.745 V-0.634 H94.596 V-31.745 H63.51 Z M63.51 -38.74 H94.596 V-69.826 H63.51 V-38.74 Z M56.515 -38.74 V-69.826 H25.404 V-38.74 H56.515 Z M56.515 -31.745 H25.404 V-0.634 H56.515 V-31.745 Z"/></g><g id="Thin-M" transform="matrix(1 0 0 1 802.565 1126)"><path d="M99.308 4.078 H20.692 V-74.537 H99.308 V4.078 Z M62.331 -32.946 V-0.537 H94.692 V-32.946 H62.331 Z M62.331 -37.561 H94.692 V-69.922 H62.331 V-37.561 Z M57.716 -37.561 V-69.922 H25.308 V-37.561 H57.716 Z M57.716 -32.946 H25.308 V-0.537 H57.716 V-32.946 Z"/></g><g id="Ultralight-M" transform="matrix(1 0 0 1 506.415 1126)"><path d="M97.938 2.708 H22.062 V-73.167 H97.938 V2.708 Z M61.625 -33.667 V-0.48 H94.75 V-33.667 H61.625 Z M61.625 -36.855 H94.75 V-69.98 H61.625 V-36.855 Z M58.438 -36.855 V-69.98 H25.25 V-36.855 H58.438 Z M58.438 -33.667 H25.25 V-0.48 H58.438 V-33.667 Z"/></g><g id="Bold-S" transform="matrix(1 0 0 1 2294.23 696)"><path d="M82.944 0.374 H11.736 V-70.834 H82.944 V0.374 Z M50.644 -31.926 V-10.771 H71.799 V-31.926 H50.644 Z M50.644 -38.534 H71.799 V-59.689 H50.644 V-38.534 Z M44.036 -38.534 V-59.689 H22.881 V-38.534 H44.036 Z M44.036 -31.926 H22.881 V-10.771 H44.036 V-31.926 Z"/></g><g id="Semibold-S" transform="matrix(1 0 0 1 1998.1 696)"><path d="M81.486 -1.084 H13.194 V-69.376 H81.486 V-1.084 Z M50.644 -31.926 V-10.256 H72.314 V-31.926 H50.644 Z M50.644 -38.534 H72.314 V-60.204 H50.644 V-38.534 Z M44.036 -38.534 V-60.204 H22.366 V-38.534 H44.036 Z M44.036 -31.926 H22.366 V-10.256 H44.036 V-31.926 Z"/></g><g id="Medium-S" transform="matrix(1 0 0 1 1701.85 696)"><path d="M80.392 -2.178 H14.288 V-68.282 H80.392 V-2.178 Z M50.644 -31.926 V-9.871 H72.699 V-31.926 H50.644 Z M50.644 -38.534 H72.699 V-60.589 H50.644 V-38.534 Z M44.036 -38.534 V-60.589 H21.981 V-38.534 H44.036 Z M44.036 -31.926 H21.981 V-9.871 H44.036 V-31.926 Z"/></g><g id="Regular-S" transform="matrix(1 0 0 1 1405.73 696)"><path d="M79.59 -2.98 H15.09 V-67.48 H79.59 V-2.98 Z M50.644 -31.926 V-9.587 H72.983 V-31.926 H50.644 Z M50.644 -38.534 H72.983 V-60.872 H50.644 V-38.534 Z M44.036 -38.534 V-60.872 H21.698 V-38.534 H44.036 Z M44.036 -31.926 H21.698 V-9.587 H44.036 V-31.926 Z"/></g><g id="Light-S" transform="matrix(1 0 0 1 1109.75 696)"><path d="M77.788 -4.782 H16.892 V-65.678 H77.788 V-4.782 Z M49.715 -32.875 V-9.512 H73.058 V-32.875 H49.715 Z M49.715 -37.605 H73.058 V-60.948 H49.715 V-37.605 Z M44.985 -37.605 V-60.948 H21.622 V-37.605 H44.985 Z M44.985 -32.875 H21.622 V-9.512 H44.985 V-32.875 Z"/></g><g id="Thin-S" transform="matrix(1 0 0 1 814.015 696)"><path d="M75.987 -6.583 H18.693 V-63.877 H75.987 V-6.583 Z M48.785 -33.823 V-9.436 H73.134 V-33.823 H48.785 Z M48.785 -36.675 H73.134 V-61.024 H48.785 V-36.675 Z M45.933 -36.675 V-61.024 H21.546 V-36.675 H45.933 Z M45.933 -33.823 H21.546 V-9.436 H45.933 V-33.823 Z"/></g><g id="Ultralight-S" transform="matrix(1 0 0 1 517.792 696)"><path d="M74.906 -7.664 H19.774 V-62.796 H74.906 V-7.664 Z M48.228 -34.392 V-9.39 H73.18 V-34.392 H48.228 Z M48.228 -36.118 H73.18 V-61.07 H48.228 V-36.118 Z M46.502 -36.118 V-61.07 H21.5 V-36.118 H46.502 Z M46.502 -34.392 H21.5 V-9.39 H46.502 V-34.392 Z"/></g></g></svg>