<svg xmlns="http://www.w3.org/2000/svg" height="48" width="48"><path d="M30.3 46.85V42.3H34.4Q34.4 42.3 34.4 42.3Q34.4 42.3 34.4 42.3V10.05H13.65V25.05H9.05V5.65Q9.05 3.8 10.375 2.45Q11.7 1.1 13.65 1.1H34.4Q36.3 1.1 37.625 2.425Q38.95 3.75 38.95 5.65V42.3Q38.95 44.25 37.625 45.575Q36.3 46.9 34.4 46.85ZM9.05 46.85V40.5Q11.7 40.5 13.575 42.375Q15.45 44.25 15.45 46.85ZM19.4 46.85Q18.7 46.85 18.225 46.4Q17.75 45.95 17.55 45.2Q17.05 42.55 15.2 40.725Q13.35 38.9 10.75 38.4Q10 38.2 9.525 37.675Q9.05 37.15 9.05 36.45Q9.05 35.7 9.55 35.25Q10.05 34.8 10.8 34.95Q14.75 35.45 17.6 38.3Q20.45 41.15 21 45.1Q21.15 45.9 20.65 46.375Q20.15 46.85 19.4 46.85ZM25.15 46.85Q24.5 46.85 23.95 46.4Q23.4 45.95 23.35 45.25Q22.75 40.25 19.225 36.7Q15.7 33.15 10.7 32.55Q9.95 32.55 9.5 31.975Q9.05 31.4 9.05 30.75Q9.05 30 9.55 29.55Q10.05 29.1 10.75 29.15Q17.1 29.7 21.675 34.25Q26.25 38.8 26.8 45.2Q26.85 45.9 26.35 46.375Q25.85 46.85 25.15 46.85Z"/></svg>