<svg xmlns="http://www.w3.org/2000/svg" height="40" width="40"><path d="M5.5 35.833q-.542 0-.938-.395-.395-.396-.395-.938V22.917q0-.584.395-.959.396-.375.938-.375h5.458v-8.458q0-3.75 2.625-6.354T20 4.167h6.917q3.708 0 6.312 2.625t2.604 6.333v21.667q0 .458-.291.75-.292.291-.75.291-.459 0-.75-.291-.292-.292-.292-.75v-3.875h-8.208V34.5q0 .583-.438.958-.437.375-1.021.375Zm20.042-7h8.208V13.125q0-2.833-2-4.854T26.917 6.25H20q-2.875 0-4.917 2-2.041 2-2.041 4.875v8.458h11.041q.584 0 1.021.375.438.375.438.959Zm-7.417-12.875q-.458 0-.75-.312-.292-.313-.292-.771 0-.417.292-.729.292-.313.75-.313h10.542q.458 0 .75.313.291.312.291.771 0 .416-.291.729-.292.312-.75.312Zm-3.542 12.459q.125.083.271.083.146 0 .271-.083l8.333-4.75H6.25ZM6.25 33.75h17.208v-8.083l-7.291 4.166q-.292.167-.625.25-.334.084-.667.084-.375 0-.708-.084-.334-.083-.625-.25L6.25 25.667Zm0-10.083v.75-.021 1.521-.25 8.083-8.083.25-2.25Z"/></svg>