<svg xmlns="http://www.w3.org/2000/svg" height="48" viewBox="0 -960 960 960" width="48"><path d="M115.09-80.52q-15.1 0-25.59-10.43-10.48-10.42-10.48-25.43v-296.19q0-14.99 10.48-25.57 10.49-10.58 25.59-10.58h128.43V-649.5q0-97.43 69.18-164.82 69.17-67.4 167.3-67.4h172q96.1 0 162.66 68.06t66.56 164.16v535.91q0 14.18-9.63 23.62-9.62 9.45-23.2 9.45-14.15 0-23.6-9.45-9.44-9.44-9.44-23.62v-79.93H629.22v77.17q0 16.18-13.24 26-13.23 9.83-30.61 9.83H115.09ZM354-263.04 179.77-363.85q-12.06-6.5-23.59.25t-11.53 20.25q0 6.5 3.38 11.75t8.62 8.25L338.06-220.5q7.38 4.74 15.96 4.74 8.58 0 16.39-4.72l181.42-102.85q4.52-3.02 8.02-8.27t3.5-11.75q0-13.5-11.53-20.25t-23.13-.2L354-263.04Zm275.22 3.89h186.13v-390.39q0-68.74-47.2-117.53-47.19-48.78-116.15-48.78H480q-70.54 0-120.7 47.84-50.15 47.85-50.15 118.51v200.78h276.06q17.35 0 30.68 9.99 13.33 9.98 13.33 26.32v153.26ZM430-576.48q-12.5 0-20.75-8.25t-8.25-20.5q0-12.25 8.25-20.5t20.75-8.25h265q11.92 0 20.21 8.29 8.29 8.29 8.29 20.21 0 12.5-8.29 20.75T695-576.48H430Z"/></svg>