<svg xmlns="http://www.w3.org/2000/svg" height="20" viewBox="0 -960 960 960" width="20"><path d="M760.2-76.17q-20.86 0-31.51-18.92-10.65-18.91-3.65-38.61 14.61-40.08 21.33-82.04 6.72-41.96 7.41-84.48-46.39 68.79-118.6 107.18T480-154.65q-95.89 0-167.1-46.03-71.22-46.03-119.13-117.81-47.92-71.78-71.26-160.15-23.34-88.38-23.34-172.31 0-45.21 5.72-88.88 5.72-43.66 18.02-87.04 6.65-24.55 28.27-40.75 21.62-16.21 49.31-16.21 20.77 0 31.62 18.92 10.85 18.91 3.85 38.61-15.61 39.87-22.83 81.75-7.22 41.88-6.91 84.77 46.39-68.79 118.6-107.18T480-805.35q93.89 0 165.1 44.81 71.22 44.81 119.47 115.42 48.26 70.6 72.26 159.2 24 88.6 24 176.77 0 45.08-6.22 88.86t-17.52 87.16q-6.65 24.55-27.86 40.75-21.21 16.21-49.03 16.21ZM480.01-309.13q71.54 0 121.2-49.67 49.66-49.66 49.66-121.21 0-71.54-49.67-121.2-49.66-49.66-121.21-49.66-71.54 0-121.2 49.67-49.66 49.66-49.66 121.21 0 71.54 49.67 121.2 49.66 49.66 121.21 49.66Zm-.42-105.91q-26.63 0-45.59-19.37-18.96-19.37-18.96-46T434.41-526q19.37-18.96 46-18.96T526-525.59q18.96 19.37 18.96 46T525.59-434q-19.37 18.96-46 18.96Z"/></svg>