<svg xmlns="http://www.w3.org/2000/svg" height="20" width="20"><path d="M8 12.667q-.292 0-.479-.188-.188-.187-.188-.479v-1.333q.292 0 .479-.188Q8 10.292 8 10t-.188-.479q-.187-.188-.479-.188V8q0-.292.188-.479.187-.188.479-.188h4q.292 0 .479.188.188.187.188.479v1.333q-.292 0-.479.188Q12 9.708 12 10t.188.479q.187.188.479.188V12q0 .292-.188.479-.187.188-.479.188ZM10 9q.146 0 .24-.094.093-.094.093-.239 0-.146-.093-.24-.094-.094-.24-.094t-.24.094q-.093.094-.093.24 0 .145.093.239Q9.854 9 10 9Zm0 1.333q.146 0 .24-.093.093-.094.093-.24t-.093-.24q-.094-.093-.24-.093t-.24.093q-.093.094-.093.24t.093.24q.094.093.24.093Zm0 1.334q.146 0 .24-.094.093-.094.093-.24 0-.145-.093-.239Q10.146 11 10 11t-.24.094q-.093.094-.093.239 0 .146.093.24.094.094.24.094Zm-4.75 6.416V1.917h9.5v16.166Zm.667-2.75h8.166V4.667H5.917Zm0 2.084h8.166V16H5.917ZM5.917 4h8.166V2.583H5.917Zm0 0V2.583 4Zm0 13.417V16v1.417Z"/></svg>