<svg xmlns="http://www.w3.org/2000/svg" height="48" width="48"><path d="M24 20.4q-.5-.55-1.2-.875-.7-.325-1.5-.325-1.35 0-2.35.95t-1 2.35q0 1.1.6 2.075.6.975 2.8 3.125l1.75 1.6q.35.4.875.4t.925-.4l1.75-1.5q2.2-2.1 2.8-3.125.6-1.025.6-2.175 0-1.35-.975-2.325Q28.1 19.2 26.7 19.2q-.85 0-1.55.325-.7.325-1.15.875Zm0 21.35q-.2 0-.375-.025t-.275-.075q-5.8-2-9.575-7.45Q10 28.75 10 22.05V13.3q0-.85.5-1.575t1.3-1.075L23.05 6.5q.5-.2.95-.2.45 0 .95.2l11.25 4.15q.8.35 1.3 1.075T38 13.3v8.75q0 6.7-3.775 12.15T24.7 41.65q-.1.05-.7.1Zm0-1.5q5.45-1.7 8.95-6.825 3.5-5.125 3.5-11.375v-9q0-.3-.15-.525-.15-.225-.4-.325L24.6 8q-.35-.1-.6-.1t-.6.1l-11.3 4.2q-.25.1-.4.325-.15.225-.15.525v9q0 6.25 3.5 11.375T24 40.25Zm0-16.15Z"/></svg>