<svg xmlns="http://www.w3.org/2000/svg" height="48" viewBox="0 -960 960 960" width="48"><path d="M337.91-517.72q0 48.24 49.59 95.08 49.59 46.84 81.4 76.08 5.31 4.45 10.98 4.45 5.67 0 11.1-4.56 31.69-29.13 81.65-75.56 49.96-46.42 49.96-95.53 0-32.04-23.41-55.31-23.4-23.28-55.01-23.28-19.3 0-36.37 8.11-17.06 8.11-27.8 20.61-10.29-12.63-27.74-20.67-17.44-8.05-36.87-8.05-31.73 0-54.6 23.52-22.88 23.51-22.88 55.11ZM480-83.26q-6.12 0-11.03-1.37-4.92-1.37-9.6-3.11-138.7-46.5-219.77-168.65-81.08-122.15-81.08-266.95v-192.49q0-20.86 11.72-38.07 11.71-17.21 31.04-24.32L457.13-874q11.45-3.98 22.87-3.98 11.42 0 23.37 3.98l255.85 95.78q18.83 7.11 30.66 24.32 11.84 17.21 11.84 38.07v192.49q0 144.8-81.2 266.95-81.19 122.15-219.39 168.65-5.18 1.74-10.1 3.11-4.91 1.37-11.03 1.37Z"/></svg>