<svg xmlns="http://www.w3.org/2000/svg" height="20" viewBox="0 -960 960 960" width="20"><path d="M223.31-133q-38.62 0-64.47-25.84Q133-184.69 133-223.31v-367.38q0-38.62 25.84-64.47Q184.69-681 223.31-681h66.31q16.06 0 27.53 11.41 11.46 11.4 11.46 27.38 0 15.98-11.46 27.59Q305.68-603 289.62-603h-66.31q-5.39 0-8.85 3.46t-3.46 8.85v367.38q0 5.39 3.46 8.85t8.85 3.46h514.38q5.39 0 8.85-3.46t3.46-8.85v-367.38q0-5.39-3.46-8.85t-8.85-3.46h-65.31q-16.06 0-27.53-11.4-11.46-11.41-11.46-27.39t11.46-27.59Q656.32-681 672.38-681h65.31q38.62 0 64.47 25.84Q828-629.31 828-590.69v367.38q0 38.62-25.84 64.47Q776.31-133 737.69-133H223.31ZM520-480.77l27.92-27.92q12.31-12.31 28.25-12.5 15.93-.19 26.91 11.11 12.69 12.7 12.69 27.58 0 14.88-12.69 27.58l-91.91 91.9q-13.71 13.71-31.35 13.71-17.65 0-31.13-13.84l-91.77-91.77q-12.3-12.31-11.3-28.08 1-15.77 12.3-27.08 12.7-12.69 27.58-12.69 14.88 0 27.58 12.69L442-478.77v-397.25q0-16.06 11.41-27.52Q464.81-915 480.79-915q15.98 0 27.59 11.46Q520-892.08 520-876.02v395.25Z"/></svg>