<svg xmlns="http://www.w3.org/2000/svg" height="40" viewBox="0 -960 960 960" width="40"><path d="M282.974-304.257q-74.205 0-125.564-50.949-51.359-50.949-51.359-125.399 0-75.267 51.024-125.715 51.024-50.449 125.899-50.449 48.313 0 86.041 22 37.728 22 61.805 61.128h329.334q38.329 0 66.062 26.923 27.733 26.923 27.733 65.674 0 39.585-27.4 66.879-27.399 27.293-66.395 27.293H430.82q-24.077 38.615-61.805 60.615-37.728 22-86.041 22Zm.641-176.589Zm169.769 42.795h306.77q17.462 0 30.038-12.198 12.577-12.198 12.577-30.142t-12.718-30.007q-12.719-12.064-29.897-12.064h-306.77q3.59 9.519 5.052 21.005 1.461 11.487 1.461 21.201t-1.461 21.2q-1.462 11.486-5.052 21.005ZM282.19-355.436q52.066 0 88.631-36.168 36.564-36.169 36.564-88.791 0-52.067-36.332-88.631-36.333-36.564-88.236-36.564-52.18 0-88.883 36.332-36.703 36.332-36.703 88.235 0 52.737 36.446 89.162 36.447 36.425 88.513 36.425Z"/></svg>