<svg xmlns="http://www.w3.org/2000/svg" height="40" viewBox="0 -960 960 960" width="40"><path d="M640-446.67q-14.33 0-23.83-9.5-9.5-9.5-9.5-23.83 0-14.33 9.5-23.83 9.5-9.5 23.83-9.5h246.67q14.33 0 23.83 9.5 9.5 9.5 9.5 23.83 0 14.33-9.5 23.83-9.5 9.5-23.83 9.5H640Zm-463 99-46.33 123.34Q126.33-213 117-206.5q-9.33 6.5-21.33 6.5-20.34 0-31.5-16.83-11.17-16.84-3.84-35.5L247-734q5-12 15-19t22-7h32q12.33 0 22.17 7 9.83 7 14.83 19l187 482.67q7.33 18.66-4.17 35Q524.33-200 504.67-200q-12 0-22-6.67-10-6.66-14.34-18.66L423-347.67H177Zm25.67-69.66h194.66l-95.33-258h-4l-95.33 258Z"/></svg>