<svg xmlns="http://www.w3.org/2000/svg" height="40" viewBox="0 -960 960 960" width="40"><path d="M548.8-56.75V-194.7l224.46-223.07q9.61-10.81 22.62-15.64 13.01-4.82 26.02-4.82 14.2 0 27.32 5.02 13.12 5.03 23.75 15.44l37 38q10.62 10.44 15.46 23.08 4.85 12.64 4.85 26.04 0 13.71-5.45 27.05-5.45 13.33-15.47 23.78L686.75-56.75H548.8Zm310.4-274.08-37-37 37 37Zm-240 203h38l120.21-121.16-18-19.02-19-18.02L619.2-165.86v38.03ZM212.66-56.75q-36.14 0-62.7-26.56-26.56-26.56-26.56-62.7v-667.98q0-36.2 26.56-62.81t62.7-26.61h330.53L808.1-637.64v95.74h-89.42v-44.39H490.75v-227.7H212.66v667.98h269.47v89.26H212.66ZM510.51-480Zm248.9 211.97-19-18 37 37-18-19Z"/></svg>