<svg xmlns="http://www.w3.org/2000/svg" height="20" viewBox="0 -960 960 960" width="20"><path d="M262.09-87.87q-34.49 0-58.74-24.26-24.26-24.26-24.26-58.74v-618.26q0-34.48 24.26-58.74 24.25-24.26 58.74-24.26h312.48l196.78 196.78v180.68q-24.11 10.76-43.98 29.19-19.87 18.44-39.02 37.59L498.26-238.33v150.46H262.09Zm308.17 0v-119.7L781.7-418q7.97-8.13 17.68-11.78 9.71-3.65 19.42-3.65 10.51 0 20.11 3.85 9.6 3.86 17.48 11.58l44 45q7.31 7.98 11.37 17.68 4.07 9.71 4.07 19.43 0 9.95-3.66 19.83-3.65 9.87-11.78 17.76L689.96-87.87h-119.7Zm250.17-204.17 42.61-43.61-45-45-42.61 43.61 45 45ZM520.35-621.13h168l-168-168 168 168-168-168v168Z"/></svg>