<svg xmlns="http://www.w3.org/2000/svg" height="40" viewBox="0 -960 960 960" width="40"><path d="M632.11-82.82q-38.29 0-64.98-26.92-26.69-26.92-26.69-64.84 0-38.55 27.07-65.52 27.07-26.98 64.74-26.98 25.4 0 42.96-17.33 17.56-17.34 17.56-42.23 0-38.53 26.66-65.5 26.66-26.98 65.35-26.98 37.77 0 65.12 27.18 27.34 27.17 27.34 65.66 0 105.57-69.6 174.52-69.6 68.94-175.53 68.94ZM385.96-278.83q-44.17 0-74.43-30.35-30.26-30.35-30.26-74.5t30.35-75.27q30.35-31.11 74.48-31.11t75.39 31.27q31.27 31.27 31.27 75.18 0 44.04-31.21 74.41-31.2 30.37-75.59 30.37Zm-.37 157.95q-141.49 0-202.13-88.23-60.64-88.22-60.64-193.3 0-65.95 19.16-142.15 19.17-76.2 54.07-141.11 34.91-64.91 83.08-108.13 48.18-43.23 105.99-43.23 51.36 0 94.42 33.46 43.05 33.46 76.43 86.07 33.38 52.6 55.85 116.96 22.47 64.36 31.8 126.23-23.38 23.28-33.68 53.96-10.31 30.68-14.08 62.35-25.09 3.73-46.33 13.6-21.24 9.86-39.45 23.18 7.3-13.78 10.57-29.56 3.27-15.77 3.27-32.77 0-57.43-40.39-98.58-40.39-41.14-97.94-41.14-57.43 0-97.73 41.15-40.3 41.15-40.3 98.76 0 57.44 40.3 97.2 40.3 39.76 97.73 39.76 21.3 0 40.12-6.16 18.83-6.16 34.66-17.79-19.08 32.27-25.11 70.05-6.03 37.77 4.02 75.72-12.66 3.27-26 3.49-13.34.21-27.69.21Z"/></svg>