<svg xmlns="http://www.w3.org/2000/svg" height="40" viewBox="0 -960 960 960" width="40"><path d="M480.67-886.67q-64.34 0-123.84 21.34Q297.33-844 247.67-803l-47-47Q260-900 331.5-926.67q71.5-26.66 149.17-26.66 78 0 149.5 26.66 71.5 26.67 130.5 76.34 11.66 9.66 12.66 24 1 14.33-9 24.33-9.66 10-24 9.33-14.33-.66-26-9.66Q665-843 605.17-864.83q-59.84-21.84-124.5-21.84Zm0 160q-32 0-62.5 9.5t-56.84 27.84l-47.33-47q35.67-27.67 78-42.34 42.33-14.66 88.67-14.66 46.66 0 90 14.83 43.33 14.83 78.66 43.17 11 8.66 11.17 22 .17 13.33-9.83 23.33-9.67 9.67-23.67 9.83-14 .17-25.33-8.16-26.34-19-57-28.67-30.67-9.67-64-9.67ZM718-331.33 452.33-598q6.67-1.33 13.5-1.67 6.84-.33 14.17-.33 101 0 170.5 72T720-354q0 5.67-.33 11.33-.34 5.67-1.67 11.34Zm-104 84.66L369.33-491.33q-28.66 25-45.66 60.5-17 35.5-17 76.83 0 48.33 45.83 118.17Q398.33-166 480-89q44.33-41.67 78-81.5t56-76.17ZM480-11.33q-6 0-11.5-2.17T457.67-20q-33-29.67-71-67.5t-70.67-81q-32.67-43.17-54.33-90Q240-305.33 240-354q0-55.67 22-103.33Q284-505 321.67-539l-243-243Q69-791.67 69-805.67q0-14 9.67-23.66 9.66-9.67 23.66-9.67t23.67 9.67l702 702q9.67 9.66 9.33 23.33-.33 13.67-10 23.33Q817.67-71 804-71q-13.67 0-23.33-9.67L664.33-196.33q-33.33 51.33-75 93.5-41.66 42.16-87 82.83-5.33 4.33-10.83 6.5T480-11.33Zm0-295.34q-22.33 0-37.83-15.5T426.67-360q0-22.33 15.5-37.83t37.83-15.5q11.33 0 21 4.16 9.67 4.17 16.83 11.34 7.17 7.16 11.34 16.83 4.16 9.67 4.16 21 0 22.33-15.5 37.83T480-306.67Zm-19.33 16Z"/></svg>