<svg xmlns="http://www.w3.org/2000/svg" height="24" width="24"><path d="M16.8 22.3H7.2q-1.05 0-1.75-.7t-.7-1.75V4.15q0-1.05.7-1.75t1.75-.7h9.6q1.05 0 1.75.7t.7 1.75v15.7q0 1.05-.7 1.75t-1.75.7Zm0-2.15q.125 0 .213-.088.087-.087.087-.212V4.15q0-.125-.087-.213-.088-.087-.213-.087H7.2q-.125 0-.212.087-.088.088-.088.213v15.7q0 .125.088.212.087.088.212.088ZM12 8.95q.875 0 1.463-.588.587-.587.587-1.462t-.587-1.463Q12.875 4.85 12 4.85q-.875 0-1.462.587-.588.588-.588 1.463 0 .875.588 1.462.587.588 1.462.588Zm0 10.225q1.7 0 2.913-1.213 1.212-1.212 1.212-2.912t-1.212-2.913Q13.7 10.925 12 10.925q-1.7 0-2.912 1.212-1.213 1.213-1.213 2.913 0 1.7 1.213 2.912Q10.3 19.175 12 19.175Zm0-2.15q-.825 0-1.4-.575t-.575-1.4q0-.825.575-1.4t1.4-.575q.825 0 1.4.575t.575 1.4q0 .825-.575 1.4t-1.4.575ZM6.9 3.85v16.3-16.3Z"/></svg>