<svg xmlns="http://www.w3.org/2000/svg" height="48" width="48"><path d="M18 27.3v4.3q0 .75.55 1.3t1.35.55q.75 0 1.35-.55.6-.55.6-1.3v-4.3l3.95 2.35q.6.4 1.375.15t1.175-.95q.4-.65.175-1.425-.225-.775-.875-1.175L23.75 24l3.9-2.3q.65-.35.875-1.125.225-.775-.175-1.425-.4-.7-1.175-.925Q26.4 18 25.8 18.35l-3.95 2.35v-4.3q0-.75-.575-1.325T19.9 14.5q-.8 0-1.35.575T18 16.4v4.3l-4-2.35q-.65-.3-1.425-.075-.775.225-1.175.875-.4.7-.15 1.45t.95 1.1l3.85 2.3-3.85 2.25q-.7.4-.925 1.175-.225.775.175 1.425.4.7 1.15.925.75.225 1.45-.175ZM7.1 40.95q-1.65 0-2.9-1.275T2.95 36.8V11.2q0-1.65 1.25-2.925T7.1 7h25.55q1.7 0 2.95 1.275 1.25 1.275 1.25 2.925v10.4l6.35-6.35q.5-.55 1.175-.25.675.3.675.9v16.15q0 .7-.675.975T43.2 32.75l-6.35-6.35v10.4q0 1.6-1.25 2.875t-2.95 1.275Zm0-4.15h25.55V11.2H7.1v25.6Zm0 0V11.2v25.6Z"/></svg>