<svg xmlns="http://www.w3.org/2000/svg" height="20" viewBox="0 -960 960 960" width="20"><path d="M837.2-90q-15.97 0-27.58-11.48Q798-112.95 798-129v-703q0-16.05 11.42-27.52Q820.84-871 836.8-871q15.97 0 27.58 11.48Q876-848.05 876-832v703q0 16.05-11.42 27.52Q853.16-90 837.2-90Zm-715 0q-15.97 0-27.58-11.48Q83-112.95 83-129v-703q0-16.05 11.42-27.52Q105.84-871 121.8-871q15.97 0 27.58 11.48Q161-848.05 161-832v703q0 16.05-11.42 27.52Q138.16-90 122.2-90Zm427.95-483q-18.66 0-31.91-13.24Q505-599.49 505-618.15v-11.7q0-18.66 13.24-31.91Q531.49-675 550.15-675h126.7q18.66 0 31.91 13.24Q722-648.51 722-629.85v11.7q0 18.66-13.24 31.91Q695.51-573 676.85-573h-126.7Zm-269 0q-18.66 0-31.91-13.24Q236-599.49 236-618.15v-11.7q0-18.66 13.24-31.91Q262.49-675 281.15-675h126.7q18.66 0 31.91 13.24Q453-648.51 453-629.85v11.7q0 18.66-13.24 31.91Q426.51-573 407.85-573h-126.7Zm269 288q-18.66 0-31.91-13.24Q505-311.49 505-330.15v-11.7q0-18.66 13.24-31.91Q531.49-387 550.15-387h126.7q18.66 0 31.91 13.24Q722-360.51 722-341.85v11.7q0 18.66-13.24 31.91Q695.51-285 676.85-285h-126.7Zm-269 0q-18.66 0-31.91-13.24Q236-311.49 236-330.15v-11.7q0-18.66 13.24-31.91Q262.49-387 281.15-387h126.7q18.66 0 31.91 13.24Q453-360.51 453-341.85v11.7q0 18.66-13.24 31.91Q426.51-285 407.85-285h-126.7Z"/></svg>