<svg xmlns="http://www.w3.org/2000/svg" height="20" width="20"><path d="M10.146 5.333q-.708 0-1.219-.51-.51-.511-.51-1.219 0-.729.51-1.239.511-.511 1.219-.511.729 0 1.239.511.511.51.511 1.239 0 .708-.511 1.219-.51.51-1.239.51Zm5.792 13.959q-.376 0-.698-.042-.323-.042-.615-.146L1.396 14.792q-.292-.104-.427-.354-.136-.25-.052-.542.083-.271.354-.396.271-.125.541-.042l2.563.834.313-1.021-2.521-.833q-.292-.126-.427-.376-.136-.25-.032-.541.125-.292.365-.406.239-.115.552-.011l.542.188V9.167q0-.605.333-1.094.333-.49.875-.719l3.437-1.521q.209-.083.396-.114.188-.031.396-.031.896 0 1.313.697.416.698.166 1.427l-.875 2.563 1.646-.292q.584-.145 1.146.198.562.344.792.844l1.708 3.813.938.312q.27.083.406.354.135.271.052.542-.104.271-.344.416-.24.146-.552.042l-2.104-.687-.334 1.041 2.521.792q.167.062.396.094.229.031.459.031.708 0 1.302-.573.593-.573.593-1.281 0-.521-.218-.979-.219-.459-.698-.771-.25-.167-.355-.406-.104-.24-.02-.49.104-.313.416-.437.313-.126.646.062.75.417 1.198 1.208.448.792.448 1.813 0 1.312-.99 2.291-.989.98-2.322.98Zm-10.25-7.167q-.126-.271-.146-.604-.021-.333.083-.604l.813-2.396-1.396.625v2.75Zm5.52 4.396.354-1.042-5.52-1.75-.313 1.021Zm.813-2.354-.854-2.021-2.938.771Z"/></svg>