<svg xmlns="http://www.w3.org/2000/svg" height="48" viewBox="0 -960 960 960" width="48"><path d="M724.96-328Q694-328 672-350.04q-22-22.05-22-53Q650-434 672.04-456q22.05-22 53.5-22 29.46 0 51.96 22.04 22.5 22.05 22.5 53Q800-372 777.46-350q-22.55 22-52.5 22Zm-2.48 63q29.54 0 58.03 5.5Q809-254 837-241.57q22.78 10.29 39.89 28.07Q894-195.71 894-170q0 15.45-12.76 24.73Q868.48-136 853-136l-259 1q-15.5 0-26.75-9.27Q556-153.55 556-169q0-25.61 16.5-43.3 16.5-17.7 39.65-29.28Q638-254 664.84-259.5q26.83-5.5 57.64-5.5ZM189-95q-39.8 0-66.9-27.1Q95-149.2 95-189v-582q0-40.21 27.1-67.61Q149.2-866 189-866h582q40.21 0 67.61 27.39Q866-811.21 866-771v174q0 19-14 32.5T818-551q-20 0-33.5-13.63Q771-578.25 771-598v-173H189v390h134q14.57 0 28.78 5 14.22 5 22.65 18.25 8.89 13.62 20.73 25.19Q407-321 422-314q7 6 10 14.2 3 8.19 2 16.8-4 33 6 64.5t27.26 60.92Q480-137 465.75-116t-39.43 21H189Zm123-523h337q11.75 0 20.88-8.68 9.12-8.67 9.12-21.5 0-12.82-9.12-21.32-9.13-8.5-20.88-8.5H312q-12.75 0-21.37 8.68-8.63 8.67-8.63 21.5 0 12.82 8.63 21.32 8.62 8.5 21.37 8.5Zm.4 144h219.2q13.15 0 21.78-8.68 8.62-8.67 8.62-21.5 0-12.82-8.62-21.32-8.63-8.5-21.78-8.5H312.4q-13.15 0-21.77 8.68-8.63 8.67-8.63 21.5 0 12.82 8.63 21.32 8.62 8.5 21.77 8.5Z"/></svg>