<svg xmlns="http://www.w3.org/2000/svg" height="48" viewBox="0 -960 960 960" width="48"><path d="M113.69-55.39q-12.64 0-21.16-8.76Q84-72.92 84-84.96t8.53-20.43q8.52-8.38 21.16-8.38h733.62q11.67 0 20.18 8.58T876-84.57q0 12.05-8.51 20.61-8.51 8.57-20.18 8.57H113.69ZM199.85-173q-15.26 0-25.56-10.29Q164-193.59 164-208.85v-144.07q-41.23-94.31-57.81-158.22-16.57-63.9-16.57-122.94 0-46.84 12.15-108.96 12.15-62.11 41.61-130.54 7.24-18.8 21.53-29.8 14.28-11 32.47-11 20.31 0 29.89 15.77 9.57 15.76 11.71 42.91l3.56 127.62q.07 46.46 19.92 88.27 19.85 41.81 52.92 73.93 33.08 32.11 76.06 50.88 42.98 18.77 90.56 18.77 88.77 0 145.96 11.27 57.19 11.27 93.92 34.19 36.89 24.69 55.5 59.42Q796-356.62 796-310.69v101.84q0 15.26-10.28 25.56Q775.44-173 761.15-173h-561.3Zm22.54-58.39h515.22v-79.3q0-34.2-18-59.52-18-25.33-54.38-44.33-26.46-11.46-68.15-17.38-41.7-5.93-115.08-5.93-56.38 0-108.04-20.61-51.65-20.62-92.31-56.81-40.65-36.19-66.34-85-25.7-48.81-30.77-104.81v-95q-16.54 32.77-26.35 78.7-9.8 45.93-9.8 87.3 0 55.46 17.21 115.22 17.22 59.77 56.79 149.78v137.69ZM480.2-556.23q-61.95 0-105.57-43.42Q331-643.07 331-705.02q0-61.96 43.42-105.58 43.42-43.63 105.38-43.63 61.95 0 105.57 43.42Q629-767.39 629-705.43q0 61.95-43.42 105.58-43.42 43.62-105.38 43.62Zm-.01-58.38q37.5 0 63.96-26.65t26.46-64.16q0-37.5-26.64-63.96-26.65-26.46-64.16-26.46-37.5 0-63.96 26.64-26.46 26.65-26.46 64.16 0 37.5 26.64 63.97 26.65 26.46 64.16 26.46ZM334.08-173v-43.62q0-61.12 42.25-103.29 42.26-42.17 102.13-42.17h102.69q11.35 0 19.02 7.38 7.68 7.38 7.68 19.51 0 12.13-7.33 19.31-7.32 7.19-19.37 7.19H478.46q-38.07 0-64.54 27.01-26.46 27.02-26.46 65.06V-173h-53.38ZM482-231.39Zm-2-473.84Z"/></svg>