<svg xmlns="http://www.w3.org/2000/svg" height="24" viewBox="0 -960 960 960" width="24"><path d="M304.615-120Q277-120 258.5-138.5 240-157 240-184.615V-480q0-77.308 43.346-137 43.346-59.692 110.5-85.769V-720q0-36.154 25-61.154t61.154-25q36.154 0 61.154 25t25 61.154v17.231q67.154 26.077 110.5 85.769Q720-557.308 720-480v295.385Q720-157 701.5-138.5 683-120 655.385-120h-350.77ZM600-340q8.539 0 14.269-5.731Q620-351.461 620-360v-35.385q0-26.846-18.885-45.73Q582.231-460 555.385-460H360q-8.539 0-14.269 5.731Q340-448.539 340-440t5.731 14.269Q351.461-420 360-420h195.385q10.769 0 17.692 6.923T580-395.385V-360q0 8.539 5.731 14.269Q591.461-340 600-340ZM433.846-714.462q11.769-2.769 23.077-4.154Q468.231-720 480-720q11.769 0 23.077 1.384 11.308 1.385 23.077 4.154V-720q0-19.308-13.423-32.731-13.423-13.423-32.731-13.423t-32.731 13.423Q433.846-739.308 433.846-720v5.538Z"/></svg>