<svg xmlns="http://www.w3.org/2000/svg" height="20" viewBox="0 -960 960 960" width="20"><path d="M84.43-151q-18.64 0-32.03-13.25Q39-177.49 39-196.16v-567.68q0-18.67 13.24-31.91Q65.48-809 84.13-809h400.96q18.66 0 32.05 13.25 13.4 13.24 13.4 31.91v567.68q0 18.67-13.25 31.91Q504.05-151 485.38-151H320.85v-166.46h-72.16V-151H84.43ZM117-229h53.69v-166.46h228.16V-229h53.69v-502H117v502Zm53.69-220.15h87.23v-87.23h-87.23v87.23Zm0-140.93h87.23v-87.23h-87.23v87.23Zm140.93 140.93h87.23v-87.23h-87.23v87.23Zm0-140.93h87.23v-87.23h-87.23v87.23ZM170.69-229v-166.46h228.16V-229v-166.46H170.69V-229Zm454.93-250.8q0-15.97 11.47-27.58Q648.57-519 664.61-519h107.24l-46.93-46.92q-13.3-13.31-12.5-28.27.81-14.96 13-26.95 13.43-12.24 28.07-12.24t26.82 12.3l108.77 109.77q13.84 13.48 13.84 31.13 0 17.64-13.84 31.49L779.31-338.92q-12.21 12.18-27.03 11.05-14.82-1.13-26.74-12.05-13.69-13.31-12.81-28.77.89-15.46 14.19-27.39L771.85-441H664.61q-16.04 0-27.52-11.42-11.47-11.42-11.47-27.38Z"/></svg>