<svg xmlns="http://www.w3.org/2000/svg" height="40" viewBox="0 96 960 960" width="40"><path d="M768 691.333q-48.333 0-81.166-33.166Q654 625 654 576.667q0-48.334 32.834-81.5Q719.667 462 768 462q47.667 0 80.833 33.167Q882 528.333 882 576.667q0 48.333-33.167 81.5-33.166 33.166-80.833 33.166Zm-342.999-80.666H111.333q-14.333 0-24.166-9.834-9.834-9.833-9.834-24.166 0-14.334 9.834-24.167 9.833-9.833 24.166-9.833h313.668l-87.001-88q-9.666-9.667-9.833-23.167Q328 418 338 408q9.667-9.667 23.667-9.667 14 0 23.666 9.667L530 553.333q10 10 10 23.334Q540 590 530 600L384.667 746q-10 10-23.334 9.833Q348 755.667 338 745.667q-9-10-9.166-23.334Q328.667 709 338 699l87.001-88.333Z"/></svg>