<svg xmlns="http://www.w3.org/2000/svg" height="48" viewBox="0 -960 960 960" width="48"><path d="M510.3-355.52Zm-26.26 68.37ZM142.15-114.02q-28.35 0-48.24-19.89t-19.89-48.24v-105q0-28.45 19.89-48.41 19.89-19.96 48.24-19.96h56.07v-206.96q0-117.39 82.26-200.56 82.27-83.18 199.47-83.18t199.52 83.18q82.31 83.17 82.31 200.57v50.27q0 14.67-9.87 24.49-9.87 9.82-24.37 9.82-14.5 0-24.19-9.82-9.7-9.82-9.7-24.52v-50.25q0-89.72-62.04-152.54-62.04-62.83-151.61-62.83-89.57 0-151.61 62.94-62.04 62.95-62.04 151.93v207.46h211.89q14.67 0 23.87 10.01 9.19 10.01 9.19 24.49 0 14.48-9.82 24.17-9.82 9.7-24.24 9.7H142.15v105h336.09q14.67 0 23.87 9.87 9.19 9.87 9.19 24.37 0 14.5-9.82 24.19-9.82 9.7-24.24 9.7H142.15Zm585.91 66.11q-78.26 0-133.14-54.7-54.88-54.7-54.88-132.3 0-78.44 54.87-133.72t133.12-55.28q78.01 0 133.01 55.28 55 55.28 55 133.72 0 77.6-54.98 132.3-54.99 54.7-133 54.7ZM395.13-562.98q0-35.48 24.54-60.9Q444.22-649.3 480-649.3q13.64 0 23.02-9.28 9.37-9.27 9.37-23.01 0-13.73-9.37-22.99-9.38-9.27-23.02-9.27-62.8 0-106.23 44.54-43.42 44.55-43.42 106.83v80.81q0 13.7 9.44 22.93 9.44 9.22 23.17 9.22 13.74 0 22.95-9.22 9.22-9.23 9.22-22.93v-81.31Zm329.93 457q12.7 0 21.06-8.55 8.36-8.54 8.36-21.31t-8.53-21.13q-8.53-8.36-21.05-8.36-12.81 0-21.17 8.54-8.36 8.53-8.36 21.04 0 12.82 8.5 21.29 8.5 8.48 21.19 8.48Zm-2.38-81.11q8.6 0 15.08-6.36 6.48-6.35 6.48-15.19 0-7.64 6.5-17.14t15.23-17.66q15.4-12.83 25.19-25.81 9.8-12.99 9.8-33.91 0-32.39-22.19-52.29-22.18-19.9-56.26-19.9-21.57 0-39.69 10.28-18.11 10.29-29.69 27.44-5.24 7.72-1.65 15.62 3.6 7.9 12.22 11.46 7.39 3.55 14.48.43 7.1-3.12 12.58-9.84 5.12-7.76 13.6-11.64 8.48-3.88 18.35-3.88 16.39 0 26 8.19 9.62 8.19 9.62 24.09 0 10.77-7 19.38-7 8.62-15 16.28-7.76 6.63-15.86 14.11-8.1 7.47-13.1 15.91-4 7.32-5 13.83-1 6.5-1 15.17 0 8.72 6.36 15.07 6.36 6.36 14.95 6.36Z"/></svg>