<svg xmlns="http://www.w3.org/2000/svg" height="48" viewBox="0 -960 960 960" width="48"><path d="M324-194H115q-19.83 0-32.92-13.74Q69-221.47 69-240.24 69-259 82.08-272.5 95.17-286 115-286h209v-148H118q-19.83 0-32.92-13.74Q72-461.47 72-480.24 72-499 85.08-512.5 98.17-526 118-526h206v-148H115q-19.83 0-32.92-13.74Q69-701.47 69-720.24 69-739 82.08-752.5 95.17-766 115-766h209q38.67 0 64.83 26.83Q415-712.33 415-674v124.9q0 23.88-13 44.99Q389-483 367-478q22 5 35 24.11 13 19.12 13 42.99V-286q0 38.33-26.17 65.17Q362.67-194 324-194Zm269-92h207v-388H593v388Zm0 92q-38.67 0-64.83-26.83Q502-247.67 502-286v-388q0-38.33 26.17-65.17Q554.33-766 593-766h207q38.67 0 64.83 26.83Q891-712.33 891-674v388q0 38.33-26.17 65.17Q838.67-194 800-194H593Z"/></svg>