<svg xmlns="http://www.w3.org/2000/svg" height="24" viewBox="0 -960 960 960" width="24"><path d="M246-217q-12.25 0-20.62-8.38Q217-233.75 217-246v-278.02q0-12.48 8.38-20.73Q233.75-553 246-553h48q11.75 0 20.13 8.37 8.37 8.38 8.37 20.13v278.02q0 12.98-8.37 21.23Q305.75-217 294-217h-48Zm210 0q-12.25 0-20.37-8.38-8.13-8.37-8.13-20.62v-287L533-427.5V-246q0 12.25-8.37 20.62Q516.25-217 504-217h-48Zm77-319L427.5-641.5v-73q0-11.75 8.13-20.13Q443.75-743 456-743h48q12.25 0 20.63 8.37 8.37 8.38 8.37 20.13V-536Zm210 210-48.5-48.5v1.5h20q11.75 0 20.13 8.37 8.37 8.38 8.37 20.13v18.5Zm39.5 185L141-783q-3.5-3.5-4-8.5t4-9.5q4-4.5 8.75-4.5T159-801l642 641.5q3.5 3.5 3.75 8.75T801-141q-4.5 4.5-9.25 4.5t-9.25-4.5Z"/></svg>