<svg xmlns="http://www.w3.org/2000/svg" version="1.1" width="3300" height="2000"><g id="Notes"><style>
    text {
      font-family: monospace;
      text-anchor: middle;
    }
    text.emphasis {
      font-weight:bold;
    }
    text.lanchor {
      text-anchor: start;
    }
  </style><rect height="2200" id="artboard" fill="white" width="3300" x="0" y="0"/><line id="" style="fill:none;stroke:black;stroke-width:0.5;" x1="263" x2="3036" y1="292" y2="292"/><text class="lanchor emphasis" transform="matrix(1 0 0 1 263 322)">Weight/Scale Variations</text><text transform="matrix(1 0 0 1 559.711 322)">Ultralight</text><text transform="matrix(1 0 0 1 856.422 322)">Thin</text><text transform="matrix(1 0 0 1 1153.13 322)">Light</text><text transform="matrix(1 0 0 1 1449.84 322)">Regular</text><text transform="matrix(1 0 0 1 1746.56 322)">Medium</text><text transform="matrix(1 0 0 1 2043.27 322)">Semibold</text><text transform="matrix(1 0 0 1 2339.98 322)">Bold</text><text transform="matrix(1 0 0 1 2636.69 322)">Heavy</text><text transform="matrix(1 0 0 1 2933.4 322)">Black</text><text id="template-version" style="text-anchor: end;" transform="matrix(1 0 0 1 3036 1933)">Template v.1.0</text><text class="lanchor" transform="matrix(1 0 0 1 263 726)">Small</text><text class="lanchor" transform="matrix(1 0 0 1 263 1156)">Medium</text><text class="lanchor" transform="matrix(1 0 0 1 263 1586)">Large</text></g><g id="Guides"><g id="H-reference" style="fill:#27AAE1;stroke:none;" transform="matrix(1 0 0 1 339 696)"><path d="M 54.9316 0 L 57.666 0 L 30.5664 -70.459 L 28.0762 -70.459 L 0.976562 0 L 3.66211 0 L 12.9395 -24.4629 L 45.7031 -24.4629 Z M 29.1992 -67.0898 L 29.4434 -67.0898 L 44.8242 -26.709 L 13.8184 -26.709 Z"/></g><line id="Baseline-S" style="fill:none;stroke:#27AAE1;opacity:1;stroke-width:0.577;" x1="263" x2="3036" y1="696" y2="696"/><line id="Capline-S" style="fill:none;stroke:#27AAE1;opacity:1;stroke-width:0.577;" x1="263" x2="3036" y1="625.541" y2="625.541"/><g id="H-reference" style="fill:#27AAE1;stroke:none;" transform="matrix(1 0 0 1 339 1126)"><path d="M 54.9316 0 L 57.666 0 L 30.5664 -70.459 L 28.0762 -70.459 L 0.976562 0 L 3.66211 0 L 12.9395 -24.4629 L 45.7031 -24.4629 Z M 29.1992 -67.0898 L 29.4434 -67.0898 L 44.8242 -26.709 L 13.8184 -26.709 Z"/></g><line id="Baseline-M" style="fill:none;stroke:#27AAE1;opacity:1;stroke-width:0.577;" x1="263" x2="3036" y1="1126" y2="1126"/><line id="Capline-M" style="fill:none;stroke:#27AAE1;opacity:1;stroke-width:0.577;" x1="263" x2="3036" y1="1055.54" y2="1055.54"/><g id="H-reference" style="fill:#27AAE1;stroke:none;" transform="matrix(1 0 0 1 339 1556)"><path d="M 54.9316 0 L 57.666 0 L 30.5664 -70.459 L 28.0762 -70.459 L 0.976562 0 L 3.66211 0 L 12.9395 -24.4629 L 45.7031 -24.4629 Z M 29.1992 -67.0898 L 29.4434 -67.0898 L 44.8242 -26.709 L 13.8184 -26.709 Z"/></g><line id="Baseline-L" style="fill:none;stroke:#27AAE1;opacity:1;stroke-width:0.577;" x1="263" x2="3036" y1="1556" y2="1556"/><line id="Capline-L" style="fill:none;stroke:#27AAE1;opacity:1;stroke-width:0.577;" x1="263" x2="3036" y1="1485.54" y2="1485.54"/><rect height="119.336" id="left-margin" style="fill:darkred;stroke:none;opacity:0.4;" width="12.4512" x="1394.06" y="1030.79"/><rect height="119.336" id="right-margin" style="fill:darkgreen;stroke:none;opacity:0.4;" width="12.4512" x="1502.5112" y="1030.79"/><rect x="1406.5112" y="1045" width="96" height="96" fill="none" stroke="blue" stroke-dasharray="5"/><rect x="1394.06" y="1030.79" width="120.9024" height="119.336" fill="none" stroke="blue"/></g><g id="Symbols"><g id="Bold-L" transform="matrix(1 0 0 1 2266 1556)"><path d="M122.531 -71.834 Q114.581 -71.834 109.294 -77.307 Q104.006 -82.781 104.006 -90.739 Q104.006 -98.346 109.36 -103.795 Q114.715 -109.244 122.616 -109.244 Q130.519 -109.244 135.968 -103.756 Q141.416 -98.271 141.416 -90.581 Q141.416 -82.731 135.948 -77.282 Q130.48 -71.834 122.531 -71.834 Z M9.514 32.495 V-88.281 Q9.514 -94.343 13.853 -98.729 Q18.192 -103.116 24.188 -103.116 H93.525 Q92.074 -99.407 91.429 -95.699 Q90.784 -91.99 91.106 -88.281 Q91.913 -76.026 101.104 -67.561 Q110.295 -59.095 122.55 -59.095 Q129 -59.095 134.966 -61.514 Q140.933 -63.932 145.447 -69.092 V-7.495 Q145.447 -1.501 141.06 2.84 Q136.674 7.179 130.613 7.179 H34.83 L9.514 32.495 Z"/></g><g id="Semibold-L" transform="matrix(1 0 0 1 1970.27 1556)"><path d="M122.539 -71.764 Q114.581 -71.764 109.258 -77.226 Q103.937 -82.689 103.937 -90.652 Q103.937 -98.346 109.297 -103.795 Q114.657 -109.244 122.587 -109.244 Q130.519 -109.244 135.968 -103.774 Q141.416 -98.303 141.416 -90.563 Q141.416 -82.662 135.956 -77.213 Q130.496 -71.764 122.539 -71.764 Z M9.864 32.564 V-89.684 Q9.864 -95.123 13.869 -99.154 Q17.875 -103.186 23.276 -103.186 H93.525 Q92.143 -99.898 91.429 -96.505 Q90.714 -93.112 90.897 -89.684 Q91.211 -76.868 100.507 -67.946 Q109.805 -59.026 122.55 -59.026 Q128.86 -59.026 134.686 -61.373 Q140.512 -63.723 145.027 -68.531 V-7.285 Q145.027 -1.882 140.995 2.122 Q136.964 6.127 131.524 6.127 H36.302 L9.864 32.564 Z"/></g><g id="Medium-L" transform="matrix(1 0 0 1 1674.31 1556)"><path d="M122.545 -71.711 Q114.581 -71.711 109.232 -77.166 Q103.884 -82.621 103.884 -90.587 Q103.884 -98.346 109.248 -103.795 Q114.613 -109.244 122.566 -109.244 Q130.519 -109.244 135.968 -103.785 Q141.416 -98.327 141.416 -90.548 Q141.416 -82.608 135.963 -77.16 Q130.509 -71.711 122.545 -71.711 Z M10.127 32.618 V-90.735 Q10.127 -95.708 13.88 -99.474 Q17.634 -103.239 22.593 -103.239 H93.525 Q92.196 -100.267 91.429 -97.11 Q90.661 -93.952 90.739 -90.735 Q90.685 -77.498 100.06 -68.235 Q109.436 -58.972 122.55 -58.972 Q128.755 -58.972 134.476 -61.269 Q140.196 -63.565 144.711 -68.11 V-7.127 Q144.711 -2.169 140.947 1.585 Q137.182 5.339 132.207 5.339 H37.407 L10.127 32.618 Z"/></g><g id="Regular-L" transform="matrix(1 0 0 1 1378.56 1556)"><path d="M122.55 -71.672 Q114.581 -71.672 109.213 -77.121 Q103.845 -82.57 103.845 -90.539 Q103.845 -98.346 109.213 -103.795 Q114.581 -109.244 122.55 -109.244 Q130.519 -109.244 135.968 -103.795 Q141.416 -98.346 141.416 -90.539 Q141.416 -82.57 135.968 -77.121 Q130.519 -71.672 122.55 -71.672 Z M10.32 32.656 V-91.506 Q10.32 -96.137 13.89 -99.707 Q17.46 -103.277 22.091 -103.277 H93.525 Q92.235 -100.536 91.429 -97.553 Q90.623 -94.57 90.623 -91.506 Q90.3 -77.961 99.733 -68.447 Q109.166 -58.934 122.55 -58.934 Q128.678 -58.934 134.321 -61.191 Q139.965 -63.449 144.48 -67.802 V-7.011 Q144.48 -2.379 140.91 1.19 Q137.34 4.76 132.709 4.76 H38.216 L10.32 32.656 Z"/></g><g id="Light-L" transform="matrix(1 0 0 1 1082.77 1556)"><path d="M122.547 -70.245 Q115.078 -70.245 110.05 -75.357 Q105.024 -80.469 105.024 -87.938 Q105.024 -95.244 110.055 -100.352 Q115.086 -105.461 122.553 -105.461 Q130.022 -105.461 135.131 -100.349 Q140.238 -95.238 140.238 -87.93 Q140.238 -80.462 135.126 -75.354 Q130.014 -70.245 122.547 -70.245 Z M13.545 26.455 V-88.654 Q13.545 -93.209 16.967 -96.631 Q20.388 -100.052 24.944 -100.052 H94.58 Q93.414 -97.869 92.638 -95.507 Q91.863 -93.143 91.738 -90.637 Q90.982 -77.031 100.106 -67.269 Q109.228 -57.507 122.55 -57.507 Q127.747 -57.507 132.554 -59.3 Q137.359 -61.091 141.255 -64.639 V-9.864 Q141.255 -5.308 137.833 -1.887 Q134.412 1.535 129.856 1.535 H38.465 L13.545 26.455 Z"/></g><g id="Thin-L" transform="matrix(1 0 0 1 787.282 1556)"><path d="M122.542 -68.82 Q115.574 -68.82 110.888 -73.593 Q106.202 -78.368 106.202 -85.337 Q106.202 -92.145 110.895 -96.911 Q115.589 -101.678 122.558 -101.678 Q129.526 -101.678 134.292 -96.903 Q139.059 -92.129 139.059 -85.322 Q139.059 -78.353 134.286 -73.587 Q129.511 -68.82 122.542 -68.82 Z M16.77 20.253 V-85.801 Q16.77 -90.281 20.043 -93.554 Q23.317 -96.827 27.796 -96.827 H95.634 Q94.592 -95.202 93.847 -93.461 Q93.103 -91.717 92.856 -89.77 Q91.664 -76.1 100.478 -66.09 Q109.29 -56.081 122.55 -56.081 Q126.817 -56.081 130.787 -57.408 Q134.755 -58.735 138.03 -61.477 V-12.716 Q138.03 -8.237 134.757 -4.963 Q131.483 -1.69 127.004 -1.69 H38.713 L16.77 20.253 Z"/></g><g id="Ultralight-L" transform="matrix(1 0 0 1 491.205 1556)"><path d="M122.54 -67.964 Q115.871 -67.964 111.39 -72.535 Q106.909 -77.107 106.909 -83.776 Q106.909 -90.284 111.4 -94.846 Q115.89 -99.407 122.56 -99.407 Q129.229 -99.407 133.791 -94.836 Q138.352 -90.265 138.352 -83.757 Q138.352 -77.087 133.781 -72.526 Q129.21 -67.964 122.54 -67.964 Z M18.705 16.531 V-84.089 Q18.705 -88.523 21.89 -91.708 Q25.074 -94.892 29.509 -94.892 H96.266 Q95.299 -93.602 94.573 -92.232 Q93.847 -90.861 93.525 -89.249 Q92.074 -75.542 100.701 -65.384 Q109.328 -55.225 122.55 -55.225 Q126.259 -55.225 129.726 -56.273 Q133.192 -57.321 136.095 -59.579 V-14.429 Q136.095 -9.994 132.91 -6.81 Q129.726 -3.625 125.291 -3.625 H38.861 L18.705 16.531 Z"/></g><g id="Bold-M" transform="matrix(1 0 0 1 2281.8 1126)"><path d="M94.97 -61.48 Q87.948 -61.48 83.036 -66.421 Q78.125 -71.361 78.125 -78.385 Q78.125 -85.407 83.066 -90.319 Q88.006 -95.23 95.03 -95.23 Q102.052 -95.23 106.964 -90.289 Q111.875 -85.349 111.875 -78.325 Q111.875 -71.302 106.934 -66.391 Q101.994 -61.48 94.97 -61.48 Z M4.25 21.02 V-74.605 Q4.25 -81.746 9.18 -86.675 Q14.11 -91.605 21.25 -91.605 H71.375 Q69.25 -87.605 68.562 -83.292 Q67.875 -78.98 68.5 -74.605 Q70 -64.73 77.5 -58.167 Q85 -51.605 95 -51.605 Q101 -51.605 106.438 -54.105 Q111.875 -56.605 115.75 -61.355 V-17.23 Q115.75 -10.09 110.82 -5.16 Q105.891 -0.23 98.75 -0.23 H25.5 L4.25 21.02 Z"/></g><g id="Semibold-M" transform="matrix(1 0 0 1 1985.97 1126)"><path d="M94.984 -61.697 Q88.002 -61.697 83.118 -66.599 Q78.234 -71.499 78.234 -78.48 Q78.234 -85.461 83.135 -90.346 Q88.035 -95.23 95.016 -95.23 Q101.998 -95.23 106.882 -90.329 Q111.766 -85.429 111.766 -78.447 Q111.766 -71.466 106.865 -66.581 Q101.965 -61.697 94.984 -61.697 Z M5.011 20.585 V-75.855 Q5.011 -82.267 9.49 -86.746 Q13.967 -91.225 20.38 -91.225 H71.321 Q69.412 -87.605 68.699 -83.727 Q67.984 -79.85 68.446 -75.855 Q69.511 -65.6 77.093 -58.711 Q84.674 -51.822 95 -51.822 Q100.729 -51.822 105.949 -54.132 Q111.169 -56.442 114.989 -60.811 V-16.904 Q114.989 -10.491 110.51 -6.012 Q106.032 -1.534 99.62 -1.534 H27.13 L5.011 20.585 Z"/></g><g id="Medium-M" transform="matrix(1 0 0 1 1689.91 1126)"><path d="M94.993 -61.86 Q88.043 -61.86 83.179 -66.731 Q78.315 -71.602 78.315 -78.552 Q78.315 -85.502 83.186 -90.366 Q88.058 -95.23 95.007 -95.23 Q101.957 -95.23 106.821 -90.359 Q111.685 -85.489 111.685 -78.539 Q111.685 -71.589 106.814 -66.724 Q101.942 -61.86 94.993 -61.86 Z M5.581 20.259 V-76.792 Q5.581 -82.659 9.721 -86.799 Q13.863 -90.939 19.729 -90.939 H71.28 Q69.535 -87.605 68.8 -84.054 Q68.065 -80.501 68.405 -76.792 Q69.144 -66.251 76.786 -59.119 Q84.429 -51.985 95 -51.985 Q100.525 -51.985 105.581 -54.152 Q110.639 -56.32 114.419 -60.404 V-16.659 Q114.419 -10.794 110.279 -6.652 Q106.138 -2.512 100.271 -2.512 H28.354 L5.581 20.259 Z"/></g><g id="Regular-M" transform="matrix(1 0 0 1 1394.06 1126)"><path d="M95 -61.98 Q88.073 -61.98 83.224 -66.829 Q78.375 -71.677 78.375 -78.605 Q78.375 -85.532 83.224 -90.381 Q88.073 -95.23 95 -95.23 Q101.927 -95.23 106.776 -90.381 Q111.625 -85.532 111.625 -78.605 Q111.625 -71.677 106.776 -66.829 Q101.927 -61.98 95 -61.98 Z M6 20.02 V-77.48 Q6 -82.945 9.893 -86.837 Q13.785 -90.73 19.25 -90.73 H71.25 Q69.625 -87.605 68.875 -84.292 Q68.125 -80.98 68.375 -77.48 Q68.875 -66.73 76.562 -59.417 Q84.25 -52.105 95 -52.105 Q100.375 -52.105 105.312 -54.167 Q110.25 -56.23 114 -60.105 V-16.48 Q114 -11.014 110.108 -7.122 Q106.215 -3.23 100.75 -3.23 H29.25 L6 20.02 Z"/></g><g id="Light-M" transform="matrix(1 0 0 1 1098.18 1126)"><path d="M95 -60.826 Q88.601 -60.826 84.114 -65.315 Q79.625 -69.802 79.625 -76.201 Q79.625 -82.599 84.114 -87.087 Q88.601 -91.576 95 -91.576 Q101.399 -91.576 105.886 -87.087 Q110.375 -82.599 110.375 -76.201 Q110.375 -69.802 105.886 -65.315 Q101.399 -60.826 95 -60.826 Z M8.5 15.213 V-75.941 Q8.5 -81.07 12.08 -84.65 Q15.66 -88.23 20.789 -88.23 H72.5 Q70.971 -85.73 70.198 -83.066 Q69.424 -80.402 69.433 -77.48 Q69.26 -66.49 76.706 -58.72 Q84.154 -50.951 95 -50.951 Q99.654 -50.951 103.942 -52.701 Q108.23 -54.451 111.5 -57.701 V-18.019 Q111.5 -12.89 107.92 -9.31 Q104.34 -5.73 99.211 -5.73 H29.442 L8.5 15.213 Z"/></g><g id="Thin-M" transform="matrix(1 0 0 1 802.565 1126)"><path d="M95 -59.672 Q89.13 -59.672 85.002 -63.8 Q80.875 -67.927 80.875 -73.797 Q80.875 -79.666 85.002 -83.795 Q89.13 -87.922 95 -87.922 Q100.87 -87.922 104.998 -83.795 Q109.125 -79.666 109.125 -73.797 Q109.125 -67.927 104.998 -63.8 Q100.87 -59.672 95 -59.672 Z M11 10.405 V-74.402 Q11 -79.196 14.268 -82.462 Q17.534 -85.73 22.328 -85.73 H73.75 Q72.317 -83.855 71.519 -81.84 Q70.721 -79.826 70.49 -77.48 Q69.644 -66.249 76.851 -58.024 Q84.058 -49.797 95 -49.797 Q98.933 -49.797 102.573 -51.235 Q106.211 -52.672 109 -55.297 V-19.557 Q109 -14.764 105.733 -11.497 Q102.466 -8.23 97.672 -8.23 H29.635 L11 10.405 Z"/></g><g id="Ultralight-M" transform="matrix(1 0 0 1 506.415 1126)"><path d="M95 -58.98 Q89.448 -58.98 85.536 -62.891 Q81.625 -66.802 81.625 -72.355 Q81.625 -77.907 85.536 -81.819 Q89.448 -85.73 95 -85.73 Q100.552 -85.73 104.464 -81.819 Q108.375 -77.907 108.375 -72.355 Q108.375 -66.802 104.464 -62.891 Q100.552 -58.98 95 -58.98 Z M12.5 7.52 V-73.48 Q12.5 -78.07 15.58 -81.15 Q18.659 -84.23 23.25 -84.23 H74.5 Q73.125 -82.73 72.312 -81.105 Q71.5 -79.48 71.125 -77.48 Q69.875 -66.105 76.938 -57.605 Q84 -49.105 95 -49.105 Q98.5 -49.105 101.75 -50.355 Q105 -51.605 107.5 -53.855 V-20.48 Q107.5 -15.889 104.42 -12.81 Q101.34 -9.73 96.75 -9.73 H29.75 L12.5 7.52 Z"/></g><g id="Bold-S" transform="matrix(1 0 0 1 2294.23 696)"><path d="M73.353 -54.758 Q67.813 -54.758 63.938 -58.656 Q60.063 -62.554 60.063 -68.096 Q60.063 -73.637 63.961 -77.512 Q67.859 -81.386 73.401 -81.386 Q78.941 -81.386 82.816 -77.488 Q86.691 -73.59 86.691 -68.048 Q86.691 -62.508 82.793 -58.633 Q78.895 -54.758 73.353 -54.758 Z M4.931 7.573 V-65.508 Q4.931 -70.817 8.589 -74.474 Q12.247 -78.132 17.555 -78.132 H55.427 Q53.751 -75.173 53.258 -71.968 Q52.764 -68.762 53.159 -65.508 Q54.145 -57.815 59.914 -52.785 Q65.682 -47.755 73.377 -47.755 Q78.111 -47.755 82.401 -49.826 Q86.691 -51.898 89.749 -55.645 V-20.239 Q89.749 -14.93 86.091 -11.273 Q82.434 -7.615 77.125 -7.615 H20.12 L4.931 7.573 Z"/></g><g id="Semibold-S" transform="matrix(1 0 0 1 1998.1 696)"><path d="M73.364 -54.929 Q67.856 -54.929 64.002 -58.796 Q60.148 -62.663 60.148 -68.171 Q60.148 -73.679 64.016 -77.533 Q67.882 -81.386 73.39 -81.386 Q78.898 -81.386 82.752 -77.519 Q86.606 -73.653 86.606 -68.145 Q86.606 -62.637 82.738 -58.783 Q78.872 -54.929 73.364 -54.929 Z M5.532 7.23 V-66.494 Q5.532 -71.228 8.834 -74.53 Q12.135 -77.832 16.869 -77.832 H55.385 Q53.879 -75.173 53.365 -72.311 Q52.85 -69.449 53.116 -66.494 Q53.76 -58.502 59.592 -53.214 Q65.425 -47.927 73.377 -47.927 Q77.897 -47.927 82.016 -49.848 Q86.134 -51.769 89.148 -55.216 V-19.982 Q89.148 -15.248 85.846 -11.946 Q82.545 -8.644 77.811 -8.644 H21.406 L5.532 7.23 Z"/></g><g id="Medium-S" transform="matrix(1 0 0 1 1701.85 696)"><path d="M73.371 -55.058 Q67.888 -55.058 64.05 -58.901 Q60.213 -62.744 60.213 -68.228 Q60.213 -73.712 64.056 -77.549 Q67.899 -81.386 73.383 -81.386 Q78.866 -81.386 82.704 -77.543 Q86.541 -73.701 86.541 -68.217 Q86.541 -62.734 82.698 -58.895 Q78.855 -55.058 73.371 -55.058 Z M5.982 6.973 V-67.234 Q5.982 -71.537 9.016 -74.572 Q12.052 -77.606 16.355 -77.606 H55.352 Q53.975 -75.173 53.445 -72.568 Q52.914 -69.963 53.084 -67.234 Q53.47 -59.015 59.351 -53.536 Q65.232 -48.055 73.377 -48.055 Q77.736 -48.055 81.726 -49.864 Q85.716 -51.673 88.698 -54.895 V-19.788 Q88.698 -15.486 85.664 -12.451 Q82.628 -9.416 78.325 -9.416 H22.371 L5.982 6.973 Z"/></g><g id="Regular-S" transform="matrix(1 0 0 1 1405.73 696)"><path d="M73.377 -55.152 Q67.911 -55.152 64.086 -58.978 Q60.26 -62.804 60.26 -68.269 Q60.26 -73.735 64.086 -77.561 Q67.911 -81.386 73.377 -81.386 Q78.843 -81.386 82.668 -77.561 Q86.494 -73.735 86.494 -68.269 Q86.494 -62.804 82.668 -58.978 Q78.843 -55.152 73.377 -55.152 Z M6.312 6.784 V-67.776 Q6.312 -71.763 9.151 -74.602 Q11.991 -77.441 15.977 -77.441 H55.329 Q54.047 -75.173 53.504 -72.757 Q52.962 -70.34 53.06 -67.776 Q53.258 -59.393 59.174 -53.771 Q65.091 -48.15 73.377 -48.15 Q77.618 -48.15 81.514 -49.876 Q85.409 -51.602 88.368 -54.659 V-19.647 Q88.368 -15.66 85.529 -12.821 Q82.689 -9.982 78.703 -9.982 H23.078 L6.312 6.784 Z"/></g><g id="Light-S" transform="matrix(1 0 0 1 1109.75 696)"><path d="M73.377 -54.242 Q68.328 -54.242 64.788 -57.784 Q61.246 -61.324 61.246 -66.373 Q61.246 -71.42 64.788 -74.962 Q68.328 -78.504 73.377 -78.504 Q78.426 -78.504 81.966 -74.962 Q85.508 -71.42 85.508 -66.373 Q85.508 -61.324 81.966 -57.784 Q78.426 -54.242 73.377 -54.242 Z M8.284 2.991 V-66.562 Q8.284 -70.283 10.877 -72.876 Q13.47 -75.469 17.191 -75.469 H56.315 Q55.109 -73.694 54.548 -71.789 Q53.986 -69.885 53.895 -67.776 Q53.561 -59.204 59.287 -53.221 Q65.015 -47.24 73.377 -47.24 Q77.049 -47.24 80.433 -48.719 Q83.815 -50.198 86.395 -52.763 V-20.861 Q86.395 -17.14 83.803 -14.547 Q81.21 -11.954 77.489 -11.954 H23.23 L8.284 2.991 Z"/></g><g id="Thin-S" transform="matrix(1 0 0 1 814.015 696)"><path d="M73.377 -53.332 Q68.746 -53.332 65.489 -56.588 Q62.232 -59.845 62.232 -64.476 Q62.232 -69.107 65.489 -72.364 Q68.746 -75.621 73.377 -75.621 Q78.008 -75.621 81.265 -72.364 Q84.522 -69.107 84.522 -64.476 Q84.522 -59.845 81.265 -56.588 Q78.008 -53.332 73.377 -53.332 Z M10.257 -0.802 V-65.348 Q10.257 -68.805 12.603 -71.15 Q14.949 -73.496 18.405 -73.496 H57.301 Q56.171 -72.214 55.59 -70.822 Q55.01 -69.43 54.729 -67.776 Q53.864 -59.013 59.402 -52.672 Q64.939 -46.329 73.377 -46.329 Q76.48 -46.329 79.352 -47.562 Q82.223 -48.795 84.423 -50.866 V-22.075 Q84.423 -18.619 82.077 -16.273 Q79.731 -13.927 76.275 -13.927 H23.382 L10.257 -0.802 Z"/></g><g id="Ultralight-S" transform="matrix(1 0 0 1 517.792 696)"><path d="M73.377 -52.785 Q68.996 -52.785 65.91 -55.871 Q62.824 -58.957 62.824 -63.338 Q62.824 -67.719 65.91 -70.805 Q68.996 -73.891 73.377 -73.891 Q77.758 -73.891 80.844 -70.805 Q83.93 -67.719 83.93 -63.338 Q83.93 -58.957 80.844 -55.871 Q77.758 -52.785 73.377 -52.785 Z M11.441 -3.078 V-64.62 Q11.441 -67.916 13.639 -70.115 Q15.836 -72.313 19.133 -72.313 H57.893 Q56.808 -71.327 56.216 -70.242 Q55.625 -69.157 55.23 -67.776 Q54.047 -58.9 59.47 -52.341 Q64.893 -45.783 73.377 -45.783 Q76.139 -45.783 78.703 -46.868 Q81.267 -47.953 83.24 -49.728 V-22.803 Q83.24 -19.506 81.041 -17.309 Q78.843 -15.11 75.547 -15.11 H23.473 L11.441 -3.078 Z"/></g></g></svg>