<svg xmlns="http://www.w3.org/2000/svg" height="24" viewBox="0 96 960 960" width="24"><path d="m687.077 669.693 163.614-163.615 42.769 42.768-164.23 163.615-42.153-42.768ZM75.003 871.767V728.231q35.769-9.231 68.923-25.193 33.154-15.962 62.923-39.116l58.461 63.846 28.384-28.385-56.614-61.23q6.846-6.846 13.576-13.192 6.731-6.346 13.577-13.807l56.846 60.845 29-29-61.308-63.692q5-8.077 9.924-16.846 4.923-8.769 8.538-18.846l70.23 72 27.846-27.846-82.23-83.384 40.615-97.845 198.307-189.383 254.305 254.921-385.151 399.689H75.003Zm330.383-59.998 326.615-338.46-326.615 338.46Zm-270.385 0h270.385l326.615-338.46-171-171-146 138.461-28.231 69.076 80.692 80.615-204.998 204.998-54.308-60.077q-17.231 12.232-35.5 21.116-18.27 8.885-37.655 16.578v38.693Z"/></svg>