<svg xmlns="http://www.w3.org/2000/svg" height="48" viewBox="0 -960 960 960" width="48"><path d="M594.5-140v-90.5h74q25.22 0 43.11-17.51t17.89-43.49v-78q0-37.5 22-68t59.5-40.41v-5.74q-37-8.85-59.25-39.1T729.5-590.5v-79.18q0-24.79-17.76-42.31-17.77-17.51-43.24-17.51h-74V-821h99q52.88 0 90.19 37.1Q821-746.79 821-693.5v78q0 26.96 17.16 43.98Q855.33-554.5 882-554.5h19V-407h-18.85q-27.04 0-44.09 17.51Q821-371.98 821-347v80.5q0 53.79-37.4 90.15Q746.21-140 693.5-140h-99Zm-328 0q-53.5 0-90-36.35Q140-212.71 140-266.5V-347q0-24.98-17.66-42.49Q104.69-407 79.5-407H60v-147.5h19.5q25.19 0 42.84-17.02Q140-588.54 140-615.5v-78q0-53.29 36.58-90.4Q213.17-821 266.5-821H366v91.5h-73.5q-25.15 0-43.58 17.51-18.42 17.52-18.42 42.49v79q0 37.5-22.25 67.75T150-483.65v5.74q36 9.91 58.25 40.41 22.25 30.5 22.25 68v78.18q0 25.8 18.3 43.31t43.7 17.51H366v90.5h-99.5Z"/></svg>