<svg xmlns="http://www.w3.org/2000/svg" height="40" width="40"><path d="M20 29.167Q23.042 29.167 25.229 27Q27.417 24.833 27.417 21.792Q27.417 18.708 25.229 16.521Q23.042 14.333 20 14.333Q16.917 14.333 14.75 16.521Q12.583 18.708 12.583 21.792Q12.583 24.833 14.75 27Q16.917 29.167 20 29.167ZM18.125 20 19.375 17.25Q19.542 16.833 20 16.833Q20.458 16.833 20.625 17.292L21.833 20L24.458 21.125Q24.875 21.333 24.875 21.792Q24.875 22.25 24.458 22.417L21.833 23.542L20.625 26.25Q20.458 26.708 20 26.708Q19.542 26.708 19.375 26.292L18.125 23.542L15.542 22.417Q15.083 22.25 15.083 21.792Q15.083 21.333 15.542 21.125ZM6.333 35.667Q4.833 35.667 3.75 34.583Q2.667 33.5 2.667 32V11.542Q2.667 10.042 3.75 8.938Q4.833 7.833 6.333 7.833H11.792L14 5.25Q14.5 4.625 15.229 4.333Q15.958 4.042 16.792 4.042H23.25Q24.042 4.042 24.771 4.333Q25.5 4.625 26 5.25L28.208 7.833H33.667Q35.167 7.833 36.25 8.938Q37.333 10.042 37.333 11.542V32Q37.333 33.5 36.25 34.583Q35.167 35.667 33.667 35.667Z"/></svg>