<svg xmlns="http://www.w3.org/2000/svg" height="40" viewBox="0 96 960 960" width="40"><path d="M320.5 785.833q-21 0-35.916-14.75-14.917-14.75-14.917-35.75v-40q0-21 14.917-35.916Q299.5 644.5 320.5 644.5h320q20.667 0 35.583 14.917Q691 674.333 691 695.333v40q0 21-14.917 35.75-14.916 14.75-35.583 14.75h-320Zm0-280q-21 0-35.916-14.75-14.917-14.75-14.917-35.75v-40q0-21 14.917-35.916Q299.5 364.5 320.5 364.5h320q20.667 0 35.583 14.917Q691 394.333 691 415.333v40q0 21-14.917 35.75-14.916 14.75-35.583 14.75h-320Zm-210.834 491q-21 0-35.75-14.783-14.75-14.784-14.75-35.833 0-21.05 14.75-35.883 14.75-14.834 35.75-14.834H851q21 0 36.25 14.951 15.25 14.95 15.25 36 0 21.049-15.25 35.716Q872 996.833 851 996.833H109.666Zm0-741.5q-21 0-35.75-14.95-14.75-14.951-14.75-36 0-20.716 14.75-35.883 14.75-15.167 35.75-15.167H851q21 0 36.25 15.284t15.25 36q0 21.049-15.25 35.883Q872 255.333 851 255.333H109.666Z"/></svg>