<svg xmlns="http://www.w3.org/2000/svg" height="48" width="48"><path d="M21.1 32Q17.1 32 13.9 29.775Q10.7 27.55 9.1 24Q10.7 20.45 13.9 18.225Q17.1 16 21.1 16Q25.05 16 28.225 18.175Q31.4 20.35 33 23.8Q33.1 21.4 34.825 19.7Q36.55 18 39 18V30Q36.55 30 34.825 28.3Q33.1 26.6 33 24.2Q31.4 27.65 28.225 29.825Q25.05 32 21.1 32ZM14.05 25.5Q14.65 25.5 15.075 25.05Q15.5 24.6 15.5 23.95Q15.5 23.35 15.075 22.925Q14.65 22.5 14 22.5Q13.4 22.5 12.95 22.925Q12.5 23.35 12.5 24Q12.5 24.6 12.95 25.05Q13.4 25.5 14.05 25.5Z"/></svg>