<svg xmlns="http://www.w3.org/2000/svg" height="40" viewBox="0 -960 960 960" width="40"><path d="M195.67-52q-43.04 0-73.35-31.04Q92-114.07 92-155.67v-522q0-43.3 30.32-73.82Q152.63-782 195.67-782h38.66v-66.67q0-43.66 30.5-74.16t74.17-30.5h281q44.64 0 74.99 30.5 30.34 30.5 30.34 74.16V-782h39q41.87 0 73.11 30.51 31.23 30.52 31.23 73.82v522q0 41.6-31.23 72.63Q806.2-52 764.33-52H195.67ZM339-782h281v-66.67H339V-782Zm141 553.33q78 0 133.33-54.86 55.34-54.87 55.34-133.25 0-77.22-55.34-132.89Q558-605.33 480-605.33q-78 0-133 55.59-55 55.58-55 133.5 0 77.91 55 132.74 55 54.83 133 54.83Zm25.67-198.47v-68.19q0-10.27-7.48-17.97-7.48-7.7-18.33-7.7-10.86 0-18.69 8-7.84 8-7.84 18.67v66.66q0 11.21 3.84 20.18 3.83 8.97 11.5 16.49l37.66 37.67q7.52 7.33 18.09 7.66 10.58.34 17.91-7.52 7.34-7.86 7.34-18.33 0-10.48-7.34-18.48l-36.66-37.14Z"/></svg>