<svg xmlns="http://www.w3.org/2000/svg" height="20" width="20"><path d="M6.479 13.521H7.458L12.229 8.75L11.25 7.771L6.479 12.542ZM12.708 8.271 13.396 7.562Q13.521 7.417 13.521 7.26Q13.521 7.104 13.396 6.979L13 6.604Q12.896 6.479 12.729 6.479Q12.562 6.479 12.438 6.604L11.729 7.292ZM3.333 16.667V3.333H8.604Q8.458 2.688 8.885 2.177Q9.312 1.667 10 1.667Q10.688 1.667 11.125 2.177Q11.562 2.688 11.396 3.333H16.667V16.667ZM10 3.792Q10.25 3.792 10.438 3.604Q10.625 3.417 10.625 3.167Q10.625 2.917 10.438 2.729Q10.25 2.542 10 2.542Q9.75 2.542 9.562 2.729Q9.375 2.917 9.375 3.167Q9.375 3.417 9.562 3.604Q9.75 3.792 10 3.792ZM15.75 15.75V4.25H4.25V15.75ZM4.25 4.229V15.75Z"/></svg>