<svg xmlns="http://www.w3.org/2000/svg" height="20" width="20"><path d="M5.062 17.271Q4.479 17.271 4.042 16.833Q3.604 16.396 3.604 15.812V10.708H2.25Q1.729 10.708 1.542 10.24Q1.354 9.771 1.729 9.396L9.042 2.688Q9.458 2.312 10 2.312Q10.542 2.312 10.958 2.688L18.271 9.396Q18.646 9.771 18.469 10.24Q18.292 10.708 17.75 10.708H16.396V15.812Q16.396 16.396 15.958 16.833Q15.521 17.271 14.938 17.271Q14.5 17.271 14.167 17.031Q13.833 16.792 13.688 16.458V16.271H6.312V16.458Q6.167 16.792 5.833 17.031Q5.5 17.271 5.062 17.271ZM9.354 6.354H10.708L10 5.729ZM6.521 9.854H13.479V9.25L13.5 9.271H6.583L6.521 9.333ZM6.521 13.354H13.479V12.771H6.521Z"/></svg>