<svg xmlns="http://www.w3.org/2000/svg" height="40" width="40"><path d="M13 25.375q.417 0 .812-.167.396-.166.771-.416l5.334-5.375q.416-.459.395-1-.02-.542-.395-1Q19.458 17 18.875 17t-1 .417L13 22.292l-1.417-1.375q-.375-.417-.958-.396-.583.021-1.042.396-.375.458-.395 1.021-.021.562.395.979l1.875 1.875q.292.25.688.416.396.167.854.167Zm10.042-.083q.416.458 1 .458.583 0 1-.458l1.666-1.625 1.667 1.625q.417.458 1 .458t1-.458q.417-.417.417-.959 0-.541-.417-1l-1.667-1.666 1.667-1.709q.417-.416.417-.958t-.417-1q-.417-.417-1-.417t-1 .417l-1.667 1.667L25.042 18q-.417-.417-1-.417-.584 0-1 .417-.417.458-.417 1t.417.958l1.708 1.709-1.708 1.666q-.417.459-.417 1 0 .542.417.959Zm-16.5 9.291q-1.792 0-3.104-1.312-1.313-1.313-1.313-3.104V9.292q0-1.834 1.313-3.146Q4.75 4.833 6.542 4.833h8.333q.833 0 1.646.375.812.375 1.437.959l2.084 2.041H33.5q1.833 0 3.146 1.292 1.312 1.292 1.312 3.125v17.542q0 1.791-1.312 3.104-1.313 1.312-3.146 1.312Z"/></svg>