<svg xmlns="http://www.w3.org/2000/svg" height="40" viewBox="0 -960 960 960" width="40"><path d="M98.667-98.667V-862h300.5v763.333h-300.5Zm338.666-678V-862h85.334v85.333h-85.334Zm85.334 84.5v-84.5h84.166v84.5h-84.166Zm84.166-84.5V-862h85.334v85.333h-85.334Zm169.834 0V-862H862v85.333h-85.333Zm-84.5 84.5v-84.5h84.5v84.5h-84.5Zm-254.834 85.334v-85.334h85.334v85.334h-85.334Zm169.5 0v-85.334h85.334v85.334h-85.334Zm169.834 0v-85.334H862v85.334h-85.333Zm-254 84.166v-84.166h84.166v84.166h-84.166Zm169.5 0v-84.166h84.5v84.166h-84.5Zm-254.834 85.334v-85.334h85.334v85.334h-85.334Zm169.5 0v-85.334h85.334v85.334h-85.334Zm169.834 0v-85.334H862v85.334h-85.333Zm-254 83.833v-83.833h84.166v83.833h-84.166Zm169.5 0v-83.833h84.5v83.833h-84.5Zm-254.834 85.333V-353.5h85.334v85.333h-85.334Zm169.5 0V-353.5h85.334v85.333h-85.334Zm169.834 0V-353.5H862v85.333h-85.333Zm-254 84.167v-84.167h84.166V-184h-84.166Zm169.5 0v-84.167h84.5V-184h-84.5ZM437.333-98.667V-184h85.334v85.333h-85.334Zm169.5 0V-184h85.334v85.333h-85.334Zm169.834 0V-184H862v85.333h-85.333Z"/></svg>