<svg xmlns="http://www.w3.org/2000/svg" height="20" viewBox="0 -960 960 960" width="20"><path d="M129.69-198v-299.15q-30.92-6.93-50.11-30.87-19.2-23.94-19.2-53.75V-742h56.77v152.23H131V-742h56.77v152.23h13.85V-742h56.76v160.23q0 29.41-19.19 53.05-19.19 23.64-50.11 31.57V-198h-59.39Zm684.54-461q30.67 36.18 48.76 81.57 18.09 45.4 18.09 97.43 0 51.26-17.42 95.89-17.42 44.62-46.12 81.8L640.62-479l173.61-180ZM630.08-759.31q41.54 4.69 77.19 20.58 35.65 15.88 66.65 40.19L630.08-550.31v-209ZM601.04-199Q484-199 401.65-281.16 319.31-363.32 319.31-480q0-109.46 72.5-187.85 72.5-78.38 180.27-89.69v289.08l205.69 206.69q-35.4 28.66-80.39 45.71Q652.39-199 601.04-199Z"/></svg>