<svg xmlns="http://www.w3.org/2000/svg" height="40" width="40"><path d="M15.208 23.167H24.792Q26.167 22.125 26.979 20.521Q27.792 18.917 27.792 17.042Q27.792 13.833 25.521 11.542Q23.25 9.25 20 9.25Q16.75 9.25 14.479 11.542Q12.208 13.833 12.208 17.042Q12.208 18.958 13.021 20.542Q13.833 22.125 15.208 23.167ZM15.667 22Q14.583 21 13.979 19.708Q13.375 18.417 13.375 17.042Q13.375 14.292 15.312 12.354Q17.25 10.417 20 10.417Q22.75 10.417 24.708 12.354Q26.667 14.292 26.667 17.042Q26.667 18.417 26.042 19.708Q25.417 21 24.333 22ZM15.542 26.833H24.458V25.667H15.542ZM20 30.708Q20.583 30.708 21.042 30.417Q21.5 30.125 21.708 29.583H18.292Q18.5 30.125 18.958 30.417Q19.417 30.708 20 30.708ZM20 34.875Q16.917 34.875 14.187 33.708Q11.458 32.542 9.458 30.521Q7.458 28.5 6.292 25.792Q5.125 23.083 5.125 20Q5.125 16.917 6.292 14.188Q7.458 11.458 9.479 9.458Q11.5 7.458 14.208 6.292Q16.917 5.125 20 5.125Q23.083 5.125 25.812 6.292Q28.542 7.458 30.542 9.479Q32.542 11.5 33.708 14.208Q34.875 16.917 34.875 20Q34.875 23.083 33.708 25.812Q32.542 28.542 30.521 30.542Q28.5 32.542 25.792 33.708Q23.083 34.875 20 34.875ZM20 20Q20 20 20 20Q20 20 20 20Q20 20 20 20Q20 20 20 20Q20 20 20 20Q20 20 20 20Q20 20 20 20Q20 20 20 20ZM20 33.542Q25.667 33.542 29.604 29.604Q33.542 25.667 33.542 20Q33.542 14.333 29.604 10.396Q25.667 6.458 20 6.458Q14.333 6.458 10.396 10.396Q6.458 14.333 6.458 20Q6.458 25.667 10.396 29.604Q14.333 33.542 20 33.542Z"/></svg>