<svg xmlns="http://www.w3.org/2000/svg" enable-background="new 0 0 20 20" height="20" viewBox="0 0 20 20" width="20"><g><rect fill="none" height="20" width="20"/></g><g><path d="M8.75,3C8.34,3,8,3.34,8,3.75v3.57L5.85,8.67C5.62,8.81,5.49,9.07,5.5,9.34c0.03,0.57,0.69,0.89,1.17,0.58L8,9.09v1.77 l-2.13,1.33c-0.23,0.15-0.38,0.4-0.37,0.67c0.02,0.58,0.66,0.92,1.15,0.61L8,12.63V16c0,0.55,0.45,1,1,1h0.5 c2.73,0,4.99-1.99,5.43-4.59c0.07-0.42-0.2-0.83-0.62-0.9c-0.42-0.07-0.79,0.21-0.86,0.61c-0.3,1.91-1.95,3.38-3.95,3.38v-3.81 l2.65-1.66c0.22-0.14,0.35-0.38,0.35-0.64v0c0-0.59-0.65-0.95-1.15-0.64L9.5,9.92V8.15l2.65-1.66c0.22-0.14,0.35-0.38,0.35-0.64v0 c0-0.59-0.65-0.95-1.15-0.64L9.5,6.38V3.75C9.5,3.34,9.16,3,8.75,3z"/></g></svg>