<svg xmlns="http://www.w3.org/2000/svg" height="20" viewBox="0 -960 960 960" width="20"><path d="M470-242h20v-108h108v-20H490v-108h-20v108H362v20h108v108Zm-174.28 94q-21.47 0-36.59-15.27Q244-178.55 244-200v-320q0-21.45 15.27-36.72Q274.55-572 296-572h44v-96q0-58.68 40.73-99.34Q421.45-808 480.23-808q58.77 0 99.27 40.66Q620-726.68 620-668v96h44q21.45 0 36.72 15.28Q716-541.45 716-520v320q0 21.45-15.29 36.73Q685.43-148 663.96-148H295.72ZM360-572h240v-96q0-50-35-85t-85-35q-50 0-85 35t-35 85v96Z"/></svg>