<svg xmlns="http://www.w3.org/2000/svg" height="40" width="40"><path d="M28.125 23.083h1.167v-2.541h2.541v-1.084h-2.541v-2.541h-1.167v2.541h-2.5v1.084h2.5Zm-8.375 1.292h1.083v-4.042l4.25 4.042h1.667l-4.792-4.458 4.792-4.292h-1.583l-4.334 3.958v-3.958H19.75Zm-8.667 0h5q.5 0 .813-.313.312-.312.312-.77V16.75q0-.5-.312-.812-.313-.313-.813-.313h-5v1.042h5v2.791H12.75v1.084h3.333v2.791h-5ZM9.5 33.542q-1.292 0-2.167-.875-.875-.875-.875-2.167v-21q0-1.292.875-2.167.875-.875 2.167-.875h21q1.292 0 2.167.875.875.875.875 2.167v21q0 1.292-.875 2.167-.875.875-2.167.875Zm0-1.709h21q.5 0 .917-.416.416-.417.416-.917v-21q0-.5-.416-.917-.417-.416-.917-.416h-21q-.5 0-.917.416-.416.417-.416.917v21q0 .5.416.917.417.416.917.416ZM8.167 8.167V31.833 8.167Z"/></svg>