<svg xmlns="http://www.w3.org/2000/svg" height="24" width="24"><path d="M6.075 21.2q-.95 0-1.612-.662-.663-.663-.663-1.613v-8.9q0-.525.238-1.013.237-.487.662-.787l5.925-4.45Q11.225 3.3 12 3.3t1.375.475l5.925 4.45q.425.3.663.787.237.488.237 1.013v8.9q0 .95-.662 1.613-.663.662-1.613.662Zm0-2.275h11.85v-8.9L12 5.6l-5.925 4.425ZM8 16.5h8v1q0 .2.15.35.15.15.35.15.2 0 .35-.15.15-.15.15-.35V14q0-.825-.587-1.413Q15.825 12 15 12h-2.925q-.25 0-.412.162-.163.163-.163.413V15.5H8v-4q0-.2-.15-.35Q7.7 11 7.5 11q-.2 0-.35.15-.15.15-.15.35v6q0 .2.15.35.15.15.35.15.2 0 .35-.15.15-.15.15-.35ZM9.75 15q.525 0 .887-.363.363-.362.363-.887t-.363-.887q-.362-.363-.887-.363t-.887.363q-.363.362-.363.887t.363.887q.362.363.887.363Zm-3.675 3.925h11.85-11.85Z"/></svg>