<svg xmlns="http://www.w3.org/2000/svg" height="20" viewBox="0 -960 960 960" width="20"><path d="M274.88-334q19.12 0 32.62-13.38 13.5-13.38 13.5-32.5 0-19.12-13.38-32.62-13.38-13.5-32.5-13.5-19.12 0-32.62 13.38-13.5 13.38-13.5 32.5 0 19.12 13.38 32.62 13.38 13.5 32.5 13.5Zm320 0q19.12 0 32.62-13.38 13.5-13.38 13.5-32.5 0-19.12-13.38-32.62-13.38-13.5-32.5-13.5-19.12 0-32.62 13.38-13.5 13.38-13.5 32.5 0 19.12 13.38 32.62 13.38 13.5 32.5 13.5ZM74-120v-366l103.5-261H577v113H256l-44 111h365v67H187v152h496v-152h113v336H671v-71H199v71H74Zm660-400v-136l-65 65-30-31 92-92-92-91 30-31 65 65v-136h29l111 111-82 82 82 83-111 111h-29Zm44-242 35-34-35-35v69Zm0 165 35-34-35-34v68ZM187-456v152-152Z"/></svg>