<svg xmlns="http://www.w3.org/2000/svg" height="48" width="48"><path d="m21.8 15.85 2.1-5.8h.3l2.05 5.8ZM24 26.9q-4.75 0-8.1-3.35-3.35-3.35-3.35-8.1t3.35-8.1Q19.25 4 24 4t8.1 3.35q3.35 3.35 3.35 8.1t-3.35 8.1Q28.75 26.9 24 26.9Zm-4.8-5.7q.3 0 .6-.225t.4-.475l1.05-2.95h5.55l1.05 2.95q.1.25.4.475.3.225.6.225.55 0 .85-.375.3-.375.05-.925l-4.4-11.55q-.15-.4-.55-.675T24 7.4q-.4 0-.8.275t-.55.675L18.3 19.9q-.2.55.075.925t.825.375Zm23.6 21.95q-.55 0-.9-.35t-.35-.9v-2.75h-2.8q-.5 0-.85-.35t-.35-.9q0-.55.35-.875.35-.325.9-.325h2.75v-2.8q0-.5.35-.85t.9-.35q.55 0 .875.325.325.325.325.875v2.8h2.8q.5 0 .85.325t.35.875q0 .55-.325.9t-.875.35H44v2.8q0 .5-.325.85t-.875.35ZM27.95 44q-.5 0-.85-.35t-.35-.85V32.3q0-.3.225-.525.225-.225.525-.225H34q1.1 0 1.775.65.675.65.675 1.75v2.55q0 1.1-.6 1.75-.6.65-1.6 1l1.25 3q.3.7-.025 1.225Q35.15 44 34.35 44q-.3 0-.625-.225T33.3 43.3l-1.5-3.7h-2.65v3.2q0 .5-.35.85t-.85.35Zm1.2-6.9H34v-3.15h-4.85ZM1.2 44q-.5 0-.85-.35T0 42.8V32.75q0-.5.35-.85t.85-.35q.5 0 .85.35t.35.85v3h4.7v-3q0-.5.35-.85t.85-.35q.5 0 .85.35t.35.85V42.8q0 .5-.35.85T8.3 44q-.5 0-.85-.35t-.35-.85v-4.65H2.4v4.65q0 .5-.35.85T1.2 44Zm12.95 0q-.3 0-.525-.225-.225-.225-.225-.525V32.3q0-.3.225-.525.225-.225.525-.225h6.35q1.1 0 1.75.65.65.65.65 1.75v7.65q0 1.1-.65 1.75-.65.65-1.75.65Zm1.65-2.4h4.7v-7.65h-4.7Z"/></svg>