<svg xmlns="http://www.w3.org/2000/svg" height="48" width="48"><path d="M7.1 39.75Q5.9 39.75 5.05 38.9Q4.2 38.05 4.2 36.85V29.3Q6 28.65 7.225 27.325Q8.45 26 8.45 23.95Q8.45 21.95 7.225 20.6Q6 19.25 4.2 18.65V11.1Q4.2 9.9 5.05 9.05Q5.9 8.2 7.1 8.2H40.95Q42.15 8.2 43 9.05Q43.85 9.9 43.85 11.1V18.65Q42.05 19.25 40.825 20.6Q39.6 21.95 39.6 23.95Q39.6 26 40.825 27.325Q42.05 28.65 43.85 29.3V36.85Q43.85 38.05 43 38.9Q42.15 39.75 40.95 39.75ZM7.1 36.85H40.95V31.4Q39 30.25 37.825 28.275Q36.65 26.3 36.65 23.95Q36.65 21.65 37.825 19.7Q39 17.75 40.95 16.5V11.1H7.1V16.55Q9.1 17.8 10.25 19.725Q11.4 21.65 11.4 23.95Q11.4 26.3 10.25 28.275Q9.1 30.25 7.1 31.45ZM24.05 33.6Q24.6 33.6 25.025 33.2Q25.45 32.8 25.45 32.2Q25.45 31.65 25.025 31.25Q24.6 30.85 24.05 30.85Q23.5 30.85 23.075 31.25Q22.65 31.65 22.65 32.2Q22.65 32.8 23.075 33.2Q23.5 33.6 24.05 33.6ZM24.05 25.35Q24.6 25.35 25.025 24.925Q25.45 24.5 25.45 23.95Q25.45 23.4 25.025 22.975Q24.6 22.55 24.05 22.55Q23.5 22.55 23.075 22.975Q22.65 23.4 22.65 23.95Q22.65 24.5 23.075 24.925Q23.5 25.35 24.05 25.35ZM24.05 17.05Q24.6 17.05 25.025 16.65Q25.45 16.25 25.45 15.7Q25.45 15.1 25.025 14.7Q24.6 14.3 24.05 14.3Q23.5 14.3 23.075 14.7Q22.65 15.1 22.65 15.7Q22.65 16.25 23.075 16.65Q23.5 17.05 24.05 17.05ZM24.05 23.95Q24.05 23.95 24.05 23.95Q24.05 23.95 24.05 23.95Q24.05 23.95 24.05 23.95Q24.05 23.95 24.05 23.95Q24.05 23.95 24.05 23.95Q24.05 23.95 24.05 23.95Q24.05 23.95 24.05 23.95Q24.05 23.95 24.05 23.95Z"/></svg>