<svg xmlns="http://www.w3.org/2000/svg" height="20" viewBox="0 -960 960 960" width="20"><path d="M479.79-312q15.21 0 25.71-10.29t10.5-25.5q0-15.21-10.29-25.71t-25.5-10.5q-15.21 0-25.71 10.29t-10.5 25.5q0 15.21 10.29 25.71t25.5 10.5Zm0-132q15.21 0 25.71-10.29t10.5-25.5q0-15.21-10.29-25.71t-25.5-10.5q-15.21 0-25.71 10.29t-10.5 25.5q0 15.21 10.29 25.71t25.5 10.5Zm0-132q15.21 0 25.71-10.29t10.5-25.5q0-15.21-10.29-25.71t-25.5-10.5q-15.21 0-25.71 10.29t-10.5 25.5q0 15.21 10.29 25.71t25.5 10.5ZM792-192H168q-29.7 0-50.85-21.15Q96-234.3 96-264v-144q29.7 0 50.85-21.21 21.15-21.21 21.15-51t-21.15-50.94Q125.7-552.3 96-552.3v-144q0-29.7 21.15-50.7 21.15-21 50.85-21h624q29.7 0 50.85 21.15Q864-725.7 864-696v144q-29.7 0-50.85 21.21-21.15 21.21-21.15 51t21.15 50.94Q834.3-407.7 864-407.7v144q0 29.7-21.15 50.7-21.15 21-50.85 21Z"/></svg>