<svg xmlns="http://www.w3.org/2000/svg" height="40" viewBox="0 -960 960 960" width="40"><path d="M756.57-64.17q-122.4 0-246.22-56.73-123.83-56.72-228.28-160.8Q177.62-386.33 120.9-510.51 64.17-634.68 64.17-756.57q0-25.26 16.8-42.45 16.8-17.18 42.28-17.18h146.76q24.74 0 40.92 13.88 16.17 13.88 22.14 38.2l26.06 120.45q3.55 22.25-.72 38.86-4.26 16.61-17.69 28.71l-101.86 96.09q21.73 36.58 47.79 69.64 26.05 33.07 58.12 64.14 32.55 33.59 66.51 60.03 33.95 26.45 70.21 46.01l97.87-98.55q14.76-14.85 32.99-20.15 18.24-5.3 38.87-1.04l112.33 24.97q24.65 7.02 38.37 23.54 13.72 16.52 13.72 40.41v147.58q0 25.31-17.19 42.28-17.19 16.98-41.88 16.98Zm-66.21-420.87q-85.72 0-145.52-59.87-59.8-59.87-59.8-145.6 0-85.72 59.87-145.71 59.87-59.98 145.6-59.98 85.72 0 145.71 60.14 59.98 60.15 59.98 145.7 0 85.72-60.14 145.52-60.15 59.8-145.7 59.8Zm.08-77.1q11.76 0 20.21-8.27 8.45-8.26 8.45-20.03v-103.04q0-11.92-8.37-20.29-8.38-8.37-20.29-8.37-11.77 0-20.03 8.37-8.27 8.37-8.27 20.29v103.04q0 11.77 8.27 20.03 8.26 8.27 20.03 8.27Zm0-200q11.76 0 20.21-8.27 8.45-8.26 8.45-20.03 0-11.76-8.37-20.21-8.38-8.45-20.29-8.45-11.77 0-20.03 8.37-8.27 8.38-8.27 20.29 0 11.77 8.27 20.03 8.26 8.27 20.03 8.27Z"/></svg>