<svg xmlns="http://www.w3.org/2000/svg" height="40" viewBox="0 -960 960 960" width="40"><path d="M65.49-735.35v-199.16h199.16v81.18H146.67v117.98H65.49Zm747.84 0v-117.98H695.35v-81.18h199.16v199.16h-81.18ZM65.49-25.49v-199.16h81.18v117.98h117.98v81.18H65.49Zm629.86 0v-81.18h117.98v-117.98h81.18v199.16H695.35ZM281.17-153.03q-35.3 0-61.72-26.42t-26.42-61.72v-477.66q0-35.3 26.42-61.72t61.72-26.42h397.66q35.3 0 61.72 26.42t26.42 61.72v477.66q0 35.3-26.42 61.72t-61.72 26.42H281.17Zm82.86-411h232.32v-72.32H364.03v72.32Zm0 120h232.32v-72.32H364.03v72.32Zm0 120h232.32v-72.32H364.03v72.32Z"/></svg>