<svg xmlns="http://www.w3.org/2000/svg" height="40" viewBox="0 -960 960 960" width="40"><path d="M270.5-46.67q-26.44 0-44.89-18.6-18.44-18.6-18.44-44.73v-740q0-25.63 18.85-44.48 18.85-18.85 44.48-18.85h419.33q26.13 0 44.73 18.6 18.61 18.6 18.61 44.73v142.83q17.5 4 28.83 17.69 11.33 13.69 11.33 31.35v73.59q0 18.71-11.33 32.79-11.33 14.08-28.83 17.75v424q0 26.13-18.61 44.73-18.6 18.6-44.73 18.6H270.5Zm0-63.33h419.33v-740H270.5v740Zm0 0v-740 740Zm91.47-212.67H597.8q16.7 0 28.12-11.3 11.41-11.31 11.41-28.03v-78.67q-16.57 0-27.95-11.29Q598-463.25 598-479.95q0-16.67 11.31-27.97 11.31-11.3 28.02-11.3v-78.58q0-16.7-11.3-28.12-11.3-11.41-28-11.41H362.2q-16.7 0-28.12 11.3-11.41 11.31-11.41 28.03v78.67q16.57 0 27.95 11.29Q362-496.75 362-480.05q0 16.67-11.31 27.97-11.31 11.3-28.02 11.3v78.58q0 16.7 11.3 28.12 11.3 11.41 28 11.41ZM480-381.83q-7.8 0-13.65-5.85-5.85-5.85-5.85-13.65 0-7.8 5.85-13.82 5.85-6.02 13.65-6.02 7.8 0 13.82 5.95 6.01 5.95 6.01 13.89 0 7.8-5.95 13.65-5.95 5.85-13.88 5.85Zm0-78.67q-7.8 0-13.65-5.85-5.85-5.85-5.85-13.65 0-7.8 5.85-13.82 5.85-6.01 13.65-6.01 7.8 0 13.82 5.95 6.01 5.95 6.01 13.88 0 7.8-5.95 13.65-5.95 5.85-13.88 5.85Zm0-78.67q-7.8 0-13.65-5.85-5.85-5.85-5.85-13.65 0-7.8 5.85-13.81 5.85-6.02 13.65-6.02 7.8 0 13.82 5.95 6.01 5.95 6.01 13.88 0 7.8-5.95 13.65-5.95 5.85-13.88 5.85Z"/></svg>