<svg xmlns="http://www.w3.org/2000/svg" height="40" viewBox="0 -960 960 960" width="40"><path d="M757.33-416.33 823-482.67q-41.29-45.53-63.48-102.17-22.19-56.64-22.19-120.16 0-63.04 23.04-119.57 23.04-56.53 63.63-103.1l-64.67-65.66Q704-932.67 673.67-859.48q-30.34 73.18-30.34 154.15 0 81.66 30.17 155.33 30.17 73.67 83.83 133.67Zm143.34-143.34 66-67q-12.59-17.46-18.8-36.88-6.2-19.43-6.2-40.77 0-21.35 6.37-42.07T967.67-784l-65-66.67q-27.67 31-41.84 68.17-14.16 37.16-14.16 78.41 0 40.15 14.51 76 14.5 35.86 39.49 68.42Zm-497.27 88q-80.4 0-132.07-52.11-51.66-52.12-51.66-130.97t51.64-130.72q51.65-51.86 130.5-51.86 78.86 0 131.19 51.78 52.33 51.79 52.33 130.84 0 79.04-50.76 131.04-50.76 52-131.17 52ZM53.67-92.33v-129.53q0-49.3 25.66-83.22Q105-339 136.51-353.51q51.16-25.16 125.02-44.16 73.86-19 140.89-19 67.03 0 140.81 18.34Q617-380 668.41-355.51q30.26 15.18 56.76 49.71 26.5 34.53 26.5 83.8v129.67h-698Zm106-106.67H645v-19.17q0-13.6-7.62-24.08-7.61-10.47-21.05-19.08-44.05-24-102.16-36.67-58.12-12.67-112.34-12.67-54.22 0-112.21 14.34-57.99 14.33-102.95 35.21-11.64 6.84-19.32 18.17-7.68 11.33-7.68 24.8V-199Zm242.96-379.33q32.37 0 54.2-21.52 21.84-21.53 21.84-54.61 0-32.54-21.8-54.71-21.8-22.16-54.17-22.16-32.37 0-54.7 21.93-22.33 21.93-22.33 55.37 0 32.7 22.27 54.2 22.28 21.5 54.69 21.5Zm.04-76Zm0 455.33Z"/></svg>