<svg xmlns="http://www.w3.org/2000/svg" height="24" width="24"><path d="M20.3 13.75 18.9 12.35Q19.9 11.35 20.463 10.062Q21.025 8.775 21.025 7.35Q21.025 5.925 20.463 4.65Q19.9 3.375 18.9 2.375L20.3 0.925Q21.575 2.2 22.3 3.875Q23.025 5.55 23.025 7.35Q23.025 9.15 22.3 10.812Q21.575 12.475 20.3 13.75ZM17.5 10.9 16.1 9.5Q16.525 9.075 16.775 8.525Q17.025 7.975 17.025 7.35Q17.025 6.725 16.775 6.175Q16.525 5.625 16.1 5.2L17.5 3.775Q18.225 4.5 18.625 5.4Q19.025 6.3 19.025 7.325Q19.025 8.35 18.625 9.275Q18.225 10.2 17.5 10.9ZM10 13Q8.35 13 7.175 11.825Q6 10.65 6 9Q6 7.35 7.175 6.175Q8.35 5 10 5Q11.65 5 12.825 6.175Q14 7.35 14 9Q14 10.65 12.825 11.825Q11.65 13 10 13ZM2 21V18.2Q2 17.375 2.425 16.65Q2.85 15.925 3.6 15.55Q4.875 14.9 6.475 14.45Q8.075 14 10 14Q11.925 14 13.525 14.45Q15.125 14.9 16.4 15.55Q17.15 15.925 17.575 16.65Q18 17.375 18 18.2V21ZM4 19H16V18.2Q16 17.925 15.863 17.7Q15.725 17.475 15.5 17.35Q14.6 16.9 13.188 16.45Q11.775 16 10 16Q8.225 16 6.812 16.45Q5.4 16.9 4.5 17.35Q4.275 17.475 4.138 17.7Q4 17.925 4 18.2ZM10 11Q10.825 11 11.413 10.412Q12 9.825 12 9Q12 8.175 11.413 7.587Q10.825 7 10 7Q9.175 7 8.588 7.587Q8 8.175 8 9Q8 9.825 8.588 10.412Q9.175 11 10 11ZM10 9Q10 9 10 9Q10 9 10 9Q10 9 10 9Q10 9 10 9Q10 9 10 9Q10 9 10 9Q10 9 10 9Q10 9 10 9ZM10 19Q10 19 10 19Q10 19 10 19Q10 19 10 19Q10 19 10 19Q10 19 10 19Q10 19 10 19Q10 19 10 19Q10 19 10 19Z"/></svg>