<svg xmlns="http://www.w3.org/2000/svg" height="48" viewBox="0 96 960 960" width="48"><path d="M442.804 933.196V624.674h-20q-64.239-1.239-120.119-26.359-55.881-25.119-98.881-69.858-45.151-46.379-68.434-106.944Q112.087 360.949 112.087 296v-88.674h85.674q62.764 0 121.837 25.151t105.359 71.327q31 33 51.666 71.968 20.667 38.969 30.855 82.598 6.842-9.041 13.553-17.436 6.71-8.395 14.252-17.13 44.975-46.133 103.91-71.306 58.935-25.172 123.285-25.172h86.674V416q0 65.41-25.254 125.71-25.255 60.3-69.463 106.247-45 45.239-101 69.858-56 24.62-117 25.859h-18v189.522h-75.631Z"/></svg>