<svg xmlns="http://www.w3.org/2000/svg" height="48" viewBox="0 -960 960 960" width="48"><path d="M640.62-147.77 684.38-104H185v-752h400.15L775-631.98v512.6h-5.85L554.67-333.85q-18.67 12.77-36.68 17.39-18 4.61-37.98 4.61-53.04 0-90.48-37.05-37.45-37.06-37.45-90.37t37.4-90.86q37.39-37.56 90.36-37.56t90.53 37.49q37.55 37.49 37.55 90.43 0 20.23-6.11 39.12-6.12 18.88-17.58 35.11l147 148.77v-400.85L566.24-812.23H228.77v664.46h411.85Zm-160.5-207.85q35.57 0 59.8-25.63 24.23-25.64 24.23-58.64 0-35.49-25.08-59.76-25.09-24.27-59.19-24.27-34.11 0-59.07 24.39t-24.96 59.88q0 33.01 24.35 58.52 24.36 25.51 59.92 25.51ZM480-480Zm0 0Z"/></svg>