<svg xmlns="http://www.w3.org/2000/svg" height="40" width="40"><path d="M10.583 33.333q-3.75 0-6.375-2.583t-2.625-6.333q0-3.25 2.063-5.771 2.062-2.521 5.271-3.021.666-3.292 3.416-5.917t6.292-2.625q1.125 0 1.979.73.854.729.854 1.812v11.333l2.167-2.208q.458-.417 1.021-.396.562.021.979.438.417.458.437 1.02.021.563-.437.98l-4.417 4.416q-.291.25-.583.396-.292.146-.625.146-.292 0-.604-.146-.313-.146-.521-.396l-4.417-4.416q-.416-.417-.416-.98 0-.562.458-1.062.417-.375.979-.375.563 0 .979.375l2.167 2.208V9.667q-3.25.416-5.292 3.021-2.041 2.604-2.041 5.604h-.75q-2.584 0-4.375 1.75-1.792 1.75-1.792 4.375t1.813 4.354Q8 30.5 10.542 30.5H31.25q1.792 0 3.104-1.292 1.313-1.291 1.313-3.083 0-1.792-1.313-3.104-1.312-1.313-3.146-1.313h-2.625v-3.416q0-2.334-1.062-4.271-1.063-1.938-2.771-2.979V7.75q2.917 1.208 4.792 4.167 1.875 2.958 1.916 5.708v1.333h.5q2.792.209 4.667 2.23 1.875 2.02 1.875 4.937 0 2.958-2.125 5.083t-5.125 2.125Zm9.459-14.541Z"/></svg>