<svg xmlns="http://www.w3.org/2000/svg" height="20" viewBox="0 -960 960 960" width="20"><path d="M479.79-525.38q-32.27 0-53.49-21.08t-21.22-52.85q0-32.59 21.43-54.26 21.43-21.66 53.7-21.66t53.49 21.43q21.22 21.44 21.22 53.7 0 32.27-21.43 53.49-21.43 21.23-53.7 21.23ZM273.23-81.23q0-25.08 16.61-41.54t41.39-16.46H451q0-68.46-30.18-129.59-30.17-61.13-86.74-98.56-58.77-38.62-94.43-100.25Q204-529.27 204-600.58q0-113.8 80.59-194.77 80.6-80.96 195.04-80.96 114.45 0 195.41 80.77Q756-714.78 756-600.08q0 71.83-34 135.34-34 63.51-97.31 98.36-59.23 32.46-87.46 95.57Q509-207.69 509-139.23h119.77q24.88 0 41.06 16.61Q686-106.01 686-81.23H273.23Zm207.14-301.08q90.63 0 154.13-63.87 63.5-63.88 63.5-154.5 0-90.63-63.87-154.13-63.88-63.5-154.5-63.5-90.63 0-154.13 63.88-63.5 63.87-63.5 154.5 0 90.62 63.87 154.12 63.88 63.5 154.5 63.5Z"/></svg>