<svg xmlns="http://www.w3.org/2000/svg" height="20" viewBox="0 -960 960 960" width="20"><path d="M555.94-219.04q18.29 0 31.24-13.14t12.95-30.92q0-17.78-12.74-31.12-12.74-13.35-31.03-13.35t-31.52 13.02q-13.23 13.02-13.23 31.31 0 17.5 13.02 30.85 13.02 13.35 31.31 13.35Zm113.09 0q17.66 0 30.92-13.14 13.27-13.14 13.27-30.92t-13.02-31.12q-13.02-13.35-31.31-13.35-17.5 0-31.13 13.02-13.63 13.02-13.63 31.31 0 17.5 13.5 30.85 13.5 13.35 31.4 13.35Zm-561.2-219.61v-466.26h744.34v466.26H107.83Zm0 382.56v-310.56h744.34v310.56H107.83Z"/></svg>