<svg xmlns="http://www.w3.org/2000/svg" height="20" width="20"><path d="M11.958 9.896q-.916 0-1.552-.636-.635-.635-.635-1.552 0-.916.635-1.541.636-.625 1.552-.625.917 0 1.542.635t.625 1.531q0 .917-.625 1.552-.625.636-1.542.636Zm-7.437 3.146V2.25h15.062v10.792Zm3.896-2.292h7.271q0-.688.468-1.156.469-.469 1.136-.469V6.146q-.667 0-1.136-.479-.468-.479-.468-1.146H8.417q0 .667-.469 1.146-.469.479-1.136.479v2.979q.667 0 1.136.469.469.468.469 1.156Zm-8 6.375V5.979h2.604v8.542h13.458v2.604Zm6.395-6.375V4.521Z"/></svg>