<svg xmlns="http://www.w3.org/2000/svg" height="40" viewBox="0 -960 960 960" width="40"><path d="M142.666-224V-554.333v16.334V-736v512ZM721.333-92 567.667-246.333q-14-13.334-20.167-29.671-6.167-16.338-6.167-33.676 0-35.165 24.885-62.742Q591.103-400 630.983-400q31.017 0 48.734 14.321 17.717 14.32 41.641 38.169 21.663-21.87 39.534-37.18Q778.764-400 811.179-400q41.356 0 65.755 28.167 24.399 28.167 24.399 62.668 0 16.172-6.457 32.93-6.458 16.758-19.372 30.164L721.333-92.001ZM142.666-648.666h674.668V-736H142.666v87.334ZM431.667-140h-373v-680h842.666v324q-38.122-26.773-84.028-42.553-45.907-15.78-95.972-15.78-54.999 0-103.957 19.646-48.957 19.645-86.374 53.353H142.666V-224h272.001q1 21.891 5.476 43.078 4.476 21.187 11.524 40.922Z"/></svg>