<svg xmlns="http://www.w3.org/2000/svg" height="40" width="40"><path d="M31.417 27.583 14.125 10.417 19 5.667Q19.25 5.458 19.5 5.333Q19.75 5.208 20.083 5.208Q20.417 5.208 20.667 5.333Q20.917 5.458 21.167 5.667L28.958 13.292Q30.625 14.917 31.646 17.229Q32.667 19.542 32.667 22.042Q32.667 23.208 32.354 24.708Q32.042 26.208 31.417 27.583ZM32.833 35.917 28.208 31.333Q26.708 32.708 24.562 33.521Q22.417 34.333 20.167 34.333Q15 34.333 11.312 30.75Q7.625 27.167 7.625 22Q7.625 19.583 8.5 17.458Q9.375 15.333 10.75 13.917L4.417 7.542Q4.125 7.25 4.104 6.812Q4.083 6.375 4.417 6Q4.75 5.708 5.167 5.708Q5.583 5.708 5.917 6L34.333 34.417Q34.625 34.75 34.646 35.188Q34.667 35.625 34.333 35.917Q34.042 36.292 33.604 36.292Q33.167 36.292 32.833 35.917Z"/></svg>