<svg xmlns="http://www.w3.org/2000/svg" height="20" width="20"><path d="M5.062 16.583h9.876v-.166q-1.063-.979-2.323-1.469-1.261-.49-2.615-.49-1.333 0-2.583.48-1.25.479-2.355 1.458Zm-.812-.687q1.125-1.084 2.594-1.719 1.468-.635 3.156-.635 1.708 0 3.167.635 1.458.635 2.583 1.719V5.167H4.25ZM10 11.479q-1.062 0-1.781-.739Q7.5 10 7.5 8.938q0-1.042.729-1.771.729-.729 1.771-.729 1.062 0 1.802.718.74.719.74 1.782 0 1.062-.74 1.802-.74.739-1.802.739Zm0-.917q.667 0 1.146-.479.479-.479.479-1.145 0-.646-.479-1.115T10 7.354q-.646 0-1.115.469-.468.469-.468 1.115 0 .666.468 1.145.469.479 1.115.479ZM3.333 17.5V4.25h2.729V2.312h.98V4.25h5.979V2.312h.917V4.25h2.729V17.5ZM10 8.938Zm-4.938 7.645H14.938Z"/></svg>