<svg xmlns="http://www.w3.org/2000/svg" height="24" width="24"><path d="M12 14.1Q11.55 14.1 11.225 13.787Q10.9 13.475 10.9 13Q10.9 12.55 11.213 12.225Q11.525 11.9 12 11.9Q12.45 11.9 12.775 12.212Q13.1 12.525 13.1 13Q13.1 13.45 12.788 13.775Q12.475 14.1 12 14.1ZM8 14.1Q7.55 14.1 7.225 13.787Q6.9 13.475 6.9 13Q6.9 12.55 7.213 12.225Q7.525 11.9 8 11.9Q8.45 11.9 8.775 12.212Q9.1 12.525 9.1 13Q9.1 13.45 8.787 13.775Q8.475 14.1 8 14.1ZM16 14.1Q15.55 14.1 15.225 13.787Q14.9 13.475 14.9 13Q14.9 12.55 15.225 12.225Q15.55 11.9 16 11.9Q16.45 11.9 16.775 12.212Q17.1 12.525 17.1 13Q17.1 13.45 16.788 13.775Q16.475 14.1 16 14.1ZM12 18.1Q11.55 18.1 11.225 17.775Q10.9 17.45 10.9 17Q10.9 16.55 11.213 16.225Q11.525 15.9 12 15.9Q12.45 15.9 12.775 16.212Q13.1 16.525 13.1 17Q13.1 17.45 12.788 17.775Q12.475 18.1 12 18.1ZM8 18.1Q7.55 18.1 7.225 17.775Q6.9 17.45 6.9 17Q6.9 16.55 7.213 16.225Q7.525 15.9 8 15.9Q8.45 15.9 8.775 16.212Q9.1 16.525 9.1 17Q9.1 17.45 8.787 17.775Q8.475 18.1 8 18.1ZM16 18.1Q15.55 18.1 15.225 17.775Q14.9 17.45 14.9 17Q14.9 16.55 15.225 16.225Q15.55 15.9 16 15.9Q16.45 15.9 16.775 16.212Q17.1 16.525 17.1 17Q17.1 17.45 16.788 17.775Q16.475 18.1 16 18.1ZM5.275 22.225Q4.225 22.225 3.488 21.488Q2.75 20.75 2.75 19.7V6.25Q2.75 5.2 3.488 4.462Q4.225 3.725 5.275 3.725H6.225V2.825Q6.225 2.375 6.562 2.05Q6.9 1.725 7.325 1.725Q7.775 1.725 8.1 2.05Q8.425 2.375 8.425 2.825V3.725H15.575V2.825Q15.575 2.375 15.913 2.05Q16.25 1.725 16.675 1.725Q17.125 1.725 17.45 2.05Q17.775 2.375 17.775 2.825V3.725H18.725Q19.775 3.725 20.513 4.462Q21.25 5.2 21.25 6.25V19.7Q21.25 20.75 20.513 21.488Q19.775 22.225 18.725 22.225ZM5.275 19.7H18.725Q18.725 19.7 18.725 19.7Q18.725 19.7 18.725 19.7V10.05H5.275V19.7Q5.275 19.7 5.275 19.7Q5.275 19.7 5.275 19.7ZM5.275 8.175H18.725V6.25Q18.725 6.25 18.725 6.25Q18.725 6.25 18.725 6.25H5.275Q5.275 6.25 5.275 6.25Q5.275 6.25 5.275 6.25ZM5.275 8.175V6.25Q5.275 6.25 5.275 6.25Q5.275 6.25 5.275 6.25Q5.275 6.25 5.275 6.25Q5.275 6.25 5.275 6.25V8.175Z"/></svg>