<svg xmlns="http://www.w3.org/2000/svg" height="40" width="40"><path d="M5.875 32.792q-1 0-1.687-.709-.688-.708-.688-1.708v-16.25q0-.292.188-.5.187-.208.479-.208.291 0 .479.208.187.208.187.458v16.292q0 .458.292.75t.75.292h25.417q.291 0 .5.208.208.208.208.458 0 .292-.208.5-.209.209-.5.209Zm4.375-4.375q-1 0-1.688-.709-.687-.708-.687-1.666V7.375q0-.958.687-1.667Q9.25 5 10.25 5H19q.5 0 .938.188.437.187.812.52l1 1.042h12.417q.958 0 1.666.688.709.687.709 1.687v16.917q0 .958-.709 1.666-.708.709-1.666.709Zm0-1.375h23.917q.416 0 .708-.292t.292-.708V9.125q0-.458-.292-.75t-.708-.292h-13L19.75 6.625q-.167-.125-.354-.208-.188-.084-.396-.084h-8.75q-.458 0-.75.292t-.292.75v18.667q0 .416.292.708t.75.292Zm-1.042 0V6.333 27.042Z"/></svg>