<svg xmlns="http://www.w3.org/2000/svg" height="48" width="48"><path d="m34.2 46.75-.3-2.5q-1.05-.25-1.925-.8T30.5 42.3l-2.15 1.05-2.15-3.4 2-1.55q-.35-.8-.35-1.85t.35-1.9l-2-1.55 2.15-3.4 2.15.95q.6-.5 1.475-1.025.875-.525 1.925-.775l.3-2.6H38l.35 2.6q1.05.25 1.925.75t1.475 1.05l2.15-.95 2.2 3.4-2.05 1.55q.3.85.3 1.9 0 1.05-.3 1.85l2.05 1.55-2.2 3.4-2.15-1.05q-.6.6-1.475 1.15-.875.55-1.925.8l-.35 2.5Zm1.95-5.4q1.95 0 3.375-1.4t1.425-3.45q0-2.05-1.425-3.425T36.15 31.7q-2.05 0-3.45 1.375-1.4 1.375-1.4 3.425t1.4 3.45q1.4 1.4 3.45 1.4ZM-.2 43.4 42.9.4v24.15h-6.5q-4.4 0-8.175 3.675Q24.45 31.9 24.45 36.25v7.15Z"/></svg>