<svg xmlns="http://www.w3.org/2000/svg" height="20" viewBox="0 -960 960 960" width="20"><path d="M480.92-480Zm-432.76.32q0-15.7 4.26-30.85 4.27-15.16 10.97-29.85 63.8-109.87 175.21-173.74Q350-778 479.55-778q138 0 251.22 69.92 113.22 69.93 176.31 187.47 7.07 14.15 2.73 29.3-4.35 15.16-18.5 22.23-14.16 7.08-30.31 2.73-16.15-4.34-23.23-18.5-26-49-64-89.07-38-40.08-85-68.58t-100.19-43Q535.4-700 480-700q-114 0-211.37 59.08T119-480q50 100 148.58 159.73 98.57 59.73 208.96 62.27 13.77.62 25.38 10.23 11.62 9.62 15 24.77 3.39 16.77-6.24 28.88Q501.06-182 486.31-182q-128.62 3.31-243.34-62.97-114.72-66.27-179.58-174.65-8.74-13.72-11.99-29.04-3.24-15.33-3.24-31.02ZM480-304.92q-72.95 0-124.01-51.09-51.07-51.09-51.07-124.08t51.09-123.99q51.09-51 124.08-51 70.74 0 121.36 50.07 50.63 50.06 52.63 120.61 0 1.32-.58 2.46t-2.12 1.63l-53.15 49.69q-28.92 21.93-48 53.27-19.08 31.35-29.31 67.5-9 3.16-20.12 4.04-11.13.89-20.8.89Zm.12-77.08q40.88 0 69.38-28.62 28.5-28.62 28.5-69.5 0-40.88-28.62-69.38-28.62-28.5-69.5-28.5-40.88 0-69.38 28.62-28.5 28.62-28.5 69.5 0 40.88 28.62 69.38 28.62 28.5 69.5 28.5Zm261.7 276.38q-62.97 0-105.97-44.41-43-44.42-42.7-107.44 0-33.53 15.66-62.71 15.65-29.19 41.81-51.44l31.15-24.53q25.32-22.08 58.93-22.08t59.3 22.08l31.54 24.53q25.8 22.17 42.32 52.09 16.52 29.91 16.14 62.97-.39 61.87-43.27 106.4-42.88 44.54-104.91 44.54Zm.16-78q28.96 0 49.49-21.43 20.53-21.42 20.91-51.42 0-16.99-10.19-30.68-10.19-13.7-23.81-27.08l-28.53-22.54q-3.47-3.46-8.47-3.46t-8.46 3.46l-30.15 22.54q-14 13.38-23 26.74-9 13.35-9 30.19 0 29.68 20.69 51.68t50.52 22Zm-.6-81.61Z"/></svg>