<svg xmlns="http://www.w3.org/2000/svg" version="1.1" width="3300" height="2000"><g id="Notes"><style>
    text {
      font-family: monospace;
      text-anchor: middle;
    }
    text.emphasis {
      font-weight:bold;
    }
    text.lanchor {
      text-anchor: start;
    }
  </style><rect height="2200" id="artboard" fill="white" width="3300" x="0" y="0"/><line id="" style="fill:none;stroke:black;stroke-width:0.5;" x1="263" x2="3036" y1="292" y2="292"/><text class="lanchor emphasis" transform="matrix(1 0 0 1 263 322)">Weight/Scale Variations</text><text transform="matrix(1 0 0 1 559.711 322)">Ultralight</text><text transform="matrix(1 0 0 1 856.422 322)">Thin</text><text transform="matrix(1 0 0 1 1153.13 322)">Light</text><text transform="matrix(1 0 0 1 1449.84 322)">Regular</text><text transform="matrix(1 0 0 1 1746.56 322)">Medium</text><text transform="matrix(1 0 0 1 2043.27 322)">Semibold</text><text transform="matrix(1 0 0 1 2339.98 322)">Bold</text><text transform="matrix(1 0 0 1 2636.69 322)">Heavy</text><text transform="matrix(1 0 0 1 2933.4 322)">Black</text><text id="template-version" style="text-anchor: end;" transform="matrix(1 0 0 1 3036 1933)">Template v.1.0</text><text class="lanchor" transform="matrix(1 0 0 1 263 726)">Small</text><text class="lanchor" transform="matrix(1 0 0 1 263 1156)">Medium</text><text class="lanchor" transform="matrix(1 0 0 1 263 1586)">Large</text></g><g id="Guides"><g id="H-reference" style="fill:#27AAE1;stroke:none;" transform="matrix(1 0 0 1 339 696)"><path d="M 54.9316 0 L 57.666 0 L 30.5664 -70.459 L 28.0762 -70.459 L 0.976562 0 L 3.66211 0 L 12.9395 -24.4629 L 45.7031 -24.4629 Z M 29.1992 -67.0898 L 29.4434 -67.0898 L 44.8242 -26.709 L 13.8184 -26.709 Z"/></g><line id="Baseline-S" style="fill:none;stroke:#27AAE1;opacity:1;stroke-width:0.577;" x1="263" x2="3036" y1="696" y2="696"/><line id="Capline-S" style="fill:none;stroke:#27AAE1;opacity:1;stroke-width:0.577;" x1="263" x2="3036" y1="625.541" y2="625.541"/><g id="H-reference" style="fill:#27AAE1;stroke:none;" transform="matrix(1 0 0 1 339 1126)"><path d="M 54.9316 0 L 57.666 0 L 30.5664 -70.459 L 28.0762 -70.459 L 0.976562 0 L 3.66211 0 L 12.9395 -24.4629 L 45.7031 -24.4629 Z M 29.1992 -67.0898 L 29.4434 -67.0898 L 44.8242 -26.709 L 13.8184 -26.709 Z"/></g><line id="Baseline-M" style="fill:none;stroke:#27AAE1;opacity:1;stroke-width:0.577;" x1="263" x2="3036" y1="1126" y2="1126"/><line id="Capline-M" style="fill:none;stroke:#27AAE1;opacity:1;stroke-width:0.577;" x1="263" x2="3036" y1="1055.54" y2="1055.54"/><g id="H-reference" style="fill:#27AAE1;stroke:none;" transform="matrix(1 0 0 1 339 1556)"><path d="M 54.9316 0 L 57.666 0 L 30.5664 -70.459 L 28.0762 -70.459 L 0.976562 0 L 3.66211 0 L 12.9395 -24.4629 L 45.7031 -24.4629 Z M 29.1992 -67.0898 L 29.4434 -67.0898 L 44.8242 -26.709 L 13.8184 -26.709 Z"/></g><line id="Baseline-L" style="fill:none;stroke:#27AAE1;opacity:1;stroke-width:0.577;" x1="263" x2="3036" y1="1556" y2="1556"/><line id="Capline-L" style="fill:none;stroke:#27AAE1;opacity:1;stroke-width:0.577;" x1="263" x2="3036" y1="1485.54" y2="1485.54"/><rect height="119.336" id="left-margin" style="fill:darkred;stroke:none;opacity:0.4;" width="12.4512" x="1394.06" y="1030.79"/><rect height="119.336" id="right-margin" style="fill:darkgreen;stroke:none;opacity:0.4;" width="12.4512" x="1502.5112" y="1030.79"/><rect x="1406.5112" y="1045" width="96" height="96" fill="none" stroke="blue" stroke-dasharray="5"/><rect x="1394.06" y="1030.79" width="120.9024" height="119.336" fill="none" stroke="blue"/></g><g id="Symbols"><g id="Bold-L" transform="matrix(1 0 0 1 2266 1556)"><path d="M62.001 11.129  56.034 25.319 Q54.96 28.228 52.151 29.273 Q49.343 30.318 46.44 29.27 Q43.376 28.222 42.248 25.319 Q41.119 22.417 42.409 19.353 L47.085 8.308 Q30.234 2.869 19.955 -11.194 Q9.675 -25.255 9.675 -43.213 V-75.771 Q9.675 -87.233 17.726 -95.175 Q25.777 -103.116 37.329 -103.116 Q39.93 -103.116 42.399 -102.781 Q44.866 -102.447 47.246 -101.423 L84.253 -86.185 Q86.43 -85.263 86.43 -82.62 Q86.43 -79.977 84.092 -79.09 L64.661 -71.914 V-62.642 L140.852 -12.816 Q142.156 -11.829 143.101 -10.604 Q144.048 -9.377 144.319 -7.979 L148.914 16.37 Q149.479 19.758 147.376 22.096 Q145.273 24.433 142.102 24.433 H137.63 Q135.895 24.433 134.315 23.662 Q132.735 22.893 131.73 21.267 L125.715 11.129 H91.832 V25.239 Q91.832 28.399 89.666 30.447 Q87.502 32.495 84.266 32.495 Q81.03 32.495 79.053 30.337 Q77.078 28.182 77.078 25.078 V11.129 H62.001 Z M37.358 -70.866 Q35.37 -70.866 34.053 -72.185 Q32.734 -73.503 32.734 -75.491 Q32.734 -77.477 34.053 -78.727 Q35.37 -79.977 37.358 -79.977 Q39.345 -79.977 40.595 -78.727 Q41.844 -77.477 41.844 -75.491 Q41.844 -73.503 40.595 -72.185 Q39.345 -70.866 37.358 -70.866 Z M64.177 -3.464 H128.274 L112.069 -14.026 H64.177 Q57.736 -14.026 52.248 -16.404 Q46.763 -18.782 42.651 -22.814 Q38.781 -26.522 36.765 -31.055 Q34.749 -35.586 34.749 -41.116 Q34.749 -44.292 36.907 -46.372 Q39.063 -48.452 42.104 -48.452 Q45.108 -48.452 46.983 -46.638 Q48.859 -44.824 49.191 -42.325 Q48.939 -36.359 53.498 -32.569 Q58.055 -28.78 64.177 -28.78 H89.574 L50.068 -54.661 V-75.784 Q50.068 -80.972 46.374 -84.668 Q42.681 -88.362 37.263 -88.362 Q31.847 -88.362 28.058 -84.734 Q24.268 -81.106 24.268 -75.784 V-43.228 Q24.268 -26.606 35.956 -15.035 Q47.643 -3.464 64.177 -3.464 Z"/></g><g id="Semibold-L" transform="matrix(1 0 0 1 1970.27 1556)"><path d="M62.491 7.274  55.193 24.618 Q54.259 27.035 51.906 27.906 Q49.552 28.777 47.141 27.867 Q44.639 26.959 43.684 24.584 Q42.731 22.207 43.812 19.703 L49.889 5.223 Q32.689 0.485 22.057 -13.506 Q11.428 -27.498 11.428 -45.458 V-75.28 Q11.428 -86.182 19.097 -93.738 Q26.768 -101.294 37.679 -101.294 Q40.301 -101.294 42.715 -100.876 Q45.131 -100.459 47.527 -99.461 L82.431 -85.063 Q84.327 -84.279 84.292 -82.092 Q84.256 -79.908 82.27 -79.159 L63.679 -72.264 V-61.66 L137.417 -14.008 Q138.511 -13.232 139.281 -12.216 Q140.052 -11.199 140.323 -10.012 L144.919 13.005 Q145.483 16.112 143.521 18.345 Q141.558 20.577 138.596 20.577 H135.245 Q133.512 20.577 132.036 19.772 Q130.561 18.966 129.666 17.35 L124.314 7.274 H90.5 V24.608 Q90.5 27.253 88.686 28.997 Q86.872 30.742 84.177 30.742 Q81.484 30.742 79.807 28.936 Q78.129 27.13 78.129 24.516 V7.274 H62.491 Z M37.708 -70.516 Q35.72 -70.516 34.403 -71.834 Q33.084 -73.153 33.084 -75.139 Q33.084 -77.128 34.403 -78.377 Q35.72 -79.627 37.708 -79.627 Q39.695 -79.627 40.945 -78.377 Q42.194 -77.128 42.194 -75.139 Q42.194 -73.153 40.945 -71.834 Q39.695 -70.516 37.708 -70.516 Z M64.247 -5.005 H128.555 L112.209 -15.567 H64.247 Q58.105 -15.567 52.784 -17.841 Q47.464 -20.114 43.562 -24.005 Q39.763 -27.714 37.816 -32.221 Q35.872 -36.728 35.872 -42.238 Q35.872 -44.907 37.678 -46.645 Q39.484 -48.383 42.062 -48.383 Q44.657 -48.383 46.301 -46.743 Q47.948 -45.105 48.07 -42.815 Q47.817 -36.359 52.708 -32.149 Q57.597 -27.938 64.247 -27.938 H93.149 L51.4 -54.941 V-75.294 Q51.4 -80.915 47.388 -84.919 Q43.375 -88.923 37.612 -88.923 Q31.847 -88.923 27.777 -84.979 Q23.707 -81.036 23.707 -75.294 V-45.471 Q23.707 -28.58 35.559 -16.793 Q47.409 -5.005 64.247 -5.005 Z"/></g><g id="Medium-L" transform="matrix(1 0 0 1 1674.31 1556)"><path d="M62.86 4.381  54.562 24.092 Q53.733 26.142 51.723 26.88 Q49.71 27.619 47.667 26.816 Q45.585 26.013 44.763 24.031 Q43.941 22.049 44.863 19.966 L51.992 2.909 Q34.528 -1.303 23.636 -15.241 Q12.742 -29.182 12.742 -47.14 V-74.912 Q12.742 -85.393 20.126 -92.659 Q27.509 -99.927 37.942 -99.927 Q40.577 -99.927 42.952 -99.448 Q45.327 -98.969 47.736 -97.988 L81.064 -84.223 Q82.749 -83.542 82.687 -81.697 Q82.626 -79.854 80.902 -79.213 L62.944 -72.527 V-60.925 L134.84 -14.901 Q135.776 -14.284 136.416 -13.426 Q137.054 -12.566 137.325 -11.538 L141.921 10.481 Q142.485 13.379 140.628 15.532 Q138.77 17.684 135.966 17.684 H133.459 Q131.724 17.684 130.327 16.854 Q128.931 16.022 128.12 14.412 L123.261 4.381 H89.5 V24.134 Q89.5 26.393 87.949 27.911 Q86.398 29.428 84.111 29.428 Q81.826 29.428 80.372 27.885 Q78.917 26.342 78.917 24.095 V4.381 H62.86 Z M37.971 -70.253 Q35.985 -70.253 34.666 -71.571 Q33.347 -72.89 33.347 -74.877 Q33.347 -76.865 34.666 -78.114 Q35.985 -79.364 37.971 -79.364 Q39.958 -79.364 41.207 -78.114 Q42.457 -76.865 42.457 -74.877 Q42.457 -72.89 41.207 -71.571 Q39.958 -70.253 37.971 -70.253 Z M64.3 -6.163 H128.765 L112.314 -16.725 H64.3 Q58.382 -16.725 53.185 -18.92 Q47.99 -21.114 44.245 -24.899 Q40.498 -28.607 38.605 -33.097 Q36.712 -37.584 36.712 -43.078 Q36.712 -45.369 38.255 -46.85 Q39.8 -48.33 42.03 -48.33 Q44.318 -48.33 45.79 -46.822 Q47.264 -45.315 47.229 -43.184 Q46.977 -36.359 52.114 -31.832 Q57.253 -27.308 64.3 -27.308 H95.831 L52.4 -55.151 V-74.925 Q52.4 -80.873 48.148 -85.108 Q43.897 -89.344 37.871 -89.344 Q31.847 -89.344 27.567 -85.163 Q23.286 -80.983 23.286 -74.925 V-47.154 Q23.286 -30.062 35.261 -18.112 Q47.233 -6.163 64.3 -6.163 Z"/></g><g id="Regular-L" transform="matrix(1 0 0 1 1378.56 1556)"><path d="M63.129 2.261  54.099 23.707 Q53.348 25.487 51.587 26.129 Q49.826 26.771 48.053 26.045 Q46.279 25.319 45.553 23.626 Q44.828 21.933 45.634 20.159 L53.535 1.213 Q35.878 -2.614 24.792 -16.515 Q13.706 -30.415 13.706 -48.373 V-74.643 Q13.706 -84.814 20.88 -91.869 Q28.054 -98.924 38.136 -98.924 Q40.78 -98.924 43.126 -98.4 Q45.473 -97.876 47.891 -96.908 L80.061 -83.605 Q81.593 -83 81.512 -81.409 Q81.431 -79.816 79.899 -79.251 L62.404 -72.721 V-60.385 L132.951 -15.557 Q133.771 -15.054 134.313 -14.313 Q134.857 -13.569 135.127 -12.655 L139.723 8.63 Q140.287 11.373 138.507 13.469 Q136.727 15.564 134.039 15.564 H132.148 Q130.413 15.564 129.074 14.714 Q127.736 13.863 126.984 12.258 L122.49 2.261 H88.768 V23.788 Q88.768 25.763 87.409 27.112 Q86.051 28.464 84.063 28.464 Q82.076 28.464 80.786 27.112 Q79.496 25.763 79.496 23.788 V2.261 H63.129 Z M38.165 -70.06 Q36.176 -70.06 34.859 -71.379 Q33.54 -72.696 33.54 -74.685 Q33.54 -76.671 34.859 -77.921 Q36.176 -79.171 38.165 -79.171 Q40.151 -79.171 41.401 -77.921 Q42.651 -76.671 42.651 -74.685 Q42.651 -72.696 41.401 -71.379 Q40.151 -70.06 38.165 -70.06 Z M64.339 -7.011 H128.919 L112.391 -17.573 H64.339 Q58.585 -17.573 53.48 -19.71 Q48.375 -21.846 44.747 -25.555 Q41.038 -29.264 39.184 -33.738 Q37.329 -38.213 37.329 -43.696 Q37.329 -45.706 38.681 -47 Q40.03 -48.291 42.006 -48.291 Q44.07 -48.291 45.416 -46.88 Q46.763 -45.469 46.611 -43.454 Q46.359 -36.359 51.681 -31.602 Q57.002 -26.845 64.339 -26.845 H97.798 L53.132 -55.306 V-74.656 Q53.132 -80.841 48.706 -85.247 Q44.279 -89.652 38.063 -89.652 Q31.847 -89.652 27.413 -85.298 Q22.978 -80.944 22.978 -74.656 V-48.388 Q22.978 -31.147 35.041 -19.079 Q47.106 -7.011 64.339 -7.011 Z"/></g><g id="Light-L" transform="matrix(1 0 0 1 1082.77 1556)"><path d="M62.881 0.182  53.696 21.909 Q53.095 23.286 51.785 23.773 Q50.478 24.258 49.12 23.681 Q47.762 23.104 47.195 21.82 Q46.625 20.538 47.277 19.168 L55.551 -0.648 Q38.384 -3.943 27.503 -17.259 Q16.622 -30.573 16.622 -48.019 V-73.427 Q16.622 -82.802 23.312 -89.405 Q30.004 -96.008 39.284 -96.008 Q41.725 -96.008 43.816 -95.592 Q45.906 -95.178 48.109 -94.302 L77.332 -82.147 Q78.771 -81.605 78.674 -80.028 Q78.579 -78.451 77.139 -77.979 L61.846 -72.163 V-59.082 L131.493 -13.603 Q132.344 -13.071 132.855 -12.353 Q133.368 -11.636 133.576 -10.764 L137.18 6.987 Q137.59 9.296 136.169 10.971 Q134.749 12.648 132.567 12.648 H130.969 Q129.569 12.648 128.436 11.907 Q127.302 11.165 126.705 9.839 L122.642 0.182 H87.341 V21.957 Q87.341 23.494 86.306 24.521 Q85.269 25.548 83.719 25.548 Q82.17 25.548 81.22 24.521 Q80.272 23.494 80.272 21.957 V0.182 H62.881 Z M39.319 -69.223 Q37.541 -69.223 36.301 -70.465 Q35.059 -71.706 35.059 -73.506 Q35.059 -75.307 36.302 -76.494 Q37.544 -77.682 39.343 -77.682 Q41.143 -77.682 42.331 -76.515 Q43.52 -75.347 43.52 -73.483 Q43.52 -71.705 42.352 -70.463 Q41.185 -69.223 39.319 -69.223 Z M64.681 -6.887 H128.826 L110.313 -19.061 H64.06 Q58.398 -19.061 53.416 -21.292 Q48.433 -23.522 44.995 -27.353 Q41.596 -30.907 40.006 -35.056 Q38.415 -39.205 38.415 -44.347 Q38.415 -45.919 39.442 -46.888 Q40.469 -47.857 42.006 -47.857 Q43.565 -47.857 44.621 -46.772 Q45.677 -45.687 45.495 -44.105 Q45.181 -36.514 50.766 -31.323 Q56.35 -26.132 64.06 -26.132 H99.317 L54.775 -55.244 V-73.446 Q54.775 -79.898 50.255 -84.418 Q45.737 -88.939 39.21 -88.939 Q32.808 -88.939 28.249 -84.469 Q23.691 -80.001 23.691 -73.446 V-48.022 Q23.691 -30.883 35.646 -18.884 Q47.601 -6.887 64.681 -6.887 Z"/></g><g id="Thin-L" transform="matrix(1 0 0 1 787.282 1556)"><path d="M62.633 -1.895  53.293 20.109 Q52.842 21.088 51.985 21.417 Q51.129 21.748 50.187 21.317 Q49.246 20.887 48.835 20.014 Q48.425 19.142 48.92 18.174 L57.566 -2.509 Q40.888 -5.271 30.212 -18.002 Q19.535 -30.733 19.535 -47.664 V-72.213 Q19.535 -80.791 25.745 -86.943 Q31.953 -93.095 40.43 -93.095 Q42.67 -93.095 44.505 -92.787 Q46.34 -92.48 48.325 -91.698 L74.602 -80.69 Q75.949 -80.209 75.837 -78.648 Q75.726 -77.087 74.38 -76.708 L61.288 -71.605 V-57.781 L130.035 -11.65 Q130.919 -11.086 131.399 -10.394 Q131.88 -9.704 132.027 -8.872 L134.637 5.344 Q134.892 7.217 133.831 8.475 Q132.77 9.735 131.095 9.735 H129.79 Q128.726 9.735 127.797 9.101 Q126.867 8.467 126.426 7.421 L122.792 -1.895 H85.916 V20.129 Q85.916 21.227 85.201 21.93 Q84.487 22.635 83.374 22.635 Q82.262 22.635 81.654 21.93 Q81.047 21.227 81.047 20.129 V-1.895 H62.633 Z M40.475 -68.386 Q38.905 -68.386 37.742 -69.55 Q36.58 -70.716 36.58 -72.329 Q36.58 -73.943 37.744 -75.068 Q38.91 -76.194 40.522 -76.194 Q42.136 -76.194 43.262 -75.109 Q44.387 -74.025 44.387 -72.282 Q44.387 -70.711 43.302 -69.549 Q42.218 -68.386 40.475 -68.386 Z M65.021 -6.763 H128.734 L108.236 -20.55 H63.781 Q58.213 -20.55 53.351 -22.873 Q48.489 -25.195 45.244 -29.152 Q42.154 -32.55 40.827 -36.375 Q39.5 -40.198 39.5 -44.999 Q39.5 -46.132 40.204 -46.777 Q40.908 -47.424 42.006 -47.424 Q43.062 -47.424 43.826 -46.663 Q44.592 -45.903 44.379 -44.757 Q44.002 -36.668 49.85 -31.044 Q55.699 -25.418 63.781 -25.418 H100.838 L56.418 -55.181 V-72.237 Q56.418 -78.955 51.806 -83.59 Q47.193 -88.225 40.358 -88.225 Q33.769 -88.225 29.086 -83.642 Q24.405 -79.058 24.405 -72.237 V-47.656 Q24.405 -30.617 36.251 -18.691 Q48.098 -6.763 65.021 -6.763 Z"/></g><g id="Ultralight-L" transform="matrix(1 0 0 1 491.205 1556)"><path d="M62.484 -3.141  53.051 19.031 Q52.69 19.768 52.105 20.005 Q51.519 20.24 50.828 19.898 Q50.136 19.558 49.82 18.931 Q49.504 18.305 49.907 17.579 L58.776 -3.625 Q42.391 -6.068 31.839 -18.447 Q21.285 -30.826 21.285 -47.451 V-71.482 Q21.285 -79.583 27.204 -85.464 Q33.122 -91.345 41.119 -91.345 Q43.236 -91.345 44.918 -91.103 Q46.601 -90.861 48.456 -90.136 L72.966 -79.816 Q74.256 -79.372 74.135 -77.821 Q74.014 -76.268 72.724 -75.946 L60.953 -71.269 V-56.999 L129.161 -10.478 Q130.063 -9.894 130.524 -9.219 Q130.987 -8.543 131.096 -7.737 L133.112 4.357 Q133.273 5.971 132.428 6.979 Q131.582 7.985 130.213 7.985 H129.084 Q128.221 7.985 127.413 7.417 Q126.607 6.848 126.259 5.969 L122.884 -3.141 H85.059 V19.031 Q85.059 19.866 84.539 20.375 Q84.018 20.885 83.168 20.885 Q82.318 20.885 81.915 20.375 Q81.512 19.866 81.512 19.031 V-3.141 H62.484 Z M41.169 -67.883 Q39.724 -67.883 38.608 -69.002 Q37.491 -70.123 37.491 -71.623 Q37.491 -73.124 38.61 -74.212 Q39.73 -75.301 41.23 -75.301 Q42.731 -75.301 43.82 -74.265 Q44.908 -73.23 44.908 -71.561 Q44.908 -70.116 43.873 -69.001 Q42.838 -67.883 41.169 -67.883 Z M65.226 -6.689 H128.678 L106.989 -21.443 H63.613 Q58.102 -21.443 53.312 -23.822 Q48.525 -26.2 45.392 -30.231 Q42.489 -33.537 41.32 -37.165 Q40.151 -40.793 40.151 -45.389 Q40.151 -46.259 40.661 -46.711 Q41.17 -47.162 42.006 -47.162 Q42.76 -47.162 43.35 -46.598 Q43.941 -46.034 43.708 -45.147 Q43.296 -36.762 49.302 -30.876 Q55.309 -24.991 63.613 -24.991 H101.749 L57.405 -55.144 V-71.511 Q57.405 -78.389 52.737 -83.092 Q48.069 -87.797 41.046 -87.797 Q34.346 -87.797 29.589 -83.144 Q24.832 -78.492 24.832 -71.511 V-47.437 Q24.832 -30.459 36.613 -18.573 Q48.394 -6.689 65.226 -6.689 Z"/></g><g id="Bold-M" transform="matrix(1 0 0 1 2281.8 1126)"><path d="M48.938 3.145  45.75 10.833 Q44.562 13.645 41.75 14.864 Q38.938 16.083 36 15.02 Q32.812 13.833 31.594 10.864 Q30.375 7.895 31.688 4.833 L33.812 0.02 Q21.562 -5.009 14.281 -15.712 Q7 -26.417 7 -39.639 V-65.73 Q7 -75.292 13.594 -81.761 Q20.188 -88.23 29.75 -88.23 Q32.19 -88.23 34.532 -87.699 Q36.875 -87.167 39.062 -86.292 L67.938 -74.417 Q70.312 -73.421 70.281 -70.857 Q70.25 -68.292 67.875 -67.292 L52.375 -61.417 V-57.105 L110.25 -18.667 Q111.574 -17.715 112.481 -16.465 Q113.39 -15.215 113.625 -13.667 L117.188 6.458 Q117.688 8.959 115.995 10.865 Q114.302 12.77 111.786 12.77 H107.5 Q106.25 12.77 105.094 12.208 Q103.938 11.645 103.089 10.566 L97.65 3.145 H72.688 V10.333 Q72.688 13.439 70.438 15.605 Q68.188 17.77 65.094 17.77 Q62.001 17.77 59.844 15.52 Q57.688 13.27 57.688 10.208 V3.145 H48.938 Z M29.75 -60.792 Q27.812 -60.792 26.438 -62.167 Q25.062 -63.542 25.062 -65.48 Q25.062 -67.417 26.438 -68.792 Q27.812 -70.167 29.75 -70.167 Q31.688 -70.167 33.062 -68.792 Q34.438 -67.417 34.438 -65.48 Q34.438 -63.542 33.062 -62.167 Q31.688 -60.792 29.75 -60.792 Z M49.938 -11.855 H93.375 L85.312 -17.167 H49.938 Q45.267 -17.167 41.352 -18.949 Q37.438 -20.73 34.312 -23.73 Q31.938 -26.042 30.156 -29.4 Q28.375 -32.756 28.375 -35.98 Q28.375 -39.114 30.625 -41.235 Q32.875 -43.355 35.875 -43.355 Q38.636 -43.355 40.538 -41.761 Q42.438 -40.167 43.125 -37.667 Q43.562 -35.292 45.44 -33.73 Q47.316 -32.167 49.938 -32.167 H62.5 L37.375 -48.792 V-65.73 Q37.375 -68.824 35.188 -71.027 Q33 -73.23 29.75 -73.23 Q26.5 -73.23 24.25 -71.105 Q22 -68.98 22 -65.73 V-39.667 Q22 -28.079 30.185 -19.967 Q38.37 -11.855 49.938 -11.855 Z"/></g><g id="Semibold-M" transform="matrix(1 0 0 1 1985.97 1126)"><path d="M49.426 -0.876  44.88 10.071 Q43.91 12.45 41.532 13.451 Q39.155 14.453 36.706 13.553 Q34.116 12.583 33.115 10.13 Q32.114 7.678 33.155 5.159 L36.693 -3.186 Q24.117 -7.509 16.483 -18.104 Q8.848 -28.7 8.848 -41.976 V-65.241 Q8.848 -74.151 15.034 -80.266 Q21.22 -86.382 30.13 -86.382 Q32.57 -86.382 34.859 -85.77 Q37.146 -85.156 39.334 -84.281 L66.09 -73.276 Q68.085 -72.441 68.054 -70.312 Q68.022 -68.184 66.028 -67.346 L51.343 -61.797 V-56.072 L106.718 -19.917 Q107.824 -19.129 108.541 -18.096 Q109.26 -17.064 109.495 -15.787 L113.058 2.98 Q113.502 5.264 112 7.006 Q110.499 8.749 108.199 8.749 H105.055 Q103.805 8.749 102.73 8.159 Q101.655 7.569 100.931 6.498 L96.236 -0.876 H71.329 V9.68 Q71.329 12.279 69.459 14.1 Q67.59 15.923 64.999 15.923 Q62.409 15.923 60.591 14.053 Q58.775 12.183 58.775 9.61 V-0.876 H49.426 Z M30.13 -60.412 Q28.192 -60.412 26.817 -61.787 Q25.442 -63.162 25.442 -65.1 Q25.442 -67.037 26.817 -68.412 Q28.192 -69.787 30.13 -69.787 Q32.068 -69.787 33.443 -68.412 Q34.818 -67.037 34.818 -65.1 Q34.818 -63.162 33.443 -61.787 Q32.068 -60.412 30.13 -60.412 Z M50.046 -13.431 H93.646 L85.475 -18.744 H50.046 Q45.648 -18.744 41.896 -20.416 Q38.144 -22.089 35.236 -24.98 Q32.916 -27.237 31.244 -30.576 Q29.57 -33.914 29.57 -37.121 Q29.57 -39.747 31.44 -41.524 Q33.31 -43.301 35.847 -43.301 Q38.203 -43.301 39.858 -41.842 Q41.514 -40.385 41.984 -38.211 Q42.367 -35.239 44.638 -33.267 Q46.907 -31.297 50.046 -31.297 H66.195 L38.788 -49.119 V-65.241 Q38.788 -68.782 36.275 -71.305 Q33.761 -73.827 30.13 -73.827 Q26.5 -73.827 23.951 -71.35 Q21.402 -68.871 21.402 -65.241 V-42.004 Q21.402 -30.099 29.777 -21.765 Q38.153 -13.431 50.046 -13.431 Z"/></g><g id="Medium-M" transform="matrix(1 0 0 1 1689.91 1126)"><path d="M49.794 -3.892  44.229 9.501 Q43.421 11.553 41.37 12.391 Q39.318 13.229 37.236 12.453 Q35.095 11.645 34.256 9.58 Q33.419 7.515 34.255 5.404 L38.854 -5.591 Q26.032 -9.384 18.134 -19.897 Q10.234 -30.412 10.234 -43.729 V-64.874 Q10.234 -73.295 16.114 -79.146 Q21.995 -84.996 30.416 -84.996 Q32.855 -84.996 35.102 -84.322 Q37.35 -83.649 39.538 -82.774 L64.704 -72.42 Q66.412 -71.706 66.381 -69.905 Q66.35 -68.102 64.641 -67.387 L50.568 -62.084 V-55.297 L104.067 -20.855 Q105.011 -20.189 105.586 -19.319 Q106.161 -18.449 106.396 -17.376 L109.959 0.37 Q110.364 2.491 109.005 4.111 Q107.645 5.733 105.509 5.733 H103.22 Q101.97 5.733 100.956 5.123 Q99.942 4.513 99.312 3.445 L95.176 -3.892 H70.31 V9.191 Q70.31 11.409 68.725 12.973 Q67.141 14.536 64.927 14.536 Q62.714 14.536 61.151 12.953 Q59.59 11.368 59.59 9.161 V-3.892 H49.794 Z M30.416 -60.126 Q28.479 -60.126 27.104 -61.501 Q25.729 -62.876 25.729 -64.814 Q25.729 -66.751 27.104 -68.126 Q28.479 -69.501 30.416 -69.501 Q32.354 -69.501 33.729 -68.126 Q35.104 -66.751 35.104 -64.814 Q35.104 -62.876 33.729 -61.501 Q32.354 -60.126 30.416 -60.126 Z M50.127 -14.614 H93.85 L85.597 -19.926 H50.127 Q45.932 -19.926 42.304 -21.516 Q38.674 -23.107 35.929 -25.917 Q33.65 -28.135 32.059 -31.457 Q30.468 -34.781 30.468 -37.977 Q30.468 -40.222 32.051 -41.741 Q33.636 -43.26 35.828 -43.26 Q37.876 -43.26 39.349 -41.904 Q40.821 -40.547 41.127 -38.619 Q41.47 -35.197 44.035 -32.921 Q46.6 -30.646 50.127 -30.646 H68.968 L39.847 -49.364 V-64.874 Q39.847 -68.752 37.09 -71.514 Q34.331 -74.276 30.416 -74.276 Q26.5 -74.276 23.727 -71.532 Q20.954 -68.79 20.954 -64.874 V-43.757 Q20.954 -31.614 29.471 -23.114 Q37.989 -14.614 50.127 -14.614 Z"/></g><g id="Regular-M" transform="matrix(1 0 0 1 1394.06 1126)"><path d="M50.062 -6.105  43.75 9.083 Q43.062 10.895 41.25 11.614 Q39.438 12.333 37.625 11.645 Q35.812 10.958 35.094 9.176 Q34.375 7.395 35.062 5.583 L40.438 -7.355 Q27.438 -10.759 19.344 -21.212 Q11.25 -31.667 11.25 -45.014 V-64.605 Q11.25 -72.667 16.906 -78.324 Q22.562 -83.98 30.625 -83.98 Q33.065 -83.98 35.282 -83.261 Q37.5 -82.542 39.688 -81.667 L63.688 -71.792 Q65.188 -71.167 65.156 -69.605 Q65.125 -68.042 63.625 -67.417 L50 -62.292 V-54.73 L102.125 -21.542 Q102.949 -20.965 103.419 -20.215 Q103.89 -19.465 104.125 -18.542 L107.688 -1.542 Q108.062 0.459 106.808 1.99 Q105.552 3.52 103.536 3.52 H101.875 Q100.625 3.52 99.656 2.895 Q98.688 2.27 98.125 1.208 L94.4 -6.105 H69.562 V8.833 Q69.562 10.77 68.188 12.145 Q66.812 13.52 64.875 13.52 Q62.938 13.52 61.562 12.145 Q60.188 10.77 60.188 8.833 V-6.105 H50.062 Z M30.625 -59.917 Q28.688 -59.917 27.312 -61.292 Q25.938 -62.667 25.938 -64.605 Q25.938 -66.542 27.312 -67.917 Q28.688 -69.292 30.625 -69.292 Q32.562 -69.292 33.938 -67.917 Q35.312 -66.542 35.312 -64.605 Q35.312 -62.667 33.938 -61.292 Q32.562 -59.917 30.625 -59.917 Z M50.188 -15.48 H94 L85.688 -20.792 H50.188 Q46.142 -20.792 42.602 -22.324 Q39.062 -23.855 36.438 -26.605 Q34.188 -28.792 32.656 -32.105 Q31.125 -35.417 31.125 -38.605 Q31.125 -40.57 32.5 -41.9 Q33.875 -43.23 35.812 -43.23 Q37.636 -43.23 38.975 -41.949 Q40.312 -40.667 40.5 -38.917 Q40.812 -35.167 43.594 -32.667 Q46.375 -30.167 50.188 -30.167 H71 L40.625 -49.542 V-64.605 Q40.625 -68.73 37.688 -71.667 Q34.75 -74.605 30.625 -74.605 Q26.5 -74.605 23.562 -71.667 Q20.625 -68.73 20.625 -64.605 V-45.042 Q20.625 -32.725 29.247 -24.102 Q37.87 -15.48 50.188 -15.48 Z"/></g><g id="Light-M" transform="matrix(1 0 0 1 1098.18 1126)"><path d="M49.581 -7.86  42.956 7.929 Q42.432 9.276 41.091 9.806 Q39.75 10.338 38.394 9.818 Q37.039 9.299 36.5 7.974 Q35.961 6.65 36.481 5.294 L42.385 -8.797 Q29.62 -11.645 21.565 -21.704 Q13.51 -31.764 13.51 -44.786 V-63.904 Q13.51 -71.3 18.72 -76.51 Q23.93 -81.72 31.323 -81.72 Q33.413 -81.72 35.311 -81.206 Q37.211 -80.691 39.086 -79.936 L61.042 -70.806 Q62.375 -70.23 62.355 -68.824 Q62.336 -67.417 60.956 -66.865 L49.135 -62.34 V-53.672 L101.091 -19.644 Q101.843 -19.09 102.289 -18.405 Q102.736 -17.72 102.922 -16.884 L105.716 -2.865 Q106.019 -1.2 104.995 0.03 Q103.97 1.26 102.346 1.26 H101.01 Q100 1.26 99.175 0.719 Q98.351 0.179 97.909 -0.716 L94.565 -7.86 H68.169 V7.751 Q68.169 9.205 67.14 10.233 Q66.112 11.26 64.657 11.26 Q63.203 11.26 62.188 10.233 Q61.174 9.205 61.174 7.751 V-7.86 H49.581 Z M31.329 -59.845 Q29.649 -59.845 28.455 -61.041 Q27.26 -62.236 27.26 -63.909 Q27.26 -65.581 28.455 -66.787 Q29.651 -67.994 31.323 -67.994 Q32.995 -67.994 34.203 -66.794 Q35.409 -65.594 35.409 -63.914 Q35.409 -62.235 34.209 -61.04 Q33.008 -59.845 31.329 -59.845 Z M50.404 -14.855 H95.515 L84.365 -22.235 H49.922 Q45.854 -22.235 42.36 -23.814 Q38.866 -25.394 36.341 -28.24 Q34.14 -30.547 32.812 -33.68 Q31.485 -36.811 31.485 -40.12 Q31.485 -41.602 32.514 -42.584 Q33.541 -43.566 34.995 -43.566 Q36.381 -43.566 37.398 -42.586 Q38.414 -41.605 38.48 -40.24 Q38.601 -35.576 41.922 -32.402 Q45.245 -29.23 49.922 -29.23 H73.524 L42.14 -49.782 V-63.907 Q42.14 -68.417 38.986 -71.571 Q35.831 -74.725 31.323 -74.725 Q26.812 -74.725 23.659 -71.571 Q20.505 -68.417 20.505 -63.907 V-44.807 Q20.505 -32.327 29.225 -23.591 Q37.946 -14.855 50.404 -14.855 Z"/></g><g id="Thin-M" transform="matrix(1 0 0 1 802.565 1126)"><path d="M49.101 -9.615  42.164 6.775 Q41.803 7.656 40.932 8 Q40.062 8.343 39.164 7.991 Q38.265 7.64 37.906 6.773 Q37.547 5.905 37.899 5.005 L44.331 -10.24 Q31.802 -12.53 23.786 -22.195 Q15.769 -31.86 15.769 -44.56 V-63.202 Q15.769 -69.934 20.532 -74.697 Q25.296 -79.461 32.019 -79.461 Q33.759 -79.461 35.341 -79.151 Q36.922 -78.84 38.485 -78.206 L58.399 -69.821 Q59.562 -69.292 59.555 -68.042 Q59.547 -66.792 58.289 -66.311 L48.269 -62.389 V-52.615 L100.058 -17.745 Q100.737 -17.215 101.16 -16.595 Q101.582 -15.974 101.721 -15.225 L103.745 -4.186 Q103.976 -2.859 103.183 -1.929 Q102.389 -0.999 101.157 -0.999 H100.144 Q99.375 -0.999 98.695 -1.456 Q98.015 -1.912 97.692 -2.639 L94.73 -9.615 H66.774 V6.669 Q66.774 7.64 66.093 8.32 Q65.411 9.001 64.439 9.001 Q63.466 9.001 62.812 8.32 Q62.159 7.64 62.159 6.669 V-9.615 H49.101 Z M32.031 -59.774 Q30.61 -59.774 29.596 -60.79 Q28.581 -61.805 28.581 -63.212 Q28.581 -64.62 29.598 -65.657 Q30.614 -66.696 32.021 -66.696 Q33.428 -66.696 34.466 -65.67 Q35.505 -64.645 35.505 -63.224 Q35.505 -61.802 34.479 -60.787 Q33.454 -59.774 32.031 -59.774 Z M50.62 -14.23 H97.029 L83.044 -23.677 H49.659 Q45.565 -23.677 42.117 -25.305 Q38.671 -26.932 36.245 -29.874 Q34.091 -32.302 32.969 -35.254 Q31.846 -38.206 31.846 -41.634 Q31.846 -42.632 32.526 -43.267 Q33.206 -43.902 34.178 -43.902 Q35.125 -43.902 35.82 -43.222 Q36.515 -42.542 36.461 -41.561 Q36.39 -35.985 40.252 -32.139 Q44.115 -28.292 49.659 -28.292 H76.047 L43.654 -50.024 V-63.211 Q43.654 -68.105 40.284 -71.475 Q36.914 -74.845 32.019 -74.845 Q27.125 -74.845 23.755 -71.475 Q20.385 -68.105 20.385 -63.211 V-44.571 Q20.385 -31.929 29.204 -23.08 Q38.023 -14.23 50.62 -14.23 Z"/></g><g id="Ultralight-M" transform="matrix(1 0 0 1 506.415 1126)"><path d="M48.812 -10.667  41.688 6.083 Q41.424 6.685 40.837 6.915 Q40.25 7.145 39.625 6.895 Q39 6.645 38.75 6.051 Q38.5 5.458 38.75 4.833 L45.5 -11.105 Q33.111 -13.061 25.119 -22.49 Q17.125 -31.917 17.125 -44.424 V-62.781 Q17.125 -69.112 21.621 -73.609 Q26.117 -78.105 32.438 -78.105 Q33.968 -78.105 35.359 -77.917 Q36.75 -77.73 38.125 -77.167 L56.812 -69.23 Q57.875 -68.73 57.875 -67.574 Q57.875 -66.417 56.688 -65.98 L47.75 -62.417 V-51.98 L99.438 -16.605 Q100.074 -16.09 100.481 -15.509 Q100.89 -14.927 101 -14.23 L102.562 -4.98 Q102.75 -3.854 102.095 -3.104 Q101.439 -2.355 100.444 -2.355 H99.625 Q99 -2.355 98.406 -2.761 Q97.812 -3.167 97.562 -3.792 L94.829 -10.667 H65.938 V6.02 Q65.938 6.701 65.464 7.174 Q64.991 7.645 64.308 7.645 Q63.625 7.645 63.188 7.174 Q62.75 6.701 62.75 6.02 V-10.667 H48.812 Z M32.454 -59.73 Q31.188 -59.73 30.281 -60.639 Q29.375 -61.547 29.375 -62.795 Q29.375 -64.042 30.284 -64.98 Q31.192 -65.917 32.44 -65.917 Q33.688 -65.917 34.625 -64.996 Q35.562 -64.075 35.562 -62.809 Q35.562 -61.542 34.641 -60.636 Q33.72 -59.73 32.454 -59.73 Z M50.75 -13.855 H97.938 L82.25 -24.542 H49.5 Q45.392 -24.542 41.972 -26.199 Q38.554 -27.855 36.188 -30.855 Q34.062 -33.355 33.062 -36.199 Q32.062 -39.042 32.062 -42.542 Q32.062 -43.251 32.534 -43.679 Q33.006 -44.105 33.688 -44.105 Q34.371 -44.105 34.874 -43.605 Q35.375 -43.105 35.25 -42.355 Q35.062 -36.23 39.25 -31.98 Q43.438 -27.73 49.5 -27.73 H77.562 L44.562 -50.167 V-62.792 Q44.562 -67.917 41.062 -71.417 Q37.562 -74.917 32.438 -74.917 Q27.312 -74.917 23.812 -71.417 Q20.312 -67.917 20.312 -62.792 V-44.43 Q20.312 -31.69 29.19 -22.772 Q38.068 -13.855 50.75 -13.855 Z"/></g><g id="Bold-S" transform="matrix(1 0 0 1 2294.23 696)"><path d="M40.979 -7.319  37.971 -0.07 Q37.132 2.05 35.111 2.913 Q33.089 3.776 30.875 2.993 Q28.462 2.111 27.546 -0.089 Q26.629 -2.289 27.664 -4.607 L29.538 -8.798 Q19.577 -11.09 13.339 -19.19 Q7.101 -27.291 7.101 -37.92 V-59.294 Q7.101 -66.248 11.81 -70.858 Q16.52 -75.469 23.473 -75.469 Q24.838 -75.469 26.177 -75.395 Q27.516 -75.321 28.749 -74.828 L53.8 -64.867 Q55.477 -64.081 55.501 -62.206 Q55.526 -60.33 53.849 -59.541 L39.746 -53.919 V-51.799 L84.719 -24.431 Q85.665 -23.778 86.42 -22.853 Q87.177 -21.927 87.382 -20.781 L90.883 -4.903 Q91.376 -3.225 90.139 -1.869 Q88.903 -0.514 87.213 -0.514 H83.437 Q82.732 -0.514 82.024 -0.761 Q81.316 -1.007 80.647 -1.562 L75.468 -7.319 H56.561 V-0.465 Q56.561 1.818 54.906 3.413 Q53.25 5.009 50.985 5.009 Q48.722 5.009 47.118 3.347 Q45.515 1.685 45.515 -0.563 V-7.319 H40.979 Z M23.493 -55.793 Q22.141 -55.793 21.155 -56.759 Q20.169 -57.724 20.169 -59.077 Q20.169 -60.429 21.134 -61.415 Q22.1 -62.401 23.452 -62.401 Q24.804 -62.401 25.79 -61.436 Q26.777 -60.47 26.777 -59.118 Q26.777 -57.766 25.811 -56.78 Q24.846 -55.793 23.493 -55.793 Z M37.823 -18.365 H73.87 L65.536 -23.346 H39.006 Q35.824 -23.346 33.174 -24.554 Q30.524 -25.762 28.256 -27.636 Q26.579 -29.165 25.174 -31.428 Q23.769 -33.691 23.769 -35.92 Q23.769 -38.225 25.44 -39.785 Q27.113 -41.345 29.327 -41.345 Q31.372 -41.345 32.698 -40.232 Q34.024 -39.12 34.519 -37.35 Q34.963 -35.97 36.146 -35.181 Q37.331 -34.392 39.006 -34.392 H47.537 L28.7 -45.438 V-59.294 Q28.7 -61.41 27.2 -62.916 Q25.7 -64.423 23.452 -64.423 Q21.204 -64.423 19.676 -62.978 Q18.147 -61.533 18.147 -59.294 V-37.942 Q18.147 -29.785 23.915 -24.076 Q29.682 -18.365 37.823 -18.365 Z"/></g><g id="Semibold-S" transform="matrix(1 0 0 1 1998.1 696)"><path d="M41.364 -10.492  37.284 -0.671 Q36.617 1.107 34.939 1.799 Q33.26 2.49 31.432 1.835 Q29.492 1.125 28.746 -0.668 Q28.001 -2.461 28.822 -4.35 L31.811 -11.328 Q21.593 -13.062 15.076 -21.076 Q8.559 -29.092 8.559 -39.764 V-58.909 Q8.559 -65.347 12.947 -69.679 Q17.334 -74.011 23.773 -74.011 Q25.138 -74.011 26.434 -73.873 Q27.73 -73.734 28.963 -73.241 L52.342 -63.966 Q53.719 -63.308 53.744 -61.776 Q53.768 -60.244 52.392 -59.583 L38.931 -54.219 V-50.984 L81.932 -25.417 Q82.706 -24.893 83.311 -24.14 Q83.918 -23.385 84.123 -22.454 L87.624 -7.647 Q88.074 -6.141 86.987 -4.914 Q85.901 -3.687 84.383 -3.687 H81.508 Q80.802 -3.687 80.158 -3.955 Q79.515 -4.223 78.944 -4.773 L74.352 -10.492 H55.489 V-0.98 Q55.489 0.903 54.134 2.227 Q52.778 3.551 50.91 3.551 Q49.043 3.551 47.708 2.189 Q46.373 0.827 46.373 -1.035 V-10.492 H41.364 Z M23.793 -55.493 Q22.441 -55.493 21.455 -56.459 Q20.469 -57.425 20.469 -58.777 Q20.469 -60.129 21.434 -61.115 Q22.4 -62.101 23.752 -62.101 Q25.104 -62.101 26.09 -61.136 Q27.077 -60.17 27.077 -58.818 Q27.077 -57.466 26.111 -56.48 Q25.145 -55.493 23.793 -55.493 Z M37.908 -19.609 H74.084 L65.665 -24.589 H39.092 Q36.123 -24.589 33.603 -25.712 Q31.082 -26.834 28.985 -28.622 Q27.352 -30.107 26.032 -32.356 Q24.711 -34.604 24.711 -36.821 Q24.711 -38.725 26.084 -40.013 Q27.456 -41.302 29.306 -41.302 Q31.029 -41.302 32.162 -40.296 Q33.295 -39.291 33.618 -37.779 Q34.02 -35.927 35.513 -34.816 Q37.007 -33.705 39.092 -33.705 H50.453 L29.814 -45.695 V-58.909 Q29.814 -61.377 28.057 -63.136 Q26.299 -64.894 23.752 -64.894 Q21.204 -64.894 19.44 -63.171 Q17.676 -61.447 17.676 -58.909 V-39.785 Q17.676 -31.379 23.593 -25.494 Q29.511 -19.609 37.908 -19.609 Z"/></g><g id="Medium-S" transform="matrix(1 0 0 1 1701.85 696)"><path d="M41.654 -12.872  36.77 -1.121 Q36.232 0.399 34.811 0.962 Q33.389 1.525 31.85 0.966 Q30.263 0.385 29.647 -1.102 Q29.03 -2.589 29.69 -4.156 L33.516 -13.226 Q23.104 -14.541 16.379 -22.492 Q9.652 -30.443 9.652 -41.147 V-58.619 Q9.652 -64.672 13.799 -68.795 Q17.946 -72.918 23.998 -72.918 Q25.362 -72.918 26.627 -72.731 Q27.891 -72.545 29.124 -72.052 L51.249 -63.291 Q52.399 -62.728 52.424 -61.454 Q52.449 -60.18 51.298 -59.616 L38.32 -54.445 V-50.373 L79.841 -26.156 Q80.487 -25.729 80.98 -25.104 Q81.473 -24.479 81.678 -23.708 L85.179 -9.706 Q85.598 -8.328 84.624 -7.198 Q83.65 -6.067 82.26 -6.067 H80.06 Q79.355 -6.067 78.76 -6.351 Q78.164 -6.635 77.667 -7.181 L73.516 -12.872 H54.686 V-1.365 Q54.686 0.217 53.555 1.337 Q52.424 2.458 50.854 2.458 Q49.284 2.458 48.15 1.321 Q47.017 0.184 47.017 -1.389 V-12.872 H41.654 Z M24.019 -55.268 Q22.667 -55.268 21.681 -56.233 Q20.694 -57.199 20.694 -58.551 Q20.694 -59.903 21.66 -60.889 Q22.625 -61.876 23.978 -61.876 Q25.33 -61.876 26.316 -60.91 Q27.302 -59.945 27.302 -58.592 Q27.302 -57.24 26.337 -56.254 Q25.371 -55.268 24.019 -55.268 Z M37.973 -20.542 H74.245 L65.761 -25.522 H39.156 Q36.348 -25.522 33.924 -26.58 Q31.5 -27.638 29.531 -29.362 Q27.931 -30.816 26.675 -33.052 Q25.42 -35.289 25.42 -37.496 Q25.42 -39.1 26.567 -40.185 Q27.714 -41.27 29.29 -41.27 Q30.772 -41.27 31.76 -40.345 Q32.748 -39.42 32.943 -38.101 Q33.312 -35.895 35.039 -34.543 Q36.764 -33.191 39.156 -33.191 H52.64 L30.651 -45.888 V-58.619 Q30.651 -61.354 28.7 -63.301 Q26.75 -65.248 23.977 -65.248 Q21.204 -65.248 19.263 -63.315 Q17.322 -61.383 17.322 -58.619 V-41.169 Q17.322 -32.574 23.351 -26.558 Q29.381 -20.542 37.973 -20.542 Z"/></g><g id="Regular-S" transform="matrix(1 0 0 1 1405.73 696)"><path d="M41.866 -14.617  36.393 -1.451 Q35.949 -0.119 34.716 0.349 Q33.483 0.817 32.157 0.33 Q30.829 -0.157 30.307 -1.42 Q29.785 -2.684 30.327 -4.015 L34.765 -14.617 Q24.212 -15.626 17.333 -23.529 Q10.454 -31.433 10.454 -42.16 V-58.407 Q10.454 -64.176 14.424 -68.146 Q18.394 -72.116 24.163 -72.116 Q25.528 -72.116 26.769 -71.894 Q28.01 -71.672 29.242 -71.179 L50.447 -62.796 Q51.433 -62.303 51.458 -61.218 Q51.482 -60.133 50.496 -59.64 L37.872 -54.61 V-49.925 L78.308 -26.699 Q78.86 -26.342 79.27 -25.811 Q79.681 -25.281 79.886 -24.628 L83.387 -11.215 Q83.782 -9.932 82.89 -8.871 Q81.999 -7.812 80.704 -7.812 H78.999 Q78.293 -7.812 77.734 -8.108 Q77.174 -8.404 76.73 -8.946 L72.904 -14.617 H54.096 V-1.648 Q54.096 -0.287 53.13 0.684 Q52.165 1.656 50.813 1.656 Q49.46 1.656 48.474 0.684 Q47.488 -0.287 47.488 -1.648 V-14.617 H41.866 Z M24.184 -55.103 Q22.832 -55.103 21.845 -56.068 Q20.859 -57.034 20.859 -58.386 Q20.859 -59.738 21.825 -60.725 Q22.79 -61.711 24.142 -61.711 Q25.495 -61.711 26.481 -60.745 Q27.467 -59.78 27.467 -58.428 Q27.467 -57.075 26.502 -56.089 Q25.536 -55.103 24.184 -55.103 Z M38.02 -21.225 H74.363 L65.832 -26.206 H39.203 Q36.514 -26.206 34.16 -27.217 Q31.807 -28.228 29.933 -29.904 Q28.355 -31.334 27.147 -33.562 Q25.938 -35.791 25.938 -37.991 Q25.938 -39.374 26.92 -40.31 Q27.902 -41.246 29.278 -41.246 Q30.583 -41.246 31.465 -40.38 Q32.347 -39.514 32.448 -38.337 Q32.793 -35.871 34.69 -34.342 Q36.587 -32.814 39.203 -32.814 H54.244 L31.264 -46.029 V-58.407 Q31.264 -61.336 29.172 -63.422 Q27.08 -65.508 24.142 -65.508 Q21.204 -65.508 19.133 -63.422 Q17.062 -61.336 17.062 -58.407 V-42.183 Q17.062 -33.451 23.175 -27.338 Q29.288 -21.225 38.02 -21.225 Z"/></g><g id="Light-S" transform="matrix(1 0 0 1 1109.75 696)"><path d="M41.487 -16.002  35.766 -2.361 Q35.452 -1.397 34.591 -1.077 Q33.73 -0.757 32.763 -1.112 Q31.797 -1.466 31.417 -2.369 Q31.036 -3.272 31.447 -4.243 L36.302 -15.756 Q25.934 -16.326 19.086 -23.917 Q12.237 -31.509 12.237 -41.981 V-57.854 Q12.237 -63.097 15.855 -66.715 Q19.473 -70.333 24.713 -70.333 Q25.802 -70.333 26.792 -70.272 Q27.782 -70.211 28.768 -69.813 L48.36 -62.018 Q49.214 -61.563 49.247 -60.601 Q49.282 -59.64 48.39 -59.204 L37.19 -54.647 V-49.091 L77.493 -25.201 Q77.987 -24.863 78.378 -24.383 Q78.771 -23.904 78.937 -23.319 L81.832 -12.258 Q82.169 -11.24 81.46 -10.418 Q80.75 -9.595 79.765 -9.595 H78.316 Q77.8 -9.595 77.355 -9.825 Q76.909 -10.054 76.56 -10.464 L73.034 -16.002 H52.996 V-2.501 Q52.996 -1.522 52.304 -0.825 Q51.612 -0.127 50.641 -0.127 Q49.67 -0.127 48.967 -0.825 Q48.266 -1.522 48.266 -2.501 V-16.002 H41.487 Z M24.739 -55.046 Q23.59 -55.046 22.747 -55.87 Q21.903 -56.694 21.903 -57.837 Q21.903 -58.98 22.726 -59.833 Q23.551 -60.686 24.693 -60.686 Q25.836 -60.686 26.69 -59.859 Q27.543 -59.031 27.543 -57.882 Q27.543 -56.734 26.716 -55.89 Q25.887 -55.046 24.739 -55.046 Z M38.191 -20.732 H75.559 L64.789 -27.344 H38.994 Q36.286 -27.344 33.969 -28.392 Q31.652 -29.442 29.857 -31.194 Q28.317 -32.719 27.27 -34.805 Q26.222 -36.891 26.222 -39.187 Q26.222 -40.189 26.931 -40.85 Q27.639 -41.511 28.633 -41.511 Q29.592 -41.511 30.221 -40.883 Q30.849 -40.254 30.854 -39.38 Q31.048 -36.194 33.372 -34.133 Q35.695 -32.074 38.994 -32.074 H56.235 L32.459 -46.219 V-57.857 Q32.459 -61.089 30.196 -63.346 Q27.934 -65.603 24.692 -65.603 Q21.451 -65.603 19.209 -63.346 Q16.967 -61.089 16.967 -57.857 V-41.998 Q16.967 -33.137 23.157 -26.935 Q29.348 -20.732 38.191 -20.732 Z"/></g><g id="Thin-S" transform="matrix(1 0 0 1 814.015 696)"><path d="M41.108 -17.387  35.141 -3.272 Q34.955 -2.675 34.465 -2.502 Q33.976 -2.331 33.37 -2.553 Q32.764 -2.774 32.527 -3.317 Q32.288 -3.859 32.565 -4.471 L37.837 -16.894 Q27.656 -17.024 20.838 -24.304 Q14.02 -31.585 14.02 -41.802 V-57.3 Q14.02 -62.02 17.285 -65.285 Q20.55 -68.55 25.263 -68.55 Q26.076 -68.55 26.815 -68.651 Q27.554 -68.751 28.294 -68.448 L46.274 -61.24 Q46.995 -60.823 47.038 -59.985 Q47.082 -59.147 46.286 -58.767 L36.506 -54.686 V-48.256 L76.677 -23.703 Q77.115 -23.383 77.488 -22.955 Q77.86 -22.526 77.99 -22.01 L80.277 -13.301 Q80.558 -12.549 80.03 -11.963 Q79.503 -11.378 78.827 -11.378 H77.633 Q77.307 -11.378 76.975 -11.541 Q76.643 -11.704 76.389 -11.981 L73.164 -17.387 H51.895 V-3.355 Q51.895 -2.757 51.477 -2.334 Q51.059 -1.91 50.468 -1.91 Q49.878 -1.91 49.46 -2.334 Q49.043 -2.757 49.043 -3.355 V-17.387 H41.108 Z M25.294 -54.99 Q24.349 -54.99 23.647 -55.671 Q22.945 -56.354 22.945 -57.287 Q22.945 -58.221 23.628 -58.941 Q24.31 -59.662 25.244 -59.662 Q26.177 -59.662 26.898 -58.972 Q27.619 -58.283 27.619 -57.338 Q27.619 -56.393 26.929 -55.691 Q26.239 -54.99 25.294 -54.99 Z M38.361 -20.239 H76.753 L63.746 -28.482 H38.786 Q36.058 -28.482 33.778 -29.569 Q31.498 -30.656 29.781 -32.483 Q28.279 -34.104 27.393 -36.048 Q26.507 -37.991 26.507 -40.381 Q26.507 -41.002 26.941 -41.389 Q27.374 -41.777 27.989 -41.777 Q28.601 -41.777 28.976 -41.385 Q29.351 -40.994 29.261 -40.423 Q29.303 -36.516 32.054 -33.925 Q34.805 -31.334 38.786 -31.334 H58.226 L33.654 -46.409 V-57.307 Q33.654 -60.843 31.221 -63.27 Q28.787 -65.697 25.242 -65.697 Q21.698 -65.697 19.285 -63.27 Q16.873 -60.843 16.873 -57.307 V-41.811 Q16.873 -32.823 23.14 -26.531 Q29.408 -20.239 38.361 -20.239 Z"/></g><g id="Ultralight-S" transform="matrix(1 0 0 1 517.792 696)"><path d="M40.88 -18.217  34.765 -3.818 Q34.656 -3.441 34.391 -3.358 Q34.124 -3.275 33.735 -3.418 Q33.344 -3.56 33.192 -3.886 Q33.039 -4.212 33.237 -4.607 L38.76 -17.576 Q28.689 -17.443 21.89 -24.537 Q15.09 -31.63 15.09 -41.695 V-56.968 Q15.09 -61.372 18.144 -64.426 Q21.198 -67.48 25.593 -67.48 Q26.24 -67.48 26.829 -67.678 Q27.418 -67.875 28.01 -67.628 L45.022 -60.774 Q45.663 -60.379 45.713 -59.615 Q45.762 -58.851 45.022 -58.505 L36.097 -54.708 V-47.755 L76.188 -22.803 Q76.591 -22.496 76.952 -22.098 Q77.314 -21.7 77.421 -21.225 L79.344 -13.927 Q79.59 -13.334 79.172 -12.89 Q78.753 -12.448 78.264 -12.448 H77.223 Q77.011 -12.448 76.748 -12.571 Q76.484 -12.694 76.286 -12.891 L73.242 -18.217 H51.236 V-3.867 Q51.236 -3.497 50.982 -3.239 Q50.728 -2.98 50.366 -2.98 Q50.003 -2.98 49.756 -3.239 Q49.51 -3.497 49.51 -3.867 V-18.217 H40.88 Z M25.627 -54.955 Q24.804 -54.955 24.188 -55.553 Q23.571 -56.149 23.571 -56.958 Q23.571 -57.766 24.169 -58.407 Q24.766 -59.048 25.574 -59.048 Q26.382 -59.048 27.023 -58.44 Q27.664 -57.833 27.664 -57.01 Q27.664 -56.188 27.057 -55.571 Q26.449 -54.955 25.627 -54.955 Z M38.464 -19.943 H77.47 L63.12 -29.165 H38.661 Q35.922 -29.165 33.664 -30.274 Q31.405 -31.384 29.735 -33.257 Q28.256 -34.934 27.467 -36.792 Q26.678 -38.651 26.678 -41.098 Q26.678 -41.49 26.947 -41.714 Q27.217 -41.936 27.601 -41.936 Q28.007 -41.936 28.229 -41.687 Q28.451 -41.437 28.305 -41.049 Q28.256 -36.709 31.263 -33.8 Q34.269 -30.89 38.661 -30.89 H59.422 L34.371 -46.523 V-56.977 Q34.371 -60.695 31.835 -63.225 Q29.3 -65.754 25.572 -65.754 Q21.845 -65.754 19.331 -63.225 Q16.816 -60.695 16.816 -56.977 V-41.7 Q16.816 -32.634 23.13 -26.289 Q29.444 -19.943 38.464 -19.943 Z"/></g></g></svg>