<svg xmlns="http://www.w3.org/2000/svg" height="20" viewBox="0 -960 960 960" width="20"><path d="M480-480Zm0-37 299.69-179H180.31L480-517ZM192.62-232q-23.62 0-40.12-16.5Q136-265 136-288.62v-382.76q0-24.32 16.5-40.47T192.62-728h574.76q23.62 0 40.12 16.15Q824-695.7 824-671.38v226.3h-32v-209.77L480-467.38 168-654.85v366.23q0 10.77 6.92 17.7 6.93 6.92 17.7 6.92h339.23v32H192.62Zm502.69 100.08-26.62-16L716.62-232H620v-32h96.62l-47.93-84.08 26.62-16L744-280l48.69-84.08 26.62 16L771.38-264H868v32h-96.62l47.93 84.08-26.62 16L744-216l-48.69 84.08Z"/></svg>