<svg xmlns="http://www.w3.org/2000/svg" height="20" width="20"><path d="M5.208 11.875q-.896 0-1.52-.625-.626-.625-.626-1.5V5.833q0-.875.626-1.5.624-.625 1.52-.625h3.084q.375 0 .656.282.281.281.281.656t-.281.656q-.281.281-.656.281H5.208q-.125 0-.198.073-.072.073-.072.177v1.021h2.166q.896 0 1.511.625.614.625.614 1.5v.771q0 .875-.614 1.5-.615.625-1.511.625Zm-.27-3.146V9.75q0 .104.072.177.073.073.198.073h1.896q.104 0 .177-.073t.073-.177v-.771q0-.104-.073-.177t-.177-.073Zm7.958 3.146q-.896 0-1.511-.625-.614-.625-.614-1.5V5.833q0-.875.614-1.5.615-.625 1.511-.625h1.916q.896 0 1.521.625.625.625.625 1.5V9.75q0 .875-.625 1.5t-1.521.625ZM14.812 10q.126 0 .198-.073.073-.073.073-.177V5.833q0-.104-.073-.177-.072-.073-.198-.073h-1.916q-.104 0-.177.073t-.073.177V9.75q0 .104.073.177t.177.073ZM3 18.625q-.292 0-.51-.219-.219-.218-.219-.51v-2.875q0-.292.219-.511.218-.218.51-.218.292 0 .51.218.219.219.219.511v2.875q0 .292-.219.51-.218.219-.51.219Zm3.375 0q-.292 0-.51-.219-.219-.218-.219-.51v-2.875q0-.292.208-.511.208-.218.5-.218.292 0 .521.218.229.219.229.511v2.875q0 .292-.219.51-.218.219-.51.219Zm3.354 0q-.271 0-.5-.219Q9 18.188 9 17.896v-2.875q0-.292.219-.511.219-.218.51-.218.292 0 .511.218.218.219.218.511v2.875q0 .292-.218.51-.219.219-.511.219Zm3.688 0q-.417 0-.729-.313-.313-.312-.313-.729v-2.25q0-.416.313-.729.312-.312.729-.312h3.271q.416 0 .729.312.312.313.312.729v2.25q0 .417-.312.729-.313.313-.729.313Z"/></svg>