<svg xmlns="http://www.w3.org/2000/svg" height="48" viewBox="0 -960 960 960" width="48"><path d="M849-249H111q-36.75 0-63.87-26.6Q20-302.2 20-340v-286q0-16.75 12.06-27.88Q44.12-665 60.86-665q16.74 0 27.94 11.12Q100-642.75 100-626v286h364v-234q0-36.75 26.89-63.88Q517.79-665 556-665h218q69.22 0 117.61 48.91Q940-567.17 940-499v159q0 37.8-27.12 64.4Q885.75-249 849-249Zm-304-91h315v-158.66q0-35.17-25.19-60.75Q809.62-585 774.25-585H545v245Zm0-245v245-245ZM276-394q49.88 0 82.94-33.02Q392-460.05 392-510.62q0-50.15-33.12-82.26-33.12-32.12-83-32.12T193-592.82q-33 32.17-33 82.5Q160-460 193.06-427q33.06 33 82.94 33Zm.01-69q-18.59 0-32.3-14.7Q230-492.4 230-510.5q0-18.1 13.65-32.3 13.64-14.2 32.86-14.2 18.09 0 32.79 14.14T324-510q0 17.6-14.7 32.3-14.7 14.7-33.29 14.7Zm.99-47Z"/></svg>