<svg xmlns="http://www.w3.org/2000/svg" height="24" width="24"><path d="M5.175 18.825H18.825Q18.825 18.825 18.825 18.825Q18.825 18.825 18.825 18.825V9.475L14.525 5.175H5.175Q5.175 5.175 5.175 5.175Q5.175 5.175 5.175 5.175V18.825Q5.175 18.825 5.175 18.825Q5.175 18.825 5.175 18.825ZM5.175 20.975Q4.275 20.975 3.65 20.35Q3.025 19.725 3.025 18.825V5.175Q3.025 4.275 3.65 3.65Q4.275 3.025 5.175 3.025H15.4L20.975 8.6V18.825Q20.975 19.725 20.35 20.35Q19.725 20.975 18.825 20.975ZM7.05 16.775H16.95V14.85H7.05ZM7.05 12.975H16.95V11.05H7.05ZM7.05 9.2H13.775V7.275H7.05ZM5.175 18.825Q5.175 18.825 5.175 18.825Q5.175 18.825 5.175 18.825V5.175Q5.175 5.175 5.175 5.175Q5.175 5.175 5.175 5.175V9.475V18.825Q5.175 18.825 5.175 18.825Q5.175 18.825 5.175 18.825Z"/></svg>