<svg xmlns="http://www.w3.org/2000/svg" height="48" viewBox="0 -960 960 960" width="48"><path d="M271.17-741.96q-28.43-41.82-39.65-68.28-11.22-26.46-11.22-55.32 0-18.08 10.1-28.78 10.09-10.7 27.96-10.7 16.7 0 26.84 10.1 10.15 10.1 10.15 26.25 0 25.91 9.41 45.78t31.15 51.3q26.44 38.83 36.87 66.02 10.44 27.2 10.44 56.2 0 20.38-10.43 32.86-10.43 12.49-27.31 12.49-17.89 0-28.31-10.84-10.43-10.83-10.43-30.93 0-26.47-9.41-46.81-9.42-20.34-26.16-49.34Zm178.35 0q-28.43-41.82-39.37-68.28-10.93-26.46-10.93-55.32 0-18.08 10.07-28.78 10.07-10.7 27.08-10.7 17.3 0 27.59 10.1 10.3 10.1 10.3 26.25 0 25.91 9.13 45.78t31.44 51.3q26.43 38.83 37.65 66.02 11.22 27.2 11.22 56.2 0 20.38-11.06 32.86-11.05 12.49-28.1 12.49-18.03 0-28.46-10.84-10.43-10.83-10.43-30.93 0-26.47-9.41-46.81-9.41-20.34-26.72-49.34Zm182 0q-28.43-41.82-39.65-68.28-11.22-26.46-11.22-55.32 0-18.08 9.94-28.78 9.94-10.7 27.68-10.7 16.47 0 27.23 10.1 10.76 10.1 10.76 26.25 0 25.91 9.13 45.78t30.87 51.3q26.44 38.83 37.65 66.02 11.22 27.2 11.22 56.2 0 20.38-10.96 32.86-10.95 12.49-28.79 12.49-17.62 0-27.45-10.84-9.84-10.83-9.84-30.93 0-26.47-9.92-46.81-9.91-20.34-26.65-49.34ZM413.87-244.22q-19.14 0-30.9-12.15-11.75-12.15-11.75-29.93v-170.83q0-34.97 24.38-59.35 24.39-24.39 59.36-24.39h277.61q68.69 0 117.95 48.96 49.26 48.97 49.26 118.26v87.35q0 17.78-12.45 29.93-12.46 12.15-29.2 12.15H413.87Zm34.87-219.69v142.3-142.3Zm410.39 362.74H101.87q-17.79 0-29.94-11.99-12.15-11.99-12.15-29.68 0-17.68 12.15-29.6 12.15-11.91 29.94-11.91h757.26q16.74 0 29.2 12.2 12.45 12.21 12.45 29.38 0 17.97-12.45 29.78-12.46 11.82-29.2 11.82Zm-664.3-145.09q-56.89 0-95.97-39.48t-39.08-96.3q0-56.45 39.35-96.12 39.36-39.67 96-39.67 56.88 0 96.27 39.68 39.38 39.68 39.38 96.42 0 56.75-39.52 96.11-39.53 39.36-96.43 39.36Zm.45-76.96q24.35 0 41.45-17.38t17.1-41.44q0-23.5-17.07-41.17-17.06-17.66-41.76-17.66-24.07 0-41.45 17.66-17.38 17.67-17.38 41.17 0 24.06 17.38 41.44t41.73 17.38Zm253.46 1.61h374.09v-52.04q0-37.71-26.46-63.99-26.46-26.27-63.8-26.27H448.74v142.3ZM195-382.04Z"/></svg>