<svg xmlns="http://www.w3.org/2000/svg" height="40" width="40"><path d="M20 28Q19.458 28 19.083 27.625Q18.708 27.25 18.708 26.708Q18.708 26.167 19.083 25.771Q19.458 25.375 20 25.375Q20.542 25.375 20.917 25.771Q21.292 26.167 21.292 26.708Q21.292 27.25 20.917 27.625Q20.542 28 20 28ZM20 23Q19.625 23 19.375 22.729Q19.125 22.458 19.167 22.083Q19.25 21.042 19.625 20.375Q20 19.708 21 18.917Q21.958 18.167 22.375 17.625Q22.792 17.083 22.792 16.042Q22.792 15 22.062 14.292Q21.333 13.583 20 13.583Q19.042 13.583 18.417 14.021Q17.792 14.458 17.417 15.042Q17.25 15.333 16.938 15.458Q16.625 15.583 16.333 15.5Q15.917 15.333 15.792 14.979Q15.667 14.625 15.833 14.292Q16.5 13.167 17.521 12.5Q18.542 11.833 20 11.833Q21.958 11.833 23.25 12.958Q24.542 14.083 24.542 16.042Q24.542 17.208 24.062 18.042Q23.583 18.875 22.5 19.75Q21.667 20.5 21.354 20.958Q21.042 21.417 20.917 22.125Q20.917 22.5 20.646 22.75Q20.375 23 20 23ZM11.792 37.5Q10.708 37.5 9.938 36.729Q9.167 35.958 9.167 34.875V5.125Q9.167 4.042 9.938 3.271Q10.708 2.5 11.792 2.5H28.208Q29.292 2.5 30.062 3.271Q30.833 4.042 30.833 5.125V34.875Q30.833 35.958 30.062 36.729Q29.292 37.5 28.208 37.5ZM11.25 31.417H28.75V8.583H11.25Z"/></svg>