<svg xmlns="http://www.w3.org/2000/svg" height="20" viewBox="0 -960 960 960" width="20"><path d="M480.21-295.69q-12.52 0-21.29-8.56t-8.77-21.08q0-12.52 8.56-21.29 8.56-8.76 21.08-8.76 12.52 0 21.29 8.55 8.77 8.56 8.77 21.08 0 12.52-8.56 21.29t-21.08 8.77ZM454-435.08V-796h52v360.92h-52ZM228.31-164q-27.01 0-45.66-18.65Q164-201.3 164-228.31v-103.46h52v103.46q0 4.62 3.85 8.46 3.84 3.85 8.46 3.85h503.38q4.62 0 8.46-3.85 3.85-3.84 3.85-8.46v-103.46h52v103.46q0 27.01-18.65 45.66Q758.7-164 731.69-164H228.31Z"/></svg>