<svg xmlns="http://www.w3.org/2000/svg" height="48" viewBox="0 -960 960 960" width="48"><path d="M635.37-104H554q-7.8 0-13.4-5.6-5.6-5.6-5.6-13.4v-81.37L489-251q-6-4.64-6-13.32t6-13.68l46-47v-82q0-7.4 5.6-12.7 5.6-5.3 13.4-5.3h81.37L682-472q4.64-5 13.32-5t13.68 5l47 47h82q7.4 0 12.7 5.3 5.3 5.3 5.3 12.7v82l47 47q5 4.64 5 13.32T903-251l-47 46.63V-123q0 7.8-5.3 13.4-5.3 5.6-12.7 5.6h-82l-47 46q-4.64 6-13.32 6T682-58l-46.63-46ZM696-144q50 0 85-35.1t35-85.96q0-50.44-34.79-85.19T696-385v241ZM480-783q-126.36 0-214.68 88.32Q177-606.36 177-480q0 77 34.5 141T304-235v-66q0-14.77 10.86-25.39 10.86-10.61 26-10.61t25.64 10.61Q377-315.77 377-301v160q0 15.75-10.61 26.37Q355.77-104 341-104H181q-15.75 0-26.37-10.86-10.63-10.86-10.63-26t10.63-25.64Q165.25-177 181-177h79q-71-51-113.5-130T104-480q0-77.67 29.73-146.26 29.74-68.58 80.58-119.43 50.85-50.84 119.43-80.58Q402.33-856 480-856q103.69 0 192.85 63Q762-730 834-600q7 13 0 27t-21.5 20q-13.5 6-27.5-1t-19-21q-20-79-100-143.5T480-783Z"/></svg>