<svg xmlns="http://www.w3.org/2000/svg" height="48" viewBox="0 -960 960 960" width="48"><path d="m656-672-16-17 75-74H296v-22h419l-75-75 16-16 102 102-102 102ZM194-197h572v-196H194v196Zm97.86-60q14.94 0 26.54-11.11t11.6-26.56q0-15.46-11.6-27.39Q306.8-334 291.65-334t-26.9 11.8Q253-310.41 253-294.95q0 15.45 11.74 26.7Q276.49-257 291.86-257Zm377 0q14.94 0 26.54-11.11t11.6-26.56q0-15.46-11.6-27.39Q683.8-334 668.65-334t-26.9 11.8Q630-310.41 630-294.95q0 15.45 11.74 26.7Q653.49-257 668.86-257ZM172-415h584l-68-193H216l75 75-17 15-101-101 101-102 17 16-75 75h489.44L788-393.31V-92h-16v-83H188v83h-16v-323Zm22 22v196-196Z"/></svg>