<svg xmlns="http://www.w3.org/2000/svg" height="40" width="40"><path d="M17.5 25.167h7.25q1.333 0 2.208-.875.875-.875.875-2.209v-2.875q0-1.083-.645-1.75-.646-.666-1.563-.666.917 0 1.563-.625.645-.625.645-1.709v-3.041q0-1.334-.875-2.188-.875-.854-2.208-.854H17.5v3.042h7.25v3.958H21v2.792h3.75v3.916H17.5Zm-5.167 6.166q-1.5 0-2.583-1.083-1.083-1.083-1.083-2.583V5.917q0-1.542 1.083-2.625 1.083-1.084 2.583-1.084h21.75q1.542 0 2.625 1.084 1.084 1.083 1.084 2.625v21.75q0 1.5-1.084 2.583-1.083 1.083-2.625 1.083Zm0-3.666h21.75V5.917h-21.75v21.75ZM5.917 37.792q-1.542 0-2.625-1.084-1.084-1.083-1.084-2.625V8.667h3.709v25.416h25.416v3.709Zm6.416-31.875v21.75-21.75Z"/></svg>