<svg xmlns="http://www.w3.org/2000/svg" height="20" width="20"><path d="M5.312 7.708H9.479V6.438H5.312ZM10.729 14.271H14.896V12.979H10.729ZM10.729 12.229H14.896V10.938H10.729ZM6.75 14.896H8.042V13.25H9.688V11.958H8.042V10.312H6.75V11.958H5.104V13.25H6.75ZM11.625 9.25 12.792 8.083 13.958 9.25 14.875 8.333 13.708 7.167 14.875 6 13.958 5.083 12.792 6.25 11.625 5.083 10.708 6 11.875 7.167 10.708 8.333ZM4.396 17.896Q3.438 17.896 2.771 17.229Q2.104 16.562 2.104 15.604V4.396Q2.104 3.438 2.771 2.771Q3.438 2.104 4.396 2.104H15.604Q16.562 2.104 17.229 2.771Q17.896 3.438 17.896 4.396V15.604Q17.896 16.562 17.229 17.229Q16.562 17.896 15.604 17.896Z"/></svg>