<svg xmlns="http://www.w3.org/2000/svg" height="40" width="40"><path d="M19.167 26.375v-8.5h1.708v8.5ZM20 16.208q-.417 0-.729-.312-.313-.313-.313-.771 0-.417.313-.729.312-.313.729-.313t.729.292q.313.292.313.708 0 .459-.313.792-.312.333-.729.333Zm-7.292 20.917q-1.25 0-2.146-.896-.895-.896-.895-2.187V5.958q0-1.291.895-2.187.896-.896 2.146-.896h14.584q1.25 0 2.146.896.895.896.895 2.187v28.084q0 1.291-.895 2.187-.896.896-2.146.896Zm-1.333-5.833h17.25V8.708h-17.25Zm0 1.708v1.042q0 .5.417.916.416.417.916.417h14.584q.5 0 .916-.417.417-.416.417-.916V33Zm0-26h17.25V5.958q0-.5-.417-.916-.416-.417-.916-.417H12.708q-.5 0-.916.417-.417.416-.417.916Zm0-2.375V7 4.625Zm0 30.75V33v2.375Z"/></svg>