<svg xmlns="http://www.w3.org/2000/svg" height="24" viewBox="0 -960 960 960" width="24"><path d="m849.5-127-217-217q-44.5 37-91 56.75t-106 19.75q-77.5 0-142-36T190-400h32q37 48.5 92.5 77.75t121 29.25q110.5 0 189-78.25T703-560q0-110.5-78.5-189t-189-78.5q-105.5 0-182 71.75T169.5-580H144q7.5-115.5 90.75-194.25T435.5-853q122.5 0 207.75 85.25T728.5-560q0 59.5-20 106.5T652-362l215.5 216-18 19Zm-444-291.5L331-667l-66 188.5H93v-23h155.5l66-190H348l73.5 248 59-178H514l60 120h34.5v23H560l-62-124-60 184h-32.5Z"/></svg>