<svg xmlns="http://www.w3.org/2000/svg" height="48" width="48"><path d="M24 42.3q-3.8 0-7.125-1.425T11.05 36.95q-2.5-2.5-3.925-5.825Q5.7 27.8 5.7 24t1.425-7.125Q8.55 13.55 11.05 11.05T16.9 7.1q3.35-1.45 7.1-1.45h1.1v16.3q.55.35.9.875T26.35 24q0 .95-.7 1.625T24 26.3q-.95 0-1.625-.675T21.7 24q0-.55.325-1.1t.925-.95V16q-3.05.35-5.05 2.65t-2 5.35q0 3.4 2.35 5.75T24 32.1q3.4 0 5.775-2.35Q32.15 27.4 32.15 24q0-1.85-.75-3.425-.75-1.575-2-2.675l1.6-1.6q1.55 1.45 2.45 3.45.9 2 .9 4.25 0 4.35-3 7.325-3 2.975-7.35 2.975-4.3 0-7.3-3t-3-7.3q0-4.05 2.675-6.925t6.575-3.325v-5.8q-6.4.4-10.725 5Q7.9 17.55 7.9 24q0 6.7 4.7 11.4T24 40.1q6.7 0 11.425-4.7Q40.15 30.7 40.15 24q0-3.55-1.35-6.525-1.35-2.975-3.75-5.225l1.6-1.6q2.65 2.55 4.175 5.975t1.525 7.325q0 3.85-1.45 7.175-1.45 3.325-3.925 5.825-2.475 2.5-5.825 3.925Q27.8 42.3 24 42.3Z"/></svg>