<svg xmlns="http://www.w3.org/2000/svg" height="20" width="20"><path d="M5.042 9.188 8.5 6.5q.667-.521 1.51-.521.844 0 1.49.521l3.458 2.688h-.02V5.333L10 3.479 5.062 5.333v3.855h-.02Zm2.896 6.416v-2.271q0-.479.374-.854.376-.375.855-.375h1.666q.479 0 .855.375.374.375.374.854v2.271q.792-.729 1.428-1.687.635-.959 1.01-2L10 8.438l-4.5 3.479q.375 1.062 1.01 2.01.636.948 1.428 1.677ZM10 19.021q-.188 0-.333-.021-.146-.021-.271-.062-3-.917-4.886-3.646-1.885-2.73-1.885-6.021V5.333q0-.771.437-1.395.438-.626 1.167-.896l4.938-1.854q.395-.146.833-.146.438 0 .833.146l4.938 1.854q.729.27 1.167.896.437.624.437 1.395v3.938q0 3.291-1.885 6.021-1.886 2.729-4.886 3.646-.021 0-.604.083Zm0-9Z"/></svg>