<svg xmlns="http://www.w3.org/2000/svg" height="24" width="24"><path d="M6.025 19.5Q5.8 19.5 5.663 19.35Q5.525 19.2 5.525 19Q5.525 18.775 5.663 18.637Q5.8 18.5 6.025 18.5H18.025Q18.225 18.5 18.375 18.65Q18.525 18.8 18.525 19Q18.525 19.225 18.375 19.363Q18.225 19.5 18.025 19.5ZM9.575 14.975Q9.4 14.975 9.262 14.925Q9.125 14.875 9 14.75L4.975 10.7Q4.8 10.55 4.8 10.35Q4.8 10.15 4.975 9.975Q5.125 9.825 5.325 9.825Q5.525 9.825 5.675 9.975L9.575 13.875L18.375 5.075Q18.525 4.925 18.725 4.925Q18.925 4.925 19.075 5.075Q19.25 5.25 19.25 5.45Q19.25 5.65 19.075 5.8L10.125 14.75Q10 14.875 9.863 14.925Q9.725 14.975 9.575 14.975Z"/></svg>