<svg xmlns="http://www.w3.org/2000/svg" height="24" width="24"><path d="M12.1 16.3Q11.925 16.3 11.8 16.25Q11.675 16.2 11.55 16.075L4.65 9.175V13.975Q4.65 14.175 4.513 14.312Q4.375 14.45 4.175 14.45Q4 14.45 3.862 14.312Q3.725 14.175 3.725 13.975V8.35Q3.725 8.025 3.938 7.8Q4.15 7.575 4.475 7.575H10.125Q10.3 7.575 10.438 7.712Q10.575 7.85 10.575 8.025Q10.575 8.225 10.438 8.363Q10.3 8.5 10.125 8.5H5.3L12.1 15.3L19.325 8.075Q19.45 7.95 19.638 7.95Q19.825 7.95 19.95 8.1Q20.1 8.25 20.1 8.438Q20.1 8.625 19.95 8.775L12.625 16.075Q12.525 16.2 12.387 16.25Q12.25 16.3 12.1 16.3Z"/></svg>