<svg xmlns="http://www.w3.org/2000/svg" height="20" viewBox="0 -960 960 960" width="20"><path d="M224-268q23.5 0 40.75-17.25T282-326q0-23.5-17.25-40.75T224-384q-23.5 0-40.75 17.25T166-326q0 23.5 17.25 40.75T224-268Zm162.79-177q14.21 0 24.71-10.29t10.5-24.5q0-14.21-10.29-24.71t-24.5-10.5q-14.21 0-24.71 10.29t-10.5 24.5q0 14.21 10.29 24.71t24.5 10.5Zm0-154q14.21 0 24.71-10.29t10.5-24.5q0-14.21-10.29-24.71t-24.5-10.5q-14.21 0-24.71 10.29t-10.5 24.5q0 14.21 10.29 24.71t24.5 10.5ZM154-154v-67h652v67H154Zm70-422q23.5 0 40.75-17.25T282-634q0-23.5-17.25-40.75T224-692q-23.5 0-40.75 17.25T166-634q0 23.5 17.25 40.75T224-576Zm0 154q23.5 0 40.75-17.25T282-480q0-23.5-17.25-40.75T224-538q-23.5 0-40.75 17.25T166-480q0 23.5 17.25 40.75T224-422Zm162.79 130q14.21 0 24.71-10.29t10.5-24.5q0-14.21-10.29-24.71t-24.5-10.5q-14.21 0-24.71 10.29t-10.5 24.5q0 14.21 10.29 24.71t24.5 10.5ZM670-303q10 0 17-7t7-17q0-10-7-17t-17-7q-10 0-17 7t-7 17q0 10 7 17t17 7ZM154-739v-67h652v67H154Zm516 129q10 0 17-7t7-17q0-10-7-17t-17-7q-10 0-17 7t-7 17q0 10 7 17t17 7Zm0 154q10 0 17-7t7-17q0-10-7-17t-17-7q-10 0-17 7t-7 17q0 10 7 17t17 7ZM527.79-599q14.21 0 24.71-10.29t10.5-24.5q0-14.21-10.29-24.71t-24.5-10.5q-14.21 0-24.71 10.29t-10.5 24.5q0 14.21 10.29 24.71t24.5 10.5Zm0 154q14.21 0 24.71-10.29t10.5-24.5q0-14.21-10.29-24.71t-24.5-10.5q-14.21 0-24.71 10.29t-10.5 24.5q0 14.21 10.29 24.71t24.5 10.5Zm0 153q14.21 0 24.71-10.29t10.5-24.5q0-14.21-10.29-24.71t-24.5-10.5q-14.21 0-24.71 10.29t-10.5 24.5q0 14.21 10.29 24.71t24.5 10.5ZM154-221v-518 518Z"/></svg>