<svg xmlns="http://www.w3.org/2000/svg" height="20" viewBox="0 -960 960 960" width="20"><path d="M142-384q0-95 45-174t99-136.5q54-57.5 99-89.5l45-32v119q0 30 21 51t52 21q17 0 30.5-7t24.5-20l16-20q63 36 104 117t40 170q-1 78-37.5 142.5T578-138q16-23 24-49t8-53q0-33-11.5-64T564-360L430-510 296-360q-23 25-34.5 56T250-240q0 28 8.5 54.5T284-136q-66-39-104-105t-38-143Zm288-18 80 90q14 15 21 33.5t7 38.5q0 45-31.5 76.5T430-132q-45 0-76.5-31.5T322-240q0-20 7-38.5t21-33.5l80-90Zm398-102q-15 0-25.5-10.5T792-540q0-15 10.5-25.5T828-576q15 0 25.5 10.5T864-540q0 15-10.5 25.5T828-504Zm-36-120v-192h72v192h-72Z"/></svg>