<svg xmlns="http://www.w3.org/2000/svg" height="24" width="24"><path d="M12 15.225q.2 0 .338-.125.137-.125.137-.325V10.55l1.8 1.8q.125.125.3.125t.325-.15q.15-.15.15-.325 0-.175-.15-.325L12.525 9.3q-.1-.1-.237-.163-.138-.062-.288-.062-.15 0-.287.062-.138.063-.238.163l-2.4 2.4q-.125.15-.125.312 0 .163.15.313t.325.15q.175 0 .325-.15l1.8-1.775v4.225q0 .2.138.325.137.125.312.125ZM4.7 18.85q-.65 0-1.1-.437-.45-.438-.45-1.088V6.675q0-.65.45-1.088.45-.437 1.1-.437h14.6q.65 0 1.1.437.45.438.45 1.088v10.65q0 .65-.45 1.088-.45.437-1.1.437Z"/></svg>