<svg xmlns="http://www.w3.org/2000/svg" height="20" width="20"><path d="M6.188 13.812q.333.334.791.334.459 0 .792-.334L10 11.583l2.229 2.229q.333.334.802.334.469 0 .802-.334.334-.333.323-.791-.01-.459-.344-.813L11.604 10l2.229-2.229q.334-.333.334-.802 0-.469-.334-.802-.333-.334-.802-.334-.469 0-.802.334L10 8.396l-2.25-2.25q-.312-.334-.771-.323-.458.01-.791.344-.334.333-.334.791 0 .459.334.792L8.417 10l-2.25 2.25q-.334.312-.323.771.01.458.344.791ZM10 19q-1.875 0-3.51-.708-1.636-.709-2.855-1.927-1.218-1.219-1.927-2.855Q1 11.875 1 10q0-1.875.708-3.521.709-1.646 1.927-2.864Q4.854 2.396 6.49 1.698 8.125 1 10 1q1.875 0 3.521.698t2.864 1.917q1.219 1.218 1.917 2.864T19 10q0 1.875-.698 3.51-.698 1.636-1.917 2.855-1.218 1.218-2.864 1.927Q11.875 19 10 19Zm0-9Zm0 6.708q2.792 0 4.75-1.958 1.958-1.958 1.958-4.75T14.75 5.25Q12.792 3.292 10 3.292T5.25 5.25Q3.292 7.208 3.292 10t1.958 4.75q1.958 1.958 4.75 1.958Z"/></svg>