<svg xmlns="http://www.w3.org/2000/svg" height="48" width="48"><path d="M7.05 45V36.85H3V13.1H7.05V3.75Q7.05 3.4 7.275 3.2Q7.5 3 7.85 3Q8.2 3 8.4 3.2Q8.6 3.4 8.6 3.75V13.1H12.7V36.85H8.6V45ZM23.25 45V36.85H19.15V13.1H23.25V3.75Q23.25 3.4 23.45 3.2Q23.65 3 24 3Q24.35 3 24.55 3.2Q24.75 3.4 24.75 3.75V13.1H28.85V36.85H24.75V45ZM39.4 45V36.85H35.3V13.1H39.4V3.75Q39.4 3.4 39.6 3.2Q39.8 3 40.15 3Q40.5 3 40.725 3.2Q40.95 3.4 40.95 3.75V13.1H45V36.85H40.95V45ZM4.55 14.65V25.2H11.15V14.65ZM20.7 14.65V25.2H27.3V14.65ZM36.85 14.65V25.2H43.45V14.65ZM4.55 35.3H11.15V26.75H4.55ZM20.7 35.3H27.3V26.75H20.7ZM36.85 35.3H43.45V26.75H36.85ZM7.85 26ZM24 26ZM40.15 26ZM4.55 25.2H11.15H4.55ZM20.7 25.2H27.3H20.7ZM36.85 25.2H43.45H36.85ZM4.55 26.75H11.15ZM20.7 26.75H27.3ZM36.85 26.75H43.45Z"/></svg>