<svg xmlns="http://www.w3.org/2000/svg" height="48" viewBox="0 96 960 960" width="48"><path d="M150 921q-39.05 0-66.525-27.475Q56 866.05 56 827V314q0-39.463 27.475-67.231Q110.95 219 150 219h221q18.873 0 36.32 7.717 17.448 7.718 30.768 21.371L481.454 290H812q39.463 0 67.231 27.769Q907 345.537 907 385v142q0 19.75-14.263 33.375t-34 13.625Q839 574 825.5 560.375 812 546.75 812 527V385H150v442h329q19.75 0 33.375 13.675Q526 854.351 526 874.175 526 894 512.375 907.5 498.75 921 479 921H150Zm598-209 42 40-145 145.071V943h45.706L835 798l42 42-134 133q-14 13-31.522 20.5T675 1001h-41q-20.75 0-34.375-13.625T586 954v-41q0-19.311 7.5-37.156Q601 858 615 845l133-133Zm129 128L748 712l62-62q14-15 33.111-15 19.111 0 33.889 15l61 61q14 14 14 33t-14 34l-61 62ZM150 385v463-463Z"/></svg>