<svg xmlns="http://www.w3.org/2000/svg" height="24" viewBox="0 96 960 960" width="24"><path d="M481.923 755.191q-73.534 0-132.151-38.923-58.617-38.922-87.04-100.268 20-41.884 53.766-73.942 33.765-32.057 78.465-49.172l36.153 36.153q-36.882 9.941-67.037 32.105Q333.924 583.308 313.27 616q27.496 43.816 71.933 68.465 44.437 24.65 96.72 24.65 27.536 0 53.287-7.423 25.751-7.423 47.982-20.577l33.422 33.619q-29.307 19.419-63.159 29.938-33.851 10.519-71.532 10.519Zm190.422-92.269-32.153-32.153q2.539-3.731 5.058-7.231 2.519-3.5 4.942-7.538-17.885-30.153-45.211-50.615-27.327-20.461-60.326-30.153l-56.192-56.192q69.345.808 127.037 38.327 57.691 37.519 85.229 98.633-6.038 12.567-12.865 24.341-6.827 11.774-15.519 22.581ZM215.539 908.729q-28.245 0-48.257-20.011-20.011-20.012-20.011-48.257V331.788q0-1.923.192-3.461.192-1.539.961-3.077l-28.807-28.942q-7.999-7.558-8.096-18.99-.096-11.433 8.712-20.24 8.5-8.5 19.615-8.5 11.115 0 19.615 8.5l639.959 640.267q7.923 8.115 8.211 19.115.289 11-8.519 20.046-8.807 8.261-19.711 8.415-10.903.154-19.518-8.654l-28.807-28.307q-1.924.385-3.462.577-1.539.192-3.462.192H215.539Zm0-55.96h460.348L203.231 380.113v460.348q0 5.385 3.462 8.846 3.461 3.462 8.846 3.462Zm597.19-49.463-55.96-55.96V416.654H426.077L252.694 243.271h491.767q28.245 0 48.257 20.011 20.011 20.012 20.011 48.257v491.767Z"/></svg>