<svg xmlns="http://www.w3.org/2000/svg" height="20" viewBox="0 -960 960 960" width="20"><path d="m552-456 49.73 64.69q1.27 1.07 18.75 9.07 14.86 0 20.95-12.81t-1.91-24.19L592-480l47.76-62.03q7.76-11.23 1.53-23.48-6.24-12.25-20.84-12.25-5.12 0-9.98 2.51-4.86 2.52-8.4 6.7L552-504v-49.76q0-10.4-6.8-17.2-6.8-6.8-17.2-6.8-10.4 0-17.2 6.78-6.8 6.79-6.8 17.17v147.19q0 10.38 6.8 17.38 6.8 7 17.2 7 10.4 0 17.2-6.8 6.8-6.8 6.8-17.2V-456Zm-213.47 73.76h96.94q10.15 0 17.3-7.02 7.14-7.02 7.14-17.36v-147.14q0-9.96-7.14-16.98-7.15-7.02-17.3-7.02h-96.94q-10.36 0-17.37 7.02-7.01 7.02-7.01 16.98v147.14q0 10.34 7.01 17.36t17.37 7.02ZM362.15-500v-37.76h49.76V-500h-49.76Zm0 77.76V-460h49.76v37.76h-49.76ZM218.87-113.7q-43.63 0-74.4-30.77-30.77-30.77-30.77-74.4v-522.26q0-43.63 30.77-74.4 30.77-30.77 74.4-30.77h522.26q43.63 0 74.4 30.77 30.77 30.77 30.77 74.4v522.26q0 43.63-30.77 74.4-30.77 30.77-74.4 30.77H218.87Z"/></svg>