<svg xmlns="http://www.w3.org/2000/svg" version="1.1" width="3300" height="2000"><g id="Notes"><style>
    text {
      font-family: monospace;
      text-anchor: middle;
    }
    text.emphasis {
      font-weight:bold;
    }
    text.lanchor {
      text-anchor: start;
    }
  </style><rect height="2200" id="artboard" fill="white" width="3300" x="0" y="0"/><line id="" style="fill:none;stroke:black;stroke-width:0.5;" x1="263" x2="3036" y1="292" y2="292"/><text class="lanchor emphasis" transform="matrix(1 0 0 1 263 322)">Weight/Scale Variations</text><text transform="matrix(1 0 0 1 559.711 322)">Ultralight</text><text transform="matrix(1 0 0 1 856.422 322)">Thin</text><text transform="matrix(1 0 0 1 1153.13 322)">Light</text><text transform="matrix(1 0 0 1 1449.84 322)">Regular</text><text transform="matrix(1 0 0 1 1746.56 322)">Medium</text><text transform="matrix(1 0 0 1 2043.27 322)">Semibold</text><text transform="matrix(1 0 0 1 2339.98 322)">Bold</text><text transform="matrix(1 0 0 1 2636.69 322)">Heavy</text><text transform="matrix(1 0 0 1 2933.4 322)">Black</text><text id="template-version" style="text-anchor: end;" transform="matrix(1 0 0 1 3036 1933)">Template v.1.0</text><text class="lanchor" transform="matrix(1 0 0 1 263 726)">Small</text><text class="lanchor" transform="matrix(1 0 0 1 263 1156)">Medium</text><text class="lanchor" transform="matrix(1 0 0 1 263 1586)">Large</text></g><g id="Guides"><g id="H-reference" style="fill:#27AAE1;stroke:none;" transform="matrix(1 0 0 1 339 696)"><path d="M 54.9316 0 L 57.666 0 L 30.5664 -70.459 L 28.0762 -70.459 L 0.976562 0 L 3.66211 0 L 12.9395 -24.4629 L 45.7031 -24.4629 Z M 29.1992 -67.0898 L 29.4434 -67.0898 L 44.8242 -26.709 L 13.8184 -26.709 Z"/></g><line id="Baseline-S" style="fill:none;stroke:#27AAE1;opacity:1;stroke-width:0.577;" x1="263" x2="3036" y1="696" y2="696"/><line id="Capline-S" style="fill:none;stroke:#27AAE1;opacity:1;stroke-width:0.577;" x1="263" x2="3036" y1="625.541" y2="625.541"/><g id="H-reference" style="fill:#27AAE1;stroke:none;" transform="matrix(1 0 0 1 339 1126)"><path d="M 54.9316 0 L 57.666 0 L 30.5664 -70.459 L 28.0762 -70.459 L 0.976562 0 L 3.66211 0 L 12.9395 -24.4629 L 45.7031 -24.4629 Z M 29.1992 -67.0898 L 29.4434 -67.0898 L 44.8242 -26.709 L 13.8184 -26.709 Z"/></g><line id="Baseline-M" style="fill:none;stroke:#27AAE1;opacity:1;stroke-width:0.577;" x1="263" x2="3036" y1="1126" y2="1126"/><line id="Capline-M" style="fill:none;stroke:#27AAE1;opacity:1;stroke-width:0.577;" x1="263" x2="3036" y1="1055.54" y2="1055.54"/><g id="H-reference" style="fill:#27AAE1;stroke:none;" transform="matrix(1 0 0 1 339 1556)"><path d="M 54.9316 0 L 57.666 0 L 30.5664 -70.459 L 28.0762 -70.459 L 0.976562 0 L 3.66211 0 L 12.9395 -24.4629 L 45.7031 -24.4629 Z M 29.1992 -67.0898 L 29.4434 -67.0898 L 44.8242 -26.709 L 13.8184 -26.709 Z"/></g><line id="Baseline-L" style="fill:none;stroke:#27AAE1;opacity:1;stroke-width:0.577;" x1="263" x2="3036" y1="1556" y2="1556"/><line id="Capline-L" style="fill:none;stroke:#27AAE1;opacity:1;stroke-width:0.577;" x1="263" x2="3036" y1="1485.54" y2="1485.54"/><rect height="119.336" id="left-margin" style="fill:darkred;stroke:none;opacity:0.4;" width="12.4512" x="1394.06" y="1030.79"/><rect height="119.336" id="right-margin" style="fill:darkgreen;stroke:none;opacity:0.4;" width="12.4512" x="1502.5112" y="1030.79"/><rect x="1406.5112" y="1045" width="96" height="96" fill="none" stroke="blue" stroke-dasharray="5"/><rect x="1394.06" y="1030.79" width="120.9024" height="119.336" fill="none" stroke="blue"/></g><g id="Symbols"><g id="Bold-L" transform="matrix(1 0 0 1 2266 1556)"><path d="M77.157 -29.264 H104.651 Q109.244 -29.264 112.43 -32.174 Q115.616 -35.083 115.616 -40.138 Q115.616 -44.362 112.981 -47.374 Q110.347 -50.387 106.103 -51.032 H104.537 L104.214 -52.645 Q102.877 -57.644 98.962 -60.869 Q95.049 -64.094 89.668 -64.094 Q85.471 -64.094 81.597 -62.159 Q77.722 -60.224 76.433 -56.354 L76.11 -55.225 H74.82 Q69.728 -54.593 66.711 -50.897 Q63.694 -47.203 63.694 -42.406 Q63.694 -36.696 67.37 -32.979 Q71.047 -29.264 77.157 -29.264 Z M18.06 26.69 Q12.065 26.69 7.725 22.351 Q3.386 18.012 3.386 12.016 V-72.156 Q3.386 -75.185 5.46 -77.218 Q7.534 -79.251 10.701 -79.251 Q13.867 -79.251 15.964 -77.218 Q18.06 -75.185 18.06 -72.156 V12.016 Q18.06 12.016 18.06 12.016 Q18.06 12.016 18.06 12.016 H129 Q132.19 12.016 134.223 14.174 Q136.256 16.33 136.256 19.352 Q136.256 22.373 134.223 24.532 Q132.19 26.69 129 26.69 H18.06 Z M42.57 2.341 Q36.509 2.341 32.123 -2.046 Q27.735 -6.432 27.735 -12.494 V-91.345 Q27.735 -97.406 32.123 -101.792 Q36.509 -106.18 42.57 -106.18 H75.788 Q78.796 -106.18 81.522 -104.996 Q84.248 -103.811 86.461 -101.586 L92.88 -95.215 H136.74 Q142.734 -95.215 147.075 -90.827 Q151.414 -86.441 151.414 -80.38 V-12.494 Q151.414 -6.432 147.075 -2.046 Q142.734 2.341 136.74 2.341 H42.57 Z M42.57 -12.655 H136.74 Q136.74 -12.655 136.74 -12.655 Q136.74 -12.655 136.74 -12.655 V-80.38 Q136.74 -80.38 136.74 -80.38 Q136.74 -80.38 136.74 -80.38 H86.591 L75.626 -91.345 H42.57 Q42.57 -91.345 42.57 -91.345 Q42.57 -91.345 42.57 -91.345 V-12.655 Q42.57 -12.655 42.57 -12.655 Q42.57 -12.655 42.57 -12.655 Z"/></g><g id="Semibold-L" transform="matrix(1 0 0 1 1970.27 1556)"><path d="M76.141 -28.072 H104.371 Q108.849 -28.072 111.953 -30.983 Q115.055 -33.892 115.055 -38.724 Q115.055 -42.936 112.351 -45.926 Q109.647 -48.915 105.472 -49.42 H103.814 L103.492 -51.032 Q102.316 -56.031 98.367 -59.361 Q94.418 -62.691 89.015 -62.691 Q84.766 -62.691 80.93 -60.687 Q77.092 -58.682 75.802 -54.812 L75.48 -53.683 H74.19 Q69.138 -53.185 66.03 -49.518 Q62.923 -45.853 62.923 -41.014 Q62.923 -35.503 66.648 -31.787 Q70.374 -28.072 76.141 -28.072 Z M17.009 26.2 Q11.607 26.2 7.601 22.194 Q3.596 18.189 3.596 12.787 V-71.455 Q3.596 -74.203 5.529 -76.096 Q7.463 -77.989 10.315 -77.989 Q13.166 -77.989 15.088 -76.096 Q17.009 -74.203 17.009 -71.455 V12.787 Q17.009 12.787 17.009 12.787 Q17.009 12.787 17.009 12.787 H129.069 Q131.909 12.787 133.802 14.754 Q135.695 16.723 135.695 19.492 Q135.695 22.262 133.802 24.231 Q131.909 26.2 129.069 26.2 H17.009 Z M40.187 3.112 Q34.746 3.112 30.715 -0.919 Q26.684 -4.95 26.684 -10.391 V-91.695 Q26.684 -97.135 30.715 -101.167 Q34.746 -105.198 40.187 -105.198 H75.086 Q77.84 -105.198 80.335 -104.106 Q82.829 -103.013 84.771 -101.054 L91.969 -93.883 H137.791 Q143.193 -93.883 147.199 -89.852 Q151.204 -85.819 151.204 -80.38 V-10.391 Q151.204 -4.95 147.199 -0.919 Q143.193 3.112 137.791 3.112 H40.187 Z M40.187 -10.131 H137.791 Q137.791 -10.131 137.791 -10.131 Q137.791 -10.131 137.791 -10.131 V-80.38 Q137.791 -80.38 137.791 -80.38 Q137.791 -80.38 137.791 -80.38 H86.311 L74.996 -91.695 H40.187 Q40.187 -91.695 40.187 -91.695 Q40.187 -91.695 40.187 -91.695 V-10.131 Q40.187 -10.131 40.187 -10.131 Q40.187 -10.131 40.187 -10.131 Z"/></g><g id="Medium-L" transform="matrix(1 0 0 1 1674.31 1556)"><path d="M75.38 -27.179 H104.161 Q108.552 -27.179 111.593 -30.088 Q114.634 -32.998 114.634 -37.663 Q114.634 -41.867 111.877 -44.839 Q109.119 -47.811 104.998 -48.211 H103.274 L102.952 -49.823 Q101.895 -54.822 97.921 -58.231 Q93.944 -61.64 88.525 -61.64 Q84.237 -61.64 80.428 -59.582 Q76.618 -57.524 75.328 -53.654 L75.005 -52.526 H73.715 Q68.694 -52.129 65.519 -48.485 Q62.344 -44.84 62.344 -39.969 Q62.344 -34.609 66.106 -30.894 Q69.87 -27.179 75.38 -27.179 Z M16.22 25.831 Q11.262 25.831 7.508 22.077 Q3.754 18.324 3.754 13.366 V-70.929 Q3.754 -73.466 5.582 -75.254 Q7.411 -77.042 10.025 -77.042 Q12.64 -77.042 14.43 -75.254 Q16.22 -73.466 16.22 -70.929 V13.366 Q16.22 13.366 16.22 13.366 Q16.22 13.366 16.22 13.366 H129.123 Q131.698 13.366 133.486 15.191 Q135.274 17.017 135.274 19.597 Q135.274 22.177 133.486 24.004 Q131.698 25.831 129.123 25.831 H16.22 Z M38.398 3.691 Q33.426 3.691 29.66 -0.074 Q25.895 -3.839 25.895 -8.812 V-91.958 Q25.895 -96.932 29.66 -100.697 Q33.426 -104.463 38.398 -104.463 H74.56 Q77.123 -104.463 79.443 -103.437 Q81.765 -102.413 83.503 -100.654 L91.285 -92.883 H138.58 Q143.538 -92.883 147.292 -89.118 Q151.046 -85.353 151.046 -80.38 V-8.812 Q151.046 -3.839 147.292 -0.074 Q143.538 3.691 138.58 3.691 H38.398 Z M38.398 -8.238 H138.58 Q138.58 -8.238 138.58 -8.238 Q138.58 -8.238 138.58 -8.238 V-80.38 Q138.58 -80.38 138.58 -80.38 Q138.58 -80.38 138.58 -80.38 H86.101 L74.522 -91.958 H38.398 Q38.398 -91.958 38.398 -91.958 Q38.398 -91.958 38.398 -91.958 V-8.238 Q38.398 -8.238 38.398 -8.238 Q38.398 -8.238 38.398 -8.238 Z"/></g><g id="Regular-L" transform="matrix(1 0 0 1 1378.56 1556)"><path d="M74.82 -26.522 H104.006 Q108.334 -26.522 111.33 -29.433 Q114.326 -32.342 114.326 -36.886 Q114.326 -41.083 111.53 -44.042 Q108.734 -47.001 104.651 -47.324 H102.877 L102.555 -48.936 Q101.588 -53.935 97.592 -57.402 Q93.598 -60.869 88.165 -60.869 Q83.85 -60.869 80.061 -58.772 Q76.271 -56.676 74.981 -52.806 L74.659 -51.677 H73.369 Q68.37 -51.355 65.145 -47.727 Q61.92 -44.099 61.92 -39.203 Q61.92 -33.955 65.709 -30.238 Q69.499 -26.522 74.82 -26.522 Z M15.641 25.561 Q11.01 25.561 7.44 21.991 Q3.87 18.423 3.87 13.79 V-70.544 Q3.87 -72.927 5.621 -74.638 Q7.372 -76.349 9.814 -76.349 Q12.255 -76.349 13.948 -74.638 Q15.641 -72.927 15.641 -70.544 V13.79 Q15.641 13.79 15.641 13.79 Q15.641 13.79 15.641 13.79 H129.161 Q131.545 13.79 133.255 15.512 Q134.966 17.233 134.966 19.674 Q134.966 22.115 133.255 23.839 Q131.545 25.561 129.161 25.561 H15.641 Z M37.087 4.115 Q32.455 4.115 28.886 0.545 Q25.316 -3.024 25.316 -7.656 V-92.151 Q25.316 -96.782 28.886 -100.352 Q32.455 -103.922 37.087 -103.922 H74.175 Q76.597 -103.922 78.79 -102.949 Q80.985 -101.973 82.575 -100.36 L90.784 -92.151 H139.159 Q143.79 -92.151 147.36 -88.581 Q150.93 -85.011 150.93 -80.38 V-7.656 Q150.93 -3.024 147.36 0.545 Q143.79 4.115 139.159 4.115 H37.087 Z M37.087 -6.85 H139.159 Q139.159 -6.85 139.159 -6.85 Q139.159 -6.85 139.159 -6.85 V-80.38 Q139.159 -80.38 139.159 -80.38 Q139.159 -80.38 139.159 -80.38 H85.946 L74.175 -92.151 H37.087 Q37.087 -92.151 37.087 -92.151 Q37.087 -92.151 37.087 -92.151 V-6.85 Q37.087 -6.85 37.087 -6.85 Q37.087 -6.85 37.087 -6.85 Z"/></g><g id="Light-L" transform="matrix(1 0 0 1 1082.77 1556)"><path d="M73.828 -27.95 H103.572 Q107.465 -27.95 110.121 -30.518 Q112.775 -33.087 112.775 -37.197 Q112.775 -40.959 110.321 -43.578 Q107.867 -46.195 104.217 -46.517 H101.265 L100.757 -49.246 Q99.911 -53.837 96.181 -57.075 Q92.451 -60.311 87.435 -60.311 Q83.416 -60.311 79.967 -58.369 Q76.52 -56.428 75.23 -52.806 L74.535 -50.995 L72.377 -50.933 Q67.873 -50.549 64.927 -47.311 Q61.981 -44.073 61.981 -39.593 Q61.981 -34.761 65.461 -31.355 Q68.941 -27.95 73.828 -27.95 Z M18.494 21.591 Q13.938 21.591 10.517 18.17 Q7.095 14.748 7.095 10.193 V-63.721 Q7.095 -65.606 8.506 -66.977 Q9.917 -68.348 11.862 -68.348 Q13.806 -68.348 15.158 -66.977 Q16.51 -65.606 16.51 -63.721 V10.193 Q16.51 10.937 17.13 11.557 Q17.75 12.178 18.494 12.178 H125.936 Q127.821 12.178 129.192 13.559 Q130.563 14.94 130.563 16.884 Q130.563 18.829 129.192 20.209 Q127.821 21.591 125.936 21.591 H18.494 Z M38.452 1.633 Q33.896 1.633 30.475 -1.787 Q27.053 -5.208 27.053 -9.765 V-89.299 Q27.053 -93.854 30.475 -97.276 Q33.896 -100.697 38.452 -100.697 H74.299 Q76.658 -100.697 78.79 -99.754 Q80.923 -98.811 82.512 -97.26 L89.171 -90.539 H136.306 Q140.862 -90.539 144.283 -87.117 Q147.705 -83.695 147.705 -79.14 V-9.765 Q147.705 -5.208 144.283 -1.787 Q140.862 1.633 136.306 1.633 H38.452 Z M38.452 -6.974 H136.306 Q137.05 -6.974 137.67 -7.595 Q138.29 -8.214 138.29 -8.959 V-79.14 Q138.29 -79.883 137.67 -80.504 Q137.05 -81.125 136.306 -81.125 H85.264 L75.105 -91.282 H38.452 Q37.584 -91.282 37.026 -90.724 Q36.467 -90.166 36.467 -89.299 V-8.959 Q36.467 -8.214 37.087 -7.595 Q37.708 -6.974 38.452 -6.974 Z"/></g><g id="Thin-L" transform="matrix(1 0 0 1 787.282 1556)"><path d="M72.835 -29.375 H103.139 Q106.598 -29.375 108.911 -31.603 Q111.225 -33.83 111.225 -37.507 Q111.225 -40.835 109.111 -43.112 Q106.997 -45.389 103.784 -45.711 H99.653 L98.958 -49.557 Q98.234 -53.74 94.77 -56.746 Q91.306 -59.753 86.704 -59.753 Q82.982 -59.753 79.875 -57.966 Q76.768 -56.18 75.478 -52.806 L74.41 -50.313 L71.384 -50.189 Q67.378 -49.742 64.711 -46.895 Q62.044 -44.047 62.044 -39.984 Q62.044 -35.567 65.213 -32.471 Q68.383 -29.375 72.835 -29.375 Z M21.346 17.623 Q16.867 17.623 13.593 14.35 Q10.32 11.076 10.32 6.595 V-56.9 Q10.32 -58.287 11.391 -59.318 Q12.461 -60.348 13.909 -60.348 Q15.356 -60.348 16.367 -59.318 Q17.378 -58.287 17.378 -56.9 V6.595 Q17.378 8.085 18.618 9.325 Q19.858 10.565 21.346 10.565 H122.711 Q124.098 10.565 125.128 11.607 Q126.159 12.648 126.159 14.095 Q126.159 15.541 125.128 16.583 Q124.098 17.623 122.711 17.623 H21.346 Z M39.816 -0.847 Q35.336 -0.847 32.063 -4.12 Q28.79 -7.393 28.79 -11.873 V-86.446 Q28.79 -90.926 32.063 -94.199 Q35.336 -97.472 39.816 -97.472 H74.423 Q76.721 -97.472 78.79 -96.56 Q80.86 -95.647 82.45 -94.159 L87.559 -88.926 H133.454 Q137.933 -88.926 141.207 -85.653 Q144.48 -82.379 144.48 -77.9 V-11.873 Q144.48 -7.393 141.207 -4.12 Q137.933 -0.847 133.454 -0.847 H39.816 Z M39.816 -7.098 H133.454 Q134.942 -7.098 136.182 -8.338 Q137.422 -9.578 137.422 -11.067 V-77.9 Q137.422 -79.388 136.182 -80.628 Q134.942 -81.868 133.454 -81.868 H84.582 L76.036 -90.415 H39.816 Q38.079 -90.415 36.963 -89.299 Q35.847 -88.181 35.847 -86.446 V-11.067 Q35.847 -9.578 37.087 -8.338 Q38.328 -7.098 39.816 -7.098 Z"/></g><g id="Ultralight-L" transform="matrix(1 0 0 1 491.205 1556)"><path d="M72.24 -30.231 H102.877 Q106.077 -30.231 108.186 -32.255 Q110.295 -34.277 110.295 -37.692 Q110.295 -40.761 108.386 -42.833 Q106.477 -44.905 103.523 -45.227 H98.685 L97.879 -49.742 Q97.227 -53.682 93.923 -56.549 Q90.619 -59.417 86.267 -59.417 Q82.721 -59.417 79.819 -57.724 Q76.916 -56.031 75.626 -52.806 L74.336 -49.904 L70.789 -49.742 Q67.08 -49.259 64.581 -46.645 Q62.081 -44.031 62.081 -40.217 Q62.081 -36.051 65.064 -33.14 Q68.047 -30.231 72.24 -30.231 Z M23.059 15.241 Q18.624 15.241 15.44 12.057 Q12.255 8.872 12.255 4.438 V-52.806 Q12.255 -53.895 13.123 -54.722 Q13.988 -55.547 15.138 -55.547 Q16.286 -55.547 17.093 -54.722 Q17.899 -53.895 17.899 -52.806 V4.438 Q17.899 6.373 19.511 7.985 Q21.124 9.598 23.059 9.598 H120.776 Q121.865 9.598 122.692 10.434 Q123.517 11.273 123.517 12.421 Q123.517 13.569 122.692 14.406 Q121.865 15.241 120.776 15.241 H23.059 Z M40.635 -2.335 Q36.201 -2.335 33.016 -5.52 Q29.831 -8.704 29.831 -13.139 V-84.734 Q29.831 -89.168 33.016 -92.353 Q36.201 -95.537 40.635 -95.537 H74.498 Q76.758 -95.537 78.79 -94.644 Q80.823 -93.749 82.413 -92.298 L86.591 -87.959 H131.741 Q136.176 -87.959 139.36 -84.774 Q142.545 -81.589 142.545 -77.155 V-13.139 Q142.545 -8.704 139.36 -5.52 Q136.176 -2.335 131.741 -2.335 H40.635 Z M40.635 -7.172 H131.741 Q133.676 -7.172 135.289 -8.785 Q136.901 -10.397 136.901 -12.332 V-77.155 Q136.901 -79.09 135.289 -80.702 Q133.676 -82.315 131.741 -82.315 H84.172 L76.594 -89.894 H40.635 Q38.377 -89.894 36.926 -88.442 Q35.475 -86.991 35.475 -84.734 V-12.332 Q35.475 -10.397 37.087 -8.785 Q38.7 -7.172 40.635 -7.172 Z"/></g><g id="Bold-M" transform="matrix(1 0 0 1 2281.8 1126)"><path d="M64.875 -31.605 H83.625 Q87.888 -31.605 90.944 -34.576 Q94 -37.549 94 -41.937 Q94 -45.684 91.688 -48.456 Q89.375 -51.23 85.875 -52.105 H86 Q84.625 -55.98 81.25 -58.542 Q77.875 -61.105 73.5 -61.105 Q69.934 -61.105 67.03 -59.417 Q64.125 -57.73 62.375 -54.98 Q58.25 -54.105 55.625 -50.889 Q53 -47.671 53 -43.48 Q53 -38.58 56.35 -35.092 Q59.7 -31.605 64.875 -31.605 Z M16.625 16.145 Q9.485 16.145 4.555 11.215 Q-0.375 6.285 -0.375 -0.855 V-55.355 Q-0.375 -58.855 2.062 -61.292 Q4.5 -63.73 8.062 -63.73 Q11.625 -63.73 14.125 -61.292 Q16.625 -58.855 16.625 -55.355 V-0.855 Q16.625 -0.855 16.625 -0.855 Q16.625 -0.855 16.625 -0.855 H95 Q98.625 -0.855 101.062 1.67 Q103.5 4.195 103.5 7.645 Q103.5 11.095 101.062 13.62 Q98.625 16.145 95 16.145 H16.625 Z M43.625 -10.855 Q36.485 -10.855 31.555 -15.785 Q26.625 -20.715 26.625 -27.855 V-78.355 Q26.625 -85.496 31.555 -90.425 Q36.485 -95.355 43.625 -95.355 H58.875 Q62.32 -95.355 65.441 -94.056 Q68.564 -92.759 71.013 -90.305 L79.125 -82.23 H103.375 Q110.516 -82.23 115.445 -77.3 Q120.375 -72.371 120.375 -65.23 V-27.855 Q120.375 -20.715 115.445 -15.785 Q110.516 -10.855 103.375 -10.855 H43.625 Z M43.625 -27.355 H103.375 Q103.375 -27.355 103.375 -27.355 Q103.375 -27.355 103.375 -27.355 V-65.23 Q103.375 -65.23 103.375 -65.23 Q103.375 -65.23 103.375 -65.23 H71.875 L58.75 -78.355 H43.625 Q43.625 -78.355 43.625 -78.355 Q43.625 -78.355 43.625 -78.355 V-27.355 Q43.625 -27.355 43.625 -27.355 Q43.625 -27.355 43.625 -27.355 Z"/></g><g id="Semibold-M" transform="matrix(1 0 0 1 1985.97 1126)"><path d="M63.734 -30.517 H83.19 Q87.309 -30.517 90.22 -33.381 Q93.13 -36.244 93.13 -40.435 Q93.13 -44.144 90.791 -46.845 Q88.451 -49.545 84.951 -50.257 H85.021 Q83.81 -54.186 80.435 -56.831 Q77.06 -59.475 72.685 -59.475 Q69.093 -59.475 66.229 -57.76 Q63.364 -56.045 61.669 -53.241 Q57.597 -52.475 54.919 -49.325 Q52.239 -46.175 52.239 -42.012 Q52.239 -37.33 55.519 -33.924 Q58.797 -30.517 63.734 -30.517 Z M15.592 15.221 Q9.18 15.221 4.701 10.743 Q0.223 6.264 0.223 -0.149 V-55.137 Q0.223 -58.311 2.442 -60.531 Q4.662 -62.751 7.872 -62.751 Q11.081 -62.751 13.338 -60.531 Q15.592 -58.311 15.592 -55.137 V-0.149 Q15.592 -0.149 15.592 -0.149 Q15.592 -0.149 15.592 -0.149 H95.054 Q98.299 -0.149 100.519 2.121 Q102.739 4.391 102.739 7.536 Q102.739 10.683 100.519 12.951 Q98.299 15.221 95.054 15.221 H15.592 Z M40.962 -10.149 Q34.55 -10.149 30.071 -14.627 Q25.593 -19.106 25.593 -25.519 V-78.409 Q25.593 -84.821 30.071 -89.3 Q34.55 -93.779 40.962 -93.779 H58.06 Q61.171 -93.779 63.991 -92.606 Q66.811 -91.432 68.996 -89.24 L77.657 -80.6 H104.407 Q110.82 -80.6 115.299 -76.121 Q119.778 -71.642 119.778 -65.23 V-25.519 Q119.778 -19.106 115.299 -14.627 Q110.82 -10.149 104.407 -10.149 H40.962 Z M40.962 -24.692 H104.407 Q104.407 -24.692 104.407 -24.692 Q104.407 -24.692 104.407 -24.692 V-65.23 Q104.407 -65.23 104.407 -65.23 Q104.407 -65.23 104.407 -65.23 H71.169 L57.989 -78.409 H40.962 Q40.962 -78.409 40.962 -78.409 Q40.962 -78.409 40.962 -78.409 V-24.692 Q40.962 -24.692 40.962 -24.692 Q40.962 -24.692 40.962 -24.692 Z"/></g><g id="Medium-M" transform="matrix(1 0 0 1 1689.91 1126)"><path d="M62.877 -29.702 H82.864 Q86.875 -29.702 89.676 -32.485 Q92.479 -35.266 92.479 -39.307 Q92.479 -42.99 90.119 -45.635 Q87.759 -48.281 84.259 -48.871 H84.287 Q83.199 -52.841 79.824 -55.546 Q76.449 -58.251 72.074 -58.251 Q68.463 -58.251 65.627 -56.516 Q62.794 -54.781 61.139 -51.936 Q57.109 -51.251 54.389 -48.152 Q51.669 -45.052 51.669 -40.912 Q51.669 -36.392 54.895 -33.047 Q58.121 -29.702 62.877 -29.702 Z M14.818 14.529 Q8.951 14.529 4.811 10.388 Q0.671 6.248 0.671 0.381 V-54.975 Q0.671 -57.904 2.729 -59.961 Q4.785 -62.017 7.73 -62.017 Q10.674 -62.017 12.746 -59.961 Q14.818 -57.904 14.818 -54.975 V0.381 Q14.818 0.381 14.818 0.381 Q14.818 0.381 14.818 0.381 H95.095 Q98.054 0.381 100.111 2.46 Q102.169 4.538 102.169 7.455 Q102.169 10.373 100.111 12.45 Q98.054 14.529 95.095 14.529 H14.818 Z M38.965 -9.619 Q33.099 -9.619 28.959 -13.759 Q24.817 -17.899 24.817 -23.765 V-78.45 Q24.817 -84.316 28.959 -88.456 Q33.099 -92.596 38.965 -92.596 H57.449 Q60.31 -92.596 62.904 -91.517 Q65.498 -90.437 67.484 -88.441 L76.558 -79.376 H105.183 Q111.049 -79.376 115.189 -75.236 Q119.329 -71.096 119.329 -65.23 V-23.765 Q119.329 -17.899 115.189 -13.759 Q111.049 -9.619 105.183 -9.619 H38.965 Z M38.965 -22.695 H105.183 Q105.183 -22.695 105.183 -22.695 Q105.183 -22.695 105.183 -22.695 V-65.23 Q105.183 -65.23 105.183 -65.23 Q105.183 -65.23 105.183 -65.23 H70.639 L57.419 -78.45 H38.965 Q38.965 -78.45 38.965 -78.45 Q38.965 -78.45 38.965 -78.45 V-22.695 Q38.965 -22.695 38.965 -22.695 Q38.965 -22.695 38.965 -22.695 Z"/></g><g id="Regular-M" transform="matrix(1 0 0 1 1394.06 1126)"><path d="M62.25 -29.105 H82.625 Q86.556 -29.105 89.279 -31.826 Q92 -34.549 92 -38.48 Q92 -42.142 89.625 -44.749 Q87.25 -47.355 83.75 -47.855 Q82.75 -51.855 79.375 -54.605 Q76 -57.355 71.625 -57.355 Q68 -57.355 65.188 -55.605 Q62.375 -53.855 60.75 -50.98 Q56.75 -50.355 54 -47.292 Q51.25 -44.23 51.25 -40.105 Q51.25 -35.705 54.438 -32.405 Q57.625 -29.105 62.25 -29.105 Z M14.25 14.02 Q8.785 14.02 4.893 10.128 Q1 6.236 1 0.77 V-54.855 Q1 -57.605 2.938 -59.542 Q4.875 -61.48 7.625 -61.48 Q10.375 -61.48 12.312 -59.542 Q14.25 -57.605 14.25 -54.855 V0.77 Q14.25 0.77 14.25 0.77 Q14.25 0.77 14.25 0.77 H95.125 Q97.875 0.77 99.812 2.708 Q101.75 4.645 101.75 7.395 Q101.75 10.145 99.812 12.083 Q97.875 14.02 95.125 14.02 H14.25 Z M37.5 -9.23 Q32.034 -9.23 28.142 -13.122 Q24.25 -17.014 24.25 -22.48 V-78.48 Q24.25 -83.945 28.142 -87.837 Q32.034 -91.73 37.5 -91.73 H57 Q59.679 -91.73 62.106 -90.719 Q64.534 -89.709 66.375 -87.855 L75.75 -78.48 H105.75 Q111.215 -78.48 115.108 -74.587 Q119 -70.695 119 -65.23 V-22.48 Q119 -17.014 115.108 -13.122 Q111.215 -9.23 105.75 -9.23 H37.5 Z M37.5 -21.23 H105.75 Q105.75 -21.23 105.75 -21.23 Q105.75 -21.23 105.75 -21.23 V-65.23 Q105.75 -65.23 105.75 -65.23 Q105.75 -65.23 105.75 -65.23 H70.25 L57 -78.48 H37.5 Q37.5 -78.48 37.5 -78.48 Q37.5 -78.48 37.5 -78.48 V-21.23 Q37.5 -21.23 37.5 -21.23 Q37.5 -21.23 37.5 -21.23 Z"/></g><g id="Light-M" transform="matrix(1 0 0 1 1098.18 1126)"><path d="M60.519 -29.874 H81.951 Q85.45 -29.874 87.884 -32.307 Q90.317 -34.741 90.317 -38.24 Q90.317 -41.47 88.231 -43.787 Q86.144 -46.105 83.076 -46.605 H81.826 L81.635 -47.807 Q80.73 -51.47 77.573 -54.027 Q74.414 -56.586 70.375 -56.586 Q66.99 -56.586 64.419 -54.956 Q61.846 -53.326 60.318 -50.691 L59.932 -49.922 L59.019 -49.874 Q55.404 -49.249 52.919 -46.499 Q50.432 -43.749 50.432 -39.961 Q50.432 -35.897 53.38 -32.886 Q56.326 -29.874 60.519 -29.874 Z M15.789 10.943 Q10.66 10.943 7.08 7.364 Q3.5 3.784 3.5 -1.345 V-50.912 Q3.5 -53.134 5.077 -54.71 Q6.654 -56.287 8.875 -56.287 Q11.096 -56.287 12.672 -54.71 Q14.25 -53.134 14.25 -50.912 V-1.345 Q14.25 -0.769 14.731 -0.287 Q15.211 0.193 15.789 0.193 H93.971 Q96.192 0.193 97.769 1.77 Q99.346 3.346 99.346 5.568 Q99.346 7.789 97.769 9.366 Q96.192 10.943 93.971 10.943 H15.789 Z M36.539 -9.807 Q31.409 -9.807 27.83 -13.386 Q24.25 -16.966 24.25 -22.095 V-76.941 Q24.25 -82.07 27.83 -85.65 Q31.409 -89.23 36.539 -89.23 H57.385 Q59.871 -89.23 62.154 -88.267 Q64.438 -87.304 66.135 -85.595 L73.826 -77.902 H104.211 Q109.34 -77.902 112.92 -74.324 Q116.5 -70.744 116.5 -65.615 V-22.095 Q116.5 -16.966 112.92 -13.386 Q109.34 -9.807 104.211 -9.807 H36.539 Z M36.539 -19.306 H104.211 Q104.789 -19.306 105.269 -19.787 Q105.75 -20.269 105.75 -20.845 V-65.615 Q105.75 -66.191 105.269 -66.672 Q104.789 -67.154 104.211 -67.154 H69.336 L58.01 -78.48 H36.539 Q35.865 -78.48 35.432 -78.047 Q35 -77.615 35 -76.941 V-20.845 Q35 -20.269 35.48 -19.787 Q35.961 -19.306 36.539 -19.306 Z"/></g><g id="Thin-M" transform="matrix(1 0 0 1 802.565 1126)"><path d="M58.789 -30.644 H81.279 Q84.345 -30.644 86.49 -32.789 Q88.635 -34.934 88.635 -37.999 Q88.635 -40.796 86.836 -42.826 Q85.039 -44.855 82.404 -45.355 H79.904 L79.519 -47.759 Q78.711 -51.086 75.769 -53.451 Q72.828 -55.816 69.125 -55.816 Q65.981 -55.816 63.649 -54.307 Q61.318 -52.797 59.885 -50.402 L59.115 -48.865 L57.289 -48.769 Q54.057 -48.144 51.836 -45.706 Q49.615 -43.269 49.615 -39.816 Q49.615 -36.09 52.322 -33.366 Q55.029 -30.644 58.789 -30.644 Z M17.328 7.866 Q12.534 7.866 9.268 4.599 Q6 1.331 6 -3.461 V-46.97 Q6 -48.662 7.216 -49.879 Q8.432 -51.095 10.125 -51.095 Q11.818 -51.095 13.034 -49.879 Q14.25 -48.662 14.25 -46.97 V-3.461 Q14.25 -2.307 15.211 -1.345 Q16.172 -0.384 17.328 -0.384 H92.817 Q94.51 -0.384 95.726 0.833 Q96.942 2.049 96.942 3.741 Q96.942 5.434 95.726 6.65 Q94.51 7.866 92.817 7.866 H17.328 Z M35.578 -10.384 Q30.785 -10.384 27.517 -13.651 Q24.25 -16.919 24.25 -21.711 V-75.402 Q24.25 -80.196 27.517 -83.462 Q30.785 -86.73 35.578 -86.73 H57.769 Q60.064 -86.73 62.203 -85.815 Q64.341 -84.9 65.894 -83.336 L71.904 -77.326 H102.672 Q107.466 -77.326 110.733 -74.059 Q114 -70.791 114 -65.999 V-21.711 Q114 -16.919 110.733 -13.651 Q107.466 -10.384 102.672 -10.384 H35.578 Z M35.578 -17.384 H102.672 Q103.828 -17.384 104.789 -18.345 Q105.75 -19.307 105.75 -20.461 V-65.999 Q105.75 -67.152 104.789 -68.115 Q103.828 -69.076 102.672 -69.076 H68.422 L59.019 -78.48 H35.578 Q34.231 -78.48 33.365 -77.615 Q32.5 -76.749 32.5 -75.402 V-20.461 Q32.5 -19.307 33.461 -18.345 Q34.422 -17.384 35.578 -17.384 Z"/></g><g id="Ultralight-M" transform="matrix(1 0 0 1 506.415 1126)"><path d="M57.75 -31.105 H80.875 Q83.681 -31.105 85.654 -33.076 Q87.625 -35.049 87.625 -37.855 Q87.625 -40.392 86 -42.249 Q84.375 -44.105 82 -44.605 H78.75 L78.25 -47.73 Q77.5 -50.855 74.688 -53.105 Q71.875 -55.355 68.375 -55.355 Q65.375 -55.355 63.188 -53.917 Q61 -52.48 59.625 -50.23 L58.625 -48.23 L56.25 -48.105 Q53.25 -47.48 51.188 -45.23 Q49.125 -42.98 49.125 -39.73 Q49.125 -36.205 51.688 -33.655 Q54.25 -31.105 57.75 -31.105 Z M18.25 6.02 Q13.66 6.02 10.58 2.94 Q7.5 -0.139 7.5 -4.73 V-44.605 Q7.5 -45.98 8.5 -46.98 Q9.5 -47.98 10.875 -47.98 Q12.25 -47.98 13.25 -46.98 Q14.25 -45.98 14.25 -44.605 V-4.73 Q14.25 -3.23 15.5 -1.98 Q16.75 -0.73 18.25 -0.73 H92.125 Q93.5 -0.73 94.5 0.27 Q95.5 1.27 95.5 2.645 Q95.5 4.02 94.5 5.02 Q93.5 6.02 92.125 6.02 H18.25 Z M35 -10.73 Q30.409 -10.73 27.33 -13.81 Q24.25 -16.889 24.25 -21.48 V-74.48 Q24.25 -79.07 27.33 -82.15 Q30.409 -85.23 35 -85.23 H58 Q60.179 -85.23 62.231 -84.344 Q64.284 -83.459 65.75 -81.98 L70.75 -76.98 H101.75 Q106.34 -76.98 109.42 -73.9 Q112.5 -70.82 112.5 -66.23 V-21.48 Q112.5 -16.889 109.42 -13.81 Q106.34 -10.73 101.75 -10.73 H35 Z M35 -16.23 H101.75 Q103.25 -16.23 104.5 -17.48 Q105.75 -18.73 105.75 -20.23 V-66.23 Q105.75 -67.73 104.5 -68.98 Q103.25 -70.23 101.75 -70.23 H67.875 L59.625 -78.48 H35 Q33.25 -78.48 32.125 -77.355 Q31 -76.23 31 -74.48 V-20.23 Q31 -18.73 32.25 -17.48 Q33.5 -16.23 35 -16.23 Z"/></g><g id="Bold-S" transform="matrix(1 0 0 1 2294.23 696)"><path d="M48.326 -31.581 H62.477 Q65.738 -31.581 68.078 -33.865 Q70.418 -36.149 70.418 -39.525 Q70.418 -42.393 68.651 -44.482 Q66.884 -46.572 64.205 -47.262 H64.402 Q63.334 -50.193 60.754 -52.13 Q58.174 -54.067 54.836 -54.067 Q52.022 -54.067 49.83 -52.789 Q47.639 -51.511 46.31 -49.432 Q43.2 -48.75 41.226 -46.297 Q39.253 -43.843 39.253 -40.654 Q39.253 -36.907 41.847 -34.244 Q44.44 -31.581 48.326 -31.581 Z M13.117 2.938 Q7.809 2.938 4.151 -0.72 Q0.493 -4.378 0.493 -9.686 V-51.503 Q0.493 -54.097 2.297 -55.907 Q4.101 -57.716 6.735 -57.716 Q9.369 -57.716 11.243 -55.907 Q13.117 -54.097 13.117 -51.503 V-9.686 Q13.117 -9.686 13.117 -9.686 Q13.117 -9.686 13.117 -9.686 H70.714 Q73.407 -9.686 75.216 -7.813 Q77.026 -5.94 77.026 -3.395 Q77.026 -0.849 75.216 1.044 Q73.407 2.938 70.714 2.938 H13.117 Z M32.842 -16.787 Q27.534 -16.787 23.876 -20.445 Q20.218 -24.102 20.218 -29.411 V-68.467 Q20.218 -73.776 23.876 -77.433 Q27.534 -81.091 32.842 -81.091 H42.014 Q44.557 -81.091 46.861 -80.165 Q49.166 -79.239 51.098 -77.303 L59.274 -69.157 H76.829 Q82.167 -69.256 85.81 -65.569 Q89.453 -61.882 89.453 -56.533 V-29.411 Q89.453 -24.102 85.795 -20.445 Q82.138 -16.787 76.829 -16.787 H32.842 Z M32.842 -29.017 H76.829 Q76.829 -29.017 76.829 -29.017 Q76.829 -29.017 76.829 -29.017 V-56.533 Q76.829 -56.533 76.829 -56.533 Q76.829 -56.533 76.829 -56.533 H53.849 L41.916 -68.467 H32.842 Q32.842 -68.467 32.842 -68.467 Q32.842 -68.467 32.842 -68.467 V-29.017 Q32.842 -29.017 32.842 -29.017 Q32.842 -29.017 32.842 -29.017 Z"/></g><g id="Semibold-S" transform="matrix(1 0 0 1 1998.1 696)"><path d="M47.426 -30.723 H62.134 Q65.281 -30.723 67.507 -32.922 Q69.732 -35.121 69.732 -38.339 Q69.732 -41.178 67.944 -43.211 Q66.155 -45.242 63.476 -45.805 H63.63 Q62.691 -48.778 60.111 -50.78 Q57.531 -52.781 54.192 -52.781 Q51.358 -52.781 49.199 -51.481 Q47.039 -50.182 45.753 -48.06 Q42.685 -47.463 40.669 -45.063 Q38.652 -42.662 38.652 -39.497 Q38.652 -35.92 41.191 -33.322 Q43.728 -30.723 47.426 -30.723 Z M12.302 2.209 Q7.568 2.209 4.267 -1.093 Q0.965 -4.395 0.965 -9.129 V-51.332 Q0.965 -53.668 2.597 -55.306 Q4.229 -56.944 6.585 -56.944 Q8.94 -56.944 10.622 -55.306 Q12.302 -53.668 12.302 -51.332 V-9.129 Q12.302 -9.129 12.302 -9.129 Q12.302 -9.129 12.302 -9.129 H70.757 Q73.149 -9.129 74.787 -7.457 Q76.425 -5.786 76.425 -3.481 Q76.425 -1.175 74.787 0.517 Q73.149 2.209 70.757 2.209 H12.302 Z M30.741 -16.23 Q26.007 -16.23 22.705 -19.532 Q19.403 -22.834 19.403 -27.568 V-68.509 Q19.403 -73.243 22.705 -76.545 Q26.007 -79.847 30.741 -79.847 H41.371 Q43.65 -79.847 45.717 -79.02 Q47.783 -78.193 49.507 -76.463 L58.116 -67.871 H77.644 Q82.407 -67.97 85.694 -64.638 Q88.981 -61.307 88.981 -56.533 V-27.568 Q88.981 -22.834 85.679 -19.532 Q82.378 -16.23 77.644 -16.23 H30.741 Z M30.741 -26.916 H77.644 Q77.644 -26.916 77.644 -26.916 Q77.644 -26.916 77.644 -26.916 V-56.533 Q77.644 -56.533 77.644 -56.533 Q77.644 -56.533 77.644 -56.533 H53.292 L41.315 -68.509 H30.741 Q30.741 -68.509 30.741 -68.509 Q30.741 -68.509 30.741 -68.509 V-26.916 Q30.741 -26.916 30.741 -26.916 Q30.741 -26.916 30.741 -26.916 Z"/></g><g id="Medium-S" transform="matrix(1 0 0 1 1701.85 696)"><path d="M46.75 -30.08 H61.876 Q64.939 -30.08 67.078 -32.214 Q69.218 -34.348 69.218 -37.449 Q69.218 -40.268 67.413 -42.256 Q65.608 -44.245 62.93 -44.711 H63.051 Q62.209 -47.717 59.629 -49.766 Q57.049 -51.816 53.71 -51.816 Q50.861 -51.816 48.725 -50.5 Q46.588 -49.184 45.335 -47.03 Q42.299 -46.498 40.251 -44.138 Q38.202 -41.777 38.202 -38.629 Q38.202 -35.181 40.699 -32.63 Q43.195 -30.08 46.75 -30.08 Z M11.691 1.663 Q7.388 1.663 4.353 -1.373 Q1.319 -4.408 1.319 -8.711 V-51.203 Q1.319 -53.346 2.823 -54.856 Q4.326 -56.365 6.473 -56.365 Q8.619 -56.365 10.155 -54.856 Q11.691 -53.346 11.691 -51.203 V-8.711 Q11.691 -8.711 11.691 -8.711 Q11.691 -8.711 11.691 -8.711 H70.789 Q72.956 -8.711 74.466 -7.191 Q75.976 -5.67 75.976 -3.545 Q75.976 -1.419 74.466 0.121 Q72.956 1.663 70.789 1.663 H11.691 Z M29.165 -15.812 Q24.862 -15.812 21.828 -18.846 Q18.792 -21.881 18.792 -26.184 V-68.542 Q18.792 -72.845 21.828 -75.879 Q24.862 -78.914 29.165 -78.914 H40.889 Q42.971 -78.914 44.859 -78.161 Q46.746 -77.408 48.313 -75.833 L57.248 -66.905 H78.255 Q82.588 -67.004 85.607 -63.941 Q88.627 -60.876 88.627 -56.533 V-26.184 Q88.627 -21.881 85.593 -18.846 Q82.558 -15.812 78.255 -15.812 H29.165 Z M29.165 -25.34 H78.255 Q78.255 -25.34 78.255 -25.34 Q78.255 -25.34 78.255 -25.34 V-56.533 Q78.255 -56.533 78.255 -56.533 Q78.255 -56.533 78.255 -56.533 H52.874 L40.865 -68.542 H29.165 Q29.165 -68.542 29.165 -68.542 Q29.165 -68.542 29.165 -68.542 V-25.34 Q29.165 -25.34 29.165 -25.34 Q29.165 -25.34 29.165 -25.34 Z"/></g><g id="Regular-S" transform="matrix(1 0 0 1 1405.73 696)"><path d="M46.255 -29.608 H61.688 Q64.687 -29.608 66.764 -31.695 Q68.84 -33.782 68.84 -36.797 Q68.84 -39.599 67.024 -41.557 Q65.207 -43.514 62.528 -43.909 H62.627 Q61.855 -46.939 59.275 -49.024 Q56.695 -51.109 53.356 -51.109 Q50.496 -51.109 48.378 -49.781 Q46.258 -48.454 45.028 -46.276 Q42.016 -45.791 39.944 -43.459 Q37.872 -41.128 37.872 -37.991 Q37.872 -34.638 40.338 -32.123 Q42.803 -29.608 46.255 -29.608 Z M11.243 1.261 Q7.257 1.261 4.417 -1.578 Q1.578 -4.417 1.578 -8.404 V-51.109 Q1.578 -53.111 2.987 -54.526 Q4.397 -55.941 6.39 -55.941 Q8.383 -55.941 9.813 -54.526 Q11.243 -53.111 11.243 -51.109 V-8.404 Q11.243 -8.404 11.243 -8.404 Q11.243 -8.404 11.243 -8.404 H70.813 Q72.815 -8.404 74.23 -6.995 Q75.645 -5.585 75.645 -3.592 Q75.645 -1.599 74.23 -0.169 Q72.815 1.261 70.813 1.261 H11.243 Z M28.01 -15.505 Q24.022 -15.505 21.184 -18.344 Q18.344 -21.183 18.344 -25.17 V-68.565 Q18.344 -72.552 21.184 -75.391 Q24.022 -78.23 28.01 -78.23 H40.535 Q42.473 -78.23 44.229 -77.531 Q45.986 -76.833 47.439 -75.37 L56.611 -66.198 H78.703 Q82.719 -66.297 85.543 -63.429 Q88.368 -60.561 88.368 -56.533 V-25.17 Q88.368 -21.183 85.529 -18.344 Q82.689 -15.505 78.703 -15.505 H28.01 Z M28.01 -24.184 H78.703 Q78.703 -24.184 78.703 -24.184 Q78.703 -24.184 78.703 -24.184 V-56.533 Q78.703 -56.533 78.703 -56.533 Q78.703 -56.533 78.703 -56.533 H52.567 L40.535 -68.565 H28.01 Q28.01 -68.565 28.01 -68.565 Q28.01 -68.565 28.01 -68.565 V-24.184 Q28.01 -24.184 28.01 -24.184 Q28.01 -24.184 28.01 -24.184 Z"/></g><g id="Light-S" transform="matrix(1 0 0 1 1109.75 696)"><path d="M44.889 -30.215 H61.156 Q63.814 -30.215 65.664 -32.075 Q67.513 -33.934 67.513 -36.607 Q67.513 -39.068 65.924 -40.798 Q64.334 -42.528 61.997 -42.923 H61.109 L60.958 -43.872 Q60.262 -46.635 57.852 -48.568 Q55.443 -50.502 52.37 -50.502 Q49.699 -50.502 47.77 -49.269 Q45.841 -48.036 44.687 -46.048 L44.384 -45.442 L43.663 -45.403 Q40.954 -44.918 39.09 -42.833 Q37.227 -40.748 37.227 -37.878 Q37.227 -34.79 39.503 -32.503 Q41.779 -30.215 44.889 -30.215 Z M12.457 -1.167 Q8.736 -1.167 6.143 -3.759 Q3.55 -6.352 3.55 -10.073 V-47.998 Q3.55 -49.583 4.676 -50.713 Q5.8 -51.844 7.376 -51.844 Q8.952 -51.844 10.097 -50.713 Q11.243 -49.583 11.243 -47.998 V-10.073 Q11.243 -9.618 11.623 -9.238 Q12.002 -8.86 12.457 -8.86 H69.902 Q71.487 -8.86 72.618 -7.734 Q73.749 -6.61 73.749 -5.034 Q73.749 -3.458 72.618 -2.312 Q71.487 -1.167 69.902 -1.167 H12.457 Z M27.251 -15.961 Q23.529 -15.961 20.937 -18.553 Q18.344 -21.145 18.344 -24.866 V-67.351 Q18.344 -71.072 20.937 -73.665 Q23.529 -76.258 27.251 -76.258 H40.839 Q42.625 -76.258 44.267 -75.597 Q45.91 -74.935 47.249 -73.587 L55.093 -65.743 H77.489 Q81.239 -65.841 83.817 -63.22 Q86.395 -60.598 86.395 -56.837 V-24.866 Q86.395 -21.145 83.803 -18.553 Q81.21 -15.961 77.489 -15.961 H27.251 Z M27.251 -22.666 H77.489 Q77.944 -22.666 78.323 -23.046 Q78.703 -23.426 78.703 -23.88 V-56.837 Q78.703 -57.291 78.323 -57.671 Q77.944 -58.051 77.489 -58.051 H51.846 L41.332 -68.565 H27.251 Q26.719 -68.565 26.378 -68.224 Q26.037 -67.883 26.037 -67.351 V-23.88 Q26.037 -23.426 26.416 -23.046 Q26.795 -22.666 27.251 -22.666 Z"/></g><g id="Thin-S" transform="matrix(1 0 0 1 814.015 696)"><path d="M43.524 -30.822 H60.626 Q62.942 -30.822 64.564 -32.454 Q66.185 -34.086 66.185 -36.417 Q66.185 -38.537 64.823 -40.04 Q63.462 -41.542 61.466 -41.936 H59.592 L59.288 -43.833 Q58.669 -46.332 56.43 -48.113 Q54.19 -49.895 51.384 -49.895 Q48.903 -49.895 47.163 -48.757 Q45.424 -47.619 44.346 -45.82 L43.739 -44.607 L42.297 -44.531 Q39.892 -44.046 38.237 -42.208 Q36.582 -40.369 36.582 -37.764 Q36.582 -34.942 38.669 -32.882 Q40.755 -30.822 43.524 -30.822 Z M13.671 -3.594 Q10.215 -3.594 7.869 -5.94 Q5.523 -8.287 5.523 -11.742 V-44.887 Q5.523 -46.055 6.363 -46.901 Q7.204 -47.747 8.362 -47.747 Q9.521 -47.747 10.382 -46.901 Q11.243 -46.055 11.243 -44.887 V-11.742 Q11.243 -10.832 12.002 -10.073 Q12.76 -9.314 13.671 -9.314 H68.992 Q70.16 -9.314 71.006 -8.474 Q71.852 -7.634 71.852 -6.475 Q71.852 -5.316 71.006 -4.455 Q70.16 -3.594 68.992 -3.594 H13.671 Z M26.493 -16.415 Q23.037 -16.415 20.691 -18.762 Q18.344 -21.108 18.344 -24.564 V-66.137 Q18.344 -69.594 20.691 -71.939 Q23.037 -74.285 26.493 -74.285 H41.141 Q42.777 -74.285 44.305 -73.662 Q45.834 -73.039 47.059 -71.805 L53.576 -65.288 H76.275 Q79.761 -65.387 82.092 -63.012 Q84.423 -60.637 84.423 -57.14 V-24.564 Q84.423 -21.108 82.077 -18.762 Q79.731 -16.415 76.275 -16.415 H26.493 Z M26.493 -21.149 H76.275 Q77.186 -21.149 77.944 -21.908 Q78.703 -22.667 78.703 -23.577 V-57.14 Q78.703 -58.05 77.944 -58.809 Q77.186 -59.568 76.275 -59.568 H51.125 L42.128 -68.565 H26.493 Q25.43 -68.565 24.747 -67.883 Q24.065 -67.199 24.065 -66.137 V-23.577 Q24.065 -22.667 24.823 -21.908 Q25.581 -21.149 26.493 -21.149 Z"/></g><g id="Ultralight-S" transform="matrix(1 0 0 1 517.792 696)"><path d="M42.705 -31.186 H60.307 Q62.419 -31.186 63.904 -32.682 Q65.388 -34.177 65.388 -36.304 Q65.388 -38.218 64.163 -39.584 Q62.939 -40.95 61.148 -41.345 H58.682 L58.287 -43.81 Q57.712 -46.15 55.576 -47.84 Q53.44 -49.531 50.792 -49.531 Q48.425 -49.531 46.8 -48.45 Q45.173 -47.369 44.141 -45.684 L43.352 -44.106 L41.478 -44.008 Q39.255 -43.522 37.725 -41.832 Q36.195 -40.142 36.195 -37.696 Q36.195 -35.033 38.168 -33.11 Q40.14 -31.186 42.705 -31.186 Z M14.399 -5.051 Q11.102 -5.051 8.905 -7.249 Q6.707 -9.446 6.707 -12.743 V-43.021 Q6.707 -43.939 7.376 -44.614 Q8.046 -45.29 8.954 -45.29 Q9.863 -45.29 10.553 -44.614 Q11.243 -43.939 11.243 -43.021 V-12.743 Q11.243 -11.56 12.229 -10.574 Q13.216 -9.587 14.399 -9.587 H68.446 Q69.363 -9.587 70.039 -8.918 Q70.714 -8.248 70.714 -7.34 Q70.714 -6.431 70.039 -5.741 Q69.363 -5.051 68.446 -5.051 H14.399 Z M26.037 -16.688 Q22.74 -16.688 20.543 -18.887 Q18.344 -21.084 18.344 -24.381 V-65.409 Q18.344 -68.705 20.543 -70.904 Q22.74 -73.102 26.037 -73.102 H41.324 Q42.867 -73.102 44.328 -72.501 Q45.789 -71.902 46.946 -70.735 L52.666 -65.015 H75.547 Q78.872 -65.113 81.056 -62.886 Q83.24 -60.659 83.24 -57.322 V-24.381 Q83.24 -21.084 81.041 -18.887 Q78.843 -16.688 75.547 -16.688 H26.037 Z M26.037 -20.239 H75.547 Q76.73 -20.239 77.716 -21.225 Q78.703 -22.211 78.703 -23.395 V-57.322 Q78.703 -58.505 77.716 -59.492 Q76.73 -60.478 75.547 -60.478 H50.693 L42.606 -68.565 H26.037 Q24.656 -68.565 23.769 -67.678 Q22.881 -66.79 22.881 -65.409 V-23.395 Q22.881 -22.211 23.867 -21.225 Q24.854 -20.239 26.037 -20.239 Z"/></g></g></svg>