<svg xmlns="http://www.w3.org/2000/svg" height="48" viewBox="0 -960 960 960" width="48"><path d="m360-42.5-32.565-33.065v-236.783H118.022v-65.87l79-75.5v-326.456h-50v-65.631h347.326q-41 34.5-64 82.7-23 48.199-23 102.8 0 87.376 55 152.743 55 65.366 139.87 82.512v112.702H393.065v236.783L360-42.5Zm289.328-434.305q-76.98 0-130.73-53.817-53.75-53.817-53.75-129.933 0-77.424 53.769-131.337 53.77-53.913 130.75-53.913 76.981 0 130.731 53.937t53.75 131.563q0 75.866-53.77 129.683-53.769 53.817-130.75 53.817Zm-.039-184.5q27.975 0 47.267-19.25t19.292-47.25q0-28-19.233-46.75t-47.208-18.75q-27.559 0-46.559 19.045-19 19.044-19 46.75 0 27.705 18.941 46.955t46.5 19.25Zm-.191 132q32.678 0 61.714-15.25t47.036-41.929q-26-13.821-53-22.571-27-8.75-55.5-8.75t-55.487 8.63q-26.986 8.63-52.513 22.37 17.253 27.029 46.162 42.265 28.909 15.235 61.588 15.235Z"/></svg>