<svg xmlns="http://www.w3.org/2000/svg" height="40" width="40"><path d="M7.958 37.75q-1.666 0-2.854-1.208-1.187-1.209-1.187-2.834V9q0-1.625 1.187-2.812Q6.292 5 7.958 5h1.667v-.917q0-.75.563-1.291.562-.542 1.312-.542.792 0 1.312.542.521.541.521 1.291V5h13.334v-.917q0-.75.541-1.291.542-.542 1.334-.542.791 0 1.312.542.521.541.521 1.291V5h1.667q1.666 0 2.854 1.188Q36.083 7.375 36.083 9v24.708q0 1.625-1.187 2.834-1.188 1.208-2.854 1.208Zm0-4.042h24.084V16.125H7.958v17.583Zm11.25-3.625-1.333-3.041-3.167-1.417q-.5-.25-.52-.813-.021-.562.52-.812l3.167-1.375 1.333-2.917q.25-.541.813-.541.562 0 .854.541l1.292 2.917L25.292 24q.541.25.52.812-.02.563-.52.813l-3.125 1.417-1.292 3.041q-.292.5-.854.5-.563 0-.813-.5Z"/></svg>