<svg xmlns="http://www.w3.org/2000/svg" height="20" viewBox="0 -960 960 960" width="20"><path d="m273.04-774.87-14-45q-7-23.13 4.03-44.15 11.02-21.02 33.8-28.94 23.7-7 44.61 2.57 20.91 9.56 28.48 33.26l15 47q7 23.7-3.57 44.61-10.56 20.91-34.26 28.48-22.7 7.56-44.61-3.79-21.91-11.34-29.48-34.04Zm149-53.13v-48q0-23.26 17.13-40.61 17.13-17.35 40.83-17.35t40.83 17.13q17.13 17.13 17.13 40.83v48q0 23.26-17.13 40.61-17.13 17.35-40.83 17.35t-40.83-17.13Q422.04-804.3 422.04-828Zm153 16.87 15-46q7.57-23.7 28.98-34.54 21.41-10.85 44.11-3.29 23.7 7.57 34.26 29.26 10.57 21.7 3.57 44.83l-15 47q-7.57 23.7-28.48 33.26-20.91 9.57-44.61 2.28-23.7-7.28-34.54-28.47-10.85-21.2-3.29-44.33ZM159.96-39.17q-25.7 3-45.61-11.63-19.92-14.63-23.48-40.33l2.56 18.39q-3-25.26 12.15-45.4 15.15-20.14 39.81-23.69l172.26-26.56q-3.82 0-6.52 2.98-2.7 2.98-4.83 6.24l39.57-123.13q3.43-12.54-2.07-24.39-5.5-11.85-16.93-18.61l-6.17 21.95q-6.41 20.95-25.84 30.61-19.43 9.65-39.56 2.37-20.13-7.28-30.69-26.41-10.57-19.13-3.57-39.26l61.61-188.13q-.56 1.35-.56 4.44 0 3.08.56 4.21L177.61-293.87q-15.57 33.13-45.63 51.41-30.07 18.29-68.07 18.29h-5.13q-24.94 0-42.1-18.42Q-.48-261-.48-285.7v19.4q0-24.7 18.41-43.11 18.42-18.42 43.11-18.42h24.7q-2.83 0-6.34 1.19-3.51 1.18-4.57 4.34l156.43-322.31q12.13-23.26 35.52-29.96 23.39-6.69 45.79 8l27.6 18.31q33.13 21 45.2 58.85 12.06 37.84.5 76.54l-27.3 87.91q61.39 30.7 82.45 73.33 21.07 42.63 6.5 87.76l-35.43 117q-9.57 33.57-37.13 56.13-27.57 22.57-63.13 28.57l-151.87 23Zm488.21-23q-35.56-6-63.13-28.57-27.56-22.56-37.13-56.13l-35.43-117q-14.57-45.13 6.5-87.76 21.06-42.63 82.45-73.33l-27.3-87.91q-11.56-38.7.5-76.54 12.07-37.85 45.2-58.85l27.6-18.31q22.4-14.69 45.79-8 23.39 6.7 35.52 29.96L885.17-322.3q-1.06-3.16-4.57-4.34-3.51-1.19-6.34-1.19h24.7q24.69 0 43.11 18.42 18.41 18.41 18.41 43.11v-19.4q0 24.7-17.16 43.11-17.16 18.42-42.1 18.42h-4.13q-37 0-68.07-18.29-31.06-18.28-46.63-51.41L677.35-515.52q.56-1.36.56-4.44t-.56-4.21l61.61 188.13q7 20.13-3.57 39.26-10.56 19.13-30.69 26.41-20.13 7.28-39.56-2.87-19.43-10.16-25.84-31.11l-6.17-20.95q-11.43 6.76-16.93 18.61t-2.07 24.39l39.57 123.13q-2.13-3.26-4.83-6.24-2.7-2.98-6.52-2.98l172.26 26.56q24.66 3.55 39.81 23.69 15.15 20.14 12.15 45.4l2.56-18.39q-3.56 25.7-23.48 40.33-19.91 14.63-45.61 11.63l-151.87-23ZM633.13-325.3Zm-306.26 0Zm-71.57 54.65Zm449.4 0Z"/></svg>