<svg xmlns="http://www.w3.org/2000/svg" height="48" viewBox="0 -960 960 960" width="48"><path d="M362.4-262.46q-8.94 0-15.21-6.41-6.27-6.41-6.27-14.98v-95.38H318q-24.46 0-41.42-15.85-16.96-15.84-19.84-41.36l-28.51-342.87q-2-14.16 8.56-25.42Q247.36-816 262.92-816h43.54q36.27 0 64.37 23.88 28.09 23.89 33.55 60.2L428.29-568h168.63q58 0 98.54 40.93Q736-486.14 736-428.91v16.84q0 13.11-9.85 22.97-9.86 9.87-22.3 9.87h-46.16v95.38q0 9.64-6.19 15.52-6.19 5.87-15.34 5.87-8.72 0-14.98-6.41t-6.26-14.98v-95.38H384.69v95.38q0 9.64-6.67 15.52-6.67 5.87-15.62 5.87ZM322.86-104q-13.17 0-21.74-9.24-8.58-9.24-8.58-21.88 0-12.64 8.55-21.87 8.55-9.24 21.84-9.24 13.28 0 22.06 9.41 8.78 9.4 8.78 22.46 0 12.26-8.89 21.31Q336-104 322.86-104Zm155.94 0q-13.17 0-21.68-9.24-8.5-9.24-8.5-21.88 0-12.64 8.66-21.87 8.66-9.24 21.65-9.24 12.99 0 22.45 9.41 9.47 9.4 9.47 22.46 0 12.26-9.46 21.31-9.45 9.05-22.59 9.05Zm156.93 0q-12.12 0-21.08-9.24-8.96-9.24-8.96-21.88 0-12.64 9.15-21.87 9.15-9.24 21.66-9.24 12.5 0 21.46 9.41 8.96 9.4 8.96 22.46 0 12.26-9.13 21.31-9.13 9.05-22.06 9.05Z"/></svg>