<svg xmlns="http://www.w3.org/2000/svg" height="24" width="24"><path d="M15.65 5.8q0-1.575.487-3.088Q16.625 1.2 17.525-.1q.45-.65 1.15-.75.7-.1 1.175.4.45.425.462 1.062.013.638-.387 1.263-.575.9-.85 1.912Q18.8 4.8 18.8 5.825t.287 2.025q.288 1 .863 1.9.4.625.388 1.275-.013.65-.463 1.075-.475.5-1.187.388-.713-.113-1.163-.738-.9-1.325-1.388-2.838Q15.65 7.4 15.65 5.8Zm4.7.025q0-.625.175-1.225.175-.6.45-1.175.325-.65 1.075-.75.75-.1 1.3.45.35.375.45.85.1.475-.125.925-.1.225-.162.462-.063.238-.063.463.025.225.063.475.037.25.137.475.225.45.125.925-.1.475-.475.85-.525.55-1.275.425-.75-.125-1.075-.775-.275-.55-.437-1.15-.163-.6-.163-1.225Zm-11.025 6q-2.1 0-3.575-1.475t-1.475-3.6q0-2.1 1.475-3.575T9.35 1.7q2.1 0 3.575 1.475t1.475 3.6q0 2.125-1.462 3.587-1.463 1.463-3.613 1.463ZM3.7 21.975q-1.4 0-2.4-1t-1-2.4v-.425q0-1.075.613-2.063.612-.987 1.537-1.437 1.5-.75 3.325-1.2Q7.6 13 9.325 13q1.8 0 3.613.438 1.812.437 3.287 1.162.925.45 1.538 1.462.612 1.013.612 2.088v.425q0 1.4-1 2.4t-2.4 1Zm0-3.4h11.275v-.3q0-.225-.112-.4-.113-.175-.338-.275-1.025-.5-2.4-.85t-2.8-.35q-1.35 0-2.7.337-1.35.338-2.475.863-.225.1-.338.275-.112.175-.112.4Zm5.625-10.15q.7 0 1.187-.488Q11 7.45 11 6.775q0-.7-.488-1.188-.487-.487-1.187-.487-.675 0-1.162.487-.488.488-.488 1.188 0 .675.488 1.162.487.488 1.162.488Zm0-1.65Zm0 11.8Z"/></svg>