<svg xmlns="http://www.w3.org/2000/svg" height="20" width="20"><path d="M16.583 12.312Q16.396 12.312 16.26 12.219Q16.125 12.125 16.042 11.979L15.479 10.688H14.417V11.833Q14.417 11.854 14.406 11.885Q14.396 11.917 14.396 11.917L13.417 10.958V8.417Q13.417 8.125 13.646 7.906Q13.875 7.688 14.167 7.688H15.979Q16.5 7.688 16.865 8.042Q17.229 8.396 17.229 8.917V9.458Q17.229 9.938 17.021 10.208Q16.812 10.479 16.438 10.604L16.958 11.75Q17.062 11.979 16.969 12.146Q16.875 12.312 16.583 12.312ZM14.417 9.708H16Q16.104 9.708 16.188 9.625Q16.271 9.542 16.271 9.458V8.917Q16.271 8.833 16.188 8.75Q16.104 8.667 16 8.667H14.417ZM15.896 17.521 2.438 4.104Q2.25 3.917 2.26 3.656Q2.271 3.396 2.458 3.208Q2.667 3.021 2.906 3.021Q3.146 3.021 3.354 3.208L16.75 16.688Q16.917 16.854 16.938 17.104Q16.958 17.354 16.75 17.542Q16.562 17.729 16.312 17.719Q16.062 17.708 15.896 17.521ZM11.917 9.458 10.125 7.688H10.667Q11.188 7.688 11.552 8.042Q11.917 8.396 11.917 8.917ZM2.667 11.833V8.167Q2.667 7.979 2.812 7.833Q2.958 7.688 3.167 7.688Q3.375 7.688 3.521 7.823Q3.667 7.958 3.667 8.167V9.312H5.542V8.167Q5.542 7.979 5.677 7.833Q5.812 7.688 6.021 7.688Q6.229 7.688 6.375 7.823Q6.521 7.958 6.521 8.167V11.833Q6.521 12.021 6.375 12.167Q6.229 12.312 6.021 12.312Q5.812 12.312 5.677 12.177Q5.542 12.042 5.542 11.833V10.292H3.667V11.833Q3.667 12.021 3.521 12.167Q3.375 12.312 3.167 12.312Q2.958 12.312 2.812 12.177Q2.667 12.042 2.667 11.833ZM8.062 8.812 9.062 9.792V11.333H10.312Q10.354 11.333 10.406 11.312Q10.458 11.292 10.5 11.25L11.375 12.083Q11.229 12.188 11.052 12.25Q10.875 12.312 10.667 12.312H8.062Z"/></svg>