<svg xmlns="http://www.w3.org/2000/svg" height="20" width="20"><path d="M3.333 12.875Q2.167 12.875 1.312 12.021Q0.458 11.167 0.458 10Q0.458 8.812 1.312 7.969Q2.167 7.125 3.333 7.125Q4.25 7.125 5.01 7.646Q5.771 8.167 6.062 8.958H8.833V11.042H6.062Q5.771 11.833 5.01 12.354Q4.25 12.875 3.333 12.875ZM3.333 10.75Q3.646 10.75 3.865 10.531Q4.083 10.312 4.083 10Q4.083 9.688 3.865 9.469Q3.646 9.25 3.333 9.25Q3.021 9.25 2.802 9.469Q2.583 9.688 2.583 10Q2.583 10.312 2.802 10.531Q3.021 10.75 3.333 10.75ZM5.062 18.458Q4.625 18.5 4.312 18.188Q4 17.875 4 17.438Q4 17.042 4.271 16.698Q4.542 16.354 4.979 16.312Q7.396 15.958 8.99 14.188Q10.583 12.417 10.583 10Q10.583 7.562 8.99 5.802Q7.396 4.042 4.979 3.688Q4.542 3.646 4.271 3.313Q4 2.979 4 2.562Q4 2.125 4.312 1.812Q4.625 1.5 5.062 1.542Q8.062 1.896 10.177 3.958Q12.292 6.021 12.667 8.958H15.562L15 8.375Q14.688 8.083 14.688 7.656Q14.688 7.229 14.979 6.917Q15.292 6.604 15.719 6.604Q16.146 6.604 16.458 6.917L18.708 9.188Q18.896 9.375 18.979 9.583Q19.062 9.792 19.062 10Q19.062 10.208 18.979 10.417Q18.896 10.625 18.708 10.812L16.458 13.083Q16.146 13.396 15.719 13.396Q15.292 13.396 14.979 13.083Q14.688 12.771 14.688 12.344Q14.688 11.917 15 11.625L15.562 11.042H12.667Q12.292 13.979 10.177 16.042Q8.062 18.104 5.062 18.458Z"/></svg>