<svg xmlns="http://www.w3.org/2000/svg" height="40" viewBox="0 -960 960 960" width="40"><path d="M120-251.33q0-13.48 8.91-22.74 8.91-9.26 21.64-9.26 6.78 0 12.62 2.5 5.83 2.5 11.5 6.16 12.33 8 26 13 13.66 5 28.66 5 41 0 69.17-28.16Q326.67-313 326.67-354t-28.17-69.17q-28.17-28.16-69.17-28.16-14.76 0-28.55 4.66Q187-442 174.67-433.33q-5.34 3.66-11.34 6.16t-12.78 2.5q-12.73 0-21.64-9.26T120-456.67v-138q0-15 10.83-25.83 10.84-10.83 25.84-10.83h172.66Q319-649.67 314.5-669.78 310-689.89 310-710q0-70.83 49.62-120.42Q409.24-880 480.12-880t120.38 49.58Q650-780.83 650-710q0 20.11-4.5 40.22t-14.83 38.45h172.66q15 0 25.84 10.83Q840-609.67 840-594.67v138q0 13.89-9.26 23.28-9.27 9.39-22.96 9.39-6.45 0-11.78-2.72-5.33-2.72-10.67-6.61-11.66-8.67-25.66-13.34-14-4.66-29-4.66-41 0-69.17 28.16Q633.33-395 633.33-354t28.17 69.17q28.17 28.16 69.17 28.16 15 0 29-4.66 14-4.67 25.66-13.34 5-3.66 10.47-6.5Q801.27-284 808-284q13.6 0 22.8 9.39 9.2 9.39 9.2 23.28v134.61q0 15.05-10.83 25.89Q818.33-80 803.33-80H156.67q-15 0-25.84-10.83Q120-101.67 120-116.72v-134.61Zm66.67 104.66h586.66v-50.66q-10.66 4.33-21.16 5.83t-21.76 1.5q-67.54 0-115.64-48-48.1-48-48.1-116t48.1-116q48.1-48 115.64-48 11.26 0 21.76 1.5 10.5 1.5 21.16 3.83v-52h-202q-13 0-22.5-9.33t-9.5-22q0-12 6.5-22.83 6.5-10.84 14.17-20.5 13-14.67 18.17-32.87 5.16-18.2 5.16-37.8 0-43.4-29.95-73.37-29.95-29.96-73.33-29.96-43.38 0-73.38 29.96-30 29.97-30 73.37 0 19.6 5.16 37.8Q387-654 400-639.33q7.67 9.66 14.17 20.16t6.5 22.5q0 13-9.5 22.5t-22.5 9.5h-202v52q10.66-2.33 21.16-3.83t21.76-1.5q67.54 0 115.64 48 48.1 48 48.1 116t-48.1 116q-48.1 48-115.64 48-11.26 0-21.76-1.5-10.5-1.5-21.16-5.83v50.66ZM480-480Z"/></svg>