<svg xmlns="http://www.w3.org/2000/svg" height="40" width="40"><path d="M30.292 21.292H9.708Q9.167 21.292 8.771 20.917Q8.375 20.542 8.375 19.958Q8.375 19.417 8.771 19.042Q9.167 18.667 9.708 18.667H30.292Q30.833 18.667 31.229 19.062Q31.625 19.458 31.625 20Q31.625 20.542 31.229 20.917Q30.833 21.292 30.292 21.292ZM27.083 27.958H6.5Q5.958 27.958 5.583 27.583Q5.208 27.208 5.208 26.625Q5.208 26.083 5.583 25.708Q5.958 25.333 6.5 25.333H27.083Q27.625 25.333 28.021 25.729Q28.417 26.125 28.417 26.667Q28.417 27.208 28.021 27.583Q27.625 27.958 27.083 27.958ZM33.458 14.625H12.917Q12.333 14.625 11.958 14.25Q11.583 13.875 11.583 13.292Q11.583 12.75 11.958 12.375Q12.333 12 12.917 12H33.458Q34.042 12 34.417 12.396Q34.792 12.792 34.792 13.333Q34.792 13.875 34.417 14.25Q34.042 14.625 33.458 14.625Z"/></svg>