<svg xmlns="http://www.w3.org/2000/svg" height="40" viewBox="0 -960 960 960" width="40"><path d="m701.855-140.392 157.999-159.419-36.608-36.276-121.391 121.391-61.811-62.913-37.464 37.942 99.275 99.275ZM350.48-202.739v-397.202h-53.856v397.202h53.856Zm143.435 96.811H200.189v-590.448h354.768v-152.002h-94.246v-74.521h191.058v422.19q-25.334 6.435-51.305 20.493t-45.507 32.884v-152.609H425.435v397.202h34.479q.261 23.174 11.211 51.159 10.949 27.986 22.79 45.652Zm237.134-338.245q84.262 0 144.599 60.458 60.337 60.458 60.337 144.72t-60.27 144.6Q815.446-34.06 730.995-34.06q-84.074 0-144.599-60.27-60.525-60.269-60.525-144.719 0-84.074 60.457-144.6 60.458-60.525 144.721-60.525Zm-343.425 42.217ZM350.48-202.739v-397.202 397.202Zm74.955 0v-397.202V-202.739Z"/></svg>