<svg xmlns="http://www.w3.org/2000/svg" height="40" viewBox="0 -960 960 960" width="40"><path d="M479.813-280.104q16.02 0 25.898-9.69 9.878-9.691 9.878-25.711 0-16.021-9.691-25.899t-25.711-9.878q-16.02 0-25.898 9.691t-9.878 25.711q0 16.021 9.691 25.898 9.691 9.878 25.711 9.878ZM448.36-434.872h67.588V-685.23H448.36v250.358Zm32.05 406.767L345.042-160.002h-185.04v-185.04L26.618-480l133.384-134.958v-185.04h185.04L480.41-933.382l134.548 133.384h185.04v185.04L933.382-480 799.998-345.042v185.04h-185.04L480.41-28.105Zm0-452.305Zm0 357.538 105.066-104.561h147.091v-146.886L838.205-480 732.524-585.681v-146.886H585.638L480.41-838.205 374.362-732.567H227.476v146.886L121.795-480l105.638 105.681v146.886h146.519L480.41-122.872Z"/></svg>