<svg xmlns="http://www.w3.org/2000/svg" height="48" viewBox="0 -960 960 960" width="48"><path d="M494.12-362.46V-560.5h106.03l-26.96-26.96h-79.07v-164.19q0-11.95 7.71-19.94 7.71-7.99 20.21-7.99h110.88q7.28 0 13.94 3.77 6.66 3.76 10.49 9.85l78.92 141.38h-63.69L632-699.46h-84.12v26.96h67.58l40 75.58h95.42l64.58 113.03q-21.3-9.08-44.88-13.63-23.58-4.56-48.04-4.56-73.66 0-134.62 38.68-60.96 38.67-93.8 100.94Zm-55.58 181.34H327.58q-8 0-14.75-3.4t-9.68-10.21L224.73-336h63.71l40.37 75.08h84v-27.66h-67.96l-39.89-75.07h-95.15l-58.89-102.97q-2-3.07-3-6.76-1-3.7-1-6.84 0-.9 4-14.28l58.89-102.42h94.34l40.39-75.58h68.27v-26.96H328.5l-40.38 74.88h-63.89l78.92-141.38q2.93-6.12 9.68-9.87 6.75-3.75 14.75-3.75h110.96q12.11 0 20.02 7.99 7.9 7.99 7.9 19.94v164.19H387.5l-27.65 26.96h106.61v122.73h-90.69l-36.58-75.19h-88.23l-27.65 27.65h97.73l37.19 74.5h108.23v132.23q-.38 9.39-.5 17.31-.11 7.92-.11 16.5 0 9.22 1.11 18.38 1.12 9.16 1.73 18.04-.88 12.35-9.75 19.79-8.86 7.44-20.4 7.44Zm284.5 43.2 104.77-104.77-19.54-19.54-71.31 71.69V-351h-27.7v160.46l-71.96-71.54-19.34 19.39 105.08 104.77Zm-.54 63.07q-70.12 0-120.31-49.92Q552-174.68 552-244.8q0-71.12 50.23-121.12 50.22-50 120.34-50t120.31 50.03q50.2 50.03 50.2 121.15 0 70.12-50.23 120.01-50.23 49.88-120.35 49.88Z"/></svg>