<svg xmlns="http://www.w3.org/2000/svg" height="48" viewBox="0 -960 960 960" width="48"><path d="M671.61-566.38 820.38-652l-148.77-85.61L520.85-652l150.76 85.62Zm0 116.15 103.93-60.69V-588l-103.93 60.46L566.69-588v77.08l104.92 60.69ZM84.62-165v-98.69q39.68 0 67.76 28.91 28.08 28.91 28.08 69.78H84.62Zm198.15 0q0-82.03-57.65-141.13-57.66-59.1-140.5-59.87v-58.38q106.66 0 181.6 75.61 74.93 75.6 74.93 183.77h-58.38Zm168.38 0q0-76.08-29.15-142.96-29.15-66.89-78.46-117.19-49.31-50.31-116.01-79.77-66.69-29.46-142.91-29.46v-58.39q88.46 0 165.87 33.79 77.42 33.79 134.86 92.08 57.43 58.29 90.81 136 33.38 77.72 33.38 165.9h-58.39Zm160.7 0q0-109.61-41.77-206.33-41.77-96.71-112.9-168.15Q386.04-610.93 290.51-653q-95.54-42.08-205.89-42.08v-30.23q0-28.5 20.59-49.59 20.6-21.1 50.1-21.1h650.61q29.8 0 50.25 21.1 20.44 21.09 20.44 49.59v489.62q0 29.5-20.94 50.09-20.95 20.6-49.75 20.6H611.85Z"/></svg>