<svg xmlns="http://www.w3.org/2000/svg" height="40" width="40"><path d="m29.208 28.833 5.959-5.958q.541-.542 1.312-.521.771.021 1.354.563.542.541.521 1.291-.021.75-.562 1.292l-7.25 7.25q-.542.583-1.313.583-.771 0-1.312-.541L24.167 29q-.542-.542-.542-1.271 0-.729.542-1.312.583-.542 1.312-.521.729.021 1.313.521ZM9.583 30.625l-4.041 4.083q-.917.917-2.042.438-1.125-.479-1.125-1.729V5.833q0-1.541 1.104-2.645 1.104-1.105 2.604-1.105h27.834q1.5 0 2.604 1.105 1.104 1.104 1.104 2.645v12.292H23.542q-1.584 0-2.646 1.083-1.063 1.084-1.063 2.625v8.792Z"/></svg>