<svg xmlns="http://www.w3.org/2000/svg" height="40" viewBox="0 -960 960 960" width="40"><path d="m701.87-263.75 143.61-143.8q13.2-13.2 31.25-12.7 18.04.5 31.24 13.7 12.87 13.2 12.66 30.96-.21 17.76-13.22 30.78L733.3-170.14q-13.2 13.2-31.24 13.2-18.05 0-31.25-13.2l-89.67-90q-13.24-12.87-12.84-30.8.4-17.93 13.03-30.94 12.87-12.87 30.87-12.54 18 .33 30.87 12.54l58.8 58.13Zm-477.7 39.58-84.49 84.49q-21.13 21.13-48.32 10.09-27.19-11.05-27.19-40.73v-637.36q0-36.42 25.87-62.47 25.86-26.05 62.28-26.05h655.36q36.42 0 62.47 26.05 26.05 26.05 26.05 62.47v239.16q0 19.04-12.89 31.74-12.89 12.71-31.56 12.71H564.07q-36.71 0-62.43 25.71-25.71 25.72-25.71 62.43v167.68q0 18.67-12.71 31.37-12.7 12.71-31.37 12.71H224.17Z"/></svg>