<svg xmlns="http://www.w3.org/2000/svg" height="40" width="40"><path d="M8.958 36.667v-12.5h-2.25v-9.375q0-1.292.938-2.209.937-.916 2.187-.916h4.584q1.25 0 2.166.916.917.917.917 2.209v9.375h-2.208v12.5Zm16.875 0v-10h-4.541l3.791-12.875q.292-1.042 1.146-1.584.854-.541 1.938-.541 1.083 0 1.937.541.854.542 1.146 1.584l3.792 12.875H30.5v10ZM12.125 9.625q-1.292 0-2.229-.937-.938-.938-.938-2.23 0-1.291.938-2.208.937-.917 2.229-.917t2.208.917q.917.917.917 2.208 0 1.292-.917 2.23-.916.937-2.208.937Zm16.042 0q-1.292 0-2.209-.937-.916-.938-.916-2.23 0-1.291.916-2.208.917-.917 2.209-.917 1.291 0 2.208.917.917.917.917 2.208 0 1.292-.917 2.23-.917.937-2.208.937Z"/></svg>