<svg xmlns="http://www.w3.org/2000/svg" height="40" width="40"><path d="M10.375 36.875q-.625 0-1.021-.417-.396-.416-.396-1 0-.583.396-1 .396-.416 1.021-.416h8.25V26.75h-3.667q-3.458 0-5.875-2.396-2.416-2.396-2.416-5.854 0-2.542 1.416-4.604 1.417-2.063 3.709-3.063.416-3.416 2.729-5.416 2.312-2 5.479-2 3.167 0 5.479 2 2.313 2 2.729 5.416 2.334 1 3.729 3.063 1.396 2.062 1.396 4.604 0 3.458-2.416 5.854-2.417 2.396-5.875 2.396h-3.625v7.292h8.458q.583 0 .979.416.396.417.396 1 0 .584-.396 1-.396.417-.979.417Z"/></svg>