<svg xmlns="http://www.w3.org/2000/svg" height="48" viewBox="0 -960 960 960" width="48"><path d="M480-391q50.39-46.15 81.27-75.79 30.87-29.64 47.73-51.71 16.5-21.5 22.25-37.75t5.75-34.6q0-35.65-25.23-61.15-25.22-25.5-60.94-25.5-20.83 0-39.82 8.6-18.98 8.6-31.01 22.9-12.11-14.3-30.65-22.9-18.55-8.6-40.02-8.6-35.65 0-60.99 25.5Q323-626.5 323-591q0 18.26 5.2 34.23 5.19 15.97 22.27 37.33 16.47 22.05 47.04 51.67Q428.08-438.16 480-391ZM204-126v-657q0-22.97 17.27-40.23 17.26-17.27 40.23-17.27h437q22.97 0 40.23 17.27Q756-805.97 756-783v657L480-244 204-126Zm57.5-87L480-305.66 698.5-213v-570h-437v570Zm0-570h437-437Z"/></svg>