<svg xmlns="http://www.w3.org/2000/svg" height="24" viewBox="0 -960 960 960" width="24"><path d="M480-394.22q49.5-45.26 79.46-74.23 29.96-28.98 46.32-50.05 16.5-21 21.88-37.25 5.38-16.25 5.38-34.01 0-34.76-24.63-59.39-24.63-24.63-59.44-24.63-20.45 0-39.06 8.22-18.62 8.22-29.91 22.28-11.37-14.06-29.76-22.28-18.38-8.22-39.43-8.22-34.59 0-59.22 24.63-24.63 24.63-24.63 59.39 0 18 4.76 33.75t21.23 36.57q16.47 20.82 46.5 49.89T480-394.22ZM199.87-119.8v-633.33q0-35.72 25.14-60.86t60.86-25.14h388.26q35.72 0 60.86 25.14t25.14 60.86v633.33L480-239.15 199.87-119.8Z"/></svg>