<svg xmlns="http://www.w3.org/2000/svg" height="20" viewBox="0 -960 960 960" width="20"><path d="M480-430.15q41.54-36.54 64.83-60.24 23.28-23.7 36.15-40.54 12.87-17.3 17.29-29.65 4.42-12.34 4.42-26.35 0-27.58-19.87-47.75t-47.63-20.17q-16.54 0-31.25 6.83T480-630.15q-9.55-11.04-24.94-17.87-15.39-6.83-31.37-6.83-26.61 0-46.5 20.19-19.88 20.19-19.88 48.12 0 14.62 3.42 26.46 3.42 11.85 16.27 27.93 12.85 16.07 37.23 40.26 24.38 24.19 65.77 61.74ZM230-136v-605.69q0-37.73 26.29-64.02T320.31-832h319.38q37.73 0 64.02 26.29T730-741.69V-136l-250-99.54L230-136Zm78-115 172-68.66L652-251v-490.69q0-4.62-3.85-8.46-3.84-3.85-8.46-3.85H320.31q-4.62 0-8.46 3.85-3.85 3.84-3.85 8.46V-251Zm0-503h344-344Z"/></svg>