<svg xmlns="http://www.w3.org/2000/svg" height="24" viewBox="0 -960 960 960" width="24"><path d="M757-210q25 0 43-17.29 18-17.3 18-43 0-25.71-18-43.21T757-331q-25 0-42.5 17.35Q697-296.29 697-270.5t17.5 43.15Q732-210 757-210Zm.44 121q30.43 0 56.5-14Q840-117 857-143q-23-13-48-20t-51.5-7q-26.5 0-52.16 7-25.66 7-48.34 20 18 26 44.01 40 26 14 56.43 14ZM382-683h181v-51q0-39.33-26.75-66.67Q509.5-828 472-828q-38 0-64 27.33-26 27.34-26 66.67v51ZM243-32q-55.98 0-95.99-40.01Q107-112.03 107-168v-379q0-57.38 40.01-96.69Q187.02-683 243-683h3v-51q0-96 66-163t160-67q94 0 160.5 67T699-734v51h3q55.97 0 95.99 39.31Q838-604.38 838-547v-2q0 22.1-17.9 36.55Q802.2-498 779-500q-15-1-29.17 0-14.16 1-28.83 3-110.24 11-182.62 93.5Q466-321 466-210q0 23.6 4 46.8 4 23.2 12 46.2 11 31-4.5 58T432-32H243ZM756.96 1Q670 1 608-61.04q-62-62.04-62-149Q546-297 608.04-359q62.04-62 149-62Q844-421 906-358.96q62 62.04 62 149Q968-123 905.96-61q-62.04 62-149 62Z"/></svg>