<svg xmlns="http://www.w3.org/2000/svg" height="40" viewBox="0 -960 960 960" width="40"><path d="M172-228v-301.33q0-22.84 16.58-39.42 16.59-16.58 39.42-16.58h147.33V-732q0-22.83 16.33-39.42Q407.98-788 431.33-788H732q22.83 0 39.42 16.58Q788-754.83 788-732v504q0 22.83-16.58 39.42Q754.83-172 732-172H228q-22.83 0-39.42-16.58Q172-205.17 172-228Zm445.33 32H732q14 0 23-9t9-23v-504q0-14-9-23t-23-9H431.33q-14 0-23 9t-9 23v146.67h130q22.84 0 39.42 16.58 16.58 16.58 16.58 39.42V-228q0 14 9 23t23 9Zm-218 0h162v-333.33q0-13.34-9.33-22.67-9.33-9.33-22.67-9.33h-130V-196ZM228-196h147.33v-365.33H228q-14 0-23 9.33t-9 22.67V-228q0 14 9 23t23 9Z"/></svg>