<svg xmlns="http://www.w3.org/2000/svg" height="48" viewBox="0 -960 960 960" width="48"><path d="M611.5-172q-12 0-19.75-7.75T584-199.5V-530q0-21.5-16.25-37.75T530-584H405q-12 0-19.25-7.75t-7.25-19.75v-150q0-11 7.25-18.75T405-788h356.5q11 0 18.75 7.75T788-761.5v562q0 12-7.75 19.75T761.5-172h-150ZM405-172q-12 0-19.25-7.75t-7.25-19.75v-336q0-10 7.25-18.25T405-562h130.5q10 0 18.25 8.25T562-535.5v336q0 12-8.25 19.75T535.5-172H405Zm-205.5 0q-12 0-19.75-7.75T172-199.5v-336q0-10 7.75-18.25T199.5-562H329q12 0 19.75 8.25t7.75 18.25v336q0 12-7.75 19.75T329-172H199.5Z"/></svg>