<svg xmlns="http://www.w3.org/2000/svg" height="40" width="40"><path d="M5.167 24.917q-1.75 0-2.979-1.25-1.23-1.25-1.23-3V6.042q0-1.75 1.23-3 1.229-1.25 2.979-1.25h29.666q1.75 0 2.979 1.25 1.23 1.25 1.23 3v14.625q0 1.75-1.23 3-1.229 1.25-2.979 1.25Zm-.792 7.041-.208-4.125 31.541-1.666.209 4.083Zm-.167 5.417V33.25h31.584v4.125Zm13.625-19.417q2.625 0 5.105-.916 2.479-.917 4.312-2.584.417 1.292 1.729 2.021 1.313.729 2.854.854V9.417q-1.583.125-2.916.896-1.334.77-1.75 1.979-2-1.667-4.355-2.604-2.354-.938-4.979-.938-3.208 0-6.083 1.312-2.875 1.313-4.375 3.313 1.5 1.958 4.375 3.271 2.875 1.312 6.083 1.312Z"/></svg>