<svg xmlns="http://www.w3.org/2000/svg" height="20" viewBox="0 -960 960 960" width="20"><path d="M367.92-330.46 343-228.77q-2.23 8.92-9.04 13.61-6.81 4.7-15.34 4.7-12 0-19.93-9.16-7.92-9.15-4.07-21.53l22.07-89.31h-109q-12 0-20.61-9.96-8.62-9.97-4.77-22.35 2.62-8.54 9.23-14.11 6.62-5.58 16.15-5.58h122l42.77-171.08h-121q-12 0-20.61-9.96-8.62-9.96-4.77-22.35 2.61-8.53 9.23-14.11 6.61-5.58 16.15-5.58h134l30.93-125.69q2.23-8.92 9.03-13.61 6.81-4.7 15.35-4.7 12 0 19.92 9.16 7.92 9.15 4.08 21.53l-28.08 113.31h149.39L617-731.23q2.23-8.92 9.04-13.61 6.81-4.7 15.34-4.7 12 0 19.93 9.16 7.92 9.15 4.07 21.53l-28.07 113.31h115q12 0 20.61 9.96 8.62 9.97 4.77 22.35-2.62 8.54-9.23 14.11-6.62 5.58-16.15 5.58h-128l-42.77 171.08h127q12 0 20.61 9.96 8.62 9.96 4.77 22.35-2.61 8.53-9.23 14.11-6.61 5.58-16.15 5.58h-140l-24.93 101.69q-2.23 8.92-9.03 13.61-6.81 4.7-15.35 4.7-12 0-19.92-9.16-7.92-9.15-4.08-21.53l22.08-89.31H367.92Zm13-52h149.39l42.77-171.08H423.69l-42.77 171.08Z"/></svg>