<svg xmlns="http://www.w3.org/2000/svg" height="40" viewBox="0 -960 960 960" width="40"><path d="M714.77-603.06v246.23q0 13.3-9 22.24-8.99 8.95-22.28 8.95h-90.75q-10.68 0-17.9-7.27-7.23-7.26-7.23-17.99 0-10.74 7.23-17.87 7.22-7.13 17.9-7.13h71.77v-208.2h-261.1q-10.68 0-17.9-7.27-7.23-7.26-7.23-18 0-10.73 7.23-17.86 7.22-7.13 17.9-7.13h280.08q13.29 0 22.28 9 9 9 9 22.3ZM480-480Zm380.41-237.44v474.88q0 25.6-18.38 44.08Q823.65-180 797.85-180H614.2q-10.68 0-17.9-7.26-7.22-7.27-7.22-18 0-10.74 7.22-17.87 7.22-7.13 17.9-7.13h183.65q5.38 0 8.84-3.46t3.46-8.84v-474.88q0-5.38-3.46-8.84t-8.84-3.46H162.98q-5.13 0-8.72 3.46-3.59 3.46-3.59 8.84v24.18q0 10.68-7.27 17.91-7.26 7.22-18 7.22-10.73 0-17.86-7.22-7.13-7.23-7.13-17.91v-24.18q0-25.6 18.48-44.08Q137.37-780 162.98-780h634.87q25.8 0 44.18 18.48t18.38 44.08ZM311.41-180q-10.11 0-17.41-6.52-7.3-6.51-9-16.99-7.87-64.18-53.29-109.45-45.43-45.27-109.32-53.53-9.68-1.24-15.83-8.98t-6.15-17.65q0-10.52 6.97-17.85 6.97-7.34 16.67-6.39 84.49 8.46 143.83 68.53 59.35 60.06 67.79 144.55 1.35 10.11-6.08 17.2-7.44 7.08-18.18 7.08Zm155.69 0q-10.61 0-17.88-7.72T441-206.41q-10.2-127.51-99.28-217.24-89.08-89.74-216.31-99.22-10.62-.65-17.81-8.21-7.19-7.56-7.19-17.64 0-10.71 8.51-17.95 8.52-7.23 19.77-6.41 146.76 10.23 249.7 114.22t113.25 251.27q.56 11.79-6.63 19.69-7.2 7.9-17.91 7.9Zm-331.86 0q-15.01 0-25.33-10.57-10.32-10.56-10.32-25.44 0-14.89 10.44-25.34 10.45-10.44 25.57-10.44 14.89 0 25.34 10.56 10.44 10.56 10.44 25.45 0 14.88-10.56 25.33Q150.26-180 135.24-180Z"/></svg>