<svg xmlns="http://www.w3.org/2000/svg" height="24" width="24"><path d="M16.55 8.45H12.5Q13.975 9.975 14.963 11.762Q15.95 13.55 16.4 15.55H16.55Q17 15.55 17.3 15.25Q17.6 14.95 17.6 14.5V9.5Q17.6 9.05 17.3 8.75Q17 8.45 16.55 8.45ZM16.775 19.475V18.125H19.35Q19.7 18.125 19.925 17.9Q20.15 17.675 20.15 17.325V6.675Q20.15 6.325 19.925 6.1Q19.7 5.875 19.35 5.875H4.65Q4.3 5.875 4.075 6.1Q3.85 6.325 3.85 6.675V6.575H2.5V6.675Q2.5 5.75 3.112 5.137Q3.725 4.525 4.65 4.525H19.35Q20.275 4.525 20.888 5.137Q21.5 5.75 21.5 6.675V17.325Q21.5 18.25 20.888 18.863Q20.275 19.475 19.35 19.475ZM2.5 19.45H4.8Q4.8 18.5 4.125 17.825Q3.45 17.15 2.5 17.15ZM8.45 19.45H9.8Q9.8 16.425 7.663 14.287Q5.525 12.15 2.5 12.15V13.5Q5 13.55 6.725 15.262Q8.45 16.975 8.45 19.45ZM2.5 7.15V8.5Q4.75 8.5 6.75 9.35Q8.75 10.2 10.25 11.7Q11.75 13.2 12.6 15.2Q13.45 17.2 13.45 19.45H14.8Q14.8 16.875 13.825 14.637Q12.85 12.4 11.2 10.75Q9.55 9.1 7.3 8.125Q5.05 7.15 2.5 7.15ZM11.325 12.675Q11.325 12.675 11.325 12.675Q11.325 12.675 11.325 12.675Q11.325 12.675 11.325 12.675Q11.325 12.675 11.325 12.675Q11.325 12.675 11.325 12.675Q11.325 12.675 11.325 12.675Z"/></svg>