<svg xmlns="http://www.w3.org/2000/svg" height="20" width="20"><path d="M11.938 12.646h1.666q.292 0 .49-.198t.198-.469V8q0-.271-.198-.469-.198-.198-.49-.198H7.5q1.583.855 2.729 2.219 1.146 1.365 1.709 3.094Zm-1.334 3.062q0-1.646-.625-3.104-.625-1.458-1.708-2.531Q7.188 9 5.74 8.365q-1.448-.636-3.115-.636V5.625q0-.563.396-.958.396-.396.979-.396h12q.583 0 .979.396.396.395.396.958v8.729q0 .584-.396.969t-.979.385Zm-3.187 0q0-1.958-1.407-3.375-1.406-1.416-3.385-1.416V8.583q1.479 0 2.781.563 1.302.562 2.261 1.531.958.969 1.521 2.271.562 1.302.562 2.76Zm-3.188 0q0-.646-.479-1.125t-1.125-.479v-2.333q1.667.041 2.802 1.167 1.135 1.124 1.135 2.77Z"/></svg>