<svg xmlns="http://www.w3.org/2000/svg" height="48" viewBox="0 -960 960 960" width="48"><path d="M145.65-96.87q-51.25 0-86.06-34.85T24.78-217v-526.38q0-49.99 34.81-84.87t85.94-34.88H477.5q50.15 0 85.26 34.94 35.11 34.94 35.11 84.86v290.44h60.37q31.99 0 54.77 22.78 22.77 22.78 22.77 54.76v136.48q0 12.6 8.16 20.92 8.15 8.32 20.27 8.32 11.89 0 20.44-8.32t8.55-20.92v-308.28q-34.33-1.7-59.99-22.96-25.67-21.26-25.67-54.52v-114.15h40v-85.09h49.37v85.09h62.5v-85.09h49.37v85.09h40v114.15q0 33.26-25.94 54.52-25.95 21.26-59.71 22.96v304.19q0 41.35-29.04 70.31t-70.06 28.96q-41.59 0-70.45-28.8-28.86-28.81-28.86-70.38v-143.52h-66.85v200.89q0-67.94-46.27-113.82-46.27-45.88-112.86-45.88H246.37q-41.61 0-69.67 28.18-28.07 28.17-28.07 68.98 0 40.8 28.08 69.03 28.07 28.23 69.66 28.23h192.37q14.89 0 25.05-10.04 10.17-10.05 10.17-25.13 0-14.87-10.17-25.1-10.16-10.23-25.05-10.23H246.22q-11.49 0-19.29-7.63-7.8-7.62-7.8-19.37 0-11.04 7.7-18.73 7.7-7.68 19.56-7.68h192.35q36.97 0 62.8 25.83 25.83 25.84 25.83 63.38 0 37.55-25.83 63.08t-62.8 25.53H145.65Z"/></svg>