<svg xmlns="http://www.w3.org/2000/svg" height="24" viewBox="0 -960 960 960" width="24"><path d="M429-356q-38.31 0-57.58-20.08-19.27-20.07-25.11-59.92h267.38q-5.84 39.85-25.11 59.92Q569.31-356 531-356H429ZM206.31-114q-41.31 0-69.81-28.5T108-212.31v-547.38q0-41.31 28.5-69.81t69.81-28.5h23.38v-80.61h87.54V-858h327.08v-80.61h86V-858h23.38q41.31 0 69.81 28.5t28.5 69.81v547.38q0 41.31-28.5 69.81T753.69-114H206.31Zm163.3-397.61q6-27.54 21.08-43.97Q405.77-572 425-572h39.77q16.61-19.85 32.15-29.92Q512.46-612 530-612q23.85 0 40.42 16.58Q587-578.85 587-555v43.39H369.61ZM429-270h102q94.46 0 135.92-69.04 41.46-69.04 40.69-172.57H673V-555q0-58.77-42.12-100.88Q588.77-698 530-698q-30.85 0-54.73 8.92-23.88 8.93-46.04 31.08H425q-55.15 0-92.46 39.96-37.31 39.96-48.54 106.43h-31.61q-.77 103.53 40.69 172.57Q334.54-270 429-270Z"/></svg>