<svg xmlns="http://www.w3.org/2000/svg" height="48" viewBox="0 96 960 960" width="48"><path d="M611.923 883.306h35.384V750.615h-35.384v132.691Zm17.692-168.614q7.231.385 12.462-5.188 5.23-5.573 5.23-12.619 0-7.431-5.34-12.812-5.341-5.38-12.462-5.38-7.736 0-12.659 5.258-4.923 5.258-4.923 12.554 0 7.297 5 12.742 5 5.445 12.692 5.445Zm18.461 234.537q-73.201 0-124.561-51.36-51.36-51.36-51.36-124.562 0-72.817 51.36-124.177 51.36-51.36 124.561-51.36 72.818 0 124.178 51.36t51.36 124.177q0 73.202-51.36 124.562t-124.178 51.36ZM522.539 411.23h172.076L522.539 241.385 694.615 411.23 522.539 241.385V411.23ZM197.694 955.999q-23.5 0-40.596-17.097-17.097-17.096-17.097-40.596V253.694q0-23.5 17.097-40.596 17.096-17.097 40.596-17.097h347.537l194.768 194.768v152.692q-21.923-9.461-45.321-14.115-23.397-4.654-46.602-4.654-46.615 0-87.692 16.462-41.078 16.462-73.078 44.847H289.385v45.383h153.922q-18.153 26.308-28.938 57.582t-14.062 64.342H289.385v45.384h110.991q4.701 45.384 25.316 85.922t53.999 71.385H197.694Z"/></svg>