<svg xmlns="http://www.w3.org/2000/svg" height="48" viewBox="0 96 960 960" width="48"><path d="m563.461 624.615 134.884-134.884-30.884-31.192-81.731 80.731V348.154h-43.845v191.732l-82.424-81.347-30.191 31.192 134.191 134.884Zm-250.615 156.23q-18.23 0-31.038-12.807Q269.001 755.23 269.001 737V236.154q0-18.615 12.807-31.23 12.808-12.615 31.038-12.615h500.846q18.615 0 31.23 12.615 12.615 12.615 12.615 31.23V737q0 18.23-12.615 31.038-12.615 12.807-31.23 12.807H312.846ZM215.692 950.96q-18.038 2.423-32.21-7.961-14.173-10.385-16.212-28.615l-61.769-480.768q-2.73-17.653 8.115-32.326 10.846-14.673 29.461-17.404l62.077-6.807v368.997q0 41.077 28.769 69.846 28.77 28.77 69.847 28.77h481.613q.769 16.653-10.423 28.403t-27.384 12.865l-531.884 65Z"/></svg>