<svg xmlns="http://www.w3.org/2000/svg" height="24" width="24"><path d="M7.15 10.6q.25.225.6.237.35.013.6-.237l.55-.525.5.5q.25.25.588.25.337 0 .612-.25.25-.25.25-.6t-.25-.6l-.775-.8q-.2-.2-.438-.3-.237-.1-.487-.1t-.5.1q-.25.1-.45.3l-.8.8q-.25.25-.25.6t.25.625Zm6.25-.025q.275.25.613.25.337 0 .587-.25l.5-.5.55.525q.25.25.588.237.337-.012.612-.262.25-.25.25-.6t-.25-.6l-.8-.8q-.2-.2-.45-.3-.25-.1-.5-.1t-.487.1q-.238.1-.438.3l-.8.8q-.225.25-.225.6t.25.6Zm-1.4 11.9q-2.2 0-4.1-.825-1.9-.825-3.312-2.237Q3.175 18 2.35 16.1q-.825-1.9-.825-4.1 0-2.2.825-4.1.825-1.9 2.238-3.313Q6 3.175 7.9 2.35q1.9-.825 4.1-.825 2.2 0 4.1.825 1.9.825 3.313 2.237Q20.825 6 21.65 7.9q.825 1.9.825 4.1 0 2.2-.825 4.1-.825 1.9-2.237 3.313Q18 20.825 16.1 21.65q-1.9.825-4.1.825Zm0-4.975q1.525 0 2.75-.738 1.225-.737 1.95-1.962.25-.375.05-.675-.2-.3-.65-.3H7.9q-.45 0-.65.3t.05.675q.725 1.225 1.95 1.962 1.225.738 2.75.738Z"/></svg>