<svg xmlns="http://www.w3.org/2000/svg" height="20" viewBox="0 -960 960 960" width="20"><path d="M405.96-269.65q12.19 0 21.44-8.83 9.25-8.82 9.25-21.87 0-43.95-13.28-79.67t-48.11-64.59v144.26q0 13.05 9.25 21.87 9.25 8.83 21.45 8.83Zm148.19 0q13.09 0 21.84-9.25t8.75-21.45v-144.26q-34.83 28.87-48.11 65.21-13.28 36.35-13.28 79.05 0 13.05 8.85 21.87 8.86 8.83 21.95 8.83ZM100.17-95.35l-46.78-79.78q44.13-29 69.48-72.8 25.35-43.81 25.35-92.42v-423.48q-18.74-26-34.71-52.39-15.96-26.39-28.08-56.52l84.66-36.48q41.56 98.13 124.65 159.76 83.09 61.63 185.26 61.63 102.17 0 185.26-61.63 83.09-61.63 124.65-159.76l84.66 35.48q-12.44 30.3-27.96 56.61-15.52 26.3-34.83 52.3v424.48q0 48.61 25.35 92.7 25.35 44.08 69.48 73.08l-46.78 79.22q-65.35-41.26-102.87-103.32-37.53-62.07-37.53-141.68v-335.56q-51.56 38-112.65 59.21-61.1 21.22-126.66 21.22-65.55 0-126.49-20.43-60.93-20.44-113.06-58.44v334q0 73.39-36.74 139.07-36.74 65.67-103.66 105.93Zm305.79-87.61q-48.92 0-83.16-34.24-34.23-34.23-34.23-83.15v-278.52l51.52 17.7q46.74 16 81.54 42.95 34.8 26.96 58.37 64.57 23.57-37.61 58.37-64.57 34.8-26.95 81.54-42.95l51.52-17.7v278.52q0 48.92-34.23 83.15-34.24 34.24-83.16 34.24-21.57 0-40.09-7.08-18.51-7.09-33.95-19.39-15.44 12.3-33.95 19.39-18.52 7.08-40.09 7.08Zm148.08-117.39Zm-148.08 0Z"/></svg>