<svg xmlns="http://www.w3.org/2000/svg" height="24" width="24"><path d="M5.9 18.425Q5.575 18.425 5.363 18.2Q5.15 17.975 5.15 17.65V16.85Q5.15 16.25 5.488 15.738Q5.825 15.225 6.45 14.925Q7.75 14.3 9.062 13.975Q10.375 13.65 11.675 13.6Q11.85 13.6 12 13.6Q12.15 13.6 12.325 13.625L3.25 4.55Q3.125 4.425 3.112 4.237Q3.1 4.05 3.25 3.9Q3.4 3.75 3.575 3.75Q3.75 3.75 3.9 3.9L20.1 20.075Q20.225 20.225 20.238 20.413Q20.25 20.6 20.1 20.75Q19.95 20.9 19.763 20.9Q19.575 20.9 19.425 20.75L17.1 18.425ZM18.325 15.75 17.525 14.95Q17.65 15 17.763 15.037Q17.875 15.075 17.975 15.15Q18.15 15.225 18.238 15.375Q18.325 15.525 18.325 15.7ZM13.625 10.9 9.575 6.85Q9.975 6.225 10.613 5.887Q11.25 5.55 12 5.55Q13.225 5.55 14.075 6.4Q14.925 7.25 14.925 8.475Q14.925 9.225 14.588 9.863Q14.25 10.5 13.625 10.9Z"/></svg>