<svg xmlns="http://www.w3.org/2000/svg" height="48" width="48"><path d="M24.15 19.75h8.4q.65 0 1.075-.425.425-.425.425-1.075 0-.65-.425-1.075-.425-.425-1.075-.425h-8.4q-.65 0-1.075.425-.425.425-.425 1.075 0 .65.425 1.075.425.425 1.075.425Zm0 11.5h8.4q.65 0 1.075-.425.425-.425.425-1.075 0-.65-.425-1.075-.425-.425-1.075-.425h-8.4q-.65 0-1.075.425-.425.425-.425 1.075 0 .65.425 1.075.425.425 1.075.425Zm-7.65-10.4h1.8q.7 0 1.2-.5t.5-1.2v-1.8q0-.7-.5-1.2t-1.2-.5h-1.8q-.7 0-1.2.5t-.5 1.2v1.8q0 .7.5 1.2t1.2.5Zm0 11.5h1.8q.7 0 1.2-.5t.5-1.2v-1.8q0-.7-.5-1.2t-1.2-.5h-1.8q-.7 0-1.2.5t-.5 1.2v1.8q0 .7.5 1.2t1.2.5ZM9.1 42.3q-1.35 0-2.375-1.025T5.7 38.9V9.1q0-1.4 1.025-2.4t2.375-1h29.8q1.4 0 2.4 1t1 2.4v29.8q0 1.35-1 2.375T38.9 42.3Zm0-3.4h29.8V9.1H9.1v29.8Zm0 0V9.1v29.8Z"/></svg>