<svg xmlns="http://www.w3.org/2000/svg" height="48" width="48"><path d="m37.95 34.05-2.8-2.85 11.3-11.3q1.1 1.2 1.05 2.85-.05 1.65-1.1 2.75ZM33.5 29.6 17.85 13.95l8.5-8.45q1.2-1.15 2.825-1.15Q30.8 4.35 32 5.5l12.8 12.8Zm6.45 15.35L28.9 33.85l-6.15 6.1q-.55.55-1.3.875-.75.325-1.55.325h-16q-1.65 0-2.825-1.175Q-.1 38.8-.1 37.2v-2.8q0-1.55.625-2.7.625-1.15 1.925-1.6 1.1-.3 2.525-.925Q6.4 28.55 7.85 27.4l2.8 2.8q.2.25.55.25.35 0 .6-.25t.25-.575q0-.325-.25-.575L9.3 26.5q.45-.35.95-.8.5-.45.95-1l2.55 2.45q.25.25.55.25.3 0 .6-.25.2-.2.225-.55.025-.35-.225-.6l-2.5-2.5q.45-.5.9-1.125t.6-1.125l2.85 2.9q.2.25.525.225.325-.025.575-.275.25-.2.25-.55 0-.35-.2-.55L3.4 8.45q-.5-.5-.5-1.175T3.4 6.1q.5-.45 1.15-.45.65 0 1.15.45l36.55 36.5q.5.5.5 1.175t-.5 1.175q-.5.5-1.15.5-.65 0-1.15-.5Z"/></svg>