<svg xmlns="http://www.w3.org/2000/svg" height="20" width="20"><path d="M10 14.896q-.375 0-.635-.261-.261-.26-.261-.635t.261-.635q.26-.261.635-.261t.635.261q.261.26.261.635t-.261.635q-.26.261-.635.261Zm0 2.771q-1.604 0-2.99-.605-1.385-.604-2.427-1.645-1.041-1.042-1.645-2.427-.605-1.386-.605-2.969t.625-3.031q.625-1.448 1.709-2.511.312-.312.739-.281.427.031.74.323l4.437 4.437q.125.125.198.292.073.167.073.344 0 .177-.073.344-.073.166-.198.291-.271.292-.645.292-.376 0-.646-.271L5.521 6.5q-.583.729-.896 1.635-.313.907-.313 1.886 0 2.375 1.657 4.021Q7.625 15.688 10 15.688t4.031-1.646q1.657-1.646 1.657-4.021 0-2.104-1.344-3.698Q13 4.729 10.917 4.396v.646q0 .375-.271.646-.271.27-.646.27t-.646-.27q-.271-.271-.271-.646v-1.73q0-.416.323-.697.323-.282.761-.282 1.541 0 2.906.615 1.365.614 2.385 1.656 1.021 1.042 1.615 2.438.594 1.396.594 2.979 0 1.583-.605 2.969-.604 1.385-1.645 2.427-1.042 1.041-2.427 1.645-1.386.605-2.99.605Zm4-6.771q-.375 0-.635-.261-.261-.26-.261-.635t.261-.635q.26-.261.635-.261t.635.261q.261.26.261.635t-.261.635q-.26.261-.635.261Zm-8 0q-.375 0-.635-.261-.261-.26-.261-.635t.261-.635q.26-.261.635-.261t.635.261q.261.26.261.635t-.261.635q-.26.261-.635.261Z"/></svg>