<svg xmlns="http://www.w3.org/2000/svg" height="24" viewBox="0 -960 960 960" width="24"><path d="M280-65q-33 0-56.5-23.5T200-145q0-33 23.5-56.5T280-225q33 0 56.5 23.5T360-145q0 33-23.5 56.5T280-65Zm400 0q-33 0-56.5-23.5T600-145q0-33 23.5-56.5T680-225q33 0 56.5 23.5T760-145q0 33-23.5 56.5T680-65ZM217-815h552q40.62 0 61.81 35.5Q852-744 832-707L713-490q-13 23-34.95 36.5Q656.1-440 630-440H341l-35 65h414q23.38 0 39.19 15.81Q775-343.38 775-320q0 23.37-15.81 39.19Q743.38-265 720-265H280q-56 0-83-47.5t-1-93.5l51-90-136-289H80q-23.37 0-39.19-15.81Q25-816.63 25-840q0-23.38 15.81-39.19Q56.63-895 80-895h59q18 0 33.6 9.39 15.6 9.39 23.4 26.61l21 44Z"/></svg>