<svg xmlns="http://www.w3.org/2000/svg" height="40" viewBox="0 -960 960 960" width="40"><path d="m225.18-415.59 242.51 139.62q6.16 3.84 12.31 3.84t12.31-3.84L733.9-415.74 505.92-547.95v112.46h-51.18v-112.46L225.18-415.59Zm229.56-191.54V-659q-34.77-8.54-57.38-36.38-22.62-27.85-22.62-66.18 0-44.58 30.48-74.84 30.47-30.27 75.09-30.27 44.62 0 75.11 30.27 30.5 30.26 30.5 74.84 0 38.33-22.95 66.18-22.94 27.84-57.05 36.38v51.87l277.85 160.77q18.41 10.76 27.98 27.76 9.58 17 9.58 37.22v61.43q0 20.22-9.58 37.22-9.57 17-27.98 27.76L518.23-101.26q-19.24 10.05-38.72 10.05-19.49 0-37.07-10.05L176.9-254.97q-19.08-10.76-28.65-27.76-9.58-17-9.58-37.22v-61.43q0-20.22 9.58-37.22 9.57-17 28.65-27.76l277.84-160.77Zm-12.3 375.87L189.85-377.38v57.51q0 6.16 3.07 11.93 3.08 5.77 9.23 9.61l265.54 152.2q6.16 3.34 12.31 3.34t12.31-3.34l265.54-152.2q6.15-3.84 9.23-9.61 3.07-5.77 3.07-11.93v-58.18L518.23-231.26q-18.94 10.57-38.83 10.57-19.89 0-36.96-10.57Zm37.45-475.41q22.77 0 38.81-15.93 16.04-15.94 16.04-38.7 0-22.49-15.94-38.34-15.95-15.85-38.73-15.85-22.78 0-38.46 15.81-15.69 15.81-15.69 38.4 0 22.58 15.74 38.6 15.74 16.01 38.23 16.01Zm-4.51 564.39Z"/></svg>