<svg xmlns="http://www.w3.org/2000/svg" height="24" viewBox="0 -960 960 960" width="24"><path d="M479-100q-78.37 0-147.3-29.39t-120.33-80.03q-51.4-50.65-81.39-119.11Q100-396.99 100-474.83q0-79.42 29.89-149.35 29.89-69.94 81.34-122.32 51.44-52.39 120.98-82.94Q401.76-860 480.83-860q78.82 0 148.23 30.54 69.4 30.53 120.75 82.88 51.34 52.35 80.76 122.24Q860-554.46 860-475v302q0 30.75-21.74 51.87Q816.53-100 786-100H479Zm1-55q135 0 230-94.45 95-94.46 95-230.55 0-135-95-230t-230.5-95q-135.5 0-230 95T155-480.15q0 30.15 5 58.81 5 28.66 16 55.34l108-108q11.12-11.25 27.56-12.63Q328-488 341-476l102 85 161-161h-74q-10.95 0-18.98-8.04-8.02-8.03-8.02-19 0-10.96 8.02-18.96 8.03-8 18.98-8h123q17.75 0 30.38 12.62Q696-580.75 696-563v123q0 10.95-8.04 18.98-8.03 8.02-19 8.02-10.96 0-18.96-8.02-8-8.03-8-18.98v-73L473-344q-12 12-28.94 13T414-341l-99-86-113 113q42 73 115.45 116T480-155Zm311.5 28q15.5 0 28-12.5t12.5-28.57q0-16.07-12.5-28t-28-11.93q-15.5 0-28 11.93t-12.5 28q0 16.07 12.5 28.57t28 12.5ZM468-480Z"/></svg>