<svg xmlns="http://www.w3.org/2000/svg" height="40" width="40"><path d="m37.542 28.458-6.5-6.5v4.667l-4.25-4.208V9.958H14.375l-4.208-4.25h16.625q1.75 0 3 1.25t1.25 3v8.084l6.5-6.542ZM6.375 5.708l4.208 4.25H6.708v5.417H2.5V9.958q0-1.5.958-2.687.959-1.188 2.375-1.479ZM20.417 34.25v-4.208h6.375v-3.875l4.083 4.083v.667q-.25 1.416-1.437 2.375-1.188.958-2.73.958Zm14.791 4.875L1.125 4.958l2.208-2.25 34.209 34.209ZM7.667 37.583q-.834 0-1.605-.312-.77-.313-1.354-.896l-5-5.042.25-.25q.25-.25.604-.458.355-.208.771-.208.5 0 .938.187.437.188.771.521l1.583 1.583v-12q0-.541.333-.854.334-.312.834-.312.5 0 .812.312.313.313.313.854v6.375H8v-8.875q0-.541.333-.854.334-.312.834-.312.5 0 .833.312.333.313.333.854v8.875h1.042v-7.208q0-.542.354-.854.354-.313.813-.313.5 0 .833.313.333.312.333.854v7.208h1.042v-5.041q0-.5.333-.834.334-.333.834-.333.5 0 .833.333.333.334.333.834v11.333q0 1.75-1.25 2.979t-2.958 1.229Zm10.541-20.041Zm2.375-1.375Z"/></svg>