<svg xmlns="http://www.w3.org/2000/svg" height="20" viewBox="0 -960 960 960" width="20"><path d="M694.61-423.77q14.45 0 24.23-9.72 9.77-9.72 9.77-24.08 0-14.37-9.77-24.28-9.78-9.92-24.23-9.92H565.08q-14.45 0-24.23 9.72-9.77 9.72-9.77 24.08 0 14.37 9.77 24.28 9.78 9.92 24.23 9.92h129.53Zm0-131.38q14.45 0 24.23-9.72 9.77-9.72 9.77-24.09 0-14.36-9.77-24.28-9.78-9.91-24.23-9.91H565.08q-14.45 0-24.23 9.72-9.77 9.71-9.77 24.08 0 14.37 9.77 24.28 9.78 9.92 24.23 9.92h129.53Zm-357.57 112.3q-26.96 0-48.39 4.54-21.42 4.54-41.5 13.62-16.3 9.69-24.76 17.5-8.47 7.81-8.47 16.8 0 14.38 9.64 23.96 9.63 9.58 23.38 9.58h181.39q12.68 0 22.25-9.89 9.57-9.88 9.57-23.26 0-11.53-7.77-19.27-7.77-7.73-24.46-14.42-21.07-9.08-42.5-14.12-21.42-5.04-48.38-5.04Zm.71-36.3q25.94 0 43.86-18.14 17.93-18.13 17.93-44.08 0-25.94-18.14-43.86-18.13-17.92-44.07-17.92t-43.87 18.13q-17.92 18.14-17.92 44.08 0 25.94 18.13 43.86 18.14 17.93 44.08 17.93ZM180.31-188q-37.73 0-64.02-26.3T90-278.35v-403.62q0-37.75 26.29-63.89T180.31-772h599.38q37.73 0 64.02 26.3T870-681.65v403.62q0 37.75-26.29 63.89T779.69-188H180.31Z"/></svg>