<svg xmlns="http://www.w3.org/2000/svg" height="20" viewBox="0 -960 960 960" width="20"><path d="M189-122.52v-444.72q-37.57-15.8-60.78-50.68Q105-652.8 105-696q0-58.95 41.85-100.21 41.85-41.27 100.43-41.27 58.57 0 99.62 41.27 41.06 41.26 41.06 100.21 0 45.2-23.72 79.08-23.72 33.88-60.28 49.01v330.43h118.56v-600H771v445.39q36.57 15.13 60.28 49.01Q855-309.2 855-264q0 58.62-41.23 100.05-41.24 41.43-100.15 41.43-57.91 0-99.74-41.43-41.84-41.43-41.84-100.05 0-41.93 23.72-77.66t60.28-51.2v-329.66H537.48v600H189Z"/></svg>