<svg xmlns="http://www.w3.org/2000/svg" height="24" width="24"><path d="M6.575 20.825V19.075L7.875 17.775H4.475Q3.5 17.775 2.85 17.125Q2.2 16.475 2.2 15.5V5.5Q2.2 4.525 2.85 3.875Q3.5 3.225 4.475 3.225H12.5V4.875H4.475Q4.225 4.875 4.038 5.062Q3.85 5.25 3.85 5.5V15.5Q3.85 15.75 4.038 15.938Q4.225 16.125 4.475 16.125H19.525Q19.775 16.125 19.963 15.938Q20.15 15.75 20.15 15.5V13.025H21.8V15.5Q21.8 16.475 21.15 17.125Q20.5 17.775 19.525 17.775H16.125L17.425 19.075V20.825ZM16.725 14.275 12 9.525 13.15 8.375 15.9 11.125V3.225H17.55V11.125L20.325 8.375L21.475 9.525Z"/></svg>