<svg xmlns="http://www.w3.org/2000/svg" height="24" viewBox="0 -960 960 960" width="24"><path d="M260-300q-75 0-127.5-52.5T80-480q0-75 52.5-127.5T260-660q56 0 100 30t65 78q13-4 26.5-6t27.5-2q14 0 28 2t28 6q21-48 65-78t100-30q75 0 127.5 52.5T880-480q0 75-52.5 127.5T700-300q-73 0-125-50.5T520-473q-10-4-20-5.5t-21-1.5q-11 0-20.5 2t-18.5 5q-3 72-55 122.5T260-300Zm-71-251q-29 29-29 71t29 71q29 29 71 29t71-29q29-29 29-71t-29-71q-29-29-71-29t-71 29Zm440 0q-29 29-29 71t29 71q29 29 71 29t71-29q29-29 29-71t-29-71q-29-29-71-29t-71 29Z"/></svg>