<svg xmlns="http://www.w3.org/2000/svg" height="40" width="40"><path d="M3.125 31.875V10H4.833V25.042H19.542V13.458H31.958Q34.042 13.458 35.458 14.875Q36.875 16.292 36.875 18.375V31.875H35.167V26.75H4.833V31.875ZM11.583 21.542Q10.125 21.542 9.146 20.562Q8.167 19.583 8.167 18.125Q8.167 16.667 9.146 15.688Q10.125 14.708 11.583 14.708Q13.042 14.708 14.042 15.688Q15.042 16.667 15.042 18.125Q15.042 19.583 14.042 20.562Q13.042 21.542 11.583 21.542ZM21.25 25.042H35.167V18.375Q35.167 17.042 34.229 16.104Q33.292 15.167 32 15.167H21.25ZM11.583 19.833Q12.292 19.833 12.812 19.333Q13.333 18.833 13.333 18.125Q13.333 17.417 12.812 16.896Q12.292 16.375 11.583 16.375Q10.875 16.375 10.354 16.896Q9.833 17.417 9.833 18.125Q9.833 18.833 10.354 19.333Q10.875 19.833 11.583 19.833ZM11.583 18.083Q11.583 18.083 11.583 18.083Q11.583 18.083 11.583 18.083Q11.583 18.083 11.583 18.083Q11.583 18.083 11.583 18.083Q11.583 18.083 11.583 18.083Q11.583 18.083 11.583 18.083Q11.583 18.083 11.583 18.083Q11.583 18.083 11.583 18.083ZM21.25 15.167Q21.25 15.167 21.25 15.167Q21.25 15.167 21.25 15.167V25.042Z"/></svg>