<svg xmlns="http://www.w3.org/2000/svg" height="24" viewBox="0 -960 960 960" width="24"><path d="M524.15-108.08v-287.96h287.77v107.69l71.96-71.96v216l-71.96-71.77v108H524.15Zm-131.92 0L377-227.5q-7.38-1.85-25.23-11.69-17.85-9.85-40.85-24.66L201-217.77l-88.27-153.54 96-72.46q-1.57-8.61-2.06-17.11-.48-8.5-.48-18.74 0-7.73.73-16.94.74-9.21 2.12-21.29l-96.31-71.84L201-741.65l110.85 46.5q13.65-11.27 30.23-20.87 16.57-9.59 34.54-16.17l15.61-120.54h175.73l15.23 119.81q18.62 6.84 33.44 15.83 14.83 8.98 29.68 21.94l112.88-46.5 88.27 151.96-99.96 74.61q1.96 9.69 2.25 17.71.29 8.02.29 17.68H594.5v-.31q0-48.31-33.83-82.13-33.82-33.83-82.13-33.83-48.5 0-82.23 33.83-33.73 33.82-33.73 82.13 0 38.81 21.4 68.38 21.41 29.58 56.52 41.12v262.42h-48.27Z"/></svg>