<svg xmlns="http://www.w3.org/2000/svg" height="20" width="20"><path d="M15.729 18.354 11.333 13.917 13.646 11.583 18.062 16.021ZM4.542 18.354 2.229 16.021 7.812 10.417 6.458 9.062 5.875 9.646 5.062 8.833V10.208L4.354 10.938L1.333 7.896L2.042 7.188H3.438L2.688 6.438L5.917 3.229Q6.375 2.771 6.958 2.542Q7.542 2.312 8.125 2.312Q8.708 2.312 9.302 2.552Q9.896 2.792 10.354 3.229L8.312 5.25L9.271 6.208L8.688 6.792L10.104 8.208L11.917 6.396Q11.854 6.208 11.844 5.99Q11.833 5.771 11.833 5.562Q11.833 4.25 12.75 3.312Q13.667 2.375 15 2.375Q15.417 2.375 15.823 2.458Q16.229 2.542 16.583 2.792L14.542 4.854L15.708 6.021L17.792 3.938Q18.021 4.271 18.094 4.708Q18.167 5.146 18.167 5.562Q18.167 6.896 17.24 7.813Q16.312 8.729 15 8.729Q14.792 8.729 14.604 8.719Q14.417 8.708 14.208 8.667Z"/></svg>