<svg xmlns="http://www.w3.org/2000/svg" height="20" width="20"><path d="M15.583 11.667q-1.083-1.084-1.666-2.459-.584-1.375-.584-2.896 0-1.52.625-2.885.625-1.365 1.688-2.448l1.166 1.146q-.854.833-1.343 1.927-.49 1.094-.49 2.281 0 1.209.469 2.282t1.323 1.906Zm2.542-2.459q-.583-.583-.917-1.302-.333-.718-.333-1.531t.354-1.563q.354-.75.938-1.312l1.104 1.125q-.354.354-.552.792-.198.437-.198.916 0 .479.198.927.198.448.552.802Zm-9.708 1.709q-1.396 0-2.313-.917-.916-.917-.916-2.312 0-1.376.916-2.303.917-.927 2.313-.927 1.375 0 2.302.927t.927 2.303q0 1.395-.927 2.312-.927.917-2.302.917Zm-6.542 6.395v-2.25q0-.645.333-1.229.334-.583.959-.875 1.062-.5 2.375-.864 1.312-.365 2.854-.365 1.562 0 2.885.365 1.323.364 2.365.864.625.292.969.875.343.584.343 1.229v2.25Zm1.646-1.645h9.791v-.605q0-.187-.104-.364t-.291-.26q-.709-.355-1.896-.709-1.188-.354-2.604-.354-1.417 0-2.605.354-1.187.354-1.895.709-.188.083-.292.26-.104.177-.104.364Zm4.896-6.396q.687 0 1.135-.448Q10 8.375 10 7.688 10 7 9.552 6.552q-.448-.448-1.135-.448-.688 0-1.136.448-.448.448-.448 1.136 0 .687.448 1.135.448.448 1.136.448Zm0-1.583Zm0 7.979Z"/></svg>