<svg xmlns="http://www.w3.org/2000/svg" height="24" width="24"><path d="M18.825 20.225q-.2-.225-.2-.5t.2-.475l.9-.9H11.5q-.225.875-.938 1.425-.712.55-1.612.55-.9 0-1.6-.55-.7-.55-.925-1.425H5.3q-1.125 0-1.9-.775-.775-.775-.775-1.9v-5.35h5.6v-2.95H3.3q-.275 0-.475-.2-.2-.2-.2-.5t.2-.5q.2-.2.5-.2h11.25q.7 0 1.2.5t.5 1.2v9.275h3.45l-.9-.9q-.2-.2-.2-.475 0-.275.2-.5.225-.2.5-.2t.5.2l1.95 1.975q.125.125.188.275.062.15.062.325 0 .175-.062.325-.063.15-.188.275l-2 2q-.175.175-.45.175t-.5-.2Zm-9.15-9.9h5.2v-2.65q0-.1-.087-.2-.088-.1-.213-.1h-4.9Zm-.725 8.6q.525 0 .9-.375t.375-.9q0-.55-.362-.925-.363-.375-.913-.375-.525 0-.9.375t-.375.9q0 .55.375.925t.9.375ZM6.425 16.95q.225-.875.925-1.425.7-.55 1.6-.55.9 0 1.612.55.713.55.938 1.425h3.375v-5.225H4.025v3.95q0 .525.375.9t.9.375Zm0-5.225h-2.4 10.85H6.425Z"/></svg>