<svg xmlns="http://www.w3.org/2000/svg" height="20" viewBox="0 -960 960 960" width="20"><path d="M480-222.78q48.67 0 79.95-34.84 31.27-34.83 33.27-84.6v-179q2-50.23-30.11-85.4-32.11-35.16-82.61-35.16t-81.61 35.16q-31.11 35.17-32.11 85.4v179q-1 49.77 30.61 84.6Q429-222.78 480-222.78Zm-72-108.7h144v-81.04H408v81.04Zm0-120h144v-81.04H408v81.04Zm72 20.91Zm.03 305.79q-66.25 0-120.62-36.74-54.37-36.74-76.63-97.96h-98.69v-81.04h84.13q.42-12.55.49-25.1t.07-25.86h-84.69v-81.04h84.69q0-13.31-.07-25.86-.07-12.55-.49-25.1h-84.13v-81.04h101.52q5.74-28.26 24.39-50.2t42.61-38.89l-82.13-81 58.35-57.78 101 100q23.25-8.39 48.06-8.96 24.81-.56 48.2 7.26l101.13-101.69L685-778l-79.87 79.87q26.39 18.26 44.81 42.93 18.41 24.68 27.84 55.2h98.13v76.52h-84.13q-.42 12.55-.49 25.1t-.07 25.86h84.69v81.04h-84.69q0 13.31-.28 25.76-.29 12.46.28 25.2h84.69v81.04h-98.69q-22.26 61.22-76.6 97.96-54.34 36.74-120.59 36.74ZM28.78-731.3v-101.92q0-41.3 28.5-69.65 28.5-28.35 69.5-28.35H228.7v98H126.78v101.92h-98ZM228.7-28.78H126.78q-41.3 0-69.65-28.5-28.35-28.5-28.35-69.5V-228.7h98v101.92H228.7v98Zm502.6 0v-98h101.92V-228.7h98v101.92q0 41.3-28.5 69.65-28.5 28.35-69.5 28.35H731.3ZM833.22-731.3v-101.92H731.3v-98h101.92q41.3 0 69.65 28.5 28.35 28.5 28.35 69.5v101.92h-98Z"/></svg>