<svg xmlns="http://www.w3.org/2000/svg" height="40" width="40"><path d="M3.292 18.583Q3.417 16.5 4.25 14.312Q5.083 12.125 6.292 10.417Q8.375 12.25 9.396 14.375Q10.417 16.5 10.667 18.583ZM29.333 18.583Q29.583 16.5 30.583 14.417Q31.583 12.333 33.708 10.417Q34.917 12.167 35.75 14.333Q36.583 16.5 36.708 18.583ZM6.292 29.542Q5.083 27.792 4.271 25.646Q3.458 23.5 3.292 21.417H10.667Q10.417 23.5 9.396 25.583Q8.375 27.667 6.292 29.542ZM33.708 29.542Q31.583 27.667 30.583 25.583Q29.583 23.5 29.333 21.417H36.708Q36.583 23.5 35.75 25.646Q34.917 27.792 33.708 29.542ZM13.667 18.583Q13.333 15.792 12.062 13.229Q10.792 10.667 8.125 8.208Q10 6.292 12.667 4.917Q15.333 3.542 18.583 3.292V18.583ZM21.417 18.583V3.292Q24.667 3.542 27.333 4.917Q30 6.292 31.917 8.208Q29.25 10.667 27.958 13.229Q26.667 15.792 26.375 18.583ZM18.583 36.708Q15.208 36.458 12.604 35.083Q10 33.708 8.125 31.708Q10.792 29.292 12.062 26.75Q13.333 24.208 13.667 21.417H18.583ZM21.417 36.708V21.417H26.375Q26.667 24.208 27.958 26.75Q29.25 29.292 31.917 31.75Q30 33.708 27.396 35.083Q24.792 36.458 21.417 36.708Z"/></svg>