<svg xmlns="http://www.w3.org/2000/svg" height="20" width="20"><path d="M13.917 12.354q-.125-.125-.115-.25.01-.125.136-.229l1.562-1.542h-4.625q-.125 0-.229-.104-.104-.104-.104-.229t.104-.229q.104-.104.229-.104H15.5l-1.583-1.563q-.105-.104-.105-.239 0-.136.105-.24.125-.125.239-.125.115 0 .24.125l1.875 1.896q.104.104.167.229.062.125.062.25t-.062.25q-.063.125-.167.229l-1.896 1.896q-.104.104-.229.094-.125-.011-.229-.115ZM14.083 16H5.917v.75q0 .292.187.479.188.188.479.188h6.834q.291 0 .479-.188.187-.187.187-.479Zm0-12v-.75q0-.292-.187-.479-.188-.188-.479-.188H6.583q-.291 0-.479.188-.187.187-.187.479V4Zm-7.5 14.083q-.562 0-.948-.385-.385-.386-.385-.948V3.25q0-.562.385-.948.386-.385.948-.385h6.834q.562 0 .948.385.385.386.385.948v2.542h-.667V4.667H5.917v10.666h8.166v-1.125h.667v2.542q0 .562-.385.948-.386.385-.948.385Zm-.666-15.5V4 2.583Zm0 14.834V16v1.417Z"/></svg>