<svg xmlns="http://www.w3.org/2000/svg" height="20" viewBox="0 -960 960 960" width="20"><path d="M171.08-439.27v172.81-427.08V-439.27Zm403.74 265.85q20.87 0 35.58-14.27 14.72-14.26 14.72-35.13 0-20.87-14.46-35.58-14.46-14.72-35.33-14.72-20.87 0-35.39 14.46t-14.52 35.33q0 20.87 14.27 35.39 14.26 14.52 35.13 14.52Zm216.93-289.23q20.87 0 35.58-14.27 14.71-14.26 14.71-35.13 0-20.87-14.46-35.58-14.46-14.72-35.33-14.72-20.87 0-35.38 14.46-14.52 14.46-14.52 35.33 0 20.87 14.26 35.39 14.27 14.52 35.14 14.52Zm-528.67-85.97h216.5v-28.92h-216.5v28.92Zm0 166.16h216.5v-28.92h-216.5v28.92ZM142.15-237.54v-484.92h675.7v53.54h-28.93v-24.62H171.08v427.08h256.5v28.92H142.15Zm432.97 93.04q-32.89 0-55.75-22.92-22.87-22.93-22.87-55.67 0-29.16 18.08-50.92 18.07-21.76 46.23-27.26v-69.08h216.92v-64.15q-28.15-5.17-46.23-26.78-18.08-21.6-18.08-51.14 0-32.69 22.94-55.77 22.94-23.08 55.71-23.08 32.78 0 55.83 23.08 23.06 23.08 23.06 56.04 0 29.11-18.27 50.82t-46.04 26.86v93.05H589.73v40.15q27.77 5.5 46.04 27.12t18.27 51.17q0 32.71-23.02 55.59-23.02 22.89-55.9 22.89Z"/></svg>