<svg xmlns="http://www.w3.org/2000/svg" height="24" width="24"><path d="M3 20.075V3H14.6Q14.55 3.25 14.538 3.487Q14.525 3.725 14.525 4H4V17.375L5.375 16H20V8.35Q20.275 8.275 20.525 8.188Q20.775 8.1 21 7.95V17H6.075ZM6.5 13.5H13.5V12.5H6.5ZM6.5 10.5H17.5V9.5H6.5ZM6.5 7.5H16.45V7.475Q16.075 7.3 15.8 7.062Q15.525 6.825 15.3 6.5H6.5ZM4 4.625Q4 4.625 4 4.625Q4 4.625 4 4.625V16V17.375V4Q4 4.45 4 4.537Q4 4.625 4 4.625ZM19 6.45Q17.95 6.45 17.225 5.725Q16.5 5 16.5 3.975Q16.5 2.925 17.225 2.187Q17.95 1.45 19 1.45Q20.05 1.45 20.775 2.187Q21.5 2.925 21.5 3.95Q21.5 5 20.775 5.725Q20.05 6.45 19 6.45Z"/></svg>