<svg xmlns="http://www.w3.org/2000/svg" height="24" viewBox="0 -960 960 960" width="24"><path d="M752.5-124q-53 25.5-112.75 17T536-159.5q-28-28-41.25-61.75T480.5-291.5q-38.5-1-72.25-14.75T348.5-346q-26-26-40.5-60.5t-15-73q-36.5.5-70.75-13T160-534q-44-44-53-104.5T124.5-752l-45-45Q61-814.5 61-839.25t18.5-42.25q17.5-17 42-17t42 17l45.5 45q53-25.5 113.5-17T427-801q28 28 41.5 62.5t13 71q39.5.5 73 14.75T614-612.5q26 26 40.25 59.5t15.25 73q36.5 0 70.25 13.5T801.5-425q44 44 52.5 103.75T837-208.5l46 46.5q17.5 17.5 17.5 42.25T883-77.5q-17 17-41.75 17T799-77.5L752.5-124Z"/></svg>