<svg xmlns="http://www.w3.org/2000/svg" height="20" viewBox="0 -960 960 960" width="20"><path d="M697.54-275.6q0-13.92-9.01-22.85-9.01-8.93-22.68-8.93-13.68 0-22.69 9-9.01 9.01-9.01 22.69v129.9q0 13.93 9.01 22.86t22.69 8.93q13.67 0 22.68-9.01t9.01-22.68V-275.6Zm44.92-.09v129.9q0 13.93 9.01 22.86t22.68 8.93q13.68 0 22.69-9.01 9.01-9.01 9.01-22.68V-275.6q0-13.92-9.01-22.85-9.01-8.93-22.69-8.93-13.67 0-22.68 9-9.01 9.01-9.01 22.69Zm-118.85-299.7q16.05 0 27.53-11.41 11.47-11.42 11.47-27.39 0-15.96-11.47-27.58-11.48-11.61-27.53-11.61H336.39q-16.05 0-27.53 11.41-11.47 11.42-11.47 27.39 0 15.96 11.47 27.58 11.48 11.61 27.53 11.61h287.22Zm96.16 564.7q-83.69 0-141.73-58.27Q520-127.22 520-210.92q0-83.69 58.27-141.73 58.26-58.04 141.96-58.04 83.69 0 141.73 58.26Q920-294.16 920-210.47q0 83.7-58.27 141.74-58.26 58.04-141.96 58.04ZM132-99.08v-635.61q0-38.53 25.89-64.42T222.31-825h515.38q38.53 0 64.42 25.89T828-734.69v201.31q0 19.42-17.08 29.71t-36.77 2.44q-15.17-5.46-30.25-6.23-15.09-.77-30.98 3.46-20-8-40.5-10t-41.5-3H336.39q-16.05 0-27.53 11.42-11.47 11.42-11.47 27.38 0 15.97 11.47 27.58Q320.34-439 336.39-439h208.23q-19.43 11.75-34.22 26.87-14.78 15.13-26.71 31.52h-147.3q-16.05 0-27.53 11.41-11.47 11.42-11.47 27.39 0 15.96 11.47 27.58 11.48 11.61 27.53 11.61h108.69q-6.16 21.08-9.62 43.04-3.46 21.96-3.46 44.43 0 21.64 4.65 43.49t9.89 43.2q-1.16 3.57-3.31 5.86-2.15 2.29-5 3.21l-1.46.08q2.13 3.54-6.51-3.46t-20.87 3.46l-31.54 19.15q-5.87 4.47-13.51 4.47-7.65 0-13.88-4.47l-29.54-19.15q-5.86-4.46-13.51-4.46-7.64 0-13.87 4.46L262-100.16q-5.87 4.47-13.51 4.47t-13.87-4.47l-29.54-19.15q-5.87-4.46-13.51-4.96-7.65-.5-13.88 3.96l-31.61 20.15q-3.16 2.77-14.08 1.08Z"/></svg>