<svg xmlns="http://www.w3.org/2000/svg" height="40" viewBox="0 -960 960 960" width="40"><path d="M250.855-259.086v-262.189h-137.75q-30.556 0-51.566-21.079-21.01-21.078-21.01-51.341v-210.291q0-14.763 10.472-25.483t25.674-10.72q15.202 0 25.818 10.72 10.615 10.72 10.615 25.483v210.291h137.781q30.192 0 51.369 21.234 21.177 21.235 21.177 51.186v262.189l43.239-42.232q10.782-9.95 24.753-9.957 13.971-.007 25.066 10.673 10.855 11.697 10.855 26.054t-10.855 25.142L312.587-145.739q-10.688 11.189-25.478 11.069-14.79-.12-25.645-11.069l-103.921-104q-11.101-10.927-10.775-25.547.326-14.619 11.333-26.032 10.942-10.942 25.315-10.942 14.373 0 25.279 10.942l42.16 42.232Zm457.623-.073 43.399-42.159q10.862-9.703 24.714-9.834 13.851-.13 25.105 10.536 10.855 11.775 10.855 26.132 0 14.357-10.855 25.078L697.79-145.739q-10.731 11.189-25.579 11.069-14.849-.12-25.704-11.069l-103.76-104q-11.261-10.927-10.935-25.547.326-14.619 11.333-26.032 10.942-10.942 25.375-10.942t25.379 10.942l42.159 42.232v-262.189q0-29.951 21.187-51.186 21.186-21.234 51.354-21.234h138.786v-210.291q0-14.763 10.472-25.483t25.688-10.72q15.216 0 25.738 10.72t10.522 25.483v210.291q0 30.263-21.271 51.341-21.27 21.079-51.271 21.079H708.478v262.116Z"/></svg>