<svg xmlns="http://www.w3.org/2000/svg" height="24" viewBox="0 -960 960 960" width="24"><path d="M457.11-249.14q-.19 28.21 5.91 55.22 6.1 27 17.6 51.8-45.39-.11-101.03-8.5-55.64-8.4-105.85-25.66-50.2-17.26-87.16-44.05-36.96-26.78-44.46-63.71v-106.92q7.31 34.84 40.22 60.63 32.92 25.79 78.54 43.23 45.62 17.44 98.01 26.83 52.38 9.38 98.22 11.13Zm89.51-192.55q-27.16 21.69-47.34 49.83-20.19 28.14-31.29 61.94-46.03-.73-99.95-9.81t-101.66-26.29q-47.73-17.21-82.25-43.6-34.51-26.39-42.01-62.11v-107.12q7.5 37.12 44.62 63.91t87.09 44.13q49.98 17.35 105.5 25.62T480-436.92q16.7 0 33.26-1.18 16.55-1.17 33.36-3.59ZM480-518.08q-141.11 0-239.69-45.29-98.58-45.28-98.58-106.64t98.63-104.71q98.63-43.36 239.69-43.36t239.55 43.36q98.48 43.35 98.48 104.71 0 61.36-98.48 106.64-98.48 45.29-239.6 45.29Zm216.54 380.5h34.57v-161.57l71.2 71.19 24.11-24.12-113-112.19-112.19 112.19 24.12 24.12 71.19-71.19v161.57Zm17.24 61q-72.55 0-123.47-50.87t-50.92-123.42q0-72.55 50.86-123.48 50.87-50.92 123.43-50.92 72.55 0 123.47 50.87 50.93 50.87 50.93 123.42 0 72.56-50.87 123.48T713.78-76.58Z"/></svg>