<svg xmlns="http://www.w3.org/2000/svg" height="40" viewBox="0 96 960 960" width="40"><path d="M196.666 964q-43.7 0-74.183-30.483Q92 903.034 92 859.334V292.666q0-43.975 30.483-74.654 30.483-30.679 74.183-30.679h224.335q21.833 0 37.083 15.676 15.25 15.675 15.25 37.5 0 21.824-15.25 36.991-15.25 15.166-37.083 15.166H196.666v566.668h566.668V634.999q0-21.833 15.283-37.083 15.284-15.25 37.108-15.25 21.825 0 37.383 15.25 15.559 15.25 15.559 37.083v224.335q0 43.7-30.679 74.183Q807.309 964 763.334 964H196.666ZM660 396h-75.667q-18.316 0-31.324-13.079Q540 369.842 540 351.421t13.009-31.254q13.008-12.834 31.324-12.834H660v-75.666q0-18.317 13.079-31.325 13.079-13.009 31.5-13.009t31.254 13.009q12.834 13.008 12.834 31.325v75.666h75.666q18.317 0 31.325 13.079 13.009 13.079 13.009 31.5t-13.009 31.254Q842.65 396 824.333 396h-75.666v75.667q0 18.316-13.079 31.324Q722.509 516 704.088 516t-31.254-13.009Q660 489.983 660 471.667V396Z"/></svg>