<svg xmlns="http://www.w3.org/2000/svg" height="20" viewBox="0 -960 960 960" width="20"><path d="M174.78-172.78q-40.42 0-69.21-28.79-28.79-28.79-28.79-69.21V-432h218v12q0 15.3 10.48 25.65Q315.73-384 331.21-384q14.57 0 25.07-10.5t10.5-25.5v-12h226.44v12q0 15.3 10.47 25.65Q614.16-384 629.65-384q14.57 0 25.07-10.5t10.5-25.5v-12h218v161.22q0 40.42-28.79 69.21-28.79 28.79-69.21 28.79H174.78ZM75.65-480l80.83-202.91q10.07-25.18 33.42-40.75 23.34-15.56 51.1-15.56h47v-72.56q2-32.4 25.05-56.72 23.06-24.33 55.43-24.33h223.04q32.37 0 55.43 23.83Q670-845.18 672-811.78v72.56h47q27.76 0 51.1 15.56 23.35 15.57 33.42 40.75L884.35-480H665.22v-12q0-15.3-10.48-25.65Q644.27-528 628.79-528q-14.57 0-25.07 10.5t-10.5 25.5v12H366.78v-12q0-15.3-10.47-25.65Q345.84-528 330.35-528q-14.57 0-25.07 10.5t-10.5 25.5v12H75.65Zm292.83-259.22h223.04v-72.56H368.48v72.56Z"/></svg>