<svg xmlns="http://www.w3.org/2000/svg" height="20" viewBox="0 -960 960 960" width="20"><path d="M165.826-149.848q-44.563 0-74.869-30.305-30.305-30.305-30.305-74.869V-416.63h216.609v12.76q0 19.583 13.875 33.335 13.876 13.752 33.64 13.752 19.615 0 37.8-11.38 18.185-11.381 8.859-35.707v-12.76h217.13v12.76q0 19.583 13.995 33.335 13.995 13.752 33.521 13.752 19.615 0 37.919-11.38 18.304-11.381 8.739-35.707v-12.76h216.609v161.608q0 44.564-30.305 74.869-30.306 30.305-74.869 30.305H165.826ZM64.456-486.804l78.196-195.066q12.4-27.996 37.365-45.693 24.965-17.698 55.94-17.698h23.065v-70.478q2-40.522 29.54-69.261 27.54-28.739 68.221-28.739h246.434q40.681 0 68.221 28.239 27.54 28.239 29.54 69.761v70.478h23.065q30.975 0 55.94 17.698 24.965 17.697 37.365 45.693l78.196 195.066H682.739v-12.761q0-19.583-13.875-33.335-13.876-13.752-33.64-13.752-19.615 0-37.8 11.38-18.185 11.381-8.859 35.707v12.761h-217.13v-12.761q0-19.583-13.995-33.335-13.995-13.752-33.521-13.752-19.615 0-37.919 11.38-18.304 11.381-8.739 35.707v12.761H64.456Zm292.327-258.457h246.434v-70.478H356.783v70.478Z"/></svg>