<svg xmlns="http://www.w3.org/2000/svg" height="48" width="48"><path d="M14.65 27q-1 0-1.675-.675T12.3 24.65V24q0-4.9 3.4-8.3 3.4-3.4 8.3-3.4t8.3 3.4q3.4 3.4 3.4 8.3v.65q0 1-.675 1.675T33.35 27q-1 0-1.675-.675T31 24.65V24q0-2.9-2.05-4.95Q26.9 17 24 17q-2.9 0-4.925 2.05T17.05 24v.65q0 1-.7 1.675t-1.7.675ZM12 38.35q-1 0-1.675-.675T9.65 36q0-1 .675-1.675T12 33.65q1 0 1.675.675T14.35 36q0 1-.675 1.675T12 38.35Zm24 0q-1 0-1.675-.675T33.65 36q0-1 .675-1.675T36 33.65q1 0 1.675.675T38.35 36q0 1-.675 1.675T36 38.35Zm-18 8q-1 0-1.675-.675T15.65 44q0-1 .675-1.675T18 41.65q1 0 1.675.675T20.35 44q0 1-.675 1.675T18 46.35Zm6-8q-1 0-1.675-.675T21.65 36q0-1 .675-1.675T24 33.65q1 0 1.675.675T26.35 36q0 1-.675 1.675T24 38.35Zm6 8q-1 0-1.675-.675T27.65 44q0-1 .675-1.675T30 41.65q1 0 1.675.675T32.35 44q0 1-.675 1.675T30 46.35Zm-6-36.3q-1 0-1.675-.675T21.65 7.7V3.2q0-1 .675-1.675T24 .85q1 0 1.675.675T26.35 3.2v4.5q0 1-.675 1.675T24 10.05Zm9.85 4.1q-.7-.7-.7-1.65t.7-1.65L37 7.65Q37.65 7 38.65 7q1 0 1.7.65.7.7.7 1.65t-.7 1.65l-3.2 3.2q-.7.7-1.65.7t-1.65-.7Zm6.45 12.2q-1 0-1.675-.675T37.95 24q0-1 .675-1.675t1.675-.675h4.5q1 0 1.675.675T47.15 24q0 1-.675 1.675t-1.675.675Zm-29.45-12.2L7.65 11q-.7-.65-.7-1.625t.7-1.725q.75-.7 1.675-.7t1.625.7l3.2 3.2q.75.75.75 1.7t-.75 1.65q-.65.65-1.65.65-1 0-1.65-.7ZM3.2 26.35q-1 0-1.675-.675T.85 24q0-1 .675-1.675T3.2 21.65h4.5q1 0 1.675.675T10.05 24q0 1-.675 1.675T7.7 26.35Z"/></svg>