<svg xmlns="http://www.w3.org/2000/svg" height="20" width="20"><path d="M5.542 18.75q-.834 0-1.417-.594-.583-.594-.583-1.406 0-.833.593-1.417.594-.583 1.407-.583.833 0 1.416.594.584.594.584 1.406 0 .833-.594 1.417-.594.583-1.406.583Zm8.791 0q-.833 0-1.416-.594-.584-.594-.584-1.406 0-.833.594-1.417.594-.583 1.406-.583.834 0 1.417.594.583.594.583 1.406 0 .833-.593 1.417-.594.583-1.407.583ZM10 8.354 8.396 6.75l1.042-1.021H6.354V3.438h3.084L8.417 2.417 10 .812l3.771 3.771ZM.042 3.333V1.042h3.229L7 8.854h5.917l3.354-6.125h2.646l-4.105 7.396q-.25.479-.718.771-.469.292-1.032.292H6.646l-.604 1.062h10.27v2.292H5.479q-1.104 0-1.656-.99-.552-.99-.031-1.948l1-1.916-2.959-6.355Z"/></svg>