<svg xmlns="http://www.w3.org/2000/svg" height="20" width="20"><path d="M14.271 11.729 7.25 4.708Q7.958 4.542 8.635 4.479Q9.312 4.417 10 4.417Q12.208 4.417 14.24 5.083Q16.271 5.75 17.958 7.104Q18.167 7.25 18.177 7.521Q18.188 7.792 18 7.979ZM16.792 17.688 12.5 13.417 10.479 15.479Q10.375 15.583 10.24 15.635Q10.104 15.688 10 15.708Q9.875 15.708 9.74 15.646Q9.604 15.583 9.521 15.5L2 7.979Q1.812 7.792 1.812 7.531Q1.812 7.271 2.021 7.104Q2.604 6.625 3.271 6.24Q3.938 5.854 4.604 5.521L2.229 3.146Q2.104 3.021 2.104 2.917Q2.104 2.812 2.25 2.667Q2.375 2.542 2.479 2.542Q2.583 2.542 2.729 2.667L17.271 17.229Q17.396 17.354 17.396 17.458Q17.396 17.562 17.271 17.688Q17.125 17.833 17.021 17.833Q16.917 17.833 16.792 17.688Z"/></svg>