<svg xmlns="http://www.w3.org/2000/svg" height="24" viewBox="0 -960 960 960" width="24"><path d="M480-800q-11 0-19.5-8.5T452-828q0-11 8.5-19.5T480-856q11 0 19.5 8.5T508-828q0 11-8.5 19.5T480-800Zm0 696q-11 0-19.5-8.5T452-132q0-11 8.5-19.5T480-160q11 0 19.5 8.5T508-132q0 11-8.5 19.5T480-104ZM208-668q-11 0-19.5-8.5T180-696q0-11 8.5-19.5T208-724q11 0 19.5 8.5T236-696q0 11-8.5 19.5T208-668Zm544 432q-11 0-19.5-8.5T724-264q0-11 8.5-19.5T752-292q11 0 19.5 8.5T780-264q0 11-8.5 19.5T752-236ZM141-373q-11 0-19.5-8.5T113-401q0-11 8.5-19.5T141-429q11 0 19.5 8.5T169-401q0 11-8.5 19.5T141-373Zm677-159q-11 0-19.5-8.5T790-560q0-11 8.5-19.5T818-588q11 0 19.5 8.5T846-560q0 11-8.5 19.5T818-532ZM324-140q-11 0-19.5-8.5T296-168q0-11 8.5-19.5T324-196q11 0 19.5 8.5T352-168q0 11-8.5 19.5T324-140Zm302-627q-11 0-19.5-8.5T598-795q0-11 8.5-19.5T626-823q11 0 19.5 8.5T654-795q0 11-8.5 19.5T626-767Zm10 626q-11 0-19.5-8.5T608-169q0-11 8.5-19.5T636-197q11 0 19.5 8.5T664-169q0 11-8.5 19.5T636-141ZM334-767q-11 0-19.5-8.5T306-795q0-11 8.5-19.5T334-823q11 0 19.5 8.5T362-795q0 11-8.5 19.5T334-767Zm485 394q-11 0-19.5-8.5T791-401q0-11 8.5-19.5T819-429q11 0 19.5 8.5T847-401q0 11-8.5 19.5T819-373ZM141-532q-11 0-19.5-8.5T113-560q0-11 8.5-19.5T141-588q11 0 19.5 8.5T169-560q0 11-8.5 19.5T141-532Zm611-136q-11 0-19.5-8.5T724-696q0-11 8.5-19.5T752-724q11 0 19.5 8.5T780-696q0 11-8.5 19.5T752-668ZM208-236q-11 0-19.5-8.5T180-264q0-11 8.5-19.5T208-292q11 0 19.5 8.5T236-264q0 11-8.5 19.5T208-236Zm311-30q-32 0-56-19.5T428-335q-5-11-9-20.5T407-373l-51-51q-23-23-36.5-52.3-13.5-29.31-13.5-62.06 0-64.64 45.03-110.14T460.4-694q44.6 0 81.77 23.46Q579.35-647.09 599-607q4 7-.36 14t-13.09 7q-4.55 0-7.72-2.44-3.16-2.44-4.83-6.56-16.35-32.96-46.53-51.98Q496.29-666 459.82-666q-52.82 0-89.32 36.43-36.5 36.43-36.5 89.19 0 26.38 9.5 50.4T372-447l55 53q11 11 18 26t12 30q7 20 24.5 32t38.9 12q18.1 0 33.74-9.17Q569.77-312.33 578-329q2-3 4.94-4 2.94-1 6.54-1 7.52 0 12.02 6.5t.5 13.5q-13 23-35.17 35.5Q544.67-266 519-266Zm20.88-160q14.12 0 24.12-9.88 10-9.88 10-24T564.12-484q-9.88-10-24-10T516-484.12q-10 9.88-10 24t9.88 24.12q9.88 10 24 10Z"/></svg>