<svg xmlns="http://www.w3.org/2000/svg" height="24" viewBox="0 -960 960 960" width="24"><path d="M148-172.62v-85.99h72.31v-300.47q0-88.69 54.81-158.69 54.8-70 140.88-92.31V-891h128v80.92q86.08 22.31 141.38 91.61 55.31 69.3 55.31 159.39v300.47H813v85.99H148Zm333-323.07Zm-1.04 447.38q-34.88 0-59.57-24.72-24.7-24.71-24.7-59.59h168.62q0 34.93-24.73 59.62-24.73 24.69-59.62 24.69Zm-173.65-210.3h348.38v-300.47q0-72.46-51.19-123.07-51.2-50.62-123.58-50.62t-123 50.62q-50.61 50.61-50.61 123.07v300.47ZM46.62-558.46q0-103.46 44.09-190.72 44.08-87.26 118.91-146.97l51.99 68.69q-59.41 47.66-94.2 117.18-34.79 69.53-34.79 151.82h-86Zm781.76 0q0-82.23-34.79-151.97t-94.2-117.42l51.99-68.3q74.83 59.74 118.91 147.03 44.09 87.29 44.09 190.66h-86Z"/></svg>