<svg xmlns="http://www.w3.org/2000/svg" height="48" viewBox="0 -960 960 960" width="48"><path d="M426-132q-21.75 0-37.87-16.13Q372-164.25 372-186v-32L257-448q-2-5-3.5-11.63-1.5-6.62-1.5-12.37v-138q0-21 11-36.5t29-21.5v-101q0-25 15.5-42t38.5-17h268q23 0 38.5 17t15.5 42v101q18 6 29 21.5t11 36.5v138q0 5.75-1.5 12.37Q705-453 703-448L588-218v32q0 21.75-16.12 37.87Q555.75-132 534-132H426ZM314-669h91v-75.35q0-4.45 4.04-8.55 4.05-4.1 10.1-4.1 4.86 0 8.86 4.1 4 4.1 4 8.55V-669h96v-75.35q0-4.45 4.04-8.55 4.05-4.1 10.1-4.1 4.86 0 8.86 4.1 4 4.1 4 8.55V-669h91v-100q0-16-9-26.5T614-806H346q-14 0-23 10.5t-9 26.5v100Zm112 515h108q14 0 23-9t9-23v-39l120-242v-148q0-14-9-23t-23-9H306q-14 0-23 9t-9 23v148l120 242v39q0 14 9 23t23 9Zm54-313Z"/></svg>