<svg xmlns="http://www.w3.org/2000/svg" height="24" viewBox="0 -960 960 960" width="24"><path d="M193.54-81.63q50.83 0 86.4-35.58 35.58-35.57 35.58-86.4v-1.74q0-17.73-12.67-30.25-12.68-12.51-30.39-12.51t-30.2 12.51q-12.5 12.52-12.5 30.25v1.74q0 14.97-10.62 25.59-10.63 10.63-25.6 10.63-14.96 0-25.34-10.63-10.37-10.62-10.37-25.59v-1.74q0-17.73-12.68-30.25-12.67-12.51-30.38-12.51T84.56-235.6q-12.5 12.52-12.5 30.25v1.74q0 50.83 35.44 86.4 35.43 35.58 86.04 35.58Zm285.96 0q50.82 0 86.4-35.58 35.58-35.57 35.58-86.4v-1.74q0-17.73-12.68-30.25-12.67-12.51-30.38-12.51t-30.21 12.51q-12.49 12.52-12.49 30.25v1.74q0 14.97-10.63 25.59-10.62 10.63-25.59 10.63t-25.34-10.63q-10.38-10.62-10.38-25.59v-1.74q0-17.73-12.67-30.25-12.68-12.51-30.39-12.51t-30.2 12.51q-12.5 12.52-12.5 30.25v1.74q0 50.83 35.43 86.4 35.43 35.58 86.05 35.58Zm286.46 0q50.82 0 86.4-35.58 35.58-35.57 35.58-86.4v-1.74q0-17.73-12.68-30.25-12.67-12.51-30.38-12.51t-30.21 12.51q-12.5 12.52-12.5 30.25v1.74q0 14.97-10.62 25.59-10.63 10.63-25.59 10.63-14.97 0-25.35-10.63-10.37-10.62-10.37-25.59v-1.74q0-17.73-12.67-30.25-12.68-12.51-30.39-12.51t-30.21 12.51q-12.49 12.52-12.49 30.25v1.74q0 50.83 35.43 86.4 35.43 35.58 86.05 35.58ZM158.07-313.78q-35.73 0-60.87-25.14t-25.14-60.86v-160.44q0-35.72 25.14-60.86t60.87-25.14h643.86q35.73 0 60.87 25.14t25.14 60.86v160.44q0 35.72-25.14 60.86t-60.87 25.14H158.07Zm-.24-85.76h644.34v-160.92H157.83v160.92Zm35.71-478.59q50.83 0 86.4 35.58 35.58 35.57 35.58 86.4v1.74q0 17.73-12.67 30.25-12.68 12.51-30.39 12.51t-30.2-12.68q-12.5-12.67-12.5-30.32v-1.5q0-14.97-10.62-25.59-10.63-10.63-25.6-10.63-14.96 0-25.34 10.63-10.37 10.62-10.37 25.59v1.74q0 17.73-12.68 30.25-12.67 12.51-30.38 12.51t-30.21-12.68q-12.5-12.67-12.5-30.32v-1.5q0-50.83 35.44-86.4 35.43-35.58 86.04-35.58Zm286.22 0q50.73 0 86.47 35.58 35.75 35.57 35.75 86.4v1.74q0 17.73-12.68 30.25-12.67 12.51-30.38 12.51t-30.21-12.68q-12.49-12.67-12.49-30.32v-1.5q0-14.97-10.63-25.59-10.62-10.63-25.59-10.63t-25.59 10.63q-10.63 10.62-10.63 25.59v1.74q0 17.73-12.67 30.25-12.68 12.51-30.39 12.51t-30.2-12.68q-12.5-12.67-12.5-30.32v-1.5q0-50.83 35.51-86.4 35.51-35.58 86.23-35.58Zm286.2 0q50.82 0 86.4 35.58 35.58 35.57 35.58 86.4v1.74q0 17.73-12.68 30.25-12.67 12.51-30.38 12.51t-30.21-12.68q-12.5-12.67-12.5-30.32v-1.5q0-14.97-10.62-25.59-10.63-10.63-25.59-10.63-14.97 0-25.35 10.63-10.37 10.62-10.37 25.59v1.74q0 17.73-12.67 30.25-12.68 12.51-30.39 12.51t-30.21-12.68q-12.49-12.67-12.49-30.32v-1.5q0-50.83 35.43-86.4 35.43-35.58 86.05-35.58ZM157.83-399.54v-160.92 160.92Z"/></svg>