<svg xmlns="http://www.w3.org/2000/svg" height="24" viewBox="0 -960 960 960" width="24"><path d="M480-479ZM447-55q-144-47-230.5-179.5T130-516v-193q0-33.45 19.24-60.2Q168.48-795.96 199-808l244-92q18-7 37-7t37 7l244 92q30.52 12.04 49.76 38.8Q830-742.45 830-709v183q0 22-15.5 37.5T777-473q-22 0-37.5-15.5T724-526v-183l-244-92-244 92.03v193.25Q236-392 305-291.5T480-156q21.16 6.57 31.08 26.29Q521-110 514-89t-26.5 31Q468-48 447-55Zm239-113h-67q-22 0-37.5-15.5T566-221q0-22 15.5-37.5T619-274h67v-67q0-22 15.5-37.5T739-394q22 0 37.5 15.5T792-341v67h67q22 0 37.5 15.5T912-221q0 22-15.5 37.5T859-168h-67v67q0 22-15.5 37.5T739-48q-22 0-37.5-15.5T686-101v-67ZM434-345h92.44q11.56 0 20.06-9.69 8.5-9.69 6.5-21.31l-19-105q20-14 30.5-34.5T575-560q0-39.19-27.87-67.09-27.86-27.91-67-27.91Q441-655 413-627.09q-28 27.9-28 67.09 0 24 10.5 44.5T426-481l-19 105q-2 11.62 6.42 21.31Q421.85-345 434-345Z"/></svg>