<svg xmlns="http://www.w3.org/2000/svg" height="40" viewBox="0 -960 960 960" width="40"><path d="M480-479.83ZM444.95-80.96q-134.19-47.8-214.48-173.62-80.3-125.83-80.3-265.94v-187.43q0-26.84 15.02-48.9t40.09-31.21l245.02-91.93q14.45-5.32 29.7-5.32t30.04 5.32l245.01 91.93q24.74 9.15 39.94 31.21 15.21 22.06 15.21 49.02v207.27q0 17.67-12.73 30.12-12.73 12.46-30.03 12.46-17.69 0-30.06-12.46-12.37-12.45-12.37-30.12v-207.39L480-799.93l-245.01 91.98v187.22q0 122.78 67.98 221.73 67.99 98.95 173.83 139.05 16.35 6.78 23.09 22.9 6.75 16.12.11 32.53-6.64 16.62-22.83 23.29-16.19 6.67-32.22.27Zm239.4-109.88h-77.43q-17.67 0-30.12-12.49-12.45-12.48-12.45-30.03t12.45-29.92q12.45-12.37 30.12-12.37h77.43v-77.76q0-17.29 12.48-29.76 12.49-12.48 30.01-12.48 17.51 0 30.11 12.48 12.59 12.47 12.59 29.76v77.76h77.38q17.24 0 29.93 12.51 12.69 12.51 12.69 29.84 0 17.72-12.69 30.09-12.69 12.37-29.93 12.37h-77.38v77.43q0 17.66-12.74 30.12-12.73 12.45-30.03 12.45-17.68 0-30.05-12.45-12.37-12.46-12.37-30.12v-77.43Zm-232.6-168.73h56.97q10.02 0 16.49-7.89 6.47-7.9 4.47-17.49l-19.75-114.83q19.84-10.48 31.84-28 12-17.53 12-38.89 0-31.13-21.33-52.45-21.34-21.32-52.5-21.32t-52.43 21.32q-21.28 21.32-21.28 52.45 0 21.36 12 38.89 12 17.52 32.17 28.06l-19.7 114.77q-2.38 9.64 4.2 17.51 6.58 7.87 16.85 7.87Z"/></svg>