<svg xmlns="http://www.w3.org/2000/svg" height="40" width="40"><path d="M5.042 35.75V4.25h18.416v31.5Zm1.75-15.375q.583-.625 1.375-1Q8.958 19 9.917 19h8.666q.959 0 1.75.375.792.375 1.375 1V5.958H6.792Zm7.458-5.292q-1.125 0-1.833-.708-.709-.708-.709-1.792 0-1.083.73-1.812.729-.729 1.812-.729 1.125 0 1.833.729.709.729.709 1.812 0 1.084-.73 1.792-.729.708-1.812.708Zm17.375 10.875-1.25-1.166 3.042-3.042h-6.625V20h6.625l-3.042-3 1.25-1.167 5.083 5.042ZM13.375 31h1.75v-2.75h2.75V26.5h-2.75v-2.75h-1.75v2.75h-2.75v1.75h2.75Z"/></svg>