<svg xmlns="http://www.w3.org/2000/svg" height="48" width="48"><path d="M15.45 35.2q1.1 0 1.85-.8t.75-1.85q0-1.1-.775-1.85t-1.825-.75q-1.1 0-1.875.775-.775.775-.775 1.825 0 1.1.8 1.875.8.775 1.85.775Zm0-17.15q1.1 0 1.85-.775t.75-1.825q0-1.1-.775-1.875-.775-.775-1.825-.775-1.1 0-1.875.8-.775.8-.775 1.85 0 1.1.8 1.85t1.85.75ZM24 26.6q1.1 0 1.85-.75T26.6 24q0-1.1-.75-1.85T24 21.4q-1.1 0-1.85.75T21.4 24q0 1.1.75 1.85t1.85.75Zm8.55 8.6q1.15 0 1.9-.8t.75-1.85q0-1.1-.775-1.85t-1.825-.75q-1.15 0-1.9.775t-.75 1.825q0 1.1.75 1.875.75.775 1.85.775Zm0-17.15q1.1 0 1.875-.775.775-.775.775-1.825 0-1.1-.8-1.875-.8-.775-1.85-.775-1.1 0-1.85.8t-.75 1.85q0 1.1.775 1.85t1.825.75ZM9.25 42.9q-1.65 0-2.9-1.25t-1.25-2.9V9.25q0-1.7 1.25-2.95 1.25-1.25 2.9-1.25h29.5q1.7 0 2.95 1.25 1.25 1.25 1.25 2.95v29.5q0 1.65-1.25 2.9t-2.95 1.25Zm0-4.15h29.5V9.25H9.25v29.5Zm0-29.5v29.5-29.5Z"/></svg>