<svg xmlns="http://www.w3.org/2000/svg" height="48" viewBox="0 -960 960 960" width="48"><path d="m357-562.81 84.37-83.99q6.44-6.43 15.69-6.18 9.26.25 16.59 6.83 6.77 6.57 6.68 16.15-.1 9.58-6.68 16.15l-95.53 96.16q-8.61 8.11-20.02 8.02-11.41-.1-19.61-8.02l-51.58-50.16q-7.02-6.27-7.02-15.79t6.96-16.92q6.96-6.86 16.13-6.86 9.17 0 16.67 6.77L357-562.81Zm23.12 218.89q-101.15 0-171.08-69.95-69.92-69.95-69.92-169.46 0-99.52 69.57-169.48 69.56-69.96 169.68-69.96 100.11 0 170.04 69.97 69.94 69.96 69.94 169.51 0 41.67-14.58 81.33-14.58 39.65-41.31 72.03l243.23 241.07q5.89 5.92 6.08 15.79.19 9.88-6.54 16.57-6.73 6.69-16.57 6.69t-15.65-6.75L531-398.81q-29.58 26.92-69.53 40.9-39.96 13.99-81.35 13.99Zm-.77-43.85q81.45 0 138.3-56.79 56.85-56.8 56.85-138.87 0-82.07-56.85-138.78Q460.8-778.92 379-778.92q-82.31 0-139.18 56.79-56.86 56.79-56.86 138.87 0 82.07 56.92 138.78 56.92 56.71 139.47 56.71Z"/></svg>