<svg xmlns="http://www.w3.org/2000/svg" height="40" width="40"><path d="m14.875 16.5 3.458-3.5q.292-.25.688-.25.396 0 .771.292.25.291.25.708t-.25.708l-4.042 4.084q-.375.375-.854.375t-.854-.375l-2.167-2.167q-.292-.292-.271-.687.021-.396.313-.73.291-.291.708-.291t.75.291Zm18.75 17q-.333.375-.75.375t-.75-.375l-9.875-9.833Q21 24.75 19.229 25.312q-1.771.563-3.437.563-4.292 0-7.23-2.937Q5.625 20 5.625 15.708q0-4.25 2.937-7.208Q11.5 5.542 15.75 5.542t7.229 2.937q2.979 2.938 2.979 7.229 0 1.75-.583 3.438-.583 1.687-1.667 2.979L33.625 32q.167.125.146.417-.021.291-.063.562-.041.271-.104.438-.062.166.021.083Zm-17.833-9.75q3.375 0 5.708-2.312 2.333-2.313 2.333-5.73 0-3.416-2.333-5.729-2.333-2.312-5.708-2.312-3.417 0-5.73 2.312-2.312 2.313-2.312 5.729 0 3.417 2.312 5.73 2.313 2.312 5.73 2.312Z"/></svg>