<svg xmlns="http://www.w3.org/2000/svg" height="40" viewBox="0 -960 960 960" width="40"><path d="M368-592v449.33h286.67v-121q0-17.18 12.25-29.42 12.25-12.24 30.08-12.24h120.33V-592H368Zm225 224.33Zm-309 225V-592q0-35.04 24.17-59.52Q332.33-676 368-676h449.33q35.5 0 59.75 24.25T901.33-592v292.67q0 17.4-6.75 33.16-6.75 15.77-18.25 27.17L721-83.67q-11.42 11.55-26.97 18.28-15.54 6.72-32.7 6.72H368q-35.5 0-59.75-24.25T284-142.67ZM60.67-724Q54-758.67 74.16-786.7q20.15-28.03 54.51-33.97L571-899.33q33.67-6 61.5 14.16Q660.33-865 668-831.33l7.67 41.66q4 19.88-6.67 32.61t-26.67 15.39q-16 2.67-30-5-14-7.66-18-28.33l-7.66-41.67-443.34 77.34 69 390q2.67 16-5.83 29.5T182.67-302q-18.34 5.33-33.83-4.67-15.49-10-18.51-28L60.67-724Z"/></svg>