<svg xmlns="http://www.w3.org/2000/svg" height="48" width="48"><path d="M26.6 17.55q-.25 0-.4-.15-.15-.15-.15-.4t.15-.4q.15-.15.4-.15h14.3q.25 0 .4.15.15.15.15.4t-.15.4q-.15.15-.4.15Zm0 14q-.25 0-.4-.15-.15-.15-.15-.4t.15-.4q.15-.15.4-.15h14.3q.25 0 .4.15.15.15.15.4t-.15.4q-.15.15-.4.15ZM10.9 20l-3.95-3.95q-.15-.15-.125-.375.025-.225.175-.375t.375-.15q.225 0 .375.15l4.05 4.1 8.25-8.25q.15-.1.4-.125.25-.025.4.125.15.2.15.425 0 .225-.15.375L12.8 20q-.4.4-.95.4-.55 0-.95-.4Zm0 14-3.95-3.95q-.15-.15-.125-.375.025-.225.175-.375t.375-.15q.225 0 .375.15l4.05 4.1 8.25-8.25q.15-.1.4-.125.25-.025.4.125.15.2.15.425 0 .225-.15.375L12.8 34q-.4.4-.95.4-.55 0-.95-.4Z"/></svg>