<svg xmlns="http://www.w3.org/2000/svg" height="40" width="40"><path d="M20.125 27.75q3.292 0 5.563-2.292 2.27-2.291 2.27-5.541 0-3.292-2.291-5.563-2.292-2.271-5.542-2.271t-5.542 2.292q-2.291 2.292-2.291 5.542t2.291 5.541q2.292 2.292 5.542 2.292Zm0-6.167q-.708 0-1.187-.479-.48-.479-.48-1.187 0-.709.48-1.188.479-.479 1.187-.479.708 0 1.187.479.48.479.48 1.188 0 .708-.48 1.187-.479.479-1.187.479Zm0 15.959q-3.625 0-6.875-1.396t-5.625-3.771Q5.25 30 3.875 26.771T2.5 19.917q0-3.625 1.375-6.854 1.375-3.23 3.771-5.625 2.396-2.396 5.625-3.792t6.854-1.396q5.542 0 10.042 3.146t6.583 8.271h-4.167q-1.875-3.542-5.187-5.605Q24.083 6 20.125 6q-5.75 0-9.833 4.083-4.084 4.084-4.084 9.834t4.084 9.833q4.083 4.083 9.833 4.083 3.042 0 6.021-1.479t4.812-3.562v4.916q-2.333 1.917-5.104 2.875-2.771.959-5.729.959Zm13.625-7.167V16.458h3.583v13.917Zm1.875 7.042q-.75 0-1.292-.521-.541-.521-.541-1.313 0-.791.52-1.333.521-.542 1.313-.542.792 0 1.333.521.542.521.542 1.313 0 .791-.542 1.333-.541.542-1.333.542Zm-15.792-17.75Z"/></svg>