<svg xmlns="http://www.w3.org/2000/svg" height="24" width="24"><path d="M6.075 19.7V20.2Q6.075 20.85 5.613 21.275Q5.15 21.7 4.475 21.7H3.825Q3.2 21.7 2.725 21.25Q2.25 20.8 2.25 20.175V11.875L4.45 5.675Q4.65 5.05 5.2 4.675Q5.75 4.3 6.4 4.3H17.6Q18.25 4.3 18.8 4.675Q19.35 5.05 19.55 5.675L21.75 11.875V20.175Q21.75 20.8 21.275 21.25Q20.8 21.7 20.175 21.7H19.525Q18.85 21.7 18.388 21.275Q17.925 20.85 17.925 20.2V19.7ZM5.95 9.8H18.05L17.1 7.1H6.9ZM5.075 11.975V16.9ZM7.55 15.975Q8.2 15.975 8.663 15.512Q9.125 15.05 9.125 14.425Q9.125 13.775 8.663 13.312Q8.2 12.85 7.55 12.85Q6.925 12.85 6.463 13.312Q6 13.775 6 14.425Q6 15.05 6.463 15.512Q6.925 15.975 7.55 15.975ZM16.45 15.975Q17.075 15.975 17.538 15.512Q18 15.05 18 14.425Q18 13.775 17.538 13.312Q17.075 12.85 16.45 12.85Q15.8 12.85 15.338 13.312Q14.875 13.775 14.875 14.425Q14.875 15.05 15.338 15.512Q15.8 15.975 16.45 15.975ZM5.075 16.9H18.925V11.975H5.075Z"/></svg>