<svg xmlns="http://www.w3.org/2000/svg" height="40" width="40"><path d="M4.625 35.917Q2.958 35.917 1.792 34.729Q0.625 33.542 0.625 31.875V16.375Q0.625 15.542 1.208 14.938Q1.792 14.333 2.625 14.333Q3.417 14.333 4.021 14.938Q4.625 15.542 4.625 16.375V17.667H7.708V6.083Q7.708 5.292 8.292 4.667Q8.875 4.042 9.708 4.042Q10.542 4.042 11.146 4.667Q11.75 5.292 11.75 6.083V7.375H14.5V6.083Q14.5 5.292 15.104 4.667Q15.708 4.042 16.5 4.042Q17.333 4.042 17.938 4.667Q18.542 5.292 18.542 6.083V7.375H21.5V6.083Q21.5 5.292 22.083 4.667Q22.667 4.042 23.5 4.042Q24.333 4.042 24.917 4.667Q25.5 5.292 25.5 6.083V7.375H28.292V6.083Q28.292 5.292 28.875 4.667Q29.458 4.042 30.292 4.042Q31.125 4.042 31.729 4.667Q32.333 5.292 32.333 6.083V17.667H35.417V16.375Q35.417 15.542 36 14.938Q36.583 14.333 37.375 14.333Q38.208 14.333 38.812 14.938Q39.417 15.542 39.417 16.375V31.875Q39.417 33.542 38.229 34.729Q37.042 35.917 35.417 35.917H23V30Q23 28.75 22.125 27.875Q21.25 27 20 27Q18.792 27 17.917 27.875Q17.042 28.75 17.042 30V35.917ZM14.958 19.875H18.083V14.833H14.958ZM21.958 19.875H25.083V14.833H21.958Z"/></svg>