<svg xmlns="http://www.w3.org/2000/svg" height="48" width="48"><path d="M11.6 20.9h10.75v-3.65H11.6ZM6.45 40.8Q5 40.8 3.9 39.7q-1.1-1.1-1.1-2.55v-26.3q0-1.45 1.1-2.55Q5 7.2 6.45 7.2h35.1q1.5 0 2.6 1.1t1.1 2.6v.95q-.95-.45-1.975-.725-1.025-.275-2.075-.275-3.7 0-6.275 2.575T32.35 19.7q0 1.65.6 3.1.6 1.45 1.75 2.55H23.35v1.8H11.6v3.65h11.75v2.55q-1.85 1.25-2.85 3.225T19.4 40.8Zm21.75 2.05q.9 0 1.525-.625.625-.625.625-1.525 0-.9-.625-1.55T28.2 38.5q-.9 0-1.55.65T26 40.7q0 .9.65 1.525.65.625 1.55.625Zm13-21q.9 0 1.525-.625.625-.625.625-1.525 0-.9-.625-1.55T41.2 17.5q-.9 0-1.55.65T39 19.7q0 .9.65 1.525.65.625 1.55.625Zm-13 24.65q-2.45 0-4.15-1.675-1.7-1.675-1.7-4.125 0-2 1.125-3.475t2.875-2.075v-6.8h13V25.2q-1.75-.55-2.875-2.025Q35.35 21.7 35.35 19.7q0-2.45 1.7-4.15 1.7-1.7 4.15-1.7 2.4 0 4.1 1.7 1.7 1.7 1.7 4.15 0 2-1.125 3.475T43 25.2V32H30v3.15q1.75.6 2.875 2.075T34 40.7q0 2.45-1.675 4.125Q30.65 46.5 28.2 46.5Z"/></svg>