<svg xmlns="http://www.w3.org/2000/svg" height="20" viewBox="0 -960 960 960" width="20"><path d="M467.5-745.5q0 4.5-2 9.5t-5.5 8.5l-71 71q-8.53 8.5-19.91 8.5T349-656.5q-8.5-8.29-8.5-19t8.5-19l23.5-23.5h-86q-11.92 0-19.71-7.81-7.79-7.81-7.79-19.75 0-11.94 7.79-19.69 7.79-7.75 19.71-7.75h86L350-796.5q-8.5-8.29-8.5-19t8.5-19q8.5-8.5 19.59-8.5t19.41 8.5l71 71q3.5 3.5 5.5 8.5t2 9.5Zm-253 349q-4.5 0-9.5-2t-8.5-5.5l-71-71q-8.5-8.32-8.5-19.41t8.5-19.59q8.5-8.5 19-9t19 8l23.5 23.5v-86q0-11.92 7.81-19.71 7.81-7.79 19.75-7.79 11.94 0 19.69 7.79 7.75 7.79 7.75 19.71v86l23.5-22.5q8.5-8.5 19-9t19 8.18q8.5 8.67 8.5 20T303.5-475l-71 71q-3.5 3.5-8.5 5.5t-9.5 2ZM662.29-669q-33.29 0-56.79-23.71t-23.5-57q0-33.29 23.71-56.79t57-23.5q33.29 0 56.79 23.71t23.5 57q0 33.29-23.71 56.79t-57 23.5ZM265-122.5q-12.5-8-16-21t4.5-25.5l88.8-149.56q9.6-16.04 25-24.74t33.2-8.7H515l49-209.5q7.44-27.3 29.42-44.65 21.99-17.35 50.24-17.35 39.87 0 64.86 30.64Q733.5-562.21 723.5-523L673-315q-6 23.5-23.79 37.75Q631.43-263 608.5-263h-221L311-134q-8 12-21 15.5t-25-4ZM449-106q-18.75 0-31.87-13.13Q404-132.25 404-151t13.13-31.88Q430.25-196 449-196h228.26q14.74 0 26.74 3 12 3 21.5 8v-40.5q0-61 15.25-119t44.75-115l18.5-36q11.5-21.5 8.15-45.32-3.35-23.81-19.65-41.68-8-8-11.25-16.04-3.25-8.03-3.25-18.52 0-19.94 14.35-33.19 14.35-13.25 33.77-13.25 16.88 0 31.08 8.79t21.95 23.85q11.19 21.76 16.77 45.14 5.58 23.39 5.58 47.72 0 14-1.39 27.02-1.39 13.01-5.11 26.48l-88 327q-7 22-24.92 36.75Q764.15-106 741-106H449Z"/></svg>