<svg xmlns="http://www.w3.org/2000/svg" height="48" width="48"><path d="M2 36.05q.4-5.3 3.25-9.825Q8.1 21.7 12.8 19.05L9.05 12.6q-.15-.45-.025-.9t.525-.7q.45-.25.975-.1.525.15.775.6l3.7 6.35Q19.3 16 24 16t9 1.85l3.75-6.35q.25-.45.775-.6.525-.15.975.1.4.25.575.725.175.475-.075.875l-3.8 6.45q4.7 2.65 7.55 7.175Q45.6 30.75 46 36.05Zm12-5.5q1 0 1.75-.75t.75-1.75q0-1-.75-1.75T14 25.55q-1 0-1.75.75t-.75 1.75q0 1 .75 1.75t1.75.75Zm20 0q1 0 1.75-.75t.75-1.75q0-1-.75-1.75T34 25.55q-1 0-1.75.75t-.75 1.75q0 1 .75 1.75t1.75.75Z"/></svg>