<svg xmlns="http://www.w3.org/2000/svg" height="40" viewBox="0 -960 960 960" width="40"><path d="M480-519.03q34.13 0 58.19-24.06 24.07-24.06 24.07-58.53t-24.07-58.45q-24.06-23.98-58.19-23.98-34.13 0-58.19 23.98-24.07 23.98-24.07 58.45t24.07 58.53q24.06 24.06 58.19 24.06ZM340.72-160v-33.85h122.36v-157.43q-53.11-4.08-97.27-43.43-44.17-39.34-52.89-92.06-63.3-7.31-108.11-50.42Q160-580.31 160-642.26v-75.48h147.28V-800h345.44v82.26H800v75.48q0 61.95-44.81 105.07-44.81 43.11-108.11 50.42-8.72 52.72-52.89 92.06-44.16 39.35-97.27 43.43v157.43h122.36V-160H340.72Zm-33.44-362.56V-683.9H193.85v41.64q0 47.29 32.89 81.07 32.9 33.78 80.54 38.63Zm172.9 137.69q57.52 0 97.34-40.13 39.81-40.13 39.81-97.36v-243.79H342.67v243.79q0 57.23 39.99 97.36 40 40.13 97.52 40.13Zm172.54-137.69q47.64-4.85 80.54-38.63 32.89-33.78 32.89-81.07v-41.64H652.72v161.34ZM480-575.59Z"/></svg>