<svg xmlns="http://www.w3.org/2000/svg" height="20" viewBox="0 -960 960 960" width="20"><path d="M552-384h96q10.4 0 17.2 6.8 6.8 6.8 6.8 17.2 0 10.4-6.8 17.2-6.8 6.8-17.2 6.8h-96q-10.4 0-17.2-6.8-6.8-6.8-6.8-17.2 0-10.4 6.8-17.2 6.8-6.8 17.2-6.8Zm24 216v-24h-23.72Q542-192 535-198.8q-7-6.8-7-17.2 0-10.4 6.8-17.2 6.8-6.8 17.2-6.8h24v-24q0-10.4 6.8-17.2 6.8-6.8 17.2-6.8 10.4 0 17.2 6.8 6.8 6.8 6.8 17.2v96q0 10.4-6.8 17.2-6.8 6.8-17.2 6.8-10.4 0-17.2-6.8-6.8-6.8-6.8-17.2Zm120-72h96q10.4 0 17.2 6.8 6.8 6.8 6.8 17.2 0 10.4-6.8 17.2-6.8 6.8-17.2 6.8h-96q-10.4 0-17.2-6.8-6.8-6.8-6.8-17.2 0-10.4 6.8-17.2 6.8-6.8 17.2-6.8Zm24-72v-96q0-10.4 6.8-17.2 6.8-6.8 17.2-6.8 10.4 0 17.2 6.8 6.8 6.8 6.8 17.2v24h23.72q10.28 0 17.28 6.8 7 6.8 7 17.2 0 10.4-6.8 17.2-6.8 6.8-17.2 6.8h-24v24q0 10.4-6.8 17.2-6.8 6.8-17.2 6.8-10.4 0-17.2-6.8-6.8-6.8-6.8-17.2ZM479-744q-109 0-186 77t-77 186q0 62 25.5 115t70.5 89v-23q0-15.3 10.29-25.65Q332.58-336 347.79-336t25.71 10.35Q384-315.3 384-300v120q0 15.3-10.35 25.65Q363.3-144 348-144H228q-15.3 0-25.65-10.29Q192-164.58 192-179.79t10.35-25.71Q212.7-216 228-216h44q-59-46-93.5-114.72Q144-399.43 144-480q0-69 26.7-130.36 26.7-61.37 72.14-106.8 45.43-45.44 106.8-72.14Q411-816 480-816q60 0 128.45 35.24Q676.9-745.52 791-608q10 11.26 3.5 25.63T771.03-561q-13.97 6-28 0T724-581q-18-62-85.84-112.5T479-744Z"/></svg>