<svg xmlns="http://www.w3.org/2000/svg" enable-background="new 0 0 20 20" height="20" viewBox="0 0 20 20" width="20"><rect fill="none" height="20" width="20" y="0"/><path d="M6.22,7.28L4.5,6.5l1.72-0.78L7,4l0.78,1.72L9.5,6.5L7.78,7.28L7,9L6.22,7.28z M7,17l0.78-1.72L9.5,14.5l-1.72-0.78L7,12 l-0.78,1.72L4.5,14.5l1.72,0.78L7,17z M4.5,12l0.47-1.03L6,10.5l-1.03-0.47L4.5,9l-0.47,1.03L3,10.5l1.03,0.47L4.5,12z M15.5,16.85 c0,0.56-0.6,0.92-1.09,0.65C11.78,16.03,10,13.21,10,10c0-2.2,0.83-4.24,2.2-5.8l-1.35-1.35C10.54,2.54,10.76,2,11.21,2H15 c0.28,0,0.5,0.22,0.5,0.5v3.79c0,0.45-0.54,0.67-0.85,0.35l-1.38-1.38C12.17,6.55,11.5,8.21,11.5,10c0,2.65,1.46,4.96,3.61,6.16 C15.35,16.3,15.5,16.56,15.5,16.85z"/></svg>