<svg xmlns="http://www.w3.org/2000/svg" height="40" viewBox="0 -960 960 960" width="40"><path d="M892.17-577.5q-64.92 0-124.05-24.25Q709-626 664-672.61q-46.5-45.11-70.75-104.25T569-900.67h24q0 60.17 22.61 115.06t65.08 96.5q41.64 42.44 96.5 65.19 54.85 22.75 114.98 22.75v23.67Zm0-192.5q-26.84 0-50.41-9.66-23.57-9.67-42.06-28.19-18.23-18.78-28.22-42.38-9.98-23.6-9.98-50.44h24.83q0 21.67 7.92 41.55 7.93 19.87 22.25 34.12 14.25 15.06 34.12 23.2 19.88 8.13 41.55 8.13V-770ZM405.08-491.5q-44.3 0-74.52-30.2-30.23-30.2-30.23-75.3 0-44.22 30.2-74.53 30.2-30.3 74.97-30.3 43.88 0 74.52 30.3 30.65 30.31 30.65 74.95 0 44.63-30.65 74.85-30.64 30.23-74.94 30.23ZM139-213.83v-47.5q0-25.76 12.98-42.78t37.13-28.65q48.06-22.57 106.97-36.66 58.92-14.08 109-14.08 50.09 0 108.67 14.01 58.59 14.02 107.97 36.71 23.45 11.95 36.86 28.82Q672-287.09 672-261.33v47.5H139ZM162.17-237h486.66v-24.33q0-19.01-11.58-30.76-11.58-11.74-27.58-20.41-39.84-21.17-96.81-34.5-56.97-13.33-107.52-13.33-50.82 0-107.83 13.33T201-312.5q-16.5 8-27.67 20.31-11.16 12.31-11.16 30.86V-237Zm242.91-277.67q34.75 0 58.59-23.41 23.83-23.42 23.83-58.17t-23.83-58.58q-23.84-23.84-58.17-23.84-35.17 0-58.58 23.84Q323.5-631 323.5-596.67q0 35.17 23.42 58.59 23.41 23.41 58.16 23.41Zm.42-82Zm0 359.67Z"/></svg>