<svg xmlns="http://www.w3.org/2000/svg" height="20" width="20"><path d="M18.75 8.062q-1.396 0-2.677-.541-1.281-.542-2.261-1.5-.958-.959-1.5-2.24-.541-1.281-.541-2.656h.917q0 1.187.447 2.292.448 1.104 1.323 1.958.854.833 1.969 1.281 1.115.448 2.323.448Zm0-3.708q-.667 0-1.26-.25-.594-.25-1.032-.687-.437-.459-.698-1.052-.26-.594-.26-1.24h.938q0 .437.177.854t.489.729q.334.334.771.5.437.167.875.167ZM8.479 9.979q-1.083 0-1.791-.708-.709-.709-.709-1.792 0-1.083.709-1.791.708-.709 1.791-.709 1.063 0 1.781.709.719.708.719 1.791t-.719 1.792q-.718.708-1.781.708Zm-5.896 6.042v-1.438q0-.541.292-.968.292-.427.833-.657Q4.729 12.5 6 12.177t2.479-.323q1.188 0 2.469.323t2.302.781q.542.23.833.657.292.427.292.968v1.438Z"/></svg>