<svg xmlns="http://www.w3.org/2000/svg" height="48" viewBox="0 -960 960 960" width="48"><path d="M176.76-253.52q-16.24 0-24.86-12.74-8.62-12.74-3.62-27.98l108.76-300L63.11-789.17q-10.76-9.76-10.76-24.53 0-14.76 10.76-25.52 9.76-10 25.26-9.76 15.5.24 26.26 9.76l726.59 725.83q9.76 10.76 9.38 26.14-.38 15.38-10.38 25.14-10.76 10.76-25.52 10.76-14.77 0-24.53-10.76L483.43-369.09l27.05 74.85q5 15.24-4.12 27.98-9.12 12.74-25.6 12.74-8.76 0-17-5.12T452.28-274l-33.52-95.52H239.24L205.48-274q-4.48 9.24-11.98 14.86-7.5 5.62-16.74 5.62Zm124-296.76-43.52 125.56h143.04l-15.52-41.8-84-83.76Zm430.2 243.08q17.52-13 29.66-34.02 12.14-21.02 12.14-49.02-13.52-6.76-33.16-10.64-19.64-3.88-40.64-3.88-16.29 0-30.29 3.38T644.63-393l-38.96-38.72q16.76-9 37.26-14 20.5-5 44.03-5 25.76 0 48.4 4.62Q758-441.48 773-432.72v-22.48q0-33.52-20.52-52.02t-55.57-18.5q-16.52 0-32.66 4.76-16.14 4.76-30.9 14.05-9.24 5-19.48 3.24-10.24-1.76-16.48-10-7-7.76-6.24-18.26.76-10.5 9.52-16.5 23-15 48.12-21.86 25.12-6.86 53.12-6.86 59.52 0 93.79 32.74 34.26 32.74 34.26 90.98v198.84q0 13.48-12.72 17.84-12.72 4.36-21.2-4.36l-65.08-66.09Z"/></svg>