<svg xmlns="http://www.w3.org/2000/svg" version="1.1" width="3300" height="2000"><g id="Notes"><style>
    text {
      font-family: monospace;
      text-anchor: middle;
    }
    text.emphasis {
      font-weight:bold;
    }
    text.lanchor {
      text-anchor: start;
    }
  </style><rect height="2200" id="artboard" fill="white" width="3300" x="0" y="0"/><line id="" style="fill:none;stroke:black;stroke-width:0.5;" x1="263" x2="3036" y1="292" y2="292"/><text class="lanchor emphasis" transform="matrix(1 0 0 1 263 322)">Weight/Scale Variations</text><text transform="matrix(1 0 0 1 559.711 322)">Ultralight</text><text transform="matrix(1 0 0 1 856.422 322)">Thin</text><text transform="matrix(1 0 0 1 1153.13 322)">Light</text><text transform="matrix(1 0 0 1 1449.84 322)">Regular</text><text transform="matrix(1 0 0 1 1746.56 322)">Medium</text><text transform="matrix(1 0 0 1 2043.27 322)">Semibold</text><text transform="matrix(1 0 0 1 2339.98 322)">Bold</text><text transform="matrix(1 0 0 1 2636.69 322)">Heavy</text><text transform="matrix(1 0 0 1 2933.4 322)">Black</text><text id="template-version" style="text-anchor: end;" transform="matrix(1 0 0 1 3036 1933)">Template v.1.0</text><text class="lanchor" transform="matrix(1 0 0 1 263 726)">Small</text><text class="lanchor" transform="matrix(1 0 0 1 263 1156)">Medium</text><text class="lanchor" transform="matrix(1 0 0 1 263 1586)">Large</text></g><g id="Guides"><g id="H-reference" style="fill:#27AAE1;stroke:none;" transform="matrix(1 0 0 1 339 696)"><path d="M 54.9316 0 L 57.666 0 L 30.5664 -70.459 L 28.0762 -70.459 L 0.976562 0 L 3.66211 0 L 12.9395 -24.4629 L 45.7031 -24.4629 Z M 29.1992 -67.0898 L 29.4434 -67.0898 L 44.8242 -26.709 L 13.8184 -26.709 Z"/></g><line id="Baseline-S" style="fill:none;stroke:#27AAE1;opacity:1;stroke-width:0.577;" x1="263" x2="3036" y1="696" y2="696"/><line id="Capline-S" style="fill:none;stroke:#27AAE1;opacity:1;stroke-width:0.577;" x1="263" x2="3036" y1="625.541" y2="625.541"/><g id="H-reference" style="fill:#27AAE1;stroke:none;" transform="matrix(1 0 0 1 339 1126)"><path d="M 54.9316 0 L 57.666 0 L 30.5664 -70.459 L 28.0762 -70.459 L 0.976562 0 L 3.66211 0 L 12.9395 -24.4629 L 45.7031 -24.4629 Z M 29.1992 -67.0898 L 29.4434 -67.0898 L 44.8242 -26.709 L 13.8184 -26.709 Z"/></g><line id="Baseline-M" style="fill:none;stroke:#27AAE1;opacity:1;stroke-width:0.577;" x1="263" x2="3036" y1="1126" y2="1126"/><line id="Capline-M" style="fill:none;stroke:#27AAE1;opacity:1;stroke-width:0.577;" x1="263" x2="3036" y1="1055.54" y2="1055.54"/><g id="H-reference" style="fill:#27AAE1;stroke:none;" transform="matrix(1 0 0 1 339 1556)"><path d="M 54.9316 0 L 57.666 0 L 30.5664 -70.459 L 28.0762 -70.459 L 0.976562 0 L 3.66211 0 L 12.9395 -24.4629 L 45.7031 -24.4629 Z M 29.1992 -67.0898 L 29.4434 -67.0898 L 44.8242 -26.709 L 13.8184 -26.709 Z"/></g><line id="Baseline-L" style="fill:none;stroke:#27AAE1;opacity:1;stroke-width:0.577;" x1="263" x2="3036" y1="1556" y2="1556"/><line id="Capline-L" style="fill:none;stroke:#27AAE1;opacity:1;stroke-width:0.577;" x1="263" x2="3036" y1="1485.54" y2="1485.54"/><rect height="119.336" id="left-margin" style="fill:darkred;stroke:none;opacity:0.4;" width="12.4512" x="1394.06" y="1030.79"/><rect height="119.336" id="right-margin" style="fill:darkgreen;stroke:none;opacity:0.4;" width="12.4512" x="1502.5112" y="1030.79"/><rect x="1406.5112" y="1045" width="96" height="96" fill="none" stroke="blue" stroke-dasharray="5"/><rect x="1394.06" y="1030.79" width="120.9024" height="119.336" fill="none" stroke="blue"/></g><g id="Symbols"><g id="Bold-L" transform="matrix(1 0 0 1 2266 1556)"><path d="M10.481250000000001 33.462500000000006 V18.78875000000002 H36.28125 V2.502500000000012 H16.931250000000002 V-95.86 H73.69125000000001 V-71.0275 H52.40625 Q51.43875 -71.0275 50.79375 -70.301875 Q50.14875000000001 -69.57624999999999 50.14875000000001 -68.60874999999999 Q50.14875000000001 -67.64125 50.79375 -66.99625 Q51.43875 -66.35125 52.40625 -66.35125 H73.69125000000001 V-63.9325 Q73.69125000000001 -62.964999999999996 74.4975 -59.09499999999999 H52.40625 Q51.43875 -59.09499999999999 50.79375 -58.369375 Q50.14875000000001 -57.64374999999999 50.14875000000001 -56.67624999999999 Q50.14875000000001 -55.70875 50.79375 -55.06374999999999 Q51.43875 -54.41874999999999 52.40625 -54.41874999999999 H78.20625 Q80.9475 -51.51625 84.898125 -49.500625 Q88.84875000000001 -47.485 93.04125 -46.35624999999999 L124.64625 -36.84249999999999 V2.502500000000012 H106.26375000000002 V18.78875000000002 H117.7125 Q126.25874999999999 18.78875000000002 131.09625 13.951250000000002 Q135.93375 9.11375000000001 135.93375 0.5675000000000097 H150.93 Q150.93 15.241250000000008 141.65812499999998 24.351875000000007 Q132.38625 33.462500000000006 117.7125 33.462500000000006 H10.481250000000001 Z M50.955000000000005 18.78875000000002 H91.42875000000001 V2.502500000000012 H50.955000000000005 V18.78875000000002 Z"/></g><g id="Semibold-L" transform="matrix(1 0 0 1 1970.27 1556)"><path d="M11.610000000000001 31.527500000000032 V19.272500000000008 H37.41 V2.180000000000007 H18.06 V-94.73124999999999 H72.5625 V-71.83375 H53.2125 Q52.245 -71.83375 51.519375000000004 -71.108125 Q50.79375 -70.3825 50.79375 -69.57624999999999 Q50.79375 -68.60874999999999 51.519375000000004 -67.88312499999999 Q52.245 -67.1575 53.2125 -67.1575 H72.5625 V-63.9325 Q72.5625 -62.964999999999996 73.2075 -59.57875 H53.2125 Q52.245 -59.57875 51.519375000000004 -58.85312499999999 Q50.79375 -58.1275 50.79375 -57.16 Q50.79375 -56.192499999999995 51.519375000000004 -55.5475 Q52.245 -54.902499999999996 53.2125 -54.902499999999996 H76.11000000000001 Q78.52875 -51.51625 82.2375 -49.178124999999994 Q85.94624999999999 -46.84 90.3 -45.71124999999999 L123.84 -35.874999999999986 V2.180000000000007 H104.97375 V19.272500000000008 H117.7125 Q126.42000000000002 19.272500000000008 131.74125 13.870625000000018 Q137.0625 8.46875 137.0625 -0.2387499999999818 H149.80125 Q149.80125 13.628749999999997 140.690625 22.578125 Q131.57999999999998 31.527500000000032 117.7125 31.527500000000032 H11.610000000000001 Z M49.82625 19.272500000000008 H92.5575 V2.180000000000007 H49.82625 V19.272500000000008 Z"/></g><g id="Medium-L" transform="matrix(1 0 0 1 1674.31 1556)"><path d="M12.41625 30.076250000000016 V19.595 H38.21625 V1.8575000000000017 H18.86625 V-93.76374999999999 H71.9175 V-72.47874999999999 H53.69625 Q52.88999999999999 -72.47874999999999 52.16437500000001 -71.75312499999998 Q51.43875 -71.0275 51.43875 -70.22125 Q51.43875 -69.25375 52.16437500000001 -68.52812499999999 Q52.88999999999999 -67.8025 53.69625 -67.8025 H71.9175 V-63.9325 Q71.9175 -62.803749999999994 72.40125 -59.90124999999999 H53.69625 Q52.88999999999999 -59.90124999999999 52.16437500000001 -59.175625 Q51.43875 -58.44999999999999 51.43875 -57.64374999999999 Q51.43875 -56.515 52.16437500000001 -55.86999999999999 Q52.88999999999999 -55.224999999999994 53.69625 -55.224999999999994 H74.4975 Q76.59375 -51.51625 80.221875 -48.936249999999994 Q83.85000000000001 -46.35624999999999 88.365 -45.22749999999999 L123.19500000000001 -35.22999999999999 V1.8575000000000017 H104.16749999999999 V19.595 H117.7125 Q126.42000000000002 19.595 132.225 13.79000000000002 Q138.03 7.984999999999999 138.03 -0.7224999999999824 H148.83375 Q148.83375 12.338750000000005 139.884375 21.20750000000001 Q130.935 30.076250000000016 117.7125 30.076250000000016 H12.41625 Z M48.85875 19.595 H93.525 V1.8575000000000017 H48.85875 V19.595 Z"/></g><g id="Regular-L" transform="matrix(1 0 0 1 1378.56 1556)"><path d="M13.222499999999998 28.94749999999999 V19.756249999999994 H39.0225 V1.5349999999999966 H19.6725 V-93.11874999999999 H71.43375 V-73.12375 H54.18000000000001 Q53.2125 -73.12375 52.5675 -72.398125 Q51.92250000000001 -71.6725 51.92250000000001 -70.70499999999998 Q51.92250000000001 -69.73749999999998 52.5675 -69.0925 Q53.2125 -68.44749999999999 54.18000000000001 -68.44749999999999 H71.43375 V-63.9325 Q71.43375 -62.803749999999994 71.75625000000001 -60.223749999999995 H54.18000000000001 Q53.2125 -60.223749999999995 52.5675 -59.49812499999999 Q51.92250000000001 -58.772499999999994 51.92250000000001 -57.80499999999999 Q51.92250000000001 -56.83749999999999 52.5675 -56.192499999999995 Q53.2125 -55.5475 54.18000000000001 -55.5475 H73.36875 Q75.30375000000001 -51.677499999999995 78.85125 -48.855624999999996 Q82.39875 -46.03375 86.91375 -44.90499999999999 L122.8725 -34.907499999999985 V1.5349999999999966 H103.52250000000001 V19.756249999999994 H117.7125 Q126.58125 19.756249999999994 132.628125 13.709374999999994 Q138.675 7.662499999999994 138.675 -1.2062499999999972 H148.18875000000003 Q148.18875000000003 11.371250000000018 139.239375 20.15937500000001 Q130.29 28.94749999999999 117.7125 28.94749999999999 H13.222499999999998 Z M48.21375 19.756249999999994 H94.17 V1.5349999999999966 H48.21375 V19.756249999999994 Z"/></g><g id="Light-L" transform="matrix(1 0 0 1 1082.77 1556)"><path d="M14.67375 27.496250000000003 V20.401250000000005 H40.47375 V0.5675000000000097 H21.12375 V-91.66749999999999 H70.6275 V-72.96249999999999 H54.34125000000001 Q53.535000000000004 -72.96249999999999 52.809375 -72.236875 Q52.083749999999995 -71.51124999999999 52.083749999999995 -70.70499999999998 Q52.083749999999995 -69.73749999999998 52.809375 -69.173125 Q53.535000000000004 -68.60874999999999 54.34125000000001 -68.60874999999999 H70.6275 V-64.09375 Q70.6275 -63.12624999999999 70.95 -60.06249999999999 H54.34125000000001 Q53.535000000000004 -60.06249999999999 52.809375 -59.336875 Q52.083749999999995 -58.61124999999999 52.083749999999995 -57.80499999999999 Q52.083749999999995 -56.83749999999999 52.809375 -56.273124999999986 Q53.535000000000004 -55.70875 54.34125000000001 -55.70875 H72.5625 Q74.4975 -51.677499999999995 77.964375 -48.936249999999994 Q81.43125 -46.19499999999999 85.78500000000001 -45.06625 L120.45375000000001 -35.39125 V0.5675000000000097 H101.74875 V20.401250000000005 H117.22875 Q126.58125 20.401250000000005 132.789375 14.838125000000005 Q138.9975 9.275000000000006 139.48125000000002 -0.07750000000000057 H146.7375 Q146.0925 12.177500000000023 137.788125 19.83687500000002 Q129.48375 27.496250000000003 117.22875 27.496250000000003 H14.67375 Z M47.56875 20.401250000000005 H94.65375 V0.5675000000000097 H47.56875 V20.401250000000005 Z"/></g><g id="Thin-L" transform="matrix(1 0 0 1 787.282 1556)"><path d="M16.28625 25.88375000000002 V21.046250000000015 H42.08625000000001 V-0.5612499999999869 H22.73625 V-90.05499999999999 H69.82124999999999 V-72.96249999999999 H54.5025 Q53.69625 -72.96249999999999 53.051249999999996 -72.15625 Q52.40625 -71.35 52.40625 -70.86625 Q52.40625 -69.89874999999999 53.051249999999996 -69.334375 Q53.69625 -68.77 54.5025 -68.77 H69.82124999999999 V-64.09375 Q69.82124999999999 -63.61 70.305 -60.06249999999999 H54.5025 Q53.69625 -60.06249999999999 53.051249999999996 -59.256249999999994 Q52.40625 -58.44999999999999 52.40625 -57.966249999999995 Q52.40625 -56.998749999999994 53.051249999999996 -56.43437499999999 Q53.69625 -55.86999999999999 54.5025 -55.86999999999999 H71.75625000000001 Q73.69125000000001 -51.83874999999999 77.0775 -49.0975 Q80.46375 -46.35624999999999 84.65625 -45.38874999999999 L118.19624999999999 -36.036249999999995 V-0.5612499999999869 H100.13625 V21.046250000000015 H116.90625 Q126.58125 21.046250000000015 132.87 15.966875000000016 Q139.15875 10.887500000000003 140.12625 0.8900000000000148 H145.125 Q144.15750000000003 12.822500000000005 136.336875 19.353125000000006 Q128.51625 25.88375000000002 116.90625 25.88375000000002 H16.28625 Z M46.923750000000005 21.046250000000015 H95.29875 V-0.5612499999999869 H46.923750000000005 V21.046250000000015 Z"/></g><g id="Ultralight-L" transform="matrix(1 0 0 1 491.205 1556)"><path d="M17.25375 24.91624999999999 V21.368750000000006 H43.05375 V-1.3674999999999926 H23.70375 V-89.24875 H69.3375 V-72.96249999999999 H54.66375 Q53.8575 -72.96249999999999 53.2125 -72.15625 Q52.5675 -71.35 52.5675 -70.86625 Q52.5675 -69.89874999999999 53.2125 -69.41499999999999 Q53.8575 -68.93124999999999 54.66375 -68.93124999999999 H69.3375 V-64.255 Q69.3375 -63.771249999999995 69.82124999999999 -60.06249999999999 H54.66375 Q53.8575 -60.06249999999999 53.2125 -59.256249999999994 Q52.5675 -58.44999999999999 52.5675 -57.966249999999995 Q52.5675 -56.998749999999994 53.2125 -56.515 Q53.8575 -56.03124999999999 54.66375 -56.03124999999999 H71.27250000000001 Q73.2075 -51.99999999999999 76.59375 -49.25875 Q79.98 -46.5175 84.17250000000001 -45.55 L116.90625 -36.35875 V-1.3674999999999926 H99.16875 V21.368750000000006 H116.58375 Q126.74249999999999 21.368750000000006 133.03125 16.611875000000026 Q139.32000000000002 11.855000000000018 140.61 1.5349999999999966 H144.31875 Q143.02875 13.14500000000001 135.530625 19.030625000000015 Q128.0325 24.91624999999999 116.58375 24.91624999999999 H17.25375 Z M46.60125 21.368750000000006 H95.62125 V-1.3674999999999926 H46.60125 V21.368750000000006 Z"/></g><g id="Bold-M" transform="matrix(1 0 0 1 2281.8 1126)"><path d="M7.5 19.14500000000001 V4.02000000000001 H27.5 V-4.60499999999999 H12.5 V-82.85499999999999 H57.875 V-62.97999999999999 H40.625 Q39.625 -62.97999999999999 38.94 -62.29499999999999 Q38.25 -61.60499999999999 38.25 -60.60499999999999 Q38.25 -59.60499999999999 38.94 -58.919999999999995 Q39.625 -58.22999999999999 40.625 -58.22999999999999 H57.875 V-57.72999999999999 Q57.875 -56.97999999999999 58.625 -53.97999999999999 H40.625 Q39.625 -53.97999999999999 38.94 -53.29499999999999 Q38.25 -52.60499999999999 38.25 -51.60499999999999 Q38.25 -50.60499999999999 38.94 -49.919999999999995 Q39.625 -49.22999999999999 40.625 -49.22999999999999 H62.75 Q65.25 -47.60499999999999 68.25 -46.35499999999999 Q71.25 -45.10499999999999 74.375 -44.22999999999999 L97.25 -37.10499999999999 V-4.60499999999999 H83.25 V4.02000000000001 H90.0 Q95.875 4.02000000000001 99.0 0.8300000000000125 Q102.125 -2.3549999999999898 102.125 -8.10499999999999 H117.625 Q117.625 4.14500000000001 110.0 11.64500000000001 Q102.375 19.14500000000001 90.0 19.14500000000001 H7.5 Z M42.625 4.02000000000001 H68.125 V-4.60499999999999 H42.625 V4.02000000000001 Z"/></g><g id="Semibold-M" transform="matrix(1 0 0 1 1985.97 1126)"><path d="M8.625 17.14500000000001 V4.52000000000001 H28.625 V-4.97999999999999 H13.625 V-81.60499999999999 H56.875 V-63.85499999999999 H41.5 Q40.5 -63.85499999999999 39.815 -63.16999999999999 Q39.125 -62.47999999999999 39.125 -61.47999999999999 Q39.125 -60.47999999999999 39.815 -59.79499999999999 Q40.5 -59.10499999999999 41.5 -59.10499999999999 H56.875 V-57.72999999999999 Q56.875 -56.85499999999999 57.375 -54.35499999999999 H41.5 Q40.5 -54.35499999999999 39.815 -53.669999999999995 Q39.125 -52.97999999999999 39.125 -52.10499999999999 Q39.125 -51.10499999999999 39.815 -50.35499999999999 Q40.5 -49.60499999999999 41.5 -49.60499999999999 H60.5 Q62.75 -47.60499999999999 65.565 -46.04499999999999 Q68.375 -44.47999999999999 71.5 -43.47999999999999 L96.375 -36.22999999999999 V-4.97999999999999 H82.0 V4.52000000000001 H90.0 Q96.0 4.52000000000001 99.69 0.8300000000000125 Q103.375 -2.8549999999999898 103.375 -8.85499999999999 H116.375 Q116.375 2.5200000000000102 108.94 9.835000000000022 Q101.5 17.14500000000001 90.0 17.14500000000001 H8.625 Z M41.375 4.52000000000001 H69.25 V-4.97999999999999 H41.375 V4.52000000000001 Z"/></g><g id="Medium-M" transform="matrix(1 0 0 1 1689.91 1126)"><path d="M9.625 15.64500000000001 V4.89500000000001 H29.625 V-5.35499999999999 H14.625 V-80.60499999999999 H56.125 V-64.47999999999999 H42.0 Q41.125 -64.47999999999999 40.375 -63.79499999999999 Q39.625 -63.10499999999999 39.625 -62.22999999999999 Q39.625 -61.22999999999999 40.375 -60.47999999999999 Q41.125 -59.72999999999999 42.0 -59.72999999999999 H56.125 V-57.72999999999999 Q56.125 -56.72999999999999 56.5 -54.72999999999999 H42.0 Q41.125 -54.72999999999999 40.375 -54.03999999999999 Q39.625 -53.35499999999999 39.625 -52.47999999999999 Q39.625 -51.47999999999999 40.375 -50.72999999999999 Q41.125 -49.97999999999999 42.0 -49.97999999999999 H58.875 Q60.75 -47.60499999999999 63.5 -45.79499999999999 Q66.25 -43.97999999999999 69.5 -42.97999999999999 L95.75 -35.60499999999999 V-5.35499999999999 H81.0 V4.89500000000001 H90.0 Q96.25 4.89500000000001 100.25 0.7700000000000102 Q104.25 -3.3549999999999898 104.25 -9.47999999999999 H115.375 Q115.375 1.1450000000000102 108.065 8.39500000000001 Q100.75 15.64500000000001 90.0 15.64500000000001 H9.625 Z M40.375 4.89500000000001 H70.25 V-5.35499999999999 H40.375 V4.89500000000001 Z"/></g><g id="Regular-M" transform="matrix(1 0 0 1 1394.06 1126)"><path d="M10.375 14.39500000000001 V5.02000000000001 H30.375 V-5.60499999999999 H15.375 V-79.97999999999999 H55.625 V-65.10499999999999 H42.5 Q41.5 -65.10499999999999 40.815 -64.41999999999999 Q40.125 -63.72999999999999 40.125 -62.72999999999999 Q40.125 -61.72999999999999 40.815 -61.04499999999999 Q41.5 -60.35499999999999 42.5 -60.35499999999999 H55.625 V-57.72999999999999 Q55.625 -56.72999999999999 55.875 -55.10499999999999 H42.5 Q41.5 -55.10499999999999 40.815 -54.41999999999999 Q40.125 -53.72999999999999 40.125 -52.72999999999999 Q40.125 -51.72999999999999 40.815 -51.04499999999999 Q41.5 -50.35499999999999 42.5 -50.35499999999999 H57.625 Q59.375 -47.60499999999999 62.0 -45.60499999999999 Q64.625 -43.60499999999999 68.0 -42.72999999999999 L95.375 -35.10499999999999 V-5.60499999999999 H80.375 V5.02000000000001 H90.0 Q96.375 5.02000000000001 100.69000000000001 0.6450000000000102 Q105.0 -3.7299999999999898 105.0 -9.97999999999999 H114.75 Q114.75 0.14500000000001023 107.5 7.27000000000001 Q100.25 14.39500000000001 90.0 14.39500000000001 H10.375 Z M39.75 5.02000000000001 H71.0 V-5.60499999999999 H39.75 V5.02000000000001 Z"/></g><g id="Light-M" transform="matrix(1 0 0 1 1098.18 1126)"><path d="M11.5 13.27000000000001 V6.27000000000001 H31.5 V-6.72999999999999 H16.5 V-78.72999999999999 H55.0 V-64.85499999999999 H42.5 Q41.625 -64.85499999999999 41.0 -64.22999999999999 Q40.375 -63.60499999999999 40.375 -62.72999999999999 Q40.375 -61.85499999999999 41.0 -61.22999999999999 Q41.625 -60.60499999999999 42.5 -60.60499999999999 H55.0 V-57.72999999999999 Q55.0 -56.85499999999999 55.375 -54.85499999999999 H42.5 Q41.625 -54.85499999999999 41.0 -54.22999999999999 Q40.375 -53.60499999999999 40.375 -52.72999999999999 Q40.375 -51.85499999999999 41.0 -51.22999999999999 Q41.625 -50.60499999999999 42.5 -50.60499999999999 H57.0 Q58.5 -47.85499999999999 61.125 -45.85499999999999 Q63.75 -43.85499999999999 67.0 -42.85499999999999 L93.5 -35.60499999999999 V-6.72999999999999 H79.0 V6.27000000000001 H90.0 Q96.75 6.27000000000001 101.31500000000001 2.1450000000000102 Q105.875 -1.9799999999999898 106.25 -8.72999999999999 H113.5 Q113.125 0.8950000000000102 106.44 7.0800000000000125 Q99.75 13.27000000000001 90.0 13.27000000000001 H11.5 Z M38.5 6.27000000000001 H72.0 V-6.72999999999999 H38.5 V6.27000000000001 Z"/></g><g id="Thin-M" transform="matrix(1 0 0 1 802.565 1126)"><path d="M12.75 12.02000000000001 V7.39500000000001 H32.75 V-7.97999999999999 H17.75 V-77.60499999999999 H54.375 V-64.60499999999999 H42.5 Q41.75 -64.60499999999999 41.19 -64.04499999999999 Q40.625 -63.47999999999999 40.625 -62.72999999999999 Q40.625 -61.97999999999999 41.19 -61.419999999999995 Q41.75 -60.85499999999999 42.5 -60.85499999999999 H54.375 V-57.72999999999999 Q54.375 -57.10499999999999 54.75 -54.60499999999999 H42.5 Q41.75 -54.60499999999999 41.19 -54.03999999999999 Q40.625 -53.47999999999999 40.625 -52.72999999999999 Q40.625 -51.97999999999999 41.19 -51.41999999999999 Q41.75 -50.85499999999999 42.5 -50.85499999999999 H56.25 Q57.75 -48.10499999999999 60.309999999999995 -46.10499999999999 Q62.875 -44.10499999999999 66.125 -43.10499999999999 L91.75 -35.97999999999999 V-7.97999999999999 H77.75 V7.39500000000001 H90.0 Q97.25 7.39500000000001 102.0 3.5200000000000102 Q106.75 -0.35499999999998977 107.5 -7.60499999999999 H112.375 Q111.625 1.6450000000000102 105.44 6.835000000000008 Q99.25 12.02000000000001 90.0 12.02000000000001 H12.75 Z M37.375 7.39500000000001 H73.125 V-7.97999999999999 H37.375 V7.39500000000001 Z"/></g><g id="Ultralight-M" transform="matrix(1 0 0 1 506.415 1126)"><path d="M13.5 11.27000000000001 V8.14500000000001 H33.5 V-8.72999999999999 H18.5 V-76.85499999999999 H54.125 V-64.47999999999999 H42.5 Q41.875 -64.47999999999999 41.375 -63.91999999999999 Q40.875 -63.35499999999999 40.875 -62.72999999999999 Q40.875 -61.97999999999999 41.375 -61.54499999999999 Q41.875 -61.10499999999999 42.5 -61.10499999999999 H54.125 V-57.72999999999999 Q54.125 -57.22999999999999 54.5 -54.47999999999999 H42.5 Q41.875 -54.47999999999999 41.375 -53.91999999999999 Q40.875 -53.35499999999999 40.875 -52.72999999999999 Q40.875 -51.97999999999999 41.375 -51.54499999999999 Q41.875 -51.10499999999999 42.5 -51.10499999999999 H55.75 Q57.25 -48.22999999999999 59.815 -46.22999999999999 Q62.375 -44.22999999999999 65.625 -43.35499999999999 L90.75 -36.35499999999999 V-8.72999999999999 H77.0 V8.14500000000001 H90.0 Q97.625 8.14500000000001 102.44 4.39500000000001 Q107.25 0.6450000000000102 108.25 -6.85499999999999 H111.625 Q110.625 2.0200000000000102 104.81 6.64500000000001 Q99.0 11.27000000000001 90.0 11.27000000000001 H13.5 Z M36.625 8.14500000000001 H73.75 V-8.72999999999999 H36.625 V8.14500000000001 Z"/></g><g id="Bold-S" transform="matrix(1 0 0 1 2294.23 696)"><path d="M5.9175 7.6695080000000075 V-4.657827999999995 H21.501828 V-10.868835999999988 H9.666827999999999 V-72.808492 H45.763578 V-57.22416399999999 H31.064508 Q30.17925 -57.22416399999999 29.63484 -56.67975399999999 Q29.095164 -56.14007799999999 29.095164 -55.250085999999996 Q29.095164 -54.36482799999999 29.63484 -53.82041799999999 Q30.17925 -53.27600799999999 31.064508 -53.27600799999999 H45.763578 V-52.68899199999999 Q45.763578 -52.982499999999995 46.255914000000004 -50.123163999999996 H31.064508 Q30.17925 -50.123163999999996 29.63484 -49.57875399999999 Q29.095164 -49.03907799999999 29.095164 -48.149086 Q29.095164 -47.26382799999999 29.63484 -46.71941799999999 Q30.17925 -46.17500799999999 31.064508 -46.17500799999999 H49.806414000000004 Q51.875172 -45.190335999999995 54.147492 -44.35241799999999 Q56.415078 -43.51449999999999 58.782078 -42.82333599999999 L76.9275 -37.204077999999996 V-10.868835999999988 H65.883078 V-4.657827999999995 H71.01 Q75.545172 -4.657827999999995 77.964246 -7.072167999999991 Q80.378586 -9.486507999999986 80.378586 -14.026414000000003 H93.004164 Q93.004164 -4.260171999999983 86.93991 1.704667999999998 Q80.870922 7.6695080000000075 71.01 7.6695080000000075 H5.9175 Z M33.829164 -4.657827999999995 H53.551007999999996 V-10.868835999999988 H33.829164 V-4.657827999999995 Z"/></g><g id="Semibold-S" transform="matrix(1 0 0 1 1998.1 696)"><path d="M6.807492 6.093086 V-4.260171999999983 H22.387086 V-11.16707799999999 H10.552086000000001 V-71.819086 H44.973 V-57.91532799999999 H31.660992 Q30.870414 -57.91532799999999 30.326003999999998 -57.37091799999999 Q29.786327999999997 -56.82650799999999 29.786327999999997 -55.94125 Q29.786327999999997 -55.05599199999999 30.326003999999998 -54.51158199999999 Q30.870414 -53.96717199999999 31.660992 -53.96717199999999 H44.973 V-52.68899199999999 Q44.973 -52.88308599999999 45.266507999999995 -50.41667199999999 H31.660992 Q30.870414 -50.41667199999999 30.326003999999998 -49.87699599999999 Q29.786327999999997 -49.33258599999999 29.786327999999997 -48.542007999999996 Q29.786327999999997 -47.656749999999995 30.326003999999998 -47.06499999999999 Q30.870414 -46.47324999999999 31.660992 -46.47324999999999 H48.031164000000004 Q49.905828 -45.190335999999995 52.02666 -44.106249999999996 Q54.147492 -43.022164 56.514492000000004 -42.23158599999999 L76.236336 -36.512913999999995 V-11.16707799999999 H64.893672 V-4.260171999999983 H71.01 Q75.64458599999999 -4.260171999999983 78.50392199999999 -7.119507999999996 Q81.367992 -9.983577999999994 81.367992 -14.618163999999993 H92.019492 Q92.019492 -5.543085999999988 86.04991799999999 0.2750000000000057 Q80.08507800000001 6.093086 71.01 6.093086 H6.807492 Z M32.844491999999995 -4.260171999999983 H54.441 V-11.16707799999999 H32.844491999999995 V-4.260171999999983 Z"/></g><g id="Medium-S" transform="matrix(1 0 0 1 1701.85 696)"><path d="M7.593336000000001 4.9095860000000044 V-3.9666639999999944 H23.177664 V-11.460585999999992 H11.342664 V-71.02850799999999 H44.38125 V-58.407664 H32.153328 Q31.36275 -58.407664 30.771 -57.86325399999999 Q30.17925 -57.323578 30.17925 -56.532999999999994 Q30.17925 -55.643007999999995 30.771 -55.05599199999999 Q31.36275 -54.459508 32.153328 -54.459508 H44.38125 V-52.68899199999999 Q44.38125 -52.783671999999996 44.580078 -50.71491399999999 H32.153328 Q31.36275 -50.71491399999999 30.771 -50.170503999999994 Q30.17925 -49.630827999999994 30.17925 -48.84024999999999 Q30.17925 -47.95499199999999 30.771 -47.35850799999999 Q31.36275 -46.771491999999995 32.153328 -46.771491999999995 H46.74825 Q48.324672 -45.190335999999995 50.398164 -43.907422 Q52.466922000000004 -42.62450799999999 54.933336 -41.838663999999994 L75.744 -36.02057799999999 V-11.460585999999992 H64.107828 V-3.9666639999999944 H71.01 Q75.84341400000001 -3.9666639999999944 78.94891799999999 -7.171582000000001 Q82.05442199999999 -10.376499999999993 82.05442199999999 -15.110499999999988 H91.228914 Q91.228914 -6.627171999999987 85.41082800000001 -0.8611599999999839 Q79.588008 4.9095860000000044 71.01 4.9095860000000044 H7.593336000000001 Z M32.053914 -3.9666639999999944 H55.231578 V-11.460585999999992 H32.053914 V-3.9666639999999944 Z"/></g><g id="Regular-S" transform="matrix(1 0 0 1 1405.73 696)"><path d="M8.185086 3.9249140000000153 V-3.8672499999999985 H23.769414 V-11.659413999999998 H11.934414 V-70.536172 H43.988327999999996 V-58.89999999999999 H32.54625 Q31.660992 -58.89999999999999 31.116582 -58.35558999999999 Q30.572172000000002 -57.81591399999999 30.572172000000002 -56.92592199999999 Q30.572172000000002 -56.04066399999999 31.116582 -55.49625399999999 Q31.660992 -54.95657799999999 32.54625 -54.95657799999999 H43.988327999999996 V-52.68899199999999 Q43.988327999999996 -52.783671999999996 44.083008 -51.008421999999996 H32.54625 Q31.660992 -51.008421999999996 31.116582 -50.468745999999996 Q30.572172000000002 -49.924336 30.572172000000002 -49.03907799999999 Q30.572172000000002 -48.149086 31.116582 -47.60941 Q31.660992 -47.06499999999999 32.54625 -47.06499999999999 H45.763578 Q47.24058599999999 -45.190335999999995 49.214664000000006 -43.76066799999999 Q51.184008 -42.330999999999996 53.749835999999995 -41.63983599999999 L75.450492 -35.622921999999996 V-11.659413999999998 H63.615492 V-3.8672499999999985 H71.01 Q75.942828 -3.8672499999999985 79.2945 -7.218921999999992 Q82.64617199999999 -10.575327999999999 82.64617199999999 -15.503422 H90.73657800000001 Q90.73657800000001 -7.417749999999998 84.965832 -1.7464179999999914 Q79.19508599999999 3.9249140000000153 71.01 3.9249140000000153 H8.185086 Z M31.561578 -3.8672499999999985 H55.823328 V-11.659413999999998 H31.561578 V-3.8672499999999985 Z"/></g><g id="Light-S" transform="matrix(1 0 0 1 1109.75 696)"><path d="M9.075078 3.0349219999999946 V-2.882577999999995 H24.654672 V-12.544671999999991 H12.819672 V-69.55149999999999 H43.495992 V-58.70117199999999 H32.54625 Q31.755672 -58.70117199999999 31.263336 -58.20883599999999 Q30.771 -57.716499999999996 30.771 -56.92592199999999 Q30.771 -56.14007799999999 31.263336 -55.643007999999995 Q31.755672 -55.15067199999999 32.54625 -55.15067199999999 H43.495992 V-52.68899199999999 Q43.495992 -52.88308599999999 43.690085999999994 -50.81432799999999 H32.54625 Q31.755672 -50.81432799999999 31.263336 -50.317257999999995 Q30.771 -49.824921999999994 30.771 -49.03907799999999 Q30.771 -48.24849999999999 31.263336 -47.75616399999999 Q31.755672 -47.26382799999999 32.54625 -47.26382799999999 H45.171828 Q46.549422 -45.389163999999994 48.5235 -43.95949599999999 Q50.497578 -42.529827999999995 52.963992000000005 -41.73924999999999 L73.96875 -36.02057799999999 V-12.544671999999991 H62.526672 V-2.882577999999995 H71.01 Q76.236336 -2.882577999999995 79.786836 -6.087496000000002 Q83.337336 -9.292413999999994 83.63557800000001 -14.518749999999997 H89.74717199999999 Q89.453664 -6.825999999999993 84.127914 -1.8931719999999927 Q78.802164 3.0349219999999946 71.01 3.0349219999999946 H9.075078 Z M30.572172000000002 -2.882577999999995 H56.609172 V-12.544671999999991 H30.572172000000002 V-2.882577999999995 Z"/></g><g id="Thin-S" transform="matrix(1 0 0 1 814.015 696)"><path d="M10.05975 2.0502500000000055 V-1.9925859999999886 H25.644078 V-13.534077999999994 H13.809078 V-68.661508 H42.998922 V-58.50707799999999 H32.54625 Q31.855086 -58.50707799999999 31.41009 -58.062082 Q30.969828 -57.61708599999999 30.969828 -56.92592199999999 Q30.969828 -56.23949199999999 31.41009 -55.794495999999995 Q31.855086 -55.34949999999999 32.54625 -55.34949999999999 H42.998922 V-52.68899199999999 Q42.998922 -53.081914 43.19775 -50.6155 H32.54625 Q31.855086 -50.6155 31.41009 -50.170503999999994 Q30.969828 -49.725508 30.969828 -49.03907799999999 Q30.969828 -48.347913999999996 31.41009 -47.90291799999999 Q31.855086 -47.457921999999996 32.54625 -47.457921999999996 H44.580078 Q45.957672 -45.58799199999999 47.88441 -44.153589999999994 Q49.806414000000004 -42.723921999999995 52.272828 -41.93807799999999 L72.586422 -36.31408599999999 V-13.534077999999994 H61.542 V-1.9925859999999886 H71.01 Q76.63399199999999 -1.9925859999999886 80.33124600000001 -4.9513359999999835 Q84.0285 -7.910085999999993 84.62025 -13.63349199999999 H88.861914 Q88.27016400000001 -6.234249999999989 83.337336 -2.0919999999999987 Q78.404508 2.0502500000000055 71.01 2.0502500000000055 H10.05975 Z M29.686913999999998 -1.9925859999999886 H57.499164 V-13.534077999999994 H29.686913999999998 V-1.9925859999999886 Z"/></g><g id="Ultralight-S" transform="matrix(1 0 0 1 517.792 696)"><path d="M10.6515 1.4585000000000008 V-1.400835999999984 H26.235827999999998 V-14.125827999999998 H14.400827999999999 V-68.07449199999999 H42.804828 V-58.407664 H32.54625 Q31.9545 -58.407664 31.561578 -57.962667999999994 Q31.163922 -57.51767199999999 31.163922 -56.92592199999999 Q31.163922 -56.23949199999999 31.561578 -55.89390999999999 Q31.9545 -55.54832799999999 32.54625 -55.54832799999999 H42.804828 V-52.68899199999999 Q42.804828 -53.18132799999999 42.998922 -50.516085999999994 H32.54625 Q31.9545 -50.516085999999994 31.561578 -50.07108999999999 Q31.163922 -49.630827999999994 31.163922 -49.03907799999999 Q31.163922 -48.347913999999996 31.561578 -48.002331999999996 Q31.9545 -47.656749999999995 32.54625 -47.656749999999995 H44.281836 Q45.56475 -45.682672 47.486754000000005 -44.253004 Q49.413492000000005 -42.82333599999999 51.875172 -42.132172 L71.800578 -36.61232799999999 V-14.125827999999998 H60.95025 V-1.400835999999984 H71.01 Q76.9275 -1.400835999999984 80.676828 -4.260171999999983 Q84.42142199999999 -7.119507999999996 85.212 -13.037007999999986 H88.27016400000001 Q87.479586 -5.936008000000001 82.79766 -2.238753999999986 Q78.111 1.4585000000000008 71.01 1.4585000000000008 H10.6515 Z M29.095164 -1.400835999999984 H57.9915 V-14.125827999999998 H29.095164 V-1.400835999999984 Z"/></g></g></svg>