<svg xmlns="http://www.w3.org/2000/svg" height="24" viewBox="0 -960 960 960" width="24"><path d="M704.128-91.54q-10.206 0-19.403-2.244-9.197-2.243-17.495-6.602l-106.922-62.307q-16.7-10.276-26.504-27.054-9.803-16.779-9.803-36.331v-125.844q0-19.552 10.303-36.831 10.304-17.278 27.004-27.554l105.922-60.307q8.31-4.359 17.521-6.602 9.211-2.244 19.422-2.244t18.924 2.179q8.713 2.18 16.979 6.667l105.922 60.307q17.744 10.276 28.026 27.054 10.282 16.779 10.282 37.331v125.844q0 19.552-10.282 36.331-10.282 16.778-27.026 27.054l-106.916 62.359q-8.237 4.563-16.992 6.679-8.756 2.115-18.962 2.115Zm-553.359-35.154q-37.307 0-62.037-24.731-24.73-24.73-24.73-62.037v-32.154q0-38.307 17.46-67.384 17.462-29.076 49.154-44.538 67.847-33.846 131.692-49Q326.154-421.691 394-421.691h14.692q7.231 0 14.462.23-31.231 77.153-24.577 152.422 6.654 75.269 50.653 142.345H150.769ZM394-504.309q-67.749 0-114.874-47.124-47.125-47.125-47.125-114.874 0-67.75 47.125-114.874Q326.251-828.306 394-828.306t114.874 47.125q47.125 47.124 47.125 114.874 0 67.749-47.125 114.874Q461.749-504.309 394-504.309Zm229.846 131.463 80.307 46.077 80.308-46.077-80.308-45.461-80.307 45.461Zm114.153 194 77.615-43.754v-87.477l-77.615 46.384v84.847Zm-145.307-43.616 77.615 44.616v-84.847l-77.615-46v86.231Z"/></svg>