<svg xmlns="http://www.w3.org/2000/svg" height="24" viewBox="0 -960 960 960" width="24"><path d="M331.7-298.87q-20.84 0-37.2-12.63-16.37-12.63-21.72-33.59l-80.95-314.56q-4.57-16.83.28-32.59 4.85-15.76 16.98-27.46l229.26-210.69q16.84-16.26 41.44-16.26 24.6 0 41.86 16.26L750.91-719.7q12.13 11.7 16.98 27.46 4.85 15.76.28 32.59l-80.39 314.56q-5.61 20.81-21.93 33.52-16.32 12.7-37.55 12.7H331.7Zm50.78-122.96h196.04l63.26-230.69-108.21-99.22v84.91q15.56 12 24.63 29.59 9.06 17.58 9.06 38.83 0 36.15-25.3 61.35-25.31 25.19-61.7 25.19t-61.96-25.19q-25.56-25.2-25.56-61.35 0-21.25 10.06-39.12 10.07-17.86 25.2-29.86v-84.91l-108.22 99.78 62.7 230.69ZM204-80.09q-30.83 0-47.67-24.76-16.85-24.76-5.72-53.02l.3-.91q12.7-31.26 38.44-50.96 25.75-19.69 58.91-19.69h463.35q32.98 0 59.1 19.69 26.12 19.7 38.25 50.96l.3.91q11.7 28.26-5.15 53.02T757-80.09H204Z"/></svg>