<svg xmlns="http://www.w3.org/2000/svg" height="40" width="40"><path d="M4.458 7.25V4.417H24.542V7.25ZM12.167 29H16.833V24.833H21V20.167H16.833V16H12.167V20.167H8V24.833H12.167ZM6.125 35.042Q4.75 35.042 3.771 34.062Q2.792 33.083 2.792 31.708V13.292Q2.792 11.917 3.771 10.938Q4.75 9.958 6.125 9.958H22.875Q24.25 9.958 25.229 10.938Q26.208 11.917 26.208 13.292V31.708Q26.208 33.083 25.229 34.062Q24.25 35.042 22.875 35.042ZM6.125 32.25H22.875Q23.083 32.25 23.25 32.083Q23.417 31.917 23.417 31.708V13.292Q23.417 13.083 23.25 12.917Q23.083 12.75 22.875 12.75H6.125Q5.917 12.75 5.75 12.917Q5.583 13.083 5.583 13.292V31.708Q5.583 31.917 5.75 32.083Q5.917 32.25 6.125 32.25ZM32.25 22.417Q30.75 21.667 29.833 20.062Q28.917 18.458 28.917 16.333Q28.917 13.625 30.312 11.792Q31.708 9.958 33.667 9.958Q35.667 9.958 37.042 11.792Q38.417 13.625 38.417 16.333Q38.417 18.458 37.5 20.062Q36.583 21.667 35.083 22.417V33.625Q35.083 34.208 34.667 34.625Q34.25 35.042 33.667 35.042Q33.125 35.042 32.688 34.625Q32.25 34.208 32.25 33.625ZM33.667 19.958Q34.25 19.958 34.917 18.979Q35.583 18 35.583 16.333Q35.583 14.708 34.917 13.729Q34.25 12.75 33.708 12.75Q33.083 12.75 32.417 13.729Q31.75 14.708 31.75 16.333Q31.75 18 32.417 18.979Q33.083 19.958 33.667 19.958ZM14.5 22.5Q14.5 22.5 14.5 22.5Q14.5 22.5 14.5 22.5Q14.5 22.5 14.5 22.5Q14.5 22.5 14.5 22.5Q14.5 22.5 14.5 22.5Q14.5 22.5 14.5 22.5Q14.5 22.5 14.5 22.5Q14.5 22.5 14.5 22.5ZM33.708 16.333Q33.708 16.333 33.708 16.333Q33.708 16.333 33.708 16.333Q33.708 16.333 33.708 16.333Q33.708 16.333 33.708 16.333Q33.708 16.333 33.708 16.333Q33.708 16.333 33.708 16.333Q33.708 16.333 33.708 16.333Q33.708 16.333 33.708 16.333Z"/></svg>