<svg xmlns="http://www.w3.org/2000/svg" height="40" width="40"><path d="M5.292 7.583V5.458H23.708V7.583ZM12.417 28.75H16.625V24.583H20.792V20.375H16.625V16.208H12.417V20.375H8.25V24.583H12.417ZM6.75 34.208Q5.458 34.208 4.542 33.292Q3.625 32.375 3.625 31.083V13.917Q3.625 12.625 4.542 11.708Q5.458 10.792 6.75 10.792H22.25Q23.542 10.792 24.458 11.708Q25.375 12.625 25.375 13.917V31.083Q25.375 32.375 24.458 33.292Q23.542 34.208 22.25 34.208ZM6.75 32.083H22.25Q22.625 32.083 22.938 31.771Q23.25 31.458 23.25 31.083V13.917Q23.25 13.542 22.938 13.229Q22.625 12.917 22.25 12.917H6.75Q6.375 12.917 6.062 13.229Q5.75 13.542 5.75 13.917V31.083Q5.75 31.458 6.062 31.771Q6.375 32.083 6.75 32.083ZM31.917 22.667Q30.417 21.917 29.5 20.375Q28.583 18.833 28.583 16.833Q28.583 14.25 29.875 12.521Q31.167 10.792 33 10.792Q34.833 10.792 36.104 12.521Q37.375 14.25 37.375 16.833Q37.375 18.833 36.458 20.375Q35.542 21.917 34.042 22.667V33.125Q34.042 33.583 33.729 33.896Q33.417 34.208 33 34.208Q32.583 34.208 32.25 33.896Q31.917 33.583 31.917 33.125ZM33 20.792Q33.708 20.792 34.479 19.708Q35.25 18.625 35.25 16.833Q35.25 15.042 34.458 13.979Q33.667 12.917 33 12.917Q32.292 12.917 31.5 13.979Q30.708 15.042 30.708 16.833Q30.708 18.625 31.5 19.708Q32.292 20.792 33 20.792ZM14.5 22.5Q14.5 22.5 14.5 22.5Q14.5 22.5 14.5 22.5Q14.5 22.5 14.5 22.5Q14.5 22.5 14.5 22.5Q14.5 22.5 14.5 22.5Q14.5 22.5 14.5 22.5Q14.5 22.5 14.5 22.5Q14.5 22.5 14.5 22.5ZM33 16.833Q33 16.833 33 16.833Q33 16.833 33 16.833Q33 16.833 33 16.833Q33 16.833 33 16.833Q33 16.833 33 16.833Q33 16.833 33 16.833Q33 16.833 33 16.833Q33 16.833 33 16.833Z"/></svg>