<svg xmlns="http://www.w3.org/2000/svg" height="48" viewBox="0 -960 960 960" width="48"><path d="M480.85-55q-88.02 0-165.43-33.5Q238-122 179.95-179.71q-58.06-57.72-91.5-135.06Q55-392.12 55-480.06t33.45-165.22q33.44-77.27 91.5-135Q238-838 315.46-872q77.47-34 165.54-34 154.61 0 270.81 98Q868-710 897-564q4 18.71-7.14 35.21Q878.71-512.29 860-509q-19 4-35-6t-20-29q-15.32-82.78-68.16-148.39Q684-758 605-791v17q0 33.76-24.15 58.88Q556.71-690 522.96-690H439v84.7q0 17.3-13.5 27.8T394.7-567H315v85h252q21 0 31 20t1 42q-9.96 20.7-14.48 42.54T580-333.3q0 53.3 26.5 100.3t55.5 89q10 14 5.5 30.5T648-91q-39 17-81.21 26.5-42.21 9.5-85.94 9.5ZM439-150v-81q-35 0-58.02-25.41-23.01-25.41-23.01-59.59v-43L159-558q-5 20-7 38.5t-2 37.94q0 126.23 82 221.89Q314-164 439-150Zm356.25 95q-8.25 0-15.17-4.5Q773.17-64 771-72q-13-37-33.5-68.5T693-202q-23.23-27.66-38.12-61.02Q640-296.39 640-332.51q0-64.78 45.35-110.13Q730.7-488 794.85-488t109.65 45.39Q950-397.21 950-333q0 37-14.5 70T898-202q-23 31-44.61 61.92T819-72q-2.17 8-8.83 12.5-6.67 4.5-14.92 4.5Zm-.25-98q14-21 28.5-41t30.5-40q17-21 29-45.82T895-333q0-41-29-70.5T795-433q-42 0-71 29.5t-29 70.92Q695-305 707-280t29 46q16 20 30.5 40t28.5 41Zm0-130q-21 0-35.5-14T745-333q0-21 14.5-35.5T795-383q21 0 35.5 14.5T845-333q0 22-14.5 36T795-283Z"/></svg>