<svg xmlns="http://www.w3.org/2000/svg" height="24" viewBox="0 -960 960 960" width="24"><path d="M493.46-128q-137.84 0-239.42-88.08Q152.46-304.15 140.23-440h68.46Q222-333.77 302.43-263.88 382.85-194 491.46-194q118 0 201-83.5t83-202q0-118.5-82.08-202.5t-199.92-84q-69.01 0-129.66 30.23-60.65 30.23-101.42 84.23h109.24v66H155.46v-216.15h66v97.54q48.39-62.93 120.36-95.39Q413.8-832 493.46-832q72.37 0 135.66 27.64 63.29 27.64 110.56 75.56 47.27 47.93 74.53 112.09 27.25 64.17 27.25 136.71t-27.25 136.71q-27.26 64.16-74.53 112.09-47.27 47.92-110.56 75.56T493.46-128Zm104.16-177.85L435.77-465.69V-696h66v201.69l142.15 142.16-46.3 46.3Z"/></svg>