<svg xmlns="http://www.w3.org/2000/svg" height="40" width="40"><path d="M21.625 36.417q-3.708 0-6.938-1.396-3.229-1.396-5.625-3.792-2.395-2.396-3.791-5.625t-1.396-6.896h.958q0 3.459 1.334 6.563 1.333 3.104 3.666 5.396 2.334 2.291 5.459 3.583 3.125 1.292 6.625 1.208l-6.334-6.375.667-.666 7.792 7.791q-.667.125-1.292.167-.625.042-1.125.042ZM25.208 15V7.708h1.709V6q0-1.167.812-1.979.813-.813 1.979-.813 1.167 0 2 .813.834.812.834 1.979v1.708h1.583V15Zm2.834-7.292h3.333V6q0-.708-.5-1.187-.5-.48-1.167-.48-.708 0-1.187.48-.479.479-.479 1.187Zm-2.959 22.375-14.958-15 7.958-7.916L21 10v3.458q0 2.417 1.646 4.167t4.062 1.75h3.625l2.75 2.75Z"/></svg>