<svg xmlns="http://www.w3.org/2000/svg" height="48" width="48"><path d="M13 11.3q-1.55 0-2.65-1.125-1.1-1.125-1.1-2.625 0-1.55 1.1-2.65 1.1-1.1 2.65-1.1 1.55 0 2.65 1.1 1.1 1.1 1.1 2.65 0 1.5-1.1 2.625T13 11.3ZM9.6 43.9V30.15H5.7V14.4h14.6v9.1q-2.7 1.6-4.325 4.45t-1.625 6.2q0 1.8.425 3.275.425 1.475.925 2.525v3.95Zm17.45.05q-4.1 0-6.95-2.85-2.85-2.85-2.85-7 0-3 1.975-5.875T24.9 24.6v3.35q-2.15.65-3.325 2.5Q20.4 32.3 20.4 34.1q0 2.85 1.925 4.775Q24.25 40.8 27.05 40.8q2.9 0 4.875-2.275T33.4 33h3.2q.55 4.25-2.375 7.6-2.925 3.35-7.175 3.35ZM43.1 39.8l-5.55-8.25h-11.2V16.4h3.15v12h9.8l6.4 9.65Z"/></svg>