<svg xmlns="http://www.w3.org/2000/svg" height="20" viewBox="0 -960 960 960" width="20"><path d="M158-114q-17.45 0-29.73-12.3Q116-138.6 116-156v-162q0-33.45 22.27-55.73Q160.55-396 194-396h476q33.45 0 55.72 22.27Q748-351.45 748-318v162q0 16.4-12.8 29.2T706-114H158Zm80-328v-126q0-33.75 22.27-55.88Q282.55-646 316-646h92v-58q-18-13-27-24t-9-30.62q0-13.38 3.41-21.81 3.41-8.44 13.15-18.17l28.62-28.58q.82-.82 15.11-6.82 4.71 0 14.71 6l29.25 29.21q9.93 9.92 12.84 18.36Q492-772 492-758.62q0 19.62-9 30.62t-27 24v58h93q33.04 0 55.02 22.28Q626-601.45 626-568v126H238Zm545.18-192q-9.18 0-16.18-6.88-7-6.87-7-16.12v-61h-61q-9.25 0-16.12-6.82-6.88-6.83-6.88-16 0-9.18 6.88-16.18 6.87-7 16.12-7h61v-61q0-9.25 6.82-16.13 6.83-6.87 16-6.87 9.18 0 16.18 6.87 7 6.88 7 16.13v61h61q9.25 0 16.13 6.82 6.87 6.83 6.87 16 0 9.18-6.87 16.18-6.88 7-16.13 7h-61v61q0 9.25-6.82 16.12-6.83 6.88-16 6.88Z"/></svg>