<svg xmlns="http://www.w3.org/2000/svg" height="24" width="24"><path d="M12.125 22.85Q9.875 22.85 7.912 22Q5.95 21.15 4.488 19.675Q3.025 18.2 2.175 16.225Q1.325 14.25 1.325 12Q1.325 9.75 2.175 7.775Q3.025 5.8 4.5 4.325Q5.975 2.85 7.95 2Q9.925 1.15 12.175 1.15Q14.725 1.15 16.925 2.237Q19.125 3.325 20.65 5.275L12.175 13.775V4.3Q8.975 4.3 6.725 6.55Q4.475 8.8 4.475 12Q4.475 15.2 6.725 17.45Q8.975 19.7 12.175 19.7Q13.8 19.7 15.263 19.05Q16.725 18.4 17.8 17.2V21.275Q16.525 22.05 15.075 22.45Q13.625 22.85 12.125 22.85ZM19.8 18V10H22.55V18ZM21.175 22.5Q20.55 22.5 20.113 22.062Q19.675 21.625 19.675 21Q19.675 20.35 20.113 19.925Q20.55 19.5 21.175 19.5Q21.825 19.5 22.25 19.925Q22.675 20.35 22.675 21Q22.675 21.625 22.25 22.062Q21.825 22.5 21.175 22.5Z"/></svg>