<svg xmlns="http://www.w3.org/2000/svg" height="40" viewBox="0 -960 960 960" width="40"><path d="M668.72-432.41v-255.51h59.42v255.51h-59.42Zm-104.9-64.23v-127.59h59.42v127.59h-59.42Zm209.42 0v-127.59h59.42v127.59h-59.42Zm32.58 440.13L673.05-189.34H148.67v-84.81h71.02v-274.18q0-38.58 10.49-77.16 10.49-38.57 33.59-72.28l149.45 149.44h-98.65L64.44-799.18l49.09-48.46 741.38 742.05-49.09 49.08Zm-325.25-10.2q-34.95 0-59.64-24.59-24.68-24.59-24.68-59.54h168.07q0 34.95-24.59 59.54-24.59 24.59-59.16 24.59Zm28.21-485.89L311.5-750.07q21.77-18.37 46.38-32.17 24.62-13.81 52.71-18.62v-88.51h138.82v88.51q31.06 6.11 57.23 20.23 26.17 14.12 48 33.91-67.45 15.42-108.7 70.69-41.25 55.28-37.16 123.43Z"/></svg>