<svg xmlns="http://www.w3.org/2000/svg" height="24" width="24"><path d="M9.9 7.525 5.75 10.05q-.7.425-1.438.025-.737-.4-.737-1.225 0-.375.188-.7.187-.325.512-.525l5.75-3.5L15 7.65l3.2-2.25q.7-.5 1.463-.113.762.388.762 1.263 0 .35-.15.65-.15.3-.45.525L15 11.125Zm-4.9 7.9q-.575 0-1-.425-.425-.425-.425-1T4 13q.425-.425 1-.425h14q.575 0 1 .425.425.425.425 1T20 15q-.425.425-1 .425Zm0 4.35q-.575 0-1-.425-.425-.425-.425-1 0-.6.425-1.013.425-.412 1-.412h14q.575 0 1 .412.425.413.425 1.013 0 .6-.425 1.012-.425.413-1 .413Z"/></svg>