<svg xmlns="http://www.w3.org/2000/svg" height="20" viewBox="0 -960 960 960" width="20"><path d="M480-104.09q-23.39 0-40.44-16.76-17.04-16.76-17.04-40.72v-143.82q-22.74 26.61-49.06 48.22-26.33 21.61-45.81 37.34-21.39 15.83-47.78 13.05-26.39-2.78-44.78-20.61-17.26-17.83-12.2-40.22 5.07-22.39 24.33-36.65 70.74-51.35 123.02-117.37 52.28-66.02 52.28-144.85v-71.21l-9.74 10.3q-17.82 17.26-40.72 16.98-22.89-.28-40.15-17.55-16.82-16.82-17.32-39.43t17.32-40.44L439.78-815.7q7.57-7.56 18.33-12.19 10.76-4.63 21.89-4.63t21.89 4.63q10.76 4.63 18.33 12.19l106.87 106.87q17.82 17.83 17.82 40.44t-17.82 40.43q-16.83 16.83-39.44 17.33t-40.43-17.33l-9.74-9.73v476.12q0 23.96-17.04 40.72-17.05 16.76-40.44 16.76Z"/></svg>