<svg xmlns="http://www.w3.org/2000/svg" height="20" width="20"><path d="M4.104 18.188q-.625 0-1.042-.417-.416-.417-.416-1.042v-2.667q0-.624.416-1.041.417-.417 1.042-.417h1.042v-1.875q0-.625.416-1.041.417-.417 1.042-.417h2.667V7.396H8.229q-.625 0-1.041-.417-.417-.417-.417-1.041V3.271q0-.625.417-1.042.416-.417 1.041-.417h3.542q.625 0 1.041.417.417.417.417 1.042v2.667q0 .624-.417 1.041-.416.417-1.041.417h-1.042v1.875h2.667q.625 0 1.042.417.416.416.416 1.041v1.875h1.042q.625 0 1.042.417.416.417.416 1.041v2.667q0 .625-.416 1.042-.417.417-1.042.417h-3.542q-.625 0-1.042-.417-.416-.417-.416-1.042v-2.667q0-.624.416-1.041.417-.417 1.042-.417h1.042v-1.875H6.604v1.875h1.042q.625 0 1.042.417.416.417.416 1.041v2.667q0 .625-.416 1.042-.417.417-1.042.417Zm4.125-12.25h3.542V3.271H8.229ZM4.104 16.729h3.542v-2.667H4.104Zm8.25 0h3.542v-2.667h-3.542ZM10 5.938Zm-2.354 8.124Zm4.708 0Z"/></svg>