<svg xmlns="http://www.w3.org/2000/svg" height="20" viewBox="0 -960 960 960" width="20"><path d="M141-171.77v-88.46q0-34.01 22.38-56.39Q185.76-339 219.77-339H249v-89.69q0-38.63 25.84-64.47Q300.68-519 339.31-519H441v-102h-29.23q-34.01 0-56.39-22.38Q333-665.76 333-699.77v-88.46q0-34.01 22.41-56.39Q377.81-867 411.86-867H548.5q34.04 0 56.27 22.38Q627-822.24 627-788.23v88.46q0 34.01-22.38 56.39Q582.24-621 548.23-621H519v102h101.69q38.63 0 64.47 25.84Q711-467.32 711-428.69V-339h29.4q34.14 0 56.37 22.38Q819-294.24 819-260.23v88.46q0 34.01-22.41 56.39Q774.19-93 740.14-93H603.5q-34.04 0-56.27-22.38Q525-137.76 525-171.77v-88.46q0-34.01 22.38-56.39Q569.76-339 603.77-339H633v-89.69q0-5.39-3.46-8.85t-8.85-3.46H339.31q-5.39 0-8.85 3.46t-3.46 8.85V-339h29.4q34.14 0 56.37 22.38Q435-294.24 435-260.23v88.46q0 34.01-22.41 56.39Q390.19-93 356.14-93H219.5q-34.04 0-56.27-22.38Q141-137.76 141-171.77Z"/></svg>