<svg xmlns="http://www.w3.org/2000/svg" height="40" width="40"><path d="M26.375 21.792 24.25 19.667V10.5L21.583 13.125Q21.25 13.417 20.833 13.417Q20.417 13.417 20.083 13.083Q19.75 12.792 19.75 12.354Q19.75 11.917 20.083 11.542L24.208 7.458Q24.417 7.25 24.708 7.104Q25 6.958 25.292 6.958Q25.583 6.958 25.875 7.104Q26.167 7.25 26.417 7.458L30.542 11.583Q30.875 11.917 30.854 12.333Q30.833 12.75 30.5 13.083Q30.167 13.417 29.75 13.417Q29.333 13.417 29 13.083L26.375 10.5ZM32.708 35.542 16.042 18.917V31.167L18.667 28.542Q18.958 28.292 19.417 28.271Q19.875 28.25 20.208 28.583Q20.542 29 20.542 29.438Q20.542 29.875 20.208 30.208L16.125 34.208Q15.875 34.417 15.625 34.562Q15.375 34.708 15 34.708Q14.708 34.708 14.438 34.562Q14.167 34.417 13.958 34.208L9.792 30.083Q9.458 29.792 9.479 29.354Q9.5 28.917 9.833 28.583Q10.125 28.25 10.562 28.25Q11 28.25 11.333 28.542L13.917 31.167V16.792L4.5 7.333Q4.167 7 4.188 6.604Q4.208 6.208 4.542 5.833Q4.875 5.542 5.292 5.542Q5.708 5.542 6.042 5.833L34.25 34.083Q34.542 34.458 34.521 34.854Q34.5 35.25 34.208 35.542Q33.875 35.917 33.438 35.917Q33 35.917 32.708 35.542Z"/></svg>