<svg xmlns="http://www.w3.org/2000/svg" height="20" width="20"><path d="M1.208 12.083V7.917H2.125V12.083ZM3.521 13.75V6.25H4.438V13.75ZM17.875 12.083V7.917H18.792V12.083ZM15.562 13.75V6.25H16.479V13.75ZM7.271 16.667Q6.646 16.667 6.24 16.26Q5.833 15.854 5.833 15.229V4.771Q5.833 4.146 6.24 3.74Q6.646 3.333 7.271 3.333H12.729Q13.354 3.333 13.76 3.74Q14.167 4.146 14.167 4.771V15.229Q14.167 15.854 13.76 16.26Q13.354 16.667 12.729 16.667ZM7.271 15.75H12.729Q12.958 15.75 13.104 15.604Q13.25 15.458 13.25 15.229V4.771Q13.25 4.542 13.104 4.396Q12.958 4.25 12.729 4.25H7.271Q7.042 4.25 6.896 4.396Q6.75 4.542 6.75 4.771V15.229Q6.75 15.458 6.896 15.604Q7.042 15.75 7.271 15.75ZM6.75 15.75Q6.75 15.75 6.75 15.604Q6.75 15.458 6.75 15.229V4.771Q6.75 4.542 6.75 4.396Q6.75 4.25 6.75 4.25Q6.75 4.25 6.75 4.396Q6.75 4.542 6.75 4.771V15.229Q6.75 15.458 6.75 15.604Q6.75 15.75 6.75 15.75Z"/></svg>