<svg xmlns="http://www.w3.org/2000/svg" height="20" width="20"><path d="M10 8.896q-1.479 0-2.948-.708-1.469-.709-2.74-1.959l2.563-1.521q.479.375.896.636.417.26.771.385V1.792L10 .917l1.458.875v3.937q.396-.167.823-.427.427-.26.844-.594l2.563 1.521q-1.271 1.25-2.74 1.959-1.469.708-2.948.708Zm-1.104 9L6.292 16.5q.062-.396.083-.667.021-.271.021-.416 0-.229-.021-.448t-.063-.448l-3.374 2.041-1.5-.791v-1.709l3.354-2q-.354-.27-.771-.51-.417-.24-.959-.427v-3q2.73.729 4.49 2.729 1.76 2 1.76 4.563 0 .437-.104 1.052-.104.614-.312 1.427Zm2.208 0q-.166-.646-.292-1.229-.124-.584-.124-1.25 0-2.563 1.77-4.563 1.771-2 4.48-2.729v3q-.584.208-1.001.437-.416.23-.729.48l3.354 2.02v1.709l-1.5.791-3.374-2.041q-.042.229-.063.448-.021.219-.021.448 0 .145.021.416t.083.667Z"/></svg>