<svg xmlns="http://www.w3.org/2000/svg" height="48" viewBox="0 96 960 960" width="48"><path d="M719.647 1034.09q-48.965 0-90.632-22.59-41.666-22.585-67.231-59.28-9.957-11-8.283-25.474 1.673-14.473 12.673-23.565 12.696-11.353 30.631-9.614 17.935 1.739 31.284 13.304 14.173 21.695 38.315 34.847Q690.545 954.87 720 954.87q53.551 0 91.406-37.855 37.854-37.855 37.854-91.406 0-53.752-37.891-91.224-37.891-37.471-91.369-37.471-25.723 0-46.992 8.522-21.268 8.521-36.877 23.565h16.13q15.261 1.695 25.457 12.664 10.195 10.968 10.195 26.945 0 16.617-11.655 28.113-11.656 11.496-28.519 11.496H541.521q-16.706 0-28.158-11.451-11.451-11.451-11.451-28.158V661.827q0-16.618 11.326-28.113 11.327-11.496 28.566-11.496 14.978 0 25.739 9.63 10.761 9.631 13.022 23.761v15.695Q607 646.484 643 631.807t77-14.677q86.914 0 147.697 60.791 60.782 60.791 60.782 147.438 0 86.648-60.782 147.688-60.783 61.043-148.05 61.043Zm-404.56-591.872h329.826q12.75 0 21.375-8.676 8.625-8.675 8.625-21.5 0-12.824-8.625-21.324-8.625-8.5-21.375-8.5H315.087q-12.75 0-21.375 8.675-8.625 8.676-8.625 21.5 0 12.825 8.625 21.325t21.375 8.5Zm-130 509.609q-32.677 0-55.948-23.437-23.27-23.436-23.27-56.347V282.218q0-32.678 23.27-55.948 23.271-23.271 55.948-23.271h589.826q32.91 0 56.347 23.271 23.436 23.27 23.436 55.948v266.13q-32.391-14.783-66.118-23-33.727-8.218-68.578-8.218-36.627 0-69.589 7.593-32.961 7.592-63.46 22.407H315.087q-12.75 0-21.375 8.676-8.625 8.675-8.625 21.5 0 12.824 8.625 21.324 8.625 8.5 21.375 8.5h186.956q-22.434 22.435-39.652 48.522-17.217 26.087-28.534 56.391h-118.77q-12.75 0-21.375 8.676-8.625 8.675-8.625 21.5 0 12.824 8.625 21.324 8.625 8.5 21.375 8.5h102.261q-3.131 13.392-4.479 26.283-1.348 12.892-1.348 27.283 0 32.733 6.283 64.41t20.413 61.808h-253.13Z"/></svg>