<svg xmlns="http://www.w3.org/2000/svg" height="48" viewBox="0 96 960 960" width="48"><path d="M719.647 1034.09q-48.965 0-90.632-22.59-41.666-22.585-67.231-59.28-9.957-11-8.283-25.474 1.673-14.473 12.673-23.565 12.696-11.353 30.631-9.614 17.935 1.739 31.284 13.304 14.173 21.695 38.315 34.847Q690.545 954.87 720 954.87q53.551 0 91.406-37.855 37.854-37.855 37.854-91.406 0-53.752-37.891-91.224-37.891-37.471-91.369-37.471-25.723 0-46.992 8.522-21.268 8.521-36.877 23.565h16.13q15.261 1.695 25.457 12.664 10.195 10.968 10.195 26.945 0 16.617-11.655 28.113-11.656 11.496-28.519 11.496H541.521q-16.706 0-28.158-11.451-11.451-11.451-11.451-28.158V661.827q0-16.618 11.326-28.113 11.327-11.496 28.566-11.496 14.978 0 25.739 9.63 10.761 9.631 13.022 23.761v15.695Q607 646.484 643 631.807t77-14.677q86.914 0 147.697 60.791 60.782 60.791 60.782 147.438 0 86.648-60.782 147.688-60.783 61.043-148.05 61.043Zm-534.56-162.047V282.218v589.825Zm459.826-429.825q12.75 0 21.375-8.676 8.625-8.675 8.625-21.5 0-12.824-8.625-21.324-8.625-8.5-21.375-8.5H315.087q-12.75 0-21.375 8.675-8.625 8.676-8.625 21.5 0 12.825 8.625 21.325t21.375 8.5h329.826ZM586.739 547.13H315.087q-12.75 0-21.375 8.676-8.625 8.675-8.625 21.5 0 12.824 8.625 21.324 8.625 8.5 21.375 8.5h186.956q18.218-17.883 39.624-33.159 21.406-15.275 45.072-26.841ZM434.174 712.043H315.087q-12.75 0-21.375 8.676-8.625 8.675-8.625 21.5 0 12.824 8.625 21.324 8.625 8.5 21.375 8.5h102.261q2.565-16 6.693-30.632 4.128-14.633 10.133-29.368ZM185.087 951.827q-32.677 0-55.948-23.437-23.27-23.436-23.27-56.347V282.218q0-32.678 23.27-55.948 23.271-23.271 55.948-23.271h589.826q32.91 0 56.347 23.271 23.436 23.27 23.436 55.948v266.13q-18.378-9.243-38.537-15.73-20.159-6.488-41.246-10.069V282.218H185.087v589.825h231.869q1.87 21.653 7.435 41.175 5.565 19.522 13.826 38.609h-253.13Z"/></svg>