<svg xmlns="http://www.w3.org/2000/svg" height="48" width="48"><path d="M13.95 29.25Q14.2 29.55 14.625 29.525Q15.05 29.5 15.35 29.2Q15.65 28.9 15.65 28.475Q15.65 28.05 15.35 27.75L12.6 24.95H28.5L25.7 27.8Q25.4 28.1 25.425 28.5Q25.45 28.9 25.75 29.2Q26.05 29.5 26.475 29.5Q26.9 29.5 27.2 29.2L31.55 24.85Q31.75 24.65 31.85 24.425Q31.95 24.2 31.95 23.9Q31.95 23.6 31.85 23.35Q31.75 23.1 31.55 22.9L27.15 18.5Q26.85 18.25 26.425 18.275Q26 18.3 25.75 18.55Q25.45 18.85 25.425 19.3Q25.4 19.75 25.75 20L28.5 22.8H12.6L15.4 19.95Q15.7 19.7 15.65 19.275Q15.6 18.85 15.35 18.55Q15.05 18.3 14.625 18.275Q14.2 18.25 13.85 18.55L9.55 22.9Q9.35 23.1 9.25 23.35Q9.15 23.6 9.15 23.9Q9.15 24.2 9.25 24.425Q9.35 24.65 9.55 24.85ZM8.5 38.85Q7.35 38.85 6.525 38.025Q5.7 37.2 5.7 36.05V11.95Q5.7 10.8 6.525 9.975Q7.35 9.15 8.5 9.15H32.6Q33.7 9.15 34.55 9.975Q35.4 10.8 35.4 11.95V22.4L41.1 16.65Q41.45 16.3 41.9 16.5Q42.35 16.7 42.35 17.15V30.8Q42.35 31.3 41.9 31.5Q41.45 31.7 41.1 31.3L35.4 25.6V36.05Q35.4 37.2 34.55 38.025Q33.7 38.85 32.6 38.85Z"/></svg>