<svg xmlns="http://www.w3.org/2000/svg" height="48" width="48"><path d="M29.95 30.35Q29.6 30.35 29.3 30.225Q29 30.1 28.8 29.85L23.15 24.2Q22.8 23.95 22.8 23.475Q22.8 23 23.15 22.65Q23.45 22.35 23.9 22.35Q24.35 22.35 24.7 22.65L29.95 27.95L41 16.9Q41.25 16.65 41.7 16.625Q42.15 16.6 42.55 16.9Q42.85 17.3 42.85 17.75Q42.85 18.2 42.55 18.5L31.15 29.85Q30.9 30.1 30.6 30.225Q30.3 30.35 29.95 30.35ZM12.65 44.85Q11.25 44.85 10.25 43.85Q9.25 42.85 9.25 41.45V6.55Q9.25 5.15 10.25 4.15Q11.25 3.15 12.65 3.15H31.35Q32.75 3.15 33.75 4.15Q34.75 5.15 34.75 6.55V12.75H32.55V10.05H11.45V37.95H32.55V35.25H34.75V41.45Q34.75 42.85 33.75 43.85Q32.75 44.85 31.35 44.85Z"/></svg>