<svg xmlns="http://www.w3.org/2000/svg" height="40" viewBox="0 -960 960 960" width="40"><path d="m262.851-261.956-100.532-55.768q-13.304-6.754-15.348-21.558-2.043-14.805 8.807-26.22l14.406-13.841q4.686-5.251 11.62-7.606 6.935-2.355 13.312-1.167l85.377 12.667 151.536-152.203L153.782-679.13q-17.405-9.653-20.637-28.667-3.232-19.015 11.503-33.749l11.104-11.105q7.204-7.204 16.997-10.131 9.793-2.928 20.83-1.073l375.972 96.203 158.71-156.232q20.313-20.174 48.309-20.174 27.995 0 48.546 20.285 20.174 20.662 20.174 48.333 0 27.672-20.174 47.846L667.652-569.362l95.102 373.928q2.521 11.322-.2 22.758-2.722 11.436-10.974 19.792l-5.903 5.526q-15.344 15.909-37.061 12.728-21.717-3.181-32.007-23.109L527.652-431.841l-150.971 152.58 11.768 80.681q.957 8.424-1.899 16.901-2.855 8.476-8.608 14.795l-6.131 5.565q-12.809 12.739-30.738 10.312-17.928-2.428-26.204-18.631l-52.018-92.318Z"/></svg>