<svg xmlns="http://www.w3.org/2000/svg" height="40" width="40"><path d="m19.958 21.625 2.75 2.75q.417.417 1 .417.584 0 1-.417.417-.417.417-.979 0-.563-.417-.979L22 19.708l2.708-2.75q.417-.375.417-.958t-.417-.958q-.375-.417-.937-.417-.563 0-.979.417l-2.75 2.75-2.75-2.75q-.417-.417-1-.417-.584 0-1 .417-.417.416-.417.979 0 .562.417.979l2.75 2.708-2.75 2.75q-.417.417-.417.959 0 .541.417.958.375.375.937.375.563 0 .979-.375ZM20 36.25q-.167 0-.333-.021-.167-.021-.292-.062-5.458-1.625-8.958-6.709-3.5-5.083-3.5-11.166v-7.959q0-.833.479-1.521.479-.687 1.229-.979l10.458-3.916q.459-.167.917-.167t.917.167l10.458 3.916q.75.292 1.229.979.479.688.479 1.521v7.959q0 6.083-3.5 11.166-3.5 5.084-8.958 6.709L20 36.25Z"/></svg>