<svg xmlns="http://www.w3.org/2000/svg" height="48" viewBox="0 -960 960 960" width="48"><path d="M706.23-665.23h-41.31l-48.86 48.86q-4.37 3.37-11.37 3.25-7-.11-11.23-5.34-5.23-4.23-5.23-11.35 0-7.11 5.23-12.34l24.08-23.08h-42.85q-7.69 0-12.57-4.79-4.89-4.78-4.89-12.34t4.89-12.29q4.88-4.73 12.57-4.73h42.85l-25.08-25.08q-4.46-3.46-4.84-10.96-.39-7.5 5.23-12.73 3.84-4.47 11.46-3.97 7.61.5 12.75 3.97l47.86 46.77h41.31v-39.31l-48.86-48.86q-4.37-3.37-3.75-11.37.61-8 4.84-12.23 5.23-5.23 12.35-4.73 7.11.5 11.34 4.73l24.08 25.07v-43.61q0-6.39 4.79-11.54 4.78-5.15 12.34-5.15 6.56 0 11.79 5.15 5.23 5.15 5.23 11.54v43.61l24.08-25.07q3.46-3.47 10.96-4.35 7.5-.88 12.73 4.35 4.23 4.23 4.73 11.34.5 7.12-3.63 12.26l-48.87 48.86v41.31h40.31l49.86-48.87q3.37-3.37 10.87-3.75 7.5-.38 12.73 3.85 4.23 5.23 4.23 12.34 0 7.12-5.23 11.35l-24.07 25.08h42.61q7.39 0 12.04 4.65 4.65 4.65 4.65 12.04 0 7.69-4.65 12.57-4.65 4.89-12.04 4.89h-42.61l24.07 24.08q4.47 4.46 4.85 11.46.38 7-3.85 11.23-5.23 5.23-12.34 5.23-7.12 0-11.26-4.14l-49.86-47.86h-40.31v40.31l48.87 49.86q3.37 3.37 3.25 10.87-.12 7.5-4.35 11.73-5.23 5.23-12.34 4.73-7.12-.5-11.35-5.73l-24.08-23.08v41.85q0 7.69-5.15 12.57-5.15 4.89-11.54 4.89-7.69 0-12.57-4.89-4.89-4.88-4.89-12.57v-41.85l-25.08 24.08q-3.46 4.46-10.46 4.84-7 .39-12.23-4.84-4.23-4.23-4.73-11.35-.5-7.11 4.64-12.25l47.86-48.86v-40.31ZM599.62-344.69 567-378.31v150.62q0 14.21-10.24 23.95-10.24 9.74-24.45 9.74H267.69q-14.21 0-23.95-9.74-9.74-9.74-9.74-23.95v-151.62l-25.92 25.93q-5.39 5.38-12.62 5-7.23-.39-14.61-8.77-6.39-5.39-6.39-14.62t6.39-15.61l172-170.47q19.49-20.23 47.17-20.23 27.67 0 47.9 20.23l179.93 178.93q5.38 6.38 5.38 15.96 0 9.58-8.38 18.27-5.49 5.15-13.17 4.77-7.68-.39-12.06-4.77ZM277.77-237.77h100.85v-77.61q0-8.83 6.28-15.61 6.28-6.78 15.11-6.78 8.84 0 15.61 6.78 6.76 6.78 6.76 15.61v77.61h100.85v-184.31L400-544.31 277.77-423.85v186.08Zm0 0H523.23 277.77Z"/></svg>