<svg xmlns="http://www.w3.org/2000/svg" height="48" width="48"><path d="M30 41.95q-6.1 0-10.625-3.425T13.4 29.6H7.65q-.7 0-1.125-.425Q6.1 28.75 6.1 28.1q0-.65.425-1.075.425-.425 1.125-.425h5.05q-.15-.55-.2-1.3-.05-.75-.05-1.3t.05-1.275q.05-.725.2-1.325H7.65q-.7 0-1.125-.425Q6.1 20.55 6.1 19.85q0-.6.425-1.025.425-.425 1.125-.425h5.75q1.65-5.75 6.05-9.05 4.4-3.3 10.55-3.3 2.9 0 5.525.825Q38.15 7.7 40.35 9.35q.65.5.7 1.325.05.825-.5 1.425-.55.5-1.25.525-.7.025-1.3-.425-1.75-1.25-3.825-1.875T30 9.7q-4.8 0-8.075 2.3-3.275 2.3-4.575 6.4H28.5q.6 0 1.05.425.45.425.45 1.025 0 .7-.45 1.125-.45.425-1.05.425H16.45q-.15.55-.225 1.275-.075.725-.075 1.325t.075 1.325q.075.725.225 1.275H28.5q.6 0 1.05.425.45.425.45 1.075 0 .65-.45 1.075-.45.425-1.05.425H17.35q1.25 4.25 4.725 6.475Q25.55 38.3 30 38.3q2.1 0 4.225-.625 2.125-.625 3.875-1.925.55-.4 1.225-.4t1.175.45q.6.6.55 1.475-.05.875-.75 1.325-2.35 1.7-4.95 2.525T30 41.95Z"/></svg>