<svg xmlns="http://www.w3.org/2000/svg" height="20" viewBox="0 -960 960 960" width="20"><path d="M586-156q-98 0-186-57.5T276-384h-95q-9 0-16-7t-7-16q0-9 7-16t16-7h85q0-6-2-23t-2-26q0-9 2-25t2-26h-85q-9 0-16-7t-7-16q0-9 7-16t16-7h95q33-104 119-166t191-62q53 0 104 15.5t98 52.5q5 6 7 14.5t-5 15.5q-8 8-14 4.5t-13-7.5q-42-29-85.5-44T586-768q-95 0-169 53.5T313-576h236q9 0 16 7t7 16q0 9-7 16t-16 7H300q-2 9-2 24.5v24.5q0 9 1 27t1 24h249q9 0 16 7t7 16q0 9-7 16t-16 7H314q33 94 108.5 143T586-192q47 0 92.5-16.5T763-253q7-5 12.5-7.5T789-255q7 8 6 16t-6 14q-47 38-98 53.5T586-156Z"/></svg>