<svg xmlns="http://www.w3.org/2000/svg" height="40" width="40"><path d="M22.958 35.875q-.166.125-.375.063-.208-.063-.291-.271l-3-6q-.125-.167-.042-.375.083-.209.25-.292.167-.083.375 0t.333.25l3 5.958q.125.167.021.375-.104.209-.271.292Zm10.042 0q-.167.083-.375.021-.208-.063-.292-.229l-3-6q-.125-.167-.041-.375.083-.209.25-.292.166-.125.375-.042.208.084.333.292l3 5.958q.125.167.021.375-.104.209-.271.292Zm-20.042 0q-.166.083-.396.042-.229-.042-.312-.25l-3-6q-.125-.167-.021-.375.104-.209.271-.292.167-.083.375-.021.208.063.292.271l3 5.958q.125.167.041.375-.083.209-.25.292Zm-.541-10.458q-3.334 0-5.667-2.334-2.333-2.333-2.333-5.666 0-3.125 2.145-5.417Q8.708 9.708 12 9.417q1.208-2.334 3.292-3.667Q17.375 4.417 20 4.417q3.542 0 6.021 2.375t2.854 5.916q3.25.125 4.979 2.021t1.729 4.354q0 2.625-1.854 4.479-1.854 1.855-4.479 1.855Z"/></svg>