<svg xmlns="http://www.w3.org/2000/svg" height="40" viewBox="0 -960 960 960" width="40"><path d="M456.3-456.3v139.72q0 10.25 7.01 17.23t17.05 6.98q10.04 0 16.93-6.98 6.89-6.98 6.89-17.23V-456.3h139.77q9.64 0 16.66-7.01t7.02-17.05q0-10.04-7.02-16.93-7.02-6.89-16.66-6.89H504.18v-139.77q0-9.64-7.05-16.66t-16.75-7.02q-10.3 0-17.19 7.02-6.89 7.02-6.89 16.66v139.77H316.58q-10.25 0-17.23 7.05t-6.98 16.75q0 10.3 6.98 17.19 6.98 6.89 17.23 6.89H456.3ZM204.37-144.27q-24.51 0-42.31-17.79-17.79-17.8-17.79-42.31v-551.26q0-24.51 17.79-42.31 17.8-17.79 42.31-17.79h551.26q24.51 0 42.31 17.79 17.79 17.8 17.79 42.31v551.26q0 24.51-17.79 42.31-17.8 17.79-42.31 17.79H204.37Zm.09-47.88h551.08q4.61 0 8.46-3.85 3.85-3.85 3.85-8.46v-551.08q0-4.61-3.85-8.46-3.85-3.85-8.46-3.85H204.46q-4.61 0-8.46 3.85-3.85 3.85-3.85 8.46v551.08q0 4.61 3.85 8.46 3.85 3.85 8.46 3.85Zm-12.31-575.7v575.7-575.7Z"/></svg>