<svg xmlns="http://www.w3.org/2000/svg" height="48" viewBox="0 -960 960 960" width="48"><path d="M480.17-323.17q-104.08 0-176.93-73.61-72.85-73.61-72.85-175.44 0-44.04 9.09-85.52 9.08-41.48 38.34-84.91 29.27-43.44 84.22-91.02 54.96-47.59 146.7-103.85 3 47.56 37.28 93.82 34.28 46.26 78.16 81.82 46.08 37.23 76.04 87.53 29.95 50.31 29.95 102.11 0 101.85-72.96 175.46-72.97 73.61-177.04 73.61Zm-.3-78.66q71.54 0 121.59-50.69 50.06-50.69 50.06-119.66 0-33.91-20.85-66.84-20.84-32.94-55.63-60.98-29.74-23.87-56.24-53.46-26.5-29.58-47.06-64.89-79.44 63.26-121.07 120.94-41.63 57.67-41.63 125.19 0 68.99 49.65 119.69t121.18 50.7Zm.7-208.26Zm-334.7 504.22 24.39-61.52q10.46-24.36 31.48-40.07t47.13-15.71h462.26q25.51 0 46.54 15.71 21.04 15.71 31.5 40.07l25.53 61.52H145.87Z"/></svg>