<svg xmlns="http://www.w3.org/2000/svg" height="48" viewBox="0 -960 960 960" width="48"><path d="M652.62-280v-127.77H464.85q-19.85 57.39-70.66 92.58Q343.38-280 280-280q-83.33 0-141.67-58.28Q80-396.56 80-479.82q0-83.26 58.33-141.72Q196.67-680 280-680q63.38 0 114.19 35.19 50.81 35.19 70.66 92.58h292.23v30.77H441.81q-8.27-40.69-50.69-84.23-42.43-43.54-111.12-43.54-70.56 0-119.89 49.3-49.34 49.3-49.34 119.81 0 70.5 49.34 119.93 49.33 49.42 119.89 49.42 68.69 0 111.12-43.54 42.42-43.54 50.37-84.23h244.36v127.77h71.23V-280H652.62ZM280-436.62q17.85 0 30.62-12.76 12.76-12.77 12.76-30.62t-12.76-30.62q-12.77-12.76-30.62-12.76t-30.62 12.76q-12.76 12.77-12.76 30.62t12.76 30.62q12.77 12.76 30.62 12.76Zm0-43.38Zm558.31 209.23q-9.77 0-17.12-7.49-7.34-7.5-7.34-17.27 0-9.78 7.49-17.12 7.5-7.35 17.27-7.35t17.12 7.49q7.35 7.5 7.35 17.27 0 9.78-7.5 17.12-7.49 7.35-17.27 7.35Zm-15.23-98.46v-183h30.77v183h-30.77Z"/></svg>