<svg xmlns="http://www.w3.org/2000/svg" height="40" viewBox="0 -960 960 960" width="40"><path d="M154.77-118.34q-32.51 0-56.2-23.47-23.7-23.48-23.7-56.42V-761.1q0-32.51 23.7-56.21Q122.26-841 154.77-841h650.46q32.51 0 56.2 23.69 23.7 23.7 23.7 56.21v562.87q0 32.94-23.7 56.42-23.69 23.47-56.2 23.47H154.77Zm0-67.58h650.46q4.62 0 8.46-3.85 3.85-3.85 3.85-8.46V-761.1q0-4.62-3.85-8.46-3.84-3.85-8.46-3.85H154.77q-4.62 0-8.46 3.85-3.85 3.84-3.85 8.46v562.87q0 4.61 3.85 8.46 3.84 3.85 8.46 3.85ZM360-279q16.07 0 27.53-11.27Q399-301.54 399-317.32q0-15.78-11.47-27.4-11.46-11.61-27.53-11.61h-95q-16.44 0-27.72 11.46Q226-333.4 226-317.33q0 15.78 11.28 27.06Q248.56-279 265-279h95Zm215.33-191.77-29.59-30.26q-11.65-10.92-27.44-10.8-15.79.11-26.88 11.42-11.53 11.65-11.11 27.61.41 15.95 11.67 26.54l55.76 55.77q11.23 12.03 27.4 12.03 16.18 0 28.45-12.03l134.1-134.1q10.92-10.74 11.12-26.34.19-15.6-10.91-27.81-12.03-11.31-27.85-11.31-15.82 0-27.13 11.31L575.33-470.77ZM360-440.67q16.07 0 27.53-11.4Q399-463.48 399-479.46t-11.47-27.26Q376.07-518 360-518h-95q-16.44 0-27.72 11.28Q226-495.44 226-479.46q0 15.98 11.28 27.39 11.28 11.4 27.72 11.4h95ZM360-603q16.07 0 27.53-11.27Q399-625.54 399-641.32q0-15.78-11.47-27.4-11.46-11.61-27.53-11.61h-95q-16.44 0-27.72 11.46Q226-657.4 226-641.33q0 15.78 11.28 27.06Q248.56-603 265-603h95ZM142.46-185.92v-587.49 587.49Z"/></svg>