<svg xmlns="http://www.w3.org/2000/svg" height="24" width="24"><path d="M11.525 19.95Q11.625 20.3 11.788 20.65Q11.95 21 12.175 21.3H5.4Q4.475 21.3 3.863 20.688Q3.25 20.075 3.25 19.15V4.45Q3.25 3.525 3.863 2.912Q4.475 2.3 5.4 2.3H16.05Q16.975 2.3 17.587 2.912Q18.2 3.525 18.2 4.45V11.3Q17.9 11.25 17.525 11.25Q17.15 11.25 16.85 11.3V4.45Q16.85 4.15 16.6 3.9Q16.35 3.65 16.05 3.65H11.85V10.2L9.65 8.9L7.4 10.2V3.65H5.4Q5.1 3.65 4.85 3.9Q4.6 4.15 4.6 4.45V19.15Q4.6 19.45 4.85 19.7Q5.1 19.95 5.4 19.95ZM17.5 22.1Q15.65 22.1 14.375 20.825Q13.1 19.55 13.1 17.7Q13.1 15.85 14.375 14.575Q15.65 13.3 17.5 13.3Q19.35 13.3 20.625 14.575Q21.9 15.85 21.9 17.7Q21.9 19.55 20.625 20.825Q19.35 22.1 17.5 22.1ZM16.525 19.9 18.875 17.65 16.525 15.4ZM7.4 3.65H9.65H11.85ZM11.525 3.65H5.4Q5.1 3.65 4.85 3.65Q4.6 3.65 4.6 3.65Q4.6 3.65 4.85 3.65Q5.1 3.65 5.4 3.65H7.4H9.65H11.85H16.05Q16.35 3.65 16.6 3.65Q16.85 3.65 16.85 3.65Q14.025 3.65 12.562 3.65Q11.1 3.65 11.1 3.65Q11.1 3.65 11.188 3.65Q11.275 3.65 11.525 3.65Z"/></svg>