<svg xmlns="http://www.w3.org/2000/svg" height="40" viewBox="0 -960 960 960" width="40"><path d="m562.55-121.19 246.41-77.5q-1.1-16.27-13.37-26.51-12.26-10.25-31-9.58H550.42q-16.96.66-32.95-2-15.99-2.67-31.79-7.97l-60.69-19.8q-15.31-3.23-21.79-17.65-6.49-14.41-2-29.76 4.48-15.22 18.3-22.11 13.83-6.9 29.43-1.8l59.37 19.45q10.37 3.77 22.24 5.2 11.87 1.43 33.76 1.48h41.69q0-17.66-12-30.46t-27.61-19.09l-225.37-84.25h-64.34v240.08l285.88 82.27Zm-22.42 85.48-263.46-75.06q-8.57 28.81-37 42.72-28.43 13.9-59.67 13.9h-68.72q-40.63 0-68.54-27.9-27.9-27.9-27.9-68.53v-285.98q0-40.63 27.9-68.54Q70.65-533 111.28-533h228.75q8.15 0 16.81 1.47 8.65 1.46 17.57 4.39l222.31 83.87q46.44 17.85 72.72 51.38t26.28 82.15h68.87q59.79 0 100.72 35.63 40.92 35.62 40.92 94.26 0 21.82-12.75 38.1-12.76 16.27-31.12 22.4L594.81-36.04q-14.33 3.66-27.69 3.48-13.36-.19-26.99-3.15ZM104.74-143.04h81.8v-301.5h-81.8v301.5Zm499.14-380.25-100.5-38.1v-24q-5.64-40.77-35.73-68.38-30.1-27.62-71.7-27.62-36.02 0-63.26 20.42-27.24 20.42-37.96 52H191.67q12.11-61.46 55.16-104.79 43.05-43.33 100.62-57.75v-75.37h-13.43q-19.27 0-32.92-13.7-13.65-13.69-13.65-34.48 0-20.35 14.14-34.3 14.15-13.96 33.74-13.96h180q30.4 0 65.01 13.07 34.62 13.08 58.94 30.06 10.15 7.05 16.46 17.74 6.32 10.7 6.32 21.41 0 20.66-14.19 34.6-14.18 13.95-34.3 13.95-10.12 0-18.62-4.19-8.5-4.19-16.3-9.99-15.65-10.42-32.55-15.32-16.9-4.89-30.77-4.89h-71.45v75.37q69.67 17.31 114.84 73.7 45.16 56.39 45.16 128.53v45.99Zm-208.55-54.48Zm386.89 3.62q-35.6 0-60.26-24.23-24.66-24.23-24.66-59.9 0-43.02 24.15-81.02 24.14-38 50.36-72.81 1.6-2.96 10.39-6.09-1.52 0 10.73 5.69 25.87 34.12 49.58 72.59 23.72 38.47 23.72 81.64 0 35.67-24.57 59.9-24.58 24.23-59.44 24.23Z"/></svg>