<svg xmlns="http://www.w3.org/2000/svg" height="24" width="24"><path d="m19.6 21.975-2.2-2.225h-11q-2.2 0-3.725-1.5t-1.525-3.7q0-1.925 1.35-3.463Q3.85 9.55 5.65 9.375q-.05-.175.063-.538.112-.362.287-.537L2.35 4.65q-.275-.25-.275-.575 0-.325.275-.575.25-.25.575-.25.325 0 .575.25l17.275 17.275q.275.275.275.588 0 .312-.275.587-.275.275-.587.275-.313 0-.588-.25Zm1.9-3.375L8.275 5.35q.9-.575 1.8-.838.9-.262 1.925-.262 2.625 0 4.55 1.75 1.925 1.75 2.2 4.425v1h.625q1.5.225 2.488 1.387.987 1.163.987 2.738 0 .875-.362 1.65-.363.775-.988 1.4Z"/></svg>