<svg xmlns="http://www.w3.org/2000/svg" height="48" width="48"><path d="M9.5 34q-.65 0-1.075-.45Q8 33.1 8.05 32.5q.55-6.2 5.075-10.35Q17.65 18 24 18t10.875 4.15Q39.4 26.3 39.95 32.5q.05.6-.375 1.05-.425.45-1.075.45-.6 0-1.05-.425-.45-.425-.55-1.075-.55-4.9-4.2-8.2Q29.05 21 24 21q-5.05 0-8.7 3.3-3.65 3.3-4.2 8.2-.1.65-.55 1.075Q10.1 34 9.5 34Zm-6 0q-.65 0-1.075-.45Q2 33.1 2.05 32.5q.3-4.3 2.125-8.025Q6 20.75 8.95 17.975t6.825-4.375Q19.65 12 24 12t8.225 1.6q3.875 1.6 6.825 4.375t4.775 6.5Q45.65 28.2 45.95 32.5q.05.6-.375 1.05-.425.45-1.075.45-.6 0-1.05-.425-.45-.425-.5-1.075-.55-7.4-5.975-12.45Q31.55 15 24 15t-12.975 5.05Q5.6 25.1 5.05 32.5q-.05.65-.475 1.075Q4.15 34 3.5 34Z"/></svg>