<svg xmlns="http://www.w3.org/2000/svg" height="40" viewBox="0 -960 960 960" width="40"><path d="M480-78.67 320.1-238.56l47.39-47.26 79.05 79.31v-200.8q-69.67-12.97-117.27-65.37-47.6-52.4-47.6-130.32 0-82.91 57.68-140.62 57.68-57.71 140.55-57.71t140.98 57.71Q679-685.91 679-603q0 77.92-47.94 130.32-47.93 52.4-116.93 65.37v200.8l78.64-79.44 47.13 47.39L480-78.67Zm.05-392.92q54.15 0 92.76-38.34 38.6-38.35 38.6-93.11 0-54.49-38.65-92.6-38.65-38.1-92.81-38.1-54.15 0-92.42 38.22t-38.27 92.8q0 54.59 38.15 92.86 38.15 38.27 92.64 38.27ZM480-603Z"/></svg>