<svg xmlns="http://www.w3.org/2000/svg" height="20" viewBox="0 -960 960 960" width="20"><path d="M308-373h179.92q10.88 0 17.98-6.94t7.1-17.44v-1.37q0-10.5-7.23-17.88Q498.55-424 488-424H308.08q-10.88 0-17.73 7.19t-6.85 17.69v1.37q0 10.5 6.98 17.62Q297.45-373 308-373Zm330.5 0H652q10.05 0 17.28-6.96 7.22-6.97 7.22-17.5v-164.76q0-10.03-7.22-17.41Q662.05-587 652-587h-13.5q-10.55 0-17.78 7.21-7.22 7.22-7.22 17.25v164.76q0 10.53 7.22 17.65 7.23 7.13 17.78 7.13ZM308-536h179.92q10.88 0 17.98-7.19t7.1-17.69v-1.37q0-10-7.23-17.38Q498.55-587 488-587H308.08q-10.88 0-17.73 7.19t-6.85 17.19v1.37q0 10.5 6.98 17.87Q297.45-536 308-536ZM202.5-248.5q-21.2 0-35.35-14.16Q153-276.82 153-298.04v-364.24q0-21.22 14.15-35.22t35.35-14h555q21.2 0 35.35 14.16Q807-683.18 807-661.96v364.24q0 21.22-14.15 35.22t-35.35 14h-555Z"/></svg>