<svg xmlns="http://www.w3.org/2000/svg" height="40" width="40"><path d="M4.917 32.625q-1.542 0-2.688-1.146-1.146-1.146-1.146-2.687V11.208q0-1.541 1.146-2.687t2.688-1.146H22.5q1.542 0 2.688 1.146 1.145 1.146 1.145 2.687v17.584q0 1.541-1.145 2.687-1.146 1.146-2.688 1.146Zm26.125 0q-.709 0-1.146-.458-.438-.459-.438-1.167V8.958q0-.666.459-1.125.458-.458 1.125-.458.666 0 1.125.458.458.459.458 1.125V31q0 .708-.458 1.167-.459.458-1.125.458Zm6.291 0q-.708 0-1.166-.458-.459-.459-.459-1.167V8.958q0-.666.459-1.125.458-.458 1.125-.458.708 0 1.166.458.459.459.459 1.125V31q0 .708-.459 1.167-.458.458-1.125.458Zm-32-6.5q1.917-1.25 3.959-1.875 2.041-.625 4.416-.625 2.375 0 4.417.625t3.958 1.875v-14.5H5.333Zm8.375-4.083q-1.916 0-3.229-1.313-1.312-1.312-1.312-3.187 0-1.917 1.312-3.23Q11.792 13 13.708 13q1.917 0 3.23 1.312 1.312 1.313 1.312 3.23 0 1.875-1.312 3.187-1.313 1.313-3.23 1.313Z"/></svg>