<svg xmlns="http://www.w3.org/2000/svg" height="40" width="40"><path d="M4.875 32.083Q3.542 32.083 2.542 31.104Q1.542 30.125 1.542 28.792V11.208Q1.542 9.875 2.542 8.875Q3.542 7.875 4.875 7.875H22.458Q23.792 7.875 24.792 8.875Q25.792 9.875 25.792 11.208V28.792Q25.792 30.125 24.792 31.104Q23.792 32.083 22.458 32.083ZM13.792 28.583Q13.792 28.583 13.792 28.583Q13.792 28.583 13.792 28.583Q13.792 28.583 13.792 28.583Q13.792 28.583 13.792 28.583ZM5.083 26.292Q7.042 25.042 9.167 24.417Q11.292 23.792 13.667 23.792Q16.042 23.792 18.167 24.417Q20.292 25.042 22.25 26.292V11.417H5.083ZM30.625 32.083Q30 32.083 29.583 31.667Q29.167 31.25 29.167 30.625V9.333Q29.167 8.75 29.583 8.312Q30 7.875 30.625 7.875Q31.25 7.875 31.688 8.312Q32.125 8.75 32.125 9.333V30.625Q32.125 31.25 31.688 31.667Q31.25 32.083 30.625 32.083ZM36.958 32.083Q36.333 32.083 35.917 31.667Q35.5 31.25 35.5 30.625V9.333Q35.5 8.75 35.917 8.312Q36.333 7.875 36.958 7.875Q37.583 7.875 38.021 8.312Q38.458 8.75 38.458 9.333V30.625Q38.458 31.25 38.021 31.667Q37.583 32.083 36.958 32.083ZM13.667 22.042Q11.792 22.042 10.458 20.729Q9.125 19.417 9.125 17.542Q9.125 15.625 10.458 14.312Q11.792 13 13.667 13Q15.542 13 16.875 14.312Q18.208 15.625 18.208 17.542Q18.208 19.417 16.875 20.729Q15.542 22.042 13.667 22.042ZM13.667 17.542Q13.667 17.542 13.667 17.542Q13.667 17.542 13.667 17.542Q13.667 17.542 13.667 17.542Q13.667 17.542 13.667 17.542Q13.667 17.542 13.667 17.542Q13.667 17.542 13.667 17.542Q13.667 17.542 13.667 17.542Q13.667 17.542 13.667 17.542ZM6.5 28.583H20.875Q19.208 27.458 17.396 26.938Q15.583 26.417 13.667 26.417Q11.625 26.417 9.875 26.938Q8.125 27.458 6.5 28.583ZM13.667 19.708Q14.583 19.708 15.208 19.083Q15.833 18.458 15.833 17.542Q15.833 16.625 15.208 16Q14.583 15.375 13.667 15.375Q12.75 15.375 12.125 16Q11.5 16.625 11.5 17.542Q11.5 18.458 12.125 19.083Q12.75 19.708 13.667 19.708Z"/></svg>