<svg xmlns="http://www.w3.org/2000/svg" height="48" width="48"><path d="M11.1 44q-2.2 0-3.725-1.525T5.85 38.75V34q0-.65.425-1.075Q6.7 32.5 7.35 32.5h4.85V5.3q0-.5.4-.5t.8.4L15.2 7l2.45-2.45q.25-.25.55-.25.3 0 .55.25L21.15 7l2.45-2.45q.25-.25.55-.25.3 0 .55.25L27.15 7l2.45-2.45q.25-.25.55-.25.3 0 .55.25L33.15 7l2.45-2.45q.25-.25.55-.25.3 0 .55.25L39.15 7l1.8-1.8q.4-.4.8-.4t.4.5v33.45q0 2.2-1.525 3.725T36.9 44Zm25.8-3q1 0 1.625-.625t.625-1.625V9H15.2v23.5h17.95q.65 0 1.075.425.425.425.425 1.075v4.75q0 1 .625 1.625T36.9 41ZM19.3 16.9q-.6 0-1.025-.45-.425-.45-.425-1.1 0-.6.425-1.025.425-.425 1.075-.425h9q.65 0 1.075.425.425.425.425 1.075 0 .65-.425 1.075-.425.425-1.075.425Zm0 6.7q-.6 0-1.025-.45-.425-.45-.425-1.1 0-.6.425-1.025.425-.425 1.075-.425h9q.65 0 1.075.425.425.425.425 1.075 0 .65-.425 1.075-.425.425-1.075.425Zm15.2-6.7q-.6 0-1.05-.45Q33 16 33 15.4q0-.6.45-1.05.45-.45 1.05-.45.6 0 1.05.45.45.45.45 1.05 0 .6-.45 1.05-.45.45-1.05.45Zm0 6.45q-.6 0-1.05-.45-.45-.45-.45-1.05 0-.6.45-1.05.45-.45 1.05-.45.6 0 1.05.45.45.45.45 1.05 0 .6-.45 1.05-.45.45-1.05.45ZM11.05 41h20.6v-5.5H8.85v3.25q0 1 .625 1.625T11.05 41Zm-2.2 0v-5.5V41Z"/></svg>