<svg xmlns="http://www.w3.org/2000/svg" height="24" width="24"><path d="M19.3 21.325 16.95 18.95Q16.75 19.125 16.488 19.225Q16.225 19.325 15.925 19.325H4.725Q4.025 19.325 3.525 18.825Q3.025 18.325 3.025 17.6V6.425Q3.025 6.1 3.113 5.862Q3.2 5.625 3.375 5.425L2.275 4.325Q2.1 4.125 2.1 3.85Q2.1 3.575 2.3 3.35Q2.525 3.15 2.812 3.15Q3.1 3.15 3.3 3.35L20.3 20.375Q20.5 20.575 20.5 20.85Q20.5 21.125 20.275 21.325Q20.075 21.55 19.788 21.55Q19.5 21.55 19.3 21.325ZM17.675 15.05 7.3 4.675H15.95Q16.675 4.675 17.175 5.175Q17.675 5.675 17.675 6.4V10.975L20.325 8.3Q20.55 8.075 20.812 8.188Q21.075 8.3 21.075 8.6V15.375Q21.075 15.675 20.812 15.787Q20.55 15.9 20.325 15.675L17.675 13.025Z"/></svg>