<svg xmlns="http://www.w3.org/2000/svg" height="24" width="24"><path d="m21.25 15.9-2.55-2.525v2.2l-3.025-3.025V6.4H9.5L6.475 3.375h9.2q1.275 0 2.15.875T18.7 6.4v4.2l2.55-2.55q.375-.375.85-.162.475.212.475.712v6.75q0 .525-.475.725-.475.2-.85-.175Zm-1.375 6.725L1.25 3.975Q.9 3.65.913 3.2q.012-.45.362-.8.35-.35.8-.35.45 0 .8.35l18.65 18.65q.325.35.313.812-.013.463-.338.788-.35.35-.812.338-.463-.013-.813-.363Zm-7.25-13.1ZM3.85 3.375 6.875 6.4h-2.4v11.2h11.2v-2.4l2.925 2.925v.1q-.2 1.05-1.025 1.725t-1.95.675H4.475q-1.275 0-2.15-.875T1.45 17.6V6.4q0-1.1.675-1.937.675-.838 1.725-1.038ZM9.625 12.4Z"/></svg>