<svg xmlns="http://www.w3.org/2000/svg" height="40" viewBox="0 -960 960 960" width="40"><path d="M534.9-210.46q-15.88 0-26.71-11.02-10.83-11.03-10.83-26.52v-464.32q0-14.89 10.83-26.05 10.83-11.17 26.71-11.17h74.82q15.49 0 26.51 11.02 11.03 11.03 11.03 26.52v464.32q0 14.89-11.03 26.05-11.02 11.17-26.51 11.17H534.9Zm-184.62 0q-15.49 0-26.51-11.02-11.03-11.03-11.03-26.52v-464.32q0-14.89 11.03-26.05 11.02-11.17 26.51-11.17h75.49q15.49 0 26.51 11.02 11.03 11.03 11.03 26.52v464.32q0 14.89-11.03 26.05-11.02 11.17-26.51 11.17h-75.49Zm-183.61 0q-18.17 0-27.85-11.19-9.69-11.19-9.69-26.35v-464.32q0-15.66 10.21-26.44 10.21-10.78 27.33-10.78h74.48q15.5 0 26.52 11.02 11.02 11.03 11.02 26.52v464.32q0 14.89-11.02 26.05-11.02 11.17-26.52 11.17h-74.48Zm552.18 0q-15.5 0-26.52-11.02-11.02-11.03-11.02-26.52v-464.32q0-14.89 11.02-26.05 11.02-11.17 26.52-11.17h74.48q17.12 0 27.33 10.21 10.21 10.22 10.21 27.33v463.68q0 21.71-11.19 29.78-11.18 8.08-26.35 8.08h-74.48Z"/></svg>