<svg xmlns="http://www.w3.org/2000/svg" height="40" width="40"><path d="M23.208 14.792q0-.167.125-.354.125-.188.334-.313 1.25-.542 2.625-.812 1.375-.271 2.875-.271.875 0 1.645.083.771.083 1.563.25.25.042.417.25.166.208.166.5 0 .417-.25.625-.25.208-.666.083-.709-.125-1.417-.208-.708-.083-1.458-.083-1.292 0-2.521.25-1.229.25-2.354.708-.459.208-.771 0-.313-.208-.313-.708Zm0 9.125q0-.209.125-.417t.334-.292q1.25-.541 2.645-.812 1.396-.271 2.855-.271.833 0 1.625.083.791.084 1.625.25.208.084.375.292.166.208.166.458 0 .417-.27.625-.271.209-.646.125-.709-.166-1.417-.25-.708-.083-1.458-.083-1.292 0-2.521.25-1.229.25-2.313.708-.5.209-.812.021-.313-.187-.313-.687Zm0-4.542q0-.208.125-.417.125-.208.334-.291 1.25-.542 2.625-.813 1.375-.271 2.875-.271.833 0 1.625.084.791.083 1.625.291.208.042.375.25.166.209.166.459 0 .416-.27.625-.271.208-.646.125-.709-.167-1.417-.25-.708-.084-1.458-.084-1.292 0-2.5.271-1.209.271-2.334.729-.5.209-.812 0-.313-.208-.313-.708Zm-12.541 7.708q2.208 0 4.291.5 2.084.5 4.084 1.584V12.208q-1.792-1.25-4-1.916-2.209-.667-4.417-.667-1.5 0-2.813.292-1.312.291-2.77.791-.209.084-.271.209-.063.125-.063.25v16.416q0 .209.146.313.146.104.354.062 1.084-.458 2.479-.666 1.396-.209 2.98-.209Zm10.375 2.084q2.041-1.084 4.062-1.584 2.021-.5 4.229-.5 1.542 0 2.979.209 1.438.208 2.48.541.208.084.354-.021.146-.104.146-.312V11.167q0-.125-.063-.25-.062-.125-.271-.209-1.375-.583-2.708-.833-1.333-.25-2.875-.25-2.25 0-4.375.667-2.125.666-3.958 1.958Zm-9.167-9.75Zm8.167 12.291q-.292 0-.563-.062-.271-.063-.479-.229-1.917-1.125-4.021-1.729-2.104-.605-4.354-.605-1.333 0-2.667.292-1.333.292-2.625.75-.958.417-1.791-.167-.834-.583-.834-1.625V10.958q0-.625.313-1.145.312-.521.896-.813Q5.5 8.292 7.208 7.958q1.709-.333 3.417-.333 2.542 0 4.937.708 2.396.709 4.48 2.125 2.083-1.416 4.458-2.125 2.375-.708 4.875-.708 1.708 0 3.396.354 1.687.354 3.271 1.021.625.292.937.813.313.52.313 1.145v17.375q0 1.084-.896 1.646-.896.563-1.854.104-1.25-.458-2.542-.729-1.292-.271-2.625-.271-2.208 0-4.292.605-2.083.604-3.958 1.729-.25.166-.521.229-.271.062-.562.062Z"/></svg>