<svg xmlns="http://www.w3.org/2000/svg" version="1.1" width="3300" height="2000"><g id="Notes"><style>
    text {
      font-family: monospace;
      text-anchor: middle;
    }
    text.emphasis {
      font-weight:bold;
    }
    text.lanchor {
      text-anchor: start;
    }
  </style><rect height="2200" id="artboard" fill="white" width="3300" x="0" y="0"/><line id="" style="fill:none;stroke:black;stroke-width:0.5;" x1="263" x2="3036" y1="292" y2="292"/><text class="lanchor emphasis" transform="matrix(1 0 0 1 263 322)">Weight/Scale Variations</text><text transform="matrix(1 0 0 1 559.711 322)">Ultralight</text><text transform="matrix(1 0 0 1 856.422 322)">Thin</text><text transform="matrix(1 0 0 1 1153.13 322)">Light</text><text transform="matrix(1 0 0 1 1449.84 322)">Regular</text><text transform="matrix(1 0 0 1 1746.56 322)">Medium</text><text transform="matrix(1 0 0 1 2043.27 322)">Semibold</text><text transform="matrix(1 0 0 1 2339.98 322)">Bold</text><text transform="matrix(1 0 0 1 2636.69 322)">Heavy</text><text transform="matrix(1 0 0 1 2933.4 322)">Black</text><text id="template-version" style="text-anchor: end;" transform="matrix(1 0 0 1 3036 1933)">Template v.1.0</text><text class="lanchor" transform="matrix(1 0 0 1 263 726)">Small</text><text class="lanchor" transform="matrix(1 0 0 1 263 1156)">Medium</text><text class="lanchor" transform="matrix(1 0 0 1 263 1586)">Large</text></g><g id="Guides"><g id="H-reference" style="fill:#27AAE1;stroke:none;" transform="matrix(1 0 0 1 339 696)"><path d="M 54.9316 0 L 57.666 0 L 30.5664 -70.459 L 28.0762 -70.459 L 0.976562 0 L 3.66211 0 L 12.9395 -24.4629 L 45.7031 -24.4629 Z M 29.1992 -67.0898 L 29.4434 -67.0898 L 44.8242 -26.709 L 13.8184 -26.709 Z"/></g><line id="Baseline-S" style="fill:none;stroke:#27AAE1;opacity:1;stroke-width:0.577;" x1="263" x2="3036" y1="696" y2="696"/><line id="Capline-S" style="fill:none;stroke:#27AAE1;opacity:1;stroke-width:0.577;" x1="263" x2="3036" y1="625.541" y2="625.541"/><g id="H-reference" style="fill:#27AAE1;stroke:none;" transform="matrix(1 0 0 1 339 1126)"><path d="M 54.9316 0 L 57.666 0 L 30.5664 -70.459 L 28.0762 -70.459 L 0.976562 0 L 3.66211 0 L 12.9395 -24.4629 L 45.7031 -24.4629 Z M 29.1992 -67.0898 L 29.4434 -67.0898 L 44.8242 -26.709 L 13.8184 -26.709 Z"/></g><line id="Baseline-M" style="fill:none;stroke:#27AAE1;opacity:1;stroke-width:0.577;" x1="263" x2="3036" y1="1126" y2="1126"/><line id="Capline-M" style="fill:none;stroke:#27AAE1;opacity:1;stroke-width:0.577;" x1="263" x2="3036" y1="1055.54" y2="1055.54"/><g id="H-reference" style="fill:#27AAE1;stroke:none;" transform="matrix(1 0 0 1 339 1556)"><path d="M 54.9316 0 L 57.666 0 L 30.5664 -70.459 L 28.0762 -70.459 L 0.976562 0 L 3.66211 0 L 12.9395 -24.4629 L 45.7031 -24.4629 Z M 29.1992 -67.0898 L 29.4434 -67.0898 L 44.8242 -26.709 L 13.8184 -26.709 Z"/></g><line id="Baseline-L" style="fill:none;stroke:#27AAE1;opacity:1;stroke-width:0.577;" x1="263" x2="3036" y1="1556" y2="1556"/><line id="Capline-L" style="fill:none;stroke:#27AAE1;opacity:1;stroke-width:0.577;" x1="263" x2="3036" y1="1485.54" y2="1485.54"/><rect height="119.336" id="left-margin" style="fill:darkred;stroke:none;opacity:0.4;" width="12.4512" x="1394.06" y="1030.79"/><rect height="119.336" id="right-margin" style="fill:darkgreen;stroke:none;opacity:0.4;" width="12.4512" x="1502.5112" y="1030.79"/><rect x="1406.5112" y="1045" width="96" height="96" fill="none" stroke="blue" stroke-dasharray="5"/><rect x="1394.06" y="1030.79" width="120.9024" height="119.336" fill="none" stroke="blue"/></g><g id="Symbols"><g id="Bold-L" transform="matrix(1 0 0 1 2266 1556)"><path d="M47.891 0.084 H66.435 L96.75 -54.58 H106.909 Q110.268 -54.58 112.62 -56.918 Q114.971 -59.256 114.971 -62.642 Q114.971 -66.029 112.62 -68.367 Q110.268 -70.705 106.909 -70.705 H88.365 L58.05 -16.041 H47.891 Q44.666 -16.041 42.248 -13.69 Q39.829 -11.338 39.829 -7.979 Q39.829 -4.592 42.248 -2.254 Q44.666 0.084 47.891 0.084 Z M30.476 26.851 Q24.179 26.851 19.748 22.422 Q15.319 17.991 15.319 11.694 V-82.154 Q15.319 -88.517 19.748 -92.995 Q24.179 -97.472 30.476 -97.472 H124.324 Q130.687 -97.472 135.165 -92.995 Q139.643 -88.517 139.643 -82.154 V11.694 Q139.643 17.991 135.165 22.422 Q130.687 26.851 124.324 26.851 H30.476 Z M30.476 11.694 H124.324 Q124.324 11.694 124.324 11.694 Q124.324 11.694 124.324 11.694 V-82.154 Q124.324 -82.154 124.324 -82.154 Q124.324 -82.154 124.324 -82.154 H30.476 Q30.476 -82.154 30.476 -82.154 Q30.476 -82.154 30.476 -82.154 V11.694 Q30.476 11.694 30.476 11.694 Q30.476 11.694 30.476 11.694 Z"/></g><g id="Semibold-L" transform="matrix(1 0 0 1 1970.27 1556)"><path d="M46.7 0.855 H66.014 L97.171 -55.281 H108.1 Q111.459 -55.281 113.812 -57.653 Q116.163 -60.027 116.163 -63.378 Q116.163 -66.73 113.812 -69.068 Q111.459 -71.406 108.1 -71.406 H88.786 L57.629 -15.27 H46.7 Q43.475 -15.27 41.056 -12.918 Q38.637 -10.567 38.637 -7.208 Q38.637 -3.891 41.056 -1.519 Q43.475 0.855 46.7 0.855 Z M29.846 25.098 Q24.604 25.098 20.837 21.333 Q17.072 17.566 17.072 12.324 V-82.784 Q17.072 -88.064 20.837 -91.856 Q24.604 -95.65 29.846 -95.65 H124.954 Q130.234 -95.65 134.026 -91.856 Q137.82 -88.064 137.82 -82.784 V12.324 Q137.82 17.566 134.026 21.333 Q130.234 25.098 124.954 25.098 H29.846 Z M29.846 12.324 H124.954 Q124.954 12.324 124.954 12.324 Q124.954 12.324 124.954 12.324 V-82.784 Q124.954 -82.784 124.954 -82.784 Q124.954 -82.784 124.954 -82.784 H29.846 Q29.846 -82.784 29.846 -82.784 Q29.846 -82.784 29.846 -82.784 V12.324 Q29.846 12.324 29.846 12.324 Q29.846 12.324 29.846 12.324 Z"/></g><g id="Medium-L" transform="matrix(1 0 0 1 1674.31 1556)"><path d="M45.806 1.433 H65.698 L97.487 -55.807 H108.994 Q112.354 -55.807 114.705 -58.207 Q117.056 -60.606 117.056 -63.931 Q117.056 -67.256 114.705 -69.594 Q112.354 -71.932 108.994 -71.932 H89.102 L57.313 -14.692 H45.806 Q42.581 -14.692 40.163 -12.341 Q37.744 -9.988 37.744 -6.629 Q37.744 -3.365 40.163 -0.966 Q42.581 1.433 45.806 1.433 Z M29.372 23.784 Q24.921 23.784 21.654 20.516 Q18.386 17.249 18.386 12.798 V-83.258 Q18.386 -87.725 21.654 -91.003 Q24.921 -94.283 29.372 -94.283 H125.428 Q129.895 -94.283 133.173 -91.003 Q136.453 -87.725 136.453 -83.258 V12.798 Q136.453 17.249 133.173 20.516 Q129.895 23.784 125.428 23.784 H29.372 Z M29.372 12.798 H125.428 Q125.428 12.798 125.428 12.798 Q125.428 12.798 125.428 12.798 V-83.258 Q125.428 -83.258 125.428 -83.258 Q125.428 -83.258 125.428 -83.258 H29.372 Q29.372 -83.258 29.372 -83.258 Q29.372 -83.258 29.372 -83.258 V12.798 Q29.372 12.798 29.372 12.798 Q29.372 12.798 29.372 12.798 Z"/></g><g id="Regular-L" transform="matrix(1 0 0 1 1378.56 1556)"><path d="M45.15 1.858 H65.468 L97.718 -56.192 H109.65 Q113.009 -56.192 115.361 -58.611 Q117.713 -61.03 117.713 -64.336 Q117.713 -67.641 115.361 -69.979 Q113.009 -72.317 109.65 -72.317 H89.332 L57.083 -14.267 H45.15 Q41.925 -14.267 39.506 -11.916 Q37.087 -9.564 37.087 -6.205 Q37.087 -2.98 39.506 -0.561 Q41.925 1.858 45.15 1.858 Z M29.025 22.82 Q25.155 22.82 22.253 19.918 Q19.35 17.015 19.35 13.145 V-83.605 Q19.35 -87.475 22.253 -90.377 Q25.155 -93.28 29.025 -93.28 H125.775 Q129.645 -93.28 132.548 -90.377 Q135.45 -87.475 135.45 -83.605 V13.145 Q135.45 17.015 132.548 19.918 Q129.645 22.82 125.775 22.82 H29.025 Z M29.025 13.145 H125.775 Q125.775 13.145 125.775 13.145 Q125.775 13.145 125.775 13.145 V-83.605 Q125.775 -83.605 125.775 -83.605 Q125.775 -83.605 125.775 -83.605 H29.025 Q29.025 -83.605 29.025 -83.605 Q29.025 -83.605 29.025 -83.605 V13.145 Q29.025 13.145 29.025 13.145 Q29.025 13.145 29.025 13.145 Z"/></g><g id="Light-L" transform="matrix(1 0 0 1 1082.77 1556)"><path d="M45.15 -0.561 H64.227 L96.477 -58.611 H109.65 Q112.012 -58.611 113.652 -60.287 Q115.294 -61.96 115.294 -64.305 Q115.294 -66.65 113.652 -68.273 Q112.012 -69.899 109.65 -69.899 H90.573 L58.323 -11.849 H45.15 Q42.855 -11.849 41.182 -10.207 Q39.506 -8.567 39.506 -6.205 Q39.506 -3.91 41.182 -2.237 Q42.855 -0.561 45.15 -0.561 Z M31.878 19.595 Q28.083 19.595 25.329 16.841 Q22.575 14.087 22.575 10.292 V-80.752 Q22.575 -84.547 25.329 -87.301 Q28.083 -90.055 31.878 -90.055 H122.922 Q126.717 -90.055 129.471 -87.301 Q132.225 -84.547 132.225 -80.752 V10.292 Q132.225 14.087 129.471 16.841 Q126.717 19.595 122.922 19.595 H31.878 Z M31.878 12.276 H122.922 Q123.666 12.276 124.287 11.657 Q124.906 11.036 124.906 10.292 V-80.752 Q124.906 -81.496 124.287 -82.117 Q123.666 -82.736 122.922 -82.736 H31.878 Q31.134 -82.736 30.513 -82.117 Q29.894 -81.496 29.894 -80.752 V10.292 Q29.894 11.036 30.513 11.657 Q31.134 12.276 31.878 12.276 Z"/></g><g id="Thin-L" transform="matrix(1 0 0 1 787.282 1556)"><path d="M45.15 -2.98 H62.987 L95.237 -61.03 H109.65 Q111.014 -61.03 111.945 -61.96 Q112.875 -62.891 112.875 -64.274 Q112.875 -65.656 111.945 -66.569 Q111.014 -67.48 109.65 -67.48 H91.813 L59.563 -9.43 H45.15 Q43.786 -9.43 42.855 -8.5 Q41.925 -7.569 41.925 -6.205 Q41.925 -4.841 42.855 -3.91 Q43.786 -2.98 45.15 -2.98 Z M34.73 16.37 Q31.013 16.37 28.406 13.764 Q25.8 11.157 25.8 7.44 V-77.9 Q25.8 -81.617 28.406 -84.224 Q31.013 -86.83 34.73 -86.83 H120.07 Q123.787 -86.83 126.394 -84.224 Q129 -81.617 129 -77.9 V7.44 Q129 11.157 126.394 13.764 Q123.787 16.37 120.07 16.37 H34.73 Z M34.73 11.408 H120.07 Q121.558 11.408 122.798 10.168 Q124.038 8.928 124.038 7.44 V-77.9 Q124.038 -79.388 122.798 -80.628 Q121.558 -81.868 120.07 -81.868 H34.73 Q33.242 -81.868 32.002 -80.628 Q30.762 -79.388 30.762 -77.9 V7.44 Q30.762 8.928 32.002 10.168 Q33.242 11.408 34.73 11.408 Z"/></g><g id="Ultralight-L" transform="matrix(1 0 0 1 491.205 1556)"><path d="M45.15 -4.431 H62.242 L94.493 -62.481 H109.65 Q110.416 -62.481 110.921 -62.965 Q111.424 -63.449 111.424 -64.255 Q111.424 -65.061 110.921 -65.545 Q110.416 -66.029 109.65 -66.029 H92.558 L60.308 -7.979 H45.15 Q44.344 -7.979 43.86 -7.476 Q43.376 -6.971 43.376 -6.205 Q43.376 -5.399 43.86 -4.915 Q44.344 -4.431 45.15 -4.431 Z M36.443 14.435 Q32.771 14.435 30.252 11.918 Q27.735 9.399 27.735 5.728 V-76.187 Q27.735 -79.861 30.252 -82.378 Q32.771 -84.895 36.443 -84.895 H118.358 Q122.031 -84.895 124.548 -82.378 Q127.065 -79.861 127.065 -76.187 V5.728 Q127.065 9.399 124.548 11.918 Q122.031 14.435 118.358 14.435 H36.443 Z M36.443 10.888 H118.358 Q120.293 10.888 121.905 9.275 Q123.517 7.663 123.517 5.728 V-76.187 Q123.517 -78.122 121.905 -79.735 Q120.293 -81.347 118.358 -81.347 H36.443 Q34.508 -81.347 32.895 -79.735 Q31.283 -78.122 31.283 -76.187 V5.728 Q31.283 7.663 32.895 9.275 Q34.508 10.888 36.443 10.888 Z"/></g><g id="Bold-M" transform="matrix(1 0 0 1 2281.8 1126)"><path d="M37.875 -6.98 H52.5 L75.5 -48.48 H82.125 Q85.25 -48.48 87.438 -50.667 Q89.625 -52.855 89.625 -55.98 Q89.625 -59.105 87.438 -61.292 Q85.25 -63.48 82.125 -63.48 H67.5 L44.5 -21.98 H37.875 Q34.75 -21.98 32.562 -19.792 Q30.375 -17.605 30.375 -14.48 Q30.375 -11.355 32.562 -9.167 Q34.75 -6.98 37.875 -6.98 Z M26.5 14.02 Q19.875 14.02 15.312 9.458 Q10.75 4.895 10.75 -1.73 V-68.73 Q10.75 -75.355 15.312 -79.917 Q19.875 -84.48 26.5 -84.48 H93.5 Q100.125 -84.48 104.688 -79.917 Q109.25 -75.355 109.25 -68.73 V-1.73 Q109.25 4.895 104.688 9.458 Q100.125 14.02 93.5 14.02 H26.5 Z M26.5 -1.73 H93.5 Q93.5 -1.73 93.5 -1.73 Q93.5 -1.73 93.5 -1.73 V-68.73 Q93.5 -68.73 93.5 -68.73 Q93.5 -68.73 93.5 -68.73 H26.5 Q26.5 -68.73 26.5 -68.73 Q26.5 -68.73 26.5 -68.73 V-1.73 Q26.5 -1.73 26.5 -1.73 Q26.5 -1.73 26.5 -1.73 Z"/></g><g id="Semibold-M" transform="matrix(1 0 0 1 1985.97 1126)"><path d="M36.625 -6.219 H52.065 L75.935 -49.241 H83.375 Q86.5 -49.241 88.688 -51.429 Q90.875 -53.616 90.875 -56.741 Q90.875 -59.866 88.688 -62.054 Q86.5 -64.241 83.375 -64.241 H67.935 L44.065 -21.219 H36.625 Q33.5 -21.219 31.312 -19.031 Q29.125 -16.844 29.125 -13.719 Q29.125 -10.594 31.312 -8.406 Q33.5 -6.219 36.625 -6.219 Z M25.848 12.173 Q20.31 12.173 16.454 8.316 Q12.598 4.46 12.598 -1.077 V-69.382 Q12.598 -74.92 16.454 -78.776 Q20.31 -82.632 25.848 -82.632 H94.153 Q99.69 -82.632 103.546 -78.776 Q107.403 -74.92 107.403 -69.382 V-1.077 Q107.403 4.46 103.546 8.316 Q99.69 12.173 94.153 12.173 H25.848 Z M25.848 -1.077 H94.153 Q94.153 -1.077 94.153 -1.077 Q94.153 -1.077 94.153 -1.077 V-69.382 Q94.153 -69.382 94.153 -69.382 Q94.153 -69.382 94.153 -69.382 H25.848 Q25.848 -69.382 25.848 -69.382 Q25.848 -69.382 25.848 -69.382 V-1.077 Q25.848 -1.077 25.848 -1.077 Q25.848 -1.077 25.848 -1.077 Z"/></g><g id="Medium-M" transform="matrix(1 0 0 1 1689.91 1126)"><path d="M35.688 -5.649 H51.739 L76.261 -49.811 H84.312 Q87.438 -49.811 89.625 -51.999 Q91.812 -54.186 91.812 -57.311 Q91.812 -60.436 89.625 -62.624 Q87.438 -64.811 84.312 -64.811 H68.261 L43.739 -20.649 H35.688 Q32.562 -20.649 30.375 -18.461 Q28.188 -16.274 28.188 -13.149 Q28.188 -10.024 30.375 -7.836 Q32.562 -5.649 35.688 -5.649 Z M25.359 10.786 Q20.636 10.786 17.31 7.46 Q13.984 4.134 13.984 -0.589 V-69.871 Q13.984 -74.594 17.31 -77.92 Q20.636 -81.246 25.359 -81.246 H94.641 Q99.364 -81.246 102.69 -77.92 Q106.016 -74.594 106.016 -69.871 V-0.589 Q106.016 4.134 102.69 7.46 Q99.364 10.786 94.641 10.786 H25.359 Z M25.359 -0.589 H94.641 Q94.641 -0.589 94.641 -0.589 Q94.641 -0.589 94.641 -0.589 V-69.871 Q94.641 -69.871 94.641 -69.871 Q94.641 -69.871 94.641 -69.871 H25.359 Q25.359 -69.871 25.359 -69.871 Q25.359 -69.871 25.359 -69.871 V-0.589 Q25.359 -0.589 25.359 -0.589 Q25.359 -0.589 25.359 -0.589 Z"/></g><g id="Regular-M" transform="matrix(1 0 0 1 1394.06 1126)"><path d="M35 -5.23 H51.5 L76.5 -50.23 H85 Q88.125 -50.23 90.312 -52.417 Q92.5 -54.605 92.5 -57.73 Q92.5 -60.855 90.312 -63.042 Q88.125 -65.23 85 -65.23 H68.5 L43.5 -20.23 H35 Q31.875 -20.23 29.688 -18.042 Q27.5 -15.855 27.5 -12.73 Q27.5 -9.605 29.688 -7.417 Q31.875 -5.23 35 -5.23 Z M25 9.77 Q20.875 9.77 17.938 6.833 Q15 3.895 15 -0.23 V-70.23 Q15 -74.355 17.938 -77.292 Q20.875 -80.23 25 -80.23 H95 Q99.125 -80.23 102.062 -77.292 Q105 -74.355 105 -70.23 V-0.23 Q105 3.895 102.062 6.833 Q99.125 9.77 95 9.77 H25 Z M25 -0.23 H95 Q95 -0.23 95 -0.23 Q95 -0.23 95 -0.23 V-70.23 Q95 -70.23 95 -70.23 Q95 -70.23 95 -70.23 H25 Q25 -70.23 25 -70.23 Q25 -70.23 25 -70.23 V-0.23 Q25 -0.23 25 -0.23 Q25 -0.23 25 -0.23 Z"/></g><g id="Light-M" transform="matrix(1 0 0 1 1098.18 1126)"><path d="M35 -7.441 H50.346 L75.346 -52.441 H85 Q87.211 -52.441 88.75 -53.98 Q90.289 -55.519 90.289 -57.73 Q90.289 -59.941 88.75 -61.48 Q87.211 -63.019 85 -63.019 H69.654 L44.654 -18.019 H35 Q32.789 -18.019 31.25 -16.48 Q29.711 -14.941 29.711 -12.73 Q29.711 -10.519 31.25 -8.98 Q32.789 -7.441 35 -7.441 Z M26.539 7.27 Q22.75 7.27 20.125 4.645 Q17.5 2.02 17.5 -1.769 V-68.691 Q17.5 -72.48 20.125 -75.105 Q22.75 -77.73 26.539 -77.73 H93.461 Q97.25 -77.73 99.875 -75.105 Q102.5 -72.48 102.5 -68.691 V-1.769 Q102.5 2.02 99.875 4.645 Q97.25 7.27 93.461 7.27 H26.539 Z M26.539 -0.23 H93.461 Q94.039 -0.23 94.519 -0.711 Q95 -1.191 95 -1.769 V-68.691 Q95 -69.269 94.519 -69.749 Q94.039 -70.23 93.461 -70.23 H26.539 Q25.961 -70.23 25.481 -69.749 Q25 -69.269 25 -68.691 V-1.769 Q25 -1.191 25.481 -0.711 Q25.961 -0.23 26.539 -0.23 Z"/></g><g id="Thin-M" transform="matrix(1 0 0 1 802.565 1126)"><path d="M35 -9.652 H49.193 L74.192 -54.652 H85 Q86.297 -54.652 87.188 -55.542 Q88.078 -56.432 88.078 -57.73 Q88.078 -59.027 87.188 -59.917 Q86.297 -60.807 85 -60.807 H70.808 L45.807 -15.807 H35 Q33.703 -15.807 32.812 -14.917 Q31.922 -14.027 31.922 -12.73 Q31.922 -11.432 32.812 -10.542 Q33.703 -9.652 35 -9.652 Z M28.078 4.77 Q24.625 4.77 22.312 2.458 Q20 0.145 20 -3.307 V-67.152 Q20 -70.605 22.312 -72.917 Q24.625 -75.23 28.078 -75.23 H91.922 Q95.375 -75.23 97.688 -72.917 Q100 -70.605 100 -67.152 V-3.307 Q100 0.145 97.688 2.458 Q95.375 4.77 91.922 4.77 H28.078 Z M28.078 -0.23 H91.922 Q93.078 -0.23 94.039 -1.191 Q95 -2.152 95 -3.307 V-67.152 Q95 -68.307 94.039 -69.269 Q93.078 -70.23 91.922 -70.23 H28.078 Q26.922 -70.23 25.961 -69.269 Q25 -68.307 25 -67.152 V-3.307 Q25 -2.152 25.961 -1.191 Q26.922 -0.23 28.078 -0.23 Z"/></g><g id="Ultralight-M" transform="matrix(1 0 0 1 506.415 1126)"><path d="M35 -10.98 H48.5 L73.5 -55.98 H85 Q85.75 -55.98 86.25 -56.48 Q86.75 -56.98 86.75 -57.73 Q86.75 -58.48 86.25 -58.98 Q85.75 -59.48 85 -59.48 H71.5 L46.5 -14.48 H35 Q34.25 -14.48 33.75 -13.98 Q33.25 -13.48 33.25 -12.73 Q33.25 -11.98 33.75 -11.48 Q34.25 -10.98 35 -10.98 Z M29 3.27 Q25.75 3.27 23.625 1.145 Q21.5 -0.98 21.5 -4.23 V-66.23 Q21.5 -69.48 23.625 -71.605 Q25.75 -73.73 29 -73.73 H91 Q94.25 -73.73 96.375 -71.605 Q98.5 -69.48 98.5 -66.23 V-4.23 Q98.5 -0.98 96.375 1.145 Q94.25 3.27 91 3.27 H29 Z M29 -0.23 H91 Q92.5 -0.23 93.75 -1.48 Q95 -2.73 95 -4.23 V-66.23 Q95 -67.73 93.75 -68.98 Q92.5 -70.23 91 -70.23 H29 Q27.5 -70.23 26.25 -68.98 Q25 -67.73 25 -66.23 V-4.23 Q25 -2.73 26.25 -1.48 Q27.5 -0.23 29 -0.23 Z"/></g><g id="Bold-S" transform="matrix(1 0 0 1 2294.23 696)"><path d="M31.264 -15.308 H42.014 L58.583 -44.501 H63.377 Q65.684 -44.501 67.213 -46.054 Q68.742 -47.607 68.742 -49.826 Q68.742 -52.046 67.188 -53.599 Q65.635 -55.152 63.416 -55.152 H52.666 L36.097 -25.959 H31.303 Q28.996 -25.959 27.467 -24.406 Q25.938 -22.853 25.938 -20.633 Q25.938 -18.414 27.492 -16.861 Q29.045 -15.308 31.264 -15.308 Z M22.486 1.261 Q17.585 1.261 14.217 -2.107 Q10.849 -5.475 10.849 -10.376 V-60.083 Q10.849 -64.985 14.217 -68.353 Q17.585 -71.721 22.486 -71.721 H72.194 Q77.095 -71.721 80.463 -68.353 Q83.831 -64.985 83.831 -60.083 V-10.376 Q83.831 -5.475 80.463 -2.107 Q77.095 1.261 72.194 1.261 H22.486 Z M22.486 -10.376 H72.194 Q72.194 -10.376 72.194 -10.376 Q72.194 -10.376 72.194 -10.376 V-60.083 Q72.194 -60.083 72.194 -60.083 Q72.194 -60.083 72.194 -60.083 H22.486 Q22.486 -60.083 22.486 -60.083 Q22.486 -60.083 22.486 -60.083 V-10.376 Q22.486 -10.376 22.486 -10.376 Q22.486 -10.376 22.486 -10.376 Z"/></g><g id="Semibold-S" transform="matrix(1 0 0 1 1998.1 696)"><path d="M30.278 -14.707 H41.671 L58.926 -45.101 H64.364 Q66.671 -45.101 68.199 -46.655 Q69.728 -48.208 69.728 -50.427 Q69.728 -52.646 68.175 -54.2 Q66.621 -55.753 64.402 -55.753 H53.009 L35.754 -25.359 H30.316 Q28.01 -25.359 26.481 -23.805 Q24.952 -22.252 24.952 -20.033 Q24.952 -17.814 26.505 -16.26 Q28.059 -14.707 30.278 -14.707 Z M21.972 -0.196 Q17.928 -0.196 15.117 -3.007 Q12.306 -5.818 12.306 -9.862 V-60.598 Q12.306 -64.642 15.117 -67.453 Q17.928 -70.264 21.972 -70.264 H72.708 Q76.752 -70.264 79.563 -67.453 Q82.374 -64.642 82.374 -60.598 V-9.862 Q82.374 -5.818 79.563 -3.007 Q76.752 -0.196 72.708 -0.196 H21.972 Z M21.972 -9.862 H72.708 Q72.708 -9.862 72.708 -9.862 Q72.708 -9.862 72.708 -9.862 V-60.598 Q72.708 -60.598 72.708 -60.598 Q72.708 -60.598 72.708 -60.598 H21.972 Q21.972 -60.598 21.972 -60.598 Q21.972 -60.598 21.972 -60.598 V-9.862 Q21.972 -9.862 21.972 -9.862 Q21.972 -9.862 21.972 -9.862 Z"/></g><g id="Medium-S" transform="matrix(1 0 0 1 1701.85 696)"><path d="M29.538 -14.257 H41.414 L59.184 -45.551 H65.103 Q67.41 -45.551 68.939 -47.104 Q70.468 -48.658 70.468 -50.877 Q70.468 -53.096 68.914 -54.649 Q67.361 -56.203 65.142 -56.203 H53.266 L35.496 -24.909 H29.577 Q27.27 -24.909 25.741 -23.356 Q24.212 -21.802 24.212 -19.583 Q24.212 -17.364 25.766 -15.811 Q27.319 -14.257 29.538 -14.257 Z M21.586 -1.29 Q18.185 -1.29 15.793 -3.683 Q13.4 -6.075 13.4 -9.476 V-60.984 Q13.4 -64.385 15.793 -66.777 Q18.185 -69.17 21.586 -69.17 H73.094 Q76.495 -69.17 78.887 -66.777 Q81.28 -64.385 81.28 -60.984 V-9.476 Q81.28 -6.075 78.887 -3.683 Q76.495 -1.29 73.094 -1.29 H21.586 Z M21.586 -9.476 H73.094 Q73.094 -9.476 73.094 -9.476 Q73.094 -9.476 73.094 -9.476 V-60.984 Q73.094 -60.984 73.094 -60.984 Q73.094 -60.984 73.094 -60.984 H21.586 Q21.586 -60.984 21.586 -60.984 Q21.586 -60.984 21.586 -60.984 V-9.476 Q21.586 -9.476 21.586 -9.476 Q21.586 -9.476 21.586 -9.476 Z"/></g><g id="Regular-S" transform="matrix(1 0 0 1 1405.73 696)"><path d="M28.996 -13.927 H41.225 L59.372 -45.881 H65.646 Q67.953 -45.881 69.481 -47.435 Q71.01 -48.988 71.01 -51.207 Q71.01 -53.426 69.457 -54.98 Q67.903 -56.533 65.684 -56.533 H53.455 L35.308 -24.578 H29.034 Q26.727 -24.578 25.199 -23.025 Q23.67 -21.472 23.67 -19.253 Q23.67 -17.034 25.223 -15.48 Q26.777 -13.927 28.996 -13.927 Z M21.303 -2.092 Q18.374 -2.092 16.288 -4.178 Q14.202 -6.264 14.202 -9.193 V-61.267 Q14.202 -64.196 16.288 -66.282 Q18.374 -68.368 21.303 -68.368 H73.377 Q76.306 -68.368 78.392 -66.282 Q80.478 -64.196 80.478 -61.267 V-9.193 Q80.478 -6.264 78.392 -4.178 Q76.306 -2.092 73.377 -2.092 H21.303 Z M21.303 -9.193 H73.377 Q73.377 -9.193 73.377 -9.193 Q73.377 -9.193 73.377 -9.193 V-61.267 Q73.377 -61.267 73.377 -61.267 Q73.377 -61.267 73.377 -61.267 H21.303 Q21.303 -61.267 21.303 -61.267 Q21.303 -61.267 21.303 -61.267 V-9.193 Q21.303 -9.193 21.303 -9.193 Q21.303 -9.193 21.303 -9.193 Z"/></g><g id="Light-S" transform="matrix(1 0 0 1 1109.75 696)"><path d="M28.996 -15.672 H40.315 L58.462 -47.626 H65.646 Q67.232 -47.626 68.249 -48.668 Q69.265 -49.709 69.265 -51.207 Q69.265 -52.705 68.224 -53.747 Q67.182 -54.788 65.684 -54.788 H54.365 L36.218 -22.834 H29.034 Q27.448 -22.834 26.431 -21.792 Q25.415 -20.751 25.415 -19.253 Q25.415 -17.755 26.456 -16.713 Q27.498 -15.672 28.996 -15.672 Z M22.517 -4.064 Q19.853 -4.064 18.014 -5.904 Q16.175 -7.743 16.175 -10.407 V-60.053 Q16.175 -62.717 18.014 -64.556 Q19.853 -66.395 22.517 -66.395 H72.163 Q74.827 -66.395 76.666 -64.556 Q78.505 -62.717 78.505 -60.053 V-10.407 Q78.505 -7.743 76.666 -5.904 Q74.827 -4.064 72.163 -4.064 H22.517 Z M22.517 -9.193 H72.163 Q72.619 -9.193 72.997 -9.573 Q73.377 -9.951 73.377 -10.407 V-60.053 Q73.377 -60.509 72.997 -60.887 Q72.619 -61.267 72.163 -61.267 H22.517 Q22.061 -61.267 21.683 -60.887 Q21.303 -60.509 21.303 -60.053 V-10.407 Q21.303 -9.951 21.683 -9.573 Q22.061 -9.193 22.517 -9.193 Z"/></g><g id="Thin-S" transform="matrix(1 0 0 1 814.015 696)"><path d="M28.996 -17.416 H39.405 L57.552 -49.371 H65.646 Q66.511 -49.371 67.016 -49.9 Q67.521 -50.43 67.521 -51.207 Q67.521 -51.984 66.991 -52.514 Q66.461 -53.044 65.684 -53.044 H55.275 L37.128 -21.089 H29.034 Q28.169 -21.089 27.664 -20.56 Q27.159 -20.03 27.159 -19.253 Q27.159 -18.476 27.689 -17.946 Q28.219 -17.416 28.996 -17.416 Z M23.731 -6.037 Q21.333 -6.037 19.74 -7.63 Q18.147 -9.223 18.147 -11.621 V-58.839 Q18.147 -61.237 19.74 -62.83 Q21.333 -64.423 23.731 -64.423 H70.949 Q73.347 -64.423 74.94 -62.83 Q76.533 -61.237 76.533 -58.839 V-11.621 Q76.533 -9.223 74.94 -7.63 Q73.347 -6.037 70.949 -6.037 H23.731 Z M23.731 -9.193 H70.949 Q71.86 -9.193 72.619 -9.951 Q73.377 -10.71 73.377 -11.621 V-58.839 Q73.377 -59.75 72.619 -60.509 Q71.86 -61.267 70.949 -61.267 H23.731 Q22.82 -61.267 22.061 -60.509 Q21.303 -59.75 21.303 -58.839 V-11.621 Q21.303 -10.71 22.061 -9.951 Q22.82 -9.193 23.731 -9.193 Z"/></g><g id="Ultralight-S" transform="matrix(1 0 0 1 517.792 696)"><path d="M28.996 -18.464 H38.858 L57.005 -50.418 H65.646 Q66.079 -50.418 66.276 -50.64 Q66.473 -50.862 66.473 -51.207 Q66.473 -51.552 66.251 -51.774 Q66.029 -51.996 65.684 -51.996 H55.822 L37.675 -20.042 H29.034 Q28.601 -20.042 28.404 -19.82 Q28.207 -19.598 28.207 -19.253 Q28.207 -18.908 28.429 -18.686 Q28.651 -18.464 28.996 -18.464 Z M24.459 -7.22 Q22.22 -7.22 20.775 -8.665 Q19.331 -10.11 19.331 -12.349 V-58.111 Q19.331 -60.35 20.775 -61.795 Q22.22 -63.239 24.459 -63.239 H70.221 Q72.46 -63.239 73.905 -61.795 Q75.35 -60.35 75.35 -58.111 V-12.349 Q75.35 -10.11 73.905 -8.665 Q72.46 -7.22 70.221 -7.22 H24.459 Z M24.459 -9.193 H70.221 Q71.404 -9.193 72.391 -10.179 Q73.377 -11.165 73.377 -12.349 V-58.111 Q73.377 -59.294 72.391 -60.281 Q71.404 -61.267 70.221 -61.267 H24.459 Q23.276 -61.267 22.289 -60.281 Q21.303 -59.294 21.303 -58.111 V-12.349 Q21.303 -11.165 22.289 -10.179 Q23.276 -9.193 24.459 -9.193 Z"/></g></g></svg>