<svg xmlns="http://www.w3.org/2000/svg" height="20" viewBox="0 -960 960 960" width="20"><path d="M584.13-654.39 742.3-812.8q12.92-12.92 29.07-12.8 16.15.12 28.83 12.8 12.91 12.91 12.91 29.44t-12.91 29.45l-187 187q-5.72 5.71-13.42 8.81-7.69 3.1-15.65 3.1t-15.65-3.1q-7.7-3.1-13.41-8.81l-84.77-85q-12.43-12.68-12.67-28.83-.24-16.15 12.44-28.83 12.67-12.91 29.44-12.79 16.77.12 29.45 12.79l55.17 55.18ZM833.02-78.41Q821.3-66.7 806.59-66.82q-14.72-.11-26.44-11.83L77.41-780.87Q65.7-792.59 66.2-807.68q.5-15.1 12.21-26.82 11.72-11.72 26.32-11.72t26.31 11.72l703.22 702.22q11.72 11.71 11.1 26.93-.62 15.22-12.34 26.94ZM87.87-161.54v-299q0-30.72 21.6-52.32t52.31-21.6q30.72 0 52.2 21.6 21.48 21.6 21.48 52.32v299q0 30.71-21.48 52.19-21.48 21.48-52.2 21.48-30.71 0-52.31-21.48t-21.6-52.19ZM307.46-164v-370.46h46.34q15.96 0 32.42 2.62 16.45 2.62 31.41 8.1l39.5 14.33L631.5-335.04h-33.37q-14.35 0-28.67-1.6-14.33-1.6-28.44-6.56l-52.67-17.52q-9.96-3.24-19.8 1.12-9.83 4.36-13.07 14.32-3.24 9.95 1.12 20.41t14.31 13.7l46.57 16.28q19.3 6.43 38.99 9.53 19.68 3.1 40.23 3.1h87.58L806.35-160.2 624.91-93.28q-12.43 5.24-25.49 5.62-13.05.38-25.25-2.86L307.46-164Z"/></svg>