<svg xmlns="http://www.w3.org/2000/svg" height="24" width="24"><path d="M17.45 20.3q-.575 0-.95-.387-.375-.388-.375-.938v-2.45H13.65q-.55 0-.937-.388-.388-.387-.388-.937t.388-.938q.387-.387.937-.387h2.475V11.4q0-.55.375-.938.375-.387.95-.387.55 0 .938.387.387.388.387.938v2.475H21.2q.575 0 .95.387.375.388.375.938 0 .55-.375.937-.375.388-.95.388h-2.425v2.45q0 .55-.387.938-.388.387-.938.387ZM4 16.525q-.55 0-.938-.388-.387-.387-.387-.937t.387-.938q.388-.387.938-.387h5.2q.575 0 .95.387.375.388.375.938 0 .55-.375.937-.375.388-.95.388Zm0-4.45q-.55 0-.938-.387-.387-.388-.387-.938 0-.55.387-.938.388-.387.938-.387h9q.55 0 .938.387.387.388.387.938 0 .55-.387.938-.388.387-.938.387ZM4 7.65q-.55 0-.938-.388-.387-.387-.387-.937t.387-.938Q3.45 5 4 5h9q.55 0 .938.387.387.388.387.938 0 .55-.387.937-.388.388-.938.388Z"/></svg>