<svg xmlns="http://www.w3.org/2000/svg" height="40" width="40"><path d="M29.458 34.125Q28.5 34.125 27.875 33.479Q27.25 32.833 27.25 31.875V27.708H23.042Q22.083 27.708 21.438 27.083Q20.792 26.458 20.792 25.5Q20.792 24.542 21.438 23.917Q22.083 23.292 23.042 23.292H27.25V19.042Q27.25 18.167 27.875 17.5Q28.5 16.833 29.417 16.833Q30.375 16.833 31.021 17.5Q31.667 18.167 31.667 19.042V23.292H35.833Q36.792 23.292 37.417 23.938Q38.042 24.583 38.042 25.5Q38.042 26.458 37.417 27.083Q36.792 27.708 35.833 27.708H31.667V31.875Q31.667 32.833 31 33.479Q30.333 34.125 29.458 34.125ZM6.375 27.708Q5.417 27.708 4.792 27.083Q4.167 26.458 4.167 25.5Q4.167 24.542 4.792 23.917Q5.417 23.292 6.375 23.292H16.375Q17.25 23.292 17.917 23.938Q18.583 24.583 18.583 25.5Q18.583 26.458 17.917 27.083Q17.25 27.708 16.375 27.708ZM6.375 19.792Q5.417 19.792 4.792 19.167Q4.167 18.542 4.167 17.583Q4.167 16.625 4.792 16Q5.417 15.375 6.375 15.375H22.792Q23.708 15.375 24.354 16.021Q25 16.667 25 17.583Q25 18.542 24.354 19.167Q23.708 19.792 22.792 19.792ZM6.375 11.875Q5.417 11.875 4.792 11.229Q4.167 10.583 4.167 9.667Q4.167 8.708 4.792 8.083Q5.417 7.458 6.375 7.458H22.792Q23.708 7.458 24.354 8.083Q25 8.708 25 9.667Q25 10.583 24.354 11.229Q23.708 11.875 22.792 11.875Z"/></svg>