<svg xmlns="http://www.w3.org/2000/svg" height="48" viewBox="0 -960 960 960" width="48"><path d="M121.15-495.54v-263.42h717.7v303.65q-7.26-2.38-14.28-3.19t-14.07-.81q-23.35 0-45.96 6.29-22.62 6.29-44.54 18.52-15.96-9.92-31.6-16t-32.86-9.08v-35.96h-125.5l-76.35-151.42q-.81-3.27-5.15-4.92-4.34-1.66-8.52-1.66-4.17 0-7.9 1.66-3.74 1.65-4.54 4.92L280-354l-66.69-132.96q-1.9-4.04-5.55-6.31-3.65-2.27-7.76-2.27h-78.85Zm0 294.5v-264.31h69.7l75.46 152.31q.81 4.04 5.12 5.87 4.31 1.82 8.46 1.82 4.14 0 7.82-1.82 3.68-1.83 5.6-5.1L440-606l67.58 132.96q.8 4.16 5.09 5.98 4.29 1.83 9.21 1.71h92.04q-64.69 9.31-108.65 60.37-43.96 51.06-43.96 117.29 0 26.15 6.86 45.61 6.87 19.46 20.91 41.04H121.15ZM629.8-374q18.24 0 34.95 8.46 16.71 8.46 32.94 24.54L720-321l21.54-19.23q17-16.85 33.71-25.31Q791.96-374 810-374q34.47 0 59.24 25.53Q894-322.93 894-287.69q0 27.42-23.94 55.54-23.94 28.11-106.71 99.92L720-95.46l-42.37-36.68q-83.75-72.01-107.25-100.24-23.5-28.22-23.5-55.5 0-34.93 24.37-60.52Q595.62-374 629.8-374Z"/></svg>