<svg xmlns="http://www.w3.org/2000/svg" height="40" viewBox="0 -960 960 960" width="40"><path d="M274.33-108.5q-96.22 0-163.36-67.36Q43.83-243.22 43.83-339q0-92.55 62.92-159.53Q169.67-565.5 262.33-570l-161-321.83h306.5L480-746.5l73.17-145.33h306.16L699.33-572q92.5 5.5 155.17 72.62 62.67 67.11 62.67 159.72 0 95.95-67.82 163.56-67.82 67.6-164.12 67.6-13.56 0-26.73-1.67-13.17-1.66-26.67-4.66 60-32.67 90-94.06 30-61.4 30-131.23 0-112.97-79.57-192.34-79.58-79.37-192.34-79.37-112.75 0-192.09 79.39-79.33 79.4-79.33 192.63 0 70.14 27.83 134.81 27.84 64.67 92.34 90.17-14.17 3.33-27.59 4.83-13.43 1.5-26.75 1.5Zm205.9-23.33q-86.56 0-147.48-60.79-60.92-60.79-60.92-147.25 0-86.46 60.79-147.55 60.79-61.08 147.25-61.08 86.46 0 147.55 60.86 61.08 60.86 61.08 147.41 0 86.56-60.86 147.48-60.86 60.92-147.41 60.92ZM411.36-238.5l68.62-53.02 68.85 53.02L523-323.43l68.83-49.07h-84.46L480-461.83l-26.95 89.33H368.5l68.57 48.97-25.71 85.03Z"/></svg>