<svg xmlns="http://www.w3.org/2000/svg" height="20" viewBox="0 96 960 960" width="20"><path d="M479.971 885.717q68.877 0 117.312-48.405 48.434-48.405 48.434-117.283 0-68.877-48.405-117.312-48.405-48.434-117.283-48.434-68.877 0-117.312 48.405-48.434 48.405-48.434 117.283 0 68.877 48.405 117.312 48.405 48.434 117.283 48.434ZM368.63 505.5q20.587-10.065 42.076-16.598 21.49-6.532 46.598-8.772L359.63 266.283h-99.978L368.63 505.5Zm222.74 0 108.739-239.217H599.37L501.696 480.13q25.108 2.24 47.136 8.543 22.027 6.303 42.538 16.827ZM269.804 837.717q-14.704-25.675-22.917-55.586-8.213-29.911-8.213-62.053 0-32.143 8.213-62.088 8.213-29.946 22.917-55.707-45.087 4.261-75.891 38.589-30.804 34.328-30.804 79.207 0 44.879 30.804 79.128t75.891 38.51Zm420.392 0q45.087-4.261 75.891-38.589 30.804-34.328 30.804-79.207 0-44.879-30.804-79.128t-75.891-38.51q14.704 25.675 22.917 55.586 8.213 29.911 8.213 62.053 0 32.143-8.213 62.088-8.213 29.946-22.917 55.707ZM479.943 961.326q-43.66 0-81.758-14.119-38.098-14.12-69.576-39.837-12.196 2.478-24.135 4.217-11.938 1.739-24.539 1.739-79.962 0-136.198-56.205Q87.5 800.916 87.5 721q0-80.468 57.935-137.256 57.934-56.788 139.347-54.809h11l-154-338.261h267.109L480 346.891l71.109-156.217h267.109l-154 336.261h10q81.913-1.979 140.097 54.809Q872.5 638.532 872.5 719.885q0 80.893-56.323 137.167t-137.003 56.274q-12.576 0-23.689-1.859-11.114-1.858-23.288-4.097-31.405 25.717-70.249 39.837-38.845 14.119-82.005 14.119ZM480 720ZM368.63 505.5 259.652 266.283 368.63 505.5Zm222.74 0 108.739-239.217L591.37 505.5ZM480 821.739l-31.673-70.066L378.261 720l70.066-31.673L480 618.261l31.673 70.066L581.739 720l-70.066 31.673L480 821.739Z"/></svg>