<svg xmlns="http://www.w3.org/2000/svg" height="24" viewBox="0 -960 960 960" width="24"><path d="M480-800v-59.999h379.999V-800H480Zm0 147.691v-59.998h379.999v59.998H480Zm0 147.692v-59.999h379.999v59.999H480Zm256.46 404.616q-116.691 0-231.114-55.385-114.422-55.384-204.307-145.269-89.884-89.884-145.461-204.114-55.577-114.23-55.577-230.922 0-18 12-30t30-12h130.46q15.538 0 27.115 9.577 11.577 9.577 14.346 24.731l22.923 117.691q2.385 14.769-.5 26.846-2.884 12.077-12.654 21.077l-91.999 89.923q47.385 80.462 113 145.385 65.616 64.923 148.539 113.231l89.385-90.923q9.769-9.769 23.115-13.884 13.346-4.116 27.346-1.731l111.075 22.615q15.154 3.384 24.731 14.654 9.577 11.269 9.577 26.808v129.69q0 18-12 30t-30 12ZM202.923-544.614l71.385-68.308q1.923-1.539 2.5-4.231.577-2.693-.192-5.001l-17.385-89.384q-.769-3.077-2.692-4.616-1.923-1.538-5-1.538H166q-2.307 0-3.846 1.538-1.539 1.539-1.539 3.847 3.077 41 13.423 83.308 10.347 42.308 28.885 84.385Zm346.461 343.383q39.769 18.539 82.962 28.347 43.192 9.807 80.73 11.653 2.308 0 3.847-1.538 1.538-1.539 1.538-3.847v-84.153q0-3.077-1.538-5.001-1.539-1.923-4.616-2.692l-83.999-17.077q-2.308-.769-4.039-.192-1.731.577-3.654 2.5l-71.231 72ZM202.923-544.614Zm346.461 343.383Z"/></svg>