<svg xmlns="http://www.w3.org/2000/svg" height="48" viewBox="0 -960 960 960" width="48"><path d="M586-78.87q-13.28 0-22.2-8.96-8.93-8.96-8.93-22.3 0-13.33 8.93-22.41 8.92-9.09 22.2-9.09h140.39l-113.82-79.98q-10.96-7.22-13.45-19.79-2.49-12.58 4.61-23.28 7.1-10.71 19.5-13.2 12.4-2.49 23.7 4.49L762-194.17l-48.13-131.37q-5.24-12.2.98-23.52 6.23-11.32 18.67-16.36 12.72-4.95 24.41.66 11.7 5.61 16.7 18.3l46.63 131.37 37.61-134.63q2.82-11.68 13.73-18.16 10.92-6.49 23.5-3.75 12.31 3.24 18.79 13.95 6.48 10.7 3.74 22.9l-61.76 231.8q-3.12 11.2-11.56 17.66-8.43 6.45-20.27 6.45H586Zm-401.85-80.15q-26.63 0-46.13-19.5-19.5-19.5-19.5-46.13v-531.7q0-26.73 19.5-46.3 19.5-19.57 46.13-19.57h65.35v-27.35q0-13.27 9.71-22.96 9.72-9.69 23.24-9.69 13.94 0 23.78 9.69 9.84 9.69 9.84 22.96v27.35h247.86v-27.35q0-13.27 9.72-22.96 9.71-9.69 23.23-9.69 13.95 0 23.78 9.69 9.84 9.69 9.84 22.96v27.35h65.35q26.73 0 46.3 19.57 19.57 19.57 19.57 46.3v262.28q0 14.17-9.8 23.74-9.8 9.57-23.2 9.57-13.98 0-23.43-9.57-9.44-9.57-9.44-23.74V-569h-511.7v344.35h279.5q13.32 0 23.06 9.66 9.75 9.66 9.75 23.08 0 14-9.75 23.44-9.74 9.45-23.06 9.45h-279.5Z"/></svg>