<svg xmlns="http://www.w3.org/2000/svg" height="20" width="20"><path d="m7.042 17.833-1.084-1.187V13.75H4.917q-.563 0-.948-.396-.386-.396-.386-.958V6.5h-.125q-.208 0-.375-.156-.166-.156-.166-.386 0-.229.156-.385t.385-.156h2.5V3.812h-.646q-.229 0-.385-.145-.156-.146-.156-.375 0-.23.156-.396.156-.167.385-.167h2.355q.229 0 .385.156.156.157.156.386t-.156.385q-.156.156-.385.156h-.625v1.605h2.479q.229 0 .385.156t.156.385q0 .23-.156.386t-.385.156h-.125v5.896q0 .562-.386.958-.385.396-.948.396h-1.02Zm6.708-.5q-1.104 0-1.875-.781-.771-.781-.771-1.885V9.062q0-1.083.771-1.864.771-.781 1.896-.781 1.104 0 1.875.781.771.781.771 1.864v5.605q0 1.104-.771 1.885-.771.781-1.896.781Zm-8.833-4.666h3.145q.105 0 .178-.073.072-.073.072-.198v-1.458H6.75q-.167 0-.271-.115-.104-.115-.104-.261 0-.145.104-.26.104-.114.271-.114h1.562v-1.23H6.75q-.167 0-.271-.104-.104-.104-.104-.25 0-.166.104-.271.104-.104.271-.104h1.562V6.5H4.667v5.896q0 .125.073.198.072.073.177.073Zm7.271.708h3.145v-3h-3.145Z"/></svg>