<svg xmlns="http://www.w3.org/2000/svg" height="48" viewBox="0 -960 960 960" width="48"><path d="M480-480Zm0-45.08 328.46-209.53H151.54L480-525.08ZM157.69-180q-23.53 0-40.61-17.35Q100-214.69 100-237.69v-484.62q0-23 17.08-40.34Q134.16-780 157.69-780h644.62q23 0 40.34 17.35Q860-745.31 860-722.31v262.62q0 9.66-6.57 16.17-6.56 6.52-16.31 6.52-9.74 0-16.12-6.52-6.39-6.51-6.39-16.17v-231.46l-303.38 196q-14.93 9.61-31.39 9.61t-31.07-9.61l-303.38-196v453.46q0 5.38 3.46 8.84t8.84 3.46h317.16q9.28 0 15.99 6.57 6.7 6.57 6.7 16.31 0 9.74-6.7 16.12-6.71 6.39-15.99 6.39H157.69ZM736.54-57.31q-5.81 0-7.72-5.8-14.52-56.3-55.29-97.12-40.76-40.82-97.11-55.56-5.8-1.93-5.8-7.75 0-6.69 5.8-7.64 56.29-14.52 97-55.31 40.7-40.78 55.4-97.16 1.93-5.73 7.74-5.73 6.19 0 7.74 5.73 14.71 56.36 55.5 97.07 40.78 40.7 97.16 55.4 5.73.95 5.73 7.64 0 5.73-5.81 7.67-56.35 14.73-97.12 55.54-40.76 40.8-55.48 97.21-.97 5.81-7.74 5.81Z"/></svg>