<svg xmlns="http://www.w3.org/2000/svg" height="48" viewBox="0 -960 960 960" width="48"><path d="M357.043-446.957v-247.565h-10q-98.434 2.435-167.934 71.333-69.5 68.899-73.37 166.232v10h251.304Zm173.566 173.566v-422.131h-98.305v323.826h-327v98.305h425.305Zm79.217-124.392 247.304-26.188v-80.681H609.826v106.869Zm-80 351.306H110.609v-79.218h419.217v79.218Zm80-147.697H26.086v-244.492q0-137.581 95.593-233.436 95.592-95.855 232.805-95.855h255.342v184.087h189.87l40-80h96.652v311.74l-326.522 34.565v123.391Zm160-642.261H110.609v-79.218h659.217v79.218Zm-160 438.652v-106.869 106.869Zm-79.217 124.392Z"/></svg>