<svg xmlns="http://www.w3.org/2000/svg" height="24" viewBox="0 -960 960 960" width="24"><path d="M140-400q0-112 67-218.5T392-808q34-24 71-3t37 65v38q0 25.5 17.7 42.75T561-648q14 0 25.53-5.95Q598.07-659.9 607-671q11.88-14.67 30.44-18.33Q656-693 671-682q69 51 109 125.5t40 156.54q0 91.38-43 166.67Q734-158 663-113q20.31-27.76 31.65-60.74Q706-206.71 706-243.73q0-46.27-16.95-86.39-16.95-40.13-48.59-71.77L480-559 321-402q-32 32-49.5 72.18-17.5 40.17-17.5 86.09 0 36.73 11.35 69.8Q276.69-140.85 297-113q-71-45-114-120.3T140-400Zm340 18 70.83 69.72Q565-298 572.5-280.82 580-263.64 580-244q0 40.69-29.24 69.35-29.23 28.65-71 28.65Q438-146 409-174.65q-29-28.66-29-69.35 0-20 7.46-37.2 7.45-17.2 21.54-30.8l71-70Z"/></svg>