<svg xmlns="http://www.w3.org/2000/svg" height="20" viewBox="0 -960 960 960" width="20"><path d="M179.78-373.83q-42.24 0-67.62-25.38-25.38-25.37-25.38-67.62v-313.39q0-42.24 25.38-67.62 25.38-25.38 67.62-25.38h313.39q42.25 0 67.62 25.38 25.38 25.38 25.38 67.62v313.39q0 42.25-25.38 67.62-25.37 25.38-67.62 25.38H179.78Zm138.2-163.34-52-70-70 93h281l-88-116-71 93ZM649.51-86.78q-52.92 0-90.28-37.39t-37.36-90.32q0-52.92 37.38-90.28t90.29-37.36q10.35 0 21 1.65 10.66 1.65 19.33 6.52v-176.17h183.35v87.35h-96v208.32q0 52.92-37.39 90.3-37.39 37.38-90.32 37.38Z"/></svg>