<svg xmlns="http://www.w3.org/2000/svg" height="24" viewBox="0 -960 960 960" width="24"><path d="M232.31-200q-13.73 0-23.02-9.29T200-232.31v-344.61q0-13.73 9.29-23.02t23.02-9.29h55.38q13.73 0 23.02 9.29t9.29 23.02v344.61q0 13.73-9.29 23.02T287.69-200h-55.38Zm0-440q-13.73 0-23.02-9.29T200-672.31v-55.38q0-13.73 9.29-23.02t23.02-9.29h55.38q13.73 0 23.02 9.29t9.29 23.02v55.38q0 13.73-9.29 23.02T287.69-640h-55.38Zm220.77 440q-13.73 0-23.02-9.29t-9.29-23.02L420-466.15q0-13.73 9.29-23.02t23.02-9.29h55.38q13.73 0 23.02 9.29t9.29 23.02v233.84q0 13.73-9.29 23.02T507.69-200h-54.61Zm-.77-329.23q-13.73 0-23.02-9.29T420-561.54v-55.38q0-13.73 9.29-23.02t23.02-9.29h55.38q13.73 0 23.02 9.29t9.29 23.02v55.38q0 13.73-9.29 23.02t-23.02 9.29h-55.38Zm220 329.23q-13.73 0-23.02-9.29T640-232.31v-122.31q0-13.73 9.29-23.01 9.29-9.29 23.02-9.29h55.38q13.73 0 23.02 9.29 9.29 9.28 9.29 23.01v122.31q0 13.73-9.29 23.02T727.69-200h-55.38Zm0-217.69q-13.73 0-23.02-9.29T640-450v-55.38q0-13.74 9.29-23.02 9.29-9.29 23.02-9.29h55.38q13.73 0 23.02 9.29 9.29 9.28 9.29 23.02V-450q0 13.73-9.29 23.02t-23.02 9.29h-55.38Z"/></svg>