<svg xmlns="http://www.w3.org/2000/svg" height="24" width="24"><path d="M2.45 14.75v-1.5h5v-1.2q0-.125-.087-.213-.088-.087-.238-.087H5.3q-.325 0-.537-.213-.213-.212-.213-.537 0-.325.213-.538.212-.212.537-.212h1.825q.75 0 1.288.525.537.525.537 1.275v1.2h2.3V6.3q0-1.625 1.125-2.75t2.75-1.1q1.075 0 2 .562.925.563 1.4 1.538l1.05 2.075-1.35.675-1.05-2.075q-.3-.6-.863-.938-.562-.337-1.212-.337-.975 0-1.662.687-.688.688-.688 1.663v6.95h2.3v-1.2q0-.75.538-1.275.537-.525 1.287-.525H18.7q.325 0 .538.212.212.213.212.538 0 .325-.212.537-.213.213-.538.213h-1.825q-.15 0-.237.087-.088.088-.088.213v1.2h5v1.5Zm3.8 5.8q-.75 0-1.275-.525-.525-.525-.525-1.275v-3.125h15.1V18.8q0 .725-.512 1.238-.513.512-1.238.512Z"/></svg>