<svg xmlns="http://www.w3.org/2000/svg" height="40" width="40"><path d="m35.375 37.375-2.5-2.458q-.125.041-.25.062-.125.021-.292.021H7.5q-1.042 0-1.771-.729Q5 33.542 5 32.542V7.667q0-.167.021-.292.021-.125.062-.25L3.125 5.167l1.042-1 32.208 32.208ZM7.458 33.583h24.125L6.417 8.458v24.125q0 .375.312.688.313.312.729.312ZM35 30.667l-1.417-1.375V7.417q0-.375-.312-.688-.313-.312-.688-.312H10.708L9.333 5h23.209q1 0 1.729.729Q35 6.458 35 7.5ZM24.042 19.708l-2.334-2.333-1.625-4.583h-.166l-.75 2.083-1-1.083 1.25-3.459h1.166ZM19 21Zm3.167-3.167Zm3.791 11.459-1.791-5.167 2.291 2.333 1.042 2.834Zm-13.458 0 4.458-12.334 1.084 1.084-1.709 4.833h6.542l1.375 1.375h-8.417l-1.791 5.042Z"/></svg>