<svg xmlns="http://www.w3.org/2000/svg" height="40" viewBox="0 -960 960 960" width="40"><path d="M841.67-19 505-355.67 560.33-412 880-93.33q-15 19-37.17 30.16Q820.67-52 796-52H159.33q-44.66 0-76-31Q52-114 52-158.67v-643.5q0-2.83.33-6.16L8.67-851 65-907.33l833 832L841.67-19Zm67-157.67-281-281L525.33-720H434l-18.67 50-238.66-238.67h624.66q44.67 0 76 31.67 31.34 31.67 31.34 76.33v624ZM249-240h87l42.67-115.67H505L442.33-418h-38.66l10-28.67L352.33-508 249-240Zm238.33-401.67H487L512.67-572l-37.34-38 12-31.67ZM622-240h89l-13.67-35-137-137L622-240Z"/></svg>