<svg xmlns="http://www.w3.org/2000/svg" height="40" width="40"><path d="M20 26.458Q20.667 26.458 21.146 25.979Q21.625 25.5 21.625 24.833Q21.625 24.208 21.146 23.729Q20.667 23.25 20 23.25Q19.333 23.25 18.854 23.729Q18.375 24.208 18.375 24.833Q18.375 25.5 18.854 25.979Q19.333 26.458 20 26.458ZM18.875 21.333H21.125Q21.125 20.708 21.146 20.271Q21.167 19.833 21.375 19.5Q21.542 19.167 21.854 18.854Q22.167 18.542 22.875 17.875Q23.792 17 24.208 16.188Q24.625 15.375 24.625 14.333Q24.625 12.417 23.375 11.333Q22.125 10.25 20.083 10.25Q18.458 10.25 17.167 11.146Q15.875 12.042 15.417 13.5L17.417 14.333Q17.708 13.5 18.438 12.938Q19.167 12.375 20.083 12.375Q21.167 12.375 21.771 12.958Q22.375 13.542 22.375 14.458Q22.375 15.167 22.042 15.688Q21.708 16.208 20.917 16.917Q20.208 17.542 19.812 18Q19.417 18.458 19.208 18.875Q19.042 19.292 18.958 19.833Q18.875 20.375 18.875 21.333ZM20 32.75Q25.292 27.917 27.833 23.958Q30.375 20 30.375 17Q30.375 12.292 27.375 9.292Q24.375 6.292 20 6.292Q15.625 6.292 12.625 9.292Q9.625 12.292 9.625 17Q9.625 20 12.208 23.958Q14.792 27.917 20 32.75ZM20 36.917Q13.208 31.125 9.833 26.167Q6.458 21.208 6.458 17Q6.458 10.667 10.542 6.896Q14.625 3.125 20 3.125Q25.375 3.125 29.458 6.896Q33.542 10.667 33.542 17Q33.542 21.208 30.167 26.167Q26.792 31.125 20 36.917ZM20 17Q20 17 20 17Q20 17 20 17Q20 17 20 17Q20 17 20 17Q20 17 20 17Q20 17 20 17Q20 17 20 17Q20 17 20 17Z"/></svg>