<svg xmlns="http://www.w3.org/2000/svg" height="48" width="48"><path d="M23.9 32.5Q27.45 32.5 29.925 30.025Q32.4 27.55 32.4 24Q32.4 20.45 29.925 17.975Q27.45 15.5 23.9 15.5Q20.35 15.5 17.875 17.975Q15.4 20.45 15.4 24Q15.4 27.55 17.875 30.025Q20.35 32.5 23.9 32.5ZM23.9 26Q23.05 26 22.475 25.425Q21.9 24.85 21.9 24Q21.9 23.15 22.475 22.575Q23.05 22 23.9 22Q24.75 22 25.325 22.575Q25.9 23.15 25.9 24Q25.9 24.85 25.325 25.425Q24.75 26 23.9 26ZM37.75 38.45Q34.85 41.2 31.3 42.6Q27.75 44 23.9 44Q19.75 44 16.1 42.425Q12.45 40.85 9.75 38.15Q7.05 35.45 5.475 31.8Q3.9 28.15 3.9 24Q3.9 19.85 5.475 16.2Q7.05 12.55 9.75 9.85Q12.45 7.15 16.1 5.575Q19.75 4 23.9 4Q29.75 4 34.575 7.05Q39.4 10.1 42 15.25Q42.25 15.8 42.025 16.35Q41.8 16.9 41.2 17.15Q40.65 17.4 40.05 17.15Q39.45 16.9 39.15 16.35Q36.75 12.1 32.75 9.55Q28.75 7 23.9 7Q16.9 7 11.9 12Q6.9 17 6.9 24Q6.9 31 11.9 36Q16.9 41 23.9 41Q27 41 30.15 39.625Q33.3 38.25 35.7 36.3Q36.25 35.8 36.925 35.9Q37.6 36 38 36.65Q38.25 37.05 38.175 37.575Q38.1 38.1 37.75 38.45ZM42.35 36.65Q41.7 36.65 41.275 36.225Q40.85 35.8 40.85 35.15V21.8Q40.85 21.15 41.275 20.725Q41.7 20.3 42.35 20.3Q43 20.3 43.425 20.725Q43.85 21.15 43.85 21.8V35.15Q43.85 35.8 43.425 36.225Q43 36.65 42.35 36.65ZM42.5 43.65Q41.8 43.65 41.325 43.175Q40.85 42.7 40.85 42Q40.85 41.3 41.325 40.825Q41.8 40.35 42.5 40.35Q43.2 40.35 43.675 40.825Q44.15 41.3 44.15 42Q44.15 42.7 43.675 43.175Q43.2 43.65 42.5 43.65ZM37.75 38.45Q38.1 38.1 38.175 37.575Q38.25 37.05 38 36.65Q37.6 36 36.925 35.9Q36.25 35.8 35.7 36.3Q33.3 38.25 30.15 39.625Q27 41 23.9 41Q16.9 41 11.9 36Q6.9 31 6.9 24Q6.9 17 11.9 12Q16.9 7 23.9 7Q28.75 7 32.75 9.55Q36.75 12.1 39.15 16.35Q39.45 16.9 40.05 17.15Q40.65 17.4 41.2 17.15Q41.8 16.9 42.025 16.35Q42.25 15.8 42 15.25Q42.25 15.85 42.425 16.275Q42.6 16.7 42.85 17.3H40.8Q39.55 17.3 38.675 18.175Q37.8 19.05 37.8 20.3V38.4Z"/></svg>