<svg xmlns="http://www.w3.org/2000/svg" height="40" viewBox="0 -960 960 960" width="40"><path d="M178.46-193.85h603.08q10.77 0 17.69-6.92 6.92-6.92 6.92-17.69v-68.72q0-10.26-6.92-17.44-6.92-7.17-17.69-7.17H178.46q-10.77 0-17.69 7.17-6.92 7.18-6.92 17.44v68.72q0 10.77 6.92 17.69 6.92 6.92 17.69 6.92Zm204.41-361.92q0-39.22 28.32-67.7 28.32-28.48 68.81-28.48 7.19 0 12.06-4.91 4.86-4.91 4.86-12.16 0-7.26-4.86-12.02-4.87-4.76-12.06-4.76-54.07 0-92.52 38.14-38.45 38.13-38.45 92.22v96.36q0 7.2 4.9 12.06 4.91 4.87 12.17 4.87t12.02-4.87q4.75-4.86 4.75-12.06v-96.69ZM480-311.79Zm-212.1-33.85h424.2v-209.87q0-88.26-62.03-149.45-62.02-61.19-150.21-61.19t-150.08 61.19q-61.88 61.19-61.88 149.45v209.87ZM178.46-160q-23.72 0-41.09-17.37Q120-194.74 120-218.46v-68.72q0-23.72 17.37-41.09 17.37-17.37 41.09-17.37h55.59v-209.8q0-101.71 71.83-173.14Q377.72-800 479.98-800q102.27 0 174.12 71.42 71.85 71.43 71.85 173.14v209.8h55.59q23.72 0 41.09 17.37Q840-310.9 840-287.18v68.72q0 23.72-17.37 41.09Q805.26-160 781.54-160H178.46ZM480-345.64Z"/></svg>