<svg xmlns="http://www.w3.org/2000/svg" height="20" viewBox="0 -960 960 960" width="20"><path d="M217-780q-24.3 0-41.65-17.29Q158-814.58 158-838.79t17.35-41.71Q192.7-898 217-898h567q49.7 0 83.85 34.15Q902-829.7 902-780v13q0 30.26-18.3 44.63Q865.41-708 843.45-708q-21.95 0-40.7-16Q784-740 784-768v-12H217ZM117-230q-23.37 0-39.19-16.1Q62-262.2 62-286v-342q0-23.8 15.81-39.9Q93.63-684 117-684h184q23.38 0 39.19 16.1Q356-651.8 356-628v342q0 23.8-15.81 39.9Q324.38-230 301-230H117Zm521 38v-182q-12-5.83-18-18.41-6-12.59-6-28 0-24.75 16.5-41.17T671.51-478q24.69 0 41.59 16.42 16.9 16.42 16.9 41.17 0 16.41-6.5 27.91T706-374v182q0 14.73-9.57 24.37-9.56 9.63-24.2 9.63-14.63 0-24.43-9.63-9.8-9.64-9.8-24.37Zm34.23-314q-35.23 0-60.73 24.94T586-420q0 11 1 19.5t6 16.5q6 12 5 26.5T588-334q-10 10-23 10t-20-11q-13-18.48-20-40.07T518-420q0-64.49 45.14-109.24Q608.27-574 671.66-574 736-574 781-529.35q45 44.64 45 108.97 0 26.38-8.5 48.38-8.5 22-22.5 41-7 12-21.29 12-14.28 0-24.5-11.47Q739-341 739.5-355.51q.5-14.52 7.5-26.49 5-9.4 8-18.94 3-9.53 3-19.06 0-36.12-24.87-61.06Q708.25-506 672.23-506Zm-.65-96q-74.52 0-128.05 53.5Q490-495 490-420q0 28.55 7.9 55.32 7.9 26.76 24.1 48.68 7 11 7.5 25t-9.5 24q-10 10-24.5 10T473-269q-25.07-31.78-38.04-70.41Q422-378.04 422-420q0-104.19 72.91-177.1Q567.82-670 671.43-670 776-670 849-597.1q73 72.91 73 177.1 0 45.35-17.5 86.18Q887-293 859-259q-8 11-21.59 10.5-13.6-.5-22.5-10.5-8.91-10-9.41-24.5T813-309q18-24 29.5-51.93Q854-388.87 854-420q0-75-53.5-128.5T671.58-602ZM149-317h120v-280H149v280Zm0 0h120-120Z"/></svg>