<svg xmlns="http://www.w3.org/2000/svg" height="40" width="40"><path d="M8.292 31.083q-.25 0-.375-.166-.125-.167-.125-.334 0-.208.125-.333.125-.125.375-.125h2.875V17.042q0-.959.229-1.979.229-1.021.771-1.98l.708.75q-.333.75-.542 1.563-.208.812-.208 1.646v13.083l15.583-.042-22-22.041q-.166-.125-.166-.334 0-.208.125-.375.125-.166.333-.166.208 0 .333.166L33.75 34.708q.125.125.125.334 0 .208-.125.375-.167.125-.354.125-.188 0-.354-.167l-4.292-4.292Zm20.583-5.625-.958-.958v-7.375q0-3.25-2.334-5.563Q23.25 9.25 20.042 9.25q-1.334 0-2.813.5t-2.479 1.583l-.667-.666q1.042-1.042 2.229-1.605 1.188-.562 2.313-.77V7.208q0-.625.375-1t1-.375q.583 0 .979.375t.396 1v1.125q2.958.417 5.229 2.855 2.271 2.437 2.271 5.937Zm-8.833-3ZM20 35.792q-1 0-1.75-.75t-.75-1.75h5q0 1.041-.75 1.77-.75.73-1.75.73Zm1.292-17.667Z"/></svg>