<svg xmlns="http://www.w3.org/2000/svg" height="40" viewBox="0 96 960 960" width="40"><path d="M571.59 715.487h163.436q10.769 0 17.692-6.923t6.923-17.692v-65q0-10.77-6.923-17.693-6.923-6.923-17.692-6.923H571.59v114.231Zm0-165.41h163.436q10.769 0 17.692-6.923t6.923-17.692v-64.334q0-10.769-6.923-17.692t-17.692-6.923H571.59v113.564Zm-346.616 216.59q-31.91 0-53.852-21.943-21.943-21.942-21.943-53.852V461.128q0-31.91 21.943-53.852 21.942-21.943 53.852-21.943h150.693q20.843 0 37.024 11.615 16.181 11.614 22.693 30.565h-210.41q-10.769 0-17.692 6.923t-6.923 17.692v238.744q0 10.769 6.923 17.692t17.692 6.923h140.154q10.77 0 17.693-6.923 6.923-6.923 6.923-17.692v-89.616h-58.77q-10.247 0-17.752-7.537-7.504-7.537-7.504-17.833t7.504-18.053q7.505-7.756 17.752-7.756h72.385q15.632 0 26.598 11.158 10.966 11.157 10.966 27.073v102.564q0 31.91-21.942 53.852-21.943 21.943-53.853 21.943H224.974Zm333.667 0q-16.282 0-27.256-10.975-10.975-10.974-10.975-27.256V422.897q0-15.632 10.975-26.598 10.974-10.966 27.256-10.966h176.385q31.91 0 53.852 21.943 21.943 21.942 21.943 53.852v65.091q0 12.661-4.308 24.811T793.82 575q8.718 12.487 12.859 24.859 4.142 12.372 4.142 25.295v65.718q0 31.91-21.943 53.852-21.942 21.943-53.852 21.943H558.641Z"/></svg>