<svg xmlns="http://www.w3.org/2000/svg" height="24" viewBox="0 -960 960 960" width="24"><path d="M355-418h260q44.1 0 74.55-30.67Q720-479.34 720-523q0-40-25-70.5T631-631q-17-44-60.5-71.5T480-730q-38 0-74.5 16.5T343-646q-44 6-73.5 37.55Q240-576.9 240-533q0 47.92 33.54 81.46Q307.08-418 355-418Zm-1-96q-7.65 0-12.83-5.45-5.17-5.44-5.17-13.5 0-8.05 5.17-13.05 5.18-5 12.83-5h55v-20q0-27 20.79-45 20.8-18 50.21-18 29 0 49.5 20.21Q550-593.59 550-565v27h62q4.8 0 8.4 3.64 3.6 3.65 3.6 8.5 0 4.86-3.6 8.36-3.6 3.5-8.4 3.5H354ZM292-94v-106h82v-82H48v-584h864v584H586v82h82v106H292ZM154-388h652v-372H154v372Zm0 0v-372 372Z"/></svg>