<svg xmlns="http://www.w3.org/2000/svg" height="20" viewBox="0 -960 960 960" width="20"><path d="M333.71-480Q320-480 310-470.15t-10 23.65v120q0 13.8 9.79 23.65 9.79 9.85 23.5 9.85t23.71-9.85q10-9.85 10-23.65v-120q0-13.8-9.79-23.65-9.79-9.85-23.5-9.85Zm293-189Q613-669 603-659.15t-10 23.65v309q0 13.8 9.79 23.65 9.79 9.85 23.5 9.85t23.71-9.85q10-9.85 10-23.65v-309q0-13.8-9.79-23.65-9.79-9.85-23.5-9.85Zm-146 236Q467-433 457-423.15t-10 23.65v73q0 13.8 9.79 23.65 9.79 9.85 23.5 9.85t23.71-9.85q10-9.85 10-23.65v-73q0-13.8-9.79-23.65-9.79-9.85-23.5-9.85ZM232-119q-47.64 0-80.32-32.68Q119-184.36 119-232v-496q0-47.64 32.68-80.32Q184.36-841 232-841h496q47.64 0 80.32 32.68Q841-775.64 841-728v496q0 47.64-32.68 80.32Q775.64-119 728-119H232Zm0-113h496v-496H232v496Zm0-496v496-496Zm248.29 248q13.71 0 23.71-9.79t10-23.5q0-13.71-9.79-23.71t-23.5-10Q467-547 457-537.21t-10 23.5q0 13.71 9.79 23.71t23.5 10Z"/></svg>