<svg xmlns="http://www.w3.org/2000/svg" height="48" width="48"><path d="M30.1 46H17.9Q17.2 46 16.6 45.4Q16 44.8 16 44.1V19.9Q16 19.15 16.6 18.575Q17.2 18 17.9 18H30.1Q30.85 18 31.425 18.575Q32 19.15 32 19.9V44.1Q32 44.8 31.425 45.4Q30.85 46 30.1 46ZM24 28.1Q24.85 28.1 25.475 27.475Q26.1 26.85 26.1 26Q26.1 25.1 25.5 24.45Q24.9 23.8 24 23.8Q23.1 23.8 22.45 24.45Q21.8 25.1 21.8 26Q21.8 26.9 22.45 27.5Q23.1 28.1 24 28.1ZM24 11Q22.1 11 20.425 11.575Q18.75 12.15 17.35 13.2Q16.8 13.6 16.2 13.6Q15.6 13.6 15.15 13.15Q14.7 12.7 14.7 12.1Q14.7 11.5 15.2 11.1Q17 9.65 19.225 8.825Q21.45 8 24 8Q26.55 8 28.775 8.825Q31 9.65 32.8 11.1Q33.3 11.5 33.3 12.1Q33.3 12.7 32.85 13.15Q32.4 13.6 31.8 13.6Q31.2 13.6 30.65 13.2Q29.25 12.15 27.575 11.575Q25.9 11 24 11ZM24 3Q20.45 3 17.325 4.175Q14.2 5.35 11.7 7.45Q11.2 7.85 10.55 7.9Q9.9 7.95 9.45 7.5Q9 7.05 9.05 6.35Q9.1 5.65 9.65 5.25Q12.55 2.8 16.2 1.4Q19.85 0 24 0Q28.15 0 31.8 1.425Q35.45 2.85 38.3 5.35Q38.8 5.8 38.85 6.45Q38.9 7.1 38.45 7.55Q38 8 37.35 7.95Q36.7 7.9 36.2 7.5Q33.75 5.4 30.625 4.2Q27.5 3 24 3Z"/></svg>