<svg xmlns="http://www.w3.org/2000/svg" height="20" viewBox="0 -960 960 960" width="20"><path d="M308-180.31v-407q0-27 18.5-45.84Q345-652 371.92-652h407.77q26.62 0 45.47 18.84Q844-614.31 844-587.69v291.23L663.54-116H372.31q-26.62 0-45.47-18.84Q308-153.69 308-180.31ZM118-696.08q-4.61-25.92 11.16-48.42 15.76-22.5 41.69-27.11L571.23-843q25.92-4.61 47.92 11.16 22 15.76 26.62 41.69L656-731.69h-52.23L594-783.54q-.77-4.23-4.62-6.73-3.84-2.5-8.46-1.73l-401.53 71.77q-5.39.77-8.08 5-2.69 4.23-1.93 9.62l58.93 330.31v127.22q-14.85-5.84-25.39-18.58-10.53-12.74-13.53-29.03L118-696.08Zm242 108.39v407.38q0 5.39 3.46 8.85t8.85 3.46H624l168-168v-251.69q0-5.39-3.46-8.85t-8.85-3.46H372.31q-5.39 0-8.85 3.46t-3.46 8.85ZM576-384Zm-26 134h52v-108h108v-52H602v-108h-52v108H442v52h108v108Z"/></svg>