<svg xmlns="http://www.w3.org/2000/svg" height="20" width="20"><path d="M4.042 18.688Q3.229 18.688 2.667 18.115Q2.104 17.542 2.104 16.708H5.833Q4 15.625 2.906 13.812Q1.812 12 1.812 9.688Q1.812 8 2.448 6.51Q3.083 5.021 4.208 3.906Q5.333 2.792 6.823 2.146Q8.312 1.5 10 1.5Q11.688 1.5 13.177 2.146Q14.667 2.792 15.792 3.906Q16.917 5.021 17.552 6.51Q18.188 8 18.188 9.688Q18.188 12 17.094 13.812Q16 15.625 14.167 16.708H17.896Q17.896 17.542 17.333 18.115Q16.771 18.688 15.958 18.688ZM10 15.917Q12.604 15.917 14.406 14.104Q16.208 12.292 16.208 9.688Q16.208 7.083 14.406 5.281Q12.604 3.479 10 3.479Q7.396 3.479 5.594 5.281Q3.792 7.083 3.792 9.688Q3.792 12.292 5.594 14.104Q7.396 15.917 10 15.917ZM5.917 12.521V11.542Q6.438 11.104 6.927 10.635Q7.417 10.167 7.604 9.958Q7.938 9.625 8.115 9.344Q8.292 9.062 8.292 8.896Q8.292 8.646 8.094 8.5Q7.896 8.354 7.646 8.354Q7.333 8.354 7.094 8.531Q6.854 8.708 6.75 9.042L5.854 8.625Q6.042 8.083 6.521 7.729Q7 7.375 7.667 7.375Q8.396 7.375 8.833 7.844Q9.271 8.312 9.271 8.896Q9.271 9.292 9.031 9.698Q8.792 10.104 8.438 10.479Q8.146 10.792 7.865 11.073Q7.583 11.354 7.396 11.542H7.375H9.292V12.521ZM11.979 12.625Q11.021 12.625 10.438 11.865Q9.854 11.104 9.854 10Q9.854 8.896 10.438 8.135Q11.021 7.375 11.979 7.375Q12.958 7.375 13.542 8.135Q14.125 8.896 14.125 10Q14.125 11.104 13.542 11.865Q12.958 12.625 11.979 12.625ZM11.979 11.646Q12.521 11.646 12.823 11.208Q13.125 10.771 13.125 10Q13.125 9.312 12.844 8.833Q12.562 8.354 11.979 8.354Q11.417 8.354 11.135 8.833Q10.854 9.312 10.854 10Q10.854 10.771 11.167 11.208Q11.479 11.646 11.979 11.646Z"/></svg>