<svg xmlns="http://www.w3.org/2000/svg" height="48" viewBox="0 -960 960 960" width="48"><path d="M828-33 710.71-150.5H249.5q-95.5 0-161.5-65T22-376q0-82 52-142t130.5-72.5q-.5-9.5 2.25-26.75T217-644.5L54-808l49-47L877-81l-49 48ZM249.86-242H621L298-564.5q-10 11.5-13.07 27.45-3.07 15.95-3.07 30.55h-32.23q-56.42 0-96.27 35.9-39.86 35.9-39.86 92.38t39.86 96.35Q193.21-242 249.86-242ZM458-405Zm406.5 220-69-70.5q25-17.5 38-35.99 13-18.48 13-45.74 0-36.95-27.8-64.11-27.8-27.16-65.36-27.16H675.5v-91q0-81.53-57.18-138.02Q561.14-714 479.04-714q-29.14 0-58.59 9.5Q391-695 366-677.5l-65-65q37-31.5 84.13-47.25 47.12-15.75 93.01-15.75 113.03 0 196.45 79 83.41 79 91.41 191v23-.5q73.5 7 122.75 56.32T938-334.78q0 39.78-19.5 84.03t-54 65.75ZM582-467Z"/></svg>