<svg xmlns="http://www.w3.org/2000/svg" height="40" width="40"><path d="m34.417 36.458-4.834-4.916H10.667q-3.084 0-5.209-2.125-2.125-2.125-2.125-5.209 0-3.083 2.084-5.125 2.083-2.041 4.833-2.125 0-.708.354-1.77.354-1.063.813-1.771L4.958 6.958l1-1 29.5 29.5Zm-23.75-6.333h17.458L12.5 14.458q-.5.75-.75 1.792t-.25 2.083h-.833q-2.459 0-4.188 1.688-1.729 1.687-1.729 4.146 0 2.458 1.729 4.208t4.188 1.75Zm9.583-7.875Zm14.458 7.958-1.041-1.083q.75-.667 1.166-1.437.417-.771.417-1.813 0-1.75-1.229-2.979t-2.979-1.229h-2.625v-3.375q0-3.5-2.459-5.959Q23.5 9.875 20 9.875q-1.167 0-2.312.313-1.146.312-2.146.979l-1-1.042q1.5-.917 2.75-1.292t2.666-.375q4.125 0 7 2.896t2.875 6.979v1.917h1.042q2.417 0 4.104 1.604 1.688 1.604 1.688 4.021 0 1.083-.438 2.229-.437 1.146-1.521 2.104ZM24.625 20.167Z"/></svg>