<svg xmlns="http://www.w3.org/2000/svg" height="40" width="40"><path d="M18.708 6.5V1.875h2.625V6.5Zm0 31.583v-4.625h2.625v4.625ZM33.5 21.292v-2.625h4.625v2.625Zm-31.583 0v-2.625H6.5v2.625ZM30.833 11l-1.875-1.875 2.75-2.792 1.917 1.917ZM8.292 33.625l-1.917-1.917 2.792-2.75 1.875 1.917Zm23.416 0-2.75-2.75 1.875-1.917 2.792 2.75ZM9.167 11 6.375 8.25l1.917-1.917 2.75 2.792ZM20 29.375q-3.917 0-6.646-2.75t-2.729-6.667q0-3.875 2.729-6.604T20 10.625q3.917 0 6.646 2.729T29.375 20q0 3.875-2.729 6.625T20 29.375Zm0-2.667q2.833 0 4.792-1.958Q26.75 22.792 26.75 20q0-2.833-1.958-4.792Q22.833 13.25 20 13.25q-2.833 0-4.792 1.958Q13.25 17.167 13.25 20q0 2.792 1.958 4.75 1.959 1.958 4.792 1.958Zm0-6.75Z"/></svg>