<svg xmlns="http://www.w3.org/2000/svg" height="48" width="48"><path d="M34.25 34.4Q35.55 34.4 36.45 33.45Q37.35 32.5 37.35 31.25Q37.35 30 36.425 29.075Q35.5 28.15 34.2 28.15Q32.95 28.15 32.025 29.05Q31.1 29.95 31.1 31.25Q31.1 32.55 32.025 33.475Q32.95 34.4 34.25 34.4ZM34.25 40.5Q35.9 40.5 37.225 39.825Q38.55 39.15 39.5 37.85Q38.2 37.2 36.9 36.825Q35.6 36.45 34.25 36.45Q32.9 36.45 31.55 36.825Q30.2 37.2 29.05 37.85Q29.9 39.15 31.225 39.825Q32.55 40.5 34.25 40.5ZM34.3 42.8Q30.8 42.8 28.35 40.35Q25.9 37.9 25.9 34.4Q25.9 30.9 28.35 28.425Q30.8 25.95 34.3 25.95Q37.8 25.95 40.25 28.4Q42.7 30.85 42.7 34.4Q42.7 37.85 40.25 40.325Q37.8 42.8 34.3 42.8ZM23.8 42.6Q23.55 42.6 23.45 42.575Q23.35 42.55 23.1 42.45Q17.25 40.45 13.25 34.825Q9.25 29.2 9.25 22.05V13.2Q9.25 12.1 9.875 11.2Q10.5 10.3 11.45 9.9L22.8 5.7Q23.35 5.5 23.95 5.5Q24.55 5.5 25.15 5.7L36.55 9.9Q37.5 10.35 38.15 11.225Q38.8 12.1 38.8 13.2V23.4Q38.35 23.15 37.7 22.95Q37.05 22.75 36.6 22.6V13.1Q36.6 12.75 36.4 12.425Q36.2 12.1 35.8 11.95L24.4 7.8Q24.25 7.65 24 7.65Q23.75 7.65 23.6 7.8L12.25 11.95Q11.85 12.1 11.65 12.425Q11.45 12.75 11.45 13.1V22.05Q11.45 25.85 12.575 28.875Q13.7 31.9 15.525 34.25Q17.35 36.6 19.55 38.125Q21.75 39.65 23.9 40.15H24.05Q24.15 40.6 24.55 41.225Q24.95 41.85 25.4 42.25Q24.85 42.45 24.5 42.525Q24.15 42.6 23.8 42.6ZM24 23.95Q24 23.95 24 23.95Q24 23.95 24 23.95Q24 23.95 24 23.95Q24 23.95 24 23.95Q24 23.95 24 23.95Q24 23.95 24 23.95Q24 23.95 24 23.95Q24 23.95 24 23.95Q24 23.95 24 23.95Q24 23.95 24 23.95Q24 23.95 24 23.95Q24 23.95 24 23.95Q24 23.95 24 23.95Q24 23.95 24 23.95Q24 23.95 24 23.95Q24 23.95 24 23.95Z"/></svg>