<svg xmlns="http://www.w3.org/2000/svg" height="48" viewBox="0 -960 960 960" width="48"><path d="M281-581h170q-14-11-20.5-25.4-6.5-14.41-6.5-33.5 0-11.55 2.25-21.33Q428.5-671 434-680H313q-14 0-23 9t-9 23v67Zm348.01 26q71.99 0 121.49-21.5T800-640q0-42-49.51-64t-121.5-22Q557-726 508-704t-49 64q0 42 49.01 63.5t121 21.5ZM193-206q-27.5 0-47.25-19.75T126-273v-241q0-26.5 19.75-46.75T193-581h53v-67q0-26.5 19.75-46.75T313-715h146q30-25 75.63-35.5Q580.25-761 629-761q75 0 140.5 27.5T835-640v367q0 27.5-20.25 47.25T768-206H618v-114q0-7.13-5.5-12.56-5.51-5.44-12.73-5.44-6.8 0-11.78 5.44Q583-327.13 583-320v114H458v-114q0-7.4-5.5-12.7-5.51-5.3-12.73-5.3-6.79 0-11.78 5.44Q423-327.13 423-320v114H298v-114q0-7.4-5.5-12.7-5.51-5.3-12.73-5.3-6.79 0-11.78 5.44Q263-327.13 263-320v114h-70Z"/></svg>