<svg xmlns="http://www.w3.org/2000/svg" height="24" viewBox="0 -960 960 960" width="24"><path d="m480-417 84.69 63.77q7.62 5.61 15.04.5 7.42-5.12 4.42-13.35l-33.38-105L640-540.23q8-5.23 4.9-13.65-3.1-8.43-12.52-8.43H526.61l-34.76-105.77q-2.56-8.23-11.63-8.23t-12.07 8.23l-34.76 105.77H327.62q-9.23 0-12.23 8.43-3 8.42 5 13.65l86.84 69.15-33.38 105.39q-3 8.23 4.42 13.84 7.42 5.62 15.04 0L480-417Zm0 344.84q-7.23 0-15.23-1.25t-15.62-3.75q-137.53-46-218.34-171.57Q150-374.31 150-516v-184.15q0-31.14 17.9-56.17 17.89-25.02 46.1-36.29l231.69-87q16.85-6.62 34.31-6.62t34.31 6.62l231.69 87q28.21 11.27 46.1 36.29 17.9 25.03 17.9 56.17V-516q0 141.69-80.81 267.27-80.81 125.57-218.34 171.57-7.62 2.5-15.62 3.75-8 1.25-15.23 1.25Zm0-83.84q106-35 175-135.5t69-224.22v-184.79q0-3.85-2.12-6.93-2.11-3.07-5.96-4.61l-231.69-87.03q-1.92-.77-4.23-.77-2.31 0-4.23.77l-231.69 86.94q-3.85 1.54-5.96 4.61-2.12 3.08-2.12 6.93V-516q0 124 69 224.5T480-156Zm0-322.23Z"/></svg>