<svg xmlns="http://www.w3.org/2000/svg" height="20" width="20"><path d="M15 15.125q-.375 0-.615-.24-.239-.239-.239-.614 0-.354.239-.604.24-.25.615-.25.354 0 .604.25t.25.604q0 .375-.25.614-.25.24-.604.24Zm-5.979-1.208q-.146 0-.271.156-.125.156-.375.531-.229.334-.448.458-.219.126-.469.126-.312 0-.687-.24-.375-.24-.375-.49 0-.166.437-.687.25-.271.334-.479.083-.209.083-.625 0-.292-.146-.427-.146-.136-.562-.136-.271 0-.604-.031-.334-.031-.48-.219-.104-.125-.166-.323-.063-.198-.063-.364 0-.25.115-.396.114-.146.406-.25.417-.167.573-.313.156-.146.156-.291 0-.125-.229-.563-.167-.187-.188-.323-.02-.135-.02-.239 0-.23.323-.49t.677-.26q.146 0 .333.093.187.094.5.427.333.376.542.511.208.135.395.135.23 0 .376-.114.145-.115.145-.323 0-.146-.083-.344-.083-.198-.271-.448-.208-.271-.281-.416-.073-.146-.073-.271 0-.23.24-.396.239-.167.656-.167.354 0 .573.24.218.239.489.76.292.583.563.833.271.25.562.25.313 0 .625-.239.313-.24.75-.906.438-.646.719-.907.281-.26.49-.26.375 0 .729.448t.354.76q0 .334-.313.594-.312.26-.916.531-.729.292-1.021.532-.292.239-.292.51 0 .229.084.333.083.104.208.104.125 0 .271-.031.146-.031.333-.114.25-.105.438-.167.187-.062.354-.062.291 0 .521.302.229.302.229.739 0 .375-.354.583-.355.209-1.167.209-.688.021-.917.073-.229.052-.229.198 0 .166.146.291.146.125.375.271.313.125.479.334.167.208.167.333 0 .437-.313.771-.312.333-.604.333-.312 0-.51-.052t-.386-.156q-.187-.146-.406-.24-.219-.094-.406-.094-.208 0-.375.25t-.167.584q0 .312.104.583.104.271.104.562 0 .313-.187.521-.187.209-.542.209-.333 0-.531-.209-.198-.208-.198-.521 0-.333.063-.604.062-.27.062-.604 0-.229-.135-.458-.136-.229-.323-.229ZM.938 18.25V3.604h4.791l1.729-1.896h5.084l1.75 1.896h4.77V18.25Zm2.437-2.438h13.25v-9.77H3.375ZM10 10.917Z"/></svg>