<svg xmlns="http://www.w3.org/2000/svg" height="40" viewBox="0 -960 960 960" width="40"><path d="M70.84-110.84v-654.53h210.87l78.41-84.17h239.76l78.79 84.17h210.87v654.53H70.84Zm656.55-123.81q15.23 0 25.93-10.66 10.69-10.67 10.69-25.78 0-15.26-10.66-25.75t-25.77-10.49q-15.42 0-25.65 10.44-10.22 10.44-10.22 25.65 0 15.2 10.22 25.89 10.23 10.7 25.46 10.7Zm-292.71-68.6q9.67 0 16.45 10.74 6.78 10.73 6.78 25.93 0 15.71-3.05 29.13-3.06 13.43-3.06 29.13 0 15 8.38 25 8.39 10 23.65 10 14.94 0 23.51-10.08 8.57-10.09 8.57-24.92 0-16.12-4.96-30.26-4.96-14.13-4.96-30.99 0-17 8.71-28.28 8.71-11.28 18.31-11.28 7.87 0 17.21 4.23 9.33 4.23 21.13 10.91 14.5 8.08 25.3 12.2 10.81 4.12 18.03 4.12 18.16 0 31.7-15.73 13.53-15.73 13.53-31.69 0-10.88-9-18.83-9.01-7.95-24.68-15.2-15.95-7.42-22.42-13.25-6.48-5.83-6.48-13.98 0-8.06 12.37-11.99 12.37-3.94 51.4-4.31 28.12-.75 45.35-8.16t17.23-25.38q0-18.4-10.35-31.6-10.34-13.2-24.01-13.2-7.1 0-34.2 9.34-9.58 5-16.53 6.83-6.95 1.83-12.14 1.83-6.85 0-11.77-5.83-4.91-5.83-4.91-16.63 0-13.79 14.2-25.16 14.2-11.38 47.83-26.49 33.49-14.75 46.68-26.93 13.19-12.18 13.19-26.65 0-16.28-15.66-35.82-15.65-19.53-30.65-19.53-10.76 0-24.04 11.3t-36.94 46.88q-18.78 28.6-34.85 39.72Q573.46-537 557.8-537q-17.03 0-30.08-12.18-13.05-12.18-24.59-39.83-11.71-25.87-22.29-36.09-10.57-10.22-22.84-10.22-17.5 0-28.18 7.17-10.69 7.16-10.69 15.03 0 6.71 16.78 38.69 8.73 14.2 12.37 21.48 3.63 7.28 3.63 15.18 0 8.84-8.18 15.42t-18.6 6.58q-9.58 0-19.53-5.5-9.95-5.5-25.25-22.5-17.27-18.06-24.55-23.31-7.28-5.25-18.71-5.25-14.17 0-26.4 9.75-12.23 9.75-12.23 22.93 0 7.08 1.11 12.77 1.1 5.69 7.76 14.42 6.1 8.91 8.39 15.04 2.29 6.14 2.29 11.64 0 9.66-7.91 15.15-7.92 5.48-23.88 10.83-14.71 5.88-21.46 12.64-6.75 6.76-6.75 17.02 0 7.99 2.22 16.9 2.22 8.92 7.99 14.11 9.26 8.56 25.56 9.51 16.31.95 29.35.95 20.02 0 26.55 7.75 6.54 7.75 6.54 26.93 0 13.42-5.04 25.02-5.04 11.59-16.96 23.19-12.21 13.18-16.76 20.08-4.56 6.9-4.56 12.34 0 11.83 15.57 22.25 15.57 10.43 27.3 10.43 10.03 0 20.48-6.63 10.45-6.62 24.4-26.04 12.99-17.43 19.43-23.66 6.43-6.24 14.6-6.24Z"/></svg>