<svg xmlns="http://www.w3.org/2000/svg" height="24" width="24"><path d="M19.15 8.35Q18.2 8.35 17.488 7.65Q16.775 6.95 16.775 6Q16.775 5.275 17.312 4.362Q17.85 3.45 18.3 2.8Q18.45 2.575 18.663 2.45Q18.875 2.325 19.15 2.325Q19.4 2.325 19.625 2.45Q19.85 2.575 19.975 2.8Q20.45 3.45 20.975 4.362Q21.5 5.275 21.5 6Q21.5 6.95 20.812 7.65Q20.125 8.35 19.15 8.35ZM13.65 8.8Q13.05 8.8 12.638 8.387Q12.225 7.975 12.225 7.375Q12.225 7.125 12.4 6.75Q12.575 6.375 12.8 6.075Q12.925 5.85 13.15 5.737Q13.375 5.625 13.65 5.625Q13.9 5.625 14.137 5.737Q14.375 5.85 14.475 6.075Q14.725 6.375 14.888 6.75Q15.05 7.125 15.05 7.375Q15.05 7.975 14.638 8.387Q14.225 8.8 13.65 8.8ZM4.3 21.875Q3.15 21.875 2.363 21.087Q1.575 20.3 1.575 19.15V14.6Q1.575 14.05 1.813 13.55Q2.05 13.05 2.45 12.65L8.35 7.075Q8.675 6.75 9.125 6.75Q9.575 6.75 9.9 7.1L10.075 7.275Q10.3 7.5 10.312 7.787Q10.325 8.075 10.2 8.325L8.7 10.975H18.3Q18.725 10.975 19.013 11.287Q19.3 11.6 19.3 12.025Q19.3 12.475 19 12.787Q18.7 13.1 18.25 13.1H12.15Q11.975 13.1 11.863 13.212Q11.75 13.325 11.75 13.5Q11.75 13.65 11.863 13.775Q11.975 13.9 12.15 13.9H20.15Q20.6 13.9 20.9 14.212Q21.2 14.525 21.2 14.95Q21.2 15.4 20.9 15.712Q20.6 16.025 20.15 16.025H12.15Q11.975 16.025 11.863 16.137Q11.75 16.25 11.75 16.425Q11.75 16.575 11.863 16.7Q11.975 16.825 12.15 16.825H19.2Q19.65 16.825 19.95 17.137Q20.25 17.45 20.25 17.875Q20.25 18.325 19.95 18.637Q19.65 18.95 19.2 18.95H12.15Q11.975 18.95 11.863 19.062Q11.75 19.175 11.75 19.35Q11.75 19.5 11.863 19.625Q11.975 19.75 12.15 19.75H17.3Q17.75 19.75 18.062 20.062Q18.375 20.375 18.375 20.8Q18.375 21.25 18.062 21.562Q17.75 21.875 17.3 21.875Z"/></svg>