<svg xmlns="http://www.w3.org/2000/svg" height="24" viewBox="0 96 960 960" width="24"><path d="M440 605H167q-10.95 0-18.975-8.035-8.025-8.035-8.025-19T148.025 559q8.025-8 18.975-8h273l-57-59q-8-7.5-7.5-18.25t8.674-19.098Q391.667 447 402.333 447 413 447 421 455l92 93q13 12.818 13 29.909T513 608l-93 93q-8 8-18.633 7.5-10.634-.5-18.541-8.674Q375 692 374.5 682q-.5-10 7.5-18l58-59Zm328 286V263q0-10.95 8.035-18.975 8.035-8.025 19-8.025T814 244.025q8 8.025 8 18.975v628q0 10.95-8.035 18.975-8.035 8.025-19 8.025T776 909.975q-8-8.025-8-18.975ZM604 290v-54h82v54h-82Zm0 628v-54h82v54h-82ZM440 290v-54h82v54h-82Zm0 628v-54h82v54h-82ZM276 290v-54h82v54h-82Zm0 628v-54h82v54h-82Zm-82 0q-22.275 0-38.138-15.862Q140 886.275 140 864h54v54Zm-54-628q0-22.275 15.862-38.137Q171.725 236 194 236v54h-54Z"/></svg>