<svg xmlns="http://www.w3.org/2000/svg" height="24" width="24"><path d="M6.45 20H17.55V19.8Q16.375 18.725 14.963 18.212Q13.55 17.7 12 17.7Q10.475 17.7 9.05 18.212Q7.625 18.725 6.45 19.775ZM5 19.05Q6.35 17.725 8.138 16.962Q9.925 16.2 12 16.2Q14.075 16.2 15.863 16.962Q17.65 17.725 19 19.05V6.3Q19 6.175 18.913 6.088Q18.825 6 18.7 6H5.3Q5.175 6 5.088 6.088Q5 6.175 5 6.3ZM12 13.75Q10.65 13.75 9.7 12.8Q8.75 11.85 8.75 10.5Q8.75 9.15 9.7 8.2Q10.65 7.25 12 7.25Q13.35 7.25 14.3 8.2Q15.25 9.15 15.25 10.5Q15.25 11.85 14.3 12.8Q13.35 13.75 12 13.75ZM12 12.25Q12.725 12.25 13.238 11.738Q13.75 11.225 13.75 10.5Q13.75 9.775 13.238 9.262Q12.725 8.75 12 8.75Q11.275 8.75 10.762 9.262Q10.25 9.775 10.25 10.5Q10.25 11.225 10.762 11.738Q11.275 12.25 12 12.25ZM5.3 21.5Q4.55 21.5 4.025 20.975Q3.5 20.45 3.5 19.7V6.3Q3.5 5.55 4.025 5.025Q4.55 4.5 5.3 4.5H6.7V3.15Q6.7 2.825 6.912 2.6Q7.125 2.375 7.45 2.375Q7.8 2.375 8.012 2.6Q8.225 2.825 8.225 3.15V4.5H15.8V3.125Q15.8 2.825 16.025 2.6Q16.25 2.375 16.55 2.375Q16.875 2.375 17.087 2.6Q17.3 2.825 17.3 3.125V4.5H18.7Q19.45 4.5 19.975 5.025Q20.5 5.55 20.5 6.3V19.7Q20.5 20.45 19.975 20.975Q19.45 21.5 18.7 21.5ZM12 10.5Q12 10.5 12 10.5Q12 10.5 12 10.5Q12 10.5 12 10.5Q12 10.5 12 10.5Q12 10.5 12 10.5Q12 10.5 12 10.5Q12 10.5 12 10.5Q12 10.5 12 10.5ZM6.45 20Q7.625 20 9.05 20Q10.475 20 12 20Q13.55 20 14.963 20Q16.375 20 17.55 20Z"/></svg>