<svg xmlns="http://www.w3.org/2000/svg" height="48" width="48"><path d="M16 39.4q-.25 0-.375-.15t-.125-.45v-5.1h-3.65q-.25 0-.375-.125t-.125-.375q0-.3.125-.45.125-.15.375-.15h3.65v-6.3h-3.65q-.25 0-.375-.175t-.125-.375q0-.25.125-.4.125-.15.375-.15h3.65V9.95q0-.6.35-.975t1-.375h11q3.95 0 6.425 2.45 2.475 2.45 2.475 6.4 0 4-2.475 6.425T27.85 26.3H16.6v6.3h7.55q.25 0 .425.175t.175.425q0 .25-.175.375t-.425.125H16.6v5.1q0 .3-.175.45-.175.15-.425.15Zm.6-14.2h11.3q3.45 0 5.6-2.125 2.15-2.125 2.15-5.625t-2.15-5.625Q31.35 9.7 27.85 9.7H16.6Z"/></svg>