<svg xmlns="http://www.w3.org/2000/svg" height="48" width="48"><path d="M20.9 24.75H5.75q-.3 0-.5-.2t-.2-.55q0-.35.2-.575.2-.225.5-.225H20.9l-6.75-6.75q-.2-.2-.2-.55 0-.35.2-.55.2-.2.525-.2t.525.2l7.65 7.7q.4.4.4.95 0 .55-.4.95L15.2 32.6q-.2.25-.525.25t-.525-.2q-.25-.2-.25-.55 0-.35.25-.55Zm7.35-8q-.35 0-.55-.2-.2-.2-.2-.55 0-.35.2-.575.2-.225.55-.225h14q.3 0 .525.225Q43 15.65 43 16t-.225.55q-.225.2-.525.2Zm0 16q-.35 0-.55-.2-.2-.2-.2-.55 0-.35.2-.575.2-.225.55-.225h14q.3 0 .525.225Q43 31.65 43 32t-.225.55q-.225.2-.525.2Zm6-8q-.35 0-.55-.2-.2-.2-.2-.55 0-.35.2-.575.2-.225.55-.225h8q.3 0 .525.225Q43 23.65 43 24t-.225.55q-.225.2-.525.2Z"/></svg>