<svg xmlns="http://www.w3.org/2000/svg" height="40" viewBox="0 -960 960 960" width="40"><path d="M361.41-442.12H111.18q-16 0-26.94-10.98-10.94-10.97-10.94-27.02 0-16.05 10.94-26.9 10.94-10.86 26.94-10.86h250.23l-96.84-97.6q-10.35-11.02-10.69-26.46-.34-15.44 10.93-26.58 11.02-11.02 26.52-11.02t26.52 11.02l161.77 161.76q11.35 11.35 11.35 26.76 0 15.41-11.35 26.76L317.85-291.48q-11.02 11.02-26.35 11.19-15.33.17-26.69-11.19-11.02-11.02-11.02-26.52t11.02-26.52l96.6-97.6ZM572.8-286.21q-16 0-26.93-10.97-10.94-10.97-10.94-27.18 0-16.05 10.94-26.91 10.93-10.85 26.93-10.85h276.02q16 0 27.02 10.97t11.02 27.02q0 16.21-11.02 27.06-11.02 10.86-27.02 10.86H572.8Zm0-311.67q-16 0-26.93-10.97-10.94-10.97-10.94-27.18 0-16.05 10.94-26.9 10.93-10.86 26.93-10.86h276.02q16 0 27.02 10.97t11.02 27.02q0 16.21-11.02 27.07-11.02 10.85-27.02 10.85H572.8Zm120 155.76q-16 0-26.93-10.98-10.94-10.97-10.94-27.02 0-16.05 10.94-26.9 10.93-10.86 26.93-10.86h156.02q16 0 27.02 10.98 11.02 10.97 11.02 27.02 0 16.05-11.02 26.9-11.02 10.86-27.02 10.86H692.8Z"/></svg>