<svg xmlns="http://www.w3.org/2000/svg" height="20" width="20"><path d="M7.417 10.938H2.604q-.375 0-.656-.282-.281-.281-.281-.656t.281-.656q.281-.282.656-.282h4.813L5.625 7.271q-.271-.271-.25-.646.021-.375.292-.646.291-.291.645-.291.355 0 .646.291l3.375 3.354q.271.271.271.667t-.271.667l-3.375 3.354q-.27.291-.656.281-.385-.01-.656-.281t-.281-.636q-.011-.364.26-.656Zm4.458-3.459q-.354 0-.646-.281-.291-.281-.291-.656 0-.354.291-.646.292-.292.646-.292h5.646q.375 0 .656.292t.281.646q0 .375-.281.656t-.656.281Zm0 6.917q-.354 0-.646-.292-.291-.292-.291-.646 0-.375.291-.666.292-.292.646-.292h5.646q.375 0 .656.292.281.291.281.666 0 .354-.281.646-.281.292-.656.292Zm2.5-3.458q-.354 0-.646-.282-.291-.281-.291-.656t.291-.656q.292-.282.646-.282h3.146q.375 0 .656.282.281.281.281.656t-.281.656q-.281.282-.656.282Z"/></svg>