<svg xmlns="http://www.w3.org/2000/svg" height="24" width="24"><path d="M8 20.975q-.45 0-.762-.312-.313-.313-.313-.763v-1.925H6q-.45 0-.762-.312-.313-.313-.313-.763t.313-.763q.312-.312.762-.312h.925V4.075q0-.425.313-.738.312-.312.762-.312h9q.45 0 .762.312.313.313.313.763t-.313.762q-.312.313-.762.313H9.075V10.8H16q.45 0 .762.312.313.313.313.763t-.313.762q-.312.313-.762.313H9.075v2.875H12q.45 0 .763.312.312.313.312.763t-.312.763q-.313.312-.763.312H9.075V19.9q0 .45-.312.763-.313.312-.763.312Z"/></svg>