<svg xmlns="http://www.w3.org/2000/svg" height="24" width="24"><path d="M12.425 21.475q-.35-.35-.35-.825t.35-.825L15.2 17.05 6.95 8.8l-2.775 2.775q-.35.35-.825.35t-.825-.35q-.35-.35-.35-.825t.35-.825L3.2 9.25l-.725-.725Q2.1 8.15 2.1 7.6t.375-.925L3.65 5.5l-.725-.725Q2.55 4.4 2.55 3.85t.375-.925q.375-.375.925-.375t.925.375l.725.725 1.175-1.175Q7.05 2.1 7.6 2.1t.925.375l.725.725.675-.675q.35-.35.825-.35t.825.35q.35.35.35.825t-.35.825L8.8 6.95l8.25 8.25 2.775-2.775q.35-.35.825-.35t.825.35q.35.35.35.825t-.35.825l-.675.675.725.725q.375.375.375.925t-.375.925L20.35 18.5l.725.725q.375.375.375.925t-.375.925q-.375.375-.925.375t-.925-.375l-.725-.725-1.175 1.175q-.375.375-.925.375t-.925-.375l-.725-.725-.675.675q-.35.35-.825.35t-.825-.35Z"/></svg>