<svg xmlns="http://www.w3.org/2000/svg" height="24" width="24"><path d="M3.3 19.35q-1.125 0-1.887-.763Q.65 17.825.65 16.7V7.3q0-1.125.763-1.888.762-.762 1.887-.762h9.4q1.125 0 1.888.762.762.763.762 1.888v9.4q0 1.125-.762 1.887-.763.763-1.888.763Zm14.525-7.85q-.575 0-.95-.375t-.375-.95v-4.2q0-.55.375-.938.375-.387.95-.387h4.2q.55 0 .938.387.387.388.387.938v4.2q0 .575-.387.95-.388.375-.938.375Zm1.325-2.65h1.55V7.3h-1.55ZM3.3 16.7h9.4V7.3H3.3v9.4Zm.725-1.7h8L9.4 11.5 7.525 14l-1.4-1.825Zm13.8 4.35q-.575 0-.95-.375t-.375-.95v-4.2q0-.55.375-.938.375-.387.95-.387h4.2q.55 0 .938.387.387.388.387.938v4.2q0 .575-.387.95-.388.375-.938.375Zm1.325-2.65h1.55v-1.55h-1.55Zm-15.85 0V7.3v9.4Zm15.85-7.85V7.3v1.55Zm0 7.85v-1.55 1.55Z"/></svg>