<svg xmlns="http://www.w3.org/2000/svg" height="40" width="40"><path d="M30 23.417q4.875-4.167 7.292-7.646 2.416-3.479 2.416-6.521 0-4.583-2.937-7.271Q33.833-.708 30-.708q-3.833 0-6.771 2.687-2.937 2.688-2.937 7.271 0 3.042 2.416 6.521Q25.125 19.25 30 23.417ZM27.708 12.75l.834-2.792L26.25 8h2.792L30 5.25 30.958 8h2.792l-2.292 1.958.875 2.792L30 11ZM6.042 37.375q-1.417 0-2.459-1.042-1.041-1.041-1.041-2.458V13.292q0-1.417 1.041-2.459 1.042-1.041 2.459-1.041h5.541l3.75-4.167h2.75q-.25.792-.395 1.792-.146 1-.146 1.833 0 1.75.562 3.417.563 1.666 1.521 3.375-3.458.291-5.5 2.312t-2.042 5.229q0 3.292 2.229 5.521 2.23 2.229 5.521 2.229 2.542 0 4.917-1.666 2.375-1.667 2.417-4.959.625.625 1.437 1.313.813.687 1.396 1.104 1.958-1.5 4.062-3.437 2.105-1.938 3.605-3.896v14.083q0 1.417-1.042 2.458-1.042 1.042-2.458 1.042Zm13.791-8.833q-2.083 0-3.521-1.438-1.437-1.437-1.437-3.521 0-1.958 1.354-3.395 1.354-1.438 3.271-1.563.833 0 1.417.292.583.291 1.125.791.5.667.875 1.084.375.416 1.041 1 .334.5.542 1.041.208.542.208 1.209-.166 1.958-1.583 3.229-1.417 1.271-3.292 1.271Z"/></svg>