<svg xmlns="http://www.w3.org/2000/svg" height="24" width="24"><path d="M4 22.9Q2.825 22.9 1.988 22.075Q1.15 21.25 1.15 20.075V8.175Q1.15 7 1.988 6.162Q2.825 5.325 4 5.325H6.925L9.025 3.025H10.075Q9.825 3.675 9.7 4.462Q9.575 5.25 9.575 5.95Q9.575 6.575 9.675 7.137Q9.775 7.7 9.9 8.175H4Q4 8.175 4 8.175Q4 8.175 4 8.175V20.075Q4 20.075 4 20.075Q4 20.075 4 20.075H20.1Q20.1 20.075 20.1 20.075Q20.1 20.075 20.1 20.075V16.225Q20.75 15.625 21.525 14.875Q22.3 14.125 22.925 13.325V20.075Q22.925 21.25 22.1 22.075Q21.275 22.9 20.1 22.9ZM12.05 18.7Q13.3 18.7 14.413 18.062Q15.525 17.425 16.025 16.325Q15.7 16.025 15.263 15.612Q14.825 15.2 14.5 14.875Q14.5 14.875 14.5 14.875Q14.5 14.875 14.5 14.875Q14.25 15.7 13.538 16.2Q12.825 16.7 12.05 16.7Q10.975 16.7 10.225 15.95Q9.475 15.2 9.475 14.125Q9.475 13.15 10.113 12.425Q10.75 11.7 11.65 11.575Q11.65 11.575 11.65 11.575Q11.65 11.575 11.65 11.575Q11.3 11.1 11.025 10.662Q10.75 10.225 10.55 9.775Q9.2 10.25 8.338 11.4Q7.475 12.55 7.475 14.125Q7.475 16.025 8.8 17.362Q10.125 18.7 12.05 18.7ZM18 15.35Q21.225 12.6 22.825 10.275Q24.425 7.95 24.425 5.95Q24.425 2.925 22.488 1.15Q20.55 -0.625 18 -0.625Q15.45 -0.625 13.513 1.15Q11.575 2.925 11.575 5.95Q11.575 7.95 13.175 10.275Q14.775 12.6 18 15.35ZM18 11.65Q15.625 9.375 14.975 7.975Q14.325 6.575 14.325 5.9Q14.325 4.05 15.5 3.075Q16.675 2.1 18 2.1Q19.35 2.1 20.513 3.075Q21.675 4.05 21.675 5.9Q21.675 6.575 21.025 7.975Q20.375 9.375 18 11.65ZM16.45 8.4 17.025 6.525 15.475 5.225H17.375L18 3.35L18.625 5.225H20.525L18.975 6.525L19.575 8.4L18 7.225ZM12.05 14.125Q12.05 14.125 12.05 14.125Q12.05 14.125 12.05 14.125Q12.05 14.125 12.05 14.125Q12.05 14.125 12.05 14.125Q12.05 14.125 12.05 14.125Q12.05 14.125 12.05 14.125Q12.05 14.125 12.05 14.125Q12.05 14.125 12.05 14.125Q12.05 14.125 12.05 14.125Q12.05 14.125 12.05 14.125ZM18 6.525Q18 6.525 18 6.525Q18 6.525 18 6.525Q18 6.525 18 6.525Q18 6.525 18 6.525Q18 6.525 18 6.525Q18 6.525 18 6.525Q18 6.525 18 6.525Q18 6.525 18 6.525Z"/></svg>