<svg xmlns="http://www.w3.org/2000/svg" height="24" width="24"><path d="M12 21.1Q8.175 21.1 5.538 18.475Q2.9 15.85 2.9 12Q2.9 8.65 5.025 6.112Q7.15 3.575 10.6 3.05Q11.35 2.9 11.788 3.425Q12.225 3.95 11.925 4.625Q11.575 5.25 11.388 5.912Q11.2 6.575 11.2 7.3Q11.2 9.6 12.812 11.2Q14.425 12.8 16.725 12.8Q17.425 12.8 18.125 12.625Q18.825 12.45 19.4 12.1Q20.025 11.825 20.562 12.2Q21.1 12.575 20.95 13.375Q20.5 16.725 17.938 18.913Q15.375 21.1 12 21.1ZM12 18.825Q14.05 18.825 15.7 17.725Q17.35 16.625 18.15 14.85Q17.725 14.95 17.288 15.012Q16.85 15.075 16.4 15.05Q13.35 14.95 11.213 12.825Q9.075 10.7 8.95 7.6Q8.95 7.15 9 6.712Q9.05 6.275 9.15 5.85Q7.4 6.65 6.3 8.3Q5.2 9.95 5.2 12Q5.2 14.825 7.188 16.825Q9.175 18.825 12 18.825ZM11.675 12.325Q11.675 12.325 11.675 12.325Q11.675 12.325 11.675 12.325Q11.675 12.325 11.675 12.325Q11.675 12.325 11.675 12.325Q11.675 12.325 11.675 12.325Q11.675 12.325 11.675 12.325Q11.675 12.325 11.675 12.325Q11.675 12.325 11.675 12.325Q11.675 12.325 11.675 12.325Q11.675 12.325 11.675 12.325Q11.675 12.325 11.675 12.325Q11.675 12.325 11.675 12.325Z"/></svg>