<svg xmlns="http://www.w3.org/2000/svg" height="48" width="48"><path d="M24 42.05Q16.45 42.05 11.2 36.825Q5.95 31.6 5.95 24Q5.95 17.5 9.675 12.775Q13.4 8.05 19.7 6.55Q22.05 6 22.875 7.1Q23.7 8.2 22.95 10.4Q22.65 11.5 22.475 12.575Q22.3 13.65 22.3 14.7Q22.3 19.3 25.525 22.5Q28.75 25.7 33.3 25.7Q34.4 25.7 35.425 25.575Q36.45 25.45 37.55 25.2Q40 24.45 41 25.375Q42 26.3 41.4 28.65Q39.85 34.45 35.225 38.25Q30.6 42.05 24 42.05ZM24 38.75Q29.2 38.75 33.15 35.525Q37.1 32.3 38.15 27.95Q36.95 28.45 35.575 28.725Q34.2 29 32.85 28.95Q27.2 28.8 23.2 24.825Q19.2 20.85 19.05 15.15Q19.05 14.05 19.275 12.725Q19.5 11.4 20.15 9.7Q15.4 11.1 12.325 15.125Q9.25 19.15 9.25 24Q9.25 30.15 13.55 34.45Q17.85 38.75 24 38.75ZM23.7 24.25Q23.7 24.25 23.7 24.25Q23.7 24.25 23.7 24.25Q23.7 24.25 23.7 24.25Q23.7 24.25 23.7 24.25Q23.7 24.25 23.7 24.25Q23.7 24.25 23.7 24.25Q23.7 24.25 23.7 24.25Q23.7 24.25 23.7 24.25Q23.7 24.25 23.7 24.25Q23.7 24.25 23.7 24.25Q23.7 24.25 23.7 24.25Q23.7 24.25 23.7 24.25Z"/></svg>