<svg xmlns="http://www.w3.org/2000/svg" height="40" width="40"><path d="M8.333 35 5 15h30l-3.333 20Zm2.334-2.792h18.666l2.292-14.416H8.375Zm6-7.75h6.666q.584 0 .979-.416.396-.417.396-1 0-.584-.396-.98-.395-.395-.979-.395h-6.666q-.584 0-.979.395-.396.396-.396.98 0 .583.396 1 .395.416.979.416ZM10 12.792q-.583 0-.979-.417t-.396-1q0-.583.396-.979T10 10h20q.583 0 .979.396t.396.979q0 .583-.396 1-.396.417-.979.417Zm3.333-5q-.583 0-.979-.417t-.396-1q0-.583.396-.979T13.333 5h13.334q.583 0 .979.396t.396.979q0 .583-.396 1-.396.417-.979.417Zm-2.666 24.416h18.666Z"/></svg>