<svg xmlns="http://www.w3.org/2000/svg" height="40" viewBox="0 -960 960 960" width="40"><path d="M388.75-602.73q-24.31 0-40.55-16.35t-16.24-40.96q0-23.19 16.35-40.57t40.96-17.38q23.19 0 40.57 17.42 17.38 17.41 17.38 41.06 0 24.3-17.42 40.54-17.41 16.24-41.05 16.24Zm291.29 498.59q-73.55 0-124.73-51.23-51.17-51.23-51.17-124.69 0-73.45 51.23-124.98 51.23-51.54 124.69-51.54 73.45 0 124.98 51.49 51.54 51.5 51.54 125.05t-51.49 124.73q-51.5 51.17-125.05 51.17ZM747-191.15 768.85-213l-73.47-73.15v-109.23h-30.76v121.84L747-191.15Zm-576.71 70.09v-718.59h438.59v305.83q-9.08 2.45-17.24 4.97-8.16 2.52-15.75 5.66v-284.03H202.73v287.57h338.5v16.87q-48.74 29.45-79.67 73.69-30.93 44.24-41.48 97.64h-14.27v-85.13h-32.44v80h-80v32.44h80v80h33.98v-76.37l6.15 3.07q-2.18 48.98 13.71 95.16 15.88 46.19 47.15 81.22H170.29Z"/></svg>