<svg xmlns="http://www.w3.org/2000/svg" version="1.1" width="3300" height="2000"><g id="Notes"><style>
    text {
      font-family: monospace;
      text-anchor: middle;
    }
    text.emphasis {
      font-weight:bold;
    }
    text.lanchor {
      text-anchor: start;
    }
  </style><rect height="2200" id="artboard" fill="white" width="3300" x="0" y="0"/><line id="" style="fill:none;stroke:black;stroke-width:0.5;" x1="263" x2="3036" y1="292" y2="292"/><text class="lanchor emphasis" transform="matrix(1 0 0 1 263 322)">Weight/Scale Variations</text><text transform="matrix(1 0 0 1 559.711 322)">Ultralight</text><text transform="matrix(1 0 0 1 856.422 322)">Thin</text><text transform="matrix(1 0 0 1 1153.13 322)">Light</text><text transform="matrix(1 0 0 1 1449.84 322)">Regular</text><text transform="matrix(1 0 0 1 1746.56 322)">Medium</text><text transform="matrix(1 0 0 1 2043.27 322)">Semibold</text><text transform="matrix(1 0 0 1 2339.98 322)">Bold</text><text transform="matrix(1 0 0 1 2636.69 322)">Heavy</text><text transform="matrix(1 0 0 1 2933.4 322)">Black</text><text id="template-version" style="text-anchor: end;" transform="matrix(1 0 0 1 3036 1933)">Template v.1.0</text><text class="lanchor" transform="matrix(1 0 0 1 263 726)">Small</text><text class="lanchor" transform="matrix(1 0 0 1 263 1156)">Medium</text><text class="lanchor" transform="matrix(1 0 0 1 263 1586)">Large</text></g><g id="Guides"><g id="H-reference" style="fill:#27AAE1;stroke:none;" transform="matrix(1 0 0 1 339 696)"><path d="M 54.9316 0 L 57.666 0 L 30.5664 -70.459 L 28.0762 -70.459 L 0.976562 0 L 3.66211 0 L 12.9395 -24.4629 L 45.7031 -24.4629 Z M 29.1992 -67.0898 L 29.4434 -67.0898 L 44.8242 -26.709 L 13.8184 -26.709 Z"/></g><line id="Baseline-S" style="fill:none;stroke:#27AAE1;opacity:1;stroke-width:0.577;" x1="263" x2="3036" y1="696" y2="696"/><line id="Capline-S" style="fill:none;stroke:#27AAE1;opacity:1;stroke-width:0.577;" x1="263" x2="3036" y1="625.541" y2="625.541"/><g id="H-reference" style="fill:#27AAE1;stroke:none;" transform="matrix(1 0 0 1 339 1126)"><path d="M 54.9316 0 L 57.666 0 L 30.5664 -70.459 L 28.0762 -70.459 L 0.976562 0 L 3.66211 0 L 12.9395 -24.4629 L 45.7031 -24.4629 Z M 29.1992 -67.0898 L 29.4434 -67.0898 L 44.8242 -26.709 L 13.8184 -26.709 Z"/></g><line id="Baseline-M" style="fill:none;stroke:#27AAE1;opacity:1;stroke-width:0.577;" x1="263" x2="3036" y1="1126" y2="1126"/><line id="Capline-M" style="fill:none;stroke:#27AAE1;opacity:1;stroke-width:0.577;" x1="263" x2="3036" y1="1055.54" y2="1055.54"/><g id="H-reference" style="fill:#27AAE1;stroke:none;" transform="matrix(1 0 0 1 339 1556)"><path d="M 54.9316 0 L 57.666 0 L 30.5664 -70.459 L 28.0762 -70.459 L 0.976562 0 L 3.66211 0 L 12.9395 -24.4629 L 45.7031 -24.4629 Z M 29.1992 -67.0898 L 29.4434 -67.0898 L 44.8242 -26.709 L 13.8184 -26.709 Z"/></g><line id="Baseline-L" style="fill:none;stroke:#27AAE1;opacity:1;stroke-width:0.577;" x1="263" x2="3036" y1="1556" y2="1556"/><line id="Capline-L" style="fill:none;stroke:#27AAE1;opacity:1;stroke-width:0.577;" x1="263" x2="3036" y1="1485.54" y2="1485.54"/><rect height="119.336" id="left-margin" style="fill:darkred;stroke:none;opacity:0.4;" width="12.4512" x="1394.06" y="1030.79"/><rect height="119.336" id="right-margin" style="fill:darkgreen;stroke:none;opacity:0.4;" width="12.4512" x="1502.5112" y="1030.79"/><rect x="1406.5112" y="1045" width="96" height="96" fill="none" stroke="blue" stroke-dasharray="5"/><rect x="1394.06" y="1030.79" width="120.9024" height="119.336" fill="none" stroke="blue"/></g><g id="Symbols"><g id="Bold-L" transform="matrix(1 0 0 1 2266 1556)"><path d="M67.886 -67.44 Q67.886 -72.64 71.635 -76.429 Q75.384 -80.219 80.585 -80.219 Q85.785 -80.219 89.574 -76.47 Q93.364 -72.721 93.364 -67.52 Q93.364 -62.32 89.615 -58.531 Q85.866 -54.741 80.665 -54.741 Q75.465 -54.741 71.676 -58.49 Q67.886 -62.239 67.886 -67.44 Z M79.013 46.685  51.761 17.176  62.404 2.825  52.245 -11.204  62.242 -23.942 V-29.425 Q52.084 -34.424 45.15 -43.91 Q38.216 -53.396 38.216 -67.48 Q38.216 -85.003 50.671 -97.445 Q63.125 -109.889 80.664 -109.889 Q98.201 -109.889 110.618 -97.445 Q123.034 -85.003 123.034 -67.48 Q123.034 -54.58 116.906 -45.147 Q110.779 -35.714 99.008 -29.425 V26.529 L79.013 46.685 Z M51.6 -67.48 Q51.6 -57.644 58.211 -49.178 Q64.823 -40.712 75.465 -38.777 V-19.266 L68.692 -11.204 L78.851 2.986 L69.176 16.048 L78.851 27.819 L85.785 21.046 V-38.939 Q97.073 -41.196 103.361 -49.162 Q109.65 -57.126 109.65 -67.48 Q109.65 -79.574 101.184 -88.039 Q92.719 -96.505 80.625 -96.505 Q68.531 -96.505 60.066 -88.039 Q51.6 -79.574 51.6 -67.48 Z"/></g><g id="Semibold-L" transform="matrix(1 0 0 1 1970.27 1556)"><path d="M68.657 -67.457 Q68.657 -72.359 72.179 -75.904 Q75.7 -79.448 80.602 -79.448 Q85.504 -79.448 89.049 -75.926 Q92.593 -72.405 92.593 -67.503 Q92.593 -62.601 89.071 -59.056 Q85.55 -55.512 80.648 -55.512 Q75.746 -55.512 72.201 -59.034 Q68.657 -62.555 68.657 -67.457 Z M79.013 44.723  52.884 16.335  63.386 2.054  53.156 -12.045  63.013 -24.504 V-30.757 Q53.066 -35.827 46.446 -44.903 Q39.829 -53.982 39.829 -67.48 Q39.829 -84.395 51.776 -96.336 Q63.723 -108.276 80.646 -108.276 Q97.571 -108.276 109.495 -96.336 Q121.421 -84.395 121.421 -67.48 Q121.421 -55.141 115.574 -46.129 Q109.727 -37.117 98.237 -30.757 V25.406 L79.013 44.723 Z M51.6 -67.48 Q51.6 -57.853 58.035 -49.423 Q64.473 -40.993 74.694 -38.918 V-20.318 L67.71 -11.975 L77.869 2.215 L68.054 15.346 L79.061 27.959 L86.556 20.556 V-39.008 Q97.563 -41.617 103.606 -49.449 Q109.65 -57.281 109.65 -67.48 Q109.65 -79.574 101.184 -88.039 Q92.719 -96.505 80.625 -96.505 Q68.531 -96.505 60.066 -88.039 Q51.6 -79.574 51.6 -67.48 Z"/></g><g id="Medium-L" transform="matrix(1 0 0 1 1674.31 1556)"><path d="M69.236 -67.47 Q69.236 -72.15 72.587 -75.509 Q75.936 -78.869 80.615 -78.869 Q85.295 -78.869 88.654 -75.518 Q92.014 -72.169 92.014 -67.49 Q92.014 -62.81 88.663 -59.451 Q85.314 -56.091 80.635 -56.091 Q75.955 -56.091 72.596 -59.442 Q69.236 -62.791 69.236 -67.47 Z M79.013 43.25  53.724 15.704  64.121 1.475  53.84 -12.676  63.592 -24.925 V-31.757 Q53.801 -36.878 47.42 -45.648 Q41.038 -54.42 41.038 -67.48 Q41.038 -83.939 52.605 -95.504 Q64.171 -107.067 80.635 -107.067 Q97.097 -107.067 108.655 -95.504 Q120.212 -83.939 120.212 -67.48 Q120.212 -55.562 114.575 -46.864 Q108.939 -38.168 97.658 -31.757 V24.566 L79.013 43.25 Z M51.6 -67.48 Q51.6 -58.011 57.905 -49.607 Q64.21 -41.203 74.115 -39.023 V-21.106 L66.975 -12.553 L77.134 1.637 L67.214 14.82 L79.219 28.064 L87.135 20.187 V-39.061 Q97.932 -41.933 103.79 -49.665 Q109.65 -57.397 109.65 -67.48 Q109.65 -79.574 101.184 -88.039 Q92.719 -96.505 80.625 -96.505 Q68.531 -96.505 60.066 -88.039 Q51.6 -79.574 51.6 -67.48 Z"/></g><g id="Regular-L" transform="matrix(1 0 0 1 1378.56 1556)"><path d="M69.66 -67.48 Q69.66 -71.995 72.885 -75.22 Q76.11 -78.445 80.625 -78.445 Q85.14 -78.445 88.365 -75.22 Q91.59 -71.995 91.59 -67.48 Q91.59 -62.965 88.365 -59.74 Q85.14 -56.515 80.625 -56.515 Q76.11 -56.515 72.885 -59.74 Q69.66 -62.965 69.66 -67.48 Z M79.013 42.17  54.341 15.241  64.661 1.051  54.341 -13.139  64.016 -25.232 V-32.489 Q54.341 -37.649 48.133 -46.195 Q41.925 -54.741 41.925 -67.48 Q41.925 -83.605 53.212 -94.892 Q64.5 -106.18 80.625 -106.18 Q96.75 -106.18 108.038 -94.892 Q119.325 -83.605 119.325 -67.48 Q119.325 -55.87 113.843 -47.404 Q108.36 -38.939 97.234 -32.489 V23.949 L79.013 42.17 Z M51.6 -67.48 Q51.6 -58.127 57.808 -49.742 Q64.016 -41.357 73.691 -39.1 V-21.685 L66.435 -12.977 L76.594 1.213 L66.596 14.435 L79.335 28.141 L87.559 19.918 V-39.1 Q98.201 -42.164 103.926 -49.823 Q109.65 -57.482 109.65 -67.48 Q109.65 -79.574 101.184 -88.039 Q92.719 -96.505 80.625 -96.505 Q68.531 -96.505 60.066 -88.039 Q51.6 -79.574 51.6 -67.48 Z"/></g><g id="Light-L" transform="matrix(1 0 0 1 1082.77 1556)"><path d="M71.645 -67.48 Q71.645 -71.189 74.28 -73.825 Q76.916 -76.46 80.625 -76.46 Q84.334 -76.46 86.97 -73.825 Q89.605 -71.189 89.605 -67.48 Q89.605 -63.771 86.97 -61.135 Q84.334 -58.5 80.625 -58.5 Q76.916 -58.5 74.28 -61.135 Q71.645 -63.771 71.645 -67.48 Z M79.446 38.263  57.939 14.993  67.39 2.043  57.815 -11.154  66.498 -22.565 V-34.846 Q57.194 -39.261 51.173 -47.498 Q45.15 -55.733 45.15 -67.48 Q45.15 -82.241 55.507 -92.598 Q65.864 -102.955 80.625 -102.955 Q95.386 -102.955 105.743 -92.598 Q116.1 -82.241 116.1 -67.48 Q116.1 -56.552 110.618 -48.365 Q105.135 -40.179 94.752 -34.846 V22.957 L79.446 38.263 Z M52.469 -67.48 Q52.469 -58.003 58.614 -50.084 Q64.761 -42.164 73.815 -40.092 V-19.887 L66.932 -11.055 L76.408 2.267 L67.154 14.496 L79.707 27.707 L87.435 19.979 V-40.092 Q97.21 -42.785 102.995 -50.165 Q108.781 -57.544 108.781 -67.48 Q108.781 -79.201 100.564 -87.419 Q92.346 -95.636 80.625 -95.636 Q68.904 -95.636 60.686 -87.419 Q52.469 -79.201 52.469 -67.48 Z"/></g><g id="Thin-L" transform="matrix(1 0 0 1 787.282 1556)"><path d="M73.63 -67.48 Q73.63 -70.382 75.676 -72.429 Q77.722 -74.475 80.625 -74.475 Q83.528 -74.475 85.574 -72.429 Q87.62 -70.382 87.62 -67.48 Q87.62 -64.577 85.574 -62.531 Q83.528 -60.485 80.625 -60.485 Q77.722 -60.485 75.676 -62.531 Q73.63 -64.577 73.63 -67.48 Z M79.88 34.356  61.536 14.745  70.12 3.036  61.288 -9.169  68.978 -19.898 V-37.202 Q60.046 -40.874 54.211 -48.799 Q48.375 -56.726 48.375 -67.48 Q48.375 -80.877 57.802 -90.303 Q67.228 -99.73 80.625 -99.73 Q94.022 -99.73 103.448 -90.303 Q112.875 -80.877 112.875 -67.48 Q112.875 -57.234 107.392 -49.326 Q101.91 -41.419 92.272 -37.202 V21.964 L79.88 34.356 Z M53.337 -67.48 Q53.337 -57.879 59.421 -50.425 Q65.505 -42.97 73.94 -41.085 V-18.088 L67.427 -9.132 L76.221 3.322 L67.712 14.559 L80.08 27.274 L87.31 20.042 V-41.085 Q96.216 -43.404 102.065 -50.505 Q107.913 -57.607 107.913 -67.48 Q107.913 -78.829 99.944 -86.799 Q91.974 -94.768 80.625 -94.768 Q69.276 -94.768 61.306 -86.799 Q53.337 -78.829 53.337 -67.48 Z"/></g><g id="Ultralight-L" transform="matrix(1 0 0 1 491.205 1556)"><path d="M74.82 -67.48 Q74.82 -69.899 76.513 -71.592 Q78.206 -73.285 80.625 -73.285 Q83.044 -73.285 84.737 -71.592 Q86.43 -69.899 86.43 -67.48 Q86.43 -65.061 84.737 -63.368 Q83.044 -61.675 80.625 -61.675 Q78.206 -61.675 76.513 -63.368 Q74.82 -65.061 74.82 -67.48 Z M80.141 32.011  63.694 14.596  71.756 3.631  63.371 -7.979  70.466 -18.299 V-38.616 Q61.759 -41.841 56.034 -49.581 Q50.31 -57.321 50.31 -67.48 Q50.31 -80.057 59.179 -88.926 Q68.047 -97.795 80.625 -97.795 Q93.203 -97.795 102.071 -88.926 Q110.94 -80.057 110.94 -67.48 Q110.94 -57.644 105.457 -49.904 Q99.975 -42.164 90.784 -38.616 V21.369 L80.141 32.011 Z M53.858 -67.48 Q53.858 -57.805 59.904 -50.629 Q65.951 -43.454 74.014 -41.68 V-17.009 L67.725 -7.979 L76.11 3.954 L68.047 14.596 L80.303 27.013 L87.236 20.079 V-41.68 Q95.621 -43.776 101.507 -50.71 Q107.392 -57.644 107.392 -67.48 Q107.392 -78.606 99.572 -86.427 Q91.751 -94.247 80.625 -94.247 Q69.499 -94.247 61.678 -86.427 Q53.858 -78.606 53.858 -67.48 Z"/></g><g id="Bold-M" transform="matrix(1 0 0 1 2281.8 1126)"><path d="M50.625 -60.23 Q50.625 -65.105 54.125 -68.605 Q57.625 -72.105 62.5 -72.105 Q67.375 -72.105 70.875 -68.605 Q74.375 -65.105 74.375 -60.23 Q74.375 -55.355 70.875 -51.855 Q67.375 -48.355 62.5 -48.355 Q57.625 -48.355 54.125 -51.855 Q50.625 -55.355 50.625 -60.23 Z M62.5 29.395  37.375 4.27  45.125 -5.855  37.75 -15.73  45.625 -26.98 V-30.98 Q38.5 -34.855 33.562 -42.667 Q28.625 -50.48 28.625 -60.23 Q28.625 -74.23 38.562 -84.167 Q48.5 -94.105 62.5 -94.105 Q76.5 -94.105 86.438 -84.167 Q96.375 -74.23 96.375 -60.23 Q96.375 -50.48 91.5 -42.73 Q86.625 -34.98 79.375 -30.98 V12.395 L62.5 29.395 Z M42.5 -60.23 Q42.5 -52.73 47.125 -47.292 Q51.75 -41.855 59.375 -40.48 V-22.73 L54.75 -16.105 L62.375 -5.855 L55.75 2.895 L62 10.27 L65.625 6.77 V-40.605 Q72.875 -41.605 77.688 -47.23 Q82.5 -52.855 82.5 -60.23 Q82.5 -68.48 76.625 -74.355 Q70.75 -80.23 62.5 -80.23 Q54.25 -80.23 48.375 -74.355 Q42.5 -68.48 42.5 -60.23 Z"/></g><g id="Semibold-M" transform="matrix(1 0 0 1 1985.97 1126)"><path d="M51.44 -60.23 Q51.44 -64.779 54.695 -68.035 Q57.951 -71.29 62.5 -71.29 Q67.049 -71.29 70.305 -68.035 Q73.56 -64.779 73.56 -60.23 Q73.56 -55.681 70.305 -52.425 Q67.049 -49.17 62.5 -49.17 Q57.951 -49.17 54.695 -52.425 Q51.44 -55.681 51.44 -60.23 Z M62.5 27.384  38.516 3.4  46.157 -6.67  38.729 -16.6  46.44 -27.577 V-32.392 Q39.479 -36.322 34.894 -43.7 Q30.31 -51.077 30.31 -60.23 Q30.31 -73.577 39.731 -82.999 Q49.153 -92.42 62.5 -92.42 Q75.847 -92.42 85.269 -82.999 Q94.69 -73.577 94.69 -60.23 Q94.69 -51.077 90.141 -43.735 Q85.593 -36.392 78.56 -32.392 V11.254 L62.5 27.384 Z M42.5 -60.23 Q42.5 -52.947 46.962 -47.564 Q51.424 -42.181 58.56 -40.642 V-23.817 L53.718 -16.92 L61.343 -6.67 L54.609 2.134 L62.218 10.379 L66.44 6.226 V-40.714 Q73.364 -42.04 77.933 -47.529 Q82.5 -53.017 82.5 -60.23 Q82.5 -68.48 76.625 -74.355 Q70.75 -80.23 62.5 -80.23 Q54.25 -80.23 48.375 -74.355 Q42.5 -68.48 42.5 -60.23 Z"/></g><g id="Medium-M" transform="matrix(1 0 0 1 1689.91 1126)"><path d="M52.051 -60.23 Q52.051 -64.534 55.124 -67.606 Q58.196 -70.679 62.5 -70.679 Q66.804 -70.679 69.876 -67.606 Q72.949 -64.534 72.949 -60.23 Q72.949 -55.926 69.876 -52.854 Q66.804 -49.781 62.5 -49.781 Q58.196 -49.781 55.124 -52.854 Q52.051 -55.926 52.051 -60.23 Z M62.5 25.876  39.373 2.749  46.932 -7.281  39.462 -17.251  47.051 -28.026 V-33.452 Q40.212 -37.422 35.892 -44.475 Q31.574 -51.526 31.574 -60.23 Q31.574 -73.089 40.608 -82.122 Q49.641 -91.156 62.5 -91.156 Q75.359 -91.156 84.392 -82.122 Q93.426 -73.089 93.426 -60.23 Q93.426 -51.526 89.123 -44.49 Q84.817 -37.452 77.949 -33.452 V10.398 L62.5 25.876 Z M42.5 -60.23 Q42.5 -53.11 46.84 -47.767 Q51.179 -42.426 57.949 -40.765 V-24.632 L52.943 -17.531 L60.568 -7.281 L53.752 1.564 L62.38 10.46 L67.051 5.819 V-40.795 Q73.731 -42.366 78.115 -47.752 Q82.5 -53.14 82.5 -60.23 Q82.5 -68.48 76.625 -74.355 Q70.75 -80.23 62.5 -80.23 Q54.25 -80.23 48.375 -74.355 Q42.5 -68.48 42.5 -60.23 Z"/></g><g id="Regular-M" transform="matrix(1 0 0 1 1394.06 1126)"><path d="M52.5 -60.23 Q52.5 -64.355 55.438 -67.292 Q58.375 -70.23 62.5 -70.23 Q66.625 -70.23 69.562 -67.292 Q72.5 -64.355 72.5 -60.23 Q72.5 -56.105 69.562 -53.167 Q66.625 -50.23 62.5 -50.23 Q58.375 -50.23 55.438 -53.167 Q52.5 -56.105 52.5 -60.23 Z M62.5 24.77  40 2.27  47.5 -7.73  40 -17.73  47.5 -28.355 V-34.23 Q40.75 -38.23 36.625 -45.042 Q32.5 -51.855 32.5 -60.23 Q32.5 -72.73 41.25 -81.48 Q50 -90.23 62.5 -90.23 Q75 -90.23 83.75 -81.48 Q92.5 -72.73 92.5 -60.23 Q92.5 -51.855 88.375 -45.042 Q84.25 -38.23 77.5 -34.23 V9.77 L62.5 24.77 Z M42.5 -60.23 Q42.5 -53.23 46.75 -47.917 Q51 -42.605 57.5 -40.855 V-25.23 L52.375 -17.98 L60 -7.73 L53.125 1.145 L62.5 10.52 L67.5 5.52 V-40.855 Q74 -42.605 78.25 -47.917 Q82.5 -53.23 82.5 -60.23 Q82.5 -68.48 76.625 -74.355 Q70.75 -80.23 62.5 -80.23 Q54.25 -80.23 48.375 -74.355 Q42.5 -68.48 42.5 -60.23 Z"/></g><g id="Light-M" transform="matrix(1 0 0 1 1098.18 1126)"><path d="M54.424 -60.23 Q54.424 -63.586 56.784 -65.946 Q59.144 -68.306 62.5 -68.306 Q65.856 -68.306 68.216 -65.946 Q70.576 -63.586 70.576 -60.23 Q70.576 -56.874 68.216 -54.514 Q65.856 -52.154 62.5 -52.154 Q59.144 -52.154 56.784 -54.514 Q54.424 -56.874 54.424 -60.23 Z M62.5 21.741  43.366 2.51  50.336 -6.769  43.27 -16.287  50 -26.047 V-35.769 Q43.346 -39.191 39.174 -45.691 Q35 -52.191 35 -60.23 Q35 -71.672 43.029 -79.701 Q51.057 -87.73 62.5 -87.73 Q73.942 -87.73 81.971 -79.701 Q90 -71.672 90 -60.23 Q90 -52.191 85.851 -45.691 Q81.701 -39.191 75 -35.769 V9.241 L62.5 21.741 Z M42.5 -60.23 Q42.5 -53.037 46.846 -47.774 Q51.193 -42.509 57.5 -40.902 V-23.691 L52.519 -16.49 L59.664 -6.72 L53.172 1.77 L62.5 11.098 L67.5 6.098 V-40.902 Q73.808 -42.509 78.154 -47.774 Q82.5 -53.037 82.5 -60.23 Q82.5 -68.48 76.625 -74.355 Q70.75 -80.23 62.5 -80.23 Q54.25 -80.23 48.375 -74.355 Q42.5 -68.48 42.5 -60.23 Z"/></g><g id="Thin-M" transform="matrix(1 0 0 1 802.565 1126)"><path d="M56.346 -60.23 Q56.346 -62.816 58.13 -64.6 Q59.914 -66.384 62.5 -66.384 Q65.086 -66.384 66.87 -64.6 Q68.654 -62.816 68.654 -60.23 Q68.654 -57.644 66.87 -55.86 Q65.086 -54.076 62.5 -54.076 Q59.914 -54.076 58.13 -55.86 Q56.346 -57.644 56.346 -60.23 Z M62.5 18.713  46.731 2.751  53.172 -5.807  46.539 -14.845  52.5 -23.74 V-37.307 Q45.943 -40.152 41.721 -46.34 Q37.5 -52.527 37.5 -60.23 Q37.5 -70.615 44.807 -77.922 Q52.115 -85.23 62.5 -85.23 Q72.885 -85.23 80.192 -77.922 Q87.5 -70.615 87.5 -60.23 Q87.5 -52.527 83.328 -46.34 Q79.154 -40.152 72.5 -37.307 V8.713 L62.5 18.713 Z M42.5 -60.23 Q42.5 -52.845 46.943 -47.629 Q51.385 -42.412 57.5 -40.951 V-22.152 L52.664 -14.999 L59.328 -5.711 L53.221 2.395 L62.5 11.674 L67.5 6.674 V-40.951 Q73.615 -42.412 78.058 -47.629 Q82.5 -52.845 82.5 -60.23 Q82.5 -68.48 76.625 -74.355 Q70.75 -80.23 62.5 -80.23 Q54.25 -80.23 48.375 -74.355 Q42.5 -68.48 42.5 -60.23 Z"/></g><g id="Ultralight-M" transform="matrix(1 0 0 1 506.415 1126)"><path d="M57.5 -60.23 Q57.5 -62.355 58.938 -63.792 Q60.375 -65.23 62.5 -65.23 Q64.625 -65.23 66.062 -63.792 Q67.5 -62.355 67.5 -60.23 Q67.5 -58.105 66.062 -56.667 Q64.625 -55.23 62.5 -55.23 Q60.375 -55.23 58.938 -56.667 Q57.5 -58.105 57.5 -60.23 Z M62.5 16.895  48.75 2.895  54.875 -5.23  48.5 -13.98  54 -22.355 V-38.23 Q47.5 -40.73 43.25 -46.73 Q39 -52.73 39 -60.23 Q39 -69.98 45.875 -76.855 Q52.75 -83.73 62.5 -83.73 Q72.25 -83.73 79.125 -76.855 Q86 -69.98 86 -60.23 Q86 -52.73 81.812 -46.73 Q77.625 -40.73 71 -38.23 V8.395 L62.5 16.895 Z M42.5 -60.23 Q42.5 -52.73 47 -47.542 Q51.5 -42.355 57.5 -40.98 V-21.23 L52.75 -14.105 L59.125 -5.105 L53.25 2.77 L62.5 12.02 L67.5 7.02 V-40.98 Q73.5 -42.355 78 -47.542 Q82.5 -52.73 82.5 -60.23 Q82.5 -68.48 76.625 -74.355 Q70.75 -80.23 62.5 -80.23 Q54.25 -80.23 48.375 -74.355 Q42.5 -68.48 42.5 -60.23 Z"/></g><g id="Bold-S" transform="matrix(1 0 0 1 2294.23 696)"><path d="M38.76 -54.166 Q38.76 -58.703 41.965 -61.908 Q45.17 -65.113 49.707 -65.113 Q54.244 -65.113 57.449 -61.908 Q60.654 -58.703 60.654 -54.166 Q60.654 -49.629 57.449 -46.424 Q54.244 -43.219 49.707 -43.219 Q45.17 -43.219 41.965 -46.424 Q38.76 -49.629 38.76 -54.166 Z M49.707 15.759  31.067 -4.064  37.182 -12.448  31.363 -19.45  38.76 -29.411 V-29.904 Q31.757 -32.962 27.368 -39.422 Q22.98 -45.881 22.98 -54.166 Q22.98 -65.212 30.82 -73.053 Q38.661 -80.893 49.707 -80.893 Q60.753 -80.893 68.594 -73.053 Q76.434 -65.212 76.434 -54.166 Q76.434 -46.67 72.637 -40.506 Q68.84 -34.342 63.021 -31.088 V2.346 L49.707 15.759 Z M33.138 -54.166 Q33.138 -47.558 37.428 -42.775 Q41.718 -37.991 48.819 -37.498 V-26.156 L44.085 -19.746 L49.904 -12.743 L44.381 -4.853 L49.411 1.656 L52.962 -1.697 V-38.09 Q58.781 -39.076 62.528 -43.761 Q66.276 -48.446 66.276 -54.166 Q66.276 -61.07 61.443 -65.902 Q56.611 -70.735 49.707 -70.735 Q42.803 -70.735 37.971 -65.902 Q33.138 -61.07 33.138 -54.166 Z"/></g><g id="Semibold-S" transform="matrix(1 0 0 1 1998.1 696)"><path d="M39.403 -54.166 Q39.403 -58.445 42.415 -61.458 Q45.428 -64.47 49.707 -64.47 Q53.986 -64.47 56.999 -61.458 Q60.011 -58.445 60.011 -54.166 Q60.011 -49.887 56.999 -46.874 Q53.986 -43.862 49.707 -43.862 Q45.428 -43.862 42.415 -46.874 Q39.403 -49.887 39.403 -54.166 Z M49.707 14.172  31.967 -4.751  37.996 -13.091  32.135 -20.136  39.403 -29.883 V-31.019 Q32.529 -34.119 28.419 -40.236 Q24.309 -46.353 24.309 -54.166 Q24.309 -64.697 31.742 -72.131 Q39.176 -79.564 49.707 -79.564 Q60.238 -79.564 67.672 -72.131 Q75.105 -64.697 75.105 -54.166 Q75.105 -47.142 71.565 -41.299 Q68.026 -35.457 62.378 -32.202 V1.446 L49.707 14.172 Z M33.138 -54.166 Q33.138 -47.73 37.3 -42.989 Q41.461 -38.249 48.176 -37.627 V-27.015 L43.271 -20.389 L49.09 -13.387 L43.481 -5.454 L49.583 1.742 L53.605 -2.127 V-38.176 Q59.166 -39.42 62.722 -43.997 Q66.276 -48.574 66.276 -54.166 Q66.276 -61.07 61.443 -65.902 Q56.611 -70.735 49.707 -70.735 Q42.803 -70.735 37.971 -65.902 Q33.138 -61.07 33.138 -54.166 Z"/></g><g id="Medium-S" transform="matrix(1 0 0 1 1701.85 696)"><path d="M39.885 -54.166 Q39.885 -58.252 42.753 -61.12 Q45.621 -63.988 49.707 -63.988 Q53.793 -63.988 56.661 -61.12 Q59.529 -58.252 59.529 -54.166 Q59.529 -50.08 56.661 -47.212 Q53.793 -44.344 49.707 -44.344 Q45.621 -44.344 42.753 -47.212 Q39.885 -50.08 39.885 -54.166 Z M49.707 12.983  32.643 -5.265  38.608 -13.573  32.714 -20.65  39.885 -30.237 V-31.855 Q33.108 -34.987 29.207 -40.848 Q25.306 -46.707 25.306 -54.166 Q25.306 -64.312 32.434 -71.439 Q39.561 -78.567 49.707 -78.567 Q59.853 -78.567 66.98 -71.439 Q74.108 -64.312 74.108 -54.166 Q74.108 -47.496 70.761 -41.895 Q67.414 -36.293 61.896 -33.039 V0.77 L49.707 12.983 Z M33.138 -54.166 Q33.138 -47.858 37.203 -43.15 Q41.268 -38.442 47.694 -37.723 V-27.658 L42.659 -20.871 L48.478 -13.869 L42.805 -5.904 L49.711 1.806 L54.087 -2.448 V-38.24 Q59.456 -39.677 62.866 -44.173 Q66.276 -48.671 66.276 -54.166 Q66.276 -61.07 61.443 -65.902 Q56.611 -70.735 49.707 -70.735 Q42.803 -70.735 37.971 -65.902 Q33.138 -61.07 33.138 -54.166 Z"/></g><g id="Regular-S" transform="matrix(1 0 0 1 1405.73 696)"><path d="M40.239 -54.166 Q40.239 -58.111 43.001 -60.872 Q45.762 -63.634 49.707 -63.634 Q53.652 -63.634 56.413 -60.872 Q59.175 -58.111 59.175 -54.166 Q59.175 -50.221 56.413 -47.459 Q53.652 -44.698 49.707 -44.698 Q45.762 -44.698 43.001 -47.459 Q40.239 -50.221 40.239 -54.166 Z M49.707 12.11  33.138 -5.642  39.056 -13.927  33.138 -21.028  40.239 -30.496 V-32.468 Q33.532 -35.624 29.785 -41.295 Q26.037 -46.966 26.037 -54.166 Q26.037 -64.028 32.941 -70.932 Q39.845 -77.836 49.707 -77.836 Q59.57 -77.836 66.473 -70.932 Q73.377 -64.028 73.377 -54.166 Q73.377 -47.755 70.172 -42.331 Q66.966 -36.907 61.542 -33.652 V0.275 L49.707 12.11 Z M33.138 -54.166 Q33.138 -47.953 37.132 -43.268 Q41.127 -38.583 47.34 -37.794 V-28.129 L42.212 -21.225 L48.03 -14.223 L42.31 -6.234 L49.806 1.853 L54.441 -2.684 V-38.287 Q59.668 -39.865 62.972 -44.303 Q66.276 -48.742 66.276 -54.166 Q66.276 -61.07 61.443 -65.902 Q56.611 -70.735 49.707 -70.735 Q42.803 -70.735 37.971 -65.902 Q33.138 -61.07 33.138 -54.166 Z"/></g><g id="Light-S" transform="matrix(1 0 0 1 1109.75 696)"><path d="M41.757 -54.166 Q41.757 -57.504 44.063 -59.81 Q46.369 -62.116 49.707 -62.116 Q53.045 -62.116 55.351 -59.81 Q57.657 -57.504 57.657 -54.166 Q57.657 -50.828 55.351 -48.522 Q53.045 -46.216 49.707 -46.216 Q46.369 -46.216 44.063 -48.522 Q41.757 -50.828 41.757 -54.166 Z M49.707 9.72  35.794 -5.453  41.293 -13.169  35.718 -19.89  42.212 -28.675 V-33.683 Q35.581 -36.383 31.796 -41.807 Q28.01 -47.232 28.01 -54.166 Q28.01 -63.194 34.344 -69.529 Q40.679 -75.863 49.707 -75.863 Q58.735 -75.863 65.07 -69.529 Q71.404 -63.194 71.404 -54.166 Q71.404 -48.021 68.18 -42.843 Q64.955 -37.665 59.57 -34.866 V-0.142 L49.707 9.72 Z M33.138 -54.166 Q33.138 -47.801 37.208 -43.155 Q41.279 -38.507 47.34 -37.832 V-26.915 L42.325 -20.05 L47.765 -13.426 L42.348 -5.741 L49.806 2.309 L54.441 -2.228 V-38.325 Q59.516 -39.789 62.896 -44.19 Q66.276 -48.59 66.276 -54.166 Q66.276 -61.07 61.443 -65.902 Q56.611 -70.735 49.707 -70.735 Q42.803 -70.735 37.971 -65.902 Q33.138 -61.07 33.138 -54.166 Z"/></g><g id="Thin-S" transform="matrix(1 0 0 1 814.015 696)"><path d="M43.274 -54.166 Q43.274 -56.897 45.125 -58.748 Q46.976 -60.599 49.707 -60.599 Q52.438 -60.599 54.289 -58.748 Q56.14 -56.897 56.14 -54.166 Q56.14 -51.435 54.289 -49.584 Q52.438 -47.733 49.707 -47.733 Q46.976 -47.733 45.125 -49.584 Q43.274 -51.435 43.274 -54.166 Z M49.707 7.331  38.449 -5.263  43.531 -12.41  38.297 -18.752  44.184 -26.855 V-34.897 Q37.629 -37.141 33.806 -42.319 Q29.982 -47.497 29.982 -54.166 Q29.982 -62.36 35.748 -68.125 Q41.513 -73.891 49.707 -73.891 Q57.901 -73.891 63.666 -68.125 Q69.432 -62.36 69.432 -54.166 Q69.432 -48.286 66.189 -43.355 Q62.945 -38.423 57.597 -36.08 V-0.559 L49.707 7.331 Z M33.138 -54.166 Q33.138 -47.649 37.284 -43.04 Q41.43 -38.431 47.34 -37.87 V-25.701 L42.439 -18.873 L47.5 -12.63 L42.386 -5.248 L49.806 2.763 L54.441 -1.773 V-38.363 Q59.364 -39.713 62.82 -44.076 Q66.276 -48.438 66.276 -54.166 Q66.276 -61.07 61.443 -65.902 Q56.611 -70.735 49.707 -70.735 Q42.803 -70.735 37.971 -65.902 Q33.138 -61.07 33.138 -54.166 Z"/></g><g id="Ultralight-S" transform="matrix(1 0 0 1 517.792 696)"><path d="M44.184 -54.166 Q44.184 -56.533 45.762 -58.111 Q47.34 -59.689 49.707 -59.689 Q52.074 -59.689 53.652 -58.111 Q55.23 -56.533 55.23 -54.166 Q55.23 -51.799 53.652 -50.221 Q52.074 -48.643 49.707 -48.643 Q47.34 -48.643 45.762 -50.221 Q44.184 -51.799 44.184 -54.166 Z M49.707 5.897  40.042 -5.149  44.874 -11.954  39.845 -18.069  45.367 -25.762 V-35.624 Q38.858 -37.597 35.012 -42.627 Q31.166 -47.657 31.166 -54.166 Q31.166 -61.859 36.59 -67.283 Q42.014 -72.707 49.707 -72.707 Q57.4 -72.707 62.824 -67.283 Q68.249 -61.859 68.249 -54.166 Q68.249 -48.446 64.994 -43.662 Q61.739 -38.879 56.413 -36.808 V-0.81 L49.707 5.897 Z M33.138 -54.166 Q33.138 -47.558 37.33 -42.972 Q41.521 -38.386 47.34 -37.893 V-24.973 L42.507 -18.168 L47.34 -12.152 L42.409 -4.952 L49.806 3.037 L54.441 -1.5 V-38.386 Q59.274 -39.668 62.775 -44.008 Q66.276 -48.347 66.276 -54.166 Q66.276 -61.07 61.443 -65.902 Q56.611 -70.735 49.707 -70.735 Q42.803 -70.735 37.971 -65.902 Q33.138 -61.07 33.138 -54.166 Z"/></g></g></svg>