<svg xmlns="http://www.w3.org/2000/svg" height="20" viewBox="0 -960 960 960" width="20"><path d="M768.92-565.96 567.85-767.23l36.03-37.04q15.12-15.11 35.89-15.3 20.77-.2 35.88 14.92l129.62 130q15.11 15.11 15.11 35.38 0 20.27-15.11 35.39l-36.35 37.92ZM349.77-147.5q-7.92 7.92-24.1 12.31-16.17 4.38-31.09-10.54L154.39-286.04q-14.81-14.81-14.81-34.71t14.81-34.71l39.57-38.58 201.08 201.08-45.27 45.46Zm130.42-5.16q-5.54 5.54-13.19 5.54-7.65 0-13-5.54L154.66-452q-5.54-5.35-5.54-13t5.54-13.19l79.88-80.19q5.35-5.35 12.5-5.35t12.5 5.35l80.69 81.07 143.08-143.77-79.89-79.69q-6.54-5.34-6.54-12.5 0-7.15 6.54-13.69l79.89-80.58q5.34-5.34 12.69-5.34t12.69 5.34l299.85 299.85q6.34 5.34 6.34 12.69t-6.34 13.69l-79.58 79.89q-5.54 5.54-13.19 5.54-7.66 0-13-5.54l-81.69-81.89-143.77 144.08 83.07 81.69q5.35 5.35 4.85 12.5t-5.85 12.5l-79.19 79.88Z"/></svg>