<svg xmlns="http://www.w3.org/2000/svg" height="24" width="24"><path d="M12 21.2Q10.2 21.2 8.788 20.3Q7.375 19.4 6.6 18.05H4.825Q4.375 18.05 4.088 17.75Q3.8 17.45 3.8 17Q3.8 16.55 4.1 16.25Q4.4 15.95 4.85 15.95H5.9Q5.825 15.4 5.812 15.012Q5.8 14.625 5.8 14.05H4.825Q4.375 14.05 4.088 13.75Q3.8 13.45 3.8 13Q3.8 12.55 4.1 12.25Q4.4 11.95 4.85 11.95H5.8Q5.8 11.325 5.812 10.912Q5.825 10.5 5.9 10.05H4.825Q4.375 10.05 4.088 9.75Q3.8 9.45 3.8 9Q3.8 8.55 4.1 8.25Q4.4 7.95 4.85 7.95H6.625Q6.95 7.35 7.4 6.837Q7.85 6.325 8.425 5.95L7.525 5.025Q7.225 4.725 7.238 4.287Q7.25 3.85 7.55 3.55Q7.85 3.275 8.287 3.275Q8.725 3.275 9.025 3.55L10.45 4.975Q11.05 4.75 11.963 4.75Q12.875 4.75 13.45 4.95L14.925 3.5Q15.25 3.2 15.675 3.212Q16.1 3.225 16.4 3.525Q16.7 3.825 16.7 4.262Q16.7 4.7 16.4 5L15.5 5.9Q16.075 6.275 16.575 6.825Q17.075 7.375 17.4 8H19.2Q19.625 8 19.913 8.3Q20.2 8.6 20.2 9.025Q20.2 9.45 19.9 9.75Q19.6 10.05 19.175 10.05H18.1Q18.175 10.6 18.188 10.962Q18.2 11.325 18.2 11.95H19.175Q19.625 11.95 19.913 12.25Q20.2 12.55 20.2 13Q20.2 13.45 19.9 13.75Q19.6 14.05 19.15 14.05H18.2Q18.2 14.625 18.188 15.012Q18.175 15.4 18.1 15.95H19.175Q19.625 15.95 19.913 16.25Q20.2 16.55 20.2 17Q20.2 17.45 19.9 17.75Q19.6 18.05 19.15 18.05H17.4Q16.625 19.4 15.213 20.3Q13.8 21.2 12 21.2ZM11.05 16.05H12.975Q13.425 16.05 13.713 15.75Q14 15.45 14 15Q14 14.55 13.7 14.25Q13.4 13.95 12.95 13.95H11.025Q10.575 13.95 10.288 14.25Q10 14.55 10 15Q10 15.45 10.3 15.75Q10.6 16.05 11.05 16.05ZM11.05 12.05H12.975Q13.425 12.05 13.713 11.75Q14 11.45 14 11Q14 10.55 13.7 10.25Q13.4 9.95 12.95 9.95H11.025Q10.575 9.95 10.288 10.25Q10 10.55 10 11Q10 11.45 10.3 11.75Q10.6 12.05 11.05 12.05Z"/></svg>