<svg xmlns="http://www.w3.org/2000/svg" height="20" viewBox="0 -960 960 960" width="20"><path d="M116-116v-205.54h205.54V-116H116Zm261.23 0v-205.54h205.54V-116H377.23Zm261.23 0v-205.54H844V-116H638.46ZM116-377.23v-205.54h205.54v205.54H116Zm261.23 0v-205.54h205.54v205.54H377.23Zm261.23 0v-205.54H844v205.54H638.46ZM116-638.46V-844h728v205.54H116Zm153.54 368.92Zm159.69 0h101.54-101.54Zm261.23 0ZM269.54-429.23v-101.54 101.54ZM480-480Zm210.46 50.77v-101.54 101.54ZM168-168h101.54v-101.54H168V-168Zm261.23 0h101.54v-101.54H429.23V-168Zm261.23 0H792v-101.54H690.46V-168ZM168-429.23h101.54v-101.54H168v101.54Zm261.23 0h101.54v-101.54H429.23v101.54Zm261.23 0H792v-101.54H690.46v101.54Z"/></svg>