<svg xmlns="http://www.w3.org/2000/svg" height="40" width="40"><path d="M12.792 35.542V25.458H6.125V20.75L19.542 14.792V12.042Q18.083 11.917 17.146 10.833Q16.208 9.75 16.208 8.292Q16.208 6.667 17.312 5.563Q18.417 4.458 20.042 4.458Q21.583 4.458 22.708 5.563Q23.833 6.667 23.833 8.292H22.792Q22.792 7.083 22 6.25Q21.208 5.417 20 5.417Q18.833 5.417 18 6.25Q17.167 7.083 17.167 8.292Q17.167 9.458 18 10.292Q18.833 11.125 20.042 11.125H20.5V14.792L33.875 20.75V25.458H27.208V35.542ZM13.75 23.708H26.25ZM7.083 24.5H12.792V22.75H27.208V24.5H32.917V21.375L20.042 15.667L7.083 21.417ZM13.75 34.583H26.25V23.708H13.75Z"/></svg>