<svg xmlns="http://www.w3.org/2000/svg" height="40" width="40"><path d="M5.083 28.667q-.708 0-1.229-.5-.521-.5-.521-1.209V13.042q0-.709.521-1.229.521-.521 1.271-.521.708 0 1.208.521.5.52.5 1.229v5.208h6.5v-5.208q0-.709.521-1.229.521-.521 1.271-.521.708 0 1.208.521.5.52.5 1.229v13.916q0 .709-.5 1.209-.5.5-1.25.5-.708 0-1.229-.5-.521-.5-.521-1.209V21.75h-6.5v5.208q0 .709-.5 1.209-.5.5-1.25.5Zm26.292 0q-.708 0-1.229-.5-.521-.5-.521-1.209v-3.541h-6.583q-.75 0-1.25-.521t-.5-1.229v-8.625q0-.709.52-1.229.521-.521 1.23-.521.75 0 1.25.521.5.52.5 1.229v6.875h4.833v-6.875q0-.709.521-1.229.521-.521 1.229-.521.75 0 1.25.521.5.52.5 1.229v6.875h1.583q.75 0 1.25.521.5.52.5 1.229 0 .708-.5 1.229-.5.521-1.25.521h-1.583v3.541q0 .709-.521 1.209-.521.5-1.229.5Z"/></svg>