<svg xmlns="http://www.w3.org/2000/svg" version="1.1" width="3300" height="2000"><g id="Notes"><style>
    text {
      font-family: monospace;
      text-anchor: middle;
    }
    text.emphasis {
      font-weight:bold;
    }
    text.lanchor {
      text-anchor: start;
    }
  </style><rect height="2200" id="artboard" fill="white" width="3300" x="0" y="0"/><line id="" style="fill:none;stroke:black;stroke-width:0.5;" x1="263" x2="3036" y1="292" y2="292"/><text class="lanchor emphasis" transform="matrix(1 0 0 1 263 322)">Weight/Scale Variations</text><text transform="matrix(1 0 0 1 559.711 322)">Ultralight</text><text transform="matrix(1 0 0 1 856.422 322)">Thin</text><text transform="matrix(1 0 0 1 1153.13 322)">Light</text><text transform="matrix(1 0 0 1 1449.84 322)">Regular</text><text transform="matrix(1 0 0 1 1746.56 322)">Medium</text><text transform="matrix(1 0 0 1 2043.27 322)">Semibold</text><text transform="matrix(1 0 0 1 2339.98 322)">Bold</text><text transform="matrix(1 0 0 1 2636.69 322)">Heavy</text><text transform="matrix(1 0 0 1 2933.4 322)">Black</text><text id="template-version" style="text-anchor: end;" transform="matrix(1 0 0 1 3036 1933)">Template v.1.0</text><text class="lanchor" transform="matrix(1 0 0 1 263 726)">Small</text><text class="lanchor" transform="matrix(1 0 0 1 263 1156)">Medium</text><text class="lanchor" transform="matrix(1 0 0 1 263 1586)">Large</text></g><g id="Guides"><g id="H-reference" style="fill:#27AAE1;stroke:none;" transform="matrix(1 0 0 1 339 696)"><path d="M 54.9316 0 L 57.666 0 L 30.5664 -70.459 L 28.0762 -70.459 L 0.976562 0 L 3.66211 0 L 12.9395 -24.4629 L 45.7031 -24.4629 Z M 29.1992 -67.0898 L 29.4434 -67.0898 L 44.8242 -26.709 L 13.8184 -26.709 Z"/></g><line id="Baseline-S" style="fill:none;stroke:#27AAE1;opacity:1;stroke-width:0.577;" x1="263" x2="3036" y1="696" y2="696"/><line id="Capline-S" style="fill:none;stroke:#27AAE1;opacity:1;stroke-width:0.577;" x1="263" x2="3036" y1="625.541" y2="625.541"/><g id="H-reference" style="fill:#27AAE1;stroke:none;" transform="matrix(1 0 0 1 339 1126)"><path d="M 54.9316 0 L 57.666 0 L 30.5664 -70.459 L 28.0762 -70.459 L 0.976562 0 L 3.66211 0 L 12.9395 -24.4629 L 45.7031 -24.4629 Z M 29.1992 -67.0898 L 29.4434 -67.0898 L 44.8242 -26.709 L 13.8184 -26.709 Z"/></g><line id="Baseline-M" style="fill:none;stroke:#27AAE1;opacity:1;stroke-width:0.577;" x1="263" x2="3036" y1="1126" y2="1126"/><line id="Capline-M" style="fill:none;stroke:#27AAE1;opacity:1;stroke-width:0.577;" x1="263" x2="3036" y1="1055.54" y2="1055.54"/><g id="H-reference" style="fill:#27AAE1;stroke:none;" transform="matrix(1 0 0 1 339 1556)"><path d="M 54.9316 0 L 57.666 0 L 30.5664 -70.459 L 28.0762 -70.459 L 0.976562 0 L 3.66211 0 L 12.9395 -24.4629 L 45.7031 -24.4629 Z M 29.1992 -67.0898 L 29.4434 -67.0898 L 44.8242 -26.709 L 13.8184 -26.709 Z"/></g><line id="Baseline-L" style="fill:none;stroke:#27AAE1;opacity:1;stroke-width:0.577;" x1="263" x2="3036" y1="1556" y2="1556"/><line id="Capline-L" style="fill:none;stroke:#27AAE1;opacity:1;stroke-width:0.577;" x1="263" x2="3036" y1="1485.54" y2="1485.54"/><rect height="119.336" id="left-margin" style="fill:darkred;stroke:none;opacity:0.4;" width="12.4512" x="1394.06" y="1030.79"/><rect height="119.336" id="right-margin" style="fill:darkgreen;stroke:none;opacity:0.4;" width="12.4512" x="1502.5112" y="1030.79"/><rect x="1406.5112" y="1045" width="96" height="96" fill="none" stroke="blue" stroke-dasharray="5"/><rect x="1394.06" y="1030.79" width="120.9024" height="119.336" fill="none" stroke="blue"/></g><g id="Symbols"><g id="Bold-L" transform="matrix(1 0 0 1 2266 1556)"><path d="M52.709 17.569 Q50.415 20.079 47.218 19.998 Q44.021 19.918 42.086 17.66 Q35.636 11.049 32.895 3.834 Q30.154 -3.381 30.154 -11.218 Q30.154 -17.009 31.686 -23.459 Q33.218 -29.909 37.249 -39.906 Q40.474 -48.016 41.764 -52.456 Q43.054 -56.896 43.054 -60.757 Q43.054 -65.303 41.029 -69.273 Q39.004 -73.243 34.83 -77.477 Q32.411 -79.663 32.331 -83.005 Q32.25 -86.346 34.353 -88.695 Q36.443 -90.7 39.506 -90.781 Q42.57 -90.861 44.666 -88.765 Q51.278 -82.476 54.503 -75.361 Q57.727 -68.246 57.727 -60.514 Q57.727 -55.075 56.115 -48.861 Q54.503 -42.647 50.955 -33.456 Q47.085 -24.426 45.956 -19.799 Q44.828 -15.172 44.828 -11.204 Q44.828 -6.077 46.725 -1.707 Q48.622 2.664 52.89 7.34 Q54.825 9.407 54.825 12.566 Q54.825 15.725 52.709 17.569 Z M86.119 17.807 Q84.02 20.24 80.79 20.159 Q77.561 20.079 75.626 17.66 Q69.338 11.049 66.516 3.834 Q63.694 -3.381 63.694 -11.218 Q63.694 -17.009 65.226 -23.459 Q66.758 -29.909 70.789 -39.906 Q74.014 -48.047 75.304 -52.465 Q76.594 -56.884 76.594 -60.645 Q76.594 -65.384 74.65 -69.232 Q72.706 -73.081 68.37 -77.477 Q66.112 -79.681 65.951 -83.014 Q65.79 -86.346 68.054 -88.534 Q70.144 -90.539 73.142 -90.7 Q76.139 -90.861 78.206 -88.765 Q84.822 -82.43 88.045 -75.22 Q91.267 -68.011 91.267 -60.353 Q91.267 -54.862 89.816 -48.835 Q88.365 -42.809 84.656 -33.456 Q80.854 -24.444 79.611 -19.743 Q78.368 -15.041 78.368 -11.136 Q78.368 -6.132 80.222 -1.652 Q82.076 2.829 86.269 7.501 Q88.365 9.598 88.284 12.742 Q88.204 15.886 86.119 17.807 Z M119.659 17.807 Q117.56 20.24 114.411 20.159 Q111.263 20.079 109.328 17.66 Q102.877 11.049 100.056 3.834 Q97.234 -3.381 97.234 -11.218 Q97.234 -17.009 98.766 -23.459 Q100.297 -29.909 104.49 -39.906 Q107.554 -48.047 108.844 -52.465 Q110.134 -56.884 110.134 -60.645 Q110.134 -65.384 108.19 -69.232 Q106.246 -73.081 101.91 -77.477 Q99.653 -79.681 99.491 -83.014 Q99.33 -86.346 101.756 -88.534 Q103.684 -90.539 106.682 -90.7 Q109.679 -90.861 111.746 -88.765 Q118.519 -82.476 121.744 -75.361 Q124.969 -68.246 124.969 -60.514 Q124.969 -55.075 123.276 -48.861 Q121.583 -42.647 118.035 -33.456 Q114.487 -24.587 113.278 -19.86 Q112.069 -15.132 112.069 -11.218 Q112.069 -6.077 113.923 -1.707 Q115.778 2.664 119.809 7.501 Q122.228 9.608 122.066 12.747 Q121.905 15.886 119.659 17.807 Z"/></g><g id="Semibold-L" transform="matrix(1 0 0 1 1970.27 1556)"><path d="M52.779 16.658 Q50.695 18.887 47.814 18.876 Q44.933 18.866 43.138 16.749 Q36.898 10.278 34.122 3.238 Q31.346 -3.801 31.346 -11.429 Q31.346 -17.079 32.877 -23.318 Q34.409 -29.558 38.441 -39.486 Q41.666 -47.596 42.956 -52.071 Q44.246 -56.546 44.246 -60.406 Q44.246 -65.093 42.186 -69.168 Q40.126 -73.243 35.812 -77.477 Q33.603 -79.453 33.522 -82.479 Q33.442 -85.505 35.405 -87.643 Q37.284 -89.508 40.067 -89.554 Q42.85 -89.599 44.807 -87.713 Q51.278 -81.565 54.468 -74.66 Q57.657 -67.756 57.657 -60.164 Q57.657 -54.865 56.08 -48.896 Q54.503 -42.928 50.885 -33.737 Q47.085 -24.777 45.921 -20.15 Q44.757 -15.522 44.757 -11.484 Q44.757 -6.358 46.725 -1.847 Q48.692 2.664 52.96 7.34 Q54.755 9.267 54.72 12.11 Q54.685 14.954 52.779 16.658 Z M85.698 16.896 Q83.739 19.118 80.826 19.038 Q77.912 18.957 76.117 16.749 Q69.968 10.278 67.147 3.238 Q64.325 -3.801 64.325 -11.429 Q64.325 -17.079 65.857 -23.318 Q67.388 -29.558 71.42 -39.486 Q74.645 -47.556 75.935 -52.045 Q77.225 -56.533 77.225 -60.295 Q77.225 -65.173 75.21 -69.127 Q73.196 -73.081 68.791 -77.477 Q66.743 -79.471 66.617 -82.488 Q66.491 -85.505 68.545 -87.552 Q70.424 -89.347 73.142 -89.473 Q75.859 -89.599 77.786 -87.713 Q84.261 -81.519 87.449 -74.555 Q90.637 -67.59 90.637 -60.072 Q90.637 -54.722 89.15 -48.87 Q87.664 -43.019 83.955 -33.737 Q80.223 -24.795 78.98 -20.093 Q77.737 -15.392 77.737 -11.416 Q77.737 -6.343 79.661 -1.792 Q81.586 2.759 85.848 7.431 Q87.664 9.457 87.618 12.286 Q87.573 15.115 85.698 16.896 Z M118.677 16.896 Q116.719 19.118 113.85 19.038 Q110.982 18.957 109.187 16.749 Q102.948 10.278 100.126 3.238 Q97.304 -3.801 97.304 -11.429 Q97.304 -17.079 98.836 -23.318 Q100.368 -29.558 104.49 -39.486 Q107.624 -47.556 108.914 -52.045 Q110.204 -56.533 110.204 -60.295 Q110.204 -65.173 108.19 -69.127 Q106.175 -73.081 101.77 -77.477 Q99.723 -79.471 99.596 -82.488 Q99.47 -85.505 101.616 -87.552 Q103.403 -89.347 106.121 -89.473 Q108.838 -89.599 110.765 -87.713 Q117.327 -81.565 120.517 -74.66 Q123.707 -67.756 123.707 -60.164 Q123.707 -54.865 122.084 -48.896 Q120.461 -42.928 116.843 -33.737 Q113.296 -24.938 112.051 -20.211 Q110.807 -15.483 110.807 -11.499 Q110.807 -6.358 112.696 -1.847 Q114.586 2.664 118.827 7.431 Q120.896 9.398 120.769 12.257 Q120.643 15.115 118.677 16.896 Z"/></g><g id="Medium-L" transform="matrix(1 0 0 1 1674.31 1556)"><path d="M52.831 15.974 Q50.905 17.993 48.261 18.035 Q45.616 18.077 43.927 16.065 Q37.845 9.699 35.042 2.791 Q32.24 -4.117 32.24 -11.586 Q32.24 -17.131 33.771 -23.213 Q35.303 -29.295 39.335 -39.17 Q42.56 -47.28 43.85 -51.782 Q45.14 -56.283 45.14 -60.143 Q45.14 -64.935 43.053 -69.089 Q40.967 -73.243 36.548 -77.477 Q34.497 -79.295 34.416 -82.085 Q34.336 -84.874 36.194 -86.855 Q37.915 -88.614 40.488 -88.634 Q43.061 -88.653 44.912 -86.925 Q51.278 -80.881 54.441 -74.134 Q57.605 -67.388 57.605 -59.901 Q57.605 -54.707 56.054 -48.923 Q54.503 -43.138 50.832 -33.947 Q47.085 -25.04 45.895 -20.412 Q44.705 -15.785 44.705 -11.694 Q44.705 -6.568 46.725 -1.952 Q48.744 2.664 53.013 7.34 Q54.702 9.161 54.641 11.768 Q54.58 14.375 52.831 15.974 Z M85.382 16.212 Q83.529 18.277 80.852 18.196 Q78.175 18.116 76.485 16.065 Q70.442 9.699 67.62 2.791 Q64.798 -4.117 64.798 -11.586 Q64.798 -17.131 66.33 -23.213 Q67.862 -29.295 71.893 -39.17 Q75.118 -47.188 76.408 -51.729 Q77.698 -56.271 77.698 -60.032 Q77.698 -65.016 75.631 -69.048 Q73.564 -73.081 69.106 -77.477 Q67.217 -79.313 67.117 -82.094 Q67.017 -84.874 68.913 -86.816 Q70.634 -88.453 73.142 -88.553 Q75.649 -88.653 77.47 -86.925 Q83.84 -80.836 87.002 -74.055 Q90.163 -67.274 90.163 -59.862 Q90.163 -54.616 88.651 -48.897 Q87.138 -43.177 83.429 -33.947 Q79.75 -25.058 78.507 -20.356 Q77.263 -15.655 77.263 -11.626 Q77.263 -6.501 79.24 -1.897 Q81.217 2.706 85.533 7.379 Q87.138 9.352 87.119 11.944 Q87.1 14.537 85.382 16.212 Z M117.941 16.212 Q116.087 18.277 113.43 18.196 Q110.772 18.116 109.082 16.065 Q103 9.699 100.178 2.791 Q97.356 -4.117 97.356 -11.586 Q97.356 -17.131 98.888 -23.213 Q100.42 -29.295 104.49 -39.17 Q107.676 -47.188 108.966 -51.729 Q110.256 -56.271 110.256 -60.032 Q110.256 -65.016 108.19 -69.048 Q106.123 -73.081 101.665 -77.477 Q99.775 -79.313 99.675 -82.094 Q99.575 -84.874 101.51 -86.816 Q103.193 -88.453 105.7 -88.553 Q108.207 -88.653 110.029 -86.925 Q116.433 -80.881 119.597 -74.134 Q122.76 -67.388 122.76 -59.901 Q122.76 -54.707 121.19 -48.923 Q119.619 -43.138 115.949 -33.947 Q112.402 -25.201 111.131 -20.473 Q109.86 -15.746 109.86 -11.709 Q109.86 -6.568 111.776 -1.952 Q113.692 2.664 118.091 7.379 Q119.896 9.24 119.796 11.888 Q119.697 14.537 117.941 16.212 Z"/></g><g id="Regular-L" transform="matrix(1 0 0 1 1378.56 1556)"><path d="M52.87 15.473 Q51.06 17.338 48.589 17.418 Q46.117 17.499 44.505 15.564 Q38.539 9.275 35.717 2.463 Q32.895 -4.348 32.895 -11.702 Q32.895 -17.17 34.427 -23.136 Q35.959 -29.102 39.99 -38.939 Q43.215 -47.049 44.505 -51.569 Q45.795 -56.09 45.795 -59.95 Q45.795 -64.819 43.69 -69.031 Q41.584 -73.243 37.087 -77.477 Q35.153 -79.18 35.072 -81.795 Q34.991 -84.411 36.772 -86.276 Q38.377 -87.959 40.796 -87.959 Q43.215 -87.959 44.989 -86.346 Q51.278 -80.38 54.422 -73.749 Q57.566 -67.118 57.566 -59.708 Q57.566 -54.591 56.034 -48.942 Q54.503 -43.292 50.794 -34.101 Q47.085 -25.232 45.876 -20.605 Q44.666 -15.978 44.666 -11.849 Q44.666 -6.722 46.725 -2.029 Q48.783 2.664 53.051 7.34 Q54.664 9.084 54.583 11.518 Q54.503 13.951 52.87 15.473 Z M85.151 15.711 Q83.375 17.66 80.871 17.579 Q78.368 17.499 76.755 15.564 Q70.789 9.275 67.967 2.463 Q65.145 -4.348 65.145 -11.702 Q65.145 -17.17 66.677 -23.136 Q68.209 -29.102 72.24 -38.939 Q75.465 -46.918 76.755 -51.498 Q78.045 -56.078 78.045 -59.839 Q78.045 -64.9 75.94 -68.991 Q73.834 -73.081 69.338 -77.477 Q67.564 -79.198 67.483 -81.804 Q67.403 -84.411 69.183 -86.276 Q70.789 -87.797 73.142 -87.878 Q75.494 -87.959 77.239 -86.346 Q83.532 -80.334 86.674 -73.689 Q89.816 -67.043 89.816 -59.708 Q89.816 -54.539 88.284 -48.916 Q86.752 -43.292 83.044 -34.101 Q79.403 -25.25 78.16 -20.549 Q76.916 -15.848 76.916 -11.781 Q76.916 -6.616 78.932 -1.974 Q80.948 2.668 85.301 7.34 Q86.752 9.275 86.752 11.694 Q86.752 14.113 85.151 15.711 Z M117.401 15.711 Q115.625 17.66 113.121 17.579 Q110.618 17.499 109.005 15.564 Q103.039 9.275 100.217 2.463 Q97.395 -4.348 97.395 -11.702 Q97.395 -17.17 98.927 -23.136 Q100.459 -29.102 104.49 -38.939 Q107.715 -46.918 109.005 -51.498 Q110.295 -56.078 110.295 -59.839 Q110.295 -64.9 108.19 -68.991 Q106.084 -73.081 101.588 -77.477 Q99.814 -79.198 99.733 -81.804 Q99.653 -84.411 101.433 -86.276 Q103.039 -87.797 105.392 -87.878 Q107.744 -87.959 109.489 -86.346 Q115.778 -80.38 118.922 -73.749 Q122.066 -67.118 122.066 -59.708 Q122.066 -54.591 120.534 -48.942 Q119.002 -43.292 115.294 -34.101 Q111.746 -25.394 110.456 -20.666 Q109.166 -15.939 109.166 -11.863 Q109.166 -6.722 111.101 -2.029 Q113.036 2.664 117.551 7.34 Q119.164 9.125 119.083 11.618 Q119.002 14.113 117.401 15.711 Z"/></g><g id="Light-L" transform="matrix(1 0 0 1 1082.77 1556)"><path d="M53.676 12.619 Q52.176 14.112 50.232 14.193 Q48.288 14.274 46.986 12.711 Q41.144 6.67 38.415 0.324 Q35.686 -6.023 35.686 -12.818 Q35.686 -17.914 37.187 -23.508 Q38.688 -29.102 42.657 -38.381 Q45.944 -46.18 47.265 -50.577 Q48.586 -54.974 48.586 -58.834 Q48.586 -63.641 46.388 -67.852 Q44.189 -72.064 39.444 -76.423 Q37.881 -77.753 37.801 -79.842 Q37.72 -81.93 39.191 -83.423 Q40.548 -84.734 42.471 -84.734 Q44.393 -84.734 45.857 -83.431 Q52.022 -77.713 55.011 -71.578 Q58 -65.443 58 -58.653 Q58 -53.909 56.5 -48.632 Q54.999 -43.355 51.29 -34.659 Q47.581 -26.163 46.341 -21.598 Q45.1 -17.032 45.1 -12.965 Q45.1 -7.901 47.19 -3.208 Q49.279 1.485 53.796 6.224 Q55.098 7.596 55.048 9.533 Q54.999 11.47 53.676 12.619 Z M84.345 12.796 Q82.878 14.373 80.902 14.323 Q78.926 14.274 77.623 12.711 Q71.781 6.67 69.052 0.324 Q66.323 -6.023 66.323 -12.818 Q66.323 -17.914 67.824 -23.508 Q69.325 -29.102 73.294 -38.381 Q76.581 -46.05 77.902 -50.474 Q79.223 -54.899 79.223 -58.661 Q79.223 -63.66 77.025 -67.812 Q74.827 -71.965 70.082 -76.423 Q68.68 -77.771 68.6 -79.851 Q68.519 -81.93 69.99 -83.423 Q71.285 -84.572 73.173 -84.653 Q75.06 -84.734 76.494 -83.431 Q82.663 -77.667 85.651 -71.518 Q88.638 -65.368 88.638 -58.653 Q88.638 -53.795 87.137 -48.544 Q85.636 -43.292 81.927 -34.659 Q78.286 -26.119 77.012 -21.479 Q75.738 -16.84 75.738 -12.897 Q75.738 -7.733 77.815 -3.122 Q79.893 1.489 84.495 6.224 Q85.574 7.787 85.574 9.678 Q85.574 11.57 84.345 12.796 Z M114.982 12.796 Q113.516 14.373 111.54 14.323 Q109.563 14.274 108.261 12.711 Q102.419 6.67 99.69 0.324 Q96.961 -6.023 96.961 -12.818 Q96.961 -17.914 98.462 -23.508 Q99.963 -29.102 103.932 -38.381 Q107.219 -46.05 108.54 -50.474 Q109.861 -54.899 109.861 -58.661 Q109.861 -63.66 107.662 -67.812 Q105.464 -71.965 100.719 -76.423 Q99.318 -77.771 99.237 -79.851 Q99.156 -81.93 100.627 -83.423 Q101.922 -84.572 103.81 -84.653 Q105.698 -84.734 107.132 -83.431 Q113.297 -77.713 116.286 -71.578 Q119.275 -65.443 119.275 -58.653 Q119.275 -53.909 117.774 -48.632 Q116.274 -43.355 112.565 -34.659 Q109.017 -26.262 107.696 -21.659 Q106.375 -17.055 106.375 -12.98 Q106.375 -7.901 108.403 -3.239 Q110.431 1.423 115.132 6.224 Q116.435 7.636 116.323 9.603 Q116.211 11.57 114.982 12.796 Z"/></g><g id="Thin-L" transform="matrix(1 0 0 1 787.282 1556)"><path d="M54.483 9.767 Q53.292 10.888 51.876 10.968 Q50.459 11.049 49.467 9.858 Q43.748 4.065 41.112 -1.816 Q38.477 -7.697 38.477 -13.935 Q38.477 -18.658 39.947 -23.88 Q41.416 -29.102 45.324 -37.822 Q48.673 -45.312 50.025 -49.585 Q51.377 -53.857 51.377 -57.718 Q51.377 -62.463 49.085 -66.674 Q46.794 -70.886 41.801 -75.369 Q40.61 -76.327 40.53 -77.888 Q40.449 -79.45 41.609 -80.57 Q42.719 -81.509 44.145 -81.509 Q45.572 -81.509 46.725 -80.516 Q52.766 -75.046 55.6 -69.407 Q58.435 -63.769 58.435 -57.599 Q58.435 -53.227 56.965 -48.322 Q55.495 -43.417 51.786 -35.218 Q48.077 -27.093 46.806 -22.59 Q45.535 -18.087 45.535 -14.081 Q45.535 -9.079 47.655 -4.386 Q49.775 0.307 54.54 5.107 Q55.532 6.108 55.513 7.549 Q55.495 8.99 54.483 9.767 Z M83.539 9.881 Q82.382 11.086 80.933 11.067 Q79.484 11.049 78.492 9.858 Q72.773 4.065 70.137 -1.816 Q67.502 -7.697 67.502 -13.935 Q67.502 -18.658 68.972 -23.88 Q70.441 -29.102 74.349 -37.822 Q77.698 -45.182 79.05 -49.451 Q80.402 -53.721 80.402 -57.482 Q80.402 -62.419 78.11 -66.634 Q75.819 -70.849 70.826 -75.369 Q69.796 -76.345 69.716 -77.897 Q69.635 -79.45 70.796 -80.57 Q71.781 -81.347 73.204 -81.428 Q74.626 -81.509 75.75 -80.516 Q81.795 -75.001 84.627 -69.347 Q87.46 -63.694 87.46 -57.599 Q87.46 -53.051 85.99 -48.172 Q84.52 -43.292 80.811 -35.218 Q77.17 -26.987 75.865 -22.41 Q74.56 -17.832 74.56 -14.013 Q74.56 -8.849 76.699 -4.269 Q78.839 0.311 83.689 5.107 Q84.396 6.298 84.396 7.663 Q84.396 9.027 83.539 9.881 Z M112.564 9.881 Q111.407 11.086 109.958 11.067 Q108.509 11.049 107.517 9.858 Q101.798 4.065 99.163 -1.816 Q96.527 -7.697 96.527 -13.935 Q96.527 -18.658 97.997 -23.88 Q99.466 -29.102 103.374 -37.822 Q106.723 -45.182 108.075 -49.451 Q109.427 -53.721 109.427 -57.482 Q109.427 -62.419 107.135 -66.634 Q104.844 -70.849 99.851 -75.369 Q98.821 -76.345 98.741 -77.897 Q98.66 -79.45 99.821 -80.57 Q100.806 -81.347 102.229 -81.428 Q103.651 -81.509 104.775 -80.516 Q110.816 -75.046 113.65 -69.407 Q116.485 -63.769 116.485 -57.599 Q116.485 -53.227 115.015 -48.322 Q113.545 -43.417 109.836 -35.218 Q106.289 -27.13 104.937 -22.651 Q103.585 -18.171 103.585 -14.096 Q103.585 -9.079 105.706 -4.448 Q107.827 0.183 112.714 5.107 Q113.706 6.148 113.563 7.587 Q113.421 9.027 112.564 9.881 Z"/></g><g id="Ultralight-L" transform="matrix(1 0 0 1 491.205 1556)"><path d="M54.966 8.055 Q53.962 8.953 52.862 9.033 Q51.761 9.114 50.955 8.146 Q45.311 2.503 42.731 -3.1 Q40.151 -8.702 40.151 -14.605 Q40.151 -19.105 41.602 -24.104 Q43.054 -29.102 46.924 -37.487 Q50.31 -44.791 51.681 -48.989 Q53.051 -53.188 53.051 -57.048 Q53.051 -61.756 50.704 -65.967 Q48.357 -70.179 43.215 -74.736 Q42.248 -75.471 42.167 -76.716 Q42.086 -77.961 43.061 -78.859 Q44.021 -79.574 45.15 -79.574 Q46.279 -79.574 47.246 -78.767 Q53.212 -73.446 55.954 -68.105 Q58.695 -62.764 58.695 -56.967 Q58.695 -52.818 57.244 -48.136 Q55.793 -43.454 52.084 -35.552 Q48.375 -27.651 47.085 -23.185 Q45.795 -18.719 45.795 -14.751 Q45.795 -9.786 47.934 -5.093 Q50.073 -0.4 54.986 4.438 Q55.793 5.214 55.793 6.358 Q55.793 7.501 54.966 8.055 Z M83.055 8.132 Q82.085 9.114 80.952 9.114 Q79.819 9.114 79.013 8.146 Q73.369 2.503 70.789 -3.1 Q68.209 -8.702 68.209 -14.605 Q68.209 -19.105 69.66 -24.104 Q71.111 -29.102 74.981 -37.487 Q78.368 -44.661 79.738 -48.837 Q81.109 -53.014 81.109 -56.775 Q81.109 -61.675 78.761 -65.927 Q76.414 -70.179 71.273 -74.736 Q70.466 -75.489 70.386 -76.725 Q70.305 -77.961 71.279 -78.859 Q72.079 -79.412 73.222 -79.493 Q74.366 -79.574 75.304 -78.767 Q81.274 -73.4 84.013 -68.045 Q86.752 -62.689 86.752 -56.967 Q86.752 -52.604 85.301 -47.948 Q83.85 -43.292 80.141 -35.552 Q76.5 -27.508 75.177 -22.968 Q73.853 -18.428 73.853 -14.683 Q73.853 -9.519 76.029 -4.957 Q78.206 -0.396 83.205 4.438 Q83.689 5.405 83.689 6.453 Q83.689 7.501 83.055 8.132 Z M111.112 8.132 Q110.142 9.114 109.009 9.114 Q107.876 9.114 107.07 8.146 Q101.426 2.503 98.846 -3.1 Q96.266 -8.702 96.266 -14.605 Q96.266 -19.105 97.718 -24.104 Q99.169 -29.102 103.039 -37.487 Q106.425 -44.661 107.796 -48.837 Q109.166 -53.014 109.166 -56.775 Q109.166 -61.675 106.819 -65.927 Q104.472 -70.179 99.33 -74.736 Q98.524 -75.489 98.443 -76.725 Q98.362 -77.961 99.337 -78.859 Q100.136 -79.412 101.28 -79.493 Q102.423 -79.574 103.361 -78.767 Q109.328 -73.446 112.069 -68.105 Q114.81 -62.764 114.81 -56.967 Q114.81 -52.818 113.359 -48.136 Q111.907 -43.454 108.199 -35.552 Q104.651 -27.651 103.281 -23.246 Q101.91 -18.841 101.91 -14.766 Q101.91 -9.786 104.087 -5.174 Q106.264 -0.561 111.263 4.438 Q112.069 5.255 111.907 6.378 Q111.746 7.501 111.112 8.132 Z"/></g><g id="Bold-M" transform="matrix(1 0 0 1 2281.8 1126)"><path d="M42.397 6.873 Q39.875 9.645 36.25 9.583 Q32.625 9.52 30.25 6.77 Q25.125 1.395 22.625 -4.542 Q20.125 -10.48 20.125 -17.091 Q20.125 -21.855 21.375 -26.917 Q22.625 -31.98 25.875 -39.855 Q28.375 -45.855 29.25 -48.94 Q30.125 -52.026 30.125 -54.466 Q30.125 -57.355 28.805 -59.838 Q27.486 -62.322 24.625 -65.105 Q21.875 -67.605 21.812 -71.355 Q21.75 -75.105 24.272 -77.752 Q26.75 -80.105 30.188 -80.105 Q33.625 -80.105 36.125 -77.855 Q41.75 -72.73 44.438 -66.87 Q47.125 -61.01 47.125 -54.355 Q47.125 -49.989 45.875 -45.109 Q44.625 -40.23 41.625 -32.73 Q38.875 -26.355 38 -23.091 Q37.125 -19.828 37.125 -17.105 Q37.125 -13.98 38.408 -11.042 Q39.691 -8.105 42.625 -4.98 Q44.875 -2.503 44.875 0.946 Q44.875 4.395 42.397 6.873 Z M68.772 7.058 Q66.25 9.77 62.688 9.645 Q59.125 9.52 56.625 6.77 Q51.5 1.395 49 -4.542 Q46.5 -10.48 46.5 -17.091 Q46.5 -21.855 47.75 -26.917 Q49 -31.98 52.25 -39.855 Q54.75 -45.855 55.625 -48.91 Q56.5 -51.966 56.5 -54.432 Q56.5 -57.355 55.18 -59.838 Q53.861 -62.322 51 -65.105 Q48.25 -67.563 48.188 -71.209 Q48.125 -74.855 50.772 -77.502 Q53.125 -79.98 56.574 -80.042 Q60.023 -80.105 62.5 -77.855 Q68.128 -72.569 70.814 -66.698 Q73.5 -60.827 73.5 -54.23 Q73.5 -49.823 72.312 -45.027 Q71.125 -40.23 68.125 -32.73 Q65.375 -26.23 64.438 -23.03 Q63.5 -19.83 63.5 -17.105 Q63.5 -13.98 64.812 -10.978 Q66.125 -7.977 68.875 -4.855 Q71.25 -2.355 71.25 1.083 Q71.25 4.52 68.772 7.058 Z M95.147 7.058 Q92.625 9.77 89.062 9.645 Q85.5 9.52 83 6.77 Q77.875 1.395 75.375 -4.542 Q72.875 -10.48 72.875 -17.091 Q72.875 -21.855 74.125 -26.917 Q75.375 -31.98 78.625 -39.855 Q81.125 -45.855 82 -48.91 Q82.875 -51.966 82.875 -54.432 Q82.875 -57.355 81.555 -59.838 Q80.236 -62.322 77.375 -65.105 Q74.625 -67.563 74.562 -71.209 Q74.5 -74.855 77.147 -77.502 Q79.5 -79.98 82.949 -80.042 Q86.398 -80.105 88.875 -77.855 Q94.5 -72.73 97.188 -66.87 Q99.875 -61.01 99.875 -54.355 Q99.875 -49.989 98.625 -45.109 Q97.375 -40.23 94.375 -32.73 Q91.75 -26.355 90.812 -23.078 Q89.875 -19.8 89.875 -17.116 Q89.875 -13.855 91.188 -10.98 Q92.5 -8.105 95.25 -4.855 Q97.625 -2.355 97.625 1.083 Q97.625 4.52 95.147 7.058 Z"/></g><g id="Semibold-M" transform="matrix(1 0 0 1 1985.97 1126)"><path d="M42.397 5.786 Q40.092 8.232 36.848 8.224 Q33.603 8.216 31.446 5.738 Q26.484 0.471 24.011 -5.249 Q21.538 -10.969 21.538 -17.308 Q21.538 -21.909 22.788 -26.782 Q24.038 -31.654 27.234 -39.366 Q29.734 -45.366 30.636 -48.478 Q31.538 -51.591 31.538 -54.085 Q31.538 -57.138 30.164 -59.757 Q28.79 -62.376 25.766 -65.214 Q23.288 -67.442 23.226 -70.811 Q23.163 -74.181 25.467 -76.556 Q27.674 -78.692 30.785 -78.692 Q33.897 -78.692 36.179 -76.659 Q41.641 -71.697 44.275 -66.055 Q46.908 -60.412 46.908 -54.029 Q46.908 -49.826 45.685 -45.136 Q44.462 -40.447 41.462 -33.11 Q38.712 -26.735 37.81 -23.472 Q36.908 -20.208 36.908 -17.431 Q36.908 -14.197 38.272 -11.124 Q39.637 -8.051 42.625 -4.871 Q44.658 -2.611 44.63 0.484 Q44.603 3.58 42.397 5.786 Z M68.228 5.971 Q65.924 8.411 62.715 8.314 Q59.505 8.216 57.223 5.738 Q52.261 0.471 49.788 -5.249 Q47.315 -10.969 47.315 -17.308 Q47.315 -21.909 48.565 -26.782 Q49.815 -31.654 53.011 -39.366 Q55.511 -45.311 56.413 -48.421 Q57.315 -51.531 57.315 -54.051 Q57.315 -57.138 55.941 -59.757 Q54.567 -62.376 51.544 -65.214 Q49.065 -67.4 49.03 -70.693 Q48.995 -73.985 51.37 -76.36 Q53.505 -78.567 56.601 -78.629 Q59.697 -78.692 61.956 -76.659 Q67.422 -71.537 70.053 -65.91 Q72.685 -60.284 72.685 -53.958 Q72.685 -49.715 71.47 -45.081 Q70.255 -40.447 67.31 -33.11 Q64.56 -26.665 63.622 -23.41 Q62.685 -20.156 62.685 -17.377 Q62.685 -14.143 64.079 -11.06 Q65.473 -7.977 68.332 -4.801 Q70.435 -2.518 70.435 0.593 Q70.435 3.705 68.228 5.971 Z M94.005 5.971 Q91.701 8.411 88.492 8.314 Q85.283 8.216 83 5.738 Q78.038 0.471 75.565 -5.249 Q73.092 -10.969 73.092 -17.308 Q73.092 -21.909 74.342 -26.782 Q75.592 -31.654 78.788 -39.366 Q81.288 -45.311 82.19 -48.421 Q83.092 -51.531 83.092 -54.051 Q83.092 -57.138 81.719 -59.757 Q80.344 -62.376 77.321 -65.214 Q74.842 -67.4 74.807 -70.693 Q74.772 -73.985 77.147 -76.36 Q79.283 -78.567 82.378 -78.629 Q85.474 -78.692 87.734 -76.659 Q93.196 -71.697 95.829 -66.055 Q98.462 -60.412 98.462 -54.029 Q98.462 -49.826 97.239 -45.136 Q96.016 -40.447 93.016 -33.11 Q90.391 -26.735 89.427 -23.458 Q88.462 -20.181 88.462 -17.442 Q88.462 -14.072 89.829 -11.061 Q91.196 -8.051 94.109 -4.801 Q96.212 -2.518 96.212 0.593 Q96.212 3.705 94.005 5.971 Z"/></g><g id="Medium-M" transform="matrix(1 0 0 1 1689.91 1126)"><path d="M42.397 4.971 Q40.255 7.172 37.296 7.205 Q34.337 7.237 32.342 4.963 Q27.503 -0.222 25.05 -5.779 Q22.598 -11.336 22.598 -17.471 Q22.598 -21.95 23.848 -26.68 Q25.098 -31.409 28.253 -38.999 Q30.753 -44.999 31.675 -48.132 Q32.598 -51.265 32.598 -53.8 Q32.598 -56.975 31.183 -59.696 Q29.768 -62.417 26.622 -65.295 Q24.348 -67.32 24.285 -70.404 Q24.223 -73.488 26.364 -75.659 Q28.367 -77.632 31.234 -77.632 Q34.1 -77.632 36.22 -75.763 Q41.56 -70.923 44.152 -65.443 Q46.745 -59.964 46.745 -53.784 Q46.745 -49.703 45.542 -45.157 Q44.34 -40.61 41.34 -33.396 Q38.59 -27.021 37.667 -23.757 Q36.745 -20.494 36.745 -17.676 Q36.745 -14.36 38.17 -11.185 Q39.596 -8.01 42.625 -4.79 Q44.495 -2.693 44.447 0.138 Q44.4 2.968 42.397 4.971 Z M67.821 5.156 Q65.679 7.392 62.735 7.315 Q59.791 7.237 57.671 4.963 Q52.831 -0.222 50.379 -5.779 Q47.927 -11.336 47.927 -17.471 Q47.927 -21.95 49.177 -26.68 Q50.427 -31.409 53.581 -38.999 Q56.081 -44.904 57.004 -48.054 Q57.927 -51.205 57.927 -53.766 Q57.927 -56.975 56.512 -59.696 Q55.097 -62.417 51.951 -65.295 Q49.677 -67.278 49.662 -70.306 Q49.647 -73.333 51.818 -75.504 Q53.791 -77.507 56.621 -77.57 Q59.452 -77.632 61.549 -75.763 Q66.892 -70.762 69.483 -65.319 Q72.073 -59.876 72.073 -53.754 Q72.073 -49.633 70.838 -45.122 Q69.603 -40.61 66.698 -33.396 Q63.948 -26.991 63.011 -23.696 Q62.073 -20.401 62.073 -17.58 Q62.073 -14.265 63.529 -11.121 Q64.984 -7.977 67.924 -4.76 Q69.823 -2.64 69.823 0.227 Q69.823 3.093 67.821 5.156 Z M93.15 5.156 Q91.008 7.392 88.064 7.315 Q85.12 7.237 83 4.963 Q78.16 -0.222 75.708 -5.779 Q73.255 -11.336 73.255 -17.471 Q73.255 -21.95 74.505 -26.68 Q75.755 -31.409 78.91 -38.999 Q81.41 -44.904 82.333 -48.054 Q83.255 -51.205 83.255 -53.766 Q83.255 -56.975 81.841 -59.696 Q80.426 -62.417 77.28 -65.295 Q75.005 -67.278 74.99 -70.306 Q74.975 -73.333 77.147 -75.504 Q79.12 -77.507 81.95 -77.57 Q84.781 -77.632 86.878 -75.763 Q92.217 -70.923 94.81 -65.443 Q97.402 -59.964 97.402 -53.784 Q97.402 -49.703 96.2 -45.157 Q94.997 -40.61 91.997 -33.396 Q89.372 -27.021 88.387 -23.743 Q87.402 -20.466 87.402 -17.687 Q87.402 -14.235 88.81 -11.123 Q90.217 -8.01 93.253 -4.76 Q95.152 -2.64 95.152 0.227 Q95.152 3.093 93.15 5.156 Z"/></g><g id="Regular-M" transform="matrix(1 0 0 1 1394.06 1126)"><path d="M42.397 4.373 Q40.375 6.395 37.625 6.458 Q34.875 6.52 33 4.395 Q28.25 -0.73 25.812 -6.167 Q23.375 -11.605 23.375 -17.591 Q23.375 -21.98 24.625 -26.605 Q25.875 -31.23 29 -38.73 Q31.5 -44.73 32.438 -47.878 Q33.375 -51.026 33.375 -53.591 Q33.375 -56.855 31.93 -59.651 Q30.486 -62.447 27.25 -65.355 Q25.125 -67.23 25.062 -70.105 Q25 -72.98 27.022 -75.002 Q28.875 -76.855 31.562 -76.855 Q34.25 -76.855 36.25 -75.105 Q41.5 -70.355 44.062 -64.995 Q46.625 -59.635 46.625 -53.605 Q46.625 -49.614 45.438 -45.172 Q44.25 -40.73 41.25 -33.605 Q38.5 -27.23 37.562 -23.966 Q36.625 -20.703 36.625 -17.855 Q36.625 -14.48 38.096 -11.23 Q39.566 -7.98 42.625 -4.73 Q44.375 -2.753 44.312 -0.116 Q44.25 2.52 42.397 4.373 Z M67.522 4.558 Q65.5 6.645 62.75 6.583 Q60 6.52 58 4.395 Q53.25 -0.73 50.812 -6.167 Q48.375 -11.605 48.375 -17.591 Q48.375 -21.98 49.625 -26.605 Q50.875 -31.23 54 -38.73 Q56.5 -44.605 57.438 -47.785 Q58.375 -50.966 58.375 -53.557 Q58.375 -56.855 56.93 -59.651 Q55.486 -62.447 52.25 -65.355 Q50.125 -67.188 50.125 -70.022 Q50.125 -72.855 52.147 -74.877 Q54 -76.73 56.636 -76.792 Q59.273 -76.855 61.25 -75.105 Q66.503 -70.194 69.064 -64.886 Q71.625 -59.577 71.625 -53.605 Q71.625 -49.573 70.375 -45.152 Q69.125 -40.73 66.25 -33.605 Q63.5 -27.23 62.562 -23.905 Q61.625 -20.58 61.625 -17.73 Q61.625 -14.355 63.125 -11.166 Q64.625 -7.977 67.625 -4.73 Q69.375 -2.73 69.375 -0.042 Q69.375 2.645 67.522 4.558 Z M92.522 4.558 Q90.5 6.645 87.75 6.583 Q85 6.52 83 4.395 Q78.25 -0.73 75.812 -6.167 Q73.375 -11.605 73.375 -17.591 Q73.375 -21.98 74.625 -26.605 Q75.875 -31.23 79 -38.73 Q81.5 -44.605 82.438 -47.785 Q83.375 -50.966 83.375 -53.557 Q83.375 -56.855 81.93 -59.651 Q80.486 -62.447 77.25 -65.355 Q75.125 -67.188 75.125 -70.022 Q75.125 -72.855 77.147 -74.877 Q79 -76.73 81.636 -76.792 Q84.273 -76.855 86.25 -75.105 Q91.5 -70.355 94.062 -64.995 Q96.625 -59.635 96.625 -53.605 Q96.625 -49.614 95.438 -45.172 Q94.25 -40.73 91.25 -33.605 Q88.625 -27.23 87.625 -23.953 Q86.625 -20.675 86.625 -17.866 Q86.625 -14.355 88.062 -11.167 Q89.5 -7.98 92.625 -4.73 Q94.375 -2.73 94.375 -0.042 Q94.375 2.645 92.522 4.558 Z"/></g><g id="Light-M" transform="matrix(1 0 0 1 1098.18 1126)"><path d="M42.781 2.258 Q41.096 3.895 38.899 3.957 Q36.702 4.02 35.164 2.28 Q30.606 -2.605 28.241 -7.682 Q25.875 -12.759 25.875 -18.264 Q25.875 -22.365 27.101 -26.701 Q28.327 -31.038 31.404 -38.201 Q33.952 -44.057 34.914 -47.181 Q35.875 -50.304 35.875 -52.917 Q35.875 -56.278 34.31 -59.17 Q32.746 -62.062 29.317 -65.066 Q27.577 -66.605 27.515 -68.927 Q27.452 -71.249 29.137 -72.886 Q30.702 -74.403 32.861 -74.379 Q35.019 -74.355 36.683 -72.941 Q41.74 -68.432 44.183 -63.456 Q46.625 -58.481 46.625 -52.932 Q46.625 -49.229 45.486 -45.076 Q44.346 -40.922 41.346 -34.134 Q38.548 -27.951 37.587 -24.664 Q36.625 -21.376 36.625 -18.528 Q36.625 -15.057 38.168 -11.735 Q39.71 -8.413 42.962 -5.067 Q44.375 -3.474 44.337 -1.366 Q44.298 0.741 42.781 2.258 Z M66.608 2.394 Q64.923 4.097 62.75 4.058 Q60.577 4.02 58.913 2.28 Q54.356 -2.605 51.99 -7.682 Q49.625 -12.759 49.625 -18.264 Q49.625 -22.365 50.851 -26.701 Q52.077 -31.038 55.154 -38.201 Q57.702 -43.932 58.663 -47.064 Q59.625 -50.196 59.625 -52.836 Q59.625 -56.23 58.06 -59.146 Q56.495 -62.062 53.067 -65.066 Q51.327 -66.563 51.327 -68.844 Q51.327 -71.124 53.012 -72.761 Q54.529 -74.278 56.66 -74.316 Q58.792 -74.355 60.433 -72.941 Q65.493 -68.271 67.934 -63.347 Q70.375 -58.423 70.375 -52.932 Q70.375 -49.141 69.173 -45.007 Q67.971 -40.874 65.096 -34.134 Q62.298 -27.903 61.337 -24.578 Q60.375 -21.253 60.375 -18.403 Q60.375 -14.932 61.947 -11.671 Q63.519 -8.41 66.712 -5.067 Q68.125 -3.403 68.125 -1.293 Q68.125 0.818 66.608 2.394 Z M90.358 2.394 Q88.673 4.097 86.5 4.058 Q84.327 4.02 82.663 2.28 Q78.106 -2.605 75.74 -7.682 Q73.375 -12.759 73.375 -18.264 Q73.375 -22.365 74.601 -26.701 Q75.827 -31.038 78.904 -38.201 Q81.452 -43.932 82.413 -47.064 Q83.375 -50.196 83.375 -52.836 Q83.375 -56.23 81.81 -59.146 Q80.246 -62.062 76.817 -65.066 Q75.077 -66.563 75.077 -68.844 Q75.077 -71.124 76.762 -72.761 Q78.279 -74.278 80.41 -74.316 Q82.542 -74.355 84.183 -72.941 Q89.24 -68.432 91.683 -63.456 Q94.125 -58.481 94.125 -52.932 Q94.125 -49.229 92.985 -45.076 Q91.846 -40.922 88.846 -34.134 Q86.173 -27.903 85.149 -24.65 Q84.125 -21.397 84.125 -18.539 Q84.125 -14.932 85.635 -11.696 Q87.144 -8.461 90.461 -5.067 Q91.875 -3.451 91.875 -1.317 Q91.875 0.818 90.358 2.394 Z"/></g><g id="Thin-M" transform="matrix(1 0 0 1 802.565 1126)"><path d="M43.166 0.143 Q41.817 1.395 40.173 1.458 Q38.529 1.52 37.327 0.164 Q32.962 -4.48 30.668 -9.196 Q28.375 -13.913 28.375 -18.937 Q28.375 -22.749 29.577 -26.797 Q30.779 -30.845 33.808 -37.672 Q36.404 -43.384 37.389 -46.484 Q38.375 -49.583 38.375 -52.244 Q38.375 -55.701 36.69 -58.689 Q35.005 -61.678 31.385 -64.778 Q30.029 -65.98 29.966 -67.749 Q29.904 -69.518 31.253 -70.771 Q32.529 -71.951 34.159 -71.903 Q35.788 -71.855 37.115 -70.778 Q41.981 -66.509 44.303 -61.918 Q46.625 -57.327 46.625 -52.259 Q46.625 -48.844 45.534 -44.98 Q44.442 -41.115 41.442 -34.663 Q38.596 -28.672 37.611 -25.361 Q36.625 -22.049 36.625 -19.201 Q36.625 -15.634 38.24 -12.24 Q39.855 -8.845 43.298 -5.403 Q44.375 -4.195 44.361 -2.616 Q44.346 -1.038 43.166 0.143 Z M65.695 0.231 Q64.346 1.549 62.75 1.535 Q61.154 1.52 59.827 0.164 Q55.462 -4.48 53.168 -9.196 Q50.875 -13.913 50.875 -18.937 Q50.875 -22.749 52.077 -26.797 Q53.279 -30.845 56.308 -37.672 Q58.904 -43.259 59.889 -46.343 Q60.875 -49.427 60.875 -52.115 Q60.875 -55.605 59.19 -58.641 Q57.505 -61.678 53.885 -64.778 Q52.529 -65.938 52.529 -67.666 Q52.529 -69.393 53.877 -70.646 Q55.058 -71.826 56.684 -71.841 Q58.311 -71.855 59.615 -70.778 Q64.484 -66.348 66.805 -61.809 Q69.125 -57.269 69.125 -52.259 Q69.125 -48.708 67.971 -44.863 Q66.817 -41.018 63.942 -34.663 Q61.096 -28.576 60.111 -25.251 Q59.125 -21.926 59.125 -19.076 Q59.125 -15.509 60.769 -12.176 Q62.413 -8.842 65.798 -5.403 Q66.875 -4.076 66.875 -2.542 Q66.875 -1.009 65.695 0.231 Z M88.195 0.231 Q86.846 1.549 85.25 1.535 Q83.654 1.52 82.327 0.164 Q77.962 -4.48 75.668 -9.196 Q73.375 -13.913 73.375 -18.937 Q73.375 -22.749 74.577 -26.797 Q75.779 -30.845 78.808 -37.672 Q81.404 -43.259 82.389 -46.343 Q83.375 -49.427 83.375 -52.115 Q83.375 -55.605 81.69 -58.641 Q80.005 -61.678 76.385 -64.778 Q75.029 -65.938 75.029 -67.666 Q75.029 -69.393 76.377 -70.646 Q77.558 -71.826 79.184 -71.841 Q80.811 -71.855 82.115 -70.778 Q86.981 -66.509 89.303 -61.918 Q91.625 -57.327 91.625 -52.259 Q91.625 -48.844 90.534 -44.98 Q89.442 -41.115 86.442 -34.663 Q83.721 -28.576 82.673 -25.347 Q81.625 -22.118 81.625 -19.212 Q81.625 -15.509 83.207 -12.225 Q84.788 -8.941 88.298 -5.403 Q89.375 -4.172 89.375 -2.59 Q89.375 -1.009 88.195 0.231 Z"/></g><g id="Ultralight-M" transform="matrix(1 0 0 1 506.415 1126)"><path d="M43.397 -1.127 Q42.25 -0.105 40.938 -0.042 Q39.625 0.02 38.625 -1.105 Q34.375 -5.605 32.125 -10.105 Q29.875 -14.605 29.875 -19.341 Q29.875 -22.98 31.062 -26.855 Q32.25 -30.73 35.25 -37.355 Q37.875 -42.98 38.875 -46.065 Q39.875 -49.151 39.875 -51.841 Q39.875 -55.355 38.118 -58.401 Q36.361 -61.447 32.625 -64.605 Q31.5 -65.605 31.438 -67.042 Q31.375 -68.48 32.522 -69.502 Q33.625 -70.48 34.938 -70.417 Q36.25 -70.355 37.375 -69.48 Q42.125 -65.355 44.375 -60.995 Q46.625 -56.635 46.625 -51.855 Q46.625 -48.614 45.562 -44.922 Q44.5 -41.23 41.5 -34.98 Q38.625 -29.105 37.625 -25.779 Q36.625 -22.453 36.625 -19.605 Q36.625 -15.98 38.283 -12.542 Q39.941 -9.105 43.5 -5.605 Q44.375 -4.628 44.375 -3.366 Q44.375 -2.105 43.397 -1.127 Z M65.147 -1.067 Q64 0.02 62.75 0.02 Q61.5 0.02 60.375 -1.105 Q56.125 -5.605 53.875 -10.105 Q51.625 -14.605 51.625 -19.341 Q51.625 -22.98 52.812 -26.855 Q54 -30.73 57 -37.355 Q59.625 -42.855 60.625 -45.91 Q61.625 -48.966 61.625 -51.682 Q61.625 -55.23 59.868 -58.338 Q58.111 -61.447 54.375 -64.605 Q53.25 -65.563 53.25 -66.959 Q53.25 -68.355 54.397 -69.377 Q55.375 -70.355 56.699 -70.355 Q58.023 -70.355 59.125 -69.48 Q63.878 -65.194 66.127 -60.886 Q68.375 -56.577 68.375 -51.855 Q68.375 -48.448 67.25 -44.777 Q66.125 -41.105 63.25 -34.98 Q60.375 -28.98 59.375 -25.655 Q58.375 -22.33 58.375 -19.48 Q58.375 -15.855 60.062 -12.478 Q61.75 -9.102 65.25 -5.605 Q66.125 -4.48 66.125 -3.292 Q66.125 -2.105 65.147 -1.067 Z M86.897 -1.067 Q85.75 0.02 84.5 0.02 Q83.25 0.02 82.125 -1.105 Q77.875 -5.605 75.625 -10.105 Q73.375 -14.605 73.375 -19.341 Q73.375 -22.98 74.562 -26.855 Q75.75 -30.73 78.75 -37.355 Q81.375 -42.855 82.375 -45.91 Q83.375 -48.966 83.375 -51.682 Q83.375 -55.23 81.618 -58.338 Q79.861 -61.447 76.125 -64.605 Q75 -65.563 75 -66.959 Q75 -68.355 76.147 -69.377 Q77.125 -70.355 78.449 -70.355 Q79.773 -70.355 80.875 -69.48 Q85.625 -65.355 87.875 -60.995 Q90.125 -56.635 90.125 -51.855 Q90.125 -48.614 89.062 -44.922 Q88 -41.23 85 -34.98 Q82.25 -28.98 81.188 -25.765 Q80.125 -22.55 80.125 -19.616 Q80.125 -15.855 81.75 -12.542 Q83.375 -9.23 87 -5.605 Q87.875 -4.605 87.875 -3.355 Q87.875 -2.105 86.897 -1.067 Z"/></g><g id="Bold-S" transform="matrix(1 0 0 1 2294.23 696)"><path d="M34.93 -5.068 Q33.039 -2.98 30.426 -3.078 Q27.812 -3.177 25.938 -5.248 Q22.245 -9.079 20.442 -13.328 Q18.64 -17.576 18.64 -22.397 Q18.64 -25.762 19.528 -29.46 Q20.415 -33.159 22.764 -38.725 Q24.558 -42.923 25.149 -45.061 Q25.741 -47.2 25.741 -48.93 Q25.741 -50.961 24.799 -52.698 Q23.856 -54.436 21.895 -56.336 Q19.922 -58.308 19.824 -61.02 Q19.725 -63.733 21.616 -65.722 Q23.571 -67.579 26.086 -67.53 Q28.601 -67.48 30.437 -65.818 Q34.42 -62.155 36.393 -57.975 Q38.365 -53.795 38.365 -48.942 Q38.365 -45.771 37.477 -42.227 Q36.59 -38.682 34.42 -33.356 Q32.448 -28.721 31.856 -26.42 Q31.264 -24.118 31.264 -22.209 Q31.264 -20.042 32.157 -18.012 Q33.05 -15.982 35.117 -13.804 Q36.787 -11.972 36.836 -9.498 Q36.886 -7.023 34.93 -5.068 Z M53.669 -4.922 Q51.778 -2.881 49.214 -3.078 Q46.65 -3.275 44.776 -5.248 Q41.082 -9.079 39.28 -13.328 Q37.477 -17.576 37.477 -22.351 Q37.477 -25.787 38.365 -29.424 Q39.253 -33.06 41.58 -38.666 Q43.356 -42.897 43.967 -45.025 Q44.579 -47.152 44.579 -48.903 Q44.579 -50.961 43.636 -52.698 Q42.693 -54.436 40.732 -56.336 Q38.76 -58.275 38.661 -60.905 Q38.562 -63.535 40.552 -65.525 Q42.409 -67.48 44.933 -67.48 Q47.457 -67.48 49.294 -65.824 Q53.344 -62.053 55.273 -57.852 Q57.203 -53.651 57.203 -48.846 Q57.203 -45.646 56.364 -42.164 Q55.526 -38.682 53.356 -33.356 Q51.384 -28.622 50.743 -26.443 Q50.102 -24.263 50.102 -22.337 Q50.102 -20.153 50.989 -18.042 Q51.877 -15.931 53.751 -13.73 Q55.526 -11.757 55.575 -9.341 Q55.625 -6.925 53.669 -4.922 Z M72.605 -5.021 Q70.714 -2.98 68.101 -3.128 Q65.487 -3.275 63.613 -5.248 Q59.919 -9.079 58.117 -13.328 Q56.315 -17.576 56.315 -22.351 Q56.315 -25.787 57.203 -29.424 Q58.09 -33.06 60.418 -38.666 Q62.193 -42.897 62.804 -45.025 Q63.416 -47.152 63.416 -48.903 Q63.416 -50.961 62.473 -52.698 Q61.531 -54.436 59.57 -56.336 Q57.597 -58.275 57.498 -60.905 Q57.4 -63.535 59.389 -65.525 Q61.246 -67.48 63.77 -67.48 Q66.294 -67.48 68.131 -65.824 Q72.179 -62.179 74.11 -57.987 Q76.04 -53.795 76.04 -48.966 Q76.04 -45.811 75.143 -42.285 Q74.246 -38.758 72.095 -33.356 Q70.221 -28.721 69.58 -26.411 Q68.939 -24.102 68.939 -22.22 Q68.939 -19.943 69.832 -17.962 Q70.725 -15.982 72.61 -13.705 Q74.363 -11.856 74.462 -9.44 Q74.561 -7.023 72.605 -5.021 Z"/></g><g id="Semibold-S" transform="matrix(1 0 0 1 1998.1 696)"><path d="M34.93 -5.925 Q33.211 -4.094 30.897 -4.15 Q28.584 -4.206 26.882 -6.063 Q23.317 -9.808 21.536 -13.885 Q19.755 -17.962 19.755 -22.569 Q19.755 -25.805 20.643 -29.353 Q21.53 -32.902 23.836 -38.339 Q25.63 -42.537 26.243 -44.697 Q26.856 -46.857 26.856 -48.629 Q26.856 -50.789 25.871 -52.634 Q24.885 -54.479 22.795 -56.422 Q21.037 -58.18 20.938 -60.592 Q20.84 -63.004 22.559 -64.779 Q24.3 -66.464 26.558 -66.415 Q28.816 -66.366 30.48 -64.875 Q34.334 -61.34 36.264 -57.332 Q38.194 -53.324 38.194 -48.685 Q38.194 -45.643 37.327 -42.248 Q36.461 -38.853 34.292 -33.656 Q32.319 -29.021 31.706 -26.72 Q31.093 -24.419 31.093 -22.466 Q31.093 -20.213 32.05 -18.076 Q33.007 -15.939 35.117 -13.718 Q36.616 -12.058 36.644 -9.862 Q36.671 -7.666 34.93 -5.925 Z M53.24 -5.78 Q51.521 -3.953 49.235 -4.129 Q46.95 -4.305 45.247 -6.063 Q41.682 -9.808 39.902 -13.885 Q38.121 -17.962 38.121 -22.522 Q38.121 -25.83 39.008 -29.316 Q39.896 -32.803 42.181 -38.28 Q43.956 -42.468 44.589 -44.639 Q45.222 -46.809 45.222 -48.603 Q45.222 -50.789 44.236 -52.634 Q43.251 -54.479 41.161 -56.422 Q39.403 -58.147 39.326 -60.498 Q39.248 -62.849 41.024 -64.625 Q42.709 -66.366 44.954 -66.366 Q47.199 -66.366 48.865 -64.881 Q52.787 -61.238 54.673 -57.23 Q56.559 -53.222 56.559 -48.632 Q56.559 -45.56 55.7 -42.207 Q54.84 -38.853 52.713 -33.656 Q50.74 -28.965 50.099 -26.743 Q49.458 -24.52 49.458 -22.552 Q49.458 -20.281 50.41 -18.106 Q51.362 -15.931 53.322 -13.687 Q54.883 -11.886 54.932 -9.727 Q54.981 -7.568 53.24 -5.78 Z M71.705 -5.878 Q69.985 -4.052 67.65 -4.178 Q65.315 -4.305 63.613 -6.063 Q60.048 -9.808 58.267 -13.885 Q56.486 -17.962 56.486 -22.522 Q56.486 -25.83 57.374 -29.316 Q58.262 -32.803 60.546 -38.28 Q62.322 -42.468 62.955 -44.639 Q63.587 -46.809 63.587 -48.603 Q63.587 -50.789 62.602 -52.634 Q61.617 -54.479 59.527 -56.422 Q57.769 -58.147 57.691 -60.498 Q57.614 -62.849 59.389 -64.625 Q61.075 -66.366 63.32 -66.366 Q65.565 -66.366 67.231 -64.881 Q71.15 -61.365 73.038 -57.344 Q74.925 -53.324 74.925 -48.709 Q74.925 -45.683 74.05 -42.306 Q73.174 -38.93 71.023 -33.656 Q69.149 -29.021 68.487 -26.711 Q67.824 -24.402 67.824 -22.478 Q67.824 -20.115 68.76 -18.027 Q69.696 -15.939 71.709 -13.662 Q73.248 -11.984 73.347 -9.825 Q73.446 -7.666 71.705 -5.878 Z"/></g><g id="Medium-S" transform="matrix(1 0 0 1 1701.85 696)"><path d="M34.93 -6.569 Q33.339 -4.931 31.251 -4.954 Q29.163 -4.978 27.589 -6.674 Q24.121 -10.355 22.356 -14.303 Q20.591 -18.252 20.591 -22.698 Q20.591 -25.837 21.479 -29.273 Q22.366 -32.709 24.64 -38.049 Q26.434 -42.247 27.063 -44.423 Q27.692 -46.599 27.692 -48.404 Q27.692 -50.661 26.675 -52.586 Q25.657 -54.511 23.471 -56.486 Q21.873 -58.083 21.775 -60.27 Q21.676 -62.457 23.267 -64.071 Q24.847 -65.628 26.912 -65.579 Q28.976 -65.529 30.512 -64.167 Q34.27 -60.729 36.167 -56.849 Q38.065 -52.97 38.065 -48.492 Q38.065 -45.546 37.215 -42.264 Q36.365 -38.982 34.195 -33.881 Q32.222 -29.246 31.593 -26.945 Q30.964 -24.644 30.964 -22.659 Q30.964 -20.342 31.97 -18.124 Q32.975 -15.907 35.117 -13.654 Q36.487 -12.123 36.499 -10.136 Q36.511 -8.149 34.93 -6.569 Z M52.919 -6.423 Q51.328 -4.757 49.251 -4.917 Q47.175 -5.076 45.601 -6.674 Q42.133 -10.355 40.368 -14.303 Q38.603 -18.252 38.603 -22.651 Q38.603 -25.862 39.491 -29.236 Q40.378 -32.61 42.631 -37.991 Q44.406 -42.146 45.055 -44.349 Q45.704 -46.552 45.704 -48.378 Q45.704 -50.661 44.686 -52.586 Q43.669 -54.511 41.483 -56.486 Q39.885 -58.05 39.824 -60.192 Q39.763 -62.335 41.377 -63.949 Q42.934 -65.529 44.97 -65.529 Q47.006 -65.529 48.544 -64.173 Q52.369 -60.627 54.223 -56.764 Q56.077 -52.901 56.077 -48.471 Q56.077 -45.496 55.201 -42.239 Q54.325 -38.982 52.231 -33.881 Q50.258 -29.222 49.617 -26.968 Q48.976 -24.713 48.976 -22.713 Q48.976 -20.378 49.976 -18.154 Q50.976 -15.931 53 -13.655 Q54.4 -11.982 54.45 -10.016 Q54.499 -8.05 52.919 -6.423 Z M71.029 -6.522 Q69.438 -4.856 67.313 -4.966 Q65.187 -5.076 63.613 -6.674 Q60.145 -10.355 58.38 -14.303 Q56.615 -18.252 56.615 -22.651 Q56.615 -25.862 57.503 -29.236 Q58.39 -32.61 60.643 -37.991 Q62.418 -42.146 63.067 -44.349 Q63.716 -46.552 63.716 -48.378 Q63.716 -50.661 62.698 -52.586 Q61.681 -54.511 59.494 -56.486 Q57.897 -58.05 57.836 -60.192 Q57.775 -62.335 59.389 -63.949 Q60.946 -65.529 62.982 -65.529 Q65.018 -65.529 66.556 -64.173 Q70.378 -60.754 72.234 -56.862 Q74.089 -52.97 74.089 -48.516 Q74.089 -45.586 73.229 -42.322 Q72.37 -39.058 70.219 -33.881 Q68.345 -29.246 67.666 -26.936 Q66.988 -24.627 66.988 -22.671 Q66.988 -20.243 67.956 -18.075 Q68.924 -15.907 71.034 -13.63 Q72.412 -12.081 72.511 -10.115 Q72.61 -8.149 71.029 -6.522 Z"/></g><g id="Regular-S" transform="matrix(1 0 0 1 1405.73 696)"><path d="M34.93 -7.04 Q33.434 -5.544 31.511 -5.544 Q29.588 -5.544 28.108 -7.122 Q24.71 -10.756 22.957 -14.61 Q21.204 -18.464 21.204 -22.792 Q21.204 -25.861 22.092 -29.214 Q22.98 -32.567 25.23 -37.837 Q27.023 -42.035 27.664 -44.223 Q28.305 -46.411 28.305 -48.239 Q28.305 -50.566 27.264 -52.55 Q26.223 -54.535 23.966 -56.533 Q22.486 -58.012 22.388 -60.034 Q22.289 -62.056 23.786 -63.553 Q25.248 -65.015 27.171 -64.965 Q29.094 -64.916 30.536 -63.648 Q34.223 -60.281 36.097 -56.496 Q37.971 -52.71 37.971 -48.35 Q37.971 -45.476 37.132 -42.276 Q36.294 -39.076 34.124 -34.046 Q32.152 -29.411 31.511 -27.11 Q30.87 -24.809 30.87 -22.8 Q30.87 -20.436 31.911 -18.16 Q32.952 -15.883 35.117 -13.606 Q36.393 -12.17 36.393 -10.336 Q36.393 -8.503 34.93 -7.04 Z M52.683 -6.895 Q51.186 -5.347 49.263 -5.495 Q47.34 -5.642 45.861 -7.122 Q42.463 -10.756 40.71 -14.61 Q38.957 -18.464 38.957 -22.745 Q38.957 -25.885 39.845 -29.177 Q40.732 -32.468 42.961 -37.778 Q44.736 -41.911 45.397 -44.137 Q46.058 -46.363 46.058 -48.213 Q46.058 -50.566 45.017 -52.55 Q43.976 -54.535 41.718 -56.533 Q40.239 -57.98 40.19 -59.968 Q40.14 -61.957 41.637 -63.454 Q43.099 -64.916 44.982 -64.916 Q46.865 -64.916 48.308 -63.654 Q52.062 -60.179 53.893 -56.422 Q55.723 -52.665 55.723 -48.353 Q55.723 -45.448 54.836 -42.262 Q53.948 -39.076 51.877 -34.046 Q49.904 -29.411 49.263 -27.133 Q48.622 -24.855 48.622 -22.831 Q48.622 -20.448 49.658 -18.19 Q50.693 -15.931 52.764 -13.631 Q54.047 -12.053 54.096 -10.229 Q54.145 -8.404 52.683 -6.895 Z M70.534 -6.993 Q69.038 -5.445 67.065 -5.544 Q65.093 -5.642 63.613 -7.122 Q60.215 -10.756 58.462 -14.61 Q56.709 -18.464 56.709 -22.745 Q56.709 -25.885 57.597 -29.177 Q58.485 -32.468 60.714 -37.778 Q62.489 -41.911 63.15 -44.137 Q63.81 -46.363 63.81 -48.213 Q63.81 -50.566 62.769 -52.55 Q61.728 -54.535 59.471 -56.533 Q57.992 -57.98 57.942 -59.968 Q57.893 -61.957 59.389 -63.454 Q60.852 -64.916 62.734 -64.916 Q64.617 -64.916 66.06 -63.654 Q69.812 -60.305 71.644 -56.508 Q73.476 -52.71 73.476 -48.374 Q73.476 -45.516 72.628 -42.334 Q71.78 -39.153 69.629 -34.046 Q67.755 -29.411 67.065 -27.102 Q66.375 -24.792 66.375 -22.812 Q66.375 -20.338 67.366 -18.11 Q68.358 -15.883 70.539 -13.606 Q71.799 -12.152 71.898 -10.327 Q71.996 -8.503 70.534 -6.993 Z"/></g><g id="Light-S" transform="matrix(1 0 0 1 1109.75 696)"><path d="M35.234 -8.71 Q34.003 -7.516 32.516 -7.516 Q31.029 -7.516 29.815 -8.791 Q26.569 -12.235 24.873 -15.805 Q23.177 -19.374 23.177 -23.323 Q23.177 -26.164 24.046 -29.29 Q24.914 -32.415 27.127 -37.42 Q28.958 -41.504 29.618 -43.673 Q30.278 -45.842 30.278 -47.708 Q30.278 -50.111 29.142 -52.171 Q28.006 -54.231 25.597 -56.305 Q24.421 -57.519 24.323 -59.105 Q24.224 -60.69 25.455 -61.883 Q26.69 -63.08 28.195 -63.012 Q29.701 -62.944 30.877 -61.941 Q34.413 -58.763 36.192 -55.282 Q37.971 -51.8 37.971 -47.819 Q37.971 -45.172 37.17 -42.2 Q36.37 -39.228 34.2 -34.464 Q32.19 -29.98 31.53 -27.66 Q30.87 -25.34 30.87 -23.332 Q30.87 -20.892 31.968 -18.558 Q33.065 -16.224 35.382 -13.872 Q36.393 -12.739 36.412 -11.323 Q36.431 -9.906 35.234 -8.71 Z M51.962 -8.602 Q50.731 -7.357 49.263 -7.486 Q47.795 -7.615 46.581 -8.791 Q43.335 -12.235 41.639 -15.805 Q39.943 -19.374 39.943 -23.277 Q39.943 -26.189 40.812 -29.253 Q41.681 -32.317 43.871 -37.361 Q45.685 -41.379 46.364 -43.568 Q47.044 -45.756 47.044 -47.644 Q47.044 -50.073 45.908 -52.152 Q44.772 -54.231 42.363 -56.305 Q41.187 -57.486 41.138 -59.039 Q41.089 -60.592 42.32 -61.785 Q43.516 -62.981 45.001 -62.962 Q46.485 -62.944 47.663 -61.947 Q51.266 -58.661 53.001 -55.208 Q54.737 -51.754 54.737 -47.822 Q54.737 -45.107 53.887 -42.149 Q53.037 -39.19 50.966 -34.464 Q48.956 -29.942 48.296 -27.664 Q47.636 -25.386 47.636 -23.362 Q47.636 -20.904 48.728 -18.588 Q49.821 -16.272 52.044 -13.897 Q53.06 -12.584 53.109 -11.215 Q53.159 -9.846 51.962 -8.602 Z M68.827 -8.7 Q67.596 -7.456 66.079 -7.536 Q64.561 -7.615 63.348 -8.791 Q60.101 -12.235 58.405 -15.805 Q56.709 -19.374 56.709 -23.277 Q56.709 -26.189 57.578 -29.253 Q58.447 -32.317 60.638 -37.361 Q62.451 -41.379 63.131 -43.568 Q63.81 -45.756 63.81 -47.644 Q63.81 -50.073 62.674 -52.152 Q61.538 -54.231 59.129 -56.305 Q57.954 -57.486 57.904 -59.039 Q57.855 -60.592 59.086 -61.785 Q60.283 -62.981 61.767 -62.962 Q63.252 -62.944 64.429 -61.947 Q68.029 -58.788 69.766 -55.294 Q71.503 -51.8 71.503 -47.843 Q71.503 -45.212 70.693 -42.258 Q69.883 -39.305 67.732 -34.464 Q65.821 -29.942 65.111 -27.652 Q64.402 -25.361 64.402 -23.343 Q64.402 -20.793 65.451 -18.528 Q66.499 -16.262 68.832 -13.872 Q69.826 -12.721 69.925 -11.332 Q70.024 -9.944 68.827 -8.7 Z"/></g><g id="Thin-S" transform="matrix(1 0 0 1 814.015 696)"><path d="M35.537 -10.378 Q34.572 -9.489 33.521 -9.489 Q32.47 -9.489 31.522 -10.46 Q28.428 -13.714 26.789 -16.999 Q25.149 -20.284 25.149 -23.854 Q25.149 -26.468 25.999 -29.366 Q26.849 -32.264 29.023 -37.002 Q30.892 -40.973 31.571 -43.123 Q32.25 -45.273 32.25 -47.177 Q32.25 -49.656 31.02 -51.792 Q29.789 -53.928 27.228 -56.078 Q26.356 -57.026 26.257 -58.176 Q26.158 -59.325 27.124 -60.214 Q28.131 -61.146 29.22 -61.058 Q30.308 -60.971 31.219 -60.234 Q34.602 -57.246 36.286 -54.068 Q37.971 -50.89 37.971 -47.288 Q37.971 -44.869 37.208 -42.124 Q36.446 -39.38 34.276 -34.881 Q32.228 -30.549 31.549 -28.21 Q30.87 -25.871 30.87 -23.863 Q30.87 -21.347 32.024 -18.956 Q33.179 -16.566 35.648 -14.138 Q36.393 -13.308 36.431 -12.309 Q36.468 -11.31 35.537 -10.378 Z M51.242 -10.309 Q50.276 -9.367 49.263 -9.477 Q48.25 -9.587 47.302 -10.46 Q44.208 -13.714 42.569 -16.999 Q40.929 -20.284 40.929 -23.808 Q40.929 -26.492 41.779 -29.329 Q42.629 -32.165 44.782 -36.944 Q46.633 -40.848 47.332 -42.999 Q48.03 -45.149 48.03 -47.075 Q48.03 -49.58 46.8 -51.754 Q45.569 -53.928 43.008 -56.078 Q42.136 -56.993 42.086 -58.11 Q42.037 -59.226 43.002 -60.116 Q43.934 -61.047 45.02 -61.009 Q46.106 -60.971 47.018 -60.24 Q50.469 -57.144 52.11 -53.994 Q53.751 -50.844 53.751 -47.291 Q53.751 -44.766 52.939 -42.035 Q52.127 -39.304 50.056 -34.881 Q48.008 -30.473 47.329 -28.195 Q46.65 -25.917 46.65 -23.893 Q46.65 -21.359 47.799 -18.986 Q48.948 -16.614 51.323 -14.162 Q52.074 -13.115 52.123 -12.201 Q52.173 -11.287 51.242 -10.309 Z M67.12 -10.407 Q66.155 -9.466 65.093 -9.527 Q64.03 -9.587 63.082 -10.46 Q59.988 -13.714 58.349 -16.999 Q56.709 -20.284 56.709 -23.808 Q56.709 -26.492 57.559 -29.329 Q58.409 -32.165 60.562 -36.944 Q62.413 -40.848 63.112 -42.999 Q63.81 -45.149 63.81 -47.075 Q63.81 -49.58 62.58 -51.754 Q61.349 -53.928 58.788 -56.078 Q57.916 -56.993 57.866 -58.11 Q57.817 -59.226 58.782 -60.116 Q59.714 -61.047 60.8 -61.009 Q61.886 -60.971 62.798 -60.24 Q66.247 -57.271 67.889 -54.08 Q69.531 -50.89 69.531 -47.312 Q69.531 -44.909 68.759 -42.182 Q67.987 -39.456 65.836 -34.881 Q63.886 -30.473 63.158 -28.202 Q62.43 -25.93 62.43 -23.874 Q62.43 -21.248 63.535 -18.945 Q64.641 -16.642 67.125 -14.138 Q67.854 -13.29 67.953 -12.338 Q68.051 -11.386 67.12 -10.407 Z"/></g><g id="Ultralight-S" transform="matrix(1 0 0 1 517.792 696)"><path d="M35.719 -11.38 Q34.913 -10.672 34.124 -10.672 Q33.335 -10.672 32.546 -11.461 Q29.543 -14.602 27.938 -17.716 Q26.333 -20.831 26.333 -24.173 Q26.333 -26.65 27.171 -29.411 Q28.01 -32.173 30.161 -36.752 Q32.053 -40.654 32.744 -42.793 Q33.434 -44.931 33.434 -46.858 Q33.434 -49.383 32.146 -51.564 Q30.858 -53.746 28.207 -55.941 Q27.516 -56.73 27.418 -57.618 Q27.319 -58.505 28.125 -59.213 Q28.996 -59.985 29.834 -59.886 Q30.672 -59.788 31.423 -59.21 Q34.716 -56.336 36.343 -53.34 Q37.971 -50.343 37.971 -46.97 Q37.971 -44.687 37.231 -42.079 Q36.491 -39.471 34.322 -35.131 Q32.25 -30.89 31.56 -28.54 Q30.87 -26.19 30.87 -24.181 Q30.87 -21.62 32.059 -19.195 Q33.247 -16.771 35.807 -14.297 Q36.393 -13.649 36.442 -12.9 Q36.491 -12.152 35.719 -11.38 Z M50.809 -11.333 Q50.003 -10.574 49.263 -10.672 Q48.524 -10.771 47.735 -11.461 Q44.731 -14.602 43.126 -17.716 Q41.521 -20.831 41.521 -24.126 Q41.521 -26.674 42.359 -29.374 Q43.198 -32.074 45.328 -36.693 Q47.202 -40.53 47.912 -42.658 Q48.622 -44.785 48.622 -46.733 Q48.622 -49.284 47.334 -51.515 Q46.047 -53.746 43.395 -55.941 Q42.705 -56.697 42.655 -57.552 Q42.606 -58.407 43.412 -59.114 Q44.184 -59.886 45.031 -59.837 Q45.879 -59.788 46.631 -59.216 Q49.991 -56.234 51.575 -53.266 Q53.159 -50.298 53.159 -46.972 Q53.159 -44.561 52.37 -41.966 Q51.581 -39.372 49.51 -35.131 Q47.439 -30.792 46.748 -28.514 Q46.058 -26.235 46.058 -24.211 Q46.058 -21.632 47.241 -19.225 Q48.425 -16.819 50.891 -14.321 Q51.482 -13.434 51.532 -12.793 Q51.581 -12.152 50.809 -11.333 Z M66.096 -11.431 Q65.29 -10.672 64.501 -10.722 Q63.712 -10.771 62.923 -11.461 Q59.919 -14.602 58.314 -17.716 Q56.709 -20.831 56.709 -24.126 Q56.709 -26.674 57.548 -29.374 Q58.386 -32.074 60.516 -36.693 Q62.39 -40.53 63.1 -42.658 Q63.81 -44.785 63.81 -46.733 Q63.81 -49.284 62.523 -51.515 Q61.235 -53.746 58.583 -55.941 Q57.893 -56.697 57.844 -57.552 Q57.794 -58.407 58.6 -59.114 Q59.372 -59.886 60.22 -59.837 Q61.067 -59.788 61.819 -59.216 Q65.177 -56.36 66.762 -53.352 Q68.347 -50.343 68.347 -46.993 Q68.347 -44.727 67.598 -42.137 Q66.849 -39.547 64.698 -35.131 Q62.726 -30.792 61.986 -28.532 Q61.246 -26.271 61.246 -24.193 Q61.246 -21.521 62.386 -19.195 Q63.525 -16.869 66.101 -14.297 Q66.671 -13.631 66.769 -12.941 Q66.868 -12.25 66.096 -11.431 Z"/></g></g></svg>