<svg xmlns="http://www.w3.org/2000/svg" height="20" viewBox="0 -960 960 960" width="20"><path d="M162-160q-39.72 0-68.86-29T64-258v-444q0-40.42 29.14-69.21Q122.28-800 162-800h154.64q19.78 0 37.7 7.09Q372.27-785.83 387-771l93 93h318q40.42 0 69.21 28.79Q896-620.42 896-580v23q0 22.5-18.5 34.75T837-519q-19-4-36.67-6.5Q782.67-528 765-528q-124 0-205.5 93T495-217q2-1 1.5-2.01-.5-1.01-1.5-1.99 4 23.51-10 42.26Q471-160 447-160H162Zm493.28 0Q640-160 628-170.35 616-180.7 616-196q0-41.88 41.5-67.94Q699-290 768-290t110.5 26.06Q920-237.88 920-196q0 15.3-11.84 25.65Q896.32-160 881.04-160H655.28Zm112.51-148q-32.26 0-55.03-22.97Q690-353.95 690-386.21q0-32.27 22.97-55.03Q735.95-464 768.21-464q32.26 0 55.03 22.97Q846-418.05 846-385.79q0 32.27-22.97 55.03Q800.05-308 767.79-308Z"/></svg>