<svg xmlns="http://www.w3.org/2000/svg" height="48" viewBox="0 96 960 960" width="48"><path d="M575.696 910.131v-19q0-41.435 42.218-64.717 42.217-23.283 117.5-23.283 75.282 0 117.782 23.283 42.5 23.282 42.5 64.717v19h-320Zm160.08-174q-30.645 0-51.862-21.138-21.218-21.137-21.218-51.5 0-30.362 21.138-51.862 21.138-21.5 51.5-21.5t51.862 21.421q21.5 21.42 21.5 51.5 0 30.644-21.42 51.862-21.42 21.217-51.5 21.217Zm-589.689 174q-33.257 0-56.237-22.981-22.981-22.98-22.981-56.237V314.87q0-33.491 22.98-56.637 22.981-23.147 56.238-23.147h235.782q16.216 0 30.912 6.536 14.696 6.536 25.742 17.77l42.733 41.912h334.657q33.49 0 56.637 23.146 23.146 23.147 23.146 56.637v204.044q-35.169-27-75.867-41-40.698-14-84.133-14-107.748 0-183.591 75.114-75.843 75.113-76.409 182.625-.565 32.565 6.935 63.131 7.5 30.565 22.065 59.13H146.087Z"/></svg>