<svg xmlns="http://www.w3.org/2000/svg" height="20" viewBox="0 -960 960 960" width="20"><path d="M480-148q-68.38 0-128.69-26T245.5-245.5Q200-291 174-351.46q-26-60.46-26-129 0-68.54 26-129.04Q200-670 245.5-715t105.96-71q60.46-26 129-26 68.54 0 129.05 26.24 60.5 26.24 105.29 71.08 44.78 44.84 70.99 105.42Q812-548.68 812-480v12q-14-8-28-14.5T755-494l33-38q-5-30-16-58.5T746-645L402-301q19 27 43 48.5t51 38.5q7 16 17 31.5t20 29.5q-13 3-25.86 4-12.87 1-27.14 1Zm-89.14-170L734-663q-16-23-35-41.5T657-739L348-431q5 30 16.5 59t26.36 54ZM344-455l295-294q-15-10-33-17t-36-13q-107 32-170.5 122T344-455Zm-176-25q0 133 94 224t228 88q11 0 21.5-.5T533-171q-91-39-149.5-121.5T325-480q0-105 59-188t150-122q-11-2-22-2.5t-22-.5q-134-3-228 88.5T168-480Zm408 200v-20h236v20H576ZM325-480Z"/></svg>