<svg xmlns="http://www.w3.org/2000/svg" height="40" width="40"><path d="m30.833 26.208-.541-.583V21.75H32.5v4.458Zm-2.375-2.375-2.083-2.083h2.083Zm5.834 2.375V21.75h2.25v4.458Zm.125 11.459L22.958 26.208H3.208V21.75H18.5L2.708 5.958l1.959-2 31.708 31.75Zm-4.125-17.709v-2.291q0-1.709-1-2.667-1-.958-2.417-.958h-2.833q-2.292 0-3.854-1.688-1.563-1.687-1.563-3.979 0-2.25 1.563-3.813Q21.75 3 24.042 3v2.208q-1.417 0-2.292.875-.875.875-.875 2.292 0 1.417.875 2.438.875 1.02 2.292 1.02h2.833q2.25 0 3.937 1.521 1.688 1.521 1.688 3.771v2.833Zm4 0v-4.041q0-3-2.021-5t-5.063-2V6.708q1.417 0 2.292-.979.875-.979.875-2.354h2.25q0 1.333-.5 2.333-.5 1-1.333 1.75 2.416.917 4.083 3.188 1.667 2.271 1.667 5.271v4.041Z"/></svg>