<svg xmlns="http://www.w3.org/2000/svg" height="20" viewBox="0 -960 960 960" width="20"><path d="M422.89-86.78q-120.09 0-206.79-86.71-86.71-86.71-86.71-206.79 0-115.7 72.25-194.71t176.75-95.03v6.95q8-68.34 59.4-115.25 51.41-46.9 120.75-46.9 39.83 0 75.91 17.13 36.07 17.13 61.27 48.96l88.15 109.45q12.63-7.93 26.95-5.8 14.31 2.13 23.38 13.7l79.52 100.08q11.39 14.96 9.79 34.36-1.6 19.41-16.55 30.8l-57 45q-14.96 11.39-34.08 9.29-19.12-2.1-30.51-17.05l-79.52-100.66q-8.5-12.56-7.6-27.38.9-14.81 12.84-23.94l-87.72-109.46q-12.24-15.24-28.7-23.36-16.45-8.12-36.13-8.12-31.6 0-55.88 20.27-24.27 20.28-31.27 49.88v-6.95q108 17.02 176.5 95.28t68.5 193.46q0 120.08-82.95 206.79-82.96 86.71-210.55 86.71Zm0-93q89.91 0 145.21-59.05 55.29-59.04 55.29-141.45 0-89.92-55.29-145.21-55.3-55.29-145.21-55.29-82.41 0-141.45 55.29-59.05 55.29-59.05 145.21 0 82.41 59.05 141.45 59.04 59.05 141.45 59.05Z"/></svg>