<svg xmlns="http://www.w3.org/2000/svg" height="40" width="40"><path d="M30.458 36.792Q29.833 36.792 29.354 36.25Q28.875 35.708 28.875 35.125V30.5Q28.875 29.917 29.333 29.438Q29.792 28.958 30.458 28.958H30.583V27.292Q30.583 26 31.438 25.125Q32.292 24.25 33.583 24.25Q34.917 24.25 35.792 25.125Q36.667 26 36.667 27.292V28.958H36.75Q37.375 28.958 37.854 29.438Q38.333 29.917 38.333 30.5V35.125Q38.333 35.708 37.854 36.25Q37.375 36.792 36.792 36.792ZM31.958 28.958H35.333V27.292Q35.333 26.542 34.812 26.062Q34.292 25.583 33.625 25.583Q32.917 25.583 32.438 26.062Q31.958 26.542 31.958 27.292ZM7.083 35.625 35.792 6.958V20.583H34.042Q30.375 20.583 27.812 23.167Q25.25 25.75 25.25 29.375V35.625Z"/></svg>