<svg xmlns="http://www.w3.org/2000/svg" height="48" viewBox="0 -960 960 960" width="48"><path d="M624.38-422.85q5.62-13.07 9.04-27.34 3.43-14.27 3.43-29.27 0-65.16-45.85-111-45.85-45.85-111-45.85-15 0-29.65 3.04-14.66 3.04-27.73 9.42l201.76 201Zm92.47 92.47-24.23-23.7q16.92-33.46 26.76-80.65 9.85-47.19 9.85-84.65v-176q0-6.93-4.23-13.47-4.23-6.53-11.92-9.61l-224.62-82.16q-3.84-2.3-8.46-2.3-4.62 0-8.46 2.3l-164.92 60.54-23.7-23.69 177.62-66.15q9.46-4 19.46-4t19.46 4L724.08-747q15.46 6.23 25.69 20.58Q760-712.08 760-694.62v175.24q0 44.38-10.38 91.34-10.39 46.96-32.77 97.66ZM480-125.54q-5.46 0-19.77-4.77-121.54-46.92-190.88-153.23Q200-389.85 200-519.38v-193l-74.77-74.77q-4.38-4.39-4.77-10.73-.38-6.35 4.77-11.5 4.39-5.16 10.73-5.16 6.35 0 11.5 5.16L812-144.85q4.38 4.39 4.27 10.73-.12 6.35-5.27 11.5-5.15 5.16-11 5.16t-10.23-5.16L663.85-247.31q-34.16 40.31-73.89 69.5-39.73 29.19-89.19 47.73-5 2-10.39 3.27-5.38 1.27-10.38 1.27Zm22.08-420.08Zm-65.77 70.31ZM480-154.54q46.62-14 91.65-47.96 45.04-33.96 70.97-67.04l-78.77-78.77q-19 12.08-39.77 18.89-20.77 6.8-44.08 6.8-65.15 0-111-46.23-45.85-46.23-45.85-110.61 0-23.54 6.81-44.69 6.81-21.16 18.12-39.39L230.77-681.62v162.24q0 124.61 70.31 227.26Q371.38-189.46 480-154.54Z"/></svg>