<svg xmlns="http://www.w3.org/2000/svg" height="20" width="20"><path d="M9.25 16.667H5.167Q4.812 16.667 4.552 16.406Q4.292 16.146 4.292 15.792V10.146H2.833Q2.521 10.146 2.406 9.865Q2.292 9.583 2.521 9.354L9.396 3.042Q9.646 2.812 9.99 2.823Q10.333 2.833 10.583 3.062L13.042 5.354V4.125Q13.042 3.771 13.302 3.51Q13.562 3.25 13.917 3.25H14.833Q15.188 3.25 15.448 3.51Q15.708 3.771 15.708 4.125V7.771L17.458 9.354Q17.688 9.583 17.573 9.865Q17.458 10.146 17.146 10.146H15.708V15.792Q15.708 16.146 15.448 16.406Q15.188 16.667 14.833 16.667H10.75V11.688Q10.75 11.688 10.75 11.688Q10.75 11.688 10.75 11.688H9.25Q9.25 11.688 9.25 11.688Q9.25 11.688 9.25 11.688ZM6.042 14.917H7.5V10.812Q7.5 10.458 7.76 10.198Q8.021 9.938 8.375 9.938H11.625Q11.979 9.938 12.24 10.198Q12.5 10.458 12.5 10.812V14.917H13.958V8.542L10 4.875L6.042 8.542ZM8.375 8.417H11.625Q11.625 7.771 11.146 7.344Q10.667 6.917 10 6.917Q9.333 6.917 8.854 7.344Q8.375 7.771 8.375 8.417ZM8.375 9.938H10H11.625H8.375Z"/></svg>