<svg xmlns="http://www.w3.org/2000/svg" height="20" width="20"><path d="M3.646 14.938q-.104 0-.208-.094-.105-.094-.105-.219 0-.104.105-.198.104-.094.208-.094h3.479q-.229-1.021-.708-1.614-.479-.594-1.229-1.281-.459-.417-.292-.709.166-.291.833-.229 1.709.208 2.99 1.406Q10 13.104 10 14.938Zm6.979 0q0-.25-.052-.553-.052-.302-.177-.656.542-1.25 1.531-2.135.99-.886 2.281-1.094.709-.083.938.188.229.27-.334.75-.666.583-1.166 1.229-.5.645-.771 1.666h3.5q.104 0 .198.094.094.094.094.198 0 .125-.094.219t-.198.094Zm-.354-1.834q-.479-1.896.26-3.521.74-1.625 2.24-2.479.646-.333.917-.073.27.261-.209.844-.562.708-.896 1.448-.333.739-.416 1.365-.605.333-1.219 1.062-.615.729-.677 1.354Zm-.688-.937q-.291-.417-.75-.834-.458-.416-.958-.645.083-.23.104-.542Q8 9.833 8 9.542q0-.667-.115-1.313-.114-.646-.323-1.208-.25-.625.167-.781.417-.157.854.302.542.541.896 1.291.354.75.521 1.729-.229.563-.333 1.292-.105.729-.084 1.313Z"/></svg>