<svg xmlns="http://www.w3.org/2000/svg" height="20" width="20"><path d="M16.5 14.208 15.833 13.542V11.458H14.104V11.833L13.438 11.167V10.792H15.833V9.188Q15.833 6.812 14.156 5.115Q12.479 3.417 10.062 3.417Q9.146 3.417 8.292 3.708Q7.438 4 6.75 4.479L6.292 3.979Q6.958 3.5 7.927 3.125Q8.896 2.75 10.062 2.75Q11.417 2.75 12.583 3.26Q13.75 3.771 14.625 4.646Q15.5 5.521 16 6.688Q16.5 7.854 16.5 9.188ZM17.75 18.75 16.042 17.042Q15.833 17.208 15.604 17.312Q15.375 17.417 15.167 17.417H10.083V16.75H15.146Q15.271 16.75 15.396 16.708Q15.521 16.667 15.625 16.562L14.625 15.562H13.438V14.438L5.146 6.146Q4.792 6.75 4.562 7.562Q4.333 8.375 4.333 9.167V10.792H6.729V15.562H5Q4.417 15.562 4.042 15.188Q3.667 14.812 3.667 14.229V9.167Q3.667 8.167 3.948 7.292Q4.229 6.417 4.688 5.667L1.458 2.438L1.917 1.958L18.25 18.271ZM5 14.896H6.062V11.458H4.333V14.229Q4.333 14.521 4.521 14.708Q4.708 14.896 5 14.896ZM15.833 13.542ZM6.062 14.896H5Q4.708 14.896 4.521 14.896Q4.333 14.896 4.333 14.896H6.062Z"/></svg>