<svg xmlns="http://www.w3.org/2000/svg" height="24" viewBox="0 -960 960 960" width="24"><path d="M198.08-100q-24.93 0-42.46-17.73-17.54-17.73-17.54-42.27h186q-91.31-43.54-151.54-130.96-60.23-87.42-60.23-201.73 0-76.31 29.04-143t78.8-116.65q49.77-49.97 116.66-78.81Q403.69-860 480-860t143.19 28.85q66.89 28.84 116.66 78.81 49.76 49.96 78.8 116.65t29.04 143q0 114.31-60.04 201.73Q727.61-203.54 635.92-160h186q0 24.54-17.54 42.27Q786.85-100 761.92-100H198.08ZM574-362.31q43.85 0 68.77-33.73 24.92-33.73 24.92-83.96t-25.42-83.96q-25.42-33.73-68.27-33.73-43.85 0-68.77 33.73-24.92 33.73-24.92 83.96t24.92 83.96q24.92 33.73 68.77 33.73Zm0-36q-27.15 0-41.5-22.92-14.35-22.92-14.35-58.77 0-30.54 13.5-56.12 13.5-25.57 42.35-25.57t42.35 25.57q13.5 25.58 13.5 56.12 0 35.85-14.35 58.77T574-398.31Zm-149.38 31q7.23 0 12.15-5.23t4.92-12.46q0-7.23-4.92-12.15-4.92-4.93-12.15-4.93h-80.54l-.62-1.23q8.85-8.84 17.54-17.04 8.69-8.19 16.15-15.77 7.46-7.57 14.31-13.92 6.85-6.34 12-11.5 18.23-18.23 26.85-35.84 8.61-17.62 8.61-35.62 0-27.46-21.11-46.08-21.12-18.61-52.81-18.61-24.46 0-44.69 13.84-20.23 13.85-27.62 35.31-.38.77-1.61 7.23 0 7.85 5.54 13.08Q302.15-523 310-523q6.23 0 10.96-3.54t6.73-9.77q4.39-11.38 14.27-18.38 9.89-7 22.04-7 14.54 0 25.19 9.07 10.66 9.08 10.66 21.62 0 11.77-4.89 21.35-4.88 9.57-17.65 22.96-7.54 7.54-22.5 22.42-14.96 14.89-37.5 37.42l-17.39 17.39q-1.61 1.61-5.61 12.46v11.62q0 7.23 5.42 12.65t12.65 5.42h112.24Z"/></svg>