<svg xmlns="http://www.w3.org/2000/svg" height="24" width="24"><path d="M18.675 8.05V6.05H16.675V5.15H18.675V3.15H19.6V5.15H21.575V6.05H19.6V8.05ZM3.45 20.85Q2.775 20.85 2.338 20.413Q1.9 19.975 1.9 19.325V8.65Q1.9 8.025 2.338 7.575Q2.775 7.125 3.45 7.125H6.4L8.225 5.15H14.3V6.05H8.625L6.8 8.05H3.45Q3.175 8.05 3 8.225Q2.825 8.4 2.825 8.65V19.325Q2.825 19.6 3 19.775Q3.175 19.95 3.45 19.95H18.05Q18.325 19.95 18.5 19.775Q18.675 19.6 18.675 19.325V10.45H19.6V19.325Q19.6 19.975 19.15 20.413Q18.7 20.85 18.05 20.85ZM10.75 17.625Q12.275 17.625 13.325 16.575Q14.375 15.525 14.375 13.975Q14.375 12.45 13.325 11.4Q12.275 10.35 10.75 10.35Q9.2 10.35 8.15 11.4Q7.1 12.45 7.1 14Q7.1 15.525 8.15 16.575Q9.2 17.625 10.75 17.625ZM10.75 16.7Q9.575 16.7 8.8 15.925Q8.025 15.15 8.025 13.975Q8.025 12.825 8.8 12.05Q9.575 11.275 10.75 11.275Q11.9 11.275 12.688 12.05Q13.475 12.825 13.475 14Q13.475 15.15 12.688 15.925Q11.9 16.7 10.75 16.7ZM10.75 13.975Q10.75 13.975 10.75 13.975Q10.75 13.975 10.75 13.975Q10.75 13.975 10.75 13.975Q10.75 13.975 10.75 13.975Q10.75 13.975 10.75 13.975Q10.75 13.975 10.75 13.975Z"/></svg>