<svg xmlns="http://www.w3.org/2000/svg" height="20" width="20"><path d="M9.458 11.792Q9.625 12.146 10 12.146Q10.375 12.146 10.542 11.792L11.521 9.521L13.771 8.542Q14.125 8.375 14.125 8Q14.125 7.625 13.771 7.458L11.521 6.479L10.542 4.25Q10.375 3.896 10 3.896Q9.625 3.896 9.458 4.25L8.479 6.479L6.229 7.458Q5.875 7.625 5.875 8Q5.875 8.375 6.229 8.542L8.479 9.521ZM1 16.5V3.042Q1 2.104 1.677 1.427Q2.354 0.75 3.292 0.75H16.708Q17.646 0.75 18.323 1.427Q19 2.104 19 3.042V13.042Q19 13.979 18.323 14.656Q17.646 15.333 16.708 15.333H4.875L2.938 17.271Q2.396 17.812 1.698 17.521Q1 17.229 1 16.5ZM3.292 13.667 3.917 13.042H16.708Q16.708 13.042 16.708 13.042Q16.708 13.042 16.708 13.042V3.042Q16.708 3.042 16.708 3.042Q16.708 3.042 16.708 3.042H3.292Q3.292 3.042 3.292 3.042Q3.292 3.042 3.292 3.042ZM3.292 3.042Q3.292 3.042 3.292 3.042Q3.292 3.042 3.292 3.042Q3.292 3.042 3.292 3.042Q3.292 3.042 3.292 3.042V13.042Q3.292 13.042 3.292 13.042Q3.292 13.042 3.292 13.042V13.667Z"/></svg>