<svg xmlns="http://www.w3.org/2000/svg" height="24" viewBox="0 -960 960 960" width="24"><path d="M267-252v-136h203q-2-7-3.98-12.25-1.97-5.26-4.02-11.75H347v-136h115q2.05-6.49 4.02-11.75Q468-565 470-572H92v-136h588q94.62 0 161.31 66.64Q908-574.71 908-480.16q0 94.55-66.69 161.36Q774.62-252 680-252H267Zm413.18-136q38.4 0 65.11-26.88Q772-441.77 772-480.18q0-38.4-26.68-65.11T680.53-572q-38.11 0-65.32 26.68Q588-518.64 588-480.53q0 38.11 26.88 65.32Q641.77-388 680.18-388ZM52-412v-136h255v136H52Zm40 160v-136h135v136H92Zm588-228Z"/></svg>