<svg xmlns="http://www.w3.org/2000/svg" height="48" width="48"><path d="M15.05 42.95V9.05h5.6V5.8h6.75v3.25H33v33.9Zm8.8-8.1q.45 0 .825-.35.375-.35.375-.8 0-.5-.375-.825-.375-.325-.825-.325-.45 0-.8.325-.35.325-.35.825 0 .5.35.825.35.325.8.325Zm-.7-5.4h1.45q0-1.35.65-2.25.65-.9 1.475-1.675.825-.775 1.475-1.65.65-.875.65-2.125 0-2.15-1.35-3.425t-3.65-1.275q-1.75 0-2.975.875T19.05 20.2l1.45.55q.35-1.05 1.225-1.65.875-.6 2.125-.6 1.8 0 2.65.925.85.925.85 2.275 0 1.1-.65 1.825-.65.725-1.475 1.5-.825.775-1.45 1.775-.625 1-.625 2.65Z"/></svg>