<svg xmlns="http://www.w3.org/2000/svg" height="40" viewBox="0 96 960 960" width="40"><path d="M140 936.333V816q0-41 19.959-71.535Q179.917 713.931 212 698q68-32.666 134.292-48.666t133.708-16q22.417 0 45.5 2.166 23.084 2.167 46.167 6.5v83.666q-23.416-4.571-46.167-6.452-22.75-1.881-45.5-1.881-57.667 0-114.5 13.333Q308.667 744 247.667 774 237 778.666 230.5 790.04 224 801.414 224 816v36.333h347.667v84H140Zm84-84H571.667 224Zm256-285q-72.975 0-120.487-47.512Q312 472.309 312 399.334t47.513-120.487Q407.025 231.334 480 231.334t120.487 47.513Q648 326.359 648 399.334t-47.513 120.487Q552.975 567.333 480 567.333Zm0-83.999q36 0 60-24t24-60q0-36-24-60t-60-24q-36 0-60 24t-24 60q0 36 24 60t60 24Zm0-84ZM718.334 1063V857.666h-80V613.667h245.332l-80 160h79.667L718.334 1063Z"/></svg>