<svg xmlns="http://www.w3.org/2000/svg" height="40" width="40"><path d="m6.875 13.708-1.75-3.458-3.458-1.708 3.458-1.75 1.75-3.459 1.708 3.459 3.459 1.75-3.459 1.708ZM32.292 35.75l-1.959-4.042-4.041-2 4.041-1.958 1.959-4.042 2 4.042 4.041 1.958-4.041 2Zm-11.459.917q-1.375 0-2.645-.584Q16.917 35.5 16 34.458L7.042 24.167l2.083-2.042q.75-.792 1.833-.896 1.084-.104 2 .479l3.167 2.167V9.708q0-1.25.896-2.145.896-.896 2.146-.896.291 0 .562.041.271.042.563.209v-.542q0-1.25.896-2.146.895-.896 2.145-.896.917 0 1.667.542t1.208 1.375q.292-.083.604-.167Q27.125 5 27.5 5q1.25 0 2.146.896.896.896.896 2.146v.541q.291-.166.562-.208.271-.042.563-.042 1.25 0 2.145.896.896.896.896 2.146v6.958h-1.916v-6.958q0-.458-.334-.771-.333-.312-.791-.312-.459 0-.792.312-.333.313-.333.771v8.917h-1.917V8.042q0-.459-.333-.771-.334-.313-.792-.313t-.792.313q-.333.312-.333.771v12.25h-1.917V6.375q0-.458-.333-.771-.333-.312-.792-.312-.458 0-.791.312-.334.313-.334.771v13.917h-1.916V9.708q0-.458-.334-.75-.333-.291-.791-.291-.459 0-.792.312-.333.313-.333.771V27.5l-6.209-4.083q-.333-.25-.708-.209-.375.042-.667.292l-.75.792 7.75 8.916q.667.75 1.521 1.125.854.375 1.854.375h7.459l.958 1.959Z"/></svg>