<svg xmlns="http://www.w3.org/2000/svg" height="20" width="20"><path d="M13.438 10.958 12.771 10.271Q12.667 10.146 12.656 10.01Q12.646 9.875 12.771 9.729L13.438 9.062Q13.667 8.833 13.865 8.885Q14.062 8.938 14.146 9.208Q14.188 9.396 14.219 9.604Q14.25 9.812 14.25 10Q14.25 10.208 14.208 10.396Q14.167 10.583 14.125 10.771Q14.042 11.021 13.844 11.104Q13.646 11.188 13.438 10.958ZM15.125 12.688Q15.042 12.625 15.021 12.521Q15 12.417 15.021 12.312Q15.292 11.75 15.448 11.167Q15.604 10.583 15.604 9.979Q15.604 9.375 15.448 8.792Q15.292 8.208 15.021 7.646Q14.979 7.562 15.01 7.448Q15.042 7.333 15.104 7.271Q15.312 7.083 15.552 7.115Q15.792 7.146 15.938 7.396Q16.208 8 16.375 8.656Q16.542 9.312 16.542 9.979Q16.542 10.646 16.406 11.302Q16.271 11.958 15.979 12.562Q15.812 12.833 15.573 12.854Q15.333 12.875 15.125 12.688ZM8.604 17.042Q8.396 17 8.26 16.812Q8.125 16.625 8.125 16.417V11.042L4.354 14.812Q4.229 14.938 4.073 14.938Q3.917 14.938 3.771 14.792Q3.625 14.646 3.625 14.479Q3.625 14.312 3.771 14.167L7.958 10L3.75 5.792Q3.604 5.667 3.615 5.5Q3.625 5.333 3.771 5.167Q3.917 5.021 4.073 5.021Q4.229 5.021 4.375 5.167L8.125 8.958V3.562Q8.125 3.354 8.271 3.177Q8.417 3 8.625 2.938Q8.833 2.896 9.062 2.958Q9.292 3.021 9.438 3.146L12.229 5.958Q12.333 6.062 12.406 6.188Q12.479 6.312 12.479 6.438Q12.479 6.583 12.406 6.708Q12.333 6.833 12.229 6.938L9.167 9.979L12.229 13.062Q12.333 13.146 12.406 13.281Q12.479 13.417 12.479 13.542Q12.479 13.667 12.406 13.802Q12.333 13.938 12.229 14.042L9.438 16.833Q9.292 16.979 9.052 17.042Q8.812 17.104 8.604 17.042ZM8.979 8.958 11.5 6.438 8.979 3.938ZM8.979 16.042 11.5 13.542 8.979 11.042Z"/></svg>