<svg xmlns="http://www.w3.org/2000/svg" height="48" viewBox="0 -960 960 960" width="48"><path d="M346-87.5q-19.25 0-32.625-13.175Q300-113.851 300-133.175q0-19.325 13.375-32.575Q326.75-179 346-179h268.735q18.515 0 31.89 13.425Q660-152.149 660-132.825q0 19.325-13.412 32.325-13.413 13-32.088 13H346Zm-48.5-163-39-554q-2.5-35.628 17.405-55.814T331.5-880.5h298q34.75 0 54.625 20.186T701.5-804.5l-38.5 554q-.75 18.338-14.046 30.669T617.286-207.5H343q-18.758 0-31.966-12.257-13.209-12.257-13.534-30.743Zm89.252-49.5h186.593L610-789H351l35.752 489Zm.011-489H351h259-223.237Z"/></svg>