<svg xmlns="http://www.w3.org/2000/svg" height="20" viewBox="0 -960 960 960" width="20"><path d="M366.783-104.5Q344-104.5 327-121.289q-17-16.79-17-39.5 0-22.711 16.838-39.711 16.839-17 39.622-17h226.757Q616-217.5 633-200.711q17 16.79 17 39.5 0 22.711-16.838 39.711-16.839 17-39.622 17H366.783Zm-60.283-233L263-748q-3.5-51 27.75-85T373-867h214q51 0 82.25 34T697-748l-43.09 410.512Q652-315.5 636.671-301.25T599.5-287h-239q-21.947 0-37.349-14.331Q307.75-315.662 306.5-337.5ZM413.422-400H546.5L584-754H376l37.422 354Zm-6.824-354H376h208-177.402Z"/></svg>