<svg xmlns="http://www.w3.org/2000/svg" height="48" width="48"><path d="M24 45.15Q24 41.2 25.525 37.725Q27.05 34.25 29.65 31.675Q32.25 29.1 35.725 27.575Q39.2 26.05 43.1 26.05Q43.1 29.95 41.575 33.425Q40.05 36.9 37.45 39.5Q34.85 42.1 31.4 43.625Q27.95 45.15 24 45.15ZM24 45.15Q24 41.2 22.475 37.725Q20.95 34.25 18.35 31.675Q15.75 29.1 12.3 27.575Q8.85 26.05 4.9 26.05Q4.9 29.95 6.425 33.425Q7.95 36.9 10.55 39.5Q13.15 42.1 16.625 43.625Q20.1 45.15 24 45.15ZM24 18.65Q25.55 18.65 26.6 17.55Q27.65 16.45 27.65 15Q27.65 13.5 26.6 12.425Q25.55 11.35 24 11.35Q22.55 11.35 21.45 12.425Q20.35 13.5 20.35 15Q20.35 16.45 21.45 17.55Q22.55 18.65 24 18.65ZM24 29.35Q22.1 29.35 20.5 28.2Q18.9 27.05 18.25 25.2Q17.9 25.2 17.525 25.225Q17.15 25.25 16.85 25.25Q14.3 25.25 12.525 23.45Q10.75 21.65 10.75 19.15Q10.75 18.1 11.175 17.05Q11.6 16 12.4 15.05Q11.65 14.05 11.225 13Q10.8 11.95 10.8 10.9Q10.8 8.35 12.575 6.55Q14.35 4.75 16.85 4.75Q17.2 4.75 17.55 4.775Q17.9 4.8 18.25 4.8Q18.9 2.95 20.5 1.8Q22.1 0.65 24 0.65Q25.9 0.65 27.5 1.8Q29.1 2.95 29.85 4.8Q30.15 4.8 30.475 4.775Q30.8 4.75 31.15 4.75Q33.65 4.75 35.45 6.55Q37.25 8.35 37.25 10.9Q37.25 11.95 36.825 13Q36.4 14.05 35.65 15Q36.35 16 36.8 17.05Q37.25 18.1 37.25 19.15Q37.25 21.65 35.45 23.45Q33.65 25.25 31.15 25.25Q30.8 25.25 30.475 25.225Q30.15 25.2 29.8 25.2Q29.1 27.05 27.525 28.2Q25.95 29.35 24 29.35Z"/></svg>