<svg xmlns="http://www.w3.org/2000/svg" height="24" width="24"><path d="M7.75 21.8q-1.4 0-2.362-.963-.963-.962-.963-2.362v-9.1q0-1.225.788-2.138Q6 6.325 7.2 6.15V4.475q0-.975.65-1.625t1.6-.65h5.1q.95 0 1.6.65.65.65.65 1.625V6.15q1.2.175 1.988 1.087.787.913.787 2.138v9.1q0 1.4-.962 2.362-.963.963-2.363.963Zm-1.675-8.7h11.85V9.375q0-.675-.487-1.175-.488-.5-1.188-.5h-8.5q-.7 0-1.188.5-.487.5-.487 1.175Zm1.675 7.025h8.5q.7 0 1.188-.488.487-.487.487-1.187v-3.7H6.075v3.7q0 .7.487 1.187.488.488 1.188.488ZM12 13.1Zm0 1.65Zm0-.825Zm1.1-7.875h2.05V4.475q0-.275-.175-.45t-.425-.175h-5.1q-.25 0-.425.175t-.175.45V6.05h2.05q0-.425.338-.763.337-.337.762-.337t.763.337q.337.338.337.763Z"/></svg>