<svg xmlns="http://www.w3.org/2000/svg" height="40" width="40"><path d="M28.833 35.375q-.875 0-1.479-.604-.604-.604-.604-1.521V20.417q0-.875.604-1.479.604-.605 1.479-.605h6q.875 0 1.479.605.605.604.605 1.479V33.25q0 .917-.605 1.521-.604.604-1.479.604Zm0-3.333h6V21.667h-6Zm-14.208 3.125q-.583 0-.958-.375t-.375-.959q0-.541.375-.916t.958-.375h2.542v-3.75H6.625q-1.458 0-2.5-1.042t-1.042-2.5V8.125q0-1.458 1.063-2.5 1.062-1.042 2.479-1.042h23.708q1.459 0 2.521 1.042 1.063 1.042 1.063 2.5V17h-5.084q-1.416 0-2.416 1t-1 2.417v8.375h-5.625v3.75h2.291q.584 0 .959.375t.375.916q0 .584-.375.959t-.959.375ZM16.5 21.375l1.958-1.542 1.959 1.542q.416.292.812.021.396-.271.271-.729L20.708 18l2.042-1.542q.375-.333.229-.77-.146-.438-.646-.438h-2.416l-.834-2.458q-.083-.209-.25-.334-.166-.125-.375-.125-.208 0-.375.125-.166.125-.25.334L17 15.25h-2.417q-.458 0-.604.438-.146.437.188.77L16.208 18l-.75 2.667q-.125.458.271.729.396.271.771-.021Z"/></svg>