<svg xmlns="http://www.w3.org/2000/svg" height="24" width="24"><path d="M5.65 20.5q-.925 0-1.537-.613-.613-.612-.613-1.537V5.65q0-.925.613-1.538Q4.725 3.5 5.65 3.5h12.7q.925 0 1.538.612.612.613.612 1.538v9.025L14.675 20.5Zm5.825-6.225q.275 0 .475-.2.2-.2.2-.475 0-.275-.2-.475-.2-.2-.475-.2h-2.8q-.275 0-.475.2-.2.2-.2.475 0 .275.2.475.2.2.475.2Zm3.85-4.6q.275 0 .475-.2.2-.2.2-.475 0-.275-.2-.475-.2-.2-.475-.2h-6.65q-.275 0-.475.2-.2.2-.2.475 0 .275.2.475.2.2.475.2ZM14.15 19.15l5-5H15.2q-.45 0-.75.3t-.3.75Z"/></svg>