<svg xmlns="http://www.w3.org/2000/svg" height="24" viewBox="0 -960 960 960" width="24"><path d="M299.23-215.39h361.54q-3.59-44.25-26.91-81.28-23.32-37.02-61.48-58.71l34.35-61.47q1.81-3.61.62-8.03-1.2-4.43-5.56-6.43-3.48-2-7.41-1-3.92 1-5.73 4.61l-35.34 63.08q-17.7-7.23-35.91-11.15-18.22-3.92-37.35-3.92-19.13 0-37.2 3.99-18.08 3.99-36.16 11.08l-35.15-63.07q-2-4.23-6.12-4.62-4.11-.38-8.34 1.62-.39 0-3.62 13.84L388-355.38q-38.04 21.67-61.59 58.7-23.55 37.04-27.18 81.29Zm99.62-54.23q-7.23 0-12.66-5.42-5.42-5.42-5.42-12.65t5.42-12.66q5.43-5.42 12.66-5.42t12.46 5.42q5.23 5.43 5.23 12.66t-5.31 12.65q-5.31 5.42-12.38 5.42Zm162.69 0q-7.23 0-12.66-5.42-5.42-5.42-5.42-12.65t5.42-12.66q5.43-5.42 12.66-5.42t12.65 5.42q5.42 5.43 5.42 12.66t-5.42 12.65q-5.42 5.42-12.65 5.42ZM180-100v-760h390l210 210v550H180Zm360-520v-180H240v640h480v-460H540ZM240-800v180-180 640-640Z"/></svg>