<svg xmlns="http://www.w3.org/2000/svg" height="40" viewBox="0 -960 960 960" width="40"><path d="M836.58-664.14H557.99v-32.44h278.59v32.44ZM350.69-163.6q-63.66 0-108-44.1-44.33-44.1-44.33-107.75 0-43.42 22.66-79.11 22.66-35.68 60.13-58.22v-275q0-29.3 19.97-49.21 19.96-19.91 49.35-19.91 29.4 0 49.77 19.91 20.36 19.91 20.36 49.21v275q37.09 22.54 59.31 58.44 22.22 35.91 23.49 78.33-.77 64.18-45.22 108.29-44.44 44.12-107.49 44.12Zm-37.1-404.18h74.58v-160q0-15.14-11.08-25.91-11.07-10.77-26.43-10.77-15.37 0-26.22 10.99t-10.85 25.69v160Z"/></svg>