<svg xmlns="http://www.w3.org/2000/svg" height="24" viewBox="0 -960 960 960" width="24"><path d="M299-237q-55 0-91.5-41T171-375v-339h116v349q0 6 3 9t9 3q6 0 9.5-3t3.5-9v-211q0-56 36.5-97t91.5-41q55 0 91.5 41t36.5 97v211q0 6 3 9t10 3q6 0 9-3t3-9v-251q0-57.83 40.08-97.92Q673.17-754 731-754h13l-19-19 81-82 159 159-159 158-81-82 17-18h-11q-9.95 0-15.97 6.03Q709-625.95 709-616v241q0 56-36.5 97T581-237q-55 0-92-41t-37-97v-211q0-6-3-9t-9-3q-6 0-9 3t-3 9v211q0 56-37 97t-92 41ZM131-61q-57 0-96.5-39.5T-5-197v-337h940v337q0 57-39.5 96.5T799-61H131Zm0-136h668v-201H131v201Zm668-201H131h668Z"/></svg>