<svg xmlns="http://www.w3.org/2000/svg" height="40" width="40"><path d="M12.042 29.542q-1.917 0-3.25-1.417-1.334-1.417-1.334-3.375V11.583h2.834v13.334q0 .75.5 1.271.5.52 1.25.52t1.27-.52q.521-.521.521-1.271v-8.5q0-1.959 1.334-3.396 1.333-1.438 3.25-1.438 1.958 0 3.291 1.438 1.334 1.437 1.334 3.396v8.5q0 .75.52 1.271.521.52 1.271.52.709 0 1.229-.52.521-.521.521-1.271v-10.25q0-1.959 1.375-3.354 1.375-1.396 3.375-1.396h3.042l-2.208-2.209 1.958-2 5.625 5.625-5.625 5.584-1.958-2 2.208-2.167h-3.042q-.791 0-1.354.562-.562.563-.562 1.355V24.75q0 1.958-1.334 3.375-1.333 1.417-3.291 1.417-1.917 0-3.25-1.417-1.334-1.417-1.334-3.375v-8.542q0-.75-.52-1.27-.521-.521-1.23-.521-.75 0-1.27.521-.521.52-.521 1.27v8.542q0 1.958-1.334 3.375-1.333 1.417-3.291 1.417ZM5.5 35.5q-1.417 0-2.375-.958-.958-.959-.958-2.375V19.5h35.708v12.667q0 1.416-.979 2.375-.979.958-2.354.958Zm0-2.792h29.042q.208 0 .354-.146.146-.145.146-.395v-9.834H4.958v9.834q0 .25.146.395.146.146.396.146Zm29.042-10.375h.5H4.958 5.5Z"/></svg>