<svg xmlns="http://www.w3.org/2000/svg" height="48" width="48"><path d="M25.75 29.9q-.75 0-1.2-.45-.45-.45-.45-1.2v-1.1q0-.45.325-.8.325-.35.775-.35.5 0 .85.35t.35.85v.4h5.25v-2.45h-6q-.65 0-1.1-.45-.45-.45-.45-1.15V19.7q0-.7.45-1.175.45-.475 1.2-.475h6.55q.7 0 1.175.475.475.475.475 1.175v1.1q0 .5-.35.85t-.8.35q-.5 0-.85-.35t-.35-.85v-.4h-5.2v2.4h5.95q.65 0 1.125.475t.475 1.125v3.85q0 .75-.475 1.2-.475.45-1.175.45Zm-12.25 0q-.65 0-1.025-.375-.375-.375-.375-1.025v-2.35q0-.5.325-.825Q12.75 25 13.2 25q.5 0 .85.325t.35.825v1.45h4.3v-8.4q0-.45.325-.8.325-.35.825-.35.5 0 .825.35.325.35.325.8v9.3q0 .65-.375 1.025-.375.375-1.025.375Z"/></svg>