<svg xmlns="http://www.w3.org/2000/svg" height="40" viewBox="0 -960 960 960" width="40"><path d="M480.106-678.152q-63.918 0-108.909 44.884-44.99 44.885-44.99 108.931 0 64.047 44.884 108.909 44.885 44.862 108.803 44.862t108.909-44.77q44.99-44.771 44.99-108.917 0-63.918-44.884-108.908-44.885-44.991-108.803-44.991ZM480-438.154q-37.308 0-61.756-24.306-24.449-24.306-24.449-61.899 0-37.308 24.449-61.756 24.448-24.449 61.756-24.449t61.756 24.449q24.449 24.448 24.449 61.884t-24.449 61.757q-24.448 24.32-61.756 24.32Zm167.425 166.923q16.847 0 28.839-11.879 11.992-11.879 11.992-28.597 0-16.718-11.879-28.839-11.879-12.12-28.725-12.12-16.847 0-28.839 12.007-11.992 12.007-11.992 28.597 0 16.847 11.879 28.839 11.878 11.992 28.725 11.992ZM160.002-167.284v-526.921q0-80.647 56.573-137.22 56.573-56.573 137.22-56.573h252.41q80.647 0 137.22 56.573 56.573 56.573 56.573 137.22v526.921q0 33.608-23.144 56.752-23.144 23.144-56.752 23.144H239.898q-33.608 0-56.752-23.144-23.144-23.144-23.144-56.752Zm103.177 12.308h434.052q14.951 0 25.065-10.051 10.114-10.052 10.114-24.911 0-15.143-10.114-25.474t-25.065-10.331H262.769q-14.951 0-25.065 10.15-10.114 10.151-10.114 24.934 0 15.066 10.232 25.375 10.231 10.308 25.357 10.308Z"/></svg>