<svg xmlns="http://www.w3.org/2000/svg" height="48" viewBox="0 -960 960 960" width="48"><path d="M173.62-366.15H244q13.13 0 22.1-8.98 8.98-8.97 8.98-22.1v-196.62h-39.16v187.77h-48.46V-460h-44.92v62.77q0 13.13 8.97 22.1 8.98 8.98 22.11 8.98Zm173.07 0h76.76q10.97 0 19.92-8.25 8.94-8.25 8.94-19.83v-76.31q0-10.27-7.85-17.63-7.84-7.37-18.15-7.37h-62.77v-58.38H407v35.07h45.31v-46.92q0-11.58-8.73-19.83-8.73-8.25-20.35-8.25h-76.76q-12.35 0-20.6 8.25-8.25 8.25-8.25 19.83v76.31q0 10.27 7.15 17.63 7.15 7.37 18.85 7.37H407v58.38h-43.46v-35.07h-45.92v46.92q0 11.58 8.03 19.83 8.04 8.25 21.04 8.25Zm194.08-36.93v-154.23h46.31v154.23h-46.31Zm-13.08 39.16h72.85q13.07 0 22.46-9.39 9.38-9.39 9.38-22.46v-168.46q0-13.07-9.38-22.46-9.39-9.39-22.46-9.39h-72.85q-13.45 0-22.65 9.39-9.19 9.39-9.19 22.46v168.46q0 13.07 9.19 22.46 9.2 9.39 22.65 9.39Zm148.23 0h39.69v-136.7l59.47 136.7h43.53v-232.16h-39.69v133.31l-59.46-133.31h-43.54v232.16ZM113.69-168q-28.34 0-49.51-21.18Q43-210.35 43-238.69v-482.62q0-28.34 21.18-49.51Q85.35-792 113.69-792h732.62q28.95 0 49.82 21.18Q917-749.65 917-721.31v482.62q0 28.34-20.87 49.51Q875.26-168 846.31-168H113.69Z"/></svg>