<svg xmlns="http://www.w3.org/2000/svg" height="20" width="20"><path d="M5.458 10.542Q5.229 10.542 5.073 10.385Q4.917 10.229 4.917 10Q4.917 9.771 5.073 9.615Q5.229 9.458 5.458 9.458Q5.688 9.458 5.844 9.615Q6 9.771 6 10Q6 10.229 5.844 10.385Q5.688 10.542 5.458 10.542ZM10 10.542Q9.771 10.542 9.615 10.385Q9.458 10.229 9.458 10Q9.458 9.771 9.615 9.615Q9.771 9.458 10 9.458Q10.229 9.458 10.385 9.615Q10.542 9.771 10.542 10Q10.542 10.229 10.385 10.385Q10.229 10.542 10 10.542ZM14.542 10.542Q14.312 10.542 14.156 10.385Q14 10.229 14 10Q14 9.771 14.156 9.615Q14.312 9.458 14.542 9.458Q14.771 9.458 14.927 9.615Q15.083 9.771 15.083 10Q15.083 10.229 14.927 10.385Q14.771 10.542 14.542 10.542Z"/></svg>