<svg xmlns="http://www.w3.org/2000/svg" height="48" width="48"><path d="M11.7 38.3H36.3V32H11.7ZM11.7 30.9H36.3V24.6H11.7ZM11.7 23.5H36.3V20.05L32.6 17.2H15.45L11.7 20.05ZM16.9 16.1H31.15L24 10.65ZM10.6 39.4V20.85L6.45 24.05L5.8 23.2L10.6 19.5V14.5H11.7V18.6L24 9.25L42.2 23.2L41.55 24.05L37.4 20.85V39.4ZM10.6 12Q10.6 10.45 11.55 9.35Q12.5 8.25 14.45 8.25Q15.95 8.25 16.575 7.475Q17.2 6.7 17.2 5.6H18.3Q18.3 7.15 17.375 8.25Q16.45 9.35 14.45 9.35Q12.95 9.35 12.325 10.125Q11.7 10.9 11.7 12Z"/></svg>