<svg xmlns="http://www.w3.org/2000/svg" height="40" width="40"><path d="m32.333 26.292-3.541-3.542-1 1-7.042-7.083h14.667l3.25 3.25ZM11.667 25.25q2.083 0 3.479-1.333 1.396-1.334 1.687-3.042l-.937-.958q-.938-.959-2.063-2.084l-2.062-2.062-.938-.938q-1.791.25-3.104 1.688Q6.417 17.958 6.417 20q0 2.208 1.52 3.729 1.521 1.521 3.73 1.521Zm22.25 12.667-13.25-13.25q-1.334 2.75-3.792 4.166-2.458 1.417-5.208 1.417-4.25 0-7.25-3t-3-7.25q0-2.75 1.395-5.188 1.396-2.437 4.105-3.895L2.125 6.125l2.083-2.042L36 35.833Z"/></svg>