<svg xmlns="http://www.w3.org/2000/svg" height="48" width="48"><path d="M8.45 24.7Q7.65 24.7 7.05 24.1Q6.45 23.5 6.45 22.7Q6.45 21.9 7.05 21.3Q7.65 20.7 8.45 20.7Q9.25 20.7 9.85 21.3Q10.45 21.9 10.45 22.7Q10.45 23.5 9.85 24.1Q9.25 24.7 8.45 24.7ZM8.15 43.5Q7.5 43.5 7.1 43.1Q6.7 42.7 6.7 42.05V35H5.65Q5.35 35 5.125 34.8Q4.9 34.6 4.9 34.3V27.2Q4.9 26.75 5.275 26.475Q5.65 26.2 6.2 26.2H10.75Q11.25 26.2 11.625 26.475Q12 26.75 12 27.2V34.3Q12 34.6 11.775 34.8Q11.55 35 11.25 35H10.25V41.25H29.15V28.55H24.7Q21.8 28.55 19.75 26.6Q17.7 24.65 17.7 21.85Q17.7 19.7 19.05 17.75Q20.4 15.8 22.8 14.95Q23 11.55 25.25 9.475Q27.5 7.4 30.4 7.4Q33.25 7.4 35.5 9.475Q37.75 11.55 38 14.95Q40.35 15.8 41.725 17.75Q43.1 19.7 43.1 21.85Q43.1 24.65 41.025 26.6Q38.95 28.55 36 28.55H31.4V41.25H40.65Q41.15 41.25 41.475 41.575Q41.8 41.9 41.8 42.4Q41.8 42.85 41.475 43.175Q41.15 43.5 40.65 43.5Z"/></svg>