<svg xmlns="http://www.w3.org/2000/svg" height="40" viewBox="0 -960 960 960" width="40"><path d="M611.67-93.67q-82 0-147.92-46.91-65.92-46.92-93.08-123.59-2.17-3.83-1.25-7.66.91-3.84 4.16-7.5 3.25-3.67 7-5 3.74-1.34 7.92-1.34h291.33q2.06-14.9 3.12-32.23 1.05-17.34 1.05-34.85 0-13.67-1-28.63-1-14.95-3.55-31.29h-51.62q-5.26 0-8.21-3.59-2.95-3.6-2.95-8.15 0-4.56 2.95-7.99 2.95-3.43 8.21-3.43h199q-18.74-45.75-53.78-79.54-35.05-33.8-81.22-51.96-6-.67-8.91-4.84-2.92-4.16-1.34-9.16 1.59-5 5.34-7.84 3.75-2.83 8.75-1.66 77 27.33 123.83 93.75 46.83 66.41 46.83 148.25 0 106.32-74.21 180.74-74.22 74.42-180.45 74.42Zm-31.34-26q-21.5-33.98-35.36-69.78-13.86-35.79-20.27-73.05H397q23.67 56.83 72.14 95.13 48.46 38.29 111.19 47.7Zm30.97 3.5q25.03-35 40.72-70.99 15.68-36 23.15-75.34H547.33q6.67 34.86 22.59 73.1 15.91 38.23 41.38 73.23Zm30.87-3.5q62.16-9.33 111.41-47.66 49.25-38.34 73.75-95.17h-128.8q-7.53 38.37-21.2 73.7-13.66 35.32-35.16 69.13Zm61-166h131.89q4.11-14.66 6.11-30.6 2-15.94 2-32.89 0-16.76-2.01-32.42t-6.44-31.09H703.17q2 15.61 2.99 30.68 1 15.07 1 29.94 0 16.4-1 33.2-.99 16.79-2.99 33.18Zm-353.96-70.5q-106.64 0-181.09-74.67-74.45-74.68-74.45-181.06 0-105.93 74.47-180.18t180.85-74.25q106.34 0 180.84 74.21 74.5 74.22 74.5 180.53 0 106.02-74.24 180.72-74.25 74.7-180.88 74.7Zm-.05-23.16q95.84 0 163.92-68.17 68.09-68.18 68.09-164.35 0-95.15-68.18-163.23-68.17-68.09-164.35-68.09-95.69 0-163.75 68.28t-68.06 163.86q0 95.58 68.25 163.64 68.25 68.06 164.08 68.06Zm-93.24-264.84q9 0 16.04-6.49 7.04-6.5 7.04-17.3 0-10.37-7.19-16.87-7.18-6.5-16.48-6.5-10.5 0-17 6.58t-6.5 16.8q0 10.78 6.48 17.28 6.47 6.5 17.61 6.5Zm93.21 160.84q35.44 0 66.13-15.06 30.7-15.05 51.91-40.78l-236.34-1q20.88 26.73 51.87 41.78 30.99 15.06 66.43 15.06Zm94.37-160.84q8.5 0 16.08-6.49 7.59-6.5 7.59-17.3 0-10.37-7.67-16.87-7.67-6.5-16.83-6.5-10 0-16.34 6.63-6.33 6.63-6.33 16.91 0 10.48 6.31 17.05t17.19 6.57Zm-94.67 32.5Z"/></svg>