<svg xmlns="http://www.w3.org/2000/svg" height="48" width="48"><path d="M12.85 37.4Q9.4 37.4 7 34.975Q4.6 32.55 4.6 29.1Q4.6 25.7 7.1 23.225Q9.6 20.75 12.8 20.8Q13.2 16.45 16.425 13.525Q19.65 10.6 24.05 10.6Q28.75 10.6 31.975 13.925Q35.2 17.25 35.2 21.95V24.95H36.8Q39.55 24.8 41.475 26.6Q43.4 28.4 43.4 31.15Q43.4 33.75 41.625 35.575Q39.85 37.4 37.25 37.4H26.15Q25 37.4 24.225 36.625Q23.45 35.85 23.45 34.7V21.95L19 26.4Q18.85 26.55 18.625 26.55Q18.4 26.55 18.25 26.35Q18.1 26.2 18.1 25.95Q18.1 25.7 18.25 25.55L23.05 20.8Q23.25 20.6 23.5 20.475Q23.75 20.35 24 20.35Q24.3 20.35 24.525 20.475Q24.75 20.6 24.95 20.8L29.75 25.6Q29.9 25.75 29.925 25.975Q29.95 26.2 29.8 26.35Q29.6 26.55 29.35 26.525Q29.1 26.5 28.95 26.3L24.55 21.95V34.7Q24.55 35.3 25.05 35.8Q25.55 36.3 26.15 36.3H37.15Q39.3 36.3 40.8 34.8Q42.3 33.3 42.3 31.15Q42.3 29.05 40.8 27.55Q39.3 26.05 37.15 26.05H34.1V21.95Q34.1 17.75 31.15 14.725Q28.2 11.7 24 11.7Q19.75 11.7 16.775 14.725Q13.8 17.75 13.8 21.95H12.7Q9.9 21.95 7.8 24.05Q5.7 26.15 5.7 29.15Q5.7 32.1 7.8 34.2Q9.9 36.3 12.85 36.3H17.9Q18.15 36.3 18.3 36.45Q18.45 36.6 18.45 36.85Q18.45 37.1 18.3 37.25Q18.15 37.4 17.9 37.4ZM24 24.55Q24 24.55 24 24.55Q24 24.55 24 24.55Q24 24.55 24 24.55Q24 24.55 24 24.55Q24 24.55 24 24.55Q24 24.55 24 24.55Q24 24.55 24 24.55Q24 24.55 24 24.55Q24 24.55 24 24.55Q24 24.55 24 24.55Q24 24.55 24 24.55Q24 24.55 24 24.55Q24 24.55 24 24.55Q24 24.55 24 24.55Q24 24.55 24 24.55Q24 24.55 24 24.55Q24 24.55 24 24.55Q24 24.55 24 24.55Q24 24.55 24 24.55Q24 24.55 24 24.55Q24 24.55 24 24.55Q24 24.55 24 24.55Z"/></svg>