<svg xmlns="http://www.w3.org/2000/svg" version="1.1" width="3300" height="2000"><g id="Notes"><style>
    text {
      font-family: monospace;
      text-anchor: middle;
    }
    text.emphasis {
      font-weight:bold;
    }
    text.lanchor {
      text-anchor: start;
    }
  </style><rect height="2200" id="artboard" fill="white" width="3300" x="0" y="0"/><line id="" style="fill:none;stroke:black;stroke-width:0.5;" x1="263" x2="3036" y1="292" y2="292"/><text class="lanchor emphasis" transform="matrix(1 0 0 1 263 322)">Weight/Scale Variations</text><text transform="matrix(1 0 0 1 559.711 322)">Ultralight</text><text transform="matrix(1 0 0 1 856.422 322)">Thin</text><text transform="matrix(1 0 0 1 1153.13 322)">Light</text><text transform="matrix(1 0 0 1 1449.84 322)">Regular</text><text transform="matrix(1 0 0 1 1746.56 322)">Medium</text><text transform="matrix(1 0 0 1 2043.27 322)">Semibold</text><text transform="matrix(1 0 0 1 2339.98 322)">Bold</text><text transform="matrix(1 0 0 1 2636.69 322)">Heavy</text><text transform="matrix(1 0 0 1 2933.4 322)">Black</text><text id="template-version" style="text-anchor: end;" transform="matrix(1 0 0 1 3036 1933)">Template v.1.0</text><text class="lanchor" transform="matrix(1 0 0 1 263 726)">Small</text><text class="lanchor" transform="matrix(1 0 0 1 263 1156)">Medium</text><text class="lanchor" transform="matrix(1 0 0 1 263 1586)">Large</text></g><g id="Guides"><g id="H-reference" style="fill:#27AAE1;stroke:none;" transform="matrix(1 0 0 1 339 696)"><path d="M 54.9316 0 L 57.666 0 L 30.5664 -70.459 L 28.0762 -70.459 L 0.976562 0 L 3.66211 0 L 12.9395 -24.4629 L 45.7031 -24.4629 Z M 29.1992 -67.0898 L 29.4434 -67.0898 L 44.8242 -26.709 L 13.8184 -26.709 Z"/></g><line id="Baseline-S" style="fill:none;stroke:#27AAE1;opacity:1;stroke-width:0.577;" x1="263" x2="3036" y1="696" y2="696"/><line id="Capline-S" style="fill:none;stroke:#27AAE1;opacity:1;stroke-width:0.577;" x1="263" x2="3036" y1="625.541" y2="625.541"/><g id="H-reference" style="fill:#27AAE1;stroke:none;" transform="matrix(1 0 0 1 339 1126)"><path d="M 54.9316 0 L 57.666 0 L 30.5664 -70.459 L 28.0762 -70.459 L 0.976562 0 L 3.66211 0 L 12.9395 -24.4629 L 45.7031 -24.4629 Z M 29.1992 -67.0898 L 29.4434 -67.0898 L 44.8242 -26.709 L 13.8184 -26.709 Z"/></g><line id="Baseline-M" style="fill:none;stroke:#27AAE1;opacity:1;stroke-width:0.577;" x1="263" x2="3036" y1="1126" y2="1126"/><line id="Capline-M" style="fill:none;stroke:#27AAE1;opacity:1;stroke-width:0.577;" x1="263" x2="3036" y1="1055.54" y2="1055.54"/><g id="H-reference" style="fill:#27AAE1;stroke:none;" transform="matrix(1 0 0 1 339 1556)"><path d="M 54.9316 0 L 57.666 0 L 30.5664 -70.459 L 28.0762 -70.459 L 0.976562 0 L 3.66211 0 L 12.9395 -24.4629 L 45.7031 -24.4629 Z M 29.1992 -67.0898 L 29.4434 -67.0898 L 44.8242 -26.709 L 13.8184 -26.709 Z"/></g><line id="Baseline-L" style="fill:none;stroke:#27AAE1;opacity:1;stroke-width:0.577;" x1="263" x2="3036" y1="1556" y2="1556"/><line id="Capline-L" style="fill:none;stroke:#27AAE1;opacity:1;stroke-width:0.577;" x1="263" x2="3036" y1="1485.54" y2="1485.54"/><rect height="119.336" id="left-margin" style="fill:darkred;stroke:none;opacity:0.4;" width="12.4512" x="1394.06" y="1030.79"/><rect height="119.336" id="right-margin" style="fill:darkgreen;stroke:none;opacity:0.4;" width="12.4512" x="1502.5112" y="1030.79"/><rect x="1406.5112" y="1045" width="96" height="96" fill="none" stroke="blue" stroke-dasharray="5"/><rect x="1394.06" y="1030.79" width="120.9024" height="119.336" fill="none" stroke="blue"/></g><g id="Symbols"><g id="Bold-L" transform="matrix(1 0 0 1 2266 1556)"><path d="M27.735 34.269 Q21.446 34.269 17.254 30.157 Q13.061 26.045 13.061 19.434 H44.183 Q27.574 9.598 19.269 -5.076 Q10.965 -19.75 10.965 -37.189 Q10.965 -50.799 16.286 -62.849 Q21.608 -74.897 30.718 -83.927 Q39.829 -92.957 51.727 -98.359 Q63.628 -103.761 77.366 -103.761 Q91.106 -103.761 103.039 -98.359 Q114.971 -92.957 124.082 -83.927 Q133.192 -74.897 138.594 -62.871 Q143.996 -50.844 143.996 -37.128 Q143.996 -19.75 135.611 -5.076 Q127.226 9.598 110.618 19.434 H142.061 Q142.061 26.045 137.708 30.157 Q133.354 34.269 127.226 34.269 H27.735 Z M77.4 14.274 Q98.685 14.274 114.004 -0.803 Q129.322 -15.88 129.322 -37.246 Q129.322 -58.45 114.004 -73.688 Q98.685 -88.926 77.4 -88.926 Q56.115 -88.926 40.958 -73.688 Q25.8 -58.45 25.8 -37.246 Q25.8 -15.88 40.958 -0.803 Q56.115 14.274 77.4 14.274 Z M94.572 -12.332 Q103.25 -12.332 107.821 -19.105 Q112.391 -25.877 112.391 -35.23 Q112.391 -44.582 107.699 -51.436 Q103.006 -58.289 94.407 -58.289 Q85.564 -58.289 81.159 -51.436 Q76.755 -44.582 76.755 -35.23 Q76.755 -25.877 81.206 -19.105 Q85.656 -12.332 94.572 -12.332 Z M94.439 -19.911 Q90.3 -19.911 87.317 -23.188 Q84.334 -26.463 84.334 -35.182 Q84.334 -43.292 86.962 -47.001 Q89.592 -50.71 94.38 -50.71 Q99.008 -50.71 101.91 -47.04 Q104.812 -43.372 104.812 -35.253 Q104.812 -26.522 101.696 -23.217 Q98.577 -19.911 94.439 -19.911 Z M67.725 -13.3 Q68.802 -13.3 70.118 -14.429 Q71.434 -15.557 71.434 -17.17 Q71.434 -18.221 70.126 -19.519 Q68.818 -20.817 67.751 -20.817 H53.695 L53.535 -21.201 Q53.656 -21 52.63 -20.129 Q51.603 -19.258 51.682 -19.263 Q51.761 -19.266 53.938 -21.121 Q56.115 -22.975 63.049 -28.619 Q67.49 -32.742 69.3 -36.127 Q71.111 -39.51 71.111 -44.265 Q71.111 -49.83 66.972 -54.059 Q62.833 -58.289 57.194 -58.289 Q51.515 -58.289 47.399 -55.289 Q43.284 -52.29 40.796 -47.18 Q40.312 -46.213 40.635 -45.75 Q40.635 -44.162 41.683 -43.083 Q42.731 -42.002 44.2 -42.002 Q45.379 -42.002 46.416 -42.638 Q47.453 -43.273 47.73 -44.512 Q49.02 -47.324 51.368 -49.017 Q53.716 -50.71 57.018 -50.71 Q60.308 -50.71 62.162 -49.052 Q64.016 -47.395 64.016 -44.376 Q64.016 -40.712 61.92 -37.81 Q59.824 -34.907 54.18 -29.909 Q55.849 -31.387 53.645 -29.681 Q51.439 -27.974 44.828 -22.975 L42.731 -21.506 Q42.248 -21.201 41.441 -18.621 V-16.847 Q41.441 -15.203 42.57 -14.251 Q43.699 -13.3 45.311 -13.3 H67.725 Z"/></g><g id="Semibold-L" transform="matrix(1 0 0 1 1970.27 1556)"><path d="M29.557 33.217 Q23.9 33.217 20.022 29.386 Q16.146 25.555 16.146 19.714 H46.425 Q29.817 10.649 20.951 -4.27 Q12.087 -19.189 12.087 -37.059 Q12.087 -50.479 17.268 -62.338 Q22.449 -74.196 31.384 -83.086 Q40.319 -91.975 52.079 -97.237 Q63.837 -102.499 77.366 -102.499 Q90.897 -102.499 102.689 -97.237 Q114.481 -91.975 123.416 -83.086 Q132.351 -74.196 137.612 -62.36 Q142.874 -50.525 142.874 -36.996 Q142.874 -19.189 133.929 -4.27 Q124.983 10.649 108.375 19.714 H138.907 Q138.907 25.555 134.903 29.386 Q130.9 33.217 125.404 33.217 H29.557 Z M77.4 14.695 Q98.895 14.695 114.18 -0.418 Q129.463 -15.53 129.463 -37.07 Q129.463 -58.519 114.18 -73.757 Q98.895 -88.996 77.4 -88.996 Q55.905 -88.996 40.748 -73.757 Q25.59 -58.519 25.59 -37.07 Q25.59 -15.53 40.748 -0.418 Q55.905 14.695 77.4 14.695 Z M95.033 -12.192 Q103.671 -12.192 108.136 -18.895 Q112.601 -25.597 112.601 -35.23 Q112.601 -44.863 108.015 -51.611 Q103.429 -58.358 94.897 -58.358 Q86.151 -58.358 81.804 -51.611 Q77.456 -44.863 77.456 -35.23 Q77.456 -25.597 81.841 -18.895 Q86.227 -12.192 95.033 -12.192 Z M94.952 -18.86 Q90.416 -18.86 87.27 -22.59 Q84.124 -26.318 84.124 -35.18 Q84.124 -43.152 86.856 -47.422 Q89.589 -51.692 94.87 -51.692 Q100.059 -51.692 102.997 -47.464 Q105.935 -43.234 105.935 -35.254 Q105.935 -26.382 102.747 -22.62 Q99.559 -18.86 94.952 -18.86 Z M67.725 -13.231 Q68.733 -13.231 69.873 -14.226 Q71.013 -15.22 71.013 -16.609 Q71.013 -17.591 69.881 -18.713 Q68.747 -19.835 67.751 -19.835 H51.81 L51.642 -20.29 Q52.201 -20.527 51.426 -19.902 Q50.649 -19.276 50.855 -19.411 Q51.06 -19.547 53.272 -21.437 Q55.485 -23.325 62.278 -28.899 Q66.793 -33.047 68.707 -36.586 Q70.621 -40.126 70.621 -44.826 Q70.621 -50.283 66.516 -54.32 Q62.412 -58.358 56.705 -58.358 Q51.165 -58.358 47.083 -55.499 Q43.004 -52.639 40.727 -47.664 Q40.382 -46.975 40.566 -46.369 Q40.566 -44.976 41.474 -44.015 Q42.381 -43.054 43.663 -43.054 Q44.705 -43.054 45.622 -43.618 Q46.54 -44.184 46.819 -45.282 Q48.109 -48.235 50.6 -49.963 Q53.09 -51.692 56.52 -51.692 Q60.098 -51.692 62.162 -49.852 Q64.226 -48.012 64.226 -44.824 Q64.226 -41.203 62.27 -38.371 Q60.314 -35.538 54.951 -30.75 Q56.596 -32.216 54.122 -30.201 Q51.648 -28.183 44.897 -22.835 L42.396 -20.89 Q42.038 -20.64 41.232 -18.271 V-16.498 Q41.232 -15.021 42.268 -14.126 Q43.307 -13.231 44.75 -13.231 H67.725 Z"/></g><g id="Medium-L" transform="matrix(1 0 0 1 1674.31 1556)"><path d="M30.925 32.429 Q25.74 32.429 22.099 28.807 Q18.46 25.186 18.46 19.924 H48.109 Q31.5 11.437 22.214 -3.665 Q12.927 -18.768 12.927 -36.96 Q12.927 -50.241 18.004 -61.956 Q23.08 -73.67 31.884 -82.455 Q40.688 -91.24 52.342 -96.397 Q63.995 -101.552 77.366 -101.552 Q90.739 -101.552 102.426 -96.397 Q114.112 -91.24 122.916 -82.455 Q131.72 -73.67 136.877 -61.978 Q142.034 -50.286 142.034 -36.897 Q142.034 -18.768 132.667 -3.665 Q123.3 11.437 106.691 19.924 H136.54 Q136.54 25.186 132.801 28.807 Q129.06 32.429 124.037 32.429 H30.925 Z M77.4 15.011 Q99.053 15.011 114.31 -0.129 Q129.568 -15.267 129.568 -36.939 Q129.568 -58.573 114.31 -73.811 Q99.053 -89.049 77.4 -89.049 Q55.747 -89.049 40.59 -73.811 Q25.432 -58.573 25.432 -36.939 Q25.432 -15.267 40.59 -0.129 Q55.747 15.011 77.4 15.011 Z M95.378 -12.087 Q103.987 -12.087 108.373 -18.737 Q112.759 -25.387 112.759 -35.23 Q112.759 -45.073 108.254 -51.742 Q103.747 -58.411 95.265 -58.411 Q86.591 -58.411 82.286 -51.742 Q77.982 -45.073 77.982 -35.23 Q77.982 -25.387 82.318 -18.737 Q86.656 -12.087 95.378 -12.087 Z M95.339 -18.071 Q90.505 -18.071 87.235 -22.14 Q83.966 -26.21 83.966 -35.178 Q83.966 -43.047 86.777 -47.738 Q89.586 -52.427 95.236 -52.427 Q100.847 -52.427 103.811 -47.78 Q106.775 -43.133 106.775 -35.256 Q106.775 -26.277 103.535 -22.174 Q100.296 -18.071 95.339 -18.071 Z M67.725 -13.177 Q68.68 -13.177 69.689 -14.072 Q70.697 -14.969 70.697 -16.188 Q70.697 -17.118 69.697 -18.108 Q68.696 -19.1 67.751 -19.1 H50.397 L50.223 -19.606 Q51.11 -20.171 50.521 -19.731 Q49.933 -19.289 50.233 -19.523 Q50.534 -19.756 52.772 -21.672 Q55.01 -23.588 61.699 -29.109 Q66.269 -33.274 68.26 -36.931 Q70.252 -40.587 70.252 -45.247 Q70.252 -50.621 66.174 -54.517 Q62.096 -58.411 56.338 -58.411 Q50.902 -58.411 46.848 -55.656 Q42.794 -52.9 40.674 -48.025 Q40.435 -47.549 40.512 -46.832 Q40.512 -45.585 41.315 -44.715 Q42.118 -43.842 43.26 -43.842 Q44.199 -43.842 45.027 -44.355 Q45.856 -44.868 46.135 -45.861 Q47.425 -48.919 50.023 -50.673 Q52.622 -52.427 56.146 -52.427 Q59.94 -52.427 62.162 -50.452 Q64.384 -48.477 64.384 -45.163 Q64.384 -41.572 62.533 -38.792 Q60.683 -36.012 55.53 -31.381 Q57.155 -32.839 54.482 -30.591 Q51.806 -28.341 44.95 -22.73 L42.144 -20.429 Q41.88 -20.219 41.074 -18.008 V-16.235 Q41.074 -14.883 42.043 -14.03 Q43.012 -13.177 44.329 -13.177 H67.725 Z"/></g><g id="Regular-L" transform="matrix(1 0 0 1 1378.56 1556)"><path d="M31.928 31.85 Q27.09 31.85 23.623 28.383 Q20.156 24.916 20.156 20.079 H49.343 Q32.734 12.016 23.139 -3.222 Q13.545 -18.46 13.545 -36.888 Q13.545 -50.065 18.544 -61.675 Q23.543 -73.285 32.25 -81.992 Q40.958 -90.7 52.534 -95.779 Q64.111 -100.859 77.366 -100.859 Q90.623 -100.859 102.233 -95.779 Q113.843 -90.7 122.55 -81.992 Q131.257 -73.285 136.337 -61.698 Q141.416 -50.11 141.416 -36.826 Q141.416 -18.46 131.741 -3.222 Q122.066 12.016 105.457 20.079 H134.805 Q134.805 24.916 131.257 28.383 Q127.71 31.85 123.034 31.85 H31.928 Z M77.4 15.241 Q99.169 15.241 114.407 0.084 Q129.645 -15.074 129.645 -36.842 Q129.645 -58.611 114.407 -73.849 Q99.169 -89.087 77.4 -89.087 Q55.631 -89.087 40.474 -73.849 Q25.316 -58.611 25.316 -36.842 Q25.316 -15.074 40.474 0.084 Q55.631 15.241 77.4 15.241 Z M95.631 -12.01 Q104.217 -12.01 108.547 -18.621 Q112.875 -25.232 112.875 -35.23 Q112.875 -45.227 108.428 -51.839 Q103.98 -58.45 95.536 -58.45 Q86.914 -58.45 82.641 -51.839 Q78.368 -45.227 78.368 -35.23 Q78.368 -25.232 82.668 -18.621 Q86.97 -12.01 95.631 -12.01 Z M95.621 -17.492 Q90.569 -17.492 87.209 -21.811 Q83.85 -26.129 83.85 -35.177 Q83.85 -42.97 86.717 -47.969 Q89.584 -52.967 95.505 -52.967 Q101.426 -52.967 104.409 -48.012 Q107.392 -43.059 107.392 -35.257 Q107.392 -26.2 104.114 -21.846 Q100.834 -17.492 95.621 -17.492 Z M67.725 -13.139 Q68.641 -13.139 69.554 -13.961 Q70.466 -14.783 70.466 -15.88 Q70.466 -16.77 69.562 -17.665 Q68.657 -18.56 67.751 -18.56 H49.36 L49.181 -19.105 Q50.31 -19.911 49.858 -19.605 Q49.407 -19.298 49.778 -19.605 Q50.149 -19.911 52.406 -21.846 Q54.664 -23.781 61.275 -29.264 Q65.885 -33.442 67.935 -37.184 Q69.983 -40.925 69.983 -45.555 Q69.983 -50.871 65.924 -54.661 Q61.864 -58.45 56.07 -58.45 Q50.708 -58.45 46.674 -55.772 Q42.639 -53.092 40.635 -48.291 Q40.474 -47.969 40.474 -47.172 Q40.474 -46.034 41.199 -45.227 Q41.925 -44.421 42.965 -44.421 Q43.826 -44.421 44.59 -44.895 Q45.356 -45.369 45.634 -46.285 Q46.924 -49.42 49.601 -51.194 Q52.279 -52.967 55.872 -52.967 Q59.824 -52.967 62.162 -50.892 Q64.5 -48.817 64.5 -45.41 Q64.5 -41.841 62.726 -39.1 Q60.953 -36.359 55.954 -31.844 Q57.566 -33.295 54.744 -30.876 Q51.922 -28.457 44.989 -22.652 L41.959 -20.09 Q41.764 -19.911 40.958 -17.815 V-16.041 Q40.958 -14.783 41.877 -13.961 Q42.796 -13.139 44.021 -13.139 H67.725 Z"/></g><g id="Light-L" transform="matrix(1 0 0 1 1082.77 1556)"><path d="M31.989 29.059 Q28.172 29.059 25.374 26.243 Q22.575 23.428 22.575 19.645 H50.521 Q35.028 12.202 25.279 -2.261 Q15.53 -16.723 15.53 -35.709 Q15.53 -48.52 20.374 -59.755 Q25.218 -70.99 33.645 -79.387 Q42.073 -87.785 53.264 -92.709 Q64.455 -97.634 77.366 -97.634 Q90.277 -97.634 101.502 -92.709 Q112.727 -87.785 121.155 -79.387 Q129.582 -70.99 134.507 -59.777 Q139.431 -48.565 139.431 -35.648 Q139.431 -16.723 129.632 -2.261 Q119.833 12.202 104.279 19.645 H132.386 Q132.386 23.428 129.506 26.243 Q126.628 29.059 122.972 29.059 H31.989 Z M77.4 16.792 Q99.417 16.792 114.716 1.572 Q130.017 -13.647 130.017 -35.664 Q130.017 -57.681 114.716 -72.95 Q99.417 -88.218 77.4 -88.218 Q55.383 -88.218 40.164 -72.95 Q24.944 -57.681 24.944 -35.664 Q24.944 -13.647 40.164 1.572 Q55.383 16.792 77.4 16.792 Z M95.252 -12.879 Q103.474 -12.879 107.741 -19.242 Q112.006 -25.605 112.006 -35.23 Q112.006 -44.855 107.631 -51.218 Q103.255 -57.581 95.171 -57.581 Q86.914 -57.581 82.641 -51.218 Q78.368 -44.855 78.368 -35.23 Q78.368 -25.605 82.66 -19.242 Q86.954 -12.879 95.252 -12.879 Z M95.249 -18.05 Q90.073 -18.05 86.775 -22.245 Q83.478 -26.44 83.478 -35.177 Q83.478 -43.031 86.499 -47.72 Q89.523 -52.41 95.133 -52.41 Q100.744 -52.41 103.851 -47.766 Q106.959 -43.12 106.959 -35.257 Q106.959 -26.51 103.742 -22.28 Q100.525 -18.05 95.249 -18.05 Z M67.664 -14.008 Q68.51 -14.008 69.396 -14.78 Q70.281 -15.553 70.281 -16.562 Q70.281 -17.446 69.404 -18.283 Q68.526 -19.118 67.688 -19.118 H49.609 L49.491 -19.477 Q50.62 -20.345 50.728 -20.535 Q50.834 -20.726 51.576 -21.372 Q52.319 -22.02 54.464 -23.867 Q56.607 -25.713 61.833 -30.194 Q65.885 -34 67.78 -37.525 Q69.673 -41.05 69.673 -45.369 Q69.673 -50.313 65.737 -53.948 Q61.802 -57.581 56.297 -57.581 Q51.453 -57.581 47.604 -55.057 Q43.755 -52.534 41.875 -48.23 Q41.714 -47.907 41.777 -47.172 Q41.777 -46.095 42.449 -45.352 Q43.12 -44.607 44.081 -44.607 Q44.86 -44.607 45.635 -45.019 Q46.409 -45.431 46.625 -46.285 Q47.793 -49.11 50.284 -50.76 Q52.776 -52.41 56.139 -52.41 Q59.901 -52.41 62.263 -50.396 Q64.624 -48.382 64.624 -45.098 Q64.624 -41.848 63.036 -39.321 Q61.449 -36.793 57.132 -32.835 Q57.752 -33.356 54.93 -30.876 Q52.108 -28.396 46.229 -23.397 L43.138 -20.648 Q42.942 -20.532 42.136 -18.497 V-16.786 Q42.136 -15.59 43.025 -14.798 Q43.912 -14.008 45.137 -14.008 H67.664 Z"/></g><g id="Thin-L" transform="matrix(1 0 0 1 787.282 1556)"><path d="M32.052 26.268 Q29.254 26.268 27.124 24.104 Q24.994 21.94 24.994 19.211 H51.7 Q37.323 12.389 27.419 -1.3 Q17.515 -14.987 17.515 -34.53 Q17.515 -46.974 22.203 -57.836 Q26.892 -68.696 35.041 -76.783 Q43.191 -84.871 53.995 -89.639 Q64.8 -94.409 77.366 -94.409 Q89.934 -94.409 100.772 -89.639 Q111.609 -84.871 119.759 -76.783 Q127.908 -68.696 132.678 -57.858 Q137.446 -47.019 137.446 -34.469 Q137.446 -14.987 127.525 -1.3 Q117.601 12.389 103.1 19.211 H129.968 Q129.968 21.94 127.757 24.104 Q125.546 26.268 122.91 26.268 H32.052 Z M77.4 18.342 Q99.665 18.342 115.028 3.06 Q130.39 -12.221 130.39 -34.485 Q130.39 -56.75 115.028 -72.051 Q99.665 -87.351 77.4 -87.351 Q55.135 -87.351 39.853 -72.051 Q24.571 -56.75 24.571 -34.485 Q24.571 -12.221 39.853 3.06 Q55.135 18.342 77.4 18.342 Z M94.871 -13.747 Q102.729 -13.747 106.935 -19.861 Q111.138 -25.977 111.138 -35.23 Q111.138 -44.483 106.835 -50.599 Q102.531 -56.713 94.807 -56.713 Q86.914 -56.713 82.641 -50.599 Q78.368 -44.483 78.368 -35.23 Q78.368 -25.977 82.654 -19.861 Q86.938 -13.747 94.871 -13.747 Z M94.876 -18.608 Q89.576 -18.608 86.341 -22.68 Q83.105 -26.75 83.105 -35.177 Q83.105 -43.094 86.283 -47.472 Q89.46 -51.852 94.762 -51.852 Q100.062 -51.852 103.294 -47.517 Q106.525 -43.183 106.525 -35.257 Q106.525 -26.821 103.369 -22.714 Q100.215 -18.608 94.876 -18.608 Z M67.601 -14.875 Q68.38 -14.875 69.238 -15.598 Q70.094 -16.322 70.094 -17.244 Q70.094 -18.121 69.244 -18.899 Q68.396 -19.676 67.627 -19.676 H49.857 L49.802 -19.85 Q50.931 -20.779 51.595 -21.466 Q52.26 -22.151 53.375 -23.139 Q54.49 -24.128 56.52 -25.886 Q58.55 -27.645 62.391 -31.125 Q65.885 -34.558 67.623 -37.866 Q69.362 -41.174 69.362 -45.182 Q69.362 -49.755 65.551 -53.234 Q61.739 -56.713 56.525 -56.713 Q52.197 -56.713 48.535 -54.345 Q44.871 -51.976 43.115 -48.167 Q42.954 -47.845 43.078 -47.172 Q43.078 -46.158 43.697 -45.476 Q44.316 -44.794 45.197 -44.794 Q45.893 -44.794 46.679 -45.144 Q47.464 -45.492 47.619 -46.285 Q48.66 -48.799 50.966 -50.326 Q53.271 -51.852 56.408 -51.852 Q59.98 -51.852 62.363 -49.899 Q64.748 -47.948 64.748 -44.789 Q64.748 -41.854 63.347 -39.54 Q61.944 -37.226 58.311 -33.829 Q57.939 -33.419 55.117 -30.876 Q52.295 -28.333 47.469 -24.141 L44.316 -21.206 Q44.121 -21.151 43.315 -19.179 V-17.53 Q43.315 -16.396 44.171 -15.635 Q45.029 -14.875 46.255 -14.875 H67.601 Z"/></g><g id="Ultralight-L" transform="matrix(1 0 0 1 491.205 1556)"><path d="M32.089 24.594 Q29.904 24.594 28.175 22.82 Q26.445 21.046 26.445 18.95 H52.406 Q38.7 12.5 28.703 -0.722 Q18.705 -13.945 18.705 -33.824 Q18.705 -46.047 23.301 -56.683 Q27.896 -67.319 35.878 -75.22 Q43.86 -83.121 54.433 -87.797 Q65.006 -92.474 77.366 -92.474 Q89.728 -92.474 100.333 -87.797 Q110.94 -83.121 118.922 -75.22 Q126.904 -67.319 131.58 -56.705 Q136.256 -46.092 136.256 -33.763 Q136.256 -13.945 126.259 -0.722 Q116.261 12.5 102.394 18.95 H128.516 Q128.516 21.046 126.707 22.82 Q124.896 24.594 122.873 24.594 H32.089 Z M77.4 19.273 Q99.814 19.273 115.213 3.954 Q130.613 -11.365 130.613 -33.779 Q130.613 -56.192 115.213 -71.511 Q99.814 -86.83 77.4 -86.83 Q54.986 -86.83 39.668 -71.511 Q24.349 -56.192 24.349 -33.779 Q24.349 -11.365 39.668 3.954 Q54.986 19.273 77.4 19.273 Z M94.644 -14.267 Q102.282 -14.267 106.451 -20.234 Q110.618 -26.2 110.618 -35.23 Q110.618 -44.26 106.357 -50.226 Q102.097 -56.192 94.589 -56.192 Q86.914 -56.192 82.641 -50.226 Q78.368 -44.26 78.368 -35.23 Q78.368 -26.2 82.649 -20.234 Q86.928 -14.267 94.644 -14.267 Z M94.654 -18.944 Q89.279 -18.944 86.08 -22.94 Q82.883 -26.935 82.883 -35.177 Q82.883 -43.131 86.153 -47.324 Q89.423 -51.516 94.538 -51.516 Q99.653 -51.516 102.958 -47.367 Q106.264 -43.22 106.264 -35.257 Q106.264 -27.006 103.147 -22.975 Q100.028 -18.944 94.654 -18.944 Z M67.564 -15.396 Q68.302 -15.396 69.142 -16.09 Q69.983 -16.783 69.983 -17.654 Q69.983 -18.528 69.15 -19.269 Q68.317 -20.011 67.59 -20.011 H50.005 L49.988 -20.072 Q51.116 -21.04 52.116 -22.024 Q53.116 -23.007 54.454 -24.2 Q55.793 -25.394 57.755 -27.098 Q59.716 -28.803 62.726 -31.682 Q65.885 -34.893 67.532 -38.071 Q69.176 -41.248 69.176 -45.071 Q69.176 -49.42 65.44 -52.806 Q61.702 -56.192 56.66 -56.192 Q52.643 -56.192 49.093 -53.917 Q45.542 -51.64 43.86 -48.13 Q43.699 -47.807 43.86 -47.172 Q43.86 -46.195 44.447 -45.55 Q45.032 -44.905 45.868 -44.905 Q46.514 -44.905 47.306 -45.218 Q48.098 -45.531 48.214 -46.285 Q49.181 -48.614 51.374 -50.065 Q53.569 -51.516 56.568 -51.516 Q60.027 -51.516 62.425 -49.602 Q64.823 -47.688 64.823 -44.603 Q64.823 -41.857 63.532 -39.672 Q62.242 -37.487 59.017 -34.424 Q58.05 -33.456 55.228 -30.876 Q52.406 -28.296 48.214 -24.587 L45.023 -21.541 Q44.828 -21.524 44.021 -19.589 V-17.976 Q44.021 -16.88 44.86 -16.138 Q45.698 -15.396 46.924 -15.396 H67.564 Z"/></g><g id="Bold-M" transform="matrix(1 0 0 1 2281.8 1126)"><path d="M22.625 25.27 Q15.75 25.27 10.688 20.27 Q5.625 15.27 5.625 8.27 H25.375 Q16 -0.105 10.438 -10.417 Q4.875 -20.73 4.875 -35.011 Q4.875 -46.299 9.25 -56.39 Q13.625 -66.48 21.125 -73.98 Q28.625 -81.48 38.599 -85.792 Q48.574 -90.105 59.974 -90.105 Q71.375 -90.105 81.375 -85.792 Q91.375 -81.48 98.875 -73.98 Q106.375 -66.48 110.75 -56.407 Q115.125 -46.334 115.125 -34.964 Q115.125 -20.73 109.562 -10.417 Q104 -0.105 94.625 8.27 H114.375 Q114.375 15.27 109.312 20.27 Q104.25 25.27 97.375 25.27 H22.625 Z M60 2.895 Q76 2.895 87.062 -8.105 Q98.125 -19.105 98.125 -35.042 Q98.125 -50.98 87.062 -62.042 Q76 -73.105 60 -73.105 Q44 -73.105 32.938 -62.042 Q21.875 -50.98 21.875 -35.042 Q21.875 -19.105 32.938 -8.105 Q44 2.895 60 2.895 Z M73.436 -16.855 Q80.5 -16.855 84.75 -22.292 Q89 -27.73 89 -35.23 Q89 -42.73 84.665 -48.167 Q80.329 -53.605 73.368 -53.605 Q66.329 -53.605 62.164 -48.167 Q58 -42.73 58 -35.23 Q58 -27.73 62.186 -22.292 Q66.373 -16.855 73.436 -16.855 Z M73.375 -25.355 Q70.375 -25.355 68.688 -27.959 Q67 -30.561 67 -35.247 Q67 -39.23 68.475 -42.167 Q69.951 -45.105 73.35 -45.105 Q76.75 -45.105 78.312 -42.17 Q79.875 -39.235 79.875 -35.269 Q79.875 -30.605 78.188 -27.98 Q76.5 -25.355 73.375 -25.355 Z M51.375 -17.48 Q52.96 -17.48 54.167 -18.742 Q55.375 -20.005 55.375 -21.73 Q55.375 -23.295 54.174 -24.489 Q52.972 -25.682 51.395 -25.682 H44.385 L44.375 -25.855 Q44.844 -26.324 45.549 -27.024 Q46.252 -27.724 47.001 -28.477 Q47.75 -29.23 48.562 -30.042 Q49.375 -30.855 50.125 -31.48 Q52.818 -34.426 54.034 -36.925 Q55.25 -39.422 55.25 -42.109 Q55.25 -47.047 51.854 -50.326 Q48.458 -53.605 43.377 -53.605 Q39.125 -53.605 35.651 -51.03 Q32.179 -48.455 30.625 -44.369 Q30.375 -43.744 30.375 -42.826 Q30.375 -41.029 31.625 -39.755 Q32.875 -38.48 34.669 -38.48 Q36.079 -38.48 37.289 -39.417 Q38.5 -40.355 38.875 -41.8 Q39.375 -43.23 40.583 -44.23 Q41.791 -45.23 43.261 -45.23 Q44.75 -45.23 45.625 -44.336 Q46.5 -43.441 46.5 -42.086 Q46.5 -40.23 45.438 -38.542 Q44.375 -36.855 41.875 -34.605 Q41.169 -33.751 39.835 -32.616 Q38.5 -31.48 34.25 -27.605 L32.639 -26.119 Q32.125 -25.73 31.25 -22.98 V-21.73 Q31.25 -19.955 32.55 -18.717 Q33.85 -17.48 35.625 -17.48 H51.375 Z"/></g><g id="Semibold-M" transform="matrix(1 0 0 1 1985.97 1126)"><path d="M24.364 23.585 Q18.304 23.585 13.649 18.966 Q8.994 14.346 8.994 8.216 H28.31 Q18.718 0.71 12.557 -9.874 Q6.396 -20.459 6.396 -35.127 Q6.396 -46.16 10.609 -55.966 Q14.82 -65.774 22.104 -73.056 Q29.386 -80.339 39.115 -84.515 Q48.845 -88.692 59.974 -88.692 Q71.104 -88.692 80.859 -84.515 Q90.614 -80.339 97.896 -73.056 Q105.18 -65.774 109.391 -55.985 Q113.604 -46.195 113.604 -35.08 Q113.604 -20.459 107.442 -9.874 Q101.282 0.71 91.69 8.216 H111.006 Q111.006 14.346 106.351 18.966 Q101.696 23.585 95.636 23.585 H24.364 Z M60 3.004 Q76.162 3.004 87.199 -7.996 Q98.234 -18.996 98.234 -35.124 Q98.234 -51.251 87.199 -62.287 Q76.162 -73.322 60 -73.322 Q43.837 -73.322 32.801 -62.287 Q21.766 -51.251 21.766 -35.124 Q21.766 -18.996 32.801 -7.996 Q43.837 3.004 60 3.004 Z M73.739 -17.017 Q80.662 -17.017 84.722 -22.32 Q88.782 -27.621 88.782 -35.23 Q88.782 -42.839 84.639 -48.14 Q80.494 -53.442 73.692 -53.442 Q66.784 -53.442 62.773 -48.14 Q58.761 -42.839 58.761 -35.23 Q58.761 -27.621 62.788 -22.32 Q66.815 -17.017 73.739 -17.017 Z M73.719 -24.485 Q70.302 -24.485 68.489 -27.495 Q66.674 -30.504 66.674 -35.245 Q66.674 -39.067 68.23 -42.521 Q69.785 -45.975 73.675 -45.975 Q77.565 -45.975 79.155 -42.525 Q80.745 -39.075 80.745 -35.27 Q80.745 -30.551 78.975 -27.517 Q77.206 -24.485 73.719 -24.485 Z M51.538 -17.697 Q52.96 -17.697 54.005 -18.802 Q55.049 -19.907 55.049 -21.404 Q55.049 -22.806 54.01 -23.836 Q52.972 -24.867 51.557 -24.867 H42.761 L42.69 -25.094 Q43.608 -26.011 44.56 -26.929 Q45.513 -27.846 46.36 -28.729 Q47.206 -29.61 48.046 -30.422 Q48.886 -31.235 49.528 -31.806 Q52.278 -34.716 53.546 -37.309 Q54.815 -39.9 54.815 -42.597 Q54.815 -47.29 51.5 -50.366 Q48.185 -53.442 43.108 -53.442 Q39.016 -53.442 35.679 -51.002 Q32.341 -48.562 31.005 -44.744 Q30.864 -44.39 30.755 -43.36 Q30.755 -41.769 31.843 -40.64 Q32.929 -39.512 34.524 -39.512 Q35.773 -39.512 36.865 -40.341 Q37.956 -41.17 38.278 -42.451 Q38.778 -43.991 40.096 -45.017 Q41.415 -46.045 42.984 -46.045 Q44.696 -46.045 45.788 -44.982 Q46.88 -43.921 46.88 -42.434 Q46.88 -40.665 45.981 -39.112 Q45.081 -37.561 42.907 -35.475 Q42.182 -34.611 40.612 -33.155 Q39.044 -31.697 34.685 -27.551 L32.704 -25.64 Q32.288 -25.295 31.468 -22.817 V-21.567 Q31.468 -19.976 32.642 -18.837 Q33.818 -17.697 35.407 -17.697 H51.538 Z"/></g><g id="Medium-M" transform="matrix(1 0 0 1 1689.91 1126)"><path d="M25.669 22.321 Q20.22 22.321 15.871 17.988 Q11.521 13.654 11.521 8.175 H30.511 Q20.755 1.321 14.146 -9.466 Q7.537 -20.255 7.537 -35.214 Q7.537 -46.056 11.627 -55.65 Q15.717 -65.244 22.837 -72.364 Q29.956 -79.482 39.502 -83.557 Q49.049 -87.632 59.974 -87.632 Q70.9 -87.632 80.471 -83.557 Q90.044 -79.482 97.162 -72.364 Q104.282 -65.244 108.373 -55.667 Q112.463 -46.091 112.463 -35.166 Q112.463 -20.255 105.854 -9.466 Q99.245 1.321 89.489 8.175 H108.479 Q108.479 13.654 104.129 17.988 Q99.78 22.321 94.331 22.321 H25.669 Z M60 3.085 Q76.285 3.085 87.3 -7.915 Q98.315 -18.915 98.315 -35.185 Q98.315 -51.455 87.3 -62.47 Q76.285 -73.485 60 -73.485 Q43.715 -73.485 32.7 -62.47 Q21.685 -51.455 21.685 -35.185 Q21.685 -18.915 32.7 -7.915 Q43.715 3.085 60 3.085 Z M73.966 -17.14 Q80.785 -17.14 84.703 -22.34 Q88.62 -27.54 88.62 -35.23 Q88.62 -42.92 84.619 -48.12 Q80.619 -53.32 73.938 -53.32 Q67.125 -53.32 63.227 -48.12 Q59.331 -42.92 59.331 -35.23 Q59.331 -27.54 63.24 -22.34 Q67.147 -17.14 73.966 -17.14 Z M73.978 -23.834 Q70.249 -23.834 68.339 -27.146 Q66.429 -30.46 66.429 -35.244 Q66.429 -38.945 68.045 -42.786 Q69.661 -46.626 73.919 -46.626 Q78.176 -46.626 79.786 -42.791 Q81.396 -38.955 81.396 -35.271 Q81.396 -30.51 79.566 -27.171 Q77.736 -23.834 73.978 -23.834 Z M51.66 -17.86 Q52.96 -17.86 53.883 -18.847 Q54.804 -19.834 54.804 -21.159 Q54.804 -22.44 53.889 -23.347 Q52.972 -24.256 51.68 -24.256 H41.544 L41.426 -24.524 Q42.68 -25.777 43.819 -26.857 Q44.958 -27.937 45.877 -28.916 Q46.799 -29.896 47.659 -30.709 Q48.519 -31.521 49.079 -32.051 Q51.871 -34.934 53.18 -37.596 Q54.489 -40.257 54.489 -42.965 Q54.489 -47.471 51.235 -50.396 Q47.981 -53.32 42.905 -53.32 Q38.935 -53.32 35.699 -50.981 Q32.464 -48.642 31.291 -45.024 Q31.231 -44.875 31.041 -43.76 Q31.041 -42.324 32.005 -41.305 Q32.97 -40.287 34.416 -40.287 Q35.544 -40.287 36.546 -41.034 Q37.549 -41.781 37.829 -42.941 Q38.329 -44.561 39.731 -45.609 Q41.134 -46.656 42.775 -46.656 Q44.655 -46.656 45.91 -45.469 Q47.166 -44.28 47.166 -42.695 Q47.166 -40.991 46.389 -39.541 Q45.611 -38.091 43.682 -36.126 Q42.943 -35.256 41.196 -33.559 Q39.451 -31.86 35.011 -27.51 L32.754 -25.282 Q32.41 -24.969 31.63 -22.695 V-21.445 Q31.63 -19.992 32.711 -18.926 Q33.792 -17.86 35.245 -17.86 H51.66 Z"/></g><g id="Regular-M" transform="matrix(1 0 0 1 1394.06 1126)"><path d="M26.625 21.395 Q21.625 21.395 17.5 17.27 Q13.375 13.145 13.375 8.145 H32.125 Q22.25 1.77 15.312 -9.167 Q8.375 -20.105 8.375 -35.277 Q8.375 -45.98 12.375 -55.417 Q16.375 -64.855 23.375 -71.855 Q30.375 -78.855 39.786 -82.855 Q49.199 -86.855 59.974 -86.855 Q70.75 -86.855 80.188 -82.855 Q89.625 -78.855 96.625 -71.855 Q103.625 -64.855 107.625 -55.435 Q111.625 -46.015 111.625 -35.23 Q111.625 -20.105 104.688 -9.167 Q97.75 1.77 87.875 8.145 H106.625 Q106.625 13.145 102.5 17.27 Q98.375 21.395 93.375 21.395 H26.625 Z M60 3.145 Q76.375 3.145 87.375 -7.855 Q98.375 -18.855 98.375 -35.23 Q98.375 -51.605 87.375 -62.605 Q76.375 -73.605 60 -73.605 Q43.625 -73.605 32.625 -62.605 Q21.625 -51.605 21.625 -35.23 Q21.625 -18.855 32.625 -7.855 Q43.625 3.145 60 3.145 Z M74.132 -17.23 Q80.875 -17.23 84.688 -22.355 Q88.5 -27.48 88.5 -35.23 Q88.5 -42.98 84.605 -48.105 Q80.709 -53.23 74.118 -53.23 Q67.375 -53.23 63.562 -48.105 Q59.75 -42.98 59.75 -35.23 Q59.75 -27.48 63.57 -22.355 Q67.391 -17.23 74.132 -17.23 Z M74.166 -23.355 Q70.209 -23.355 68.229 -26.891 Q66.25 -30.427 66.25 -35.244 Q66.25 -38.855 67.91 -42.98 Q69.57 -47.105 74.097 -47.105 Q78.625 -47.105 80.25 -42.986 Q81.875 -38.867 81.875 -35.272 Q81.875 -30.48 80 -26.917 Q78.125 -23.355 74.166 -23.355 Z M51.75 -17.98 Q52.96 -17.98 53.792 -18.88 Q54.625 -19.78 54.625 -20.98 Q54.625 -22.17 53.799 -22.989 Q52.972 -23.807 51.77 -23.807 H40.65 L40.5 -24.105 Q42 -25.605 43.275 -26.805 Q44.55 -28.005 45.525 -29.055 Q46.5 -30.105 47.375 -30.917 Q48.25 -31.73 48.75 -32.23 Q51.574 -35.094 52.913 -37.807 Q54.25 -40.52 54.25 -43.234 Q54.25 -47.605 51.041 -50.417 Q47.831 -53.23 42.756 -53.23 Q38.875 -53.23 35.714 -50.966 Q32.554 -48.701 31.5 -45.23 Q31.5 -45.23 31.25 -44.054 Q31.25 -42.73 32.125 -41.792 Q33 -40.855 34.336 -40.855 Q35.375 -40.855 36.312 -41.542 Q37.25 -42.23 37.5 -43.3 Q38 -44.98 39.464 -46.042 Q40.928 -47.105 42.623 -47.105 Q44.625 -47.105 46 -45.825 Q47.375 -44.544 47.375 -42.887 Q47.375 -41.23 46.688 -39.855 Q46 -38.48 44.25 -36.605 Q43.5 -35.73 41.625 -33.855 Q39.75 -31.98 35.25 -27.48 L32.79 -25.02 Q32.5 -24.73 31.75 -22.605 V-21.355 Q31.75 -20.005 32.763 -18.992 Q33.775 -17.98 35.125 -17.98 H51.75 Z"/></g><g id="Light-M" transform="matrix(1 0 0 1 1098.18 1126)"><path d="M26.385 18.895 Q22.416 18.895 19.025 15.491 Q15.635 12.088 15.635 8.145 H33.76 Q24.221 2.203 17.067 -8.35 Q9.914 -18.902 9.914 -34.364 Q9.914 -44.734 13.794 -53.881 Q17.674 -63.027 24.456 -69.835 Q31.24 -76.644 40.377 -80.499 Q49.514 -84.355 59.974 -84.355 Q70.435 -84.355 79.597 -80.499 Q88.76 -76.644 95.544 -69.835 Q102.326 -63.027 106.206 -53.899 Q110.086 -44.769 110.086 -34.316 Q110.086 -18.902 102.956 -8.35 Q95.826 2.203 86.24 8.145 H104.365 Q104.365 12.088 100.975 15.491 Q97.584 18.895 93.615 18.895 H26.385 Z M60 5.02 Q76.808 5.02 88.073 -6.244 Q99.336 -17.509 99.336 -34.316 Q99.336 -51.124 88.073 -62.365 Q76.808 -73.605 60 -73.605 Q43.193 -73.605 31.927 -62.365 Q20.664 -51.124 20.664 -34.316 Q20.664 -17.509 31.927 -6.244 Q43.193 5.02 60 5.02 Z M74.126 -17.519 Q80.731 -17.519 84.471 -22.547 Q88.211 -27.576 88.211 -35.23 Q88.211 -42.884 84.396 -47.912 Q80.58 -52.941 74.124 -52.941 Q67.519 -52.941 63.779 -47.912 Q60.039 -42.884 60.039 -35.23 Q60.039 -27.576 63.781 -22.547 Q67.522 -17.519 74.126 -17.519 Z M74.166 -23.019 Q70.064 -23.019 67.916 -26.482 Q65.769 -29.947 65.769 -35.244 Q65.769 -39.672 67.741 -43.557 Q69.714 -47.441 74.097 -47.441 Q78.481 -47.441 80.419 -43.564 Q82.356 -39.685 82.356 -35.272 Q82.356 -29.999 80.312 -26.509 Q78.269 -23.019 74.166 -23.019 Z M51.703 -18.269 Q52.811 -18.269 53.574 -19.082 Q54.336 -19.895 54.336 -20.98 Q54.336 -22.069 53.58 -22.817 Q52.822 -23.567 51.721 -23.567 H39.785 L39.682 -23.769 Q41.039 -25.124 42.337 -26.349 Q43.636 -27.572 44.731 -28.695 Q45.826 -29.816 46.879 -30.801 Q47.93 -31.785 48.557 -32.422 Q51.286 -35.19 52.575 -37.855 Q53.865 -40.52 53.865 -43.234 Q53.865 -47.412 50.704 -50.177 Q47.542 -52.941 42.74 -52.941 Q39.068 -52.941 36.002 -50.821 Q32.939 -48.701 31.836 -45.422 Q31.789 -45.326 31.635 -44.342 Q31.635 -43.162 32.396 -42.321 Q33.157 -41.48 34.336 -41.48 Q35.263 -41.48 36.112 -42.047 Q36.961 -42.615 37.211 -43.587 Q37.76 -45.316 39.271 -46.379 Q40.782 -47.441 42.638 -47.441 Q44.83 -47.441 46.343 -46.089 Q47.856 -44.736 47.856 -42.887 Q47.856 -41.139 47.12 -39.689 Q46.385 -38.24 44.539 -36.316 Q43.596 -35.249 41.601 -33.326 Q39.606 -31.402 35.539 -27.336 L33.03 -24.827 Q32.789 -24.586 32.039 -22.605 V-21.402 Q32.039 -20.149 32.979 -19.209 Q33.919 -18.269 35.172 -18.269 H51.703 Z"/></g><g id="Thin-M" transform="matrix(1 0 0 1 802.565 1126)"><path d="M26.144 16.395 Q23.206 16.395 20.55 13.713 Q17.894 11.03 17.894 8.145 H35.394 Q26.192 2.635 18.823 -7.532 Q11.453 -17.701 11.453 -33.451 Q11.453 -43.487 15.211 -52.345 Q18.971 -61.201 25.539 -67.816 Q32.106 -74.432 40.968 -78.144 Q49.829 -81.855 59.974 -81.855 Q70.12 -81.855 79.007 -78.144 Q87.894 -74.432 94.461 -67.816 Q101.029 -61.201 104.789 -52.362 Q108.547 -43.524 108.547 -33.402 Q108.547 -17.701 101.226 -7.532 Q93.904 2.635 84.606 8.145 H102.106 Q102.106 11.03 99.45 13.713 Q96.794 16.395 93.856 16.395 H26.144 Z M60 6.895 Q77.24 6.895 88.769 -4.634 Q100.297 -16.162 100.297 -33.402 Q100.297 -50.644 88.769 -62.124 Q77.24 -73.605 60 -73.605 Q42.76 -73.605 31.231 -62.124 Q19.703 -50.644 19.703 -33.402 Q19.703 -16.162 31.231 -4.634 Q42.76 6.895 60 6.895 Z M74.121 -17.807 Q80.586 -17.807 84.255 -22.74 Q87.922 -27.672 87.922 -35.23 Q87.922 -42.787 84.188 -47.72 Q80.451 -52.652 74.129 -52.652 Q67.664 -52.652 63.995 -47.72 Q60.328 -42.787 60.328 -35.23 Q60.328 -27.672 63.991 -22.74 Q67.655 -17.807 74.121 -17.807 Z M74.166 -22.682 Q69.92 -22.682 67.604 -26.074 Q65.289 -29.466 65.289 -35.244 Q65.289 -40.49 67.574 -44.134 Q69.859 -47.777 74.097 -47.777 Q78.336 -47.777 80.586 -44.14 Q82.836 -40.502 82.836 -35.272 Q82.836 -29.519 80.625 -26.1 Q78.414 -22.682 74.166 -22.682 Z M51.654 -18.557 Q52.663 -18.557 53.355 -19.284 Q54.047 -20.011 54.047 -20.98 Q54.047 -21.967 53.361 -22.647 Q52.674 -23.326 51.674 -23.326 H38.92 L38.865 -23.432 Q40.078 -24.644 41.4 -25.891 Q42.722 -27.14 43.939 -28.334 Q45.154 -29.527 46.381 -30.684 Q47.609 -31.84 48.365 -32.615 Q50.998 -35.286 52.239 -37.904 Q53.481 -40.52 53.481 -43.234 Q53.481 -47.22 50.367 -49.936 Q47.255 -52.652 42.724 -52.652 Q39.26 -52.652 36.291 -50.677 Q33.322 -48.701 32.172 -45.615 Q32.078 -45.422 32.019 -44.63 Q32.019 -43.595 32.667 -42.85 Q33.315 -42.105 34.336 -42.105 Q35.151 -42.105 35.911 -42.552 Q36.672 -42.999 36.922 -43.876 Q37.519 -45.652 39.079 -46.715 Q40.639 -47.777 42.654 -47.777 Q45.034 -47.777 46.685 -46.354 Q48.336 -44.929 48.336 -42.887 Q48.336 -41.047 47.553 -39.524 Q46.769 -37.999 44.828 -36.027 Q43.693 -34.769 41.578 -32.797 Q39.461 -30.826 35.828 -27.191 L33.27 -24.635 Q33.078 -24.441 32.328 -22.605 V-21.451 Q32.328 -20.294 33.195 -19.425 Q34.064 -18.557 35.221 -18.557 H51.654 Z"/></g><g id="Ultralight-M" transform="matrix(1 0 0 1 506.415 1126)"><path d="M26 14.895 Q23.681 14.895 21.466 12.645 Q19.25 10.395 19.25 8.145 H36.375 Q27.375 2.895 19.875 -7.042 Q12.375 -16.98 12.375 -32.902 Q12.375 -42.74 16.062 -51.422 Q19.75 -60.105 26.188 -66.605 Q32.625 -73.105 41.321 -76.73 Q50.017 -80.355 59.974 -80.355 Q69.931 -80.355 78.653 -76.73 Q87.375 -73.105 93.812 -66.605 Q100.25 -60.105 103.938 -51.44 Q107.625 -42.775 107.625 -32.855 Q107.625 -16.98 100.188 -7.042 Q92.75 2.895 83.625 8.145 H100.75 Q100.75 10.395 98.535 12.645 Q96.319 14.895 94 14.895 H26 Z M60 8.02 Q77.5 8.02 89.188 -3.667 Q100.875 -15.355 100.875 -32.855 Q100.875 -50.355 89.188 -61.98 Q77.5 -73.605 60 -73.605 Q42.5 -73.605 30.812 -61.98 Q19.125 -50.355 19.125 -32.855 Q19.125 -15.355 30.812 -3.667 Q42.5 8.02 60 8.02 Z M74.118 -17.98 Q80.5 -17.98 84.125 -22.855 Q87.75 -27.73 87.75 -35.23 Q87.75 -42.73 84.062 -47.605 Q80.374 -52.48 74.132 -52.48 Q67.75 -52.48 64.125 -47.605 Q60.5 -42.73 60.5 -35.23 Q60.5 -27.73 64.118 -22.855 Q67.734 -17.98 74.118 -17.98 Z M74.166 -22.48 Q69.834 -22.48 67.416 -25.829 Q65 -29.177 65 -35.244 Q65 -40.98 67.472 -44.48 Q69.945 -47.98 74.097 -47.98 Q78.25 -47.98 80.688 -44.486 Q83.125 -40.992 83.125 -35.272 Q83.125 -29.23 80.812 -25.855 Q78.5 -22.48 74.166 -22.48 Z M51.625 -18.73 Q52.572 -18.73 53.224 -19.405 Q53.875 -20.08 53.875 -20.98 Q53.875 -21.907 53.23 -22.545 Q52.584 -23.182 51.645 -23.182 H38.4 L38.375 -23.23 Q39.5 -24.355 40.837 -25.617 Q42.175 -26.88 43.462 -28.117 Q44.75 -29.355 46.084 -30.614 Q47.416 -31.872 48.25 -32.73 Q50.824 -35.344 52.038 -37.932 Q53.25 -40.52 53.25 -43.234 Q53.25 -47.105 50.166 -49.792 Q47.081 -52.48 42.715 -52.48 Q39.375 -52.48 36.464 -50.591 Q33.554 -48.701 32.375 -45.73 Q32.25 -45.48 32.25 -44.804 Q32.25 -43.855 32.83 -43.167 Q33.409 -42.48 34.336 -42.48 Q35.084 -42.48 35.791 -42.855 Q36.5 -43.23 36.75 -44.05 Q37.375 -45.855 38.964 -46.917 Q40.553 -47.98 42.663 -47.98 Q45.157 -47.98 46.891 -46.512 Q48.625 -45.044 48.625 -42.887 Q48.625 -40.992 47.812 -39.424 Q47 -37.855 45 -35.855 Q43.75 -34.48 41.562 -32.48 Q39.375 -30.48 36 -27.105 L33.415 -24.52 Q33.25 -24.355 32.5 -22.605 V-21.48 Q32.5 -20.38 33.325 -19.555 Q34.15 -18.73 35.25 -18.73 H51.625 Z"/></g><g id="Bold-S" transform="matrix(1 0 0 1 2294.23 696)"><path d="M19.429 10.927 Q14.33 10.927 10.568 7.213 Q6.805 3.5 6.805 -1.697 H23.966 Q15.386 -7.516 10.602 -15.85 Q5.819 -24.184 5.819 -35.452 Q5.819 -43.947 9.115 -51.551 Q12.411 -59.154 18.061 -64.805 Q23.711 -70.455 31.223 -73.702 Q38.735 -76.948 47.319 -76.948 Q55.905 -76.948 63.437 -73.702 Q70.969 -70.455 76.619 -64.805 Q82.269 -59.154 85.565 -51.565 Q88.861 -43.975 88.861 -35.414 Q88.861 -24.184 84.078 -15.85 Q79.294 -7.516 70.714 -1.697 H87.875 Q87.875 3.53 84.112 7.228 Q80.35 10.927 75.251 10.927 H19.429 Z M47.34 -6.727 Q59.471 -6.727 67.854 -15.061 Q76.237 -23.395 76.237 -35.477 Q76.237 -47.558 67.854 -55.941 Q59.471 -64.324 47.34 -64.324 Q35.209 -64.324 26.826 -55.941 Q18.443 -47.558 18.443 -35.477 Q18.443 -23.395 26.826 -15.061 Q35.209 -6.727 47.34 -6.727 Z M57.941 -23.099 Q63.416 -23.099 66.818 -27.587 Q70.221 -32.074 70.221 -37.597 Q70.221 -43.12 66.801 -47.607 Q63.379 -52.095 57.887 -52.095 Q52.432 -52.095 49.097 -47.607 Q45.762 -43.12 45.762 -37.597 Q45.762 -32.074 49.114 -27.587 Q52.467 -23.099 57.941 -23.099 Z M57.893 -29.806 Q55.526 -29.806 54.194 -32.008 Q52.863 -34.209 52.863 -37.611 Q52.863 -41.246 54.224 -43.317 Q55.586 -45.388 57.873 -45.388 Q60.161 -45.388 61.591 -43.319 Q63.021 -41.25 63.021 -37.628 Q63.021 -34.244 61.69 -32.025 Q60.358 -29.806 57.893 -29.806 Z M40.523 -23.592 Q41.785 -23.592 42.738 -24.588 Q43.691 -25.584 43.691 -26.945 Q43.691 -28.18 42.743 -29.122 Q41.795 -30.064 40.551 -30.064 H35.02 L35.012 -30.2 Q34.889 -30.077 35.149 -30.383 Q35.408 -30.688 35.999 -31.184 Q36.59 -31.679 37.477 -32.616 Q38.365 -33.553 39.549 -34.638 Q41.574 -36.864 42.534 -38.868 Q43.494 -40.872 43.494 -43.024 Q43.494 -46.822 40.765 -49.459 Q38.036 -52.095 34.225 -52.095 Q30.672 -52.095 27.981 -50.113 Q25.29 -48.13 24.163 -44.807 Q23.769 -43.723 23.966 -43.59 Q23.966 -42.172 24.952 -41.167 Q25.938 -40.161 27.354 -40.161 Q28.466 -40.161 29.372 -40.802 Q30.278 -41.443 30.574 -42.583 Q31.067 -43.909 32.041 -44.698 Q33.017 -45.487 34.202 -45.487 Q35.406 -45.487 36.047 -44.831 Q36.689 -44.174 36.689 -43.056 Q36.689 -41.542 35.801 -40.112 Q34.913 -38.682 33.039 -37.104 Q34.455 -38.403 31.824 -35.929 Q29.193 -33.455 26.629 -31.186 L25.653 -30.31 Q25.347 -30.101 24.656 -27.932 V-26.748 Q24.656 -25.348 25.583 -24.47 Q26.51 -23.592 27.923 -23.592 H40.523 Z"/></g><g id="Semibold-S" transform="matrix(1 0 0 1 1998.1 696)"><path d="M20.801 9.597 Q16.345 9.597 12.904 6.185 Q9.463 2.771 9.463 -1.74 H26.282 Q17.53 -6.873 12.275 -15.421 Q7.019 -23.97 7.019 -35.544 Q7.019 -43.838 10.187 -51.218 Q13.355 -58.597 18.833 -64.076 Q24.312 -69.554 31.63 -72.694 Q38.949 -75.834 47.319 -75.834 Q55.691 -75.834 63.029 -72.694 Q70.368 -69.554 75.847 -64.076 Q81.325 -58.597 84.493 -51.232 Q87.661 -43.866 87.661 -35.506 Q87.661 -23.97 82.405 -15.421 Q77.15 -6.873 68.398 -1.74 H85.217 Q85.217 2.801 81.776 6.199 Q78.335 9.597 73.879 9.597 H20.801 Z M47.34 -6.642 Q59.599 -6.642 67.962 -14.975 Q76.323 -23.309 76.323 -35.541 Q76.323 -47.772 67.962 -56.135 Q59.599 -64.496 47.34 -64.496 Q35.081 -64.496 26.718 -56.135 Q18.357 -47.772 18.357 -35.541 Q18.357 -23.309 26.718 -14.975 Q35.081 -6.642 47.34 -6.642 Z M58.18 -23.227 Q63.544 -23.227 66.797 -27.608 Q70.049 -31.988 70.049 -37.597 Q70.049 -43.206 66.78 -47.586 Q63.51 -51.967 58.143 -51.967 Q52.791 -51.967 49.577 -47.586 Q46.363 -43.206 46.363 -37.597 Q46.363 -31.988 49.589 -27.608 Q52.816 -23.227 58.18 -23.227 Z M58.164 -29.119 Q55.469 -29.119 54.038 -31.642 Q52.606 -34.164 52.606 -37.609 Q52.606 -41.118 54.031 -43.596 Q55.455 -46.075 58.13 -46.075 Q60.804 -46.075 62.256 -43.599 Q63.708 -41.124 63.708 -37.629 Q63.708 -34.201 62.311 -31.66 Q60.916 -29.119 58.164 -29.119 Z M40.651 -23.764 Q41.785 -23.764 42.61 -24.636 Q43.433 -25.508 43.433 -26.688 Q43.433 -27.795 42.614 -28.607 Q41.795 -29.421 40.679 -29.421 H33.739 L33.682 -29.599 Q33.913 -29.83 34.369 -30.308 Q34.824 -30.785 35.493 -31.383 Q36.161 -31.979 37.07 -32.916 Q37.98 -33.853 39.077 -34.896 Q41.148 -37.093 42.149 -39.171 Q43.15 -41.249 43.15 -43.41 Q43.15 -47.014 40.486 -49.49 Q37.821 -51.967 34.012 -51.967 Q30.587 -51.967 28.003 -50.091 Q25.419 -48.215 24.463 -45.103 Q24.154 -44.232 24.266 -44.012 Q24.266 -42.756 25.124 -41.865 Q25.981 -40.976 27.239 -40.976 Q28.225 -40.976 29.037 -41.531 Q29.849 -42.086 30.102 -43.097 Q30.595 -44.51 31.658 -45.319 Q32.72 -46.13 33.983 -46.13 Q35.364 -46.13 36.176 -45.341 Q36.988 -44.553 36.988 -43.33 Q36.988 -41.885 36.23 -40.562 Q35.47 -39.239 33.854 -37.79 Q35.254 -39.081 32.438 -36.354 Q29.622 -33.626 26.972 -31.144 L25.705 -29.932 Q25.475 -29.758 24.828 -27.804 V-26.62 Q24.828 -25.365 25.656 -24.565 Q26.485 -23.764 27.752 -23.764 H40.651 Z"/></g><g id="Medium-S" transform="matrix(1 0 0 1 1701.85 696)"><path d="M21.831 8.6 Q17.857 8.6 14.658 5.412 Q11.457 2.225 11.457 -1.772 H28.018 Q19.137 -6.391 13.528 -15.1 Q7.92 -23.809 7.92 -35.612 Q7.92 -43.756 10.991 -50.968 Q14.062 -58.179 19.412 -63.528 Q24.762 -68.879 31.936 -71.938 Q39.11 -74.998 47.319 -74.998 Q55.53 -74.998 62.724 -71.938 Q69.918 -68.879 75.268 -63.528 Q80.618 -58.179 83.689 -50.981 Q86.76 -43.784 86.76 -35.574 Q86.76 -23.809 81.152 -15.1 Q75.543 -6.391 66.662 -1.772 H83.223 Q83.223 2.254 80.022 5.427 Q76.823 8.6 72.849 8.6 H21.831 Z M47.34 -6.577 Q59.696 -6.577 68.041 -14.911 Q76.387 -23.245 76.387 -35.589 Q76.387 -47.933 68.041 -56.279 Q59.696 -64.624 47.34 -64.624 Q34.984 -64.624 26.639 -56.279 Q18.293 -47.933 18.293 -35.589 Q18.293 -23.245 26.639 -14.911 Q34.984 -6.577 47.34 -6.577 Z M58.359 -23.324 Q63.641 -23.324 66.781 -27.624 Q69.921 -31.924 69.921 -37.597 Q69.921 -43.27 66.764 -47.57 Q63.608 -51.87 58.337 -51.87 Q53.06 -51.87 49.936 -47.57 Q46.812 -43.27 46.812 -37.597 Q46.812 -31.924 49.946 -27.624 Q53.078 -23.324 58.359 -23.324 Z M58.368 -28.605 Q55.426 -28.605 53.919 -31.367 Q52.412 -34.129 52.412 -37.608 Q52.412 -41.021 53.885 -43.805 Q55.357 -46.589 58.322 -46.589 Q61.287 -46.589 62.754 -43.809 Q64.222 -41.029 64.222 -37.63 Q64.222 -34.169 62.778 -31.387 Q61.334 -28.605 58.368 -28.605 Z M40.748 -23.892 Q41.785 -23.892 42.513 -24.671 Q43.24 -25.449 43.24 -26.495 Q43.24 -27.506 42.518 -28.222 Q41.795 -28.939 40.776 -28.939 H32.778 L32.685 -29.15 Q33.181 -29.646 33.784 -30.251 Q34.387 -30.857 35.112 -31.531 Q35.839 -32.205 36.764 -33.142 Q37.69 -34.079 38.723 -35.089 Q40.828 -37.265 41.86 -39.398 Q42.893 -41.531 42.893 -43.7 Q42.893 -47.157 40.276 -49.514 Q37.66 -51.87 33.852 -51.87 Q30.522 -51.87 28.018 -50.074 Q25.515 -48.278 24.689 -45.324 Q24.444 -44.615 24.492 -44.327 Q24.492 -43.194 25.252 -42.39 Q26.013 -41.587 27.154 -41.587 Q28.044 -41.587 28.786 -42.078 Q29.527 -42.569 29.748 -43.484 Q30.241 -44.959 31.37 -45.786 Q32.498 -46.612 33.819 -46.612 Q35.331 -46.612 36.272 -45.725 Q37.214 -44.836 37.214 -43.536 Q37.214 -42.143 36.551 -40.9 Q35.889 -39.657 34.465 -38.304 Q35.854 -39.59 32.898 -36.673 Q29.944 -33.755 27.229 -31.111 L25.744 -29.65 Q25.571 -29.501 24.956 -27.707 V-26.523 Q24.956 -25.377 25.711 -24.635 Q26.465 -23.892 27.623 -23.892 H40.748 Z"/></g><g id="Regular-S" transform="matrix(1 0 0 1 1405.73 696)"><path d="M22.585 7.869 Q18.966 7.869 15.943 4.846 Q12.92 1.823 12.92 -1.796 H29.292 Q20.317 -6.037 14.449 -14.864 Q8.58 -23.691 8.58 -35.662 Q8.58 -43.696 11.581 -50.784 Q14.581 -57.872 19.836 -63.128 Q25.092 -68.384 32.16 -71.384 Q39.228 -74.384 47.319 -74.384 Q55.411 -74.384 62.5 -71.384 Q69.588 -68.384 74.844 -63.128 Q80.099 -57.872 83.099 -50.798 Q86.1 -43.724 86.1 -35.624 Q86.1 -23.691 80.231 -14.864 Q74.363 -6.037 65.388 -1.796 H81.76 Q81.76 1.853 78.737 4.861 Q75.714 7.869 72.095 7.869 H22.585 Z M47.34 -6.53 Q59.767 -6.53 68.101 -14.864 Q76.434 -23.198 76.434 -35.624 Q76.434 -48.051 68.101 -56.385 Q59.767 -64.719 47.34 -64.719 Q34.913 -64.719 26.579 -56.385 Q18.246 -48.051 18.246 -35.624 Q18.246 -23.198 26.579 -14.864 Q34.913 -6.53 47.34 -6.53 Z M58.491 -23.395 Q63.712 -23.395 66.769 -27.636 Q69.827 -31.877 69.827 -37.597 Q69.827 -43.317 66.753 -47.558 Q63.679 -51.799 58.479 -51.799 Q53.258 -51.799 50.2 -47.558 Q47.143 -43.317 47.143 -37.597 Q47.143 -31.877 50.206 -27.636 Q53.27 -23.395 58.491 -23.395 Z M58.517 -28.228 Q55.395 -28.228 53.832 -31.166 Q52.271 -34.104 52.271 -37.608 Q52.271 -40.95 53.778 -43.958 Q55.285 -46.966 58.463 -46.966 Q61.641 -46.966 63.12 -43.963 Q64.599 -40.96 64.599 -37.631 Q64.599 -34.145 63.12 -31.186 Q61.641 -28.228 58.517 -28.228 Z M40.819 -23.987 Q41.785 -23.987 42.442 -24.697 Q43.099 -25.407 43.099 -26.354 Q43.099 -27.293 42.447 -27.939 Q41.795 -28.585 40.847 -28.585 H32.073 L31.955 -28.819 Q32.645 -29.51 33.355 -30.21 Q34.065 -30.91 34.834 -31.64 Q35.604 -32.37 36.541 -33.307 Q37.477 -34.244 38.464 -35.23 Q40.593 -37.391 41.649 -39.565 Q42.705 -41.738 42.705 -43.912 Q42.705 -47.262 40.124 -49.531 Q37.542 -51.799 33.735 -51.799 Q30.475 -51.799 28.03 -50.062 Q25.586 -48.324 24.854 -45.487 Q24.656 -44.895 24.656 -44.559 Q24.656 -43.514 25.347 -42.775 Q26.037 -42.035 27.091 -42.035 Q27.911 -42.035 28.601 -42.479 Q29.292 -42.923 29.489 -43.767 Q29.982 -45.29 31.159 -46.128 Q32.335 -46.966 33.697 -46.966 Q35.308 -46.966 36.343 -46.006 Q37.379 -45.044 37.379 -43.688 Q37.379 -42.331 36.787 -41.147 Q36.195 -39.964 34.913 -38.682 Q36.294 -39.964 33.237 -36.907 Q30.179 -33.849 27.418 -31.088 L25.773 -29.443 Q25.643 -29.312 25.051 -27.636 V-26.452 Q25.051 -25.387 25.751 -24.687 Q26.451 -23.987 27.528 -23.987 H40.819 Z"/></g><g id="Light-S" transform="matrix(1 0 0 1 1109.75 696)"><path d="M22.396 5.897 Q19.59 5.897 17.146 3.443 Q14.703 0.989 14.703 -1.796 H30.582 Q21.872 -5.696 15.833 -14.219 Q9.794 -22.742 9.794 -34.941 Q9.794 -42.713 12.7 -49.572 Q15.605 -56.43 20.691 -61.534 Q25.775 -66.638 32.626 -69.525 Q39.477 -72.412 47.319 -72.412 Q55.163 -72.412 62.034 -69.525 Q68.905 -66.638 73.989 -61.534 Q79.075 -56.43 81.98 -49.586 Q84.886 -42.74 84.886 -34.904 Q84.886 -22.742 78.865 -14.219 Q72.845 -5.696 64.098 -1.796 H79.977 Q79.977 1.019 77.534 3.458 Q75.09 5.897 72.284 5.897 H22.396 Z M47.34 -5.051 Q60.108 -5.051 68.651 -13.593 Q77.193 -22.136 77.193 -34.904 Q77.193 -47.672 68.651 -56.196 Q60.108 -64.719 47.34 -64.719 Q34.572 -64.719 26.029 -56.196 Q17.487 -47.672 17.487 -34.904 Q17.487 -22.136 26.029 -13.593 Q34.572 -5.051 47.34 -5.051 Z M58.486 -23.623 Q63.598 -23.623 66.599 -27.788 Q69.599 -31.953 69.599 -37.597 Q69.599 -43.241 66.589 -47.406 Q63.578 -51.571 58.484 -51.571 Q53.371 -51.571 50.371 -47.406 Q47.371 -43.241 47.371 -37.597 Q47.371 -31.953 50.373 -27.788 Q53.374 -23.623 58.486 -23.623 Z M58.517 -27.962 Q55.28 -27.962 53.586 -30.843 Q51.892 -33.725 51.892 -37.608 Q51.892 -41.595 53.645 -44.414 Q55.399 -47.232 58.463 -47.232 Q61.527 -47.232 63.253 -44.419 Q64.979 -41.605 64.979 -37.631 Q64.979 -33.765 63.367 -30.864 Q61.754 -27.962 58.517 -27.962 Z M40.78 -24.215 Q41.668 -24.215 42.27 -24.857 Q42.871 -25.498 42.871 -26.354 Q42.871 -27.213 42.275 -27.804 Q41.677 -28.395 40.808 -28.395 H31.39 L31.309 -28.554 Q31.886 -29.13 32.615 -29.85 Q33.344 -30.569 34.208 -31.356 Q35.072 -32.142 36.149 -33.215 Q37.225 -34.287 38.312 -35.382 Q40.366 -37.467 41.383 -39.603 Q42.401 -41.738 42.401 -43.912 Q42.401 -47.11 39.857 -49.341 Q37.314 -51.571 33.722 -51.571 Q30.627 -51.571 28.258 -49.948 Q25.89 -48.324 25.119 -45.639 Q24.884 -44.971 24.96 -44.787 Q24.96 -43.856 25.561 -43.192 Q26.161 -42.528 27.091 -42.528 Q27.822 -42.528 28.443 -42.877 Q29.064 -43.227 29.261 -43.994 Q29.793 -45.555 31.007 -46.393 Q32.222 -47.232 33.71 -47.232 Q35.469 -47.232 36.614 -46.214 Q37.759 -45.196 37.759 -43.688 Q37.759 -42.259 37.128 -41.016 Q36.499 -39.775 35.141 -38.454 Q36.37 -39.584 33.218 -36.489 Q30.066 -33.394 27.646 -30.974 L25.962 -29.291 Q25.87 -29.199 25.279 -27.636 V-26.49 Q25.279 -25.501 25.922 -24.858 Q26.565 -24.215 27.567 -24.215 H40.78 Z"/></g><g id="Thin-S" transform="matrix(1 0 0 1 814.015 696)"><path d="M22.205 3.924 Q20.213 3.924 18.349 2.039 Q16.485 0.155 16.485 -1.796 H31.871 Q23.427 -5.355 17.218 -13.574 Q11.009 -21.794 11.009 -34.221 Q11.009 -41.73 13.818 -48.36 Q16.629 -54.99 21.544 -59.941 Q26.458 -64.893 33.092 -67.667 Q39.725 -70.439 47.319 -70.439 Q54.914 -70.439 61.569 -67.667 Q68.222 -64.893 73.136 -59.941 Q78.051 -54.99 80.862 -48.374 Q83.671 -41.758 83.671 -34.183 Q83.671 -21.794 77.501 -13.574 Q71.329 -5.355 62.809 -1.796 H78.195 Q78.195 0.184 76.331 2.054 Q74.467 3.924 72.475 3.924 H22.205 Z M47.34 -3.571 Q60.449 -3.571 69.2 -12.322 Q77.951 -21.073 77.951 -34.183 Q77.951 -47.293 69.2 -56.005 Q60.449 -64.719 47.34 -64.719 Q34.231 -64.719 25.48 -56.005 Q16.729 -47.293 16.729 -34.183 Q16.729 -21.073 25.48 -12.322 Q34.231 -3.571 47.34 -3.571 Z M58.482 -23.851 Q63.484 -23.851 66.428 -27.94 Q69.371 -32.029 69.371 -37.597 Q69.371 -43.165 66.424 -47.254 Q63.476 -51.343 58.488 -51.343 Q53.485 -51.343 50.541 -47.254 Q47.598 -43.165 47.598 -37.597 Q47.598 -32.029 50.538 -27.94 Q53.478 -23.851 58.482 -23.851 Z M58.517 -27.697 Q55.167 -27.697 53.339 -30.521 Q51.513 -33.345 51.513 -37.608 Q51.513 -42.24 53.513 -44.869 Q55.513 -47.497 58.463 -47.497 Q61.413 -47.497 63.385 -44.874 Q65.358 -42.25 65.358 -37.631 Q65.358 -33.387 63.613 -30.541 Q61.868 -27.697 58.517 -27.697 Z M40.743 -24.442 Q41.551 -24.442 42.097 -25.015 Q42.643 -25.589 42.643 -26.354 Q42.643 -27.133 42.102 -27.669 Q41.56 -28.205 40.771 -28.205 H30.708 L30.664 -28.289 Q31.128 -28.751 31.876 -29.489 Q32.623 -30.228 33.583 -31.071 Q34.541 -31.914 35.756 -33.122 Q36.972 -34.331 38.16 -35.534 Q40.138 -37.543 41.118 -39.641 Q42.098 -41.738 42.098 -43.912 Q42.098 -46.958 39.592 -49.151 Q37.087 -51.343 33.709 -51.343 Q30.779 -51.343 28.486 -49.834 Q26.193 -48.324 25.384 -45.791 Q25.112 -45.047 25.263 -45.014 Q25.263 -44.197 25.775 -43.609 Q26.286 -43.021 27.091 -43.021 Q27.734 -43.021 28.285 -43.276 Q28.836 -43.529 29.033 -44.222 Q29.602 -45.82 30.855 -46.659 Q32.107 -47.497 33.722 -47.497 Q35.63 -47.497 36.884 -46.423 Q38.137 -45.348 38.137 -43.688 Q38.137 -42.187 37.47 -40.886 Q36.802 -39.584 35.369 -38.226 Q36.446 -39.206 33.199 -36.072 Q29.951 -32.939 27.873 -30.86 L26.151 -29.139 Q26.098 -29.085 25.506 -27.636 V-26.528 Q25.506 -25.615 26.092 -25.028 Q26.679 -24.442 27.604 -24.442 H40.743 Z"/></g><g id="Ultralight-S" transform="matrix(1 0 0 1 517.792 696)"><path d="M22.092 2.741 Q20.588 2.741 19.072 1.197 Q17.555 -0.346 17.555 -1.796 H32.645 Q24.36 -5.149 18.048 -13.187 Q11.736 -21.225 11.736 -33.788 Q11.736 -41.141 14.49 -47.632 Q17.244 -54.125 22.056 -58.986 Q26.867 -63.847 33.371 -66.551 Q39.874 -69.256 47.319 -69.256 Q54.765 -69.256 61.289 -66.551 Q67.813 -63.847 72.624 -58.986 Q77.436 -54.125 80.19 -47.646 Q82.944 -41.168 82.944 -33.751 Q82.944 -21.225 76.681 -13.187 Q70.418 -5.149 62.035 -1.796 H77.125 Q77.125 -0.317 75.609 1.212 Q74.092 2.741 72.588 2.741 H22.092 Z M47.34 -2.684 Q60.654 -2.684 69.531 -11.56 Q78.407 -20.436 78.407 -33.751 Q78.407 -47.065 69.531 -55.892 Q60.654 -64.719 47.34 -64.719 Q34.026 -64.719 25.149 -55.892 Q16.273 -47.065 16.273 -33.751 Q16.273 -20.436 25.149 -11.56 Q34.026 -2.684 47.34 -2.684 Z M58.479 -23.987 Q63.416 -23.987 66.325 -28.03 Q69.235 -32.074 69.235 -37.597 Q69.235 -43.12 66.325 -47.164 Q63.415 -51.207 58.491 -51.207 Q53.553 -51.207 50.644 -47.164 Q47.735 -43.12 47.735 -37.597 Q47.735 -32.074 50.638 -28.03 Q53.541 -23.987 58.479 -23.987 Z M58.517 -27.537 Q55.099 -27.537 53.191 -30.327 Q51.285 -33.117 51.285 -37.608 Q51.285 -42.627 53.433 -45.142 Q55.581 -47.657 58.463 -47.657 Q61.345 -47.657 63.465 -45.147 Q65.586 -42.637 65.586 -37.631 Q65.586 -33.159 63.761 -30.348 Q61.937 -27.537 58.517 -27.537 Z M40.72 -24.578 Q41.48 -24.578 41.994 -25.111 Q42.507 -25.644 42.507 -26.354 Q42.507 -27.086 41.998 -27.589 Q41.489 -28.092 40.748 -28.092 H30.298 L30.278 -28.129 Q30.672 -28.523 31.432 -29.273 Q32.191 -30.023 33.207 -30.9 Q34.223 -31.778 35.522 -33.067 Q36.82 -34.356 38.069 -35.624 Q40.001 -37.588 40.959 -39.663 Q41.916 -41.738 41.916 -43.912 Q41.916 -46.868 39.433 -49.037 Q36.95 -51.207 33.702 -51.207 Q30.87 -51.207 28.622 -49.766 Q26.375 -48.324 25.544 -45.881 Q25.248 -45.092 25.445 -45.151 Q25.445 -44.402 25.903 -43.86 Q26.36 -43.317 27.091 -43.317 Q27.681 -43.317 28.19 -43.514 Q28.7 -43.712 28.897 -44.359 Q29.489 -45.98 30.764 -46.818 Q32.039 -47.657 33.73 -47.657 Q35.728 -47.657 37.047 -46.548 Q38.365 -45.439 38.365 -43.688 Q38.365 -42.144 37.675 -40.807 Q36.984 -39.471 35.505 -38.09 Q36.491 -38.978 33.187 -35.822 Q29.883 -32.666 28.01 -30.792 L26.266 -29.048 Q26.234 -29.017 25.643 -27.636 V-26.551 Q25.643 -25.683 26.195 -25.131 Q26.747 -24.578 27.627 -24.578 H40.72 Z"/></g></g></svg>