<svg xmlns="http://www.w3.org/2000/svg" height="24" viewBox="0 -960 960 960" width="24"><path d="M620.61-851.92q14.25 0 24.24 9.99 9.99 9.99 9.99 23.98v47.77q49.16 10.14 83.12 49.08 33.96 38.94 33.96 93.28v276.32q0 11.63-8.24 19.86-8.24 8.22-19.66 8.22-11.64 0-19.85-8.22-8.21-8.23-8.21-19.86v-276.32q0-36.4-26.27-62.27-26.27-25.87-63.16-25.87H354.58l-24.81-24.92q-10.91-6.18-17.51-17.59-6.6-11.41-6.6-25.22v-34.19q0-14.03 9.99-24.04 9.99-10 24.24-10h26.98q13.98 0 23.96 10 9.98 10.01 9.98 24.04v45.96h158.88v-45.96q0-14.03 9.9-24.04 9.89-10 24.14-10h26.88ZM493.98-466.61l56.87 57.26H341.42q-12.28 0-20.33-8.24-8.05-8.24-8.05-20.42 0-12.18 8.37-20.55 8.38-8.36 20.82-8.05h151.75Zm40.98-61.27Zm-65.92 116.19ZM228.12-727.04l39.42 39.43q-11 10.96-17 27.06-6 16.11-6 32.67v452.69q0 4.61 3.46 7.88 3.46 3.27 8.85 3.27h446.8q5.39 0 8.85-3.27t3.46-7.88v-69.04l55.96 55.65v13.39q0 27.66-20.05 47.39-20.06 19.72-48.22 19.72h-446.8q-28.55 0-48.66-19.72-20.11-19.73-20.11-47.39V-627.9q0-27.9 10.77-53.89 10.77-25.98 29.27-45.25Zm540.53 614.96L111.77-769.15q-8.31-8.12-8.5-19.52-.19-11.41 8.18-20.21 8.94-8.62 20.15-8.62 11.21 0 20.02 8.62l656.76 657.07q8.12 8.12 8.47 19.52.34 11.4-8.55 20.3-8.42 8.41-19.78 8.41-11.37 0-19.87-8.5Z"/></svg>