<svg xmlns="http://www.w3.org/2000/svg" height="40" viewBox="0 -960 960 960" width="40"><path d="M787.12-511.83q-10.29 0-17.79-7.65t-7.5-18.35v-202q0-9.71 7.63-17.44t17.67-7.73q10.04 0 17.95 7.73 7.92 7.73 7.92 17.44v202q0 10.7-7.8 18.35-7.8 7.65-18.08 7.65Zm-387.12 0q-43.22 0-74.19-30.98-30.98-30.97-30.98-74.19t30.98-74.19q30.97-30.98 74.19-30.98t74.19 30.98q30.98 30.97 30.98 74.19t-30.98 74.19q-30.97 30.98-74.19 30.98ZM133.5-234.17v-47.66q0-22.7 14.26-41.72t36.1-29.84q51.68-22.98 105.68-37.13 53.99-14.15 110.59-14.15t110.32 14.17q53.72 14.17 105.8 36.95 21.71 10.73 35.98 29.96 14.27 19.22 14.27 42.16v47.26h-533Z"/></svg>