<svg xmlns="http://www.w3.org/2000/svg" height="40" viewBox="0 -960 960 960" width="40"><path d="M242.18-242.18H139.9q-10.23 0-17.22-7.03-6.99-7.02-6.99-17.04 0-9.78 6.99-16.8 6.99-7.01 17.22-7.01h102.28V-456.3H139.9q-10.23 0-17.22-7.02-6.99-7.03-6.99-17.05 0-10.03 6.99-16.92 6.99-6.89 17.22-6.89h102.28v-166.49H139.9q-10.23 0-17.22-7.02-6.99-7.03-6.99-17.05 0-9.77 6.99-16.79t17.22-7.02h102.28V-821.1q0-9.63 7.03-16.65 7.02-7.03 17.04-7.03 9.78 0 16.8 7.03 7.01 7.02 7.01 16.65v102.55H456.3V-821.1q0-9.71 7.02-16.69 7.03-6.99 17.05-6.99 10.03 0 16.92 7.03 6.89 7.02 6.89 16.65v102.55h166.49V-821.1q0-9.71 7.02-16.69 7.03-6.99 17.05-6.99 9.77 0 16.79 7.03 7.02 7.02 7.02 16.65v102.55H821.1q9.63 0 16.65 7.19 7.03 7.19 7.03 16.75 0 10.16-7.03 17.05-7.02 6.89-16.65 6.89H718.55v166.49H821.1q9.71 0 16.69 7.07 6.99 7.06 6.99 16.74 0 10.29-7.03 17.18-7.02 6.89-16.65 6.89H718.55v166.24H821.1q9.71 0 16.69 7.18 6.99 7.19 6.99 16.75 0 10.17-7.03 17.06-7.02 6.89-16.65 6.89H718.55v102.28q0 10.23-7.19 17.22-7.19 6.99-16.75 6.99-10.16 0-17.05-6.99-6.89-6.99-6.89-17.22v-102.28H504.18v102.28q0 10.23-7.07 17.22-7.06 6.99-16.74 6.99-10.29 0-17.18-6.99-6.89-6.99-6.89-17.22v-102.28H290.06v102.28q0 10.23-7.18 17.22-7.19 6.99-16.75 6.99-10.17 0-17.06-6.99-6.89-6.99-6.89-17.22v-102.28Zm47.88-47.88H456.3V-456.3H290.06v166.24Zm214.12 0h166.49V-456.3H504.18v166.24ZM290.06-504.18H456.3v-166.49H290.06v166.49Zm214.12 0h166.49v-166.49H504.18v166.49Z"/></svg>