<svg xmlns="http://www.w3.org/2000/svg" version="1.1" width="3300" height="2000"><g id="Notes"><style>
    text {
      font-family: monospace;
      text-anchor: middle;
    }
    text.emphasis {
      font-weight:bold;
    }
    text.lanchor {
      text-anchor: start;
    }
  </style><rect height="2200" id="artboard" fill="white" width="3300" x="0" y="0"/><line id="" style="fill:none;stroke:black;stroke-width:0.5;" x1="263" x2="3036" y1="292" y2="292"/><text class="lanchor emphasis" transform="matrix(1 0 0 1 263 322)">Weight/Scale Variations</text><text transform="matrix(1 0 0 1 559.711 322)">Ultralight</text><text transform="matrix(1 0 0 1 856.422 322)">Thin</text><text transform="matrix(1 0 0 1 1153.13 322)">Light</text><text transform="matrix(1 0 0 1 1449.84 322)">Regular</text><text transform="matrix(1 0 0 1 1746.56 322)">Medium</text><text transform="matrix(1 0 0 1 2043.27 322)">Semibold</text><text transform="matrix(1 0 0 1 2339.98 322)">Bold</text><text transform="matrix(1 0 0 1 2636.69 322)">Heavy</text><text transform="matrix(1 0 0 1 2933.4 322)">Black</text><text id="template-version" style="text-anchor: end;" transform="matrix(1 0 0 1 3036 1933)">Template v.1.0</text><text class="lanchor" transform="matrix(1 0 0 1 263 726)">Small</text><text class="lanchor" transform="matrix(1 0 0 1 263 1156)">Medium</text><text class="lanchor" transform="matrix(1 0 0 1 263 1586)">Large</text></g><g id="Guides"><g id="H-reference" style="fill:#27AAE1;stroke:none;" transform="matrix(1 0 0 1 339 696)"><path d="M 54.9316 0 L 57.666 0 L 30.5664 -70.459 L 28.0762 -70.459 L 0.976562 0 L 3.66211 0 L 12.9395 -24.4629 L 45.7031 -24.4629 Z M 29.1992 -67.0898 L 29.4434 -67.0898 L 44.8242 -26.709 L 13.8184 -26.709 Z"/></g><line id="Baseline-S" style="fill:none;stroke:#27AAE1;opacity:1;stroke-width:0.577;" x1="263" x2="3036" y1="696" y2="696"/><line id="Capline-S" style="fill:none;stroke:#27AAE1;opacity:1;stroke-width:0.577;" x1="263" x2="3036" y1="625.541" y2="625.541"/><g id="H-reference" style="fill:#27AAE1;stroke:none;" transform="matrix(1 0 0 1 339 1126)"><path d="M 54.9316 0 L 57.666 0 L 30.5664 -70.459 L 28.0762 -70.459 L 0.976562 0 L 3.66211 0 L 12.9395 -24.4629 L 45.7031 -24.4629 Z M 29.1992 -67.0898 L 29.4434 -67.0898 L 44.8242 -26.709 L 13.8184 -26.709 Z"/></g><line id="Baseline-M" style="fill:none;stroke:#27AAE1;opacity:1;stroke-width:0.577;" x1="263" x2="3036" y1="1126" y2="1126"/><line id="Capline-M" style="fill:none;stroke:#27AAE1;opacity:1;stroke-width:0.577;" x1="263" x2="3036" y1="1055.54" y2="1055.54"/><g id="H-reference" style="fill:#27AAE1;stroke:none;" transform="matrix(1 0 0 1 339 1556)"><path d="M 54.9316 0 L 57.666 0 L 30.5664 -70.459 L 28.0762 -70.459 L 0.976562 0 L 3.66211 0 L 12.9395 -24.4629 L 45.7031 -24.4629 Z M 29.1992 -67.0898 L 29.4434 -67.0898 L 44.8242 -26.709 L 13.8184 -26.709 Z"/></g><line id="Baseline-L" style="fill:none;stroke:#27AAE1;opacity:1;stroke-width:0.577;" x1="263" x2="3036" y1="1556" y2="1556"/><line id="Capline-L" style="fill:none;stroke:#27AAE1;opacity:1;stroke-width:0.577;" x1="263" x2="3036" y1="1485.54" y2="1485.54"/><rect height="119.336" id="left-margin" style="fill:darkred;stroke:none;opacity:0.4;" width="12.4512" x="1394.06" y="1030.79"/><rect height="119.336" id="right-margin" style="fill:darkgreen;stroke:none;opacity:0.4;" width="12.4512" x="1502.5112" y="1030.79"/><rect x="1406.5112" y="1045" width="96" height="96" fill="none" stroke="blue" stroke-dasharray="5"/><rect x="1394.06" y="1030.79" width="120.9024" height="119.336" fill="none" stroke="blue"/></g><g id="Symbols"><g id="Bold-L" transform="matrix(1 0 0 1 2266 1556)"><path d="M20.156 -45.55 H28.058 Q30.126 -45.55 31.753 -43.937 Q33.379 -42.325 33.379 -40.067 Q33.379 -37.81 31.753 -36.278 Q30.126 -34.746 28.058 -34.746 H9.191 Q5.966 -34.746 3.789 -36.923 Q1.613 -39.1 1.613 -42.325 V-61.03 Q1.613 -63.17 3.225 -64.84 Q4.838 -66.512 7.014 -66.512 Q9.191 -66.512 10.804 -64.9 Q12.416 -63.287 12.416 -61.03 V-53.129 L26.284 -66.996 Q27.838 -68.609 30.125 -68.609 Q32.411 -68.609 34.024 -66.996 Q35.636 -65.384 35.636 -63.207 Q35.636 -61.03 34.024 -59.417 L20.156 -45.55 Z M67.241 -92.635  53.212 -78.606 Q51.6 -76.994 49.423 -76.994 Q47.246 -76.994 45.634 -78.606 Q44.021 -80.219 44.021 -82.505 Q44.021 -84.792 45.634 -86.346 L59.501 -100.214 H51.6 Q49.531 -100.214 47.904 -101.826 Q46.279 -103.439 46.279 -105.616 Q46.279 -107.792 47.811 -109.405 Q49.343 -111.017 51.6 -111.017 H70.305 Q73.511 -111.017 75.778 -108.841 Q78.045 -106.664 78.045 -103.439 V-84.734 Q78.045 -82.476 76.433 -80.864 Q74.82 -79.251 72.562 -79.251 Q70.305 -79.251 68.773 -80.864 Q67.241 -82.476 67.241 -84.734 V-92.635 Z M87.72 40.558 Q83.964 40.558 80.359 39.106 Q76.755 37.655 74.141 34.907 L39.506 -0.722 Q38.7 -1.367 38.539 -2.174 Q38.377 -2.98 38.7 -3.947 Q41.441 -8.462 46.359 -10.156 Q51.278 -11.849 56.438 -10.075 L69.66 -6.044 V-60.385 Q69.66 -63.013 71.545 -64.844 Q73.432 -66.674 76.141 -66.674 Q78.851 -66.674 80.706 -64.844 Q82.56 -63.013 82.56 -60.385 V-12.332 H93.364 V-38.897 Q93.364 -41.68 95.138 -43.534 Q96.911 -45.389 99.622 -45.389 Q102.331 -45.389 104.217 -43.512 Q106.103 -41.635 106.103 -38.939 V-12.332 H116.745 V-32.436 Q116.745 -35.154 118.63 -37.047 Q120.517 -38.939 123.226 -38.939 Q125.936 -38.939 127.791 -37.047 Q129.645 -35.154 129.645 -32.436 V-12.332 H140.449 V-19.589 Q140.449 -22.286 142.222 -24.162 Q143.996 -26.039 146.707 -26.039 Q149.416 -26.039 151.302 -24.162 Q153.188 -22.286 153.188 -19.589 V13.145 Q153.188 24.555 145.186 32.556 Q137.185 40.558 125.775 40.558 H87.72 Z"/></g><g id="Semibold-L" transform="matrix(1 0 0 1 1970.27 1556)"><path d="M18.965 -44.568 H29.18 Q30.91 -44.568 32.25 -43.236 Q33.588 -41.904 33.588 -40.067 Q33.588 -38.231 32.25 -36.944 Q30.91 -35.657 29.18 -35.657 H10.102 Q7.369 -35.657 5.542 -37.484 Q3.715 -39.31 3.715 -42.044 V-61.03 Q3.715 -62.801 5.047 -64.166 Q6.379 -65.53 8.171 -65.53 Q9.962 -65.53 11.294 -64.199 Q12.626 -62.867 12.626 -61.03 V-50.815 L28.667 -66.856 Q29.967 -68.188 31.819 -68.188 Q33.674 -68.188 35.006 -66.856 Q36.338 -65.524 36.338 -63.733 Q36.338 -61.941 35.006 -60.609 L18.965 -44.568 Z M68.152 -93.757  52.021 -77.624 Q50.689 -76.292 48.897 -76.292 Q47.106 -76.292 45.774 -77.624 Q44.442 -78.956 44.442 -80.811 Q44.442 -82.663 45.774 -83.963 L61.815 -100.004 H51.6 Q49.87 -100.004 48.53 -101.336 Q47.19 -102.668 47.19 -104.459 Q47.19 -106.251 48.477 -107.583 Q49.763 -108.915 51.6 -108.915 H70.586 Q73.309 -108.915 75.186 -107.088 Q77.063 -105.261 77.063 -102.528 V-83.542 Q77.063 -81.705 75.731 -80.374 Q74.399 -79.042 72.562 -79.042 Q70.726 -79.042 69.439 -80.374 Q68.152 -81.705 68.152 -83.542 V-93.757 Z M90.945 38.455 Q87.28 38.455 83.84 37.073 Q80.401 35.693 77.802 33.017 L44.905 -0.442 Q43.887 -1.367 43.762 -2.595 Q43.636 -3.822 44.239 -5.07 Q46.559 -8.743 50.566 -10.156 Q54.572 -11.568 58.821 -10.215 L73.025 -6.113 V-60.666 Q73.025 -63.062 74.686 -64.694 Q76.349 -66.324 78.792 -66.324 Q81.235 -66.324 82.879 -64.694 Q84.522 -63.062 84.522 -60.666 V-13.174 H95.326 V-38.705 Q95.326 -41.19 96.926 -42.833 Q98.524 -44.478 100.967 -44.478 Q103.41 -44.478 105.072 -42.82 Q106.733 -41.164 106.733 -38.729 V-13.174 H117.375 V-32.248 Q117.375 -34.696 119.038 -36.362 Q120.699 -38.028 123.142 -38.028 Q125.586 -38.028 127.229 -36.362 Q128.874 -34.696 128.874 -32.248 V-13.174 H139.678 V-19.379 Q139.678 -21.814 141.276 -23.47 Q142.874 -25.128 145.319 -25.128 Q147.761 -25.128 149.422 -23.47 Q151.085 -21.814 151.085 -19.379 V11.742 Q151.085 22.82 143.267 30.637 Q135.45 38.455 124.372 38.455 H90.945 Z"/></g><g id="Medium-L" transform="matrix(1 0 0 1 1674.31 1556)"><path d="M18.071 -43.833 H30.02 Q31.497 -43.833 32.622 -42.71 Q33.746 -41.588 33.746 -40.067 Q33.746 -38.547 32.622 -37.444 Q31.497 -36.341 30.02 -36.341 H10.786 Q8.42 -36.341 6.856 -37.905 Q5.294 -39.468 5.294 -41.835 V-61.03 Q5.294 -62.523 6.415 -63.658 Q7.537 -64.795 9.038 -64.795 Q10.541 -64.795 11.663 -63.673 Q12.784 -62.551 12.784 -61.03 V-49.08 L30.455 -66.751 Q31.563 -67.872 33.092 -67.872 Q34.62 -67.872 35.741 -66.751 Q36.863 -65.629 36.863 -64.128 Q36.863 -62.625 35.741 -61.502 L18.071 -43.833 Z M68.836 -94.597  51.128 -76.889 Q50.005 -75.767 48.502 -75.767 Q47.001 -75.767 45.879 -76.889 Q44.758 -78.01 44.758 -79.538 Q44.758 -81.067 45.879 -82.175 L63.55 -99.846 H51.6 Q50.123 -99.846 48.999 -100.967 Q47.874 -102.089 47.874 -103.592 Q47.874 -105.093 48.976 -106.215 Q50.079 -107.336 51.6 -107.336 H70.795 Q73.158 -107.336 74.743 -105.774 Q76.328 -104.21 76.328 -101.844 V-82.649 Q76.328 -81.127 75.205 -80.004 Q74.083 -78.884 72.562 -78.884 Q71.042 -78.884 69.939 -80.004 Q68.836 -81.127 68.836 -82.649 V-94.597 Z M93.364 36.876 Q89.766 36.876 86.451 35.547 Q83.134 34.22 80.548 31.6 L48.954 -0.232 Q47.778 -1.367 47.678 -2.911 Q47.578 -4.452 48.393 -5.91 Q50.397 -8.953 53.72 -10.156 Q57.044 -11.359 60.609 -10.32 L75.549 -6.166 V-60.875 Q75.549 -63.099 77.044 -64.579 Q78.537 -66.061 80.78 -66.061 Q83.023 -66.061 84.51 -64.579 Q85.995 -63.099 85.995 -60.875 V-13.805 H96.798 V-38.561 Q96.798 -40.821 98.266 -42.307 Q99.733 -43.794 101.976 -43.794 Q104.219 -43.794 105.712 -42.302 Q107.207 -40.811 107.207 -38.571 V-13.805 H117.85 V-32.108 Q117.85 -34.353 119.343 -35.849 Q120.836 -37.344 123.081 -37.344 Q125.324 -37.344 126.809 -35.849 Q128.295 -34.353 128.295 -32.108 V-13.805 H139.099 V-19.221 Q139.099 -21.461 140.566 -22.952 Q142.034 -24.444 144.277 -24.444 Q146.52 -24.444 148.013 -22.952 Q149.506 -21.461 149.506 -19.221 V10.691 Q149.506 21.517 141.827 29.197 Q134.147 36.876 123.321 36.876 H93.364 Z"/></g><g id="Regular-L" transform="matrix(1 0 0 1 1378.56 1556)"><path d="M17.415 -43.292 H30.637 Q31.928 -43.292 32.895 -42.325 Q33.863 -41.357 33.863 -40.067 Q33.863 -38.777 32.895 -37.81 Q31.928 -36.842 30.637 -36.842 H11.287 Q9.191 -36.842 7.821 -38.213 Q6.45 -39.584 6.45 -41.68 V-61.03 Q6.45 -62.32 7.418 -63.287 Q8.385 -64.255 9.675 -64.255 Q10.965 -64.255 11.933 -63.287 Q12.9 -62.32 12.9 -61.03 V-47.807 L31.766 -66.674 Q32.734 -67.641 34.024 -67.641 Q35.314 -67.641 36.281 -66.674 Q37.249 -65.706 37.249 -64.416 Q37.249 -63.126 36.281 -62.159 L17.415 -43.292 Z M69.338 -95.215  50.471 -76.349 Q49.504 -75.381 48.214 -75.381 Q46.924 -75.381 45.956 -76.349 Q44.989 -77.316 44.989 -78.606 Q44.989 -79.896 45.956 -80.864 L64.823 -99.73 H51.6 Q50.31 -99.73 49.343 -100.697 Q48.375 -101.665 48.375 -102.955 Q48.375 -104.245 49.343 -105.212 Q50.31 -106.18 51.6 -106.18 H70.95 Q73.046 -106.18 74.417 -104.809 Q75.788 -103.439 75.788 -101.343 V-81.992 Q75.788 -80.702 74.82 -79.735 Q73.853 -78.767 72.562 -78.767 Q71.273 -78.767 70.305 -79.735 Q69.338 -80.702 69.338 -81.992 V-95.215 Z M95.138 35.72 Q91.59 35.72 88.365 34.43 Q85.14 33.14 82.56 30.56 L51.922 -0.077 Q50.633 -1.367 50.552 -3.141 Q50.471 -4.915 51.439 -6.527 Q53.212 -9.107 56.034 -10.156 Q58.856 -11.204 61.92 -10.397 L77.4 -6.205 V-61.03 Q77.4 -63.126 78.771 -64.497 Q80.141 -65.867 82.237 -65.867 Q84.334 -65.867 85.704 -64.497 Q87.075 -63.126 87.075 -61.03 V-14.267 H97.879 V-38.455 Q97.879 -40.551 99.249 -41.922 Q100.62 -43.292 102.716 -43.292 Q104.812 -43.292 106.183 -41.922 Q107.554 -40.551 107.554 -38.455 V-14.267 H118.196 V-32.005 Q118.196 -34.101 119.567 -35.472 Q120.938 -36.842 123.034 -36.842 Q125.13 -36.842 126.501 -35.472 Q127.871 -34.101 127.871 -32.005 V-14.267 H138.675 V-19.105 Q138.675 -21.201 140.046 -22.572 Q141.416 -23.942 143.513 -23.942 Q145.609 -23.942 146.979 -22.572 Q148.35 -21.201 148.35 -19.105 V9.92 Q148.35 20.563 140.771 28.141 Q133.192 35.72 122.55 35.72 H95.138 Z"/></g><g id="Light-L" transform="matrix(1 0 0 1 1082.77 1556)"><path d="M17.539 -41.741 H32.498 Q33.606 -41.741 34.385 -40.964 Q35.165 -40.185 35.165 -39.077 Q35.165 -37.971 34.385 -37.189 Q33.606 -36.409 32.498 -36.409 H13.085 Q11.068 -36.409 9.751 -37.725 Q8.435 -39.04 8.435 -41.059 V-60.472 Q8.435 -61.58 9.214 -62.359 Q9.991 -63.139 11.099 -63.139 Q12.205 -63.139 12.987 -62.359 Q13.769 -61.58 13.769 -60.472 V-45.513 L33.442 -65.185 Q34.245 -65.905 35.338 -65.905 Q36.43 -65.905 37.212 -65.185 Q37.931 -64.403 37.931 -63.312 Q37.931 -62.218 37.212 -61.414 L17.539 -41.741 Z M70.889 -95.091  51.216 -75.48 Q50.412 -74.699 49.318 -74.699 Q48.227 -74.699 47.507 -75.48 Q46.725 -76.2 46.725 -77.292 Q46.725 -78.385 47.507 -79.188 L67.117 -98.861 H52.158 Q51.05 -98.861 50.271 -99.64 Q49.491 -100.419 49.491 -101.526 Q49.491 -102.632 50.271 -103.415 Q51.05 -104.195 52.158 -104.195 H71.571 Q73.59 -104.195 74.905 -102.879 Q76.221 -101.562 76.221 -99.545 V-80.132 Q76.221 -79.024 75.442 -78.245 Q74.665 -77.465 73.557 -77.465 Q72.451 -77.465 71.669 -78.245 Q70.889 -79.024 70.889 -80.132 V-95.091 Z M92.78 31.75 Q89.481 31.75 86.504 30.523 Q83.528 29.294 81.072 26.901 L50.807 -3.302 Q49.702 -4.407 49.652 -5.932 Q49.602 -7.458 50.508 -8.761 Q51.91 -10.72 54.112 -11.489 Q56.313 -12.258 58.695 -11.638 L76.531 -7.074 V-61.775 Q76.531 -63.371 77.563 -64.402 Q78.595 -65.434 80.193 -65.434 Q81.791 -65.434 82.82 -64.402 Q83.85 -63.371 83.85 -61.775 V-14.577 H96.142 V-39.943 Q96.142 -41.541 97.174 -42.572 Q98.206 -43.602 99.804 -43.602 Q101.4 -43.602 102.431 -42.572 Q103.46 -41.541 103.46 -39.943 V-14.577 H115.715 V-33.493 Q115.715 -35.091 116.747 -36.122 Q117.779 -37.152 119.377 -37.152 Q120.975 -37.152 122.003 -36.122 Q123.034 -35.091 123.034 -33.493 V-14.577 H135.326 V-20.593 Q135.326 -22.191 136.358 -23.222 Q137.39 -24.252 138.986 -24.252 Q140.584 -24.252 141.615 -23.222 Q142.643 -22.191 142.643 -20.593 V7.563 Q142.643 17.586 135.561 24.668 Q128.479 31.75 118.469 31.75 H92.78 Z"/></g><g id="Thin-L" transform="matrix(1 0 0 1 787.282 1556)"><path d="M17.663 -40.192 H34.359 Q35.285 -40.192 35.877 -39.601 Q36.467 -39.013 36.467 -38.089 Q36.467 -37.165 35.877 -36.57 Q35.285 -35.975 34.359 -35.975 H14.885 Q12.944 -35.975 11.681 -37.236 Q10.42 -38.499 10.42 -40.44 V-59.914 Q10.42 -60.84 11.009 -61.432 Q11.599 -62.022 12.523 -62.022 Q13.445 -62.022 14.042 -61.432 Q14.637 -60.84 14.637 -59.914 V-43.218 L35.115 -63.697 Q35.756 -64.168 36.651 -64.168 Q37.547 -64.168 38.142 -63.697 Q38.613 -63.102 38.613 -62.206 Q38.613 -61.311 38.142 -60.67 L17.663 -40.192 Z M72.438 -94.967  51.96 -74.612 Q51.319 -74.017 50.424 -74.017 Q49.528 -74.017 49.057 -74.612 Q48.462 -75.083 48.462 -75.979 Q48.462 -76.874 49.057 -77.515 L69.412 -97.993 H52.716 Q51.79 -97.993 51.198 -98.584 Q50.608 -99.172 50.608 -100.096 Q50.608 -101.02 51.198 -101.615 Q51.79 -102.21 52.716 -102.21 H72.19 Q74.131 -102.21 75.394 -100.949 Q76.655 -99.686 76.655 -97.745 V-78.271 Q76.655 -77.345 76.066 -76.753 Q75.476 -76.163 74.552 -76.163 Q73.63 -76.163 73.033 -76.753 Q72.438 -77.345 72.438 -78.271 V-94.967 Z M90.424 27.782 Q87.373 27.782 84.643 26.616 Q81.915 25.45 79.583 23.242 L49.689 -6.527 Q48.772 -7.445 48.754 -8.724 Q48.735 -10.001 49.578 -10.993 Q50.608 -12.332 52.189 -12.823 Q53.77 -13.313 55.47 -12.878 L75.663 -7.942 V-62.518 Q75.663 -63.616 76.357 -64.308 Q77.048 -65 78.148 -65 Q79.248 -65 79.936 -64.308 Q80.625 -63.616 80.625 -62.518 V-14.888 H94.405 V-41.432 Q94.405 -42.53 95.099 -43.222 Q95.791 -43.913 96.89 -43.913 Q97.99 -43.913 98.679 -43.222 Q99.367 -42.53 99.367 -41.432 V-14.888 H113.235 V-34.982 Q113.235 -36.08 113.928 -36.772 Q114.62 -37.463 115.719 -37.463 Q116.819 -37.463 117.508 -36.772 Q118.196 -36.08 118.196 -34.982 V-14.888 H131.977 V-22.082 Q131.977 -23.18 132.67 -23.872 Q133.362 -24.563 134.462 -24.563 Q135.561 -24.563 136.25 -23.872 Q136.938 -23.18 136.938 -22.082 V5.207 Q136.938 14.609 130.353 21.195 Q123.766 27.782 114.388 27.782 H90.424 Z"/></g><g id="Ultralight-L" transform="matrix(1 0 0 1 491.205 1556)"><path d="M17.738 -39.261 H35.475 Q36.293 -39.261 36.77 -38.786 Q37.249 -38.308 37.249 -37.496 Q37.249 -36.681 36.77 -36.197 Q36.293 -35.714 35.475 -35.714 H15.964 Q14.069 -35.714 12.84 -36.944 Q11.61 -38.173 11.61 -40.067 V-59.579 Q11.61 -60.396 12.086 -60.874 Q12.563 -61.352 13.376 -61.352 Q14.19 -61.352 14.674 -60.874 Q15.158 -60.396 15.158 -59.579 V-41.841 L36.12 -62.804 Q36.662 -63.126 37.439 -63.126 Q38.216 -63.126 38.7 -62.804 Q39.023 -62.32 39.023 -61.543 Q39.023 -60.766 38.7 -60.224 L17.738 -39.261 Z M73.369 -94.892  52.406 -74.091 Q51.864 -73.607 51.087 -73.607 Q50.31 -73.607 49.988 -74.091 Q49.504 -74.414 49.504 -75.191 Q49.504 -75.968 49.988 -76.51 L70.789 -97.472 H53.051 Q52.234 -97.472 51.756 -97.948 Q51.278 -98.425 51.278 -99.238 Q51.278 -100.052 51.756 -100.536 Q52.234 -101.02 53.051 -101.02 H72.562 Q74.457 -101.02 75.688 -99.791 Q76.916 -98.561 76.916 -96.666 V-77.155 Q76.916 -76.337 76.441 -75.86 Q75.963 -75.381 75.151 -75.381 Q74.336 -75.381 73.853 -75.86 Q73.369 -76.337 73.369 -77.155 V-94.892 Z M89.01 25.4 Q86.108 25.4 83.528 24.271 Q80.948 23.143 78.69 21.046 L49.02 -8.462 Q48.214 -9.269 48.214 -10.397 Q48.214 -11.526 49.02 -12.332 Q49.826 -13.3 51.036 -13.622 Q52.245 -13.945 53.535 -13.622 L75.142 -8.462 V-62.965 Q75.142 -63.763 75.633 -64.25 Q76.121 -64.739 76.923 -64.739 Q77.722 -64.739 78.206 -64.25 Q78.69 -63.763 78.69 -62.965 V-15.074 H93.364 V-42.325 Q93.364 -43.123 93.854 -43.61 Q94.343 -44.099 95.144 -44.099 Q95.944 -44.099 96.428 -43.61 Q96.911 -43.123 96.911 -42.325 V-15.074 H111.746 V-35.875 Q111.746 -36.673 112.236 -37.162 Q112.725 -37.649 113.526 -37.649 Q114.326 -37.649 114.81 -37.162 Q115.294 -36.673 115.294 -35.875 V-15.074 H129.968 V-22.975 Q129.968 -23.773 130.458 -24.262 Q130.946 -24.749 131.748 -24.749 Q132.548 -24.749 133.031 -24.262 Q133.515 -23.773 133.515 -22.975 V3.793 Q133.515 12.823 127.226 19.111 Q120.938 25.4 111.94 25.4 H89.01 Z"/></g><g id="Bold-M" transform="matrix(1 0 0 1 2281.8 1126)"><path d="M20.5 -44.98 H23.5 Q26 -44.98 27.75 -43.23 Q29.5 -41.48 29.5 -38.98 Q29.5 -36.48 27.75 -34.73 Q26 -32.98 23.5 -32.98 H7.875 Q4.625 -32.98 2.312 -35.292 Q0 -37.605 0 -40.855 V-56.48 Q0 -58.98 1.75 -60.73 Q3.5 -62.48 6 -62.48 Q8.5 -62.48 10.25 -60.73 Q12 -58.98 12 -56.48 V-53.48 L19.125 -60.605 Q20.875 -62.355 23.375 -62.355 Q25.875 -62.355 27.625 -60.605 Q29.375 -58.855 29.375 -56.355 Q29.375 -53.855 27.625 -52.105 L20.5 -44.98 Z M50.25 -74.73  43.125 -67.605 Q41.375 -65.855 38.875 -65.855 Q36.375 -65.855 34.625 -67.605 Q32.875 -69.355 32.875 -71.855 Q32.875 -74.355 34.625 -76.105 L41.75 -83.23 H38.75 Q36.25 -83.23 34.5 -84.98 Q32.75 -86.73 32.75 -89.23 Q32.75 -91.73 34.5 -93.48 Q36.25 -95.23 38.75 -95.23 H54.375 Q57.625 -95.23 59.938 -92.917 Q62.25 -90.605 62.25 -87.355 V-71.73 Q62.25 -69.23 60.5 -67.48 Q58.75 -65.73 56.25 -65.73 Q53.75 -65.73 52 -67.48 Q50.25 -69.23 50.25 -71.73 V-74.73 Z M66.5 24.77 Q63.25 24.77 60.125 23.52 Q57 22.27 54.75 19.895 L28.625 -7.355 Q27.75 -8.23 27.75 -9.355 Q27.75 -10.48 28.5 -11.48 Q31.75 -15.48 36.562 -16.792 Q41.375 -18.105 46.125 -16.355 L52 -14.23 V-54.48 Q52 -57.23 53.938 -59.167 Q55.875 -61.105 58.625 -61.105 Q61.375 -61.105 63.312 -59.167 Q65.25 -57.23 65.25 -54.48 V-18.23 H70.25 V-35.73 Q70.25 -38.48 72.188 -40.417 Q74.125 -42.355 76.875 -42.355 Q79.625 -42.355 81.562 -40.417 Q83.5 -38.48 83.5 -35.73 V-18.23 H88.5 V-30.73 Q88.5 -33.48 90.438 -35.417 Q92.375 -37.355 95.125 -37.355 Q97.875 -37.355 99.812 -35.417 Q101.75 -33.48 101.75 -30.73 V-18.23 H106.75 V-20.73 Q106.75 -23.48 108.688 -25.417 Q110.625 -27.355 113.375 -27.355 Q116.125 -27.355 118.062 -25.417 Q120 -23.48 120 -20.73 V3.145 Q120 12.145 113.688 18.458 Q107.375 24.77 98.375 24.77 H66.5 Z"/></g><g id="Semibold-M" transform="matrix(1 0 0 1 1985.97 1126)"><path d="M19.305 -44.001 H24.695 Q26.815 -44.001 28.266 -42.551 Q29.718 -41.1 29.718 -38.98 Q29.718 -36.86 28.266 -35.409 Q26.815 -33.959 24.695 -33.959 H8.799 Q6.037 -33.959 4.106 -35.89 Q2.174 -37.822 2.174 -40.584 V-56.48 Q2.174 -58.6 3.625 -60.051 Q5.076 -61.501 7.195 -61.501 Q9.315 -61.501 10.766 -60.051 Q12.217 -58.6 12.217 -56.48 V-51.089 L21.57 -60.442 Q23.049 -61.92 25.114 -61.92 Q27.179 -61.92 28.657 -60.442 Q30.136 -58.964 30.136 -56.899 Q30.136 -54.834 28.657 -53.355 L19.305 -44.001 Z M51.229 -75.925  41.875 -66.572 Q40.396 -65.094 38.331 -65.094 Q36.266 -65.094 34.788 -66.572 Q33.31 -68.051 33.31 -70.116 Q33.31 -72.181 34.788 -73.66 L44.141 -83.012 H38.75 Q36.63 -83.012 35.179 -84.464 Q33.729 -85.915 33.729 -88.035 Q33.729 -90.154 35.179 -91.605 Q36.63 -93.056 38.75 -93.056 H54.646 Q57.407 -93.056 59.34 -91.124 Q61.271 -89.192 61.271 -86.431 V-70.535 Q61.271 -68.415 59.821 -66.964 Q58.37 -65.512 56.25 -65.512 Q54.13 -65.512 52.679 -66.964 Q51.229 -68.415 51.229 -70.535 V-75.925 Z M69.815 22.596 Q66.674 22.596 63.711 21.4 Q60.75 20.205 58.554 17.939 L34.222 -7.084 Q33.076 -8.23 33.13 -9.817 Q33.185 -11.404 34.26 -12.621 Q36.968 -15.751 40.856 -16.792 Q44.744 -17.834 48.57 -16.517 L55.477 -14.284 V-54.806 Q55.477 -57.284 57.199 -59.005 Q58.919 -60.725 61.396 -60.725 Q63.875 -60.725 65.595 -59.005 Q67.315 -57.284 67.315 -54.806 V-19.1 H72.315 V-35.512 Q72.315 -37.991 74.035 -39.711 Q75.755 -41.431 78.234 -41.431 Q80.713 -41.431 82.433 -39.711 Q84.153 -37.991 84.153 -35.512 V-19.1 H89.153 V-30.512 Q89.153 -32.991 90.873 -34.711 Q92.593 -36.431 95.071 -36.431 Q97.549 -36.431 99.269 -34.711 Q100.989 -32.991 100.989 -30.512 V-19.1 H105.989 V-20.512 Q105.989 -22.991 107.709 -24.711 Q109.43 -26.431 111.907 -26.431 Q114.386 -26.431 116.106 -24.711 Q117.826 -22.991 117.826 -20.512 V1.678 Q117.826 10.351 111.704 16.474 Q105.581 22.596 96.907 22.596 H69.815 Z"/></g><g id="Medium-M" transform="matrix(1 0 0 1 1689.91 1126)"><path d="M18.407 -43.267 H25.593 Q27.426 -43.267 28.654 -42.041 Q29.88 -40.814 29.88 -38.98 Q29.88 -37.146 28.654 -35.919 Q27.426 -34.692 25.593 -34.692 H9.491 Q7.098 -34.692 5.451 -36.339 Q3.804 -37.985 3.804 -40.38 V-56.48 Q3.804 -58.314 5.031 -59.541 Q6.259 -60.767 8.092 -60.767 Q9.926 -60.767 11.154 -59.541 Q12.38 -58.314 12.38 -56.48 V-49.295 L23.405 -60.32 Q24.679 -61.594 26.419 -61.594 Q28.157 -61.594 29.433 -60.32 Q30.706 -59.045 30.706 -57.306 Q30.706 -55.567 29.433 -54.292 L18.407 -43.267 Z M51.962 -76.822  40.938 -65.797 Q39.663 -64.524 37.924 -64.524 Q36.185 -64.524 34.91 -65.797 Q33.636 -67.072 33.636 -68.811 Q33.636 -70.551 34.91 -71.825 L45.935 -82.85 H38.75 Q36.916 -82.85 35.689 -84.076 Q34.462 -85.304 34.462 -87.137 Q34.462 -88.971 35.689 -90.199 Q36.916 -91.426 38.75 -91.426 H54.85 Q57.245 -91.426 58.891 -89.779 Q60.538 -88.132 60.538 -85.739 V-69.637 Q60.538 -67.804 59.311 -66.576 Q58.084 -65.35 56.25 -65.35 Q54.416 -65.35 53.189 -66.576 Q51.962 -67.804 51.962 -69.637 V-76.822 Z M72.301 20.966 Q69.241 20.966 66.403 19.811 Q63.562 18.656 61.407 16.471 L38.421 -6.88 Q37.07 -8.23 37.166 -10.164 Q37.261 -12.096 38.581 -13.477 Q40.88 -15.955 44.076 -16.792 Q47.271 -17.63 50.405 -16.64 L58.087 -14.325 V-55.051 Q58.087 -57.325 59.644 -58.882 Q61.201 -60.439 63.475 -60.439 Q65.75 -60.439 67.308 -58.882 Q68.864 -57.325 68.864 -55.051 V-19.751 H73.864 V-35.35 Q73.864 -37.624 75.421 -39.181 Q76.979 -40.739 79.252 -40.739 Q81.528 -40.739 83.084 -39.181 Q84.641 -37.624 84.641 -35.35 V-19.751 H89.641 V-30.35 Q89.641 -32.624 91.199 -34.181 Q92.755 -35.739 95.03 -35.739 Q97.304 -35.739 98.861 -34.181 Q100.419 -32.624 100.419 -30.35 V-19.751 H105.419 V-20.35 Q105.419 -22.624 106.975 -24.181 Q108.532 -25.739 110.808 -25.739 Q113.081 -25.739 114.639 -24.181 Q116.196 -22.624 116.196 -20.35 V0.578 Q116.196 9.006 110.216 14.986 Q104.236 20.966 95.808 20.966 H72.301 Z"/></g><g id="Regular-M" transform="matrix(1 0 0 1 1394.06 1126)"><path d="M17.75 -42.73 H26.25 Q27.875 -42.73 28.938 -41.667 Q30 -40.605 30 -38.98 Q30 -37.355 28.938 -36.292 Q27.875 -35.23 26.25 -35.23 H10 Q7.875 -35.23 6.438 -36.667 Q5 -38.105 5 -40.23 V-56.48 Q5 -58.105 6.062 -59.167 Q7.125 -60.23 8.75 -60.23 Q10.375 -60.23 11.438 -59.167 Q12.5 -58.105 12.5 -56.48 V-47.98 L24.75 -60.23 Q25.875 -61.355 27.375 -61.355 Q28.875 -61.355 30 -60.23 Q31.125 -59.105 31.125 -57.605 Q31.125 -56.105 30 -54.98 L17.75 -42.73 Z M52.5 -77.48  40.25 -65.23 Q39.125 -64.105 37.625 -64.105 Q36.125 -64.105 35 -65.23 Q33.875 -66.355 33.875 -67.855 Q33.875 -69.355 35 -70.48 L47.25 -82.73 H38.75 Q37.125 -82.73 36.062 -83.792 Q35 -84.855 35 -86.48 Q35 -88.105 36.062 -89.167 Q37.125 -90.23 38.75 -90.23 H55 Q57.125 -90.23 58.562 -88.792 Q60 -87.355 60 -85.23 V-68.98 Q60 -67.355 58.938 -66.292 Q57.875 -65.23 56.25 -65.23 Q54.625 -65.23 53.562 -66.292 Q52.5 -67.355 52.5 -68.98 V-77.48 Z M74.125 19.77 Q71.125 19.77 68.375 18.645 Q65.625 17.52 63.5 15.395 L41.5 -6.73 Q40 -8.23 40.125 -10.417 Q40.25 -12.605 41.75 -14.105 Q43.75 -16.105 46.438 -16.792 Q49.125 -17.48 51.75 -16.73 L60 -14.355 V-55.23 Q60 -57.355 61.438 -58.792 Q62.875 -60.23 65 -60.23 Q67.125 -60.23 68.562 -58.792 Q70 -57.355 70 -55.23 V-20.23 H75 V-35.23 Q75 -37.355 76.438 -38.792 Q77.875 -40.23 80 -40.23 Q82.125 -40.23 83.562 -38.792 Q85 -37.355 85 -35.23 V-20.23 H90 V-30.23 Q90 -32.355 91.438 -33.792 Q92.875 -35.23 95 -35.23 Q97.125 -35.23 98.562 -33.792 Q100 -32.355 100 -30.23 V-20.23 H105 Q105 -22.355 106.438 -23.792 Q107.875 -25.23 110 -25.23 Q112.125 -25.23 113.562 -23.792 Q115 -22.355 115 -20.23 V-0.23 Q115 8.02 109.125 13.895 Q103.25 19.77 95 19.77 H74.125 Z"/></g><g id="Light-M" transform="matrix(1 0 0 1 1098.18 1126)"><path d="M16.692 -41.191 H27.019 Q28.311 -41.191 29.155 -40.347 Q30 -39.504 30 -38.212 Q30 -36.922 29.155 -36.076 Q28.311 -35.23 27.019 -35.23 H11.057 Q9.137 -35.23 7.838 -36.529 Q6.539 -37.829 6.539 -39.749 V-55.711 Q6.539 -57.002 7.383 -57.847 Q8.226 -58.691 9.518 -58.691 Q10.807 -58.691 11.654 -57.847 Q12.5 -57.002 12.5 -55.711 V-45.384 L26 -58.884 Q26.902 -59.769 28.105 -59.769 Q29.308 -59.769 30.192 -58.884 Q31.078 -57.999 31.078 -56.796 Q31.078 -55.594 30.192 -54.691 L16.692 -41.191 Z M54.039 -78.537  40.539 -65.037 Q39.636 -64.152 38.434 -64.152 Q37.231 -64.152 36.346 -65.037 Q35.461 -65.922 35.461 -67.125 Q35.461 -68.327 36.346 -69.23 L49.846 -82.73 H39.519 Q38.227 -82.73 37.383 -83.574 Q36.539 -84.417 36.539 -85.709 Q36.539 -86.999 37.383 -87.845 Q38.227 -88.691 39.519 -88.691 H55.481 Q57.401 -88.691 58.701 -87.392 Q60 -86.092 60 -84.172 V-68.211 Q60 -66.919 59.156 -66.075 Q58.312 -65.23 57.021 -65.23 Q55.731 -65.23 54.885 -66.075 Q54.039 -66.919 54.039 -68.211 V-78.537 Z M72.201 16.693 Q69.442 16.693 66.956 15.664 Q64.471 14.635 62.49 12.655 L40.297 -9.566 Q39.086 -10.779 39.164 -12.557 Q39.24 -14.336 40.5 -15.547 Q42.068 -17.066 44.13 -17.561 Q46.193 -18.057 48.24 -17.499 L59.326 -14.595 V-55.807 Q59.326 -57.401 60.405 -58.479 Q61.484 -59.556 63.079 -59.556 Q64.672 -59.556 65.75 -58.479 Q66.826 -57.401 66.826 -55.807 V-20.134 H73.894 V-37.057 Q73.894 -38.651 74.972 -39.729 Q76.051 -40.807 77.646 -40.807 Q79.24 -40.807 80.317 -39.729 Q81.394 -38.651 81.394 -37.057 V-20.134 H88.51 V-32.057 Q88.51 -33.651 89.588 -34.729 Q90.666 -35.807 92.261 -35.807 Q93.855 -35.807 94.933 -34.729 Q96.009 -33.651 96.009 -32.057 V-20.134 H103.076 V-22.057 Q103.076 -23.651 104.155 -24.729 Q105.234 -25.807 106.829 -25.807 Q108.422 -25.807 109.5 -24.729 Q110.576 -23.651 110.576 -22.057 V-2.057 Q110.576 5.713 105.086 11.203 Q99.596 16.693 91.836 16.693 H72.201 Z"/></g><g id="Thin-M" transform="matrix(1 0 0 1 802.565 1126)"><path d="M15.635 -39.652 H27.789 Q28.746 -39.652 29.374 -39.027 Q30 -38.402 30 -37.446 Q30 -36.49 29.374 -35.86 Q28.746 -35.23 27.789 -35.23 H12.115 Q10.399 -35.23 9.238 -36.391 Q8.078 -37.552 8.078 -39.269 V-54.941 Q8.078 -55.9 8.703 -56.526 Q9.328 -57.152 10.284 -57.152 Q11.24 -57.152 11.87 -56.526 Q12.5 -55.9 12.5 -54.941 V-42.787 L27.25 -57.537 Q27.929 -58.182 28.835 -58.182 Q29.74 -58.182 30.385 -57.537 Q31.029 -56.894 31.029 -55.987 Q31.029 -55.082 30.385 -54.402 L15.635 -39.652 Z M55.578 -79.595  40.828 -64.845 Q40.148 -64.201 39.242 -64.201 Q38.336 -64.201 37.693 -64.845 Q37.047 -65.49 37.047 -66.395 Q37.047 -67.301 37.693 -67.98 L52.443 -82.73 H40.289 Q39.33 -82.73 38.704 -83.355 Q38.078 -83.981 38.078 -84.937 Q38.078 -85.894 38.704 -86.524 Q39.33 -87.152 40.289 -87.152 H55.961 Q57.678 -87.152 58.839 -85.992 Q60 -84.831 60 -83.115 V-67.441 Q60 -66.484 59.375 -65.856 Q58.749 -65.23 57.792 -65.23 Q56.836 -65.23 56.206 -65.856 Q55.578 -66.484 55.578 -67.441 V-79.595 Z M70.279 13.616 Q67.76 13.616 65.539 12.684 Q63.318 11.751 61.481 9.914 L39.096 -12.402 Q38.172 -13.326 38.203 -14.696 Q38.231 -16.066 39.25 -16.99 Q40.385 -18.027 41.822 -18.331 Q43.26 -18.634 44.731 -18.269 L58.654 -14.836 V-56.384 Q58.654 -57.446 59.374 -58.165 Q60.094 -58.884 61.157 -58.884 Q62.221 -58.884 62.938 -58.165 Q63.654 -57.446 63.654 -56.384 V-20.037 H72.789 V-38.884 Q72.789 -39.946 73.509 -40.665 Q74.228 -41.384 75.291 -41.384 Q76.356 -41.384 77.073 -40.665 Q77.789 -39.946 77.789 -38.884 V-20.037 H87.019 V-33.884 Q87.019 -34.946 87.739 -35.665 Q88.459 -36.384 89.522 -36.384 Q90.586 -36.384 91.302 -35.665 Q92.019 -34.946 92.019 -33.884 V-20.037 H101.154 V-23.884 Q101.154 -24.946 101.874 -25.665 Q102.594 -26.384 103.657 -26.384 Q104.721 -26.384 105.438 -25.665 Q106.154 -24.946 106.154 -23.884 V-3.884 Q106.154 3.405 101.049 8.51 Q95.942 13.616 88.672 13.616 H70.279 Z"/></g><g id="Ultralight-M" transform="matrix(1 0 0 1 506.415 1126)"><path d="M15 -38.73 H28.25 Q29.009 -38.73 29.504 -38.236 Q30 -37.741 30 -36.986 Q30 -36.23 29.504 -35.73 Q29.009 -35.23 28.25 -35.23 H12.75 Q11.156 -35.23 10.079 -36.309 Q9 -37.386 9 -38.98 V-54.48 Q9 -55.239 9.494 -55.734 Q9.989 -56.23 10.744 -56.23 Q11.5 -56.23 12 -55.734 Q12.5 -55.239 12.5 -54.48 V-41.23 L28 -56.73 Q28.545 -57.23 29.273 -57.23 Q30 -57.23 30.5 -56.73 Q31 -56.23 31 -55.502 Q31 -54.775 30.5 -54.23 L15 -38.73 Z M56.5 -80.23  41 -64.73 Q40.455 -64.23 39.727 -64.23 Q39 -64.23 38.5 -64.73 Q38 -65.23 38 -65.957 Q38 -66.685 38.5 -67.23 L54 -82.73 H40.75 Q39.991 -82.73 39.496 -83.224 Q39 -83.719 39 -84.474 Q39 -85.23 39.496 -85.73 Q39.991 -86.23 40.75 -86.23 H56.25 Q57.844 -86.23 58.922 -85.152 Q60 -84.074 60 -82.48 V-66.98 Q60 -66.221 59.506 -65.726 Q59.011 -65.23 58.256 -65.23 Q57.5 -65.23 57 -65.726 Q56.5 -66.221 56.5 -66.98 V-80.23 Z M69.125 11.77 Q66.75 11.77 64.688 10.895 Q62.625 10.02 60.875 8.27 L38.375 -14.105 Q37.625 -14.855 37.625 -15.98 Q37.625 -17.105 38.5 -17.855 Q39.375 -18.605 40.438 -18.792 Q41.5 -18.98 42.625 -18.73 L58.25 -14.98 V-56.73 Q58.25 -57.474 58.755 -57.976 Q59.259 -58.48 60.005 -58.48 Q60.75 -58.48 61.25 -57.976 Q61.75 -57.474 61.75 -56.73 V-19.98 H72.125 V-39.98 Q72.125 -40.724 72.63 -41.226 Q73.134 -41.73 73.88 -41.73 Q74.625 -41.73 75.125 -41.226 Q75.625 -40.724 75.625 -39.98 V-19.98 H86.125 V-34.98 Q86.125 -35.724 86.63 -36.227 Q87.134 -36.73 87.88 -36.73 Q88.625 -36.73 89.125 -36.227 Q89.625 -35.724 89.625 -34.98 V-19.98 H100 V-24.98 Q100 -25.724 100.505 -26.227 Q101.009 -26.73 101.755 -26.73 Q102.5 -26.73 103 -26.227 Q103.5 -25.724 103.5 -24.98 V-4.98 Q103.5 2.02 98.625 6.895 Q93.75 11.77 86.775 11.77 H69.125 Z"/></g><g id="Bold-S" transform="matrix(1 0 0 1 2294.23 696)"><path d="M14.991 -46.473 H19.133 Q20.849 -46.473 22.062 -45.26 Q23.276 -44.047 23.276 -42.331 Q23.276 -40.615 22.062 -39.402 Q20.849 -38.189 19.133 -38.189 H6.608 Q4.211 -38.189 2.5 -39.9 Q0.789 -41.611 0.789 -44.008 V-56.533 Q0.789 -58.249 2.002 -59.462 Q3.215 -60.675 4.931 -60.675 Q6.647 -60.675 7.86 -59.462 Q9.074 -58.249 9.074 -56.533 V-52.391 L14.202 -57.519 Q15.421 -58.703 17.179 -58.703 Q18.936 -58.703 20.12 -57.519 Q21.303 -56.336 21.303 -54.578 Q21.303 -52.821 20.12 -51.602 L14.991 -46.473 Z M36.097 -67.579  30.968 -62.45 Q29.749 -61.267 27.992 -61.267 Q26.234 -61.267 25.051 -62.45 Q23.867 -63.634 23.867 -65.391 Q23.867 -67.149 25.051 -68.368 L30.179 -73.496 H26.037 Q24.321 -73.496 23.108 -74.71 Q21.895 -75.923 21.895 -77.639 Q21.895 -79.355 23.108 -80.568 Q24.321 -81.781 26.037 -81.781 H38.562 Q40.959 -81.781 42.67 -80.07 Q44.381 -78.359 44.381 -75.962 V-63.437 Q44.381 -61.721 43.168 -60.508 Q41.955 -59.294 40.239 -59.294 Q38.523 -59.294 37.31 -60.508 Q36.097 -61.721 36.097 -63.437 V-67.579 Z M51.877 11.321 Q49.312 11.321 46.847 10.335 Q44.381 9.349 42.606 7.475 L22.289 -13.631 Q21.698 -14.223 21.845 -15.012 Q21.993 -15.801 22.585 -16.59 Q24.952 -19.549 28.404 -20.486 Q31.856 -21.422 35.406 -20.14 L41.028 -18.464 V-50.024 Q41.028 -52.026 42.437 -53.441 Q43.847 -54.856 45.84 -54.856 Q47.833 -54.856 49.263 -53.441 Q50.693 -52.026 50.693 -50.024 V-24.184 H55.427 V-36.782 Q55.427 -38.78 56.837 -40.211 Q58.246 -41.641 60.239 -41.641 Q62.232 -41.641 63.662 -40.225 Q65.093 -38.81 65.093 -36.808 V-24.184 H69.827 V-32.074 Q69.827 -34.076 71.236 -35.491 Q72.645 -36.907 74.638 -36.907 Q76.632 -36.907 78.062 -35.491 Q79.492 -34.076 79.492 -32.074 V-24.184 H84.226 V-27.34 Q84.226 -29.342 85.635 -30.757 Q87.044 -32.173 89.038 -32.173 Q91.031 -32.173 92.461 -30.757 Q93.891 -29.342 93.891 -27.34 V-6.53 Q93.891 0.965 88.713 6.143 Q83.535 11.321 76.04 11.321 H51.877 Z"/></g><g id="Semibold-S" transform="matrix(1 0 0 1 1998.1 696)"><path d="M14.048 -45.701 H20.076 Q21.492 -45.701 22.47 -44.725 Q23.447 -43.747 23.447 -42.331 Q23.447 -40.915 22.47 -39.937 Q21.492 -38.961 20.076 -38.961 H7.337 Q5.326 -38.961 3.915 -40.371 Q2.504 -41.783 2.504 -43.794 V-56.533 Q2.504 -57.949 3.481 -58.927 Q4.459 -59.903 5.874 -59.903 Q7.29 -59.903 8.268 -58.927 Q9.245 -57.949 9.245 -56.533 V-50.504 L16.131 -57.391 Q17.136 -58.36 18.55 -58.36 Q19.965 -58.36 20.934 -57.391 Q21.904 -56.422 21.904 -55.007 Q21.904 -53.593 20.934 -52.588 L14.048 -45.701 Z M36.869 -68.522  29.982 -61.636 Q28.977 -60.666 27.563 -60.666 Q26.148 -60.666 25.179 -61.636 Q24.21 -62.605 24.21 -64.02 Q24.21 -65.434 25.179 -66.439 L32.066 -73.325 H26.037 Q24.621 -73.325 23.643 -74.302 Q22.667 -75.28 22.667 -76.696 Q22.667 -78.111 23.643 -79.089 Q24.621 -80.066 26.037 -80.066 H38.776 Q40.787 -80.066 42.199 -78.655 Q43.609 -77.244 43.609 -75.233 V-62.494 Q43.609 -61.078 42.633 -60.1 Q41.655 -59.123 40.239 -59.123 Q38.823 -59.123 37.845 -60.1 Q36.869 -61.078 36.869 -62.494 V-68.522 Z M54.492 9.606 Q52.014 9.606 49.676 8.662 Q47.34 7.719 45.607 5.931 L26.706 -13.417 Q25.9 -14.223 26.09 -15.377 Q26.282 -16.53 27.13 -17.49 Q29.069 -19.763 31.792 -20.486 Q34.514 -21.208 37.335 -20.269 L43.772 -18.506 V-50.281 Q43.772 -52.068 45.009 -53.313 Q46.248 -54.557 48.026 -54.557 Q49.806 -54.557 51.064 -53.313 Q52.323 -52.068 52.323 -50.281 V-24.87 H57.057 V-36.611 Q57.057 -38.395 58.294 -39.653 Q59.532 -40.912 61.311 -40.912 Q63.09 -40.912 64.349 -39.668 Q65.607 -38.424 65.607 -36.636 V-24.87 H70.341 V-31.902 Q70.341 -33.69 71.579 -34.934 Q72.817 -36.178 74.595 -36.178 Q76.374 -36.178 77.633 -34.934 Q78.891 -33.69 78.891 -31.902 V-24.87 H83.625 V-27.168 Q83.625 -28.956 84.863 -30.2 Q86.101 -31.444 87.88 -31.444 Q89.659 -31.444 90.917 -30.2 Q92.176 -28.956 92.176 -27.168 V-7.688 Q92.176 -0.45 87.148 4.578 Q82.12 9.606 74.882 9.606 H54.492 Z"/></g><g id="Medium-S" transform="matrix(1 0 0 1 1701.85 696)"><path d="M13.34 -45.122 H20.784 Q21.975 -45.122 22.775 -44.322 Q23.575 -43.521 23.575 -42.331 Q23.575 -41.141 22.775 -40.34 Q21.975 -39.54 20.784 -39.54 H7.883 Q6.162 -39.54 4.977 -40.725 Q3.79 -41.911 3.79 -43.633 V-56.533 Q3.79 -57.723 4.591 -58.524 Q5.392 -59.324 6.582 -59.324 Q7.773 -59.324 8.573 -58.524 Q9.373 -57.723 9.373 -56.533 V-49.089 L17.579 -57.294 Q18.423 -58.102 19.58 -58.102 Q20.737 -58.102 21.546 -57.294 Q22.353 -56.486 22.353 -55.329 Q22.353 -54.172 21.546 -53.328 L13.34 -45.122 Z M37.448 -69.23  29.242 -61.024 Q28.398 -60.217 27.241 -60.217 Q26.084 -60.217 25.276 -61.024 Q24.468 -61.833 24.468 -62.99 Q24.468 -64.147 25.276 -64.991 L33.481 -73.197 H26.037 Q24.847 -73.197 24.046 -73.997 Q23.246 -74.797 23.246 -75.988 Q23.246 -77.178 24.046 -77.979 Q24.847 -78.78 26.037 -78.78 H38.937 Q40.659 -78.78 41.845 -77.593 Q43.03 -76.408 43.03 -74.687 V-61.786 Q43.03 -60.595 42.23 -59.795 Q41.429 -58.995 40.239 -58.995 Q39.049 -58.995 38.248 -59.795 Q37.448 -60.595 37.448 -61.786 V-69.23 Z M56.454 8.32 Q54.04 8.32 51.8 7.409 Q49.559 6.497 47.859 4.773 L30.018 -13.256 Q29.051 -14.223 29.275 -15.65 Q29.498 -17.076 30.539 -18.166 Q32.156 -19.923 34.332 -20.486 Q36.508 -21.048 38.783 -20.365 L45.831 -18.539 V-50.474 Q45.831 -52.101 46.94 -53.216 Q48.049 -54.331 49.667 -54.331 Q51.285 -54.331 52.415 -53.216 Q53.544 -52.101 53.544 -50.474 V-25.384 H58.278 V-36.482 Q58.278 -38.105 59.388 -39.235 Q60.497 -40.365 62.115 -40.365 Q63.733 -40.365 64.863 -39.25 Q65.993 -38.135 65.993 -36.508 V-25.384 H70.727 V-31.774 Q70.727 -33.401 71.836 -34.516 Q72.945 -35.631 74.563 -35.631 Q76.181 -35.631 77.311 -34.516 Q78.441 -33.401 78.441 -31.774 V-25.384 H83.175 V-27.04 Q83.175 -28.667 84.284 -29.782 Q85.393 -30.897 87.012 -30.897 Q88.629 -30.897 89.76 -29.782 Q90.89 -28.667 90.89 -27.04 V-8.556 Q90.89 -1.511 85.974 3.404 Q81.059 8.32 74.014 8.32 H56.454 Z"/></g><g id="Regular-S" transform="matrix(1 0 0 1 1405.73 696)"><path d="M12.821 -44.698 H21.303 Q22.329 -44.698 22.999 -44.027 Q23.67 -43.357 23.67 -42.331 Q23.67 -41.305 22.999 -40.635 Q22.329 -39.964 21.303 -39.964 H8.284 Q6.776 -39.964 5.755 -40.985 Q4.734 -42.006 4.734 -43.514 V-56.533 Q4.734 -57.559 5.405 -58.229 Q6.075 -58.9 7.101 -58.9 Q8.127 -58.9 8.797 -58.229 Q9.468 -57.559 9.468 -56.533 V-48.051 L18.64 -57.223 Q19.366 -57.914 20.335 -57.914 Q21.303 -57.914 21.993 -57.223 Q22.684 -56.533 22.684 -55.565 Q22.684 -54.596 21.993 -53.87 L12.821 -44.698 Z M37.872 -69.749  28.7 -60.577 Q27.974 -59.886 27.005 -59.886 Q26.037 -59.886 25.347 -60.577 Q24.656 -61.267 24.656 -62.235 Q24.656 -63.204 25.347 -63.93 L34.519 -73.102 H26.037 Q25.011 -73.102 24.341 -73.773 Q23.67 -74.443 23.67 -75.469 Q23.67 -76.495 24.341 -77.165 Q25.011 -77.836 26.037 -77.836 H39.056 Q40.564 -77.836 41.585 -76.815 Q42.606 -75.794 42.606 -74.285 V-61.267 Q42.606 -60.241 41.935 -59.571 Q41.265 -58.9 40.239 -58.9 Q39.213 -58.9 38.543 -59.571 Q37.872 -60.241 37.872 -61.267 V-69.749 Z M57.893 7.376 Q55.526 7.376 53.356 6.488 Q51.186 5.601 49.51 3.924 L32.448 -13.138 Q31.363 -14.223 31.609 -15.85 Q31.856 -17.477 33.039 -18.661 Q34.42 -20.042 36.195 -20.486 Q37.971 -20.929 39.845 -20.436 L47.34 -18.562 V-50.615 Q47.34 -52.124 48.355 -53.145 Q49.37 -54.166 50.87 -54.166 Q52.37 -54.166 53.405 -53.145 Q54.441 -52.124 54.441 -50.615 V-25.762 H59.175 V-36.388 Q59.175 -37.893 60.19 -38.928 Q61.205 -39.964 62.705 -39.964 Q64.205 -39.964 65.24 -38.943 Q66.276 -37.922 66.276 -36.413 V-25.762 H71.01 V-31.679 Q71.01 -33.188 72.025 -34.209 Q73.04 -35.23 74.54 -35.23 Q76.04 -35.23 77.075 -34.209 Q78.111 -33.188 78.111 -31.679 V-25.762 H82.845 V-26.945 Q82.845 -28.454 83.86 -29.475 Q84.875 -30.496 86.375 -30.496 Q87.875 -30.496 88.91 -29.475 Q89.946 -28.454 89.946 -26.945 V-9.193 Q89.946 -2.289 85.113 2.543 Q80.281 7.376 73.377 7.376 H57.893 Z"/></g><g id="Light-S" transform="matrix(1 0 0 1 1109.75 696)"><path d="M11.987 -43.484 H21.91 Q22.673 -43.484 23.171 -42.986 Q23.67 -42.488 23.67 -41.725 Q23.67 -40.964 23.171 -40.464 Q22.673 -39.964 21.91 -39.964 H9.119 Q7.772 -39.964 6.859 -40.875 Q5.948 -41.788 5.948 -43.135 V-55.926 Q5.948 -56.689 6.446 -57.188 Q6.944 -57.686 7.707 -57.686 Q8.468 -57.686 8.968 -57.188 Q9.468 -56.689 9.468 -55.926 V-46.003 L19.626 -56.161 Q20.177 -56.662 20.91 -56.662 Q21.644 -56.662 22.145 -56.161 Q22.646 -55.66 22.646 -54.926 Q22.646 -54.193 22.145 -53.642 L11.987 -43.484 Z M39.086 -70.583  28.928 -60.425 Q28.377 -59.924 27.644 -59.924 Q26.91 -59.924 26.409 -60.425 Q25.908 -60.926 25.908 -61.66 Q25.908 -62.393 26.409 -62.944 L36.567 -73.102 H26.644 Q25.881 -73.102 25.382 -73.6 Q24.884 -74.098 24.884 -74.86 Q24.884 -75.622 25.382 -76.122 Q25.881 -76.622 26.644 -76.622 H39.435 Q40.782 -76.622 41.695 -75.711 Q42.606 -74.798 42.606 -73.451 V-60.66 Q42.606 -59.897 42.108 -59.399 Q41.61 -58.9 40.848 -58.9 Q40.086 -58.9 39.586 -59.399 Q39.086 -59.897 39.086 -60.66 V-70.583 Z M56.375 4.948 Q54.198 4.948 52.237 4.136 Q50.276 3.324 48.713 1.762 L31.499 -15.376 Q30.642 -16.234 30.851 -17.539 Q31.059 -18.843 32.053 -19.799 Q33.093 -20.8 34.375 -21.092 Q35.657 -21.385 37.075 -21.043 L46.808 -18.752 V-51.071 Q46.808 -52.161 47.54 -52.898 Q48.272 -53.634 49.354 -53.634 Q50.435 -53.634 51.186 -52.898 Q51.937 -52.161 51.937 -51.071 V-25.686 H58.302 V-37.829 Q58.302 -38.916 59.034 -39.667 Q59.766 -40.42 60.848 -40.42 Q61.929 -40.42 62.68 -39.682 Q63.431 -38.945 63.431 -37.855 V-25.686 H69.834 V-33.121 Q69.834 -34.211 70.565 -34.948 Q71.297 -35.686 72.379 -35.686 Q73.46 -35.686 74.211 -34.948 Q74.962 -34.211 74.962 -33.121 V-25.686 H81.327 V-28.387 Q81.327 -29.477 82.059 -30.214 Q82.791 -30.952 83.873 -30.952 Q84.954 -30.952 85.705 -30.214 Q86.456 -29.477 86.456 -28.387 V-10.635 Q86.456 -4.11 81.927 0.419 Q77.398 4.948 70.881 4.948 H56.375 Z"/></g><g id="Thin-S" transform="matrix(1 0 0 1 814.015 696)"><path d="M11.153 -42.27 H22.517 Q23.016 -42.27 23.344 -41.944 Q23.67 -41.619 23.67 -41.121 Q23.67 -40.623 23.344 -40.293 Q23.016 -39.964 22.517 -39.964 H9.953 Q8.767 -39.964 7.964 -40.767 Q7.162 -41.57 7.162 -42.756 V-55.319 Q7.162 -55.819 7.488 -56.145 Q7.813 -56.472 8.311 -56.472 Q8.809 -56.472 9.139 -56.145 Q9.468 -55.819 9.468 -55.319 V-43.954 L20.613 -55.099 Q20.987 -55.411 21.486 -55.411 Q21.985 -55.411 22.297 -55.099 Q22.608 -54.788 22.608 -54.288 Q22.608 -53.789 22.297 -53.414 L11.153 -42.27 Z M40.3 -71.417  29.156 -60.273 Q28.781 -59.962 28.282 -59.962 Q27.782 -59.962 27.471 -60.273 Q27.159 -60.585 27.159 -61.084 Q27.159 -61.583 27.471 -61.957 L38.616 -73.102 H27.251 Q26.751 -73.102 26.425 -73.427 Q26.098 -73.754 26.098 -74.252 Q26.098 -74.75 26.425 -75.079 Q26.751 -75.408 27.251 -75.408 H39.814 Q41 -75.408 41.803 -74.606 Q42.606 -73.803 42.606 -72.617 V-60.053 Q42.606 -59.554 42.281 -59.226 Q41.954 -58.9 41.456 -58.9 Q40.958 -58.9 40.629 -59.226 Q40.3 -59.554 40.3 -60.053 V-71.417 Z M54.858 2.521 Q52.871 2.521 51.118 1.785 Q49.366 1.049 47.917 -0.401 L30.551 -17.614 Q29.921 -18.244 30.092 -19.226 Q30.263 -20.208 31.067 -20.937 Q31.765 -21.559 32.554 -21.7 Q33.343 -21.84 34.307 -21.65 L46.278 -18.942 V-51.526 Q46.278 -52.196 46.727 -52.65 Q47.175 -53.104 47.838 -53.104 Q48.501 -53.104 48.967 -52.65 Q49.434 -52.196 49.434 -51.526 V-25.61 H57.43 V-39.271 Q57.43 -39.937 57.879 -40.406 Q58.327 -40.874 58.99 -40.874 Q59.653 -40.874 60.12 -40.421 Q60.586 -39.967 60.586 -39.296 V-25.61 H68.658 V-34.562 Q68.658 -35.233 69.107 -35.687 Q69.555 -36.14 70.218 -36.14 Q70.881 -36.14 71.347 -35.687 Q71.814 -35.233 71.814 -34.562 V-25.61 H79.81 V-29.828 Q79.81 -30.499 80.259 -30.953 Q80.708 -31.406 81.371 -31.406 Q82.033 -31.406 82.5 -30.953 Q82.966 -30.499 82.966 -29.828 V-12.076 Q82.966 -5.93 78.741 -1.705 Q74.515 2.521 68.385 2.521 H54.858 Z"/></g><g id="Ultralight-S" transform="matrix(1 0 0 1 517.792 696)"><path d="M10.652 -41.542 H22.881 Q23.223 -41.542 23.446 -41.32 Q23.67 -41.097 23.67 -40.758 Q23.67 -40.418 23.446 -40.191 Q23.223 -39.964 22.881 -39.964 H10.454 Q9.364 -39.964 8.627 -40.701 Q7.89 -41.438 7.89 -42.528 V-54.955 Q7.89 -55.297 8.112 -55.52 Q8.335 -55.744 8.674 -55.744 Q9.014 -55.744 9.241 -55.52 Q9.468 -55.297 9.468 -54.955 V-42.725 L21.204 -54.462 Q21.474 -54.659 21.832 -54.659 Q22.191 -54.659 22.388 -54.462 Q22.585 -54.265 22.585 -53.906 Q22.585 -53.548 22.388 -53.278 L10.652 -41.542 Z M41.028 -71.918  29.292 -60.182 Q29.022 -59.985 28.664 -59.985 Q28.305 -59.985 28.108 -60.182 Q27.911 -60.379 27.911 -60.738 Q27.911 -61.096 28.108 -61.366 L39.845 -73.102 H27.615 Q27.273 -73.102 27.05 -73.324 Q26.826 -73.547 26.826 -73.886 Q26.826 -74.226 27.05 -74.453 Q27.273 -74.68 27.615 -74.68 H40.042 Q41.132 -74.68 41.868 -73.943 Q42.606 -73.206 42.606 -72.116 V-59.689 Q42.606 -59.347 42.384 -59.124 Q42.161 -58.9 41.822 -58.9 Q41.482 -58.9 41.255 -59.124 Q41.028 -59.347 41.028 -59.689 V-71.918 Z M53.948 1.064 Q52.074 1.064 50.447 0.374 Q48.819 -0.317 47.439 -1.697 L29.982 -18.957 Q29.489 -19.45 29.637 -20.239 Q29.785 -21.028 30.475 -21.62 Q30.968 -22.014 31.461 -22.064 Q31.955 -22.113 32.645 -22.014 L45.959 -19.055 V-51.799 Q45.959 -52.218 46.237 -52.502 Q46.516 -52.785 46.928 -52.785 Q47.34 -52.785 47.636 -52.502 Q47.932 -52.218 47.932 -51.799 V-25.565 H56.907 V-40.136 Q56.907 -40.551 57.185 -40.849 Q57.464 -41.147 57.875 -41.147 Q58.287 -41.147 58.583 -40.864 Q58.879 -40.58 58.879 -40.161 V-25.565 H67.953 V-35.427 Q67.953 -35.846 68.231 -36.13 Q68.51 -36.413 68.921 -36.413 Q69.333 -36.413 69.629 -36.13 Q69.925 -35.846 69.925 -35.427 V-25.565 H78.9 V-30.693 Q78.9 -31.112 79.178 -31.396 Q79.457 -31.679 79.868 -31.679 Q80.281 -31.679 80.577 -31.396 Q80.873 -31.112 80.873 -30.693 V-12.941 Q80.873 -7.023 76.829 -2.98 Q72.785 1.064 66.887 1.064 H53.948 Z"/></g></g></svg>