<svg xmlns="http://www.w3.org/2000/svg" height="40" viewBox="0 -960 960 960" width="40"><path d="M523.67-899.33q150.33 15 256 121.11 105.66 106.11 120 256.22H599q-8-27.67-28-47.67t-47.33-29v-300.66Zm84 107.33v145.33q12.68 7.65 23.18 17.82T648.91-606h143.42q-25-64-72.83-112.33-47.83-48.34-111.83-73.67ZM437-899.33v300.44q-37.37 14.32-60.02 47.73-22.65 33.41-22.65 73.49 0 39.06 22.99 69.9 22.98 30.85 59.68 44.6v302.5Q275.66-76.63 167.66-195.65 59.67-314.67 59.67-478q0-163.33 107.66-284.02Q274.99-882.7 437-899.33ZM353-792q-96.67 37-153 123.33-56.33 86.34-56.33 190.84 0 103.16 57 187.83 57 84.67 152.33 123.33v-144.66q-40-30-61.33-73.34-21.34-43.33-21.34-93.18 0-49.86 21-95Q312.33-618 353-648v-144Zm245.76 355.33h300.91q-14.43 150.19-120.26 255.9Q673.57-75.05 523.67-60.67v-302q27-9 47-28.33t28.09-45.67Zm50.35 84q-8.78 12.67-18.44 23-9.67 10.34-23 18.25V-168q63-25.33 110.83-73.5t73.83-111.17H649.11ZM270.33-479ZM649-606Zm0 253.33Z"/></svg>