<svg xmlns="http://www.w3.org/2000/svg" height="24" width="24"><path d="M13.825 20.325q-.15 0-.263-.063-.112-.062-.237-.162l-5.7-5.925q-.125-.15-.225-.388-.1-.237-.1-.462 0-.45.313-.763.312-.312.787-.312h2.1q1.45 0 2.562-.875 1.113-.875 1.238-2.45H7q-.3 0-.5-.2t-.2-.5q0-.275.2-.488.2-.212.5-.212h7.175q-.35-1.075-1.35-1.763-1-.687-2.325-.687H7q-.3 0-.5-.2t-.2-.5q0-.275.2-.488.2-.212.5-.212h10q.3 0 .5.212.2.213.2.488 0 .3-.2.5t-.5.2h-2.875q.55.45.963 1.1.412.65.562 1.35H17q.3 0 .5.212.2.213.2.488 0 .3-.2.5t-.5.2h-1.3q-.1 2.125-1.612 3.425-1.513 1.3-3.588 1.3H9.075l5.275 5.475q.3.35.125.775-.175.425-.65.425Z"/></svg>