<svg xmlns="http://www.w3.org/2000/svg" height="20" viewBox="0 -960 960 960" width="20"><path d="M224-66q-65.46 0-111.73-46.38Q66-158.77 66-224.38 66-290 112.38-336q46.39-46 112-46Q290-382 336-335.73T382-224q0 19.05-4.5 37.52Q373-168 364-152l-1-53q27 12 57 18.5t60 6.5q109.56 0 191.28-68T774-420q4.77-24.34 22.87-42.17Q814.97-480 839.23-480q24.26 0 41.02 17.83Q897-444.34 893-420q-21 153-137 255.5T479.66-62q-42.63 0-84.14-9Q354-80 315-97q-20 16-43.19 23.5Q248.62-66 224-66Zm255.62-256Q414-322 368-368.38q-46-46.39-46-112Q322-546 368.38-592q46.39-46 112-46Q546-638 592-591.62q46 46.39 46 112Q638-414 591.62-368q-46.39 46-112 46Zm.38-458q-109.56 0-191.28 68T186-540q-4.77 24.34-22.87 42.17Q145.03-480 120.77-480q-24.26 0-41.02-17.83Q63-515.66 67-540q21-153 137-255.5T480.34-898q42.63 0 84.14 9Q606-880 645-863q20-16 43.77-23.5Q712.55-894 737-894q65.69 0 111.34 45.72Q894-802.56 894-736.94t-45.72 111.78Q802.56-579 736.94-579t-111.78-46.27Q579-671.54 579-737q0-19.05 4.5-37.52Q588-793 597-809v54q-27-12-57-18.5t-60-6.5Z"/></svg>