<svg xmlns="http://www.w3.org/2000/svg" height="40" width="40"><path d="M5.125 16.708V15.708Q5.125 12 8.5 9.708Q11.875 7.417 20 7.417Q28.125 7.417 31.5 9.708Q34.875 12 34.875 15.708V16.708ZM5.125 23.25V21.917Q6.542 21.917 7.375 21.062Q8.208 20.208 10.125 20.208Q12 20.208 12.771 21.062Q13.542 21.917 15.042 21.917Q16.5 21.917 17.292 21.062Q18.083 20.208 20 20.208Q21.917 20.208 22.708 21.062Q23.5 21.917 24.958 21.917Q26.458 21.917 27.188 21.062Q27.917 20.208 29.833 20.208Q31.75 20.208 32.604 21.062Q33.458 21.917 34.875 21.917V23.25Q33 23.25 32.208 22.396Q31.417 21.542 29.958 21.542Q28.458 21.542 27.667 22.396Q26.875 23.25 24.958 23.25Q23.083 23.25 22.292 22.396Q21.5 21.542 20 21.542Q18.542 21.542 17.729 22.396Q16.917 23.25 15.042 23.25Q13.125 23.25 12.354 22.396Q11.583 21.542 10.125 21.542Q8.625 21.542 7.812 22.396Q7 23.25 5.125 23.25ZM5.125 33.208V26.792H34.875V33.208Z"/></svg>