<svg xmlns="http://www.w3.org/2000/svg" height="24" width="24"><path d="M6.9 12.7Q8 11.925 9.312 11.5Q10.625 11.075 12 11.075Q13.375 11.075 14.688 11.5Q16 11.925 17.125 12.7L20.4 9.125Q18.475 7.7 16.35 7.025Q14.225 6.35 12 6.35Q9.775 6.35 7.663 7.025Q5.55 7.7 3.6 9.125ZM12 22Q11.7 22 11.4 21.887Q11.1 21.775 10.875 21.525L0.325 10.1Q-0.1 9.625 -0.1 8.962Q-0.1 8.3 0.35 7.85Q2.725 5.65 5.737 4.462Q8.75 3.275 12 3.275Q15.275 3.275 18.275 4.462Q21.275 5.65 23.65 7.85Q24.1 8.3 24.1 8.962Q24.1 9.625 23.675 10.1L13.125 21.525Q12.9 21.775 12.6 21.887Q12.3 22 12 22Z"/></svg>