<svg xmlns="http://www.w3.org/2000/svg" height="24" viewBox="0 -960 960 960" width="24"><path d="M137.41-56q-23.67 0-40.13-16.62-16.45-16.63-16.45-39.97v-350.93q0-9.48 1.5-19.08 1.5-9.6 4.74-18.07l58-169.76q11.23-30.96 36.31-48.56 25.08-17.6 55.03-17.6 10.24 0 20.22 1.74 9.98 1.74 19.46 6.5l163.04 71.76h58.28q23.34 0 39.97 16.63Q554-623.34 554-600t-16.62 39.96q-16.63 16.63-39.97 16.63h-60.28q-11.48 0-22.7-2.12-11.21-2.12-21.93-7.36l-72.93-31.33L274-447.28v334.69q0 23.34-16.62 39.97Q240.75-56 217.41-56h-80Zm265.46-64.65q-23.34 0-39.96-16.63-16.63-16.62-16.63-39.96 0-23.67 16.63-40.13 16.62-16.46 39.96-16.46h423.24q23.34 0 39.96 16.46 16.63 16.46 16.63 40.01 0 23.56-16.63 40.13-16.62 16.58-39.96 16.58H402.87Zm405.07-153.18q-29.87 0-51.09-21.27-21.22-21.28-21.22-51.12 0-29.83 21.25-50.99 21.26-21.16 51.06-21.16t51.02 21.16q21.21 21.16 21.21 50.99 0 29.84-21.18 51.12-21.18 21.27-51.05 21.27Zm-280.87 0q-42.8 0-71.79-29.23-29-29.23-29-71.79v-18.98h-25.32q-22.63 0-38.65-16.14-16.03-16.15-16.03-38.77 0-22.62 16.15-38.65 16.14-16.02 38.77-16.02h78.6q23.68 0 39.75 16.07 16.08 16.08 16.08 39.75v24.18h50.65v-25.33q0-22.62 16.03-38.65 16.02-16.02 38.65-16.02 22.62 0 38.64 16.02 16.03 16.03 16.03 38.65v73.89q0 42.8-28.99 71.91-29 29.11-71.79 29.11h-67.78ZM300.24-755.02q-37.72 0-65.06-27.25-27.33-27.25-27.33-65.05 0-38.81 27.33-65.53 27.34-26.72 65.06-26.72 38.72 0 65.43 26.68 26.72 26.68 26.72 65.56 0 37.87-26.72 65.09-26.71 27.22-65.43 27.22Z"/></svg>