<svg xmlns="http://www.w3.org/2000/svg" height="48" viewBox="0 -960 960 960" width="48"><path d="m694.91-46.04-59.39-59.68h-98.99v-98.98l-60.1-59.82 59.82-59.61v-99.34h99.7L694.91-483l59.82 59.53h99.69v99.34l58.97 59.61-59.11 59.6v99.34h-99.34l-60.03 59.54Zm0-98.96q50.26 0 85.18-34.91Q815-214.81 815-264.68t-35.02-84.62q-35.03-34.74-85.07-34.74V-145ZM849.7-540h-77.27q-22.96-101.75-103.85-170.59-80.89-68.84-188.75-68.84-125.19 0-211.94 86.99-86.76 86.99-86.76 212.44 0 75.35 33.98 137.61 33.98 62.26 90.76 101.69v-100.43h75.26v235.26H145.87v-75.26h112.52q-69.61-49.7-111.06-127.85-41.46-78.15-41.46-171.02 0-77.88 29.35-145.9 29.34-68.01 80.04-118.81 50.69-50.79 118.75-80.39 68.05-29.6 145.98-29.6 139.97 0 243.84 90.24T849.7-540Z"/></svg>