<svg xmlns="http://www.w3.org/2000/svg" height="48" viewBox="0 -960 960 960" width="48"><path d="M719.87-116Q621-116 514-168T313.5-313.5Q220-407 168-514t-52-205.87q0-19.99 11.79-32.06Q139.57-764 159-764h91.73q18.66 0 30.96 10.5Q294-743 299-725l20.93 92.64Q321-617 317-603.63q-4 13.36-11.23 19.86L216-501q26 47 57 87.5t65 75.5q37 39 79.5 69.5T510-210l92-92q9-10 18.14-13t21.86-1l82 19q17.56 3 28.78 16.62Q764-266.76 764-249v90q0 19.43-12.07 31.21Q739.86-116 719.87-116ZM199-532l81-73q4-4 5.5-11t.5-13l-19.96-84q-1-8-6.5-12t-13.5-4H167q-6 0-10 4t-4 10q-1 42 11 87t35 96Zm346 339q39 21 87.5 31t82.5 11q6 1 10-3.5t4-10.5v-80q0-8-4-13.5t-12-6.5l-71-16q-6-1-10.5.5T622-275l-77 82ZM199-532Zm346 339Zm121.98-296q-74.49 0-126.24-51.66-51.74-51.67-51.74-126 0-74.34 51.66-125.84 51.67-51.5 126-51.5 74.34 0 125.84 51.48Q844-741.05 844-666.98q0 74.49-51.48 126.24Q741.05-489 666.98-489ZM646-546h41v-138h-41v138Zm20.5-184q10.5 0 18.5-8t8-18.5q0-10.5-8-18.5t-18.5-8q-10.5 0-18.5 8t-8 18.5q0 10.5 8 18.5t18.5 8Z"/></svg>