<svg xmlns="http://www.w3.org/2000/svg" version="1.1" width="3300" height="2000"><g id="Notes"><style>
    text {
      font-family: monospace;
      text-anchor: middle;
    }
    text.emphasis {
      font-weight:bold;
    }
    text.lanchor {
      text-anchor: start;
    }
  </style><rect height="2200" id="artboard" fill="white" width="3300" x="0" y="0"/><line id="" style="fill:none;stroke:black;stroke-width:0.5;" x1="263" x2="3036" y1="292" y2="292"/><text class="lanchor emphasis" transform="matrix(1 0 0 1 263 322)">Weight/Scale Variations</text><text transform="matrix(1 0 0 1 559.711 322)">Ultralight</text><text transform="matrix(1 0 0 1 856.422 322)">Thin</text><text transform="matrix(1 0 0 1 1153.13 322)">Light</text><text transform="matrix(1 0 0 1 1449.84 322)">Regular</text><text transform="matrix(1 0 0 1 1746.56 322)">Medium</text><text transform="matrix(1 0 0 1 2043.27 322)">Semibold</text><text transform="matrix(1 0 0 1 2339.98 322)">Bold</text><text transform="matrix(1 0 0 1 2636.69 322)">Heavy</text><text transform="matrix(1 0 0 1 2933.4 322)">Black</text><text id="template-version" style="text-anchor: end;" transform="matrix(1 0 0 1 3036 1933)">Template v.1.0</text><text class="lanchor" transform="matrix(1 0 0 1 263 726)">Small</text><text class="lanchor" transform="matrix(1 0 0 1 263 1156)">Medium</text><text class="lanchor" transform="matrix(1 0 0 1 263 1586)">Large</text></g><g id="Guides"><g id="H-reference" style="fill:#27AAE1;stroke:none;" transform="matrix(1 0 0 1 339 696)"><path d="M 54.9316 0 L 57.666 0 L 30.5664 -70.459 L 28.0762 -70.459 L 0.976562 0 L 3.66211 0 L 12.9395 -24.4629 L 45.7031 -24.4629 Z M 29.1992 -67.0898 L 29.4434 -67.0898 L 44.8242 -26.709 L 13.8184 -26.709 Z"/></g><line id="Baseline-S" style="fill:none;stroke:#27AAE1;opacity:1;stroke-width:0.577;" x1="263" x2="3036" y1="696" y2="696"/><line id="Capline-S" style="fill:none;stroke:#27AAE1;opacity:1;stroke-width:0.577;" x1="263" x2="3036" y1="625.541" y2="625.541"/><g id="H-reference" style="fill:#27AAE1;stroke:none;" transform="matrix(1 0 0 1 339 1126)"><path d="M 54.9316 0 L 57.666 0 L 30.5664 -70.459 L 28.0762 -70.459 L 0.976562 0 L 3.66211 0 L 12.9395 -24.4629 L 45.7031 -24.4629 Z M 29.1992 -67.0898 L 29.4434 -67.0898 L 44.8242 -26.709 L 13.8184 -26.709 Z"/></g><line id="Baseline-M" style="fill:none;stroke:#27AAE1;opacity:1;stroke-width:0.577;" x1="263" x2="3036" y1="1126" y2="1126"/><line id="Capline-M" style="fill:none;stroke:#27AAE1;opacity:1;stroke-width:0.577;" x1="263" x2="3036" y1="1055.54" y2="1055.54"/><g id="H-reference" style="fill:#27AAE1;stroke:none;" transform="matrix(1 0 0 1 339 1556)"><path d="M 54.9316 0 L 57.666 0 L 30.5664 -70.459 L 28.0762 -70.459 L 0.976562 0 L 3.66211 0 L 12.9395 -24.4629 L 45.7031 -24.4629 Z M 29.1992 -67.0898 L 29.4434 -67.0898 L 44.8242 -26.709 L 13.8184 -26.709 Z"/></g><line id="Baseline-L" style="fill:none;stroke:#27AAE1;opacity:1;stroke-width:0.577;" x1="263" x2="3036" y1="1556" y2="1556"/><line id="Capline-L" style="fill:none;stroke:#27AAE1;opacity:1;stroke-width:0.577;" x1="263" x2="3036" y1="1485.54" y2="1485.54"/><rect height="119.336" id="left-margin" style="fill:darkred;stroke:none;opacity:0.4;" width="12.4512" x="1394.06" y="1030.79"/><rect height="119.336" id="right-margin" style="fill:darkgreen;stroke:none;opacity:0.4;" width="12.4512" x="1502.5112" y="1030.79"/><rect x="1406.5112" y="1045" width="96" height="96" fill="none" stroke="blue" stroke-dasharray="5"/><rect x="1394.06" y="1030.79" width="120.9024" height="119.336" fill="none" stroke="blue"/></g><g id="Symbols"><g id="Bold-L" transform="matrix(1 0 0 1 2266 1556)"><path d="M90.219 -46.034 V-53.29 Q95.541 -55.628 101.159 -56.797 Q106.777 -57.966 112.875 -57.966 Q116.961 -57.966 121.005 -57.379 Q125.049 -56.791 128.839 -55.788 V-49.017 Q125.049 -50.387 121.099 -51.073 Q117.148 -51.758 112.891 -51.758 Q106.786 -51.758 101.083 -50.267 Q95.379 -48.775 90.219 -46.034 Z M90.219 -10.559 V-17.976 Q95.541 -20.234 101.159 -21.403 Q106.777 -22.572 112.875 -22.572 Q116.961 -22.572 121.005 -21.967 Q125.049 -21.362 128.839 -20.314 V-13.542 Q125.049 -14.912 121.099 -15.638 Q117.148 -16.364 112.888 -16.364 Q106.778 -16.364 101.072 -14.912 Q95.363 -13.461 90.219 -10.559 Z M90.219 -28.296 V-35.552 Q95.541 -37.891 101.159 -39.06 Q106.777 -40.229 112.875 -40.229 Q116.961 -40.229 121.005 -39.664 Q125.049 -39.1 128.839 -38.052 V-31.279 Q125.049 -32.65 121.099 -33.376 Q117.148 -34.101 112.888 -34.101 Q106.778 -34.101 101.072 -32.569 Q95.363 -31.037 90.219 -28.296 Z M82.399 6.211 Q90.489 2.18 98.174 0.164 Q105.861 -1.851 114.592 -1.851 Q120.659 -1.851 127.209 -0.924 Q133.757 0.003 138.272 1.616 Q138.272 1.616 138.272 1.616 Q138.272 1.616 138.272 1.616 V-67.077 Q138.272 -67.077 138.272 -67.077 Q138.272 -67.077 138.272 -67.077 Q132.87 -69.979 126.799 -71.189 Q120.726 -72.398 114.568 -72.398 Q105.861 -72.398 97.718 -69.697 Q89.574 -66.996 82.399 -62.131 V6.211 Z M78.074 24.513 Q69.66 18.628 60.146 14.878 Q50.633 11.129 40.232 11.129 Q34.883 11.129 29.736 12.621 Q24.591 14.113 19.379 15.749 Q14.013 18.466 8.78 15.396 Q3.548 12.327 3.548 6.05 V-67.157 Q3.548 -71.189 5.362 -74.688 Q7.176 -78.187 10.757 -79.911 Q17.675 -82.884 24.994 -84.211 Q32.315 -85.54 39.892 -85.54 Q50.176 -85.54 59.798 -82.678 Q69.418 -79.816 77.722 -73.93 Q85.866 -79.654 95.325 -82.597 Q104.785 -85.54 114.908 -85.54 Q122.521 -85.54 129.751 -84.169 Q136.982 -82.799 143.885 -79.896 Q147.463 -78.187 149.358 -74.688 Q151.252 -71.189 151.252 -67.157 V7.824 Q151.252 13.78 145.931 16.325 Q140.61 18.869 135.289 15.725 Q130.209 13.951 125.064 12.54 Q119.917 11.129 114.568 11.129 Q104.455 11.129 95.35 15.04 Q86.246 18.95 78.074 24.513 Z"/></g><g id="Semibold-L" transform="matrix(1 0 0 1 1970.27 1556)"><path d="M90.219 -47.996 V-55.252 Q95.541 -57.591 101.159 -58.76 Q106.777 -59.929 112.875 -59.929 Q116.961 -59.929 121.005 -59.342 Q125.049 -58.753 128.839 -57.752 V-50.979 Q125.049 -52.35 121.099 -53.035 Q117.148 -53.721 112.891 -53.721 Q106.786 -53.721 101.083 -52.229 Q95.379 -50.737 90.219 -47.996 Z M90.219 -12.521 V-19.939 Q95.541 -22.196 101.159 -23.365 Q106.777 -24.534 112.875 -24.534 Q116.961 -24.534 121.005 -23.93 Q125.049 -23.325 128.839 -22.277 V-15.504 Q125.049 -16.875 121.099 -17.601 Q117.148 -18.326 112.888 -18.326 Q106.778 -18.326 101.072 -16.875 Q95.363 -15.424 90.219 -12.521 Z M90.219 -30.259 V-37.515 Q95.541 -39.853 101.159 -41.022 Q106.777 -42.191 112.875 -42.191 Q116.961 -42.191 121.005 -41.627 Q125.049 -41.062 128.839 -40.014 V-33.242 Q125.049 -34.612 121.099 -35.338 Q117.148 -36.064 112.888 -36.064 Q106.778 -36.064 101.072 -34.532 Q95.363 -33 90.219 -30.259 Z M82.399 4.249 Q90.489 0.218 98.174 -1.798 Q105.861 -3.814 114.592 -3.814 Q120.659 -3.814 127.209 -2.886 Q133.757 -1.959 138.272 -0.347 Q138.272 -0.347 138.272 -0.347 Q138.272 -0.347 138.272 -0.347 V-69.039 Q138.272 -69.039 138.272 -69.039 Q138.272 -69.039 138.272 -69.039 Q132.87 -71.872 126.799 -73.117 Q120.726 -74.361 114.568 -74.361 Q105.861 -74.361 97.718 -71.66 Q89.574 -68.959 82.399 -64.094 V4.249 Z M77.921 20.658 Q69.591 14.701 60.053 11.163 Q50.516 7.624 40.232 7.624 Q34.716 7.624 29.407 9.08 Q24.1 10.538 18.749 12.313 Q14.082 14.611 9.622 11.902 Q5.16 9.194 5.16 3.807 V-69.471 Q5.16 -72.801 6.693 -75.655 Q8.227 -78.509 11.247 -79.982 Q18.025 -83.024 25.279 -84.423 Q32.532 -85.821 40.04 -85.821 Q50.247 -85.821 59.832 -82.994 Q69.418 -80.166 77.722 -74.42 Q85.866 -80.075 95.291 -82.947 Q104.714 -85.821 114.76 -85.821 Q122.303 -85.821 129.468 -84.379 Q136.632 -82.939 143.395 -79.966 Q146.412 -78.509 148.026 -75.655 Q149.64 -72.801 149.64 -69.471 V4.81 Q149.64 10.131 145.056 12.573 Q140.47 15.014 135.919 12.29 Q130.7 10.376 125.393 8.999 Q120.084 7.624 114.568 7.624 Q104.469 7.624 95.275 11.289 Q86.08 14.954 77.921 20.658 Z"/></g><g id="Medium-L" transform="matrix(1 0 0 1 1674.31 1556)"><path d="M90.219 -49.468 V-56.725 Q95.541 -59.063 101.159 -60.232 Q106.777 -61.401 112.875 -61.401 Q116.961 -61.401 121.005 -60.814 Q125.049 -60.225 128.839 -59.224 V-52.451 Q125.049 -53.822 121.099 -54.507 Q117.148 -55.193 112.891 -55.193 Q106.786 -55.193 101.083 -53.701 Q95.379 -52.21 90.219 -49.468 Z M90.219 -13.993 V-21.411 Q95.541 -23.668 101.159 -24.837 Q106.777 -26.006 112.875 -26.006 Q116.961 -26.006 121.005 -25.402 Q125.049 -24.797 128.839 -23.749 V-16.976 Q125.049 -18.347 121.099 -19.073 Q117.148 -19.798 112.888 -19.798 Q106.778 -19.798 101.072 -18.347 Q95.363 -16.896 90.219 -13.993 Z M90.219 -31.731 V-38.987 Q95.541 -41.325 101.159 -42.494 Q106.777 -43.663 112.875 -43.663 Q116.961 -43.663 121.005 -43.099 Q125.049 -42.535 128.839 -41.486 V-34.714 Q125.049 -36.085 121.099 -36.81 Q117.148 -37.536 112.888 -37.536 Q106.778 -37.536 101.072 -36.004 Q95.363 -34.472 90.219 -31.731 Z M82.399 2.777 Q90.489 -1.255 98.174 -3.27 Q105.861 -5.286 114.592 -5.286 Q120.659 -5.286 127.209 -4.359 Q133.757 -3.431 138.272 -1.819 Q138.272 -1.819 138.272 -1.819 Q138.272 -1.819 138.272 -1.819 V-70.511 Q138.272 -70.511 138.272 -70.511 Q138.272 -70.511 138.272 -70.511 Q132.87 -73.291 126.799 -74.562 Q120.726 -75.833 114.568 -75.833 Q105.861 -75.833 97.718 -73.132 Q89.574 -70.431 82.399 -65.566 V2.777 Z M77.806 17.765 Q69.537 11.757 59.983 8.375 Q50.429 4.995 40.232 4.995 Q34.59 4.995 29.16 6.426 Q23.731 7.856 18.274 9.736 Q14.135 11.718 10.252 9.281 Q6.369 6.845 6.369 2.124 V-71.206 Q6.369 -74.011 7.693 -76.381 Q9.015 -78.751 11.616 -80.035 Q18.287 -83.129 25.492 -84.581 Q32.695 -86.03 40.151 -86.03 Q50.299 -86.03 59.859 -83.229 Q69.418 -80.428 77.722 -74.789 Q85.866 -80.391 95.263 -83.21 Q104.663 -86.03 114.649 -86.03 Q122.139 -86.03 129.255 -84.537 Q136.369 -83.044 143.026 -80.019 Q145.623 -78.751 147.026 -76.381 Q148.431 -74.011 148.431 -71.206 V2.548 Q148.431 7.395 144.398 9.759 Q140.365 12.121 136.393 9.714 Q131.069 7.695 125.64 6.345 Q120.21 4.995 114.568 4.995 Q104.482 4.995 95.22 8.475 Q85.956 11.957 77.806 17.765 Z"/></g><g id="Regular-L" transform="matrix(1 0 0 1 1378.56 1556)"><path d="M90.219 -50.549 V-57.805 Q95.541 -60.143 101.159 -61.312 Q106.777 -62.481 112.875 -62.481 Q116.961 -62.481 121.005 -61.894 Q125.049 -61.306 128.839 -60.303 V-53.532 Q125.049 -54.902 121.099 -55.588 Q117.148 -56.273 112.891 -56.273 Q106.786 -56.273 101.083 -54.782 Q95.379 -53.29 90.219 -50.549 Z M90.219 -15.074 V-22.491 Q95.541 -24.749 101.159 -25.918 Q106.777 -27.087 112.875 -27.087 Q116.961 -27.087 121.005 -26.482 Q125.049 -25.877 128.839 -24.829 V-18.057 Q125.049 -19.427 121.099 -20.153 Q117.148 -20.879 112.888 -20.879 Q106.778 -20.879 101.072 -19.427 Q95.363 -17.976 90.219 -15.074 Z M90.219 -32.811 V-40.067 Q95.541 -42.406 101.159 -43.575 Q106.777 -44.744 112.875 -44.744 Q116.961 -44.744 121.005 -44.179 Q125.049 -43.615 128.839 -42.567 V-35.794 Q125.049 -37.165 121.099 -37.891 Q117.148 -38.616 112.888 -38.616 Q106.778 -38.616 101.072 -37.084 Q95.363 -35.552 90.219 -32.811 Z M82.399 1.696 Q90.489 -2.335 98.174 -4.351 Q105.861 -6.366 114.592 -6.366 Q120.659 -6.366 127.209 -5.439 Q133.757 -4.512 138.272 -2.899 Q138.272 -2.899 138.272 -2.899 Q138.272 -2.899 138.272 -2.899 V-71.592 Q138.272 -71.592 138.272 -71.592 Q138.272 -71.592 138.272 -71.592 Q132.87 -74.333 126.799 -75.623 Q120.726 -76.913 114.568 -76.913 Q105.861 -76.913 97.718 -74.212 Q89.574 -71.511 82.399 -66.646 V1.696 Z M77.722 15.644 Q69.499 9.598 59.932 6.332 Q50.366 3.067 40.232 3.067 Q34.498 3.067 28.98 4.478 Q23.462 5.889 17.928 7.848 Q14.174 9.598 10.715 7.359 Q7.256 5.121 7.256 0.89 V-72.479 Q7.256 -74.897 8.425 -76.913 Q9.594 -78.929 11.886 -80.072 Q18.481 -83.207 25.648 -84.695 Q32.814 -86.185 40.232 -86.185 Q50.337 -86.185 59.879 -83.403 Q69.418 -80.622 77.722 -75.059 Q85.866 -80.622 95.244 -83.403 Q104.624 -86.185 114.568 -86.185 Q122.019 -86.185 129.098 -84.653 Q136.176 -83.121 142.756 -80.057 Q145.044 -78.929 146.294 -76.913 Q147.544 -74.897 147.544 -72.479 V0.89 Q147.544 5.387 143.916 7.695 Q140.287 10.001 136.74 7.824 Q131.338 5.728 125.82 4.397 Q120.302 3.067 114.568 3.067 Q104.49 3.067 95.178 6.413 Q85.866 9.759 77.722 15.644 Z"/></g><g id="Light-L" transform="matrix(1 0 0 1 1082.77 1556)"><path d="M89.878 -51.045 V-56.875 Q95.138 -59.337 100.931 -60.599 Q106.725 -61.86 112.875 -61.86 Q116.672 -61.86 120.365 -61.357 Q124.058 -60.854 127.66 -59.9 V-54.369 Q124.119 -55.554 120.51 -56.115 Q116.9 -56.676 112.898 -56.676 Q106.739 -56.676 100.889 -55.231 Q95.038 -53.787 89.878 -51.045 Z M89.878 -15.695 V-21.746 Q95.013 -24.16 100.901 -25.421 Q106.788 -26.684 112.875 -26.684 Q116.672 -26.684 120.365 -26.14 Q124.058 -25.599 127.66 -24.675 V-19.142 Q124.119 -20.327 120.51 -20.913 Q116.9 -21.5 112.893 -21.5 Q106.728 -21.5 100.873 -20.016 Q95.017 -18.534 89.878 -15.695 Z M89.878 -33.308 V-39.261 Q95.138 -41.724 100.931 -42.986 Q106.725 -44.247 112.875 -44.247 Q116.672 -44.247 120.365 -43.729 Q124.058 -43.212 127.66 -42.288 V-36.755 Q124.119 -37.941 120.51 -38.526 Q116.9 -39.113 112.893 -39.113 Q106.728 -39.113 100.873 -37.581 Q95.017 -36.049 89.878 -33.308 Z M81.22 1.387 Q89.378 -2.893 97.319 -4.971 Q105.259 -7.048 114.184 -7.048 Q120.194 -7.048 125.999 -6.229 Q131.803 -5.412 135.574 -4.109 Q136.318 -3.799 136.938 -4.202 Q137.559 -4.605 137.559 -5.473 V-70.073 Q137.559 -70.631 137.248 -71.065 Q136.938 -71.498 136.193 -71.81 Q130.854 -74.209 125.557 -75.236 Q120.262 -76.262 114.165 -76.262 Q105.272 -76.262 96.818 -73.514 Q88.365 -70.766 81.22 -65.58 V1.387 Z M77.629 11.953 Q69.405 6.218 59.995 3.168 Q50.584 0.121 40.635 0.121 Q35.494 0.121 30.547 1.19 Q25.602 2.261 20.606 3.886 Q16.841 5.536 13.506 3.197 Q10.172 0.859 10.172 -3.39 V-70.37 Q10.172 -72.882 11.449 -75.031 Q12.726 -77.179 15.141 -78.274 Q21.148 -80.943 27.609 -82.138 Q34.071 -83.332 40.635 -83.332 Q50.621 -83.332 60.02 -80.504 Q69.418 -77.676 77.661 -72.082 Q85.741 -77.676 95.038 -80.504 Q104.334 -83.332 114.165 -83.332 Q120.786 -83.332 127.178 -82.063 Q133.57 -80.796 139.562 -78.26 Q141.974 -77.192 143.301 -75.036 Q144.628 -72.882 144.628 -70.37 V-3.39 Q144.628 1 141.031 3.314 Q137.435 5.628 133.752 3.739 Q128.95 2.099 124.067 1.109 Q119.186 0.121 114.165 0.121 Q104.258 0.121 95.015 3.218 Q85.772 6.316 77.629 11.953 Z"/></g><g id="Thin-L" transform="matrix(1 0 0 1 787.282 1556)"><path d="M89.537 -51.54 V-55.944 Q94.734 -58.531 100.704 -59.885 Q106.673 -61.241 112.875 -61.241 Q116.384 -61.241 119.725 -60.822 Q123.064 -60.401 126.481 -59.497 V-55.206 Q123.189 -56.205 119.92 -56.642 Q116.651 -57.079 112.904 -57.079 Q106.693 -57.079 100.694 -55.681 Q94.697 -54.282 89.537 -51.54 Z M89.537 -16.314 V-21.003 Q94.486 -23.57 100.643 -24.926 Q106.797 -26.281 112.875 -26.281 Q116.384 -26.281 119.725 -25.8 Q123.064 -25.32 126.481 -24.52 V-20.227 Q123.189 -21.225 119.92 -21.672 Q116.651 -22.119 112.898 -22.119 Q106.68 -22.119 100.675 -20.606 Q94.67 -19.092 89.537 -16.314 Z M89.537 -33.803 V-38.455 Q94.734 -41.041 100.704 -42.396 Q106.673 -43.752 112.875 -43.752 Q116.384 -43.752 119.725 -43.28 Q123.064 -42.809 126.481 -42.009 V-37.716 Q123.189 -38.716 119.92 -39.161 Q116.651 -39.608 112.898 -39.608 Q106.68 -39.608 100.675 -38.076 Q94.67 -36.544 89.537 -33.803 Z M80.041 1.075 Q88.268 -3.451 96.463 -5.591 Q104.658 -7.73 113.776 -7.73 Q119.728 -7.73 124.79 -7.021 Q129.85 -6.31 132.876 -5.318 Q134.365 -4.697 135.605 -5.504 Q136.845 -6.31 136.845 -8.046 V-68.552 Q136.845 -69.67 136.226 -70.537 Q135.605 -71.406 134.116 -72.026 Q128.839 -74.085 124.317 -74.848 Q119.796 -75.61 113.762 -75.61 Q104.682 -75.61 95.92 -72.817 Q87.156 -70.023 80.041 -64.516 V1.075 Z M77.537 8.264 Q69.313 2.838 60.056 0.006 Q50.8 -2.825 41.038 -2.825 Q36.489 -2.825 32.116 -2.096 Q27.741 -1.367 23.285 -0.073 Q19.508 1.474 16.298 -0.964 Q13.085 -3.401 13.085 -7.669 V-68.262 Q13.085 -70.866 14.472 -73.148 Q15.859 -75.431 18.397 -76.476 Q23.815 -78.679 29.57 -79.579 Q35.327 -80.48 41.038 -80.48 Q50.907 -80.48 60.162 -77.605 Q69.418 -74.73 77.598 -69.105 Q85.617 -74.73 94.831 -77.605 Q104.043 -80.48 113.762 -80.48 Q119.551 -80.48 125.259 -79.474 Q130.966 -78.469 136.369 -76.46 Q138.904 -75.455 140.308 -73.161 Q141.715 -70.866 141.715 -68.262 V-7.669 Q141.715 -3.388 138.148 -1.066 Q134.582 1.256 130.764 -0.345 Q126.562 -1.529 122.316 -2.177 Q118.069 -2.825 113.762 -2.825 Q104.024 -2.825 94.852 0.024 Q85.68 2.875 77.537 8.264 Z"/></g><g id="Ultralight-L" transform="matrix(1 0 0 1 491.205 1556)"><path d="M89.332 -51.839 V-55.386 Q94.493 -58.047 100.568 -59.458 Q106.644 -60.869 112.875 -60.869 Q116.21 -60.869 119.34 -60.499 Q122.469 -60.13 125.775 -59.255 V-55.709 Q122.631 -56.596 119.567 -56.958 Q116.503 -57.321 112.907 -57.321 Q106.664 -57.321 100.578 -55.951 Q94.493 -54.58 89.332 -51.839 Z M89.332 -16.686 V-20.556 Q94.17 -23.217 100.488 -24.628 Q106.806 -26.039 112.875 -26.039 Q116.21 -26.039 119.34 -25.595 Q122.469 -25.152 125.775 -24.426 V-20.879 Q122.631 -21.766 119.567 -22.128 Q116.503 -22.491 112.901 -22.491 Q106.649 -22.491 100.556 -20.959 Q94.462 -19.427 89.332 -16.686 Z M89.332 -34.101 V-37.971 Q94.493 -40.632 100.568 -42.043 Q106.644 -43.454 112.875 -43.454 Q116.21 -43.454 119.34 -43.01 Q122.469 -42.567 125.775 -41.841 V-38.294 Q122.631 -39.181 119.567 -39.543 Q116.503 -39.906 112.901 -39.906 Q106.649 -39.906 100.556 -38.374 Q94.462 -36.842 89.332 -34.101 Z M79.335 0.89 Q87.602 -3.786 95.95 -5.963 Q104.298 -8.14 113.531 -8.14 Q119.449 -8.14 124.064 -7.495 Q128.678 -6.85 131.257 -6.044 Q133.192 -5.237 134.805 -6.286 Q136.417 -7.334 136.417 -9.591 V-67.641 Q136.417 -69.092 135.611 -70.221 Q134.805 -71.35 132.87 -72.156 Q127.629 -74.011 123.574 -74.615 Q119.517 -75.22 113.52 -75.22 Q104.329 -75.22 95.379 -72.398 Q86.43 -69.576 79.335 -63.878 V0.89 Z M77.481 6.05 Q69.257 0.809 60.093 -1.892 Q50.931 -4.592 41.28 -4.592 Q37.087 -4.592 33.056 -4.068 Q29.025 -3.544 24.891 -2.449 Q21.108 -0.964 17.971 -3.461 Q14.835 -5.958 14.835 -10.236 V-66.996 Q14.835 -69.657 16.286 -72.019 Q17.738 -74.381 20.351 -75.396 Q25.415 -77.321 30.747 -78.043 Q36.08 -78.767 41.28 -78.767 Q51.076 -78.767 60.248 -75.865 Q69.418 -72.962 77.561 -67.319 Q85.543 -72.962 94.707 -75.865 Q103.871 -78.767 113.52 -78.767 Q118.811 -78.767 124.108 -77.921 Q129.403 -77.074 134.452 -75.381 Q137.062 -74.414 138.514 -72.035 Q139.965 -69.657 139.965 -66.996 V-10.236 Q139.965 -6.021 136.417 -3.694 Q132.87 -1.367 128.971 -2.795 Q125.13 -3.706 121.265 -4.149 Q117.4 -4.592 113.52 -4.592 Q103.884 -4.592 94.754 -1.892 Q85.624 0.809 77.481 6.05 Z"/></g><g id="Bold-M" transform="matrix(1 0 0 1 2281.8 1126)"><path d="M69.875 -41.355 V-49.105 Q74 -51.042 78.375 -51.949 Q82.75 -52.855 87.5 -52.855 Q90.625 -52.855 93.719 -52.417 Q96.812 -51.98 99.75 -51.23 V-43.73 Q96.812 -44.792 93.812 -45.261 Q90.812 -45.73 87.5 -45.73 Q82.75 -45.73 78.312 -44.605 Q73.875 -43.48 69.875 -41.355 Z M69.875 -13.855 V-21.605 Q74 -23.542 78.375 -24.511 Q82.75 -25.48 87.5 -25.48 Q90.625 -25.48 93.719 -25.042 Q96.812 -24.605 99.75 -23.73 V-16.23 Q96.812 -17.292 93.812 -17.824 Q90.812 -18.355 87.5 -18.355 Q82.75 -18.355 78.312 -17.23 Q73.875 -16.105 69.875 -13.855 Z M69.875 -27.605 V-35.355 Q74 -37.292 78.375 -38.199 Q82.75 -39.105 87.5 -39.105 Q90.625 -39.105 93.719 -38.73 Q96.812 -38.355 99.75 -37.48 V-29.98 Q96.812 -31.042 93.812 -31.574 Q90.812 -32.105 87.5 -32.105 Q82.75 -32.105 78.312 -30.917 Q73.875 -29.73 69.875 -27.605 Z M64.75 -5.605 Q70.25 -8.23 75.75 -9.542 Q81.25 -10.855 87.125 -10.855 Q91.562 -10.855 95.875 -10.167 Q100.188 -9.48 104.375 -7.98 Q104.375 -7.98 104.375 -7.98 Q104.375 -7.98 104.375 -7.98 V-56.73 Q104.375 -56.73 104.375 -56.73 Q104.375 -56.73 104.375 -56.73 Q100.312 -58.355 95.938 -59.292 Q91.562 -60.23 87.125 -60.23 Q81.25 -60.23 75.5 -58.667 Q69.75 -57.105 64.75 -54.105 V-5.605 Z M60.375 12.895 Q54.312 8.458 47.438 5.364 Q40.562 2.27 32.875 2.27 Q28.301 2.27 23.901 3.614 Q19.5 4.958 15.25 7.02 Q10.875 9.208 6.625 6.781 Q2.375 4.355 2.375 -0.355 V-58.48 Q2.375 -61.667 3.812 -64.286 Q5.25 -66.905 8 -68.23 Q13.75 -70.98 19.895 -72.23 Q26.04 -73.48 32.508 -73.48 Q39.938 -73.48 46.938 -71.574 Q53.938 -69.667 60 -65.605 Q66.188 -69.542 73.125 -71.511 Q80.062 -73.48 87.493 -73.48 Q93.96 -73.48 100.105 -72.23 Q106.25 -70.98 112 -68.23 Q114.75 -66.905 116.188 -64.286 Q117.625 -61.667 117.625 -58.48 V1.52 Q117.625 5.77 113.438 7.551 Q109.25 9.333 104.75 7.02 Q100.5 4.958 96.099 3.614 Q91.699 2.27 87.125 2.27 Q79.688 2.27 73 5.426 Q66.312 8.583 60.375 12.895 Z"/></g><g id="Semibold-M" transform="matrix(1 0 0 1 1985.97 1126)"><path d="M69.875 -43.366 V-51.116 Q74 -53.054 78.375 -53.96 Q82.75 -54.866 87.5 -54.866 Q90.625 -54.866 93.719 -54.429 Q96.812 -53.991 99.75 -53.241 V-45.741 Q96.812 -46.804 93.812 -47.272 Q90.812 -47.741 87.5 -47.741 Q82.75 -47.741 78.312 -46.616 Q73.875 -45.491 69.875 -43.366 Z M69.875 -15.866 V-23.616 Q74 -25.554 78.375 -26.522 Q82.75 -27.491 87.5 -27.491 Q90.625 -27.491 93.719 -27.054 Q96.812 -26.616 99.75 -25.741 V-18.241 Q96.812 -19.304 93.812 -19.835 Q90.812 -20.366 87.5 -20.366 Q82.75 -20.366 78.312 -19.241 Q73.875 -18.116 69.875 -15.866 Z M69.875 -29.616 V-37.366 Q74 -39.304 78.375 -40.21 Q82.75 -41.116 87.5 -41.116 Q90.625 -41.116 93.719 -40.741 Q96.812 -40.366 99.75 -39.491 V-31.991 Q96.812 -33.054 93.812 -33.585 Q90.812 -34.116 87.5 -34.116 Q82.75 -34.116 78.312 -32.929 Q73.875 -31.741 69.875 -29.616 Z M64.75 -7.616 Q70.25 -10.241 75.75 -11.554 Q81.25 -12.866 87.125 -12.866 Q91.562 -12.866 95.875 -12.179 Q100.188 -11.491 104.375 -9.991 Q104.375 -9.991 104.375 -9.991 Q104.375 -9.991 104.375 -9.991 V-58.741 Q104.375 -58.741 104.375 -58.741 Q104.375 -58.741 104.375 -58.741 Q100.312 -60.366 95.938 -61.304 Q91.562 -62.241 87.125 -62.241 Q81.25 -62.241 75.5 -60.679 Q69.75 -59.116 64.75 -56.116 V-7.616 Z M60.212 8.874 Q54.204 4.381 47.329 1.505 Q40.454 -1.371 32.875 -1.371 Q28.116 -1.371 23.536 -0.055 Q18.956 1.263 14.598 3.434 Q10.984 5.24 7.521 3.23 Q4.06 1.22 4.06 -2.691 V-60.871 Q4.06 -63.297 5.199 -65.307 Q6.338 -67.317 8.489 -68.339 Q14.185 -71.089 20.24 -72.447 Q26.294 -73.806 32.667 -73.806 Q39.991 -73.806 46.938 -71.9 Q53.884 -69.994 60 -66.094 Q66.188 -69.922 73.097 -71.865 Q80.009 -73.806 87.332 -73.806 Q93.706 -73.806 99.76 -72.447 Q105.815 -71.089 111.511 -68.339 Q113.662 -67.317 114.801 -65.307 Q115.94 -63.297 115.94 -60.871 V-1.632 Q115.94 2.02 112.514 3.666 Q109.088 5.311 105.403 3.434 Q101.044 1.263 96.464 -0.055 Q91.884 -1.371 87.125 -1.371 Q79.688 -1.371 72.919 1.541 Q66.15 4.453 60.212 8.874 Z"/></g><g id="Medium-M" transform="matrix(1 0 0 1 1689.91 1126)"><path d="M69.875 -44.874 V-52.624 Q74 -54.561 78.375 -55.467 Q82.75 -56.374 87.5 -56.374 Q90.625 -56.374 93.719 -55.936 Q96.812 -55.499 99.75 -54.749 V-47.249 Q96.812 -48.311 93.812 -48.78 Q90.812 -49.249 87.5 -49.249 Q82.75 -49.249 78.312 -48.124 Q73.875 -46.999 69.875 -44.874 Z M69.875 -17.374 V-25.124 Q74 -27.061 78.375 -28.03 Q82.75 -28.999 87.5 -28.999 Q90.625 -28.999 93.719 -28.561 Q96.812 -28.124 99.75 -27.249 V-19.749 Q96.812 -20.811 93.812 -21.342 Q90.812 -21.874 87.5 -21.874 Q82.75 -21.874 78.312 -20.749 Q73.875 -19.624 69.875 -17.374 Z M69.875 -31.124 V-38.874 Q74 -40.811 78.375 -41.717 Q82.75 -42.624 87.5 -42.624 Q90.625 -42.624 93.719 -42.249 Q96.812 -41.874 99.75 -40.999 V-33.499 Q96.812 -34.561 93.812 -35.092 Q90.812 -35.624 87.5 -35.624 Q82.75 -35.624 78.312 -34.436 Q73.875 -33.249 69.875 -31.124 Z M64.75 -9.124 Q70.25 -11.749 75.75 -13.061 Q81.25 -14.374 87.125 -14.374 Q91.562 -14.374 95.875 -13.686 Q100.188 -12.999 104.375 -11.499 Q104.375 -11.499 104.375 -11.499 Q104.375 -11.499 104.375 -11.499 V-60.249 Q104.375 -60.249 104.375 -60.249 Q104.375 -60.249 104.375 -60.249 Q100.312 -61.874 95.938 -62.811 Q91.562 -63.749 87.125 -63.749 Q81.25 -63.749 75.5 -62.186 Q69.75 -60.624 64.75 -57.624 V-9.124 Z M60.09 5.858 Q54.123 1.325 47.248 -1.389 Q40.373 -4.102 32.875 -4.102 Q27.977 -4.102 23.262 -2.806 Q18.549 -1.51 14.109 0.743 Q11.065 2.265 8.194 0.568 Q5.324 -1.131 5.324 -4.445 V-62.665 Q5.324 -64.521 6.237 -66.074 Q7.152 -67.627 8.856 -68.42 Q14.511 -71.17 20.497 -72.61 Q26.485 -74.051 32.788 -74.051 Q40.032 -74.051 46.938 -72.145 Q53.843 -70.239 60 -66.461 Q66.188 -70.209 73.078 -72.13 Q79.968 -74.051 87.213 -74.051 Q93.515 -74.051 99.502 -72.61 Q105.489 -71.17 111.144 -68.42 Q112.847 -67.627 113.763 -66.074 Q114.676 -64.521 114.676 -62.665 V-3.996 Q114.676 -0.792 111.821 0.751 Q108.965 2.295 105.891 0.743 Q101.451 -1.51 96.737 -2.806 Q92.022 -4.102 87.125 -4.102 Q79.688 -4.102 72.858 -1.374 Q66.028 1.354 60.09 5.858 Z"/></g><g id="Regular-M" transform="matrix(1 0 0 1 1394.06 1126)"><path d="M69.875 -45.98 V-53.73 Q74 -55.667 78.375 -56.574 Q82.75 -57.48 87.5 -57.48 Q90.625 -57.48 93.719 -57.042 Q96.812 -56.605 99.75 -55.855 V-48.355 Q96.812 -49.417 93.812 -49.886 Q90.812 -50.355 87.5 -50.355 Q82.75 -50.355 78.312 -49.23 Q73.875 -48.105 69.875 -45.98 Z M69.875 -18.48 V-26.23 Q74 -28.167 78.375 -29.136 Q82.75 -30.105 87.5 -30.105 Q90.625 -30.105 93.719 -29.667 Q96.812 -29.23 99.75 -28.355 V-20.855 Q96.812 -21.917 93.812 -22.449 Q90.812 -22.98 87.5 -22.98 Q82.75 -22.98 78.312 -21.855 Q73.875 -20.73 69.875 -18.48 Z M69.875 -32.23 V-39.98 Q74 -41.917 78.375 -42.824 Q82.75 -43.73 87.5 -43.73 Q90.625 -43.73 93.719 -43.355 Q96.812 -42.98 99.75 -42.105 V-34.605 Q96.812 -35.667 93.812 -36.199 Q90.812 -36.73 87.5 -36.73 Q82.75 -36.73 78.312 -35.542 Q73.875 -34.355 69.875 -32.23 Z M64.75 -10.23 Q70.25 -12.855 75.75 -14.167 Q81.25 -15.48 87.125 -15.48 Q91.562 -15.48 95.875 -14.792 Q100.188 -14.105 104.375 -12.605 Q104.375 -12.605 104.375 -12.605 Q104.375 -12.605 104.375 -12.605 V-61.355 Q104.375 -61.355 104.375 -61.355 Q104.375 -61.355 104.375 -61.355 Q100.312 -62.98 95.938 -63.917 Q91.562 -64.855 87.125 -64.855 Q81.25 -64.855 75.5 -63.292 Q69.75 -61.73 64.75 -58.73 V-10.23 Z M60 3.645 Q54.062 -0.917 47.188 -3.511 Q40.312 -6.105 32.875 -6.105 Q27.875 -6.105 23.062 -4.824 Q18.25 -3.542 13.75 -1.23 Q11.125 0.083 8.688 -1.386 Q6.25 -2.855 6.25 -5.73 V-63.98 Q6.25 -65.417 7 -66.636 Q7.75 -67.855 9.125 -68.48 Q14.75 -71.23 20.688 -72.73 Q26.625 -74.23 32.875 -74.23 Q40.062 -74.23 46.938 -72.324 Q53.812 -70.417 60 -66.73 Q66.188 -70.417 73.062 -72.324 Q79.938 -74.23 87.125 -74.23 Q93.375 -74.23 99.312 -72.73 Q105.25 -71.23 110.875 -68.48 Q112.25 -67.855 113 -66.636 Q113.75 -65.417 113.75 -63.98 V-5.73 Q113.75 -2.855 111.312 -1.386 Q108.875 0.083 106.25 -1.23 Q101.75 -3.542 96.938 -4.824 Q92.125 -6.105 87.125 -6.105 Q79.688 -6.105 72.812 -3.511 Q65.938 -0.917 60 3.645 Z"/></g><g id="Light-M" transform="matrix(1 0 0 1 1098.18 1126)"><path d="M69.61 -46.701 V-52.672 Q73.688 -54.706 78.199 -55.684 Q82.71 -56.662 87.5 -56.662 Q90.401 -56.662 93.222 -56.29 Q96.044 -55.917 98.836 -55.205 V-49.341 Q96.091 -50.259 93.356 -50.631 Q90.62 -51.004 87.505 -51.004 Q82.714 -51.004 78.162 -49.915 Q73.61 -48.826 69.61 -46.701 Z M69.61 -19.297 V-25.365 Q73.591 -27.399 78.175 -28.427 Q82.759 -29.456 87.5 -29.456 Q90.401 -29.456 93.222 -29.066 Q96.044 -28.677 98.836 -27.899 V-22.032 Q96.091 -22.951 93.356 -23.374 Q90.62 -23.797 87.504 -23.797 Q82.711 -23.797 78.159 -22.649 Q73.606 -21.499 69.61 -19.297 Z M69.61 -32.951 V-39.019 Q73.688 -41.052 78.199 -42.03 Q82.71 -43.009 87.5 -43.009 Q90.401 -43.009 93.222 -42.67 Q96.044 -42.331 98.836 -41.552 V-35.686 Q96.091 -36.605 93.356 -37.029 Q90.62 -37.451 87.504 -37.451 Q82.711 -37.451 78.159 -36.264 Q73.606 -35.076 69.61 -32.951 Z M63.547 -9.509 Q69.341 -12.519 75.159 -13.927 Q80.976 -15.336 87.192 -15.336 Q91.635 -15.336 95.586 -14.732 Q99.539 -14.129 102.956 -12.917 Q103.534 -12.677 104.015 -12.99 Q104.495 -13.302 104.495 -13.975 V-60.657 Q104.495 -61.09 104.255 -61.427 Q104.015 -61.764 103.438 -62.004 Q99.375 -63.509 95.505 -64.266 Q91.635 -65.024 87.198 -65.024 Q80.985 -65.024 74.851 -63.256 Q68.716 -61.49 63.547 -58.049 V-9.509 Z M60 0.784 Q53.99 -3.537 47.091 -5.939 Q40.193 -8.341 32.803 -8.341 Q28.426 -8.341 24.216 -7.396 Q20.005 -6.451 16.019 -4.636 Q13.336 -3.451 10.924 -5.046 Q8.51 -6.641 8.51 -9.625 V-62.297 Q8.51 -63.951 9.393 -65.35 Q10.274 -66.749 11.841 -67.374 Q16.817 -69.667 22.081 -70.842 Q27.346 -72.019 32.803 -72.019 Q40.046 -72.019 46.954 -70.004 Q53.86 -67.99 60 -64.134 Q66.14 -67.99 73.046 -70.004 Q79.954 -72.019 87.198 -72.019 Q92.654 -72.019 97.919 -70.842 Q103.183 -69.667 108.159 -67.374 Q109.726 -66.749 110.608 -65.35 Q111.49 -63.951 111.49 -62.297 V-9.625 Q111.49 -6.641 108.98 -5.095 Q106.471 -3.547 103.692 -4.732 Q99.755 -6.5 95.627 -7.42 Q91.5 -8.341 87.198 -8.341 Q79.808 -8.341 72.909 -5.939 Q66.01 -3.537 60 0.784 Z"/></g><g id="Thin-M" transform="matrix(1 0 0 1 802.565 1126)"><path d="M69.346 -47.422 V-51.615 Q73.375 -53.745 78.022 -54.795 Q82.671 -55.845 87.5 -55.845 Q90.177 -55.845 92.725 -55.539 Q95.274 -55.231 97.922 -54.556 V-50.326 Q95.37 -51.1 92.899 -51.376 Q90.427 -51.652 87.51 -51.652 Q82.677 -51.652 78.011 -50.6 Q73.346 -49.547 69.346 -47.422 Z M69.346 -20.115 V-24.499 Q73.183 -26.629 77.975 -27.717 Q82.767 -28.807 87.5 -28.807 Q90.177 -28.807 92.725 -28.465 Q95.274 -28.124 97.922 -27.441 V-23.211 Q95.37 -23.985 92.899 -24.3 Q90.427 -24.615 87.507 -24.615 Q82.672 -24.615 78.005 -23.441 Q73.338 -22.269 69.346 -20.115 Z M69.346 -33.672 V-38.057 Q73.375 -40.186 78.022 -41.237 Q82.671 -42.287 87.5 -42.287 Q90.177 -42.287 92.725 -41.985 Q95.274 -41.682 97.922 -40.999 V-36.769 Q95.37 -37.542 92.899 -37.857 Q90.427 -38.172 87.507 -38.172 Q82.672 -38.172 78.005 -36.985 Q73.338 -35.797 69.346 -33.672 Z M62.346 -8.787 Q68.433 -12.182 74.567 -13.686 Q80.703 -15.191 87.261 -15.191 Q91.706 -15.191 95.297 -14.672 Q98.89 -14.152 101.539 -13.23 Q102.692 -12.749 103.654 -13.374 Q104.615 -13.999 104.615 -15.345 V-59.961 Q104.615 -60.826 104.135 -61.499 Q103.654 -62.172 102.5 -62.652 Q98.438 -64.037 95.073 -64.615 Q91.706 -65.191 87.269 -65.191 Q80.721 -65.191 74.203 -63.22 Q67.683 -61.249 62.346 -57.367 V-8.787 Z M60 -2.076 Q53.919 -6.157 46.995 -8.367 Q40.072 -10.576 32.731 -10.576 Q28.979 -10.576 25.369 -9.967 Q21.76 -9.36 18.286 -8.042 Q15.547 -6.985 13.159 -8.706 Q10.769 -10.427 10.769 -13.519 V-60.615 Q10.769 -62.485 11.784 -64.064 Q12.797 -65.644 14.557 -66.269 Q18.885 -68.105 23.476 -68.956 Q28.067 -69.807 32.731 -69.807 Q40.031 -69.807 46.97 -67.684 Q53.909 -65.561 60 -61.537 Q66.091 -65.561 73.03 -67.684 Q79.969 -69.807 87.269 -69.807 Q91.933 -69.807 96.524 -68.956 Q101.115 -68.105 105.442 -66.269 Q107.203 -65.644 108.216 -64.064 Q109.231 -62.485 109.231 -60.615 V-13.519 Q109.231 -10.427 106.649 -8.802 Q104.067 -7.177 101.136 -8.235 Q97.76 -9.456 94.317 -10.016 Q90.875 -10.576 87.269 -10.576 Q79.927 -10.576 73.005 -8.367 Q66.081 -6.157 60 -2.076 Z"/></g><g id="Ultralight-M" transform="matrix(1 0 0 1 506.415 1126)"><path d="M69.188 -47.855 V-50.98 Q73.188 -53.167 77.918 -54.261 Q82.647 -55.355 87.5 -55.355 Q90.043 -55.355 92.427 -55.087 Q94.812 -54.819 97.375 -54.166 V-50.917 Q94.938 -51.605 92.625 -51.824 Q90.312 -52.042 87.513 -52.042 Q82.655 -52.042 77.921 -51.011 Q73.188 -49.98 69.188 -47.855 Z M69.188 -20.605 V-23.98 Q72.938 -26.167 77.855 -27.292 Q82.772 -28.417 87.5 -28.417 Q90.043 -28.417 92.427 -28.105 Q94.812 -27.792 97.375 -27.167 V-23.917 Q94.938 -24.605 92.625 -24.855 Q90.312 -25.105 87.51 -25.105 Q82.649 -25.105 77.912 -23.917 Q73.175 -22.73 69.188 -20.605 Z M69.188 -34.105 V-37.48 Q73.188 -39.667 77.918 -40.761 Q82.647 -41.855 87.5 -41.855 Q90.043 -41.855 92.427 -41.574 Q94.812 -41.292 97.375 -40.667 V-37.417 Q94.938 -38.105 92.625 -38.355 Q90.312 -38.605 87.51 -38.605 Q82.649 -38.605 77.912 -37.417 Q73.175 -36.23 69.188 -34.105 Z M61.625 -8.355 Q67.888 -11.98 74.213 -13.542 Q80.539 -15.105 87.302 -15.105 Q91.75 -15.105 95.125 -14.636 Q98.5 -14.167 100.688 -13.417 Q102.188 -12.792 103.438 -13.605 Q104.688 -14.417 104.688 -16.167 V-59.542 Q104.688 -60.667 104.062 -61.542 Q103.438 -62.417 101.938 -63.042 Q97.875 -64.355 94.812 -64.824 Q91.75 -65.292 87.312 -65.292 Q80.562 -65.292 73.812 -63.199 Q67.062 -61.105 61.625 -56.959 V-8.355 Z M60 -3.792 Q53.875 -7.73 46.938 -9.824 Q40 -11.917 32.688 -11.917 Q29.31 -11.917 26.061 -11.511 Q22.812 -11.105 19.648 -10.086 Q16.875 -9.105 14.5 -10.902 Q12.125 -12.7 12.125 -15.855 V-59.605 Q12.125 -61.605 13.219 -63.292 Q14.312 -64.98 16.188 -65.605 Q20.125 -67.167 24.312 -67.824 Q28.5 -68.48 32.688 -68.48 Q40.021 -68.48 46.98 -66.292 Q53.938 -64.105 60 -59.98 Q66.062 -64.105 73.02 -66.292 Q79.979 -68.48 87.312 -68.48 Q91.5 -68.48 95.688 -67.824 Q99.875 -67.167 103.812 -65.605 Q105.688 -64.98 106.781 -63.292 Q107.875 -61.605 107.875 -59.605 V-15.855 Q107.875 -12.7 105.25 -11.027 Q102.625 -9.355 99.603 -10.336 Q96.562 -11.23 93.531 -11.574 Q90.5 -11.917 87.312 -11.917 Q80 -11.917 73.062 -9.824 Q66.125 -7.73 60 -3.792 Z"/></g><g id="Bold-S" transform="matrix(1 0 0 1 2294.23 696)"><path d="M55.526 -41.443 V-48.347 Q58.583 -49.481 61.887 -49.95 Q65.191 -50.418 68.643 -50.418 Q70.813 -50.418 73.106 -50.221 Q75.399 -50.024 77.914 -49.531 V-42.627 Q75.004 -43.268 72.785 -43.49 Q70.566 -43.712 68.643 -43.712 Q65.29 -43.712 61.986 -43.169 Q58.682 -42.627 55.526 -41.443 Z M55.526 -18.168 V-25.072 Q58.287 -26.107 61.493 -26.724 Q64.698 -27.34 68.643 -27.34 Q71.207 -27.34 73.5 -27.093 Q75.793 -26.847 77.914 -26.255 V-19.351 Q75.004 -19.992 72.785 -20.264 Q70.566 -20.535 68.643 -20.535 Q65.29 -20.535 61.986 -19.943 Q58.682 -19.351 55.526 -18.168 Z M55.526 -29.806 V-36.709 Q58.682 -37.844 62.035 -38.361 Q65.388 -38.879 68.643 -38.879 Q71.207 -38.879 73.5 -38.682 Q75.793 -38.485 77.914 -37.893 V-30.989 Q75.399 -31.63 73.13 -31.901 Q70.862 -32.173 68.643 -32.173 Q65.487 -32.173 62.232 -31.581 Q58.978 -30.989 55.526 -29.806 Z M50.693 -8.7 Q54.934 -10.672 59.323 -11.757 Q63.712 -12.842 68.347 -12.842 Q71.947 -12.842 75.547 -12.448 Q79.147 -12.053 82.352 -10.574 Q82.352 -10.574 82.352 -10.574 Q82.352 -10.574 82.352 -10.574 V-54.56 Q82.352 -54.56 82.352 -54.56 Q82.352 -54.56 82.352 -54.56 Q78.949 -55.744 75.448 -56.533 Q71.947 -57.322 68.347 -57.322 Q63.613 -57.322 59.175 -56.188 Q54.737 -55.054 50.693 -52.884 V-8.7 Z M47.636 4.319 Q42.754 1.409 37.527 -0.933 Q32.3 -3.275 26.333 -3.275 Q23.119 -3.275 19.894 -2.56 Q16.668 -1.845 13.512 -0.711 Q9.764 0.916 6.213 -1.146 Q2.663 -3.208 2.663 -7.22 V-55.152 Q2.663 -57.963 3.994 -60.227 Q5.326 -62.49 7.693 -63.634 Q12.032 -65.508 16.634 -66.248 Q21.236 -66.987 26.043 -66.987 Q31.807 -66.987 37.231 -65.631 Q42.655 -64.275 47.34 -61.366 Q52.222 -64.078 57.548 -65.533 Q62.873 -66.987 68.637 -66.987 Q73.444 -66.987 78.046 -66.248 Q82.648 -65.508 86.987 -63.634 Q89.354 -62.49 90.735 -60.227 Q92.116 -57.963 92.116 -55.152 V-5.741 Q92.116 -2.191 89.206 -0.489 Q86.297 1.212 83.141 -0.317 Q79.492 -1.747 75.822 -2.511 Q72.153 -3.275 68.347 -3.275 Q62.578 -3.275 57.498 -0.884 Q52.419 1.508 47.636 4.319 Z"/></g><g id="Semibold-S" transform="matrix(1 0 0 1 1998.1 696)"><path d="M55.526 -43.03 V-49.934 Q58.583 -51.068 61.887 -51.537 Q65.191 -52.005 68.643 -52.005 Q70.813 -52.005 73.106 -51.808 Q75.399 -51.611 77.914 -51.118 V-44.214 Q75.004 -44.855 72.785 -45.077 Q70.566 -45.299 68.643 -45.299 Q65.29 -45.299 61.986 -44.756 Q58.682 -44.214 55.526 -43.03 Z M55.526 -19.755 V-26.659 Q58.287 -27.694 61.493 -28.31 Q64.698 -28.927 68.643 -28.927 Q71.207 -28.927 73.5 -28.68 Q75.793 -28.434 77.914 -27.842 V-20.938 Q75.004 -21.579 72.785 -21.851 Q70.566 -22.122 68.643 -22.122 Q65.29 -22.122 61.986 -21.53 Q58.682 -20.938 55.526 -19.755 Z M55.526 -31.393 V-38.296 Q58.682 -39.43 62.035 -39.948 Q65.388 -40.466 68.643 -40.466 Q71.207 -40.466 73.5 -40.269 Q75.793 -40.072 77.914 -39.48 V-32.576 Q75.399 -33.217 73.13 -33.488 Q70.862 -33.76 68.643 -33.76 Q65.487 -33.76 62.232 -33.168 Q58.978 -32.576 55.526 -31.393 Z M50.693 -10.287 Q54.934 -12.259 59.323 -13.344 Q63.712 -14.429 68.347 -14.429 Q71.947 -14.429 75.547 -14.035 Q79.147 -13.64 82.352 -12.161 Q82.352 -12.161 82.352 -12.161 Q82.352 -12.161 82.352 -12.161 V-56.147 Q82.352 -56.147 82.352 -56.147 Q82.352 -56.147 82.352 -56.147 Q78.949 -57.331 75.448 -58.12 Q71.947 -58.909 68.347 -58.909 Q63.613 -58.909 59.175 -57.775 Q54.737 -56.641 50.693 -54.471 V-10.287 Z M47.508 1.146 Q42.668 -1.807 37.441 -3.978 Q32.214 -6.148 26.333 -6.148 Q22.973 -6.148 19.606 -5.455 Q16.239 -4.761 12.997 -3.541 Q9.85 -2.214 6.921 -3.948 Q3.992 -5.682 3.992 -9.064 V-57.039 Q3.992 -59.249 5.088 -61.032 Q6.184 -62.815 8.078 -63.72 Q12.375 -65.594 16.906 -66.419 Q21.436 -67.245 26.169 -67.245 Q31.849 -67.245 37.231 -65.889 Q42.613 -64.532 47.34 -61.751 Q52.222 -64.378 57.526 -65.812 Q62.831 -67.245 68.511 -67.245 Q73.244 -67.245 77.774 -66.419 Q82.305 -65.594 86.602 -63.72 Q88.496 -62.815 89.641 -61.032 Q90.786 -59.249 90.786 -57.039 V-8.228 Q90.786 -5.149 88.477 -3.555 Q86.169 -1.961 83.656 -3.146 Q79.921 -4.662 76.11 -5.406 Q72.299 -6.148 68.347 -6.148 Q62.578 -6.148 57.434 -3.949 Q52.291 -1.751 47.508 1.146 Z"/></g><g id="Medium-S" transform="matrix(1 0 0 1 1701.85 696)"><path d="M55.526 -44.22 V-51.123 Q58.583 -52.258 61.887 -52.726 Q65.191 -53.195 68.643 -53.195 Q70.813 -53.195 73.106 -52.997 Q75.399 -52.8 77.914 -52.307 V-45.403 Q75.004 -46.044 72.785 -46.266 Q70.566 -46.488 68.643 -46.488 Q65.29 -46.488 61.986 -45.946 Q58.682 -45.403 55.526 -44.22 Z M55.526 -20.944 V-27.848 Q58.287 -28.883 61.493 -29.5 Q64.698 -30.116 68.643 -30.116 Q71.207 -30.116 73.5 -29.87 Q75.793 -29.623 77.914 -29.031 V-22.128 Q75.004 -22.769 72.785 -23.04 Q70.566 -23.311 68.643 -23.311 Q65.29 -23.311 61.986 -22.719 Q58.682 -22.128 55.526 -20.944 Z M55.526 -32.582 V-39.486 Q58.682 -40.62 62.035 -41.138 Q65.388 -41.655 68.643 -41.655 Q71.207 -41.655 73.5 -41.458 Q75.793 -41.261 77.914 -40.669 V-33.765 Q75.399 -34.406 73.13 -34.678 Q70.862 -34.949 68.643 -34.949 Q65.487 -34.949 62.232 -34.357 Q58.978 -33.765 55.526 -32.582 Z M50.693 -11.476 Q54.934 -13.449 59.323 -14.534 Q63.712 -15.618 68.347 -15.618 Q71.947 -15.618 75.547 -15.224 Q79.147 -14.829 82.352 -13.35 Q82.352 -13.35 82.352 -13.35 Q82.352 -13.35 82.352 -13.35 V-57.337 Q82.352 -57.337 82.352 -57.337 Q82.352 -57.337 82.352 -57.337 Q78.949 -58.52 75.448 -59.309 Q71.947 -60.098 68.347 -60.098 Q63.613 -60.098 59.175 -58.964 Q54.737 -57.83 50.693 -55.66 V-11.476 Z M47.411 -1.234 Q42.604 -4.218 37.377 -6.261 Q32.15 -8.303 26.333 -8.303 Q22.863 -8.303 19.39 -7.626 Q15.917 -6.948 12.611 -5.664 Q9.914 -4.562 7.451 -6.049 Q4.989 -7.537 4.989 -10.448 V-58.454 Q4.989 -60.215 5.908 -61.637 Q6.827 -63.06 8.368 -63.784 Q12.633 -65.658 17.109 -66.547 Q21.587 -67.438 26.264 -67.438 Q31.882 -67.438 37.231 -66.082 Q42.58 -64.726 47.34 -62.041 Q52.222 -64.603 57.51 -66.021 Q62.798 -67.438 68.416 -67.438 Q73.093 -67.438 77.571 -66.547 Q82.047 -65.658 86.312 -63.784 Q87.853 -63.06 88.822 -61.637 Q89.789 -60.215 89.789 -58.454 V-10.093 Q89.789 -7.368 87.931 -5.855 Q86.072 -4.341 84.041 -5.27 Q80.242 -6.85 76.326 -7.577 Q72.409 -8.303 68.347 -8.303 Q62.578 -8.303 57.386 -6.249 Q52.194 -4.196 47.411 -1.234 Z"/></g><g id="Regular-S" transform="matrix(1 0 0 1 1405.73 696)"><path d="M55.526 -45.092 V-51.996 Q58.583 -53.13 61.887 -53.599 Q65.191 -54.067 68.643 -54.067 Q70.813 -54.067 73.106 -53.87 Q75.399 -53.673 77.914 -53.18 V-46.276 Q75.004 -46.917 72.785 -47.139 Q70.566 -47.361 68.643 -47.361 Q65.29 -47.361 61.986 -46.818 Q58.682 -46.276 55.526 -45.092 Z M55.526 -21.817 V-28.721 Q58.287 -29.756 61.493 -30.373 Q64.698 -30.989 68.643 -30.989 Q71.207 -30.989 73.5 -30.743 Q75.793 -30.496 77.914 -29.904 V-23 Q75.004 -23.642 72.785 -23.913 Q70.566 -24.184 68.643 -24.184 Q65.29 -24.184 61.986 -23.592 Q58.682 -23 55.526 -21.817 Z M55.526 -33.455 V-40.358 Q58.682 -41.493 62.035 -42.01 Q65.388 -42.528 68.643 -42.528 Q71.207 -42.528 73.5 -42.331 Q75.793 -42.134 77.914 -41.542 V-34.638 Q75.399 -35.279 73.13 -35.551 Q70.862 -35.822 68.643 -35.822 Q65.487 -35.822 62.232 -35.23 Q58.978 -34.638 55.526 -33.455 Z M50.693 -12.349 Q54.934 -14.321 59.323 -15.406 Q63.712 -16.491 68.347 -16.491 Q71.947 -16.491 75.547 -16.097 Q79.147 -15.702 82.352 -14.223 Q82.352 -14.223 82.352 -14.223 Q82.352 -14.223 82.352 -14.223 V-58.21 Q82.352 -58.21 82.352 -58.21 Q82.352 -58.21 82.352 -58.21 Q78.949 -59.393 75.448 -60.182 Q71.947 -60.971 68.347 -60.971 Q63.613 -60.971 59.175 -59.837 Q54.737 -58.703 50.693 -56.533 V-12.349 Z M47.34 -2.98 Q42.557 -5.988 37.33 -7.936 Q32.102 -9.883 26.333 -9.883 Q22.782 -9.883 19.232 -9.218 Q15.681 -8.552 12.328 -7.22 Q9.961 -6.284 7.841 -7.59 Q5.72 -8.897 5.72 -11.461 V-59.492 Q5.72 -60.922 6.509 -62.081 Q7.298 -63.239 8.58 -63.831 Q12.821 -65.705 17.259 -66.642 Q21.698 -67.579 26.333 -67.579 Q31.905 -67.579 37.231 -66.223 Q42.557 -64.867 47.34 -62.253 Q52.222 -64.768 57.498 -66.174 Q62.775 -67.579 68.347 -67.579 Q72.983 -67.579 77.421 -66.642 Q81.859 -65.705 86.1 -63.831 Q87.382 -63.239 88.22 -62.081 Q89.058 -60.922 89.058 -59.492 V-11.461 Q89.058 -8.996 87.53 -7.541 Q86.001 -6.086 84.324 -6.826 Q80.478 -8.453 76.484 -9.168 Q72.489 -9.883 68.347 -9.883 Q62.578 -9.883 57.35 -7.936 Q52.123 -5.988 47.34 -2.98 Z"/></g><g id="Light-S" transform="matrix(1 0 0 1 1109.75 696)"><path d="M55.317 -45.662 V-51.162 Q58.337 -52.372 61.748 -52.897 Q65.16 -53.422 68.643 -53.422 Q70.636 -53.422 72.714 -53.276 Q74.792 -53.13 77.193 -52.667 V-47.054 Q74.435 -47.581 72.425 -47.727 Q70.414 -47.873 68.647 -47.873 Q65.261 -47.873 61.867 -47.359 Q58.473 -46.845 55.317 -45.662 Z M55.317 -22.462 V-28.038 Q57.965 -29.15 61.335 -29.814 Q64.705 -30.477 68.643 -30.477 Q71.031 -30.477 73.109 -30.268 Q75.187 -30.06 77.193 -29.544 V-23.93 Q74.435 -24.457 72.425 -24.643 Q70.414 -24.829 68.646 -24.829 Q65.259 -24.829 61.865 -24.219 Q58.47 -23.607 55.317 -22.462 Z M55.317 -34.024 V-39.6 Q58.435 -40.81 61.896 -41.384 Q65.357 -41.959 68.643 -41.959 Q71.031 -41.959 73.109 -41.791 Q75.187 -41.622 77.193 -41.106 V-35.491 Q74.83 -36.019 72.77 -36.205 Q70.71 -36.391 68.646 -36.391 Q65.456 -36.391 62.111 -35.799 Q58.766 -35.207 55.317 -34.024 Z M49.744 -11.78 Q54.217 -14.056 58.856 -15.217 Q63.496 -16.378 68.4 -16.378 Q72.004 -16.378 75.319 -16.049 Q78.635 -15.721 81.232 -14.469 Q81.688 -14.28 82.068 -14.527 Q82.447 -14.773 82.447 -15.304 V-57.659 Q82.447 -58.001 82.257 -58.267 Q82.068 -58.532 81.612 -58.721 Q78.21 -59.81 75.107 -60.457 Q72.004 -61.104 68.404 -61.104 Q63.404 -61.104 58.663 -59.808 Q53.921 -58.513 49.744 -55.995 V-11.78 Z M47.34 -5.237 Q42.499 -8.055 37.254 -9.851 Q32.008 -11.648 26.276 -11.648 Q23.217 -11.648 20.142 -11.247 Q17.066 -10.847 14.118 -9.908 Q11.706 -9.072 9.605 -10.478 Q7.503 -11.884 7.503 -14.535 V-58.164 Q7.503 -59.765 8.397 -61.066 Q9.289 -62.367 10.723 -62.958 Q14.453 -64.472 18.359 -65.153 Q22.267 -65.834 26.276 -65.834 Q31.892 -65.834 37.244 -64.392 Q42.594 -62.952 47.34 -60.205 Q52.184 -62.853 57.486 -64.343 Q62.788 -65.834 68.404 -65.834 Q72.413 -65.834 76.321 -65.153 Q80.227 -64.472 83.957 -62.958 Q85.391 -62.367 86.332 -61.066 Q87.275 -59.765 87.275 -58.164 V-14.535 Q87.275 -11.983 85.689 -10.467 Q84.104 -8.95 82.307 -9.589 Q78.904 -10.787 75.45 -11.217 Q71.996 -11.648 68.404 -11.648 Q62.672 -11.648 57.426 -9.851 Q52.181 -8.055 47.34 -5.237 Z"/></g><g id="Thin-S" transform="matrix(1 0 0 1 814.015 696)"><path d="M55.109 -46.231 V-50.328 Q58.09 -51.614 61.609 -52.195 Q65.129 -52.777 68.643 -52.777 Q70.46 -52.777 72.322 -52.684 Q74.185 -52.589 76.472 -52.155 V-47.831 Q73.866 -48.245 72.064 -48.315 Q70.262 -48.385 68.651 -48.385 Q65.233 -48.385 61.748 -47.899 Q58.265 -47.414 55.109 -46.231 Z M55.109 -23.107 V-27.355 Q57.642 -28.542 61.177 -29.253 Q64.712 -29.965 68.643 -29.965 Q70.854 -29.965 72.716 -29.794 Q74.579 -29.623 76.472 -29.183 V-24.86 Q73.866 -25.273 72.064 -25.373 Q70.262 -25.474 68.649 -25.474 Q65.229 -25.474 61.743 -24.844 Q58.258 -24.215 55.109 -23.107 Z M55.109 -34.593 V-38.842 Q58.189 -40.127 61.757 -40.759 Q65.326 -41.39 68.643 -41.39 Q70.854 -41.39 72.716 -41.25 Q74.579 -41.11 76.472 -40.669 V-36.345 Q74.261 -36.759 72.409 -36.859 Q70.558 -36.96 68.649 -36.96 Q65.426 -36.96 61.99 -36.368 Q58.554 -35.776 55.109 -34.593 Z M48.797 -11.211 Q53.5 -13.791 58.39 -15.027 Q63.28 -16.263 68.455 -16.263 Q72.06 -16.263 75.091 -16.002 Q78.123 -15.74 80.114 -14.716 Q81.024 -14.336 81.783 -14.829 Q82.541 -15.323 82.541 -16.385 V-57.11 Q82.541 -57.792 82.163 -58.323 Q81.783 -58.855 80.873 -59.233 Q77.47 -60.227 74.766 -60.732 Q72.06 -61.236 68.461 -61.236 Q63.196 -61.236 58.151 -59.78 Q53.106 -58.323 48.797 -55.458 V-11.211 Z M47.34 -7.494 Q42.443 -10.122 37.178 -11.767 Q31.913 -13.411 26.219 -13.411 Q23.653 -13.411 21.052 -13.276 Q18.451 -13.142 15.907 -12.596 Q13.45 -11.86 11.369 -13.366 Q9.286 -14.872 9.286 -17.607 V-56.837 Q9.286 -58.608 10.284 -60.051 Q11.281 -61.495 12.867 -62.087 Q16.084 -63.239 19.46 -63.665 Q22.836 -64.09 26.219 -64.09 Q31.881 -64.09 37.257 -62.562 Q42.633 -61.035 47.34 -58.156 Q52.146 -60.937 57.473 -62.513 Q62.799 -64.09 68.461 -64.09 Q71.844 -64.09 75.22 -63.665 Q78.596 -63.239 81.813 -62.087 Q83.399 -61.495 84.446 -60.051 Q85.493 -58.608 85.493 -56.837 V-17.607 Q85.493 -14.97 83.85 -13.392 Q82.208 -11.814 80.29 -12.353 Q77.33 -13.119 74.417 -13.265 Q71.503 -13.411 68.461 -13.411 Q62.767 -13.411 57.502 -11.767 Q52.237 -10.122 47.34 -7.494 Z"/></g><g id="Ultralight-S" transform="matrix(1 0 0 1 517.792 696)"><path d="M54.983 -46.572 V-49.826 Q57.942 -51.158 61.526 -51.774 Q65.11 -52.391 68.643 -52.391 Q70.353 -52.391 72.087 -52.328 Q73.821 -52.264 76.04 -51.847 V-48.298 Q73.525 -48.643 71.848 -48.668 Q70.172 -48.692 68.653 -48.692 Q65.215 -48.692 61.677 -48.224 Q58.139 -47.755 54.983 -46.572 Z M54.983 -23.494 V-26.945 Q57.449 -28.178 61.082 -28.918 Q64.716 -29.658 68.643 -29.658 Q70.748 -29.658 72.481 -29.51 Q74.215 -29.362 76.04 -28.967 V-25.417 Q73.525 -25.762 71.848 -25.811 Q70.172 -25.861 68.651 -25.861 Q65.21 -25.861 61.67 -25.22 Q58.13 -24.578 54.983 -23.494 Z M54.983 -34.934 V-38.386 Q58.041 -39.717 61.674 -40.383 Q65.308 -41.049 68.643 -41.049 Q70.748 -41.049 72.481 -40.926 Q74.215 -40.802 76.04 -40.408 V-36.857 Q73.919 -37.202 72.194 -37.252 Q70.468 -37.301 68.651 -37.301 Q65.407 -37.301 61.917 -36.709 Q58.425 -36.118 54.983 -34.934 Z M48.228 -10.87 Q53.07 -13.631 58.11 -14.913 Q63.151 -16.195 68.487 -16.195 Q72.095 -16.195 74.955 -15.973 Q77.815 -15.752 79.442 -14.864 Q80.626 -14.371 81.612 -15.012 Q82.598 -15.653 82.598 -17.034 V-56.78 Q82.598 -57.667 82.105 -58.358 Q81.612 -59.048 80.429 -59.541 Q77.026 -60.478 74.561 -60.897 Q72.095 -61.316 68.495 -61.316 Q63.071 -61.316 57.844 -59.763 Q52.616 -58.21 48.228 -55.135 V-10.87 Z M47.34 -8.848 Q42.409 -11.363 37.132 -12.916 Q31.856 -14.469 26.185 -14.469 Q23.915 -14.469 21.598 -14.494 Q19.281 -14.519 16.981 -14.208 Q14.498 -13.532 12.427 -15.099 Q10.356 -16.665 10.356 -19.45 V-56.04 Q10.356 -57.914 11.416 -59.442 Q12.476 -60.971 14.153 -61.563 Q17.062 -62.5 20.12 -62.771 Q23.177 -63.042 26.185 -63.042 Q31.873 -63.042 37.264 -61.464 Q42.655 -59.886 47.34 -56.927 Q52.123 -59.788 57.465 -61.415 Q62.807 -63.042 68.495 -63.042 Q71.503 -63.042 74.561 -62.771 Q77.618 -62.5 80.527 -61.563 Q82.204 -60.971 83.313 -59.442 Q84.423 -57.914 84.423 -56.04 V-19.45 Q84.423 -16.763 82.746 -15.148 Q81.07 -13.532 79.079 -14.011 Q76.385 -14.519 73.796 -14.494 Q71.207 -14.469 68.495 -14.469 Q62.824 -14.469 57.548 -12.916 Q52.271 -11.363 47.34 -8.848 Z"/></g></g></svg>