<svg xmlns="http://www.w3.org/2000/svg" height="20" width="20"><path d="M10.021 10.104q2.354 0 4.667.948Q17 12 18.792 13.896q.125.166.125.344 0 .177-.125.302l-1.917 1.854q-.104.104-.271.125-.166.021-.312-.083l-2.604-1.959v-2.812q-.938-.355-1.865-.5-.927-.146-1.802-.146t-1.813.146q-.937.145-1.875.5v2.812l-2.604 1.959q-.104.104-.291.083-.188-.021-.292-.125l-1.917-1.854q-.167-.167-.146-.323.021-.157.146-.323 1.854-1.813 4.156-2.802 2.303-.99 4.636-.99Zm-.5-4.292V2.417h.917v3.395Zm5.104 2.167-.646-.625 2.438-2.396.666.625Zm-9.292 0L2.896 5.646l.666-.688 2.459 2.396Z"/></svg>