<svg xmlns="http://www.w3.org/2000/svg" height="24" width="24"><path d="M20.025 21.125Q19.35 21.125 18.9 20.65Q18.45 20.175 18.45 19.5Q18.45 18.825 18.9 18.35Q19.35 17.875 20.025 17.875Q20.725 17.875 21.188 18.35Q21.65 18.825 21.65 19.5Q21.65 20.175 21.188 20.65Q20.725 21.125 20.025 21.125ZM10 22.45Q7.325 22.45 5.438 21.725Q3.55 21 3.55 20Q3.55 19.35 4.463 18.788Q5.375 18.225 6.8 17.85V20H8.8V1.425L17.95 5.9L11.2 9.375V17.65Q13.525 17.8 14.988 18.438Q16.45 19.075 16.45 20Q16.45 20.925 14.65 21.688Q12.85 22.45 10 22.45Z"/></svg>