<svg xmlns="http://www.w3.org/2000/svg" height="24" width="24"><path d="m10.6 16.125 6.975-6.975-1.5-1.475L10.6 13.15l-2.725-2.725L6.4 11.9Zm-5.425 4.85q-.9 0-1.525-.638-.625-.637-.625-1.512V5.2q0-.9.625-1.525.625-.625 1.525-.625h4.05q.3-.9 1.063-1.438.762-.537 1.712-.537t1.713.537q.762.538 1.062 1.438h4.05q.9 0 1.525.625.625.625.625 1.525v13.625q0 .875-.625 1.512-.625.638-1.525.638Zm0-2.15h13.65V5.2H5.175v13.625ZM12 4.475q.35 0 .575-.225.225-.225.225-.575t-.225-.575q-.225-.225-.575-.225t-.575.225q-.225.225-.225.575t.225.575q.225.225.575.225Zm-6.825 14.35V5.2v13.625Z"/></svg>