<svg xmlns="http://www.w3.org/2000/svg" height="48" viewBox="0 -960 960 960" width="48"><path d="M592.63-104.85q-32.42 0-54.98-22.56-22.56-22.56-22.56-54.74v-186.46q0-31.18 22.56-54.24 22.56-23.06 54.98-23.06h185.22q32.18 0 54.86 23.06t22.68 54.24v186.46q0 32.18-22.68 54.74-22.68 22.56-54.86 22.56H592.63Zm0-410.24q-32.42 0-54.98-22.56-22.56-22.56-22.56-54.98v-185.22q0-32.18 22.56-54.86t54.98-22.68h185.22q32.18 0 54.86 22.68t22.68 54.86v185.22q0 32.42-22.68 54.98-22.68 22.56-54.86 22.56H592.63Zm-410.48 0q-32.18 0-54.74-22.56-22.56-22.56-22.56-54.98v-185.22q0-32.18 22.56-54.86t54.74-22.68h186.46q31.18 0 54.24 22.68 23.06 22.68 23.06 54.86v185.22q0 32.42-23.06 54.98-23.06 22.56-54.24 22.56H182.15Zm0 410.24q-32.18 0-54.74-22.56-22.56-22.56-22.56-54.74v-186.46q0-31.18 22.56-54.24 22.56-23.06 54.74-23.06h186.46q31.18 0 54.24 23.06 23.06 23.06 23.06 54.24v186.46q0 32.18-23.06 54.74-23.06 22.56-54.24 22.56H182.15Z"/></svg>