<svg xmlns="http://www.w3.org/2000/svg" height="48" viewBox="0 -960 960 960" width="48"><path d="M500.16-316q-48.49 0-82.33 33.81Q384-248.38 384-200v21q0 6 5 11t11 5h201q7 0 11.5-5t4.5-11v-21q0-48.38-33.69-82.19Q549.62-316 500.16-316ZM326-600.94q0 64.66 45 113.3T480-432l135 13q14 1 24.5-8.5T650-451v-302q0-14-10.5-23.5T615-785l-133.59 13.78q-67.58 6.41-111.5 55.35Q326-666.93 326-600.94ZM389-128q-16.25 0-28.12-11.88Q349-151.75 349-168v-32q0-63.42 43.84-107.21Q436.67-351 500-351q10.32 0 18.83 2 8.5 2 18.17 3l28-43.49-87-8.51q-80.48-7.06-133.74-65.31Q291-521.56 291-601.32q0-79.37 53.5-137.02Q398-796 478-806l135-13q29-3 50.5 16.77Q685-782.47 685-752v302q0 30.47-21.5 50.23Q642-380 613-383l-8-2-34 50q37 20 59 55t22 80v32q0 16.25-11.75 28.12Q628.51-128 612.44-128H389Zm261-474ZM500-163Z"/></svg>