<svg xmlns="http://www.w3.org/2000/svg" height="20" viewBox="0 -960 960 960" width="20"><path d="M480.23-299q75.91 0 128.34-52.5Q661-404 661-480v-181H480q-76 0-128.5 52.43T299-480.23q0 23.23 6.5 45.73Q312-412 323-392l-9 9.59Q299-367 299-348q0 19 15 34t34 15q19 0 34.41-15l9.59-9q20 11 42.5 17.5t45.73 6.5ZM480 1 329-116l-189.32-22.78L117-329-1-480l118.04-151.49 22.61-188.86 188.86-22.61L480-961l151 118 189 22 23 190 118 151-117 151-22.78 189.32L631-117 480 1Zm36-448q15-14.67 15-34.33Q531-501 516-516t-34.67-15q-19.66 0-34.33 15l-14 14q-15 14.67-15 34.33Q418-448 433-433t34.5 15q19.5 0 34.5-15l14-14Z"/></svg>