<svg xmlns="http://www.w3.org/2000/svg" height="40" viewBox="0 -960 960 960" width="40"><path d="M168.67-229.33V-672l-66-143.17q-5.5-11.66-1.25-24 4.25-12.33 15.91-17.83 12.34-6.17 25.19-1.48 12.85 4.68 18.48 17.15l75.67 168.66H724l75.67-168.66q5.54-12.23 18.02-16.95 12.48-4.72 24.98 1.28 11.66 5.5 16.25 18.17 4.58 12.66-.92 24.33L792-672v442.67q0 26.27-18.53 44.8Q754.94-166 728.67-166H232q-26.27 0-44.8-18.53-18.53-18.53-18.53-44.8Zm229.33-224h165.33q13.73 0 22.53-8.86 8.81-8.86 8.81-22.67 0-13.47-8.81-22.64-8.8-9.17-22.53-9.17H398q-13.73 0-22.53 9.09-8.8 9.1-8.8 22.91 0 13.73 8.8 22.53 8.8 8.81 22.53 8.81Z"/></svg>