<svg xmlns="http://www.w3.org/2000/svg" height="24" viewBox="0 -960 960 960" width="24"><path d="M135-256v-448L87-809.5q-10.5-22-2.25-46T116-890q23-10.5 46.66-1.93Q186.32-883.37 197-860l72 155h422l72-156q10.54-22.89 34.52-30.94Q821.5-900 845-890q21.78 10.74 30.14 34.62 8.36 23.88-2.14 45.88L825-704v448q0 50.94-35.03 85.97T704-135H256q-50.94 0-85.97-35.03T135-256Zm266-179h158q19.13 0 32.06-12.99 12.94-13 12.94-32.2 0-19.21-12.94-32.51Q578.13-526 559-526H401q-19.12 0-32.06 13.22Q356-499.55 356-480q0 19.12 12.94 32.06Q381.88-435 401-435ZM256-256h448v-328H256v328Zm0 0v-328 328Z"/></svg>