<svg xmlns="http://www.w3.org/2000/svg" height="20" width="20"><path d="M14.604 18.021q-.937 0-1.427-.396-.489-.396-.719-.667-.02-.02.032.021.052.042.031.042h-.938q-.979 0-1.51-.646t-.531-1.396q0-.437.208-.854t.625-.771l.646-.542V8.833L9.917 7.208q-.188-.291-.282-.573-.093-.281-.093-.614 0-.792.562-1.417.563-.625 1.5-.625h3.354q.959 0 1.521.636.563.635.563 1.447 0 .292-.094.594t-.281.573l-1.146 1.625v4.208l.667.646q.374.334.604.834.229.5.229 1.062 0 1-.709 1.708-.708.709-1.708.709Zm0-1.521q.375 0 .636-.26.26-.261.26-.657 0-.333-.177-.541-.177-.209-.198-.23l-.667-.666q-.229-.208-.343-.479-.115-.271-.115-.584v-4.25q0-.229.062-.448.063-.218.188-.385l1.167-1.646q.021-.042.083-.312 0-.23-.146-.386t-.396-.156h-3.354q-.292 0-.416.156-.126.156-.126.344 0 .083.032.177.031.094.073.177L12.312 8q.126.188.178.396.052.208.052.437v4.021q0 .334-.125.604-.125.271-.396.521l-.709.583q-.124.105-.187.219-.063.115-.063.219 0 .188.167.344.167.156.354.156h1.063q.312 0 .594.125.281.125.489.375.167.188.333.344.167.156.542.156Zm-6.979.292q-.25.146-.5.187-.25.042-.5.042-.792 0-1.469-.573t-.677-1.573V7.333L3.125 4.604Q3.021 4.396 3 4.198 2.979 4 2.979 3.812q0-.687.5-1.26t1.313-.573h3.729V4q.729 0 1.229.531.5.531.5 1.281 0 .25-.094.563-.094.313-.323.583L8.958 8l.021 3.917.959 1.458q.187.25.229.49.041.239.041.489 0 .521-.27.948-.271.427-.75.656Zm-.729-1.354 1.625-.834q.083-.042.135-.104.052-.062.052-.167 0-.062-.062-.145l-.958-1.438q-.105-.188-.167-.375-.063-.187-.063-.417l-.02-3.937q0-.229.072-.479.073-.25.219-.438L8.646 6q.021 0 .083-.188 0-.124-.083-.218-.084-.094-.25-.094h-.438q-.396 0-.677-.271T7 4.562V3.5H4.792q-.125 0-.209.094-.083.094-.083.218 0 .042.021.105l1.333 2.771q.084.166.115.322.031.157.031.302v7.563q0 .271.188.448.187.177.416.177l.292-.062ZM13.271 11ZM6.604 9.5Z"/></svg>