<svg xmlns="http://www.w3.org/2000/svg" height="20" width="20"><path d="M13.792 10.688h-.021L6.083 3.125h9.834q1.125 0 1.448.687.323.688-.177 1.542l-2.542 4.604q-.167.25-.354.448-.188.198-.5.282Zm-7.813 7.75q-.687 0-1.167-.48-.479-.479-.479-1.166 0-.688.479-1.167.48-.479 1.167-.479.688 0 1.167.479.479.479.479 1.167 0 .687-.479 1.166-.479.48-1.167.48Zm10.667.937-5-5H6.125q-1.083 0-1.667-.948-.583-.948-.062-1.927l.958-1.771-1.437-3.083-2.813-2.854q-.312-.313-.302-.688.01-.375.323-.687.313-.313.677-.302.365.01.698.323l15.521 15.52q.291.313.302.698.01.386-.302.698-.292.292-.698.313-.406.021-.677-.292Zm-7.292-7.313-1.25-1.291h-.771l-.645 1.291Zm4.75 6.376q-.687 0-1.166-.48-.48-.479-.48-1.166 0-.688.48-1.167.479-.479 1.166-.479.688 0 1.167.479.479.479.479 1.167 0 .687-.479 1.166-.479.48-1.167.48Z"/></svg>