<svg xmlns="http://www.w3.org/2000/svg" height="24" width="24"><path d="M16.6 13.25 6.675 3.275H20.85q.7 0 1.038.55.337.55-.038 1.175l-4.325 7.725q-.175.25-.412.375-.238.125-.513.15Zm-9.65 9.275q-.95 0-1.625-.675t-.675-1.625q0-.95.675-1.625t1.625-.675q.95 0 1.625.675t.675 1.625q0 .95-.675 1.625t-1.625.675Zm13.225.9-6.1-6H7.7q-1.275 0-1.975-1.125-.7-1.125-.1-2.35l.9-1.95-1.7-3.9L.65 3.925q-.375-.35-.362-.9.012-.55.387-.925t.925-.375q.55 0 .925.375l19.5 19.5q.375.375.363.913-.013.537-.388.912t-.913.375q-.537 0-.912-.375Zm-8.85-8.725L9.9 13.25h-.95L8.3 14.7Zm5.925 7.825q-.95 0-1.625-.675t-.675-1.625q0-.95.675-1.625t1.625-.675q.95 0 1.625.675t.675 1.625q0 .95-.675 1.625t-1.625.675Z"/></svg>