<svg xmlns="http://www.w3.org/2000/svg" height="20" width="20"><path d="M4.812 13.271q-.583 0-.968-.396-.386-.396-.386-.979V8.104q0-.583.386-.979.385-.396.968-.396h10.376q.583 0 .968.396.386.396.386.979v3.792q0 .583-.386.979-.385.396-.968.396Zm0-.854h10.376q.187 0 .354-.167.166-.167.166-.354V8.104q0-.187-.166-.354-.167-.167-.354-.167H4.812q-.187 0-.354.167-.166.167-.166.354v3.792q0 .187.166.354.167.167.354.167ZM3.458 4.854V4h13.084v.854Zm0 11.146v-.854h13.084V16Zm.834-8.417v4.834-4.834Z"/></svg>