<svg xmlns="http://www.w3.org/2000/svg" height="40" viewBox="0 -960 960 960" width="40"><path d="M743.5-66.83q-23.83 0-45.92-3.09Q675.5-73 654.33-81.83L109-280.67l7-20.83 282.67 102.67 74.66-182.67L303.5-542q-18.83-16.5-15.83-41.25 3-24.75 27-38.42l172-103q10.5-6.16 21.91-7.08 11.42-.92 22.09 3.25 10.83 4 18.75 12.75 7.91 8.75 12.25 19.58l13 42.5q19 61.17 50.66 97.5 31.67 36.34 91.34 54l22-65.66 21.66 7-29.83 86.33q-74.5-19.67-113.08-56.08Q578.83-567 554-644L381.83-542.17l121.84 148.5-82.84 202.84 167.84 61 91.66-269.34q4.67 3.67 9.5 5.42 4.84 1.75 11.67 3.08l-91.17 268.84L656.67-105Q680-96.5 700-93.25T743.5-90q25.17 0 47.33-3.83 22.17-3.84 44.5-11.34l16.5 17.67q-27.5 13.33-53.16 17-25.67 3.67-55.17 3.67ZM644.83-719q-25.66 0-43.66-18.5-18-18.5-18-43.83 0-26 18-44.17t43.66-18.17q25.5 0 43.92 18.17t18.42 44.17q0 25.33-18.42 43.83T644.83-719Z"/></svg>