<svg xmlns="http://www.w3.org/2000/svg" height="20" viewBox="0 -960 960 960" width="20"><path d="M87.28-86.78v-786.44h786.44v411.81H717.63l-81.41-219.81h-312.5l-68.44 186v222.52h69l-2-38.52h102.5v224.44H87.28Zm404.5 0v-307.63h436.76v307.63H491.78Zm126-52.68h185.07q2.26-28.06 22.09-48.2 19.84-20.13 49.36-23.18v-58.2q-29.63-2.5-49.41-22.04-19.78-19.53-22.04-49.16H617.82q-3.6 28.63-22.88 48.66-19.29 20.04-48.92 22.76v58.17q28.58 2.87 48.46 23.02 19.87 20.16 23.3 48.17Zm92.9-49.3q-20.68 0-36.66-15.7-15.98-15.69-15.98-35.89 0-21.7 15.98-36.89 15.98-15.19 36.66-15.19 21.14 0 36.37 15.19 15.23 15.19 15.23 36.89 0 20.2-15.23 35.89-15.23 15.7-36.37 15.7ZM379.39-391.22q-14.11 0-24.11-9.89-10-9.9-10-24 0-14.11 9.9-24.11 9.89-10 24-10 14.1 0 24.1 9.9 10 9.89 10 24 0 14.1-9.89 24.1-9.9 10-24 10Zm-36.11-148 28-75h220.44l27 75H343.28Z"/></svg>