<svg xmlns="http://www.w3.org/2000/svg" height="24" viewBox="0 -960 960 960" width="24"><path d="M167-560h626-626Zm-75 39q0-48 33.25-81T206-635h548q48 0 81 33t33 81v5.5q0 15.5-11 26.5t-26.71 11q-14.79 0-26.04-11T793-515.5v-5.5q0-16.58-11.25-27.79T753.88-560H206.13q-16.63 0-27.88 11.21T167-521v160h80v-3q0-30.94 22.03-52.97Q291.06-439 322-439h208.5q15.5 0 26.5 11t11 26.5q0 15.5-11 26.5t-26.5 11H322v160h208.5q15.5 0 26.5 11t11 26.5q0 15.5-11 26.5t-26.5 11H322q-30.94 0-52.97-22.03Q247-173.06 247-204v-82h-80q-30.94 0-52.97-22.03Q92-330.06 92-361v-160Zm155-114v-118q0-30.94 22.03-52.97Q291.06-828 322-828h316q30.94 0 52.97 22.03Q713-783.94 713-753v118h-75v-118H322v118h-75Zm474 395h-82.5q-15.5 0-26.5-11t-11-26.5q0-15.5 11-26.5t26.5-11H721v-82.5q0-15.5 11-26.5t26.5-11q15.5 0 26.5 11t11 26.5v82.5h82.5q15.5 0 26.5 11t11 26.5q0 15.5-11 26.5t-26.5 11H796v82.5q0 15.5-11 26.5t-26.5 11q-15.5 0-26.5-11t-11-26.5V-240Z"/></svg>