<svg xmlns="http://www.w3.org/2000/svg" height="40" viewBox="0 -960 960 960" width="40"><path d="M480.94-293.58q69.1 0 117.63-47.73 48.52-47.73 48.52-116.92 0-32.86-12.93-62.51-12.93-29.64-36.26-53.16L480-689.37 362.77-573.9q-24 23.52-36.6 53.31-12.59 29.78-12.59 62.58 0 69.05 49.01 116.74 49 47.69 118.35 47.69ZM400.93-460q0-14.06 5.98-27.57 5.97-13.51 16.68-24.43L480-567.41l57.25 55.55q9.95 10.79 16.22 24.26 6.27 13.46 6.27 27.6H400.93ZM136.75-136.75v-513.86L480-908.36l343.41 257.97v513.64H136.75Z"/></svg>