<svg xmlns="http://www.w3.org/2000/svg" height="20" viewBox="0 -960 960 960" width="20"><path d="M432-433h91.7H432ZM39.87-135.87v-592.26H235.7l75.34-96h290.63v83H350.63l-76.06 96h-151.7v426.26h618.26v-383.04h83v466.04H39.87ZM748.3-673.91v-74.63h-74.63v-75.59h74.63v-74.63h75.83v74.63h74.39v75.59h-74.39v74.63H748.3ZM431.94-262.09q72.78 0 121.38-49.54 48.59-49.54 48.59-120.31 0-69.78-48.54-119.88-48.54-50.09-121.31-50.09-72.78 0-121.38 50.04-48.59 50.04-48.59 120.31 0 70.28 48.54 119.88 48.54 49.59 121.31 49.59Zm.06-78.21q-40.33 0-66.01-26.82Q340.3-393.93 340.3-433q0-38.23 25.69-64.46Q391.67-523.7 432-523.7q40.33 0 66.01 26.24Q523.7-471.23 523.7-433q0 39.07-25.69 65.88Q472.33-340.3 432-340.3Z"/></svg>