<svg xmlns="http://www.w3.org/2000/svg" height="48" viewBox="0 -960 960 960" width="48"><path d="M447.72-62.8q-86.4 0-163.04-32.92-76.65-32.93-132.96-89.69-56.32-56.77-88.96-132.8-32.65-76.03-32.65-161.35 0-86.58 32.71-163.01 32.7-76.44 89.12-133.02 56.41-56.57 132.96-89.21 76.54-32.63 162.8-32.63 86.06 0 161.76 32.64 75.71 32.65 132.36 89.36 56.64 56.72 89.9 133 33.26 76.27 33.26 162.97 0 85.7-33.26 161.55-33.26 75.86-89.85 132.5-56.59 56.65-132.32 89.63Q533.81-62.8 447.72-62.8Zm45.87-80.07q113.28-16 193.8-96.52 80.52-80.52 97.28-194.81L493.59-142.87ZM111.41-528.8 398.5-816.13q-111.66 16.5-191.57 96.06-79.91 79.55-95.52 191.27Zm14.36 155.84 430.06-429.1q-17-6.02-34.38-10.03-17.38-4.02-35.26-5.8L109.65-441.73q2 19.33 5.41 36.13 3.41 16.8 10.71 32.64Zm60.3 111.05L665.63-740.9q-12.52-9.47-25.12-18.32-12.6-8.86-26.33-17.15L151.41-313.65q7.76 13.98 16.23 27.05 8.47 13.08 18.43 24.69Zm93.91 77.28 462.93-463.8q-8.29-13.2-16.56-25.59-8.28-12.38-18.2-25.31L230.46-219.34q11.76 9.71 23.63 18.71 11.86 9 25.89 16Zm127.92 42.52 377.77-377.16q-3.24-18.33-6.66-35.17-3.42-16.84-9.47-34.84L338.26-157.97q17 6.03 34.38 10.05 17.38 4.03 35.26 5.81Z"/></svg>