<svg xmlns="http://www.w3.org/2000/svg" height="40" viewBox="0 -960 960 960" width="40"><path d="M152.39-159.3q-29.62 0-51.02-21.41-21.4-21.4-21.4-51.01v-496.56q0-29.68 21.4-51.13 21.4-21.45 51.02-21.45h655.22q29.68 0 51.13 21.45 21.45 21.45 21.45 51.13v496.56q0 29.61-21.45 51.01-21.45 21.41-51.13 21.41H152.39Zm0-72.42h655.22v-496.56H152.39v496.56Zm294.94-123.32-75.47-103.47q-5.86-7.27-14.55-7.61-8.69-.33-14.48 6.87l-82.11 108.84q-7.35 9.48-2.02 19.28t16.47 9.8h411.04q11.13 0 16.07-9.8 4.94-9.8-1.34-19.28L587.88-502.68q-5.88-7.27-14.57-7.27-8.69 0-14.48 7.2l-111.5 147.71ZM152.39-231.72v-496.56 496.56Z"/></svg>