<svg xmlns="http://www.w3.org/2000/svg" height="24" viewBox="0 -960 960 960" width="24"><path d="M176.347-187.271q-28.5 0-48.384-19.884-19.885-19.884-19.885-48.384v-448.922q0-28.5 19.885-48.384 19.884-19.884 48.384-19.884h607.306q28.5 0 48.384 19.884 19.885 19.884 19.885 48.384v448.922q0 28.5-19.885 48.384-19.884 19.884-48.384 19.884H176.347Zm183.384-177.922h240.731q14.153 0 24.096-9.846 9.942-9.846 9.942-24.192v-161.538q0-14.346-9.942-24.289Q614.615-595 600.462-595H359.731q-14.346 0-24.289 9.942-9.942 9.943-9.942 24.289v161.538q0 14.346 9.942 24.192 9.943 9.846 24.289 9.846Z"/></svg>