<svg xmlns="http://www.w3.org/2000/svg" height="48" width="48"><path d="M37.25 11.3q-1.4 0-2.375-.95-.975-.95-.975-2.4 0-1.4.95-2.375.95-.975 2.4-.975 1.4 0 2.375.95.975.95.975 2.4 0 1.4-.95 2.375-.95.975-2.4.975Zm-3.9 31.8V22.65h-2.4l3.6-8.8H40l7.25 17.2H40.9V43.1Zm-8.4-20q-1.25 0-2.025-.8-.775-.8-.775-2t.775-2.025q.775-.825 2.025-.825 1.2 0 2.025.825T27.8 20.3q0 1.2-.825 2t-2.025.8ZM9.55 11.3q-1.5 0-2.45-.95-.95-.95-.95-2.4 0-1.4.925-2.375Q8 4.6 9.5 4.6q1.4 0 2.375.95.975.95.975 2.4 0 1.4-.95 2.375-.95.975-2.35.975Zm-3.5 31.8V30.65H1.5V14.9h16v15.75h-4.55V43.1Zm16.35 0v-7.25h-2.15V25h9.4v10.85H27.5v7.25Z"/></svg>