<svg xmlns="http://www.w3.org/2000/svg" version="1.1" width="3300" height="2000"><g id="Notes"><style>
    text {
      font-family: monospace;
      text-anchor: middle;
    }
    text.emphasis {
      font-weight:bold;
    }
    text.lanchor {
      text-anchor: start;
    }
  </style><rect height="2200" id="artboard" fill="white" width="3300" x="0" y="0"/><line id="" style="fill:none;stroke:black;stroke-width:0.5;" x1="263" x2="3036" y1="292" y2="292"/><text class="lanchor emphasis" transform="matrix(1 0 0 1 263 322)">Weight/Scale Variations</text><text transform="matrix(1 0 0 1 559.711 322)">Ultralight</text><text transform="matrix(1 0 0 1 856.422 322)">Thin</text><text transform="matrix(1 0 0 1 1153.13 322)">Light</text><text transform="matrix(1 0 0 1 1449.84 322)">Regular</text><text transform="matrix(1 0 0 1 1746.56 322)">Medium</text><text transform="matrix(1 0 0 1 2043.27 322)">Semibold</text><text transform="matrix(1 0 0 1 2339.98 322)">Bold</text><text transform="matrix(1 0 0 1 2636.69 322)">Heavy</text><text transform="matrix(1 0 0 1 2933.4 322)">Black</text><text id="template-version" style="text-anchor: end;" transform="matrix(1 0 0 1 3036 1933)">Template v.1.0</text><text class="lanchor" transform="matrix(1 0 0 1 263 726)">Small</text><text class="lanchor" transform="matrix(1 0 0 1 263 1156)">Medium</text><text class="lanchor" transform="matrix(1 0 0 1 263 1586)">Large</text></g><g id="Guides"><g id="H-reference" style="fill:#27AAE1;stroke:none;" transform="matrix(1 0 0 1 339 696)"><path d="M 54.9316 0 L 57.666 0 L 30.5664 -70.459 L 28.0762 -70.459 L 0.976562 0 L 3.66211 0 L 12.9395 -24.4629 L 45.7031 -24.4629 Z M 29.1992 -67.0898 L 29.4434 -67.0898 L 44.8242 -26.709 L 13.8184 -26.709 Z"/></g><line id="Baseline-S" style="fill:none;stroke:#27AAE1;opacity:1;stroke-width:0.577;" x1="263" x2="3036" y1="696" y2="696"/><line id="Capline-S" style="fill:none;stroke:#27AAE1;opacity:1;stroke-width:0.577;" x1="263" x2="3036" y1="625.541" y2="625.541"/><g id="H-reference" style="fill:#27AAE1;stroke:none;" transform="matrix(1 0 0 1 339 1126)"><path d="M 54.9316 0 L 57.666 0 L 30.5664 -70.459 L 28.0762 -70.459 L 0.976562 0 L 3.66211 0 L 12.9395 -24.4629 L 45.7031 -24.4629 Z M 29.1992 -67.0898 L 29.4434 -67.0898 L 44.8242 -26.709 L 13.8184 -26.709 Z"/></g><line id="Baseline-M" style="fill:none;stroke:#27AAE1;opacity:1;stroke-width:0.577;" x1="263" x2="3036" y1="1126" y2="1126"/><line id="Capline-M" style="fill:none;stroke:#27AAE1;opacity:1;stroke-width:0.577;" x1="263" x2="3036" y1="1055.54" y2="1055.54"/><g id="H-reference" style="fill:#27AAE1;stroke:none;" transform="matrix(1 0 0 1 339 1556)"><path d="M 54.9316 0 L 57.666 0 L 30.5664 -70.459 L 28.0762 -70.459 L 0.976562 0 L 3.66211 0 L 12.9395 -24.4629 L 45.7031 -24.4629 Z M 29.1992 -67.0898 L 29.4434 -67.0898 L 44.8242 -26.709 L 13.8184 -26.709 Z"/></g><line id="Baseline-L" style="fill:none;stroke:#27AAE1;opacity:1;stroke-width:0.577;" x1="263" x2="3036" y1="1556" y2="1556"/><line id="Capline-L" style="fill:none;stroke:#27AAE1;opacity:1;stroke-width:0.577;" x1="263" x2="3036" y1="1485.54" y2="1485.54"/><rect height="119.336" id="left-margin" style="fill:darkred;stroke:none;opacity:0.4;" width="12.4512" x="1394.06" y="1030.79"/><rect height="119.336" id="right-margin" style="fill:darkgreen;stroke:none;opacity:0.4;" width="12.4512" x="1502.5112" y="1030.79"/><rect x="1406.5112" y="1045" width="96" height="96" fill="none" stroke="blue" stroke-dasharray="5"/><rect x="1394.06" y="1030.79" width="120.9024" height="119.336" fill="none" stroke="blue"/></g><g id="Symbols"><g id="Bold-L" transform="matrix(1 0 0 1 2266 1556)"><path d="M47.4075 4.760000000000005 H66.27375 V-22.652500000000003 H72.72375000000001 V-40.39 Q72.72375000000001 -45.55 69.015 -49.25875 Q65.30625 -52.967499999999994 60.146249999999995 -52.967499999999994 H53.69625 Q48.375 -52.967499999999994 44.66625 -49.25875 Q40.957499999999996 -45.55 40.957499999999996 -40.39 V-22.652500000000003 H47.4075 V4.760000000000005 Z M56.92124999999999 -58.44999999999999 Q60.791250000000005 -58.44999999999999 63.371249999999996 -61.11062499999999 Q65.95125 -63.771249999999995 65.95125 -67.47999999999999 Q65.95125 -71.18875 63.371249999999996 -73.849375 Q60.791250000000005 -76.50999999999999 56.92124999999999 -76.50999999999999 Q53.051249999999996 -76.50999999999999 50.471250000000005 -73.849375 Q47.89125 -71.18875 47.89125 -67.47999999999999 Q47.89125 -63.771249999999995 50.471250000000005 -61.11062499999999 Q53.051249999999996 -58.44999999999999 56.92124999999999 -58.44999999999999 Z M82.07625 -43.614999999999995 H113.68125 L97.87875000000001 -68.77 L82.07625 -43.614999999999995 Z M97.87875000000001 -1.8512499999999932  113.68125 -27.006249999999994 H82.07625 L97.87875000000001 -1.8512499999999932 Z M30.798750000000002 26.045000000000016 Q24.67125 26.045000000000016 20.398125 21.771874999999994 Q16.125 17.49875 16.125 11.371250000000018 V-81.83125 Q16.125 -87.7975 20.398125 -92.3125 Q24.67125 -96.82749999999999 30.798750000000002 -96.82749999999999 H124.00125000000001 Q129.9675 -96.82749999999999 134.48250000000002 -92.3125 Q138.9975 -87.7975 138.9975 -81.83125 V11.371250000000018 Q138.9975 17.49875 134.48250000000002 21.771874999999994 Q129.9675 26.045000000000016 124.00125000000001 26.045000000000016 H30.798750000000002 Z M30.798750000000002 11.371250000000018 H124.00125000000001 Q124.00125000000001 11.371250000000018 124.00125000000001 11.371250000000018 Q124.00125000000001 11.371250000000018 124.00125000000001 11.371250000000018 V-81.83125 Q124.00125000000001 -81.83125 124.00125000000001 -81.83125 Q124.00125000000001 -81.83125 124.00125000000001 -81.83125 H30.798750000000002 Q30.798750000000002 -81.83125 30.798750000000002 -81.83125 Q30.798750000000002 -81.83125 30.798750000000002 -81.83125 V11.371250000000018 Q30.798750000000002 11.371250000000018 30.798750000000002 11.371250000000018 Q30.798750000000002 11.371250000000018 30.798750000000002 11.371250000000018 Z M30.798750000000002 11.371250000000018 Q30.798750000000002 11.371250000000018 30.798750000000002 11.371250000000018 Q30.798750000000002 11.371250000000018 30.798750000000002 11.371250000000018 V-81.83125 Q30.798750000000002 -81.83125 30.798750000000002 -81.83125 Q30.798750000000002 -81.83125 30.798750000000002 -81.83125 Q30.798750000000002 -81.83125 30.798750000000002 -81.83125 Q30.798750000000002 -81.83125 30.798750000000002 -81.83125 V11.371250000000018 Q30.798750000000002 11.371250000000018 30.798750000000002 11.371250000000018 Q30.798750000000002 11.371250000000018 30.798750000000002 11.371250000000018 Z"/></g><g id="Semibold-L" transform="matrix(1 0 0 1 1970.27 1556)"><path d="M46.60125 4.760000000000005 H65.4675 V-22.652500000000003 H71.9175 V-40.39 Q71.9175 -45.55 68.20875 -49.25875 Q64.5 -52.967499999999994 59.339999999999996 -52.967499999999994 H52.88999999999999 Q47.56875 -52.967499999999994 43.86 -49.25875 Q40.15125 -45.55 40.15125 -40.39 V-22.652500000000003 H46.60125 V4.760000000000005 Z M56.114999999999995 -58.44999999999999 Q59.823750000000004 -58.44999999999999 62.484375 -61.11062499999999 Q65.145 -63.771249999999995 65.145 -67.47999999999999 Q65.145 -71.18875 62.484375 -73.849375 Q59.823750000000004 -76.50999999999999 56.114999999999995 -76.50999999999999 Q52.245 -76.50999999999999 49.665 -73.849375 Q47.085 -71.18875 47.085 -67.47999999999999 Q47.085 -63.771249999999995 49.665 -61.11062499999999 Q52.245 -58.44999999999999 56.114999999999995 -58.44999999999999 Z M82.56 -43.614999999999995 H114.00375000000001 L98.20125 -68.77 L82.56 -43.614999999999995 Z M98.20125 -1.8512499999999932  114.00375000000001 -27.006249999999994 H82.56 L98.20125 -1.8512499999999932 Z M30.15375 24.432500000000005 Q25.155 24.432500000000005 21.446250000000003 20.723750000000024 Q17.7375 17.015000000000015 17.7375 12.01625 V-82.47625 Q17.7375 -87.475 21.446250000000003 -91.18374999999999 Q25.155 -94.8925 30.15375 -94.8925 H124.64625 Q129.645 -94.8925 133.35375000000002 -91.18374999999999 Q137.0625 -87.475 137.0625 -82.47625 V12.01625 Q137.0625 17.015000000000015 133.35375000000002 20.723750000000024 Q129.645 24.432500000000005 124.64625 24.432500000000005 H30.15375 Z M30.15375 12.01625 H124.64625 Q124.64625 12.01625 124.64625 12.01625 Q124.64625 12.01625 124.64625 12.01625 V-82.47625 Q124.64625 -82.47625 124.64625 -82.47625 Q124.64625 -82.47625 124.64625 -82.47625 H30.15375 Q30.15375 -82.47625 30.15375 -82.47625 Q30.15375 -82.47625 30.15375 -82.47625 V12.01625 Q30.15375 12.01625 30.15375 12.01625 Q30.15375 12.01625 30.15375 12.01625 Z M30.15375 12.01625 Q30.15375 12.01625 30.15375 12.01625 Q30.15375 12.01625 30.15375 12.01625 V-82.47625 Q30.15375 -82.47625 30.15375 -82.47625 Q30.15375 -82.47625 30.15375 -82.47625 Q30.15375 -82.47625 30.15375 -82.47625 Q30.15375 -82.47625 30.15375 -82.47625 V12.01625 Q30.15375 12.01625 30.15375 12.01625 Q30.15375 12.01625 30.15375 12.01625 Z"/></g><g id="Medium-L" transform="matrix(1 0 0 1 1674.31 1556)"><path d="M45.956250000000004 4.760000000000005 H64.98375 V-22.652500000000003 H71.43375 V-40.39 Q71.43375 -45.55 67.72500000000001 -49.25875 Q64.01625 -52.967499999999994 58.695 -52.967499999999994 H52.245 Q46.923750000000005 -52.967499999999994 43.215 -49.25875 Q39.50625 -45.55 39.50625 -40.39 V-22.652500000000003 H45.956250000000004 V4.760000000000005 Z M55.47 -58.44999999999999 Q59.17875000000001 -58.44999999999999 61.839375000000004 -61.11062499999999 Q64.5 -63.771249999999995 64.5 -67.47999999999999 Q64.5 -71.18875 61.839375000000004 -73.849375 Q59.17875000000001 -76.50999999999999 55.47 -76.50999999999999 Q51.761250000000004 -76.50999999999999 49.100625 -73.849375 Q46.440000000000005 -71.18875 46.440000000000005 -67.47999999999999 Q46.440000000000005 -63.771249999999995 49.100625 -61.11062499999999 Q51.761250000000004 -58.44999999999999 55.47 -58.44999999999999 Z M82.8825 -43.614999999999995 H114.32625000000002 L98.52375 -68.77 L82.8825 -43.614999999999995 Z M98.52375 -1.8512499999999932  114.32625000000002 -27.006249999999994 H82.8825 L98.52375 -1.8512499999999932 Z M29.669999999999998 22.98124999999999 Q25.477500000000003 22.98124999999999 22.333125 19.83687500000002 Q19.188750000000002 16.692500000000024 19.188750000000002 12.5 V-82.96 Q19.188750000000002 -87.15249999999999 22.333125 -90.3775 Q25.477500000000003 -93.60249999999999 29.669999999999998 -93.60249999999999 H125.13 Q129.32250000000002 -93.60249999999999 132.5475 -90.3775 Q135.7725 -87.15249999999999 135.7725 -82.96 V12.5 Q135.7725 16.692500000000024 132.5475 19.83687500000002 Q129.32250000000002 22.98124999999999 125.13 22.98124999999999 H29.669999999999998 Z M29.669999999999998 12.5 H125.13 Q125.13 12.5 125.13 12.5 Q125.13 12.5 125.13 12.5 V-82.96 Q125.13 -82.96 125.13 -82.96 Q125.13 -82.96 125.13 -82.96 H29.669999999999998 Q29.669999999999998 -82.96 29.669999999999998 -82.96 Q29.669999999999998 -82.96 29.669999999999998 -82.96 V12.5 Q29.669999999999998 12.5 29.669999999999998 12.5 Q29.669999999999998 12.5 29.669999999999998 12.5 Z M29.669999999999998 12.5 Q29.669999999999998 12.5 29.669999999999998 12.5 Q29.669999999999998 12.5 29.669999999999998 12.5 V-82.96 Q29.669999999999998 -82.96 29.669999999999998 -82.96 Q29.669999999999998 -82.96 29.669999999999998 -82.96 Q29.669999999999998 -82.96 29.669999999999998 -82.96 Q29.669999999999998 -82.96 29.669999999999998 -82.96 V12.5 Q29.669999999999998 12.5 29.669999999999998 12.5 Q29.669999999999998 12.5 29.669999999999998 12.5 Z"/></g><g id="Regular-L" transform="matrix(1 0 0 1 1378.56 1556)"><path d="M45.63375 4.760000000000005 H64.5 V-22.652500000000003 H70.95 V-40.39 Q70.95 -45.55 67.24125000000001 -49.25875 Q63.5325 -52.967499999999994 58.37250000000001 -52.967499999999994 H51.92250000000001 Q46.60125 -52.967499999999994 42.892500000000005 -49.25875 Q39.18375 -45.55 39.18375 -40.39 V-22.652500000000003 H45.63375 V4.760000000000005 Z M55.14750000000001 -58.44999999999999 Q58.85625 -58.44999999999999 61.516875 -61.11062499999999 Q64.1775 -63.771249999999995 64.1775 -67.47999999999999 Q64.1775 -71.18875 61.516875 -73.849375 Q58.85625 -76.50999999999999 55.14750000000001 -76.50999999999999 Q51.2775 -76.50999999999999 48.6975 -73.849375 Q46.11750000000001 -71.18875 46.11750000000001 -67.47999999999999 Q46.11750000000001 -63.771249999999995 48.6975 -61.11062499999999 Q51.2775 -58.44999999999999 55.14750000000001 -58.44999999999999 Z M83.04375 -43.614999999999995 H114.64874999999999 L98.84625 -68.77 L83.04375 -43.614999999999995 Z M98.84625 -1.8512499999999932  114.64874999999999 -27.006249999999994 H83.04375 L98.84625 -1.8512499999999932 Z M29.3475 22.013750000000016 Q25.63875 22.013750000000016 22.8975 19.272500000000008 Q20.15625 16.53125 20.15625 12.822500000000005 V-83.2825 Q20.15625 -86.83 22.8975 -89.73249999999999 Q25.63875 -92.63499999999999 29.3475 -92.63499999999999 H125.4525 Q129.0 -92.63499999999999 131.9025 -89.73249999999999 Q134.805 -86.83 134.805 -83.2825 V12.822500000000005 Q134.805 16.53125 131.9025 19.272500000000008 Q129.0 22.013750000000016 125.4525 22.013750000000016 H29.3475 Z M29.3475 12.822500000000005 H125.4525 Q125.4525 12.822500000000005 125.4525 12.822500000000005 Q125.4525 12.822500000000005 125.4525 12.822500000000005 V-83.2825 Q125.4525 -83.2825 125.4525 -83.2825 Q125.4525 -83.2825 125.4525 -83.2825 H29.3475 Q29.3475 -83.2825 29.3475 -83.2825 Q29.3475 -83.2825 29.3475 -83.2825 V12.822500000000005 Q29.3475 12.822500000000005 29.3475 12.822500000000005 Q29.3475 12.822500000000005 29.3475 12.822500000000005 Z M29.3475 12.822500000000005 Q29.3475 12.822500000000005 29.3475 12.822500000000005 Q29.3475 12.822500000000005 29.3475 12.822500000000005 V-83.2825 Q29.3475 -83.2825 29.3475 -83.2825 Q29.3475 -83.2825 29.3475 -83.2825 Q29.3475 -83.2825 29.3475 -83.2825 Q29.3475 -83.2825 29.3475 -83.2825 V12.822500000000005 Q29.3475 12.822500000000005 29.3475 12.822500000000005 Q29.3475 12.822500000000005 29.3475 12.822500000000005 Z"/></g><g id="Light-L" transform="matrix(1 0 0 1 1082.77 1556)"><path d="M48.21375 2.825000000000003 H64.1775 V-23.458749999999995 H70.6275 V-41.035 Q70.6275 -45.71124999999999 67.321875 -48.936249999999994 Q64.01625 -52.161249999999995 59.50125 -52.161249999999995 H53.051249999999996 Q48.21375 -52.161249999999995 44.988749999999996 -48.936249999999994 Q41.76375 -45.71124999999999 41.76375 -41.035 V-23.458749999999995 H48.21375 V2.825000000000003 Z M56.27625 -57.64374999999999 Q59.50125 -57.64374999999999 61.92 -60.06249999999999 Q64.33875 -62.48124999999999 64.33875 -65.86749999999999 Q64.33875 -69.0925 61.92 -71.51124999999999 Q59.50125 -73.92999999999999 56.27625 -73.92999999999999 Q52.88999999999999 -73.92999999999999 50.471250000000005 -71.51124999999999 Q48.0525 -69.0925 48.0525 -65.86749999999999 Q48.0525 -62.48124999999999 50.390625 -60.06249999999999 Q52.728750000000005 -57.64374999999999 56.27625 -57.64374999999999 Z M85.62375 -44.582499999999996 H111.58500000000001 L98.52375 -65.38374999999999 L85.62375 -44.582499999999996 Z M98.52375 -5.0762499999999875  111.58500000000001 -25.877499999999998 H85.62375 L98.52375 -5.0762499999999875 Z M32.08875 19.111250000000013 Q28.380000000000003 19.111250000000013 25.719375 16.450625000000002 Q23.058750000000003 13.79000000000002 23.058750000000003 10.081249999999997 V-80.54124999999999 Q23.058750000000003 -84.08875 25.719375 -86.83 Q28.380000000000003 -89.57124999999999 32.08875 -89.57124999999999 H122.71124999999999 Q126.25874999999999 -89.57124999999999 129.0 -86.83 Q131.74125 -84.08875 131.74125 -80.54124999999999 V10.081249999999997 Q131.74125 13.79000000000002 129.0 16.450625000000002 Q126.25874999999999 19.111250000000013 122.71124999999999 19.111250000000013 H32.08875 Z M32.08875 12.01625 H122.71124999999999 Q123.5175 12.01625 124.08187500000001 11.451875000000015 Q124.64625 10.887500000000003 124.64625 10.081249999999997 V-80.54124999999999 Q124.64625 -81.3475 124.08187500000001 -81.911875 Q123.5175 -82.47625 122.71124999999999 -82.47625 H32.08875 Q31.2825 -82.47625 30.718125 -81.911875 Q30.15375 -81.3475 30.15375 -80.54124999999999 V10.081249999999997 Q30.15375 10.887500000000003 30.718125 11.451875000000015 Q31.2825 12.01625 32.08875 12.01625 Z M30.15375 12.01625 Q30.15375 12.01625 30.15375 11.451875000000015 Q30.15375 10.887500000000003 30.15375 10.081249999999997 V-80.54124999999999 Q30.15375 -81.3475 30.15375 -81.911875 Q30.15375 -82.47625 30.15375 -82.47625 Q30.15375 -82.47625 30.15375 -81.911875 Q30.15375 -81.3475 30.15375 -80.54124999999999 V10.081249999999997 Q30.15375 10.887500000000003 30.15375 11.451875000000015 Q30.15375 12.01625 30.15375 12.01625 Z"/></g><g id="Thin-L" transform="matrix(1 0 0 1 787.282 1556)"><path d="M50.955000000000005 0.8900000000000148 H63.69375 V-24.426249999999982 H70.14375 V-41.84125 Q70.14375 -45.71124999999999 67.4025 -48.533125 Q64.66125000000001 -51.355 60.63 -51.355 H54.18000000000001 Q49.987500000000004 -51.355 47.24625 -48.533125 Q44.505 -45.71124999999999 44.505 -41.84125 V-24.426249999999982 H50.955000000000005 V0.8900000000000148 Z M57.405 -56.83749999999999 Q60.3075 -56.83749999999999 62.484375 -58.933749999999996 Q64.66125000000001 -61.029999999999994 64.66125000000001 -64.09375 Q64.66125000000001 -67.1575 62.484375 -69.25375 Q60.3075 -71.35 57.405 -71.35 Q54.34125000000001 -71.35 52.245 -69.25375 Q50.14875000000001 -67.1575 50.14875000000001 -64.09375 Q50.14875000000001 -61.19125 52.245 -59.014374999999994 Q54.34125000000001 -56.83749999999999 57.405 -56.83749999999999 Z M88.20375000000001 -45.71124999999999 H108.68250000000002 L98.3625 -62.15874999999999 L88.20375000000001 -45.71124999999999 Z M98.3625 -8.462500000000006  108.68250000000002 -24.909999999999997 H88.20375000000001 L98.3625 -8.462500000000006 Z M34.830000000000005 16.20875000000001 Q31.121250000000003 16.20875000000001 28.541249999999998 13.628749999999997 Q25.961250000000003 11.048750000000013 25.961250000000003 7.340000000000018 V-77.79999999999998 Q25.961250000000003 -81.50874999999999 28.541249999999998 -84.08875 Q31.121250000000003 -86.66874999999999 34.830000000000005 -86.66874999999999 H119.97000000000001 Q123.67875000000001 -86.66874999999999 126.25874999999999 -84.08875 Q128.83875 -81.50874999999999 128.83875 -77.79999999999998 V7.340000000000018 Q128.83875 11.048750000000013 126.25874999999999 13.628749999999997 Q123.67875000000001 16.20875000000001 119.97000000000001 16.20875000000001 H34.830000000000005 Z M34.830000000000005 11.371250000000018 H119.97000000000001 Q121.74375 11.371250000000018 122.8725 10.242500000000007 Q124.00125000000001 9.11375000000001 124.00125000000001 7.340000000000018 V-77.79999999999998 Q124.00125000000001 -79.57374999999999 122.8725 -80.70249999999999 Q121.74375 -81.83125 119.97000000000001 -81.83125 H34.830000000000005 Q33.05625 -81.83125 31.927500000000002 -80.70249999999999 Q30.798750000000002 -79.57374999999999 30.798750000000002 -77.79999999999998 V7.340000000000018 Q30.798750000000002 9.11375000000001 31.927500000000002 10.242500000000007 Q33.05625 11.371250000000018 34.830000000000005 11.371250000000018 Z M30.798750000000002 11.371250000000018 Q30.798750000000002 11.371250000000018 30.798750000000002 10.242500000000007 Q30.798750000000002 9.11375000000001 30.798750000000002 7.340000000000018 V-77.79999999999998 Q30.798750000000002 -79.57374999999999 30.798750000000002 -80.70249999999999 Q30.798750000000002 -81.83125 30.798750000000002 -81.83125 Q30.798750000000002 -81.83125 30.798750000000002 -80.70249999999999 Q30.798750000000002 -79.57374999999999 30.798750000000002 -77.79999999999998 V7.340000000000018 Q30.798750000000002 9.11375000000001 30.798750000000002 10.242500000000007 Q30.798750000000002 11.371250000000018 30.798750000000002 11.371250000000018 Z"/></g><g id="Ultralight-L" transform="matrix(1 0 0 1 491.205 1556)"><path d="M52.5675 -0.4000000000000057 H63.5325 V-25.071249999999992 H69.9825 V-42.32499999999999 Q69.9825 -45.8725 67.483125 -48.37187499999999 Q64.98375 -50.871249999999996 61.43625 -50.871249999999996 H54.986250000000005 Q51.11625 -50.871249999999996 48.616875 -48.37187499999999 Q46.11750000000001 -45.8725 46.11750000000001 -42.32499999999999 V-25.071249999999992 H52.5675 V-0.4000000000000057 Z M58.050000000000004 -56.35375 Q60.791250000000005 -56.35375 62.8875 -58.369375 Q64.98375 -60.385 64.98375 -63.12624999999999 Q64.98375 -65.86749999999999 62.8875 -67.88312499999999 Q60.791250000000005 -69.89874999999999 58.21125000000001 -69.89874999999999 Q55.308749999999996 -69.89874999999999 53.37375 -67.88312499999999 Q51.43875 -65.86749999999999 51.43875 -63.12624999999999 Q51.43875 -60.385 53.37375 -58.369375 Q55.308749999999996 -56.35375 58.050000000000004 -56.35375 Z M89.81625000000001 -46.5175 H106.90875 L98.20125 -60.223749999999995 L89.81625000000001 -46.5175 Z M98.20125 -10.558750000000003  106.90875 -24.265 H89.81625000000001 L98.20125 -10.558750000000003 Z M36.4425 14.435000000000002 Q32.894999999999996 14.435000000000002 30.315 11.855000000000018 Q27.735 9.275000000000006 27.735 5.7275000000000205 V-76.1875 Q27.735 -79.735 30.315 -82.315 Q32.894999999999996 -84.895 36.4425 -84.895 H118.35750000000002 Q121.905 -84.895 124.48500000000001 -82.315 Q127.065 -79.735 127.065 -76.1875 V5.7275000000000205 Q127.065 9.275000000000006 124.48500000000001 11.855000000000018 Q121.905 14.435000000000002 118.35750000000002 14.435000000000002 H36.4425 Z M36.4425 10.887500000000003 H118.35750000000002 Q120.615 10.887500000000003 122.06625000000001 9.436250000000015 Q123.5175 7.984999999999999 123.5175 5.7275000000000205 V-76.1875 Q123.5175 -78.445 122.06625000000001 -79.89625 Q120.615 -81.3475 118.35750000000002 -81.3475 H36.4425 Q34.185 -81.3475 32.73375 -79.89625 Q31.2825 -78.445 31.2825 -76.1875 V5.7275000000000205 Q31.2825 7.984999999999999 32.73375 9.436250000000015 Q34.185 10.887500000000003 36.4425 10.887500000000003 Z M31.2825 10.887500000000003 Q31.2825 10.887500000000003 31.2825 9.436250000000015 Q31.2825 7.984999999999999 31.2825 5.7275000000000205 V-76.1875 Q31.2825 -78.445 31.2825 -79.89625 Q31.2825 -81.3475 31.2825 -81.3475 Q31.2825 -81.3475 31.2825 -79.89625 Q31.2825 -78.445 31.2825 -76.1875 V5.7275000000000205 Q31.2825 7.984999999999999 31.2825 9.436250000000015 Q31.2825 10.887500000000003 31.2825 10.887500000000003 Z"/></g><g id="Bold-M" transform="matrix(1 0 0 1 2281.8 1126)"><path d="M37.5 -5.60499999999999 H51.875 V-25.60499999999999 H56.875 V-38.10499999999999 Q56.875 -41.97999999999999 54.0 -44.85499999999999 Q51.125 -47.72999999999999 47.25 -47.72999999999999 H42.25 Q38.25 -47.72999999999999 35.375 -44.85499999999999 Q32.5 -41.97999999999999 32.5 -38.10499999999999 V-25.60499999999999 H37.5 V-5.60499999999999 Z M44.75 -52.72999999999999 Q47.375 -52.72999999999999 49.19 -54.54499999999999 Q51.0 -56.35499999999999 51.0 -58.97999999999999 Q51.0 -61.60499999999999 49.19 -63.41999999999999 Q47.375 -65.22999999999999 44.75 -65.22999999999999 Q42.125 -65.22999999999999 40.309999999999995 -63.41999999999999 Q38.5 -61.60499999999999 38.5 -58.97999999999999 Q38.5 -56.35499999999999 40.309999999999995 -54.54499999999999 Q42.125 -52.72999999999999 44.75 -52.72999999999999 Z M64.0 -40.60499999999999 H87.875 L75.875 -59.72999999999999 L64.0 -40.60499999999999 Z M75.875 -10.85499999999999  87.875 -29.97999999999999 H64.0 L75.875 -10.85499999999999 Z M27.0 12.89500000000001 Q20.625 12.89500000000001 16.25 8.52000000000001 Q11.875 4.14500000000001 11.875 -2.2299999999999898 V-68.22999999999999 Q11.875 -74.60499999999999 16.25 -78.97999999999999 Q20.625 -83.35499999999999 27.0 -83.35499999999999 H93.0 Q99.375 -83.35499999999999 103.75 -78.97999999999999 Q108.125 -74.60499999999999 108.125 -68.22999999999999 V-2.2299999999999898 Q108.125 4.14500000000001 103.75 8.52000000000001 Q99.375 12.89500000000001 93.0 12.89500000000001 H27.0 Z M27.0 -2.2299999999999898 H93.0 Q93.0 -2.2299999999999898 93.0 -2.2299999999999898 Q93.0 -2.2299999999999898 93.0 -2.2299999999999898 V-68.22999999999999 Q93.0 -68.22999999999999 93.0 -68.22999999999999 Q93.0 -68.22999999999999 93.0 -68.22999999999999 H27.0 Q27.0 -68.22999999999999 27.0 -68.22999999999999 Q27.0 -68.22999999999999 27.0 -68.22999999999999 V-2.2299999999999898 Q27.0 -2.2299999999999898 27.0 -2.2299999999999898 Q27.0 -2.2299999999999898 27.0 -2.2299999999999898 Z M27.0 -2.2299999999999898 Q27.0 -2.2299999999999898 27.0 -2.2299999999999898 Q27.0 -2.2299999999999898 27.0 -2.2299999999999898 V-68.22999999999999 Q27.0 -68.22999999999999 27.0 -68.22999999999999 Q27.0 -68.22999999999999 27.0 -68.22999999999999 Q27.0 -68.22999999999999 27.0 -68.22999999999999 Q27.0 -68.22999999999999 27.0 -68.22999999999999 V-2.2299999999999898 Q27.0 -2.2299999999999898 27.0 -2.2299999999999898 Q27.0 -2.2299999999999898 27.0 -2.2299999999999898 Z"/></g><g id="Semibold-M" transform="matrix(1 0 0 1 1985.97 1126)"><path d="M36.625 -5.60499999999999 H51.0 V-25.60499999999999 H56.0 V-38.10499999999999 Q56.0 -41.97999999999999 53.19 -44.85499999999999 Q50.375 -47.72999999999999 46.375 -47.72999999999999 H41.375 Q37.375 -47.72999999999999 34.5 -44.85499999999999 Q31.625 -41.97999999999999 31.625 -38.10499999999999 V-25.60499999999999 H36.625 V-5.60499999999999 Z M43.875 -52.72999999999999 Q46.5 -52.72999999999999 48.315 -54.54499999999999 Q50.125 -56.35499999999999 50.125 -58.97999999999999 Q50.125 -61.60499999999999 48.315 -63.41999999999999 Q46.5 -65.22999999999999 43.875 -65.22999999999999 Q41.25 -65.22999999999999 39.44 -63.41999999999999 Q37.625 -61.60499999999999 37.625 -58.97999999999999 Q37.625 -56.35499999999999 39.44 -54.54499999999999 Q41.25 -52.72999999999999 43.875 -52.72999999999999 Z M64.375 -40.60499999999999 H88.25 L76.25 -59.72999999999999 L64.375 -40.60499999999999 Z M76.25 -10.85499999999999  88.25 -29.97999999999999 H64.375 L76.25 -10.85499999999999 Z M26.375 11.02000000000001 Q21.125 11.02000000000001 17.44 7.3300000000000125 Q13.75 3.6450000000000102 13.75 -1.6049999999999898 V-68.85499999999999 Q13.75 -74.10499999999999 17.44 -77.79499999999999 Q21.125 -81.47999999999999 26.375 -81.47999999999999 H93.625 Q98.875 -81.47999999999999 102.56500000000001 -77.79499999999999 Q106.25 -74.10499999999999 106.25 -68.85499999999999 V-1.6049999999999898 Q106.25 3.6450000000000102 102.56500000000001 7.3300000000000125 Q98.875 11.02000000000001 93.625 11.02000000000001 H26.375 Z M26.375 -1.6049999999999898 H93.625 Q93.625 -1.6049999999999898 93.625 -1.6049999999999898 Q93.625 -1.6049999999999898 93.625 -1.6049999999999898 V-68.85499999999999 Q93.625 -68.85499999999999 93.625 -68.85499999999999 Q93.625 -68.85499999999999 93.625 -68.85499999999999 H26.375 Q26.375 -68.85499999999999 26.375 -68.85499999999999 Q26.375 -68.85499999999999 26.375 -68.85499999999999 V-1.6049999999999898 Q26.375 -1.6049999999999898 26.375 -1.6049999999999898 Q26.375 -1.6049999999999898 26.375 -1.6049999999999898 Z M26.375 -1.6049999999999898 Q26.375 -1.6049999999999898 26.375 -1.6049999999999898 Q26.375 -1.6049999999999898 26.375 -1.6049999999999898 V-68.85499999999999 Q26.375 -68.85499999999999 26.375 -68.85499999999999 Q26.375 -68.85499999999999 26.375 -68.85499999999999 Q26.375 -68.85499999999999 26.375 -68.85499999999999 Q26.375 -68.85499999999999 26.375 -68.85499999999999 V-1.6049999999999898 Q26.375 -1.6049999999999898 26.375 -1.6049999999999898 Q26.375 -1.6049999999999898 26.375 -1.6049999999999898 Z"/></g><g id="Medium-M" transform="matrix(1 0 0 1 1689.91 1126)"><path d="M36.125 -5.60499999999999 H50.5 V-25.60499999999999 H55.5 V-38.10499999999999 Q55.5 -41.97999999999999 52.625 -44.85499999999999 Q49.75 -47.72999999999999 45.75 -47.72999999999999 H40.75 Q36.75 -47.72999999999999 33.94 -44.85499999999999 Q31.125 -41.97999999999999 31.125 -38.10499999999999 V-25.60499999999999 H36.125 V-5.60499999999999 Z M43.25 -52.72999999999999 Q45.875 -52.72999999999999 47.69 -54.54499999999999 Q49.5 -56.35499999999999 49.5 -58.97999999999999 Q49.5 -61.60499999999999 47.69 -63.41999999999999 Q45.875 -65.22999999999999 43.25 -65.22999999999999 Q40.625 -65.22999999999999 38.815 -63.41999999999999 Q37.0 -61.60499999999999 37.0 -58.97999999999999 Q37.0 -56.35499999999999 38.815 -54.54499999999999 Q40.625 -52.72999999999999 43.25 -52.72999999999999 Z M64.75 -40.60499999999999 H88.625 L76.625 -59.72999999999999 L64.75 -40.60499999999999 Z M76.625 -10.85499999999999  88.625 -29.97999999999999 H64.75 L76.625 -10.85499999999999 Z M25.875 9.64500000000001 Q21.375 9.64500000000001 18.25 6.52000000000001 Q15.125 3.3950000000000102 15.125 -1.1049999999999898 V-69.35499999999999 Q15.125 -73.85499999999999 18.25 -76.97999999999999 Q21.375 -80.10499999999999 25.875 -80.10499999999999 H94.125 Q98.625 -80.10499999999999 101.75 -76.97999999999999 Q104.875 -73.85499999999999 104.875 -69.35499999999999 V-1.1049999999999898 Q104.875 3.3950000000000102 101.75 6.52000000000001 Q98.625 9.64500000000001 94.125 9.64500000000001 H25.875 Z M25.875 -1.1049999999999898 H94.125 Q94.125 -1.1049999999999898 94.125 -1.1049999999999898 Q94.125 -1.1049999999999898 94.125 -1.1049999999999898 V-69.35499999999999 Q94.125 -69.35499999999999 94.125 -69.35499999999999 Q94.125 -69.35499999999999 94.125 -69.35499999999999 H25.875 Q25.875 -69.35499999999999 25.875 -69.35499999999999 Q25.875 -69.35499999999999 25.875 -69.35499999999999 V-1.1049999999999898 Q25.875 -1.1049999999999898 25.875 -1.1049999999999898 Q25.875 -1.1049999999999898 25.875 -1.1049999999999898 Z M25.875 -1.1049999999999898 Q25.875 -1.1049999999999898 25.875 -1.1049999999999898 Q25.875 -1.1049999999999898 25.875 -1.1049999999999898 V-69.35499999999999 Q25.875 -69.35499999999999 25.875 -69.35499999999999 Q25.875 -69.35499999999999 25.875 -69.35499999999999 Q25.875 -69.35499999999999 25.875 -69.35499999999999 Q25.875 -69.35499999999999 25.875 -69.35499999999999 V-1.1049999999999898 Q25.875 -1.1049999999999898 25.875 -1.1049999999999898 Q25.875 -1.1049999999999898 25.875 -1.1049999999999898 Z"/></g><g id="Regular-M" transform="matrix(1 0 0 1 1394.06 1126)"><path d="M35.625 -5.60499999999999 H50.0 V-25.60499999999999 H55.0 V-38.10499999999999 Q55.0 -41.97999999999999 52.125 -44.85499999999999 Q49.25 -47.72999999999999 45.375 -47.72999999999999 H40.375 Q36.375 -47.72999999999999 33.5 -44.85499999999999 Q30.625 -41.97999999999999 30.625 -38.10499999999999 V-25.60499999999999 H35.625 V-5.60499999999999 Z M42.875 -52.72999999999999 Q45.5 -52.72999999999999 47.315 -54.54499999999999 Q49.125 -56.35499999999999 49.125 -58.97999999999999 Q49.125 -61.60499999999999 47.315 -63.41999999999999 Q45.5 -65.22999999999999 42.875 -65.22999999999999 Q40.25 -65.22999999999999 38.44 -63.41999999999999 Q36.625 -61.60499999999999 36.625 -58.97999999999999 Q36.625 -56.35499999999999 38.44 -54.54499999999999 Q40.25 -52.72999999999999 42.875 -52.72999999999999 Z M65.0 -40.60499999999999 H88.875 L76.875 -59.72999999999999 L65.0 -40.60499999999999 Z M76.875 -10.85499999999999  88.875 -29.97999999999999 H65.0 L76.875 -10.85499999999999 Z M25.5 8.64500000000001 Q21.625 8.64500000000001 18.875 5.89500000000001 Q16.125 3.1450000000000102 16.125 -0.7299999999999898 V-69.72999999999999 Q16.125 -73.60499999999999 18.875 -76.35499999999999 Q21.625 -79.10499999999999 25.5 -79.10499999999999 H94.5 Q98.375 -79.10499999999999 101.125 -76.35499999999999 Q103.875 -73.60499999999999 103.875 -69.72999999999999 V-0.7299999999999898 Q103.875 3.1450000000000102 101.125 5.89500000000001 Q98.375 8.64500000000001 94.5 8.64500000000001 H25.5 Z M25.5 -0.7299999999999898 H94.5 Q94.5 -0.7299999999999898 94.5 -0.7299999999999898 Q94.5 -0.7299999999999898 94.5 -0.7299999999999898 V-69.72999999999999 Q94.5 -69.72999999999999 94.5 -69.72999999999999 Q94.5 -69.72999999999999 94.5 -69.72999999999999 H25.5 Q25.5 -69.72999999999999 25.5 -69.72999999999999 Q25.5 -69.72999999999999 25.5 -69.72999999999999 V-0.7299999999999898 Q25.5 -0.7299999999999898 25.5 -0.7299999999999898 Q25.5 -0.7299999999999898 25.5 -0.7299999999999898 Z M25.5 -0.7299999999999898 Q25.5 -0.7299999999999898 25.5 -0.7299999999999898 Q25.5 -0.7299999999999898 25.5 -0.7299999999999898 V-69.72999999999999 Q25.5 -69.72999999999999 25.5 -69.72999999999999 Q25.5 -69.72999999999999 25.5 -69.72999999999999 Q25.5 -69.72999999999999 25.5 -69.72999999999999 Q25.5 -69.72999999999999 25.5 -69.72999999999999 V-0.7299999999999898 Q25.5 -0.7299999999999898 25.5 -0.7299999999999898 Q25.5 -0.7299999999999898 25.5 -0.7299999999999898 Z"/></g><g id="Light-M" transform="matrix(1 0 0 1 1098.18 1126)"><path d="M37.75 -6.72999999999999 H49.75 V-26.22999999999999 H54.75 V-38.97999999999999 Q54.75 -42.47999999999999 52.25 -44.97999999999999 Q49.75 -47.47999999999999 46.25 -47.47999999999999 H41.25 Q37.625 -47.47999999999999 35.19 -44.97999999999999 Q32.75 -42.47999999999999 32.75 -38.97999999999999 V-26.22999999999999 H37.75 V-6.72999999999999 Z M43.75 -52.22999999999999 Q46.125 -52.22999999999999 47.809999999999995 -53.91999999999999 Q49.5 -55.60499999999999 49.5 -57.97999999999999 Q49.5 -60.47999999999999 47.809999999999995 -62.10499999999999 Q46.125 -63.72999999999999 43.75 -63.72999999999999 Q41.25 -63.72999999999999 39.625 -62.10499999999999 Q38.0 -60.47999999999999 38.0 -57.97999999999999 Q38.0 -55.60499999999999 39.625 -53.91999999999999 Q41.25 -52.22999999999999 43.75 -52.22999999999999 Z M66.75 -41.72999999999999 H86.25 L76.5 -57.47999999999999 L66.75 -41.72999999999999 Z M76.5 -13.10499999999999  86.25 -28.72999999999999 H66.75 L76.5 -13.10499999999999 Z M26.875 6.39500000000001 Q23.375 6.39500000000001 20.875 3.8950000000000102 Q18.375 1.3950000000000102 18.375 -2.1049999999999898 V-68.35499999999999 Q18.375 -71.85499999999999 20.875 -74.35499999999999 Q23.375 -76.85499999999999 26.875 -76.85499999999999 H93.125 Q96.625 -76.85499999999999 99.125 -74.35499999999999 Q101.625 -71.85499999999999 101.625 -68.35499999999999 V-2.1049999999999898 Q101.625 1.3950000000000102 99.125 3.8950000000000102 Q96.625 6.39500000000001 93.125 6.39500000000001 H26.875 Z M27.0 -0.6049999999999898 H93.0 Q93.75 -0.6049999999999898 94.185 -1.0449999999999875 Q94.625 -1.4799999999999898 94.625 -2.2299999999999898 V-68.22999999999999 Q94.625 -68.97999999999999 94.185 -69.41999999999999 Q93.75 -69.85499999999999 93.0 -69.85499999999999 H27.0 Q26.25 -69.85499999999999 25.81 -69.41999999999999 Q25.375 -68.97999999999999 25.375 -68.22999999999999 V-2.2299999999999898 Q25.375 -1.4799999999999898 25.81 -1.0449999999999875 Q26.25 -0.6049999999999898 27.0 -0.6049999999999898 Z M25.375 -0.6049999999999898 Q25.375 -0.6049999999999898 25.375 -1.0449999999999875 Q25.375 -1.4799999999999898 25.375 -2.2299999999999898 V-68.22999999999999 Q25.375 -68.97999999999999 25.375 -69.41999999999999 Q25.375 -69.85499999999999 25.375 -69.85499999999999 Q25.375 -69.85499999999999 25.375 -69.41999999999999 Q25.375 -68.97999999999999 25.375 -68.22999999999999 V-2.2299999999999898 Q25.375 -1.4799999999999898 25.375 -1.0449999999999875 Q25.375 -0.6049999999999898 25.375 -0.6049999999999898 Z"/></g><g id="Thin-M" transform="matrix(1 0 0 1 802.565 1126)"><path d="M39.75 -7.97999999999999 H49.375 V-26.97999999999999 H54.375 V-39.85499999999999 Q54.375 -42.85499999999999 52.25 -44.97999999999999 Q50.125 -47.10499999999999 47.125 -47.10499999999999 H42.125 Q39.0 -47.10499999999999 36.875 -44.97999999999999 Q34.75 -42.85499999999999 34.75 -39.85499999999999 V-26.97999999999999 H39.75 V-7.97999999999999 Z M44.625 -51.72999999999999 Q46.875 -51.72999999999999 48.375 -53.29499999999999 Q49.875 -54.85499999999999 49.875 -57.10499999999999 Q49.875 -59.35499999999999 48.375 -60.85499999999999 Q46.875 -62.35499999999999 44.625 -62.35499999999999 Q42.375 -62.35499999999999 40.875 -60.85499999999999 Q39.375 -59.35499999999999 39.375 -57.10499999999999 Q39.375 -54.85499999999999 40.875 -53.29499999999999 Q42.375 -51.72999999999999 44.625 -51.72999999999999 Z M68.5 -42.97999999999999 H83.875 L76.125 -55.22999999999999 L68.5 -42.97999999999999 Z M76.125 -15.35499999999999  83.875 -27.60499999999999 H68.5 L76.125 -15.35499999999999 Z M28.375 4.02000000000001 Q25.125 4.02000000000001 22.94 1.835000000000008 Q20.75 -0.35499999999998977 20.75 -3.6049999999999898 V-66.85499999999999 Q20.75 -70.10499999999999 22.94 -72.29499999999999 Q25.125 -74.47999999999999 28.375 -74.47999999999999 H91.625 Q94.875 -74.47999999999999 97.065 -72.29499999999999 Q99.25 -70.10499999999999 99.25 -66.85499999999999 V-3.6049999999999898 Q99.25 -0.35499999999998977 97.065 1.835000000000008 Q94.875 4.02000000000001 91.625 4.02000000000001 H28.375 Z M28.375 -0.47999999999998977 H91.625 Q93.0 -0.47999999999998977 93.875 -1.3549999999999898 Q94.75 -2.2299999999999898 94.75 -3.6049999999999898 V-66.85499999999999 Q94.75 -68.22999999999999 93.875 -69.10499999999999 Q93.0 -69.97999999999999 91.625 -69.97999999999999 H28.375 Q27.0 -69.97999999999999 26.125 -69.10499999999999 Q25.25 -68.22999999999999 25.25 -66.85499999999999 V-3.6049999999999898 Q25.25 -2.2299999999999898 26.125 -1.3549999999999898 Q27.0 -0.47999999999998977 28.375 -0.47999999999998977 Z M25.25 -0.47999999999998977 Q25.25 -0.47999999999998977 25.25 -1.3549999999999898 Q25.25 -2.2299999999999898 25.25 -3.6049999999999898 V-66.85499999999999 Q25.25 -68.22999999999999 25.25 -69.10499999999999 Q25.25 -69.97999999999999 25.25 -69.97999999999999 Q25.25 -69.97999999999999 25.25 -69.10499999999999 Q25.25 -68.22999999999999 25.25 -66.85499999999999 V-3.6049999999999898 Q25.25 -2.2299999999999898 25.25 -1.3549999999999898 Q25.25 -0.47999999999998977 25.25 -0.47999999999998977 Z"/></g><g id="Ultralight-M" transform="matrix(1 0 0 1 506.415 1126)"><path d="M41.125 -8.72999999999999 H49.25 V-27.47999999999999 H54.25 V-40.47999999999999 Q54.25 -43.10499999999999 52.315 -45.04499999999999 Q50.375 -46.97999999999999 47.75 -46.97999999999999 H42.75 Q39.875 -46.97999999999999 38.0 -45.04499999999999 Q36.125 -43.10499999999999 36.125 -40.47999999999999 V-27.47999999999999 H41.125 V-8.72999999999999 Z M45.25 -51.47999999999999 Q47.25 -51.47999999999999 48.75 -52.91999999999999 Q50.25 -54.35499999999999 50.25 -56.47999999999999 Q50.25 -58.60499999999999 48.75 -60.04499999999999 Q47.25 -61.47999999999999 45.25 -61.47999999999999 Q43.125 -61.47999999999999 41.69 -60.04499999999999 Q40.25 -58.60499999999999 40.25 -56.47999999999999 Q40.25 -54.35499999999999 41.69 -52.91999999999999 Q43.125 -51.47999999999999 45.25 -51.47999999999999 Z M69.625 -43.72999999999999 H82.375 L76.0 -53.85499999999999 L69.625 -43.72999999999999 Z M76.0 -16.72999999999999  82.375 -26.85499999999999 H69.625 L76.0 -16.72999999999999 Z M29.25 2.6450000000000102 Q26.25 2.6450000000000102 24.19 0.585000000000008 Q22.125 -1.4799999999999898 22.125 -4.47999999999999 V-65.97999999999999 Q22.125 -68.97999999999999 24.19 -71.10499999999999 Q26.25 -73.22999999999999 29.25 -73.22999999999999 H90.75 Q93.75 -73.22999999999999 95.875 -71.10499999999999 Q98.0 -68.97999999999999 98.0 -65.97999999999999 V-4.47999999999999 Q98.0 -1.4799999999999898 95.875 0.585000000000008 Q93.75 2.6450000000000102 90.75 2.6450000000000102 H29.25 Z M29.25 -0.47999999999998977 H90.75 Q92.5 -0.47999999999998977 93.625 -1.6049999999999898 Q94.75 -2.7299999999999898 94.75 -4.47999999999999 V-65.97999999999999 Q94.75 -67.72999999999999 93.625 -68.85499999999999 Q92.5 -69.97999999999999 90.75 -69.97999999999999 H29.25 Q27.5 -69.97999999999999 26.375 -68.85499999999999 Q25.25 -67.72999999999999 25.25 -65.97999999999999 V-4.47999999999999 Q25.25 -2.7299999999999898 26.375 -1.6049999999999898 Q27.5 -0.47999999999998977 29.25 -0.47999999999998977 Z M25.25 -0.47999999999998977 Q25.25 -0.47999999999998977 25.25 -1.6049999999999898 Q25.25 -2.7299999999999898 25.25 -4.47999999999999 V-65.97999999999999 Q25.25 -67.72999999999999 25.25 -68.85499999999999 Q25.25 -69.97999999999999 25.25 -69.97999999999999 Q25.25 -69.97999999999999 25.25 -68.85499999999999 Q25.25 -67.72999999999999 25.25 -65.97999999999999 V-4.47999999999999 Q25.25 -2.7299999999999898 25.25 -1.6049999999999898 Q25.25 -0.47999999999998977 25.25 -0.47999999999998977 Z"/></g><g id="Bold-S" transform="matrix(1 0 0 1 2294.23 696)"><path d="M29.980422 -11.85350799999999 H41.323085999999996 V-27.636663999999996 H45.266507999999995 V-37.49758599999999 Q45.266507999999995 -40.555749999999996 42.998922 -42.82333599999999 Q40.731336 -45.09092199999999 37.673172 -45.09092199999999 H33.72975 Q30.572172000000002 -45.09092199999999 28.304586 -42.82333599999999 Q26.037 -40.555749999999996 26.037 -37.49758599999999 V-27.636663999999996 H29.980422 V-11.85350799999999 Z M35.703828 -49.03907799999999 Q37.772586 -49.03907799999999 39.202254 -50.468745999999996 Q40.631922 -51.89841399999999 40.631922 -53.96717199999999 Q40.631922 -56.04066399999999 39.202254 -57.470332 Q37.772586 -58.89999999999999 35.703828 -58.89999999999999 Q33.630336 -58.89999999999999 32.200668 -57.470332 Q30.771 -56.04066399999999 30.771 -53.96717199999999 Q30.771 -51.89841399999999 32.200668 -50.468745999999996 Q33.630336 -49.03907799999999 35.703828 -49.03907799999999 Z M50.29875 -39.471664 H69.135336 L59.667336 -54.558921999999995 L50.29875 -39.471664 Z M59.667336 -16.000491999999994  69.135336 -31.087749999999993 H50.29875 L59.667336 -16.000491999999994 Z M21.695922 2.741414000000006 Q16.469586 2.741414000000006 12.919086 -0.8090859999999935 Q9.368586 -4.359585999999993 9.368586 -9.585921999999997 V-60.874078 Q9.368586 -66.100414 12.919086 -69.650914 Q16.469586 -73.201414 21.695922 -73.201414 H72.984078 Q78.210414 -73.201414 81.760914 -69.650914 Q85.311414 -66.100414 85.311414 -60.874078 V-9.585921999999997 Q85.311414 -4.359585999999993 81.760914 -0.8090859999999935 Q78.210414 2.741414000000006 72.984078 2.741414000000006 H21.695922 Z M21.695922 -9.585921999999997 H72.984078 Q72.984078 -9.585921999999997 72.984078 -9.585921999999997 Q72.984078 -9.585921999999997 72.984078 -9.585921999999997 V-60.874078 Q72.984078 -60.874078 72.984078 -60.874078 Q72.984078 -60.874078 72.984078 -60.874078 H21.695922 Q21.695922 -60.874078 21.695922 -60.874078 Q21.695922 -60.874078 21.695922 -60.874078 V-9.585921999999997 Q21.695922 -9.585921999999997 21.695922 -9.585921999999997 Q21.695922 -9.585921999999997 21.695922 -9.585921999999997 Z M21.695922 -9.585921999999997 Q21.695922 -9.585921999999997 21.695922 -9.585921999999997 Q21.695922 -9.585921999999997 21.695922 -9.585921999999997 V-60.874078 Q21.695922 -60.874078 21.695922 -60.874078 Q21.695922 -60.874078 21.695922 -60.874078 Q21.695922 -60.874078 21.695922 -60.874078 Q21.695922 -60.874078 21.695922 -60.874078 V-9.585921999999997 Q21.695922 -9.585921999999997 21.695922 -9.585921999999997 Q21.695922 -9.585921999999997 21.695922 -9.585921999999997 Z"/></g><g id="Semibold-S" transform="matrix(1 0 0 1 1998.1 696)"><path d="M29.293992 -11.85350799999999 H40.631922 V-27.636663999999996 H44.580078 V-37.49758599999999 Q44.580078 -40.555749999999996 42.359832000000004 -42.82333599999999 Q40.139585999999994 -45.09092199999999 36.982008 -45.09092199999999 H33.038586 Q29.881008 -45.09092199999999 27.613422 -42.82333599999999 Q25.345836000000002 -40.555749999999996 25.345836000000002 -37.49758599999999 V-27.636663999999996 H29.293992 V-11.85350799999999 Z M35.012664 -49.03907799999999 Q37.081422 -49.03907799999999 38.511089999999996 -50.468745999999996 Q39.945492 -51.89841399999999 39.945492 -53.96717199999999 Q39.945492 -56.04066399999999 38.511089999999996 -57.470332 Q37.081422 -58.89999999999999 35.012664 -58.89999999999999 Q32.939172 -58.89999999999999 31.509504 -57.470332 Q30.079836 -56.04066399999999 30.079836 -53.96717199999999 Q30.079836 -51.89841399999999 31.509504 -50.468745999999996 Q32.939172 -49.03907799999999 35.012664 -49.03907799999999 Z M50.596992 -39.471664 H69.433578 L59.965578 -54.558921999999995 L50.596992 -39.471664 Z M59.965578 -16.000491999999994  69.433578 -31.087749999999993 H50.596992 L59.965578 -16.000491999999994 Z M21.203586 1.2596719999999948 Q16.862508 1.2596719999999948 13.856418 -1.7464179999999914 Q10.850328 -4.752508000000006 10.850328 -9.093585999999988 V-61.36641399999999 Q10.850328 -65.707492 13.856418 -68.71358199999999 Q16.862508 -71.71967199999999 21.203586 -71.71967199999999 H73.476414 Q77.81749199999999 -71.71967199999999 80.823582 -68.71358199999999 Q83.82967199999999 -65.707492 83.82967199999999 -61.36641399999999 V-9.093585999999988 Q83.82967199999999 -4.752508000000006 80.823582 -1.7464179999999914 Q77.81749199999999 1.2596719999999948 73.476414 1.2596719999999948 H21.203586 Z M21.203586 -9.093585999999988 H73.476414 Q73.476414 -9.093585999999988 73.476414 -9.093585999999988 Q73.476414 -9.093585999999988 73.476414 -9.093585999999988 V-61.36641399999999 Q73.476414 -61.36641399999999 73.476414 -61.36641399999999 Q73.476414 -61.36641399999999 73.476414 -61.36641399999999 H21.203586 Q21.203586 -61.36641399999999 21.203586 -61.36641399999999 Q21.203586 -61.36641399999999 21.203586 -61.36641399999999 V-9.093585999999988 Q21.203586 -9.093585999999988 21.203586 -9.093585999999988 Q21.203586 -9.093585999999988 21.203586 -9.093585999999988 Z M21.203586 -9.093585999999988 Q21.203586 -9.093585999999988 21.203586 -9.093585999999988 Q21.203586 -9.093585999999988 21.203586 -9.093585999999988 V-61.36641399999999 Q21.203586 -61.36641399999999 21.203586 -61.36641399999999 Q21.203586 -61.36641399999999 21.203586 -61.36641399999999 Q21.203586 -61.36641399999999 21.203586 -61.36641399999999 Q21.203586 -61.36641399999999 21.203586 -61.36641399999999 V-9.093585999999988 Q21.203586 -9.093585999999988 21.203586 -9.093585999999988 Q21.203586 -9.093585999999988 21.203586 -9.093585999999988 Z"/></g><g id="Medium-S" transform="matrix(1 0 0 1 1701.85 696)"><path d="M28.896336 -11.85350799999999 H40.239 V-27.636663999999996 H44.182422 V-37.49758599999999 Q44.182422 -40.555749999999996 41.914835999999994 -42.82333599999999 Q39.64725 -45.09092199999999 36.489672 -45.09092199999999 H32.54625 Q29.388672 -45.09092199999999 27.17316 -42.82333599999999 Q24.952914 -40.555749999999996 24.952914 -37.49758599999999 V-27.636663999999996 H28.896336 V-11.85350799999999 Z M34.520328 -49.03907799999999 Q36.589086 -49.03907799999999 38.018754 -50.468745999999996 Q39.448422 -51.89841399999999 39.448422 -53.96717199999999 Q39.448422 -56.04066399999999 38.018754 -57.470332 Q36.589086 -58.89999999999999 34.520328 -58.89999999999999 Q32.446836 -58.89999999999999 31.017167999999998 -57.470332 Q29.5875 -56.04066399999999 29.5875 -53.96717199999999 Q29.5875 -51.89841399999999 31.017167999999998 -50.468745999999996 Q32.446836 -49.03907799999999 34.520328 -49.03907799999999 Z M50.8905 -39.471664 H69.727086 L60.259085999999996 -54.558921999999995 L50.8905 -39.471664 Z M60.259085999999996 -16.000491999999994  69.727086 -31.087749999999993 H50.8905 L60.259085999999996 -16.000491999999994 Z M20.810664 0.1755860000000098 Q17.061336 0.1755860000000098 14.495508 -2.3855080000000015 Q11.934414 -4.9513359999999835 11.934414 -8.700664000000003 V-61.75933599999999 Q11.934414 -65.508664 14.495508 -68.069758 Q17.061336 -70.63558599999999 20.810664 -70.63558599999999 H73.86933599999999 Q77.61866400000001 -70.63558599999999 80.18449199999999 -68.069758 Q82.745586 -65.508664 82.745586 -61.75933599999999 V-8.700664000000003 Q82.745586 -4.9513359999999835 80.18449199999999 -2.3855080000000015 Q77.61866400000001 0.1755860000000098 73.86933599999999 0.1755860000000098 H20.810664 Z M20.810664 -8.700664000000003 H73.86933599999999 Q73.86933599999999 -8.700664000000003 73.86933599999999 -8.700664000000003 Q73.86933599999999 -8.700664000000003 73.86933599999999 -8.700664000000003 V-61.75933599999999 Q73.86933599999999 -61.75933599999999 73.86933599999999 -61.75933599999999 Q73.86933599999999 -61.75933599999999 73.86933599999999 -61.75933599999999 H20.810664 Q20.810664 -61.75933599999999 20.810664 -61.75933599999999 Q20.810664 -61.75933599999999 20.810664 -61.75933599999999 V-8.700664000000003 Q20.810664 -8.700664000000003 20.810664 -8.700664000000003 Q20.810664 -8.700664000000003 20.810664 -8.700664000000003 Z M20.810664 -8.700664000000003 Q20.810664 -8.700664000000003 20.810664 -8.700664000000003 Q20.810664 -8.700664000000003 20.810664 -8.700664000000003 V-61.75933599999999 Q20.810664 -61.75933599999999 20.810664 -61.75933599999999 Q20.810664 -61.75933599999999 20.810664 -61.75933599999999 Q20.810664 -61.75933599999999 20.810664 -61.75933599999999 Q20.810664 -61.75933599999999 20.810664 -61.75933599999999 V-8.700664000000003 Q20.810664 -8.700664000000003 20.810664 -8.700664000000003 Q20.810664 -8.700664000000003 20.810664 -8.700664000000003 Z"/></g><g id="Regular-S" transform="matrix(1 0 0 1 1405.73 696)"><path d="M28.503414 -11.85350799999999 H39.846078 V-27.636663999999996 H43.7895 V-37.49758599999999 Q43.7895 -40.555749999999996 41.521914 -42.82333599999999 Q39.254328 -45.09092199999999 36.196163999999996 -45.09092199999999 H32.248008 Q29.095164 -45.09092199999999 26.827578 -42.82333599999999 Q24.559991999999998 -40.555749999999996 24.559991999999998 -37.49758599999999 V-27.636663999999996 H28.503414 V-11.85350799999999 Z M34.222086 -49.03907799999999 Q36.295578 -49.03907799999999 37.725246 -50.468745999999996 Q39.154914000000005 -51.89841399999999 39.154914000000005 -53.96717199999999 Q39.154914000000005 -56.04066399999999 37.725246 -57.470332 Q36.295578 -58.89999999999999 34.222086 -58.89999999999999 Q32.153328 -58.89999999999999 30.723660000000002 -57.470332 Q29.293992 -56.04066399999999 29.293992 -53.96717199999999 Q29.293992 -51.89841399999999 30.723660000000002 -50.468745999999996 Q32.153328 -49.03907799999999 34.222086 -49.03907799999999 Z M51.089328 -39.471664 H69.925914 L60.457914 -54.558921999999995 L51.089328 -39.471664 Z M60.457914 -16.000491999999994  69.925914 -31.087749999999993 H51.089328 L60.457914 -16.000491999999994 Z M20.512422 -0.6149919999999867 Q17.260164 -0.6149919999999867 14.992578 -2.882577999999995 Q12.724992 -5.150164000000004 12.724992 -8.402421999999987 V-62.05757799999999 Q12.724992 -65.30983599999999 14.992578 -67.577422 Q17.260164 -69.84500799999999 20.512422 -69.84500799999999 H74.167578 Q77.41983599999999 -69.84500799999999 79.687422 -67.577422 Q81.955008 -65.30983599999999 81.955008 -62.05757799999999 V-8.402421999999987 Q81.955008 -5.150164000000004 79.687422 -2.882577999999995 Q77.41983599999999 -0.6149919999999867 74.167578 -0.6149919999999867 H20.512422 Z M20.512422 -8.402421999999987 H74.167578 Q74.167578 -8.402421999999987 74.167578 -8.402421999999987 Q74.167578 -8.402421999999987 74.167578 -8.402421999999987 V-62.05757799999999 Q74.167578 -62.05757799999999 74.167578 -62.05757799999999 Q74.167578 -62.05757799999999 74.167578 -62.05757799999999 H20.512422 Q20.512422 -62.05757799999999 20.512422 -62.05757799999999 Q20.512422 -62.05757799999999 20.512422 -62.05757799999999 V-8.402421999999987 Q20.512422 -8.402421999999987 20.512422 -8.402421999999987 Q20.512422 -8.402421999999987 20.512422 -8.402421999999987 Z M20.512422 -8.402421999999987 Q20.512422 -8.402421999999987 20.512422 -8.402421999999987 Q20.512422 -8.402421999999987 20.512422 -8.402421999999987 V-62.05757799999999 Q20.512422 -62.05757799999999 20.512422 -62.05757799999999 Q20.512422 -62.05757799999999 20.512422 -62.05757799999999 Q20.512422 -62.05757799999999 20.512422 -62.05757799999999 Q20.512422 -62.05757799999999 20.512422 -62.05757799999999 V-8.402421999999987 Q20.512422 -8.402421999999987 20.512422 -8.402421999999987 Q20.512422 -8.402421999999987 20.512422 -8.402421999999987 Z"/></g><g id="Light-S" transform="matrix(1 0 0 1 1109.75 696)"><path d="M30.17925 -12.743499999999997 H39.64725 V-28.12899999999999 H43.590672 V-38.18874999999999 Q43.590672 -40.948671999999995 41.621328 -42.92274999999999 Q39.64725 -44.89682799999999 36.887328 -44.89682799999999 H32.939172 Q30.079836 -44.89682799999999 28.157832000000003 -42.92274999999999 Q26.235827999999998 -40.948671999999995 26.235827999999998 -38.18874999999999 V-28.12899999999999 H30.17925 V-12.743499999999997 Z M34.91325 -48.64142199999999 Q36.787914 -48.64142199999999 38.118168 -49.976409999999994 Q39.448422 -51.306664 39.448422 -53.18132799999999 Q39.448422 -55.15067199999999 38.118168 -56.43358599999999 Q36.787914 -57.716499999999996 34.91325 -57.716499999999996 Q32.939172 -57.716499999999996 31.660992 -56.43358599999999 Q30.378078 -55.15067199999999 30.378078 -53.18132799999999 Q30.378078 -51.306664 31.660992 -49.976409999999994 Q32.939172 -48.64142199999999 34.91325 -48.64142199999999 Z M52.466922000000004 -40.356922 H67.852422 L60.159672 -52.783671999999996 L52.466922000000004 -40.356922 Z M60.159672 -17.771007999999995  67.852422 -30.10307799999999 H52.466922000000004 L60.159672 -17.771007999999995 Z M21.596508 -2.3855080000000015 Q18.642492 -2.3855080000000015 16.569 -4.458999999999989 Q14.495508 -6.532491999999991 14.495508 -9.486507999999986 V-60.97349199999999 Q14.495508 -63.92750799999999 16.569 -66.00099999999999 Q18.642492 -68.07449199999999 21.596508 -68.07449199999999 H73.083492 Q76.037508 -68.07449199999999 78.111 -66.00099999999999 Q80.18449199999999 -63.92750799999999 80.18449199999999 -60.97349199999999 V-9.486507999999986 Q80.18449199999999 -6.532491999999991 78.111 -4.458999999999989 Q76.037508 -2.3855080000000015 73.083492 -2.3855080000000015 H21.596508 Z M21.695922 -8.303007999999991 H72.984078 Q73.575828 -8.303007999999991 73.92141 -8.648589999999999 Q74.266992 -8.994171999999992 74.266992 -9.585921999999997 V-60.874078 Q74.266992 -61.46582799999999 73.92141 -61.811409999999995 Q73.575828 -62.15699199999999 72.984078 -62.15699199999999 H21.695922 Q21.104172000000002 -62.15699199999999 20.758589999999998 -61.811409999999995 Q20.413008 -61.46582799999999 20.413008 -60.874078 V-9.585921999999997 Q20.413008 -8.994171999999992 20.758589999999998 -8.648589999999999 Q21.104172000000002 -8.303007999999991 21.695922 -8.303007999999991 Z M20.413008 -8.303007999999991 Q20.413008 -8.303007999999991 20.413008 -8.648589999999999 Q20.413008 -8.994171999999992 20.413008 -9.585921999999997 V-60.874078 Q20.413008 -61.46582799999999 20.413008 -61.811409999999995 Q20.413008 -62.15699199999999 20.413008 -62.15699199999999 Q20.413008 -62.15699199999999 20.413008 -61.811409999999995 Q20.413008 -61.46582799999999 20.413008 -60.874078 V-9.585921999999997 Q20.413008 -8.994171999999992 20.413008 -8.648589999999999 Q20.413008 -8.303007999999991 20.413008 -8.303007999999991 Z"/></g><g id="Thin-S" transform="matrix(1 0 0 1 814.015 696)"><path d="M31.755672 -13.728172 H39.349008 V-28.720749999999995 H43.297164 V-38.879914 Q43.297164 -41.246914 41.621328 -42.92274999999999 Q39.945492 -44.59858599999999 37.578492 -44.59858599999999 H33.630336 Q31.163922 -44.59858599999999 29.488086 -42.92274999999999 Q27.81225 -41.246914 27.81225 -38.879914 V-28.720749999999995 H31.755672 V-13.728172 Z M35.604414 -48.24849999999999 Q37.379664 -48.24849999999999 38.563164 -49.47933999999999 Q39.746664 -50.71491399999999 39.746664 -52.49016399999999 Q39.746664 -54.26541399999999 38.563164 -55.44891399999999 Q37.379664 -56.632414 35.604414 -56.632414 Q33.829164 -56.632414 32.645664 -55.44891399999999 Q31.462163999999998 -54.26541399999999 31.462163999999998 -52.49016399999999 Q31.462163999999998 -50.71491399999999 32.645664 -49.47933999999999 Q33.829164 -48.24849999999999 35.604414 -48.24849999999999 Z M53.84925 -41.34632799999999 H65.98249200000001 L59.866164000000005 -51.008421999999996 L53.84925 -41.34632799999999 Z M59.866164000000005 -19.550991999999994  65.98249200000001 -29.21308599999999 H53.84925 L59.866164000000005 -19.550991999999994 Z M22.780008000000002 -4.260171999999983 Q20.020086 -4.260171999999983 18.197496 -6.087496000000002 Q16.370172 -7.910085999999993 16.370172 -10.670007999999996 V-59.78999199999999 Q16.370172 -62.549913999999994 18.197496 -64.37250399999999 Q20.020086 -66.199828 22.780008000000002 -66.199828 H71.899992 Q74.659914 -66.199828 76.48250399999999 -64.37250399999999 Q78.30982800000001 -62.549913999999994 78.30982800000001 -59.78999199999999 V-10.670007999999996 Q78.30982800000001 -7.910085999999993 76.48250399999999 -6.087496000000002 Q74.659914 -4.260171999999983 71.899992 -4.260171999999983 H22.780008000000002 Z M22.780008000000002 -8.208327999999995 H71.899992 Q72.984078 -8.208327999999995 73.670508 -8.899491999999995 Q74.361672 -9.585921999999997 74.361672 -10.670007999999996 V-59.78999199999999 Q74.361672 -60.874078 73.670508 -61.560508 Q72.984078 -62.251672 71.899992 -62.251672 H22.780008000000002 Q21.695922 -62.251672 21.009491999999998 -61.560508 Q20.318327999999998 -60.874078 20.318327999999998 -59.78999199999999 V-10.670007999999996 Q20.318327999999998 -9.585921999999997 21.009491999999998 -8.899491999999995 Q21.695922 -8.208327999999995 22.780008000000002 -8.208327999999995 Z M20.318327999999998 -8.208327999999995 Q20.318327999999998 -8.208327999999995 20.318327999999998 -8.899491999999995 Q20.318327999999998 -9.585921999999997 20.318327999999998 -10.670007999999996 V-59.78999199999999 Q20.318327999999998 -60.874078 20.318327999999998 -61.560508 Q20.318327999999998 -62.251672 20.318327999999998 -62.251672 Q20.318327999999998 -62.251672 20.318327999999998 -61.560508 Q20.318327999999998 -60.874078 20.318327999999998 -59.78999199999999 V-10.670007999999996 Q20.318327999999998 -9.585921999999997 20.318327999999998 -8.899491999999995 Q20.318327999999998 -8.208327999999995 20.318327999999998 -8.208327999999995 Z"/></g><g id="Ultralight-S" transform="matrix(1 0 0 1 517.792 696)"><path d="M32.844491999999995 -14.319921999999991 H39.254328 V-29.113671999999994 H43.19775 V-39.372249999999994 Q43.19775 -41.44100799999999 41.668668 -42.97008999999999 Q40.139585999999994 -44.499171999999994 38.070828 -44.499171999999994 H34.122672 Q31.855086 -44.499171999999994 30.378078 -42.97008999999999 Q28.896336 -41.44100799999999 28.896336 -39.372249999999994 V-29.113671999999994 H32.844491999999995 V-14.319921999999991 Z M36.09675 -48.049671999999994 Q37.673172 -48.049671999999994 38.856672 -49.185832 Q40.040172 -50.321991999999995 40.040172 -51.99782799999999 Q40.040172 -53.67366399999999 38.856672 -54.80508999999999 Q37.673172 -55.94125 36.09675 -55.94125 Q34.420913999999996 -55.94125 33.284754 -54.80508999999999 Q32.153328 -53.67366399999999 32.153328 -51.99782799999999 Q32.153328 -50.321991999999995 33.284754 -49.185832 Q34.420913999999996 -48.049671999999994 36.09675 -48.049671999999994 Z M54.734508 -41.93807799999999 H64.798992 L59.76675 -49.924336 L54.734508 -41.93807799999999 Z M59.76675 -20.635077999999993  64.798992 -28.621335999999992 H54.734508 L59.76675 -20.635077999999993 Z M23.471172 -5.348991999999981 Q20.910078 -5.348991999999981 19.182167999999997 -7.072167999999991 Q17.458992000000002 -8.800078 17.458992000000002 -11.361171999999996 V-59.098828 Q17.458992000000002 -61.659921999999995 19.182167999999997 -63.435171999999994 Q20.910078 -65.210422 23.471172 -65.210422 H71.208828 Q73.769922 -65.210422 75.545172 -63.435171999999994 Q77.320422 -61.659921999999995 77.320422 -59.098828 V-11.361171999999996 Q77.320422 -8.800078 75.545172 -7.072167999999991 Q73.769922 -5.348991999999981 71.208828 -5.348991999999981 H23.471172 Z M23.471172 -8.208327999999995 H71.208828 Q72.586422 -8.208327999999995 73.476414 -9.093585999999988 Q74.361672 -9.983577999999994 74.361672 -11.361171999999996 V-59.098828 Q74.361672 -60.47642199999999 73.476414 -61.36641399999999 Q72.586422 -62.251672 71.208828 -62.251672 H23.471172 Q22.093578 -62.251672 21.203586 -61.36641399999999 Q20.318327999999998 -60.47642199999999 20.318327999999998 -59.098828 V-11.361171999999996 Q20.318327999999998 -9.983577999999994 21.203586 -9.093585999999988 Q22.093578 -8.208327999999995 23.471172 -8.208327999999995 Z M20.318327999999998 -8.208327999999995 Q20.318327999999998 -8.208327999999995 20.318327999999998 -9.093585999999988 Q20.318327999999998 -9.983577999999994 20.318327999999998 -11.361171999999996 V-59.098828 Q20.318327999999998 -60.47642199999999 20.318327999999998 -61.36641399999999 Q20.318327999999998 -62.251672 20.318327999999998 -62.251672 Q20.318327999999998 -62.251672 20.318327999999998 -61.36641399999999 Q20.318327999999998 -60.47642199999999 20.318327999999998 -59.098828 V-11.361171999999996 Q20.318327999999998 -9.983577999999994 20.318327999999998 -9.093585999999988 Q20.318327999999998 -8.208327999999995 20.318327999999998 -8.208327999999995 Z"/></g></g></svg>