<svg xmlns="http://www.w3.org/2000/svg" height="24" width="24"><path d="M9.875 7.625 7.6 5.35l2.875-2.875q.325-.325.713-.475.387-.15.812-.15.425 0 .812.15.388.15.713.475L16.4 5.35l-2.275 2.275L12 5.5ZM5.35 16.4l-2.875-2.875Q2.15 13.2 2 12.812q-.15-.387-.15-.812 0-.425.15-.812.15-.388.475-.713L5.35 7.6l2.275 2.275L5.5 12l2.125 2.125Zm13.3 0-2.275-2.275L18.5 12l-2.125-2.125L18.65 7.6l2.875 2.875q.325.325.475.713.15.387.15.812 0 .425-.15.812-.15.388-.475.713ZM12 22.15q-.425 0-.812-.15-.388-.15-.713-.475L7.6 18.65l2.275-2.275L12 18.5l2.125-2.125L16.4 18.65l-2.875 2.875q-.325.325-.713.475-.387.15-.812.15Zm.475-8.8q-.575.175-1.112-.088-.538-.262-.713-.812-.175-.55.088-1.088.262-.537.837-.737.55-.175 1.075.1.525.275.7.825.175.55-.075 1.075-.25.525-.8.725Z"/></svg>