<svg xmlns="http://www.w3.org/2000/svg" height="20" viewBox="0 -960 960 960" width="20"><path d="M191.87-790.59q0-32.42 22.79-55.21t55.21-22.79h420.26q32.42 0 55.21 22.79t22.79 55.21v419q0 32.42-22.79 55.21t-55.21 22.79h-179.3q-9.44 0-16.66-2.78-7.23-2.79-14.36-9.88l-47.11-47.12q-19.84-19.02-45.26-20.7-25.42-1.67-46.35 17.4l-39.35 39.34q-9.08 8.24-19.18 11.76-10.11 3.53-20.69 3.53-27.04 0-48.52-19.34-21.48-19.34-21.48-52.66v-416.55Zm78 363.89q50.28-24.78 102.57-40.05 52.29-15.27 107.57-15.27 55.27 0 107.56 15.27 52.28 15.27 102.56 40.05v-363.89H269.87v363.89Zm210.01-81.32q-48.38 0-82.13-33.87Q364-575.76 364-624.14t33.87-82.13q33.87-33.75 82.25-33.75t82.13 33.87Q596-672.29 596-623.9q0 48.38-33.87 82.13-33.87 33.75-82.25 33.75Zm-93.4 344.3H227.04q-14.51 0-24.84-10.34t-10.33-24.86q0-14.42 10.4-24.9 10.4-10.48 25.01-10.48h159.2l-28.63-28.63q-11.72-11.72-11.1-24.7.62-12.98 12.34-24.7 11.71-11.71 25.19-11.71t25.02 11.54l86.05 85.8q12.17 11.72 12.17 27.34t-12.17 27.8L409.3-85.52q-11.54 11.54-25.02 11.54T359.09-85.7q-11.72-11.71-11.72-25.81 0-14.1 11.72-25.82l27.39-26.39Zm228 0q-14.51 0-24.84-10.34-10.34-10.34-10.34-24.86 0-14.42 10.4-24.9 10.4-10.48 25.02-10.48h118.24q14.51 0 24.84 10.27t10.33 24.69q0 14.43-10.33 25.02-10.33 10.6-24.84 10.6H614.48Z"/></svg>