<svg xmlns="http://www.w3.org/2000/svg" height="24" viewBox="0 -960 960 960" width="24"><path d="M500.693-88h-24.847q-31.654 0-53.134-21.481-21.481-21.48-21.481-53.134v-160.923q0-98.744 68.373-167.065 68.373-68.32 167.192-68.32 98.82 0 167.012 68.32Q872-422.282 872-323.538v160.923q0 31.654-21.481 53.134Q829.039-88 797.385-88h-24.847q-18.73 0-32.019-13.288-13.288-13.289-13.288-32.019v-102.77q0-18.731 13.288-32.019 13.289-13.289 32.019-13.289h48.077v-42.153q0-77-53.5-130.5t-130.5-53.5q-77 0-130.5 53.5t-53.5 130.5v42.153h48.078q18.73 0 32.019 13.289Q546-254.808 546-236.077v102.77q0 18.73-13.288 32.019Q519.423-88 500.693-88ZM341.706-616q23.832 0 41.025-17.283 17.192-17.283 17.192-41.115 0-23.833-17.283-41.025t-41.115-17.192q-23.833 0-41.025 17.282-17.192 17.283-17.192 41.116 0 23.832 17.282 41.025Q317.873-616 341.706-616Zm-35.86 448h-127.39q-38.687 0-64.572-25.981Q88-219.961 88-258.615v-522.77q0-38.654 25.981-64.634Q139.961-872 178.615-872h326q38.654 0 64.635 25.981 25.981 25.98 25.981 64.634v131.154q-57.692 8.077-108.769 34-51.077 25.923-90 66.462-12.616-5.616-25.885-9.308-13.269-3.692-28.962-3.692-58.901 0-100.296 41.395-41.396 41.396-41.396 100.297 0 49.539 30.077 87.423 30.077 37.885 75.846 49.193V-168Zm35.769-328.769q4 0 6.347.115 2.346.116 6.346 1.347-18.693 29.461-30.269 63.115-11.577 33.654-13.5 70.73v10.77q-20.154-9.616-32.385-28.27-12.231-18.653-12.231-42.115 0-31.538 22.077-53.615t53.615-22.077Z"/></svg>