<svg xmlns="http://www.w3.org/2000/svg" height="24" width="24"><path d="M4.875 19.475Q3.375 18.05 2.525 16.137Q1.675 14.225 1.675 12Q1.675 9.85 2.488 7.975Q3.3 6.1 4.7 4.7Q6.1 3.3 7.988 2.487Q9.875 1.675 12 1.675Q14.15 1.675 16.025 2.487Q17.9 3.3 19.3 4.7Q20.7 6.1 21.513 7.975Q22.325 9.85 22.325 12Q22.325 14.225 21.475 16.137Q20.625 18.05 19.125 19.475L17.25 17.6Q18.375 16.55 19.025 15.113Q19.675 13.675 19.675 12Q19.675 8.8 17.438 6.562Q15.2 4.325 12 4.325Q8.8 4.325 6.562 6.562Q4.325 8.8 4.325 12Q4.325 13.675 4.975 15.113Q5.625 16.55 6.75 17.6ZM7.7 16.65Q6.75 15.775 6.213 14.587Q5.675 13.4 5.675 12Q5.675 9.35 7.513 7.513Q9.35 5.675 12 5.675Q14.65 5.675 16.488 7.513Q18.325 9.35 18.325 12Q18.325 13.4 17.788 14.587Q17.25 15.775 16.3 16.65L14.425 14.775Q15 14.275 15.338 13.55Q15.675 12.825 15.675 12Q15.675 10.475 14.6 9.4Q13.525 8.325 12 8.325Q10.475 8.325 9.4 9.4Q8.325 10.475 8.325 12Q8.325 12.825 8.663 13.55Q9 14.275 9.575 14.775ZM10.7 24V13.925Q10.225 13.6 9.95 13.1Q9.675 12.6 9.675 12Q9.675 11.05 10.363 10.362Q11.05 9.675 12 9.675Q12.95 9.675 13.638 10.362Q14.325 11.05 14.325 12Q14.325 12.575 14.062 13.062Q13.8 13.55 13.35 13.875V24Z"/></svg>