<svg xmlns="http://www.w3.org/2000/svg" height="20" width="20"><path d="M9.542 18.583v-8.062q-.167-.104-.198-.261-.032-.156-.032-.26 0-.271.209-.479.208-.209.479-.209t.479.209q.209.208.209.479 0 .083-.021.208-.021.125-.167.271v8.104Zm-4.625-3.5q-1.021-1-1.563-2.291Q2.812 11.5 2.812 10q0-1.5.563-2.802t1.542-2.281q.979-.979 2.291-1.542Q8.521 2.812 10 2.812q1.5 0 2.792.563 1.291.563 2.281 1.542.989.979 1.552 2.281.563 1.302.563 2.802t-.542 2.771q-.542 1.271-1.584 2.291l-.687-.708q.875-.833 1.365-1.937.489-1.105.489-2.417 0-2.583-1.823-4.406Q12.583 3.771 10 3.771q-2.583 0-4.406 1.823Q3.771 7.417 3.771 10q0 1.312.489 2.438.49 1.124 1.323 1.979Zm2.125-2.125q-.604-.583-.917-1.333-.313-.75-.313-1.625 0-1.75 1.219-2.969Q8.25 5.812 10 5.812q1.75 0 2.969 1.219Q14.188 8.25 14.188 10q0 .875-.313 1.604-.313.729-.937 1.334l-.646-.646q.437-.417.687-1.011.25-.593.25-1.281 0-1.354-.937-2.292-.938-.937-2.292-.937-1.354 0-2.292.937-.937.938-.937 2.292 0 .667.25 1.271.25.604.687 1.021Z"/></svg>