<svg xmlns="http://www.w3.org/2000/svg" height="48" viewBox="0 -960 960 960" width="48"><path d="M513.65-446.35v80.39q0 7.35-5.19 12.15-5.2 4.81-12.23 4.81-7.04 0-12.21-4.81-5.17-4.8-5.17-12.15v-94q0-8.46 6.36-14.83 6.37-6.36 15.71-6.36h93.12q7.73 0 12.79 5.19 5.05 5.2 5.05 12.23 0 7.04-5.05 12.21-5.06 5.17-12.79 5.17h-80.39Zm0 290.39h80.39q7.73 0 12.79 5.19 5.05 5.2 5.05 12.23 0 7.04-5.05 12.21-5.06 5.18-12.79 5.18h-93.12q-9.34 0-15.71-6.37-6.36-6.36-6.36-15.71v-93.12q0-7.73 5.06-12.79 5.06-5.05 12.8-5.05 6.6 0 11.77 5.05 5.17 5.06 5.17 12.79v80.39Zm290.39-290.39h-80.39q-7.35 0-12.15-5.06-4.81-5.06-4.81-12.8 0-6.6 4.81-11.77 4.8-5.17 12.15-5.17h94q8.47 0 14.83 6.36 6.37 6.37 6.37 14.83v94q0 7.35-5.2 12.15-5.19 4.81-12.23 4.81t-12.21-4.81q-5.17-4.8-5.17-12.15v-80.39Zm0 290.39v-80.39q0-7.73 5.06-12.79 5.06-5.05 12.81-5.05 6.59 0 11.76 5.05 5.18 5.06 5.18 12.79v93.12q0 9.35-6.37 15.71-6.36 6.37-14.83 6.37h-94q-7.35 0-12.15-5.07-4.81-5.06-4.81-12.8 0-6.6 4.81-11.77 4.8-5.17 12.15-5.17h80.39Zm-324.1-612.69q-120.48 0-204.54 84.05-84.05 84.06-84.05 204.6 0 88.78 47.13 159.2 47.14 70.42 122.67 103.65v-119.54q0-6.06 4.24-10.36t10.89-4.3q6.64 0 10.85 4.3 4.22 4.3 4.22 10.36V-189q0 12.31-7.84 20.08-7.84 7.77-19.13 7.77H216.69q-7.07 0-11.31-4.24-4.23-4.24-4.23-10.89 0-6.64 4.23-10.85 4.24-4.22 11.31-4.22H346q-81.46-39.53-133.15-116.54-51.7-77.02-51.7-172.11 0-66.35 25.12-124.29 25.11-57.94 68.31-101.13 43.19-43.2 100.86-68.31 57.67-25.12 125.08-25.12 104.94 0 186.94 61.62t114.35 156.88q1.96 5.64-.91 10.94-2.86 5.29-8.53 7.15-6.58 2.45-11.58-.92-4.99-3.38-7.17-9.24-29.39-85.62-104.17-140.93-74.79-55.3-169.51-55.3Z"/></svg>