<svg xmlns="http://www.w3.org/2000/svg" height="24" viewBox="0 -960 960 960" width="24"><path d="M633.85-434.5H197.37q-19.15 0-32.33-13.17-13.17-13.18-13.17-32.33t13.17-32.33q13.18-13.17 32.33-13.17h436.48L447.17-712.17q-13.67-13.68-13.29-32.07.38-18.39 14.05-32.06 13.68-12.68 32.07-13.06 18.39-.38 32.07 13.29l264 264q6.71 6.72 9.81 14.92 3.1 8.19 3.1 17.15 0 8.96-3.1 17.15-3.1 8.2-9.81 14.92L511.83-183.7q-12.92 12.92-31.57 12.92t-32.33-12.92q-13.67-13.67-13.67-32.44 0-18.77 13.67-32.45L633.85-434.5Z"/></svg>