<svg xmlns="http://www.w3.org/2000/svg" height="40" viewBox="0 -960 960 960" width="40"><path d="M670.82-445.54H192.8q-14.54 0-24.33-9.8-9.8-9.8-9.8-24.33 0-13.87 9.8-23.66 9.79-9.8 24.33-9.8h478.02L455.44-728.26q-9.85-10.15-10.23-24.19-.39-14.04 10.1-24.41 9.82-10.73 24.02-10.66 14.21.06 24.7 10.55L773.8-507.2q5.56 5.56 8.79 12.54 3.23 6.98 3.23 15.03 0 8.71-3.23 15.66-3.23 6.94-8.79 12.5L505.36-183.03q-10.9 10.23-24.85 10.43-13.95.19-23.87-10.43-10.49-10.59-10.49-24.34 0-13.76 10.49-23.99l214.18-214.18Z"/></svg>