<svg xmlns="http://www.w3.org/2000/svg" height="40" width="40"><path d="M18.667 32.667Q18.125 32.125 18.125 31.354Q18.125 30.583 18.708 30L26.833 21.875H7.875Q7.083 21.875 6.542 21.333Q6 20.792 6 20Q6 19.25 6.542 18.708Q7.083 18.167 7.875 18.167H26.833L18.708 10Q18.125 9.458 18.125 8.688Q18.125 7.917 18.667 7.333Q19.25 6.792 20 6.792Q20.75 6.792 21.333 7.333L32.708 18.708Q33 19 33.146 19.333Q33.292 19.667 33.292 20Q33.292 20.375 33.146 20.708Q33 21.042 32.708 21.333L21.333 32.708Q20.75 33.25 20 33.229Q19.25 33.208 18.667 32.667Z"/></svg>