<svg xmlns="http://www.w3.org/2000/svg" height="24" width="24"><path d="M12.975 22.575V19.55Q14 19.425 14.913 19.025Q15.825 18.625 16.625 18L18.825 20.2Q17.625 21.25 16.137 21.85Q14.65 22.45 12.975 22.575ZM20.225 18.775 18.05 16.625Q18.625 15.85 18.975 14.938Q19.325 14.025 19.5 12.975H22.575Q22.4 14.725 21.812 16.175Q21.225 17.625 20.225 18.775ZM19.525 11Q19.35 9.925 18.988 9.012Q18.625 8.1 18.05 7.35L20.175 5.225Q21.25 6.4 21.863 7.862Q22.475 9.325 22.6 11ZM11.025 22.575Q6.95 22.35 4.175 19.3Q1.4 16.25 1.4 12Q1.4 7.85 4.15 4.825Q6.9 1.8 11.025 1.425V4.45Q8.175 4.875 6.312 7.025Q4.45 9.175 4.45 12Q4.45 14.8 6.3 16.925Q8.15 19.05 11.025 19.55ZM16.675 5.975Q15.875 5.4 14.95 5.012Q14.025 4.625 13.025 4.45V1.425Q14.65 1.55 16.125 2.137Q17.6 2.725 18.825 3.8ZM12 18.3Q9.575 16.25 8.413 14.5Q7.25 12.75 7.25 11.25Q7.25 8.975 8.688 7.662Q10.125 6.35 12 6.35Q13.9 6.35 15.325 7.662Q16.75 8.975 16.75 11.25Q16.75 12.75 15.588 14.5Q14.425 16.25 12 18.3ZM12 12.3Q12.55 12.3 12.95 11.887Q13.35 11.475 13.35 10.95Q13.35 10.425 12.95 10.025Q12.55 9.625 12 9.625Q11.475 9.625 11.075 10.025Q10.675 10.425 10.675 10.95Q10.675 11.475 11.075 11.887Q11.475 12.3 12 12.3Z"/></svg>