<svg xmlns="http://www.w3.org/2000/svg" height="40" width="40"><path d="M20 28.792Q23 28.792 25.021 26.729Q27.042 24.667 27.042 21.625Q27.042 21.417 27.021 21.292Q27 21.167 26.958 20.958H24.167Q24.167 21.167 24.229 21.292Q24.292 21.417 24.292 21.625Q24.292 23.375 23.021 24.708Q21.75 26.042 20 26.042H14.458Q15.25 27.25 16.729 28.021Q18.208 28.792 20 28.792ZM12.958 22.583H15.583Q15.583 22.375 15.646 22.104Q15.708 21.833 15.708 21.625Q15.708 19.917 16.979 18.688Q18.25 17.458 20 17.458H25.625Q24.708 16.25 23.229 15.479Q21.75 14.708 20 14.708Q17 14.708 14.979 16.688Q12.958 18.667 12.958 21.625Q12.958 21.833 12.979 22.104Q13 22.375 12.958 22.583ZM3.333 35.042V8.458H12L15.125 4.833H24.875L28 8.458H36.667V35.042Z"/></svg>