<svg xmlns="http://www.w3.org/2000/svg" height="48" viewBox="0 -960 960 960" width="48"><path d="M828-652.5V-251q0 5.75-3.51 8.12-3.5 2.38-6.56 2.38-5.05 0-8.49-2.91-3.44-2.92-3.44-8.09v-401q0-12.5-9-22.25t-23-9.75H666.5q-12.95 0-22.97-4.25Q633.5-693 626-701l-57.5-65h-176l-37 40.5q-2.5 4.5-7.75 4.75t-7.73-3.23q-3.02-3.02-3.27-7.86T338-739l28.5-32q6.44-8.04 16.65-12.52 10.2-4.48 23.35-4.48h147.86q12.25 0 22.48 4.48 10.22 4.48 17.66 12.52l57.5 64.5h122q22.47 0 38.23 15.77Q828-674.97 828-652.5ZM186-172q-22.24 0-38.12-15.88Q132-203.76 132-226v-426.5q0-22.47 15.88-38.23Q163.76-706.5 186-706.5h68.5l22 22H186q-14 0-23 9.75t-9 22.25V-226q0 14 9 23t23 9h580l22 22H186Zm409-193q-17.68 28.91-47.73 45.95Q517.23-302 479.91-302q-57.91 0-97.16-39.48t-39.25-97.83q0-36.52 16.77-66.73 16.78-30.2 45.23-49.46L421-539q-25 14.93-40.25 41.04-15.25 26.12-15.25 58.4 0 48.86 33.1 82.21Q431.7-324 480.16-324q31.12 0 57.98-15.5 26.86-15.5 42.36-41L595-365Zm-17.51-171.24q17.01 17.24 26.76 37.53 9.75 20.3 12.25 46.21 0 1.25-.25 2.5t-1.25 2L489.5-574.5q.5 1 1.5.25t2-.75q25.22 2 46.11 11.75t38.38 27.01ZM848-80.5l-749.5-751q-3.5-1.57-3.75-6.78-.25-5.22 3.55-7.72 2.31-3.5 7.25-3.5 4.95 0 7.55 3.59L864.5-96.5q2.5 3.63 2.75 8.71.25 5.08-2.8 7.94-4.09 3.35-8.45 3.35-4.37 0-8-4Zm-359-359Zm87-47.5Z"/></svg>