<svg xmlns="http://www.w3.org/2000/svg" height="48" viewBox="0 -960 960 960" width="48"><path d="m451.31-239.39-205-87q-16.14-6.15-26.15-20.92-10-14.78-10-33.38v-87.16q0-23.98 17.08-41.56Q244.33-527 269.31-527h182v-107h-62q-24.98 0-42.07-17.09-17.08-17.08-17.08-42.06v-102.39q0-23.98 17.08-41.56 17.09-17.59 42.07-17.59h182.38q23.98 0 41.57 17.59 17.58 17.58 17.58 41.56v102.39q0 24.98-17.58 42.06Q595.67-634 571.69-634h-62v107h182q23.98 0 41.57 17.59 17.58 17.58 17.58 41.56v87.16q0 18.6-10.5 33.38-10.51 14.77-25.65 20.92l-205 87v102.85q0 11.67-9.06 20.18t-20.81 8.51q-11.74 0-20.13-8.51-8.38-8.51-8.38-20.18v-102.85Zm-62.77-452.99h183.92v-103.93H388.54v103.93Zm62.77 389.76v-166H268.54v88.31l182.77 77.69Zm58.38 0 182.77-77.69v-88.31H509.69v166ZM388.54-692.38v-103.93 103.93Z"/></svg>