<svg xmlns="http://www.w3.org/2000/svg" height="20" width="20"><path d="M13.917 11.25 12.125 9.458Q12.146 8.542 11.521 7.948Q10.896 7.354 10.062 7.396L8.312 5.646Q8.604 5.542 9.094 5.448Q9.583 5.354 10 5.354Q11.792 5.354 13 6.563Q14.208 7.771 14.208 9.562Q14.208 10 14.135 10.458Q14.062 10.917 13.917 11.25ZM16.729 14.104 15.062 12.417Q15.771 11.833 16.365 11.156Q16.958 10.479 17.375 9.562Q16.333 7.458 14.365 6.229Q12.396 5 10 5Q9.396 5 8.885 5.073Q8.375 5.146 7.938 5.271L6.042 3.396Q6.958 3.021 7.948 2.833Q8.938 2.646 10 2.646Q13.104 2.646 15.604 4.208Q18.104 5.771 19.458 8.438Q19.562 8.646 19.625 8.948Q19.688 9.25 19.688 9.562Q19.688 9.875 19.625 10.177Q19.562 10.479 19.458 10.688Q18.938 11.688 18.25 12.552Q17.562 13.417 16.729 14.104ZM15.688 18.875 12.896 16.104Q12.167 16.333 11.448 16.427Q10.729 16.521 10 16.521Q6.896 16.521 4.385 14.938Q1.875 13.354 0.542 10.688Q0.438 10.458 0.375 10.167Q0.312 9.875 0.312 9.562Q0.312 9.25 0.365 8.938Q0.417 8.625 0.542 8.396Q0.917 7.667 1.406 7Q1.896 6.333 2.521 5.75L1.021 4.208Q0.688 3.875 0.677 3.406Q0.667 2.938 1.021 2.604Q1.354 2.271 1.823 2.271Q2.292 2.271 2.625 2.604L17.292 17.312Q17.625 17.646 17.625 18.104Q17.625 18.562 17.292 18.875Q16.958 19.208 16.49 19.208Q16.021 19.208 15.688 18.875ZM4.167 7.354Q3.646 7.917 3.271 8.417Q2.896 8.917 2.604 9.562Q3.646 11.688 5.604 12.927Q7.562 14.167 10 14.167Q10.167 14.167 10.417 14.177Q10.667 14.188 10.875 14.104L10.562 13.771Q10.458 13.771 10.302 13.771Q10.146 13.771 10 13.771Q8.208 13.771 7 12.562Q5.792 11.354 5.792 9.562Q5.792 9.417 5.792 9.292Q5.792 9.167 5.812 9.021ZM11.479 8.812Q11.479 8.812 11.479 8.812Q11.479 8.812 11.479 8.812Q11.479 8.812 11.479 8.812Q11.479 8.812 11.479 8.812Q11.479 8.812 11.479 8.812Q11.479 8.812 11.479 8.812ZM7.521 10.729Q7.521 10.729 7.521 10.729Q7.521 10.729 7.521 10.729Q7.521 10.729 7.521 10.729Q7.521 10.729 7.521 10.729Q7.521 10.729 7.521 10.729Q7.521 10.729 7.521 10.729Z"/></svg>