<svg xmlns="http://www.w3.org/2000/svg" version="1.1" width="3300" height="2000"><g id="Notes"><style>
    text {
      font-family: monospace;
      text-anchor: middle;
    }
    text.emphasis {
      font-weight:bold;
    }
    text.lanchor {
      text-anchor: start;
    }
  </style><rect height="2200" id="artboard" fill="white" width="3300" x="0" y="0"/><line id="" style="fill:none;stroke:black;stroke-width:0.5;" x1="263" x2="3036" y1="292" y2="292"/><text class="lanchor emphasis" transform="matrix(1 0 0 1 263 322)">Weight/Scale Variations</text><text transform="matrix(1 0 0 1 559.711 322)">Ultralight</text><text transform="matrix(1 0 0 1 856.422 322)">Thin</text><text transform="matrix(1 0 0 1 1153.13 322)">Light</text><text transform="matrix(1 0 0 1 1449.84 322)">Regular</text><text transform="matrix(1 0 0 1 1746.56 322)">Medium</text><text transform="matrix(1 0 0 1 2043.27 322)">Semibold</text><text transform="matrix(1 0 0 1 2339.98 322)">Bold</text><text transform="matrix(1 0 0 1 2636.69 322)">Heavy</text><text transform="matrix(1 0 0 1 2933.4 322)">Black</text><text id="template-version" style="text-anchor: end;" transform="matrix(1 0 0 1 3036 1933)">Template v.1.0</text><text class="lanchor" transform="matrix(1 0 0 1 263 726)">Small</text><text class="lanchor" transform="matrix(1 0 0 1 263 1156)">Medium</text><text class="lanchor" transform="matrix(1 0 0 1 263 1586)">Large</text></g><g id="Guides"><g id="H-reference" style="fill:#27AAE1;stroke:none;" transform="matrix(1 0 0 1 339 696)"><path d="M 54.9316 0 L 57.666 0 L 30.5664 -70.459 L 28.0762 -70.459 L 0.976562 0 L 3.66211 0 L 12.9395 -24.4629 L 45.7031 -24.4629 Z M 29.1992 -67.0898 L 29.4434 -67.0898 L 44.8242 -26.709 L 13.8184 -26.709 Z"/></g><line id="Baseline-S" style="fill:none;stroke:#27AAE1;opacity:1;stroke-width:0.577;" x1="263" x2="3036" y1="696" y2="696"/><line id="Capline-S" style="fill:none;stroke:#27AAE1;opacity:1;stroke-width:0.577;" x1="263" x2="3036" y1="625.541" y2="625.541"/><g id="H-reference" style="fill:#27AAE1;stroke:none;" transform="matrix(1 0 0 1 339 1126)"><path d="M 54.9316 0 L 57.666 0 L 30.5664 -70.459 L 28.0762 -70.459 L 0.976562 0 L 3.66211 0 L 12.9395 -24.4629 L 45.7031 -24.4629 Z M 29.1992 -67.0898 L 29.4434 -67.0898 L 44.8242 -26.709 L 13.8184 -26.709 Z"/></g><line id="Baseline-M" style="fill:none;stroke:#27AAE1;opacity:1;stroke-width:0.577;" x1="263" x2="3036" y1="1126" y2="1126"/><line id="Capline-M" style="fill:none;stroke:#27AAE1;opacity:1;stroke-width:0.577;" x1="263" x2="3036" y1="1055.54" y2="1055.54"/><g id="H-reference" style="fill:#27AAE1;stroke:none;" transform="matrix(1 0 0 1 339 1556)"><path d="M 54.9316 0 L 57.666 0 L 30.5664 -70.459 L 28.0762 -70.459 L 0.976562 0 L 3.66211 0 L 12.9395 -24.4629 L 45.7031 -24.4629 Z M 29.1992 -67.0898 L 29.4434 -67.0898 L 44.8242 -26.709 L 13.8184 -26.709 Z"/></g><line id="Baseline-L" style="fill:none;stroke:#27AAE1;opacity:1;stroke-width:0.577;" x1="263" x2="3036" y1="1556" y2="1556"/><line id="Capline-L" style="fill:none;stroke:#27AAE1;opacity:1;stroke-width:0.577;" x1="263" x2="3036" y1="1485.54" y2="1485.54"/><rect height="119.336" id="left-margin" style="fill:darkred;stroke:none;opacity:0.4;" width="12.4512" x="1394.06" y="1030.79"/><rect height="119.336" id="right-margin" style="fill:darkgreen;stroke:none;opacity:0.4;" width="12.4512" x="1502.5112" y="1030.79"/><rect x="1406.5112" y="1045" width="96" height="96" fill="none" stroke="blue" stroke-dasharray="5"/><rect x="1394.06" y="1030.79" width="120.9024" height="119.336" fill="none" stroke="blue"/></g><g id="Symbols"><g id="Bold-L" transform="matrix(1 0 0 1 2266 1556)"><path d="M37.7325 4.59875000000001 Q35.1525 4.59875000000001 33.2175 2.6637500000000074 Q31.2825 0.7287500000000051 31.2825 -2.012500000000003 V-44.25999999999999 Q31.2825 -46.84 33.2175 -48.77499999999999 Q35.1525 -50.709999999999994 37.893750000000004 -50.709999999999994 Q40.47375 -50.709999999999994 42.408750000000005 -48.77499999999999 Q44.34375 -46.84 44.34375 -44.25999999999999 V-2.012500000000003 Q44.34375 0.7287500000000051 42.408750000000005 2.6637500000000074 Q40.47375 4.59875000000001 37.7325 4.59875000000001 Z M78.20625 4.59875000000001 Q75.465 4.59875000000001 73.610625 2.6637500000000074 Q71.75625000000001 0.7287500000000051 71.75625000000001 -2.012500000000003 V-44.25999999999999 Q71.75625000000001 -46.84 73.610625 -48.77499999999999 Q75.465 -50.709999999999994 78.045 -50.709999999999994 Q80.78625000000001 -50.709999999999994 82.640625 -48.77499999999999 Q84.495 -46.84 84.495 -44.25999999999999 V-2.012500000000003 Q84.495 0.7287500000000051 82.640625 2.6637500000000074 Q80.78625000000001 4.59875000000001 78.20625 4.59875000000001 Z M18.22125 -56.192499999999995 Q14.67375 -56.192499999999995 12.254999999999999 -58.69187499999999 Q9.83625 -61.19125 9.83625 -64.57749999999999 Q9.83625 -66.835 11.610000000000001 -69.89874999999999 Q13.383750000000001 -72.96249999999999 15.31875 -74.09125 L70.305 -105.535 Q71.9175 -106.17999999999999 73.69125000000001 -106.66375 Q75.465 -107.1475 77.4 -107.1475 Q79.33500000000001 -107.1475 81.10875 -106.66375 Q82.8825 -106.17999999999999 84.65625 -105.535 L139.64249999999998 -74.09125 Q141.41625000000002 -72.96249999999999 143.270625 -69.979375 Q145.125 -66.99625 145.125 -64.57749999999999 Q145.125 -61.19125 142.625625 -58.69187499999999 Q140.12625 -56.192499999999995 136.74 -56.192499999999995 H18.22125 Z M40.79625 -71.18875 H114.16499999999999 L77.4 -92.3125 L40.79625 -71.18875 Z M17.25375 24.91624999999999 Q14.190000000000001 24.91624999999999 12.013125 22.739375000000024 Q9.83625 20.5625 9.83625 17.49875 Q9.83625 14.435000000000002 12.013125 12.258125000000007 Q14.190000000000001 10.081249999999997 17.25375 10.081249999999997 H91.91250000000001 Q92.23500000000001 12.983750000000015 92.638125 17.015000000000015 Q93.04125 21.046250000000015 94.815 24.91624999999999 H17.25375 Z M110.61749999999999 -25.716250000000002 V-44.25999999999999 Q110.61749999999999 -46.84 112.471875 -48.77499999999999 Q114.32625000000002 -50.709999999999994 117.0675 -50.709999999999994 Q119.16375000000001 -50.709999999999994 120.9375 -49.41999999999999 Q122.71124999999999 -48.129999999999995 123.19500000000001 -46.19499999999999 V-32.16624999999999 L110.61749999999999 -25.716250000000002 Z M129.0 44.266250000000014 Q117.0675 41.36375000000001 109.3275 30.640625 Q101.5875 19.917500000000018 101.5875 6.533750000000012 V-6.204999999999998 Q101.5875 -8.301249999999982 102.796875 -9.994374999999991 Q104.00625000000001 -11.687499999999986 105.77999999999999 -12.654999999999987 L125.93625 -22.974999999999994 Q127.22625000000001 -23.61999999999999 129.0 -23.61999999999999 Q130.77375 -23.61999999999999 132.38625 -22.974999999999994 L152.38125 -12.654999999999987 Q154.155 -11.687499999999986 155.364375 -9.994374999999991 Q156.57375 -8.301249999999982 156.57375 -6.204999999999998 V6.533750000000012 Q156.57375 19.917500000000018 148.753125 30.640625 Q140.9325 41.36375000000001 129.0 44.266250000000014 Z M147.38250000000002 1.0512500000000102 Q148.35 0.0837500000000233 148.35 -1.1256249999999852 Q148.35 -2.3349999999999795 147.54375000000002 -3.141249999999985 Q146.57625000000002 -3.9474999999999767 145.44750000000002 -3.9474999999999767 Q144.31875 -3.9474999999999767 143.51250000000002 -3.141249999999985 L125.4525 15.080000000000013 L115.7775 5.405000000000015 Q114.97125 4.59875000000001 113.84249999999999 4.4375 Q112.71375000000002 4.2762500000000045 111.90750000000001 5.08250000000001 Q111.10125000000001 6.049999999999997 111.10125000000001 7.178750000000008 Q111.10125000000001 8.307500000000005 111.90750000000001 9.11375000000001 L120.29249999999999 17.82125000000002 Q121.58250000000001 18.78875000000002 122.8725 19.272500000000008 Q124.16250000000001 19.756249999999994 125.61375000000001 19.756249999999994 Q127.065 19.756249999999994 128.355 19.272500000000008 Q129.645 18.78875000000002 130.6125 17.82125000000002 L147.38250000000002 1.0512500000000102 Z M40.79625 -71.18875 H77.4 H114.16499999999999 H40.79625 Z"/></g><g id="Semibold-L" transform="matrix(1 0 0 1 1970.27 1556)"><path d="M38.53875 4.115000000000023 Q36.12 4.115000000000023 34.5075 2.421875 Q32.894999999999996 0.7287500000000051 32.894999999999996 -1.6899999999999977 V-45.55 Q32.894999999999996 -47.80749999999999 34.588125 -49.500625 Q36.28125 -51.193749999999994 38.7 -51.193749999999994 Q40.957499999999996 -51.193749999999994 42.650625 -49.500625 Q44.34375 -47.80749999999999 44.34375 -45.55 V-1.6899999999999977 Q44.34375 0.7287500000000051 42.650625 2.421875 Q40.957499999999996 4.115000000000023 38.53875 4.115000000000023 Z M78.045 4.115000000000023 Q75.78750000000001 4.115000000000023 74.09437500000001 2.421875 Q72.40125 0.7287500000000051 72.40125 -1.6899999999999977 V-45.55 Q72.40125 -47.80749999999999 74.09437500000001 -49.500625 Q75.78750000000001 -51.193749999999994 78.20625 -51.193749999999994 Q80.46375 -51.193749999999994 82.07625 -49.500625 Q83.68875 -47.80749999999999 83.68875 -45.55 V-1.6899999999999977 Q83.68875 0.7287500000000051 82.07625 2.421875 Q80.46375 4.115000000000023 78.045 4.115000000000023 Z M18.54375 -58.288749999999986 Q15.64125 -58.288749999999986 13.625625 -60.385 Q11.610000000000001 -62.48124999999999 11.610000000000001 -65.2225 Q11.610000000000001 -66.99625 12.980625000000002 -69.41499999999999 Q14.35125 -71.83375 15.802500000000002 -72.63999999999999 L71.27250000000001 -104.40625 Q72.72375000000001 -105.05125 74.255625 -105.454375 Q75.78750000000001 -105.85749999999999 77.4 -105.85749999999999 Q79.0125 -105.85749999999999 80.544375 -105.454375 Q82.07625 -105.05125 83.5275 -104.40625 L139.15875 -72.63999999999999 Q140.44875 -71.83375 141.9 -69.49562499999999 Q143.35125000000002 -67.1575 143.35125000000002 -65.2225 Q143.35125000000002 -62.48124999999999 141.255 -60.385 Q139.15875 -58.288749999999986 136.4175 -58.288749999999986 H18.54375 Z M38.05500000000001 -70.86625 H116.74500000000002 L77.4 -93.28 L38.05500000000001 -70.86625 Z M17.7375 23.62625 Q15.1575 23.62625 13.383750000000001 21.771874999999994 Q11.610000000000001 19.917500000000018 11.610000000000001 17.337500000000006 Q11.610000000000001 14.757500000000007 13.383750000000001 12.983750000000015 Q15.1575 11.210000000000008 17.7375 11.210000000000008 H92.71875 Q92.88000000000001 13.79000000000002 93.2025 17.015000000000015 Q93.525 20.24000000000001 94.97625000000001 23.62625 H17.7375 Z M110.61749999999999 -24.909999999999997 V-45.55 Q110.61749999999999 -47.80749999999999 112.22999999999999 -49.500625 Q113.84249999999999 -51.193749999999994 116.26124999999999 -51.193749999999994 Q118.35750000000002 -51.193749999999994 119.889375 -49.903749999999995 Q121.42125 -48.613749999999996 121.74375 -46.678749999999994 V-30.553749999999994 L110.61749999999999 -24.909999999999997 Z M129.0 43.46000000000001 Q117.39 40.71875 109.730625 30.23750000000001 Q102.07124999999999 19.756249999999994 102.07124999999999 6.695000000000007 V-6.3662499999999795 Q102.07124999999999 -8.14 103.119375 -9.591249999999988 Q104.16749999999999 -11.04249999999999 105.61875 -11.848749999999995 L126.42000000000002 -22.33 Q127.54875 -22.974999999999994 129.0 -22.974999999999994 Q130.45125000000002 -22.974999999999994 131.74125 -22.33 L152.38125 -11.848749999999995 Q153.8325 -11.04249999999999 154.880625 -9.591249999999988 Q155.92875 -8.14 155.92875 -6.3662499999999795 V6.695000000000007 Q155.92875 19.756249999999994 148.269375 30.23750000000001 Q140.61 40.71875 129.0 43.46000000000001 Z M147.06 1.3737500000000153 Q147.86625 0.5675000000000097 147.86625 -0.5612499999999869 Q147.86625 -1.6899999999999977 147.06 -2.4962500000000034 Q146.0925 -3.302499999999995 144.96375 -3.3831249999999926 Q143.835 -3.4637499999999903 143.02875 -2.4962500000000034 L125.4525 15.080000000000013 L116.42250000000001 6.049999999999997 Q115.61625000000001 5.243750000000006 114.4875 5.163125000000008 Q113.35875 5.08250000000001 112.5525 5.888750000000002 Q111.74625 6.695000000000007 111.74625 7.823750000000018 Q111.74625 8.952500000000015 112.5525 9.75875000000002 L121.26 18.627500000000026 Q122.22749999999999 19.433750000000003 123.275625 19.917500000000018 Q124.32374999999999 20.401250000000005 125.61375000000001 20.401250000000005 Q126.74249999999999 20.401250000000005 127.87125 19.917500000000018 Q129.0 19.433750000000003 129.80625 18.627500000000026 L147.06 1.3737500000000153 Z M38.05500000000001 -70.86625 H77.4 H116.74500000000002 H38.05500000000001 Z"/></g><g id="Medium-L" transform="matrix(1 0 0 1 1674.31 1556)"><path d="M39.18375 3.6312499999999943 Q37.0875 3.6312499999999943 35.555625 2.0993750000000233 Q34.02375 0.5675000000000097 34.02375 -1.528749999999988 V-46.5175 Q34.02375 -48.613749999999996 35.555625 -50.145624999999995 Q37.0875 -51.677499999999995 39.18375 -51.677499999999995 Q41.28 -51.677499999999995 42.811875 -50.145624999999995 Q44.34375 -48.613749999999996 44.34375 -46.5175 V-1.528749999999988 Q44.34375 0.5675000000000097 42.811875 2.0993750000000233 Q41.28 3.6312499999999943 39.18375 3.6312499999999943 Z M78.045 3.6312499999999943 Q75.94875 3.6312499999999943 74.4975 2.0993750000000233 Q73.04625 0.5675000000000097 73.04625 -1.528749999999988 V-46.5175 Q73.04625 -48.613749999999996 74.4975 -50.145624999999995 Q75.94875 -51.677499999999995 78.20625 -51.677499999999995 Q80.14125000000001 -51.677499999999995 81.673125 -50.145624999999995 Q83.205 -48.613749999999996 83.205 -46.5175 V-1.528749999999988 Q83.205 0.5675000000000097 81.673125 2.0993750000000233 Q80.14125000000001 3.6312499999999943 78.045 3.6312499999999943 Z M18.705 -60.06249999999999 Q16.28625 -60.06249999999999 14.593125000000002 -61.755624999999995 Q12.9 -63.44875 12.9 -65.86749999999999 Q12.9 -67.1575 13.948125000000001 -69.011875 Q14.996250000000002 -70.86625 16.125 -71.51124999999999 L72.24 -103.43875 Q73.36875 -104.08375 74.73937500000001 -104.486875 Q76.11000000000001 -104.89 77.4 -104.89 Q78.69 -104.89 80.060625 -104.486875 Q81.43125 -104.08375 82.72125 -103.43875 L138.675 -71.51124999999999 Q139.80375 -70.86625 140.851875 -69.011875 Q141.9 -67.1575 141.9 -65.86749999999999 Q141.9 -63.44875 140.206875 -61.755624999999995 Q138.51375000000002 -60.06249999999999 136.095 -60.06249999999999 H18.705 Z M36.12 -70.54374999999999 H118.67999999999999 L77.4 -94.2475 L36.12 -70.54374999999999 Z M18.22125 22.658750000000026 Q15.963750000000001 22.658750000000026 14.431875 21.046250000000015 Q12.9 19.433750000000003 12.9 17.17625000000001 Q12.9 15.080000000000013 14.431875 13.548125000000013 Q15.963750000000001 12.01625 18.22125 12.01625 H93.2025 Q93.36375 14.435000000000002 93.605625 17.015000000000015 Q93.84750000000001 19.595 95.1375 22.658750000000026 H18.22125 Z M110.61749999999999 -24.426249999999982 V-46.5175 Q110.61749999999999 -48.613749999999996 112.06875000000001 -50.145624999999995 Q113.52000000000001 -51.677499999999995 115.61625000000001 -51.677499999999995 Q117.7125 -51.677499999999995 119.083125 -50.306875 Q120.45375000000001 -48.936249999999994 120.615 -47.001249999999985 V-29.424999999999997 L110.61749999999999 -24.426249999999982 Z M129.0 42.97625000000002 Q117.55125000000001 40.07375000000002 110.05312500000001 29.834374999999994 Q102.555 19.595 102.555 6.856250000000003 V-6.688749999999985 Q102.555 -8.14 103.44187500000001 -9.349374999999995 Q104.32875000000001 -10.558750000000003 105.61875 -11.364999999999995 L126.74249999999999 -21.846249999999998 Q127.71000000000001 -22.491249999999994 128.919375 -22.491249999999994 Q130.12875 -22.491249999999994 131.25750000000002 -21.846249999999998 L152.38125 -11.364999999999995 Q153.67125 -10.558750000000003 154.558125 -9.349374999999995 Q155.44500000000002 -8.14 155.44500000000002 -6.688749999999985 V6.856250000000003 Q155.44500000000002 19.595 147.946875 29.834374999999994 Q140.44875 40.07375000000002 129.0 42.97625000000002 Z M146.7375 1.6962500000000205 Q147.54375000000002 0.8900000000000148 147.54375000000002 -0.2387499999999818 Q147.54375000000002 -1.3674999999999926 146.7375 -2.1737499999999983 Q145.77 -2.9799999999999898 144.721875 -3.0606249999999875 Q143.67374999999998 -3.141249999999985 142.8675 -2.1737499999999983 L125.61375000000001 15.080000000000013 L117.0675 6.533750000000012 Q116.10000000000001 5.7275000000000205 115.051875 5.646874999999994 Q114.00375000000001 5.566249999999997 113.1975 6.372500000000002 Q112.22999999999999 7.340000000000018 112.22999999999999 8.388125000000002 Q112.22999999999999 9.436250000000015 113.1975 10.242500000000007 L121.905 19.111250000000013 Q122.71124999999999 19.917500000000018 123.59812500000001 20.320625000000007 Q124.48500000000001 20.723750000000024 125.61375000000001 20.723750000000024 Q126.74249999999999 20.723750000000024 127.62937500000001 20.320625000000007 Q128.51625 19.917500000000018 129.32250000000002 19.111250000000013 L146.7375 1.6962500000000205 Z M36.12 -70.54374999999999 H77.4 H118.67999999999999 H36.12 Z"/></g><g id="Regular-L" transform="matrix(1 0 0 1 1378.56 1556)"><path d="M39.667500000000004 3.3087500000000176 Q37.7325 3.3087500000000176 36.361875000000005 1.9381249999999994 Q34.99125 0.5675000000000097 34.99125 -1.3674999999999926 V-47.32374999999999 Q34.99125 -49.25875 36.361875000000005 -50.62937499999999 Q37.7325 -51.99999999999999 39.667500000000004 -51.99999999999999 Q41.6025 -51.99999999999999 42.973124999999996 -50.62937499999999 Q44.34375 -49.25875 44.34375 -47.32374999999999 V-1.3674999999999926 Q44.34375 0.5675000000000097 42.973124999999996 1.9381249999999994 Q41.6025 3.3087500000000176 39.667500000000004 3.3087500000000176 Z M78.045 3.3087500000000176 Q76.11000000000001 3.3087500000000176 74.82 1.9381249999999994 Q73.53 0.5675000000000097 73.53 -1.3674999999999926 V-47.32374999999999 Q73.53 -49.25875 74.82 -50.62937499999999 Q76.11000000000001 -51.99999999999999 78.20625 -51.99999999999999 Q80.14125000000001 -51.99999999999999 81.43125 -50.62937499999999 Q82.72125 -49.25875 82.72125 -47.32374999999999 V-1.3674999999999926 Q82.72125 0.5675000000000097 81.35062500000001 1.9381249999999994 Q79.98 3.3087500000000176 78.045 3.3087500000000176 Z M18.86625 -61.19125 Q16.77 -61.19125 15.31875 -62.64249999999999 Q13.8675 -64.09375 13.8675 -66.19 Q13.8675 -67.31875 14.67375 -68.77 Q15.48 -70.22125 16.447499999999998 -70.86625 L72.885 -102.955 Q73.85249999999999 -103.43875 75.061875 -103.76124999999999 Q76.27125 -104.08375 77.4 -104.08375 Q78.69 -104.08375 79.81875000000001 -103.76124999999999 Q80.9475 -103.43875 82.07625 -102.955 L138.3525 -70.86625 Q139.32000000000002 -70.22125 140.12625 -68.77 Q140.9325 -67.31875 140.9325 -66.19 Q140.9325 -64.09375 139.48125000000002 -62.64249999999999 Q138.03 -61.19125 135.93375 -61.19125 H18.86625 Z M34.66875 -70.54374999999999 H120.29249999999999 L77.4 -94.8925 L34.66875 -70.54374999999999 Z M18.54375 21.85250000000002 Q16.60875 21.85250000000002 15.238125 20.481875000000002 Q13.8675 19.111250000000013 13.8675 17.17625000000001 Q13.8675 15.241250000000008 15.238125 13.870625000000018 Q16.60875 12.5 18.54375 12.5 H93.525 Q93.84750000000001 14.757500000000007 94.00874999999999 16.93437499999999 Q94.17 19.111250000000013 95.29875 21.85250000000002 H18.54375 Z M110.61749999999999 -23.942499999999995 V-47.32374999999999 Q110.61749999999999 -49.25875 111.90750000000001 -50.62937499999999 Q113.1975 -51.99999999999999 115.29375 -51.99999999999999 Q117.22875 -51.99999999999999 118.51875 -50.62937499999999 Q119.80875 -49.25875 119.80875 -47.32374999999999 V-28.61874999999999 L110.61749999999999 -23.942499999999995 Z M129.0 42.49250000000001 Q117.7125 39.75125 110.37562500000001 29.5925 Q103.03875000000001 19.433750000000003 103.03875000000001 6.856250000000003 V-6.8500000000000085 Q103.03875000000001 -7.978749999999977 103.76437499999999 -9.107499999999987 Q104.49 -10.236249999999998 105.61875 -10.881249999999994 L127.065 -21.685000000000002 Q127.87125 -22.16874999999999 129.0 -22.16874999999999 Q130.12875 -22.16874999999999 131.09625 -21.685000000000002 L152.5425 -10.881249999999994 Q153.67125 -10.236249999999998 154.396875 -9.107499999999987 Q155.1225 -7.978749999999977 155.1225 -6.8500000000000085 V6.856250000000003 Q155.1225 19.433750000000003 147.70499999999998 29.5925 Q140.2875 39.75125 129.0 42.49250000000001 Z M146.57625000000002 1.8575000000000017 Q147.38250000000002 1.0512500000000102 147.38250000000002 -0.07750000000000057 Q147.38250000000002 -1.2062499999999972 146.57625000000002 -2.012500000000003 Q145.60875 -2.8187500000000085 144.56062500000002 -2.8187500000000085 Q143.51250000000002 -2.8187500000000085 142.70625 -2.012500000000003 L125.61375000000001 15.080000000000013 L117.39 6.856250000000003 Q116.58375 6.049999999999997 115.455 5.969374999999999 Q114.32625000000002 5.888750000000002 113.52000000000001 6.695000000000007 Q112.71375000000002 7.662499999999994 112.71375000000002 8.710625000000007 Q112.71375000000002 9.75875000000002 113.52000000000001 10.565000000000012 L122.38875000000002 19.595 Q123.19500000000001 20.24000000000001 123.920625 20.5625 Q124.64625 20.88499999999999 125.61375000000001 20.88499999999999 Q126.58125 20.88499999999999 127.3875 20.5625 Q128.19375 20.24000000000001 128.83875 19.595 L146.57625000000002 1.8575000000000017 Z M34.66875 -70.54374999999999 H77.4 H120.29249999999999 H34.66875 Z"/></g><g id="Light-L" transform="matrix(1 0 0 1 1082.77 1556)"><path d="M42.57 1.6962500000000205 Q40.957499999999996 1.6962500000000205 39.99 0.6481250000000074 Q39.0225 -0.4000000000000057 39.0225 -2.012500000000003 V-50.54874999999999 Q39.0225 -51.99999999999999 40.07062500000001 -53.04812499999999 Q41.11875 -54.09625 42.57 -54.09625 Q44.02125 -54.09625 45.069375 -53.04812499999999 Q46.11750000000001 -51.99999999999999 46.11750000000001 -50.54874999999999 V-2.012500000000003 Q46.11750000000001 -0.4000000000000057 45.069375 0.6481250000000074 Q44.02125 1.6962500000000205 42.57 1.6962500000000205 Z M77.88374999999999 1.6962500000000205 Q76.4325 1.6962500000000205 75.384375 0.6481250000000074 Q74.33625 -0.4000000000000057 74.33625 -2.012500000000003 V-50.54874999999999 Q74.33625 -51.99999999999999 75.384375 -53.04812499999999 Q76.4325 -54.09625 78.045 -54.09625 Q79.33500000000001 -54.09625 80.383125 -53.04812499999999 Q81.43125 -51.99999999999999 81.43125 -50.54874999999999 V-2.012500000000003 Q81.43125 -0.4000000000000057 80.383125 0.6481250000000074 Q79.33500000000001 1.6962500000000205 77.88374999999999 1.6962500000000205 Z M21.93 -64.41624999999999 Q20.64 -64.41624999999999 19.51125 -65.46437499999999 Q18.3825 -66.51249999999999 18.3825 -67.96375 Q18.3825 -68.60874999999999 19.027500000000003 -69.656875 Q19.6725 -70.70499999999998 20.3175 -71.18875 L74.01375 -100.21374999999999 Q74.65875 -100.69749999999999 75.545625 -100.939375 Q76.4325 -101.18124999999999 77.4 -101.18124999999999 Q78.3675 -101.18124999999999 79.254375 -100.939375 Q80.14125000000001 -100.69749999999999 80.9475 -100.21374999999999 L134.48250000000002 -71.18875 Q135.1275 -70.70499999999998 135.7725 -69.656875 Q136.4175 -68.60874999999999 136.4175 -67.96375 Q136.4175 -66.51249999999999 135.28875000000002 -65.46437499999999 Q134.16 -64.41624999999999 132.87 -64.41624999999999 H21.93 Z M35.636250000000004 -71.35 H119.325 L77.4 -94.08624999999999 L35.636250000000004 -71.35 Z M22.09125 18.94999999999999 Q20.478749999999998 18.94999999999999 19.430625000000003 17.901875000000018 Q18.3825 16.85374999999999 18.3825 15.402500000000003 Q18.3825 13.951250000000002 19.430625000000003 12.903125000000003 Q20.478749999999998 11.855000000000018 22.09125 11.855000000000018 H94.65375 Q94.815 13.628749999999997 94.97625000000001 15.321875000000006 Q95.1375 17.015000000000015 95.94375000000001 18.94999999999999 H22.09125 Z M108.68250000000002 -21.523749999999993 V-50.54874999999999 Q108.68250000000002 -51.99999999999999 109.730625 -53.04812499999999 Q110.77875 -54.09625 112.39125000000001 -54.09625 Q113.84249999999999 -54.09625 114.81 -53.04812499999999 Q115.7775 -51.99999999999999 115.7775 -50.54874999999999 V-25.232499999999987 L108.68250000000002 -21.523749999999993 Z M129.0 39.912499999999994 Q118.51875 37.33250000000001 111.82687499999999 28.060625000000016 Q105.135 18.78875000000002 105.135 7.178750000000008 V-5.237499999999997 Q105.135 -6.527500000000003 105.86062500000001 -7.65625 Q106.58624999999999 -8.784999999999982 107.55375000000001 -9.268749999999997 L127.22625000000001 -19.10499999999999 Q127.87125 -19.427499999999995 129.0 -19.427499999999995 Q130.12875 -19.427499999999995 131.09625 -19.10499999999999 L150.44625 -9.268749999999997 Q151.41375000000002 -8.784999999999982 152.22000000000003 -7.65625 Q153.02625 -6.527500000000003 153.02625 -5.237499999999997 V7.178750000000008 Q153.02625 18.78875000000002 146.25375 28.060625000000016 Q139.48125000000002 37.33250000000001 129.0 39.912499999999994 Z M144.8025 1.8575000000000017 Q145.60875 1.2124999999999915 145.60875 0.24500000000000455 Q145.60875 -0.7224999999999824 144.96375 -1.528749999999988 Q144.15750000000003 -2.3349999999999795 143.19 -2.3349999999999795 Q142.2225 -2.3349999999999795 141.5775 -1.528749999999988 L125.29125 14.757500000000007 L117.87375 7.340000000000018 Q117.22875 6.695000000000007 116.26124999999999 6.695000000000007 Q115.29375 6.695000000000007 114.64874999999999 7.340000000000018 Q113.84249999999999 8.146250000000023 113.84249999999999 9.033125000000013 Q113.84249999999999 9.920000000000002 114.64874999999999 10.565000000000012 L122.06625000000001 18.305000000000007 Q122.8725 18.94999999999999 123.59812500000001 19.272500000000008 Q124.32374999999999 19.595 125.29125 19.595 Q126.25874999999999 19.595 126.984375 19.272500000000008 Q127.71000000000001 18.94999999999999 128.355 18.305000000000007 L144.8025 1.8575000000000017 Z M35.636250000000004 -71.35 H77.4 H119.325 H35.636250000000004 Z"/></g><g id="Thin-L" transform="matrix(1 0 0 1 787.282 1556)"><path d="M45.4725 -0.07750000000000057 Q44.34375 -0.07750000000000057 43.698750000000004 -0.7224999999999824 Q43.05375 -1.3674999999999926 43.05375 -2.4962500000000034 V-53.77374999999999 Q43.05375 -54.741249999999994 43.779375 -55.46687499999999 Q44.505 -56.192499999999995 45.63375 -56.192499999999995 Q46.60125 -56.192499999999995 47.24625 -55.46687499999999 Q47.89125 -54.741249999999994 47.89125 -53.77374999999999 V-2.4962500000000034 Q47.89125 -1.3674999999999926 47.165625 -0.7224999999999824 Q46.440000000000005 -0.07750000000000057 45.4725 -0.07750000000000057 Z M77.72250000000001 -0.07750000000000057 Q76.59375 -0.07750000000000057 75.94875 -0.7224999999999824 Q75.30375000000001 -1.3674999999999926 75.30375000000001 -2.4962500000000034 V-53.77374999999999 Q75.30375000000001 -54.741249999999994 76.029375 -55.46687499999999 Q76.75500000000001 -56.192499999999995 77.72250000000001 -56.192499999999995 Q78.69 -56.192499999999995 79.415625 -55.46687499999999 Q80.14125000000001 -54.741249999999994 80.14125000000001 -53.77374999999999 V-2.4962500000000034 Q80.14125000000001 -1.3674999999999926 79.415625 -0.7224999999999824 Q78.69 -0.07750000000000057 77.72250000000001 -0.07750000000000057 Z M24.993750000000002 -67.47999999999999 Q24.34875 -67.47999999999999 23.70375 -68.125 Q23.058750000000003 -68.77 23.058750000000003 -69.57624999999999 Q23.058750000000003 -69.89874999999999 23.461875000000003 -70.62437499999999 Q23.865000000000002 -71.35 24.1875 -71.51124999999999 L75.1425 -97.63374999999999 Q75.465 -97.795 76.11000000000001 -97.95625 Q76.75500000000001 -98.11749999999999 77.4 -98.11749999999999 Q78.045 -98.11749999999999 78.69 -97.95625 Q79.33500000000001 -97.795 79.81875000000001 -97.63374999999999 L130.6125 -71.51124999999999 Q130.935 -71.35 131.33812500000002 -70.62437499999999 Q131.74125 -69.89874999999999 131.74125 -69.57624999999999 Q131.74125 -68.77 131.09625 -68.125 Q130.45125000000002 -67.47999999999999 129.80625 -67.47999999999999 H24.993750000000002 Z M36.765 -72.3175 H118.35750000000002 L77.4 -93.28 L36.765 -72.3175 Z M25.477500000000003 16.20875000000001 Q24.509999999999998 16.20875000000001 23.784375 15.483125000000001 Q23.058750000000003 14.757500000000007 23.058750000000003 13.628749999999997 Q23.058750000000003 12.66125000000001 23.784375 11.935625000000002 Q24.509999999999998 11.210000000000008 25.477500000000003 11.210000000000008 H95.7825 Q95.7825 12.5 95.94375000000001 13.628749999999997 Q96.105 14.757500000000007 96.58875 16.20875000000001 H25.477500000000003 Z M106.90875 -19.26625 V-53.77374999999999 Q106.90875 -54.741249999999994 107.634375 -55.46687499999999 Q108.36000000000001 -56.192499999999995 109.48875000000001 -56.192499999999995 Q110.45625 -56.192499999999995 111.10125000000001 -55.46687499999999 Q111.74625 -54.741249999999994 111.74625 -53.77374999999999 V-21.685000000000002 L106.90875 -19.26625 Z M129.0 37.171250000000015 Q119.48625 34.91375000000002 113.35875 26.448125000000005 Q107.23125 17.982500000000016 107.23125 7.501250000000013 V-3.7862499999999955 Q107.23125 -4.914999999999992 107.95687500000001 -6.043750000000003 Q108.68250000000002 -7.172499999999985 109.65 -7.65625 L127.22625000000001 -16.52499999999999 Q127.87125 -16.847499999999997 129.0 -16.847499999999997 Q130.12875 -16.847499999999997 131.09625 -16.52499999999999 L148.51125 -7.65625 Q149.3175 -7.172499999999985 150.12375 -6.043750000000003 Q150.93 -4.914999999999992 150.93 -3.7862499999999955 V7.501250000000013 Q150.93 17.982500000000016 144.721875 26.448125000000005 Q138.51375000000002 34.91375000000002 129.0 37.171250000000015 Z M143.35125000000002 1.6962500000000205 Q143.835 1.2124999999999915 143.835 0.40625 Q143.835 -0.4000000000000057 143.35125000000002 -1.2062499999999972 Q142.70625 -1.8512499999999932 141.9 -1.8512499999999932 Q141.09375 -1.8512499999999932 140.44875 -1.2062499999999972 L124.80750000000002 14.435000000000002 L118.51875 7.984999999999999 Q117.87375 7.340000000000018 117.0675 7.340000000000018 Q116.26124999999999 7.340000000000018 115.61625000000001 7.823750000000018 Q114.97125 8.63000000000001 114.97125 9.355625000000018 Q114.97125 10.081249999999997 115.61625000000001 10.565000000000012 L121.905 17.015000000000015 Q122.55 17.659999999999997 123.275625 17.982500000000016 Q124.00125000000001 18.305000000000007 124.96875 18.305000000000007 Q125.93625 18.305000000000007 126.661875 17.982500000000016 Q127.3875 17.659999999999997 128.0325 17.015000000000015 L143.35125000000002 1.6962500000000205 Z M36.765 -72.3175 H77.4 H118.35750000000002 H36.765 Z"/></g><g id="Ultralight-L" transform="matrix(1 0 0 1 491.205 1556)"><path d="M47.24625 -1.0449999999999875 Q46.440000000000005 -1.0449999999999875 45.956250000000004 -1.528749999999988 Q45.4725 -2.012500000000003 45.4725 -2.9799999999999898 V-55.86999999999999 Q45.4725 -56.515 45.956250000000004 -56.998749999999994 Q46.440000000000005 -57.48249999999999 47.4075 -57.48249999999999 Q48.0525 -57.48249999999999 48.53625 -56.998749999999994 Q49.019999999999996 -56.515 49.019999999999996 -55.86999999999999 V-2.9799999999999898 Q49.019999999999996 -2.012500000000003 48.53625 -1.528749999999988 Q48.0525 -1.0449999999999875 47.24625 -1.0449999999999875 Z M77.56125 -1.0449999999999875 Q76.75500000000001 -1.0449999999999875 76.27125 -1.528749999999988 Q75.78750000000001 -2.012500000000003 75.78750000000001 -2.9799999999999898 V-55.86999999999999 Q75.78750000000001 -56.515 76.27125 -56.998749999999994 Q76.75500000000001 -57.48249999999999 77.72250000000001 -57.48249999999999 Q78.3675 -57.48249999999999 78.85125 -56.998749999999994 Q79.33500000000001 -56.515 79.33500000000001 -55.86999999999999 V-2.9799999999999898 Q79.33500000000001 -2.012500000000003 78.85125 -1.528749999999988 Q78.3675 -1.0449999999999875 77.56125 -1.0449999999999875 Z M26.92875 -69.41499999999999 Q26.60625 -69.41499999999999 26.203125 -69.818125 Q25.8 -70.22125 25.8 -70.54374999999999 Q25.8 -70.70499999999998 26.1225 -71.18875 Q26.444999999999997 -71.6725 26.60625 -71.83375 L75.94875 -96.1825 Q75.94875 -96.1825 76.4325 -96.34375 Q76.91625 -96.505 77.4 -96.505 Q77.88374999999999 -96.505 78.3675 -96.34375 Q78.85125 -96.1825 79.17375 -96.1825 L128.19375 -71.83375 Q128.355 -71.6725 128.6775 -71.18875 Q129.0 -70.70499999999998 129.0 -70.70499999999998 Q129.0 -70.22125 128.596875 -69.818125 Q128.19375 -69.41499999999999 128.0325 -69.41499999999999 H26.92875 Z M37.41 -72.96249999999999 H117.87375 L77.4 -92.79624999999999 L37.41 -72.96249999999999 Z M27.735 14.435000000000002 Q26.767500000000002 14.435000000000002 26.28375 13.951250000000002 Q25.8 13.467500000000015 25.8 12.5 Q25.8 11.855000000000018 26.28375 11.371250000000018 Q26.767500000000002 10.887500000000003 27.735 10.887500000000003 H96.4275 Q96.4275 11.855000000000018 96.58875 12.66125000000001 Q96.75 13.467500000000015 97.0725 14.435000000000002 H27.735 Z M105.77999999999999 -17.814999999999998 V-55.86999999999999 Q105.77999999999999 -56.515 106.26375000000002 -56.998749999999994 Q106.7475 -57.48249999999999 107.715 -57.48249999999999 Q108.36000000000001 -57.48249999999999 108.84375 -56.998749999999994 Q109.3275 -56.515 109.3275 -55.86999999999999 V-19.749999999999986 L105.77999999999999 -17.814999999999998 Z M129.0 35.55875000000003 Q119.97000000000001 33.462500000000006 114.24562499999999 25.480625000000003 Q108.52125 17.49875 108.52125 7.501250000000013 V-2.9799999999999898 Q108.52125 -3.9474999999999767 109.246875 -5.156874999999985 Q109.97250000000001 -6.3662499999999795 110.94 -6.8500000000000085 L127.3875 -14.912499999999994 Q127.87125 -15.396249999999995 129.0 -15.396249999999995 Q130.12875 -15.396249999999995 131.09625 -14.912499999999994 L147.22125 -6.8500000000000085 Q148.18875000000003 -6.3662499999999795 148.995 -5.156874999999985 Q149.80125 -3.9474999999999767 149.80125 -2.9799999999999898 V7.501250000000013 Q149.80125 17.49875 143.915625 25.480625000000003 Q138.03 33.462500000000006 129.0 35.55875000000003 Z M142.38375 1.6962500000000205 Q142.70625 1.2124999999999915 142.786875 0.48687500000001194 Q142.8675 -0.2387499999999818 142.38375 -0.883749999999992 Q141.73875 -1.528749999999988 141.013125 -1.528749999999988 Q140.2875 -1.528749999999988 139.965 -0.883749999999992 L124.64625 14.112499999999997 L118.84125 8.307500000000005 Q118.19624999999999 7.823750000000018 117.470625 7.7431250000000205 Q116.74500000000002 7.662499999999994 116.42250000000001 7.984999999999999 Q115.61625000000001 8.791250000000005 115.61625000000001 9.436250000000015 Q115.61625000000001 10.081249999999997 116.42250000000001 10.565000000000012 L121.74375 16.20875000000001 Q122.38875000000002 16.692500000000024 123.114375 17.095625000000013 Q123.84 17.49875 124.80750000000002 17.49875 Q125.775 17.49875 126.50062500000001 17.095625000000013 Q127.22625000000001 16.692500000000024 127.71000000000001 16.20875000000001 L142.38375 1.6962500000000205 Z M37.41 -72.96249999999999 H77.56125 H117.87375 H37.41 Z"/></g><g id="Bold-M" transform="matrix(1 0 0 1 2281.8 1126)"><path d="M29.125 -8.85499999999999 Q26.375 -8.85499999999999 24.375 -10.85499999999999 Q22.375 -12.85499999999999 22.375 -15.60499999999999 V-38.22999999999999 Q22.375 -40.85499999999999 24.375 -42.78999999999999 Q26.375 -44.72999999999999 29.125 -44.72999999999999 Q31.75 -44.72999999999999 33.690000000000005 -42.78999999999999 Q35.625 -40.85499999999999 35.625 -38.22999999999999 V-15.60499999999999 Q35.625 -12.85499999999999 33.690000000000005 -10.85499999999999 Q31.75 -8.85499999999999 29.125 -8.85499999999999 Z M60.125 -8.85499999999999 Q57.375 -8.85499999999999 55.44 -10.85499999999999 Q53.5 -12.85499999999999 53.5 -15.60499999999999 V-38.22999999999999 Q53.5 -40.85499999999999 55.44 -42.78999999999999 Q57.375 -44.72999999999999 60.125 -44.72999999999999 Q62.75 -44.72999999999999 64.69 -42.78999999999999 Q66.625 -40.85499999999999 66.625 -38.22999999999999 V-15.60499999999999 Q66.625 -12.85499999999999 64.69 -10.85499999999999 Q62.75 -8.85499999999999 60.125 -8.85499999999999 Z M16.25 -50.35499999999999 Q12.625 -50.35499999999999 9.94 -52.97999999999999 Q7.25 -55.60499999999999 7.25 -59.22999999999999 Q7.25 -61.97999999999999 9.125 -65.16999999999999 Q11.0 -68.35499999999999 13.5 -69.60499999999999 L53.25 -89.47999999999999 Q55.0 -90.22999999999999 56.69 -90.60499999999999 Q58.375 -90.97999999999999 60.0 -90.97999999999999 Q61.75 -90.97999999999999 63.440000000000005 -90.60499999999999 Q65.125 -90.22999999999999 66.875 -89.47999999999999 L106.5 -69.60499999999999 Q109.0 -68.35499999999999 110.875 -65.29499999999999 Q112.75 -62.22999999999999 112.75 -59.22999999999999 Q112.75 -55.60499999999999 110.125 -52.97999999999999 Q107.5 -50.35499999999999 103.75 -50.35499999999999 H16.25 Z M39.0 -65.47999999999999 H81.125 L60.0 -75.72999999999999 L39.0 -65.47999999999999 Z M14.875 11.77000000000001 Q11.75 11.77000000000001 9.5 9.52000000000001 Q7.25 7.27000000000001 7.25 4.14500000000001 Q7.25 1.1450000000000102 9.5 -1.1049999999999898 Q11.75 -3.3549999999999898 14.875 -3.3549999999999898 H68.625 Q68.75 0.020000000000010232 69.375 4.02000000000001 Q70.0 8.02000000000001 71.375 11.77000000000001 H14.875 Z M84.375 -30.35499999999999 V-38.22999999999999 Q84.375 -40.85499999999999 86.31500000000001 -42.78999999999999 Q88.25 -44.72999999999999 91.0 -44.72999999999999 Q93.125 -44.72999999999999 94.875 -43.41499999999999 Q96.625 -42.10499999999999 97.25 -40.35499999999999 V-36.85499999999999 L84.375 -30.35499999999999 Z M100.0 27.14500000000001 Q90.5 24.77000000000001 84.315 16.210000000000008 Q78.125 7.64500000000001 78.125 -2.8549999999999898 V-12.10499999999999 Q78.125 -14.22999999999999 79.25 -15.97999999999999 Q80.375 -17.72999999999999 82.25 -18.72999999999999 L96.75 -25.97999999999999 Q98.5 -26.85499999999999 100.06500000000001 -26.85499999999999 Q101.625 -26.85499999999999 103.375 -25.97999999999999 L117.75 -18.72999999999999 Q119.75 -17.72999999999999 120.875 -15.97999999999999 Q122.0 -14.22999999999999 122.0 -12.10499999999999 V-2.8549999999999898 Q122.0 7.64500000000001 115.815 16.210000000000008 Q109.625 24.77000000000001 100.0 27.14500000000001 Z M112.5 -6.22999999999999 Q113.375 -7.10499999999999 113.375 -8.414999999999992 Q113.375 -9.72999999999999 112.5 -10.60499999999999 Q111.625 -11.47999999999999 110.31 -11.539999999999992 Q109.0 -11.60499999999999 108.125 -10.60499999999999 L96.25 1.1450000000000102 L91.0 -4.10499999999999 Q90.125 -4.97999999999999 88.875 -5.039999999999992 Q87.625 -5.10499999999999 86.75 -4.22999999999999 Q85.875 -3.3549999999999898 85.875 -2.0449999999999875 Q85.875 -0.7299999999999898 86.75 0.14500000000001023 L91.0 4.64500000000001 Q92.25 5.77000000000001 93.56 6.27000000000001 Q94.875 6.77000000000001 96.25 6.77000000000001 Q97.75 6.77000000000001 99.06 6.27000000000001 Q100.375 5.77000000000001 101.5 4.64500000000001 L112.5 -6.22999999999999 Z M39.0 -65.47999999999999 H60.0 H81.125 H39.0 Z"/></g><g id="Semibold-M" transform="matrix(1 0 0 1 1985.97 1126)"><path d="M29.875 -9.47999999999999 Q27.5 -9.47999999999999 25.75 -11.169999999999987 Q24.0 -12.85499999999999 24.0 -15.22999999999999 V-39.60499999999999 Q24.0 -41.97999999999999 25.75 -43.669999999999995 Q27.5 -45.35499999999999 29.875 -45.35499999999999 Q32.25 -45.35499999999999 33.935 -43.669999999999995 Q35.625 -41.97999999999999 35.625 -39.60499999999999 V-15.22999999999999 Q35.625 -12.85499999999999 33.935 -11.169999999999987 Q32.25 -9.47999999999999 29.875 -9.47999999999999 Z M60.125 -9.47999999999999 Q57.75 -9.47999999999999 56.065 -11.169999999999987 Q54.375 -12.85499999999999 54.375 -15.22999999999999 V-39.60499999999999 Q54.375 -41.97999999999999 56.065 -43.669999999999995 Q57.75 -45.35499999999999 60.125 -45.35499999999999 Q62.375 -45.35499999999999 64.06 -43.669999999999995 Q65.75 -41.97999999999999 65.75 -39.60499999999999 V-15.22999999999999 Q65.75 -12.85499999999999 64.06 -11.169999999999987 Q62.375 -9.47999999999999 60.125 -9.47999999999999 Z M16.625 -52.60499999999999 Q13.5 -52.60499999999999 11.315 -54.72999999999999 Q9.125 -56.85499999999999 9.125 -59.97999999999999 Q9.125 -62.22999999999999 10.565 -64.66999999999999 Q12.0 -67.10499999999999 14.0 -68.22999999999999 L54.375 -88.22999999999999 Q55.75 -88.97999999999999 57.190000000000005 -89.28999999999999 Q58.625 -89.60499999999999 60.0 -89.60499999999999 Q61.375 -89.60499999999999 62.809999999999995 -89.28999999999999 Q64.25 -88.97999999999999 65.625 -88.22999999999999 L106.0 -68.22999999999999 Q108.0 -67.10499999999999 109.44000000000001 -64.72999999999999 Q110.875 -62.35499999999999 110.875 -59.97999999999999 Q110.875 -56.85499999999999 108.69 -54.72999999999999 Q106.5 -52.60499999999999 103.375 -52.60499999999999 H16.625 Z M36.125 -65.22999999999999 H83.875 L60.0 -76.85499999999999 L36.125 -65.22999999999999 Z M15.375 10.39500000000001 Q12.875 10.39500000000001 11.0 8.52000000000001 Q9.125 6.64500000000001 9.125 4.02000000000001 Q9.125 1.5200000000000102 11.0 -0.35499999999998977 Q12.875 -2.2299999999999898 15.375 -2.2299999999999898 H69.375 Q69.5 0.7700000000000102 69.94 3.9550000000000125 Q70.375 7.14500000000001 71.5 10.39500000000001 H15.375 Z M84.375 -29.47999999999999 V-39.60499999999999 Q84.375 -41.97999999999999 86.06 -43.669999999999995 Q87.75 -45.35499999999999 90.125 -45.35499999999999 Q92.25 -45.35499999999999 93.81 -43.97999999999999 Q95.375 -42.60499999999999 95.75 -40.72999999999999 V-35.22999999999999 L84.375 -29.47999999999999 Z M100.0 26.39500000000001 Q90.75 24.02000000000001 84.75 15.77000000000001 Q78.75 7.52000000000001 78.75 -2.7299999999999898 V-12.35499999999999 Q78.75 -14.10499999999999 79.69 -15.539999999999992 Q80.625 -16.97999999999999 82.25 -17.85499999999999 L97.25 -25.47999999999999 Q98.625 -26.10499999999999 100.0 -26.10499999999999 Q101.375 -26.10499999999999 102.75 -25.47999999999999 L117.75 -17.85499999999999 Q119.375 -16.97999999999999 120.31 -15.539999999999992 Q121.25 -14.10499999999999 121.25 -12.35499999999999 V-2.7299999999999898 Q121.25 7.52000000000001 115.25 15.77000000000001 Q109.25 24.02000000000001 100.0 26.39500000000001 Z M112.0 -5.85499999999999 Q112.875 -6.72999999999999 112.875 -7.97999999999999 Q112.875 -9.22999999999999 112.0 -10.10499999999999 Q111.125 -10.97999999999999 109.815 -10.97999999999999 Q108.5 -10.97999999999999 107.625 -10.10499999999999 L96.25 1.1450000000000102 L91.625 -3.4799999999999898 Q90.75 -4.35499999999999 89.5 -4.35499999999999 Q88.25 -4.35499999999999 87.375 -3.4799999999999898 Q86.5 -2.6049999999999898 86.5 -1.289999999999992 Q86.5 0.020000000000010232 87.375 0.8950000000000102 L91.875 5.52000000000001 Q92.875 6.39500000000001 94.0 6.835000000000008 Q95.125 7.27000000000001 96.25 7.27000000000001 Q97.5 7.27000000000001 98.625 6.835000000000008 Q99.75 6.39500000000001 100.625 5.52000000000001 L112.0 -5.85499999999999 Z M36.125 -65.22999999999999 H60.0 H83.875 H36.125 Z"/></g><g id="Medium-M" transform="matrix(1 0 0 1 1689.91 1126)"><path d="M30.5 -9.85499999999999 Q28.375 -9.85499999999999 26.875 -11.419999999999987 Q25.375 -12.97999999999999 25.375 -15.10499999999999 V-40.60499999999999 Q25.375 -42.72999999999999 26.875 -44.22999999999999 Q28.375 -45.72999999999999 30.5 -45.72999999999999 Q32.625 -45.72999999999999 34.125 -44.22999999999999 Q35.625 -42.72999999999999 35.625 -40.60499999999999 V-15.10499999999999 Q35.625 -12.97999999999999 34.125 -11.419999999999987 Q32.625 -9.85499999999999 30.5 -9.85499999999999 Z M60.125 -9.85499999999999 Q58.0 -9.85499999999999 56.44 -11.419999999999987 Q54.875 -12.97999999999999 54.875 -15.10499999999999 V-40.60499999999999 Q54.875 -42.72999999999999 56.44 -44.22999999999999 Q58.0 -45.72999999999999 60.125 -45.72999999999999 Q62.125 -45.72999999999999 63.69 -44.22999999999999 Q65.25 -42.72999999999999 65.25 -40.60499999999999 V-15.10499999999999 Q65.25 -12.97999999999999 63.69 -11.419999999999987 Q62.125 -9.85499999999999 60.125 -9.85499999999999 Z M16.875 -54.22999999999999 Q14.125 -54.22999999999999 12.315000000000001 -56.10499999999999 Q10.5 -57.97999999999999 10.5 -60.60499999999999 Q10.5 -62.47999999999999 11.625 -64.35499999999999 Q12.75 -66.22999999999999 14.5 -67.10499999999999 L55.125 -87.47999999999999 Q56.375 -88.10499999999999 57.56 -88.29499999999999 Q58.75 -88.47999999999999 60.0 -88.47999999999999 Q61.25 -88.47999999999999 62.44 -88.29499999999999 Q63.625 -88.10499999999999 64.875 -87.47999999999999 L105.5 -67.10499999999999 Q107.25 -66.22999999999999 108.375 -64.35499999999999 Q109.5 -62.47999999999999 109.5 -60.60499999999999 Q109.5 -57.97999999999999 107.69 -56.10499999999999 Q105.875 -54.22999999999999 103.125 -54.22999999999999 H16.875 Z M34.125 -64.97999999999999 H85.875 L60.0 -77.72999999999999 L34.125 -64.97999999999999 Z M15.875 9.27000000000001 Q13.625 9.27000000000001 12.065 7.7050000000000125 Q10.5 6.14500000000001 10.5 3.8950000000000102 Q10.5 1.7700000000000102 12.065 0.14500000000001023 Q13.625 -1.4799999999999898 15.875 -1.4799999999999898 H69.875 Q70.0 1.3950000000000102 70.375 3.9550000000000125 Q70.75 6.52000000000001 71.75 9.27000000000001 H15.875 Z M84.375 -28.97999999999999 V-40.60499999999999 Q84.375 -42.72999999999999 85.875 -44.22999999999999 Q87.375 -45.72999999999999 89.5 -45.72999999999999 Q91.5 -45.72999999999999 93.0 -44.41999999999999 Q94.5 -43.10499999999999 94.625 -41.10499999999999 V-33.97999999999999 L84.375 -28.97999999999999 Z M100.0 25.77000000000001 Q91.0 23.52000000000001 85.125 15.39500000000001 Q79.25 7.27000000000001 79.25 -2.6049999999999898 V-12.47999999999999 Q79.25 -13.97999999999999 80.0 -15.22999999999999 Q80.75 -16.47999999999999 82.125 -17.22999999999999 L97.625 -24.97999999999999 Q98.875 -25.60499999999999 100.0 -25.60499999999999 Q101.125 -25.60499999999999 102.375 -24.97999999999999 L117.875 -17.22999999999999 Q119.25 -16.47999999999999 120.0 -15.22999999999999 Q120.75 -13.97999999999999 120.75 -12.47999999999999 V-2.6049999999999898 Q120.75 7.27000000000001 114.875 15.39500000000001 Q109.0 23.52000000000001 100.0 25.77000000000001 Z M111.625 -5.47999999999999 Q112.5 -6.35499999999999 112.5 -7.60499999999999 Q112.5 -8.85499999999999 111.625 -9.72999999999999 Q110.75 -10.60499999999999 109.5 -10.60499999999999 Q108.25 -10.60499999999999 107.375 -9.72999999999999 L96.375 1.1450000000000102 L92.125 -2.9799999999999898 Q91.25 -3.8549999999999898 90.0 -3.8549999999999898 Q88.75 -3.8549999999999898 87.875 -2.9799999999999898 Q87.0 -2.1049999999999898 87.0 -0.7949999999999875 Q87.0 0.5200000000000102 87.875 1.3950000000000102 L92.625 6.02000000000001 Q93.375 6.89500000000001 94.315 7.27000000000001 Q95.25 7.64500000000001 96.375 7.64500000000001 Q97.375 7.64500000000001 98.315 7.27000000000001 Q99.25 6.89500000000001 100.125 6.02000000000001 L111.625 -5.47999999999999 Z M34.125 -64.97999999999999 H60.0 H85.875 H34.125 Z"/></g><g id="Regular-M" transform="matrix(1 0 0 1 1394.06 1126)"><path d="M31.0 -10.22999999999999 Q29.0 -10.22999999999999 27.625 -11.60499999999999 Q26.25 -12.97999999999999 26.25 -14.97999999999999 V-41.47999999999999 Q26.25 -43.35499999999999 27.625 -44.72999999999999 Q29.0 -46.10499999999999 31.0 -46.10499999999999 Q32.875 -46.10499999999999 34.25 -44.72999999999999 Q35.625 -43.35499999999999 35.625 -41.47999999999999 V-14.97999999999999 Q35.625 -12.97999999999999 34.25 -11.60499999999999 Q32.875 -10.22999999999999 31.0 -10.22999999999999 Z M60.125 -10.22999999999999 Q58.125 -10.22999999999999 56.75 -11.60499999999999 Q55.375 -12.97999999999999 55.375 -14.97999999999999 V-41.47999999999999 Q55.375 -43.35499999999999 56.75 -44.72999999999999 Q58.125 -46.10499999999999 60.125 -46.10499999999999 Q62.0 -46.10499999999999 63.375 -44.72999999999999 Q64.75 -43.35499999999999 64.75 -41.47999999999999 V-14.97999999999999 Q64.75 -12.97999999999999 63.375 -11.60499999999999 Q62.0 -10.22999999999999 60.125 -10.22999999999999 Z M17.0 -55.47999999999999 Q14.75 -55.47999999999999 13.125 -57.10499999999999 Q11.5 -58.72999999999999 11.5 -60.97999999999999 Q11.5 -62.60499999999999 12.375 -64.10499999999999 Q13.25 -65.60499999999999 14.75 -66.35499999999999 L55.875 -86.85499999999999 Q56.875 -87.35499999999999 57.94 -87.60499999999999 Q59.0 -87.85499999999999 60.0 -87.85499999999999 Q61.125 -87.85499999999999 62.190000000000005 -87.60499999999999 Q63.25 -87.35499999999999 64.25 -86.85499999999999 L105.25 -66.35499999999999 Q106.75 -65.60499999999999 107.625 -64.10499999999999 Q108.5 -62.60499999999999 108.5 -60.97999999999999 Q108.5 -58.72999999999999 106.94000000000001 -57.10499999999999 Q105.375 -55.47999999999999 103.0 -55.47999999999999 H17.0 Z M32.625 -64.85499999999999 H87.5 L60.0 -78.35499999999999 L32.625 -64.85499999999999 Z M16.25 8.52000000000001 Q14.25 8.52000000000001 12.875 7.14500000000001 Q11.5 5.77000000000001 11.5 3.7700000000000102 Q11.5 1.8950000000000102 12.875 0.5200000000000102 Q14.25 -0.8549999999999898 16.25 -0.8549999999999898 H70.375 Q70.5 1.7700000000000102 70.815 3.8950000000000102 Q71.125 6.02000000000001 71.875 8.52000000000001 H16.25 Z M84.375 -28.47999999999999 V-41.47999999999999 Q84.375 -43.35499999999999 85.75 -44.72999999999999 Q87.125 -46.10499999999999 89.125 -46.10499999999999 Q91.0 -46.10499999999999 92.375 -44.72999999999999 Q93.75 -43.35499999999999 93.75 -41.47999999999999 V-33.22999999999999 L84.375 -28.47999999999999 Z M100.0 25.27000000000001 Q91.25 23.14500000000001 85.435 15.14500000000001 Q79.625 7.14500000000001 79.625 -2.6049999999999898 V-12.72999999999999 Q79.625 -13.97999999999999 80.31 -15.10499999999999 Q81.0 -16.22999999999999 82.125 -16.85499999999999 L98.0 -24.72999999999999 Q99.0 -25.35499999999999 100.06500000000001 -25.35499999999999 Q101.125 -25.35499999999999 102.125 -24.72999999999999 L117.875 -16.85499999999999 Q119.125 -16.22999999999999 119.815 -15.10499999999999 Q120.5 -13.97999999999999 120.5 -12.72999999999999 V-2.6049999999999898 Q120.5 7.14500000000001 114.69 15.14500000000001 Q108.875 23.14500000000001 100.0 25.27000000000001 Z M111.5 -5.22999999999999 Q112.375 -6.10499999999999 112.375 -7.35499999999999 Q112.375 -8.60499999999999 111.5 -9.47999999999999 Q110.625 -10.35499999999999 109.375 -10.35499999999999 Q108.125 -10.35499999999999 107.25 -9.47999999999999 L96.375 1.1450000000000102 L92.625 -2.6049999999999898 Q91.75 -3.4799999999999898 90.5 -3.4799999999999898 Q89.25 -3.4799999999999898 88.375 -2.6049999999999898 Q87.5 -1.7299999999999898 87.5 -0.47999999999998977 Q87.5 0.7700000000000102 88.375 1.6450000000000102 L93.125 6.52000000000001 Q93.875 7.14500000000001 94.69 7.52000000000001 Q95.5 7.89500000000001 96.375 7.89500000000001 Q97.375 7.89500000000001 98.19000000000001 7.52000000000001 Q99.0 7.14500000000001 99.625 6.52000000000001 L111.5 -5.22999999999999 Z M32.625 -64.85499999999999 H60.0 H87.5 H32.625 Z"/></g><g id="Light-M" transform="matrix(1 0 0 1 1098.18 1126)"><path d="M33.25 -10.22999999999999 Q31.875 -10.22999999999999 30.81 -11.22999999999999 Q29.75 -12.22999999999999 29.75 -13.72999999999999 V-44.97999999999999 Q29.75 -46.35499999999999 30.81 -47.419999999999995 Q31.875 -48.47999999999999 33.25 -48.47999999999999 Q34.75 -48.47999999999999 35.75 -47.419999999999995 Q36.75 -46.35499999999999 36.75 -44.97999999999999 V-13.72999999999999 Q36.75 -12.22999999999999 35.75 -11.22999999999999 Q34.75 -10.22999999999999 33.25 -10.22999999999999 Z M60.0 -10.22999999999999 Q58.625 -10.22999999999999 57.565 -11.22999999999999 Q56.5 -12.22999999999999 56.5 -13.72999999999999 V-44.97999999999999 Q56.5 -46.35499999999999 57.565 -47.419999999999995 Q58.625 -48.47999999999999 60.125 -48.47999999999999 Q61.5 -48.47999999999999 62.5 -47.419999999999995 Q63.5 -46.35499999999999 63.5 -44.97999999999999 V-13.72999999999999 Q63.5 -12.22999999999999 62.5 -11.22999999999999 Q61.5 -10.22999999999999 60.0 -10.22999999999999 Z M18.875 -57.97999999999999 Q17.25 -57.97999999999999 16.125 -59.04499999999999 Q15.0 -60.10499999999999 15.0 -61.72999999999999 Q15.0 -62.85499999999999 15.69 -63.97999999999999 Q16.375 -65.10499999999999 17.375 -65.60499999999999 L56.875 -84.85499999999999 Q57.625 -85.22999999999999 58.440000000000005 -85.41999999999999 Q59.25 -85.60499999999999 60.0 -85.60499999999999 Q60.75 -85.60499999999999 61.559999999999995 -85.41999999999999 Q62.375 -85.22999999999999 63.125 -84.85499999999999 L102.625 -65.60499999999999 Q103.625 -65.10499999999999 104.315 -63.97999999999999 Q105.0 -62.85499999999999 105.0 -61.72999999999999 Q105.0 -60.10499999999999 103.875 -59.04499999999999 Q102.75 -57.97999999999999 101.125 -57.97999999999999 H18.875 Z M31.875 -64.97999999999999 H88.25 L60.0 -78.47999999999999 L31.875 -64.97999999999999 Z M18.625 6.27000000000001 Q17.125 6.27000000000001 16.065 5.2050000000000125 Q15.0 4.14500000000001 15.0 2.7700000000000102 Q15.0 1.2700000000000102 16.065 0.27000000000001023 Q17.125 -0.7299999999999898 18.625 -0.7299999999999898 H71.75 Q71.875 1.2700000000000102 72.125 2.835000000000008 Q72.375 4.39500000000001 72.875 6.27000000000001 H18.625 Z M83.25 -25.97999999999999 V-44.97999999999999 Q83.25 -46.35499999999999 84.25 -47.419999999999995 Q85.25 -48.47999999999999 86.75 -48.47999999999999 Q88.125 -48.47999999999999 89.185 -47.419999999999995 Q90.25 -46.35499999999999 90.25 -44.97999999999999 V-29.47999999999999 L83.25 -25.97999999999999 Z M100.0 23.27000000000001 Q91.875 21.27000000000001 86.56 13.955000000000013 Q81.25 6.64500000000001 81.25 -2.3549999999999898 V-11.72999999999999 Q81.25 -12.85499999999999 81.875 -13.85499999999999 Q82.5 -14.85499999999999 83.5 -15.47999999999999 L98.125 -22.72999999999999 Q99.0 -23.22999999999999 100.0 -23.22999999999999 Q101.0 -23.22999999999999 101.875 -22.72999999999999 L116.5 -15.47999999999999 Q117.5 -14.85499999999999 118.19000000000001 -13.85499999999999 Q118.875 -12.85499999999999 118.875 -11.72999999999999 V-2.3549999999999898 Q118.875 6.64500000000001 113.5 13.955000000000013 Q108.125 21.27000000000001 100.0 23.27000000000001 Z M110.75 -5.72999999999999 Q111.5 -6.35499999999999 111.5 -7.35499999999999 Q111.5 -8.35499999999999 110.75 -9.10499999999999 Q110.125 -9.85499999999999 109.125 -9.794999999999987 Q108.125 -9.72999999999999 107.375 -9.10499999999999 L96.375 1.8950000000000102 L92.375 -2.1049999999999898 Q91.625 -2.8549999999999898 90.625 -2.8549999999999898 Q89.625 -2.8549999999999898 89.0 -2.1049999999999898 Q88.25 -1.3549999999999898 88.25 -0.4199999999999875 Q88.25 0.5200000000000102 89.0 1.2700000000000102 L93.375 5.77000000000001 Q94.0 6.39500000000001 94.75 6.7050000000000125 Q95.5 7.02000000000001 96.375 7.02000000000001 Q97.25 7.02000000000001 98.0 6.7050000000000125 Q98.75 6.39500000000001 99.375 5.77000000000001 L110.75 -5.72999999999999 Z M31.875 -64.97999999999999 H60.0 H88.25 H31.875 Z"/></g><g id="Thin-M" transform="matrix(1 0 0 1 802.565 1126)"><path d="M35.625 -10.22999999999999 Q34.625 -10.22999999999999 33.94 -10.914999999999992 Q33.25 -11.60499999999999 33.25 -12.60499999999999 V-48.47999999999999 Q33.25 -49.35499999999999 33.94 -50.04499999999999 Q34.625 -50.72999999999999 35.625 -50.72999999999999 Q36.5 -50.72999999999999 37.19 -50.04499999999999 Q37.875 -49.35499999999999 37.875 -48.47999999999999 V-12.60499999999999 Q37.875 -11.60499999999999 37.19 -10.914999999999992 Q36.5 -10.22999999999999 35.625 -10.22999999999999 Z M60.0 -10.22999999999999 Q59.125 -10.22999999999999 58.440000000000005 -10.914999999999992 Q57.75 -11.60499999999999 57.75 -12.60499999999999 V-48.47999999999999 Q57.75 -49.35499999999999 58.440000000000005 -50.04499999999999 Q59.125 -50.72999999999999 60.125 -50.72999999999999 Q61.0 -50.72999999999999 61.69 -50.04499999999999 Q62.375 -49.35499999999999 62.375 -48.47999999999999 V-12.60499999999999 Q62.375 -11.60499999999999 61.69 -10.914999999999992 Q61.0 -10.22999999999999 60.0 -10.22999999999999 Z M20.75 -60.35499999999999 Q19.875 -60.35499999999999 19.25 -60.97999999999999 Q18.625 -61.60499999999999 18.625 -62.47999999999999 Q18.625 -63.22999999999999 19.06 -63.91999999999999 Q19.5 -64.60499999999999 20.0 -64.85499999999999 L58.0 -82.85499999999999 Q58.5 -83.10499999999999 59.0 -83.22999999999999 Q59.5 -83.35499999999999 60.0 -83.35499999999999 Q60.5 -83.35499999999999 61.0 -83.22999999999999 Q61.5 -83.10499999999999 62.0 -82.85499999999999 L100.0 -64.85499999999999 Q100.5 -64.60499999999999 100.94 -63.91999999999999 Q101.375 -63.22999999999999 101.375 -62.60499999999999 Q101.375 -61.60499999999999 100.75 -60.97999999999999 Q100.125 -60.35499999999999 99.25 -60.35499999999999 H20.75 Z M31.125 -64.97999999999999 H89.0 L60.0 -78.60499999999999 L31.125 -64.97999999999999 Z M21.0 4.02000000000001 Q20.0 4.02000000000001 19.310000000000002 3.3300000000000125 Q18.625 2.6450000000000102 18.625 1.6450000000000102 Q18.625 0.7700000000000102 19.310000000000002 0.0800000000000125 Q20.0 -0.6049999999999898 21.0 -0.6049999999999898 H73.25 Q73.25 0.7700000000000102 73.375 1.7700000000000102 Q73.5 2.7700000000000102 73.875 4.02000000000001 H21.0 Z M82.125 -23.60499999999999 V-48.47999999999999 Q82.125 -49.35499999999999 82.81 -50.04499999999999 Q83.5 -50.72999999999999 84.5 -50.72999999999999 Q85.375 -50.72999999999999 86.06 -50.04499999999999 Q86.75 -49.35499999999999 86.75 -48.47999999999999 V-25.85499999999999 L82.125 -23.60499999999999 Z M100.0 21.27000000000001 Q92.5 19.39500000000001 87.69 12.77000000000001 Q82.875 6.14500000000001 82.875 -2.1049999999999898 V-10.72999999999999 Q82.875 -11.72999999999999 83.44 -12.669999999999987 Q84.0 -13.60499999999999 85.0 -14.10499999999999 L98.375 -20.85499999999999 Q99.125 -21.22999999999999 100.0 -21.22999999999999 Q100.875 -21.22999999999999 101.625 -20.85499999999999 L115.0 -14.10499999999999 Q116.0 -13.60499999999999 116.625 -12.669999999999987 Q117.25 -11.72999999999999 117.25 -10.72999999999999 V-2.1049999999999898 Q117.25 6.14500000000001 112.375 12.77000000000001 Q107.5 19.39500000000001 100.0 21.27000000000001 Z M110.25 -6.10499999999999 Q110.625 -6.60499999999999 110.69000000000001 -7.35499999999999 Q110.75 -8.10499999999999 110.25 -8.60499999999999 Q109.625 -9.22999999999999 108.94 -9.22999999999999 Q108.25 -9.22999999999999 107.625 -8.60499999999999 L96.375 2.6450000000000102 L92.125 -1.6049999999999898 Q91.625 -2.1049999999999898 90.875 -2.164999999999992 Q90.125 -2.2299999999999898 89.625 -1.7299999999999898 Q89.0 -1.1049999999999898 89.0 -0.4199999999999875 Q89.0 0.27000000000001023 89.625 0.8950000000000102 L93.625 5.02000000000001 Q94.25 5.52000000000001 94.94 5.8300000000000125 Q95.625 6.14500000000001 96.375 6.14500000000001 Q97.125 6.14500000000001 97.81 5.8300000000000125 Q98.5 5.52000000000001 99.0 5.02000000000001 L110.25 -6.10499999999999 Z M31.125 -64.97999999999999 H60.0 H89.0 H31.125 Z"/></g><g id="Ultralight-M" transform="matrix(1 0 0 1 506.415 1126)"><path d="M37.0 -10.22999999999999 Q36.375 -10.22999999999999 35.875 -10.72999999999999 Q35.375 -11.22999999999999 35.375 -11.85499999999999 V-50.60499999999999 Q35.375 -51.22999999999999 35.875 -51.72999999999999 Q36.375 -52.22999999999999 37.0 -52.22999999999999 Q37.625 -52.22999999999999 38.125 -51.72999999999999 Q38.625 -51.22999999999999 38.625 -50.60499999999999 V-11.85499999999999 Q38.625 -11.22999999999999 38.125 -10.72999999999999 Q37.625 -10.22999999999999 37.0 -10.22999999999999 Z M60.0 -10.22999999999999 Q59.375 -10.22999999999999 58.94 -10.72999999999999 Q58.5 -11.22999999999999 58.5 -11.85499999999999 V-50.60499999999999 Q58.5 -51.22999999999999 58.94 -51.72999999999999 Q59.375 -52.22999999999999 60.125 -52.22999999999999 Q60.75 -52.22999999999999 61.19 -51.72999999999999 Q61.625 -51.22999999999999 61.625 -50.60499999999999 V-11.85499999999999 Q61.625 -11.22999999999999 61.125 -10.72999999999999 Q60.625 -10.22999999999999 60.0 -10.22999999999999 Z M21.875 -61.85499999999999 Q21.375 -61.85499999999999 21.065 -62.164999999999985 Q20.75 -62.47999999999999 20.75 -62.97999999999999 Q20.75 -63.35499999999999 21.065 -63.79499999999999 Q21.375 -64.22999999999999 21.625 -64.47999999999999 L58.75 -81.72999999999999 Q59.0 -81.85499999999999 59.315 -81.91999999999999 Q59.625 -81.97999999999999 60.0 -81.97999999999999 Q60.375 -81.97999999999999 60.69 -81.91999999999999 Q61.0 -81.85499999999999 61.375 -81.72999999999999 L98.375 -64.47999999999999 Q98.625 -64.22999999999999 98.94 -63.79499999999999 Q99.25 -63.35499999999999 99.25 -62.97999999999999 Q99.25 -62.47999999999999 98.94 -62.164999999999985 Q98.625 -61.85499999999999 98.125 -61.85499999999999 H21.875 Z M30.625 -65.10499999999999 H89.5 L60.0 -78.72999999999999 L30.625 -65.10499999999999 Z M22.375 2.6450000000000102 Q21.75 2.6450000000000102 21.25 2.1450000000000102 Q20.75 1.6450000000000102 20.75 1.0200000000000102 Q20.75 0.39500000000001023 21.25 -0.10499999999998977 Q21.75 -0.6049999999999898 22.375 -0.6049999999999898 H74.25 Q74.125 0.39500000000001023 74.25 1.0800000000000125 Q74.375 1.7700000000000102 74.5 2.6450000000000102 H22.375 Z M81.5 -22.10499999999999 V-50.60499999999999 Q81.5 -51.22999999999999 81.94000000000001 -51.72999999999999 Q82.375 -52.22999999999999 83.125 -52.22999999999999 Q83.75 -52.22999999999999 84.185 -51.72999999999999 Q84.625 -51.22999999999999 84.625 -50.60499999999999 V-23.72999999999999 L81.5 -22.10499999999999 Z M100.0 20.02000000000001 Q93.0 18.27000000000001 88.44 12.02000000000001 Q83.875 5.77000000000001 83.875 -2.1049999999999898 V-10.22999999999999 Q83.875 -11.10499999999999 84.44000000000001 -11.97999999999999 Q85.0 -12.85499999999999 85.875 -13.35499999999999 L98.5 -19.72999999999999 Q99.125 -20.10499999999999 100.0 -20.10499999999999 Q100.875 -20.10499999999999 101.625 -19.72999999999999 L114.25 -13.35499999999999 Q115.125 -12.85499999999999 115.69000000000001 -11.97999999999999 Q116.25 -11.10499999999999 116.25 -10.22999999999999 V-2.1049999999999898 Q116.25 5.77000000000001 111.685 12.02000000000001 Q107.125 18.27000000000001 100.0 20.02000000000001 Z M109.875 -6.47999999999999 Q110.125 -6.85499999999999 110.19 -7.4199999999999875 Q110.25 -7.97999999999999 109.875 -8.47999999999999 Q109.375 -8.97999999999999 108.81500000000001 -8.97999999999999 Q108.25 -8.97999999999999 107.875 -8.47999999999999 L96.375 3.0200000000000102 L92.0 -1.3549999999999898 Q91.625 -1.7299999999999898 91.06 -1.789999999999992 Q90.5 -1.8549999999999898 90.0 -1.4799999999999898 Q89.5 -0.9799999999999898 89.5 -0.4199999999999875 Q89.5 0.14500000000001023 90.0 0.5200000000000102 L93.875 4.52000000000001 Q94.5 5.02000000000001 95.06500000000001 5.27000000000001 Q95.625 5.52000000000001 96.375 5.52000000000001 Q97.125 5.52000000000001 97.75 5.27000000000001 Q98.375 5.02000000000001 98.875 4.52000000000001 L109.875 -6.47999999999999 Z M30.625 -65.10499999999999 H60.0 H89.5 H30.625 Z"/></g><g id="Bold-S" transform="matrix(1 0 0 1 2294.23 696)"><path d="M22.978836 -15.209913999999998 Q20.810664 -15.209913999999998 19.134828 -16.885749999999987 Q17.458992000000002 -18.56158599999999 17.458992000000002 -20.734491999999996 V-36.31408599999999 Q17.458992000000002 -38.38757799999999 19.134828 -40.01133999999999 Q20.810664 -41.63983599999999 22.978836 -41.63983599999999 Q25.052328 -41.63983599999999 26.67609 -40.01133999999999 Q28.304586 -38.38757799999999 28.304586 -36.31408599999999 V-20.734491999999996 Q28.304586 -18.56158599999999 26.67609 -16.885749999999987 Q25.052328 -15.209913999999998 22.978836 -15.209913999999998 Z M47.538828 -15.209913999999998 Q45.365922 -15.209913999999998 43.74216 -16.885749999999987 Q42.11366400000001 -18.56158599999999 42.11366400000001 -20.734491999999996 V-36.31408599999999 Q42.11366400000001 -38.38757799999999 43.74216 -40.01133999999999 Q45.365922 -41.63983599999999 47.538828 -41.63983599999999 Q49.607586 -41.63983599999999 51.236082 -40.01133999999999 Q52.864578 -38.38757799999999 52.864578 -36.31408599999999 V-20.734491999999996 Q52.864578 -18.56158599999999 51.236082 -16.885749999999987 Q49.607586 -15.209913999999998 47.538828 -15.209913999999998 Z M13.0185 -46.47324999999999 Q10.05975 -46.47324999999999 7.891578 -48.59408199999999 Q5.718672 -50.71491399999999 5.718672 -53.67366399999999 Q5.718672 -55.74242199999999 7.347168 -58.50707799999999 Q8.975664 -61.266999999999996 10.750914 -62.15699199999999 L41.914835999999994 -77.935414 Q43.396578 -78.527164 44.726832 -78.82067199999999 Q46.057086 -79.11891399999999 47.439414000000006 -79.11891399999999 Q48.916422 -79.11891399999999 50.25141 -78.82067199999999 Q51.581664 -78.527164 53.058672 -77.935414 L84.0285 -62.15699199999999 Q85.80375 -61.266999999999996 87.432246 -58.60649199999999 Q89.056008 -55.94125 89.056008 -53.67366399999999 Q89.056008 -50.71491399999999 86.93991 -48.59408199999999 Q84.819078 -46.47324999999999 81.760914 -46.47324999999999 H13.0185 Z M31.263336 -58.800585999999996 H63.615492 L47.439414000000006 -66.79157799999999 L31.263336 -58.800585999999996 Z M11.934414 1.8514219999999995 Q9.468 1.8514219999999995 7.593336000000001 -0.018507999999997082 Q5.718672 -1.8931719999999927 5.718672 -4.359585999999993 Q5.718672 -6.726585999999983 7.593336000000001 -8.601249999999993 Q9.468 -10.475914000000003 11.934414 -10.475914000000003 H51.974585999999995 Q52.074 -7.810671999999997 52.56633599999999 -4.458999999999989 Q53.058672 -1.1073279999999954 54.147492 1.8514219999999995 H11.934414 Z M66.474828 -33.752992 V-36.31408599999999 Q66.474828 -38.38757799999999 68.09859 -40.01133999999999 Q69.727086 -41.63983599999999 71.899992 -41.63983599999999 Q73.575828 -41.63983599999999 75.052836 -40.50841 Q76.53457800000001 -39.372249999999994 77.026914 -37.98992199999999 V-38.979327999999995 L66.474828 -33.752992 Z M78.901578 15.954008000000016 Q70.716492 13.885250000000013 65.386008 6.538082000000003 Q60.064992000000004 -0.8090859999999935 60.064992000000004 -9.884163999999998 V-18.069249999999997 Q60.064992000000004 -19.844499999999996 60.997589999999995 -21.27416799999999 Q61.934922 -22.70383599999999 63.416664000000004 -23.494414 L76.236336 -29.90424999999999 Q77.718078 -30.595413999999998 78.94891799999999 -30.595413999999998 Q80.18449199999999 -30.595413999999998 81.6615 -29.90424999999999 L94.38649199999999 -23.494414 Q95.962914 -22.70383599999999 96.90024600000001 -21.27416799999999 Q97.83757800000001 -19.844499999999996 97.83757800000001 -18.069249999999997 V-9.884163999999998 Q97.83757800000001 -0.8090859999999935 92.51182800000001 6.538082000000003 Q87.18607800000001 13.885250000000013 78.901578 15.954008000000016 Z M90.04541400000001 -14.125827999999998 Q90.43833599999999 -14.518749999999997 90.43833599999999 -15.157839999999993 Q90.43833599999999 -15.801664000000002 90.04541400000001 -16.194585999999987 Q89.652492 -16.587507999999985 89.008668 -16.686921999999996 Q88.369578 -16.78633599999999 87.97192199999999 -16.194585999999987 L76.33575 -4.458999999999989 L69.53299200000001 -11.266492 Q69.135336 -11.659413999999998 68.54358599999999 -11.758827999999994 Q67.951836 -11.85350799999999 67.558914 -11.460585999999992 Q67.165992 -11.067663999999994 67.165992 -10.423839999999998 Q67.165992 -9.784749999999988 67.558914 -9.39182799999999 L71.994672 -4.752508000000006 Q72.984078 -3.8672499999999985 74.115504 -3.422253999999981 Q75.251664 -2.981991999999991 76.33575 -2.981991999999991 Q77.51925 -2.981991999999991 78.65540999999999 -3.422253999999981 Q79.786836 -3.8672499999999985 80.676828 -4.752508000000006 L90.04541400000001 -14.125827999999998 Z M31.263336 -58.800585999999996 H47.439414000000006 H63.615492 H31.263336 Z"/></g><g id="Semibold-S" transform="matrix(1 0 0 1 1998.1 696)"><path d="M23.570586 -15.702249999999992 Q21.695922 -15.702249999999992 20.218913999999998 -17.131917999999985 Q18.737172 -18.56158599999999 18.737172 -20.436249999999994 V-37.398171999999995 Q18.737172 -39.27283599999999 20.218913999999998 -40.702504 Q21.695922 -42.132172 23.570586 -42.132172 Q25.44525 -42.132172 26.874917999999997 -40.702504 Q28.304586 -39.27283599999999 28.304586 -37.398171999999995 V-20.436249999999994 Q28.304586 -18.56158599999999 26.874917999999997 -17.131917999999985 Q25.44525 -15.702249999999992 23.570586 -15.702249999999992 Z M47.538828 -15.702249999999992 Q45.66416400000001 -15.702249999999992 44.234496 -17.131917999999985 Q42.804828 -18.56158599999999 42.804828 -20.436249999999994 V-37.398171999999995 Q42.804828 -39.27283599999999 44.234496 -40.702504 Q45.66416400000001 -42.132172 47.538828 -42.132172 Q49.314078 -42.132172 50.743745999999994 -40.702504 Q52.173414 -39.27283599999999 52.173414 -37.398171999999995 V-20.436249999999994 Q52.173414 -18.56158599999999 50.743745999999994 -17.131917999999985 Q49.314078 -15.702249999999992 47.538828 -15.702249999999992 Z M13.312007999999999 -48.24849999999999 Q10.750914 -48.24849999999999 8.975664 -49.976409999999994 Q7.200413999999999 -51.699586 7.200413999999999 -54.26541399999999 Q7.200413999999999 -55.94125 8.483328 -58.109421999999995 Q9.761508 -60.28232799999999 11.143836 -61.06817199999999 L42.804828 -76.94600799999999 Q43.988327999999996 -77.542492 45.119754 -77.78866 Q46.255914000000004 -78.03482799999999 47.439414000000006 -78.03482799999999 Q48.622914 -78.03482799999999 49.75434 -77.78866 Q50.8905 -77.542492 52.074 -76.94600799999999 L83.63557800000001 -61.06817199999999 Q85.013172 -60.28232799999999 86.296086 -58.161496 Q87.579 -56.04066399999999 87.579 -54.26541399999999 Q87.579 -51.699586 85.80375 -49.976409999999994 Q84.0285 -48.24849999999999 81.462672 -48.24849999999999 H13.312007999999999 Z M28.99575 -58.60649199999999 H65.783664 L47.439414000000006 -67.676836 L28.99575 -58.60649199999999 Z M12.327336 0.7673360000000002 Q10.357992000000001 0.7673360000000002 8.776836000000001 -0.8090859999999935 Q7.200413999999999 -2.3855080000000015 7.200413999999999 -4.458999999999989 Q7.200413999999999 -6.433077999999995 8.776836000000001 -8.009499999999989 Q10.357992000000001 -9.585921999999997 12.327336 -9.585921999999997 H52.56633599999999 Q52.66575 -7.218921999999992 53.011332 -4.5063399999999945 Q53.356914 -1.7984919999999818 54.242172000000004 0.7673360000000002 H12.327336 Z M66.474828 -33.06182799999999 V-37.398171999999995 Q66.474828 -39.27283599999999 67.904496 -40.702504 Q69.334164 -42.132172 71.208828 -42.132172 Q72.884664 -42.132172 74.214918 -40.948671999999995 Q75.545172 -39.76517199999999 75.84341400000001 -38.288163999999995 V-37.696414 L66.474828 -33.06182799999999 Z M78.901578 15.366991999999996 Q70.910586 13.293500000000009 65.73159 6.19250000000001 Q60.557328 -0.9084999999999894 60.557328 -9.784749999999988 V-18.26807799999999 Q60.557328 -19.745085999999986 61.343172 -20.92858599999999 Q62.13375 -22.11208599999999 63.416664000000004 -22.80324999999999 L76.63399199999999 -29.511327999999992 Q77.81749199999999 -30.003664 78.901578 -30.003664 Q79.985664 -30.003664 81.16916400000001 -29.511327999999992 L94.38649199999999 -22.80324999999999 Q95.664672 -22.11208599999999 96.45525 -20.92858599999999 Q97.245828 -19.745085999999986 97.245828 -18.26807799999999 V-9.784749999999988 Q97.245828 -0.9084999999999894 92.066832 6.19250000000001 Q86.887836 13.293500000000009 78.901578 15.366991999999996 Z M89.652492 -13.827585999999997 Q90.04541400000001 -14.220507999999995 90.04541400000001 -14.816991999999999 Q90.04541400000001 -15.40400799999999 89.652492 -15.801664000000002 Q89.254836 -16.194585999999987 88.615746 -16.24665999999999 Q87.97192199999999 -16.293999999999997 87.579 -15.801664000000002 L76.33575 -4.458999999999989 L70.025328 -10.769421999999992 Q69.627672 -11.16707799999999 69.035922 -11.214417999999995 Q68.444172 -11.266492 68.05125 -10.868835999999988 Q67.658328 -10.475914000000003 67.658328 -9.832089999999994 Q67.658328 -9.192999999999998 68.05125 -8.800078 L72.685836 -4.0660780000000045 Q73.476414 -3.374914000000004 74.461086 -2.981991999999991 Q75.450492 -2.5843359999999933 76.33575 -2.5843359999999933 Q77.320422 -2.5843359999999933 78.30982800000001 -2.981991999999991 Q79.2945 -3.374914000000004 79.985664 -4.0660780000000045 L89.652492 -13.827585999999997 Z M28.99575 -58.60649199999999 H47.439414000000006 H65.783664 H28.99575 Z"/></g><g id="Medium-S" transform="matrix(1 0 0 1 1701.85 696)"><path d="M24.062922 -16.000491999999994 Q22.387086 -16.000491999999994 21.104172000000002 -17.33074599999999 Q19.825992 -18.660999999999994 19.825992 -20.33683599999999 V-38.18874999999999 Q19.825992 -39.86458599999999 21.104172000000002 -41.147499999999994 Q22.387086 -42.430414 24.062922 -42.430414 Q25.743492 -42.430414 27.021672000000002 -41.147499999999994 Q28.304586 -39.86458599999999 28.304586 -38.18874999999999 V-20.33683599999999 Q28.304586 -18.660999999999994 27.021672000000002 -17.33074599999999 Q25.743492 -16.000491999999994 24.062922 -16.000491999999994 Z M47.538828 -16.000491999999994 Q45.862992000000006 -16.000491999999994 44.528004 -17.33074599999999 Q43.19775 -18.660999999999994 43.19775 -20.33683599999999 V-38.18874999999999 Q43.19775 -39.86458599999999 44.528004 -41.147499999999994 Q45.862992000000006 -42.430414 47.538828 -42.430414 Q49.11525 -42.430414 50.445504 -41.147499999999994 Q51.780492 -39.86458599999999 51.780492 -38.18874999999999 V-20.33683599999999 Q51.780492 -18.660999999999994 50.445504 -17.33074599999999 Q49.11525 -16.000491999999994 47.538828 -16.000491999999994 Z M13.510836000000001 -49.53141399999999 Q11.24325 -49.53141399999999 9.761508 -51.06049599999999 Q8.2845 -52.58957799999999 8.2845 -54.757749999999994 Q8.2845 -56.14007799999999 9.321246 -57.86325399999999 Q10.357992000000001 -59.59116399999999 11.541492000000002 -60.182914 L43.396578 -76.35899199999999 Q44.480664000000004 -76.851328 45.417995999999995 -76.998082 Q46.355328 -77.144836 47.439414000000006 -77.144836 Q48.5235 -77.144836 49.460832 -76.998082 Q50.398164 -76.851328 51.48225 -76.35899199999999 L83.237922 -60.182914 Q84.42142199999999 -59.59116399999999 85.458168 -57.86325399999999 Q86.49491400000001 -56.14007799999999 86.49491400000001 -54.757749999999994 Q86.49491400000001 -52.58957799999999 85.013172 -51.06049599999999 Q83.536164 -49.53141399999999 81.268578 -49.53141399999999 H13.510836000000001 Z M27.419328 -58.407664 H67.360086 L47.439414000000006 -68.368 L27.419328 -58.407664 Z M12.724992 -0.11792199999999298 Q10.945008 -0.11792199999999298 9.614754000000001 -1.4529099999999886 Q8.2845 -2.7831639999999993 8.2845 -4.558413999999999 Q8.2845 -6.234249999999989 9.614754000000001 -7.61657799999999 Q10.945008 -8.994171999999992 12.724992 -8.994171999999992 H52.963992000000005 Q53.058672 -6.726585999999983 53.356914 -4.5063399999999945 Q53.650422 -2.2908280000000047 54.441 -0.11792199999999298 H12.724992 Z M66.474828 -32.66417199999999 V-38.18874999999999 Q66.474828 -39.86458599999999 67.753008 -41.147499999999994 Q69.035922 -42.430414 70.716492 -42.430414 Q72.29291400000001 -42.430414 73.575828 -41.294253999999995 Q74.854008 -40.16282799999999 74.953422 -38.581672 V-36.70700799999999 L66.474828 -32.66417199999999 Z M78.901578 14.869922000000003 Q71.109414 12.90057800000001 66.029832 5.898992000000007 Q60.95025 -1.1073279999999954 60.95025 -9.685335999999992 V-18.367492 Q60.95025 -19.645671999999998 61.58934 -20.68241799999999 Q62.233164 -21.719164 63.31725 -22.310913999999997 L76.9275 -29.113671999999994 Q78.011586 -29.60600799999999 78.901578 -29.60600799999999 Q79.786836 -29.60600799999999 80.870922 -29.113671999999994 L94.48117199999999 -22.310913999999997 Q95.569992 -21.719164 96.209082 -20.68241799999999 Q96.84817199999999 -19.645671999999998 96.84817199999999 -18.367492 V-9.685335999999992 Q96.84817199999999 -1.1073279999999954 91.76859 5.898992000000007 Q86.689008 12.90057800000001 78.901578 14.869922000000003 Z M89.35425 -13.534077999999994 Q89.74717199999999 -13.926999999999992 89.74717199999999 -14.518749999999997 Q89.74717199999999 -15.110499999999988 89.35425 -15.503422 Q88.96132800000001 -15.901077999999998 88.369578 -15.94841799999999 Q87.77782800000001 -16.000491999999994 87.38017199999999 -15.503422 L76.435164 -4.458999999999989 L70.41825 -10.376499999999993 Q70.025328 -10.769421999999992 69.433578 -10.821495999999996 Q68.84182799999999 -10.868835999999988 68.444172 -10.475914000000003 Q68.05125 -10.08299199999999 68.05125 -9.439167999999995 Q68.05125 -8.800078 68.444172 -8.402421999999987 L73.277586 -3.6684219999999925 Q73.86933599999999 -2.981991999999991 74.707254 -2.6364099999999837 Q75.545172 -2.2908280000000047 76.435164 -2.2908280000000047 Q77.22100800000001 -2.2908280000000047 78.06366 -2.6364099999999837 Q78.901578 -2.981991999999991 79.588008 -3.6684219999999925 L89.35425 -13.534077999999994 Z M27.419328 -58.407664 H47.439414000000006 H67.360086 H27.419328 Z"/></g><g id="Regular-S" transform="matrix(1 0 0 1 1405.73 696)"><path d="M24.460577999999998 -16.293999999999997 Q22.879422 -16.293999999999997 21.695922 -17.477499999999992 Q20.512422 -18.660999999999994 20.512422 -20.237421999999995 V-38.879914 Q20.512422 -40.356922 21.695922 -41.54042199999999 Q22.879422 -42.723921999999995 24.460577999999998 -42.723921999999995 Q25.937586 -42.723921999999995 27.121086000000002 -41.54042199999999 Q28.304586 -40.356922 28.304586 -38.879914 V-20.237421999999995 Q28.304586 -18.660999999999994 27.121086000000002 -17.477499999999992 Q25.937586 -16.293999999999997 24.460577999999998 -16.293999999999997 Z M47.538828 -16.293999999999997 Q45.957672 -16.293999999999997 44.774172 -17.477499999999992 Q43.590672 -18.660999999999994 43.590672 -20.237421999999995 V-38.879914 Q43.590672 -40.356922 44.774172 -41.54042199999999 Q45.957672 -42.723921999999995 47.538828 -42.723921999999995 Q49.01583599999999 -42.723921999999995 50.199335999999995 -41.54042199999999 Q51.382836 -40.356922 51.382836 -38.879914 V-20.237421999999995 Q51.382836 -18.660999999999994 50.199335999999995 -17.477499999999992 Q49.01583599999999 -16.293999999999997 47.538828 -16.293999999999997 Z M13.61025 -50.516085999999994 Q11.735586 -50.516085999999994 10.405332 -51.84633999999999 Q9.075078 -53.18132799999999 9.075078 -55.05599199999999 Q9.075078 -56.23949199999999 9.912996 -57.66915999999999 Q10.750914 -59.098828 11.735586 -59.59116399999999 L43.988327999999996 -75.86192199999999 Q44.873585999999996 -76.25957799999999 45.711504000000005 -76.453672 Q46.549422 -76.65249999999999 47.439414000000006 -76.65249999999999 Q48.424085999999996 -76.65249999999999 49.262004000000005 -76.453672 Q50.099922 -76.25957799999999 50.989914000000006 -75.86192199999999 L83.043828 -59.59116399999999 Q84.0285 -59.098828 84.866418 -57.66915999999999 Q85.704336 -56.23949199999999 85.704336 -55.05599199999999 Q85.704336 -53.18132799999999 84.42142199999999 -51.84633999999999 Q83.138508 -50.516085999999994 81.16916400000001 -50.516085999999994 H13.61025 Z M26.235827999999998 -58.308249999999994 H68.643 L47.439414000000006 -68.86033599999999 L26.235827999999998 -58.308249999999994 Z M13.0185 -0.7096719999999834 Q11.442077999999999 -0.7096719999999834 10.258578 -1.8931719999999927 Q9.075078 -3.076671999999988 9.075078 -4.657827999999995 Q9.075078 -6.134835999999993 10.258578 -7.318335999999988 Q11.442077999999999 -8.501835999999983 13.0185 -8.501835999999983 H53.356914 Q53.456328 -6.433077999999995 53.702496 -4.558413999999999 Q53.948664 -2.683749999999989 54.540414000000006 -0.7096719999999834 H13.0185 Z M66.474828 -32.271249999999995 V-38.879914 Q66.474828 -40.356922 67.658328 -41.54042199999999 Q68.84182799999999 -42.723921999999995 70.41825 -42.723921999999995 Q71.899992 -42.723921999999995 73.083492 -41.54042199999999 Q74.266992 -40.356922 74.266992 -38.879914 V-36.119991999999996 L66.474828 -32.271249999999995 Z M78.901578 14.477000000000004 Q71.303508 12.602336000000008 66.276 5.700164000000015 Q61.248492000000006 -1.2020079999999922 61.248492000000006 -9.685335999999992 V-18.56158599999999 Q61.248492000000006 -19.645671999999998 61.835508 -20.583003999999995 Q62.431992 -21.520335999999986 63.31725 -22.012671999999995 L77.22100800000001 -28.919577999999994 Q78.111 -29.411913999999996 78.94891799999999 -29.411913999999996 Q79.786836 -29.411913999999996 80.676828 -28.919577999999994 L94.48117199999999 -22.012671999999995 Q95.470578 -21.520335999999986 96.06232800000001 -20.583003999999995 Q96.65407800000001 -19.645671999999998 96.65407800000001 -18.56158599999999 V-9.685335999999992 Q96.65407800000001 -1.2020079999999922 91.621836 5.700164000000015 Q86.594328 12.602336000000008 78.901578 14.477000000000004 Z M89.254836 -13.335249999999988 Q89.652492 -13.728172 89.652492 -14.319921999999991 Q89.652492 -14.911671999999996 89.254836 -15.309327999999994 Q88.861914 -15.702249999999992 88.27016400000001 -15.749589999999998 Q87.678414 -15.801664000000002 87.28549199999999 -15.309327999999994 L76.435164 -4.458999999999989 L70.811172 -10.08299199999999 Q70.41825 -10.475914000000003 69.8265 -10.523253999999994 Q69.23475 -10.575327999999999 68.84182799999999 -10.177672000000001 Q68.444172 -9.784749999999988 68.444172 -9.192999999999998 Q68.444172 -8.601249999999993 68.84182799999999 -8.208327999999995 L73.670508 -3.275499999999994 Q74.266992 -2.7831639999999993 75.005496 -2.437581999999992 Q75.744 -2.0919999999999987 76.435164 -2.0919999999999987 Q77.22100800000001 -2.0919999999999987 77.964246 -2.437581999999992 Q78.70275 -2.7831639999999993 79.19508599999999 -3.275499999999994 L89.254836 -13.335249999999988 Z M26.235827999999998 -58.308249999999994 H47.439414000000006 H68.643 H26.235827999999998 Z"/></g><g id="Light-S" transform="matrix(1 0 0 1 1109.75 696)"><path d="M26.235827999999998 -16.293999999999997 Q25.147008 -16.293999999999997 24.21441 -17.18399199999999 Q23.277078 -18.069249999999997 23.277078 -19.252749999999992 V-41.63983599999999 Q23.277078 -42.723921999999995 24.21441 -43.661254 Q25.147008 -44.59858599999999 26.235827999999998 -44.59858599999999 Q27.419328 -44.59858599999999 28.304586 -43.661254 Q29.194578 -42.723921999999995 29.194578 -41.63983599999999 V-19.252749999999992 Q29.194578 -18.069249999999997 28.304586 -17.18399199999999 Q27.419328 -16.293999999999997 26.235827999999998 -16.293999999999997 Z M47.439414000000006 -16.293999999999997 Q46.355328 -16.293999999999997 45.417995999999995 -17.18399199999999 Q44.480664000000004 -18.069249999999997 44.480664000000004 -19.252749999999992 V-41.63983599999999 Q44.480664000000004 -42.723921999999995 45.417995999999995 -43.661254 Q46.355328 -44.59858599999999 47.538828 -44.59858599999999 Q48.622914 -44.59858599999999 49.508172 -43.661254 Q50.398164 -42.723921999999995 50.398164 -41.63983599999999 V-19.252749999999992 Q50.398164 -18.069249999999997 49.508172 -17.18399199999999 Q48.622914 -16.293999999999997 47.439414000000006 -16.293999999999997 Z M15.091992000000001 -52.49016399999999 Q13.709664 -52.49016399999999 12.772332 -53.37542199999999 Q11.835 -54.26541399999999 11.835 -55.643007999999995 Q11.835 -56.43358599999999 12.526164 -57.569745999999995 Q13.217327999999998 -58.70117199999999 13.809078 -58.999413999999994 L44.774172 -74.2855 Q45.46533599999999 -74.57900799999999 46.10916 -74.73049599999999 Q46.74825 -74.87724999999999 47.439414000000006 -74.87724999999999 Q48.130578 -74.87724999999999 48.769667999999996 -74.73049599999999 Q49.413492000000005 -74.57900799999999 50.099922 -74.2855 L80.97033599999999 -58.999413999999994 Q81.562086 -58.70117199999999 82.25325 -57.569745999999995 Q82.94441400000001 -56.43358599999999 82.94441400000001 -55.643007999999995 Q82.94441400000001 -54.26541399999999 82.007082 -53.37542199999999 Q81.06975 -52.49016399999999 79.687422 -52.49016399999999 H15.091992000000001 Z M25.644078 -58.407664 H69.23475 L47.439414000000006 -68.95974999999999 L25.644078 -58.407664 Z M14.893163999999999 -2.484921999999983 Q13.709664 -2.484921999999983 12.772332 -3.422253999999981 Q11.835 -4.359585999999993 11.835 -5.443671999999992 Q11.835 -6.627171999999987 12.772332 -7.517163999999994 Q13.709664 -8.402421999999987 14.893163999999999 -8.402421999999987 H54.441 Q54.540414000000006 -6.825999999999993 54.734508 -5.396332000000001 Q54.933336 -3.9666639999999944 55.330992 -2.484921999999983 H14.893163999999999 Z M65.584836 -30.297171999999996 V-41.63983599999999 Q65.584836 -42.723921999999995 66.474828 -43.661254 Q67.360086 -44.59858599999999 68.54358599999999 -44.59858599999999 Q69.627672 -44.59858599999999 70.565004 -43.661254 Q71.502336 -42.723921999999995 71.502336 -41.63983599999999 V-33.15650799999999 L65.584836 -30.297171999999996 Z M78.901578 12.90057800000001 Q71.800578 11.12532800000001 67.165992 4.762832000000003 Q62.526672 -1.5996640000000042 62.526672 -9.486507999999986 V-17.771007999999995 Q62.526672 -18.760413999999997 63.071082000000004 -19.598331999999992 Q63.615492 -20.436249999999994 64.401336 -20.92858599999999 L77.320422 -27.338421999999994 Q78.111 -27.736077999999992 78.901578 -27.736077999999992 Q79.687422 -27.736077999999992 80.478 -27.338421999999994 L93.397086 -20.92858599999999 Q94.187664 -20.436249999999994 94.779414 -19.598331999999992 Q95.37116400000001 -18.760413999999997 95.37116400000001 -17.771007999999995 V-9.486507999999986 Q95.37116400000001 -1.5996640000000042 90.68450399999999 4.762832000000003 Q86.00257800000001 11.12532800000001 78.901578 12.90057800000001 Z M88.66308599999999 -13.728172 Q88.96132800000001 -13.926999999999992 88.96132800000001 -14.319921999999991 Q88.96132800000001 -14.717577999999989 88.66308599999999 -15.011085999999992 Q88.468992 -15.309327999999994 88.071336 -15.309327999999994 Q87.678414 -15.309327999999994 87.38017199999999 -15.011085999999992 L76.435164 -3.8672499999999985 L70.61707799999999 -9.685335999999992 Q70.31883599999999 -9.983577999999994 69.925914 -10.030917999999986 Q69.53299200000001 -10.08299199999999 69.334164 -9.784749999999988 Q69.035922 -9.486507999999986 69.035922 -9.145659999999992 Q69.035922 -8.800078 69.334164 -8.501835999999983 L73.86933599999999 -3.8672499999999985 Q74.361672 -3.374914000000004 75.052836 -3.076671999999988 Q75.744 -2.7831639999999993 76.435164 -2.7831639999999993 Q77.126328 -2.7831639999999993 77.81749199999999 -3.076671999999988 Q78.50392199999999 -3.374914000000004 79.000992 -3.8672499999999985 L88.66308599999999 -13.728172 Z M25.644078 -58.407664 H47.439414000000006 H69.23475 H25.644078 Z"/></g><g id="Thin-S" transform="matrix(1 0 0 1 814.015 696)"><path d="M28.110491999999997 -16.293999999999997 Q27.319914 -16.293999999999997 26.67609 -16.933089999999993 Q26.037 -17.576914000000002 26.037 -18.367492 V-44.404492 Q26.037 -45.09092199999999 26.67609 -45.734745999999994 Q27.319914 -46.373836 28.110491999999997 -46.373836 Q28.796922000000002 -46.373836 29.440746 -45.734745999999994 Q30.079836 -45.09092199999999 30.079836 -44.404492 V-18.367492 Q30.079836 -17.576914000000002 29.440746 -16.933089999999993 Q28.796922000000002 -16.293999999999997 28.110491999999997 -16.293999999999997 Z M47.439414000000006 -16.293999999999997 Q46.74825 -16.293999999999997 46.10916 -16.933089999999993 Q45.46533599999999 -17.576914000000002 45.46533599999999 -18.367492 V-44.404492 Q45.46533599999999 -45.09092199999999 46.10916 -45.734745999999994 Q46.74825 -46.373836 47.538828 -46.373836 Q48.229992 -46.373836 48.869082 -45.734745999999994 Q49.508172 -45.09092199999999 49.508172 -44.404492 V-18.367492 Q49.508172 -17.576914000000002 48.869082 -16.933089999999993 Q48.229992 -16.293999999999997 47.439414000000006 -16.293999999999997 Z M16.569 -54.36482799999999 Q15.778422 -54.36482799999999 15.238745999999999 -54.90450399999999 Q14.694336 -55.44891399999999 14.694336 -56.23949199999999 Q14.694336 -56.73182799999999 15.186672000000002 -57.51767199999999 Q15.679008 -58.308249999999994 15.877836 -58.407664 L45.66416400000001 -72.70907799999999 Q46.1565 -72.903172 46.549422 -73.002586 Q46.947078 -73.10199999999999 47.439414000000006 -73.10199999999999 Q47.93175 -73.10199999999999 48.324672 -73.002586 Q48.722328 -72.903172 49.214664000000006 -72.70907799999999 L78.901578 -58.407664 Q79.095672 -58.308249999999994 79.588008 -57.51767199999999 Q80.08507800000001 -56.73182799999999 80.08507800000001 -56.334171999999995 Q80.08507800000001 -55.44891399999999 79.540668 -54.90450399999999 Q79.000992 -54.36482799999999 78.210414 -54.36482799999999 H16.569 Z M25.052328 -58.407664 H69.8265 L47.439414000000006 -69.059164 L25.052328 -58.407664 Z M16.767827999999998 -4.260171999999983 Q15.97725 -4.260171999999983 15.33816 -4.903995999999992 Q14.694336 -5.543085999999988 14.694336 -6.333663999999999 Q14.694336 -7.024827999999999 15.33816 -7.663917999999995 Q15.97725 -8.303007999999991 16.767827999999998 -8.303007999999991 H55.6245 Q55.6245 -7.218921999999992 55.723914 -6.234249999999989 Q55.823328 -5.249578 56.116836 -4.260171999999983 H16.767827999999998 Z M64.699578 -28.422507999999993 V-44.404492 Q64.699578 -45.09092199999999 65.338668 -45.734745999999994 Q65.98249200000001 -46.373836 66.76833599999999 -46.373836 Q67.4595 -46.373836 68.09859 -45.734745999999994 Q68.742414 -45.09092199999999 68.742414 -44.404492 V-30.297171999999996 L64.699578 -28.422507999999993 Z M78.901578 11.319422000000003 Q72.29291400000001 9.643585999999999 68.05125 3.8255000000000052 Q63.809585999999996 -1.9925859999999886 63.809585999999996 -9.292413999999994 V-16.985163999999997 Q63.809585999999996 -17.87042199999999 64.301922 -18.660999999999994 Q64.798992 -19.45157799999999 65.584836 -19.844499999999996 L77.51925 -25.861413999999996 Q78.210414 -26.154921999999992 78.901578 -26.154921999999992 Q79.588008 -26.154921999999992 80.27917199999999 -25.861413999999996 L92.21358599999999 -19.844499999999996 Q93.004164 -19.45157799999999 93.54384 -18.660999999999994 Q94.08825 -17.87042199999999 94.08825 -16.985163999999997 V-9.292413999999994 Q94.08825 -1.9925859999999886 89.79924600000001 3.8255000000000052 Q85.505508 9.643585999999999 78.901578 11.319422000000003 Z M88.27016400000001 -14.026414000000003 Q88.27016400000001 -14.125827999999998 88.317504 -14.319921999999991 Q88.369578 -14.518749999999997 88.27016400000001 -14.618163999999993 Q88.071336 -14.816991999999999 87.924582 -14.86433199999999 Q87.77782800000001 -14.911671999999996 87.579 -14.618163999999993 L76.435164 -3.275499999999994 L70.41825 -9.292413999999994 Q70.31883599999999 -9.39182799999999 70.120008 -9.486507999999986 Q69.925914 -9.585921999999997 69.8265 -9.486507999999986 Q69.627672 -9.292413999999994 69.627672 -9.145659999999992 Q69.627672 -8.994171999999992 69.8265 -8.800078 L74.06816400000001 -4.458999999999989 Q74.5605 -4.0660780000000045 75.19959 -3.7678359999999884 Q75.84341400000001 -3.474328 76.435164 -3.474328 Q77.026914 -3.474328 77.666004 -3.7678359999999884 Q78.30982800000001 -4.0660780000000045 78.70275 -4.458999999999989 L88.27016400000001 -14.026414000000003 Z M25.052328 -58.407664 H47.439414000000006 H69.8265 H25.052328 Z"/></g><g id="Ultralight-S" transform="matrix(1 0 0 1 517.792 696)"><path d="M29.194578 -16.293999999999997 Q28.697508000000003 -16.293999999999997 28.205172 -16.78633599999999 Q27.712836 -17.278672 27.712836 -17.771007999999995 V-46.080327999999994 Q27.712836 -46.572663999999996 28.205172 -47.06499999999999 Q28.697508000000003 -47.55733599999999 29.194578 -47.55733599999999 Q29.686913999999998 -47.55733599999999 30.17925 -47.06499999999999 Q30.671586 -46.572663999999996 30.671586 -46.080327999999994 V-17.771007999999995 Q30.671586 -17.278672 30.17925 -16.78633599999999 Q29.686913999999998 -16.293999999999997 29.194578 -16.293999999999997 Z M47.439414000000006 -16.293999999999997 Q46.947078 -16.293999999999997 46.502082 -16.78633599999999 Q46.057086 -17.278672 46.057086 -17.771007999999995 V-46.080327999999994 Q46.057086 -46.572663999999996 46.502082 -47.06499999999999 Q46.947078 -47.55733599999999 47.538828 -47.55733599999999 Q48.031164000000004 -47.55733599999999 48.47616 -47.06499999999999 Q48.916422 -46.572663999999996 48.916422 -46.080327999999994 V-17.771007999999995 Q48.916422 -17.278672 48.424085999999996 -16.78633599999999 Q47.93175 -16.293999999999997 47.439414000000006 -16.293999999999997 Z M17.458992000000002 -55.54832799999999 Q16.961922 -55.54832799999999 16.668414 -55.841835999999994 Q16.370172 -56.14007799999999 16.370172 -56.632414 Q16.370172 -56.82650799999999 16.767827999999998 -57.422991999999994 Q17.16075 -58.010008 17.16075 -58.109421999999995 L46.255914000000004 -71.819086 Q46.549422 -71.9185 46.79559 -71.96583999999999 Q47.046492 -72.01791399999999 47.439414000000006 -72.01791399999999 Q47.832336 -72.01791399999999 48.078504 -71.96583999999999 Q48.324672 -71.9185 48.722328 -71.819086 L77.61866400000001 -58.109421999999995 Q77.61866400000001 -58.010008 78.011586 -57.422991999999994 Q78.404508 -56.82650799999999 78.404508 -56.632414 Q78.404508 -56.14007799999999 78.111 -55.841835999999994 Q77.81749199999999 -55.54832799999999 77.320422 -55.54832799999999 H17.458992000000002 Z M24.654672 -58.50707799999999 H70.219422 L47.439414000000006 -69.15857799999999 L24.654672 -58.50707799999999 Z M17.851914 -5.348991999999981 Q17.359578 -5.348991999999981 16.862508 -5.841328000000004 Q16.370172 -6.333663999999999 16.370172 -6.825999999999993 Q16.370172 -7.318335999999988 16.862508 -7.810671999999997 Q17.359578 -8.303007999999991 17.851914 -8.303007999999991 H56.415078 Q56.315664000000005 -7.517163999999994 56.415078 -6.778659999999988 Q56.514492000000004 -6.035421999999983 56.609172 -5.348991999999981 H17.851914 Z M64.202508 -27.23900799999999 V-46.080327999999994 Q64.202508 -46.572663999999996 64.647504 -47.06499999999999 Q65.0925 -47.55733599999999 65.68425 -47.55733599999999 Q66.176586 -47.55733599999999 66.621582 -47.06499999999999 Q67.06657799999999 -46.572663999999996 67.06657799999999 -46.080327999999994 V-28.621335999999992 L64.202508 -27.23900799999999 Z M78.901578 10.33475 Q72.685836 8.75832800000002 68.643 3.2337500000000006 Q64.600164 -2.2908280000000047 64.600164 -9.292413999999994 V-16.587507999999985 Q64.600164 -17.378085999999996 65.0925 -18.116589999999988 Q65.584836 -18.859827999999993 66.276 -19.252749999999992 L77.61866400000001 -24.971421999999997 Q78.210414 -25.269664 78.901578 -25.269664 Q79.588008 -25.269664 80.27917199999999 -24.971421999999997 L91.621836 -19.252749999999992 Q92.313 -18.859827999999993 92.805336 -18.116589999999988 Q93.29767199999999 -17.378085999999996 93.29767199999999 -16.587507999999985 V-9.292413999999994 Q93.29767199999999 -2.2908280000000047 89.254836 3.2337500000000006 Q85.212 8.75832800000002 78.901578 10.33475 Z M87.97192199999999 -14.319921999999991 Q87.87250800000001 -14.319921999999991 87.924582 -14.371995999999996 Q87.97192199999999 -14.419335999999987 87.97192199999999 -14.518749999999997 Q87.87250800000001 -14.618163999999993 87.82516799999999 -14.665503999999999 Q87.77782800000001 -14.717577999999989 87.77782800000001 -14.518749999999997 L76.435164 -2.981991999999991 L70.31883599999999 -9.093585999999988 Q70.31883599999999 -9.093585999999988 70.271496 -9.192999999999998 Q70.219422 -9.292413999999994 70.120008 -9.292413999999994 Q70.025328 -9.192999999999998 70.025328 -9.145659999999992 Q70.025328 -9.093585999999988 70.120008 -9.093585999999988 L74.266992 -4.851921999999988 Q74.759328 -4.458999999999989 75.299004 -4.212831999999992 Q75.84341400000001 -3.9666639999999944 76.435164 -3.9666639999999944 Q77.026914 -3.9666639999999944 77.61866400000001 -4.212831999999992 Q78.210414 -4.458999999999989 78.603336 -4.851921999999988 L87.97192199999999 -14.319921999999991 Z M24.654672 -58.50707799999999 H47.439414000000006 H70.219422 H24.654672 Z"/></g></g></svg>