<svg xmlns="http://www.w3.org/2000/svg" height="24" viewBox="0 -960 960 960" width="24"><path d="M619.957-160.565h46.956v-80.739l128.002-31.914q10.825-2.739 21.738-6.695 10.912-3.957 10.912-11.174 0-4.77-5.456-8.645-5.457-3.876-19.935-8.745-43.087-14.392-63.935-36.544-20.848-22.152-19.978-51.544 1.435-25.522 20.63-45.696 19.196-20.174 54.588-31.739 24.834-8.224 36.808-18.503t11.974-23.323q0-13.217-11.065-20.89-11.065-7.674-25.412-4.631-7.696.87-15.609 3-7.913 2.131-17.87 2.131-29.392 0-49.718-22.458-20.326-22.458-20.326-55.021 0-28.826 13.5-50.609t13.5-42.695q0-14.739-11.674-23.978t-30.413-9.239q-22.064 0-30.814 11.086-8.75 11.087-8.75 40.435 0 15.304 1.5 32.152t1.5 37.239q0 48.957-15.152 67.979-15.152 19.021-53.674 19.021-11.711 0-24.486-1.587-12.775-1.586-19.253-1.586-4.435 0-7.022 1.722-2.587 1.723-2.587 5.169 0 6.891 12 15.478t21.304 15.326q23.174 17.912 36.022 41.173 12.848 23.261 12.848 47.088 0 33.217-23.457 54.761-23.457 21.544-59.573 21.544-14.189 0-25.884-2.566-11.696-2.565-22.696-3-17.26-.869-26.325 3.729-9.065 4.597-9.065 13.793 0 8.806 8.195 14.468 8.196 5.662 24.717 8.531l143.435 24.391v113.305Zm-467.522 59.783L60.782-142.26 269.26-600.913l91.653 41.478-208.478 458.653Zm367.174 40.566v-129.696l-56.435-8.565q-52.739-8-85.826-42.044-33.087-34.044-33.087-78.305 0-44.608 31.587-77.108 31.586-32.5 78.107-37.414 7.827-1.695 14.435-2.043 6.609-.348 16.262.652-10.826-8-17.261-15.348-6.435-7.348-10.174-11.522-14.913-19.173-21.934-37.108-7.022-17.935-7.022-35.804 0-40.261 25.174-68.153 25.174-27.891 63-27.891 7 0 16.174.217 9.174.218 19.217 1.652 2-17.739-.282-35.347-2.283-17.609-2.283-35.913 0-61.87 39.652-101.239 39.653-39.37 103.218-39.37 57.696 0 98.305 35.109 40.609 35.108 40.174 84.5 0 20.739-6.587 39.347-6.587 18.609-13.761 36.783 5.566.13 11.913 1.043 6.348.913 13.044 2.609 47.435 10.74 77.413 45.24 29.978 34.5 29.978 80.543 0 44.131-29.935 78.913-29.935 34.783-74.891 47.479 7.565 2.565 16.108 5.695 8.544 3.131 15.109 6.131 27.87 12.869 44.739 38.087 16.87 25.217 16.87 56.215 0 39.263-28.413 67.198-28.413 27.935-80.804 40.674l-54.131 12.826v101.957H519.609ZM128.956-531.913q-34.087-33.522-51.13-72.848-17.044-39.326-17.044-83.848 0-86.261 60.131-148.435 60.131-62.174 147.217-62.174 43.391 0 84.131 17.826 40.739 17.826 74.826 51.348l-70.131 70.131q-19.261-18.696-41.761-28.826-22.5-10.131-45.935-10.131-45.478 0-76.804 31.703t-31.326 76.993q0 23.434 9.848 45.934 9.848 22.5 29.109 41.196l-71.131 71.131Zm514.479 135.348Z"/></svg>