<svg xmlns="http://www.w3.org/2000/svg" height="20" viewBox="0 -960 960 960" width="20"><path d="M152-152v-515.31h58V-210h457.31v58H152Zm141.69-141.69v-67.23h67.23v67.23h-67.23Zm0-148.69v-67.24h67.23v67.24h-67.23Zm0-149.7v-67.23h67.23v67.23h-67.23Zm0-148.69V-808h67.23v67.23h-67.23Zm148.69 447.08v-67.23h67.24v67.23h-67.24Zm0-447.08V-808h67.24v67.23h-67.24Zm149.7 0V-808h67.23v67.23h-67.23Zm0 447.08v-67.23h67.23v67.23h-67.23Zm148.69-447.08V-808H808v67.23h-67.23Zm0 447.08v-67.23H808v67.23h-67.23Zm0-148.69v-67.24H808v67.24h-67.23Zm0-149.7v-67.23H808v67.23h-67.23Z"/></svg>