<svg xmlns="http://www.w3.org/2000/svg" height="40" width="40"><path d="M6 21.667V18.208H8.125V21.667ZM6 28.542V25.125H8.125V28.542ZM8.125 34.125Q7.25 34.125 6.625 33.5Q6 32.875 6 32H8.125ZM6 14.792V11.375H8.125V14.792ZM25.333 34.125V32H28.75V34.125ZM16.375 26.875Q15.042 26.875 14.125 25.958Q13.208 25.042 13.208 23.75V9.25Q13.208 7.958 14.125 7.042Q15.042 6.125 16.375 6.125H30.833Q32.167 6.125 33.083 7.042Q34 7.958 34 9.25V23.75Q34 25.042 33.083 25.958Q32.167 26.875 30.833 26.875ZM16.375 24.75H30.833Q31.208 24.75 31.542 24.438Q31.875 24.125 31.875 23.75V9.25Q31.875 8.875 31.542 8.562Q31.208 8.25 30.833 8.25H16.375Q16 8.25 15.667 8.562Q15.333 8.875 15.333 9.25V23.75Q15.333 24.125 15.667 24.438Q16 24.75 16.375 24.75ZM18.458 34.125V32H21.875V34.125ZM11.542 34.125V32H15V34.125Z"/></svg>