<svg xmlns="http://www.w3.org/2000/svg" height="40" viewBox="0 96 960 960" width="40"><path d="M260.513 736H84.615q-7.192 0-12.057-4.865-4.866-4.866-4.866-12.058V432.923q0-7.192 4.866-12.058Q77.422 416 84.615 416h155.898l54.615-54.846q11.995-11.749 28.347-18.452Q339.828 336 357.667 336h397.718q7.192 0 12.058 4.909 4.865 4.909 4.865 12.167 0 7.257-4.865 12.014-4.866 4.756-12.058 4.756h-180v94.359h260q7.192 0 12.058 5.157 4.865 5.157 4.865 12.166 0 7.01-4.865 11.767-4.866 4.756-12.058 4.756h-260v95.385h300q7.192 0 12.058 5.157 4.865 5.157 4.865 12.166 0 7.01-4.865 11.767-4.866 4.756-12.058 4.756h-300v94.872h220q7.192 0 12.058 4.909 4.865 4.91 4.865 12.167t-4.865 12.014Q802.577 756 795.385 756H455.359l25.436 51.026q12.795 25.154 7.474 52.679-5.32 27.526-24.833 47.039l-2.923 2.923q-5.641 5.564-12.821 5.692-7.179.128-12.743-4.923L260.513 736Z"/></svg>