<svg xmlns="http://www.w3.org/2000/svg" height="20" viewBox="0 -960 960 960" width="20"><path d="M195.69-237.54q-22.27 0-37.91-15.64-15.63-15.64-15.63-37.94v-378.09q0-22.29 15.63-37.77 15.64-15.48 37.91-15.48h568.62q22.27 0 37.91 15.57 15.63 15.57 15.63 37.77v182.89Q791.5-514.54 757-529.85q-34.5-15.3-72.69-15.67h104.61v-123.4q0-10.77-6.92-17.7-6.92-6.92-17.69-6.92H527.38v157.42h110.77q-74.77 4.74-126.75 68.79-51.98 64.06-51.98 126.06 0 27.41 6.6 53.51 6.6 26.11 19.75 50.22H195.69Zm649.19 95.39-97.96-97.2q-17.65 10.85-36.84 18.02-19.19 7.18-39.47 7.18-51.25 0-87.39-36.39-36.14-36.4-36.14-87.03 0-51.08 36.16-87.22 36.16-36.13 87.25-36.13t87.22 36.17q36.14 36.17 36.14 86.97 0 20.8-6.41 40.5-6.4 19.7-19.17 36.2l97.58 97.58-20.97 21.35ZM670.2-243.08q39.53 0 67.13-27.33 27.59-27.34 27.59-66.87t-27.38-67.12Q710.15-432 670.91-432q-39.72 0-67.31 27.39-27.6 27.38-27.6 66.62 0 39.72 27.34 67.32 27.33 27.59 66.86 27.59Z"/></svg>