<svg xmlns="http://www.w3.org/2000/svg" height="40" viewBox="0 -960 960 960" width="40"><path d="M195.26-251.62v-473.12 473.12Zm218.59 113.44v-204.55l50.12-145.82q2.82-8.33 10.15-13.53 7.32-5.2 16.17-5.2h270.09q9.43 0 16.64 5.2 7.21 5.2 10.03 13.53l50.13 145.82v204.55q0 7.29-4.04 11.32-4.03 4.04-11.11 4.04h-4.74q-6.42 0-10.6-4.04-4.18-4.03-4.18-11.32v-46.74h-354v46.74q0 7.29-4.28 11.32-4.27 4.04-11.18 4.04h-4.31q-6.54 0-10.72-4.04-4.17-4.03-4.17-11.32Zm41.25-234.28h340.82L760.61-478.9H491.22L455.1-372.46Zm72.03 128.87q14.69 0 24.82-10.13t10.13-24.82q0-13.96-10.13-24.2-10.13-10.23-24.82-10.23t-24.82 10.23q-10.13 10.24-10.13 24.46 0 14.21 10.13 24.45 10.13 10.24 24.82 10.24Zm196.77 0q13.96 0 24.45-10.13 10.5-10.13 10.5-24.82 0-13.96-10.5-24.2-10.49-10.23-24.71-10.23t-24.45 10.23q-10.24 10.24-10.24 24.46 0 14.21 10.13 24.45 10.13 10.24 24.82 10.24Zm-281.67 30.56H808.8v-131.33H442.23v131.33Zm-334.4 10.21q-10.42 0-17.71-7.2-7.3-7.2-7.3-17.49 0-10.28 7.3-17.19 7.29-6.92 17.71-6.92h54.99v-448.51q0-23.13 16.96-40.09 16.96-16.96 40.09-16.96h480.26q23.13 0 40.09 16.96 16.96 16.96 16.96 40.09v88.45q0 7.13-4.82 11.85-4.82 4.73-11.19 4.73-7.2 0-11.81-4.73-4.62-4.72-4.62-11.85v-88.45q0-10.77-6.92-17.69-6.92-6.92-17.69-6.92H219.87q-10.77 0-17.69 6.92-6.92 6.92-6.92 17.69v448.51h106.47q10.12 0 17.21 7.01 7.09 7 7.09 17 0 10.52-7.09 17.65-7.09 7.14-17.21 7.14h-193.9Zm334.4-10.21v-131.33 131.33Z"/></svg>