<svg xmlns="http://www.w3.org/2000/svg" height="40" width="40"><path d="M20.042 19.792Q25.375 19.792 30.021 21.771Q34.667 23.75 38.25 27.667Q38.833 28.292 38.833 29.208Q38.833 30.125 38.25 30.75L34.417 34.583Q33.958 35.042 33.083 35.083Q32.208 35.125 31.667 34.667L26.375 30.75V24.167Q24.792 23.625 23.208 23.396Q21.625 23.167 20.042 23.167Q18.417 23.167 16.812 23.396Q15.208 23.625 13.625 24.167V30.75L8.417 34.667Q7.792 35.125 6.958 35.104Q6.125 35.083 5.625 34.583L1.75 30.75Q1.167 30.125 1.167 29.208Q1.167 28.292 1.75 27.667Q5.375 23.75 10.021 21.771Q14.667 19.792 20.042 19.792ZM7.083 31.292 10.125 29.083V25.5Q8.75 26.208 7.479 27.146Q6.208 28.083 5.042 29.167ZM32.917 31.292 35 29.167Q33.833 27.958 32.5 27.062Q31.167 26.167 29.792 25.417V28.917ZM19.958 18.042 11.667 9.667V14.042H8.25V3.875H18.458V7.25H13.958L20 13.25L29.542 3.667L31.958 6.042ZM29.792 25.417Q29.792 25.417 29.792 25.417Q29.792 25.417 29.792 25.417ZM10.125 25.5Q10.125 25.5 10.125 25.5Q10.125 25.5 10.125 25.5Z"/></svg>