<svg xmlns="http://www.w3.org/2000/svg" height="20" width="20"><path d="M10.021 10.062q2.791 0 5.156 1.042 2.365 1.042 4.219 2.979.354.396.364.907.011.51-.364.906l-1.938 1.875q-.312.312-.77.333-.459.021-.834-.25l-2.896-2.166v-2.834q-.687-.271-1.396-.344-.708-.072-1.541-.072-.792 0-1.531.072-.74.073-1.428.344v2.834l-2.895 2.166q-.355.25-.823.24-.469-.011-.761-.323L.625 15.896Q.25 15.5.26 14.99q.011-.511.365-.907 1.917-1.854 4.292-2.937 2.375-1.084 5.104-1.084Zm-6.5 5.376 1.187-.917v-.688q-.416.25-.802.511-.385.26-.864.614Zm12.979 0 .458-.48q-.416-.291-.833-.593-.417-.303-.792-.49v.646ZM9.958 9.417 6.146 5.604v1.729H3.771V1.604h5.687v2.354H7.833l2.125 2.104 4.73-4.729 1.666 1.688Zm5.375 4.458Zm-10.625-.042Z"/></svg>