<svg xmlns="http://www.w3.org/2000/svg" height="40" viewBox="0 -960 960 960" width="40"><path d="M56.75-56.75v-85.28h78.88q-40.6-24.82-64.69-66.57-24.1-41.74-24.1-91.84 0-77.18 56.28-131.86 56.28-54.68 136.77-54.68v85.43q-44.8 0-76.21 30.13-31.4 30.12-31.4 72.65 0 37.84 24.86 65.9 24.87 28.06 62.01 34.36v-105.91h85.27v247.67H56.75ZM271-607.65h418.16v-80.18H271v80.18ZM371.09-99.8v-173.63h192.03v-80.22H371.09v-86.64h318.07v-80.22H371.09v-33.14H99.8v-217.29q0-36.21 26.56-62.82 26.56-26.6 62.7-26.6h581.88q36.21 0 62.82 26.6 26.6 26.61 26.6 62.82v581.88q0 36.14-26.6 62.7-26.61 26.56-62.82 26.56H371.09Z"/></svg>