<svg xmlns="http://www.w3.org/2000/svg" height="24" width="24"><path d="M7 18.2H10.625V14.875H13.2V11.55H15.775V8.2H17Q17.5 8.2 17.85 7.85Q18.2 7.5 18.2 7Q18.2 6.5 17.85 6.15Q17.5 5.8 17 5.8H13.375V9.125H10.8V12.45H8.225V15.8H7Q6.5 15.8 6.15 16.15Q5.8 16.5 5.8 17Q5.8 17.5 6.15 17.85Q6.5 18.2 7 18.2ZM5.075 22Q3.8 22 2.9 21.1Q2 20.2 2 18.925V5.075Q2 3.8 2.9 2.9Q3.8 2 5.075 2H18.925Q20.2 2 21.1 2.9Q22 3.8 22 5.075V18.925Q22 20.2 21.1 21.1Q20.2 22 18.925 22ZM5.075 18.925H18.925Q18.925 18.925 18.925 18.925Q18.925 18.925 18.925 18.925V5.075Q18.925 5.075 18.925 5.075Q18.925 5.075 18.925 5.075H5.075Q5.075 5.075 5.075 5.075Q5.075 5.075 5.075 5.075V18.925Q5.075 18.925 5.075 18.925Q5.075 18.925 5.075 18.925ZM5.075 18.925Q5.075 18.925 5.075 18.925Q5.075 18.925 5.075 18.925V5.075Q5.075 5.075 5.075 5.075Q5.075 5.075 5.075 5.075Q5.075 5.075 5.075 5.075Q5.075 5.075 5.075 5.075V18.925Q5.075 18.925 5.075 18.925Q5.075 18.925 5.075 18.925Z"/></svg>