<svg xmlns="http://www.w3.org/2000/svg" height="20" viewBox="0 -960 960 960" width="20"><path d="M266.46-358.39q-12.05 2-24.11 1.5-12.06-.5-25.04-2.5-57.72-7.61-96.59-51.85-38.87-44.25-38.87-103.2 0-63.48 36.32-98.91 36.33-35.42 85.29-19.57 11.08-18.46 26.81-28.19 15.73-9.73 36.91-9.73 51.15 0 93.75 49.37 42.61 49.38 42.61 108.27 0 58.89-41.38 105.93-41.37 47.04-95.7 48.88 44.84-5.52 69.88-31.25 25.05-25.72 19.21-61.7-1.16-7.2-2.78-14.51-1.62-7.3-5.23-16.73 7.23-13.12 11.35-28.32 4.11-15.2 4.11-30.66 0-44.22-31.38-80.64-31.39-36.41-70.21-36.41-15.73 0-26.66 7.4-10.93 7.41-21.06 22.9-1.46-1.23-4.84-2.11-3.39-.89-5.39-1.89-8.84 12.85-12.07 21.73-3.23 8.89-18.23 67.58-11.75 12.85-17.92 30.19-6.16 17.35-6.16 37.57 0 28.31 14.75 52.64 14.75 24.33 39.9 38.12 12.58 12.86 28.36 19.98 15.77 7.11 34.37 6.11Zm69.23-67.21q0 23.63-22.15 39.5-22.15 15.87-55.26 15.87-15.22 0-29.09-3.31t-25.73-10.92q-15.84-16.46-24.57-46.12-8.73-29.67-8.73-68.32 0-10.79.69-23.33t2.47-20.97q4.45-4.21 8.87-7.32 4.43-3.1 9.43-4.94-1 5.66-1.5 11.62-.5 5.96-.5 11.31 0 49.27 18.27 76.59t50.77 27.32q16.97 0 33.46-7.23 16.5-7.23 34.96-23.07 3.76 9.18 6.19 17.39 2.42 8.2 2.42 15.93Zm-8.91-33.32q-10.93-27.7-34.08-53.5t-49.47-39.38q-13.12-7.35-25.81-8.27-12.68-.92-25.8 4.59 2-21.06 7.73-39.85 5.73-18.8 14.34-32.98 47.31 24.62 82.09 62.4 34.77 37.77 51.37 82.77-4.61 7.55-9.73 13.08-5.11 5.52-10.64 11.14Zm156.45 168.76v-166.02h-35.54v-45.9h92.92v211.92h-57.38Zm27.08-232.38q-13.46 0-23.39-9.62-9.92-9.62-9.92-23.19 0-13.57 9.92-24 9.93-10.42 23.39-10.42t23.88 10.42q10.42 10.43 10.42 24t-10.42 23.19q-10.42 9.62-23.88 9.62Zm97.54 232.38v-165.76h-33.54v-46.16h33.54v-15.66q0-34.11 16.65-51.76t48.96-16.65q14.23 0 23.93 1.5 9.69 1.5 18.61 4.26v47.01q-11.31-4.23-26.08-5-12.15 0-18.23 6.51-6.08 6.52-6.08 19.56v10.18H716v46.12h-50.16v165.85h-57.99Zm227.78 1q-32.82 0-49.22-16.92Q770-323.01 770-357.71v-98.6h-31.92v-46.15h32.37v-83.69H828v83.86h50.15v45.98l-50.77.39v93.03q0 12.77 5.8 19.18 5.79 6.4 18.28 6.4 4.38 0 18.46-2.61V-293q-9.23 1.84-15.01 2.84-5.79 1-19.28 1Z"/></svg>