<svg xmlns="http://www.w3.org/2000/svg" height="48" viewBox="0 -960 960 960" width="48"><path d="M216-331q-15 2-29.5 2t-30.65-2.2Q85-340 37.5-393.88-10-447.76-10-520.73q0-78.27 44.47-122.25 44.48-43.97 104.42-24.62 14.5-23.2 34.61-35.8 20.1-12.6 44.68-12.6 62.82 0 115.32 61.22Q386-593.56 386-520.55q0 72.43-51.99 130.34T216-330q55.96-6.77 86.98-38.66Q334-400.55 327-445q-1-8-3.5-18t-6.5-22q10-17 15-35t5-37.88Q337-611 297.83-656q-39.18-45-86.87-45-19.96 0-33.46 9T151-663q-25.82-14-18.18-9.5 7.64 4.5 5.74 3.5-13.33 22.75-21.94 48.38Q108-595 102-556q-15 15-22 35.92t-7 45.81q0 35.27 17.74 65.89 17.73 30.62 48.77 47.32 15.52 15.59 34.92 23.32Q193.83-330 216-331Zm85-81.59q0 29.74-26.35 48.66Q248.3-345 207.67-345 189-345 171-349t-32.44-11.79q-19.32-20.46-29.44-57.12Q99-454.56 99-502.31q0-12.74.5-27.72.5-14.97 2.41-25.64 4.77-5.33 10.54-9.33 5.78-4 11.55-7-1 7-1 14v14q0 61.16 22 95.08T207.06-415q20.65 0 41.8-9.5Q270-434 292-453q5 12 7 22t2 18.41ZM292-453q-15-34-43-66t-60.3-48.96q-16.7-9.04-32.96-9.99-16.26-.95-31.74 5.95 3-27.02 10-50.01T151-663q37.72 9.69 90.92 67.17 53.19 57.48 74.08 111.35-5 8.98-10.88 16.6-5.88 7.62-13.12 14.88Zm193.47 208v-204.96H441V-507h114v262h-69.53ZM518-531q-17.57 0-29.78-12.14Q476-555.27 476-572.93q0-17.64 12.1-29.85Q500.21-615 517.6-615q17.4 0 29.4 12.22 12 12.21 12 29.85 0 17.66-11.93 29.79Q535.14-531 518-531Zm120 285v-203.95h-43v-57.79h42.96v-19.36q0-42.14 20.52-63.02Q679-611 719-611q16.22 0 28.11 2t22.89 4.5v57.5q-21-7-32.22-5-14.28 0-22.03 8.02-7.75 8.01-7.75 24.05v11.63h62v58.3h-60.71v204H638Zm281.54 1q-41.01 0-60.77-21.31Q839-287.62 839-329.15v-120.83h-40V-507h39.96v-104H910v103.98h60V-450h-62v113.83q0 15.65 7.28 23.86 7.28 8.22 22.97 8.22 4.86 0 22.75-2.89v57.06Q948-247 941.74-246q-6.25 1-22.2 1Z"/></svg>