<svg xmlns="http://www.w3.org/2000/svg" height="40" viewBox="0 -960 960 960" width="40"><path d="M684.053-118.514q-7.174 0-14.206-1.511-7.032-1.51-13.419-5.62l-122.979-72.087q-12.685-7.574-19.926-19.988-7.24-12.414-7.24-27.128v-144.354q0-14.763 7.24-27.184 7.241-12.421 19.926-20.02l123.218-71.928q6.434-3.461 13.466-5.176 7.032-1.715 14.019-1.715 6.986 0 13.513 1.735 6.528 1.734 13.072 5.174l123.365 71.91q12.352 7.749 20.093 20.165 7.74 12.416 7.74 27.132v144.392q0 14.703-7.626 27.108-7.627 12.405-20.341 19.808L710.79-125.645q-6.442 3.558-13.06 5.345-6.618 1.786-13.677 1.786Zm-283.404-367.58q-68.163 0-112.421-44.243-44.257-44.243-44.257-112.406 0-68.163 44.243-112.413 44.242-44.25 112.405-44.25 68.164 0 112.533 44.235 44.37 44.236 44.37 112.399 0 68.163-44.355 112.42-44.355 44.258-112.518 44.258ZM79.971-161.21v-103.174q0-36.782 18.956-65.637 18.957-28.856 50.124-43.515 67.667-31.167 130.558-45.779 62.891-14.612 120.952-14.612h13.708q7.936 0 13.956.666-6.479 15.326-11.866 33.703-5.388 18.377-7.881 38.21h-7.248q-55.991 0-110.388 12.394-54.398 12.393-109.932 39.78-14.175 7.303-21.347 19.544-7.172 12.242-7.172 26.283v29.585h257.926q5.023 20.784 14.556 39.146 9.533 18.363 21.054 33.406H79.971Zm320.66-397.304q36 0 60.155-24.129 24.156-24.128 24.156-60.138 0-36.076-24.12-60.141-24.121-24.064-60.12-24.064-35.999 0-60.155 24.086t-24.156 60.037q0 36.049 24.121 60.199 24.12 24.15 60.119 24.15Zm.036-84.276Zm9.681 409.16Zm177.159-171.703 96.432 56.818 96.605-56.818-96.355-55.479-96.682 55.479ZM711.268-189.63l96.443-54.875v-112.394l-96.443 56.979v110.29Zm-150.761-55.073 96.776 56.74v-111.056l-96.776-55.713v110.029Z"/></svg>