<svg xmlns="http://www.w3.org/2000/svg" height="24" viewBox="0 -960 960 960" width="24"><path d="M816.5-37.5 39-815l53.5-53.5L870-91l-53.5 53.5ZM236-831h557.5v150h75v75h-75v88.5h75v75h-75v88.5h75v75H788l-69.5-69.5V-756H311l-75-75Zm208.5 208.5L386-681h58.5v58.5Zm62 62L482-585v-96h161.5v120.5h-137Zm137 136.5-99-99h99v99ZM413-441Zm102-112ZM241.5-279v-162h203v162h-203Zm-105-545.5L205-756h-38.5v552h552v-38.5l72 72v41.5h-699v-695.5h45ZM482-479l161.5 161.5v38.5H482v-200ZM280-681l164.5 164.5v38h-203V-681H280Z"/></svg>