<svg xmlns="http://www.w3.org/2000/svg" height="20" viewBox="0 -960 960 960" width="20"><path d="M125.78-646.78q-20.38 0-34.69-14.31-14.31-14.31-14.31-34.69v-138.44q0-20.38 14.31-34.69 14.31-14.31 34.69-14.31h708.44q20.38 0 34.69 14.31 14.31 14.31 14.31 34.69v138.44q0 20.38-14.31 34.69-14.31 14.31-34.69 14.31H125.78Zm0 570q-20.38 0-34.69-14.31-14.31-14.31-14.31-34.69v-138.44q0-20.38 14.31-34.69 14.31-14.31 34.69-14.31h138.44q20.38 0 34.69 14.31 14.31 14.31 14.31 34.69v138.44q0 20.38-14.31 34.69-14.31 14.31-34.69 14.31H125.78Zm284.44 0q-20.39 0-34.7-14.31-14.3-14.31-14.3-34.69v-138.44q0-20.38 14.3-34.69 14.31-14.31 34.7-14.31h139.56q20.39 0 34.7 14.31 14.3 14.31 14.3 34.69v138.44q0 20.38-14.3 34.69-14.31 14.31-34.7 14.31H410.22Zm285.56 0q-20.38 0-34.69-14.31-14.31-14.31-14.31-34.69v-138.44q0-20.38 14.31-34.69 14.31-14.31 34.69-14.31h138.44q20.38 0 34.69 14.31 14.31 14.31 14.31 34.69v138.44q0 20.38-14.31 34.69-14.31 14.31-34.69 14.31H695.78Zm-570-284.44q-20.38 0-34.69-14.3-14.31-14.31-14.31-34.7v-139.56q0-20.39 14.31-34.7 14.31-14.3 34.69-14.3h138.44q20.38 0 34.69 14.3 14.31 14.31 14.31 34.7v139.56q0 20.39-14.31 34.7-14.31 14.3-34.69 14.3H125.78Zm284.44 0q-20.39 0-34.7-14.3-14.3-14.31-14.3-34.7v-139.56q0-20.39 14.3-34.7 14.31-14.3 34.7-14.3h139.56q20.39 0 34.7 14.3 14.3 14.31 14.3 34.7v139.56q0 20.39-14.3 34.7-14.31 14.3-34.7 14.3H410.22Zm285.56 0q-20.38 0-34.69-14.3-14.31-14.31-14.31-34.7v-139.56q0-20.39 14.31-34.7 14.31-14.3 34.69-14.3h138.44q20.38 0 34.69 14.3 14.31 14.31 14.31 34.7v139.56q0 20.39-14.31 34.7-14.31 14.3-34.69 14.3H695.78Z"/></svg>