<svg xmlns="http://www.w3.org/2000/svg" height="20" viewBox="0 -960 960 960" width="20"><path d="M556.11-407.28ZM393.65-135.63v-83.24h289.91v-377.06h-78.21q-12.96 0-25.67 5.76-12.7 5.76-20.98 15.04l-67 66q-14 14-30.27 24.26-16.26 10.26-32.78 16.74v120.65h-83.24v-118.65q-52.24-13.2-86.6-54.74-34.35-41.55-34.35-97.19 0-51.29 28.95-92.22 28.96-40.94 77.2-55.94 20.43-47.95 63.9-76.93 43.47-28.98 96.12-28.98 29.59 0 58.13 10.5 28.54 10.5 52.02 29.26 6.57-.76 14.64-2.14 8.06-1.38 17.41-1.38 67.32 0 115.27 47.14 47.94 47.15 47.94 115.08 0 19.28-4.56 35.95t-11.76 31.5l59.08.24q34.55.24 58.66 24.25t24.11 58.75v230.91q0 34.49-24.26 58.75-24.26 24.25-58.74 24.25H766.8v73.44H393.65Zm-18.98-410.11q17.2 0 31.02-4.14 13.83-4.14 27.11-17.42l67.48-66.48q20.8-21.03 47.86-32.97 27.07-11.95 57.21-11.95l106.98-.23q-1.68-31.18-24.61-52.19-22.94-21.01-54.89-21.01-11.76 0-22.29 3.5-10.52 3.5-20.28 8.26l-13.63 7.2-7.63-11.16q-13.76-19.52-34.48-31.78-20.72-12.26-43.89-12.26-35.83 0-61.86 23.4t-30.31 58.21l-1.72 13.91-15.39.96q-33.05-.48-54.59 22.85-21.54 23.33-19.54 54.84 1 28.33 20.19 47.4 19.19 19.06 47.26 21.06ZM766.8-291.83h71.77v-231.15H766.8v231.15ZM159.87-170.87h233.78v-93.61H159.87v93.61Zm0 83q-37.78 0-60.39-22.61t-22.61-60.39v-176.61h399.78v176.61q0 37.78-22.61 60.39t-60.39 22.61H159.87Zm0-83h233.78-233.78Z"/></svg>