<svg xmlns="http://www.w3.org/2000/svg" height="24" viewBox="0 -960 960 960" width="24"><path d="M298.46-70.78q-61.91 0-104.79-42.89-42.89-42.88-42.89-104.79v-523.58q0-61.49 42.89-104.58 42.88-43.1 104.79-43.1h510.76v618.94q-21.48 0-35.65 15.67-14.18 15.68-14.18 36.64 0 21.99 14.18 37.17 14.17 15.17 35.65 15.17v95.35H298.46ZM343.35-440h60.3l20.48-59.7h109.61l20.48 59.7h61.43L512.48-720h-66.96L343.35-440Zm98.17-112 35.35-104.7h3.56L516.35-552h-74.83ZM298.46-166.13h376.13q-5.31-11.74-7.93-25.23t-2.62-27.1q0-13.67 2.66-27.13 2.65-13.45 7.89-25.19H298.46q-21.98 0-37.16 15.67-15.17 15.68-15.17 36.64 0 21.99 15.17 37.17 15.18 15.17 37.16 15.17Z"/></svg>