<svg xmlns="http://www.w3.org/2000/svg" height="48" viewBox="0 -960 960 960" width="48"><path d="M815.39-60h-258.3q-17.38 0-30.24-12.79Q514-85.57 514-102.95v-257.18q0-17.37 12.98-30.37t30.21-13h257.96q17.43 0 30.14 13.18T858-359.84v84.67l86.5-84.84V-102L858-188.17v85.34q0 17.21-12.69 30.02Q832.62-60 815.39-60ZM480-480Zm-2.95-127.5q-54.35 0-90.95 37.42-36.6 37.41-36.6 90.35 0 43.23 24.5 76.23 24.5 33 63.5 45v-82.99q-6.83-5.39-10.67-16.7Q423-469.5 423-480.08q0-22.64 15.28-38.28T476.53-534q21.97 0 37.72 15.02T530-482h73.5q-1-51.5-38.05-88.5t-88.4-37ZM369-60l-21-132.5q-7.5-1.5-24.75-11.25T289-225l-123 57L52.5-369l113-82q-1-6.01-1.5-13.99-.5-7.97-.5-15.01 0-5.54.5-14.25t1.5-15.75l-113-83L166-791.5 292.25-735q8.75-7.5 25-16.75T348-765.5l20.98-136H591.5l21 134.5q12.81 5.05 29.65 14.03Q659-744 670-735l125.5-56.5L908-593l-115.5 82.04q-.5 5.96.75 14.71T794.5-482H701q1-20.1-2-35.72-3-15.63-7-32.03l93.5-67.75-31-58.5-106 46.5q-22.5-27-53.2-46-30.71-19-65.57-23L515.59-809H443.9l-12.4 110.54q-36.89 6.46-66.95 23.96-30.05 17.5-55.05 45L206-676l-32 58.5 91 65.5q-4 18.5-7 36.32t-3 35.15q0 18.42 2.75 36.48 2.75 18.05 6.75 35.55L174-343l31.86 58.5 103.64-46q25 26.69 57.75 44.35Q400-268.5 435.5-259.5V-60H369Z"/></svg>