<svg xmlns="http://www.w3.org/2000/svg" height="20" viewBox="0 -960 960 960" width="20"><path d="M788.84-64.77 66.46-786.15q-12.3-12.31-12-27.39.31-15.07 13-27.77Q80.16-854 95.04-854q14.88 0 27.58 12.69L844-119.93q12.31 12.31 12 27.39-.31 15.08-13 27.77t-27.08 12.69q-14.38 0-27.08-12.69ZM187.69-774.23 725-238.92q-9.92 26-30.85 41.46Q673.23-182 636.46-182H221.08q-37.31 0-63.81-26t-26.5-64.31v-415.38q0-32.77 16.46-55.19 16.46-22.43 40.46-31.35Zm102.77 434.38h276.31v-17.3q0-34.85-38.73-57.77-38.73-22.93-99.42-22.93-59.7 0-98.93 22.93-39.23 22.92-39.23 57.77v17.3Zm552.15 21.31L715.46-448.69v9.92q-1.15 23.31-24.15 31.04t-41-10.27L366.77-701.54q-9.85-9.84-11.65-23.38-1.81-13.54 2.42-25.39 4.23-11.84 15.46-19.77 11.23-7.92 25.69-7.92h237.77q38.31 0 64.31 26t26 64.31v156.08l115.84-115.85q9.85-9.85 24.39-4.42 14.54 5.42 14.54 19.88v298q0 14.46-14.54 19.88-14.54 5.43-24.39-4.42Z"/></svg>