<svg xmlns="http://www.w3.org/2000/svg" height="24" width="24"><path d="M12.025 2.9 9.55 5.375q-.325.3-.712.287-.388-.012-.688-.287-.325-.3-.325-.713 0-.412.325-.712l3.1-3.125Q11.575.5 12.013.5q.437 0 .762.325L15.9 3.95q.3.3.3.7 0 .4-.325.7-.3.3-.7.3-.4 0-.7-.3Zm0 5L9.55 10.375q-.325.3-.712.287-.388-.012-.688-.312-.325-.3-.325-.7 0-.4.325-.725l3.1-3.1q.325-.325.763-.325.437 0 .762.325l3.125 3.1q.3.325.3.725 0 .4-.325.7-.3.3-.7.3-.4 0-.7-.3Zm0 8.175L14.5 13.6q.3-.3.688-.3.387 0 .712.3.3.3.3.7 0 .4-.3.7l-3.125 3.125q-.325.35-.762.35-.438 0-.763-.35l-3.1-3.1q-.275-.3-.287-.7-.013-.4.287-.7.3-.3.7-.3.4 0 .7.3Zm0 5 2.475-2.5q.3-.275.688-.275.387 0 .712.3.3.3.3.7 0 .4-.3.7l-3.125 3.125q-.325.325-.762.325-.438 0-.763-.325l-3.1-3.1q-.275-.3-.287-.7-.013-.4.287-.7.3-.3.7-.3.4 0 .7.275Z"/></svg>