<svg xmlns="http://www.w3.org/2000/svg" height="48" viewBox="0 -960 960 960" width="48"><path d="M653-694q19 0 33-14t14-33q0-19-14-33t-33-14q-19 0-33 14t-14 33q0 19 14 33t33 14Zm-173 0q19 0 33-14t14-33q0-19-14-33t-33-14q-19 0-33 14t-14 33q0 19 14 33t33 14Zm-173 0q19 0 33-14t14-33q0-19-14-33t-33-14q-19 0-33 14t-14 33q0 19 14 33t33 14Zm-118 73v432h582v-432H189Zm223.956 150h135.579q14.998 0 25.232-10.37Q584-491.74 584-507.07q0-14.905-10.337-24.917Q563.325-542 548.044-542H412.465q-14.998 0-25.232 10.088-10.233 10.087-10.233 25Q377-492 387.337-481.5q10.338 10.5 25.619 10.5ZM189-95q-39.05 0-66.525-27.475Q95-149.95 95-189v-582q0-39.463 27.475-67.231Q149.95-866 189-866h582q39.463 0 67.231 27.769Q866-810.463 866-771v582q0 39.05-27.769 66.525Q810.463-95 771-95H189Zm291-526Zm0 0Z"/></svg>