<svg xmlns="http://www.w3.org/2000/svg" height="48" viewBox="0 -960 960 960" width="48"><path d="M651.75-707.43q12.92 0 22.87-9.95 9.95-9.95 9.95-22.87 0-12.92-9.99-22.87-9.98-9.95-22.58-9.95-13.17 0-23.12 9.99-9.95 9.98-9.95 22.58 0 13.17 9.95 23.12 9.95 9.95 22.87 9.95Zm-171.75 0q13.17 0 23.12-9.95 9.95-9.95 9.95-22.87 0-12.92-9.95-22.87-9.95-9.95-23.12-9.95-13.17 0-22.87 10.06-9.7 10.05-9.7 22.76t9.7 22.76q9.7 10.06 22.87 10.06Zm-171.75 0q12.92 0 22.87-9.95 9.95-9.95 9.95-22.87 0-12.92-9.99-22.87-9.98-9.95-22.58-9.95-13.17 0-23.12 9.99-9.95 9.98-9.95 22.58 0 13.17 9.95 23.12 9.95 9.95 22.87 9.95ZM184.15-625v440.85h591.7V-625h-591.7Zm233.64 145h125.03q12.79 0 21.55-8.83 8.76-8.83 8.76-21.51 0-12.57-8.78-21.18-8.79-8.61-21.64-8.61H417.68q-12.79 0-21.3 8.87-8.51 8.87-8.51 21.23 0 12.35 8.53 21.19 8.54 8.84 21.39 8.84ZM184.15-118.52q-26.57 0-46.1-19.53t-19.53-46.1v-591.7q0-26.66 19.53-46.27 19.53-19.6 46.1-19.6h591.7q26.66 0 46.27 19.6 19.6 19.61 19.6 46.27v591.7q0 26.57-19.6 46.1-19.61 19.53-46.27 19.53h-591.7ZM480-625Zm0 0Z"/></svg>