<svg xmlns="http://www.w3.org/2000/svg" height="20" viewBox="0 -960 960 960" width="20"><path d="M240-111.39q-53.65 0-91.13-37.48T111.39-240q0-53.65 37.48-91.13T240-368.61q53.65 0 91.13 37.48T368.61-240q0 53.65-37.48 91.13T240-111.39Zm480 0q-53.65 0-91.13-37.48T591.39-240q0-53.65 37.48-91.13T720-368.61q53.65 0 91.13 37.48T848.61-240q0 53.65-37.48 91.13T720-111.39Zm-239.78-220.3q-26.76 0-45.64-18.67-18.89-18.66-18.89-45.42t18.67-45.64q18.66-18.89 45.42-18.89t45.64 18.67q18.89 18.66 18.89 45.42t-18.67 45.64q-18.66 18.89-45.42 18.89Zm-.22-211.7q-53.65 0-91.13-37.48T351.39-672q0-53.65 37.48-91.13T480-800.61q53.65 0 91.13 37.48T608.61-672q0 53.65-37.48 91.13T480-543.39Z"/></svg>