<svg xmlns="http://www.w3.org/2000/svg" height="40" width="40"><path d="m23.417 17.542 3.083-1.834 3.042 1.834q.416.291.854.041.437-.25.437-.75V6h-8.75v10.833q0 .5.438.75.437.25.896-.041Zm-11.5 14.416q-1.417 0-2.459-1.062-1.041-1.063-1.041-2.438V6q0-1.417 1.041-2.458Q10.5 2.5 11.917 2.5h22.458q1.417 0 2.458 1.042Q37.875 4.583 37.875 6v22.458q0 1.375-1.042 2.438-1.041 1.062-2.458 1.062Zm-6.25 6.25q-1.417 0-2.459-1.041-1.041-1.042-1.041-2.459V10.5q0-.708.5-1.208t1.208-.5q.75 0 1.271.5.521.5.521 1.208v24.208h24.166q.75 0 1.25.521t.5 1.229q0 .75-.5 1.25t-1.25.5Z"/></svg>