<svg xmlns="http://www.w3.org/2000/svg" height="24" viewBox="0 -960 960 960" width="24"><path d="M480-120.65q-92.39 0-156.94-64.55-64.54-64.54-64.54-156.93 0-76.13 45.5-134.42 45.5-58.29 114.5-78.36v-131.22l-9.22 8.65q-18 17.83-43.02 18.11-25.02.28-42.85-17.54-18.39-17.83-18.39-43.22t18.39-43.22l113.92-113.91q8.49-8.75 19.72-13.01 11.23-4.25 22.93-4.25t22.93 4.25q11.23 4.26 19.72 13.01l113.92 113.91q18.39 17.58 18.39 43.15 0 25.58-17.41 43.35-18.64 17.76-43.95 17.76-25.3 0-42.9-17.82l-9.22-9.22v131.22q69 20.07 114.5 78.36t45.5 134.42q0 92.39-64.54 156.93-64.55 64.55-156.94 64.55Zm-.13-122.96q41.32 0 69.99-28.57 28.66-28.57 28.66-69.95 0-40.63-28.53-69.57-28.53-28.95-69.86-28.95-41.32 0-69.99 28.95-28.66 28.94-28.66 69.85t28.53 69.58q28.53 28.66 69.86 28.66Zm.13-98.52Z"/></svg>