<svg xmlns="http://www.w3.org/2000/svg" height="20" width="20"><path d="M15.396 9.5q-.458 0-.813-.344-.354-.344-.354-.823V6.979l.021-.021q-.375.354-.844.313-.468-.042-.802-.375-.375-.375-.375-.823 0-.448.375-.802l1.958-1.959q.355-.374.834-.374t.854.374l1.917 1.959q.375.333.375.802 0 .469-.375.823-.313.333-.75.364-.438.032-.813-.26l-.021-.021v1.354q0 .479-.354.823t-.833.344ZM3 18.167q-.75 0-1.062-.657-.313-.656.124-1.239l3.084-4.104q.354-.479.927-.469.573.01.948.469l2.729 3.645h4.917L11.5 11.604l-1.083 2.146-1.979-2 2.124-2.854q.355-.479.928-.479.572 0 .948.479l5.52 7.375q.438.583.115 1.239-.323.657-1.052.657Zm7.417-2.355Z"/></svg>