<svg xmlns="http://www.w3.org/2000/svg" height="20" viewBox="0 96 960 960" width="20"><path d="M727.022 890.77q-49.33 0-82.407-34.577t-32.307-83.57q0-26.623 12.653-49.431 12.654-22.807 34.27-40.423l67.538-55.077 67.308 54.961q20.846 16.962 34.77 40.539Q842.77 746.769 842 773.308q-.769 48.308-33.577 82.885-32.807 34.577-81.401 34.577ZM480 672q-40 0-68-28t-28-68q0-40 28-68t68-28q40 0 68 28t28 68q0 40-28 68t-68 28Zm-.313 152q-126.475 0-230.427-67.731Q145.307 688.539 91.077 576q54.23-112.539 158.246-180.269Q353.338 328 479.89 328t230.677 67.731Q814.693 463.461 868.923 576q-5.052 9.863-10.526 19.069t-11.474 18.777l-125-101.692-113.384 100.461q3.307-8.077 4.461-17.352 1.154-9.275 1.154-19.263 0-55.898-39.181-95.026-39.181-39.128-95.154-39.128t-94.973 39.181q-39 39.181-39 95.154t39.128 94.973q39.128 39 95.026 39 17.039 0 32.943-4.154 15.903-4.154 29.903-11.461-14.846 29.23-18.038 61.73-3.193 32.5 4.807 64.754-12.461 1.977-24.802 2.477-12.34.5-25.126.5Z"/></svg>