<svg xmlns="http://www.w3.org/2000/svg" height="48" width="48"><path d="M30 21.35Q29.15 21.35 28.725 20.775Q28.3 20.2 28.6 19.4L34.15 4.4Q34.35 3.9 34.9 3.525Q35.45 3.15 36.05 3.15Q36.65 3.15 37.2 3.525Q37.75 3.9 37.95 4.4L43.5 19.45Q43.8 20.25 43.4 20.8Q43 21.35 42.15 21.35Q41.75 21.35 41.45 21.1Q41.15 20.85 41.05 20.5L39.75 16.65H32.55L31.2 20.5Q31.05 20.85 30.7 21.1Q30.35 21.35 30 21.35ZM33.4 14.25H38.8L36.15 6.55H36ZM13.45 43.8Q13.05 44.4 12.4 44.25Q11.75 44.1 11.75 43.4V28H7.3Q6.55 28 6.025 27.475Q5.5 26.95 5.5 26.2V4.9Q5.5 4.15 6.025 3.625Q6.55 3.1 7.3 3.1H23.55Q24.55 3.1 25.05 3.9Q25.55 4.7 25.2 5.6L18 21.8H23.2Q24.2 21.8 24.725 22.7Q25.25 23.6 24.75 24.5Z"/></svg>