<svg xmlns="http://www.w3.org/2000/svg" height="40" viewBox="0 -960 960 960" width="40"><path d="M162.565-164.002q-32.513 0-56.205-23.691-23.692-23.692-23.692-56.205v-472.204q0-32.513 23.692-56.205 23.692-23.691 56.205-23.691h634.87q32.513 0 56.205 23.691 23.692 23.692 23.692 56.205v472.204q0 32.513-23.692 56.205-23.692 23.691-56.205 23.691h-634.87Zm0-67.588h634.87q4.616 0 8.462-3.846 3.847-3.847 3.847-8.462v-472.204q0-4.615-3.847-8.462-3.846-3.846-8.462-3.846h-634.87q-4.616 0-8.462 3.846-3.847 3.847-3.847 8.462v472.204q0 4.615 3.847 8.462 3.846 3.846 8.462 3.846Zm-12.309 0v-496.82 496.82ZM400-440.001l118.411 118.41q11.223 12.026 27.4 12.026t28.445-12.026l154.436-154.102q9.564-8.897 9.564-21.617 0-12.721-9.184-21.872-9.274-9.048-21.728-8.856-12.453.193-21.266 8.962L546-379.999l-117.744-117.41q-12.086-12.026-28.286-11.821-16.201.205-27.559 12.231L231.308-357.307q-9.564 9.397-9.064 22.06.5 12.662 9.684 21.429 9.007 8.663 21.094 8.663 12.087 0 21.567-8.769L400-440.001Zm124.869-112.024 22.798 46.512q2.943 6.282 9.215 6.282t9.161-6.471l19.3-46.502 47.605-21.411q5.615-3.343 5.423-9.415-.192-6.072-5.807-9.149l-47.092-20.626-19.241-46.091q-3.077-5.615-9.616-6.115-6.538-.5-8.948 5.115l-22.677 47.091-46.092 20.626q-5.615 3.344-5.615 9.416 0 6.071 5.615 9.148l45.971 21.59Z"/></svg>