<svg xmlns="http://www.w3.org/2000/svg" height="48" viewBox="0 -960 960 960" width="48"><path d="M341-57q-50 0-88.5-28.5T197-160q-16 33-43 50.5T90-92q-51 0-85-36t-34-85q0-56 36.5-88.5T99-331q-19-20-28.5-47T61-433q0-21 5.5-41T83-512q9-14 25.5-18t30.5 5q15 9 18.5 25.5T152-469q-6 9-8.5 18.5T141-430q0 53 43 67t84 21q7 1 12 5.5t8 10.5q4 5 4.5 11.5T290-301q-10 25-16.5 45.5T267-214q0 30 22 53.5t53 23.5q32 0 54-23.5t37-58q15-34.5 24.5-74T474-364q3-17 16-25.5t29-4.5q17 5 25.5 20.5T549-340q-10 44-24 94t-37.5 92Q464-112 429-84.5T341-57Zm276 1q-16-1-28-12.5T578-97q1-17 12.5-28.5T619-136q32 0 53.5-24t21.5-54q0-22-8-44t-17-47q-2-5-1.5-11t3.5-11q3-5 7.5-8.5T689-340q42-8 86.5-21.5T820-429q0-40-29.5-58.5T725-506q-39 0-85.5 11.5T549-469q-16 6-30.5-1T500-493q-5-16 5-31t27-21q48-16 97-28.5t95-12.5q69 0 122.5 40.5T900-430q0 27-9.5 53.5T863-330q53-3 90.5 30t37.5 88q0 49-34 85t-85 36q-36 0-64.5-18T764-160q-18 47-57 75.5T617-56ZM346-409q-52-47-99-104.5T200-639q0-64 45-109t109-45q7 0 15.5.5T383-791q-12-19-17.5-34.5T360-857q0-50 35-85t85-35q50 0 85 35t35 85q0 15-5 31t-18 36q7-1 13.5-2t15.5-1q31 0 56.5 11t46.5 28q12 12 13.5 27.5T712-698q-12 13-27.5 13.5T657-696q-9-8-22.5-12.5T606-713q-35 0-57.5 22.5T501-638q-4 6-10.5 8.5T478-627q-5 0-10.5-2.5T458-638q-25-30-47.5-52.5T354-713q-32 0-53 21t-21 53q0 41 38.5 87t85.5 87q13 12 14 28.5T408-409q-13 13-31 12.5T346-409Z"/></svg>