<svg xmlns="http://www.w3.org/2000/svg" height="24" viewBox="0 -960 960 960" width="24"><path d="M240-175.38q-27.62 0-46.12-18.5-18.5-18.5-18.5-46.12 0-27.62 18.5-46.12 18.5-18.5 46.12-18.5 27.62 0 46.12 18.5 18.5 18.5 18.5 46.12 0 27.62-18.5 46.12-18.5 18.5-46.12 18.5Zm320 0q-27.62 0-46.12-18.5-18.5-18.5-18.5-46.12 0-27.62 18.5-46.12 18.5-18.5 46.12-18.5 27.62 0 46.12 18.5 18.5 18.5 18.5 46.12 0 27.62-18.5 46.12-18.5 18.5-46.12 18.5Zm-160-160q-27.62 0-46.12-18.5-18.5-18.5-18.5-46.12 0-27.62 18.5-46.12 18.5-18.5 46.12-18.5 27.62 0 46.12 18.5 18.5 18.5 18.5 46.12 0 27.62-18.5 46.12-18.5 18.5-46.12 18.5Zm320 0q-27.62 0-46.12-18.5-18.5-18.5-18.5-46.12 0-27.62 18.5-46.12 18.5-18.5 46.12-18.5 27.62 0 46.12 18.5 18.5 18.5 18.5 46.12 0 27.62-18.5 46.12-18.5 18.5-46.12 18.5Zm-480-160q-27.62 0-46.12-18.5-18.5-18.5-18.5-46.12 0-27.62 18.5-46.12 18.5-18.5 46.12-18.5 27.62 0 46.12 18.5 18.5 18.5 18.5 46.12 0 27.62-18.5 46.12-18.5 18.5-46.12 18.5Zm320 0q-27.62 0-46.12-18.5-18.5-18.5-18.5-46.12 0-27.62 18.5-46.12 18.5-18.5 46.12-18.5 27.62 0 46.12 18.5 18.5 18.5 18.5 46.12 0 27.62-18.5 46.12-18.5 18.5-46.12 18.5Zm-160-160q-27.62 0-46.12-18.5-18.5-18.5-18.5-46.12 0-27.62 18.5-46.12 18.5-18.5 46.12-18.5 27.62 0 46.12 18.5 18.5 18.5 18.5 46.12 0 27.62-18.5 46.12-18.5 18.5-46.12 18.5Zm320 0q-27.62 0-46.12-18.5-18.5-18.5-18.5-46.12 0-27.62 18.5-46.12 18.5-18.5 46.12-18.5 27.62 0 46.12 18.5 18.5 18.5 18.5 46.12 0 27.62-18.5 46.12-18.5 18.5-46.12 18.5Z"/></svg>