<svg xmlns="http://www.w3.org/2000/svg" height="40" width="40"><path d="M26 17.958Q27 17.958 27.667 17.312Q28.333 16.667 28.333 15.625Q28.333 14.625 27.688 13.958Q27.042 13.292 26.042 13.292Q25 13.292 24.333 13.958Q23.667 14.625 23.667 15.625Q23.667 16.625 24.333 17.292Q25 17.958 26 17.958ZM13.958 17.958Q15 17.958 15.667 17.312Q16.333 16.667 16.333 15.625Q16.333 14.625 15.667 13.958Q15 13.292 14 13.292Q13 13.292 12.333 13.958Q11.667 14.625 11.667 15.625Q11.667 16.625 12.312 17.292Q12.958 17.958 13.958 17.958ZM20 36.708Q16.542 36.708 13.5 35.396Q10.458 34.083 8.188 31.812Q5.917 29.542 4.604 26.5Q3.292 23.458 3.292 20Q3.292 16.542 4.604 13.479Q5.917 10.417 8.188 8.146Q10.458 5.875 13.5 4.583Q16.542 3.292 20 3.292Q23.458 3.292 26.521 4.583Q29.583 5.875 31.854 8.146Q34.125 10.417 35.417 13.479Q36.708 16.542 36.708 20Q36.708 23.5 35.417 26.521Q34.125 29.542 31.854 31.792Q29.583 34.042 26.521 35.375Q23.458 36.708 20 36.708ZM13.625 28.25H26.375Q27.25 28.25 27.625 27.688Q28 27.125 27.5 26.458Q26.208 24.625 24.229 23.625Q22.25 22.625 20 22.625Q17.75 22.625 15.792 23.625Q13.833 24.625 12.5 26.458Q12 27.125 12.375 27.688Q12.75 28.25 13.625 28.25Z"/></svg>