<svg xmlns="http://www.w3.org/2000/svg" height="48" viewBox="0 -960 960 960" width="48"><path d="M114.001-95.826q-34.276 0-58.725-24.95-24.45-24.949-24.45-58.225v-537.607h83.175v537.607h571.478v83.175H114.001Zm137.522-143.175q-31.485 0-54.503-23.236-23.019-23.236-23.019-53.72v-379.781q0-26.453 11.63-50.187 11.631-23.734 33.718-34.379l332.738-194.347 72.653 34.435-54.957 60.956-17.696-5.13-294.391 175.434 294.391 187.434 295.087-187.434-37.218-21.261 59.392-59.392 16.043 9.305q24.391 15.633 34.587 36.604 10.196 20.97 10.196 47.962v379.781q0 30.484-23.353 53.72-23.353 23.236-53.604 23.236H251.523Zm295.26-363.434L427.566-721.652l46.217-45.652 73.463 73 227.972-228.434 45.652 45.651-274.087 274.652Z"/></svg>