<svg xmlns="http://www.w3.org/2000/svg" height="48" viewBox="0 -960 960 960" width="48"><path d="M229-201.15q-12.04 0-19.94-7.91-7.91-7.9-7.91-19.94v-61.88q0-11.16 7.91-19.06 7.9-7.91 19.94-7.91h55.38q11.16 0 19.06 7.91 7.91 7.9 7.91 19.06V-229q0 12.04-7.91 19.94-7.9 7.91-19.06 7.91H229Zm0-143q-12.04 0-19.94-7.47-7.91-7.46-7.91-19.5v-55.38q0-12.04 7.91-19.94 7.9-7.91 19.94-7.91h55.38q11.16 0 19.06 7.91 7.91 7.9 7.91 19.94v55.38q0 12.04-7.91 19.5-7.9 7.47-19.06 7.47H229Zm0-135.62q-12.04 0-19.94-7.9-7.91-7.91-7.91-19.95v-224.26q0-11.16 7.91-19.06 7.9-7.91 19.94-7.91h55.38q11.16 0 19.06 7.91 7.91 7.9 7.91 19.06v224.26q0 12.04-7.91 19.95-7.9 7.9-19.06 7.9H229Zm224.08 278.62q-12.04 0-19.5-7.91-7.46-7.9-7.46-19.94v-219.65q0-11.16 7.46-19.06 7.46-7.91 19.5-7.91h55.38q12.04 0 19.94 7.91 7.91 7.9 7.91 19.06V-229q0 12.04-7.91 19.94-7.9 7.91-19.94 7.91h-55.38Zm0-300.77q-12.04 0-19.5-7.46-7.46-7.47-7.46-19.5v-55.39q0-12.04 7.46-19.94 7.46-7.91 19.5-7.91h55.38q12.04 0 19.94 7.91 7.91 7.9 7.91 19.94v55.39q0 12.03-7.91 19.5-7.9 7.46-19.94 7.46h-55.38Zm0-135.62q-12.04 0-19.5-7.9-7.46-7.91-7.46-19.94v-66.5q0-11.16 7.46-19.06 7.46-7.91 19.5-7.91h55.38q12.04 0 19.94 7.91 7.91 7.9 7.91 19.06v66.5q0 12.03-7.91 19.94-7.9 7.9-19.94 7.9h-55.38ZM676.5-312.08q-12.04 0-19.94-7.46-7.91-7.46-7.91-19.5v-55.38q0-12.04 7.91-19.95 7.9-7.9 19.94-7.9h55.38q11.16 0 19.06 7.9 7.91 7.91 7.91 19.95v55.38q0 12.04-7.91 19.5-7.9 7.46-19.06 7.46H676.5Zm0-135.61q-12.04 0-19.94-7.91-7.91-7.9-7.91-19.94v-256.34q0-11.16 7.91-19.06 7.9-7.91 19.94-7.91h55.38q11.16 0 19.06 7.91 7.91 7.9 7.91 19.06v256.34q0 12.04-7.91 19.94-7.9 7.91-19.06 7.91H676.5Zm0 246.54q-12.04 0-19.94-7.91-7.91-7.9-7.91-19.94v-29.81q0-11.15 7.91-19.06 7.9-7.9 19.94-7.9h55.38q11.16 0 19.06 7.9 7.91 7.91 7.91 19.06V-229q0 12.04-7.91 19.94-7.9 7.91-19.06 7.91H676.5Z"/></svg>