<svg xmlns="http://www.w3.org/2000/svg" height="24" viewBox="0 96 960 960" width="24"><path d="M480 736.478q58.283 0 125.826-20.141 67.544-20.141 187.587-72.663 1.761-10.283 2.261-19.946.5-9.663.5-19.945 0-9.087-7.065-14.892-7.066-5.804-16.152-3.282-14.718 5.239-32.316 11.098-17.598 5.858-41.206 15.663-69.718 28.282-118.837 40.261-49.12 11.978-100.598 11.978-52.478 0-102.598-12.478-50.119-12.479-122.837-40.761-23.13-9.565-38.206-15.044-15.076-5.478-29.076-10.717-9.326-3.522-16.392 2.782-7.065 6.305-7.065 15.631 0 10.282.5 19.826.5 9.543 2.261 19.826 100.043 47.283 177.587 70.043Q421.717 736.478 480 736.478Zm0 160.479q88.739 0 158.391-37.294 69.652-37.293 110.891-100.554-83.695 34.37-147.945 50.174-64.25 15.804-121.337 15.804-56.087 0-124.098-16.304T209.479 759.87q40.478 63.261 110.63 100.174Q390.261 896.957 480 896.957ZM480 496q-67.913 0-116.109-48.196-48.195-48.195-48.195-116.108 0-67.914 48.195-116.109Q412.087 167.391 480 167.391t116.109 48.196q48.195 48.195 48.195 116.109 0 67.913-48.195 116.108Q547.913 496 480 496Zm0-88.609q31.326 0 53.511-22.185 22.185-22.184 22.185-53.51 0-31.326-22.185-53.511Q511.326 256 480 256q-31.326 0-53.511 22.185-22.185 22.185-22.185 53.511 0 31.326 22.185 53.51 22.185 22.185 53.511 22.185Zm0 578.174q-179.152 0-291.967-106.434Q75.217 772.696 75.217 603.783q0-54.631 43.413-86.946t94.805-15.598q16 5 33.619 11.62 17.62 6.619 41.62 16.619 63.761 26 105.283 36.261Q435.478 576 480 576q42.522 0 83.924-9.88 41.402-9.881 102.163-35.642 29-11.239 46.859-18.239 17.858-7 34.858-12 51.392-14.717 94.185 17.598 42.794 32.315 42.794 85.946 0 79.956-31.359 149.413-31.359 69.456-86.076 121.054-54.718 51.598-128.554 81.457Q564.957 985.565 480 985.565Z"/></svg>