<svg xmlns="http://www.w3.org/2000/svg" height="20" width="20"><path d="M8.229 13.438Q8.625 13.438 8.917 13.146Q9.208 12.854 9.208 12.458V7.542Q9.208 7.146 8.917 6.854Q8.625 6.562 8.229 6.562Q7.854 6.562 7.573 6.854Q7.292 7.146 7.292 7.542V12.458Q7.292 12.854 7.573 13.146Q7.854 13.438 8.229 13.438ZM11.792 13.438Q12.167 13.438 12.448 13.146Q12.729 12.854 12.729 12.458V7.542Q12.729 7.146 12.448 6.854Q12.167 6.562 11.792 6.562Q11.396 6.562 11.104 6.854Q10.812 7.146 10.812 7.542V12.458Q10.812 12.854 11.104 13.146Q11.396 13.438 11.792 13.438ZM3.562 17.062Q2.604 17.062 1.938 16.396Q1.271 15.729 1.271 14.771V5.229Q1.271 4.271 1.938 3.604Q2.604 2.938 3.562 2.938H16.438Q17.396 2.938 18.062 3.604Q18.729 4.271 18.729 5.229V14.771Q18.729 15.729 18.062 16.396Q17.396 17.062 16.438 17.062ZM3.562 14.771Q3.562 14.771 3.562 14.771Q3.562 14.771 3.562 14.771V5.229Q3.562 5.229 3.562 5.229Q3.562 5.229 3.562 5.229Q3.562 5.229 3.562 5.229Q3.562 5.229 3.562 5.229V14.771Q3.562 14.771 3.562 14.771Q3.562 14.771 3.562 14.771ZM3.562 14.771H16.438Q16.438 14.771 16.438 14.771Q16.438 14.771 16.438 14.771V5.229Q16.438 5.229 16.438 5.229Q16.438 5.229 16.438 5.229H3.562Q3.562 5.229 3.562 5.229Q3.562 5.229 3.562 5.229V14.771Q3.562 14.771 3.562 14.771Q3.562 14.771 3.562 14.771Z"/></svg>