<svg xmlns="http://www.w3.org/2000/svg" height="20" width="20"><path d="M8.583 12.917Q8.771 12.917 8.906 12.781Q9.042 12.646 9.042 12.458V7.542Q9.042 7.354 8.906 7.219Q8.771 7.083 8.583 7.083Q8.417 7.083 8.271 7.219Q8.125 7.354 8.125 7.542V12.458Q8.125 12.646 8.271 12.781Q8.417 12.917 8.583 12.917ZM11.438 12.917Q11.604 12.917 11.75 12.781Q11.896 12.646 11.896 12.458V7.542Q11.896 7.354 11.75 7.219Q11.604 7.083 11.438 7.083Q11.25 7.083 11.115 7.219Q10.979 7.354 10.979 7.542V12.458Q10.979 12.646 11.115 12.781Q11.25 12.917 11.438 12.917ZM3.938 15.833Q3.312 15.833 2.906 15.427Q2.5 15.021 2.5 14.396V5.604Q2.5 4.979 2.906 4.573Q3.312 4.167 3.938 4.167H16.062Q16.688 4.167 17.094 4.573Q17.5 4.979 17.5 5.604V14.396Q17.5 15.021 17.094 15.427Q16.688 15.833 16.062 15.833ZM3.938 14.917Q3.708 14.917 3.562 14.771Q3.417 14.625 3.417 14.396V5.604Q3.417 5.375 3.562 5.229Q3.708 5.083 3.938 5.083Q3.708 5.083 3.562 5.229Q3.417 5.375 3.417 5.604V14.396Q3.417 14.625 3.562 14.771Q3.708 14.917 3.938 14.917ZM3.938 14.917H16.062Q16.292 14.917 16.438 14.771Q16.583 14.625 16.583 14.396V5.604Q16.583 5.375 16.438 5.229Q16.292 5.083 16.062 5.083H3.938Q3.708 5.083 3.562 5.229Q3.417 5.375 3.417 5.604V14.396Q3.417 14.625 3.562 14.771Q3.708 14.917 3.938 14.917Z"/></svg>