<svg xmlns="http://www.w3.org/2000/svg" height="20" viewBox="0 -960 960 960" width="20"><path d="M402.79-332q16.69 0 28.7-11.85 12.01-11.85 12.01-28.61v-214.76q0-16.75-11.81-28.77-11.8-12.01-28.5-12.01-16.69 0-29.19 11.85t-12.5 28.61v214.76q0 16.76 12.09 28.77Q385.68-332 402.79-332Zm155 0q16.68 0 28.7-11.85 12.01-11.85 12.01-28.61v-214.76q0-16.75-11.81-28.77-11.8-12.01-28.5-12.01-16.69 0-29.19 11.85t-12.5 28.61v214.76q0 16.76 12.09 28.77Q540.68-332 557.79-332ZM185-167q-47.7 0-80.35-32.66Q72-232.32 72-280.04v-400.24q0-47.72 32.65-80.22T185-793h590q47.7 0 80.35 32.66Q888-727.68 888-679.96v400.24q0 47.72-32.65 80.22T775-167H185Z"/></svg>