<svg xmlns="http://www.w3.org/2000/svg" height="40" viewBox="0 -960 960 960" width="40"><path d="M690.77-170v-620.77q22.49 3.85 35.86 19.3Q740-756.03 740-732.31v503.85q0 23.72-13.37 39.17-13.37 15.44-35.86 19.29Zm-467.69 59.23q-24.08 0-41.27-17.19-17.2-17.19-17.2-41.27v-621.54q0-24.08 17.2-41.27 17.19-17.19 41.27-17.19h363.07q24.08 0 41.27 17.19 17.2 17.19 17.2 41.27v621.54q0 24.08-17.2 41.27-17.19 17.19-41.27 17.19H223.08Zm563.07-117.84v-502.88q13.98 3.34 21.61 13.04 7.63 9.71 7.63 25.42v425.95q0 15.72-7.63 25.17-7.63 9.45-21.61 13.3Z"/></svg>