<svg xmlns="http://www.w3.org/2000/svg" height="40" viewBox="0 -960 960 960" width="40"><path d="M480.2-50.67q-90.19 0-168.33-33.07-78.14-33.08-136.6-91.53-58.45-58.46-91.53-136.57-33.07-78.11-33.07-168.47 0-90.83 33.06-168.24 33.06-77.4 91.41-136.13 58.35-58.72 136.45-92.02Q389.68-910 480-910q21.16 0 37.25 16.3 16.08 16.29 16.08 37.3 0 21.01-16.08 37.04-16.09 16.03-37.25 16.03-135.19 0-229.26 94.03-94.07 94.04-94.07 229.17t94.03 229.3q94.04 94.16 229.17 94.16t229.3-94.07q94.16-94.07 94.16-229.26 0-21.16 16.03-37.25 16.03-16.08 37.04-16.08 21.01 0 37.3 16.08Q910-501.16 910-480q0 90.32-33.36 168.43-33.37 78.1-91.84 136.5-58.47 58.4-136.14 91.4-77.68 33-168.46 33Z"/></svg>