<svg xmlns="http://www.w3.org/2000/svg" height="24" viewBox="0 -960 960 960" width="24"><path d="M40.43-401.07V-584.8H164v183.73H40.43Zm188.9 0v-242.95h123.56v242.95H229.33Zm188.89 0v-280.65h123.56v280.65H418.22ZM40.43-161.87v-163.2H164v163.2H40.43Zm188.9 0v-163.2h123.56v163.2H229.33Zm188.89 0v-163.2h123.56v163.2H418.22ZM796-482.85v-315.28h123.57v303.02q-10.2-2.72-20.89-3.71-10.68-.98-22.11-.98-21.7 0-41.79 4.12-20.08 4.11-38.78 12.83Zm-188.89 81.78v-319.36h123.56v286.13q-8.04 7.1-14.63 15.33-6.58 8.23-11.74 17.9h-97.19Zm0 239.2v-162.96h70.82q-5.78 45.13 7.89 87.69 13.66 42.55 45.29 75.27h-124Zm269.46 0q-17.66 0-30.33-12.67-12.67-12.68-12.67-30.33t12.67-30.33q12.67-12.67 30.33-12.67 17.65 0 30.32 12.67 12.68 12.68 12.68 30.33t-12.68 30.33q-12.67 12.67-30.32 12.67Zm-43-131v-143.61h86v143.61h-86Z"/></svg>