<svg xmlns="http://www.w3.org/2000/svg" height="24" width="24"><path d="M3.4 18.025Q2.625 18.025 2.288 17.35Q1.95 16.675 2.4 16.05L6.1 11.125Q6.475 10.625 7.088 10.625Q7.7 10.625 8.075 11.125L11.375 15.5Q11.7 15.5 11.963 15.5Q12.225 15.5 12.55 15.5Q12.9 15.5 13.137 15.5Q13.375 15.5 13.725 15.5H18.05L14 10.125L11.825 13L10.25 10.875L13 7.2Q13.375 6.7 13.988 6.7Q14.6 6.7 14.975 7.2L21.6 16.05Q22.075 16.675 21.725 17.35Q21.375 18.025 20.6 18.025ZM13.725 15.5ZM5.675 15.5H8.5L7.1 13.6ZM5.675 15.5H7.1H8.5Z"/></svg>