<svg xmlns="http://www.w3.org/2000/svg" height="24" width="24"><path d="m15.725 7.75-.475-.45 2.1-2.1-2.1-2.075.475-.475 2.075 2.1 2.1-2.1.45.475L18.275 5.2l2.075 2.1-.45.45-2.1-2.075ZM12 11.35q.575 0 .963-.388.387-.387.387-.962t-.387-.963Q12.575 8.65 12 8.65t-.962.387q-.388.388-.388.963t.388.962q.387.388.962.388Zm0 10.1q-3.7-3.35-5.5-6.2-1.8-2.85-1.8-5.05 0-3.45 2.212-5.488Q9.125 2.675 12 2.675q.6 0 1.175.1.575.1 1.1.25v5.7H19.2q.05.35.088.737.037.388.037.738 0 2.2-1.8 5.05-1.8 2.85-5.525 6.2Z"/></svg>