<svg xmlns="http://www.w3.org/2000/svg" height="48" viewBox="0 -960 960 960" width="48"><path d="m268.65-267.41-98.48-55.48q-9.43-4.72-10.55-14.89-1.12-10.18 5.84-17.13l9.43-9.44q3.48-3.48 7.7-5.22 4.21-1.73 9.17-.5l89.57 13 172.45-172.45-288.61-157.81q-12.43-6.95-14.17-20.63-1.74-13.67 8.46-24.11l7.95-8.71q5.48-5.72 12.56-7.46 7.07-1.74 14.79.5l379 98.48L681.72-758.7q16.19-16.19 38.37-16.19 22.17 0 38.37 16.19 16.19 16.2 16.19 38.37 0 22.18-16.19 38.37L650.5-572.76l98.24 378q2.24 8.72.12 16.29-2.12 7.58-8.08 13.3l-4.48 4.47q-11.19 11.2-26.72 8.58-15.54-2.62-23.25-16.29L530.76-452.54 358.07-280.09l12.23 87.33q1 5.72-.73 11.17-1.74 5.46-5.22 9.18l-4.72 4.71q-8.43 8.2-20.11 6.46-11.67-1.74-17.63-12.41l-53.24-93.76Z"/></svg>