<svg xmlns="http://www.w3.org/2000/svg" height="40" width="40"><path d="M25.333 24.458q.334 0 .542-.208.208-.208.208-.5V10.042q0-.25-.208-.459-.208-.208-.5-.208-.333 0-.521.208-.187.209-.187.5v5.792h-5.375v-5.833q0-.25-.209-.459-.208-.208-.5-.208-.333 0-.521.208-.187.209-.187.5v6.5q0 .334.187.521.188.188.521.188h6.084v6.5q0 .291.187.479.188.187.479.187ZM12.75 28.833q-1 0-1.708-.708-.709-.708-.709-1.708v-19q0-1 .709-1.709Q11.75 5 12.75 5h19q1 0 1.708.708.709.709.709 1.709v19q0 1-.709 1.708-.708.708-1.708.708Zm-4.5 4.5q-1 0-1.708-.708-.709-.708-.709-1.708v-19.75q0-.25.209-.459.208-.208.5-.208.291 0 .5.208.208.209.208.5v19.709q0 .416.292.708.291.292.708.292H28q.25 0 .458.208.209.208.209.5 0 .292-.209.5-.208.208-.5.208Z"/></svg>