<svg xmlns="http://www.w3.org/2000/svg" height="40" viewBox="0 -960 960 960" width="40"><path d="m513.33-493.45 122 122.12Q645-361.67 645-348q0 13.67-9.67 23.33Q625.67-315 612-315q-13.67 0-23.33-9.67l-132-132q-5.34-5.33-7.67-11.31t-2.33-12.35V-640q0-14.17 9.61-23.75 9.62-9.58 23.84-9.58 14.21 0 23.71 9.58t9.5 23.75v146.55Zm96.58-273.22q-18.24 0-30.74-12.59t-12.5-30.83q0-18.24 12.59-30.74t30.83-12.5q18.24 0 30.74 12.59t12.5 30.83q0 18.24-12.59 30.74t-30.83 12.5Zm0 660q-18.24 0-30.74-12.59t-12.5-30.83q0-18.24 12.59-30.74t30.83-12.5q18.24 0 30.74 12.59t12.5 30.83q0 18.24-12.59 30.74t-30.83 12.5Zm160-520q-18.24 0-30.74-12.59t-12.5-30.83q0-18.24 12.59-30.74t30.83-12.5q18.24 0 30.74 12.59t12.5 30.83q0 18.24-12.59 30.74t-30.83 12.5Zm0 380q-18.24 0-30.74-12.59t-12.5-30.83q0-18.24 12.59-30.74t30.83-12.5q18.24 0 30.74 12.59t12.5 30.83q0 18.24-12.59 30.74t-30.83 12.5Zm60-190q-18.24 0-30.74-12.59t-12.5-30.83q0-18.24 12.59-30.74t30.83-12.5q18.24 0 30.74 12.59t12.5 30.83q0 18.24-12.59 30.74t-30.83 12.5ZM80-479.89q0-157.78 105.5-271.44Q291-865 445-878.67q14-1.33 24.5 8.25 10.5 9.59 10.5 23.75 0 13.34-8.8 23.18-8.79 9.85-22.2 11.49-128.33 12-215.33 106.75-87 94.76-87 225.31 0 131.61 87 225.77Q320.67-160 449-148q13.41 1.65 22.2 11.56 8.8 9.9 8.8 23.11 0 14.16-10.5 23.75Q459-80 445-81.33 290.67-95 185.33-208.56 80-322.12 80-479.89Z"/></svg>