<svg xmlns="http://www.w3.org/2000/svg" height="20" width="20"><path d="M2.458 18.271v-5.354q0-.959.677-1.636.677-.677 1.636-.677h3.562q.521 0 .886-.239.364-.24.364-.719 0-.792-.552-1.334-.552-.541-1.323-.541-.52 0-.885-.365-.365-.364-.365-.885V1.729H8.5V5.75q1.396.229 2.26 1.344.865 1.114.865 2.552 0 1.333-.958 2.166-.959.834-2.334.834H4.771q-.104 0-.188.083-.083.083-.083.209v5.333Zm5.584 0H6v-1.979q0-.959.677-1.646.677-.688 1.635-.688h3.709q1.458 0 2.469-1.052 1.01-1.052 1.01-2.531v-1q0-1.458-.906-2.531-.906-1.073-2.282-1.073-.958 0-1.635-.667Q10 4.438 10 3.479v-1.75h2.042V3.75q2.312.104 3.906 1.656 1.594 1.552 1.594 3.969v1q0 2.333-1.594 3.979T12.021 16H8.312q-.104 0-.187.083-.083.084-.083.209Zm-3.542 0v-5.333q0-.126.083-.209.084-.083.188-.083h3.562q1.375 0 2.334-.834.958-.833.958-2.166 0-1.417-.865-2.542Q9.896 5.979 8.5 5.75V1.729 5.75q1.396.229 2.26 1.354.865 1.125.865 2.542 0 1.333-.958 2.166-.959.834-2.334.834H4.771q-.104 0-.188.083-.083.083-.083.209v5.333Z"/></svg>