<svg xmlns="http://www.w3.org/2000/svg" height="20" width="20"><path d="M10 13.521Q8.542 13.521 7.51 12.49Q6.479 11.458 6.479 10Q6.479 8.542 7.51 7.51Q8.542 6.479 10 6.479Q11.458 6.479 12.49 7.51Q13.521 8.542 13.521 10Q13.521 11.458 12.49 12.49Q11.458 13.521 10 13.521ZM2.333 7.521V4.312Q2.333 3.479 2.906 2.906Q3.479 2.333 4.312 2.333H7.542V4.312H4.312Q4.312 4.312 4.312 4.312Q4.312 4.312 4.312 4.312V7.521ZM7.542 17.667H4.312Q3.479 17.667 2.906 17.094Q2.333 16.521 2.333 15.688V12.458H4.312V15.688Q4.312 15.688 4.312 15.688Q4.312 15.688 4.312 15.688H7.542ZM12.479 17.667V15.688H15.688Q15.688 15.688 15.688 15.688Q15.688 15.688 15.688 15.688V12.458H17.667V15.688Q17.667 16.521 17.094 17.094Q16.521 17.667 15.688 17.667ZM15.688 7.521V4.312Q15.688 4.312 15.688 4.312Q15.688 4.312 15.688 4.312H12.479V2.333H15.688Q16.521 2.333 17.094 2.906Q17.667 3.479 17.667 4.312V7.521Z"/></svg>