<svg xmlns="http://www.w3.org/2000/svg" height="20" viewBox="0 -960 960 960" width="20"><path d="M228.44-164q-27.14 0-45.79-18.65T164-228.44V-384h52v155.69q0 4.62 3.85 8.46 3.84 3.85 8.46 3.85H384v52H228.44ZM576-164v-52h155.69q4.62 0 8.46-3.85 3.85-3.84 3.85-8.46V-384h52v155.56q0 27.14-18.65 45.79T731.56-164H576ZM164-576v-155.56q0-27.14 18.65-45.79T228.44-796H384v52H228.31q-4.62 0-8.46 3.85-3.85 3.84-3.85 8.46V-576h-52Zm580 0v-155.69q0-4.62-3.85-8.46-3.84-3.85-8.46-3.85H576v-52h155.56q27.14 0 45.79 18.65T796-731.56V-576h-52ZM480-356q-51.75 0-87.87-36.13Q356-428.25 356-480q0-51.75 36.13-87.87Q428.25-604 480-604q51.75 0 87.87 36.13Q604-531.75 604-480q0 51.75-36.13 87.87Q531.75-356 480-356Z"/></svg>