<svg xmlns="http://www.w3.org/2000/svg" height="24" viewBox="0 -960 960 960" width="24"><path d="M534.13-718.65h131.74v-51.74H534.13v51.74ZM160.1-269.61q11.38 0 18.57-7.53 7.2-7.54 7.2-18.68 0-11.13-7.3-18.33-7.29-7.2-18.67-7.2-11.38 0-18.57 7.42-7.2 7.42-7.2 18.39t7.3 18.45q7.29 7.48 18.67 7.48ZM479.94-76.83q-73.24 0-140.33-22.65-67.09-22.65-124.09-63.95-13.13 5.56-26.91 8.34-13.77 2.79-28.61 2.79-59.66 0-101.42-41.76-41.75-41.76-41.75-101.42 0-26.92 8.6-49.73 8.6-22.81 23.66-41.05-10.56-29.14-17.46-59.49-6.89-30.36-9.85-62.82l115.74-11.69q2.18 21.87 6.53 41.74 4.34 19.87 10.78 39.3 1.36.57 2.58.57H160q59.66 0 101.42 41.76 41.75 41.76 41.75 101.41 0 11.69-2 22.84-2 11.16-5.43 21.6 28.61 19.17 59.87 32.47 31.26 13.31 65.74 19.31v-225.26q0-9.41-5.97-15.38-5.97-5.97-15.38-5.97-74.26 0-126.46-51.92-52.19-51.91-52.19-126.45t52.19-126.74q52.2-52.19 126.46-52.19h22.09q12.95-37.27 44.63-60.9 31.67-23.63 73.06-23.63h120.44q41.39 0 73.06 23.63 31.68 23.63 44.63 60.9H800q24.03 0 41.34 17.3 17.31 17.31 17.31 41.35 0 24.82-17.31 41.74-17.31 16.91-41.34 16.91h-22.09q-12.95 37.26-44.63 60.89-31.67 23.63-73.06 23.63H539.78q-41.39 0-73.06-23.63-31.68-23.63-44.63-60.89H400q-25.31 0-43.33 18.39t-18.02 43.24q0 24.85 18.02 42.96T400-563.17q57.77 0 98.21 40.44 40.44 40.44 40.44 98.21v225.26q68.35-13.13 125.89-52.09 57.55-38.95 96.42-98l-44.31-21.87 53.09-104.17 39.3 19.43q4.44-15.43 7.67-31.53 3.24-16.1 4.2-32.77l117.31 11.69q-3 27.57-8.42 54.2-5.42 26.64-13.58 52.58l47.13 22.49-53.09 104.17-43.13-21.57q-62.7 100-164.41 159.94Q601-76.83 479.94-76.83Zm54.19-641.82v-51.74 51.74ZM160-295.48Z"/></svg>