<svg xmlns="http://www.w3.org/2000/svg" version="1.1" width="3300" height="2000"><g id="Notes"><style>
    text {
      font-family: monospace;
      text-anchor: middle;
    }
    text.emphasis {
      font-weight:bold;
    }
    text.lanchor {
      text-anchor: start;
    }
  </style><rect height="2200" id="artboard" fill="white" width="3300" x="0" y="0"/><line id="" style="fill:none;stroke:black;stroke-width:0.5;" x1="263" x2="3036" y1="292" y2="292"/><text class="lanchor emphasis" transform="matrix(1 0 0 1 263 322)">Weight/Scale Variations</text><text transform="matrix(1 0 0 1 559.711 322)">Ultralight</text><text transform="matrix(1 0 0 1 856.422 322)">Thin</text><text transform="matrix(1 0 0 1 1153.13 322)">Light</text><text transform="matrix(1 0 0 1 1449.84 322)">Regular</text><text transform="matrix(1 0 0 1 1746.56 322)">Medium</text><text transform="matrix(1 0 0 1 2043.27 322)">Semibold</text><text transform="matrix(1 0 0 1 2339.98 322)">Bold</text><text transform="matrix(1 0 0 1 2636.69 322)">Heavy</text><text transform="matrix(1 0 0 1 2933.4 322)">Black</text><text id="template-version" style="text-anchor: end;" transform="matrix(1 0 0 1 3036 1933)">Template v.1.0</text><text class="lanchor" transform="matrix(1 0 0 1 263 726)">Small</text><text class="lanchor" transform="matrix(1 0 0 1 263 1156)">Medium</text><text class="lanchor" transform="matrix(1 0 0 1 263 1586)">Large</text></g><g id="Guides"><g id="H-reference" style="fill:#27AAE1;stroke:none;" transform="matrix(1 0 0 1 339 696)"><path d="M 54.9316 0 L 57.666 0 L 30.5664 -70.459 L 28.0762 -70.459 L 0.976562 0 L 3.66211 0 L 12.9395 -24.4629 L 45.7031 -24.4629 Z M 29.1992 -67.0898 L 29.4434 -67.0898 L 44.8242 -26.709 L 13.8184 -26.709 Z"/></g><line id="Baseline-S" style="fill:none;stroke:#27AAE1;opacity:1;stroke-width:0.577;" x1="263" x2="3036" y1="696" y2="696"/><line id="Capline-S" style="fill:none;stroke:#27AAE1;opacity:1;stroke-width:0.577;" x1="263" x2="3036" y1="625.541" y2="625.541"/><g id="H-reference" style="fill:#27AAE1;stroke:none;" transform="matrix(1 0 0 1 339 1126)"><path d="M 54.9316 0 L 57.666 0 L 30.5664 -70.459 L 28.0762 -70.459 L 0.976562 0 L 3.66211 0 L 12.9395 -24.4629 L 45.7031 -24.4629 Z M 29.1992 -67.0898 L 29.4434 -67.0898 L 44.8242 -26.709 L 13.8184 -26.709 Z"/></g><line id="Baseline-M" style="fill:none;stroke:#27AAE1;opacity:1;stroke-width:0.577;" x1="263" x2="3036" y1="1126" y2="1126"/><line id="Capline-M" style="fill:none;stroke:#27AAE1;opacity:1;stroke-width:0.577;" x1="263" x2="3036" y1="1055.54" y2="1055.54"/><g id="H-reference" style="fill:#27AAE1;stroke:none;" transform="matrix(1 0 0 1 339 1556)"><path d="M 54.9316 0 L 57.666 0 L 30.5664 -70.459 L 28.0762 -70.459 L 0.976562 0 L 3.66211 0 L 12.9395 -24.4629 L 45.7031 -24.4629 Z M 29.1992 -67.0898 L 29.4434 -67.0898 L 44.8242 -26.709 L 13.8184 -26.709 Z"/></g><line id="Baseline-L" style="fill:none;stroke:#27AAE1;opacity:1;stroke-width:0.577;" x1="263" x2="3036" y1="1556" y2="1556"/><line id="Capline-L" style="fill:none;stroke:#27AAE1;opacity:1;stroke-width:0.577;" x1="263" x2="3036" y1="1485.54" y2="1485.54"/><rect height="119.336" id="left-margin" style="fill:darkred;stroke:none;opacity:0.4;" width="12.4512" x="1394.06" y="1030.79"/><rect height="119.336" id="right-margin" style="fill:darkgreen;stroke:none;opacity:0.4;" width="12.4512" x="1502.5112" y="1030.79"/><rect x="1406.5112" y="1045" width="96" height="96" fill="none" stroke="blue" stroke-dasharray="5"/><rect x="1394.06" y="1030.79" width="120.9024" height="119.336" fill="none" stroke="blue"/></g><g id="Symbols"><g id="Bold-L" transform="matrix(1 0 0 1 2266 1556)"><path d="M143.02875 13.467500000000015  130.77375 1.2124999999999915 V-66.19 Q130.77375 -66.19 130.77375 -66.19 Q130.77375 -66.19 130.77375 -66.19 H74.82 L63.69375 -77.155 H52.40625 L37.57125 -91.99 H66.59625 L77.56125 -81.02499999999999 H130.77375 Q136.90125 -81.02499999999999 141.255 -76.67124999999999 Q145.60875 -72.3175 145.60875 -66.19 V4.921250000000015 Q145.60875 6.695000000000007 145.125 9.194375000000008 Q144.64125 11.693749999999994 143.02875 13.467500000000015 Z M136.25625 35.72  120.13125000000001 19.595 H24.34875 Q18.3825 19.595 14.028749999999999 15.16062500000001 Q9.675 10.726250000000007 9.675 4.921250000000015 V-77.155 Q9.675 -81.66999999999999 12.496875000000001 -85.62062499999999 Q15.31875 -89.57124999999999 19.51125 -91.18374999999999 H24.8325 L38.7 -77.155 H24.34875 Q24.34875 -77.155 24.34875 -77.155 Q24.34875 -77.155 24.34875 -77.155 V4.921250000000015 Q24.34875 4.921250000000015 24.34875 4.921250000000015 Q24.34875 4.921250000000015 24.34875 4.921250000000015 H105.135 L10.32 -90.05499999999999 Q8.86875 -91.50625 8.86875 -93.925 Q8.86875 -96.34375 10.32 -97.795 Q11.932500000000001 -99.4075 14.190000000000001 -99.326875 Q16.447499999999998 -99.24624999999999 18.06 -97.795 L143.99625 27.980000000000018 Q145.28625 29.5925 145.36687500000002 32.01125000000002 Q145.44750000000002 34.43000000000001 143.835 35.881249999999994 Q142.2225 37.33250000000001 139.884375 37.25187500000001 Q137.54625 37.171250000000015 136.25625 35.72 Z"/></g><g id="Semibold-L" transform="matrix(1 0 0 1 1970.27 1556)"><path d="M143.19 12.983750000000015  131.74125 1.3737500000000153 V-66.51249999999999 Q131.74125 -66.51249999999999 131.74125 -66.51249999999999 Q131.74125 -66.51249999999999 131.74125 -66.51249999999999 H75.1425 L63.69375 -77.79999999999998 H52.40625 L38.861250000000005 -91.345 H66.27375 L77.56125 -80.0575 H131.74125 Q137.0625 -80.0575 141.09375 -76.02625 Q145.125 -71.995 145.125 -66.51249999999999 V6.211250000000007 Q145.125 7.662499999999994 144.8025 9.678124999999994 Q144.48 11.693749999999994 143.19 12.983750000000015 Z M136.74 35.881249999999994  120.29249999999999 19.595 H23.38125 Q18.06 19.595 14.028749999999999 15.563749999999999 Q9.9975 11.532500000000013 9.9975 6.211250000000007 V-77.79999999999998 Q9.9975 -82.47625 13.06125 -86.185 Q16.125 -89.89375 20.478749999999998 -90.86125 H25.8 L38.7 -77.79999999999998 H23.38125 Q23.38125 -77.79999999999998 23.38125 -77.79999999999998 Q23.38125 -77.79999999999998 23.38125 -77.79999999999998 V6.211250000000007 Q23.38125 6.211250000000007 23.38125 6.211250000000007 Q23.38125 6.211250000000007 23.38125 6.211250000000007 H106.7475 L11.610000000000001 -88.92625 Q9.9975 -90.53875 9.9975 -92.9575 Q9.9975 -95.37625 11.610000000000001 -96.98875 Q13.383750000000001 -98.76249999999999 15.64125 -98.68187499999999 Q17.89875 -98.60125 19.6725 -96.98875 L144.64125 27.980000000000018 Q146.0925 29.753749999999997 146.17312500000003 32.091875000000016 Q146.25375 34.43000000000001 144.64125 36.04250000000002 Q143.02875 37.655 140.61 37.57437500000003 Q138.19125 37.493750000000006 136.74 35.881249999999994 Z"/></g><g id="Medium-L" transform="matrix(1 0 0 1 1674.31 1556)"><path d="M143.35125000000002 12.66125000000001  132.38625 1.5349999999999966 V-66.835 Q132.38625 -66.835 132.38625 -66.835 Q132.38625 -66.835 132.38625 -66.835 H75.30375000000001 L63.69375 -78.445 H52.40625 L39.82875 -90.86125 H65.95125 L77.56125 -79.25125 H132.38625 Q137.38500000000002 -79.25125 141.09375 -75.54249999999999 Q144.8025 -71.83375 144.8025 -66.835 V7.178750000000008 Q144.8025 8.46875 144.56062500000002 10.000625 Q144.31875 11.532500000000013 143.35125000000002 12.66125000000001 Z M137.0625 36.04250000000002  120.45375000000001 19.595 H22.73625 Q17.7375 19.595 14.028749999999999 15.80562500000002 Q10.32 12.01625 10.32 7.178750000000008 V-78.445 Q10.32 -82.96 13.464375 -86.5075 Q16.60875 -90.05499999999999 21.12375 -90.69999999999999 H26.444999999999997 L38.7 -78.445 H22.73625 Q22.73625 -78.445 22.73625 -78.445 Q22.73625 -78.445 22.73625 -78.445 V7.178750000000008 Q22.73625 7.178750000000008 22.73625 7.178750000000008 Q22.73625 7.178750000000008 22.73625 7.178750000000008 H107.87625000000001 L12.5775 -88.28125 Q10.80375 -89.89375 10.884375 -92.3125 Q10.965 -94.73124999999999 12.5775 -96.505 Q14.35125 -98.11749999999999 16.689375 -98.11749999999999 Q19.027500000000003 -98.11749999999999 20.80125 -96.505 L145.28625 27.980000000000018 Q146.7375 29.753749999999997 146.818125 32.172500000000014 Q146.89875 34.59125 145.125 36.203750000000014 Q143.51250000000002 37.97750000000002 141.09375 37.896874999999994 Q138.675 37.81625 137.0625 36.04250000000002 Z"/></g><g id="Regular-L" transform="matrix(1 0 0 1 1378.56 1556)"><path d="M143.51250000000002 12.338750000000005  132.87 1.6962500000000205 V-66.99625 Q132.87 -66.99625 132.87 -66.99625 Q132.87 -66.99625 132.87 -66.99625 H75.465 L63.69375 -78.76749999999998 H52.40625 L40.635 -90.53875 H65.78999999999999 L77.56125 -78.76749999999998 H132.87 Q137.54625 -78.76749999999998 141.09375 -75.22 Q144.64125 -71.6725 144.64125 -66.99625 V7.823750000000018 Q144.64125 8.952500000000015 144.48 10.161875000000023 Q144.31875 11.371250000000018 143.51250000000002 12.338750000000005 Z M137.38500000000002 36.203750000000014  120.615 19.595 H22.2525 Q17.57625 19.595 14.028749999999999 16.047500000000014 Q10.481250000000001 12.5 10.481250000000001 7.823750000000018 V-78.76749999999998 Q10.481250000000001 -83.44375 13.786875000000002 -86.83 Q17.0925 -90.21625 21.6075 -90.53875 H26.92875 L38.7 -78.76749999999998 H22.2525 Q22.2525 -78.76749999999998 22.2525 -78.76749999999998 Q22.2525 -78.76749999999998 22.2525 -78.76749999999998 V7.823750000000018 Q22.2525 7.823750000000018 22.2525 7.823750000000018 Q22.2525 7.823750000000018 22.2525 7.823750000000018 H108.68250000000002 L13.222499999999998 -87.63624999999999 Q11.44875 -89.41 11.529375000000002 -91.82875 Q11.610000000000001 -94.2475 13.383750000000001 -96.02125 Q15.1575 -97.795 17.495625 -97.795 Q19.833750000000002 -97.795 21.6075 -96.02125 L145.60875 27.980000000000018 Q147.22125 29.753749999999997 147.301875 32.172500000000014 Q147.38250000000002 34.59125 145.60875 36.36500000000001 Q143.835 38.138750000000016 141.41625000000002 38.05812500000002 Q138.9975 37.97750000000002 137.38500000000002 36.203750000000014 Z"/></g><g id="Light-L" transform="matrix(1 0 0 1 1082.77 1556)"><path d="M140.61 8.791250000000005  131.9025 0.0837500000000233 V-63.287499999999994 Q131.9025 -64.09375 131.33812500000002 -64.65812499999998 Q130.77375 -65.2225 129.9675 -65.2225 H76.4325 L66.27375 -75.38125 H56.4375 L46.923750000000005 -84.895 H67.4025 L77.56125 -74.73624999999998 H129.9675 Q134.48250000000002 -74.73624999999998 137.949375 -71.269375 Q141.41625000000002 -67.8025 141.41625000000002 -63.287499999999994 V5.08250000000001 Q141.41625000000002 6.049999999999997 141.255 7.09812500000001 Q141.09375 8.146250000000023 140.61 8.791250000000005 Z M137.38500000000002 33.462500000000006  120.13125000000001 16.370000000000005 H24.993750000000002 Q20.478749999999998 16.370000000000005 17.0925 12.983750000000015 Q13.70625 9.597499999999997 13.70625 4.921250000000015 V-73.44624999999999 Q13.70625 -77.96124999999999 16.850625 -81.266875 Q19.995 -84.57249999999999 24.34875 -84.895 H32.08875 L41.44125 -75.38125 H24.993750000000002 Q24.1875 -75.38125 23.623125 -74.816875 Q23.058750000000003 -74.2525 23.058750000000003 -73.44624999999999 V4.921250000000015 Q23.058750000000003 5.888750000000002 23.623125 6.453125 Q24.1875 7.0175000000000125 24.993750000000002 7.0175000000000125 H110.45625 L17.0925 -86.34625 Q15.802500000000002 -87.7975 15.883125 -89.73249999999999 Q15.963750000000001 -91.66749999999999 17.25375 -93.11874999999999 Q18.705 -94.57 20.559375 -94.57 Q22.41375 -94.57 23.865000000000002 -93.11874999999999 L143.99625 26.85125000000002 Q145.125 28.463750000000005 145.28625 30.31812500000001 Q145.44750000000002 32.172500000000014 143.99625 33.62375 Q142.54500000000002 35.23625000000001 140.61 35.155625000000015 Q138.675 35.07499999999999 137.38500000000002 33.462500000000006 Z"/></g><g id="Thin-L" transform="matrix(1 0 0 1 787.282 1556)"><path d="M137.7075 5.243750000000006  130.935 -1.3674999999999926 V-59.57875 Q130.935 -61.35249999999999 129.886875 -62.400625 Q128.83875 -63.44875 127.065 -63.44875 H77.4 L68.85375 -71.995 H60.3075 L53.2125 -79.09 H68.85375 L77.4 -70.54374999999999 H127.065 Q131.57999999999998 -70.54374999999999 134.805 -67.31875 Q138.03 -64.09375 138.03 -59.57875 V2.180000000000007 Q138.03 3.3087500000000176 138.03 4.115000000000023 Q138.03 4.921250000000015 137.7075 5.243750000000006 Z M137.38500000000002 30.88250000000002  119.48625 13.14500000000001 H27.896250000000002 Q23.38125 13.14500000000001 20.075625 9.839375000000018 Q16.77 6.533750000000012 16.77 2.180000000000007 V-68.125 Q16.77 -72.47874999999999 19.833750000000002 -75.62312499999999 Q22.8975 -78.76749999999998 27.25125 -79.09 H37.0875 L44.1825 -71.995 H27.896250000000002 Q26.28375 -71.995 25.074375000000003 -70.94687499999999 Q23.865000000000002 -69.89874999999999 23.865000000000002 -68.125 V2.180000000000007 Q23.865000000000002 3.792500000000018 25.074375000000003 4.921250000000015 Q26.28375 6.049999999999997 27.896250000000002 6.049999999999997 H112.22999999999999 L20.962500000000002 -85.05624999999999 Q19.995 -86.02374999999999 20.075625 -87.475 Q20.15625 -88.92625 21.12375 -90.21625 Q22.41375 -91.345 23.70375 -91.345 Q24.993750000000002 -91.345 26.1225 -90.21625 L142.38375 25.88375000000002 Q143.19 27.01249999999999 143.270625 28.463750000000005 Q143.35125000000002 29.91500000000002 142.38375 31.04374999999999 Q141.255 32.172500000000014 139.80375 32.091875000000016 Q138.3525 32.01125000000002 137.38500000000002 30.88250000000002 Z"/></g><g id="Ultralight-L" transform="matrix(1 0 0 1 491.205 1556)"><path d="M135.93375 3.147500000000008  130.45125000000002 -2.3349999999999795 V-57.32125 Q130.45125000000002 -59.57875 129.0 -61.029999999999994 Q127.54875 -62.48124999999999 125.29125 -62.48124999999999 H78.045 L70.46625 -70.06 H62.72625 L57.082499999999996 -75.70375 H69.82124999999999 L77.4 -68.125 H125.29125 Q129.80625 -68.125 132.950625 -64.980625 Q136.095 -61.83624999999999 136.095 -57.32125 V0.5675000000000097 Q136.095 1.5349999999999966 136.095 2.180000000000007 Q136.095 2.825000000000003 135.93375 3.147500000000008 Z M137.38500000000002 29.27000000000001  119.16375000000001 11.210000000000008 H29.508750000000003 Q25.155 11.210000000000008 21.93 7.984999999999999 Q18.705 4.760000000000005 18.705 0.40625 V-64.89999999999999 Q18.705 -69.25375 21.6075 -72.3175 Q24.509999999999998 -75.38125 28.86375 -75.70375 H40.15125 L45.795 -70.06 H29.508750000000003 Q27.4125 -70.06 25.880625000000002 -68.60874999999999 Q24.34875 -67.1575 24.34875 -64.89999999999999 V0.40625 Q24.34875 2.6637500000000074 25.880625000000002 4.115000000000023 Q27.4125 5.566249999999997 29.508750000000003 5.566249999999997 H113.35875 L23.38125 -84.25 Q22.575 -85.05624999999999 22.655625 -86.265625 Q22.73625 -87.475 23.5425 -88.4425 Q24.509999999999998 -89.41 25.558125 -89.41 Q26.60625 -89.41 27.573750000000004 -88.4425 L141.41625000000002 25.23875000000001 Q141.9 26.045000000000016 142.06125 27.25437500000001 Q142.2225 28.463750000000005 141.41625000000002 29.431250000000006 Q140.44875 30.398750000000007 139.32000000000002 30.31812500000001 Q138.19125 30.23750000000001 137.38500000000002 29.27000000000001 Z"/></g><g id="Bold-M" transform="matrix(1 0 0 1 2281.8 1126)"><path d="M114.0 1.5200000000000102  98.75 -13.72999999999999 V-53.47999999999999 Q98.75 -53.47999999999999 98.75 -53.47999999999999 Q98.75 -53.47999999999999 98.75 -53.47999999999999 H58.75 L45.5 -66.60499999999999 H45.875 L28.875 -83.60499999999999 H46.875 L60.0 -70.47999999999999 H98.75 Q105.875 -70.47999999999999 110.815 -65.53999999999999 Q115.75 -60.60499999999999 115.75 -53.47999999999999 V-6.10499999999999 Q115.75 -4.10499999999999 115.31 -2.1049999999999898 Q114.875 -0.10499999999998977 114.0 1.5200000000000102 Z M100.875 21.02000000000001  90.625 10.89500000000001 H21.25 Q14.125 10.89500000000001 9.190000000000001 5.89500000000001 Q4.25 0.8950000000000102 4.25 -6.10499999999999 V-66.60499999999999 Q4.25 -72.10499999999999 7.4399999999999995 -76.54499999999999 Q10.625 -80.97999999999999 15.625 -82.72999999999999 L31.75 -66.60499999999999 H21.25 Q21.25 -66.60499999999999 21.25 -66.60499999999999 Q21.25 -66.60499999999999 21.25 -66.60499999999999 V-6.10499999999999 Q21.25 -6.10499999999999 21.25 -6.10499999999999 Q21.25 -6.10499999999999 21.25 -6.10499999999999 H73.625 L5.5 -74.35499999999999 Q3.625 -76.22999999999999 3.625 -78.91999999999999 Q3.625 -81.60499999999999 5.5 -83.47999999999999 Q7.5 -85.47999999999999 10.19 -85.41999999999999 Q12.875 -85.35499999999999 14.875 -83.47999999999999 L110.125 11.89500000000001 Q112.0 13.77000000000001 112.0 16.455000000000013 Q112.0 19.14500000000001 110.0 21.02000000000001 Q108.125 22.89500000000001 105.435 22.89500000000001 Q102.75 22.89500000000001 100.875 21.02000000000001 Z"/></g><g id="Semibold-M" transform="matrix(1 0 0 1 1985.97 1126)"><path d="M113.75 0.8950000000000102  99.625 -13.22999999999999 V-53.85499999999999 Q99.625 -53.85499999999999 99.625 -53.85499999999999 Q99.625 -53.85499999999999 99.625 -53.85499999999999 H58.75 L45.5 -67.10499999999999 H45.75 L30.375 -82.47999999999999 H46.875 L60.0 -69.22999999999999 H99.625 Q106.0 -69.22999999999999 110.5 -64.79499999999999 Q115.0 -60.35499999999999 115.0 -53.85499999999999 V-4.97999999999999 Q115.0 -3.2299999999999898 114.69 -1.7299999999999898 Q114.375 -0.22999999999998977 113.75 0.8950000000000102 Z M101.125 21.02000000000001  90.5 10.39500000000001 H20.375 Q14.0 10.39500000000001 9.5 5.89500000000001 Q5.0 1.3950000000000102 5.0 -4.97999999999999 V-67.10499999999999 Q5.0 -72.60499999999999 8.375 -76.72999999999999 Q11.75 -80.85499999999999 16.75 -81.97999999999999 L31.625 -67.10499999999999 H20.375 Q20.375 -67.10499999999999 20.375 -67.10499999999999 Q20.375 -67.10499999999999 20.375 -67.10499999999999 V-4.97999999999999 Q20.375 -4.97999999999999 20.375 -4.97999999999999 Q20.375 -4.97999999999999 20.375 -4.97999999999999 H75.125 L6.75 -73.47999999999999 Q4.75 -75.35499999999999 4.8149999999999995 -78.04499999999999 Q4.875 -80.72999999999999 6.75 -82.60499999999999 Q8.75 -84.60499999999999 11.44 -84.60499999999999 Q14.125 -84.60499999999999 16.125 -82.60499999999999 L110.5 11.77000000000001 Q112.375 13.77000000000001 112.375 16.39500000000001 Q112.375 19.02000000000001 110.375 21.02000000000001 Q108.5 22.89500000000001 105.815 22.89500000000001 Q103.125 22.89500000000001 101.125 21.02000000000001 Z"/></g><g id="Medium-M" transform="matrix(1 0 0 1 1689.91 1126)"><path d="M113.625 0.5200000000000102  100.25 -12.85499999999999 V-54.22999999999999 Q100.25 -54.22999999999999 100.25 -54.22999999999999 Q100.25 -54.22999999999999 100.25 -54.22999999999999 H58.875 L45.625 -67.47999999999999 L31.5 -81.60499999999999 H46.75 L60.0 -68.35499999999999 H100.25 Q106.125 -68.35499999999999 110.25 -64.22999999999999 Q114.375 -60.10499999999999 114.375 -54.22999999999999 V-4.10499999999999 Q114.375 -2.6049999999999898 114.185 -1.5450000000000017 Q114.0 -0.47999999999998977 113.625 0.5200000000000102 Z M101.375 20.89500000000001  90.375 10.02000000000001 H19.75 Q13.875 10.02000000000001 9.75 5.89500000000001 Q5.625 1.7700000000000102 5.625 -4.10499999999999 V-67.47999999999999 Q5.625 -72.85499999999999 9.06 -76.79499999999999 Q12.5 -80.72999999999999 17.625 -81.35499999999999 L31.5 -67.47999999999999 H19.75 Q19.75 -67.47999999999999 19.75 -67.47999999999999 Q19.75 -67.47999999999999 19.75 -67.47999999999999 V-4.10499999999999 Q19.75 -4.10499999999999 19.75 -4.10499999999999 Q19.75 -4.10499999999999 19.75 -4.10499999999999 H76.25 L7.625 -72.72999999999999 Q5.625 -74.72999999999999 5.6899999999999995 -77.41999999999999 Q5.75 -80.10499999999999 7.625 -82.10499999999999 Q9.625 -84.10499999999999 12.31 -84.04499999999999 Q15.0 -83.97999999999999 17.0 -82.10499999999999 L110.75 11.64500000000001 Q112.625 13.64500000000001 112.625 16.27000000000001 Q112.625 18.89500000000001 110.625 20.89500000000001 Q108.75 22.89500000000001 106.06 22.89500000000001 Q103.375 22.89500000000001 101.375 20.89500000000001 Z"/></g><g id="Regular-M" transform="matrix(1 0 0 1 1394.06 1126)"><path d="M113.5 0.14500000000001023  100.75 -12.60499999999999 V-54.47999999999999 Q100.75 -54.47999999999999 100.75 -54.47999999999999 Q100.75 -54.47999999999999 100.75 -54.47999999999999 H58.875 L45.625 -67.72999999999999 L32.375 -80.97999999999999 H46.75 L60.0 -67.72999999999999 H100.75 Q106.25 -67.72999999999999 110.125 -63.85499999999999 Q114.0 -59.97999999999999 114.0 -54.47999999999999 V-3.4799999999999898 Q114.0 -2.1049999999999898 113.875 -1.3549999999999898 Q113.75 -0.6049999999999898 113.5 0.14500000000001023 Z M101.5 20.89500000000001  90.25 9.77000000000001 H19.25 Q13.75 9.77000000000001 9.875 5.89500000000001 Q6.0 2.0200000000000102 6.0 -3.4799999999999898 V-67.72999999999999 Q6.0 -72.97999999999999 9.565 -76.79499999999999 Q13.125 -80.60499999999999 18.25 -80.97999999999999 L31.5 -67.72999999999999 H19.25 Q19.25 -67.72999999999999 19.25 -67.72999999999999 Q19.25 -67.72999999999999 19.25 -67.72999999999999 V-3.4799999999999898 Q19.25 -3.4799999999999898 19.25 -3.4799999999999898 Q19.25 -3.4799999999999898 19.25 -3.4799999999999898 H77.0 L8.25 -72.22999999999999 Q6.25 -74.22999999999999 6.3149999999999995 -76.91999999999999 Q6.375 -79.60499999999999 8.375 -81.60499999999999 Q10.375 -83.60499999999999 13.065 -83.60499999999999 Q15.75 -83.60499999999999 17.75 -81.60499999999999 L110.875 11.64500000000001 Q112.875 13.64500000000001 112.875 16.27000000000001 Q112.875 18.89500000000001 110.875 20.89500000000001 Q108.875 22.89500000000001 106.19 22.89500000000001 Q103.5 22.89500000000001 101.5 20.89500000000001 Z"/></g><g id="Light-M" transform="matrix(1 0 0 1 1098.18 1126)"><path d="M111.25 -2.1049999999999898  100.75 -12.60499999999999 V-52.97999999999999 Q100.75 -53.60499999999999 100.31 -54.04499999999999 Q99.875 -54.47999999999999 99.25 -54.47999999999999 H59.875 L48.625 -65.85499999999999 H47.5 L36.75 -76.60499999999999 H48.625 L60.0 -65.22999999999999 H99.25 Q104.375 -65.22999999999999 107.935 -61.66499999999999 Q111.5 -58.10499999999999 111.5 -52.97999999999999 V-4.97999999999999 Q111.5 -3.7299999999999898 111.44 -3.164999999999992 Q111.375 -2.6049999999999898 111.25 -2.1049999999999898 Z M103.125 19.02000000000001  91.25 7.27000000000001 H20.75 Q15.625 7.27000000000001 12.065 3.710000000000008 Q8.5 0.14500000000001023 8.5 -4.97999999999999 V-64.22999999999999 Q8.5 -69.22999999999999 11.75 -72.72999999999999 Q15.0 -76.22999999999999 19.75 -76.60499999999999 H22.625 L33.375 -65.85499999999999 H20.75 Q20.125 -65.85499999999999 19.69 -65.41499999999999 Q19.25 -64.97999999999999 19.25 -64.22999999999999 V-4.97999999999999 Q19.25 -4.35499999999999 19.69 -3.914999999999978 Q20.125 -3.4799999999999898 20.75 -3.4799999999999898 H80.5 L12.0 -71.97999999999999 Q10.375 -73.60499999999999 10.440000000000001 -75.79499999999999 Q10.5 -77.97999999999999 12.125 -79.60499999999999 Q13.875 -81.35499999999999 15.940000000000001 -81.35499999999999 Q18.0 -81.35499999999999 19.75 -79.60499999999999 L110.75 11.52000000000001 Q112.375 13.14500000000001 112.44 15.27000000000001 Q112.5 17.39500000000001 110.875 19.02000000000001 Q109.125 20.77000000000001 107.0 20.77000000000001 Q104.875 20.77000000000001 103.125 19.02000000000001 Z"/></g><g id="Thin-M" transform="matrix(1 0 0 1 802.565 1126)"><path d="M109.125 -4.22999999999999  100.75 -12.60499999999999 V-51.35499999999999 Q100.75 -52.72999999999999 99.875 -53.60499999999999 Q99.0 -54.47999999999999 97.625 -54.47999999999999 H61.0 L51.625 -63.85499999999999 H49.5 L41.25 -72.10499999999999 H50.625 L60.0 -62.72999999999999 H97.625 Q102.5 -62.72999999999999 105.75 -59.47999999999999 Q109.0 -56.22999999999999 109.0 -51.35499999999999 V-6.47999999999999 Q109.0 -5.47999999999999 109.0 -5.10499999999999 Q109.0 -4.72999999999999 109.125 -4.22999999999999 Z M104.875 17.27000000000001  92.25 4.77000000000001 H22.375 Q17.5 4.77000000000001 14.25 1.5200000000000102 Q11.0 -1.7299999999999898 11.0 -6.60499999999999 V-60.85499999999999 Q11.0 -65.47999999999999 13.94 -68.60499999999999 Q16.875 -71.72999999999999 21.375 -72.10499999999999 H27.125 L35.375 -63.85499999999999 H22.375 Q21.0 -63.85499999999999 20.125 -62.97999999999999 Q19.25 -62.10499999999999 19.25 -60.85499999999999 V-6.60499999999999 Q19.25 -5.22999999999999 20.125 -4.35499999999999 Q21.0 -3.4799999999999898 22.375 -3.4799999999999898 H83.875 L15.75 -71.60499999999999 Q14.375 -72.97999999999999 14.44 -74.60499999999999 Q14.5 -76.22999999999999 15.875 -77.60499999999999 Q17.25 -78.97999999999999 18.814999999999998 -78.97999999999999 Q20.375 -78.97999999999999 21.75 -77.60499999999999 L110.625 11.39500000000001 Q111.875 12.64500000000001 112.0 14.27000000000001 Q112.125 15.89500000000001 110.75 17.27000000000001 Q109.5 18.64500000000001 107.875 18.580000000000013 Q106.25 18.52000000000001 104.875 17.27000000000001 Z"/></g><g id="Ultralight-M" transform="matrix(1 0 0 1 506.415 1126)"><path d="M107.75 -5.60499999999999  100.75 -12.60499999999999 V-50.47999999999999 Q100.75 -52.22999999999999 99.625 -53.35499999999999 Q98.5 -54.47999999999999 96.75 -54.47999999999999 H61.625 L53.375 -62.72999999999999 H50.625 L43.875 -69.47999999999999 H51.75 L60.0 -61.22999999999999 H96.75 Q101.375 -61.22999999999999 104.44000000000001 -58.16999999999999 Q107.5 -55.10499999999999 107.5 -50.47999999999999 V-7.35499999999999 Q107.5 -6.47999999999999 107.56500000000001 -6.22999999999999 Q107.625 -5.97999999999999 107.75 -5.60499999999999 Z M105.875 16.14500000000001  92.875 3.2700000000000102 H23.25 Q18.625 3.2700000000000102 15.56 0.2050000000000125 Q12.5 -2.8549999999999898 12.5 -7.47999999999999 V-58.72999999999999 Q12.5 -63.10499999999999 15.25 -66.10499999999999 Q18.0 -69.10499999999999 22.25 -69.47999999999999 H29.75 L36.5 -62.72999999999999 H23.25 Q21.5 -62.72999999999999 20.375 -61.60499999999999 Q19.25 -60.47999999999999 19.25 -58.72999999999999 V-7.47999999999999 Q19.25 -5.72999999999999 20.375 -4.60499999999999 Q21.5 -3.4799999999999898 23.25 -3.4799999999999898 H86.0 L18.0 -71.47999999999999 Q16.875 -72.60499999999999 16.939999999999998 -73.91999999999999 Q17.0 -75.22999999999999 18.125 -76.35499999999999 Q19.375 -77.60499999999999 20.565 -77.60499999999999 Q21.75 -77.60499999999999 23.0 -76.35499999999999 L110.625 11.39500000000001 Q111.625 12.39500000000001 111.75 13.710000000000008 Q111.875 15.02000000000001 110.75 16.14500000000001 Q109.625 17.39500000000001 108.315 17.330000000000013 Q107.0 17.27000000000001 105.875 16.14500000000001 Z"/></g><g id="Bold-S" transform="matrix(1 0 0 1 2294.23 696)"><path d="M90.73657800000001 -9.192999999999998  77.51925 -22.410327999999993 V-48.84024999999999 Q77.51925 -48.84024999999999 77.51925 -48.84024999999999 Q77.51925 -48.84024999999999 77.51925 -48.84024999999999 H49.508172 L38.662577999999996 -59.59116399999999 H40.338414 L26.529336 -73.39550799999999 H36.589086 L47.34 -62.649328 H77.51925 Q83.337336 -62.649328 87.332832 -58.653831999999994 Q91.32832800000001 -54.65833599999999 91.32832800000001 -48.84024999999999 V-12.644085999999987 Q91.32832800000001 -11.758827999999994 91.228914 -10.821495999999996 Q91.1295 -9.884163999999998 90.73657800000001 -9.192999999999998 Z M81.955008 8.952421999999999  74.06816400000001 1.164991999999998 H17.16075 Q11.342664 1.164991999999998 7.347168 -2.882577999999995 Q3.3516719999999998 -6.9254140000000035 3.3516719999999998 -12.644085999999987 V-59.59116399999999 Q3.3516719999999998 -64.126336 5.96484 -67.72891 Q8.578008 -71.32674999999999 12.724992 -72.70907799999999 H15.484914 L28.602828 -59.59116399999999 H17.16075 Q17.16075 -59.59116399999999 17.16075 -59.59116399999999 Q17.16075 -59.59116399999999 17.16075 -59.59116399999999 V-12.644085999999987 Q17.16075 -12.644085999999987 17.16075 -12.644085999999987 Q17.16075 -12.644085999999987 17.16075 -12.644085999999987 H60.3585 L7.0015860000000005 -66.00099999999999 Q5.425164 -67.577422 5.524578 -69.79766799999999 Q5.623991999999999 -72.01791399999999 7.101 -73.49492199999999 Q8.776836000000001 -75.17549199999999 10.945008 -75.12341799999999 Q13.117913999999999 -75.076078 14.79375 -73.49492199999999 L89.55307800000001 1.4585000000000008 Q91.030086 2.935508000000013 91.1295 5.255167999999998 Q91.228914 7.574828000000011 89.55307800000001 9.051836000000009 Q88.071336 10.632992000000002 85.75640999999999 10.53357800000002 Q83.43675 10.43416400000001 81.955008 8.952421999999999 Z"/></g><g id="Semibold-S" transform="matrix(1 0 0 1 1998.1 696)"><path d="M90.53775 -9.685335999999992  78.210414 -22.012671999999995 V-49.13849199999999 Q78.210414 -49.13849199999999 78.210414 -49.13849199999999 Q78.210414 -49.13849199999999 78.210414 -49.13849199999999 H49.508172 L38.662577999999996 -59.98408599999999 H40.239 L27.712836 -72.51025 H36.589086 L47.34 -61.659921999999995 H78.210414 Q83.43675 -61.659921999999995 87.086664 -58.010008 Q90.73657800000001 -54.36482799999999 90.73657800000001 -49.13849199999999 V-11.758827999999994 Q90.73657800000001 -11.067663999999994 90.73657800000001 -10.523253999999994 Q90.73657800000001 -9.983577999999994 90.53775 -9.685335999999992 Z M82.153836 8.952421999999999  73.96875 0.7673360000000002 H16.469586 Q11.24325 0.7673360000000002 7.593336000000001 -2.9299179999999865 Q3.943422 -6.627171999999987 3.943422 -11.758827999999994 V-59.98408599999999 Q3.943422 -64.424578 6.708078 -67.82359 Q9.468 -71.227336 13.61025 -72.11732799999999 H16.370172 L28.503414 -59.98408599999999 H16.469586 Q16.469586 -59.98408599999999 16.469586 -59.98408599999999 Q16.469586 -59.98408599999999 16.469586 -59.98408599999999 V-11.758827999999994 Q16.469586 -11.758827999999994 16.469586 -11.758827999999994 Q16.469586 -11.758827999999994 16.469586 -11.758827999999994 H61.542 L7.990991999999999 -65.30983599999999 Q6.310422 -66.890992 6.46191 -69.106504 Q6.608663999999999 -71.32674999999999 8.085672 -72.808492 Q9.761508 -74.48432799999999 11.934414 -74.48432799999999 Q14.102586 -74.48432799999999 15.778422 -72.808492 L89.846586 1.359086000000005 Q91.32832800000001 2.935508000000013 91.42300800000001 5.2078280000000206 Q91.52242199999999 7.475414000000015 89.846586 9.051836000000009 Q88.369578 10.632992000000002 86.04991799999999 10.53357800000002 Q83.73499199999999 10.43416400000001 82.153836 8.952421999999999 Z"/></g><g id="Medium-S" transform="matrix(1 0 0 1 1701.85 696)"><path d="M90.43833599999999 -9.983577999999994  78.70275 -21.719164 V-49.431999999999995 Q78.70275 -49.431999999999995 78.70275 -49.431999999999995 Q78.70275 -49.431999999999995 78.70275 -49.431999999999995 H49.607586 L38.761992 -60.28232799999999 H40.139585999999994 L28.602828 -71.819086 H36.489672 L47.34 -60.97349199999999 H78.70275 Q83.536164 -60.97349199999999 86.887836 -57.61708599999999 Q90.239508 -54.26541399999999 90.239508 -49.431999999999995 V-11.067663999999994 Q90.239508 -10.575327999999999 90.338922 -10.376499999999993 Q90.43833599999999 -10.177672000000001 90.43833599999999 -9.983577999999994 Z M82.352664 8.853008000000017  73.86933599999999 0.4738280000000117 H15.97725 Q11.143836 0.4738280000000117 7.792164 -2.9299179999999865 Q4.440492 -6.333663999999999 4.440492 -11.067663999999994 V-60.28232799999999 Q4.440492 -64.61867199999999 7.299828 -67.875664 Q10.159163999999999 -71.127922 14.301414 -71.62499199999999 H17.061336 L28.404 -60.28232799999999 H15.97725 Q15.97725 -60.28232799999999 15.97725 -60.28232799999999 Q15.97725 -60.28232799999999 15.97725 -60.28232799999999 V-11.067663999999994 Q15.97725 -11.067663999999994 15.97725 -11.067663999999994 Q15.97725 -11.067663999999994 15.97725 -11.067663999999994 H62.431992 L8.677422 -64.718086 Q7.0015860000000005 -66.39392199999999 7.14834 -68.61416799999999 Q7.299828 -70.834414 8.776836000000001 -72.41083599999999 Q10.452672000000002 -74.086672 12.625577999999999 -74.03933199999999 Q14.79375 -73.991992 16.469586 -72.41083599999999 L90.04541400000001 1.359086000000005 Q91.52242199999999 2.840828000000016 91.621836 5.1084140000000104 Q91.72125 7.376000000000005 90.04541400000001 8.952421999999999 Q88.563672 10.632992000000002 86.24874600000001 10.53357800000002 Q83.929086 10.43416400000001 82.352664 8.853008000000017 Z"/></g><g id="Regular-S" transform="matrix(1 0 0 1 1405.73 696)"><path d="M90.338922 -10.277085999999983  79.095672 -21.520335999999986 V-49.630827999999994 Q79.095672 -49.630827999999994 79.095672 -49.630827999999994 Q79.095672 -49.630827999999994 79.095672 -49.630827999999994 H49.607586 L38.761992 -60.47642199999999 H40.139585999999994 L29.293992 -71.32674999999999 H36.489672 L47.34 -60.47642199999999 H79.095672 Q83.536164 -60.47642199999999 86.741082 -57.27150399999999 Q89.946 -54.066585999999994 89.946 -49.630827999999994 V-10.575327999999999 Q89.946 -10.177672000000001 90.092754 -10.229745999999992 Q90.239508 -10.277085999999983 90.338922 -10.277085999999983 Z M82.452078 8.853008000000017  73.769922 0.2750000000000057 H15.584328 Q11.143836 0.2750000000000057 7.938918 -2.9299179999999865 Q4.734 -6.134835999999993 4.734 -10.575327999999999 V-60.47642199999999 Q4.734 -64.8175 7.64541 -67.92300399999999 Q10.552086000000001 -71.02850799999999 14.79375 -71.32674999999999 H17.553672000000002 L28.404 -60.47642199999999 H15.584328 Q15.584328 -60.47642199999999 15.584328 -60.47642199999999 Q15.584328 -60.47642199999999 15.584328 -60.47642199999999 V-10.575327999999999 Q15.584328 -10.575327999999999 15.584328 -10.575327999999999 Q15.584328 -10.575327999999999 15.584328 -10.575327999999999 H63.019008 L9.174491999999999 -64.325164 Q7.4939219999999995 -66.00099999999999 7.64541 -68.221246 Q7.792164 -70.441492 9.368586 -72.01791399999999 Q11.044422 -73.69375 13.217327999999998 -73.69375 Q15.3855 -73.69375 17.061336 -72.01791399999999 L90.144828 1.2596719999999948 Q91.72125 2.840828000000016 91.82066400000001 5.1084140000000104 Q91.920078 7.376000000000005 90.239508 8.952421999999999 Q88.66308599999999 10.632992000000002 86.34816 10.53357800000002 Q84.0285 10.43416400000001 82.452078 8.853008000000017 Z"/></g><g id="Light-S" transform="matrix(1 0 0 1 1109.75 696)"><path d="M88.563672 -12.052335999999983  79.095672 -21.520335999999986 V-48.44732799999999 Q79.095672 -48.93966399999999 78.75009 -49.285245999999994 Q78.404508 -49.630827999999994 77.912172 -49.630827999999994 H50.398164 L41.128992000000004 -58.999413999999994 H41.621328 L32.745078 -67.875664 H37.971414 L47.34 -58.50707799999999 H77.912172 Q82.05442199999999 -58.50707799999999 85.013172 -55.54832799999999 Q87.97192199999999 -52.58957799999999 87.97192199999999 -48.44732799999999 V-11.758827999999994 Q87.97192199999999 -11.460585999999992 88.17075 -11.659413999999998 Q88.369578 -11.85350799999999 88.563672 -12.052335999999983 Z M83.82967199999999 7.475414000000015  74.5605 -1.699078 H16.767827999999998 Q12.625577999999999 -1.699078 9.666827999999999 -4.657827999999995 Q6.708078 -7.61657799999999 6.708078 -11.758827999999994 V-57.716499999999996 Q6.708078 -61.85874999999999 9.368586 -64.718086 Q12.033828 -67.577422 15.97725 -67.875664 H21.009491999999998 L29.881008 -58.999413999999994 H16.767827999999998 Q16.275492 -58.999413999999994 15.929910000000001 -58.653831999999994 Q15.584328 -58.308249999999994 15.584328 -57.716499999999996 V-11.758827999999994 Q15.584328 -11.266492 15.929910000000001 -10.920909999999992 Q16.275492 -10.575327999999999 16.767827999999998 -10.575327999999999 H65.783664 L12.128507999999998 -64.126336 Q10.750914 -65.508664 10.897668 -67.331254 Q11.044422 -69.15857799999999 12.327336 -70.441492 Q13.809078 -71.9185 15.484914 -71.9185 Q17.16075 -71.9185 18.642492 -70.441492 L90.04541400000001 1.164991999999998 Q91.32832800000001 2.443172000000004 91.475082 4.317836 Q91.621836 6.19250000000001 90.239508 7.475414000000015 Q88.861914 8.952421999999999 86.98725 8.853008000000017 Q85.112586 8.75832800000002 83.82967199999999 7.475414000000015 Z"/></g><g id="Thin-S" transform="matrix(1 0 0 1 814.015 696)"><path d="M86.887836 -13.728172  79.095672 -21.520335999999986 V-47.164413999999994 Q79.095672 -48.24849999999999 78.404508 -48.93966399999999 Q77.718078 -49.630827999999994 76.63399199999999 -49.630827999999994 H51.283422 L43.495992 -57.422991999999994 H43.19775 L36.295578 -64.325164 H39.547836 L47.34 -56.532999999999994 H76.63399199999999 Q80.577414 -56.532999999999994 83.289996 -53.82041799999999 Q86.00257800000001 -51.10783599999999 86.00257800000001 -47.164413999999994 V-12.94232799999999 Q86.00257800000001 -12.842913999999993 86.24874600000001 -13.188495999999986 Q86.49491400000001 -13.534077999999994 86.887836 -13.728172 Z M85.112586 5.993672000000004  75.351078 -3.6684219999999925 H18.046008 Q14.102586 -3.6684219999999925 11.390004000000001 -6.38100399999999 Q8.677422 -9.093585999999988 8.677422 -13.037007999999986 V-55.05599199999999 Q8.677422 -58.800585999999996 11.096496 -61.41375399999999 Q13.510836000000001 -64.026922 17.260164 -64.325164 H24.559991999999998 L31.462163999999998 -57.422991999999994 H18.046008 Q16.961922 -57.422991999999994 16.275492 -56.73182799999999 Q15.584328 -56.04066399999999 15.584328 -55.05599199999999 V-13.037007999999986 Q15.584328 -11.952922000000001 16.275492 -11.266492 Q16.961922 -10.575327999999999 18.046008 -10.575327999999999 H68.444172 L15.091992000000001 -63.83282799999999 Q13.908492 -65.01632799999999 14.055245999999999 -66.39392199999999 Q14.202 -67.77624999999999 15.286086000000001 -68.86033599999999 Q16.469586 -70.043836 17.7525 -70.043836 Q19.035414 -70.043836 20.218913999999998 -68.86033599999999 L90.04541400000001 1.164991999999998 Q90.93067199999999 2.0502500000000055 91.1295 3.5319920000000025 Q91.32832800000001 5.009 90.144828 6.093086 Q89.15542199999999 7.276586000000009 87.678414 7.1298320000000075 Q86.19667199999999 6.98307800000002 85.112586 5.993672000000004 Z"/></g><g id="Ultralight-S" transform="matrix(1 0 0 1 517.792 696)"><path d="M85.80375 -14.816991999999999  79.095672 -21.520335999999986 V-46.47324999999999 Q79.095672 -47.855577999999994 78.210414 -48.740835999999994 Q77.320422 -49.630827999999994 75.942828 -49.630827999999994 H51.780492 L44.873585999999996 -56.532999999999994 H44.083008 L38.364335999999994 -62.251672 H40.437827999999996 L47.34 -55.34949999999999 H75.942828 Q79.687422 -55.34949999999999 82.25325 -52.783671999999996 Q84.819078 -50.22257799999999 84.819078 -46.47324999999999 V-13.63349199999999 Q84.819078 -13.63349199999999 85.112586 -14.073753999999994 Q85.41082800000001 -14.518749999999997 85.80375 -14.816991999999999 Z M85.903164 5.1084140000000104  75.84341400000001 -4.851921999999988 H18.737172 Q14.992578 -4.851921999999988 12.42675 -7.417749999999998 Q9.860922 -9.983577999999994 9.860922 -13.728172 V-53.37542199999999 Q9.860922 -57.025335999999996 12.128507999999998 -59.491749999999996 Q14.400827999999999 -61.958164 17.951328 -62.251672 H26.62875 L32.347422 -56.532999999999994 H18.737172 Q17.359578 -56.532999999999994 16.469586 -55.643007999999995 Q15.584328 -54.757749999999994 15.584328 -53.37542199999999 V-13.728172 Q15.584328 -12.350577999999999 16.469586 -11.460585999999992 Q17.359578 -10.575327999999999 18.737172 -10.575327999999999 H70.120008 L16.862508 -63.733413999999996 Q15.877836 -64.718086 16.02459 -65.85424599999999 Q16.176078 -66.985672 17.061336 -67.875664 Q18.145422 -68.95974999999999 19.134828 -68.95974999999999 Q20.1195 -68.95974999999999 21.203586 -67.875664 L89.946 1.0655780000000163 Q90.73657800000001 1.8514219999999995 90.93067199999999 3.0869960000000134 Q91.1295 4.317836 90.144828 5.2078280000000206 Q89.254836 6.291914000000006 88.02399600000001 6.145160000000004 Q86.788422 5.993672000000004 85.903164 5.1084140000000104 Z"/></g></g></svg>