<svg xmlns="http://www.w3.org/2000/svg" height="48" width="48"><path d="M22.85 42.75v-6H8.5V34.5h31v2.25H25.15v6Zm-6.5-19.3q.6 0 1-.425t.4-1.025q0-.55-.425-.975-.425-.425-.975-.425-.6 0-1 .425t-.4 1.025q0 .55.4.975.4.425 1 .425Zm15.3 0q.6 0 1.025-.425Q33.1 22.6 33.1 22q0-.55-.425-.975-.425-.425-1.025-.425-.6 0-1 .425t-.4 1.025q0 .55.425.975.425.425.975.425ZM11 18.1 14.15 9q.15-.55.625-.9t1.025-.35h16.4q.55 0 1 .35.45.35.65.9L37 18.1v12.7q0 .4-.275.675t-.675.275h-.35q-.45 0-.7-.275-.25-.275-.25-.675v-3.3h-21.5v3.3q0 .4-.25.675t-.7.275h-.35q-.4 0-.675-.275T11 30.8Zm2.9-1.5h20.25l-2.25-6.55H16.1Z"/></svg>