<svg xmlns="http://www.w3.org/2000/svg" height="40" viewBox="0 -960 960 960" width="40"><path d="M235.08-299.2q-55.97-32.51-89.62-89.49-33.64-56.98-33.64-125.95 0-80.89 40.06-144.33 40.05-63.44 88.12-107.75 48.07-44.32 88.12-67.77l40.06-23.44v112.05q0 21.7 15.64 36.76 15.64 15.06 37.18 15.06 11.43 0 22.19-5.29 10.76-5.29 18.28-14.64l17.88-21.72q43.22 25.32 73.54 63.55 30.32 38.23 44.4 83.96L489.67-480.58q-4.08-5.75-8.48-11.27-4.41-5.53-9.49-11.27L360-612.06 250.22-503.12q-22.57 22.57-34.53 50.1-11.95 27.53-11.95 58.68 0 27.37 8.18 51.09 8.19 23.73 23.16 44.05Zm88.35-15.13q-23.13-10.34-37.62-31.19-14.48-20.85-14.48-48.82 0-17.91 6.42-33.51 6.42-15.61 19.23-27.51l63.78-63.12 64.26 63.2q4.91 5.81 8.9 11.67 3.99 5.87 6.66 12.12L323.43-314.33ZM292.2-63.3l-62.49-62.49 571.4-571.56 62.41 62.65-143.96 143.8h143.96v89.42H629.83l-20.14 20.38 54.56 55.22h199.27v89.42H753.67l89.36 89.45-62.65 62.41-89.37-89.36v110.68h-89.26v-199.95l-54.71-55.14-21.13 21.28v233.81h-89.42v-144.63L292.2-63.3Z"/></svg>