<svg xmlns="http://www.w3.org/2000/svg" version="1.1" width="3300" height="2000"><g id="Notes"><style>
    text {
      font-family: monospace;
      text-anchor: middle;
    }
    text.emphasis {
      font-weight:bold;
    }
    text.lanchor {
      text-anchor: start;
    }
  </style><rect height="2200" id="artboard" fill="white" width="3300" x="0" y="0"/><line id="" style="fill:none;stroke:black;stroke-width:0.5;" x1="263" x2="3036" y1="292" y2="292"/><text class="lanchor emphasis" transform="matrix(1 0 0 1 263 322)">Weight/Scale Variations</text><text transform="matrix(1 0 0 1 559.711 322)">Ultralight</text><text transform="matrix(1 0 0 1 856.422 322)">Thin</text><text transform="matrix(1 0 0 1 1153.13 322)">Light</text><text transform="matrix(1 0 0 1 1449.84 322)">Regular</text><text transform="matrix(1 0 0 1 1746.56 322)">Medium</text><text transform="matrix(1 0 0 1 2043.27 322)">Semibold</text><text transform="matrix(1 0 0 1 2339.98 322)">Bold</text><text transform="matrix(1 0 0 1 2636.69 322)">Heavy</text><text transform="matrix(1 0 0 1 2933.4 322)">Black</text><text id="template-version" style="text-anchor: end;" transform="matrix(1 0 0 1 3036 1933)">Template v.1.0</text><text class="lanchor" transform="matrix(1 0 0 1 263 726)">Small</text><text class="lanchor" transform="matrix(1 0 0 1 263 1156)">Medium</text><text class="lanchor" transform="matrix(1 0 0 1 263 1586)">Large</text></g><g id="Guides"><g id="H-reference" style="fill:#27AAE1;stroke:none;" transform="matrix(1 0 0 1 339 696)"><path d="M 54.9316 0 L 57.666 0 L 30.5664 -70.459 L 28.0762 -70.459 L 0.976562 0 L 3.66211 0 L 12.9395 -24.4629 L 45.7031 -24.4629 Z M 29.1992 -67.0898 L 29.4434 -67.0898 L 44.8242 -26.709 L 13.8184 -26.709 Z"/></g><line id="Baseline-S" style="fill:none;stroke:#27AAE1;opacity:1;stroke-width:0.577;" x1="263" x2="3036" y1="696" y2="696"/><line id="Capline-S" style="fill:none;stroke:#27AAE1;opacity:1;stroke-width:0.577;" x1="263" x2="3036" y1="625.541" y2="625.541"/><g id="H-reference" style="fill:#27AAE1;stroke:none;" transform="matrix(1 0 0 1 339 1126)"><path d="M 54.9316 0 L 57.666 0 L 30.5664 -70.459 L 28.0762 -70.459 L 0.976562 0 L 3.66211 0 L 12.9395 -24.4629 L 45.7031 -24.4629 Z M 29.1992 -67.0898 L 29.4434 -67.0898 L 44.8242 -26.709 L 13.8184 -26.709 Z"/></g><line id="Baseline-M" style="fill:none;stroke:#27AAE1;opacity:1;stroke-width:0.577;" x1="263" x2="3036" y1="1126" y2="1126"/><line id="Capline-M" style="fill:none;stroke:#27AAE1;opacity:1;stroke-width:0.577;" x1="263" x2="3036" y1="1055.54" y2="1055.54"/><g id="H-reference" style="fill:#27AAE1;stroke:none;" transform="matrix(1 0 0 1 339 1556)"><path d="M 54.9316 0 L 57.666 0 L 30.5664 -70.459 L 28.0762 -70.459 L 0.976562 0 L 3.66211 0 L 12.9395 -24.4629 L 45.7031 -24.4629 Z M 29.1992 -67.0898 L 29.4434 -67.0898 L 44.8242 -26.709 L 13.8184 -26.709 Z"/></g><line id="Baseline-L" style="fill:none;stroke:#27AAE1;opacity:1;stroke-width:0.577;" x1="263" x2="3036" y1="1556" y2="1556"/><line id="Capline-L" style="fill:none;stroke:#27AAE1;opacity:1;stroke-width:0.577;" x1="263" x2="3036" y1="1485.54" y2="1485.54"/><rect height="119.336" id="left-margin" style="fill:darkred;stroke:none;opacity:0.4;" width="12.4512" x="1394.06" y="1030.79"/><rect height="119.336" id="right-margin" style="fill:darkgreen;stroke:none;opacity:0.4;" width="12.4512" x="1502.5112" y="1030.79"/><rect x="1406.5112" y="1045" width="96" height="96" fill="none" stroke="blue" stroke-dasharray="5"/><rect x="1394.06" y="1030.79" width="120.9024" height="119.336" fill="none" stroke="blue"/></g><g id="Symbols"><g id="Bold-L" transform="matrix(1 0 0 1 2266 1556)"><path d="M132.386 34.108  118.68 20.401 H24.026 Q17.608 20.401 13.239 16.031 Q8.869 11.662 8.869 5.244 V-75.704 Q8.869 -80.985 12.195 -85.198 Q15.52 -89.41 20.64 -90.539 H23.865 V-74.252 L7.579 -90.539 Q5.966 -92.163 5.966 -94.575 Q5.966 -96.989 7.748 -98.762 Q9.444 -100.375 11.737 -100.375 Q14.029 -100.375 15.803 -98.762 L140.61 25.884 Q142.222 27.658 142.222 29.996 Q142.222 32.334 140.441 34.108 Q138.744 35.72 136.451 35.72 Q134.16 35.72 132.386 34.108 Z M24.026 5.244 H103.361 L38.7 -59.579 H24.026 V5.244 Q24.026 5.244 24.026 5.244 Q24.026 5.244 24.026 5.244 Z M97.234 -33.779  88.849 -42.002  93.686 -46.84 Q95.415 -48.614 97.89 -48.614 Q100.364 -48.614 102.071 -46.824 Q103.684 -45.032 103.684 -42.649 Q103.684 -40.264 102.071 -38.616 L97.234 -33.779 Z M89.01 -25.555  76.11 -12.655 Q73.794 -10.397 70.598 -10.397 Q67.403 -10.397 65.145 -12.655 L52.89 -25.071 Q51.116 -26.74 51.116 -29.13 Q51.116 -31.521 52.826 -33.295 Q54.536 -35.069 56.937 -35.069 Q59.34 -35.069 61.143 -33.266 L70.627 -23.781 L80.786 -33.94 L89.01 -25.555 Z M146.093 -75.704 V-1.69 Q146.093 2.261 143.717 4.155 Q141.344 6.05 138.396 6.05 Q135.611 6.05 133.192 4.167 Q130.774 2.282 130.774 -1.529 V-59.579 H77.722 Q74.633 -59.579 71.777 -60.782 Q68.923 -61.983 66.758 -64.094 L53.051 -77.961 Q51.129 -79.759 50.72 -82.059 Q50.31 -84.358 51.116 -86.319 Q51.922 -88.281 53.777 -89.652 Q55.631 -91.022 58.211 -91.022 H130.774 Q137.258 -91.022 141.676 -86.606 Q146.093 -82.188 146.093 -75.704 Z"/></g><g id="Semibold-L" transform="matrix(1 0 0 1 1970.27 1556)"><path d="M131.756 33.196  117.138 18.648 H23.396 Q18.033 18.648 14.327 14.943 Q10.622 11.237 10.622 5.874 V-76.334 Q10.622 -81.054 13.737 -84.671 Q16.852 -88.288 21.482 -88.926 H24.707 V-73.691 L7.579 -90.819 Q6.036 -92.372 6.071 -94.61 Q6.107 -96.848 7.748 -98.482 Q9.341 -100.025 11.51 -100.025 Q13.679 -100.025 15.312 -98.482 L139.418 25.603 Q140.96 27.237 140.96 29.399 Q140.96 31.563 139.318 33.196 Q137.725 34.738 135.556 34.738 Q133.389 34.738 131.756 33.196 Z M23.396 5.874 H104.272 L37.158 -61.332 H23.396 V5.874 Q23.396 5.874 23.396 5.874 Q23.396 5.874 23.396 5.874 Z M96.042 -33.008  88.218 -40.74  93.896 -46.419 Q95.513 -48.053 97.819 -48.053 Q100.125 -48.053 101.721 -46.403 Q103.263 -44.752 103.263 -42.501 Q103.263 -40.248 101.721 -38.686 L96.042 -33.008 Z M88.38 -25.345  75.199 -12.165 Q73.259 -10.257 70.611 -10.257 Q67.964 -10.257 66.056 -12.165 L53.171 -25.141 Q51.537 -26.724 51.537 -28.983 Q51.537 -31.241 53.142 -32.874 Q54.746 -34.508 57.008 -34.508 Q59.271 -34.508 60.92 -32.858 L70.627 -23.151 L80.646 -33.169 L88.38 -25.345 Z M144.27 -76.334 V1.395 Q144.27 4.679 142.274 6.276 Q140.279 7.872 137.83 7.872 Q135.471 7.872 133.438 6.269 Q131.404 4.666 131.404 1.485 V-61.332 H73.025 Q70.407 -61.332 68.002 -62.362 Q65.598 -63.392 63.813 -65.145 L50.808 -78.242 Q49.236 -79.806 48.896 -81.707 Q48.557 -83.61 49.223 -85.279 Q49.889 -86.949 51.463 -88.075 Q53.037 -89.2 55.197 -89.2 H131.404 Q136.804 -89.2 140.537 -85.467 Q144.27 -81.734 144.27 -76.334 Z"/></g><g id="Medium-L" transform="matrix(1 0 0 1 1674.31 1556)"><path d="M131.282 32.513  115.981 17.334 H22.922 Q18.35 17.334 15.143 14.127 Q11.936 10.92 11.936 6.348 V-76.808 Q11.936 -81.107 14.893 -84.277 Q17.852 -87.448 22.112 -87.717 H25.337 V-73.27 L7.579 -91.029 Q6.089 -92.53 6.15 -94.636 Q6.211 -96.744 7.748 -98.272 Q9.265 -99.762 11.341 -99.762 Q13.416 -99.762 14.943 -98.272 L138.525 25.394 Q140.013 26.921 140.013 28.952 Q140.013 30.984 138.477 32.513 Q136.961 34.003 134.886 34.003 Q132.81 34.003 131.282 32.513 Z M22.922 6.348 H104.956 L36.001 -62.646 H22.922 V6.348 Q22.922 6.348 22.922 6.348 Q22.922 6.348 22.922 6.348 Z M95.149 -32.429  87.744 -39.793  94.054 -46.103 Q95.587 -47.632 97.766 -47.632 Q99.946 -47.632 101.459 -46.087 Q102.947 -44.542 102.947 -42.389 Q102.947 -40.237 101.459 -38.739 L95.149 -32.429 Z M87.905 -25.187  74.515 -11.796 Q72.858 -10.152 70.621 -10.152 Q68.385 -10.152 66.74 -11.796 L53.38 -25.194 Q51.853 -26.713 51.853 -28.872 Q51.853 -31.031 53.379 -32.558 Q54.904 -34.087 57.06 -34.087 Q59.217 -34.087 60.753 -32.552 L70.627 -22.677 L80.541 -32.59 L87.905 -25.187 Z M142.903 -76.808 V3.709 Q142.903 6.493 141.192 7.867 Q139.48 9.24 137.404 9.24 Q135.366 9.24 133.621 7.846 Q131.878 6.453 131.878 3.747 V-62.646 H69.502 Q67.236 -62.646 65.171 -63.547 Q63.104 -64.448 61.604 -65.934 L49.125 -78.451 Q47.815 -79.84 47.53 -81.444 Q47.243 -83.049 47.804 -84.5 Q48.364 -85.95 49.728 -86.891 Q51.092 -87.833 52.935 -87.833 H131.878 Q136.466 -87.833 139.684 -84.614 Q142.903 -81.396 142.903 -76.808 Z"/></g><g id="Regular-L" transform="matrix(1 0 0 1 1378.56 1556)"><path d="M130.935 32.011  115.133 16.37 H22.575 Q18.584 16.37 15.743 13.527 Q12.9 10.686 12.9 6.695 V-77.155 Q12.9 -81.146 15.743 -83.989 Q18.584 -86.83 22.575 -86.83 H25.8 V-72.962 L7.579 -91.184 Q6.128 -92.646 6.208 -94.655 Q6.289 -96.666 7.748 -98.117 Q9.209 -99.569 11.215 -99.569 Q13.223 -99.569 14.674 -98.117 L137.869 25.239 Q139.32 26.69 139.32 28.625 Q139.32 30.56 137.861 32.011 Q136.4 33.463 134.394 33.463 Q132.386 33.463 130.935 32.011 Z M22.575 6.695 H105.457 L35.153 -63.61 H22.575 V6.695 Q22.575 6.695 22.575 6.695 Q22.575 6.695 22.575 6.695 Z M94.493 -32.005  87.398 -39.1  94.17 -45.872 Q95.642 -47.324 97.729 -47.324 Q99.814 -47.324 101.265 -45.856 Q102.716 -44.387 102.716 -42.309 Q102.716 -40.229 101.265 -38.777 L94.493 -32.005 Z M87.559 -25.071  74.014 -11.526 Q72.562 -10.075 70.627 -10.075 Q68.692 -10.075 67.241 -11.526 L53.535 -25.232 Q52.084 -26.705 52.084 -28.791 Q52.084 -30.876 53.551 -32.327 Q55.02 -33.779 57.099 -33.779 Q59.179 -33.779 60.63 -32.327 L70.627 -22.33 L80.464 -32.166 L87.559 -25.071 Z M141.9 -77.155 V5.405 Q141.9 7.824 140.397 9.033 Q138.894 10.243 137.092 10.243 Q135.289 10.243 133.757 9.004 Q132.225 7.764 132.225 5.405 V-63.61 H66.919 Q64.913 -63.61 63.094 -64.416 Q61.275 -65.222 59.985 -66.512 L47.891 -78.606 Q46.775 -79.866 46.527 -81.252 Q46.279 -82.637 46.763 -83.927 Q47.246 -85.217 48.456 -86.024 Q49.665 -86.83 51.278 -86.83 H132.225 Q136.216 -86.83 139.059 -83.989 Q141.9 -81.146 141.9 -77.155 Z"/></g><g id="Light-L" transform="matrix(1 0 0 1 1082.77 1556)"><path d="M133.23 30.957  115.257 13.145 H25.428 Q21.624 13.145 18.874 10.396 Q16.125 7.646 16.125 3.842 V-74.302 Q16.125 -78.106 18.874 -80.856 Q21.624 -83.605 25.428 -83.605 H29.025 V-73.087 L10.742 -91.432 Q9.662 -92.459 9.681 -94.004 Q9.701 -95.55 10.849 -96.629 Q11.999 -97.771 13.479 -97.771 Q14.959 -97.771 16.101 -96.629 L138.427 25.797 Q139.505 26.875 139.538 28.377 Q139.568 29.878 138.419 30.957 Q137.33 32.098 135.819 32.098 Q134.308 32.098 133.23 30.957 Z M25.428 5.826 H107.939 L39.247 -62.928 H23.444 V3.842 Q23.444 4.71 24.002 5.268 Q24.56 5.826 25.428 5.826 Z M94.183 -33.432  88.825 -38.79  95.162 -45.128 Q96.263 -46.208 97.821 -46.239 Q99.38 -46.269 100.52 -45.111 Q101.662 -43.954 101.662 -42.433 Q101.662 -40.911 100.52 -39.769 L94.183 -33.432 Z M86.69 -25.94  73.89 -13.139 Q72.501 -11.75 70.627 -11.75 Q68.754 -11.75 67.365 -13.139 L54.28 -26.224 Q53.2 -27.326 53.169 -28.883 Q53.138 -30.442 54.296 -31.583 Q55.454 -32.724 56.974 -32.724 Q58.497 -32.724 59.638 -31.583 L70.627 -20.593 L81.333 -31.297 L86.69 -25.94 Z M138.675 -74.302 V3.917 Q138.675 5.715 137.545 6.645 Q136.414 7.575 135.045 7.575 Q133.676 7.575 132.517 6.616 Q131.356 5.657 131.356 3.917 V-62.928 H68.531 Q66.587 -62.928 64.861 -63.704 Q63.136 -64.478 61.846 -65.706 L51.922 -75.691 Q50.807 -76.889 50.558 -78.243 Q50.31 -79.598 50.794 -80.827 Q51.216 -82.054 52.393 -82.829 Q53.572 -83.605 55.123 -83.605 H129.372 Q133.176 -83.605 135.926 -80.856 Q138.675 -78.106 138.675 -74.302 Z"/></g><g id="Thin-L" transform="matrix(1 0 0 1 787.282 1556)"><path d="M135.524 29.902  115.381 9.92 H28.28 Q24.662 9.92 22.006 7.264 Q19.35 4.608 19.35 0.99 V-71.45 Q19.35 -75.068 22.006 -77.724 Q24.662 -80.38 28.28 -80.38 H32.25 V-73.211 L13.905 -91.68 Q13.198 -92.274 13.155 -93.354 Q13.111 -94.433 13.95 -95.141 Q14.79 -95.971 15.743 -95.971 Q16.696 -95.971 17.526 -95.141 L138.985 26.355 Q139.692 27.062 139.754 28.128 Q139.817 29.196 138.977 29.902 Q138.261 30.734 137.246 30.734 Q136.232 30.734 135.524 29.902 Z M28.28 4.958 H110.419 L43.339 -62.246 H24.312 V0.99 Q24.312 2.725 25.428 3.842 Q26.545 4.958 28.28 4.958 Z M93.872 -34.858  90.25 -38.479  96.155 -44.384 Q96.882 -45.09 97.914 -45.153 Q98.946 -45.215 99.777 -44.368 Q100.607 -43.52 100.607 -42.556 Q100.607 -41.593 99.777 -40.762 L93.872 -34.858 Z M85.822 -26.808  73.765 -14.751 Q72.438 -13.424 70.627 -13.424 Q68.817 -13.424 67.49 -14.751 L55.023 -27.217 Q54.317 -27.945 54.254 -28.977 Q54.193 -30.009 55.039 -30.839 Q55.888 -31.67 56.852 -31.67 Q57.815 -31.67 58.645 -30.839 L70.627 -18.857 L82.2 -30.43 L85.822 -26.808 Z M135.45 -71.45 V2.428 Q135.45 3.607 134.692 4.257 Q133.933 4.908 132.999 4.908 Q132.064 4.908 131.277 4.228 Q130.488 3.547 130.488 2.428 V-62.246 H70.144 Q68.26 -62.246 66.629 -62.989 Q64.997 -63.734 63.707 -64.9 L55.954 -72.777 Q54.838 -73.912 54.59 -75.236 Q54.341 -76.56 54.825 -77.726 Q55.185 -78.892 56.333 -79.635 Q57.479 -80.38 58.968 -80.38 H126.52 Q130.138 -80.38 132.794 -77.724 Q135.45 -75.068 135.45 -71.45 Z"/></g><g id="Ultralight-L" transform="matrix(1 0 0 1 491.205 1556)"><path d="M136.901 29.27  115.455 7.985 H29.992 Q26.485 7.985 23.886 5.384 Q21.285 2.785 21.285 -0.722 V-69.737 Q21.285 -73.245 23.886 -75.846 Q26.485 -78.445 29.992 -78.445 H34.185 V-73.285 L15.803 -91.829 Q15.319 -92.163 15.238 -92.962 Q15.158 -93.764 15.811 -94.247 Q16.465 -94.892 17.101 -94.892 Q17.738 -94.892 18.383 -94.247 L139.32 26.69 Q139.804 27.174 139.884 27.98 Q139.965 28.786 139.312 29.27 Q138.819 29.915 138.103 29.915 Q137.385 29.915 136.901 29.27 Z M29.992 4.438 H111.907 L45.795 -61.836 H24.832 V-0.722 Q24.832 1.535 26.284 2.986 Q27.735 4.438 29.992 4.438 Z M93.686 -35.714  91.106 -38.294  96.75 -43.937 Q97.255 -44.421 97.971 -44.502 Q98.685 -44.582 99.33 -43.921 Q99.975 -43.259 99.975 -42.631 Q99.975 -42.002 99.33 -41.357 L93.686 -35.714 Z M85.301 -27.329  73.691 -15.719 Q72.401 -14.429 70.627 -14.429 Q68.854 -14.429 67.564 -15.719 L55.47 -27.812 Q54.986 -28.317 54.906 -29.033 Q54.825 -29.747 55.486 -30.392 Q56.149 -31.037 56.776 -31.037 Q57.405 -31.037 58.05 -30.392 L70.627 -17.815 L82.721 -29.909 L85.301 -27.329 Z M133.515 -69.737 V1.535 Q133.515 2.341 132.98 2.825 Q132.444 3.309 131.77 3.309 Q131.096 3.309 130.532 2.796 Q129.968 2.282 129.968 1.535 V-61.836 H71.111 Q69.267 -61.836 67.69 -62.562 Q66.112 -63.287 64.823 -64.416 L58.373 -71.027 Q57.257 -72.126 57.008 -73.432 Q56.76 -74.736 57.244 -75.865 Q57.566 -76.994 58.695 -77.719 Q59.824 -78.445 61.275 -78.445 H124.808 Q128.315 -78.445 130.916 -75.846 Q133.515 -73.245 133.515 -69.737 Z"/></g><g id="Bold-M" transform="matrix(1 0 0 1 2281.8 1126)"><path d="M100.25 19.77  89.375 9.02 H21.5 Q14.875 9.02 10.312 4.458 Q5.75 -0.105 5.75 -6.73 V-63.73 Q5.75 -69.355 9.188 -73.605 Q12.625 -77.855 18 -79.105 V-62.355 L6.75 -73.605 Q5 -75.355 5.062 -77.792 Q5.125 -80.23 6.875 -81.98 Q8.625 -83.73 11 -83.73 Q13.375 -83.73 15.125 -81.98 L108.625 11.395 Q110.375 13.145 110.312 15.583 Q110.25 18.02 108.5 19.77 Q106.75 21.52 104.375 21.52 Q102 21.52 100.25 19.77 Z M21.5 -6.73 H73.625 L29.375 -50.98 H21.5 V-6.73 Q21.5 -6.73 21.5 -6.73 Q21.5 -6.73 21.5 -6.73 Z M78.625 -35.355  70.125 -43.855  71.625 -45.355 Q73.375 -47.105 75.875 -47.105 Q78.375 -47.105 80.125 -45.355 Q81.875 -43.605 81.875 -41.105 Q81.875 -38.605 80.125 -36.855 L78.625 -35.355 Z M70.25 -26.98  60.375 -17.105 Q58 -14.73 54.75 -14.73 Q51.5 -14.73 49.125 -17.105 L39.875 -26.355 Q38.125 -28.105 38.125 -30.605 Q38.125 -33.105 39.875 -34.855 Q41.625 -36.605 44.125 -36.605 Q46.625 -36.605 48.375 -34.855 L54.75 -28.48 L61.75 -35.48 L70.25 -26.98 Z M114.25 -63.73 V-17.48 Q114.25 -13.48 111.812 -11.542 Q109.375 -9.605 106.375 -9.605 Q103.5 -9.605 101 -11.542 Q98.5 -13.48 98.5 -17.48 V-50.98 H69.5 Q66.375 -50.98 63.5 -52.167 Q60.625 -53.355 58.375 -55.605 L48 -65.98 Q46.125 -67.855 45.75 -70.167 Q45.375 -72.48 46.25 -74.605 Q47.125 -76.73 49 -78.105 Q50.875 -79.48 53.5 -79.48 H98.5 Q105.125 -79.48 109.688 -74.917 Q114.25 -70.355 114.25 -63.73 Z"/></g><g id="Semibold-M" transform="matrix(1 0 0 1 1985.97 1126)"><path d="M99.597 18.846  87.799 7.173 H20.848 Q15.31 7.173 11.454 3.316 Q7.598 -0.54 7.598 -6.077 V-64.382 Q7.598 -69.355 10.818 -73.035 Q14.037 -76.714 18.87 -77.42 V-61.757 L6.75 -73.876 Q5.109 -75.517 5.171 -77.792 Q5.234 -80.067 6.875 -81.709 Q8.516 -83.35 10.755 -83.35 Q12.995 -83.35 14.636 -81.709 L107.43 11.069 Q109.071 12.71 109.035 14.958 Q109 17.205 107.359 18.846 Q105.718 20.488 103.479 20.488 Q101.239 20.488 99.597 18.846 Z M20.848 -6.077 H74.549 L27.799 -52.827 H20.848 V-6.077 Q20.848 -6.077 20.848 -6.077 Q20.848 -6.077 20.848 -6.077 Z M77.43 -34.594  69.472 -42.551  71.843 -44.92 Q73.484 -46.561 75.821 -46.561 Q78.157 -46.561 79.799 -44.92 Q81.44 -43.279 81.44 -40.942 Q81.44 -38.605 79.799 -36.964 L77.43 -34.594 Z M69.597 -26.762  59.451 -16.616 Q57.456 -14.621 54.75 -14.621 Q52.044 -14.621 50.049 -16.616 L40.201 -26.464 Q38.56 -28.105 38.56 -30.442 Q38.56 -32.779 40.201 -34.42 Q41.843 -36.061 44.179 -36.061 Q46.516 -36.061 48.157 -34.42 L54.75 -27.827 L61.641 -34.719 L69.597 -26.762 Z M112.403 -64.382 V-14.327 Q112.403 -10.98 110.345 -9.341 Q108.287 -7.702 105.778 -7.702 Q103.338 -7.702 101.245 -9.369 Q99.153 -11.035 99.153 -14.382 V-52.827 H64.664 Q62.028 -52.827 59.615 -53.825 Q57.201 -54.822 55.331 -56.692 L45.718 -66.306 Q44.169 -67.909 43.847 -69.814 Q43.528 -71.719 44.294 -73.517 Q45.06 -75.317 46.609 -76.475 Q48.157 -77.632 50.403 -77.632 H99.153 Q104.69 -77.632 108.546 -73.776 Q112.403 -69.92 112.403 -64.382 Z"/></g><g id="Medium-M" transform="matrix(1 0 0 1 1689.91 1126)"><path d="M99.109 18.154  86.616 5.786 H20.359 Q15.636 5.786 12.31 2.46 Q8.984 -0.866 8.984 -5.589 V-64.871 Q8.984 -69.355 12.041 -72.606 Q15.098 -75.857 19.521 -76.156 V-61.309 L6.75 -74.08 Q5.19 -75.64 5.253 -77.792 Q5.315 -79.945 6.875 -81.505 Q8.435 -83.064 10.572 -83.064 Q12.709 -83.064 14.269 -81.505 L106.532 10.824 Q108.093 12.384 108.078 14.489 Q108.062 16.594 106.502 18.154 Q104.942 19.713 102.806 19.713 Q100.669 19.713 99.109 18.154 Z M20.359 -5.589 H75.241 L26.616 -54.214 H20.359 V-5.589 Q20.359 -5.589 20.359 -5.589 Q20.359 -5.589 20.359 -5.589 Z M76.532 -34.024  68.984 -41.572  72.005 -44.594 Q73.565 -46.154 75.78 -46.154 Q77.995 -46.154 79.554 -44.594 Q81.114 -43.034 81.114 -40.82 Q81.114 -38.605 79.554 -37.045 L76.532 -34.024 Z M69.109 -26.6  58.759 -16.249 Q57.049 -14.54 54.75 -14.54 Q52.451 -14.54 50.741 -16.249 L40.446 -26.545 Q38.886 -28.105 38.886 -30.32 Q38.886 -32.534 40.446 -34.094 Q42.005 -35.654 44.22 -35.654 Q46.435 -35.654 47.995 -34.094 L54.75 -27.339 L61.56 -34.149 L69.109 -26.6 Z M111.016 -64.871 V-11.964 Q111.016 -9.105 109.245 -7.69 Q107.472 -6.276 105.329 -6.276 Q103.215 -6.276 101.427 -7.739 Q99.641 -9.2 99.641 -12.059 V-54.214 H61.035 Q58.766 -54.214 56.7 -55.069 Q54.634 -55.922 53.049 -57.507 L44.005 -66.551 Q42.701 -67.95 42.421 -69.549 Q42.141 -71.149 42.826 -72.702 Q43.511 -74.257 44.815 -75.251 Q46.12 -76.246 48.079 -76.246 H99.641 Q104.364 -76.246 107.69 -72.92 Q111.016 -69.594 111.016 -64.871 Z"/></g><g id="Regular-M" transform="matrix(1 0 0 1 1394.06 1126)"><path d="M98.75 17.645  85.75 4.77 H20 Q15.875 4.77 12.938 1.833 Q10 -1.105 10 -5.23 V-65.23 Q10 -69.355 12.938 -72.292 Q15.875 -75.23 20 -75.23 V-60.98 L6.75 -74.23 Q5.25 -75.73 5.312 -77.792 Q5.375 -79.855 6.875 -81.355 Q8.375 -82.855 10.438 -82.855 Q12.5 -82.855 14 -81.355 L105.875 10.645 Q107.375 12.145 107.375 14.145 Q107.375 16.145 105.875 17.645 Q104.375 19.145 102.312 19.145 Q100.25 19.145 98.75 17.645 Z M20 -5.23 H75.75 L25.75 -55.23 H20 V-5.23 Q20 -5.23 20 -5.23 Q20 -5.23 20 -5.23 Z M75.875 -33.605  68.625 -40.855  72.125 -44.355 Q73.625 -45.855 75.75 -45.855 Q77.875 -45.855 79.375 -44.355 Q80.875 -42.855 80.875 -40.73 Q80.875 -38.605 79.375 -37.105 L75.875 -33.605 Z M68.75 -26.48  58.25 -15.98 Q56.75 -14.48 54.75 -14.48 Q52.75 -14.48 51.25 -15.98 L40.625 -26.605 Q39.125 -28.105 39.125 -30.23 Q39.125 -32.355 40.625 -33.855 Q42.125 -35.355 44.25 -35.355 Q46.375 -35.355 47.875 -33.855 L54.75 -26.98 L61.5 -33.73 L68.75 -26.48 Z M110 -65.23 V-10.23 Q110 -7.73 108.438 -6.48 Q106.875 -5.23 105 -5.23 Q103.125 -5.23 101.562 -6.542 Q100 -7.855 100 -10.355 V-55.23 H58.375 Q56.375 -55.23 54.562 -55.98 Q52.75 -56.73 51.375 -58.105 L42.75 -66.73 Q41.625 -67.98 41.375 -69.355 Q41.125 -70.73 41.75 -72.105 Q42.375 -73.48 43.5 -74.355 Q44.625 -75.23 46.375 -75.23 H100 Q104.125 -75.23 107.062 -72.292 Q110 -69.355 110 -65.23 Z"/></g><g id="Light-M" transform="matrix(1 0 0 1 1098.18 1126)"><path d="M101.25 16.635  86.808 2.27 H21.539 Q17.799 2.27 15.149 -0.379 Q12.5 -3.029 12.5 -6.769 V-63.691 Q12.5 -67.431 15.149 -70.081 Q17.799 -72.73 21.539 -72.73 H22.5 V-62.037 L8.961 -75.576 Q7.846 -76.691 7.861 -78.225 Q7.875 -79.759 9.039 -80.922 Q10.203 -82.086 11.711 -82.086 Q13.221 -82.086 14.385 -80.922 L106.596 11.366 Q107.711 12.481 107.735 13.976 Q107.76 15.471 106.596 16.635 Q105.433 17.799 103.924 17.799 Q102.414 17.799 101.25 16.635 Z M21.539 -5.23 H79.308 L29.308 -55.23 H20 V-6.769 Q20 -6.095 20.433 -5.662 Q20.865 -5.23 21.539 -5.23 Z M74.914 -34.47  69.49 -39.894  73.135 -43.537 Q74.25 -44.652 75.823 -44.677 Q77.394 -44.701 78.558 -43.537 Q79.721 -42.374 79.721 -40.826 Q79.721 -39.279 78.558 -38.115 L74.914 -34.47 Z M67.836 -27.394  57.914 -17.47 Q56.557 -16.115 54.75 -16.115 Q52.943 -16.115 51.586 -17.47 L41.443 -27.615 Q40.328 -28.73 40.303 -30.302 Q40.279 -31.874 41.443 -33.037 Q42.606 -34.201 44.154 -34.201 Q45.701 -34.201 46.865 -33.037 L54.75 -25.152 L62.414 -32.816 L67.836 -27.394 Z M107.5 -63.691 V-9.652 Q107.5 -7.777 106.323 -6.84 Q105.144 -5.904 103.75 -5.904 Q102.356 -5.904 101.177 -6.879 Q100 -7.855 100 -9.73 V-55.23 H57.894 Q56.086 -55.23 54.419 -55.932 Q52.75 -56.634 51.519 -57.865 L44.336 -65.047 Q43.307 -66.201 43.081 -67.456 Q42.856 -68.71 43.385 -69.941 Q43.914 -71.172 44.966 -71.951 Q46.019 -72.73 47.578 -72.73 H98.461 Q102.201 -72.73 104.851 -70.081 Q107.5 -67.431 107.5 -63.691 Z"/></g><g id="Thin-M" transform="matrix(1 0 0 1 802.565 1126)"><path d="M103.75 15.626  87.865 -0.23 H23.078 Q19.721 -0.23 17.36 -2.59 Q15 -4.951 15 -8.307 V-62.152 Q15 -65.509 17.36 -67.87 Q19.721 -70.23 23.078 -70.23 H25 V-63.095 L11.172 -76.922 Q10.443 -77.652 10.409 -78.657 Q10.375 -79.662 11.203 -80.49 Q12.029 -81.316 12.985 -81.316 Q13.943 -81.316 14.769 -80.49 L107.317 12.088 Q108.047 12.818 108.096 13.809 Q108.144 14.799 107.317 15.626 Q106.49 16.453 105.534 16.453 Q104.578 16.453 103.75 15.626 Z M23.078 -5.23 H82.865 L32.865 -55.23 H20 V-8.307 Q20 -6.961 20.865 -6.095 Q21.731 -5.23 23.078 -5.23 Z M73.953 -35.336  70.356 -38.932  74.144 -42.72 Q74.875 -43.451 75.894 -43.499 Q76.914 -43.547 77.74 -42.72 Q78.567 -41.894 78.567 -40.922 Q78.567 -39.951 77.74 -39.124 L73.953 -35.336 Z M66.922 -28.307  57.578 -18.961 Q56.365 -17.749 54.75 -17.749 Q53.135 -17.749 51.922 -18.961 L42.26 -28.624 Q41.529 -29.355 41.481 -30.374 Q41.432 -31.394 42.26 -32.22 Q43.086 -33.047 44.057 -33.047 Q45.029 -33.047 45.856 -32.22 L54.75 -23.326 L63.328 -31.902 L66.922 -28.307 Z M105 -62.152 V-9.076 Q105 -7.826 104.206 -7.201 Q103.414 -6.576 102.5 -6.576 Q101.586 -6.576 100.794 -7.215 Q100 -7.855 100 -9.105 V-55.23 H57.414 Q55.797 -55.23 54.274 -55.884 Q52.75 -56.537 51.664 -57.624 L45.922 -63.365 Q44.99 -64.422 44.789 -65.557 Q44.586 -66.691 45.019 -67.777 Q45.453 -68.865 46.432 -69.547 Q47.414 -70.23 48.779 -70.23 H96.922 Q100.279 -70.23 102.64 -67.87 Q105 -65.509 105 -62.152 Z"/></g><g id="Ultralight-M" transform="matrix(1 0 0 1 506.415 1126)"><path d="M105.25 15.02  88.5 -1.73 H24 Q20.875 -1.73 18.688 -3.917 Q16.5 -6.105 16.5 -9.23 V-61.23 Q16.5 -64.355 18.688 -66.542 Q20.875 -68.73 24 -68.73 H26.5 V-63.73 L12.5 -77.73 Q12 -78.23 11.938 -78.917 Q11.875 -79.605 12.5 -80.23 Q13.125 -80.855 13.75 -80.855 Q14.375 -80.855 15 -80.23 L107.75 12.52 Q108.25 13.02 108.312 13.708 Q108.375 14.395 107.75 15.02 Q107.125 15.645 106.5 15.645 Q105.875 15.645 105.25 15.02 Z M24 -5.23 H85 L35 -55.23 H20 V-9.23 Q20 -7.48 21.125 -6.355 Q22.25 -5.23 24 -5.23 Z M73.375 -35.855  70.875 -38.355  74.75 -42.23 Q75.25 -42.73 75.938 -42.792 Q76.625 -42.855 77.25 -42.23 Q77.875 -41.605 77.875 -40.98 Q77.875 -40.355 77.25 -39.73 L73.375 -35.855 Z M66.375 -28.855  57.375 -19.855 Q56.25 -18.73 54.75 -18.73 Q53.25 -18.73 52.125 -19.855 L42.75 -29.23 Q42.25 -29.73 42.188 -30.417 Q42.125 -31.105 42.75 -31.73 Q43.375 -32.355 44 -32.355 Q44.625 -32.355 45.25 -31.73 L54.75 -22.23 L63.875 -31.355 L66.375 -28.855 Z M103.5 -61.23 V-8.73 Q103.5 -7.855 102.938 -7.417 Q102.375 -6.98 101.75 -6.98 Q101.125 -6.98 100.562 -7.417 Q100 -7.855 100 -8.73 V-55.23 H57.125 Q55.625 -55.23 54.188 -55.855 Q52.75 -56.48 51.75 -57.48 L46.875 -62.355 Q46 -63.355 45.812 -64.417 Q45.625 -65.48 46 -66.48 Q46.375 -67.48 47.312 -68.105 Q48.25 -68.73 49.5 -68.73 H96 Q99.125 -68.73 101.312 -66.542 Q103.5 -64.355 103.5 -61.23 Z"/></g><g id="Bold-S" transform="matrix(1 0 0 1 2294.23 696)"><path d="M77.815 5.798  68.544 -3.473 H17.753 Q12.851 -3.473 9.483 -6.842 Q6.115 -10.211 6.115 -15.114 V-55.377 Q6.115 -59.492 8.682 -62.598 Q11.249 -65.705 15.287 -66.691 H16.372 V-55.744 L7.989 -64.127 Q6.707 -65.409 6.756 -67.086 Q6.805 -68.762 8.087 -70.045 Q9.369 -71.327 10.997 -71.327 Q12.624 -71.327 13.941 -70.011 L83.797 -0.35 Q85.113 0.965 85.064 2.709 Q85.015 4.453 83.733 5.699 Q82.451 6.982 80.774 7.031 Q79.097 7.08 77.815 5.798 Z M17.753 -15.11 H56.907 L25.938 -46.079 H17.753 V-15.11 Q17.753 -15.11 17.753 -15.11 Q17.753 -15.11 17.753 -15.11 Z M61.148 -35.033  55.131 -41.049  57.005 -42.923 Q58.287 -44.205 60.013 -44.205 Q61.739 -44.205 63.021 -42.923 Q64.303 -41.641 64.303 -39.964 Q64.303 -38.287 63.021 -37.005 L61.148 -35.033 Z M55.131 -29.017  47.34 -21.324 Q45.574 -19.549 43.153 -19.549 Q40.732 -19.549 38.957 -21.324 L31.659 -28.622 Q30.377 -29.904 30.426 -31.63 Q30.475 -33.356 31.757 -34.638 Q33.039 -35.92 34.765 -35.92 Q36.491 -35.92 37.773 -34.638 L43.198 -29.115 L49.115 -35.033 L55.131 -29.017 Z M88.565 -55.349 V-20.831 Q88.565 -17.872 86.765 -16.442 Q84.965 -15.012 82.746 -15.012 Q80.626 -15.012 78.777 -16.414 Q76.928 -17.817 76.928 -20.732 V-46.079 H54.934 Q52.644 -46.079 50.534 -46.917 Q48.425 -47.755 46.65 -49.531 L39.162 -57.027 Q37.773 -58.407 37.477 -60.182 Q37.182 -61.957 37.773 -63.437 Q38.365 -64.916 39.845 -65.952 Q41.324 -66.987 43.198 -66.987 H76.928 Q81.829 -66.987 85.197 -63.619 Q88.565 -60.251 88.565 -55.349 Z"/></g><g id="Semibold-S" transform="matrix(1 0 0 1 1998.1 696)"><path d="M77.3 5.069  67.301 -4.93 H17.238 Q13.194 -4.93 10.383 -7.742 Q7.572 -10.554 7.572 -14.6 V-55.892 Q7.572 -59.492 9.968 -62.149 Q12.365 -64.805 15.973 -65.362 H17.058 V-55.273 L7.989 -64.341 Q6.792 -65.537 6.842 -67.086 Q6.891 -68.634 8.087 -69.831 Q9.284 -71.027 10.803 -71.027 Q12.324 -71.027 13.555 -69.797 L82.853 -0.608 Q84.085 0.622 84.056 2.216 Q84.029 3.81 82.832 4.971 Q81.636 6.167 80.067 6.216 Q78.497 6.265 77.3 5.069 Z M17.238 -14.596 H57.635 L24.695 -47.536 H17.238 V-14.596 Q17.238 -14.596 17.238 -14.596 Q17.238 -14.596 17.238 -14.596 Z M60.205 -34.432  54.617 -40.02  57.177 -42.58 Q58.373 -43.776 59.971 -43.776 Q61.568 -43.776 62.764 -42.58 Q63.96 -41.383 63.96 -39.836 Q63.96 -38.287 62.764 -37.091 L60.205 -34.432 Z M54.617 -28.845  46.611 -20.938 Q45.145 -19.463 43.153 -19.463 Q41.161 -19.463 39.686 -20.938 L31.916 -28.708 Q30.72 -29.904 30.769 -31.502 Q30.818 -33.099 32.015 -34.295 Q33.211 -35.491 34.808 -35.491 Q36.405 -35.491 37.602 -34.295 L43.198 -28.6 L49.029 -34.432 L54.617 -28.845 Z M87.108 -55.864 V-18.343 Q87.108 -15.899 85.607 -14.705 Q84.107 -13.511 82.275 -13.511 Q80.498 -13.511 78.97 -14.699 Q77.442 -15.888 77.442 -18.288 V-47.536 H51.118 Q49.214 -47.536 47.468 -48.225 Q45.724 -48.913 44.248 -50.389 L37.361 -57.285 Q36.23 -58.449 35.976 -59.903 Q35.724 -61.357 36.23 -62.579 Q36.736 -63.802 37.958 -64.666 Q39.18 -65.53 40.754 -65.53 H77.442 Q81.486 -65.53 84.297 -62.719 Q87.108 -59.908 87.108 -55.864 Z"/></g><g id="Medium-S" transform="matrix(1 0 0 1 1701.85 696)"><path d="M76.915 4.523  66.368 -6.024 H16.852 Q13.451 -6.024 11.059 -8.418 Q8.666 -10.811 8.666 -14.214 V-56.278 Q8.666 -59.492 10.934 -61.81 Q13.2 -64.129 16.487 -64.365 H17.572 V-54.919 L7.989 -64.502 Q6.856 -65.634 6.906 -67.086 Q6.955 -68.538 8.087 -69.67 Q9.219 -70.801 10.659 -70.801 Q12.098 -70.801 13.265 -69.636 L82.146 -0.8 Q83.312 0.365 83.301 1.846 Q83.289 3.327 82.157 4.424 Q81.024 5.555 79.536 5.605 Q78.047 5.654 76.915 4.523 Z M16.852 -14.21 H58.182 L23.762 -48.63 H16.852 V-14.21 Q16.852 -14.21 16.852 -14.21 Q16.852 -14.21 16.852 -14.21 Z M59.497 -33.982  54.231 -39.248  57.305 -42.322 Q58.437 -43.454 59.938 -43.454 Q61.439 -43.454 62.571 -42.322 Q63.703 -41.19 63.703 -39.739 Q63.703 -38.287 62.571 -37.155 L59.497 -33.982 Z M54.231 -28.717  46.065 -20.648 Q44.823 -19.399 43.153 -19.399 Q41.483 -19.399 40.232 -20.648 L32.109 -28.772 Q30.977 -29.904 31.026 -31.405 Q31.076 -32.905 32.208 -34.038 Q33.339 -35.17 34.84 -35.17 Q36.341 -35.17 37.474 -34.038 L43.198 -28.215 L48.965 -33.982 L54.231 -28.717 Z M86.014 -56.25 V-16.478 Q86.014 -14.42 84.74 -13.402 Q83.464 -12.385 81.921 -12.385 Q80.401 -12.385 79.114 -13.412 Q77.828 -14.44 77.828 -16.455 V-48.63 H48.255 Q46.641 -48.63 45.169 -49.206 Q43.698 -49.781 42.447 -51.032 L36.01 -57.478 Q35.072 -58.482 34.851 -59.694 Q34.63 -60.907 35.072 -61.936 Q35.514 -62.965 36.543 -63.7 Q37.572 -64.436 38.92 -64.436 H77.828 Q81.229 -64.436 83.621 -62.043 Q86.014 -59.651 86.014 -56.25 Z"/></g><g id="Regular-S" transform="matrix(1 0 0 1 1405.73 696)"><path d="M76.632 4.121  65.684 -6.826 H16.569 Q13.64 -6.826 11.554 -8.913 Q9.468 -11 9.468 -13.931 V-56.561 Q9.468 -59.492 11.641 -61.563 Q13.813 -63.634 16.865 -63.634 H17.95 V-54.659 L7.989 -64.62 Q6.904 -65.705 6.953 -67.086 Q7.002 -68.467 8.087 -69.551 Q9.172 -70.636 10.553 -70.636 Q11.934 -70.636 13.053 -69.518 L81.627 -0.942 Q82.746 0.176 82.746 1.575 Q82.746 2.973 81.662 4.023 Q80.577 5.108 79.147 5.157 Q77.716 5.206 76.632 4.121 Z M16.569 -13.927 H58.583 L23.078 -49.432 H16.569 V-13.927 Q16.569 -13.927 16.569 -13.927 Q16.569 -13.927 16.569 -13.927 Z M58.978 -33.652  53.948 -38.682  57.4 -42.134 Q58.485 -43.219 59.915 -43.219 Q61.345 -43.219 62.43 -42.134 Q63.515 -41.049 63.515 -39.668 Q63.515 -38.287 62.43 -37.202 L58.978 -33.652 Z M53.948 -28.622  45.663 -20.436 Q44.587 -19.351 43.153 -19.351 Q41.718 -19.351 40.634 -20.436 L32.25 -28.819 Q31.166 -29.904 31.215 -31.334 Q31.264 -32.764 32.349 -33.849 Q33.434 -34.934 34.864 -34.934 Q36.294 -34.934 37.379 -33.849 L43.198 -27.932 L48.918 -33.652 L53.948 -28.622 Z M85.212 -56.533 V-15.11 Q85.212 -13.335 84.102 -12.448 Q82.993 -11.56 81.662 -11.56 Q80.33 -11.56 79.221 -12.469 Q78.111 -13.379 78.111 -15.11 V-49.432 H46.157 Q44.754 -49.432 43.483 -49.925 Q42.212 -50.418 41.127 -51.503 L35.02 -57.619 Q34.223 -58.505 34.026 -59.541 Q33.828 -60.577 34.223 -61.464 Q34.617 -62.352 35.505 -62.993 Q36.393 -63.634 37.576 -63.634 H78.111 Q81.04 -63.634 83.126 -61.548 Q85.212 -59.462 85.212 -56.533 Z"/></g><g id="Light-S" transform="matrix(1 0 0 1 1109.75 696)"><path d="M78.604 3.324  66.519 -8.798 H17.783 Q15.158 -8.798 13.299 -10.659 Q11.441 -12.518 11.441 -15.145 V-55.347 Q11.441 -57.974 13.385 -59.818 Q15.331 -61.661 18.079 -61.661 H19.922 V-55.493 L9.733 -65.682 Q8.952 -66.464 8.964 -67.427 Q8.975 -68.391 9.794 -69.21 Q10.614 -70.03 11.558 -70.03 Q12.503 -70.03 13.357 -69.177 L82.196 -0.373 Q83.012 0.442 83.03 1.443 Q83.05 2.443 82.231 3.226 Q81.411 4.045 80.418 4.095 Q79.424 4.144 78.604 3.324 Z M17.783 -13.927 H61.39 L25.885 -49.432 H16.569 V-15.141 Q16.569 -14.609 16.91 -14.268 Q17.251 -13.927 17.783 -13.927 Z M58.219 -34.334  54.63 -37.923  58.197 -41.489 Q58.978 -42.27 59.972 -42.29 Q60.965 -42.308 61.785 -41.489 Q62.604 -40.669 62.604 -39.744 Q62.604 -38.819 61.785 -37.999 L58.219 -34.334 Z M53.227 -29.343  45.398 -21.612 Q44.435 -20.641 43.153 -20.641 Q41.87 -20.641 40.899 -21.612 L32.895 -29.616 Q32.114 -30.397 32.144 -31.392 Q32.174 -32.385 32.994 -33.204 Q33.814 -34.024 34.788 -34.024 Q35.762 -34.024 36.582 -33.204 L43.198 -26.49 L49.639 -32.931 L53.227 -29.343 Z M83.24 -55.319 V-14.655 Q83.24 -13.373 82.434 -12.732 Q81.627 -12.092 80.675 -12.092 Q79.724 -12.092 78.917 -12.735 Q78.111 -13.379 78.111 -14.617 V-49.432 H45.777 Q44.526 -49.432 43.368 -49.888 Q42.212 -50.342 41.24 -51.314 L36.271 -56.291 Q35.55 -57.102 35.372 -58.043 Q35.194 -58.983 35.513 -59.757 Q35.831 -60.531 36.662 -61.096 Q37.492 -61.661 38.525 -61.661 H76.897 Q79.522 -61.661 81.381 -59.803 Q83.24 -57.944 83.24 -55.319 Z"/></g><g id="Thin-S" transform="matrix(1 0 0 1 814.015 696)"><path d="M80.577 2.529  67.353 -10.771 H18.997 Q16.675 -10.771 15.043 -12.403 Q13.413 -14.035 13.413 -16.359 V-54.133 Q13.413 -56.457 15.131 -58.074 Q16.848 -59.689 19.293 -59.689 H21.895 V-56.328 L11.478 -66.745 Q11.001 -67.222 10.974 -67.768 Q10.947 -68.315 11.502 -68.869 Q12.055 -69.422 12.563 -69.422 Q13.072 -69.422 13.661 -68.835 L82.765 0.196 Q83.277 0.707 83.315 1.31 Q83.353 1.911 82.8 2.43 Q82.245 2.983 81.688 3.033 Q81.131 3.082 80.577 2.529 Z M18.997 -13.927 H64.197 L28.692 -49.432 H16.569 V-16.355 Q16.569 -15.293 17.251 -14.609 Q17.935 -13.927 18.997 -13.927 Z M57.461 -35.018  55.314 -37.165  58.993 -40.844 Q59.471 -41.322 60.028 -41.36 Q60.586 -41.398 61.14 -40.844 Q61.694 -40.29 61.694 -39.82 Q61.694 -39.35 61.14 -38.795 L57.461 -35.018 Z M52.506 -30.064  45.133 -22.788 Q44.284 -21.93 43.153 -21.93 Q42.022 -21.93 41.164 -22.788 L33.54 -30.412 Q33.062 -30.89 33.074 -31.448 Q33.085 -32.006 33.639 -32.559 Q34.192 -33.114 34.712 -33.114 Q35.232 -33.114 35.786 -32.559 L43.198 -25.049 L50.36 -32.21 L52.506 -30.064 Z M81.267 -54.105 V-14.2 Q81.267 -13.411 80.764 -13.017 Q80.262 -12.622 79.689 -12.622 Q79.116 -12.622 78.614 -13 Q78.111 -13.379 78.111 -14.124 V-49.432 H45.398 Q44.298 -49.432 43.255 -49.849 Q42.212 -50.266 41.354 -51.123 L37.523 -54.964 Q36.878 -55.699 36.719 -56.545 Q36.559 -57.39 36.802 -58.05 Q37.046 -58.711 37.819 -59.2 Q38.593 -59.689 39.473 -59.689 H75.683 Q78.005 -59.689 79.637 -58.059 Q81.267 -56.427 81.267 -54.105 Z"/></g><g id="Ultralight-S" transform="matrix(1 0 0 1 517.792 696)"><path d="M81.76 2.05  67.854 -11.954 H19.725 Q17.585 -11.954 16.091 -13.45 Q14.597 -14.945 14.597 -17.087 V-53.405 Q14.597 -55.547 16.177 -57.026 Q17.758 -58.505 20.021 -58.505 H23.078 V-56.829 L12.525 -67.382 Q12.229 -67.678 12.18 -67.973 Q12.131 -68.269 12.525 -68.664 Q12.92 -69.058 13.166 -69.058 Q13.413 -69.058 13.842 -68.63 L83.106 0.537 Q83.437 0.867 83.486 1.23 Q83.535 1.593 83.141 1.952 Q82.746 2.346 82.451 2.395 Q82.155 2.445 81.76 2.05 Z M19.725 -13.927 H65.882 L30.377 -49.432 H16.569 V-17.083 Q16.569 -15.702 17.457 -14.815 Q18.344 -13.927 19.725 -13.927 Z M57.005 -35.427  55.723 -36.709  59.471 -40.457 Q59.767 -40.753 60.063 -40.802 Q60.358 -40.852 60.753 -40.457 Q61.148 -40.063 61.148 -39.865 Q61.148 -39.668 60.753 -39.274 L57.005 -35.427 Z M52.074 -30.496  44.973 -23.494 Q44.193 -22.705 43.153 -22.705 Q42.113 -22.705 41.324 -23.494 L33.927 -30.89 Q33.631 -31.186 33.631 -31.482 Q33.631 -31.778 34.026 -32.173 Q34.42 -32.567 34.667 -32.567 Q34.913 -32.567 35.308 -32.173 L43.198 -24.184 L50.792 -31.778 L52.074 -30.496 Z M80.084 -53.377 V-13.927 Q80.084 -13.434 79.763 -13.187 Q79.442 -12.941 79.097 -12.941 Q78.752 -12.941 78.432 -13.16 Q78.111 -13.379 78.111 -13.828 V-49.432 H45.17 Q44.162 -49.432 43.187 -49.826 Q42.212 -50.221 41.422 -51.01 L38.274 -54.167 Q37.675 -54.856 37.527 -55.645 Q37.379 -56.434 37.576 -57.026 Q37.773 -57.618 38.513 -58.062 Q39.253 -58.505 40.042 -58.505 H74.955 Q77.095 -58.505 78.589 -57.011 Q80.084 -55.517 80.084 -53.377 Z"/></g></g></svg>