<svg xmlns="http://www.w3.org/2000/svg" height="40" width="40"><path d="M11.542 8.708 9.375 6.583Q11.333 5.083 13.625 4.229Q15.917 3.375 18.458 3.042V5.833Q16.5 6.125 14.771 6.854Q13.042 7.583 11.542 8.708ZM3.375 18.042Q3.542 15.542 4.458 13.271Q5.375 11 6.958 9.125L9.042 11.125Q7.875 12.667 7.167 14.396Q6.458 16.125 6.208 18.042ZM6.958 30.333Q5.375 28.458 4.458 26.167Q3.542 23.875 3.375 21.375H6.208Q6.458 23.292 7.146 25.062Q7.833 26.833 9.042 28.292ZM21.792 36.375V33.625Q27 32.833 30.438 28.917Q33.875 25 33.875 19.708Q33.875 14.458 30.438 10.521Q27 6.583 21.792 5.833V3.042Q28.208 3.708 32.438 8.479Q36.667 13.25 36.667 19.708Q36.667 26.167 32.438 30.938Q28.208 35.708 21.792 36.375ZM18.333 36.375Q15.875 36.083 13.604 35.208Q11.333 34.333 9.375 32.875L11.458 30.708Q13 31.792 14.729 32.542Q16.458 33.292 18.333 33.625ZM16.042 26.958V12.458L27.375 19.708Z"/></svg>