<svg xmlns="http://www.w3.org/2000/svg" version="1.1" width="3300" height="2000"><g id="Notes"><style>
    text {
      font-family: monospace;
      text-anchor: middle;
    }
    text.emphasis {
      font-weight:bold;
    }
    text.lanchor {
      text-anchor: start;
    }
  </style><rect height="2200" id="artboard" fill="white" width="3300" x="0" y="0"/><line id="" style="fill:none;stroke:black;stroke-width:0.5;" x1="263" x2="3036" y1="292" y2="292"/><text class="lanchor emphasis" transform="matrix(1 0 0 1 263 322)">Weight/Scale Variations</text><text transform="matrix(1 0 0 1 559.711 322)">Ultralight</text><text transform="matrix(1 0 0 1 856.422 322)">Thin</text><text transform="matrix(1 0 0 1 1153.13 322)">Light</text><text transform="matrix(1 0 0 1 1449.84 322)">Regular</text><text transform="matrix(1 0 0 1 1746.56 322)">Medium</text><text transform="matrix(1 0 0 1 2043.27 322)">Semibold</text><text transform="matrix(1 0 0 1 2339.98 322)">Bold</text><text transform="matrix(1 0 0 1 2636.69 322)">Heavy</text><text transform="matrix(1 0 0 1 2933.4 322)">Black</text><text id="template-version" style="text-anchor: end;" transform="matrix(1 0 0 1 3036 1933)">Template v.1.0</text><text class="lanchor" transform="matrix(1 0 0 1 263 726)">Small</text><text class="lanchor" transform="matrix(1 0 0 1 263 1156)">Medium</text><text class="lanchor" transform="matrix(1 0 0 1 263 1586)">Large</text></g><g id="Guides"><g id="H-reference" style="fill:#27AAE1;stroke:none;" transform="matrix(1 0 0 1 339 696)"><path d="M 54.9316 0 L 57.666 0 L 30.5664 -70.459 L 28.0762 -70.459 L 0.976562 0 L 3.66211 0 L 12.9395 -24.4629 L 45.7031 -24.4629 Z M 29.1992 -67.0898 L 29.4434 -67.0898 L 44.8242 -26.709 L 13.8184 -26.709 Z"/></g><line id="Baseline-S" style="fill:none;stroke:#27AAE1;opacity:1;stroke-width:0.577;" x1="263" x2="3036" y1="696" y2="696"/><line id="Capline-S" style="fill:none;stroke:#27AAE1;opacity:1;stroke-width:0.577;" x1="263" x2="3036" y1="625.541" y2="625.541"/><g id="H-reference" style="fill:#27AAE1;stroke:none;" transform="matrix(1 0 0 1 339 1126)"><path d="M 54.9316 0 L 57.666 0 L 30.5664 -70.459 L 28.0762 -70.459 L 0.976562 0 L 3.66211 0 L 12.9395 -24.4629 L 45.7031 -24.4629 Z M 29.1992 -67.0898 L 29.4434 -67.0898 L 44.8242 -26.709 L 13.8184 -26.709 Z"/></g><line id="Baseline-M" style="fill:none;stroke:#27AAE1;opacity:1;stroke-width:0.577;" x1="263" x2="3036" y1="1126" y2="1126"/><line id="Capline-M" style="fill:none;stroke:#27AAE1;opacity:1;stroke-width:0.577;" x1="263" x2="3036" y1="1055.54" y2="1055.54"/><g id="H-reference" style="fill:#27AAE1;stroke:none;" transform="matrix(1 0 0 1 339 1556)"><path d="M 54.9316 0 L 57.666 0 L 30.5664 -70.459 L 28.0762 -70.459 L 0.976562 0 L 3.66211 0 L 12.9395 -24.4629 L 45.7031 -24.4629 Z M 29.1992 -67.0898 L 29.4434 -67.0898 L 44.8242 -26.709 L 13.8184 -26.709 Z"/></g><line id="Baseline-L" style="fill:none;stroke:#27AAE1;opacity:1;stroke-width:0.577;" x1="263" x2="3036" y1="1556" y2="1556"/><line id="Capline-L" style="fill:none;stroke:#27AAE1;opacity:1;stroke-width:0.577;" x1="263" x2="3036" y1="1485.54" y2="1485.54"/><rect height="119.336" id="left-margin" style="fill:darkred;stroke:none;opacity:0.4;" width="12.4512" x="1394.06" y="1030.79"/><rect height="119.336" id="right-margin" style="fill:darkgreen;stroke:none;opacity:0.4;" width="12.4512" x="1502.5112" y="1030.79"/><rect x="1406.5112" y="1045" width="96" height="96" fill="none" stroke="blue" stroke-dasharray="5"/><rect x="1394.06" y="1030.79" width="120.9024" height="119.336" fill="none" stroke="blue"/></g><g id="Symbols"><g id="Bold-L" transform="matrix(1 0 0 1 2266 1556)"><path d="M109.48875000000001 -22.33 H115.93875000000001 V-32.48874999999998 H124.32374999999999 V-37.81 H115.93875000000001 V-48.129999999999995 H109.48875000000001 V-37.81 H99.16875 V-32.48874999999998 H109.48875000000001 V-22.33 Z M76.59375 -15.879999999999995 H84.65625 V-30.3925 L98.20125 -15.879999999999995 H108.52125 L90.78375 -35.22999999999999 L108.52125 -54.57999999999999 H98.20125 L84.65625 -40.067499999999995 V-54.57999999999999 H76.59375 V-15.879999999999995 Z M56.4375 -15.879999999999995 H64.66125000000001 V-26.038749999999993 H70.6275 V-34.10124999999999 H64.66125000000001 V-54.57999999999999 H56.4375 V-34.10124999999999 H46.60125 V-54.57999999999999 H38.53875 V-26.038749999999993 H56.4375 V-15.879999999999995 Z M30.47625 26.367500000000007 Q24.509999999999998 26.367500000000007 20.15625 22.013750000000016 Q15.802500000000002 17.659999999999997 15.802500000000002 11.693749999999994 V-82.15375 Q15.802500000000002 -88.28125 20.15625 -92.63499999999999 Q24.509999999999998 -96.98875 30.47625 -96.98875 H124.32374999999999 Q130.45125000000002 -96.98875 134.805 -92.63499999999999 Q139.15875 -88.28125 139.15875 -82.15375 V11.693749999999994 Q139.15875 17.659999999999997 134.805 22.013750000000016 Q130.45125000000002 26.367500000000007 124.32374999999999 26.367500000000007 H30.47625 Z M30.47625 11.693749999999994 H124.32374999999999 Q124.32374999999999 11.693749999999994 124.32374999999999 11.693749999999994 Q124.32374999999999 11.693749999999994 124.32374999999999 11.693749999999994 V-82.15375 Q124.32374999999999 -82.15375 124.32374999999999 -82.15375 Q124.32374999999999 -82.15375 124.32374999999999 -82.15375 H30.47625 Q30.47625 -82.15375 30.47625 -82.15375 Q30.47625 -82.15375 30.47625 -82.15375 V11.693749999999994 Q30.47625 11.693749999999994 30.47625 11.693749999999994 Q30.47625 11.693749999999994 30.47625 11.693749999999994 Z M30.47625 -82.15375 Q30.47625 -82.15375 30.47625 -82.15375 Q30.47625 -82.15375 30.47625 -82.15375 V11.693749999999994 Q30.47625 11.693749999999994 30.47625 11.693749999999994 Q30.47625 11.693749999999994 30.47625 11.693749999999994 Q30.47625 11.693749999999994 30.47625 11.693749999999994 Q30.47625 11.693749999999994 30.47625 11.693749999999994 V-82.15375 Q30.47625 -82.15375 30.47625 -82.15375 Q30.47625 -82.15375 30.47625 -82.15375 Z"/></g><g id="Semibold-L" transform="matrix(1 0 0 1 1970.27 1556)"><path d="M109.48875000000001 -22.33 H115.93875000000001 V-32.48874999999998 H124.96875 V-37.81 H115.93875000000001 V-48.129999999999995 H109.48875000000001 V-37.81 H99.6525 V-32.48874999999998 H109.48875000000001 V-22.33 Z M76.27125 -15.879999999999995 H84.33375 V-30.3925 L97.87875000000001 -15.879999999999995 H108.52125 L90.46125 -35.22999999999999 L108.52125 -54.57999999999999 H97.87875000000001 L84.33375 -40.067499999999995 V-54.57999999999999 H76.27125 V-15.879999999999995 Z M55.95375000000001 -15.879999999999995 H64.1775 V-26.038749999999993 H70.305 V-34.10124999999999 H64.1775 V-54.57999999999999 H55.95375000000001 V-34.10124999999999 H46.11750000000001 V-54.57999999999999 H38.05500000000001 V-25.877499999999998 H55.95375000000001 V-15.879999999999995 Z M29.83125 25.722499999999997 Q24.509999999999998 25.722499999999997 20.478749999999998 21.691249999999997 Q16.447499999999998 17.659999999999997 16.447499999999998 12.338750000000005 V-82.79875 Q16.447499999999998 -88.28125 20.478749999999998 -92.3125 Q24.509999999999998 -96.34375 29.83125 -96.34375 H124.96875 Q130.45125000000002 -96.34375 134.48250000000002 -92.3125 Q138.51375000000002 -88.28125 138.51375000000002 -82.79875 V12.338750000000005 Q138.51375000000002 17.659999999999997 134.48250000000002 21.691249999999997 Q130.45125000000002 25.722499999999997 124.96875 25.722499999999997 H29.83125 Z M29.83125 12.338750000000005 H124.96875 Q124.96875 12.338750000000005 124.96875 12.338750000000005 Q124.96875 12.338750000000005 124.96875 12.338750000000005 V-82.79875 Q124.96875 -82.79875 124.96875 -82.79875 Q124.96875 -82.79875 124.96875 -82.79875 H29.83125 Q29.83125 -82.79875 29.83125 -82.79875 Q29.83125 -82.79875 29.83125 -82.79875 V12.338750000000005 Q29.83125 12.338750000000005 29.83125 12.338750000000005 Q29.83125 12.338750000000005 29.83125 12.338750000000005 Z M29.83125 -82.79875 Q29.83125 -82.79875 29.83125 -82.79875 Q29.83125 -82.79875 29.83125 -82.79875 V12.338750000000005 Q29.83125 12.338750000000005 29.83125 12.338750000000005 Q29.83125 12.338750000000005 29.83125 12.338750000000005 Q29.83125 12.338750000000005 29.83125 12.338750000000005 Q29.83125 12.338750000000005 29.83125 12.338750000000005 V-82.79875 Q29.83125 -82.79875 29.83125 -82.79875 Q29.83125 -82.79875 29.83125 -82.79875 Z"/></g><g id="Medium-L" transform="matrix(1 0 0 1 1674.31 1556)"><path d="M109.65 -22.33 H116.10000000000001 V-32.48874999999998 H125.4525 V-37.81 H116.10000000000001 V-48.129999999999995 H109.65 V-37.81 H99.97500000000001 V-32.48874999999998 H109.65 V-22.33 Z M76.11000000000001 -15.718749999999986 H84.17250000000001 V-30.3925 L97.87875000000001 -15.718749999999986 H108.36000000000001 L90.3 -35.22999999999999 L108.36000000000001 -54.741249999999994 H97.87875000000001 L84.17250000000001 -40.067499999999995 V-54.741249999999994 H76.11000000000001 V-15.718749999999986 Z M55.63125 -15.718749999999986 H63.855000000000004 V-25.877499999999998 H70.14375 V-34.10124999999999 H63.855000000000004 V-54.741249999999994 H55.63125 V-34.10124999999999 H45.63375 V-54.741249999999994 H37.57125 V-25.877499999999998 H55.63125 V-15.718749999999986 Z M29.3475 25.23875000000001 Q24.34875 25.23875000000001 20.64 21.53 Q16.931250000000002 17.82125000000002 16.931250000000002 12.822500000000005 V-83.2825 Q16.931250000000002 -88.28125 20.64 -91.99 Q24.34875 -95.69874999999999 29.3475 -95.69874999999999 H125.4525 Q130.45125000000002 -95.69874999999999 134.16 -91.99 Q137.86875 -88.28125 137.86875 -83.2825 V12.822500000000005 Q137.86875 17.82125000000002 134.16 21.53 Q130.45125000000002 25.23875000000001 125.4525 25.23875000000001 H29.3475 Z M29.3475 12.822500000000005 H125.4525 Q125.4525 12.822500000000005 125.4525 12.822500000000005 Q125.4525 12.822500000000005 125.4525 12.822500000000005 V-83.2825 Q125.4525 -83.2825 125.4525 -83.2825 Q125.4525 -83.2825 125.4525 -83.2825 H29.3475 Q29.3475 -83.2825 29.3475 -83.2825 Q29.3475 -83.2825 29.3475 -83.2825 V12.822500000000005 Q29.3475 12.822500000000005 29.3475 12.822500000000005 Q29.3475 12.822500000000005 29.3475 12.822500000000005 Z M29.3475 -83.2825 Q29.3475 -83.2825 29.3475 -83.2825 Q29.3475 -83.2825 29.3475 -83.2825 V12.822500000000005 Q29.3475 12.822500000000005 29.3475 12.822500000000005 Q29.3475 12.822500000000005 29.3475 12.822500000000005 Q29.3475 12.822500000000005 29.3475 12.822500000000005 Q29.3475 12.822500000000005 29.3475 12.822500000000005 V-83.2825 Q29.3475 -83.2825 29.3475 -83.2825 Q29.3475 -83.2825 29.3475 -83.2825 Z"/></g><g id="Regular-L" transform="matrix(1 0 0 1 1378.56 1556)"><path d="M109.65 -22.33 H116.10000000000001 V-32.48874999999998 H125.775 V-37.81 H116.10000000000001 V-48.129999999999995 H109.65 V-37.81 H100.13625 V-32.48874999999998 H109.65 V-22.33 Z M75.94875 -15.718749999999986 H84.01125 V-30.3925 L97.7175 -15.718749999999986 H108.36000000000001 L90.13875 -35.22999999999999 L108.36000000000001 -54.741249999999994 H97.7175 L84.01125 -40.067499999999995 V-54.741249999999994 H75.94875 V-15.718749999999986 Z M55.47 -15.718749999999986 H63.69375 V-25.877499999999998 H69.9825 V-34.10124999999999 H63.69375 V-54.741249999999994 H55.47 V-34.10124999999999 H45.31125 V-54.741249999999994 H37.24875 V-25.877499999999998 H55.47 V-15.718749999999986 Z M29.025000000000002 24.91624999999999 Q24.34875 24.91624999999999 20.80125 21.368750000000006 Q17.25375 17.82125000000002 17.25375 13.14500000000001 V-83.60499999999999 Q17.25375 -88.28125 20.80125 -91.82875 Q24.34875 -95.37625 29.025000000000002 -95.37625 H125.775 Q130.45125000000002 -95.37625 133.99875 -91.82875 Q137.54625 -88.28125 137.54625 -83.60499999999999 V13.14500000000001 Q137.54625 17.82125000000002 133.99875 21.368750000000006 Q130.45125000000002 24.91624999999999 125.775 24.91624999999999 H29.025000000000002 Z M29.025000000000002 13.14500000000001 H125.775 Q125.775 13.14500000000001 125.775 13.14500000000001 Q125.775 13.14500000000001 125.775 13.14500000000001 V-83.60499999999999 Q125.775 -83.60499999999999 125.775 -83.60499999999999 Q125.775 -83.60499999999999 125.775 -83.60499999999999 H29.025000000000002 Q29.025000000000002 -83.60499999999999 29.025000000000002 -83.60499999999999 Q29.025000000000002 -83.60499999999999 29.025000000000002 -83.60499999999999 V13.14500000000001 Q29.025000000000002 13.14500000000001 29.025000000000002 13.14500000000001 Q29.025000000000002 13.14500000000001 29.025000000000002 13.14500000000001 Z M29.025000000000002 -83.60499999999999 Q29.025000000000002 -83.60499999999999 29.025000000000002 -83.60499999999999 Q29.025000000000002 -83.60499999999999 29.025000000000002 -83.60499999999999 V13.14500000000001 Q29.025000000000002 13.14500000000001 29.025000000000002 13.14500000000001 Q29.025000000000002 13.14500000000001 29.025000000000002 13.14500000000001 Q29.025000000000002 13.14500000000001 29.025000000000002 13.14500000000001 Q29.025000000000002 13.14500000000001 29.025000000000002 13.14500000000001 V-83.60499999999999 Q29.025000000000002 -83.60499999999999 29.025000000000002 -83.60499999999999 Q29.025000000000002 -83.60499999999999 29.025000000000002 -83.60499999999999 Z"/></g><g id="Light-L" transform="matrix(1 0 0 1 1082.77 1556)"><path d="M109.65 -22.652500000000003 H115.455 V-32.81124999999999 H124.96875 V-37.64874999999999 H115.455 V-47.80749999999999 H109.65 V-37.64874999999999 H100.29750000000001 V-32.81124999999999 H109.65 V-22.652500000000003 Z M75.94875 -16.686249999999987 H82.39875 V-31.68249999999999 L97.23375 -16.686249999999987 H106.26375000000002 L87.88125000000001 -35.39125 L106.26375000000002 -53.77374999999999 H97.395 L82.39875 -38.7775 V-53.77374999999999 H75.94875 V-16.686249999999987 Z M56.27625 -16.686249999999987 H63.048750000000005 V-26.683750000000003 H69.9825 V-33.45625 H63.048750000000005 V-53.77374999999999 H56.27625 V-33.45625 H44.988749999999996 V-53.77374999999999 H38.53875 V-26.683750000000003 H56.27625 V-16.686249999999987 Z M31.927500000000002 21.691249999999997 Q27.25125 21.691249999999997 23.865000000000002 18.305000000000007 Q20.478749999999998 14.918750000000003 20.478749999999998 10.242500000000007 V-80.70249999999999 Q20.478749999999998 -85.37875 23.865000000000002 -88.76499999999999 Q27.25125 -92.15125 31.927500000000002 -92.15125 H122.8725 Q127.54875 -92.15125 130.935 -88.76499999999999 Q134.32125 -85.37875 134.32125 -80.70249999999999 V10.242500000000007 Q134.32125 14.918750000000003 130.935 18.305000000000007 Q127.54875 21.691249999999997 122.8725 21.691249999999997 H31.927500000000002 Z M31.927500000000002 12.338750000000005 H122.8725 Q123.67875000000001 12.338750000000005 124.32374999999999 11.693749999999994 Q124.96875 11.048750000000013 124.96875 10.242500000000007 V-80.70249999999999 Q124.96875 -81.50874999999999 124.32374999999999 -82.15375 Q123.67875000000001 -82.79875 122.8725 -82.79875 H31.927500000000002 Q31.121250000000003 -82.79875 30.47625 -82.15375 Q29.83125 -81.50874999999999 29.83125 -80.70249999999999 V10.242500000000007 Q29.83125 11.048750000000013 30.47625 11.693749999999994 Q31.121250000000003 12.338750000000005 31.927500000000002 12.338750000000005 Z M29.83125 -82.79875 Q29.83125 -82.79875 29.83125 -82.234375 Q29.83125 -81.66999999999999 29.83125 -80.70249999999999 V10.242500000000007 Q29.83125 11.210000000000008 29.83125 11.77437500000002 Q29.83125 12.338750000000005 29.83125 12.338750000000005 Q29.83125 12.338750000000005 29.83125 11.77437500000002 Q29.83125 11.210000000000008 29.83125 10.242500000000007 V-80.70249999999999 Q29.83125 -81.66999999999999 29.83125 -82.234375 Q29.83125 -82.79875 29.83125 -82.79875 Z"/></g><g id="Thin-L" transform="matrix(1 0 0 1 787.282 1556)"><path d="M109.81124999999999 -23.13624999999999 H114.81 V-32.9725 H124.00125000000001 V-37.4875 H114.81 V-47.32374999999999 H109.81124999999999 V-37.4875 H100.45875 V-32.9725 H109.81124999999999 V-23.13624999999999 Z M75.94875 -17.653749999999988 H80.9475 V-33.13374999999999 L96.91125000000001 -17.653749999999988 H104.32875000000001 L85.62375 -35.552499999999995 L104.32875000000001 -52.80624999999999 H97.0725 L80.9475 -37.64874999999999 V-52.80624999999999 H75.94875 V-17.653749999999988 Z M57.24375 -17.653749999999988 H62.40375000000001 V-27.65124999999999 H70.14375 V-32.81124999999999 H62.40375000000001 V-52.80624999999999 H57.24375 V-32.81124999999999 H44.8275 V-52.80624999999999 H39.82875 V-27.65124999999999 H57.24375 V-17.653749999999988 Z M34.66875 18.466250000000002 Q30.315 18.466250000000002 27.009375000000002 15.16062500000001 Q23.70375 11.855000000000018 23.70375 7.501250000000013 V-77.96124999999999 Q23.70375 -82.315 27.009375000000002 -85.62062499999999 Q30.315 -88.92625 34.66875 -88.92625 H120.13125000000001 Q124.48500000000001 -88.92625 127.790625 -85.62062499999999 Q131.09625 -82.315 131.09625 -77.96124999999999 V7.501250000000013 Q131.09625 11.855000000000018 127.790625 15.16062500000001 Q124.48500000000001 18.466250000000002 120.13125000000001 18.466250000000002 H34.66875 Z M34.66875 11.371250000000018 H120.13125000000001 Q121.58250000000001 11.371250000000018 122.79187500000002 10.161875000000023 Q124.00125000000001 8.952500000000015 124.00125000000001 7.501250000000013 V-77.96124999999999 Q124.00125000000001 -79.4125 122.79187500000002 -80.62187499999999 Q121.58250000000001 -81.83125 120.13125000000001 -81.83125 H34.66875 Q33.2175 -81.83125 32.008125 -80.62187499999999 Q30.798750000000002 -79.4125 30.798750000000002 -77.96124999999999 V7.501250000000013 Q30.798750000000002 8.952500000000015 32.008125 10.161875000000023 Q33.2175 11.371250000000018 34.66875 11.371250000000018 Z M30.798750000000002 -81.83125 Q30.798750000000002 -81.83125 30.798750000000002 -80.70249999999999 Q30.798750000000002 -79.57374999999999 30.798750000000002 -77.96124999999999 V7.501250000000013 Q30.798750000000002 9.11375000000001 30.798750000000002 10.242500000000007 Q30.798750000000002 11.371250000000018 30.798750000000002 11.371250000000018 Q30.798750000000002 11.371250000000018 30.798750000000002 10.242500000000007 Q30.798750000000002 9.11375000000001 30.798750000000002 7.501250000000013 V-77.96124999999999 Q30.798750000000002 -79.57374999999999 30.798750000000002 -80.70249999999999 Q30.798750000000002 -81.83125 30.798750000000002 -81.83125 Z"/></g><g id="Ultralight-L" transform="matrix(1 0 0 1 491.205 1556)"><path d="M109.81124999999999 -23.2975 H114.32625000000002 V-33.13374999999999 H123.5175 V-37.32624999999999 H114.32625000000002 V-47.162499999999994 H109.81124999999999 V-37.32624999999999 H100.62 V-33.13374999999999 H109.81124999999999 V-23.2975 Z M75.94875 -18.29875 H79.98 V-33.94 L96.58875 -18.29875 H103.03875000000001 L84.17250000000001 -35.552499999999995 L103.03875000000001 -52.161249999999995 H96.91125000000001 L79.98 -36.84249999999999 V-52.161249999999995 H75.94875 V-18.29875 Z M57.7275 -18.29875 H61.92 V-28.13499999999999 H70.14375 V-32.3275 H61.92 V-52.161249999999995 H57.7275 V-32.3275 H44.66625 V-52.161249999999995 H40.635 V-28.13499999999999 H57.7275 V-18.29875 Z M36.4425 16.53125 Q32.08875 16.53125 28.86375 13.306250000000006 Q25.63875 10.081249999999997 25.63875 5.7275000000000205 V-76.1875 Q25.63875 -80.70249999999999 28.86375 -83.846875 Q32.08875 -86.99125 36.4425 -86.99125 H118.35750000000002 Q122.8725 -86.99125 126.01687500000001 -83.846875 Q129.16125 -80.70249999999999 129.16125 -76.1875 V5.7275000000000205 Q129.16125 10.081249999999997 126.01687500000001 13.306250000000006 Q122.8725 16.53125 118.35750000000002 16.53125 H36.4425 Z M36.4425 10.887500000000003 H118.35750000000002 Q120.29249999999999 10.887500000000003 121.905 9.275000000000006 Q123.5175 7.662499999999994 123.5175 5.7275000000000205 V-76.1875 Q123.5175 -78.1225 121.905 -79.735 Q120.29249999999999 -81.3475 118.35750000000002 -81.3475 H36.4425 Q34.5075 -81.3475 32.894999999999996 -79.735 Q31.2825 -78.1225 31.2825 -76.1875 V5.7275000000000205 Q31.2825 7.662499999999994 32.894999999999996 9.275000000000006 Q34.5075 10.887500000000003 36.4425 10.887500000000003 Z M31.2825 -81.3475 Q31.2825 -81.3475 31.2825 -79.89625 Q31.2825 -78.445 31.2825 -76.1875 V5.7275000000000205 Q31.2825 7.984999999999999 31.2825 9.436250000000015 Q31.2825 10.887500000000003 31.2825 10.887500000000003 Q31.2825 10.887500000000003 31.2825 9.436250000000015 Q31.2825 7.984999999999999 31.2825 5.7275000000000205 V-76.1875 Q31.2825 -78.445 31.2825 -79.89625 Q31.2825 -81.3475 31.2825 -81.3475 Z"/></g><g id="Bold-M" transform="matrix(1 0 0 1 2281.8 1126)"><path d="M83.5 -25.22999999999999 H88.5 V-32.72999999999999 H93.5 V-37.72999999999999 H88.5 V-45.22999999999999 H83.5 V-37.72999999999999 H76.375 V-32.72999999999999 H83.5 V-25.22999999999999 Z M58.375 -20.10499999999999 H65.875 V-31.47999999999999 L74.75 -20.10499999999999 H83.5 L72.125 -35.22999999999999 L83.5 -50.35499999999999 H74.75 L65.875 -38.97999999999999 V-50.35499999999999 H58.375 V-20.10499999999999 Z M43.75 -20.10499999999999 H51.375 V-27.60499999999999 H55.875 V-35.22999999999999 H51.375 V-50.35499999999999 H43.75 V-35.22999999999999 H36.625 V-50.35499999999999 H29.125 V-27.60499999999999 H43.75 V-20.10499999999999 Z M26.5 15.27000000000001 Q19.375 15.27000000000001 14.44 10.335000000000008 Q9.5 5.39500000000001 9.5 -1.7299999999999898 V-68.72999999999999 Q9.5 -75.85499999999999 14.44 -80.79499999999999 Q19.375 -85.72999999999999 26.5 -85.72999999999999 H93.5 Q100.625 -85.72999999999999 105.565 -80.79499999999999 Q110.5 -75.85499999999999 110.5 -68.72999999999999 V-1.7299999999999898 Q110.5 5.39500000000001 105.565 10.335000000000008 Q100.625 15.27000000000001 93.5 15.27000000000001 H26.5 Z M26.5 -1.7299999999999898 H93.5 Q93.5 -1.7299999999999898 93.5 -1.7299999999999898 Q93.5 -1.7299999999999898 93.5 -1.7299999999999898 V-68.72999999999999 Q93.5 -68.72999999999999 93.5 -68.72999999999999 Q93.5 -68.72999999999999 93.5 -68.72999999999999 H26.5 Q26.5 -68.72999999999999 26.5 -68.72999999999999 Q26.5 -68.72999999999999 26.5 -68.72999999999999 V-1.7299999999999898 Q26.5 -1.7299999999999898 26.5 -1.7299999999999898 Q26.5 -1.7299999999999898 26.5 -1.7299999999999898 Z M26.5 -68.72999999999999 Q26.5 -68.72999999999999 26.5 -68.72999999999999 Q26.5 -68.72999999999999 26.5 -68.72999999999999 V-1.7299999999999898 Q26.5 -1.7299999999999898 26.5 -1.7299999999999898 Q26.5 -1.7299999999999898 26.5 -1.7299999999999898 Q26.5 -1.7299999999999898 26.5 -1.7299999999999898 Q26.5 -1.7299999999999898 26.5 -1.7299999999999898 V-68.72999999999999 Q26.5 -68.72999999999999 26.5 -68.72999999999999 Q26.5 -68.72999999999999 26.5 -68.72999999999999 Z"/></g><g id="Semibold-M" transform="matrix(1 0 0 1 1985.97 1126)"><path d="M83.5 -25.22999999999999 H88.5 V-32.72999999999999 H94.125 V-37.72999999999999 H88.5 V-45.22999999999999 H83.5 V-37.72999999999999 H76.625 V-32.72999999999999 H83.5 V-25.22999999999999 Z M58.125 -20.10499999999999 H65.625 V-31.47999999999999 L74.5 -20.10499999999999 H83.375 L71.875 -35.22999999999999 L83.375 -50.35499999999999 H74.5 L65.625 -38.97999999999999 V-50.35499999999999 H58.125 V-20.10499999999999 Z M43.375 -20.10499999999999 H51.0 V-27.60499999999999 H55.625 V-35.22999999999999 H51.0 V-50.35499999999999 H43.375 V-35.22999999999999 H36.0 V-50.35499999999999 H28.5 V-27.47999999999999 H43.375 V-20.10499999999999 Z M25.875 14.27000000000001 Q19.375 14.27000000000001 14.935 9.830000000000013 Q10.5 5.39500000000001 10.5 -1.1049999999999898 V-69.35499999999999 Q10.5 -75.85499999999999 14.935 -80.29499999999999 Q19.375 -84.72999999999999 25.875 -84.72999999999999 H94.125 Q100.625 -84.72999999999999 105.06500000000001 -80.29499999999999 Q109.5 -75.85499999999999 109.5 -69.35499999999999 V-1.1049999999999898 Q109.5 5.39500000000001 105.06500000000001 9.830000000000013 Q100.625 14.27000000000001 94.125 14.27000000000001 H25.875 Z M25.875 -1.1049999999999898 H94.125 Q94.125 -1.1049999999999898 94.125 -1.1049999999999898 Q94.125 -1.1049999999999898 94.125 -1.1049999999999898 V-69.35499999999999 Q94.125 -69.35499999999999 94.125 -69.35499999999999 Q94.125 -69.35499999999999 94.125 -69.35499999999999 H25.875 Q25.875 -69.35499999999999 25.875 -69.35499999999999 Q25.875 -69.35499999999999 25.875 -69.35499999999999 V-1.1049999999999898 Q25.875 -1.1049999999999898 25.875 -1.1049999999999898 Q25.875 -1.1049999999999898 25.875 -1.1049999999999898 Z M25.875 -69.35499999999999 Q25.875 -69.35499999999999 25.875 -69.35499999999999 Q25.875 -69.35499999999999 25.875 -69.35499999999999 V-1.1049999999999898 Q25.875 -1.1049999999999898 25.875 -1.1049999999999898 Q25.875 -1.1049999999999898 25.875 -1.1049999999999898 Q25.875 -1.1049999999999898 25.875 -1.1049999999999898 Q25.875 -1.1049999999999898 25.875 -1.1049999999999898 V-69.35499999999999 Q25.875 -69.35499999999999 25.875 -69.35499999999999 Q25.875 -69.35499999999999 25.875 -69.35499999999999 Z"/></g><g id="Medium-M" transform="matrix(1 0 0 1 1689.91 1126)"><path d="M83.5 -25.22999999999999 H88.5 V-32.72999999999999 H94.625 V-37.72999999999999 H88.5 V-45.22999999999999 H83.5 V-37.72999999999999 H76.875 V-32.72999999999999 H83.5 V-25.22999999999999 Z M57.875 -19.97999999999999 H65.375 V-31.47999999999999 L74.375 -19.97999999999999 H83.25 L71.625 -35.22999999999999 L83.25 -50.47999999999999 H74.375 L65.375 -38.97999999999999 V-50.47999999999999 H57.875 V-19.97999999999999 Z M43.0 -19.97999999999999 H50.75 V-27.47999999999999 H55.375 V-35.22999999999999 H50.75 V-50.47999999999999 H43.0 V-35.22999999999999 H35.625 V-50.47999999999999 H28.125 V-27.47999999999999 H43.0 V-19.97999999999999 Z M25.375 13.52000000000001 Q19.5 13.52000000000001 15.375 9.39500000000001 Q11.25 5.27000000000001 11.25 -0.6049999999999898 V-69.85499999999999 Q11.25 -75.72999999999999 15.375 -79.85499999999999 Q19.5 -83.97999999999999 25.375 -83.97999999999999 H94.625 Q100.5 -83.97999999999999 104.625 -79.85499999999999 Q108.75 -75.72999999999999 108.75 -69.85499999999999 V-0.6049999999999898 Q108.75 5.27000000000001 104.625 9.39500000000001 Q100.5 13.52000000000001 94.625 13.52000000000001 H25.375 Z M25.375 -0.6049999999999898 H94.625 Q94.625 -0.6049999999999898 94.625 -0.6049999999999898 Q94.625 -0.6049999999999898 94.625 -0.6049999999999898 V-69.85499999999999 Q94.625 -69.85499999999999 94.625 -69.85499999999999 Q94.625 -69.85499999999999 94.625 -69.85499999999999 H25.375 Q25.375 -69.85499999999999 25.375 -69.85499999999999 Q25.375 -69.85499999999999 25.375 -69.85499999999999 V-0.6049999999999898 Q25.375 -0.6049999999999898 25.375 -0.6049999999999898 Q25.375 -0.6049999999999898 25.375 -0.6049999999999898 Z M25.375 -69.85499999999999 Q25.375 -69.85499999999999 25.375 -69.85499999999999 Q25.375 -69.85499999999999 25.375 -69.85499999999999 V-0.6049999999999898 Q25.375 -0.6049999999999898 25.375 -0.6049999999999898 Q25.375 -0.6049999999999898 25.375 -0.6049999999999898 Q25.375 -0.6049999999999898 25.375 -0.6049999999999898 Q25.375 -0.6049999999999898 25.375 -0.6049999999999898 V-69.85499999999999 Q25.375 -69.85499999999999 25.375 -69.85499999999999 Q25.375 -69.85499999999999 25.375 -69.85499999999999 Z"/></g><g id="Regular-M" transform="matrix(1 0 0 1 1394.06 1126)"><path d="M83.5 -25.22999999999999 H88.5 V-32.72999999999999 H95.0 V-37.72999999999999 H88.5 V-45.22999999999999 H83.5 V-37.72999999999999 H77.0 V-32.72999999999999 H83.5 V-25.22999999999999 Z M57.75 -19.97999999999999 H65.25 V-31.47999999999999 L74.25 -19.97999999999999 H83.25 L71.5 -35.22999999999999 L83.25 -50.47999999999999 H74.25 L65.25 -38.97999999999999 V-50.47999999999999 H57.75 V-19.97999999999999 Z M42.75 -19.97999999999999 H50.5 V-27.47999999999999 H55.25 V-35.22999999999999 H50.5 V-50.47999999999999 H42.75 V-35.22999999999999 H35.25 V-50.47999999999999 H27.75 V-27.47999999999999 H42.75 V-19.97999999999999 Z M25.0 13.02000000000001 Q19.5 13.02000000000001 15.625 9.14500000000001 Q11.75 5.27000000000001 11.75 -0.22999999999998977 V-70.22999999999999 Q11.75 -75.72999999999999 15.625 -79.60499999999999 Q19.5 -83.47999999999999 25.0 -83.47999999999999 H95.0 Q100.5 -83.47999999999999 104.375 -79.60499999999999 Q108.25 -75.72999999999999 108.25 -70.22999999999999 V-0.22999999999998977 Q108.25 5.27000000000001 104.375 9.14500000000001 Q100.5 13.02000000000001 95.0 13.02000000000001 H25.0 Z M25.0 -0.22999999999998977 H95.0 Q95.0 -0.22999999999998977 95.0 -0.22999999999998977 Q95.0 -0.22999999999998977 95.0 -0.22999999999998977 V-70.22999999999999 Q95.0 -70.22999999999999 95.0 -70.22999999999999 Q95.0 -70.22999999999999 95.0 -70.22999999999999 H25.0 Q25.0 -70.22999999999999 25.0 -70.22999999999999 Q25.0 -70.22999999999999 25.0 -70.22999999999999 V-0.22999999999998977 Q25.0 -0.22999999999998977 25.0 -0.22999999999998977 Q25.0 -0.22999999999998977 25.0 -0.22999999999998977 Z M25.0 -70.22999999999999 Q25.0 -70.22999999999999 25.0 -70.22999999999999 Q25.0 -70.22999999999999 25.0 -70.22999999999999 V-0.22999999999998977 Q25.0 -0.22999999999998977 25.0 -0.22999999999998977 Q25.0 -0.22999999999998977 25.0 -0.22999999999998977 Q25.0 -0.22999999999998977 25.0 -0.22999999999998977 Q25.0 -0.22999999999998977 25.0 -0.22999999999998977 V-70.22999999999999 Q25.0 -70.22999999999999 25.0 -70.22999999999999 Q25.0 -70.22999999999999 25.0 -70.22999999999999 Z"/></g><g id="Light-M" transform="matrix(1 0 0 1 1098.18 1126)"><path d="M84.125 -25.47999999999999 H88.5 V-32.97999999999999 H95.0 V-37.47999999999999 H88.5 V-44.97999999999999 H84.125 V-37.47999999999999 H77.625 V-32.97999999999999 H84.125 V-25.47999999999999 Z M58.125 -20.72999999999999 H64.0 V-32.47999999999999 L74.375 -20.72999999999999 H81.875 L69.375 -35.35499999999999 L81.875 -49.72999999999999 H74.5 L64.0 -37.97999999999999 V-49.72999999999999 H58.125 V-20.72999999999999 Z M43.5 -20.72999999999999 H49.75 V-28.22999999999999 H55.0 V-34.47999999999999 H49.75 V-49.72999999999999 H43.5 V-34.47999999999999 H35.0 V-49.72999999999999 H29.125 V-28.22999999999999 H43.5 V-20.72999999999999 Z M26.5 10.52000000000001 Q21.375 10.52000000000001 17.81 6.960000000000008 Q14.25 3.3950000000000102 14.25 -1.7299999999999898 V-68.72999999999999 Q14.25 -73.85499999999999 17.81 -77.41999999999999 Q21.375 -80.97999999999999 26.5 -80.97999999999999 H93.5 Q98.625 -80.97999999999999 102.19 -77.41999999999999 Q105.75 -73.85499999999999 105.75 -68.72999999999999 V-1.7299999999999898 Q105.75 3.3950000000000102 102.19 6.960000000000008 Q98.625 10.52000000000001 93.5 10.52000000000001 H26.5 Z M26.5 -0.22999999999998977 H93.5 Q94.0 -0.22999999999998977 94.5 -0.7299999999999898 Q95.0 -1.2299999999999898 95.0 -1.7299999999999898 V-68.72999999999999 Q95.0 -69.22999999999999 94.5 -69.72999999999999 Q94.0 -70.22999999999999 93.5 -70.22999999999999 H26.5 Q26.0 -70.22999999999999 25.5 -69.72999999999999 Q25.0 -69.22999999999999 25.0 -68.72999999999999 V-1.7299999999999898 Q25.0 -1.2299999999999898 25.5 -0.7299999999999898 Q26.0 -0.22999999999998977 26.5 -0.22999999999998977 Z M25.0 -70.22999999999999 Q25.0 -70.22999999999999 25.0 -69.78999999999999 Q25.0 -69.35499999999999 25.0 -68.72999999999999 V-1.7299999999999898 Q25.0 -1.1049999999999898 25.0 -0.664999999999992 Q25.0 -0.22999999999998977 25.0 -0.22999999999998977 Q25.0 -0.22999999999998977 25.0 -0.664999999999992 Q25.0 -1.1049999999999898 25.0 -1.7299999999999898 V-68.72999999999999 Q25.0 -69.35499999999999 25.0 -69.78999999999999 Q25.0 -70.22999999999999 25.0 -70.22999999999999 Z"/></g><g id="Thin-M" transform="matrix(1 0 0 1 802.565 1126)"><path d="M84.625 -25.85499999999999 H88.5 V-33.35499999999999 H95.0 V-37.10499999999999 H88.5 V-44.60499999999999 H84.625 V-37.10499999999999 H78.125 V-33.35499999999999 H84.625 V-25.85499999999999 Z M58.375 -21.47999999999999 H62.875 V-33.60499999999999 L74.5 -21.47999999999999 H80.5 L67.125 -35.47999999999999 L80.5 -48.97999999999999 H74.75 L62.875 -37.10499999999999 V-48.97999999999999 H58.375 V-21.47999999999999 Z M44.25 -21.47999999999999 H49.0 V-28.97999999999999 H54.875 V-33.72999999999999 H49.0 V-48.97999999999999 H44.25 V-33.72999999999999 H34.875 V-48.97999999999999 H30.5 V-28.97999999999999 H44.25 V-21.47999999999999 Z M28.125 8.02000000000001 Q23.25 8.02000000000001 20.0 4.77000000000001 Q16.75 1.5200000000000102 16.75 -3.3549999999999898 V-67.10499999999999 Q16.75 -71.97999999999999 20.0 -75.22999999999999 Q23.25 -78.47999999999999 28.125 -78.47999999999999 H91.875 Q96.75 -78.47999999999999 100.0 -75.22999999999999 Q103.25 -71.97999999999999 103.25 -67.10499999999999 V-3.3549999999999898 Q103.25 1.5200000000000102 100.0 4.77000000000001 Q96.75 8.02000000000001 91.875 8.02000000000001 H28.125 Z M28.125 -0.22999999999998977 H91.875 Q93.125 -0.22999999999998977 94.06 -1.1699999999999875 Q95.0 -2.1049999999999898 95.0 -3.3549999999999898 V-67.10499999999999 Q95.0 -68.35499999999999 94.06 -69.28999999999999 Q93.125 -70.22999999999999 91.875 -70.22999999999999 H28.125 Q26.875 -70.22999999999999 25.939999999999998 -69.28999999999999 Q25.0 -68.35499999999999 25.0 -67.10499999999999 V-3.3549999999999898 Q25.0 -2.1049999999999898 25.939999999999998 -1.1699999999999875 Q26.875 -0.22999999999998977 28.125 -0.22999999999998977 Z M25.0 -70.22999999999999 Q25.0 -70.22999999999999 25.0 -69.35499999999999 Q25.0 -68.47999999999999 25.0 -67.10499999999999 V-3.3549999999999898 Q25.0 -1.9799999999999898 25.0 -1.1049999999999898 Q25.0 -0.22999999999998977 25.0 -0.22999999999998977 Q25.0 -0.22999999999998977 25.0 -1.1049999999999898 Q25.0 -1.9799999999999898 25.0 -3.3549999999999898 V-67.10499999999999 Q25.0 -68.47999999999999 25.0 -69.35499999999999 Q25.0 -70.22999999999999 25.0 -70.22999999999999 Z"/></g><g id="Ultralight-M" transform="matrix(1 0 0 1 506.415 1126)"><path d="M85.0 -25.97999999999999 H88.5 V-33.47999999999999 H95.0 V-36.97999999999999 H88.5 V-44.47999999999999 H85.0 V-36.97999999999999 H78.5 V-33.47999999999999 H85.0 V-25.97999999999999 Z M58.625 -21.97999999999999 H62.125 V-34.22999999999999 L74.625 -21.97999999999999 H79.75 L65.875 -35.47999999999999 L79.75 -48.47999999999999 H74.875 L62.125 -36.47999999999999 V-48.47999999999999 H58.625 V-21.97999999999999 Z M44.75 -21.97999999999999 H48.5 V-29.47999999999999 H54.75 V-33.22999999999999 H48.5 V-48.47999999999999 H44.75 V-33.22999999999999 H34.75 V-48.47999999999999 H31.25 V-29.47999999999999 H44.75 V-21.97999999999999 Z M29.0 6.52000000000001 Q24.375 6.52000000000001 21.314999999999998 3.460000000000008 Q18.25 0.39500000000001023 18.25 -4.22999999999999 V-66.22999999999999 Q18.25 -70.85499999999999 21.314999999999998 -73.91999999999999 Q24.375 -76.97999999999999 29.0 -76.97999999999999 H91.0 Q95.625 -76.97999999999999 98.69 -73.91999999999999 Q101.75 -70.85499999999999 101.75 -66.22999999999999 V-4.22999999999999 Q101.75 0.39500000000001023 98.69 3.460000000000008 Q95.625 6.52000000000001 91.0 6.52000000000001 H29.0 Z M29.0 -0.22999999999998977 H91.0 Q92.5 -0.22999999999998977 93.75 -1.4799999999999898 Q95.0 -2.7299999999999898 95.0 -4.22999999999999 V-66.22999999999999 Q95.0 -67.72999999999999 93.75 -68.97999999999999 Q92.5 -70.22999999999999 91.0 -70.22999999999999 H29.0 Q27.5 -70.22999999999999 26.25 -68.97999999999999 Q25.0 -67.72999999999999 25.0 -66.22999999999999 V-4.22999999999999 Q25.0 -2.7299999999999898 26.25 -1.4799999999999898 Q27.5 -0.22999999999998977 29.0 -0.22999999999998977 Z M25.0 -70.22999999999999 Q25.0 -70.22999999999999 25.0 -69.10499999999999 Q25.0 -67.97999999999999 25.0 -66.22999999999999 V-4.22999999999999 Q25.0 -2.4799999999999898 25.0 -1.3549999999999898 Q25.0 -0.22999999999998977 25.0 -0.22999999999998977 Q25.0 -0.22999999999998977 25.0 -1.3549999999999898 Q25.0 -2.4799999999999898 25.0 -4.22999999999999 V-66.22999999999999 Q25.0 -67.97999999999999 25.0 -69.10499999999999 Q25.0 -70.22999999999999 25.0 -70.22999999999999 Z"/></g><g id="Bold-S" transform="matrix(1 0 0 1 2294.23 696)"><path d="M66.077172 -27.43783599999999 H70.025328 V-33.25592199999999 H73.377 V-37.204077999999996 H70.025328 V-43.022164 H66.077172 V-37.204077999999996 H60.95025 V-33.25592199999999 H66.077172 V-27.43783599999999 Z M46.255914000000004 -23.394999999999996 H52.272828 V-32.470077999999994 L59.175 -23.394999999999996 H66.077172 L57.39975 -35.22999999999999 L66.077172 -47.164413999999994 H59.175 L52.272828 -37.98992199999999 V-47.164413999999994 H46.255914000000004 V-23.394999999999996 Z M34.615008 -23.394999999999996 H40.83075 V-29.21308599999999 H44.182422 V-35.428827999999996 H40.83075 V-47.164413999999994 H34.615008 V-35.428827999999996 H29.980422 V-47.164413999999994 H23.868828 V-29.21308599999999 H34.615008 V-23.394999999999996 Z M21.303 4.616078000000016 Q15.484914 4.616078000000016 11.489418 0.6205820000000131 Q7.4939219999999995 -3.374914000000004 7.4939219999999995 -9.192999999999998 V-61.266999999999996 Q7.4939219999999995 -67.08508599999999 11.489418 -71.08058199999999 Q15.484914 -75.076078 21.303 -75.076078 H73.377 Q79.19508599999999 -75.076078 83.190582 -71.08058199999999 Q87.18607800000001 -67.08508599999999 87.18607800000001 -61.266999999999996 V-9.192999999999998 Q87.18607800000001 -3.374914000000004 83.190582 0.6205820000000131 Q79.19508599999999 4.616078000000016 73.377 4.616078000000016 H21.303 Z M21.303 -9.192999999999998 H73.377 Q73.377 -9.192999999999998 73.377 -9.192999999999998 Q73.377 -9.192999999999998 73.377 -9.192999999999998 V-61.266999999999996 Q73.377 -61.266999999999996 73.377 -61.266999999999996 Q73.377 -61.266999999999996 73.377 -61.266999999999996 H21.303 Q21.303 -61.266999999999996 21.303 -61.266999999999996 Q21.303 -61.266999999999996 21.303 -61.266999999999996 V-9.192999999999998 Q21.303 -9.192999999999998 21.303 -9.192999999999998 Q21.303 -9.192999999999998 21.303 -9.192999999999998 Z M21.303 -61.266999999999996 Q21.303 -61.266999999999996 21.303 -61.266999999999996 Q21.303 -61.266999999999996 21.303 -61.266999999999996 V-9.192999999999998 Q21.303 -9.192999999999998 21.303 -9.192999999999998 Q21.303 -9.192999999999998 21.303 -9.192999999999998 Q21.303 -9.192999999999998 21.303 -9.192999999999998 Q21.303 -9.192999999999998 21.303 -9.192999999999998 V-61.266999999999996 Q21.303 -61.266999999999996 21.303 -61.266999999999996 Q21.303 -61.266999999999996 21.303 -61.266999999999996 Z"/></g><g id="Semibold-S" transform="matrix(1 0 0 1 1998.1 696)"><path d="M66.077172 -27.43783599999999 H70.025328 V-33.25592199999999 H73.86933599999999 V-37.204077999999996 H70.025328 V-43.022164 H66.077172 V-37.204077999999996 H61.149077999999996 V-33.25592199999999 H66.077172 V-27.43783599999999 Z M46.057086 -23.394999999999996 H52.074 V-32.470077999999994 L58.976172 -23.394999999999996 H65.98249200000001 L57.200922 -35.22999999999999 L65.98249200000001 -47.164413999999994 H58.976172 L52.074 -37.98992199999999 V-47.164413999999994 H46.057086 V-23.394999999999996 Z M34.3215 -23.394999999999996 H40.532508 V-29.21308599999999 H43.988327999999996 V-35.428827999999996 H40.532508 V-47.164413999999994 H34.3215 V-35.428827999999996 H29.488086 V-47.164413999999994 H23.376492 V-29.113671999999994 H34.3215 V-23.394999999999996 Z M20.810664 3.8255000000000052 Q15.584328 3.8255000000000052 11.934414 0.1755860000000098 Q8.2845 -3.474328 8.2845 -8.700664000000003 V-61.75933599999999 Q8.2845 -66.985672 11.934414 -70.63558599999999 Q15.584328 -74.2855 20.810664 -74.2855 H73.86933599999999 Q79.095672 -74.2855 82.745586 -70.63558599999999 Q86.3955 -66.985672 86.3955 -61.75933599999999 V-8.700664000000003 Q86.3955 -3.474328 82.745586 0.1755860000000098 Q79.095672 3.8255000000000052 73.86933599999999 3.8255000000000052 H20.810664 Z M20.810664 -8.700664000000003 H73.86933599999999 Q73.86933599999999 -8.700664000000003 73.86933599999999 -8.700664000000003 Q73.86933599999999 -8.700664000000003 73.86933599999999 -8.700664000000003 V-61.75933599999999 Q73.86933599999999 -61.75933599999999 73.86933599999999 -61.75933599999999 Q73.86933599999999 -61.75933599999999 73.86933599999999 -61.75933599999999 H20.810664 Q20.810664 -61.75933599999999 20.810664 -61.75933599999999 Q20.810664 -61.75933599999999 20.810664 -61.75933599999999 V-8.700664000000003 Q20.810664 -8.700664000000003 20.810664 -8.700664000000003 Q20.810664 -8.700664000000003 20.810664 -8.700664000000003 Z M20.810664 -61.75933599999999 Q20.810664 -61.75933599999999 20.810664 -61.75933599999999 Q20.810664 -61.75933599999999 20.810664 -61.75933599999999 V-8.700664000000003 Q20.810664 -8.700664000000003 20.810664 -8.700664000000003 Q20.810664 -8.700664000000003 20.810664 -8.700664000000003 Q20.810664 -8.700664000000003 20.810664 -8.700664000000003 Q20.810664 -8.700664000000003 20.810664 -8.700664000000003 V-61.75933599999999 Q20.810664 -61.75933599999999 20.810664 -61.75933599999999 Q20.810664 -61.75933599999999 20.810664 -61.75933599999999 Z"/></g><g id="Medium-S" transform="matrix(1 0 0 1 1701.85 696)"><path d="M66.077172 -27.43783599999999 H70.025328 V-33.25592199999999 H74.266992 V-37.204077999999996 H70.025328 V-43.022164 H66.077172 V-37.204077999999996 H61.343172 V-33.25592199999999 H66.077172 V-27.43783599999999 Z M45.862992000000006 -23.295585999999993 H51.875172 V-32.470077999999994 L58.881492 -23.295585999999993 H65.883078 L57.006828 -35.22999999999999 L65.883078 -47.26382799999999 H58.881492 L51.875172 -37.98992199999999 V-47.26382799999999 H45.862992000000006 V-23.295585999999993 Z M34.027992 -23.295585999999993 H40.338414 V-29.113671999999994 H43.7895 V-35.428827999999996 H40.338414 V-47.26382799999999 H34.027992 V-35.428827999999996 H29.194578 V-47.26382799999999 H23.07825 V-29.113671999999994 H34.027992 V-23.295585999999993 Z M20.413008 3.2337500000000006 Q15.584328 3.2337500000000006 12.227922000000001 -0.11792199999999298 Q8.87625 -3.474328 8.87625 -8.303007999999991 V-62.15699199999999 Q8.87625 -66.985672 12.227922000000001 -70.34207799999999 Q15.584328 -73.69375 20.413008 -73.69375 H74.266992 Q79.095672 -73.69375 82.452078 -70.34207799999999 Q85.80375 -66.985672 85.80375 -62.15699199999999 V-8.303007999999991 Q85.80375 -3.474328 82.452078 -0.11792199999999298 Q79.095672 3.2337500000000006 74.266992 3.2337500000000006 H20.413008 Z M20.413008 -8.303007999999991 H74.266992 Q74.266992 -8.303007999999991 74.266992 -8.303007999999991 Q74.266992 -8.303007999999991 74.266992 -8.303007999999991 V-62.15699199999999 Q74.266992 -62.15699199999999 74.266992 -62.15699199999999 Q74.266992 -62.15699199999999 74.266992 -62.15699199999999 H20.413008 Q20.413008 -62.15699199999999 20.413008 -62.15699199999999 Q20.413008 -62.15699199999999 20.413008 -62.15699199999999 V-8.303007999999991 Q20.413008 -8.303007999999991 20.413008 -8.303007999999991 Q20.413008 -8.303007999999991 20.413008 -8.303007999999991 Z M20.413008 -62.15699199999999 Q20.413008 -62.15699199999999 20.413008 -62.15699199999999 Q20.413008 -62.15699199999999 20.413008 -62.15699199999999 V-8.303007999999991 Q20.413008 -8.303007999999991 20.413008 -8.303007999999991 Q20.413008 -8.303007999999991 20.413008 -8.303007999999991 Q20.413008 -8.303007999999991 20.413008 -8.303007999999991 Q20.413008 -8.303007999999991 20.413008 -8.303007999999991 V-62.15699199999999 Q20.413008 -62.15699199999999 20.413008 -62.15699199999999 Q20.413008 -62.15699199999999 20.413008 -62.15699199999999 Z"/></g><g id="Regular-S" transform="matrix(1 0 0 1 1405.73 696)"><path d="M66.077172 -27.43783599999999 H70.025328 V-33.25592199999999 H74.5605 V-37.204077999999996 H70.025328 V-43.022164 H66.077172 V-37.204077999999996 H61.442586 V-33.25592199999999 H66.077172 V-27.43783599999999 Z M45.763578 -23.295585999999993 H51.780492 V-32.470077999999994 L58.782078 -23.295585999999993 H65.883078 L56.907414 -35.22999999999999 L65.883078 -47.26382799999999 H58.782078 L51.780492 -37.98992199999999 V-47.26382799999999 H45.763578 V-23.295585999999993 Z M33.829164 -23.295585999999993 H40.139585999999994 V-29.113671999999994 H43.690085999999994 V-35.428827999999996 H40.139585999999994 V-47.26382799999999 H33.829164 V-35.428827999999996 H28.896336 V-47.26382799999999 H22.780008000000002 V-29.113671999999994 H33.829164 V-23.295585999999993 Z M20.1195 2.840828000000016 Q15.679008 2.840828000000016 12.474089999999999 -0.36409000000000447 Q9.269172 -3.5690079999999966 9.269172 -8.009499999999989 V-62.45049999999999 Q9.269172 -66.890992 12.474089999999999 -70.09590999999999 Q15.679008 -73.300828 20.1195 -73.300828 H74.5605 Q79.000992 -73.300828 82.20590999999999 -70.09590999999999 Q85.41082800000001 -66.890992 85.41082800000001 -62.45049999999999 V-8.009499999999989 Q85.41082800000001 -3.5690079999999966 82.20590999999999 -0.36409000000000447 Q79.000992 2.840828000000016 74.5605 2.840828000000016 H20.1195 Z M20.1195 -8.009499999999989 H74.5605 Q74.5605 -8.009499999999989 74.5605 -8.009499999999989 Q74.5605 -8.009499999999989 74.5605 -8.009499999999989 V-62.45049999999999 Q74.5605 -62.45049999999999 74.5605 -62.45049999999999 Q74.5605 -62.45049999999999 74.5605 -62.45049999999999 H20.1195 Q20.1195 -62.45049999999999 20.1195 -62.45049999999999 Q20.1195 -62.45049999999999 20.1195 -62.45049999999999 V-8.009499999999989 Q20.1195 -8.009499999999989 20.1195 -8.009499999999989 Q20.1195 -8.009499999999989 20.1195 -8.009499999999989 Z M20.1195 -62.45049999999999 Q20.1195 -62.45049999999999 20.1195 -62.45049999999999 Q20.1195 -62.45049999999999 20.1195 -62.45049999999999 V-8.009499999999989 Q20.1195 -8.009499999999989 20.1195 -8.009499999999989 Q20.1195 -8.009499999999989 20.1195 -8.009499999999989 Q20.1195 -8.009499999999989 20.1195 -8.009499999999989 Q20.1195 -8.009499999999989 20.1195 -8.009499999999989 V-62.45049999999999 Q20.1195 -62.45049999999999 20.1195 -62.45049999999999 Q20.1195 -62.45049999999999 20.1195 -62.45049999999999 Z"/></g><g id="Light-S" transform="matrix(1 0 0 1 1109.75 696)"><path d="M66.569508 -27.636663999999996 H70.025328 V-33.45474999999999 H74.5605 V-37.00525 H70.025328 V-42.82333599999999 H66.569508 V-37.00525 H61.934922 V-33.45474999999999 H66.569508 V-27.636663999999996 Z M46.057086 -23.88733599999999 H50.79108599999999 V-33.25592199999999 L58.881492 -23.88733599999999 H64.798992 L55.231578 -35.329414 L64.798992 -46.67207799999999 H58.976172 L50.79108599999999 -37.204077999999996 V-46.67207799999999 H46.057086 V-23.88733599999999 Z M34.420913999999996 -23.88733599999999 H39.547836 V-29.70542199999999 H43.495992 V-34.83707799999999 H39.547836 V-46.67207799999999 H34.420913999999996 V-34.83707799999999 H28.697508000000003 V-46.67207799999999 H23.868828 V-29.70542199999999 H34.420913999999996 V-23.88733599999999 Z M21.303 0.8667500000000103 Q17.16075 0.8667500000000103 14.202 -2.0919999999999987 Q11.24325 -5.050749999999994 11.24325 -9.192999999999998 V-61.266999999999996 Q11.24325 -65.40924999999999 14.202 -68.368 Q17.16075 -71.32674999999999 21.303 -71.32674999999999 H73.377 Q77.51925 -71.32674999999999 80.478 -68.368 Q83.43675 -65.40924999999999 83.43675 -61.266999999999996 V-9.192999999999998 Q83.43675 -5.050749999999994 80.478 -2.0919999999999987 Q77.51925 0.8667500000000103 73.377 0.8667500000000103 H21.303 Z M21.303 -8.009499999999989 H73.377 Q73.769922 -8.009499999999989 74.167578 -8.402421999999987 Q74.5605 -8.800078 74.5605 -9.192999999999998 V-61.266999999999996 Q74.5605 -61.659921999999995 74.167578 -62.05757799999999 Q73.769922 -62.45049999999999 73.377 -62.45049999999999 H21.303 Q20.910078 -62.45049999999999 20.512422 -62.05757799999999 Q20.1195 -61.659921999999995 20.1195 -61.266999999999996 V-9.192999999999998 Q20.1195 -8.800078 20.512422 -8.402421999999987 Q20.910078 -8.009499999999989 21.303 -8.009499999999989 Z M20.1195 -62.45049999999999 Q20.1195 -62.45049999999999 20.1195 -62.10491799999999 Q20.1195 -61.75933599999999 20.1195 -61.266999999999996 V-9.192999999999998 Q20.1195 -8.700664000000003 20.1195 -8.355081999999996 Q20.1195 -8.009499999999989 20.1195 -8.009499999999989 Q20.1195 -8.009499999999989 20.1195 -8.355081999999996 Q20.1195 -8.700664000000003 20.1195 -9.192999999999998 V-61.266999999999996 Q20.1195 -61.75933599999999 20.1195 -62.10491799999999 Q20.1195 -62.45049999999999 20.1195 -62.45049999999999 Z"/></g><g id="Thin-S" transform="matrix(1 0 0 1 814.015 696)"><path d="M66.967164 -27.930171999999992 H70.025328 V-33.752992 H74.5605 V-36.70700799999999 H70.025328 V-42.529827999999995 H66.967164 V-36.70700799999999 H62.332578 V-33.752992 H66.967164 V-27.930171999999992 Z M46.255914000000004 -24.479085999999988 H49.905828 V-34.145914 L58.976172 -24.479085999999988 H63.710172 L53.456328 -35.428827999999996 L63.710172 -46.080327999999994 H59.175 L49.905828 -36.512913999999995 V-46.080327999999994 H46.255914000000004 V-24.479085999999988 Z M35.012664 -24.479085999999988 H38.956086 V-30.297171999999996 H43.396578 V-34.24532799999999 H38.956086 V-46.080327999999994 H35.012664 V-34.24532799999999 H28.602828 V-46.080327999999994 H24.952914 V-30.297171999999996 H35.012664 V-24.479085999999988 Z M22.585914 -1.1073279999999954 Q18.642492 -1.1073279999999954 15.929910000000001 -3.819909999999993 Q13.217327999999998 -6.532491999999991 13.217327999999998 -10.475914000000003 V-59.98408599999999 Q13.217327999999998 -63.92750799999999 15.929910000000001 -66.64008999999999 Q18.642492 -69.352672 22.585914 -69.352672 H72.09408599999999 Q76.037508 -69.352672 78.75009 -66.64008999999999 Q81.462672 -63.92750799999999 81.462672 -59.98408599999999 V-10.475914000000003 Q81.462672 -6.532491999999991 78.75009 -3.819909999999993 Q76.037508 -1.1073279999999954 72.09408599999999 -1.1073279999999954 H22.585914 Z M22.585914 -8.009499999999989 H72.09408599999999 Q73.083492 -8.009499999999989 73.821996 -8.748003999999995 Q74.5605 -9.486507999999986 74.5605 -10.475914000000003 V-59.98408599999999 Q74.5605 -60.97349199999999 73.821996 -61.711996 Q73.083492 -62.45049999999999 72.09408599999999 -62.45049999999999 H22.585914 Q21.596508 -62.45049999999999 20.858003999999998 -61.711996 Q20.1195 -60.97349199999999 20.1195 -59.98408599999999 V-10.475914000000003 Q20.1195 -9.486507999999986 20.858003999999998 -8.748003999999995 Q21.596508 -8.009499999999989 22.585914 -8.009499999999989 Z M20.1195 -62.45049999999999 Q20.1195 -62.45049999999999 20.1195 -61.75933599999999 Q20.1195 -61.06817199999999 20.1195 -59.98408599999999 V-10.475914000000003 Q20.1195 -9.39182799999999 20.1195 -8.700664000000003 Q20.1195 -8.009499999999989 20.1195 -8.009499999999989 Q20.1195 -8.009499999999989 20.1195 -8.700664000000003 Q20.1195 -9.39182799999999 20.1195 -10.475914000000003 V-59.98408599999999 Q20.1195 -61.06817199999999 20.1195 -61.75933599999999 Q20.1195 -62.45049999999999 20.1195 -62.45049999999999 Z"/></g><g id="Ultralight-S" transform="matrix(1 0 0 1 517.792 696)"><path d="M67.260672 -28.029585999999988 H70.025328 V-33.847671999999996 H74.5605 V-36.61232799999999 H70.025328 V-42.430414 H67.260672 V-36.61232799999999 H62.626085999999994 V-33.847671999999996 H67.260672 V-28.029585999999988 Z M46.450008 -24.872007999999994 H49.314078 V-34.63824999999999 L59.075585999999994 -24.872007999999994 H63.118422 L52.466922000000004 -35.428827999999996 L63.118422 -45.682672 H59.274414 L49.314078 -36.02057799999999 V-45.682672 H46.450008 V-24.872007999999994 Z M35.405586 -24.872007999999994 H38.563164 V-30.694827999999994 H43.297164 V-33.847671999999996 H38.563164 V-45.682672 H35.405586 V-33.847671999999996 H28.503414 V-45.682672 H25.544664 V-30.694827999999994 H35.405586 V-24.872007999999994 Z M23.277078 -2.2908280000000047 Q19.52775 -2.2908280000000047 16.961922 -4.851921999999988 Q14.400827999999999 -7.417749999999998 14.400827999999999 -11.16707799999999 V-59.29292199999999 Q14.400827999999999 -63.042249999999996 16.961922 -65.60807799999999 Q19.52775 -68.16917199999999 23.277078 -68.16917199999999 H71.402922 Q75.15225 -68.16917199999999 77.718078 -65.60807799999999 Q80.27917199999999 -63.042249999999996 80.27917199999999 -59.29292199999999 V-11.16707799999999 Q80.27917199999999 -7.417749999999998 77.718078 -4.851921999999988 Q75.15225 -2.2908280000000047 71.402922 -2.2908280000000047 H23.277078 Z M23.277078 -8.009499999999989 H71.402922 Q72.586422 -8.009499999999989 73.575828 -8.994171999999992 Q74.5605 -9.983577999999994 74.5605 -11.16707799999999 V-59.29292199999999 Q74.5605 -60.47642199999999 73.575828 -61.46582799999999 Q72.586422 -62.45049999999999 71.402922 -62.45049999999999 H23.277078 Q22.093578 -62.45049999999999 21.104172000000002 -61.46582799999999 Q20.1195 -60.47642199999999 20.1195 -59.29292199999999 V-11.16707799999999 Q20.1195 -9.983577999999994 21.104172000000002 -8.994171999999992 Q22.093578 -8.009499999999989 23.277078 -8.009499999999989 Z M20.1195 -62.45049999999999 Q20.1195 -62.45049999999999 20.1195 -61.560508 Q20.1195 -60.67524999999999 20.1195 -59.29292199999999 V-11.16707799999999 Q20.1195 -9.784749999999988 20.1195 -8.899491999999995 Q20.1195 -8.009499999999989 20.1195 -8.009499999999989 Q20.1195 -8.009499999999989 20.1195 -8.899491999999995 Q20.1195 -9.784749999999988 20.1195 -11.16707799999999 V-59.29292199999999 Q20.1195 -60.67524999999999 20.1195 -61.560508 Q20.1195 -62.45049999999999 20.1195 -62.45049999999999 Z"/></g></g></svg>