<svg xmlns="http://www.w3.org/2000/svg" version="1.1" width="3300" height="2000"><g id="Notes"><style>
    text {
      font-family: monospace;
      text-anchor: middle;
    }
    text.emphasis {
      font-weight:bold;
    }
    text.lanchor {
      text-anchor: start;
    }
  </style><rect height="2200" id="artboard" fill="white" width="3300" x="0" y="0"/><line id="" style="fill:none;stroke:black;stroke-width:0.5;" x1="263" x2="3036" y1="292" y2="292"/><text class="lanchor emphasis" transform="matrix(1 0 0 1 263 322)">Weight/Scale Variations</text><text transform="matrix(1 0 0 1 559.711 322)">Ultralight</text><text transform="matrix(1 0 0 1 856.422 322)">Thin</text><text transform="matrix(1 0 0 1 1153.13 322)">Light</text><text transform="matrix(1 0 0 1 1449.84 322)">Regular</text><text transform="matrix(1 0 0 1 1746.56 322)">Medium</text><text transform="matrix(1 0 0 1 2043.27 322)">Semibold</text><text transform="matrix(1 0 0 1 2339.98 322)">Bold</text><text transform="matrix(1 0 0 1 2636.69 322)">Heavy</text><text transform="matrix(1 0 0 1 2933.4 322)">Black</text><text id="template-version" style="text-anchor: end;" transform="matrix(1 0 0 1 3036 1933)">Template v.1.0</text><text class="lanchor" transform="matrix(1 0 0 1 263 726)">Small</text><text class="lanchor" transform="matrix(1 0 0 1 263 1156)">Medium</text><text class="lanchor" transform="matrix(1 0 0 1 263 1586)">Large</text></g><g id="Guides"><g id="H-reference" style="fill:#27AAE1;stroke:none;" transform="matrix(1 0 0 1 339 696)"><path d="M 54.9316 0 L 57.666 0 L 30.5664 -70.459 L 28.0762 -70.459 L 0.976562 0 L 3.66211 0 L 12.9395 -24.4629 L 45.7031 -24.4629 Z M 29.1992 -67.0898 L 29.4434 -67.0898 L 44.8242 -26.709 L 13.8184 -26.709 Z"/></g><line id="Baseline-S" style="fill:none;stroke:#27AAE1;opacity:1;stroke-width:0.577;" x1="263" x2="3036" y1="696" y2="696"/><line id="Capline-S" style="fill:none;stroke:#27AAE1;opacity:1;stroke-width:0.577;" x1="263" x2="3036" y1="625.541" y2="625.541"/><g id="H-reference" style="fill:#27AAE1;stroke:none;" transform="matrix(1 0 0 1 339 1126)"><path d="M 54.9316 0 L 57.666 0 L 30.5664 -70.459 L 28.0762 -70.459 L 0.976562 0 L 3.66211 0 L 12.9395 -24.4629 L 45.7031 -24.4629 Z M 29.1992 -67.0898 L 29.4434 -67.0898 L 44.8242 -26.709 L 13.8184 -26.709 Z"/></g><line id="Baseline-M" style="fill:none;stroke:#27AAE1;opacity:1;stroke-width:0.577;" x1="263" x2="3036" y1="1126" y2="1126"/><line id="Capline-M" style="fill:none;stroke:#27AAE1;opacity:1;stroke-width:0.577;" x1="263" x2="3036" y1="1055.54" y2="1055.54"/><g id="H-reference" style="fill:#27AAE1;stroke:none;" transform="matrix(1 0 0 1 339 1556)"><path d="M 54.9316 0 L 57.666 0 L 30.5664 -70.459 L 28.0762 -70.459 L 0.976562 0 L 3.66211 0 L 12.9395 -24.4629 L 45.7031 -24.4629 Z M 29.1992 -67.0898 L 29.4434 -67.0898 L 44.8242 -26.709 L 13.8184 -26.709 Z"/></g><line id="Baseline-L" style="fill:none;stroke:#27AAE1;opacity:1;stroke-width:0.577;" x1="263" x2="3036" y1="1556" y2="1556"/><line id="Capline-L" style="fill:none;stroke:#27AAE1;opacity:1;stroke-width:0.577;" x1="263" x2="3036" y1="1485.54" y2="1485.54"/><rect height="119.336" id="left-margin" style="fill:darkred;stroke:none;opacity:0.4;" width="12.4512" x="1394.06" y="1030.79"/><rect height="119.336" id="right-margin" style="fill:darkgreen;stroke:none;opacity:0.4;" width="12.4512" x="1502.5112" y="1030.79"/><rect x="1406.5112" y="1045" width="96" height="96" fill="none" stroke="blue" stroke-dasharray="5"/><rect x="1394.06" y="1030.79" width="120.9024" height="119.336" fill="none" stroke="blue"/></g><g id="Symbols"><g id="Bold-L" transform="matrix(1 0 0 1 2266 1556)"><path d="M9.513750000000002 19.595 V-91.99 H66.435 L77.4 -81.02499999999999 H145.44750000000002 V19.595 H9.513750000000002 Z M103.2 4.921250000000015 H130.6125 V-66.19 H103.2 V-51.83874999999999 H117.39 V-37.81 H103.2 V-23.781249999999986 H117.39 V-9.429999999999993 H103.2 V4.921250000000015 Z M24.1875 4.921250000000015 H89.01 V-9.429999999999993 H103.2 V-23.61999999999999 H89.01 V-37.97125 H103.2 V-51.83874999999999 H89.01 V-66.19 H71.43375 L60.46875 -77.155 H24.1875 V4.921250000000015 Z M24.1875 -66.19 V-77.155 V4.921250000000015 V-66.19 Z"/></g><g id="Semibold-L" transform="matrix(1 0 0 1 1970.27 1556)"><path d="M9.83625 19.595 V-91.345 H66.1125 L77.4 -80.0575 H144.96375 V19.595 H9.83625 Z M103.2 6.211250000000007 H131.57999999999998 V-66.51249999999999 H103.2 V-51.83874999999999 H117.7125 V-37.4875 H103.2 V-22.974999999999994 H117.7125 V-8.462500000000006 H103.2 V6.211250000000007 Z M23.220000000000002 6.211250000000007 H88.52625 V-8.462500000000006 H103.2 V-22.974999999999994 H88.6875 V-37.64874999999999 H103.2 V-51.99999999999999 H88.6875 V-66.51249999999999 H71.9175 L60.63 -77.79999999999998 H23.220000000000002 V6.211250000000007 Z M23.220000000000002 -66.51249999999999 V-77.79999999999998 V6.211250000000007 V-66.51249999999999 Z"/></g><g id="Medium-L" transform="matrix(1 0 0 1 1674.31 1556)"><path d="M10.15875 19.595 V-90.86125 H65.78999999999999 L77.4 -79.25125 H144.64125 V19.595 H10.15875 Z M103.2 7.178750000000008 H132.225 V-66.835 H103.2 V-51.99999999999999 H117.87375 V-37.32624999999999 H103.2 V-22.491249999999994 H117.87375 V-7.65625 H103.2 V7.178750000000008 Z M22.575 7.178750000000008 H88.365 V-7.65625 H103.2 V-22.491249999999994 H88.365 V-37.32624999999999 H103.2 V-51.99999999999999 H88.365 V-66.835 H72.24 L60.791250000000005 -78.445 H22.575 V7.178750000000008 Z M22.575 -66.835 V-78.445 V7.178750000000008 V-66.835 Z"/></g><g id="Regular-L" transform="matrix(1 0 0 1 1378.56 1556)"><path d="M10.32 19.595 V-90.53875 H65.62875000000001 L77.4 -78.76749999999998 H144.48 V19.595 H10.32 Z M103.2 7.823750000000018 H132.70875 V-66.99625 H103.2 V-52.161249999999995 H118.19624999999999 V-37.16499999999999 H103.2 V-22.16874999999999 H118.19624999999999 V-7.172499999999985 H103.2 V7.823750000000018 Z M22.09125 7.823750000000018 H88.20375000000001 V-7.172499999999985 H103.2 V-22.16874999999999 H88.20375000000001 V-37.16499999999999 H103.2 V-52.161249999999995 H88.20375000000001 V-66.99625 H72.5625 L60.791250000000005 -78.76749999999998 H22.09125 V7.823750000000018 Z M22.09125 -66.99625 V-78.76749999999998 V7.823750000000018 V-66.99625 Z"/></g><g id="Light-L" transform="matrix(1 0 0 1 1082.77 1556)"><path d="M13.545000000000002 16.370000000000005 V-84.895 H67.24125000000001 L77.4 -74.73624999999998 H141.255 V16.370000000000005 H13.545000000000002 Z M103.2 7.0175000000000125 H131.9025 V-65.2225 H103.2 V-50.871249999999996 H117.55125000000001 V-36.51999999999998 H103.2 V-22.007499999999993 H117.55125000000001 V-7.49499999999999 H103.2 V7.0175000000000125 Z M22.8975 7.0175000000000125 H88.6875 V-7.49499999999999 H103.2 V-22.007499999999993 H88.6875 V-36.51999999999998 H103.2 V-50.871249999999996 H88.6875 V-65.2225 H73.53 L63.371249999999996 -75.38125 H22.8975 V7.0175000000000125 Z M22.8975 -65.2225 V-75.38125 V7.0175000000000125 V-65.2225 Z"/></g><g id="Thin-L" transform="matrix(1 0 0 1 787.282 1556)"><path d="M16.77 13.14500000000001 V-79.09 H68.85375 L77.4 -70.54374999999999 H138.03 V13.14500000000001 H16.77 Z M103.2 6.049999999999997 H130.935 V-63.44875 H103.2 V-49.58124999999999 H117.0675 V-35.71374999999999 H103.2 V-21.846249999999998 H117.0675 V-7.978749999999977 H103.2 V6.049999999999997 Z M23.865000000000002 6.049999999999997 H89.17125 V-7.978749999999977 H103.2 V-21.846249999999998 H89.17125 V-35.71374999999999 H103.2 V-49.74249999999999 H89.17125 V-63.44875 H74.4975 L65.95125 -71.995 H23.865000000000002 V6.049999999999997 Z M23.865000000000002 -63.44875 V-71.995 V6.049999999999997 V-63.44875 Z"/></g><g id="Ultralight-L" transform="matrix(1 0 0 1 491.205 1556)"><path d="M18.705 11.210000000000008 V-75.70375 H69.82124999999999 L77.4 -68.125 H136.095 V11.210000000000008 H18.705 Z M103.2 5.566249999999997 H130.45125000000002 V-62.48124999999999 H103.2 V-48.936249999999994 H116.90625 V-35.39125 H103.2 V-21.685000000000002 H116.90625 V-8.14 H103.2 V5.566249999999997 Z M24.34875 5.566249999999997 H89.49375 V-8.14 H103.2 V-21.685000000000002 H89.49375 V-35.39125 H103.2 V-48.936249999999994 H89.49375 V-62.48124999999999 H75.1425 L67.56375 -70.06 H24.34875 V5.566249999999997 Z M24.34875 -62.48124999999999 V-70.06 V5.566249999999997 V-62.48124999999999 Z"/></g><g id="Bold-M" transform="matrix(1 0 0 1 2281.8 1126)"><path d="M4.25 10.89500000000001 V-83.60499999999999 H46.875 L60.0 -70.47999999999999 H115.75 V10.89500000000001 H4.25 Z M80.0 -6.10499999999999 H98.75 V-53.47999999999999 H80.0 V-43.85499999999999 H89.5 V-34.47999999999999 H80.0 V-25.10499999999999 H89.5 V-15.60499999999999 H80.0 V-6.10499999999999 Z M21.25 -6.10499999999999 H70.5 V-15.60499999999999 H80.0 V-25.10499999999999 H70.5 V-34.60499999999999 H80.0 V-43.85499999999999 H70.5 V-53.47999999999999 H53.0 L39.875 -66.60499999999999 H21.25 V-6.10499999999999 Z M21.25 -53.47999999999999 V-66.60499999999999 V-6.10499999999999 V-53.47999999999999 Z"/></g><g id="Semibold-M" transform="matrix(1 0 0 1 1985.97 1126)"><path d="M5.0 10.39500000000001 V-82.47999999999999 H46.875 L60.0 -69.22999999999999 H115.0 V10.39500000000001 H5.0 Z M80.0 -4.97999999999999 H99.625 V-53.85499999999999 H80.0 V-43.97999999999999 H89.875 V-34.35499999999999 H80.0 V-24.60499999999999 H89.875 V-14.72999999999999 H80.0 V-4.97999999999999 Z M20.375 -4.97999999999999 H70.125 V-14.72999999999999 H80.0 V-24.60499999999999 H70.125 V-34.35499999999999 H80.0 V-44.10499999999999 H70.125 V-53.85499999999999 H53.625 L40.5 -67.10499999999999 H20.375 V-4.97999999999999 Z M20.375 -53.85499999999999 V-67.10499999999999 V-4.97999999999999 V-53.85499999999999 Z"/></g><g id="Medium-M" transform="matrix(1 0 0 1 1689.91 1126)"><path d="M5.625 10.02000000000001 V-81.60499999999999 H46.75 L60.0 -68.35499999999999 H114.375 V10.02000000000001 H5.625 Z M80.0 -4.10499999999999 H100.25 V-54.22999999999999 H80.0 V-44.22999999999999 H90.125 V-34.22999999999999 H80.0 V-24.10499999999999 H90.125 V-14.10499999999999 H80.0 V-4.10499999999999 Z M19.75 -4.10499999999999 H69.875 V-14.10499999999999 H80.0 V-24.10499999999999 H69.875 V-34.22999999999999 H80.0 V-44.22999999999999 H69.875 V-54.22999999999999 H54.125 L40.875 -67.47999999999999 H19.75 V-4.10499999999999 Z M19.75 -54.22999999999999 V-67.47999999999999 V-4.10499999999999 V-54.22999999999999 Z"/></g><g id="Regular-M" transform="matrix(1 0 0 1 1394.06 1126)"><path d="M6.0 9.77000000000001 V-80.97999999999999 H46.75 L60.0 -67.72999999999999 H114.0 V9.77000000000001 H6.0 Z M80.0 -3.4799999999999898 H100.75 V-54.47999999999999 H80.0 V-44.35499999999999 H90.25 V-34.10499999999999 H80.0 V-23.85499999999999 H90.25 V-13.60499999999999 H80.0 V-3.4799999999999898 Z M19.25 -3.4799999999999898 H69.75 V-13.60499999999999 H80.0 V-23.85499999999999 H69.75 V-34.10499999999999 H80.0 V-44.35499999999999 H69.75 V-54.47999999999999 H54.5 L41.25 -67.72999999999999 H19.25 V-3.4799999999999898 Z M19.25 -54.47999999999999 V-67.72999999999999 V-3.4799999999999898 V-54.47999999999999 Z"/></g><g id="Light-M" transform="matrix(1 0 0 1 1098.18 1126)"><path d="M8.5 7.27000000000001 V-76.60499999999999 H48.625 L60.0 -65.22999999999999 H111.5 V7.27000000000001 H8.5 Z M80.0 -3.4799999999999898 H100.75 V-54.47999999999999 H80.0 V-44.35499999999999 H90.25 V-34.10499999999999 H80.0 V-23.85499999999999 H90.25 V-13.60499999999999 H80.0 V-3.4799999999999898 Z M19.25 -3.4799999999999898 H69.75 V-13.60499999999999 H80.0 V-23.85499999999999 H69.75 V-34.10499999999999 H80.0 V-44.35499999999999 H69.75 V-54.47999999999999 H55.5 L44.25 -65.85499999999999 H19.25 V-3.4799999999999898 Z M19.25 -54.47999999999999 V-65.85499999999999 V-3.4799999999999898 V-54.47999999999999 Z"/></g><g id="Thin-M" transform="matrix(1 0 0 1 802.565 1126)"><path d="M11.0 4.77000000000001 V-72.10499999999999 H50.625 L60.0 -62.72999999999999 H109.0 V4.77000000000001 H11.0 Z M80.0 -3.4799999999999898 H100.75 V-54.47999999999999 H80.0 V-44.35499999999999 H90.25 V-34.10499999999999 H80.0 V-23.85499999999999 H90.25 V-13.60499999999999 H80.0 V-3.4799999999999898 Z M19.25 -3.4799999999999898 H69.75 V-13.60499999999999 H80.0 V-23.85499999999999 H69.75 V-34.10499999999999 H80.0 V-44.35499999999999 H69.75 V-54.47999999999999 H56.625 L47.25 -63.85499999999999 H19.25 V-3.4799999999999898 Z M19.25 -54.47999999999999 V-63.85499999999999 V-3.4799999999999898 V-54.47999999999999 Z"/></g><g id="Ultralight-M" transform="matrix(1 0 0 1 506.415 1126)"><path d="M12.5 3.2700000000000102 V-69.47999999999999 H51.75 L60.0 -61.22999999999999 H107.5 V3.2700000000000102 H12.5 Z M80.0 -3.4799999999999898 H100.75 V-54.47999999999999 H80.0 V-44.35499999999999 H90.25 V-34.10499999999999 H80.0 V-23.85499999999999 H90.25 V-13.60499999999999 H80.0 V-3.4799999999999898 Z M19.25 -3.4799999999999898 H69.75 V-13.60499999999999 H80.0 V-23.85499999999999 H69.75 V-34.10499999999999 H80.0 V-44.35499999999999 H69.75 V-54.47999999999999 H57.25 L49.0 -62.72999999999999 H19.25 V-3.4799999999999898 Z M19.25 -54.47999999999999 V-62.72999999999999 V-3.4799999999999898 V-54.47999999999999 Z"/></g><g id="Bold-S" transform="matrix(1 0 0 1 2294.23 696)"><path d="M3.3516719999999998 1.164991999999998 V-73.39550799999999 H36.589086 L47.34 -62.649328 H91.32832800000001 V1.164991999999998 H3.3516719999999998 Z M63.118422 -12.644085999999987 H77.51925 V-48.84024999999999 H63.118422 V-41.44100799999999 H70.31883599999999 V-34.34000799999999 H63.118422 V-27.144327999999994 H70.31883599999999 V-19.844499999999996 H63.118422 V-12.644085999999987 Z M17.16075 -12.644085999999987 H55.918008 V-19.844499999999996 H63.118422 V-27.144327999999994 H55.918008 V-34.43942199999999 H63.118422 V-41.54042199999999 H55.918008 V-48.84024999999999 H41.621328 L30.870414 -59.59116399999999 H17.16075 V-12.644085999999987 Z M17.16075 -48.84024999999999 V-59.59116399999999 V-12.644085999999987 V-48.84024999999999 Z"/></g><g id="Semibold-S" transform="matrix(1 0 0 1 1998.1 696)"><path d="M3.943422 0.7673360000000002 V-72.51025 H36.589086 L47.34 -61.659921999999995 H90.73657800000001 V0.7673360000000002 H3.943422 Z M63.118422 -11.758827999999994 H78.210414 V-49.13849199999999 H63.118422 V-41.63983599999999 H70.61707799999999 V-34.24532799999999 H63.118422 V-26.746671999999997 H70.61707799999999 V-19.15333599999999 H63.118422 V-11.758827999999994 Z M16.469586 -11.758827999999994 H55.6245 V-19.15333599999999 H63.118422 V-26.746671999999997 H55.6245 V-34.24532799999999 H63.118422 V-41.73924999999999 H55.6245 V-49.13849199999999 H42.11366400000001 L31.36275 -59.98408599999999 H16.469586 V-11.758827999999994 Z M16.469586 -49.13849199999999 V-59.98408599999999 V-11.758827999999994 V-49.13849199999999 Z"/></g><g id="Medium-S" transform="matrix(1 0 0 1 1701.85 696)"><path d="M4.440492 0.4738280000000117 V-71.819086 H36.489672 L47.34 -60.97349199999999 H90.239508 V0.4738280000000117 H4.440492 Z M63.118422 -11.067663999999994 H78.70275 V-49.431999999999995 H63.118422 V-41.73924999999999 H70.811172 V-34.145914 H63.118422 V-26.35374999999999 H70.811172 V-18.660999999999994 H63.118422 V-11.067663999999994 Z M15.97725 -11.067663999999994 H55.425672 V-18.660999999999994 H63.118422 V-26.35374999999999 H55.425672 V-34.145914 H63.118422 V-41.838663999999994 H55.425672 V-49.431999999999995 H42.506586 L31.660992 -60.28232799999999 H15.97725 V-11.067663999999994 Z M15.97725 -49.431999999999995 V-60.28232799999999 V-11.067663999999994 V-49.431999999999995 Z"/></g><g id="Regular-S" transform="matrix(1 0 0 1 1405.73 696)"><path d="M4.734 0.2750000000000057 V-71.32674999999999 H36.489672 L47.34 -60.47642199999999 H89.946 V0.2750000000000057 H4.734 Z M63.118422 -10.575327999999999 H79.095672 V-49.630827999999994 H63.118422 V-41.838663999999994 H70.910586 V-34.046499999999995 H63.118422 V-26.154921999999992 H70.910586 V-18.26807799999999 H63.118422 V-10.575327999999999 Z M15.584328 -10.575327999999999 H55.330992 V-18.26807799999999 H63.118422 V-26.154921999999992 H55.330992 V-34.046499999999995 H63.118422 V-41.93807799999999 H55.330992 V-49.630827999999994 H42.804828 L31.9545 -60.47642199999999 H15.584328 V-10.575327999999999 Z M15.584328 -49.630827999999994 V-60.47642199999999 V-10.575327999999999 V-49.630827999999994 Z"/></g><g id="Light-S" transform="matrix(1 0 0 1 1109.75 696)"><path d="M6.708078 -1.699078 V-67.875664 H37.971414 L47.34 -58.50707799999999 H87.97192199999999 V-1.699078 H6.708078 Z M63.118422 -10.575327999999999 H79.095672 V-49.630827999999994 H63.118422 V-41.838663999999994 H70.910586 V-34.046499999999995 H63.118422 V-26.154921999999992 H70.910586 V-18.26807799999999 H63.118422 V-10.575327999999999 Z M15.584328 -10.575327999999999 H55.330992 V-18.26807799999999 H63.118422 V-26.154921999999992 H55.330992 V-34.046499999999995 H63.118422 V-41.93807799999999 H55.330992 V-49.630827999999994 H43.590672 L34.3215 -58.999413999999994 H15.584328 V-10.575327999999999 Z M15.584328 -49.630827999999994 V-58.999413999999994 V-10.575327999999999 V-49.630827999999994 Z"/></g><g id="Thin-S" transform="matrix(1 0 0 1 814.015 696)"><path d="M8.677422 -3.6684219999999925 V-64.325164 H39.547836 L47.34 -56.532999999999994 H86.00257800000001 V-3.6684219999999925 H8.677422 Z M63.118422 -10.575327999999999 H79.095672 V-49.630827999999994 H63.118422 V-41.838663999999994 H70.910586 V-34.046499999999995 H63.118422 V-26.154921999999992 H70.910586 V-18.26807799999999 H63.118422 V-10.575327999999999 Z M15.584328 -10.575327999999999 H55.330992 V-18.26807799999999 H63.118422 V-26.154921999999992 H55.330992 V-34.046499999999995 H63.118422 V-41.93807799999999 H55.330992 V-49.630827999999994 H44.480664000000004 L36.6885 -57.422991999999994 H15.584328 V-10.575327999999999 Z M15.584328 -49.630827999999994 V-57.422991999999994 V-10.575327999999999 V-49.630827999999994 Z"/></g><g id="Ultralight-S" transform="matrix(1 0 0 1 517.792 696)"><path d="M9.860922 -4.851921999999988 V-62.251672 H40.437827999999996 L47.34 -55.34949999999999 H84.819078 V-4.851921999999988 H9.860922 Z M63.118422 -10.575327999999999 H79.095672 V-49.630827999999994 H63.118422 V-41.838663999999994 H70.910586 V-34.046499999999995 H63.118422 V-26.154921999999992 H70.910586 V-18.26807799999999 H63.118422 V-10.575327999999999 Z M15.584328 -10.575327999999999 H55.330992 V-18.26807799999999 H63.118422 V-26.154921999999992 H55.330992 V-34.046499999999995 H63.118422 V-41.93807799999999 H55.330992 V-49.630827999999994 H44.973 L38.070828 -56.532999999999994 H15.584328 V-10.575327999999999 Z M15.584328 -49.630827999999994 V-56.532999999999994 V-10.575327999999999 V-49.630827999999994 Z"/></g></g></svg>