<svg xmlns="http://www.w3.org/2000/svg" height="40" width="40"><path d="M6.792 32.5q-1.084 0-1.854-.771-.771-.771-.771-1.854v-19.75q0-1.083.771-1.854.77-.771 1.854-.771h26.416q1.084 0 1.854.771.771.771.771 1.854v19.75q0 1.083-.771 1.854-.77.771-1.854.771Zm0-2.083h26.416q.25 0 .396-.146.146-.146.146-.396V13H6.25v16.875q0 .25.146.396.146.146.396.146Zm11.458-6.792 6.25-6.25q.333-.333.771-.333.437 0 .771.333.333.333.333.771 0 .437-.333.771l-6.875 6.875q-.375.375-.917.375t-.917-.375l-3.375-3.375q-.333-.334-.333-.771 0-.438.333-.771.334-.333.771-.333.438 0 .771.333ZM6.792 30.417H6.25V9.583h.542q-.25 0-.396.146-.146.146-.146.396v19.75q0 .25.146.396.146.146.396.146Z"/></svg>