<svg xmlns="http://www.w3.org/2000/svg" height="24" width="24"><path d="M15.675 15q.325 0 .537-.213.213-.212.213-.537V13h1.15l.675 1.575q.075.2.25.312.175.113.375.113.375 0 .587-.3.213-.3.063-.65l-.5-1.15q.375-.2.638-.575.262-.375.262-.825v-1q0-.65-.425-1.075Q19.075 9 18.425 9h-2.7q-.35 0-.575.225-.225.225-.225.575v4.45q0 .325.213.537.212.213.537.213Zm.75-3.5v-1h2v1ZM11.9 15q.3 0 .575-.213.275-.212.375-.512l1.275-4.35q.1-.35-.112-.638Q13.8 9 13.45 9q-.25 0-.437.15-.188.15-.263.375l-.85 2.925-.85-2.925q-.075-.225-.262-.375Q10.6 9 10.35 9q-.35 0-.562.287-.213.288-.113.638l1.275 4.35q.1.3.375.512.275.213.575.213Zm-7.025 0h2.7q.65 0 1.075-.425.425-.425.425-1.075v-3q0-.65-.425-1.075Q8.225 9 7.575 9h-2.7q-.35 0-.575.225-.225.225-.225.575v4.4q0 .35.225.575.225.225.575.225Zm.7-1.5v-3h2v3Zm-2.2 7.35q-1.325 0-2.237-.912-.913-.913-.913-2.238V6.3q0-1.325.913-2.238.912-.912 2.237-.912h17.25q1.325 0 2.238.912.912.913.912 2.238v11.4q0 1.325-.912 2.238-.913.912-2.238.912Z"/></svg>