<svg xmlns="http://www.w3.org/2000/svg" height="40" width="40"><path d="M20.042 36.667 18.333 31.667H6.667Q5.25 31.667 4.292 30.708Q3.333 29.75 3.333 28.333V6.667Q3.333 5.25 4.292 4.292Q5.25 3.333 6.667 3.333H16.667L18.125 8.333H33.333Q34.792 8.333 35.729 9.25Q36.667 10.167 36.667 11.625V33.333Q36.667 34.75 35.729 35.708Q34.792 36.667 33.333 36.667ZM11.917 24.333Q14.833 24.333 16.667 22.479Q18.5 20.625 18.5 17.625Q18.5 17.292 18.5 17.021Q18.5 16.75 18.417 16.5H11.792V19.042H15.542Q15.208 20.25 14.271 20.917Q13.333 21.583 12 21.583Q10.375 21.583 9.208 20.396Q8.042 19.208 8.042 17.5Q8.042 15.792 9.208 14.604Q10.375 13.417 11.958 13.417Q12.708 13.417 13.375 13.688Q14.042 13.958 14.583 14.5L16.625 12.583Q15.792 11.667 14.542 11.167Q13.292 10.667 11.958 10.667Q9.125 10.667 7.146 12.667Q5.167 14.667 5.167 17.5Q5.167 20.333 7.146 22.333Q9.125 24.333 11.917 24.333ZM23.083 25.125 24.042 24.25Q23.458 23.542 22.958 22.896Q22.458 22.25 22 21.5ZM25.167 23Q26.333 21.625 26.958 20.375Q27.583 19.125 27.792 18.417H21.167L21.625 20.208H23.292Q23.625 20.833 24.083 21.542Q24.542 22.25 25.167 23ZM21.708 35H33.333Q34.042 35 34.521 34.521Q35 34.042 35 33.333V11.625Q35 10.917 34.521 10.438Q34.042 9.958 33.333 9.958H18.667L20.583 16.75H23.875V14.958H25.583V16.75H31.708V18.417H29.542Q29.167 20 28.333 21.521Q27.5 23.042 26.375 24.333L30.917 28.792L29.708 30L25.167 25.5L23.667 27L25.042 31.667Z"/></svg>