<svg xmlns="http://www.w3.org/2000/svg" version="1.1" width="3300" height="2000"><g id="Notes"><style>
    text {
      font-family: monospace;
      text-anchor: middle;
    }
    text.emphasis {
      font-weight:bold;
    }
    text.lanchor {
      text-anchor: start;
    }
  </style><rect height="2200" id="artboard" fill="white" width="3300" x="0" y="0"/><line id="" style="fill:none;stroke:black;stroke-width:0.5;" x1="263" x2="3036" y1="292" y2="292"/><text class="lanchor emphasis" transform="matrix(1 0 0 1 263 322)">Weight/Scale Variations</text><text transform="matrix(1 0 0 1 559.711 322)">Ultralight</text><text transform="matrix(1 0 0 1 856.422 322)">Thin</text><text transform="matrix(1 0 0 1 1153.13 322)">Light</text><text transform="matrix(1 0 0 1 1449.84 322)">Regular</text><text transform="matrix(1 0 0 1 1746.56 322)">Medium</text><text transform="matrix(1 0 0 1 2043.27 322)">Semibold</text><text transform="matrix(1 0 0 1 2339.98 322)">Bold</text><text transform="matrix(1 0 0 1 2636.69 322)">Heavy</text><text transform="matrix(1 0 0 1 2933.4 322)">Black</text><text id="template-version" style="text-anchor: end;" transform="matrix(1 0 0 1 3036 1933)">Template v.1.0</text><text class="lanchor" transform="matrix(1 0 0 1 263 726)">Small</text><text class="lanchor" transform="matrix(1 0 0 1 263 1156)">Medium</text><text class="lanchor" transform="matrix(1 0 0 1 263 1586)">Large</text></g><g id="Guides"><g id="H-reference" style="fill:#27AAE1;stroke:none;" transform="matrix(1 0 0 1 339 696)"><path d="M 54.9316 0 L 57.666 0 L 30.5664 -70.459 L 28.0762 -70.459 L 0.976562 0 L 3.66211 0 L 12.9395 -24.4629 L 45.7031 -24.4629 Z M 29.1992 -67.0898 L 29.4434 -67.0898 L 44.8242 -26.709 L 13.8184 -26.709 Z"/></g><line id="Baseline-S" style="fill:none;stroke:#27AAE1;opacity:1;stroke-width:0.577;" x1="263" x2="3036" y1="696" y2="696"/><line id="Capline-S" style="fill:none;stroke:#27AAE1;opacity:1;stroke-width:0.577;" x1="263" x2="3036" y1="625.541" y2="625.541"/><g id="H-reference" style="fill:#27AAE1;stroke:none;" transform="matrix(1 0 0 1 339 1126)"><path d="M 54.9316 0 L 57.666 0 L 30.5664 -70.459 L 28.0762 -70.459 L 0.976562 0 L 3.66211 0 L 12.9395 -24.4629 L 45.7031 -24.4629 Z M 29.1992 -67.0898 L 29.4434 -67.0898 L 44.8242 -26.709 L 13.8184 -26.709 Z"/></g><line id="Baseline-M" style="fill:none;stroke:#27AAE1;opacity:1;stroke-width:0.577;" x1="263" x2="3036" y1="1126" y2="1126"/><line id="Capline-M" style="fill:none;stroke:#27AAE1;opacity:1;stroke-width:0.577;" x1="263" x2="3036" y1="1055.54" y2="1055.54"/><g id="H-reference" style="fill:#27AAE1;stroke:none;" transform="matrix(1 0 0 1 339 1556)"><path d="M 54.9316 0 L 57.666 0 L 30.5664 -70.459 L 28.0762 -70.459 L 0.976562 0 L 3.66211 0 L 12.9395 -24.4629 L 45.7031 -24.4629 Z M 29.1992 -67.0898 L 29.4434 -67.0898 L 44.8242 -26.709 L 13.8184 -26.709 Z"/></g><line id="Baseline-L" style="fill:none;stroke:#27AAE1;opacity:1;stroke-width:0.577;" x1="263" x2="3036" y1="1556" y2="1556"/><line id="Capline-L" style="fill:none;stroke:#27AAE1;opacity:1;stroke-width:0.577;" x1="263" x2="3036" y1="1485.54" y2="1485.54"/><rect height="119.336" id="left-margin" style="fill:darkred;stroke:none;opacity:0.4;" width="12.4512" x="1394.06" y="1030.79"/><rect height="119.336" id="right-margin" style="fill:darkgreen;stroke:none;opacity:0.4;" width="12.4512" x="1502.5112" y="1030.79"/><rect x="1406.5112" y="1045" width="96" height="96" fill="none" stroke="blue" stroke-dasharray="5"/><rect x="1394.06" y="1030.79" width="120.9024" height="119.336" fill="none" stroke="blue"/></g><g id="Symbols"><g id="Bold-L" transform="matrix(1 0 0 1 2266 1556)"><path d="M52.40625 -42.647499999999994 H102.555 L77.4 -67.8025 L52.40625 -42.647499999999994 Z M30.6375 -24.58749999999999 H124.16250000000001 V-81.99249999999999 H30.6375 V-24.58749999999999 Z M15.802500000000002 26.367500000000007 V-96.98875 H139.15875 V26.367500000000007 H15.802500000000002 Z"/></g><g id="Semibold-L" transform="matrix(1 0 0 1 1970.27 1556)"><path d="M52.728750000000005 -42.647499999999994 H102.2325 L77.4 -67.47999999999999 L52.728750000000005 -42.647499999999994 Z M29.669999999999998 -23.458749999999995 H125.13 V-82.96 H29.669999999999998 V-23.458749999999995 Z M16.447499999999998 25.722499999999997 V-96.34375 H138.51375000000002 V25.722499999999997 H16.447499999999998 Z"/></g><g id="Medium-L" transform="matrix(1 0 0 1 1674.31 1556)"><path d="M52.88999999999999 -42.647499999999994 H102.07124999999999 L77.4 -67.31875 L52.88999999999999 -42.647499999999994 Z M29.025000000000002 -22.491249999999994 H125.775 V-83.60499999999999 H29.025000000000002 V-22.491249999999994 Z M16.931250000000002 25.23875000000001 V-95.69874999999999 H137.86875 V25.23875000000001 H16.931250000000002 Z"/></g><g id="Regular-L" transform="matrix(1 0 0 1 1378.56 1556)"><path d="M53.051249999999996 -42.647499999999994 H101.91000000000001 L77.4 -67.1575 L53.051249999999996 -42.647499999999994 Z M28.541249999999998 -21.846249999999998 H126.25874999999999 V-84.08875 H28.541249999999998 V-21.846249999999998 Z M17.25375 24.91624999999999 V-95.37625 H137.54625 V24.91624999999999 H17.25375 Z"/></g><g id="Light-L" transform="matrix(1 0 0 1 1082.77 1556)"><path d="M54.66375 -41.19624999999999 H100.29750000000001 L77.4 -64.09375 L54.66375 -41.19624999999999 Z M29.3475 -19.10499999999999 H125.4525 V-83.2825 H29.3475 V-19.10499999999999 Z M20.478749999999998 21.691249999999997 V-92.15125 H134.32125 V21.691249999999997 H20.478749999999998 Z"/></g><g id="Thin-L" transform="matrix(1 0 0 1 787.282 1556)"><path d="M56.27625 -39.74499999999999 H98.685 L77.4 -61.029999999999994 L56.27625 -39.74499999999999 Z M30.315 -16.52499999999999 H124.48500000000001 V-82.315 H30.315 V-16.52499999999999 Z M23.70375 18.466250000000002 V-88.92625 H131.09625 V18.466250000000002 H23.70375 Z"/></g><g id="Ultralight-L" transform="matrix(1 0 0 1 491.205 1556)"><path d="M57.24375 -38.7775 H97.7175 L77.4 -59.256249999999994 L57.24375 -38.7775 Z M30.798750000000002 -14.912499999999994 H124.00125000000001 V-81.83125 H30.798750000000002 V-14.912499999999994 Z M25.63875 16.53125 V-86.99125 H129.16125 V16.53125 H25.63875 Z"/></g><g id="Bold-M" transform="matrix(1 0 0 1 2281.8 1126)"><path d="M34.625 -37.22999999999999 H85.375 L60.0 -62.72999999999999 L34.625 -37.22999999999999 Z M26.25 -30.97999999999999 H93.75 V-68.97999999999999 H26.25 V-30.97999999999999 Z M9.5 15.27000000000001 V-85.72999999999999 H110.5 V15.27000000000001 H9.5 Z"/></g><g id="Semibold-M" transform="matrix(1 0 0 1 1985.97 1126)"><path d="M35.25 -37.22999999999999 H84.75 L60.0 -62.10499999999999 L35.25 -37.22999999999999 Z M25.375 -29.60499999999999 H94.625 V-69.85499999999999 H25.375 V-29.60499999999999 Z M10.5 14.27000000000001 V-84.72999999999999 H109.5 V14.27000000000001 H10.5 Z"/></g><g id="Medium-M" transform="matrix(1 0 0 1 1689.91 1126)"><path d="M35.75 -37.35499999999999 H84.25 L60.0 -61.72999999999999 L35.75 -37.35499999999999 Z M24.75 -28.47999999999999 H95.25 V-70.47999999999999 H24.75 V-28.47999999999999 Z M11.25 13.52000000000001 V-83.97999999999999 H108.75 V13.52000000000001 H11.25 Z"/></g><g id="Regular-M" transform="matrix(1 0 0 1 1394.06 1126)"><path d="M36.125 -37.35499999999999 H83.875 L60.0 -61.35499999999999 L36.125 -37.35499999999999 Z M24.25 -27.72999999999999 H95.75 V-70.97999999999999 H24.25 V-27.72999999999999 Z M11.75 13.02000000000001 V-83.47999999999999 H108.25 V13.02000000000001 H11.75 Z"/></g><g id="Light-M" transform="matrix(1 0 0 1 1098.18 1126)"><path d="M38.25 -37.10499999999999 H81.75 L60.0 -59.10499999999999 L38.25 -37.10499999999999 Z M24.25 -25.22999999999999 H95.75 V-70.97999999999999 H24.25 V-25.22999999999999 Z M14.25 10.52000000000001 V-80.97999999999999 H105.75 V10.52000000000001 H14.25 Z"/></g><g id="Thin-M" transform="matrix(1 0 0 1 802.565 1126)"><path d="M40.25 -36.85499999999999 H79.75 L60.0 -56.85499999999999 L40.25 -36.85499999999999 Z M24.25 -22.72999999999999 H95.75 V-70.97999999999999 H24.25 V-22.72999999999999 Z M16.75 8.02000000000001 V-78.47999999999999 H103.25 V8.02000000000001 H16.75 Z"/></g><g id="Ultralight-M" transform="matrix(1 0 0 1 506.415 1126)"><path d="M41.5 -36.72999999999999 H78.5 L60.0 -55.47999999999999 L41.5 -36.72999999999999 Z M24.25 -21.22999999999999 H95.75 V-70.97999999999999 H24.25 V-21.22999999999999 Z M18.25 6.52000000000001 V-76.97999999999999 H101.75 V6.52000000000001 H18.25 Z"/></g><g id="Bold-S" transform="matrix(1 0 0 1 2294.23 696)"><path d="M27.712836 -37.204077999999996 H66.967164 L47.34 -58.109421999999995 L27.712836 -37.204077999999996 Z M22.287672 -32.66417199999999 H72.39232799999999 V-60.28232799999999 H22.287672 V-32.66417199999999 Z M9.860922 2.2490780000000115 V-72.70907799999999 H84.819078 V2.2490780000000115 H9.860922 Z"/></g><g id="Semibold-S" transform="matrix(1 0 0 1 1998.1 696)"><path d="M28.205172 -37.204077999999996 H66.474828 L47.34 -57.61708599999999 L28.205172 -37.204077999999996 Z M21.596508 -31.580085999999987 H73.083492 V-60.97349199999999 H21.596508 V-31.580085999999987 Z M10.6515 1.4585000000000008 V-71.9185 H84.0285 V1.4585000000000008 H10.6515 Z"/></g><g id="Medium-S" transform="matrix(1 0 0 1 1701.85 696)"><path d="M28.602828 -37.303492 H66.077172 L47.34 -57.323578 L28.602828 -37.303492 Z M21.104172000000002 -30.694827999999994 H73.575828 V-61.46582799999999 H21.104172000000002 V-30.694827999999994 Z M11.24325 0.8667500000000103 V-71.32674999999999 H83.43675 V0.8667500000000103 H11.24325 Z"/></g><g id="Regular-S" transform="matrix(1 0 0 1 1405.73 696)"><path d="M28.896336 -37.303492 H65.783664 L47.34 -57.025335999999996 L28.896336 -37.303492 Z M20.71125 -30.10307799999999 H73.96875 V-61.85874999999999 H20.71125 V-30.10307799999999 Z M11.636172 0.4738280000000117 V-70.93382799999999 H83.043828 V0.4738280000000117 H11.636172 Z"/></g><g id="Light-S" transform="matrix(1 0 0 1 1109.75 696)"><path d="M30.572172000000002 -37.104664 H64.107828 L47.34 -55.250085999999996 L30.572172000000002 -37.104664 Z M20.71125 -28.12899999999999 H73.96875 V-61.85874999999999 H20.71125 V-28.12899999999999 Z M13.61025 -1.500249999999994 V-68.95974999999999 H81.06975 V-1.500249999999994 H13.61025 Z"/></g><g id="Thin-S" transform="matrix(1 0 0 1 814.015 696)"><path d="M32.153328 -36.90583599999999 H62.526672 L47.34 -53.474835999999996 L32.153328 -36.90583599999999 Z M20.71125 -26.154921999999992 H73.96875 V-61.85874999999999 H20.71125 V-26.154921999999992 Z M15.584328 -3.474328 V-66.985672 H79.095672 V-3.474328 H15.584328 Z"/></g><g id="Ultralight-S" transform="matrix(1 0 0 1 517.792 696)"><path d="M33.138 -36.80642199999999 H61.542 L47.34 -52.39075 L33.138 -36.80642199999999 Z M20.71125 -24.971421999999997 H73.96875 V-61.85874999999999 H20.71125 V-24.971421999999997 Z M16.767827999999998 -4.657827999999995 V-65.802172 H77.912172 V-4.657827999999995 H16.767827999999998 Z"/></g></g></svg>