<svg xmlns="http://www.w3.org/2000/svg" version="1.1" width="3300" height="2000"><g id="Notes"><style>
    text {
      font-family: monospace;
      text-anchor: middle;
    }
    text.emphasis {
      font-weight:bold;
    }
    text.lanchor {
      text-anchor: start;
    }
  </style><rect height="2200" id="artboard" fill="white" width="3300" x="0" y="0"/><line id="" style="fill:none;stroke:black;stroke-width:0.5;" x1="263" x2="3036" y1="292" y2="292"/><text class="lanchor emphasis" transform="matrix(1 0 0 1 263 322)">Weight/Scale Variations</text><text transform="matrix(1 0 0 1 559.711 322)">Ultralight</text><text transform="matrix(1 0 0 1 856.422 322)">Thin</text><text transform="matrix(1 0 0 1 1153.13 322)">Light</text><text transform="matrix(1 0 0 1 1449.84 322)">Regular</text><text transform="matrix(1 0 0 1 1746.56 322)">Medium</text><text transform="matrix(1 0 0 1 2043.27 322)">Semibold</text><text transform="matrix(1 0 0 1 2339.98 322)">Bold</text><text transform="matrix(1 0 0 1 2636.69 322)">Heavy</text><text transform="matrix(1 0 0 1 2933.4 322)">Black</text><text id="template-version" style="text-anchor: end;" transform="matrix(1 0 0 1 3036 1933)">Template v.1.0</text><text class="lanchor" transform="matrix(1 0 0 1 263 726)">Small</text><text class="lanchor" transform="matrix(1 0 0 1 263 1156)">Medium</text><text class="lanchor" transform="matrix(1 0 0 1 263 1586)">Large</text></g><g id="Guides"><g id="H-reference" style="fill:#27AAE1;stroke:none;" transform="matrix(1 0 0 1 339 696)"><path d="M 54.9316 0 L 57.666 0 L 30.5664 -70.459 L 28.0762 -70.459 L 0.976562 0 L 3.66211 0 L 12.9395 -24.4629 L 45.7031 -24.4629 Z M 29.1992 -67.0898 L 29.4434 -67.0898 L 44.8242 -26.709 L 13.8184 -26.709 Z"/></g><line id="Baseline-S" style="fill:none;stroke:#27AAE1;opacity:1;stroke-width:0.577;" x1="263" x2="3036" y1="696" y2="696"/><line id="Capline-S" style="fill:none;stroke:#27AAE1;opacity:1;stroke-width:0.577;" x1="263" x2="3036" y1="625.541" y2="625.541"/><g id="H-reference" style="fill:#27AAE1;stroke:none;" transform="matrix(1 0 0 1 339 1126)"><path d="M 54.9316 0 L 57.666 0 L 30.5664 -70.459 L 28.0762 -70.459 L 0.976562 0 L 3.66211 0 L 12.9395 -24.4629 L 45.7031 -24.4629 Z M 29.1992 -67.0898 L 29.4434 -67.0898 L 44.8242 -26.709 L 13.8184 -26.709 Z"/></g><line id="Baseline-M" style="fill:none;stroke:#27AAE1;opacity:1;stroke-width:0.577;" x1="263" x2="3036" y1="1126" y2="1126"/><line id="Capline-M" style="fill:none;stroke:#27AAE1;opacity:1;stroke-width:0.577;" x1="263" x2="3036" y1="1055.54" y2="1055.54"/><g id="H-reference" style="fill:#27AAE1;stroke:none;" transform="matrix(1 0 0 1 339 1556)"><path d="M 54.9316 0 L 57.666 0 L 30.5664 -70.459 L 28.0762 -70.459 L 0.976562 0 L 3.66211 0 L 12.9395 -24.4629 L 45.7031 -24.4629 Z M 29.1992 -67.0898 L 29.4434 -67.0898 L 44.8242 -26.709 L 13.8184 -26.709 Z"/></g><line id="Baseline-L" style="fill:none;stroke:#27AAE1;opacity:1;stroke-width:0.577;" x1="263" x2="3036" y1="1556" y2="1556"/><line id="Capline-L" style="fill:none;stroke:#27AAE1;opacity:1;stroke-width:0.577;" x1="263" x2="3036" y1="1485.54" y2="1485.54"/><rect height="119.336" id="left-margin" style="fill:darkred;stroke:none;opacity:0.4;" width="12.4512" x="1394.06" y="1030.79"/><rect height="119.336" id="right-margin" style="fill:darkgreen;stroke:none;opacity:0.4;" width="12.4512" x="1502.5112" y="1030.79"/><rect x="1406.5112" y="1045" width="96" height="96" fill="none" stroke="blue" stroke-dasharray="5"/><rect x="1394.06" y="1030.79" width="120.9024" height="119.336" fill="none" stroke="blue"/></g><g id="Symbols"><g id="Bold-L" transform="matrix(1 0 0 1 2266 1556)"><path d="M77.4 32.172500000000014  0.0 -54.57999999999999 Q15.802500000000002 -70.3825 35.394375 -79.65437499999999 Q54.986250000000005 -88.92625 77.4 -88.92625 Q99.81375 -88.92625 119.405625 -79.65437499999999 Q138.9975 -70.3825 154.8 -54.57999999999999 L77.4 32.172500000000014 Z M77.4 8.952500000000015  133.515 -52.48375 Q120.9375 -62.31999999999999 107.07000000000001 -67.96375 Q93.2025 -73.60749999999999 77.4 -73.60749999999999 Q61.597500000000004 -73.60749999999999 47.730000000000004 -67.96375 Q33.862500000000004 -62.31999999999999 21.285 -52.48375 L77.4 8.952500000000015 Z M72.5625 -13.138749999999987 V-48.613749999999996 H82.2375 V-13.138749999999987 H72.5625 Z M77.4 -55.86999999999999 Q75.465 -55.86999999999999 74.01375 -57.32125 Q72.5625 -58.772499999999994 72.5625 -60.70749999999999 Q72.5625 -62.64249999999999 74.01375 -64.09375 Q75.465 -65.54499999999999 77.4 -65.54499999999999 Q79.33500000000001 -65.54499999999999 80.78625000000001 -64.09375 Q82.2375 -62.64249999999999 82.2375 -60.70749999999999 Q82.2375 -58.772499999999994 80.78625000000001 -57.32125 Q79.33500000000001 -55.86999999999999 77.4 -55.86999999999999 Z"/></g><g id="Semibold-L" transform="matrix(1 0 0 1 1970.27 1556)"><path d="M77.4 28.141250000000014  0.0 -54.57999999999999 Q15.802500000000002 -70.06 35.475 -79.00937499999999 Q55.14750000000001 -87.95875 77.4 -87.95875 Q99.6525 -87.95875 119.325 -79.00937499999999 Q138.9975 -70.06 154.8 -54.57999999999999 L77.4 28.141250000000014 Z M77.4 9.275000000000006  136.57875 -52.967499999999994 Q123.35625 -63.287499999999994 108.68250000000002 -69.25375 Q94.00874999999999 -75.22 77.4 -75.22 Q60.791250000000005 -75.22 46.11750000000001 -69.25375 Q31.44375 -63.287499999999994 18.22125 -52.967499999999994 L77.4 9.275000000000006 Z M72.5625 -13.299999999999997 V-48.77499999999999 H82.2375 V-13.299999999999997 H72.5625 Z M77.4 -56.35375 Q75.465 -56.35375 74.01375 -57.80499999999999 Q72.5625 -59.256249999999994 72.5625 -61.19125 Q72.5625 -63.12624999999999 74.01375 -64.57749999999999 Q75.465 -66.02875 77.4 -66.02875 Q79.33500000000001 -66.02875 80.78625000000001 -64.57749999999999 Q82.2375 -63.12624999999999 82.2375 -61.19125 Q82.2375 -59.256249999999994 80.78625000000001 -57.80499999999999 Q79.33500000000001 -56.35375 77.4 -56.35375 Z"/></g><g id="Medium-L" transform="matrix(1 0 0 1 1674.31 1556)"><path d="M77.4 25.077500000000015  0.0 -54.57999999999999 Q15.963750000000001 -69.89874999999999 35.636250000000004 -78.60624999999999 Q55.308749999999996 -87.31375 77.4 -87.31375 Q99.49125000000001 -87.31375 119.16375000000001 -78.60624999999999 Q138.83625 -69.89874999999999 154.8 -54.57999999999999 L77.4 25.077500000000015 Z M77.4 9.436250000000015  138.83625 -53.29 Q125.29125 -64.09375 109.97250000000001 -70.22125 Q94.65375 -76.34875 77.4 -76.34875 Q60.146249999999995 -76.34875 44.8275 -70.22125 Q29.508750000000003 -64.09375 15.963750000000001 -53.29 L77.4 9.436250000000015 Z M72.5625 -13.461249999999993 V-48.936249999999994 H82.2375 V-13.461249999999993 H72.5625 Z M77.4 -56.67624999999999 Q75.465 -56.67624999999999 74.01375 -58.1275 Q72.5625 -59.57875 72.5625 -61.513749999999995 Q72.5625 -63.44875 74.01375 -64.89999999999999 Q75.465 -66.35125 77.4 -66.35125 Q79.33500000000001 -66.35125 80.78625000000001 -64.89999999999999 Q82.2375 -63.44875 82.2375 -61.513749999999995 Q82.2375 -59.57875 80.78625000000001 -58.1275 Q79.33500000000001 -56.67624999999999 77.4 -56.67624999999999 Z"/></g><g id="Regular-L" transform="matrix(1 0 0 1 1378.56 1556)"><path d="M77.4 22.82000000000002  0.0 -54.57999999999999 Q15.963750000000001 -69.73749999999998 35.636250000000004 -78.28375 Q55.308749999999996 -86.83 77.4 -86.83 Q99.49125000000001 -86.83 119.16375000000001 -78.28375 Q138.83625 -69.73749999999998 154.8 -54.57999999999999 L77.4 22.82000000000002 Z M77.4 9.597499999999997  140.61 -53.61249999999999 Q126.58125 -64.57749999999999 110.859375 -70.86625 Q95.1375 -77.155 77.4 -77.155 Q59.6625 -77.155 43.940625000000004 -70.86625 Q28.21875 -64.57749999999999 14.190000000000001 -53.61249999999999 L77.4 9.597499999999997 Z M72.5625 -13.461249999999993 V-48.936249999999994 H82.2375 V-13.461249999999993 H72.5625 Z M77.4 -56.998749999999994 Q75.465 -56.998749999999994 74.01375 -58.44999999999999 Q72.5625 -59.90124999999999 72.5625 -61.83624999999999 Q72.5625 -63.771249999999995 74.01375 -65.2225 Q75.465 -66.67374999999998 77.4 -66.67374999999998 Q79.33500000000001 -66.67374999999998 80.78625000000001 -65.2225 Q82.2375 -63.771249999999995 82.2375 -61.83624999999999 Q82.2375 -59.90124999999999 80.78625000000001 -58.44999999999999 Q79.33500000000001 -56.998749999999994 77.4 -56.998749999999994 Z"/></g><g id="Light-L" transform="matrix(1 0 0 1 1082.77 1556)"><path d="M77.4 18.305000000000007  4.515 -54.57999999999999 Q19.6725 -68.44749999999999 38.21625 -76.02625 Q56.760000000000005 -83.60499999999999 77.4 -83.60499999999999 Q98.03999999999999 -83.60499999999999 116.58375 -76.02625 Q135.1275 -68.44749999999999 150.285 -54.57999999999999 L77.4 18.305000000000007 Z M77.4 8.307500000000005  139.32000000000002 -53.77374999999999 Q125.775 -64.41624999999999 110.21437499999999 -70.3825 Q94.65375 -76.34875 77.4 -76.34875 Q60.146249999999995 -76.34875 44.585625 -70.3825 Q29.025000000000002 -64.41624999999999 15.48 -53.77374999999999 L77.4 8.307500000000005 Z M73.69125000000001 -14.106249999999989 V-48.77499999999999 H81.10875 V-14.106249999999989 H73.69125000000001 Z M77.4 -56.998749999999994 Q75.78750000000001 -56.998749999999994 74.578125 -58.208124999999995 Q73.36875 -59.4175 73.36875 -61.029999999999994 Q73.36875 -62.64249999999999 74.578125 -63.85187499999999 Q75.78750000000001 -65.06125 77.4 -65.06125 Q79.0125 -65.06125 80.221875 -63.85187499999999 Q81.43125 -62.64249999999999 81.43125 -61.029999999999994 Q81.43125 -59.4175 80.221875 -58.208124999999995 Q79.0125 -56.998749999999994 77.4 -56.998749999999994 Z"/></g><g id="Thin-L" transform="matrix(1 0 0 1 787.282 1556)"><path d="M77.4 13.628749999999997  9.19125 -54.57999999999999 Q23.5425 -66.99625 40.876875000000005 -73.688125 Q58.21125000000001 -80.38 77.4 -80.38 Q96.58875 -80.38 113.92312500000001 -73.688125 Q131.25750000000002 -66.99625 145.60875 -54.57999999999999 L77.4 13.628749999999997 Z M77.4 6.856250000000003  138.19125 -53.934999999999995 Q124.80750000000002 -64.255 109.48875000000001 -69.818125 Q94.17 -75.38125 77.4 -75.38125 Q60.63 -75.38125 45.31125 -69.818125 Q29.992500000000003 -64.255 16.60875 -53.934999999999995 L77.4 6.856250000000003 Z M74.98125 -14.751249999999985 V-48.613749999999996 H79.81875000000001 V-14.751249999999985 H74.98125 Z M77.4 -56.998749999999994 Q75.94875 -56.998749999999994 75.061875 -57.88562499999999 Q74.175 -58.772499999999994 74.175 -60.223749999999995 Q74.175 -61.513749999999995 75.061875 -62.48124999999999 Q75.94875 -63.44875 77.4 -63.44875 Q78.85125 -63.44875 79.73812500000001 -62.48124999999999 Q80.625 -61.513749999999995 80.625 -60.223749999999995 Q80.625 -58.772499999999994 79.73812500000001 -57.88562499999999 Q78.85125 -56.998749999999994 77.4 -56.998749999999994 Z"/></g><g id="Ultralight-L" transform="matrix(1 0 0 1 491.205 1556)"><path d="M77.4 10.887500000000003  11.932500000000001 -54.57999999999999 Q25.8 -66.19 42.489375 -72.3175 Q59.17875000000001 -78.445 77.4 -78.445 Q95.62125 -78.445 112.31062500000002 -72.3175 Q129.0 -66.19 142.8675 -54.57999999999999 L77.4 10.887500000000003 Z M77.4 6.049999999999997  137.38500000000002 -54.09625 Q124.32374999999999 -64.09375 109.08562500000001 -69.49562499999999 Q93.84750000000001 -74.8975 77.4 -74.8975 Q60.9525 -74.8975 45.714375000000004 -69.49562499999999 Q30.47625 -64.09375 17.415000000000003 -54.09625 L77.4 6.049999999999997 Z M75.62625 -15.235 V-48.4525 H79.17375 V-15.235 H75.62625 Z M77.4 -56.998749999999994 Q76.27125 -56.998749999999994 75.465 -57.80499999999999 Q74.65875 -58.61124999999999 74.65875 -59.74 Q74.65875 -60.86874999999999 75.465 -61.67499999999999 Q76.27125 -62.48124999999999 77.4 -62.48124999999999 Q78.69 -62.48124999999999 79.415625 -61.67499999999999 Q80.14125000000001 -60.86874999999999 80.14125000000001 -59.74 Q80.14125000000001 -58.61124999999999 79.415625 -57.80499999999999 Q78.69 -56.998749999999994 77.4 -56.998749999999994 Z"/></g><g id="Bold-M" transform="matrix(1 0 0 1 2281.8 1126)"><path d="M60.0 19.39500000000001  0.0 -50.22999999999999 Q11.75 -62.97999999999999 27.25 -70.16999999999999 Q42.75 -77.35499999999999 60.0 -77.35499999999999 Q77.25 -77.35499999999999 92.75 -70.16999999999999 Q108.25 -62.97999999999999 120.0 -50.22999999999999 L60.0 19.39500000000001 Z M60.0 -5.10499999999999  98.125 -48.85499999999999 Q89.75 -55.10499999999999 80.06 -58.35499999999999 Q70.375 -61.60499999999999 60.0 -61.60499999999999 Q49.625 -61.60499999999999 39.940000000000005 -58.35499999999999 Q30.25 -55.10499999999999 21.875 -48.85499999999999 L60.0 -5.10499999999999 Z M55.0 -19.85499999999999 V-44.85499999999999 H65.0 V-19.85499999999999 H55.0 Z M60.0 -49.10499999999999 Q57.875 -49.10499999999999 56.44 -50.539999999999985 Q55.0 -51.97999999999999 55.0 -54.10499999999999 Q55.0 -56.22999999999999 56.44 -57.669999999999995 Q57.875 -59.10499999999999 60.0 -59.10499999999999 Q62.125 -59.10499999999999 63.565 -57.669999999999995 Q65.0 -56.22999999999999 65.0 -54.10499999999999 Q65.0 -51.97999999999999 63.565 -50.539999999999985 Q62.125 -49.10499999999999 60.0 -49.10499999999999 Z"/></g><g id="Semibold-M" transform="matrix(1 0 0 1 1985.97 1126)"><path d="M60.0 15.27000000000001  0.0 -50.22999999999999 Q11.75 -62.72999999999999 27.315 -69.60499999999999 Q42.875 -76.47999999999999 60.0 -76.47999999999999 Q77.125 -76.47999999999999 92.69 -69.60499999999999 Q108.25 -62.72999999999999 120.0 -50.22999999999999 L60.0 15.27000000000001 Z M60.0 -4.85499999999999  101.375 -49.35499999999999 Q92.25 -56.10499999999999 81.75 -59.66999999999999 Q71.25 -63.22999999999999 60.0 -63.22999999999999 Q48.75 -63.22999999999999 38.25 -59.66999999999999 Q27.75 -56.10499999999999 18.625 -49.35499999999999 L60.0 -4.85499999999999 Z M55.0 -19.97999999999999 V-44.97999999999999 H65.0 V-19.97999999999999 H55.0 Z M60.0 -49.60499999999999 Q57.875 -49.60499999999999 56.44 -51.04499999999999 Q55.0 -52.47999999999999 55.0 -54.60499999999999 Q55.0 -56.72999999999999 56.44 -58.16999999999999 Q57.875 -59.60499999999999 60.0 -59.60499999999999 Q62.125 -59.60499999999999 63.565 -58.16999999999999 Q65.0 -56.72999999999999 65.0 -54.60499999999999 Q65.0 -52.47999999999999 63.565 -51.04499999999999 Q62.125 -49.60499999999999 60.0 -49.60499999999999 Z"/></g><g id="Medium-M" transform="matrix(1 0 0 1 1689.91 1126)"><path d="M60.0 12.02000000000001  0.0 -50.22999999999999 Q11.875 -62.47999999999999 27.435000000000002 -69.10499999999999 Q43.0 -75.72999999999999 60.0 -75.72999999999999 Q77.0 -75.72999999999999 92.56 -69.10499999999999 Q108.125 -62.47999999999999 120.0 -50.22999999999999 L60.0 12.02000000000001 Z M60.0 -4.60499999999999  103.75 -49.72999999999999 Q94.25 -56.85499999999999 83.065 -60.60499999999999 Q71.875 -64.35499999999999 60.0 -64.35499999999999 Q48.125 -64.35499999999999 36.94 -60.60499999999999 Q25.75 -56.85499999999999 16.25 -49.72999999999999 L60.0 -4.60499999999999 Z M55.0 -20.10499999999999 V-45.10499999999999 H65.0 V-20.10499999999999 H55.0 Z M60.0 -49.97999999999999 Q57.875 -49.97999999999999 56.44 -51.41999999999999 Q55.0 -52.85499999999999 55.0 -54.97999999999999 Q55.0 -57.10499999999999 56.44 -58.53999999999999 Q57.875 -59.97999999999999 60.0 -59.97999999999999 Q62.125 -59.97999999999999 63.565 -58.53999999999999 Q65.0 -57.10499999999999 65.0 -54.97999999999999 Q65.0 -52.85499999999999 63.565 -51.41999999999999 Q62.125 -49.97999999999999 60.0 -49.97999999999999 Z"/></g><g id="Regular-M" transform="matrix(1 0 0 1 1394.06 1126)"><path d="M60.0 9.77000000000001  0.0 -50.22999999999999 Q11.875 -62.35499999999999 27.435000000000002 -68.79499999999999 Q43.0 -75.22999999999999 60.0 -75.22999999999999 Q77.0 -75.22999999999999 92.56 -68.79499999999999 Q108.125 -62.35499999999999 120.0 -50.22999999999999 L60.0 9.77000000000001 Z M60.0 -4.47999999999999  105.5 -49.97999999999999 Q95.625 -57.47999999999999 84.0 -61.35499999999999 Q72.375 -65.22999999999999 60.0 -65.22999999999999 Q47.625 -65.22999999999999 36.0 -61.35499999999999 Q24.375 -57.47999999999999 14.5 -49.97999999999999 L60.0 -4.47999999999999 Z M55.0 -20.22999999999999 V-45.22999999999999 H65.0 V-20.22999999999999 H55.0 Z M60.0 -50.22999999999999 Q57.875 -50.22999999999999 56.44 -51.66999999999999 Q55.0 -53.10499999999999 55.0 -55.22999999999999 Q55.0 -57.35499999999999 56.44 -58.79499999999999 Q57.875 -60.22999999999999 60.0 -60.22999999999999 Q62.125 -60.22999999999999 63.565 -58.79499999999999 Q65.0 -57.35499999999999 65.0 -55.22999999999999 Q65.0 -53.10499999999999 63.565 -51.66999999999999 Q62.125 -50.22999999999999 60.0 -50.22999999999999 Z"/></g><g id="Light-M" transform="matrix(1 0 0 1 1098.18 1126)"><path d="M60.0 6.27000000000001  3.5 -50.22999999999999 Q15.0 -61.22999999999999 29.565 -66.97999999999999 Q44.125 -72.72999999999999 60.0 -72.72999999999999 Q75.875 -72.72999999999999 90.435 -66.97999999999999 Q105.0 -61.22999999999999 116.5 -50.22999999999999 L60.0 6.27000000000001 Z M60.0 -4.47999999999999  105.5 -49.97999999999999 Q95.625 -57.47999999999999 84.0 -61.35499999999999 Q72.375 -65.22999999999999 60.0 -65.22999999999999 Q47.625 -65.22999999999999 36.0 -61.35499999999999 Q24.375 -57.47999999999999 14.5 -49.97999999999999 L60.0 -4.47999999999999 Z M56.25 -20.22999999999999 V-45.22999999999999 H63.75 V-20.22999999999999 H56.25 Z M60.0 -50.72999999999999 Q58.25 -50.72999999999999 57.125 -51.85499999999999 Q56.0 -52.97999999999999 56.0 -54.72999999999999 Q56.0 -56.47999999999999 57.125 -57.60499999999999 Q58.25 -58.72999999999999 60.0 -58.72999999999999 Q61.75 -58.72999999999999 62.875 -57.60499999999999 Q64.0 -56.47999999999999 64.0 -54.72999999999999 Q64.0 -52.97999999999999 62.875 -51.85499999999999 Q61.75 -50.72999999999999 60.0 -50.72999999999999 Z"/></g><g id="Thin-M" transform="matrix(1 0 0 1 802.565 1126)"><path d="M60.0 2.6450000000000102  7.125 -50.22999999999999 Q18.0 -60.10499999999999 31.625 -65.16999999999999 Q45.25 -70.22999999999999 60.0 -70.22999999999999 Q74.75 -70.22999999999999 88.375 -65.16999999999999 Q102.0 -60.10499999999999 112.875 -50.22999999999999 L60.0 2.6450000000000102 Z M60.0 -4.47999999999999  105.5 -49.97999999999999 Q95.625 -57.47999999999999 84.0 -61.35499999999999 Q72.375 -65.22999999999999 60.0 -65.22999999999999 Q47.625 -65.22999999999999 36.0 -61.35499999999999 Q24.375 -57.47999999999999 14.5 -49.97999999999999 L60.0 -4.47999999999999 Z M57.5 -20.22999999999999 V-45.22999999999999 H62.5 V-20.22999999999999 H57.5 Z M60.0 -51.22999999999999 Q58.75 -51.22999999999999 57.809999999999995 -52.10499999999999 Q56.875 -52.97999999999999 56.875 -54.22999999999999 Q56.875 -55.60499999999999 57.809999999999995 -56.47999999999999 Q58.75 -57.35499999999999 60.0 -57.35499999999999 Q61.25 -57.35499999999999 62.190000000000005 -56.47999999999999 Q63.125 -55.60499999999999 63.125 -54.22999999999999 Q63.125 -52.97999999999999 62.190000000000005 -52.10499999999999 Q61.25 -51.22999999999999 60.0 -51.22999999999999 Z"/></g><g id="Ultralight-M" transform="matrix(1 0 0 1 506.415 1126)"><path d="M60.0 0.5200000000000102  9.25 -50.22999999999999 Q19.875 -59.35499999999999 32.94 -64.03999999999999 Q46.0 -68.72999999999999 60.0 -68.72999999999999 Q74.0 -68.72999999999999 87.065 -64.03999999999999 Q100.125 -59.35499999999999 110.75 -50.22999999999999 L60.0 0.5200000000000102 Z M60.0 -4.47999999999999  105.5 -49.97999999999999 Q95.625 -57.47999999999999 84.0 -61.35499999999999 Q72.375 -65.22999999999999 60.0 -65.22999999999999 Q47.625 -65.22999999999999 36.0 -61.35499999999999 Q24.375 -57.47999999999999 14.5 -49.97999999999999 L60.0 -4.47999999999999 Z M58.25 -20.22999999999999 V-45.22999999999999 H61.75 V-20.22999999999999 H58.25 Z M60.0 -51.47999999999999 Q59.0 -51.47999999999999 58.25 -52.22999999999999 Q57.5 -52.97999999999999 57.5 -53.97999999999999 Q57.5 -55.10499999999999 58.25 -55.794999999999995 Q59.0 -56.47999999999999 60.0 -56.47999999999999 Q61.125 -56.47999999999999 61.815 -55.794999999999995 Q62.5 -55.10499999999999 62.5 -53.97999999999999 Q62.5 -52.97999999999999 61.815 -52.22999999999999 Q61.125 -51.47999999999999 60.0 -51.47999999999999 Z"/></g><g id="Bold-S" transform="matrix(1 0 0 1 2294.23 696)"><path d="M47.34 5.501336000000009  0.0 -49.431999999999995 Q9.174491999999999 -58.800585999999996 21.255660000000002 -64.424578 Q33.336828 -70.043836 47.34 -70.043836 Q61.343172 -70.043836 73.42434 -64.424578 Q85.505508 -58.800585999999996 94.68 -49.431999999999995 L47.34 5.501336000000009 Z M47.34 -12.644085999999987  78.404508 -48.049671999999994 Q71.60175 -53.081914 63.762246 -55.74242199999999 Q55.918008 -58.407664 47.34 -58.407664 Q38.761992 -58.407664 30.917754 -55.74242199999999 Q23.07825 -53.081914 16.275492 -48.049671999999994 L47.34 -12.644085999999987 Z M43.7895 -25.468491999999998 V-42.03749199999999 H50.8905 V-25.468491999999998 H43.7895 Z M47.34 -46.17500799999999 Q45.862992000000006 -46.17500799999999 44.826246 -47.21175399999999 Q43.7895 -48.24849999999999 43.7895 -49.725508 Q43.7895 -51.207249999999995 44.826246 -52.243995999999996 Q45.862992000000006 -53.27600799999999 47.34 -53.27600799999999 Q48.817007999999994 -53.27600799999999 49.853754 -52.243995999999996 Q50.8905 -51.207249999999995 50.8905 -49.725508 Q50.8905 -48.24849999999999 49.853754 -47.21175399999999 Q48.817007999999994 -46.17500799999999 47.34 -46.17500799999999 Z"/></g><g id="Semibold-S" transform="matrix(1 0 0 1 1998.1 696)"><path d="M47.34 2.2490780000000115  0.0 -49.431999999999995 Q9.174491999999999 -58.60649199999999 21.303 -63.97958199999999 Q33.431508 -69.352672 47.34 -69.352672 Q61.248492000000006 -69.352672 73.377 -63.97958199999999 Q85.505508 -58.60649199999999 94.68 -49.431999999999995 L47.34 2.2490780000000115 Z M47.34 -12.449991999999995  80.97033599999999 -48.44732799999999 Q73.575828 -53.872491999999994 65.0925 -56.77916799999999 Q56.609172 -59.69057799999999 47.34 -59.69057799999999 Q38.070828 -59.69057799999999 29.5875 -56.77916799999999 Q21.104172000000002 -53.872491999999994 13.709664 -48.44732799999999 L47.34 -12.449991999999995 Z M43.7895 -25.563171999999994 V-42.132172 H50.8905 V-25.563171999999994 H43.7895 Z M47.34 -46.572663999999996 Q45.862992000000006 -46.572663999999996 44.826246 -47.55733599999999 Q43.7895 -48.542007999999996 43.7895 -50.123163999999996 Q43.7895 -51.60017199999999 44.826246 -52.636917999999994 Q45.862992000000006 -53.67366399999999 47.34 -53.67366399999999 Q48.817007999999994 -53.67366399999999 49.853754 -52.636917999999994 Q50.8905 -51.60017199999999 50.8905 -50.123163999999996 Q50.8905 -48.64142199999999 49.853754 -47.60941 Q48.817007999999994 -46.572663999999996 47.34 -46.572663999999996 Z"/></g><g id="Medium-S" transform="matrix(1 0 0 1 1701.85 696)"><path d="M47.34 -0.316749999999999  0.0 -49.431999999999995 Q9.269172 -58.407664 21.402414 -63.586659999999995 Q33.530922000000004 -68.760922 47.34 -68.760922 Q61.149077999999996 -68.760922 73.277586 -63.586659999999995 Q85.41082800000001 -58.407664 94.68 -49.431999999999995 L47.34 -0.316749999999999 Z M47.34 -12.251164000000003  82.845 -48.740835999999994 Q75.15225 -54.459508 66.129246 -57.51767199999999 Q57.101507999999995 -60.575835999999995 47.34 -60.575835999999995 Q37.578492 -60.575835999999995 28.550753999999998 -57.51767199999999 Q19.52775 -54.459508 11.835 -48.740835999999994 L47.34 -12.251164000000003 Z M43.7895 -25.66258599999999 V-42.23158599999999 H50.8905 V-25.66258599999999 H43.7895 Z M47.34 -46.86617199999999 Q45.862992000000006 -46.86617199999999 44.826246 -47.855577999999994 Q43.7895 -48.84024999999999 43.7895 -50.41667199999999 Q43.7895 -51.89841399999999 44.826246 -52.935159999999996 Q45.862992000000006 -53.96717199999999 47.34 -53.96717199999999 Q48.817007999999994 -53.96717199999999 49.853754 -52.935159999999996 Q50.8905 -51.89841399999999 50.8905 -50.41667199999999 Q50.8905 -48.93966399999999 49.853754 -47.90291799999999 Q48.817007999999994 -46.86617199999999 47.34 -46.86617199999999 Z"/></g><g id="Regular-S" transform="matrix(1 0 0 1 1405.73 696)"><path d="M47.34 -2.0919999999999987  0.0 -49.431999999999995 Q9.269172 -58.308249999999994 21.402414 -63.34049199999999 Q33.530922000000004 -68.368 47.34 -68.368 Q61.149077999999996 -68.368 73.277586 -63.34049199999999 Q85.41082800000001 -58.308249999999994 94.68 -49.431999999999995 L47.34 -2.0919999999999987 Z M47.34 -12.151749999999993  84.22732800000001 -48.93966399999999 Q76.236336 -54.95657799999999 66.86775 -58.109421999999995 Q57.499164 -61.266999999999996 47.34 -61.266999999999996 Q37.180836 -61.266999999999996 27.81225 -58.109421999999995 Q18.443664 -54.95657799999999 10.452672000000002 -48.93966399999999 L47.34 -12.151749999999993 Z M43.7895 -25.761999999999993 V-42.330999999999996 H50.8905 V-25.761999999999993 H43.7895 Z M47.34 -47.06499999999999 Q45.862992000000006 -47.06499999999999 44.826246 -48.10174599999999 Q43.7895 -49.13849199999999 43.7895 -50.6155 Q43.7895 -52.092507999999995 44.826246 -53.12925399999999 Q45.862992000000006 -54.166 47.34 -54.166 Q48.817007999999994 -54.166 49.853754 -53.12925399999999 Q50.8905 -52.092507999999995 50.8905 -50.6155 Q50.8905 -49.13849199999999 49.853754 -48.10174599999999 Q48.817007999999994 -47.06499999999999 47.34 -47.06499999999999 Z"/></g><g id="Light-S" transform="matrix(1 0 0 1 1109.75 696)"><path d="M47.34 -4.851921999999988  2.759922 -49.431999999999995 Q11.735586 -57.422991999999994 23.07825 -61.90608999999999 Q34.420913999999996 -66.39392199999999 47.34 -66.39392199999999 Q60.259085999999996 -66.39392199999999 71.60175 -61.90608999999999 Q82.94441400000001 -57.422991999999994 91.920078 -49.431999999999995 L47.34 -4.851921999999988 Z M47.34 -12.151749999999993  84.22732800000001 -48.93966399999999 Q76.236336 -54.95657799999999 66.86775 -58.109421999999995 Q57.499164 -61.266999999999996 47.34 -61.266999999999996 Q37.180836 -61.266999999999996 27.81225 -58.109421999999995 Q18.443664 -54.95657799999999 10.452672000000002 -48.93966399999999 L47.34 -12.151749999999993 Z M44.774172 -25.761999999999993 V-42.330999999999996 H49.905828 V-25.761999999999993 H44.774172 Z M47.34 -47.457921999999996 Q46.1565 -47.457921999999996 45.365922 -48.24849999999999 Q44.580078 -49.03907799999999 44.580078 -50.22257799999999 Q44.580078 -51.406077999999994 45.365922 -52.19192199999999 Q46.1565 -52.982499999999995 47.34 -52.982499999999995 Q48.5235 -52.982499999999995 49.314078 -52.19192199999999 Q50.099922 -51.406077999999994 50.099922 -50.22257799999999 Q50.099922 -49.03907799999999 49.314078 -48.24849999999999 Q48.5235 -47.457921999999996 47.34 -47.457921999999996 Z"/></g><g id="Thin-S" transform="matrix(1 0 0 1 814.015 696)"><path d="M47.34 -7.715992  5.623991999999999 -49.431999999999995 Q14.102586 -56.532999999999994 24.706746000000003 -60.47642199999999 Q35.306172000000004 -64.424578 47.34 -64.424578 Q59.373827999999996 -64.424578 69.973254 -60.47642199999999 Q80.577414 -56.532999999999994 89.056008 -49.431999999999995 L47.34 -7.715992 Z M47.34 -12.151749999999993  84.22732800000001 -48.93966399999999 Q76.236336 -54.95657799999999 66.86775 -58.109421999999995 Q57.499164 -61.266999999999996 47.34 -61.266999999999996 Q37.180836 -61.266999999999996 27.81225 -58.109421999999995 Q18.443664 -54.95657799999999 10.452672000000002 -48.93966399999999 L47.34 -12.151749999999993 Z M45.763578 -25.761999999999993 V-42.330999999999996 H48.916422 V-25.761999999999993 H45.763578 Z M47.34 -47.855577999999994 Q46.549422 -47.855577999999994 45.910332000000004 -48.395253999999994 Q45.266507999999995 -48.93966399999999 45.266507999999995 -49.824921999999994 Q45.266507999999995 -50.71491399999999 45.862992000000006 -51.306664 Q46.450008 -51.89841399999999 47.34 -51.89841399999999 Q48.130578 -51.89841399999999 48.769667999999996 -51.306664 Q49.413492000000005 -50.71491399999999 49.413492000000005 -49.924336 Q49.413492000000005 -49.03907799999999 48.817007999999994 -48.44732799999999 Q48.229992 -47.855577999999994 47.34 -47.855577999999994 Z"/></g><g id="Ultralight-S" transform="matrix(1 0 0 1 517.792 696)"><path d="M47.34 -9.39182799999999  7.299828 -49.431999999999995 Q15.584328 -55.94125 25.743492 -59.59116399999999 Q35.897922 -63.24107799999999 47.34 -63.24107799999999 Q58.782078 -63.24107799999999 68.936508 -59.59116399999999 Q79.095672 -55.94125 87.38017199999999 -49.431999999999995 L47.34 -9.39182799999999 Z M47.34 -12.151749999999993  84.22732800000001 -48.93966399999999 Q76.236336 -54.95657799999999 66.86775 -58.109421999999995 Q57.499164 -61.266999999999996 47.34 -61.266999999999996 Q37.180836 -61.266999999999996 27.81225 -58.109421999999995 Q18.443664 -54.95657799999999 10.452672000000002 -48.93966399999999 L47.34 -12.151749999999993 Z M46.355328 -25.761999999999993 V-42.330999999999996 H48.324672 V-25.761999999999993 H46.355328 Z M47.34 -48.049671999999994 Q46.74825 -48.049671999999994 46.255914000000004 -48.49466799999999 Q45.763578 -48.93966399999999 45.763578 -49.630827999999994 Q45.763578 -50.321991999999995 46.20384 -50.76225399999999 Q46.648835999999996 -51.207249999999995 47.34 -51.207249999999995 Q48.031164000000004 -51.207249999999995 48.47616 -50.76225399999999 Q48.916422 -50.321991999999995 48.916422 -49.630827999999994 Q48.916422 -49.03907799999999 48.47616 -48.542007999999996 Q48.031164000000004 -48.049671999999994 47.34 -48.049671999999994 Z"/></g></g></svg>