<svg xmlns="http://www.w3.org/2000/svg" height="48" width="48"><path d="M7.45 17.55q-1 0-1.675-.675T5.1 15.2v-4.05q0-1 .675-1.675T7.45 8.8h4.05q1 0 1.675.675t.675 1.675v4.05q0 1-.675 1.675t-1.675.675Zm11.4 0q-1 0-1.675-.675T16.5 15.2v-4.05q0-1 .675-1.675T18.85 8.8h21.7q1 0 1.675.675t.675 1.675v4.05q0 1-.675 1.675t-1.675.675Zm0 10.8q-1 0-1.675-.675T16.5 25.95V22q0-1 .675-1.675t1.675-.675h21.7q1 0 1.675.675T42.9 22v3.95q0 1.05-.675 1.725t-1.675.675Zm-11.4 0q-1 0-1.675-.675T5.1 25.95V22q0-1 .675-1.675t1.675-.675h4.05q1 0 1.675.675T13.85 22v3.95q0 1.05-.675 1.725t-1.675.675Zm11.4 10.85q-1 0-1.675-.675T16.5 36.85V32.8q0-1 .675-1.675t1.675-.675h21.7q1 0 1.675.675T42.9 32.8v4.05q0 1-.675 1.675t-1.675.675Zm-11.4 0q-1 0-1.675-.675T5.1 36.85V32.8q0-1 .675-1.675t1.675-.675h4.05q1 0 1.675.675t.675 1.675v4.05q0 1-.675 1.675T11.5 39.2Z"/></svg>