<svg xmlns="http://www.w3.org/2000/svg" height="24" viewBox="0 -960 960 960" width="24"><path d="M829.77-51.15 711.61-169.12v8.93q-.84 20.42-15.63 34.63-14.79 14.21-35.56 14.21H162.73q-21.41 0-36.39-14.99-14.99-14.98-14.99-36.39v-361.81q0-21.22 14.99-36.3 14.98-15.08 36.39-15.08h96.39L280.73-600 60.92-819.81l40.04-40.04L869.62-91l-39.85 39.85ZM405.81-475.12q-1.54-.19-2.98-.28-1.44-.1-2.79-.1-54.85 4.65-91.77 44.3-36.92 39.65-36.92 95.04 0 58.58 40.81 99.39 40.8 40.81 99.38 40.81 55.58 0 95.5-36.93 39.92-36.92 44.46-91.27-.31-1.42-.25-2.82.06-1.41-.14-2.95l-145.3-145.19Zm5.75 223.2q-34.79 0-59.52-24.71-24.73-24.71-24.73-59.5 0-34.99 24.71-59.72 24.71-24.73 59.5-24.73 34.98 0 59.71 24.71 24.73 24.71 24.73 59.69 0 34.79-24.71 59.53-24.7 24.73-59.69 24.73Zm300.36-104.54L436.46-631.92h76.89l51 56h96.19q21.22 0 36.3 15.08 15.08 15.08 15.08 36.3v168.08Zm40.96-198.23v-137.43h-32.3v-164.42h126.57l-54.38 121.69h57.46l-97.35 180.16Z"/></svg>