<svg xmlns="http://www.w3.org/2000/svg" height="40" viewBox="0 -960 960 960" width="40"><path d="M481.33-223.33q83.67 0 161.5-30.84Q720.67-285 777.33-344L724-394q-9.67 11-21.67 20.83-12 9.84-23.66 15.84l-33.34-62v-102h41.34V-560h-230l-73.34-125.33H234l43.33 32-64.66 70.66L253.33-542l61.34-41.33v164l-32.67 62q-10.33-6-23.33-16-13-10-22.67-20.67l-53.33 50q56.66 59 136.16 89.83 79.5 30.84 162.5 30.84Zm0-70q-38 0-75.83-8T332.67-328l36.66-59.33q27 10 55.17 15t55.5 5q28.33 0 56-5t54.67-15L627.33-328Q593-310.67 556.5-302q-36.5 8.67-75.17 8.67ZM58.67-58.67v-842.66h842.66v842.66H58.67Zm84-84h674.66v-674.66H142.67v674.66Zm0 0v-674.66 674.66Z"/></svg>