<svg xmlns="http://www.w3.org/2000/svg" height="40" viewBox="0 -960 960 960" width="40"><path d="M138.33-210.67q-56.33 0-94.83-38.16Q5-287 5-343.33v-275q0-55.45 38.5-93.56T138.33-750h529q21.74 0 37.54 15.28 15.8 15.29 15.8 37.88 0 22.59-15.8 38.05-15.8 15.46-37.54 15.46H138.67q-11.03 0-19.02 7.48-7.98 7.49-7.98 18.52v273.66q0 11.03 7.98 19.02 7.99 7.98 19.02 7.98H671q22.85 0 37.76 15.65 14.91 15.65 14.91 37.35 0 23.09-14.91 38.05-14.91 14.95-37.76 14.95H138.33Zm6.67-192v-154.66q0-22.85 14.92-37.76Q174.83-610 198.33-610h469q21.74 0 37.54 14.91t15.8 37.76v154.66q0 23.5-15.8 38.42-15.8 14.92-37.54 14.92h-469q-23.5 0-38.41-14.92Q145-379.17 145-402.67Zm694.88 115.34q-21.5 0-37.02-15.64-15.53-15.64-15.53-37.14 0-21.49 15.64-37.36 15.64-15.86 37.14-15.86 21.49 0 37.36 15.83 15.86 15.83 15.86 37.62 0 21.5-15.83 37.02-15.83 15.53-37.62 15.53Zm0-166q-21.5 0-37.02-15.61-15.53-15.61-15.53-37.73V-640q0-21.73 15.64-37.53t37.14-15.8q21.49 0 37.36 15.8 15.86 15.8 15.86 37.53v133.33q0 22.12-15.83 37.73-15.83 15.61-37.62 15.61Z"/></svg>