<svg xmlns="http://www.w3.org/2000/svg" height="20" viewBox="0 -960 960 960" width="20"><path d="M479.99-120q-57.45 0-97.72-40.28Q342-200.56 342-258q0-51.95 33-89.98 33-38.02 82-44.46V-469H267v-99H164v-252h252v252H313v53h346v-57q-49-6-82-44.02-33-38.03-33-89.98 0-57.44 40.28-97.72Q624.57-844 682.01-844q57.45 0 97.72 40.28Q820-763.44 820-706q0 51.95-33 89.98Q754-578 705-572v103H503v76.56q49 6.44 82 44.46 33 38.03 33 89.98 0 57.44-40.28 97.72Q537.43-120 479.99-120Zm202.36-494Q720-614 747-641.35q27-27.36 27-65Q774-744 746.65-771q-27.36-27-65-27Q644-798 617-770.65q-27 27.36-27 65Q590-668 617.35-641q27.36 27 65 27ZM210-614h160v-160H210v160Zm270.35 448Q518-166 545-193.35q27-27.36 27-65Q572-296 544.65-323q-27.36-27-65-27Q442-350 415-322.65q-27 27.36-27 65Q388-220 415.35-193q27.36 27 65 27ZM290-694Zm392-12ZM480-258Z"/></svg>