<svg xmlns="http://www.w3.org/2000/svg" height="20" viewBox="0 -960 960 960" width="20"><path d="M695.85-325.76q53.27 0 90.54 37.61 37.26 37.61 37.26 91.3 0 53.94-37.26 91.2-37.27 37.26-90.54 37.26-39.52 0-72.17-21.64-32.64-21.64-47.4-57.4H306.52L274-92.39q-11.24 17.67-31.12 22.71-19.88 5.05-36.52-6.19-16.16-11-21.52-30.5-5.36-19.5 5.4-36.26l141.85-248.13q-83.72-38.52-129.1-124.08-45.38-85.55-36.9-183.07h642.43q8.24 97.52-37.14 183.07Q726-429.28 643.52-390.76L654.28-369q-23.24 3.76-46.86 19.26-23.62 15.5-37.38 30.5l-21.28-38.56q-15.78 2.76-30.92 4.38-15.15 1.62-30.77 1.62-14.15 0-28.8-1.62-14.64-1.62-30.42-4.38l-62.81 112.37h211.24q14.76-35.53 47.03-57.93 32.26-22.4 72.54-22.4Zm-.97 159.37q12.73 0 21.75-8.93t9.02-21.67q0-12.73-8.81-21.75t-21.54-9.02q-12.73 0-21.76 8.81-9.02 8.81-9.02 21.54 0 12.74 8.81 21.88 8.81 9.14 21.55 9.14ZM487.07-454.15q68.3 0 124.54-38.98 56.24-38.97 79.85-103.2H283.15q23 64.33 79.55 103.25 56.54 38.93 124.37 38.93ZM353.61-759.39q2.24-15.24-3.54-31.74-5.79-16.5-20.35-30.11-16.44-13.96-23.3-39.51-6.85-25.55-.9-54.79h63.68q-3.24 21.24-2.22 33.62 1.02 12.38 8.35 17.96 23.71 21.46 34.69 49.51 10.98 28.06 6.5 55.06h-62.91Zm127.76 0q2.48-16.76-3.54-33.76-6.03-17-19.59-28.09-18.57-18.11-25.24-42.97-6.67-24.86-.72-51.33h63.68q-5.24 19-3.22 32t9.64 19.08q23.66 21.2 34.9 49.66 11.24 28.47 6.76 55.41h-62.67Zm125.76 0q2.48-15.76-4.04-32.88-6.52-17.12-20.09-28.97-16.96-15.72-23.32-40.39-6.35-24.67-.64-53.91h62.68q-4.24 19.24-3.22 32.12 1.02 12.88 9.16 18.96 24.91 21.2 35.5 50.16 10.6 28.97 6.88 54.91h-62.91ZM487.57-454.15Z"/></svg>