<svg xmlns="http://www.w3.org/2000/svg" height="20" width="20"><path d="M6.708 16.667H1.708Q0.917 16.667 0.458 16.135Q0 15.604 0 14.958Q0 14.521 0.208 14.115Q0.417 13.708 0.896 13.458L3.729 11.938L-0.021 10.854L1.688 7.458L9.188 8.292L11.646 6.479L11.021 5.917H9.125V4.167H11.729L17.667 9.667Q18.062 10.042 18.219 10.375Q18.375 10.708 18.375 11.042Q18.375 11.958 17.719 12.646Q17.062 13.333 15.938 13.333H15.667L17.375 14.917H17.5Q17.833 14.917 18.042 14.677Q18.25 14.438 18.25 14.083H20Q20 15.146 19.281 15.906Q18.562 16.667 17.5 16.667H12.458V14.917H14.833L13.25 13.333H10.083Q10.062 14.708 9.083 15.688Q8.104 16.667 6.708 16.667ZM1.875 14.917H6.708Q7.375 14.917 7.844 14.448Q8.312 13.979 8.333 13.312L6.083 12.646L1.875 14.917Q1.875 14.917 1.875 14.917Q1.875 14.917 1.875 14.917Q1.875 14.917 1.875 14.917Q1.875 14.917 1.875 14.917Z"/></svg>