<svg xmlns="http://www.w3.org/2000/svg" height="20" viewBox="0 -960 960 960" width="20"><path d="m168-413.5 91.5-90.5-91.5-91.5L77.5-504l90.5 90.5Zm531.5 3 92.5-163 93 163H699.5Zm-220.23-48q-48.27 0-82.52-34.27Q362.5-527.04 362.5-576q0-48.5 34.27-83T480-693.5q48.5 0 83 34.5t34.5 83.73q0 48.27-34.5 82.52-34.5 34.25-83.73 34.25Zm.73-168q-20.9 0-35.7 14.52-14.8 14.52-14.8 35.98 0 20.9 14.8 35.7 14.8 14.8 35.95 14.8 21.15 0 35.7-14.8 14.55-14.8 14.55-35.95 0-21.15-14.52-35.7Q501.46-626.5 480-626.5Zm0 50.5ZM2.5-252v-24q0-51.87 48.8-76.18Q100.11-376.5 168-376.5q16.05 0 32.03 1.75Q216-373 231.5-370q-17 18-25.75 44.75T197-276v57.5H36q-13.8 0-23.65-9.85Q2.5-238.2 2.5-252Zm240 0v-24q0-58.05 60.33-93.78 60.33-35.72 177.26-35.72 116.91 0 177.16 35.72Q717.5-334.05 717.5-276v24q0 13.8-9.85 23.65-9.85 9.85-23.65 9.85H276q-13.8 0-23.65-9.85-9.85-9.85-9.85-23.65ZM792-376.5q67.5 0 116.5 24.32 49 24.31 49 76.18v24q0 13.8-9.85 23.65-9.85 9.85-23.65 9.85H763V-276q0-22.5-8.25-49.25T728-370q15.5-3 31.44-4.75 15.93-1.75 32.56-1.75Zm-311.98 38q-62.02 0-101.77 11.75Q338.5-315 310.5-285.5h339q-29-29.5-68.25-41.25T480.02-338.5Zm1.48 53Z"/></svg>