<svg xmlns="http://www.w3.org/2000/svg" height="48" width="48"><path d="m9.25 28.45 2.7-2.7-2.7-2.7-2.7 2.7Zm26.7-.3 2.9-4.7 2.95 4.7ZM3.75 34.9q-.45 0-.8-.35-.35-.35-.35-.8 0-1.65 1.775-2.775T9.15 29.85q.5 0 1.025.025.525.025.975.125-.25.65-.4 1.35-.15.7-.15 1.45v2.1Zm12.2 0q-.6 0-.975-.4t-.375-.95V33q0-2.25 2.575-3.575Q19.75 28.1 24 28.1t6.825 1.325Q33.4 30.75 33.4 33v.55q0 .55-.375.95-.375.4-.975.4Zm21.45 0v-2.1q0-.75-.125-1.45T36.85 30q.45-.1.975-.125.525-.025 1.025-.025 2.95 0 4.75 1.125 1.8 1.125 1.8 2.775 0 .45-.35.8-.35.35-.8.35ZM24 29.2q-3.95 0-6.225 1.1-2.275 1.1-2.125 2.95v.55H32.4v-.6q.1-1.75-2.175-2.875T24 29.2Zm0-2.6q-1.6 0-2.75-1.15T20.1 22.7q0-1.65 1.15-2.775T24 18.8q1.65 0 2.775 1.125T27.9 22.7q0 1.6-1.125 2.75T24 26.6Zm0-6.7q-1.2 0-2 .775t-.8 2.025q0 1.2.775 2t2.025.8q1.25 0 2.025-.775.775-.775.775-2.025t-.775-2.025Q25.25 19.9 24 19.9Zm0 13.9Zm0-11.1Z"/></svg>