<svg xmlns="http://www.w3.org/2000/svg" height="24" width="24"><path d="M12 17.7Q14.375 17.7 16.038 16.038Q17.7 14.375 17.7 12Q17.7 9.625 16.038 7.963Q14.375 6.3 12 6.3Q9.625 6.3 7.963 7.963Q6.3 9.625 6.3 12Q6.3 14.375 7.963 16.038Q9.625 17.7 12 17.7ZM8.8 13.375V10.625H15.2V13.375ZM12 22.85Q9.75 22.85 7.775 22Q5.8 21.15 4.325 19.675Q2.85 18.2 2 16.225Q1.15 14.25 1.15 12Q1.15 9.75 2 7.775Q2.85 5.8 4.325 4.325Q5.8 2.85 7.775 2Q9.75 1.15 12 1.15Q14.25 1.15 16.225 2Q18.2 2.85 19.675 4.325Q21.15 5.8 22 7.775Q22.85 9.75 22.85 12Q22.85 14.25 22 16.225Q21.15 18.2 19.675 19.675Q18.2 21.15 16.225 22Q14.25 22.85 12 22.85ZM12 12Q12 12 12 12Q12 12 12 12Q12 12 12 12Q12 12 12 12Q12 12 12 12Q12 12 12 12Q12 12 12 12Q12 12 12 12ZM12 19.7Q15.2 19.7 17.45 17.45Q19.7 15.2 19.7 12Q19.7 8.8 17.45 6.55Q15.2 4.3 12 4.3Q8.8 4.3 6.55 6.55Q4.3 8.8 4.3 12Q4.3 15.2 6.55 17.45Q8.8 19.7 12 19.7Z"/></svg>