<svg xmlns="http://www.w3.org/2000/svg" height="20" width="20"><path d="M14.083 19.167v-1.334q1.563 0 2.657-1.093 1.093-1.094 1.093-2.657h1.334q0 2.105-1.49 3.594-1.489 1.49-3.594 1.49ZM.833 5.917q0-2.105 1.49-3.594Q3.812.833 5.917.833v1.334q-1.563 0-2.657 1.093-1.093 1.094-1.093 2.657Zm1.938 11.312q-1-1-1.511-2.291-.51-1.292-.51-2.636t.51-2.635q.511-1.292 1.511-2.292l3.833-3.833q.354-.354.813-.354.458 0 .812.333.313.312.313.802 0 .489-.313.802L4.896 8.458q.916.792 1 1.865.083 1.073-.708 1.969l.458.458q.854-.854.896-2.104.041-1.25-.73-2.167l6.396-6.417q.334-.333.802-.333.469 0 .802.333.313.355.334.803.021.447-.334.802l-4.5 4.5.438.458 5.688-5.687q.312-.313.802-.313.489 0 .802.313.312.312.312.802 0 .489-.312.802l-5.688 5.687.479.459 4.792-4.792q.333-.334.802-.334.469 0 .802.334.313.312.313.802 0 .49-.313.802l-5.396 5.375.459.479 3.625-3.625q.354-.354.802-.354.448 0 .802.354.354.354.354.802 0 .448-.354.802l-5.896 5.896q-1 1-2.292 1.511-1.291.51-2.635.51-1.344 0-2.636-.51-1.291-.511-2.291-1.511Z"/></svg>