<svg xmlns="http://www.w3.org/2000/svg" height="24" width="24"><path d="M19.425 18.825Q19.025 18.825 18.75 18.55Q18.475 18.275 18.475 17.9V5.075Q18.475 4.7 18.75 4.425Q19.025 4.15 19.4 4.15Q19.8 4.15 20.075 4.425Q20.35 4.7 20.35 5.075V17.9Q20.35 18.275 20.075 18.55Q19.8 18.825 19.425 18.825ZM4.6 18.825Q4.2 18.825 3.925 18.55Q3.65 18.275 3.65 17.9V14.025Q3.65 13.65 3.925 13.375Q4.2 13.1 4.575 13.1Q4.975 13.1 5.25 13.375Q5.525 13.65 5.525 14.025V17.9Q5.525 18.275 5.25 18.55Q4.975 18.825 4.6 18.825ZM15.475 6.025Q15.075 6.025 14.8 5.75Q14.525 5.475 14.525 5.075Q14.525 4.7 14.8 4.425Q15.075 4.15 15.475 4.15Q15.85 4.15 16.125 4.425Q16.4 4.7 16.4 5.075Q16.4 5.475 16.125 5.75Q15.85 6.025 15.475 6.025ZM11.525 8.775Q11.15 8.775 10.875 8.512Q10.6 8.25 10.6 7.85V6.175Q10.6 5.8 10.863 5.525Q11.125 5.25 11.525 5.25Q11.9 5.25 12.175 5.525Q12.45 5.8 12.45 6.175V7.85Q12.45 8.25 12.188 8.512Q11.925 8.775 11.525 8.775ZM8.5 13.725Q8.125 13.725 7.85 13.45Q7.575 13.175 7.575 12.775V10.95Q7.575 10.55 7.85 10.287Q8.125 10.025 8.5 10.025Q8.9 10.025 9.175 10.287Q9.45 10.55 9.45 10.95V12.775Q9.45 13.175 9.175 13.45Q8.9 13.725 8.5 13.725Z"/></svg>