<svg xmlns="http://www.w3.org/2000/svg" height="24" viewBox="0 -960 960 960" width="24"><path d="M186.12-180q-19.88 0-33-12.5Q140-205 140-225v-119q0-20 13.12-32.5t33-12.5q19.88 0 32.38 12.5Q231-364 231-344v119q0 20-12.5 32.5T186.12-180Zm196-235q-19.88 0-33.5-13.58Q335-442.17 335-462v-78q0-20 13.12-32.5t33-12.5Q401-585 414-572q13 13 13 33v79q0 20-12.5 32.5T382.12-415Zm195.76-196q-19.88 0-33.38-13.58Q531-638.17 531-658v-76q0-19.83 13.12-32.92 13.12-13.08 33-13.08 19.88 0 33.38 13.58Q624-752.83 624-733v76q0 19.83-13.12 32.92-13.12 13.08-33 13.08Zm196 431q-19.88 0-33.38-13.08Q727-206.17 727-226v-508q0-19.83 13.12-32.92 13.12-13.08 33-13.08 19.88 0 33.38 13.08Q820-753.83 820-734v508q0 19.83-13.12 32.92-13.12 13.08-33 13.08Z"/></svg>