<svg xmlns="http://www.w3.org/2000/svg" height="40" width="40"><path d="M18.375 29.167q-4.375 0-7.542-3.105-3.166-3.104-3.166-7.437V8q0-.792.604-1.396Q8.875 6 9.667 6h20.541q2 0 3.417 1.396 1.417 1.396 1.417 3.396t-1.417 3.396q-1.417 1.395-3.417 1.395h-1.083v3.042q0 4.333-3.167 7.437-3.166 3.105-7.583 3.105ZM9.667 13.583h17.458V8H9.667Zm8.708 13.584q3.625 0 6.187-2.521 2.563-2.521 2.563-6.021v-3.042H9.667v3.042q0 3.5 2.562 6.021 2.563 2.521 6.146 2.521Zm10.75-13.584h1.083q1.167 0 2-.812.834-.813.834-1.979 0-1.167-.834-1.98-.833-.812-2-.812h-1.083ZM8.667 34q-.417 0-.709-.292-.291-.291-.291-.708t.291-.708Q8.25 32 8.667 32H30.75q.375 0 .688.292.312.291.312.708t-.312.708q-.313.292-.688.292Zm9.75-18.417Z"/></svg>