<svg xmlns="http://www.w3.org/2000/svg" height="48" width="48"><path d="M29.5 44.3Q25.05 44.3 21.05 42.65Q17.05 41 14.05 38.2Q11.05 35.4 9.3 31.625Q7.55 27.85 7.55 23.6Q7.55 19.35 9.3 15.575Q11.05 11.8 14.05 8.975Q17.05 6.15 21.05 4.5Q25.05 2.85 29.5 2.85Q31.9 2.85 34.125 3.425Q36.35 4 38.45 5Q33.8 8.3 30.925 13.1Q28.05 17.9 28.05 23.6Q28.05 29.3 30.925 34.1Q33.8 38.9 38.45 42.15Q36.35 43.15 34.125 43.725Q31.9 44.3 29.5 44.3ZM29.5 40.9Q30.15 40.9 30.75 40.9Q31.35 40.9 31.7 40.85Q28.45 37.2 26.55 32.8Q24.65 28.4 24.65 23.6Q24.65 18.8 26.55 14.4Q28.45 10 31.7 6.3Q31.35 6.25 30.725 6.25Q30.1 6.25 29.5 6.25Q21.9 6.25 16.425 11.325Q10.95 16.4 10.95 23.6Q10.95 30.8 16.425 35.85Q21.9 40.9 29.5 40.9ZM21.35 23.55Q21.35 23.55 21.35 23.55Q21.35 23.55 21.35 23.55Q21.35 23.55 21.35 23.55Q21.35 23.55 21.35 23.55Q21.35 23.55 21.35 23.55Q21.35 23.55 21.35 23.55Q21.35 23.55 21.35 23.55Q21.35 23.55 21.35 23.55Q21.35 23.55 21.35 23.55Q21.35 23.55 21.35 23.55Q21.35 23.55 21.35 23.55Q21.35 23.55 21.35 23.55Z"/></svg>