<svg xmlns="http://www.w3.org/2000/svg" height="20" width="20"><path d="M10 17.938q-.208 0-.417-.094-.208-.094-.395-.282l-9.292-9.27q-.354-.354-.365-.834-.01-.479.344-.77Q1.958 4.75 4.562 3.729 7.167 2.708 10 2.708q2.833 0 5.437 1.021 2.605 1.021 4.688 2.959.354.291.344.77-.011.48-.365.834l-.083.083h-3.209q-1.895 0-3.239 1.365-1.344 1.364-1.344 3.218v3.209l-1.417 1.416q-.166.188-.374.271-.209.084-.438.084Zm5.292-.063q-.313 0-.542-.219-.229-.218-.229-.552v-2.937q0-.334.219-.542.218-.208.552-.208h.041v-.855q0-.75.542-1.27.542-.521 1.292-.521t1.291.521q.542.52.542 1.27v.855h.062q.334 0 .553.208.218.208.218.542v2.958q0 .313-.229.531-.229.219-.542.219Zm1.041-4.458H18v-.855q0-.354-.24-.593-.239-.24-.593-.24-.355 0-.594.24-.24.239-.24.593Z"/></svg>