<svg xmlns="http://www.w3.org/2000/svg" height="24" viewBox="0 -960 960 960" width="24"><path d="M284.89-558.09ZM480.72-71.87q-34.48 0-59.04-24.55-24.55-24.56-24.55-59.04v-156.41q0-53.03 20.08-98.27 20.07-45.23 54.46-78.19l48.03 48.03q-25.96 24.76-40.56 57.35-14.6 32.6-14.6 71.08v40h54.5q19.16 0 32.33 13.17 13.17 13.18 13.17 32.33v109q0 19.15-13.17 32.33-13.17 13.17-32.33 13.17h-38.32Zm-163.59-80H162.87q-37.78 0-64.39-26.61t-26.61-64.39v-554.26h91v554.26h154.26v91Zm278.78-331-53.17-53.17q22.52-10.29 47.67-15.81 25.14-5.52 52.22-5.52 102.15 0 173.83 71.67 71.67 71.68 71.67 173.83v121.22l-67.41-67.42v-53.8q0-74.2-51.94-126.14-51.95-51.95-126.15-51.95-12.37 0-23.74 1.64-11.37 1.65-22.98 5.45ZM317.13-283.39q-49.33-8.72-82.27-46.5-32.95-37.78-32.95-90.11 0-57.21 40.44-97.65 40.44-40.44 97.65-40.44 19.24 0 36.74 4.74 17.5 4.74 32.74 13.98-14 14.76-26.65 31.1-12.65 16.34-22.77 34.18-5.06-2-10.06-3-5-1-10-1-24.2 0-41.14 16.95-16.95 16.94-16.95 41.14 0 19.08 11.17 34.34 11.16 15.27 28.96 20.51-2.71 13.15-3.81 25.93-1.1 12.77-1.1 26.15v29.68Zm-35.48-513.74-91-91h326.48q37.78 0 64.39 26.61t26.61 64.39v161.29q-24.11 1.99-46.86 7.97-22.75 5.98-44.14 15.41v-184.67H281.65Zm128.87 100.8ZM790.8-52.17 52.17-790.8Q40.46-802.52 40.46-820q0-17.48 11.71-29.2 11.72-11.71 29.32-11.71t29.31 11.71l738.63 738.63q11.72 11.72 11.6 29.2-.12 17.48-11.83 29.2-11.72 11.71-29.2 11.71-17.48 0-29.2-11.71Z"/></svg>