<svg xmlns="http://www.w3.org/2000/svg" height="20" viewBox="0 -960 960 960" width="20"><path d="M209-112q-40.7 0-68.85-28.15Q112-168.3 112-209v-480h98v479h479v98H209Zm161-258v98q-41.7 0-69.85-28.15Q272-328.3 272-370h98Zm-98-61v-98h98v98h-98Zm0-160v-98h98v98h-98Zm98-159h-98q0-41.7 28.15-69.85Q328.3-848 370-848v98Zm61 478v-98h98v98h-98Zm0-478v-98h98v98h-98Zm160 0v-98h98v98h-98Zm0 478v-98h98v98h-98Zm159-478v-98q41.7 0 69.85 28.15Q848-791.7 848-750h-98Zm0 380h98q0 41.7-28.15 69.85Q791.7-272 750-272v-98Zm0-61v-98h98v98h-98Zm0-160v-98h98v98h-98Z"/></svg>