<svg xmlns="http://www.w3.org/2000/svg" height="40" width="40"><path d="M20 26.542Q17.208 26.542 15.333 24.667Q13.458 22.792 13.458 20Q13.458 17.208 15.333 15.333Q17.208 13.458 20 13.458Q22.792 13.458 24.667 15.333Q26.542 17.208 26.542 20Q26.542 22.792 24.667 24.667Q22.792 26.542 20 26.542ZM20 20Q20 20 20 20Q20 20 20 20Q20 20 20 20Q20 20 20 20Q20 20 20 20Q20 20 20 20Q20 20 20 20Q20 20 20 20ZM20 23Q21.25 23 22.125 22.125Q23 21.25 23 20Q23 18.75 22.125 17.875Q21.25 17 20 17Q18.75 17 17.875 17.875Q17 18.75 17 20Q17 21.25 17.875 22.125Q18.75 23 20 23ZM4.583 14.833V4.583H14.833V8.125H8.125V14.833ZM14.833 35.417H4.583V25.167H8.125V31.875H14.833ZM25.167 35.417V31.875H31.875V25.167H35.417V35.417ZM31.875 14.833V8.125H25.167V4.583H35.417V14.833Z"/></svg>