<svg xmlns="http://www.w3.org/2000/svg" height="24" width="24"><path d="m6.075 17-1.7 1.7q-.375.375-.875.175t-.5-.75v-13.5q0-.7.463-1.163Q3.925 3 4.625 3H14.6q-.05.25-.062.487-.013.238-.013.513h-9.9q-.275 0-.45.175T4 4.625v12.75L5.375 16h14q.275 0 .45-.175t.175-.45V8.35q.275-.075.525-.162.25-.088.475-.238v7.45q0 .675-.462 1.138-.463.462-1.163.462ZM13 13.5q.225 0 .363-.15.137-.15.137-.35 0-.225-.137-.363-.138-.137-.363-.137H7q-.225 0-.362.15-.138.15-.138.35 0 .225.138.363.137.137.362.137Zm4-3q.225 0 .363-.15.137-.15.137-.35 0-.225-.137-.363Q17.225 9.5 17 9.5H7q-.225 0-.362.15Q6.5 9.8 6.5 10q0 .225.138.363.137.137.362.137Zm-1.7-4H7q-.225 0-.362.15Q6.5 6.8 6.5 7q0 .225.138.362.137.138.362.138h9.45v-.025q-.375-.175-.65-.413-.275-.237-.5-.562ZM4 4.625v12.75V4v.625ZM19 6.45q-1.05 0-1.775-.725Q16.5 5 16.5 3.975q0-1.05.725-1.788Q17.95 1.45 19 1.45q1.05 0 1.775.737.725.738.725 1.763 0 1.05-.725 1.775-.725.725-1.775.725Z"/></svg>