<svg xmlns="http://www.w3.org/2000/svg" height="20" viewBox="0 -960 960 960" width="20"><path d="M273.41-900.63h413.18q30.39 0 45.73 27.91 15.33 27.92-1.86 53.83l-98.39 152.87v127.76H327.93v-127.76l-98.39-152.87q-17.19-25.91-1.86-53.83 15.34-27.91 45.73-27.91Zm54.52 456.54h304.14v53.11H327.93v-53.11Zm0 147.29h304.14v55.47q0 21.11-7.69 40.22-7.68 19.12-23.47 34.81l-84.52 84.28q-7.17 7.42-16.75 11.19-9.59 3.76-19.64 3.76t-19.64-3.76q-9.58-3.77-16.75-11.19l-84.52-84.28q-15.79-15.69-23.47-34.81-7.69-19.11-7.69-40.22v-55.47Z"/></svg>