<svg xmlns="http://www.w3.org/2000/svg" height="48" width="48"><path d="M24 33.65Q24.6 33.65 25.025 33.25Q25.45 32.85 25.45 32.25V27.35H30.25Q30.85 27.35 31.275 26.925Q31.7 26.5 31.7 25.9Q31.7 25.25 31.3 24.85Q30.9 24.45 30.3 24.45H25.45V19.6Q25.45 19.05 25.025 18.625Q24.6 18.2 24 18.2Q23.45 18.2 23.025 18.625Q22.6 19.05 22.6 19.55V24.45H17.8Q17.15 24.45 16.75 24.875Q16.35 25.3 16.35 25.9Q16.35 26.5 16.75 26.925Q17.15 27.35 17.7 27.35H22.6V32.2Q22.6 32.85 23 33.25Q23.4 33.65 24 33.65ZM24 43.65Q20.35 43.65 17.125 42.275Q13.9 40.9 11.5 38.5Q9.1 36.1 7.7 32.875Q6.3 29.65 6.3 25.95Q6.3 22.25 7.7 19.025Q9.1 15.8 11.5 13.4Q13.9 11 17.125 9.6Q20.35 8.2 24 8.2Q27.65 8.2 30.9 9.6Q34.15 11 36.55 13.4Q38.95 15.8 40.35 19.025Q41.75 22.25 41.75 25.95Q41.75 29.65 40.35 32.875Q38.95 36.1 36.55 38.5Q34.15 40.9 30.9 42.275Q27.65 43.65 24 43.65ZM24 26Q24 26 24 26Q24 26 24 26Q24 26 24 26Q24 26 24 26Q24 26 24 26Q24 26 24 26Q24 26 24 26Q24 26 24 26ZM5.85 13.7Q5.4 14.1 4.825 14.1Q4.25 14.1 3.8 13.65Q3.35 13.2 3.35 12.625Q3.35 12.05 3.8 11.65L9.85 5.85Q10.3 5.45 10.875 5.45Q11.45 5.45 11.9 5.85Q12.3 6.3 12.3 6.9Q12.3 7.5 11.85 7.9ZM42.2 13.65 36.15 7.85Q35.75 7.45 35.725 6.875Q35.7 6.3 36.1 5.9Q36.5 5.5 37.1 5.5Q37.7 5.5 38.15 5.85L44.2 11.7Q44.6 12.1 44.625 12.65Q44.65 13.2 44.25 13.65Q43.85 14.05 43.25 14.05Q42.65 14.05 42.2 13.65ZM24 40.75Q30.2 40.75 34.525 36.45Q38.85 32.15 38.85 25.9Q38.85 19.75 34.525 15.4Q30.2 11.05 24 11.05Q17.8 11.05 13.475 15.4Q9.15 19.75 9.15 25.95Q9.15 32.15 13.475 36.45Q17.8 40.75 24 40.75Z"/></svg>