<svg xmlns="http://www.w3.org/2000/svg" height="24" viewBox="0 -960 960 960" width="24"><path d="M382-683h181v-51q0-42-26.58-68-26.57-26-64.54-26-37.55 0-63.71 25.92Q382-776.17 382-734v51ZM243-32q-55.73 0-95.86-39.44Q107-110.88 107-168v-379q0-57.13 40.14-96.56Q187.27-683 243-683h3v-51q0-98.98 66.19-164.49T472-964q93.62 0 160.31 65.78Q699-832.45 699-734v51h3q55.72 0 95.86 39.44Q838-604.13 838-547v-8q0 34-21.14 51-21.13 17-46.5 17Q744-487 723-504t-21-51v8H243v379h197q27.95 0 47.48 19.5Q507-129 507-100.5T487.48-52Q467.95-32 440-32H243ZM756.96 1Q670 1 608-61.04q-62-62.04-62-149Q546-297 608.04-359q62.04-62 149-62Q844-421 906-358.96q62 62.04 62 149Q968-123 905.96-61q-62.04 62-149 62ZM785-221.42v-97.86q0-11.52-8-19.62-8-8.1-20-8.1t-20.5 8.2q-8.5 8.19-8.5 20.07V-226q0 14 5 26.21 5 12.22 14 20.79l56 57q8.82 8 19.91 7.5T843-123q8-9 8-20t-8-20l-58-58.42ZM243-547v379-379Z"/></svg>