<svg xmlns="http://www.w3.org/2000/svg" height="24" viewBox="0 -960 960 960" width="24"><path d="M637.44-330q51.94 0 87.5 35.56t35.56 87.5q0 51.94-35.56 87.69t-87.5 35.75q-38.44 0-69.69-20.75T523.5-161H281l-38 57.5q-10.5 16-29.45 19.5-18.94 3.5-35.05-8-15-10.5-18.5-28.95-3.5-18.44 7-33.55l143.5-221Q249-403 206.75-464.25T150.5-596q-2-26 15.5-44.75t43.5-18.75h462q26 0 43.5 18.75T730.5-596q-13.5 70.5-55.75 131.75T571-375.5l12.5 19q-24 7-42.75 21.75T509.5-302.5L480-347q-13.5 2-21.92 2h-34.66q-8.42 0-21.92-2L339-252h184.5q13-36 44.25-57t69.69-21Zm.06 155.5q14.21 0 23.36-9.14Q670-192.79 670-207q0-14.21-9.14-23.36-9.15-9.14-23.36-9.14-14.21 0-23.36 9.14Q605-221.21 605-207q0 14.21 9.14 23.36 9.15 9.14 23.36 9.14ZM440.5-450q53.25 0 98.62-27.75Q584.5-505.5 610-553.5H271.5q25 48 70.38 75.75Q387.26-450 440.5-450ZM299-793.5q-20-23-29.75-46.46t-7.75-50.79q1-11.75 9.57-19.5 8.56-7.75 19.96-7.75 10.47 0 17.22 8.35Q315-901.3 315-890.5q-1 18 4.25 32t16.25 26.76q20 22.74 29.25 46.59Q374-761.31 373-735.5q.07 12.36-9.03 20.43t-21.5 8.07q-10.47 0-17.22-8.5-6.75-8.5-5.75-19.44 1-17.83-4.25-31.7Q310-780.5 299-793.5Zm113-.24q-20-22.75-30-46.5-10-23.76-8.5-51.26 1.5-11.5 9.57-19 8.06-7.5 20.46-7.5 10.47 0 16.97 8.28 6.5 8.27 6.5 18.97-1 17.25 4.25 31.5t16.25 27.75q20 23.5 29.25 47.5t8.34 48.87q.05 11.61-9.17 19.87-9.22 8.26-21.79 8.26-10.63 0-16.63-8-6-8-5-19 1-18-3.75-32.5T412-793.74Zm112 .24q-20-23.5-29.75-46.89T486.5-891q1-11.57 9.67-19.29 8.68-7.71 21.23-7.71 10.6 0 16.1 8.28 5.5 8.27 5.5 18.97-1 17.25 4.25 31.5t16.25 27.75q20 23.5 29.25 47.5t8.34 48.87q.05 11.61-8.67 19.87-8.72 8.26-21.29 8.26-10.63 0-17.13-8.5-6.5-8.5-5.5-19.5 1-18-4.25-32T524-793.5ZM440.5-450Z"/></svg>