<svg xmlns="http://www.w3.org/2000/svg" height="40" viewBox="0 -960 960 960" width="40"><path d="m228.83-248.22 262.83 105.05v-568.94L228.83-817.16v568.94Zm-24.84 65.67q-21.34-8.23-33.5-26.2t-12.16-40.83v-560.01q0-30.18 20.99-51.38 21-21.2 51.43-21.2l284.16 104.04q21.12 7.64 34.19 26.29 13.07 18.65 13.07 40.92v564.88q0 38.75-31.91 60.14-31.9 21.39-67.43 6.89L203.99-182.55Zm287.67-15.78v-70.5h240v-542.83H230.75v-70.51h498.84q30.18 0 51.38 21.2 21.2 21.2 21.2 51.38v538.84q0 30.43-21.2 51.43-21.2 20.99-51.38 20.99H491.66Zm-262.83-49.89v-568.94 568.94Z"/></svg>