<svg xmlns="http://www.w3.org/2000/svg" height="48" viewBox="0 -960 960 960" width="48"><path d="M651.75-694.5q18.25 0 32-13.75t13.75-32q0-18.25-13.79-32T652-786q-18.5 0-32.25 13.79T606-740.5q0 18.5 13.75 32.25t32 13.75Zm-171.75 0q18.5 0 32.25-13.75t13.75-32q0-18.25-13.75-32T480-786q-18.5 0-32 13.86t-13.5 31.89q0 18.03 13.5 31.89t32 13.86Zm-171.75 0q18.25 0 32-13.75t13.75-32q0-18.25-13.79-32T308.5-786q-18.5 0-32.25 13.79T262.5-740.5q0 18.5 13.75 32.25t32 13.75ZM191-625v434h578v-434H191Zm188.5 145h202v-68.5h-202v68.5ZM99.5-99.5v-762h762v762h-762ZM480-625Zm0 0Z"/></svg>