<svg xmlns="http://www.w3.org/2000/svg" height="40" viewBox="0 -960 960 960" width="40"><path d="M152.32-144.17q-36.94 0-62.54-25.61-25.61-25.6-25.61-62.54v-495.36q0-37.1 25.61-62.81 25.6-25.71 62.54-25.71h655.36q37.1 0 62.81 25.71t25.71 62.81v495.36q0 36.94-25.71 62.54-25.71 25.61-62.81 25.61H152.32Zm0-88.15h655.36v-495.36H152.32v495.36Zm224.9-144.03q14.24 12.38 29.84 21.36 15.59 8.98 32.85 14.58l3.97 21.3q1.87 12.05 10.32 19.41 8.45 7.37 20.47 7.37h10.66q12.14 0 20.93-7.5 8.79-7.49 10.99-19.22l3.14-21.3q16.96-5.66 32.89-14.64 15.92-8.98 29.5-21.36l20.43 9q10.44 4.67 21.24 1.52 10.8-3.14 17.01-13.18l4.67-8.17q6.33-9.57 4.69-20.8-1.65-11.22-10.12-18.82l-20.67-17.85q3.62-17.86 3.62-35.35 0-17.49-3.62-35.35l20.67-18.23q8.43-7.08 10.43-18.37 2-11.29-4.33-21.33l-5.1-8.08q-6.71-9.67-17.38-12.81-10.67-3.15-21.11 1.14l-20.43 9q-13.58-12-29.5-20.98-15.93-8.98-32.94-14.9l-3.84-20.98q-2.25-12.05-10.7-19.41-8.45-7.37-20.47-7.37h-10.66q-12.14 0-20.93 7.5-8.79 7.49-10.61 19.37l-3.14 20.86q-17.34 5.95-32.93 14.93-15.6 8.98-29.84 20.98l-20.43-9q-10.44-4.29-21.24-1.14-10.8 3.14-17.01 12.94l-4.67 8.24q-6.33 9.63-4.69 20.94 1.65 11.31 10.5 18.47l20.67 18.36q-4 17.57-4 35.14t4 35.43l-20.67 17.85q-8.81 7.53-10.81 18.74-2 11.21 4.33 21.18l5.48 7.87q6.33 10.04 17 13.18 10.67 3.15 21.11-1.52l20.43-9ZM480-403.33q-31.85 0-54.26-22.41-22.41-22.41-22.41-54.26 0-31.85 22.41-54.44 22.41-22.6 54.26-22.6 31.85 0 54.44 22.6 22.6 22.59 22.6 54.44 0 31.85-22.6 54.26-22.59 22.41-54.44 22.41ZM152.32-232.32v-495.36 495.36Z"/></svg>