<svg xmlns="http://www.w3.org/2000/svg" height="20" width="20"><path d="M16.708 17.646q-3.02-.146-5.573-1.281-2.552-1.136-4.458-3.042-1.906-1.906-3.031-4.479-1.125-2.573-1.313-5.573.021-.396.302-.667.282-.271.636-.271h2.167q.395 0 .677.282.281.281.302.677.021.708.135 1.323.115.614.26 1.218.042.271-.031.584-.073.312-.26.521L4.708 8.75q1.167 2.396 2.688 3.958 1.521 1.563 3.771 2.584l1.875-1.875q.187-.188.5-.271.312-.084.604-.042.666.167 1.302.281.635.115 1.24.157.416.02.697.302.282.281.282.677v2.187q0 .417-.282.688-.281.271-.677.25Zm-4.146-2q.876.312 1.782.489t1.885.282q.083.021.156-.052t.073-.177v-1.209q0-.083-.073-.156t-.156-.073q-.687 0-1.198-.135-.51-.136-.948-.24-.104-.042-.208-.021t-.167.104Zm3.896-5.458q0-2.75-1.958-4.709-1.958-1.958-4.688-1.958V2.312q1.626 0 3.053.626 1.427.624 2.5 1.687 1.073 1.063 1.687 2.5.615 1.437.615 3.063Zm-3.333 0q0-1.396-.969-2.365-.968-.969-2.344-.969V5.646q1.896 0 3.209 1.323 1.312 1.323 1.312 3.219Zm-8.75-2.771 1.146-1.125q.062-.063.094-.167.031-.104-.011-.208-.146-.542-.239-1.073-.094-.532-.136-1.073-.021-.083-.083-.156-.063-.073-.167-.073H3.771q-.063 0-.136.073-.073.073-.073.156.126.917.303 1.812.177.896.51 1.834Zm0 0Zm8.187 8.229Z"/></svg>