<svg xmlns="http://www.w3.org/2000/svg" height="40" viewBox="0 -960 960 960" width="40"><path d="M355.33-72.33v-42.23q0-36.61 25.5-61.19t62.5-26.25v-274q-23.5-7.17-42.7-21.33-19.2-14.17-31.3-36l-96 23.33q-37.92 9.33-71.38-10.42-33.45-19.75-46.95-56.91L356-626q8.57-40.44 38.87-68.07 30.31-27.64 71.13-33.26l29-104.34q11.33-38.66 45.51-60.33 34.17-21.67 71.82-9.67l-56 198.34q26.52 17.3 40.26 44.88 13.74 27.59 13.74 59.48 0 11.47-2.08 23.97-2.08 12.5-7.92 23.33L677-471.33q26.17 29.16 27.17 67.83t-24.5 68.17l-143.34-148q-3.66 3.16-7.58 5.25-3.92 2.08-8.75 2.07V-202q37 1.67 62.83 26.45 25.84 24.79 25.84 60.88v42.34H355.33Zm126-461q27.67 0 46.5-18.84 18.84-18.83 18.84-46.5 0-27.66-18.84-46.5Q509-664 481.33-664q-27.66 0-46.5 18.83Q416-626.33 416-598.67q0 27.67 18.83 46.5 18.84 18.84 46.5 18.84Z"/></svg>