<svg xmlns="http://www.w3.org/2000/svg" height="40" viewBox="0 -960 960 960" width="40"><path d="m357.67-52-20-135.67q-12.34-4-23.34-10.33T293-212.67l-126.33 57-124-218 113-83.33q-.67-6.33-1-11.5-.34-5.17-.34-11.5t.34-11.5q.33-5.17 1-11.5l-113-84 124-216L295-747q9.67-7.67 20.33-13.5 10.67-5.83 22.34-9.83l20-138.34h244.66l20 137.67q12.34 4.67 23.67 10.17 11.33 5.5 21 13.83l127-56 123.33 216L862-547.67q-32.33-18.33-67.33-26.5-35-8.16-72.34-8.16-34.33 0-67.66 7.83-33.34 7.83-64.67 22.83-18.33-28.66-48-45.16-29.67-16.5-63.67-16.5-56 0-94.66 39Q345-535.33 345-480q0 40.33 22.83 73 22.84 32.67 59.5 49.67-5.66 18.33-8.66 36.83t-3 36.83q0 66.34 25.5 126.5Q466.67-97 516-52H357.67Zm323.66-4.67Q611-69 561.17-118.83 511.33-168.67 499-239h79.33q10.34 37.33 37.67 65 27.33 27.67 65.33 38v79.33Zm76.67.34V-135q48-11.67 78.5-51.17t30.5-91.5q0-51-30.5-90.16Q806-407 758-419.33V-498q79.67 13.33 133.17 75 53.5 61.67 53.5 145.33 0 83.67-53.5 145.84-53.5 62.16-133.17 75.5ZM500-315.67q12.33-70.33 61.67-120 49.33-49.66 119.66-62v79.34q-38 10.33-64.83 38-26.83 27.66-37.17 64.66H500Zm174.67 129v-181l139.33 90-139.33 91Z"/></svg>