<svg xmlns="http://www.w3.org/2000/svg" height="40" viewBox="0 -960 960 960" width="40"><path d="M370.79-334.21q-15.48 0-26.03-10.53t-10.55-26.1v-61.36q0-4.74 3.32-8.56 3.33-3.82 8.55-4.8 10.73-3.56 17.65-12.96 6.92-9.41 6.92-21.48 0-12.08-6.92-21.48-6.92-9.41-17.71-12.97-5.08-.97-8.45-4.84-3.36-3.88-3.36-9.15v-60.67q0-15.39 10.47-26.04 10.47-10.64 25.95-10.64h218.58q15.48 0 26.03 10.52 10.55 10.53 10.55 26.09v60.96q0 5.23-3.39 9.06-3.4 3.82-8.06 4.78-11.11 3.57-18.05 12.95-6.94 9.39-6.94 21.43 0 12.06 6.94 21.46 6.94 9.39 18.05 12.97 4.66.98 8.06 4.93 3.39 3.94 3.39 8.66v61.17q0 15.52-10.47 26.06t-25.96 10.54H370.79ZM480-389.14q7.22 0 12.86-5.37 5.63-5.37 5.63-12.59 0-7.23-5.57-12.86-5.56-5.63-12.92-5.63-7.22 0-12.59 5.57-5.37 5.56-5.37 12.92 0 7.22 5.37 12.59t12.59 5.37Zm0-72.9q7.22 0 12.86-5.37 5.63-5.37 5.63-12.59t-5.57-12.86q-5.56-5.63-12.92-5.63-7.22 0-12.59 5.57-5.37 5.56-5.37 12.92 0 7.22 5.37 12.59t12.59 5.37Zm0-72.9q7.22 0 12.86-5.36 5.63-5.37 5.63-12.6 0-7.22-5.57-12.85-5.56-5.63-12.92-5.63-7.22 0-12.59 5.56-5.37 5.57-5.37 12.92 0 7.23 5.37 12.6 5.37 5.36 12.59 5.36ZM283.9-64.74q-24.52 0-42.31-17.8-17.79-17.79-17.79-42.3v-710.32q0-24.51 17.79-42.3 17.79-17.8 42.31-17.8h392.2q24.52 0 42.31 17.8 17.79 17.79 17.79 42.3v710.32q0 24.51-17.79 42.3-17.79 17.8-42.31 17.8H283.9Zm-12.22-141.85h416.64v-546.82H271.68v546.82Z"/></svg>