<svg xmlns="http://www.w3.org/2000/svg" height="40" viewBox="0 -960 960 960" width="40"><path d="M332.82-233.85h294.51q10 0 16.93-6.53 6.92-6.54 7.69-16.54l21.67-278.46H286.46l21.75 278.46q.25 10 7.43 16.54 7.18 6.53 17.18 6.53Zm-48.97-335.38h391.87l6.9-83.28-115.8-113.64H393.18l-115.8 113.64 6.47 83.28Zm-31.54 33.02L118.82-664.72q-4.64-4.79-4.64-11.28 0-6.49 4.02-12.05 4.8-5.57 11.75-6.33 6.95-.77 12.51 4.79l106.67 102.36-3.9-48.51q-1.44-13.16 3.14-25.34t13.73-21.33L361-782.64q8.23-7.72 19.19-12.54 10.96-4.82 22.76-4.82h154.1q11.8 0 22.76 4.82T599-782.64l98.9 100.23q9.15 9.15 13.47 21.12 4.32 11.96 3.4 25.11l-3.9 48.95 106.67-102.36q5.56-5.56 12.51-4.79 6.95.76 11.75 6.33 4.02 5.56 4.02 12.05 0 6.49-4.64 11.28L707.69-536.21H252.31ZM627.18-200H332.82q-22.67 0-39.82-15.69t-18.64-38.36l-22.05-282.16h455.38l-22.05 282.16q-1.49 22.67-18.64 38.36Q649.85-200 627.18-200ZM480-569.23Zm.08 33.85Z"/></svg>