<svg xmlns="http://www.w3.org/2000/svg" version="1.1" width="3300" height="2000"><g id="Notes"><style>
    text {
      font-family: monospace;
      text-anchor: middle;
    }
    text.emphasis {
      font-weight:bold;
    }
    text.lanchor {
      text-anchor: start;
    }
  </style><rect height="2200" id="artboard" fill="white" width="3300" x="0" y="0"/><line id="" style="fill:none;stroke:black;stroke-width:0.5;" x1="263" x2="3036" y1="292" y2="292"/><text class="lanchor emphasis" transform="matrix(1 0 0 1 263 322)">Weight/Scale Variations</text><text transform="matrix(1 0 0 1 559.711 322)">Ultralight</text><text transform="matrix(1 0 0 1 856.422 322)">Thin</text><text transform="matrix(1 0 0 1 1153.13 322)">Light</text><text transform="matrix(1 0 0 1 1449.84 322)">Regular</text><text transform="matrix(1 0 0 1 1746.56 322)">Medium</text><text transform="matrix(1 0 0 1 2043.27 322)">Semibold</text><text transform="matrix(1 0 0 1 2339.98 322)">Bold</text><text transform="matrix(1 0 0 1 2636.69 322)">Heavy</text><text transform="matrix(1 0 0 1 2933.4 322)">Black</text><text id="template-version" style="text-anchor: end;" transform="matrix(1 0 0 1 3036 1933)">Template v.1.0</text><text class="lanchor" transform="matrix(1 0 0 1 263 726)">Small</text><text class="lanchor" transform="matrix(1 0 0 1 263 1156)">Medium</text><text class="lanchor" transform="matrix(1 0 0 1 263 1586)">Large</text></g><g id="Guides"><g id="H-reference" style="fill:#27AAE1;stroke:none;" transform="matrix(1 0 0 1 339 696)"><path d="M 54.9316 0 L 57.666 0 L 30.5664 -70.459 L 28.0762 -70.459 L 0.976562 0 L 3.66211 0 L 12.9395 -24.4629 L 45.7031 -24.4629 Z M 29.1992 -67.0898 L 29.4434 -67.0898 L 44.8242 -26.709 L 13.8184 -26.709 Z"/></g><line id="Baseline-S" style="fill:none;stroke:#27AAE1;opacity:1;stroke-width:0.577;" x1="263" x2="3036" y1="696" y2="696"/><line id="Capline-S" style="fill:none;stroke:#27AAE1;opacity:1;stroke-width:0.577;" x1="263" x2="3036" y1="625.541" y2="625.541"/><g id="H-reference" style="fill:#27AAE1;stroke:none;" transform="matrix(1 0 0 1 339 1126)"><path d="M 54.9316 0 L 57.666 0 L 30.5664 -70.459 L 28.0762 -70.459 L 0.976562 0 L 3.66211 0 L 12.9395 -24.4629 L 45.7031 -24.4629 Z M 29.1992 -67.0898 L 29.4434 -67.0898 L 44.8242 -26.709 L 13.8184 -26.709 Z"/></g><line id="Baseline-M" style="fill:none;stroke:#27AAE1;opacity:1;stroke-width:0.577;" x1="263" x2="3036" y1="1126" y2="1126"/><line id="Capline-M" style="fill:none;stroke:#27AAE1;opacity:1;stroke-width:0.577;" x1="263" x2="3036" y1="1055.54" y2="1055.54"/><g id="H-reference" style="fill:#27AAE1;stroke:none;" transform="matrix(1 0 0 1 339 1556)"><path d="M 54.9316 0 L 57.666 0 L 30.5664 -70.459 L 28.0762 -70.459 L 0.976562 0 L 3.66211 0 L 12.9395 -24.4629 L 45.7031 -24.4629 Z M 29.1992 -67.0898 L 29.4434 -67.0898 L 44.8242 -26.709 L 13.8184 -26.709 Z"/></g><line id="Baseline-L" style="fill:none;stroke:#27AAE1;opacity:1;stroke-width:0.577;" x1="263" x2="3036" y1="1556" y2="1556"/><line id="Capline-L" style="fill:none;stroke:#27AAE1;opacity:1;stroke-width:0.577;" x1="263" x2="3036" y1="1485.54" y2="1485.54"/><rect height="119.336" id="left-margin" style="fill:darkred;stroke:none;opacity:0.4;" width="12.4512" x="1394.06" y="1030.79"/><rect height="119.336" id="right-margin" style="fill:darkgreen;stroke:none;opacity:0.4;" width="12.4512" x="1502.5112" y="1030.79"/><rect x="1406.5112" y="1045" width="96" height="96" fill="none" stroke="blue" stroke-dasharray="5"/><rect x="1394.06" y="1030.79" width="120.9024" height="119.336" fill="none" stroke="blue"/></g><g id="Symbols"><g id="Bold-L" transform="matrix(1 0 0 1 2266 1556)"><path d="M77.4 32.656 Q53.411 26.559 37.832 4.936 Q22.253 -16.688 22.253 -42.127 V-82.802 L77.4 -103.439 L132.709 -82.879 V-56.192 H117.874 V-72.64 L77.4 -87.797 L36.926 -72.582 V-42.307 Q36.926 -21.791 48.375 -5.533 Q59.824 10.726 77.319 17.66 Q80.303 16.693 82.641 15.483 Q84.979 14.274 87.398 12.823 Q88.871 16.007 91.359 18.848 Q93.847 21.691 96.75 24.11 Q91.959 27.174 87.341 29.431 Q82.721 31.689 77.4 32.656 Z M107.673 32.656  104.848 17.944 Q98.524 13.79 94.976 7.158 Q91.429 0.526 91.429 -6.944 Q91.429 -14.411 94.976 -20.951 Q98.524 -27.49 104.848 -31.679 L107.612 -46.517 H134.966 L137.995 -31.679 Q144.157 -27.49 147.705 -20.874 Q151.252 -14.258 151.252 -7.011 Q151.252 0.534 147.705 7.161 Q144.157 13.79 137.995 17.944 L135.028 32.656 H107.673 Z M121.341 9.436 Q128.355 9.436 133.031 4.76 Q137.708 0.084 137.708 -6.931 Q137.708 -13.945 132.993 -18.621 Q128.278 -23.297 121.421 -23.297 Q114.326 -23.297 109.65 -18.583 Q104.974 -13.868 104.974 -7.011 Q104.974 0.084 109.65 4.76 Q114.326 9.436 121.341 9.436 Z"/></g><g id="Semibold-L" transform="matrix(1 0 0 1 1970.27 1556)"><path d="M77.4 32.306 Q53.604 26.406 38.174 4.86 Q22.743 -16.686 22.743 -42.138 V-82.56 L77.4 -103.089 L132.148 -82.634 V-55.281 H118.645 V-73.27 L77.4 -88.78 L36.155 -73.246 V-42.28 Q36.155 -21.395 47.778 -4.738 Q59.403 11.918 77.355 18.571 Q80.443 17.534 83.061 16.218 Q85.68 14.904 88.309 13.384 Q89.773 16.306 92.056 18.894 Q94.338 21.482 97.031 23.689 Q92.219 26.753 87.506 28.975 Q82.791 31.199 77.4 32.306 Z M108.323 32.306  105.464 17.821 Q99.154 13.79 95.642 7.272 Q92.13 0.755 92.13 -6.656 Q92.13 -14.069 95.642 -20.534 Q99.154 -27 105.464 -31.05 L108.262 -45.606 H134.545 L137.519 -31.05 Q143.667 -27 147.179 -20.474 Q150.691 -13.948 150.691 -6.731 Q150.691 0.758 147.179 7.274 Q143.667 13.79 137.519 17.821 L134.607 32.306 H108.323 Z M121.41 9.857 Q128.424 9.857 133.172 5.11 Q137.917 0.364 137.917 -6.65 Q137.917 -13.664 133.133 -18.412 Q128.347 -23.157 121.491 -23.157 Q114.396 -23.157 109.65 -18.373 Q104.904 -13.587 104.904 -6.731 Q104.904 0.364 109.65 5.11 Q114.396 9.857 121.41 9.857 Z"/></g><g id="Medium-L" transform="matrix(1 0 0 1 1674.31 1556)"><path d="M77.4 32.044 Q53.751 26.29 38.431 4.802 Q23.112 -16.686 23.112 -42.146 V-82.379 L77.4 -102.826 L131.727 -82.45 V-54.598 H119.223 V-73.745 L77.4 -89.515 L35.577 -73.746 V-42.257 Q35.577 -21.096 47.332 -4.143 Q59.087 12.811 77.381 19.255 Q80.548 18.165 83.378 16.772 Q86.206 15.378 88.992 13.805 Q90.45 16.528 92.578 18.926 Q94.707 21.324 97.24 23.373 Q92.414 26.437 87.63 28.633 Q82.844 30.829 77.4 32.044 Z M108.81 32.044  105.925 17.728 Q99.628 13.79 96.142 7.358 Q92.656 0.925 92.656 -6.444 Q92.656 -13.811 96.142 -20.221 Q99.628 -26.631 105.925 -30.578 L108.747 -44.923 H134.229 L137.162 -30.578 Q143.298 -26.631 146.784 -20.174 Q150.27 -13.716 150.27 -6.521 Q150.27 0.927 146.784 7.359 Q143.298 13.79 137.162 17.728 L134.292 32.044 H108.81 Z M121.463 10.173 Q128.478 10.173 133.276 5.373 Q138.075 0.574 138.075 -6.44 Q138.075 -13.455 133.238 -18.254 Q128.4 -23.052 121.544 -23.052 Q114.449 -23.052 109.65 -18.215 Q104.851 -13.377 104.851 -6.521 Q104.851 0.574 109.65 5.373 Q114.449 10.173 121.463 10.173 Z"/></g><g id="Regular-L" transform="matrix(1 0 0 1 1378.56 1556)"><path d="M77.4 31.85 Q53.858 26.206 38.619 4.76 Q23.381 -16.686 23.381 -42.152 V-82.247 L77.4 -102.632 L131.419 -82.315 V-54.096 H119.648 V-74.091 L77.4 -90.055 L35.153 -74.112 V-42.243 Q35.153 -20.879 47.004 -3.706 Q58.856 13.468 77.4 19.756 Q80.625 18.628 83.608 17.176 Q86.591 15.725 89.494 14.113 Q90.945 16.693 92.961 18.95 Q94.976 21.208 97.395 23.143 Q92.558 26.206 87.72 28.383 Q82.883 30.56 77.4 31.85 Z M109.166 31.85  106.264 17.66 Q99.975 13.79 96.508 7.421 Q93.041 1.051 93.041 -6.286 Q93.041 -13.622 96.508 -19.992 Q99.975 -26.361 106.264 -30.231 L109.105 -44.421 H133.999 L136.901 -30.231 Q143.029 -26.361 146.496 -19.953 Q149.963 -13.545 149.963 -6.366 Q149.963 1.051 146.496 7.421 Q143.029 13.79 136.901 17.66 L134.06 31.85 H109.166 Z M121.502 10.404 Q128.516 10.404 133.354 5.566 Q138.191 0.729 138.191 -6.286 Q138.191 -13.3 133.315 -18.137 Q128.439 -22.975 121.583 -22.975 Q114.487 -22.975 109.65 -18.099 Q104.812 -13.223 104.812 -6.366 Q104.812 0.729 109.65 5.566 Q114.487 10.404 121.502 10.404 Z"/></g><g id="Light-L" transform="matrix(1 0 0 1 1082.77 1556)"><path d="M77.4 28.562 Q55.409 22.794 41.007 2.651 Q26.606 -17.492 26.606 -41.843 V-79.953 L77.4 -99.098 L128.194 -80.02 V-53.972 H118.778 V-73.47 L77.4 -89.063 L36.022 -73.491 V-41.932 Q36.022 -21.003 47.686 -4.109 Q59.353 12.785 77.4 18.826 Q80.686 17.758 83.702 16.276 Q86.715 14.795 89.618 13.182 Q90.697 15.204 92.225 17.057 Q93.754 18.911 95.597 20.475 Q91.126 23.267 86.756 25.3 Q82.386 27.335 77.4 28.562 Z M109.6 28.625  107.255 14.745 Q101.65 11.247 98.524 5.499 Q95.399 -0.252 95.399 -6.782 Q95.399 -13.313 98.524 -19.061 Q101.65 -24.81 107.255 -28.309 L109.539 -42.188 H132.696 L135.04 -28.309 Q140.486 -24.81 143.611 -19.023 Q146.738 -13.235 146.738 -6.863 Q146.738 -0.252 143.611 5.499 Q140.486 11.247 135.04 14.745 L132.757 28.625 H109.6 Z M121.068 9.473 Q127.895 9.473 132.609 4.76 Q137.322 0.047 137.322 -6.782 Q137.322 -13.61 132.57 -18.323 Q127.818 -23.036 121.149 -23.036 Q114.239 -23.036 109.526 -18.284 Q104.812 -13.532 104.812 -6.863 Q104.812 0.047 109.526 4.76 Q114.239 9.473 121.068 9.473 Z"/></g><g id="Thin-L" transform="matrix(1 0 0 1 787.282 1556)"><path d="M77.4 25.276 Q56.958 19.384 43.396 0.543 Q29.831 -18.299 29.831 -41.532 V-77.658 L77.4 -95.562 L124.969 -77.726 V-53.848 H117.911 V-72.851 L77.4 -88.07 L36.889 -72.871 V-41.622 Q36.889 -21.127 48.369 -4.512 Q59.848 12.103 77.4 17.895 Q80.749 16.891 83.794 15.378 Q86.84 13.864 89.742 12.252 Q90.448 13.716 91.49 15.165 Q92.532 16.615 93.798 17.808 Q89.692 20.325 85.791 22.219 Q81.891 24.11 77.4 25.276 Z M110.034 25.4  108.249 11.831 Q103.324 8.704 100.539 3.575 Q97.755 -1.553 97.755 -7.277 Q97.755 -13.002 100.539 -18.131 Q103.324 -23.26 108.249 -26.385 L109.972 -39.956 H131.395 L133.18 -26.385 Q137.943 -23.26 140.728 -18.092 Q143.513 -12.926 143.513 -7.358 Q143.513 -1.553 140.728 3.575 Q137.943 8.704 133.18 11.831 L131.456 25.4 H110.034 Z M120.634 8.543 Q127.276 8.543 131.865 3.954 Q136.455 -0.635 136.455 -7.277 Q136.455 -13.921 131.827 -18.51 Q127.199 -23.099 120.715 -23.099 Q113.991 -23.099 109.402 -18.471 Q104.812 -13.843 104.812 -7.358 Q104.812 -0.635 109.402 3.954 Q113.991 8.543 120.634 8.543 Z"/></g><g id="Ultralight-L" transform="matrix(1 0 0 1 491.205 1556)"><path d="M77.4 23.304 Q57.889 17.338 44.828 -0.722 Q31.766 -18.782 31.766 -41.346 V-76.281 L77.4 -93.441 L123.034 -76.349 V-53.774 H117.39 V-72.479 L77.4 -87.475 L37.41 -72.5 V-41.437 Q37.41 -21.201 48.778 -4.754 Q60.146 11.694 77.4 17.338 Q80.786 16.37 83.85 14.838 Q86.914 13.306 89.816 11.694 Q90.3 12.823 91.05 14.03 Q91.8 15.238 92.719 16.209 Q88.833 18.561 85.213 20.369 Q81.593 22.175 77.4 23.304 Z M110.295 23.465  108.844 10.081 Q104.329 7.179 101.749 2.422 Q99.169 -2.335 99.169 -7.576 Q99.169 -12.816 101.749 -17.573 Q104.329 -22.33 108.844 -25.232 L110.234 -38.616 H130.613 L132.064 -25.232 Q136.417 -22.33 138.998 -17.534 Q141.578 -12.739 141.578 -7.656 Q141.578 -2.335 138.998 2.422 Q136.417 7.179 132.064 10.081 L130.674 23.465 H110.295 Z M120.373 7.985 Q126.904 7.985 131.419 3.47 Q135.934 -1.045 135.934 -7.576 Q135.934 -14.106 131.38 -18.621 Q126.826 -23.136 120.454 -23.136 Q113.843 -23.136 109.328 -18.583 Q104.812 -14.029 104.812 -7.656 Q104.812 -1.045 109.328 3.47 Q113.843 7.985 120.373 7.985 Z"/></g><g id="Bold-M" transform="matrix(1 0 0 1 2281.8 1126)"><path d="M60 20.77 Q40.154 16.044 27.203 -1.33 Q14.25 -18.705 14.25 -39.75 V-74.16 L60 -91.23 L105.75 -74.167 V-56.48 H88.75 V-62.48 L60 -73.105 L31.25 -62.42 V-39.759 Q31.25 -25.062 39.5 -13.396 Q47.75 -1.73 59.938 3.27 Q61 2.895 62 2.458 Q63 2.02 63.875 1.52 Q65.642 5.489 68.259 8.879 Q70.875 12.27 74.25 15.02 Q70.875 16.895 67.312 18.395 Q63.75 19.895 60 20.77 Z M84.125 20.52  80.903 7.49 Q76.125 3.895 73.5 -1.552 Q70.875 -7 70.875 -12.99 Q70.875 -18.98 73.5 -24.355 Q76.125 -29.73 80.903 -33.352 L84.125 -46.48 H109.625 L112.847 -33.352 Q117.625 -29.73 120.25 -24.325 Q122.875 -18.92 122.875 -12.98 Q122.875 -6.994 120.25 -1.549 Q117.625 3.895 112.847 7.49 L109.625 20.52 H84.125 Z M96.875 -2.73 Q101.125 -2.73 104.125 -5.73 Q107.125 -8.73 107.125 -12.98 Q107.125 -17.23 104.125 -20.23 Q101.125 -23.23 96.875 -23.23 Q92.625 -23.23 89.625 -20.23 Q86.625 -17.23 86.625 -12.98 Q86.625 -8.73 89.625 -5.73 Q92.625 -2.73 96.875 -2.73 Z"/></g><g id="Semibold-M" transform="matrix(1 0 0 1 1985.97 1126)"><path d="M60 20.009 Q40.521 15.436 27.821 -1.721 Q15.12 -18.879 15.12 -39.741 V-73.646 L60 -90.469 L104.88 -73.651 V-55.61 H89.511 V-63.077 L60 -74.084 L30.489 -63.044 V-39.746 Q30.489 -24.701 38.903 -12.645 Q47.315 -0.589 59.965 4.14 Q61.163 3.71 62.354 3.191 Q63.544 2.673 64.636 2.118 Q66.341 5.665 68.744 8.75 Q71.146 11.835 74.196 14.314 Q70.875 16.189 67.312 17.661 Q63.75 19.134 60 20.009 Z M84.343 19.759  81.162 7.069 Q76.451 3.569 73.854 -1.739 Q71.255 -7.045 71.255 -12.931 Q71.255 -18.817 73.854 -24.084 Q76.451 -29.35 81.162 -32.865 L84.343 -45.61 H108.537 L111.719 -32.865 Q116.43 -29.35 119.028 -24.066 Q121.625 -18.784 121.625 -12.926 Q121.625 -7.041 119.028 -1.736 Q116.43 3.569 111.719 7.069 L108.537 19.759 H84.343 Z M96.44 -2.404 Q100.799 -2.404 103.88 -5.485 Q106.963 -8.567 106.963 -12.926 Q106.963 -17.284 103.88 -20.366 Q100.799 -23.447 96.44 -23.447 Q92.081 -23.447 89 -20.366 Q85.919 -17.284 85.919 -12.926 Q85.919 -8.567 89 -5.485 Q92.081 -2.404 96.44 -2.404 Z"/></g><g id="Medium-M" transform="matrix(1 0 0 1 1689.91 1126)"><path d="M60 19.439 Q40.797 14.98 28.285 -2.015 Q15.771 -19.009 15.771 -39.735 V-73.262 L60 -89.899 L104.229 -73.264 V-54.959 H90.081 V-63.526 L60 -74.817 L29.919 -63.511 V-39.737 Q29.919 -24.429 38.454 -12.081 Q46.989 0.268 59.985 4.791 Q61.285 4.321 62.619 3.741 Q63.951 3.161 65.206 2.566 Q66.866 5.798 69.108 8.654 Q71.35 11.509 74.155 13.784 Q70.875 15.659 67.312 17.111 Q63.75 18.564 60 19.439 Z M84.505 19.189  81.358 6.753 Q76.696 3.324 74.119 -1.877 Q71.541 -7.08 71.541 -12.887 Q71.541 -18.695 74.119 -23.88 Q76.696 -29.064 81.358 -32.499 L84.505 -44.959 H107.722 L110.871 -32.499 Q115.532 -29.064 118.11 -23.872 Q120.688 -18.68 120.688 -12.885 Q120.688 -7.079 118.11 -1.877 Q115.532 3.324 110.871 6.753 L107.722 19.189 H84.505 Z M96.114 -2.159 Q100.554 -2.159 103.698 -5.302 Q106.84 -8.445 106.84 -12.885 Q106.84 -17.325 103.698 -20.467 Q100.554 -23.61 96.114 -23.61 Q91.674 -23.61 88.531 -20.467 Q85.389 -17.325 85.389 -12.885 Q85.389 -8.445 88.531 -5.302 Q91.674 -2.159 96.114 -2.159 Z"/></g><g id="Regular-M" transform="matrix(1 0 0 1 1394.06 1126)"><path d="M60 19.02 Q41 14.645 28.625 -2.23 Q16.25 -19.105 16.25 -39.73 V-72.98 L60 -89.48 L103.75 -72.98 V-54.48 H90.5 V-63.855 L60 -75.355 L29.5 -63.855 V-39.73 Q29.5 -24.23 38.125 -11.667 Q46.75 0.895 60 5.27 Q61.375 4.77 62.812 4.145 Q64.25 3.52 65.625 2.895 Q67.25 5.895 69.375 8.583 Q71.5 11.27 74.125 13.395 Q70.875 15.27 67.312 16.708 Q63.75 18.145 60 19.02 Z M84.625 18.77  81.5 6.52 Q76.875 3.145 74.312 -1.98 Q71.75 -7.105 71.75 -12.855 Q71.75 -18.605 74.312 -23.73 Q76.875 -28.855 81.5 -32.23 L84.625 -44.48 H107.125 L110.25 -32.23 Q114.875 -28.855 117.438 -23.73 Q120 -18.605 120 -12.855 Q120 -7.105 117.438 -1.98 Q114.875 3.145 110.25 6.52 L107.125 18.77 H84.625 Z M95.875 -1.98 Q100.375 -1.98 103.562 -5.167 Q106.75 -8.355 106.75 -12.855 Q106.75 -17.355 103.562 -20.542 Q100.375 -23.73 95.875 -23.73 Q91.375 -23.73 88.188 -20.542 Q85 -17.355 85 -12.855 Q85 -8.355 88.188 -5.167 Q91.375 -1.98 95.875 -1.98 Z"/></g><g id="Light-M" transform="matrix(1 0 0 1 1098.18 1126)"><path d="M60 16.424 Q42.154 12 30.453 -3.985 Q18.75 -19.97 18.75 -39.73 V-71.249 L60 -86.787 L101.25 -71.249 V-53.037 H90.5 V-63.855 L60 -75.307 L29.5 -63.855 V-39.73 Q29.5 -24.23 38.125 -11.667 Q46.75 0.895 60 5.27 Q61.711 4.626 63.534 3.833 Q65.356 3.039 67.067 2.174 Q68.308 4.596 69.911 6.828 Q71.514 9.058 73.547 10.799 Q70.438 12.654 67.021 14.078 Q63.606 15.5 60 16.424 Z M85.586 16.27  83.086 4.5 Q78.895 1.51 76.573 -3.134 Q74.25 -7.779 74.25 -12.902 Q74.25 -18.027 76.573 -22.672 Q78.895 -27.316 83.086 -30.306 L85.586 -42.076 H106.164 L108.664 -30.306 Q112.855 -27.316 115.177 -22.672 Q117.5 -18.027 117.5 -12.902 Q117.5 -7.779 115.177 -3.134 Q112.855 1.51 108.664 4.5 L106.164 16.27 H85.586 Z M95.875 -2.027 Q100.375 -2.027 103.562 -5.215 Q106.75 -8.402 106.75 -12.902 Q106.75 -17.402 103.562 -20.59 Q100.375 -23.777 95.875 -23.777 Q91.375 -23.777 88.188 -20.59 Q85 -17.402 85 -12.902 Q85 -8.402 88.188 -5.215 Q91.375 -2.027 95.875 -2.027 Z"/></g><g id="Thin-M" transform="matrix(1 0 0 1 802.565 1126)"><path d="M60 13.828 Q43.307 9.356 32.279 -5.74 Q21.25 -20.836 21.25 -39.73 V-69.519 L60 -84.095 L98.75 -69.519 V-51.595 H90.5 V-63.855 L60 -75.259 L29.5 -63.855 V-39.73 Q29.5 -24.23 38.125 -11.667 Q46.75 0.895 60 5.27 Q62.047 4.481 64.255 3.52 Q66.461 2.559 68.51 1.453 Q69.365 3.299 70.448 5.071 Q71.529 6.845 72.971 8.203 Q70 10.039 66.731 11.448 Q63.461 12.856 60 13.828 Z M86.547 13.77  84.672 2.481 Q80.914 -0.124 78.831 -4.287 Q76.75 -8.451 76.75 -12.951 Q76.75 -17.451 78.831 -21.615 Q80.914 -25.777 84.672 -28.384 L86.547 -39.672 H105.203 L107.078 -28.384 Q110.836 -25.777 112.919 -21.615 Q115 -17.451 115 -12.951 Q115 -8.451 112.919 -4.287 Q110.836 -0.124 107.078 2.481 L105.203 13.77 H86.547 Z M95.875 -2.076 Q100.375 -2.076 103.562 -5.264 Q106.75 -8.451 106.75 -12.951 Q106.75 -17.451 103.562 -20.639 Q100.375 -23.826 95.875 -23.826 Q91.375 -23.826 88.188 -20.639 Q85 -17.451 85 -12.951 Q85 -8.451 88.188 -5.264 Q91.375 -2.076 95.875 -2.076 Z"/></g><g id="Ultralight-M" transform="matrix(1 0 0 1 506.415 1126)"><path d="M60 12.27 Q44 7.77 33.375 -6.792 Q22.75 -21.355 22.75 -39.73 V-68.48 L60 -82.48 L97.25 -68.48 V-50.73 H90.5 V-63.855 L60 -75.23 L29.5 -63.855 V-39.73 Q29.5 -24.23 38.125 -11.667 Q46.75 0.895 60 5.27 Q62.25 4.395 64.688 3.333 Q67.125 2.27 69.375 1.02 Q70 2.52 70.769 4.019 Q71.537 5.518 72.625 6.645 Q69.737 8.469 66.556 9.87 Q63.375 11.27 60 12.27 Z M87.125 12.27  85.625 1.27 Q82.125 -1.105 80.188 -4.98 Q78.25 -8.855 78.25 -12.98 Q78.25 -17.105 80.188 -20.98 Q82.125 -24.855 85.625 -27.23 L87.125 -38.23 H104.625 L106.125 -27.23 Q109.625 -24.855 111.562 -20.98 Q113.5 -17.105 113.5 -12.98 Q113.5 -8.855 111.562 -4.98 Q109.625 -1.105 106.125 1.27 L104.625 12.27 H87.125 Z M95.875 -2.105 Q100.375 -2.105 103.562 -5.292 Q106.75 -8.48 106.75 -12.98 Q106.75 -17.48 103.562 -20.667 Q100.375 -23.855 95.875 -23.855 Q91.375 -23.855 88.188 -20.667 Q85 -17.48 85 -12.98 Q85 -8.48 88.188 -5.292 Q91.375 -2.105 95.875 -2.105 Z"/></g><g id="Bold-S" transform="matrix(1 0 0 1 2294.23 696)"><path d="M47.34 7.376 Q32.076 3.844 22.055 -9.405 Q12.032 -22.653 12.032 -38.698 V-64.368 L47.34 -77.836 L82.648 -64.374 V-48.051 H70.024 V-55.744 L47.34 -64.324 L24.656 -55.697 V-38.705 Q24.656 -27.38 31.166 -18.398 Q37.675 -9.415 47.291 -5.544 Q48.918 -6.136 50.496 -6.819 Q52.074 -7.503 53.553 -8.404 Q54.652 -5.371 56.433 -2.835 Q58.214 -0.299 60.556 1.754 Q57.498 3.628 54.194 5.058 Q50.891 6.488 47.34 7.376 Z M70.122 7.179  67.777 -1.918 Q63.909 -4.262 61.69 -8.313 Q59.471 -12.365 59.471 -16.894 Q59.471 -21.422 61.69 -25.417 Q63.909 -29.411 67.777 -31.776 L70.122 -40.95 H86.297 L88.445 -31.283 Q91.919 -28.819 93.842 -24.964 Q95.765 -21.109 95.765 -16.901 Q95.765 -12.656 93.842 -8.803 Q91.919 -4.952 88.445 -2.51 L86.297 7.179 H70.122 Z M77.598 -10.376 Q80.281 -10.376 82.204 -12.28 Q84.127 -14.184 84.127 -16.866 Q84.127 -19.549 82.224 -21.472 Q80.319 -23.395 77.638 -23.395 Q74.955 -23.395 73.032 -21.492 Q71.109 -19.587 71.109 -16.905 Q71.109 -14.223 73.012 -12.3 Q74.917 -10.376 77.598 -10.376 Z"/></g><g id="Semibold-S" transform="matrix(1 0 0 1 1998.1 696)"><path d="M47.34 6.775 Q32.366 3.365 22.543 -9.714 Q12.719 -22.791 12.719 -38.691 V-63.962 L47.34 -77.235 L81.961 -63.966 V-47.365 H70.624 V-56.215 L47.34 -65.097 L24.056 -56.189 V-38.695 Q24.056 -27.095 30.694 -17.805 Q37.332 -8.514 47.312 -4.857 Q49.046 -5.493 50.775 -6.24 Q52.503 -6.988 54.154 -7.933 Q55.203 -5.232 56.816 -2.937 Q58.428 -0.642 60.513 1.197 Q57.498 3.071 54.194 4.479 Q50.891 5.888 47.34 6.775 Z M70.294 6.578  67.982 -2.251 Q64.166 -4.519 61.969 -8.46 Q59.771 -12.4 59.771 -16.847 Q59.771 -21.294 61.969 -25.203 Q64.166 -29.111 67.982 -31.392 L70.294 -40.264 H85.439 L87.554 -30.898 Q90.976 -28.52 92.877 -24.76 Q94.779 -21.001 94.779 -16.857 Q94.779 -12.693 92.877 -8.951 Q90.976 -5.21 87.554 -2.843 L85.439 6.578 H70.294 Z M77.255 -10.119 Q80.023 -10.119 82.011 -12.088 Q83.999 -14.055 83.999 -16.824 Q83.999 -19.591 82.03 -21.579 Q80.063 -23.567 77.294 -23.567 Q74.526 -23.567 72.539 -21.598 Q70.551 -19.63 70.551 -16.862 Q70.551 -14.095 72.519 -12.106 Q74.488 -10.119 77.255 -10.119 Z"/></g><g id="Medium-S" transform="matrix(1 0 0 1 1701.85 696)"><path d="M47.34 6.326 Q32.584 3.005 22.909 -9.945 Q13.233 -22.894 13.233 -38.686 V-63.66 L47.34 -76.786 L81.447 -63.661 V-46.851 H71.074 V-56.569 L47.34 -65.676 L23.606 -56.558 V-38.688 Q23.606 -26.88 30.34 -17.36 Q37.074 -7.839 47.328 -4.344 Q49.143 -5.01 50.984 -5.806 Q52.825 -6.602 54.604 -7.579 Q55.618 -5.128 57.103 -3.013 Q58.589 -0.9 60.481 0.779 Q57.498 2.653 54.194 4.045 Q50.891 5.438 47.34 6.326 Z M70.422 6.128  68.136 -2.5 Q64.36 -4.712 62.178 -8.57 Q59.997 -12.428 59.997 -16.813 Q59.997 -21.198 62.178 -25.042 Q64.36 -28.885 68.136 -31.103 L70.422 -39.75 H84.796 L86.886 -30.609 Q90.268 -28.294 92.153 -24.607 Q94.039 -20.92 94.039 -16.826 Q94.039 -12.723 92.153 -9.063 Q90.268 -5.403 86.886 -3.092 L84.796 6.128 H70.422 Z M76.999 -9.926 Q79.83 -9.926 81.867 -11.943 Q83.902 -13.959 83.902 -16.791 Q83.902 -19.624 81.885 -21.659 Q79.869 -23.695 77.037 -23.695 Q74.204 -23.695 72.169 -21.679 Q70.133 -19.663 70.133 -16.831 Q70.133 -13.998 72.149 -11.962 Q74.166 -9.926 76.999 -9.926 Z"/></g><g id="Regular-S" transform="matrix(1 0 0 1 1405.73 696)"><path d="M47.34 5.995 Q32.744 2.741 23.177 -10.114 Q13.61 -22.97 13.61 -38.682 V-63.437 L47.34 -76.455 L81.07 -63.437 V-46.473 H71.404 V-56.829 L47.34 -66.1 L23.276 -56.829 V-38.682 Q23.276 -26.724 30.081 -17.034 Q36.886 -7.344 47.34 -3.966 Q49.214 -4.656 51.137 -5.488 Q53.06 -6.319 54.934 -7.319 Q55.92 -5.051 57.314 -3.069 Q58.708 -1.088 60.457 0.472 Q57.498 2.346 54.194 3.727 Q50.891 5.108 47.34 5.995 Z M70.517 5.798  68.249 -2.684 Q64.501 -4.853 62.331 -8.651 Q60.161 -12.448 60.161 -16.787 Q60.161 -21.127 62.331 -24.924 Q64.501 -28.721 68.249 -30.89 L70.517 -39.372 H84.324 L86.395 -30.397 Q89.749 -28.129 91.623 -24.495 Q93.496 -20.86 93.496 -16.802 Q93.496 -12.743 91.623 -9.144 Q89.749 -5.544 86.395 -3.275 L84.324 5.798 H70.517 Z M76.809 -9.785 Q79.689 -9.785 81.76 -11.836 Q83.831 -13.889 83.831 -16.767 Q83.831 -19.647 81.78 -21.718 Q79.727 -23.789 76.849 -23.789 Q73.969 -23.789 71.898 -21.738 Q69.827 -19.686 69.827 -16.807 Q69.827 -13.927 71.878 -11.856 Q73.93 -9.785 76.809 -9.785 Z"/></g><g id="Light-S" transform="matrix(1 0 0 1 1109.75 696)"><path d="M47.34 3.947 Q33.654 0.654 24.619 -11.499 Q15.583 -23.652 15.583 -38.682 V-62.071 L47.34 -74.331 L79.097 -62.071 V-45.335 H71.404 V-56.829 L47.34 -66.062 L23.276 -56.829 V-38.682 Q23.276 -26.724 30.081 -17.034 Q36.886 -7.344 47.34 -3.966 Q49.479 -4.77 51.706 -5.734 Q53.933 -6.698 56.072 -7.888 Q56.755 -6.075 57.737 -4.454 Q58.718 -2.834 60.001 -1.576 Q57.153 0.282 53.965 1.652 Q50.777 3.021 47.34 3.947 Z M71.275 3.826  69.5 -4.278 Q66.095 -6.144 64.114 -9.561 Q62.134 -12.979 62.134 -16.825 Q62.134 -20.671 64.114 -24.089 Q66.095 -27.507 69.5 -29.373 L71.275 -37.476 H83.566 L85.144 -28.88 Q88.155 -26.915 89.839 -23.66 Q91.524 -20.405 91.524 -16.839 Q91.524 -13.275 89.839 -10.054 Q88.155 -6.834 85.144 -4.869 L83.566 3.826 H71.275 Z M76.809 -9.822 Q79.689 -9.822 81.76 -11.875 Q83.831 -13.926 83.831 -16.806 Q83.831 -19.685 81.78 -21.756 Q79.727 -23.827 76.849 -23.827 Q73.969 -23.827 71.898 -21.776 Q69.827 -19.724 69.827 -16.844 Q69.827 -13.964 71.878 -11.893 Q73.93 -9.822 76.809 -9.822 Z"/></g><g id="Thin-S" transform="matrix(1 0 0 1 814.015 696)"><path d="M47.34 1.898 Q34.564 -1.432 26.06 -12.884 Q17.555 -24.335 17.555 -38.682 V-60.706 L47.34 -72.206 L77.125 -60.706 V-44.197 H71.404 V-56.829 L47.34 -66.024 L23.276 -56.829 V-38.682 Q23.276 -26.724 30.081 -17.034 Q36.886 -7.344 47.34 -3.966 Q49.744 -4.884 52.275 -5.981 Q54.805 -7.077 57.21 -8.457 Q57.589 -7.099 58.159 -5.839 Q58.729 -4.579 59.547 -3.625 Q56.808 -1.781 53.736 -0.423 Q50.663 0.935 47.34 1.898 Z M72.034 1.853  70.752 -5.87 Q67.687 -7.433 65.896 -10.471 Q64.106 -13.51 64.106 -16.863 Q64.106 -20.216 65.896 -23.255 Q67.687 -26.293 70.752 -27.856 L72.034 -35.579 H82.808 L83.892 -27.363 Q86.562 -25.701 88.057 -22.826 Q89.552 -19.95 89.552 -16.878 Q89.552 -13.806 88.057 -10.964 Q86.562 -8.123 83.892 -6.462 L82.808 1.853 H72.034 Z M76.809 -9.861 Q79.689 -9.861 81.76 -11.912 Q83.831 -13.963 83.831 -16.843 Q83.831 -19.723 81.78 -21.794 Q79.727 -23.865 76.849 -23.865 Q73.969 -23.865 71.898 -21.814 Q69.827 -19.762 69.827 -16.883 Q69.827 -14.003 71.878 -11.932 Q73.93 -9.861 76.809 -9.861 Z"/></g><g id="Ultralight-S" transform="matrix(1 0 0 1 517.792 696)"><path d="M47.34 0.67 Q35.111 -2.684 26.925 -13.714 Q18.739 -24.745 18.739 -38.682 V-59.886 L47.34 -70.932 L75.941 -59.886 V-43.514 H71.404 V-56.829 L47.34 -66.001 L23.276 -56.829 V-38.682 Q23.276 -26.724 30.081 -17.034 Q36.886 -7.344 47.34 -3.966 Q49.904 -4.952 52.616 -6.129 Q55.329 -7.305 57.893 -8.798 Q58.09 -7.714 58.414 -6.67 Q58.736 -5.627 59.274 -4.853 Q56.601 -3.02 53.598 -1.668 Q50.595 -0.317 47.34 0.67 Z M72.489 0.67  71.503 -6.826 Q68.643 -8.207 66.966 -11.018 Q65.29 -13.828 65.29 -16.886 Q65.29 -19.943 66.966 -22.754 Q68.643 -25.565 71.503 -26.945 L72.489 -34.441 H82.352 L83.141 -26.452 Q85.606 -24.973 86.987 -22.325 Q88.368 -19.677 88.368 -16.901 Q88.368 -14.124 86.987 -11.511 Q85.606 -8.897 83.141 -7.418 L82.352 0.67 H72.489 Z M76.809 -9.883 Q79.689 -9.883 81.76 -11.935 Q83.831 -13.987 83.831 -16.866 Q83.831 -19.746 81.78 -21.817 Q79.727 -23.888 76.849 -23.888 Q73.969 -23.888 71.898 -21.837 Q69.827 -19.784 69.827 -16.905 Q69.827 -14.026 71.878 -11.954 Q73.93 -9.883 76.809 -9.883 Z"/></g></g></svg>