<svg xmlns="http://www.w3.org/2000/svg" height="48" viewBox="0 -960 960 960" width="48"><path d="m480-257.31 139.54-139.54-31.81-32.5L480-321.61 372.96-429.35l-32.5 32.5L480-257.31ZM372.96-531.35 480-638.39l107.73 107.04 31.81-32.19L480-702.69 340.46-563.54l32.5 32.19ZM198.83-142.77q-22.6 0-39.33-16.73-16.73-16.73-16.73-39.33v-562.34q0-22.6 16.73-39.33 16.73-16.73 39.33-16.73h562.34q22.6 0 39.33 16.73 16.73 16.73 16.73 39.33v562.34q0 22.6-16.73 39.33-16.73 16.73-39.33 16.73H198.83Zm.09-43.85h562.16q4.61 0 8.46-3.84 3.84-3.85 3.84-8.46v-562.16q0-4.61-3.84-8.46-3.85-3.84-8.46-3.84H198.92q-4.61 0-8.46 3.84-3.84 3.85-3.84 8.46v562.16q0 4.61 3.84 8.46 3.85 3.84 8.46 3.84Zm-12.3-586.76v586.76-586.76Z"/></svg>