<svg xmlns="http://www.w3.org/2000/svg" height="24" viewBox="0 -960 960 960" width="24"><path d="M319.99-150q-20.3 0-34.14-13.9Q272-177.79 272-198.16v-563.68q0-20.37 13.85-34.26Q299.7-810 320-810h320.01q20.3 0 34.14 13.9Q688-782.21 688-761.84v563.68q0 20.37-13.85 34.26Q660.3-150 640-150H319.99ZM106.31-273v-415q0-17.38 12.63-29.69Q131.57-730 149.32-730q17.76 0 30.37 12.63 12.62 12.62 12.62 30.37v415q0 17.38-12.63 29.69Q167.05-230 149.3-230q-17.76 0-30.37-12.63-12.62-12.62-12.62-30.37Zm661.38 0v-415q0-17.38 12.63-29.69Q792.95-730 810.7-730q17.76 0 30.37 12.63 12.62 12.62 12.62 30.37v415q0 17.38-12.63 29.69Q828.43-230 810.68-230q-17.76 0-30.37-12.63-12.62-12.62-12.62-30.37Z"/></svg>