<svg xmlns="http://www.w3.org/2000/svg" height="24" width="24"><path d="M15 14V9H10V8H16V14ZM15 18V16H8V9H6V8H8V6H9V15H19V16H16V18ZM9.925 1.2Q10.45 1.075 10.95 1.037Q11.45 1 11.95 1Q14.1 1 16.013 1.762Q17.925 2.525 19.413 3.862Q20.9 5.2 21.85 7.037Q22.8 8.875 23 11H22Q21.8 9.1 20.962 7.475Q20.125 5.85 18.8 4.65Q17.475 3.45 15.775 2.75Q14.075 2.05 12.175 2L14.1 3.95L13.4 4.65ZM14.075 22.8Q13.55 22.925 13.05 22.962Q12.55 23 12.05 23Q9.9 23 7.988 22.238Q6.075 21.475 4.588 20.138Q3.1 18.8 2.15 16.962Q1.2 15.125 1 13H2Q2.2 14.9 3.038 16.525Q3.875 18.15 5.2 19.35Q6.525 20.55 8.225 21.25Q9.925 21.95 11.825 22L9.9 20.05L10.6 19.35Z"/></svg>