<svg xmlns="http://www.w3.org/2000/svg" height="48" width="48"><path d="M4.2 22.5Q4.35 20.1 5.375 17.325Q6.4 14.55 7.95 12.4Q10.8 14.85 12.05 17.45Q13.3 20.05 13.6 22.5ZM34.45 22.5Q34.7 20.05 35.95 17.475Q37.2 14.9 40.1 12.4Q41.6 14.55 42.625 17.325Q43.65 20.1 43.8 22.5ZM7.95 35.55Q6.4 33.4 5.375 30.65Q4.35 27.9 4.2 25.45H13.6Q13.3 27.95 12.05 30.5Q10.8 33.05 7.95 35.55ZM40.1 35.55Q37.2 33.05 35.95 30.5Q34.7 27.95 34.45 25.45H43.8Q43.65 27.9 42.625 30.65Q41.6 33.4 40.1 35.55ZM16.7 22.5Q16.35 19.35 14.85 16.325Q13.35 13.3 9.9 10.15Q12.05 7.9 15.275 6.2Q18.5 4.5 22.55 4.2V22.5ZM25.5 22.5V4.2Q29.5 4.5 32.75 6.2Q36 7.9 38.15 10.15Q34.7 13.35 33.175 16.35Q31.65 19.35 31.35 22.5ZM22.55 43.8Q18.3 43.5 15.175 41.8Q12.05 40.1 9.9 37.8Q13.35 34.65 14.85 31.625Q16.35 28.6 16.7 25.45H22.55ZM25.5 43.8V25.45H31.35Q31.65 28.6 33.175 31.6Q34.7 34.6 38.15 37.8Q36 40.05 32.875 41.775Q29.75 43.5 25.5 43.8Z"/></svg>