<svg xmlns="http://www.w3.org/2000/svg" height="40" width="40"><path d="M29.583 25.042 27.583 23.042V9.75H23.458V18.958L10.542 6H22.208Q22.75 6 23.104 6.354Q23.458 6.708 23.458 7.25V7.75H28.333Q28.833 7.75 29.208 8.104Q29.583 8.458 29.583 9ZM32.708 35.042 23.458 25.75V32.708Q23.458 33.292 23.104 33.625Q22.75 33.958 22.208 33.958H7.042Q6.583 33.958 6.312 33.667Q6.042 33.375 6.042 32.958Q6.042 32.542 6.312 32.25Q6.583 31.958 7.042 31.958H9.625V11.917L5.333 7.667Q5.042 7.375 5.042 6.958Q5.042 6.542 5.333 6.25Q5.625 5.958 6.042 5.958Q6.458 5.958 6.792 6.25L34.167 33.625Q34.417 33.917 34.417 34.333Q34.417 34.75 34.167 35.042Q33.833 35.333 33.417 35.333Q33 35.333 32.708 35.042Z"/></svg>