<svg xmlns="http://www.w3.org/2000/svg" height="48" viewBox="0 -960 960 960" width="48"><path d="m438.62-423.38-80.54-80.54q-6.31-6.69-16.23-6.89-9.93-.19-17 6.89-7.08 6.69-7.08 16.25 0 9.57 7.08 16.98l91.69 91.92q8.61 9 20.04 9 11.42 0 20.04-9l177.53-177.15q6.7-6.76 6.89-16.34.19-9.59-6.39-15.66-6.57-6.08-16.3-5.77-9.73.31-15.81 6.38L438.62-423.38ZM480-105.16q-5.32 0-10.07-1t-9.31-3q-129.77-46.23-205.2-160.99Q180-384.92 180-521.18v-185.13q0-18.48 10.49-33.51 10.49-15.02 26.97-21.56l242.31-90.08q10.61-4 20.23-4 9.62 0 20.23 4l242.31 90.08q16.48 6.54 26.97 21.56Q780-724.79 780-706.31v185.13q0 136.26-75.42 251.03-75.43 114.76-205.2 160.99-4.56 2-9.31 3-4.75 1-10.07 1Zm0-43.61Q591.92-185.23 663.27-289q71.34-103.77 71.34-232.08v-185.61q0-3.85-2.11-6.92-2.12-3.08-5.96-4.62l-242.31-91.08q-1.92-.77-4.23-.77-2.31 0-4.23.77l-242.31 91.08q-3.84 1.54-5.96 4.62-2.11 3.07-2.11 6.92v185.61q0 128.31 71.34 232.08Q368.08-185.23 480-148.77Zm0-330.46Z"/></svg>