<svg xmlns="http://www.w3.org/2000/svg" height="48" viewBox="0 96 960 960" width="48"><path d="M236.87 754.217h174.891V584.304H271.956q-8.26 42.998-16.559 84.818-8.299 41.82-18.527 85.095Zm279.552 40.74H93.121q-7.918 0-14.172-5.652-6.254-5.651-6.254-14.777 0-7.648 6.254-13.979 6.254-6.332 14.02-6.332h98.376q9.568-43.347 18.59-85.415 9.021-42.067 16.782-84.498h-79.891q-8.536 0-14.833-5.995-6.298-5.995-6.298-14.58 0-8.584 6.298-15.004 6.297-6.421 14.833-6.421h88.006q5.064-29.037 10.128-58.26 5.065-29.224 10.757-60H126.953q-7.75 0-14.004-5.652-6.254-5.651-6.254-14.777 0-7.648 6.254-13.979 6.254-6.332 14.129-6.332h351.887q7.636 0 14.009 5.933 6.374 5.932 6.374 14.408 0 8.475-6.374 14.437-6.373 5.962-13.916 5.962H302.134q-5.678 29.804-11.402 59.018-5.725 29.215-10.319 59.242h139.043q13.349 0 22.957 9.691 9.609 9.69 9.609 23.614v178.608h64.388q7.691 0 14.064 5.933 6.374 5.932 6.374 14.407 0 8.476-6.374 14.438-6.373 5.962-14.052 5.962Zm189.277-59.827q30.73 0 61.385-14.652 30.655-14.652 57.394-41.29V560.326q-28.826 4.137-50.337 8.818-21.511 4.682-41.032 10.682-49.065 15.304-73.12 38.257-24.054 22.952-24.054 53.317 0 29.165 19.048 46.448 19.048 17.282 50.716 17.282Zm-13.847 52.827q-53.461 0-85.711-30.612t-32.25-82.388q0-49.5 34.359-83.479 34.359-33.978 104.697-54.841 21.444-6.115 48.988-11.126 27.543-5.011 62.543-10.433 0-55.165-17.663-81.698-17.663-26.532-64.083-26.532-21.949 0-44.199 6.75-22.25 6.75-50.033 22.511-10.217 5.478-20.562 2.822-10.344-2.656-16.308-12.29-5.478-10.706-2.858-21.163 2.619-10.456 13.076-16.174 31.462-17.015 64.609-26.757 33.147-9.743 67.292-9.743 68.795 0 100.903 42.734 32.109 42.735 32.109 120.919v236.347q0 11.139-7.459 18.646-7.458 7.507-18.11 7.507h-4.084q-10.157 0-17.204-6.67-7.047-6.669-8.426-16.265l-3.021-25.131q-30.148 27.985-66.335 42.525-36.187 14.541-70.27 14.541Z"/></svg>