<svg xmlns="http://www.w3.org/2000/svg" height="20" viewBox="0 -960 960 960" width="20"><path d="M250.85-314.08h163.84v-156.61h-131.8q-7.66 39.17-15.22 78.31-7.55 39.15-16.82 78.3Zm269 40.31H111.69q-8.4 0-14.27-5.89-5.88-5.89-5.88-14.31 0-8.41 5.88-14.26 5.87-5.85 14.27-5.85h93.83q9.66-39.92 17.92-78.88 8.25-38.96 16.25-77.73h-77.38q-9.14 0-14.96-5.81-5.81-5.8-5.81-14.92 0-9.12 5.81-14.96 5.82-5.85 14.96-5.85h85.99q5.24-26.92 9.62-53.46 4.39-26.54 8.39-54.23H144.69q-8.4 0-14.27-5.89-5.88-5.9-5.88-14.31 0-8.42 5.88-14.26 5.87-5.85 14.27-5.85h339.16q8.39 0 14.27 5.89 5.88 5.89 5.88 14.31 0 8.41-5.88 14.26t-14.27 5.85H312.07q-5.22 27.3-9.92 53.84-4.69 26.54-10.07 53.85h131.77q13.36-1 22.76 8.24 9.39 9.25 9.39 22.91v167h63.85q8.39 0 14.27 5.89 5.88 5.9 5.88 14.31 0 8.42-5.88 14.26-5.88 5.85-14.27 5.85Zm161.09-46.07q30.87 0 61.42-17.43 30.56-17.42 55.64-48.55v-111.8q-26.14 3.74-48.85 9.33-22.71 5.6-44.38 12.52-47.46 15.54-70.81 39.04t-23.35 53.67q0 29.09 19.68 46.15 19.68 17.07 50.65 17.07ZM669.62-274q-50.08 0-81.04-29.62-30.96-29.62-30.96-79.46 0-47.6 32.11-79.37 32.12-31.78 97.65-51.55 20.91-6.3 48.46-11.93 27.56-5.64 62.16-11.38v-5q-2.23-48.61-22.92-72.58-20.7-23.96-65.77-23.96-21.51 0-42.26 5.58-20.74 5.58-43.59 19.96-9.04 5.46-18.87 3.42-9.82-2.03-15.13-10.34-6.46-9.31-3.12-19.92 3.35-10.62 12.42-16.08 28.86-16.62 59.97-25.35 31.12-8.73 59.27-8.73 65.15 0 98.58 40.89Q850-608.54 850-533.31v229.39q0 8.87-6.02 14.9-6.02 6.02-14.89 6.02h-3.16q-8.24 0-14.12-4.88-5.89-4.89-7.12-13.2l-3.38-33.38q-29.16 28.92-63.73 44.69Q703-274 669.62-274Z"/></svg>