<svg xmlns="http://www.w3.org/2000/svg" height="48" viewBox="0 -960 960 960" width="48"><path d="M714.96-593.12q-17.18 0-29.57-12.39T673-635.08v-83.07q0-17.25 12.39-28.97 12.39-11.73 29.57-11.73h83.19q17.25 0 28.97 11.73 11.73 11.72 11.73 28.97v83.07q0 17.18-11.73 29.57-11.72 12.39-28.97 12.39h-83.19Zm0 196.16q-17.18 0-29.57-12.17Q673-421.29 673-438.15v-84.08q0-17.24 12.39-28.97 12.39-11.72 29.57-11.72h83.19q17.25 0 28.97 11.72 11.73 11.73 11.73 28.97v84.08q0 16.86-11.73 29.02-11.72 12.17-28.97 12.17h-83.19Zm-539 195.81q-22.44 0-38.62-16.19-16.19-16.18-16.19-38.62v-448.08q0-22.44 16.19-38.62 16.18-16.19 38.62-16.19H588q22.44 0 38.63 16.19 16.18 16.18 16.18 38.62v448.08q0 22.44-16.18 38.62-16.19 16.19-38.63 16.19H175.96Zm539 0q-17.18 0-29.57-12.39Q673-225.94 673-243.12v-82.69q0-17.06 12.39-29.26 12.39-12.2 29.57-12.2h83.19q17.25 0 28.97 12.2 11.73 12.2 11.73 29.26v82.69q0 17.18-11.73 29.58-11.72 12.39-28.97 12.39h-83.19Z"/></svg>