<svg xmlns="http://www.w3.org/2000/svg" height="48" viewBox="0 -960 960 960" width="48"><path d="M237.92-364.85h110.62v-39.46H247.69q-2.3 0-4.23-1.92-1.92-1.92-1.92-4.23v-139.08q0-2.31 1.92-4.23 1.93-1.92 4.23-1.92h100.85v-39.46H237.92q-15.54 0-25.69 10.33-10.15 10.33-10.15 26.13v158q0 15.54 10.15 25.69 10.15 10.15 25.69 10.15Zm158.23.31h117.93q15.87 0 25.86-10.15 9.98-10.15 9.98-25.7v-61.76q0-14.23-10.27-23.58-10.27-9.35-25.57-9.35h-72.31q-2.31 0-4.23-1.92-1.92-1.92-1.92-4.23v-48.62q0-2.3 1.92-4.23 1.92-1.92 4.23-1.92h108.15v-39.46H432q-15.54 0-25.69 10.15-10.16 10.15-10.16 25.7v61.76q0 15.27 10.44 25.06Q417.04-463 432-463h72.31q2.31 0 4.23 1.92 1.92 1.93 1.92 4.23v46.7q0 2.3-1.92 4.23-1.92 1.92-4.23 1.92H396.15v39.46Zm258.57-.31h51.43l69.31-230.3h-40.23l-54.46 187.54-49.69-187.54h-40.23l63.87 230.3ZM159.15-182.77q-22.61 0-39.34-16.73-16.73-16.73-16.73-39.35v-482.3q0-22.62 16.73-39.35t39.34-16.73h641.7q22.61 0 39.34 16.73 16.73 16.73 16.73 39.35v482.3q0 22.62-16.73 39.35t-39.34 16.73h-641.7Zm.08-43.85h641.54q4.61 0 8.46-3.84 3.85-3.85 3.85-8.46v-482.16q0-4.61-3.85-8.46-3.85-3.84-8.46-3.84H159.23q-4.61 0-8.46 3.84-3.85 3.85-3.85 8.46v482.16q0 4.61 3.85 8.46 3.85 3.84 8.46 3.84Zm-12.31 0v-506.76 506.76Z"/></svg>