<svg xmlns="http://www.w3.org/2000/svg" height="48" viewBox="0 -960 960 960" width="48"><path d="M439.5-180.5q-1-24-18-48.25t-37-49.75q-20-25.5-36-53.5t-16-60q0-61.62 43.56-104.81 43.56-43.19 104-43.19 61.44 0 104.69 43.19T628-392q0 32-16.25 60t-36.25 53.5q-20 25.5-36.5 49.75t-17 48.25h-82.5Zm40.6 102q-18.1 0-30.35-12.79Q437.5-104.07 437.5-122v-11H524v11q0 17.93-12.9 30.71-12.91 12.79-31 12.79Zm268.4-131q-10-9.5-12.5-26t6.5-30.5q24-35.5 38.5-79t14.5-95q0-46.64-14.75-91.07Q766-575.5 735-614.87q-8-13.13-6.75-28.92 1.25-15.79 11.75-26.71 17.5-17.5 40.5-14.5t34.5 24.5q34 46 53 102T887-440q0 63-16.5 118.5t-48.5 103q-13 19.5-34.75 22.75T748.5-209.5Zm-608-6.5q-32.26-49-49.63-105.5Q73.5-378 73.5-440q0-160.63 109.04-277.81Q291.58-835 455-845l37 2-54.5-55.5q-12-10.5-12-23.25t12-23.75q12-10 24.5-10.5t23.55 10.55L611.5-821q7.5 7.71 11 15.46 3.5 7.75 3.5 16.54 0 9.79-3.5 18.04t-11 14.96l-126 125.5q-11.55 10.5-25.02 10.75-13.48.25-22.98-10.5-10.5-9.75-10.5-24T437.5-678l70-70.5-50.5-4q-126.38 8-208.69 99Q166-562.51 166-439.87 166-400 177.25-353q11.25 47 39.25 87 9 14 8 30t-12 25.5q-16 16.5-37.5 15.25T140.5-216Z"/></svg>