<svg xmlns="http://www.w3.org/2000/svg" height="40" width="40"><path d="M7.125 11.375q-.333 0-.583-.25-.25-.25-.25-.583 0-.375.25-.625t.625-.25h25.75q.291 0 .541.25.25.25.25.583 0 .375-.25.625t-.583.25Zm0 4.917q-.333 0-.583-.25-.25-.25-.25-.625t.25-.625q.25-.25.625-.25h25.75q.291 0 .541.271.25.27.25.562 0 .417-.25.667-.25.25-.583.25Zm.667 14.041q-.667 0-1.084-.437-.416-.438-.416-1.063v-7.875q0-.666.416-1.083.417-.417 1.084-.417h24.416q.667 0 1.084.417.416.417.416 1.083v7.875q0 .625-.416 1.063-.417.437-1.084.437Z"/></svg>