<svg xmlns="http://www.w3.org/2000/svg" height="40" viewBox="0 -960 960 960" width="40"><path d="M158.95-200q-16.96 0-28.62-11.66t-11.66-28.62v-204.41q0-16.32 11.66-27.97 11.66-11.65 28.62-11.65h642.77q16.31 0 27.96 11.65 11.65 11.65 11.65 27.97v204.41q0 16.96-11.65 28.62T801.72-200H158.95Zm-6.15-354.57q-14.35 0-24.24-10.05-9.89-10.05-9.89-24 0-13.94 9.89-23.74 9.89-9.79 24.24-9.79h655.07q13.7 0 23.58 9.93 9.88 9.93 9.88 23.87 0 13.95-9.88 23.87-9.88 9.91-23.58 9.91H152.8Zm0-137.84q-14.35 0-24.24-10.05-9.89-10.06-9.89-24 0-13.95 9.89-23.74 9.89-9.8 24.24-9.8h655.07q13.7 0 23.58 9.93 9.88 9.93 9.88 23.88 0 13.94-9.88 23.86t-23.58 9.92H152.8Z"/></svg>