<svg xmlns="http://www.w3.org/2000/svg" height="48" viewBox="0 -960 960 960" width="48"><path d="M199.38-225q-23.05 0-39.22-16.16Q144-257.33 144-280.38v-400.24q0-23.05 16.16-38.72Q176.33-735 199.38-735h92.39q23.06 0 38.72 15.66 15.66 15.67 15.66 38.72v400.24q0 23.05-15.66 39.22Q314.83-225 291.77-225h-92.39Zm236.31 0q-23.06 0-39.22-16.16-16.16-16.17-16.16-39.22v-400.24q0-23.05 16.16-38.72Q412.63-735 435.69-735h90.62q23.06 0 38.72 15.66 15.66 15.67 15.66 38.72v400.24q0 23.05-15.66 39.22Q549.37-225 526.31-225h-90.62Zm234.54 0q-23.06 0-39.22-16.16-16.16-16.17-16.16-39.22v-400.24q0-23.05 16.16-38.72Q647.17-735 670.23-735h91.39q23.05 0 39.22 15.66Q817-703.67 817-680.62v400.24q0 23.05-16.16 39.22Q784.67-225 761.62-225h-91.39Z"/></svg>