<svg xmlns="http://www.w3.org/2000/svg" height="48" viewBox="0 -960 960 960" width="48"><path d="M479.87-92Q363-92 287.5-121.21 212-150.43 212-219.5q0-69.07 75.63-98.29Q363.26-347 480.13-347t192.37 29.21Q748-288.57 748-219.5q0 69.07-75.63 98.29Q596.74-92 479.87-92Zm.13-82q-112 0-171.5-23T250-264q-8 8-10.5 21t-2.5 24q0 47 65.5 74.5T480-117q112 0 177.5-27.5T723-219q0-11-2.5-24T710-264q1 44-58.5 67T480-174Zm0-25q93 0 147.5-16.5t54.5-45q0-28.5-54.5-45T480-322q-93 0-148 16.5t-55 45q0 28.5 55 45T480-199Zm-31-363h-39.93q-8.07 0-12.07-6.5t-.11-13.65L499-762q2-5 7-4t5 7.49V-626h39.93q8.07 0 12.07 6.5t.11 13.65L461-426q-2 5-7 4t-5-7.49V-562Zm31 363Zm0 82Zm-2-57Z"/></svg>