<svg xmlns="http://www.w3.org/2000/svg" height="20" viewBox="0 -960 960 960" width="20"><path d="M240-168h480q10.2 0 17.1-6.9 6.9-6.9 6.9-17.1v-24H216v24q0 10.2 6.9 17.1 6.9 6.9 17.1 6.9Zm240-480q-45 0-76.5-31.5T372-756q0-44 27-77t58-59q5-5 11-7t12-2q6 0 12 2t11 7q31 26 58 59t27 77q0 45-31.5 76.5T480-648Zm-48 360h96v-240h-96v240Zm48-432q15 0 25.5-10.452Q516-740.903 516-756q0-17.756-11.354-32.378Q493.293-803 480.146-816 467-803 455.5-788.378T444-756q0 15.097 10.5 25.548Q465-720 480-720Zm324 432q15 0 25.5-10.5T840-324q0-15-10.5-25.5T804-360q-15 0-25.5 10.5T768-324q0 15 10.5 25.5T804-288ZM708-96H252q-45 0-76.5-31.5T144-204v-48q0-15.3 10.35-25.65Q164.7-288 180-288h180v-240q0-29.7 21.15-50.85Q402.3-600 432-600h96q29.7 0 50.85 21.15Q600-557.7 600-528v240h102q-3-8-4.5-16.909Q696-313.818 696-324q0-45.164 31.385-76.582Q758.769-432 803.885-432 849-432 880.5-400.582 912-369.164 912-324q0 42-27.5 72T816-217v13q0 45-31.5 76.5T708-96Zm-228-72Zm-48-120h96-96Zm48-480Z"/></svg>