<svg xmlns="http://www.w3.org/2000/svg" height="20" viewBox="0 -960 960 960" width="20"><path d="M478.304-642.913q-48.391 0-83.283-34.609-34.891-34.608-34.326-83 0-45.696 27.565-80.391 27.566-34.696 60.827-62.957 6.13-6.696 14.108-8.979 7.979-2.282 15.109-2.282 7.131 0 15.109 2.565t14.109 8.696q33.261 28.261 61.109 62.957 27.848 34.695 27.848 80.391 0 48.392-34.892 83-34.891 34.609-83.283 34.609ZM805.13-297.044q16.131 0 28.044-11.63 11.913-11.631 11.913-27.761 0-16.131-11.913-27.761-11.913-11.631-28.044-11.631-16.13 0-27.76 11.631-11.631 11.63-11.631 27.761 0 16.13 11.631 27.761 11.63 11.63 27.76 11.63ZM705.174-76.782H254.826q-54.044 0-92.044-38t-38-92.044v-41.217q0-20.087 14.456-34.544 14.457-14.457 34.544-14.457H349.26v-199.867q0-41.305 28.349-69.654 28.348-28.348 69.653-28.348h62.085q41.305 0 69.653 28.348 28.348 28.349 28.348 69.654v199.867h78.825q-3-8-4.782-18.413-1.783-10.413-1.783-20.978 0-52.349 36.587-88.936 36.587-36.587 88.935-36.587 52.349 0 89.219 36.587 36.869 36.587 36.869 88.936 0 44.261-27.5 77.087t-68.5 41.783v10.739q0 54.044-38 92.044t-92.044 38Z"/></svg>