<svg xmlns="http://www.w3.org/2000/svg" height="20" viewBox="0 -960 960 960" width="20"><path d="m770.31-145.62-70.46-70.46q-45.7 37.39-101.85 58.23Q541.85-137 480-137q-70.54 0-133.23-26.92-62.69-26.93-109.81-74.04-47.11-47.12-74.04-109.81Q136-410.46 136-481q0-61.85 20.85-118 20.84-56.15 58.23-101.85l-70.46-71.46 22.53-22.54 625.7 626.7-22.54 22.53ZM302.15-304.15l208.31-101.31L405-510.92 302.15-304.15Zm466.62 11.46L576.54-484.92l81.31-173.93-173.93 81.31-192.23-192.23q41.85-26.61 89.54-40.92Q428.92-825 480-825q71.54 0 133.73 26.92 62.19 26.93 109.31 74.04 47.11 47.12 74.04 109.31Q824-552.54 824-481q0 51.08-14.81 98.27t-40.42 90.04Z"/></svg>