<svg xmlns="http://www.w3.org/2000/svg" height="48" viewBox="0 -960 960 960" width="48"><path d="m571.23-488.62-82.85-82.84 184.24-100.69-101.39 183.53Zm232.54 376.08-91.92-91.15q-46.93 39.07-105.77 61.38Q547.23-120 480-120q-75.16 0-140.86-27.73-65.7-27.74-114.69-76.72-48.98-48.99-76.72-114.69Q120-404.84 120-480q0-67.23 22.31-126.08 22.31-58.84 61.38-105.77l-91.15-91.92 22.23-21.46 690.46 690.46-21.46 22.23Zm-23.62-167.15-22.23-22.23q24.16-38.16 37.73-83.31 13.58-45.15 13.58-94.77 0-138.08-95.58-233.65-95.57-95.58-233.65-95.58-49.62 0-94.77 13.58-45.15 13.57-83.31 37.73l-22.23-22.23q42.87-28.47 93.36-44.16Q423.54-840 480-840q74.93 0 140.63 27.85 65.7 27.85 114.69 76.83 48.98 48.99 76.83 114.69Q840-554.93 840-480q0 56.46-15.69 106.95t-44.16 93.36ZM529.92-529.92Zm-72.15 72.15Zm22.23 307q60.38 0 114-19.73t96.38-55.42L508.46-407.08 287.62-285.92l123.61-218.39-185.31-186.07Q190.23-647.62 170.5-594q-19.73 53.62-19.73 114 0 138.08 95.58 233.65 95.57 95.58 233.65 95.58Z"/></svg>