<svg xmlns="http://www.w3.org/2000/svg" height="40" width="40"><path d="m19.208 26.625 2.417-2.417-4.875-4.875v-6.958h-3.458v8.292ZM30.25 34.5V30q2.833-1.5 4.5-4.146 1.667-2.646 1.667-5.854t-1.667-5.896q-1.667-2.687-4.5-4.146v-4.5q4.583 1.709 7.396 5.667 2.812 3.958 2.812 8.833t-2.812 8.854q-2.813 3.98-7.396 5.688Zm-15.292.875q-3.166 0-5.979-1.208-2.812-1.209-4.917-3.292Q1.958 28.792.75 25.979q-1.208-2.812-1.208-6.021 0-3.166 1.208-5.979 1.208-2.812 3.312-4.896Q6.167 7 8.979 5.771q2.813-1.229 5.979-1.229 3.209 0 6.021 1.229Q23.792 7 25.875 9.083q2.083 2.084 3.313 4.896 1.229 2.813 1.229 5.979 0 3.209-1.229 6.021-1.23 2.813-3.313 4.896-2.083 2.083-4.896 3.292-2.812 1.208-6.021 1.208Zm0-4q4.75 0 8.084-3.333 3.333-3.334 3.333-8.084 0-4.708-3.354-8.041-3.354-3.334-8.063-3.334-4.75 0-8.062 3.334-3.313 3.333-3.313 8.041 0 4.792 3.313 8.104 3.312 3.313 8.062 3.313Zm0-11.417Z"/></svg>