<svg xmlns="http://www.w3.org/2000/svg" height="40" width="40"><path d="M6.542 29.917Q5.417 29.917 4.667 29.146Q3.917 28.375 3.917 27.25V19Q3.917 18.167 4.542 17.562Q5.167 16.958 6.042 16.958Q6.917 16.958 7.562 17.542Q8.208 18.125 8.208 19V24.292H31.792V19Q31.792 18.125 32.438 17.542Q33.083 16.958 33.958 16.958Q34.833 16.958 35.458 17.542Q36.083 18.125 36.083 19V27.25Q36.083 28.375 35.333 29.146Q34.583 29.917 33.458 29.917ZM9.208 23.333V18.583Q9.208 17.458 8.479 16.688Q7.75 15.917 6.667 15.833V13.458Q6.667 12.333 7.417 11.542Q8.167 10.75 9.333 10.75H30.708Q31.833 10.75 32.583 11.542Q33.333 12.333 33.333 13.458V15.875Q32.292 16 31.562 16.771Q30.833 17.542 30.833 18.583V23.333Z"/></svg>