<svg xmlns="http://www.w3.org/2000/svg" height="48" width="48"><path d="M36.7 31.95 24 19.25V8.95l-5.2 5.15-1.1-1.05 5.35-5.3q.2-.15.425-.25.225-.1.525-.1.3 0 .55.125.25.125.4.225l8.95 8.75q2.05 2 3.05 4.65 1 2.65 1 5.15 0 1.45-.375 3.025T36.7 31.95Zm2.65 9.85-5.7-5.7q-2.1 2.05-4.6 2.95-2.5.9-5.05.9-5.75 0-9.85-3.925t-4.1-9.725q0-2.45.875-4.925Q11.8 18.9 14.1 16.55l-6.5-6.5q-.2-.2-.225-.525Q7.35 9.2 7.6 8.95q.25-.2.55-.2.3 0 .55.2L40.45 40.7q.2.25.225.575.025.325-.225.525-.2.25-.525.25t-.575-.25ZM24 38.45V26.4l-8.8-8.8q-2.15 2.1-2.9 4.3-.75 2.2-.75 4.4 0 5.15 3.65 8.65t8.8 3.5Z"/></svg>