<svg xmlns="http://www.w3.org/2000/svg" version="1.1" width="3300" height="2000"><g id="Notes"><style>
    text {
      font-family: monospace;
      text-anchor: middle;
    }
    text.emphasis {
      font-weight:bold;
    }
    text.lanchor {
      text-anchor: start;
    }
  </style><rect height="2200" id="artboard" fill="white" width="3300" x="0" y="0"/><line id="" style="fill:none;stroke:black;stroke-width:0.5;" x1="263" x2="3036" y1="292" y2="292"/><text class="lanchor emphasis" transform="matrix(1 0 0 1 263 322)">Weight/Scale Variations</text><text transform="matrix(1 0 0 1 559.711 322)">Ultralight</text><text transform="matrix(1 0 0 1 856.422 322)">Thin</text><text transform="matrix(1 0 0 1 1153.13 322)">Light</text><text transform="matrix(1 0 0 1 1449.84 322)">Regular</text><text transform="matrix(1 0 0 1 1746.56 322)">Medium</text><text transform="matrix(1 0 0 1 2043.27 322)">Semibold</text><text transform="matrix(1 0 0 1 2339.98 322)">Bold</text><text transform="matrix(1 0 0 1 2636.69 322)">Heavy</text><text transform="matrix(1 0 0 1 2933.4 322)">Black</text><text id="template-version" style="text-anchor: end;" transform="matrix(1 0 0 1 3036 1933)">Template v.1.0</text><text class="lanchor" transform="matrix(1 0 0 1 263 726)">Small</text><text class="lanchor" transform="matrix(1 0 0 1 263 1156)">Medium</text><text class="lanchor" transform="matrix(1 0 0 1 263 1586)">Large</text></g><g id="Guides"><g id="H-reference" style="fill:#27AAE1;stroke:none;" transform="matrix(1 0 0 1 339 696)"><path d="M 54.9316 0 L 57.666 0 L 30.5664 -70.459 L 28.0762 -70.459 L 0.976562 0 L 3.66211 0 L 12.9395 -24.4629 L 45.7031 -24.4629 Z M 29.1992 -67.0898 L 29.4434 -67.0898 L 44.8242 -26.709 L 13.8184 -26.709 Z"/></g><line id="Baseline-S" style="fill:none;stroke:#27AAE1;opacity:1;stroke-width:0.577;" x1="263" x2="3036" y1="696" y2="696"/><line id="Capline-S" style="fill:none;stroke:#27AAE1;opacity:1;stroke-width:0.577;" x1="263" x2="3036" y1="625.541" y2="625.541"/><g id="H-reference" style="fill:#27AAE1;stroke:none;" transform="matrix(1 0 0 1 339 1126)"><path d="M 54.9316 0 L 57.666 0 L 30.5664 -70.459 L 28.0762 -70.459 L 0.976562 0 L 3.66211 0 L 12.9395 -24.4629 L 45.7031 -24.4629 Z M 29.1992 -67.0898 L 29.4434 -67.0898 L 44.8242 -26.709 L 13.8184 -26.709 Z"/></g><line id="Baseline-M" style="fill:none;stroke:#27AAE1;opacity:1;stroke-width:0.577;" x1="263" x2="3036" y1="1126" y2="1126"/><line id="Capline-M" style="fill:none;stroke:#27AAE1;opacity:1;stroke-width:0.577;" x1="263" x2="3036" y1="1055.54" y2="1055.54"/><g id="H-reference" style="fill:#27AAE1;stroke:none;" transform="matrix(1 0 0 1 339 1556)"><path d="M 54.9316 0 L 57.666 0 L 30.5664 -70.459 L 28.0762 -70.459 L 0.976562 0 L 3.66211 0 L 12.9395 -24.4629 L 45.7031 -24.4629 Z M 29.1992 -67.0898 L 29.4434 -67.0898 L 44.8242 -26.709 L 13.8184 -26.709 Z"/></g><line id="Baseline-L" style="fill:none;stroke:#27AAE1;opacity:1;stroke-width:0.577;" x1="263" x2="3036" y1="1556" y2="1556"/><line id="Capline-L" style="fill:none;stroke:#27AAE1;opacity:1;stroke-width:0.577;" x1="263" x2="3036" y1="1485.54" y2="1485.54"/><rect height="119.336" id="left-margin" style="fill:darkred;stroke:none;opacity:0.4;" width="12.4512" x="1394.06" y="1030.79"/><rect height="119.336" id="right-margin" style="fill:darkgreen;stroke:none;opacity:0.4;" width="12.4512" x="1502.5112" y="1030.79"/><rect x="1406.5112" y="1045" width="96" height="96" fill="none" stroke="blue" stroke-dasharray="5"/><rect x="1394.06" y="1030.79" width="120.9024" height="119.336" fill="none" stroke="blue"/></g><g id="Symbols"><g id="Bold-L" transform="matrix(1 0 0 1 2266 1556)"><path d="M120.615 -7.49499999999999  108.52125 -19.749999999999986  124.16250000000001 -35.39125 Q124.16250000000001 -35.39125 124.16250000000001 -35.39125 Q124.16250000000001 -35.39125 124.16250000000001 -35.39125 L76.11000000000001 -83.44375 Q76.11000000000001 -83.44375 76.11000000000001 -83.44375 Q76.11000000000001 -83.44375 76.11000000000001 -83.44375 L60.3075 -67.8025 L48.0525 -80.0575 L65.78999999999999 -97.95625 Q68.0475 -100.21374999999999 70.70812500000001 -101.100625 Q73.36875 -101.9875 76.11000000000001 -101.9875 Q79.0125 -101.9875 81.75375000000001 -101.02 Q84.495 -100.0525 86.26875 -97.95625 L138.19125 -46.03375 Q142.54500000000002 -41.51875 142.38375 -35.31062499999999 Q142.2225 -29.102499999999992 138.19125 -25.071249999999992 L120.615 -7.49499999999999 Z M129.48375 33.30125000000001  104.49 8.46875  86.59125 26.528750000000002 Q84.65625 28.786250000000024 81.995625 29.834374999999994 Q79.33500000000001 30.88250000000002 76.27125 30.88250000000002 Q73.2075 30.88250000000002 70.46625 29.753749999999997 Q67.72500000000001 28.625 65.62875000000001 26.528750000000002 L13.70625 -25.232499999999987 Q11.932500000000001 -27.32875 10.884375 -30.069999999999993 Q9.83625 -32.81124999999999 9.83625 -35.874999999999986 Q9.83625 -38.7775 10.884375 -41.51875 Q11.932500000000001 -44.25999999999999 13.70625 -46.19499999999999 L31.927500000000002 -64.255 L8.223749999999999 -88.28125 L15.802500000000002 -96.1825 L137.7075 25.56125 L129.48375 33.30125000000001 Z M27.896250000000002 -35.71374999999999  76.11000000000001 12.66125000000001 Q76.11000000000001 12.66125000000001 76.11000000000001 12.66125000000001 Q76.11000000000001 12.66125000000001 76.11000000000001 12.66125000000001 L92.23500000000001 -3.625 L86.26875 -9.752499999999998 L76.11000000000001 0.7287500000000051 L39.82875 -35.71374999999999 L49.987500000000004 -45.71124999999999 L43.86 -51.677499999999995 L27.896250000000002 -35.71374999999999 Q27.896250000000002 -35.71374999999999 27.896250000000002 -35.71374999999999 Q27.896250000000002 -35.71374999999999 27.896250000000002 -35.71374999999999 Z M102.39375 -25.554999999999993  66.27375 -61.67499999999999  76.11000000000001 -71.51124999999999  112.22999999999999 -35.39125  102.39375 -25.554999999999993 Z"/></g><g id="Semibold-L" transform="matrix(1 0 0 1 1970.27 1556)"><path d="M119.16375000000001 -8.14  108.68250000000002 -18.621250000000003  125.4525 -35.39125 Q125.4525 -35.39125 125.4525 -35.39125 Q125.4525 -35.39125 125.4525 -35.39125 L76.59375 -84.41125 Q76.59375 -84.41125 76.59375 -84.41125 Q76.59375 -84.41125 76.59375 -84.41125 L59.6625 -67.64125 L49.18125 -78.28375 L67.88625 -97.14999999999999 Q69.66000000000001 -98.92375 71.998125 -99.64937499999999 Q74.33625 -100.375 76.59375 -100.375 Q79.0125 -100.375 81.27 -99.64937499999999 Q83.5275 -98.92375 85.14 -97.14999999999999 L137.86875 -44.25999999999999 Q141.41625000000002 -40.55124999999998 141.255 -35.31062499999999 Q141.09375 -30.069999999999993 137.86875 -26.683750000000003 L119.16375000000001 -8.14 Z M130.6125 32.817500000000024  104.32875000000001 6.695000000000007  85.30125 25.88375000000002 Q83.68875 27.6575 81.43125 28.463750000000005 Q79.17375 29.27000000000001 76.75500000000001 29.27000000000001 Q74.175 29.27000000000001 71.83687499999999 28.383125000000007 Q69.49875 27.496250000000003 67.72500000000001 25.88375000000002 L14.996250000000002 -26.844999999999985 Q13.383750000000001 -28.61874999999999 12.5775 -30.876249999999985 Q11.77125 -33.13374999999999 11.77125 -35.71374999999999 Q11.77125 -38.29374999999999 12.5775 -40.55124999999998 Q13.383750000000001 -42.80875 14.996250000000002 -44.42125 L34.185 -63.61 L9.19125 -88.76499999999999 L16.28625 -96.1825 L138.03 25.56125 L130.6125 32.817500000000024 Z M27.4125 -35.552499999999995  76.59375 13.628749999999997 Q76.59375 13.628749999999997 76.59375 13.628749999999997 Q76.59375 13.628749999999997 76.59375 13.628749999999997 L93.68625 -3.7862499999999955 L87.23625 -10.236249999999998 L76.59375 0.7287500000000051 L40.3125 -35.552499999999995 L50.955000000000005 -46.19499999999999 L44.505 -52.80624999999999 L27.4125 -35.552499999999995 Q27.4125 -35.552499999999995 27.4125 -35.552499999999995 Q27.4125 -35.552499999999995 27.4125 -35.552499999999995 Z M102.2325 -25.071249999999992  66.1125 -61.19125  76.59375 -71.51124999999999  112.71375000000002 -35.39125  102.2325 -25.071249999999992 Z"/></g><g id="Medium-L" transform="matrix(1 0 0 1 1674.31 1556)"><path d="M118.19624999999999 -8.623749999999987  109.005 -17.814999999999998  126.42000000000002 -35.39125 Q126.42000000000002 -35.39125 126.42000000000002 -35.39125 Q126.42000000000002 -35.39125 126.42000000000002 -35.39125 L76.91625 -85.05624999999999 Q76.91625 -85.05624999999999 76.91625 -85.05624999999999 Q76.91625 -85.05624999999999 76.91625 -85.05624999999999 L59.17875000000001 -67.47999999999999 L49.987500000000004 -76.8325 L69.66000000000001 -96.505 Q71.11125 -98.11749999999999 73.04625 -98.76249999999999 Q74.98125 -99.4075 76.91625 -99.4075 Q79.0125 -99.4075 80.9475 -98.68187499999999 Q82.8825 -97.95625 84.17250000000001 -96.505 L137.54625 -42.969999999999985 Q140.61 -39.906249999999986 140.44875 -35.31062499999999 Q140.2875 -30.715000000000003 137.54625 -27.973749999999995 L118.19624999999999 -8.623749999999987 Z M131.41875000000002 32.33375000000001  104.16749999999999 5.243750000000006  84.33375 25.23875000000001 Q83.04375 26.85125000000002 81.10875 27.496250000000003 Q79.17375 28.141250000000014 77.0775 28.141250000000014 Q74.82 28.141250000000014 72.804375 27.415625000000006 Q70.78875 26.690000000000026 69.3375 25.23875000000001 L15.963750000000001 -27.973749999999995 Q14.67375 -29.586249999999993 13.948125000000001 -31.521249999999995 Q13.222499999999998 -33.45625 13.222499999999998 -35.71374999999999 Q13.222499999999998 -37.81 13.948125000000001 -39.74499999999999 Q14.67375 -41.67999999999999 15.963750000000001 -42.969999999999985 L35.95875 -62.964999999999996 L9.83625 -89.24875 L16.60875 -96.1825 L138.3525 25.56125 L131.41875000000002 32.33375000000001 Z M27.090000000000003 -35.552499999999995  76.91625 14.273750000000007 Q76.91625 14.273750000000007 76.91625 14.273750000000007 Q76.91625 14.273750000000007 76.91625 14.273750000000007 L94.815 -3.9474999999999767 L88.20375000000001 -10.719999999999985 L76.91625 0.7287500000000051 L40.635 -35.552499999999995 L51.92250000000001 -46.678749999999994 L45.15 -53.45124999999999 L27.090000000000003 -35.552499999999995 Q27.090000000000003 -35.552499999999995 27.090000000000003 -35.552499999999995 Q27.090000000000003 -35.552499999999995 27.090000000000003 -35.552499999999995 Z M102.07124999999999 -24.58749999999999  65.95125 -60.70749999999999  76.91625 -71.51124999999999  113.03625 -35.39125  102.07124999999999 -24.58749999999999 Z"/></g><g id="Regular-L" transform="matrix(1 0 0 1 1378.56 1556)"><path d="M117.39 -8.946249999999992  109.16625 -17.331249999999997  127.22625000000001 -35.39125 Q127.22625000000001 -35.39125 127.22625000000001 -35.39125 Q127.22625000000001 -35.39125 127.22625000000001 -35.39125 L77.0775 -85.53999999999999 Q77.0775 -85.53999999999999 77.0775 -85.53999999999999 Q77.0775 -85.53999999999999 77.0775 -85.53999999999999 L59.017500000000005 -67.47999999999999 L50.6325 -75.865 L70.78875 -96.1825 Q72.07875000000001 -97.4725 73.77187500000001 -98.036875 Q75.465 -98.60125 77.23875 -98.60125 Q79.0125 -98.60125 80.705625 -97.95625 Q82.39875 -97.31125 83.5275 -96.1825 L137.38500000000002 -42.16374999999999 Q139.965 -39.4225 139.884375 -35.39125 Q139.80375 -31.36 137.38500000000002 -28.941249999999997 L117.39 -8.946249999999992 Z M132.06375 32.01125000000002  104.16749999999999 4.2762500000000045  83.68875 24.755000000000024 Q82.56 26.045000000000016 80.866875 26.690000000000026 Q79.17375 27.335000000000008 77.23875 27.335000000000008 Q75.30375000000001 27.335000000000008 73.53 26.690000000000026 Q71.75625000000001 26.045000000000016 70.6275 24.755000000000024 L16.77 -28.941249999999997 Q15.64125 -30.23124999999999 14.996250000000002 -32.004999999999995 Q14.35125 -33.77875 14.35125 -35.71374999999999 Q14.35125 -37.4875 14.996250000000002 -39.26124999999999 Q15.64125 -41.035 16.77 -42.16374999999999 L37.24875 -62.64249999999999 L10.481250000000001 -89.73249999999999 L16.77 -96.1825 L138.675 25.56125 L132.06375 32.01125000000002 Z M26.92875 -35.552499999999995  77.0775 14.757500000000007 Q77.0775 14.757500000000007 77.0775 14.757500000000007 Q77.0775 14.757500000000007 77.0775 14.757500000000007 L95.7825 -3.9474999999999767 L88.84875000000001 -11.04249999999999 L77.0775 0.7287500000000051 L40.957499999999996 -35.552499999999995 L52.5675 -47.162499999999994 L45.4725 -54.09625 L26.92875 -35.552499999999995 Q26.92875 -35.552499999999995 26.92875 -35.552499999999995 Q26.92875 -35.552499999999995 26.92875 -35.552499999999995 Z M102.07124999999999 -24.265  65.95125 -60.385  77.0775 -71.51124999999999  113.1975 -35.39125  102.07124999999999 -24.265 Z"/></g><g id="Light-L" transform="matrix(1 0 0 1 1082.77 1556)"><path d="M114.81 -11.20375  108.52125 -17.653749999999988  125.13 -34.26249999999999 Q125.61375000000001 -34.907499999999985 125.61375000000001 -35.39125 Q125.61375000000001 -35.874999999999986 125.13 -36.35875 L78.20625 -83.44375 Q77.72250000000001 -83.9275 77.158125 -83.9275 Q76.59375 -83.9275 75.94875 -83.44375 L59.17875000000001 -66.67374999999998 L52.88999999999999 -73.285 L70.95 -91.345 Q72.07875000000001 -92.63499999999999 73.77187500000001 -93.28 Q75.465 -93.925 77.23875 -93.925 Q79.0125 -93.925 80.625 -93.28 Q82.2375 -92.63499999999999 83.36625000000001 -91.345 L132.70875 -41.84125 Q135.28875000000002 -39.099999999999994 135.28875000000002 -35.31062499999999 Q135.28875000000002 -31.521249999999995 132.87 -29.263749999999987 L114.81 -11.20375 Z M129.645 28.141250000000014  102.555 1.0512500000000102  83.68875 20.078750000000014 Q82.39875 21.368750000000006 80.705625 22.013750000000016 Q79.0125 22.658750000000026 77.23875 22.658750000000026 Q75.30375000000001 22.658750000000026 73.610625 22.013750000000016 Q71.9175 21.368750000000006 70.78875 20.078750000000014 L21.446250000000003 -29.102499999999992 Q20.3175 -30.3925 19.6725 -32.08562499999999 Q19.027500000000003 -33.77875 19.027500000000003 -35.71374999999999 Q19.027500000000003 -37.4875 19.6725 -39.18062499999999 Q20.3175 -40.87374999999999 21.446250000000003 -42.0025 L40.47375 -61.029999999999994 L14.028749999999999 -87.475 L18.86625 -92.47375 L134.64375 23.303750000000008 L129.645 28.141250000000014 Z M29.025000000000002 -34.42375  75.94875 12.66125000000001 Q76.59375 13.14500000000001 77.158125 13.14500000000001 Q77.72250000000001 13.14500000000001 78.20625 12.66125000000001 L95.94375000000001 -5.237499999999997 L87.075 -14.267499999999998 L77.0775 -4.269999999999982 L45.956250000000004 -35.552499999999995 L55.792500000000004 -45.38874999999999 L46.7625 -54.41874999999999 L29.025000000000002 -36.51999999999998 Q28.541249999999998 -36.036249999999995 28.541249999999998 -35.471875 Q28.541249999999998 -34.907499999999985 29.025000000000002 -34.42375 Z M99.49125000000001 -26.683750000000003  68.37 -57.80499999999999  77.0775 -66.51249999999999  108.19874999999999 -35.39125  99.49125000000001 -26.683750000000003 Z"/></g><g id="Thin-L" transform="matrix(1 0 0 1 787.282 1556)"><path d="M112.22999999999999 -13.461249999999993  107.87625000000001 -17.976249999999993  123.19500000000001 -33.29499999999999 Q124.16250000000001 -34.26249999999999 124.16250000000001 -35.39125 Q124.16250000000001 -36.51999999999998 123.19500000000001 -37.32624999999999 L79.17375 -81.50874999999999 Q78.3675 -82.315 77.158125 -82.395625 Q75.94875 -82.47625 74.82 -81.50874999999999 L59.50125 -66.02875 L55.14750000000001 -70.70499999999998 L71.11125 -86.5075 Q72.24 -87.7975 73.85249999999999 -88.523125 Q75.465 -89.24875 77.23875 -89.24875 Q78.85125 -89.24875 80.46375 -88.60374999999999 Q82.07625 -87.95875 83.36625000000001 -86.66874999999999 L128.19375 -41.67999999999999 Q130.77375 -38.938749999999985 130.77375 -35.39125 Q130.77375 -31.843749999999986 128.19375 -29.424999999999997 L112.22999999999999 -13.461249999999993 Z M127.22625000000001 24.27125000000001  100.78125 -2.012500000000003  83.5275 15.402500000000003 Q82.39875 16.692500000000024 80.705625 17.337500000000006 Q79.0125 17.982500000000016 77.23875 17.982500000000016 Q75.465 17.982500000000016 73.77187500000001 17.256875000000008 Q72.07875000000001 16.53125 70.95 15.402500000000003 L26.1225 -29.263749999999987 Q25.155 -30.553749999999994 24.429375 -32.16624999999999 Q23.70375 -33.77875 23.70375 -35.71374999999999 Q23.70375 -37.32624999999999 24.429375 -39.019375 Q25.155 -40.71249999999999 26.1225 -41.84125 L43.5375 -59.4175 L17.57625 -85.37875 L20.80125 -88.92625 L130.77375 20.88499999999999 L127.22625000000001 24.27125000000001 Z M31.121250000000003 -33.45625  74.98125 10.726250000000007 Q75.94875 11.693749999999994 77.158125 11.693749999999994 Q78.3675 11.693749999999994 79.17375 10.726250000000007 L96.26625000000001 -6.3662499999999795 L85.4625 -17.331249999999997 L77.0775 -9.268749999999997 L50.955000000000005 -35.552499999999995 L59.017500000000005 -43.614999999999995 L47.89125 -54.57999999999999 L31.121250000000003 -37.64874999999999 Q30.15375 -36.68124999999999 30.15375 -35.471875 Q30.15375 -34.26249999999999 31.121250000000003 -33.45625 Z M96.91125000000001 -28.941249999999997  70.6275 -55.224999999999994  76.91625 -61.513749999999995  103.2 -35.22999999999999  96.91125000000001 -28.941249999999997 Z"/></g><g id="Ultralight-L" transform="matrix(1 0 0 1 491.205 1556)"><path d="M110.77875 -14.912499999999994  107.55375000000001 -18.13749999999999  122.06625000000001 -32.64999999999999 Q123.19500000000001 -33.94 123.19500000000001 -35.39125 Q123.19500000000001 -36.84249999999999 122.06625000000001 -37.97125 L79.81875000000001 -80.21875 Q78.69 -81.3475 77.158125 -81.428125 Q75.62625 -81.50874999999999 74.175 -80.21875 L59.6625 -65.70624999999998 L56.4375 -69.0925 L71.27250000000001 -83.60499999999999 Q72.24 -84.895 73.933125 -85.70124999999999 Q75.62625 -86.5075 77.4 -86.5075 Q78.85125 -86.5075 80.46375 -85.781875 Q82.07625 -85.05624999999999 83.36625000000001 -83.9275 L125.4525 -41.67999999999999 Q128.0325 -38.938749999999985 128.0325 -35.471875 Q128.0325 -32.004999999999995 125.61375000000001 -29.747500000000002 L110.77875 -14.912499999999994 Z M125.93625 21.85250000000002  99.81375 -3.9474999999999767  83.5275 12.5 Q82.39875 13.951250000000002 80.705625 14.515625 Q79.0125 15.080000000000013 77.4 15.080000000000013 Q75.465 15.080000000000013 73.85249999999999 14.354375000000005 Q72.24 13.628749999999997 71.11125 12.5 L29.025000000000002 -29.263749999999987 Q28.057499999999997 -30.553749999999994 27.331875 -32.16624999999999 Q26.60625 -33.77875 26.60625 -35.71374999999999 Q26.60625 -37.32624999999999 27.331875 -39.019375 Q28.057499999999997 -40.71249999999999 29.025000000000002 -41.84125 L45.4725 -58.44999999999999 L19.6725 -84.08875 L22.09125 -86.66874999999999 L128.355 19.433750000000003 L125.93625 21.85250000000002 Z M32.41125 -32.9725  74.33625 9.436250000000015 Q75.62625 10.726250000000007 77.158125 10.726250000000007 Q78.69 10.726250000000007 79.81875000000001 9.436250000000015 L96.4275 -7.172499999999985 L84.495 -19.427499999999995 L77.0775 -12.17125 L54.018750000000004 -35.71374999999999 L60.9525 -42.647499999999994 L48.6975 -54.741249999999994 L32.41125 -38.455 Q31.121250000000003 -37.16499999999999 31.121250000000003 -35.552499999999995 Q31.121250000000003 -33.94 32.41125 -32.9725 Z M95.29875 -30.3925  72.07875000000001 -53.61249999999999  76.91625 -58.44999999999999  100.29750000000001 -35.22999999999999  95.29875 -30.3925 Z"/></g><g id="Bold-M" transform="matrix(1 0 0 1 2281.8 1126)"><path d="M96.125 -14.22999999999999  83.75 -26.60499999999999  92.25 -35.22999999999999 Q92.25 -35.22999999999999 92.25 -35.22999999999999 Q92.25 -35.22999999999999 92.25 -35.22999999999999 L59.0 -68.60499999999999 Q59.0 -68.60499999999999 59.0 -68.60499999999999 Q59.0 -68.60499999999999 59.0 -68.60499999999999 L50.25 -59.97999999999999 L37.875 -72.35499999999999 L48.125 -82.72999999999999 Q50.375 -85.10499999999999 53.19 -86.16999999999999 Q56.0 -87.22999999999999 58.875 -87.22999999999999 Q61.75 -87.22999999999999 64.5 -86.16999999999999 Q67.25 -85.10499999999999 69.5 -82.85499999999999 L106.625 -45.85499999999999 Q111.125 -41.47999999999999 111.125 -35.35499999999999 Q111.125 -29.22999999999999 106.625 -24.72999999999999 L96.125 -14.22999999999999 Z M95.75 17.39500000000001  80.0 1.8950000000000102  69.5 12.27000000000001 Q67.25 14.64500000000001 64.565 15.710000000000008 Q61.875 16.77000000000001 59.0 16.77000000000001 Q56.0 16.77000000000001 53.25 15.64500000000001 Q50.5 14.52000000000001 48.25 12.27000000000001 L11.125 -24.72999999999999 Q8.875 -27.10499999999999 7.8100000000000005 -29.794999999999987 Q6.75 -32.47999999999999 6.75 -35.35499999999999 Q6.75 -38.22999999999999 7.8100000000000005 -40.91999999999999 Q8.875 -43.60499999999999 11.125 -45.85499999999999 L21.75 -56.47999999999999 L6.25 -72.10499999999999 L14.0 -80.22999999999999 L103.875 9.64500000000001 L95.75 17.39500000000001 Z M25.625 -35.35499999999999  59.0 -1.8549999999999898 Q59.0 -1.8549999999999898 59.0 -1.8549999999999898 Q59.0 -1.8549999999999898 59.0 -1.8549999999999898 L67.625 -10.60499999999999 L62.125 -16.35499999999999 L59.0 -12.97999999999999 L36.625 -35.35499999999999 L39.75 -38.35499999999999 L34.125 -43.97999999999999 L25.625 -35.35499999999999 Q25.625 -35.35499999999999 25.625 -35.35499999999999 Q25.625 -35.35499999999999 25.625 -35.35499999999999 Z M78.0 -32.10499999999999  55.75 -54.35499999999999  59.0 -57.47999999999999  81.25 -35.22999999999999  78.0 -32.10499999999999 Z"/></g><g id="Semibold-M" transform="matrix(1 0 0 1 1985.97 1126)"><path d="M94.625 -14.85499999999999  84.0 -25.47999999999999  93.625 -35.22999999999999 Q93.625 -35.22999999999999 93.625 -35.22999999999999 Q93.625 -35.22999999999999 93.625 -35.22999999999999 L59.375 -69.47999999999999 Q59.375 -69.47999999999999 59.375 -69.47999999999999 Q59.375 -69.47999999999999 59.375 -69.47999999999999 L49.625 -59.85499999999999 L39.0 -70.47999999999999 L50.25 -81.85499999999999 Q52.25 -83.85499999999999 54.565 -84.72999999999999 Q56.875 -85.60499999999999 59.25 -85.60499999999999 Q61.75 -85.60499999999999 64.06 -84.72999999999999 Q66.375 -83.85499999999999 68.25 -81.97999999999999 L106.125 -44.10499999999999 Q109.875 -40.47999999999999 109.875 -35.29499999999999 Q109.875 -30.10499999999999 106.125 -26.35499999999999 L94.625 -14.85499999999999 Z M96.875 16.89500000000001  79.875 0.020000000000010232  68.25 11.52000000000001 Q66.375 13.39500000000001 64.125 14.27000000000001 Q61.875 15.14500000000001 59.375 15.14500000000001 Q56.875 15.14500000000001 54.625 14.27000000000001 Q52.375 13.39500000000001 50.375 11.52000000000001 L12.5 -26.35499999999999 Q10.625 -28.35499999999999 9.75 -30.60499999999999 Q8.875 -32.85499999999999 8.875 -35.22999999999999 Q8.875 -37.72999999999999 9.75 -39.97999999999999 Q10.625 -42.22999999999999 12.5 -44.10499999999999 L24.125 -55.72999999999999 L7.25 -72.72999999999999 L14.375 -80.22999999999999 L104.25 9.64500000000001 L96.875 16.89500000000001 Z M25.125 -35.22999999999999  59.375 -0.9799999999999898 Q59.375 -0.9799999999999898 59.375 -0.9799999999999898 Q59.375 -0.9799999999999898 59.375 -0.9799999999999898 L69.25 -10.72999999999999 L63.25 -16.85499999999999 L59.375 -12.97999999999999 L37.0 -35.22999999999999 L40.875 -38.97999999999999 L34.875 -45.10499999999999 L25.125 -35.22999999999999 Q25.125 -35.22999999999999 25.125 -35.22999999999999 Q25.125 -35.22999999999999 25.125 -35.22999999999999 Z M77.875 -31.47999999999999  55.625 -53.72999999999999  59.375 -57.47999999999999  81.625 -35.22999999999999  77.875 -31.47999999999999 Z"/></g><g id="Medium-M" transform="matrix(1 0 0 1 1689.91 1126)"><path d="M93.5 -15.35499999999999  84.25 -24.72999999999999  94.625 -35.22999999999999 Q94.625 -35.22999999999999 94.625 -35.22999999999999 Q94.625 -35.22999999999999 94.625 -35.22999999999999 L59.75 -70.22999999999999 Q59.75 -70.22999999999999 59.75 -70.22999999999999 Q59.75 -70.22999999999999 59.75 -70.22999999999999 L49.25 -59.72999999999999 L39.875 -68.97999999999999 L52.0 -81.35499999999999 Q53.625 -82.97999999999999 55.565 -83.72999999999999 Q57.5 -84.47999999999999 59.625 -84.47999999999999 Q61.75 -84.47999999999999 63.69 -83.72999999999999 Q65.625 -82.97999999999999 67.25 -81.35499999999999 L105.875 -42.72999999999999 Q109.125 -39.72999999999999 109.125 -35.28999999999999 Q109.125 -30.85499999999999 105.875 -27.72999999999999 L93.5 -15.35499999999999 Z M97.625 16.39500000000001  79.75 -1.4799999999999898  67.25 10.89500000000001 Q65.625 12.52000000000001 63.69 13.27000000000001 Q61.75 14.02000000000001 59.75 14.02000000000001 Q57.625 14.02000000000001 55.685 13.27000000000001 Q53.75 12.52000000000001 52.125 10.89500000000001 L13.5 -27.72999999999999 Q11.875 -29.35499999999999 11.125 -31.22999999999999 Q10.375 -33.10499999999999 10.375 -35.22999999999999 Q10.375 -37.22999999999999 11.125 -39.16999999999999 Q11.875 -41.10499999999999 13.5 -42.72999999999999 L25.875 -55.22999999999999 L8.0 -73.22999999999999 L14.75 -80.22999999999999 L104.625 9.64500000000001 L97.625 16.39500000000001 Z M24.75 -35.22999999999999  59.75 -0.22999999999998977 Q59.75 -0.22999999999998977 59.75 -0.22999999999998977 Q59.75 -0.22999999999998977 59.75 -0.22999999999998977 L70.5 -10.85499999999999 L64.0 -17.35499999999999 L59.75 -12.97999999999999 L37.375 -35.22999999999999 L41.75 -39.47999999999999 L35.375 -45.85499999999999 L24.75 -35.22999999999999 Q24.75 -35.22999999999999 24.75 -35.22999999999999 Q24.75 -35.22999999999999 24.75 -35.22999999999999 Z M77.75 -31.10499999999999  55.5 -53.35499999999999  59.75 -57.47999999999999  82.0 -35.22999999999999  77.75 -31.10499999999999 Z"/></g><g id="Regular-M" transform="matrix(1 0 0 1 1394.06 1126)"><path d="M92.75 -15.72999999999999  84.375 -24.10499999999999  95.375 -35.22999999999999 Q95.375 -35.22999999999999 95.375 -35.22999999999999 Q95.375 -35.22999999999999 95.375 -35.22999999999999 L60.0 -70.72999999999999 Q60.0 -70.72999999999999 60.0 -70.72999999999999 Q60.0 -70.72999999999999 60.0 -70.72999999999999 L48.875 -59.60499999999999 L40.5 -67.97999999999999 L53.25 -80.85499999999999 Q54.625 -82.35499999999999 56.375 -83.04499999999999 Q58.125 -83.72999999999999 60.0 -83.72999999999999 Q61.875 -83.72999999999999 63.565 -83.04499999999999 Q65.25 -82.35499999999999 66.625 -80.97999999999999 L105.75 -41.85499999999999 Q108.5 -39.10499999999999 108.5 -35.28999999999999 Q108.5 -31.47999999999999 105.75 -28.72999999999999 L92.75 -15.72999999999999 Z M98.375 16.02000000000001  79.75 -2.4799999999999898  66.5 10.39500000000001 Q65.125 11.77000000000001 63.440000000000005 12.460000000000008 Q61.75 13.14500000000001 60.0 13.14500000000001 Q58.125 13.14500000000001 56.44 12.460000000000008 Q54.75 11.77000000000001 53.375 10.39500000000001 L14.25 -28.60499999999999 Q12.875 -30.10499999999999 12.190000000000001 -31.72999999999999 Q11.5 -33.35499999999999 11.5 -35.22999999999999 Q11.5 -36.97999999999999 12.190000000000001 -38.669999999999995 Q12.875 -40.35499999999999 14.25 -41.72999999999999 L27.25 -54.85499999999999 L8.625 -73.60499999999999 L15.0 -80.22999999999999 L104.875 9.64500000000001 L98.375 16.02000000000001 Z M24.625 -35.22999999999999  60.0 0.27000000000001023 Q60.0 0.27000000000001023 60.0 0.27000000000001023 Q60.0 0.27000000000001023 60.0 0.27000000000001023 L71.375 -10.97999999999999 L64.75 -17.72999999999999 L60.0 -12.97999999999999 L37.75 -35.22999999999999 L42.375 -39.85499999999999 L35.75 -46.47999999999999 L24.625 -35.22999999999999 Q24.625 -35.22999999999999 24.625 -35.22999999999999 Q24.625 -35.22999999999999 24.625 -35.22999999999999 Z M77.75 -30.72999999999999  55.5 -52.97999999999999  60.0 -57.47999999999999  82.25 -35.22999999999999  77.75 -30.72999999999999 Z"/></g><g id="Light-M" transform="matrix(1 0 0 1 1098.18 1126)"><path d="M90.125 -17.35499999999999  83.875 -23.60499999999999  94.625 -34.47999999999999 Q95.0 -34.85499999999999 95.0 -35.22999999999999 Q95.0 -35.60499999999999 94.625 -36.10499999999999 L60.75 -69.97999999999999 Q60.375 -70.35499999999999 59.94 -70.35499999999999 Q59.5 -70.35499999999999 59.125 -69.97999999999999 L48.25 -59.10499999999999 L42.0 -65.47999999999999 L53.75 -77.35499999999999 Q55.125 -78.72999999999999 56.69 -79.35499999999999 Q58.25 -79.97999999999999 59.875 -79.97999999999999 Q61.625 -79.97999999999999 63.125 -79.41999999999999 Q64.625 -78.85499999999999 65.875 -77.47999999999999 L102.125 -41.22999999999999 Q104.625 -38.72999999999999 104.69 -35.29499999999999 Q104.75 -31.85499999999999 102.25 -29.35499999999999 L90.125 -17.35499999999999 Z M97.375 13.14500000000001  78.625 -5.60499999999999  65.875 6.89500000000001 Q64.625 8.14500000000001 63.125 8.77000000000001 Q61.625 9.39500000000001 59.875 9.39500000000001 Q58.25 9.39500000000001 56.69 8.77000000000001 Q55.125 8.14500000000001 53.875 6.89500000000001 L17.75 -29.22999999999999 Q16.5 -30.47999999999999 15.875 -32.04499999999999 Q15.25 -33.60499999999999 15.25 -35.22999999999999 Q15.25 -36.97999999999999 15.875 -38.47999999999999 Q16.5 -39.97999999999999 17.75 -41.22999999999999 L30.375 -53.85499999999999 L11.5 -72.85499999999999 L16.25 -77.85499999999999 L102.375 8.27000000000001 L97.375 13.14500000000001 Z M25.25 -34.47999999999999  59.125 -0.47999999999998977 Q59.5 -0.10499999999998977 59.94 -0.10499999999998977 Q60.375 -0.10499999999998977 60.75 -0.47999999999998977 L72.375 -11.97999999999999 L64.5 -19.85499999999999 L60.0 -15.22999999999999 L39.875 -35.22999999999999 L44.5 -39.85499999999999 L36.625 -47.60499999999999 L25.25 -36.10499999999999 Q24.875 -35.72999999999999 24.875 -35.29499999999999 Q24.875 -34.85499999999999 25.25 -34.47999999999999 Z M76.125 -31.35499999999999  56.125 -51.35499999999999  59.875 -55.22999999999999  79.875 -35.22999999999999  76.125 -31.35499999999999 Z"/></g><g id="Thin-M" transform="matrix(1 0 0 1 802.565 1126)"><path d="M87.5 -18.85499999999999  83.375 -23.10499999999999  93.875 -33.72999999999999 Q94.625 -34.47999999999999 94.625 -35.29499999999999 Q94.625 -36.10499999999999 93.875 -36.85499999999999 L61.5 -69.22999999999999 Q60.75 -70.10499999999999 59.875 -70.10499999999999 Q59.0 -70.10499999999999 58.125 -69.22999999999999 L47.625 -58.72999999999999 L43.375 -62.85499999999999 L54.375 -73.97999999999999 Q55.5 -75.10499999999999 56.94 -75.72999999999999 Q58.375 -76.35499999999999 59.875 -76.35499999999999 Q61.375 -76.35499999999999 62.75 -75.79499999999999 Q64.125 -75.22999999999999 65.25 -74.10499999999999 L98.625 -40.72999999999999 Q100.875 -38.47999999999999 100.94 -35.41999999999999 Q101.0 -32.35499999999999 98.75 -30.10499999999999 L87.5 -18.85499999999999 Z M96.5 10.14500000000001  77.5 -8.85499999999999  65.375 3.2700000000000102 Q64.25 4.39500000000001 62.809999999999995 4.960000000000008 Q61.375 5.52000000000001 59.875 5.52000000000001 Q58.375 5.52000000000001 56.94 4.960000000000008 Q55.5 4.39500000000001 54.375 3.2700000000000102 L21.25 -29.85499999999999 Q20.125 -30.97999999999999 19.564999999999998 -32.419999999999995 Q19.0 -33.85499999999999 19.0 -35.35499999999999 Q19.0 -36.85499999999999 19.564999999999998 -38.29499999999999 Q20.125 -39.72999999999999 21.25 -40.85499999999999 L33.375 -52.97999999999999 L14.25 -72.22999999999999 L17.375 -75.47999999999999 L99.875 6.89500000000001 L96.5 10.14500000000001 Z M25.875 -33.72999999999999  58.25 -1.2299999999999898 Q59.0 -0.47999999999998977 59.875 -0.47999999999998977 Q60.75 -0.47999999999998977 61.5 -1.2299999999999898 L73.375 -13.10499999999999 L64.375 -22.10499999999999 L59.875 -17.60499999999999 L42.125 -35.35499999999999 L46.5 -39.85499999999999 L37.625 -48.72999999999999 L25.875 -36.97999999999999 Q25.125 -36.22999999999999 25.125 -35.35499999999999 Q25.125 -34.47999999999999 25.875 -33.72999999999999 Z M74.375 -32.10499999999999  56.625 -49.85499999999999  59.75 -52.97999999999999  77.5 -35.22999999999999  74.375 -32.10499999999999 Z"/></g><g id="Ultralight-M" transform="matrix(1 0 0 1 506.415 1126)"><path d="M86.0 -19.85499999999999  83.125 -22.85499999999999  93.5 -33.22999999999999 Q94.5 -34.22999999999999 94.5 -35.29499999999999 Q94.5 -36.35499999999999 93.5 -37.35499999999999 L62.0 -68.85499999999999 Q61.0 -69.85499999999999 59.815 -69.85499999999999 Q58.625 -69.85499999999999 57.625 -68.85499999999999 L47.25 -58.47999999999999 L44.25 -61.35499999999999 L54.75 -71.97999999999999 Q55.875 -72.97999999999999 57.190000000000005 -73.60499999999999 Q58.5 -74.22999999999999 59.875 -74.22999999999999 Q61.25 -74.22999999999999 62.56 -73.66999999999999 Q63.875 -73.10499999999999 64.875 -72.10499999999999 L96.5 -40.47999999999999 Q98.625 -38.22999999999999 98.69 -35.41999999999999 Q98.75 -32.60499999999999 96.625 -30.47999999999999 L86.0 -19.85499999999999 Z M96.0 8.27000000000001  76.875 -10.72999999999999  65.0 1.0200000000000102 Q64.0 2.1450000000000102 62.69 2.7050000000000125 Q61.375 3.2700000000000102 59.875 3.2700000000000102 Q58.5 3.2700000000000102 57.125 2.7050000000000125 Q55.75 2.1450000000000102 54.75 1.0200000000000102 L23.375 -30.22999999999999 Q22.25 -31.35499999999999 21.75 -32.72999999999999 Q21.25 -34.10499999999999 21.25 -35.47999999999999 Q21.25 -36.85499999999999 21.75 -38.16999999999999 Q22.25 -39.47999999999999 23.375 -40.60499999999999 L35.25 -52.47999999999999 L16.0 -71.85499999999999 L18.125 -74.10499999999999 L98.375 6.02000000000001 L96.0 8.27000000000001 Z M26.25 -33.35499999999999  57.75 -1.7299999999999898 Q58.75 -0.7299999999999898 59.875 -0.7299999999999898 Q61.0 -0.7299999999999898 62.0 -1.7299999999999898 L74.0 -13.72999999999999 L64.375 -23.47999999999999 L59.875 -18.97999999999999 L43.5 -35.47999999999999 L47.875 -39.85499999999999 L38.125 -49.47999999999999 L26.25 -37.60499999999999 Q25.25 -36.60499999999999 25.25 -35.41999999999999 Q25.25 -34.22999999999999 26.25 -33.35499999999999 Z M73.375 -32.47999999999999  57.0 -48.85499999999999  59.75 -51.60499999999999  76.125 -35.22999999999999  73.375 -32.47999999999999 Z"/></g><g id="Bold-S" transform="matrix(1 0 0 1 2294.23 696)"><path d="M74.361672 -19.053921999999993  65.0925 -28.422507999999993  71.800578 -35.22999999999999 Q71.800578 -35.22999999999999 71.800578 -35.22999999999999 Q71.800578 -35.22999999999999 71.800578 -35.22999999999999 L46.549422 -60.575835999999995 Q46.549422 -60.575835999999995 46.549422 -60.575835999999995 Q46.549422 -60.575835999999995 46.549422 -60.575835999999995 L39.64725 -53.77307799999999 L30.278664 -63.14166399999999 L38.662577999999996 -71.62499199999999 Q40.338414 -73.39550799999999 42.359832000000004 -74.086672 Q44.38125 -74.777836 46.450008 -74.777836 Q48.5235 -74.777836 50.544917999999996 -74.03933199999999 Q52.56633599999999 -73.300828 54.242172000000004 -71.62499199999999 L82.845 -43.12157799999999 Q86.19667199999999 -39.76517199999999 86.149332 -35.277339999999995 Q86.101992 -30.78950799999999 82.745586 -27.43783599999999 L74.361672 -19.053921999999993 Z M73.083492 3.0349219999999946  62.526672 -7.318335999999988  54.341586 0.9661640000000062 Q52.66575 2.840828000000016 50.691672000000004 3.579332000000008 Q48.722328 4.317836 46.549422 4.317836 Q44.281836 4.317836 42.260418 3.479917999999998 Q40.239 2.64200000000001 38.563164 0.9661640000000062 L9.960336 -27.537249999999993 Q8.2845 -29.312499999999993 7.545996000000001 -31.28657799999999 Q6.807492 -33.25592199999999 6.807492 -35.428827999999996 Q6.807492 -37.596999999999994 7.545996000000001 -39.57107799999999 Q8.2845 -41.54042199999999 9.960336 -43.220991999999995 L18.543077999999998 -51.699586 L8.2845 -62.05757799999999 L13.908492 -67.975078 L79.095672 -2.683749999999989 L73.083492 3.0349219999999946 Z M21.104172000000002 -35.428827999999996  46.549422 -9.884163999999998 Q46.549422 -9.884163999999998 46.549422 -9.884163999999998 Q46.549422 -9.884163999999998 46.549422 -9.884163999999998 L53.158086 -16.78633599999999 L49.01583599999999 -21.127413999999995 L46.549422 -18.462171999999995 L29.5875 -35.428827999999996 L32.053914 -37.79582799999999 L27.712836 -42.23158599999999 L21.104172000000002 -35.428827999999996 Q21.104172000000002 -35.428827999999996 21.104172000000002 -35.428827999999996 Q21.104172000000002 -35.428827999999996 21.104172000000002 -35.428827999999996 Z M60.652007999999995 -32.66417199999999  43.88891400000001 -49.431999999999995  46.549422 -51.99782799999999  63.31725 -35.22999999999999  60.652007999999995 -32.66417199999999 Z"/></g><g id="Semibold-S" transform="matrix(1 0 0 1 1998.1 696)"><path d="M73.178172 -19.550991999999994  65.291328 -27.537249999999993  72.884664 -35.22999999999999 Q72.884664 -35.22999999999999 72.884664 -35.22999999999999 Q72.884664 -35.22999999999999 72.884664 -35.22999999999999 L46.847664 -61.266999999999996 Q46.847664 -61.266999999999996 46.847664 -61.266999999999996 Q46.847664 -61.266999999999996 46.847664 -61.266999999999996 L39.154914000000005 -53.67366399999999 L31.163922 -61.659921999999995 L40.338414 -70.93382799999999 Q41.815422 -72.41083599999999 43.443918 -72.95524599999999 Q45.072414 -73.49492199999999 46.74825 -73.49492199999999 Q48.5235 -73.49492199999999 50.199335999999995 -72.903172 Q51.875172 -72.311422 53.2575 -70.93382799999999 L82.452078 -41.73924999999999 Q85.212 -38.979327999999995 85.16466 -35.22999999999999 Q85.112586 -31.48067199999999 82.352664 -28.720749999999995 L73.178172 -19.550991999999994 Z M73.96875 2.64200000000001  62.431992 -8.800078  53.356914 0.3744140000000158 Q51.974585999999995 1.8514219999999995 50.34609 2.443172000000004 Q48.722328 3.0349219999999946 46.847664 3.0349219999999946 Q44.973 3.0349219999999946 43.344504 2.395832000000013 Q41.716007999999995 1.7520080000000178 40.239 0.3744140000000158 L11.044422 -28.820164 Q9.666827999999999 -30.297171999999996 9.075078 -31.925667999999995 Q8.483328 -33.554164 8.483328 -35.329414 Q8.483328 -37.204077999999996 9.075078 -38.827839999999995 Q9.666827999999999 -40.456335999999986 11.044422 -41.838663999999994 L20.413008 -51.10783599999999 L9.075078 -62.549913999999994 L14.202 -67.975078 L79.39391400000001 -2.683749999999989 L73.96875 2.64200000000001 Z M20.71125 -35.329414  46.847664 -9.192999999999998 Q46.847664 -9.192999999999998 46.847664 -9.192999999999998 Q46.847664 -9.192999999999998 46.847664 -9.192999999999998 L54.441 -16.885749999999987 L49.905828 -21.520335999999986 L46.847664 -18.462171999999995 L29.881008 -35.329414 L32.939172 -38.288163999999995 L28.304586 -43.12157799999999 L20.71125 -35.329414 Q20.71125 -35.329414 20.71125 -35.329414 Q20.71125 -35.329414 20.71125 -35.329414 Z M60.557328 -32.17183599999999  43.7895 -48.93966399999999  46.847664 -51.99782799999999  63.615492 -35.22999999999999  60.557328 -32.17183599999999 Z"/></g><g id="Medium-S" transform="matrix(1 0 0 1 1701.85 696)"><path d="M72.29291400000001 -19.943914  65.485422 -26.945499999999996  73.670508 -35.22999999999999 Q73.670508 -35.22999999999999 73.670508 -35.22999999999999 Q73.670508 -35.22999999999999 73.670508 -35.22999999999999 L47.141172 -61.85874999999999 Q47.141172 -61.85874999999999 47.141172 -61.85874999999999 Q47.141172 -61.85874999999999 47.141172 -61.85874999999999 L38.856672 -53.57424999999999 L31.855086 -60.47642199999999 L41.716007999999995 -70.536172 Q42.899508 -71.71967199999999 44.234496 -72.16466799999999 Q45.56475 -72.609664 47.046492 -72.609664 Q48.5235 -72.609664 49.905828 -72.11732799999999 Q51.283422 -71.62499199999999 52.466922000000004 -70.441492 L82.25325 -40.655164 Q84.62025 -38.38757799999999 84.57291 -35.22999999999999 Q84.520836 -32.072421999999996 82.153836 -29.804835999999987 L72.29291400000001 -19.943914 Z M74.5605 2.2490780000000115  62.332578 -9.983577999999994  52.56633599999999 -0.11792199999999298 Q51.382836 1.164991999999998 50.000507999999996 1.657328000000021 Q48.622914 2.1496640000000156 47.141172 2.1496640000000156 Q45.56475 2.1496640000000156 44.182422 1.6052540000000022 Q42.804828 1.0655780000000163 41.621328 -0.11792199999999298 L11.835 -29.90424999999999 Q10.6515 -31.087749999999993 10.159163999999999 -32.418003999999996 Q9.666827999999999 -33.752992 9.666827999999999 -35.329414 Q9.666827999999999 -36.80642199999999 10.159163999999999 -38.18874999999999 Q10.6515 -39.57107799999999 11.835 -40.754577999999995 L21.795336 -50.71491399999999 L9.666827999999999 -62.94283599999999 L14.495508 -67.975078 L79.687422 -2.683749999999989 L74.5605 2.2490780000000115 Z M20.413008 -35.329414  47.141172 -8.601249999999993 Q47.141172 -8.601249999999993 47.141172 -8.601249999999993 Q47.141172 -8.601249999999993 47.141172 -8.601249999999993 L55.425672 -16.985163999999997 L50.497578 -21.917991999999998 L47.141172 -18.462171999999995 L30.17925 -35.329414 L33.630336 -38.681085999999986 L28.697508000000003 -43.71332799999999 L20.413008 -35.329414 Q20.413008 -35.329414 20.413008 -35.329414 Q20.413008 -35.329414 20.413008 -35.329414 Z M60.457914 -31.87832799999999  43.690085999999994 -48.64142199999999  47.141172 -51.99782799999999  63.909 -35.22999999999999  60.457914 -31.87832799999999 Z"/></g><g id="Regular-S" transform="matrix(1 0 0 1 1405.73 696)"><path d="M71.701164 -20.237421999999995  65.584836 -26.453163999999994  74.266992 -35.22999999999999 Q74.266992 -35.22999999999999 74.266992 -35.22999999999999 Q74.266992 -35.22999999999999 74.266992 -35.22999999999999 L47.34 -62.251672 Q47.34 -62.251672 47.34 -62.251672 Q47.34 -62.251672 47.34 -62.251672 L38.563164 -53.474835999999996 L32.347422 -59.69057799999999 L42.705414000000005 -70.14325 Q43.690085999999994 -71.227336 44.873585999999996 -71.62025799999999 Q46.057086 -72.01791399999999 47.34 -72.01791399999999 Q48.622914 -72.01791399999999 49.806414000000004 -71.57291799999999 Q50.989914000000006 -71.127922 51.974585999999995 -70.14325 L82.153836 -39.96399999999999 Q84.127914 -37.89050799999999 84.07584000000001 -35.22999999999999 Q84.0285 -32.569492 82.05442199999999 -30.595413999999998 L71.701164 -20.237421999999995 Z M75.15225 1.9508360000000096  62.332578 -10.769421999999992  51.974585999999995 -0.515578000000005 Q50.989914000000006 0.5685080000000085 49.806414000000004 1.0135039999999975 Q48.622914 1.4585000000000008 47.34 1.4585000000000008 Q45.957672 1.4585000000000008 44.774172 0.9661640000000062 Q43.590672 0.4738280000000117 42.606 -0.515578000000005 L12.42675 -30.595413999999998 Q11.442077999999999 -31.67949999999999 10.997081999999999 -32.815659999999994 Q10.552086000000001 -33.94708599999999 10.552086000000001 -35.329414 Q10.552086000000001 -36.61232799999999 10.997081999999999 -37.79582799999999 Q11.442077999999999 -38.979327999999995 12.42675 -39.96399999999999 L22.879422 -50.41667199999999 L10.159163999999999 -63.24107799999999 L14.694336 -67.975078 L79.88625 -2.683749999999989 L75.15225 1.9508360000000096 Z M20.318327999999998 -35.329414  47.34 -8.208327999999995 Q47.34 -8.208327999999995 47.34 -8.208327999999995 Q47.34 -8.208327999999995 47.34 -8.208327999999995 L56.116836 -17.084577999999993 L51.089328 -22.211499999999994 L47.34 -18.462171999999995 L30.477491999999998 -35.329414 L34.122672 -38.979327999999995 L28.99575 -44.205664 L20.318327999999998 -35.329414 Q20.318327999999998 -35.329414 20.318327999999998 -35.329414 Q20.318327999999998 -35.329414 20.318327999999998 -35.329414 Z M60.457914 -31.580085999999987  43.690085999999994 -48.347913999999996  47.34 -51.99782799999999  64.107828 -35.22999999999999  60.457914 -31.580085999999987 Z"/></g><g id="Light-S" transform="matrix(1 0 0 1 1109.75 696)"><path d="M69.627672 -21.520335999999986  65.191914 -26.05550799999999  73.670508 -34.63824999999999 Q73.96875 -34.936491999999994 73.96875 -35.22999999999999 Q73.96875 -35.52350799999999 73.670508 -35.921164 L47.93175 -61.659921999999995 Q47.633508 -61.958164 47.29266 -61.958164 Q46.947078 -61.958164 46.648835999999996 -61.659921999999995 L38.070828 -53.081914 L33.530922000000004 -57.716499999999996 L43.098335999999996 -67.38332799999999 Q44.083008 -68.368 45.119754 -68.71358199999999 Q46.1565 -69.059164 47.24058599999999 -69.059164 Q48.424085999999996 -69.059164 49.460832 -68.71358199999999 Q50.497578 -68.368 51.382836 -67.38332799999999 L79.2945 -39.471664 Q81.06975 -37.596999999999994 81.06975 -35.22999999999999 Q81.06975 -32.86299999999999 79.2945 -31.087749999999993 L69.627672 -21.520335999999986 Z M74.361672 -0.316749999999999  61.442586 -13.235835999999992  51.48225 -3.275499999999994 Q50.596992 -2.2908280000000047 49.560246 -1.8931719999999927 Q48.5235 -1.500249999999994 47.24058599999999 -1.500249999999994 Q46.057086 -1.500249999999994 44.973 -1.9452459999999974 Q43.88891400000001 -2.3855080000000015 42.998922 -3.275499999999994 L15.186672000000002 -31.087749999999993 Q14.301414 -31.973007999999993 13.908492 -33.06182799999999 Q13.510836000000001 -34.145914 13.510836000000001 -35.329414 Q13.510836000000001 -36.61232799999999 13.908492 -37.64433999999999 Q14.301414 -38.681085999999986 15.186672000000002 -39.57107799999999 L25.345836000000002 -49.630827999999994 L12.42675 -62.649328 L15.679008 -66.100414 L77.912172 -3.7678359999999884 L74.361672 -0.316749999999999 Z M20.810664 -34.737663999999995  46.648835999999996 -8.800078 Q46.947078 -8.501835999999983 47.29266 -8.501835999999983 Q47.633508 -8.501835999999983 47.93175 -8.800078 L56.907414 -17.87042199999999 L50.8905 -23.88733599999999 L47.34 -20.237421999999995 L32.153328 -35.329414 L35.798508 -38.979327999999995 L29.686913999999998 -45.09092199999999 L20.810664 -36.02057799999999 Q20.512422 -35.72233599999999 20.512422 -35.376754 Q20.512422 -35.03117199999999 20.810664 -34.737663999999995 Z M59.175 -32.072421999999996  44.182422 -47.06499999999999  47.24058599999999 -50.22257799999999  62.233164 -35.22999999999999  59.175 -32.072421999999996 Z"/></g><g id="Thin-S" transform="matrix(1 0 0 1 814.015 696)"><path d="M67.558914 -22.70383599999999  64.798992 -25.66258599999999  73.083492 -34.046499999999995 Q73.670508 -34.63824999999999 73.670508 -35.277339999999995 Q73.670508 -35.921164 73.083492 -36.512913999999995 L48.5235 -61.06817199999999 Q47.93175 -61.75933599999999 47.24058599999999 -61.75933599999999 Q46.549422 -61.75933599999999 45.862992000000006 -61.06817199999999 L37.578492 -52.783671999999996 L34.615008 -55.643007999999995 L43.590672 -64.718086 Q44.38125 -65.508664 45.318582 -65.85424599999999 Q46.255914000000004 -66.199828 47.24058599999999 -66.199828 Q48.229992 -66.199828 49.16259 -65.85424599999999 Q50.099922 -65.508664 50.8905 -64.718086 L76.53457800000001 -39.07400799999999 Q78.111 -37.398171999999995 78.111 -35.329414 Q78.111 -33.25592199999999 76.53457800000001 -31.67949999999999 L67.558914 -22.70383599999999 Z M73.670508 -2.683749999999989  60.557328 -15.801664000000002  51.089328 -6.134835999999993 Q50.29875 -5.249578 49.314078 -4.903995999999992 Q48.324672 -4.558413999999999 47.24058599999999 -4.558413999999999 Q46.1565 -4.558413999999999 45.171828 -4.9513359999999835 Q44.182422 -5.348991999999981 43.396578 -6.134835999999993 L17.951328 -31.580085999999987 Q17.16075 -32.370664 16.815168 -33.35533599999999 Q16.469586 -34.34000799999999 16.469586 -35.428827999999996 Q16.469586 -36.512913999999995 16.815168 -37.49758599999999 Q17.16075 -38.486991999999994 17.951328 -39.27283599999999 L27.712836 -48.93966399999999 L14.594922 -62.15699199999999 L16.569 -64.22574999999999 L75.942828 -4.851921999999988 L73.670508 -2.683749999999989 Z M21.303 -34.145914  45.957672 -9.39182799999999 Q46.549422 -8.800078 47.24058599999999 -8.800078 Q47.93175 -8.800078 48.5235 -9.39182799999999 L57.697992 -18.760413999999997 L50.79108599999999 -25.66258599999999 L47.24058599999999 -22.11208599999999 L33.928578 -35.428827999999996 L37.379664 -38.979327999999995 L30.477491999999998 -45.98091399999999 L21.303 -36.70700799999999 Q20.71125 -36.119991999999996 20.71125 -35.428827999999996 Q20.71125 -34.737663999999995 21.303 -34.145914 Z M57.792672 -32.66417199999999  44.580078 -45.881499999999996  47.141172 -48.44732799999999  60.3585 -35.22999999999999  57.792672 -32.66417199999999 Z"/></g><g id="Ultralight-S" transform="matrix(1 0 0 1 517.792 696)"><path d="M66.375414 -23.494414  64.600164 -25.468491999999998  72.78525 -33.653577999999996 Q73.575828 -34.43942199999999 73.575828 -35.277339999999995 Q73.575828 -36.119991999999996 72.78525 -36.90583599999999 L48.916422 -60.774663999999994 Q48.130578 -61.560508 47.193245999999995 -61.560508 Q46.255914000000004 -61.560508 45.46533599999999 -60.774663999999994 L37.28025 -52.58957799999999 L35.306172000000004 -54.459508 L43.88891400000001 -63.14166399999999 Q44.679492 -63.83282799999999 45.51741 -64.17841 Q46.355328 -64.52399199999999 47.24058599999999 -64.52399199999999 Q48.130578 -64.52399199999999 49.01583599999999 -64.17841 Q49.905828 -63.83282799999999 50.596992 -63.14166399999999 L74.854008 -38.879914 Q76.33575 -37.204077999999996 76.33575 -35.329414 Q76.33575 -33.45474999999999 74.854008 -31.973007999999993 L66.375414 -23.494414 Z M73.277586 -4.165491999999986  60.064992000000004 -17.278672  50.79108599999999 -7.910085999999993 Q50.099922 -7.024827999999999 49.214664000000006 -6.679245999999992 Q48.324672 -6.333663999999999 47.24058599999999 -6.333663999999999 Q46.255914000000004 -6.333663999999999 45.318582 -6.726585999999983 Q44.38125 -7.119507999999996 43.690085999999994 -7.910085999999993 L19.627164 -31.87832799999999 Q18.836586 -32.66417199999999 18.543077999999998 -33.601504 Q18.244836 -34.53883599999999 18.244836 -35.52350799999999 Q18.244836 -36.512913999999995 18.543077999999998 -37.398171999999995 Q18.836586 -38.288163999999995 19.627164 -39.07400799999999 L29.194578 -48.542007999999996 L15.97725 -61.85874999999999 L17.16075 -63.14166399999999 L74.759328 -5.543085999999988 L73.277586 -4.165491999999986 Z M21.596508 -33.847671999999996  45.56475 -9.784749999999988 Q46.355328 -8.994171999999992 47.24058599999999 -8.994171999999992 Q48.130578 -8.994171999999992 48.916422 -9.784749999999988 L58.190328 -19.252749999999992 L50.79108599999999 -26.746671999999997 L47.24058599999999 -23.196171999999997 L35.012664 -35.52350799999999 L38.46375 -38.979327999999995 L30.870414 -46.572663999999996 L21.596508 -37.204077999999996 Q20.810664 -36.41349999999999 20.810664 -35.476167999999994 Q20.810664 -34.53883599999999 21.596508 -33.847671999999996 Z M57.006828 -32.962413999999995  44.873585999999996 -45.09092199999999  47.141172 -47.35850799999999  59.274414 -35.22999999999999  57.006828 -32.962413999999995 Z"/></g></g></svg>