<svg xmlns="http://www.w3.org/2000/svg" height="48" width="48"><path d="M8.45 17.8q-.4 0-.725-.325Q7.4 17.15 7.4 16.7t.325-.75q.325-.3.725-.3h5.65L7.35 8.9q-.3-.25-.3-.725t.35-.825q.35-.3.75-.3t.8.3l6.7 6.7V8.4q0-.4.325-.725.325-.325.775-.325t.775.325q.325.325.325.725v7.75q0 .7-.5 1.175-.5.475-1.2.475Zm31.1 0H31.9q-.75 0-1.225-.475-.475-.475-.475-1.175V8.4q0-.4.325-.725.325-.325.775-.325t.775.325Q32.4 8 32.4 8.4v5.65l6.7-6.75q.35-.25.775-.275.425-.025.775.325.35.3.35.775 0 .475-.35.775l-6.7 6.75h5.6q.45 0 .8.325.35.325.35.775 0 .4-.35.725-.35.325-.8.325ZM7.4 40.65q-.35-.35-.35-.8 0-.45.35-.8l6.7-6.7H8.45q-.4 0-.725-.325Q7.4 31.7 7.4 31.25t.325-.75q.325-.3.725-.3h7.7q.7 0 1.2.475t.5 1.175v7.7q0 .45-.325.775t-.775.325q-.45 0-.775-.325t-.325-.775v-5.6l-6.7 6.65q-.35.35-.775.35-.425 0-.775-.3Zm23.9 0q-.45 0-.775-.325t-.325-.775v-7.7q0-.7.475-1.175.475-.475 1.225-.475h7.65q.45 0 .8.325.35.325.35.775 0 .4-.35.725-.35.325-.8.325h-5.6l6.7 6.7q.3.3.325.775.025.475-.325.825-.35.3-.775.3-.425 0-.775-.35l-6.7-6.65v5.6q0 .45-.325.775t-.775.325Z"/></svg>