<svg xmlns="http://www.w3.org/2000/svg" height="24" width="24"><path d="M17.5 16.8v-2.3q0-.2-.15-.35Q17.2 14 17 14q-.2 0-.35.15-.15.15-.15.35v2.425q0 .075.2.475l1.625 1.625q.15.15.35.15.2 0 .35-.15.15-.15.15-.35 0-.2-.15-.35ZM9.125 9.175q-.95 0-1.637-.687Q6.8 7.8 6.8 6.85t.688-1.638q.687-.687 1.637-.687t1.638.687q.687.688.687 1.638t-.687 1.638q-.688.687-1.638.687ZM17 22.325q-2.225 0-3.775-1.55-1.55-1.55-1.55-3.775 0-2.225 1.55-3.775 1.55-1.55 3.775-1.55 2.225 0 3.775 1.55 1.55 1.55 1.55 3.775 0 2.225-1.55 3.775-1.55 1.55-3.775 1.55Zm-12.2.8q-1.125 0-1.887-.762-.763-.763-.763-1.888V3.525q0-1.125.763-1.888Q3.675.875 4.8.875h8.65q1.125 0 1.888.762.762.763.762 1.888v6.2q-.725.1-1.387.312-.663.213-1.263.563V3.525H4.8V10.5q.4-.175.813-.25.412-.075.862-.075h5.3q.475 0 .938.075.462.075.887.275-1.225.65-2.1 1.65-.875 1-1.35 2.225-.2-.25-.462-.413-.263-.162-.588-.162-.55 0-.937.387-.388.388-.388.938l.025.175h-.175q-.55 0-.937.388-.388.387-.388.937t.388.937q.387.388.937.388H7.8l-.025.175q0 .55.388.937.387.388.937.388.275 0 .513-.1.237-.1.362-.25.425 1.3 1.2 2.3.775 1 1.8 1.7Z"/></svg>