<svg xmlns="http://www.w3.org/2000/svg" height="40" width="40"><path d="M12.167 33.5h6.375-9.875 3.5ZM10 34.458q-1 0-1.646-.646-.646-.645-.646-1.645V7.792q0-.875.646-1.584Q9 5.5 10 5.5h12.708q.875 0 1.584.708.708.709.708 1.584v9.916q-.292.125-.521.188-.229.062-.479.187V7.792q0-.542-.375-.938-.375-.396-.958-.396H10q-.583 0-.958.396t-.375.938v12.666q.666-.75 1.541-1.187.875-.438 1.959-.438H20.5q.375 0 .75.105.375.104.75.27-.25.209-.5.396-.25.188-.5.354-.125-.083-.25-.125-.125-.041-.25-.041h-8.333q-1.459 0-2.479 1.041-1.021 1.042-1.021 2.5v8.834q0 .583.375.958T10 33.5h8.542q.166.292.312.521.146.229.354.437Zm6.292-19.541q-.917 0-1.521-.604-.604-.605-.604-1.563 0-.875.604-1.542.604-.666 1.562-.666.875 0 1.542.666.667.667.667 1.584 0 .916-.667 1.521-.667.604-1.583.604Zm-.417 12.208V30q0 .208.125.333.125.125.333.125.292 0 .479-.229Q17 30 17 29.625v-3.292q0-.041.042-.062.041-.021.041-.063 0 .084-.083.146-.083.063-.167.104v-3.125q0-.208-.145-.354-.146-.146-.355-.146-.208 0-.333.146-.125.146-.125.354v2.834H13q-.208 0-.333.145-.125.146-.125.355 0 .208.125.333.125.125.333.125Zm12.458 8.333q-3 0-5.062-2.062-2.063-2.063-2.063-5.063 0-3 2.063-5.083 2.062-2.083 5.062-2.083 3 0 5.084 2.083 2.083 2.083 2.083 5.083t-2.083 5.063q-2.084 2.062-5.084 2.062Zm.584-7.375v-3.916q0-.25-.167-.417-.167-.167-.417-.167-.25 0-.416.167-.167.167-.167.417v4.166q0 .084.167.417l2.791 2.792q.167.166.396.187.229.021.438-.187.208-.209.208-.417t-.208-.417Z"/></svg>