<svg xmlns="http://www.w3.org/2000/svg" height="48" viewBox="0 -960 960 960" width="48"><path d="M151.85-232.8q-14.01 0-23.42-9.63-9.41-9.62-9.41-23.65 0-13.54 9.41-22.95 9.41-9.4 23.42-9.4h179.19q13.98 0 23.53 9.62 9.54 9.62 9.54 23.29 0 14.18-9.54 23.45-9.55 9.27-23.53 9.27H151.85Zm0-212.13q-14.01 0-23.42-9.38-9.41-9.37-9.41-23.4 0-14.04 9.41-23.45t23.42-9.41h418.13q13.48 0 23.02 9.77 9.54 9.76 9.54 23.79 0 14.04-9.54 23.06t-23.02 9.02H151.85Zm0-211.64q-14.01 0-23.42-9.62-9.41-9.62-9.41-23.67 0-13.56 9.57-22.83 9.57-9.27 23.5-9.27h656.56q13.48 0 23.02 9.62 9.55 9.63 9.55 23.18 0 14.06-9.71 23.33-9.7 9.26-23.1 9.26H151.85Z"/></svg>