<svg xmlns="http://www.w3.org/2000/svg" version="1.1" width="3300" height="2000"><g id="Notes"><style>
    text {
      font-family: monospace;
      text-anchor: middle;
    }
    text.emphasis {
      font-weight:bold;
    }
    text.lanchor {
      text-anchor: start;
    }
  </style><rect height="2200" id="artboard" fill="white" width="3300" x="0" y="0"/><line id="" style="fill:none;stroke:black;stroke-width:0.5;" x1="263" x2="3036" y1="292" y2="292"/><text class="lanchor emphasis" transform="matrix(1 0 0 1 263 322)">Weight/Scale Variations</text><text transform="matrix(1 0 0 1 559.711 322)">Ultralight</text><text transform="matrix(1 0 0 1 856.422 322)">Thin</text><text transform="matrix(1 0 0 1 1153.13 322)">Light</text><text transform="matrix(1 0 0 1 1449.84 322)">Regular</text><text transform="matrix(1 0 0 1 1746.56 322)">Medium</text><text transform="matrix(1 0 0 1 2043.27 322)">Semibold</text><text transform="matrix(1 0 0 1 2339.98 322)">Bold</text><text transform="matrix(1 0 0 1 2636.69 322)">Heavy</text><text transform="matrix(1 0 0 1 2933.4 322)">Black</text><text id="template-version" style="text-anchor: end;" transform="matrix(1 0 0 1 3036 1933)">Template v.1.0</text><text class="lanchor" transform="matrix(1 0 0 1 263 726)">Small</text><text class="lanchor" transform="matrix(1 0 0 1 263 1156)">Medium</text><text class="lanchor" transform="matrix(1 0 0 1 263 1586)">Large</text></g><g id="Guides"><g id="H-reference" style="fill:#27AAE1;stroke:none;" transform="matrix(1 0 0 1 339 696)"><path d="M 54.9316 0 L 57.666 0 L 30.5664 -70.459 L 28.0762 -70.459 L 0.976562 0 L 3.66211 0 L 12.9395 -24.4629 L 45.7031 -24.4629 Z M 29.1992 -67.0898 L 29.4434 -67.0898 L 44.8242 -26.709 L 13.8184 -26.709 Z"/></g><line id="Baseline-S" style="fill:none;stroke:#27AAE1;opacity:1;stroke-width:0.577;" x1="263" x2="3036" y1="696" y2="696"/><line id="Capline-S" style="fill:none;stroke:#27AAE1;opacity:1;stroke-width:0.577;" x1="263" x2="3036" y1="625.541" y2="625.541"/><g id="H-reference" style="fill:#27AAE1;stroke:none;" transform="matrix(1 0 0 1 339 1126)"><path d="M 54.9316 0 L 57.666 0 L 30.5664 -70.459 L 28.0762 -70.459 L 0.976562 0 L 3.66211 0 L 12.9395 -24.4629 L 45.7031 -24.4629 Z M 29.1992 -67.0898 L 29.4434 -67.0898 L 44.8242 -26.709 L 13.8184 -26.709 Z"/></g><line id="Baseline-M" style="fill:none;stroke:#27AAE1;opacity:1;stroke-width:0.577;" x1="263" x2="3036" y1="1126" y2="1126"/><line id="Capline-M" style="fill:none;stroke:#27AAE1;opacity:1;stroke-width:0.577;" x1="263" x2="3036" y1="1055.54" y2="1055.54"/><g id="H-reference" style="fill:#27AAE1;stroke:none;" transform="matrix(1 0 0 1 339 1556)"><path d="M 54.9316 0 L 57.666 0 L 30.5664 -70.459 L 28.0762 -70.459 L 0.976562 0 L 3.66211 0 L 12.9395 -24.4629 L 45.7031 -24.4629 Z M 29.1992 -67.0898 L 29.4434 -67.0898 L 44.8242 -26.709 L 13.8184 -26.709 Z"/></g><line id="Baseline-L" style="fill:none;stroke:#27AAE1;opacity:1;stroke-width:0.577;" x1="263" x2="3036" y1="1556" y2="1556"/><line id="Capline-L" style="fill:none;stroke:#27AAE1;opacity:1;stroke-width:0.577;" x1="263" x2="3036" y1="1485.54" y2="1485.54"/><rect height="119.336" id="left-margin" style="fill:darkred;stroke:none;opacity:0.4;" width="12.4512" x="1394.06" y="1030.79"/><rect height="119.336" id="right-margin" style="fill:darkgreen;stroke:none;opacity:0.4;" width="12.4512" x="1502.5112" y="1030.79"/><rect x="1406.5112" y="1045" width="96" height="96" fill="none" stroke="blue" stroke-dasharray="5"/><rect x="1394.06" y="1030.79" width="120.9024" height="119.336" fill="none" stroke="blue"/></g><g id="Symbols"><g id="Bold-L" transform="matrix(1 0 0 1 2266 1556)"><path d="M2.74125 39.42875000000001 V24.755000000000024 H100.78125 V39.42875000000001 H2.74125 Z M2.74125 -6.8500000000000085 Q2.74125 -14.590000000000003 5.563125 -21.443124999999995 Q8.385 -28.29625 14.35125 -33.375625 Q20.3175 -38.455 29.589375000000004 -41.438125 Q38.861250000000005 -44.42125 51.761250000000004 -44.42125 Q64.5 -44.42125 73.77187500000001 -41.438125 Q83.04375 -38.455 89.01 -33.375625 Q94.97625000000001 -28.29625 97.87875000000001 -21.443124999999995 Q100.78125 -14.590000000000003 100.78125 -6.8500000000000085 H2.74125 Z M2.74125 16.20875000000001 V1.6962500000000205 H100.78125 V16.20875000000001 H2.74125 Z M110.45625 39.42875000000001 V24.27125000000001 H125.93625 L134.805 -65.70624999999998 H70.95 L69.3375 -80.86375 H102.555 V-109.88875 H115.93875000000001 V-80.86375 H152.05875 L139.64249999999998 39.42875000000001 H110.45625 Z M110.45625 24.27125000000001 H125.93625 H110.45625 Q110.45625 24.27125000000001 110.45625 24.27125000000001 Q110.45625 24.27125000000001 110.45625 24.27125000000001 Z M18.3825 -18.29875 H85.14 Q82.8825 -24.748749999999987 74.578125 -28.860624999999985 Q66.27375 -32.9725 51.761250000000004 -32.9725 Q37.0875 -32.9725 28.86375 -28.860624999999985 Q20.64 -24.748749999999987 18.3825 -18.29875 Z M18.3825 -18.29875 Q20.64 -18.29875 28.86375 -18.29875 Q37.0875 -18.29875 51.761250000000004 -18.29875 Q66.27375 -18.29875 74.578125 -18.29875 Q82.8825 -18.29875 85.14 -18.29875 H18.3825 Z"/></g><g id="Semibold-L" transform="matrix(1 0 0 1 1970.27 1556)"><path d="M4.353750000000001 37.81625 V24.755000000000024 H102.39375 V37.81625 H4.353750000000001 Z M4.353750000000001 -6.8500000000000085 Q4.353750000000001 -14.590000000000003 7.175625 -21.443124999999995 Q9.9975 -28.29625 16.044375 -33.375625 Q22.09125 -38.455 31.2825 -41.438125 Q40.47375 -44.42125 53.37375 -44.42125 Q66.1125 -44.42125 75.384375 -41.438125 Q84.65625 -38.455 90.6225 -33.375625 Q96.58875 -28.29625 99.49125000000001 -21.443124999999995 Q102.39375 -14.590000000000003 102.39375 -6.8500000000000085 H4.353750000000001 Z M4.353750000000001 15.402500000000003 V2.502500000000012 H102.39375 V15.402500000000003 H4.353750000000001 Z M112.06875000000001 37.81625 V25.077500000000015 H126.90375 L135.93375 -66.51249999999999 H71.9175 L70.46625 -79.25125 H103.68375 V-108.27624999999999 H115.455 V-79.25125 H150.44625 L138.3525 37.81625 H112.06875000000001 Z M112.06875000000001 25.077500000000015 H126.90375 H112.06875000000001 Q112.06875000000001 25.077500000000015 112.06875000000001 25.077500000000015 Q112.06875000000001 25.077500000000015 112.06875000000001 25.077500000000015 Z M18.06 -17.492499999999993 H88.6875 Q86.1075 -24.909999999999997 76.996875 -29.344375 Q67.88625 -33.77875 53.37375 -33.77875 Q38.7 -33.77875 29.669999999999998 -29.344375 Q20.64 -24.909999999999997 18.06 -17.492499999999993 Z M18.06 -17.492499999999993 Q20.64 -17.492499999999993 29.669999999999998 -17.492499999999993 Q38.7 -17.492499999999993 53.37375 -17.492499999999993 Q67.88625 -17.492499999999993 76.996875 -17.492499999999993 Q86.1075 -17.492499999999993 88.6875 -17.492499999999993 H18.06 Z"/></g><g id="Medium-L" transform="matrix(1 0 0 1 1674.31 1556)"><path d="M5.4825 36.6875 V24.755000000000024 H103.52250000000001 V36.6875 H5.4825 Z M5.4825 -6.8500000000000085 Q5.4825 -14.590000000000003 8.304375 -21.443124999999995 Q11.12625 -28.29625 17.173125000000002 -33.375625 Q23.220000000000002 -38.455 32.491875 -41.438125 Q41.76375 -44.42125 54.5025 -44.42125 Q67.4025 -44.42125 76.59375 -41.438125 Q85.78500000000001 -38.455 91.83187500000001 -33.375625 Q97.87875000000001 -28.29625 100.700625 -21.443124999999995 Q103.52250000000001 -14.590000000000003 103.52250000000001 -6.8500000000000085 H5.4825 Z M5.4825 14.918750000000003 V2.9862500000000125 H103.52250000000001 V14.918750000000003 H5.4825 Z M113.1975 36.6875 V25.56125 H127.54875 L136.57875 -66.99625 H72.5625 L71.27250000000001 -78.1225 H104.32875000000001 V-107.1475 H114.97125 V-78.1225 H149.3175 L137.38500000000002 36.6875 H113.1975 Z M113.1975 25.56125 H127.54875 H113.1975 Q113.1975 25.56125 113.1975 25.56125 Q113.1975 25.56125 113.1975 25.56125 Z M17.7375 -17.008749999999992 H91.42875000000001 Q88.6875 -25.071249999999992 78.931875 -29.66687499999999 Q69.17625 -34.26249999999999 54.5025 -34.26249999999999 Q39.82875 -34.26249999999999 30.15375 -29.66687499999999 Q20.478749999999998 -25.071249999999992 17.7375 -17.008749999999992 Z M17.7375 -17.008749999999992 Q20.478749999999998 -17.008749999999992 30.15375 -17.008749999999992 Q39.82875 -17.008749999999992 54.5025 -17.008749999999992 Q69.17625 -17.008749999999992 78.931875 -17.008749999999992 Q88.6875 -17.008749999999992 91.42875000000001 -17.008749999999992 H17.7375 Z"/></g><g id="Regular-L" transform="matrix(1 0 0 1 1378.56 1556)"><path d="M6.45 35.72 V24.755000000000024 H104.49 V35.72 H6.45 Z M6.45 -6.8500000000000085 Q6.45 -14.590000000000003 9.271875 -21.443124999999995 Q12.09375 -28.29625 18.140625 -33.375625 Q24.1875 -38.455 33.459375 -41.438125 Q42.73125 -44.42125 55.47 -44.42125 Q68.37 -44.42125 77.56125 -41.438125 Q86.7525 -38.455 92.799375 -33.375625 Q98.84625 -28.29625 101.668125 -21.443124999999995 Q104.49 -14.590000000000003 104.49 -6.8500000000000085 H6.45 Z M6.45 14.435000000000002 V3.470000000000013 H104.49 V14.435000000000002 H6.45 Z M114.16499999999999 35.72 V26.045000000000016 H128.0325 L137.22375 -67.47999999999999 H73.04625 L71.9175 -77.155 H104.97375 V-106.17999999999999 H114.64874999999999 V-77.155 H148.35 L136.57875 35.72 H114.16499999999999 Z M114.16499999999999 26.045000000000016 H128.0325 H114.16499999999999 Q114.16499999999999 26.045000000000016 114.16499999999999 26.045000000000016 Q114.16499999999999 26.045000000000016 114.16499999999999 26.045000000000016 Z M17.57625 -16.52499999999999 H93.36375 Q90.46125 -25.232499999999987 80.3025 -29.989374999999995 Q70.14375 -34.74625 55.47 -34.74625 Q40.79625 -34.74625 30.6375 -29.989374999999995 Q20.478749999999998 -25.232499999999987 17.57625 -16.52499999999999 Z M17.57625 -16.52499999999999 Q20.478749999999998 -16.52499999999999 30.6375 -16.52499999999999 Q40.79625 -16.52499999999999 55.47 -16.52499999999999 Q70.14375 -16.52499999999999 80.3025 -16.52499999999999 Q90.46125 -16.52499999999999 93.36375 -16.52499999999999 H17.57625 Z"/></g><g id="Light-L" transform="matrix(1 0 0 1 1082.77 1556)"><path d="M11.12625 32.495000000000005 V24.27125000000001 H103.03875000000001 V32.495000000000005 H11.12625 Z M11.12625 -7.978749999999977 Q11.12625 -14.267499999999998 13.70625 -20.07249999999999 Q16.28625 -25.877499999999998 21.93 -30.311875 Q27.573750000000004 -34.74625 36.28125 -37.4875 Q44.988749999999996 -40.22874999999999 57.082499999999996 -40.22874999999999 Q69.3375 -40.22874999999999 77.964375 -37.4875 Q86.59125 -34.74625 92.23500000000001 -30.311875 Q97.87875000000001 -25.877499999999998 100.45875 -20.07249999999999 Q103.03875000000001 -14.267499999999998 103.03875000000001 -7.978749999999977 H11.12625 Z M11.12625 12.177500000000023 V3.9537499999999994 H103.03875000000001 V12.177500000000023 H11.12625 Z M113.68125 32.495000000000005 V25.23875000000001 H126.09750000000001 L135.28875000000002 -66.19 H73.53 L72.72375000000001 -73.60749999999999 H104.32875000000001 V-101.66499999999999 H111.58500000000001 V-73.60749999999999 H143.67374999999998 L132.70875 32.495000000000005 H113.68125 Z M113.68125 25.23875000000001 H126.09750000000001 H113.68125 Q113.68125 25.23875000000001 113.68125 25.23875000000001 Q113.68125 25.23875000000001 113.68125 25.23875000000001 Z M19.35 -15.396249999999995 H94.815 Q92.07375 -23.2975 82.2375 -28.054374999999993 Q72.40125 -32.81124999999999 57.082499999999996 -32.81124999999999 Q41.76375 -32.81124999999999 31.927500000000002 -28.054374999999993 Q22.09125 -23.2975 19.35 -15.396249999999995 Z M19.35 -15.396249999999995 Q22.09125 -15.396249999999995 31.927500000000002 -15.396249999999995 Q41.76375 -15.396249999999995 57.082499999999996 -15.396249999999995 Q72.40125 -15.396249999999995 82.2375 -15.396249999999995 Q92.07375 -15.396249999999995 94.815 -15.396249999999995 H19.35 Z"/></g><g id="Thin-L" transform="matrix(1 0 0 1 787.282 1556)"><path d="M15.802500000000002 29.27000000000001 V23.787499999999994 H101.5875 V29.27000000000001 H15.802500000000002 Z M15.802500000000002 -9.268749999999997 Q15.802500000000002 -13.944999999999993 18.140625 -18.701874999999987 Q20.478749999999998 -23.458749999999995 25.719375 -27.32875 Q30.96 -31.19874999999999 39.103125 -33.61749999999999 Q47.24625 -36.036249999999995 58.695 -36.036249999999995 Q70.305 -36.036249999999995 78.3675 -33.61749999999999 Q86.43 -31.19874999999999 91.670625 -27.32875 Q96.91125000000001 -23.458749999999995 99.249375 -18.701874999999987 Q101.5875 -13.944999999999993 101.5875 -9.268749999999997 H15.802500000000002 Z M15.802500000000002 9.920000000000002 V4.4375 H101.5875 V9.920000000000002 H15.802500000000002 Z M113.03625 29.27000000000001 V24.27125000000001 H124.32374999999999 L133.515 -65.06125 H74.175 L73.53 -69.89874999999999 H103.68375 V-97.31125 H108.52125 V-69.89874999999999 H138.9975 L128.83875 29.27000000000001 H113.03625 Z M113.03625 24.27125000000001 H124.32374999999999 H113.03625 Q113.03625 24.27125000000001 113.03625 24.27125000000001 Q113.03625 24.27125000000001 113.03625 24.27125000000001 Z M21.12375 -14.106249999999989 H96.26625000000001 Q93.68625 -21.362499999999997 84.17250000000001 -26.19999999999999 Q74.65875 -31.037499999999994 58.695 -31.037499999999994 Q42.73125 -31.037499999999994 33.298125 -26.19999999999999 Q23.865000000000002 -21.362499999999997 21.12375 -14.106249999999989 Z M21.12375 -14.106249999999989 Q23.865000000000002 -14.106249999999989 33.298125 -14.106249999999989 Q42.73125 -14.106249999999989 58.695 -14.106249999999989 Q74.65875 -14.106249999999989 84.17250000000001 -14.106249999999989 Q93.68625 -14.106249999999989 96.26625000000001 -14.106249999999989 H21.12375 Z"/></g><g id="Ultralight-L" transform="matrix(1 0 0 1 491.205 1556)"><path d="M18.54375 27.335000000000008 V23.465000000000003 H100.78125 V27.335000000000008 H18.54375 Z M18.54375 -9.913749999999993 Q18.54375 -13.783749999999998 20.80125 -17.895624999999995 Q23.058750000000003 -22.007499999999993 28.057499999999997 -25.474374999999995 Q33.05625 -28.941249999999997 40.876875000000005 -31.19874999999999 Q48.6975 -33.45625 59.6625 -33.45625 Q70.78875 -33.45625 78.609375 -31.19874999999999 Q86.43 -28.941249999999997 91.348125 -25.474374999999995 Q96.26625000000001 -22.007499999999993 98.52375 -17.895624999999995 Q100.78125 -13.783749999999998 100.78125 -9.913749999999993 H18.54375 Z M18.54375 8.63000000000001 V4.760000000000005 H100.78125 V8.63000000000001 H18.54375 Z M112.71375000000002 27.335000000000008 V23.787499999999994 H123.19500000000001 L132.38625 -64.255 H74.4975 L74.01375 -67.8025 H103.2 V-94.57 H106.7475 V-67.8025 H136.25625 L126.42000000000002 27.335000000000008 H112.71375000000002 Z M112.71375000000002 23.787499999999994 H123.19500000000001 H112.71375000000002 Q112.71375000000002 23.787499999999994 112.71375000000002 23.787499999999994 Q112.71375000000002 23.787499999999994 112.71375000000002 23.787499999999994 Z M22.09125 -13.461249999999993 H97.23375 Q94.65375 -20.23375 85.38187500000001 -25.071249999999992 Q76.11000000000001 -29.908749999999998 59.6625 -29.908749999999998 Q43.215 -29.908749999999998 34.02375 -25.071249999999992 Q24.8325 -20.23375 22.09125 -13.461249999999993 Z M22.09125 -13.461249999999993 Q24.8325 -13.461249999999993 34.02375 -13.461249999999993 Q43.215 -13.461249999999993 59.6625 -13.461249999999993 Q76.11000000000001 -13.461249999999993 85.38187500000001 -13.461249999999993 Q94.65375 -13.461249999999993 97.23375 -13.461249999999993 H22.09125 Z"/></g><g id="Bold-M" transform="matrix(1 0 0 1 2281.8 1126)"><path d="M1.125 23.64500000000001 V9.77000000000001 H76.125 V23.64500000000001 H1.125 Z M1.125 -20.22999999999999 Q1.125 -27.72999999999999 4.375 -33.35499999999999 Q7.625 -38.97999999999999 12.875 -42.72999999999999 Q18.125 -46.47999999999999 24.875 -48.35499999999999 Q31.625 -50.22999999999999 38.625 -50.22999999999999 Q45.625 -50.22999999999999 52.375 -48.35499999999999 Q59.125 -46.47999999999999 64.375 -42.72999999999999 Q69.625 -38.97999999999999 72.875 -33.35499999999999 Q76.125 -27.72999999999999 76.125 -20.22999999999999 H1.125 Z M1.125 1.6450000000000102 V-12.10499999999999 H76.125 V1.6450000000000102 H1.125 Z M86.125 23.64500000000001 V7.89500000000001 H94.875 L101.5 -58.35499999999999 H54.125 L52.375 -74.10499999999999 H77.5 V-94.10499999999999 H91.375 V-74.10499999999999 H118.875 L109.125 23.64500000000001 H86.125 Z M86.125 7.89500000000001 H94.875 H86.125 Q86.125 7.89500000000001 86.125 7.89500000000001 Q86.125 7.89500000000001 86.125 7.89500000000001 Z M19.0 -32.10499999999999 H58.375 Q55.0 -35.60499999999999 49.435 -36.97999999999999 Q43.875 -38.35499999999999 38.625 -38.35499999999999 Q33.375 -38.35499999999999 27.875 -36.97999999999999 Q22.375 -35.60499999999999 19.0 -32.10499999999999 Z M19.0 -32.10499999999999 Q22.375 -32.10499999999999 27.875 -32.10499999999999 Q33.375 -32.10499999999999 38.625 -32.10499999999999 Q43.875 -32.10499999999999 49.435 -32.10499999999999 Q55.0 -32.10499999999999 58.375 -32.10499999999999 H19.0 Z"/></g><g id="Semibold-M" transform="matrix(1 0 0 1 1985.97 1126)"><path d="M2.75 22.02000000000001 V9.77000000000001 H77.75 V22.02000000000001 H2.75 Z M2.75 -20.22999999999999 Q2.75 -27.72999999999999 6.0 -33.35499999999999 Q9.25 -38.97999999999999 14.5 -42.72999999999999 Q19.75 -46.47999999999999 26.5 -48.35499999999999 Q33.25 -50.22999999999999 40.25 -50.22999999999999 Q47.25 -50.22999999999999 54.0 -48.35499999999999 Q60.75 -46.47999999999999 66.0 -42.72999999999999 Q71.25 -38.97999999999999 74.5 -33.35499999999999 Q77.75 -27.72999999999999 77.75 -20.22999999999999 H2.75 Z M2.75 0.7700000000000102 V-11.22999999999999 H77.75 V0.7700000000000102 H2.75 Z M87.75 22.02000000000001 V8.77000000000001 H95.75 L102.625 -59.22999999999999 H55.0 L53.5 -72.47999999999999 H78.625 V-92.47999999999999 H90.75 V-72.47999999999999 H117.25 L107.75 22.02000000000001 H87.75 Z M87.75 8.77000000000001 H95.75 H87.75 Q87.75 8.77000000000001 87.75 8.77000000000001 Q87.75 8.77000000000001 87.75 8.77000000000001 Z M18.625 -31.22999999999999 H62.125 Q58.375 -35.85499999999999 51.935 -37.54499999999999 Q45.5 -39.22999999999999 40.25 -39.22999999999999 Q35.0 -39.22999999999999 28.69 -37.54499999999999 Q22.375 -35.85499999999999 18.625 -31.22999999999999 Z M18.625 -31.22999999999999 Q22.375 -31.22999999999999 28.69 -31.22999999999999 Q35.0 -31.22999999999999 40.25 -31.22999999999999 Q45.5 -31.22999999999999 51.935 -31.22999999999999 Q58.375 -31.22999999999999 62.125 -31.22999999999999 H18.625 Z"/></g><g id="Medium-M" transform="matrix(1 0 0 1 1689.91 1126)"><path d="M4.125 20.64500000000001 V9.77000000000001 H79.125 V20.64500000000001 H4.125 Z M4.125 -20.22999999999999 Q4.125 -27.72999999999999 7.375 -33.35499999999999 Q10.625 -38.97999999999999 15.875 -42.72999999999999 Q21.125 -46.47999999999999 27.875 -48.35499999999999 Q34.625 -50.22999999999999 41.625 -50.22999999999999 Q48.625 -50.22999999999999 55.375 -48.35499999999999 Q62.125 -46.47999999999999 67.375 -42.72999999999999 Q72.625 -38.97999999999999 75.875 -33.35499999999999 Q79.125 -27.72999999999999 79.125 -20.22999999999999 H4.125 Z M4.125 0.27000000000001023 V-10.72999999999999 H79.125 V0.27000000000001023 H4.125 Z M89.125 20.64500000000001 V9.27000000000001 H96.5 L103.375 -59.72999999999999 H55.75 L54.375 -71.10499999999999 H79.375 V-91.10499999999999 H90.375 V-71.10499999999999 H115.875 L106.75 20.64500000000001 H89.125 Z M89.125 9.27000000000001 H96.5 H89.125 Q89.125 9.27000000000001 89.125 9.27000000000001 Q89.125 9.27000000000001 89.125 9.27000000000001 Z M18.375 -30.72999999999999 H64.875 Q60.875 -35.97999999999999 53.875 -37.85499999999999 Q46.875 -39.72999999999999 41.625 -39.72999999999999 Q36.375 -39.72999999999999 29.315 -37.85499999999999 Q22.25 -35.97999999999999 18.375 -30.72999999999999 Z M18.375 -30.72999999999999 Q22.25 -30.72999999999999 29.315 -30.72999999999999 Q36.375 -30.72999999999999 41.625 -30.72999999999999 Q46.875 -30.72999999999999 53.875 -30.72999999999999 Q60.875 -30.72999999999999 64.875 -30.72999999999999 H18.375 Z"/></g><g id="Regular-M" transform="matrix(1 0 0 1 1394.06 1126)"><path d="M5.0 19.77000000000001 V9.77000000000001 H80.0 V19.77000000000001 H5.0 Z M5.0 -20.22999999999999 Q5.0 -27.72999999999999 8.25 -33.35499999999999 Q11.5 -38.97999999999999 16.75 -42.72999999999999 Q22.0 -46.47999999999999 28.75 -48.35499999999999 Q35.5 -50.22999999999999 42.5 -50.22999999999999 Q49.5 -50.22999999999999 56.25 -48.35499999999999 Q63.0 -46.47999999999999 68.25 -42.72999999999999 Q73.5 -38.97999999999999 76.75 -33.35499999999999 Q80.0 -27.72999999999999 80.0 -20.22999999999999 H5.0 Z M5.0 -0.22999999999998977 V-10.22999999999999 H80.0 V-0.22999999999998977 H5.0 Z M90.0 19.77000000000001 V9.77000000000001 H97.0 L104.0 -60.22999999999999 H56.25 L55.0 -70.22999999999999 H80.0 V-90.22999999999999 H90.0 V-70.22999999999999 H115.0 L106.0 19.77000000000001 H90.0 Z M90.0 9.77000000000001 H97.0 H90.0 Q90.0 9.77000000000001 90.0 9.77000000000001 Q90.0 9.77000000000001 90.0 9.77000000000001 Z M18.125 -30.22999999999999 H66.875 Q62.75 -36.10499999999999 55.25 -38.16999999999999 Q47.75 -40.22999999999999 42.5 -40.22999999999999 Q37.25 -40.22999999999999 29.75 -38.16999999999999 Q22.25 -36.10499999999999 18.125 -30.22999999999999 Z M18.125 -30.22999999999999 Q22.25 -30.22999999999999 29.75 -30.22999999999999 Q37.25 -30.22999999999999 42.5 -30.22999999999999 Q47.75 -30.22999999999999 55.25 -30.22999999999999 Q62.75 -30.22999999999999 66.875 -30.22999999999999 H18.125 Z"/></g><g id="Light-M" transform="matrix(1 0 0 1 1098.18 1126)"><path d="M8.625 17.27000000000001 V9.77000000000001 H79.125 V17.27000000000001 H8.625 Z M8.625 -19.22999999999999 Q8.625 -25.22999999999999 11.44 -29.919999999999987 Q14.25 -34.60499999999999 19.0 -37.91999999999999 Q23.75 -41.22999999999999 30.185 -43.039999999999985 Q36.625 -44.85499999999999 43.875 -44.85499999999999 Q51.125 -44.85499999999999 57.565 -43.039999999999985 Q64.0 -41.22999999999999 68.815 -37.91999999999999 Q73.625 -34.60499999999999 76.375 -29.919999999999987 Q79.125 -25.22999999999999 79.125 -19.22999999999999 H8.625 Z M8.625 -0.9799999999999898 V-8.47999999999999 H79.125 V-0.9799999999999898 H8.625 Z M89.125 17.27000000000001 V9.77000000000001 H96.125 L103.125 -59.22999999999999 H56.75 L55.875 -66.72999999999999 H79.875 V-86.72999999999999 H87.375 V-66.72999999999999 H111.375 L102.875 17.27000000000001 H89.125 Z M89.125 9.77000000000001 H96.125 H89.125 Q89.125 9.77000000000001 89.125 9.77000000000001 Q89.125 9.77000000000001 89.125 9.77000000000001 Z M18.25 -26.72999999999999 H69.5 Q66.0 -32.35499999999999 58.69 -34.85499999999999 Q51.375 -37.35499999999999 43.875 -37.35499999999999 Q36.375 -37.35499999999999 29.125 -34.85499999999999 Q21.875 -32.35499999999999 18.25 -26.72999999999999 Z M18.25 -26.72999999999999 Q21.875 -26.72999999999999 29.125 -26.72999999999999 Q36.375 -26.72999999999999 43.875 -26.72999999999999 Q51.375 -26.72999999999999 58.69 -26.72999999999999 Q66.0 -26.72999999999999 69.5 -26.72999999999999 H18.25 Z"/></g><g id="Thin-M" transform="matrix(1 0 0 1 802.565 1126)"><path d="M12.25 14.77000000000001 V9.77000000000001 H78.375 V14.77000000000001 H12.25 Z M12.25 -18.35499999999999 Q12.25 -22.60499999999999 14.565 -26.47999999999999 Q16.875 -30.35499999999999 21.19 -33.22999999999999 Q25.5 -36.10499999999999 31.625 -37.79499999999999 Q37.75 -39.47999999999999 45.375 -39.47999999999999 Q52.875 -39.47999999999999 58.94 -37.79499999999999 Q65.0 -36.10499999999999 69.375 -33.22999999999999 Q73.75 -30.35499999999999 76.065 -26.47999999999999 Q78.375 -22.60499999999999 78.375 -18.35499999999999 H12.25 Z M12.25 -1.7299999999999898 V-6.72999999999999 H78.375 V-1.7299999999999898 H12.25 Z M88.375 14.77000000000001 V9.77000000000001 H95.375 L102.375 -58.35499999999999 H57.25 L56.625 -63.35499999999999 H79.75 V-83.35499999999999 H84.75 V-63.35499999999999 H107.75 L99.875 14.77000000000001 H88.375 Z M88.375 9.77000000000001 H95.375 H88.375 Q88.375 9.77000000000001 88.375 9.77000000000001 Q88.375 9.77000000000001 88.375 9.77000000000001 Z M18.375 -23.35499999999999 H72.125 Q69.25 -28.47999999999999 62.125 -31.47999999999999 Q55.0 -34.47999999999999 45.25 -34.47999999999999 Q35.625 -34.47999999999999 28.5 -31.47999999999999 Q21.375 -28.47999999999999 18.375 -23.35499999999999 Z M18.375 -23.35499999999999 Q21.375 -23.35499999999999 28.5 -23.35499999999999 Q35.625 -23.35499999999999 45.25 -23.35499999999999 Q55.0 -23.35499999999999 62.125 -23.35499999999999 Q69.25 -23.35499999999999 72.125 -23.35499999999999 H18.375 Z"/></g><g id="Ultralight-M" transform="matrix(1 0 0 1 506.415 1126)"><path d="M14.375 13.27000000000001 V9.77000000000001 H77.875 V13.27000000000001 H14.375 Z M14.375 -17.72999999999999 Q14.375 -21.10499999999999 16.439999999999998 -24.419999999999987 Q18.5 -27.72999999999999 22.564999999999998 -30.35499999999999 Q26.625 -32.97999999999999 32.565 -34.60499999999999 Q38.5 -36.22999999999999 46.25 -36.22999999999999 Q53.875 -36.22999999999999 59.75 -34.60499999999999 Q65.625 -32.97999999999999 69.69 -30.35499999999999 Q73.75 -27.72999999999999 75.815 -24.419999999999987 Q77.875 -21.10499999999999 77.875 -17.72999999999999 H14.375 Z M14.375 -2.2299999999999898 V-5.72999999999999 H77.875 V-2.2299999999999898 H14.375 Z M87.875 13.27000000000001 V9.77000000000001 H94.875 L101.875 -57.72999999999999 H57.625 L57.125 -61.22999999999999 H79.625 V-81.22999999999999 H83.125 V-61.22999999999999 H105.625 L98.0 13.27000000000001 H87.875 Z M87.875 9.77000000000001 H94.875 H87.875 Q87.875 9.77000000000001 87.875 9.77000000000001 Q87.875 9.77000000000001 87.875 9.77000000000001 Z M18.5 -21.22999999999999 H73.75 Q71.125 -26.22999999999999 64.125 -29.47999999999999 Q57.125 -32.72999999999999 46.125 -32.72999999999999 Q35.125 -32.72999999999999 28.125 -29.47999999999999 Q21.125 -26.22999999999999 18.5 -21.22999999999999 Z M18.5 -21.22999999999999 Q21.125 -21.22999999999999 28.125 -21.22999999999999 Q35.125 -21.22999999999999 46.125 -21.22999999999999 Q57.125 -21.22999999999999 64.125 -21.22999999999999 Q71.125 -21.22999999999999 73.75 -21.22999999999999 H18.5 Z"/></g><g id="Bold-S" transform="matrix(1 0 0 1 2294.23 696)"><path d="M0.889992 11.220008000000007 V0.1755860000000098 H58.483836 V11.220008000000007 H0.889992 Z M0.889992 -23.787921999999995 Q0.889992 -29.90424999999999 3.403746 -34.43942199999999 Q5.9175 -38.979327999999995 10.012410000000001 -41.98541799999999 Q14.102586 -44.991507999999996 19.281582 -46.47324999999999 Q24.460577999999998 -47.95499199999999 29.686913999999998 -47.95499199999999 Q34.91325 -47.95499199999999 40.092245999999996 -46.47324999999999 Q45.266507999999995 -44.991507999999996 49.361418 -41.98541799999999 Q53.456328 -38.979327999999995 55.970082000000005 -34.43942199999999 Q58.483836 -29.90424999999999 58.483836 -23.787921999999995 H0.889992 Z M0.889992 -6.333663999999999 V-17.278672 H58.483836 V-6.333663999999999 H0.889992 Z M66.76833599999999 11.220008000000007 V-1.5996640000000042 H72.685836 L79.39391400000001 -54.757749999999994 H39.64725 L38.364335999999994 -67.577422 H59.373827999999996 V-81.68000799999999 H70.716492 V-67.577422 H93.790008 L84.22732800000001 11.220008000000007 H66.76833599999999 Z M66.76833599999999 -1.5996640000000042 H72.685836 H66.76833599999999 Q66.76833599999999 -1.5996640000000042 66.76833599999999 -1.5996640000000042 Q66.76833599999999 -1.5996640000000042 66.76833599999999 -1.5996640000000042 Z M15.3855 -33.554164 H44.083008 Q41.621328 -35.52350799999999 38.46375 -36.85849599999999 Q35.306172000000004 -38.18874999999999 29.686913999999998 -38.18874999999999 Q24.062922 -38.18874999999999 20.957417999999997 -36.85849599999999 Q17.851914 -35.52350799999999 15.3855 -33.554164 Z M15.3855 -33.554164 Q17.851914 -33.554164 20.957417999999997 -33.554164 Q24.062922 -33.554164 29.686913999999998 -33.554164 Q35.306172000000004 -33.554164 38.46375 -33.554164 Q41.621328 -33.554164 44.083008 -33.554164 H15.3855 Z"/></g><g id="Semibold-S" transform="matrix(1 0 0 1 1998.1 696)"><path d="M2.168172 9.941828000000015 V0.1755860000000098 H59.76675 V9.941828000000015 H2.168172 Z M2.168172 -23.787921999999995 Q2.168172 -29.90424999999999 4.68666 -34.43942199999999 Q7.200413999999999 -38.979327999999995 11.290589999999998 -41.98541799999999 Q15.3855 -44.991507999999996 20.564496000000002 -46.47324999999999 Q25.743492 -47.95499199999999 30.969828 -47.95499199999999 Q36.196163999999996 -47.95499199999999 41.37516 -46.47324999999999 Q46.549422 -44.991507999999996 50.644332 -41.98541799999999 Q54.734508 -38.979327999999995 57.252995999999996 -34.43942199999999 Q59.76675 -29.90424999999999 59.76675 -23.787921999999995 H2.168172 Z M2.168172 -7.024827999999999 V-16.587507999999985 H59.76675 V-7.024827999999999 H2.168172 Z M68.05125 9.941828000000015 V-0.9084999999999894 H73.377 L80.27917199999999 -55.44891399999999 H40.338414 L39.254328 -66.294508 H60.259085999999996 V-80.401828 H70.219422 V-66.294508 H92.51182800000001 L83.138508 9.941828000000015 H68.05125 Z M68.05125 -0.9084999999999894 H73.377 H68.05125 Q68.05125 -0.9084999999999894 68.05125 -0.9084999999999894 Q68.05125 -0.9084999999999894 68.05125 -0.9084999999999894 Z M15.091992000000001 -32.86299999999999 H47.046492 Q44.281836 -35.72233599999999 40.437827999999996 -37.303492 Q36.589086 -38.879914 30.969828 -38.879914 Q25.345836000000002 -38.879914 21.596508 -37.303492 Q17.851914 -35.72233599999999 15.091992000000001 -32.86299999999999 Z M15.091992000000001 -32.86299999999999 Q17.851914 -32.86299999999999 21.596508 -32.86299999999999 Q25.345836000000002 -32.86299999999999 30.969828 -32.86299999999999 Q36.589086 -32.86299999999999 40.437827999999996 -32.86299999999999 Q44.281836 -32.86299999999999 47.046492 -32.86299999999999 H15.091992000000001 Z"/></g><g id="Medium-S" transform="matrix(1 0 0 1 1701.85 696)"><path d="M3.256992 8.853008000000017 V0.1755860000000098 H60.850835999999994 V8.853008000000017 H3.256992 Z M3.256992 -23.787921999999995 Q3.256992 -29.90424999999999 5.770746000000001 -34.43942199999999 Q8.2845 -38.979327999999995 12.379410000000002 -41.98541799999999 Q16.469586 -44.991507999999996 21.648582 -46.47324999999999 Q26.827578 -47.95499199999999 32.053914 -47.95499199999999 Q37.28025 -47.95499199999999 42.459246 -46.47324999999999 Q47.633508 -44.991507999999996 51.681078 -41.98541799999999 Q55.723914 -38.979327999999995 58.285008 -34.43942199999999 Q60.850835999999994 -29.90424999999999 60.850835999999994 -23.787921999999995 H3.256992 Z M3.256992 -7.417749999999998 V-16.194585999999987 H60.850835999999994 V-7.417749999999998 H3.256992 Z M69.135336 8.853008000000017 V-0.515578000000005 H73.96875 L80.870922 -55.841835999999994 H40.930164000000005 L39.945492 -65.210422 H60.850835999999994 V-79.313008 H69.925914 V-65.210422 H91.42300800000001 L82.352664 8.853008000000017 H69.135336 Z M69.135336 -0.515578000000005 H73.96875 H69.135336 Q69.135336 -0.515578000000005 69.135336 -0.515578000000005 Q69.135336 -0.515578000000005 69.135336 -0.515578000000005 Z M14.893163999999999 -32.470077999999994 H49.214664000000006 Q46.255914000000004 -35.821749999999994 41.96691 -37.549659999999996 Q37.673172 -39.27283599999999 32.053914 -39.27283599999999 Q26.429922 -39.27283599999999 22.093578 -37.549659999999996 Q17.7525 -35.821749999999994 14.893163999999999 -32.470077999999994 Z M14.893163999999999 -32.470077999999994 Q17.7525 -32.470077999999994 22.093578 -32.470077999999994 Q26.429922 -32.470077999999994 32.053914 -32.470077999999994 Q37.673172 -32.470077999999994 41.96691 -32.470077999999994 Q46.255914000000004 -32.470077999999994 49.214664000000006 -32.470077999999994 H14.893163999999999 Z"/></g><g id="Regular-S" transform="matrix(1 0 0 1 1405.73 696)"><path d="M3.943422 8.166578000000015 V0.1755860000000098 H61.542 V8.166578000000015 H3.943422 Z M3.943422 -23.787921999999995 Q3.943422 -29.90424999999999 6.46191 -34.43942199999999 Q8.975664 -38.979327999999995 13.06584 -41.98541799999999 Q17.16075 -44.991507999999996 22.339746 -46.47324999999999 Q27.514008 -47.95499199999999 32.745078 -47.95499199999999 Q37.971414 -47.95499199999999 43.15041 -46.47324999999999 Q48.324672 -44.991507999999996 52.419582 -41.98541799999999 Q56.514492000000004 -38.979327999999995 59.028245999999996 -34.43942199999999 Q61.542 -29.90424999999999 61.542 -23.787921999999995 H3.943422 Z M3.943422 -7.810671999999997 V-15.801664000000002 H61.542 V-7.810671999999997 H3.943422 Z M69.8265 8.166578000000015 V-0.11792199999999298 H74.361672 L81.367992 -56.23949199999999 H41.323085999999996 L40.437827999999996 -64.52399199999999 H61.343172 V-78.626578 H69.627672 V-64.52399199999999 H90.73657800000001 L81.760914 8.166578000000015 H69.8265 Z M69.8265 -0.11792199999999298 H74.361672 H69.8265 Q69.8265 -0.11792199999999298 69.8265 -0.11792199999999298 Q69.8265 -0.11792199999999298 69.8265 -0.11792199999999298 Z M14.694336 -32.072421999999996 H50.79108599999999 Q47.732922 -35.921164 43.050996 -37.79582799999999 Q38.364335999999994 -39.670491999999996 32.745078 -39.670491999999996 Q27.121086000000002 -39.670491999999996 22.43916 -37.79582799999999 Q17.7525 -35.921164 14.694336 -32.072421999999996 Z M14.694336 -32.072421999999996 Q17.7525 -32.072421999999996 22.43916 -32.072421999999996 Q27.121086000000002 -32.072421999999996 32.745078 -32.072421999999996 Q38.364335999999994 -32.072421999999996 43.050996 -32.072421999999996 Q47.732922 -32.072421999999996 50.79108599999999 -32.072421999999996 H14.694336 Z"/></g><g id="Light-S" transform="matrix(1 0 0 1 1109.75 696)"><path d="M6.807492 6.19250000000001 V0.1755860000000098 H60.850835999999994 V6.19250000000001 H6.807492 Z M6.807492 -23.00207799999999 Q6.807492 -27.835491999999995 8.975664 -31.67949999999999 Q11.143836 -35.52350799999999 14.84109 -38.18874999999999 Q18.543077999999998 -40.853992 23.471172 -42.28366 Q28.404 -43.71332799999999 33.829164 -43.71332799999999 Q39.254328 -43.71332799999999 44.182422 -42.28366 Q49.11525 -40.853992 52.864578 -38.18874999999999 Q56.609172 -35.52350799999999 58.730004 -31.726839999999996 Q60.850835999999994 -27.930171999999992 60.850835999999994 -23.00207799999999 H6.807492 Z M6.807492 -8.402421999999987 V-14.419335999999987 H60.850835999999994 V-8.402421999999987 H6.807492 Z M69.135336 6.19250000000001 V-0.11792199999999298 H73.670508 L80.676828 -55.44891399999999 H41.716007999999995 L41.128992000000004 -61.75933599999999 H61.248492000000006 V-75.86192199999999 H67.558914 V-61.75933599999999 H87.87250800000001 L79.2945 6.19250000000001 H69.135336 Z M69.135336 -0.11792199999999298 H73.670508 H69.135336 Q69.135336 -0.11792199999999298 69.135336 -0.11792199999999298 Q69.135336 -0.11792199999999298 69.135336 -0.11792199999999298 Z M14.79375 -29.312499999999993 H52.864578 Q50.29875 -32.962413999999995 45.763578 -35.18265999999999 Q41.223672 -37.398171999999995 33.829164 -37.398171999999995 Q26.429922 -37.398171999999995 21.94209 -35.18265999999999 Q17.458992000000002 -32.962413999999995 14.79375 -29.312499999999993 Z M14.79375 -29.312499999999993 Q17.458992000000002 -29.312499999999993 21.94209 -29.312499999999993 Q26.429922 -29.312499999999993 33.829164 -29.312499999999993 Q41.223672 -29.312499999999993 45.763578 -29.312499999999993 Q50.29875 -29.312499999999993 52.864578 -29.312499999999993 H14.79375 Z"/></g><g id="Thin-S" transform="matrix(1 0 0 1 814.015 696)"><path d="M9.666827999999999 4.218422000000004 V0.1755860000000098 H60.259085999999996 V4.218422000000004 H9.666827999999999 Z M9.666827999999999 -22.310913999999997 Q9.666827999999999 -25.861413999999996 11.442077999999999 -29.018991999999997 Q13.217327999999998 -32.17183599999999 16.569 -34.49149599999999 Q19.920672 -36.80642199999999 24.607332000000003 -38.14140999999999 Q29.293992 -39.471664 35.012664 -39.471664 Q40.631922 -39.471664 45.266507999999995 -38.14140999999999 Q49.905828 -36.80642199999999 53.2575 -34.49149599999999 Q56.609172 -32.17183599999999 58.436496 -29.018991999999997 Q60.259085999999996 -25.861413999999996 60.259085999999996 -22.310913999999997 H9.666827999999999 Z M9.666827999999999 -8.994171999999992 V-13.037007999999986 H60.259085999999996 V-8.994171999999992 H9.666827999999999 Z M68.54358599999999 4.218422000000004 V-0.11792199999999298 H73.083492 L80.08507800000001 -54.757749999999994 H42.11366400000001 L41.716007999999995 -59.098828 H61.149077999999996 V-73.201414 H65.485422 V-59.098828 H85.013172 L76.9275 4.218422000000004 H68.54358599999999 Z M68.54358599999999 -0.11792199999999298 H73.083492 H68.54358599999999 Q68.54358599999999 -0.11792199999999298 68.54358599999999 -0.11792199999999298 Q68.54358599999999 -0.11792199999999298 68.54358599999999 -0.11792199999999298 Z M14.893163999999999 -26.651991999999993 H54.933336 Q52.864578 -29.90424999999999 48.47616 -32.51741799999999 Q44.083008 -35.13058599999999 34.91325 -35.13058599999999 Q25.838172 -35.13058599999999 21.449754 -32.51741799999999 Q17.061336 -29.90424999999999 14.893163999999999 -26.651991999999993 Z M14.893163999999999 -26.651991999999993 Q17.061336 -26.651991999999993 21.449754 -26.651991999999993 Q25.838172 -26.651991999999993 34.91325 -26.651991999999993 Q44.083008 -26.651991999999993 48.47616 -26.651991999999993 Q52.864578 -26.651991999999993 54.933336 -26.651991999999993 H14.893163999999999 Z"/></g><g id="Ultralight-S" transform="matrix(1 0 0 1 517.792 696)"><path d="M11.342664 3.0349219999999946 V0.1755860000000098 H59.866164000000005 V3.0349219999999946 H11.342664 Z M11.342664 -21.818577999999995 Q11.342664 -24.677913999999994 12.919086 -27.39049599999999 Q14.495508 -30.10307799999999 17.653086000000002 -32.22391 Q20.810664 -34.34000799999999 25.345836000000002 -35.622921999999996 Q29.881008 -36.90583599999999 35.703828 -36.90583599999999 Q41.4225 -36.90583599999999 45.910332000000004 -35.622921999999996 Q50.398164 -34.34000799999999 53.551007999999996 -32.22391 Q56.708586 -30.10307799999999 58.285008 -27.39049599999999 Q59.866164000000005 -24.677913999999994 59.866164000000005 -21.818577999999995 H11.342664 Z M11.342664 -9.39182799999999 V-12.251164000000003 H59.866164000000005 V-9.39182799999999 H11.342664 Z M68.150664 3.0349219999999946 V-0.11792199999999298 H72.685836 L79.687422 -54.26541399999999 H42.407172 L42.11366400000001 -57.422991999999994 H61.04966400000001 V-71.525578 H64.202508 V-57.422991999999994 H83.337336 L75.450492 3.0349219999999946 H68.150664 Z M68.150664 -0.11792199999999298 H72.685836 H68.150664 Q68.150664 -0.11792199999999298 68.150664 -0.11792199999999298 Q68.150664 -0.11792199999999298 68.150664 -0.11792199999999298 Z M14.992578 -24.971421999999997 H56.21625 Q54.341586 -28.12899999999999 50.052582 -30.94099599999999 Q45.763578 -33.752992 35.604414 -33.752992 Q25.44525 -33.752992 21.156246000000003 -30.94099599999999 Q16.862508 -28.12899999999999 14.992578 -24.971421999999997 Z M14.992578 -24.971421999999997 Q16.862508 -24.971421999999997 21.156246000000003 -24.971421999999997 Q25.44525 -24.971421999999997 35.604414 -24.971421999999997 Q45.763578 -24.971421999999997 50.052582 -24.971421999999997 Q54.341586 -24.971421999999997 56.21625 -24.971421999999997 H14.992578 Z"/></g></g></svg>