<svg xmlns="http://www.w3.org/2000/svg" height="40" viewBox="0 -960 960 960" width="40"><path d="M619.69-534.1q20.26 0 34.75-14.59 14.48-14.59 14.48-34.85 0-20.25-14.59-34.74-14.59-14.49-34.84-14.49-20.26 0-34.75 14.59-14.48 14.59-14.48 34.85 0 20.25 14.59 34.74 14.59 14.49 34.84 14.49Zm-279.18 0q20.26 0 34.75-14.59 14.48-14.59 14.48-34.85 0-20.25-14.59-34.74-14.59-14.49-34.84-14.49-20.26 0-34.75 14.59-14.48 14.59-14.48 34.85 0 20.25 14.59 34.74 14.59 14.49 34.84 14.49ZM480-271.44q62.52 0 114.32-34.02 51.81-34.03 76.04-91.1h-47.13q-22.98 38.23-61.17 60.27-38.18 22.03-82.09 22.03-43.9 0-82.06-21.96-38.16-21.96-60.47-60.34h-47.8q24.39 57.07 76.11 91.1 51.73 34.02 114.25 34.02Zm.13 172.77q-78.64 0-148.49-30-69.86-30-121.53-81.42-51.67-51.43-81.56-121.28-29.88-69.85-29.88-148.5 0-78.64 30-148.49 30-69.86 81.42-121.53 51.43-51.67 121.28-81.56 69.85-29.88 148.5-29.88 78.64 0 148.49 30 69.86 30 121.53 81.42 51.67 51.43 81.56 121.28 29.88 69.85 29.88 148.5 0 78.64-30 148.49-30 69.86-81.42 121.53-51.43 51.67-121.28 81.56-69.85 29.88-148.5 29.88ZM480-480Zm.07 330.15q137.77 0 233.93-96.22 96.15-96.23 96.15-234 0-137.77-96.22-233.93-96.23-96.15-234-96.15-137.77 0-233.93 96.22-96.15 96.23-96.15 234 0 137.77 96.22 233.93 96.23 96.15 234 96.15Z"/></svg>