<svg xmlns="http://www.w3.org/2000/svg" height="48" viewBox="0 -960 960 960" width="48"><path d="M81.31-873.38 872.92-82.15l-32.61 32.61-424.93-424.54L299-349.69 502.77-100H180v-609.46L48.69-840.77l32.62-32.61ZM659.92-860v137.31h-97.69v238.92L187.23-860h472.69ZM420.15-730q-11.84 0-19.96 8.12-8.11 8.12-8.11 19.96 0 11.84 8.12 19.96 8.12 8.11 19.96 8.11 11.84 0 19.96-8.12 8.11-8.12 8.11-19.96 0-11.84-8.12-19.95-8.12-8.12-19.96-8.12Zm215.16 317.69v-237.31h38.46L795.38-528v275.77L635.31-412.31ZM633.84-100q-16.53 0-31.72-5.81-15.2-5.81-25.81-19.19L395.92-346.16l27.31-27.3L695.69-259l86.08 86.08q-12.26 31.79-41.05 52.35Q711.94-100 675.51-100h-41.67Z"/></svg>