<svg xmlns="http://www.w3.org/2000/svg" version="1.1" width="3300" height="2000"><g id="Notes"><style>
    text {
      font-family: monospace;
      text-anchor: middle;
    }
    text.emphasis {
      font-weight:bold;
    }
    text.lanchor {
      text-anchor: start;
    }
  </style><rect height="2200" id="artboard" fill="white" width="3300" x="0" y="0"/><line id="" style="fill:none;stroke:black;stroke-width:0.5;" x1="263" x2="3036" y1="292" y2="292"/><text class="lanchor emphasis" transform="matrix(1 0 0 1 263 322)">Weight/Scale Variations</text><text transform="matrix(1 0 0 1 559.711 322)">Ultralight</text><text transform="matrix(1 0 0 1 856.422 322)">Thin</text><text transform="matrix(1 0 0 1 1153.13 322)">Light</text><text transform="matrix(1 0 0 1 1449.84 322)">Regular</text><text transform="matrix(1 0 0 1 1746.56 322)">Medium</text><text transform="matrix(1 0 0 1 2043.27 322)">Semibold</text><text transform="matrix(1 0 0 1 2339.98 322)">Bold</text><text transform="matrix(1 0 0 1 2636.69 322)">Heavy</text><text transform="matrix(1 0 0 1 2933.4 322)">Black</text><text id="template-version" style="text-anchor: end;" transform="matrix(1 0 0 1 3036 1933)">Template v.1.0</text><text class="lanchor" transform="matrix(1 0 0 1 263 726)">Small</text><text class="lanchor" transform="matrix(1 0 0 1 263 1156)">Medium</text><text class="lanchor" transform="matrix(1 0 0 1 263 1586)">Large</text></g><g id="Guides"><g id="H-reference" style="fill:#27AAE1;stroke:none;" transform="matrix(1 0 0 1 339 696)"><path d="M 54.9316 0 L 57.666 0 L 30.5664 -70.459 L 28.0762 -70.459 L 0.976562 0 L 3.66211 0 L 12.9395 -24.4629 L 45.7031 -24.4629 Z M 29.1992 -67.0898 L 29.4434 -67.0898 L 44.8242 -26.709 L 13.8184 -26.709 Z"/></g><line id="Baseline-S" style="fill:none;stroke:#27AAE1;opacity:1;stroke-width:0.577;" x1="263" x2="3036" y1="696" y2="696"/><line id="Capline-S" style="fill:none;stroke:#27AAE1;opacity:1;stroke-width:0.577;" x1="263" x2="3036" y1="625.541" y2="625.541"/><g id="H-reference" style="fill:#27AAE1;stroke:none;" transform="matrix(1 0 0 1 339 1126)"><path d="M 54.9316 0 L 57.666 0 L 30.5664 -70.459 L 28.0762 -70.459 L 0.976562 0 L 3.66211 0 L 12.9395 -24.4629 L 45.7031 -24.4629 Z M 29.1992 -67.0898 L 29.4434 -67.0898 L 44.8242 -26.709 L 13.8184 -26.709 Z"/></g><line id="Baseline-M" style="fill:none;stroke:#27AAE1;opacity:1;stroke-width:0.577;" x1="263" x2="3036" y1="1126" y2="1126"/><line id="Capline-M" style="fill:none;stroke:#27AAE1;opacity:1;stroke-width:0.577;" x1="263" x2="3036" y1="1055.54" y2="1055.54"/><g id="H-reference" style="fill:#27AAE1;stroke:none;" transform="matrix(1 0 0 1 339 1556)"><path d="M 54.9316 0 L 57.666 0 L 30.5664 -70.459 L 28.0762 -70.459 L 0.976562 0 L 3.66211 0 L 12.9395 -24.4629 L 45.7031 -24.4629 Z M 29.1992 -67.0898 L 29.4434 -67.0898 L 44.8242 -26.709 L 13.8184 -26.709 Z"/></g><line id="Baseline-L" style="fill:none;stroke:#27AAE1;opacity:1;stroke-width:0.577;" x1="263" x2="3036" y1="1556" y2="1556"/><line id="Capline-L" style="fill:none;stroke:#27AAE1;opacity:1;stroke-width:0.577;" x1="263" x2="3036" y1="1485.54" y2="1485.54"/><rect height="119.336" id="left-margin" style="fill:darkred;stroke:none;opacity:0.4;" width="12.4512" x="1394.06" y="1030.79"/><rect height="119.336" id="right-margin" style="fill:darkgreen;stroke:none;opacity:0.4;" width="12.4512" x="1502.5112" y="1030.79"/><rect x="1406.5112" y="1045" width="96" height="96" fill="none" stroke="blue" stroke-dasharray="5"/><rect x="1394.06" y="1030.79" width="120.9024" height="119.336" fill="none" stroke="blue"/></g><g id="Symbols"><g id="Bold-L" transform="matrix(1 0 0 1 2266 1556)"><path d="M96.75 -6.688749999999985 Q99.33 -6.688749999999985 100.94250000000001 -8.301249999999982 Q102.555 -9.913749999999993 102.555 -12.493749999999991 V-22.974999999999994 H113.03625 Q115.61625000000001 -22.974999999999994 117.22875 -24.58749999999999 Q118.84125 -26.19999999999999 118.84125 -28.779999999999987 Q118.84125 -31.36 117.22875 -32.9725 Q115.61625000000001 -34.584999999999994 113.03625 -34.584999999999994 H102.555 V-45.06625 Q102.555 -47.646249999999995 100.94250000000001 -49.25875 Q99.33 -50.871249999999996 96.75 -50.871249999999996 Q94.17 -50.871249999999996 92.5575 -49.25875 Q90.945 -47.646249999999995 90.945 -45.06625 V-34.584999999999994 H80.46375 Q77.88374999999999 -34.584999999999994 76.27125 -32.9725 Q74.65875 -31.36 74.65875 -28.779999999999987 Q74.65875 -26.19999999999999 76.27125 -24.58749999999999 Q77.88374999999999 -22.974999999999994 80.46375 -22.974999999999994 H90.945 V-12.493749999999991 Q90.945 -9.913749999999993 92.5575 -8.301249999999982 Q94.17 -6.688749999999985 96.75 -6.688749999999985 Z M24.1875 20.401250000000005 Q17.89875 20.401250000000005 13.464375 15.886250000000018 Q9.03 11.371250000000018 9.03 5.243750000000006 V-77.47749999999999 Q9.03 -83.60499999999999 13.464375 -88.200625 Q17.89875 -92.79624999999999 24.1875 -92.79624999999999 H59.823750000000004 Q62.8875 -92.79624999999999 65.70937500000001 -91.50625 Q68.53125 -90.21625 70.6275 -88.12 L77.56125 -81.3475 H130.935 Q137.0625 -81.3475 141.65812499999998 -76.75187499999998 Q146.25375 -72.15625 146.25375 -66.02875 V5.243750000000006 Q146.25375 11.371250000000018 141.65812499999998 15.886250000000018 Q137.0625 20.401250000000005 130.935 20.401250000000005 H24.1875 Z M24.1875 -77.47749999999999 V5.243750000000006 Q24.1875 5.243750000000006 24.1875 5.243750000000006 Q24.1875 5.243750000000006 24.1875 5.243750000000006 H130.935 Q130.935 5.243750000000006 130.935 5.243750000000006 Q130.935 5.243750000000006 130.935 5.243750000000006 V-66.02875 Q130.935 -66.02875 130.935 -66.02875 Q130.935 -66.02875 130.935 -66.02875 H71.27250000000001 L59.823750000000004 -77.47749999999999 H24.1875 Q24.1875 -77.47749999999999 24.1875 -77.47749999999999 Q24.1875 -77.47749999999999 24.1875 -77.47749999999999 Z M24.1875 -77.47749999999999 Q24.1875 -77.47749999999999 24.1875 -77.47749999999999 Q24.1875 -77.47749999999999 24.1875 -77.47749999999999 V-66.02875 Q24.1875 -66.02875 24.1875 -66.02875 Q24.1875 -66.02875 24.1875 -66.02875 V5.243750000000006 Q24.1875 5.243750000000006 24.1875 5.243750000000006 Q24.1875 5.243750000000006 24.1875 5.243750000000006 Q24.1875 5.243750000000006 24.1875 5.243750000000006 Q24.1875 5.243750000000006 24.1875 5.243750000000006 V-77.47749999999999 Z"/></g><g id="Semibold-L" transform="matrix(1 0 0 1 1970.27 1556)"><path d="M96.75 -7.8174999999999955 Q99.16875 -7.8174999999999955 100.62 -9.349374999999995 Q102.07124999999999 -10.881249999999994 102.07124999999999 -13.299999999999997 V-23.458749999999995 H112.22999999999999 Q114.64874999999999 -23.458749999999995 116.18062499999999 -24.909999999999997 Q117.7125 -26.36125 117.7125 -28.779999999999987 Q117.7125 -31.19874999999999 116.18062499999999 -32.64999999999999 Q114.64874999999999 -34.10124999999999 112.22999999999999 -34.10124999999999 H102.07124999999999 V-44.25999999999999 Q102.07124999999999 -46.678749999999994 100.62 -48.21062499999999 Q99.16875 -49.74249999999999 96.75 -49.74249999999999 Q94.33125 -49.74249999999999 92.88000000000001 -48.21062499999999 Q91.42875000000001 -46.678749999999994 91.42875000000001 -44.25999999999999 V-34.10124999999999 H81.27 Q78.85125 -34.10124999999999 77.31937500000001 -32.64999999999999 Q75.78750000000001 -31.19874999999999 75.78750000000001 -28.779999999999987 Q75.78750000000001 -26.36125 77.31937500000001 -24.909999999999997 Q78.85125 -23.458749999999995 81.27 -23.458749999999995 H91.42875000000001 V-13.299999999999997 Q91.42875000000001 -10.881249999999994 92.88000000000001 -9.349374999999995 Q94.33125 -7.8174999999999955 96.75 -7.8174999999999955 Z M23.5425 18.627500000000026 Q18.3825 18.627500000000026 14.593125000000002 14.757500000000007 Q10.80375 10.887500000000003 10.80375 5.888750000000002 V-77.31625 Q10.80375 -82.47625 14.593125000000002 -86.34625 Q18.3825 -90.21625 23.5425 -90.21625 H61.597500000000004 Q64.1775 -90.21625 66.59625 -89.16812499999999 Q69.015 -88.12 70.78875 -86.34625 L77.56125 -79.57374999999999 H131.57999999999998 Q136.74 -79.57374999999999 140.61 -75.70375 Q144.48 -71.83375 144.48 -66.67374999999998 V5.888750000000002 Q144.48 10.887500000000003 140.61 14.757500000000007 Q136.74 18.627500000000026 131.57999999999998 18.627500000000026 H23.5425 Z M23.5425 -77.31625 V5.888750000000002 Q23.5425 5.888750000000002 23.5425 5.888750000000002 Q23.5425 5.888750000000002 23.5425 5.888750000000002 H131.57999999999998 Q131.57999999999998 5.888750000000002 131.57999999999998 5.888750000000002 Q131.57999999999998 5.888750000000002 131.57999999999998 5.888750000000002 V-66.67374999999998 Q131.57999999999998 -66.67374999999998 131.57999999999998 -66.67374999999998 Q131.57999999999998 -66.67374999999998 131.57999999999998 -66.67374999999998 H72.24 L61.597500000000004 -77.31625 H23.5425 Q23.5425 -77.31625 23.5425 -77.31625 Q23.5425 -77.31625 23.5425 -77.31625 Z M23.5425 -77.31625 Q23.5425 -77.31625 23.5425 -77.31625 Q23.5425 -77.31625 23.5425 -77.31625 V-66.67374999999998 Q23.5425 -66.67374999999998 23.5425 -66.67374999999998 Q23.5425 -66.67374999999998 23.5425 -66.67374999999998 V5.888750000000002 Q23.5425 5.888750000000002 23.5425 5.888750000000002 Q23.5425 5.888750000000002 23.5425 5.888750000000002 Q23.5425 5.888750000000002 23.5425 5.888750000000002 Q23.5425 5.888750000000002 23.5425 5.888750000000002 V-77.31625 Z"/></g><g id="Medium-L" transform="matrix(1 0 0 1 1674.31 1556)"><path d="M96.75 -8.784999999999982 Q99.00750000000001 -8.784999999999982 100.378125 -10.236249999999998 Q101.74875 -11.687499999999986 101.74875 -13.783749999999998 V-23.781249999999986 H111.74625 Q113.84249999999999 -23.781249999999986 115.29375 -25.232499999999987 Q116.74500000000002 -26.683750000000003 116.74500000000002 -28.779999999999987 Q116.74500000000002 -31.037499999999994 115.29375 -32.408125 Q113.84249999999999 -33.77875 111.74625 -33.77875 H101.74875 V-43.77624999999999 Q101.74875 -45.8725 100.29750000000001 -47.32374999999999 Q98.84625 -48.77499999999999 96.75 -48.77499999999999 Q94.4925 -48.77499999999999 93.121875 -47.32374999999999 Q91.75125 -45.8725 91.75125 -43.77624999999999 V-33.77875 H81.75375000000001 Q79.6575 -33.77875 78.20625 -32.3275 Q76.75500000000001 -30.876249999999985 76.75500000000001 -28.779999999999987 Q76.75500000000001 -26.522499999999994 78.20625 -25.15187499999999 Q79.6575 -23.781249999999986 81.75375000000001 -23.781249999999986 H91.75125 V-13.783749999999998 Q91.75125 -11.687499999999986 93.2025 -10.236249999999998 Q94.65375 -8.784999999999982 96.75 -8.784999999999982 Z M23.058750000000003 17.337500000000006 Q18.705 17.337500000000006 15.399375000000001 13.951250000000002 Q12.09375 10.565000000000012 12.09375 6.372500000000002 V-77.155 Q12.09375 -81.50874999999999 15.399375000000001 -84.895 Q18.705 -88.28125 23.058750000000003 -88.28125 H62.8875 Q65.145 -88.28125 67.24125000000001 -87.31375 Q69.3375 -86.34625 70.78875 -84.895 L77.56125 -78.1225 H132.06375 Q136.4175 -78.1225 139.723125 -74.816875 Q143.02875 -71.51124999999999 143.02875 -67.1575 V6.372500000000002 Q143.02875 10.565000000000012 139.723125 13.951250000000002 Q136.4175 17.337500000000006 132.06375 17.337500000000006 H23.058750000000003 Z M23.058750000000003 -77.155 V6.372500000000002 Q23.058750000000003 6.372500000000002 23.058750000000003 6.372500000000002 Q23.058750000000003 6.372500000000002 23.058750000000003 6.372500000000002 H132.06375 Q132.06375 6.372500000000002 132.06375 6.372500000000002 Q132.06375 6.372500000000002 132.06375 6.372500000000002 V-67.1575 Q132.06375 -67.1575 132.06375 -67.1575 Q132.06375 -67.1575 132.06375 -67.1575 H73.04625 L62.8875 -77.155 H23.058750000000003 Q23.058750000000003 -77.155 23.058750000000003 -77.155 Q23.058750000000003 -77.155 23.058750000000003 -77.155 Z M23.058750000000003 -77.155 Q23.058750000000003 -77.155 23.058750000000003 -77.155 Q23.058750000000003 -77.155 23.058750000000003 -77.155 V-67.1575 Q23.058750000000003 -67.1575 23.058750000000003 -67.1575 Q23.058750000000003 -67.1575 23.058750000000003 -67.1575 V6.372500000000002 Q23.058750000000003 6.372500000000002 23.058750000000003 6.372500000000002 Q23.058750000000003 6.372500000000002 23.058750000000003 6.372500000000002 Q23.058750000000003 6.372500000000002 23.058750000000003 6.372500000000002 Q23.058750000000003 6.372500000000002 23.058750000000003 6.372500000000002 V-77.155 Z"/></g><g id="Regular-L" transform="matrix(1 0 0 1 1378.56 1556)"><path d="M96.75 -9.429999999999993 Q98.84625 -9.429999999999993 100.216875 -10.800624999999997 Q101.5875 -12.17125 101.5875 -14.267499999999998 V-23.942499999999995 H111.2625 Q113.35875 -23.942499999999995 114.72937500000002 -25.313125 Q116.10000000000001 -26.683750000000003 116.10000000000001 -28.779999999999987 Q116.10000000000001 -30.876249999999985 114.72937500000002 -32.24687499999999 Q113.35875 -33.61749999999999 111.2625 -33.61749999999999 H101.5875 V-43.29249999999999 Q101.5875 -45.38874999999999 100.216875 -46.75937499999999 Q98.84625 -48.129999999999995 96.75 -48.129999999999995 Q94.65375 -48.129999999999995 93.283125 -46.75937499999999 Q91.91250000000001 -45.38874999999999 91.91250000000001 -43.29249999999999 V-33.61749999999999 H82.2375 Q80.14125000000001 -33.61749999999999 78.77062500000001 -32.24687499999999 Q77.4 -30.876249999999985 77.4 -28.779999999999987 Q77.4 -26.683750000000003 78.77062500000001 -25.313125 Q80.14125000000001 -23.942499999999995 82.2375 -23.942499999999995 H91.91250000000001 V-14.267499999999998 Q91.91250000000001 -12.17125 93.283125 -10.800624999999997 Q94.65375 -9.429999999999993 96.75 -9.429999999999993 Z M22.73625 16.370000000000005 Q18.86625 16.370000000000005 15.963750000000001 13.386875000000018 Q13.06125 10.403750000000002 13.06125 6.695000000000007 V-77.155 Q13.06125 -80.86375 15.963750000000001 -83.846875 Q18.86625 -86.83 22.73625 -86.83 H63.855000000000004 Q65.78999999999999 -86.83 67.64437500000001 -86.02374999999999 Q69.49875 -85.2175 70.78875 -83.9275 L77.56125 -77.155 H132.38625 Q136.095 -77.155 139.078125 -74.171875 Q142.06125 -71.18875 142.06125 -67.47999999999999 V6.695000000000007 Q142.06125 10.403750000000002 139.078125 13.386875000000018 Q136.095 16.370000000000005 132.38625 16.370000000000005 H22.73625 Z M22.73625 -77.155 V6.695000000000007 Q22.73625 6.695000000000007 22.73625 6.695000000000007 Q22.73625 6.695000000000007 22.73625 6.695000000000007 H132.38625 Q132.38625 6.695000000000007 132.38625 6.695000000000007 Q132.38625 6.695000000000007 132.38625 6.695000000000007 V-67.47999999999999 Q132.38625 -67.47999999999999 132.38625 -67.47999999999999 Q132.38625 -67.47999999999999 132.38625 -67.47999999999999 H73.53 L63.855000000000004 -77.155 H22.73625 Q22.73625 -77.155 22.73625 -77.155 Q22.73625 -77.155 22.73625 -77.155 Z M22.73625 -77.155 Q22.73625 -77.155 22.73625 -77.155 Q22.73625 -77.155 22.73625 -77.155 V-67.47999999999999 Q22.73625 -67.47999999999999 22.73625 -67.47999999999999 Q22.73625 -67.47999999999999 22.73625 -67.47999999999999 V6.695000000000007 Q22.73625 6.695000000000007 22.73625 6.695000000000007 Q22.73625 6.695000000000007 22.73625 6.695000000000007 Q22.73625 6.695000000000007 22.73625 6.695000000000007 Q22.73625 6.695000000000007 22.73625 6.695000000000007 V-77.155 Z"/></g><g id="Light-L" transform="matrix(1 0 0 1 1082.77 1556)"><path d="M96.75 -11.04249999999999 Q98.3625 -11.04249999999999 99.410625 -12.090624999999989 Q100.45875 -13.138749999999987 100.45875 -14.751249999999985 V-25.071249999999992 H110.77875 Q112.39125000000001 -25.071249999999992 113.439375 -26.11937499999999 Q114.4875 -27.16749999999999 114.4875 -28.779999999999987 Q114.4875 -30.3925 113.439375 -31.440624999999997 Q112.39125000000001 -32.48874999999998 110.77875 -32.48874999999998 H100.45875 V-42.80875 Q100.45875 -44.42125 99.410625 -45.469375 Q98.3625 -46.5175 96.75 -46.5175 Q95.1375 -46.5175 94.089375 -45.469375 Q93.04125 -44.42125 93.04125 -42.80875 V-32.48874999999998 H82.72125 Q81.10875 -32.48874999999998 80.060625 -31.440624999999997 Q79.0125 -30.3925 79.0125 -28.779999999999987 Q79.0125 -27.16749999999999 80.060625 -26.11937499999999 Q81.10875 -25.071249999999992 82.72125 -25.071249999999992 H93.04125 V-14.751249999999985 Q93.04125 -13.138749999999987 94.089375 -12.090624999999989 Q95.1375 -11.04249999999999 96.75 -11.04249999999999 Z M25.477500000000003 13.14500000000001 Q21.76875 13.14500000000001 19.027500000000003 10.323125000000005 Q16.28625 7.501250000000013 16.28625 3.792500000000018 V-71.83375 Q16.28625 -75.54249999999999 19.027500000000003 -78.364375 Q21.76875 -81.18625 25.477500000000003 -81.18625 H65.62875000000001 Q67.56375 -81.18625 69.25687500000001 -80.38 Q70.95 -79.57374999999999 72.24 -78.28375 L77.56125 -73.12375 H129.48375 Q133.1925 -73.12375 136.014375 -70.301875 Q138.83625 -67.47999999999999 138.83625 -63.771249999999995 V3.792500000000018 Q138.83625 7.501250000000013 136.014375 10.323125000000005 Q133.1925 13.14500000000001 129.48375 13.14500000000001 H25.477500000000003 Z M23.5425 -71.83375 V3.792500000000018 Q23.5425 4.760000000000005 24.106875 5.324375000000018 Q24.67125 5.888750000000002 25.477500000000003 5.888750000000002 H129.48375 Q130.29 5.888750000000002 130.854375 5.324375000000018 Q131.41875000000002 4.760000000000005 131.41875000000002 3.792500000000018 V-63.771249999999995 Q131.41875000000002 -64.57749999999999 130.854375 -65.141875 Q130.29 -65.70624999999998 129.48375 -65.70624999999998 H74.4975 L66.435 -73.76874999999998 H25.477500000000003 Q24.67125 -73.76874999999998 24.106875 -73.204375 Q23.5425 -72.63999999999999 23.5425 -71.83375 Z M23.5425 -71.83375 Q23.5425 -72.63999999999999 23.5425 -73.204375 Q23.5425 -73.76874999999998 23.5425 -73.76874999999998 V-65.70624999999998 Q23.5425 -65.70624999999998 23.5425 -65.141875 Q23.5425 -64.57749999999999 23.5425 -63.771249999999995 V3.792500000000018 Q23.5425 4.760000000000005 23.5425 5.324375000000018 Q23.5425 5.888750000000002 23.5425 5.888750000000002 Q23.5425 5.888750000000002 23.5425 5.324375000000018 Q23.5425 4.760000000000005 23.5425 3.792500000000018 V-71.83375 Z"/></g><g id="Thin-L" transform="matrix(1 0 0 1 787.282 1556)"><path d="M96.75 -12.654999999999987 Q97.87875000000001 -12.654999999999987 98.52375 -13.380624999999995 Q99.16875 -14.106249999999989 99.16875 -15.07374999999999 V-26.36125 H110.45625 Q111.42375 -26.36125 112.14937499999999 -27.086874999999992 Q112.875 -27.812499999999986 112.875 -28.779999999999987 Q112.875 -29.908749999999998 112.14937499999999 -30.553749999999994 Q111.42375 -31.19874999999999 110.45625 -31.19874999999999 H99.16875 V-42.48625 Q99.16875 -43.45375 98.443125 -44.17937499999999 Q97.7175 -44.90499999999999 96.75 -44.90499999999999 Q95.62125 -44.90499999999999 94.97625000000001 -44.17937499999999 Q94.33125 -43.45375 94.33125 -42.48625 V-31.19874999999999 H83.04375 Q82.07625 -31.19874999999999 81.35062500000001 -30.473124999999982 Q80.625 -29.747500000000002 80.625 -28.779999999999987 Q80.625 -27.65124999999999 81.35062500000001 -27.006249999999994 Q82.07625 -26.36125 83.04375 -26.36125 H94.33125 V-15.07374999999999 Q94.33125 -14.106249999999989 95.056875 -13.380624999999995 Q95.7825 -12.654999999999987 96.75 -12.654999999999987 Z M28.380000000000003 9.920000000000002 Q24.67125 9.920000000000002 22.010625 7.340000000000018 Q19.35 4.760000000000005 19.35 1.0512500000000102 V-66.51249999999999 Q19.35 -70.22125 22.010625 -72.80125 Q24.67125 -75.38125 28.380000000000003 -75.38125 H67.4025 Q69.17625 -75.38125 70.78875 -74.65562499999999 Q72.40125 -73.92999999999999 73.85249999999999 -72.80125 L77.4 -68.93124999999999 H126.58125 Q130.29 -68.93124999999999 132.87 -66.35125 Q135.45000000000002 -63.771249999999995 135.45000000000002 -60.06249999999999 V1.0512500000000102 Q135.45000000000002 4.760000000000005 132.87 7.340000000000018 Q130.29 9.920000000000002 126.58125 9.920000000000002 H28.380000000000003 Z M24.34875 -66.51249999999999 V1.0512500000000102 Q24.34875 2.6637500000000074 25.558125 3.792500000000018 Q26.767500000000002 4.921250000000015 28.380000000000003 4.921250000000015 H126.58125 Q128.355 4.921250000000015 129.40312500000002 3.792500000000018 Q130.45125000000002 2.6637500000000074 130.45125000000002 1.0512500000000102 V-60.06249999999999 Q130.45125000000002 -61.83624999999999 129.40312500000002 -62.88437499999999 Q128.355 -63.9325 126.58125 -63.9325 H75.465 L69.015 -70.3825 H28.380000000000003 Q26.767500000000002 -70.3825 25.558125 -69.334375 Q24.34875 -68.28625 24.34875 -66.51249999999999 Z M24.34875 -66.51249999999999 Q24.34875 -68.28625 24.34875 -69.334375 Q24.34875 -70.3825 24.34875 -70.3825 V-63.9325 Q24.34875 -63.9325 24.34875 -62.88437499999999 Q24.34875 -61.83624999999999 24.34875 -60.06249999999999 V1.0512500000000102 Q24.34875 2.6637500000000074 24.34875 3.792500000000018 Q24.34875 4.921250000000015 24.34875 4.921250000000015 Q24.34875 4.921250000000015 24.34875 3.792500000000018 Q24.34875 2.6637500000000074 24.34875 1.0512500000000102 V-66.51249999999999 Z"/></g><g id="Ultralight-L" transform="matrix(1 0 0 1 491.205 1556)"><path d="M96.75 -13.622499999999988 Q97.55625 -13.622499999999988 98.03999999999999 -14.106249999999989 Q98.52375 -14.590000000000003 98.52375 -15.396249999999995 V-27.006249999999994 H110.13374999999999 Q110.94 -27.006249999999994 111.42375 -27.489999999999995 Q111.90750000000001 -27.973749999999995 111.90750000000001 -28.779999999999987 Q111.90750000000001 -29.586249999999993 111.42375 -30.069999999999993 Q110.94 -30.553749999999994 110.13374999999999 -30.553749999999994 H98.52375 V-42.16374999999999 Q98.52375 -42.969999999999985 98.03999999999999 -43.45375 Q97.55625 -43.937499999999986 96.75 -43.937499999999986 Q95.94375000000001 -43.937499999999986 95.46000000000001 -43.45375 Q94.97625000000001 -42.969999999999985 94.97625000000001 -42.16374999999999 V-30.553749999999994 H83.36625000000001 Q82.56 -30.553749999999994 82.07625 -30.069999999999993 Q81.5925 -29.586249999999993 81.5925 -28.779999999999987 Q81.5925 -27.973749999999995 82.07625 -27.489999999999995 Q82.56 -27.006249999999994 83.36625000000001 -27.006249999999994 H94.97625000000001 V-15.396249999999995 Q94.97625000000001 -14.590000000000003 95.46000000000001 -14.106249999999989 Q95.94375000000001 -13.622499999999988 96.75 -13.622499999999988 Z M29.992500000000003 7.984999999999999 Q26.28375 7.984999999999999 23.784375 5.485625000000013 Q21.285 2.9862500000000125 21.285 -0.7224999999999824 V-63.287499999999994 Q21.285 -66.99625 23.784375 -69.49562499999999 Q26.28375 -71.995 29.992500000000003 -71.995 H68.37 Q70.14375 -71.995 71.75625000000001 -71.269375 Q73.36875 -70.54374999999999 74.65875 -69.41499999999999 L77.4 -66.51249999999999 H124.80750000000002 Q128.51625 -66.51249999999999 131.015625 -64.013125 Q133.515 -61.513749999999995 133.515 -57.80499999999999 V-0.7224999999999824 Q133.515 2.9862500000000125 131.015625 5.485625000000013 Q128.51625 7.984999999999999 124.80750000000002 7.984999999999999 H29.992500000000003 Z M24.8325 -63.287499999999994 V-0.7224999999999824 Q24.8325 1.5349999999999966 26.364375000000003 2.9862500000000125 Q27.896250000000002 4.4375 29.992500000000003 4.4375 H124.80750000000002 Q127.065 4.4375 128.51625 2.9862500000000125 Q129.9675 1.5349999999999966 129.9675 -0.7224999999999824 V-57.80499999999999 Q129.9675 -60.06249999999999 128.51625 -61.513749999999995 Q127.065 -62.964999999999996 124.80750000000002 -62.964999999999996 H76.11000000000001 L70.6275 -68.44749999999999 H29.992500000000003 Q27.896250000000002 -68.44749999999999 26.364375000000003 -66.99625 Q24.8325 -65.54499999999999 24.8325 -63.287499999999994 Z M24.8325 -63.287499999999994 Q24.8325 -65.54499999999999 24.8325 -66.99625 Q24.8325 -68.44749999999999 24.8325 -68.44749999999999 V-62.964999999999996 Q24.8325 -62.964999999999996 24.8325 -61.513749999999995 Q24.8325 -60.06249999999999 24.8325 -57.80499999999999 V-0.7224999999999824 Q24.8325 1.5349999999999966 24.8325 2.9862500000000125 Q24.8325 4.4375 24.8325 4.4375 Q24.8325 4.4375 24.8325 2.9862500000000125 Q24.8325 1.5349999999999966 24.8325 -0.7224999999999824 V-63.287499999999994 Z"/></g><g id="Bold-M" transform="matrix(1 0 0 1 2281.8 1126)"><path d="M75.0 -12.35499999999999 Q77.5 -12.35499999999999 79.25 -14.10499999999999 Q81.0 -15.85499999999999 81.0 -18.35499999999999 V-24.22999999999999 H86.875 Q89.375 -24.22999999999999 91.125 -25.97999999999999 Q92.875 -27.72999999999999 92.875 -30.22999999999999 Q92.875 -32.72999999999999 91.125 -34.47999999999999 Q89.375 -36.22999999999999 86.875 -36.22999999999999 H81.0 V-42.10499999999999 Q81.0 -44.60499999999999 79.25 -46.35499999999999 Q77.5 -48.10499999999999 75.0 -48.10499999999999 Q72.5 -48.10499999999999 70.75 -46.35499999999999 Q69.0 -44.60499999999999 69.0 -42.10499999999999 V-36.22999999999999 H63.125 Q60.625 -36.22999999999999 58.875 -34.47999999999999 Q57.125 -32.72999999999999 57.125 -30.22999999999999 Q57.125 -27.72999999999999 58.875 -25.97999999999999 Q60.625 -24.22999999999999 63.125 -24.22999999999999 H69.0 V-18.35499999999999 Q69.0 -15.85499999999999 70.75 -14.10499999999999 Q72.5 -12.35499999999999 75.0 -12.35499999999999 Z M21.5 9.02000000000001 Q14.875 9.02000000000001 10.309999999999999 4.460000000000008 Q5.75 -0.10499999999998977 5.75 -6.72999999999999 V-65.60499999999999 Q5.75 -72.22999999999999 10.309999999999999 -76.79499999999999 Q14.875 -81.35499999999999 21.5 -81.35499999999999 H41.625 Q44.75 -81.35499999999999 47.625 -80.10499999999999 Q50.5 -78.85499999999999 52.625 -76.72999999999999 L60.0 -69.47999999999999 H98.5 Q105.125 -69.47999999999999 109.69 -64.91999999999999 Q114.25 -60.35499999999999 114.25 -53.72999999999999 V-6.72999999999999 Q114.25 -0.10499999999998977 109.69 4.460000000000008 Q105.125 9.02000000000001 98.5 9.02000000000001 H21.5 Z M21.5 -65.60499999999999 V-6.72999999999999 Q21.5 -6.72999999999999 21.5 -6.72999999999999 Q21.5 -6.72999999999999 21.5 -6.72999999999999 H98.5 Q98.5 -6.72999999999999 98.5 -6.72999999999999 Q98.5 -6.72999999999999 98.5 -6.72999999999999 V-53.72999999999999 Q98.5 -53.72999999999999 98.5 -53.72999999999999 Q98.5 -53.72999999999999 98.5 -53.72999999999999 H53.5 L41.625 -65.60499999999999 H21.5 Q21.5 -65.60499999999999 21.5 -65.60499999999999 Q21.5 -65.60499999999999 21.5 -65.60499999999999 Z M21.5 -65.60499999999999 Q21.5 -65.60499999999999 21.5 -65.60499999999999 Q21.5 -65.60499999999999 21.5 -65.60499999999999 V-53.72999999999999 Q21.5 -53.72999999999999 21.5 -53.72999999999999 Q21.5 -53.72999999999999 21.5 -53.72999999999999 V-6.72999999999999 Q21.5 -6.72999999999999 21.5 -6.72999999999999 Q21.5 -6.72999999999999 21.5 -6.72999999999999 Q21.5 -6.72999999999999 21.5 -6.72999999999999 Q21.5 -6.72999999999999 21.5 -6.72999999999999 V-65.60499999999999 Z"/></g><g id="Semibold-M" transform="matrix(1 0 0 1 1985.97 1126)"><path d="M75.0 -13.60499999999999 Q77.375 -13.60499999999999 79.0 -15.22999999999999 Q80.625 -16.85499999999999 80.625 -19.22999999999999 V-24.60499999999999 H86.0 Q88.375 -24.60499999999999 90.0 -26.22999999999999 Q91.625 -27.85499999999999 91.625 -30.22999999999999 Q91.625 -32.60499999999999 90.0 -34.22999999999999 Q88.375 -35.85499999999999 86.0 -35.85499999999999 H80.625 V-41.22999999999999 Q80.625 -43.60499999999999 79.0 -45.22999999999999 Q77.375 -46.85499999999999 75.0 -46.85499999999999 Q72.625 -46.85499999999999 71.0 -45.22999999999999 Q69.375 -43.60499999999999 69.375 -41.22999999999999 V-35.85499999999999 H64.0 Q61.625 -35.85499999999999 60.0 -34.22999999999999 Q58.375 -32.60499999999999 58.375 -30.22999999999999 Q58.375 -27.85499999999999 60.0 -26.22999999999999 Q61.625 -24.60499999999999 64.0 -24.60499999999999 H69.375 V-19.22999999999999 Q69.375 -16.85499999999999 71.0 -15.22999999999999 Q72.625 -13.60499999999999 75.0 -13.60499999999999 Z M20.875 7.14500000000001 Q15.25 7.14500000000001 11.44 3.3300000000000125 Q7.625 -0.47999999999998977 7.625 -6.10499999999999 V-65.47999999999999 Q7.625 -70.97999999999999 11.44 -74.85499999999999 Q15.25 -78.72999999999999 20.875 -78.72999999999999 H43.5 Q46.125 -78.72999999999999 48.5 -77.66999999999999 Q50.875 -76.60499999999999 52.75 -74.85499999999999 L60.0 -67.60499999999999 H99.125 Q104.75 -67.60499999999999 108.565 -63.79499999999999 Q112.375 -59.97999999999999 112.375 -54.35499999999999 V-6.10499999999999 Q112.375 -0.47999999999998977 108.565 3.3300000000000125 Q104.75 7.14500000000001 99.125 7.14500000000001 H20.875 Z M20.875 -65.47999999999999 V-6.10499999999999 Q20.875 -6.10499999999999 20.875 -6.10499999999999 Q20.875 -6.10499999999999 20.875 -6.10499999999999 H99.125 Q99.125 -6.10499999999999 99.125 -6.10499999999999 Q99.125 -6.10499999999999 99.125 -6.10499999999999 V-54.35499999999999 Q99.125 -54.35499999999999 99.125 -54.35499999999999 Q99.125 -54.35499999999999 99.125 -54.35499999999999 H54.5 L43.5 -65.47999999999999 H20.875 Q20.875 -65.47999999999999 20.875 -65.47999999999999 Q20.875 -65.47999999999999 20.875 -65.47999999999999 Z M20.875 -65.47999999999999 Q20.875 -65.47999999999999 20.875 -65.47999999999999 Q20.875 -65.47999999999999 20.875 -65.47999999999999 V-54.35499999999999 Q20.875 -54.35499999999999 20.875 -54.35499999999999 Q20.875 -54.35499999999999 20.875 -54.35499999999999 V-6.10499999999999 Q20.875 -6.10499999999999 20.875 -6.10499999999999 Q20.875 -6.10499999999999 20.875 -6.10499999999999 Q20.875 -6.10499999999999 20.875 -6.10499999999999 Q20.875 -6.10499999999999 20.875 -6.10499999999999 V-65.47999999999999 Z"/></g><g id="Medium-M" transform="matrix(1 0 0 1 1689.91 1126)"><path d="M75.0 -14.47999999999999 Q77.25 -14.47999999999999 78.75 -16.044999999999987 Q80.25 -17.60499999999999 80.25 -19.72999999999999 V-24.97999999999999 H85.5 Q87.625 -24.97999999999999 89.19 -26.47999999999999 Q90.75 -27.97999999999999 90.75 -30.22999999999999 Q90.75 -32.47999999999999 89.19 -33.97999999999999 Q87.625 -35.47999999999999 85.5 -35.47999999999999 H80.25 V-40.72999999999999 Q80.25 -42.85499999999999 78.75 -44.41999999999999 Q77.25 -45.97999999999999 75.0 -45.97999999999999 Q72.75 -45.97999999999999 71.25 -44.41999999999999 Q69.75 -42.85499999999999 69.75 -40.72999999999999 V-35.47999999999999 H64.5 Q62.375 -35.47999999999999 60.815 -33.97999999999999 Q59.25 -32.47999999999999 59.25 -30.22999999999999 Q59.25 -27.97999999999999 60.815 -26.47999999999999 Q62.375 -24.97999999999999 64.5 -24.97999999999999 H69.75 V-19.72999999999999 Q69.75 -17.60499999999999 71.25 -16.044999999999987 Q72.75 -14.47999999999999 75.0 -14.47999999999999 Z M20.375 5.77000000000001 Q15.625 5.77000000000001 12.31 2.460000000000008 Q9.0 -0.8549999999999898 9.0 -5.60499999999999 V-65.35499999999999 Q9.0 -70.10499999999999 12.31 -73.41999999999999 Q15.625 -76.72999999999999 20.375 -76.72999999999999 H44.875 Q47.125 -76.72999999999999 49.19 -75.85499999999999 Q51.25 -74.97999999999999 52.875 -73.35499999999999 L60.0 -66.22999999999999 H99.625 Q104.375 -66.22999999999999 107.69 -62.91499999999999 Q111.0 -59.60499999999999 111.0 -54.85499999999999 V-5.60499999999999 Q111.0 -0.8549999999999898 107.69 2.460000000000008 Q104.375 5.77000000000001 99.625 5.77000000000001 H20.375 Z M20.375 -65.35499999999999 V-5.60499999999999 Q20.375 -5.60499999999999 20.375 -5.60499999999999 Q20.375 -5.60499999999999 20.375 -5.60499999999999 H99.625 Q99.625 -5.60499999999999 99.625 -5.60499999999999 Q99.625 -5.60499999999999 99.625 -5.60499999999999 V-54.85499999999999 Q99.625 -54.85499999999999 99.625 -54.85499999999999 Q99.625 -54.85499999999999 99.625 -54.85499999999999 H55.25 L44.875 -65.35499999999999 H20.375 Q20.375 -65.35499999999999 20.375 -65.35499999999999 Q20.375 -65.35499999999999 20.375 -65.35499999999999 Z M20.375 -65.35499999999999 Q20.375 -65.35499999999999 20.375 -65.35499999999999 Q20.375 -65.35499999999999 20.375 -65.35499999999999 V-54.85499999999999 Q20.375 -54.85499999999999 20.375 -54.85499999999999 Q20.375 -54.85499999999999 20.375 -54.85499999999999 V-5.60499999999999 Q20.375 -5.60499999999999 20.375 -5.60499999999999 Q20.375 -5.60499999999999 20.375 -5.60499999999999 Q20.375 -5.60499999999999 20.375 -5.60499999999999 Q20.375 -5.60499999999999 20.375 -5.60499999999999 V-65.35499999999999 Z"/></g><g id="Regular-M" transform="matrix(1 0 0 1 1394.06 1126)"><path d="M75.0 -15.22999999999999 Q77.125 -15.22999999999999 78.565 -16.669999999999987 Q80.0 -18.10499999999999 80.0 -20.22999999999999 V-25.22999999999999 H85.0 Q87.125 -25.22999999999999 88.56 -26.669999999999987 Q90.0 -28.10499999999999 90.0 -30.22999999999999 Q90.0 -32.35499999999999 88.56 -33.79499999999999 Q87.125 -35.22999999999999 85.0 -35.22999999999999 H80.0 V-40.22999999999999 Q80.0 -42.35499999999999 78.565 -43.79499999999999 Q77.125 -45.22999999999999 75.0 -45.22999999999999 Q72.875 -45.22999999999999 71.44 -43.79499999999999 Q70.0 -42.35499999999999 70.0 -40.22999999999999 V-35.22999999999999 H65.0 Q62.875 -35.22999999999999 61.44 -33.79499999999999 Q60.0 -32.35499999999999 60.0 -30.22999999999999 Q60.0 -28.10499999999999 61.44 -26.669999999999987 Q62.875 -25.22999999999999 65.0 -25.22999999999999 H70.0 V-20.22999999999999 Q70.0 -18.10499999999999 71.44 -16.669999999999987 Q72.875 -15.22999999999999 75.0 -15.22999999999999 Z M20.0 4.77000000000001 Q15.875 4.77000000000001 12.940000000000001 1.835000000000008 Q10.0 -1.1049999999999898 10.0 -5.22999999999999 V-65.22999999999999 Q10.0 -69.35499999999999 12.940000000000001 -72.28999999999999 Q15.875 -75.22999999999999 20.0 -75.22999999999999 H45.875 Q47.875 -75.22999999999999 49.690000000000005 -74.47999999999999 Q51.5 -73.72999999999999 52.875 -72.35499999999999 L60.0 -65.22999999999999 H100.0 Q104.125 -65.22999999999999 107.065 -62.28999999999999 Q110.0 -59.35499999999999 110.0 -55.22999999999999 V-5.22999999999999 Q110.0 -1.1049999999999898 107.065 1.835000000000008 Q104.125 4.77000000000001 100.0 4.77000000000001 H20.0 Z M20.0 -65.22999999999999 V-5.22999999999999 Q20.0 -5.22999999999999 20.0 -5.22999999999999 Q20.0 -5.22999999999999 20.0 -5.22999999999999 H100.0 Q100.0 -5.22999999999999 100.0 -5.22999999999999 Q100.0 -5.22999999999999 100.0 -5.22999999999999 V-55.22999999999999 Q100.0 -55.22999999999999 100.0 -55.22999999999999 Q100.0 -55.22999999999999 100.0 -55.22999999999999 H55.875 L45.875 -65.22999999999999 H20.0 Q20.0 -65.22999999999999 20.0 -65.22999999999999 Q20.0 -65.22999999999999 20.0 -65.22999999999999 Z M20.0 -65.22999999999999 Q20.0 -65.22999999999999 20.0 -65.22999999999999 Q20.0 -65.22999999999999 20.0 -65.22999999999999 V-55.22999999999999 Q20.0 -55.22999999999999 20.0 -55.22999999999999 Q20.0 -55.22999999999999 20.0 -55.22999999999999 V-5.22999999999999 Q20.0 -5.22999999999999 20.0 -5.22999999999999 Q20.0 -5.22999999999999 20.0 -5.22999999999999 Q20.0 -5.22999999999999 20.0 -5.22999999999999 Q20.0 -5.22999999999999 20.0 -5.22999999999999 V-65.22999999999999 Z"/></g><g id="Light-M" transform="matrix(1 0 0 1 1098.18 1126)"><path d="M75.0 -16.47999999999999 Q76.625 -16.47999999999999 77.69 -17.544999999999987 Q78.75 -18.60499999999999 78.75 -20.22999999999999 V-26.47999999999999 H85.0 Q86.625 -26.47999999999999 87.69 -27.544999999999987 Q88.75 -28.60499999999999 88.75 -30.22999999999999 Q88.75 -31.85499999999999 87.69 -32.91999999999999 Q86.625 -33.97999999999999 85.0 -33.97999999999999 H78.75 V-40.22999999999999 Q78.75 -41.85499999999999 77.69 -42.91999999999999 Q76.625 -43.97999999999999 75.0 -43.97999999999999 Q73.375 -43.97999999999999 72.315 -42.91999999999999 Q71.25 -41.85499999999999 71.25 -40.22999999999999 V-33.97999999999999 H65.0 Q63.375 -33.97999999999999 62.315 -32.91999999999999 Q61.25 -31.85499999999999 61.25 -30.22999999999999 Q61.25 -28.60499999999999 62.315 -27.544999999999987 Q63.375 -26.47999999999999 65.0 -26.47999999999999 H71.25 V-20.22999999999999 Q71.25 -18.60499999999999 72.315 -17.544999999999987 Q73.375 -16.47999999999999 75.0 -16.47999999999999 Z M21.5 2.2700000000000102 Q17.75 2.2700000000000102 15.125 -0.35499999999998977 Q12.5 -2.9799999999999898 12.5 -6.72999999999999 V-61.72999999999999 Q12.5 -65.60499999999999 15.125 -68.22999999999999 Q17.75 -70.85499999999999 21.5 -70.85499999999999 H48.125 Q50.0 -70.85499999999999 51.69 -70.10499999999999 Q53.375 -69.35499999999999 54.5 -68.22999999999999 L60.0 -62.72999999999999 H98.5 Q102.25 -62.72999999999999 104.875 -60.10499999999999 Q107.5 -57.47999999999999 107.5 -53.72999999999999 V-6.72999999999999 Q107.5 -2.9799999999999898 104.875 -0.35499999999998977 Q102.25 2.2700000000000102 98.5 2.2700000000000102 H21.5 Z M20.0 -61.72999999999999 V-6.72999999999999 Q20.0 -6.10499999999999 20.44 -5.664999999999992 Q20.875 -5.22999999999999 21.5 -5.22999999999999 H98.5 Q99.125 -5.22999999999999 99.565 -5.664999999999992 Q100.0 -6.10499999999999 100.0 -6.72999999999999 V-53.72999999999999 Q100.0 -54.35499999999999 99.565 -54.79499999999999 Q99.125 -55.22999999999999 98.5 -55.22999999999999 H56.875 L48.875 -63.35499999999999 H21.5 Q20.875 -63.35499999999999 20.44 -62.91499999999999 Q20.0 -62.47999999999999 20.0 -61.72999999999999 Z M20.0 -61.72999999999999 Q20.0 -62.47999999999999 20.0 -62.91499999999999 Q20.0 -63.35499999999999 20.0 -63.35499999999999 V-55.22999999999999 Q20.0 -55.22999999999999 20.0 -54.79499999999999 Q20.0 -54.35499999999999 20.0 -53.72999999999999 V-6.72999999999999 Q20.0 -6.10499999999999 20.0 -5.664999999999992 Q20.0 -5.22999999999999 20.0 -5.22999999999999 Q20.0 -5.22999999999999 20.0 -5.664999999999992 Q20.0 -6.10499999999999 20.0 -6.72999999999999 V-61.72999999999999 Z"/></g><g id="Thin-M" transform="matrix(1 0 0 1 802.565 1126)"><path d="M75.0 -17.72999999999999 Q76.125 -17.72999999999999 76.815 -18.414999999999992 Q77.5 -19.10499999999999 77.5 -20.22999999999999 V-27.72999999999999 H85.0 Q86.125 -27.72999999999999 86.815 -28.414999999999992 Q87.5 -29.10499999999999 87.5 -30.22999999999999 Q87.5 -31.35499999999999 86.815 -32.04499999999999 Q86.125 -32.72999999999999 85.0 -32.72999999999999 H77.5 V-40.22999999999999 Q77.5 -41.35499999999999 76.815 -42.04499999999999 Q76.125 -42.72999999999999 75.0 -42.72999999999999 Q73.875 -42.72999999999999 73.185 -42.04499999999999 Q72.5 -41.35499999999999 72.5 -40.22999999999999 V-32.72999999999999 H65.0 Q63.875 -32.72999999999999 63.185 -32.04499999999999 Q62.5 -31.35499999999999 62.5 -30.22999999999999 Q62.5 -29.10499999999999 63.185 -28.414999999999992 Q63.875 -27.72999999999999 65.0 -27.72999999999999 H72.5 V-20.22999999999999 Q72.5 -19.10499999999999 73.185 -18.414999999999992 Q73.875 -17.72999999999999 75.0 -17.72999999999999 Z M23.125 -0.22999999999998977 Q19.625 -0.22999999999998977 17.315 -2.539999999999992 Q15.0 -4.85499999999999 15.0 -8.35499999999999 V-58.35499999999999 Q15.0 -61.72999999999999 17.315 -64.04499999999999 Q19.625 -66.35499999999999 23.125 -66.35499999999999 H50.5 Q52.125 -66.35499999999999 53.625 -65.72999999999999 Q55.125 -65.10499999999999 56.25 -63.97999999999999 L60.0 -60.22999999999999 H96.875 Q100.375 -60.22999999999999 102.69 -57.91499999999999 Q105.0 -55.60499999999999 105.0 -52.10499999999999 V-8.35499999999999 Q105.0 -4.85499999999999 102.69 -2.539999999999992 Q100.375 -0.22999999999998977 96.875 -0.22999999999998977 H23.125 Z M20.0 -58.35499999999999 V-8.35499999999999 Q20.0 -6.97999999999999 20.875 -6.10499999999999 Q21.75 -5.22999999999999 23.125 -5.22999999999999 H96.875 Q98.25 -5.22999999999999 99.125 -6.10499999999999 Q100.0 -6.97999999999999 100.0 -8.35499999999999 V-52.10499999999999 Q100.0 -53.47999999999999 99.125 -54.35499999999999 Q98.25 -55.22999999999999 96.875 -55.22999999999999 H58.0 L51.875 -61.35499999999999 H23.125 Q21.75 -61.35499999999999 20.875 -60.47999999999999 Q20.0 -59.60499999999999 20.0 -58.35499999999999 Z M20.0 -58.35499999999999 Q20.0 -59.60499999999999 20.0 -60.47999999999999 Q20.0 -61.35499999999999 20.0 -61.35499999999999 V-55.22999999999999 Q20.0 -55.22999999999999 20.0 -54.35499999999999 Q20.0 -53.47999999999999 20.0 -52.10499999999999 V-8.35499999999999 Q20.0 -6.97999999999999 20.0 -6.10499999999999 Q20.0 -5.22999999999999 20.0 -5.22999999999999 Q20.0 -5.22999999999999 20.0 -6.10499999999999 Q20.0 -6.97999999999999 20.0 -8.35499999999999 V-58.35499999999999 Z"/></g><g id="Ultralight-M" transform="matrix(1 0 0 1 506.415 1126)"><path d="M75.0 -18.47999999999999 Q75.75 -18.47999999999999 76.25 -18.97999999999999 Q76.75 -19.47999999999999 76.75 -20.22999999999999 V-28.47999999999999 H85.0 Q85.75 -28.47999999999999 86.25 -28.97999999999999 Q86.75 -29.47999999999999 86.75 -30.22999999999999 Q86.75 -30.97999999999999 86.25 -31.47999999999999 Q85.75 -31.97999999999999 85.0 -31.97999999999999 H76.75 V-40.22999999999999 Q76.75 -40.97999999999999 76.25 -41.47999999999999 Q75.75 -41.97999999999999 75.0 -41.97999999999999 Q74.25 -41.97999999999999 73.75 -41.47999999999999 Q73.25 -40.97999999999999 73.25 -40.22999999999999 V-31.97999999999999 H65.0 Q64.25 -31.97999999999999 63.75 -31.47999999999999 Q63.25 -30.97999999999999 63.25 -30.22999999999999 Q63.25 -29.47999999999999 63.75 -28.97999999999999 Q64.25 -28.47999999999999 65.0 -28.47999999999999 H73.25 V-20.22999999999999 Q73.25 -19.47999999999999 73.75 -18.97999999999999 Q74.25 -18.47999999999999 75.0 -18.47999999999999 Z M24.0 -1.7299999999999898 Q20.75 -1.7299999999999898 18.625 -3.8549999999999898 Q16.5 -5.97999999999999 16.5 -9.22999999999999 V-56.22999999999999 Q16.5 -59.47999999999999 18.625 -61.60499999999999 Q20.75 -63.72999999999999 24.0 -63.72999999999999 H51.875 Q53.375 -63.72999999999999 54.815 -63.10499999999999 Q56.25 -62.47999999999999 57.25 -61.47999999999999 L60.0 -58.72999999999999 H96.0 Q99.25 -58.72999999999999 101.375 -56.60499999999999 Q103.5 -54.47999999999999 103.5 -51.22999999999999 V-9.22999999999999 Q103.5 -5.97999999999999 101.375 -3.8549999999999898 Q99.25 -1.7299999999999898 96.0 -1.7299999999999898 H24.0 Z M20.0 -56.22999999999999 V-9.22999999999999 Q20.0 -7.47999999999999 21.125 -6.35499999999999 Q22.25 -5.22999999999999 24.0 -5.22999999999999 H96.0 Q97.75 -5.22999999999999 98.875 -6.35499999999999 Q100.0 -7.47999999999999 100.0 -9.22999999999999 V-51.22999999999999 Q100.0 -52.97999999999999 98.875 -54.10499999999999 Q97.75 -55.22999999999999 96.0 -55.22999999999999 H58.625 L53.625 -60.22999999999999 H24.0 Q22.25 -60.22999999999999 21.125 -59.10499999999999 Q20.0 -57.97999999999999 20.0 -56.22999999999999 Z M20.0 -56.22999999999999 Q20.0 -57.97999999999999 20.0 -59.10499999999999 Q20.0 -60.22999999999999 20.0 -60.22999999999999 V-55.22999999999999 Q20.0 -55.22999999999999 20.0 -54.10499999999999 Q20.0 -52.97999999999999 20.0 -51.22999999999999 V-9.22999999999999 Q20.0 -7.47999999999999 20.0 -6.35499999999999 Q20.0 -5.22999999999999 20.0 -5.22999999999999 Q20.0 -5.22999999999999 20.0 -6.35499999999999 Q20.0 -7.47999999999999 20.0 -9.22999999999999 V-56.22999999999999 Z"/></g><g id="Bold-S" transform="matrix(1 0 0 1 2294.23 696)"><path d="M59.175 -17.18399199999999 Q61.149077999999996 -17.18399199999999 62.626085999999994 -18.660999999999994 Q64.107828 -20.138007999999992 64.107828 -22.11208599999999 V-26.35374999999999 H68.349492 Q70.31883599999999 -26.35374999999999 71.800578 -27.835491999999995 Q73.277586 -29.312499999999993 73.277586 -31.28657799999999 Q73.277586 -33.25592199999999 71.800578 -34.737663999999995 Q70.31883599999999 -36.21467199999999 68.349492 -36.21467199999999 H64.107828 V-40.456335999999986 Q64.107828 -42.430414 62.626085999999994 -43.907422 Q61.149077999999996 -45.389163999999994 59.175 -45.389163999999994 Q57.200922 -45.389163999999994 55.723914 -43.907422 Q54.242172000000004 -42.430414 54.242172000000004 -40.456335999999986 V-36.21467199999999 H50.000507999999996 Q48.031164000000004 -36.21467199999999 46.549422 -34.737663999999995 Q45.072414 -33.25592199999999 45.072414 -31.28657799999999 Q45.072414 -29.312499999999993 46.549422 -27.835491999999995 Q48.031164000000004 -26.35374999999999 50.000507999999996 -26.35374999999999 H54.242172000000004 V-22.11208599999999 Q54.242172000000004 -20.138007999999992 55.723914 -18.660999999999994 Q57.200922 -17.18399199999999 59.175 -17.18399199999999 Z M17.359578 -0.316749999999999 Q11.934414 -0.316749999999999 8.23716 -4.014003999999986 Q4.535172 -7.715992 4.535172 -13.136421999999996 V-58.800585999999996 Q4.535172 -64.22574999999999 8.23716 -67.92300399999999 Q11.934414 -71.62499199999999 17.359578 -71.62499199999999 H32.248008 Q34.813836 -71.62499199999999 37.180836 -70.588246 Q39.547836 -69.55149999999999 41.323085999999996 -67.77624999999999 L47.34 -61.85874999999999 H77.320422 Q82.745586 -61.85874999999999 86.44284 -58.161496 Q90.144828 -54.459508 90.144828 -49.03907799999999 V-13.136421999999996 Q90.144828 -7.715992 86.44284 -4.014003999999986 Q82.745586 -0.316749999999999 77.320422 -0.316749999999999 H17.359578 Z M17.359578 -58.800585999999996 V-13.136421999999996 Q17.359578 -13.136421999999996 17.359578 -13.136421999999996 Q17.359578 -13.136421999999996 17.359578 -13.136421999999996 H77.320422 Q77.320422 -13.136421999999996 77.320422 -13.136421999999996 Q77.320422 -13.136421999999996 77.320422 -13.136421999999996 V-49.03907799999999 Q77.320422 -49.03907799999999 77.320422 -49.03907799999999 Q77.320422 -49.03907799999999 77.320422 -49.03907799999999 H42.01425 L32.248008 -58.800585999999996 H17.359578 Q17.359578 -58.800585999999996 17.359578 -58.800585999999996 Q17.359578 -58.800585999999996 17.359578 -58.800585999999996 Z M17.359578 -58.800585999999996 Q17.359578 -58.800585999999996 17.359578 -58.800585999999996 Q17.359578 -58.800585999999996 17.359578 -58.800585999999996 V-49.03907799999999 Q17.359578 -49.03907799999999 17.359578 -49.03907799999999 Q17.359578 -49.03907799999999 17.359578 -49.03907799999999 V-13.136421999999996 Q17.359578 -13.136421999999996 17.359578 -13.136421999999996 Q17.359578 -13.136421999999996 17.359578 -13.136421999999996 Q17.359578 -13.136421999999996 17.359578 -13.136421999999996 Q17.359578 -13.136421999999996 17.359578 -13.136421999999996 V-58.800585999999996 Z"/></g><g id="Semibold-S" transform="matrix(1 0 0 1 1998.1 696)"><path d="M59.175 -18.168663999999993 Q61.04966400000001 -18.168663999999993 62.431992 -19.550991999999994 Q63.809585999999996 -20.92858599999999 63.809585999999996 -22.80324999999999 V-26.651991999999993 H67.658328 Q69.53299200000001 -26.651991999999993 70.910586 -28.029585999999988 Q72.29291400000001 -29.411913999999996 72.29291400000001 -31.28657799999999 Q72.29291400000001 -33.15650799999999 70.910586 -34.53883599999999 Q69.53299200000001 -35.921164 67.658328 -35.921164 H63.809585999999996 V-39.76517199999999 Q63.809585999999996 -41.63983599999999 62.431992 -43.022164 Q61.04966400000001 -44.404492 59.175 -44.404492 Q57.300335999999994 -44.404492 55.918008 -43.022164 Q54.540414000000006 -41.63983599999999 54.540414000000006 -39.76517199999999 V-35.921164 H50.691672000000004 Q48.817007999999994 -35.921164 47.439414000000006 -34.53883599999999 Q46.057086 -33.15650799999999 46.057086 -31.28657799999999 Q46.057086 -29.411913999999996 47.439414000000006 -28.029585999999988 Q48.817007999999994 -26.651991999999993 50.691672000000004 -26.651991999999993 H54.540414000000006 V-22.80324999999999 Q54.540414000000006 -20.92858599999999 55.918008 -19.550991999999994 Q57.300335999999994 -18.168663999999993 59.175 -18.168663999999993 Z M16.862508 -1.7984919999999818 Q12.327336 -1.7984919999999818 9.174491999999999 -4.9513359999999835 Q6.016914 -8.108913999999999 6.016914 -12.644085999999987 V-58.70117199999999 Q6.016914 -63.24107799999999 9.174491999999999 -66.39392199999999 Q12.327336 -69.55149999999999 16.862508 -69.55149999999999 H33.72975 Q35.897922 -69.55149999999999 37.91934 -68.661508 Q39.945492 -67.77624999999999 41.4225 -66.294508 L47.34 -60.37700799999999 H77.81749199999999 Q82.352664 -60.37700799999999 85.505508 -57.22416399999999 Q88.66308599999999 -54.066585999999994 88.66308599999999 -49.53141399999999 V-12.644085999999987 Q88.66308599999999 -8.108913999999999 85.505508 -4.9513359999999835 Q82.352664 -1.7984919999999818 77.81749199999999 -1.7984919999999818 H16.862508 Z M16.862508 -58.70117199999999 V-12.644085999999987 Q16.862508 -12.644085999999987 16.862508 -12.644085999999987 Q16.862508 -12.644085999999987 16.862508 -12.644085999999987 H77.81749199999999 Q77.81749199999999 -12.644085999999987 77.81749199999999 -12.644085999999987 Q77.81749199999999 -12.644085999999987 77.81749199999999 -12.644085999999987 V-49.53141399999999 Q77.81749199999999 -49.53141399999999 77.81749199999999 -49.53141399999999 Q77.81749199999999 -49.53141399999999 77.81749199999999 -49.53141399999999 H42.804828 L33.72975 -58.70117199999999 H16.862508 Q16.862508 -58.70117199999999 16.862508 -58.70117199999999 Q16.862508 -58.70117199999999 16.862508 -58.70117199999999 Z M16.862508 -58.70117199999999 Q16.862508 -58.70117199999999 16.862508 -58.70117199999999 Q16.862508 -58.70117199999999 16.862508 -58.70117199999999 V-49.53141399999999 Q16.862508 -49.53141399999999 16.862508 -49.53141399999999 Q16.862508 -49.53141399999999 16.862508 -49.53141399999999 V-12.644085999999987 Q16.862508 -12.644085999999987 16.862508 -12.644085999999987 Q16.862508 -12.644085999999987 16.862508 -12.644085999999987 Q16.862508 -12.644085999999987 16.862508 -12.644085999999987 Q16.862508 -12.644085999999987 16.862508 -12.644085999999987 V-58.70117199999999 Z"/></g><g id="Medium-S" transform="matrix(1 0 0 1 1701.85 696)"><path d="M59.175 -18.859827999999993 Q60.95025 -18.859827999999993 62.233164 -20.190081999999997 Q63.516078 -21.520335999999986 63.516078 -23.196171999999997 V-26.945499999999996 H67.260672 Q68.936508 -26.945499999999996 70.271496 -28.228413999999994 Q71.60175 -29.511327999999992 71.60175 -31.28657799999999 Q71.60175 -33.06182799999999 70.271496 -34.34000799999999 Q68.936508 -35.622921999999996 67.260672 -35.622921999999996 H63.516078 V-39.372249999999994 Q63.516078 -41.04808599999999 62.233164 -42.378339999999994 Q60.95025 -43.71332799999999 59.175 -43.71332799999999 Q57.39975 -43.71332799999999 56.116836 -42.378339999999994 Q54.833922 -41.04808599999999 54.833922 -39.372249999999994 V-35.622921999999996 H51.089328 Q49.413492000000005 -35.622921999999996 48.078504 -34.34000799999999 Q46.74825 -33.06182799999999 46.74825 -31.28657799999999 Q46.74825 -29.511327999999992 48.078504 -28.228413999999994 Q49.413492000000005 -26.945499999999996 51.089328 -26.945499999999996 H54.833922 V-23.196171999999997 Q54.833922 -21.520335999999986 56.116836 -20.190081999999997 Q57.39975 -18.859827999999993 59.175 -18.859827999999993 Z M16.469586 -2.882577999999995 Q12.526164 -2.882577999999995 9.813582 -5.595159999999993 Q7.101 -8.303007999999991 7.101 -12.251164000000003 V-58.60649199999999 Q7.101 -62.45049999999999 9.813582 -65.210422 Q12.526164 -67.975078 16.469586 -67.975078 H34.813836 Q36.6885 -67.975078 38.41641 -67.23183999999999 Q40.139585999999994 -66.493336 41.521914 -65.111008 L47.34 -59.29292199999999 H78.210414 Q82.153836 -59.29292199999999 84.866418 -56.58033999999999 Q87.579 -53.872491999999994 87.579 -49.924336 V-12.251164000000003 Q87.579 -8.303007999999991 84.866418 -5.595159999999993 Q82.153836 -2.882577999999995 78.210414 -2.882577999999995 H16.469586 Z M16.469586 -58.60649199999999 V-12.251164000000003 Q16.469586 -12.251164000000003 16.469586 -12.251164000000003 Q16.469586 -12.251164000000003 16.469586 -12.251164000000003 H78.210414 Q78.210414 -12.251164000000003 78.210414 -12.251164000000003 Q78.210414 -12.251164000000003 78.210414 -12.251164000000003 V-49.924336 Q78.210414 -49.924336 78.210414 -49.924336 Q78.210414 -49.924336 78.210414 -49.924336 H43.396578 L34.813836 -58.60649199999999 H16.469586 Q16.469586 -58.60649199999999 16.469586 -58.60649199999999 Q16.469586 -58.60649199999999 16.469586 -58.60649199999999 Z M16.469586 -58.60649199999999 Q16.469586 -58.60649199999999 16.469586 -58.60649199999999 Q16.469586 -58.60649199999999 16.469586 -58.60649199999999 V-49.924336 Q16.469586 -49.924336 16.469586 -49.924336 Q16.469586 -49.924336 16.469586 -49.924336 V-12.251164000000003 Q16.469586 -12.251164000000003 16.469586 -12.251164000000003 Q16.469586 -12.251164000000003 16.469586 -12.251164000000003 Q16.469586 -12.251164000000003 16.469586 -12.251164000000003 Q16.469586 -12.251164000000003 16.469586 -12.251164000000003 V-58.60649199999999 Z"/></g><g id="Regular-S" transform="matrix(1 0 0 1 1405.73 696)"><path d="M59.175 -19.45157799999999 Q60.850835999999994 -19.45157799999999 62.08641 -20.68241799999999 Q63.31725 -21.917991999999998 63.31725 -23.593827999999995 V-27.144327999999994 H66.86775 Q68.54358599999999 -27.144327999999994 69.77916 -28.375167999999988 Q71.01 -29.60600799999999 71.01 -31.28657799999999 Q71.01 -32.962413999999995 69.77916 -34.193253999999996 Q68.54358599999999 -35.428827999999996 66.86775 -35.428827999999996 H63.31725 V-38.979327999999995 Q63.31725 -40.655164 62.08641 -41.88600399999999 Q60.850835999999994 -43.12157799999999 59.175 -43.12157799999999 Q57.499164 -43.12157799999999 56.26359 -41.88600399999999 Q55.03275 -40.655164 55.03275 -38.979327999999995 V-35.428827999999996 H51.48225 Q49.806414000000004 -35.428827999999996 48.57084 -34.193253999999996 Q47.34 -32.962413999999995 47.34 -31.28657799999999 Q47.34 -29.60600799999999 48.57084 -28.375167999999988 Q49.806414000000004 -27.144327999999994 51.48225 -27.144327999999994 H55.03275 V-23.593827999999995 Q55.03275 -21.917991999999998 56.26359 -20.68241799999999 Q57.499164 -19.45157799999999 59.175 -19.45157799999999 Z M16.176078 -3.6684219999999925 Q12.724992 -3.6684219999999925 10.305918 -6.087496000000002 Q7.891578 -8.501835999999983 7.891578 -11.952922000000001 V-58.50707799999999 Q7.891578 -61.958164 10.305918 -64.37250399999999 Q12.724992 -66.79157799999999 16.176078 -66.79157799999999 H35.604414 Q37.28025 -66.79157799999999 38.809332000000005 -66.14775399999999 Q40.338414 -65.508664 41.521914 -64.325164 L47.34 -58.50707799999999 H78.50392199999999 Q81.955008 -58.50707799999999 84.374082 -56.08800399999999 Q86.788422 -53.67366399999999 86.788422 -50.22257799999999 V-11.952922000000001 Q86.788422 -8.501835999999983 84.374082 -6.087496000000002 Q81.955008 -3.6684219999999925 78.50392199999999 -3.6684219999999925 H16.176078 Z M16.176078 -58.50707799999999 V-11.952922000000001 Q16.176078 -11.952922000000001 16.176078 -11.952922000000001 Q16.176078 -11.952922000000001 16.176078 -11.952922000000001 H78.50392199999999 Q78.50392199999999 -11.952922000000001 78.50392199999999 -11.952922000000001 Q78.50392199999999 -11.952922000000001 78.50392199999999 -11.952922000000001 V-50.22257799999999 Q78.50392199999999 -50.22257799999999 78.50392199999999 -50.22257799999999 Q78.50392199999999 -50.22257799999999 78.50392199999999 -50.22257799999999 H43.88891400000001 L35.604414 -58.50707799999999 H16.176078 Q16.176078 -58.50707799999999 16.176078 -58.50707799999999 Q16.176078 -58.50707799999999 16.176078 -58.50707799999999 Z M16.176078 -58.50707799999999 Q16.176078 -58.50707799999999 16.176078 -58.50707799999999 Q16.176078 -58.50707799999999 16.176078 -58.50707799999999 V-50.22257799999999 Q16.176078 -50.22257799999999 16.176078 -50.22257799999999 Q16.176078 -50.22257799999999 16.176078 -50.22257799999999 V-11.952922000000001 Q16.176078 -11.952922000000001 16.176078 -11.952922000000001 Q16.176078 -11.952922000000001 16.176078 -11.952922000000001 Q16.176078 -11.952922000000001 16.176078 -11.952922000000001 Q16.176078 -11.952922000000001 16.176078 -11.952922000000001 V-58.50707799999999 Z"/></g><g id="Light-S" transform="matrix(1 0 0 1 1109.75 696)"><path d="M59.175 -20.436249999999994 Q60.457914 -20.436249999999994 61.395246 -21.373581999999992 Q62.332578 -22.310913999999997 62.332578 -23.593827999999995 V-28.12899999999999 H66.86775 Q68.150664 -28.12899999999999 69.087996 -29.066331999999996 Q70.025328 -30.003664 70.025328 -31.28657799999999 Q70.025328 -32.569492 69.087996 -33.502089999999995 Q68.150664 -34.43942199999999 66.86775 -34.43942199999999 H62.332578 V-38.979327999999995 Q62.332578 -40.25750799999999 61.395246 -41.19483999999999 Q60.457914 -42.132172 59.175 -42.132172 Q57.892086 -42.132172 56.954754 -41.19483999999999 Q56.017422 -40.25750799999999 56.017422 -38.979327999999995 V-34.43942199999999 H51.48225 Q50.199335999999995 -34.43942199999999 49.262004000000005 -33.502089999999995 Q48.324672 -32.569492 48.324672 -31.28657799999999 Q48.324672 -30.003664 49.262004000000005 -29.066331999999996 Q50.199335999999995 -28.12899999999999 51.48225 -28.12899999999999 H56.017422 V-23.593827999999995 Q56.017422 -22.310913999999997 56.954754 -21.373581999999992 Q57.892086 -20.436249999999994 59.175 -20.436249999999994 Z M17.359578 -5.642499999999998 Q14.202 -5.642499999999998 12.033828 -7.810671999999997 Q9.860922 -9.983577999999994 9.860922 -13.136421999999996 V-55.74242199999999 Q9.860922 -58.89999999999999 12.033828 -61.120245999999995 Q14.202 -63.34049199999999 17.359578 -63.34049199999999 H37.379664 Q38.956086 -63.34049199999999 40.385754000000006 -62.69666799999999 Q41.815422 -62.05757799999999 42.804828 -61.06817199999999 L47.34 -56.532999999999994 H77.320422 Q80.478 -56.532999999999994 82.64617199999999 -54.36482799999999 Q84.819078 -52.19192199999999 84.819078 -49.03907799999999 V-13.136421999999996 Q84.819078 -9.983577999999994 82.64617199999999 -7.810671999999997 Q80.478 -5.642499999999998 77.320422 -5.642499999999998 H17.359578 Z M16.176078 -55.74242199999999 V-13.136421999999996 Q16.176078 -12.644085999999987 16.52166 -12.298503999999994 Q16.862508 -11.952922000000001 17.359578 -11.952922000000001 H77.320422 Q77.81749199999999 -11.952922000000001 78.15834000000001 -12.298503999999994 Q78.50392199999999 -12.644085999999987 78.50392199999999 -13.136421999999996 V-49.03907799999999 Q78.50392199999999 -49.53141399999999 78.15834000000001 -49.87699599999999 Q77.81749199999999 -50.22257799999999 77.320422 -50.22257799999999 H44.679492 L37.971414 -57.025335999999996 H17.359578 Q16.862508 -57.025335999999996 16.52166 -56.67975399999999 Q16.176078 -56.334171999999995 16.176078 -55.74242199999999 Z M16.176078 -55.74242199999999 Q16.176078 -56.334171999999995 16.176078 -56.67975399999999 Q16.176078 -57.025335999999996 16.176078 -57.025335999999996 V-50.22257799999999 Q16.176078 -50.22257799999999 16.176078 -49.87699599999999 Q16.176078 -49.53141399999999 16.176078 -49.03907799999999 V-13.136421999999996 Q16.176078 -12.644085999999987 16.176078 -12.298503999999994 Q16.176078 -11.952922000000001 16.176078 -11.952922000000001 Q16.176078 -11.952922000000001 16.176078 -12.298503999999994 Q16.176078 -12.644085999999987 16.176078 -13.136421999999996 V-55.74242199999999 Z"/></g><g id="Thin-S" transform="matrix(1 0 0 1 814.015 696)"><path d="M59.175 -21.420921999999997 Q60.064992000000004 -21.420921999999997 60.704082 -22.064745999999992 Q61.343172 -22.70383599999999 61.343172 -23.593827999999995 V-29.113671999999994 H66.86775 Q67.753008 -29.113671999999994 68.396832 -29.75749599999999 Q69.035922 -30.396585999999992 69.035922 -31.28657799999999 Q69.035922 -32.17183599999999 68.396832 -32.815659999999994 Q67.753008 -33.45474999999999 66.86775 -33.45474999999999 H61.343172 V-38.979327999999995 Q61.343172 -39.86458599999999 60.704082 -40.50841 Q60.064992000000004 -41.147499999999994 59.175 -41.147499999999994 Q58.285008 -41.147499999999994 57.645917999999995 -40.50841 Q57.006828 -39.86458599999999 57.006828 -38.979327999999995 V-33.45474999999999 H51.48225 Q50.596992 -33.45474999999999 49.953168 -32.815659999999994 Q49.314078 -32.17183599999999 49.314078 -31.28657799999999 Q49.314078 -30.396585999999992 49.953168 -29.75749599999999 Q50.596992 -29.113671999999994 51.48225 -29.113671999999994 H57.006828 V-23.593827999999995 Q57.006828 -22.70383599999999 57.645917999999995 -22.064745999999992 Q58.285008 -21.420921999999997 59.175 -21.420921999999997 Z M18.642492 -7.61657799999999 Q15.679008 -7.61657799999999 13.757004 -9.538581999999991 Q11.835 -11.460585999999992 11.835 -14.419335999999987 V-53.081914 Q11.835 -55.94125 13.757004 -57.86325399999999 Q15.679008 -59.78999199999999 18.642492 -59.78999199999999 H39.254328 Q40.631922 -59.78999199999999 41.914835999999994 -59.245582 Q43.19775 -58.70117199999999 44.182422 -57.716499999999996 L47.34 -54.558921999999995 H76.037508 Q79.000992 -54.558921999999995 80.92299600000001 -52.636917999999994 Q82.845 -50.71491399999999 82.845 -47.75616399999999 V-14.419335999999987 Q82.845 -11.460585999999992 80.92299600000001 -9.538581999999991 Q79.000992 -7.61657799999999 76.037508 -7.61657799999999 H18.642492 Z M16.176078 -53.081914 V-14.419335999999987 Q16.176078 -13.335249999999988 16.862508 -12.644085999999987 Q17.553672000000002 -11.952922000000001 18.642492 -11.952922000000001 H76.037508 Q77.126328 -11.952922000000001 77.81749199999999 -12.644085999999987 Q78.50392199999999 -13.335249999999988 78.50392199999999 -14.419335999999987 V-47.75616399999999 Q78.50392199999999 -48.84024999999999 77.81749199999999 -49.53141399999999 Q77.126328 -50.22257799999999 76.037508 -50.22257799999999 H45.56475 L40.338414 -55.44891399999999 H18.642492 Q17.553672000000002 -55.44891399999999 16.862508 -54.757749999999994 Q16.176078 -54.066585999999994 16.176078 -53.081914 Z M16.176078 -53.081914 Q16.176078 -54.066585999999994 16.176078 -54.757749999999994 Q16.176078 -55.44891399999999 16.176078 -55.44891399999999 V-50.22257799999999 Q16.176078 -50.22257799999999 16.176078 -49.53141399999999 Q16.176078 -48.84024999999999 16.176078 -47.75616399999999 V-14.419335999999987 Q16.176078 -13.335249999999988 16.176078 -12.644085999999987 Q16.176078 -11.952922000000001 16.176078 -11.952922000000001 Q16.176078 -11.952922000000001 16.176078 -12.644085999999987 Q16.176078 -13.335249999999988 16.176078 -14.419335999999987 V-53.081914 Z"/></g><g id="Ultralight-S" transform="matrix(1 0 0 1 517.792 696)"><path d="M59.175 -22.012671999999995 Q59.76675 -22.012671999999995 60.259085999999996 -22.50500799999999 Q60.751422 -23.00207799999999 60.751422 -23.593827999999995 V-29.70542199999999 H66.86775 Q67.4595 -29.70542199999999 67.951836 -30.202492 Q68.444172 -30.694827999999994 68.444172 -31.28657799999999 Q68.444172 -31.87832799999999 67.951836 -32.370664 Q67.4595 -32.86299999999999 66.86775 -32.86299999999999 H60.751422 V-38.979327999999995 Q60.751422 -39.57107799999999 60.259085999999996 -40.063413999999995 Q59.76675 -40.555749999999996 59.175 -40.555749999999996 Q58.58325 -40.555749999999996 58.090914000000005 -40.063413999999995 Q57.598577999999996 -39.57107799999999 57.598577999999996 -38.979327999999995 V-32.86299999999999 H51.48225 Q50.8905 -32.86299999999999 50.398164 -32.370664 Q49.905828 -31.87832799999999 49.905828 -31.28657799999999 Q49.905828 -30.694827999999994 50.398164 -30.202492 Q50.8905 -29.70542199999999 51.48225 -29.70542199999999 H57.598577999999996 V-23.593827999999995 Q57.598577999999996 -23.00207799999999 58.090914000000005 -22.50500799999999 Q58.58325 -22.012671999999995 59.175 -22.012671999999995 Z M19.328922000000002 -8.800078 Q16.569 -8.800078 14.79375 -10.575327999999999 Q13.0185 -12.350577999999999 13.0185 -15.110499999999988 V-51.406077999999994 Q13.0185 -54.166 14.79375 -55.94125 Q16.569 -57.716499999999996 19.328922000000002 -57.716499999999996 H40.338414 Q41.621328 -57.716499999999996 42.852168 -57.17209 Q44.083008 -56.632414 44.973 -55.74242199999999 L47.34 -53.37542199999999 H75.351078 Q78.111 -53.37542199999999 79.88625 -51.60017199999999 Q81.6615 -49.824921999999994 81.6615 -47.06499999999999 V-15.110499999999988 Q81.6615 -12.350577999999999 79.88625 -10.575327999999999 Q78.111 -8.800078 75.351078 -8.800078 H19.328922000000002 Z M16.176078 -51.406077999999994 V-15.110499999999988 Q16.176078 -13.728172 17.061336 -12.842913999999993 Q17.951328 -11.952922000000001 19.328922000000002 -11.952922000000001 H75.351078 Q76.72867199999999 -11.952922000000001 77.61866400000001 -12.842913999999993 Q78.50392199999999 -13.728172 78.50392199999999 -15.110499999999988 V-47.06499999999999 Q78.50392199999999 -48.44732799999999 77.61866400000001 -49.33258599999999 Q76.72867199999999 -50.22257799999999 75.351078 -50.22257799999999 H46.057086 L41.716007999999995 -54.558921999999995 H19.328922000000002 Q17.951328 -54.558921999999995 17.061336 -53.67366399999999 Q16.176078 -52.783671999999996 16.176078 -51.406077999999994 Z M16.176078 -51.406077999999994 Q16.176078 -52.783671999999996 16.176078 -53.67366399999999 Q16.176078 -54.558921999999995 16.176078 -54.558921999999995 V-50.22257799999999 Q16.176078 -50.22257799999999 16.176078 -49.33258599999999 Q16.176078 -48.44732799999999 16.176078 -47.06499999999999 V-15.110499999999988 Q16.176078 -13.728172 16.176078 -12.842913999999993 Q16.176078 -11.952922000000001 16.176078 -11.952922000000001 Q16.176078 -11.952922000000001 16.176078 -12.842913999999993 Q16.176078 -13.728172 16.176078 -15.110499999999988 V-51.406077999999994 Z"/></g></g></svg>