<svg xmlns="http://www.w3.org/2000/svg" height="20" viewBox="0 -960 960 960" width="20"><path d="M226-531v-50.32q0-59.18 24.69-110.47Q275.38-743.09 322-778l-73-72 36-36.5 80 80q26-14.5 55.34-21.5 29.33-7 59.66-7t59.16 7Q568-821 594-806.5l81-80 36 36.5-72 72q46.63 34.91 70.81 86.71Q734-639.5 734-581.32V-531H226Zm367.54-88q15.96 0 27.21-10.79Q632-640.59 632-656.54q0-15.96-10.79-27.21Q610.41-695 594.46-695q-15.96 0-27.21 10.79Q556-673.41 556-657.46q0 15.96 10.79 27.21Q577.59-619 593.54-619Zm-228 0q15.96 0 27.21-10.79Q404-640.59 404-656.54q0-15.96-10.79-27.21Q382.41-695 366.46-695q-15.96 0-27.21 10.79Q328-673.41 328-657.46q0 15.96 10.79 27.21Q349.59-619 365.54-619ZM480.1-74Q374-74 300-148.82t-74-180.63V-481h508v151.51q0 105.78-73.9 180.63Q586.19-74 480.1-74Z"/></svg>