<svg xmlns="http://www.w3.org/2000/svg" height="40" width="40"><path d="M18.375 34.875Q15.25 34.875 12.521 33.688Q9.792 32.5 7.75 30.458Q5.708 28.417 4.521 25.688Q3.333 22.958 3.333 19.833Q3.333 16.75 4.521 14Q5.708 11.25 7.75 9.208Q9.792 7.167 12.542 6Q15.292 4.833 18.375 4.833Q19.417 4.833 20.458 4.958Q21.5 5.083 22.542 5.375V8.583Q21.542 8.208 20.479 8.021Q19.417 7.833 18.375 7.833Q13.375 7.833 9.854 11.333Q6.333 14.833 6.333 19.833Q6.333 24.833 9.854 28.333Q13.375 31.833 18.375 31.833Q23.375 31.833 26.875 28.333Q30.375 24.833 30.375 19.833Q30.375 19.292 30.312 18.646Q30.25 18 30.125 17.25H33.208Q33.333 17.875 33.375 18.542Q33.417 19.208 33.417 19.833Q33.417 22.958 32.229 25.688Q31.042 28.417 29 30.458Q26.958 32.5 24.208 33.688Q21.458 34.875 18.375 34.875ZM30.292 14.625V9.542H25.208V6.792H30.292V1.667H33.083V6.792H38.167V9.542H33.083V14.625ZM23.083 26.75 16.792 20.5V11.583H19.583V19.417L25 24.833Z"/></svg>