<svg xmlns="http://www.w3.org/2000/svg" height="40" viewBox="0 -960 960 960" width="40"><path d="M836.795-15.566 732.927-118.668H158.565q-32.513 0-56.205-23.692t-23.692-56.205v-433.537q0-32.513 23.692-56.205 23.692-23.691 56.205-23.691h77.719l67.921 67.588h-145.64q-4.616 0-8.462 3.846-3.847 3.846-3.847 8.462v433.537q0 4.616 3.847 8.462 3.846 3.847 8.462 3.847h508.412L42.285-809.82l48.127-48.383 794.51 794.92-48.127 47.717Zm44.537-161.513-67.588-67.588v-387.435q0-4.616-3.847-8.462-3.846-3.846-8.462-3.846H413.333l-91.998-92.665v-52.358q0-32.586 23.656-56.241 23.655-23.656 56.241-23.656h157.536q32.513 0 56.205 23.656 23.692 23.655 23.692 56.241v77.435h162.77q32.586 0 56.241 23.691 23.656 23.692 23.656 56.205v455.023ZM388.923-711.998h182.154v-77.435q0-4.616-3.846-8.463-3.847-3.846-8.463-3.846H401.232q-4.616 0-8.462 3.846-3.847 3.847-3.847 8.463v77.435Zm224.949 266.793Zm-176.434 29.538Z"/></svg>