<svg xmlns="http://www.w3.org/2000/svg" height="40" width="40"><path d="M3 33.667V16.458Q3 15.042 4.042 14Q5.083 12.958 6.5 12.958H11.333V9.792Q11.333 8.375 12.375 7.333Q13.417 6.292 14.833 6.292H25.208Q26.625 6.292 27.667 7.333Q28.708 8.375 28.708 9.792V12.958H33.542Q34.958 12.958 36 14Q37.042 15.042 37.042 16.458V33.667ZM6.5 30.167H33.542V25.083H30.083V26.75H26.583V25.083H13.417V26.75H9.917V25.083H6.5ZM6.5 16.458V21.583H9.917V19.917H13.417V21.583H26.583V19.917H30.083V21.583H33.542V16.458Q33.542 16.458 33.542 16.458Q33.542 16.458 33.542 16.458H6.5Q6.5 16.458 6.5 16.458Q6.5 16.458 6.5 16.458ZM14.833 12.958H25.208V9.792Q25.208 9.792 25.208 9.792Q25.208 9.792 25.208 9.792H14.833Q14.833 9.792 14.833 9.792Q14.833 9.792 14.833 9.792Z"/></svg>