<svg xmlns="http://www.w3.org/2000/svg" height="48" width="48"><path d="m8.9 28.6-5.85-5.8.85-.85 4.4 4.3q-.3-1.4-.4-3.325Q7.8 21 7.8 18.9q0-3.9 1.175-7.275Q10.15 8.25 12.25 5.15l.9 1q-1.9 2.65-3 5.925T9.05 18.9q0 2.05.075 4 .075 1.95.375 3.45l4.4-4.4.85.85Zm21.55 12.6L19.3 36.95l.55-1.4q.1-.3.275-.45.175-.15.425-.2l7.1-1.65-8-17.75q-.4-.95-.025-1.85.375-.9 1.275-1.3.95-.45 1.85-.1.9.35 1.35 1.25l4.3 9.7 1.95-.85q.15-.1.325-.1h.375l6.75.3q1.65.05 2.825 1.225Q41.8 24.95 42.2 26.55l2.05 7.9q.05.5-.175.925-.225.425-.725.625l-11.7 5.25q-.25.1-.575.1-.325 0-.625-.15Zm.7-1 12.05-5.3-2.1-8.3q-.3-1.05-1.075-1.975-.775-.925-1.975-.975l-7.25-.35-3 1.35-4.8-10.7q-.25-.5-.7-.7-.45-.2-.95.05-.55.25-.7.725-.15.475.1 1.025l8.4 19-8.2 1.8-.15.45Zm0 0Z"/></svg>