<svg xmlns="http://www.w3.org/2000/svg" height="24" viewBox="0 -960 960 960" width="24"><path d="M301.43-440h80v50q0 13 8.5 21.5t21.5 8.5q13 0 21.5-8.5t8.5-21.5v-180q0-13-8.5-21.5t-21.5-8.5q-13 0-21.5 8.5t-8.5 21.5v70h-80v-70q0-13-8.5-21.5t-21.5-8.5q-13 0-21.5 8.5t-8.5 21.5v180q0 13 8.5 21.5t21.5 8.5q13 0 21.5-8.5t8.5-21.5v-50Zm240 80h137.14q17 0 28.5-11.5t11.5-28.5v-160q0-17-11.5-28.5t-28.5-11.5H541.2q-9.2 0-15.92 6.86-6.71 6.86-6.71 16.01v194.5q0 9.2 6.86 15.91 6.86 6.72 16 6.72Zm37.14-60v-120h80v120h-80Zm-415.7 268.13q-37.78 0-64.39-26.61t-26.61-64.39v-474.26q0-37.78 26.61-64.39t64.39-26.61h634.26q37.78 0 64.39 26.61t26.61 64.39v474.26q0 37.78-26.61 64.39t-64.39 26.61H162.87Z"/></svg>