<svg xmlns="http://www.w3.org/2000/svg" height="48" viewBox="0 -960 960 960" width="48"><path d="M440.75-155q43.75-73.5 108.77-102.75T664.14-287q19.7 0 37.03 2.5Q718.5-282 735-278q28-33 49.5-86.12Q806-417.24 806-480q0-136.42-94.78-231.21Q616.44-806 480.03-806q-136.4 0-231.22 94.79Q154-616.42 154-480q0 56.28 17.5 105.03T217-285q37-22.5 74.25-32.75T369-328q22.05 0 43.78 3.25 21.72 3.25 30.72 5.25-5.16 6.11-10.3 9.76-5.15 3.64-9.28 8.74-6.94-2-23.38-3.5-16.43-1.5-30.9-1.5-38.06 0-74.1 9.06-36.04 9.06-64.54 28.17 40.9 48.08 95.61 76.49 54.72 28.42 114.14 37.28Zm39.71 23q-72.37 0-136.09-27.52-63.72-27.53-110.62-74.35-46.9-46.83-74.32-110.05Q132-407.14 132-480.03q0-71.38 27.52-135.35 27.53-63.97 74.35-110.87 46.83-46.9 110.05-74.32Q407.14-828 480.03-828q71.38 0 135.35 27.52 63.97 27.53 110.87 74.35 46.9 46.83 74.32 110.61Q828-551.74 828-480.46q0 72.37-27.52 136.09-27.53 63.72-74.35 110.62-46.83 46.9-110.61 74.32Q551.74-132 480.46-132ZM377.88-446Q331-446 298-479.12q-33-33.12-33-80Q265-607 298.12-640q33.12-33 80-33T458-639.88q33 33.12 33 81Q491-512 457.88-479q-33.12 33-80 33Zm.18-22q38.52 0 64.73-26.77Q469-521.53 469-559.06q0-38.52-26.27-65.23Q416.47-651 377.94-651q-38.52 0-64.73 26.77Q287-597.47 287-558.94q0 37.52 26.27 64.23Q339.53-468 378.06-468ZM664-384q-40.48 0-68.24-27.76Q568-439.52 568-480q0-40.48 27.76-68.24Q623.52-576 664-576q40.48 0 68.24 27.76Q760-520.48 760-480q0 40.48-27.76 68.24Q704.48-384 664-384Zm-184-96Z"/></svg>