<svg xmlns="http://www.w3.org/2000/svg" height="24" width="24"><path d="M9.375 14.125q.125 0 .225-.088.1-.087.1-.237v-1.65q0-.675.5-1.175t1.175-.5h1.975v.125q0 .25.238.35.237.1.412-.075l.45-.45q.05-.05.1-.25 0-.05-.1-.275l-.425-.45q-.2-.2-.437-.087-.238.112-.238.362v.1h-1.975q-.975 0-1.637.687-.663.688-.663 1.638v1.65q0 .15.088.237.087.088.212.088Zm-4.5 3.1q-.6 0-1.025-.425-.425-.425-.425-1.025v-9.3q0-.6.425-1.025.425-.425 1.025-.425H19.15q.575 0 1 .425.425.425.425 1.025v9.3q0 .6-.425 1.025-.425.425-1 .425ZM2.45 18.85q-.125 0-.225-.1t-.1-.225q0-.125.1-.225t.225-.1h19.125q.1 0 .2.1t.1.225q0 .125-.1.225t-.2.1Z"/></svg>