<svg xmlns="http://www.w3.org/2000/svg" height="40" width="40"><path d="M18.417 38.542v-3.125q-5.584-.584-9.438-4.438-3.854-3.854-4.396-9.396H1.458v-3.208h3.125q.584-5.542 4.438-9.396 3.854-3.854 9.396-4.396V1.458h3.208v3.125q5.542.542 9.375 4.396t4.417 9.396h3.125v3.208h-3.125q-.542 5.542-4.396 9.396-3.854 3.854-9.396 4.438v3.125ZM20.042 32Q25 32 28.5 28.479t3.5-8.521Q32 15 28.5 11.5T20.042 8q-5 0-8.521 3.5Q8 15 8 19.958q0 5 3.521 8.521Q15.042 32 20.042 32ZM20 26.208q-2.625 0-4.417-1.791-1.791-1.792-1.791-4.417t1.791-4.417q1.792-1.791 4.417-1.791t4.417 1.791q1.791 1.792 1.791 4.417t-1.791 4.417Q22.625 26.208 20 26.208Zm0-3.25q1.25 0 2.104-.854.854-.854.854-2.104t-.854-2.104q-.854-.854-2.104-.854t-2.104.854q-.854.854-.854 2.104t.854 2.104q.854.854 2.104.854ZM20 20Z"/></svg>