<svg xmlns="http://www.w3.org/2000/svg" height="40" viewBox="0 96 960 960" width="40"><path d="M279.334 908.974h401.858q5.192 0 8.75-3.461 3.558-3.462 3.558-8.847v-97.243q0-5.193-3.558-8.751t-8.75-3.558H613.5V532.243h-72.307V484.36h139.999q5.192 0 8.75-3.462 3.558-3.461 3.558-8.846v-97.244q0-5.192-3.558-8.75t-8.75-3.558H279.334q-5.385 0-8.847 3.558-3.461 3.558-3.461 8.75v97.244q0 5.385 3.461 8.846 3.462 3.462 8.847 3.462h67.692v254.871h72.307v47.883H279.334q-5.385 0-8.847 3.558-3.461 3.558-3.461 8.751v97.243q0 5.385 3.461 8.847 3.462 3.461 8.847 3.461Zm0 47.884q-25.219 0-42.705-17.487-17.487-17.486-17.487-42.705v-97.243q0-24.727 17.487-42.459 17.486-17.733 42.705-17.733h19.808V532.243h-19.808q-25.219 0-42.705-17.486-17.487-17.486-17.487-42.705v-97.244q0-24.726 17.487-42.459 17.486-17.732 42.705-17.732h140.834v-59.809h-44.872v-47.883H585.23v47.883h-44.872v59.809h140.834q24.726 0 42.459 17.732 17.732 17.733 17.732 42.459v97.244q0 25.219-17.732 42.705-17.733 17.486-42.459 17.486h-19.809v206.988h19.809q24.726 0 42.459 17.733 17.732 17.732 17.732 42.459v97.243q0 25.219-17.732 42.705-17.733 17.487-42.459 17.487H279.334ZM480 636Z"/></svg>