<svg xmlns="http://www.w3.org/2000/svg" height="40" width="40"><path d="M33.875 37.875 22.583 26.583H21.5V30.75Q22.333 31.208 22.792 32Q23.25 32.792 23.25 33.667Q23.25 35.083 22.333 36Q21.417 36.917 20 36.917Q18.625 36.917 17.688 36Q16.75 35.083 16.75 33.667Q16.75 32.75 17.208 32Q17.667 31.25 18.5 30.75V26.583H12.833Q11.583 26.583 10.688 25.688Q9.792 24.792 9.792 23.542V19.333Q9 18.917 8.542 18.167Q8.083 17.417 8.083 16.458Q8.083 15.5 8.5 14.771Q8.917 14.042 9.625 13.667L2.125 6.125L4.167 4.042L35.958 35.833ZM29.542 25.292 26.917 22.625V19.292H25.458V13.208H31.917V19.667H30.208V23.542Q30.208 24.042 30.021 24.5Q29.833 24.958 29.542 25.292ZM12.833 23.542H18.5V22.5L14.083 18.125Q13.917 18.5 13.583 18.812Q13.25 19.125 12.833 19.333V23.542Q12.833 23.542 12.833 23.542Q12.833 23.542 12.833 23.542ZM21.5 17.25 18.5 14.208V9.667H15.542L15.25 9.375L20 2.958L24.958 9.667H21.5Z"/></svg>