<svg xmlns="http://www.w3.org/2000/svg" height="40" width="40"><path d="M19.167 1.167q4.333 0 7.312 2.937 2.979 2.938 2.979 7.229 0 2.417-.916 4.313-.917 1.896-2.375 3.229h-2.459v-2q1.292-1 1.938-2.417.646-1.416.646-3.083 0-3.042-2.063-5.062-2.062-2.021-5.062-2.021-3 0-5.063 2.021-2.062 2.02-2.062 5.062 0 1.667.646 3.104.645 1.438 1.937 2.438v3.708q-2.708-1.25-4.208-3.75t-1.5-5.542q0-4.291 2.979-7.229 2.979-2.937 7.271-2.937Zm-1.584 36.291q-.791 0-1.458-.291-.667-.292-1.208-.875L8.25 29.625q-.75-.708-.771-2-.021-1.292.813-2.292.875-1.083 1.916-1.375 1.042-.291 2.167-.083l2.25.542v-13q0-1.875 1.313-3.209 1.312-1.333 3.229-1.333 1.875 0 3.208 1.333 1.333 1.334 1.333 3.209v6.666h.584q.291 0 .541.084.25.083.5.208l6 2.958q1.125.542 1.667 1.709.542 1.166.333 2.458l-1.458 8.875q-.208 1.375-1.271 2.229-1.062.854-2.437.854Zm-.208-3.208h11.292l1.666-9.833L23 20.75h-2.417v-9.333q0-.625-.395-1-.396-.375-1.021-.375-.625 0-1 .375t-.375 1V28.25l-6.584-1.417-.625.625Zm11.292 0H17.375h11.292Z"/></svg>