<svg xmlns="http://www.w3.org/2000/svg" height="40" width="40"><path d="M.375 36.583v-9l3.333-3.333V14.125L.375 10.792V3.375h3.792v3.333h3.375V3.375h3.833v3.333h3.333V3.375h3.875v7.417L15 14.375v2.333h9.75v-2.583l-3.333-3.333V3.375h3.875v3.333h3.333V3.375h3.833v3.333h3.375V3.375h3.834v7.417l-3.334 3.333V24.25l3.334 3.333v9H22.833v-6.291q0-1.209-.833-2.021-.833-.813-2-.813t-2 .813q-.833.812-.833 2.021v6.291Zm4.333-4.375h8.125v-1.916q0-3 2.104-5.104 2.105-2.105 5.063-2.105 3 0 5.083 2.105 2.084 2.104 2.084 5.104v1.916h8.125v-2.833l-3.334-3.333V12.875l2.292-2.292h-7.375l2.25 2.292V20.5h-18.25v-7.625l2.25-2.292H5.75l2.292 2.292v13.167l-3.334 3.333ZM20 21.375Z"/></svg>