<svg xmlns="http://www.w3.org/2000/svg" height="40" viewBox="0 -960 960 960" width="40"><path d="M437.134-587.218q23.686 0 40.026-16.192 16.34-16.191 16.34-39.878t-16.341-40.026q-16.341-16.34-40.237-16.34t-39.877 16.341q-15.981 16.341-15.981 40.237t16.192 39.877q16.191 15.981 39.878 15.981Zm.892 160q31.628 0 60.956-10.889 29.328-10.89 54.415-32.743-30.628-14.112-59.493-21.458-28.866-7.346-56.103-7.346-34.16 0-65.058 7.731-30.897 7.731-50.294 21.064 24.124 21.364 53.652 32.503 29.527 11.138 61.925 11.138Zm-1.176 160q-124.119 0-209.953-85.833-85.833-85.834-85.833-210.026 0-124.192 85.833-210.385 85.834-86.192 210.026-86.192 124.192 0 210.385 86.285Q733.5-687.083 733.5-563.322q0 58.335-20.141 106.514-20.141 48.18-55.269 91.423l204.772 205.272q4.971 4.972 4.587 11.395-.385 6.423-4.68 11.487-5.064 5.064-11.872 5.064-6.807 0-11.789-5.012L633.697-342.628Q590.603-306.782 542.808-287q-47.795 19.782-105.958 19.782Zm.278-32.436q109.41 0 186.673-77.109t77.263-186.519q0-109.41-77.105-186.673t-186.961-77.263q-109.357 0-186.428 77.105-77.07 77.105-77.07 186.961 0 109.357 77.109 186.428 77.109 77.07 186.519 77.07Zm-.205-263.423Z"/></svg>