<svg xmlns="http://www.w3.org/2000/svg" height="20" viewBox="0 -960 960 960" width="20"><path d="M444.212-602Q464-602 477-615.212q13-13.213 13-33Q490-668 476.788-681q-13.213-13-33-13Q424-694 411-680.788q-13 13.213-13 33Q398-628 411.212-615q13.213 13 33 13Zm.853 168Q474-434 501-445q27-11 51-29.19-29-12.81-56.031-20.31-27.032-7.5-51-7.5Q411-502 382-494t-45 20q22 18 49.565 29 27.565 11 58.5 11Zm-1.02 144Q328-290 249-369.688 170-449.375 170-564q0-116 79-195t194.5-79q115.5 0 195 79T718-563.955q0 57.093-18.5 101.024T645-377l206.064 205.064Q856-167 855.5-165t-4.5 7q-5 5-8 5t-7.936-4.871L630-362q-42 36-85.431 54t-100.524 18Z"/></svg>