<svg xmlns="http://www.w3.org/2000/svg" height="20" viewBox="0 -960 960 960" width="20"><path d="M444.212-586.001q25.942 0 43.864-18.135 17.923-18.135 17.923-44.076 0-25.942-18.135-43.864-18.135-17.923-44.076-17.923-25.942 0-43.864 18.135-17.923 18.135-17.923 44.076 0 25.942 18.135 43.864 18.135 17.923 44.076 17.923Zm.238 168q38.165 0 71.934-16.23 33.769-16.231 60.846-43.651-32.077-18.348-65.57-29.233-33.493-10.884-67.307-10.884-37.66 0-71.891 11.077-34.231 11.076-61.307 29.23 25.692 27.23 60.026 43.461 34.334 16.23 73.269 16.23Zm-.405 144q-122.814 0-206.429-84.302Q154.001-442.606 154.001-564q0-122.769 83.615-206.384 83.615-83.615 205.884-83.615 122.269 0 206.384 83.615 84.115 83.615 84.115 206.429 0 54.632-17.269 100.409-17.269 45.777-50.193 85.315L843.68-201.473q8.628 8.628 8.436 18.012-.193 9.385-8.5 18.077-8.692 8.692-18.769 8.692-10.077 0-18.704-8.564L629.385-341.078q-39.539 32.923-85.123 50-45.585 17.077-100.217 17.077Z"/></svg>