<svg xmlns="http://www.w3.org/2000/svg" height="20" width="20"><path d="M5.75 12.312q.958 0 1.635-.677T8.062 10q0-.958-.677-1.635T5.75 7.688q-.958 0-1.635.677T3.438 10q0 .958.677 1.635t1.635.677Zm0 2.771q-2.083 0-3.583-1.5T.667 10q0-2.083 1.5-3.583t3.583-1.5q1.583 0 2.823.896 1.239.895 1.76 2.291h6.146q.229 0 .417.073.187.073.375.261l.75.75q.167.166.25.374.083.209.083.417 0 .209-.094.427-.093.219-.26.386l-1.542 1.541q-.166.167-.385.24-.219.073-.427.073t-.417-.084q-.208-.083-.375-.25l-.937-.916-1.084 1.083q-.166.167-.375.25-.208.083-.416.083-.209 0-.427-.093-.219-.094-.386-.261l-.583-.604h-.313q-.437 1.396-1.718 2.313-1.282.916-2.865.916Z"/></svg>