<svg xmlns="http://www.w3.org/2000/svg" height="24" viewBox="0 -960 960 960" width="24"><path d="M268-140q-35.83 0-60.92-25.08Q182-190.17 182-226q0-26.43 14-49.72Q210-299 234-308l152-60v-57q-38 44-101.5 73.5T150-313q-22 3-38-12.13t-16-37.5Q96-385 111.5-401q15.5-16 38.5-19 55-8 99.94-33.2Q294.88-478.39 332-522l54-66q14.32-17 33.42-25.5T460-622h40q21.48 0 40.58 8.5Q559.68-605 574-588l54 66q37.12 43.61 82.06 68.8Q755-428 810-420q23 3 38.5 18.93t15.5 38.5Q864-340 848-325t-38 12q-71-9-134.5-38.5T574-425v57l152 60q24 9 38 32.28 14 23.29 14 49.72 0 35.83-25.08 60.92Q727.83-140 692-140H398v-28q0-27 20.5-47.5T466-236h116q9 0 14.5-5.5T602-256q0-9-5.5-14.5T582-276H466q-45.36 0-76.68 31.32Q358-213.36 358-168v28h-90Zm212-512q-38 0-64-26t-26-64q0-38 26-64t64-26q38 0 64 26t26 64q0 38-26 64t-64 26Z"/></svg>