<svg xmlns="http://www.w3.org/2000/svg" height="40" width="40"><path d="M21 18.542q.792-.834 1.083-1.938.292-1.104.292-2.312 0-1.25-.292-2.334-.291-1.083-1.083-1.916 1.833-.125 3.083 1.104 1.25 1.229 1.25 3.146 0 1.916-1.25 3.125-1.25 1.208-3.083 1.125Zm7.583 11.708q.209-.167.355-.458.145-.292.145-.75v-.709q0-1.291-.458-2.375-.458-1.083-1.667-1.791 2.584.5 4 1.521 1.417 1.02 1.417 2.645v.75q0 .542-.313.855-.312.312-.812.312Zm3.667-9.792q-.167 0-.313-.125-.145-.125-.145-.333v-3.042h-3q-.209 0-.354-.125-.146-.125-.146-.333 0-.208.146-.354.145-.146.354-.146h3v-3q0-.208.125-.354t.333-.146q.208 0 .354.146t.146.354v3h3.042q.166 0 .312.146t.146.354q0 .25-.146.354-.146.104-.312.104H32.75V20q0 .208-.146.333-.146.125-.354.125Zm-17.417-1.791q-1.875 0-3.125-1.271t-1.25-3.104q0-1.875 1.25-3.125t3.125-1.25q1.875 0 3.146 1.25t1.271 3.125q0 1.833-1.271 3.104-1.271 1.271-3.146 1.271ZM4.917 30.25q-.5 0-.813-.333-.312-.334-.312-.834v-.833q0-.917.541-1.708.542-.792 1.542-1.25 2.333-1.042 4.563-1.604 2.229-.563 4.395-.563 2.167 0 4.375.563 2.209.562 4.584 1.604.958.458 1.541 1.25.584.791.584 1.708v.833q0 .5-.334.834-.333.333-.833.333Z"/></svg>