<svg xmlns="http://www.w3.org/2000/svg" height="48" viewBox="0 -960 960 960" width="48"><path d="M707.261-583.478 848.97-724.687q9.513-9.617 22.739-9.498 13.226.12 22.921 9.824 9.696 9.704 9.696 23.29 0 13.586-9.696 23.202L730.87-513.13q-10.249 9.695-23.625 9.695-13.375 0-23.093-9.695l-81.413-81.413q-10.195-9.858-10.076-23.451.12-13.593 10.168-23.289 10.049-9.695 23.284-9.695 13.236 0 23.342 9.695l57.804 57.805Zm-347.695 99.869q-68.32 0-111.03-42.603-42.71-42.603-42.71-110.804 0-68.202 42.653-110.876 42.653-42.674 110.924-42.674 68.271 0 110.945 42.652 42.674 42.652 42.674 110.853 0 68.202-42.618 110.827-42.617 42.625-110.838 42.625ZM37.826-223.043v-31.877q0-36.269 18.253-65.249 18.253-28.98 52.276-43.798 74.797-32.903 132.843-46.522 58.046-13.62 118.184-13.62 60.118 0 117.759 13.62 57.641 13.619 132.511 46.348 34.039 15.186 52.704 43.847 18.666 28.66 18.666 65.394v32.095q0 26.797-19.282 46.095-19.282 19.297-46.349 19.297H103.696q-27.417 0-46.643-19.282-19.227-19.282-19.227-46.348Zm65.87 0h511.695v-30.632q0-16.125-9-30.728-9-14.602-24-21.532-70.043-31.782-117.738-42.043-47.696-10.261-105.097-10.261-57.273 0-105.784 10.261t-117.576 42.043q-15.739 6.895-24.12 21.434-8.38 14.54-8.38 30.588v30.87Zm255.719-326.196q38.172 0 63.074-24.866 24.902-24.865 24.902-62.974 0-38.207-24.865-63.031-24.865-24.825-62.974-24.825-38.291 0-63.074 24.836-24.782 24.835-24.782 62.902 0 38.165 24.774 63.061 24.774 24.897 62.945 24.897Zm.128 258.348Zm0-346.196Z"/></svg>