<svg xmlns="http://www.w3.org/2000/svg" height="48" width="48"><path d="M15.7 40.85Q12.2 40.85 9.85 38.5Q7.5 36.15 7.5 32.7Q7.5 30.6 8.575 28.7Q9.65 26.8 11.7 25.55V11.1Q11.7 9.45 12.875 8.275Q14.05 7.1 15.7 7.1Q17.35 7.1 18.5 8.275Q19.65 9.45 19.65 11.1V25.55Q21.7 26.8 22.75 28.7Q23.8 30.6 23.8 32.7Q23.8 36.05 21.425 38.45Q19.05 40.85 15.7 40.85ZM9.25 32.7H22.05Q22.05 31 21.05 29.375Q20.05 27.75 18.25 26.45L17.9 26.25V11.1Q17.9 10.2 17.225 9.525Q16.55 8.85 15.7 8.85Q14.75 8.85 14.1 9.525Q13.45 10.2 13.45 11.1V26.25L13.15 26.45Q11.2 27.75 10.225 29.375Q9.25 31 9.25 32.7ZM28.1 25.95Q27.6 25.95 27.4 25.65Q27.2 25.35 27.4 24.9L34.05 7.8Q34.15 7.6 34.375 7.475Q34.6 7.35 34.9 7.35Q35.1 7.35 35.35 7.475Q35.6 7.6 35.7 7.8L42.4 24.9Q42.55 25.3 42.325 25.625Q42.1 25.95 41.65 25.95Q41.3 25.95 41.05 25.7Q40.8 25.45 40.7 25.25L38.65 20.35H31.1L29.05 25.2Q28.9 25.45 28.675 25.7Q28.45 25.95 28.1 25.95ZM31.7 18.8H38.1L35 10.75H34.55Z"/></svg>