<svg xmlns="http://www.w3.org/2000/svg" height="48" width="48"><path d="M4.7 4.2 43.8 43.3 41.25 45.85 32.25 36.9H6.85Q5.3 36.9 4.15 35.75Q3 34.6 3 33.05V14.9Q3 13.6 3.875 12.575Q4.75 11.55 6.05 11.35H6.75L2.15 6.75ZM16 11.05H41.2Q42.75 11.05 43.925 12.225Q45.1 13.4 45.1 14.9V33.05Q45.1 34.3 44.2 35.325Q43.3 36.35 42.15 36.45H41.45ZM14.2 18.8V22.25H9.35V25.7H14.2V30.5H17.65V25.7H21.05L18 22.6H17.3V21.9L14.2 18.8ZM34.1 18.3Q33.2 18.3 32.525 18.975Q31.85 19.65 31.85 20.55Q31.85 21.5 32.525 22.15Q33.2 22.8 34.1 22.8Q35 22.8 35.675 22.15Q36.35 21.5 36.35 20.55Q36.35 19.65 35.675 18.975Q35 18.3 34.1 18.3Z"/></svg>