<svg xmlns="http://www.w3.org/2000/svg" height="20" width="20"><path d="M1.625 1.146 18.833 18.375 17.25 19.958 13.458 16.188H3.208Q1.979 16.188 1.135 15.344Q0.292 14.5 0.292 13.271V6.708Q0.292 5.958 0.646 5.323Q1 4.688 1.583 4.292L0.042 2.729ZM7.125 3.792H16.812Q18.042 3.792 18.885 4.656Q19.729 5.521 19.729 6.708V13.271Q19.729 13.917 19.458 14.479Q19.188 15.042 18.771 15.438ZM5.542 8.25V9.021H4.188V10.979H5.542V12.333H7.5V10.979H8.25L6.917 9.604L5.542 8.25ZM14.771 7.688Q14.229 7.688 13.844 8.083Q13.458 8.479 13.458 9Q13.458 9.542 13.844 9.927Q14.229 10.312 14.771 10.312Q15.312 10.312 15.698 9.927Q16.083 9.542 16.083 9Q16.083 8.479 15.698 8.083Q15.312 7.688 14.771 7.688Z"/></svg>