<svg xmlns="http://www.w3.org/2000/svg" height="40" viewBox="0 -960 960 960" width="40"><path d="m468.05-798.8-253.5 146.3L480-497.9l266.01-154.6-253.34-146.3q-6.16-3.33-12.31-3.33t-12.31 3.33ZM162.54-333.45v-293.82q0-14.37 7.11-27.61t21.77-22l260.41-149.99q6.64-3.77 13.68-5.6 7.04-1.84 14.48-1.84 7.45 0 14.74 1.84 7.3 1.83 14.15 5.6L769.3-676.88q13.94 8.76 21.05 22 7.11 13.24 7.11 27.61v142.21q0 7.12-4.82 11.85-4.82 4.72-11.19 4.72-7.19 0-11.81-4.72-4.61-4.73-4.61-11.85v-141.52L508.49-477.91q-13.78 8.45-28.62 8.53-14.84.07-28.43-8.38L194.97-626.21v293.42q0 6.15 3.08 11.53 3.08 5.39 9.23 9.23L471.62-159.6q3.32 1.67 5.58 5.68 2.26 4.02 2.26 8.37 0 9.75-7.99 13.8-7.98 4.05-15.02-.6L191.42-283.62q-14.66-8.76-21.77-21.58-7.11-12.81-7.11-28.25ZM722.15-99.86q7.83 0 13.05-4.89 5.21-4.89 5.21-12.79 0-7.9-5.21-13.04-5.22-5.14-12.97-5.14-7.9 0-12.79 5.14-4.89 5.14-4.89 13.04 0 7.9 4.89 12.79 4.89 4.89 12.71 4.89Zm.58-75.01q5.44 0 10.02-4.33 4.58-4.33 4.58-10.98v-105.45q0-6.05-4.33-10.48-4.33-4.43-10.77-4.43-6.44 0-10.52 4.33-4.08 4.33-4.08 10.98v104.92q0 6.58 4.33 11.01t10.77 4.43ZM722.22-50q-64.19 0-109.57-44.95-45.37-44.95-45.37-110.09 0-64.37 45.39-109.61 45.39-45.25 109.58-45.25t109.56 45.14q45.37 45.14 45.37 109.95 0 65.02-45.39 109.92Q786.41-50 722.22-50ZM480-477.37Z"/></svg>