<svg xmlns="http://www.w3.org/2000/svg" height="48" viewBox="0 -960 960 960" width="48"><path d="M684.615-190.615q8.231 0 13.962-5.231t5.731-13.692q0-8.462-5.731-14.077-5.731-5.616-13.962-5.616-8.461 0-14.077 5.616-5.615 5.615-5.615 14.077 0 8.461 5.615 13.692 5.616 5.231 14.077 5.231Zm0-75.769q6.462 0 10.193-4.231t3.731-10.693v-83.384q0-6.462-3.847-10.193-3.846-3.73-10.307-3.73-6.462 0-10.193 3.846-3.73 3.846-3.73 10.307v84.154q0 5.693 3.846 9.808 3.846 4.116 10.307 4.116ZM452.308-830.385q13.23-7.231 27.692-7.231t27.692 7.231l264.616 153q13.231 7.231 20.461 20.462Q800-643.692 800-629.231v105q-25.846-12.538-54.884-19.538-29.039-7-61.039-7-17.538 0-34.077 2.384-16.538 2.385-32.077 6.154l135.615-79.461q6.385-3.154 7.962-9.769 1.577-6.616-2.577-13.001-3.923-3.846-9.269-4.807-5.346-.962-10.731 1.961L480-497.077 220.846-647.308q-4.846-2.923-10.461-1.846-5.616 1.077-9.539 5.692-3.923 5.616-2.461 12.231 1.461 6.616 7.077 10.539l259.153 149.231V-433q-21.692 31.846-33.923 69-12.23 37.154-12.23 78.846 0 44.462 13.961 84 13.962 39.539 39.193 72.693-5.077 1.692-10.539.961-5.462-.73-10.308-2.884L187.692-282.615q-13.231-7.231-20.461-20.462Q160-316.308 160-330.769v-298.462q0-14.461 7.231-27.692 7.23-13.231 20.461-20.462l264.616-153ZM684.615-129.23q-64.154 0-109.769-45.116-45.615-45.115-45.615-110.039 0-64.384 45.615-110Q620.461-440 684.615-440t109.77 45.615Q840-348.769 840-284.385q0 64.924-45.615 110.039-45.616 45.116-109.77 45.116Z"/></svg>