<svg xmlns="http://www.w3.org/2000/svg" height="40" width="40"><path d="M20.708 19.792 26.083 25.083Q26.167 25.25 26.188 25.458Q26.208 25.667 26.083 25.833Q25.875 25.958 25.688 25.958Q25.5 25.958 25.375 25.833L20.083 20.542Q19.917 20.375 19.833 20.167Q19.75 19.958 19.75 19.75V12.125Q19.75 11.958 19.875 11.813Q20 11.667 20.208 11.667Q20.417 11.667 20.562 11.813Q20.708 11.958 20.708 12.125ZM20.208 32.792Q17.542 32.792 15.208 31.771Q12.875 30.75 11.167 29.042Q9.458 27.333 8.438 24.979Q7.417 22.625 7.417 19.958Q7.417 17.333 8.438 15Q9.458 12.667 11.188 10.938Q12.917 9.208 15.229 8.208Q17.542 7.208 20.208 7.208Q22.875 7.208 25.312 8.313Q27.75 9.417 29.625 11.333V7.708Q29.625 7.542 29.771 7.396Q29.917 7.25 30.125 7.25Q30.333 7.25 30.458 7.396Q30.583 7.542 30.583 7.708V11.75Q30.583 12.292 30.25 12.604Q29.917 12.917 29.458 12.917H25.417Q25.208 12.917 25.062 12.771Q24.917 12.625 24.917 12.417Q24.917 12.208 25.062 12.083Q25.208 11.958 25.417 11.958H28.875Q27.083 10.167 24.896 9.188Q22.708 8.208 20.208 8.208Q15.292 8.208 11.833 11.625Q8.375 15.042 8.375 19.958Q8.375 24.875 11.812 28.333Q15.25 31.792 20.208 31.792Q24.542 31.792 27.771 28.979Q31 26.167 31.875 21.917Q31.875 21.75 32 21.646Q32.125 21.542 32.375 21.542Q32.542 21.583 32.646 21.75Q32.75 21.917 32.75 22.125Q31.958 26.792 28.458 29.792Q24.958 32.792 20.208 32.792Z"/></svg>