<svg xmlns="http://www.w3.org/2000/svg" height="40" viewBox="0 -960 960 960" width="40"><path d="M458.08-330.49 330.42-458.15q-9.29-9.29-9.29-21.85 0-12.56 9.36-21.92l127.66-127.66q9.29-9.29 21.85-9.29 12.56 0 21.92 9.36l127.66 127.66q9.29 9.29 9.29 21.85 0 12.56-9.36 21.92L501.85-330.42q-9.29 9.29-21.85 9.29-12.56 0-21.92-9.36Zm66.5 197.06q-9.09 9.35-20.66 14.03-11.56 4.68-23.51 4.68-11.95 0-23.59-4.68t-20.99-14.03L132.34-436.92q-9.08-9.05-13.73-20.48-4.66-11.43-4.66-22.99 0-11.56 4.66-23.19 4.65-11.63 13.73-20.68l303.89-303.89q8.97-8.95 20.27-13.63 11.3-4.68 23.48-4.68 12.17 0 23.49 4.68 11.32 4.68 20.3 13.63l303.89 303.89q9.08 9.05 13.73 20.58 4.66 11.52 4.66 23.3 0 11.73-4.79 23.19-4.78 11.47-13.6 20.27L524.58-133.43Zm-38.04-53.44 287.23-286.98q2.43-2.69 2.43-6.53 0-3.85-2.43-6.54L486.54-774.15q-2.69-2.44-6.54-2.25-3.85.2-6.54 2.63L186.1-486.15q-2.69 2.69-2.5 6.15.2 3.46 2.89 6.15l286.97 286.98q2.69 2.69 6.54 2.69t6.54-2.69Z"/></svg>