<svg xmlns="http://www.w3.org/2000/svg" height="24" width="24"><path d="M1.525 17.475V12Q1.525 11.1 2.1 10.425Q2.675 9.75 3.525 9.6V7.175Q3.525 6.075 4.3 5.3Q5.075 4.525 6.175 4.525H17.825Q18.925 4.525 19.7 5.3Q20.475 6.075 20.475 7.175V9.6Q21.325 9.75 21.9 10.438Q22.475 11.125 22.475 12V17.475H21L20.575 18.975Q20.475 19.325 20.175 19.55Q19.875 19.775 19.5 19.775Q19.1 19.775 18.812 19.538Q18.525 19.3 18.425 18.925L18 17.475H6L5.575 18.975Q5.475 19.325 5.175 19.55Q4.875 19.775 4.5 19.775Q4.1 19.775 3.813 19.538Q3.525 19.3 3.425 18.925L3 17.475ZM13 10H17.825V7.175Q17.825 7.175 17.825 7.175Q17.825 7.175 17.825 7.175H13ZM6.175 10H11V7.175H6.175Q6.175 7.175 6.175 7.175Q6.175 7.175 6.175 7.175Z"/></svg>