<svg xmlns="http://www.w3.org/2000/svg" height="48" width="48"><path d="M24 31.5Q27.55 31.5 30.025 29.025Q32.5 26.55 32.5 23Q32.5 19.45 30.025 16.975Q27.55 14.5 24 14.5Q20.45 14.5 17.975 16.975Q15.5 19.45 15.5 23Q15.5 26.55 17.975 29.025Q20.45 31.5 24 31.5ZM24 28.4Q21.75 28.4 20.175 26.825Q18.6 25.25 18.6 23Q18.6 20.75 20.175 19.175Q21.75 17.6 24 17.6Q26.25 17.6 27.825 19.175Q29.4 20.75 29.4 23Q29.4 25.25 27.825 26.825Q26.25 28.4 24 28.4ZM24 38.3Q17.05 38.3 11.3 34.5Q5.55 30.7 2.45 24.45Q2.25 24.2 2.175 23.8Q2.1 23.4 2.1 23Q2.1 22.6 2.175 22.2Q2.25 21.8 2.45 21.5Q5.55 15.3 11.3 11.5Q17.05 7.7 24 7.7Q30.95 7.7 36.7 11.5Q42.45 15.3 45.55 21.5Q45.75 21.8 45.825 22.2Q45.9 22.6 45.9 23Q45.9 23.4 45.825 23.8Q45.75 24.2 45.55 24.45Q42.45 30.7 36.7 34.5Q30.95 38.3 24 38.3Z"/></svg>