<svg xmlns="http://www.w3.org/2000/svg" height="40" width="40"><path d="M20 26.375Q23 26.375 25.104 24.271Q27.208 22.167 27.208 19.167Q27.208 16.167 25.104 14.063Q23 11.958 20 11.958Q17 11.958 14.896 14.063Q12.792 16.167 12.792 19.167Q12.792 22.167 14.896 24.271Q17 26.375 20 26.375ZM20 23.375Q18.25 23.375 17.021 22.146Q15.792 20.917 15.792 19.167Q15.792 17.417 17.021 16.188Q18.25 14.958 20 14.958Q21.75 14.958 22.979 16.188Q24.208 17.417 24.208 19.167Q24.208 20.917 22.979 22.146Q21.75 23.375 20 23.375ZM20 32.292Q14.083 32.292 9.208 29.062Q4.333 25.833 1.708 20.583Q1.542 20.292 1.479 19.917Q1.417 19.542 1.417 19.167Q1.417 18.792 1.479 18.396Q1.542 18 1.708 17.75Q4.333 12.5 9.208 9.271Q14.083 6.042 20 6.042Q25.917 6.042 30.792 9.271Q35.667 12.5 38.292 17.75Q38.458 18 38.521 18.396Q38.583 18.792 38.583 19.167Q38.583 19.542 38.521 19.917Q38.458 20.292 38.292 20.583Q35.667 25.833 30.792 29.062Q25.917 32.292 20 32.292ZM20 19.167Q20 19.167 20 19.167Q20 19.167 20 19.167Q20 19.167 20 19.167Q20 19.167 20 19.167Q20 19.167 20 19.167Q20 19.167 20 19.167Q20 19.167 20 19.167Q20 19.167 20 19.167ZM20 28.875Q24.917 28.875 29.021 26.229Q33.125 23.583 35.292 19.167Q33.125 14.75 29.021 12.104Q24.917 9.458 20 9.458Q15.083 9.458 10.979 12.104Q6.875 14.75 4.667 19.167Q6.875 23.583 10.979 26.229Q15.083 28.875 20 28.875Z"/></svg>