<svg xmlns="http://www.w3.org/2000/svg" height="20" viewBox="0 -960 960 960" width="20"><path d="M683-524.85q0 30.47-9.12 58.97-9.11 28.5-25.57 53.1-10.24 15.32-28.08 21.09-17.85 5.77-33.07-3.69-14.7-8.46-17.47-22.43-2.77-13.96 6.69-26.89 12.85-17.3 20.74-38.22 7.88-20.92 7.88-41.13t-7.69-40.23q-7.7-20.03-20.93-36.93-8.84-11.33-4.77-26.37 4.08-15.03 17.62-22.5 15.17-9.84 32.7-5.07t27.38 19.62q17.07 24.16 25.38 52.43 8.31 28.26 8.31 58.25Zm190 0q0 71.54-25.92 137.77-25.93 66.24-71.62 120.31-11.08 13.62-25.35 13.12-14.27-.5-26.57-12.81-12.31-12.31-13.12-27.77-.81-15.46 9.27-27 35.39-43.46 55.35-94.46 19.96-51 19.96-108.16 0-57.15-19.96-108.65-19.96-51.5-55.35-94.96-10.08-11.54-9.27-27 .81-15.46 13.12-27.77 12.3-12.31 26.57-12.81t25.35 13.12q46.69 54.07 72.12 119.81Q873-596.38 873-524.85ZM479.79-64.31q-31.71 0-53.9-22.34-22.2-22.34-22.2-53.97h152.62q0 31.93-22.41 54.12-22.4 22.19-54.11 22.19ZM219-188.62q-16.07 0-27.53-11.4Q180-211.43 180-227.4q0-15.98 11.47-27.6 11.46-11.61 27.53-11.61h1.31v-260.47q0-92.69 58.31-164.19 58.3-71.5 149.38-89.81V-823q0-21.77 15.12-36.88Q458.23-875 480-875q21.77 0 36.88 15.12Q532-844.77 532-823v41.92q3.46-.77 5.97-.26t4.87 1.03q17.12 2.25 21.37 20.13 4.25 17.87-9.6 30.72l-48.53 47.54q-12.48 13.02-19.09 30.08-6.61 17.07-6.61 34.7v186.9q0 17.63 6.62 34.13 6.61 16.5 20.46 30.34l101.31 99.69q22.07 21.08 10.32 49.27-11.75 28.19-41.25 28.19H219Z"/></svg>