<svg xmlns="http://www.w3.org/2000/svg" version="1.1" width="3300" height="2000"><g id="Notes"><style>
    text {
      font-family: monospace;
      text-anchor: middle;
    }
    text.emphasis {
      font-weight:bold;
    }
    text.lanchor {
      text-anchor: start;
    }
  </style><rect height="2200" id="artboard" fill="white" width="3300" x="0" y="0"/><line id="" style="fill:none;stroke:black;stroke-width:0.5;" x1="263" x2="3036" y1="292" y2="292"/><text class="lanchor emphasis" transform="matrix(1 0 0 1 263 322)">Weight/Scale Variations</text><text transform="matrix(1 0 0 1 559.711 322)">Ultralight</text><text transform="matrix(1 0 0 1 856.422 322)">Thin</text><text transform="matrix(1 0 0 1 1153.13 322)">Light</text><text transform="matrix(1 0 0 1 1449.84 322)">Regular</text><text transform="matrix(1 0 0 1 1746.56 322)">Medium</text><text transform="matrix(1 0 0 1 2043.27 322)">Semibold</text><text transform="matrix(1 0 0 1 2339.98 322)">Bold</text><text transform="matrix(1 0 0 1 2636.69 322)">Heavy</text><text transform="matrix(1 0 0 1 2933.4 322)">Black</text><text id="template-version" style="text-anchor: end;" transform="matrix(1 0 0 1 3036 1933)">Template v.1.0</text><text class="lanchor" transform="matrix(1 0 0 1 263 726)">Small</text><text class="lanchor" transform="matrix(1 0 0 1 263 1156)">Medium</text><text class="lanchor" transform="matrix(1 0 0 1 263 1586)">Large</text></g><g id="Guides"><g id="H-reference" style="fill:#27AAE1;stroke:none;" transform="matrix(1 0 0 1 339 696)"><path d="M 54.9316 0 L 57.666 0 L 30.5664 -70.459 L 28.0762 -70.459 L 0.976562 0 L 3.66211 0 L 12.9395 -24.4629 L 45.7031 -24.4629 Z M 29.1992 -67.0898 L 29.4434 -67.0898 L 44.8242 -26.709 L 13.8184 -26.709 Z"/></g><line id="Baseline-S" style="fill:none;stroke:#27AAE1;opacity:1;stroke-width:0.577;" x1="263" x2="3036" y1="696" y2="696"/><line id="Capline-S" style="fill:none;stroke:#27AAE1;opacity:1;stroke-width:0.577;" x1="263" x2="3036" y1="625.541" y2="625.541"/><g id="H-reference" style="fill:#27AAE1;stroke:none;" transform="matrix(1 0 0 1 339 1126)"><path d="M 54.9316 0 L 57.666 0 L 30.5664 -70.459 L 28.0762 -70.459 L 0.976562 0 L 3.66211 0 L 12.9395 -24.4629 L 45.7031 -24.4629 Z M 29.1992 -67.0898 L 29.4434 -67.0898 L 44.8242 -26.709 L 13.8184 -26.709 Z"/></g><line id="Baseline-M" style="fill:none;stroke:#27AAE1;opacity:1;stroke-width:0.577;" x1="263" x2="3036" y1="1126" y2="1126"/><line id="Capline-M" style="fill:none;stroke:#27AAE1;opacity:1;stroke-width:0.577;" x1="263" x2="3036" y1="1055.54" y2="1055.54"/><g id="H-reference" style="fill:#27AAE1;stroke:none;" transform="matrix(1 0 0 1 339 1556)"><path d="M 54.9316 0 L 57.666 0 L 30.5664 -70.459 L 28.0762 -70.459 L 0.976562 0 L 3.66211 0 L 12.9395 -24.4629 L 45.7031 -24.4629 Z M 29.1992 -67.0898 L 29.4434 -67.0898 L 44.8242 -26.709 L 13.8184 -26.709 Z"/></g><line id="Baseline-L" style="fill:none;stroke:#27AAE1;opacity:1;stroke-width:0.577;" x1="263" x2="3036" y1="1556" y2="1556"/><line id="Capline-L" style="fill:none;stroke:#27AAE1;opacity:1;stroke-width:0.577;" x1="263" x2="3036" y1="1485.54" y2="1485.54"/><rect height="119.336" id="left-margin" style="fill:darkred;stroke:none;opacity:0.4;" width="12.4512" x="1394.06" y="1030.79"/><rect height="119.336" id="right-margin" style="fill:darkgreen;stroke:none;opacity:0.4;" width="12.4512" x="1502.5112" y="1030.79"/><rect x="1406.5112" y="1045" width="96" height="96" fill="none" stroke="blue" stroke-dasharray="5"/><rect x="1394.06" y="1030.79" width="120.9024" height="119.336" fill="none" stroke="blue"/></g><g id="Symbols"><g id="Bold-L" transform="matrix(1 0 0 1 2266 1556)"><path d="M43.698750000000004 12.5 Q37.41 11.210000000000008 31.605000000000004 10.565000000000012 Q25.8 9.920000000000002 19.51125 9.920000000000002 H9.3525 V-2.9799999999999898 H19.51125 Q25.8 -2.9799999999999898 31.605000000000004 -3.7056249999999977 Q37.41 -4.431250000000006 43.698750000000004 -5.721249999999998 V12.5 Z M129.0 34.107500000000016  108.03750000000001 13.14500000000001 H50.31 V-6.204999999999998 H88.52625 L8.223749999999999 -86.66874999999999 L16.125 -94.40875 L137.0625 26.20625000000001 L129.0 34.107500000000016 Z M137.22375 13.14500000000001  117.87375 -6.204999999999998 H144.64125 V13.14500000000001 H137.22375 Z M66.27375 7.501250000000013 Q68.20875 7.501250000000013 69.3375 6.372500000000002 Q70.46625 5.243750000000006 70.46625 3.470000000000013 Q70.46625 1.5349999999999966 69.3375 0.40625 Q68.20875 -0.7224999999999824 66.435 -0.7224999999999824 Q64.5 -0.7224999999999824 63.371249999999996 0.40625 Q62.24250000000001 1.5349999999999966 62.24250000000001 3.3087500000000176 Q62.24250000000001 5.243750000000006 63.371249999999996 6.372500000000002 Q64.5 7.501250000000013 66.27375 7.501250000000013 Z M135.1275 -13.461249999999993 V-29.747500000000002 Q135.1275 -41.51875 127.145625 -49.178124999999994 Q119.16375000000001 -56.83749999999999 106.90875 -56.83749999999999 V-66.19 Q111.90750000000001 -66.19 115.61625000000001 -69.979375 Q119.325 -73.76874999999998 119.325 -79.4125 Q119.325 -84.895 115.7775 -88.76499999999999 Q112.22999999999999 -92.63499999999999 106.90875 -92.63499999999999 V-102.14874999999999 Q116.10000000000001 -102.14874999999999 122.46937500000001 -95.456875 Q128.83875 -88.76499999999999 128.83875 -79.4125 Q128.83875 -73.76874999999998 126.58125 -69.49562499999999 Q124.32374999999999 -65.2225 120.45375000000001 -62.964999999999996 Q131.25750000000002 -60.54625 137.949375 -50.54874999999999 Q144.64125 -40.55124999999998 144.64125 -29.747500000000002 V-13.461249999999993 H135.1275 Z M118.51875 -13.461249999999993 V-22.33 Q118.51875 -29.263749999999987 114.4875 -33.053124999999994 Q110.45625 -36.84249999999999 104.97375 -36.84249999999999 H93.2025 Q91.75125 -36.84249999999999 89.574375 -37.084374999999994 Q87.39750000000001 -37.32624999999999 85.94624999999999 -38.455 L73.85249999999999 -50.38749999999999 Q72.5625 -52.80624999999999 72.159375 -55.5475 Q71.75625000000001 -58.288749999999986 71.75625000000001 -60.06249999999999 Q71.75625000000001 -69.41499999999999 77.88374999999999 -75.78437499999998 Q84.01125 -82.15375 93.525 -82.15375 V-72.80125 Q88.0425 -72.80125 84.575625 -69.25375 Q81.10875 -65.70624999999998 81.10875 -60.06249999999999 Q81.10875 -54.41874999999999 84.575625 -50.38749999999999 Q88.0425 -46.35624999999999 93.525 -46.35624999999999 H105.135 Q114.4875 -46.35624999999999 121.17937500000001 -39.906249999999986 Q127.87125 -33.45625 127.87125 -24.265 V-13.461249999999993 H118.51875 Z"/></g><g id="Semibold-L" transform="matrix(1 0 0 1 1970.27 1556)"><path d="M43.698750000000004 12.338750000000005 Q37.41 10.887500000000003 31.685624999999998 10.242500000000007 Q25.961250000000003 9.597499999999997 19.6725 9.597499999999997 H9.03 V-2.8187500000000085 H19.6725 Q25.961250000000003 -2.8187500000000085 31.685624999999998 -3.544374999999988 Q37.41 -4.269999999999982 43.698750000000004 -5.721249999999998 V12.338750000000005 Z M129.48375 34.26875000000001  108.03750000000001 12.822500000000005 H49.665 V-6.043750000000003 H89.01 L8.0625 -87.15249999999999 L16.125 -95.05375 L137.7075 26.20625000000001 L129.48375 34.26875000000001 Z M137.7075 12.822500000000005  118.84125 -6.043750000000003 H145.28625 V12.822500000000005 H137.7075 Z M66.1125 7.0175000000000125 Q67.72500000000001 7.0175000000000125 68.85375 5.969374999999999 Q69.9825 4.921250000000015 69.9825 3.3087500000000176 Q69.9825 1.6962500000000205 68.85375 0.6481250000000074 Q67.72500000000001 -0.4000000000000057 66.27375 -0.4000000000000057 Q64.5 -0.4000000000000057 63.451875 0.6481250000000074 Q62.40375000000001 1.6962500000000205 62.40375000000001 3.147500000000008 Q62.40375000000001 4.921250000000015 63.451875 5.969374999999999 Q64.5 7.0175000000000125 66.1125 7.0175000000000125 Z M135.61124999999998 -13.299999999999997 V-29.586249999999993 Q135.61124999999998 -41.51875 127.54875 -49.500625 Q119.48625 -57.48249999999999 107.23125 -57.48249999999999 V-67.1575 Q112.22999999999999 -67.1575 116.01937500000001 -70.94687499999999 Q119.80875 -74.73624999999998 119.80875 -80.54124999999999 Q119.80875 -86.02374999999999 116.18062499999999 -89.89375 Q112.5525 -93.76374999999999 107.23125 -93.76374999999999 V-103.43875 Q116.74500000000002 -103.43875 123.114375 -96.66624999999999 Q129.48375 -89.89375 129.48375 -80.54124999999999 Q129.48375 -75.05875 127.468125 -70.785625 Q125.4525 -66.51249999999999 121.74375 -63.771249999999995 Q132.38625 -60.54625 138.83625 -50.468125 Q145.28625 -40.39 145.28625 -29.586249999999993 V-13.299999999999997 H135.61124999999998 Z M118.51875 -13.299999999999997 V-22.33 Q118.51875 -29.263749999999987 114.568125 -33.053124999999994 Q110.61749999999999 -36.84249999999999 104.97375 -36.84249999999999 H94.17 Q92.71875 -36.84249999999999 90.541875 -37.084374999999994 Q88.365 -37.32624999999999 86.7525 -38.455 L73.53 -51.51625 Q72.24 -53.934999999999995 71.83687499999999 -56.67624999999999 Q71.43375 -59.4175 71.43375 -61.19125 Q71.75625000000001 -70.54374999999999 78.045 -76.67124999999999 Q84.33375 -82.79875 93.525 -82.79875 V-73.12375 Q87.88125000000001 -73.12375 84.495 -69.49562499999999 Q81.10875 -65.86749999999999 81.10875 -60.223749999999995 Q81.10875 -54.57999999999999 84.495 -50.62937499999999 Q87.88125000000001 -46.678749999999994 93.525 -46.678749999999994 H105.135 Q114.4875 -46.678749999999994 121.42125 -40.22874999999999 Q128.355 -33.77875 128.355 -24.58749999999999 V-13.299999999999997 H118.51875 Z"/></g><g id="Medium-L" transform="matrix(1 0 0 1 1674.31 1556)"><path d="M43.86 12.177500000000023 Q37.57125 10.726250000000007 31.846875 10.000625 Q26.1225 9.275000000000006 19.833750000000002 9.275000000000006 H8.707500000000001 V-2.6574999999999847 H19.833750000000002 Q26.1225 -2.6574999999999847 31.846875 -3.3831249999999926 Q37.57125 -4.108750000000001 43.86 -5.721249999999998 V12.177500000000023 Z M129.80625 34.43000000000001  107.87625000000001 12.5 H49.019999999999996 V-5.882499999999993 H89.3325 L7.901250000000001 -87.475 L16.28625 -95.69874999999999 L138.19125 26.045000000000016 L129.80625 34.43000000000001 Z M138.03 12.5  119.64750000000001 -5.882499999999993 H145.93125 V12.5 H138.03 Z M66.1125 6.695000000000007 Q67.4025 6.695000000000007 68.450625 5.7275000000000205 Q69.49875 4.760000000000005 69.49875 3.147500000000008 Q69.49875 1.8575000000000017 68.450625 0.8093750000000028 Q67.4025 -0.2387499999999818 66.1125 -0.2387499999999818 Q64.5 -0.2387499999999818 63.5325 0.8093750000000028 Q62.565 1.8575000000000017 62.565 3.147500000000008 Q62.565 4.760000000000005 63.5325 5.7275000000000205 Q64.5 6.695000000000007 66.1125 6.695000000000007 Z M135.93375 -13.138749999999987 V-29.586249999999993 Q135.93375 -41.51875 127.87125 -49.74249999999999 Q119.80875 -57.966249999999995 107.55375000000001 -57.966249999999995 V-67.96375 Q112.5525 -67.96375 116.34187500000002 -71.75312499999998 Q120.13125000000001 -75.54249999999999 120.13125000000001 -81.18625 Q120.13125000000001 -86.66874999999999 116.503125 -90.53875 Q112.875 -94.40875 107.55375000000001 -94.40875 V-104.40625 Q117.39 -104.40625 123.759375 -97.553125 Q130.12875 -90.69999999999999 130.12875 -81.18625 Q130.12875 -76.02625 128.113125 -71.75312499999998 Q126.09750000000001 -67.47999999999999 122.71124999999999 -64.41624999999999 Q133.35375000000002 -60.54625 139.64249999999998 -50.38749999999999 Q145.93125 -40.22874999999999 145.93125 -29.424999999999997 V-13.138749999999987 H135.93375 Z M118.67999999999999 -13.138749999999987 V-22.33 Q118.67999999999999 -29.263749999999987 114.72937500000002 -32.9725 Q110.77875 -36.68124999999999 105.135 -36.68124999999999 H94.815 Q93.36375 -36.68124999999999 91.186875 -37.00375 Q89.01 -37.32624999999999 87.39750000000001 -38.29374999999999 L73.2075 -52.48375 Q71.9175 -54.902499999999996 71.514375 -57.563125 Q71.11125 -60.223749999999995 71.11125 -61.997499999999995 Q71.75625000000001 -71.51124999999999 78.12562500000001 -77.396875 Q84.495 -83.2825 93.36375 -83.2825 V-73.285 Q87.72 -73.285 84.33375 -69.656875 Q80.9475 -66.02875 80.9475 -60.385 Q80.9475 -54.741249999999994 84.33375 -50.79062499999999 Q87.72 -46.84 93.525 -46.84 H105.135 Q114.64874999999999 -46.84 121.66312500000001 -40.470625 Q128.6775 -34.10124999999999 128.6775 -24.909999999999997 V-13.138749999999987 H118.67999999999999 Z"/></g><g id="Regular-L" transform="matrix(1 0 0 1 1378.56 1556)"><path d="M43.86 12.177500000000023 Q37.57125 10.565000000000012 31.927500000000002 9.839375000000018 Q26.28375 9.11375000000001 19.995 9.11375000000001 H8.54625 V-2.6574999999999847 H19.995 Q26.28375 -2.6574999999999847 31.927500000000002 -3.3831249999999926 Q37.57125 -4.108750000000001 43.86 -5.721249999999998 V12.177500000000023 Z M129.9675 34.43000000000001  107.87625000000001 12.338750000000005 H48.6975 V-5.882499999999993 H89.655 L7.901250000000001 -87.63624999999999 L16.28625 -96.02125 L138.51375000000002 26.045000000000016 L129.9675 34.43000000000001 Z M138.3525 12.338750000000005  120.13125000000001 -5.882499999999993 H146.25375 V12.338750000000005 H138.3525 Z M65.95125 6.372500000000002 Q67.24125000000001 6.372500000000002 68.20875 5.485625000000013 Q69.17625 4.59875000000001 69.17625 3.147500000000008 Q69.17625 1.8575000000000017 68.20875 0.8900000000000148 Q67.24125000000001 -0.07750000000000057 65.95125 -0.07750000000000057 Q64.5 -0.07750000000000057 63.613125000000004 0.8900000000000148 Q62.72625 1.8575000000000017 62.72625 3.147500000000008 Q62.72625 4.59875000000001 63.613125000000004 5.485625000000013 Q64.5 6.372500000000002 65.95125 6.372500000000002 Z M136.095 -13.138749999999987 V-29.586249999999993 Q136.095 -41.51875 128.113125 -49.903749999999995 Q120.13125000000001 -58.288749999999986 107.715 -58.288749999999986 V-68.44749999999999 Q112.71375000000002 -68.44749999999999 116.503125 -72.236875 Q120.29249999999999 -76.02625 120.29249999999999 -81.83125 Q120.29249999999999 -87.31375 116.66437499999999 -91.18374999999999 Q113.03625 -95.05375 107.715 -95.05375 V-105.21249999999999 Q117.7125 -105.21249999999999 124.08187500000001 -98.27875 Q130.45125000000002 -91.345 130.45125000000002 -81.83125 Q130.45125000000002 -76.8325 128.596875 -72.55937499999999 Q126.74249999999999 -68.28625 123.35625 -64.89999999999999 Q133.99875 -60.54625 140.12625 -50.38749999999999 Q146.25375 -40.22874999999999 146.25375 -29.424999999999997 V-13.138749999999987 H136.095 Z M118.67999999999999 -13.138749999999987 V-22.33 Q118.67999999999999 -29.263749999999987 114.72937500000002 -32.9725 Q110.77875 -36.68124999999999 105.135 -36.68124999999999 H95.29875 Q93.84750000000001 -36.68124999999999 91.670625 -37.00375 Q89.49375 -37.32624999999999 87.88125000000001 -38.29374999999999 L73.04625 -53.12875 Q71.75625000000001 -55.5475 71.353125 -58.208124999999995 Q70.95 -60.86874999999999 70.95 -62.64249999999999 Q71.75625000000001 -72.15625 78.20625 -77.880625 Q84.65625 -83.60499999999999 93.36375 -83.60499999999999 V-73.44624999999999 Q87.72 -73.44624999999999 84.33375 -69.73749999999998 Q80.9475 -66.02875 80.9475 -60.385 Q80.9475 -54.741249999999994 84.33375 -50.871249999999996 Q87.72 -47.001249999999985 93.36375 -47.001249999999985 H105.135 Q114.64874999999999 -47.001249999999985 121.74375 -40.631874999999994 Q128.83875 -34.26249999999999 128.83875 -25.071249999999992 V-13.138749999999987 H118.67999999999999 Z"/></g><g id="Light-L" transform="matrix(1 0 0 1 1082.77 1556)"><path d="M45.63375 11.048750000000013 Q39.345 9.436250000000015 34.346250000000005 8.791250000000005 Q29.3475 8.146250000000023 23.865000000000002 8.146250000000023 H13.545000000000002 V-2.6574999999999847 H23.865000000000002 Q29.3475 -2.6574999999999847 34.346250000000005 -3.221874999999997 Q39.345 -3.7862499999999955 45.63375 -5.398749999999993 V11.048750000000013 Z M131.57999999999998 32.172500000000014  110.45625 11.048750000000013 H50.955000000000005 V-5.559999999999988 H93.84750000000001 L9.9975 -89.24875 L16.77 -96.02125 L138.51375000000002 25.56125 L131.57999999999998 32.172500000000014 Z M136.74 9.11375000000001  122.22749999999999 -5.559999999999988 H142.54500000000002 V9.11375000000001 H136.74 Z M65.95125 5.888750000000002 Q67.24125000000001 5.888750000000002 68.20875 5.0018750000000125 Q69.17625 4.115000000000023 69.17625 2.6637500000000074 Q69.17625 1.3737500000000153 68.20875 0.40625 Q67.24125000000001 -0.5612499999999869 65.95125 -0.5612499999999869 Q64.5 -0.5612499999999869 63.613125000000004 0.40625 Q62.72625 1.3737500000000153 62.72625 2.6637500000000074 Q62.72625 4.115000000000023 63.613125000000004 5.0018750000000125 Q64.5 5.888750000000002 65.95125 5.888750000000002 Z M133.99875 -13.783749999999998 V-29.908749999999998 Q133.99875 -41.35749999999999 126.09750000000001 -49.25875 Q118.19624999999999 -57.16 106.26375000000002 -57.16 V-65.70624999999998 Q111.10125000000001 -65.70624999999998 114.81 -69.41499999999999 Q118.51875 -73.12375 118.51875 -78.60624999999999 Q118.51875 -83.9275 114.97125 -87.7975 Q111.42375 -91.66749999999999 106.26375000000002 -91.66749999999999 V-100.21374999999999 Q115.61625000000001 -100.21374999999999 121.340625 -93.76374999999999 Q127.065 -87.31375 127.065 -78.60624999999999 Q127.065 -73.76874999999998 125.21062500000001 -69.73749999999998 Q123.35625 -65.70624999999998 120.13125000000001 -62.803749999999994 Q130.12875 -59.09499999999999 136.336875 -49.82312499999999 Q142.54500000000002 -40.55124999999998 142.54500000000002 -29.747500000000002 V-13.783749999999998 H133.99875 Z M118.35750000000002 -13.783749999999998 V-22.813749999999985 Q118.35750000000002 -29.586249999999993 114.32625000000002 -33.21437499999999 Q110.29500000000002 -36.84249999999999 104.97375 -36.84249999999999 H95.62125 Q94.4925 -36.84249999999999 92.71875 -37.084374999999994 Q90.945 -37.32624999999999 89.81625000000001 -37.97125 L74.33625 -53.45124999999999 Q73.53 -55.224999999999994 73.2075 -57.401875 Q72.885 -59.57875 72.885 -60.86874999999999 Q73.69125000000001 -69.73749999999998 79.73812500000001 -74.816875 Q85.78500000000001 -79.89625 93.68625 -79.89625 V-71.35 Q88.20375000000001 -71.35 84.736875 -67.64125 Q81.27 -63.9325 81.27 -58.61124999999999 Q81.27 -53.12875 84.736875 -49.41999999999999 Q88.20375000000001 -45.71124999999999 93.68625 -45.71124999999999 H104.97375 Q114.00375000000001 -45.71124999999999 120.45375000000001 -39.503125 Q126.90375 -33.29499999999999 126.90375 -24.748749999999987 V-13.783749999999998 H118.35750000000002 Z"/></g><g id="Thin-L" transform="matrix(1 0 0 1 787.282 1556)"><path d="M47.4075 9.920000000000002 Q41.11875 8.146250000000023 36.765 7.662499999999994 Q32.41125 7.178750000000008 27.735 7.178750000000008 H18.54375 V-2.4962500000000034 H27.735 Q32.41125 -2.4962500000000034 36.765 -2.9799999999999898 Q41.11875 -3.4637499999999903 47.4075 -5.237499999999997 V9.920000000000002 Z M133.1925 29.91500000000002  113.03625 9.920000000000002 H53.2125 V-5.0762499999999875 H98.03999999999999 L12.254999999999999 -91.0225 L17.25375 -95.86 L138.3525 24.91624999999999 L133.1925 29.91500000000002 Z M135.1275 5.7275000000000205  124.16250000000001 -5.0762499999999875 H138.83625 V5.7275000000000205 H135.1275 Z M65.95125 5.566249999999997 Q67.24125000000001 5.566249999999997 68.20875 4.679375000000007 Q69.17625 3.792500000000018 69.17625 2.3412500000000023 Q69.17625 1.0512500000000102 68.20875 0.0837500000000233 Q67.24125000000001 -0.883749999999992 65.95125 -0.883749999999992 Q64.5 -0.883749999999992 63.613125000000004 0.0837500000000233 Q62.72625 1.0512500000000102 62.72625 2.3412500000000023 Q62.72625 3.792500000000018 63.613125000000004 4.679375000000007 Q64.5 5.566249999999997 65.95125 5.566249999999997 Z M131.74125 -14.428749999999994 V-30.069999999999993 Q131.74125 -41.19624999999999 124.08187500000001 -48.533125 Q116.42250000000001 -55.86999999999999 104.8125 -55.86999999999999 V-62.964999999999996 Q109.65 -62.964999999999996 113.1975 -66.67374999999998 Q116.74500000000002 -70.3825 116.74500000000002 -75.54249999999999 Q116.74500000000002 -80.54124999999999 113.278125 -84.41125 Q109.81124999999999 -88.28125 104.8125 -88.28125 V-95.21499999999999 Q113.35875 -95.21499999999999 118.51875 -89.329375 Q123.67875000000001 -83.44375 123.67875000000001 -75.54249999999999 Q123.67875000000001 -70.70499999999998 121.824375 -66.91562499999999 Q119.97000000000001 -63.12624999999999 116.90625 -60.70749999999999 Q126.25874999999999 -57.64374999999999 132.5475 -49.178124999999994 Q138.83625 -40.71249999999999 138.83625 -29.908749999999998 V-14.428749999999994 H131.74125 Z M117.87375 -14.428749999999994 V-23.2975 Q117.87375 -29.747500000000002 113.92312500000001 -33.375625 Q109.97250000000001 -37.00375 104.8125 -37.00375 H95.7825 Q95.1375 -37.00375 93.766875 -37.084374999999994 Q92.39625 -37.16499999999999 91.91250000000001 -37.64874999999999 L75.78750000000001 -53.77374999999999 Q75.30375000000001 -54.741249999999994 75.061875 -56.59562499999999 Q74.82 -58.44999999999999 74.82 -59.09499999999999 Q75.62625 -67.31875 81.27 -71.83375 Q86.91375 -76.34875 93.84750000000001 -76.34875 V-69.25375 Q88.6875 -69.25375 85.220625 -65.625625 Q81.75375000000001 -61.997499999999995 81.75375000000001 -56.83749999999999 Q81.75375000000001 -51.51625 85.220625 -47.888125 Q88.6875 -44.25999999999999 93.84750000000001 -44.25999999999999 H104.8125 Q113.35875 -44.25999999999999 119.16375000000001 -38.29374999999999 Q124.96875 -32.3275 124.96875 -24.426249999999982 V-14.428749999999994 H117.87375 Z"/></g><g id="Ultralight-L" transform="matrix(1 0 0 1 491.205 1556)"><path d="M48.53625 9.275000000000006 Q42.08625000000001 7.501250000000013 38.135625 7.09812500000001 Q34.185 6.695000000000007 29.992500000000003 6.695000000000007 H21.446250000000003 V-2.4962500000000034 H29.992500000000003 Q34.185 -2.4962500000000034 38.135625 -2.899374999999992 Q42.08625000000001 -3.302499999999995 48.53625 -5.0762499999999875 V9.275000000000006 Z M134.16 28.625  114.64874999999999 9.11375000000001 H54.5025 V-4.914999999999992 H100.62 L13.545000000000002 -91.99 L17.57625 -95.86 L138.3525 24.59375 L134.16 28.625 Z M134.16 3.792500000000018  125.4525 -4.914999999999992 H136.57875 V3.792500000000018 H134.16 Z M65.95125 5.243750000000006 Q67.24125000000001 5.243750000000006 68.20875 4.356875000000002 Q69.17625 3.470000000000013 69.17625 2.018749999999997 Q69.17625 0.7287500000000051 68.20875 -0.2387499999999818 Q67.24125000000001 -1.2062499999999972 65.95125 -1.2062499999999972 Q64.5 -1.2062499999999972 63.613125000000004 -0.2387499999999818 Q62.72625 0.7287500000000051 62.72625 2.018749999999997 Q62.72625 3.470000000000013 63.613125000000004 4.356875000000002 Q64.5 5.243750000000006 65.95125 5.243750000000006 Z M130.45125000000002 -14.912499999999994 V-30.23124999999999 Q130.45125000000002 -41.035 122.8725 -48.129999999999995 Q115.29375 -55.224999999999994 103.84500000000001 -55.224999999999994 V-61.35249999999999 Q108.68250000000002 -61.35249999999999 112.14937499999999 -64.980625 Q115.61625000000001 -68.60874999999999 115.61625000000001 -73.60749999999999 Q115.61625000000001 -78.60624999999999 112.22999999999999 -82.395625 Q108.84375 -86.185 103.84500000000001 -86.185 V-92.3125 Q112.06875000000001 -92.3125 116.90625 -86.66874999999999 Q121.74375 -81.02499999999999 121.74375 -73.60749999999999 Q121.74375 -68.93124999999999 119.889375 -65.303125 Q118.03500000000001 -61.67499999999999 114.97125 -59.4175 Q123.84 -56.67624999999999 130.209375 -48.77499999999999 Q136.57875 -40.87374999999999 136.57875 -30.069999999999993 V-14.912499999999994 H130.45125000000002 Z M117.7125 -14.912499999999994 V-23.61999999999999 Q117.7125 -29.908749999999998 113.68125 -33.45625 Q109.65 -37.00375 104.8125 -37.00375 H95.94375000000001 Q95.46000000000001 -37.00375 94.411875 -37.084374999999994 Q93.36375 -37.16499999999999 93.04125 -37.4875 L76.59375 -53.934999999999995 Q76.27125 -54.57999999999999 76.11000000000001 -56.111875 Q75.94875 -57.64374999999999 75.94875 -58.1275 Q76.75500000000001 -65.86749999999999 82.15687500000001 -69.979375 Q87.55875 -74.09125 94.00874999999999 -74.09125 V-67.96375 Q89.01 -67.96375 85.4625 -64.335625 Q81.91499999999999 -60.70749999999999 81.91499999999999 -55.70875 Q81.91499999999999 -50.54874999999999 85.4625 -47.001249999999985 Q89.01 -43.45375 94.00874999999999 -43.45375 H104.8125 Q112.875 -43.45375 118.35750000000002 -37.568124999999995 Q123.84 -31.68249999999999 123.84 -24.265 V-14.912499999999994 H117.7125 Z"/></g><g id="Bold-M" transform="matrix(1 0 0 1 2281.8 1126)"><path d="M30.875 5.27000000000001 Q26.0 3.8950000000000102 21.0 3.2700000000000102 Q16.0 2.6450000000000102 11.0 2.6450000000000102 H2.625 V-12.47999999999999 H11.0 Q16.0 -12.47999999999999 21.0 -13.164999999999992 Q26.0 -13.85499999999999 30.875 -15.22999999999999 V5.27000000000001 Z M97.5 20.02000000000001  82.625 5.14500000000001 H37.75 V-14.97999999999999 H62.5 L4.75 -72.72999999999999 L14.125 -81.97999999999999 L106.875 10.64500000000001 L97.5 20.02000000000001 Z M115.25 5.14500000000001  95.125 -14.97999999999999 H116.5 V5.14500000000001 H115.25 Z M49.5 -1.4799999999999898 Q51.0 -1.4799999999999898 51.94 -2.539999999999992 Q52.875 -3.6049999999999898 52.875 -4.97999999999999 Q52.875 -6.47999999999999 51.94 -7.4199999999999875 Q51.0 -8.35499999999999 49.5 -8.35499999999999 Q48.125 -8.35499999999999 47.065 -7.4199999999999875 Q46.0 -6.47999999999999 46.0 -4.97999999999999 Q46.0 -3.6049999999999898 47.065 -2.539999999999992 Q48.125 -1.4799999999999898 49.5 -1.4799999999999898 Z M105.75 -19.97999999999999 V-31.35499999999999 Q105.75 -39.85499999999999 99.94 -46.10499999999999 Q94.125 -52.35499999999999 85.625 -52.35499999999999 V-62.97999999999999 Q89.375 -62.97999999999999 92.19 -65.79499999999999 Q95.0 -68.60499999999999 95.0 -72.35499999999999 Q95.0 -76.10499999999999 92.19 -78.85499999999999 Q89.375 -81.60499999999999 85.625 -81.60499999999999 V-92.35499999999999 Q94.125 -92.35499999999999 99.94 -86.41999999999999 Q105.75 -80.47999999999999 105.75 -72.35499999999999 Q105.75 -68.10499999999999 104.19 -64.60499999999999 Q102.625 -61.10499999999999 99.75 -58.72999999999999 Q107.375 -56.10499999999999 111.94000000000001 -47.97999999999999 Q116.5 -39.85499999999999 116.5 -31.47999999999999 V-19.97999999999999 H105.75 Z M90.125 -19.97999999999999 V-26.47999999999999 Q90.125 -31.47999999999999 87.19 -33.97999999999999 Q84.25 -36.47999999999999 80.125 -36.47999999999999 H73.625 Q73.625 -36.47999999999999 73.69 -36.47999999999999 Q73.75 -36.47999999999999 73.75 -36.47999999999999 L52.625 -57.60499999999999 Q52.625 -57.60499999999999 52.625 -57.669999999999995 Q52.625 -57.72999999999999 52.625 -57.72999999999999 Q53.125 -65.85499999999999 58.875 -71.16999999999999 Q64.625 -76.47999999999999 72.375 -76.47999999999999 V-65.85499999999999 Q68.5 -65.85499999999999 65.815 -63.03999999999999 Q63.125 -60.22999999999999 63.125 -56.35499999999999 Q63.125 -52.47999999999999 65.815 -49.85499999999999 Q68.5 -47.22999999999999 72.375 -47.22999999999999 H80.25 Q88.625 -47.22999999999999 94.69 -41.97999999999999 Q100.75 -36.72999999999999 100.75 -28.85499999999999 V-19.97999999999999 H90.125 Z"/></g><g id="Semibold-M" transform="matrix(1 0 0 1 1985.97 1126)"><path d="M31.25 4.77000000000001 Q26.375 3.2700000000000102 21.44 2.5800000000000125 Q16.5 1.8950000000000102 11.5 1.8950000000000102 H2.875 V-12.35499999999999 H11.5 Q16.5 -12.35499999999999 21.44 -13.039999999999992 Q26.375 -13.72999999999999 31.25 -15.22999999999999 V4.77000000000001 Z M98.0 20.02000000000001  82.5 4.39500000000001 H37.375 V-14.85499999999999 H63.125 L4.75 -73.22999999999999 L14.125 -82.47999999999999 L107.375 10.64500000000001 L98.0 20.02000000000001 Z M115.25 4.39500000000001  95.875 -14.85499999999999 H116.625 V4.39500000000001 H115.25 Z M49.5 -2.2299999999999898 Q50.875 -2.2299999999999898 51.69 -3.1049999999999898 Q52.5 -3.9799999999999898 52.5 -5.22999999999999 Q52.5 -6.47999999999999 51.69 -7.35499999999999 Q50.875 -8.22999999999999 49.625 -8.22999999999999 Q48.375 -8.22999999999999 47.44 -7.35499999999999 Q46.5 -6.47999999999999 46.5 -5.22999999999999 Q46.5 -3.9799999999999898 47.44 -3.1049999999999898 Q48.375 -2.2299999999999898 49.5 -2.2299999999999898 Z M105.875 -19.85499999999999 V-31.22999999999999 Q105.875 -39.85499999999999 100.06500000000001 -46.35499999999999 Q94.25 -52.85499999999999 85.625 -52.85499999999999 V-63.47999999999999 Q89.5 -63.47999999999999 92.315 -66.35499999999999 Q95.125 -69.22999999999999 95.125 -72.97999999999999 Q95.125 -76.72999999999999 92.315 -79.47999999999999 Q89.5 -82.22999999999999 85.625 -82.22999999999999 V-92.97999999999999 Q94.375 -92.97999999999999 100.125 -87.04499999999999 Q105.875 -81.10499999999999 105.875 -72.97999999999999 Q105.875 -68.97999999999999 104.44000000000001 -65.53999999999999 Q103.0 -62.10499999999999 100.375 -59.22999999999999 Q107.875 -55.97999999999999 112.25 -47.85499999999999 Q116.625 -39.72999999999999 116.625 -31.35499999999999 V-19.85499999999999 H105.875 Z M90.125 -19.85499999999999 V-26.47999999999999 Q90.125 -31.47999999999999 87.25 -33.97999999999999 Q84.375 -36.47999999999999 80.125 -36.47999999999999 H74.375 Q74.375 -36.47999999999999 74.375 -36.47999999999999 Q74.375 -36.47999999999999 74.375 -36.47999999999999 L52.625 -58.35499999999999 Q52.625 -58.35499999999999 52.625 -58.35499999999999 Q52.625 -58.35499999999999 52.625 -58.35499999999999 Q53.375 -66.47999999999999 59.125 -71.54499999999999 Q64.875 -76.60499999999999 72.375 -76.60499999999999 V-65.85499999999999 Q68.375 -65.85499999999999 65.75 -63.03999999999999 Q63.125 -60.22999999999999 63.125 -56.35499999999999 Q63.125 -52.47999999999999 65.75 -49.85499999999999 Q68.375 -47.22999999999999 72.375 -47.22999999999999 H80.25 Q88.5 -47.22999999999999 94.69 -42.10499999999999 Q100.875 -36.97999999999999 100.875 -29.10499999999999 V-19.85499999999999 H90.125 Z"/></g><g id="Medium-M" transform="matrix(1 0 0 1 1689.91 1126)"><path d="M31.5 4.27000000000001 Q26.625 2.7700000000000102 21.75 2.0800000000000125 Q16.875 1.3950000000000102 11.875 1.3950000000000102 H3.125 V-12.22999999999999 H11.875 Q16.875 -12.22999999999999 21.75 -12.919999999999987 Q26.625 -13.60499999999999 31.5 -15.22999999999999 V4.27000000000001 Z M98.375 19.89500000000001  82.375 3.8950000000000102 H37.0 V-14.72999999999999 H63.625 L4.875 -73.60499999999999 L14.25 -82.97999999999999 L107.75 10.52000000000001 L98.375 19.89500000000001 Z M115.125 3.8950000000000102  96.5 -14.72999999999999 H116.75 V3.8950000000000102 H115.125 Z M49.625 -2.7299999999999898 Q50.75 -2.7299999999999898 51.5 -3.5449999999999875 Q52.25 -4.35499999999999 52.25 -5.47999999999999 Q52.25 -6.60499999999999 51.5 -7.35499999999999 Q50.75 -8.10499999999999 49.625 -8.10499999999999 Q48.5 -8.10499999999999 47.69 -7.35499999999999 Q46.875 -6.60499999999999 46.875 -5.47999999999999 Q46.875 -4.35499999999999 47.69 -3.5449999999999875 Q48.5 -2.7299999999999898 49.625 -2.7299999999999898 Z M106.0 -19.72999999999999 V-31.22999999999999 Q106.0 -39.85499999999999 100.125 -46.54499999999999 Q94.25 -53.22999999999999 85.75 -53.22999999999999 V-63.97999999999999 Q89.625 -63.97999999999999 92.44 -66.78999999999999 Q95.25 -69.60499999999999 95.25 -73.35499999999999 Q95.25 -77.22999999999999 92.375 -79.91999999999999 Q89.5 -82.60499999999999 85.75 -82.60499999999999 V-93.35499999999999 Q94.625 -93.35499999999999 100.31 -87.41999999999999 Q106.0 -81.47999999999999 106.0 -73.35499999999999 Q106.0 -69.72999999999999 104.69 -66.29499999999999 Q103.375 -62.85499999999999 100.875 -59.72999999999999 Q108.375 -55.85499999999999 112.56500000000001 -47.72999999999999 Q116.75 -39.60499999999999 116.75 -31.22999999999999 V-19.72999999999999 H106.0 Z M90.25 -19.72999999999999 V-26.47999999999999 Q90.25 -31.60499999999999 87.375 -34.03999999999999 Q84.5 -36.47999999999999 80.25 -36.47999999999999 H74.875 Q74.875 -36.47999999999999 74.875 -36.47999999999999 Q74.875 -36.47999999999999 74.875 -36.47999999999999 L52.5 -58.85499999999999 Q52.5 -58.85499999999999 52.5 -58.85499999999999 Q52.5 -58.85499999999999 52.5 -58.85499999999999 Q53.5 -66.97999999999999 59.315 -71.85499999999999 Q65.125 -76.72999999999999 72.25 -76.72999999999999 V-65.97999999999999 Q68.25 -65.97999999999999 65.625 -63.04499999999999 Q63.0 -60.10499999999999 63.0 -56.22999999999999 Q63.0 -52.35499999999999 65.625 -49.79499999999999 Q68.25 -47.22999999999999 72.375 -47.22999999999999 H80.25 Q88.5 -47.22999999999999 94.75 -42.16499999999999 Q101.0 -37.10499999999999 101.0 -29.35499999999999 V-19.72999999999999 H90.25 Z"/></g><g id="Regular-M" transform="matrix(1 0 0 1 1394.06 1126)"><path d="M31.75 4.02000000000001 Q26.875 2.3950000000000102 22.0 1.7050000000000125 Q17.125 1.0200000000000102 12.125 1.0200000000000102 H3.25 V-12.22999999999999 H12.125 Q17.125 -12.22999999999999 22.0 -12.919999999999987 Q26.875 -13.60499999999999 31.75 -15.22999999999999 V4.02000000000001 Z M98.625 19.89500000000001  82.25 3.5200000000000102 H36.75 V-14.72999999999999 H64.0 L4.875 -73.85499999999999 L14.25 -83.22999999999999 L108.0 10.52000000000001 L98.625 19.89500000000001 Z M115.125 3.5200000000000102  96.875 -14.72999999999999 H116.75 V3.5200000000000102 H115.125 Z M49.625 -3.1049999999999898 Q50.625 -3.1049999999999898 51.375 -3.8549999999999898 Q52.125 -4.60499999999999 52.125 -5.60499999999999 Q52.125 -6.60499999999999 51.375 -7.35499999999999 Q50.625 -8.10499999999999 49.625 -8.10499999999999 Q48.625 -8.10499999999999 47.875 -7.35499999999999 Q47.125 -6.60499999999999 47.125 -5.60499999999999 Q47.125 -4.60499999999999 47.875 -3.8549999999999898 Q48.625 -3.1049999999999898 49.625 -3.1049999999999898 Z M106.0 -19.72999999999999 V-31.22999999999999 Q106.0 -39.85499999999999 100.19 -46.66999999999999 Q94.375 -53.47999999999999 85.75 -53.47999999999999 V-64.22999999999999 Q89.625 -64.22999999999999 92.44 -67.04499999999999 Q95.25 -69.85499999999999 95.25 -73.72999999999999 Q95.25 -77.60499999999999 92.44 -80.29499999999999 Q89.625 -82.97999999999999 85.75 -82.97999999999999 V-93.72999999999999 Q94.75 -93.72999999999999 100.375 -87.79499999999999 Q106.0 -81.85499999999999 106.0 -73.72999999999999 Q106.0 -70.22999999999999 104.815 -66.78999999999999 Q103.625 -63.35499999999999 101.25 -59.97999999999999 Q108.625 -55.72999999999999 112.69 -47.66999999999999 Q116.75 -39.60499999999999 116.75 -31.22999999999999 V-19.72999999999999 H106.0 Z M90.25 -19.72999999999999 V-26.47999999999999 Q90.25 -31.60499999999999 87.375 -34.03999999999999 Q84.5 -36.47999999999999 80.25 -36.47999999999999 H75.25 Q75.25 -36.47999999999999 75.25 -36.47999999999999 Q75.25 -36.47999999999999 75.25 -36.47999999999999 L52.5 -59.22999999999999 Q52.5 -59.22999999999999 52.5 -59.22999999999999 Q52.5 -59.22999999999999 52.5 -59.22999999999999 Q53.625 -67.35499999999999 59.44 -72.04499999999999 Q65.25 -76.72999999999999 72.25 -76.72999999999999 V-65.97999999999999 Q68.25 -65.97999999999999 65.625 -63.04499999999999 Q63.0 -60.10499999999999 63.0 -56.22999999999999 Q63.0 -52.35499999999999 65.625 -49.79499999999999 Q68.25 -47.22999999999999 72.25 -47.22999999999999 H80.25 Q88.5 -47.22999999999999 94.75 -42.22999999999999 Q101.0 -37.22999999999999 101.0 -29.47999999999999 V-19.72999999999999 H90.25 Z"/></g><g id="Light-M" transform="matrix(1 0 0 1 1098.18 1126)"><path d="M33.25 3.0200000000000102 Q28.375 1.5200000000000102 24.19 0.8950000000000102 Q20.0 0.27000000000001023 15.625 0.27000000000001023 H7.125 V-11.47999999999999 H15.625 Q20.0 -11.47999999999999 24.19 -12.10499999999999 Q28.375 -12.72999999999999 33.25 -14.22999999999999 V3.0200000000000102 Z M100.375 18.14500000000001  84.75 2.5200000000000102 H38.25 V-13.72999999999999 H68.5 L6.625 -75.60499999999999 L14.25 -83.22999999999999 L108.0 10.52000000000001 L100.375 18.14500000000001 Z M112.625 1.0200000000000102  97.875 -13.72999999999999 H113.875 V1.0200000000000102 H112.625 Z M49.625 -3.1049999999999898 Q50.625 -3.1049999999999898 51.375 -3.8549999999999898 Q52.125 -4.60499999999999 52.125 -5.60499999999999 Q52.125 -6.60499999999999 51.375 -7.35499999999999 Q50.625 -8.10499999999999 49.625 -8.10499999999999 Q48.625 -8.10499999999999 47.875 -7.35499999999999 Q47.125 -6.60499999999999 47.125 -5.60499999999999 Q47.125 -4.60499999999999 47.875 -3.8549999999999898 Q48.625 -3.1049999999999898 49.625 -3.1049999999999898 Z M104.625 -19.72999999999999 V-31.22999999999999 Q104.625 -39.85499999999999 98.81500000000001 -46.29499999999999 Q93.0 -52.72999999999999 84.375 -52.72999999999999 V-61.97999999999999 Q88.25 -61.97999999999999 91.0 -64.79499999999999 Q93.75 -67.60499999999999 93.75 -71.35499999999999 Q93.75 -75.22999999999999 91.0 -77.97999999999999 Q88.25 -80.72999999999999 84.375 -80.72999999999999 V-89.85499999999999 Q92.875 -89.85499999999999 97.935 -84.29499999999999 Q103.0 -78.72999999999999 103.0 -71.35499999999999 Q103.0 -67.85499999999999 101.75 -64.60499999999999 Q100.5 -61.35499999999999 98.125 -58.35499999999999 Q105.25 -54.72999999999999 109.565 -47.16499999999999 Q113.875 -39.60499999999999 113.875 -31.22999999999999 V-19.72999999999999 H104.625 Z M90.5 -19.72999999999999 V-26.47999999999999 Q90.5 -31.47999999999999 87.56500000000001 -33.97999999999999 Q84.625 -36.47999999999999 80.5 -36.47999999999999 H75.5 Q75.5 -36.47999999999999 75.375 -36.47999999999999 Q75.25 -36.47999999999999 75.25 -36.47999999999999 L54.25 -57.47999999999999 Q54.25 -57.47999999999999 54.25 -57.669999999999995 Q54.25 -57.85499999999999 54.25 -57.85499999999999 Q55.375 -65.35499999999999 60.75 -69.47999999999999 Q66.125 -73.60499999999999 72.5 -73.60499999999999 V-64.47999999999999 Q68.5 -64.47999999999999 65.875 -61.47999999999999 Q63.25 -58.47999999999999 63.25 -54.72999999999999 Q63.25 -50.85499999999999 65.875 -48.29499999999999 Q68.5 -45.72999999999999 72.5 -45.72999999999999 H80.5 Q88.25 -45.72999999999999 93.94 -40.85499999999999 Q99.625 -35.97999999999999 99.625 -28.85499999999999 V-19.72999999999999 H90.5 Z"/></g><g id="Thin-M" transform="matrix(1 0 0 1 802.565 1126)"><path d="M34.875 2.1450000000000102 Q30.0 0.5200000000000102 26.435 0.020000000000010232 Q22.875 -0.47999999999998977 19.0 -0.47999999999998977 H11.0 V-10.72999999999999 H19.0 Q22.875 -10.72999999999999 26.435 -11.22999999999999 Q30.0 -11.72999999999999 34.875 -13.35499999999999 V2.1450000000000102 Z M102.125 16.39500000000001  87.375 1.6450000000000102 H39.875 V-12.85499999999999 H73.0 L8.375 -77.35499999999999 L14.25 -83.22999999999999 L108.125 10.52000000000001 L102.125 16.39500000000001 Z M110.0 -1.6049999999999898  98.75 -12.85499999999999 H111.0 V-1.6049999999999898 H110.0 Z M49.625 -3.1049999999999898 Q50.625 -3.1049999999999898 51.375 -3.8549999999999898 Q52.125 -4.60499999999999 52.125 -5.60499999999999 Q52.125 -6.60499999999999 51.375 -7.35499999999999 Q50.625 -8.10499999999999 49.625 -8.10499999999999 Q48.625 -8.10499999999999 47.875 -7.35499999999999 Q47.125 -6.60499999999999 47.125 -5.60499999999999 Q47.125 -4.60499999999999 47.875 -3.8549999999999898 Q48.625 -3.1049999999999898 49.625 -3.1049999999999898 Z M103.25 -19.72999999999999 V-31.35499999999999 Q103.25 -39.72999999999999 97.44 -45.85499999999999 Q91.625 -51.97999999999999 83.0 -51.97999999999999 V-59.60499999999999 Q86.875 -59.60499999999999 89.625 -62.41999999999999 Q92.375 -65.22999999999999 92.375 -68.97999999999999 Q92.375 -72.85499999999999 89.625 -75.60499999999999 Q86.875 -78.35499999999999 83.0 -78.35499999999999 V-85.97999999999999 Q90.875 -85.97999999999999 95.435 -80.85499999999999 Q100.0 -75.72999999999999 100.0 -68.97999999999999 Q100.0 -65.47999999999999 98.75 -62.41999999999999 Q97.5 -59.35499999999999 95.125 -56.60499999999999 Q101.875 -53.60499999999999 106.44 -46.60499999999999 Q111.0 -39.60499999999999 111.0 -31.22999999999999 V-19.72999999999999 H103.25 Z M90.625 -19.72999999999999 V-26.47999999999999 Q90.625 -31.35499999999999 87.69 -33.91999999999999 Q84.75 -36.47999999999999 80.75 -36.47999999999999 H75.625 Q75.625 -36.47999999999999 75.44 -36.47999999999999 Q75.25 -36.47999999999999 75.25 -36.47999999999999 L56.0 -55.72999999999999 Q56.0 -55.72999999999999 56.0 -56.10499999999999 Q56.0 -56.47999999999999 56.0 -56.47999999999999 Q57.125 -63.35499999999999 62.125 -66.97999999999999 Q67.125 -70.60499999999999 72.625 -70.60499999999999 V-62.85499999999999 Q68.75 -62.85499999999999 66.065 -59.91999999999999 Q63.375 -56.97999999999999 63.375 -53.10499999999999 Q63.375 -49.35499999999999 66.065 -46.85499999999999 Q68.75 -44.35499999999999 72.625 -44.35499999999999 H80.75 Q88.0 -44.35499999999999 93.125 -39.60499999999999 Q98.25 -34.85499999999999 98.25 -28.10499999999999 V-19.72999999999999 H90.625 Z"/></g><g id="Ultralight-M" transform="matrix(1 0 0 1 506.415 1126)"><path d="M35.75 1.5200000000000102 Q30.875 0.020000000000010232 27.75 -0.4199999999999875 Q24.625 -0.8549999999999898 21.125 -0.8549999999999898 H13.25 V-10.35499999999999 H21.125 Q24.625 -10.35499999999999 27.75 -10.789999999999978 Q30.875 -11.22999999999999 35.75 -12.72999999999999 V1.5200000000000102 Z M103.25 15.39500000000001  88.875 1.0200000000000102 H40.75 V-12.22999999999999 H75.625 L9.375 -78.47999999999999 L14.25 -83.22999999999999 L108.125 10.52000000000001 L103.25 15.39500000000001 Z M108.5 -3.1049999999999898  99.375 -12.22999999999999 H109.25 V-3.1049999999999898 H108.5 Z M49.625 -3.1049999999999898 Q50.625 -3.1049999999999898 51.375 -3.8549999999999898 Q52.125 -4.60499999999999 52.125 -5.60499999999999 Q52.125 -6.60499999999999 51.375 -7.35499999999999 Q50.625 -8.10499999999999 49.625 -8.10499999999999 Q48.625 -8.10499999999999 47.875 -7.35499999999999 Q47.125 -6.60499999999999 47.125 -5.60499999999999 Q47.125 -4.60499999999999 47.875 -3.8549999999999898 Q48.625 -3.1049999999999898 49.625 -3.1049999999999898 Z M102.5 -19.72999999999999 V-31.35499999999999 Q102.5 -39.72999999999999 96.685 -45.60499999999999 Q90.875 -51.47999999999999 82.25 -51.47999999999999 V-58.22999999999999 Q86.125 -58.22999999999999 88.81500000000001 -61.04499999999999 Q91.5 -63.85499999999999 91.5 -67.47999999999999 Q91.5 -71.35499999999999 88.81500000000001 -74.16999999999999 Q86.125 -76.97999999999999 82.25 -76.97999999999999 V-83.72999999999999 Q89.75 -83.72999999999999 94.0 -78.79499999999999 Q98.25 -73.85499999999999 98.25 -67.47999999999999 Q98.25 -63.97999999999999 96.94000000000001 -61.03999999999999 Q95.625 -58.10499999999999 93.25 -55.60499999999999 Q99.875 -52.97999999999999 104.565 -46.29499999999999 Q109.25 -39.60499999999999 109.25 -31.22999999999999 V-19.72999999999999 H102.5 Z M90.75 -19.72999999999999 V-26.47999999999999 Q90.75 -31.35499999999999 87.75 -33.91999999999999 Q84.75 -36.47999999999999 80.875 -36.47999999999999 H75.75 Q75.75 -36.47999999999999 75.5 -36.47999999999999 Q75.25 -36.47999999999999 75.25 -36.47999999999999 L57.0 -54.72999999999999 Q57.0 -54.72999999999999 57.0 -55.22999999999999 Q57.0 -55.72999999999999 57.0 -55.72999999999999 Q58.125 -62.22999999999999 62.875 -65.47999999999999 Q67.625 -68.72999999999999 72.75 -68.72999999999999 V-61.97999999999999 Q68.875 -61.97999999999999 66.19 -58.97999999999999 Q63.5 -55.97999999999999 63.5 -52.22999999999999 Q63.5 -48.47999999999999 66.19 -45.97999999999999 Q68.875 -43.47999999999999 72.75 -43.47999999999999 H80.875 Q87.875 -43.47999999999999 92.69 -38.79499999999999 Q97.5 -34.10499999999999 97.5 -27.72999999999999 V-19.72999999999999 H90.75 Z"/></g><g id="Bold-S" transform="matrix(1 0 0 1 2294.23 696)"><path d="M25.147008 -7.218921999999992 Q21.695922 -7.910085999999993 18.145422 -8.208327999999995 Q14.594922 -8.501835999999983 11.044422 -8.501835999999983 H3.649914 V-19.645671999999998 H11.044422 Q14.594922 -19.645671999999998 18.145422 -19.991253999999998 Q21.695922 -20.33683599999999 25.147008 -21.02799999999999 V-7.218921999999992 Z M74.659914 5.009  62.332578 -7.318335999999988 H31.36275 V-20.829171999999993 H48.817007999999994 L7.101 -62.649328 L14.003172000000001 -69.352672 L81.562086 -1.8931719999999927 L74.659914 5.009 Z M85.903164 -7.318335999999988  72.39232799999999 -20.829171999999993 H90.338922 V-7.318335999999988 H85.903164 Z M40.239 -11.659413999999998 Q41.323085999999996 -11.659413999999998 41.96691 -12.39791799999999 Q42.606 -13.136421999999996 42.606 -14.125827999999998 Q42.606 -15.209913999999998 41.914835999999994 -15.849003999999994 Q41.223672 -16.49282799999999 40.239 -16.49282799999999 Q39.254328 -16.49282799999999 38.511089999999996 -15.801664000000002 Q37.772586 -15.110499999999988 37.772586 -14.125827999999998 Q37.772586 -13.136421999999996 38.511089999999996 -12.39791799999999 Q39.254328 -11.659413999999998 40.239 -11.659413999999998 Z M83.043828 -25.563171999999994 V-32.86299999999999 Q83.043828 -39.76517199999999 78.15834000000001 -44.844753999999995 Q73.277586 -49.924336 66.375414 -49.924336 V-57.12474999999999 Q69.23475 -57.12474999999999 71.402922 -59.29292199999999 Q73.575828 -61.46582799999999 73.575828 -64.325164 Q73.575828 -67.18449999999999 71.402922 -69.30533199999999 Q69.23475 -71.426164 66.375414 -71.426164 V-78.72599199999999 Q72.487008 -78.72599199999999 76.681332 -74.432254 Q80.870922 -70.14325 80.870922 -64.325164 Q80.870922 -61.16758599999999 79.687422 -58.60175799999999 Q78.50392199999999 -56.04066399999999 76.33575 -54.26541399999999 Q82.64617199999999 -52.49016399999999 86.49491400000001 -46.02825399999999 Q90.338922 -39.57107799999999 90.338922 -32.86299999999999 V-25.563171999999994 H83.043828 Z M71.109414 -25.563171999999994 V-32.66417199999999 Q71.109414 -35.72233599999999 69.035922 -37.64433999999999 Q66.967164 -39.57107799999999 63.909 -39.57107799999999 H60.064992000000004 Q57.598577999999996 -39.57107799999999 55.57716 -40.456335999999986 Q53.551007999999996 -41.34632799999999 51.875172 -43.022164 L48.324672 -46.572663999999996 Q46.648835999999996 -48.24849999999999 45.763578 -50.36933199999999 Q44.873585999999996 -52.49016399999999 44.873585999999996 -54.95657799999999 Q45.266507999999995 -60.774663999999994 49.413492000000005 -64.571332 Q53.551007999999996 -68.368 59.075585999999994 -68.368 H61.442586 V-61.16758599999999 H59.075585999999994 Q56.116836 -61.16758599999999 54.048078 -58.800585999999996 Q51.974585999999995 -56.43358599999999 51.974585999999995 -53.474835999999996 Q51.974585999999995 -50.516085999999994 54.048078 -48.79290999999999 Q56.116836 -47.06499999999999 59.075585999999994 -47.06499999999999 H64.008414 Q69.925914 -47.06499999999999 74.115504 -43.022164 Q78.30982800000001 -38.979327999999995 78.30982800000001 -33.15650799999999 V-25.563171999999994 H71.109414 Z"/></g><g id="Semibold-S" transform="matrix(1 0 0 1 1998.1 696)"><path d="M25.44525 -7.61657799999999 Q21.994163999999998 -8.402421999999987 18.491004 -8.748003999999995 Q14.992578 -9.093585999999988 11.442077999999999 -9.093585999999988 H3.844008 V-19.550991999999994 H11.442077999999999 Q14.992578 -19.550991999999994 18.491004 -19.891839999999995 Q21.994163999999998 -20.237421999999995 25.44525 -21.02799999999999 V-7.61657799999999 Z M75.052836 5.009  62.233164 -7.910085999999993 H31.064508 V-20.734491999999996 H49.314078 L7.101 -63.042249999999996 L14.003172000000001 -69.750328 L81.955008 -1.8931719999999927 L75.052836 5.009 Z M85.903164 -7.910085999999993  72.984078 -20.734491999999996 H90.43833599999999 V-7.910085999999993 H85.903164 Z M40.239 -12.251164000000003 Q41.223672 -12.251164000000003 41.768082 -12.890253999999999 Q42.312492000000006 -13.534077999999994 42.312492000000006 -14.319921999999991 Q42.312492000000006 -15.209913999999998 41.716007999999995 -15.801664000000002 Q41.128992000000004 -16.393413999999993 40.239 -16.393413999999993 Q39.448422 -16.393413999999993 38.809332000000005 -15.801664000000002 Q38.165507999999996 -15.209913999999998 38.165507999999996 -14.319921999999991 Q38.165507999999996 -13.434663999999998 38.809332000000005 -12.842913999999993 Q39.448422 -12.251164000000003 40.239 -12.251164000000003 Z M83.138508 -25.468491999999998 V-32.76358599999999 Q83.138508 -39.76517199999999 78.25775399999999 -45.043581999999994 Q73.377 -50.321991999999995 66.375414 -50.321991999999995 V-57.51767199999999 Q69.334164 -57.51767199999999 71.502336 -59.69057799999999 Q73.670508 -61.85874999999999 73.670508 -64.8175 Q73.670508 -67.676836 71.502336 -69.79766799999999 Q69.334164 -71.9185 66.375414 -71.9185 V-79.218328 Q72.685836 -79.218328 76.828086 -74.92459 Q80.97033599999999 -70.63558599999999 80.97033599999999 -64.8175 Q80.97033599999999 -61.85874999999999 79.93359000000001 -59.29292199999999 Q78.901578 -56.73182799999999 76.828086 -54.65833599999999 Q83.043828 -52.39075 86.741082 -45.928839999999994 Q90.43833599999999 -39.471664 90.43833599999999 -32.76358599999999 V-25.468491999999998 H83.138508 Z M71.109414 -25.468491999999998 V-32.66417199999999 Q71.109414 -35.72233599999999 69.087996 -37.64433999999999 Q67.06657799999999 -39.57107799999999 63.909 -39.57107799999999 H60.652007999999995 Q58.190328 -39.57107799999999 56.116836 -40.456335999999986 Q54.048078 -41.34632799999999 52.367507999999994 -43.022164 L48.324672 -47.164413999999994 Q46.648835999999996 -48.84024999999999 45.763578 -50.90900799999999 Q44.873585999999996 -52.982499999999995 44.873585999999996 -55.44891399999999 Q45.46533599999999 -61.266999999999996 49.607586 -64.86483999999999 Q53.749835999999995 -68.46741399999999 59.075585999999994 -68.46741399999999 H61.442586 V-61.16758599999999 H59.075585999999994 Q56.017422 -61.16758599999999 53.996004 -58.800585999999996 Q51.974585999999995 -56.43358599999999 51.974585999999995 -53.474835999999996 Q51.974585999999995 -50.516085999999994 53.996004 -48.79290999999999 Q56.017422 -47.06499999999999 59.075585999999994 -47.06499999999999 H64.008414 Q69.8265 -47.06499999999999 74.115504 -43.12157799999999 Q78.404508 -39.173421999999995 78.404508 -33.35533599999999 V-25.468491999999998 H71.109414 Z"/></g><g id="Medium-S" transform="matrix(1 0 0 1 1701.85 696)"><path d="M25.644078 -8.009499999999989 Q22.192992 -8.800078 18.737172 -9.145659999999992 Q15.286086000000001 -9.486507999999986 11.735586 -9.486507999999986 H4.042836 V-19.45157799999999 H11.735586 Q15.286086000000001 -19.45157799999999 18.737172 -19.79715999999999 Q22.192992 -20.138007999999992 25.644078 -21.02799999999999 V-8.009499999999989 Z M75.351078 4.9095860000000044  62.13375 -8.303007999999991 H30.771 V-20.635077999999993 H49.707 L7.200413999999999 -63.34049199999999 L14.102586 -70.14325 L82.25325 -1.9925859999999886 L75.351078 4.9095860000000044 Z M85.80375 -8.303007999999991  73.476414 -20.635077999999993 H90.53775 V-8.303007999999991 H85.80375 Z M40.338414 -12.644085999999987 Q41.128992000000004 -12.644085999999987 41.621328 -13.188495999999986 Q42.11366400000001 -13.728172 42.11366400000001 -14.518749999999997 Q42.11366400000001 -15.309327999999994 41.569254 -15.801664000000002 Q41.029578 -16.293999999999997 40.338414 -16.293999999999997 Q39.547836 -16.293999999999997 39.008160000000004 -15.749589999999998 Q38.46375 -15.209913999999998 38.46375 -14.518749999999997 Q38.46375 -13.728172 39.008160000000004 -13.188495999999986 Q39.547836 -12.644085999999987 40.338414 -12.644085999999987 Z M83.237922 -25.369077999999995 V-32.76358599999999 Q83.237922 -39.76517199999999 78.30982800000001 -45.190335999999995 Q73.377 -50.6155 66.474828 -50.6155 V-57.91532799999999 Q69.433578 -57.91532799999999 71.60175 -60.036159999999995 Q73.769922 -62.15699199999999 73.769922 -65.111008 Q73.769922 -68.07449199999999 71.60175 -70.14325 Q69.433578 -72.212008 66.474828 -72.212008 V-79.51183599999999 Q72.884664 -79.51183599999999 76.97484 -75.27017199999999 Q81.06975 -71.02850799999999 81.06975 -65.111008 Q81.06975 -62.45049999999999 80.08507800000001 -59.884671999999995 Q79.095672 -57.323578 77.22100800000001 -55.05599199999999 Q83.43675 -52.291335999999994 86.98725 -45.83416 Q90.53775 -39.372249999999994 90.53775 -32.66417199999999 V-25.369077999999995 H83.237922 Z M71.208828 -25.369077999999995 V-32.66417199999999 Q71.208828 -35.821749999999994 69.18741 -37.696414 Q67.165992 -39.57107799999999 64.008414 -39.57107799999999 H61.04966400000001 Q58.58325 -39.57107799999999 56.514492000000004 -40.456335999999986 Q54.441 -41.34632799999999 52.765164000000006 -43.022164 L48.229992 -47.55733599999999 Q46.549422 -49.233171999999996 45.66416400000001 -51.306664 Q44.774172 -53.37542199999999 44.774172 -55.841835999999994 Q45.56475 -61.659921999999995 49.75434 -65.111008 Q53.948664 -68.56682799999999 58.976172 -68.56682799999999 H61.343172 V-61.266999999999996 H58.976172 Q55.918008 -61.266999999999996 53.896589999999996 -58.800585999999996 Q51.875172 -56.334171999999995 51.875172 -53.37542199999999 Q51.875172 -50.41667199999999 53.896589999999996 -48.740835999999994 Q55.918008 -47.06499999999999 59.075585999999994 -47.06499999999999 H64.008414 Q69.8265 -47.06499999999999 74.167578 -43.16891799999999 Q78.50392199999999 -39.27283599999999 78.50392199999999 -33.554164 V-25.369077999999995 H71.208828 Z"/></g><g id="Regular-S" transform="matrix(1 0 0 1 1405.73 696)"><path d="M25.838172 -8.208327999999995 Q22.387086 -9.093585999999988 18.936 -9.439167999999995 Q15.484914 -9.784749999999988 11.934414 -9.784749999999988 H4.14225 V-19.45157799999999 H11.934414 Q15.484914 -19.45157799999999 18.936 -19.79715999999999 Q22.387086 -20.138007999999992 25.838172 -21.02799999999999 V-8.208327999999995 Z M75.545172 4.9095860000000044  62.034335999999996 -8.601249999999993 H30.572172000000002 V-20.635077999999993 H50.000507999999996 L7.200413999999999 -63.53458599999999 L14.102586 -70.34207799999999 L82.452078 -1.9925859999999886 L75.545172 4.9095860000000044 Z M85.80375 -8.601249999999993  73.769922 -20.635077999999993 H90.53775 V-8.601249999999993 H85.80375 Z M40.338414 -12.94232799999999 Q41.029578 -12.94232799999999 41.521914 -13.434663999999998 Q42.01425 -13.926999999999992 42.01425 -14.618163999999993 Q42.01425 -15.309327999999994 41.521914 -15.801664000000002 Q41.029578 -16.293999999999997 40.338414 -16.293999999999997 Q39.64725 -16.293999999999997 39.154914000000005 -15.801664000000002 Q38.662577999999996 -15.309327999999994 38.662577999999996 -14.618163999999993 Q38.662577999999996 -13.926999999999992 39.154914000000005 -13.434663999999998 Q39.64725 -12.94232799999999 40.338414 -12.94232799999999 Z M83.237922 -25.369077999999995 V-32.76358599999999 Q83.237922 -39.76517199999999 78.357168 -45.28974999999999 Q73.476414 -50.81432799999999 66.474828 -50.81432799999999 V-58.109421999999995 Q69.433578 -58.109421999999995 71.60175 -60.28232799999999 Q73.769922 -62.45049999999999 73.769922 -65.40924999999999 Q73.769922 -68.368 71.60175 -70.441492 Q69.433578 -72.51025 66.474828 -72.51025 V-79.81007799999999 Q72.984078 -79.81007799999999 77.026914 -75.51634 Q81.06975 -71.227336 81.06975 -65.40924999999999 Q81.06975 -62.84342199999999 80.18449199999999 -60.32966799999999 Q79.2945 -57.81591399999999 77.51925 -55.250085999999996 Q83.63557800000001 -52.19192199999999 87.086664 -45.78208599999999 Q90.53775 -39.372249999999994 90.53775 -32.66417199999999 V-25.369077999999995 H83.237922 Z M71.208828 -25.369077999999995 V-32.66417199999999 Q71.208828 -35.821749999999994 69.18741 -37.696414 Q67.165992 -39.57107799999999 64.008414 -39.57107799999999 H61.343172 Q58.881492 -39.57107799999999 56.808 -40.456335999999986 Q54.734508 -41.34632799999999 53.058672 -43.022164 L48.229992 -47.855577999999994 Q46.549422 -49.53141399999999 45.66416400000001 -51.60017199999999 Q44.774172 -53.67366399999999 44.774172 -56.14007799999999 Q45.66416400000001 -61.958164 49.853754 -65.262496 Q54.048078 -68.56682799999999 58.976172 -68.56682799999999 H61.343172 V-61.266999999999996 H58.976172 Q55.918008 -61.266999999999996 53.896589999999996 -58.800585999999996 Q51.875172 -56.334171999999995 51.875172 -53.37542199999999 Q51.875172 -50.41667199999999 53.896589999999996 -48.740835999999994 Q55.918008 -47.06499999999999 58.976172 -47.06499999999999 H64.008414 Q69.8265 -47.06499999999999 74.167578 -43.220991999999995 Q78.50392199999999 -39.372249999999994 78.50392199999999 -33.653577999999996 V-25.369077999999995 H71.208828 Z"/></g><g id="Light-S" transform="matrix(1 0 0 1 1109.75 696)"><path d="M27.021672000000002 -8.994171999999992 Q23.570586 -9.784749999999988 20.66391 -10.08299199999999 Q17.7525 -10.376499999999993 14.694336 -10.376499999999993 H7.200413999999999 V-18.859827999999993 H14.694336 Q17.7525 -18.859827999999993 20.66391 -19.15333599999999 Q23.570586 -19.45157799999999 27.021672000000002 -20.237421999999995 V-8.994171999999992 Z M76.9275 3.5319920000000025  64.008414 -9.39182799999999 H31.755672 V-19.844499999999996 H53.551007999999996 L8.578008 -64.91691399999999 L14.102586 -70.34207799999999 L82.452078 -1.9925859999999886 L76.9275 3.5319920000000025 Z M83.82967199999999 -10.575327999999999  74.5605 -19.844499999999996 H88.27016400000001 V-10.575327999999999 H83.82967199999999 Z M40.338414 -12.94232799999999 Q41.029578 -12.94232799999999 41.521914 -13.434663999999998 Q42.01425 -13.926999999999992 42.01425 -14.618163999999993 Q42.01425 -15.309327999999994 41.521914 -15.801664000000002 Q41.029578 -16.293999999999997 40.338414 -16.293999999999997 Q39.64725 -16.293999999999997 39.154914000000005 -15.801664000000002 Q38.662577999999996 -15.309327999999994 38.662577999999996 -14.618163999999993 Q38.662577999999996 -13.926999999999992 39.154914000000005 -13.434663999999998 Q39.64725 -12.94232799999999 40.338414 -12.94232799999999 Z M82.153836 -25.369077999999995 V-32.76358599999999 Q82.153836 -39.76517199999999 77.273082 -44.991507999999996 Q72.39232799999999 -50.22257799999999 65.386008 -50.22257799999999 V-56.334171999999995 Q68.349492 -56.334171999999995 70.46558999999999 -58.45500399999999 Q72.586422 -60.575835999999995 72.586422 -63.53458599999999 Q72.586422 -66.493336 70.46558999999999 -68.61416799999999 Q68.349492 -70.73499999999999 65.386008 -70.73499999999999 V-76.751914 Q71.502336 -76.751914 75.10491 -72.80375799999999 Q78.70275 -68.86033599999999 78.70275 -63.53458599999999 Q78.70275 -60.97349199999999 77.765418 -58.60649199999999 Q76.828086 -56.23949199999999 75.052836 -53.96717199999999 Q80.97033599999999 -51.406077999999994 84.62025 -45.389163999999994 Q88.27016400000001 -39.372249999999994 88.27016400000001 -32.66417199999999 V-25.369077999999995 H82.153836 Z M71.402922 -25.369077999999995 V-32.66417199999999 Q71.402922 -35.72233599999999 69.334164 -37.64433999999999 Q67.260672 -39.57107799999999 64.202508 -39.57107799999999 H61.542 Q59.075585999999994 -39.57107799999999 56.907414 -40.456335999999986 Q54.734508 -41.34632799999999 53.058672 -43.022164 L49.607586 -46.47324999999999 Q47.93175 -48.149086 47.046492 -50.36933199999999 Q46.1565 -52.58957799999999 46.1565 -55.05599199999999 Q47.046492 -60.37700799999999 50.8905 -63.24107799999999 Q54.734508 -66.100414 59.175 -66.100414 H61.542 V-60.083499999999994 H59.175 Q56.116836 -60.083499999999994 54.095417999999995 -57.569745999999995 Q52.074 -55.05599199999999 52.074 -52.19192199999999 Q52.074 -49.233171999999996 54.095417999999995 -47.55733599999999 Q56.116836 -45.881499999999996 59.175 -45.881499999999996 H64.202508 Q69.627672 -45.881499999999996 73.523754 -42.132172 Q77.41983599999999 -38.38757799999999 77.41983599999999 -33.15650799999999 V-25.369077999999995 H71.402922 Z"/></g><g id="Thin-S" transform="matrix(1 0 0 1 814.015 696)"><path d="M28.304586 -9.685335999999992 Q24.8535 -10.575327999999999 22.43916 -10.769421999999992 Q20.020086 -10.968249999999998 17.359578 -10.968249999999998 H10.258578 V-18.26807799999999 H17.359578 Q20.020086 -18.26807799999999 22.43916 -18.462171999999995 Q24.8535 -18.660999999999994 28.304586 -19.550991999999994 V-9.685335999999992 Z M78.30982800000001 2.1496640000000156  66.077172 -10.08299199999999 H33.038586 V-19.15333599999999 H57.101507999999995 L9.960336 -66.294508 L14.102586 -70.34207799999999 L82.551492 -1.9925859999999886 L78.30982800000001 2.1496640000000156 Z M81.760914 -12.644085999999987  75.251664 -19.15333599999999 H86.00257800000001 V-12.644085999999987 H81.760914 Z M40.338414 -12.94232799999999 Q41.029578 -12.94232799999999 41.521914 -13.434663999999998 Q42.01425 -13.926999999999992 42.01425 -14.618163999999993 Q42.01425 -15.309327999999994 41.521914 -15.801664000000002 Q41.029578 -16.293999999999997 40.338414 -16.293999999999997 Q39.64725 -16.293999999999997 39.154914000000005 -15.801664000000002 Q38.662577999999996 -15.309327999999994 38.662577999999996 -14.618163999999993 Q38.662577999999996 -13.926999999999992 39.154914000000005 -13.434663999999998 Q39.64725 -12.94232799999999 40.338414 -12.94232799999999 Z M81.06975 -25.369077999999995 V-32.86299999999999 Q81.06975 -39.670491999999996 76.188996 -44.650659999999995 Q71.303508 -49.630827999999994 64.301922 -49.630827999999994 V-54.459508 Q67.360086 -54.459508 69.433578 -56.632414 Q71.502336 -58.800585999999996 71.502336 -61.560508 Q71.502336 -64.61867199999999 69.433578 -66.739504 Q67.360086 -68.86033599999999 64.301922 -68.86033599999999 V-73.69375 Q69.925914 -73.69375 73.130832 -70.043836 Q76.33575 -66.39392199999999 76.33575 -61.659921999999995 Q76.33575 -59.098828 75.39841799999999 -56.82650799999999 Q74.461086 -54.558921999999995 72.685836 -52.58957799999999 Q78.30982800000001 -50.516085999999994 82.153836 -44.94416799999999 Q86.00257800000001 -39.372249999999994 86.00257800000001 -32.66417199999999 V-25.369077999999995 H81.06975 Z M71.502336 -25.369077999999995 V-32.66417199999999 Q71.502336 -35.622921999999996 69.433578 -37.596999999999994 Q67.360086 -39.57107799999999 64.401336 -39.57107799999999 H61.641414000000005 Q59.175 -39.57107799999999 56.954754 -40.456335999999986 Q54.734508 -41.34632799999999 53.058672 -43.022164 L50.989914000000006 -45.09092199999999 Q49.314078 -46.771491999999995 48.424085999999996 -49.13849199999999 Q47.538828 -51.50549199999999 47.538828 -53.96717199999999 Q48.424085999999996 -58.89999999999999 51.927246 -61.31433999999999 Q55.425672 -63.733413999999996 59.274414 -63.733413999999996 H61.641414000000005 V-58.800585999999996 H59.274414 Q56.315664000000005 -58.800585999999996 54.242172000000004 -56.334171999999995 Q52.173414 -53.872491999999994 52.173414 -50.90900799999999 Q52.173414 -48.049671999999994 54.242172000000004 -46.425909999999995 Q56.315664000000005 -44.797413999999996 59.274414 -44.797413999999996 H64.401336 Q69.433578 -44.797413999999996 72.884664 -41.147499999999994 Q76.33575 -37.49758599999999 76.33575 -32.569492 V-25.369077999999995 H71.502336 Z"/></g><g id="Ultralight-S" transform="matrix(1 0 0 1 517.792 696)"><path d="M28.99575 -10.177672000000001 Q25.544664 -10.968249999999998 23.471172 -11.115003999999999 Q21.402414 -11.266492 19.035414 -11.266492 H12.033828 V-17.969835999999987 H19.035414 Q21.402414 -17.969835999999987 23.471172 -18.116589999999988 Q25.544664 -18.26807799999999 28.99575 -19.053921999999993 V-10.177672000000001 Z M79.19508599999999 1.359086000000005  67.260672 -10.575327999999999 H33.72975 V-18.660999999999994 H59.175 L10.750914 -67.18449999999999 L14.102586 -70.34207799999999 L82.551492 -1.9925859999999886 L79.19508599999999 1.359086000000005 Z M80.577414 -13.827585999999997  75.744 -18.660999999999994 H84.62025 V-13.827585999999997 H80.577414 Z M40.338414 -12.94232799999999 Q41.029578 -12.94232799999999 41.521914 -13.434663999999998 Q42.01425 -13.926999999999992 42.01425 -14.618163999999993 Q42.01425 -15.309327999999994 41.521914 -15.801664000000002 Q41.029578 -16.293999999999997 40.338414 -16.293999999999997 Q39.64725 -16.293999999999997 39.154914000000005 -15.801664000000002 Q38.662577999999996 -15.309327999999994 38.662577999999996 -14.618163999999993 Q38.662577999999996 -13.926999999999992 39.154914000000005 -13.434663999999998 Q39.64725 -12.94232799999999 40.338414 -12.94232799999999 Z M80.478 -25.369077999999995 V-32.86299999999999 Q80.478 -39.670491999999996 75.597246 -44.451831999999996 Q70.716492 -49.233171999999996 63.710172 -49.233171999999996 V-53.37542199999999 Q66.668922 -53.37542199999999 68.742414 -55.54832799999999 Q70.811172 -57.716499999999996 70.811172 -60.47642199999999 Q70.811172 -63.435171999999994 68.742414 -65.60807799999999 Q66.668922 -67.77624999999999 63.710172 -67.77624999999999 V-71.9185 Q69.035922 -71.9185 71.994672 -68.41533999999999 Q74.953422 -64.91691399999999 74.953422 -60.47642199999999 Q74.953422 -57.91532799999999 73.96875 -55.794495999999995 Q72.984078 -53.67366399999999 71.208828 -51.79899999999999 Q76.72867199999999 -50.02374999999999 80.676828 -44.69799999999999 Q84.62025 -39.372249999999994 84.62025 -32.66417199999999 V-25.369077999999995 H80.478 Z M71.60175 -25.369077999999995 V-32.66417199999999 Q71.60175 -35.622921999999996 69.480918 -37.596999999999994 Q67.360086 -39.57107799999999 64.50075 -39.57107799999999 H61.740828 Q59.274414 -39.57107799999999 57.006828 -40.456335999999986 Q54.734508 -41.34632799999999 53.058672 -43.022164 L51.780492 -44.305077999999995 Q50.099922 -45.98091399999999 49.214664000000006 -48.44732799999999 Q48.324672 -50.90900799999999 48.324672 -53.37542199999999 Q49.214664000000006 -57.91532799999999 52.56633599999999 -60.083499999999994 Q55.918008 -62.251672 59.373827999999996 -62.251672 H61.740828 V-58.109421999999995 H59.373827999999996 Q56.415078 -58.109421999999995 54.341586 -55.59566799999999 Q52.272828 -53.081914 52.272828 -50.22257799999999 Q52.272828 -47.35850799999999 54.341586 -45.734745999999994 Q56.415078 -44.106249999999996 59.373827999999996 -44.106249999999996 H64.50075 Q69.334164 -44.106249999999996 72.53908200000001 -40.50841 Q75.744 -36.90583599999999 75.744 -32.271249999999995 V-25.369077999999995 H71.60175 Z"/></g></g></svg>