<svg xmlns="http://www.w3.org/2000/svg" height="40" viewBox="0 -960 960 960" width="40"><path d="M295.573-116.913v-72.42h148.384v-133.872q-52.327-10.976-92.994-44.575-40.668-33.599-57.854-84.01-77.696-5.623-131.569-60.043-53.874-54.42-53.874-131.433V-758.58H277.58v-84.667h405v84.667h169.754v115.314q0 77.013-53.874 131.433-53.873 54.42-131.376 60.043-17.316 50.268-57.95 83.913-40.635 33.645-92.757 44.754v133.79h148.384v72.42H295.573Zm-17.993-410.42V-686h-97.334v42.667q0 42.666 27.583 74.5 27.584 31.833 69.751 41.5Zm405 0q42.007-9.667 69.67-41.5 27.664-31.834 27.664-74.5V-686H682.58v158.667Z"/></svg>