<svg xmlns="http://www.w3.org/2000/svg" height="20" width="20"><path d="M9.229 12.479h1.542V7.521H9.229Zm2.271 0h1.292v-1.625h2.041q.334 0 .584-.25.25-.25.25-.604V8.354q0-.333-.24-.583-.239-.25-.615-.25H11.5Zm1.292-2.917v-.75h1.583v.75Zm-8.459 2.917h3.313q.354 0 .604-.25t.25-.604v-1.417q0-.354-.25-.604t-.604-.25H5.625v-.542H8.5V7.521H5.167q-.334 0-.584.25-.25.25-.25.583v1.438q0 .354.24.604.239.25.615.25h2.02v.542H4.333Zm-.771 4.583q-.958 0-1.624-.666-.667-.667-.667-1.625V5.229q0-.958.667-1.625.666-.666 1.624-.666h12.876q.958 0 1.624.666.667.667.667 1.625v9.542q0 .958-.667 1.625-.666.666-1.624.666Z"/></svg>