<svg xmlns="http://www.w3.org/2000/svg" height="40" viewBox="0 -960 960 960" width="40"><path d="M716.55-107.67q45.17 0 77.02-29.15 31.85-29.15 36.76-72.51-2.76.93-7.13 2.46-4.37 1.54-8.37 1.54H781.9q-14.04 0-23.39-9.92-9.34-9.92-9.34-24.6v-14.66h-64v-33.4q0-14.09 8.74-23.04 8.74-8.94 23.02-8.94h16.93q0-4.51.54-8.24.55-3.72 2.6-7.2-5.28-.84-10.23-1.25-4.95-.42-10.24-.42-47.36 0-80.95 33.73Q602-269.55 602-222.33h65.85q26.82 0 46.32 19.49t19.5 46.27v16.4h-48.5v27.62q7.33 2.22 14.91 3.55 7.58 1.33 16.47 1.33ZM480-784q17.13 0 28.57-11.43Q520-806.87 520-824q0-17.13-11.43-28.57Q497.13-864 480-864q-17.13 0-28.57 11.43Q440-841.13 440-824q0 17.13 11.43 28.57Q462.87-784 480-784ZM716.71-35Q639-35 584.17-90.12q-54.84-55.12-54.84-131.5 0-77.05 54.79-132.55 54.79-55.5 132.5-55.5 77.05 0 132.21 55.46Q904-298.76 904-221.71q0 76.38-55.12 131.54Q793.76-35 716.71-35ZM293.33-603.33h373.34v-63.34H293.33v63.34ZM497.83-98h-298.5q-41.96 0-71.65-29.68Q98-157.37 98-199.33v-561.34q0-42.24 29.68-72.12 29.69-29.88 71.65-29.88h166.34q12.5-35.5 43.38-57.41Q439.93-942 479.96-942q40.04 0 70.96 21.92 30.91 21.91 43.41 57.41h166.34q42.24 0 72.12 29.88 29.88 29.88 29.88 72.12v335.5q-33.17-23.83-69.69-35-36.53-11.16-75.67-11.16-13.14 0-25.64 1.25t-25.08 3.91V-512H293.33v63.33h313.01q-31.44 15.59-56.56 38.88-25.11 23.29-42.19 52.46H293.33v63.56h182.84q-6 17.07-8.17 35.82t-2.17 37.7q0 31.09 8.59 63.92Q483-123.5 497.83-98Z"/></svg>