<svg xmlns="http://www.w3.org/2000/svg" height="40" width="40"><path d="M35 18.875 33.792 16.208 31.125 15 33.792 13.792 35 11.125 36.208 13.792 38.875 15 36.208 16.208ZM26.667 26.875 24.5 22.167 19.792 20 24.5 17.833 26.667 13.083 28.833 17.833 33.583 20 28.833 22.167ZM35 28.875 33.792 26.208 31.125 25 33.792 23.792 35 21.125 36.208 23.792 38.875 25 36.208 26.208ZM11.333 39.375Q9.667 39.375 8.5 38.208Q7.333 37.042 7.333 35.375V4.625Q7.333 2.958 8.5 1.792Q9.667 0.625 11.333 0.625H28.667Q30.333 0.625 31.5 1.792Q32.667 2.958 32.667 4.625V10.542H28.667V9H11.333V31H28.667V29.458H32.667V35.375Q32.667 37.042 31.5 38.208Q30.333 39.375 28.667 39.375ZM11.333 34.125V35.375Q11.333 35.375 11.333 35.375Q11.333 35.375 11.333 35.375H28.667Q28.667 35.375 28.667 35.375Q28.667 35.375 28.667 35.375V34.125ZM11.333 5.875H28.667V4.625Q28.667 4.625 28.667 4.625Q28.667 4.625 28.667 4.625H11.333Q11.333 4.625 11.333 4.625Q11.333 4.625 11.333 4.625ZM11.333 4.625Q11.333 4.625 11.333 4.625Q11.333 4.625 11.333 4.625V5.875V4.625Q11.333 4.625 11.333 4.625Q11.333 4.625 11.333 4.625ZM11.333 35.375Q11.333 35.375 11.333 35.375Q11.333 35.375 11.333 35.375V34.125V35.375Q11.333 35.375 11.333 35.375Q11.333 35.375 11.333 35.375Z"/></svg>