<svg xmlns="http://www.w3.org/2000/svg" height="40" viewBox="0 -960 960 960" width="40"><path d="M772.67-220.33H488L382.33-113.67q-31.58 31.34-75.9 31.34-44.32 0-75.1-31.34L114.67-232q-31.34-30.76-31.34-74.55 0-43.78 31.34-75.12L220.33-486v-287l552.34 552.67ZM514.67-327 327-514v70L189.33-307 307-190l136.33-137h71.34Zm-223-485q112-71.67 243.16-57.83Q666-856 760-762q95 95 108.83 225.83 13.84 130.84-56.83 244.5l-60.67-60.66q47-86.67 34-184.67-13-98-81.5-168-69.16-69.33-167.83-82.17-98.67-12.83-184.67 34.84L291.67-812Zm144 144.67q50-18.67 101.33-8.34 51.33 10.34 90 48.67 37.67 38 48 89.5 10.33 51.5-8.33 101.83L571-532q.67-7.36-2.28-14.84-2.95-7.48-8.62-14.22-6.34-6.06-13.39-8.5-7.06-2.44-15.04-1.77l-96-96Zm-84 315.66Z"/></svg>