<svg xmlns="http://www.w3.org/2000/svg" height="24" width="24"><path d="M8.2 21.6q-.35 0-.6-.263-.25-.262-.25-.612v-15.5q0-.35.25-.6t.6-.25h2.025v-.95q0-.35.238-.6.237-.25.612-.25h1.85q.375 0 .613.25.237.25.237.6v.95H15.8q.35 0 .6.25t.25.6v15.5q0 .35-.25.612-.25.263-.6.263Zm3.825-3.975q.325 0 .563-.238.237-.237.237-.587 0-.325-.237-.562Q12.35 16 12 16q-.325 0-.562.238-.238.237-.238.562 0 .35.238.587.237.238.587.238Zm-.025-2.9q.2 0 .388-.163.187-.162.237-.412.25-1.075 1.137-1.613.888-.537.888-1.712 0-1.175-.725-1.85T12 8.3q-.825 0-1.412.375-.588.375-.938.95-.1.2-.012.425.087.225.312.325.2.075.388 0 .187-.075.337-.275.2-.3.525-.5t.8-.2q.825 0 1.175.425.35.425.35.95 0 .525-.287.837-.288.313-.638.638-.35.325-.687.75-.338.425-.438 1.15-.05.225.113.4.162.175.412.175Z"/></svg>