<svg xmlns="http://www.w3.org/2000/svg" height="24" viewBox="0 -960 960 960" width="24"><path d="M480-791q130.231 0 220.616 90.384Q791-610.231 791-480t-90.384 220.616Q610.231-169 480-169t-220.616-90.384Q169-349.769 169-480t90.384-220.616Q349.769-791 480-791Zm.118 547q98.382 0 167.132-68.868Q716-381.735 716-480.118q0-98.382-68.868-167.132Q578.265-716 479.882-716q-98.382 0-167.132 68.868Q244-578.265 244-479.882q0 98.382 68.868 167.132Q381.735-244 480.118-244ZM480-344q46.5 0 83.75-26.75T617-441H343q16 43.5 53.25 70.25T480-344ZM343-558.5q0 16 11.25 27.25T381.5-520q16 0 27.25-11.25T420-558.5q0-16-11.25-27.25T381.5-597q-16 0-27.25 11.25T343-558.5Zm197 0q0 16 11.25 27.25T578.5-520q16 0 27.25-11.25T617-558.5q0-16-11.25-27.25T578.5-597q-16 0-27.25 11.25T540-558.5ZM50-716v-194h194v75H125v119H50Zm0 666v-194h75v119h119v75H50Zm666-1v-75h119v-118h75v193H716Zm119-665v-119H716v-75h194v194h-75ZM480-480Z"/></svg>