<svg xmlns="http://www.w3.org/2000/svg" version="1.1" width="3300" height="2000"><g id="Notes"><style>
    text {
      font-family: monospace;
      text-anchor: middle;
    }
    text.emphasis {
      font-weight:bold;
    }
    text.lanchor {
      text-anchor: start;
    }
  </style><rect height="2200" id="artboard" fill="white" width="3300" x="0" y="0"/><line id="" style="fill:none;stroke:black;stroke-width:0.5;" x1="263" x2="3036" y1="292" y2="292"/><text class="lanchor emphasis" transform="matrix(1 0 0 1 263 322)">Weight/Scale Variations</text><text transform="matrix(1 0 0 1 559.711 322)">Ultralight</text><text transform="matrix(1 0 0 1 856.422 322)">Thin</text><text transform="matrix(1 0 0 1 1153.13 322)">Light</text><text transform="matrix(1 0 0 1 1449.84 322)">Regular</text><text transform="matrix(1 0 0 1 1746.56 322)">Medium</text><text transform="matrix(1 0 0 1 2043.27 322)">Semibold</text><text transform="matrix(1 0 0 1 2339.98 322)">Bold</text><text transform="matrix(1 0 0 1 2636.69 322)">Heavy</text><text transform="matrix(1 0 0 1 2933.4 322)">Black</text><text id="template-version" style="text-anchor: end;" transform="matrix(1 0 0 1 3036 1933)">Template v.1.0</text><text class="lanchor" transform="matrix(1 0 0 1 263 726)">Small</text><text class="lanchor" transform="matrix(1 0 0 1 263 1156)">Medium</text><text class="lanchor" transform="matrix(1 0 0 1 263 1586)">Large</text></g><g id="Guides"><g id="H-reference" style="fill:#27AAE1;stroke:none;" transform="matrix(1 0 0 1 339 696)"><path d="M 54.9316 0 L 57.666 0 L 30.5664 -70.459 L 28.0762 -70.459 L 0.976562 0 L 3.66211 0 L 12.9395 -24.4629 L 45.7031 -24.4629 Z M 29.1992 -67.0898 L 29.4434 -67.0898 L 44.8242 -26.709 L 13.8184 -26.709 Z"/></g><line id="Baseline-S" style="fill:none;stroke:#27AAE1;opacity:1;stroke-width:0.577;" x1="263" x2="3036" y1="696" y2="696"/><line id="Capline-S" style="fill:none;stroke:#27AAE1;opacity:1;stroke-width:0.577;" x1="263" x2="3036" y1="625.541" y2="625.541"/><g id="H-reference" style="fill:#27AAE1;stroke:none;" transform="matrix(1 0 0 1 339 1126)"><path d="M 54.9316 0 L 57.666 0 L 30.5664 -70.459 L 28.0762 -70.459 L 0.976562 0 L 3.66211 0 L 12.9395 -24.4629 L 45.7031 -24.4629 Z M 29.1992 -67.0898 L 29.4434 -67.0898 L 44.8242 -26.709 L 13.8184 -26.709 Z"/></g><line id="Baseline-M" style="fill:none;stroke:#27AAE1;opacity:1;stroke-width:0.577;" x1="263" x2="3036" y1="1126" y2="1126"/><line id="Capline-M" style="fill:none;stroke:#27AAE1;opacity:1;stroke-width:0.577;" x1="263" x2="3036" y1="1055.54" y2="1055.54"/><g id="H-reference" style="fill:#27AAE1;stroke:none;" transform="matrix(1 0 0 1 339 1556)"><path d="M 54.9316 0 L 57.666 0 L 30.5664 -70.459 L 28.0762 -70.459 L 0.976562 0 L 3.66211 0 L 12.9395 -24.4629 L 45.7031 -24.4629 Z M 29.1992 -67.0898 L 29.4434 -67.0898 L 44.8242 -26.709 L 13.8184 -26.709 Z"/></g><line id="Baseline-L" style="fill:none;stroke:#27AAE1;opacity:1;stroke-width:0.577;" x1="263" x2="3036" y1="1556" y2="1556"/><line id="Capline-L" style="fill:none;stroke:#27AAE1;opacity:1;stroke-width:0.577;" x1="263" x2="3036" y1="1485.54" y2="1485.54"/><rect height="119.336" id="left-margin" style="fill:darkred;stroke:none;opacity:0.4;" width="12.4512" x="1394.06" y="1030.79"/><rect height="119.336" id="right-margin" style="fill:darkgreen;stroke:none;opacity:0.4;" width="12.4512" x="1502.5112" y="1030.79"/><rect x="1406.5112" y="1045" width="96" height="96" fill="none" stroke="blue" stroke-dasharray="5"/><rect x="1394.06" y="1030.79" width="120.9024" height="119.336" fill="none" stroke="blue"/></g><g id="Symbols"><g id="Bold-L" transform="matrix(1 0 0 1 2266 1556)"><path d="M29.348 -103.6 H125.614 L100.459 -67.964 V-45.066 H54.503 V-67.964 L29.348 -103.6 Z M54.503 -35.391 H100.459 V-16.364 H54.503 V-35.391 Z M54.503 -6.689 H100.459 V13.79 L77.4 36.688 L54.503 13.871 V-6.689 Z"/></g><g id="Semibold-L" transform="matrix(1 0 0 1 1970.27 1556)"><path d="M33.414 -101.918 H121.478 L98.636 -69.296 V-45.767 H56.255 V-69.296 L33.414 -101.918 Z M56.255 -36.092 H98.636 V-17.065 H56.255 V-36.092 Z M56.255 -7.39 H98.636 V12.318 L77.4 33.463 L56.255 12.398 V-7.39 Z"/></g><g id="Medium-L" transform="matrix(1 0 0 1 1674.31 1556)"><path d="M36.463 -100.655 H118.375 L97.269 -70.295 V-46.293 H57.57 V-70.295 L36.463 -100.655 Z M57.57 -36.618 H97.269 V-17.591 H57.57 V-36.618 Z M57.57 -7.916 H97.269 V11.214 L77.4 31.044 L57.57 11.294 V-7.916 Z"/></g><g id="Regular-L" transform="matrix(1 0 0 1 1378.56 1556)"><path d="M38.7 -99.73 H116.1 L96.266 -71.027 V-46.679 H58.534 V-71.027 L38.7 -99.73 Z M58.534 -37.004 H96.266 V-17.976 H58.534 V-37.004 Z M58.534 -8.301 H96.266 V10.404 L77.4 29.27 L58.534 10.484 V-8.301 Z"/></g><g id="Light-L" transform="matrix(1 0 0 1 1082.77 1556)"><path d="M45.026 -96.505 H109.774 L93.165 -72.454 V-45.438 H61.635 V-72.454 L45.026 -96.505 Z M61.635 -38.12 H93.165 V-17.542 H61.635 V-38.12 Z M61.635 -10.224 H93.165 V8.915 L77.4 24.68 L61.635 8.965 V-10.224 Z"/></g><g id="Thin-L" transform="matrix(1 0 0 1 787.282 1556)"><path d="M51.352 -93.28 H103.448 L90.064 -73.88 V-44.198 H64.736 V-73.88 L51.352 -93.28 Z M64.736 -39.236 H90.064 V-17.108 H64.736 V-39.236 Z M64.736 -12.146 H90.064 V7.427 L77.4 20.091 L64.736 7.445 V-12.146 Z"/></g><g id="Ultralight-L" transform="matrix(1 0 0 1 491.205 1556)"><path d="M55.148 -91.345 H99.653 L88.204 -74.736 V-43.454 H66.596 V-74.736 L55.148 -91.345 Z M66.596 -39.906 H88.204 V-16.847 H66.596 V-39.906 Z M66.596 -13.3 H88.204 V6.534 L77.4 17.338 L66.596 6.534 V-13.3 Z"/></g><g id="Bold-M" transform="matrix(1 0 0 1 2281.8 1126)"><path d="M20.25 -89.23 H99.75 L79.25 -61.105 V-43.48 H40.75 V-61.105 L20.25 -89.23 Z M40.75 -33.48 H79.25 V-23.48 H40.75 V-33.48 Z M40.75 -13.48 H79.25 V3.27 L60 22.395 L40.75 3.27 V-13.48 Z"/></g><g id="Semibold-M" transform="matrix(1 0 0 1 1985.97 1126)"><path d="M24.489 -87.491 H95.511 L77.402 -62.464 V-44.241 H42.598 V-62.464 L24.489 -87.491 Z M42.598 -34.241 H77.402 V-24.241 H42.598 V-34.241 Z M42.598 -14.241 H77.402 V1.748 L60 19.08 L42.598 1.748 V-14.241 Z"/></g><g id="Medium-M" transform="matrix(1 0 0 1 1689.91 1126)"><path d="M27.668 -86.186 H92.332 L76.016 -63.483 V-44.811 H43.984 V-63.483 L27.668 -86.186 Z M43.984 -34.811 H76.016 V-24.811 H43.984 V-34.811 Z M43.984 -14.811 H76.016 V0.607 L60 16.593 L43.984 0.607 V-14.811 Z"/></g><g id="Regular-M" transform="matrix(1 0 0 1 1394.06 1126)"><path d="M30 -85.23 H90 L75 -64.23 V-45.23 H45 V-64.23 L30 -85.23 Z M45 -35.23 H75 V-25.23 H45 V-35.23 Z M45 -15.23 H75 V-0.23 L60 14.77 L45 -0.23 V-15.23 Z"/></g><g id="Light-M" transform="matrix(1 0 0 1 1098.18 1126)"><path d="M34.904 -82.73 H85.096 L72.5 -64.999 V-43.98 H47.5 V-64.999 L34.904 -82.73 Z M47.5 -36.48 H72.5 V-23.98 H47.5 V-36.48 Z M47.5 -16.48 H72.5 V-1.288 L60 11.212 L47.5 -1.288 V-16.48 Z"/></g><g id="Thin-M" transform="matrix(1 0 0 1 802.565 1126)"><path d="M39.808 -80.23 H80.192 L70 -65.768 V-42.73 H50 V-65.768 L39.808 -80.23 Z M50 -37.73 H70 V-22.73 H50 V-37.73 Z M50 -17.73 H70 V-2.345 L60 7.655 L50 -2.345 V-17.73 Z"/></g><g id="Ultralight-M" transform="matrix(1 0 0 1 506.415 1126)"><path d="M42.75 -78.73 H77.25 L68.5 -66.23 V-41.98 H51.5 V-66.23 L42.75 -78.73 Z M51.5 -38.48 H68.5 V-21.98 H51.5 V-38.48 Z M51.5 -18.48 H68.5 V-2.98 L60 5.52 L51.5 -2.98 V-18.48 Z"/></g><g id="Bold-S" transform="matrix(1 0 0 1 2294.23 696)"><path d="M15.977 -76.258 H78.703 L62.528 -51.7 V-38.583 H32.152 V-51.7 L15.977 -76.258 Z M32.152 -31.482 H62.528 V-24.381 H32.152 V-31.482 Z M32.152 -17.28 H62.528 V-6.431 L47.34 8.658 L32.152 -6.431 V-17.28 Z"/></g><g id="Semibold-S" transform="matrix(1 0 0 1 1998.1 696)"><path d="M19.322 -74.886 H75.358 L61.07 -52.772 V-39.184 H33.61 V-52.772 L19.322 -74.886 Z M33.61 -32.083 H61.07 V-24.982 H33.61 V-32.083 Z M33.61 -17.881 H61.07 V-7.632 L47.34 6.043 L33.61 -7.632 V-17.881 Z"/></g><g id="Medium-S" transform="matrix(1 0 0 1 1701.85 696)"><path d="M21.83 -73.857 H72.85 L59.977 -53.576 V-39.634 H34.703 V-53.576 L21.83 -73.857 Z M34.703 -32.533 H59.977 V-25.432 H34.703 V-32.533 Z M34.703 -18.331 H59.977 V-8.533 L47.34 4.081 L34.703 -8.533 V-18.331 Z"/></g><g id="Regular-S" transform="matrix(1 0 0 1 1405.73 696)"><path d="M23.67 -73.102 H71.01 L59.175 -54.166 V-39.964 H35.505 V-54.166 L23.67 -73.102 Z M35.505 -32.863 H59.175 V-25.762 H35.505 V-32.863 Z M35.505 -18.661 H59.175 V-9.193 L47.34 2.642 L35.505 -9.193 V-18.661 Z"/></g><g id="Light-S" transform="matrix(1 0 0 1 1109.75 696)"><path d="M27.539 -71.129 H67.141 L57.202 -54.773 V-38.978 H37.478 V-54.773 L27.539 -71.129 Z M37.478 -33.849 H57.202 V-24.776 H37.478 V-33.849 Z M37.478 -19.647 H57.202 V-10.028 L47.34 -0.165 L37.478 -10.028 V-19.647 Z"/></g><g id="Thin-S" transform="matrix(1 0 0 1 814.015 696)"><path d="M31.408 -69.157 H63.272 L55.23 -55.38 V-37.991 H39.45 V-55.38 L31.408 -69.157 Z M39.45 -34.835 H55.23 V-23.789 H39.45 V-34.835 Z M39.45 -20.633 H55.23 V-10.862 L47.34 -2.972 L39.45 -10.862 V-20.633 Z"/></g><g id="Ultralight-S" transform="matrix(1 0 0 1 517.792 696)"><path d="M33.73 -67.973 H60.95 L54.047 -55.744 V-37.4 H40.634 V-55.744 L33.73 -67.973 Z M40.634 -35.427 H54.047 V-23.198 H40.634 V-35.427 Z M40.634 -21.225 H54.047 V-11.363 L47.34 -4.656 L40.634 -11.363 V-21.225 Z"/></g></g></svg>