<svg xmlns="http://www.w3.org/2000/svg" height="40" width="40"><path d="M19.958 36.292q3.417-3.209 5.334-6.125 1.916-2.917 1.916-4.917 0-3.125-2.125-5.292-2.125-2.166-5.125-2.166t-5.104 2.166q-2.104 2.167-2.104 5.292 0 2 1.917 4.917 1.916 2.916 5.291 6.125Zm-1.041 2.791q-4.5-4-6.729-7.437-2.23-3.438-2.23-6.396 0-4.292 2.917-7.271T19.958 15q4.167 0 7.084 2.979 2.916 2.979 2.916 7.271 0 2.958-2.208 6.396-2.208 3.437-6.708 7.437-.459.375-1.084.375t-1.041-.375Zm1.041-11.875q.959 0 1.604-.646.646-.645.646-1.562t-.646-1.562q-.645-.646-1.604-.646-.916 0-1.562.646-.646.645-.646 1.562t.646 1.562q.646.646 1.562.646ZM20 9.708q-1.375 0-2.688.417-1.312.417-2.395 1.208-.5.375-1.063.355-.562-.021-.937-.438-.417-.417-.396-.979.021-.563.479-.896 1.5-1.208 3.271-1.812 1.771-.605 3.729-.605 1.958 0 3.729.605Q25.5 8.167 27 9.375q.458.333.479.896.021.562-.396.979-.416.417-.979.417-.562 0-1.021-.334-1.083-.791-2.395-1.208-1.313-.417-2.688-.417Zm0-6.666q-2.708 0-5.167.896-2.458.895-4.541 2.604-.459.375-1.063.396-.604.02-1.021-.396-.416-.417-.375-1 .042-.584.542-1 2.458-2.084 5.417-3.167Q16.75.292 20 .292t6.208 1.104q2.959 1.104 5.417 3.187.5.375.542.98.041.604-.375 1.02-.417.417-1 .396-.584-.021-1.042-.396-2.083-1.708-4.583-2.625-2.5-.916-5.167-.916ZM19.958 25Z"/></svg>