<svg xmlns="http://www.w3.org/2000/svg" height="40" viewBox="0 -960 960 960" width="40"><path d="M729.33 0 614.67-114.67V-176L306-484.67q-7 2-14.33 3-7.34 1-13.67 1v-64.66q49.33-.67 108-26.5 58.67-25.84 90-60.17l57.33-62.67q12.34-13.66 28.5-21.5Q578-724 596-724q34 0 58 24t24 58v242q0 28.67-12.17 56.5-12.16 27.83-31.16 40.83L510.67-426v-146.67q-26.67 23-59 41-32.34 18-63 29.67l276 276H726l114.67 114.67L729.33 0ZM210-142.67l-50-50 197.33-196 103.34 103.34H353.33L210-142.67Zm392.67-626.66q-31 0-53.17-22.17t-22.17-53.17q0-31 22.17-53.16Q571.67-920 602.67-920t53.16 22.17Q678-875.67 678-844.67q0 31-22.17 53.17-22.16 22.17-53.16 22.17Z"/></svg>