<svg xmlns="http://www.w3.org/2000/svg" height="48" viewBox="0 -960 960 960" width="48"><path d="M676.96-463v42.5q0 8.5 5.88 14.5t14 6q8.12 0 14.12-6t6-14.5V-463h44.89q7 0 11.5-5.14 4.5-5.15 4.5-12 0-6.86-4.5-11.36-4.5-4.5-11.5-4.5h-44.89v-44q0-8-6-14t-14-6q-8.24 0-14.12 6-5.88 6-5.88 14v44h-47q-7 0-11.5 4.5t-4.5 11.36q0 6.85 5.1 12 5.1 5.14 11.9 5.14h46Zm-156.37 13 78.42 82.84q2.05 2.03 16.54 7.92 15.56 0 21.44-14.56 5.88-14.56-3.64-26.5l-74.76-79.61 74.76-81.85q9.52-10.53 3.76-24.76-5.76-14.24-21.7-14.24-4.77 0-8.88 1.97-4.12 1.96-7.54 5.91L520.71-510v-65.76q0-10.83-7.26-17.92-7.25-7.08-18.04-7.08t-17.81 7.08q-7.01 7.09-7.01 17.92v191.52q0 10.83 7.11 17.92 7.12 7.08 17.88 7.08 10.77 0 17.89-7.08 7.12-7.09 7.12-17.92V-450Zm-170.24 40.76h-95q-10.84 0-17.92 7.21-7.08 7.21-7.08 17.91 0 10.88 7.11 17.88 7.12 7 18 7h112.43q13.88 0 23.55-9.61 9.67-9.6 9.67-23.74v-174.07q0-14.38-9.67-24.24-9.67-9.86-23.55-9.86H255.51q-10.9 0-18.03 7.12-7.13 7.11-7.13 18 0 10.88 7.08 18.13 7.08 7.24 17.92 7.24h95v54.52h-64q-7 0-11.5 4.58t-4.5 11.31q0 6.72 5.1 11.95 5.1 5.22 11.9 5.22h63v53.45Zm-168.2 304.39q-30.74 0-54.02-23.28-23.28-23.28-23.28-54.02v-595.7q0-30.84 23.28-54.19 23.28-23.35 54.02-23.35h595.7q30.84 0 54.19 23.35 23.35 23.35 23.35 54.19v595.7q0 30.74-23.35 54.02-23.35 23.28-54.19 23.28h-595.7Zm0-77.3h595.7v-595.7h-595.7v595.7Zm0-595.7v595.7-595.7Z"/></svg>