<svg xmlns="http://www.w3.org/2000/svg" height="20" viewBox="0 -960 960 960" width="20"><path d="M541-112v-174h97v174h-97Zm0-281v-174h97v174h-97Zm0-281v-174h97v174h-97Zm258 562L685-848h97l114 736h-97Zm-589-4q-5-4-7-8l-4-7.16Q176-174 138.5-202.5T75-270.66Q61-293 53-318q-8-25-8-51 0-73 51.5-124T221-544q72 0 124 50t52 122q0 28-8 53t-23 48q-26 39-63.5 68.5T242-131l-4 7q-3 4-7 8t-10 4q-6 0-11-4Zm62-201q21-21 21-51t-21-51q-21-21-51-21t-51 21q-21 21-21 51t21 51q21 21 51 21t51-21Zm169-172q-16-26-37-47.5T356-574l42-274h97l-54 359Z"/></svg>