<svg xmlns="http://www.w3.org/2000/svg" height="40" width="40"><path d="M18 26H28.5V22.5H21.5V18.958Q21.5 18.958 21.5 18.958Q21.5 18.958 21.5 18.958H25Q26.375 18.958 27.438 17.896Q28.5 16.833 28.5 15.458V11.792Q28.5 10.417 27.438 9.354Q26.375 8.292 25 8.292H18V11.792H25Q25 11.792 25 11.792Q25 11.792 25 11.792V15.458Q25 15.458 25 15.458Q25 15.458 25 15.458H21.5Q20.042 15.458 19.021 16.5Q18 17.542 18 18.958ZM11.917 31.958Q10.5 31.958 9.458 30.896Q8.417 29.833 8.417 28.458V6Q8.417 4.583 9.458 3.542Q10.5 2.5 11.917 2.5H34.375Q35.792 2.5 36.833 3.542Q37.875 4.583 37.875 6V28.458Q37.875 29.833 36.833 30.896Q35.792 31.958 34.375 31.958ZM5.667 38.208Q4.25 38.208 3.208 37.167Q2.167 36.125 2.167 34.708V8.792H5.667V34.708Q5.667 34.708 5.667 34.708Q5.667 34.708 5.667 34.708H31.583V38.208Z"/></svg>