<svg xmlns="http://www.w3.org/2000/svg" height="20" viewBox="0 -960 960 960" width="20"><path d="M480.11-410Q421-410 379.5-451.39T338-551.89q0-59.11 41.39-100.61t100.5-41.5q59.11 0 100.61 41.39t41.5 100.5q0 59.11-41.39 100.61T480.11-410Zm-.11-67q30.5 0 52.75-22.25T555-552q0-30.5-22.25-52.75T480-627q-30.5 0-52.75 22.25T405-552q0 30.5 22.25 52.75T480-477Zm0-1.5Zm0-303.5-236 90.39V-515q0 53.5 15 103.5t42 93q42-19.5 87-29.5t92-10q47 0 92 10t87 29.5q27-43 42-93T716-515v-176.61L480-782Zm0 491q-35.48 0-69.99 6.5T343-264q28.5 30.5 62.75 53.5t74 35q39.75-12 74.25-34.75t62.5-53.25q-32.43-13.77-66.8-20.63Q515.33-291 480-291Zm0 181q-5.58 0-11.22-.5-5.64-.5-10.28-2.5-128-42.5-204.75-155.25T177-515.23V-691.5q0-21.48 11.52-38.26 11.53-16.79 30.98-24.24l236-91q12.25-5 24.5-5t24.5 5l236 91q19.45 7.45 30.98 24.24Q783-712.98 783-691.5v176.27q0 134.23-76.75 246.98T501.5-113q-4.64 2-10.28 2.5T480-110Z"/></svg>