<svg xmlns="http://www.w3.org/2000/svg" height="24" viewBox="0 -960 960 960" width="24"><path d="M802.84-624.61H647.61q-17.76 0-30.38-12.62-12.61-12.61-12.61-30.38T617.23-698q12.62-12.61 30.38-12.61h72.24q-36.31-60-99.31-89.7Q557.54-830 486-830q-85.31 0-156.35 43.73-71.04 43.73-103.57 119.73-9.39 21-26.16 25.12-16.77 4.11-31.3-1.96-15.54-7.08-22.58-22.5-7.04-15.43-.35-30.35 41.85-100.23 134.69-160Q373.23-916 486-916q82.46 0 156.73 31.89Q717-852.23 766-788.3V-829q0-17.77 12.62-30.38Q791.23-872 809-872t30.38 12.62Q852-846.77 852-829v155.23q0 20.46-14.35 34.81-14.34 14.35-34.81 14.35ZM425.39-87q-56.85 0-97.23-40.39-40.39-40.38-40.39-97.23 0-56.84 40.39-97.23 40.38-40.38 97.23-40.38 13.92 0 27.26 3.62Q466-355 477-348.31v-201.61h206v86H563v239.3q0 56.85-40.39 97.23Q482.23-87 425.39-87Z"/></svg>