<svg xmlns="http://www.w3.org/2000/svg" height="20" width="20"><path d="M5.833 14.875Q3.812 14.875 2.385 13.448Q0.958 12.021 0.958 10Q0.958 7.979 2.385 6.552Q3.812 5.125 5.833 5.125H14.146Q16.167 5.125 17.604 6.552Q19.042 7.979 19.042 10Q19.042 12.021 17.615 13.448Q16.188 14.875 14.146 14.875ZM5.833 12.167H14.146Q15.042 12.167 15.688 11.531Q16.333 10.896 16.333 10Q16.333 9.104 15.688 8.469Q15.042 7.833 14.146 7.833H5.833Q4.938 7.833 4.302 8.469Q3.667 9.104 3.667 10Q3.667 10.896 4.302 11.531Q4.938 12.167 5.833 12.167ZM6.688 11.333Q6.938 11.333 7.188 11.229Q7.438 11.125 7.646 10.917L9.021 9.542Q9.208 9.354 9.208 9.083Q9.208 8.812 9 8.625Q8.812 8.438 8.542 8.438Q8.271 8.438 8.083 8.625L6.667 10.042L6.333 9.708Q6.146 9.521 5.875 9.51Q5.604 9.5 5.417 9.688Q5.229 9.875 5.229 10.146Q5.229 10.417 5.417 10.604L5.729 10.917Q5.938 11.125 6.188 11.229Q6.438 11.333 6.688 11.333ZM10 10Q10 10 10 10Q10 10 10 10Q10 10 10 10Q10 10 10 10Q10 10 10 10Q10 10 10 10Q10 10 10 10Q10 10 10 10Z"/></svg>