<svg xmlns="http://www.w3.org/2000/svg" height="48" viewBox="0 -960 960 960" width="48"><path d="M597.021-828.261H297.946q-15.21 0-25.176-9.969-9.966-9.97-9.966-25.185 0-13.976 9.966-23.998t25.176-10.022h368.358l-69.283 69.174ZM427.957-659.087H177.974q-15.222 0-25.196-9.969-9.974-9.97-9.974-25.185 0-13.977 9.968-23.998 9.968-10.022 25.181-10.022H497.13l-69.173 69.174ZM258.783-489.913H57.991q-15.23 0-25.208-9.97-9.979-9.969-9.979-25.184 0-13.977 9.97-23.998 9.97-10.022 25.188-10.022h269.995l-69.174 69.174Zm322.434 101.63L466.413-503.087 264-300.435l114.565 115.044 202.652-202.892ZM522-558.435 636.804-443.63l222.848-222.848-114.565-115.044L522-558.435Zm-83.022-26.674 224.5 224.5-223.891 223.892q-21.913 21.913-60.902 22.293-38.989.381-60.903-21.533l-10-9.76-29.845 29.534q-5.263 5.335-11.887 8.074-6.624 2.739-13.289 2.739H138.306q-12.648 0-17.477-12.217-4.829-12.217 4.888-21.696l94.37-94.13-3-3.478q-26.152-24.783-25.272-63.359.881-38.576 26.033-63.728l221.13-221.131Zm0 0L692.739-838.87q23.5-23.674 55.261-23.674 31.761 0 55.196 23.674L915-726.826q23.674 23.5 23.174 57.761T914-611.13L663.478-360.609l-224.5-224.5Z"/></svg>