<svg xmlns="http://www.w3.org/2000/svg" height="20" viewBox="0 -960 960 960" width="20"><path d="M610.06-491 152.48-656.3l26.39-74.7 585.78 211.91q31.57 10.59 47.92 34.67 16.34 24.09 16.34 53.42v167q0 34.48-24.26 58.74Q780.4-181 745.91-181H214.09q-34.49 0-58.74-24.28-24.26-24.29-24.26-58.81v-144.17q0-34.52 24.26-58.63Q179.6-491 214.09-491h395.97ZM406.09-300h291.82v-72H406.09v72Zm-108.21 0q15.21 0 25.71-10.29t10.5-25.5q0-15.21-10.29-25.71T298.3-372q-15.21 0-25.71 10.29t-10.5 25.5q0 15.21 10.29 25.71t25.5 10.5Z"/></svg>