<svg xmlns="http://www.w3.org/2000/svg" height="40" viewBox="0 96 960 960" width="40"><path d="M776.87 464.043q-28.036 0-48.174-20.184-20.138-20.185-20.138-48.221 0-27.877 20.138-48.015 20.138-20.137 48.174-20.137 27.877 0 48.014 20.137 20.138 20.138 20.138 48.015 0 28.036-20.138 48.221-20.137 20.184-48.014 20.184Zm-593.819 0q-28.037 0-48.095-20.184-20.058-20.185-20.058-48.221 0-27.877 20.058-48.015 20.058-20.137 48.095-20.137 28.036 0 48.094 20.137 20.058 20.138 20.058 48.015 0 28.036-20.058 48.221-20.058 20.184-48.094 20.184Zm159.688-56.253q8.747-37.37 3.526-61.326-5.221-23.957-29.526-55.247-30.905-38.985-40-74.648-9.094-35.663-.333-89.446h47.666q-6.572 51.392-1.311 76.417t28.978 55.583q30 38.16 39.333 73.413 9.334 35.254.334 75.254h-48.667Zm120 0q8.747-37.877 3.526-61.913-5.221-24.036-29.526-54.66-30.905-38.985-40-74.648-9.094-35.663-.333-89.446h47q-8.479 45-1.971 73.221 6.507 28.221 30.971 58.779 29.84 37.333 38.92 72.667 9.08 35.333.08 76h-48.667Zm120 0q8.747-37.877 3.526-61.913-5.221-24.036-29.526-54.66-30.905-38.985-40-74.648-9.094-35.663-.333-89.446h47q-7.812 43.667-1.265 72.475 6.547 28.808 30.265 59.525 29.84 37.333 38.92 72.667 9.08 35.333.08 76h-48.667ZM70.913 773.42V606.753h43.985v-22.152q0-31.42 21.83-53.496t53.25-22.076q17.355 0 32.797 7.138 15.442 7.137 27.319 19.253l43.986 49.667q5.492 6.239 11.539 11.532 6.048 5.294 13.127 10.134h322.269q7.333-4.84 13.333-10.134 6-5.293 11.333-11.532l44.145-49.667q11.718-12.116 27.16-19.253 15.442-7.138 32.956-7.138 31.261 0 53.17 22.076 21.91 22.076 21.91 53.496v22.152h44.225V773.42H70.913Zm75.753 211.667q-31.652 0-53.703-22.051-22.05-22.05-22.05-53.702v-60.001h818.334v60.001q0 31.652-22.131 53.702-22.13 22.051-53.782 22.051H146.666Z"/></svg>