<svg xmlns="http://www.w3.org/2000/svg" height="48" viewBox="0 -960 960 960" width="48"><path d="M755.22-513.5q-19.22 0-32.72-12.81-13.5-12.8-13.5-31.94 0-18.71 13.46-31.73Q735.93-603 755.28-603 774-603 787-589.93t13 31.71q0 19.22-13.07 31.97t-31.71 12.75Zm-550 0q-19.22 0-32.22-12.81-13-12.8-13-31.94 0-18.71 12.96-31.73Q185.93-603 205.28-603q18.72 0 32.22 13.07t13.5 31.71q0 19.22-13.57 31.97t-32.21 12.75Zm171.78-27q5-30-2.25-53.5t-30.25-54q-26.5-32-36-64t-4.54-74.5H325q-4 42.5 3.5 69t30.5 54q26.5 34.5 35.25 62.25t4.25 60.75H377Zm110 0q5-30.5-2.25-54.5t-30.25-54Q428-681 419-712.5t-3.97-74h21.47q-4 39.44 3.5 67.22T470.5-663q25.5 32.85 34.5 60.67 9 27.83 4.5 61.83H487Zm111 0q5-30.5-2.25-54.5t-30.25-54Q539-681 530-712.5t-3.97-74h21.47q-4.5 39 3.25 67t30.25 56q26.5 33.5 35.25 61.45 8.75 27.94 4.25 61.55H598Zm-466 295V-388h28v-24.13q0-24.15 16.28-40.76 16.29-16.61 41.25-16.61 14.79 0 27.82 6.29 13.04 6.29 22.76 17.72L297-410q5.5 6 12 11.68 6.5 5.67 13.4 10.32h316.1q6.55-4.59 13.09-10.19 6.53-5.61 11.5-11.65l29.75-35.3q8.66-11.36 21.91-17.86t28.53-6.5q24.17 0 40.45 16.61Q800-436.28 800-412.13V-388h28v142.5H132ZM186-132q-22 0-38-16.1t-16-38.23v-37.17h696v37.27Q828-164 812-148q-16 16-38 16H186Z"/></svg>