<svg xmlns="http://www.w3.org/2000/svg" height="40" viewBox="0 96 960 960" width="40"><path d="M480.226 933.18q-74.107 0-139.447-28.132-65.341-28.131-113.675-76.357t-76.309-113.333q-27.975-65.107-27.975-139.132 0-74.107 28.132-139.447 28.132-65.341 76.357-113.675 48.226-48.334 113.333-76.309 65.107-27.975 139.132-27.975 74.107 0 139.447 28.132 65.341 28.131 113.675 76.357t76.309 113.333q27.975 65.107 27.975 139.132 0 74.107-28.132 139.447-28.131 65.341-76.357 113.675t-113.333 76.309q-65.107 27.975-139.132 27.975Zm-.301-32.436q135.851 0 230.335-94.442 94.484-94.442 94.484-230.32 0-64.897-24.579-124.132-24.58-59.235-70.504-105.318L480.226 576V251.256q-135.752 0-230.361 94.409-94.609 94.409-94.609 230.26t94.409 230.335q94.409 94.484 230.26 94.484Z"/></svg>