<svg xmlns="http://www.w3.org/2000/svg" height="24" viewBox="0 -960 960 960" width="24"><path d="M382.62-271.38 188.15-465.85l26.58-26.57 167.89 168.27 363.03-363.04 26.2 26.57-389.23 389.24ZM594.73-149.5q-45.35-45.5-45.35-110.45 0-64.74 45.31-110.09 45.3-45.34 110.35-45.34 65.04 0 110.38 45.32 45.35 45.32 45.35 110.38 0 64.72-45.31 110.2Q770.16-104 705.12-104t-110.39-45.5Zm110.35-15.73q8 0 13.23-5.23t5.23-13.23q0-8-5.23-13.23t-13.23-5.23q-8 0-13.23 5.23t-5.23 13.23q0 8 5.23 13.23t13.23 5.23Zm-14.77-72.62h29.54v-116.3h-29.54v116.3Z"/></svg>