<svg xmlns="http://www.w3.org/2000/svg" height="48" width="48"><path d="M15.5 37.2 24.45 21.8H20V11.95L11.05 27.35H15.5ZM6.55 43.45V9.1Q6.55 7.2 7.875 5.825Q9.2 4.45 11.1 4.45H24.45Q26.35 4.45 27.725 5.825Q29.1 7.2 29.1 9.1V24.5H32.85Q34.05 24.5 34.875 25.325Q35.7 26.15 35.7 27.3V38.1Q35.7 39.05 36.4 39.725Q37.1 40.4 38.05 40.4Q39.05 40.4 39.775 39.725Q40.5 39.05 40.5 38.1V21.35Q40 21.6 39.425 21.725Q38.85 21.85 38.4 21.85Q36.3 21.85 34.925 20.45Q33.55 19.05 33.55 16.95Q33.55 15.5 34.375 14.25Q35.2 13 36.6 12.5L31.95 7.8L34.05 5.7L40.8 12.5Q41.8 13.45 42.625 14.525Q43.45 15.6 43.45 16.95V38.05Q43.45 40.35 41.9 41.9Q40.35 43.45 38.05 43.45Q35.75 43.45 34.25 41.925Q32.75 40.4 32.75 38.05V27.45Q32.75 27.45 32.75 27.45Q32.75 27.45 32.75 27.45H29.1V43.45ZM38.4 18.85Q39.2 18.85 39.775 18.3Q40.35 17.75 40.35 16.95Q40.35 16.2 39.75 15.65Q39.15 15.1 38.4 15.1Q37.6 15.1 37.05 15.65Q36.5 16.2 36.5 17Q36.5 17.75 37.05 18.3Q37.6 18.85 38.4 18.85Z"/></svg>