<svg xmlns="http://www.w3.org/2000/svg" height="20" width="20"><path d="M6.854 13.542 9.104 9.396H8V6.438L5.75 10.875H6.854ZM3.708 17.083V4.792Q3.708 4 4.25 3.458Q4.792 2.917 5.583 2.917H9.271Q10.062 2.917 10.604 3.458Q11.146 4 11.146 4.792V9.833H11.979Q12.562 9.833 12.979 10.24Q13.396 10.646 13.396 11.208V15.125Q13.396 15.542 13.688 15.833Q13.979 16.125 14.375 16.125Q14.771 16.125 15.062 15.833Q15.354 15.542 15.354 15.125V9.25Q15.125 9.354 14.917 9.417Q14.708 9.479 14.479 9.479Q13.75 9.479 13.219 8.938Q12.688 8.396 12.688 7.646Q12.688 7.042 13.052 6.552Q13.417 6.062 14.021 5.938L12.104 4.021L12.771 3.312L15.729 6.25Q16 6.521 16.167 6.875Q16.333 7.229 16.333 7.646V15.125Q16.333 15.938 15.771 16.51Q15.208 17.083 14.375 17.083Q13.562 17.083 12.99 16.51Q12.417 15.938 12.417 15.125V11.458Q12.417 11.167 12.229 10.979Q12.042 10.792 11.75 10.792H11.146V17.083ZM14.521 8.5Q14.875 8.5 15.125 8.25Q15.375 8 15.375 7.646Q15.375 7.292 15.125 7.042Q14.875 6.792 14.521 6.792Q14.167 6.792 13.917 7.042Q13.667 7.292 13.667 7.646Q13.667 8 13.917 8.25Q14.167 8.5 14.521 8.5Z"/></svg>