<svg xmlns="http://www.w3.org/2000/svg" height="20" width="20"><path d="M11.417 21.396v-2.917q2.937 0 4.927-1.989 1.989-1.99 1.989-4.928h2.917q0 2.063-.76 3.855-.761 1.791-2.094 3.114-1.334 1.323-3.125 2.094-1.792.771-3.854.771Zm0-4.667v-2.917q1.104 0 1.677-.583t.573-1.667h2.916q0 2.271-1.448 3.719-1.447 1.448-3.718 1.448Zm-7.313 2.583q-.437 0-.854-.166-.417-.167-.75-.5l-2.958-2.958q-.334-.313-.49-.73-.156-.416-.156-.854 0-.416.156-.833t.49-.75l2.312-2.313q.667-.646 1.604-.656.938-.01 1.604.636l.792.791.479-.479-.791-.812q-.667-.646-.667-1.563 0-.917.667-1.563l.875-.874Q7.083 5.021 8 5.021q.917 0 1.583.667l.771.791.5-.5-.792-.771q-.666-.666-.666-1.593 0-.927.666-1.573l2.334-2.334q.333-.354.729-.52.396-.167.833-.167.438 0 .844.167.406.166.76.52l2.959 2.959q.312.333.479.739.167.406.167.844 0 .417-.167.833-.167.417-.479.75l-2.313 2.334q-.666.645-1.604.645-.937 0-1.583-.645l-.792-.813-.5.5.813.792q.646.646.635 1.573-.01.927-.656 1.573l-.854.854q-.667.666-1.584.666-.916 0-1.583-.666l-.812-.771-.48.479.813.792q.667.666.656 1.604-.01.938-.677 1.583l-2.333 2.313q-.334.333-.74.5-.406.166-.823.166Zm0-2.5.5-.5-2.708-2.708-.521.5Zm1.563-1.562.5-.5-2.709-2.708-.52.5Zm8.916-8.938.521-.52-2.708-2.709-.521.521Zm1.584-1.583.5-.5-2.709-2.708-.5.5Z"/></svg>