<svg xmlns="http://www.w3.org/2000/svg" height="40" viewBox="0 -960 960 960" width="40"><path d="M50.67-723.33q0-44.1 31.08-75.39Q112.84-830 156.67-830h646.66q44.1 0 75.39 31.28Q910-767.43 910-723.33V-634q0 22.85-15.34 37.76-15.34 14.91-37.88 14.91-22.53 0-37.99-14.91T803.33-634v-89.33H156.67V-634q0 22.85-15.65 37.76-15.65 14.91-37.35 14.91-23.09 0-38.05-14.91Q50.67-611.15 50.67-634v-89.33Zm106 592.66q-43.83 0-74.92-30.98-31.08-30.98-31.08-74.68v-90.34q0-21.45 15.07-37.06 15.07-15.6 37.67-15.6 22.59 0 37.92 15.6 15.34 15.61 15.34 37.06v90.34h646.66v-90.34q0-21.45 15.78-37.06 15.77-15.6 37.4-15.6 23.04 0 38.26 15.6Q910-348.12 910-326.67v90.34q0 43.7-31.28 74.68-31.29 30.98-75.39 30.98H156.67Zm243.24-155q9.29 0 17.79-4.83t12.97-14.17l129.66-259 49.34 99q4.64 8.67 13.14 13.5 8.5 4.84 17.86 4.84h235.47q13.31 0 23.58-9.98 10.28-9.97 10.28-23.8 0-13.82-10.28-24.02-10.27-10.2-23.52-10.2H662l-71.67-141q-3.59-8.7-11.97-12.85-8.37-4.15-17.59-4.15-9.77 0-18.34 4.15-8.56 4.15-12.1 12.85L400.67-397l-50.34-98.33q-3.5-8.67-12.05-13.84-8.54-5.16-17.95-5.16H85q-14.43 0-24.38 10.16-9.95 10.17-9.95 24.29 0 13.83 9.95 23.69 9.95 9.86 24.38 9.86h214l70.67 141.66q3.81 9.34 12.38 14.17t17.86 4.83ZM480-480Z"/></svg>