<svg xmlns="http://www.w3.org/2000/svg" height="20" width="20"><path d="M4.125 18.958q-.937 0-1.615-.677-.677-.677-.677-1.614V5q0-.938.677-1.615.678-.677 1.615-.677V1.042h2.292v1.666h7.166V1.042h2.292v1.666q.937 0 1.615.677.677.677.677 1.615v4.562h-2.292V7.958H4.125v8.709h5.542v2.291Zm11.667 1.313q-1.646 0-2.886-1.136-1.239-1.135-1.573-2.823h1.896q.271.917.959 1.5.687.584 1.583.584 1.104 0 1.864-.761.761-.76.761-1.843 0-1.084-.761-1.844-.76-.76-1.843-.76-.292 0-.563.052-.271.052-.541.156h.583v1.875h-3.959v-3.959h1.876v.813q.541-.396 1.229-.604.687-.209 1.375-.209 1.854 0 3.166 1.313 1.313 1.313 1.313 3.167 0 1.854-1.313 3.166-1.312 1.313-3.166 1.313Z"/></svg>