<svg xmlns="http://www.w3.org/2000/svg" height="24" viewBox="0 -960 960 960" width="24"><path d="M596.77-147.27q-28.5 0-48.38-19.89-19.89-19.88-19.89-48.38v-57.08q0-9.73 5.77-17.75 5.77-8.01 15.31-11.4 55.19-21.46 88.67-69.9 33.48-48.45 33.48-108.33 0-59.88-33.48-108.33-33.48-48.44-88.67-70.09-9.23-3.81-15.16-11.52-5.92-7.71-5.92-17.44v-57.08q0-28.5 19.89-48.38 19.88-19.89 48.38-19.89h132.96q28.5 0 48.38 19.89Q798-772.96 798-744.46v528.92q0 28.5-19.89 48.38-19.88 19.89-48.38 19.89H596.77Zm-366.5 0q-28.5 0-48.38-19.89Q162-187.04 162-215.54v-528.92q0-28.5 19.89-48.38 19.88-19.89 48.38-19.89h132.96q28.5 0 48.38 19.89 19.89 19.88 19.89 48.38v57.08q0 9.73-5.77 17.59-5.77 7.87-15.31 11.37-55.19 21.65-88.57 70.09-33.39 48.45-33.39 108.33 0 59.88 33.39 108.33 33.38 48.44 88.57 69.9 9.23 3.69 15.16 11.56 5.92 7.86 5.92 17.59v57.08q0 28.5-19.89 48.38-19.88 19.89-48.38 19.89H230.27ZM480-372.12q-11.65 0-19.77-8.11-8.11-8.12-8.11-19.77v-52.12H400q-11.65 0-19.77-8.11-8.11-8.12-8.11-19.77t8.11-19.86q8.12-8.22 19.77-8.22h52.12V-560q0-11.65 8.11-19.86 8.12-8.22 19.77-8.22t19.86 8.22q8.22 8.21 8.22 19.86v51.92H560q11.65 0 19.86 8.22 8.22 8.21 8.22 19.86 0 11.65-8.22 19.77-8.21 8.11-19.86 8.11h-51.92V-400q0 11.65-8.22 19.77-8.21 8.11-19.86 8.11Z"/></svg>