<svg xmlns="http://www.w3.org/2000/svg" height="40" viewBox="0 -960 960 960" width="40"><path d="m535.667-458.5-69-70.333 188-187.667-10.333-11q-8-8-24-8t-24 8L413-544.333q-2.651 3.666-7.326 3.333-4.674-.333-6.341-3.333-4.166-2.834-4.166-7.617 0-4.783 3.166-8.05l182.06-182.672q18.274-17.495 41.405-17.828 23.131-.333 41.036 17.833l9.333 8.667 26.228-26.317q8.628-9.35 19.617-9.35 10.988 0 20.055 9.07L772-727.308q8.333 9.07 7.333 18.207-1 9.138-9.5 18.268L535.667-458.5Zm-327.5 285q-12.5 0-19.834-7.75Q181-189 181-201.5v-31.597q0-5.236 1.989-9.511 1.989-4.275 6.238-8.472L448.5-510.667l70.333 69-260.086 259.9q-4.158 4.289-8.364 6.278-4.207 1.989-9.55 1.989h-32.666Z"/></svg>