<svg xmlns="http://www.w3.org/2000/svg" height="20" viewBox="0 -960 960 960" width="20"><path d="m493.74-530.35 37.04 37.05 202.61-202.61-37.04-37.05-202.61 202.61ZM214.28-213.78h36.98L466.7-429.22l-37.05-37.04-215.37 215.93v36.55Zm344.89-187.55L402.33-558.74l132.73-132.74L484-742.54 316.22-575.76Q303.64-563 286.87-563q-16.76 0-29.02-12.76-12.83-12.76-12.55-29.65.29-16.89 12.55-29.22l161.02-160.14q27.95-27.84 67.23-27.84 39.27 0 67.12 27.85l42.85 42.28 59.19-59.29q17.46-17.47 41.85-17.47t41.68 17.4l73.1 73.92q17.29 17.39 16.79 41.49t-16.96 42.56L559.17-401.33ZM176.26-129.82q-18.59 0-32.54-13.96-13.96-13.96-13.96-32.55v-70.88q0-18.31 6.72-35.39 6.71-17.08 21.19-31.49l244.66-244.65 156.84 157.41-243.58 243.59q-14.37 14.48-31.4 21.2-17.03 6.72-35.26 6.72h-72.67Z"/></svg>