<svg xmlns="http://www.w3.org/2000/svg" enable-background="new 0 0 20 20" height="20" viewBox="0 0 20 20" width="20"><g><rect fill="none" height="20" width="20" x="0"/></g><g><g><path d="M10,3c-3.87,0-7,3.13-7,7c0,3.87,3.13,7,7,7s7-3.13,7-7C17,6.13,13.87,3,10,3z M10,16c-3.31,0-6-2.69-6-6s2.69-6,6-6 s6,2.69,6,6S13.31,16,10,16z"/><path d="M6.72,8.71C6.9,9.11,6.99,9.53,7,9.98c0.01,0.44-0.09,0.88-0.28,1.31l0.91,0.41C7.88,11.14,8.01,10.56,8,9.97 C7.99,9.38,7.87,8.82,7.63,8.29L6.72,8.71z"/><path d="M11.17,6.72C11.72,7.83,12,8.93,12,9.99c0,1.06-0.28,2.17-0.83,3.3l0.9,0.44C12.69,12.46,13,11.2,13,9.99 c0-1.22-0.31-2.46-0.93-3.71L11.17,6.72z"/><path d="M8.94,7.69C9.31,8.44,9.5,9.25,9.5,10.08c0,0.83-0.19,1.57-0.55,2.22l0.87,0.49c0.45-0.8,0.68-1.71,0.68-2.71 c0-0.99-0.23-1.95-0.67-2.84L8.94,7.69z"/></g></g></svg>