<svg xmlns="http://www.w3.org/2000/svg" height="48" width="48"><path d="M43.55 38.6 41.05 36.1V14Q41.05 14 41.05 14Q41.05 14 41.05 14H22.8L19.8 11H15.95L12.95 8H21.05L24.05 11H41.05Q42.25 11 43.15 11.9Q44.05 12.8 44.05 14V37Q44.05 37.35 43.95 37.775Q43.85 38.2 43.55 38.6ZM43.1 46.6 36.5 40H7.05Q5.85 40 4.95 39.1Q4.05 38.2 4.05 37V11Q4.05 10.45 4.325 9.8Q4.6 9.15 5.2 8.7L2.8 6.3L4.9 4.2L45.2 44.5ZM7.05 37H33.45L7.45 11H7.05Q7.05 11 7.05 11Q7.05 11 7.05 11V37Q7.05 37 7.05 37Q7.05 37 7.05 37ZM20.45 24Q20.45 24 20.45 24Q20.45 24 20.45 24Q20.45 24 20.45 24Q20.45 24 20.45 24ZM28.4 23.45Q28.4 23.45 28.4 23.45Q28.4 23.45 28.4 23.45Z"/></svg>