<svg xmlns="http://www.w3.org/2000/svg" height="48" viewBox="0 -960 960 960" width="48"><path d="M241.96-359.5q-19.36 0-31.41-12.04-12.05-12.03-12.05-31.3 0-19.27 11.89-31.47 11.89-12.19 31.2-12.19t31.61 12.04q12.3 12.03 12.3 31.3 0 19.27-12.09 31.47-12.1 12.19-31.45 12.19Zm0 161q-19.36 0-31.41-12.04-12.05-12.03-12.05-31.3 0-19.27 11.89-31.47 11.89-12.19 31.2-12.19t31.61 12.04q12.3 12.03 12.3 31.3 0 19.27-12.09 31.47-12.1 12.19-31.45 12.19Zm0-315.5q-19.36 0-31.41-12.04-12.05-12.03-12.05-31.3 0-19.27 11.89-31.47Q222.28-601 241.59-601t31.61 12.04q12.3 12.03 12.3 31.3 0 19.27-12.09 31.47Q261.31-514 241.96-514Zm-117.82-17q-12.64 0-19.89-7.36-7.25-7.35-7.25-19.5 0-12.14 7.11-19.64 7.1-7.5 19.75-7.5 12.14 0 19.64 7.36 7.5 7.35 7.5 19.5 0 12.14-7.36 19.64-7.35 7.5-19.5 7.5Zm117.82-144q-19.36 0-31.41-12.04-12.05-12.03-12.05-31.3 0-19.27 11.89-31.47Q222.28-762 241.59-762t31.61 12.04q12.3 12.03 12.3 31.3 0 19.27-12.09 31.47Q261.31-675 241.96-675ZM124.14-376q-12.64 0-19.89-7.36-7.25-7.35-7.25-19.5 0-12.14 7.11-19.64 7.1-7.5 19.75-7.5 12.14 0 19.64 7.36 7.5 7.35 7.5 19.5 0 12.14-7.36 19.64-7.35 7.5-19.5 7.5Zm279 279q-12.64 0-19.89-7.36-7.25-7.35-7.25-19.5 0-12.14 7.11-19.64 7.1-7.5 19.75-7.5 12.14 0 19.64 7.36 7.5 7.35 7.5 19.5 0 12.14-7.36 19.64-7.35 7.5-19.5 7.5Zm0-712.5q-12.64 0-19.89-7.36-7.25-7.35-7.25-19.5 0-12.14 7.11-19.64 7.1-7.5 19.75-7.5 12.14 0 19.64 7.36 7.5 7.35 7.5 19.5 0 12.14-7.36 19.64-7.35 7.5-19.5 7.5Zm-.18 134.5q-19.36 0-31.41-12.04-12.05-12.03-12.05-31.3 0-19.27 11.89-31.47Q383.28-762 402.59-762t31.61 12.04q12.3 12.03 12.3 31.3 0 19.27-12.09 31.47Q422.31-675 402.96-675Zm-.09 331q-23.87 0-41.37-17.44-17.5-17.44-17.5-41.5t17.42-41.56q17.43-17.5 41.46-17.5 23.62 0 41.37 17.44Q462-427.12 462-403.06t-17.63 41.56q-17.63 17.5-41.5 17.5Zm0-154.5q-23.87 0-41.37-17.44-17.5-17.44-17.5-41.5T361.42-599q17.43-17.5 41.46-17.5 23.62 0 41.37 17.44Q462-581.62 462-557.56T444.37-516q-17.63 17.5-41.5 17.5Zm.09 300q-19.36 0-31.41-12.04-12.05-12.03-12.05-31.3 0-19.27 11.89-31.47 11.89-12.19 31.2-12.19t31.61 12.04q12.3 12.03 12.3 31.3 0 19.27-12.09 31.47-12.1 12.19-31.45 12.19ZM855-480q0 138.44-87.75 241.47T548-112.5q-22.5 5-39.5-10.31-17-15.32-17-40.19v-635q0-22.82 17-38.16 17-15.34 39.5-12.84 131.5 24.5 219.25 127.53T855-480Z"/></svg>