<svg xmlns="http://www.w3.org/2000/svg" height="40" viewBox="0 -960 960 960" width="40"><path d="M481-779.67q112.33 0 206.33 48.17 94 48.17 161.34 140.17l-20 17.33q-63-88-151.5-133.5T481-753q-105.33 0-193 45.33Q200.33-662.33 135.33-574l-20.66-13.67Q181-681.33 275.17-730.5q94.16-49.17 205.83-49.17Zm0 95.34q137.67 0 234 91 96.33 91 96.33 221.33 0 47-34.5 79.67-34.5 32.66-83.5 32.66-50.66 0-85.66-32.66-35-32.67-35-79.67 0-36-26.67-61.33-26.67-25.34-65-25.34-39 0-65.67 25.34Q388.67-408 388.67-372q0 97 59.33 166.5t169 101.83l-6 26.34q-118-31-183.5-108.5T362-372q0-47 34.67-80.17 34.66-33.16 84.33-33.16t84.33 33.16Q600-419 600-372q0 36 27.17 61 27.16 25 66.16 25 38 0 64.34-25Q784-336 784-372q0-118.67-88.33-201.33Q607.33-656 481.33-656T267-573.33q-88.33 82.66-88.33 201 0 35.66 7.83 75 7.83 39.33 24.17 84.66L185.33-202q-16.66-46.67-24.66-88.67t-8-81.33q0-129 96.66-220.67Q346-684.33 481-684.33Zm0-195.34q65 0 127.33 16 62.34 16 129.34 50l-11.34 24.34q-67-33-126.16-48-59.17-15-119.17-15-65.33 0-123 15t-117.33 48l-13.34-22.34Q290.67-846 353-862.83q62.33-16.84 128-16.84Zm0 295q98 0 161.83 64.34 63.84 64.33 63.84 161.66h-27.34q0-87.33-56-143.33-56-56-142.33-56-82.33 0-139.33 54.17-57 54.16-57 131.83 0 79 27.33 138.5t96.67 131.17L389.33-83q-71.66-76-101.83-141.5T257.33-372q0-88.67 65.17-150.67 65.17-62 158.5-62Zm51 361q-32-30-48.67-70.83-16.66-40.83-16.66-91.5h26.66q0 45 14.67 81.33 14.67 36.34 43.33 62.34 27.34 25 61.84 38.16 34.5 13.17 71.5 13.17 15 0 29-2.5t27.66-6.5l5 26.33q-15 4.67-30.66 7-15.67 2.34-31 2.34-43.34 0-82.5-15.17Q563-194.67 532-223.67Z"/></svg>