<svg xmlns="http://www.w3.org/2000/svg" version="1.1" width="3300" height="2000"><g id="Notes"><style>
    text {
      font-family: monospace;
      text-anchor: middle;
    }
    text.emphasis {
      font-weight:bold;
    }
    text.lanchor {
      text-anchor: start;
    }
  </style><rect height="2200" id="artboard" fill="white" width="3300" x="0" y="0"/><line id="" style="fill:none;stroke:black;stroke-width:0.5;" x1="263" x2="3036" y1="292" y2="292"/><text class="lanchor emphasis" transform="matrix(1 0 0 1 263 322)">Weight/Scale Variations</text><text transform="matrix(1 0 0 1 559.711 322)">Ultralight</text><text transform="matrix(1 0 0 1 856.422 322)">Thin</text><text transform="matrix(1 0 0 1 1153.13 322)">Light</text><text transform="matrix(1 0 0 1 1449.84 322)">Regular</text><text transform="matrix(1 0 0 1 1746.56 322)">Medium</text><text transform="matrix(1 0 0 1 2043.27 322)">Semibold</text><text transform="matrix(1 0 0 1 2339.98 322)">Bold</text><text transform="matrix(1 0 0 1 2636.69 322)">Heavy</text><text transform="matrix(1 0 0 1 2933.4 322)">Black</text><text id="template-version" style="text-anchor: end;" transform="matrix(1 0 0 1 3036 1933)">Template v.1.0</text><text class="lanchor" transform="matrix(1 0 0 1 263 726)">Small</text><text class="lanchor" transform="matrix(1 0 0 1 263 1156)">Medium</text><text class="lanchor" transform="matrix(1 0 0 1 263 1586)">Large</text></g><g id="Guides"><g id="H-reference" style="fill:#27AAE1;stroke:none;" transform="matrix(1 0 0 1 339 696)"><path d="M 54.9316 0 L 57.666 0 L 30.5664 -70.459 L 28.0762 -70.459 L 0.976562 0 L 3.66211 0 L 12.9395 -24.4629 L 45.7031 -24.4629 Z M 29.1992 -67.0898 L 29.4434 -67.0898 L 44.8242 -26.709 L 13.8184 -26.709 Z"/></g><line id="Baseline-S" style="fill:none;stroke:#27AAE1;opacity:1;stroke-width:0.577;" x1="263" x2="3036" y1="696" y2="696"/><line id="Capline-S" style="fill:none;stroke:#27AAE1;opacity:1;stroke-width:0.577;" x1="263" x2="3036" y1="625.541" y2="625.541"/><g id="H-reference" style="fill:#27AAE1;stroke:none;" transform="matrix(1 0 0 1 339 1126)"><path d="M 54.9316 0 L 57.666 0 L 30.5664 -70.459 L 28.0762 -70.459 L 0.976562 0 L 3.66211 0 L 12.9395 -24.4629 L 45.7031 -24.4629 Z M 29.1992 -67.0898 L 29.4434 -67.0898 L 44.8242 -26.709 L 13.8184 -26.709 Z"/></g><line id="Baseline-M" style="fill:none;stroke:#27AAE1;opacity:1;stroke-width:0.577;" x1="263" x2="3036" y1="1126" y2="1126"/><line id="Capline-M" style="fill:none;stroke:#27AAE1;opacity:1;stroke-width:0.577;" x1="263" x2="3036" y1="1055.54" y2="1055.54"/><g id="H-reference" style="fill:#27AAE1;stroke:none;" transform="matrix(1 0 0 1 339 1556)"><path d="M 54.9316 0 L 57.666 0 L 30.5664 -70.459 L 28.0762 -70.459 L 0.976562 0 L 3.66211 0 L 12.9395 -24.4629 L 45.7031 -24.4629 Z M 29.1992 -67.0898 L 29.4434 -67.0898 L 44.8242 -26.709 L 13.8184 -26.709 Z"/></g><line id="Baseline-L" style="fill:none;stroke:#27AAE1;opacity:1;stroke-width:0.577;" x1="263" x2="3036" y1="1556" y2="1556"/><line id="Capline-L" style="fill:none;stroke:#27AAE1;opacity:1;stroke-width:0.577;" x1="263" x2="3036" y1="1485.54" y2="1485.54"/><rect height="119.336" id="left-margin" style="fill:darkred;stroke:none;opacity:0.4;" width="12.4512" x="1394.06" y="1030.79"/><rect height="119.336" id="right-margin" style="fill:darkgreen;stroke:none;opacity:0.4;" width="12.4512" x="1502.5112" y="1030.79"/><rect x="1406.5112" y="1045" width="96" height="96" fill="none" stroke="blue" stroke-dasharray="5"/><rect x="1394.06" y="1030.79" width="120.9024" height="119.336" fill="none" stroke="blue"/></g><g id="Symbols"><g id="Bold-L" transform="matrix(1 0 0 1 2266 1556)"><path d="M51.6 -47.243 Q48.496 -47.243 46.38 -49.36 Q44.263 -51.476 44.263 -54.58 V-88.281 H17.093 Q13.988 -88.281 11.833 -90.407 Q9.675 -92.53 9.675 -95.647 Q9.675 -98.762 11.833 -100.98 Q13.988 -103.197 17.093 -103.197 H137.788 Q140.812 -103.197 143.05 -100.951 Q145.286 -98.706 145.286 -95.589 Q145.286 -92.474 143.05 -90.377 Q140.812 -88.281 137.788 -88.281 H110.618 V-54.58 Q110.618 -51.476 108.462 -49.36 Q106.304 -47.243 103.2 -47.243 H51.6 Z M17.093 32.495 Q13.988 32.495 11.833 30.329 Q9.675 28.165 9.675 25.048 Q9.675 22.014 11.833 19.877 Q13.988 17.741 17.093 17.741 H44.263 V-15.88 Q44.263 -18.984 46.38 -21.142 Q48.496 -23.297 51.6 -23.297 H103.2 Q106.304 -23.297 108.462 -21.142 Q110.618 -18.984 110.618 -15.88 V17.741 H137.788 Q140.812 17.741 143.05 19.906 Q145.286 22.07 145.286 25.107 Q145.286 28.222 143.05 30.358 Q140.812 32.495 137.788 32.495 H17.093 Z"/></g><g id="Semibold-L" transform="matrix(1 0 0 1 1970.27 1556)"><path d="M51.6 -48.435 Q48.986 -48.435 47.22 -50.2 Q45.455 -51.966 45.455 -54.58 V-88.912 H17.654 Q15.04 -88.912 13.234 -90.685 Q11.428 -92.461 11.428 -95.086 Q11.428 -97.711 13.234 -99.543 Q15.04 -101.375 17.654 -101.375 H137.227 Q139.76 -101.375 141.611 -99.514 Q143.464 -97.655 143.464 -95.03 Q143.464 -92.404 141.611 -90.658 Q139.76 -88.912 137.227 -88.912 H109.426 V-54.58 Q109.426 -51.966 107.62 -50.2 Q105.814 -48.435 103.2 -48.435 H51.6 Z M17.654 30.742 Q15.04 30.742 13.234 28.928 Q11.428 27.114 11.428 24.489 Q11.428 21.944 13.234 20.158 Q15.04 18.371 17.654 18.371 H45.455 V-15.88 Q45.455 -18.494 47.22 -20.3 Q48.986 -22.106 51.6 -22.106 H103.2 Q105.814 -22.106 107.62 -20.3 Q109.426 -18.494 109.426 -15.88 V18.371 H137.227 Q139.76 18.371 141.611 20.185 Q143.464 22.001 143.464 24.545 Q143.464 27.171 141.611 28.956 Q139.76 30.742 137.227 30.742 H17.654 Z"/></g><g id="Medium-L" transform="matrix(1 0 0 1 1674.31 1556)"><path d="M51.6 -49.328 Q49.355 -49.328 47.853 -50.833 Q46.348 -52.335 46.348 -54.58 V-89.386 H18.075 Q15.828 -89.386 14.285 -90.897 Q12.742 -92.408 12.742 -94.665 Q12.742 -96.923 14.285 -98.464 Q15.828 -100.007 18.075 -100.007 H136.806 Q138.972 -100.007 140.534 -98.437 Q142.097 -96.866 142.097 -94.609 Q142.097 -92.351 140.534 -90.868 Q138.972 -89.386 136.806 -89.386 H108.533 V-54.58 Q108.533 -52.335 106.988 -50.833 Q105.445 -49.328 103.2 -49.328 H51.6 Z M18.075 29.428 Q15.828 29.428 14.285 27.877 Q12.742 26.326 12.742 24.068 Q12.742 21.891 14.285 20.367 Q15.828 18.845 18.075 18.845 H46.348 V-15.88 Q46.348 -18.125 47.853 -19.668 Q49.355 -21.213 51.6 -21.213 H103.2 Q105.445 -21.213 106.988 -19.668 Q108.533 -18.125 108.533 -15.88 V18.845 H136.806 Q138.972 18.845 140.534 20.396 Q142.097 21.948 142.097 24.125 Q142.097 26.382 140.534 27.904 Q138.972 29.428 136.806 29.428 H18.075 Z"/></g><g id="Regular-L" transform="matrix(1 0 0 1 1378.56 1556)"><path d="M51.6 -49.984 Q49.625 -49.984 48.315 -51.295 Q47.004 -52.605 47.004 -54.58 V-89.732 H18.383 Q16.407 -89.732 15.058 -91.052 Q13.706 -92.369 13.706 -94.357 Q13.706 -96.344 15.058 -97.674 Q16.407 -99.004 18.383 -99.004 H136.498 Q138.393 -99.004 139.744 -97.645 Q141.094 -96.287 141.094 -94.299 Q141.094 -92.312 139.744 -91.022 Q138.393 -89.732 136.498 -89.732 H107.876 V-54.58 Q107.876 -52.605 106.527 -51.295 Q105.175 -49.984 103.2 -49.984 H51.6 Z M18.383 28.464 Q16.407 28.464 15.058 27.104 Q13.706 25.747 13.706 23.758 Q13.706 21.853 15.058 20.522 Q16.407 19.192 18.383 19.192 H47.004 V-15.88 Q47.004 -17.855 48.315 -19.207 Q49.625 -20.556 51.6 -20.556 H103.2 Q105.175 -20.556 106.527 -19.207 Q107.876 -17.855 107.876 -15.88 V19.192 H136.498 Q138.393 19.192 139.744 20.551 Q141.094 21.909 141.094 23.817 Q141.094 25.803 139.744 27.133 Q138.393 28.464 136.498 28.464 H18.383 Z"/></g><g id="Light-L" transform="matrix(1 0 0 1 1082.77 1556)"><path d="M52.592 -51.1 Q50.634 -51.1 49.378 -52.358 Q48.12 -53.614 48.12 -55.572 V-89.02 H20.213 Q18.676 -89.02 17.649 -90 Q16.622 -90.981 16.622 -92.53 Q16.622 -94.08 17.649 -95.084 Q18.676 -96.089 20.213 -96.089 H134.7 Q136.124 -96.089 137.151 -95.054 Q138.178 -94.017 138.178 -92.467 Q138.178 -90.918 137.151 -89.968 Q136.124 -89.02 134.7 -89.02 H106.791 V-55.572 Q106.791 -53.614 105.478 -52.358 Q104.166 -51.1 102.208 -51.1 H52.592 Z M20.213 25.548 Q18.676 25.548 17.649 24.513 Q16.622 23.476 16.622 21.927 Q16.622 20.488 17.649 19.484 Q18.676 18.479 20.213 18.479 H48.12 V-14.888 Q48.12 -16.846 49.378 -18.158 Q50.634 -19.471 52.592 -19.471 H102.208 Q104.166 -19.471 105.478 -18.158 Q106.791 -16.846 106.791 -14.888 V18.479 H134.7 Q136.124 18.479 137.151 19.514 Q138.178 20.551 138.178 21.99 Q138.178 23.539 137.151 24.544 Q136.124 25.548 134.7 25.548 H20.213 Z"/></g><g id="Thin-L" transform="matrix(1 0 0 1 787.282 1556)"><path d="M53.585 -52.218 Q51.644 -52.218 50.441 -53.421 Q49.238 -54.624 49.238 -56.565 V-88.305 H22.041 Q20.943 -88.305 20.24 -88.949 Q19.535 -89.591 19.535 -90.703 Q19.535 -91.816 20.24 -92.495 Q20.943 -93.175 22.041 -93.175 H132.901 Q133.857 -93.175 134.56 -92.461 Q135.265 -91.747 135.265 -90.634 Q135.265 -89.521 134.56 -88.913 Q133.857 -88.305 132.901 -88.305 H105.706 V-56.565 Q105.706 -54.624 104.43 -53.421 Q103.156 -52.218 101.215 -52.218 H53.585 Z M22.041 22.635 Q20.943 22.635 20.24 21.92 Q19.535 21.206 19.535 20.093 Q19.535 19.124 20.24 18.445 Q20.943 17.765 22.041 17.765 H49.238 V-13.895 Q49.238 -15.836 50.441 -17.11 Q51.644 -18.386 53.585 -18.386 H101.215 Q103.156 -18.386 104.43 -17.11 Q105.706 -15.836 105.706 -13.895 V17.765 H132.901 Q133.857 17.765 134.56 18.479 Q135.265 19.193 135.265 20.163 Q135.265 21.275 134.56 21.954 Q133.857 22.635 132.901 22.635 H22.041 Z"/></g><g id="Ultralight-L" transform="matrix(1 0 0 1 491.205 1556)"><path d="M54.18 -52.887 Q52.248 -52.887 51.078 -54.058 Q49.907 -55.23 49.907 -57.16 V-87.878 H23.139 Q22.304 -87.878 21.795 -88.318 Q21.285 -88.759 21.285 -89.608 Q21.285 -90.458 21.795 -90.942 Q22.304 -91.426 23.139 -91.426 H131.822 Q132.494 -91.426 133.005 -90.905 Q133.515 -90.384 133.515 -89.534 Q133.515 -88.684 133.005 -88.281 Q132.494 -87.878 131.822 -87.878 H105.054 V-57.16 Q105.054 -55.23 103.803 -54.058 Q102.55 -52.887 100.62 -52.887 H54.18 Z M23.139 20.885 Q22.304 20.885 21.795 20.364 Q21.285 19.843 21.285 18.994 Q21.285 18.305 21.795 17.821 Q22.304 17.338 23.139 17.338 H49.907 V-13.3 Q49.907 -15.232 51.078 -16.483 Q52.248 -17.734 54.18 -17.734 H100.62 Q102.55 -17.734 103.803 -16.483 Q105.054 -15.232 105.054 -13.3 V17.338 H131.822 Q132.494 17.338 133.005 17.858 Q133.515 18.379 133.515 19.068 Q133.515 19.918 133.005 20.401 Q132.494 20.885 131.822 20.885 H23.139 Z"/></g><g id="Bold-M" transform="matrix(1 0 0 1 2281.8 1126)"><path d="M40 -42.667 Q36.938 -42.667 34.688 -44.917 Q32.438 -47.167 32.438 -50.23 V-73.167 H14.562 Q11.5 -73.167 9.25 -75.417 Q7 -77.667 7 -80.73 Q7 -83.792 9.25 -86.042 Q11.5 -88.292 14.562 -88.292 H105.438 Q108.5 -88.292 110.75 -86.042 Q113 -83.792 113 -80.73 Q113 -77.667 110.75 -75.417 Q108.5 -73.167 105.438 -73.167 H87.562 V-50.23 Q87.562 -47.167 85.312 -44.917 Q83.062 -42.667 80 -42.667 H40 Z M14.562 17.77 Q11.5 17.77 9.25 15.52 Q7 13.27 7 10.208 Q7 7.145 9.25 4.895 Q11.5 2.645 14.562 2.645 H32.438 V-20.23 Q32.438 -23.292 34.688 -25.542 Q36.938 -27.792 40 -27.792 H80 Q83.062 -27.792 85.312 -25.542 Q87.562 -23.292 87.562 -20.23 V2.645 H105.438 Q108.5 2.645 110.75 4.895 Q113 7.145 113 10.208 Q113 13.27 110.75 15.52 Q108.5 17.77 105.438 17.77 H14.562 Z"/></g><g id="Semibold-M" transform="matrix(1 0 0 1 1985.97 1126)"><path d="M40 -43.917 Q37.426 -43.917 35.557 -45.787 Q33.688 -47.656 33.688 -50.23 V-73.82 H15.16 Q12.588 -73.82 10.717 -75.689 Q8.848 -77.559 8.848 -80.132 Q8.848 -82.705 10.717 -84.575 Q12.588 -86.445 15.16 -86.445 H104.84 Q107.412 -86.445 109.282 -84.575 Q111.153 -82.705 111.153 -80.132 Q111.153 -77.559 109.282 -75.689 Q107.412 -73.82 104.84 -73.82 H86.312 V-50.23 Q86.312 -47.656 84.442 -45.787 Q82.574 -43.917 80 -43.917 H40 Z M15.16 15.923 Q12.588 15.923 10.717 14.053 Q8.848 12.183 8.848 9.61 Q8.848 7.036 10.717 5.166 Q12.588 3.298 15.16 3.298 H33.688 V-20.23 Q33.688 -22.804 35.557 -24.672 Q37.426 -26.542 40 -26.542 H80 Q82.574 -26.542 84.442 -24.672 Q86.312 -22.804 86.312 -20.23 V3.298 H104.84 Q107.412 3.298 109.282 5.166 Q111.153 7.036 111.153 9.61 Q111.153 12.183 109.282 14.053 Q107.412 15.923 104.84 15.923 H15.16 Z"/></g><g id="Medium-M" transform="matrix(1 0 0 1 1689.91 1126)"><path d="M40 -44.855 Q37.794 -44.855 36.209 -46.439 Q34.625 -48.024 34.625 -50.23 V-74.309 H15.609 Q13.402 -74.309 11.818 -75.892 Q10.234 -77.477 10.234 -79.684 Q10.234 -81.89 11.818 -83.475 Q13.402 -85.059 15.609 -85.059 H104.391 Q106.597 -85.059 108.183 -83.475 Q109.766 -81.89 109.766 -79.684 Q109.766 -77.477 108.183 -75.892 Q106.597 -74.309 104.391 -74.309 H85.375 V-50.23 Q85.375 -48.024 83.791 -46.439 Q82.206 -44.855 80 -44.855 H40 Z M15.609 14.536 Q13.402 14.536 11.818 12.953 Q10.234 11.368 10.234 9.161 Q10.234 6.955 11.818 5.37 Q13.402 3.786 15.609 3.786 H34.625 V-20.23 Q34.625 -22.436 36.209 -24.021 Q37.794 -25.605 40 -25.605 H80 Q82.206 -25.605 83.791 -24.021 Q85.375 -22.436 85.375 -20.23 V3.786 H104.391 Q106.597 3.786 108.183 5.37 Q109.766 6.955 109.766 9.161 Q109.766 11.368 108.183 12.953 Q106.597 14.536 104.391 14.536 H15.609 Z"/></g><g id="Regular-M" transform="matrix(1 0 0 1 1394.06 1126)"><path d="M40 -45.542 Q38.062 -45.542 36.688 -46.917 Q35.312 -48.292 35.312 -50.23 V-74.667 H15.938 Q14 -74.667 12.625 -76.042 Q11.25 -77.417 11.25 -79.355 Q11.25 -81.292 12.625 -82.667 Q14 -84.042 15.938 -84.042 H104.062 Q106 -84.042 107.375 -82.667 Q108.75 -81.292 108.75 -79.355 Q108.75 -77.417 107.375 -76.042 Q106 -74.667 104.062 -74.667 H84.688 V-50.23 Q84.688 -48.292 83.312 -46.917 Q81.938 -45.542 80 -45.542 H40 Z M15.938 13.52 Q14 13.52 12.625 12.145 Q11.25 10.77 11.25 8.833 Q11.25 6.895 12.625 5.52 Q14 4.145 15.938 4.145 H35.312 V-20.23 Q35.312 -22.167 36.688 -23.542 Q38.062 -24.917 40 -24.917 H80 Q81.938 -24.917 83.312 -23.542 Q84.688 -22.167 84.688 -20.23 V4.145 H104.062 Q106 4.145 107.375 5.52 Q108.75 6.895 108.75 8.833 Q108.75 10.77 107.375 12.145 Q106 13.52 104.062 13.52 H15.938 Z"/></g><g id="Light-M" transform="matrix(1 0 0 1 1098.18 1126)"><path d="M40.769 -46.745 Q38.987 -46.745 37.751 -47.981 Q36.515 -49.217 36.515 -50.999 V-74.787 H17.019 Q15.565 -74.787 14.537 -75.804 Q13.51 -76.82 13.51 -78.275 Q13.51 -79.73 14.537 -80.756 Q15.565 -81.782 17.019 -81.782 H103.005 Q104.435 -81.782 105.463 -80.755 Q106.49 -79.726 106.49 -78.271 Q106.49 -76.816 105.463 -75.802 Q104.435 -74.787 103.005 -74.787 H83.51 V-50.999 Q83.51 -49.217 82.261 -47.981 Q81.013 -46.745 79.231 -46.745 H40.769 Z M17.019 11.26 Q15.565 11.26 14.537 10.233 Q13.51 9.204 13.51 7.749 Q13.51 6.318 14.537 5.291 Q15.565 4.265 17.019 4.265 H36.515 V-19.461 Q36.515 -21.242 37.751 -22.491 Q38.987 -23.74 40.769 -23.74 H79.231 Q81.013 -23.74 82.261 -22.491 Q83.51 -21.242 83.51 -19.461 V4.265 H103.005 Q104.435 4.265 105.463 5.294 Q106.49 6.321 106.49 7.753 Q106.49 9.208 105.463 10.234 Q104.435 11.26 103.005 11.26 H17.019 Z"/></g><g id="Thin-M" transform="matrix(1 0 0 1 802.565 1126)"><path d="M41.539 -47.946 Q39.914 -47.946 38.815 -49.045 Q37.716 -50.144 37.716 -51.769 V-74.907 H18.101 Q17.13 -74.907 16.45 -75.565 Q15.769 -76.222 15.769 -77.195 Q15.769 -78.167 16.45 -78.845 Q17.13 -79.524 18.101 -79.524 H101.948 Q102.87 -79.524 103.55 -78.842 Q104.231 -78.161 104.231 -77.189 Q104.231 -76.215 103.55 -75.561 Q102.87 -74.907 101.948 -74.907 H82.331 V-51.769 Q82.331 -50.144 81.209 -49.045 Q80.086 -47.946 78.461 -47.946 H41.539 Z M18.101 9.001 Q17.13 9.001 16.45 8.32 Q15.769 7.639 15.769 6.666 Q15.769 5.741 16.45 5.064 Q17.13 4.385 18.101 4.385 H37.716 V-18.691 Q37.716 -20.316 38.815 -21.439 Q39.914 -22.561 41.539 -22.561 H78.461 Q80.086 -22.561 81.209 -21.439 Q82.331 -20.316 82.331 -18.691 V4.385 H101.948 Q102.87 4.385 103.55 5.066 Q104.231 5.748 104.231 6.673 Q104.231 7.645 103.55 8.323 Q102.87 9.001 101.948 9.001 H18.101 Z"/></g><g id="Ultralight-M" transform="matrix(1 0 0 1 506.415 1126)"><path d="M42 -48.667 Q40.469 -48.667 39.454 -49.684 Q38.438 -50.699 38.438 -52.23 V-74.98 H18.75 Q18.069 -74.98 17.596 -75.422 Q17.125 -75.864 17.125 -76.547 Q17.125 -77.23 17.596 -77.699 Q18.069 -78.167 18.75 -78.167 H101.312 Q101.931 -78.167 102.403 -77.694 Q102.875 -77.221 102.875 -76.537 Q102.875 -75.855 102.403 -75.417 Q101.931 -74.98 101.312 -74.98 H81.625 V-52.23 Q81.625 -50.699 80.579 -49.684 Q79.531 -48.667 78 -48.667 H42 Z M18.75 7.645 Q18.069 7.645 17.596 7.171 Q17.125 6.699 17.125 6.015 Q17.125 5.395 17.596 4.926 Q18.069 4.458 18.75 4.458 H38.438 V-18.23 Q38.438 -19.761 39.454 -20.809 Q40.469 -21.855 42 -21.855 H78 Q79.531 -21.855 80.579 -20.809 Q81.625 -19.761 81.625 -18.23 V4.458 H101.312 Q101.931 4.458 102.403 4.931 Q102.875 5.404 102.875 6.025 Q102.875 6.708 102.403 7.176 Q101.931 7.645 101.312 7.645 H18.75 Z"/></g><g id="Bold-S" transform="matrix(1 0 0 1 2294.23 696)"><path d="M31.955 -42.676 Q29.706 -42.676 28.044 -44.338 Q26.382 -46 26.382 -48.248 V-64.374 H12.673 Q10.425 -64.374 8.763 -66.03 Q7.101 -67.686 7.101 -69.925 Q7.101 -72.165 8.763 -73.842 Q10.425 -75.518 12.673 -75.518 H82.007 Q84.255 -75.518 85.917 -73.862 Q87.579 -72.206 87.579 -69.967 Q87.579 -67.727 85.917 -66.05 Q84.255 -64.374 82.007 -64.374 H68.298 V-48.276 Q68.298 -46.029 66.636 -44.353 Q64.974 -42.676 62.726 -42.676 H31.955 Z M12.673 5.009 Q10.425 5.009 8.763 3.353 Q7.101 1.697 7.101 -0.543 Q7.101 -2.782 8.763 -4.459 Q10.425 -6.136 12.673 -6.136 H26.382 V-22.184 Q26.382 -24.431 28.044 -26.107 Q29.706 -27.784 31.955 -27.784 H62.726 Q64.974 -27.784 66.636 -26.122 Q68.298 -24.46 68.298 -22.211 V-6.136 H82.007 Q84.255 -6.136 85.917 -4.48 Q87.579 -2.824 87.579 -0.584 Q87.579 1.656 85.917 3.332 Q84.255 5.009 82.007 5.009 H12.673 Z"/></g><g id="Semibold-S" transform="matrix(1 0 0 1 1998.1 696)"><path d="M31.955 -43.662 Q30.091 -43.662 28.73 -45.024 Q27.368 -46.385 27.368 -48.248 V-64.889 H13.145 Q11.283 -64.889 9.921 -66.244 Q8.559 -67.6 8.559 -69.454 Q8.559 -71.307 9.921 -72.684 Q11.283 -74.061 13.145 -74.061 H81.535 Q83.397 -74.061 84.759 -72.705 Q86.121 -71.349 86.121 -69.495 Q86.121 -67.641 84.759 -66.264 Q83.397 -64.889 81.535 -64.889 H67.312 V-48.276 Q67.312 -46.415 65.95 -45.039 Q64.589 -43.662 62.726 -43.662 H31.955 Z M13.145 3.551 Q11.283 3.551 9.921 2.195 Q8.559 0.84 8.559 -1.014 Q8.559 -2.868 9.921 -4.245 Q11.283 -5.621 13.145 -5.621 H27.368 V-22.184 Q27.368 -24.045 28.73 -25.421 Q30.091 -26.798 31.955 -26.798 H62.726 Q64.589 -26.798 65.95 -25.436 Q67.312 -24.075 67.312 -22.211 V-5.621 H81.535 Q83.397 -5.621 84.759 -4.266 Q86.121 -2.91 86.121 -1.055 Q86.121 0.798 84.759 2.175 Q83.397 3.551 81.535 3.551 H13.145 Z"/></g><g id="Medium-S" transform="matrix(1 0 0 1 1701.85 696)"><path d="M31.955 -44.402 Q30.381 -44.402 29.244 -45.538 Q28.108 -46.675 28.108 -48.248 V-65.274 H13.499 Q11.926 -65.274 10.789 -66.404 Q9.652 -67.536 9.652 -69.1 Q9.652 -70.664 10.789 -71.816 Q11.926 -72.967 13.499 -72.967 H81.181 Q82.754 -72.967 83.891 -71.837 Q85.028 -70.705 85.028 -69.141 Q85.028 -67.577 83.891 -66.425 Q82.754 -65.274 81.181 -65.274 H66.572 V-48.276 Q66.572 -46.705 65.436 -45.553 Q64.299 -44.402 62.726 -44.402 H31.955 Z M13.499 2.458 Q11.926 2.458 10.789 1.327 Q9.652 0.196 9.652 -1.368 Q9.652 -2.932 10.789 -4.084 Q11.926 -5.235 13.499 -5.235 H28.108 V-22.184 Q28.108 -23.755 29.244 -24.907 Q30.381 -26.058 31.955 -26.058 H62.726 Q64.299 -26.058 65.436 -24.922 Q66.572 -23.785 66.572 -22.211 V-5.235 H81.181 Q82.754 -5.235 83.891 -4.105 Q85.028 -2.974 85.028 -1.41 Q85.028 0.155 83.891 1.307 Q82.754 2.458 81.181 2.458 H13.499 Z"/></g><g id="Regular-S" transform="matrix(1 0 0 1 1405.73 696)"><path d="M31.955 -44.945 Q30.593 -44.945 29.622 -45.916 Q28.651 -46.887 28.651 -48.248 V-65.557 H13.758 Q12.397 -65.557 11.426 -66.523 Q10.454 -67.488 10.454 -68.84 Q10.454 -70.193 11.426 -71.179 Q12.397 -72.165 13.758 -72.165 H80.922 Q82.283 -72.165 83.254 -71.2 Q84.226 -70.234 84.226 -68.882 Q84.226 -67.53 83.254 -66.543 Q82.283 -65.557 80.922 -65.557 H66.029 V-48.276 Q66.029 -46.917 65.058 -45.931 Q64.087 -44.945 62.726 -44.945 H31.955 Z M13.758 1.656 Q12.397 1.656 11.426 0.69 Q10.454 -0.275 10.454 -1.627 Q10.454 -2.98 11.426 -3.966 Q12.397 -4.952 13.758 -4.952 H28.651 V-22.184 Q28.651 -23.543 29.622 -24.529 Q30.593 -25.515 31.955 -25.515 H62.726 Q64.087 -25.515 65.058 -24.544 Q66.029 -23.573 66.029 -22.211 V-4.952 H80.922 Q82.283 -4.952 83.254 -3.987 Q84.226 -3.021 84.226 -1.669 Q84.226 -0.317 83.254 0.67 Q82.283 1.656 80.922 1.656 H13.758 Z"/></g><g id="Light-S" transform="matrix(1 0 0 1 1109.75 696)"><path d="M32.561 -45.893 Q31.323 -45.893 30.461 -46.755 Q29.599 -47.617 29.599 -48.855 V-65.652 H14.611 Q13.632 -65.652 12.935 -66.334 Q12.237 -67.017 12.237 -67.988 Q12.237 -68.96 12.935 -69.671 Q13.632 -70.382 14.611 -70.382 H80.087 Q81.048 -70.382 81.745 -69.691 Q82.443 -68.998 82.443 -68.027 Q82.443 -67.055 81.745 -66.354 Q81.048 -65.652 80.087 -65.652 H65.1 V-48.883 Q65.1 -47.647 64.229 -46.77 Q63.357 -45.893 62.119 -45.893 H32.561 Z M14.611 -0.127 Q13.632 -0.127 12.935 -0.819 Q12.237 -1.511 12.237 -2.483 Q12.237 -3.435 12.935 -4.146 Q13.632 -4.857 14.611 -4.857 H29.599 V-21.577 Q29.599 -22.813 30.461 -23.7 Q31.323 -24.586 32.561 -24.586 H62.119 Q63.357 -24.586 64.229 -23.715 Q65.1 -22.843 65.1 -21.605 V-4.857 H80.087 Q81.048 -4.857 81.745 -4.165 Q82.443 -3.474 82.443 -2.521 Q82.443 -1.55 81.745 -0.838 Q81.048 -0.127 80.087 -0.127 H14.611 Z"/></g><g id="Thin-S" transform="matrix(1 0 0 1 814.015 696)"><path d="M33.169 -46.841 Q32.054 -46.841 31.301 -47.595 Q30.547 -48.348 30.547 -49.463 V-65.747 H15.465 Q14.867 -65.747 14.444 -66.146 Q14.02 -66.545 14.02 -67.136 Q14.02 -67.727 14.444 -68.163 Q14.867 -68.6 15.465 -68.6 H79.253 Q79.813 -68.6 80.236 -68.182 Q80.66 -67.763 80.66 -67.173 Q80.66 -66.581 80.236 -66.164 Q79.813 -65.747 79.253 -65.747 H64.17 V-49.489 Q64.17 -48.378 63.398 -47.609 Q62.626 -46.841 61.511 -46.841 H33.169 Z M15.465 -1.91 Q14.867 -1.91 14.444 -2.328 Q14.02 -2.746 14.02 -3.337 Q14.02 -3.89 14.444 -4.326 Q14.867 -4.763 15.465 -4.763 H30.547 V-20.971 Q30.547 -22.082 31.301 -22.869 Q32.054 -23.656 33.169 -23.656 H61.511 Q62.626 -23.656 63.398 -22.884 Q64.17 -22.112 64.17 -20.997 V-4.763 H79.253 Q79.813 -4.763 80.236 -4.345 Q80.66 -3.926 80.66 -3.373 Q80.66 -2.782 80.236 -2.346 Q79.813 -1.91 79.253 -1.91 H15.465 Z"/></g><g id="Ultralight-S" transform="matrix(1 0 0 1 517.792 696)"><path d="M33.532 -47.41 Q32.492 -47.41 31.805 -48.098 Q31.116 -48.786 31.116 -49.826 V-65.804 H15.977 Q15.607 -65.804 15.349 -66.033 Q15.09 -66.262 15.09 -66.624 Q15.09 -66.987 15.349 -67.258 Q15.607 -67.53 15.977 -67.53 H78.752 Q79.073 -67.53 79.332 -67.276 Q79.59 -67.022 79.59 -66.66 Q79.59 -66.297 79.332 -66.05 Q79.073 -65.804 78.752 -65.804 H63.613 V-49.854 Q63.613 -48.816 62.901 -48.113 Q62.188 -47.41 61.148 -47.41 H33.532 Z M15.977 -2.98 Q15.607 -2.98 15.349 -3.233 Q15.09 -3.488 15.09 -3.849 Q15.09 -4.163 15.349 -4.434 Q15.607 -4.706 15.977 -4.706 H31.116 V-20.606 Q31.116 -21.644 31.805 -22.372 Q32.492 -23.099 33.532 -23.099 H61.148 Q62.188 -23.099 62.901 -22.386 Q63.613 -21.674 63.613 -20.633 V-4.706 H78.752 Q79.073 -4.706 79.332 -4.452 Q79.59 -4.198 79.59 -3.885 Q79.59 -3.522 79.332 -3.251 Q79.073 -2.98 78.752 -2.98 H15.977 Z"/></g></g></svg>