<svg xmlns="http://www.w3.org/2000/svg" height="48" viewBox="0 -960 960 960" width="48"><path d="M243.17-489.83q94.35 0 160.68-66.45 66.32-66.46 66.32-160.55h-56.65q0 71.74-49.19 121.05-49.2 49.3-121.16 49.3v56.65Zm0-132.91q40.05 0 69.29-27.71 29.24-27.71 29.24-66.38h-98.53v94.09Zm-58.08 520.83q-33.5 0-58.34-24.84-24.84-24.84-24.84-58.34v-589.82q0-33.74 24.84-58.74t58.34-25h589.82q33.74 0 58.74 25t25 58.74v589.82q0 33.5-25 58.34-25 24.84-58.74 24.84H185.09Zm0-83.18h589.82v-589.82H185.09v589.82Zm0 0v-589.82 589.82Zm82.3-84.48h427.22q11.91 0 17.65-11.48 5.74-11.48-1.39-22.04L595.7-460.39q-6.74-7-17.35-7.07-10.61-.06-16.18 8.07L446-310.91l-75.61-105.05q-7.06-8.13-17.79-7.84-10.73.28-16.3 7.84l-85.17 112.87q-8.13 10.56-2.39 22.04 5.74 11.48 18.65 11.48Z"/></svg>