<svg xmlns="http://www.w3.org/2000/svg" height="40" viewBox="0 96 960 960" width="40"><path d="M259.833 810.333 244.5 794.167q44.024-42.395 67.179-99.257 23.154-56.863 23.154-118.91t-23.154-118.91Q288.524 400.228 244.5 357l15.333-16.333q46.5 46.5 71.833 107.603Q357 509.373 357 575q0 65.631-25.334 127.232-25.333 61.601-71.833 108.101Zm-91.116-91L152.5 701.167q25.667-25.005 39-57.621 13.333-32.616 13.333-68.54 0-35.923-13.333-68.048T152.5 449l16.217-17.333q29.45 28.987 44.866 65.583Q229 533.847 229 574.979q0 41.138-15.417 78.246-15.416 37.108-44.866 66.108ZM468.833 882.5v-613H492v613h-23.167ZM732 587.167V564h54.5v23.167H732Zm-130.833 0V564h55.666v23.167h-55.666Z"/></svg>