<svg xmlns="http://www.w3.org/2000/svg" height="40" viewBox="0 -960 960 960" width="40"><path d="M268-132q-23.85 0-39.93-16.07Q212-164.15 212-188v-584q0-23.85 16.07-39.93Q244.15-828 268-828h306.67L748-622v434.67l-185.33-186q11-15 16.83-30.96 5.83-15.95 5.83-35.71 0-44.33-30.5-74.83T480-545.33q-44.33 0-74.83 30.5T374.67-440q0 44.33 30.5 74.83t74.83 30.5q18.24 0 33.62-4.66Q529-344 546.67-356.67l188.66 189.34q-13 17-32.33 26.16-19.33 9.17-40.33 9.17H268Zm211.97-226.67q-33.64 0-57.47-23.86t-23.83-57.5q0-33.64 23.86-57.47t57.5-23.83q33.64 0 57.47 23.86t23.83 57.5q0 33.64-23.86 57.47t-57.5 23.83Z"/></svg>