<svg xmlns="http://www.w3.org/2000/svg" height="48" width="48"><path d="M24 30.15Q25.75 30.15 26.925 28.975Q28.1 27.8 28.1 26.05Q28.1 24.3 26.925 23.125Q25.75 21.95 24 21.95Q22.25 21.95 21.075 23.125Q19.9 24.3 19.9 26.05Q19.9 27.8 21.075 28.975Q22.25 30.15 24 30.15ZM11.25 44.7Q9.65 44.7 8.475 43.525Q7.3 42.35 7.3 40.75V7.25Q7.3 5.6 8.475 4.425Q9.65 3.25 11.25 3.25H29.9L40.75 15.65V40.5L30.45 30.25Q31.1 29.45 31.425 28.4Q31.75 27.35 31.75 26.05Q31.75 22.8 29.5 20.55Q27.25 18.3 24 18.3Q20.75 18.3 18.525 20.55Q16.3 22.8 16.3 26.05Q16.3 29.35 18.525 31.55Q20.75 33.75 24 33.75Q25.3 33.75 26.275 33.525Q27.25 33.3 28.25 32.65L39.3 43.75Q38.75 44.2 38.075 44.45Q37.4 44.7 36.75 44.7Z"/></svg>