<svg xmlns="http://www.w3.org/2000/svg" height="48" width="48"><path d="M24 36.85q7.05 0 11.975-4.925T40.9 20q0-1.95-.425-3.75T39.3 12.8q-1.4 1-3 1.55t-3.3.55q-2.75 0-5.075-1.4T24 9.8q-1.6 2.3-3.925 3.7Q17.75 14.9 15 14.9q-1.7 0-3.3-.525-1.6-.525-2.95-1.575-.75 1.65-1.175 3.475Q7.15 18.1 7.15 20q0 7 4.925 11.925Q17 36.85 24 36.85ZM17.75 24.8q1.15 0 1.925-.775.775-.775.775-1.925 0-1.1-.8-1.875-.8-.775-1.9-.775-1.15 0-1.9.775t-.75 1.925q0 1.1.775 1.875.775.775 1.875.775Zm12.55 0q1.15 0 1.925-.775Q33 23.25 33 22.1q0-1.1-.8-1.875-.8-.775-1.9-.775-1.15 0-1.9.775t-.75 1.925q0 1.1.775 1.875.775.775 1.875.775ZM15 12.05q3.2 0 5.4-2.2t2.2-5.35V3.15q-3.85.4-7.05 2.275-3.2 1.875-5.3 4.825 1 .85 2.2 1.325 1.2.475 2.55.475Zm18 0q1.35 0 2.575-.475T37.8 10.25q-2.1-2.95-5.3-4.825-3.2-1.875-7.05-2.275V4.5q0 3.15 2.2 5.35 2.2 2.2 5.35 2.2ZM3.45 43.75q-1.25 0-2.125-.925T.6 40.6l1.85-20.7q.4-4.15 2.25-7.75 1.85-3.6 4.75-6.25t6.625-4.15Q19.8.25 24 .25q4.2 0 7.925 1.525Q35.65 3.3 38.55 5.925q2.9 2.625 4.75 6.225 1.85 3.6 2.25 7.75l1.9 20.7q.1 1.3-.75 2.225t-2.1.925Zm20.55-4q-6.85 0-12.15-4.175Q6.55 31.4 4.85 25l-1.4 15.85H44.6L43.15 25q-1.7 6.4-6.95 10.575Q30.95 39.75 24 39.75Zm1.45-36.6Zm-2.85 0Zm1.4 37.7H44.6 3.45 24Z"/></svg>