<svg xmlns="http://www.w3.org/2000/svg" height="24" width="24"><path d="M16.675 10.025Q16.45 10.025 16.262 9.938Q16.075 9.85 15.925 9.7L12.15 5.875Q11.775 5.5 11.838 5.05Q11.9 4.6 12.3 4.35Q13.325 3.75 14.413 3.425Q15.5 3.1 16.675 3.1Q17.825 3.1 18.938 3.437Q20.05 3.775 21.075 4.4Q21.475 4.65 21.538 5.1Q21.6 5.55 21.225 5.9L17.425 9.725Q17.25 9.875 17.062 9.95Q16.875 10.025 16.675 10.025ZM19.75 20.925Q16.6 20.925 13.588 19.5Q10.575 18.075 8.238 15.737Q5.9 13.4 4.463 10.387Q3.025 7.375 3.025 4.225Q3.025 3.7 3.375 3.362Q3.725 3.025 4.25 3.025H8.125Q8.6 3.025 8.925 3.287Q9.25 3.55 9.35 4.025L10 7.3Q10.075 7.7 9.988 8.037Q9.9 8.375 9.6 8.65L7.225 11Q8.225 12.675 9.688 14.137Q11.15 15.6 12.95 16.7L15.35 14.325Q15.625 14.075 15.975 13.962Q16.325 13.85 16.725 13.925L19.95 14.575Q20.425 14.7 20.7 15.025Q20.975 15.35 20.975 15.825V19.725Q20.975 20.225 20.625 20.575Q20.275 20.925 19.75 20.925Z"/></svg>