<svg xmlns="http://www.w3.org/2000/svg" height="20" viewBox="0 -960 960 960" width="20"><path d="M623-402q44.83 0 70.91-26.09Q720-454.17 720-499v-27q0-44.83-26.09-71.41Q667.83-624 623-624h-86v-29h135q19.9 0 33.95-14.49Q720-681.98 720-701.79q0-19.81-14.05-34.01T672-750H504q-27.3 0-45.65 19.05Q440-711.9 440-686v96q0 25.9 18.35 44.95Q476.7-526 504-526h119v27H488q-19.9 0-33.95 14.07-14.05 14.07-14.05 34t14.55 34.43Q469.1-402 489-402h134ZM350-217q-52.43 0-90.21-37.79Q222-292.57 222-345v-460q0-52.42 37.79-90.21Q297.57-933 350-933h460q52.42 0 89.71 37.79Q937-857.42 937-805v460q0 52.43-37.29 90.21Q862.42-217 810-217H350ZM150-18q-52.43 0-89.71-37.29Q23-92.57 23-145v-524q0-25.9 18.29-44.95Q59.58-733 86.29-733t45.21 19.05Q150-694.9 150-669v524h524q25.9 0 44.95 18.29 19.05 18.29 19.05 45T718.95-36.5Q699.9-18 674-18H150Z"/></svg>