<svg xmlns="http://www.w3.org/2000/svg" height="20" viewBox="0 -960 960 960" width="20"><path d="M168-168q-40.7 0-69.35-28.66Q70-225.32 70-266.04v-428.24Q70-735 98.65-763.5T168-792h624q40.7 0 69.35 28.65Q890-734.7 890-694v82q0 27-25 40t-48.39-2.3q-5.61-2.7-11.91-5.33-6.3-2.62-12.7-5.37v-109H528v145q-53 36-87.5 110T406-315q0 22 2 43.5t8 43.5q8 22-3.5 41T379-168H168Zm522.95 32q-75.98 0-128.46-52.73Q510-241.45 510-317q0-76 52.5-128.5T691-498q76 0 128.5 52.49Q872-393.03 872-317.05q0 23.26-6.5 45.16Q859-250 848-229l62 62q15 15 15 34t-15 34q-15 15-34.5 15T841-99l-62-61q-21 11-42.89 17.5-21.9 6.5-45.16 6.5Zm-.18-98q34.23 0 58.73-24.27 24.5-24.28 24.5-58.5 0-34.23-24.27-58.73-24.28-24.5-58.5-24.5-34.23 0-58.73 24.27-24.5 24.28-24.5 58.5 0 34.23 24.27 58.73 24.28 24.5 58.5 24.5Z"/></svg>