<svg xmlns="http://www.w3.org/2000/svg" height="40" viewBox="0 -960 960 960" width="40"><path d="M152.32-192.32v-17.8 17.8-447.82 447.82Zm-88.15 88.15v-624.5h241.32v-181.48h349.02v181.48H896.2v295.53q-19.03-17.38-41.24-30.85-22.21-13.47-47.28-21.89v-154.26H152.32v447.82h310.59q3.86 24.07 12.31 46.11 8.45 22.04 21.3 42.04H64.17Zm329.47-624.5h172.72V-822H393.64v93.33ZM720-44.67q-80.33 0-137.83-57.5-57.5-57.5-57.5-137.83 0-80.33 57.5-137.83 57.5-57.5 137.83-57.5 80.33 0 137.83 57.5 57.5 57.5 57.5 137.83 0 80.33-57.5 137.83-57.5 57.5-137.83 57.5Zm0-75 120.42-120.79L812-268.32l-71.57 71.57v-163.58h-40.3v163.58L628-268.32l-27.86 27.86L720-119.67Z"/></svg>