<svg xmlns="http://www.w3.org/2000/svg" version="1.1" width="3300" height="2000"><g id="Notes"><style>
    text {
      font-family: monospace;
      text-anchor: middle;
    }
    text.emphasis {
      font-weight:bold;
    }
    text.lanchor {
      text-anchor: start;
    }
  </style><rect height="2200" id="artboard" fill="white" width="3300" x="0" y="0"/><line id="" style="fill:none;stroke:black;stroke-width:0.5;" x1="263" x2="3036" y1="292" y2="292"/><text class="lanchor emphasis" transform="matrix(1 0 0 1 263 322)">Weight/Scale Variations</text><text transform="matrix(1 0 0 1 559.711 322)">Ultralight</text><text transform="matrix(1 0 0 1 856.422 322)">Thin</text><text transform="matrix(1 0 0 1 1153.13 322)">Light</text><text transform="matrix(1 0 0 1 1449.84 322)">Regular</text><text transform="matrix(1 0 0 1 1746.56 322)">Medium</text><text transform="matrix(1 0 0 1 2043.27 322)">Semibold</text><text transform="matrix(1 0 0 1 2339.98 322)">Bold</text><text transform="matrix(1 0 0 1 2636.69 322)">Heavy</text><text transform="matrix(1 0 0 1 2933.4 322)">Black</text><text id="template-version" style="text-anchor: end;" transform="matrix(1 0 0 1 3036 1933)">Template v.1.0</text><text class="lanchor" transform="matrix(1 0 0 1 263 726)">Small</text><text class="lanchor" transform="matrix(1 0 0 1 263 1156)">Medium</text><text class="lanchor" transform="matrix(1 0 0 1 263 1586)">Large</text></g><g id="Guides"><g id="H-reference" style="fill:#27AAE1;stroke:none;" transform="matrix(1 0 0 1 339 696)"><path d="M 54.9316 0 L 57.666 0 L 30.5664 -70.459 L 28.0762 -70.459 L 0.976562 0 L 3.66211 0 L 12.9395 -24.4629 L 45.7031 -24.4629 Z M 29.1992 -67.0898 L 29.4434 -67.0898 L 44.8242 -26.709 L 13.8184 -26.709 Z"/></g><line id="Baseline-S" style="fill:none;stroke:#27AAE1;opacity:1;stroke-width:0.577;" x1="263" x2="3036" y1="696" y2="696"/><line id="Capline-S" style="fill:none;stroke:#27AAE1;opacity:1;stroke-width:0.577;" x1="263" x2="3036" y1="625.541" y2="625.541"/><g id="H-reference" style="fill:#27AAE1;stroke:none;" transform="matrix(1 0 0 1 339 1126)"><path d="M 54.9316 0 L 57.666 0 L 30.5664 -70.459 L 28.0762 -70.459 L 0.976562 0 L 3.66211 0 L 12.9395 -24.4629 L 45.7031 -24.4629 Z M 29.1992 -67.0898 L 29.4434 -67.0898 L 44.8242 -26.709 L 13.8184 -26.709 Z"/></g><line id="Baseline-M" style="fill:none;stroke:#27AAE1;opacity:1;stroke-width:0.577;" x1="263" x2="3036" y1="1126" y2="1126"/><line id="Capline-M" style="fill:none;stroke:#27AAE1;opacity:1;stroke-width:0.577;" x1="263" x2="3036" y1="1055.54" y2="1055.54"/><g id="H-reference" style="fill:#27AAE1;stroke:none;" transform="matrix(1 0 0 1 339 1556)"><path d="M 54.9316 0 L 57.666 0 L 30.5664 -70.459 L 28.0762 -70.459 L 0.976562 0 L 3.66211 0 L 12.9395 -24.4629 L 45.7031 -24.4629 Z M 29.1992 -67.0898 L 29.4434 -67.0898 L 44.8242 -26.709 L 13.8184 -26.709 Z"/></g><line id="Baseline-L" style="fill:none;stroke:#27AAE1;opacity:1;stroke-width:0.577;" x1="263" x2="3036" y1="1556" y2="1556"/><line id="Capline-L" style="fill:none;stroke:#27AAE1;opacity:1;stroke-width:0.577;" x1="263" x2="3036" y1="1485.54" y2="1485.54"/><rect height="119.336" id="left-margin" style="fill:darkred;stroke:none;opacity:0.4;" width="12.4512" x="1394.06" y="1030.79"/><rect height="119.336" id="right-margin" style="fill:darkgreen;stroke:none;opacity:0.4;" width="12.4512" x="1502.5112" y="1030.79"/><rect x="1406.5112" y="1045" width="96" height="96" fill="none" stroke="blue" stroke-dasharray="5"/><rect x="1394.06" y="1030.79" width="120.9024" height="119.336" fill="none" stroke="blue"/></g><g id="Symbols"><g id="Bold-L" transform="matrix(1 0 0 1 2266 1556)"><path d="M23.059 9.598 V-40.39 L15.319 -34.262 Q13.061 -32.65 10.246 -32.913 Q7.43 -33.174 6.134 -35.332 Q4.838 -37.487 4.999 -40.309 Q5.16 -43.131 7.579 -44.421 L68.531 -91.022 Q70.789 -92.312 72.782 -93.119 Q74.776 -93.925 77.377 -93.925 Q79.98 -93.925 81.996 -93.038 Q84.011 -92.151 86.108 -91.022 L147.221 -44.26 Q149.535 -42.962 149.75 -40.145 Q149.963 -37.326 148.511 -35.23 Q146.929 -32.755 144.416 -32.782 Q141.9 -32.811 139.643 -34.101 L131.741 -40.229 V9.598 Q131.741 15.564 127.307 19.918 Q122.873 24.271 116.906 24.271 H37.733 Q31.766 24.271 27.413 19.918 Q23.059 15.564 23.059 9.598 Z M52.901 -16.364 Q56.138 -16.364 58.384 -18.529 Q60.63 -20.695 60.63 -24.092 Q60.63 -27.329 58.384 -29.586 Q56.138 -31.844 52.901 -31.844 Q49.665 -31.844 47.407 -29.598 Q45.15 -27.351 45.15 -24.115 Q45.15 -20.717 47.407 -18.541 Q49.665 -16.364 52.901 -16.364 Z M77.389 -16.364 Q80.464 -16.364 82.883 -18.61 Q85.301 -20.856 85.301 -24.092 Q85.301 -27.49 82.883 -29.747 Q80.464 -32.005 77.389 -32.005 Q74.152 -32.005 71.826 -29.747 Q69.499 -27.49 69.499 -24.092 Q69.499 -20.856 71.826 -18.61 Q74.152 -16.364 77.389 -16.364 Z M101.921 -16.364 Q105.158 -16.364 107.484 -18.61 Q109.811 -20.856 109.811 -24.092 Q109.811 -27.49 107.484 -29.747 Q105.158 -32.005 101.921 -32.005 Q98.685 -32.005 96.347 -29.747 Q94.009 -27.49 94.009 -24.092 Q94.009 -20.856 96.347 -18.61 Q98.685 -16.364 101.921 -16.364 Z"/></g><g id="Semibold-L" transform="matrix(1 0 0 1 1970.27 1556)"><path d="M23.409 10.649 V-40.74 L15.949 -34.893 Q13.832 -33.351 11.154 -33.64 Q8.475 -33.927 7.113 -35.988 Q5.749 -38.049 5.981 -40.695 Q6.211 -43.341 8.49 -44.702 L69.302 -91.092 Q71.279 -92.312 73.143 -93.083 Q75.005 -93.856 77.387 -93.856 Q79.699 -93.856 81.575 -93.038 Q83.45 -92.221 85.337 -91.092 L146.38 -44.61 Q148.529 -43.246 148.79 -40.601 Q149.051 -37.957 147.6 -35.931 Q146.005 -33.621 143.567 -33.532 Q141.129 -33.442 139.012 -34.803 L131.391 -40.719 V10.649 Q131.391 16.194 127.376 20.127 Q123.363 24.062 117.888 24.062 H36.821 Q31.276 24.062 27.343 20.127 Q23.409 16.194 23.409 10.649 Z M52.547 -15.943 Q55.567 -15.943 57.748 -18.044 Q59.929 -20.143 59.929 -23.327 Q59.929 -26.418 57.748 -28.57 Q55.567 -30.721 52.547 -30.721 Q49.455 -30.721 47.303 -28.577 Q45.15 -26.431 45.15 -23.339 Q45.15 -20.156 47.303 -18.05 Q49.455 -15.943 52.547 -15.943 Z M77.394 -15.943 Q80.323 -15.943 82.602 -18.089 Q84.88 -20.235 84.88 -23.327 Q84.88 -26.508 82.602 -28.661 Q80.323 -30.813 77.394 -30.813 Q74.302 -30.813 72.111 -28.661 Q69.92 -26.508 69.92 -23.327 Q69.92 -20.235 72.111 -18.089 Q74.302 -15.943 77.394 -15.943 Z M102.266 -15.943 Q105.288 -15.943 107.515 -18.089 Q109.742 -20.235 109.742 -23.327 Q109.742 -26.508 107.515 -28.661 Q105.288 -30.813 102.266 -30.813 Q99.175 -30.813 96.977 -28.661 Q94.78 -26.508 94.78 -23.327 Q94.78 -20.235 96.977 -18.089 Q99.175 -15.943 102.266 -15.943 Z"/></g><g id="Medium-L" transform="matrix(1 0 0 1 1674.31 1556)"><path d="M23.672 11.437 V-41.003 L16.423 -35.367 Q14.411 -33.877 11.836 -34.185 Q9.261 -34.493 7.846 -36.481 Q6.432 -38.47 6.716 -40.983 Q7 -43.499 9.174 -44.911 L69.881 -91.145 Q71.648 -92.312 73.412 -93.057 Q75.178 -93.802 77.395 -93.802 Q79.49 -93.802 81.259 -93.038 Q83.029 -92.274 84.758 -91.145 L145.749 -44.873 Q147.774 -43.459 148.071 -40.945 Q148.368 -38.431 146.916 -36.457 Q145.31 -34.271 142.93 -34.093 Q140.55 -33.916 138.538 -35.328 L131.129 -41.088 V11.437 Q131.129 16.668 127.429 20.285 Q123.732 23.904 118.624 23.904 H36.138 Q30.907 23.904 27.29 20.285 Q23.672 16.668 23.672 11.437 Z M52.279 -15.627 Q55.139 -15.627 57.271 -17.68 Q59.403 -19.731 59.403 -22.751 Q59.403 -25.734 57.271 -27.808 Q55.139 -29.881 52.279 -29.881 Q49.297 -29.881 47.224 -27.809 Q45.15 -25.739 45.15 -22.757 Q45.15 -19.735 47.224 -17.681 Q49.297 -15.627 52.279 -15.627 Z M77.397 -15.627 Q80.219 -15.627 82.392 -17.699 Q84.564 -19.769 84.564 -22.751 Q84.564 -25.773 82.392 -27.846 Q80.219 -29.92 77.397 -29.92 Q74.415 -29.92 72.325 -27.846 Q70.236 -25.773 70.236 -22.751 Q70.236 -19.769 72.325 -17.699 Q74.415 -15.627 77.397 -15.627 Z M102.526 -15.627 Q105.387 -15.627 107.538 -17.699 Q109.689 -19.769 109.689 -22.751 Q109.689 -25.773 107.538 -27.846 Q105.387 -29.92 102.526 -29.92 Q99.544 -29.92 97.451 -27.846 Q95.358 -25.773 95.358 -22.751 Q95.358 -19.769 97.451 -17.699 Q99.544 -15.627 102.526 -15.627 Z"/></g><g id="Regular-L" transform="matrix(1 0 0 1 1378.56 1556)"><path d="M23.865 12.016 V-41.196 L16.77 -35.714 Q14.835 -34.262 12.336 -34.585 Q9.836 -34.907 8.385 -36.842 Q6.934 -38.777 7.256 -41.196 Q7.579 -43.615 9.675 -45.066 L70.305 -91.184 Q71.918 -92.312 73.611 -93.038 Q75.304 -93.764 77.4 -93.764 Q79.335 -93.764 81.028 -93.038 Q82.721 -92.312 84.334 -91.184 L145.286 -45.066 Q147.221 -43.615 147.544 -41.196 Q147.866 -38.777 146.415 -36.842 Q144.803 -34.746 142.464 -34.504 Q140.126 -34.262 138.191 -35.714 L130.935 -41.357 V12.016 Q130.935 17.015 127.468 20.401 Q124.001 23.788 119.164 23.788 H35.636 Q30.637 23.788 27.251 20.401 Q23.865 17.015 23.865 12.016 Z M52.084 -15.396 Q54.825 -15.396 56.921 -17.412 Q59.017 -19.427 59.017 -22.33 Q59.017 -25.232 56.921 -27.248 Q54.825 -29.264 52.084 -29.264 Q49.181 -29.264 47.166 -27.248 Q45.15 -25.232 45.15 -22.33 Q45.15 -19.427 47.166 -17.412 Q49.181 -15.396 52.084 -15.396 Z M77.4 -15.396 Q80.141 -15.396 82.237 -17.412 Q84.334 -19.427 84.334 -22.33 Q84.334 -25.232 82.237 -27.248 Q80.141 -29.264 77.4 -29.264 Q74.498 -29.264 72.482 -27.248 Q70.466 -25.232 70.466 -22.33 Q70.466 -19.427 72.482 -17.412 Q74.498 -15.396 77.4 -15.396 Z M102.716 -15.396 Q105.457 -15.396 107.554 -17.412 Q109.65 -19.427 109.65 -22.33 Q109.65 -25.232 107.554 -27.248 Q105.457 -29.264 102.716 -29.264 Q99.814 -29.264 97.798 -27.248 Q95.782 -25.232 95.782 -22.33 Q95.782 -19.427 97.798 -17.412 Q99.814 -15.396 102.716 -15.396 Z"/></g><g id="Light-L" transform="matrix(1 0 0 1 1082.77 1556)"><path d="M27.09 9.164 V-42.56 L19.127 -36.335 Q17.626 -35.193 15.591 -35.454 Q13.558 -35.714 12.416 -37.276 Q11.276 -38.777 11.505 -40.7 Q11.734 -42.623 13.458 -43.826 L70.49 -87.338 Q72.124 -88.405 73.754 -89.1 Q75.384 -89.794 77.41 -89.794 Q79.274 -89.794 80.875 -89.1 Q82.476 -88.405 84.085 -87.338 L141.44 -43.826 Q143.003 -42.685 143.264 -40.762 Q143.524 -38.839 142.384 -37.265 Q141.081 -35.615 139.209 -35.404 Q137.335 -35.193 135.773 -36.335 L127.71 -42.722 V9.164 Q127.71 13.961 124.329 17.262 Q120.947 20.563 116.311 20.563 H38.489 Q33.692 20.563 30.391 17.262 Q27.09 13.961 27.09 9.164 Z M52.084 -16.141 Q54.453 -16.141 56.363 -17.97 Q58.273 -19.8 58.273 -22.33 Q58.273 -24.86 56.363 -26.69 Q54.453 -28.519 52.084 -28.519 Q49.554 -28.519 47.724 -26.69 Q45.895 -24.86 45.895 -22.33 Q45.895 -19.8 47.724 -17.97 Q49.554 -16.141 52.084 -16.141 Z M77.4 -16.141 Q79.769 -16.141 81.68 -17.97 Q83.589 -19.8 83.589 -22.33 Q83.589 -24.86 81.68 -26.69 Q79.769 -28.519 77.4 -28.519 Q74.87 -28.519 73.04 -26.69 Q71.211 -24.86 71.211 -22.33 Q71.211 -19.8 73.04 -17.97 Q74.87 -16.141 77.4 -16.141 Z M102.716 -16.141 Q105.085 -16.141 106.996 -17.97 Q108.905 -19.8 108.905 -22.33 Q108.905 -24.86 106.996 -26.69 Q105.085 -28.519 102.716 -28.519 Q100.186 -28.519 98.356 -26.69 Q96.527 -24.86 96.527 -22.33 Q96.527 -19.8 98.356 -17.97 Q100.186 -16.141 102.716 -16.141 Z"/></g><g id="Thin-L" transform="matrix(1 0 0 1 787.282 1556)"><path d="M30.315 6.311 V-43.925 L21.483 -36.954 Q20.417 -36.123 18.847 -36.322 Q17.278 -36.52 16.448 -37.71 Q15.617 -38.777 15.753 -40.205 Q15.89 -41.63 17.241 -42.586 L70.677 -83.494 Q72.332 -84.498 73.898 -85.161 Q75.463 -85.825 77.418 -85.825 Q79.211 -85.825 80.722 -85.161 Q82.233 -84.498 83.837 -83.494 L137.596 -42.586 Q138.786 -41.754 138.985 -40.329 Q139.183 -38.902 138.352 -37.687 Q137.361 -36.483 135.953 -36.302 Q134.544 -36.123 133.354 -36.954 L124.485 -44.086 V6.311 Q124.485 10.907 121.189 14.122 Q117.893 17.338 113.459 17.338 H41.341 Q36.746 17.338 33.53 14.122 Q30.315 10.907 30.315 6.311 Z M52.084 -16.885 Q54.08 -16.885 55.805 -18.528 Q57.529 -20.172 57.529 -22.33 Q57.529 -24.488 55.805 -26.132 Q54.08 -27.775 52.084 -27.775 Q49.926 -27.775 48.281 -26.132 Q46.638 -24.488 46.638 -22.33 Q46.638 -20.172 48.281 -18.528 Q49.926 -16.885 52.084 -16.885 Z M77.4 -16.885 Q79.396 -16.885 81.122 -18.528 Q82.845 -20.172 82.845 -22.33 Q82.845 -24.488 81.122 -26.132 Q79.396 -27.775 77.4 -27.775 Q75.242 -27.775 73.598 -26.132 Q71.955 -24.488 71.955 -22.33 Q71.955 -20.172 73.598 -18.528 Q75.242 -16.885 77.4 -16.885 Z M102.716 -16.885 Q104.713 -16.885 106.438 -18.528 Q108.162 -20.172 108.162 -22.33 Q108.162 -24.488 106.438 -26.132 Q104.713 -27.775 102.716 -27.775 Q100.559 -27.775 98.914 -26.132 Q97.271 -24.488 97.271 -22.33 Q97.271 -20.172 98.914 -18.528 Q100.559 -16.885 102.716 -16.885 Z"/></g><g id="Ultralight-L" transform="matrix(1 0 0 1 491.205 1556)"><path d="M32.25 4.599 V-44.744 L22.898 -37.326 Q22.091 -36.681 20.801 -36.842 Q19.511 -37.004 18.866 -37.971 Q18.221 -38.777 18.302 -39.906 Q18.383 -41.035 19.511 -41.841 L70.789 -81.186 Q72.456 -82.154 73.983 -82.799 Q75.512 -83.444 77.424 -83.444 Q79.174 -83.444 80.63 -82.799 Q82.086 -82.154 83.689 -81.186 L135.289 -41.841 Q136.256 -41.196 136.417 -40.067 Q136.579 -38.939 135.934 -37.941 Q135.127 -37.004 133.999 -36.842 Q132.87 -36.681 131.903 -37.326 L122.55 -44.905 V4.599 Q122.55 9.073 119.306 12.237 Q116.06 15.403 111.746 15.403 H43.054 Q38.579 15.403 35.415 12.237 Q32.25 9.073 32.25 4.599 Z M52.084 -17.331 Q53.858 -17.331 55.47 -18.863 Q57.083 -20.395 57.083 -22.33 Q57.083 -24.265 55.47 -25.797 Q53.858 -27.329 52.084 -27.329 Q50.149 -27.329 48.617 -25.797 Q47.085 -24.265 47.085 -22.33 Q47.085 -20.395 48.617 -18.863 Q50.149 -17.331 52.084 -17.331 Z M77.4 -17.331 Q79.174 -17.331 80.786 -18.863 Q82.399 -20.395 82.399 -22.33 Q82.399 -24.265 80.786 -25.797 Q79.174 -27.329 77.4 -27.329 Q75.465 -27.329 73.933 -25.797 Q72.401 -24.265 72.401 -22.33 Q72.401 -20.395 73.933 -18.863 Q75.465 -17.331 77.4 -17.331 Z M102.716 -17.331 Q104.49 -17.331 106.103 -18.863 Q107.715 -20.395 107.715 -22.33 Q107.715 -24.265 106.103 -25.797 Q104.49 -27.329 102.716 -27.329 Q100.781 -27.329 99.249 -25.797 Q97.718 -24.265 97.718 -22.33 Q97.718 -20.395 99.249 -18.863 Q100.781 -17.331 102.716 -17.331 Z"/></g><g id="Bold-M" transform="matrix(1 0 0 1 2281.8 1126)"><path d="M15.375 -4.73 V-34.855 L14.5 -34.105 Q12 -32.105 8.88 -32.496 Q5.76 -32.886 3.88 -35.434 Q2.125 -37.855 2.5 -40.98 Q2.875 -44.105 5.375 -45.98 L49.625 -79.73 Q52 -81.48 54.545 -82.292 Q57.091 -83.105 59.858 -83.105 Q62.625 -83.105 65.25 -82.292 Q67.875 -81.48 70.125 -79.855 L114.375 -46.105 Q116.919 -44.224 117.335 -41.102 Q117.75 -37.98 115.75 -35.48 Q113.899 -32.936 110.888 -32.582 Q107.875 -32.23 105.375 -34.105 L104.25 -34.855 V-4.73 Q104.25 2.395 99.312 7.333 Q94.375 12.27 87.25 12.27 H32.375 Q25.25 12.27 20.312 7.333 Q15.375 2.395 15.375 -4.73 Z M41.634 -20.23 Q44.517 -20.23 46.446 -22.159 Q48.375 -24.087 48.375 -26.971 Q48.375 -29.855 46.446 -31.792 Q44.517 -33.73 41.634 -33.73 Q38.75 -33.73 36.75 -31.801 Q34.75 -29.872 34.75 -26.989 Q34.75 -24.105 36.75 -22.167 Q38.75 -20.23 41.634 -20.23 Z M59.866 -20.355 Q62.625 -20.355 64.688 -22.284 Q66.75 -24.212 66.75 -27.096 Q66.75 -29.98 64.688 -31.98 Q62.625 -33.98 59.866 -33.98 Q56.983 -33.98 54.991 -31.98 Q53 -29.98 53 -27.096 Q53 -24.212 54.991 -22.284 Q56.983 -20.355 59.866 -20.355 Z M78.134 -20.355 Q81.017 -20.355 83.009 -22.284 Q85 -24.212 85 -27.096 Q85 -29.98 83.009 -31.98 Q81.017 -33.98 78.134 -33.98 Q75.375 -33.98 73.312 -31.98 Q71.25 -29.98 71.25 -27.096 Q71.25 -24.212 73.312 -22.284 Q75.375 -20.355 78.134 -20.355 Z"/></g><g id="Semibold-M" transform="matrix(1 0 0 1 1985.97 1126)"><path d="M16.027 -3.48 V-35.344 L15.098 -34.594 Q12.761 -32.702 9.801 -33.086 Q6.843 -33.47 5.019 -35.889 Q3.32 -38.181 3.723 -41.116 Q4.125 -44.051 6.463 -45.871 L50.604 -79.512 Q52.706 -81.1 55.042 -81.857 Q57.377 -82.616 59.865 -82.616 Q62.354 -82.616 64.734 -81.885 Q67.114 -81.154 69.146 -79.637 L113.396 -46.051 Q115.759 -44.226 116.184 -41.294 Q116.609 -38.36 114.718 -35.969 Q112.91 -33.607 110.04 -33.217 Q107.169 -32.827 104.831 -34.649 L103.653 -35.452 V-3.48 Q103.653 2.993 99.204 7.441 Q94.755 11.89 88.282 11.89 H31.396 Q24.924 11.89 20.475 7.441 Q16.027 2.993 16.027 -3.48 Z M41.195 -19.904 Q43.858 -19.904 45.681 -21.727 Q47.505 -23.551 47.505 -26.214 Q47.505 -28.876 45.681 -30.705 Q43.858 -32.535 41.195 -32.535 Q38.532 -32.535 36.669 -30.71 Q34.804 -28.886 34.804 -26.224 Q34.804 -23.561 36.669 -21.732 Q38.532 -19.904 41.195 -19.904 Z M59.87 -19.975 Q62.462 -19.975 64.361 -21.799 Q66.261 -23.622 66.261 -26.285 Q66.261 -28.947 64.361 -30.811 Q62.462 -32.676 59.87 -32.676 Q57.208 -32.676 55.349 -30.811 Q53.489 -28.947 53.489 -26.285 Q53.489 -23.622 55.349 -21.799 Q57.208 -19.975 59.87 -19.975 Z M78.565 -19.975 Q81.228 -19.975 83.086 -21.799 Q84.946 -23.622 84.946 -26.285 Q84.946 -28.947 83.086 -30.811 Q81.228 -32.676 78.565 -32.676 Q75.972 -32.676 74.074 -30.811 Q72.174 -28.947 72.174 -26.285 Q72.174 -23.622 74.074 -21.799 Q75.972 -19.975 78.565 -19.975 Z"/></g><g id="Medium-M" transform="matrix(1 0 0 1 1689.91 1126)"><path d="M16.516 -2.542 V-35.711 L15.546 -34.961 Q13.331 -33.151 10.492 -33.53 Q7.655 -33.909 5.874 -36.23 Q4.218 -38.426 4.64 -41.217 Q5.062 -44.01 7.277 -45.79 L51.337 -79.35 Q53.236 -80.814 55.414 -81.531 Q57.593 -82.249 59.871 -82.249 Q62.15 -82.249 64.346 -81.579 Q66.544 -80.909 68.412 -79.475 L112.662 -46.01 Q114.889 -44.229 115.32 -41.437 Q115.752 -38.646 113.942 -36.336 Q112.169 -34.111 109.404 -33.694 Q106.639 -33.276 104.424 -35.056 L103.204 -35.901 V-2.542 Q103.204 3.441 99.123 7.523 Q95.041 11.604 89.058 11.604 H30.663 Q24.679 11.604 20.598 7.523 Q16.516 3.441 16.516 -2.542 Z M40.866 -19.659 Q43.362 -19.659 45.108 -21.405 Q46.854 -23.15 46.854 -25.646 Q46.854 -28.142 45.108 -29.89 Q43.362 -31.637 40.866 -31.637 Q38.37 -31.637 36.608 -29.892 Q34.845 -28.147 34.845 -25.65 Q34.845 -23.154 36.608 -21.406 Q38.37 -19.659 40.866 -19.659 Z M59.873 -19.689 Q62.34 -19.689 64.116 -21.435 Q65.894 -23.18 65.894 -25.676 Q65.894 -28.172 64.116 -29.935 Q62.34 -31.697 59.873 -31.697 Q57.376 -31.697 55.616 -29.935 Q53.856 -28.172 53.856 -25.676 Q53.856 -23.18 55.616 -21.435 Q57.376 -19.689 59.873 -19.689 Z M78.888 -19.689 Q81.385 -19.689 83.145 -21.435 Q84.905 -23.18 84.905 -25.676 Q84.905 -28.172 83.145 -29.935 Q81.385 -31.697 78.888 -31.697 Q76.421 -31.697 74.644 -29.935 Q72.866 -28.172 72.866 -25.676 Q72.866 -23.18 74.644 -21.435 Q76.421 -19.689 78.888 -19.689 Z"/></g><g id="Regular-M" transform="matrix(1 0 0 1 1394.06 1126)"><path d="M16.875 -1.855 V-35.98 L15.875 -35.23 Q13.75 -33.48 11 -33.855 Q8.25 -34.23 6.5 -36.48 Q4.875 -38.605 5.312 -41.292 Q5.75 -43.98 7.875 -45.73 L51.875 -79.23 Q53.625 -80.605 55.688 -81.292 Q57.75 -81.98 59.875 -81.98 Q62 -81.98 64.062 -81.355 Q66.125 -80.73 67.875 -79.355 L112.125 -45.98 Q114.25 -44.23 114.688 -41.542 Q115.125 -38.855 113.375 -36.605 Q111.625 -34.48 108.938 -34.042 Q106.25 -33.605 104.125 -35.355 L102.875 -36.23 V-1.855 Q102.875 3.77 99.062 7.583 Q95.25 11.395 89.625 11.395 H30.125 Q24.5 11.395 20.688 7.583 Q16.875 3.77 16.875 -1.855 Z M40.625 -19.48 Q43 -19.48 44.688 -21.167 Q46.375 -22.855 46.375 -25.23 Q46.375 -27.605 44.688 -29.292 Q43 -30.98 40.625 -30.98 Q38.25 -30.98 36.562 -29.292 Q34.875 -27.605 34.875 -25.23 Q34.875 -22.855 36.562 -21.167 Q38.25 -19.48 40.625 -19.48 Z M59.875 -19.48 Q62.25 -19.48 63.938 -21.167 Q65.625 -22.855 65.625 -25.23 Q65.625 -27.605 63.938 -29.292 Q62.25 -30.98 59.875 -30.98 Q57.5 -30.98 55.812 -29.292 Q54.125 -27.605 54.125 -25.23 Q54.125 -22.855 55.812 -21.167 Q57.5 -19.48 59.875 -19.48 Z M79.125 -19.48 Q81.5 -19.48 83.188 -21.167 Q84.875 -22.855 84.875 -25.23 Q84.875 -27.605 83.188 -29.292 Q81.5 -30.98 79.125 -30.98 Q76.75 -30.98 75.062 -29.292 Q73.375 -27.605 73.375 -25.23 Q73.375 -22.855 75.062 -21.167 Q76.75 -19.48 79.125 -19.48 Z"/></g><g id="Light-M" transform="matrix(1 0 0 1 1098.18 1126)"><path d="M19.375 -3.394 V-37.904 L17.029 -36.095 Q15.336 -34.634 13.115 -34.961 Q10.895 -35.287 9.432 -37.105 Q8.096 -38.797 8.438 -40.956 Q8.779 -43.115 10.52 -44.576 L52.453 -76.537 Q54.074 -77.816 55.991 -78.456 Q57.909 -79.095 59.883 -79.095 Q61.856 -79.095 63.751 -78.519 Q65.646 -77.941 67.25 -76.662 L109.433 -44.826 Q111.172 -43.365 111.539 -41.206 Q111.904 -39.047 110.442 -37.221 Q108.98 -35.49 106.823 -35.1 Q104.664 -34.711 102.922 -36.172 L100.375 -38.154 V-3.394 Q100.375 1.835 96.845 5.365 Q93.315 8.895 88.086 8.895 H31.664 Q26.435 8.895 22.905 5.365 Q19.375 1.835 19.375 -3.394 Z M40.625 -20.057 Q42.711 -20.057 44.255 -21.6 Q45.797 -23.144 45.797 -25.23 Q45.797 -27.316 44.255 -28.86 Q42.711 -30.402 40.625 -30.402 Q38.539 -30.402 36.995 -28.86 Q35.453 -27.316 35.453 -25.23 Q35.453 -23.144 36.995 -21.6 Q38.539 -20.057 40.625 -20.057 Z M59.875 -20.057 Q61.961 -20.057 63.505 -21.6 Q65.047 -23.144 65.047 -25.23 Q65.047 -27.316 63.505 -28.86 Q61.961 -30.402 59.875 -30.402 Q57.789 -30.402 56.245 -28.86 Q54.703 -27.316 54.703 -25.23 Q54.703 -23.144 56.245 -21.6 Q57.789 -20.057 59.875 -20.057 Z M79.125 -20.057 Q81.211 -20.057 82.755 -21.6 Q84.297 -23.144 84.297 -25.23 Q84.297 -27.316 82.755 -28.86 Q81.211 -30.402 79.125 -30.402 Q77.039 -30.402 75.495 -28.86 Q73.953 -27.316 73.953 -25.23 Q73.953 -23.144 75.495 -21.6 Q77.039 -20.057 79.125 -20.057 Z"/></g><g id="Thin-M" transform="matrix(1 0 0 1 802.565 1126)"><path d="M21.875 -4.932 V-39.826 L18.183 -36.961 Q16.922 -35.787 15.231 -36.066 Q13.539 -36.345 12.365 -37.73 Q11.318 -38.99 11.562 -40.62 Q11.807 -42.249 13.164 -43.422 L53.029 -73.845 Q54.523 -75.027 56.295 -75.62 Q58.066 -76.211 59.889 -76.211 Q61.711 -76.211 63.44 -75.682 Q65.169 -75.152 66.625 -73.97 L106.74 -43.672 Q108.096 -42.499 108.39 -40.87 Q108.683 -39.24 107.51 -37.837 Q106.336 -36.499 104.706 -36.157 Q103.078 -35.816 101.721 -36.99 L97.875 -40.076 V-4.932 Q97.875 -0.1 94.627 3.148 Q91.38 6.395 86.547 6.395 H33.203 Q28.37 6.395 25.122 3.148 Q21.875 -0.1 21.875 -4.932 Z M40.625 -20.634 Q42.422 -20.634 43.822 -22.032 Q45.221 -23.432 45.221 -25.23 Q45.221 -27.027 43.822 -28.427 Q42.422 -29.826 40.625 -29.826 Q38.828 -29.826 37.428 -28.427 Q36.029 -27.027 36.029 -25.23 Q36.029 -23.432 37.428 -22.032 Q38.828 -20.634 40.625 -20.634 Z M59.875 -20.634 Q61.672 -20.634 63.072 -22.032 Q64.471 -23.432 64.471 -25.23 Q64.471 -27.027 63.072 -28.427 Q61.672 -29.826 59.875 -29.826 Q58.078 -29.826 56.678 -28.427 Q55.279 -27.027 55.279 -25.23 Q55.279 -23.432 56.678 -22.032 Q58.078 -20.634 59.875 -20.634 Z M79.125 -20.634 Q80.922 -20.634 82.323 -22.032 Q83.721 -23.432 83.721 -25.23 Q83.721 -27.027 82.323 -28.427 Q80.922 -29.826 79.125 -29.826 Q77.328 -29.826 75.927 -28.427 Q74.529 -27.027 74.529 -25.23 Q74.529 -23.432 75.927 -22.032 Q77.328 -20.634 79.125 -20.634 Z"/></g><g id="Ultralight-M" transform="matrix(1 0 0 1 506.415 1126)"><path d="M23.375 -5.855 V-40.98 L18.875 -37.48 Q17.875 -36.48 16.5 -36.73 Q15.125 -36.98 14.125 -38.105 Q13.25 -39.105 13.438 -40.417 Q13.625 -41.73 14.75 -42.73 L53.375 -72.23 Q54.792 -73.355 56.476 -73.917 Q58.161 -74.48 59.894 -74.48 Q61.625 -74.48 63.254 -73.98 Q64.882 -73.48 66.25 -72.355 L105.125 -42.98 Q106.25 -41.98 106.5 -40.667 Q106.75 -39.355 105.75 -38.206 Q104.75 -37.105 103.438 -36.792 Q102.125 -36.48 101 -37.48 L96.375 -41.23 V-5.855 Q96.375 -1.261 93.297 1.816 Q90.219 4.895 85.625 4.895 H34.125 Q29.531 4.895 26.454 1.816 Q23.375 -1.261 23.375 -5.855 Z M40.625 -20.98 Q42.25 -20.98 43.562 -22.292 Q44.875 -23.605 44.875 -25.23 Q44.875 -26.855 43.562 -28.167 Q42.25 -29.48 40.625 -29.48 Q39 -29.48 37.688 -28.167 Q36.375 -26.855 36.375 -25.23 Q36.375 -23.605 37.688 -22.292 Q39 -20.98 40.625 -20.98 Z M59.875 -20.98 Q61.5 -20.98 62.812 -22.292 Q64.125 -23.605 64.125 -25.23 Q64.125 -26.855 62.812 -28.167 Q61.5 -29.48 59.875 -29.48 Q58.25 -29.48 56.938 -28.167 Q55.625 -26.855 55.625 -25.23 Q55.625 -23.605 56.938 -22.292 Q58.25 -20.98 59.875 -20.98 Z M79.125 -20.98 Q80.75 -20.98 82.062 -22.292 Q83.375 -23.605 83.375 -25.23 Q83.375 -26.855 82.062 -28.167 Q80.75 -29.48 79.125 -29.48 Q77.5 -29.48 76.188 -28.167 Q74.875 -26.855 74.875 -25.23 Q74.875 -23.605 76.188 -22.292 Q77.5 -20.98 79.125 -20.98 Z"/></g><g id="Bold-S" transform="matrix(1 0 0 1 2294.23 696)"><path d="M15.287 -12.733 V-33.553 L15.108 -33.334 Q13.314 -31.877 10.951 -32.185 Q8.588 -32.493 7.204 -34.306 Q5.918 -36.019 6.164 -38.386 Q6.411 -40.753 8.256 -42.132 L39.647 -66.001 Q41.422 -67.382 43.332 -67.924 Q45.242 -68.467 47.228 -68.467 Q49.214 -68.467 51.186 -67.924 Q53.159 -67.382 54.836 -66.1 L86.131 -42.23 Q88.008 -40.847 88.336 -38.483 Q88.664 -36.118 87.184 -34.299 Q85.822 -32.434 83.551 -32.155 Q81.28 -31.877 79.393 -33.257 L79.097 -33.553 V-12.733 Q79.097 -7.441 75.432 -3.78 Q71.767 -0.119 66.469 -0.119 H27.883 Q22.585 -0.119 18.936 -3.78 Q15.287 -7.441 15.287 -12.733 Z M34.427 -23.395 Q36.406 -23.395 37.879 -24.803 Q39.351 -26.212 39.351 -28.319 Q39.351 -30.299 37.879 -31.778 Q36.406 -33.257 34.378 -33.257 Q32.349 -33.257 30.87 -31.785 Q29.39 -30.313 29.39 -28.284 Q29.39 -26.255 30.855 -24.825 Q32.319 -23.395 34.427 -23.395 Z M47.234 -23.494 Q49.115 -23.494 50.693 -24.902 Q52.271 -26.31 52.271 -28.418 Q52.271 -30.397 50.693 -31.926 Q49.115 -33.455 47.185 -33.455 Q45.156 -33.455 43.684 -31.926 Q42.212 -30.397 42.212 -28.369 Q42.212 -26.34 43.669 -24.917 Q45.127 -23.494 47.234 -23.494 Z M60.07 -23.494 Q62.049 -23.494 63.571 -24.902 Q65.093 -26.31 65.093 -28.418 Q65.093 -30.397 63.571 -31.926 Q62.049 -33.455 60.02 -33.455 Q58.09 -33.455 56.561 -31.926 Q55.033 -30.397 55.033 -28.369 Q55.033 -26.34 56.547 -24.917 Q58.061 -23.494 60.07 -23.494 Z"/></g><g id="Semibold-S" transform="matrix(1 0 0 1 1998.1 696)"><path d="M15.802 -11.746 V-33.939 L15.58 -33.72 Q13.915 -32.348 11.678 -32.651 Q9.442 -32.954 8.102 -34.665 Q6.86 -36.276 7.129 -38.494 Q7.397 -40.711 9.113 -42.046 L40.419 -65.829 Q41.98 -67.082 43.724 -67.581 Q45.468 -68.081 47.233 -68.081 Q49 -68.081 50.779 -67.603 Q52.558 -67.124 54.063 -65.928 L85.36 -42.188 Q87.093 -40.849 87.428 -38.634 Q87.763 -36.417 86.37 -34.685 Q85.042 -32.964 82.882 -32.656 Q80.723 -32.348 78.964 -33.687 L78.626 -34.025 V-11.746 Q78.626 -6.97 75.347 -3.695 Q72.067 -0.419 67.284 -0.419 H27.111 Q22.328 -0.419 19.064 -3.695 Q15.802 -6.97 15.802 -11.746 Z M34.081 -23.138 Q35.886 -23.138 37.275 -24.463 Q38.665 -25.789 38.665 -27.722 Q38.665 -29.527 37.275 -30.92 Q35.886 -32.315 34.032 -32.315 Q32.177 -32.315 30.806 -30.924 Q29.433 -29.534 29.433 -27.68 Q29.433 -25.826 30.791 -24.482 Q32.148 -23.138 34.081 -23.138 Z M47.237 -23.194 Q48.987 -23.194 50.436 -24.519 Q51.886 -25.845 51.886 -27.778 Q51.886 -29.583 50.436 -31.004 Q48.987 -32.426 47.188 -32.426 Q45.334 -32.426 43.966 -31.004 Q42.597 -29.583 42.597 -27.729 Q42.597 -25.874 43.951 -24.534 Q45.304 -23.194 47.237 -23.194 Z M60.41 -23.194 Q62.215 -23.194 63.632 -24.519 Q65.05 -25.845 65.05 -27.778 Q65.05 -29.583 63.632 -31.004 Q62.215 -32.426 60.36 -32.426 Q58.562 -32.426 57.162 -31.004 Q55.762 -29.583 55.762 -27.729 Q55.762 -25.874 57.147 -24.534 Q58.532 -23.194 60.41 -23.194 Z"/></g><g id="Medium-S" transform="matrix(1 0 0 1 1701.85 696)"><path d="M16.187 -11.007 V-34.229 L15.933 -34.01 Q14.365 -32.702 12.224 -33.001 Q10.083 -33.3 8.777 -34.934 Q7.568 -36.47 7.853 -38.573 Q8.137 -40.678 9.756 -41.982 L40.998 -65.701 Q42.398 -66.856 44.017 -67.324 Q45.638 -67.791 47.238 -67.791 Q48.839 -67.791 50.473 -67.361 Q52.109 -66.931 53.484 -65.8 L84.781 -42.155 Q86.406 -40.851 86.747 -38.747 Q87.088 -36.643 85.758 -34.974 Q84.458 -33.361 82.381 -33.032 Q80.304 -32.702 78.643 -34.008 L78.272 -34.379 V-11.007 Q78.272 -6.616 75.282 -3.631 Q72.292 -0.645 67.895 -0.645 H26.532 Q22.134 -0.645 19.161 -3.631 Q16.187 -6.616 16.187 -11.007 Z M33.821 -22.944 Q35.495 -22.944 36.823 -24.209 Q38.151 -25.472 38.151 -27.274 Q38.151 -28.948 36.823 -30.277 Q35.495 -31.607 33.772 -31.607 Q32.049 -31.607 30.757 -30.279 Q29.465 -28.952 29.465 -27.228 Q29.465 -25.505 30.742 -24.224 Q32.02 -22.944 33.821 -22.944 Z M47.239 -22.968 Q48.89 -22.968 50.243 -24.232 Q51.596 -25.496 51.596 -27.298 Q51.596 -28.971 50.243 -30.313 Q48.89 -31.654 47.19 -31.654 Q45.467 -31.654 44.177 -30.313 Q42.887 -28.971 42.887 -27.248 Q42.887 -25.525 44.162 -24.247 Q45.438 -22.968 47.239 -22.968 Z M60.664 -22.968 Q62.339 -22.968 63.678 -24.232 Q65.018 -25.496 65.018 -27.298 Q65.018 -28.971 63.678 -30.313 Q62.339 -31.654 60.615 -31.654 Q58.916 -31.654 57.612 -30.313 Q56.308 -28.971 56.308 -27.248 Q56.308 -25.525 57.597 -24.247 Q58.886 -22.968 60.664 -22.968 Z"/></g><g id="Regular-S" transform="matrix(1 0 0 1 1405.73 696)"><path d="M16.47 -10.464 V-34.441 L16.193 -34.222 Q14.695 -32.962 12.624 -33.257 Q10.553 -33.553 9.271 -35.131 Q8.087 -36.611 8.383 -38.633 Q8.679 -40.654 10.228 -41.935 L41.422 -65.606 Q42.705 -66.691 44.233 -67.135 Q45.762 -67.579 47.241 -67.579 Q48.721 -67.579 50.249 -67.184 Q51.778 -66.79 53.06 -65.705 L84.356 -42.132 Q85.902 -40.852 86.248 -38.83 Q86.593 -36.808 85.311 -35.187 Q84.029 -33.652 82.014 -33.307 Q79.998 -32.962 78.407 -34.244 L78.012 -34.638 V-10.464 Q78.012 -6.357 75.235 -3.583 Q72.458 -0.81 68.343 -0.81 H26.108 Q21.993 -0.81 19.232 -3.583 Q16.47 -6.357 16.47 -10.464 Z M33.631 -22.803 Q35.209 -22.803 36.491 -24.021 Q37.773 -25.239 37.773 -26.945 Q37.773 -28.523 36.491 -29.806 Q35.209 -31.088 33.582 -31.088 Q31.955 -31.088 30.722 -29.806 Q29.489 -28.523 29.489 -26.896 Q29.489 -25.269 30.707 -24.036 Q31.925 -22.803 33.631 -22.803 Z M47.241 -22.803 Q48.819 -22.803 50.102 -24.021 Q51.384 -25.239 51.384 -26.945 Q51.384 -28.523 50.102 -29.806 Q48.819 -31.088 47.192 -31.088 Q45.565 -31.088 44.332 -29.806 Q43.099 -28.523 43.099 -26.896 Q43.099 -25.269 44.317 -24.036 Q45.535 -22.803 47.241 -22.803 Z M60.852 -22.803 Q62.43 -22.803 63.712 -24.021 Q64.994 -25.239 64.994 -26.945 Q64.994 -28.523 63.712 -29.806 Q62.43 -31.088 60.802 -31.088 Q59.175 -31.088 57.942 -29.806 Q56.709 -28.523 56.709 -26.896 Q56.709 -25.269 57.927 -24.036 Q59.145 -22.803 60.852 -22.803 Z"/></g><g id="Light-S" transform="matrix(1 0 0 1 1109.75 696)"><path d="M18.443 -11.678 V-35.959 L17.104 -34.905 Q15.947 -33.872 14.293 -34.13 Q12.64 -34.388 11.584 -35.624 Q10.629 -36.763 10.849 -38.367 Q11.069 -39.972 12.314 -41.024 L41.878 -63.482 Q43.059 -64.491 44.473 -64.897 Q45.887 -65.303 47.247 -65.303 Q48.607 -65.303 50.004 -64.947 Q51.4 -64.59 52.567 -63.581 L82.232 -41.221 Q83.474 -40.169 83.763 -38.565 Q84.051 -36.96 82.997 -35.672 Q81.942 -34.449 80.344 -34.141 Q78.746 -33.834 77.458 -34.889 L76.04 -36.156 V-11.678 Q76.04 -7.883 73.485 -5.333 Q70.93 -2.782 67.129 -2.782 H27.322 Q23.52 -2.782 20.981 -5.333 Q18.443 -7.883 18.443 -11.678 Z M33.631 -23.259 Q34.981 -23.259 36.15 -24.363 Q37.318 -25.467 37.318 -26.945 Q37.318 -28.296 36.15 -29.464 Q34.981 -30.632 33.582 -30.632 Q32.182 -30.632 31.063 -29.464 Q29.945 -28.296 29.945 -26.896 Q29.945 -25.497 31.048 -24.377 Q32.153 -23.259 33.631 -23.259 Z M47.241 -23.259 Q48.592 -23.259 49.76 -24.363 Q50.928 -25.467 50.928 -26.945 Q50.928 -28.296 49.76 -29.464 Q48.592 -30.632 47.192 -30.632 Q45.793 -30.632 44.673 -29.464 Q43.555 -28.296 43.555 -26.896 Q43.555 -25.497 44.658 -24.377 Q45.763 -23.259 47.241 -23.259 Z M60.852 -23.259 Q62.202 -23.259 63.371 -24.363 Q64.538 -25.467 64.538 -26.945 Q64.538 -28.296 63.371 -29.464 Q62.202 -30.632 60.802 -30.632 Q59.403 -30.632 58.283 -29.464 Q57.165 -28.296 57.165 -26.896 Q57.165 -25.497 58.269 -24.377 Q59.373 -23.259 60.852 -23.259 Z"/></g><g id="Thin-S" transform="matrix(1 0 0 1 814.015 696)"><path d="M20.415 -12.892 V-37.476 L18.014 -35.588 Q17.198 -34.782 15.962 -35.002 Q14.726 -35.222 13.898 -36.118 Q13.17 -36.915 13.314 -38.102 Q13.458 -39.288 14.4 -40.114 L42.333 -61.358 Q43.413 -62.291 44.713 -62.66 Q46.012 -63.027 47.252 -63.027 Q48.493 -63.027 49.758 -62.709 Q51.024 -62.389 52.074 -61.456 L80.108 -40.311 Q81.047 -39.486 81.279 -38.299 Q81.51 -37.112 80.683 -36.158 Q79.856 -35.245 78.675 -34.976 Q77.495 -34.706 76.51 -35.534 L74.067 -37.673 V-12.892 Q74.067 -9.41 71.736 -7.082 Q69.403 -4.755 65.915 -4.755 H28.535 Q25.047 -4.755 22.731 -7.082 Q20.415 -9.41 20.415 -12.892 Z M33.631 -23.714 Q34.753 -23.714 35.809 -24.704 Q36.863 -25.695 36.863 -26.945 Q36.863 -28.068 35.809 -29.123 Q34.753 -30.177 33.582 -30.177 Q32.41 -30.177 31.404 -29.123 Q30.399 -28.068 30.399 -26.896 Q30.399 -25.725 31.389 -24.719 Q32.381 -23.714 33.631 -23.714 Z M47.241 -23.714 Q48.364 -23.714 49.419 -24.704 Q50.473 -25.695 50.473 -26.945 Q50.473 -28.068 49.419 -29.123 Q48.364 -30.177 47.192 -30.177 Q46.02 -30.177 45.014 -29.123 Q44.009 -28.068 44.009 -26.896 Q44.009 -25.725 45 -24.719 Q45.991 -23.714 47.241 -23.714 Z M60.852 -23.714 Q61.974 -23.714 63.029 -24.704 Q64.084 -25.695 64.084 -26.945 Q64.084 -28.068 63.029 -29.123 Q61.974 -30.177 60.802 -30.177 Q59.631 -30.177 58.625 -29.123 Q57.62 -28.068 57.62 -26.896 Q57.62 -25.725 58.61 -24.719 Q59.601 -23.714 60.852 -23.714 Z"/></g><g id="Ultralight-S" transform="matrix(1 0 0 1 517.792 696)"><path d="M21.599 -13.62 V-38.386 L18.56 -35.997 Q17.95 -35.329 16.963 -35.526 Q15.977 -35.723 15.287 -36.413 Q14.695 -37.005 14.794 -37.942 Q14.892 -38.879 15.653 -39.568 L42.606 -60.083 Q43.626 -60.971 44.856 -61.316 Q46.086 -61.661 47.256 -61.661 Q48.425 -61.661 49.611 -61.366 Q50.798 -61.07 51.778 -60.182 L78.833 -39.765 Q79.59 -39.076 79.788 -38.139 Q79.985 -37.202 79.294 -36.45 Q78.604 -35.723 77.674 -35.477 Q76.743 -35.23 75.941 -35.92 L72.884 -38.583 V-13.62 Q72.884 -10.326 70.686 -8.132 Q68.488 -5.938 65.187 -5.938 H29.264 Q25.963 -5.938 23.781 -8.132 Q21.599 -10.326 21.599 -13.62 Z M33.631 -23.987 Q34.617 -23.987 35.604 -24.909 Q36.59 -25.831 36.59 -26.945 Q36.59 -27.932 35.604 -28.918 Q34.617 -29.904 33.582 -29.904 Q32.546 -29.904 31.609 -28.918 Q30.672 -27.932 30.672 -26.896 Q30.672 -25.861 31.595 -24.924 Q32.517 -23.987 33.631 -23.987 Z M47.241 -23.987 Q48.228 -23.987 49.214 -24.909 Q50.2 -25.831 50.2 -26.945 Q50.2 -27.932 49.214 -28.918 Q48.228 -29.904 47.192 -29.904 Q46.157 -29.904 45.22 -28.918 Q44.283 -27.932 44.283 -26.896 Q44.283 -25.861 45.205 -24.924 Q46.127 -23.987 47.241 -23.987 Z M60.852 -23.987 Q61.838 -23.987 62.824 -24.909 Q63.81 -25.831 63.81 -26.945 Q63.81 -27.932 62.824 -28.918 Q61.838 -29.904 60.802 -29.904 Q59.767 -29.904 58.83 -28.918 Q57.893 -27.932 57.893 -26.896 Q57.893 -25.861 58.815 -24.924 Q59.737 -23.987 60.852 -23.987 Z"/></g></g></svg>