<svg xmlns="http://www.w3.org/2000/svg" height="40" width="40"><path d="m15.667 15.75 3.458-5.625-2.292-3.792q-.458-.75-1.333-.75t-1.292.75l-3.791 6.292Zm14.916 10.458-3.416-5.666 5.333-3.084 2.458 4.084q.417.666.459 1.5.041.833-.334 1.5-.375.75-1.145 1.208-.771.458-1.646.458ZM26.167 37 20 30.833l6.167-6.166v3.083h7.291l-2.208 4.458q-.458.792-1.188 1.25-.729.459-1.604.459h-2.291ZM11.25 33.917q-.75 0-1.375-.396t-.958-1.063q-.292-.625-.271-1.291.021-.667.354-1.25l1.292-2.167h6.625v6.167Zm-3.792-4.375-2.5-5q-.375-.709-.333-1.5.042-.792.458-1.5l.584-1-2.584-1.584 8.417-2.125 2.125 8.459-2.667-1.625Zm20.75-13.167-8.416-2.125 2.666-1.583-4.791-8h5.416q.792 0 1.5.416.709.417 1.125 1.084l2.042 3.375 2.583-1.625Z"/></svg>