<svg xmlns="http://www.w3.org/2000/svg" height="24" width="24"><path d="M6.4 15.4v-1.125q.775-.75 1.488-1.463Q8.6 12.1 8.9 11.775q.45-.5.563-.775.112-.275.112-.525 0-.2-.212-.563-.213-.362-.838-.362-.55 0-.787.337-.238.338-.313.513l-1.05-.425q.125-.4.638-.963.512-.562 1.537-.562 1.05 0 1.638.587.587.588.587 1.363 0 .55-.263 1.087-.262.538-.812 1.063-.275.3-.762.762l-1.013.963.025.05h2.925V15.4Zm8.425.15q-1.325 0-2.075-1.013Q12 13.525 12 12t.75-2.538q.75-1.012 2.075-1.012 1.3 0 2.063 1.012.762 1.013.762 2.538t-.75 2.537q-.75 1.013-2.075 1.013Zm0-1.1q.825 0 1.237-.7.413-.7.413-1.75 0-.9-.387-1.675-.388-.775-1.263-.775-.875 0-1.275.775-.4.775-.4 1.675 0 1.05.438 1.75.437.7 1.237.7ZM12 22.3q-2.125 0-4.012-.812-1.888-.813-3.275-2.2-1.388-1.388-2.2-3.263Q1.7 14.15 1.7 12q0-2.125.813-4.013.812-1.887 2.2-3.275 1.387-1.387 3.262-2.2Q9.85 1.7 12 1.7q2.125 0 4.013.812 1.887.813 3.275 2.2 1.387 1.388 2.2 3.263Q22.3 9.85 22.3 12q0 2.125-.812 4.012-.813 1.888-2.2 3.276-1.388 1.387-3.263 2.2Q14.15 22.3 12 22.3Zm0-2.15q3.375 0 5.763-2.388Q20.15 15.375 20.15 12q0-3.375-2.387-5.763Q15.375 3.85 12 3.85T6.237 6.237Q3.85 8.625 3.85 12t2.387 5.762Q8.625 20.15 12 20.15Z"/></svg>