<svg xmlns="http://www.w3.org/2000/svg" height="24" viewBox="0 -960 960 960" width="24"><path d="M435.93-71.96 238.77-269.35H32.93v-86h240.4l141.78 141.02-60.89-121.02h449.85q17.65 0 30.32 12.68 12.68 12.67 12.68 30.32t-12.68 30.33q-12.67 12.67-30.32 12.67H492.72l7.56 15.63q13.35 33.7 5.69 69.07-7.67 35.37-34.36 60.39l-35.68 32.3ZM32.93-608v-86h193.74l41.96-42.22q18.05-18.18 41.65-27.98 23.59-9.8 49.33-9.8h404.46q17.65 0 30.32 12.67 12.68 12.68 12.68 30.33t-12.68 30.33Q781.72-688 764.07-688H355.39q-6.63 0-12.43 2.66-5.81 2.67-10.87 6.97L261.55-608H32.93Zm0 126.33Zm523.35 86.1v-86h327.79q17.65 0 30.32 12.68 12.68 12.67 12.68 30.32 0 17.66-12.68 30.33-12.67 12.67-30.32 12.67H556.28Zm0-146.21v-86h287.79q17.65 0 30.32 12.67 12.68 12.68 12.68 30.33t-12.68 30.32q-12.67 12.68-30.32 12.68H556.28Z"/></svg>