<svg xmlns="http://www.w3.org/2000/svg" height="24" width="24"><path d="M3.35 5V3.5H6.2V5Zm2.725 5.275L5 9.225l2.025-2 1.05 1.025ZM12 8q-1.875 0-3.2-1.312Q7.475 5.375 7.475 3.5h9.05q0 1.875-1.325 3.188Q13.875 8 12 8Zm-.75 4.1V9.25h1.5v2.85Zm6.7-1.825-2-2.025 1.025-1.025 2.05 2ZM17.8 5V3.5h2.85V5ZM2.25 20.625V19.1q.875-.05 1.312-.513.438-.462 1.788-.462 1.375 0 1.863.5.487.5 1.437.5 1 0 1.487-.5.488-.5 1.863-.5 1.35 0 1.863.5.512.5 1.487.5.975 0 1.45-.5t1.85-.5q1.35 0 1.788.462.437.463 1.312.513v1.525q-1.175-.075-1.688-.538-.512-.462-1.412-.462-.95 0-1.45.5t-1.85.5q-1.35 0-1.875-.5-.525-.5-1.475-.5-1 0-1.488.5-.487.5-1.862.5-1.35 0-1.838-.5-.487-.5-1.462-.5-.925 0-1.4.462-.475.463-1.7.538Zm0-3.9V15.2q.875-.025 1.312-.488Q4 14.25 5.35 14.25t1.85.5q.5.5 1.45.5 1 0 1.487-.5.488-.5 1.863-.5 1.35 0 1.863.5.512.5 1.437.5 1 0 1.488-.5.487-.5 1.862-.5 1.3 0 1.788.462.487.463 1.312.488v1.525q-1.2-.05-1.7-.513-.5-.462-1.4-.462-.95 0-1.45.5t-1.85.5q-1.35 0-1.875-.5-.525-.5-1.475-.5-1 0-1.475.5-.475.5-1.825.5-1.375 0-1.888-.5-.512-.5-1.462-.5-.9 0-1.412.462-.513.463-1.688.513Z"/></svg>