<svg xmlns="http://www.w3.org/2000/svg" height="24" viewBox="0 -960 960 960" width="24"><path d="M460.5-60q-84-8-157.75-41.5t-127.5-88Q121.5-244 90.5-317.5T59.5-480q0-79 29.25-151t79.75-128.5h-90v-121h302v302h-121V-678q-37.5 40-58.25 90T180.5-480q0 116 80.25 199.5T460.5-181v121ZM423-278.5l-180.5-179L317-532l106 106 219-219 74.5 74L423-278.5Zm156.5 199v-302h121v99.5q37.5-39.5 58.25-89.75T779.5-480q0-116-80.25-199.5T499.5-779v-121Q670-882 785.25-763.25T900.5-480q0 79-29.25 151T791.5-200.5h90v121h-302Z"/></svg>