<svg xmlns="http://www.w3.org/2000/svg" height="24" viewBox="0 -960 960 960" width="24"><path d="M477.14-221.35q25.5 0 43.42-17.72 17.92-17.71 17.92-43.21 0-25.49-17.78-43.24-17.78-17.74-43.28-17.74-25.49 0-43.41 17.6-17.92 17.61-17.92 43.1 0 25.49 17.78 43.35 17.78 17.86 43.27 17.86ZM480-44.65q-90.36 0-169.91-34.16-79.56-34.16-138.34-92.94T78.81-310.09Q44.65-389.64 44.65-480q0-90.61 34.22-170.27 34.22-79.66 93.14-138.61 58.92-58.94 138.33-92.7 79.42-33.77 169.66-33.77 90.6 0 170.27 33.76 79.66 33.76 138.61 92.71 58.95 58.95 92.71 138.64 33.76 79.69 33.76 170.32 0 90.64-33.77 169.81-33.76 79.18-92.7 138.1-58.95 58.92-138.61 93.14Q570.61-44.65 480-44.65Zm-.05-113.18q135.13 0 228.68-93.49 93.54-93.49 93.54-228.63 0-135.13-93.49-228.68-93.49-93.54-228.63-93.54-135.13 0-228.68 93.49-93.54 93.49-93.54 228.63 0 135.13 93.49 228.68 93.49 93.54 228.63 93.54ZM480-480Zm3.11-170.5q21.72 0 38.68 12.89 16.95 12.88 16.95 34.72 0 20.56-12.66 36.73-12.67 16.16-28.71 29.44-25.52 21.76-46.54 47.21-21.03 25.44-21.03 58.08 0 18.76 14.18 31.5 14.17 12.73 34.09 12.73t33.92-13.12q14.01-13.11 19.49-33.11 5.48-21.57 19.16-38.26 13.68-16.7 29.45-31.68 23-22.76 39.9-50.8 16.9-28.03 16.9-60.4 0-56.84-46.18-91.58-46.19-34.74-105.91-34.74-42.38 0-80.35 18.24-37.97 18.24-60.41 54.01-9.28 14.47-5.67 31.44 3.62 16.98 17.75 27.02 17.84 11.2 38.2 6.2 20.35-5 34.59-22 10.52-12.28 24.36-18.4 13.83-6.12 29.84-6.12Z"/></svg>