<svg xmlns="http://www.w3.org/2000/svg" height="20" width="20"><path d="M12.479 17.083q-2.437 0-4.198-1.416-1.76-1.417-2.469-3.396h-3.27v-1.209h3.166q-.062-.25-.062-.864 0-.615.062-1.26H2.542V7.729h3.312q.708-2.104 2.448-3.458t4.177-1.354q1.396 0 2.656.437 1.261.438 2.344 1.292l-.875.833q-.958-.646-1.948-1-.989-.354-2.177-.354-1.937 0-3.302 1.01-1.365 1.011-1.969 2.594h5.459v1.209h-5.75q-.021.124-.063.75-.042.624.063 1.374h5.75v1.209H7.208q.625 1.458 1.98 2.531 1.354 1.073 3.291 1.073 1.146 0 2.177-.333 1.032-.334 1.969-1.021l.854.833q-1.083.917-2.344 1.323-1.26.406-2.656.406Z"/></svg>