<svg xmlns="http://www.w3.org/2000/svg" version="1.1" width="3300" height="2000"><g id="Notes"><style>
    text {
      font-family: monospace;
      text-anchor: middle;
    }
    text.emphasis {
      font-weight:bold;
    }
    text.lanchor {
      text-anchor: start;
    }
  </style><rect height="2200" id="artboard" fill="white" width="3300" x="0" y="0"/><line id="" style="fill:none;stroke:black;stroke-width:0.5;" x1="263" x2="3036" y1="292" y2="292"/><text class="lanchor emphasis" transform="matrix(1 0 0 1 263 322)">Weight/Scale Variations</text><text transform="matrix(1 0 0 1 559.711 322)">Ultralight</text><text transform="matrix(1 0 0 1 856.422 322)">Thin</text><text transform="matrix(1 0 0 1 1153.13 322)">Light</text><text transform="matrix(1 0 0 1 1449.84 322)">Regular</text><text transform="matrix(1 0 0 1 1746.56 322)">Medium</text><text transform="matrix(1 0 0 1 2043.27 322)">Semibold</text><text transform="matrix(1 0 0 1 2339.98 322)">Bold</text><text transform="matrix(1 0 0 1 2636.69 322)">Heavy</text><text transform="matrix(1 0 0 1 2933.4 322)">Black</text><text id="template-version" style="text-anchor: end;" transform="matrix(1 0 0 1 3036 1933)">Template v.1.0</text><text class="lanchor" transform="matrix(1 0 0 1 263 726)">Small</text><text class="lanchor" transform="matrix(1 0 0 1 263 1156)">Medium</text><text class="lanchor" transform="matrix(1 0 0 1 263 1586)">Large</text></g><g id="Guides"><g id="H-reference" style="fill:#27AAE1;stroke:none;" transform="matrix(1 0 0 1 339 696)"><path d="M 54.9316 0 L 57.666 0 L 30.5664 -70.459 L 28.0762 -70.459 L 0.976562 0 L 3.66211 0 L 12.9395 -24.4629 L 45.7031 -24.4629 Z M 29.1992 -67.0898 L 29.4434 -67.0898 L 44.8242 -26.709 L 13.8184 -26.709 Z"/></g><line id="Baseline-S" style="fill:none;stroke:#27AAE1;opacity:1;stroke-width:0.577;" x1="263" x2="3036" y1="696" y2="696"/><line id="Capline-S" style="fill:none;stroke:#27AAE1;opacity:1;stroke-width:0.577;" x1="263" x2="3036" y1="625.541" y2="625.541"/><g id="H-reference" style="fill:#27AAE1;stroke:none;" transform="matrix(1 0 0 1 339 1126)"><path d="M 54.9316 0 L 57.666 0 L 30.5664 -70.459 L 28.0762 -70.459 L 0.976562 0 L 3.66211 0 L 12.9395 -24.4629 L 45.7031 -24.4629 Z M 29.1992 -67.0898 L 29.4434 -67.0898 L 44.8242 -26.709 L 13.8184 -26.709 Z"/></g><line id="Baseline-M" style="fill:none;stroke:#27AAE1;opacity:1;stroke-width:0.577;" x1="263" x2="3036" y1="1126" y2="1126"/><line id="Capline-M" style="fill:none;stroke:#27AAE1;opacity:1;stroke-width:0.577;" x1="263" x2="3036" y1="1055.54" y2="1055.54"/><g id="H-reference" style="fill:#27AAE1;stroke:none;" transform="matrix(1 0 0 1 339 1556)"><path d="M 54.9316 0 L 57.666 0 L 30.5664 -70.459 L 28.0762 -70.459 L 0.976562 0 L 3.66211 0 L 12.9395 -24.4629 L 45.7031 -24.4629 Z M 29.1992 -67.0898 L 29.4434 -67.0898 L 44.8242 -26.709 L 13.8184 -26.709 Z"/></g><line id="Baseline-L" style="fill:none;stroke:#27AAE1;opacity:1;stroke-width:0.577;" x1="263" x2="3036" y1="1556" y2="1556"/><line id="Capline-L" style="fill:none;stroke:#27AAE1;opacity:1;stroke-width:0.577;" x1="263" x2="3036" y1="1485.54" y2="1485.54"/><rect height="119.336" id="left-margin" style="fill:darkred;stroke:none;opacity:0.4;" width="12.4512" x="1394.06" y="1030.79"/><rect height="119.336" id="right-margin" style="fill:darkgreen;stroke:none;opacity:0.4;" width="12.4512" x="1502.5112" y="1030.79"/><rect x="1406.5112" y="1045" width="96" height="96" fill="none" stroke="blue" stroke-dasharray="5"/><rect x="1394.06" y="1030.79" width="120.9024" height="119.336" fill="none" stroke="blue"/></g><g id="Symbols"><g id="Bold-L" transform="matrix(1 0 0 1 2266 1556)"><path d="M71.43375 -24.10374999999999  32.73375 13.79000000000002 Q30.96 15.724999999999994 28.380000000000003 15.724999999999994 Q25.8 15.724999999999994 24.02625 13.951250000000002 Q22.09125 12.177500000000023 22.09125 9.516875000000013 Q22.09125 6.856250000000003 24.02625 4.921250000000015 L83.68875 -54.741249999999994 H64.1775 V-50.871249999999996 Q64.1775 -48.29124999999999 62.323125 -46.35624999999999 Q60.46875 -44.42125 57.7275 -44.42125 Q55.14750000000001 -44.42125 53.293124999999996 -46.35624999999999 Q51.43875 -48.29124999999999 51.43875 -50.871249999999996 V-60.06249999999999 Q51.43875 -63.12624999999999 53.535000000000004 -65.303125 Q55.63125 -67.47999999999999 58.85625 -67.47999999999999 H90.3 Q93.2025 -67.47999999999999 95.7825 -66.270625 Q98.3625 -65.06125 100.62 -63.12624999999999 L119.16375000000001 -44.582499999999996 Q122.8725 -40.87374999999999 127.22625000000001 -38.85812499999999 Q131.57999999999998 -36.84249999999999 136.57875 -36.036249999999995 Q139.15875 -35.552499999999995 141.255 -33.45625 Q143.35125000000002 -31.36 143.02875 -28.779999999999987 Q142.70625 -26.038749999999993 140.52937500000002 -24.265 Q138.3525 -22.491249999999994 135.7725 -23.13624999999999 Q128.83875 -23.942499999999995 122.630625 -26.683750000000003 Q116.42250000000001 -29.424999999999997 111.2625 -35.068749999999994 L104.97375 -41.19624999999999 L88.84875000000001 -24.909999999999997 L95.94375000000001 -17.653749999999988 Q98.3625 -15.235 97.95937500000001 -11.606874999999988 Q97.55625 -7.978749999999977 94.4925 -6.204999999999998 L65.95125 10.726250000000007 Q63.855000000000004 12.01625 61.113749999999996 11.210000000000008 Q58.37250000000001 10.403750000000002 57.24375 8.146250000000023 Q55.792500000000004 6.211250000000007 56.59875 3.5506249999999966 Q57.405 0.8900000000000148 59.50125 -0.5612499999999869 L81.91499999999999 -13.461249999999993 L71.43375 -24.10374999999999 Z M12.738750000000001 -26.844999999999985 Q10.15875 -26.844999999999985 8.223749999999999 -28.699375000000003 Q6.28875 -30.553749999999994 6.28875 -33.13374999999999 Q6.28875 -35.71374999999999 8.223749999999999 -37.64874999999999 Q10.15875 -39.583749999999995 12.738750000000001 -39.583749999999995 H35.31375 Q38.05500000000001 -39.583749999999995 39.909375000000004 -37.64874999999999 Q41.76375 -35.71374999999999 41.76375 -33.13374999999999 Q41.76375 -30.553749999999994 39.909375000000004 -28.699375000000003 Q38.05500000000001 -26.844999999999985 35.31375 -26.844999999999985 H12.738750000000001 Z M-0.16125 -50.871249999999996 Q-2.74125 -50.871249999999996 -4.67625 -52.725624999999994 Q-6.611249999999999 -54.57999999999999 -6.611249999999999 -57.32125 Q-6.611249999999999 -59.90124999999999 -4.67625 -61.83624999999999 Q-2.74125 -63.771249999999995 -0.16125 -63.771249999999995 H22.41375 Q25.155 -63.771249999999995 27.009375000000002 -61.83624999999999 Q28.86375 -59.90124999999999 28.86375 -57.16 Q28.86375 -54.57999999999999 27.009375000000002 -52.725624999999994 Q25.155 -50.871249999999996 22.41375 -50.871249999999996 H-0.16125 Z M122.06625000000001 -62.15874999999999 Q116.74500000000002 -62.15874999999999 113.03625 -65.786875 Q109.3275 -69.41499999999999 109.3275 -75.05875 Q109.3275 -80.70249999999999 113.03625 -84.25 Q116.74500000000002 -87.7975 122.06625000000001 -87.7975 Q127.54875 -87.7975 131.176875 -84.169375 Q134.805 -80.54124999999999 134.805 -75.22 Q134.805 -69.57624999999999 131.09625 -65.86749999999999 Q127.3875 -62.15874999999999 122.06625000000001 -62.15874999999999 Z M12.738750000000001 -75.05875 Q10.15875 -75.05875 8.223749999999999 -76.913125 Q6.28875 -78.76749999999998 6.28875 -81.3475 Q6.28875 -83.76625 8.223749999999999 -85.781875 Q10.15875 -87.7975 12.738750000000001 -87.7975 H35.31375 Q38.05500000000001 -87.7975 39.909375000000004 -85.8625 Q41.76375 -83.9275 41.76375 -81.3475 Q41.76375 -78.76749999999998 39.909375000000004 -76.913125 Q38.05500000000001 -75.05875 35.31375 -75.05875 H12.738750000000001 Z"/></g><g id="Semibold-L" transform="matrix(1 0 0 1 1970.27 1556)"><path d="M75.1425 -24.426249999999982  36.4425 13.79000000000002 Q34.66875 15.563749999999999 32.169375 15.563749999999999 Q29.669999999999998 15.563749999999999 27.896250000000002 13.79000000000002 Q25.961250000000003 12.177500000000023 25.961250000000003 9.516875000000013 Q25.961250000000003 6.856250000000003 27.896250000000002 5.08250000000001 L88.0425 -54.902499999999996 H67.56375 V-50.065 Q67.56375 -47.485 65.78999999999999 -45.71124999999999 Q64.01625 -43.937499999999986 61.275 -43.937499999999986 Q58.85625 -43.937499999999986 57.001875000000005 -45.71124999999999 Q55.14750000000001 -47.485 55.14750000000001 -50.065 V-60.54625 Q55.14750000000001 -63.287499999999994 57.16312500000001 -65.303125 Q59.17875000000001 -67.31875 62.081250000000004 -67.31875 H94.4925 Q97.0725 -67.31875 99.49125000000001 -66.19 Q101.91000000000001 -65.06125 103.84500000000001 -63.287499999999994 L122.71124999999999 -44.42125 Q126.58125 -40.71249999999999 130.935 -38.616249999999994 Q135.28875000000002 -36.51999999999998 140.2875 -35.71374999999999 Q142.8675 -35.22999999999999 144.883125 -33.21437499999999 Q146.89875 -31.19874999999999 146.57625000000002 -28.779999999999987 Q146.25375 -26.19999999999999 144.15750000000003 -24.506874999999994 Q142.06125 -22.813749999999985 139.48125000000002 -23.2975 Q132.5475 -24.265 126.42000000000002 -26.925624999999997 Q120.29249999999999 -29.586249999999993 115.13250000000001 -35.068749999999994 L108.68250000000002 -41.51875 L92.23500000000001 -24.909999999999997 L99.97500000000001 -17.169999999999987 Q102.2325 -14.751249999999985 101.829375 -11.52624999999999 Q101.42625 -8.301249999999982 98.685 -6.688749999999985 L69.66000000000001 10.565000000000012 Q67.56375 11.855000000000018 64.98375 11.048750000000013 Q62.40375000000001 10.242500000000007 61.113749999999996 8.146250000000023 Q59.823750000000004 6.049999999999997 60.549375 3.5506249999999966 Q61.275 1.0512500000000102 63.371249999999996 -0.4000000000000057 L86.1075 -13.461249999999993 L75.1425 -24.426249999999982 Z M16.77 -26.683750000000003 Q14.190000000000001 -26.683750000000003 12.41625 -28.457499999999982 Q10.6425 -30.23124999999999 10.6425 -32.81124999999999 Q10.6425 -35.22999999999999 12.41625 -37.16499999999999 Q14.190000000000001 -39.099999999999994 16.77 -39.099999999999994 H39.345 Q41.925000000000004 -39.099999999999994 43.698750000000004 -37.24562499999999 Q45.4725 -35.39125 45.4725 -32.81124999999999 Q45.4725 -30.23124999999999 43.698750000000004 -28.457499999999982 Q41.925000000000004 -26.683750000000003 39.345 -26.683750000000003 H16.77 Z M3.87 -50.38749999999999 Q1.29 -50.38749999999999 -0.48375 -52.161249999999995 Q-2.2575 -53.934999999999995 -2.2575 -56.515 Q-2.2575 -58.933749999999996 -0.48375 -60.788124999999994 Q1.29 -62.64249999999999 3.87 -62.64249999999999 H26.444999999999997 Q29.025000000000002 -62.64249999999999 30.798750000000002 -60.788124999999994 Q32.5725 -58.933749999999996 32.5725 -56.35375 Q32.5725 -53.77374999999999 30.798750000000002 -52.080625 Q29.025000000000002 -50.38749999999999 26.444999999999997 -50.38749999999999 H3.87 Z M125.93625 -62.64249999999999 Q120.77625000000002 -62.64249999999999 117.14812500000001 -66.270625 Q113.52000000000001 -69.89874999999999 113.52000000000001 -75.22 Q113.52000000000001 -80.70249999999999 117.14812500000001 -84.25 Q120.77625000000002 -87.7975 125.93625 -87.7975 Q131.25750000000002 -87.7975 134.885625 -84.25 Q138.51375000000002 -80.70249999999999 138.51375000000002 -75.38125 Q138.51375000000002 -69.89874999999999 134.885625 -66.270625 Q131.25750000000002 -62.64249999999999 125.93625 -62.64249999999999 Z M16.77 -73.92999999999999 Q14.190000000000001 -73.92999999999999 12.41625 -75.78437499999998 Q10.6425 -77.63874999999999 10.6425 -80.0575 Q10.6425 -82.47625 12.41625 -84.41125 Q14.190000000000001 -86.34625 16.77 -86.34625 H39.345 Q41.925000000000004 -86.34625 43.698750000000004 -84.491875 Q45.4725 -82.63749999999999 45.4725 -80.0575 Q45.4725 -77.47749999999999 43.698750000000004 -75.70375 Q41.925000000000004 -73.92999999999999 39.345 -73.92999999999999 H16.77 Z"/></g><g id="Medium-L" transform="matrix(1 0 0 1 1674.31 1556)"><path d="M77.88374999999999 -24.748749999999987  39.18375 13.628749999999997 Q37.41 15.402500000000003 34.99125 15.402500000000003 Q32.5725 15.402500000000003 30.798750000000002 13.79000000000002 Q29.025000000000002 12.01625 29.025000000000002 9.516875000000013 Q29.025000000000002 7.0175000000000125 30.798750000000002 5.243750000000006 L91.10625 -55.06374999999999 H70.14375 V-49.41999999999999 Q70.14375 -47.001249999999985 68.37 -45.22749999999999 Q66.59625 -43.45375 64.01625 -43.45375 Q61.597500000000004 -43.45375 59.823750000000004 -45.22749999999999 Q58.050000000000004 -47.001249999999985 58.050000000000004 -49.41999999999999 V-60.86874999999999 Q58.050000000000004 -63.44875 59.904375 -65.303125 Q61.75875 -67.1575 64.33875 -67.1575 H97.55625 Q99.97500000000001 -67.1575 102.2325 -66.109375 Q104.49 -65.06125 106.26375000000002 -63.44875 L125.4525 -44.42125 Q129.32250000000002 -40.55124999999998 133.756875 -38.455 Q138.19125 -36.35875 143.19 -35.552499999999995 Q145.60875 -34.907499999999985 147.54375000000002 -33.053124999999994 Q149.47875000000002 -31.19874999999999 149.15625 -28.779999999999987 Q148.83375 -26.19999999999999 146.818125 -24.58749999999999 Q144.8025 -22.974999999999994 142.2225 -23.458749999999995 Q135.45000000000002 -24.426249999999982 129.32250000000002 -27.086874999999992 Q123.19500000000001 -29.747500000000002 118.19624999999999 -35.22999999999999 L111.42375 -41.67999999999999 L94.815 -24.909999999999997 L102.8775 -16.686249999999987 Q105.135 -14.428749999999994 104.731875 -11.445624999999993 Q104.32875000000001 -8.462500000000006 101.74875 -7.01124999999999 L72.40125 10.403750000000002 Q70.305 11.693749999999994 67.80562499999999 10.968125000000015 Q65.30625 10.242500000000007 64.01625 7.984999999999999 Q62.72625 5.888750000000002 63.451875 3.5506249999999966 Q64.1775 1.2124999999999915 66.27375 -0.2387499999999818 L89.17125 -13.461249999999993 L77.88374999999999 -24.748749999999987 Z M19.833750000000002 -26.522499999999994 Q17.25375 -26.522499999999994 15.48 -28.29625 Q13.70625 -30.069999999999993 13.70625 -32.48874999999998 Q13.70625 -34.907499999999985 15.48 -36.761875 Q17.25375 -38.616249999999994 19.833750000000002 -38.616249999999994 H42.408750000000005 Q44.8275 -38.616249999999994 46.60125 -36.84249999999999 Q48.375 -35.068749999999994 48.375 -32.48874999999998 Q48.375 -30.069999999999993 46.60125 -28.29625 Q44.8275 -26.522499999999994 42.408750000000005 -26.522499999999994 H19.833750000000002 Z M6.93375 -49.903749999999995 Q4.353750000000001 -49.903749999999995 2.58 -51.677499999999995 Q0.80625 -53.45124999999999 0.80625 -55.86999999999999 Q0.80625 -58.288749999999986 2.58 -60.143125 Q4.353750000000001 -61.997499999999995 6.93375 -61.997499999999995 H29.508750000000003 Q31.927500000000002 -61.997499999999995 33.70125 -60.143125 Q35.475 -58.288749999999986 35.475 -55.86999999999999 Q35.475 -53.29 33.70125 -51.59687499999999 Q31.927500000000002 -49.903749999999995 29.508750000000003 -49.903749999999995 H6.93375 Z M128.83875 -62.964999999999996 Q123.67875000000001 -62.964999999999996 120.13125000000001 -66.51249999999999 Q116.58375 -70.06 116.58375 -75.38125 Q116.58375 -80.70249999999999 120.21187499999999 -84.25 Q123.84 -87.7975 128.83875 -87.7975 Q134.16 -87.7975 137.788125 -84.25 Q141.41625000000002 -80.70249999999999 141.41625000000002 -75.38125 Q141.41625000000002 -70.22125 137.788125 -66.59312499999999 Q134.16 -62.964999999999996 128.83875 -62.964999999999996 Z M19.833750000000002 -73.285 Q17.25375 -73.285 15.48 -74.97812499999999 Q13.70625 -76.67124999999999 13.70625 -79.09 Q13.70625 -81.50874999999999 15.48 -83.363125 Q17.25375 -85.2175 19.833750000000002 -85.2175 H42.408750000000005 Q44.8275 -85.2175 46.60125 -83.44375 Q48.375 -81.66999999999999 48.375 -79.09 Q48.375 -76.67124999999999 46.60125 -74.97812499999999 Q44.8275 -73.285 42.408750000000005 -73.285 H19.833750000000002 Z"/></g><g id="Regular-L" transform="matrix(1 0 0 1 1378.56 1556)"><path d="M79.98 -24.909999999999997  41.11875 13.628749999999997 Q39.345 15.402500000000003 37.006875 15.402500000000003 Q34.66875 15.402500000000003 32.894999999999996 13.628749999999997 Q31.121250000000003 12.01625 31.121250000000003 9.516875000000013 Q31.121250000000003 7.0175000000000125 32.894999999999996 5.243750000000006 L93.525 -55.224999999999994 H71.9175 V-48.936249999999994 Q71.9175 -46.5175 70.224375 -44.824375 Q68.53125 -43.131249999999994 66.1125 -43.131249999999994 Q63.5325 -43.131249999999994 61.839375000000004 -44.824375 Q60.146249999999995 -46.5175 60.146249999999995 -48.936249999999994 V-61.029999999999994 Q60.146249999999995 -63.44875 61.839375000000004 -65.2225 Q63.5325 -66.99625 66.1125 -66.99625 H99.81375 Q102.07124999999999 -66.99625 104.24812500000002 -66.02875 Q106.425 -65.06125 108.03750000000001 -63.44875 L127.54875 -44.25999999999999 Q131.25750000000002 -40.39 135.7725 -38.29374999999999 Q140.2875 -36.19749999999999 145.28625 -35.39125 Q147.70499999999998 -34.74625 149.55937500000002 -32.9725 Q151.41375000000002 -31.19874999999999 151.09125 -28.941249999999997 Q150.76875 -26.19999999999999 148.753125 -24.668125000000003 Q146.7375 -23.13624999999999 144.31875 -23.61999999999999 Q137.54625 -24.58749999999999 131.41875000000002 -27.248124999999987 Q125.29125 -29.908749999999998 120.29249999999999 -35.22999999999999 L113.52000000000001 -41.84125 L96.58875 -24.909999999999997 L105.135 -16.363749999999982 Q107.23125 -14.267499999999998 106.828125 -11.445624999999993 Q106.425 -8.623749999999987 104.00625000000001 -7.172499999999985 L74.33625 10.242500000000007 Q72.24 11.532500000000013 69.901875 10.806875000000005 Q67.56375 10.081249999999997 66.27375 7.984999999999999 Q64.98375 5.888750000000002 65.62875000000001 3.5506249999999966 Q66.27375 1.2124999999999915 68.37 -0.07750000000000057 L91.42875000000001 -13.461249999999993 L79.98 -24.909999999999997 Z M22.09125 -26.522499999999994 Q19.51125 -26.522499999999994 17.818125000000002 -28.21562499999999 Q16.125 -29.908749999999998 16.125 -32.3275 Q16.125 -34.74625 17.818125000000002 -36.51999999999998 Q19.51125 -38.29374999999999 22.09125 -38.29374999999999 H44.66625 Q47.085 -38.29374999999999 48.778125 -36.51999999999998 Q50.471250000000005 -34.74625 50.471250000000005 -32.3275 Q50.471250000000005 -29.908749999999998 48.778125 -28.21562499999999 Q47.085 -26.522499999999994 44.66625 -26.522499999999994 H22.09125 Z M9.19125 -49.58124999999999 Q6.611249999999999 -49.58124999999999 4.918125 -51.274375 Q3.225 -52.967499999999994 3.225 -55.38625 Q3.225 -57.80499999999999 4.918125 -59.57875 Q6.611249999999999 -61.35249999999999 9.19125 -61.35249999999999 H31.76625 Q34.185 -61.35249999999999 35.878125000000004 -59.57875 Q37.57125 -57.80499999999999 37.57125 -55.38625 Q37.57125 -52.967499999999994 35.878125000000004 -51.274375 Q34.185 -49.58124999999999 31.76625 -49.58124999999999 H9.19125 Z M131.09625 -63.12624999999999 Q125.93625 -63.12624999999999 122.38875000000002 -66.67374999999998 Q118.84125 -70.22125 118.84125 -75.54249999999999 Q118.84125 -80.70249999999999 122.38875000000002 -84.25 Q125.93625 -87.7975 131.09625 -87.7975 Q136.25625 -87.7975 139.884375 -84.25 Q143.51250000000002 -80.70249999999999 143.51250000000002 -75.54249999999999 Q143.51250000000002 -70.22125 139.884375 -66.67374999999998 Q136.25625 -63.12624999999999 131.09625 -63.12624999999999 Z M22.09125 -72.63999999999999 Q19.51125 -72.63999999999999 17.818125000000002 -74.333125 Q16.125 -76.02625 16.125 -78.445 Q16.125 -80.86375 17.818125000000002 -82.63749999999999 Q19.51125 -84.41125 22.09125 -84.41125 H44.66625 Q47.085 -84.41125 48.778125 -82.63749999999999 Q50.471250000000005 -80.86375 50.471250000000005 -78.445 Q50.471250000000005 -76.02625 48.778125 -74.333125 Q47.085 -72.63999999999999 44.66625 -72.63999999999999 H22.09125 Z"/></g><g id="Light-L" transform="matrix(1 0 0 1 1082.77 1556)"><path d="M77.72250000000001 -27.16749999999999  38.21625 12.177500000000023 Q36.765 13.628749999999997 34.830000000000005 13.628749999999997 Q32.894999999999996 13.628749999999997 31.605000000000004 12.177500000000023 Q29.992500000000003 10.887500000000003 29.992500000000003 8.871875000000003 Q29.992500000000003 6.856250000000003 31.605000000000004 5.405000000000015 L93.525 -56.35375 H68.0475 V-48.936249999999994 Q68.0475 -47.001249999999985 66.67687500000001 -45.630624999999995 Q65.30625 -44.25999999999999 63.371249999999996 -44.25999999999999 Q61.43625 -44.25999999999999 60.065625000000004 -45.630624999999995 Q58.695 -47.001249999999985 58.695 -48.936249999999994 V-60.06249999999999 Q58.695 -62.48124999999999 60.3075 -64.174375 Q61.92 -65.86749999999999 64.5 -65.86749999999999 H98.03999999999999 Q100.29750000000001 -65.86749999999999 102.39375 -64.89999999999999 Q104.49 -63.9325 106.10249999999999 -62.31999999999999 L124.64625 -43.937499999999986 Q128.6775 -39.906249999999986 133.27312500000002 -37.64874999999999 Q137.86875 -35.39125 143.02875 -34.74625 Q144.96375 -34.10124999999999 146.495625 -32.730625 Q148.0275 -31.36 147.86625 -29.586249999999993 Q147.54375000000002 -27.489999999999995 145.93125 -26.19999999999999 Q144.31875 -24.909999999999997 142.54500000000002 -25.232499999999987 Q135.7725 -26.19999999999999 129.725625 -28.941249999999997 Q123.67875000000001 -31.68249999999999 118.67999999999999 -37.00375 L111.42375 -44.25999999999999 L92.5575 -25.554999999999993 L101.265 -16.847499999999997 Q103.2 -14.912499999999994 102.796875 -12.17125 Q102.39375 -9.429999999999993 100.13625 -7.978749999999977 L71.595 8.63000000000001 Q69.9825 9.75875000000002 68.0475 9.194375000000008 Q66.1125 8.63000000000001 65.145 6.856250000000003 Q64.1775 5.08250000000001 64.66125000000001 3.2281249999999915 Q65.145 1.3737500000000153 66.91875 0.40625 L91.10625 -13.783749999999998 L77.72250000000001 -27.16749999999999 Z M21.93 -28.13499999999999 Q19.833750000000002 -28.13499999999999 18.463124999999998 -29.505624999999995 Q17.0925 -30.876249999999985 17.0925 -32.81124999999999 Q17.0925 -34.74625 18.463124999999998 -36.11687499999999 Q19.833750000000002 -37.4875 21.93 -37.4875 H43.5375 Q45.4725 -37.4875 46.843125 -36.11687499999999 Q48.21375 -34.74625 48.21375 -32.64999999999999 Q48.21375 -30.876249999999985 46.843125 -29.505624999999995 Q45.4725 -28.13499999999999 43.5375 -28.13499999999999 H21.93 Z M9.03 -50.709999999999994 Q6.93375 -50.709999999999994 5.563125 -52.080625 Q4.1925 -53.45124999999999 4.1925 -55.38625 Q4.1925 -57.32125 5.563125 -58.772499999999994 Q6.93375 -60.223749999999995 9.03 -60.223749999999995 H30.6375 Q32.5725 -60.223749999999995 33.943125 -58.772499999999994 Q35.31375 -57.32125 35.31375 -55.38625 Q35.31375 -53.45124999999999 33.943125 -52.080625 Q32.5725 -50.709999999999994 30.6375 -50.709999999999994 H9.03 Z M128.355 -64.255 Q123.67875000000001 -64.255 120.45375000000001 -67.56062499999999 Q117.22875 -70.86625 117.22875 -75.54249999999999 Q117.22875 -80.38 120.45375000000001 -83.52437499999999 Q123.67875000000001 -86.66874999999999 128.355 -86.66874999999999 Q133.03125 -86.66874999999999 136.336875 -83.44375 Q139.64249999999998 -80.21875 139.64249999999998 -75.54249999999999 Q139.64249999999998 -70.86625 136.336875 -67.56062499999999 Q133.03125 -64.255 128.355 -64.255 Z M21.93 -73.44624999999999 Q19.833750000000002 -73.44624999999999 18.463124999999998 -74.816875 Q17.0925 -76.1875 17.0925 -77.96124999999999 Q17.0925 -79.89625 18.463124999999998 -81.3475 Q19.833750000000002 -82.79875 21.93 -82.79875 H43.5375 Q45.4725 -82.79875 46.843125 -81.3475 Q48.21375 -79.89625 48.21375 -77.96124999999999 Q48.21375 -76.02625 46.843125 -74.73624999999998 Q45.4725 -73.44624999999999 43.5375 -73.44624999999999 H21.93 Z"/></g><g id="Thin-L" transform="matrix(1 0 0 1 787.282 1556)"><path d="M75.465 -29.424999999999997  35.1525 10.726250000000007 Q34.02375 11.855000000000018 32.5725 11.855000000000018 Q31.121250000000003 11.855000000000018 30.15375 10.726250000000007 Q29.025000000000002 9.597499999999997 29.025000000000002 8.146250000000023 Q29.025000000000002 6.695000000000007 30.15375 5.566249999999997 L93.36375 -57.64374999999999 H64.1775 V-48.936249999999994 Q64.1775 -47.485 63.129374999999996 -46.5175 Q62.081250000000004 -45.55 60.63 -45.55 Q59.17875000000001 -45.55 58.21125000000001 -46.5175 Q57.24375 -47.485 57.24375 -48.936249999999994 V-58.933749999999996 Q57.24375 -61.35249999999999 58.775625000000005 -62.964999999999996 Q60.3075 -64.57749999999999 62.72625 -64.57749999999999 H96.26625000000001 Q98.52375 -64.57749999999999 100.45875 -63.69062499999999 Q102.39375 -62.803749999999994 104.00625000000001 -61.35249999999999 L121.905 -43.77624999999999 Q125.93625 -39.4225 130.693125 -37.00375 Q135.45000000000002 -34.584999999999994 140.9325 -34.10124999999999 Q142.38375 -33.61749999999999 143.51250000000002 -32.569374999999994 Q144.64125 -31.521249999999995 144.64125 -30.23124999999999 Q144.48 -28.61874999999999 143.19 -27.65124999999999 Q141.9 -26.683750000000003 140.61 -27.006249999999994 Q133.99875 -27.65124999999999 128.113125 -30.553749999999994 Q122.22749999999999 -33.45625 117.0675 -38.7775 L109.16625 -46.5175 L88.6875 -26.19999999999999 L97.395 -17.331249999999997 Q99.16875 -15.55749999999999 98.84625 -12.816249999999997 Q98.52375 -10.074999999999989 96.26625000000001 -8.784999999999982 L69.015 7.0175000000000125 Q67.72500000000001 7.984999999999999 66.27375 7.501250000000013 Q64.8225 7.0175000000000125 64.01625 5.566249999999997 Q63.21000000000001 4.4375 63.69375 2.9862500000000125 Q64.1775 1.5349999999999966 65.4675 0.7287500000000051 L90.78375 -13.944999999999993 L75.465 -29.424999999999997 Z M21.76875 -29.747500000000002 Q20.15625 -29.747500000000002 19.108125 -30.795624999999987 Q18.06 -31.843749999999986 18.06 -33.29499999999999 Q18.06 -34.584999999999994 19.108125 -35.71374999999999 Q20.15625 -36.84249999999999 21.76875 -36.84249999999999 H42.57 Q43.86 -36.84249999999999 44.908125000000005 -35.71374999999999 Q45.956250000000004 -34.584999999999994 45.956250000000004 -33.13374999999999 Q45.956250000000004 -31.843749999999986 44.908125000000005 -30.795624999999987 Q43.86 -29.747500000000002 42.57 -29.747500000000002 H21.76875 Z M8.86875 -51.99999999999999 Q7.2562500000000005 -51.99999999999999 6.208125 -53.04812499999999 Q5.16 -54.09625 5.16 -55.38625 Q5.16 -56.83749999999999 6.208125 -57.88562499999999 Q7.2562500000000005 -58.933749999999996 8.86875 -58.933749999999996 H29.669999999999998 Q30.96 -58.933749999999996 32.008125 -57.88562499999999 Q33.05625 -56.83749999999999 33.05625 -55.38625 Q33.05625 -53.934999999999995 32.008125 -52.967499999999994 Q30.96 -51.99999999999999 29.669999999999998 -51.99999999999999 H8.86875 Z M125.61375000000001 -65.54499999999999 Q121.42125 -65.54499999999999 118.51875 -68.44749999999999 Q115.61625000000001 -71.35 115.61625000000001 -75.70375 Q115.61625000000001 -79.89625 118.51875 -82.79875 Q121.42125 -85.70124999999999 125.61375000000001 -85.70124999999999 Q129.80625 -85.70124999999999 132.789375 -82.79875 Q135.7725 -79.89625 135.7725 -75.54249999999999 Q135.7725 -71.35 132.789375 -68.44749999999999 Q129.80625 -65.54499999999999 125.61375000000001 -65.54499999999999 Z M21.76875 -74.09125 Q20.15625 -74.09125 19.108125 -75.139375 Q18.06 -76.1875 18.06 -77.63874999999999 Q18.06 -78.92875 19.108125 -80.0575 Q20.15625 -81.18625 21.76875 -81.18625 H42.57 Q43.86 -81.18625 44.908125000000005 -80.0575 Q45.956250000000004 -78.92875 45.956250000000004 -77.47749999999999 Q45.956250000000004 -76.1875 44.908125000000005 -75.139375 Q43.86 -74.09125 42.57 -74.09125 H21.76875 Z"/></g><g id="Ultralight-L" transform="matrix(1 0 0 1 491.205 1556)"><path d="M74.01375 -30.715000000000003  33.37875 9.75875000000002 Q32.5725 10.726250000000007 31.363125 10.726250000000007 Q30.15375 10.726250000000007 29.3475 9.75875000000002 Q28.380000000000003 8.952500000000015 28.380000000000003 7.7431250000000205 Q28.380000000000003 6.533750000000012 29.3475 5.566249999999997 L93.36375 -58.288749999999986 H61.92 V-48.936249999999994 Q61.92 -47.80749999999999 61.113749999999996 -47.001249999999985 Q60.3075 -46.19499999999999 59.017500000000005 -46.19499999999999 Q57.88875 -46.19499999999999 57.082499999999996 -47.001249999999985 Q56.27625 -47.80749999999999 56.27625 -48.936249999999994 V-58.44999999999999 Q56.27625 -60.70749999999999 57.88875 -62.31999999999999 Q59.50125 -63.9325 61.75875 -63.9325 H95.29875 Q97.395 -63.9325 99.33 -63.045624999999994 Q101.265 -62.15874999999999 102.8775 -60.70749999999999 L120.13125000000001 -43.614999999999995 Q124.32374999999999 -39.099999999999994 129.16125 -36.600624999999994 Q133.99875 -34.10124999999999 139.64249999999998 -33.77875 Q140.77125 -33.29499999999999 141.73875 -32.48874999999998 Q142.70625 -31.68249999999999 142.70625 -30.715000000000003 Q142.54500000000002 -29.424999999999997 141.49687500000002 -28.61874999999999 Q140.44875 -27.812499999999986 139.64249999999998 -27.973749999999995 Q133.03125 -28.61874999999999 127.145625 -31.601874999999993 Q121.26 -34.584999999999994 116.26124999999999 -39.74499999999999 L107.87625000000001 -47.968749999999986 L86.26875 -26.522499999999994 L94.97625000000001 -17.653749999999988 Q96.75 -15.879999999999995 96.4275 -13.219375 Q96.105 -10.558750000000003 94.00874999999999 -9.268749999999997 L67.4025 6.049999999999997 Q66.435 6.856250000000003 65.22562500000001 6.453125 Q64.01625 6.049999999999997 63.371249999999996 4.921250000000015 Q62.72625 3.9537499999999994 63.129374999999996 2.825000000000003 Q63.5325 1.6962500000000205 64.5 1.0512500000000102 L90.6225 -14.106249999999989 L74.01375 -30.715000000000003 Z M21.6075 -30.715000000000003 Q20.3175 -30.715000000000003 19.51125 -31.521249999999995 Q18.705 -32.3275 18.705 -33.45625 Q18.705 -34.584999999999994 19.51125 -35.471875 Q20.3175 -36.35875 21.6075 -36.35875 H41.925000000000004 Q43.05375 -36.35875 43.86 -35.471875 Q44.66625 -34.584999999999994 44.66625 -33.45625 Q44.66625 -32.3275 43.86 -31.521249999999995 Q43.05375 -30.715000000000003 41.925000000000004 -30.715000000000003 H21.6075 Z M8.707500000000001 -52.64499999999999 Q7.4174999999999995 -52.64499999999999 6.611249999999999 -53.45124999999999 Q5.805000000000001 -54.257499999999986 5.805000000000001 -55.38625 Q5.805000000000001 -56.515 6.611249999999999 -57.401875 Q7.4174999999999995 -58.288749999999986 8.707500000000001 -58.288749999999986 H29.025000000000002 Q30.15375 -58.288749999999986 30.96 -57.401875 Q31.76625 -56.515 31.76625 -55.38625 Q31.76625 -54.257499999999986 30.96 -53.45124999999999 Q30.15375 -52.64499999999999 29.025000000000002 -52.64499999999999 H8.707500000000001 Z M124.00125000000001 -66.19 Q119.97000000000001 -66.19 117.309375 -68.93124999999999 Q114.64874999999999 -71.6725 114.64874999999999 -75.70375 Q114.64874999999999 -79.735 117.309375 -82.395625 Q119.97000000000001 -85.05624999999999 124.00125000000001 -85.05624999999999 Q127.87125 -85.05624999999999 130.693125 -82.315 Q133.515 -79.57374999999999 133.515 -75.70375 Q133.515 -71.51124999999999 130.693125 -68.850625 Q127.87125 -66.19 124.00125000000001 -66.19 Z M21.6075 -74.57499999999999 Q20.3175 -74.57499999999999 19.51125 -75.38125 Q18.705 -76.1875 18.705 -77.31625 Q18.705 -78.445 19.51125 -79.331875 Q20.3175 -80.21875 21.6075 -80.21875 H41.925000000000004 Q43.05375 -80.21875 43.86 -79.331875 Q44.66625 -78.445 44.66625 -77.31625 Q44.66625 -76.1875 43.86 -75.38125 Q43.05375 -74.57499999999999 41.925000000000004 -74.57499999999999 H21.6075 Z"/></g><g id="Bold-M" transform="matrix(1 0 0 1 2281.8 1126)"><path d="M67.75 -24.85499999999999  39.75 2.8950000000000102 Q37.625 5.14500000000001 34.565 5.14500000000001 Q31.5 5.14500000000001 29.375 2.8950000000000102 Q27.125 0.6450000000000102 27.125 -2.3549999999999898 Q27.125 -5.35499999999999 29.375 -7.47999999999999 L69.375 -47.72999999999999 H61.125 V-46.97999999999999 Q61.125 -43.85499999999999 59.0 -41.66999999999999 Q56.875 -39.47999999999999 53.625 -39.47999999999999 Q50.625 -39.47999999999999 48.375 -41.66999999999999 Q46.125 -43.85499999999999 46.125 -46.97999999999999 V-54.22999999999999 Q46.125 -57.72999999999999 48.625 -60.22999999999999 Q51.125 -62.72999999999999 54.625 -62.72999999999999 H79.875 Q83.25 -62.72999999999999 86.31500000000001 -61.419999999999995 Q89.375 -60.10499999999999 91.875 -57.72999999999999 L105.375 -44.10499999999999 Q107.875 -41.72999999999999 110.75 -40.41999999999999 Q113.625 -39.10499999999999 116.75 -38.47999999999999 Q120.0 -37.85499999999999 122.25 -35.60499999999999 Q124.5 -33.35499999999999 124.5 -30.22999999999999 Q124.5 -27.10499999999999 122.125 -24.919999999999987 Q119.75 -22.72999999999999 116.625 -23.22999999999999 Q110.75 -24.10499999999999 105.375 -26.35499999999999 Q100.0 -28.60499999999999 95.625 -33.10499999999999 L92.25 -36.35499999999999 L84.75 -28.97999999999999 L88.625 -24.97999999999999 Q91.625 -22.10499999999999 91.125 -17.97999999999999 Q90.625 -13.85499999999999 86.875 -11.72999999999999 L65.25 0.8950000000000102 Q62.625 2.3950000000000102 59.565 1.5799999999999983 Q56.5 0.7700000000000102 55.125 -1.9799999999999898 Q53.5 -4.60499999999999 54.315 -7.60499999999999 Q55.125 -10.60499999999999 57.75 -12.10499999999999 L72.125 -20.35499999999999 L67.75 -24.85499999999999 Z M18.625 -24.47999999999999 Q15.625 -24.47999999999999 13.375 -26.669999999999987 Q11.125 -28.85499999999999 11.125 -31.97999999999999 Q11.125 -35.10499999999999 13.375 -37.29499999999999 Q15.625 -39.47999999999999 18.625 -39.47999999999999 H33.625 Q36.75 -39.47999999999999 38.935 -37.29499999999999 Q41.125 -35.10499999999999 41.125 -31.97999999999999 Q41.125 -28.85499999999999 38.935 -26.669999999999987 Q36.75 -24.47999999999999 33.625 -24.47999999999999 H18.625 Z M8.625 -44.47999999999999 Q5.625 -44.47999999999999 3.375 -46.66999999999999 Q1.125 -48.85499999999999 1.125 -51.97999999999999 Q1.125 -54.97999999999999 3.375 -57.22999999999999 Q5.625 -59.47999999999999 8.625 -59.47999999999999 H23.625 Q26.75 -59.47999999999999 28.94 -57.29499999999999 Q31.125 -55.10499999999999 31.125 -51.97999999999999 Q31.125 -48.85499999999999 28.94 -46.66999999999999 Q26.75 -44.47999999999999 23.625 -44.47999999999999 H8.625 Z M107.25 -55.10499999999999 Q102.0 -55.10499999999999 98.375 -58.72999999999999 Q94.75 -62.35499999999999 94.75 -67.60499999999999 Q94.75 -72.97999999999999 98.375 -76.54499999999999 Q102.0 -80.10499999999999 107.25 -80.10499999999999 Q112.5 -80.10499999999999 116.125 -76.47999999999999 Q119.75 -72.85499999999999 119.75 -67.72999999999999 Q119.75 -62.47999999999999 116.125 -58.79499999999999 Q112.5 -55.10499999999999 107.25 -55.10499999999999 Z M18.625 -64.47999999999999 Q15.625 -64.47999999999999 13.375 -66.66999999999999 Q11.125 -68.85499999999999 11.125 -71.97999999999999 Q11.125 -74.97999999999999 13.375 -77.22999999999999 Q15.625 -79.47999999999999 18.625 -79.47999999999999 H33.625 Q36.75 -79.47999999999999 38.935 -77.29499999999999 Q41.125 -75.10499999999999 41.125 -71.97999999999999 Q41.125 -68.85499999999999 38.935 -66.66999999999999 Q36.75 -64.47999999999999 33.625 -64.47999999999999 H18.625 Z"/></g><g id="Semibold-M" transform="matrix(1 0 0 1 1985.97 1126)"><path d="M68.125 -25.35499999999999  39.875 2.6450000000000102 Q37.875 4.77000000000001 34.940000000000005 4.77000000000001 Q32.0 4.77000000000001 30.0 2.6450000000000102 Q27.875 0.5200000000000102 27.875 -2.3549999999999898 Q27.875 -5.22999999999999 30.0 -7.22999999999999 L70.625 -48.10499999999999 H61.25 V-46.22999999999999 Q61.25 -43.22999999999999 59.25 -41.169999999999995 Q57.25 -39.10499999999999 54.125 -39.10499999999999 Q51.25 -39.10499999999999 49.125 -41.169999999999995 Q47.0 -43.22999999999999 47.0 -46.22999999999999 V-54.60499999999999 Q47.0 -57.85499999999999 49.25 -60.10499999999999 Q51.5 -62.35499999999999 54.75 -62.35499999999999 H80.75 Q83.75 -62.35499999999999 86.56 -61.16999999999999 Q89.375 -59.97999999999999 91.625 -57.85499999999999 L105.5 -43.85499999999999 Q108.0 -41.47999999999999 111.0 -40.10499999999999 Q114.0 -38.72999999999999 117.125 -38.10499999999999 Q120.25 -37.47999999999999 122.375 -35.29499999999999 Q124.5 -33.10499999999999 124.5 -30.22999999999999 Q124.5 -27.22999999999999 122.25 -25.169999999999987 Q120.0 -23.10499999999999 117.0 -23.60499999999999 Q111.125 -24.47999999999999 105.875 -26.72999999999999 Q100.625 -28.97999999999999 96.25 -33.35499999999999 L92.625 -36.85499999999999 L84.625 -28.97999999999999 L89.125 -24.35499999999999 Q91.875 -21.72999999999999 91.44 -17.97999999999999 Q91.0 -14.22999999999999 87.625 -12.35499999999999 L65.5 0.5200000000000102 Q63.0 2.0200000000000102 60.125 1.210000000000008 Q57.25 0.39500000000001023 55.875 -2.1049999999999898 Q54.375 -4.60499999999999 55.125 -7.47999999999999 Q55.875 -10.35499999999999 58.375 -11.72999999999999 L73.125 -20.35499999999999 L68.125 -25.35499999999999 Z M19.875 -24.85499999999999 Q17.0 -24.85499999999999 14.875 -26.919999999999987 Q12.75 -28.97999999999999 12.75 -31.97999999999999 Q12.75 -34.97999999999999 14.875 -37.04499999999999 Q17.0 -39.10499999999999 19.875 -39.10499999999999 H34.875 Q37.875 -39.10499999999999 39.940000000000005 -37.04499999999999 Q42.0 -34.97999999999999 42.0 -31.97999999999999 Q42.0 -28.97999999999999 39.940000000000005 -26.919999999999987 Q37.875 -24.85499999999999 34.875 -24.85499999999999 H19.875 Z M9.875 -44.10499999999999 Q7.0 -44.10499999999999 4.875 -46.169999999999995 Q2.75 -48.22999999999999 2.75 -51.22999999999999 Q2.75 -54.10499999999999 4.875 -56.22999999999999 Q7.0 -58.35499999999999 9.875 -58.35499999999999 H24.875 Q27.875 -58.35499999999999 29.94 -56.29499999999999 Q32.0 -54.22999999999999 32.0 -51.22999999999999 Q32.0 -48.22999999999999 29.94 -46.169999999999995 Q27.875 -44.10499999999999 24.875 -44.10499999999999 H9.875 Z M107.625 -55.47999999999999 Q102.5 -55.47999999999999 99.0 -58.97999999999999 Q95.5 -62.47999999999999 95.5 -67.60499999999999 Q95.5 -72.72999999999999 99.0 -76.22999999999999 Q102.5 -79.72999999999999 107.625 -79.72999999999999 Q112.75 -79.72999999999999 116.25 -76.22999999999999 Q119.75 -72.72999999999999 119.75 -67.60499999999999 Q119.75 -62.60499999999999 116.25 -59.04499999999999 Q112.75 -55.47999999999999 107.625 -55.47999999999999 Z M19.875 -63.35499999999999 Q17.0 -63.35499999999999 14.875 -65.41499999999999 Q12.75 -67.47999999999999 12.75 -70.47999999999999 Q12.75 -73.35499999999999 14.875 -75.47999999999999 Q17.0 -77.60499999999999 19.875 -77.60499999999999 H34.875 Q37.875 -77.60499999999999 39.940000000000005 -75.47999999999999 Q42.0 -73.35499999999999 42.0 -70.47999999999999 Q42.0 -67.47999999999999 39.940000000000005 -65.41499999999999 Q37.875 -63.35499999999999 34.875 -63.35499999999999 H19.875 Z"/></g><g id="Medium-M" transform="matrix(1 0 0 1 1689.91 1126)"><path d="M68.375 -25.85499999999999  40.0 2.5200000000000102 Q38.0 4.52000000000001 35.25 4.52000000000001 Q32.5 4.52000000000001 30.375 2.5200000000000102 Q28.375 0.5200000000000102 28.375 -2.2949999999999875 Q28.375 -5.10499999999999 30.375 -7.10499999999999 L71.625 -48.35499999999999 H61.375 V-45.60499999999999 Q61.375 -42.85499999999999 59.435 -40.85499999999999 Q57.5 -38.85499999999999 54.625 -38.85499999999999 Q51.75 -38.85499999999999 49.75 -40.85499999999999 Q47.75 -42.85499999999999 47.75 -45.60499999999999 V-54.97999999999999 Q47.75 -57.85499999999999 49.815 -59.97999999999999 Q51.875 -62.10499999999999 54.875 -62.10499999999999 H81.375 Q84.25 -62.10499999999999 86.815 -60.97999999999999 Q89.375 -59.85499999999999 91.375 -57.97999999999999 L105.625 -43.72999999999999 Q108.125 -41.22999999999999 111.19 -39.79499999999999 Q114.25 -38.35499999999999 117.5 -37.72999999999999 Q120.5 -37.10499999999999 122.5 -35.10499999999999 Q124.5 -33.10499999999999 124.5 -30.22999999999999 Q124.5 -27.22999999999999 122.315 -25.35499999999999 Q120.125 -23.47999999999999 117.25 -23.85499999999999 Q111.5 -24.72999999999999 106.25 -26.97999999999999 Q101.0 -29.22999999999999 96.75 -33.47999999999999 L92.875 -37.35499999999999 L84.5 -28.97999999999999 L89.625 -23.85499999999999 Q92.125 -21.35499999999999 91.685 -17.919999999999987 Q91.25 -14.47999999999999 88.125 -12.72999999999999 L65.625 0.27000000000001023 Q63.25 1.7700000000000102 60.5 0.9549999999999983 Q57.75 0.14500000000001023 56.375 -2.2299999999999898 Q54.875 -4.72999999999999 55.625 -7.4199999999999875 Q56.375 -10.10499999999999 58.75 -11.47999999999999 L73.875 -20.22999999999999 L68.375 -25.85499999999999 Z M20.875 -25.10499999999999 Q18.125 -25.10499999999999 16.125 -27.10499999999999 Q14.125 -29.10499999999999 14.125 -31.97999999999999 Q14.125 -34.85499999999999 16.125 -36.85499999999999 Q18.125 -38.85499999999999 20.875 -38.85499999999999 H35.875 Q38.75 -38.85499999999999 40.75 -36.85499999999999 Q42.75 -34.85499999999999 42.75 -31.97999999999999 Q42.75 -29.10499999999999 40.75 -27.10499999999999 Q38.75 -25.10499999999999 35.875 -25.10499999999999 H20.875 Z M10.875 -43.85499999999999 Q8.125 -43.85499999999999 6.125 -45.85499999999999 Q4.125 -47.85499999999999 4.125 -50.60499999999999 Q4.125 -53.47999999999999 6.125 -55.47999999999999 Q8.125 -57.47999999999999 10.875 -57.47999999999999 H25.875 Q28.75 -57.47999999999999 30.75 -55.47999999999999 Q32.75 -53.47999999999999 32.75 -50.60499999999999 Q32.75 -47.85499999999999 30.75 -45.85499999999999 Q28.75 -43.85499999999999 25.875 -43.85499999999999 H10.875 Z M107.875 -55.72999999999999 Q103.0 -55.72999999999999 99.5 -59.16999999999999 Q96.0 -62.60499999999999 96.0 -67.60499999999999 Q96.0 -72.60499999999999 99.5 -76.04499999999999 Q103.0 -79.47999999999999 107.875 -79.47999999999999 Q112.875 -79.47999999999999 116.375 -76.04499999999999 Q119.875 -72.60499999999999 119.875 -67.60499999999999 Q119.875 -62.72999999999999 116.375 -59.22999999999999 Q112.875 -55.72999999999999 107.875 -55.72999999999999 Z M20.875 -62.47999999999999 Q18.125 -62.47999999999999 16.125 -64.47999999999999 Q14.125 -66.47999999999999 14.125 -69.35499999999999 Q14.125 -72.10499999999999 16.125 -74.10499999999999 Q18.125 -76.10499999999999 20.875 -76.10499999999999 H35.875 Q38.75 -76.10499999999999 40.75 -74.10499999999999 Q42.75 -72.10499999999999 42.75 -69.35499999999999 Q42.75 -66.47999999999999 40.75 -64.47999999999999 Q38.75 -62.47999999999999 35.875 -62.47999999999999 H20.875 Z"/></g><g id="Regular-M" transform="matrix(1 0 0 1 1394.06 1126)"><path d="M68.625 -26.10499999999999  40.125 2.3950000000000102 Q38.125 4.39500000000001 35.44 4.39500000000001 Q32.75 4.39500000000001 30.75 2.3950000000000102 Q28.75 0.39500000000001023 28.75 -2.2949999999999875 Q28.75 -4.97999999999999 30.75 -6.97999999999999 L72.375 -48.60499999999999 H61.5 V-45.22999999999999 Q61.5 -42.47999999999999 59.565 -40.539999999999985 Q57.625 -38.60499999999999 54.875 -38.60499999999999 Q52.125 -38.60499999999999 50.19 -40.539999999999985 Q48.25 -42.47999999999999 48.25 -45.22999999999999 V-55.22999999999999 Q48.25 -57.97999999999999 50.19 -59.91999999999999 Q52.125 -61.85499999999999 54.875 -61.85499999999999 H81.875 Q84.5 -61.85499999999999 86.94000000000001 -60.85499999999999 Q89.375 -59.85499999999999 91.25 -57.97999999999999 L105.75 -43.60499999999999 Q108.25 -41.10499999999999 111.31500000000001 -39.60499999999999 Q114.375 -38.10499999999999 117.75 -37.47999999999999 Q120.625 -36.85499999999999 122.56500000000001 -34.919999999999995 Q124.5 -32.97999999999999 124.5 -30.22999999999999 Q124.5 -27.35499999999999 122.375 -25.539999999999992 Q120.25 -23.72999999999999 117.5 -24.10499999999999 Q111.75 -24.97999999999999 106.56 -27.169999999999987 Q101.375 -29.35499999999999 97.125 -33.60499999999999 L93.125 -37.60499999999999 L84.375 -28.97999999999999 L89.875 -23.47999999999999 Q92.25 -21.10499999999999 91.815 -17.914999999999992 Q91.375 -14.72999999999999 88.5 -13.10499999999999 L65.75 0.14500000000001023 Q63.375 1.5200000000000102 60.75 0.7700000000000102 Q58.125 0.020000000000010232 56.75 -2.3549999999999898 Q55.375 -4.72999999999999 56.065 -7.35499999999999 Q56.75 -9.97999999999999 59.125 -11.35499999999999 L74.5 -20.22999999999999 L68.625 -26.10499999999999 Z M21.625 -25.35499999999999 Q18.875 -25.35499999999999 16.939999999999998 -27.294999999999987 Q15.0 -29.22999999999999 15.0 -31.97999999999999 Q15.0 -34.72999999999999 16.939999999999998 -36.66999999999999 Q18.875 -38.60499999999999 21.625 -38.60499999999999 H36.625 Q39.375 -38.60499999999999 41.31 -36.66999999999999 Q43.25 -34.72999999999999 43.25 -31.97999999999999 Q43.25 -29.22999999999999 41.31 -27.294999999999987 Q39.375 -25.35499999999999 36.625 -25.35499999999999 H21.625 Z M11.625 -43.60499999999999 Q8.875 -43.60499999999999 6.9399999999999995 -45.539999999999985 Q5.0 -47.47999999999999 5.0 -50.22999999999999 Q5.0 -52.97999999999999 6.9399999999999995 -54.919999999999995 Q8.875 -56.85499999999999 11.625 -56.85499999999999 H26.625 Q29.375 -56.85499999999999 31.314999999999998 -54.919999999999995 Q33.25 -52.97999999999999 33.25 -50.22999999999999 Q33.25 -47.47999999999999 31.314999999999998 -45.539999999999985 Q29.375 -43.60499999999999 26.625 -43.60499999999999 H11.625 Z M108.125 -55.97999999999999 Q103.25 -55.97999999999999 99.815 -59.35499999999999 Q96.375 -62.72999999999999 96.375 -67.60499999999999 Q96.375 -72.47999999999999 99.815 -75.85499999999999 Q103.25 -79.22999999999999 108.125 -79.22999999999999 Q113.0 -79.22999999999999 116.44 -75.85499999999999 Q119.875 -72.47999999999999 119.875 -67.60499999999999 Q119.875 -62.72999999999999 116.44 -59.35499999999999 Q113.0 -55.97999999999999 108.125 -55.97999999999999 Z M21.625 -61.85499999999999 Q18.875 -61.85499999999999 16.939999999999998 -63.79499999999999 Q15.0 -65.72999999999999 15.0 -68.47999999999999 Q15.0 -71.22999999999999 16.939999999999998 -73.16999999999999 Q18.875 -75.10499999999999 21.625 -75.10499999999999 H36.625 Q39.375 -75.10499999999999 41.31 -73.16999999999999 Q43.25 -71.22999999999999 43.25 -68.47999999999999 Q43.25 -65.72999999999999 41.31 -63.79499999999999 Q39.375 -61.85499999999999 36.625 -61.85499999999999 H21.625 Z"/></g><g id="Light-M" transform="matrix(1 0 0 1 1098.18 1126)"><path d="M66.125 -27.85499999999999  36.75 1.5200000000000102 Q35.125 3.1450000000000102 33.0 3.1450000000000102 Q30.875 3.1450000000000102 29.125 1.5200000000000102 Q27.5 -0.22999999999998977 27.5 -2.3549999999999898 Q27.5 -4.47999999999999 29.125 -6.10499999999999 L72.875 -49.85499999999999 H57.75 V-45.22999999999999 Q57.75 -42.97999999999999 56.19 -41.41999999999999 Q54.625 -39.85499999999999 52.375 -39.85499999999999 Q50.125 -39.85499999999999 48.565 -41.41999999999999 Q47.0 -42.97999999999999 47.0 -45.22999999999999 V-54.47999999999999 Q47.0 -56.97999999999999 48.81 -58.79499999999999 Q50.625 -60.60499999999999 53.125 -60.60499999999999 H80.25 Q82.625 -60.60499999999999 84.94 -59.664999999999985 Q87.25 -58.72999999999999 89.0 -56.97999999999999 L102.875 -43.22999999999999 Q105.625 -40.35499999999999 108.875 -38.72999999999999 Q112.125 -37.10499999999999 115.75 -36.60499999999999 Q118.125 -36.10499999999999 119.69 -34.54499999999999 Q121.25 -32.97999999999999 121.25 -30.72999999999999 Q121.25 -28.35499999999999 119.565 -26.919999999999987 Q117.875 -25.47999999999999 115.625 -25.72999999999999 Q110.125 -26.60499999999999 105.0 -28.794999999999987 Q99.875 -30.97999999999999 95.75 -35.22999999999999 L91.125 -39.85499999999999 L80.125 -28.97999999999999 L85.75 -23.22999999999999 Q88.0 -20.97999999999999 87.625 -18.039999999999992 Q87.25 -15.10499999999999 84.5 -13.60499999999999 L62.625 -0.8549999999999898 Q60.625 0.27000000000001023 58.5 -0.35499999999998977 Q56.375 -0.9799999999999898 55.25 -2.9799999999999898 Q54.125 -4.97999999999999 54.690000000000005 -7.039999999999978 Q55.25 -9.10499999999999 57.25 -10.35499999999999 L74.0 -19.97999999999999 L66.125 -27.85499999999999 Z M20.375 -26.60499999999999 Q18.125 -26.60499999999999 16.56 -28.169999999999987 Q15.0 -29.72999999999999 15.0 -31.97999999999999 Q15.0 -34.22999999999999 16.56 -35.79499999999999 Q18.125 -37.35499999999999 20.375 -37.35499999999999 H35.375 Q37.625 -37.35499999999999 39.19 -35.79499999999999 Q40.75 -34.22999999999999 40.75 -31.97999999999999 Q40.75 -29.72999999999999 39.19 -28.169999999999987 Q37.625 -26.60499999999999 35.375 -26.60499999999999 H20.375 Z M10.375 -44.85499999999999 Q8.125 -44.85499999999999 6.5600000000000005 -46.41999999999999 Q5.0 -47.97999999999999 5.0 -50.22999999999999 Q5.0 -52.47999999999999 6.5600000000000005 -54.03999999999999 Q8.125 -55.60499999999999 10.375 -55.60499999999999 H25.375 Q27.625 -55.60499999999999 29.19 -54.03999999999999 Q30.75 -52.47999999999999 30.75 -50.22999999999999 Q30.75 -47.97999999999999 29.19 -46.41999999999999 Q27.625 -44.85499999999999 25.375 -44.85499999999999 H10.375 Z M105.625 -57.22999999999999 Q101.25 -57.22999999999999 98.19000000000001 -60.22999999999999 Q95.125 -63.22999999999999 95.125 -67.60499999999999 Q95.125 -72.10499999999999 98.19000000000001 -75.10499999999999 Q101.25 -78.10499999999999 105.625 -78.10499999999999 Q110.0 -78.10499999999999 113.065 -75.04499999999999 Q116.125 -71.97999999999999 116.125 -67.60499999999999 Q116.125 -63.22999999999999 113.065 -60.22999999999999 Q110.0 -57.22999999999999 105.625 -57.22999999999999 Z M20.375 -63.10499999999999 Q18.125 -63.10499999999999 16.56 -64.66499999999999 Q15.0 -66.22999999999999 15.0 -68.47999999999999 Q15.0 -70.72999999999999 16.56 -72.29499999999999 Q18.125 -73.85499999999999 20.375 -73.85499999999999 H35.375 Q37.625 -73.85499999999999 39.19 -72.29499999999999 Q40.75 -70.72999999999999 40.75 -68.47999999999999 Q40.75 -66.22999999999999 39.19 -64.66499999999999 Q37.625 -63.10499999999999 35.375 -63.10499999999999 H20.375 Z"/></g><g id="Thin-M" transform="matrix(1 0 0 1 802.565 1126)"><path d="M63.5 -29.60499999999999  33.5 0.5200000000000102 Q32.125 1.8950000000000102 30.5 1.8950000000000102 Q28.875 1.8950000000000102 27.625 0.5200000000000102 Q26.25 -0.7299999999999898 26.25 -2.3549999999999898 Q26.25 -3.9799999999999898 27.625 -5.35499999999999 L73.375 -51.10499999999999 H54.0 V-45.22999999999999 Q54.0 -43.47999999999999 52.75 -42.29499999999999 Q51.5 -41.10499999999999 49.875 -41.10499999999999 Q48.125 -41.10499999999999 46.935 -42.29499999999999 Q45.75 -43.47999999999999 45.75 -45.22999999999999 V-53.60499999999999 Q45.75 -56.10499999999999 47.44 -57.72999999999999 Q49.125 -59.35499999999999 51.375 -59.35499999999999 H78.625 Q80.875 -59.35499999999999 82.935 -58.47999999999999 Q85.0 -57.60499999999999 86.625 -55.97999999999999 L100.0 -42.72999999999999 Q103.0 -39.60499999999999 106.5 -37.91999999999999 Q110.0 -36.22999999999999 113.75 -35.72999999999999 Q115.625 -35.35499999999999 116.815 -34.22999999999999 Q118.0 -33.10499999999999 118.0 -31.35499999999999 Q118.0 -29.47999999999999 116.75 -28.35499999999999 Q115.5 -27.22999999999999 113.75 -27.47999999999999 Q108.375 -28.10499999999999 103.44 -30.419999999999987 Q98.5 -32.72999999999999 94.375 -36.85499999999999 L89.125 -41.97999999999999 L75.875 -28.97999999999999 L81.75 -22.97999999999999 Q83.75 -20.85499999999999 83.375 -18.22999999999999 Q83.0 -15.60499999999999 80.5 -14.10499999999999 L59.5 -1.9799999999999898 Q58.0 -1.1049999999999898 56.375 -1.6049999999999898 Q54.75 -2.1049999999999898 53.875 -3.6049999999999898 Q53.0 -5.10499999999999 53.440000000000005 -6.72999999999999 Q53.875 -8.35499999999999 55.375 -9.22999999999999 L73.5 -19.60499999999999 L63.5 -29.60499999999999 Z M19.125 -27.85499999999999 Q17.5 -27.85499999999999 16.25 -29.10499999999999 Q15.0 -30.35499999999999 15.0 -31.97999999999999 Q15.0 -33.72999999999999 16.25 -34.919999999999995 Q17.5 -36.10499999999999 19.125 -36.10499999999999 H34.125 Q35.875 -36.10499999999999 37.065 -34.85499999999999 Q38.25 -33.60499999999999 38.25 -31.97999999999999 Q38.25 -30.22999999999999 37.065 -29.039999999999992 Q35.875 -27.85499999999999 34.125 -27.85499999999999 H19.125 Z M9.125 -46.10499999999999 Q7.5 -46.10499999999999 6.25 -47.35499999999999 Q5.0 -48.60499999999999 5.0 -50.22999999999999 Q5.0 -51.97999999999999 6.25 -53.16999999999999 Q7.5 -54.35499999999999 9.125 -54.35499999999999 H24.125 Q25.875 -54.35499999999999 27.065 -53.10499999999999 Q28.25 -51.85499999999999 28.25 -50.22999999999999 Q28.25 -48.47999999999999 27.065 -47.29499999999999 Q25.875 -46.10499999999999 24.125 -46.10499999999999 H9.125 Z M103.125 -58.47999999999999 Q99.25 -58.47999999999999 96.56 -61.16999999999999 Q93.875 -63.85499999999999 93.875 -67.72999999999999 Q93.875 -71.60499999999999 96.56 -74.29499999999999 Q99.25 -76.97999999999999 103.125 -76.97999999999999 Q107.0 -76.97999999999999 109.69 -74.29499999999999 Q112.375 -71.60499999999999 112.375 -67.72999999999999 Q112.375 -63.72999999999999 109.69 -61.10499999999999 Q107.0 -58.47999999999999 103.125 -58.47999999999999 Z M19.125 -64.35499999999999 Q17.5 -64.35499999999999 16.25 -65.60499999999999 Q15.0 -66.85499999999999 15.0 -68.47999999999999 Q15.0 -70.22999999999999 16.25 -71.41999999999999 Q17.5 -72.60499999999999 19.125 -72.60499999999999 H34.125 Q35.875 -72.60499999999999 37.065 -71.35499999999999 Q38.25 -70.10499999999999 38.25 -68.47999999999999 Q38.25 -66.72999999999999 37.065 -65.53999999999999 Q35.875 -64.35499999999999 34.125 -64.35499999999999 H19.125 Z"/></g><g id="Ultralight-M" transform="matrix(1 0 0 1 506.415 1126)"><path d="M62.0 -30.60499999999999  31.5 0.020000000000010232 Q30.375 1.1450000000000102 29.060000000000002 1.1450000000000102 Q27.75 1.1450000000000102 26.625 0.020000000000010232 Q25.5 -1.1049999999999898 25.5 -2.4199999999999875 Q25.5 -3.7299999999999898 26.625 -4.85499999999999 L73.625 -51.85499999999999 H51.75 V-45.22999999999999 Q51.75 -43.85499999999999 50.75 -42.85499999999999 Q49.75 -41.85499999999999 48.375 -41.85499999999999 Q47.0 -41.85499999999999 46.0 -42.85499999999999 Q45.0 -43.85499999999999 45.0 -45.22999999999999 V-53.22999999999999 Q45.0 -55.47999999999999 46.559999999999995 -57.044999999999995 Q48.125 -58.60499999999999 50.375 -58.60499999999999 H77.625 Q79.75 -58.60499999999999 81.75 -57.72999999999999 Q83.75 -56.85499999999999 85.25 -55.35499999999999 L98.25 -42.47999999999999 Q101.5 -39.22999999999999 105.06500000000001 -37.419999999999995 Q108.625 -35.60499999999999 112.5 -35.22999999999999 Q114.125 -34.85499999999999 115.125 -33.97999999999999 Q116.125 -33.10499999999999 116.125 -31.72999999999999 Q116.125 -30.10499999999999 115.06500000000001 -29.169999999999987 Q114.0 -28.22999999999999 112.625 -28.47999999999999 Q107.375 -29.10499999999999 102.5 -31.419999999999987 Q97.625 -33.72999999999999 93.625 -37.85499999999999 L87.875 -43.35499999999999 L73.25 -28.97999999999999 L79.25 -22.85499999999999 Q81.25 -20.85499999999999 80.875 -18.35499999999999 Q80.5 -15.85499999999999 78.125 -14.47999999999999 L57.625 -2.6049999999999898 Q56.375 -1.8549999999999898 55.06 -2.2949999999999875 Q53.75 -2.7299999999999898 53.0 -3.9799999999999898 Q52.25 -5.22999999999999 52.625 -6.539999999999992 Q53.0 -7.85499999999999 54.25 -8.60499999999999 L73.125 -19.47999999999999 L62.0 -30.60499999999999 Z M18.375 -28.60499999999999 Q17.0 -28.60499999999999 16.0 -29.60499999999999 Q15.0 -30.60499999999999 15.0 -31.97999999999999 Q15.0 -33.35499999999999 16.0 -34.35499999999999 Q17.0 -35.35499999999999 18.375 -35.35499999999999 H33.375 Q34.75 -35.35499999999999 35.75 -34.35499999999999 Q36.75 -33.35499999999999 36.75 -31.97999999999999 Q36.75 -30.60499999999999 35.75 -29.60499999999999 Q34.75 -28.60499999999999 33.375 -28.60499999999999 H18.375 Z M8.375 -46.85499999999999 Q7.0 -46.85499999999999 6.0 -47.85499999999999 Q5.0 -48.85499999999999 5.0 -50.22999999999999 Q5.0 -51.60499999999999 6.0 -52.60499999999999 Q7.0 -53.60499999999999 8.375 -53.60499999999999 H23.375 Q24.75 -53.60499999999999 25.75 -52.60499999999999 Q26.75 -51.60499999999999 26.75 -50.22999999999999 Q26.75 -48.85499999999999 25.75 -47.85499999999999 Q24.75 -46.85499999999999 23.375 -46.85499999999999 H8.375 Z M101.625 -59.22999999999999 Q98.0 -59.22999999999999 95.565 -61.66999999999999 Q93.125 -64.10499999999999 93.125 -67.72999999999999 Q93.125 -71.35499999999999 95.565 -73.79499999999999 Q98.0 -76.22999999999999 101.625 -76.22999999999999 Q105.25 -76.22999999999999 107.69 -73.79499999999999 Q110.125 -71.35499999999999 110.125 -67.72999999999999 Q110.125 -64.10499999999999 107.69 -61.66999999999999 Q105.25 -59.22999999999999 101.625 -59.22999999999999 Z M18.375 -65.10499999999999 Q17.0 -65.10499999999999 16.0 -66.10499999999999 Q15.0 -67.10499999999999 15.0 -68.47999999999999 Q15.0 -69.85499999999999 16.0 -70.85499999999999 Q17.0 -71.85499999999999 18.375 -71.85499999999999 H33.375 Q34.75 -71.85499999999999 35.75 -70.85499999999999 Q36.75 -69.85499999999999 36.75 -68.47999999999999 Q36.75 -67.10499999999999 35.75 -66.10499999999999 Q34.75 -65.10499999999999 33.375 -65.10499999999999 H18.375 Z"/></g><g id="Bold-S" transform="matrix(1 0 0 1 2294.23 696)"><path d="M51.875172 -26.154921999999992  31.163922 -5.642499999999998 Q29.5875 -3.9666639999999944 27.367254 -3.9666639999999944 Q25.147008 -3.9666639999999944 23.570586 -5.642499999999998 Q21.89475 -7.218921999999992 21.89475 -9.439167999999995 Q21.89475 -11.659413999999998 23.570586 -13.235835999999992 L55.132164 -45.09092199999999 H49.806414000000004 V-44.89682799999999 Q49.806414000000004 -42.62450799999999 48.229992 -41.00074599999999 Q46.648835999999996 -39.372249999999994 44.281836 -39.372249999999994 Q42.11366400000001 -39.372249999999994 40.437827999999996 -41.00074599999999 Q38.761992 -42.62450799999999 38.761992 -44.89682799999999 V-49.824921999999994 Q38.761992 -52.39075 40.631922 -54.26541399999999 Q42.506586 -56.14007799999999 45.072414 -56.14007799999999 H61.343172 Q63.809585999999996 -56.14007799999999 66.077172 -55.20274599999999 Q68.349492 -54.26541399999999 70.31883599999999 -52.39075 L86.296086 -36.31408599999999 Q87.77782800000001 -34.936491999999994 89.15542199999999 -34.193253999999996 Q90.53775 -33.45474999999999 91.920078 -33.06182799999999 Q94.28707800000001 -32.470077999999994 95.91084000000001 -30.841581999999995 Q97.53933599999999 -29.21308599999999 97.53933599999999 -26.945499999999996 Q97.53933599999999 -24.57849999999999 95.8635 -23.00207799999999 Q94.187664 -21.420921999999997 91.920078 -21.917991999999998 Q88.369578 -22.604421999999992 84.965832 -24.133503999999995 Q81.562086 -25.66258599999999 78.70275 -28.720749999999995 L72.1935 -34.737663999999995 L65.485422 -28.12899999999999 L69.433578 -24.086163999999997 Q71.701164 -21.917991999999998 71.256168 -18.90716799999999 Q70.811172 -15.901077999999998 68.05125 -14.319921999999991 L51.283422 -4.458999999999989 Q49.314078 -3.275499999999994 47.141172 -3.914590000000004 Q44.973 -4.558413999999999 43.88891400000001 -6.627171999999987 Q42.606 -8.601249999999993 43.19775 -10.722082 Q43.7895 -12.842913999999993 45.763578 -14.026414000000003 L57.200922 -20.635077999999993 L51.875172 -26.154921999999992 Z M16.668414 -25.960827999999992 Q14.495508 -25.960827999999992 12.819672 -27.58458999999999 Q11.143836 -29.21308599999999 11.143836 -31.48067199999999 Q11.143836 -33.752992 12.819672 -35.376754 Q14.495508 -37.00525 16.668414 -37.00525 H28.503414 Q30.870414 -37.00525 32.446836 -35.376754 Q34.027992 -33.752992 34.027992 -31.48067199999999 Q34.027992 -29.21308599999999 32.446836 -27.58458999999999 Q30.870414 -25.960827999999992 28.503414 -25.960827999999992 H16.668414 Z M7.200413999999999 -41.73924999999999 Q5.027508 -41.73924999999999 3.3516719999999998 -43.31567199999999 Q1.6758359999999999 -44.89682799999999 1.6758359999999999 -47.164413999999994 Q1.6758359999999999 -49.431999999999995 3.3516719999999998 -51.10783599999999 Q5.027508 -52.783671999999996 7.200413999999999 -52.783671999999996 H19.035414 Q21.402414 -52.783671999999996 22.978836 -51.159909999999996 Q24.559991999999998 -49.53141399999999 24.559991999999998 -47.26382799999999 Q24.559991999999998 -44.991507999999996 22.978836 -43.36774599999999 Q21.402414 -41.73924999999999 19.035414 -41.73924999999999 H7.200413999999999 Z M83.536164 -49.33258599999999 Q79.687422 -49.33258599999999 77.126328 -51.945753999999994 Q74.5605 -54.558921999999995 74.5605 -58.50707799999999 Q74.5605 -62.351085999999995 77.126328 -64.91691399999999 Q79.687422 -67.47800799999999 83.536164 -67.47800799999999 Q87.38017199999999 -67.47800799999999 89.946 -64.86483999999999 Q92.51182800000001 -62.251672 92.51182800000001 -58.407664 Q92.51182800000001 -54.65833599999999 89.946 -51.99782799999999 Q87.38017199999999 -49.33258599999999 83.536164 -49.33258599999999 Z M16.668414 -57.51767199999999 Q14.495508 -57.51767199999999 12.819672 -59.098828 Q11.143836 -60.67524999999999 11.143836 -62.94283599999999 Q11.143836 -65.210422 12.819672 -66.886258 Q14.495508 -68.56682799999999 16.668414 -68.56682799999999 H28.503414 Q30.870414 -68.56682799999999 32.446836 -66.93833199999999 Q34.027992 -65.30983599999999 34.027992 -63.042249999999996 Q34.027992 -60.774663999999994 32.446836 -59.14616799999999 Q30.870414 -57.51767199999999 28.503414 -57.51767199999999 H16.668414 Z"/></g><g id="Semibold-S" transform="matrix(1 0 0 1 1998.1 696)"><path d="M52.173414 -26.55257799999999  31.36275 -5.841328000000004 Q29.786327999999997 -4.260171999999983 27.665496 -4.260171999999983 Q25.544664 -4.260171999999983 24.062922 -5.841328000000004 Q22.4865 -7.318335999999988 22.4865 -9.439167999999995 Q22.4865 -11.559999999999988 24.062922 -13.037007999999986 L56.116836 -45.389163999999994 H49.905828 V-44.305077999999995 Q49.905828 -42.132172 48.424085999999996 -40.603089999999995 Q46.947078 -39.07400799999999 44.679492 -39.07400799999999 Q42.606 -39.07400799999999 41.029578 -40.603089999999995 Q39.448422 -42.132172 39.448422 -44.305077999999995 V-50.123163999999996 Q39.448422 -52.49016399999999 41.128992000000004 -54.166 Q42.804828 -55.841835999999994 45.171828 -55.841835999999994 H62.034335999999996 Q64.301922 -55.841835999999994 66.32334 -55.00391799999999 Q68.349492 -54.166 70.120008 -52.49016399999999 L86.3955 -36.119991999999996 Q87.87250800000001 -34.737663999999995 89.30690999999999 -33.89974599999999 Q90.73657800000001 -33.06182799999999 92.21358599999999 -32.76358599999999 Q94.48117199999999 -32.17183599999999 96.01025399999999 -30.595413999999998 Q97.53933599999999 -29.018991999999997 97.53933599999999 -26.945499999999996 Q97.53933599999999 -24.677913999999994 95.962914 -23.196171999999997 Q94.38649199999999 -21.719164 92.21358599999999 -22.211499999999994 Q88.66308599999999 -22.902663999999994 85.35875399999999 -24.43174599999999 Q82.05442199999999 -25.960827999999992 79.19508599999999 -28.919577999999994 L72.487008 -35.13058599999999 L65.386008 -28.12899999999999 L69.8265 -23.593827999999995 Q71.899992 -21.619749999999996 71.502336 -18.90716799999999 Q71.109414 -16.194585999999987 68.643 -14.816991999999999 L51.48225 -4.752508000000006 Q49.607586 -3.5690079999999966 47.586168 -4.212831999999992 Q45.56475 -4.851921999999988 44.480664000000004 -6.726585999999983 Q43.297164 -8.601249999999993 43.83684 -10.62266799999999 Q44.38125 -12.644085999999987 46.255914000000004 -13.728172 L57.9915 -20.635077999999993 L52.173414 -26.55257799999999 Z M17.653086000000002 -26.254335999999988 Q15.584328 -26.254335999999988 14.003172000000001 -27.78341799999999 Q12.42675 -29.312499999999993 12.42675 -31.48067199999999 Q12.42675 -33.653577999999996 14.003172000000001 -35.18265999999999 Q15.584328 -36.70700799999999 17.653086000000002 -36.70700799999999 H29.488086 Q31.755672 -36.70700799999999 33.237414 -35.18265999999999 Q34.714422 -33.653577999999996 34.714422 -31.48067199999999 Q34.714422 -29.312499999999993 33.237414 -27.78341799999999 Q31.755672 -26.254335999999988 29.488086 -26.254335999999988 H17.653086000000002 Z M8.185086 -41.44100799999999 Q6.116328 -41.44100799999999 4.535172 -42.97008999999999 Q2.95875 -44.499171999999994 2.95875 -46.572663999999996 Q2.95875 -48.740835999999994 4.535172 -50.317257999999995 Q6.116328 -51.89841399999999 8.185086 -51.89841399999999 H20.020086 Q22.287672 -51.89841399999999 23.769414 -50.36933199999999 Q25.246422 -48.84024999999999 25.246422 -46.67207799999999 Q25.246422 -44.499171999999994 23.769414 -42.97008999999999 Q22.287672 -41.44100799999999 20.020086 -41.44100799999999 H8.185086 Z M83.82967199999999 -49.630827999999994 Q80.08507800000001 -49.630827999999994 77.61866400000001 -52.19192199999999 Q75.15225 -54.757749999999994 75.15225 -58.407664 Q75.15225 -62.15699199999999 77.61866400000001 -64.670746 Q80.08507800000001 -67.18449999999999 83.82967199999999 -67.18449999999999 Q87.579 -67.18449999999999 90.04541400000001 -64.61867199999999 Q92.51182800000001 -62.05757799999999 92.51182800000001 -58.407664 Q92.51182800000001 -54.757749999999994 90.04541400000001 -52.19192199999999 Q87.579 -49.630827999999994 83.82967199999999 -49.630827999999994 Z M17.653086000000002 -56.632414 Q15.584328 -56.632414 14.003172000000001 -58.161496 Q12.42675 -59.69057799999999 12.42675 -61.75933599999999 Q12.42675 -63.92750799999999 14.003172000000001 -65.508664 Q15.584328 -67.08508599999999 17.653086000000002 -67.08508599999999 H29.488086 Q31.755672 -67.08508599999999 33.237414 -65.556004 Q34.714422 -64.026922 34.714422 -61.85874999999999 Q34.714422 -59.69057799999999 33.237414 -58.161496 Q31.755672 -56.632414 29.488086 -56.632414 H17.653086000000002 Z"/></g><g id="Medium-S" transform="matrix(1 0 0 1 1701.85 696)"><path d="M52.367507999999994 -26.945499999999996  31.462163999999998 -5.936008000000001 Q29.881008 -4.458999999999989 27.859589999999997 -4.458999999999989 Q25.838172 -4.458999999999989 24.361164 -5.936008000000001 Q22.879422 -7.417749999999998 22.879422 -9.439167999999995 Q22.879422 -11.460585999999992 24.361164 -12.94232799999999 L56.907414 -45.58799199999999 H50.000507999999996 V-43.808007999999994 Q50.000507999999996 -41.73924999999999 48.57084 -40.30958199999999 Q47.141172 -38.879914 45.072414 -38.879914 Q42.998922 -38.879914 41.521914 -40.30958199999999 Q40.040172 -41.73924999999999 40.040172 -43.808007999999994 V-50.41667199999999 Q40.040172 -52.49016399999999 41.569254 -54.066585999999994 Q43.098335999999996 -55.643007999999995 45.266507999999995 -55.643007999999995 H62.526672 Q64.600164 -55.643007999999995 66.474828 -54.857164 Q68.349492 -54.066585999999994 69.925914 -52.58957799999999 L86.49491400000001 -36.02057799999999 Q87.97192199999999 -34.53883599999999 89.453664 -33.700917999999994 Q90.93067199999999 -32.86299999999999 92.51182800000001 -32.470077999999994 Q94.68 -31.87832799999999 96.109668 -30.448659999999997 Q97.53933599999999 -29.018991999999997 97.53933599999999 -26.945499999999996 Q97.53933599999999 -24.677913999999994 96.01025399999999 -23.347659999999998 Q94.48117199999999 -22.012671999999995 92.412414 -22.410327999999993 Q88.96132800000001 -23.101491999999993 85.656996 -24.62583999999999 Q82.352664 -26.154921999999992 79.588008 -29.018991999999997 L72.685836 -35.52350799999999 L65.291328 -28.12899999999999 L70.219422 -23.196171999999997 Q72.09408599999999 -21.321507999999987 71.701164 -18.859827999999993 Q71.303508 -16.393413999999993 69.035922 -15.110499999999988 L51.581664 -4.9513359999999835 Q49.806414000000004 -3.7678359999999884 47.88441 -4.4116599999999835 Q45.957672 -5.050749999999994 44.873585999999996 -6.825999999999993 Q43.690085999999994 -8.700664000000003 44.234496 -10.575327999999999 Q44.774172 -12.449991999999995 46.549422 -13.534077999999994 L58.58325 -20.535663999999997 L52.367507999999994 -26.945499999999996 Z M18.443664 -26.453163999999994 Q16.370172 -26.453163999999994 14.940504 -27.930171999999992 Q13.510836000000001 -29.411913999999996 13.510836000000001 -31.48067199999999 Q13.510836000000001 -33.554164 14.940504 -35.03117199999999 Q16.370172 -36.512913999999995 18.443664 -36.512913999999995 H30.278664 Q32.347422 -36.512913999999995 33.829164 -35.03117199999999 Q35.306172000000004 -33.554164 35.306172000000004 -31.48067199999999 Q35.306172000000004 -29.411913999999996 33.829164 -27.930171999999992 Q32.347422 -26.453163999999994 30.278664 -26.453163999999994 H18.443664 Z M8.975664 -41.246914 Q6.902172 -41.246914 5.472504 -42.676581999999996 Q4.042836 -44.106249999999996 4.042836 -46.17500799999999 Q4.042836 -48.24849999999999 5.472504 -49.725508 Q6.902172 -51.207249999999995 8.975664 -51.207249999999995 H20.810664 Q22.879422 -51.207249999999995 24.361164 -49.725508 Q25.838172 -48.24849999999999 25.838172 -46.17500799999999 Q25.838172 -44.205664 24.361164 -42.723921999999995 Q22.879422 -41.246914 20.810664 -41.246914 H8.975664 Z M84.0285 -49.824921999999994 Q80.478 -49.824921999999994 78.011586 -52.34340999999999 Q75.545172 -54.857164 75.545172 -58.407664 Q75.545172 -62.05757799999999 78.011586 -64.519258 Q80.478 -66.985672 84.0285 -66.985672 Q87.678414 -66.985672 90.144828 -64.47191799999999 Q92.606508 -61.958164 92.606508 -58.407664 Q92.606508 -54.857164 90.144828 -52.34340999999999 Q87.678414 -49.824921999999994 84.0285 -49.824921999999994 Z M18.443664 -55.94125 Q16.370172 -55.94125 14.940504 -57.422991999999994 Q13.510836000000001 -58.89999999999999 13.510836000000001 -60.874078 Q13.510836000000001 -62.94283599999999 14.940504 -64.424578 Q16.370172 -65.901586 18.443664 -65.901586 H30.278664 Q32.347422 -65.901586 33.829164 -64.47191799999999 Q35.306172000000004 -63.042249999999996 35.306172000000004 -60.97349199999999 Q35.306172000000004 -58.89999999999999 33.829164 -57.422991999999994 Q32.347422 -55.94125 30.278664 -55.94125 H18.443664 Z"/></g><g id="Regular-S" transform="matrix(1 0 0 1 1405.73 696)"><path d="M52.56633599999999 -27.144327999999994  31.462163999999998 -6.035421999999983 Q29.980422 -4.558413999999999 28.058418 -4.558413999999999 Q26.136414 -4.558413999999999 24.654672 -6.035421999999983 Q23.177664 -7.517163999999994 23.177664 -9.439167999999995 Q23.177664 -11.361171999999996 24.654672 -12.842913999999993 L57.499164 -45.78208599999999 H50.099922 V-43.51449999999999 Q50.099922 -41.54042199999999 48.670254 -40.11075399999999 Q47.24058599999999 -38.681085999999986 45.266507999999995 -38.681085999999986 Q43.297164 -38.681085999999986 41.867495999999996 -40.11075399999999 Q40.437827999999996 -41.54042199999999 40.437827999999996 -43.51449999999999 V-50.6155 Q40.437827999999996 -52.58957799999999 41.867495999999996 -54.019245999999995 Q43.297164 -55.44891399999999 45.266507999999995 -55.44891399999999 H62.924327999999996 Q64.798992 -55.44891399999999 66.569508 -54.757749999999994 Q68.349492 -54.066585999999994 69.8265 -52.58957799999999 L86.594328 -35.921164 Q88.071336 -34.43942199999999 89.600418 -33.554164 Q91.1295 -32.66417199999999 92.70592199999999 -32.271249999999995 Q94.779414 -31.67949999999999 96.157008 -30.297171999999996 Q97.53933599999999 -28.919577999999994 97.53933599999999 -26.945499999999996 Q97.53933599999999 -24.77732799999999 96.06232800000001 -23.494414 Q94.580586 -22.211499999999994 92.606508 -22.604421999999992 Q89.15542199999999 -23.295585999999993 85.903164 -24.77732799999999 Q82.64617199999999 -26.254335999999988 79.88625 -29.113671999999994 L72.884664 -35.72233599999999 L65.191914 -28.12899999999999 L70.41825 -22.902663999999994 Q72.1935 -21.127413999999995 71.800578 -18.859827999999993 Q71.402922 -16.587507999999985 69.334164 -15.40400799999999 L51.681078 -5.050749999999994 Q49.905828 -3.9666639999999944 48.078504 -4.558413999999999 Q46.255914000000004 -5.150164000000004 45.171828 -6.9254140000000035 Q44.083008 -8.700664000000003 44.580078 -10.523253999999994 Q45.072414 -12.350577999999999 46.847664 -13.434663999999998 L59.075585999999994 -20.535663999999997 L52.56633599999999 -27.144327999999994 Z M19.035414 -26.651991999999993 Q17.061336 -26.651991999999993 15.631668 -28.081659999999992 Q14.202 -29.511327999999992 14.202 -31.48067199999999 Q14.202 -33.45474999999999 15.631668 -34.88441799999999 Q17.061336 -36.31408599999999 19.035414 -36.31408599999999 H30.870414 Q32.844491999999995 -36.31408599999999 34.27416 -34.88441799999999 Q35.703828 -33.45474999999999 35.703828 -31.48067199999999 Q35.703828 -29.511327999999992 34.27416 -28.081659999999992 Q32.844491999999995 -26.651991999999993 30.870414 -26.651991999999993 H19.035414 Z M9.567414 -41.04808599999999 Q7.593336000000001 -41.04808599999999 6.163668 -42.477754 Q4.734 -43.907422 4.734 -45.881499999999996 Q4.734 -47.855577999999994 6.163668 -49.285245999999994 Q7.593336000000001 -50.71491399999999 9.567414 -50.71491399999999 H21.402414 Q23.376492 -50.71491399999999 24.806160000000002 -49.285245999999994 Q26.235827999999998 -47.855577999999994 26.235827999999998 -45.881499999999996 Q26.235827999999998 -43.907422 24.806160000000002 -42.477754 Q23.376492 -41.04808599999999 21.402414 -41.04808599999999 H9.567414 Z M84.22732800000001 -50.02374999999999 Q80.676828 -50.02374999999999 78.25775399999999 -52.43808999999999 Q75.84341400000001 -54.857164 75.84341400000001 -58.407664 Q75.84341400000001 -61.958164 78.25775399999999 -64.37250399999999 Q80.676828 -66.79157799999999 84.22732800000001 -66.79157799999999 Q87.77782800000001 -66.79157799999999 90.192168 -64.37250399999999 Q92.606508 -61.958164 92.606508 -58.407664 Q92.606508 -54.857164 90.192168 -52.43808999999999 Q87.77782800000001 -50.02374999999999 84.22732800000001 -50.02374999999999 Z M19.035414 -55.44891399999999 Q17.061336 -55.44891399999999 15.631668 -56.878581999999994 Q14.202 -58.308249999999994 14.202 -60.28232799999999 Q14.202 -62.251672 15.631668 -63.68133999999999 Q17.061336 -65.111008 19.035414 -65.111008 H30.870414 Q32.844491999999995 -65.111008 34.27416 -63.68133999999999 Q35.703828 -62.251672 35.703828 -60.28232799999999 Q35.703828 -58.308249999999994 34.27416 -56.878581999999994 Q32.844491999999995 -55.44891399999999 30.870414 -55.44891399999999 H19.035414 Z"/></g><g id="Light-S" transform="matrix(1 0 0 1 1109.75 696)"><path d="M50.596992 -28.521921999999996  28.896336 -6.825999999999993 Q27.613422 -5.543085999999988 26.084339999999997 -5.543085999999988 Q24.559991999999998 -5.543085999999988 23.376492 -6.726585999999983 Q22.192992 -7.910085999999993 22.192992 -9.439167999999995 Q22.192992 -10.968249999999998 23.376492 -12.151749999999993 L57.892086 -46.771491999999995 H47.141172 V-43.51449999999999 Q47.141172 -41.93807799999999 46.009746 -40.80191799999999 Q44.873585999999996 -39.670491999999996 43.297164 -39.670491999999996 Q41.716007999999995 -39.670491999999996 40.584582000000005 -40.80191799999999 Q39.448422 -41.93807799999999 39.448422 -43.51449999999999 V-49.924336 Q39.448422 -51.79899999999999 40.731336 -53.12925399999999 Q42.01425 -54.459508 43.88891400000001 -54.459508 H61.641414000000005 Q63.416664000000004 -54.459508 65.04516 -53.82041799999999 Q66.668922 -53.18132799999999 68.05125 -51.79899999999999 L84.32200800000001 -35.622921999999996 Q86.00257800000001 -33.847671999999996 87.678414 -32.86299999999999 Q89.35425 -31.87832799999999 91.1295 -31.580085999999987 Q92.805336 -31.087749999999993 93.889422 -30.003664 Q94.97350800000001 -28.919577999999994 94.97350800000001 -27.338421999999994 Q94.97350800000001 -25.563171999999994 93.842082 -24.57849999999999 Q92.70592199999999 -23.593827999999995 91.1295 -23.88733599999999 Q87.87250800000001 -24.57849999999999 84.66759 -26.05550799999999 Q81.462672 -27.537249999999993 78.802164 -30.396585999999992 L71.303508 -37.49758599999999 L61.835508 -28.12899999999999 L67.165992 -22.70383599999999 Q68.84182799999999 -21.02799999999999 68.496246 -18.95450799999999 Q68.150664 -16.885749999999987 66.176586 -15.801664000000002 L49.214664000000006 -5.841328000000004 Q47.732922 -4.9513359999999835 46.303254 -5.443671999999992 Q44.873585999999996 -5.936008000000001 43.988327999999996 -7.417749999999998 Q43.098335999999996 -8.899491999999995 43.495992 -10.277085999999983 Q43.88891400000001 -11.659413999999998 45.365922 -12.644085999999987 L58.682664 -20.33683599999999 L50.596992 -28.521921999999996 Z M18.046008 -27.636663999999996 Q16.469586 -27.636663999999996 15.33816 -28.768089999999994 Q14.202 -29.90424999999999 14.202 -31.48067199999999 Q14.202 -33.06182799999999 15.33816 -34.193253999999996 Q16.469586 -35.329414 18.046008 -35.329414 H29.881008 Q31.462163999999998 -35.329414 32.59359 -34.193253999999996 Q33.72975 -33.06182799999999 33.72975 -31.48067199999999 Q33.72975 -29.90424999999999 32.59359 -28.768089999999994 Q31.462163999999998 -27.636663999999996 29.881008 -27.636663999999996 H18.046008 Z M8.578008 -42.03749199999999 Q7.0015860000000005 -42.03749199999999 5.87016 -43.16891799999999 Q4.734 -44.305077999999995 4.734 -45.881499999999996 Q4.734 -47.457921999999996 5.87016 -48.59408199999999 Q7.0015860000000005 -49.725508 8.578008 -49.725508 H20.413008 Q21.994163999999998 -49.725508 23.12559 -48.59408199999999 Q24.26175 -47.457921999999996 24.26175 -45.881499999999996 Q24.26175 -44.305077999999995 23.12559 -43.16891799999999 Q21.994163999999998 -42.03749199999999 20.413008 -42.03749199999999 H8.578008 Z M82.25325 -51.008421999999996 Q79.095672 -51.008421999999996 76.97484 -53.18132799999999 Q74.854008 -55.34949999999999 74.854008 -58.50707799999999 Q74.854008 -61.659921999999995 76.97484 -63.780753999999995 Q79.095672 -65.901586 82.25325 -65.901586 Q85.41082800000001 -65.901586 87.53165999999999 -63.733413999999996 Q89.652492 -61.560508 89.652492 -58.407664 Q89.652492 -55.250085999999996 87.53165999999999 -53.12925399999999 Q85.41082800000001 -51.008421999999996 82.25325 -51.008421999999996 Z M18.046008 -56.43358599999999 Q16.469586 -56.43358599999999 15.33816 -57.569745999999995 Q14.202 -58.70117199999999 14.202 -60.28232799999999 Q14.202 -61.85874999999999 15.33816 -62.99490999999999 Q16.469586 -64.126336 18.046008 -64.126336 H29.881008 Q31.462163999999998 -64.126336 32.59359 -62.99490999999999 Q33.72975 -61.85874999999999 33.72975 -60.28232799999999 Q33.72975 -58.70117199999999 32.59359 -57.569745999999995 Q31.462163999999998 -56.43358599999999 29.881008 -56.43358599999999 H18.046008 Z"/></g><g id="Thin-S" transform="matrix(1 0 0 1 814.015 696)"><path d="M48.5235 -29.90424999999999  26.235827999999998 -7.517163999999994 Q25.246422 -6.532491999999991 24.162336 -6.532491999999991 Q23.07825 -6.532491999999991 22.192992 -7.517163999999994 Q21.203586 -8.402421999999987 21.203586 -9.486507999999986 Q21.203586 -10.575327999999999 22.192992 -11.559999999999988 L58.285008 -47.75616399999999 H44.182422 V-43.51449999999999 Q44.182422 -42.330999999999996 43.344504 -41.493081999999994 Q42.506586 -40.655164 41.323085999999996 -40.655164 Q40.139585999999994 -40.655164 39.301668 -41.493081999999994 Q38.46375 -42.330999999999996 38.46375 -43.51449999999999 V-49.33258599999999 Q38.46375 -51.10783599999999 39.64725 -52.291335999999994 Q40.83075 -53.474835999999996 42.506586 -53.474835999999996 H60.3585 Q61.934922 -53.474835999999996 63.416664000000004 -52.88308599999999 Q64.893672 -52.291335999999994 66.176586 -51.008421999999996 L82.05442199999999 -35.22999999999999 Q83.929086 -33.25592199999999 85.75640999999999 -32.17183599999999 Q87.579 -31.087749999999993 89.55307800000001 -30.888921999999994 Q90.83599199999999 -30.495999999999995 91.621836 -29.75749599999999 Q92.412414 -29.018991999999997 92.412414 -27.835491999999995 Q92.412414 -26.453163999999994 91.621836 -25.714659999999995 Q90.83599199999999 -24.971421999999997 89.652492 -25.269664 Q86.49491400000001 -25.761999999999993 83.43675 -27.338421999999994 Q80.378586 -28.919577999999994 77.718078 -31.67949999999999 L69.727086 -39.173421999999995 L58.483836 -28.12899999999999 L64.008414 -22.50500799999999 Q65.485422 -20.92858599999999 65.13983999999999 -19.10599599999999 Q64.798992 -17.278672 63.019008 -16.194585999999987 L46.74825 -6.726585999999983 Q45.66416400000001 -6.035421999999983 44.627418 -6.433077999999995 Q43.590672 -6.825999999999993 42.899508 -7.910085999999993 Q42.213077999999996 -8.994171999999992 42.506586 -10.030917999999986 Q42.804828 -11.067663999999994 43.88891400000001 -11.758827999999994 L58.285008 -20.043327999999995 L48.5235 -29.90424999999999 Z M17.061336 -28.621335999999992 Q15.877836 -28.621335999999992 15.039918 -29.459253999999994 Q14.202 -30.297171999999996 14.202 -31.48067199999999 Q14.202 -32.66417199999999 15.039918 -33.502089999999995 Q15.877836 -34.34000799999999 17.061336 -34.34000799999999 H28.896336 Q30.079836 -34.34000799999999 30.917754 -33.502089999999995 Q31.755672 -32.66417199999999 31.755672 -31.48067199999999 Q31.755672 -30.297171999999996 30.917754 -29.459253999999994 Q30.079836 -28.621335999999992 28.896336 -28.621335999999992 H17.061336 Z M7.593336000000001 -43.022164 Q6.409836 -43.022164 5.571918 -43.860082 Q4.734 -44.69799999999999 4.734 -45.881499999999996 Q4.734 -47.06499999999999 5.571918 -47.90291799999999 Q6.409836 -48.740835999999994 7.593336000000001 -48.740835999999994 H19.428336 Q20.611836 -48.740835999999994 21.449754 -47.90291799999999 Q22.287672 -47.06499999999999 22.287672 -45.881499999999996 Q22.287672 -44.69799999999999 21.449754 -43.860082 Q20.611836 -43.022164 19.428336 -43.022164 H7.593336000000001 Z M80.27917199999999 -51.99782799999999 Q77.51925 -51.99782799999999 75.69666 -53.867757999999995 Q73.86933599999999 -55.74242199999999 73.86933599999999 -58.50707799999999 Q73.86933599999999 -61.266999999999996 75.69666 -63.14166399999999 Q77.51925 -65.01632799999999 80.27917199999999 -65.01632799999999 Q83.043828 -65.01632799999999 84.866418 -63.08958999999999 Q86.689008 -61.16758599999999 86.689008 -58.407664 Q86.689008 -55.643007999999995 84.866418 -53.82041799999999 Q83.043828 -51.99782799999999 80.27917199999999 -51.99782799999999 Z M17.061336 -57.422991999999994 Q15.877836 -57.422991999999994 15.039918 -58.260909999999996 Q14.202 -59.098828 14.202 -60.28232799999999 Q14.202 -61.46582799999999 15.039918 -62.30374599999999 Q15.877836 -63.14166399999999 17.061336 -63.14166399999999 H28.896336 Q30.079836 -63.14166399999999 30.917754 -62.30374599999999 Q31.755672 -61.46582799999999 31.755672 -60.28232799999999 Q31.755672 -59.098828 30.917754 -58.260909999999996 Q30.079836 -57.422991999999994 28.896336 -57.422991999999994 H17.061336 Z"/></g><g id="Ultralight-S" transform="matrix(1 0 0 1 517.792 696)"><path d="M47.34 -30.694827999999994  24.654672 -7.910085999999993 Q23.868828 -7.119507999999996 23.030910000000002 -7.119507999999996 Q22.192992 -7.119507999999996 21.402414 -7.910085999999993 Q20.611836 -8.700664000000003 20.611836 -9.538581999999991 Q20.611836 -10.376499999999993 21.402414 -11.16707799999999 L58.483836 -48.347913999999996 H42.407172 V-43.51449999999999 Q42.407172 -42.62450799999999 41.716007999999995 -41.93807799999999 Q41.029578 -41.246914 40.139585999999994 -41.246914 Q39.254328 -41.246914 38.563164 -41.93807799999999 Q37.872 -42.62450799999999 37.872 -43.51449999999999 V-48.93966399999999 Q37.872 -50.6155 39.008160000000004 -51.751659999999994 Q40.139585999999994 -52.88308599999999 41.716007999999995 -52.88308599999999 H59.567922 Q61.04966400000001 -52.88308599999999 62.479332 -52.291335999999994 Q63.909 -51.699586 65.0925 -50.516085999999994 L80.676828 -35.03117199999999 Q82.745586 -32.962413999999995 84.66759 -31.826254 Q86.594328 -30.694827999999994 88.563672 -30.495999999999995 Q89.652492 -30.10307799999999 90.291582 -29.55866799999999 Q90.93067199999999 -29.018991999999997 90.93067199999999 -28.12899999999999 Q90.93067199999999 -26.945499999999996 90.291582 -26.35374999999999 Q89.652492 -25.761999999999993 88.7625 -26.05550799999999 Q85.704336 -26.55257799999999 82.69824600000001 -28.12899999999999 Q79.687422 -29.70542199999999 77.126328 -32.470077999999994 L68.742414 -40.25750799999999 L56.415078 -28.12899999999999 L62.034335999999996 -22.410327999999993 Q63.516078 -20.92858599999999 63.170496 -19.205409999999993 Q62.82491400000001 -17.477499999999992 61.149077999999996 -16.49282799999999 L45.266507999999995 -7.218921999999992 Q44.38125 -6.627171999999987 43.590672 -6.972753999999995 Q42.804828 -7.318335999999988 42.213077999999996 -8.208327999999995 Q41.621328 -9.093585999999988 41.867495999999996 -9.884163999999998 Q42.11366400000001 -10.670007999999996 42.998922 -11.266492 L57.9915 -19.943914 L47.34 -30.694827999999994 Z M16.469586 -29.21308599999999 Q15.584328 -29.21308599999999 14.893163999999999 -29.90424999999999 Q14.202 -30.595413999999998 14.202 -31.48067199999999 Q14.202 -32.370664 14.893163999999999 -33.06182799999999 Q15.584328 -33.752992 16.469586 -33.752992 H28.304586 Q29.194578 -33.752992 29.881008 -33.06182799999999 Q30.572172000000002 -32.370664 30.572172000000002 -31.48067199999999 Q30.572172000000002 -30.595413999999998 29.881008 -29.90424999999999 Q29.194578 -29.21308599999999 28.304586 -29.21308599999999 H16.469586 Z M7.0015860000000005 -43.613913999999994 Q6.116328 -43.613913999999994 5.425164 -44.305077999999995 Q4.734 -44.991507999999996 4.734 -45.881499999999996 Q4.734 -46.771491999999995 5.425164 -47.457921999999996 Q6.116328 -48.149086 7.0015860000000005 -48.149086 H18.836586 Q19.726578 -48.149086 20.413008 -47.457921999999996 Q21.104172000000002 -46.771491999999995 21.104172000000002 -45.881499999999996 Q21.104172000000002 -44.991507999999996 20.413008 -44.305077999999995 Q19.726578 -43.613913999999994 18.836586 -43.613913999999994 H7.0015860000000005 Z M79.095672 -52.58957799999999 Q76.53457800000001 -52.58957799999999 74.906082 -54.31275399999999 Q73.277586 -56.04066399999999 73.277586 -58.50707799999999 Q73.277586 -61.06817199999999 74.906082 -62.744007999999994 Q76.53457800000001 -64.424578 79.095672 -64.424578 Q81.6615 -64.424578 83.289996 -62.69666799999999 Q84.918492 -60.97349199999999 84.918492 -58.50707799999999 Q84.918492 -55.94125 83.289996 -54.26541399999999 Q81.6615 -52.58957799999999 79.095672 -52.58957799999999 Z M16.469586 -58.010008 Q15.584328 -58.010008 14.893163999999999 -58.70117199999999 Q14.202 -59.39233599999999 14.202 -60.28232799999999 Q14.202 -61.16758599999999 14.893163999999999 -61.85874999999999 Q15.584328 -62.549913999999994 16.469586 -62.549913999999994 H28.304586 Q29.194578 -62.549913999999994 29.881008 -61.85874999999999 Q30.572172000000002 -61.16758599999999 30.572172000000002 -60.28232799999999 Q30.572172000000002 -59.39233599999999 29.881008 -58.70117199999999 Q29.194578 -58.010008 28.304586 -58.010008 H16.469586 Z"/></g></g></svg>