<svg xmlns="http://www.w3.org/2000/svg" height="20" viewBox="0 -960 960 960" width="20"><path d="M324-677.33q-17.76 0-30.72-12.89-12.95-12.9-12.95-30.57t12.95-30.78q12.96-13.11 30.72-13.11h112.33V-841q0-17.76 12.89-30.72 12.9-12.96 30.57-12.96t30.78 12.96q13.1 12.96 13.1 30.72v76.32H636q17.76 0 30.72 12.9 12.95 12.9 12.95 30.57t-12.95 30.77q-12.96 13.11-30.72 13.11H324ZM368.8-70.8q-38.94 0-65.97-27.03T275.8-163.8v-304.02q0-64.79 45.86-110.65t110.65-45.86h95.38q64.79 0 110.65 45.86t45.86 110.65v304.02q0 38.94-27.03 65.97T591.2-70.8H368.8Zm-5.65-87.35h233.7v-309.67q0-28.81-20.17-48.99-20.17-20.17-48.99-20.17h-95.38q-25.42 0-44.46 15.93-19.05 15.94-24.7 40.23v15.89H444q17.76 0 30.72 12.89 12.95 12.9 12.95 30.57t-12.95 30.78q-12.96 13.1-30.72 13.1h-80.85v60.05H444q17.76 0 30.72 12.9 12.95 12.89 12.95 30.56 0 17.67-12.95 30.78-12.96 13.11-30.72 13.11h-80.85v72.04Zm0 0V-536.98v378.83Z"/></svg>