<svg xmlns="http://www.w3.org/2000/svg" version="1.1" width="3300" height="2000"><g id="Notes"><style>
    text {
      font-family: monospace;
      text-anchor: middle;
    }
    text.emphasis {
      font-weight:bold;
    }
    text.lanchor {
      text-anchor: start;
    }
  </style><rect height="2200" id="artboard" fill="white" width="3300" x="0" y="0"/><line id="" style="fill:none;stroke:black;stroke-width:0.5;" x1="263" x2="3036" y1="292" y2="292"/><text class="lanchor emphasis" transform="matrix(1 0 0 1 263 322)">Weight/Scale Variations</text><text transform="matrix(1 0 0 1 559.711 322)">Ultralight</text><text transform="matrix(1 0 0 1 856.422 322)">Thin</text><text transform="matrix(1 0 0 1 1153.13 322)">Light</text><text transform="matrix(1 0 0 1 1449.84 322)">Regular</text><text transform="matrix(1 0 0 1 1746.56 322)">Medium</text><text transform="matrix(1 0 0 1 2043.27 322)">Semibold</text><text transform="matrix(1 0 0 1 2339.98 322)">Bold</text><text transform="matrix(1 0 0 1 2636.69 322)">Heavy</text><text transform="matrix(1 0 0 1 2933.4 322)">Black</text><text id="template-version" style="text-anchor: end;" transform="matrix(1 0 0 1 3036 1933)">Template v.1.0</text><text class="lanchor" transform="matrix(1 0 0 1 263 726)">Small</text><text class="lanchor" transform="matrix(1 0 0 1 263 1156)">Medium</text><text class="lanchor" transform="matrix(1 0 0 1 263 1586)">Large</text></g><g id="Guides"><g id="H-reference" style="fill:#27AAE1;stroke:none;" transform="matrix(1 0 0 1 339 696)"><path d="M 54.9316 0 L 57.666 0 L 30.5664 -70.459 L 28.0762 -70.459 L 0.976562 0 L 3.66211 0 L 12.9395 -24.4629 L 45.7031 -24.4629 Z M 29.1992 -67.0898 L 29.4434 -67.0898 L 44.8242 -26.709 L 13.8184 -26.709 Z"/></g><line id="Baseline-S" style="fill:none;stroke:#27AAE1;opacity:1;stroke-width:0.577;" x1="263" x2="3036" y1="696" y2="696"/><line id="Capline-S" style="fill:none;stroke:#27AAE1;opacity:1;stroke-width:0.577;" x1="263" x2="3036" y1="625.541" y2="625.541"/><g id="H-reference" style="fill:#27AAE1;stroke:none;" transform="matrix(1 0 0 1 339 1126)"><path d="M 54.9316 0 L 57.666 0 L 30.5664 -70.459 L 28.0762 -70.459 L 0.976562 0 L 3.66211 0 L 12.9395 -24.4629 L 45.7031 -24.4629 Z M 29.1992 -67.0898 L 29.4434 -67.0898 L 44.8242 -26.709 L 13.8184 -26.709 Z"/></g><line id="Baseline-M" style="fill:none;stroke:#27AAE1;opacity:1;stroke-width:0.577;" x1="263" x2="3036" y1="1126" y2="1126"/><line id="Capline-M" style="fill:none;stroke:#27AAE1;opacity:1;stroke-width:0.577;" x1="263" x2="3036" y1="1055.54" y2="1055.54"/><g id="H-reference" style="fill:#27AAE1;stroke:none;" transform="matrix(1 0 0 1 339 1556)"><path d="M 54.9316 0 L 57.666 0 L 30.5664 -70.459 L 28.0762 -70.459 L 0.976562 0 L 3.66211 0 L 12.9395 -24.4629 L 45.7031 -24.4629 Z M 29.1992 -67.0898 L 29.4434 -67.0898 L 44.8242 -26.709 L 13.8184 -26.709 Z"/></g><line id="Baseline-L" style="fill:none;stroke:#27AAE1;opacity:1;stroke-width:0.577;" x1="263" x2="3036" y1="1556" y2="1556"/><line id="Capline-L" style="fill:none;stroke:#27AAE1;opacity:1;stroke-width:0.577;" x1="263" x2="3036" y1="1485.54" y2="1485.54"/><rect height="119.336" id="left-margin" style="fill:darkred;stroke:none;opacity:0.4;" width="12.4512" x="1394.06" y="1030.79"/><rect height="119.336" id="right-margin" style="fill:darkgreen;stroke:none;opacity:0.4;" width="12.4512" x="1502.5112" y="1030.79"/><rect x="1406.5112" y="1045" width="96" height="96" fill="none" stroke="blue" stroke-dasharray="5"/><rect x="1394.06" y="1030.79" width="120.9024" height="119.336" fill="none" stroke="blue"/></g><g id="Symbols"><g id="Bold-L" transform="matrix(1 0 0 1 2266 1556)"><path d="M58.21125000000001 26.20625000000001 Q55.14750000000001 26.20625000000001 52.40625 25.158125000000013 Q49.665 24.110000000000014 47.56875 22.013750000000016 L20.478749999999998 -5.0762499999999875 Q18.22125 -7.333749999999995 17.173125000000002 -9.994374999999991 Q16.125 -12.654999999999987 16.125 -15.718749999999986 V-54.741249999999994 Q16.125 -57.64374999999999 17.173125000000002 -60.385 Q18.22125 -63.12624999999999 20.478749999999998 -65.2225 L25.31625 -70.06 L6.772500000000001 -88.4425 Q5.16 -89.73249999999999 5.16 -91.99 Q5.16 -94.2475 6.93375 -96.02125 Q8.385 -97.4725 10.723125000000001 -97.4725 Q13.06125 -97.4725 14.512500000000001 -96.02125 L138.3525 27.980000000000018 Q139.965 29.431250000000006 139.884375 31.68875 Q139.80375 33.94625000000002 138.3525 35.39750000000001 Q136.57875 37.171250000000015 134.32125 37.171250000000015 Q132.06375 37.171250000000015 130.45125000000002 35.39750000000001 L112.5525 17.17625000000001 L107.55375000000001 22.17500000000001 Q105.45750000000001 24.27125000000001 102.71625 25.23875000000001 Q99.97500000000001 26.20625000000001 97.0725 26.20625000000001 H58.21125000000001 Z M79.0125 -13.299999999999997 Q78.045 -14.267499999999998 77.23875 -14.590000000000003 Q76.4325 -14.912499999999994 75.465 -14.912499999999994 Q73.04625 -14.267499999999998 71.67562500000001 -12.332499999999982 Q70.305 -10.397499999999994 70.305 -8.14 Q70.305 -4.914999999999992 72.40125 -2.899374999999992 Q74.4975 -0.883749999999992 77.56125 -0.883749999999992 Q80.3025 -0.883749999999992 81.995625 -2.1737499999999983 Q83.68875 -3.4637499999999903 84.33375 -5.882499999999993 Q84.33375 -6.688749999999985 83.93062499999999 -7.575624999999988 Q83.5275 -8.462500000000006 83.04375 -9.268749999999997 L79.0125 -13.299999999999997 Z M128.19375 1.3737500000000153  134.64375 -5.0762499999999875 Q136.90125 -7.333749999999995 138.03 -9.994374999999991 Q139.15875 -12.654999999999987 139.15875 -15.718749999999986 V-54.741249999999994 Q139.15875 -57.64374999999999 138.03 -60.385 Q136.90125 -63.12624999999999 134.64375 -65.2225 L107.55375000000001 -92.3125 Q105.45750000000001 -94.57 102.71625 -95.69874999999999 Q99.97500000000001 -96.82749999999999 97.0725 -96.82749999999999 H58.21125000000001 Q55.14750000000001 -96.82749999999999 52.40625 -95.69874999999999 Q49.665 -94.57 47.56875 -92.3125 L40.957499999999996 -85.8625 L72.40125 -54.57999999999999 V-66.19 Q72.40125 -68.28625 73.933125 -69.57624999999999 Q75.465 -70.86625 77.56125 -70.86625 Q79.98 -70.86625 81.5925 -69.334375 Q83.205 -67.8025 83.205 -65.2225 V-43.77624999999999 L128.19375 1.3737500000000153 Z"/></g><g id="Semibold-L" transform="matrix(1 0 0 1 1970.27 1556)"><path d="M57.7275 25.88375000000002 Q54.986250000000005 25.88375000000002 52.486875 24.91624999999999 Q49.987500000000004 23.948750000000018 48.0525 22.013750000000016 L20.478749999999998 -5.559999999999988 Q18.3825 -7.65625 17.415000000000003 -10.074999999999989 Q16.447499999999998 -12.493749999999991 16.447499999999998 -15.235 V-55.224999999999994 Q16.447499999999998 -57.80499999999999 17.415000000000003 -60.304374999999986 Q18.3825 -62.803749999999994 20.478749999999998 -64.73875 L25.63875 -69.89874999999999 L6.45 -88.92625 Q4.67625 -90.3775 4.67625 -92.63499999999999 Q4.67625 -94.8925 6.611249999999999 -96.82749999999999 Q8.0625 -98.27875 10.481250000000001 -98.27875 Q12.9 -98.27875 14.512500000000001 -96.82749999999999 L139.15875 27.980000000000018 Q140.77125 29.5925 140.690625 31.93062500000002 Q140.61 34.26875000000001 139.15875 35.72 Q137.22375 37.655 134.96625 37.655 Q132.70875 37.655 130.935 35.72 L112.39125000000001 16.85374999999999 L107.07000000000001 22.17500000000001 Q105.135 24.110000000000014 102.635625 24.99687499999999 Q100.13625 25.88375000000002 97.55625 25.88375000000002 H57.7275 Z M79.49625 -13.138749999999987 Q78.52875 -13.944999999999993 77.72250000000001 -14.348124999999982 Q76.91625 -14.751249999999985 75.94875 -14.751249999999985 Q73.53 -14.106249999999989 72.07875000000001 -12.251874999999998 Q70.6275 -10.397499999999994 70.6275 -8.14 Q70.6275 -5.0762499999999875 72.643125 -3.141249999999985 Q74.65875 -1.2062499999999972 77.56125 -1.2062499999999972 Q80.14125000000001 -1.2062499999999972 81.91499999999999 -2.576874999999987 Q83.68875 -3.9474999999999767 84.17250000000001 -6.3662499999999795 Q84.17250000000001 -7.172499999999985 83.76937500000001 -8.059375000000003 Q83.36625000000001 -8.946249999999992 82.8825 -9.752499999999998 L79.49625 -13.138749999999987 Z M127.71000000000001 1.3737500000000153  134.64375 -5.559999999999988 Q136.74 -7.65625 137.7075 -10.074999999999989 Q138.675 -12.493749999999991 138.675 -15.235 V-55.224999999999994 Q138.675 -57.80499999999999 137.7075 -60.304374999999986 Q136.74 -62.803749999999994 134.64375 -64.73875 L107.07000000000001 -92.3125 Q105.135 -94.40875 102.635625 -95.37625 Q100.13625 -96.34375 97.55625 -96.34375 H57.7275 Q54.986250000000005 -96.34375 52.486875 -95.37625 Q49.987500000000004 -94.40875 48.0525 -92.3125 L40.957499999999996 -85.37875 L72.24 -54.257499999999986 V-65.86749999999999 Q72.40125 -67.8025 73.933125 -69.0925 Q75.465 -70.3825 77.56125 -70.3825 Q79.98 -70.3825 81.673125 -68.77 Q83.36625000000001 -67.1575 83.36625000000001 -64.57749999999999 V-43.29249999999999 L127.71000000000001 1.3737500000000153 Z"/></g><g id="Medium-L" transform="matrix(1 0 0 1 1674.31 1556)"><path d="M57.405 25.56125 Q54.825 25.56125 52.5675 24.674375000000026 Q50.31 23.787499999999994 48.375 21.85250000000002 L20.478749999999998 -5.882499999999993 Q18.54375 -7.8174999999999955 17.656875 -10.074999999999989 Q16.77 -12.332499999999982 16.77 -14.912499999999994 V-55.5475 Q16.77 -57.966249999999995 17.656875 -60.223749999999995 Q18.54375 -62.48124999999999 20.478749999999998 -64.41624999999999 L25.961250000000003 -69.73749999999998 L6.1274999999999995 -89.24875 Q4.353750000000001 -90.86125 4.353750000000001 -93.19937499999999 Q4.353750000000001 -95.5375 6.28875 -97.31125 Q7.901250000000001 -98.92375 10.32 -98.92375 Q12.738750000000001 -98.92375 14.35125 -97.31125 L139.64249999999998 28.141250000000014 Q141.41625000000002 29.753749999999997 141.33562500000002 32.091875000000016 Q141.255 34.43000000000001 139.64249999999998 36.04250000000002 Q137.86875 37.97750000000002 135.530625 37.97750000000002 Q133.1925 37.97750000000002 131.41875000000002 36.04250000000002 L112.22999999999999 16.692500000000024 L106.7475 22.17500000000001 Q104.97375 23.948750000000018 102.635625 24.755000000000024 Q100.29750000000001 25.56125 97.87875000000001 25.56125 H57.405 Z M79.81875000000001 -12.977499999999992 Q78.85125 -13.783749999999998 78.045 -14.186875 Q77.23875 -14.590000000000003 76.27125 -14.590000000000003 Q74.01375 -13.944999999999993 72.481875 -12.251874999999998 Q70.95 -10.558750000000003 70.95 -8.14 Q70.95 -5.237499999999997 72.885 -3.3831249999999926 Q74.82 -1.528749999999988 77.56125 -1.528749999999988 Q79.98 -1.528749999999988 81.75375000000001 -2.899374999999992 Q83.5275 -4.269999999999982 84.01125 -6.8500000000000085 Q84.01125 -7.65625 83.608125 -8.462500000000006 Q83.205 -9.268749999999997 82.72125 -10.074999999999989 L79.81875000000001 -12.977499999999992 Z M127.3875 1.2124999999999915  134.64375 -5.882499999999993 Q136.57875 -7.8174999999999955 137.46562500000002 -10.074999999999989 Q138.3525 -12.332499999999982 138.3525 -14.912499999999994 V-55.5475 Q138.3525 -57.966249999999995 137.46562500000002 -60.223749999999995 Q136.57875 -62.48124999999999 134.64375 -64.41624999999999 L106.7475 -92.3125 Q104.8125 -94.2475 102.555 -95.13437499999999 Q100.29750000000001 -96.02125 97.87875000000001 -96.02125 H57.405 Q54.825 -96.02125 52.5675 -95.13437499999999 Q50.31 -94.2475 48.375 -92.3125 L41.11875 -85.05624999999999 L72.07875000000001 -54.09625 V-65.70624999999998 Q72.40125 -67.47999999999999 74.01375 -68.77 Q75.62625 -70.06 77.56125 -70.06 Q79.98 -70.06 81.75375000000001 -68.28625 Q83.5275 -66.51249999999999 83.5275 -64.09375 V-42.80875 L127.3875 1.2124999999999915 Z"/></g><g id="Regular-L" transform="matrix(1 0 0 1 1378.56 1556)"><path d="M57.24375 25.400000000000006 Q54.825 25.400000000000006 52.648125 24.513125000000002 Q50.471250000000005 23.62625 48.6975 21.85250000000002 L20.478749999999998 -6.204999999999998 Q18.705 -7.978749999999977 17.818125000000002 -10.155625 Q16.931250000000002 -12.332499999999982 16.931250000000002 -14.751249999999985 V-55.70875 Q16.931250000000002 -57.966249999999995 17.818125000000002 -60.143125 Q18.705 -62.31999999999999 20.478749999999998 -64.09375 L26.1225 -69.57624999999999 L5.9662500000000005 -89.57124999999999 Q4.1925 -91.18374999999999 4.1925 -93.521875 Q4.1925 -95.86 6.1274999999999995 -97.795 Q7.74 -99.4075 10.15875 -99.4075 Q12.5775 -99.4075 14.35125 -97.795 L140.12625 28.141250000000014 Q141.9 29.91500000000002 141.819375 32.25312500000001 Q141.73875 34.59125 140.12625 36.203750000000014 Q138.19125 38.138750000000016 135.853125 38.138750000000016 Q133.515 38.138750000000016 131.74125 36.203750000000014 L112.06875000000001 16.53125 L106.425 22.17500000000001 Q104.8125 23.787499999999994 102.555 24.59375 Q100.29750000000001 25.400000000000006 98.03999999999999 25.400000000000006 H57.24375 Z M80.14125000000001 -12.816249999999997 Q79.17375 -13.622499999999988 78.3675 -14.025624999999991 Q77.56125 -14.428749999999994 76.59375 -14.428749999999994 Q74.33625 -13.944999999999993 72.72375000000001 -12.251874999999998 Q71.11125 -10.558750000000003 71.11125 -8.14 Q71.11125 -5.398749999999993 72.965625 -3.544374999999988 Q74.82 -1.6899999999999977 77.56125 -1.6899999999999977 Q79.98 -1.6899999999999977 81.75375000000001 -3.141249999999985 Q83.5275 -4.592499999999987 84.01125 -7.172499999999985 Q84.01125 -7.978749999999977 83.608125 -8.784999999999982 Q83.205 -9.591249999999988 82.72125 -10.397499999999994 L80.14125000000001 -12.816249999999997 Z M127.065 1.2124999999999915  134.64375 -6.204999999999998 Q136.4175 -7.978749999999977 137.30437500000002 -10.155625 Q138.19125 -12.332499999999982 138.19125 -14.751249999999985 V-55.70875 Q138.19125 -57.966249999999995 137.30437500000002 -60.143125 Q136.4175 -62.31999999999999 134.64375 -64.09375 L106.425 -92.3125 Q104.65125000000002 -94.08624999999999 102.474375 -94.973125 Q100.29750000000001 -95.86 98.03999999999999 -95.86 H57.24375 Q54.825 -95.86 52.648125 -94.973125 Q50.471250000000005 -94.08624999999999 48.6975 -92.3125 L41.11875 -84.73374999999999 L72.07875000000001 -53.934999999999995 V-65.54499999999999 Q72.40125 -67.31875 74.01375 -68.52812499999999 Q75.62625 -69.73749999999998 77.56125 -69.73749999999998 Q79.98 -69.73749999999998 81.75375000000001 -67.96375 Q83.5275 -66.19 83.5275 -63.771249999999995 V-42.48625 L127.065 1.2124999999999915 Z"/></g><g id="Light-L" transform="matrix(1 0 0 1 1082.77 1556)"><path d="M58.53375 22.17500000000001 Q56.114999999999995 22.17500000000001 54.018750000000004 21.288125000000008 Q51.92250000000001 20.401250000000005 50.14875000000001 18.78875000000002 L23.70375 -7.65625 Q21.93 -9.268749999999997 21.043125000000003 -11.445624999999993 Q20.15625 -13.622499999999988 20.15625 -15.879999999999995 V-54.41874999999999 Q20.15625 -56.67624999999999 21.043125000000003 -58.772499999999994 Q21.93 -60.86874999999999 23.70375 -62.64249999999999 L30.315 -69.25375 L9.83625 -89.57124999999999 Q8.385 -90.86125 8.385 -92.71562499999999 Q8.385 -94.57 9.9975 -96.1825 Q11.2875 -97.4725 13.222499999999998 -97.4725 Q15.1575 -97.4725 16.60875 -96.1825 L138.51375000000002 25.88375000000002 Q139.965 27.335000000000008 139.884375 29.189375000000013 Q139.80375 31.04374999999999 138.51375000000002 32.33375000000001 Q136.90125 33.94625000000002 135.046875 33.94625000000002 Q133.1925 33.94625000000002 131.74125 32.33375000000001 L111.74625 12.338750000000005 L104.97375 18.94999999999999 Q103.36125 20.5625 101.184375 21.368750000000006 Q99.00750000000001 22.17500000000001 96.91125000000001 22.17500000000001 H58.53375 Z M79.81875000000001 -12.654999999999987 Q78.85125 -13.461249999999993 78.12562500000001 -13.783749999999998 Q77.4 -14.106249999999989 76.59375 -14.106249999999989 Q74.65875 -13.622499999999988 73.449375 -12.251874999999998 Q72.24 -10.881249999999994 72.24 -8.946249999999992 Q72.24 -6.688749999999985 73.69125000000001 -5.0762499999999875 Q75.1425 -3.4637499999999903 77.56125 -3.4637499999999903 Q79.6575 -3.4637499999999903 81.10875 -4.673124999999985 Q82.56 -5.882499999999993 83.04375 -7.978749999999977 Q83.04375 -8.623749999999987 82.56 -9.429999999999993 Q82.07625 -10.236249999999998 81.5925 -10.881249999999994 L79.81875000000001 -12.654999999999987 Z M125.775 -1.8512499999999932  131.74125 -7.65625 Q133.35375000000002 -9.429999999999993 134.16 -11.445624999999993 Q134.96625 -13.461249999999993 134.96625 -15.879999999999995 V-54.41874999999999 Q134.96625 -56.67624999999999 134.079375 -58.772499999999994 Q133.1925 -60.86874999999999 131.57999999999998 -62.64249999999999 L104.97375 -89.24875 Q103.2 -90.86125 101.10375 -91.74812499999999 Q99.00750000000001 -92.63499999999999 96.75 -92.63499999999999 H58.53375 Q56.114999999999995 -92.63499999999999 54.018750000000004 -91.74812499999999 Q51.92250000000001 -90.86125 50.14875000000001 -89.24875 L44.34375 -83.2825 L73.2075 -54.41874999999999 V-65.06125 Q73.53 -66.35125 74.82 -67.238125 Q76.11000000000001 -68.125 77.56125 -68.125 Q79.49625 -68.125 80.9475 -66.67374999999998 Q82.39875 -65.2225 82.39875 -63.287499999999994 V-45.38874999999999 L125.775 -1.8512499999999932 Z"/></g><g id="Thin-L" transform="matrix(1 0 0 1 787.282 1556)"><path d="M59.6625 18.94999999999999 Q57.405 18.94999999999999 55.389375 18.14375000000001 Q53.37375 17.337500000000006 51.6 15.724999999999994 L26.767500000000002 -9.107499999999987 Q24.993750000000002 -10.719999999999985 24.1875 -12.735624999999985 Q23.38125 -14.751249999999985 23.38125 -17.169999999999987 V-53.29 Q23.38125 -55.38625 24.1875 -57.401875 Q24.993750000000002 -59.4175 26.767500000000002 -61.19125 L34.5075 -68.77 L13.70625 -89.41 Q12.5775 -90.3775 12.5775 -91.74812499999999 Q12.5775 -93.11874999999999 13.8675 -94.40875 Q14.834999999999999 -95.37625 16.28625 -95.37625 Q17.7375 -95.37625 18.86625 -94.40875 L136.74 23.62625 Q137.86875 24.755000000000024 137.788125 26.125625000000014 Q137.7075 27.496250000000003 136.74 28.463750000000005 Q135.45000000000002 29.753749999999997 134.079375 29.753749999999997 Q132.70875 29.753749999999997 131.57999999999998 28.463750000000005 L111.2625 8.146250000000023 L103.52250000000001 15.886250000000018 Q101.91000000000001 17.49875 99.81375 18.22437500000001 Q97.7175 18.94999999999999 95.62125 18.94999999999999 H59.6625 Z M79.49625 -12.493749999999991 Q78.52875 -13.299999999999997 77.88374999999999 -13.622499999999988 Q77.23875 -13.944999999999993 76.59375 -13.944999999999993 Q75.1425 -13.461249999999993 74.175 -12.413124999999994 Q73.2075 -11.364999999999995 73.2075 -9.752499999999998 Q73.2075 -7.8174999999999955 74.416875 -6.527500000000003 Q75.62625 -5.237499999999997 77.56125 -5.237499999999997 Q79.17375 -5.237499999999997 80.383125 -6.124375000000001 Q81.5925 -7.01124999999999 82.07625 -8.784999999999982 Q82.07625 -9.268749999999997 81.5925 -10.074999999999989 Q81.10875 -10.881249999999994 80.625 -11.52624999999999 L79.49625 -12.493749999999991 Z M124.48500000000001 -4.914999999999992  128.6775 -9.107499999999987 Q130.29 -10.881249999999994 131.015625 -12.816249999999997 Q131.74125 -14.751249999999985 131.74125 -16.847499999999997 V-53.29 Q131.74125 -55.38625 130.935 -57.401875 Q130.12875 -59.4175 128.51625 -61.19125 L103.52250000000001 -86.185 Q101.74875 -87.7975 99.733125 -88.60374999999999 Q97.7175 -89.41 95.62125 -89.41 H59.6625 Q57.405 -89.41 55.389375 -88.60374999999999 Q53.37375 -87.7975 51.6 -86.185 L47.4075 -81.83125 L74.4975 -55.06374999999999 V-64.73875 Q74.82 -65.38374999999999 75.70687500000001 -65.948125 Q76.59375 -66.51249999999999 77.56125 -66.51249999999999 Q79.0125 -66.51249999999999 80.060625 -65.38374999999999 Q81.10875 -64.255 81.10875 -62.964999999999996 V-48.29124999999999 L124.48500000000001 -4.914999999999992 Z"/></g><g id="Ultralight-L" transform="matrix(1 0 0 1 491.205 1556)"><path d="M60.46875 17.015000000000015 Q58.21125000000001 17.015000000000015 56.19562500000001 16.20875000000001 Q54.18000000000001 15.402500000000003 52.5675 13.79000000000002 L28.7025 -9.913749999999993 Q26.92875 -11.52624999999999 26.1225 -13.54187499999999 Q25.31625 -15.55749999999999 25.31625 -17.814999999999998 V-52.48375 Q25.31625 -54.57999999999999 26.1225 -56.59562499999999 Q26.92875 -58.61124999999999 28.7025 -60.385 L37.0875 -68.60874999999999 L15.963750000000001 -89.41 Q14.996250000000002 -90.21625 15.076875 -91.264375 Q15.1575 -92.3125 16.125 -93.44125 Q16.931250000000002 -94.2475 18.06 -94.2475 Q19.188750000000002 -94.2475 20.15625 -93.44125 L135.7725 22.336250000000007 Q136.74 23.303750000000008 136.659375 24.351875000000007 Q136.57875 25.400000000000006 135.7725 26.20625000000001 Q134.64375 27.335000000000008 133.59562499999998 27.335000000000008 Q132.5475 27.335000000000008 131.57999999999998 26.20625000000001 L111.10125000000001 5.566249999999997 L102.555 13.951250000000002 Q100.94250000000001 15.563749999999999 98.92687500000001 16.289375000000007 Q96.91125000000001 17.015000000000015 94.97625000000001 17.015000000000015 H60.46875 Z M79.33500000000001 -12.332499999999982 Q78.3675 -13.138749999999987 77.72250000000001 -13.461249999999993 Q77.0775 -13.783749999999998 76.59375 -13.783749999999998 Q75.30375000000001 -13.299999999999997 74.578125 -12.413124999999994 Q73.85249999999999 -11.52624999999999 73.85249999999999 -10.236249999999998 Q73.85249999999999 -8.623749999999987 74.82 -7.49499999999999 Q75.78750000000001 -6.3662499999999795 77.56125 -6.3662499999999795 Q79.0125 -6.3662499999999795 79.98 -7.0918749999999875 Q80.9475 -7.8174999999999955 81.43125 -9.268749999999997 Q81.43125 -9.752499999999998 80.9475 -10.478124999999991 Q80.46375 -11.20375 79.98 -11.848749999999995 L79.33500000000001 -12.332499999999982 Z M123.67875000000001 -6.688749999999985  126.90375 -10.074999999999989 Q128.355 -11.687499999999986 129.080625 -13.54187499999999 Q129.80625 -15.396249999999995 129.80625 -17.492499999999993 V-52.48375 Q129.80625 -54.57999999999999 129.0 -56.59562499999999 Q128.19375 -58.61124999999999 126.58125 -60.385 L102.71625 -84.25 Q100.94250000000001 -85.8625 98.92687500000001 -86.66874999999999 Q96.91125000000001 -87.475 94.815 -87.475 H60.46875 Q58.21125000000001 -87.475 56.19562500000001 -86.66874999999999 Q54.18000000000001 -85.8625 52.5675 -84.25 L49.3425 -81.02499999999999 L75.1425 -55.38625 V-64.41624999999999 Q75.465 -64.89999999999999 76.190625 -65.2225 Q76.91625 -65.54499999999999 77.56125 -65.54499999999999 Q78.69 -65.54499999999999 79.576875 -64.65812499999998 Q80.46375 -63.771249999999995 80.46375 -62.64249999999999 V-50.065 L123.67875000000001 -6.688749999999985 Z"/></g><g id="Bold-M" transform="matrix(1 0 0 1 2281.8 1126)"><path d="M46.0 15.52000000000001 Q42.625 15.52000000000001 39.44 14.27000000000001 Q36.25 13.02000000000001 34.0 10.64500000000001 L14.375 -9.10499999999999 Q12.0 -11.47999999999999 10.69 -14.60499999999999 Q9.375 -17.72999999999999 9.375 -21.10499999999999 V-49.35499999999999 Q9.375 -52.72999999999999 10.69 -55.91999999999999 Q12.0 -59.10499999999999 14.375 -61.35499999999999 L15.25 -62.35499999999999 L3.75 -73.97999999999999 Q1.75 -75.85499999999999 1.815 -78.47999999999999 Q1.875 -81.10499999999999 3.875 -83.10499999999999 Q5.75 -84.97999999999999 8.5 -84.97999999999999 Q11.25 -84.97999999999999 13.125 -83.10499999999999 L108.0 11.89500000000001 Q110.0 13.77000000000001 109.94 16.455000000000013 Q109.875 19.14500000000001 108.0 21.02000000000001 Q106.0 23.02000000000001 103.315 23.02000000000001 Q100.625 23.02000000000001 98.75 21.02000000000001 L87.25 9.52000000000001 L86.25 10.52000000000001 Q83.875 12.89500000000001 80.75 14.205000000000013 Q77.625 15.52000000000001 74.25 15.52000000000001 H46.0 Z M56.875 -20.60499999999999 Q56.875 -20.60499999999999 56.935 -20.60499999999999 Q57.0 -20.60499999999999 57.0 -20.60499999999999 Q55.0 -19.60499999999999 53.875 -17.85499999999999 Q52.75 -16.10499999999999 52.75 -13.85499999999999 Q52.75 -10.72999999999999 54.94 -8.60499999999999 Q57.125 -6.47999999999999 60.125 -6.47999999999999 Q62.375 -6.47999999999999 64.125 -7.539999999999992 Q65.875 -8.60499999999999 66.875 -10.72999999999999 Q66.875 -10.72999999999999 66.875 -10.72999999999999 Q66.875 -10.72999999999999 66.875 -10.72999999999999 L56.875 -20.60499999999999 Z M104.875 -7.97999999999999  105.875 -9.10499999999999 Q108.25 -11.47999999999999 109.565 -14.60499999999999 Q110.875 -17.72999999999999 110.875 -21.10499999999999 V-49.35499999999999 Q110.875 -52.72999999999999 109.565 -55.91999999999999 Q108.25 -59.10499999999999 105.875 -61.35499999999999 L86.25 -80.97999999999999 Q84.0 -83.35499999999999 80.815 -84.66999999999999 Q77.625 -85.97999999999999 74.25 -85.97999999999999 H46.0 Q42.625 -85.97999999999999 39.44 -84.66999999999999 Q36.25 -83.35499999999999 34.0 -80.97999999999999 L32.875 -79.97999999999999 L54.0 -58.97999999999999 V-58.72999999999999 Q54.625 -60.72999999999999 56.375 -61.85499999999999 Q58.125 -62.97999999999999 60.125 -62.97999999999999 Q62.875 -62.97999999999999 64.815 -61.16999999999999 Q66.75 -59.35499999999999 66.75 -56.47999999999999 V-46.22999999999999 L104.875 -7.97999999999999 Z"/></g><g id="Semibold-M" transform="matrix(1 0 0 1 1985.97 1126)"><path d="M45.625 14.77000000000001 Q42.625 14.77000000000001 39.75 13.64500000000001 Q36.875 12.52000000000001 34.75 10.27000000000001 L14.625 -9.85499999999999 Q12.5 -11.97999999999999 11.315 -14.85499999999999 Q10.125 -17.72999999999999 10.125 -20.72999999999999 V-49.72999999999999 Q10.125 -52.72999999999999 11.315 -55.60499999999999 Q12.5 -58.47999999999999 14.625 -60.60499999999999 L16.0 -61.97999999999999 L3.75 -74.35499999999999 Q1.75 -76.35499999999999 1.75 -78.97999999999999 Q1.75 -81.60499999999999 3.875 -83.60499999999999 Q5.75 -85.47999999999999 8.5 -85.47999999999999 Q11.25 -85.47999999999999 13.125 -83.60499999999999 L108.5 11.89500000000001 Q110.5 13.77000000000001 110.5 16.455000000000013 Q110.5 19.14500000000001 108.5 21.02000000000001 Q106.5 23.02000000000001 103.81500000000001 23.02000000000001 Q101.125 23.02000000000001 99.25 21.02000000000001 L86.875 8.77000000000001 L85.5 10.27000000000001 Q83.375 12.39500000000001 80.5 13.580000000000013 Q77.625 14.77000000000001 74.625 14.77000000000001 H45.625 Z M57.625 -20.35499999999999 Q57.625 -20.35499999999999 57.625 -20.35499999999999 Q57.625 -20.35499999999999 57.625 -20.35499999999999 Q55.625 -19.60499999999999 54.435 -17.97999999999999 Q53.25 -16.35499999999999 53.25 -13.97999999999999 Q53.25 -11.10499999999999 55.25 -9.10499999999999 Q57.25 -7.10499999999999 60.125 -7.10499999999999 Q62.375 -7.10499999999999 64.06 -8.22999999999999 Q65.75 -9.35499999999999 66.625 -11.60499999999999 Q66.625 -11.60499999999999 66.625 -11.60499999999999 Q66.625 -11.60499999999999 66.625 -11.60499999999999 L57.625 -20.35499999999999 Z M104.0 -8.22999999999999  105.625 -9.85499999999999 Q107.75 -11.97999999999999 108.94 -14.85499999999999 Q110.125 -17.72999999999999 110.125 -20.72999999999999 V-49.72999999999999 Q110.125 -52.72999999999999 108.94 -55.60499999999999 Q107.75 -58.47999999999999 105.625 -60.60499999999999 L85.5 -80.72999999999999 Q83.375 -82.85499999999999 80.5 -84.04499999999999 Q77.625 -85.22999999999999 74.625 -85.22999999999999 H45.625 Q42.625 -85.22999999999999 39.75 -84.04499999999999 Q36.875 -82.85499999999999 34.75 -80.72999999999999 L33.125 -79.10499999999999 L54.0 -58.35499999999999 V-58.22999999999999 Q54.625 -60.10499999999999 56.375 -61.22999999999999 Q58.125 -62.35499999999999 60.125 -62.35499999999999 Q62.875 -62.35499999999999 64.815 -60.47999999999999 Q66.75 -58.60499999999999 66.75 -55.85499999999999 V-45.60499999999999 L104.0 -8.22999999999999 Z"/></g><g id="Medium-M" transform="matrix(1 0 0 1 1689.91 1126)"><path d="M45.375 14.14500000000001 Q42.5 14.14500000000001 39.875 13.085000000000008 Q37.25 12.02000000000001 35.375 10.02000000000001 L14.875 -10.47999999999999 Q12.875 -12.47999999999999 11.81 -15.039999999999992 Q10.75 -17.60499999999999 10.75 -20.47999999999999 V-49.97999999999999 Q10.75 -52.85499999999999 11.81 -55.47999999999999 Q12.875 -58.10499999999999 14.875 -59.97999999999999 L16.625 -61.72999999999999 L3.625 -74.72999999999999 Q1.625 -76.72999999999999 1.625 -79.35499999999999 Q1.625 -81.97999999999999 3.75 -84.10499999999999 Q5.625 -85.97999999999999 8.375 -85.97999999999999 Q11.125 -85.97999999999999 13.125 -84.10499999999999 L109.0 11.89500000000001 Q111.0 13.89500000000001 110.94 16.52000000000001 Q110.875 19.14500000000001 109.0 21.14500000000001 Q107.0 23.14500000000001 104.25 23.14500000000001 Q101.5 23.14500000000001 99.625 21.14500000000001 L86.625 8.27000000000001 L84.875 10.02000000000001 Q82.875 12.02000000000001 80.31 13.085000000000008 Q77.75 14.14500000000001 74.875 14.14500000000001 H45.375 Z M58.125 -20.22999999999999 Q58.125 -20.22999999999999 58.125 -20.22999999999999 Q58.125 -20.22999999999999 58.125 -20.22999999999999 Q56.125 -19.47999999999999 54.875 -17.97999999999999 Q53.625 -16.47999999999999 53.625 -14.10499999999999 Q53.625 -11.35499999999999 55.5 -9.414999999999992 Q57.375 -7.47999999999999 60.125 -7.47999999999999 Q62.25 -7.47999999999999 63.94 -8.669999999999987 Q65.625 -9.85499999999999 66.375 -12.10499999999999 Q66.375 -12.10499999999999 66.375 -12.10499999999999 Q66.375 -12.10499999999999 66.375 -12.10499999999999 L58.125 -20.22999999999999 Z M103.5 -8.47999999999999  105.375 -10.47999999999999 Q107.375 -12.47999999999999 108.44 -15.039999999999992 Q109.5 -17.60499999999999 109.5 -20.47999999999999 V-49.97999999999999 Q109.5 -52.85499999999999 108.44 -55.47999999999999 Q107.375 -58.10499999999999 105.375 -59.97999999999999 L84.875 -80.47999999999999 Q83.0 -82.47999999999999 80.375 -83.54499999999999 Q77.75 -84.60499999999999 74.875 -84.60499999999999 H45.375 Q42.5 -84.60499999999999 39.875 -83.54499999999999 Q37.25 -82.47999999999999 35.375 -80.47999999999999 L33.375 -78.60499999999999 L54.0 -57.97999999999999 V-57.85499999999999 Q54.625 -59.72999999999999 56.44 -60.85499999999999 Q58.25 -61.97999999999999 60.125 -61.97999999999999 Q62.875 -61.97999999999999 64.815 -60.04499999999999 Q66.75 -58.10499999999999 66.75 -55.35499999999999 V-45.22999999999999 L103.5 -8.47999999999999 Z"/></g><g id="Regular-M" transform="matrix(1 0 0 1 1394.06 1126)"><path d="M45.125 13.77000000000001 Q42.5 13.77000000000001 40.06 12.77000000000001 Q37.625 11.77000000000001 35.75 9.89500000000001 L15.0 -10.85499999999999 Q13.125 -12.72999999999999 12.125 -15.169999999999987 Q11.125 -17.60499999999999 11.125 -20.22999999999999 V-50.22999999999999 Q11.125 -52.85499999999999 12.125 -55.29499999999999 Q13.125 -57.72999999999999 15.0 -59.60499999999999 L17.0 -61.60499999999999 L3.625 -74.97999999999999 Q1.625 -76.97999999999999 1.625 -79.60499999999999 Q1.625 -82.22999999999999 3.75 -84.35499999999999 Q5.625 -86.22999999999999 8.375 -86.22999999999999 Q11.125 -86.22999999999999 13.125 -84.35499999999999 L109.25 11.89500000000001 Q111.25 13.89500000000001 111.25 16.52000000000001 Q111.25 19.14500000000001 109.25 21.14500000000001 Q107.25 23.14500000000001 104.5 23.14500000000001 Q101.75 23.14500000000001 99.875 21.14500000000001 L86.5 7.89500000000001 L84.5 9.89500000000001 Q82.625 11.77000000000001 80.19 12.77000000000001 Q77.75 13.77000000000001 75.125 13.77000000000001 H45.125 Z M58.5 -20.10499999999999 Q58.5 -20.10499999999999 58.5 -20.10499999999999 Q58.5 -20.10499999999999 58.5 -20.10499999999999 Q56.5 -19.47999999999999 55.19 -18.039999999999992 Q53.875 -16.60499999999999 53.875 -14.10499999999999 Q53.875 -11.47999999999999 55.685 -9.664999999999992 Q57.5 -7.85499999999999 60.125 -7.85499999999999 Q62.25 -7.85499999999999 63.94 -9.039999999999992 Q65.625 -10.22999999999999 66.25 -12.60499999999999 Q66.25 -12.60499999999999 66.25 -12.60499999999999 Q66.25 -12.60499999999999 66.25 -12.60499999999999 L58.5 -20.10499999999999 Z M103.0 -8.60499999999999  105.25 -10.85499999999999 Q107.125 -12.72999999999999 108.125 -15.169999999999987 Q109.125 -17.60499999999999 109.125 -20.22999999999999 V-50.22999999999999 Q109.125 -52.85499999999999 108.125 -55.29499999999999 Q107.125 -57.72999999999999 105.25 -59.60499999999999 L84.5 -80.35499999999999 Q82.625 -82.22999999999999 80.19 -83.22999999999999 Q77.75 -84.22999999999999 75.125 -84.22999999999999 H45.125 Q42.5 -84.22999999999999 40.06 -83.22999999999999 Q37.625 -82.22999999999999 35.75 -80.35499999999999 L33.5 -78.10499999999999 L54.0 -57.60499999999999 Q54.625 -59.35499999999999 56.44 -60.47999999999999 Q58.25 -61.60499999999999 60.125 -61.60499999999999 Q62.875 -61.60499999999999 64.815 -59.66999999999999 Q66.75 -57.72999999999999 66.75 -54.97999999999999 V-44.85499999999999 L103.0 -8.60499999999999 Z"/></g><g id="Light-M" transform="matrix(1 0 0 1 1098.18 1126)"><path d="M45.75 11.27000000000001 Q43.375 11.27000000000001 41.125 10.335000000000008 Q38.875 9.39500000000001 37.0 7.64500000000001 L17.25 -12.10499999999999 Q15.5 -13.85499999999999 14.565 -16.10499999999999 Q13.625 -18.35499999999999 13.625 -20.85499999999999 V-49.60499999999999 Q13.625 -51.97999999999999 14.565 -54.22999999999999 Q15.5 -56.47999999999999 17.25 -58.35499999999999 L20.5 -61.60499999999999 L6.375 -75.60499999999999 Q4.75 -77.35499999999999 4.75 -79.41999999999999 Q4.75 -81.47999999999999 6.5 -83.35499999999999 Q8.125 -84.85499999999999 10.309999999999999 -84.85499999999999 Q12.5 -84.85499999999999 14.125 -83.35499999999999 L108.25 10.89500000000001 Q109.875 12.52000000000001 109.875 14.580000000000013 Q109.875 16.64500000000001 108.25 18.39500000000001 Q106.5 20.02000000000001 104.315 20.02000000000001 Q102.125 20.02000000000001 100.5 18.39500000000001 L86.5 4.39500000000001 L83.125 7.77000000000001 Q81.375 9.52000000000001 79.125 10.39500000000001 Q76.875 11.27000000000001 74.5 11.27000000000001 H45.75 Z M58.875 -19.35499999999999 Q58.75 -19.47999999999999 58.625 -19.544999999999987 Q58.5 -19.60499999999999 58.5 -19.60499999999999 Q56.875 -18.97999999999999 55.875 -17.789999999999992 Q54.875 -16.60499999999999 54.875 -14.60499999999999 Q54.875 -12.35499999999999 56.375 -10.85499999999999 Q57.875 -9.35499999999999 60.125 -9.35499999999999 Q61.875 -9.35499999999999 63.25 -10.22999999999999 Q64.625 -11.10499999999999 65.25 -13.10499999999999 Q65.25 -13.10499999999999 65.19 -13.22999999999999 Q65.125 -13.35499999999999 65.0 -13.47999999999999 L58.875 -19.35499999999999 Z M101.25 -10.22999999999999  103.125 -12.10499999999999 Q104.875 -13.85499999999999 105.75 -16.10499999999999 Q106.625 -18.35499999999999 106.625 -20.72999999999999 V-49.60499999999999 Q106.625 -51.97999999999999 105.69000000000001 -54.22999999999999 Q104.75 -56.47999999999999 103.0 -58.35499999999999 L83.25 -78.10499999999999 Q81.375 -79.85499999999999 79.125 -80.79499999999999 Q76.875 -81.72999999999999 74.5 -81.72999999999999 H45.75 Q43.375 -81.72999999999999 41.125 -80.79499999999999 Q38.875 -79.85499999999999 37.0 -78.10499999999999 L35.25 -76.22999999999999 L55.25 -56.35499999999999 V-57.85499999999999 Q55.875 -59.10499999999999 57.315 -59.85499999999999 Q58.75 -60.60499999999999 60.125 -60.60499999999999 Q62.375 -60.60499999999999 63.94 -59.039999999999985 Q65.5 -57.47999999999999 65.5 -55.22999999999999 V-46.10499999999999 L101.25 -10.22999999999999 Z"/></g><g id="Thin-M" transform="matrix(1 0 0 1 802.565 1126)"><path d="M46.5 8.77000000000001 Q44.25 8.77000000000001 42.125 7.89500000000001 Q40.0 7.02000000000001 38.375 5.52000000000001 L19.5 -13.22999999999999 Q17.875 -14.97999999999999 17.0 -17.044999999999987 Q16.125 -19.10499999999999 16.125 -21.35499999999999 V-48.85499999999999 Q16.125 -51.10499999999999 17.0 -53.22999999999999 Q17.875 -55.35499999999999 19.5 -56.97999999999999 L24.125 -61.60499999999999 L9.25 -76.35499999999999 Q7.875 -77.60499999999999 7.875 -79.16999999999999 Q7.875 -80.72999999999999 9.375 -82.22999999999999 Q10.625 -83.47999999999999 12.25 -83.47999999999999 Q13.875 -83.47999999999999 15.25 -82.22999999999999 L107.125 9.77000000000001 Q108.5 11.14500000000001 108.5 12.705000000000013 Q108.5 14.27000000000001 107.125 15.52000000000001 Q105.75 17.02000000000001 104.125 17.02000000000001 Q102.5 17.02000000000001 101.25 15.52000000000001 L86.5 1.0200000000000102 L81.75 5.52000000000001 Q80.25 7.14500000000001 78.125 7.960000000000022 Q76.0 8.77000000000001 73.875 8.77000000000001 H46.5 Z M59.25 -18.60499999999999 Q59.0 -18.85499999999999 58.815 -18.97999999999999 Q58.625 -19.10499999999999 58.5 -19.10499999999999 Q57.25 -18.47999999999999 56.5 -17.60499999999999 Q55.75 -16.72999999999999 55.75 -15.10499999999999 Q55.75 -13.35499999999999 57.0 -12.044999999999987 Q58.25 -10.72999999999999 60.125 -10.72999999999999 Q61.5 -10.72999999999999 62.625 -11.419999999999987 Q63.75 -12.10499999999999 64.375 -13.60499999999999 Q64.375 -13.60499999999999 64.19 -13.85499999999999 Q64.0 -14.10499999999999 63.75 -14.35499999999999 L59.25 -18.60499999999999 Z M99.5 -11.85499999999999  100.875 -13.35499999999999 Q102.5 -14.97999999999999 103.315 -17.044999999999987 Q104.125 -19.10499999999999 104.125 -21.22999999999999 V-48.85499999999999 Q104.125 -51.10499999999999 103.25 -53.22999999999999 Q102.375 -55.35499999999999 100.75 -56.97999999999999 L81.875 -75.85499999999999 Q80.25 -77.47999999999999 78.125 -78.35499999999999 Q76.0 -79.22999999999999 73.75 -79.22999999999999 H46.5 Q44.25 -79.22999999999999 42.125 -78.35499999999999 Q40.0 -77.47999999999999 38.375 -75.85499999999999 L37.0 -74.47999999999999 L56.5 -55.10499999999999 V-58.22999999999999 Q57.125 -58.85499999999999 58.19 -59.29499999999999 Q59.25 -59.72999999999999 60.125 -59.72999999999999 Q61.875 -59.72999999999999 63.065 -58.47999999999999 Q64.25 -57.22999999999999 64.25 -55.60499999999999 V-47.35499999999999 L99.5 -11.85499999999999 Z"/></g><g id="Ultralight-M" transform="matrix(1 0 0 1 506.415 1126)"><path d="M46.875 7.27000000000001 Q44.75 7.27000000000001 42.75 6.4550000000000125 Q40.75 5.64500000000001 39.125 4.14500000000001 L20.875 -13.97999999999999 Q19.25 -15.60499999999999 18.44 -17.60499999999999 Q17.625 -19.60499999999999 17.625 -21.72999999999999 V-48.47999999999999 Q17.625 -50.60499999999999 18.44 -52.60499999999999 Q19.25 -54.60499999999999 20.875 -56.22999999999999 L26.25 -61.60499999999999 L10.875 -76.72999999999999 Q9.75 -77.85499999999999 9.75 -79.10499999999999 Q9.75 -80.35499999999999 11.0 -81.60499999999999 Q12.125 -82.72999999999999 13.375 -82.72999999999999 Q14.625 -82.72999999999999 15.875 -81.60499999999999 L106.5 9.14500000000001 Q107.625 10.27000000000001 107.625 11.52000000000001 Q107.625 12.77000000000001 106.5 13.89500000000001 Q105.25 15.14500000000001 104.0 15.14500000000001 Q102.75 15.14500000000001 101.625 13.89500000000001 L86.5 -1.1049999999999898 L81.0 4.27000000000001 Q79.5 5.77000000000001 77.5 6.52000000000001 Q75.5 7.27000000000001 73.5 7.27000000000001 H46.875 Z M59.5 -18.10499999999999 Q59.125 -18.47999999999999 58.875 -18.669999999999987 Q58.625 -18.85499999999999 58.5 -18.85499999999999 Q57.5 -18.22999999999999 56.935 -17.47999999999999 Q56.375 -16.72999999999999 56.375 -15.35499999999999 Q56.375 -13.85499999999999 57.44 -12.72999999999999 Q58.5 -11.60499999999999 60.125 -11.60499999999999 Q61.25 -11.60499999999999 62.190000000000005 -12.10499999999999 Q63.125 -12.60499999999999 63.75 -13.85499999999999 Q63.75 -13.97999999999999 63.565 -14.22999999999999 Q63.375 -14.47999999999999 63.0 -14.85499999999999 L59.5 -18.10499999999999 Z M98.5 -12.85499999999999  99.625 -14.10499999999999 Q101.125 -15.60499999999999 101.875 -17.544999999999987 Q102.625 -19.47999999999999 102.625 -21.60499999999999 V-48.47999999999999 Q102.625 -50.60499999999999 101.815 -52.60499999999999 Q101.0 -54.60499999999999 99.375 -56.22999999999999 L81.125 -74.47999999999999 Q79.5 -76.10499999999999 77.5 -76.91999999999999 Q75.5 -77.72999999999999 73.375 -77.72999999999999 H46.875 Q44.75 -77.72999999999999 42.75 -76.91999999999999 Q40.75 -76.10499999999999 39.125 -74.47999999999999 L38.0 -73.35499999999999 L57.25 -54.35499999999999 V-58.35499999999999 Q57.875 -58.72999999999999 58.75 -58.919999999999995 Q59.625 -59.10499999999999 60.125 -59.10499999999999 Q61.5 -59.10499999999999 62.5 -58.10499999999999 Q63.5 -57.10499999999999 63.5 -55.72999999999999 V-48.10499999999999 L98.5 -12.85499999999999 Z"/></g><g id="Bold-S" transform="matrix(1 0 0 1 2294.23 696)"><path d="M36.394992 4.810171999999994 Q33.630336 4.810171999999994 31.017167999999998 3.7781599999999997 Q28.404 2.741414000000006 26.529336 0.8667500000000103 L11.442077999999999 -14.220507999999995 Q9.468 -16.194585999999987 8.383913999999999 -18.760413999999997 Q7.299828 -21.321507999999987 7.299828 -24.086163999999997 V-46.274421999999994 Q7.299828 -49.03907799999999 8.383913999999999 -51.60017199999999 Q9.468 -54.166 11.342664 -55.94125 L11.835 -56.632414 L3.058164 -65.30983599999999 Q1.382328 -66.890992 1.429668 -69.059164 Q1.477008 -71.227336 3.157578 -72.903172 Q4.734 -74.48432799999999 6.902172 -74.48432799999999 Q9.075078 -74.48432799999999 10.750914 -72.903172 L84.918492 1.4585000000000008 Q86.594328 3.0349219999999946 86.542254 5.255167999999998 Q86.49491400000001 7.475414000000015 85.013172 8.952421999999999 Q83.237922 10.727671999999998 81.11709 10.727671999999998 Q79.000992 10.727671999999998 77.41983599999999 8.952421999999999 L68.643 0.2750000000000057 L68.05125 0.8667500000000103 Q66.176586 2.741414000000006 63.615492 3.7781599999999997 Q61.04966400000001 4.810171999999994 58.384422 4.810171999999994 H36.394992 Z M44.281836 -23.986749999999994 Q44.281836 -23.986749999999994 44.42859 -23.986749999999994 Q44.580078 -23.986749999999994 44.873585999999996 -23.986749999999994 Q43.297164 -23.196171999999997 42.312492000000006 -21.719164 Q41.323085999999996 -20.237421999999995 41.323085999999996 -18.462171999999995 Q41.323085999999996 -16.000491999999994 43.15041 -14.220507999999995 Q44.973 -12.449991999999995 47.34 -12.449991999999995 Q49.11525 -12.449991999999995 50.596992 -13.382589999999993 Q52.074 -14.319921999999991 52.864578 -16.000491999999994 Q52.864578 -15.702249999999992 52.864578 -15.654910000000001 Q52.864578 -15.602835999999996 52.864578 -15.602835999999996 L44.281836 -23.986749999999994 Z M83.043828 -14.125827999999998  83.138508 -14.220507999999995 Q85.112586 -16.194585999999987 86.24874600000001 -18.760413999999997 Q87.38017199999999 -21.321507999999987 87.38017199999999 -24.185577999999992 V-46.17500799999999 Q87.38017199999999 -48.93966399999999 86.296086 -51.552831999999995 Q85.212 -54.166 83.237922 -56.04066399999999 L68.150664 -71.127922 Q66.276 -73.10199999999999 63.662832 -74.18608599999999 Q61.04966400000001 -75.27017199999999 58.285008 -75.27017199999999 H36.394992 Q33.630336 -75.27017199999999 31.017167999999998 -74.18608599999999 Q28.404 -73.10199999999999 26.529336 -71.127922 L26.235827999999998 -70.93382799999999 L42.407172 -55.05599199999999 V-54.066585999999994 Q43.098335999999996 -55.643007999999995 44.580078 -56.334171999999995 Q46.057086 -57.025335999999996 47.34 -57.025335999999996 Q49.508172 -57.025335999999996 51.136668 -55.49625399999999 Q52.765164000000006 -53.96717199999999 52.765164000000006 -51.699586 V-44.69799999999999 L83.043828 -14.125827999999998 Z"/></g><g id="Semibold-S" transform="matrix(1 0 0 1 1998.1 696)"><path d="M36.09675 4.218422000000004 Q33.630336 4.218422000000004 31.263336 3.2810900000000203 Q28.896336 2.3484920000000074 27.121086000000002 0.5685080000000085 L11.636172 -14.816991999999999 Q9.860922 -16.587507999999985 8.87625 -18.95450799999999 Q7.891578 -21.321507999999987 7.891578 -23.787921999999995 V-46.572663999999996 Q7.891578 -49.03907799999999 8.87625 -51.35400399999999 Q9.860922 -53.67366399999999 11.541492000000002 -55.34949999999999 L12.42675 -56.334171999999995 L3.058164 -65.60807799999999 Q1.382328 -67.283914 1.382328 -69.452086 Q1.382328 -71.62499199999999 3.157578 -73.300828 Q4.734 -74.87724999999999 6.902172 -74.87724999999999 Q9.075078 -74.87724999999999 10.750914 -73.300828 L85.311414 1.4585000000000008 Q86.98725 3.0349219999999946 86.98725 5.255167999999998 Q86.98725 7.475414000000015 85.41082800000001 8.952421999999999 Q83.63557800000001 10.727671999999998 81.514746 10.727671999999998 Q79.39391400000001 10.727671999999998 77.81749199999999 8.952421999999999 L68.349492 -0.316749999999999 L67.4595 0.6679220000000043 Q65.783664 2.3484920000000074 63.416664000000004 3.2810900000000203 Q61.04966400000001 4.218422000000004 58.682664 4.218422000000004 H36.09675 Z M44.873585999999996 -23.787921999999995 Q44.873585999999996 -23.787921999999995 44.973 -23.787921999999995 Q45.072414 -23.787921999999995 45.365922 -23.787921999999995 Q43.7895 -23.196171999999997 42.752754 -21.818577999999995 Q41.716007999999995 -20.436249999999994 41.716007999999995 -18.56158599999999 Q41.716007999999995 -16.293999999999997 43.396578 -14.618163999999993 Q45.072414 -12.94232799999999 47.34 -12.94232799999999 Q49.11525 -12.94232799999999 50.544917999999996 -13.926999999999992 Q51.974585999999995 -14.911671999999996 52.66575 -16.686921999999996 Q52.66575 -16.393413999999993 52.66575 -16.341339999999988 Q52.66575 -16.293999999999997 52.66575 -16.293999999999997 L44.873585999999996 -23.787921999999995 Z M82.352664 -14.319921999999991  82.94441400000001 -14.816991999999999 Q84.71966400000001 -16.587507999999985 85.75640999999999 -18.95450799999999 Q86.788422 -21.321507999999987 86.788422 -23.88733599999999 V-46.47324999999999 Q86.788422 -48.93966399999999 85.80375 -51.306664 Q84.819078 -53.67366399999999 83.043828 -55.44891399999999 L67.558914 -70.93382799999999 Q65.783664 -72.70907799999999 63.416664000000004 -73.69375 Q61.04966400000001 -74.678422 58.58325 -74.678422 H36.09675 Q33.630336 -74.678422 31.263336 -73.69375 Q28.896336 -72.70907799999999 27.121086000000002 -70.93382799999999 L26.429922 -70.24266399999999 L42.407172 -54.558921999999995 V-53.67366399999999 Q43.098335999999996 -55.15067199999999 44.580078 -55.841835999999994 Q46.057086 -56.532999999999994 47.34 -56.532999999999994 Q49.508172 -56.532999999999994 51.136668 -54.95657799999999 Q52.765164000000006 -53.37542199999999 52.765164000000006 -51.207249999999995 V-44.205664 L82.352664 -14.319921999999991 Z"/></g><g id="Medium-S" transform="matrix(1 0 0 1 1701.85 696)"><path d="M35.897922 3.7260860000000093 Q33.530922000000004 3.7260860000000093 31.36275 2.840828000000016 Q29.194578 1.9508360000000096 27.613422 0.3744140000000158 L11.835 -15.309327999999994 Q10.159163999999999 -16.985163999999997 9.269172 -19.10599599999999 Q8.383913999999999 -21.22682799999999 8.383913999999999 -23.593827999999995 V-46.771491999999995 Q8.383913999999999 -49.13849199999999 9.269172 -51.25458999999999 Q10.159163999999999 -53.37542199999999 11.735586 -54.857164 L12.919086 -56.14007799999999 L2.95875 -65.901586 Q1.282914 -67.577422 1.282914 -69.750328 Q1.282914 -71.9185 3.058164 -73.69375 Q4.634586 -75.27017199999999 6.807492 -75.27017199999999 Q8.975664 -75.27017199999999 10.750914 -73.69375 L85.704336 1.4585000000000008 Q87.38017199999999 3.1343360000000047 87.332832 5.302508000000017 Q87.28549199999999 7.475414000000015 85.80375 9.051836000000009 Q84.0285 10.827086000000008 81.86032800000001 10.827086000000008 Q79.687422 10.827086000000008 78.111 9.051836000000009 L68.150664 -0.7096719999999834 L66.967164 0.4738280000000117 Q65.386008 2.0502500000000055 63.26991 2.8881680000000074 Q61.149077999999996 3.7260860000000093 58.881492 3.7260860000000093 H35.897922 Z M45.266507999999995 -23.68850799999999 Q45.266507999999995 -23.68850799999999 45.365922 -23.68850799999999 Q45.46533599999999 -23.68850799999999 45.763578 -23.68850799999999 Q44.182422 -23.101491999999993 43.098335999999996 -21.818577999999995 Q42.01425 -20.535663999999997 42.01425 -18.660999999999994 Q42.01425 -16.49282799999999 43.590672 -14.86433199999999 Q45.171828 -13.235835999999992 47.34 -13.235835999999992 Q49.01583599999999 -13.235835999999992 50.445504 -14.272582 Q51.875172 -15.309327999999994 52.466922000000004 -17.084577999999993 Q52.466922000000004 -16.78633599999999 52.466922000000004 -16.738995999999986 Q52.466922000000004 -16.686921999999996 52.466922000000004 -16.686921999999996 L45.266507999999995 -23.68850799999999 Z M81.955008 -14.518749999999997  82.745586 -15.309327999999994 Q84.42142199999999 -16.985163999999997 85.35875399999999 -19.10599599999999 Q86.296086 -21.22682799999999 86.296086 -23.68850799999999 V-46.67207799999999 Q86.296086 -49.03907799999999 85.41082800000001 -51.207249999999995 Q84.520836 -53.37542199999999 82.845 -54.95657799999999 L67.06657799999999 -70.73499999999999 Q65.485422 -72.41083599999999 63.31725 -73.300828 Q61.149077999999996 -74.18608599999999 58.782078 -74.18608599999999 H35.897922 Q33.530922000000004 -74.18608599999999 31.36275 -73.300828 Q29.194578 -72.41083599999999 27.613422 -70.73499999999999 L26.62875 -69.84500799999999 L42.407172 -54.26541399999999 V-53.37542199999999 Q43.098335999999996 -54.857164 44.627418 -55.54832799999999 Q46.1565 -56.23949199999999 47.34 -56.23949199999999 Q49.508172 -56.23949199999999 51.136668 -54.61099599999999 Q52.765164000000006 -52.982499999999995 52.765164000000006 -50.81432799999999 V-43.907422 L81.955008 -14.518749999999997 Z"/></g><g id="Regular-S" transform="matrix(1 0 0 1 1405.73 696)"><path d="M35.703828 3.432578000000021 Q33.530922000000004 3.432578000000021 31.509504 2.5946600000000046 Q29.488086 1.7520080000000178 27.911664 0.2750000000000057 L11.934414 -15.602835999999996 Q10.357992000000001 -17.18399199999999 9.515339999999998 -19.205409999999993 Q8.677422 -21.22682799999999 8.677422 -23.394999999999996 V-46.965585999999995 Q8.677422 -49.13849199999999 9.515339999999998 -51.10783599999999 Q10.357992000000001 -53.081914 11.835 -54.558921999999995 L13.217327999999998 -56.04066399999999 L2.95875 -66.100414 Q1.282914 -67.77624999999999 1.282914 -69.94442199999999 Q1.282914 -72.11732799999999 3.058164 -73.89257799999999 Q4.634586 -75.469 6.807492 -75.469 Q8.975664 -75.469 10.750914 -73.89257799999999 L85.903164 1.4585000000000008 Q87.579 3.1343360000000047 87.579 5.302508000000017 Q87.579 7.475414000000015 86.00257800000001 9.051836000000009 Q84.22732800000001 10.827086000000008 82.05442199999999 10.827086000000008 Q79.88625 10.827086000000008 78.30982800000001 9.051836000000009 L68.05125 -1.0079139999999995 L66.668922 0.3744140000000158 Q65.191914 1.8514219999999995 63.170496 2.64200000000001 Q61.149077999999996 3.432578000000021 59.075585999999994 3.432578000000021 H35.703828 Z M45.56475 -23.593827999999995 Q45.56475 -23.593827999999995 45.66416400000001 -23.593827999999995 Q45.763578 -23.593827999999995 46.057086 -23.593827999999995 Q44.480664000000004 -23.101491999999993 43.344504 -21.865917999999994 Q42.213077999999996 -20.635077999999993 42.213077999999996 -18.660999999999994 Q42.213077999999996 -16.587507999999985 43.74216 -15.063159999999996 Q45.266507999999995 -13.534077999999994 47.34 -13.534077999999994 Q49.01583599999999 -13.534077999999994 50.445504 -14.566089999999988 Q51.875172 -15.602835999999996 52.367507999999994 -17.477499999999992 Q52.367507999999994 -17.18399199999999 52.367507999999994 -17.131917999999985 Q52.367507999999994 -17.084577999999993 52.367507999999994 -17.084577999999993 L45.56475 -23.593827999999995 Z M81.562086 -14.618163999999993  82.64617199999999 -15.602835999999996 Q84.22732800000001 -17.18399199999999 85.112586 -19.205409999999993 Q86.00257800000001 -21.22682799999999 86.00257800000001 -23.494414 V-46.86617199999999 Q86.00257800000001 -49.03907799999999 85.16466 -51.06049599999999 Q84.32200800000001 -53.081914 82.745586 -54.65833599999999 L66.76833599999999 -70.63558599999999 Q65.191914 -72.212008 63.170496 -73.05466 Q61.149077999999996 -73.89257799999999 58.976172 -73.89257799999999 H35.703828 Q33.530922000000004 -73.89257799999999 31.509504 -73.05466 Q29.488086 -72.212008 27.911664 -70.63558599999999 L26.728164 -69.452086 L42.407172 -53.96717199999999 V-53.18132799999999 Q43.098335999999996 -54.558921999999995 44.627418 -55.250085999999996 Q46.1565 -55.94125 47.34 -55.94125 Q49.508172 -55.94125 51.136668 -54.31275399999999 Q52.765164000000006 -52.68899199999999 52.765164000000006 -50.516085999999994 V-43.613913999999994 L81.562086 -14.618163999999993 Z"/></g><g id="Light-S" transform="matrix(1 0 0 1 1109.75 696)"><path d="M36.196163999999996 1.4585000000000008 Q34.222086 1.4585000000000008 32.347422 0.6679220000000043 Q30.477491999999998 -0.11792199999999298 28.896336 -1.500249999999994 L13.709664 -16.587507999999985 Q12.227922000000001 -18.069249999999997 11.442077999999999 -19.943914 Q10.6515 -21.818577999999995 10.6515 -23.88733599999999 V-46.47324999999999 Q10.6515 -48.44732799999999 11.442077999999999 -50.26991799999999 Q12.227922000000001 -52.092507999999995 13.61025 -53.57424999999999 L15.97725 -56.04066399999999 L5.1269219999999995 -66.59275 Q3.749328 -68.07449199999999 3.749328 -69.79766799999999 Q3.749328 -71.525578 5.226336000000001 -73.10199999999999 Q6.608663999999999 -74.384914 8.33184 -74.384914 Q10.05975 -74.384914 11.541492000000002 -73.10199999999999 L85.112586 0.6679220000000043 Q86.49491400000001 2.0502500000000055 86.49491400000001 3.7781599999999997 Q86.49491400000001 5.501336000000009 85.212 6.88366400000001 Q83.63557800000001 8.360671999999994 81.907668 8.360671999999994 Q80.18449199999999 8.360671999999994 78.802164 6.88366400000001 L68.05125 -3.7678359999999884 L65.584836 -1.301421999999988 Q64.202508 0.07617199999999968 62.332578 0.7673360000000002 Q60.457914 1.4585000000000008 58.58325 1.4585000000000008 H36.196163999999996 Z M45.862992000000006 -23.00207799999999 Q45.763578 -23.101491999999993 45.763578 -23.148832 Q45.763578 -23.196171999999997 46.057086 -23.196171999999997 Q44.774172 -22.70383599999999 43.88891400000001 -21.667089999999995 Q42.998922 -20.635077999999993 42.998922 -19.053921999999993 Q42.998922 -17.278672 44.281836 -16.000491999999994 Q45.56475 -14.717577999999989 47.34 -14.717577999999989 Q48.722328 -14.717577999999989 49.905828 -15.503422 Q51.089328 -16.293999999999997 51.581664 -17.87042199999999 Q51.581664 -17.576914000000002 51.52959 -17.624253999999993 Q51.48225 -17.676327999999998 51.382836 -17.771007999999995 L45.862992000000006 -23.00207799999999 Z M80.18449199999999 -15.901077999999998  80.97033599999999 -16.587507999999985 Q82.452078 -18.069249999999997 83.237922 -19.943914 Q84.0285 -21.818577999999995 84.0285 -23.88733599999999 V-46.373836 Q84.0285 -48.347913999999996 83.237922 -50.22257799999999 Q82.452078 -52.092507999999995 80.97033599999999 -53.67366399999999 L65.783664 -68.86033599999999 Q64.202508 -70.34207799999999 62.332578 -71.127922 Q60.457914 -71.9185 58.483836 -71.9185 H36.196163999999996 Q34.222086 -71.9185 32.347422 -71.127922 Q30.477491999999998 -70.34207799999999 28.896336 -68.86033599999999 L28.110491999999997 -67.975078 L43.396578 -52.982499999999995 V-53.37542199999999 Q44.083008 -54.36482799999999 45.318582 -54.757749999999994 Q46.549422 -55.15067199999999 47.34 -55.15067199999999 Q49.11525 -55.15067199999999 50.445504 -53.82041799999999 Q51.780492 -52.49016399999999 51.780492 -50.71491399999999 V-44.59858599999999 L80.18449199999999 -15.901077999999998 Z"/></g><g id="Thin-S" transform="matrix(1 0 0 1 814.015 696)"><path d="M36.787914 -0.515578000000005 Q34.91325 -0.515578000000005 33.138 -1.2540819999999968 Q31.36275 -1.9925859999999886 29.980422 -3.1760859999999838 L15.484914 -17.477499999999992 Q14.102586 -18.95450799999999 13.364082 -20.68241799999999 Q12.625577999999999 -22.410327999999993 12.625577999999999 -24.284991999999995 V-45.881499999999996 Q12.625577999999999 -47.75616399999999 13.364082 -49.47933999999999 Q14.102586 -51.207249999999995 15.3855 -52.49016399999999 L18.836586 -56.04066399999999 L7.394508 -67.18449999999999 Q6.2110080000000005 -68.268586 6.2110080000000005 -69.59884 Q6.2110080000000005 -70.93382799999999 7.4939219999999995 -72.212008 Q8.578008 -73.300828 9.860922 -73.300828 Q11.143836 -73.300828 12.42675 -72.212008 L84.22732800000001 -0.21733599999998887 Q85.41082800000001 0.9661640000000062 85.41082800000001 2.2964180000000027 Q85.41082800000001 3.6266719999999992 84.32200800000001 4.616078000000016 Q83.043828 5.993672000000004 81.760914 5.993672000000004 Q80.478 5.993672000000004 79.39391400000001 4.616078000000016 L68.05125 -6.433077999999995 L64.50075 -3.076671999999988 Q63.31725 -1.7984919999999818 61.542 -1.1546679999999867 Q59.76675 -0.515578000000005 58.090914000000005 -0.515578000000005 H36.787914 Z M46.1565 -22.410327999999993 Q45.957672 -22.604421999999992 45.910332000000004 -22.70383599999999 Q45.862992000000006 -22.80324999999999 46.057086 -22.80324999999999 Q45.072414 -22.310913999999997 44.38125 -21.520335999999986 Q43.690085999999994 -20.734491999999996 43.690085999999994 -19.45157799999999 Q43.690085999999994 -18.069249999999997 44.774172 -16.933089999999993 Q45.862992000000006 -15.801664000000002 47.34 -15.801664000000002 Q48.424085999999996 -15.801664000000002 49.413492000000005 -16.440754 Q50.398164 -17.084577999999993 50.8905 -18.26807799999999 Q50.8905 -17.969835999999987 50.743745999999994 -18.116589999999988 Q50.596992 -18.26807799999999 50.398164 -18.462171999999995 L46.1565 -22.410327999999993 Z M78.802164 -17.18399199999999  79.19508599999999 -17.576914000000002 Q80.577414 -18.95450799999999 81.315918 -20.68241799999999 Q82.05442199999999 -22.410327999999993 82.05442199999999 -24.284991999999995 V-45.78208599999999 Q82.05442199999999 -47.656749999999995 81.315918 -49.431999999999995 Q80.577414 -51.207249999999995 79.19508599999999 -52.58957799999999 L64.699578 -67.08508599999999 Q63.31725 -68.46741399999999 61.542 -69.205918 Q59.76675 -69.94442199999999 57.892086 -69.94442199999999 H36.787914 Q34.91325 -69.94442199999999 33.138 -69.205918 Q31.36275 -68.46741399999999 29.980422 -67.08508599999999 L29.488086 -66.59275 L44.38125 -51.99782799999999 V-53.67366399999999 Q45.072414 -54.166 46.009746 -54.31275399999999 Q46.947078 -54.459508 47.34 -54.459508 Q48.722328 -54.459508 49.75434 -53.37542199999999 Q50.79108599999999 -52.291335999999994 50.79108599999999 -51.008421999999996 V-45.58799199999999 L78.802164 -17.18399199999999 Z"/></g><g id="Ultralight-S" transform="matrix(1 0 0 1 517.792 696)"><path d="M37.081422 -1.699078 Q35.306172000000004 -1.699078 33.630336 -2.3855080000000015 Q31.9545 -3.076671999999988 30.572172000000002 -4.260171999999983 L16.569 -18.069249999999997 Q15.186672000000002 -19.45157799999999 14.495508 -21.127413999999995 Q13.809078 -22.80324999999999 13.809078 -24.57849999999999 V-45.58799199999999 Q13.809078 -47.35850799999999 14.495508 -48.98700399999999 Q15.186672000000002 -50.6155 16.469586 -51.89841399999999 L20.512422 -56.04066399999999 L8.677422 -67.47800799999999 Q7.69275 -68.46741399999999 7.69275 -69.55149999999999 Q7.69275 -70.63558599999999 8.776836000000001 -71.71967199999999 Q9.761508 -72.70907799999999 10.750914 -72.70907799999999 Q11.735586 -72.70907799999999 12.919086 -71.71967199999999 L83.73499199999999 -0.7096719999999834 Q84.71966400000001 0.2750000000000057 84.71966400000001 1.359086000000005 Q84.71966400000001 2.443172000000004 83.82967199999999 3.3331640000000107 Q82.64617199999999 4.516664000000006 81.6615 4.516664000000006 Q80.676828 4.516664000000006 79.687422 3.3331640000000107 L68.05125 -8.108913999999999 L63.909 -4.0660780000000045 Q62.7255 -2.882577999999995 61.04966400000001 -2.2908280000000047 Q59.373827999999996 -1.699078 57.792672 -1.699078 H37.081422 Z M46.355328 -22.012671999999995 Q46.057086 -22.310913999999997 45.957672 -22.45766799999999 Q45.862992000000006 -22.604421999999992 46.057086 -22.604421999999992 Q45.266507999999995 -22.11208599999999 44.726832 -21.420921999999997 Q44.182422 -20.734491999999996 44.182422 -19.645671999999998 Q44.182422 -18.462171999999995 45.119754 -17.477499999999992 Q46.057086 -16.49282799999999 47.34 -16.49282799999999 Q48.229992 -16.49282799999999 49.06791 -16.985163999999997 Q49.905828 -17.477499999999992 50.398164 -18.462171999999995 Q50.398164 -18.26807799999999 50.25141 -18.41483199999999 Q50.099922 -18.56158599999999 49.806414000000004 -18.859827999999993 L46.355328 -22.012671999999995 Z M78.011586 -17.969835999999987  78.210414 -18.168663999999993 Q79.493328 -19.45157799999999 80.18449199999999 -21.07533999999999 Q80.870922 -22.70383599999999 80.870922 -24.57849999999999 V-45.48857799999999 Q80.870922 -47.26382799999999 80.18449199999999 -48.93966399999999 Q79.493328 -50.6155 78.111 -51.99782799999999 L64.107828 -66.00099999999999 Q62.7255 -67.38332799999999 61.04966400000001 -68.069758 Q59.373827999999996 -68.760922 57.598577999999996 -68.760922 H37.081422 Q35.306172000000004 -68.760922 33.630336 -68.069758 Q31.9545 -67.38332799999999 30.572172000000002 -66.00099999999999 L30.278664 -65.707492 L44.973 -51.406077999999994 V-53.77307799999999 Q45.66416400000001 -54.066585999999994 46.450008 -54.019245999999995 Q47.24058599999999 -53.96717199999999 47.34 -53.96717199999999 Q48.424085999999996 -53.96717199999999 49.314078 -53.081914 Q50.199335999999995 -52.19192199999999 50.199335999999995 -51.10783599999999 V-46.17500799999999 L78.011586 -17.969835999999987 Z"/></g></g></svg>