<svg xmlns="http://www.w3.org/2000/svg" height="24" width="24"><path d="M12.075 20.775Q11.75 20.775 11.45 20.7Q11.15 20.625 10.875 20.45Q9.875 19.85 8.775 19.5Q7.675 19.15 6.5 19.15Q5.55 19.15 4.663 19.4Q3.775 19.65 2.925 20.075Q2.05 20.525 1.2 20.038Q0.35 19.55 0.35 18.6V6.9Q0.35 6.275 0.638 5.725Q0.925 5.175 1.475 4.9Q2.65 4.35 3.888 4.1Q5.125 3.85 6.425 3.85Q7.95 3.85 9.35 4.237Q10.75 4.625 12 5.45V18.225Q13.275 17.425 14.675 16.962Q16.075 16.5 17.5 16.5Q18.375 16.5 19.238 16.675Q20.1 16.85 21 17.175Q21 17.175 21 17.175Q21 17.175 21 17.175V4.3Q21.4 4.425 21.812 4.575Q22.225 4.725 22.6 4.9Q23.175 5.125 23.413 5.688Q23.65 6.25 23.65 6.875V18.975Q23.65 19.825 22.812 20.175Q21.975 20.525 21.05 20.075Q20.2 19.65 19.312 19.4Q18.425 19.15 17.5 19.15Q16.375 19.15 15.312 19.5Q14.25 19.85 13.275 20.45Q13.025 20.625 12.713 20.7Q12.4 20.775 12.075 20.775ZM15.325 14.4Q14.925 14.775 14.463 14.562Q14 14.35 14 13.825V5.725Q14 5.65 14.225 5.2L17.675 1.625Q18.025 1.25 18.513 1.462Q19 1.675 19 2.175V10.625Q19 10.725 18.775 11.175ZM9.35 16.925V7.1Q8.7 6.75 7.963 6.625Q7.225 6.5 6.5 6.5Q5.55 6.5 4.688 6.65Q3.825 6.8 3 7.1Q3 7.1 3 7.1Q3 7.1 3 7.1V17.175Q3 17.175 3 17.175Q3 17.175 3 17.175Q3.875 16.85 4.725 16.675Q5.575 16.5 6.5 16.5Q7.25 16.5 7.975 16.6Q8.7 16.7 9.35 16.925ZM9.35 16.925Q9.35 16.925 9.35 16.925Q9.35 16.925 9.35 16.925Q9.35 16.925 9.35 16.925Q9.35 16.925 9.35 16.925Q9.35 16.925 9.35 16.925Q9.35 16.925 9.35 16.925V7.075Q9.35 7.075 9.35 7.075Q9.35 7.075 9.35 7.075Q9.35 7.075 9.35 7.075Q9.35 7.075 9.35 7.075Q9.35 7.075 9.35 7.075Q9.35 7.075 9.35 7.075Z"/></svg>