<svg xmlns="http://www.w3.org/2000/svg" height="40" viewBox="0 -960 960 960" width="40"><path d="M125.17-282.01q0-25.97 13.16-43.07t37.64-28.15q50.53-23.27 96.61-37.35 46.09-14.09 119.09-14.09t118.61 14.09q45.62 14.08 97.43 37.33 23.76 11.26 36.94 28.32 13.18 17.06 13.18 42.97v22.63q0 7.49-7.08 16.32-7.08 8.84-18.08 8.84H150.33q-10.8 0-17.98-7.34-7.18-7.33-7.18-17.82v-22.68Zm685.34 47.84h-79.84q.5-6.16 1.41-12.02.92-5.85.92-13.14v-19.84q0-35.94-11.86-63.53-11.87-27.6-33.31-47.13 25.84 7.5 50.81 16.39 24.97 8.9 48.22 19.29 20.97 11.65 34.89 30.98 13.92 19.32 13.92 43.63v20.26q0 10.5-7.61 17.81-7.6 7.3-17.55 7.3ZM391.67-511.83q-44.95 0-75.14-30.2-30.2-30.19-30.2-75.14 0-44.94 30.2-74.8 30.19-29.86 75.14-29.86 44.94 0 74.8 29.86t29.86 74.8q0 44.95-29.86 75.14-29.86 30.2-74.8 30.2Zm246.66-105.53q0 44.6-29.86 74.81-29.86 30.22-75.04 30.22-.26 0 1.16.15 1.42.16 1.58.31 18-21 26.92-47.76 8.91-26.76 8.91-57.43 0-30.32-10.17-56.02-10.16-25.7-25.66-49.59-.84.46-1.34.65-.5.19-1.5.19 45.28 0 75.14 30.04t29.86 74.43Zm-490 360.03h486.34v-24.29q0-16.07-8.34-27.81Q618-321.17 597-333.67q-46.73-24.66-92.8-36.25-46.08-11.58-112.15-11.58-66.23 0-112.64 11.58-46.41 11.59-92.74 36.25-21.84 12.5-30.09 24.4-8.25 11.9-8.25 27.44v24.5ZM391.27-535q34.73 0 58.31-23.52 23.59-23.52 23.59-58.25 0-34.73-23.52-58.31-23.53-23.59-58.25-23.59-34.73 0-58.32 23.52-23.58 23.53-23.58 58.25 0 34.73 23.52 58.32Q356.54-535 391.27-535Zm.06 277.67Zm0-359.5Z"/></svg>