<svg xmlns="http://www.w3.org/2000/svg" height="40" viewBox="0 -960 960 960" width="40"><path d="M155.65-150.17q-35.11 0-59.96-24.86-24.85-24.85-24.85-59.96v-490.02q0-35.11 24.85-60.15t59.96-25.04h648.7q35.11 0 60.15 25.04t25.04 60.15v270.83q0 19.38-16.69 29.1-16.69 9.72-35.63 3.09-14.54-5.34-30.59-7.6-16.06-2.26-33.09-2.26-11.53 0-22.34 1.16-10.8 1.17-21.34 3.84v-138.86q0-35.4-24.71-60.11-24.71-24.7-60.11-24.7H377.5q-13.67 0-23.12 9.47-9.45 9.48-9.45 22.77 0 13.66 9.45 23.12 9.45 9.45 23.12 9.45h267.78q7.81 0 13.79 6.02 5.97 6.01 5.97 14.03v165.83q-17.35 10.06-31.46 23.18-14.12 13.13-25.78 28.49v-137.69q0-17.45-12.59-30.03-12.58-12.58-30.03-12.58H272.72q-17.84 0-30.21 12.58-12.37 12.58-12.37 30.03v133.8q0 17.83 12.37 30.2 12.37 12.37 30.21 12.37h308.8q-13.5 28.3-17.53 58.74-4.04 30.44.6 60.79 1.62 15.65-7.62 27.71-9.23 12.07-23.9 12.07H155.65Zm583.02-33.89h-77.99q-15.05 0-25.33-10.09-10.28-10.09-10.28-25.34 0-15.26 10.09-25.35 10.09-10.09 25.52-10.09h77.99v-78.32q0-14.66 10.09-24.97 10.09-10.3 25.34-10.3 14.88 0 25.16 10.3 10.28 10.31 10.28 24.97v78.32h77.95q14.66 0 24.96 10.12 10.3 10.11 10.3 25.15 0 15.42-10.11 25.51-10.12 10.09-25.15 10.09h-77.95v77.62q0 15.42-10.31 25.51-10.3 10.09-24.96 10.09-15.42 0-25.51-10.09-10.09-10.09-10.09-25.51v-77.62Z"/></svg>