<svg xmlns="http://www.w3.org/2000/svg" height="20" viewBox="0 -960 960 960" width="20"><path d="M285.69-458.5q-58.69-1-98.94-41.75t-40.25-100q0-59.25 41-100.25t100.5-41h50.5v-168h283v168H672q59.5 0 100.5 41t41 100.25q0 59.25-40.25 100t-98.94 41.75H586q7.36-8.68 12.93-18.59 5.57-9.91 10.57-20.41l9-23q2.32-4.89 6.25-7.44 3.93-2.56 8.25-2.56h36.5v-67H633q-25.62 0-46.31 14.25T557.5-546l-9 23q-8.5 21-27.25 33.25T480-477.5q-22.75 0-40.87-12.25Q421-502 412.5-523l-9-23q-9.5-23-29.88-37.25T328-597.5h-37.5v67H327q4.44 0 8.47 2.5t6.03 7.5l9 23q5 10.5 10.57 20.41T374-458.5h-88.31ZM312-98.5q-19.54 0-35.33-9.45-15.78-9.45-25.17-26.55H155q-43.54 0-74.02-30.77Q50.5-196.04 50.5-240v-141.5h67v141.23q0 16.33 10.78 27.55Q139.06-201.5 155-201.5h96.34q9.79-17.1 25.49-26.55 15.71-9.45 35.17-9.45h50.5V-300q0-13.8 9.79-23.65 9.79-9.85 23.5-9.85t23.71 9.85q10 9.85 10 23.65v62.5h101V-300q0-13.8 9.79-23.65 9.79-9.85 23.5-9.85t23.71 9.85q10 9.85 10 23.65v62.5H648q19.54 0 35.33 9.45 15.78 9.45 25.17 26.55H805q15.94 0 26.72-11.07T842.5-240v-141.5h67v141.33q0 44.17-30.48 74.92T805-134.5h-96.34q-9.78 17.1-25.49 26.55Q667.46-98.5 648-98.5H312Z"/></svg>