<svg xmlns="http://www.w3.org/2000/svg" height="40" viewBox="0 -960 960 960" width="40"><path d="M70.77-240v-480h480v480h-480Zm33.85-92.56q45.28-29.75 97.3-46.49 52.03-16.74 108.85-16.74 56.82 0 108.85 16.74 52.02 16.74 97.3 46.49v-353.59h-412.3v353.59Zm206.32-109.59q-40.85 0-69.43-28.42-28.59-28.41-28.59-69.26 0-40.85 28.42-69.43 28.41-28.59 69.26-28.59 40.85 0 69.43 28.42 28.59 28.41 28.59 69.26 0 40.85-28.42 69.43-28.42 28.59-69.26 28.59ZM686.15-240v-480H720v480h-33.85Zm169.23 0v-480h33.85v480h-33.85Z"/></svg>