<svg xmlns="http://www.w3.org/2000/svg" height="48" viewBox="0 -960 960 960" width="48"><path d="M185.09-105.87q-32.68 0-55.95-23.27-23.27-23.27-23.27-55.95v-589.82q0-32.91 23.27-56.35 23.27-23.44 55.95-23.44h190.87q8.39-35 37.08-57.5 28.7-22.5 66.96-22.5 38.26 0 66.96 22.5 28.69 22.5 37.08 57.5h190.87q32.91 0 56.35 23.44 23.44 23.44 23.44 56.35v269.21q0 16.71-11.84 28.16-11.83 11.45-28.56 11.45-16.73 0-28.06-11.45-11.33-11.45-11.33-28.16v-269.21H185.09v589.82h256.08q16.64 0 28.41 11.5 11.77 11.51 11.77 28.29t-11.77 28.1q-11.77 11.33-28.41 11.33H185.09Zm0-112.65v33.43-589.82 310.82V-467.52v249Zm130-66.57h160.65q12.18 0 21.09-8.67 8.91-8.68 8.91-21.5 0-12.83-8.91-21.33-8.91-8.5-21.09-8.5H315.09q-12.75 0-21.38 8.68-8.62 8.67-8.62 21.5 0 12.82 8.62 21.32 8.63 8.5 21.38 8.5ZM315.01-450H634.6q12.11 0 21.01-8.68 8.91-8.67 8.91-21.5 0-12.82-8.91-21.32-8.9-8.5-21.01-8.5H315.01q-12.67 0-21.3 8.68-8.62 8.67-8.62 21.5 0 12.82 8.62 21.32 8.63 8.5 21.3 8.5Zm.24-164.91h329.5q12.91 0 21.54-8.68 8.62-8.67 8.62-21.5 0-12.82-8.62-21.32-8.63-8.5-21.54-8.5h-329.5q-12.91 0-21.54 8.67-8.62 8.68-8.62 21.5 0 12.83 8.62 21.33 8.63 8.5 21.54 8.5ZM480-793.61q15.96 0 27.18-11.21 11.21-11.22 11.21-27.18 0-15.96-11.21-27.18-11.22-11.21-27.18-11.21-15.96 0-27.18 11.21-11.21 11.22-11.21 27.18 0 15.96 11.21 27.18 11.22 11.21 27.18 11.21ZM727.41-33.09q-77.5 0-132.5-55.5t-55-131.5q0-77.87 54.99-133.43 54.99-55.57 133.01-55.57 77 0 132.5 55.57 55.5 55.56 55.5 133.43 0 76-55.5 131.5t-133 55.5ZM706.7-196.87v87.78q0 9.83 7 16.03 7.01 6.19 16.36 6.19 9.34 0 15.71-6.79 6.36-6.8 6.36-16.43v-86.78h87.78q9.49 0 15.86-6.96 6.36-6.96 6.36-16.24 0-9.28-6.36-15.76-6.37-6.47-15.86-6.47h-87.78v-87.79q0-9.48-6.36-15.85-6.37-6.36-15.71-6.36-9.35 0-16.36 6.36-7 6.37-7 15.85v87.79h-87.79q-9.48 0-15.85 6.43-6.36 6.44-6.36 15.88 0 9.44 6.96 16.28 6.97 6.84 16.25 6.84h86.79Z"/></svg>