<svg xmlns="http://www.w3.org/2000/svg" height="24" viewBox="0 -960 960 960" width="24"><path d="M104-780q-10.95 0-18.97-8.04-8.03-8.03-8.03-19Q77-818 85.03-826q8.02-8 18.97-8h386q10.95 0 18.98 8.04 8.02 8.03 8.02 19 0 10.96-8.02 18.96-8.03 8-18.98 8H104Zm193.24 513q22.18 0 37.47-15.46T350-320v-47h47q22.08 0 37.54-15.53Q450-398.05 450-420.24q0-22.18-15.46-37.47T397-473h-47v-47q0-22.08-15.53-37.54Q318.95-573 296.76-573q-22.18 0-37.47 15.46T244-520v47h-47q-22.08 0-37.54 15.53Q144-441.95 144-419.76q0 22.18 15.46 37.47T197-367h47v47q0 22.08 15.53 37.54Q275.05-267 297.24-267ZM123-140q-36.72 0-61.36-24.64Q37-189.27 37-226v-388q0-36.72 24.64-61.36T123-700h348q36.72 0 61.36 24.64T557-614v388q0 36.73-24.64 61.36Q507.72-140 471-140H123Zm0-54h348q12 0 22-10t10-22v-388q0-12-10-22t-22-10H123q-12 0-22 10t-10 22v388q0 12 10 22t22 10Zm656-183q-7-7-8-15t3-17l46-44H701q-10 0-18-8.5t-8-18.5q0-10 8-18t18-8h120l-44-44q-4-8-3.5-15.5T781-580q9-9 20-9t20 9l72 70q13 12.82 13 29.91T893-450l-74 73q-9 9-20 9t-20-9Zm-482-43Z"/></svg>