<svg xmlns="http://www.w3.org/2000/svg" height="48" width="48"><path d="M26.75 44.8q-2.55 0-4.7-.5-2.15-.5-4-1.8-1-.55-1.075-1.575Q16.9 39.9 17.7 39.1q.45-.5 1.125-.6.675-.1 1.325.25 1.45.9 3.05 1.4 1.6.5 3.55.5 5.95 0 10.15-4.275t4.2-10.125q0-5.75-3.975-9.875T28.15 11.85l-1.45-.05 1.9 1.9q.2.65.125 1.3-.075.65-.575 1.2-.65.65-1.45.65-.8 0-1.45-.65l-5.2-5.25q-.3-.25-.45-.65-.15-.4-.15-.75 0-.4.15-.8t.45-.7l5.2-5.2q.6-.6 1.425-.6.825 0 1.475.6.55.6.575 1.35.025.75-.375 1.4L26.4 7.5h1.45q3.45.3 6.625 1.8t5.575 4.025q2.4 2.525 3.825 5.875 1.425 3.35 1.425 7.05 0 7.65-5.4 13.1-5.4 5.45-13.15 5.45ZM12.8 37.35q-.4 0-.775-.125t-.675-.475l-9.1-9.1q-.35-.25-.525-.65-.175-.4-.175-.8t.175-.8q.175-.4.525-.7l9.1-9.15q.3-.25.675-.425.375-.175.775-.175t.775.175q.375.175.725.425l9.1 9.15q.25.35.45.725t.2.775q0 .4-.2.8t-.45.65l-9.1 9.1q-.35.35-.725.475t-.775.125Zm0-4.4 6.55-6.55-6.55-6.6-6.55 6.6Zm0-6.55Z"/></svg>