<svg xmlns="http://www.w3.org/2000/svg" height="40" width="40"><path d="M19.958 20.125Zm-.375 6.583q.417-2.916 2.271-5.166 1.854-2.25 4.563-3.209-.584-2.083-2.355-3.5-1.77-1.416-4.062-1.416-2.792 0-4.729 1.958-1.938 1.958-1.938 4.708 0 2.667 1.813 4.563 1.812 1.896 4.437 2.062ZM6.25 30.417V9.75v8.667V17.708v12.709Zm.542 2.083q-1.084 0-1.854-.771-.771-.771-.771-1.854V10.25q0-1.083.771-1.854.77-.771 1.854-.771h5.5l3.041-3.458h9.334l3.041 3.458h5.5q1.084 0 1.854.771.771.771.771 1.854v9.208q-.5-.333-1-.604-.5-.271-1.083-.479V10.25q0-.208-.167-.354-.166-.146-.375-.146H6.792q-.209 0-.375.146-.167.146-.167.354v19.625q0 .208.167.375.166.167.375.167h12.875q.125.541.271 1.062.145.521.395 1.021Zm22.166 3.125-.208-1.708q-.875-.25-1.604-.667-.729-.417-1.271-1l-1.583.708-1.209-1.833L24.5 30q-.292-.917-.292-1.708 0-.792.292-1.709l-1.417-1.125 1.209-1.875 1.583.709q.542-.5 1.271-.938.729-.437 1.604-.687l.208-1.709h2.084l.25 1.709q.875.25 1.604.687.729.438 1.271.979l1.583-.75 1.208 1.875-1.416 1.125q.291.917.291 1.709 0 .791-.291 1.708l1.416 1.125-1.208 1.833-1.583-.708q-.542.583-1.271 1-.729.417-1.604.667l-.25 1.708ZM30 32.167q1.667 0 2.792-1.125 1.125-1.125 1.125-2.75 0-1.667-1.125-2.792-1.125-1.125-2.792-1.125-1.625 0-2.771 1.125t-1.146 2.792q0 1.625 1.146 2.75T30 32.167Z"/></svg>