<svg xmlns="http://www.w3.org/2000/svg" height="24" viewBox="0 -960 960 960" width="24"><path d="M348-388h264v-6q0-34-35-53t-97-19q-62 0-97 19t-35 53v6Zm132-144q25.48 0 42.74-17.26Q540-566.53 540-592q0-25.47-17.26-42.74Q505.48-652 480-652t-42.74 17.26Q420-617.47 420-592q0 25.47 17.26 42.74Q454.52-532 480-532ZM344-140v-88H192q-36.73 0-61.36-24.64Q106-277.27 106-314v-420q0-36.72 24.64-61.36Q155.27-820 192-820h576q36.72 0 61.36 24.64T854-734v420q0 36.73-24.64 61.36Q804.72-228 768-228H616v88H344Z"/></svg>