<svg xmlns="http://www.w3.org/2000/svg" height="48" viewBox="0 -960 960 960" width="48"><path d="M317.37-358.565h325.26v-20.196q0-38.717-46.217-64.076Q550.196-468.196 480-468.196t-116.413 25.359q-46.217 25.359-46.217 64.076v20.196Zm162.6-176.631q30.747 0 52.606-21.829t21.859-52.576q0-30.747-21.838-52.606-21.838-21.858-52.597-21.858t-52.597 21.858q-21.838 21.859-21.838 52.577 0 30.717 21.829 52.576 21.829 21.858 52.576 21.858ZM326.891-114.022v-80H142.152q-27.599 0-47.865-20.265-20.265-20.266-20.265-47.865v-515.696q0-27.697 20.265-48.033 20.266-20.337 47.865-20.337h675.696q27.697 0 48.033 20.337 20.337 20.336 20.337 48.033v515.696q0 27.599-20.337 47.865-20.336 20.265-48.033 20.265h-184.5v80H326.891Z"/></svg>