<svg xmlns="http://www.w3.org/2000/svg" height="48" viewBox="0 -960 960 960" width="48"><path d="M855-20 673-203q-51 7-98 28.5T482-118q-48-37-104.5-61T260-203q-68 0-128 25T18-112v-633q19-10 39-19.5T96-781l-66-65 48-48L905-68l-50 48Zm87-121L823-261q9 2 19 6t18 12v-539l82 34v607Zm-462-75q29-19 59-33.5t65-24.5L480-396v180Zm-380-33q38-18 78-27t82-9q39 0 74.5 8.5T398-249v-229L161-716q-15 5-31 11t-30 11v445Zm559-166L540-532v-154l260-265v411L659-415ZM480-592 266-807q57 2 111.5 16T480-746v154Zm-82 343v-229 229Z"/></svg>