<svg xmlns="http://www.w3.org/2000/svg" height="40" viewBox="0 -960 960 960" width="40"><path d="m793.36-140.49 24.92-24.92-74.23-74.23V-350.1h-35.38v124.92l84.69 84.69Zm-590.8.49q-25.7 0-44.13-18.43Q140-176.86 140-202.56v-554.88q0-25.7 18.43-44.13Q176.86-820 202.56-820h554.88q25.7 0 44.13 18.43Q820-783.14 820-757.44v282.64q-12.21-5.64-24.91-9.4-12.71-3.77-25.35-6.39v-266.85q0-4.61-3.84-8.46-3.85-3.84-8.46-3.84H202.56q-4.61 0-8.46 3.84-3.84 3.85-3.84 8.46v554.88q0 4.61 3.84 8.46 3.85 3.84 8.46 3.84h266.93q2.64 13.64 6.29 26.26 3.66 12.61 9.12 24H202.56Zm-12.3-93.64V-190.26v-579.48V-490.59-494v260.36ZM290-294.62h183.98q3.28-13.05 7.69-25.55t10.48-24.7H290v50.25Zm0-160.25h302.33q16.93-10.69 33.44-17.99 16.51-7.29 35.77-12.04v-20.23H290v50.26Zm0-160.26h380v-50.25H290v50.25ZM726.15-58.1q-72.16 0-123-51.23t-50.84-122.46q0-72.86 50.83-123.76 50.84-50.91 123.34-50.91 71.83 0 122.88 50.91 51.05 50.9 51.05 123.76 0 71.23-51.05 122.46Q798.31-58.1 726.15-58.1Z"/></svg>