<svg xmlns="http://www.w3.org/2000/svg" height="20" width="20"><path d="m16.146 16.812.542-.541-1.313-1.313V13.25h-.75v2.042ZM15 18.042q-1.229 0-2.073-.844-.844-.844-.844-2.073t.844-2.073q.844-.844 2.073-.844t2.073.844q.844.844.844 2.073t-.844 2.073q-.844.844-2.073.844ZM6.542 7.208h6.916v-.416H6.542Zm3.146 8.709H5.167q-.459 0-.771-.313-.313-.312-.313-.771V5.167q0-.459.313-.771.312-.313.771-.313h9.666q.459 0 .771.313.313.312.313.771v4.562q-.25.042-.49.052-.239.011-.427.011-.5 0-1.01.093-.511.094-.99.24v-.333H6.542v.416h6.041q-.791.459-1.395 1.115-.605.656-.98 1.469H6.542v.416h3.416q-.104.438-.177.896T9.729 15q.021.083.011.438-.011.354-.052.479Z"/></svg>