<svg xmlns="http://www.w3.org/2000/svg" height="20" viewBox="0 96 960 960" width="20"><path d="M456 454.501q-47.652 0-94.662 16.619-47.011 16.62-92.707 48.859l44.239 357.52h334.76l47.674-386.998H676q-31.5 0-61.478-5.783-29.979-5.783-71.979-17.783-22.5-6.434-43.619-9.434-21.12-3-42.924-3Zm-199.195-38.285q44.869-26.673 95.761-40.695 50.891-14.022 101.369-14.022 30.13 0 59.511 4.783 29.38 4.783 56.445 12.783 30.935 9 57.587 13.717 26.652 4.717 48.522 4.717h30.13l16.739-122.998H238.196l18.609 141.715ZM230.63 970.501l-98.326-789.002h695.392L729.37 970.501H230.63ZM456 877.499h191.63-334.76H456Z"/></svg>