<svg xmlns="http://www.w3.org/2000/svg" height="40" viewBox="0 -960 960 960" width="40"><path d="M776-178.461q0 31.302-22.246 53.548-22.247 22.246-53.548 22.246H259.794q-31.301 0-53.548-22.246Q184-147.159 184-178.461v-603.078q0-31.302 22.246-53.548 22.247-22.246 53.548-22.246h440.412q31.301 0 53.548 22.246Q776-812.841 776-781.539v603.078Zm-51.179 0v-603.078q0-9.231-7.693-16.923-7.692-7.692-16.922-7.692H259.794q-9.23 0-16.923 7.692-7.692 7.692-7.692 16.923v603.078q0 9.231 7.692 16.923 7.693 7.692 16.923 7.692h440.412q9.23 0 16.922-7.692 7.693-7.692 7.693-16.923Zm0-627.693H235.179h489.642Zm-38.821 319v-245.59q0-15.632-11.216-26.598t-26.348-10.966h-165.59q-15.782 0-27.006 10.966-11.225 10.966-11.225 26.598v245.59q0 16.282 11.225 27.257 11.224 10.974 27.006 10.974h165.59q15.132 0 26.348-10.974Q686-470.872 686-487.154Zm-51.179-12.948H495.795v-219.027h139.026v219.027Z"/></svg>