<svg xmlns="http://www.w3.org/2000/svg" height="24" viewBox="0 -960 960 960" width="24"><path d="M360-476.41q17.81 0 29.86-11.98 12.05-11.99 12.05-29.7v-120q0-17.81-12.05-29.86T360-680q-17.81 0-29.86 12.05t-12.05 29.86v120q0 17.71 12.05 29.7 12.05 11.98 29.86 11.98Zm85.5 234.5h69q19.15 0 32.33-13.18Q560-268.26 560-287.41v-34.5q0-33-23.5-56.5t-56.5-23.5q-33 0-56.5 23.5t-23.5 56.5v34.5q0 19.15 13.17 32.32 13.18 13.18 32.33 13.18ZM600-476.41q17.81 0 29.86-11.98 12.05-11.99 12.05-29.7v-120q0-17.81-12.05-29.86T600-680q-17.81 0-29.86 12.05t-12.05 29.86v120q0 17.71 12.05 29.7 12.05 11.98 29.86 11.98ZM480-71.87q-84.91 0-159.34-32.12-74.44-32.12-129.5-87.17-55.05-55.06-87.17-129.5Q71.87-395.09 71.87-480t32.12-159.34q32.12-74.44 87.17-129.5 55.06-55.05 129.5-87.17 74.43-32.12 159.34-32.12t159.34 32.12q74.44 32.12 129.5 87.17 55.05 55.06 87.17 129.5 32.12 74.43 32.12 159.34t-32.12 159.34q-32.12 74.44-87.17 129.5-55.06 55.05-129.5 87.17Q564.91-71.87 480-71.87Z"/></svg>