<svg xmlns="http://www.w3.org/2000/svg" height="48" width="48"><path d="M13.3 41.6v-7.05H10q-1.05 0-1.875-.825T7.3 31.85V10q0-1.1.825-1.9.825-.8 1.875-.8h8.8q1.1 0 1.9.8.8.8.8 1.9v2.35h-4.55q-.3 0-.475.2T16.3 13q0 .25.175.425t.475.175h4.55v1.45q0 .25.15 1.3h-4.7q-.3 0-.475.2T16.3 17q0 .25.175.425t.475.175h5.15q.6 1.25 1.625 2.05 1.025.8 2.325 1.2l5.4 1.5q2.15.55 3.45 2.3 1.3 1.75 1.3 3.95v3.25q0 1.05-.8 1.875t-1.9.825h-2.8v7.05h5.45q2.65 0 4.775-1.525Q43.05 38.55 43.5 36q.05-.25.25-.4.2-.15.45-.15.2 0 .325.15t.125.35q-.5 3.05-2.925 4.9Q39.3 42.7 36.15 42.7H5.85q-.25 0-.4-.15-.15-.15-.15-.4t.15-.4q.15-.15.4-.15Zm1.1 0h15.2v-7.05H14.4Z"/></svg>