<svg xmlns="http://www.w3.org/2000/svg" height="48" width="48"><path d="M5.5 44.85Q4.65 44.85 4.05 44.25Q3.45 43.65 3.45 42.8Q3.45 41.95 4.05 41.325Q4.65 40.7 5.5 40.7H11.45V35.65H9.35Q7.7 35.65 6.575 34.425Q5.45 33.2 5.45 31.5V9.55Q5.45 7.9 6.675 6.65Q7.9 5.4 9.6 5.4H20.45Q22.1 5.4 23.35 6.65Q24.6 7.9 24.6 9.55V15Q24.6 16.3 25.15 17.4Q25.7 18.5 27 18.8L32.55 20.25Q35.1 20.95 36.775 23.125Q38.45 25.3 38.45 28V31.5Q38.45 33.15 37.35 34.4Q36.25 35.65 34.65 35.65H32.6V40.7H36.4Q38.5 40.7 40.05 39.55Q41.6 38.4 42.1 36.6Q42.45 35.75 43.075 35.225Q43.7 34.7 44.45 34.7Q45.35 34.7 45.95 35.425Q46.55 36.15 46.35 37.05Q45.6 40.3 42.875 42.575Q40.15 44.85 36.45 44.85ZM15.55 17.25Q15.55 16.9 15.775 16.7Q16 16.5 16.35 16.5H20.45Q20.4 15.95 20.4 15.4Q20.4 14.85 20.4 14.25H16.35Q15.95 14.25 15.75 14.025Q15.55 13.8 15.55 13.45Q15.55 13.1 15.775 12.875Q16 12.65 16.35 12.65H20.45V9.55Q20.45 9.55 20.45 9.55Q20.45 9.55 20.45 9.55H9.6Q9.6 9.55 9.6 9.55Q9.6 9.55 9.6 9.55V31.5Q9.6 31.5 9.6 31.5Q9.6 31.5 9.6 31.5H34.3Q34.3 31.5 34.3 31.5Q34.3 31.5 34.3 31.5V28Q34.3 26.65 33.475 25.65Q32.65 24.65 31.4 24.3L25.8 22.8Q23.65 22.15 22.55 20.925Q21.45 19.7 20.95 18.05H16.35Q15.95 18.05 15.75 17.825Q15.55 17.6 15.55 17.25ZM15.6 40.7H28.45V35.65H15.6ZM9.6 31.5Q9.6 31.5 9.6 31.5Q9.6 31.5 9.6 31.5Q9.6 31.5 9.6 31.5Q9.6 31.5 9.6 31.5Q9.6 31.5 9.6 31.5Q9.6 31.5 9.6 31.5Q9.6 31.5 9.6 31.5Q9.6 31.5 9.6 31.5Q9.6 31.5 9.6 31.5Q9.6 31.5 9.6 31.5Q9.6 31.5 9.6 31.5Q9.6 31.5 9.6 31.5Q9.6 31.5 9.6 31.5Q9.6 31.5 9.6 31.5Q9.6 31.5 9.6 31.5Q9.6 31.5 9.6 31.5Z"/></svg>