<svg xmlns="http://www.w3.org/2000/svg" height="40" width="40"><path d="M9.917 19.5q3.916-.208 6.645-2.958 2.73-2.75 2.938-6.625H17q-.167 2.916-2.167 4.916-2 2-4.916 2.167Zm0-5.542q1.666-.125 2.854-1.25 1.187-1.125 1.312-2.791H9.917Zm.708 14.417h18.833l-5.875-7.833-4.958 6.416-3.458-4.458Zm-2.167 6.5q-1.375 0-2.354-.979-.979-.979-.979-2.354V8.458q0-1.375.979-2.354.979-.979 2.354-.979h23.084q1.375 0 2.354.979.979.979.979 2.354v23.084q0 1.375-.979 2.354-.979.979-2.354.979Zm0-2.792h23.084q.208 0 .375-.166.166-.167.166-.375V8.458q0-.208-.166-.375-.167-.166-.375-.166H8.458q-.208 0-.375.166-.166.167-.166.375v23.084q0 .208.166.375.167.166.375.166ZM7.917 7.917v24.166V7.917Z"/></svg>