<svg xmlns="http://www.w3.org/2000/svg" height="20" viewBox="0 -960 960 960" width="20"><path d="M361.8-530.48H220.74q-13.03-18.98-20.46-41.91-7.43-22.94-7.43-48.78 0-70.4 49.28-119.68t119.67-49.28q21.87 0 41.8 5.24 19.92 5.24 37.4 15.11v-53.59q0-16.04 11.46-27.4 11.47-11.36 27.39-11.36t27.42 11.52q11.49 11.53 11.49 27.48v52.61q17.54-10.55 37.45-15.08 19.9-4.53 41.75-4.53 70.49 0 119.84 49.19 49.35 49.19 49.35 119.77 0 25.66-7.41 48.79-7.41 23.12-20.48 41.9h-141.3q38.11 0 64.77-26.23 26.66-26.24 26.66-64.24 0-38.17-26.47-64.8-26.47-26.62-64.81-26.62-19.01 0-35.76 7.26-16.74 7.26-30.26 20.04l-24 25.5q-11.63 11.44-28.02 11.56-16.39.12-28.16-11.32l-24.24-25.74q-13.21-13.29-30.11-20.29-16.9-7.01-36.01-7.01-38.15 0-64.55 26.32-26.39 26.32-26.39 64.45 0 38.12 26.59 64.62 26.59 26.5 64.6 26.5ZM223.87-97.87q-32.42 0-55.21-22.79t-22.79-55.21v-63.7q0-35.72 21.14-56.86t56.86-21.14h28.67l25.31-135.15h-81.22q-16.04 0-27.4-11.46t-11.36-27.39q0-15.92 11.52-27.41 11.52-11.5 27.46-11.5h566.23q16.03 0 27.54 11.47 11.51 11.46 11.51 27.38 0 15.92-11.36 27.42-11.36 11.49-27.4 11.49h-80.46l23.55 135.15h29.67q35.72 0 56.86 21.14t21.14 56.86v63.7q0 32.42-22.79 55.21t-55.21 22.79H223.87Zm-.24-149.76-15.26 72 528 7.83 15.26-72-528-7.83Zm107.91-69.94h296.92l-25.54-135.15H358.08l-26.54 135.15ZM480-175.63Zm0-277.09Z"/></svg>