<svg xmlns="http://www.w3.org/2000/svg" height="48" width="48"><path d="M11.3 39.4q-1.05 0-1.875-.825T8.6 36.7V11.3q0-1.1.825-1.9.825-.8 1.875-.8H28q.6 0 1.1.2.5.2.95.6l8.55 8.55q.4.45.6.95.2.5.2 1.1v16.7q0 1.05-.8 1.875t-1.9.825Zm4.6-8.15h16.3q.2 0 .35-.15.15-.15.15-.45 0-.2-.15-.35-.15-.15-.35-.15H15.9q-.3 0-.45.15-.15.15-.15.4t.15.4q.15.15.45.15Zm0-6.75h16.3q.2 0 .35-.125.15-.125.15-.375 0-.3-.15-.45-.15-.15-.35-.15H15.9q-.3 0-.45.175-.15.175-.15.425t.15.375q.15.125.45.125Zm0-6.65h9.5q.2 0 .4-.15t.2-.45q0-.2-.2-.35-.2-.15-.4-.15h-9.5q-.3 0-.45.15-.15.15-.15.4t.15.4q.15.15.45.15Z"/></svg>