<svg xmlns="http://www.w3.org/2000/svg" height="20" viewBox="0 -960 960 960" width="20"><path d="M227.08-506.77v50.46h50.46v-50.46h-50.46Zm114 0v50.46h50.46v-50.46h-50.46Zm114 0v50.46h50.46v-50.46h-50.46Zm-228-120v50.46h50.46v-50.46h-50.46Zm114 0v50.46h50.46v-50.46h-50.46Zm114 0v50.46h50.46v-50.46h-50.46Zm114 0v50.46h50.46v-50.46h-50.46Zm114 0v50.46h50.46v-50.46h-50.46Zm25.73 478.62-20.58-20.58 77.96-78.35H586.15V-276h180.04l-77.96-78.73 20.58-20.19L822-261.73 708.81-148.15Zm-570.96-98.93V-716h684.92v256.38q-19.85-11.24-43.15-17.55-23.31-6.32-46.08-9.25v-20.35h-50.46v21.52q-16.23 1.37-32.66 5.88-16.42 4.52-30.88 9.41v-36.81h-50.46v50.46h24.42q-22.23 14.46-40.48 31.31-18.25 16.85-32.52 38.23H345.85v50.46h150.42q-6.95 17.59-10.38 36.23-3.43 18.64-3.43 38.35 0 3.27.06 7.11.06 3.85.52 7.54H137.85Z"/></svg>