<svg xmlns="http://www.w3.org/2000/svg" height="40" width="40"><path d="M9.917 26.542Q8.375 26.542 7.333 25.479Q6.292 24.417 6.292 22.833V4.958Q6.292 3.417 7.354 2.333Q8.417 1.25 10 1.25H16.583Q18.125 1.25 19.208 2.333Q20.292 3.417 20.292 4.958V7.083H15.25Q14.917 7.083 14.667 7.333Q14.417 7.583 14.417 7.917Q14.417 8.25 14.667 8.5Q14.917 8.75 15.25 8.75H20.292V9.292Q20.292 9.542 20.417 10.375H15.25Q14.917 10.375 14.667 10.604Q14.417 10.833 14.417 11.167Q14.417 11.5 14.667 11.75Q14.917 12 15.208 12H21.375Q21.958 12.75 22.812 13.271Q23.667 13.792 24.625 14.042L28.833 15.25Q31.083 15.833 32.458 17.688Q33.833 19.542 33.833 21.833V22.833Q33.833 24.375 32.792 25.458Q31.75 26.542 30.25 26.542ZM7.417 39.417Q5.25 39.417 3.75 37.917Q2.25 36.417 2.25 34.25Q2.25 32.125 3.75 30.625Q5.25 29.125 7.417 29.125Q9.542 29.125 11.042 30.625Q12.542 32.125 12.542 34.25Q12.542 36.417 11.042 37.917Q9.542 39.417 7.417 39.417ZM32.625 39.417Q30.5 39.417 28.979 37.917Q27.458 36.417 27.458 34.25Q27.458 32.125 28.979 30.625Q30.5 29.125 32.625 29.125Q34.75 29.125 36.25 30.625Q37.75 32.125 37.75 34.25Q37.75 36.417 36.25 37.917Q34.75 39.417 32.625 39.417ZM20 39.417Q17.875 39.417 16.375 37.917Q14.875 36.417 14.875 34.25Q14.875 32.125 16.375 30.625Q17.875 29.125 20 29.125Q22.167 29.125 23.646 30.625Q25.125 32.125 25.125 34.25Q25.125 36.417 23.646 37.917Q22.167 39.417 20 39.417Z"/></svg>