<svg xmlns="http://www.w3.org/2000/svg" height="20" width="20"><path d="M10 18.167q-2.792-.709-4.625-3.229-1.833-2.521-1.833-5.667v-5L10 1.854l6.458 2.417v5q0 3.146-1.833 5.667-1.833 2.52-4.625 3.229Zm0-8.125Zm0 6.604q2.167-.708 3.583-2.771Q15 11.812 15 9.271v-4l-5-1.854-5 1.854v4q0 2.541 1.406 4.604T10 16.646Zm0-2.688q1.625 0 2.781-1.156 1.157-1.156 1.157-2.802 0-1.625-1.157-2.771Q11.625 6.083 10 6.083q-1.625 0-2.781 1.146Q6.062 8.375 6.062 10q0 1.646 1.157 2.802Q8.375 13.958 10 13.958Zm1.375-1.833-1.813-1.854V7.125h.73v2.854l1.625 1.604Z"/></svg>