<svg xmlns="http://www.w3.org/2000/svg" height="40" viewBox="0 -960 960 960" width="40"><path d="M482.29-599.33h306.38q-27.18-71.93-85.68-125.96-58.49-54.04-134.32-74.04l-100 176.16q-4.84 8.39-.09 16.11 4.75 7.73 13.71 7.73ZM349.5-542.5q4.5 8.5 13.67 8.5 9.16 0 14.33-8.5l153.83-264.86q-11.66-1.32-25.33-1.98-13.67-.66-26-.66-69.51 0-128.09 25.25t-104.58 69.42L349.5-542.5ZM159.84-396h201.22q9.11 0 13.86-7.72t-.09-16.11L223.33-688q-36 43.33-54.66 96.5Q150-538.33 150-480q0 21.09 2.17 42.5 2.17 21.42 7.67 41.5ZM392-161.33l101.48-175.15q4.85-8.19.35-16.19-4.5-8-14.12-8H172q27.18 71.93 85.51 125.8Q315.83-181 392-161.33ZM480.15-150q69.43 0 128.31-25.25 58.87-25.25 104.21-69.42L611.5-417.83q-4.83-8.17-14.05-8.17-9.21 0-14.07 8.21L428.67-152.63q12.33 1.32 25.53 1.97 13.2.66 25.95.66Zm257.18-122Q770-313.33 790-367.67 810-422 810-479.7q0-22.01-2.17-43.11-2.16-21.09-7.14-41.86H599.63q-8.96 0-14.13 7.67t0 15.83L737.33-272ZM480-480Zm-.24 393.33q-80.59 0-152.33-30.95-71.74-30.96-125.3-84.51-53.55-53.56-84.51-125.3-30.95-71.74-30.95-152.49 0-81.75 30.96-153.08 30.96-71.34 84.53-124.96 53.58-53.63 125.29-84.5 71.72-30.87 152.47-30.87 81.75 0 153.08 30.95 71.34 30.96 124.96 84.52 53.63 53.56 84.5 124.88 30.87 71.33 30.87 152.98 0 80.83-30.95 152.55-30.95 71.72-84.49 125.26-53.55 53.54-124.86 84.53-71.3 30.99-153.27 30.99Z"/></svg>