<svg xmlns="http://www.w3.org/2000/svg" height="48" width="48"><path d="M9.55 35.7 6.6 24.5l3.65-1.25V11.2H20.5V5.15h7.05v6.05H37.8v12l3.85 1.35L38.5 35.7q-1.75-.7-3.075-1.875Q34.1 32.65 32.15 30.45q-1.85 2.2-3.7 3.775-1.85 1.575-4.4 1.575-2.55 0-4.425-1.575T15.95 30.45q-1.95 2.2-3.3 3.375Q11.3 35 9.55 35.7ZM5 43.85V42.5h2.85q2.15 0 4.225-.675 2.075-.675 3.875-1.875 1.8 1.25 3.875 1.85 2.075.6 4.225.6 2.1 0 4.175-.6 2.075-.6 3.875-1.85 1.8 1.2 3.85 1.875t4.2.675H43v1.35h-2.85q-2.15 0-4.125-.5t-3.925-1.5q-1.9 1-3.975 1.5t-4.075.5q-2.05 0-4.1-.5t-4-1.5q-1.9 1-3.925 1.5t-4.175.5Zm6.6-21.05L24 18.75l12.45 4.05V12.55H11.6Z"/></svg>