<svg xmlns="http://www.w3.org/2000/svg" height="40" viewBox="0 -960 960 960" width="40"><path d="m189.92-243.79-62.97-230.7 75.31-25V-741.6h202.23v-119.63h151.02v119.43h202.23v242.65l78.45 26.11-66.11 229.25q-35.12-12.77-63.81-35.34-28.7-22.56-66.68-65.07-35.07 42.43-72.33 72.19-37.27 29.75-87.26 29.75t-87.26-29.75q-37.26-29.76-72.33-72.19-37.21 42.51-66.29 65.07-29.08 22.57-64.2 35.34ZM101.97-82.82v-32.44h59.01q42.36 0 83.22-13.12 40.86-13.13 76.41-37.77 35.54 24.89 76.61 36.89t82.8 12q41.73 0 82.8-12t76.62-36.89q35.5 24.89 76.42 37.89 40.93 13 83.01 13h59.16v32.44h-59.01q-42.03 0-81.87-10.08-39.84-10.07-77.71-30.07-37.88 20-78.71 30.07Q519.9-82.82 480-82.82q-39.9 0-80.73-10.08-40.83-10.07-78.71-30.07-37.87 20-77.81 30.07-39.94 10.08-81.56 10.08h-59.22Zm132.72-427.97L480-590.18l245.31 79.54v-198.72H234.69v198.57Z"/></svg>