<svg xmlns="http://www.w3.org/2000/svg" height="24" width="24"><path d="M10.925 14.9 11.25 15.225Q11.575 15.55 12.013 15.55Q12.45 15.55 12.75 15.225L13.05 14.9H13.85Q14.3 14.9 14.6 14.6Q14.9 14.3 14.9 13.85V13.05L15.2 12.75Q15.5 12.45 15.5 12Q15.5 11.55 15.2 11.25L14.9 10.95V10.125Q14.9 9.675 14.6 9.375Q14.3 9.075 13.85 9.075H13.075L12.775 8.775Q12.475 8.475 12.025 8.475Q11.575 8.475 11.275 8.775L10.95 9.1H10.15Q9.7 9.1 9.4 9.4Q9.1 9.7 9.1 10.15V10.95L8.8 11.25Q8.5 11.55 8.5 12Q8.5 12.45 8.8 12.75L9.1 13.05V13.85Q9.1 14.3 9.4 14.6Q9.7 14.9 10.15 14.9ZM12 14.4V9.6Q13 9.6 13.7 10.3Q14.4 11 14.4 12Q14.4 13 13.7 13.7Q13 14.4 12 14.4ZM4.8 19.3Q3.875 19.3 3.263 18.688Q2.65 18.075 2.65 17.15V6.85Q2.65 5.925 3.263 5.312Q3.875 4.7 4.8 4.7H19.2Q20.125 4.7 20.738 5.312Q21.35 5.925 21.35 6.85V17.15Q21.35 18.075 20.738 18.688Q20.125 19.3 19.2 19.3ZM4.8 17.95Q4.45 17.95 4.225 17.725Q4 17.5 4 17.15V6.85Q4 6.5 4.225 6.275Q4.45 6.05 4.8 6.05Q4.45 6.05 4.225 6.275Q4 6.5 4 6.85V17.15Q4 17.5 4.225 17.725Q4.45 17.95 4.8 17.95ZM4.8 17.95H19.2Q19.55 17.95 19.775 17.725Q20 17.5 20 17.15V6.85Q20 6.5 19.775 6.275Q19.55 6.05 19.2 6.05H4.8Q4.45 6.05 4.225 6.275Q4 6.5 4 6.85V17.15Q4 17.5 4.225 17.725Q4.45 17.95 4.8 17.95Z"/></svg>