<svg xmlns="http://www.w3.org/2000/svg" height="48" width="48"><path d="m21.35 31 1.2 1.25q.55.6 1.425.625.875.025 1.475-.575l1.3-1.3h2.5q.9 0 1.5-.6t.6-1.5v-2.6l1.05-1.1q.55-.55.525-1.4-.025-.85-.575-1.45l-1.05-1v-2.6q0-.85-.575-1.45t-1.475-.6H26.7l-1.25-1.25q-.6-.6-1.45-.6t-1.5.6l-1.2 1.25h-2.4q-.95 0-1.525.6t-.575 1.5v2.5l-1 1.1q-.65.6-.65 1.45t.65 1.4l1 1.1v2.55q0 .9.575 1.5t1.475.6Zm2.6-1.25v-11.7q2.4 0 4.125 1.725T29.8 23.9q0 2.4-1.725 4.125T23.95 29.75ZM7.25 40.9q-1.65 0-2.9-1.25T3.1 36.7V11.3q0-1.7 1.25-2.95Q5.6 7.1 7.25 7.1h33.5q1.7 0 2.95 1.25 1.25 1.25 1.25 2.95v25.4q0 1.7-1.25 2.95-1.25 1.25-2.95 1.25Zm0-4.2V11.3v25.4Zm0 0h33.5V11.3H7.25v25.4Z"/></svg>