<svg xmlns="http://www.w3.org/2000/svg" height="48" width="48"><path d="m21.85 29.8 1 .95q.45.5 1.15.5t1.2-.5l1-.95h2.05q.7 0 1.2-.5t.5-1.2v-2.15l.85-.85q.45-.45.45-1.175 0-.725-.45-1.225l-.85-.8v-2.15q0-.75-.5-1.225-.5-.475-1.2-.475h-2.1l-.95-.95q-.5-.5-1.175-.5t-1.175.5l-.95 1h-2.1q-.7 0-1.2.475t-.5 1.225v2.1l-.8.8q-.5.5-.5 1.225 0 .725.5 1.175l.8.85v2.15q0 .7.5 1.2t1.2.5ZM24 29V18.95q2.05 0 3.525 1.475T29 23.95q0 2.05-1.475 3.55T24 29ZM8.75 38.6q-1.35 0-2.375-1.025T5.35 35.2V12.8q0-1.35 1.025-2.375T8.75 9.4h30.5q1.4 0 2.4 1.025t1 2.375v22.4q0 1.35-1 2.375t-2.4 1.025Zm0-2.2q-.5 0-.85-.35t-.35-.85V12.8q0-.5.35-.85t.85-.35q-.5 0-.85.35t-.35.85v22.4q0 .5.35.85t.85.35Zm0 0h30.5q.5 0 .85-.35t.35-.85V12.8q0-.5-.35-.85t-.85-.35H8.75q-.5 0-.85.35t-.35.85v22.4q0 .5.35.85t.85.35Z"/></svg>