<svg xmlns="http://www.w3.org/2000/svg" height="24" width="24"><path d="M3.075 12.3q-.15 0-.237-.088-.088-.087-.088-.237 0-.125.088-.213.087-.087.237-.087H7.05q.1 0 .2.1t.1.225q0 .125-.1.212-.1.088-.2.088Zm5.15-3.625L7 7.425q-.1-.075-.1-.2T7.025 7q.1-.125.213-.125.112 0 .237.125l1.25 1.225q.075.1.075.225t-.125.225q-.1.125-.212.125-.113 0-.238-.125ZM12 7.35q-.125 0-.212-.088-.088-.087-.088-.212V3.025q0-.125.088-.213.087-.087.237-.087.125 0 .213.087.087.088.087.213V7.05q0 .125-.1.212-.1.088-.225.088Zm3.325 1.325q-.125-.125-.125-.237 0-.113.125-.238l1.25-1.225q.075-.1.2-.088Q16.9 6.9 17 7q.125.125.125.237 0 .113-.125.213L15.775 8.7q-.1.1-.225.087-.125-.012-.225-.112Zm1.65 3.625q-.125 0-.225-.088-.1-.087-.1-.237 0-.125.1-.213.1-.087.225-.087h3.975q.125 0 .225.1t.1.225q0 .125-.1.212-.1.088-.225.088ZM12 13.625q-.675 0-1.15-.475-.475-.475-.475-1.15 0-.7.475-1.163.475-.462 1.15-.462.7 0 1.163.462.462.463.462 1.163 0 .675-.462 1.15-.463.475-1.163.475Zm4.525 3.35L15.3 15.75q-.1-.075-.087-.2.012-.125.112-.25.125-.1.237-.1.113 0 .238.1l1.225 1.225q.075.1.075.225t-.125.225q-.1.125-.212.125-.113 0-.238-.125Zm-9.5 0q-.125-.125-.125-.237 0-.113.125-.238l1.225-1.225q.075-.075.2-.075t.25.125q.1.1.1.212 0 .113-.1.238L7.475 17q-.1.1-.225.087-.125-.012-.225-.112ZM12 21.25q-.125 0-.212-.087-.088-.088-.088-.238V16.95q0-.1.088-.2.087-.1.237-.1.125 0 .213.1.087.1.087.2v3.975q0 .15-.1.238-.1.087-.225.087Z"/></svg>