<svg xmlns="http://www.w3.org/2000/svg" version="1.1" width="3300" height="2000"><g id="Notes"><style>
    text {
      font-family: monospace;
      text-anchor: middle;
    }
    text.emphasis {
      font-weight:bold;
    }
    text.lanchor {
      text-anchor: start;
    }
  </style><rect height="2200" id="artboard" fill="white" width="3300" x="0" y="0"/><line id="" style="fill:none;stroke:black;stroke-width:0.5;" x1="263" x2="3036" y1="292" y2="292"/><text class="lanchor emphasis" transform="matrix(1 0 0 1 263 322)">Weight/Scale Variations</text><text transform="matrix(1 0 0 1 559.711 322)">Ultralight</text><text transform="matrix(1 0 0 1 856.422 322)">Thin</text><text transform="matrix(1 0 0 1 1153.13 322)">Light</text><text transform="matrix(1 0 0 1 1449.84 322)">Regular</text><text transform="matrix(1 0 0 1 1746.56 322)">Medium</text><text transform="matrix(1 0 0 1 2043.27 322)">Semibold</text><text transform="matrix(1 0 0 1 2339.98 322)">Bold</text><text transform="matrix(1 0 0 1 2636.69 322)">Heavy</text><text transform="matrix(1 0 0 1 2933.4 322)">Black</text><text id="template-version" style="text-anchor: end;" transform="matrix(1 0 0 1 3036 1933)">Template v.1.0</text><text class="lanchor" transform="matrix(1 0 0 1 263 726)">Small</text><text class="lanchor" transform="matrix(1 0 0 1 263 1156)">Medium</text><text class="lanchor" transform="matrix(1 0 0 1 263 1586)">Large</text></g><g id="Guides"><g id="H-reference" style="fill:#27AAE1;stroke:none;" transform="matrix(1 0 0 1 339 696)"><path d="M 54.9316 0 L 57.666 0 L 30.5664 -70.459 L 28.0762 -70.459 L 0.976562 0 L 3.66211 0 L 12.9395 -24.4629 L 45.7031 -24.4629 Z M 29.1992 -67.0898 L 29.4434 -67.0898 L 44.8242 -26.709 L 13.8184 -26.709 Z"/></g><line id="Baseline-S" style="fill:none;stroke:#27AAE1;opacity:1;stroke-width:0.577;" x1="263" x2="3036" y1="696" y2="696"/><line id="Capline-S" style="fill:none;stroke:#27AAE1;opacity:1;stroke-width:0.577;" x1="263" x2="3036" y1="625.541" y2="625.541"/><g id="H-reference" style="fill:#27AAE1;stroke:none;" transform="matrix(1 0 0 1 339 1126)"><path d="M 54.9316 0 L 57.666 0 L 30.5664 -70.459 L 28.0762 -70.459 L 0.976562 0 L 3.66211 0 L 12.9395 -24.4629 L 45.7031 -24.4629 Z M 29.1992 -67.0898 L 29.4434 -67.0898 L 44.8242 -26.709 L 13.8184 -26.709 Z"/></g><line id="Baseline-M" style="fill:none;stroke:#27AAE1;opacity:1;stroke-width:0.577;" x1="263" x2="3036" y1="1126" y2="1126"/><line id="Capline-M" style="fill:none;stroke:#27AAE1;opacity:1;stroke-width:0.577;" x1="263" x2="3036" y1="1055.54" y2="1055.54"/><g id="H-reference" style="fill:#27AAE1;stroke:none;" transform="matrix(1 0 0 1 339 1556)"><path d="M 54.9316 0 L 57.666 0 L 30.5664 -70.459 L 28.0762 -70.459 L 0.976562 0 L 3.66211 0 L 12.9395 -24.4629 L 45.7031 -24.4629 Z M 29.1992 -67.0898 L 29.4434 -67.0898 L 44.8242 -26.709 L 13.8184 -26.709 Z"/></g><line id="Baseline-L" style="fill:none;stroke:#27AAE1;opacity:1;stroke-width:0.577;" x1="263" x2="3036" y1="1556" y2="1556"/><line id="Capline-L" style="fill:none;stroke:#27AAE1;opacity:1;stroke-width:0.577;" x1="263" x2="3036" y1="1485.54" y2="1485.54"/><rect height="119.336" id="left-margin" style="fill:darkred;stroke:none;opacity:0.4;" width="12.4512" x="1394.06" y="1030.79"/><rect height="119.336" id="right-margin" style="fill:darkgreen;stroke:none;opacity:0.4;" width="12.4512" x="1502.5112" y="1030.79"/><rect x="1406.5112" y="1045" width="96" height="96" fill="none" stroke="blue" stroke-dasharray="5"/><rect x="1394.06" y="1030.79" width="120.9024" height="119.336" fill="none" stroke="blue"/></g><g id="Symbols"><g id="Bold-L" transform="matrix(1 0 0 1 2266 1556)"><path d="M84.495 37.81625 H63.69375 Q63.69375 37.81625 64.8225 35.55875000000003 Q65.95125 33.30125000000001 67.321875 30.640625 Q68.69250000000001 27.980000000000018 69.82124999999999 25.722499999999997 Q70.95 23.465000000000003 70.95 23.465000000000003 H79.6575 Q95.1375 24.432500000000005 108.60187499999999 16.20875000000001 Q122.06625000000001 7.984999999999999 130.12875 -4.269999999999982 Q116.58375 -6.204999999999998 103.92562500000001 -11.687499999999986 Q91.2675 -17.169999999999987 81.75375000000001 -26.844999999999985 Q71.9175 -36.35875 66.515625 -48.855624999999996 Q61.113749999999996 -61.35249999999999 59.17875000000001 -74.73624999999998 Q48.0525 -67.1575 40.393125000000005 -56.35375 Q32.73375 -45.55 32.08875 -32.16624999999999 Q32.08875 -31.037499999999994 32.08875 -30.069999999999993 Q32.08875 -29.102499999999992 32.25 -28.13499999999999 Q32.25 -28.13499999999999 29.911875000000002 -27.409374999999997 Q27.573750000000004 -26.683750000000003 24.751875000000002 -25.958124999999995 Q21.93 -25.232499999999987 19.6725 -24.58749999999999 Q17.415000000000003 -23.942499999999995 17.415000000000003 -23.942499999999995 Q17.415000000000003 -25.554999999999993 17.334375 -26.925624999999997 Q17.25375 -28.29625 17.25375 -29.424999999999997 Q17.25375 -54.257499999999986 33.136875 -73.043125 Q49.019999999999996 -91.82875 73.69125000000001 -96.34375 Q71.75625000000001 -80.0575 76.11000000000001 -64.41624999999999 Q80.46375 -48.77499999999999 92.07375 -37.16499999999999 Q103.52250000000001 -25.554999999999993 119.244375 -21.281875 Q134.96625 -17.008749999999992 151.2525 -18.13749999999999 Q146.89875 6.372500000000002 128.113125 22.094375000000014 Q109.3275 37.81625 84.495 37.81625 Z M38.7 22.98124999999999 H67.72500000000001 Q72.07875000000001 22.98124999999999 75.1425 20.078750000000014 Q78.20625 17.17625000000001 78.20625 12.822500000000005 Q78.20625 8.46875 75.223125 5.405000000000015 Q72.24 2.3412500000000023 67.88625 2.3412500000000023 H59.98500000000001 L57.082499999999996 -4.914999999999992 Q54.825 -10.236249999999998 49.906875 -13.54187499999999 Q44.988749999999996 -16.847499999999997 39.345 -17.008749999999992 Q30.798750000000002 -17.008749999999992 24.751875000000002 -10.961874999999992 Q18.705 -4.914999999999992 18.705 3.147500000000008 Q18.705 11.532500000000013 24.509999999999998 17.256875000000008 Q30.315 22.98124999999999 38.7 22.98124999999999 Z M38.7 37.81625 Q24.34875 37.81625 14.190000000000001 27.6575 Q4.03125 17.49875 4.03125 3.147500000000008 Q4.03125 -11.364999999999995 14.190000000000001 -21.60437499999999 Q24.34875 -31.843749999999986 38.7 -31.843749999999986 Q48.6975 -31.843749999999986 57.082499999999996 -26.522499999999994 Q65.4675 -21.201249999999987 69.9825 -12.332499999999982 Q79.49625 -11.364999999999995 86.18812500000001 -4.189374999999998 Q92.88000000000001 2.9862500000000125 92.88000000000001 12.822500000000005 Q92.88000000000001 23.142500000000013 85.4625 30.479375000000005 Q78.045 37.81625 67.72500000000001 37.81625 H38.7 Z"/></g><g id="Semibold-L" transform="matrix(1 0 0 1 1970.27 1556)"><path d="M84.495 36.848750000000024 H64.1775 Q64.1775 36.848750000000024 65.548125 34.91375000000002 Q66.91875 32.97874999999999 68.53125 30.801875000000024 Q70.14375 28.625 71.514375 26.690000000000026 Q72.885 24.755000000000024 72.885 24.755000000000024 H81.5925 Q97.23375 25.400000000000006 110.859375 16.611875000000026 Q124.48500000000001 7.823750000000018 132.38625 -5.398749999999993 Q118.35750000000002 -7.01124999999999 105.45750000000001 -12.413124999999994 Q92.5575 -17.814999999999998 82.56 -27.812499999999986 Q72.5625 -37.4875 67.24125000000001 -50.38749999999999 Q61.92 -63.287499999999994 60.146249999999995 -76.99374999999999 Q47.730000000000004 -69.41499999999999 39.425625 -57.48249999999999 Q31.121250000000003 -45.55 30.6375 -31.037499999999994 Q30.6375 -29.908749999999998 30.6375 -28.860624999999985 Q30.6375 -27.812499999999986 30.798750000000002 -26.844999999999985 Q30.798750000000002 -26.844999999999985 28.86375 -26.19999999999999 Q26.92875 -25.554999999999993 24.67125 -24.909999999999997 Q22.41375 -24.265 20.478749999999998 -23.61999999999999 Q18.54375 -22.974999999999994 18.54375 -22.974999999999994 Q18.3825 -24.909999999999997 18.301875 -26.441874999999982 Q18.22125 -27.973749999999995 18.22125 -29.424999999999997 Q18.22125 -53.61249999999999 33.620625000000004 -71.995 Q49.019999999999996 -90.3775 73.04625 -94.8925 Q70.78875 -78.76749999999998 75.30375000000001 -63.36812499999999 Q79.81875000000001 -47.968749999999986 91.2675 -36.35875 Q102.71625 -24.748749999999987 118.27687499999999 -20.314375 Q133.8375 -15.879999999999995 149.80125 -17.814999999999998 Q145.44750000000002 6.049999999999997 127.065 21.449375000000003 Q108.68250000000002 36.848750000000024 84.495 36.848750000000024 Z M38.7 24.432500000000005 H67.72500000000001 Q72.5625 24.432500000000005 75.94875 21.126875000000013 Q79.33500000000001 17.82125000000002 79.33500000000001 12.983750000000015 Q79.33500000000001 8.146250000000023 76.029375 4.760000000000005 Q72.72375000000001 1.3737500000000153 67.88625 1.3737500000000153 H60.791250000000005 L58.050000000000004 -5.0762499999999875 Q55.63125 -10.881249999999994 50.471250000000005 -14.348124999999982 Q45.31125 -17.814999999999998 39.18375 -17.976249999999993 Q30.15375 -17.976249999999993 23.865000000000002 -11.687499999999986 Q17.57625 -5.398749999999993 17.57625 3.3087500000000176 Q17.57625 12.177500000000023 23.70375 18.305000000000007 Q29.83125 24.432500000000005 38.7 24.432500000000005 Z M38.7 36.848750000000024 Q24.8325 36.848750000000024 14.996250000000002 27.01249999999999 Q5.16 17.17625000000001 5.16 3.3087500000000176 Q5.16 -10.719999999999985 14.996250000000002 -20.55624999999999 Q24.8325 -30.3925 38.7 -30.3925 Q48.53625 -30.3925 56.760000000000005 -25.15187499999999 Q64.98375 -19.911249999999995 69.17625 -11.04249999999999 Q78.52875 -10.236249999999998 85.14 -3.3831249999999926 Q91.75125 3.470000000000013 91.75125 12.983750000000015 Q91.75125 22.82000000000002 84.65625 29.834374999999994 Q77.56125 36.848750000000024 67.72500000000001 36.848750000000024 H38.7 Z"/></g><g id="Medium-L" transform="matrix(1 0 0 1 1674.31 1556)"><path d="M84.495 36.04250000000002 H64.66125000000001 Q64.66125000000001 36.04250000000002 66.1125 34.43000000000001 Q67.56375 32.817500000000024 69.418125 30.88250000000002 Q71.27250000000001 28.94749999999999 72.804375 27.25437500000001 Q74.33625 25.56125 74.33625 25.56125 H83.04375 Q98.685 26.045000000000016 112.471875 16.77312500000002 Q126.25874999999999 7.501250000000013 134.16 -6.043750000000003 Q119.80875 -7.49499999999999 106.58624999999999 -12.896874999999994 Q93.36375 -18.29875 83.205 -28.457499999999982 Q73.04625 -38.455 67.72500000000001 -51.59687499999999 Q62.40375000000001 -64.73875 61.113749999999996 -78.76749999999998 Q47.4075 -71.0275 38.619375 -58.288749999999986 Q29.83125 -45.55 29.669999999999998 -30.069999999999993 Q29.669999999999998 -29.102499999999992 29.669999999999998 -27.973749999999995 Q29.669999999999998 -26.844999999999985 29.83125 -25.877499999999998 Q29.83125 -25.877499999999998 28.138125 -25.313125 Q26.444999999999997 -24.748749999999987 24.509999999999998 -24.10374999999999 Q22.575 -23.458749999999995 21.043125000000003 -22.894374999999997 Q19.51125 -22.33 19.51125 -22.33 Q19.188750000000002 -24.426249999999982 19.108125 -26.11937499999999 Q19.027500000000003 -27.812499999999986 19.027500000000003 -29.424999999999997 Q19.027500000000003 -53.12875 34.104375 -71.18875 Q49.18125 -89.24875 72.5625 -93.76374999999999 Q69.9825 -77.96124999999999 74.65875 -62.64249999999999 Q79.33500000000001 -47.32374999999999 90.78375 -35.71374999999999 Q102.2325 -24.265 117.55125000000001 -19.669375000000002 Q132.87 -15.07374999999999 148.83375 -17.492499999999993 Q144.48 5.888750000000002 126.33937499999999 20.96562499999999 Q108.19874999999999 36.04250000000002 84.495 36.04250000000002 Z M38.7 25.400000000000006 H67.72500000000001 Q72.885 25.400000000000006 76.513125 21.85250000000002 Q80.14125000000001 18.305000000000007 80.14125000000001 13.14500000000001 Q80.14125000000001 7.984999999999999 76.674375 4.2762500000000045 Q73.2075 0.5675000000000097 68.0475 0.5675000000000097 H61.43625 L59.017500000000005 -5.398749999999993 Q56.27625 -11.52624999999999 50.874375 -15.154374999999987 Q45.4725 -18.782499999999985 38.861250000000005 -18.782499999999985 Q29.83125 -18.782499999999985 23.220000000000002 -12.251874999999998 Q16.60875 -5.721249999999998 16.60875 3.3087500000000176 Q16.60875 12.66125000000001 23.058750000000003 19.030625000000015 Q29.508750000000003 25.400000000000006 38.7 25.400000000000006 Z M38.7 36.04250000000002 Q25.155 36.04250000000002 15.560625000000002 26.448125000000005 Q5.9662500000000005 16.85374999999999 5.9662500000000005 3.3087500000000176 Q5.9662500000000005 -10.236249999999998 15.560625000000002 -19.830624999999998 Q25.155 -29.424999999999997 38.7 -29.424999999999997 Q48.53625 -29.424999999999997 56.518125 -24.18437499999999 Q64.5 -18.943749999999994 68.53125 -10.074999999999989 Q77.72250000000001 -9.591249999999988 84.253125 -2.899374999999992 Q90.78375 3.792500000000018 90.78375 13.14500000000001 Q90.78375 22.658750000000026 84.01125 29.350625000000008 Q77.23875 36.04250000000002 67.72500000000001 36.04250000000002 H38.7 Z"/></g><g id="Regular-L" transform="matrix(1 0 0 1 1378.56 1556)"><path d="M84.495 35.39750000000001 H64.98375 Q64.98375 35.39750000000001 66.59625 33.94625000000002 Q68.20875 32.495000000000005 70.224375 30.801875000000024 Q72.24 29.108750000000015 73.85249999999999 27.6575 Q75.465 26.20625000000001 75.465 26.20625000000001 H84.17250000000001 Q99.97500000000001 26.528750000000002 113.761875 16.93437499999999 Q127.54875 7.340000000000018 135.45000000000002 -6.688749999999985 Q120.9375 -7.978749999999977 107.47312500000001 -13.380624999999995 Q94.00874999999999 -18.782499999999985 83.85000000000001 -28.941249999999997 Q73.53 -39.099999999999994 68.20875 -52.48375 Q62.8875 -65.86749999999999 61.75875 -80.21875 Q47.4075 -72.3175 38.135625 -59.014374999999994 Q28.86375 -45.71124999999999 28.86375 -29.424999999999997 Q28.86375 -28.457499999999982 28.86375 -27.32875 Q28.86375 -26.19999999999999 29.025000000000002 -25.232499999999987 Q29.025000000000002 -25.232499999999987 27.573750000000004 -24.668125000000003 Q26.1225 -24.10374999999999 24.509999999999998 -23.539374999999993 Q22.8975 -22.974999999999994 21.526875 -22.491249999999994 Q20.15625 -22.007499999999993 20.15625 -22.007499999999993 Q19.833750000000002 -23.942499999999995 19.753125 -25.796874999999986 Q19.6725 -27.65124999999999 19.6725 -29.424999999999997 Q19.6725 -52.80624999999999 34.5075 -70.70499999999998 Q49.3425 -88.60374999999999 72.40125 -93.11874999999999 Q69.49875 -77.31625 74.255625 -62.07812499999999 Q79.0125 -46.84 90.3 -35.39125 Q101.74875 -23.942499999999995 116.986875 -19.185624999999987 Q132.225 -14.428749999999994 148.18875000000003 -17.331249999999997 Q143.835 5.7275000000000205 125.855625 20.5625 Q107.87625000000001 35.39750000000001 84.495 35.39750000000001 Z M38.7 26.20625000000001 H67.72500000000001 Q73.2075 26.20625000000001 77.0775 22.416875000000005 Q80.9475 18.627500000000026 80.9475 13.14500000000001 Q80.9475 7.662499999999994 77.158125 3.792500000000018 Q73.36875 -0.07750000000000057 68.0475 -0.07750000000000057 H61.92 L59.6625 -5.559999999999988 Q56.92124999999999 -11.848749999999995 51.196875 -15.638124999999988 Q45.4725 -19.427499999999995 38.7 -19.427499999999995 Q29.508750000000003 -19.427499999999995 22.73625 -12.735624999999985 Q15.963750000000001 -6.043750000000003 15.963750000000001 3.470000000000013 Q15.963750000000001 12.983750000000015 22.575 19.595 Q29.186250000000005 26.20625000000001 38.7 26.20625000000001 Z M38.7 35.39750000000001 Q25.477500000000003 35.39750000000001 16.125 26.045000000000016 Q6.772500000000001 16.692500000000024 6.772500000000001 3.470000000000013 Q6.772500000000001 -9.913749999999993 16.125 -19.26625 Q25.477500000000003 -28.61874999999999 38.7 -28.61874999999999 Q48.375 -28.61874999999999 56.27625 -23.378124999999997 Q64.1775 -18.13749999999999 68.20875 -9.268749999999997 Q77.23875 -8.946249999999992 83.68875 -2.4962500000000034 Q90.13875 3.9537499999999994 90.13875 13.14500000000001 Q90.13875 22.336250000000007 83.608125 28.86687500000002 Q77.0775 35.39750000000001 67.72500000000001 35.39750000000001 H38.7 Z"/></g><g id="Light-L" transform="matrix(1 0 0 1 1082.77 1556)"><path d="M84.495 32.33375000000001 H65.78999999999999 Q65.78999999999999 32.33375000000001 66.91875 31.205000000000013 Q68.0475 30.076250000000016 69.49875 28.786250000000024 Q70.95 27.496250000000003 72.159375 26.448125000000005 Q73.36875 25.400000000000006 73.36875 25.400000000000006 H83.85000000000001 Q99.33 25.56125 112.71375000000002 16.692500000000024 Q126.09750000000001 7.823750000000018 133.8375 -5.882499999999993 Q119.48625 -7.172499999999985 106.34437500000001 -12.654999999999987 Q93.2025 -18.13749999999999 83.04375 -28.29625 Q72.885 -38.29374999999999 67.4025 -51.43562499999999 Q61.92 -64.57749999999999 60.791250000000005 -78.60624999999999 Q47.085 -71.18875 38.458125 -58.1275 Q29.83125 -45.06625 29.83125 -29.424999999999997 Q29.83125 -27.812499999999986 29.911875000000002 -26.11937499999999 Q29.992500000000003 -24.426249999999982 30.315 -22.813749999999985 Q30.315 -22.813749999999985 29.186250000000005 -22.410624999999982 Q28.057499999999997 -22.007499999999993 26.848125 -21.60437499999999 Q25.63875 -21.201249999999987 24.590625 -20.878749999999997 Q23.5425 -20.55624999999999 23.5425 -20.55624999999999 Q23.058750000000003 -22.813749999999985 22.8975 -24.990624999999994 Q22.73625 -27.16749999999999 22.73625 -29.424999999999997 Q22.73625 -50.54874999999999 35.555625 -66.99625 Q48.375 -83.44375 68.85375 -88.76499999999999 Q67.08 -73.285 72.07875000000001 -58.69187499999999 Q77.0775 -44.098749999999995 88.0425 -33.13374999999999 Q99.16875 -22.007499999999993 113.761875 -17.008749999999992 Q128.355 -12.009999999999991 143.835 -13.783749999999998 Q138.675 6.695000000000007 122.14687500000001 19.514375 Q105.61875 32.33375000000001 84.495 32.33375000000001 Z M38.7 25.23875000000001 H67.72500000000001 Q72.885 25.23875000000001 76.4325 21.691249999999997 Q79.98 18.14375000000001 79.98 13.14500000000001 Q79.98 8.146250000000023 76.513125 4.518125000000012 Q73.04625 0.8900000000000148 68.0475 0.8900000000000148 H61.275 L58.695 -5.0762499999999875 Q56.114999999999995 -11.20375 50.6325 -14.831874999999997 Q45.15 -18.459999999999994 38.7 -18.459999999999994 Q29.83125 -18.459999999999994 23.38125 -12.009999999999991 Q16.931250000000002 -5.559999999999988 16.931250000000002 3.470000000000013 Q16.931250000000002 12.5 23.300625 18.86937499999999 Q29.669999999999998 25.23875000000001 38.7 25.23875000000001 Z M38.7 32.33375000000001 Q26.767500000000002 32.172500000000014 18.301875 23.787499999999994 Q9.83625 15.402500000000003 9.83625 3.470000000000013 Q9.83625 -8.623749999999987 18.301875 -17.08937499999999 Q26.767500000000002 -25.554999999999993 38.7 -25.554999999999993 Q47.4075 -25.554999999999993 54.583125 -20.798124999999985 Q61.75875 -16.04124999999999 65.30625 -7.978749999999977 L66.1125 -6.204999999999998 H68.0475 Q75.78750000000001 -5.882499999999993 81.43125 -0.31937499999997954 Q87.075 5.243750000000006 87.075 13.14500000000001 Q87.075 21.20750000000001 81.43125 26.770625000000024 Q75.78750000000001 32.33375000000001 67.72500000000001 32.33375000000001 H38.7 Z"/></g><g id="Thin-L" transform="matrix(1 0 0 1 787.282 1556)"><path d="M84.495 29.108750000000015 H66.59625 Q66.59625 29.108750000000015 67.321875 28.383125000000007 Q68.0475 27.6575 68.85375 26.690000000000026 Q69.66000000000001 25.722499999999997 70.385625 25.077500000000015 Q71.11125 24.432500000000005 71.11125 24.432500000000005 H83.68875 Q98.84625 24.59375 111.82687499999999 16.450625000000002 Q124.80750000000002 8.307500000000005 132.38625 -5.0762499999999875 Q118.19624999999999 -6.3662499999999795 105.29625 -12.009999999999991 Q92.39625 -17.653749999999988 82.39875 -27.65124999999999 Q72.40125 -37.64874999999999 66.7575 -50.468125 Q61.113749999999996 -63.287499999999994 60.146249999999995 -77.155 Q46.7625 -69.89874999999999 38.780625 -57.240624999999994 Q30.798750000000002 -44.582499999999996 30.798750000000002 -29.424999999999997 Q30.798750000000002 -27.16749999999999 30.96 -24.829374999999985 Q31.121250000000003 -22.491249999999994 31.44375 -20.394999999999982 Q31.44375 -20.394999999999982 30.718125 -20.07249999999999 Q29.992500000000003 -19.749999999999986 29.186250000000005 -19.58874999999999 Q28.380000000000003 -19.427499999999995 27.654374999999998 -19.26625 Q26.92875 -19.10499999999999 26.92875 -19.10499999999999 Q26.444999999999997 -21.523749999999993 26.203125 -24.18437499999999 Q25.961250000000003 -26.844999999999985 25.961250000000003 -29.424999999999997 Q25.961250000000003 -48.129999999999995 36.684375 -63.206875 Q47.4075 -78.28375 65.30625 -84.41125 Q64.5 -69.41499999999999 69.82124999999999 -55.46687499999999 Q75.1425 -41.51875 85.78500000000001 -30.715000000000003 Q96.58875 -20.07249999999999 110.536875 -14.751249999999985 Q124.48500000000001 -9.429999999999993 139.48125000000002 -10.074999999999989 Q133.515 7.662499999999994 118.35750000000002 18.385625000000005 Q103.2 29.108750000000015 84.495 29.108750000000015 Z M38.7 24.27125000000001 H67.72500000000001 Q72.40125 24.27125000000001 75.70687500000001 21.046250000000015 Q79.0125 17.82125000000002 79.0125 13.14500000000001 Q79.0125 8.46875 75.86812499999999 5.163125000000008 Q72.72375000000001 1.8575000000000017 68.0475 1.8575000000000017 H60.63 L57.88875 -4.753749999999982 Q55.308749999999996 -10.558750000000003 50.14875000000001 -14.025624999999991 Q44.988749999999996 -17.492499999999993 38.7 -17.492499999999993 Q30.15375 -17.492499999999993 24.02625 -11.364999999999995 Q17.89875 -5.237499999999997 17.89875 3.470000000000013 Q17.89875 12.177500000000023 23.945625 18.22437500000001 Q29.992500000000003 24.27125000000001 38.7 24.27125000000001 Z M38.7 29.108750000000015 Q28.057499999999997 29.108750000000015 20.559375 21.610625 Q13.06125 14.112499999999997 13.06125 3.470000000000013 Q13.06125 -7.333749999999995 20.559375 -14.831874999999997 Q28.057499999999997 -22.33 38.7 -22.33 Q46.440000000000005 -22.33 52.809375 -18.05687499999999 Q59.17875000000001 -13.783749999999998 62.40375000000001 -6.688749999999985 L64.01625 -2.9799999999999898 H68.0475 Q74.4975 -2.9799999999999898 79.17375 1.7768750000000182 Q83.85000000000001 6.533750000000012 83.85000000000001 13.14500000000001 Q83.85000000000001 19.917500000000018 79.17375 24.513125000000002 Q74.4975 29.108750000000015 67.72500000000001 29.108750000000015 H38.7 Z"/></g><g id="Ultralight-L" transform="matrix(1 0 0 1 491.205 1556)"><path d="M84.495 27.173750000000013 H67.24125000000001 Q67.24125000000001 27.173750000000013 67.64437500000001 26.690000000000026 Q68.0475 26.20625000000001 68.53125 25.480625000000003 Q69.015 24.755000000000024 69.49875 24.27125000000001 Q69.9825 23.787499999999994 69.9825 23.787499999999994 H83.68875 Q98.52375 24.110000000000014 111.2625 16.289375000000007 Q124.00125000000001 8.46875 131.41875000000002 -4.592499999999987 Q117.39 -5.882499999999993 104.65125000000002 -11.606874999999988 Q91.91250000000001 -17.331249999999997 82.07625 -27.32875 Q72.07875000000001 -37.16499999999999 66.354375 -49.82312499999999 Q60.63 -62.48124999999999 59.6625 -76.34875 Q46.60125 -69.25375 39.0225 -56.756874999999994 Q31.44375 -44.25999999999999 31.44375 -29.424999999999997 Q31.44375 -26.844999999999985 31.685624999999998 -24.18437499999999 Q31.927500000000002 -21.523749999999993 32.25 -18.943749999999994 Q32.25 -18.943749999999994 31.685624999999998 -18.701874999999987 Q31.121250000000003 -18.459999999999994 30.6375 -18.379374999999982 Q30.15375 -18.29875 29.589375000000004 -18.29875 Q29.025000000000002 -18.29875 29.025000000000002 -18.29875 Q28.380000000000003 -20.878749999999997 28.138125 -23.700625000000002 Q27.896250000000002 -26.522499999999994 27.896250000000002 -29.424999999999997 Q27.896250000000002 -46.84 37.41 -61.11062499999999 Q46.923750000000005 -75.38125 63.21000000000001 -81.83125 Q63.048750000000005 -66.99625 68.53125 -53.531875 Q74.01375 -40.067499999999995 84.495 -29.424999999999997 Q94.97625000000001 -18.943749999999994 108.52125 -13.461249999999993 Q122.06625000000001 -7.978749999999977 136.90125 -7.978749999999977 Q130.45125000000002 8.146250000000023 116.18062499999999 17.659999999999997 Q101.91000000000001 27.173750000000013 84.495 27.173750000000013 Z M38.7 23.62625 H67.72500000000001 Q72.24 23.62625 75.384375 20.5625 Q78.52875 17.49875 78.52875 13.14500000000001 Q78.52875 8.63000000000001 75.545625 5.485625000000013 Q72.5625 2.3412500000000023 68.0475 2.3412500000000023 H60.3075 L57.405 -4.592499999999987 Q54.825 -10.236249999999998 49.745625000000004 -13.622499999999988 Q44.66625 -17.008749999999992 38.7 -17.008749999999992 Q30.315 -17.008749999999992 24.429375 -11.04249999999999 Q18.54375 -5.0762499999999875 18.54375 3.470000000000013 Q18.54375 11.855000000000018 24.429375 17.740624999999994 Q30.315 23.62625 38.7 23.62625 Z M38.7 27.173750000000013 Q28.86375 27.01249999999999 21.93 20.15937500000001 Q14.996250000000002 13.306250000000006 14.996250000000002 3.470000000000013 Q14.996250000000002 -6.527500000000003 21.849375000000002 -13.54187499999999 Q28.7025 -20.55624999999999 38.7 -20.55624999999999 Q45.956250000000004 -20.55624999999999 51.841875 -16.52499999999999 Q57.7275 -12.493749999999991 60.791250000000005 -6.043750000000003 L62.8875 -1.2062499999999972 H68.0475 Q73.69125000000001 -1.2062499999999972 77.88374999999999 2.9862500000000125 Q82.07625 7.178750000000008 82.07625 13.14500000000001 Q82.07625 19.111250000000013 77.88374999999999 23.142500000000013 Q73.69125000000001 27.173750000000013 67.72500000000001 27.173750000000013 H38.7 Z"/></g><g id="Bold-M" transform="matrix(1 0 0 1 2281.8 1126)"><path d="M65.5 21.89500000000001 H49.75 Q49.75 21.89500000000001 51.25 19.580000000000013 Q52.75 17.27000000000001 54.565 14.52000000000001 Q56.375 11.77000000000001 57.94 9.460000000000008 Q59.5 7.14500000000001 59.5 7.14500000000001 H62.625 Q72.75 7.52000000000001 81.5 3.1450000000000102 Q90.25 -1.2299999999999898 95.625 -8.60499999999999 Q85.75 -10.35499999999999 76.94 -14.794999999999987 Q68.125 -19.22999999999999 61.0 -26.35499999999999 Q53.875 -33.47999999999999 49.435 -42.22999999999999 Q45.0 -50.97999999999999 43.25 -60.72999999999999 Q36.625 -55.72999999999999 32.685 -48.72999999999999 Q28.75 -41.72999999999999 28.125 -33.47999999999999 Q28.125 -33.10499999999999 28.125 -32.47999999999999 Q28.125 -31.85499999999999 28.125 -31.47999999999999 Q28.125 -31.47999999999999 25.75 -30.72999999999999 Q23.375 -29.97999999999999 20.5 -29.10499999999999 Q17.625 -28.22999999999999 15.309999999999999 -27.544999999999987 Q13.0 -26.85499999999999 13.0 -26.85499999999999 Q12.875 -27.97999999999999 12.875 -28.919999999999987 Q12.875 -29.85499999999999 12.875 -30.72999999999999 Q12.875 -50.22999999999999 25.375 -64.91999999999999 Q37.875 -79.60499999999999 57.125 -83.22999999999999 Q56.125 -70.35499999999999 59.44 -58.10499999999999 Q62.75 -45.85499999999999 71.75 -36.85499999999999 Q80.625 -27.97999999999999 92.875 -24.85499999999999 Q105.125 -21.72999999999999 117.75 -21.85499999999999 Q114.375 -2.7299999999999898 99.75 9.580000000000013 Q85.125 21.89500000000001 65.5 21.89500000000001 Z M30.0 6.77000000000001 H52.5 Q54.5 6.77000000000001 56.0 5.329999999999998 Q57.5 3.8950000000000102 57.5 1.8950000000000102 Q57.5 -0.10499999999998977 56.065 -1.6049999999999898 Q54.625 -3.1049999999999898 52.625 -3.1049999999999898 H44.5 L41.5 -10.60499999999999 Q40.125 -13.97999999999999 37.125 -15.914999999999992 Q34.125 -17.85499999999999 30.625 -18.10499999999999 Q25.0 -18.10499999999999 21.314999999999998 -14.419999999999987 Q17.625 -10.72999999999999 17.625 -5.60499999999999 Q17.625 -0.35499999999998977 21.25 3.210000000000008 Q24.875 6.77000000000001 30.0 6.77000000000001 Z M30.0 21.89500000000001 Q18.625 21.77000000000001 10.56 13.77000000000001 Q2.5 5.77000000000001 2.5 -5.60499999999999 Q2.5 -17.10499999999999 10.56 -25.169999999999987 Q18.625 -33.22999999999999 30.0 -33.22999999999999 Q37.875 -33.22999999999999 44.44 -29.10499999999999 Q51.0 -24.97999999999999 54.625 -18.10499999999999 Q62.25 -17.10499999999999 67.44 -11.47999999999999 Q72.625 -5.85499999999999 72.625 1.8950000000000102 Q72.625 10.14500000000001 66.69 16.02000000000001 Q60.75 21.89500000000001 52.5 21.89500000000001 H30.0 Z"/></g><g id="Semibold-M" transform="matrix(1 0 0 1 1985.97 1126)"><path d="M65.5 20.89500000000001 H50.25 Q50.25 20.89500000000001 52.0 18.89500000000001 Q53.75 16.89500000000001 55.875 14.580000000000013 Q58.0 12.27000000000001 59.75 10.335000000000008 Q61.5 8.39500000000001 61.5 8.39500000000001 H64.625 Q74.875 8.39500000000001 83.75 3.460000000000008 Q92.625 -1.4799999999999898 98.0 -9.72999999999999 Q87.75 -11.10499999999999 78.565 -15.539999999999992 Q69.375 -19.97999999999999 61.875 -27.35499999999999 Q54.625 -34.72999999999999 50.19 -43.85499999999999 Q45.75 -52.97999999999999 44.375 -63.22999999999999 Q36.375 -57.97999999999999 31.69 -49.85499999999999 Q27.0 -41.72999999999999 26.625 -32.22999999999999 Q26.625 -31.85499999999999 26.625 -31.22999999999999 Q26.625 -30.60499999999999 26.625 -30.22999999999999 Q26.625 -30.22999999999999 24.689999999999998 -29.544999999999987 Q22.75 -28.85499999999999 20.375 -28.039999999999992 Q18.0 -27.22999999999999 16.065 -26.60499999999999 Q14.125 -25.97999999999999 14.125 -25.97999999999999 Q14.0 -27.10499999999999 13.94 -28.35499999999999 Q13.875 -29.60499999999999 13.875 -30.72999999999999 Q13.875 -49.60499999999999 25.875 -63.85499999999999 Q37.875 -78.10499999999999 56.5 -81.72999999999999 Q55.125 -69.10499999999999 58.565 -57.044999999999995 Q62.0 -44.97999999999999 70.875 -36.10499999999999 Q79.75 -27.22999999999999 91.815 -23.85499999999999 Q103.875 -20.47999999999999 116.375 -21.47999999999999 Q113.0 -2.9799999999999898 98.69 8.955000000000013 Q84.375 20.89500000000001 65.5 20.89500000000001 Z M30.0 8.27000000000001 H52.5 Q55.125 8.27000000000001 56.875 6.4550000000000125 Q58.625 4.64500000000001 58.625 2.0200000000000102 Q58.625 -0.47999999999998977 56.875 -2.2949999999999875 Q55.125 -4.10499999999999 52.625 -4.10499999999999 H45.375 L42.625 -10.97999999999999 Q41.0 -14.60499999999999 37.69 -16.789999999999992 Q34.375 -18.97999999999999 30.375 -19.10499999999999 Q24.375 -19.10499999999999 20.375 -15.10499999999999 Q16.375 -11.10499999999999 16.375 -5.47999999999999 Q16.375 0.27000000000001023 20.310000000000002 4.27000000000001 Q24.25 8.27000000000001 30.0 8.27000000000001 Z M30.0 20.89500000000001 Q19.125 20.77000000000001 11.375 13.085000000000008 Q3.625 5.39500000000001 3.625 -5.47999999999999 Q3.625 -16.35499999999999 11.375 -24.039999999999992 Q19.125 -31.72999999999999 30.0 -31.72999999999999 Q37.625 -31.72999999999999 44.0 -27.669999999999987 Q50.375 -23.60499999999999 53.75 -16.72999999999999 Q61.125 -15.97999999999999 66.25 -10.664999999999992 Q71.375 -5.35499999999999 71.375 2.0200000000000102 Q71.375 9.77000000000001 65.815 15.335000000000008 Q60.25 20.89500000000001 52.5 20.89500000000001 H30.0 Z"/></g><g id="Medium-M" transform="matrix(1 0 0 1 1689.91 1126)"><path d="M65.5 20.02000000000001 H50.75 Q50.75 20.02000000000001 52.625 18.330000000000013 Q54.5 16.64500000000001 56.815 14.64500000000001 Q59.125 12.64500000000001 61.065 10.954999999999998 Q63.0 9.27000000000001 63.0 9.27000000000001 H66.125 Q76.5 9.14500000000001 85.5 3.7700000000000102 Q94.5 -1.6049999999999898 99.75 -10.47999999999999 Q89.25 -11.72999999999999 79.75 -16.10499999999999 Q70.25 -20.47999999999999 62.625 -28.10499999999999 Q55.125 -35.60499999999999 50.685 -45.04499999999999 Q46.25 -54.47999999999999 45.125 -64.97999999999999 Q36.125 -59.60499999999999 30.875 -50.72999999999999 Q25.625 -41.85499999999999 25.5 -31.35499999999999 Q25.5 -30.97999999999999 25.5 -30.289999999999992 Q25.5 -29.60499999999999 25.5 -29.22999999999999 Q25.5 -29.22999999999999 23.875 -28.60499999999999 Q22.25 -27.97999999999999 20.25 -27.22999999999999 Q18.25 -26.47999999999999 16.625 -25.85499999999999 Q15.0 -25.22999999999999 15.0 -25.22999999999999 Q14.75 -26.60499999999999 14.75 -28.039999999999992 Q14.75 -29.47999999999999 14.75 -30.72999999999999 Q14.75 -49.10499999999999 26.375 -63.10499999999999 Q38.0 -77.10499999999999 56.125 -80.60499999999999 Q54.375 -68.22999999999999 57.94 -56.29499999999999 Q61.5 -44.35499999999999 70.375 -35.47999999999999 Q79.25 -26.72999999999999 91.125 -23.169999999999987 Q103.0 -19.60499999999999 115.375 -21.22999999999999 Q111.875 -3.2299999999999898 97.875 8.39500000000001 Q83.875 20.02000000000001 65.5 20.02000000000001 Z M30.0 9.27000000000001 H52.5 Q55.5 9.27000000000001 57.565 7.204999999999998 Q59.625 5.14500000000001 59.625 2.1450000000000102 Q59.625 -0.7299999999999898 57.625 -2.8549999999999898 Q55.625 -4.97999999999999 52.75 -4.97999999999999 H46.0 L43.375 -11.22999999999999 Q41.75 -15.22999999999999 38.125 -17.544999999999987 Q34.5 -19.85499999999999 30.125 -19.97999999999999 Q24.0 -19.97999999999999 19.69 -15.72999999999999 Q15.375 -11.47999999999999 15.375 -5.35499999999999 Q15.375 0.7700000000000102 19.625 5.02000000000001 Q23.875 9.27000000000001 30.0 9.27000000000001 Z M30.0 20.02000000000001 Q19.5 19.89500000000001 12.065 12.52000000000001 Q4.625 5.14500000000001 4.625 -5.35499999999999 Q4.625 -15.85499999999999 12.065 -23.294999999999987 Q19.5 -30.72999999999999 30.0 -30.72999999999999 Q37.5 -30.72999999999999 43.75 -26.60499999999999 Q50.0 -22.47999999999999 53.125 -15.60499999999999 Q60.375 -15.22999999999999 65.375 -10.10499999999999 Q70.375 -4.97999999999999 70.375 2.1450000000000102 Q70.375 9.52000000000001 65.125 14.77000000000001 Q59.875 20.02000000000001 52.5 20.02000000000001 H30.0 Z"/></g><g id="Regular-M" transform="matrix(1 0 0 1 1394.06 1126)"><path d="M65.5 19.39500000000001 H51.125 Q51.125 19.39500000000001 53.125 17.960000000000022 Q55.125 16.52000000000001 57.56 14.710000000000008 Q60.0 12.89500000000001 62.065 11.455000000000013 Q64.125 10.02000000000001 64.125 10.02000000000001 H67.25 Q77.75 9.64500000000001 86.875 3.8950000000000102 Q96.0 -1.8549999999999898 101.125 -11.10499999999999 Q90.25 -12.10499999999999 80.565 -16.539999999999992 Q70.875 -20.97999999999999 63.25 -28.60499999999999 Q55.625 -36.22999999999999 51.19 -45.91499999999999 Q46.75 -55.60499999999999 45.875 -66.35499999999999 Q36.0 -60.97999999999999 30.375 -51.47999999999999 Q24.75 -41.97999999999999 24.75 -30.72999999999999 Q24.75 -30.35499999999999 24.75 -29.664999999999992 Q24.75 -28.97999999999999 24.75 -28.47999999999999 Q24.75 -28.47999999999999 23.31 -27.85499999999999 Q21.875 -27.22999999999999 20.185 -26.60499999999999 Q18.5 -25.97999999999999 17.125 -25.419999999999987 Q15.75 -24.85499999999999 15.75 -24.85499999999999 Q15.5 -26.22999999999999 15.440000000000001 -27.794999999999987 Q15.375 -29.35499999999999 15.375 -30.72999999999999 Q15.375 -48.72999999999999 26.75 -62.54499999999999 Q38.125 -76.35499999999999 55.875 -79.85499999999999 Q53.75 -67.47999999999999 57.44 -55.72999999999999 Q61.125 -43.97999999999999 70.0 -35.10499999999999 Q78.75 -26.35499999999999 90.565 -22.669999999999987 Q102.375 -18.97999999999999 114.625 -21.10499999999999 Q111.25 -3.3549999999999898 97.44 8.02000000000001 Q83.625 19.39500000000001 65.5 19.39500000000001 Z M30.0 10.02000000000001 H52.5 Q55.75 10.02000000000001 58.065 7.77000000000001 Q60.375 5.52000000000001 60.375 2.2700000000000102 Q60.375 -0.9799999999999898 58.125 -3.289999999999978 Q55.875 -5.60499999999999 52.75 -5.60499999999999 H46.5 L44.125 -11.35499999999999 Q42.375 -15.60499999999999 38.5 -18.10499999999999 Q34.625 -20.60499999999999 30.0 -20.60499999999999 Q23.625 -20.60499999999999 19.19 -16.169999999999987 Q14.75 -11.72999999999999 14.75 -5.22999999999999 Q14.75 1.1450000000000102 19.19 5.585000000000008 Q23.625 10.02000000000001 30.0 10.02000000000001 Z M30.0 19.39500000000001 Q19.875 19.27000000000001 12.625 12.14500000000001 Q5.375 5.02000000000001 5.375 -5.22999999999999 Q5.375 -15.47999999999999 12.565 -22.72999999999999 Q19.75 -29.97999999999999 30.0 -29.97999999999999 Q37.5 -29.97999999999999 43.625 -25.919999999999987 Q49.75 -21.85499999999999 52.75 -14.97999999999999 Q59.875 -14.72999999999999 64.815 -9.72999999999999 Q69.75 -4.72999999999999 69.75 2.2700000000000102 Q69.75 9.27000000000001 64.69 14.335000000000008 Q59.625 19.39500000000001 52.5 19.39500000000001 H30.0 Z"/></g><g id="Light-M" transform="matrix(1 0 0 1 1098.18 1126)"><path d="M65.5 17.02000000000001 H51.375 Q51.375 17.02000000000001 52.75 15.89500000000001 Q54.125 14.77000000000001 55.815 13.460000000000008 Q57.5 12.14500000000001 58.94 11.085000000000022 Q60.375 10.02000000000001 60.375 10.02000000000001 H66.375 Q77.125 9.89500000000001 86.44 4.14500000000001 Q95.75 -1.6049999999999898 101.0 -11.10499999999999 Q90.25 -12.10499999999999 80.565 -16.539999999999992 Q70.875 -20.97999999999999 63.125 -28.60499999999999 Q55.625 -36.22999999999999 51.125 -45.91499999999999 Q46.625 -55.60499999999999 45.75 -66.22999999999999 Q36.0 -60.85499999999999 30.375 -51.35499999999999 Q24.75 -41.85499999999999 24.75 -30.72999999999999 Q24.75 -29.72999999999999 24.815 -28.47999999999999 Q24.875 -27.22999999999999 25.125 -26.22999999999999 Q25.125 -26.22999999999999 24.060000000000002 -25.794999999999987 Q23.0 -25.35499999999999 21.69 -24.919999999999987 Q20.375 -24.47999999999999 19.375 -24.10499999999999 Q18.375 -23.72999999999999 18.375 -23.72999999999999 Q18.0 -25.35499999999999 17.875 -27.164999999999992 Q17.75 -28.97999999999999 17.75 -30.72999999999999 Q17.75 -46.97999999999999 27.564999999999998 -59.66999999999999 Q37.375 -72.35499999999999 53.125 -76.47999999999999 Q51.875 -64.47999999999999 55.75 -53.22999999999999 Q59.625 -41.97999999999999 68.25 -33.35499999999999 Q76.75 -24.85499999999999 88.0 -20.97999999999999 Q99.25 -17.10499999999999 111.25 -18.35499999999999 Q107.25 -2.6049999999999898 94.5 7.204999999999998 Q81.75 17.02000000000001 65.5 17.02000000000001 Z M30.0 10.02000000000001 H52.5 Q55.75 10.02000000000001 58.0 7.77000000000001 Q60.25 5.52000000000001 60.25 2.2700000000000102 Q60.25 -0.9799999999999898 58.065 -3.2299999999999898 Q55.875 -5.47999999999999 52.75 -5.47999999999999 H46.375 L44.0 -11.35499999999999 Q42.25 -15.60499999999999 38.44 -18.039999999999992 Q34.625 -20.47999999999999 30.0 -20.47999999999999 Q23.625 -20.47999999999999 19.19 -16.039999999999992 Q14.75 -11.60499999999999 14.75 -5.22999999999999 Q14.75 1.1450000000000102 19.19 5.585000000000008 Q23.625 10.02000000000001 30.0 10.02000000000001 Z M30.0 17.02000000000001 Q20.75 16.77000000000001 14.25 10.329999999999998 Q7.75 3.8950000000000102 7.75 -5.22999999999999 Q7.75 -14.47999999999999 14.25 -20.97999999999999 Q20.75 -27.47999999999999 30.0 -27.47999999999999 Q36.75 -27.47999999999999 42.25 -23.794999999999987 Q47.75 -20.10499999999999 50.5 -13.97999999999999 L51.125 -12.47999999999999 H52.625 Q58.75 -12.35499999999999 63.0 -8.039999999999992 Q67.25 -3.7299999999999898 67.25 2.2700000000000102 Q67.25 8.39500000000001 62.94 12.705000000000013 Q58.625 17.02000000000001 52.5 17.02000000000001 H30.0 Z"/></g><g id="Thin-M" transform="matrix(1 0 0 1 802.565 1126)"><path d="M65.5 14.52000000000001 H51.625 Q51.625 14.52000000000001 52.375 13.830000000000013 Q53.125 13.14500000000001 54.059999999999995 12.27000000000001 Q55.0 11.39500000000001 55.815 10.710000000000008 Q56.625 10.02000000000001 56.625 10.02000000000001 H65.5 Q76.5 10.02000000000001 86.0 4.335000000000008 Q95.5 -1.3549999999999898 100.875 -10.97999999999999 Q90.125 -11.97999999999999 80.44 -16.47999999999999 Q70.75 -20.97999999999999 63.125 -28.60499999999999 Q55.625 -36.22999999999999 51.065 -45.91499999999999 Q46.5 -55.60499999999999 45.75 -66.22999999999999 Q36.0 -60.85499999999999 30.44 -51.35499999999999 Q24.875 -41.85499999999999 24.875 -30.72999999999999 Q24.875 -29.10499999999999 25.0 -27.294999999999987 Q25.125 -25.47999999999999 25.375 -23.97999999999999 Q25.375 -23.97999999999999 24.689999999999998 -23.72999999999999 Q24.0 -23.47999999999999 23.189999999999998 -23.294999999999987 Q22.375 -23.10499999999999 21.69 -22.85499999999999 Q21.0 -22.60499999999999 21.0 -22.60499999999999 Q20.625 -24.47999999999999 20.44 -26.60499999999999 Q20.25 -28.72999999999999 20.25 -30.72999999999999 Q20.25 -45.22999999999999 28.439999999999998 -56.78999999999999 Q36.625 -68.35499999999999 50.375 -73.22999999999999 Q49.875 -61.47999999999999 54.059999999999995 -50.72999999999999 Q58.25 -39.97999999999999 66.5 -31.60499999999999 Q74.75 -23.35499999999999 85.5 -19.22999999999999 Q96.25 -15.10499999999999 108.0 -15.60499999999999 Q103.25 -1.9799999999999898 91.625 6.27000000000001 Q80.0 14.52000000000001 65.5 14.52000000000001 Z M30.0 9.89500000000001 H52.5 Q55.75 9.89500000000001 58.0 7.7050000000000125 Q60.25 5.52000000000001 60.25 2.2700000000000102 Q60.25 -0.9799999999999898 58.065 -3.2299999999999898 Q55.875 -5.47999999999999 52.75 -5.47999999999999 H46.375 L44.0 -11.35499999999999 Q42.125 -15.47999999999999 38.375 -17.97999999999999 Q34.625 -20.47999999999999 30.0 -20.47999999999999 Q23.625 -20.47999999999999 19.25 -16.039999999999992 Q14.875 -11.60499999999999 14.875 -5.22999999999999 Q14.875 1.1450000000000102 19.25 5.52000000000001 Q23.625 9.89500000000001 30.0 9.89500000000001 Z M30.0 14.52000000000001 Q21.75 14.39500000000001 16.0 8.64500000000001 Q10.25 2.8950000000000102 10.25 -5.22999999999999 Q10.25 -13.47999999999999 16.0 -19.289999999999992 Q21.75 -25.10499999999999 30.0 -25.10499999999999 Q36.0 -25.10499999999999 40.940000000000005 -21.789999999999992 Q45.875 -18.47999999999999 48.25 -12.97999999999999 L49.5 -10.10499999999999 H52.625 Q57.625 -9.97999999999999 61.25 -6.414999999999978 Q64.875 -2.8549999999999898 64.875 2.2700000000000102 Q64.875 7.39500000000001 61.25 10.954999999999998 Q57.625 14.52000000000001 52.5 14.52000000000001 H30.0 Z"/></g><g id="Ultralight-M" transform="matrix(1 0 0 1 506.415 1126)"><path d="M65.5 13.02000000000001 H51.875 Q51.875 13.02000000000001 52.25 12.580000000000013 Q52.625 12.14500000000001 53.065 11.52000000000001 Q53.5 10.89500000000001 53.94 10.39500000000001 Q54.375 9.89500000000001 54.375 9.89500000000001 H65.0 Q76.125 10.14500000000001 85.75 4.460000000000008 Q95.375 -1.2299999999999898 100.875 -10.97999999999999 Q90.125 -11.97999999999999 80.44 -16.47999999999999 Q70.75 -20.97999999999999 63.125 -28.60499999999999 Q55.625 -36.22999999999999 51.065 -45.91499999999999 Q46.5 -55.60499999999999 45.75 -66.22999999999999 Q36.0 -60.85499999999999 30.44 -51.35499999999999 Q24.875 -41.85499999999999 24.875 -30.72999999999999 Q24.875 -28.72999999999999 25.064999999999998 -26.60499999999999 Q25.25 -24.47999999999999 25.625 -22.60499999999999 Q25.625 -22.60499999999999 25.125 -22.47999999999999 Q24.625 -22.35499999999999 24.060000000000002 -22.294999999999987 Q23.5 -22.22999999999999 23.065 -22.10499999999999 Q22.625 -21.97999999999999 22.625 -21.97999999999999 Q22.125 -23.97999999999999 21.939999999999998 -26.22999999999999 Q21.75 -28.47999999999999 21.75 -30.72999999999999 Q21.75 -44.10499999999999 29.0 -55.10499999999999 Q36.25 -66.10499999999999 48.75 -71.22999999999999 Q48.75 -59.72999999999999 53.065 -49.22999999999999 Q57.375 -38.72999999999999 65.375 -30.60499999999999 Q73.5 -22.47999999999999 84.0 -18.22999999999999 Q94.5 -13.97999999999999 106.0 -13.97999999999999 Q100.875 -1.6049999999999898 89.875 5.710000000000008 Q78.875 13.02000000000001 65.5 13.02000000000001 Z M30.0 9.89500000000001 H52.5 Q55.75 9.89500000000001 58.0 7.64500000000001 Q60.25 5.39500000000001 60.25 2.2700000000000102 Q60.25 -0.9799999999999898 58.065 -3.2299999999999898 Q55.875 -5.47999999999999 52.75 -5.47999999999999 H46.375 L44.0 -11.35499999999999 Q42.125 -15.47999999999999 38.315 -17.97999999999999 Q34.5 -20.47999999999999 30.0 -20.47999999999999 Q23.75 -20.47999999999999 19.310000000000002 -16.039999999999992 Q14.875 -11.60499999999999 14.875 -5.22999999999999 Q14.875 1.1450000000000102 19.310000000000002 5.52000000000001 Q23.75 9.89500000000001 30.0 9.89500000000001 Z M30.0 13.02000000000001 Q22.375 12.77000000000001 17.064999999999998 7.5800000000000125 Q11.75 2.3950000000000102 11.75 -5.22999999999999 Q11.75 -12.85499999999999 17.064999999999998 -18.22999999999999 Q22.375 -23.60499999999999 30.0 -23.60499999999999 Q35.625 -23.60499999999999 40.125 -20.539999999999992 Q44.625 -17.47999999999999 47.0 -12.35499999999999 L48.625 -8.60499999999999 H52.625 Q57.0 -8.60499999999999 60.19 -5.4199999999999875 Q63.375 -2.2299999999999898 63.375 2.2700000000000102 Q63.375 6.77000000000001 60.19 9.89500000000001 Q57.0 13.02000000000001 52.5 13.02000000000001 H30.0 Z"/></g><g id="Bold-S" transform="matrix(1 0 0 1 2294.23 696)"><path d="M52.367507999999994 9.051836000000009 H38.856672 Q38.856672 9.051836000000009 39.254328 7.328659999999999 Q39.64725 5.600750000000005 40.19166 3.6266719999999992 Q40.731336 1.657328000000021 41.176332 -0.018507999999997082 Q41.621328 -1.699078 41.621328 -1.699078 H48.5235 Q57.101507999999995 -0.8090859999999935 64.45341 -4.458999999999989 Q71.800578 -8.108913999999999 75.942828 -14.419335999999987 Q68.444172 -15.503422 61.641414000000005 -18.90716799999999 Q54.833922 -22.310913999999997 49.413492000000005 -27.736077999999992 Q43.88891400000001 -33.25592199999999 40.584582000000005 -39.96399999999999 Q37.28025 -46.67207799999999 35.997336 -54.166 Q30.572172000000002 -50.321991999999995 27.419328 -44.499171999999994 Q24.26175 -38.681085999999986 23.769414 -31.87832799999999 Q23.769414 -31.580085999999987 23.769414 -31.33391799999999 Q23.769414 -31.087749999999993 23.769414 -30.78950799999999 Q23.769414 -30.78950799999999 22.041504 -30.249831999999998 Q20.318327999999998 -29.70542199999999 18.197496 -29.066331999999996 Q16.076664 -28.422507999999993 14.348754000000001 -27.930171999999992 Q12.625577999999999 -27.43783599999999 12.625577999999999 -27.43783599999999 Q12.526164 -28.720749999999995 12.526164 -29.459253999999994 Q12.526164 -30.202492 12.526164 -30.78950799999999 Q12.526164 -45.58799199999999 21.994163999999998 -56.77916799999999 Q31.462163999999998 -67.975078 46.057086 -70.73499999999999 Q45.365922 -60.774663999999994 48.229992 -51.25458999999999 Q51.089328 -41.73924999999999 58.090914000000005 -34.737663999999995 Q64.600164 -28.228413999999994 73.722582 -26.154921999999992 Q82.845 -24.086163999999997 92.114172 -24.086163999999997 Q89.652492 -9.486507999999986 78.456582 -0.21733599999998887 Q67.260672 9.051836000000009 52.367507999999994 9.051836000000009 Z M26.037 -2.1914139999999946 H41.4225 Q42.998922 -2.1914139999999946 44.182422 -3.3228399999999993 Q45.365922 -4.458999999999989 45.365922 -6.035421999999983 Q45.365922 -7.318335999999988 44.528004 -8.402421999999987 Q43.690085999999994 -9.486507999999986 42.312492000000006 -9.784749999999988 L37.081422 -10.475914000000003 L35.211492 -15.40400799999999 Q34.122672 -18.26807799999999 31.755672 -19.891839999999995 Q29.388672 -21.520335999999986 26.62875 -21.719164 Q22.093578 -21.719164 19.182167999999997 -18.807753999999996 Q16.275492 -15.901077999999998 16.275492 -11.85350799999999 Q16.275492 -7.715992 19.134828 -4.9513359999999835 Q21.994163999999998 -2.1914139999999946 26.037 -2.1914139999999946 Z M26.037 9.051836000000009 Q17.359578 8.952421999999999 11.24325 2.8881680000000074 Q5.1269219999999995 -3.1760859999999838 5.1269219999999995 -11.85350799999999 Q5.1269219999999995 -20.635077999999993 11.24325 -26.746671999999997 Q17.359578 -32.86299999999999 26.037 -32.86299999999999 Q32.248008 -32.86299999999999 37.427004 -29.60600799999999 Q42.606 -26.35374999999999 45.072414 -20.734491999999996 Q50.099922 -19.352163999999995 53.30484 -15.257254000000003 Q56.514492000000004 -11.16707799999999 56.514492000000004 -5.936008000000001 Q56.514492000000004 0.2750000000000057 52.074 4.663418000000007 Q47.633508 9.051836000000009 41.4225 9.051836000000009 H26.037 Z"/></g><g id="Semibold-S" transform="matrix(1 0 0 1 1998.1 696)"><path d="M52.367507999999994 8.265991999999997 H39.254328 Q39.254328 8.265991999999997 39.846078 6.78425 Q40.437827999999996 5.302508000000017 41.176332 3.678746000000018 Q41.914835999999994 2.0502500000000055 42.55866 0.6679220000000043 Q43.19775 -0.7096719999999834 43.19775 -0.7096719999999834 H50.099922 Q58.782078 -0.11792199999999298 66.22866 -4.212831999999992 Q73.670508 -8.303007999999991 77.81749199999999 -15.309327999999994 Q70.025328 -16.09517199999999 62.924327999999996 -19.49891799999999 Q55.823328 -22.902663999999994 50.099922 -28.521921999999996 Q44.480664000000004 -34.24532799999999 41.176332 -41.246914 Q37.872 -48.24849999999999 36.887328 -56.14007799999999 Q30.378078 -52.092507999999995 26.62875 -45.43650399999999 Q22.879422 -38.780499999999996 22.585914 -30.98833599999999 Q22.585914 -30.595413999999998 22.585914 -30.349245999999994 Q22.585914 -30.10307799999999 22.585914 -29.804835999999987 Q22.585914 -29.804835999999987 21.203586 -29.312499999999993 Q19.825992 -28.820164 18.098081999999998 -28.228413999999994 Q16.370172 -27.636663999999996 14.940504 -27.191667999999993 Q13.510836000000001 -26.746671999999997 13.510836000000001 -26.746671999999997 Q13.411422 -28.029585999999988 13.364082 -29.018991999999997 Q13.312007999999999 -30.003664 13.312007999999999 -30.78950799999999 Q13.312007999999999 -45.09092199999999 22.387086 -55.94125 Q31.462163999999998 -66.79157799999999 45.56475 -69.55149999999999 Q44.580078 -59.78999199999999 47.538828 -50.41667199999999 Q50.497578 -41.04808599999999 57.39975 -34.145914 Q63.909 -27.636663999999996 72.884664 -25.369077999999995 Q81.86032800000001 -23.101491999999993 91.030086 -23.787921999999995 Q88.563672 -9.685335999999992 77.666004 -0.7096719999999834 Q66.76833599999999 8.265991999999997 52.367507999999994 8.265991999999997 Z M26.037 -1.0079139999999995 H41.4225 Q43.495992 -1.0079139999999995 44.873585999999996 -2.437581999999992 Q46.255914000000004 -3.8672499999999985 46.255914000000004 -5.936008000000001 Q46.255914000000004 -7.61657799999999 45.171828 -8.946832 Q44.083008 -10.277085999999983 42.312492000000006 -10.575327999999999 L37.772586 -11.266492 L36.09675 -15.702249999999992 Q34.813836 -18.760413999999997 32.153328 -20.583003999999995 Q29.488086 -22.410327999999993 26.330508000000002 -22.50500799999999 Q21.596508 -22.50500799999999 18.443664 -19.352163999999995 Q15.286086000000001 -16.194585999999987 15.286086000000001 -11.758827999999994 Q15.286086000000001 -7.218921999999992 18.391589999999997 -4.113417999999996 Q21.501828 -1.0079139999999995 26.037 -1.0079139999999995 Z M26.037 8.265991999999997 Q17.7525 8.166578000000015 11.88234 2.3484920000000074 Q6.016914 -3.474328 6.016914 -11.758827999999994 Q6.016914 -20.043327999999995 11.88234 -25.861413999999996 Q17.7525 -31.67949999999999 26.037 -31.67949999999999 Q32.053914 -31.67949999999999 37.081422 -28.474581999999998 Q42.11366400000001 -25.269664 44.38125 -19.645671999999998 Q49.214664000000006 -18.462171999999995 52.367507999999994 -14.618163999999993 Q55.525085999999995 -10.769421999999992 55.525085999999995 -5.841328000000004 Q55.525085999999995 -0.018507999999997082 51.382836 4.119008000000008 Q47.24058599999999 8.265991999999997 41.4225 8.265991999999997 H26.037 Z"/></g><g id="Medium-S" transform="matrix(1 0 0 1 1701.85 696)"><path d="M52.367507999999994 7.574828000000011 H39.64725 Q39.64725 7.574828000000011 40.338414 6.339253999999997 Q41.029578 5.1084140000000104 41.96691 3.7260860000000093 Q42.899508 2.3484920000000074 43.642745999999995 1.164991999999998 Q44.38125 -0.018507999999997082 44.38125 -0.018507999999997082 H51.283422 Q60.064992000000004 0.4738280000000117 67.606254 -3.9666639999999944 Q75.15225 -8.402421999999987 79.19508599999999 -15.901077999999998 Q71.208828 -16.587507999999985 63.86166 -19.943914 Q56.514492000000004 -23.295585999999993 50.691672000000004 -29.113671999999994 Q44.873585999999996 -34.936491999999994 41.569254 -42.18424599999999 Q38.264922 -49.431999999999995 37.479078 -57.51767199999999 Q30.17925 -53.37542199999999 25.98966 -46.080327999999994 Q21.795336 -38.780499999999996 21.695922 -30.202492 Q21.695922 -29.90424999999999 21.695922 -29.60600799999999 Q21.695922 -29.312499999999993 21.695922 -29.018991999999997 Q21.695922 -29.018991999999997 20.564496000000002 -28.573995999999994 Q19.428336 -28.12899999999999 17.998668 -27.58458999999999 Q16.569 -27.044914 15.3855 -26.599917999999988 Q14.202 -26.154921999999992 14.202 -26.154921999999992 Q14.003172000000001 -27.636663999999996 14.003172000000001 -28.720749999999995 Q14.003172000000001 -29.804835999999987 14.003172000000001 -30.78950799999999 Q14.003172000000001 -44.69799999999999 22.780008000000002 -55.34949999999999 Q31.561578 -66.00099999999999 45.266507999999995 -68.661508 Q43.988327999999996 -59.098828 47.046492 -49.824921999999994 Q50.099922 -40.555749999999996 57.006828 -33.653577999999996 Q63.516078 -27.23900799999999 72.340254 -24.82466799999999 Q81.16916400000001 -22.410327999999993 90.239508 -23.593827999999995 Q87.678414 -9.884163999999998 77.026914 -1.1546679999999867 Q66.375414 7.574828000000011 52.367507999999994 7.574828000000011 Z M26.037 -0.21733599999998887 H41.4225 Q43.7895 -0.21733599999998887 45.417995999999995 -1.8458320000000015 Q47.046492 -3.474328 47.046492 -5.841328000000004 Q47.046492 -7.810671999999997 45.763578 -9.39182799999999 Q44.480664000000004 -10.968249999999998 42.407172 -11.266492 L38.264922 -11.952922000000001 L36.6885 -15.901077999999998 Q35.405586 -19.252749999999992 32.54625 -21.174753999999993 Q29.686913999999998 -23.101491999999993 26.235827999999998 -23.196171999999997 Q21.303 -23.196171999999997 17.899254 -19.844499999999996 Q14.495508 -16.49282799999999 14.495508 -11.659413999999998 Q14.495508 -6.825999999999993 17.851914 -3.521667999999991 Q21.203586 -0.21733599999998887 26.037 -0.21733599999998887 Z M26.037 7.574828000000011 Q18.145422 7.475414000000015 12.474089999999999 1.9034960000000183 Q6.807492 -3.6684219999999925 6.807492 -11.659413999999998 Q6.807492 -19.645671999999998 12.42675 -25.269664 Q18.046008 -30.888921999999994 26.037 -30.888921999999994 Q31.9545 -30.888921999999994 36.887328 -27.636663999999996 Q41.815422 -24.379671999999992 43.88891400000001 -18.760413999999997 Q48.622914 -17.87042199999999 51.681078 -14.17316799999999 Q54.734508 -10.475914000000003 54.734508 -5.741913999999994 Q54.734508 -0.21733599999998887 50.79108599999999 3.678746000000018 Q46.847664 7.574828000000011 41.4225 7.574828000000011 H26.037 Z"/></g><g id="Regular-S" transform="matrix(1 0 0 1 1405.73 696)"><path d="M52.367507999999994 7.082492000000002 H39.945492 Q39.945492 7.082492000000002 40.731336 6.045746000000008 Q41.521914 5.009 42.55866 3.7781599999999997 Q43.590672 2.542586 44.42859 1.557914000000011 Q45.266507999999995 0.5685080000000085 45.266507999999995 0.5685080000000085 H52.173414 Q61.04966400000001 0.8667500000000103 68.69033999999999 -3.8672499999999985 Q76.33575 -8.601249999999993 80.27917199999999 -16.393413999999993 Q71.994672 -16.885749999999987 64.50075 -20.289495999999993 Q57.006828 -23.68850799999999 51.184008 -29.511327999999992 Q45.266507999999995 -35.428827999999996 41.96691 -42.875409999999995 Q38.662577999999996 -50.321991999999995 38.070828 -58.60649199999999 Q30.079836 -54.459508 25.592004 -46.67207799999999 Q21.104172000000002 -38.879914 21.104172000000002 -29.70542199999999 Q21.104172000000002 -29.411913999999996 21.104172000000002 -29.113671999999994 Q21.104172000000002 -28.820164 21.104172000000002 -28.422507999999993 Q21.104172000000002 -28.422507999999993 20.1195 -27.98224599999999 Q19.134828 -27.537249999999993 17.951328 -27.092253999999997 Q16.767827999999998 -26.651991999999993 15.778422 -26.254335999999988 Q14.79375 -25.861413999999996 14.79375 -25.861413999999996 Q14.594922 -27.338421999999994 14.547582 -28.521921999999996 Q14.495508 -29.70542199999999 14.495508 -30.78950799999999 Q14.495508 -44.404492 23.07825 -54.90450399999999 Q31.660992 -65.40924999999999 45.072414 -68.07449199999999 Q43.495992 -58.50707799999999 46.648835999999996 -49.38466 Q49.806414000000004 -40.25750799999999 56.708586 -33.35533599999999 Q63.118422 -26.945499999999996 71.895258 -24.43174599999999 Q80.676828 -21.917991999999998 89.652492 -23.494414 Q87.18607800000001 -9.983577999999994 76.63399199999999 -1.4529099999999886 Q66.077172 7.082492000000002 52.367507999999994 7.082492000000002 Z M26.037 0.3744140000000158 H41.4225 Q43.988327999999996 0.3744140000000158 45.810918 -1.400835999999984 Q47.633508 -3.1760859999999838 47.633508 -5.741913999999994 Q47.633508 -8.009499999999989 46.1565 -9.737409999999997 Q44.679492 -11.460585999999992 42.407172 -11.758827999999994 L38.662577999999996 -12.449991999999995 L37.28025 -16.000491999999994 Q35.798508 -19.550991999999994 32.792418 -21.619749999999996 Q29.786327999999997 -23.68850799999999 26.136414 -23.68850799999999 Q21.009491999999998 -23.68850799999999 17.506332 -20.190081999999997 Q14.003172000000001 -16.686921999999996 14.003172000000001 -11.559999999999988 Q14.003172000000001 -6.532491999999991 17.506332 -3.076671999999988 Q21.009491999999998 0.3744140000000158 26.037 0.3744140000000158 Z M26.037 7.082492000000002 Q18.34425 6.98307800000002 12.871746 1.557914000000011 Q7.394508 -3.8672499999999985 7.394508 -11.559999999999988 Q7.394508 -19.352163999999995 12.819672 -24.82466799999999 Q18.244836 -30.297171999999996 26.037 -30.297171999999996 Q31.9545 -30.297171999999996 36.787914 -27.092253999999997 Q41.621328 -23.88733599999999 43.590672 -18.26807799999999 Q48.229992 -17.477499999999992 51.236082 -13.879660000000001 Q54.242172000000004 -10.277085999999983 54.242172000000004 -5.642499999999998 Q54.242172000000004 -0.41616399999999487 50.445504 3.3331640000000107 Q46.648835999999996 7.082492000000002 41.4225 7.082492000000002 H26.037 Z"/></g><g id="Light-S" transform="matrix(1 0 0 1 1109.75 696)"><path d="M52.367507999999994 5.2078280000000206 H40.139585999999994 Q40.139585999999994 5.2078280000000206 40.437827999999996 4.41725000000001 Q40.731336 3.6266719999999992 41.176332 2.7887539999999973 Q41.621328 1.9508360000000096 41.96691 1.2596719999999948 Q42.312492000000006 0.5685080000000085 42.312492000000006 0.5685080000000085 H51.48225 Q60.557328 1.0655780000000163 68.349492 -3.6684219999999925 Q76.136922 -8.402421999999987 80.18449199999999 -16.393413999999993 Q71.994672 -16.885749999999987 64.50075 -20.289495999999993 Q57.006828 -23.68850799999999 51.089328 -29.511327999999992 Q45.266507999999995 -35.428827999999996 41.914835999999994 -42.875409999999995 Q38.563164 -50.321991999999995 37.971414 -58.50707799999999 Q30.079836 -54.36482799999999 25.592004 -46.572663999999996 Q21.104172000000002 -38.780499999999996 21.104172000000002 -29.70542199999999 Q21.104172000000002 -28.919577999999994 21.156246000000003 -28.17633999999999 Q21.203586 -27.43783599999999 21.402414 -26.651991999999993 Q21.402414 -26.651991999999993 20.66391 -26.35374999999999 Q19.920672 -26.05550799999999 19.082753999999998 -25.761999999999993 Q18.244836 -25.468491999999998 17.553672000000002 -25.217589999999994 Q16.862508 -24.971421999999997 16.862508 -24.971421999999997 Q16.569 -26.651991999999993 16.469586 -28.029585999999988 Q16.370172 -29.411913999999996 16.370172 -30.78950799999999 Q16.370172 -43.022164 23.71734 -52.636917999999994 Q31.064508 -62.251672 42.899508 -65.40924999999999 Q42.01425 -56.14007799999999 45.318582 -47.410582 Q48.622914 -38.681085999999986 55.330992 -31.973007999999993 Q61.542 -25.761999999999993 69.87384 -23.101491999999993 Q78.210414 -20.436249999999994 86.98725 -21.321507999999987 Q84.0285 -9.39182799999999 74.361672 -2.0919999999999987 Q64.699578 5.2078280000000206 52.367507999999994 5.2078280000000206 Z M26.037 0.3744140000000158 H41.4225 Q43.988327999999996 0.3744140000000158 45.763578 -1.400835999999984 Q47.538828 -3.1760859999999838 47.538828 -5.741913999999994 Q47.538828 -8.009499999999989 46.10916 -9.685335999999992 Q44.679492 -11.361171999999996 42.407172 -11.659413999999998 L38.563164 -12.350577999999999 L37.180836 -16.000491999999994 Q35.798508 -19.45157799999999 32.745078 -21.520335999999986 Q29.686913999999998 -23.593827999999995 26.037 -23.593827999999995 Q21.009491999999998 -23.593827999999995 17.506332 -20.090667999999994 Q14.003172000000001 -16.587507999999985 14.003172000000001 -11.559999999999988 Q14.003172000000001 -6.532491999999991 17.506332 -3.076671999999988 Q21.009491999999998 0.3744140000000158 26.037 0.3744140000000158 Z M26.037 5.2078280000000206 Q19.134828 5.009 14.202 0.1755860000000098 Q9.269172 -4.657827999999995 9.269172 -11.559999999999988 Q9.269172 -18.56158599999999 14.154660000000002 -23.442339999999994 Q19.035414 -28.32782799999999 26.037 -28.32782799999999 Q31.36275 -28.32782799999999 35.703828 -25.416417999999993 Q40.040172 -22.50500799999999 41.815422 -17.477499999999992 L42.312492000000006 -16.293999999999997 H43.495992 Q47.34 -15.602835999999996 49.806414000000004 -12.544671999999991 Q52.272828 -9.486507999999986 52.272828 -5.642499999999998 Q52.272828 -1.2020079999999922 49.06791 2.00291 Q45.862992000000006 5.2078280000000206 41.4225 5.2078280000000206 H26.037 Z"/></g><g id="Thin-S" transform="matrix(1 0 0 1 814.015 696)"><path d="M52.367507999999994 3.2337500000000006 H40.338414 Q40.338414 3.2337500000000006 40.139585999999994 2.7887539999999973 Q39.945492 2.3484920000000074 39.794004 1.8514219999999995 Q39.64725 1.359086000000005 39.500496 0.9661640000000062 Q39.349008 0.5685080000000085 39.349008 0.5685080000000085 H50.79108599999999 Q60.064992000000004 1.164991999999998 68.00391 -3.521667999999991 Q75.942828 -8.208327999999995 80.08507800000001 -16.293999999999997 Q71.899992 -16.78633599999999 64.401336 -20.237421999999995 Q56.907414 -23.68850799999999 51.089328 -29.511327999999992 Q45.266507999999995 -35.428827999999996 41.867495999999996 -42.875409999999995 Q38.46375 -50.321991999999995 37.971414 -58.50707799999999 Q30.079836 -54.36482799999999 25.644078 -46.572663999999996 Q21.203586 -38.780499999999996 21.203586 -29.70542199999999 Q21.203586 -28.422507999999993 21.303 -27.23900799999999 Q21.402414 -26.05550799999999 21.596508 -24.872007999999994 Q21.596508 -24.872007999999994 21.203586 -24.725254 Q20.810664 -24.57849999999999 20.266254 -24.479085999999988 Q19.726578 -24.379671999999992 19.328922000000002 -24.23291799999999 Q18.936 -24.086163999999997 18.936 -24.086163999999997 Q18.642492 -25.960827999999992 18.491004 -27.58458999999999 Q18.34425 -29.21308599999999 18.34425 -30.78950799999999 Q18.34425 -41.63983599999999 24.408503999999997 -50.36933199999999 Q30.477491999999998 -59.098828 40.731336 -62.84342199999999 Q40.437827999999996 -53.77307799999999 43.988327999999996 -45.43650399999999 Q47.538828 -37.104664 53.948664 -30.595413999999998 Q59.965578 -24.57849999999999 67.904496 -21.719164 Q75.84341400000001 -18.859827999999993 84.42142199999999 -19.15333599999999 Q80.870922 -8.899491999999995 72.09408599999999 -2.8305039999999906 Q63.31725 3.2337500000000006 52.367507999999994 3.2337500000000006 Z M26.037 0.2750000000000057 H41.4225 Q43.988327999999996 0.2750000000000057 45.763578 -1.4529099999999886 Q47.538828 -3.1760859999999838 47.538828 -5.741913999999994 Q47.538828 -8.009499999999989 46.10916 -9.685335999999992 Q44.679492 -11.361171999999996 42.407172 -11.659413999999998 L38.563164 -12.350577999999999 L37.180836 -16.000491999999994 Q35.703828 -19.45157799999999 32.693004 -21.520335999999986 Q29.686913999999998 -23.593827999999995 26.037 -23.593827999999995 Q21.009491999999998 -23.593827999999995 17.553672000000002 -20.090667999999994 Q14.102586 -16.587507999999985 14.102586 -11.559999999999988 Q14.102586 -6.532491999999991 17.553672000000002 -3.1287459999999925 Q21.009491999999998 0.2750000000000057 26.037 0.2750000000000057 Z M26.037 3.2337500000000006 Q19.920672 3.1343360000000047 15.584328 -1.1546679999999867 Q11.24325 -5.443671999999992 11.24325 -11.559999999999988 Q11.24325 -17.771007999999995 15.532254 -22.11208599999999 Q19.825992 -26.453163999999994 26.037 -26.453163999999994 Q30.771 -26.453163999999994 34.667082 -23.839995999999992 Q38.563164 -21.22682799999999 40.040172 -16.686921999999996 L41.029578 -14.419335999999987 H43.495992 Q46.450008 -13.728172 48.424085999999996 -11.266492 Q50.398164 -8.800078 50.398164 -5.642499999999998 Q50.398164 -1.9925859999999886 47.784996 0.6205820000000131 Q45.171828 3.2337500000000006 41.4225 3.2337500000000006 H26.037 Z"/></g><g id="Ultralight-S" transform="matrix(1 0 0 1 517.792 696)"><path d="M52.367507999999994 2.0502500000000055 H40.532508 Q40.532508 2.0502500000000055 40.040172 1.8040820000000082 Q39.547836 1.557914000000011 39.008160000000004 1.2596719999999948 Q38.46375 0.9661640000000062 38.018754 0.719996000000009 Q37.578492 0.4738280000000117 37.578492 0.4738280000000117 H50.398164 Q59.76675 1.2596719999999948 67.805082 -3.422253999999981 Q75.84341400000001 -8.108913999999999 80.08507800000001 -16.293999999999997 Q71.899992 -16.78633599999999 64.401336 -20.237421999999995 Q56.907414 -23.68850799999999 51.089328 -29.511327999999992 Q45.266507999999995 -35.428827999999996 41.867495999999996 -42.875409999999995 Q38.46375 -50.321991999999995 37.971414 -58.50707799999999 Q30.079836 -54.36482799999999 25.644078 -46.572663999999996 Q21.203586 -38.780499999999996 21.203586 -29.70542199999999 Q21.203586 -28.12899999999999 21.35034 -26.699332 Q21.501828 -25.269664 21.795336 -23.787921999999995 Q21.795336 -23.787921999999995 21.549167999999998 -23.740581999999996 Q21.303 -23.68850799999999 21.009491999999998 -23.68850799999999 Q20.71125 -23.68850799999999 20.465082000000002 -23.641167999999993 Q20.218913999999998 -23.593827999999995 20.218913999999998 -23.593827999999995 Q19.825992 -25.563171999999994 19.674504 -27.291081999999996 Q19.52775 -29.018991999999997 19.52775 -30.78950799999999 Q19.52775 -40.754577999999995 24.8535 -49.03907799999999 Q30.17925 -57.323578 39.448422 -61.266999999999996 Q39.547836 -52.39075 43.19775 -44.253004 Q46.847664 -36.119991999999996 53.058672 -29.804835999999987 Q58.976172 -23.88733599999999 66.720996 -20.92858599999999 Q74.461086 -17.969835999999987 82.845 -17.87042199999999 Q79.000992 -8.601249999999993 70.716492 -3.275499999999994 Q62.431992 2.0502500000000055 52.367507999999994 2.0502500000000055 Z M26.037 0.2750000000000057 H41.4225 Q43.988327999999996 0.2750000000000057 45.763578 -1.500249999999994 Q47.538828 -3.275499999999994 47.538828 -5.741913999999994 Q47.538828 -8.009499999999989 46.10916 -9.685335999999992 Q44.679492 -11.361171999999996 42.407172 -11.659413999999998 L38.563164 -12.350577999999999 L37.180836 -16.000491999999994 Q35.703828 -19.45157799999999 32.693004 -21.520335999999986 Q29.686913999999998 -23.593827999999995 26.037 -23.593827999999995 Q21.104172000000002 -23.593827999999995 17.605746 -20.090667999999994 Q14.102586 -16.587507999999985 14.102586 -11.559999999999988 Q14.102586 -6.532491999999991 17.605746 -3.1287459999999925 Q21.104172000000002 0.2750000000000057 26.037 0.2750000000000057 Z M26.037 2.0502500000000055 Q20.318327999999998 1.8514219999999995 16.370172 -2.044659999999979 Q12.42675 -5.936008000000001 12.42675 -11.559999999999988 Q12.42675 -17.278672 16.370172 -21.27416799999999 Q20.318327999999998 -25.269664 26.037 -25.269664 Q30.477491999999998 -25.269664 34.027992 -22.85058999999999 Q37.578492 -20.436249999999994 39.0555 -16.194585999999987 L40.338414 -13.235835999999992 H43.495992 Q45.957672 -12.644085999999987 47.586168 -10.475914000000003 Q49.214664000000006 -8.303007999999991 49.214664000000006 -5.642499999999998 Q49.214664000000006 -2.3855080000000015 46.947078 -0.1699959999999976 Q44.679492 2.0502500000000055 41.4225 2.0502500000000055 H26.037 Z"/></g></g></svg>