<svg xmlns="http://www.w3.org/2000/svg" height="20" width="20"><path d="M15.917 17.792V15.5H17.792V17.792ZM15.917 13.896V12.104H17.792V13.896ZM2.25 10.854V9.167H4.125V10.854ZM2.25 14.229V12.542H4.125V14.229ZM2.25 7.479V5.812H4.125V7.479ZM2.25 4.125V2.25H4.542V4.125ZM6.146 4.125V2.25H7.938V4.125ZM12.521 17.792V15.917H14.312V17.792ZM9.125 17.792V15.917H10.917V17.792ZM5.729 17.792V15.917H7.521V17.792ZM2.25 17.792V15.917H4.125V17.792ZM15.917 10.542V6.479Q15.917 5.5 15.229 4.812Q14.542 4.125 13.562 4.125H9.562V2.25H13.542Q15.354 2.25 16.573 3.469Q17.792 4.688 17.792 6.479V10.542Z"/></svg>