<svg xmlns="http://www.w3.org/2000/svg" height="40" viewBox="0 -960 960 960" width="40"><path d="M354-132q-11.9 0-19.95-8.05Q326-148.1 326-160v-590.33q0-11.25 8.05-19.63 8.05-8.37 19.95-8.37h62V-800q0-11.9 8.05-19.95Q432.1-828 444-828h72q11.9 0 19.95 8.05Q544-811.9 544-800v21.67h62.21q11.94 0 19.87 8.37 7.92 8.38 7.92 19.63v317q0 5.1-3.5 8.55-3.49 3.45-8.66 3.45t-8.51-3.45q-3.33-3.45-3.33-8.55v-322H350V-156h169.67q5.1 0 8.55 3.5 3.45 3.49 3.45 8.66t-3.45 8.51q-3.45 3.33-8.55 3.33H354Zm-4-24Zm377.67-59-76.34 75.33q-3.33 3.34-7.6 2.84-4.26-.5-7.9-3.84-3.16-3-3.16-8T636-157l75.33-75.33L635-308.67q-3.33-3.33-2.83-8.16.5-4.84 3.83-8.17t8.33-3.33q5 0 8 3.33l75.34 76.33L804-325q3.33-3.33 8.17-2.83 4.83.5 8.34 4 3.16 3.16 3.16 7.5 0 4.33-3.34 7.66L745-232.33 820.33-156q3.34 3.33 2.84 8.1t-4.01 8.41q-3.16 3.16-7.49 3.16-4.34 0-7.67-3.34L727.67-215Z"/></svg>