<svg xmlns="http://www.w3.org/2000/svg" height="48" viewBox="0 -960 960 960" width="48"><path d="M184.348-101.174q-33.501 0-58.338-24.836-24.836-24.837-24.836-58.338v-591.304q0-33.734 24.836-58.737 24.837-25.002 58.338-25.002h591.304q33.734 0 58.737 25.002 25.002 25.003 25.002 58.737v591.304q0 33.501-25.002 58.338-25.003 24.836-58.737 24.836H184.348Zm0-185.739v102.565h591.304v-339L560.218-308.609q-12.696 14.261-29.957 13.696-17.261-.566-28.826-12.696L352.957-455.522 184.348-286.913Zm0-99.044L324-525.609q11.668-11.13 29.044-11.13 17.375 0 29.869 11.13l147.478 147.913 245.261-245.695v-152.261H184.348v389.695Zm0-137.391v-100.043 245.695-177.434 268.217-168.609 177.87-245.696Zm0 137.391v-389.695 397.956-177.434 169.173Zm0 99.044v-168.609 177.87-245.696 339-102.565Z"/></svg>