<svg xmlns="http://www.w3.org/2000/svg" height="40" width="40"><path d="M6.708 29.375q-1.833 0-3.125-1.292-1.291-1.291-1.291-3.125V15q0-1.792 1.291-3.104 1.292-1.313 3.125-1.313h26.625q1.792 0 3.105 1.313Q37.75 13.208 37.75 15v9.958q0 1.834-1.312 3.125-1.313 1.292-3.105 1.292Zm0-4.417h26.625V15h-3.125q.25.417.375.854.125.438.125.896 0 2.417-1.729 4.125-1.729 1.708-4.104 1.708h-9.75q-2.375 0-4.104-1.708T9.292 16.75q0-.458.125-.896.125-.437.375-.854H6.708v9.958Zm8.417-6.458H18V15h-2.875q-.625 0-1.187.521-.563.521-.563 1.229 0 .667.563 1.208.562.542 1.187.542Zm6.958 0h2.792q.708 0 1.229-.521.521-.521.521-1.229 0-.708-.521-1.229Q25.583 15 24.875 15h-2.792Zm11.25 6.458H6.708h26.625Z"/></svg>