<svg xmlns="http://www.w3.org/2000/svg" height="48" viewBox="0 -960 960 960" width="48"><path d="m480.35-264-178.93 76.57q-28.8 11.93-53.88-4.35-25.08-16.28-25.08-47.49v-525.74q0-22.3 16.73-39.18 16.74-16.89 39.43-16.89h242.34q8.73 0 15.16 6.67 6.42 6.66 6.42 15.29 0 9.43-6.42 15.66-6.43 6.23-15.16 6.23H278.62q-4.62 0-8.47 3.85-3.84 3.84-3.84 8.46v525.38q0 6.92 5.58 10.58 5.57 3.65 11.73.96L480-311.69 676.38-228q6.16 2.69 11.73-.96 5.58-3.66 5.58-10.58v-277.65q0-8.36 6.43-14.97 6.42-6.61 15.69-6.61t15.5 6.61q6.23 6.61 6.23 14.97v277.92q0 31.21-25.08 47.49t-53.19 4.35L480.35-264ZM480-777.23H266.31h276.23H480Zm213.69 87.31h-65.04q-9.53 0-15.9-6.43-6.37-6.42-6.37-15.68 0-8.89 6.37-15.32 6.37-6.42 15.9-6.42h65.04v-65.73q0-8.36 6.43-14.97 6.42-6.61 15.69-6.61t15.5 6.61q6.23 6.61 6.23 14.97v65.73h65.73q8.73 0 15.15 6.67 6.42 6.66 6.42 15.29 0 9.43-6.42 15.66t-15.15 6.23h-65.73v65.04q0 9.52-6.48 15.89-6.48 6.37-15.29 6.37-9.62 0-15.85-6.37t-6.23-15.89v-65.04Z"/></svg>