<svg xmlns="http://www.w3.org/2000/svg" height="24" width="24"><path d="M3.75 21.325V10.475Q2.8 9.925 2.25 8.975Q1.7 8.025 1.7 6.925Q1.7 5.2 2.938 3.962Q4.175 2.725 5.9 2.725H18.1Q19.825 2.725 21.062 3.962Q22.3 5.2 22.3 6.925Q22.3 8.025 21.75 8.975Q21.2 9.925 20.25 10.475V21.325ZM5.9 19.175H18.1V9.225L18.825 8.85Q19.375 8.55 19.763 8.062Q20.15 7.575 20.15 6.925Q20.15 6.075 19.55 5.475Q18.95 4.875 18.1 4.875H5.9Q5.05 4.875 4.45 5.475Q3.85 6.075 3.85 6.925Q3.85 7.55 4.25 8.062Q4.65 8.575 5.225 8.9L5.9 9.225ZM12 18 16.95 13.075 12 8.125 7.075 13.075ZM12.025 15.025 10.125 13.125 12.025 11.2 13.95 13.125ZM12 12.025Q12 12.025 12 12.025Q12 12.025 12 12.025Q12 12.025 12 12.025Q12 12.025 12 12.025Q12 12.025 12 12.025Q12 12.025 12 12.025Q12 12.025 12 12.025Q12 12.025 12 12.025Z"/></svg>