<svg xmlns="http://www.w3.org/2000/svg" height="48" viewBox="0 -960 960 960" width="48"><path d="M269.56-102.8q-39.45 0-73.51-17.06t-57.78-48.61q-24.78-32.18-31.74-69.74-6.96-37.57 3.27-76.75l26-88.25-29-410.83q-.76-16.34 9.25-28.18 10-11.85 26.91-12.21l41.76-3q67.48-5.24 119.57 39.97 52.1 45.22 57.34 113.7l9 126.69q4 66.55-38.38 117.79-42.38 51.24-109.38 58.95L185.11-293q-6.76 19.04-2.5 39.35 4.26 20.3 15.82 36.35 4.81 6.55 11.32 12.06 6.51 5.51 24.01 15.26 9.67-69.56 56.06-114.61 46.38-45.04 107.33-45.04h296.37q68.72 0 117.32 48.56 48.59 48.57 48.59 117.45v41.66q0 17.2-11.5 28.18-11.51 10.98-27.89 10.98H269.56Zm40.03-77.07 471.82-11q-2.71-34.33-28.19-57.89-25.48-23.57-59.7-23.57H397.24q-35.3 0-60.74 26.69-25.43 26.68-26.91 65.77ZM207.87-477.35q39.09-5.24 63.65-31.66 24.57-26.42 21.81-61.99l-9-127.28q-2-34.71-30.56-58.3-28.57-23.59-67.66-23.07l21.76 302.3ZM546-179.87ZM197.11-630Z"/></svg>