<svg xmlns="http://www.w3.org/2000/svg" height="40" viewBox="0 -960 960 960" width="40"><path d="M200-200q-83 0-141.5-58.5T0-400q0-83 58.5-141.5T200-600h459.93l-89.5-89.57H428.67v-74.2h135.71q17.91 0 34.15 6.94 16.24 6.93 28.82 19.13L765.2-599.36q86.13 2.03 140.47 61.69Q960-478 960-400q0 83-58.5 141.5T760-200q-83 0-141.5-58.5T560-400q0-18 2.5-35.5T572-470L462-360h-66q-14 70-69 115t-127 45Zm560.03-73.64q52.67 0 89.5-36.86 36.83-36.87 36.83-89.53 0-52.67-36.86-89.5-36.87-36.83-89.53-36.83-52.67 0-89.5 36.86-36.83 36.87-36.83 89.53 0 52.67 36.86 89.5 36.87 36.83 89.53 36.83Zm-560.03 0q40.03 0 74.12-23.83 34.1-23.83 47.58-69.2H213.33v-66.66H321.7q-13.11-45.37-47.47-69.2-34.37-23.83-74.22-23.83-52.79 0-89.58 36.86-36.79 36.87-36.79 89.53 0 52.67 36.85 89.5 36.86 36.83 89.51 36.83Z"/></svg>