<svg xmlns="http://www.w3.org/2000/svg" height="20" width="20"><path d="m7.062 14.396 1.271-1.271-1.375-1.333h6.084l-1.354 1.333 1.25 1.271 3.479-3.479-3.479-3.459-1.25 1.271 1.354 1.313H6.979l1.354-1.313-1.271-1.271-3.479 3.459ZM3.375 18.25q-1.021 0-1.729-.708-.708-.709-.708-1.73v-9.77q0-1 .708-1.719.708-.719 1.729-.719h2.354l1.729-1.896h5.084l1.75 1.896h2.333q1.021 0 1.729.719.708.719.708 1.719v9.77q0 1.021-.708 1.73-.708.708-1.729.708Zm13.25-2.438v-9.77H13.25l-1.771-1.896H8.542L6.771 6.042H3.375v9.77ZM10 9.979Z"/></svg>