<svg xmlns="http://www.w3.org/2000/svg" height="48" viewBox="0 -960 960 960" width="48"><path d="m373.39-280 45-47-83-84h288.22l-84 84 47 47 156-156-156-157-45 45 81 79H335.39l81-79-43-46-156 158 156 156Zm-228.3 174.13q-32.51 0-55.87-23.35-23.35-23.36-23.35-55.87v-502.82q0-31.74 23.35-55.76 23.36-24.03 55.87-24.03h134.56l78.65-87h243.4l79.21 87h134q31.74 0 55.76 24.03 24.03 24.02 24.03 55.76v502.82q0 32.51-24.03 55.87-24.02 23.35-55.76 23.35H145.09Zm0-79.22h669.82v-502.82H646.13l-77.52-87H392.52l-79.78 87H145.09v502.82ZM480-437Z"/></svg>