<svg xmlns="http://www.w3.org/2000/svg" height="24" viewBox="0 -960 960 960" width="24"><path d="m364.52-280 56-56-62-62h242.96l-62 62 56 56 160-160-160-160-56 56 64 66H356.52l64-66-56-56-160 160 160 160ZM166.78-100.78q-44.3 0-75.15-30.85-30.85-30.85-30.85-75.15v-466.44q0-44.3 30.85-75.15 30.85-30.85 75.15-30.85h109.05l81.91-80h244.52l81.91 80h109.05q44.3 0 75.15 30.85 30.85 30.85 30.85 75.15v466.44q0 44.3-30.85 75.15-30.85 30.85-75.15 30.85H166.78Zm0-106h626.44v-466.44H639.7l-79.22-80H401.22l-82.61 80H166.78v466.44ZM480-440Z"/></svg>