<svg xmlns="http://www.w3.org/2000/svg" version="1.1" width="3300" height="2000"><g id="Notes"><style>
    text {
      font-family: monospace;
      text-anchor: middle;
    }
    text.emphasis {
      font-weight:bold;
    }
    text.lanchor {
      text-anchor: start;
    }
  </style><rect height="2200" id="artboard" fill="white" width="3300" x="0" y="0"/><line id="" style="fill:none;stroke:black;stroke-width:0.5;" x1="263" x2="3036" y1="292" y2="292"/><text class="lanchor emphasis" transform="matrix(1 0 0 1 263 322)">Weight/Scale Variations</text><text transform="matrix(1 0 0 1 559.711 322)">Ultralight</text><text transform="matrix(1 0 0 1 856.422 322)">Thin</text><text transform="matrix(1 0 0 1 1153.13 322)">Light</text><text transform="matrix(1 0 0 1 1449.84 322)">Regular</text><text transform="matrix(1 0 0 1 1746.56 322)">Medium</text><text transform="matrix(1 0 0 1 2043.27 322)">Semibold</text><text transform="matrix(1 0 0 1 2339.98 322)">Bold</text><text transform="matrix(1 0 0 1 2636.69 322)">Heavy</text><text transform="matrix(1 0 0 1 2933.4 322)">Black</text><text id="template-version" style="text-anchor: end;" transform="matrix(1 0 0 1 3036 1933)">Template v.1.0</text><text class="lanchor" transform="matrix(1 0 0 1 263 726)">Small</text><text class="lanchor" transform="matrix(1 0 0 1 263 1156)">Medium</text><text class="lanchor" transform="matrix(1 0 0 1 263 1586)">Large</text></g><g id="Guides"><g id="H-reference" style="fill:#27AAE1;stroke:none;" transform="matrix(1 0 0 1 339 696)"><path d="M 54.9316 0 L 57.666 0 L 30.5664 -70.459 L 28.0762 -70.459 L 0.976562 0 L 3.66211 0 L 12.9395 -24.4629 L 45.7031 -24.4629 Z M 29.1992 -67.0898 L 29.4434 -67.0898 L 44.8242 -26.709 L 13.8184 -26.709 Z"/></g><line id="Baseline-S" style="fill:none;stroke:#27AAE1;opacity:1;stroke-width:0.577;" x1="263" x2="3036" y1="696" y2="696"/><line id="Capline-S" style="fill:none;stroke:#27AAE1;opacity:1;stroke-width:0.577;" x1="263" x2="3036" y1="625.541" y2="625.541"/><g id="H-reference" style="fill:#27AAE1;stroke:none;" transform="matrix(1 0 0 1 339 1126)"><path d="M 54.9316 0 L 57.666 0 L 30.5664 -70.459 L 28.0762 -70.459 L 0.976562 0 L 3.66211 0 L 12.9395 -24.4629 L 45.7031 -24.4629 Z M 29.1992 -67.0898 L 29.4434 -67.0898 L 44.8242 -26.709 L 13.8184 -26.709 Z"/></g><line id="Baseline-M" style="fill:none;stroke:#27AAE1;opacity:1;stroke-width:0.577;" x1="263" x2="3036" y1="1126" y2="1126"/><line id="Capline-M" style="fill:none;stroke:#27AAE1;opacity:1;stroke-width:0.577;" x1="263" x2="3036" y1="1055.54" y2="1055.54"/><g id="H-reference" style="fill:#27AAE1;stroke:none;" transform="matrix(1 0 0 1 339 1556)"><path d="M 54.9316 0 L 57.666 0 L 30.5664 -70.459 L 28.0762 -70.459 L 0.976562 0 L 3.66211 0 L 12.9395 -24.4629 L 45.7031 -24.4629 Z M 29.1992 -67.0898 L 29.4434 -67.0898 L 44.8242 -26.709 L 13.8184 -26.709 Z"/></g><line id="Baseline-L" style="fill:none;stroke:#27AAE1;opacity:1;stroke-width:0.577;" x1="263" x2="3036" y1="1556" y2="1556"/><line id="Capline-L" style="fill:none;stroke:#27AAE1;opacity:1;stroke-width:0.577;" x1="263" x2="3036" y1="1485.54" y2="1485.54"/><rect height="119.336" id="left-margin" style="fill:darkred;stroke:none;opacity:0.4;" width="12.4512" x="1394.06" y="1030.79"/><rect height="119.336" id="right-margin" style="fill:darkgreen;stroke:none;opacity:0.4;" width="12.4512" x="1502.5112" y="1030.79"/><rect x="1406.5112" y="1045" width="96" height="96" fill="none" stroke="blue" stroke-dasharray="5"/><rect x="1394.06" y="1030.79" width="120.9024" height="119.336" fill="none" stroke="blue"/></g><g id="Symbols"><g id="Bold-L" transform="matrix(1 0 0 1 2266 1556)"><path d="M15.722 26.045 V-72.237 H54.341 V-82.799 L77.4 -105.777 L100.701 -82.799 V-46.276 H139.32 V26.045 H15.722 Z M30.476 11.291 H47.166 V-5.399 H30.476 V11.291 Z M30.476 -14.671 H47.166 V-31.36 H30.476 V-14.671 Z M30.476 -40.632 H47.166 V-57.321 H30.476 V-40.632 Z M69.096 11.291 H85.785 V-5.399 H69.096 V11.291 Z M69.096 -14.671 H85.785 V-31.36 H69.096 V-14.671 Z M69.096 -40.632 H85.785 V-57.321 H69.096 V-40.632 Z M69.096 -66.593 H85.785 V-83.282 H69.096 V-66.593 Z M107.715 11.291 H124.404 V-5.399 H107.715 V11.291 Z M107.715 -14.671 H124.404 V-31.36 H107.715 V-14.671 Z"/></g><g id="Semibold-L" transform="matrix(1 0 0 1 1970.27 1556)"><path d="M18.105 23.662 V-69.783 H56.725 V-82.028 L77.4 -102.552 L98.246 -82.028 V-43.821 H136.866 V23.662 H18.105 Z M30.476 11.291 H47.166 V-5.399 H30.476 V11.291 Z M30.476 -14.671 H47.166 V-31.36 H30.476 V-14.671 Z M30.476 -40.632 H47.166 V-57.321 H30.476 V-40.632 Z M69.096 11.291 H85.785 V-5.399 H69.096 V11.291 Z M69.096 -14.671 H85.785 V-31.36 H69.096 V-14.671 Z M69.096 -40.632 H85.785 V-57.321 H69.096 V-40.632 Z M69.096 -66.593 H85.785 V-83.282 H69.096 V-66.593 Z M107.715 11.291 H124.404 V-5.399 H107.715 V11.291 Z M107.715 -14.671 H124.404 V-31.36 H107.715 V-14.671 Z"/></g><g id="Medium-L" transform="matrix(1 0 0 1 1674.31 1556)"><path d="M19.893 21.873 V-67.943 H58.513 V-81.449 L77.4 -100.133 L96.407 -81.449 V-41.982 H135.026 V21.873 H19.893 Z M30.476 11.291 H47.166 V-5.399 H30.476 V11.291 Z M30.476 -14.671 H47.166 V-31.36 H30.476 V-14.671 Z M30.476 -40.632 H47.166 V-57.321 H30.476 V-40.632 Z M69.096 11.291 H85.785 V-5.399 H69.096 V11.291 Z M69.096 -14.671 H85.785 V-31.36 H69.096 V-14.671 Z M69.096 -40.632 H85.785 V-57.321 H69.096 V-40.632 Z M69.096 -66.593 H85.785 V-83.282 H69.096 V-66.593 Z M107.715 11.291 H124.404 V-5.399 H107.715 V11.291 Z M107.715 -14.671 H124.404 V-31.36 H107.715 V-14.671 Z"/></g><g id="Regular-L" transform="matrix(1 0 0 1 1378.56 1556)"><path d="M21.204 20.563 V-66.593 H59.824 V-81.025 L77.4 -98.359 L95.057 -81.025 V-40.632 H133.676 V20.563 H21.204 Z M30.476 11.291 H47.166 V-5.399 H30.476 V11.291 Z M30.476 -14.671 H47.166 V-31.36 H30.476 V-14.671 Z M30.476 -40.632 H47.166 V-57.321 H30.476 V-40.632 Z M69.096 11.291 H85.785 V-5.399 H69.096 V11.291 Z M69.096 -14.671 H85.785 V-31.36 H69.096 V-14.671 Z M69.096 -40.632 H85.785 V-57.321 H69.096 V-40.632 Z M69.096 -66.593 H85.785 V-83.282 H69.096 V-66.593 Z M107.715 11.291 H124.404 V-5.399 H107.715 V11.291 Z M107.715 -14.671 H124.404 V-31.36 H107.715 V-14.671 Z"/></g><g id="Light-L" transform="matrix(1 0 0 1 1082.77 1556)"><path d="M27.066 18.702 V-66.375 H60.878 V-84.56 L77.4 -100.499 L93.972 -84.56 V-40.414 H127.784 V18.702 H27.066 Z M34.135 11.632 H53.088 V-7.321 H34.135 V11.632 Z M34.135 -14.392 H53.088 V-33.345 H34.135 V-14.392 Z M34.135 -40.414 H53.088 V-59.306 H34.135 V-40.414 Z M67.948 11.632 H86.901 V-7.321 H67.948 V11.632 Z M67.948 -14.392 H86.901 V-33.345 H67.948 V-14.392 Z M67.948 -40.414 H86.901 V-59.306 H67.948 V-40.414 Z M67.948 -66.375 H86.901 V-85.329 H67.948 V-66.375 Z M101.76 11.632 H120.713 V-7.321 H101.76 V11.632 Z M101.76 -14.392 H120.713 V-33.345 H101.76 V-14.392 Z"/></g><g id="Thin-L" transform="matrix(1 0 0 1 787.282 1556)"><path d="M32.926 16.841 V-66.159 H61.933 V-88.096 L77.4 -102.639 L92.886 -88.096 V-40.198 H121.892 V16.841 H32.926 Z M37.794 11.973 H59.011 V-9.245 H37.794 V11.973 Z M37.794 -14.113 H59.011 V-35.33 H37.794 V-14.113 Z M37.794 -40.198 H59.011 V-61.291 H37.794 V-40.198 Z M66.801 11.973 H88.018 V-9.245 H66.801 V11.973 Z M66.801 -14.113 H88.018 V-35.33 H66.801 V-14.113 Z M66.801 -40.198 H88.018 V-61.291 H66.801 V-40.198 Z M66.801 -66.159 H88.018 V-87.375 H66.801 V-66.159 Z M95.807 11.973 H117.024 V-9.245 H95.807 V11.973 Z M95.807 -14.113 H117.024 V-35.33 H95.807 V-14.113 Z"/></g><g id="Ultralight-L" transform="matrix(1 0 0 1 491.205 1556)"><path d="M36.443 15.725 V-66.029 H62.565 V-90.216 L77.4 -103.922 L92.235 -90.216 V-40.067 H118.358 V15.725 H36.443 Z M39.99 12.178 H62.565 V-10.397 H39.99 V12.178 Z M39.99 -13.945 H62.565 V-36.52 H39.99 V-13.945 Z M39.99 -40.067 H62.565 V-62.481 H39.99 V-40.067 Z M66.112 12.178 H88.688 V-10.397 H66.112 V12.178 Z M66.112 -13.945 H88.688 V-36.52 H66.112 V-13.945 Z M66.112 -40.067 H88.688 V-62.481 H66.112 V-40.067 Z M66.112 -66.029 H88.688 V-88.604 H66.112 V-66.029 Z M92.235 12.178 H114.81 V-10.397 H92.235 V12.178 Z M92.235 -13.945 H114.81 V-36.52 H92.235 V-13.945 Z"/></g><g id="Bold-M" transform="matrix(1 0 0 1 2281.8 1126)"><path d="M12.125 12.02 V-65.105 H40.25 V-70.605 L60 -90.73 L79.875 -70.605 V-46.355 H108 V12.02 H12.125 Z M27.25 -3.105 H36.625 V-12.48 H27.25 V-3.105 Z M27.25 -21.855 H36.625 V-31.23 H27.25 V-21.855 Z M27.25 -40.605 H36.625 V-49.98 H27.25 V-40.605 Z M55.375 -3.105 H64.75 V-12.48 H55.375 V-3.105 Z M55.375 -21.855 H64.75 V-31.23 H55.375 V-21.855 Z M55.375 -40.605 H64.75 V-49.98 H55.375 V-40.605 Z M55.375 -59.355 H64.75 V-68.73 H55.375 V-59.355 Z M83.5 -3.105 H92.875 V-12.48 H83.5 V-3.105 Z M83.5 -21.855 H92.875 V-31.23 H83.5 V-21.855 Z"/></g><g id="Semibold-M" transform="matrix(1 0 0 1 1985.97 1126)"><path d="M14.625 9.52 V-62.605 H42.75 V-69.79 L60 -87.415 L77.375 -69.79 V-43.855 H105.5 V9.52 H14.625 Z M27.25 -3.105 H36.625 V-12.48 H27.25 V-3.105 Z M27.25 -21.855 H36.625 V-31.23 H27.25 V-21.855 Z M27.25 -40.605 H36.625 V-49.98 H27.25 V-40.605 Z M55.375 -3.105 H64.75 V-12.48 H55.375 V-3.105 Z M55.375 -21.855 H64.75 V-31.23 H55.375 V-21.855 Z M55.375 -40.605 H64.75 V-49.98 H55.375 V-40.605 Z M55.375 -59.355 H64.75 V-68.73 H55.375 V-59.355 Z M83.5 -3.105 H92.875 V-12.48 H83.5 V-3.105 Z M83.5 -21.855 H92.875 V-31.23 H83.5 V-21.855 Z"/></g><g id="Medium-M" transform="matrix(1 0 0 1 1689.91 1126)"><path d="M16.5 7.645 V-60.73 H44.625 V-69.179 L60 -84.929 L75.5 -69.179 V-41.98 H103.625 V7.645 H16.5 Z M27.25 -3.105 H36.625 V-12.48 H27.25 V-3.105 Z M27.25 -21.855 H36.625 V-31.23 H27.25 V-21.855 Z M27.25 -40.605 H36.625 V-49.98 H27.25 V-40.605 Z M55.375 -3.105 H64.75 V-12.48 H55.375 V-3.105 Z M55.375 -21.855 H64.75 V-31.23 H55.375 V-21.855 Z M55.375 -40.605 H64.75 V-49.98 H55.375 V-40.605 Z M55.375 -59.355 H64.75 V-68.73 H55.375 V-59.355 Z M83.5 -3.105 H92.875 V-12.48 H83.5 V-3.105 Z M83.5 -21.855 H92.875 V-31.23 H83.5 V-21.855 Z"/></g><g id="Regular-M" transform="matrix(1 0 0 1 1394.06 1126)"><path d="M17.875 6.27 V-59.355 H46 V-68.73 L60 -83.105 L74.125 -68.73 V-40.605 H102.25 V6.27 H17.875 Z M27.25 -3.105 H36.625 V-12.48 H27.25 V-3.105 Z M27.25 -21.855 H36.625 V-31.23 H27.25 V-21.855 Z M27.25 -40.605 H36.625 V-49.98 H27.25 V-40.605 Z M55.375 -3.105 H64.75 V-12.48 H55.375 V-3.105 Z M55.375 -21.855 H64.75 V-31.23 H55.375 V-21.855 Z M55.375 -40.605 H64.75 V-49.98 H55.375 V-40.605 Z M55.375 -59.355 H64.75 V-68.73 H55.375 V-59.355 Z M83.5 -3.105 H92.875 V-12.48 H83.5 V-3.105 Z M83.5 -21.855 H92.875 V-31.23 H83.5 V-21.855 Z"/></g><g id="Light-M" transform="matrix(1 0 0 1 1098.18 1126)"><path d="M22.419 4.828 V-59.139 H47.057 V-71.807 L60 -84.764 L73.044 -71.807 V-40.149 H97.683 V4.828 H22.419 Z M29.414 -2.167 H41.409 V-14.162 H29.414 V-2.167 Z M29.414 -21.157 H41.409 V-33.154 H29.414 V-21.157 Z M29.414 -40.149 H41.409 V-52.144 H29.414 V-40.149 Z M54.053 -2.167 H66.049 V-14.162 H54.053 V-2.167 Z M54.053 -21.157 H66.049 V-33.154 H54.053 V-21.157 Z M54.053 -40.149 H66.049 V-52.144 H54.053 V-40.149 Z M54.053 -59.139 H66.049 V-71.134 H54.053 V-59.139 Z M78.692 -2.167 H90.688 V-14.162 H78.692 V-2.167 Z M78.692 -21.157 H90.688 V-33.154 H78.692 V-21.157 Z"/></g><g id="Thin-M" transform="matrix(1 0 0 1 802.565 1126)"><path d="M26.961 3.385 V-58.922 H48.115 V-74.884 L60 -86.422 L71.961 -74.884 V-39.691 H93.115 V3.385 H26.961 Z M31.578 -1.23 H46.193 V-15.845 H31.578 V-1.23 Z M31.578 -20.461 H46.193 V-35.076 H31.578 V-20.461 Z M31.578 -39.691 H46.193 V-54.307 H31.578 V-39.691 Z M52.731 -1.23 H67.346 V-15.845 H52.731 V-1.23 Z M52.731 -20.461 H67.346 V-35.076 H52.731 V-20.461 Z M52.731 -39.691 H67.346 V-54.307 H52.731 V-39.691 Z M52.731 -58.922 H67.346 V-73.537 H52.731 V-58.922 Z M73.885 -1.23 H88.5 V-15.845 H73.885 V-1.23 Z M73.885 -20.461 H88.5 V-35.076 H73.885 V-20.461 Z"/></g><g id="Ultralight-M" transform="matrix(1 0 0 1 506.415 1126)"><path d="M29.688 2.52 V-58.792 H48.75 V-76.73 L60 -87.417 L71.312 -76.73 V-39.417 H90.375 V2.52 H29.688 Z M32.875 -0.667 H49.062 V-16.855 H32.875 V-0.667 Z M32.875 -20.042 H49.062 V-36.23 H32.875 V-20.042 Z M32.875 -39.417 H49.062 V-55.605 H32.875 V-39.417 Z M51.938 -0.667 H68.125 V-16.855 H51.938 V-0.667 Z M51.938 -20.042 H68.125 V-36.23 H51.938 V-20.042 Z M51.938 -39.417 H68.125 V-55.605 H51.938 V-39.417 Z M51.938 -58.792 H68.125 V-74.98 H51.938 V-58.792 Z M71 -0.667 H87.188 V-16.855 H71 V-0.667 Z M71 -20.042 H87.188 V-36.23 H71 V-20.042 Z"/></g><g id="Bold-S" transform="matrix(1 0 0 1 2294.23 696)"><path d="M11.934 4.417 V-50.911 H29.39 V-54.462 L47.34 -72.707 L65.388 -54.462 V-37.696 H82.845 V4.417 H11.934 Z M23.078 -6.727 H29.686 V-13.335 H23.078 V-6.727 Z M23.078 -19.943 H29.686 V-26.551 H23.078 V-19.943 Z M23.078 -33.159 H29.686 V-39.767 H23.078 V-33.159 Z M44.085 -6.727 H50.693 V-13.335 H44.085 V-6.727 Z M44.085 -19.943 H50.693 V-26.551 H44.085 V-19.943 Z M44.085 -33.159 H50.693 V-39.767 H44.085 V-33.159 Z M44.085 -46.375 H50.693 V-52.982 H44.085 V-46.375 Z M65.093 -6.727 H71.7 V-13.335 H65.093 V-6.727 Z M65.093 -19.943 H71.7 V-26.551 H65.093 V-19.943 Z"/></g><g id="Semibold-S" transform="matrix(1 0 0 1 1998.1 696)"><path d="M13.906 2.445 V-48.939 H31.363 V-53.819 L47.34 -70.092 L63.416 -53.819 V-35.723 H80.873 V2.445 H13.906 Z M23.078 -6.727 H29.686 V-13.335 H23.078 V-6.727 Z M23.078 -19.943 H29.686 V-26.551 H23.078 V-19.943 Z M23.078 -33.159 H29.686 V-39.767 H23.078 V-33.159 Z M44.085 -6.727 H50.693 V-13.335 H44.085 V-6.727 Z M44.085 -19.943 H50.693 V-26.551 H44.085 V-19.943 Z M44.085 -33.159 H50.693 V-39.767 H44.085 V-33.159 Z M44.085 -46.375 H50.693 V-52.982 H44.085 V-46.375 Z M65.093 -6.727 H71.7 V-13.335 H65.093 V-6.727 Z M65.093 -19.943 H71.7 V-26.551 H65.093 V-19.943 Z"/></g><g id="Medium-S" transform="matrix(1 0 0 1 1701.85 696)"><path d="M15.386 0.965 V-47.459 H32.842 V-53.337 L47.34 -68.13 L61.937 -53.337 V-34.244 H79.393 V0.965 H15.386 Z M23.078 -6.727 H29.686 V-13.335 H23.078 V-6.727 Z M23.078 -19.943 H29.686 V-26.551 H23.078 V-19.943 Z M23.078 -33.159 H29.686 V-39.767 H23.078 V-33.159 Z M44.085 -6.727 H50.693 V-13.335 H44.085 V-6.727 Z M44.085 -19.943 H50.693 V-26.551 H44.085 V-19.943 Z M44.085 -33.159 H50.693 V-39.767 H44.085 V-33.159 Z M44.085 -46.375 H50.693 V-52.982 H44.085 V-46.375 Z M65.093 -6.727 H71.7 V-13.335 H65.093 V-6.727 Z M65.093 -19.943 H71.7 V-26.551 H65.093 V-19.943 Z"/></g><g id="Regular-S" transform="matrix(1 0 0 1 1405.73 696)"><path d="M16.47 -0.119 V-46.375 H33.927 V-52.982 L47.34 -66.691 L60.852 -52.982 V-33.159 H78.308 V-0.119 H16.47 Z M23.078 -6.727 H29.686 V-13.335 H23.078 V-6.727 Z M23.078 -19.943 H29.686 V-26.551 H23.078 V-19.943 Z M23.078 -33.159 H29.686 V-39.767 H23.078 V-33.159 Z M44.085 -6.727 H50.693 V-13.335 H44.085 V-6.727 Z M44.085 -19.943 H50.693 V-26.551 H44.085 V-19.943 Z M44.085 -33.159 H50.693 V-39.767 H44.085 V-33.159 Z M44.085 -46.375 H50.693 V-52.982 H44.085 V-46.375 Z M65.093 -6.727 H71.7 V-13.335 H65.093 V-6.727 Z M65.093 -19.943 H71.7 V-26.551 H65.093 V-19.943 Z"/></g><g id="Light-S" transform="matrix(1 0 0 1 1109.75 696)"><path d="M20.055 -1.258 V-46.204 H34.761 V-55.411 L47.34 -68 L59.999 -55.411 V-32.799 H74.704 V-1.258 H20.055 Z M24.785 -5.988 H33.461 V-14.663 H24.785 V-5.988 Z M24.785 -19.393 H33.461 V-28.069 H24.785 V-19.393 Z M24.785 -32.799 H33.461 V-41.474 H24.785 V-32.799 Z M43.042 -5.988 H51.718 V-14.663 H43.042 V-5.988 Z M43.042 -19.393 H51.718 V-28.069 H43.042 V-19.393 Z M43.042 -32.799 H51.718 V-41.474 H43.042 V-32.799 Z M43.042 -46.204 H51.718 V-54.879 H43.042 V-46.204 Z M61.299 -5.988 H69.974 V-14.663 H61.299 V-5.988 Z M61.299 -19.393 H69.974 V-28.069 H61.299 V-19.393 Z"/></g><g id="Thin-S" transform="matrix(1 0 0 1 814.015 696)"><path d="M23.639 -2.396 V-46.033 H35.596 V-57.838 L47.34 -69.309 L59.144 -57.838 V-32.438 H71.101 V-2.396 H23.639 Z M26.493 -5.248 H37.235 V-15.99 H26.493 V-5.248 Z M26.493 -18.843 H37.235 V-29.586 H26.493 V-18.843 Z M26.493 -32.438 H37.235 V-43.181 H26.493 V-32.438 Z M41.999 -5.248 H52.742 V-15.99 H41.999 V-5.248 Z M41.999 -18.843 H52.742 V-29.586 H41.999 V-18.843 Z M41.999 -32.438 H52.742 V-43.181 H41.999 V-32.438 Z M41.999 -46.033 H52.742 V-56.776 H41.999 V-46.033 Z M57.506 -5.248 H68.249 V-15.99 H57.506 V-5.248 Z M57.506 -18.843 H68.249 V-29.586 H57.506 V-18.843 Z"/></g><g id="Ultralight-S" transform="matrix(1 0 0 1 517.792 696)"><path d="M25.79 -3.078 V-45.931 H36.097 V-59.294 L47.34 -70.094 L58.633 -59.294 V-32.222 H68.939 V-3.078 H25.79 Z M27.516 -4.804 H39.499 V-16.787 H27.516 V-4.804 Z M27.516 -18.513 H39.499 V-30.496 H27.516 V-18.513 Z M27.516 -32.222 H39.499 V-44.205 H27.516 V-32.222 Z M41.373 -4.804 H53.356 V-16.787 H41.373 V-4.804 Z M41.373 -18.513 H53.356 V-30.496 H41.373 V-18.513 Z M41.373 -32.222 H53.356 V-44.205 H41.373 V-32.222 Z M41.373 -45.931 H53.356 V-57.914 H41.373 V-45.931 Z M55.23 -4.804 H67.213 V-16.787 H55.23 V-4.804 Z M55.23 -18.513 H67.213 V-30.496 H55.23 V-18.513 Z"/></g></g></svg>