<svg xmlns="http://www.w3.org/2000/svg" height="40" viewBox="0 -960 960 960" width="40"><path d="m344.83-434.93-236-305.9q-5.5-6.5-7.83-14.23t-2.33-15.37q0-20.36 13.66-35.88 13.67-15.52 37.28-15.52H722.5q22.5 0 36.5 15.52t14 35.88q0 7.64-2.67 15.37-2.66 7.73-7.19 14.28L527.5-434.9v245.4q0 21.17-14.83 36-14.84 14.83-36 14.83H396q-21.83 0-36.5-14.83-14.67-14.83-14.67-36v-245.43Zm424.34 258.76L698-247l56.17-57.83H608.83v-101h145.34L698-461.67l71.17-71.83 177.5 179.17-177.5 178.16ZM436-484.17l180.83-235.66h-363L436-484.17Z"/></svg>