<svg xmlns="http://www.w3.org/2000/svg" height="40" width="40"><path d="M13.542 38.333V28.292H13q-4.5-.125-7.396-3.188-2.896-3.062-2.896-7.604 0-4.667 3.25-7.937 3.25-3.271 7.917-3.271h1.375l-2.667-2.667 2.459-2.458 6.875 6.875-6.875 6.916-2.459-2.458 2.667-2.708h-1.375q-3.167 0-5.417 2.271-2.25 2.27-2.25 5.437 0 3.167 2.146 5.417t5.271 2.25h3.417v4.75l4.75-4.75h4.333q3.208 0 5.458-2.25t2.25-5.459q0-3.166-2.271-5.416-2.27-2.25-5.437-2.25h-1.5v-3.5h1.5q4.667 0 7.937 3.25 3.271 3.25 3.271 7.916 0 4.667-3.271 7.938-3.27 3.271-7.937 3.271H23.25Z"/></svg>