<svg xmlns="http://www.w3.org/2000/svg" height="20" viewBox="0 -960 960 960" width="20"><path d="M266.31-184q-18.6 0-34.69-12.19-16.08-12.19-20.54-29.12-24-85.61-38.85-141.04-14.85-55.42-22.84-93.65-7.99-38.23-10.69-65.29Q136-552.35 136-580q0-70.08 52.46-121.04Q240.92-752 312-752h219q28-34 66-53t75-19q3.08 0 5.54 2.46T680-816q0 7.15-2.23 10.92-2.23 3.77-2.69 6.15-4.77 11.85-10.93 25.24-6.15 13.38-11.23 43.29L775.08-608h21.61q11.8 0 19.56 8.19 7.75 8.19 7.75 19.12v143.84q0 8.7-4.96 17.16t-13.66 9.92l-81.69 18.23-46.77 167.31q-5.63 18.65-20.6 29.44Q641.35-184 622.54-184h-44.92q-23.96 0-40.79-14.38Q520-212.77 520-236.62V-256H368v19.38q0 23.85-15.88 38.24Q336.23-184 312.38-184h-46.07Zm-.31-32h45.38q10.77 0 17.7-6.92 6.92-6.93 6.92-17.7V-288h216v47.38q0 10.77 6.92 17.7 6.93 6.92 17.7 6.92h45.92q8.46 0 15-4.62 6.54-4.61 8.84-13.07L698-421l94-21v-134h-30L624-714q0-16.66 2.88-36.21 2.89-19.56 8.66-36.02-25.69 6.23-48.85 26.15Q563.54-740.15 547-720H312q-57 0-100.5 43.5T168-576q0 52.46 18.96 133.08 18.96 80.61 53.66 207.69 2.3 8.46 9.61 13.85Q257.54-216 266-216Zm369.79-321.23q10.59 0 18.79-7.98 8.19-7.98 8.19-18.58 0-10.59-7.98-18.79-7.98-8.19-18.58-8.19-10.59 0-18.79 7.98-8.19 7.98-8.19 18.58 0 10.59 7.98 18.79 7.98 8.19 18.58 8.19ZM512-620q6.84 0 11.42-4.52t4.58-11.27q0-6.75-4.58-11.48T512-652H352q-6.84 0-11.42 4.52T336-636.21q0 6.75 4.58 11.48T352-620h160Zm-32 118Z"/></svg>