<svg xmlns="http://www.w3.org/2000/svg" height="40" width="40"><path d="m21.792 16.458-10.5-10.5q.583-.333 1.604-.583 1.021-.25 2.229-.25 3.25 0 5.417 2.146 2.166 2.146 2.166 5.479 0 1-.291 2.062-.292 1.063-.625 1.646ZM.583 36.167v-5.459q0-1.791.959-3.291.958-1.5 2.458-2.125 2.625-1.25 5.458-1.959 2.834-.708 5.667-.708.708 0 1.813.146 1.104.146 2.02.354l-3-2.958q-.166.083-.396.125-.229.041-.479.041-3.333 0-5.437-2.125T7.5 12.917q0-.292.062-.521.063-.229.105-.479L1.833 6.208 4.25 3.75l32.042 31.833-2.542 2.375-4.083-4.041v2.25Zm33.709-11.25-2.542-2.542q1.875-1.792 3-4.208 1.125-2.417 1.125-5.5 0-3.084-1.063-5.396-1.062-2.313-2.854-4.146l2.459-2.5q2.333 2.333 3.666 5.354Q39.417 9 39.417 12.667q0 3.791-1.396 6.895-1.396 3.105-3.729 5.355Zm-5.875-6.125-2.459-2.584q.667-.625 1.042-1.541.375-.917.375-1.917T27 10.875q-.375-.875-1-1.583l2.5-2.5q1.167 1.083 1.771 2.687.604 1.604.604 3.229 0 1.75-.646 3.375t-1.812 2.709ZM5 31.708h20.208v-.833q0-.375-.291-.958-.292-.584-.875-.792-2.167-1-4.354-1.542-2.188-.541-4.563-.541-2.375 0-4.604.562-2.229.563-4.396 1.521-.458.208-.792.75Q5 30.417 5 30.917Zm10.125 0Z"/></svg>