<svg xmlns="http://www.w3.org/2000/svg" height="20" viewBox="0 96 960 960" width="20"><path d="M631 942q-16.05 0-27.525-11.475Q592 919.05 592 903V761q0-9.25 6.825-16.125 6.824-6.875 16-6.875Q624 738 631 744.875T638 761v102q52-55 82.5-127.5t30.5-160q0-87.5-30.5-160.5T637 287v104q0 9.25-6.825 16.125-6.824 6.875-16 6.875Q605 414 598 407.125T591 391V249q0-16.05 11.475-27.525Q613.95 210 630 210h143q9.25 0 16.125 6.825 6.875 6.824 6.875 16Q796 242 789.125 249T773 256H673q56 64 90 145t34 176q0 95-34 175t-90 144h100q9.25 0 16.125 6.825 6.875 6.824 6.875 16Q796 928 789.125 935T773 942H631ZM212 797h81v-54h-81v54Zm118 0h84v-54h-84v54Zm-91.2-117q-7.493 0-12.272-4.947-4.778-4.947-4.778-11.796V647h-64.284q-7.193 0-11.33-4.398Q142 638.204 142 630.806q0-7.397 4.341-11.601Q150.682 615 157.773 615H222v-10.5q0-7.214 5.08-12.357Q232.16 587 239.194 587q7.503 0 12.634 5.143T256.959 605v10H367v-10.5q0-7.214 4.398-12.357Q375.796 587 382.994 587q7.606 0 12.806 5.143Q401 597.286 401 605v10h64.364q7.363 0 11.5 4.398Q481 623.796 481 631.194q0 7.397-4.341 11.601Q472.318 647 465.091 647H401v15q0 7.714-5.2 12.857-5.2 5.143-13 5.143t-11.958-4.265q-4.158-4.265-4.158-11.114V647H257v15q0 7.714-5.2 12.857-5.2 5.143-13 5.143ZM311 845q-19.308 27.057-50.576 45.826-31.268 18.77-82.046 36.174-9.268 4-17.537 1-8.268-3-13.674-9.526Q143 913 146.5 908t11.103-6.937q41.611-8.809 73.381-26.396Q262.754 857.079 281 829H154.565q-6.851 0-11.708-4.398T138 812.806q0-7.806 4.311-12.306 4.312-4.5 11.589-4.5H178v-67.2q0-8.8 5.6-13.8t14.222-5h94.934v-19.231q0-7.404 5.609-12.586Q303.974 673 311.987 673T325 678.183q5 5.182 5 12.586V710h100.226Q439 710 444 715t5 13.8V796h20.391q6.895 0 11.752 4.5Q486 805 486 813t-4.5 12q-4.5 4-12.242 4H339q29 29 62.5 47.5t66.039 25.571q6.747 2.02 11.104 6.49 4.357 4.469 1.175 10.216-5.818 7.568-13.961 10.395Q457.714 932 449 930q-40.619-8.346-75.81-30.173Q338 878 311 845Zm-9.905-321.25-31.695-2q-3.4.25-9.264-3.369-5.863-3.619-7.136-9.17-2-6.762 3.083-11.986Q261.166 492 269 492h21.828q14.172 0 24.672-5.436t16.5-21.231q7.077-14.672 9.538-40.705Q344 398.596 344 383q0-31.6-12.766-40.8-12.765-9.2-31.119-9.2H265q-11.913 45.906-29.051 89.431-17.139 43.525-41.915 87.369-4.034 7.2-11.86 9.7-7.826 2.5-16.025-.5-6.739-3.136-8.444-11.068Q156 500 161 493.699q22.667-38.683 38.553-76.733Q215.439 378.915 227 330h-64.987q-6.775 0-11.394-5.554T146 311.757q0-7.135 5.538-11.446Q157.077 296 164 296h71q5-13.482 7.5-27.5T247 240q1.895-8.522 6.947-13.261Q259 222 266.273 225 275 229 281 236.523q6 7.522 3 17.977-3 13.5-6.125 25T272 302h41.2q28.916 0 47.358 16.5Q379 335 379 376.443q0 21.131-3.957 49.719Q371.087 454.75 361 478q-6.906 18-12.703 25.5T333.25 517q-7.964 4.636-15.107 6.318-7.143 1.682-17.048.432ZM478.268 405q-8.731 3-17.5-.5-8.768-3.5-10.435-13.071Q444 367 432 345.5q-12-21.5-25.125-43.676-4.875-7.648-2.375-15.236Q407 279 413.619 277q8.381-3 15.56.833 7.178 3.834 11.453 11.834Q453 311 466.5 332q13.5 21 21.833 45 3.667 10 1.167 17.5T478.268 405Z"/></svg>