<svg xmlns="http://www.w3.org/2000/svg" height="48" viewBox="0 -960 960 960" width="48"><path d="m170-520 93-93q11-11 11-25.5T263-664q-11-11-25.5-11T212-664L93-546q-11 11.364-11 26.182Q82-505 93-495l119 119q11 12 25.5 11.5T263-376q11-11 11-25.5T263-428l-93-92Zm620 0-93 93q-11 11-11 25.5t11 25.5q11 11 25.5 11t26.5-11l119-119q10-10 10-24.818 0-14.818-10-26.182L749-665q-12-11-26-11t-25 11q-12 12-12 26.5t12 25.5l92 93ZM67-696v-87q0-28.638 22-50.819T140-856h680q28.638 0 50.819 22.181T893-783v87q0 14.775-10.675 25.388Q871.649-660 856.509-660q-15.141 0-25.825-10.612Q820-681.225 820-696v-87H140v87q0 14.75-10.675 25.375Q118.649-660 103.509-660q-15.14 0-25.825-10.612Q67-681.225 67-696Zm286 592q-15.75 0-26.375-10.625T316-141v-47H140q-29 0-51-22.181Q67-232.363 67-261v-94q0-15.026 10.86-26.013Q88.72-392 103.86-392t25.64 10.9Q140-370.2 140-355v94h680v-94q0-15.026 10.86-26.013Q841.719-392 856.86-392q15.14 0 25.64 10.9T893-355v94q0 28.637-22.181 50.819Q848.638-188 820-188H644v47q0 15.75-10.612 26.375Q622.775-104 608-104H353Zm127-419Z"/></svg>