<svg xmlns="http://www.w3.org/2000/svg" height="48" width="48"><path d="m33.7 37.25-3.35-3.35q-.25-.2-.5-.2t-.45.2q-.25.25-.25.525t.25.525l4.3 4.3q.3.35.75.35t.75-.35l4.3-4.3q.25-.25.25-.525t-.25-.525q-.2-.25-.475-.25-.275 0-.525.25l-3.3 3.35V29.5q0-.3-.225-.525-.225-.225-.525-.225-.3 0-.525.25-.225.25-.225.5Zm-27.45.35v-8.85q0-.5.325-.875t.775-.475l13.7-3.45-13.7-3.45q-.45-.1-.775-.475T6.25 19.1v-8.75q0-.75.65-1.15.65-.4 1.35-.15l31.2 13.15h-4.9q-4.7 0-8.2 3.05-3.5 3.05-4.05 7.75L8.25 38.9q-.7.3-1.35-.1-.65-.4-.65-1.2Zm28.2 6.1q-3.85 0-6.6-2.7-2.75-2.7-2.75-6.55 0-3.9 2.75-6.65 2.75-2.75 6.55-2.75 3.85 0 6.6 2.75 2.75 2.75 2.75 6.65 0 3.8-2.75 6.525-2.75 2.725-6.55 2.725Z"/></svg>