<svg xmlns="http://www.w3.org/2000/svg" height="20" viewBox="0 -960 960 960" width="20"><path d="M312-554.769ZM409.231-104v-247.538q0-40.044 12.154-75.522 12.153-35.478 37.538-65.402l44.308 45.308q-14.46 19.136-22.538 43.785-8.078 24.648-8.078 51.831v62.153H538V-104H409.231ZM104-152v-637.385h58V-210h159.846v58H104Zm454.154-340.692-46.539-46.539q26.894-17.679 57.478-26.685 30.585-9.007 63.522-9.007 93.744 0 158.565 64.82Q856-445.282 856-351.538v156.692l-63.385-63.385v-93.307q0-66.667-46.666-113.334-46.667-46.666-113.334-46.666-20.205 0-39.064 5.154-18.859 5.153-35.397 13.692ZM321.846-269.461q-45.594-11.155-75.759-50.616-30.164-39.461-30.164-89 0-60.358 42.667-103.025 42.667-42.667 103.025-42.667 8.711 0 17.471 4.192t10.376 3.808q-9.821 10.029-16.411 22.36-6.589 12.332-12.743 25.102-.5.769.487 1.653.987.885.82.885-36.538 0-62.115 25.577-25.577 25.577-25.577 62.115 0 26.923 13.731 47.846t35.885 33.539q-.462-2.462-1.077-3.039-.616-.577-.616-2.038v63.308Zm-69-528.539-58-58h424.385v195.769q-15.016 1.297-29.665 1.746-14.649.448-28.335 3.485v-143H252.846Zm204.231 96.615Zm340.077 632.77L60.846-805.923l42.308-42.308 736.308 737.308-42.308 42.308Z"/></svg>