<svg xmlns="http://www.w3.org/2000/svg" height="40" viewBox="0 96 960 960" width="40"><path d="M378.48 657.051h162.784q16.812 0 29.094-11.756t12.282-29.256v-30.884l81.846 51.768V432.309l-81.846 50.487v-30.189q0-16.529-12.29-28.811t-29.114-12.282H378.338q-17.308 0-29.271 12.29-11.963 12.29-11.963 29.115v162.897q0 17.308 12.04 29.271 12.04 11.964 29.336 11.964ZM480 1025.36V882.485q-74.513 0-141.371-28.064t-117.537-75.576q-50.68-47.513-80.038-110.273-29.359-62.76-29.359-134.246 0-76.777 28.835-143.83 28.835-67.052 78.824-116.787 49.989-49.734 116.861-78.733 66.872-28.999 143.444-28.999 76.571 0 143.815 28.971 67.243 28.97 117.067 78.794 49.823 49.823 78.794 116.924 28.97 67.1 28.97 143.616 0 139.256-99.243 271.858Q649.819 938.741 480 1025.36Zm81.846-147.516q97.948-73.485 151.281-162.784 53.333-89.298 53.333-180.454 0-118.81-83.567-202.796-83.566-83.987-202.806-83.987-119.24 0-202.893 84.025-83.654 84.025-83.654 202.362 0 107.713 85.938 186.955Q365.416 800.407 480 800.407h81.846v77.437ZM480 562.641Z"/></svg>