<svg xmlns="http://www.w3.org/2000/svg" height="48" viewBox="0 96 960 960" width="48"><path d="M255.846 934.846q-22.411 0-38.609-16.198-16.199-16.198-16.199-38.44V271.062q0-21.48 16.199-37.944 16.198-16.464 38.457-16.464h449.323q21.517 0 37.981 16.464 16.464 16.464 16.464 38.343v319.77q0 6.846-4.401 11.192-4.4 4.346-11.327 4.346-6.926 0-10.695-4.346-3.77-4.346-3.77-11.192v-319.77q0-10.384-7.115-17.5-7.115-7.115-17.5-7.115H255.846q-10.769 0-17.692 7.115-6.923 7.116-6.923 17.5v608.578q0 10.769 6.923 17.692t17.692 6.923h240.385q5.829 0 10.241 4.467 4.413 4.467 4.413 10.376 0 6.926-4.413 11.138-4.412 4.211-10.241 4.211H255.846Zm368.462 0q-12.231 0-20.039-7.807-7.808-7.808-7.808-20.039V719.308q0-11.214 7.808-19.088 7.808-7.874 20.039-7.874H732q11.214 0 19.088 7.874 7.874 7.874 7.874 19.088V907q0 12.231-7.874 20.039-7.874 7.807-19.088 7.807H624.308Zm-113.423-30.192H255.846q-10.769 0-17.692-6.923t-6.923-17.692V271.461q0-10.384 6.923-17.5 6.923-7.115 17.692-7.115h448.808q10.385 0 17.5 7.115 7.115 7.116 7.115 17.5v335.308H565.692q-22.204 0-38.506 16.302-16.301 16.302-16.301 38.506v243.077Z"/></svg>