<svg xmlns="http://www.w3.org/2000/svg" height="48" viewBox="0 96 960 960" width="48"><path d="M504.391 708.739 348.478 552.826 691.487 210.3q9.81-9.713 23.297-9.713t23.716 9.695l108.435 108.435q9.696 10.309 9.696 23.796t-9.713 23.217L504.391 708.739Zm0-90.348 275.827-276.565L715.391 277 438.826 552.826l65.565 65.565Zm-59.717 321.37 64.957-63.957h372.717v63.957H444.674Zm-241.831 0q-47.734 0-91.158-19.294-43.424-19.293-77.098-52.237L305 598.087l107.257 106.518q14.223 14.834 22.613 33.742 8.391 18.907 8.391 39.758 0 20.852-8.383 40.142-8.382 19.291-22.552 34.079l-19.5 19.186q-32.961 32.785-75.958 50.517-42.996 17.732-89.846 17.732h-24.179Zm.157-63.957h23.724q34.154 0 65.617-12.624 31.463-12.625 55.702-36.897l21.414-21.413q11.304-11.21 9.804-27.323-1.5-16.112-12.804-27.656L305 688.435 128.891 864.022q17.952 6.261 36.564 9.021 18.612 2.761 37.545 2.761Zm577.218-533.978L715.391 277l64.827 64.826ZM305 688.435Z"/></svg>