<svg xmlns="http://www.w3.org/2000/svg" version="1.1" width="3300" height="2000"><g id="Notes"><style>
    text {
      font-family: monospace;
      text-anchor: middle;
    }
    text.emphasis {
      font-weight:bold;
    }
    text.lanchor {
      text-anchor: start;
    }
  </style><rect height="2200" id="artboard" fill="white" width="3300" x="0" y="0"/><line id="" style="fill:none;stroke:black;stroke-width:0.5;" x1="263" x2="3036" y1="292" y2="292"/><text class="lanchor emphasis" transform="matrix(1 0 0 1 263 322)">Weight/Scale Variations</text><text transform="matrix(1 0 0 1 559.711 322)">Ultralight</text><text transform="matrix(1 0 0 1 856.422 322)">Thin</text><text transform="matrix(1 0 0 1 1153.13 322)">Light</text><text transform="matrix(1 0 0 1 1449.84 322)">Regular</text><text transform="matrix(1 0 0 1 1746.56 322)">Medium</text><text transform="matrix(1 0 0 1 2043.27 322)">Semibold</text><text transform="matrix(1 0 0 1 2339.98 322)">Bold</text><text transform="matrix(1 0 0 1 2636.69 322)">Heavy</text><text transform="matrix(1 0 0 1 2933.4 322)">Black</text><text id="template-version" style="text-anchor: end;" transform="matrix(1 0 0 1 3036 1933)">Template v.1.0</text><text class="lanchor" transform="matrix(1 0 0 1 263 726)">Small</text><text class="lanchor" transform="matrix(1 0 0 1 263 1156)">Medium</text><text class="lanchor" transform="matrix(1 0 0 1 263 1586)">Large</text></g><g id="Guides"><g id="H-reference" style="fill:#27AAE1;stroke:none;" transform="matrix(1 0 0 1 339 696)"><path d="M 54.9316 0 L 57.666 0 L 30.5664 -70.459 L 28.0762 -70.459 L 0.976562 0 L 3.66211 0 L 12.9395 -24.4629 L 45.7031 -24.4629 Z M 29.1992 -67.0898 L 29.4434 -67.0898 L 44.8242 -26.709 L 13.8184 -26.709 Z"/></g><line id="Baseline-S" style="fill:none;stroke:#27AAE1;opacity:1;stroke-width:0.577;" x1="263" x2="3036" y1="696" y2="696"/><line id="Capline-S" style="fill:none;stroke:#27AAE1;opacity:1;stroke-width:0.577;" x1="263" x2="3036" y1="625.541" y2="625.541"/><g id="H-reference" style="fill:#27AAE1;stroke:none;" transform="matrix(1 0 0 1 339 1126)"><path d="M 54.9316 0 L 57.666 0 L 30.5664 -70.459 L 28.0762 -70.459 L 0.976562 0 L 3.66211 0 L 12.9395 -24.4629 L 45.7031 -24.4629 Z M 29.1992 -67.0898 L 29.4434 -67.0898 L 44.8242 -26.709 L 13.8184 -26.709 Z"/></g><line id="Baseline-M" style="fill:none;stroke:#27AAE1;opacity:1;stroke-width:0.577;" x1="263" x2="3036" y1="1126" y2="1126"/><line id="Capline-M" style="fill:none;stroke:#27AAE1;opacity:1;stroke-width:0.577;" x1="263" x2="3036" y1="1055.54" y2="1055.54"/><g id="H-reference" style="fill:#27AAE1;stroke:none;" transform="matrix(1 0 0 1 339 1556)"><path d="M 54.9316 0 L 57.666 0 L 30.5664 -70.459 L 28.0762 -70.459 L 0.976562 0 L 3.66211 0 L 12.9395 -24.4629 L 45.7031 -24.4629 Z M 29.1992 -67.0898 L 29.4434 -67.0898 L 44.8242 -26.709 L 13.8184 -26.709 Z"/></g><line id="Baseline-L" style="fill:none;stroke:#27AAE1;opacity:1;stroke-width:0.577;" x1="263" x2="3036" y1="1556" y2="1556"/><line id="Capline-L" style="fill:none;stroke:#27AAE1;opacity:1;stroke-width:0.577;" x1="263" x2="3036" y1="1485.54" y2="1485.54"/><rect height="119.336" id="left-margin" style="fill:darkred;stroke:none;opacity:0.4;" width="12.4512" x="1394.06" y="1030.79"/><rect height="119.336" id="right-margin" style="fill:darkgreen;stroke:none;opacity:0.4;" width="12.4512" x="1502.5112" y="1030.79"/><rect x="1406.5112" y="1045" width="96" height="96" fill="none" stroke="blue" stroke-dasharray="5"/><rect x="1394.06" y="1030.79" width="120.9024" height="119.336" fill="none" stroke="blue"/></g><g id="Symbols"><g id="Bold-L" transform="matrix(1 0 0 1 2266 1556)"><path d="M39.506 32.495 Q26.859 32.495 17.946 23.881 Q9.03 15.269 9.03 2.849 Q9.03 -4.86 12.698 -11.499 Q16.367 -18.137 22.736 -22.088 H9.836 V-34.585 H49.262 V4.841 H36.926 V-14.671 Q30.438 -13.643 25.982 -8.788 Q21.527 -3.931 21.527 2.648 Q21.527 9.889 26.776 15.024 Q32.023 20.159 39.506 20.159 V32.495 Z M45.876 -57.321 H109.086 V-66.593 H45.876 V-57.321 Z M58.534 26.126 V-4.109 H89.574 V-13.434 H58.534 V-30.581 H109.086 V-39.906 H58.534 V-43.857 H16.044 V-96.747 H138.917 V26.126 H58.534 Z"/></g><g id="Semibold-L" transform="matrix(1 0 0 1 1970.27 1556)"><path d="M40.488 30.742 Q28.122 30.742 19.418 22.252 Q10.712 13.761 10.712 1.517 Q10.712 -6.532 14.661 -13.245 Q18.61 -19.96 25.331 -23.77 H11.518 V-34.866 H49.052 V2.667 H38.049 V-16.914 Q31.191 -15.983 26.498 -10.82 Q21.807 -5.657 21.807 1.322 Q21.807 8.978 27.263 14.358 Q32.718 19.739 40.488 19.739 V30.742 Z M45.526 -57.602 H109.366 V-66.874 H45.526 V-57.602 Z M58.324 24.373 V-3.759 H89.224 V-13.06 H58.324 V-30.604 H109.366 V-39.906 H58.324 V-44.137 H17.797 V-94.925 H137.095 V24.373 H58.324 Z"/></g><g id="Medium-L" transform="matrix(1 0 0 1 1674.31 1556)"><path d="M41.224 29.428 Q29.069 29.428 20.521 21.03 Q11.974 12.631 11.974 0.519 Q11.974 -7.785 16.133 -14.556 Q20.293 -21.327 27.275 -25.033 H12.781 V-35.075 H48.894 V1.037 H38.889 V-18.597 Q31.755 -17.738 26.887 -12.344 Q22.017 -6.95 22.017 0.329 Q22.017 8.295 27.629 13.859 Q33.238 19.422 41.224 19.422 V29.428 Z M45.263 -57.811 H109.576 V-67.083 H45.263 V-57.811 Z M58.166 23.059 V-3.496 H88.962 V-12.781 H58.166 V-30.621 H109.576 V-39.906 H58.166 V-44.347 H19.111 V-93.557 H135.727 V23.059 H58.166 Z"/></g><g id="Regular-L" transform="matrix(1 0 0 1 1378.56 1556)"><path d="M41.764 28.464 Q29.762 28.464 21.332 20.134 Q12.9 11.802 12.9 -0.215 Q12.9 -8.704 17.213 -15.517 Q21.527 -22.33 28.703 -25.958 H13.706 V-35.23 H48.778 V-0.158 H39.506 V-19.831 Q32.169 -19.024 27.171 -13.461 Q22.172 -7.898 22.172 -0.4 Q22.172 7.793 27.896 13.492 Q33.621 19.192 41.764 19.192 V28.464 Z M45.069 -57.966 H109.731 V-67.238 H45.069 V-57.966 Z M58.05 22.094 V-3.302 H88.768 V-12.574 H58.05 V-30.634 H109.731 V-39.906 H58.05 V-44.502 H20.076 V-92.554 H134.724 V22.094 H58.05 Z"/></g><g id="Light-L" transform="matrix(1 0 0 1 1082.77 1556)"><path d="M43.904 25.548 Q32.353 25.548 24.239 17.536 Q16.125 9.522 16.125 -2.043 Q16.125 -10.441 20.625 -17.284 Q25.124 -24.128 32.548 -27.292 H16.622 V-34.361 H48.003 V-2.98 H40.933 V-22.683 Q33.409 -21.603 28.303 -15.761 Q23.196 -9.917 23.196 -2.237 Q23.196 6.439 29.26 12.458 Q35.327 18.479 43.904 18.479 V25.548 Z M46.651 -58.648 H108.149 V-65.719 H46.651 V-58.648 Z M59.538 19.148 V-4.791 H87.62 V-11.862 H59.538 V-31.72 H108.149 V-38.79 H59.538 V-45.897 H23.022 V-89.608 H131.778 V19.148 H59.538 Z"/></g><g id="Thin-L" transform="matrix(1 0 0 1 787.282 1556)"><path d="M46.043 22.635 Q34.944 22.635 27.146 14.938 Q19.35 7.24 19.35 -3.873 Q19.35 -12.179 24.036 -19.053 Q28.722 -25.927 36.393 -28.625 H19.535 V-33.493 H47.227 V-5.802 H42.359 V-25.536 Q34.649 -24.18 29.433 -18.058 Q24.218 -11.936 24.218 -4.075 Q24.218 5.084 30.625 11.424 Q37.031 17.765 46.043 17.765 V22.635 Z M48.233 -59.33 H106.567 V-64.199 H48.233 V-59.33 Z M61.027 16.202 V-6.279 H86.474 V-11.147 H61.027 V-32.805 H106.567 V-37.673 H61.027 V-47.293 H25.968 V-86.662 H128.832 V16.202 H61.027 Z"/></g><g id="Ultralight-L" transform="matrix(1 0 0 1 491.205 1556)"><path d="M47.327 20.885 Q36.499 20.885 28.893 13.379 Q21.285 5.873 21.285 -4.971 Q21.285 -13.221 26.082 -20.114 Q30.879 -27.006 38.7 -29.425 H21.285 V-32.972 H46.763 V-7.495 H43.215 V-27.248 Q35.393 -25.728 30.112 -19.437 Q24.832 -13.148 24.832 -5.176 Q24.832 4.27 31.444 10.804 Q38.055 17.338 47.327 17.338 V20.885 Z M49.181 -59.74 H105.619 V-63.287 H49.181 V-59.74 Z M61.92 14.435 V-7.172 H85.785 V-10.72 H61.92 V-33.456 H105.619 V-37.004 H61.92 V-48.13 H27.735 V-84.895 H127.065 V14.435 H61.92 Z"/></g><g id="Bold-M" transform="matrix(1 0 0 1 2281.8 1126)"><path d="M31.688 17.77 Q21.192 17.77 13.909 10.639 Q6.625 3.508 6.625 -6.644 Q6.625 -12.917 9.562 -18.199 Q12.5 -23.48 17.5 -26.855 H7.25 V-39.48 H41.125 V-5.605 H28.5 V-18.292 Q24.5 -17.23 21.875 -14.106 Q19.25 -10.982 19.25 -6.792 Q19.25 -1.911 22.895 1.616 Q26.54 5.145 31.688 5.145 V17.77 Z M36.375 -49.48 H83.625 V-58.855 H36.375 V-49.48 Z M50.5 12.895 V-11.73 H70.375 V-21.105 H50.5 V-30.605 H83.625 V-39.98 H50.5 V-48.855 H11.875 V-83.355 H108.125 V12.895 H50.5 Z"/></g><g id="Semibold-M" transform="matrix(1 0 0 1 1985.97 1126)"><path d="M32.72 15.923 Q22.551 15.923 15.457 8.918 Q8.364 1.914 8.364 -8.056 Q8.364 -14.656 11.6 -20.046 Q14.836 -25.436 20.218 -28.594 H8.989 V-39.806 H40.907 V-7.887 H29.695 V-20.629 Q25.315 -19.621 22.445 -16.184 Q19.576 -12.747 19.576 -8.151 Q19.576 -2.836 23.43 0.938 Q27.284 4.71 32.72 4.71 V15.923 Z M36.049 -49.806 H83.951 V-59.181 H36.049 V-49.806 Z M50.282 11.048 V-11.404 H70.049 V-20.779 H50.282 V-30.605 H83.951 V-39.98 H50.282 V-49.181 H13.723 V-81.507 H106.278 V11.048 H50.282 Z"/></g><g id="Medium-M" transform="matrix(1 0 0 1 1689.91 1126)"><path d="M33.495 14.536 Q23.57 14.536 16.619 7.628 Q9.669 0.719 9.669 -9.116 Q9.669 -15.961 13.129 -21.432 Q16.59 -26.904 22.255 -29.899 H10.294 V-40.051 H40.745 V-9.6 H30.593 V-22.382 Q25.926 -21.415 22.874 -17.742 Q19.821 -14.071 19.821 -9.17 Q19.821 -3.529 23.831 0.428 Q27.841 4.384 33.495 4.384 V14.536 Z M35.804 -50.051 H84.196 V-59.426 H35.804 V-50.051 Z M50.12 9.661 V-11.159 H69.804 V-20.534 H50.12 V-30.605 H84.196 V-39.98 H50.12 V-49.426 H15.109 V-80.121 H104.891 V9.661 H50.12 Z"/></g><g id="Regular-M" transform="matrix(1 0 0 1 1394.06 1126)"><path d="M34.062 13.52 Q24.317 13.52 17.471 6.681 Q10.625 -0.159 10.625 -9.894 Q10.625 -16.917 14.25 -22.449 Q17.875 -27.98 23.75 -30.855 H11.25 V-40.23 H40.625 V-10.855 H31.25 V-23.667 Q26.375 -22.73 23.188 -18.886 Q20 -15.042 20 -9.917 Q20 -4.036 24.125 0.054 Q28.25 4.145 34.062 4.145 V13.52 Z M35.625 -50.23 H84.375 V-59.605 H35.625 V-50.23 Z M50 8.645 V-10.98 H69.625 V-20.355 H50 V-30.605 H84.375 V-39.98 H50 V-49.605 H16.125 V-79.105 H103.875 V8.645 H50 Z"/></g><g id="Light-M" transform="matrix(1 0 0 1 1098.18 1126)"><path d="M35.385 11.26 Q26.13 11.26 19.628 4.779 Q13.125 -1.702 13.125 -10.927 Q13.125 -17.784 16.823 -23.219 Q20.52 -28.654 26.442 -31.215 H13.51 V-38.21 H39.351 V-12.37 H32.356 V-25.927 Q27.047 -24.872 23.584 -20.692 Q20.12 -16.511 20.12 -11.005 Q20.12 -4.61 24.581 -0.172 Q29.044 4.265 35.385 4.265 V11.26 Z M36.755 -51.48 H83.245 V-58.475 H36.755 V-51.48 Z M49.807 6.361 V-12.086 H68.448 V-19.081 H49.807 V-31.782 H83.245 V-38.777 H49.807 V-48.667 H18.409 V-76.821 H101.591 V6.361 H49.807 Z"/></g><g id="Thin-M" transform="matrix(1 0 0 1 802.565 1126)"><path d="M36.706 9.001 Q27.941 9.001 21.782 2.878 Q15.625 -3.245 15.625 -11.961 Q15.625 -18.649 19.394 -23.987 Q23.164 -29.326 29.135 -31.576 H15.769 V-36.191 H38.078 V-13.884 H33.461 V-28.186 Q27.72 -27.015 23.98 -22.497 Q20.24 -17.98 20.24 -12.092 Q20.24 -5.182 25.039 -0.399 Q29.836 4.385 36.706 4.385 V9.001 Z M37.885 -52.73 H82.115 V-57.345 H37.885 V-52.73 Z M49.615 4.078 V-13.191 H67.269 V-17.807 H49.615 V-32.961 H82.115 V-37.576 H49.615 V-47.73 H20.692 V-74.537 H99.308 V4.078 H49.615 Z"/></g><g id="Ultralight-M" transform="matrix(1 0 0 1 506.415 1126)"><path d="M37.5 7.645 Q29.029 7.645 23.076 1.738 Q17.125 -4.171 17.125 -12.581 Q17.125 -19.169 20.938 -24.45 Q24.75 -29.73 30.75 -31.792 H17.125 V-34.98 H37.312 V-14.792 H34.125 V-29.542 Q28.124 -28.301 24.218 -23.581 Q20.312 -18.862 20.312 -12.745 Q20.312 -5.526 25.312 -0.535 Q30.312 4.458 37.5 4.458 V7.645 Z M38.562 -53.48 H81.438 V-56.667 H38.562 V-53.48 Z M49.5 2.708 V-13.855 H66.562 V-17.042 H49.5 V-33.667 H81.438 V-36.855 H49.5 V-47.167 H22.062 V-73.167 H97.938 V2.708 H49.5 Z"/></g><g id="Bold-S" transform="matrix(1 0 0 1 2294.23 696)"><path d="M22.437 5.009 Q14.058 5.009 8.311 -0.618 Q2.564 -6.244 2.564 -14.352 Q2.564 -19.105 4.734 -23.272 Q6.904 -27.439 10.553 -30.2 H2.564 V-39.372 H29.292 V-12.645 H20.12 V-24.726 Q16.47 -23.888 14.103 -21.128 Q11.736 -18.367 11.736 -14.568 Q11.736 -10.305 14.81 -7.234 Q17.883 -4.163 22.437 -4.163 V5.009 Z M29.489 -46.473 H65.191 V-53.081 H29.489 V-46.473 Z M35.9 0.374 V-17.477 H57.104 V-24.085 H35.9 V-31.975 H65.191 V-38.583 H35.9 V-45.98 H11.736 V-70.834 H82.944 V0.374 H35.9 Z"/></g><g id="Semibold-S" transform="matrix(1 0 0 1 1998.1 696)"><path d="M23.252 3.551 Q15.13 3.551 9.533 -1.976 Q3.936 -7.502 3.936 -15.467 Q3.936 -20.477 6.342 -24.729 Q8.747 -28.982 12.697 -31.572 H3.936 V-39.63 H29.12 V-14.446 H21.062 V-26.57 Q17.113 -25.775 14.553 -22.767 Q11.994 -19.76 11.994 -15.64 Q11.994 -11.033 15.232 -7.77 Q18.47 -4.506 23.252 -4.506 V3.551 Z M29.231 -46.731 H65.449 V-53.339 H29.231 V-46.731 Z M35.728 -1.084 V-17.22 H56.846 V-23.828 H35.728 V-31.975 H65.449 V-38.583 H35.728 V-46.238 H13.194 V-69.376 H81.486 V-1.084 H35.728 Z"/></g><g id="Medium-S" transform="matrix(1 0 0 1 1701.85 696)"><path d="M23.863 2.458 Q15.934 2.458 10.449 -2.993 Q4.966 -8.444 4.966 -16.303 Q4.966 -21.506 7.548 -25.823 Q10.131 -30.14 14.305 -32.602 H4.966 V-39.823 H28.992 V-15.797 H21.77 V-27.953 Q17.596 -27.19 14.891 -23.997 Q12.187 -20.804 12.187 -16.444 Q12.187 -11.581 15.548 -8.172 Q18.909 -4.764 23.863 -4.764 V2.458 Z M29.038 -46.924 H65.642 V-53.532 H29.038 V-46.924 Z M35.6 -2.178 V-17.027 H56.653 V-23.635 H35.6 V-31.975 H65.642 V-38.583 H35.6 V-46.431 H14.288 V-68.282 H80.392 V-2.178 H35.6 Z"/></g><g id="Regular-S" transform="matrix(1 0 0 1 1405.73 696)"><path d="M24.311 1.656 Q16.524 1.656 11.122 -3.74 Q5.72 -9.137 5.72 -16.916 Q5.72 -22.261 8.432 -26.625 Q11.145 -30.989 15.484 -33.356 H5.72 V-39.964 H28.897 V-16.787 H22.289 V-28.967 Q17.95 -28.228 15.139 -24.899 Q12.328 -21.57 12.328 -17.034 Q12.328 -11.981 15.78 -8.467 Q19.232 -4.952 24.311 -4.952 V1.656 Z M28.897 -47.065 H65.783 V-53.673 H28.897 V-47.065 Z M35.505 -2.98 V-16.886 H56.512 V-23.494 H35.505 V-31.975 H65.783 V-38.583 H35.505 V-46.572 H15.09 V-67.48 H79.59 V-2.98 H35.505 Z"/></g><g id="Light-S" transform="matrix(1 0 0 1 1109.75 696)"><path d="M25.355 -0.127 Q17.954 -0.127 12.823 -5.241 Q7.693 -10.355 7.693 -17.732 Q7.693 -22.944 10.462 -27.232 Q13.232 -31.521 17.609 -33.64 H7.503 V-38.37 H27.892 V-17.982 H23.162 V-30.75 Q18.48 -29.918 15.452 -26.324 Q12.423 -22.729 12.423 -17.892 Q12.423 -12.434 16.14 -8.646 Q19.858 -4.857 25.355 -4.857 V-0.127 Z M29.789 -48.051 H64.891 V-52.781 H29.789 V-48.051 Z M35.353 -4.782 V-17.759 H55.583 V-22.489 H35.353 V-32.904 H64.891 V-37.634 H35.353 V-45.832 H16.892 V-65.678 H77.788 V-4.782 H35.353 Z"/></g><g id="Thin-S" transform="matrix(1 0 0 1 814.015 696)"><path d="M26.397 -1.91 Q19.383 -1.91 14.524 -6.741 Q9.665 -11.572 9.665 -18.548 Q9.665 -23.627 12.491 -27.839 Q15.317 -32.051 19.733 -33.925 H9.286 V-36.777 H26.887 V-19.177 H24.034 V-32.533 Q19.011 -31.608 15.764 -27.748 Q12.517 -23.888 12.517 -18.75 Q12.517 -12.886 16.501 -8.824 Q20.483 -4.763 26.397 -4.763 V-1.91 Z M30.68 -49.037 H64 V-51.89 H30.68 V-49.037 Z M35.201 -6.583 V-18.63 H54.653 V-21.484 H35.201 V-33.834 H64 V-36.687 H35.201 V-45.092 H18.693 V-63.877 H75.987 V-6.583 H35.201 Z"/></g><g id="Ultralight-S" transform="matrix(1 0 0 1 517.792 696)"><path d="M27.023 -2.98 Q20.241 -2.98 15.544 -7.641 Q10.849 -12.303 10.849 -19.037 Q10.849 -24.037 13.709 -28.204 Q16.569 -32.37 21.007 -34.096 H10.356 V-35.822 H26.284 V-19.894 H24.558 V-33.603 Q19.33 -32.623 15.952 -28.603 Q12.575 -24.584 12.575 -19.265 Q12.575 -13.157 16.717 -8.932 Q20.859 -4.706 27.023 -4.706 V-2.98 Z M31.215 -49.629 H63.465 V-51.355 H31.215 V-49.629 Z M35.111 -7.664 V-19.154 H54.096 V-20.88 H35.111 V-34.392 H63.465 V-36.118 H35.111 V-44.649 H19.774 V-62.796 H74.906 V-7.664 H35.111 Z"/></g></g></svg>