<svg xmlns="http://www.w3.org/2000/svg" height="24" width="24"><path d="M10.575 17.725H7.05Q4.675 17.725 3.025 16.062Q1.375 14.4 1.375 12.05Q1.375 9.7 3.025 8.037Q4.675 6.375 7.05 6.375H10.575V9.4H7.05Q5.95 9.4 5.175 10.175Q4.4 10.95 4.4 12.05Q4.4 13.15 5.175 13.925Q5.95 14.7 7.05 14.7H10.575ZM7.475 13.175V10.9H16.5V13.175ZM22.6 12.025H19.575Q19.575 10.925 18.788 10.15Q18 9.375 16.9 9.375H13.4V6.35H16.925Q19.275 6.35 20.938 8.012Q22.6 9.675 22.6 12.025ZM17.425 20.7V17.925H14.675V15.675H17.425V12.925H19.7V15.675H22.45V17.925H19.7V20.7Z"/></svg>