<svg xmlns="http://www.w3.org/2000/svg" height="48" width="48"><path d="m16.95 37.4 5-8h-3v-6l-5 8h3Zm-5.25-16h12.45V11.3q0-.6-.5-1.1-.5-.5-1.1-.5H13.3q-.6 0-1.1.5-.5.5-.5 1.1Zm-1.1 18V11.3q0-1.15.775-1.925Q12.15 8.6 13.3 8.6h9.25q1.15 0 1.925.775.775.775.775 1.925v11.5h2.15q1 0 1.775.775.775.775.775 1.775v9.8q0 1.25.975 2.1.975.85 2.275.85 1.35 0 2.35-.875t1-2.075v-17.6h-.85q-.55 0-.95-.4-.4-.4-.4-.95v-3.05h.75V11.3h1.25v1.85h1.6V11.3h1.25v1.85h.75v3.05q0 .55-.4.95-.4.4-.95.4h-.8V35.2q0 1.75-1.375 2.975T33.2 39.4q-1.85 0-3.175-1.2Q28.7 37 28.7 35.15v-9.5q0-.65-.45-1.125t-1.15-.475h-1.85V39.4Z"/></svg>