<svg xmlns="http://www.w3.org/2000/svg" height="20" viewBox="0 -960 960 960" width="20"><path d="M635.24-91.09q-43.39 0-87.82-17.94-44.42-17.95-79.64-47.4-24.8-20.07-36.86-25.36-12.05-5.3-23.05-5.3-64.34 0-122.02-26.23-57.68-26.22-100.5-70.06-42.83-43.84-68.17-101.52-25.33-57.69-26.09-121.6 3.48-165.63 85.14-264.02 81.66-98.39 219.77-98.39 44.22 0 85.05 9.63 40.84 9.63 76.57 31 35.73 21.37 67.83 54.36 32.09 32.99 58.59 77.22 18 29.5 32.37 53.97 14.37 24.47 35.61 44.71 67.2 68.19 92.05 117.66 24.84 49.47 24.84 121.12 0 114.38-67.54 191.27-67.54 76.88-166.13 76.88ZM480.03-362.5q48.97 0 83.22-33.78 34.25-33.77 34.25-83.75 0-48.97-34.28-83.22-34.27-34.25-83.25-34.25-49.97 0-83.72 34.28-33.75 34.27-33.75 83.25 0 49.97 33.78 83.72 33.77 33.75 83.75 33.75Z"/></svg>