<svg xmlns="http://www.w3.org/2000/svg" height="48" width="48"><path d="M16.1 35.55H31.95V32.75H16.1ZM16.1 26.9H31.95V24.15H16.1ZM11.8 43.8Q10.35 43.8 9.3 42.75Q8.25 41.7 8.25 40.25V7.75Q8.25 6.3 9.3 5.25Q10.35 4.2 11.8 4.2H28.95L39.75 14.95V40.25Q39.75 41.7 38.7 42.75Q37.65 43.8 36.2 43.8ZM27.55 16.3V7.1H11.8Q11.55 7.1 11.35 7.3Q11.15 7.5 11.15 7.75V40.25Q11.15 40.5 11.35 40.7Q11.55 40.9 11.8 40.9H36.2Q36.45 40.9 36.65 40.7Q36.85 40.5 36.85 40.25V16.3ZM11.15 7.1V16.3V7.1V16.3V40.25Q11.15 40.5 11.15 40.7Q11.15 40.9 11.15 40.9Q11.15 40.9 11.15 40.7Q11.15 40.5 11.15 40.25V7.75Q11.15 7.5 11.15 7.3Q11.15 7.1 11.15 7.1Z"/></svg>