<svg xmlns="http://www.w3.org/2000/svg" height="20" width="20"><path d="M9 9.75h2q.208 0 .354-.146t.146-.354v-3q0-.208-.146-.354T11 5.75H9q-.208 0-.354.146T8.5 6.25v3q0 .208.146.354T9 9.75Zm.5-2.25v-.75h1v.75Zm0 1.25V8h1v.75ZM6 14.25h1V11.5h.667v1.896h1V11.5h.666v2.75h1V11q0-.208-.145-.354-.146-.146-.355-.146H6.5q-.208 0-.354.146T6 11Zm5 0h1v-.875h1.5q.208 0 .354-.146t.146-.354V11q0-.208-.146-.354T13.5 10.5H11Zm1-1.875V11.5h1v.875Zm-7.25 5.333Q3.708 17.708 3 17t-.708-1.75V4.75Q2.292 3.708 3 3t1.75-.708h10.5q1.042 0 1.75.708t.708 1.75v10.5q0 1.042-.708 1.75t-1.75.708Z"/></svg>