<svg xmlns="http://www.w3.org/2000/svg" height="20" viewBox="0 -960 960 960" width="20"><path d="M311.85-87Q294-87 276.5-94.5t-31.27-21.13L73-285l35-34q8-8 14.5-9t14.5 3l86 15v-327q0-9.25 6.82-16.13 6.83-6.87 16-6.87 9.18 0 16.18 6.87 7 6.88 7 16.13v386l-122-27 129 131q7 7 16.18 10.5T312-133h216.44q40.19 0 68.38-28.31Q625-189.63 625-230v-177q0-9.25 6.82-16.13 6.83-6.87 16-6.87 9.18 0 16.18 6.87 7 6.88 7 16.13v177q0 61-41 102T528-87H311.85ZM357-345v-198q0-9.25 6.82-16.13 6.83-6.87 16-6.87 9.18 0 16.18 6.87 7 6.88 7 16.13v198h-46Zm134 0v-71.74q0-9.21 6.82-16.24 6.83-7.02 16-7.02 9.18 0 16.18 6.87 7 6.88 7 16.13v72h-46Zm37 212H276h252Zm140.98-505Q597-638 537.5-672 478-706 438-765q40-59 99.52-93 59.52-34 131.5-34 71.98 0 131.48 34 59.5 34 99.5 93-40 59-99.52 93-59.52 34-131.5 34Zm-.12-46q51.58 0 97.36-21.5T844-765q-32-38-77.63-59.5-45.64-21.5-97.23-21.5-51.58 0-97.86 20.5T494-765q32 38 77.63 59.5 45.64 21.5 97.23 21.5Zm.26-37Q651-721 638-733.88t-13-31Q625-783 637.88-796t31-13Q687-809 700-796.12t13 31Q713-747 700.12-734t-31 13Z"/></svg>