<svg xmlns="http://www.w3.org/2000/svg" height="40" viewBox="0 -960 960 960" width="40"><path d="M160-80v-371.33Q109.33-463.67 75.67-502 42-540.33 40-592.33h67.33q2 32.66 26.69 55.83t58.31 23.17H240v-98q-50.67-12.34-84.33-50.67Q122-700.33 120-752.33h67.33q2 32.66 26.69 55.83t58.31 23.17h23L480-920l184.67 246.67h23q33.62 0 58.31-23.17 24.69-23.17 26.69-55.83H840q-2 52-35.33 90.33-33.34 38.33-84.67 50.67v98h47.67q33.62 0 58.31-23.17 24.69-23.17 26.69-55.83H920q-2 52-35.33 90.33-33.34 38.33-84.67 50.67V-80H526.67v-160q0-19.83-13.39-33.25-13.38-13.42-33.16-13.42-19.79 0-33.29 13.42T433.33-240v160H160Zm218.67-593.33h202.66L480-808.33l-101.33 135Zm-72 160h346.66v-93.34H306.67v93.34Zm-80 366.66h140V-240q0-47.22 33.08-80.28 33.07-33.05 80.33-33.05 47.25 0 80.25 33.05 33 33.06 33 80.28v93.33h140v-300H226.67v300Zm253.33-300Zm0-226.66Zm0 160Z"/></svg>