<svg xmlns="http://www.w3.org/2000/svg" height="20" viewBox="0 -960 960 960" width="20"><path d="m188.77-165.54-53.54-53.54h688l-53.54 53.54H188.77ZM184-274.77q8.77-14.92 21.65-26.46 12.89-11.54 26.35-21.15v-272.08h-48v-23.39h48v-55.69h-48v-23.38h48v-55.7h-48V-776h288.31v79.08H776v23.38H472.31v79.08H351.38v250.23q25.24 5.77 48.2 16.88 22.96 11.12 43.11 28.04 4.62-65.15 53.39-108.31 48.77-43.15 113.84-43.15 70.31 0 118.2 51.82Q776-347.13 776-274.77H184Zm167.38-422.15h88.93v-55.7h-88.93v55.7Zm0 79.07h88.93v-55.69h-88.93v55.69Zm-96-79.07H328v-55.7h-72.62v55.7Zm0 79.07H328v-55.69h-72.62v55.69Zm0 287.08q16.39-8.08 35.43-12t37.19-5.17v-246.52h-72.62v263.69Z"/></svg>