<svg xmlns="http://www.w3.org/2000/svg" height="40" viewBox="0 -960 960 960" width="40"><path d="M388.67-350.83q10.5 0 18.25-7.34 7.75-7.33 7.75-17.83 0-1-.59-3.58-.58-2.59-.58-3.92 3.83 1.67 7.42 2.5 3.58.83 7.91.83 9.67 0 17.59-7.33 7.91-7.33 7.91-17.83 0-10.5-7.75-18.25t-18.25-7.75q-7 0-13.58 4.25t-9.75 9.91L298.83-535.5q8.34-2.17 14.42-9.33 6.08-7.17 6.08-16.17 0-10.5-7.75-18.25T293.33-587q-10.5 0-17.83 7.75-7.33 7.75-7.33 18.25 0 1.67.33 3.75t.83 3.42q-4.66-2-8.25-3.09Q257.5-558 254-558q-10.5 0-18 7.75T228.5-532q0 10.5 7.33 17.83 7.34 7.34 17.84 7.34 8 0 14.91-4.09 6.92-4.08 9.42-10.75l107.67 119q-9.67 1.34-15.92 9.17T363.5-376q0 10.5 7.33 17.83 7.34 7.34 17.84 7.34ZM115.5-486.5 130-504l290.17 273.67q15.33 14.83 34.66 22.08Q474.17-201 495-201q15.67 0 30.58-4 14.92-4 28.42-11.67L853-406v24.33l-287.5 182q-16.33 9.17-33.92 14.5-17.58 5.34-37.58 5.34-23.83 0-47.5-8.75T405-215.67L115.5-486.5Zm180.5-230 14.17-18Q387-690.83 446.08-620.92 505.17-551 524.83-480q42.67-53.67 85.42-80.58Q653-587.5 744.17-612q33.33-8.5 59.25-17 25.91-8.5 49.58-18.33v21q-23.33 9-48.25 17.5t-54.08 16q-90.5 24.5-135.5 53.83t-84.84 91.33q-.5 1.67-3 3.09-2.5 1.41-6.66 1.41-3.5 0-6.42-2.41-2.92-2.42-2.75-6.92-19.17-73.17-78.08-145.67Q374.5-670.67 296-716.5ZM130-504q64 61.33 143.67 136.42 79.66 75.08 146.5 137.25 15.33 14.83 34.66 22.08Q474.17-201 495-201q15.67 0 30.58-4 14.92-4 28.42-11.67Q624.33-262 704.42-312 784.5-362 853-406L554-216.67Q540.5-209 525.58-205q-14.91 4-30.58 4-20.83 0-40.17-7.25-19.33-7.25-34.66-22.08L130-504Z"/></svg>