<svg xmlns="http://www.w3.org/2000/svg" height="48" width="48"><path d="M31.8 25.3q-.25 3.45-2.4 6.05-2.15 2.6-5.4 2.6-.5 0-.975-.1t-.975-.15q-.3-.1-.6-.025-.3.075-.5.325-.35.4-.225.85.125.45.575.65.65.25 1.35.35.7.1 1.35.1 4.15 0 6.875-3.15 2.725-3.15 2.925-7.4l1.35 1.3q.3.3.725.325.425.025.725-.275.35-.35.35-.75t-.35-.75l-2.85-2.8q-.4-.4-.975-.4t-1.025.4l-2.8 2.8q-.35.35-.35.75t.35.75q.35.3.725.3t.675-.3Zm-17.5 1.55-1.35-1.3q-.35-.3-.75-.3t-.75.35q-.3.3-.3.675 0 .375.35.725l2.75 2.8q.45.4 1.05.4.6 0 1-.4l2.85-2.8q.3-.35.3-.75t-.3-.7q-.35-.35-.725-.35t-.725.35l-1.4 1.4q.25-3.45 2.375-6.025T24.1 18.35q.45 0 .925.075.475.075.975.175.3.1.625 0t.525-.35q.3-.4.2-.85-.1-.45-.55-.65-.7-.2-1.375-.325T24.1 16.3q-4.2 0-6.9 3.15t-2.9 7.4ZM7.9 41q-1.2 0-2.05-.85Q5 39.3 5 38.1V14.15q0-1.15.85-2.025t2.05-.875h6.85l2.8-3.3q.4-.45.975-.7Q19.1 7 19.75 7h8.5q.65 0 1.225.25.575.25.975.7l2.8 3.3h6.85q1.15 0 2.025.875T43 14.15V38.1q0 1.2-.875 2.05-.875.85-2.025.85Zm32.2-2.25q.3 0 .475-.175t.175-.475V14.15q0-.25-.175-.45t-.475-.2H7.9q-.3 0-.475.2t-.175.45V38.1q0 .3.175.475t.475.175ZM24 26.1Z"/></svg>