<svg xmlns="http://www.w3.org/2000/svg" version="1.1" width="3300" height="2000"><g id="Notes"><style>
    text {
      font-family: monospace;
      text-anchor: middle;
    }
    text.emphasis {
      font-weight:bold;
    }
    text.lanchor {
      text-anchor: start;
    }
  </style><rect height="2200" id="artboard" fill="white" width="3300" x="0" y="0"/><line id="" style="fill:none;stroke:black;stroke-width:0.5;" x1="263" x2="3036" y1="292" y2="292"/><text class="lanchor emphasis" transform="matrix(1 0 0 1 263 322)">Weight/Scale Variations</text><text transform="matrix(1 0 0 1 559.711 322)">Ultralight</text><text transform="matrix(1 0 0 1 856.422 322)">Thin</text><text transform="matrix(1 0 0 1 1153.13 322)">Light</text><text transform="matrix(1 0 0 1 1449.84 322)">Regular</text><text transform="matrix(1 0 0 1 1746.56 322)">Medium</text><text transform="matrix(1 0 0 1 2043.27 322)">Semibold</text><text transform="matrix(1 0 0 1 2339.98 322)">Bold</text><text transform="matrix(1 0 0 1 2636.69 322)">Heavy</text><text transform="matrix(1 0 0 1 2933.4 322)">Black</text><text id="template-version" style="text-anchor: end;" transform="matrix(1 0 0 1 3036 1933)">Template v.1.0</text><text class="lanchor" transform="matrix(1 0 0 1 263 726)">Small</text><text class="lanchor" transform="matrix(1 0 0 1 263 1156)">Medium</text><text class="lanchor" transform="matrix(1 0 0 1 263 1586)">Large</text></g><g id="Guides"><g id="H-reference" style="fill:#27AAE1;stroke:none;" transform="matrix(1 0 0 1 339 696)"><path d="M 54.9316 0 L 57.666 0 L 30.5664 -70.459 L 28.0762 -70.459 L 0.976562 0 L 3.66211 0 L 12.9395 -24.4629 L 45.7031 -24.4629 Z M 29.1992 -67.0898 L 29.4434 -67.0898 L 44.8242 -26.709 L 13.8184 -26.709 Z"/></g><line id="Baseline-S" style="fill:none;stroke:#27AAE1;opacity:1;stroke-width:0.577;" x1="263" x2="3036" y1="696" y2="696"/><line id="Capline-S" style="fill:none;stroke:#27AAE1;opacity:1;stroke-width:0.577;" x1="263" x2="3036" y1="625.541" y2="625.541"/><g id="H-reference" style="fill:#27AAE1;stroke:none;" transform="matrix(1 0 0 1 339 1126)"><path d="M 54.9316 0 L 57.666 0 L 30.5664 -70.459 L 28.0762 -70.459 L 0.976562 0 L 3.66211 0 L 12.9395 -24.4629 L 45.7031 -24.4629 Z M 29.1992 -67.0898 L 29.4434 -67.0898 L 44.8242 -26.709 L 13.8184 -26.709 Z"/></g><line id="Baseline-M" style="fill:none;stroke:#27AAE1;opacity:1;stroke-width:0.577;" x1="263" x2="3036" y1="1126" y2="1126"/><line id="Capline-M" style="fill:none;stroke:#27AAE1;opacity:1;stroke-width:0.577;" x1="263" x2="3036" y1="1055.54" y2="1055.54"/><g id="H-reference" style="fill:#27AAE1;stroke:none;" transform="matrix(1 0 0 1 339 1556)"><path d="M 54.9316 0 L 57.666 0 L 30.5664 -70.459 L 28.0762 -70.459 L 0.976562 0 L 3.66211 0 L 12.9395 -24.4629 L 45.7031 -24.4629 Z M 29.1992 -67.0898 L 29.4434 -67.0898 L 44.8242 -26.709 L 13.8184 -26.709 Z"/></g><line id="Baseline-L" style="fill:none;stroke:#27AAE1;opacity:1;stroke-width:0.577;" x1="263" x2="3036" y1="1556" y2="1556"/><line id="Capline-L" style="fill:none;stroke:#27AAE1;opacity:1;stroke-width:0.577;" x1="263" x2="3036" y1="1485.54" y2="1485.54"/><rect height="119.336" id="left-margin" style="fill:darkred;stroke:none;opacity:0.4;" width="12.4512" x="1394.06" y="1030.79"/><rect height="119.336" id="right-margin" style="fill:darkgreen;stroke:none;opacity:0.4;" width="12.4512" x="1502.5112" y="1030.79"/><rect x="1406.5112" y="1045" width="96" height="96" fill="none" stroke="blue" stroke-dasharray="5"/><rect x="1394.06" y="1030.79" width="120.9024" height="119.336" fill="none" stroke="blue"/></g><g id="Symbols"><g id="Bold-L" transform="matrix(1 0 0 1 2266 1556)"><path d="M1548.0 2283.545 Q1773.75 2283.545 1930.1625000000001 2127.1325 Q2086.5750000000003 1970.7199999999998 2086.5750000000003 1744.9700000000003 Q2086.5750000000003 1519.2200000000003 1930.1625000000001 1362.8075 Q1773.75 1206.395 1548.0 1206.395 Q1322.25 1206.395 1165.8375 1362.8075 Q1009.4250000000001 1519.2200000000003 1009.4250000000001 1744.9700000000003 Q1009.4250000000001 1970.7199999999998 1165.8375 2127.1325 Q1322.25 2283.545 1548.0 2283.545 Z M177.375 2857.595 V629.12 H2921.85 V2857.595 H177.375 Z"/></g><g id="Semibold-L" transform="matrix(1 0 0 1 1970.27 1556)"><path d="M1548.0 2259.709025 Q1763.9363250000001 2259.709025 1913.337675 2110.307675 Q2062.7390250000003 1960.906325 2062.7390250000003 1744.9700000000003 Q2062.7390250000003 1529.0336750000001 1913.337675 1379.632325 Q1763.9363250000001 1230.230975 1548.0 1230.230975 Q1332.063675 1230.230975 1182.662325 1379.632325 Q1033.2609750000001 1529.0336750000001 1033.2609750000001 1744.9700000000003 Q1033.2609750000001 1960.906325 1182.662325 2110.307675 Q1332.063675 2259.709025 1548.0 2259.709025 Z M212.427525 2822.5424749999997 V665.5754000000001 H2885.3946 V2822.5424749999997 H212.427525 Z"/></g><g id="Medium-L" transform="matrix(1 0 0 1 1674.31 1556)"><path d="M1548.0 2241.8296250000003 Q1756.57365 2241.8296250000003 1900.7182500000001 2097.68825 Q2044.8596250000003 1953.54365 2044.8596250000003 1744.9700000000003 Q2044.8596250000003 1536.39635 1900.7182500000001 1392.25175 Q1756.57365 1248.1103750000002 1548.0 1248.1103750000002 Q1339.4263500000002 1248.1103750000002 1195.28175 1392.25175 Q1051.140375 1536.39635 1051.140375 1744.9700000000003 Q1051.140375 1953.54365 1195.28175 2097.68825 Q1339.4263500000002 2241.8296250000003 1548.0 2241.8296250000003 Z M238.72095000000002 2796.24905 V692.91695 H2858.05305 V2796.24905 H238.72095000000002 Z"/></g><g id="Regular-L" transform="matrix(1 0 0 1 1378.56 1556)"><path d="M1548.0 2228.72 Q1751.175 2228.72 1891.4625 2088.4325 Q2031.75 1948.145 2031.75 1744.9700000000003 Q2031.75 1541.795 1891.4625 1401.5075000000002 Q1751.175 1261.2200000000003 1548.0 1261.2200000000003 Q1344.825 1261.2200000000003 1204.5375000000001 1401.5075000000002 Q1064.25 1541.795 1064.25 1744.9700000000003 Q1064.25 1948.145 1204.5375000000001 2088.4325 Q1344.825 2228.72 1548.0 2228.72 Z M258.0 2776.97 V712.97 H2838.0 V2776.97 H258.0 Z"/></g><g id="Light-L" transform="matrix(1 0 0 1 1082.77 1556)"><path d="M1548.0 2205.1517 Q1741.251675 2205.1517 1874.715075 2071.685075 Q2008.1817 1938.2216749999998 2008.1817 1744.9700000000003 Q2008.1817 1551.7183249999998 1874.715075 1418.2549250000002 Q1741.251675 1284.7883000000002 1548.0 1284.7883000000002 Q1354.748325 1284.7883000000002 1221.284925 1418.2549250000002 Q1087.8183 1551.7183249999998 1087.8183 1744.9700000000003 Q1087.8183 1938.2216749999998 1221.284925 2071.685075 Q1354.748325 2205.1517 1548.0 2205.1517 Z M322.50322500000004 2712.466775 V777.473225 H2773.496775 V2712.466775 H322.50322500000004 Z"/></g><g id="Thin-L" transform="matrix(1 0 0 1 787.282 1556)"><path d="M1548.0 2181.586625 Q1731.32835 2181.586625 1857.970875 2054.940875 Q1984.616625 1928.29835 1984.616625 1744.9700000000003 Q1984.616625 1561.64165 1857.970875 1434.9991249999998 Q1731.32835 1308.3533750000001 1548.0 1308.3533750000001 Q1364.67165 1308.3533750000001 1238.029125 1434.9991249999998 Q1111.3833750000001 1561.64165 1111.3833750000001 1744.9700000000003 Q1111.3833750000001 1928.29835 1238.029125 2054.940875 Q1364.67165 2181.586625 1548.0 2181.586625 Z M387.0 2647.97 V841.97 H2709.0 V2647.97 H387.0 Z"/></g><g id="Ultralight-L" transform="matrix(1 0 0 1 491.205 1556)"><path d="M1548.0 2167.445 Q1725.375 2167.445 1847.925 2044.895 Q1970.4750000000001 1922.3450000000003 1970.4750000000001 1744.9700000000003 Q1970.4750000000001 1567.5950000000003 1847.925 1445.045 Q1725.375 1322.495 1548.0 1322.495 Q1370.625 1322.495 1248.075 1445.045 Q1125.525 1567.5950000000003 1125.525 1744.9700000000003 Q1125.525 1922.3450000000003 1248.075 2044.895 Q1370.625 2167.445 1548.0 2167.445 Z M425.7 2609.27 V880.6700000000001 H2670.3 V2609.27 H425.7 Z"/></g><g id="Bold-M" transform="matrix(1 0 0 1 2281.8 1126)"><path d="M2400.0 3699.77 Q2780.0 3699.77 3047.5 3432.27 Q3315.0 3164.77 3315.0 2784.77 Q3315.0 2404.77 3047.5 2137.27 Q2780.0 1869.77 2400.0 1869.77 Q2020.0 1869.77 1752.5 2137.27 Q1485.0 2404.77 1485.0 2784.77 Q1485.0 3164.77 1752.5 3432.27 Q2020.0 3699.77 2400.0 3699.77 Z M230.0 4554.77 V1014.77 H4570.0 V4554.77 H230.0 Z"/></g><g id="Semibold-M" transform="matrix(1 0 0 1 1985.97 1126)"><path d="M2400.0 3649.775 Q2758.26 3649.775 3011.635 3396.405 Q3265.005 3143.03 3265.005 2784.77 Q3265.005 2426.51 3011.635 2173.1349999999998 Q2758.26 1919.765 2400.0 1919.765 Q2041.74 1919.765 1788.365 2173.1349999999998 Q1534.9950000000001 2426.51 1534.9950000000001 2784.77 Q1534.9950000000001 3143.03 1788.365 3396.405 Q2041.74 3649.775 2400.0 3649.775 Z M303.90999999999997 4480.860000000001 V1088.68 H4496.09 V4480.860000000001 H303.90999999999997 Z"/></g><g id="Medium-M" transform="matrix(1 0 0 1 1689.91 1126)"><path d="M2400.0 3612.27 Q2741.955 3612.27 2984.73 3369.5 Q3227.5 3126.725 3227.5 2784.77 Q3227.5 2442.815 2984.73 2200.04 Q2741.955 1957.27 2400.0 1957.27 Q2058.045 1957.27 1815.27 2200.04 Q1572.5 2442.815 1572.5 2784.77 Q1572.5 3126.725 1815.27 3369.5 Q2058.045 3612.27 2400.0 3612.27 Z M359.345 4425.425 V1144.115 H4440.655 V4425.425 H359.345 Z"/></g><g id="Regular-M" transform="matrix(1 0 0 1 1394.06 1126)"><path d="M2400.0 3584.77 Q2730.0 3584.77 2965.0 3349.77 Q3200.0 3114.77 3200.0 2784.77 Q3200.0 2454.77 2965.0 2219.77 Q2730.0 1984.77 2400.0 1984.77 Q2070.0 1984.77 1835.0 2219.77 Q1600.0 2454.77 1600.0 2784.77 Q1600.0 3114.77 1835.0 3349.77 Q2070.0 3584.77 2400.0 3584.77 Z M400.0 4384.77 V1184.77 H4400.0 V4384.77 H400.0 Z"/></g><g id="Light-M" transform="matrix(1 0 0 1 1098.18 1126)"><path d="M2400.0 3534.765 Q2710.77 3534.765 2930.38 3315.15 Q3149.995 3095.54 3149.995 2784.77 Q3149.995 2474.0 2930.38 2254.39 Q2710.77 2034.775 2400.0 2034.775 Q2089.23 2034.775 1869.62 2254.39 Q1650.0049999999999 2474.0 1650.0049999999999 2784.77 Q1650.0049999999999 3095.54 1869.62 3315.15 Q2089.23 3534.765 2400.0 3534.765 Z M500.005 4284.765 V1284.7749999999999 H4299.995 V4284.765 H500.005 Z"/></g><g id="Thin-M" transform="matrix(1 0 0 1 802.565 1126)"><path d="M2400.0 3484.77 Q2691.54 3484.77 2895.77 3280.54 Q3100.0 3076.31 3100.0 2784.77 Q3100.0 2493.23 2895.77 2289.0 Q2691.54 2084.77 2400.0 2084.77 Q2108.46 2084.77 1904.23 2289.0 Q1700.0 2493.23 1700.0 2784.77 Q1700.0 3076.31 1904.23 3280.54 Q2108.46 3484.77 2400.0 3484.77 Z M600.0 4184.77 V1384.77 H4200.0 V4184.77 H600.0 Z"/></g><g id="Ultralight-M" transform="matrix(1 0 0 1 506.415 1126)"><path d="M2400.0 3454.77 Q2680.0 3454.77 2875.0 3259.77 Q3070.0 3064.77 3070.0 2784.77 Q3070.0 2504.77 2875.0 2309.77 Q2680.0 2114.77 2400.0 2114.77 Q2120.0 2114.77 1925.0 2309.77 Q1730.0 2504.77 1730.0 2784.77 Q1730.0 3064.77 1925.0 3259.77 Q2120.0 3454.77 2400.0 3454.77 Z M660.0 4124.77 V1444.77 H4140.0 V4124.77 H660.0 Z"/></g><g id="Bold-S" transform="matrix(1 0 0 1 2294.23 696)"><path d="M2272.32 3434.792 Q2603.7 3434.792 2833.299 3205.1929999999998 Q3062.898 2975.594 3062.898 2644.214 Q3062.898 2312.834 2833.299 2083.2349999999997 Q2603.7 1853.636 2272.32 1853.636 Q1940.94 1853.636 1711.341 2083.2349999999997 Q1481.742 2312.834 1481.742 2644.214 Q1481.742 2975.594 1711.341 3205.1929999999998 Q1940.94 3434.792 2272.32 3434.792 Z M293.508 4168.562 V1119.866 H4251.132 V4168.562 H293.508 Z"/></g><g id="Semibold-S" transform="matrix(1 0 0 1 1998.1 696)"><path d="M2272.32 3387.456734 Q2583.1165680000004 3387.456734 2799.342018 3171.2360179999996 Q3015.562734 2955.010568 3015.562734 2644.214 Q3015.562734 2333.4174319999997 2799.342018 2117.191982 Q2583.1165680000004 1900.9712660000002 2272.32 1900.9712660000002 Q1961.523432 1900.9712660000002 1745.297982 2117.191982 Q1529.077266 2333.4174319999997 1529.077266 2644.214 Q1529.077266 2955.010568 1745.297982 3171.2360179999996 Q1961.523432 3387.456734 2272.32 3387.456734 Z M363.48598799999996 4098.584012 V1189.843988 H4181.154012 V4098.584012 H363.48598799999996 Z"/></g><g id="Medium-S" transform="matrix(1 0 0 1 1701.85 696)"><path d="M2272.32 3351.9469999999997 Q2567.678994 3351.9469999999997 2773.868364 3145.762364 Q2980.053 2939.5729939999997 2980.053 2644.214 Q2980.053 2348.8550060000002 2773.868364 2142.6656359999997 Q2567.678994 1936.481 2272.32 1936.481 Q1976.961006 1936.481 1770.771636 2142.6656359999997 Q1564.587 2348.8550060000002 1564.587 2644.214 Q1564.587 2939.5729939999997 1770.771636 3145.762364 Q1976.961006 3351.9469999999997 2272.32 3351.9469999999997 Z M415.97184599999997 4046.098154 V1242.329846 H4128.668154 V4046.098154 H415.97184599999997 Z"/></g><g id="Regular-S" transform="matrix(1 0 0 1 1405.73 696)"><path d="M2272.32 3325.91 Q2556.36 3325.91 2755.188 3127.082 Q2954.016 2928.254 2954.016 2644.214 Q2954.016 2360.174 2755.188 2161.346 Q2556.36 1962.518 2272.32 1962.518 Q1988.28 1962.518 1789.452 2161.346 Q1590.624 2360.174 1590.624 2644.214 Q1590.624 2928.254 1789.452 3127.082 Q1988.28 3325.91 2272.32 3325.91 Z M454.464 4007.6059999999998 V1280.8220000000001 H4090.176 V4007.6059999999998 H454.464 Z"/></g><g id="Light-S" transform="matrix(1 0 0 1 1109.75 696)"><path d="M2272.32 3278.565266 Q2538.153036 3278.565266 2722.409784 3094.3037839999997 Q2906.6712660000003 2910.047036 2906.6712660000003 2644.214 Q2906.6712660000003 2378.380964 2722.409784 2194.1242159999997 Q2538.153036 2009.862734 2272.32 2009.862734 Q2006.486964 2009.862734 1822.230216 2194.1242159999997 Q1637.9687339999998 2378.380964 1637.9687339999998 2644.214 Q1637.9687339999998 2910.047036 1822.230216 3094.3037839999997 Q2006.486964 3278.565266 2272.32 3278.565266 Z M549.148734 3912.921266 V1375.506734 H3995.491266 V3912.921266 H549.148734 Z"/></g><g id="Thin-S" transform="matrix(1 0 0 1 814.015 696)"><path d="M2272.32 3231.23 Q2519.9460719999997 3231.23 2689.641036 3061.5350359999998 Q2859.336 2891.840072 2859.336 2644.214 Q2859.336 2396.587928 2689.641036 2226.8929639999997 Q2519.9460719999997 2057.198 2272.32 2057.198 Q2024.6939280000001 2057.198 1854.9989640000001 2226.8929639999997 Q1685.304 2396.587928 1685.304 2644.214 Q1685.304 2891.840072 1854.9989640000001 3061.5350359999998 Q2024.6939280000001 3231.23 2272.32 3231.23 Z M643.824 3818.2459999999996 V1470.182 H3900.816 V3818.2459999999996 H643.824 Z"/></g><g id="Ultralight-S" transform="matrix(1 0 0 1 517.792 696)"><path d="M2272.32 3202.826 Q2509.02 3202.826 2669.976 3041.87 Q2830.932 2880.9139999999998 2830.932 2644.214 Q2830.932 2407.5139999999997 2669.976 2246.558 Q2509.02 2085.602 2272.32 2085.602 Q2035.62 2085.602 1874.664 2246.558 Q1713.708 2407.5139999999997 1713.708 2644.214 Q1713.708 2880.9139999999998 1874.664 3041.87 Q2035.62 3202.826 2272.32 3202.826 Z M700.632 3761.4379999999996 V1526.99 H3844.008 V3761.4379999999996 H700.632 Z"/></g></g></svg>