<svg xmlns="http://www.w3.org/2000/svg" height="48" viewBox="0 -960 960 960" width="48"><path d="M227.09-70.87q-31.48 0-54.1-22.62t-22.62-54.1v-664.82q0-31.71 22.62-54.5t54.1-22.79h505.82q31.71 0 54.5 22.79t22.79 54.5v664.82q0 31.48-22.79 54.1t-54.5 22.62H227.09Zm0-76.72h505.82v-664.82h-51.28v229.02q0 11.04-9.7 16.6-9.7 5.55-19.65-.14l-48.06-27.09q-8.56-4.63-19.09-4.63t-18.59 4.63l-48.13 27.09q-10.26 5.69-19.02.14-8.76-5.56-8.76-16.6v-229.02H227.09v664.82ZM450.5-277l-54.54-64.85q-6.76-7.76-15.52-7.76-8.77 0-14.2 7.62l-56.59 71.08q-7.19 10.18-2.45 20.55Q311.94-240 325.47-240h314.06q11.47 0 16.74-10.36 5.27-10.37-.96-19.66l-88.85-116.83q-6.56-7.76-15.5-7.76-8.94 0-15.54 7.66L450.5-277ZM227.09-147.59v-664.82 664.82Zm263.54-434.17v-1.63q0 11.04 8.76 16.6 8.76 5.55 19.02-.14l48.13-27.09q8.38-4.63 18.72-4.63 10.33 0 19.96 4.63l47.06 27.09q9.95 5.69 19.65.14 9.7-5.56 9.7-16.6v1.63q0 11.74-9.71 17.19-9.71 5.46-19.64-.17l-48.06-26.09q-8.56-5.63-19.09-5.63t-18.59 5.63l-48.13 26.09q-10.24 5.63-19.01.17-8.77-5.45-8.77-17.19Z"/></svg>