<svg xmlns="http://www.w3.org/2000/svg" height="40" width="40"><path d="M34.958 35.292 24.125 24.5q-.5-.5-.5-1.167 0-.666.5-1.208.5-.458 1.167-.458.666 0 1.166.458l10.834 10.833q.5.5.5 1.167t-.5 1.167q-.542.5-1.209.5-.666 0-1.125-.5Zm-9.458.375q-.75 0-1.229-.479-.479-.48-.479-1.23v-5.416l7.125 7.125Zm-20.292 0q-.708 0-1.208-.479-.5-.48-.5-1.23V15.667H2.167q-.584 0-.792-.542-.208-.542.208-.958l9.75-9.25q.084-.084.625-.25.042 0 .584.25l9.666 9.25q.417.416.23.958-.188.542-.771.542h-1.375V34q0 .708-.5 1.188-.5.479-1.25.479Zm4.667-12.042h4.042v-7.958H9.875Z"/></svg>