<svg xmlns="http://www.w3.org/2000/svg" height="24" width="24"><path d="M10.8 20.625q-.375 0-.65-.262-.275-.263-.275-.638 0-.4.275-.663.275-.262.65-.262h1.55L14.5 5.175h-2.975q-.125 0-.213.075-.087.075-.087.2l-.55 3.45q-.05.325-.312.55-.263.225-.638.225-.425 0-.7-.325-.275-.325-.2-.75L9.4 4.875q.1-.675.6-1.1.5-.425 1.175-.425h8.55q.85 0 1.388.625.537.625.412 1.475l-.55 3.45q-.05.325-.312.55-.263.225-.613.225-.425 0-.713-.325-.287-.325-.212-.75l.475-3.05q.025-.15-.062-.263-.088-.112-.238-.112h-2.9L14.25 18.8h1.275q.375 0 .65.275t.275.65q0 .375-.275.638-.275.262-.65.262ZM4.825 6.75q-.325 0-.538-.213-.212-.212-.212-.537 0-.325.212-.537.213-.213.538-.213H8.15l-.25 1.5Zm-.625 4q-.325 0-.525-.213-.2-.212-.2-.537 0-.325.213-.538.212-.212.537-.212h3.3l-.225 1.5Zm-1.2 8q-.325 0-.537-.212-.213-.213-.213-.538 0-.325.213-.538.212-.212.537-.212h5.725l-.225 1.5Zm.65-4q-.325 0-.537-.213Q2.9 14.325 2.9 14q0-.325.213-.538.212-.212.537-.212h5.725l-.25 1.5Z"/></svg>