<svg xmlns="http://www.w3.org/2000/svg" height="40" width="40"><path d="M16.167 21.167V14.833Q16.167 14.458 16.479 14.146Q16.792 13.833 17.167 13.833H28.875Q30.75 13.833 32.042 15.125Q33.333 16.417 33.333 18.25V21.167ZM7.167 25.667Q6.958 25.667 6.812 25.521Q6.667 25.375 6.667 25.167Q6.667 24.958 6.812 24.812Q6.958 24.667 7.167 24.667H32.833Q33.042 24.667 33.188 24.812Q33.333 24.958 33.333 25.167Q33.333 25.375 33.188 25.521Q33.042 25.667 32.833 25.667ZM9.75 21.167Q8.417 21.167 7.542 20.292Q6.667 19.417 6.667 18.083Q6.667 16.75 7.542 15.875Q8.417 15 9.75 15Q11.083 15 11.958 15.875Q12.833 16.75 12.833 18.083Q12.833 19.417 11.958 20.292Q11.083 21.167 9.75 21.167Z"/></svg>