<svg xmlns="http://www.w3.org/2000/svg" height="24" width="24"><path d="M9.75 12.625V9.025Q9.75 8.775 9.95 8.575Q10.15 8.375 10.4 8.375H17.225Q18.325 8.375 19.087 9.15Q19.85 9.925 19.85 11V12.625ZM10.4 9.025Q10.4 9.025 10.4 9.612Q10.4 10.2 10.4 11.025V12ZM4.475 15.3Q4.35 15.3 4.25 15.2Q4.15 15.1 4.15 14.975Q4.15 14.85 4.25 14.75Q4.35 14.65 4.475 14.65H19.55Q19.65 14.65 19.75 14.75Q19.85 14.85 19.85 14.975Q19.85 15.1 19.75 15.2Q19.65 15.3 19.55 15.3ZM5.95 12.625Q5.175 12.625 4.663 12.125Q4.15 11.625 4.15 10.85Q4.15 10.075 4.663 9.562Q5.175 9.05 5.925 9.05Q6.7 9.05 7.213 9.562Q7.725 10.075 7.725 10.85Q7.725 11.6 7.213 12.113Q6.7 12.625 5.95 12.625ZM5.95 12Q6.425 12 6.763 11.675Q7.1 11.35 7.1 10.85Q7.1 10.35 6.763 10.025Q6.425 9.7 5.95 9.7Q5.45 9.7 5.125 10.025Q4.8 10.35 4.8 10.85Q4.8 11.35 5.125 11.675Q5.45 12 5.95 12ZM10.4 12H19.225V11Q19.225 10.2 18.638 9.612Q18.05 9.025 17.225 9.025H10.4ZM5.95 10.85Q5.95 10.85 5.95 10.85Q5.95 10.85 5.95 10.85Q5.95 10.85 5.95 10.85Q5.95 10.85 5.95 10.85Q5.95 10.85 5.95 10.85Q5.95 10.85 5.95 10.85Q5.95 10.85 5.95 10.85Q5.95 10.85 5.95 10.85Z"/></svg>