<svg xmlns="http://www.w3.org/2000/svg" height="40" width="40"><path d="M7.458 36.167Q5.917 36.167 4.875 35.125Q3.833 34.083 3.833 32.542V30.083H4.833V32.542Q4.833 33.667 5.583 34.417Q6.333 35.167 7.458 35.167H9.917V36.167ZM30.083 35.708V34.708H32.542Q33.667 34.708 34.417 33.958Q35.167 33.208 35.167 32.125V29.625H36.167V32.125Q36.167 33.625 35.125 34.667Q34.083 35.708 32.542 35.708ZM19.25 32.042 10.042 26.667Q9.75 26.458 9.583 26.146Q9.417 25.833 9.417 25.458V14.792Q9.417 14.417 9.562 14.104Q9.708 13.792 10.042 13.625L19.292 8.208Q19.625 8 20 8Q20.375 8 20.708 8.208L29.958 13.625Q30.292 13.792 30.438 14.104Q30.583 14.417 30.583 14.792V25.458Q30.583 25.833 30.417 26.146Q30.25 26.458 29.958 26.667L20.708 32.042Q20.375 32.25 19.979 32.25Q19.583 32.25 19.25 32.042ZM19.5 31.042 20 31.333 20.5 31.042V20.375L29.583 15.208V14.542L29.083 14.292L20 19.5L10.917 14.292L10.417 14.542V15.208L19.5 20.375ZM3.833 9.917V7.458Q3.833 5.917 4.875 4.875Q5.917 3.833 7.458 3.833H9.917V4.833H7.458Q6.333 4.833 5.583 5.583Q4.833 6.333 4.833 7.458V9.917ZM35.167 9.917V7.458Q35.167 6.333 34.417 5.583Q33.667 4.833 32.542 4.833H30.083V3.833H32.542Q34.083 3.833 35.125 4.875Q36.167 5.917 36.167 7.458V9.917Z"/></svg>