<svg xmlns="http://www.w3.org/2000/svg" height="24" viewBox="0 -960 960 960" width="24"><path d="M445.96-190.04 249.08-304.58q-15.96-9.54-25.1-25.09-9.13-15.55-9.13-34.14v-227.65q0-18.58 9.13-34.14 9.14-15.55 25.1-25.09l196.88-114.73q16.01-9.35 33.91-9.35 17.9 0 34.36 9.35l196.88 114.73q15.76 9.47 24.9 25.04 9.14 15.58 9.14 34.19v227.65q0 18.61-9.14 34.19-9.14 15.57-24.9 25.04L514.23-190.04q-16.21 9.54-34.11 9.54t-34.16-9.54Zm6.46-62.23V-462.5L270.81-565.39v201.08q0 3.27 1.54 5.96 1.53 2.7 4.61 4.43l175.46 101.65Zm55.96 0 174.66-101.65q3.08-1.73 4.61-4.43 1.54-2.69 1.54-5.96v-201.08L508.38-462.5v210.23Zm-400.3-424.5v-106.88q0-28.26 20-48.27 20.01-20 48.27-20h106.88v55.96H176.35q-5.39 0-8.85 3.46t-3.46 8.85v106.88h-55.96Zm175.15 568.69H176.35q-28.26 0-48.27-20-20-20.01-20-48.27v-106.88h55.96v106.88q0 5.39 3.46 8.85t8.85 3.46h106.88v55.96Zm393.54 0v-55.96h106.88q5.39 0 8.85-3.46t3.46-8.85v-106.07h55.96v106.07q0 28.26-20 48.27-20.01 20-48.27 20H676.77Zm119.19-568.69v-106.88q0-5.39-3.46-8.85t-8.85-3.46H676.77v-55.96h106.88q28.26 0 48.27 20 20 20.01 20 48.27v106.88h-55.96ZM480-511.77l180.39-103.35-174.24-100.57q-3.07-1.93-6.15-1.93-3.08 0-6.15 1.93L299.61-615.12 480-511.77Zm0 27.92Zm0-27.92Zm28.38 49.27Zm-55.96 0Z"/></svg>