<svg xmlns="http://www.w3.org/2000/svg" height="40" viewBox="0 96 960 960" width="40"><path d="M187.59 242.256V520.18v-1.744 391.308-667.488 191.896-191.896Zm92.334 398h177.398q10.64-19.129 24.877-35.026 14.237-15.896 31.467-28.562H279.924v63.588Zm0 171.538h147.179q-3.147-16.102-3.881-32.127-.734-16.026 1.419-31.461H279.924v63.588ZM120.002 977.332V174.668h412.153l227.843 226.844V537.82q-15.487-7.358-32.345-11.653-16.859-4.295-35.243-5.685v-86.33H499.027V242.256H187.59v667.488h283.975q15.201 22.597 36.154 39.421 20.953 16.825 45.844 28.167H120.002Zm550.74-108.639q42.798 0 72.708-29.652 29.909-29.653 29.909-72.45 0-42.798-29.985-72.708-29.986-29.909-72.783-29.909-42.798 0-72.374 29.985-29.577 29.986-29.577 72.783 0 42.798 29.652 72.374 29.653 29.577 72.45 29.577Zm203.925 148.977-110.42-110.133q-20.273 14.103-43.522 21.423-23.25 7.321-50.058 7.321-71.368 0-120.491-49.117-49.124-49.116-49.124-120.473t49.117-120.831q49.116-49.474 120.473-49.474t120.831 49.318q49.474 49.318 49.474 120.963 0 26.758-7.654 49.96-7.653 23.201-21.089 43.62l109.461 110.42-46.998 47.003Z"/></svg>