<svg xmlns="http://www.w3.org/2000/svg" height="20" viewBox="0 -960 960 960" width="20"><path d="M683.67-434.09v-259.82h69.92v259.82h-69.92Zm-106.95-58.95v-141.92h69.91v141.92h-69.91Zm213.91 0v-141.92h69.67v141.92h-69.67ZM168.5-206.11v-105.17h46.89V-524.5q0-43.15 14.96-88.16 14.95-45.01 43.63-80.17L441.54-524.5H302.78L51.28-778.76l69-67.76 723.5 725.02-69 69-156.13-153.61H168.5ZM480.98-63.07q-35.03 0-59.6-24.59-24.58-24.58-24.58-59.36h168.4q0 35.24-24.59 59.6-24.59 24.35-59.63 24.35Zm24.98-506.56L331.04-745.78q19.84-12.77 40.96-21.93 21.13-9.16 44.17-13.79V-834q0-26.69 18.57-45.26 18.57-18.57 45.26-18.57 27.33 0 46.34 18.57 19.01 18.57 19.01 45.26v52.54q20.48 5.07 38.5 11.8 18.03 6.73 34.69 17.03-47.89 26.36-78.76 75.94-30.87 49.58-33.82 107.06Z"/></svg>