<svg xmlns="http://www.w3.org/2000/svg" height="40" viewBox="0 -960 960 960" width="40"><path d="M677.33-676q3 3.67 4.17 8.17t-1.17 7.83l-63 139q-6.33 13-20.16 16.17-13.82 3.16-23.84-7.17l-60.66-61.33q-11-10.34-8.29-24.13 2.72-13.79 15.95-19.21l140.77-62.19q3.57-2.47 8.07-1.31 4.5 1.17 8.16 4.17ZM480.18-156.67q46.35 0 90.75-12.5t83.74-36.9L497-363.33l-196.87 85q-9.07 4.66-16.43-2.67-7.37-7.33-2.77-16.8l88.4-192.87-162.67-164q-25.33 39.34-37.66 83.73-12.33 44.39-12.33 90.94 0 135.08 94.12 229.21 94.13 94.12 229.39 94.12Zm-.13 106q-88.43 0-166.95-33.42-78.52-33.41-137.2-91.89-58.68-58.48-91.95-137.05-33.28-78.57-33.28-167.12 0-67.96 19.49-132.31Q89.65-676.81 129-731.67l-78.41-78.92q-10.92-11.25-10.92-27.42t11-28.41Q62.33-878 78.83-878T107-866l759.33 759q11.67 11.86 12 27.93.34 16.07-12.15 27.75-12.11 11.65-28.15 11.65-16.05 0-27.19-11.77L731.67-129q-55.23 39.35-119.36 58.84-64.13 19.49-132.26 19.49Zm84.62-514Zm-158 158ZM324-876.33q36.67-17.34 75.7-25.5Q438.73-910 480-910q86.42 0 165.27 32.77 78.86 32.77 138.62 93.43 60.62 59.81 93.36 138.73Q910-566.15 910-480q0 39.67-7.5 78.83-7.5 39.17-24.17 75.84-7.25 19.62-27.96 27.31-20.7 7.69-40.37-1.81-19.67-8.17-26.67-29.34-7-21.16-1.66-44.16 10.33-25 16-51.89 5.66-26.89 5.66-54.78 0-135.08-94.12-229.21-94.13-94.12-229.21-94.12-27.89 0-55.11 5.5T372.67-782q-21.67 7-42.84-.33-21.16-7.34-30.33-26.34-9.17-19-2.15-39.7 7.02-20.71 26.65-27.96Z"/></svg>