<svg xmlns="http://www.w3.org/2000/svg" height="48" viewBox="0 -960 960 960" width="48"><path d="M686.53-684.5q2.97 3.5 3.72 8t-.75 9l-100 187q-4 7-11.25 8t-11.75-4l-90-90q-5-5-4.6-12.25.41-7.25 7.6-10.75l190.21-98q4.45-1.5 8.9-.75t7.92 3.75ZM480-142.5q51.79 0 101.64-15 49.86-15 93.86-45l-174-174-209.51 108.52q-9.92 4.98-17.45-2.52Q267-278 272-288l113-205-182.5-182.5q-30 44-45 93.86-15 49.85-15 101.64 0 141.37 98.06 239.44Q338.63-142.5 480-142.5Zm0 57.5q-82.01 0-154.15-31.13-72.13-31.13-125.49-84.5Q147-254 116-325.97q-31-71.98-31-153.81 0-64.22 19-124.85 19-60.62 57-112.37l-74-74q-8.5-8.57-8.5-20.53 0-11.97 8.55-20.47 8.56-8.5 20.49-8.5 11.93 0 20.96 8.5L832-128.5q8.5 9 8.5 20.25T832-88q-9.1 8.5-21.05 8.5-11.95 0-20.45-8.5l-73.33-73q-51.82 38-112.52 57Q543.95-85 480-85Zm72-467ZM409.5-409.5Zm-135-409q46.5-28 98.75-42.25T480-875q79.06 0 151.21 29.75 72.14 29.75 128.21 85.83 56.08 56.07 85.83 128.21Q875-559.06 875-480q0 54-13.5 105.5t-40 98q-5.91 10.37-17.71 12.69Q792-261.5 781.75-268t-12-18.75Q768-299 774-309.5q21-39.34 32.25-82.17T817.5-480q0-141.38-98.06-239.44T480-817.5q-45.5 0-88.83 11.25T308.5-773q-10 6-21.5 4.5t-19-11.25q-7.5-9.75-5.78-21.22 1.72-11.48 12.28-17.53Z"/></svg>