<svg xmlns="http://www.w3.org/2000/svg" height="24" width="24"><path d="M9.225 10.1h8.65V7.975h-8.65Zm0 3.95h8.65v-2.125h-8.65Zm-2.15-3.9q.475 0 .8-.313.325-.312.325-.787 0-.475-.325-.8-.325-.325-.8-.325-.475 0-.8.313-.325.312-.325.787 0 .475.325.8.325.325.8.325Zm0 3.95q.475 0 .8-.313.325-.312.325-.787 0-.475-.325-.8-.325-.325-.8-.325-.475 0-.8.313-.325.312-.325.787 0 .475.325.8.325.325.8.325Zm.825 7.375v-2.2H4.3q-1.05 0-1.787-.737-.738-.738-.738-1.788V5.275q0-1.05.738-1.788Q3.25 2.75 4.3 2.75h15.4q1.05 0 1.788.737.737.738.737 1.788V16.75q0 1.05-.737 1.788-.738.737-1.788.737h-3.6v2.2Z"/></svg>