<svg xmlns="http://www.w3.org/2000/svg" height="40" viewBox="0 -960 960 960" width="40"><path d="M158.57-112q-32.13 0-56.02-23.89-23.88-23.88-23.88-56.01v-185.48q0-32.13 23.88-56.02 23.89-23.88 56.02-23.88h152.81q11.99 0 21.21 7.1 9.22 7.11 12.38 19.21 16.57 45.95 52.45 71.64 35.89 25.69 82.58 25.69 46.41 0 81.96-25.69t52.73-71.64q3.17-12.1 12.55-19.21 9.37-7.1 21.76-7.1h152.43q32.13 0 56.02 23.88 23.88 23.89 23.88 56.02v185.48q0 32.13-23.88 56.01Q833.56-112 801.43-112H158.57Zm0-67.59h642.86q4.62 0 8.47-3.85 3.84-3.84 3.84-8.46v-185.48q0-4.62-3.84-8.47-3.85-3.84-8.47-3.84H670.87Q646.2-333.28 595.51-299t-114.18 34.28q-65.81 0-117.79-34.28-51.98-34.28-73.08-90.69H158.57q-4.62 0-8.47 3.84-3.84 3.85-3.84 8.47v185.48q0 4.62 3.84 8.46 3.85 3.85 8.47 3.85Zm542.19-398.54q-10.79-10.61-10.79-23.69 0-13.08 10.29-24.1l75.64-75.98q10.23-10.23 24.16-10.05 13.94.18 23.93 10.8 10.65 11.28 10.65 24.23 0 12.95-10.28 23.56l-75.39 76.64q-10.23 10.23-24.16 10.05-13.94-.18-24.05-11.46Zm-440.98 0q-9.98 11.28-24.06 11.28-14.08 0-24.69-11.28l-76.05-75.64q-9.9-10.23-9.76-23.16.14-12.94 10.79-24.22 9.99-10.62 24.07-10.62 14.07 0 24.69 10.62l75.64 75.64q9.9 10.9 9.96 23.83.07 12.94-10.59 23.55Zm219.77-96.79q-14.42 0-24.22-9.88-9.79-9.88-9.79-24.25V-815.1q0-13.7 9.92-23.58 9.91-9.88 24.33-9.88 13.75 0 23.54 9.88 9.8 9.88 9.8 23.58v106.05q0 14.37-9.92 24.25-9.91 9.88-23.66 9.88ZM158.57-179.59h-12.31H813.74 158.57Z"/></svg>