<svg xmlns="http://www.w3.org/2000/svg" height="48" viewBox="0 -960 960 960" width="48"><path d="M442.37-314.35q20.31 0 40.58-5.54 20.28-5.53 38.4-18.61l97.09 97.76q5.46 6.05 14.21 5.99 8.76-.06 15.39-6.38 5.38-5.24 5.38-13.95 0-8.71-5.59-15.29l-98.14-97.8q12.08-16.52 16.81-35.73 4.73-19.2 4.73-38.95 0-53.11-37.21-90.46-37.2-37.34-90.86-37.34t-90.76 37.2q-37.09 37.21-37.09 91.38 0 54.17 36.82 90.95 36.83 36.77 90.24 36.77Zm.81-43.84q-35.56 0-59.79-24.26-24.24-24.25-24.24-59.82 0-35.58 24.26-60.06 24.26-24.48 59.73-24.48 35.62 0 59.93 24.44 24.31 24.43 24.31 60.17t-24.32 59.87q-24.33 24.14-59.88 24.14ZM238.85-103.08q-22.62 0-39.35-16.73t-16.73-39.34v-641.7q0-22.61 16.73-39.34 16.73-16.73 39.42-16.73H562q11.73 0 22.14 4.65 10.4 4.66 18.71 11.86l157.34 157.59q7.92 8.28 12.48 18.62 4.56 10.34 4.56 22.01v482.96q0 22.69-16.73 39.42t-39.35 16.73h-482.3Zm324.61-570.73v-139.27H238.92q-4.61 0-8.46 3.85-3.84 3.85-3.84 8.46v641.54q0 4.61 3.84 8.46 3.85 3.85 8.46 3.85h482.16q4.61 0 8.46-3.85 3.84-3.85 3.84-8.46v-486.16H591.89q-11.87 0-20.15-8.27-8.28-8.28-8.28-20.15ZM226.62-813.08V-645.39v-167.69V-146.92v-666.16Z"/></svg>