<svg xmlns="http://www.w3.org/2000/svg" height="20" viewBox="0 -960 960 960" width="20"><path d="M444-288q14.26 0 28.13-3.5T499-302l63 62q11 11 25 11t25-11q11-11 11-25t-11-25l-62-63q7-13 10.5-26.54T564-407q0-51.28-34.5-86.64T444-529q-51 0-85.5 35.62-34.5 35.61-34.5 86 0 50.38 34.78 84.88Q393.57-288 444-288Zm0-72q-20 0-34-13.71T396-407q0-20.42 14-34.71T444-456q20 0 34 14.29T492-407q0 19.58-14 33.29T444-360ZM275.72-62Q226-62 192-96.15T158-180v-600q0-49.7 34.15-83.85Q226.3-898 276-898h265q23.47 0 44.73 8.5Q607-881 625-863l142 142q18 18 26.5 39.27Q802-660.47 802-637v457q0 49.7-34.16 83.85Q733.68-62 683.96-62H275.72ZM516-671v-109H276v600h408v-432H575q-24.3 0-41.65-17.35Q516-646.7 516-671ZM276-780v168-168 600-600Z"/></svg>