<svg xmlns="http://www.w3.org/2000/svg" height="20" width="20"><path d="M10 18.521Q8.229 18.521 6.667 17.854Q5.104 17.188 3.958 16.031Q2.812 14.875 2.146 13.323Q1.479 11.771 1.479 10Q1.479 8.229 2.146 6.667Q2.812 5.104 3.969 3.958Q5.125 2.812 6.677 2.146Q8.229 1.479 10 1.479Q11.771 1.479 13.333 2.146Q14.896 2.812 16.042 3.969Q17.188 5.125 17.854 6.677Q18.521 8.229 18.521 10Q18.521 11.771 17.854 13.333Q17.188 14.896 16.031 16.042Q14.875 17.188 13.323 17.854Q11.771 18.521 10 18.521ZM5.625 14.375 11.771 11.75 14.375 5.625 8.25 8.229ZM10 10.792Q9.667 10.792 9.438 10.562Q9.208 10.333 9.208 10Q9.208 9.646 9.438 9.406Q9.667 9.167 10 9.167Q10.354 9.167 10.594 9.406Q10.833 9.646 10.833 10Q10.833 10.333 10.594 10.562Q10.354 10.792 10 10.792Z"/></svg>