<svg xmlns="http://www.w3.org/2000/svg" height="24" width="24"><path d="M14.3 21.25 13.35 20.775Q12.95 20.55 12.863 20.125Q12.775 19.7 13.075 19.375L14.7 17.525Q14.8 17.375 14.938 17.312Q15.075 17.25 15.25 17.25Q15.725 17.25 15.925 17.675Q16.125 18.1 15.8 18.475L14.7 19.75L15.65 20.225Q16.05 20.45 16.138 20.875Q16.225 21.3 15.925 21.625L14.3 23.475Q14.2 23.625 14.062 23.688Q13.925 23.75 13.75 23.75Q13.275 23.75 13.075 23.325Q12.875 22.9 13.2 22.525ZM8.3 21.25 7.35 20.775Q6.95 20.55 6.863 20.125Q6.775 19.7 7.075 19.375L8.7 17.525Q8.8 17.375 8.938 17.312Q9.075 17.25 9.25 17.25Q9.725 17.25 9.925 17.675Q10.125 18.1 9.8 18.475L8.7 19.75L9.65 20.225Q10.05 20.45 10.138 20.875Q10.225 21.3 9.925 21.625L8.3 23.475Q8.2 23.625 8.062 23.688Q7.925 23.75 7.75 23.75Q7.275 23.75 7.075 23.325Q6.875 22.9 7.2 22.525ZM7.5 15.75Q5.325 15.75 3.788 14.212Q2.25 12.675 2.25 10.5Q2.25 8.5 3.588 7.012Q4.925 5.525 6.925 5.275Q7.7 3.875 9.037 3.062Q10.375 2.25 12 2.25Q14.2 2.25 15.8 3.688Q17.4 5.125 17.725 7.25Q19.5 7.375 20.625 8.6Q21.75 9.825 21.75 11.5Q21.75 13.275 20.513 14.512Q19.275 15.75 17.5 15.75ZM7.5 14.25H17.5Q18.65 14.25 19.45 13.45Q20.25 12.65 20.25 11.5Q20.25 10.35 19.45 9.55Q18.65 8.75 17.5 8.75H16.25V8Q16.25 6.25 15 5Q13.75 3.75 12 3.75Q10.725 3.75 9.675 4.438Q8.625 5.125 8.1 6.3L7.9 6.75H7.45Q5.925 6.8 4.838 7.888Q3.75 8.975 3.75 10.5Q3.75 12.05 4.85 13.15Q5.95 14.25 7.5 14.25ZM12 9Q12 9 12 9Q12 9 12 9Q12 9 12 9Q12 9 12 9Q12 9 12 9Q12 9 12 9Q12 9 12 9Q12 9 12 9Q12 9 12 9Q12 9 12 9Q12 9 12 9Q12 9 12 9Z"/></svg>