<svg xmlns="http://www.w3.org/2000/svg" height="20" width="20"><path d="m11.917 17.708-.813-.416q-.354-.146-.416-.5-.063-.354.187-.646l1.333-1.521q.084-.104.198-.156.115-.052.261-.052.395 0 .573.364.177.365-.094.657l-.896 1.02.812.396q.355.167.417.521.063.354-.187.646l-1.334 1.521q-.083.104-.198.156-.114.052-.26.052-.396 0-.573-.365-.177-.364.094-.656Zm-5 0-.813-.416q-.354-.146-.416-.5-.063-.354.187-.646l1.333-1.521q.084-.104.198-.156.115-.052.261-.052.395 0 .573.364.177.365-.094.657l-.896 1.02.812.396q.355.167.417.521.063.354-.187.646l-1.334 1.521q-.083.104-.198.156-.114.052-.26.052-.396 0-.573-.365-.177-.364.094-.656Zm-.625-4.541q-1.813 0-3.094-1.282-1.281-1.281-1.281-3.093 0-1.667 1.114-2.896 1.115-1.229 2.74-1.458.646-1.146 1.771-1.834Q8.667 1.917 10 1.917q1.792 0 3.135 1.208 1.344 1.208 1.636 2.958 1.458.146 2.385 1.157.927 1.01.927 2.385 0 1.458-1.041 2.5-1.042 1.042-2.5 1.042Zm0-1.25h8.25q.958 0 1.625-.667.666-.667.666-1.625T16.167 8q-.667-.667-1.625-.667h-1v-.625q0-1.479-1.032-2.51Q11.479 3.167 10 3.167q-1.062 0-1.938.593-.874.594-1.312 1.532l-.167.375H6.25q-1.271.041-2.177.948-.906.906-.906 2.177 0 1.291.916 2.208.917.917 2.209.917ZM10 7.542Z"/></svg>