<svg xmlns="http://www.w3.org/2000/svg" height="24" width="24"><path d="M8.225 16.475Q7.525 16.475 7.025 15.988Q6.525 15.5 6.525 14.775V8.375H7.925V14.775Q7.925 14.9 8.012 15Q8.1 15.1 8.225 15.1H16.6V16.475ZM11.9 12.8Q11.2 12.8 10.7 12.312Q10.2 11.825 10.2 11.1V5.525Q10.2 4.825 10.7 4.325Q11.2 3.825 11.9 3.825H19.475Q20.175 3.825 20.675 4.325Q21.175 4.825 21.175 5.525V11.1Q21.175 11.825 20.675 12.312Q20.175 12.8 19.475 12.8ZM11.9 11.4H19.475Q19.575 11.4 19.675 11.312Q19.775 11.225 19.775 11.1V7.125H11.6V11.1Q11.6 11.225 11.7 11.312Q11.8 11.4 11.9 11.4ZM4.55 20.175Q3.825 20.175 3.338 19.675Q2.85 19.175 2.85 18.475V12.075H4.225V18.475Q4.225 18.575 4.325 18.675Q4.425 18.775 4.55 18.775H12.925V20.175Z"/></svg>