<svg xmlns="http://www.w3.org/2000/svg" height="24" viewBox="0 -960 960 960" width="24"><path d="M499.28-28.63q-24.95 0-42.42-16.97-17.47-16.96-17.47-41.92 0-11.98 4.49-22.71t13.23-19.2l42.17-38.94 42.18 38.94q8.74 8.47 13.22 19.2 4.49 10.73 4.49 22.71 0 24.96-17.46 41.92-17.47 16.97-42.43 16.97ZM359.61-93.7l-44.72-44.47 120.72-120.72 44.48 44.72L359.61-93.7Zm264.93-60-62.47-62.47 62.47-62.48 62.48 62.48-62.48 62.47Zm-374.11 0-62.47-62.47 62.47-62.48 62.48 62.48-62.48 62.47ZM300-320.59q-92.15 0-157.58-65.42Q77-451.43 77-543.59q0-83.43 55.23-146.25 55.23-62.81 136.68-74.27 32.96-57 89.17-89.74 56.2-32.74 121.92-32.74 89.96 0 157.03 57.5 67.08 57.5 82.51 143.98 69.22 7.44 116.34 58.88Q883-574.78 883-503.59q0 75.66-53.55 129.33-53.56 53.67-129.45 53.67H300Z"/></svg>