<svg xmlns="http://www.w3.org/2000/svg" version="1.1" width="3300" height="2000"><g id="Notes"><style>
    text {
      font-family: monospace;
      text-anchor: middle;
    }
    text.emphasis {
      font-weight:bold;
    }
    text.lanchor {
      text-anchor: start;
    }
  </style><rect height="2200" id="artboard" fill="white" width="3300" x="0" y="0"/><line id="" style="fill:none;stroke:black;stroke-width:0.5;" x1="263" x2="3036" y1="292" y2="292"/><text class="lanchor emphasis" transform="matrix(1 0 0 1 263 322)">Weight/Scale Variations</text><text transform="matrix(1 0 0 1 559.711 322)">Ultralight</text><text transform="matrix(1 0 0 1 856.422 322)">Thin</text><text transform="matrix(1 0 0 1 1153.13 322)">Light</text><text transform="matrix(1 0 0 1 1449.84 322)">Regular</text><text transform="matrix(1 0 0 1 1746.56 322)">Medium</text><text transform="matrix(1 0 0 1 2043.27 322)">Semibold</text><text transform="matrix(1 0 0 1 2339.98 322)">Bold</text><text transform="matrix(1 0 0 1 2636.69 322)">Heavy</text><text transform="matrix(1 0 0 1 2933.4 322)">Black</text><text id="template-version" style="text-anchor: end;" transform="matrix(1 0 0 1 3036 1933)">Template v.1.0</text><text class="lanchor" transform="matrix(1 0 0 1 263 726)">Small</text><text class="lanchor" transform="matrix(1 0 0 1 263 1156)">Medium</text><text class="lanchor" transform="matrix(1 0 0 1 263 1586)">Large</text></g><g id="Guides"><g id="H-reference" style="fill:#27AAE1;stroke:none;" transform="matrix(1 0 0 1 339 696)"><path d="M 54.9316 0 L 57.666 0 L 30.5664 -70.459 L 28.0762 -70.459 L 0.976562 0 L 3.66211 0 L 12.9395 -24.4629 L 45.7031 -24.4629 Z M 29.1992 -67.0898 L 29.4434 -67.0898 L 44.8242 -26.709 L 13.8184 -26.709 Z"/></g><line id="Baseline-S" style="fill:none;stroke:#27AAE1;opacity:1;stroke-width:0.577;" x1="263" x2="3036" y1="696" y2="696"/><line id="Capline-S" style="fill:none;stroke:#27AAE1;opacity:1;stroke-width:0.577;" x1="263" x2="3036" y1="625.541" y2="625.541"/><g id="H-reference" style="fill:#27AAE1;stroke:none;" transform="matrix(1 0 0 1 339 1126)"><path d="M 54.9316 0 L 57.666 0 L 30.5664 -70.459 L 28.0762 -70.459 L 0.976562 0 L 3.66211 0 L 12.9395 -24.4629 L 45.7031 -24.4629 Z M 29.1992 -67.0898 L 29.4434 -67.0898 L 44.8242 -26.709 L 13.8184 -26.709 Z"/></g><line id="Baseline-M" style="fill:none;stroke:#27AAE1;opacity:1;stroke-width:0.577;" x1="263" x2="3036" y1="1126" y2="1126"/><line id="Capline-M" style="fill:none;stroke:#27AAE1;opacity:1;stroke-width:0.577;" x1="263" x2="3036" y1="1055.54" y2="1055.54"/><g id="H-reference" style="fill:#27AAE1;stroke:none;" transform="matrix(1 0 0 1 339 1556)"><path d="M 54.9316 0 L 57.666 0 L 30.5664 -70.459 L 28.0762 -70.459 L 0.976562 0 L 3.66211 0 L 12.9395 -24.4629 L 45.7031 -24.4629 Z M 29.1992 -67.0898 L 29.4434 -67.0898 L 44.8242 -26.709 L 13.8184 -26.709 Z"/></g><line id="Baseline-L" style="fill:none;stroke:#27AAE1;opacity:1;stroke-width:0.577;" x1="263" x2="3036" y1="1556" y2="1556"/><line id="Capline-L" style="fill:none;stroke:#27AAE1;opacity:1;stroke-width:0.577;" x1="263" x2="3036" y1="1485.54" y2="1485.54"/><rect height="119.336" id="left-margin" style="fill:darkred;stroke:none;opacity:0.4;" width="12.4512" x="1394.06" y="1030.79"/><rect height="119.336" id="right-margin" style="fill:darkgreen;stroke:none;opacity:0.4;" width="12.4512" x="1502.5112" y="1030.79"/><rect x="1406.5112" y="1045" width="96" height="96" fill="none" stroke="blue" stroke-dasharray="5"/><rect x="1394.06" y="1030.79" width="120.9024" height="119.336" fill="none" stroke="blue"/></g><g id="Symbols"><g id="Bold-L" transform="matrix(1 0 0 1 2266 1556)"><path d="M2010.7875000000001 353.3825 Q2392.8048750000003 353.3825 2662.9728 622.873175 Q2933.1375000000003 892.3670750000001 2933.1375000000003 1274.12 H2638.05 Q2638.05 1166.2889 2603.1426 1066.1591000000003 Q2568.2352 966.032525 2500.3812000000003 883.895 L2431.65 996.7700000000001 Q2398.12935 1054.8200000000002 2364.902175 1116.90125 Q2331.675 1178.9825 2284.9125 1219.295 Q2237.15025 1266.0575 2173.16625 1267.67 Q2109.1854749999998 1269.2825000000003 2063.596875 1220.1012500000002 Q2017.2375 1170.92 2018.8500000000001 1109.645 Q2020.4625 1048.37 2067.5249249999997 1000.1046500000001 Q2111.449425 958.07 2169.963825 920.1762500000001 Q2228.475 882.2825 2283.3 850.0325 L2397.7875 783.9200000000001 Q2317.262475 718.2848000000001 2217.8583 683.3774000000001 Q2118.454125 648.47 2010.7875000000001 648.47 V353.3825 Z M1556.88165 3078.5075 Q1278.7125 3078.5075 1034.2768500000002 2972.356625 Q789.8412000000001 2866.2057499999996 606.4806000000001 2683.1741 Q423.11999999999995 2500.1424500000003 317.17875 2255.587475 Q211.2375 2011.0324999999998 211.2375 1733.2116500000002 Q211.2375 1234.055825 532.125 859.833275 Q853.0125 485.6075000000001 1339.9875 395.3075 Q1302.9 721.0325 1389.16875 1033.486625 Q1475.4375 1345.9407500000002 1710.05625 1578.4664750000002 Q1938.2250000000001 1810.9922000000001 2252.6625 1894.9776500000003 Q2567.1 1978.959875 2891.2125 1957.913525 Q2804.1375000000003 2442.327875 2430.3922500000003 2760.4160749999996 Q2056.647 3078.5075 1556.88165 3078.5075 Z M1557.675 2780.195 Q1841.2976250000002 2780.195 2076.006675 2627.0075 Q2310.7125 2473.82 2470.35 2235.17 Q2198.5212 2196.6344750000003 1946.13915 2087.706875 Q1693.7571 1978.7824999999998 1501.2375 1783.67 Q1304.644725 1593.8529500000004 1197.348975 1344.492725 Q1090.05 1095.1325000000002 1049.7375 827.4575 Q814.3125 983.87 661.93125 1216.1538500000001 Q509.55 1448.4377 509.55 1732.0700000000002 Q509.55 2173.491875 812.8999500000001 2476.84505 Q1116.253125 2780.195 1557.675 2780.195 Z"/></g><g id="Semibold-L" transform="matrix(1 0 0 1 1970.27 1556)"><path d="M2002.3734749999999 387.03215 Q2374.5804 387.03215 2637.7339500000003 649.5149 Q2900.890725 911.9944250000002 2900.890725 1283.9336750000002 H2653.47195 Q2653.47195 1163.396075 2611.5534000000002 1054.1975750000001 Q2569.6380750000003 944.9990750000001 2491.9703999999997 857.2565000000001 L2396.597475 1014.9977 Q2364.4797000000003 1070.24195 2330.5527 1132.3231999999998 Q2296.622475 1194.40445 2252.665725 1234.71695 Q2209.108875 1277.27405 2150.0333250000003 1278.186725 Q2090.9577750000003 1279.0961750000001 2049.574575 1234.823375 Q2007.423825 1190.5505750000002 2009.036325 1134.1808 Q2010.648825 1077.81425 2053.50585 1034.4315500000002 Q2096.0274750000003 993.1225250000001 2155.2417 955.2287750000002 Q2214.4527000000003 917.3350250000002 2267.87805 886.4879 L2427.23175 793.7336750000001 Q2341.09845 718.2848000000001 2231.9257500000003 676.36625 Q2122.749825 634.4476999999999 2002.3734749999999 634.4476999999999 V387.03215 Z M1557.297675 3057.477275 Q1282.9179 3057.477275 1042.1007 2952.8679500000003 Q801.2835 2848.258625 621.176925 2668.4777750000003 Q441.067125 2488.70015 336.66742500000004 2247.763625 Q232.267725 2006.8271 232.267725 1732.7956250000002 Q232.267725 1247.3009000000002 542.641725 880.4732750000001 Q853.0125 513.648875 1328.77095 423.348875 Q1283.2694250000002 744.8684750000001 1373.04375 1053.8170250000003 Q1462.818075 1362.765575 1694.6343 1593.888425 Q1922.80305 1825.0145000000002 2233.0319250000002 1913.2021249999998 Q2543.2640250000004 2001.3929749999998 2864.574 1964.9246749999998 Q2777.4990000000003 2439.522125 2410.445625 2748.4997 Q2043.39225 3057.477275 1557.297675 3057.477275 Z M1557.675 2808.236375 Q1859.525325 2808.236375 2107.553625 2641.0298 Q2355.5787 2473.82 2516.619075 2214.139775 Q2236.3762500000003 2181.2093 1976.986275 2072.98475 Q1717.593075 1964.7602000000002 1519.4652 1765.4422999999997 Q1318.667025 1570.016975 1212.0711000000001 1312.9457750000001 Q1105.4719499999999 1055.8745749999998 1072.1706000000001 779.7855500000001 Q814.3125 936.1980500000001 647.90895 1183.204025 Q481.50862500000005 1430.213225 481.50862500000005 1732.0700000000002 Q481.50862500000005 2184.0085999999997 793.624125 2496.120875 Q1105.7364 2808.236375 1557.675 2808.236375 Z"/></g><g id="Medium-L" transform="matrix(1 0 0 1 1674.31 1556)"><path d="M1996.065375 412.274225 Q2360.9064 412.274225 2618.8032000000003 669.4970000000001 Q2876.7000000000003 926.7197749999999 2876.7000000000003 1291.29635 H2665.04325 Q2665.04325 1161.2256500000003 2617.864725 1045.225625 Q2570.689425 929.2255999999999 2485.659075 837.2744 L2370.3040499999997 1028.668475 Q2339.237625 1081.8132500000002 2304.78495 1143.8944999999999 Q2270.32905 1205.97575 2228.475 1246.28825 Q2188.075425 1285.688075 2132.6796000000004 1286.0718500000003 Q2077.2837750000003 1286.45885 2039.05785 1245.8657749999998 Q2000.06115 1205.2727 2001.67365 1152.5858750000002 Q2003.28615 1099.89905 2042.9859000000001 1060.1831750000001 Q2084.4594 1019.41595 2144.1993 981.5222 Q2203.935975 943.62845 2256.30675 913.8294500000001 L2449.31655 801.0963500000001 Q2358.97785 718.2848000000001 2242.474725 671.1095 Q2125.974825 623.930975 1996.065375 623.930975 V412.274225 Z M1557.607275 3041.700575 Q1286.0751750000002 3041.700575 1047.9702 2938.249025 Q809.86845 2834.7974750000003 632.199975 2657.454725 Q454.528275 2480.1151999999997 351.28635 2241.8941250000003 Q248.044425 2003.669825 248.044425 1732.4828000000002 Q248.044425 1257.2339000000002 550.52685 895.9597249999999 Q853.0125 534.6823250000001 1320.356925 444.38232500000004 Q1268.5473000000002 762.747875 1360.95 1069.064825 Q1453.3527 1375.3849999999998 1683.063 1605.4565000000002 Q1911.2317500000001 1835.5312250000002 2218.3098 1926.8761249999998 Q2525.384625 2018.2210250000003 2844.5919 1970.1846499999997 Q2757.5169 2437.419425 2395.481625 2739.56 Q2033.449575 3041.700575 1557.607275 3041.700575 Z M1557.675 2829.269825 Q1873.199325 2829.269825 2131.21545 2651.546525 Q2389.2347999999997 2473.82 2551.3265250000004 2198.3630749999998 Q2264.772375 2169.6412250000003 2000.122425 2061.94235 Q1735.472475 1954.2434749999998 1533.1359750000001 1751.771525 Q1329.18375 1552.1375750000002 1223.1135 1289.280725 Q1117.04325 1026.4271000000003 1088.99865 744.0299749999999 Q814.3125 900.442475 637.3922249999999 1158.4908500000001 Q460.475175 1416.539225 460.475175 1732.0700000000002 Q460.475175 2191.893725 779.163225 2510.581775 Q1097.851275 2829.269825 1557.675 2829.269825 Z"/></g><g id="Regular-L" transform="matrix(1 0 0 1 1378.56 1556)"><path d="M1991.4375 430.7825 Q2350.879875 430.7825 2604.9228 684.148175 Q2858.9625 937.5170750000001 2858.9625 1296.6950000000002 H2673.525 Q2673.525 1159.6325000000002 2622.4926 1038.6434 Q2571.4602 917.657525 2481.0312 822.62 L2351.025 1038.6950000000002 Q2320.72935 1090.295 2285.889675 1152.3762500000003 Q2251.05 1214.4575 2210.7375 1254.77 Q2172.65025 1291.8575 2119.95375 1291.8575 Q2067.260475 1291.8575 2031.346875 1253.96375 Q1994.6625000000001 1216.0700000000002 1996.275 1166.0825 Q1997.8875 1116.0950000000003 2035.274925 1079.0623249999999 Q2075.974425 1038.6950000000002 2136.101325 1000.8012500000001 Q2196.225 962.9075000000001 2247.8250000000003 933.8825 L2465.5125000000003 806.495 Q2372.087475 718.2848000000001 2250.2115 667.2524000000001 Q2128.3387500000003 616.22 1991.4375 616.22 V430.7825 Z M1557.833025 3030.1325 Q1288.3875 3030.1325 1052.275575 2927.529125 Q816.1636500000001 2824.92575 640.281825 2649.3728749999996 Q464.40000000000003 2473.82 362.00625 2237.58875 Q259.6125 2001.3575 259.6125 1732.2506000000003 Q259.6125 1264.519175 556.3125 907.3149500000001 Q853.0125 550.1075000000001 1314.1875 459.8075 Q1257.75 775.8575000000001 1352.08125 1080.2491249999998 Q1446.4125000000001 1384.64075 1674.58125 1613.941475 Q1902.75 1843.2422000000001 2207.5125000000003 1936.90265 Q2512.275 2030.559875 2829.9375 1974.038525 Q2742.8625 2435.877875 2384.5101750000003 2733.0035749999997 Q2026.1610750000002 3030.1325 1557.833025 3030.1325 Z M1557.675 2844.695 Q1883.222625 2844.695 2148.569175 2659.2575 Q2413.9125 2473.82 2576.775 2186.795 Q2285.5962 2161.159475 2017.0891499999998 2053.8443749999997 Q1748.5821 1946.5324999999998 1543.1625000000001 1741.745 Q1336.894725 1539.0279500000001 1231.211475 1271.930225 Q1125.525 1004.8325000000001 1101.3375 717.8075 Q814.3125 874.22 629.68125 1140.3663500000002 Q445.05 1406.5127000000002 445.05 1732.0700000000002 Q445.05 2197.679375 768.5562000000001 2521.1888 Q1092.065625 2844.695 1557.675 2844.695 Z"/></g><g id="Light-L" transform="matrix(1 0 0 1 1082.77 1556)"><path d="M1951.121775 493.4249000000001 Q2301.169725 493.4249000000001 2549.0529 740.5534250000001 Q2796.9393 987.68195 2796.9393 1337.010725 H2655.539175 Q2655.539175 1195.897625 2602.64595 1071.35135 Q2549.752725 946.8083 2458.085325 849.29075 L2363.334825 1007.7737000000001 Q2332.7586 1059.5736499999998 2297.1771750000003 1122.0032 Q2261.592525 1184.429525 2221.3058250000004 1226.1965 Q2190.0168750000003 1255.8826250000002 2145.6118500000002 1255.8826250000002 Q2101.21005 1255.8826250000002 2071.0434 1224.5033750000002 Q2040.5607 1194.362525 2042.1732 1150.9669250000002 Q2043.7857 1107.5745500000003 2073.865275 1077.2015000000001 Q2114.1100500000002 1036.834175 2175.7655999999997 999.3661250000001 Q2237.42115 961.9013000000001 2289.38235 931.402475 L2448.7650750000003 838.1258 Q2352.240825 743.7139250000001 2224.4050500000003 689.269475 Q2096.5692750000003 634.82825 1951.121775 634.82825 V493.4249000000001 Z M1557.66855 2966.867675 Q1301.3004 2966.867675 1077.02745 2869.537175 Q852.757725 2772.206675 684.9384 2604.7163 Q517.1190750000001 2437.225925 419.9982 2212.836875 Q322.87732500000004 1988.4445999999998 322.87732500000004 1732.2957500000002 Q322.87732500000004 1310.7044 578.952 981.2642 Q835.0266750000001 651.827225 1243.479375 546.021425 Q1208.13015 854.6281250000001 1308.353475 1145.826275 Q1408.5768 1437.024425 1629.6150750000002 1659.3785000000003 Q1850.6501250000001 1881.732575 2142.3868500000003 1981.230275 Q2434.123575 2080.7311999999997 2743.7235750000004 2045.949575 Q2639.904375 2454.19265 2309.7708 2710.531775 Q1979.64045 2966.867675 1557.66855 2966.867675 Z M1557.5846999999999 2825.46755 Q1872.6801000000003 2825.46755 2131.0993500000004 2652.0206 Q2389.5186000000003 2478.5736500000003 2545.7634000000003 2202.57815 Q2258.7513000000004 2176.84265 1995.6042000000002 2067.23135 Q1732.4571 1957.62005 1530.136725 1754.4224750000003 Q1324.542975 1554.0887000000002 1216.041075 1292.795975 Q1107.5391750000001 1031.5032499999998 1085.2125 746.958275 Q808.7300250000001 897.7883 636.50535 1157.358875 Q464.27745 1416.9262250000002 464.27745 1732.1216 Q464.27745 2190.855275 781.633575 2508.163025 Q1098.9897 2825.46755 1557.5846999999999 2825.46755 Z"/></g><g id="Thin-L" transform="matrix(1 0 0 1 787.282 1556)"><path d="M1910.8125 556.0608500000001 Q2251.466025 556.0608500000001 2493.1958999999997 796.9490000000001 Q2734.925775 1037.8371499999998 2734.925775 1377.3200000000002 H2637.55335 Q2637.55335 1232.1530750000002 2582.7993 1104.056075 Q2528.04525 975.9558499999999 2435.13945 875.95505 L2375.6414250000003 976.8588500000002 Q2344.7846250000002 1028.8587499999999 2308.4614500000002 1091.633375 Q2272.1350500000003 1154.408 2231.870925 1197.626225 Q2207.380275 1219.9142000000002 2171.266725 1219.9142000000002 Q2135.153175 1219.9142000000002 2110.73025 1195.046225 Q2086.4492250000003 1172.6582749999998 2088.061725 1135.8577999999998 Q2089.674225 1099.0573249999998 2112.4524 1075.340675 Q2152.236 1034.9733500000002 2215.423425 997.9342250000001 Q2278.607625 960.8918750000001 2330.930025 928.9224499999999 L2432.020875 869.753375 Q2332.3974000000003 769.139825 2198.6018249999997 711.28655 Q2064.80625 653.43005 1910.8125 653.43005 V556.0608500000001 Z M1557.5008500000001 2903.612525 Q1314.210075 2903.612525 1101.779325 2811.5549 Q889.34535 2719.49405 729.5885250000001 2560.066175 Q569.8317000000001 2400.6383 477.98047500000007 2188.085 Q386.132475 1975.534925 386.132475 1732.3408999999997 Q386.132475 1356.87995 601.58505 1055.203775 Q817.04085 753.530825 1172.78415 632.219225 Q1158.519975 933.38585 1264.635375 1211.3937500000002 Q1370.750775 1489.4016500000002 1584.65535 1704.8090750000001 Q1798.559925 1920.2165 2077.2741 2025.5546749999999 Q2355.988275 2130.89285 2657.525775 2117.85095 Q2536.95915 2472.507425 2235.0443250000003 2688.059975 Q1933.1327250000002 2903.612525 1557.5008500000001 2903.612525 Z M1557.4944 2806.243325 Q1862.1375750000002 2806.243325 2113.63275 2644.786925 Q2365.1279250000002 2483.330525 2514.755025 2218.358075 Q2231.9096250000002 2192.5226 1974.11925 2080.6151 Q1716.3321 1968.7075999999997 1517.1141750000002 1767.0967249999999 Q1312.191225 1569.14945 1200.8739 1313.6585 Q1089.5533500000001 1058.1675500000001 1069.0875 776.105825 Q803.14755 921.353375 643.326225 1174.3449500000002 Q483.50167500000003 1427.3365250000002 483.50167500000003 1732.1732000000002 Q483.50167500000003 2184.0344 794.707725 2495.140475 Q1105.913775 2806.243325 1557.4944 2806.243325 Z"/></g><g id="Ultralight-L" transform="matrix(1 0 0 1 491.205 1556)"><path d="M1886.625 593.645 Q2221.638 593.645 2459.6752500000002 830.7889250000001 Q2697.7125 1067.9328500000001 2697.7125 1401.5075000000002 H2626.7625000000003 Q2626.7625000000003 1253.91215 2570.8926 1123.6769749999999 Q2515.0227 993.4450250000001 2421.3687 891.9575 L2383.026675 958.3054249999999 Q2352.002175 1010.427875 2315.230725 1073.4121249999998 Q2278.4625 1136.3931499999999 2238.20805 1180.48535 Q2217.8002500000002 1198.3325 2186.662875 1198.3325 Q2155.5222750000003 1198.3325 2134.546875 1177.37 Q2113.9875 1159.6325000000002 2115.6 1126.7891 Q2117.2125 1093.9457000000002 2135.604675 1074.2248250000002 Q2175.1173750000003 1033.8575 2239.2207 997.07315 Q2303.324025 960.2887999999999 2355.8625 927.4325 L2421.975 888.7325000000001 Q2320.487475 784.3973000000001 2183.115375 724.4961500000001 Q2045.7432750000003 664.595 1886.625 664.595 V593.645 Z M1557.400875 2865.6575 Q1321.956525 2865.6575 1116.63045 2776.760375 Q911.3011500000001 2687.86325 756.381825 2533.2728749999997 Q601.4625 2378.6825 512.775 2173.233875 Q424.08750000000003 1967.7884749999998 424.08750000000003 1732.369925 Q424.08750000000003 1384.5891500000002 615.16875 1099.5733250000003 Q806.25 814.5575 1130.3625 683.945 Q1128.75 980.6450000000001 1238.4 1250.73875 Q1348.05 1520.8325 1557.675 1732.0700000000002 Q1767.3 1943.3075 2038.2 2052.15125 Q2309.1 2160.995 2605.8 2160.995 Q2475.1875 2483.495 2190.2039250000003 2674.57625 Q1905.2235750000002 2865.6575 1557.400875 2865.6575 Z M1557.439575 2794.7075 Q1855.8101250000002 2794.7075 2103.1515 2640.446075 Q2350.48965 2486.1814249999998 2496.15 2227.826675 Q2215.8007500000003 2201.93315 1961.2289250000001 2088.648575 Q1706.6571000000001 1975.3607749999996 1509.3 1774.7012750000004 Q1304.780175 1578.1859 1191.769725 1326.1779500000002 Q1078.7625 1074.17 1059.4125000000001 793.595 Q799.8000000000001 935.495 647.41875 1184.539175 Q495.0375 1433.5865750000003 495.0375 1732.2022250000005 Q495.0375 2179.941875 802.55415 2487.3262999999997 Q1110.0708000000002 2794.7075 1557.439575 2794.7075 Z"/></g><g id="Bold-M" transform="matrix(1 0 0 1 2281.8 1126)"><path d="M3055.0 619.77 Q3679.775 619.77 4118.639999999999 1058.6299999999999 Q4557.5 1497.4950000000001 4557.5 2122.27 H3952.5 Q3952.5 1977.27 3910.0 1843.52 Q3867.5 1709.77 3785.0 1597.27 L3630.0 1854.77 Q3577.5 1944.77 3522.5 2041.02 Q3467.5 2137.27 3392.5 2209.77 Q3305.9500000000003 2297.27 3181.125 2302.27 Q3056.305 2307.27 2965.0 2212.27 Q2872.5 2117.27 2875.0 1997.27 Q2877.5 1877.27 2964.915 1784.855 Q3037.5 1712.27 3132.5 1656.02 Q3227.5 1599.77 3317.5 1547.27 L3575.0 1392.27 Q3462.5 1309.77 3331.25 1267.27 Q3200.0 1224.77 3055.0 1224.77 V619.77 Z M2415.435 4872.27 Q1980.0 4872.27 1596.435 4705.695 Q1212.8700000000001 4539.120000000001 926.4350000000001 4253.195 Q640.0 3967.27 473.75 3583.52 Q307.5 3199.77 307.5 2764.87 Q307.5 1983.73 812.5 1398.0 Q1317.5 812.27 2077.5 664.77 Q2040.0 1179.77 2172.5 1671.02 Q2305.0 2162.27 2662.5 2519.77 Q3020.0 2877.27 3508.75 3001.02 Q3997.5 3124.77 4505.0 3119.77 Q4367.5 3874.77 3782.5 4373.52 Q3197.5 4872.27 2415.435 4872.27 Z M2415.0 4267.27 Q2772.5 4267.27 3088.75 4104.77 Q3405.0 3942.27 3620.0 3649.77 Q3226.415 3580.025 2873.21 3403.645 Q2520.0 3227.27 2232.5 2939.77 Q1947.5 2654.77 1770.0 2304.77 Q1592.5 1954.77 1522.5 1564.77 Q1240.0 1782.27 1076.25 2094.77 Q912.5 2407.27 912.5 2764.77 Q912.5 3394.98 1348.645 3831.1249999999995 Q1784.7900000000002 4267.27 2415.0 4267.27 Z"/></g><g id="Semibold-M" transform="matrix(1 0 0 1 1985.97 1126)"><path d="M3037.61 689.33 Q3642.8250000000003 689.33 4066.47 1112.975 Q4490.115 1536.62 4490.115 2141.835 H3985.1049999999996 Q3985.1049999999996 1970.75 3928.4750000000004 1817.435 Q3871.85 1664.12 3767.61 1540.75 L3558.2650000000003 1891.7250000000001 Q3507.9399999999996 1977.375 3451.85 2073.625 Q3395.7650000000003 2169.875 3325.1150000000002 2240.205 Q3247.26 2321.18 3133.305 2324.01 Q3019.35 2326.835 2936.74 2242.705 Q2852.935 2158.57 2854.35 2048.355 Q2855.76 1938.135 2936.655 1854.415 Q3007.065 1784.0049999999999 3103.1549999999997 1727.7549999999999 Q3199.24 1671.5049999999999 3284.8950000000004 1621.1799999999998 L3635.865 1411.835 Q3512.495 1307.595 3360.5950000000003 1250.965 Q3208.695 1194.335 3037.61 1194.335 V689.33 Z M2415.435 4828.795 Q1988.695 4828.795 1612.74 4665.4800000000005 Q1236.785 4502.165000000001 956.87 4222.76 Q676.9549999999999 3943.3599999999997 513.965 3567.215 Q350.97499999999997 3191.075 350.97499999999997 2764.87 Q350.97499999999997 2009.8200000000002 834.24 1439.3049999999998 Q1317.5 868.79 2055.7599999999998 723.46 Q1998.7 1229.765 2137.72 1712.32 Q2276.7400000000002 2194.875 2632.065 2550.205 Q2987.3950000000004 2905.53 3468.535 3039.06 Q3949.6749999999997 3172.5950000000003 4450.655 3132.815 Q4313.155 3868.25 3742.285 4348.52 Q3171.415 4828.795 2415.435 4828.795 Z M2415.0 4323.79 Q2811.63 4323.79 3155.05 4133.030000000001 Q3498.47 3942.27 3715.645 3606.2949999999996 Q3304.67 3549.59 2936.25 3373.2149999999997 Q2567.8250000000003 3196.835 2271.63 2900.64 Q1977.935 2606.9449999999997 1800.435 2240.645 Q1622.935 1874.34 1568.15 1466.9499999999998 Q1237.825 1684.4499999999998 1046.905 2026.295 Q855.98 2368.14 855.98 2764.77 Q855.98 3416.715 1309.52 3870.25 Q1763.0549999999998 4323.79 2415.0 4323.79 Z"/></g><g id="Medium-M" transform="matrix(1 0 0 1 1689.91 1126)"><path d="M3024.565 741.51 Q3615.1049999999996 741.51 4027.335 1153.74 Q4439.5650000000005 1565.97 4439.5650000000005 2156.51 H4009.565 Q4009.565 1965.855 3942.335 1797.87 Q3875.11 1629.8799999999999 3754.565 1498.3600000000001 L3504.455 1919.445 Q3455.76 2001.835 3398.86 2098.085 Q3341.955 2194.335 3274.565 2263.0299999999997 Q3203.235 2339.12 3097.43 2340.315 Q2991.63 2341.51 2915.545 2265.5299999999997 Q2838.26 2189.55 2838.86 2086.67 Q2839.455 1983.79 2915.46 1906.595 Q2984.24 1837.8149999999998 3081.14 1781.5649999999998 Q3178.045 1725.3149999999998 3260.435 1676.6150000000002 L3681.52 1426.51 Q3550.0 1305.965 3382.61 1238.7399999999998 Q3215.215 1171.51 3024.565 1171.51 V741.51 Z M2415.435 4796.185 Q1995.2150000000001 4796.185 1624.9700000000003 4635.3150000000005 Q1254.72 4474.445 979.6949999999999 4199.935 Q704.675 3925.42 544.13 3554.99 Q383.585 3184.555 383.585 2764.87 Q383.585 2029.3849999999998 850.5450000000001 1470.285 Q1317.5 911.1800000000001 2039.4550000000002 767.485 Q1967.7199999999998 1267.27 2111.63 1743.3000000000002 Q2255.545 2219.335 2609.24 2573.03 Q2962.935 2926.725 3438.37 3067.5950000000003 Q3913.805 3208.465 4409.889999999999 3142.5950000000003 Q4272.389999999999 3863.355 3712.12 4329.77 Q3151.85 4796.185 2415.435 4796.185 Z M2415.0 4366.18 Q2840.98 4366.18 3204.78 4154.225 Q3568.585 3942.27 3787.39 3573.685 Q3363.37 3526.765 2983.535 3350.385 Q2603.695 3174.0099999999998 2300.98 2871.29 Q2000.76 2571.075 1823.26 2192.545 Q1645.76 1814.01 1602.39 1393.575 Q1236.195 1611.075 1024.89 1974.935 Q813.5899999999999 2338.79 813.5899999999999 2764.77 Q813.5899999999999 3433.02 1280.17 3899.6 Q1746.75 4366.18 2415.0 4366.18 Z"/></g><g id="Regular-M" transform="matrix(1 0 0 1 1394.06 1126)"><path d="M3015.0 779.77 Q3594.775 779.77 3998.64 1183.6299999999999 Q4402.5 1587.4950000000001 4402.5 2167.27 H4027.5 Q4027.5 1962.27 3952.5 1783.52 Q3877.5 1604.77 3745.0 1467.27 L3465.0 1939.77 Q3417.5 2019.77 3360.0 2116.02 Q3302.5 2212.27 3237.5 2279.77 Q3170.9500000000003 2352.27 3071.125 2352.27 Q2971.305 2352.27 2900.0 2282.27 Q2827.5 2212.27 2827.5 2114.77 Q2827.5 2017.27 2899.915 1944.855 Q2967.5 1877.27 3065.0 1821.02 Q3162.5 1764.77 3242.5 1717.27 L3715.0 1437.27 Q3577.5 1304.77 3398.75 1229.77 Q3220.0 1154.77 3015.0 1154.77 V779.77 Z M2415.435 4772.27 Q2000.0 4772.27 1633.935 4613.195 Q1267.8700000000001 4454.120000000001 996.4350000000001 4183.195 Q725.0 3912.27 566.25 3546.02 Q407.5 3179.77 407.5 2764.87 Q407.5 2043.73 862.5 1493.0 Q1317.5 942.27 2027.5 799.77 Q1945.0 1294.77 2092.5 1766.02 Q2240.0 2237.27 2592.5 2589.77 Q2945.0 2942.27 3416.25 3088.52 Q3887.5 3234.77 4380.0 3149.77 Q4242.5 3859.77 3690.0 4316.02 Q3137.5 4772.27 2415.435 4772.27 Z M2415.0 4397.27 Q2862.5 4397.27 3241.25 4169.77 Q3620.0 3942.27 3840.0 3549.77 Q3406.415 3510.025 3018.21 3333.645 Q2630.0 3157.27 2322.5 2849.77 Q2017.5 2544.77 1840.0 2157.27 Q1662.5 1769.77 1627.5 1339.77 Q1235.0 1557.27 1008.75 1937.27 Q782.5 2317.27 782.5 2764.77 Q782.5 3444.98 1258.645 3921.1249999999995 Q1734.7900000000002 4397.27 2415.0 4397.27 Z"/></g><g id="Light-M" transform="matrix(1 0 0 1 1098.18 1126)"><path d="M2973.65 867.275 Q3533.235 867.275 3923.6349999999998 1257.545 Q4314.030000000001 1647.8149999999998 4314.030000000001 2206.695 H4034.23 Q4034.23 1993.4900000000002 3955.385 1805.38 Q3876.54 1617.27 3738.27 1474.0 L3534.09 1820.67 Q3486.7349999999997 1900.985 3428.755 1997.77 Q3370.7749999999996 2094.56 3306.7349999999997 2162.455 Q3251.7250000000004 2221.49 3171.1349999999998 2221.49 Q3090.54 2221.49 3032.7 2163.5099999999998 Q2973.665 2105.5299999999997 2973.665 2025.9499999999998 Q2973.665 1946.365 3032.83 1888.1200000000001 Q3098.6900000000005 1820.535 3197.145 1764.9450000000002 Q3295.605 1709.3549999999998 3376.165 1661.4950000000001 L3721.73 1455.54 Q3577.5 1311.5 3385.66 1229.29 Q3193.825 1147.075 2973.65 1147.075 V867.275 Z M2415.175 4674.185 Q2020.02 4674.185 1672.31 4523.285 Q1324.605 4372.385 1065.6699999999998 4113.96 Q806.735 3855.5350000000003 656.16 3507.645 Q505.58500000000004 3159.75 505.58500000000004 2764.94 Q505.58500000000004 2115.335 897.6 1607.655 Q1289.615 1099.975 1917.875 933.435 Q1868.07 1414.97 2024.705 1866.0249999999999 Q2181.3399999999997 2317.085 2522.785 2659.0049999999997 Q2864.2250000000004 3000.93 3315.28 3156.315 Q3766.335 3311.7 4246.335 3260.355 Q4082.875 3887.655 3574.125 4280.92 Q3065.38 4674.185 2415.175 4674.185 Z M2414.8599999999997 4394.385 Q2861.54 4394.385 3239.165 4168.165 Q3616.795 3941.9500000000003 3836.1549999999997 3551.1600000000003 Q3403.26 3511.2599999999998 3015.67 3334.2049999999995 Q2628.075 3157.15 2321.54 2850.1899999999996 Q2015.6549999999997 2545.0449999999996 1837.635 2158.85 Q1659.615 1772.655 1625.575 1342.655 Q1234.04 1559.195 1009.71 1938.61 Q785.385 2318.0299999999997 785.385 2764.85 Q785.385 3444.0150000000003 1260.65 3919.2 Q1735.91 4394.385 2414.8599999999997 4394.385 Z"/></g><g id="Thin-M" transform="matrix(1 0 0 1 802.565 1126)"><path d="M2932.31 954.77 Q3471.7000000000003 954.77 3848.64 1331.445 Q4225.58 1708.125 4225.58 2246.1150000000002 H4040.96 Q4040.96 2024.71 3958.27 1827.2400000000002 Q3875.575 1629.77 3731.54 1480.73 L3603.165 1701.59 Q3555.96 1782.215 3497.5 1879.54 Q3439.035 1976.8649999999998 3375.96 2045.1550000000002 Q3332.4900000000002 2090.735 3271.125 2090.735 Q3209.765 2090.735 3165.385 2044.77 Q3119.8050000000003 1998.81 3119.8050000000003 1937.1399999999999 Q3119.8050000000003 1875.4699999999998 3165.7200000000003 1831.395 Q3229.855 1763.81 3329.2700000000004 1708.88 Q3428.685 1653.955 3509.8050000000003 1605.73 L3728.46 1473.81 Q3577.5 1318.23 3372.575 1228.81 Q3167.6549999999997 1139.385 2932.31 1139.385 V954.77 Z M2414.915 4576.115000000001 Q2040.035 4576.115000000001 1710.685 4433.39 Q1381.3300000000002 4290.660000000001 1134.895 4044.735 Q888.46 3798.81 746.0550000000001 3469.27 Q603.655 3139.735 603.655 2765.0099999999998 Q603.655 2186.9249999999997 932.69 1722.29 Q1261.73 1257.655 1808.27 1067.075 Q1791.155 1535.155 1956.925 1966.02 Q2122.6949999999997 2396.8849999999998 2453.08 2728.23 Q2783.465 3059.5750000000003 3214.33 3224.095 Q3645.1949999999997 3388.6150000000002 4112.695 3370.92 Q3923.27 3915.54 3458.27 4245.83 Q2993.27 4576.115000000001 2414.915 4576.115000000001 Z M2414.7200000000003 4391.5 Q2860.575 4391.5 3237.085 4166.5650000000005 Q3613.5950000000003 3941.6299999999997 3832.31 3552.55 Q3400.1049999999996 3512.5000000000005 3013.13 3334.765 Q2626.1549999999997 3157.035 2320.575 2850.615 Q2013.8149999999998 2545.315 1835.27 2160.4249999999997 Q1656.73 1775.54 1623.655 1345.54 Q1233.075 1561.115 1010.675 1939.95 Q788.27 2318.785 788.27 2764.9300000000003 Q788.27 3443.0550000000003 1262.65 3917.2799999999997 Q1737.03 4391.5 2414.7200000000003 4391.5 Z"/></g><g id="Ultralight-M" transform="matrix(1 0 0 1 506.415 1126)"><path d="M2907.5 1007.27 Q3434.775 1007.27 3803.64 1375.79 Q4172.5 1744.315 4172.5 2269.77 H4045.0 Q4045.0 2043.44 3960.0 1840.355 Q3875.0 1637.27 3727.5 1484.77 L3644.615 1630.1349999999998 Q3597.5 1710.9450000000002 3538.75 1808.5949999999998 Q3480.0 1906.2399999999998 3417.5 1974.77 Q3380.9500000000003 2012.27 3331.125 2012.27 Q3281.305 2012.27 3245.0 1973.52 Q3207.5 1934.77 3207.5 1883.85 Q3207.5 1832.93 3245.4649999999997 1797.355 Q3308.5649999999996 1729.77 3408.5550000000003 1675.24 Q3508.5449999999996 1620.71 3590.0 1572.27 L3732.5 1484.77 Q3577.5 1322.27 3364.7250000000004 1228.52 Q3151.95 1134.77 2907.5 1134.77 V1007.27 Z M2414.76 4517.27 Q2052.045 4517.27 1733.71 4379.445 Q1415.3700000000001 4241.620000000001 1176.435 4003.1949999999993 Q937.5 3764.77 800.0 3446.245 Q662.5 3127.725 662.5 2765.05 Q662.5 2229.885 953.75 1791.08 Q1245.0 1352.27 1742.5 1147.27 Q1745.0 1607.27 1916.25 2026.02 Q2087.5 2444.77 2411.25 2769.77 Q2735.0 3094.77 3153.75 3264.77 Q3572.5 3434.77 4032.5 3437.27 Q3827.5 3932.27 3388.75 4224.77 Q2950.0 4517.27 2414.76 4517.27 Z M2414.635 4389.77 Q2860.0 4389.77 3235.835 4165.6050000000005 Q3611.6699999999996 3941.435 3830.0 3553.3849999999998 Q3398.21 3513.24 3011.605 3335.105 Q2625.0 3156.9649999999997 2320.0 2850.8650000000002 Q2012.705 2545.48 1833.855 2161.375 Q1655.0 1777.27 1622.5 1347.27 Q1232.5 1562.27 1011.25 1940.755 Q790.0 2319.2400000000002 790.0 2764.9750000000004 Q790.0 3442.48 1263.8500000000001 3916.1249999999995 Q1737.705 4389.77 2414.635 4389.77 Z"/></g><g id="Bold-S" transform="matrix(1 0 0 1 2294.23 696)"><path d="M2778.858 670.136 Q3386.220732 670.136 3812.758866 1096.674134 Q4239.297 1523.212268 4239.297 2130.575 H3704.355 Q3704.355 1979.0870000000002 3657.015 1835.8835000000001 Q3609.675 1692.68 3522.096 1576.6970000000001 L3446.352 1744.7540000000001 Q3409.5546179999997 1818.74642 3372.331176 1896.54971 Q3335.103 1974.3529999999998 3273.561 2028.794 Q3193.98246 2106.9049999999997 3079.34865 2111.6389999999997 Q2964.7195739999997 2116.373 2883.006 2026.427 Q2800.161 1936.481 2802.528 1828.09607 Q2804.895 1719.7158740000002 2882.9255219999995 1635.952478 Q2939.146506 1580.114948 3011.671386 1536.9834740000001 Q3084.201 1493.852 3159.945 1458.347 L3328.002 1382.603 Q3212.019 1295.0240000000001 3071.1825 1250.0510000000002 Q2930.346 1205.078 2778.858 1205.078 V670.136 Z M2287.430928 4544.915 Q1891.791612 4544.915 1543.1845859999999 4393.535882 Q1194.57756 4242.156764 934.169688 3982.2317599999997 Q673.7618160000001 3722.31149 522.690408 3373.524572 Q371.61899999999997 3024.7423879999997 371.61899999999997 2629.604876 Q371.61899999999997 1918.927328 826.083 1383.2941640000001 Q1280.547 847.6610000000001 1981.179 712.742 Q1950.408 1200.344 2073.492 1639.4225000000001 Q2196.576 2078.5009999999997 2525.589 2407.5139999999997 Q2845.134 2727.0589999999997 3291.3135 2839.4914999999996 Q3737.493 2951.924 4194.324 2951.924 Q4073.607 3638.354 3536.298 4091.6344999999997 Q2998.989 4544.915 2287.430928 4544.915 Z M2286.522 4009.973 Q2625.003 4009.973 2929.1625 3851.384 Q3233.322 3692.7949999999996 3417.948 3415.8559999999998 Q3059.503722 3364.023434 2732.1902280000004 3201.7608499999997 Q2404.872 3039.5029999999997 2142.135 2776.7659999999996 Q1877.031 2511.662 1718.442 2189.75 Q1559.853 1867.838 1498.311 1508.054 Q1230.84 1704.515 1068.7005 1998.8940560000003 Q906.561 2293.273112 906.561 2630.0119999999997 Q906.561 3208.942328 1307.0763359999999 3609.4576639999996 Q1707.591672 4009.973 2286.522 4009.973 Z"/></g><g id="Semibold-S" transform="matrix(1 0 0 1 1998.1 696)"><path d="M2762.393148 735.995408 Q3351.231738 735.995408 3763.36431 1148.1279800000002 Q4175.496882 1560.255818 4175.496882 2149.099142 H3735.225414 Q3735.225414 1972.9138640000003 3674.5071300000004 1811.186222 Q3613.79358 1649.45858 3505.6311480000004 1523.183864 L3378.433302 1779.7429940000002 Q3343.6952100000003 1849.6168340000002 3305.439756 1927.4201240000002 Q3267.184302 2005.2234140000003 3209.760882 2057.609858 Q3138.414768 2129.5429879999997 3034.0726739999996 2132.222432 Q2929.73058 2134.897142 2856.2494319999996 2055.2428579999996 Q2781.636858 1975.58384 2782.97658 1876.463348 Q2784.311568 1777.3428560000002 2856.168954 1701.811886 Q2910.330648 1648.033646 2983.8875399999997 1604.9021720000003 Q3057.444432 1561.770698 3129.074586 1528.324988 L3385.628982 1401.127142 Q3259.3542660000003 1292.96471 3098.966346 1234.613426 Q2938.578426 1176.262142 2762.393148 1176.262142 V735.995408 Z M2287.430928 4503.75287 Q1900.024038 4503.75287 1558.6221600000001 4355.46032 Q1217.2155480000001 4207.172504 962.980812 3953.420636 Q708.746076 3699.668768 560.76597 3358.091732 Q412.78112999999996 3016.509962 412.78112999999996 2629.604876 Q412.78112999999996 1943.62934 846.6664320000001 1422.401738 Q1280.547 901.1741360000001 1960.595568 768.309692 Q1911.3051600000001 1247.679266 2040.5622959999998 1678.52534 Q2169.8194320000002 2109.3714139999997 2496.773142 2436.3298579999996 Q2814.263586 2753.815568 3253.2379379999998 2875.5077719999995 Q3692.21229 2997.20471 4142.870154 2964.275006 Q4022.1531539999996 3632.180864 3498.222438 4067.9644999999996 Q2974.291722 4503.75287 2287.430928 4503.75287 Z M2286.522 4063.486136 Q2662.051284 4063.486136 2991.93534 3878.1405680000003 Q3321.819396 3692.7949999999996 3508.504686 3374.6938699999996 Q3133.5955559999998 3335.2075760000002 2791.8765 3172.949726 Q2450.1527100000003 3010.6871419999998 2179.183284 2739.7177159999997 Q1905.8468579999999 2466.3812899999994 1747.257858 2129.03645 Q1588.668858 1791.686876 1541.53242 1415.438024 Q1228.78071 1611.899024 1040.916654 1934.0619259999999 Q853.047864 2256.229562 853.047864 2630.0119999999997 Q853.047864 3229.521026 1270.032786 3646.501214 Q1687.012974 4063.486136 2286.522 4063.486136 Z"/></g><g id="Medium-S" transform="matrix(1 0 0 1 1701.85 696)"><path d="M2750.0421420000002 785.3994320000002 Q3324.991176 785.3994320000002 3726.3112920000003 1186.719548 Q4127.636142 1588.044398 4127.636142 2162.9934319999998 H3758.384142 Q3758.384142 1968.2792780000002 3687.629778 1792.66208 Q3616.880148 1617.040148 3493.280142 1483.0490120000002 L3327.4859939999997 1805.98829 Q3294.29592 1872.775562 3255.2688239999998 1950.578852 Q3216.236994 2028.3821420000002 3161.900142 2079.2205679999997 Q3096.731898 2146.5285799999997 3000.106224 2147.6600059999996 Q2903.4852840000003 2148.791432 2836.182006 2076.8535679999995 Q2767.742568 2004.9157040000002 2768.310648 1912.744724 Q2768.873994 1820.56901 2836.101528 1751.2159100000001 Q2888.715204 1698.980954 2963.048472 1655.84948 Q3037.377006 1612.718006 3105.915858 1580.810846 L3428.8551359999997 1415.0214320000002 Q3294.864 1291.4214259999999 3119.810148 1223.038796 Q2944.751562 1154.651432 2750.0421420000002 1154.651432 V785.3994320000002 Z M2287.430928 4472.877722 Q1906.2019079999998 4472.877722 1570.19679 4326.900098 Q1234.196406 4180.927208 984.596256 3931.8051920000003 Q734.9913720000001 3682.6879099999996 589.326192 3346.5123679999997 Q443.656278 3010.3320919999996 443.656278 2629.604876 Q443.656278 1962.1534820000002 862.104006 1451.733602 Q1280.547 941.308988 1945.1579940000001 809.9925620000001 Q1881.973296 1283.189 2015.860284 1707.8572040000001 Q2149.7520059999997 2132.530142 2475.1624319999996 2457.940568 Q2791.104858 2773.8829939999996 3224.6777159999997 2902.52471 Q3658.2505739999997 3031.166426 4104.273851999999 2973.53471 Q3983.5568519999997 3627.546278 3469.6622159999997 4050.212 Q2955.76758 4472.877722 2287.430928 4472.877722 Z M2286.522 4103.620988000001 Q2689.839864 4103.620988000001 3039.0197040000003 3898.207994 Q3388.2042779999997 3692.7949999999996 3576.432852 3343.818722 Q3189.172716 3313.596866 2836.645938 3151.3342820000003 Q2484.114426 2989.076432 2206.971864 2711.9291359999997 Q1927.457568 2432.4195739999996 1768.8685679999999 2083.4953699999996 Q1610.279568 1734.566432 1573.950852 1345.9665740000003 Q1227.237426 1542.4275740000003 1020.072852 1885.434278 Q812.913012 2228.4409819999996 812.913012 2630.0119999999997 Q812.913012 3244.9586 1242.2442059999998 3674.289794 Q1671.5754000000002 4103.620988000001 2286.522 4103.620988000001 Z"/></g><g id="Regular-S" transform="matrix(1 0 0 1 1405.73 696)"><path d="M2740.986 821.624 Q3305.742732 821.624 3699.142866 1215.024134 Q4092.543 1608.424268 4092.543 2173.181 H3775.365 Q3775.365 1964.885 3697.254 1779.0755000000001 Q3619.143 1593.266 3484.224 1453.613 L3290.13 1825.232 Q3258.066618 1889.75642 3218.476176 1967.5597100000002 Q3178.881 2045.363 3126.807 2095.0699999999997 Q3066.1644600000004 2158.979 2975.20065 2158.979 Q2884.2415739999997 2158.979 2821.464 2092.703 Q2757.555 2026.427 2757.555 1939.34507 Q2757.555 1852.2678740000001 2821.3835219999996 1787.440478 Q2872.870506 1736.336948 2947.762386 1693.205474 Q3022.659 1650.074 3088.935 1619.303 L3460.554 1425.209 Q3320.901 1290.29 3135.0915 1214.546 Q2949.282 1138.8020000000001 2740.986 1138.8020000000001 V821.624 Z M2287.430928 4450.235000000001 Q1910.727612 4450.235000000001 1578.689586 4305.956882 Q1246.6515599999998 4161.678764 1000.445688 3915.95576 Q754.239816 3670.23749 610.269408 3338.0195719999997 Q466.299 3005.8063879999995 466.299 2629.604876 Q466.299 1975.735328 873.423 1473.240164 Q1280.547 970.7450000000001 1933.839 840.56 Q1860.462 1309.226 1997.748 1729.3685 Q2135.034 2149.511 2459.313 2473.79 Q2774.124 2788.6009999999997 3203.7345 2922.3365 Q3633.345 3056.0719999999997 4075.974 2980.328 Q3955.257 3624.152 3448.719 4037.1935 Q2942.181 4450.235000000001 2287.430928 4450.235000000001 Z M2286.522 4133.057000000001 Q2710.215 4133.057000000001 3073.5495 3912.926 Q3436.884 3692.7949999999996 3626.244 3321.176 Q3229.927722 3297.747434 2869.4762280000004 3135.48485 Q2509.02 2973.227 2227.347 2691.5539999999996 Q1943.307 2407.5139999999997 1784.718 2050.0969999999998 Q1626.129 1692.68 1597.725 1295.0240000000001 Q1226.106 1491.4850000000001 1004.7915 1849.7730560000002 Q783.477 2208.061112 783.477 2630.0119999999997 Q783.477 3256.282328 1221.8643359999999 3694.6696639999996 Q1660.251672 4133.057000000001 2286.522 4133.057000000001 Z"/></g><g id="Light-S" transform="matrix(1 0 0 1 1109.75 696)"><path d="M2701.8358200000002 904.4737339999999 Q3247.47666 904.4737339999999 3628.1281320000003 1285.0068560000002 Q4008.7796040000003 1665.5352440000001 4008.7796040000003 2210.50859 H3781.736964 Q3781.736964 1994.4440960000004 3699.985518 1799.7725480000001 Q3618.2340719999997 1605.101 3477.8520359999998 1459.984964 L3355.5444119999997 1712.46812 Q3323.6183159999996 1777.2860480000002 3283.57341 1855.6006100000002 Q3243.52377 1933.9151720000002 3192.358698 1983.9961580000002 Q3142.64223 2035.1564959999998 3069.890118 2035.1564959999998 Q2997.1332719999996 2035.1564959999998 2947.10436 1980.2610320000001 Q2895.9440219999997 1925.365568 2895.9440219999997 1855.2502940000002 Q2895.9440219999997 1785.130286 2947.227444 1733.72378 Q2997.076464 1682.6202500000002 3072.8820060000003 1640.1136640000002 Q3148.682814 1597.607078 3215.4890219999997 1566.4952300000002 L3466.925964 1442.507036 Q3320.901 1296.6619640000001 3122.6978879999997 1214.0915360000001 Q2924.49951 1131.516374 2701.8358200000002 1131.516374 V904.4737339999999 Z M2287.189494 4357.368122000001 Q1929.682548 4357.368122000001 1615.023036 4220.830094000001 Q1300.368258 4084.2920659999995 1065.997386 3850.404062 Q831.6265139999999 3616.520792 695.396196 3301.686122 Q559.165878 2986.851452 559.165878 2629.671152 Q559.165878 2043.530942 906.6556800000001 1581.7955180000001 Q1254.145482 1120.060094 1830.04605 967.114022 Q1787.624676 1423.0313600000002 1933.5596939999998 1824.053234 Q2079.4947119999997 2225.079842 2393.306838 2539.3416979999997 Q2697.6462300000003 2844.1402879999996 3108.136104 2986.524806 Q3518.625978 3128.9093239999997 3949.4199780000004 3085.029878 Q3804.1240500000004 3650.5535179999997 3339.00855 4003.96082 Q2873.8977840000002 4357.368122000001 2287.189494 4357.368122000001 Z M2286.389448 4130.325482 Q2709.306072 4130.325482 3071.575422 3911.4063859999997 Q3433.849506 3692.492024 3622.603554 3322.492052 Q3226.940568 3298.9167319999997 2867.071356 3136.0150579999995 Q2507.19741 2973.1133839999998 2226.438072 2691.9516559999997 Q1941.5601539999998 2407.7743699999996 1782.4788179999998 2051.5929439999995 Q1623.397482 1695.4115180000001 1595.9024100000001 1297.755518 Q1225.197072 1493.3075900000001 1005.700428 1851.041768 Q786.208518 2208.78068 786.208518 2630.0877439999995 Q786.208518 3255.368666 1223.76267 3692.847074 Q1661.3120880000001 4130.325482 2286.389448 4130.325482 Z"/></g><g id="Thin-S" transform="matrix(1 0 0 1 814.015 696)"><path d="M2662.695108 987.3140000000001 Q3189.215322 987.3140000000001 3557.122866 1354.975376 Q3925.035144 1722.636752 3925.035144 2247.8314459999997 H3788.108928 Q3788.108928 2024.003192 3702.717036 1820.4695960000001 Q3617.32041 1616.9360000000001 3471.480072 1466.3569280000002 L3420.944622 1599.723176 Q3389.160546 1664.8393460000002 3348.6564420000004 1743.660446 Q3308.152338 1822.481546 3257.900928 1872.936518 Q3219.110532 1911.357662 3164.56065 1911.357662 Q3110.0155019999997 1911.357662 3072.730518 1867.838 Q3034.309374 1824.323072 3034.309374 1771.164986 Q3034.309374 1718.0069 3073.047696 1680.01655 Q3121.2682200000004 1628.91302 3197.977956 1587.031322 Q3274.682958 1545.154358 3342.019374 1513.696928 L3473.297928 1459.805072 Q3320.901 1303.033928 3110.30901 1213.637072 Q2899.7217539999997 1124.235482 2662.695108 1124.235482 V987.3140000000001 Z M2286.943326 4264.515446 Q1948.63275 4264.515446 1651.3517519999998 4135.717508000001 Q1354.075488 4006.914836 1131.539616 3784.8618319999996 Q909.003744 3562.808828 780.508782 3265.3574059999996 Q652.018554 2967.90125 652.018554 2629.737428 Q652.018554 2111.3123539999997 939.8788920000001 1690.331936 Q1227.743964 1269.351518 1726.272036 1093.6443740000002 Q1714.801554 1536.822518 1869.3855899999999 1918.7285000000002 Q2023.9696259999998 2300.634482 2327.310144 2604.8839279999997 Q2621.1826619999997 2899.6653739999997 3012.556644 3050.69891 Q3403.930626 3201.732446 3822.889626 3189.7128199999997 Q3653.010036 3676.955036 3229.317036 3970.737608 Q2805.624036 4264.515446 2286.943326 4264.515446 Z M2286.256896 4127.593964000001 Q2708.39241 4127.593964000001 3069.6060780000003 3909.891506 Q3430.819746 3692.1890479999997 3618.963108 3323.808104 Q3223.9534139999996 3300.090764 2864.666484 3136.545266 Q2505.379554 2973.004502 2225.52441 2692.354046 Q1939.8180419999999 2408.030006 1780.2396359999998 2053.0841539999997 Q1620.665964 1698.143036 1594.084554 1300.487036 Q1224.28341 1495.125446 1006.6140899999999 1852.31048 Q788.940036 2209.500248 788.940036 2630.163488 Q788.940036 3254.459738 1225.65627 3691.0292179999997 Q1662.372504 4127.593964000001 2286.256896 4127.593964000001 Z"/></g><g id="Ultralight-S" transform="matrix(1 0 0 1 517.792 696)"><path d="M2639.205 1037.021 Q3154.254732 1037.021 3514.516866 1396.9612220000001 Q3874.779 1756.9014439999999 3874.779 2270.2279999999996 H3791.934 Q3791.934 2041.736756 3704.355 1832.8868780000003 Q3616.776 1624.037 3467.655 1470.182 L3460.189482 1532.0695819999999 Q3428.490618 1597.36091 3387.716676 1676.48972 Q3346.938 1755.6137959999999 3297.2309999999998 1806.296 Q3264.9924600000004 1837.067 3221.36865 1837.067 Q3177.749574 1837.067 3148.11 1800.3785 Q3117.339 1763.69 3117.339 1720.710014 Q3117.339 1677.730028 3148.5502619999997 1647.787478 Q3195.790848 1596.6839479999999 3273.0402599999998 1555.18097 Q3350.2944059999995 1513.677992 3417.948 1482.017 L3477.123 1470.182 Q3320.901 1306.8590000000002 3102.87663 1213.3625 Q2884.85226 1119.866 2639.205 1119.866 V1037.021 Z M2286.7965719999997 4208.801 Q1960.003818 4208.801 1673.151822 4084.6423819999995 Q1386.3045599999998 3960.483764 1170.869688 3745.53176 Q955.4348160000001 3530.5844899999997 831.5839080000001 3243.557336 Q707.733 2956.5301819999995 707.733 2629.780034 Q707.733 2151.986882 959.8185 1755.4623080000001 Q1211.904 1358.933 1664.001 1169.573 Q1671.102 1605.101 1830.8745 1975.5365 Q1990.647 2345.9719999999998 2287.7055 2644.214 Q2575.296 2932.988 2955.1995 3089.21 Q3335.103 3245.432 3746.961 3252.533 Q3562.335 3692.7949999999996 3163.4955 3950.798 Q2764.656 4208.801 2286.7965719999997 4208.801 Z M2286.176418 4125.956 Q2707.848 4125.956 3068.422578 3908.982578 Q3428.997156 3692.0044219999995 3616.776 3324.598682 Q3222.1592280000004 3300.7913959999996 2863.2226140000002 3136.867178 Q2504.286 2972.9382259999998 2224.98 2692.590746 Q1938.767094 2408.186228 1778.899914 2053.9836139999998 Q1619.028 1699.781 1592.991 1302.125 Q1223.739 1496.219 1007.1585 1853.0726539999998 Q790.578 2209.9310419999997 790.578 2630.206094 Q790.578 3253.915328 1226.79243 3689.9356639999996 Q1663.011594 4125.956 2286.176418 4125.956 Z"/></g></g></svg>