<svg xmlns="http://www.w3.org/2000/svg" height="40" width="40"><path d="M9.542 32.792Q8.583 32.792 7.896 32.104Q7.208 31.417 7.208 30.458V9.542Q7.208 8.583 7.896 7.896Q8.583 7.208 9.542 7.208H30.458Q31.417 7.208 32.104 7.896Q32.792 8.583 32.792 9.542V30.458Q32.792 31.417 32.104 32.104Q31.417 32.792 30.458 32.792ZM13.458 27.208Q13.917 27.208 14.208 26.917Q14.5 26.625 14.5 26.167Q14.5 25.708 14.208 25.396Q13.917 25.083 13.417 25.083Q12.958 25.083 12.667 25.396Q12.375 25.708 12.375 26.167Q12.375 26.667 12.667 26.938Q12.958 27.208 13.458 27.208ZM13.458 21.042Q13.917 21.042 14.208 20.75Q14.5 20.458 14.5 20Q14.5 19.5 14.208 19.208Q13.917 18.917 13.417 18.917Q12.958 18.917 12.667 19.229Q12.375 19.542 12.375 20Q12.375 20.458 12.667 20.75Q12.958 21.042 13.458 21.042ZM13.458 14.875Q13.917 14.875 14.208 14.583Q14.5 14.292 14.5 13.833Q14.5 13.333 14.208 13.042Q13.917 12.75 13.417 12.75Q12.958 12.75 12.667 13.042Q12.375 13.333 12.375 13.833Q12.375 14.292 12.667 14.583Q12.958 14.875 13.458 14.875ZM19.208 26.667H26.875Q27.083 26.667 27.229 26.521Q27.375 26.375 27.375 26.167Q27.375 25.958 27.229 25.833Q27.083 25.708 26.875 25.708H19.208Q19 25.708 18.854 25.833Q18.708 25.958 18.708 26.167Q18.708 26.375 18.854 26.521Q19 26.667 19.208 26.667ZM19.208 20.458H26.875Q27.083 20.458 27.229 20.333Q27.375 20.208 27.375 19.958Q27.375 19.792 27.229 19.646Q27.083 19.5 26.875 19.5H19.208Q19 19.5 18.854 19.646Q18.708 19.792 18.708 20Q18.708 20.208 18.854 20.333Q19 20.458 19.208 20.458ZM19.208 14.292H26.875Q27.083 14.292 27.229 14.167Q27.375 14.042 27.375 13.792Q27.375 13.625 27.229 13.479Q27.083 13.333 26.875 13.333H19.208Q19 13.333 18.854 13.479Q18.708 13.625 18.708 13.833Q18.708 14.042 18.854 14.167Q19 14.292 19.208 14.292Z"/></svg>