<svg xmlns="http://www.w3.org/2000/svg" height="20" viewBox="0 -960 960 960" width="20"><path d="M74.5-242.5v-187h67v120h677v-120h67v187h-811ZM370.9-389v-31H368q-16 21.5-35.5 31.5t-45.74 10q-43.79 0-70.52-24.94Q189.5-428.39 189.5-469q0-40.5 29.5-64.75T297-558q19.5 0 41.25 4.25t33.25 10.25v-16q0-24-18.75-40t-47.25-16q-21.5 0-37.75 8t-30.75 25l-38.5-31q17-23.5 46.25-36.5t63.59-13q54.16 0 84.91 28.03Q424-606.93 424-554.74V-389h-53.1Zm-63.4-128.5q-28 0-45 13.25t-17 34.25q0 21 14.17 32.75 14.16 11.75 36.83 11.75 32 0 53-22.21 21-22.2 21-54.07-13-7.72-29-11.72-16-4-34-4Zm199 128.5v-387h53v114.18L557-623h2.5q8-12.5 31.08-28.75Q613.67-668 649.27-668q56.73 0 90.98 42.75Q774.5-582.5 774.5-524.5t-34.82 101.25Q704.85-380 648.4-380q-33.4 0-56.4-15.5T559.5-425H557v36h-50.5ZM638-617.5q-35.5 0-58.25 27.66T557-524.32Q557-486 579.75-458q22.75 28 58.25 28t58.5-28q23-28 23-66t-23-65.75q-23-27.75-58.5-27.75Z"/></svg>