<svg xmlns="http://www.w3.org/2000/svg" height="20" viewBox="0 -960 960 960" width="20"><path d="M465.85-236.46v-448.77q-43.7-28.92-95.25-43.69-51.55-14.77-105.05-14.77-36.35 0-64.18 3.81-27.84 3.8-61.37 16.57-9.23 3.08-13.08 8.85-3.84 5.77-3.84 12.69v412.85q0 10.77 7.69 15.77t16.92 1.15q21.19-8.38 51.13-12.04 29.93-3.65 67.18-3.65 52.51 0 102.37 13.54 49.86 13.53 97.48 37.69Zm-371.7-64.85v-397.77q0-17.96 10.12-32.4 10.11-14.44 26.19-20.83 33.58-10.42 67.34-15.36 33.77-4.95 67.72-4.95 59.63 0 109.17 13.49 49.54 13.48 98.27 39.32 9.58 5.35 15.69 17.23 6.12 11.89 6.12 23.12v443q47.69-26.16 97.25-38.69 49.55-12.54 101.88-12.54 36.75 0 67.48 3.15 30.74 3.16 50.93 12.54 9.23 3.85 16.92-1.15 7.69-5 7.69-15.77v-443.62q0-6.07 4.95-10.36 4.95-4.29 10.75-4.29t10.01 4.29q4.22 4.29 4.22 10.36v431.06q0 26.91-16.66 42.91-16.65 15.99-36.1 10.53-30.01-7.77-59.44-9.25-29.42-1.48-60.5-1.48-52.52 0-100.92 13.54t-93.6 37.22q-5.79 2.39-10.08 3.38-4.3.98-9.61.98-5.3 0-9.56-.48-4.26-.49-9.73-3.79-45.5-25.16-93.89-38-48.39-12.85-100.91-12.85-25.97 0-52.37 1.37-26.4 1.36-52.19 6.9-24.91 7.46-46.02-7.96-21.12-15.43-21.12-42.85Zm516.31-109.31v-341.84q0-8.06 4.41-14.57t13.25-10.16l80.61-29.35q11.19-3.73 19.39 1.77 8.19 5.49 8.19 16.62v341.84q0 8.03-4.33 14.51-4.32 6.49-12.94 9.84l-80.62 29.73q-11.6 3.73-19.78-1.74-8.18-5.46-8.18-16.65Zm-316-79.65Z"/></svg>