<svg xmlns="http://www.w3.org/2000/svg" height="40" width="40"><path d="M17.542 24.667 13.125 20.167Q13 20.042 12.792 20.062Q12.583 20.083 12.417 20.208Q12.25 20.375 12.25 20.583Q12.25 20.792 12.417 20.958L16.75 25.292Q17.083 25.667 17.562 25.667Q18.042 25.667 18.375 25.292L27.542 16.125Q27.667 16.042 27.667 15.813Q27.667 15.583 27.5 15.458Q27.333 15.292 27.125 15.292Q26.917 15.292 26.792 15.458ZM20 34.417Q17 34.417 14.375 33.292Q11.75 32.167 9.792 30.208Q7.833 28.25 6.708 25.625Q5.583 23 5.583 20Q5.583 17 6.708 14.375Q7.833 11.75 9.792 9.792Q11.75 7.833 14.375 6.708Q17 5.583 20 5.583Q23 5.583 25.625 6.688Q28.25 7.792 30.208 9.771Q32.167 11.75 33.292 14.375Q34.417 17 34.417 20Q34.417 23 33.312 25.625Q32.208 28.25 30.229 30.208Q28.25 32.167 25.625 33.292Q23 34.417 20 34.417Z"/></svg>