<svg xmlns="http://www.w3.org/2000/svg" height="20" width="20"><path d="M3.938 17.312q-1.563 0-2.615-1.114Q.271 15.083.229 13.604q0-.208.031-.448.032-.239.073-.448l1.75-7.02q.355-1.313 1.427-2.157 1.073-.843 2.428-.843h8.124q1.355 0 2.428.843 1.072.844 1.427 2.157l1.75 7q.062.229.093.468.032.24.032.469 0 1.5-1.073 2.594-1.073 1.093-2.657 1.093-1.062 0-1.968-.562-.906-.562-1.365-1.521l-.583-1.187q-.021-.042-.052-.052-.032-.011-.115-.011H8.021q-.063 0-.104.011-.042.01-.063.052l-.583 1.187q-.459.959-1.365 1.521-.906.562-1.968.562ZM4 14.604q.25 0 .469-.156.219-.156.364-.406l.584-1.188q.375-.75 1.073-1.166.698-.417 1.531-.417h3.958q.833 0 1.531.427t1.094 1.156l.584 1.188q.145.25.364.406.219.156.469.156.375 0 .687-.26.313-.261.354-.698 0-.042-.02-.146-.021-.104-.021-.146l-1.75-6.979q-.104-.437-.438-.708-.333-.271-.771-.271H5.938q-.438 0-.771.271-.334.271-.438.708l-1.75 6.979-.041.271q0 .458.333.708.333.25.729.271Zm7.25-5.396q-.354 0-.615-.26-.26-.26-.26-.615 0-.354.26-.614.261-.261.615-.261t.615.261q.26.26.26.614 0 .355-.26.615-.261.26-.615.26Zm1.667-1.666q-.355 0-.615-.261-.26-.26-.26-.614 0-.355.26-.615t.615-.26q.354 0 .614.26.261.26.261.615 0 .354-.261.614-.26.261-.614.261Zm0 3.333q-.355 0-.615-.26-.26-.261-.26-.615t.26-.615q.26-.26.615-.26.354 0 .614.26.261.261.261.615t-.261.615q-.26.26-.614.26Zm1.666-1.667q-.354 0-.614-.26-.261-.26-.261-.615 0-.354.261-.614.26-.261.614-.261.355 0 .615.261.26.26.26.614 0 .355-.26.615t-.615.26Zm-7.5 1.25q-.271 0-.468-.198-.198-.198-.198-.468V9h-.792q-.271 0-.469-.198-.198-.198-.198-.469 0-.271.198-.468.198-.198.469-.198h.792v-.792q0-.271.198-.469.197-.198.468-.198t.469.198q.198.198.198.469v.792h.792q.27 0 .468.198.198.197.198.468t-.198.469Q8.812 9 8.542 9H7.75v.792q0 .27-.198.468t-.469.198Z"/></svg>