<svg xmlns="http://www.w3.org/2000/svg" height="20" width="20"><path d="M14.292 11.354q-.542 0-1.073-.156-.531-.156-1.052-.386l.541-1.666q.417.187.834.312.416.125.77.146.23 0 .49-.083t.51-.25q.521-.354 1.011-.479.489-.125.948-.125.541 0 1.104.145.563.146 1.063.376l-.542 1.666q-.334-.104-.792-.271-.458-.166-.812-.166-.25 0-.542.093-.292.094-.625.323-.437.313-.896.417-.458.104-.937.104Zm.02-3.25q-.541 0-1.093-.156-.552-.156-1.052-.386l.541-1.666q.542.229.927.344.386.114.677.114.25 0 .49-.083t.51-.25q.521-.354 1.021-.479.5-.125.959-.125.52 0 1.052.146.531.145 1.094.375l-.542 1.666q-.563-.187-.948-.312-.386-.125-.656-.125-.271 0-.542.083t-.625.333q-.375.271-.854.396t-.959.125Zm0 6.5q-.541 0-1.083-.156-.541-.156-1.062-.386l.541-1.666q.48.208.886.323.406.114.718.135.23 0 .49-.083t.51-.25q.48-.333 1.032-.469.552-.135.968-.135.521 0 1.073.145.553.146 1.053.376l-.542 1.666q-.563-.187-.958-.312-.396-.125-.646-.125-.271 0-.573.104-.302.104-.594.312-.354.25-.833.386-.48.135-.98.135Zm-5.937-2.146V8.417h2.5v4.041ZM2.5 17.5V5.042q0-1.063.74-1.802.739-.74 1.802-.74h3.291q1.063 0 1.802.74.74.739.74 1.802v1.625h-2.5q-.729 0-1.24.51-.51.511-.51 1.24v4.041q0 .73.51 1.24.511.51 1.24.51h2.5V17.5Z"/></svg>