<svg xmlns="http://www.w3.org/2000/svg" height="48" width="48"><path d="M20.9 41.05Q20.9 37.45 19.5 34.125Q18.1 30.8 15.65 28.325Q13.2 25.85 9.925 24.4Q6.65 22.95 3 22.95V11.45Q3 9.6 4.35 8.225Q5.7 6.85 7.55 6.85H40.55Q42.4 6.85 43.775 8.225Q45.15 9.6 45.15 11.45V36.5Q45.15 38.35 43.775 39.7Q42.4 41.05 40.55 41.05ZM14.65 41.05Q14.65 36.2 11.275 32.7Q7.9 29.2 3 29.2V26.35Q6 26.35 8.65 27.55Q11.3 28.75 13.225 30.7Q15.15 32.65 16.325 35.35Q17.5 38.05 17.5 41.05ZM8.4 41.05Q8.4 38.8 6.825 37.125Q5.25 35.45 3 35.45V32.6Q6.4 32.6 8.825 35.075Q11.25 37.55 11.25 41.05Z"/></svg>