<svg xmlns="http://www.w3.org/2000/svg" height="24" width="24"><path d="M3.675 6.15V3.675H6.15q0 1.025-.725 1.75-.725.725-1.75.725Zm.7 7.575q-.275.025-.487-.188-.213-.212-.213-.487 0-.3.2-.5t.5-.225q3.2-.25 5.45-2.5t2.5-5.45q.025-.3.225-.5t.5-.2q.275 0 .488.212.212.213.187.488-.25 3.775-2.913 6.437-2.662 2.663-6.437 2.913Zm0-3.825q-.275.05-.487-.15-.213-.2-.213-.5 0-.275.2-.488.2-.212.5-.287Q6 8.275 7.138 7.137 8.275 6 8.5 4.375q.05-.3.25-.5t.5-.2q.3 0 .5.212.2.213.175.488-.25 2.2-1.8 3.75-1.55 1.55-3.75 1.775Zm6.575 10.425q-.275 0-.487-.213-.213-.212-.188-.487.25-3.775 2.913-6.437 2.662-2.663 6.437-2.913.275-.025.488.175.212.2.212.5t-.2.5q-.2.2-.5.225-3.2.25-5.45 2.5t-2.5 5.45q-.025.3-.225.5t-.5.2Zm6.9 0q0-1.025.725-1.75.725-.725 1.75-.725v2.475Zm-3.1 0q-.3 0-.5-.213-.2-.212-.15-.487.225-2.2 1.775-3.75 1.55-1.55 3.75-1.8.275-.025.488.175.212.2.212.5 0 .275-.2.488-.2.212-.5.262-1.625.225-2.762 1.363-1.138 1.137-1.338 2.762-.075.3-.275.5t-.5.2Z"/></svg>