<svg xmlns="http://www.w3.org/2000/svg" height="20" viewBox="0 -960 960 960" width="20"><path d="m516.674-60.652-.239-324.109h53.57l28.466 56.718h57.717L627.33-386h57.717l29.018 57.957h57.928L743.029-386h57.928l28.884 57.957h57.768L858.805-386h107.608v325.348H516.674Zm67.522-67.283h314.695v-132.826H584.196v132.826ZM376.413-60.652l-24.239-122.435q-16.143-7.547-32.804-16.413-16.66-8.866-31.131-21.196l-120.196 40.718L65.217-363.435l91.435-80.717q-1-8.909-1.88-18.294-.881-9.386-.881-19.295 0-9.908.881-19.174.88-9.266 1.88-18.215l-91.435-80.196 102.826-181.218 117.153 39.718q15.016-12.152 32.595-21.381 17.579-9.228 35.383-17.51l23.239-121.392h207.174l23.239 122.152q17.143 8.245 35.278 17.547 18.135 9.301 33.179 21.584l116.674-39.718 102.826 181.218-93.435 80.717q1 8.67 2 17.424t1 18.185q-1 6-1 12t-1 12H642.696q2-5 2-12v-12q-.24-70.087-49.181-118.891-48.942-48.805-118.761-48.805-69.919 0-118.923 48.993-49.005 48.994-49.005 118.577 0 61.93 39.022 108.093 39.022 46.163 96.826 56.446v256.935h-68.261Z"/></svg>