<svg xmlns="http://www.w3.org/2000/svg" height="48" viewBox="0 -960 960 960" width="48"><path d="M144-493.23q6.89-131 96.44-222.23 89.56-91.23 217.98-99.42v-20.47q0-9 5.89-15.28 5.9-6.29 15.7-6.29 9.8 0 16.03 6.29 6.23 6.28 6.23 15.28v20.47q128.54 8.19 218.09 99.42 89.56 91.23 96.92 222.23h58.07q9 0 15.28 6.29 6.29 6.29 6.29 15.29 0 9.8-6.29 16.04-6.28 6.23-15.28 6.23h-790q-9.8 0-16.04-6.24-6.23-6.24-6.23-15.69 0-9.46 6.23-15.69 6.24-6.23 16.04-6.23H144Zm43.04 0h586.61q-7.57-119.04-91.84-199.23-84.27-80.19-202.29-80.19-116.52 0-200.9 80.19-84.39 80.19-91.58 199.23Zm292.96 0Zm112.54 43.85H309.62v263.07h228q22.16 0 43.04-7.25 20.88-7.26 38.08-22.27l172.88-151.21q-13.79-12.88-30.46-20.38-16.66-7.5-33.58-9.7-16.47-.23-31.83 4.18-15.37 4.4-28.66 14.7l-72.59 58.66q-8.38 6.62-17 9.37-8.62 2.75-18.36 2.75H450.59q-9.66 0-15.89-6.24-6.24-6.24-6.24-15.69 0-9.46 6.24-15.69 6.23-6.23 15.89-6.23H564l49.58-40.42q8.96-7.73 11.27-18.02 2.31-10.29-1.19-20.21-4.2-8.73-12.22-14.08-8.02-5.34-18.9-5.34Zm-326.77 0H159.23q-5.38 0-8.84 3.46-3.47 3.46-3.47 8.46v278.84q0 5.39 3.47 8.85 3.46 3.46 8.84 3.46h94.23q5.39 0 8.85-3.46t3.46-8.85v-290.76Zm-12.31 347.3h-94.23q-22.75 0-39.45-16.7-16.7-16.7-16.7-39.45v-278.85q0-22.75 16.7-39.45 16.7-16.7 39.42-16.7h432.96q68.21 0 129.2 26.81 60.99 26.81 108.64 76.15h.61q10.27 11.19 9.72 25.39-.56 14.19-11.45 23.76L647.96-182.46q-22.82 19.3-51.95 29.84-29.13 10.54-58.39 10.54H307.38q-6.11 17.58-20.52 28.79t-33.4 11.21Z"/></svg>