<svg xmlns="http://www.w3.org/2000/svg" height="40" viewBox="0 -960 960 960" width="40"><path d="M316.18-611.36h301.97q14.32-8.1 29.6-17.48 15.28-9.38 28.28-17.11 0-10.54-9.44-19.64-9.44-9.11-22.06-9.11H316.31q-13.39 0-22.68 9.48-9.28 9.47-9.28 22.33 0 13.19 9.25 22.36t22.58 9.17ZM194.99-110.17q-35.61 0-60.21-24.61-24.61-24.6-24.61-60.21v-570.02q0-35.77 24.61-60.48 24.6-24.71 60.21-24.71h570.02q35.77 0 60.48 24.71 24.71 24.71 24.71 60.48v202.33q0 15.15-14.52 20.77-14.53 5.62-26.08-4.89-18.57-26.53-48.71-42.86t-65.88-16.33q-48.41 0-89.36 25.23-40.94 25.24-61.35 68.76H316.18q-13.33 0-22.58 9.28-9.25 9.29-9.25 22.34 0 13.38 9.25 22.55 9.25 9.16 22.58 9.16h211.86q-2.21 26.6 4.2 52.01 6.41 25.4 21.41 46.95h-237.6q-13.28 0-22.49 9.49-9.21 9.48-9.21 22.34 0 13.2 9.25 22.37 9.25 9.16 22.58 9.16h158.96q-24.64 21.61-36.67 51.81-12.03 30.21-12.03 62.46v19.33q0 17.67-12.46 30.12-12.45 12.46-29.78 12.46H194.99Zm337.35 0q-17.67 0-30.12-12.46-12.45-12.45-12.45-30.12v-19.33q0-28.04 13.21-49.27 13.2-21.23 36.17-32.24 36.92-17.92 76-26.32 39.08-8.41 80.05-8.41 40.63 0 79.24 8.07 38.6 8.08 76.23 26.66 22.48 10.72 35.97 32.07 13.48 21.35 13.48 49.44v19.33q0 17.67-12.66 30.12-12.67 12.46-30.29 12.46H532.34ZM695.2-333.18q-44.35 0-74.64-30.11-30.29-30.1-30.29-74.63 0-44.2 30.29-74.47 30.29-30.27 74.64-30.27 44.01 0 74.46 30.27 30.46 30.27 30.46 74.47 0 44.53-30.46 74.63-30.45 30.11-74.46 30.11Z"/></svg>