<svg xmlns="http://www.w3.org/2000/svg" version="1.1" width="3300" height="2000"><g id="Notes"><style>
    text {
      font-family: monospace;
      text-anchor: middle;
    }
    text.emphasis {
      font-weight:bold;
    }
    text.lanchor {
      text-anchor: start;
    }
  </style><rect height="2200" id="artboard" fill="white" width="3300" x="0" y="0"/><line id="" style="fill:none;stroke:black;stroke-width:0.5;" x1="263" x2="3036" y1="292" y2="292"/><text class="lanchor emphasis" transform="matrix(1 0 0 1 263 322)">Weight/Scale Variations</text><text transform="matrix(1 0 0 1 559.711 322)">Ultralight</text><text transform="matrix(1 0 0 1 856.422 322)">Thin</text><text transform="matrix(1 0 0 1 1153.13 322)">Light</text><text transform="matrix(1 0 0 1 1449.84 322)">Regular</text><text transform="matrix(1 0 0 1 1746.56 322)">Medium</text><text transform="matrix(1 0 0 1 2043.27 322)">Semibold</text><text transform="matrix(1 0 0 1 2339.98 322)">Bold</text><text transform="matrix(1 0 0 1 2636.69 322)">Heavy</text><text transform="matrix(1 0 0 1 2933.4 322)">Black</text><text id="template-version" style="text-anchor: end;" transform="matrix(1 0 0 1 3036 1933)">Template v.1.0</text><text class="lanchor" transform="matrix(1 0 0 1 263 726)">Small</text><text class="lanchor" transform="matrix(1 0 0 1 263 1156)">Medium</text><text class="lanchor" transform="matrix(1 0 0 1 263 1586)">Large</text></g><g id="Guides"><g id="H-reference" style="fill:#27AAE1;stroke:none;" transform="matrix(1 0 0 1 339 696)"><path d="M 54.9316 0 L 57.666 0 L 30.5664 -70.459 L 28.0762 -70.459 L 0.976562 0 L 3.66211 0 L 12.9395 -24.4629 L 45.7031 -24.4629 Z M 29.1992 -67.0898 L 29.4434 -67.0898 L 44.8242 -26.709 L 13.8184 -26.709 Z"/></g><line id="Baseline-S" style="fill:none;stroke:#27AAE1;opacity:1;stroke-width:0.577;" x1="263" x2="3036" y1="696" y2="696"/><line id="Capline-S" style="fill:none;stroke:#27AAE1;opacity:1;stroke-width:0.577;" x1="263" x2="3036" y1="625.541" y2="625.541"/><g id="H-reference" style="fill:#27AAE1;stroke:none;" transform="matrix(1 0 0 1 339 1126)"><path d="M 54.9316 0 L 57.666 0 L 30.5664 -70.459 L 28.0762 -70.459 L 0.976562 0 L 3.66211 0 L 12.9395 -24.4629 L 45.7031 -24.4629 Z M 29.1992 -67.0898 L 29.4434 -67.0898 L 44.8242 -26.709 L 13.8184 -26.709 Z"/></g><line id="Baseline-M" style="fill:none;stroke:#27AAE1;opacity:1;stroke-width:0.577;" x1="263" x2="3036" y1="1126" y2="1126"/><line id="Capline-M" style="fill:none;stroke:#27AAE1;opacity:1;stroke-width:0.577;" x1="263" x2="3036" y1="1055.54" y2="1055.54"/><g id="H-reference" style="fill:#27AAE1;stroke:none;" transform="matrix(1 0 0 1 339 1556)"><path d="M 54.9316 0 L 57.666 0 L 30.5664 -70.459 L 28.0762 -70.459 L 0.976562 0 L 3.66211 0 L 12.9395 -24.4629 L 45.7031 -24.4629 Z M 29.1992 -67.0898 L 29.4434 -67.0898 L 44.8242 -26.709 L 13.8184 -26.709 Z"/></g><line id="Baseline-L" style="fill:none;stroke:#27AAE1;opacity:1;stroke-width:0.577;" x1="263" x2="3036" y1="1556" y2="1556"/><line id="Capline-L" style="fill:none;stroke:#27AAE1;opacity:1;stroke-width:0.577;" x1="263" x2="3036" y1="1485.54" y2="1485.54"/><rect height="119.336" id="left-margin" style="fill:darkred;stroke:none;opacity:0.4;" width="12.4512" x="1394.06" y="1030.79"/><rect height="119.336" id="right-margin" style="fill:darkgreen;stroke:none;opacity:0.4;" width="12.4512" x="1502.5112" y="1030.79"/><rect x="1406.5112" y="1045" width="96" height="96" fill="none" stroke="blue" stroke-dasharray="5"/><rect x="1394.06" y="1030.79" width="120.9024" height="119.336" fill="none" stroke="blue"/></g><g id="Symbols"><g id="Bold-L" transform="matrix(1 0 0 1 2266 1556)"><path d="M10.965 24.432500000000005  6.45 10.887500000000003 Q13.222499999999998 8.146250000000023 17.415000000000003 2.6637500000000074 Q21.6075 -2.8187500000000085 21.6075 -9.268749999999997 V-85.8625 Q19.027500000000003 -89.41 16.77 -93.11874999999999 Q14.512500000000001 -96.82749999999999 12.5775 -100.85875 L25.63875 -106.66375 Q32.73375 -90.3775 46.681875 -80.944375 Q60.63 -71.51124999999999 77.4 -71.51124999999999 Q94.17 -71.51124999999999 108.11812499999999 -80.944375 Q122.06625000000001 -90.3775 129.16125 -106.66375 L142.2225 -100.85875 Q140.2875 -96.82749999999999 138.03 -93.11874999999999 Q135.7725 -89.41 133.1925 -85.8625 V-9.268749999999997 Q133.1925 -2.8187500000000085 137.38500000000002 2.6637500000000074 Q141.5775 8.146250000000023 148.35 11.048750000000013 L143.835 24.432500000000005 Q132.87 20.078750000000014 126.01687500000001 11.613124999999997 Q119.16375000000001 3.147500000000008 119.16375000000001 -9.268749999999997 V-71.995 Q110.29500000000002 -65.06125 99.6525 -61.271874999999994 Q89.01 -57.48249999999999 77.4 -57.48249999999999 Q65.78999999999999 -57.48249999999999 55.228125 -61.19125 Q44.66625 -64.89999999999999 35.636250000000004 -71.995 V-9.268749999999997 Q35.636250000000004 1.8575000000000017 28.86375 10.968125000000015 Q22.09125 20.078750000000014 10.965 24.432500000000005 Z M63.69375 11.855000000000018 Q55.308749999999996 11.855000000000018 49.503750000000004 6.049999999999997 Q43.698750000000004 0.24500000000000455 43.698750000000004 -8.301249999999982 V-49.74249999999999 L53.37375 -47.162499999999994 Q61.113749999999996 -45.22749999999999 67.24125000000001 -40.631874999999994 Q73.36875 -36.036249999999995 77.4 -29.586249999999993 Q81.43125 -36.036249999999995 87.55875 -40.631874999999994 Q93.68625 -45.22749999999999 101.42625 -47.162499999999994 L111.10125000000001 -49.74249999999999 V-8.301249999999982 Q111.10125000000001 0.24500000000000455 105.29625 6.049999999999997 Q99.49125000000001 11.855000000000018 91.10625 11.855000000000018 Q87.075 11.855000000000018 83.608125 10.403750000000002 Q80.14125000000001 8.952500000000015 77.4 6.211250000000007 Q74.65875 8.952500000000015 71.191875 10.403750000000002 Q67.72500000000001 11.855000000000018 63.69375 11.855000000000018 Z"/></g><g id="Semibold-L" transform="matrix(1 0 0 1 1970.27 1556)"><path d="M12.41625 22.658750000000026  8.54625 11.048750000000013 Q15.1575 8.307500000000005 19.269375 2.6637500000000074 Q23.38125 -2.9799999999999898 23.38125 -9.752499999999998 V-84.41125 Q20.64 -87.95875 18.22125 -91.82875 Q15.802500000000002 -95.69874999999999 13.8675 -99.89125 L25.155 -104.89 Q32.25 -88.76499999999999 46.27875 -79.4125 Q60.3075 -70.06 77.4 -70.06 Q94.4925 -70.06 108.52125 -79.4125 Q122.55 -88.76499999999999 129.645 -104.89 L140.9325 -99.89125 Q138.9975 -95.69874999999999 136.57875 -91.82875 Q134.16 -87.95875 131.41875000000002 -84.41125 V-9.752499999999998 Q131.41875000000002 -2.9799999999999898 135.530625 2.6637500000000074 Q139.64249999999998 8.307500000000005 146.25375 11.048750000000013 L142.38375 22.658750000000026 Q132.06375 18.627500000000026 125.61375000000001 10.161875000000023 Q119.16375000000001 1.6962500000000205 119.16375000000001 -9.752499999999998 V-72.47874999999999 Q110.29500000000002 -65.54499999999999 99.6525 -61.755624999999995 Q89.01 -57.966249999999995 77.4 -57.966249999999995 Q65.78999999999999 -57.966249999999995 55.14750000000001 -61.67499999999999 Q44.505 -65.38374999999999 35.636250000000004 -72.47874999999999 V-9.752499999999998 Q35.636250000000004 1.0512500000000102 29.266875 9.839375000000018 Q22.8975 18.627500000000026 12.41625 22.658750000000026 Z M63.371249999999996 11.048750000000013 Q55.14750000000001 11.048750000000013 49.423125 5.324375000000018 Q43.698750000000004 -0.4000000000000057 43.698750000000004 -8.784999999999982 V-49.74249999999999 L52.88999999999999 -47.485 Q60.791250000000005 -45.38874999999999 67.08 -40.631874999999994 Q73.36875 -35.874999999999986 77.4 -29.102499999999992 Q81.43125 -35.874999999999986 87.72 -40.631874999999994 Q94.00874999999999 -45.38874999999999 101.91000000000001 -47.485 L111.10125000000001 -49.74249999999999 V-8.784999999999982 Q111.10125000000001 -0.4000000000000057 105.376875 5.324375000000018 Q99.6525 11.048750000000013 91.42875000000001 11.048750000000013 Q87.23625 11.048750000000013 83.68875 9.436250000000015 Q80.14125000000001 7.823750000000018 77.4 4.921250000000015 Q74.65875 7.823750000000018 71.11125 9.436250000000015 Q67.56375 11.048750000000013 63.371249999999996 11.048750000000013 Z"/></g><g id="Medium-L" transform="matrix(1 0 0 1 1674.31 1556)"><path d="M13.545000000000002 21.368750000000006  10.15875 11.210000000000008 Q16.60875 8.46875 20.720625 2.6637500000000074 Q24.8325 -3.141249999999985 24.8325 -10.074999999999989 V-83.2825 Q21.76875 -86.99125 19.269375 -90.86125 Q16.77 -94.73124999999999 14.834999999999999 -99.085 L24.8325 -103.43875 Q31.927500000000002 -87.475 46.036875 -78.203125 Q60.146249999999995 -68.93124999999999 77.4 -68.93124999999999 Q94.65375 -68.93124999999999 108.763125 -78.203125 Q122.8725 -87.475 129.9675 -103.43875 L139.965 -99.085 Q138.03 -94.8925 135.530625 -90.941875 Q133.03125 -86.99125 129.9675 -83.2825 V-10.074999999999989 Q129.9675 -3.141249999999985 134.079375 2.6637500000000074 Q138.19125 8.46875 144.64125 11.210000000000008 L141.255 21.368750000000006 Q131.41875000000002 17.49875 125.371875 9.11375000000001 Q119.325 0.7287500000000051 119.325 -10.074999999999989 V-72.80125 Q110.45625 -65.86749999999999 99.733125 -62.07812499999999 Q89.01 -58.288749999999986 77.4 -58.288749999999986 Q65.78999999999999 -58.288749999999986 55.066874999999996 -61.997499999999995 Q44.34375 -65.70624999999998 35.475 -72.80125 V-10.074999999999989 Q35.475 0.40625 29.428125 8.952500000000015 Q23.38125 17.49875 13.545000000000002 21.368750000000006 Z M63.048750000000005 10.403750000000002 Q54.986250000000005 10.403750000000002 49.261875 4.679375000000007 Q43.5375 -1.0449999999999875 43.5375 -9.107499999999987 V-49.903749999999995 L52.5675 -47.646249999999995 Q60.63 -45.55 67.08 -40.631874999999994 Q73.53 -35.71374999999999 77.4 -28.61874999999999 Q81.27 -35.71374999999999 87.72 -40.631874999999994 Q94.17 -45.55 102.2325 -47.646249999999995 L111.2625 -49.903749999999995 V-9.107499999999987 Q111.2625 -1.0449999999999875 105.53812500000001 4.679375000000007 Q99.81375 10.403750000000002 91.75125 10.403750000000002 Q87.39750000000001 10.403750000000002 83.76937500000001 8.710625000000007 Q80.14125000000001 7.0175000000000125 77.4 3.9537499999999994 Q74.65875 7.0175000000000125 71.030625 8.710625000000007 Q67.4025 10.403750000000002 63.048750000000005 10.403750000000002 Z"/></g><g id="Regular-L" transform="matrix(1 0 0 1 1378.56 1556)"><path d="M14.35125 20.401250000000005  11.2875 11.210000000000008 Q17.7375 8.46875 21.76875 2.6637500000000074 Q25.8 -3.141249999999985 25.8 -10.397499999999994 V-82.47625 Q22.73625 -86.185 20.15625 -90.135625 Q17.57625 -94.08624999999999 15.48 -98.60125 L24.509999999999998 -102.47125 Q31.605000000000004 -86.5075 45.795 -77.31625 Q59.98500000000001 -68.125 77.4 -68.125 Q94.815 -68.125 109.005 -77.31625 Q123.19500000000001 -86.5075 130.29 -102.47125 L139.32000000000002 -98.60125 Q137.22375 -94.2475 134.64375 -90.21625 Q132.06375 -86.185 129.0 -82.47625 V-10.397499999999994 Q129.0 -3.141249999999985 133.03125 2.6637500000000074 Q137.0625 8.46875 143.51250000000002 11.210000000000008 L140.44875 20.401250000000005 Q130.935 16.692500000000024 125.13 8.307500000000005 Q119.325 -0.07750000000000057 119.325 -10.397499999999994 V-73.12375 Q110.45625 -66.02875 99.733125 -62.239374999999995 Q89.01 -58.44999999999999 77.4 -58.44999999999999 Q65.78999999999999 -58.44999999999999 55.066874999999996 -62.239374999999995 Q44.34375 -66.02875 35.475 -73.12375 V-10.397499999999994 Q35.475 -0.07750000000000057 29.669999999999998 8.307500000000005 Q23.865000000000002 16.692500000000024 14.35125 20.401250000000005 Z M62.8875 9.920000000000002 Q54.825 9.920000000000002 49.18125 4.2762500000000045 Q43.5375 -1.3674999999999926 43.5375 -9.429999999999993 V-49.903749999999995 L52.245 -47.80749999999999 Q60.46875 -45.71124999999999 66.999375 -40.631874999999994 Q73.53 -35.552499999999995 77.4 -28.29625 Q81.27 -35.552499999999995 87.80062500000001 -40.631874999999994 Q94.33125 -45.71124999999999 102.555 -47.80749999999999 L111.2625 -49.903749999999995 V-9.429999999999993 Q111.2625 -1.3674999999999926 105.61875 4.2762500000000045 Q99.97500000000001 9.920000000000002 91.91250000000001 9.920000000000002 Q87.55875 9.920000000000002 83.85000000000001 8.146250000000023 Q80.14125000000001 6.372500000000002 77.4 3.3087500000000176 Q74.65875 6.372500000000002 70.95 8.146250000000023 Q67.24125000000001 9.920000000000002 62.8875 9.920000000000002 Z"/></g><g id="Light-L" transform="matrix(1 0 0 1 1082.77 1556)"><path d="M17.25375 18.78875000000002  14.996250000000002 11.855000000000018 Q21.285 8.791250000000005 25.31625 2.825000000000003 Q29.3475 -3.141249999999985 29.3475 -10.397499999999994 V-78.28375 Q25.63875 -82.15375 22.575 -86.34625 Q19.51125 -90.53875 17.0925 -95.5375 L24.02625 -98.44 Q31.2825 -82.79875 45.63375 -73.60749999999999 Q59.98500000000001 -64.41624999999999 77.4 -64.41624999999999 Q94.815 -64.41624999999999 109.16625 -73.60749999999999 Q123.5175 -82.79875 130.935 -98.44 L137.7075 -95.5375 Q135.28875000000002 -90.69999999999999 132.225 -86.426875 Q129.16125 -82.15375 125.4525 -78.28375 V-10.397499999999994 Q125.4525 -3.141249999999985 129.40312500000002 2.825000000000003 Q133.35375000000002 8.791250000000005 139.80375 11.855000000000018 L137.38500000000002 18.78875000000002 Q128.6775 15.080000000000013 123.436875 7.178750000000008 Q118.19624999999999 -0.7224999999999824 118.19624999999999 -10.397499999999994 V-71.35 Q109.48875000000001 -64.57749999999999 99.088125 -60.86874999999999 Q88.6875 -57.16 77.4 -57.16 Q66.1125 -57.16 55.711875 -60.86874999999999 Q45.31125 -64.57749999999999 36.60375 -71.35 V-10.397499999999994 Q36.60375 -0.7224999999999824 31.2825 7.178750000000008 Q25.961250000000003 15.080000000000013 17.25375 18.78875000000002 Z M64.1775 6.695000000000007 Q57.082499999999996 6.695000000000007 52.16437500000001 1.7768750000000182 Q47.24625 -3.141249999999985 47.24625 -10.236249999999998 V-47.001249999999985 L52.5675 -45.71124999999999 Q60.791250000000005 -43.45375 67.321875 -38.13249999999999 Q73.85249999999999 -32.81124999999999 77.4 -25.554999999999993 Q80.9475 -32.9725 87.39750000000001 -38.21312499999999 Q93.84750000000001 -43.45375 102.2325 -45.71124999999999 L107.55375000000001 -47.001249999999985 V-10.236249999999998 Q107.55375000000001 -3.141249999999985 102.635625 1.7768750000000182 Q97.7175 6.695000000000007 90.6225 6.695000000000007 Q86.59125 6.695000000000007 83.205 4.921250000000015 Q79.81875000000001 3.147500000000008 77.4 0.24500000000000455 Q74.98125 3.147500000000008 71.595 4.921250000000015 Q68.20875 6.695000000000007 64.1775 6.695000000000007 Z"/></g><g id="Thin-L" transform="matrix(1 0 0 1 787.282 1556)"><path d="M20.3175 17.17625000000001  18.705 12.5 Q24.993750000000002 9.275000000000006 28.86375 3.147500000000008 Q32.73375 -2.9799999999999898 32.73375 -10.397499999999994 V-74.09125 Q28.380000000000003 -77.96124999999999 24.913125 -82.55687499999999 Q21.446250000000003 -87.15249999999999 18.705 -92.47375 L23.38125 -94.40875 Q31.121250000000003 -78.92875 45.553125 -69.89874999999999 Q59.98500000000001 -60.86874999999999 77.4 -60.86874999999999 Q94.815 -60.86874999999999 109.246875 -69.89874999999999 Q123.67875000000001 -78.92875 131.57999999999998 -94.40875 L136.095 -92.47375 Q133.35375000000002 -87.31375 129.886875 -82.63749999999999 Q126.42000000000002 -77.96124999999999 122.06625000000001 -74.09125 V-10.397499999999994 Q122.06625000000001 -2.9799999999999898 125.93625 3.147500000000008 Q129.80625 9.275000000000006 135.93375 12.5 L134.32125 17.17625000000001 Q126.42000000000002 13.306250000000006 121.74375 5.969374999999999 Q117.0675 -1.3674999999999926 117.0675 -10.397499999999994 V-69.57624999999999 Q108.52125 -63.12624999999999 98.443125 -59.49812499999999 Q88.365 -55.86999999999999 77.4 -55.86999999999999 Q66.435 -55.86999999999999 56.35687500000001 -59.49812499999999 Q46.27875 -63.12624999999999 37.7325 -69.57624999999999 V-10.397499999999994 Q37.7325 -1.3674999999999926 32.975625 5.969374999999999 Q28.21875 13.306250000000006 20.3175 17.17625000000001 Z M65.30625 3.470000000000013 Q59.339999999999996 3.470000000000013 55.066874999999996 -0.7224999999999824 Q50.79375 -4.914999999999992 50.79375 -11.04249999999999 V-44.098749999999995 L52.88999999999999 -43.614999999999995 Q61.275 -41.19624999999999 67.72500000000001 -35.71374999999999 Q74.175 -30.23124999999999 77.4 -22.974999999999994 Q80.625 -30.3925 86.994375 -35.794375 Q93.36375 -41.19624999999999 101.91000000000001 -43.77624999999999 L104.00625000000001 -44.25999999999999 V-11.04249999999999 Q104.00625000000001 -4.914999999999992 99.733125 -0.7224999999999824 Q95.46000000000001 3.470000000000013 89.49375 3.470000000000013 Q85.62375 3.470000000000013 82.56 1.7768750000000182 Q79.49625 0.0837500000000233 77.4 -2.8187500000000085 Q75.30375000000001 0.0837500000000233 72.24 1.7768750000000182 Q69.17625 3.470000000000013 65.30625 3.470000000000013 Z"/></g><g id="Ultralight-L" transform="matrix(1 0 0 1 491.205 1556)"><path d="M22.09125 16.20875000000001  20.962500000000002 12.983750000000015 Q27.090000000000003 9.436250000000015 30.96 3.2281249999999915 Q34.830000000000005 -2.9799999999999898 34.830000000000005 -10.397499999999994 V-71.51124999999999 Q30.15375 -75.54249999999999 26.364375000000003 -80.299375 Q22.575 -85.05624999999999 19.6725 -90.69999999999999 L23.058750000000003 -91.99 Q30.96 -76.67124999999999 45.4725 -67.64125 Q59.98500000000001 -58.61124999999999 77.4 -58.61124999999999 Q94.815 -58.61124999999999 109.3275 -67.64125 Q123.84 -76.67124999999999 131.9025 -91.99 L135.1275 -90.69999999999999 Q132.225 -85.2175 128.43562500000002 -80.38 Q124.64625 -75.54249999999999 119.97000000000001 -71.51124999999999 V-10.397499999999994 Q119.97000000000001 -2.9799999999999898 123.759375 3.2281249999999915 Q127.54875 9.436250000000015 133.67625 12.983750000000015 L132.5475 16.20875000000001 Q125.13 12.338750000000005 120.77625000000002 5.243750000000006 Q116.42250000000001 -1.8512499999999932 116.42250000000001 -10.397499999999994 V-68.44749999999999 Q108.03750000000001 -62.15874999999999 98.120625 -58.61124999999999 Q88.20375000000001 -55.06374999999999 77.4 -55.06374999999999 Q66.59625 -55.06374999999999 56.679375 -58.61124999999999 Q46.7625 -62.15874999999999 38.377500000000005 -68.44749999999999 V-10.397499999999994 Q38.377500000000005 -1.8512499999999932 33.943125 5.243750000000006 Q29.508750000000003 12.338750000000005 22.09125 16.20875000000001 Z M66.1125 1.5349999999999966 Q60.63 1.5349999999999966 56.840625 -2.254374999999982 Q53.051249999999996 -6.043750000000003 53.051249999999996 -11.52624999999999 V-42.32499999999999 Q61.43625 -39.74499999999999 67.88625 -34.18187499999999 Q74.33625 -28.61874999999999 77.4 -21.362499999999997 Q80.46375 -28.779999999999987 86.7525 -34.26249999999999 Q93.04125 -39.74499999999999 101.74875 -42.48625 V-11.52624999999999 Q101.74875 -6.043750000000003 97.95937500000001 -2.254374999999982 Q94.17 1.5349999999999966 88.6875 1.5349999999999966 Q85.14 1.5349999999999966 82.2375 -0.1581249999999983 Q79.33500000000001 -1.8512499999999932 77.4 -4.592499999999987 Q75.465 -1.8512499999999932 72.5625 -0.1581249999999983 Q69.66000000000001 1.5349999999999966 66.1125 1.5349999999999966 Z"/></g><g id="Bold-M" transform="matrix(1 0 0 1 2281.8 1126)"><path d="M8.0 13.64500000000001  3.375 -0.22999999999998977 Q8.875 -1.9799999999999898 12.25 -5.97999999999999 Q15.625 -9.97999999999999 15.625 -14.72999999999999 V-71.72999999999999 Q13.125 -74.97999999999999 11.06 -78.35499999999999 Q9.0 -81.72999999999999 7.375 -85.60499999999999 L20.75 -91.47999999999999 Q26.125 -78.97999999999999 36.75 -71.35499999999999 Q47.375 -63.72999999999999 60.0 -63.72999999999999 Q72.625 -63.72999999999999 83.25 -71.35499999999999 Q93.875 -78.97999999999999 99.25 -91.47999999999999 L112.625 -85.60499999999999 Q111.0 -81.72999999999999 108.94 -78.35499999999999 Q106.875 -74.97999999999999 104.375 -71.72999999999999 V-14.72999999999999 Q104.375 -9.97999999999999 107.69 -5.914999999999992 Q111.0 -1.8549999999999898 116.5 -0.10499999999998977 L111.875 13.64500000000001 Q102.0 10.39500000000001 95.94 3.2700000000000102 Q89.875 -3.8549999999999898 89.875 -14.72999999999999 V-58.35499999999999 Q83.125 -53.97999999999999 75.625 -51.60499999999999 Q68.125 -49.22999999999999 60.0 -49.22999999999999 Q51.875 -49.22999999999999 44.375 -51.54499999999999 Q36.875 -53.85499999999999 30.125 -58.22999999999999 V-14.72999999999999 Q30.125 -5.22999999999999 24.060000000000002 2.5800000000000125 Q18.0 10.39500000000001 8.0 13.64500000000001 Z M50.875 1.7700000000000102 Q44.25 1.7700000000000102 39.69 -2.7950000000000017 Q35.125 -7.35499999999999 35.125 -13.97999999999999 V-46.35499999999999 L42.875 -44.35499999999999 Q48.125 -42.97999999999999 52.44 -40.10499999999999 Q56.75 -37.22999999999999 60.0 -33.22999999999999 Q63.25 -37.22999999999999 67.56 -40.10499999999999 Q71.875 -42.97999999999999 77.125 -44.35499999999999 L84.875 -46.35499999999999 V-13.97999999999999 Q84.875 -7.35499999999999 80.31 -2.7950000000000017 Q75.75 1.7700000000000102 69.125 1.7700000000000102 Q66.625 1.7700000000000102 64.315 1.0200000000000102 Q62.0 0.27000000000001023 60.0 -1.1049999999999898 Q58.0 0.27000000000001023 55.69 1.0200000000000102 Q53.375 1.7700000000000102 50.875 1.7700000000000102 Z"/></g><g id="Semibold-M" transform="matrix(1 0 0 1 1985.97 1126)"><path d="M9.5 11.89500000000001  5.5 -0.10499999999998977 Q11.0 -1.8549999999999898 14.25 -6.0449999999999875 Q17.5 -10.22999999999999 17.5 -15.22999999999999 V-70.22999999999999 Q14.75 -73.47999999999999 12.565 -76.97999999999999 Q10.375 -80.47999999999999 8.625 -84.60499999999999 L20.25 -89.60499999999999 Q25.625 -77.22999999999999 36.375 -69.72999999999999 Q47.125 -62.22999999999999 60.0 -62.22999999999999 Q72.875 -62.22999999999999 83.625 -69.72999999999999 Q94.375 -77.22999999999999 99.75 -89.60499999999999 L111.375 -84.60499999999999 Q109.625 -80.47999999999999 107.375 -76.97999999999999 Q105.125 -73.47999999999999 102.5 -70.22999999999999 V-15.22999999999999 Q102.5 -10.22999999999999 105.69000000000001 -6.0449999999999875 Q108.875 -1.8549999999999898 114.375 -0.10499999999998977 L110.375 11.89500000000001 Q101.125 8.77000000000001 95.5 1.7100000000000222 Q89.875 -5.35499999999999 89.875 -15.22999999999999 V-58.85499999999999 Q83.25 -54.47999999999999 75.69 -52.04499999999999 Q68.125 -49.60499999999999 60.0 -49.60499999999999 Q51.875 -49.60499999999999 44.315 -51.97999999999999 Q36.75 -54.35499999999999 30.125 -58.72999999999999 V-15.22999999999999 Q30.125 -6.10499999999999 24.439999999999998 1.3300000000000125 Q18.75 8.77000000000001 9.5 11.89500000000001 Z M50.5 0.8950000000000102 Q44.0 0.8950000000000102 39.565 -3.6049999999999898 Q35.125 -8.10499999999999 35.125 -14.47999999999999 V-46.47999999999999 L42.375 -44.60499999999999 Q47.875 -43.22999999999999 52.315 -40.10499999999999 Q56.75 -36.97999999999999 60.0 -32.72999999999999 Q63.25 -36.97999999999999 67.69 -40.10499999999999 Q72.125 -43.22999999999999 77.625 -44.60499999999999 L84.875 -46.47999999999999 V-14.47999999999999 Q84.875 -8.10499999999999 80.44 -3.6049999999999898 Q76.0 0.8950000000000102 69.5 0.8950000000000102 Q66.875 0.8950000000000102 64.435 0.020000000000010232 Q62.0 -0.8549999999999898 60.0 -2.3549999999999898 Q58.0 -0.8549999999999898 55.565 0.020000000000010232 Q53.125 0.8950000000000102 50.5 0.8950000000000102 Z"/></g><g id="Medium-M" transform="matrix(1 0 0 1 1689.91 1126)"><path d="M10.625 10.52000000000001  7.125 0.020000000000010232 Q12.5 -1.7299999999999898 15.75 -6.0449999999999875 Q19.0 -10.35499999999999 19.0 -15.72999999999999 V-69.10499999999999 Q16.125 -72.35499999999999 13.75 -75.97999999999999 Q11.375 -79.60499999999999 9.625 -83.85499999999999 L19.875 -88.22999999999999 Q25.125 -75.97999999999999 36.0 -68.54499999999999 Q46.875 -61.10499999999999 60.0 -61.10499999999999 Q73.125 -61.10499999999999 84.0 -68.54499999999999 Q94.875 -75.97999999999999 100.125 -88.22999999999999 L110.375 -83.85499999999999 Q108.625 -79.60499999999999 106.25 -75.97999999999999 Q103.875 -72.35499999999999 101.0 -69.10499999999999 V-15.72999999999999 Q101.0 -10.35499999999999 104.19 -6.0449999999999875 Q107.375 -1.7299999999999898 112.75 0.020000000000010232 L109.25 10.52000000000001 Q100.625 7.64500000000001 95.31 0.585000000000008 Q90.0 -6.47999999999999 90.0 -15.72999999999999 V-59.22999999999999 Q83.375 -54.85499999999999 75.815 -52.419999999999995 Q68.25 -49.97999999999999 60.0 -49.97999999999999 Q51.75 -49.97999999999999 44.19 -52.419999999999995 Q36.625 -54.85499999999999 30.0 -59.22999999999999 V-15.72999999999999 Q30.0 -6.72999999999999 24.689999999999998 0.4550000000000125 Q19.375 7.64500000000001 10.625 10.52000000000001 Z M50.25 0.27000000000001023 Q43.875 0.27000000000001023 39.44 -4.1699999999999875 Q35.0 -8.60499999999999 35.0 -14.97999999999999 V-46.60499999999999 L42.0 -44.85499999999999 Q47.625 -43.47999999999999 52.25 -40.16999999999999 Q56.875 -36.85499999999999 60.0 -32.22999999999999 Q63.125 -36.85499999999999 67.75 -40.16999999999999 Q72.375 -43.47999999999999 78.0 -44.85499999999999 L85.0 -46.60499999999999 V-14.97999999999999 Q85.0 -8.60499999999999 80.565 -4.1699999999999875 Q76.125 0.27000000000001023 69.75 0.27000000000001023 Q67.0 0.27000000000001023 64.5 -0.7299999999999898 Q62.0 -1.7299999999999898 60.0 -3.3549999999999898 Q58.0 -1.7299999999999898 55.5 -0.7299999999999898 Q53.0 0.27000000000001023 50.25 0.27000000000001023 Z"/></g><g id="Regular-M" transform="matrix(1 0 0 1 1394.06 1126)"><path d="M11.5 9.52000000000001  8.375 0.020000000000010232 Q13.625 -1.7299999999999898 16.810000000000002 -6.10499999999999 Q20.0 -10.47999999999999 20.0 -15.97999999999999 V-68.22999999999999 Q17.0 -71.47999999999999 14.565 -75.22999999999999 Q12.125 -78.97999999999999 10.375 -83.22999999999999 L19.625 -87.22999999999999 Q24.875 -74.97999999999999 35.81 -67.60499999999999 Q46.75 -60.22999999999999 60.0 -60.22999999999999 Q73.25 -60.22999999999999 84.19 -67.60499999999999 Q95.125 -74.97999999999999 100.375 -87.22999999999999 L109.625 -83.22999999999999 Q107.875 -78.97999999999999 105.375 -75.22999999999999 Q102.875 -71.47999999999999 100.0 -68.22999999999999 V-15.97999999999999 Q100.0 -10.47999999999999 103.125 -6.10499999999999 Q106.25 -1.7299999999999898 111.5 0.020000000000010232 L108.375 9.52000000000001 Q100.125 6.77000000000001 95.06500000000001 -0.22999999999998977 Q90.0 -7.22999999999999 90.0 -15.97999999999999 V-59.47999999999999 Q83.375 -55.10499999999999 75.815 -52.66999999999999 Q68.25 -50.22999999999999 60.0 -50.22999999999999 Q51.75 -50.22999999999999 44.125 -52.66999999999999 Q36.5 -55.10499999999999 30.0 -59.47999999999999 V-15.97999999999999 Q30.0 -7.22999999999999 24.875 -0.22999999999998977 Q19.75 6.77000000000001 11.5 9.52000000000001 Z M50.0 -0.22999999999998977 Q43.75 -0.22999999999998977 39.375 -4.60499999999999 Q35.0 -8.97999999999999 35.0 -15.22999999999999 V-46.60499999999999 L41.75 -44.97999999999999 Q47.5 -43.60499999999999 52.190000000000005 -40.16999999999999 Q56.875 -36.72999999999999 60.0 -31.97999999999999 Q63.125 -36.72999999999999 67.81 -40.16999999999999 Q72.5 -43.60499999999999 78.25 -44.97999999999999 L85.0 -46.60499999999999 V-15.22999999999999 Q85.0 -8.97999999999999 80.625 -4.60499999999999 Q76.25 -0.22999999999998977 70.0 -0.22999999999998977 Q67.125 -0.22999999999998977 64.565 -1.289999999999992 Q62.0 -2.3549999999999898 60.0 -4.10499999999999 Q58.0 -2.3549999999999898 55.44 -1.289999999999992 Q52.875 -0.22999999999998977 50.0 -0.22999999999998977 Z"/></g><g id="Light-M" transform="matrix(1 0 0 1 1098.18 1126)"><path d="M13.75 7.89500000000001  11.375 0.7700000000000102 Q16.375 -1.3549999999999898 19.564999999999998 -5.920000000000002 Q22.75 -10.47999999999999 22.75 -15.97999999999999 V-65.97999999999999 Q19.375 -69.22999999999999 16.69 -73.04499999999999 Q14.0 -76.85499999999999 12.0 -81.10499999999999 L19.0 -84.10499999999999 Q24.625 -72.10499999999999 35.69 -64.78999999999999 Q46.75 -57.47999999999999 60.0 -57.47999999999999 Q73.375 -57.47999999999999 84.375 -64.78999999999999 Q95.375 -72.10499999999999 101.0 -84.10499999999999 L108.0 -81.10499999999999 Q106.0 -76.85499999999999 103.25 -73.04499999999999 Q100.5 -69.22999999999999 97.25 -65.97999999999999 V-15.97999999999999 Q97.25 -10.47999999999999 100.375 -5.920000000000002 Q103.5 -1.3549999999999898 108.5 0.7700000000000102 L106.125 7.89500000000001 Q98.75 5.02000000000001 94.25 -1.4799999999999898 Q89.75 -7.97999999999999 89.75 -15.97999999999999 V-59.47999999999999 Q83.25 -54.97999999999999 75.75 -52.47999999999999 Q68.25 -49.97999999999999 60.0 -49.97999999999999 Q51.75 -49.97999999999999 44.19 -52.47999999999999 Q36.625 -54.97999999999999 30.25 -59.47999999999999 V-15.97999999999999 Q30.25 -7.97999999999999 25.689999999999998 -1.4799999999999898 Q21.125 5.02000000000001 13.75 7.89500000000001 Z M50.625 -2.7299999999999898 Q45.125 -2.7299999999999898 41.31 -6.539999999999992 Q37.5 -10.35499999999999 37.5 -15.85499999999999 V-44.35499999999999 L41.625 -43.35499999999999 Q47.625 -41.72999999999999 52.375 -38.039999999999985 Q57.125 -34.35499999999999 60.0 -29.35499999999999 Q62.875 -34.35499999999999 67.565 -38.039999999999985 Q72.25 -41.72999999999999 78.375 -43.35499999999999 L82.5 -44.35499999999999 V-15.85499999999999 Q82.5 -10.35499999999999 78.69 -6.539999999999992 Q74.875 -2.7299999999999898 69.375 -2.7299999999999898 Q66.625 -2.7299999999999898 64.19 -3.8549999999999898 Q61.75 -4.97999999999999 60.0 -6.85499999999999 Q58.25 -4.97999999999999 55.815 -3.8549999999999898 Q53.375 -2.7299999999999898 50.625 -2.7299999999999898 Z"/></g><g id="Thin-M" transform="matrix(1 0 0 1 802.565 1126)"><path d="M15.875 6.14500000000001  14.375 1.5200000000000102 Q19.25 -0.9799999999999898 22.315 -5.664999999999992 Q25.375 -10.35499999999999 25.375 -15.97999999999999 V-63.60499999999999 Q21.75 -66.85499999999999 18.875 -70.72999999999999 Q16.0 -74.60499999999999 13.75 -79.10499999999999 L18.375 -81.10499999999999 Q24.25 -69.10499999999999 35.44 -61.97999999999999 Q46.625 -54.85499999999999 60.0 -54.85499999999999 Q73.5 -54.85499999999999 84.625 -61.97999999999999 Q95.75 -69.10499999999999 101.625 -81.10499999999999 L106.25 -79.10499999999999 Q104.0 -74.60499999999999 101.06 -70.72999999999999 Q98.125 -66.85499999999999 94.625 -63.60499999999999 V-15.97999999999999 Q94.625 -10.35499999999999 97.625 -5.664999999999992 Q100.625 -0.9799999999999898 105.5 1.5200000000000102 L104.0 6.14500000000001 Q97.375 3.2700000000000102 93.5 -2.7299999999999898 Q89.625 -8.72999999999999 89.625 -15.97999999999999 V-59.47999999999999 Q83.125 -54.85499999999999 75.625 -52.35499999999999 Q68.125 -49.85499999999999 60.0 -49.85499999999999 Q51.875 -49.85499999999999 44.315 -52.35499999999999 Q36.75 -54.85499999999999 30.375 -59.47999999999999 V-15.97999999999999 Q30.375 -8.72999999999999 26.435 -2.7299999999999898 Q22.5 3.2700000000000102 15.875 6.14500000000001 Z M51.25 -5.22999999999999 Q46.5 -5.22999999999999 43.25 -8.47999999999999 Q40.0 -11.72999999999999 40.0 -16.47999999999999 V-42.10499999999999 L41.5 -41.72999999999999 Q47.75 -39.85499999999999 52.625 -35.91999999999999 Q57.5 -31.97999999999999 60.0 -26.72999999999999 Q62.5 -31.97999999999999 67.315 -35.91999999999999 Q72.125 -39.85499999999999 78.5 -41.85499999999999 L80.0 -42.22999999999999 V-16.47999999999999 Q80.0 -11.72999999999999 76.75 -8.47999999999999 Q73.5 -5.22999999999999 68.75 -5.22999999999999 Q66.125 -5.22999999999999 63.815 -6.4199999999999875 Q61.5 -7.60499999999999 60.0 -9.47999999999999 Q58.5 -7.60499999999999 56.19 -6.4199999999999875 Q53.875 -5.22999999999999 51.25 -5.22999999999999 Z"/></g><g id="Ultralight-M" transform="matrix(1 0 0 1 506.415 1126)"><path d="M17.25 5.14500000000001  16.125 1.8950000000000102 Q20.875 -0.7299999999999898 23.935 -5.539999999999992 Q27.0 -10.35499999999999 27.0 -15.97999999999999 V-62.22999999999999 Q23.25 -65.47999999999999 20.19 -69.41999999999999 Q17.125 -73.35499999999999 14.75 -77.85499999999999 L18.0 -79.22999999999999 Q24.125 -67.35499999999999 35.375 -60.29499999999999 Q46.625 -53.22999999999999 60.0 -53.22999999999999 Q73.5 -53.22999999999999 84.69 -60.29499999999999 Q95.875 -67.35499999999999 102.0 -79.22999999999999 L105.25 -77.85499999999999 Q102.875 -73.35499999999999 99.815 -69.41999999999999 Q96.75 -65.47999999999999 93.0 -62.22999999999999 V-15.97999999999999 Q93.0 -10.35499999999999 96.0 -5.539999999999992 Q99.0 -0.7299999999999898 103.75 1.8950000000000102 L102.625 5.14500000000001 Q96.625 2.2700000000000102 93.065 -3.414999999999992 Q89.5 -9.10499999999999 89.5 -15.97999999999999 V-59.47999999999999 Q83.125 -54.85499999999999 75.625 -52.29499999999999 Q68.125 -49.72999999999999 60.0 -49.72999999999999 Q51.875 -49.72999999999999 44.375 -52.29499999999999 Q36.875 -54.85499999999999 30.5 -59.47999999999999 V-15.97999999999999 Q30.5 -9.10499999999999 26.875 -3.414999999999992 Q23.25 2.2700000000000102 17.25 5.14500000000001 Z M51.625 -6.72999999999999 Q47.375 -6.72999999999999 44.435 -9.670000000000002 Q41.5 -12.60499999999999 41.5 -16.85499999999999 V-40.72999999999999 Q47.875 -38.72999999999999 52.75 -34.60499999999999 Q57.625 -30.47999999999999 60.0 -25.10499999999999 Q62.375 -30.60499999999999 67.19 -34.66999999999999 Q72.0 -38.72999999999999 78.5 -40.85499999999999 V-16.85499999999999 Q78.5 -12.60499999999999 75.565 -9.670000000000002 Q72.625 -6.72999999999999 68.375 -6.72999999999999 Q65.75 -6.72999999999999 63.565 -7.9199999999999875 Q61.375 -9.10499999999999 60.0 -11.10499999999999 Q58.625 -9.10499999999999 56.44 -7.9199999999999875 Q54.25 -6.72999999999999 51.625 -6.72999999999999 Z"/></g><g id="Bold-S" transform="matrix(1 0 0 1 2294.23 696)"><path d="M8.677422 4.119008000000008  3.5505 -5.249578 Q7.990991999999999 -8.108913999999999 10.552086000000001 -12.298503999999994 Q13.117913999999999 -16.49282799999999 13.117913999999999 -21.02799999999999 V-64.424578 Q11.442077999999999 -66.985672 10.012410000000001 -69.452086 Q8.578008 -71.9185 7.394508 -74.777836 L17.16075 -79.0195 Q21.303 -69.257992 29.388672 -63.08958999999999 Q37.479078 -56.92592199999999 47.34 -56.92592199999999 Q57.200922 -56.92592199999999 65.291328 -63.08958999999999 Q73.377 -69.257992 77.51925 -79.0195 L87.28549199999999 -74.87724999999999 Q86.101992 -72.01791399999999 84.71966400000001 -69.55149999999999 Q83.337336 -67.08508599999999 81.562086 -64.52399199999999 V-21.02799999999999 Q81.562086 -16.49282799999999 84.127914 -12.251164000000003 Q86.689008 -8.009499999999989 91.1295 -5.150164000000004 L86.00257800000001 4.119008000000008 Q79.000992 -0.11792199999999298 74.953422 -6.281589999999994 Q70.910586 -12.449991999999995 70.910586 -21.02799999999999 V-54.166 Q65.783664 -50.41667199999999 59.76675 -48.347913999999996 Q53.749835999999995 -46.274421999999994 47.34 -46.274421999999994 Q40.930164000000005 -46.274421999999994 34.960589999999996 -48.24849999999999 Q28.99575 -50.22257799999999 23.769414 -53.96717199999999 V-21.02799999999999 Q23.769414 -13.534077999999994 19.825992 -6.778659999999988 Q15.877836 -0.018507999999997082 8.677422 4.119008000000008 Z M40.338414 -5.249578 Q35.306172000000004 -5.249578 31.90716 -8.648589999999999 Q28.503414 -12.052335999999983 28.503414 -17.084577999999993 V-44.89682799999999 L33.928578 -43.022164 Q38.364335999999994 -41.44100799999999 41.668668 -38.979327999999995 Q44.973 -36.512913999999995 47.34 -33.06182799999999 Q49.707 -36.512913999999995 53.011332 -38.979327999999995 Q56.315664000000005 -41.44100799999999 60.751422 -43.022164 L66.176586 -44.89682799999999 V-17.084577999999993 Q66.176586 -12.052335999999983 62.77284 -8.648589999999999 Q59.373827999999996 -5.249578 54.341586 -5.249578 Q52.367507999999994 -5.249578 50.596992 -5.841328000000004 Q48.817007999999994 -6.433077999999995 47.34 -7.517163999999994 Q45.862992000000006 -6.433077999999995 44.083008 -5.841328000000004 Q42.312492000000006 -5.249578 40.338414 -5.249578 Z"/></g><g id="Semibold-S" transform="matrix(1 0 0 1 1998.1 696)"><path d="M9.860922 2.741414000000006  5.226336000000001 -5.150164000000004 Q9.666827999999999 -8.009499999999989 12.128507999999998 -12.350577999999999 Q14.594922 -16.686921999999996 14.594922 -21.420921999999997 V-63.24107799999999 Q12.724992 -65.802172 11.195910000000001 -68.368 Q9.666827999999999 -70.93382799999999 8.383913999999999 -73.991992 L16.767827999999998 -77.542492 Q20.910078 -67.875664 29.095164 -61.811409999999995 Q37.28025 -55.74242199999999 47.34 -55.74242199999999 Q57.39975 -55.74242199999999 65.584836 -61.811409999999995 Q73.769922 -67.875664 77.912172 -77.542492 L86.296086 -74.086672 Q85.013172 -71.02850799999999 83.48409000000001 -68.46741399999999 Q81.955008 -65.901586 80.08507800000001 -63.34049199999999 V-21.420921999999997 Q80.08507800000001 -16.686921999999996 82.551492 -12.350577999999999 Q85.013172 -8.009499999999989 89.453664 -5.150164000000004 L84.819078 2.741414000000006 Q78.30982800000001 -1.400835999999984 74.60784 -7.517163999999994 Q70.910586 -13.63349199999999 70.910586 -21.420921999999997 V-54.558921999999995 Q65.883078 -50.81432799999999 59.81409 -48.693495999999996 Q53.749835999999995 -46.572663999999996 47.34 -46.572663999999996 Q40.930164000000005 -46.572663999999996 34.91325 -48.59408199999999 Q28.896336 -50.6155 23.769414 -54.36482799999999 V-21.420921999999997 Q23.769414 -14.220507999999995 20.1195 -7.763331999999991 Q16.469586 -1.301421999999988 9.860922 2.741414000000006 Z M40.040172 -5.936008000000001 Q35.112078 -5.936008000000001 31.807746 -9.292413999999994 Q28.503414 -12.644085999999987 28.503414 -17.477499999999992 V-44.991507999999996 L33.530922000000004 -43.220991999999995 Q38.165507999999996 -41.63983599999999 41.569254 -38.979327999999995 Q44.973 -36.31408599999999 47.34 -32.66417199999999 Q49.707 -36.31408599999999 53.110746 -38.979327999999995 Q56.514492000000004 -41.63983599999999 61.149077999999996 -43.220991999999995 L66.176586 -44.991507999999996 V-17.477499999999992 Q66.176586 -12.644085999999987 62.872254000000005 -9.292413999999994 Q59.567922 -5.936008000000001 54.639828 -5.936008000000001 Q52.56633599999999 -5.936008000000001 50.691672000000004 -6.627171999999987 Q48.817007999999994 -7.318335999999988 47.34 -8.501835999999983 Q45.862992000000006 -7.318335999999988 43.988327999999996 -6.627171999999987 Q42.11366400000001 -5.936008000000001 40.040172 -5.936008000000001 Z"/></g><g id="Medium-S" transform="matrix(1 0 0 1 1701.85 696)"><path d="M10.750914 1.657328000000021  6.50925 -5.050749999999994 Q10.850328 -7.910085999999993 13.312007999999999 -12.350577999999999 Q15.778422 -16.78633599999999 15.778422 -21.818577999999995 V-62.351085999999995 Q13.809078 -64.91691399999999 12.128507999999998 -67.577422 Q10.452672000000002 -70.24266399999999 9.174491999999999 -73.39550799999999 L16.469586 -76.453672 Q20.512422 -66.890992 28.796922000000002 -60.874078 Q37.081422 -54.857164 47.34 -54.857164 Q57.598577999999996 -54.857164 65.883078 -60.874078 Q74.167578 -66.890992 78.210414 -76.453672 L85.505508 -73.49492199999999 Q84.22732800000001 -70.34207799999999 82.598832 -67.676836 Q80.97033599999999 -65.01632799999999 78.901578 -62.45049999999999 V-21.818577999999995 Q78.901578 -16.78633599999999 81.367992 -12.350577999999999 Q83.82967199999999 -7.910085999999993 88.17075 -5.050749999999994 L83.929086 1.657328000000021 Q77.912172 -2.2908280000000047 74.461086 -8.402421999999987 Q71.01 -14.518749999999997 71.01 -21.818577999999995 V-54.857164 Q65.98249200000001 -51.10783599999999 59.913504 -48.98700399999999 Q53.84925 -46.86617199999999 47.34 -46.86617199999999 Q40.83075 -46.86617199999999 34.813836 -48.93966399999999 Q28.796922000000002 -51.008421999999996 23.67 -54.757749999999994 V-21.818577999999995 Q23.67 -14.717577999999989 20.318327999999998 -8.454495999999992 Q16.961922 -2.1914139999999946 10.750914 1.657328000000021 Z M39.846078 -6.433077999999995 Q35.012664 -6.433077999999995 31.708332000000002 -9.737409999999997 Q28.404 -13.037007999999986 28.404 -17.87042199999999 V-45.09092199999999 L33.237414 -43.41508599999999 Q37.971414 -41.838663999999994 41.521914 -39.026667999999994 Q45.072414 -36.21467199999999 47.34 -32.271249999999995 Q49.607586 -36.21467199999999 53.158086 -39.026667999999994 Q56.708586 -41.838663999999994 61.442586 -43.41508599999999 L66.276 -45.09092199999999 V-17.87042199999999 Q66.276 -13.037007999999986 62.971668 -9.737409999999997 Q59.667336 -6.433077999999995 54.833922 -6.433077999999995 Q52.66575 -6.433077999999995 50.743745999999994 -7.218921999999992 Q48.817007999999994 -8.009499999999989 47.34 -9.292413999999994 Q45.862992000000006 -8.009499999999989 43.936254000000005 -7.218921999999992 Q42.01425 -6.433077999999995 39.846078 -6.433077999999995 Z"/></g><g id="Regular-S" transform="matrix(1 0 0 1 1405.73 696)"><path d="M11.442077999999999 0.8667500000000103  7.4939219999999995 -5.050749999999994 Q11.735586 -7.910085999999993 14.154660000000002 -12.39791799999999 Q16.569 -16.885749999999987 16.569 -22.012671999999995 V-61.659921999999995 Q14.495508 -64.22574999999999 12.772332 -66.985672 Q11.044422 -69.750328 9.761508 -72.903172 L16.275492 -75.66782799999999 Q20.318327999999998 -66.100414 28.650167999999997 -60.13083999999999 Q36.982008 -54.166 47.34 -54.166 Q57.697992 -54.166 66.029832 -60.13083999999999 Q74.361672 -66.100414 78.404508 -75.66782799999999 L84.918492 -73.002586 Q83.63557800000001 -69.84500799999999 81.907668 -67.08508599999999 Q80.18449199999999 -64.325164 78.111 -61.75933599999999 V-22.012671999999995 Q78.111 -16.885749999999987 80.52534000000001 -12.39791799999999 Q82.94441400000001 -7.910085999999993 87.18607800000001 -5.050749999999994 L83.237922 0.8667500000000103 Q77.51925 -2.981991999999991 74.266992 -9.046245999999996 Q71.01 -15.110499999999988 71.01 -22.012671999999995 V-55.05599199999999 Q65.98249200000001 -51.306664 59.913504 -49.185832 Q53.84925 -47.06499999999999 47.34 -47.06499999999999 Q40.83075 -47.06499999999999 34.766496000000004 -49.13849199999999 Q28.697508000000003 -51.207249999999995 23.67 -54.95657799999999 V-22.012671999999995 Q23.67 -15.110499999999988 20.465082000000002 -8.994171999999992 Q17.260164 -2.882577999999995 11.442077999999999 0.8667500000000103 Z M39.64725 -6.825999999999993 Q34.91325 -6.825999999999993 31.660992 -10.08299199999999 Q28.404 -13.335249999999988 28.404 -18.069249999999997 V-45.09092199999999 L33.038586 -43.51449999999999 Q37.872 -41.93807799999999 41.46984 -39.026667999999994 Q45.072414 -36.119991999999996 47.34 -32.072421999999996 Q49.607586 -36.119991999999996 53.21016 -39.026667999999994 Q56.808 -41.93807799999999 61.641414000000005 -43.51449999999999 L66.276 -45.09092199999999 V-18.069249999999997 Q66.276 -13.335249999999988 63.019008 -10.08299199999999 Q59.76675 -6.825999999999993 55.03275 -6.825999999999993 Q52.765164000000006 -6.825999999999993 50.79108599999999 -7.663917999999995 Q48.817007999999994 -8.501835999999983 47.34 -9.884163999999998 Q45.862992000000006 -8.501835999999983 43.88891400000001 -7.663917999999995 Q41.914835999999994 -6.825999999999993 39.64725 -6.825999999999993 Z"/></g><g id="Light-S" transform="matrix(1 0 0 1 1109.75 696)"><path d="M13.217327999999998 -0.41616399999999487  9.860922 -4.458999999999989 Q13.908492 -7.61657799999999 16.322832 -12.251164000000003 Q18.737172 -16.885749999999987 18.737172 -22.012671999999995 V-59.884671999999995 Q16.370172 -62.45049999999999 14.448168 -65.262496 Q12.526164 -68.07449199999999 11.044422 -71.227336 L15.778422 -73.201414 Q20.1195 -63.83282799999999 28.550753999999998 -57.91532799999999 Q36.982008 -51.99782799999999 47.34 -51.99782799999999 Q57.792672 -51.99782799999999 66.176586 -57.91532799999999 Q74.5605 -63.83282799999999 78.901578 -73.201414 L83.63557800000001 -71.32674999999999 Q82.153836 -68.16917199999999 80.231832 -65.36191 Q78.30982800000001 -62.549913999999994 75.942828 -59.98408599999999 V-22.012671999999995 Q75.942828 -16.885749999999987 78.357168 -12.251164000000003 Q80.77150800000001 -7.61657799999999 84.819078 -4.458999999999989 L81.462672 -0.41616399999999487 Q76.435164 -4.359585999999993 73.62316799999999 -10.030917999999986 Q70.811172 -15.702249999999992 70.811172 -22.012671999999995 V-55.05599199999999 Q65.883078 -51.207249999999995 59.866164000000005 -49.03907799999999 Q53.84925 -46.86617199999999 47.34 -46.86617199999999 Q40.83075 -46.86617199999999 34.813836 -48.98700399999999 Q28.796922000000002 -51.10783599999999 23.868828 -54.95657799999999 V-22.012671999999995 Q23.868828 -15.702249999999992 21.104172000000002 -9.983577999999994 Q18.34425 -4.260171999999983 13.217327999999998 -0.41616399999999487 Z M40.139585999999994 -8.800078 Q35.997336 -8.800078 33.18534 -11.607339999999994 Q30.378078 -14.419335999999987 30.378078 -18.56158599999999 V-43.31567199999999 L32.939172 -42.23158599999999 Q37.971414 -40.456335999999986 41.621328 -37.350832 Q45.266507999999995 -34.24532799999999 47.34 -30.003664 Q49.413492000000005 -34.24532799999999 53.011332 -37.350832 Q56.609172 -40.456335999999986 61.740828 -42.23158599999999 L64.301922 -43.31567199999999 V-18.56158599999999 Q64.301922 -14.419335999999987 61.49466 -11.607339999999994 Q58.682664 -8.800078 54.540414000000006 -8.800078 Q52.367507999999994 -8.800078 50.497578 -9.685335999999992 Q48.622914 -10.575327999999999 47.34 -12.052335999999983 Q46.057086 -10.575327999999999 44.182422 -9.685335999999992 Q42.312492000000006 -8.800078 40.139585999999994 -8.800078 Z"/></g><g id="Thin-S" transform="matrix(1 0 0 1 814.015 696)"><path d="M14.893163999999999 -1.7984919999999818  12.227922000000001 -3.8672499999999985 Q16.176078 -7.318335999999988 18.491004 -12.052335999999983 Q20.810664 -16.78633599999999 20.810664 -22.012671999999995 V-58.010008 Q18.244836 -60.575835999999995 16.176078 -63.435171999999994 Q14.102586 -66.294508 12.42675 -69.650914 L15.286086000000001 -70.834414 Q19.825992 -61.46582799999999 28.35666 -55.695082 Q36.887328 -49.924336 47.34 -49.924336 Q57.892086 -49.924336 66.375414 -55.695082 Q74.854008 -61.46582799999999 79.39391400000001 -70.834414 L82.25325 -69.750328 Q80.577414 -66.39392199999999 78.50392199999999 -63.53458599999999 Q76.435164 -60.67524999999999 73.86933599999999 -58.109421999999995 V-22.012671999999995 Q73.86933599999999 -16.78633599999999 76.188996 -12.052335999999983 Q78.50392199999999 -7.318335999999988 82.452078 -3.8672499999999985 L79.786836 -1.7984919999999818 Q75.351078 -5.741913999999994 73.031418 -11.015589999999989 Q70.716492 -16.293999999999997 70.716492 -22.012671999999995 V-55.05599199999999 Q65.783664 -51.10783599999999 59.76675 -48.93966399999999 Q53.749835999999995 -46.771491999999995 47.34 -46.771491999999995 Q40.930164000000005 -46.771491999999995 34.91325 -48.88758999999999 Q28.896336 -51.008421999999996 23.963508 -54.95657799999999 V-22.012671999999995 Q23.963508 -16.293999999999997 21.695922 -10.968249999999998 Q19.428336 -5.642499999999998 14.893163999999999 -1.7984919999999818 Z M40.631922 -10.769421999999992 Q37.081422 -10.769421999999992 34.714422 -13.136421999999996 Q32.347422 -15.503422 32.347422 -19.053921999999993 V-41.54042199999999 L32.844491999999995 -40.948671999999995 Q38.070828 -38.979327999999995 41.815422 -35.67499599999999 Q45.56475 -32.370664 47.34 -27.930171999999992 Q49.11525 -32.370664 52.812504000000004 -35.67499599999999 Q56.514492000000004 -38.979327999999995 61.835508 -41.04808599999999 L62.332578 -41.63983599999999 V-19.053921999999993 Q62.332578 -15.503422 59.965578 -13.136421999999996 Q57.598577999999996 -10.769421999999992 54.048078 -10.769421999999992 Q51.974585999999995 -10.769421999999992 50.199335999999995 -11.70675399999999 Q48.424085999999996 -12.644085999999987 47.34 -14.125827999999998 Q46.255914000000004 -12.644085999999987 44.480664000000004 -11.70675399999999 Q42.705414000000005 -10.769421999999992 40.631922 -10.769421999999992 Z"/></g><g id="Ultralight-S" transform="matrix(1 0 0 1 517.792 696)"><path d="M15.97725 -2.5843359999999933  13.61025 -3.5690079999999966 Q17.458992000000002 -7.119507999999996 19.773918 -11.952922000000001 Q22.093578 -16.78633599999999 22.093578 -22.012671999999995 V-56.92592199999999 Q19.428336 -59.491749999999996 17.20809 -62.40315999999999 Q14.992578 -65.30983599999999 13.217327999999998 -68.661508 L14.992578 -69.352672 Q19.726578 -60.083499999999994 28.304586 -54.36482799999999 Q36.887328 -48.64142199999999 47.34 -48.64142199999999 Q57.892086 -48.64142199999999 66.422754 -54.36482799999999 Q74.953422 -60.083499999999994 79.687422 -69.352672 L81.462672 -68.760922 Q79.687422 -65.40924999999999 77.51925 -62.49784 Q75.351078 -59.59116399999999 72.586422 -57.025335999999996 V-22.012671999999995 Q72.586422 -16.78633599999999 74.906082 -11.952922000000001 Q77.22100800000001 -7.119507999999996 81.06975 -3.5690079999999966 L78.70275 -2.5843359999999933 Q74.759328 -6.532491999999991 72.685836 -11.559999999999988 Q70.61707799999999 -16.587507999999985 70.61707799999999 -22.012671999999995 V-55.05599199999999 Q65.783664 -51.10783599999999 59.76675 -48.88758999999999 Q53.749835999999995 -46.67207799999999 47.34 -46.67207799999999 Q40.930164000000005 -46.67207799999999 34.960589999999996 -48.84024999999999 Q28.99575 -51.008421999999996 24.062922 -54.95657799999999 V-22.012671999999995 Q24.062922 -16.587507999999985 22.041504 -11.512659999999997 Q20.020086 -6.433077999999995 15.97725 -2.5843359999999933 Z M40.930164000000005 -11.952922000000001 Q37.772586 -11.952922000000001 35.651754 -14.073753999999994 Q33.530922000000004 -16.194585999999987 33.530922000000004 -19.352163999999995 V-40.456335999999986 L32.844491999999995 -40.16282799999999 Q38.165507999999996 -38.08933599999999 41.914835999999994 -34.63824999999999 Q45.66416400000001 -31.187163999999996 47.34 -26.651991999999993 Q49.01583599999999 -31.28657799999999 52.71309 -34.68558999999999 Q56.415078 -38.08933599999999 61.835508 -40.25750799999999 L61.149077999999996 -40.555749999999996 V-19.352163999999995 Q61.149077999999996 -16.194585999999987 59.028245999999996 -14.073753999999994 Q56.907414 -11.952922000000001 53.749835999999995 -11.952922000000001 Q51.681078 -11.952922000000001 50.000507999999996 -12.890253999999999 Q48.324672 -13.827585999999997 47.34 -15.40400799999999 Q46.355328 -13.827585999999997 44.679492 -12.890253999999999 Q42.998922 -11.952922000000001 40.930164000000005 -11.952922000000001 Z"/></g></g></svg>