<svg xmlns="http://www.w3.org/2000/svg" height="24" width="24"><path d="m19.75 23.5-4.125-4.125q-.85.3-1.75.425T12 19.925q-4.1 0-7.35-2.3T-.025 11.5q.475-1.325 1.263-2.512Q2.025 7.8 3.025 6.8L.275 4.025l1.85-1.85L21.6 21.65ZM12 16.4q.175 0 .325-.013.15-.012.325-.062l-5.5-5.475q-.025.2-.037.35-.013.15-.013.3 0 2.075 1.413 3.487Q9.925 16.4 12 16.4Zm8.125.575L16.5 13.35q.2-.425.3-.912.1-.488.1-.938 0-2.075-1.412-3.488Q14.075 6.6 12 6.6q-.475 0-.988.112-.512.113-.862.263L7.15 4q1.075-.45 2.313-.688Q10.7 3.075 12 3.075q4.075 0 7.312 2.3 3.238 2.3 4.713 6.125-.575 1.625-1.612 3.037-1.038 1.413-2.288 2.438ZM14.15 11 12.4 9.25q.4-.075.738.05.337.125.587.4.225.225.363.575.137.35.062.725Z"/></svg>