<svg xmlns="http://www.w3.org/2000/svg" height="40" viewBox="0 -960 960 960" width="40"><path d="M153.33-120q-13.33 0-22.16-10-8.84-10-6.84-23.33 11-84 29.5-177.34Q172.33-424 200.67-498q26-70 56.5-106T320-640q20.33 0 40.83 18.83 20.5 18.84 40.17 52.5 19.67 33.67 36.33 80.17Q454-442 466.67-385q12.66-104 31-187.67 18.33-83.66 41-143.33 22.66-59.67 48.16-91.83Q612.33-840 640-840q36.67 0 69 49.33 32.33 49.34 58.33 146 29.34 108 46 241Q830-270.67 838-154.33q1 14.33-8.33 24.33-9.34 10-23.67 10-15 0-26.83-9.33Q767.33-138.67 763-153q-11-36.33-25.33-71-14.34-34.67-30.34-64-19.33-35.33-36.5-55.67-17.16-20.33-30.83-23-14 2.67-30.5 25.34Q593-318.67 579-293q-15.67 28.67-29.83 63.67-14.17 35-25.17 73.66-5 16-17 25.84-12 9.83-27 9.83t-25.67-10.67q-10.66-10.66-12.66-26.66-10-73.34-23.67-139.84-13.67-66.5-30.33-122.16Q371-475 354-514.33q-17-39.34-34-57.34-22.33 23.34-42 65.5Q258.33-464 241.33-406 226-353.67 213.5-290.67q-12.5 63-22.5 137.34-2 14.33-12.67 23.83-10.66 9.5-25 9.5ZM528-331.33q25-49.34 53.83-75.67 28.84-26.33 58.17-26.33 30 0 60.83 27 30.84 27 54.5 75-8.33-85-20.83-158.67-12.5-73.67-28.17-132.33-15.66-58.67-32.33-97-16.67-38.34-34-52-16 13-31.67 50.33-15.66 37.33-30.66 95.33t-27.5 132.34q-12.5 74.33-22.17 162Z"/></svg>