<svg xmlns="http://www.w3.org/2000/svg" height="48" width="48"><path d="M24.05 35.7Zm16.1-.8q1.4.75 2.325-.45.925-1.2.225-2.45l-3.6-6.75-2.75 7.45ZM29.6 32.8h3.55l4.8-12q.35-.7.275-1.4-.075-.7-.825-1.05l-4.15-1.8q-.7-.4-1.475-.025Q31 16.9 31 17.6Zm-14.7 0h3.5L17 17.6q0-.75-.675-1.125t-1.525.075l-3.9 1.7q-.65.25-.725 1.175-.075.925.175 1.575Zm-7 2.1 3.8-2.2-2.75-7.45-3.6 7q-.7 1.45.325 2.35 1.025.9 2.225.3Zm13.4-2.1h5.4l1.65-18.1q.05-.75-.425-1.225Q27.45 13 26.75 13H21.3q-.85 0-1.25.475T19.7 14.7ZM6.8 37.85q-1.75 0-3.15-1.3t-1.4-3.35q0-.65.225-1.175T2.9 30.95L7.5 22q-.85-2.25-.175-4.025Q8 16.2 9.65 15.5l4.15-1.7q.85-.3 1.65-.325.8-.025 1.5.425.4-1.75 1.6-2.75 1.2-1 2.7-1h5.5q1.55 0 2.75.875t1.6 2.625q.5-.25 1.4-.225.9.025 1.7.375l4.15 1.7q1.75.7 2.425 2.5.675 1.8-.225 3.7l4.55 9.15q.15.5.425 1.075T45.8 33q0 2.45-1.7 3.65-1.7 1.2-3.3 1.2-.45 0-.95-.2-.5-.2-1-.45l-3.05-1.5H12.15L9.3 37.2q-.5.25-1.15.45-.65.2-1.35.2Z"/></svg>