<svg xmlns="http://www.w3.org/2000/svg" height="20" viewBox="0 -960 960 960" width="20"><path d="m741.576-317.193-35.461-35.845q16.885-29.385 25.231-60.731t8.346-66.218q0-107.527-76.819-184.154-76.819-76.628-184.758-76.628-33.991 0-64.745 8.5-30.755 8.5-59.255 23.307l-34.268-34.652q34.465-21.511 73.54-33.313 39.075-11.802 84.812-11.802 64.07 0 120.315 24.313 56.246 24.314 98.385 66.308 42.138 41.993 66.446 97.975Q787.652-544.151 787.652-480q0 45.35-11.687 86.735-11.686 41.386-34.389 76.072ZM505.269-556.039l-47.961-48.345v-63.578h47.961v111.923Zm275.463 444.423L661.423-230.925q-38.115 28.577-84.481 44.116-46.365 15.538-98.019 15.538-129.071 0-218.9-90.018-89.829-90.019-89.445-219.519h47.191q.962 107.5 77.167 184.539 76.205 77.038 183.987 77.038 41.097 0 78.068-12.827 36.972-12.827 68.779-34.327L281.346-610.81h-87.92v-88.112l-81.502-81.31 34.422-34.73 669.116 669.116-34.73 34.23Z"/></svg>