<svg xmlns="http://www.w3.org/2000/svg" height="48" viewBox="0 -960 960 960" width="48"><path d="M446.56-493.96ZM82.17-539.61q-8.35-22.06-12.61-44.12-4.26-22.05-4.26-46.92 0-97.55 64.96-163.91 64.96-66.35 159.4-66.35 56.01 0 105.11 25.08 49.1 25.09 85.23 73.26 37.13-48.17 85.27-73.26 48.13-25.08 105.3-25.08 94.03 0 159.08 66.35 65.05 66.36 65.05 163.91 0 6.69-.5 12.89-.5 6.19-.5 12.33-17.39-18.86-37.83-32.65-20.44-13.79-44.78-22.36-8.57-53.47-46.31-87.08t-94.21-33.61q-51 0-94.16 32.06-43.15 32.07-61.8 84.11h-69.22q-18.09-51.61-61.24-83.89-43.15-32.28-94.72-32.28-61.61 0-102.98 42.85-41.36 42.85-41.36 107.63 0 23.95 5.43 46.06 5.44 22.11 17.31 44.98H82.17Zm318.05 364.35q-56.05-50.91-99.11-91.41-43.07-40.5-75.15-73.72h111.69q26.3 26.27 61.63 58.81 35.32 32.55 80.72 75.36 19.81-17.55 37.31-34.16 17.51-16.62 32.95-31.36 13.83 15.52 29.94 26.59 16.1 11.07 34.02 20.28-12.65 12.09-25.59 23.96-12.93 11.87-27.15 24.52l-28.04 27.43q-11.29 10.26-25.31 15.4-14.02 5.13-28.27 5.13t-27.58-5.13q-13.32-5.14-24.92-15.55l-27.14-26.15Zm282.43-280V-560q0-15.75 10.99-26.83 10.98-11.08 26.58-11.08 15.61 0 26.65 11.08T757.91-560v104.74q0 15.5-11.1 26.43-11.1 10.92-26.87 10.92-15.77 0-26.53-10.92-10.76-10.93-10.76-26.43ZM83.96-400.39q-16.71 0-28.16-11.5t-11.45-28.29q0-16.78 11.45-28.1 11.45-11.33 28.16-11.33h134.75l68.81-102.48q5.68-9.14 14.71-13.33 9.02-4.19 18.82-4.19 9.79 0 18.49 4.35t14.37 13.61l67.18 102.04h63q-2.13 9.2-2.92 19.15-.78 9.95-.78 20.46 0 10.51.78 20.46.79 9.95 2.92 19.15h-83.52q-10.1 0-18.73-4.63-8.62-4.63-14.75-12.33L320-488.48l-47.09 71.13q-6.13 7.7-14.75 12.33-8.63 4.63-18.73 4.63H83.96Zm635.98 117.74q-15.77 0-26.53-10.99-10.76-10.98-10.76-26.59 0-15.6 10.99-26.64 10.98-11.04 26.58-11.04 15.61 0 26.65 11.1t11.04 26.87q0 15.77-11.1 26.53-11.1 10.76-26.87 10.76Z"/></svg>