<svg xmlns="http://www.w3.org/2000/svg" height="40" width="40"><path d="M6.208 35.542Q5.458 35.542 4.958 35.042Q4.458 34.542 4.458 33.792Q4.458 33.083 4.958 32.562Q5.458 32.042 6.208 32.042H33.833Q34.542 32.042 35.042 32.562Q35.542 33.083 35.542 33.792Q35.542 34.542 35.042 35.042Q34.542 35.542 33.833 35.542ZM16.583 28.625Q15.833 28.625 15.312 28.125Q14.792 27.625 14.792 26.875Q14.792 26.167 15.312 25.646Q15.833 25.125 16.583 25.125H33.833Q34.542 25.125 35.042 25.646Q35.542 26.167 35.542 26.875Q35.542 27.625 35.042 28.125Q34.542 28.625 33.833 28.625ZM6.208 21.708Q5.458 21.708 4.958 21.208Q4.458 20.708 4.458 19.958Q4.458 19.25 4.958 18.729Q5.458 18.208 6.208 18.208H33.833Q34.542 18.208 35.042 18.729Q35.542 19.25 35.542 19.958Q35.542 20.708 35.042 21.208Q34.542 21.708 33.833 21.708ZM16.583 14.875Q15.833 14.875 15.312 14.354Q14.792 13.833 14.792 13.083Q14.792 12.375 15.312 11.875Q15.833 11.375 16.583 11.375H33.833Q34.542 11.375 35.042 11.875Q35.542 12.375 35.542 13.125Q35.542 13.833 35.042 14.354Q34.542 14.875 33.833 14.875ZM6.208 7.958Q5.458 7.958 4.958 7.438Q4.458 6.917 4.458 6.167Q4.458 5.458 4.958 4.958Q5.458 4.458 6.208 4.458H33.833Q34.542 4.458 35.042 4.958Q35.542 5.458 35.542 6.208Q35.542 6.917 35.042 7.438Q34.542 7.958 33.833 7.958Z"/></svg>