<svg xmlns="http://www.w3.org/2000/svg" version="1.1" width="3300" height="2000"><g id="Notes"><style>
    text {
      font-family: monospace;
      text-anchor: middle;
    }
    text.emphasis {
      font-weight:bold;
    }
    text.lanchor {
      text-anchor: start;
    }
  </style><rect height="2200" id="artboard" fill="white" width="3300" x="0" y="0"/><line id="" style="fill:none;stroke:black;stroke-width:0.5;" x1="263" x2="3036" y1="292" y2="292"/><text class="lanchor emphasis" transform="matrix(1 0 0 1 263 322)">Weight/Scale Variations</text><text transform="matrix(1 0 0 1 559.711 322)">Ultralight</text><text transform="matrix(1 0 0 1 856.422 322)">Thin</text><text transform="matrix(1 0 0 1 1153.13 322)">Light</text><text transform="matrix(1 0 0 1 1449.84 322)">Regular</text><text transform="matrix(1 0 0 1 1746.56 322)">Medium</text><text transform="matrix(1 0 0 1 2043.27 322)">Semibold</text><text transform="matrix(1 0 0 1 2339.98 322)">Bold</text><text transform="matrix(1 0 0 1 2636.69 322)">Heavy</text><text transform="matrix(1 0 0 1 2933.4 322)">Black</text><text id="template-version" style="text-anchor: end;" transform="matrix(1 0 0 1 3036 1933)">Template v.1.0</text><text class="lanchor" transform="matrix(1 0 0 1 263 726)">Small</text><text class="lanchor" transform="matrix(1 0 0 1 263 1156)">Medium</text><text class="lanchor" transform="matrix(1 0 0 1 263 1586)">Large</text></g><g id="Guides"><g id="H-reference" style="fill:#27AAE1;stroke:none;" transform="matrix(1 0 0 1 339 696)"><path d="M 54.9316 0 L 57.666 0 L 30.5664 -70.459 L 28.0762 -70.459 L 0.976562 0 L 3.66211 0 L 12.9395 -24.4629 L 45.7031 -24.4629 Z M 29.1992 -67.0898 L 29.4434 -67.0898 L 44.8242 -26.709 L 13.8184 -26.709 Z"/></g><line id="Baseline-S" style="fill:none;stroke:#27AAE1;opacity:1;stroke-width:0.577;" x1="263" x2="3036" y1="696" y2="696"/><line id="Capline-S" style="fill:none;stroke:#27AAE1;opacity:1;stroke-width:0.577;" x1="263" x2="3036" y1="625.541" y2="625.541"/><g id="H-reference" style="fill:#27AAE1;stroke:none;" transform="matrix(1 0 0 1 339 1126)"><path d="M 54.9316 0 L 57.666 0 L 30.5664 -70.459 L 28.0762 -70.459 L 0.976562 0 L 3.66211 0 L 12.9395 -24.4629 L 45.7031 -24.4629 Z M 29.1992 -67.0898 L 29.4434 -67.0898 L 44.8242 -26.709 L 13.8184 -26.709 Z"/></g><line id="Baseline-M" style="fill:none;stroke:#27AAE1;opacity:1;stroke-width:0.577;" x1="263" x2="3036" y1="1126" y2="1126"/><line id="Capline-M" style="fill:none;stroke:#27AAE1;opacity:1;stroke-width:0.577;" x1="263" x2="3036" y1="1055.54" y2="1055.54"/><g id="H-reference" style="fill:#27AAE1;stroke:none;" transform="matrix(1 0 0 1 339 1556)"><path d="M 54.9316 0 L 57.666 0 L 30.5664 -70.459 L 28.0762 -70.459 L 0.976562 0 L 3.66211 0 L 12.9395 -24.4629 L 45.7031 -24.4629 Z M 29.1992 -67.0898 L 29.4434 -67.0898 L 44.8242 -26.709 L 13.8184 -26.709 Z"/></g><line id="Baseline-L" style="fill:none;stroke:#27AAE1;opacity:1;stroke-width:0.577;" x1="263" x2="3036" y1="1556" y2="1556"/><line id="Capline-L" style="fill:none;stroke:#27AAE1;opacity:1;stroke-width:0.577;" x1="263" x2="3036" y1="1485.54" y2="1485.54"/><rect height="119.336" id="left-margin" style="fill:darkred;stroke:none;opacity:0.4;" width="12.4512" x="1394.06" y="1030.79"/><rect height="119.336" id="right-margin" style="fill:darkgreen;stroke:none;opacity:0.4;" width="12.4512" x="1502.5112" y="1030.79"/><rect x="1406.5112" y="1045" width="96" height="96" fill="none" stroke="blue" stroke-dasharray="5"/><rect x="1394.06" y="1030.79" width="120.9024" height="119.336" fill="none" stroke="blue"/></g><g id="Symbols"><g id="Bold-L" transform="matrix(1 0 0 1 2266 1556)"><path d="M24.429 19.676 Q18.302 19.676 13.988 15.362 Q9.675 11.049 9.675 4.921 V-75.381 Q9.675 -80.702 12.94 -84.693 Q16.206 -88.684 21.204 -89.813 H24.591 L68.047 -46.598 Q64.661 -41.357 62.888 -35.19 Q61.114 -29.022 61.114 -22.33 V-4.915 Q61.114 1.858 62.726 7.945 Q64.339 14.032 68.128 19.676 H24.429 Z M107.796 -68.931 Q97.959 -68.931 89.615 -65.182 Q81.27 -61.433 74.981 -55.144 L39.829 -90.297 H130.371 Q136.498 -90.297 140.892 -85.903 Q145.286 -81.509 145.286 -75.381 V-50.549 Q138.433 -59.176 128.476 -64.053 Q118.519 -68.931 107.796 -68.931 Z M114.004 -24.426 V-59.417 Q126.743 -56.434 135.41 -46.88 Q144.077 -37.326 145.286 -24.426 H114.004 Z M101.507 -59.417 V-30.876 H99.249 L81.915 -48.211 Q85.463 -52.484 90.663 -55.346 Q95.863 -58.208 101.507 -59.417 Z M141.497 11.129  118.196 -11.929 H145.286 V-4.915 Q145.286 -0.4 144.278 3.591 Q143.271 7.582 141.497 11.129 Z M107.796 32.495 Q92.235 32.495 81.31 21.57 Q70.386 10.646 70.386 -4.915 V-11.929 H86.752 L4.515 -94.167 L12.497 -102.149 L143.996 29.431 L136.095 37.333 L126.501 27.658 Q122.228 29.996 117.551 31.245 Q112.875 32.495 107.796 32.495 Z"/></g><g id="Semibold-L" transform="matrix(1 0 0 1 1970.27 1556)"><path d="M23.799 17.923 Q18.723 17.923 15.075 14.275 Q11.428 10.628 11.428 5.552 V-76.012 Q11.428 -80.633 14.482 -84.097 Q17.538 -87.562 21.975 -88.201 H25.432 L67.277 -46.529 Q64.311 -41.567 62.747 -35.82 Q61.183 -30.073 61.183 -23.872 V-5.757 Q61.183 0.735 62.726 6.613 Q64.269 12.49 67.778 17.923 H23.799 Z M106.954 -69.562 Q96.837 -69.562 88.283 -65.532 Q79.728 -61.502 73.509 -54.794 L39.829 -88.475 H131.001 Q136.077 -88.475 139.77 -84.781 Q143.464 -81.088 143.464 -76.012 V-51.74 Q136.892 -60.158 127.144 -64.86 Q117.396 -69.562 106.954 -69.562 Z M112.462 -25.618 V-60.119 Q125.201 -57.486 133.868 -48.003 Q142.535 -38.518 143.464 -25.618 H112.462 Z M101.367 -60.119 V-29.194 H99.109 L80.303 -48.001 Q84.131 -52.693 89.647 -55.802 Q95.162 -58.91 101.367 -60.119 Z M139.394 10.92  113.78 -14.524 H143.464 V-5.757 Q143.464 -1.101 142.385 3.065 Q141.308 7.232 139.394 10.92 Z M106.954 30.742 Q91.745 30.742 81.101 20.098 Q70.455 9.454 70.455 -5.757 V-14.524 H84.439 L4.796 -94.167 L12.216 -101.588 L142.593 28.87 L135.253 36.21 L125.098 26.045 Q120.965 28.314 116.429 29.528 Q111.893 30.742 106.954 30.742 Z"/></g><g id="Medium-L" transform="matrix(1 0 0 1 1674.31 1556)"><path d="M23.325 16.609 Q19.039 16.609 15.89 13.461 Q12.742 10.312 12.742 6.026 V-76.486 Q12.742 -80.58 15.64 -83.65 Q18.537 -86.722 22.554 -86.991 H26.063 L66.698 -46.476 Q64.049 -41.725 62.642 -36.294 Q61.236 -30.862 61.236 -25.029 V-6.387 Q61.236 -0.105 62.726 5.613 Q64.216 11.333 67.515 16.609 H23.325 Z M106.323 -70.036 Q95.997 -70.036 87.283 -65.795 Q78.571 -61.556 72.404 -54.532 L39.829 -87.107 H131.475 Q135.761 -87.107 138.93 -83.94 Q142.097 -80.772 142.097 -76.486 V-52.634 Q135.734 -60.893 126.144 -65.464 Q116.556 -70.036 106.323 -70.036 Z M111.304 -26.511 V-60.645 Q124.043 -58.274 132.71 -48.843 Q141.378 -39.411 142.097 -26.511 H111.304 Z M101.262 -60.645 V-27.932 H99.004 L79.093 -47.843 Q83.131 -52.851 88.884 -56.144 Q94.636 -59.435 101.262 -60.645 Z M137.816 10.762  110.468 -16.469 H142.097 V-6.387 Q142.097 -1.627 140.966 2.67 Q139.836 6.969 137.816 10.762 Z M106.323 29.428 Q91.376 29.428 80.943 18.994 Q70.508 8.561 70.508 -6.387 V-16.469 H82.704 L5.005 -94.167 L12.007 -101.167 L141.542 28.449 L134.623 35.37 L124.046 24.836 Q120.018 27.051 115.589 28.24 Q111.158 29.428 106.323 29.428 Z"/></g><g id="Regular-L" transform="matrix(1 0 0 1 1378.56 1556)"><path d="M22.978 15.644 Q19.269 15.644 16.488 12.863 Q13.706 10.081 13.706 6.373 V-76.832 Q13.706 -80.541 16.488 -83.323 Q19.269 -86.104 22.978 -86.104 H26.526 L66.274 -46.437 Q63.855 -41.841 62.565 -36.641 Q61.275 -31.441 61.275 -25.877 V-6.85 Q61.275 -0.722 62.726 4.881 Q64.177 10.484 67.322 15.644 H22.978 Z M105.861 -70.382 Q95.379 -70.382 86.551 -65.988 Q77.722 -61.594 71.595 -54.338 L39.829 -86.104 H131.822 Q135.531 -86.104 138.312 -83.323 Q141.094 -80.541 141.094 -76.832 V-53.29 Q134.886 -61.433 125.412 -65.908 Q115.939 -70.382 105.861 -70.382 Z M110.456 -27.167 V-61.03 Q123.195 -58.853 131.862 -49.46 Q140.529 -40.067 141.094 -27.167 H110.456 Z M101.184 -61.03 V-27.006 H98.927 L78.206 -47.727 Q82.399 -52.967 88.325 -56.394 Q94.251 -59.821 101.184 -61.03 Z M136.659 10.646  108.038 -17.896 H141.094 V-6.85 Q141.094 -2.012 139.925 2.382 Q138.756 6.776 136.659 10.646 Z M105.861 28.464 Q91.106 28.464 80.827 18.184 Q70.547 7.904 70.547 -6.85 V-17.896 H81.431 L5.16 -94.167 L11.852 -100.859 L140.771 28.141 L134.16 34.753 L123.276 23.949 Q119.325 26.126 114.971 27.295 Q110.618 28.464 105.861 28.464 Z"/></g><g id="Light-L" transform="matrix(1 0 0 1 1082.77 1556)"><path d="M25.676 12.698 Q21.967 12.698 19.295 10.025 Q16.622 7.353 16.622 3.644 V-74.104 Q16.622 -77.781 19.295 -80.47 Q21.967 -83.158 25.676 -83.158 H29.472 L67.111 -45.631 Q64.847 -41.129 63.62 -36.114 Q62.391 -31.099 62.391 -25.784 V-6.632 Q62.391 -1.435 63.516 3.393 Q64.642 8.22 67.136 12.698 H25.676 Z M106.109 -69.391 Q96.031 -69.391 87.543 -65.229 Q79.056 -61.067 73.022 -54.183 L44.047 -83.158 H129.124 Q132.802 -83.158 135.49 -80.47 Q138.178 -77.781 138.178 -74.104 V-55.057 Q132.125 -61.867 123.659 -65.629 Q115.194 -69.391 106.109 -69.391 Z M109.587 -25.989 V-57.899 Q121.676 -56.125 129.753 -47.166 Q137.832 -38.207 138.178 -25.989 H109.587 Z M102.518 -57.899 V-26.385 H100.881 L81.246 -45.96 Q85.127 -50.734 90.605 -53.804 Q96.081 -56.875 102.518 -57.899 Z M134.861 7.545  108.286 -18.92 H138.178 V-6.632 Q138.178 -2.695 137.288 0.877 Q136.398 4.45 134.861 7.545 Z M106.109 25.548 Q92.657 25.548 83.292 16.185 Q73.927 6.819 73.927 -6.632 V-18.92 H83.54 L8.757 -93.702 L13.898 -98.843 L140.71 28.08 L135.679 33.109 L123.121 20.661 Q119.356 22.994 115.079 24.271 Q110.803 25.548 106.109 25.548 Z"/></g><g id="Thin-L" transform="matrix(1 0 0 1 787.282 1556)"><path d="M28.374 9.752 Q24.665 9.752 22.101 7.188 Q19.535 4.623 19.535 0.914 V-71.374 Q19.535 -75.022 22.101 -77.618 Q24.665 -80.212 28.374 -80.212 H32.418 L67.948 -44.824 Q65.84 -40.414 64.674 -35.586 Q63.508 -30.759 63.508 -25.692 V-6.416 Q63.508 -2.15 64.308 1.904 Q65.108 5.956 66.949 9.752 H28.374 Z M106.357 -68.398 Q96.682 -68.398 88.536 -64.469 Q80.39 -60.54 74.448 -54.029 L48.264 -80.212 H126.426 Q130.072 -80.212 132.668 -77.618 Q135.265 -75.022 135.265 -71.374 V-56.825 Q129.366 -62.301 121.908 -65.35 Q114.45 -68.398 106.357 -68.398 Z M108.72 -24.81 V-54.765 Q120.155 -53.395 127.646 -44.871 Q135.134 -36.346 135.265 -24.81 H108.72 Z M103.851 -54.765 V-25.766 H102.834 L84.284 -44.192 Q87.857 -48.502 92.883 -51.215 Q97.909 -53.929 103.851 -54.765 Z M133.062 4.444  108.534 -19.942 H135.265 V-6.416 Q135.265 -3.377 134.653 -0.626 Q134.042 2.124 133.062 4.444 Z M106.357 22.635 Q94.207 22.635 85.758 14.183 Q77.306 5.734 77.306 -6.416 V-19.942 H85.648 L12.355 -93.236 L15.944 -96.827 L140.647 28.017 L137.2 31.466 L122.966 17.375 Q119.386 19.861 115.189 21.248 Q110.99 22.635 106.357 22.635 Z"/></g><g id="Ultralight-L" transform="matrix(1 0 0 1 491.205 1556)"><path d="M29.992 7.985 Q26.284 7.985 23.784 5.486 Q21.285 2.986 21.285 -0.722 V-69.737 Q21.285 -73.366 23.784 -75.905 Q26.284 -78.445 29.992 -78.445 H34.185 L68.451 -44.341 Q66.435 -39.987 65.306 -35.27 Q64.177 -30.554 64.177 -25.636 V-6.286 Q64.177 -2.577 64.782 1.011 Q65.387 4.599 66.838 7.985 H29.992 Z M106.506 -67.802 Q97.073 -67.802 89.131 -64.013 Q81.189 -60.224 75.304 -53.935 L50.794 -78.445 H124.808 Q128.436 -78.445 130.975 -75.905 Q133.515 -73.366 133.515 -69.737 V-57.886 Q127.71 -62.562 120.857 -65.182 Q114.004 -67.802 106.506 -67.802 Z M108.199 -24.104 V-52.887 Q119.244 -51.758 126.38 -43.494 Q133.515 -35.23 133.515 -24.104 H108.199 Z M104.651 -52.887 V-25.394 H104.006 L86.108 -43.131 Q89.494 -47.162 94.251 -49.662 Q99.008 -52.161 104.651 -52.887 Z M131.983 2.583  108.683 -20.556 H133.515 V-6.286 Q133.515 -3.786 133.072 -1.529 Q132.628 0.729 131.983 2.583 Z M106.506 20.885 Q95.138 20.885 87.236 12.984 Q79.335 5.083 79.335 -6.286 V-20.556 H86.914 L14.513 -92.957 L17.173 -95.618 L140.61 27.98 L138.111 30.479 L122.873 15.403 Q119.406 17.983 115.253 19.434 Q111.101 20.885 106.506 20.885 Z"/></g><g id="Bold-M" transform="matrix(1 0 0 1 2281.8 1126)"><path d="M22.125 7.895 Q15.75 7.895 11.375 3.52 Q7 -0.855 7 -7.23 V-63.23 Q7 -68.73 10.312 -72.792 Q13.625 -76.855 18.75 -77.98 H19.25 L51.312 -45.917 Q48.25 -41.23 46.5 -35.855 Q44.75 -30.48 44.75 -24.417 V-11.667 Q44.75 -6.417 46.094 -1.511 Q47.438 3.395 50.062 7.895 H22.125 Z M83.562 -63.23 Q76.375 -63.23 70.125 -60.761 Q63.875 -58.292 58.75 -54.23 L34.625 -78.355 H97.875 Q104.25 -78.355 108.625 -73.98 Q113 -69.605 113 -63.23 V-49.792 Q107.25 -56.292 99.656 -59.761 Q92.062 -63.23 83.562 -63.23 Z M89.875 -27.355 V-53.292 Q99.188 -50.792 105.625 -43.824 Q112.062 -36.855 113 -27.355 H89.875 Z M77.25 -53.292 V-35.855 L65.5 -47.48 Q68 -49.417 71 -50.917 Q74 -52.417 77.25 -53.292 Z M111.312 -1.917  98.375 -14.73 H113 V-11.667 Q113 -9.042 112.594 -6.636 Q112.188 -4.23 111.312 -1.917 Z M83.562 17.77 Q71.312 17.77 62.719 9.176 Q54.125 0.583 54.125 -11.667 V-14.73 H66.625 L4.25 -77.105 L12.188 -85.042 L112 14.77 L104.062 22.708 L96.25 14.895 Q93.312 16.395 90.125 17.083 Q86.938 17.77 83.562 17.77 Z"/></g><g id="Semibold-M" transform="matrix(1 0 0 1 1985.97 1126)"><path d="M21.473 6.048 Q16.185 6.048 12.516 2.379 Q8.848 -1.29 8.848 -6.577 V-63.882 Q8.848 -68.676 11.916 -72.167 Q14.984 -75.66 19.565 -76.295 H20.12 L50.551 -45.864 Q47.87 -41.501 46.364 -36.534 Q44.859 -31.567 44.859 -26.047 V-12.537 Q44.859 -7.612 46.094 -2.924 Q47.329 1.765 49.736 6.048 H21.473 Z M82.692 -63.882 Q75.234 -63.882 68.766 -61.169 Q62.299 -58.455 57.229 -53.904 L34.625 -76.507 H98.528 Q103.815 -76.507 107.484 -72.839 Q111.153 -69.17 111.153 -63.882 V-51.042 Q105.62 -57.271 98.27 -60.576 Q90.921 -63.882 82.692 -63.882 Z M88.299 -28.605 V-54.054 Q97.611 -51.825 104.049 -44.937 Q110.486 -38.05 111.153 -28.605 H88.299 Z M77.088 -54.054 V-34.116 L63.87 -47.262 Q66.588 -49.689 69.968 -51.434 Q73.347 -53.179 77.088 -54.054 Z M109.139 -2.135  93.81 -17.392 H111.153 V-12.537 Q111.153 -9.749 110.638 -7.152 Q110.123 -4.556 109.139 -2.135 Z M82.692 15.923 Q70.824 15.923 62.529 7.628 Q54.234 -0.667 54.234 -12.537 V-17.392 H64.234 L4.521 -77.105 L11.916 -84.499 L110.588 14.173 L103.192 21.566 L94.838 13.21 Q92.062 14.601 89.011 15.263 Q85.959 15.923 82.692 15.923 Z"/></g><g id="Medium-M" transform="matrix(1 0 0 1 1689.91 1126)"><path d="M20.984 4.661 Q16.511 4.661 13.373 1.523 Q10.234 -1.616 10.234 -6.089 V-64.371 Q10.234 -68.635 13.119 -71.699 Q16.003 -74.762 20.176 -75.031 H20.771 L49.981 -45.822 Q47.584 -41.705 46.263 -37.044 Q44.94 -32.382 44.94 -27.271 V-13.189 Q44.94 -8.51 46.094 -3.984 Q47.248 0.541 49.491 4.661 H20.984 Z M82.041 -64.371 Q74.377 -64.371 67.748 -61.475 Q61.116 -58.577 56.087 -53.659 L34.625 -75.121 H99.016 Q103.489 -75.121 106.627 -71.982 Q109.766 -68.844 109.766 -64.371 V-51.98 Q104.396 -58.005 97.231 -61.187 Q90.065 -64.371 82.041 -64.371 Z M87.116 -29.542 V-54.624 Q96.429 -52.6 102.866 -45.774 Q109.304 -38.947 109.766 -29.542 H87.116 Z M76.965 -54.624 V-32.811 L62.646 -47.1 Q65.528 -49.892 69.192 -51.821 Q72.859 -53.749 76.965 -54.624 Z M107.509 -2.297  90.386 -19.39 H109.766 V-13.189 Q109.766 -10.279 109.17 -7.54 Q108.574 -4.801 107.509 -2.297 Z M82.041 14.536 Q70.456 14.536 62.386 6.466 Q54.315 -1.605 54.315 -13.189 V-19.39 H62.44 L4.725 -77.105 L11.713 -84.091 L109.528 13.724 L102.541 20.71 L93.778 11.946 Q91.125 13.256 88.175 13.896 Q85.225 14.536 82.041 14.536 Z"/></g><g id="Regular-M" transform="matrix(1 0 0 1 1394.06 1126)"><path d="M20.625 3.645 Q16.75 3.645 14 0.895 Q11.25 -1.855 11.25 -5.73 V-64.73 Q11.25 -68.605 14 -71.355 Q16.75 -74.105 20.625 -74.105 H21.25 L49.562 -45.792 Q47.375 -41.855 46.188 -37.417 Q45 -32.98 45 -28.167 V-13.667 Q45 -9.167 46.094 -4.761 Q47.188 -0.355 49.312 3.645 H20.625 Z M81.562 -64.73 Q73.75 -64.73 67 -61.699 Q60.25 -58.667 55.25 -53.48 L34.625 -74.105 H99.375 Q103.25 -74.105 106 -71.355 Q108.75 -68.605 108.75 -64.73 V-52.667 Q103.5 -58.542 96.469 -61.636 Q89.438 -64.73 81.562 -64.73 Z M86.25 -30.23 V-55.042 Q95.562 -53.167 102 -46.386 Q108.438 -39.605 108.75 -30.23 H86.25 Z M76.875 -55.042 V-31.855 L61.75 -46.98 Q64.75 -50.042 68.625 -52.105 Q72.5 -54.167 76.875 -55.042 Z M106.312 -2.417  87.875 -20.855 H108.75 V-13.667 Q108.75 -10.667 108.094 -7.824 Q107.438 -4.98 106.312 -2.417 Z M81.562 13.52 Q70.188 13.52 62.281 5.614 Q54.375 -2.292 54.375 -13.667 V-20.855 H61.125 L4.875 -77.105 L11.562 -83.792 L108.75 13.395 L102.062 20.083 L93 11.02 Q90.438 12.27 87.562 12.895 Q84.688 13.52 81.562 13.52 Z"/></g><g id="Light-M" transform="matrix(1 0 0 1 1098.18 1126)"><path d="M22.044 1.361 Q18.456 1.361 15.984 -1.112 Q13.51 -3.586 13.51 -7.172 V-63.287 Q13.51 -66.85 15.984 -69.335 Q18.456 -71.821 22.044 -71.821 H23.486 L50.693 -44.639 Q48.674 -40.917 47.606 -36.744 Q46.539 -32.571 46.539 -28.095 V-13.499 Q46.539 -9.624 47.404 -5.867 Q48.269 -2.11 49.938 1.361 H22.044 Z M81.755 -63.287 Q74.206 -63.287 67.698 -60.34 Q61.188 -57.394 56.356 -52.399 L36.932 -71.821 H97.956 Q101.519 -71.821 104.005 -69.335 Q106.49 -66.85 106.49 -63.287 V-53.027 Q101.505 -58.014 95.183 -60.65 Q88.86 -63.287 81.755 -63.287 Z M85.24 -28.98 V-52.662 Q94.144 -51.147 100.221 -44.584 Q106.297 -38.019 106.49 -28.98 H85.24 Z M78.245 -52.662 V-30.509 L63.721 -45.032 Q66.529 -48.022 70.271 -49.977 Q74.015 -51.931 78.245 -52.662 Z M104.63 -4.149  86.769 -21.985 H106.49 V-13.499 Q106.49 -11.004 106.002 -8.629 Q105.514 -6.254 104.63 -4.149 Z M81.755 11.26 Q71.39 11.26 64.192 4.064 Q56.995 -3.134 56.995 -13.499 V-21.985 H63.336 L7.615 -77.706 L12.62 -82.711 L108.703 13.395 L103.721 18.376 L93.505 8.184 Q90.942 9.65 87.959 10.455 Q84.976 11.26 81.755 11.26 Z"/></g><g id="Thin-M" transform="matrix(1 0 0 1 802.565 1126)"><path d="M23.461 -0.922 Q20.164 -0.922 17.966 -3.12 Q15.769 -5.316 15.769 -8.615 V-61.845 Q15.769 -65.095 17.966 -67.316 Q20.164 -69.537 23.461 -69.537 H25.721 L51.822 -43.485 Q49.971 -39.98 49.024 -36.071 Q48.078 -32.162 48.078 -28.024 V-13.331 Q48.078 -10.081 48.714 -6.972 Q49.351 -3.865 50.562 -0.922 H23.461 Z M81.948 -61.845 Q74.664 -61.845 68.394 -58.982 Q62.125 -56.12 57.461 -51.316 L39.24 -69.537 H96.539 Q99.789 -69.537 102.01 -67.316 Q104.231 -65.095 104.231 -61.845 V-53.389 Q99.51 -57.485 93.896 -59.665 Q88.284 -61.845 81.948 -61.845 Z M84.231 -27.73 V-50.282 Q92.726 -49.129 98.442 -42.78 Q104.159 -36.432 104.231 -27.73 H84.231 Z M79.615 -50.282 V-29.162 L65.692 -43.086 Q68.308 -46.004 71.919 -47.85 Q75.529 -49.696 79.615 -50.282 Z M102.948 -5.879  85.664 -23.115 H104.231 V-13.331 Q104.231 -11.34 103.911 -9.434 Q103.591 -7.527 102.948 -5.879 Z M81.948 9.001 Q72.591 9.001 66.104 2.513 Q59.615 -3.975 59.615 -13.331 V-23.115 H65.547 L10.356 -78.307 L13.678 -81.629 L108.654 13.395 L105.38 16.669 L94.01 5.348 Q91.448 7.03 88.356 8.015 Q85.265 9.001 81.948 9.001 Z"/></g><g id="Ultralight-M" transform="matrix(1 0 0 1 506.415 1126)"><path d="M24.312 -2.292 Q21.188 -2.292 19.156 -4.324 Q17.125 -6.355 17.125 -9.48 V-60.98 Q17.125 -64.042 19.156 -66.105 Q21.188 -68.167 24.312 -68.167 H27.062 L52.5 -42.792 Q50.75 -39.417 49.875 -35.667 Q49 -31.917 49 -27.98 V-13.23 Q49 -10.355 49.5 -7.636 Q50 -4.917 50.938 -2.292 H24.312 Z M82.062 -60.98 Q74.938 -60.98 68.812 -58.167 Q62.688 -55.355 58.125 -50.667 L40.625 -68.167 H95.688 Q98.75 -68.167 100.812 -66.105 Q102.875 -64.042 102.875 -60.98 V-53.605 Q98.312 -57.167 93.125 -59.074 Q87.938 -60.98 82.062 -60.98 Z M83.625 -26.98 V-48.855 Q91.875 -47.917 97.375 -41.699 Q102.875 -35.48 102.875 -26.98 H83.625 Z M80.438 -48.855 V-28.355 L66.875 -41.917 Q69.375 -44.792 72.906 -46.574 Q76.438 -48.355 80.438 -48.855 Z M101.938 -6.917  85 -23.792 H102.875 V-13.23 Q102.875 -11.542 102.656 -9.917 Q102.438 -8.292 101.938 -6.917 Z M82.062 7.645 Q73.312 7.645 67.25 1.583 Q61.188 -4.48 61.188 -13.23 V-23.792 H66.875 L12 -78.667 L14.312 -80.98 L108.625 13.395 L106.375 15.645 L94.312 3.645 Q91.75 5.458 88.594 6.551 Q85.438 7.645 82.062 7.645 Z"/></g><g id="Bold-S" transform="matrix(1 0 0 1 2294.23 696)"><path d="M18.246 -4.36 Q13.512 -4.36 10.306 -7.615 Q7.101 -10.87 7.101 -15.505 V-54.955 Q7.101 -58.9 9.468 -61.908 Q11.835 -64.916 15.583 -65.804 H18.246 L40.979 -43.071 Q38.365 -39.372 36.836 -34.983 Q35.308 -30.595 35.308 -25.515 V-17.823 Q35.308 -14.075 36.171 -10.845 Q37.034 -7.615 38.71 -4.36 H18.246 Z M64.747 -54.955 Q59.471 -54.955 54.934 -53.204 Q50.397 -51.454 46.551 -48.742 L29.193 -66.1 H76.434 Q81.168 -66.1 84.374 -62.845 Q87.579 -59.59 87.579 -54.955 V-44.254 Q83.042 -49.383 77.248 -52.169 Q71.454 -54.955 64.747 -54.955 Z M69.333 -28.228 V-47.903 Q76.385 -46.029 81.267 -40.728 Q86.149 -35.427 87.382 -28.228 H69.333 Z M60.161 -47.903 V-35.23 L51.482 -43.81 Q53.356 -45.142 55.575 -46.227 Q57.794 -47.312 60.161 -47.903 Z M85.952 -9.538  76.336 -19.055 H87.579 V-17.823 Q87.579 -15.554 87.258 -13.508 Q86.938 -11.461 85.952 -9.538 Z M64.747 5.009 Q55.279 5.009 48.597 -1.673 Q41.916 -8.355 41.916 -17.823 V-19.055 H53.751 L6.213 -66.593 L11.884 -72.165 L86.1 2.05 L80.527 7.721 L75.251 2.445 Q72.835 3.826 70.221 4.417 Q67.607 5.009 64.747 5.009 Z"/></g><g id="Semibold-S" transform="matrix(1 0 0 1 1998.1 696)"><path d="M17.731 -5.818 Q13.855 -5.818 11.207 -8.515 Q8.559 -11.213 8.559 -14.99 V-55.47 Q8.559 -58.858 10.733 -61.415 Q12.907 -63.973 16.226 -64.474 H18.932 L40.378 -43.028 Q38.065 -39.586 36.729 -35.519 Q35.394 -31.453 35.394 -26.802 V-18.509 Q35.394 -15.018 36.171 -11.959 Q36.948 -8.901 38.453 -5.818 H17.731 Z M64.061 -55.47 Q58.57 -55.47 53.862 -53.526 Q49.154 -51.582 45.351 -48.484 L29.193 -64.642 H76.949 Q80.825 -64.642 83.473 -61.945 Q86.121 -59.247 86.121 -55.47 V-45.24 Q81.756 -50.155 76.154 -52.812 Q70.553 -55.47 64.061 -55.47 Z M68.09 -29.214 V-48.504 Q75.141 -46.844 80.023 -41.607 Q84.905 -36.37 85.924 -29.214 H68.09 Z M60.033 -48.504 V-33.858 L50.196 -43.639 Q52.242 -45.356 54.761 -46.634 Q57.279 -47.912 60.033 -48.504 Z M84.237 -9.71  72.734 -21.156 H86.121 V-18.509 Q86.121 -16.112 85.715 -13.915 Q85.309 -11.719 84.237 -9.71 Z M64.061 3.551 Q54.894 3.551 48.448 -2.895 Q42.001 -9.341 42.001 -18.509 V-21.156 H51.864 L6.427 -66.593 L11.67 -71.736 L84.985 1.579 L79.841 6.821 L74.136 1.115 Q71.848 2.41 69.342 2.981 Q66.835 3.551 64.061 3.551 Z"/></g><g id="Medium-S" transform="matrix(1 0 0 1 1701.85 696)"><path d="M17.345 -6.912 Q14.112 -6.912 11.882 -9.191 Q9.652 -11.47 9.652 -14.605 V-55.855 Q9.652 -58.825 11.682 -61.045 Q13.711 -63.265 16.708 -63.477 H19.446 L39.928 -42.996 Q37.839 -39.747 36.649 -35.921 Q35.458 -32.096 35.458 -27.767 V-19.023 Q35.458 -15.726 36.171 -12.796 Q36.884 -9.867 38.26 -6.912 H17.345 Z M63.547 -55.855 Q57.895 -55.855 53.058 -53.768 Q48.221 -51.679 44.45 -48.291 L29.193 -63.548 H77.335 Q80.568 -63.548 82.798 -61.269 Q85.028 -58.99 85.028 -55.855 V-45.98 Q80.791 -50.734 75.335 -53.294 Q69.878 -55.855 63.547 -55.855 Z M67.157 -29.954 V-48.954 Q74.208 -47.456 79.09 -42.267 Q83.972 -37.078 84.83 -29.954 H67.157 Z M59.936 -48.954 V-32.828 L49.231 -43.511 Q51.405 -45.517 54.149 -46.94 Q56.894 -48.362 59.936 -48.954 Z M82.951 -9.838  70.033 -22.732 H85.028 V-19.023 Q85.028 -16.53 84.557 -14.221 Q84.087 -11.912 82.951 -9.838 Z M63.547 2.458 Q54.604 2.458 48.335 -3.811 Q42.066 -10.081 42.066 -19.023 V-22.732 H50.449 L6.588 -66.593 L11.51 -71.415 L84.149 1.225 L79.327 6.145 L73.3 0.118 Q71.109 1.349 68.682 1.903 Q66.256 2.458 63.547 2.458 Z"/></g><g id="Regular-S" transform="matrix(1 0 0 1 1405.73 696)"><path d="M17.062 -7.714 Q14.301 -7.714 12.377 -9.686 Q10.454 -11.659 10.454 -14.321 V-56.138 Q10.454 -58.801 12.377 -60.774 Q14.301 -62.746 17.062 -62.746 H19.824 L39.598 -42.972 Q37.675 -39.865 36.59 -36.216 Q35.505 -32.567 35.505 -28.474 V-19.401 Q35.505 -16.245 36.171 -13.409 Q36.836 -10.574 38.119 -7.714 H17.062 Z M63.169 -56.138 Q57.4 -56.138 52.468 -53.944 Q47.537 -51.75 43.79 -48.15 L29.193 -62.746 H77.618 Q80.379 -62.746 82.303 -60.774 Q84.226 -58.801 84.226 -56.138 V-46.523 Q80.084 -51.158 74.733 -53.648 Q69.383 -56.138 63.169 -56.138 Z M66.473 -30.496 V-49.284 Q73.525 -47.903 78.407 -42.75 Q83.289 -37.597 84.029 -30.496 H66.473 Z M59.865 -49.284 V-32.074 L48.524 -43.416 Q50.792 -45.635 53.701 -47.164 Q56.611 -48.692 59.865 -49.284 Z M82.007 -9.933  68.051 -23.888 H84.226 V-19.401 Q84.226 -16.836 83.708 -14.445 Q83.19 -12.053 82.007 -9.933 Z M63.169 1.656 Q54.392 1.656 48.252 -4.484 Q42.113 -10.623 42.113 -19.401 V-23.888 H49.411 L6.707 -66.593 L11.391 -71.179 L83.535 0.965 L78.949 5.65 L72.687 -0.613 Q70.566 0.571 68.199 1.113 Q65.832 1.656 63.169 1.656 Z"/></g><g id="Light-S" transform="matrix(1 0 0 1 1109.75 696)"><path d="M18.182 -9.516 Q15.647 -9.516 13.943 -11.27 Q12.237 -13.025 12.237 -15.46 V-55 Q12.237 -57.417 13.943 -59.18 Q15.647 -60.944 18.182 -60.944 H21.588 L40.49 -42.062 Q38.699 -39.126 37.709 -35.685 Q36.719 -32.245 36.719 -28.417 V-19.268 Q36.719 -16.605 37.204 -14.282 Q37.69 -11.958 38.612 -9.516 H18.182 Z M63.321 -55 Q57.76 -55 53.019 -52.872 Q48.277 -50.745 44.662 -47.297 L31.014 -60.944 H76.498 Q79.013 -60.944 80.729 -59.18 Q82.443 -57.417 82.443 -55 V-46.807 Q78.509 -50.741 73.718 -52.87 Q68.927 -55 63.321 -55 Z M65.676 -29.51 V-47.406 Q72.406 -46.31 77.003 -41.328 Q81.6 -36.345 82.245 -29.51 H65.676 Z M60.946 -47.406 V-31.012 L50.079 -41.879 Q52.195 -44.041 55 -45.485 Q57.806 -46.928 60.946 -47.406 Z M80.679 -11.299  67.178 -24.78 H82.443 V-19.268 Q82.443 -17.102 82.058 -15.08 Q81.672 -13.058 80.679 -11.299 Z M63.321 -0.127 Q55.34 -0.127 49.76 -5.707 Q44.18 -11.287 44.18 -19.268 V-24.78 H51.156 L8.868 -67.067 L12.226 -70.326 L83.498 0.965 L80.258 4.304 L73.085 -2.85 Q70.965 -1.496 68.512 -0.812 Q66.06 -0.127 63.321 -0.127 Z"/></g><g id="Thin-S" transform="matrix(1 0 0 1 814.015 696)"><path d="M19.3 -11.317 Q16.994 -11.317 15.507 -12.854 Q14.02 -14.39 14.02 -16.598 V-53.862 Q14.02 -56.032 15.507 -57.587 Q16.994 -59.143 19.3 -59.143 H23.351 L41.381 -41.151 Q39.723 -38.386 38.828 -35.154 Q37.933 -31.922 37.933 -28.361 V-19.135 Q37.933 -16.966 38.238 -15.154 Q38.544 -13.343 39.105 -11.317 H19.3 Z M63.473 -53.862 Q58.121 -53.862 53.568 -51.801 Q49.017 -49.74 45.534 -46.443 L32.834 -59.143 H75.38 Q77.648 -59.143 79.154 -57.587 Q80.66 -56.032 80.66 -53.862 V-47.092 Q76.935 -50.324 72.703 -52.093 Q68.472 -53.862 63.473 -53.862 Z M64.88 -28.523 V-45.528 Q71.287 -44.717 75.6 -39.905 Q79.913 -35.094 80.463 -28.523 H64.88 Z M62.027 -45.528 V-29.95 L51.634 -40.344 Q53.599 -42.448 56.3 -43.806 Q59 -45.164 62.027 -45.528 Z M79.352 -12.664  66.307 -25.671 H80.66 V-19.135 Q80.66 -17.367 80.408 -15.715 Q80.155 -14.063 79.352 -12.664 Z M63.473 -1.91 Q56.288 -1.91 51.268 -6.931 Q46.247 -11.951 46.247 -19.135 V-25.671 H52.9 L11.031 -67.542 L13.06 -69.472 L83.459 0.965 L81.567 2.957 L73.484 -5.088 Q71.363 -3.563 68.825 -2.737 Q66.288 -1.91 63.473 -1.91 Z"/></g><g id="Ultralight-S" transform="matrix(1 0 0 1 517.792 696)"><path d="M19.972 -12.398 Q17.802 -12.398 16.446 -13.804 Q15.09 -15.209 15.09 -17.28 V-53.18 Q15.09 -55.202 16.446 -56.632 Q17.802 -58.062 19.972 -58.062 H24.41 L41.916 -40.605 Q40.338 -37.942 39.499 -34.835 Q38.661 -31.729 38.661 -28.326 V-19.055 Q38.661 -17.182 38.858 -15.678 Q39.056 -14.174 39.401 -12.398 H19.972 Z M63.564 -53.18 Q58.337 -53.18 53.899 -51.158 Q49.46 -49.136 46.058 -45.931 L33.927 -58.062 H74.708 Q76.829 -58.062 78.21 -56.632 Q79.59 -55.202 79.59 -53.18 V-47.262 Q75.991 -50.073 72.095 -51.626 Q68.199 -53.18 63.564 -53.18 Z M64.402 -27.932 V-44.402 Q70.615 -43.761 74.758 -39.052 Q78.9 -34.342 79.393 -27.932 H64.402 Z M62.676 -44.402 V-29.312 L52.567 -39.422 Q54.441 -41.493 57.079 -42.799 Q59.717 -44.106 62.676 -44.402 Z M78.555 -13.483  65.783 -26.206 H79.59 V-19.055 Q79.59 -17.527 79.418 -16.097 Q79.245 -14.667 78.555 -13.483 Z M63.564 -2.98 Q56.857 -2.98 52.173 -7.664 Q47.488 -12.349 47.488 -19.055 V-26.206 H53.948 L12.328 -67.826 L13.561 -68.96 L83.437 0.965 L82.352 2.149 L73.722 -6.431 Q71.602 -4.804 69.013 -3.892 Q66.424 -2.98 63.564 -2.98 Z"/></g></g></svg>