<svg xmlns="http://www.w3.org/2000/svg" height="20" viewBox="0 -960 960 960" width="20"><path d="M120-176.5v-190q0-24.5 16-40.5t40.5-16H387q24.5 0 40.5 16t16 40.5v190q0 22.8-16.85 39.65Q409.8-120 387-120H176.5q-22.8 0-39.65-16.85Q120-153.7 120-176.5Zm396.5 0v-190q0-22.8 16.85-39.65Q550.2-423 573-423h210.5q22.8 0 39.65 16.85Q840-389.3 840-366.5v190q0 22.8-16.85 39.65Q806.3-120 783.5-120H573q-22.8 0-39.65-16.85-16.85-16.85-16.85-39.65ZM120-552.97v-230.24Q120-806 136.85-823t39.65-17h607q22.8 0 39.65 16.84Q840-806.32 840-783.53v230.24q0 22.79-16.85 39.79t-39.65 17h-607q-22.8 0-39.65-16.84Q120-530.18 120-552.97ZM233-233h97.5v-77H233v77Zm396.5 0H727v-77h-97.5v77ZM282-271.5Zm396.5 0Z"/></svg>