<svg xmlns="http://www.w3.org/2000/svg" height="40" viewBox="0 -960 960 960" width="40"><path d="M394.08-392.67q16.23 0 28.07-11.58Q434-415.82 434-432.67V-688q0-16.19-11.68-27.76t-28.21-11.57q-16.53 0-28.49 11.57-11.95 11.57-11.95 27.76v255.33q0 16.85 11.88 28.42 11.88 11.58 28.53 11.58Zm173.04 0q16.52 0 27.87-11.58 11.34-11.57 11.34-28.42V-688q0-16.19-11.47-27.76-11.48-11.57-27.71-11.57-16.24 0-28.69 11.57Q526-704.19 526-688v255.33q0 16.85 12.08 28.42 12.09 11.58 29.04 11.58ZM212-211.33l-70.67 70.66q-25.33 25.34-58 12.47-32.66-12.86-32.66-49.8v-626.33q0-44.1 31.08-75.39Q112.84-911 156.67-911h646.66q44.1 0 75.39 31.28Q910-848.43 910-804.33v487q0 43.82-31.28 74.91-31.29 31.09-75.39 31.09H212Zm-29.33-106h620.66v-487H156.67V-287l26-30.33Zm-26 0v-487 487Z"/></svg>