<svg xmlns="http://www.w3.org/2000/svg" height="24" viewBox="0 -960 960 960" width="24"><path d="M215-476.5q0 52.5 20.25 99.75t57.25 84.25L344-241v-116q0-5 3.75-8.75t9.25-3.75q5 0 8.75 3.75t3.75 8.75v130.5q0 12.5-8.25 20.75T341-197.5H210.5q-5.5 0-9.25-3.75t-3.75-9.25q0-5 3.75-8.75t9.25-3.75h115l-51-51.5Q234-315 211.75-367T189.5-476.5q0-44.5 13.5-87.25T242-644L126-760q-3.5-3.5-4-8.5t4-9.5q4.5-4 9-4t9 4l633.5 633.5q3.5 4 4 9t-4 9q-4.5 4.5-9 4.5t-9-4.5L644-242q-11 7.5-21.75 14t-22.75 12.5q-5 2.5-10.5.5t-7.5-6.5q-2-4.5 0-10.25t7-7.75q12-5 23.75-11.5T635-264.5v13.5L260-626q-23 33.5-34 71.75t-11 77.75Zm502.5 162-18-18q23-33.5 34.5-72t11.5-79.5q0-52-20.5-99.25t-57.5-84.25L616-719v115.5q0 5.5-3.75 9.25t-8.75 3.75q-5.5 0-9.25-3.75t-3.75-9.25V-734q0-12 8.25-20.25t20.75-8.25H750q5 0 8.75 3.75t3.75 8.75q0 5.5-3.75 9.25T750-737H634.5l51 51.5q40.5 40.5 63 92.5T771-484q0 46-14 88.75t-39.5 80.75Zm-386-386-17-17q11-8 22.75-15T361.5-745q4.5-2 9.75-.25t7.25 6.25q2 5-.75 10.5t-7.25 7q-10 4.5-20 10t-19 11Z"/></svg>