<svg xmlns="http://www.w3.org/2000/svg" height="24" viewBox="0 -960 960 960" width="24"><path d="M57-163v-121q38.5 0 59.75-21T198-326q61.5 0 81.75 21T338-284q41 0 61.75-21t80.75-21q60 0 82.25 21T623-284q41 0 61-21t80-21q60 0 80.25 21T905-284v121q-59 0-81-21t-60-21q-40 0-60.5 21T623-163q-60 0-81.25-21t-61.25-21q-39 0-60.75 21T338-163q-60 0-80.5-21T198-205q-41 0-61.5 21T57-163Zm0-196v-121q38.5 0 59.75-21T198-522q60.5 0 81.25 21T338-480q41 0 61.75-21t80.75-21q60 0 82 21t59.5 21q41 0 61.5-21t80.5-21q60 0 80.75 21T905-480v121q-59 0-81-21t-60-21q-40 0-60.5 21T623-359q-60 0-81.25-21t-61.25-21q-39 0-59.25 21T341-359q-60 0-82.5-21T198-401q-40 0-61 21t-80 21Zm0-196v-121q38.5 0 59.75-21T198-718q60.5 0 81.25 21T338-676q41 0 61.75-21t80.75-21q60 0 82 21t59.5 21q41 0 61.5-21t80.5-21q60 0 80.75 21T905-676v121q-59 0-81-21t-60-21q-40 0-60.5 21T623-555q-60 0-81.25-21t-61.25-21q-39 0-59.25 21T341-555q-60 0-82.5-21T198-597q-40 0-61 21t-80 21Z"/></svg>