<svg xmlns="http://www.w3.org/2000/svg" version="1.1" width="3300" height="2000"><g id="Notes"><style>
    text {
      font-family: monospace;
      text-anchor: middle;
    }
    text.emphasis {
      font-weight:bold;
    }
    text.lanchor {
      text-anchor: start;
    }
  </style><rect height="2200" id="artboard" fill="white" width="3300" x="0" y="0"/><line id="" style="fill:none;stroke:black;stroke-width:0.5;" x1="263" x2="3036" y1="292" y2="292"/><text class="lanchor emphasis" transform="matrix(1 0 0 1 263 322)">Weight/Scale Variations</text><text transform="matrix(1 0 0 1 559.711 322)">Ultralight</text><text transform="matrix(1 0 0 1 856.422 322)">Thin</text><text transform="matrix(1 0 0 1 1153.13 322)">Light</text><text transform="matrix(1 0 0 1 1449.84 322)">Regular</text><text transform="matrix(1 0 0 1 1746.56 322)">Medium</text><text transform="matrix(1 0 0 1 2043.27 322)">Semibold</text><text transform="matrix(1 0 0 1 2339.98 322)">Bold</text><text transform="matrix(1 0 0 1 2636.69 322)">Heavy</text><text transform="matrix(1 0 0 1 2933.4 322)">Black</text><text id="template-version" style="text-anchor: end;" transform="matrix(1 0 0 1 3036 1933)">Template v.1.0</text><text class="lanchor" transform="matrix(1 0 0 1 263 726)">Small</text><text class="lanchor" transform="matrix(1 0 0 1 263 1156)">Medium</text><text class="lanchor" transform="matrix(1 0 0 1 263 1586)">Large</text></g><g id="Guides"><g id="H-reference" style="fill:#27AAE1;stroke:none;" transform="matrix(1 0 0 1 339 696)"><path d="M 54.9316 0 L 57.666 0 L 30.5664 -70.459 L 28.0762 -70.459 L 0.976562 0 L 3.66211 0 L 12.9395 -24.4629 L 45.7031 -24.4629 Z M 29.1992 -67.0898 L 29.4434 -67.0898 L 44.8242 -26.709 L 13.8184 -26.709 Z"/></g><line id="Baseline-S" style="fill:none;stroke:#27AAE1;opacity:1;stroke-width:0.577;" x1="263" x2="3036" y1="696" y2="696"/><line id="Capline-S" style="fill:none;stroke:#27AAE1;opacity:1;stroke-width:0.577;" x1="263" x2="3036" y1="625.541" y2="625.541"/><g id="H-reference" style="fill:#27AAE1;stroke:none;" transform="matrix(1 0 0 1 339 1126)"><path d="M 54.9316 0 L 57.666 0 L 30.5664 -70.459 L 28.0762 -70.459 L 0.976562 0 L 3.66211 0 L 12.9395 -24.4629 L 45.7031 -24.4629 Z M 29.1992 -67.0898 L 29.4434 -67.0898 L 44.8242 -26.709 L 13.8184 -26.709 Z"/></g><line id="Baseline-M" style="fill:none;stroke:#27AAE1;opacity:1;stroke-width:0.577;" x1="263" x2="3036" y1="1126" y2="1126"/><line id="Capline-M" style="fill:none;stroke:#27AAE1;opacity:1;stroke-width:0.577;" x1="263" x2="3036" y1="1055.54" y2="1055.54"/><g id="H-reference" style="fill:#27AAE1;stroke:none;" transform="matrix(1 0 0 1 339 1556)"><path d="M 54.9316 0 L 57.666 0 L 30.5664 -70.459 L 28.0762 -70.459 L 0.976562 0 L 3.66211 0 L 12.9395 -24.4629 L 45.7031 -24.4629 Z M 29.1992 -67.0898 L 29.4434 -67.0898 L 44.8242 -26.709 L 13.8184 -26.709 Z"/></g><line id="Baseline-L" style="fill:none;stroke:#27AAE1;opacity:1;stroke-width:0.577;" x1="263" x2="3036" y1="1556" y2="1556"/><line id="Capline-L" style="fill:none;stroke:#27AAE1;opacity:1;stroke-width:0.577;" x1="263" x2="3036" y1="1485.54" y2="1485.54"/><rect height="119.336" id="left-margin" style="fill:darkred;stroke:none;opacity:0.4;" width="12.4512" x="1394.06" y="1030.79"/><rect height="119.336" id="right-margin" style="fill:darkgreen;stroke:none;opacity:0.4;" width="12.4512" x="1502.5112" y="1030.79"/><rect x="1406.5112" y="1045" width="96" height="96" fill="none" stroke="blue" stroke-dasharray="5"/><rect x="1394.06" y="1030.79" width="120.9024" height="119.336" fill="none" stroke="blue"/></g><g id="Symbols"><g id="Bold-L" transform="matrix(1 0 0 1 2266 1556)"><path d="M106.264 -37.004  25.316 -69.657 Q22.66 -70.45 21.57 -72.919 Q20.479 -75.388 21.399 -77.94 Q22.322 -80.661 24.812 -81.931 Q27.3 -83.202 29.992 -82.154 L123.921 -44.824 Q133.757 -40.793 137.546 -34.928 Q141.336 -29.062 141.336 -19.992 V6.131 Q141.336 12.261 136.977 16.573 Q132.617 20.885 126.42 20.885 H28.38 Q22.249 20.885 17.937 16.572 Q13.626 12.26 13.626 6.127 V-22.096 Q13.626 -28.209 17.937 -32.606 Q22.249 -37.004 28.38 -37.004 H106.264 Z M64.218 -3.302 H112.351 Q114.326 -3.302 115.657 -4.633 Q116.987 -5.963 116.987 -7.938 Q116.987 -9.914 115.657 -11.244 Q114.326 -12.574 112.351 -12.574 H64.218 Q62.242 -12.574 60.953 -11.226 Q59.663 -9.878 59.663 -7.938 Q59.663 -5.999 60.953 -4.651 Q62.242 -3.302 64.218 -3.302 Z M42.497 -3.302 Q44.424 -3.302 45.795 -4.575 Q47.166 -5.845 47.166 -7.898 Q47.166 -9.914 45.811 -11.244 Q44.455 -12.574 42.506 -12.574 Q40.554 -12.574 39.224 -11.244 Q37.894 -9.914 37.894 -7.898 Q37.894 -5.882 39.232 -4.592 Q40.572 -3.302 42.497 -3.302 Z"/></g><g id="Semibold-L" transform="matrix(1 0 0 1 1970.27 1556)"><path d="M112.643 -34.55  26.858 -68.955 Q24.544 -69.737 23.563 -71.897 Q22.581 -74.056 23.423 -76.299 Q24.265 -78.709 26.448 -79.799 Q28.632 -80.888 31.044 -79.98 L124.622 -42.791 Q132.425 -39.601 135.444 -34.814 Q138.462 -30.026 138.462 -22.375 V6.131 Q138.462 11.207 134.787 14.854 Q131.112 18.502 125.999 18.502 H28.801 Q23.725 18.502 20.077 14.853 Q16.43 11.204 16.43 6.127 V-22.096 Q16.43 -27.126 20.077 -30.838 Q23.725 -34.55 28.801 -34.55 H112.643 Z M64.656 -3.302 H111.912 Q113.905 -3.302 115.236 -4.633 Q116.566 -5.963 116.566 -7.938 Q116.566 -9.914 115.236 -11.244 Q113.905 -12.574 111.912 -12.574 H64.656 Q62.663 -12.574 61.373 -11.226 Q60.083 -9.878 60.083 -7.938 Q60.083 -5.999 61.373 -4.651 Q62.663 -3.302 64.656 -3.302 Z M42.918 -3.302 Q44.845 -3.302 46.216 -4.575 Q47.586 -5.845 47.586 -7.898 Q47.586 -9.914 46.232 -11.244 Q44.876 -12.574 42.926 -12.574 Q40.975 -12.574 39.645 -11.244 Q38.315 -9.914 38.315 -7.898 Q38.315 -5.882 39.653 -4.592 Q40.991 -3.302 42.918 -3.302 Z"/></g><g id="Medium-L" transform="matrix(1 0 0 1 1674.31 1556)"><path d="M117.429 -32.71  28.016 -68.43 Q25.958 -69.204 25.058 -71.129 Q24.16 -73.056 24.941 -75.068 Q25.723 -77.247 27.677 -78.2 Q29.631 -79.153 31.832 -78.35 L125.148 -41.266 Q131.425 -38.708 133.865 -34.729 Q136.305 -30.749 136.305 -24.163 V6.131 Q136.305 10.415 133.144 13.564 Q129.984 16.713 125.683 16.713 H29.117 Q24.832 16.713 21.683 13.563 Q18.532 10.413 18.532 6.127 V-22.096 Q18.532 -26.313 21.683 -29.51 Q24.832 -32.71 29.117 -32.71 H117.429 Z M64.985 -3.302 H111.583 Q113.589 -3.302 114.92 -4.633 Q116.25 -5.963 116.25 -7.938 Q116.25 -9.914 114.92 -11.244 Q113.589 -12.574 111.583 -12.574 H64.985 Q62.979 -12.574 61.689 -11.226 Q60.399 -9.878 60.399 -7.938 Q60.399 -5.999 61.689 -4.651 Q62.979 -3.302 64.985 -3.302 Z M43.234 -3.302 Q45.161 -3.302 46.532 -4.575 Q47.903 -5.845 47.903 -7.898 Q47.903 -9.914 46.546 -11.244 Q45.192 -12.574 43.241 -12.574 Q41.291 -12.574 39.961 -11.244 Q38.631 -9.914 38.631 -7.898 Q38.631 -5.882 39.969 -4.592 Q41.307 -3.302 43.234 -3.302 Z"/></g><g id="Regular-L" transform="matrix(1 0 0 1 1378.56 1556)"><path d="M120.938 -31.36  28.864 -68.044 Q26.993 -68.812 26.155 -70.568 Q25.316 -72.324 26.053 -74.165 Q26.79 -76.173 28.577 -77.028 Q30.363 -77.881 32.411 -77.155 L125.533 -40.148 Q130.693 -38.052 132.709 -34.666 Q134.724 -31.279 134.724 -25.474 V6.131 Q134.724 9.835 131.94 12.618 Q129.156 15.403 125.453 15.403 H29.348 Q25.644 15.403 22.86 12.618 Q20.076 9.833 20.076 6.127 V-22.096 Q20.076 -25.716 22.86 -28.538 Q25.644 -31.36 29.348 -31.36 H120.938 Z M65.226 -3.302 H111.343 Q113.359 -3.302 114.689 -4.633 Q116.019 -5.963 116.019 -7.938 Q116.019 -9.914 114.689 -11.244 Q113.359 -12.574 111.343 -12.574 H65.226 Q63.21 -12.574 61.92 -11.226 Q60.63 -9.878 60.63 -7.938 Q60.63 -5.999 61.92 -4.651 Q63.21 -3.302 65.226 -3.302 Z M43.465 -3.302 Q45.392 -3.302 46.763 -4.575 Q48.133 -5.845 48.133 -7.898 Q48.133 -9.914 46.779 -11.244 Q45.423 -12.574 43.473 -12.574 Q41.522 -12.574 40.192 -11.244 Q38.861 -9.914 38.861 -7.898 Q38.861 -5.882 40.2 -4.592 Q41.54 -3.302 43.465 -3.302 Z"/></g><g id="Light-L" transform="matrix(1 0 0 1 1082.77 1556)"><path d="M120.193 -29.281  31.5 -63.889 Q30.049 -64.408 29.467 -65.708 Q28.883 -67.008 29.372 -68.367 Q29.86 -69.847 31.213 -70.561 Q32.566 -71.276 34.179 -70.736 L122.339 -36.365 Q127.654 -34.237 129.716 -30.634 Q131.778 -27.03 131.778 -21.691 V3.464 Q131.778 7.155 129.081 9.836 Q126.383 12.518 122.739 12.518 H32.061 Q28.417 12.518 25.719 9.836 Q23.022 7.153 23.022 3.46 V-20.237 Q23.022 -23.81 25.719 -26.547 Q28.417 -29.281 32.076 -29.281 H120.193 Z M65.753 -4.791 H110.879 Q112.454 -4.791 113.462 -5.799 Q114.468 -6.806 114.468 -8.329 Q114.468 -9.852 113.462 -10.857 Q112.454 -11.862 110.879 -11.862 H65.753 Q64.176 -11.862 63.225 -10.828 Q62.273 -9.796 62.273 -8.322 Q62.273 -6.85 63.225 -5.82 Q64.176 -4.791 65.753 -4.791 Z M43.936 -3.923 Q45.795 -3.923 47.088 -5.123 Q48.381 -6.323 48.381 -8.306 Q48.381 -10.256 47.098 -11.492 Q45.816 -12.729 43.933 -12.729 Q42.049 -12.729 40.812 -11.486 Q39.574 -10.244 39.574 -8.296 Q39.574 -6.347 40.825 -5.136 Q42.077 -3.923 43.936 -3.923 Z"/></g><g id="Thin-L" transform="matrix(1 0 0 1 787.282 1556)"><path d="M119.449 -27.205  34.135 -59.734 Q33.106 -60.006 32.777 -60.848 Q32.448 -61.691 32.69 -62.572 Q32.93 -63.521 33.85 -64.095 Q34.767 -64.671 35.946 -64.318 L119.144 -32.582 Q124.616 -30.423 126.723 -26.603 Q128.832 -22.783 128.832 -17.909 V0.796 Q128.832 4.476 126.22 7.056 Q123.609 9.635 120.025 9.635 H34.775 Q31.191 9.635 28.58 7.055 Q25.968 4.475 25.968 0.793 V-18.376 Q25.968 -21.906 28.58 -24.555 Q31.191 -27.205 34.806 -27.205 H119.449 Z M66.28 -6.279 H110.413 Q111.551 -6.279 112.235 -6.964 Q112.919 -7.651 112.919 -8.72 Q112.919 -9.79 112.235 -10.468 Q111.551 -11.147 110.413 -11.147 H66.28 Q65.142 -11.147 64.529 -10.431 Q63.916 -9.714 63.916 -8.708 Q63.916 -7.7 64.529 -6.99 Q65.142 -6.279 66.28 -6.279 Z M44.407 -4.543 Q46.198 -4.543 47.414 -5.671 Q48.63 -6.798 48.63 -8.716 Q48.63 -10.596 47.419 -11.741 Q46.208 -12.884 44.392 -12.884 Q42.576 -12.884 41.432 -11.729 Q40.288 -10.575 40.288 -8.693 Q40.288 -6.813 41.451 -5.678 Q42.615 -4.543 44.407 -4.543 Z"/></g><g id="Ultralight-L" transform="matrix(1 0 0 1 491.205 1556)"><path d="M119.002 -25.958  35.717 -57.241 Q34.94 -57.365 34.764 -57.932 Q34.588 -58.5 34.68 -59.093 Q34.772 -59.725 35.43 -60.217 Q36.088 -60.707 37.007 -60.466 L117.229 -30.312 Q122.792 -28.135 124.928 -24.184 Q127.065 -20.234 127.065 -15.638 V-0.803 Q127.065 2.869 124.504 5.387 Q121.944 7.904 118.396 7.904 H36.404 Q32.856 7.904 30.296 5.386 Q27.735 2.867 27.735 -0.806 V-17.259 Q27.735 -20.761 30.296 -23.36 Q32.856 -25.958 36.443 -25.958 H119.002 Z M66.596 -7.172 H110.134 Q111.008 -7.172 111.498 -7.664 Q111.988 -8.158 111.988 -8.954 Q111.988 -9.752 111.498 -10.236 Q111.008 -10.72 110.134 -10.72 H66.596 Q65.721 -10.72 65.313 -10.193 Q64.903 -9.665 64.903 -8.938 Q64.903 -8.211 65.313 -7.692 Q65.721 -7.172 66.596 -7.172 Z M44.689 -4.915 Q46.44 -4.915 47.609 -6 Q48.778 -7.084 48.778 -8.961 Q48.778 -10.801 47.611 -11.889 Q46.443 -12.977 44.668 -12.977 Q42.892 -12.977 41.804 -11.875 Q40.716 -10.772 40.716 -8.932 Q40.716 -7.092 41.827 -6.003 Q42.938 -4.915 44.689 -4.915 Z"/></g><g id="Bold-M" transform="matrix(1 0 0 1 2281.8 1126)"><path d="M72.625 -39.917  19.438 -59.167 Q16.837 -60.136 15.7 -62.559 Q14.562 -64.98 15.526 -67.589 Q16.491 -70.197 18.901 -71.339 Q21.312 -72.48 23.938 -71.542 L96.125 -45.042 Q103.688 -42.167 107.156 -37.042 Q110.625 -31.917 110.625 -25.542 V-6.042 Q110.625 0.325 106.246 4.704 Q101.868 9.083 95.5 9.083 H24.5 Q18.133 9.083 13.754 4.703 Q9.375 0.324 9.375 -6.045 V-24.799 Q9.375 -31.167 13.754 -35.542 Q18.133 -39.917 24.5 -39.917 H72.625 Z M52.625 -10.73 H86.125 Q88.062 -10.73 89.438 -12.105 Q90.812 -13.48 90.812 -15.417 Q90.812 -17.355 89.438 -18.73 Q88.062 -20.105 86.125 -20.105 H52.625 Q50.688 -20.105 49.312 -18.73 Q47.938 -17.355 47.938 -15.417 Q47.938 -13.48 49.312 -12.105 Q50.688 -10.73 52.625 -10.73 Z M33.875 -10.73 Q35.812 -10.73 37.188 -12.06 Q38.562 -13.389 38.562 -15.355 Q38.562 -17.292 37.188 -18.699 Q35.812 -20.105 33.875 -20.105 Q31.938 -20.105 30.562 -18.699 Q29.188 -17.292 29.188 -15.355 Q29.188 -13.417 30.562 -12.074 Q31.938 -10.73 33.875 -10.73 Z"/></g><g id="Semibold-M" transform="matrix(1 0 0 1 1985.97 1126)"><path d="M79.201 -37.417  21.067 -58.461 Q18.786 -59.312 17.789 -61.44 Q16.79 -63.567 17.639 -65.855 Q18.486 -68.141 20.606 -69.142 Q22.725 -70.144 25.025 -69.315 L96.886 -42.977 Q102.275 -40.917 104.983 -36.934 Q107.69 -32.95 107.69 -28.042 V-6.042 Q107.69 -0.762 104.017 2.91 Q100.345 6.583 95.065 6.583 H24.935 Q19.655 6.583 15.982 2.91 Q12.31 -0.764 12.31 -6.045 V-24.799 Q12.31 -30.08 15.982 -33.749 Q19.655 -37.417 24.935 -37.417 H79.201 Z M53.06 -10.73 H85.69 Q87.627 -10.73 89.002 -12.105 Q90.377 -13.48 90.377 -15.417 Q90.377 -17.355 89.002 -18.73 Q87.627 -20.105 85.69 -20.105 H53.06 Q51.123 -20.105 49.748 -18.73 Q48.373 -17.355 48.373 -15.417 Q48.373 -13.48 49.748 -12.105 Q51.123 -10.73 53.06 -10.73 Z M34.31 -10.73 Q36.248 -10.73 37.623 -12.06 Q38.998 -13.389 38.998 -15.355 Q38.998 -17.292 37.623 -18.699 Q36.248 -20.105 34.31 -20.105 Q32.373 -20.105 30.997 -18.699 Q29.622 -17.292 29.622 -15.355 Q29.622 -13.417 30.997 -12.074 Q32.373 -10.73 34.31 -10.73 Z"/></g><g id="Medium-M" transform="matrix(1 0 0 1 1689.91 1126)"><path d="M84.132 -35.542  22.291 -57.931 Q20.249 -58.694 19.355 -60.6 Q18.462 -62.507 19.223 -64.554 Q19.983 -66.6 21.884 -67.495 Q23.785 -68.39 25.84 -67.642 L97.456 -41.429 Q101.215 -39.98 103.353 -36.852 Q105.489 -33.725 105.489 -29.917 V-6.042 Q105.489 -1.577 102.346 1.565 Q99.204 4.708 94.739 4.708 H25.261 Q20.796 4.708 17.654 1.564 Q14.511 -1.579 14.511 -6.045 V-24.799 Q14.511 -29.265 17.654 -32.404 Q20.796 -35.542 25.261 -35.542 H84.132 Z M53.386 -10.73 H85.364 Q87.301 -10.73 88.676 -12.105 Q90.051 -13.48 90.051 -15.417 Q90.051 -17.355 88.676 -18.73 Q87.301 -20.105 85.364 -20.105 H53.386 Q51.449 -20.105 50.074 -18.73 Q48.699 -17.355 48.699 -15.417 Q48.699 -13.48 50.074 -12.105 Q51.449 -10.73 53.386 -10.73 Z M34.636 -10.73 Q36.574 -10.73 37.949 -12.06 Q39.324 -13.389 39.324 -15.355 Q39.324 -17.292 37.949 -18.699 Q36.574 -20.105 34.636 -20.105 Q32.699 -20.105 31.324 -18.699 Q29.949 -17.292 29.949 -15.355 Q29.949 -13.417 31.324 -12.074 Q32.699 -10.73 34.636 -10.73 Z"/></g><g id="Regular-M" transform="matrix(1 0 0 1 1394.06 1126)"><path d="M87.75 -34.167  23.188 -57.542 Q21.321 -58.24 20.504 -59.985 Q19.688 -61.73 20.384 -63.6 Q21.08 -65.469 22.821 -66.287 Q24.562 -67.105 26.438 -66.417 L97.875 -40.292 Q100.438 -39.292 102.156 -36.792 Q103.875 -34.292 103.875 -31.292 V-6.042 Q103.875 -2.175 101.121 0.579 Q98.368 3.333 94.5 3.333 H25.5 Q21.633 3.333 18.879 0.578 Q16.125 -2.176 16.125 -6.045 V-24.799 Q16.125 -28.667 18.879 -31.417 Q21.633 -34.167 25.5 -34.167 H87.75 Z M53.625 -10.73 H85.125 Q87.062 -10.73 88.438 -12.105 Q89.812 -13.48 89.812 -15.417 Q89.812 -17.355 88.438 -18.73 Q87.062 -20.105 85.125 -20.105 H53.625 Q51.688 -20.105 50.312 -18.73 Q48.938 -17.355 48.938 -15.417 Q48.938 -13.48 50.312 -12.105 Q51.688 -10.73 53.625 -10.73 Z M34.875 -10.73 Q36.812 -10.73 38.188 -12.06 Q39.562 -13.389 39.562 -15.355 Q39.562 -17.292 38.188 -18.699 Q36.812 -20.105 34.875 -20.105 Q32.938 -20.105 31.562 -18.699 Q30.188 -17.292 30.188 -15.355 Q30.188 -13.417 31.562 -12.074 Q32.938 -10.73 34.875 -10.73 Z"/></g><g id="Light-M" transform="matrix(1 0 0 1 1098.18 1126)"><path d="M88.76 -31.884  25.135 -54.946 Q23.739 -55.452 23.144 -56.717 Q22.549 -57.982 23.052 -59.346 Q23.556 -60.709 24.841 -61.346 Q26.125 -61.985 27.519 -61.489 L95.11 -36.831 Q98.226 -35.614 99.909 -32.922 Q101.591 -30.23 101.591 -27.157 V-7.436 Q101.591 -3.856 99.101 -1.38 Q96.612 1.096 93.069 1.096 H26.931 Q23.387 1.096 20.899 -1.38 Q18.409 -3.857 18.409 -7.439 V-23.357 Q18.409 -26.912 20.899 -29.397 Q23.387 -31.884 26.942 -31.884 H88.76 Z M53.024 -11.884 H85.101 Q86.555 -11.884 87.582 -12.912 Q88.61 -13.94 88.61 -15.384 Q88.61 -16.826 87.582 -17.852 Q86.555 -18.879 85.101 -18.879 H53.024 Q51.57 -18.879 50.554 -17.845 Q49.539 -16.812 49.539 -15.38 Q49.539 -13.947 50.554 -12.915 Q51.57 -11.884 53.024 -11.884 Z M34.903 -11.211 Q36.644 -11.211 37.862 -12.387 Q39.081 -13.565 39.081 -15.334 Q39.081 -17.076 37.86 -18.314 Q36.638 -19.552 34.896 -19.552 Q33.154 -19.552 31.948 -18.311 Q30.74 -17.07 30.74 -15.327 Q30.74 -13.586 31.95 -12.399 Q33.16 -11.211 34.903 -11.211 Z"/></g><g id="Thin-M" transform="matrix(1 0 0 1 802.565 1126)"><path d="M89.769 -29.6  27.081 -52.35 Q26.155 -52.665 25.782 -53.45 Q25.409 -54.236 25.72 -55.092 Q26.032 -55.95 26.86 -56.407 Q27.688 -56.865 28.601 -56.561 L92.346 -33.37 Q96.015 -31.936 97.661 -29.052 Q99.308 -26.167 99.308 -23.024 V-8.831 Q99.308 -5.537 97.082 -3.339 Q94.858 -1.139 91.639 -1.139 H28.361 Q25.142 -1.139 22.918 -3.339 Q20.692 -5.539 20.692 -8.834 V-21.915 Q20.692 -25.157 22.918 -27.379 Q25.142 -29.6 28.385 -29.6 H89.769 Z M52.422 -13.037 H85.078 Q86.047 -13.037 86.729 -13.719 Q87.409 -14.4 87.409 -15.349 Q87.409 -16.297 86.729 -16.975 Q86.047 -17.652 85.078 -17.652 H52.422 Q51.453 -17.652 50.796 -16.961 Q50.14 -16.27 50.14 -15.342 Q50.14 -14.415 50.796 -13.726 Q51.453 -13.037 52.422 -13.037 Z M34.93 -11.691 Q36.476 -11.691 37.539 -12.715 Q38.601 -13.74 38.601 -15.314 Q38.601 -16.86 37.531 -17.93 Q36.462 -18.999 34.916 -18.999 Q33.37 -18.999 32.331 -17.922 Q31.294 -16.846 31.294 -15.3 Q31.294 -13.754 32.339 -12.722 Q33.384 -11.691 34.93 -11.691 Z"/></g><g id="Ultralight-M" transform="matrix(1 0 0 1 506.415 1126)"><path d="M90.375 -28.23  28.25 -50.792 Q27.605 -50.991 27.365 -51.49 Q27.125 -51.987 27.321 -52.541 Q27.517 -53.094 28.071 -53.444 Q28.625 -53.792 29.25 -53.605 L90.688 -31.292 Q94.688 -29.73 96.312 -26.73 Q97.938 -23.73 97.938 -20.542 V-9.667 Q97.938 -6.546 95.871 -4.514 Q93.805 -2.48 90.78 -2.48 H29.22 Q26.195 -2.48 24.129 -4.514 Q22.062 -6.547 22.062 -9.67 V-21.049 Q22.062 -24.105 24.129 -26.167 Q26.195 -28.23 29.25 -28.23 H90.375 Z M52.062 -13.73 H85.062 Q85.744 -13.73 86.215 -14.204 Q86.688 -14.676 86.688 -15.329 Q86.688 -15.98 86.215 -16.449 Q85.744 -16.917 85.062 -16.917 H52.062 Q51.381 -16.917 50.94 -16.431 Q50.5 -15.944 50.5 -15.319 Q50.5 -14.695 50.94 -14.212 Q51.381 -13.73 52.062 -13.73 Z M34.946 -11.98 Q36.375 -11.98 37.344 -12.912 Q38.312 -13.845 38.312 -15.301 Q38.312 -16.73 37.335 -17.699 Q36.358 -18.667 34.929 -18.667 Q33.5 -18.667 32.562 -17.69 Q31.625 -16.712 31.625 -15.284 Q31.625 -13.855 32.571 -12.917 Q33.517 -11.98 34.946 -11.98 Z"/></g><g id="Bold-S" transform="matrix(1 0 0 1 2294.23 696)"><path d="M50.891 -38.928  17.21 -51.158 Q15.356 -51.824 14.508 -53.587 Q13.66 -55.349 14.321 -57.211 Q14.984 -59.072 16.738 -59.923 Q18.492 -60.774 20.366 -60.133 L73.476 -40.802 Q79.64 -38.633 82.278 -34.682 Q84.916 -30.731 84.916 -25.811 V-14.568 Q84.916 -9.87 81.693 -6.647 Q78.47 -3.423 73.772 -3.423 H20.909 Q16.21 -3.423 12.987 -6.649 Q9.764 -9.875 9.764 -14.579 V-27.815 Q9.764 -32.518 12.987 -35.723 Q16.21 -38.928 20.909 -38.928 H50.891 Z M41.912 -17.872 H65.953 Q67.312 -17.872 68.298 -18.838 Q69.284 -19.803 69.284 -21.155 Q69.284 -22.507 68.314 -23.494 Q67.343 -24.48 65.984 -24.48 H41.943 Q40.584 -24.48 39.598 -23.514 Q38.612 -22.549 38.612 -21.197 Q38.612 -19.844 39.582 -18.858 Q40.553 -17.872 41.912 -17.872 Z M28.679 -17.872 Q30.031 -17.872 31.018 -18.802 Q32.004 -19.731 32.004 -21.106 Q32.004 -22.458 31.038 -23.469 Q30.073 -24.48 28.721 -24.48 Q27.368 -24.48 26.382 -23.49 Q25.396 -22.499 25.396 -21.147 Q25.396 -19.795 26.361 -18.834 Q27.327 -17.872 28.679 -17.872 Z"/></g><g id="Semibold-S" transform="matrix(1 0 0 1 1998.1 696)"><path d="M56.079 -36.956  18.496 -50.601 Q16.893 -51.174 16.156 -52.704 Q15.417 -54.235 15.988 -55.843 Q16.558 -57.449 18.083 -58.19 Q19.607 -58.931 21.224 -58.375 L74.076 -39.173 Q78.525 -37.646 80.563 -34.596 Q82.6 -31.545 82.6 -27.784 V-14.568 Q82.6 -10.728 79.935 -8.062 Q77.269 -5.396 73.428 -5.396 H21.252 Q17.411 -5.396 14.745 -8.065 Q12.08 -10.734 12.08 -14.579 V-27.815 Q12.08 -31.66 14.745 -34.308 Q17.411 -36.956 21.252 -36.956 H56.079 Z M42.255 -17.872 H65.609 Q66.968 -17.872 67.955 -18.838 Q68.941 -19.803 68.941 -21.155 Q68.941 -22.507 67.97 -23.494 Q67.001 -24.48 65.641 -24.48 H42.286 Q40.927 -24.48 39.941 -23.514 Q38.955 -22.549 38.955 -21.197 Q38.955 -19.844 39.925 -18.858 Q40.895 -17.872 42.255 -17.872 Z M29.022 -17.872 Q30.375 -17.872 31.361 -18.802 Q32.347 -19.731 32.347 -21.106 Q32.347 -22.458 31.381 -23.469 Q30.416 -24.48 29.064 -24.48 Q27.712 -24.48 26.725 -23.49 Q25.739 -22.499 25.739 -21.147 Q25.739 -19.795 26.705 -18.834 Q27.67 -17.872 29.022 -17.872 Z"/></g><g id="Medium-S" transform="matrix(1 0 0 1 1701.85 696)"><path d="M59.97 -35.477  19.462 -50.183 Q18.047 -50.686 17.392 -52.042 Q16.737 -53.399 17.238 -54.816 Q17.739 -56.233 19.091 -56.89 Q20.443 -57.547 21.867 -57.056 L74.526 -37.951 Q77.689 -36.907 79.277 -34.532 Q80.864 -32.156 80.864 -29.263 V-14.568 Q80.864 -11.371 78.616 -9.123 Q76.368 -6.875 73.171 -6.875 H21.509 Q18.312 -6.875 16.064 -9.126 Q13.816 -11.377 13.816 -14.579 V-27.815 Q13.816 -31.017 16.064 -33.247 Q18.312 -35.477 21.509 -35.477 H59.97 Z M42.512 -17.872 H65.352 Q66.711 -17.872 67.697 -18.838 Q68.683 -19.803 68.683 -21.155 Q68.683 -22.507 67.713 -23.494 Q66.743 -24.48 65.383 -24.48 H42.544 Q41.185 -24.48 40.199 -23.514 Q39.212 -22.549 39.212 -21.197 Q39.212 -19.844 40.183 -18.858 Q41.152 -17.872 42.512 -17.872 Z M29.28 -17.872 Q30.632 -17.872 31.618 -18.802 Q32.604 -19.731 32.604 -21.106 Q32.604 -22.458 31.639 -23.469 Q30.673 -24.48 29.321 -24.48 Q27.969 -24.48 26.983 -23.49 Q25.997 -22.499 25.997 -21.147 Q25.997 -19.795 26.962 -18.834 Q27.928 -17.872 29.28 -17.872 Z"/></g><g id="Regular-S" transform="matrix(1 0 0 1 1405.73 696)"><path d="M62.824 -34.392  20.169 -49.876 Q18.894 -50.328 18.298 -51.556 Q17.703 -52.785 18.154 -54.063 Q18.605 -55.341 19.831 -55.937 Q21.056 -56.533 22.339 -56.089 L74.856 -37.055 Q77.075 -36.364 78.333 -34.484 Q79.59 -32.605 79.59 -30.348 V-14.568 Q79.59 -11.842 77.649 -9.901 Q75.708 -7.96 72.983 -7.96 H21.698 Q18.972 -7.96 17.031 -9.904 Q15.09 -11.848 15.09 -14.579 V-27.815 Q15.09 -30.545 17.031 -32.468 Q18.972 -34.392 21.698 -34.392 H62.824 Z M42.701 -17.872 H65.164 Q66.523 -17.872 67.509 -18.838 Q68.495 -19.803 68.495 -21.155 Q68.495 -22.507 67.525 -23.494 Q66.554 -24.48 65.195 -24.48 H42.732 Q41.373 -24.48 40.387 -23.514 Q39.401 -22.549 39.401 -21.197 Q39.401 -19.844 40.371 -18.858 Q41.342 -17.872 42.701 -17.872 Z M29.468 -17.872 Q30.82 -17.872 31.807 -18.802 Q32.793 -19.731 32.793 -21.106 Q32.793 -22.458 31.827 -23.469 Q30.862 -24.48 29.51 -24.48 Q28.157 -24.48 27.171 -23.49 Q26.185 -22.499 26.185 -21.147 Q26.185 -19.795 27.15 -18.834 Q28.116 -17.872 29.468 -17.872 Z"/></g><g id="Light-S" transform="matrix(1 0 0 1 1109.75 696)"><path d="M63.621 -32.59  21.705 -47.827 Q20.801 -48.128 20.381 -48.978 Q19.961 -49.828 20.26 -50.707 Q20.558 -51.585 21.424 -52.039 Q22.289 -52.493 23.192 -52.2 L72.675 -34.324 Q75.331 -33.462 76.56 -31.43 Q77.788 -29.398 77.788 -27.086 V-15.668 Q77.788 -13.169 76.056 -11.447 Q74.324 -9.725 71.853 -9.725 H22.827 Q20.356 -9.725 18.624 -11.45 Q16.892 -13.175 16.892 -15.679 V-26.677 Q16.892 -29.161 18.624 -30.875 Q20.356 -32.59 22.836 -32.59 H63.621 Z M42.226 -18.782 H65.144 Q66.122 -18.782 66.834 -19.475 Q67.546 -20.166 67.546 -21.128 Q67.546 -22.09 66.85 -22.801 Q66.155 -23.512 65.176 -23.512 H42.258 Q41.28 -23.512 40.577 -22.817 Q39.875 -22.121 39.875 -21.167 Q39.875 -20.213 40.562 -19.497 Q41.248 -18.782 42.226 -18.782 Z M29.49 -18.252 Q30.687 -18.252 31.55 -19.06 Q32.413 -19.869 32.413 -21.089 Q32.413 -22.287 31.569 -23.165 Q30.724 -24.044 29.526 -24.044 Q28.328 -24.044 27.475 -23.184 Q26.621 -22.324 26.621 -21.126 Q26.621 -19.928 27.456 -19.09 Q28.292 -18.252 29.49 -18.252 Z"/></g><g id="Thin-S" transform="matrix(1 0 0 1 814.015 696)"><path d="M64.417 -30.788  23.241 -45.779 Q22.707 -45.929 22.463 -46.4 Q22.217 -46.873 22.364 -47.351 Q22.512 -47.83 23.017 -48.142 Q23.522 -48.454 24.046 -48.313 L70.494 -31.593 Q73.586 -30.56 74.786 -28.377 Q75.987 -26.194 75.987 -23.824 V-16.768 Q75.987 -14.495 74.463 -12.992 Q72.939 -11.488 70.725 -11.488 H23.955 Q21.741 -11.488 20.217 -12.995 Q18.693 -14.501 18.693 -16.778 V-25.539 Q18.693 -27.776 20.217 -29.282 Q21.741 -30.788 23.974 -30.788 H64.417 Z M41.752 -19.693 H65.125 Q65.722 -19.693 66.161 -20.111 Q66.599 -20.529 66.599 -21.101 Q66.599 -21.673 66.176 -22.109 Q65.754 -22.545 65.158 -22.545 H41.784 Q41.188 -22.545 40.769 -22.119 Q40.349 -21.693 40.349 -21.137 Q40.349 -20.582 40.752 -20.137 Q41.155 -19.693 41.752 -19.693 Z M29.512 -18.63 Q30.555 -18.63 31.295 -19.319 Q32.034 -20.007 32.034 -21.073 Q32.034 -22.117 31.309 -22.862 Q30.586 -23.607 29.542 -23.607 Q28.499 -23.607 27.778 -22.877 Q27.058 -22.147 27.058 -21.104 Q27.058 -20.06 27.763 -19.345 Q28.468 -18.63 29.512 -18.63 Z"/></g><g id="Ultralight-S" transform="matrix(1 0 0 1 517.792 696)"><path d="M64.895 -29.707  24.163 -44.55 Q23.851 -44.608 23.711 -44.854 Q23.571 -45.098 23.628 -45.338 Q23.684 -45.577 23.973 -45.804 Q24.262 -46.029 24.558 -45.98 L69.185 -29.954 Q72.539 -28.819 73.722 -26.545 Q74.906 -24.271 74.906 -21.866 V-17.428 Q74.906 -15.291 73.507 -13.919 Q72.109 -12.546 70.047 -12.546 H24.633 Q22.571 -12.546 21.173 -13.922 Q19.774 -15.297 19.774 -17.439 V-24.857 Q19.774 -26.945 21.173 -28.326 Q22.571 -29.707 24.656 -29.707 H64.895 Z M41.468 -20.239 H65.114 Q65.482 -20.239 65.755 -20.492 Q66.029 -20.747 66.029 -21.084 Q66.029 -21.422 65.772 -21.694 Q65.514 -21.965 65.146 -21.965 H41.499 Q41.132 -21.965 40.882 -21.701 Q40.634 -21.435 40.634 -21.12 Q40.634 -20.803 40.866 -20.521 Q41.1 -20.239 41.468 -20.239 Z M29.524 -18.858 Q30.475 -18.858 31.141 -19.475 Q31.807 -20.09 31.807 -21.064 Q31.807 -22.014 31.155 -22.68 Q30.503 -23.346 29.552 -23.346 Q28.601 -23.346 27.96 -22.694 Q27.319 -22.042 27.319 -21.091 Q27.319 -20.14 27.946 -19.499 Q28.574 -18.858 29.524 -18.858 Z"/></g></g></svg>