<svg xmlns="http://www.w3.org/2000/svg" height="24" viewBox="0 -960 960 960" width="24"><path d="M154-264q-45 0-75.5-30.5T48-370v-220q0-45 30.5-75.5T154-696h196q20 0 33 13t13 33q0 20-13 33.5T350-603H154v233h136v-57h-22q-22 0-37.5-15.5T215-480q0-22 15.5-37.5T268-533h75q22 0 37.5 15.5T396-480v110q0 45-30.5 75.5T290-264H154Zm316-53v-326q0-22 15.5-37.5T523-696q22 0 37.5 15.5T576-643v326q0 22-15.5 37.5T523-264q-22 0-37.5-15.5T470-317Zm180 0v-326q0-22 15.5-37.5T703-696h196q22 0 37.5 15.5T952-643q0 22-15.5 37.5T899-590H756v56h103q22 0 37.5 15.5T912-481q0 22-15.5 37.5T859-428H756v111q0 22-15.5 37.5T703-264q-22 0-37.5-15.5T650-317Z"/></svg>