<svg xmlns="http://www.w3.org/2000/svg" version="1.1" width="3300" height="2000"><g id="Notes"><style>
    text {
      font-family: monospace;
      text-anchor: middle;
    }
    text.emphasis {
      font-weight:bold;
    }
    text.lanchor {
      text-anchor: start;
    }
  </style><rect height="2200" id="artboard" fill="white" width="3300" x="0" y="0"/><line id="" style="fill:none;stroke:black;stroke-width:0.5;" x1="263" x2="3036" y1="292" y2="292"/><text class="lanchor emphasis" transform="matrix(1 0 0 1 263 322)">Weight/Scale Variations</text><text transform="matrix(1 0 0 1 559.711 322)">Ultralight</text><text transform="matrix(1 0 0 1 856.422 322)">Thin</text><text transform="matrix(1 0 0 1 1153.13 322)">Light</text><text transform="matrix(1 0 0 1 1449.84 322)">Regular</text><text transform="matrix(1 0 0 1 1746.56 322)">Medium</text><text transform="matrix(1 0 0 1 2043.27 322)">Semibold</text><text transform="matrix(1 0 0 1 2339.98 322)">Bold</text><text transform="matrix(1 0 0 1 2636.69 322)">Heavy</text><text transform="matrix(1 0 0 1 2933.4 322)">Black</text><text id="template-version" style="text-anchor: end;" transform="matrix(1 0 0 1 3036 1933)">Template v.1.0</text><text class="lanchor" transform="matrix(1 0 0 1 263 726)">Small</text><text class="lanchor" transform="matrix(1 0 0 1 263 1156)">Medium</text><text class="lanchor" transform="matrix(1 0 0 1 263 1586)">Large</text></g><g id="Guides"><g id="H-reference" style="fill:#27AAE1;stroke:none;" transform="matrix(1 0 0 1 339 696)"><path d="M 54.9316 0 L 57.666 0 L 30.5664 -70.459 L 28.0762 -70.459 L 0.976562 0 L 3.66211 0 L 12.9395 -24.4629 L 45.7031 -24.4629 Z M 29.1992 -67.0898 L 29.4434 -67.0898 L 44.8242 -26.709 L 13.8184 -26.709 Z"/></g><line id="Baseline-S" style="fill:none;stroke:#27AAE1;opacity:1;stroke-width:0.577;" x1="263" x2="3036" y1="696" y2="696"/><line id="Capline-S" style="fill:none;stroke:#27AAE1;opacity:1;stroke-width:0.577;" x1="263" x2="3036" y1="625.541" y2="625.541"/><g id="H-reference" style="fill:#27AAE1;stroke:none;" transform="matrix(1 0 0 1 339 1126)"><path d="M 54.9316 0 L 57.666 0 L 30.5664 -70.459 L 28.0762 -70.459 L 0.976562 0 L 3.66211 0 L 12.9395 -24.4629 L 45.7031 -24.4629 Z M 29.1992 -67.0898 L 29.4434 -67.0898 L 44.8242 -26.709 L 13.8184 -26.709 Z"/></g><line id="Baseline-M" style="fill:none;stroke:#27AAE1;opacity:1;stroke-width:0.577;" x1="263" x2="3036" y1="1126" y2="1126"/><line id="Capline-M" style="fill:none;stroke:#27AAE1;opacity:1;stroke-width:0.577;" x1="263" x2="3036" y1="1055.54" y2="1055.54"/><g id="H-reference" style="fill:#27AAE1;stroke:none;" transform="matrix(1 0 0 1 339 1556)"><path d="M 54.9316 0 L 57.666 0 L 30.5664 -70.459 L 28.0762 -70.459 L 0.976562 0 L 3.66211 0 L 12.9395 -24.4629 L 45.7031 -24.4629 Z M 29.1992 -67.0898 L 29.4434 -67.0898 L 44.8242 -26.709 L 13.8184 -26.709 Z"/></g><line id="Baseline-L" style="fill:none;stroke:#27AAE1;opacity:1;stroke-width:0.577;" x1="263" x2="3036" y1="1556" y2="1556"/><line id="Capline-L" style="fill:none;stroke:#27AAE1;opacity:1;stroke-width:0.577;" x1="263" x2="3036" y1="1485.54" y2="1485.54"/><rect height="119.336" id="left-margin" style="fill:darkred;stroke:none;opacity:0.4;" width="12.4512" x="1394.06" y="1030.79"/><rect height="119.336" id="right-margin" style="fill:darkgreen;stroke:none;opacity:0.4;" width="12.4512" x="1502.5112" y="1030.79"/><rect x="1406.5112" y="1045" width="96" height="96" fill="none" stroke="blue" stroke-dasharray="5"/><rect x="1394.06" y="1030.79" width="120.9024" height="119.336" fill="none" stroke="blue"/></g><g id="Symbols"><g id="Bold-L" transform="matrix(1 0 0 1 2266 1556)"><path d="M77.394 36.688 Q71.434 36.688 67.322 32.173 Q63.21 27.658 62.888 20.724 H91.913 Q91.59 27.658 87.472 32.173 Q83.355 36.688 77.394 36.688 Z M77.4 -94.57 Q69.015 -94.57 62.001 -91.184 Q54.986 -87.797 49.504 -81.509 L38.861 -92.151 Q45.473 -99.891 55.631 -104.89 Q65.79 -109.889 77.319 -109.889 Q98.772 -109.889 114.37 -94.309 Q129.968 -78.727 129.968 -57.482 Q129.968 -45.774 125.049 -35.856 Q120.131 -25.937 111.907 -18.944 L101.104 -29.747 Q108.199 -35.552 111.424 -42.889 Q114.649 -50.226 114.649 -57.482 Q114.649 -72.68 103.624 -83.626 Q92.598 -94.57 77.4 -94.57 Z M138.191 23.465  129.968 31.528  85.946 -12.655 H50.955 Q39.023 -19.911 32.008 -31.763 Q24.994 -43.615 24.994 -57.416 Q24.994 -61.675 25.558 -65.222 Q26.123 -68.77 26.929 -71.492 L5.321 -92.957 L13.545 -101.181 L138.191 23.465 Z M56.276 -27.812 H70.789 L40.796 -57.644 Q40.635 -56.676 40.554 -55.749 Q40.474 -54.822 40.474 -53.774 Q41.28 -45.711 45.231 -39.261 Q49.181 -32.811 56.276 -27.812 Z M104.168 -1.851 V9.759 H50.149 V-1.851 H104.168 Z"/></g><g id="Semibold-L" transform="matrix(1 0 0 1 1970.27 1556)"><path d="M77.397 33.463 Q71.643 33.463 67.743 29.299 Q63.84 25.134 63.518 18.761 H91.282 Q90.96 25.134 87.054 29.299 Q83.15 33.463 77.397 33.463 Z M77.4 -93.799 Q68.594 -93.799 61.265 -90.132 Q53.935 -86.466 48.452 -79.967 L39.492 -88.926 Q46.103 -96.666 56.017 -101.665 Q65.93 -106.664 77.355 -106.664 Q98.034 -106.664 113.089 -91.618 Q128.145 -76.571 128.145 -56.01 Q128.145 -44.345 123.297 -34.672 Q118.449 -25 110.226 -18.173 L101.104 -27.293 Q108.199 -32.958 111.74 -40.506 Q115.279 -48.053 115.279 -56.01 Q115.279 -71.542 104.106 -82.67 Q92.932 -93.799 77.4 -93.799 Z M137.911 24.657  130.248 32.229  85.175 -12.936 H51.445 Q39.934 -20.192 33.34 -31.342 Q26.747 -42.493 26.747 -55.973 Q26.747 -59.853 27.275 -63.26 Q27.804 -66.667 28.611 -69.397 L7.003 -90.924 L14.667 -98.587 L137.911 24.657 Z M55.996 -25.71 H72.471 L40.025 -58.065 Q39.793 -57.097 39.748 -56.083 Q39.703 -55.067 39.703 -53.914 Q40.158 -45.361 44.284 -38.174 Q48.41 -30.989 55.996 -25.71 Z M103.887 -2.553 V8.217 H50.639 V-2.553 H103.887 Z"/></g><g id="Medium-L" transform="matrix(1 0 0 1 1674.31 1556)"><path d="M77.398 31.044 Q71.801 31.044 68.059 27.142 Q64.315 23.241 63.992 17.289 H90.808 Q90.485 23.241 86.741 27.142 Q82.995 31.044 77.398 31.044 Z M77.4 -93.22 Q68.278 -93.22 60.712 -89.344 Q53.146 -85.466 47.664 -78.809 L39.966 -86.507 Q46.577 -94.247 56.305 -99.246 Q66.035 -104.245 77.381 -104.245 Q97.479 -104.245 112.128 -89.6 Q126.778 -74.954 126.778 -54.906 Q126.778 -43.273 121.982 -33.785 Q117.187 -24.297 108.963 -17.594 L101.104 -25.453 Q108.199 -31.013 111.975 -38.718 Q115.753 -46.422 115.753 -54.906 Q115.753 -70.687 104.467 -81.954 Q93.182 -93.22 77.4 -93.22 Z M137.701 25.55  130.458 32.755  84.597 -13.145 H51.814 Q40.617 -20.401 34.34 -31.026 Q28.061 -41.653 28.061 -54.89 Q28.061 -58.485 28.564 -61.788 Q29.067 -65.089 29.873 -67.827 L8.266 -89.399 L15.507 -96.642 L137.701 25.55 Z M55.786 -24.131 H73.733 L39.447 -58.381 Q39.163 -57.413 39.143 -56.331 Q39.124 -55.251 39.124 -54.019 Q39.318 -45.098 43.575 -37.36 Q47.832 -29.622 55.786 -24.131 Z M103.677 -3.078 V7.059 H51.008 V-3.078 H103.677 Z"/></g><g id="Regular-L" transform="matrix(1 0 0 1 1378.56 1556)"><path d="M77.4 29.27 Q71.918 29.27 68.289 25.561 Q64.661 21.853 64.339 16.209 H90.461 Q90.139 21.853 86.511 25.561 Q82.883 29.27 77.4 29.27 Z M77.4 -92.796 Q68.047 -92.796 60.308 -88.765 Q52.568 -84.734 47.085 -77.961 L40.312 -84.734 Q46.924 -92.474 56.518 -97.472 Q66.112 -102.471 77.4 -102.471 Q97.073 -102.471 111.424 -88.12 Q125.775 -73.769 125.775 -54.096 Q125.775 -42.486 121.018 -33.134 Q116.261 -23.781 108.038 -17.17 L101.104 -24.104 Q108.199 -29.586 112.149 -37.407 Q116.1 -45.227 116.1 -54.096 Q116.1 -70.06 104.732 -81.428 Q93.364 -92.796 77.4 -92.796 Z M137.546 26.206  130.613 33.14  84.172 -13.3 H52.084 Q41.119 -20.556 35.072 -30.796 Q29.025 -41.035 29.025 -54.096 Q29.025 -57.482 29.509 -60.707 Q29.992 -63.932 30.799 -66.674 L9.191 -88.281 L16.125 -95.215 L137.546 26.206 Z M55.631 -22.975 H74.659 L39.023 -58.611 Q38.7 -57.644 38.7 -56.515 Q38.7 -55.386 38.7 -54.096 Q38.7 -44.905 43.054 -36.762 Q47.407 -28.619 55.631 -22.975 Z M103.523 -3.464 V6.211 H51.278 V-3.464 H103.523 Z"/></g><g id="Light-L" transform="matrix(1 0 0 1 1082.77 1556)"><path d="M77.4 26.542 Q72.414 26.542 68.971 23.204 Q65.53 19.868 65.021 14.782 H89.779 Q89.27 19.868 85.829 23.204 Q82.386 26.542 77.4 26.542 Z M77.4 -91.184 Q68.544 -91.184 61.052 -87.431 Q53.559 -83.679 48.325 -77.465 L43.228 -82.625 Q49.715 -89.807 58.41 -94.154 Q67.104 -98.501 77.4 -98.501 Q95.894 -98.501 109.223 -85.174 Q122.55 -71.847 122.55 -53.351 Q122.55 -42.672 118.258 -34.158 Q113.967 -25.642 106.549 -19.279 L101.289 -24.538 Q107.517 -29.525 111.374 -37.004 Q115.231 -44.483 115.231 -53.351 Q115.231 -69.005 104.143 -80.095 Q93.054 -91.184 77.4 -91.184 Z M134.012 23.167  128.752 28.427  84.855 -15.47 H53.387 Q43.413 -22.293 37.832 -31.787 Q32.25 -41.283 32.25 -53.351 Q32.25 -56.8 32.797 -60.243 Q33.342 -63.684 34.211 -66.116 L13.223 -87.041 L18.482 -92.3 L134.012 23.167 Z M56.004 -22.79 H77.635 L40.325 -60.162 Q39.879 -58.822 39.724 -56.979 Q39.569 -55.138 39.569 -53.351 Q39.569 -44.284 43.799 -36.297 Q48.028 -28.309 56.004 -22.79 Z M101.725 -4.085 V3.235 H52.953 V-4.085 H101.725 Z"/></g><g id="Thin-L" transform="matrix(1 0 0 1 787.282 1556)"><path d="M77.4 23.812 Q72.909 23.812 69.654 20.848 Q66.398 17.883 65.703 13.356 H89.097 Q88.402 17.883 85.146 20.848 Q81.891 23.812 77.4 23.812 Z M77.4 -89.571 Q69.039 -89.571 61.796 -86.098 Q54.552 -82.625 49.565 -76.97 L46.142 -80.517 Q52.506 -87.14 60.301 -90.837 Q68.097 -94.533 77.4 -94.533 Q94.715 -94.533 107.02 -82.228 Q119.325 -69.923 119.325 -52.608 Q119.325 -42.859 115.499 -35.18 Q111.672 -27.503 105.061 -21.387 L101.476 -24.971 Q106.835 -29.462 110.598 -36.601 Q114.363 -43.739 114.363 -52.608 Q114.363 -67.951 103.553 -78.761 Q92.743 -89.571 77.4 -89.571 Z M130.475 20.129  126.891 23.713  85.537 -17.641 H54.688 Q45.708 -24.03 40.591 -32.781 Q35.475 -41.532 35.475 -52.608 Q35.475 -56.118 36.083 -59.777 Q36.691 -63.436 37.621 -65.558 L17.254 -85.801 L20.838 -89.386 L130.475 20.129 Z M56.376 -22.603 H80.612 L41.627 -61.712 Q41.057 -60.001 40.746 -57.445 Q40.437 -54.89 40.437 -52.608 Q40.437 -43.665 44.542 -35.831 Q48.648 -27.998 56.376 -22.603 Z M99.925 -4.704 V0.258 H54.627 V-4.704 H99.925 Z"/></g><g id="Ultralight-L" transform="matrix(1 0 0 1 491.205 1556)"><path d="M77.4 22.175 Q73.207 22.175 70.063 19.434 Q66.919 16.693 66.112 12.5 H88.688 Q87.881 16.693 84.737 19.434 Q81.593 22.175 77.4 22.175 Z M77.4 -88.604 Q69.338 -88.604 62.242 -85.298 Q55.148 -81.992 50.31 -76.671 L47.891 -79.251 Q54.18 -85.54 61.436 -88.846 Q68.692 -92.151 77.4 -92.151 Q94.009 -92.151 105.699 -80.461 Q117.39 -68.77 117.39 -52.161 Q117.39 -42.97 113.843 -35.794 Q110.295 -28.619 104.168 -22.652 L101.588 -25.232 Q106.425 -29.425 110.134 -36.359 Q113.843 -43.292 113.843 -52.161 Q113.843 -67.319 103.2 -77.961 Q92.558 -88.604 77.4 -88.604 Z M128.355 18.305  125.775 20.885  85.946 -18.944 H55.47 Q47.085 -25.071 42.248 -33.376 Q37.41 -41.68 37.41 -52.161 Q37.41 -55.709 38.055 -59.498 Q38.7 -63.287 39.668 -65.222 L19.672 -85.056 L22.253 -87.636 L128.355 18.305 Z M56.599 -22.491 H82.399 L42.409 -62.642 Q41.764 -60.707 41.361 -57.724 Q40.958 -54.741 40.958 -52.161 Q40.958 -43.292 44.989 -35.552 Q49.02 -27.812 56.599 -22.491 Z M98.846 -5.076 V-1.529 H55.631 V-5.076 H98.846 Z"/></g><g id="Bold-M" transform="matrix(1 0 0 1 2281.8 1126)"><path d="M59.995 22.395 Q55.25 22.395 51.875 18.645 Q48.5 14.895 48.5 9.395 H71.5 Q71.5 14.895 68.12 18.645 Q64.741 22.395 59.995 22.395 Z M60 -77.105 Q55.625 -77.105 51.625 -75.792 Q47.625 -74.48 44 -71.605 L32.75 -82.605 Q37.875 -87.355 45 -90.105 Q52.125 -92.855 60 -92.855 Q77.396 -92.855 89.573 -80.715 Q101.75 -68.574 101.75 -51.23 Q101.75 -42.105 98.5 -35.23 Q95.25 -28.355 91.25 -23.98 L80.25 -34.98 Q82.875 -38.23 84.438 -42.23 Q86 -46.23 86 -51.23 Q86 -61.98 78.375 -69.542 Q70.75 -77.105 60 -77.105 Z M106.625 7.895  98.25 16.27  67.5 -14.48 H40.125 Q30.375 -19.605 24.312 -29.917 Q18.25 -40.23 18.25 -51.23 Q18.25 -54.48 18.688 -57.23 Q19.125 -59.98 19.75 -62.201 L3 -78.98 L11.375 -87.355 L106.625 7.895 Z M44.875 -30.23 H51.75 L34.375 -47.48 Q34.375 -47.23 34.375 -47.261 Q34.375 -47.292 34.375 -47.355 Q35.125 -41.855 37.812 -37.73 Q40.5 -33.605 44.875 -30.23 Z M81.375 -8.48 V3.395 H38.875 V-8.48 H81.375 Z"/></g><g id="Semibold-M" transform="matrix(1 0 0 1 1985.97 1126)"><path d="M59.998 19.08 Q55.521 19.08 52.337 15.684 Q49.153 12.286 49.153 7.384 H70.847 Q70.847 12.286 67.66 15.684 Q64.474 19.08 59.998 19.08 Z M60 -76.29 Q55.136 -76.29 50.837 -74.705 Q46.538 -73.121 42.913 -70.029 L33.403 -79.29 Q38.528 -84.04 45.407 -86.79 Q52.288 -89.54 60 -89.54 Q76.626 -89.54 88.264 -77.922 Q99.903 -66.305 99.903 -49.709 Q99.903 -40.692 96.706 -34.061 Q93.511 -27.431 89.511 -23.219 L80.25 -32.48 Q82.875 -35.567 84.764 -39.785 Q86.653 -44.002 86.653 -49.709 Q86.653 -60.785 78.864 -68.537 Q71.076 -76.29 60 -76.29 Z M106.354 9.145  98.521 16.976  66.739 -14.806 H40.614 Q31.354 -19.931 25.725 -29.51 Q20.098 -39.089 20.098 -49.709 Q20.098 -52.632 20.481 -55.219 Q20.864 -57.806 21.489 -60.04 L4.739 -76.915 L12.516 -84.692 L106.354 9.145 Z M44.604 -28.056 H53.489 L33.56 -47.915 Q33.56 -47.665 33.56 -47.627 Q33.56 -47.591 33.56 -47.517 Q33.984 -41.475 36.834 -36.589 Q39.685 -31.702 44.604 -28.056 Z M81.104 -9.241 V1.819 H39.364 V-9.241 H81.104 Z"/></g><g id="Medium-M" transform="matrix(1 0 0 1 1689.91 1126)"><path d="M59.999 16.594 Q55.725 16.594 52.684 13.461 Q49.641 10.33 49.641 5.876 H70.359 Q70.359 10.33 67.315 13.461 Q64.272 16.594 59.999 16.594 Z M60 -75.679 Q54.769 -75.679 50.246 -73.89 Q45.722 -72.102 42.097 -68.846 L33.891 -76.804 Q39.016 -81.554 45.714 -84.304 Q52.41 -87.054 60 -87.054 Q76.049 -87.054 87.282 -75.829 Q98.516 -64.602 98.516 -48.567 Q98.516 -39.632 95.361 -33.185 Q92.206 -26.739 88.206 -22.649 L80.25 -30.605 Q82.875 -33.57 85.009 -37.95 Q87.141 -42.33 87.141 -48.567 Q87.141 -59.887 79.231 -67.782 Q71.321 -75.679 60 -75.679 Z M106.15 10.083  98.725 17.506  66.169 -15.051 H40.981 Q32.087 -20.176 26.785 -29.204 Q21.484 -38.232 21.484 -48.567 Q21.484 -51.246 21.826 -53.711 Q22.169 -56.176 22.794 -58.419 L6.044 -75.366 L13.373 -82.695 L106.15 10.083 Z M44.4 -26.426 H54.794 L32.949 -48.241 Q32.949 -47.991 32.949 -47.904 Q32.949 -47.815 32.949 -47.64 Q33.127 -41.189 36.1 -35.732 Q39.074 -30.276 44.4 -26.426 Z M80.9 -9.811 V0.636 H39.731 V-9.811 H80.9 Z"/></g><g id="Regular-M" transform="matrix(1 0 0 1 1394.06 1126)"><path d="M60 14.77 Q55.875 14.77 52.938 11.833 Q50 8.895 50 4.77 H70 Q70 8.895 67.062 11.833 Q64.125 14.77 60 14.77 Z M60 -75.23 Q54.5 -75.23 49.812 -73.292 Q45.125 -71.355 41.5 -67.98 L34.25 -74.98 Q39.375 -79.73 45.938 -82.48 Q52.5 -85.23 60 -85.23 Q75.625 -85.23 86.562 -74.292 Q97.5 -63.355 97.5 -47.73 Q97.5 -38.855 94.375 -32.542 Q91.25 -26.23 87.25 -22.23 L80.25 -29.23 Q82.875 -32.105 85.188 -36.605 Q87.5 -41.105 87.5 -47.73 Q87.5 -59.23 79.5 -67.23 Q71.5 -75.23 60 -75.23 Z M106 10.77  98.875 17.895  65.75 -15.23 H41.25 Q32.625 -20.355 27.562 -28.98 Q22.5 -37.605 22.5 -47.73 Q22.5 -50.23 22.812 -52.605 Q23.125 -54.98 23.75 -57.23 L7 -74.23 L14 -81.23 L106 10.77 Z M44.25 -25.23 H55.75 L32.5 -48.48 Q32.5 -48.23 32.5 -48.105 Q32.5 -47.98 32.5 -47.73 Q32.5 -40.98 35.562 -35.105 Q38.625 -29.23 44.25 -25.23 Z M80.75 -10.23 V-0.23 H40 V-10.23 H80.75 Z"/></g><g id="Light-M" transform="matrix(1 0 0 1 1098.18 1126)"><path d="M60 12.655 Q56.211 12.655 53.466 10.03 Q50.721 7.405 50.481 3.616 H69.519 Q69.279 7.405 66.534 10.03 Q63.789 12.655 60 12.655 Z M60 -75.23 Q54.453 -75.23 49.596 -73.196 Q44.74 -71.162 41.115 -67.691 L35.693 -72.96 Q40.721 -77.615 46.828 -80.172 Q52.932 -82.73 60 -82.73 Q74.615 -82.73 84.808 -72.537 Q95 -62.345 95 -47.73 Q95 -39.529 92.091 -33.624 Q89.183 -27.72 85.135 -23.576 L79.865 -28.845 Q82.635 -31.72 85.067 -36.389 Q87.5 -41.057 87.5 -47.73 Q87.5 -59.23 79.5 -67.23 Q71.5 -75.23 60 -75.23 Z M103.404 8.846  98.058 14.193  66.135 -17.73 H42.019 Q34.164 -22.615 29.582 -30.495 Q25 -38.374 25 -47.73 Q25 -50.277 25.385 -52.87 Q25.77 -55.461 26.442 -57.422 L10.174 -73.845 L15.443 -79.115 L103.404 8.846 Z M44.25 -25.23 H58.635 L32.885 -50.98 Q32.74 -50.297 32.62 -49.427 Q32.5 -48.557 32.5 -47.73 Q32.5 -40.98 35.562 -35.105 Q38.625 -29.23 44.25 -25.23 Z M79.211 -10.807 V-3.307 H41.25 V-10.807 H79.211 Z"/></g><g id="Thin-M" transform="matrix(1 0 0 1 802.565 1126)"><path d="M60 10.539 Q56.547 10.539 53.995 8.226 Q51.443 5.914 50.961 2.463 H69.039 Q68.558 5.914 66.005 8.226 Q63.453 10.539 60 10.539 Z M60 -75.23 Q54.404 -75.23 49.38 -73.1 Q44.356 -70.97 40.731 -67.402 L37.135 -70.941 Q42.068 -75.499 47.716 -77.865 Q53.365 -80.23 60 -80.23 Q73.606 -80.23 83.052 -70.782 Q92.5 -61.336 92.5 -47.73 Q92.5 -40.201 89.808 -34.706 Q87.115 -29.211 83.019 -24.922 L79.481 -28.461 Q82.394 -31.336 84.948 -36.172 Q87.5 -41.009 87.5 -47.73 Q87.5 -59.23 79.5 -67.23 Q71.5 -75.23 60 -75.23 Z M100.808 6.924  97.24 10.491  66.519 -20.23 H42.789 Q35.703 -24.874 31.601 -32.009 Q27.5 -39.144 27.5 -47.73 Q27.5 -50.326 27.956 -53.134 Q28.414 -55.941 29.135 -57.615 L13.346 -73.461 L16.885 -76.999 L100.808 6.924 Z M44.25 -25.23 H61.519 L33.269 -53.48 Q32.981 -52.365 32.74 -50.749 Q32.5 -49.134 32.5 -47.73 Q32.5 -40.98 35.562 -35.105 Q38.625 -29.23 44.25 -25.23 Z M77.672 -11.384 V-6.384 H42.5 V-11.384 H77.672 Z"/></g><g id="Ultralight-M" transform="matrix(1 0 0 1 506.415 1126)"><path d="M60 9.27 Q56.75 9.27 54.312 7.145 Q51.875 5.02 51.25 1.77 H68.75 Q68.125 5.02 65.688 7.145 Q63.25 9.27 60 9.27 Z M60 -75.23 Q54.375 -75.23 49.25 -73.042 Q44.125 -70.855 40.5 -67.23 L38 -69.73 Q42.875 -74.23 48.25 -76.48 Q53.625 -78.73 60 -78.73 Q73 -78.73 82 -69.73 Q91 -60.73 91 -47.73 Q91 -40.605 88.438 -35.355 Q85.875 -30.105 81.75 -25.73 L79.25 -28.23 Q82.25 -31.105 84.875 -36.042 Q87.5 -40.98 87.5 -47.73 Q87.5 -59.23 79.5 -67.23 Q71.5 -75.23 60 -75.23 Z M99.25 5.77  96.75 8.27  66.75 -21.73 H43.25 Q36.625 -26.23 32.812 -32.917 Q29 -39.605 29 -47.73 Q29 -50.355 29.5 -53.292 Q30 -56.23 30.75 -57.73 L15.25 -73.23 L17.75 -75.73 L99.25 5.77 Z M44.25 -25.23 H63.25 L33.5 -54.98 Q33.125 -53.605 32.812 -51.542 Q32.5 -49.48 32.5 -47.73 Q32.5 -40.98 35.562 -35.105 Q38.625 -29.23 44.25 -25.23 Z M76.75 -11.73 V-8.23 H43.25 V-11.73 H76.75 Z"/></g><g id="Bold-S" transform="matrix(1 0 0 1 2294.23 696)"><path d="M47.315 8.066 Q43.888 8.066 41.472 5.339 Q39.056 2.612 39.056 -1.402 H55.625 Q55.625 2.642 53.184 5.354 Q50.743 8.066 47.315 8.066 Z M47.34 -68.072 Q44.085 -68.072 40.781 -67.037 Q37.477 -66.001 34.617 -63.535 L26.333 -71.721 Q30.278 -75.765 35.85 -77.737 Q41.422 -79.71 47.389 -79.71 Q60.601 -79.71 69.849 -70.477 Q79.097 -61.242 79.097 -48.051 Q79.097 -42.232 76.878 -36.759 Q74.659 -31.285 70.813 -26.945 L62.726 -35.033 Q65.487 -38.386 66.473 -41.789 Q67.46 -45.191 67.46 -48.051 Q67.46 -56.368 61.558 -62.22 Q55.657 -68.072 47.34 -68.072 Z M81.267 -4.656  75.251 1.36  52.863 -21.028 H30.771 Q23.769 -25.072 19.676 -32.616 Q15.583 -40.161 15.583 -48.051 Q15.583 -50.649 15.977 -52.851 Q16.372 -55.054 16.963 -57.003 L5.72 -68.072 L11.835 -74.187 L81.267 -4.656 Z M34.42 -32.666 H41.225 L27.615 -46.177 Q27.516 -45.388 27.516 -45.019 Q27.516 -44.649 27.516 -44.402 Q28.108 -42.232 29.538 -38.928 Q30.968 -35.624 34.42 -32.666 Z M63.81 -15.505 V-6.925 H32.25 V-15.505 H63.81 Z"/></g><g id="Semibold-S" transform="matrix(1 0 0 1 1998.1 696)"><path d="M47.317 5.451 Q44.102 5.451 41.837 3.003 Q39.57 0.554 39.57 -2.989 H55.11 Q55.11 0.584 52.821 3.018 Q50.532 5.451 47.317 5.451 Z M47.34 -67.429 Q43.7 -67.429 40.16 -66.179 Q36.619 -64.929 33.759 -62.292 L26.848 -69.106 Q30.793 -73.149 36.172 -75.122 Q41.551 -77.094 47.389 -77.094 Q59.994 -77.094 68.817 -68.273 Q77.64 -59.452 77.64 -46.851 Q77.64 -41.118 75.463 -35.837 Q73.287 -30.556 69.441 -26.345 L62.726 -33.06 Q65.487 -36.285 66.731 -39.859 Q67.974 -43.434 67.974 -46.851 Q67.974 -55.424 61.944 -61.427 Q55.914 -67.429 47.34 -67.429 Z M81.053 -3.67  75.465 1.917  52.262 -21.285 H31.157 Q24.541 -25.329 20.79 -32.295 Q17.04 -39.261 17.04 -46.851 Q17.04 -49.191 17.393 -51.265 Q17.744 -53.339 18.335 -55.298 L7.092 -66.443 L12.735 -72.086 L81.053 -3.67 Z M34.206 -30.951 H42.597 L26.972 -46.521 Q26.873 -45.732 26.873 -45.308 Q26.873 -44.884 26.873 -44.53 Q27.208 -41.933 28.766 -38.028 Q30.325 -34.123 34.206 -30.951 Z M63.596 -16.106 V-8.168 H32.636 V-16.106 H63.596 Z"/></g><g id="Medium-S" transform="matrix(1 0 0 1 1701.85 696)"><path d="M47.318 3.489 Q44.263 3.489 42.11 1.249 Q39.956 -0.989 39.956 -4.178 H54.724 Q54.724 -0.96 52.548 1.264 Q50.373 3.489 47.318 3.489 Z M47.34 -66.947 Q43.41 -66.947 39.694 -65.535 Q35.976 -64.125 33.116 -61.359 L27.233 -67.144 Q31.178 -71.188 36.413 -73.16 Q41.647 -75.133 47.389 -75.133 Q59.538 -75.133 68.042 -66.621 Q76.546 -58.109 76.546 -45.951 Q76.546 -40.282 74.402 -35.145 Q72.258 -30.01 68.411 -25.895 L62.726 -31.581 Q65.487 -34.709 66.924 -38.412 Q68.36 -42.114 68.36 -45.951 Q68.36 -54.717 62.233 -60.832 Q56.107 -66.947 47.34 -66.947 Z M80.892 -2.93  75.626 2.335  51.813 -21.479 H31.447 Q25.12 -25.522 21.626 -32.053 Q18.134 -38.585 18.134 -45.951 Q18.134 -48.099 18.454 -50.075 Q18.773 -52.052 19.365 -54.019 L8.122 -65.221 L13.411 -70.51 L80.892 -2.93 Z M34.045 -29.665 H43.627 L26.49 -46.778 Q26.391 -45.989 26.391 -45.525 Q26.391 -45.061 26.391 -44.627 Q26.532 -41.707 28.187 -37.352 Q29.843 -32.998 34.045 -29.665 Z M63.436 -16.555 V-9.101 H32.926 V-16.555 H63.436 Z"/></g><g id="Regular-S" transform="matrix(1 0 0 1 1405.73 696)"><path d="M47.319 2.05 Q44.381 2.05 42.31 -0.036 Q40.239 -2.122 40.239 -5.051 H54.441 Q54.441 -2.092 52.349 -0.021 Q50.257 2.05 47.319 2.05 Z M47.34 -66.593 Q43.198 -66.593 39.351 -65.064 Q35.505 -63.535 32.645 -60.675 L27.516 -65.705 Q31.461 -69.749 36.59 -71.721 Q41.718 -73.694 47.389 -73.694 Q59.204 -73.694 67.474 -65.409 Q75.744 -57.125 75.744 -45.29 Q75.744 -39.668 73.624 -34.638 Q71.503 -29.608 67.657 -25.565 L62.726 -30.496 Q65.487 -33.553 67.065 -37.35 Q68.643 -41.147 68.643 -45.29 Q68.643 -54.199 62.445 -60.395 Q56.249 -66.593 47.34 -66.593 Z M80.774 -2.388  75.744 2.642  51.482 -21.62 H31.659 Q25.544 -25.663 22.24 -31.877 Q18.936 -38.09 18.936 -45.29 Q18.936 -47.296 19.232 -49.202 Q19.528 -51.109 20.12 -53.081 L8.876 -64.324 L13.906 -69.354 L80.774 -2.388 Z M33.927 -28.721 H44.381 L26.136 -46.966 Q26.037 -46.177 26.037 -45.684 Q26.037 -45.191 26.037 -44.698 Q26.037 -41.542 27.763 -36.857 Q29.489 -32.173 33.927 -28.721 Z M63.317 -16.886 V-9.785 H33.138 V-16.886 H63.317 Z"/></g><g id="Light-S" transform="matrix(1 0 0 1 1109.75 696)"><path d="M47.319 0.382 Q44.647 0.382 42.727 -1.458 Q40.808 -3.297 40.619 -5.961 H54.061 Q53.872 -3.268 51.932 -1.443 Q49.991 0.382 47.319 0.382 Z M47.34 -66.593 Q43.16 -66.593 39.181 -64.988 Q35.201 -63.383 32.341 -60.447 L28.655 -64.111 Q32.524 -68.08 37.292 -69.901 Q42.06 -71.721 47.389 -71.721 Q58.407 -71.721 66.09 -64.025 Q73.772 -56.328 73.772 -45.29 Q73.772 -40.2 71.822 -35.491 Q69.872 -30.784 65.988 -26.627 L62.422 -30.192 Q65.298 -33.25 66.97 -37.18 Q68.643 -41.11 68.643 -45.29 Q68.643 -54.199 62.445 -60.395 Q56.249 -66.593 47.34 -66.593 Z M78.725 -3.906  75.099 -0.279  51.786 -23.592 H32.265 Q26.758 -27.447 23.834 -33.072 Q20.909 -38.697 20.909 -45.29 Q20.909 -47.334 21.262 -49.411 Q21.615 -51.488 22.244 -53.233 L11.38 -64.021 L15.044 -67.686 L78.725 -3.906 Z M33.927 -28.721 H46.658 L26.439 -48.939 Q26.226 -47.809 26.132 -46.728 Q26.037 -45.647 26.037 -44.698 Q26.037 -41.542 27.763 -36.857 Q29.489 -32.173 33.927 -28.721 Z M62.103 -17.341 V-12.213 H34.124 V-17.341 H62.103 Z"/></g><g id="Thin-S" transform="matrix(1 0 0 1 814.015 696)"><path d="M47.319 -1.288 Q44.912 -1.288 43.144 -2.881 Q41.377 -4.474 40.997 -6.871 H53.683 Q53.303 -4.444 51.515 -2.866 Q49.726 -1.288 47.319 -1.288 Z M47.34 -66.593 Q43.122 -66.593 39.01 -64.912 Q34.898 -63.232 32.038 -60.22 L29.793 -62.519 Q33.586 -66.41 37.993 -68.08 Q42.401 -69.749 47.389 -69.749 Q57.611 -69.749 64.705 -62.64 Q71.799 -55.532 71.799 -45.29 Q71.799 -40.73 70.02 -36.345 Q68.241 -31.961 64.318 -27.689 L62.119 -29.889 Q65.107 -32.947 66.876 -37.009 Q68.643 -41.072 68.643 -45.29 Q68.643 -54.199 62.445 -60.395 Q56.249 -66.593 47.34 -66.593 Z M76.677 -5.423  74.454 -3.2  52.089 -25.565 H32.873 Q27.972 -29.229 25.427 -34.266 Q22.881 -39.304 22.881 -45.29 Q22.881 -47.372 23.29 -49.619 Q23.701 -51.867 24.368 -53.385 L13.883 -63.718 L16.182 -66.016 L76.677 -5.423 Z M33.927 -28.721 H48.933 L26.742 -50.911 Q26.417 -49.44 26.226 -47.77 Q26.037 -46.101 26.037 -44.698 Q26.037 -41.542 27.763 -36.857 Q29.489 -32.173 33.927 -28.721 Z M60.889 -17.796 V-14.64 H35.111 V-17.796 H60.889 Z"/></g><g id="Ultralight-S" transform="matrix(1 0 0 1 517.792 696)"><path d="M47.319 -2.289 Q45.072 -2.289 43.395 -3.734 Q41.718 -5.179 41.225 -7.418 H53.455 Q52.962 -5.149 51.264 -3.719 Q49.567 -2.289 47.319 -2.289 Z M47.34 -66.593 Q43.099 -66.593 38.908 -64.867 Q34.716 -63.141 31.856 -60.083 L30.475 -61.563 Q34.223 -65.409 38.414 -66.987 Q42.606 -68.565 47.389 -68.565 Q57.132 -68.565 63.874 -61.809 Q70.615 -55.054 70.615 -45.29 Q70.615 -41.049 68.939 -36.857 Q67.262 -32.666 63.317 -28.326 L61.937 -29.707 Q64.994 -32.764 66.818 -36.907 Q68.643 -41.049 68.643 -45.29 Q68.643 -54.199 62.445 -60.395 Q56.249 -66.593 47.34 -66.593 Z M75.448 -6.333  74.067 -4.952  52.271 -26.748 H33.237 Q28.7 -30.299 26.382 -34.983 Q24.065 -39.668 24.065 -45.29 Q24.065 -47.394 24.508 -49.745 Q24.952 -52.095 25.643 -53.476 L15.386 -63.535 L16.865 -65.015 L75.448 -6.333 Z M33.927 -28.721 H50.299 L26.925 -52.095 Q26.53 -50.418 26.284 -48.396 Q26.037 -46.375 26.037 -44.698 Q26.037 -41.542 27.763 -36.857 Q29.489 -32.173 33.927 -28.721 Z M60.161 -18.069 V-16.097 H35.702 V-18.069 H60.161 Z"/></g></g></svg>