<svg xmlns="http://www.w3.org/2000/svg" height="24" viewBox="0 -960 960 960" width="24"><path d="M162.5-255.5q77.58-22.5 157.19-34.22 79.6-11.72 160.2-11.72 80.61 0 160.28 11.72Q719.85-278 797.5-255.5v-447q-77.61 22.5-157.24 33.25Q560.63-658.5 480-658.5t-160.26-10.75Q240.11-680 162.5-702.5v447ZM137-222v-514q76.5 20.5 154.5 37.25T480-682q110.5 0 188.5-16.75T823-736v514q-76.5-20.5-154.5-36.25T480-274q-110.5 0-188.5 15.75T137-222Zm343-257ZM276-374q51.27-5.25 102.13-7.38 50.85-2.12 101.87-2.12t101.87 2.12Q632.73-379.25 684-374L559.5-524l-104 124-79.5-95.5L276-374Z"/></svg>