<svg xmlns="http://www.w3.org/2000/svg" version="1.1" width="3300" height="2000"><g id="Notes"><style>
    text {
      font-family: monospace;
      text-anchor: middle;
    }
    text.emphasis {
      font-weight:bold;
    }
    text.lanchor {
      text-anchor: start;
    }
  </style><rect height="2200" id="artboard" fill="white" width="3300" x="0" y="0"/><line id="" style="fill:none;stroke:black;stroke-width:0.5;" x1="263" x2="3036" y1="292" y2="292"/><text class="lanchor emphasis" transform="matrix(1 0 0 1 263 322)">Weight/Scale Variations</text><text transform="matrix(1 0 0 1 559.711 322)">Ultralight</text><text transform="matrix(1 0 0 1 856.422 322)">Thin</text><text transform="matrix(1 0 0 1 1153.13 322)">Light</text><text transform="matrix(1 0 0 1 1449.84 322)">Regular</text><text transform="matrix(1 0 0 1 1746.56 322)">Medium</text><text transform="matrix(1 0 0 1 2043.27 322)">Semibold</text><text transform="matrix(1 0 0 1 2339.98 322)">Bold</text><text transform="matrix(1 0 0 1 2636.69 322)">Heavy</text><text transform="matrix(1 0 0 1 2933.4 322)">Black</text><text id="template-version" style="text-anchor: end;" transform="matrix(1 0 0 1 3036 1933)">Template v.1.0</text><text class="lanchor" transform="matrix(1 0 0 1 263 726)">Small</text><text class="lanchor" transform="matrix(1 0 0 1 263 1156)">Medium</text><text class="lanchor" transform="matrix(1 0 0 1 263 1586)">Large</text></g><g id="Guides"><g id="H-reference" style="fill:#27AAE1;stroke:none;" transform="matrix(1 0 0 1 339 696)"><path d="M 54.9316 0 L 57.666 0 L 30.5664 -70.459 L 28.0762 -70.459 L 0.976562 0 L 3.66211 0 L 12.9395 -24.4629 L 45.7031 -24.4629 Z M 29.1992 -67.0898 L 29.4434 -67.0898 L 44.8242 -26.709 L 13.8184 -26.709 Z"/></g><line id="Baseline-S" style="fill:none;stroke:#27AAE1;opacity:1;stroke-width:0.577;" x1="263" x2="3036" y1="696" y2="696"/><line id="Capline-S" style="fill:none;stroke:#27AAE1;opacity:1;stroke-width:0.577;" x1="263" x2="3036" y1="625.541" y2="625.541"/><g id="H-reference" style="fill:#27AAE1;stroke:none;" transform="matrix(1 0 0 1 339 1126)"><path d="M 54.9316 0 L 57.666 0 L 30.5664 -70.459 L 28.0762 -70.459 L 0.976562 0 L 3.66211 0 L 12.9395 -24.4629 L 45.7031 -24.4629 Z M 29.1992 -67.0898 L 29.4434 -67.0898 L 44.8242 -26.709 L 13.8184 -26.709 Z"/></g><line id="Baseline-M" style="fill:none;stroke:#27AAE1;opacity:1;stroke-width:0.577;" x1="263" x2="3036" y1="1126" y2="1126"/><line id="Capline-M" style="fill:none;stroke:#27AAE1;opacity:1;stroke-width:0.577;" x1="263" x2="3036" y1="1055.54" y2="1055.54"/><g id="H-reference" style="fill:#27AAE1;stroke:none;" transform="matrix(1 0 0 1 339 1556)"><path d="M 54.9316 0 L 57.666 0 L 30.5664 -70.459 L 28.0762 -70.459 L 0.976562 0 L 3.66211 0 L 12.9395 -24.4629 L 45.7031 -24.4629 Z M 29.1992 -67.0898 L 29.4434 -67.0898 L 44.8242 -26.709 L 13.8184 -26.709 Z"/></g><line id="Baseline-L" style="fill:none;stroke:#27AAE1;opacity:1;stroke-width:0.577;" x1="263" x2="3036" y1="1556" y2="1556"/><line id="Capline-L" style="fill:none;stroke:#27AAE1;opacity:1;stroke-width:0.577;" x1="263" x2="3036" y1="1485.54" y2="1485.54"/><rect height="119.336" id="left-margin" style="fill:darkred;stroke:none;opacity:0.4;" width="12.4512" x="1394.06" y="1030.79"/><rect height="119.336" id="right-margin" style="fill:darkgreen;stroke:none;opacity:0.4;" width="12.4512" x="1502.5112" y="1030.79"/><rect x="1406.5112" y="1045" width="96" height="96" fill="none" stroke="blue" stroke-dasharray="5"/><rect x="1394.06" y="1030.79" width="120.9024" height="119.336" fill="none" stroke="blue"/></g><g id="Symbols"><g id="Bold-L" transform="matrix(1 0 0 1 2266 1556)"><path d="M1654.086375 2618.945 Q1716.99 2618.945 1759.8825000000002 2574.133625 Q1802.775 2529.325475 1802.775 2469.321125 Q1802.775 2409.32 1760.2211249999998 2365.7825 Q1717.6704750000001 2322.245 1654.763625 2322.245 Q1591.8600000000001 2322.245 1548.9675 2364.798875 Q1506.075 2407.349525 1506.075 2470.256375 Q1506.075 2528.645 1548.628875 2573.795 Q1591.179525 2618.945 1654.086375 2618.945 Z M2145.898875 2618.945 Q2205.9 2618.945 2249.4375 2574.133625 Q2292.975 2529.325475 2292.975 2469.321125 Q2292.975 2409.32 2250.421125 2365.7825 Q2207.870475 2322.245 2144.9636250000003 2322.245 Q2086.5750000000003 2322.245 2041.425 2364.798875 Q1996.275 2407.349525 1996.275 2470.256375 Q1996.275 2528.645 2041.086375 2573.795 Q2085.894525 2618.945 2145.898875 2618.945 Z M306.375 1822.37 V677.495 Q306.375 550.2268250000001 394.981875 460.675025 Q483.58875 371.12 609.525 371.12 H2486.475 Q2613.743175 371.12 2703.2949750000002 460.675025 Q2792.85 550.2268250000001 2792.85 677.495 V1822.37 H2486.475 V677.495 Q2486.475 677.495 2486.475 677.495 Q2486.475 677.495 2486.475 677.495 H609.525 Q609.525 677.495 609.525 677.495 Q609.525 677.495 609.525 677.495 V1822.37 H306.375 Z M609.525 2128.745 V2812.445 Q609.525 2812.445 609.525 2812.445 Q609.525 2812.445 609.525 2812.445 H2486.475 Q2486.475 2812.445 2486.475 2812.445 Q2486.475 2812.445 2486.475 2812.445 V2128.745 H609.525 Z M609.525 3115.595 Q483.58875 3115.595 394.981875 3026.988125 Q306.375 2938.38125 306.375 2812.445 V1822.37 H2792.85 V2812.445 Q2792.85 2938.38125 2703.2949750000002 3026.988125 Q2613.743175 3115.595 2486.475 3115.595 H609.525 Z"/></g><g id="Semibold-L" transform="matrix(1 0 0 1 1970.27 1556)"><path d="M1692.089775 2631.564425 Q1751.481375 2631.564425 1791.8487 2590.110275 Q1832.21925 2548.65935 1832.21925 2490.90605 Q1832.21925 2433.1559749999997 1792.0422 2392.421 Q1751.8651500000003 2351.68925 1692.4735500000002 2351.68925 Q1633.08195 2351.68925 1592.7114 2391.8662999999997 Q1552.344075 2432.04335 1552.344075 2491.43495 Q1552.344075 2548.275575 1592.521125 2589.92 Q1632.698175 2631.564425 1692.089775 2631.564425 Z M2166.3744 2631.564425 Q2224.1277 2631.564425 2264.8594500000004 2590.110275 Q2305.5944250000002 2548.65935 2305.5944250000002 2490.90605 Q2305.5944250000002 2433.1559749999997 2265.417375 2392.421 Q2225.2403249999998 2351.68925 2165.8487250000003 2351.68925 Q2109.0081 2351.68925 2067.363675 2391.8662999999997 Q2025.71925 2432.04335 2025.71925 2491.43495 Q2025.71925 2548.275575 2067.1701749999997 2589.92 Q2108.624325 2631.564425 2166.3744 2631.564425 Z M341.427525 1858.8254000000002 V664.875575 Q341.427525 559.289075 416.750625 483.43062499999996 Q492.07050000000004 407.57540000000006 596.905575 407.57540000000006 H2499.0944250000002 Q2604.680925 407.57540000000006 2680.539375 483.43062499999996 Q2756.3946 559.289075 2756.3946 664.875575 V1858.8254000000002 H2499.0944250000002 V664.875575 Q2499.0944250000002 664.875575 2499.0944250000002 664.875575 Q2499.0944250000002 664.875575 2499.0944250000002 664.875575 H596.905575 Q596.905575 664.875575 596.905575 664.875575 Q596.905575 664.875575 596.905575 664.875575 V1858.8254000000002 H341.427525 Z M596.905575 2116.125575 V2825.064425 Q596.905575 2825.064425 596.905575 2825.064425 Q596.905575 2825.064425 596.905575 2825.064425 H2499.0944250000002 Q2499.0944250000002 2825.064425 2499.0944250000002 2825.064425 Q2499.0944250000002 2825.064425 2499.0944250000002 2825.064425 V2116.125575 H596.905575 Z M596.905575 3080.5424749999997 Q492.07050000000004 3080.5424749999997 416.750625 3005.219375 Q341.427525 2929.8995 341.427525 2825.064425 V1858.8254000000002 H2756.3946 V2825.064425 Q2756.3946 2929.8995 2680.539375 3005.219375 Q2604.680925 3080.5424749999997 2499.0944250000002 3080.5424749999997 H596.905575 Z"/></g><g id="Medium-L" transform="matrix(1 0 0 1 1674.31 1556)"><path d="M1720.5955500000002 2641.0298 Q1777.3523249999998 2641.0298 1815.8298 2602.0943749999997 Q1854.30405 2563.15895 1854.30405 2507.098775 Q1854.30405 2451.035375 1815.910425 2412.4031 Q1777.5168 2373.77405 1720.7567999999999 2373.77405 Q1664.0000250000003 2373.77405 1625.525775 2412.167675 Q1587.051525 2450.564525 1587.051525 2507.3213 Q1587.051525 2562.9977 1625.44515 2602.01375 Q1663.838775 2641.0298 1720.5955500000002 2641.0298 Z M2181.735075 2641.0298 Q2237.798475 2641.0298 2276.43075 2602.0943749999997 Q2315.0598 2563.15895 2315.0598 2507.098775 Q2315.0598 2451.035375 2276.666175 2412.4031 Q2238.269325 2373.77405 2181.51255 2373.77405 Q2125.83615 2373.77405 2086.8201 2412.167675 Q2047.80405 2450.564525 2047.80405 2507.3213 Q2047.80405 2562.9977 2086.7394750000003 2602.01375 Q2125.671675 2641.0298 2181.735075 2641.0298 Z M367.72095 1886.1669500000003 V655.4102 Q367.72095 566.0873750000001 433.075575 500.503775 Q498.433425 434.91695000000004 587.4402 434.91695000000004 H2508.5598 Q2597.8826249999997 434.91695000000004 2663.466225 500.503775 Q2729.05305 566.0873750000001 2729.05305 655.4102 V1886.1669500000003 H2508.5598 V655.4102 Q2508.5598 655.4102 2508.5598 655.4102 Q2508.5598 655.4102 2508.5598 655.4102 H587.4402 Q587.4402 655.4102 587.4402 655.4102 Q587.4402 655.4102 587.4402 655.4102 V1886.1669500000003 H367.72095 Z M587.4402 2106.6602000000003 V2834.5298 Q587.4402 2834.5298 587.4402 2834.5298 Q587.4402 2834.5298 587.4402 2834.5298 H2508.5598 Q2508.5598 2834.5298 2508.5598 2834.5298 Q2508.5598 2834.5298 2508.5598 2834.5298 V2106.6602000000003 H587.4402 Z M587.4402 3054.24905 Q498.433425 3054.24905 433.075575 2988.894425 Q367.72095 2923.536575 367.72095 2834.5298 V1886.1669500000003 H2729.05305 V2834.5298 Q2729.05305 2923.536575 2663.466225 2988.894425 Q2597.8826249999997 3054.24905 2508.5598 3054.24905 H587.4402 Z"/></g><g id="Regular-L" transform="matrix(1 0 0 1 1378.56 1556)"><path d="M1741.5 2647.97 Q1796.325 2647.97 1833.4125000000001 2610.8825 Q1870.5 2573.795 1870.5 2518.97 Q1870.5 2464.145 1833.4125000000001 2427.0575 Q1796.325 2389.97 1741.5 2389.97 Q1686.675 2389.97 1649.5875 2427.0575 Q1612.5 2464.145 1612.5 2518.97 Q1612.5 2573.795 1649.5875 2610.8825 Q1686.675 2647.97 1741.5 2647.97 Z M2193.0 2647.97 Q2247.8250000000003 2647.97 2284.9125 2610.8825 Q2322.0 2573.795 2322.0 2518.97 Q2322.0 2464.145 2284.9125 2427.0575 Q2247.8250000000003 2389.97 2193.0 2389.97 Q2138.175 2389.97 2101.0875 2427.0575 Q2064.0 2464.145 2064.0 2518.97 Q2064.0 2573.795 2101.0875 2610.8825 Q2138.175 2647.97 2193.0 2647.97 Z M387.0 1906.2200000000003 V648.47 Q387.0 571.07 445.05 513.02 Q503.1 454.97 580.5 454.97 H2515.5 Q2592.9 454.97 2650.9500000000003 513.02 Q2709.0 571.07 2709.0 648.47 V1906.2200000000003 H2515.5 V648.47 Q2515.5 648.47 2515.5 648.47 Q2515.5 648.47 2515.5 648.47 H580.5 Q580.5 648.47 580.5 648.47 Q580.5 648.47 580.5 648.47 V1906.2200000000003 H387.0 Z M580.5 2099.72 V2841.47 Q580.5 2841.47 580.5 2841.47 Q580.5 2841.47 580.5 2841.47 H2515.5 Q2515.5 2841.47 2515.5 2841.47 Q2515.5 2841.47 2515.5 2841.47 V2099.72 H580.5 Z M580.5 3034.97 Q503.1 3034.97 445.05 2976.92 Q387.0 2918.87 387.0 2841.47 V1906.2200000000003 H2709.0 V2841.47 Q2709.0 2918.87 2650.9500000000003 2976.92 Q2592.9 3034.97 2515.5 3034.97 H580.5 Z"/></g><g id="Light-L" transform="matrix(1 0 0 1 1082.77 1556)"><path d="M1753.90335 2623.1600750000002 Q1801.288275 2623.1600750000002 1834.654125 2589.794225 Q1868.019975 2556.428375 1868.019975 2509.046675 Q1868.019975 2461.664975 1834.654125 2428.299125 Q1801.288275 2394.933275 1753.90335 2394.933275 Q1706.5216500000001 2394.933275 1673.1558 2428.299125 Q1639.78995 2461.664975 1639.78995 2509.046675 Q1639.78995 2556.428375 1673.1558 2589.794225 Q1706.5216500000001 2623.1600750000002 1753.90335 2623.1600750000002 Z M2183.0766750000003 2623.1600750000002 Q2230.458375 2623.1600750000002 2263.8242250000003 2589.794225 Q2297.190075 2556.428375 2297.190075 2509.046675 Q2297.190075 2461.664975 2263.8242250000003 2428.299125 Q2230.458375 2394.933275 2183.0766750000003 2394.933275 Q2135.694975 2394.933275 2102.329125 2428.299125 Q2068.963275 2461.664975 2068.963275 2509.046675 Q2068.963275 2556.428375 2102.329125 2589.794225 Q2135.694975 2623.1600750000002 2183.0766750000003 2623.1600750000002 Z M451.50322500000004 1929.7883000000002 V705.53315 Q451.50322500000004 629.652125 506.592675 574.562675 Q561.682125 519.4732250000001 637.56315 519.4732250000001 H2458.43685 Q2534.317875 519.4732250000001 2589.407325 574.562675 Q2644.496775 629.652125 2644.496775 705.53315 V1929.7883000000002 H2498.133375 V705.53315 Q2498.133375 690.64655 2485.7300250000003 678.239975 Q2473.3234500000003 665.836625 2458.43685 665.836625 H637.56315 Q622.67655 665.836625 610.269975 678.239975 Q597.866625 690.64655 597.866625 705.53315 V1929.7883000000002 H451.50322500000004 Z M597.866625 2076.1517 V2784.4068500000003 Q597.866625 2799.29345 610.269975 2811.700025 Q622.67655 2824.103375 637.56315 2824.103375 H2458.43685 Q2473.3234500000003 2824.103375 2485.7300250000003 2811.700025 Q2498.133375 2799.29345 2498.133375 2784.4068500000003 V2076.1517 H597.866625 Z M637.56315 2970.466775 Q561.682125 2970.466775 506.592675 2915.377325 Q451.50322500000004 2860.287875 451.50322500000004 2784.4068500000003 V1929.7883000000002 H2644.496775 V2784.4068500000003 Q2644.496775 2860.287875 2589.407325 2915.377325 Q2534.317875 2970.466775 2458.43685 2970.466775 H637.56315 Z M597.866625 1929.7883000000002 Q597.866625 1929.7883000000002 610.269975 1929.7883000000002 Q622.67655 1929.7883000000002 637.56315 1929.7883000000002 H2458.43685 Q2473.3234500000003 1929.7883000000002 2485.7300250000003 1929.7883000000002 Q2498.133375 1929.7883000000002 2498.133375 1929.7883000000002 H597.866625 Z M597.866625 2076.1517 H2498.133375 Q2498.133375 2076.1517 2485.7300250000003 2076.1517 Q2473.3234500000003 2076.1517 2458.43685 2076.1517 H637.56315 Q622.67655 2076.1517 610.269975 2076.1517 Q597.866625 2076.1517 597.866625 2076.1517 Z"/></g><g id="Thin-L" transform="matrix(1 0 0 1 787.282 1556)"><path d="M1766.3067 2598.353375 Q1806.248325 2598.353375 1835.892525 2568.709175 Q1865.53995 2539.064975 1865.53995 2499.12335 Q1865.53995 2459.18495 1835.892525 2429.537525 Q1806.248325 2399.893325 1766.3067 2399.893325 Q1726.3683 2399.893325 1696.720875 2429.537525 Q1667.076675 2459.18495 1667.076675 2499.12335 Q1667.076675 2539.064975 1696.720875 2568.709175 Q1726.3683 2598.353375 1766.3067 2598.353375 Z M2173.15335 2598.353375 Q2213.094975 2598.353375 2242.739175 2568.709175 Q2272.383375 2539.064975 2272.383375 2499.12335 Q2272.383375 2459.18495 2242.739175 2429.537525 Q2213.094975 2399.893325 2173.15335 2399.893325 Q2133.21495 2399.893325 2103.567525 2429.537525 Q2073.923325 2459.18495 2073.923325 2499.12335 Q2073.923325 2539.064975 2103.567525 2568.709175 Q2133.21495 2598.353375 2173.15335 2598.353375 Z M516.0 1953.3533750000001 V762.5834000000001 Q516.0 688.2245750000001 568.125675 636.095675 Q620.254575 583.97 694.6134 583.97 H2401.3866 Q2475.745425 583.97 2527.874325 636.095675 Q2580.0 688.2245750000001 2580.0 762.5834000000001 V1953.3533750000001 H2480.769975 V762.5834000000001 Q2480.769975 732.81665 2455.963275 708.0067250000001 Q2431.15335 683.2000250000001 2401.3866 683.2000250000001 H694.6134 Q664.84665 683.2000250000001 640.036725 708.0067250000001 Q615.2300250000001 732.81665 615.2300250000001 762.5834000000001 V1953.3533750000001 H516.0 Z M615.2300250000001 2052.586625 V2727.3566 Q615.2300250000001 2757.12335 640.036725 2781.933275 Q664.84665 2806.739975 694.6134 2806.739975 H2401.3866 Q2431.15335 2806.739975 2455.963275 2781.933275 Q2480.769975 2757.12335 2480.769975 2727.3566 V2052.586625 H615.2300250000001 Z M694.6134 2905.97 Q620.254575 2905.97 568.125675 2853.844325 Q516.0 2801.715425 516.0 2727.3566 V1953.3533750000001 H2580.0 V2727.3566 Q2580.0 2801.715425 2527.874325 2853.844325 Q2475.745425 2905.97 2401.3866 2905.97 H694.6134 Z M615.2300250000001 1953.3533750000001 Q615.2300250000001 1953.3533750000001 640.036725 1953.3533750000001 Q664.84665 1953.3533750000001 694.6134 1953.3533750000001 H2401.3866 Q2431.15335 1953.3533750000001 2455.963275 1953.3533750000001 Q2480.769975 1953.3533750000001 2480.769975 1953.3533750000001 H615.2300250000001 Z M615.2300250000001 2052.586625 H2480.769975 Q2480.769975 2052.586625 2455.963275 2052.586625 Q2431.15335 2052.586625 2401.3866 2052.586625 H694.6134 Q664.84665 2052.586625 640.036725 2052.586625 Q615.2300250000001 2052.586625 615.2300250000001 2052.586625 Z"/></g><g id="Ultralight-L" transform="matrix(1 0 0 1 491.205 1556)"><path d="M1773.75 2583.47 Q1809.2250000000001 2583.47 1836.6375 2556.0575 Q1864.05 2528.645 1864.05 2493.17 Q1864.05 2457.695 1836.6375 2430.2825 Q1809.2250000000001 2402.87 1773.75 2402.87 Q1738.275 2402.87 1710.8625 2430.2825 Q1683.45 2457.695 1683.45 2493.17 Q1683.45 2528.645 1710.8625 2556.0575 Q1738.275 2583.47 1773.75 2583.47 Z M2167.2000000000003 2583.47 Q2202.675 2583.47 2230.0875 2556.0575 Q2257.5 2528.645 2257.5 2493.17 Q2257.5 2457.695 2230.0875 2430.2825 Q2202.675 2402.87 2167.2000000000003 2402.87 Q2131.725 2402.87 2104.3125 2430.2825 Q2076.9 2457.695 2076.9 2493.17 Q2076.9 2528.645 2104.3125 2556.0575 Q2131.725 2583.47 2167.2000000000003 2583.47 Z M554.7 1967.495 V796.82 Q554.7 723.3706250000001 605.051925 673.0187 Q655.400625 622.6700000000001 728.85 622.6700000000001 H2367.15 Q2440.599375 622.6700000000001 2490.9513 673.0187 Q2541.3 723.3706250000001 2541.3 796.82 V1967.495 H2470.35 V796.82 Q2470.35 758.12 2438.1 725.87 Q2405.85 693.62 2367.15 693.62 H728.85 Q690.15 693.62 657.9 725.87 Q625.65 758.12 625.65 796.82 V1967.495 H554.7 Z M625.65 2038.4450000000002 V2693.12 Q625.65 2731.82 657.9 2764.07 Q690.15 2796.32 728.85 2796.32 H2367.15 Q2405.85 2796.32 2438.1 2764.07 Q2470.35 2731.82 2470.35 2693.12 V2038.4450000000002 H625.65 Z M728.85 2867.27 Q655.400625 2867.27 605.051925 2816.9213 Q554.7 2766.569375 554.7 2693.12 V1967.495 H2541.3 V2693.12 Q2541.3 2766.569375 2490.9513 2816.9213 Q2440.599375 2867.27 2367.15 2867.27 H728.85 Z"/></g><g id="Bold-M" transform="matrix(1 0 0 1 2281.8 1126)"><path d="M2620.0 4124.77 Q2722.0 4124.77 2791.0 4052.27 Q2860.0 3979.77 2860.0 3882.27 Q2860.0 3784.77 2791.0 3714.77 Q2722.0 3644.77 2620.0 3644.77 Q2518.0 3644.77 2449.0 3713.77 Q2380.0 3782.77 2380.0 3884.77 Q2380.0 3979.77 2449.0 4052.27 Q2518.0 4124.77 2620.0 4124.77 Z M3302.5 4124.77 Q3400.0 4124.77 3470.0 4052.27 Q3540.0 3979.77 3540.0 3882.27 Q3540.0 3784.77 3471.0 3714.77 Q3402.0 3644.77 3300.0 3644.77 Q3205.0 3644.77 3132.5 3713.77 Q3060.0 3782.77 3060.0 3884.77 Q3060.0 3979.77 3132.5 4052.27 Q3205.0 4124.77 3302.5 4124.77 Z M430.0 2814.77 V1244.77 Q430.0 979.77 612.5 797.27 Q795.0 614.77 1060.0 614.77 H3740.0 Q4005.0 614.77 4187.5 797.27 Q4370.0 979.77 4370.0 1244.77 V2814.77 H3740.0 V1244.77 Q3740.0 1244.77 3740.0 1244.77 Q3740.0 1244.77 3740.0 1244.77 H1060.0 Q1060.0 1244.77 1060.0 1244.77 Q1060.0 1244.77 1060.0 1244.77 V2814.77 H430.0 Z M1060.0 3444.77 V4324.77 Q1060.0 4324.77 1060.0 4324.77 Q1060.0 4324.77 1060.0 4324.77 H3740.0 Q3740.0 4324.77 3740.0 4324.77 Q3740.0 4324.77 3740.0 4324.77 V3444.77 H1060.0 Z M1060.0 4954.77 Q795.0 4954.77 612.5 4772.27 Q430.0 4589.77 430.0 4324.77 V2814.77 H4370.0 V4324.77 Q4370.0 4589.77 4187.5 4772.27 Q4005.0 4954.77 3740.0 4954.77 H1060.0 Z"/></g><g id="Semibold-M" transform="matrix(1 0 0 1 1985.97 1126)"><path d="M2698.2549999999997 4150.8550000000005 Q2792.865 4150.8550000000005 2856.8650000000002 4084.8749999999995 Q2920.865 4018.9 2920.865 3926.8300000000004 Q2920.865 3834.765 2856.8650000000002 3770.2000000000003 Q2792.865 3705.6349999999998 2698.2549999999997 3705.6349999999998 Q2603.6450000000004 3705.6349999999998 2539.645 3769.6349999999998 Q2475.645 3833.635 2475.645 3928.2450000000003 Q2475.645 4018.9 2539.645 4084.8749999999995 Q2603.6450000000004 4150.8550000000005 2698.2549999999997 4150.8550000000005 Z M3344.89 4150.8550000000005 Q3436.955 4150.8550000000005 3501.52 4084.8749999999995 Q3566.085 4018.9 3566.085 3926.8300000000004 Q3566.085 3834.765 3502.085 3770.2000000000003 Q3438.085 3705.6349999999998 3343.4750000000004 3705.6349999999998 Q3252.8250000000003 3705.6349999999998 3186.8450000000003 3769.6349999999998 Q3120.865 3833.635 3120.865 3928.2450000000003 Q3120.865 4018.9 3186.8450000000003 4084.8749999999995 Q3252.8250000000003 4150.8550000000005 3344.89 4150.8550000000005 Z M503.90999999999997 2888.6800000000003 V1218.685 Q503.90999999999997 997.1600000000001 658.15 842.92 Q812.3900000000001 688.6800000000001 1033.915 688.6800000000001 H3766.085 Q3987.61 688.6800000000001 4141.85 842.92 Q4296.09 997.1600000000001 4296.09 1218.685 V2888.6800000000003 H3766.085 V1218.685 Q3766.085 1218.685 3766.085 1218.685 Q3766.085 1218.685 3766.085 1218.685 H1033.915 Q1033.915 1218.685 1033.915 1218.685 Q1033.915 1218.685 1033.915 1218.685 V2888.6800000000003 H503.90999999999997 Z M1033.915 3418.685 V4350.8550000000005 Q1033.915 4350.8550000000005 1033.915 4350.8550000000005 Q1033.915 4350.8550000000005 1033.915 4350.8550000000005 H3766.085 Q3766.085 4350.8550000000005 3766.085 4350.8550000000005 Q3766.085 4350.8550000000005 3766.085 4350.8550000000005 V3418.685 H1033.915 Z M1033.915 4880.860000000001 Q812.3900000000001 4880.860000000001 658.15 4726.620000000001 Q503.90999999999997 4572.380000000001 503.90999999999997 4350.8550000000005 V2888.6800000000003 H4296.09 V4350.8550000000005 Q4296.09 4572.380000000001 4141.85 4726.620000000001 Q3987.61 4880.860000000001 3766.085 4880.860000000001 H1033.915 Z"/></g><g id="Medium-M" transform="matrix(1 0 0 1 1689.91 1126)"><path d="M2756.955 4170.42 Q2846.0199999999995 4170.42 2906.27 4109.335000000001 Q2966.52 4048.2500000000005 2966.52 3960.2599999999998 Q2966.52 3872.27 2906.27 3811.78 Q2846.0199999999995 3751.29 2756.955 3751.29 Q2667.89 3751.29 2607.6400000000003 3811.5400000000004 Q2547.39 3871.79 2547.39 3960.855 Q2547.39 4048.2500000000005 2607.6400000000003 4109.335000000001 Q2667.89 4170.42 2756.955 4170.42 Z M3376.685 4170.42 Q3464.6749999999997 4170.42 3525.165 4109.335000000001 Q3585.65 4048.2500000000005 3585.65 3960.2599999999998 Q3585.65 3872.27 3525.4 3811.78 Q3465.1499999999996 3751.29 3376.085 3751.29 Q3288.695 3751.29 3227.61 3811.5400000000004 Q3166.52 3871.79 3166.52 3960.855 Q3166.52 4048.2500000000005 3227.61 4109.335000000001 Q3288.695 4170.42 3376.685 4170.42 Z M559.345 2944.1150000000002 V1199.12 Q559.345 1010.2049999999999 692.3900000000001 877.1600000000001 Q825.435 744.115 1014.35 744.115 H3785.65 Q3974.565 744.115 4107.610000000001 877.1600000000001 Q4240.655 1010.2049999999999 4240.655 1199.12 V2944.1150000000002 H3785.65 V1199.12 Q3785.65 1199.12 3785.65 1199.12 Q3785.65 1199.12 3785.65 1199.12 H1014.35 Q1014.35 1199.12 1014.35 1199.12 Q1014.35 1199.12 1014.35 1199.12 V2944.1150000000002 H559.345 Z M1014.35 3399.12 V4370.42 Q1014.35 4370.42 1014.35 4370.42 Q1014.35 4370.42 1014.35 4370.42 H3785.65 Q3785.65 4370.42 3785.65 4370.42 Q3785.65 4370.42 3785.65 4370.42 V3399.12 H1014.35 Z M1014.35 4825.425 Q825.435 4825.425 692.3900000000001 4692.380000000001 Q559.345 4559.335000000001 559.345 4370.42 V2944.1150000000002 H4240.655 V4370.42 Q4240.655 4559.335000000001 4107.610000000001 4692.380000000001 Q3974.565 4825.425 3785.65 4825.425 H1014.35 Z"/></g><g id="Regular-M" transform="matrix(1 0 0 1 1394.06 1126)"><path d="M2800.0 4184.77 Q2885.0 4184.77 2942.5 4127.27 Q3000.0 4069.77 3000.0 3984.77 Q3000.0 3899.77 2942.5 3842.27 Q2885.0 3784.77 2800.0 3784.77 Q2715.0 3784.77 2657.5 3842.27 Q2600.0 3899.77 2600.0 3984.77 Q2600.0 4069.77 2657.5 4127.27 Q2715.0 4184.77 2800.0 4184.77 Z M3400.0 4184.77 Q3485.0 4184.77 3542.5 4127.27 Q3600.0 4069.77 3600.0 3984.77 Q3600.0 3899.77 3542.5 3842.27 Q3485.0 3784.77 3400.0 3784.77 Q3315.0 3784.77 3257.5 3842.27 Q3200.0 3899.77 3200.0 3984.77 Q3200.0 4069.77 3257.5 4127.27 Q3315.0 4184.77 3400.0 4184.77 Z M600.0 2984.77 V1184.77 Q600.0 1019.77 717.5 902.27 Q835.0 784.77 1000.0 784.77 H3800.0 Q3965.0 784.77 4082.5 902.27 Q4200.0 1019.77 4200.0 1184.77 V2984.77 H3800.0 V1184.77 Q3800.0 1184.77 3800.0 1184.77 Q3800.0 1184.77 3800.0 1184.77 H1000.0 Q1000.0 1184.77 1000.0 1184.77 Q1000.0 1184.77 1000.0 1184.77 V2984.77 H600.0 Z M1000.0 3384.77 V4384.77 Q1000.0 4384.77 1000.0 4384.77 Q1000.0 4384.77 1000.0 4384.77 H3800.0 Q3800.0 4384.77 3800.0 4384.77 Q3800.0 4384.77 3800.0 4384.77 V3384.77 H1000.0 Z M1000.0 4784.77 Q835.0 4784.77 717.5 4667.27 Q600.0 4549.77 600.0 4384.77 V2984.77 H4200.0 V4384.77 Q4200.0 4549.77 4082.5 4667.27 Q3965.0 4784.77 3800.0 4784.77 H1000.0 Z"/></g><g id="Light-M" transform="matrix(1 0 0 1 1098.18 1126)"><path d="M2792.3050000000003 4146.305 Q2865.77 4146.305 2917.5 4094.5750000000003 Q2969.23 4042.845 2969.23 3969.3849999999998 Q2969.23 3895.9249999999997 2917.5 3844.195 Q2865.77 3792.4649999999997 2792.3050000000003 3792.4649999999997 Q2718.8450000000003 3792.4649999999997 2667.115 3844.195 Q2615.385 3895.9249999999997 2615.385 3969.3849999999998 Q2615.385 4042.845 2667.115 4094.5750000000003 Q2718.8450000000003 4146.305 2792.3050000000003 4146.305 Z M3384.615 4146.305 Q3458.075 4146.305 3509.8050000000003 4094.5750000000003 Q3561.535 4042.845 3561.535 3969.3849999999998 Q3561.535 3895.9249999999997 3509.8050000000003 3844.195 Q3458.075 3792.4649999999997 3384.615 3792.4649999999997 Q3311.1549999999997 3792.4649999999997 3259.425 3844.195 Q3207.6949999999997 3895.9249999999997 3207.6949999999997 3969.3849999999998 Q3207.6949999999997 4042.845 3259.425 4094.5750000000003 Q3311.1549999999997 4146.305 3384.615 4146.305 Z M700.005 3034.775 V1246.315 Q700.005 1094.775 805.005 989.7750000000001 Q910.005 884.775 1061.545 884.775 H3738.455 Q3889.995 884.775 3994.995 989.7750000000001 Q4099.995 1094.775 4099.995 1246.315 V3034.775 H3800.0 V1246.315 Q3800.0 1223.235 3780.77 1204.0 Q3761.535 1184.77 3738.455 1184.77 H1061.545 Q1038.4650000000001 1184.77 1019.23 1204.0 Q1000.0 1223.235 1000.0 1246.315 V3034.775 H700.005 Z M1000.0 3334.765 V4323.225 Q1000.0 4346.305 1019.23 4365.540000000001 Q1038.4650000000001 4384.77 1061.545 4384.77 H3738.455 Q3761.535 4384.77 3780.77 4365.540000000001 Q3800.0 4346.305 3800.0 4323.225 V3334.765 H1000.0 Z M1061.545 4684.765 Q910.005 4684.765 805.005 4579.765 Q700.005 4474.765 700.005 4323.225 V3034.775 H4099.995 V4323.225 Q4099.995 4474.765 3994.995 4579.765 Q3889.995 4684.765 3738.455 4684.765 H1061.545 Z M1000.0 3034.775 Q1000.0 3034.775 1019.23 3034.775 Q1038.4650000000001 3034.775 1061.545 3034.775 H3738.455 Q3761.535 3034.775 3780.77 3034.775 Q3800.0 3034.775 3800.0 3034.775 H1000.0 Z M1000.0 3334.765 H3800.0 Q3800.0 3334.765 3780.77 3334.765 Q3761.535 3334.765 3738.455 3334.765 H1061.545 Q1038.4650000000001 3334.765 1019.23 3334.765 Q1000.0 3334.765 1000.0 3334.765 Z"/></g><g id="Thin-M" transform="matrix(1 0 0 1 802.565 1126)"><path d="M2784.615 4107.845 Q2846.54 4107.845 2892.5 4061.8849999999998 Q2938.46 4015.9249999999997 2938.46 3954.0 Q2938.46 3892.08 2892.5 3846.1150000000002 Q2846.54 3800.155 2784.615 3800.155 Q2722.69 3800.155 2676.73 3846.1150000000002 Q2630.77 3892.08 2630.77 3954.0 Q2630.77 4015.9249999999997 2676.73 4061.8849999999998 Q2722.69 4107.845 2784.615 4107.845 Z M3369.23 4107.845 Q3431.1549999999997 4107.845 3477.115 4061.8849999999998 Q3523.075 4015.9249999999997 3523.075 3954.0 Q3523.075 3892.08 3477.115 3846.1150000000002 Q3431.1549999999997 3800.155 3369.23 3800.155 Q3307.31 3800.155 3261.3450000000003 3846.1150000000002 Q3215.385 3892.08 3215.385 3954.0 Q3215.385 4015.9249999999997 3261.3450000000003 4061.8849999999998 Q3307.31 4107.845 3369.23 4107.845 Z M800.0 3084.77 V1307.845 Q800.0 1169.77 892.5 1077.27 Q985.0 984.77 1123.075 984.77 H3676.925 Q3815.0 984.77 3907.5 1077.27 Q4000.0 1169.77 4000.0 1307.845 V3084.77 H3800.0 V1307.845 Q3800.0 1261.695 3761.54 1223.23 Q3723.075 1184.77 3676.925 1184.77 H1123.075 Q1076.925 1184.77 1038.46 1223.23 Q1000.0 1261.695 1000.0 1307.845 V3084.77 H800.0 Z M1000.0 3284.77 V4261.695000000001 Q1000.0 4307.845 1038.46 4346.31 Q1076.925 4384.77 1123.075 4384.77 H3676.925 Q3723.075 4384.77 3761.54 4346.31 Q3800.0 4307.845 3800.0 4261.695000000001 V3284.77 H1000.0 Z M1123.075 4584.77 Q985.0 4584.77 892.5 4492.27 Q800.0 4399.77 800.0 4261.695000000001 V3084.77 H4000.0 V4261.695000000001 Q4000.0 4399.77 3907.5 4492.27 Q3815.0 4584.77 3676.925 4584.77 H1123.075 Z M1000.0 3084.77 Q1000.0 3084.77 1038.46 3084.77 Q1076.925 3084.77 1123.075 3084.77 H3676.925 Q3723.075 3084.77 3761.54 3084.77 Q3800.0 3084.77 3800.0 3084.77 H1000.0 Z M1000.0 3284.77 H3800.0 Q3800.0 3284.77 3761.54 3284.77 Q3723.075 3284.77 3676.925 3284.77 H1123.075 Q1076.925 3284.77 1038.46 3284.77 Q1000.0 3284.77 1000.0 3284.77 Z"/></g><g id="Ultralight-M" transform="matrix(1 0 0 1 506.415 1126)"><path d="M2780.0 4084.77 Q2835.0 4084.77 2877.5 4042.27 Q2920.0 3999.77 2920.0 3944.77 Q2920.0 3889.77 2877.5 3847.27 Q2835.0 3804.77 2780.0 3804.77 Q2725.0 3804.77 2682.5 3847.27 Q2640.0 3889.77 2640.0 3944.77 Q2640.0 3999.77 2682.5 4042.27 Q2725.0 4084.77 2780.0 4084.77 Z M3360.0 4084.77 Q3415.0 4084.77 3457.5 4042.27 Q3500.0 3999.77 3500.0 3944.77 Q3500.0 3889.77 3457.5 3847.27 Q3415.0 3804.77 3360.0 3804.77 Q3305.0 3804.77 3262.5 3847.27 Q3220.0 3889.77 3220.0 3944.77 Q3220.0 3999.77 3262.5 4042.27 Q3305.0 4084.77 3360.0 4084.77 Z M860.0 3114.77 V1344.77 Q860.0 1214.77 945.0 1129.77 Q1030.0 1044.77 1160.0 1044.77 H3640.0 Q3770.0 1044.77 3855.0 1129.77 Q3940.0 1214.77 3940.0 1344.77 V3114.77 H3800.0 V1344.77 Q3800.0 1284.77 3750.0 1234.77 Q3700.0 1184.77 3640.0 1184.77 H1160.0 Q1100.0 1184.77 1050.0 1234.77 Q1000.0 1284.77 1000.0 1344.77 V3114.77 H860.0 Z M1000.0 3254.77 V4224.77 Q1000.0 4284.77 1050.0 4334.77 Q1100.0 4384.77 1160.0 4384.77 H3640.0 Q3700.0 4384.77 3750.0 4334.77 Q3800.0 4284.77 3800.0 4224.77 V3254.77 H1000.0 Z M1160.0 4524.77 Q1030.0 4524.77 945.0 4439.77 Q860.0 4354.77 860.0 4224.77 V3114.77 H3940.0 V4224.77 Q3940.0 4354.77 3855.0 4439.77 Q3770.0 4524.77 3640.0 4524.77 H1160.0 Z"/></g><g id="Bold-S" transform="matrix(1 0 0 1 2294.23 696)"><path d="M2612.169126 3837.182 Q2700.2736 3837.182 2760.8688 3774.271874 Q2821.464 3711.357014 2821.464 3627.5178739999997 Q2821.464 3543.674 2761.8676739999996 3482.1319999999996 Q2702.266614 3420.5899999999997 2614.166874 3420.5899999999997 Q2526.0624000000003 3420.5899999999997 2465.4671999999996 3480.186326 Q2404.872 3539.7873859999995 2404.872 3627.8871259999996 Q2404.872 3709.364 2464.468326 3773.2729999999997 Q2524.0693859999997 3837.182 2612.169126 3837.182 Z M3144.744126 3837.182 Q3228.588 3837.182 3290.13 3774.271874 Q3351.672 3711.357014 3351.672 3627.5178739999997 Q3351.672 3543.674 3292.0756739999997 3482.1319999999996 Q3232.474614 3420.5899999999997 3144.374874 3420.5899999999997 Q3062.898 3420.5899999999997 2998.989 3480.186326 Q2935.08 3539.7873859999995 2935.08 3627.8871259999996 Q2935.08 3709.364 2997.990126 3773.2729999999997 Q3060.9049859999996 3837.182 3144.744126 3837.182 Z M520.74 2710.49 V1224.0140000000001 Q520.74 987.3140000000001 682.4061 826.358 Q844.0722000000001 665.402 1079.352 665.402 H3465.288 Q3700.5678000000003 665.402 3862.2339 827.0681 Q4023.9 988.7342000000001 4023.9 1224.0140000000001 V2710.49 H3465.288 V1224.0140000000001 Q3465.288 1224.0140000000001 3465.288 1224.0140000000001 Q3465.288 1224.0140000000001 3465.288 1224.0140000000001 H1079.352 Q1079.352 1224.0140000000001 1079.352 1224.0140000000001 Q1079.352 1224.0140000000001 1079.352 1224.0140000000001 V2710.49 H520.74 Z M1079.352 3269.102 V4064.414 Q1079.352 4064.414 1079.352 4064.414 Q1079.352 4064.414 1079.352 4064.414 H3465.288 Q3465.288 4064.414 3465.288 4064.414 Q3465.288 4064.414 3465.288 4064.414 V3269.102 H1079.352 Z M1079.352 4623.026 Q844.0722000000001 4623.026 682.4061 4461.3599 Q520.74 4299.693800000001 520.74 4064.414 V2710.49 H4023.9 V4064.414 Q4023.9 4299.693800000001 3862.2339 4461.3599 Q3700.5678000000003 4623.026 3465.288 4623.026 H1079.352 Z"/></g><g id="Semibold-S" transform="matrix(1 0 0 1 1998.1 696)"><path d="M2686.265694 3861.879278 Q2767.368582 3861.879278 2823.2297820000003 3805.1422879999996 Q2879.090982 3748.4052979999997 2879.090982 3669.707282 Q2879.090982 3591.009266 2824.228656 3534.613124 Q2769.361596 3478.216982 2688.258708 3478.216982 Q2607.1510860000003 3478.216982 2551.289886 3533.084042 Q2495.428686 3587.946368 2495.428686 3669.05399 Q2495.428686 3746.412284 2550.2957460000002 3804.1434139999997 Q2605.158072 3861.879278 2686.265694 3861.879278 Z M3184.878978 3861.879278 Q3263.576994 3861.879278 3319.973136 3805.1422879999996 Q3376.369278 3748.4052979999997 3376.369278 3669.707282 Q3376.369278 3591.009266 3321.506952 3534.613124 Q3266.639892 3478.216982 3185.537004 3478.216982 Q3108.17871 3478.216982 3050.442846 3533.084042 Q2992.706982 3587.946368 2992.706982 3669.05399 Q2992.706982 3746.412284 3049.443972 3804.1434139999997 Q3106.180962 3861.879278 3184.878978 3861.879278 Z M590.717988 2780.467988 V1199.316722 Q590.717988 1003.7788520000001 725.62752 869.57942 Q860.5370519999999 735.3799880000001 1054.654722 735.3799880000001 H3489.985278 Q3684.1029479999997 735.3799880000001 3819.0124800000003 870.28952 Q3953.922012 1005.1990519999999 3953.922012 1199.316722 V2780.467988 H3489.985278 V1199.316722 Q3489.985278 1199.316722 3489.985278 1199.316722 Q3489.985278 1199.316722 3489.985278 1199.316722 H1054.654722 Q1054.654722 1199.316722 1054.654722 1199.316722 Q1054.654722 1199.316722 1054.654722 1199.316722 V2780.467988 H590.717988 Z M1054.654722 3244.4047219999998 V4089.111278 Q1054.654722 4089.111278 1054.654722 4089.111278 Q1054.654722 4089.111278 1054.654722 4089.111278 H3489.985278 Q3489.985278 4089.111278 3489.985278 4089.111278 Q3489.985278 4089.111278 3489.985278 4089.111278 V3244.4047219999998 H1054.654722 Z M1054.654722 4553.048012 Q860.5370519999999 4553.048012 725.62752 4418.1384800000005 Q590.717988 4283.228948 590.717988 4089.111278 V2780.467988 H3953.922012 V4089.111278 Q3953.922012 4283.228948 3819.0124800000003 4418.1384800000005 Q3684.1029479999997 4553.048012 3489.985278 4553.048012 H1054.654722 Z"/></g><g id="Medium-S" transform="matrix(1 0 0 1 1701.85 696)"><path d="M2741.842854 3880.4034199999996 Q2817.6957359999997 3880.4034199999996 2870.006436 3828.2962820000002 Q2922.3171359999997 3776.1938779999996 2922.3171359999997 3701.3540719999996 Q2922.3171359999997 3626.519 2871.00531 3573.981068 Q2819.68875 3521.443136 2743.8358679999997 3521.443136 Q2667.978252 3521.443136 2615.667552 3572.759696 Q2563.356852 3624.0715219999997 2563.356852 3699.9291379999995 Q2563.356852 3774.200864 2614.673412 3827.302142 Q2665.985238 3880.4034199999996 2741.842854 3880.4034199999996 Z M3214.9824839999997 3880.4034199999996 Q3289.8222899999996 3880.4034199999996 3342.3602220000002 3828.2962820000002 Q3394.89342 3776.1938779999996 3394.89342 3701.3540719999996 Q3394.89342 3626.519 3343.581594 3573.981068 Q3292.265034 3521.443136 3216.412152 3521.443136 Q3142.140426 3521.443136 3089.0391480000003 3572.759696 Q3035.9331359999996 3624.0715219999997 3035.9331359999996 3699.9291379999995 Q3035.9331359999996 3774.200864 3088.040274 3827.302142 Q3140.147412 3880.4034199999996 3214.9824839999997 3880.4034199999996 Z M643.203846 2832.953846 V1180.79258 Q643.203846 1016.129858 758.0459519999999 901.997852 Q872.888058 787.8658459999999 1036.13058 787.8658459999999 H3508.50942 Q3671.7519420000003 787.8658459999999 3786.594048 902.707952 Q3901.436154 1017.550058 3901.436154 1180.79258 V2832.953846 H3508.50942 V1180.79258 Q3508.50942 1180.79258 3508.50942 1180.79258 Q3508.50942 1180.79258 3508.50942 1180.79258 H1036.13058 Q1036.13058 1180.79258 1036.13058 1180.79258 Q1036.13058 1180.79258 1036.13058 1180.79258 V2832.953846 H643.203846 Z M1036.13058 3225.88058 V4107.6354200000005 Q1036.13058 4107.6354200000005 1036.13058 4107.6354200000005 Q1036.13058 4107.6354200000005 1036.13058 4107.6354200000005 H3508.50942 Q3508.50942 4107.6354200000005 3508.50942 4107.6354200000005 Q3508.50942 4107.6354200000005 3508.50942 4107.6354200000005 V3225.88058 H1036.13058 Z M1036.13058 4500.562154 Q872.888058 4500.562154 758.0459519999999 4385.720048 Q643.203846 4270.877942000001 643.203846 4107.6354200000005 V2832.953846 H3901.436154 V4107.6354200000005 Q3901.436154 4270.877942000001 3786.594048 4385.720048 Q3671.7519420000003 4500.562154 3508.50942 4500.562154 H1036.13058 Z"/></g><g id="Regular-S" transform="matrix(1 0 0 1 1405.73 696)"><path d="M2782.5931259999998 3893.99 Q2854.602 3893.99 2904.309 3845.281874 Q2954.016 3796.569014 2954.016 3724.5648739999997 Q2954.016 3652.556 2905.307874 3602.8489999999997 Q2856.5950140000004 3553.142 2784.590874 3553.142 Q2712.582 3553.142 2662.875 3601.850126 Q2613.168 3650.5629859999995 2613.168 3722.567126 Q2613.168 3794.576 2661.876126 3844.283 Q2710.5889859999997 3893.99 2782.5931259999998 3893.99 Z M3237.057126 3893.99 Q3309.066 3893.99 3358.773 3845.281874 Q3408.48 3796.569014 3408.48 3724.5648739999997 Q3408.48 3652.556 3359.771874 3602.8489999999997 Q3311.0590140000004 3553.142 3239.054874 3553.142 Q3167.046 3553.142 3117.339 3601.850126 Q3067.632 3650.5629859999995 3067.632 3722.567126 Q3067.632 3794.576 3116.340126 3844.283 Q3165.0529859999997 3893.99 3237.057126 3893.99 Z M681.696 2871.446 V1167.2060000000001 Q681.696 1025.1860000000001 781.8201 925.7719999999999 Q881.9442 826.358 1022.544 826.358 H3522.096 Q3662.6958000000004 826.358 3762.8199 926.4821 Q3862.944 1026.6062000000002 3862.944 1167.2060000000001 V2871.446 H3522.096 V1167.2060000000001 Q3522.096 1167.2060000000001 3522.096 1167.2060000000001 Q3522.096 1167.2060000000001 3522.096 1167.2060000000001 H1022.544 Q1022.544 1167.2060000000001 1022.544 1167.2060000000001 Q1022.544 1167.2060000000001 1022.544 1167.2060000000001 V2871.446 H681.696 Z M1022.544 3212.294 V4121.222000000001 Q1022.544 4121.222000000001 1022.544 4121.222000000001 Q1022.544 4121.222000000001 1022.544 4121.222000000001 H3522.096 Q3522.096 4121.222000000001 3522.096 4121.222000000001 Q3522.096 4121.222000000001 3522.096 4121.222000000001 V3212.294 H1022.544 Z M1022.544 4462.070000000001 Q881.9442 4462.070000000001 781.8201 4361.945900000001 Q681.696 4261.821800000001 681.696 4121.222000000001 V2871.446 H3862.944 V4121.222000000001 Q3862.944 4261.821800000001 3762.8199 4361.945900000001 Q3662.6958000000004 4462.070000000001 3522.096 4462.070000000001 H1022.544 Z"/></g><g id="Light-S" transform="matrix(1 0 0 1 1109.75 696)"><path d="M2775.312234 3857.5713379999997 Q2836.395036 3857.5713379999997 2880.639 3814.326248 Q2924.882964 3771.0764239999994 2924.882964 3709.993622 Q2924.882964 3648.9155539999997 2881.6331400000004 3604.67159 Q2838.38805 3560.4276259999997 2777.305248 3560.4276259999997 Q2716.222446 3560.4276259999997 2671.978482 3603.6727159999996 Q2627.734518 3646.9225399999996 2627.734518 3708.000608 Q2627.734518 3769.0834099999997 2670.9843419999997 3813.327374 Q2714.2294319999996 3857.5713379999997 2775.312234 3857.5713379999997 Z M3222.490608 3857.5713379999997 Q3283.57341 3857.5713379999997 3327.817374 3814.326248 Q3372.061338 3771.0764239999994 3372.061338 3709.993622 Q3372.061338 3648.9155539999997 3328.816248 3604.67159 Q3285.5664239999996 3560.4276259999997 3224.483622 3560.4276259999997 Q3163.405554 3560.4276259999997 3119.16159 3603.6727159999996 Q3074.917626 3646.9225399999996 3074.917626 3708.000608 Q3074.917626 3769.0834099999997 3118.162716 3813.327374 Q3161.41254 3857.5713379999997 3222.490608 3857.5713379999997 Z M776.3807340000001 2918.7907339999997 V1225.4768060000001 Q776.3807340000001 1096.200734 864.669834 1008.6217340000001 Q952.9589339999999 921.0427340000001 1080.814806 921.0427340000001 H3463.825194 Q3591.6810659999996 921.0427340000001 3679.970166 1009.3318340000001 Q3768.259266 1097.620934 3768.259266 1225.4768060000001 V2918.7907339999997 H3522.096 V1225.4768060000001 Q3522.096 1203.624662 3503.889036 1185.412964 Q3485.677338 1167.2060000000001 3463.825194 1167.2060000000001 H1080.814806 Q1058.9626620000001 1167.2060000000001 1040.750964 1185.412964 Q1022.544 1203.624662 1022.544 1225.4768060000001 V2918.7907339999997 H776.3807340000001 Z M1022.544 3164.949266 V4062.9511939999998 Q1022.544 4084.803338 1040.750964 4103.015036000001 Q1058.9626620000001 4121.222000000001 1080.814806 4121.222000000001 H3463.825194 Q3485.677338 4121.222000000001 3503.889036 4103.015036000001 Q3522.096 4084.803338 3522.096 4062.9511939999998 V3164.949266 H1022.544 Z M1080.814806 4367.385266 Q952.9589339999999 4367.385266 864.669834 4279.096166 Q776.3807340000001 4190.807066 776.3807340000001 4062.9511939999998 V2918.7907339999997 H3768.259266 V4062.9511939999998 Q3768.259266 4190.807066 3679.970166 4279.096166 Q3591.6810659999996 4367.385266 3463.825194 4367.385266 H1080.814806 Z M1022.544 2918.7907339999997 Q1022.544 2918.7907339999997 1040.750964 2918.7907339999997 Q1058.9626620000001 2918.7907339999997 1080.814806 2918.7907339999997 H3463.825194 Q3485.677338 2918.7907339999997 3503.889036 2918.7907339999997 Q3522.096 2918.7907339999997 3522.096 2918.7907339999997 H1022.544 Z M1022.544 3164.949266 H3522.096 Q3522.096 3164.949266 3503.889036 3164.949266 Q3485.677338 3164.949266 3463.825194 3164.949266 H1080.814806 Q1058.9626620000001 3164.949266 1040.750964 3164.949266 Q1022.544 3164.949266 1022.544 3164.949266 Z"/></g><g id="Thin-S" transform="matrix(1 0 0 1 814.015 696)"><path d="M2768.0313419999998 3821.15741 Q2818.188072 3821.15741 2856.969 3783.375356 Q2895.749928 3745.588568 2895.749928 3695.431838 Q2895.749928 3645.275108 2857.967874 3606.489446 Q2820.181086 3567.708518 2770.024356 3567.708518 Q2719.862892 3567.708518 2681.081964 3605.495306 Q2642.301036 3643.282094 2642.301036 3693.438824 Q2642.301036 3743.595554 2680.0878239999997 3782.3764819999997 Q2717.869878 3821.15741 2768.0313419999998 3821.15741 Z M3207.9288239999996 3821.15741 Q3258.085554 3821.15741 3296.866482 3783.375356 Q3335.64741 3745.588568 3335.64741 3695.431838 Q3335.64741 3645.275108 3297.8653560000002 3606.489446 Q3260.0785680000004 3567.708518 3209.921838 3567.708518 Q3159.765108 3567.708518 3120.979446 3605.495306 Q3082.198518 3643.282094 3082.198518 3693.438824 Q3082.198518 3743.595554 3119.985306 3782.3764819999997 Q3157.76736 3821.15741 3207.9288239999996 3821.15741 Z M871.056 2966.1259999999997 V1283.73341 Q871.056 1167.2060000000001 947.5101000000001 1091.462 Q1023.9642 1015.7180000000001 1139.07141 1015.7180000000001 H3405.56859 Q3520.6758 1015.7180000000001 3597.1299 1092.1721 Q3673.584 1168.6262000000002 3673.584 1283.73341 V2966.1259999999997 H3522.096 V1283.73341 Q3522.096 1240.03859 3485.682072 1203.619928 Q3449.26341 1167.2060000000001 3405.56859 1167.2060000000001 H1139.07141 Q1095.3765899999999 1167.2060000000001 1058.957928 1203.619928 Q1022.544 1240.03859 1022.544 1283.73341 V2966.1259999999997 H871.056 Z M1022.544 3117.614 V4004.6945899999996 Q1022.544 4048.38941 1058.957928 4084.8080719999994 Q1095.3765899999999 4121.222000000001 1139.07141 4121.222000000001 H3405.56859 Q3449.26341 4121.222000000001 3485.682072 4084.8080719999994 Q3522.096 4048.38941 3522.096 4004.6945899999996 V3117.614 H1022.544 Z M1139.07141 4272.71 Q1023.9642 4272.71 947.5101000000001 4196.2559 Q871.056 4119.8018 871.056 4004.6945899999996 V2966.1259999999997 H3673.584 V4004.6945899999996 Q3673.584 4119.8018 3597.1299 4196.2559 Q3520.6758 4272.71 3405.56859 4272.71 H1139.07141 Z M1022.544 2966.1259999999997 Q1022.544 2966.1259999999997 1058.957928 2966.1259999999997 Q1095.3765899999999 2966.1259999999997 1139.07141 2966.1259999999997 H3405.56859 Q3449.26341 2966.1259999999997 3485.682072 2966.1259999999997 Q3522.096 2966.1259999999997 3522.096 2966.1259999999997 H1022.544 Z M1022.544 3117.614 H3522.096 Q3522.096 3117.614 3485.682072 3117.614 Q3449.26341 3117.614 3405.56859 3117.614 H1139.07141 Q1095.3765899999999 3117.614 1058.957928 3117.614 Q1022.544 3117.614 1022.544 3117.614 Z"/></g><g id="Ultralight-S" transform="matrix(1 0 0 1 517.792 696)"><path d="M2763.657126 3799.31 Q2807.262 3799.31 2842.767 3764.8038739999997 Q2878.272 3730.293014 2878.272 3686.692874 Q2878.272 3643.0879999999997 2843.765874 3607.5829999999996 Q2809.2550140000003 3572.078 2765.654874 3572.078 Q2722.05 3572.078 2686.545 3606.5841259999997 Q2651.04 3641.0949859999996 2651.04 3684.6951259999996 Q2651.04 3728.2999999999997 2685.5461259999997 3763.805 Q2720.0569859999996 3799.31 2763.657126 3799.31 Z M3199.185126 3799.31 Q3242.79 3799.31 3278.295 3764.8038739999997 Q3313.8 3730.293014 3313.8 3686.692874 Q3313.8 3643.0879999999997 3279.293874 3607.5829999999996 Q3244.783014 3572.078 3201.182874 3572.078 Q3157.578 3572.078 3122.073 3606.5841259999997 Q3086.568 3641.0949859999996 3086.568 3684.6951259999996 Q3086.568 3728.2999999999997 3121.074126 3763.805 Q3155.584986 3799.31 3199.185126 3799.31 Z M927.864 2994.5299999999997 V1318.694 Q927.864 1209.8120000000001 997.2171000000001 1141.169 Q1066.5702 1072.526 1174.032 1072.526 H3370.608 Q3478.0698 1072.526 3547.4229 1141.8790999999999 Q3616.776 1211.2322000000001 3616.776 1318.694 V2994.5299999999997 H3522.096 V1318.694 Q3522.096 1261.886 3474.756 1214.546 Q3427.416 1167.2060000000001 3370.608 1167.2060000000001 H1174.032 Q1117.224 1167.2060000000001 1069.884 1214.546 Q1022.544 1261.886 1022.544 1318.694 V2994.5299999999997 H927.864 Z M1022.544 3089.21 V3969.734 Q1022.544 4026.542 1069.884 4073.882 Q1117.224 4121.222000000001 1174.032 4121.222000000001 H3370.608 Q3427.416 4121.222000000001 3474.756 4073.882 Q3522.096 4026.542 3522.096 3969.734 V3089.21 H1022.544 Z M1174.032 4215.902 Q1066.5702 4215.902 997.2171000000001 4146.548900000001 Q927.864 4077.1958 927.864 3969.734 V2994.5299999999997 H3616.776 V3969.734 Q3616.776 4077.1958 3547.4229 4146.548900000001 Q3478.0698 4215.902 3370.608 4215.902 H1174.032 Z"/></g></g></svg>