<svg xmlns="http://www.w3.org/2000/svg" height="20" viewBox="0 96 960 960" width="20"><path d="M606 646h128V506H606v140ZM226 774q-55.725 0-91.863-35.438Q98 703.125 98 646V506q0-57.125 36.137-92.562Q170.275 378 226 378h112q25.9 0 44.95 18.289 19.05 18.29 19.05 45Q402 468 382.95 487T338 506H226v140h112q25.9 0 44.95 18.99Q402 683.979 402 709.789 402 737 382.95 755.5T338 774H226Zm380 0q-57.125 0-92.562-35.438Q478 703.125 478 646V506q0-57.125 35.438-92.562Q548.875 378 606 378h128q57.125 0 92.562 35.438Q862 448.875 862 506v140q0 57.125-35.438 92.562Q791.125 774 734 774H606Z"/></svg>