<svg xmlns="http://www.w3.org/2000/svg" height="24" viewBox="0 -960 960 960" width="24"><path d="M375.574-455.827h208.852q17.921 0 30.269 12.348 12.348 12.348 12.348 29.913 0 17.565-12.348 29.913-12.348 12.348-30.269 12.348H375.574q-17.921 0-30.269-12.348-12.348-12.348-12.348-29.913 0-17.565 12.348-29.913 12.348-12.348 30.269-12.348Zm0 122.826h208.852q17.921 0 30.269 12.348 12.348 12.348 12.348 29.913 0 17.566-12.348 29.913-12.348 12.348-30.269 12.348H375.574q-17.921 0-30.269-12.348-12.348-12.347-12.348-29.913 0-17.565 12.348-29.913 12.348-12.348 30.269-12.348Zm0 123.392h209.417q17.921 0 29.986 12.065 12.066 12.065 12.066 29.631 0 17.565-12.066 29.913-12.065 12.348-29.986 12.348H375.009q-17.921 0-29.986-12.348-12.066-12.348-12.066-29.913 0-17.566 12.348-29.631 12.348-12.065 30.269-12.065Zm-203.878 22.478v-270.304h-62.305q-21.391 0-28.956-19.543-7.566-19.544 8.13-33.805L397.26-790.782q17.869-15.583 38.891-23.835 21.023-8.253 43.849-8.253 22.826 0 43.849 8.253 21.022 8.252 38.891 23.835l308.695 279.999q15.695 14.261 8.13 33.805-7.565 19.543-28.956 19.543h-62.305v270.304q0 25.957-18.156 43.718-18.157 17.761-43.322 17.761-25.957 0-43.718-17.761-17.761-17.761-17.761-43.718v-307.565H294.653v307.565q0 25.957-17.761 43.718-17.761 17.761-43.435 17.761-25.674 0-43.718-17.761-18.043-17.761-18.043-43.718ZM480-706.434 359.306-595.609h241.388L480-706.434Zm0 110.825h120.694-241.388H480Z"/></svg>