<svg xmlns="http://www.w3.org/2000/svg" height="20" width="20"><path d="M9.625 2.833q.083 0 .187.011.105.01.188.01t.219-.01q.135-.011.239-.011l-.187.625h-.396Zm-3.063.875q.188-.083.386-.166.198-.084.406-.167L7.396 4q-.063.083-.156.104-.094.021-.178.063Zm6.48.5q-.084-.02-.177-.062-.094-.042-.157-.125l.021-.646q.209.083.406.188.198.104.386.187Zm2.187 1.896q-.083-.083-.114-.156-.032-.073-.094-.177l.291-.583q.126.187.261.354.135.166.26.333Zm-11.041-.25q.104-.166.239-.333t.261-.333l.333.562q-.063.083-.104.167-.042.083-.125.145ZM2.979 8.771q.042-.209.073-.417.031-.208.115-.416l.521.374q-.021.105-.053.188-.031.083-.073.208Zm13.438-.042q-.021-.125-.052-.198-.032-.073-.032-.177l.542-.333q.063.208.104.406.042.198.083.406Zm-.084 2.938q0-.084.042-.198.042-.115.083-.219l.584-.042q-.042.209-.084.396-.041.188-.104.375Zm-12.771-.396.073.219q.032.093.053.198l-.521.354q-.084-.188-.115-.407-.031-.218-.073-.447Zm11.48 2.896q.041-.084.104-.167.062-.083.146-.146l.562.208q-.125.167-.239.334-.115.166-.24.333Zm-10.334.645q-.125-.166-.27-.333-.146-.167-.25-.354l.645-.167q.084.084.136.146.052.063.093.167Zm8.021 1.146q.063-.041.167-.093l.187-.094.459.458q-.188.083-.386.177-.198.094-.406.156Zm-5.396.646q-.208-.062-.395-.156l-.355-.177.459-.459q.062.042.166.084.104.042.188.104Zm2.667.542q-.083 0-.188.01-.104.011-.187-.01l.25-.625h.396l.187.625q-.104.021-.239.01-.136-.01-.219-.01Zm.833-2.688q.813 0 1.396-.583t.583-1.375h-.604q0 .521-.396.938-.395.416-.979.416-.416 0-.771-.271-.354-.271-.5-.645-.104-.334-.26-.636-.156-.302-.364-.552l-1.167-1.125q-.375-.375-.583-.854-.209-.479-.209-1.021 0-1.125.771-1.875t1.833-.75q.979 0 1.709.604.729.604.916 1.542h.584q-.167-1.167-1.063-1.958-.896-.792-2.146-.792-1.312 0-2.26.927-.948.927-.948 2.302 0 .646.25 1.26.25.615.729 1.094l1.104 1.104q.188.188.323.417.136.229.219.458.167.646.688 1.011.52.364 1.145.364Zm.417-3.333q.292 0 .51-.208.219-.209.219-.5 0-.292-.219-.511-.218-.218-.51-.218-.292 0-.5.218-.208.219-.208.511 0 .291.208.5.208.208.5.208Z"/></svg>