<svg xmlns="http://www.w3.org/2000/svg" height="24" width="24"><path d="M11.125 1.025Q11.35 1 11.562 1h.876q.237 0 .437.025l-.25 3.05H11.45ZM6.45 2.475q.4-.2.788-.4.387-.2.787-.35l1.1 2.875q-.275.1-.525.225t-.525.275Zm9.525 2.65q-.25-.15-.512-.275-.263-.125-.538-.225l1.05-2.9q.425.15.8.35.375.2.775.4Zm2.575 2.4q-.175-.225-.35-.475-.175-.25-.375-.475L20 4.425q.325.325.6.675.275.35.525.7ZM2.85 5.85q.25-.375.525-.725t.575-.675L6.2 6.6q-.2.2-.388.437-.187.238-.387.463Zm-1.725 4.5q.075-.425.175-.85.1-.425.225-.85l2.9.975q-.075.275-.15.563-.075.287-.125.587Zm18.725.45q-.05-.275-.112-.563-.063-.287-.138-.562l2.9-.975q.125.425.238.85.112.425.162.875Zm-.25 3.55q.075-.275.138-.563.062-.287.112-.587l3.05.4q-.05.45-.162.875-.113.425-.238.85ZM4.15 13.225q.05.3.113.587.062.288.162.563l-2.9.975q-.125-.425-.237-.85-.113-.425-.188-.875Zm13.7 4.125q.2-.225.388-.45.187-.225.362-.475l2.575 1.7q-.25.35-.525.687-.275.338-.575.688ZM3.975 19.575q-.325-.35-.587-.7-.263-.35-.513-.7L5.45 16.5q.175.25.35.475.175.225.4.45Zm10.975-.2q.275-.1.538-.225.262-.125.512-.275l1.575 2.625q-.375.225-.763.413-.387.187-.812.362Zm-6.9 2.9q-.4-.175-.787-.337-.388-.163-.788-.388l1.6-2.65q.275.15.525.275.25.125.55.225ZM12 23h-.438q-.212 0-.437-.025l.325-3.05h1.175l.25 3.025q-.2.025-.437.038Q12.2 23 12 23Zm1-4.6q1.425 0 2.413-1 .987-1 .987-2.4h-2.8q0 .225-.175.412-.175.188-.425.188-.175 0-.337-.125-.163-.125-.213-.3-.175-.5-.425-.95-.25-.45-.625-.8l-1.35-1.375q-.325-.325-.488-.725-.162-.4-.162-.825 0-.9.612-1.5.613-.6 1.488-.6.75 0 1.338.425.587.425.737 1.1h2.8q-.225-1.85-1.6-3.088Q13.4 5.6 11.5 5.6q-2.025 0-3.463 1.425Q6.6 8.45 6.6 10.5q0 1 .388 1.912.387.913 1.087 1.613L9.45 15.4q.125.125.2.313.075.187.125.362.35 1.05 1.237 1.687.888.638 1.988.638Zm.525-4.4q.65 0 1.075-.438.425-.437.425-1.062 0-.65-.425-1.075Q14.175 11 13.525 11q-.625 0-1.062.425-.438.425-.438 1.075 0 .625.438 1.062.437.438 1.062.438Z"/></svg>