<svg xmlns="http://www.w3.org/2000/svg" height="48" width="48"><path d="M3.15 21.9q.15-2.2 1.175-4.9Q5.35 14.3 6.7 12.15q3.1 2.65 4.35 5.075Q12.3 19.65 12.7 21.9Zm32.2 0q.35-2.25 1.625-4.725Q38.25 14.7 41.3 12.1q1.35 2.15 2.375 4.875T44.85 21.9ZM6.75 35.8q-1.4-2.05-2.425-4.775Q3.3 28.3 3.15 26.05h9.55q-.4 2.3-1.625 4.75t-4.325 5Zm34.55 0q-3.05-2.55-4.325-5-1.275-2.45-1.625-4.75h9.5Q44.7 28.3 43.675 31q-1.025 2.7-2.375 4.8ZM17.05 21.9q-.5-3.25-2.075-6.35-1.575-3.1-5.475-6.7 2.1-2 5.2-3.65t7.25-2.05V21.9Zm9.05 0V3.15q4.1.4 7.225 2.05t5.225 3.65q-3.85 3.6-5.475 6.7Q31.45 18.65 31 21.9Zm-4.15 22.95q-4.4-.45-7.375-2.075Q11.6 41.15 9.5 39.1q3.9-3.6 5.475-6.725 1.575-3.125 2.075-6.325h4.9Zm4.15 0v-18.8H31q.45 3.2 2.075 6.325Q34.7 35.5 38.55 39.1q-2.1 2-5.075 3.65t-7.375 2.1Z"/></svg>