<svg xmlns="http://www.w3.org/2000/svg" height="40" viewBox="0 -960 960 960" width="40"><path d="M191-199v-201.33H423.67V-199v-201.33H191V-199Zm469.33-357ZM306.7-701.33q16.9 0 32.56 3.91 15.65 3.91 30.07 15.09l173 123.66q14.78 11.2 19.23 30.27 4.44 19.07-7.23 33.73Q542.67-477 523.17-474t-34.84-8.67l-180.66-128L112-472.14V-199h79v-150.33q0-21.04 15.18-36.02 15.17-14.98 36.49-14.98h130q21.03 0 36.01 14.98 14.99 14.98 14.99 36.02v209q0 14.45-10.2 24.22-10.2 9.78-24 9.78T366-116.11q-9.67-9.77-9.67-24.22V-333h-98v176q0 20.9-14.98 35.78-14.98 14.89-36.02 14.89h-138q-21.03 0-36.01-14.89Q18.33-136.1 18.33-157v-309.33q0-26.19 11.37-48.65 11.36-22.46 32.97-38.35l183.33-129q12.48-10.6 28.14-14.8 15.65-4.2 32.56-4.2ZM834.33-854q43.81 0 75.24 31.25Q941-791.5 941-748v242q0 19.31-13.99 32.99-13.98 13.68-33.74 13.68-19.19 0-32.4-13.68-13.2-13.68-13.2-32.99v-255.33H490V-726q-12.33.5-24.45-.58-12.12-1.09-23-1.09-19.07 0-32.48-13-13.4-13.01-13.4-32.33v-34.33q0-25.75 18.32-36.21T459.83-854h374.5ZM728.51-40.33q-78.84 0-134.84-56.14-56-56.13-56-133.95 0-80.54 55.95-136.72 55.95-56.19 135.34-56.19 78.71 0 134.71 56.08 56 56.08 56 136.31 0 78.61-56.16 134.61-56.15 56-135 56ZM699-200.67V-125q0 12.8 9.63 21.4 9.63 8.6 21.94 8.6 12.32 0 20.87-9 8.56-9 8.56-21.67v-75h76.33q12.14 0 20.74-8.98 8.6-8.99 8.6-21.3 0-12.32-8.6-21.02t-20.74-8.7H760V-337q0-12.13-8.56-20.73-8.55-8.6-20.87-8.6-12.31 0-21.94 8.6T699-337v76.33h-74.67q-12.6 0-21.8 8.6-9.2 8.6-9.2 20.97 0 12.38 9.6 21.4 9.6 9.03 22.07 9.03h74ZM710.87-615h41.63q5.17 0 9.17-3.85 4-3.84 4-9.97v-41.21q0-5.64-3.64-9.3-3.63-3.67-9.29-3.67h-41.62q-5.73 0-9.59 3.32-3.86 3.32-3.86 9.44v41.21q0 5.64 3.49 9.83 3.5 4.2 9.71 4.2Z"/></svg>