<svg xmlns="http://www.w3.org/2000/svg" height="20" viewBox="0 -960 960 960" width="20"><path d="M721.79-599h11.34q12.24 0 20.89-8.61t8.65-20.85v-11.34q0-10.79-7.66-18.5-7.66-7.7-18.45-7.7h-11.34q-12.24 0-20.89 8.61-8.66 8.61-8.66 20.85v11.34q0 10.79 7.67 18.5 7.66 7.7 18.45 7.7Zm-4.95 541Q640-58 586-112.16t-54-131Q532-320 586.16-374t131-54Q794-428 848-373.84t54 131Q902-166 847.84-112t-131 54Zm-26.43-158.41v43.96q0 10.98 8.13 19.01 8.13 8.03 18.96 8.03t18.96-8.13q8.13-8.13 8.13-18.96v-43.91H789q11.03 0 18.81-7.78 7.78-7.78 7.78-18.81 0-11.03-7.78-18.81-7.78-7.78-18.81-7.78h-44.41v-43.96q0-10.98-8.13-19.01-8.13-8.03-18.96-8.03t-18.96 8.13q-8.13 8.13-8.13 18.96v43.91H646q-11.03 0-18.81 7.78-7.78 7.78-7.78 18.81 0 11.03 7.78 18.81 7.78 7.78 18.81 7.78h44.41ZM312.13-693.46q12.37 0 24.41 3.7 12.03 3.7 21.5 11.22l179.18 129.87q15.98 12.97 24.6 29.52 8.61 16.55 9.11 34.85t-7.11 35.04q-7.62 16.74-23.36 28-38.22 33.52-56.84 82.77Q465-289.24 465-238.78q0 6.21 2.51 24.74 2.51 18.52 2.51 26.43 0 17.63-12.67 30.02-12.68 12.39-30.81 12.39-16.93 0-29.19-11.01-12.26-11.01-12.26-26.42v-115.52q0-14.8-10.71-25.51t-25.51-10.71H275.3q-14.79 0-25.5 10.71t-10.71 25.51v90.02q0 25.96-18.49 44.45-18.49 18.48-44.45 18.48H115.2q-25.97 0-44.45-18.48-18.49-18.49-18.49-44.45v-275.33q0-18.45 8.45-35.18 8.44-16.73 23.59-28.9l181.83-131q10.49-7.93 22.16-11.42 11.67-3.5 23.84-3.5Zm517.13-116.13q32.42 0 55.21 22.79t22.79 55.21v263.02q0 16.51-15.27 23.28t-29.66-3.67q-26.98-19.52-58.76-30.54-31.78-11.02-65.06-14.02-16.12-2-31.52-1.62-15.4.38-30.42 2.9-11.33 1.76-20.11-2.98-8.79-4.74-8.79-15.95v-2.5q0-18.53-6.49-35.66-6.5-17.14-21.79-27.63L443.11-703.72q-13.71-9.04-20.93-21.84-7.22-12.81-7.22-28.48 0-24.18 18.07-39.86 18.08-15.69 42.98-15.69h353.25Z"/></svg>