<svg xmlns="http://www.w3.org/2000/svg" height="20" width="20"><path d="M15.938 10q0 1.667-.636 3.146-.635 1.479-1.708 2.583t-2.532 1.75q-1.458.646-3.124.646-.688 0-1.323-.104-.636-.104-1.24-.333-.292-.105-.448-.323-.156-.219-.156-.49 0-.167.041-.292.042-.125.126-.229Q6.104 15.188 7 13.656q.896-1.531.896-3.656.083-2.146-.802-3.677-.886-1.531-2.052-2.698-.084-.104-.136-.229-.052-.125-.052-.271 0-.271.167-.49.167-.218.437-.323.604-.229 1.25-.333.646-.104 1.334-.104 1.646 0 3.114.646 1.469.646 2.542 1.75 1.073 1.104 1.677 2.573.604 1.468.563 3.156Z"/></svg>