<svg xmlns="http://www.w3.org/2000/svg" height="48" width="48"><path d="M24.15 9.25q-1.2 0-2.075-.875Q21.2 7.5 21.2 6.3q0-.95.675-2t2.275-2.6q1.6 1.55 2.275 2.6.675 1.05.675 2 0 1.2-.875 2.075-.875.875-2.075.875Zm-10.55 0q-1.2 0-2.075-.875Q10.65 7.5 10.65 6.3q0-.95.675-2T13.6 1.7q1.6 1.55 2.275 2.6.675 1.05.675 2 0 1.2-.875 2.075-.875.875-2.075.875Zm21 0q-1.2 0-2.075-.875Q31.65 7.5 31.65 6.3q0-.95.675-2T34.6 1.7q1.6 1.55 2.275 2.6.675 1.05.675 2 0 1.2-.875 2.075-.875.875-2.075.875Zm-24.55 33.2v2.05q0 .95-.625 1.55-.625.6-1.575.6H7.5q-.95 0-1.575-.625T5.3 44.45V28.1l4.25-12.9q.25-.95 1.05-1.475.8-.525 1.8-.525h23.2q1 0 1.8.525t1.05 1.475l4.3 12.9v16.35q0 .95-.675 1.575t-1.575.625h-.4q-.95 0-1.575-.6T37.9 44.5v-2.05Zm.4-17.2h27.1L34.9 17.2H13.1Zm-1.2 3V38.5Zm5.2 7.85q1.1 0 1.9-.775.8-.775.8-1.925t-.8-1.975q-.8-.825-1.9-.825-1.2 0-2 .825t-.8 1.975q0 1.15.8 1.925.8.775 2 .775Zm19.2 0q1.15 0 1.975-.775.825-.775.825-1.925t-.825-1.975Q34.8 30.6 33.65 30.6q-1.15 0-1.925.825-.775.825-.775 1.975 0 1.15.775 1.925.775.775 1.925.775Zm-24.4 2.4h29.5V28.25H9.25Z"/></svg>