<svg xmlns="http://www.w3.org/2000/svg" height="20" viewBox="0 -960 960 960" width="20"><path d="M480.18-740.92q-14.8 0-25.33-10.41-10.54-10.41-10.54-25.29 0-16 10.38-33.03 10.39-17.04 25.31-44.5 14.92 27.46 25.31 44.5 10.38 17.03 10.38 33.47 0 14.44-10.36 24.85-10.35 10.41-25.15 10.41Zm-182.77 0q-14.79 0-25.33-10.41t-10.54-25.29q0-16 10.38-33.03 10.39-17.04 25.31-44.5 14.92 27.46 25.31 44.5 10.38 17.03 10.38 33.47 0 14.44-10.35 24.85-10.36 10.41-25.16 10.41Zm365.54 0q-14.8 0-25.33-10.41-10.54-10.41-10.54-25.29 0-16 10.38-33.03 10.39-17.04 25.31-44.5 14.92 27.46 25.31 44.5 10.38 17.03 10.38 33.47 0 14.44-10.36 24.85-10.35 10.41-25.15 10.41ZM209.23-184v68q0 1.7-1.15 2.85-1.15 1.15-2.85 1.15H188q-1.7 0-2.85-1.15Q184-114.3 184-116v-285.85L257.38-583q3.93-12.54 15.37-18.77Q284.2-608 298.23-608h366.62q12.88 0 23.39 6.5t14.38 18.5L776-401.85V-116q0 1.7-1.15 2.85Q773.7-112 772-112h-17.23q-1.7 0-2.85-1.15-1.15-1.15-1.15-2.85v-68H209.23Zm16.39-225.85h508.76L669.46-576H290.54l-64.92 166.15Zm83.48 145.54q13.67 0 23.05-9.56 9.39-9.57 9.39-23.23 0-13.67-9.57-23.05-9.56-9.39-23.23-9.39-13.66 0-23.05 9.57-9.38 9.56-9.38 23.23 0 13.66 9.56 23.05 9.57 9.38 23.23 9.38Zm342.16 0q13.66 0 23.05-9.56 9.38-9.57 9.38-23.23 0-13.67-9.56-23.05-9.57-9.39-23.23-9.39-13.67 0-23.05 9.57-9.39 9.56-9.39 23.23 0 13.66 9.57 23.05 9.56 9.38 23.23 9.38Z"/></svg>