<svg xmlns="http://www.w3.org/2000/svg" height="48" viewBox="0 -960 960 960" width="48"><path d="M440-503Zm0 331 13 10Q333-273 258.5-347.5t-115-128q-40.5-53.5-54-91.82Q76-605.65 76-646q0-74.56 52.2-127.78Q180.41-827 256-827q51 0 98.5 28.5T440-714q39-56 85.38-84.5 46.38-28.5 98.69-28.5 69.51 0 123.22 50Q801-727 805-653h-32q-3-56-43.5-97.5T624-792q-46 0-90 28.5T468-679h-56q-24-56-66.87-84.5Q302.27-792 256-792q-63 0-104 41.66-41 41.67-41 103.92 0 38.42 14.36 74.55 14.36 36.14 51.39 83.57 37.03 47.43 101.14 111.87Q342-312 440-220q31-30 50.5-48t44.5-43l4.13 3.97q4.13 3.98 8.37 9.03 4.24 5.05 8.37 8.53L560-286q-25 23-44 41.5T465-196l-25 24Zm243-128v-123H560v-35h123v-123h35v123h123v35H718v123h-35Z"/></svg>