<svg xmlns="http://www.w3.org/2000/svg" height="24" width="24"><path d="M7.15 13.425q.6 0 1.013-.413.412-.412.412-1.012 0-.6-.412-1.013-.413-.412-1.013-.412-.6 0-1.012.412-.413.413-.413 1.013 0 .6.413 1.012.412.413 1.012.413Zm4.85 0q.6 0 1.013-.413.412-.412.412-1.012 0-.6-.412-1.013-.413-.412-1.013-.412-.6 0-1.012.412-.413.413-.413 1.013 0 .6.413 1.012.412.413 1.012.413Zm4.85 0q.6 0 1.013-.413.412-.412.412-1.012 0-.6-.412-1.013-.413-.412-1.013-.412-.6 0-1.012.412-.413.413-.413 1.013 0 .6.413 1.012.412.413 1.012.413ZM12 21.95q-2.075 0-3.887-.787-1.813-.788-3.15-2.125-1.338-1.338-2.125-3.151Q2.05 14.075 2.05 12t.788-3.887q.787-1.813 2.125-3.15Q6.3 3.625 8.113 2.837 9.925 2.05 12 2.05t3.887.787q1.813.788 3.151 2.126 1.337 1.337 2.125 3.15.787 1.812.787 3.887t-.787 3.887q-.788 1.813-2.125 3.151-1.338 1.337-3.151 2.125-1.812.787-3.887.787Z"/></svg>