<svg xmlns="http://www.w3.org/2000/svg" height="40" viewBox="0 -960 960 960" width="40"><path d="M480-598.333 421.95-468.28l-131.616 57.946L422.18-353.18 480-222.668l58.693-130.512 132.306-57.154-132.076-57.946L480-598.333ZM333.334-852.667v-93.666h293.332v93.666H333.334Zm146.51 825.333q-81.04 0-152.008-30.33t-123.928-83.053q-52.961-52.725-83.101-123.633-30.14-70.907-30.14-151.888 0-80.981 30.231-151.939t83.178-123.527q52.947-52.569 123.896-83.599T480-806.333q68.743 0 128.871 21.166Q669-764 718.333-723.667L781-787l67.999 68.333L785.666-656q39 46.333 61.667 104.833T870-416.334q0 81.122-30.409 152.156-30.408 71.033-83.463 123.663-53.055 52.63-124.149 82.906-71.094 30.275-152.135 30.275Z"/></svg>