<svg xmlns="http://www.w3.org/2000/svg" height="48" viewBox="0 -960 960 960" width="48"><path d="M163.26-126.31q-46.51 0-77.77-31.26Q54.23-188.83 54.23-235q0-22.03 9-41.67t24-34.87V-527H180v-225h284l183.85 430.23q6.23 15.85 12.03 32.92 5.81 17.07 5.81 33.85 0 54.17-38 91.43-38.01 37.26-91.69 37.26-38.99 0-71.46-21.5-32.46-21.5-47.54-58.5H268.16q-9.7 35.62-38.68 57.81-28.98 22.19-66.22 22.19Zm564.35-40V-802H786v577.31h120.77v58.38H727.61Zm-564.86-18.38q21.7 0 36.59-14.43 14.89-14.43 14.89-35.7 0-21.71-14.72-36.6t-36.43-14.89q-21.71 0-36.09 14.72-14.37 14.72-14.37 36.43t14.42 36.09q14.43 14.38 35.71 14.38Zm373.13 0q29.7 0 50.56-20.46 20.87-20.45 20.87-49.73 0-29.7-20.77-50.56-20.76-20.87-50.48-20.87-29.72 0-50.04 20.77-20.33 20.76-20.33 50.48 0 29.72 20.46 50.04 20.45 20.33 49.73 20.33ZM355.85-400.31h178q5 0 9.8 1.16 4.81 1.15 9.43 3.46L426-693.61H238.39V-523l117.46 122.69Z"/></svg>