<svg xmlns="http://www.w3.org/2000/svg" height="24" width="24"><path d="M11.675 18.675H7.9q-.2.575-.712.962-.513.388-1.188.388-.85 0-1.438-.587-.587-.588-.587-1.438 0-.675.387-1.188.388-.512.963-.712V7.9q-.575-.2-.963-.712Q3.975 6.675 3.975 6q0-.85.587-1.438Q5.15 3.975 6 3.975q.675 0 1.188.387.512.388.712.963h3.75L9.95 3.65q-.25-.225-.237-.488.012-.262.262-.487.225-.225.475-.225.25 0 .475.225l2.55 2.575q.325.325.325.75t-.325.75l-2.55 2.55q-.025.025-.45-.25T9.7 8.6q-.35-.175-.4-.088-.05.088.675.813-.25-.225-.237-.488.012-.262.237-.487l1.7-1.675H7.9q-.15.425-.475.75-.325.325-.75.475v8.2q.425.15.75.475.325.325.475.75h3.725l-1.675-1.7q-.2-.175-.2-.45t.225-.475q.2-.225.475-.212.275.012.475.212l2.55 2.55q.325.325.325.75t-.325.75l-2.55 2.55q-.1.1-.225.138-.125.037-.262.05-.138.012-.25-.038-.113-.05-.213-.15-.2-.2-.175-.488.025-.287.2-.462ZM18 20.025q-.825 0-1.425-.587-.6-.588-.6-1.438 0-.675.388-1.188.387-.512.962-.712V7.9q-.575-.2-.962-.712-.388-.513-.388-1.188 0-.85.587-1.438.588-.587 1.438-.587.825 0 1.425.587.6.588.6 1.438 0 .675-.387 1.188-.388.512-.963.712v8.2q.575.2.963.712.387.513.387 1.188 0 .85-.587 1.438-.588.587-1.438.587Zm-12-1.35q.275 0 .475-.2.2-.2.2-.475 0-.275-.2-.475-.2-.2-.475-.2-.275 0-.475.2-.2.2-.2.475 0 .275.2.475.2.2.475.2Zm12 0q.275 0 .475-.2.2-.2.2-.475 0-.275-.2-.475-.2-.2-.475-.2-.275 0-.475.2-.2.2-.2.475 0 .275.2.475.2.2.475.2Zm-12-12q.275 0 .475-.2.2-.2.2-.475 0-.275-.2-.475-.2-.2-.475-.2-.275 0-.475.2-.2.2-.2.475 0 .275.2.475.2.2.475.2Zm12 0q.275 0 .475-.2.2-.2.2-.475 0-.275-.2-.475-.2-.2-.475-.2-.275 0-.475.2-.2.2-.2.475 0 .275.2.475.2.2.475.2ZM6 18Zm12 0ZM6 6Zm12 0Z"/></svg>