<svg xmlns="http://www.w3.org/2000/svg" height="20" viewBox="0 -960 960 960" width="20"><path d="M740-672v157q0 34-7 72t-24 81q-3 6-7 7t-8-1q-4-2-5.5-5.5t.5-6.5q15-35 23-72.5t8-74.5v-157q0-10-5.5-18T699-702l-208-79q-5-2-11-2t-11 2l-142 53q-3 2-4.5 1.5T318-730q-3-3-3-9t6-8l140-54q9-4 19-4t19 4l208 79q15 6 24 19.5t9 30.5ZM480-154q-2 0-20-5-112-45-176-140t-64-216v-195l-47-47q-4-4-4.5-7t4.5-8q5-5 7.5-5t7.5 5l589 589q4 4 4.5 6.5T777-169q-5 5-7.5 5t-7.5-5L658-272q-34 40-71.5 67T500-159q-4 2-10 3.5t-10 1.5Zm-34-330Zm73-45Zm-39 358q48-16 94-50.5t68-66.5L240-690v175q0 116 65.5 211.5T480-171Z"/></svg>