<svg xmlns="http://www.w3.org/2000/svg" height="48" viewBox="0 -960 960 960" width="48"><path d="M540-438.696v-83.608q0-33.142 24.386-58.158 24.386-25.017 59.354-25.017H640v-93.043h-16.26q-34.968 0-59.354-24.386Q540-747.294 540-782.262v-82.478q0-33.968 24.386-58.854 24.386-24.885 59.354-24.885h119.086q34.968 0 59.354 24.885 24.386 24.886 24.386 58.854v82.478q0 34.968-24.386 59.354-24.386 24.386-59.354 24.386h-16.26v93.043h16.26q34.968 0 59.354 25.017 24.386 25.016 24.386 58.158v83.608q0 34.142-24.386 58.658-24.386 24.517-59.354 24.517H623.74q-34.968 0-59.354-24.517Q540-404.554 540-438.696Zm83.74 0h119.086v-83.608H623.74v83.608Zm0-343.566h119.086v-82.478H623.74v82.478ZM133.434-96.26v-83.044q0-33.141 24.386-58.158 24.386-25.016 59.354-25.016h16.26v-93.043h-16.26q-34.968 0-59.354-24.517-24.386-24.516-24.386-58.658v-83.608q0-33.142 24.386-58.158 24.386-25.017 59.354-25.017h16.26v-93.043h-16.26q-34.968 0-59.354-24.386-24.386-24.386-24.386-59.354v-82.478q0-33.968 24.386-58.854 24.386-24.885 59.354-24.885h119.652q34.141 0 58.658 24.885Q420-898.708 420-864.74v82.478q0 34.968-24.516 59.354-24.517 24.386-58.658 24.386H320v93.043h16.826q34.141 0 58.658 25.017Q420-555.446 420-522.304v83.608q0 34.142-24.516 58.658-24.517 24.517-58.658 24.517H320v93.043h16.826q34.141 0 58.658 25.016Q420-212.445 420-179.304v83.044q0 34.968-24.516 59.354-24.517 24.385-58.658 24.385H217.174q-34.968 0-59.354-24.385-24.386-24.386-24.386-59.354Zm83.74 0h119.652v-83.044H217.174v83.044Zm0-342.436h119.652v-83.608H217.174v83.608Zm0-343.566h119.652v-82.478H217.174v82.478ZM683.783-480Zm0-343.001ZM277.782-137.565Zm0-342.435Zm0-343.001Z"/></svg>