<svg xmlns="http://www.w3.org/2000/svg" height="24" viewBox="0 -960 960 960" width="24"><path d="M200.11-100q-50.68 0-75.4-20.75Q100-141.5 100-183q0-55.3 46.26-70.55t109.51-15.25H276v-53.39q0-28.29-2-48.55-2-20.26-6.13-34.39-4.13-14.13-11-21Q250-433 242-433q-9.5 0-16.37 3.36-6.88 3.37-10.63 7.31-4 3.94-5 9.17t1 10.94q5.45 10.62 12.73 20.77 7.27 10.14 7.27 23.46 0 23.79-16.68 40.39-16.67 16.6-40.5 16.6-23.82 0-40.32-16.49-16.5-16.5-16.5-40.06 0-25.45 11.52-41.77 11.51-16.32 31.19-25.92 19.67-9.6 45.58-13.18Q231.2-442 260.28-442 340-442 372-413t32 102.2v139.74q0 18.06 5 26.56t14.84 8.5q10.74 0 17.45-18 6.71-18 8.71-53h11q-3.42 58.82-22.47 82.91Q419.47-100 372.81-100 331-100 308-112.5T279-151q-8.96 28.09-27.97 39.55Q232.01-100 200.11-100Zm353.98 0Q534-100 524-116.04t-3.67-34.13l95.64-255.27Q622-422 636.93-432q14.92-10 33-10 18.07 0 32.73 10.14 14.66 10.15 20.66 26.68l95.35 255.01q6.33 18.09-3.88 34.13Q804.57-100 784.84-100q-11.84 0-21.82-6.58-9.97-6.59-13.96-18.16L730.13-180H609l-19.03 55.24q-3.8 10.47-13.31 17.62-9.52 7.14-22.57 7.14Zm-306.68-27Q260-127 268-146.96t8-47.47V-258q-24.8 0-35.9 14.9-11.1 14.9-11.1 48.54v10.57q0 34.99 3.88 45.99 3.87 11 14.53 11ZM634-246h72l-36-108-36 108Zm-35.67-271q-44.33 0-71.83-32-27.5-31.99-27.5-85.81Q499-733 560.5-796t161.61-63q42.89 0 65.89 8.79t23 22.66q0 5.55-1.79 11.05-1.78 5.5-6.5 11.33-5.71 6.17-12.56 8.67-6.85 2.5-14.15.5-14.22-4.2-30.76-6.6-16.55-2.4-30.34-2.4-66.9 0-108.4 45.47Q565-714.07 565-639.24q0 20.24 7.27 43.24 7.28 23 34.73 23 9.38 0 19.19-3.5T645-590q16.04-17.11 29.73-57.03 13.68-39.93 25-96.96 1.85-12.84 9.91-17.93 8.06-5.08 22.29-5.08 17.07 0 26.07 9t4.75 23.3Q751-693 746.5-663.1q-4.5 29.9-4.5 54.19 0 19.23 5 27.57t15 8.34q10.66 0 20.84-8.05Q793.02-589.11 811-609q3-4 14.14-6 6.86 0 11.36 5.65 4.5 5.64 4.5 16 0 26.35-30.46 50.85-30.47 24.5-63.79 24.5Q722-518 704-532t-24-37q-14.25 24.58-35.14 38.29T598.33-517ZM138-518v-209.71q0-55.29 38.71-93.79 38.71-38.5 94.5-38.5t94.29 38.65Q404-782.7 404-727.47V-518h-76v-76.26H214V-518h-76Zm76-152h114v-57.18q0-23.82-16.68-40.32-16.67-16.5-40.5-16.5-23.82 0-40.32 16.62Q214-750.75 214-727v57Z"/></svg>