<svg xmlns="http://www.w3.org/2000/svg" height="48" viewBox="0 -960 960 960" width="48"><path d="M132-200.62v-164.76h81v-321.24q0-59.96 42.95-101.17T360.16-829q58.69 0 100.46 41.33 41.76 41.32 41.76 101.05v413.24q0 41.15 28 69.88 27.99 28.73 70.62 28.73 42.62 0 72.92-27.88 30.31-27.87 30.31-70.73v-321.24h-81V-759.1h41V-830H788v70.62h41v164.76h-81v321.24q0 59.96-43.51 101.17Q660.99-131 600.34-131q-59.19 0-100.46-41.33-41.26-41.32-41.26-101.05v-413.24q0-41.15-28.74-69.88-28.73-28.73-70.38-28.73-43.12 0-72.92 27.88-29.81 27.88-29.81 70.73v321.24h81v164.48h-41v70.9H173v-70.62h-41Z"/></svg>