<svg xmlns="http://www.w3.org/2000/svg" height="20" width="20"><path d="M13.271 9.396Q12.958 9.396 12.708 9.156Q12.458 8.917 12.458 8.604Q12.458 8.292 12.708 8.042Q12.958 7.792 13.271 7.792Q13.562 7.792 13.823 8.042Q14.083 8.292 14.083 8.604Q14.083 8.917 13.823 9.156Q13.562 9.396 13.271 9.396ZM10.938 6.521 10.25 5.583Q10.938 5.188 11.698 4.917Q12.458 4.646 13.271 4.646Q14.083 4.646 14.844 4.917Q15.604 5.188 16.25 5.604L15.604 6.521Q15.062 6.125 14.448 5.948Q13.833 5.771 13.271 5.771Q12.708 5.771 12.094 5.948Q11.479 6.125 10.938 6.521ZM8.854 3.979 8.167 3.062Q9.312 2.208 10.583 1.802Q11.854 1.396 13.271 1.396Q14.646 1.396 15.927 1.802Q17.208 2.208 18.354 3.062L17.688 3.979Q16.729 3.271 15.604 2.885Q14.479 2.5 13.271 2.5Q12.083 2.5 10.938 2.885Q9.792 3.271 8.854 3.979ZM16.438 17.229Q13.896 17.229 11.438 16.052Q8.979 14.875 7.031 12.917Q5.083 10.958 3.896 8.5Q2.708 6.042 2.708 3.479Q2.708 3.083 2.948 2.854Q3.188 2.625 3.583 2.625H6.5Q6.875 2.625 7.135 2.844Q7.396 3.062 7.458 3.396L8 6.062Q8.062 6.354 7.979 6.594Q7.896 6.833 7.75 6.958L5.708 8.896Q6.646 10.5 8.021 11.896Q9.396 13.292 11.042 14.229L13.146 12.104Q13.354 11.896 13.469 11.865Q13.583 11.833 13.792 11.896L16.5 12.5Q16.833 12.562 17.062 12.823Q17.292 13.083 17.292 13.417V16.354Q17.292 16.75 17.062 16.99Q16.833 17.229 16.438 17.229Z"/></svg>