<svg xmlns="http://www.w3.org/2000/svg" height="48" viewBox="0 -960 960 960" width="48"><path d="M680-463v42.5q0 8.5 5.5 14.5t14 6q8.5 0 14.5-6t6-14.5V-463h35q7 0 11.5-5.14 4.5-5.15 4.5-12 0-6.86-4.5-11.36Q762-496 755-496h-35v-44q0-8-6-14t-14-6q-9 0-14.5 6t-5.5 14v44h-47q-7 0-11.5 4.5t-4.5 11.36q0 6.85 5.1 12Q627.2-463 634-463h46Zm-159 13 77.23 82.09q1.55 2.18 16.64 7.91 14.35 0 20.24-14.81Q641-389.62 633-402l-74-78 74.16-80.27q8.84-11.23 3.08-25.48Q630.47-600 614.82-600q-6.12 0-10.15 2.03-4.02 2.04-6.06 6.09L521-510v-65q0-10.83-7.62-17.92-7.61-7.08-18-7.08-10.38 0-17.38 7.08-7 7.09-7 17.92v190q0 10.83 7.12 17.92 7.11 7.08 17.5 7.08 10.38 0 17.88-7.08 7.5-7.09 7.5-17.92v-65Zm-231 40v-53h89.78q13.24 0 23.23-9.29t9.99-23.02v-70.53q0-13.77-9.99-23.97Q393.02-600 380.28-600h-108.5q-10.61 0-17.7 7.12-7.08 7.11-7.08 18 0 10.88 7.08 17.88 7.09 7 17.76 7H363v54h-83.11q-15.06 0-23.97 9.32-8.92 9.33-8.92 23.11v78.69q0 10.96 7.08 17.92 7.09 6.96 17.48 6.96h116.65q8.62 0 16.71-7.12 8.08-7.11 8.08-18 0-10.88-8.08-17.88-8.09-7-16.76-7H290ZM189-98q-37.18 0-64.09-26.91Q98-151.82 98-189v-582q0-37.59 26.91-64.79Q151.82-863 189-863h582q37.59 0 64.79 27.21Q863-808.59 863-771v582q0 37.18-27.21 64.09Q808.59-98 771-98H189Z"/></svg>