<svg xmlns="http://www.w3.org/2000/svg" height="40" width="40"><path d="M2.5 28.458V4.542Q2.5 3.708 3.146 3.042Q3.792 2.375 4.625 2.375H26.292Q27.125 2.375 27.771 3.042Q28.417 3.708 28.417 4.542V19.5Q28.417 20.333 27.771 20.979Q27.125 21.625 26.292 21.625H9.333ZM11.917 30.708Q11.083 30.708 10.438 30.042Q9.792 29.375 9.792 28.583V24.292H31.042V9.667H35.417Q36.208 9.667 36.854 10.333Q37.5 11 37.5 11.833V37.375L30.833 30.708ZM24.875 5.917H6.083V20.167L8.125 18.083H24.875ZM6.083 5.917V18.083V20.167Z"/></svg>