<svg xmlns="http://www.w3.org/2000/svg" height="40" width="40"><path d="M19.333 34.417Q16.333 34.417 13.688 33.292Q11.042 32.167 9.083 30.208Q7.125 28.25 6 25.625Q4.875 23 4.875 20Q4.875 17 6.021 14.375Q7.167 11.75 9.104 9.792Q11.042 7.833 13.688 6.708Q16.333 5.583 19.333 5.583Q22.333 5.583 25.021 6.75Q27.708 7.917 29.75 9.958L19.333 20.375V6.542Q13.708 6.542 9.771 10.479Q5.833 14.417 5.833 20Q5.833 25.625 9.75 29.542Q13.667 33.458 19.333 33.458Q22.708 33.458 25.75 31.75Q28.792 30.042 30.75 27.292V28.958Q28.583 31.542 25.604 32.979Q22.625 34.417 19.333 34.417ZM34.333 30.083Q34.125 30.083 34 29.938Q33.875 29.792 33.875 29.583V18.292Q33.875 18.125 34 17.979Q34.125 17.833 34.333 17.833Q34.583 17.833 34.708 17.979Q34.833 18.125 34.833 18.292V29.583Q34.833 29.792 34.688 29.938Q34.542 30.083 34.333 30.083ZM34.375 33.625Q34.042 33.625 33.833 33.417Q33.625 33.208 33.625 32.875Q33.625 32.5 33.833 32.292Q34.042 32.083 34.375 32.083Q34.708 32.083 34.938 32.292Q35.167 32.5 35.167 32.833Q35.167 33.208 34.938 33.417Q34.708 33.625 34.375 33.625Z"/></svg>