<svg xmlns="http://www.w3.org/2000/svg" height="40" viewBox="0 -960 960 960" width="40"><path d="M316.49-293.33v-71.93h104.73q-5.72 17.27-7.83 35.27-2.11 17.99-2.11 36.66h-94.79ZM319.2-73.3q-85.71 0-145.8-60.4-60.1-60.4-60.1-146.3v-353.3H32.51v-253.56h573.55v253.56h-80.8v126.7q-17.05 10.56-31.36 24.21-14.3 13.66-25.74 29.85H316.49v-71.92h134.93v-108.05H187.14v352.46q0 55.29 38.48 94.1 38.47 38.81 93.61 38.81 33.51 0 61.62-15.29 28.1-15.29 46.09-41.11 7.23 18.82 16.64 35.68 9.41 16.87 22.25 32.9-28.17 28.89-65.61 45.27Q362.77-73.3 319.2-73.3Zm349.47-117.91q42.9 0 72.59-29.57 29.68-29.57 29.68-72.4 0-42.83-29.57-72.55-29.57-29.73-72.4-29.73-42.9 0-72.51 29.58-29.6 29.57-29.6 72.4 0 42.82 29.45 72.55 29.45 29.72 72.36 29.72ZM872.82-36.05 764.69-144.18q-22 14.11-45.9 21.42-23.9 7.3-49.97 7.3-74.12 0-126-51.9-51.88-51.9-51.88-126.05t51.92-125.97q51.92-51.83 126.09-51.83 74.18 0 126.04 51.88 51.87 51.88 51.87 126 0 25.91-7.39 49.89t-21.5 45.98L926.1-89.33l-53.28 53.28Z"/></svg>