<svg xmlns="http://www.w3.org/2000/svg" height="40" width="40"><path d="M15.333 25.708 29.625 21.958Q30.167 21.792 30.521 21.333Q30.875 20.875 30.708 20.292Q30.542 19.708 30.042 19.479Q29.542 19.25 29 19.375L24.708 20.542L18.292 14.5Q18.125 14.375 17.875 14.292Q17.625 14.208 17.417 14.25Q16.833 14.333 16.625 14.771Q16.417 15.208 16.708 15.708L20.167 21.75L15.458 22.917L13.625 21.5Q13.5 21.417 13.333 21.396Q13.167 21.375 13.042 21.417Q12.75 21.5 12.646 21.771Q12.542 22.042 12.708 22.25L14.458 25.333Q14.625 25.583 14.854 25.688Q15.083 25.792 15.333 25.708ZM6.333 32Q5.625 32 5.125 31.5Q4.625 31 4.625 30.292V24.75Q6.083 23.958 7.062 22.812Q8.042 21.667 8.042 20Q8.042 18.292 7.062 17.125Q6.083 15.958 4.625 15.208V9.667Q4.625 8.958 5.125 8.458Q5.625 7.958 6.333 7.958H33.708Q34.417 7.958 34.938 8.458Q35.458 8.958 35.458 9.667V30.292Q35.458 31 34.938 31.5Q34.417 32 33.708 32Z"/></svg>