<svg xmlns="http://www.w3.org/2000/svg" height="48" viewBox="0 -960 960 960" width="48"><path d="m486-437-115 29-45.93-36.94Q326-444 314-446h-2q-5.12 2.53-7.56 7.76Q302-433 305-428l43 77q3.25 3.64 7.63 6.82 4.37 3.18 10.29 1.2L710-434q13-4 21.5-14t4.5-24q-3-14-15-19t-24.8-1.87L593.4-465 437.23-611.59Q434-615 429-617t-10-1l-4.74 1q-10.14 2.79-14.2 11.9Q396-596 402-587l84 150ZM183-197q-27.75 0-47.37-19.63Q116-236.25 116-264v-79.98q0-5.8 3-13.41t10-11.81q32-16.8 51-45.3 19-28.5 19-65.5 0-38-19-66.5t-51-45.3q-7-4.2-10-11.81t-3-13.41V-697q0-27.75 19.63-47.38Q155.25-764 183-764h595q27.75 0 47.38 19.62Q845-724.75 845-697v433q0 27.75-19.62 47.37Q805.75-197 778-197H183Zm0-35h595q14 0 23-9t9-23v-433q0-14-9-23t-23-9H183q-14 0-23 9t-9 23v72.82q39 23.18 61 61.14t22 82.5q0 44.54-22.23 83.04Q189.54-359 151-337v73q0 14 9 23t23 9Zm298-249Z"/></svg>