<svg xmlns="http://www.w3.org/2000/svg" height="48" width="48"><path d="M7.5 44.4V15.65H14.35V11.55Q14.35 7.45 17.15 4.625Q19.95 1.8 24 1.8Q28.05 1.8 30.85 4.625Q33.65 7.45 33.65 11.55V15.65H40.5V44.4ZM18.2 15.65H29.8V11.5Q29.8 9.05 28.15 7.35Q26.5 5.65 24 5.65Q21.55 5.65 19.875 7.35Q18.2 9.05 18.2 11.55ZM11.35 40.55H36.65V19.5H11.35ZM24 33.8Q25.55 33.8 26.675 32.725Q27.8 31.65 27.8 30.15Q27.8 28.7 26.675 27.475Q25.55 26.25 24 26.25Q22.45 26.25 21.35 27.45Q20.25 28.65 20.25 30.15Q20.25 31.65 21.35 32.725Q22.45 33.8 24 33.8ZM11.35 40.55V19.5V40.55Z"/></svg>