<svg xmlns="http://www.w3.org/2000/svg" height="24" width="24"><path d="M9.375 19.575V17.6h-4.5q-.6 0-1.025-.425-.425-.425-.425-1.025V5.85q0-.6.425-1.025.425-.425 1.025-.425H19.15q.575 0 1 .425.425.425.425 1.025v2.9h-.625v-2.9q0-.35-.225-.575-.225-.225-.575-.225H4.875q-.35 0-.575.225-.225.225-.225.575v10.3q0 .35.225.575.225.225.575.225H19.15q.35 0 .575-.225.225-.225.225-.575v-4.025q0-.35-.225-.575-.225-.225-.575-.225H11.2l2.5 2.5-.45.45L9.95 11l3.3-3.3.45.475-2.5 2.5h7.95q.6 0 1.013.425.412.425.412 1.025v4.025q0 .6-.425 1.025-.425.425-1 .425h-4.525v1.975ZM12.325 11Z"/></svg>