<svg xmlns="http://www.w3.org/2000/svg" height="20" viewBox="0 -960 960 960" width="20"><path d="M258-371.46h444v-130.39H399.47V-702h-73.75q-28.72 0-48.22 20.97T258-630.62v259.16ZM480.39-162q21.99 0 44.16-3.25 22.17-3.25 42.45-9.76v-138.45H393v137.99q21.42 6.97 43.41 10.22Q458.4-162 480.39-162Zm-.25 58q-74.97 0-143.02-29.92-68.04-29.93-123.43-79.77l40.54-39.54q17.85 16.85 38.23 30.42 20.39 13.58 42.54 24.58v-115.23H200v-318.16q0-53.99 36.42-91.18 36.42-37.2 88.16-37.2h133.11v200.15H760v246.39H625v115.23q22.15-10 43.54-23.58 21.38-13.57 39.23-30.42l40.54 39.54q-56.39 49.84-124.8 79.27Q555.11-104 480.14-104Zm-80.45-397.85Z"/></svg>