<svg xmlns="http://www.w3.org/2000/svg" height="20" width="20"><path d="M11.646 12.5h1.042V9.542l2.104 2.958h1.02V7.479h-1.041v2.938l-2.063-2.938h-1.062Zm-2.313 0h1.229V7.479H9.333Zm-5.104 0h1.25v-1.708h1.959q.437 0 .718-.282.282-.281.282-.718V8.458q0-.416-.282-.698-.281-.281-.718-.281H4.229Zm1.25-2.958v-.834h1.709v.834Zm-2 7.291q-.833 0-1.406-.573-.573-.572-.573-1.406V5.146q0-.834.573-1.406.573-.573 1.406-.573h13.042q.833 0 1.406.573.573.572.573 1.406v9.708q0 .834-.573 1.406-.573.573-1.406.573Zm0-11.687v9.708-9.708Zm13.042 9.708V5.146H3.479v9.708Z"/></svg>