<svg xmlns="http://www.w3.org/2000/svg" height="40" viewBox="0 -960 960 960" width="40"><path d="M416.33-659.67v-126.66h314.84q23.18 0 39.17 15.99 15.99 15.99 15.99 39.17v71.5h-370Zm-187.5 486q-23.18 0-39.17-15.99-15.99-15.99-15.99-39.17V-544.5h127.5v370.83h-72.34Zm-55.16-486v-71.5q0-23.18 15.99-39.17 15.99-15.99 39.17-15.99h72.34v126.66h-127.5Zm242 415.84 85.5 84.66q2.83 3.34 3.08 8.34t-2.92 8.83q-3.83 3.83-8.66 3.83-4.84 0-8.04-3.89l-94.3-94.44q-8.66-7.83-8.66-19.03 0-11.2 8.66-19.8L485-370q2.5-2.5 7.58-2.58 5.09-.09 9.25 2.58 3.5 4.33 3.09 9.25-.42 4.92-3.75 8.25l-85.5 85.5H583.5q45.2 0 77.35-32.15Q693-331.3 693-376.5v-167.83L608.33-459q-3.33 3.33-8.33 3.83t-8.5-3.83q-4.33-3.5-4.33-8.33 0-4.84 4.39-8.56l93.88-94.55q7.89-7.89 19.09-7.89t19.8 7.83l93.64 95.1q2.86 2.9 3.36 7.9t-3.33 8.17q-3.83 3.83-8.33 3.91-4.5.09-8-4.25l-85.5-84.66v167.83q0 55.55-39 94.11t-93.67 38.56H415.67Z"/></svg>