<svg xmlns="http://www.w3.org/2000/svg" height="48" width="48"><path d="M22.35 21.55v-.75q0-.9-.65-1.55t-1.55-.65H15.7q-.95 0-1.6.65-.65.65-.65 1.55v6.35q0 .95.65 1.6.65.65 1.6.65h4.45q.9 0 1.55-.65t.65-1.6v-.65H20.6v.65q0 .25-.2.45t-.45.2h-4.1q-.25 0-.45-.2t-.2-.45v-6.3q0-.25.2-.45t.45-.2h4.1q.25 0 .45.2t.2.45v.7Zm5.6 7.85h4.4q.9 0 1.575-.675.675-.675.675-1.575v-.65h-1.8v.65q0 .25-.2.45t-.45.2H28.1q-.25 0-.45-.2t-.2-.45v-6.3q0-.25.2-.45t.45-.2h4.05q.25 0 .45.2t.2.45v.7h1.8v-.75q0-.85-.675-1.525-.675-.675-1.575-.675h-4.4q-.95 0-1.6.675-.65.675-.65 1.525v6.35q0 .9.65 1.575.65.675 1.6.675Zm-17.2 9.25q-1.35 0-2.375-1.025T7.35 35.25v-22.5q0-1.35 1.025-2.375T10.75 9.35h26.5q1.35 0 2.375 1.025t1.025 2.375v22.5q0 1.35-1.025 2.375T37.25 38.65Zm26.5-2.2q.45 0 .825-.375.375-.375.375-.825v-22.5q0-.45-.375-.825-.375-.375-.825-.375h-26.5q-.45 0-.825.375-.375.375-.375.825v22.5q0 .45.375.825.375.375.825.375Zm-27.7-1.2V11.55 36.45v-1.2Z"/></svg>