<svg xmlns="http://www.w3.org/2000/svg" height="40" viewBox="0 -960 960 960" width="40"><path d="M189.94-110.84q-33.05 0-56.07-23.55-23.03-23.56-23.03-56.57 0-32.68 23.29-55.99 23.28-23.31 55.92-23.31 32.77 0 56.49 23.24 23.72 23.23 23.72 56.14 0 33.24-23.71 56.64t-56.61 23.4Zm583.62 0q-23.83 0-39.75-16.97-15.91-16.97-17.82-40.6-10.81-109.49-56.49-203.97-45.68-94.47-119.04-167.71-73.2-73.54-167.88-119.22-94.68-45.68-204.17-56.5-23.63-1.88-40.6-17.52-16.97-15.64-16.97-40.01 0-23.4 17.73-38.86 17.73-15.47 42.88-13.28 131.22 10.99 244.51 65.08 113.29 54.09 202.18 142.26 88.17 88.89 142.26 202.18 54.09 113.29 65.08 244.51 2.19 25.15-13.11 42.88-15.3 17.73-38.81 17.73Zm-274.36 0q-22.7 0-39.22-15.75-16.51-15.74-20.34-39.26-8.92-53.43-32.68-100.27-23.77-46.83-59.97-84.21-36.66-36.91-82.66-61.32-46-24.41-99.15-33.33-22.85-4.12-38.59-20.17-15.75-16.04-15.75-39.16 0-23.01 16.39-38.43 16.4-15.41 38.53-12.38 75.93 9.54 141.73 42.53 65.8 32.98 117.48 85.01 51.4 52.13 83.92 119.01 32.51 66.88 41.43 142.99 3.06 22.28-12.58 38.51-15.64 16.23-38.54 16.23Z"/></svg>