<svg xmlns="http://www.w3.org/2000/svg" height="48" viewBox="0 96 960 960" width="48"><path d="M296.346 794.462q-22.411 0-38.609-16.198-16.199-16.199-16.199-38.61V271.961q0-22.411 16.199-38.609 16.198-16.198 38.609-16.198h467.693q22.411 0 38.609 16.198t16.198 38.609v467.693q0 22.411-16.198 38.61-16.198 16.198-38.609 16.198H296.346Zm0-30.193h467.693q9.231 0 16.923-7.692 7.692-7.692 7.692-16.923V377.539H558.615q-12.23 0-20.038-7.808t-7.808-20.038V247.346H296.346q-9.231 0-16.923 7.692-7.692 7.693-7.692 16.923v467.693q0 9.231 7.692 16.923 7.692 7.692 16.923 7.692ZM195.961 894.847q-22.411 0-38.609-16.199-16.198-16.198-16.198-38.609V356.807q0-5.828 4.4-10.241 4.4-4.412 10.885-4.412 6.484 0 10.695 4.412 4.212 4.413 4.212 10.241v483.232q0 9.231 7.692 16.923 7.692 7.692 16.923 7.692h483.232q5.828 0 10.241 4.467 4.413 4.467 4.413 10.376 0 6.926-4.413 11.138t-10.241 4.212H195.961Zm75.77-647.501v516.923-516.923Z"/></svg>