<svg xmlns="http://www.w3.org/2000/svg" height="40" width="40"><path d="M6.125 36.667q-1.167 0-1.958-.792-.792-.792-.792-2V6.125q0-1.125.792-1.958.791-.834 1.958-.834h27.792q1.083 0 1.937.834.854.833.854 1.958v27.75q0 1.208-.854 2t-1.937.792Zm0-2.792h27.792V6.125H6.125v27.75Zm7.917-10.333q.625 0 1.02-.417.396-.417.396-1t-.416-.979q-.417-.396-1-.396-.584 0-.98.396-.395.396-.395.979 0 .625.395 1.021.396.396.98.396Zm11.958 0q.583 0 .979-.417t.396-1q0-.583-.396-.979T26 20.75q-.583 0-.979.396t-.396.979q0 .625.396 1.021.396.396.979.396Zm-17.625-4.75V30q0 .5.313.812.312.313.77.313h.584q.458 0 .77-.313.313-.312.313-.812v-2.458h17.792V30q0 .5.312.812.313.313.813.313h.541q.5 0 .813-.313.312-.312.312-.812V18.792l-2.75-8q-.208-.584-.687-.959-.479-.375-1.063-.375H12.875q-.583 0-1.063.375-.479.375-.687.959Zm3.583-2.084 1.5-4.5h13.125l1.542 4.5ZM6.125 6.125v27.75-27.75Zm5 18.667V19.5h17.792v5.292Z"/></svg>