<svg xmlns="http://www.w3.org/2000/svg" height="40" viewBox="0 -960 960 960" width="40"><path d="M676-179.67 659.67-196l151-152H668v-24h184v184h-24v-142.67l-152 151ZM238.41-152q-11.78 0-24.24-6.83-12.45-6.84-17.84-17.17l-82-143.33q-6-11-6.5-24.67-.5-13.67 6.5-24l242-416q6.34-10.33 18.17-17.17Q386.33-808 398-808h164q11.67 0 23.5 6.83 11.83 6.84 18.83 17.17l152 262.33q-6.66.67-13.16 1.17-6.5.5-13.31.83L576-784H384L127.33-344l96 168h319.53q3.09 6.67 6.37 12.17 3.28 5.5 7.1 11.83H238.41ZM305-306l-14-25 174-303h30l101.33 176.56q-4.33 5.17-8.66 9.53-4.34 4.36-8.67 8.91l-99-173-161.67 282H524q-.67 5.67-1.67 11.5-1 5.83-2 12.5H305Z"/></svg>