<svg xmlns="http://www.w3.org/2000/svg" height="48" width="48"><path d="M11.2 33.85Q11.85 33.85 12.25 33.425Q12.65 33 12.65 32.4V30.65H35.35V32.4Q35.35 33 35.75 33.425Q36.15 33.85 36.8 33.85Q37.4 33.85 37.825 33.425Q38.25 33 38.25 32.35V24.8Q38.25 23.85 37.65 22.85Q37.05 21.85 36.1 21.3V18.4Q36.1 16.8 35.15 15.85Q34.2 14.9 32.65 14.9H26.3Q25.6 14.9 25 15.2Q24.4 15.5 23.95 16Q23.55 15.5 22.925 15.2Q22.3 14.9 21.6 14.9H15.35Q13.8 14.9 12.85 15.85Q11.9 16.8 11.9 18.4V21.3Q10.95 21.85 10.35 22.85Q9.75 23.85 9.75 24.8V32.35Q9.75 33 10.15 33.425Q10.55 33.85 11.2 33.85ZM25.2 21.7V17.95Q25.2 17.7 25.375 17.525Q25.55 17.35 25.85 17.35H33.1Q33.35 17.35 33.525 17.525Q33.7 17.7 33.7 17.95V21.7ZM14.3 21.7V17.95Q14.3 17.7 14.475 17.525Q14.65 17.35 14.9 17.35H22.2Q22.45 17.35 22.625 17.525Q22.8 17.7 22.8 17.95V21.7ZM12.65 28.2V26.1Q12.65 25.2 13.2 24.65Q13.75 24.1 14.65 24.1H33.35Q34.25 24.1 34.8 24.65Q35.35 25.2 35.35 26.1V28.2ZM7.75 43.8Q6.3 43.8 5.25 42.75Q4.2 41.7 4.2 40.25V7.75Q4.2 6.3 5.25 5.25Q6.3 4.2 7.75 4.2H40.25Q41.7 4.2 42.75 5.25Q43.8 6.3 43.8 7.75V40.25Q43.8 41.7 42.75 42.75Q41.7 43.8 40.25 43.8ZM7.75 40.9H40.25Q40.55 40.9 40.725 40.725Q40.9 40.55 40.9 40.25V7.75Q40.9 7.45 40.725 7.275Q40.55 7.1 40.25 7.1H7.75Q7.45 7.1 7.275 7.275Q7.1 7.45 7.1 7.75V40.25Q7.1 40.55 7.275 40.725Q7.45 40.9 7.75 40.9ZM7.1 40.9Q7.1 40.9 7.1 40.725Q7.1 40.55 7.1 40.25V7.75Q7.1 7.45 7.1 7.275Q7.1 7.1 7.1 7.1Q7.1 7.1 7.1 7.275Q7.1 7.45 7.1 7.75V40.25Q7.1 40.55 7.1 40.725Q7.1 40.9 7.1 40.9Z"/></svg>