<svg xmlns="http://www.w3.org/2000/svg" height="48" width="48"><path d="M7.75 42.25V21.9L3.5 25.1l-2.1-2.8L24.05 5.1 46.6 22.3l-2.1 2.75-4.1-3.15v20.35ZM16.4 29.8q.95 0 1.6-.65.65-.65.65-1.6 0-.9-.65-1.55t-1.6-.65q-.95 0-1.6.65-.65.65-.65 1.55 0 .95.65 1.6.65.65 1.6.65Zm7.65 0q.95 0 1.625-.65t.675-1.6q0-.95-.675-1.6-.675-.65-1.625-.65-.9 0-1.55.65t-.65 1.6q0 .95.65 1.6.65.65 1.55.65Zm7.7 0q.95 0 1.6-.65.65-.65.65-1.6 0-.95-.65-1.6-.65-.65-1.6-.65-.95 0-1.6.65-.65.65-.65 1.6 0 .95.65 1.6.65.65 1.6.65Z"/></svg>