<svg xmlns="http://www.w3.org/2000/svg" height="24" viewBox="0 96 960 960" width="24"><path d="m731.239 990.348-64.652-64.652 58.261-57.739H563.826v-91h161.022l-57.5-58.5 63.891-63.892 167.653 167.892-167.653 167.891ZM202.87 944.131q-37.783 0-64.392-26.609-26.609-26.609-26.609-64.392V696h91.001v157.13H360v91.001H202.87ZM111.869 456V298.87q0-37.783 26.609-64.392 26.609-26.609 64.392-26.609H360v91.001H202.87V456h-91.001Zm645.261 0V298.87H600v-91.001h157.13q37.783 0 64.392 26.609 26.609 26.609 26.609 64.392V456H757.13Z"/></svg>