<svg xmlns="http://www.w3.org/2000/svg" height="24" viewBox="0 96 960 960" width="24"><path d="m698.308 964.462-26.193-26.577 84.577-84.347H560.038v-36.923h197.423l-85.115-85.73 25.962-25.193 129.577 129.193-129.577 129.577Zm-471.419-74q-25.75 0-43.55-17.801-17.801-17.8-17.801-43.55V694.769h36.924v134.154q0 9.231 7.692 16.923 7.692 7.692 16.923 7.692h134.154v36.924H226.889Zm-61.351-433.231V322.889q0-25.75 17.801-43.55 17.8-17.801 43.55-17.801h134.342v36.924H227.077q-9.231 0-16.923 7.692-7.692 7.692-7.692 16.923v134.154h-36.924Zm592 0V323.077q0-9.231-7.692-16.923-7.692-7.692-16.923-7.692H598.769v-36.924h134.342q25.75 0 43.55 17.801 17.801 17.8 17.801 43.55v134.342h-36.924Z"/></svg>