<svg xmlns="http://www.w3.org/2000/svg" height="48" width="48"><path d="M15 43.85q-.75 0-1.225-.475-.475-.475-.475-1.225v-8q0-.75.475-1.25T15 32.4h5q.75 0 1.25.5t.5 1.25v8q0 .75-.5 1.225-.5.475-1.25.475Zm.75-2.45h3.55v-6.55h-3.55ZM24 44.15V32.1h7.3q1 0 1.725.725.725.725.725 1.725v2.85q0 .85-.525 1.5t-1.375.9l1.75 4.35h-2.65l-1.7-4.3h-2.8v4.3Zm12.3 0V32.1h7.3q1 0 1.725.725.725.725.725 1.725v2.85q0 1.05-.725 1.75t-1.725.7h-4.85v4.3Zm-9.85-6.75h4.85v-2.85h-4.85Zm12.3 0h4.85v-2.85h-4.85ZM10.4 41.1q-3.05-2.25-4.8-5.75T3.85 27.6q0-5 4.025-10.975T20 3.75q8.1 6.9 12.15 12.875Q36.2 22.6 36.2 27.6q0 .4-.025.825-.025.425-.075.825H13.7q-1.4 0-2.35.95-.95.95-.95 2.3Z"/></svg>