<svg xmlns="http://www.w3.org/2000/svg" height="48" viewBox="0 -960 960 960" width="48"><path d="M359.31-323.46H424q13.88 0 24.36-10.29 10.49-10.29 10.49-25.56V-424q0-13.88-10.49-24.36-10.48-10.49-24.36-10.49h-64.69q-15.27 0-25.56 10.49-10.29 10.48-10.29 24.36v64.69q0 15.27 10.29 25.56t25.56 10.29Zm0-178.08H424q13.88 0 24.36-10.29 10.49-10.29 10.49-25.56v-64.69q0-13.88-10.49-24.36-10.48-10.48-24.36-10.48h-64.69q-15.27 0-25.56 10.48t-10.29 24.36v64.69q0 15.27 10.29 25.56t25.56 10.29Zm178.08 178.08h64.69q13.88 0 24.36-10.29 10.48-10.29 10.48-25.56V-424q0-13.88-10.48-24.36-10.48-10.49-24.36-10.49h-64.69q-15.27 0-25.56 10.49-10.29 10.48-10.29 24.36v64.69q0 15.27 10.29 25.56t25.56 10.29Zm0-178.08h64.69q13.88 0 24.36-10.29 10.48-10.29 10.48-25.56v-64.69q0-13.88-10.48-24.36-10.48-10.48-24.36-10.48h-64.69q-15.27 0-25.56 10.48t-10.29 24.36v64.69q0 15.27 10.29 25.56t25.56 10.29ZM157.69-168q-28.61 0-49.65-21.04T87-238.69v-482.62q0-28.61 21.04-49.65T157.69-792h644.62q28.61 0 49.65 21.04T873-721.31v482.62q0 28.61-21.04 49.65T802.31-168H157.69Z"/></svg>