<svg xmlns="http://www.w3.org/2000/svg" height="40" viewBox="0 -960 960 960" width="40"><path d="M526.86-74.35v-155.04l167.49-45.94-167.49-45.95v-155.7l402.63 201.65L526.86-74.35ZM91.84-91.84v-263.2q41.36-2.96 70.34-32.79 28.98-29.83 28.98-71.62 0-41.78-28.98-71.66-28.98-29.87-70.34-33.21v-263.4h245.65q12.42-45.61 45.92-74.92 33.51-29.3 77.39-29.3t77.41 29.42q33.53 29.43 45.95 74.8h243.56v426.49l-96.81-48.55v-281.13H498.16v-66.89q0-16.56-10.67-26.95-10.66-10.38-26.66-10.38t-26.67 10.38q-10.67 10.39-10.67 26.95v66.89H188.28v99.39q45.21 28.25 72.54 73.27 27.34 45.03 27.34 98.98 0 53.09-26.91 98.66-26.92 45.57-72.97 72.56v99.77h98.98q24.8-53.75 68.6-83.36 43.81-29.61 104.33-29.52v98.67q-42.91.01-71.28 33.44-28.36 33.43-29.82 77.21H91.84Zm368.09-420.48Z"/></svg>