<svg xmlns="http://www.w3.org/2000/svg" height="24" width="24"><path d="M20.725 22.075 15.8 17.1H6.25L2.8 20.55V3.85h1.65l6.6 6.6H9.1L.925 2.275 1.9 1.3l19.8 19.8Zm-.45-5.1-6.95-7.025H18.1v-.7h-5.475L10.05 6.6h8.05v-.7h-8.075v.675L5.6 2.15h14.05q.925 0 1.538.612.612.613.612 1.538v10.65q0 .775-.437 1.312-.438.538-1.088.713ZM7.3 13.8q.325 0 .588-.238.262-.237.262-.612t-.262-.613Q7.625 12.1 7.3 12.1q-.325 0-.587.237-.263.238-.263.613t.263.612q.262.238.587.238Zm0-3.35q.325 0 .588-.238.262-.237.262-.612t-.262-.612Q7.625 8.75 7.3 8.75q-.325 0-.587.238-.263.237-.263.612t.263.612q.262.238.587.238Z"/></svg>