<svg xmlns="http://www.w3.org/2000/svg" version="1.1" width="3300" height="2000"><g id="Notes"><style>
    text {
      font-family: monospace;
      text-anchor: middle;
    }
    text.emphasis {
      font-weight:bold;
    }
    text.lanchor {
      text-anchor: start;
    }
  </style><rect height="2200" id="artboard" fill="white" width="3300" x="0" y="0"/><line id="" style="fill:none;stroke:black;stroke-width:0.5;" x1="263" x2="3036" y1="292" y2="292"/><text class="lanchor emphasis" transform="matrix(1 0 0 1 263 322)">Weight/Scale Variations</text><text transform="matrix(1 0 0 1 559.711 322)">Ultralight</text><text transform="matrix(1 0 0 1 856.422 322)">Thin</text><text transform="matrix(1 0 0 1 1153.13 322)">Light</text><text transform="matrix(1 0 0 1 1449.84 322)">Regular</text><text transform="matrix(1 0 0 1 1746.56 322)">Medium</text><text transform="matrix(1 0 0 1 2043.27 322)">Semibold</text><text transform="matrix(1 0 0 1 2339.98 322)">Bold</text><text transform="matrix(1 0 0 1 2636.69 322)">Heavy</text><text transform="matrix(1 0 0 1 2933.4 322)">Black</text><text id="template-version" style="text-anchor: end;" transform="matrix(1 0 0 1 3036 1933)">Template v.1.0</text><text class="lanchor" transform="matrix(1 0 0 1 263 726)">Small</text><text class="lanchor" transform="matrix(1 0 0 1 263 1156)">Medium</text><text class="lanchor" transform="matrix(1 0 0 1 263 1586)">Large</text></g><g id="Guides"><g id="H-reference" style="fill:#27AAE1;stroke:none;" transform="matrix(1 0 0 1 339 696)"><path d="M 54.9316 0 L 57.666 0 L 30.5664 -70.459 L 28.0762 -70.459 L 0.976562 0 L 3.66211 0 L 12.9395 -24.4629 L 45.7031 -24.4629 Z M 29.1992 -67.0898 L 29.4434 -67.0898 L 44.8242 -26.709 L 13.8184 -26.709 Z"/></g><line id="Baseline-S" style="fill:none;stroke:#27AAE1;opacity:1;stroke-width:0.577;" x1="263" x2="3036" y1="696" y2="696"/><line id="Capline-S" style="fill:none;stroke:#27AAE1;opacity:1;stroke-width:0.577;" x1="263" x2="3036" y1="625.541" y2="625.541"/><g id="H-reference" style="fill:#27AAE1;stroke:none;" transform="matrix(1 0 0 1 339 1126)"><path d="M 54.9316 0 L 57.666 0 L 30.5664 -70.459 L 28.0762 -70.459 L 0.976562 0 L 3.66211 0 L 12.9395 -24.4629 L 45.7031 -24.4629 Z M 29.1992 -67.0898 L 29.4434 -67.0898 L 44.8242 -26.709 L 13.8184 -26.709 Z"/></g><line id="Baseline-M" style="fill:none;stroke:#27AAE1;opacity:1;stroke-width:0.577;" x1="263" x2="3036" y1="1126" y2="1126"/><line id="Capline-M" style="fill:none;stroke:#27AAE1;opacity:1;stroke-width:0.577;" x1="263" x2="3036" y1="1055.54" y2="1055.54"/><g id="H-reference" style="fill:#27AAE1;stroke:none;" transform="matrix(1 0 0 1 339 1556)"><path d="M 54.9316 0 L 57.666 0 L 30.5664 -70.459 L 28.0762 -70.459 L 0.976562 0 L 3.66211 0 L 12.9395 -24.4629 L 45.7031 -24.4629 Z M 29.1992 -67.0898 L 29.4434 -67.0898 L 44.8242 -26.709 L 13.8184 -26.709 Z"/></g><line id="Baseline-L" style="fill:none;stroke:#27AAE1;opacity:1;stroke-width:0.577;" x1="263" x2="3036" y1="1556" y2="1556"/><line id="Capline-L" style="fill:none;stroke:#27AAE1;opacity:1;stroke-width:0.577;" x1="263" x2="3036" y1="1485.54" y2="1485.54"/><rect height="119.336" id="left-margin" style="fill:darkred;stroke:none;opacity:0.4;" width="12.4512" x="1394.06" y="1030.79"/><rect height="119.336" id="right-margin" style="fill:darkgreen;stroke:none;opacity:0.4;" width="12.4512" x="1502.5112" y="1030.79"/><rect x="1406.5112" y="1045" width="96" height="96" fill="none" stroke="blue" stroke-dasharray="5"/><rect x="1394.06" y="1030.79" width="120.9024" height="119.336" fill="none" stroke="blue"/></g><g id="Symbols"><g id="Bold-L" transform="matrix(1 0 0 1 2266 1556)"><path d="M127.549 5.889 V-15.88 Q128.839 -16.525 129.806 -17.815 Q130.774 -19.105 130.774 -20.879 V-62.481 Q130.774 -67.801 126.951 -71.752 Q123.127 -75.704 118.035 -75.704 H56.76 L24.026 -36.197 V-7.656 H29.186 V7.501 H8.869 V-41.841 L49.988 -91.022 H118.035 Q129.645 -91.022 137.869 -82.683 Q146.093 -74.341 146.093 -62.642 V-20.879 Q146.093 -11.526 140.771 -4.351 Q135.45 2.825 127.549 5.889 Z M112.23 25.884  101.91 18.789  104.006 16.048 Q105.296 14.274 105.941 12.178 Q106.586 10.081 106.586 7.824 Q106.586 5.083 105.538 2.341 Q104.49 -0.4 102.394 -2.657 Q98.524 -6.689 96.589 -11.699 Q94.654 -16.71 94.654 -22.103 Q94.654 -26.039 95.782 -29.909 Q96.911 -33.779 99.169 -37.004 L101.265 -40.067 L111.263 -32.972 L109.328 -30.07 Q108.038 -28.457 107.392 -26.361 Q106.748 -24.265 106.748 -22.169 Q106.748 -19.161 107.876 -16.472 Q109.005 -13.784 111.101 -11.526 Q114.81 -7.334 116.906 -2.335 Q119.002 2.664 119.002 8.266 Q119.002 12.237 117.793 15.996 Q116.584 19.756 114.165 22.981 L112.23 25.884 Z M83.205 25.884  72.885 18.789  74.82 16.048 Q76.271 14.435 76.836 12.339 Q77.4 10.243 77.4 7.985 Q77.4 5.083 76.271 2.341 Q75.142 -0.4 73.046 -2.657 Q69.338 -6.85 67.322 -11.86 Q65.306 -16.872 65.306 -22.264 Q65.306 -26.2 66.435 -29.989 Q67.564 -33.779 69.983 -37.004 L72.079 -40.067 L82.237 -32.972 L80.303 -30.07 Q79.013 -28.457 78.368 -26.361 Q77.722 -24.265 77.722 -22.007 Q77.722 -19.105 78.771 -16.444 Q79.819 -13.784 81.915 -11.526 Q85.762 -7.561 87.789 -2.448 Q89.816 2.664 89.816 8.104 Q89.816 12.237 88.6 15.996 Q87.385 19.756 85.14 22.981 L83.205 25.884 Z M54.18 25.884  43.86 18.789  45.956 16.048 Q47.246 14.596 47.891 12.5 Q48.536 10.404 48.536 8.146 Q48.536 5.083 47.327 2.422 Q46.117 -0.239 44.183 -2.657 Q40.474 -6.689 38.377 -11.658 Q36.281 -16.628 36.281 -22.138 Q36.281 -26.039 37.491 -29.909 Q38.7 -33.779 41.119 -37.004 L43.215 -40.229 L53.212 -32.972 L51.278 -30.07 Q49.826 -28.296 49.262 -26.245 Q48.697 -24.194 48.697 -21.987 Q48.697 -19.149 49.826 -16.465 Q50.955 -13.784 53.051 -11.526 Q56.737 -7.561 58.764 -2.448 Q60.791 2.664 60.791 8.104 Q60.791 12.237 59.656 15.996 Q58.521 19.756 56.115 22.981 L54.18 25.884 Z"/></g><g id="Semibold-L" transform="matrix(1 0 0 1 1970.27 1556)"><path d="M126.077 4.347 V-12.515 Q128.349 -13.721 129.876 -15.993 Q131.404 -18.263 131.404 -21.159 V-62.201 Q131.404 -67.941 127.315 -72.139 Q123.226 -76.334 117.685 -76.334 H56.479 L23.396 -36.688 V-7.026 H30.658 V5.748 H10.622 V-41.42 L50.758 -89.2 H117.685 Q128.663 -89.2 136.466 -81.296 Q144.27 -73.391 144.27 -62.293 V-21.159 Q144.27 -12.157 139.054 -5.262 Q133.838 1.633 126.077 4.347 Z M111.529 23.149  102.191 16.826  103.937 14.506 Q105.227 12.732 105.872 10.636 Q106.517 8.54 106.517 6.282 Q106.517 3.47 105.469 0.764 Q104.421 -1.942 102.324 -4.199 Q98.664 -8.092 96.765 -12.852 Q94.863 -17.612 94.863 -22.833 Q94.863 -26.6 95.958 -30.259 Q97.052 -33.919 99.238 -37.004 L100.984 -39.506 L110.071 -33.182 L108.416 -30.771 Q107.126 -29.088 106.481 -27.027 Q105.836 -24.966 105.836 -22.799 Q105.836 -19.768 106.965 -17.091 Q108.094 -14.414 110.19 -12.157 Q113.759 -8.175 115.75 -3.422 Q117.74 1.332 117.74 6.671 Q117.74 10.459 116.601 14.056 Q115.461 17.654 113.183 20.738 L111.529 23.149 Z M82.995 23.149  73.656 16.826  75.31 14.506 Q76.692 12.823 77.292 10.762 Q77.89 8.701 77.89 6.443 Q77.89 3.47 76.761 0.764 Q75.633 -1.942 73.536 -4.199 Q69.968 -8.182 68.023 -12.942 Q66.077 -17.702 66.077 -22.923 Q66.077 -26.69 67.17 -30.305 Q68.265 -33.919 70.544 -37.004 L72.288 -39.506 L81.536 -33.182 L79.882 -30.771 Q78.592 -29.088 77.947 -27.027 Q77.302 -24.966 77.302 -22.709 Q77.302 -19.735 78.385 -17.075 Q79.469 -14.414 81.565 -12.157 Q85.211 -8.303 87.164 -3.486 Q89.115 1.332 89.115 6.581 Q89.115 10.459 87.972 14.056 Q86.83 17.654 84.65 20.738 L82.995 23.149 Z M54.461 23.149  45.123 16.826  46.867 14.506 Q48.157 12.914 48.802 10.852 Q49.447 8.791 49.447 6.534 Q49.447 3.47 48.273 0.809 Q47.1 -1.851 45.094 -4.199 Q41.525 -8.092 39.5 -12.828 Q37.473 -17.565 37.473 -22.852 Q37.473 -26.6 38.613 -30.259 Q39.751 -33.919 42.101 -37.004 L43.916 -39.668 L53.003 -33.182 L51.347 -30.771 Q49.967 -28.998 49.367 -26.961 Q48.767 -24.926 48.767 -22.698 Q48.767 -19.76 49.896 -17.088 Q51.024 -14.414 53.121 -12.157 Q56.678 -8.303 58.629 -3.486 Q60.582 1.332 60.582 6.581 Q60.582 10.459 59.484 14.056 Q58.387 17.654 56.115 20.738 L54.461 23.149 Z"/></g><g id="Medium-L" transform="matrix(1 0 0 1 1674.31 1556)"><path d="M124.972 3.189 V-9.991 Q127.979 -11.618 129.929 -14.625 Q131.878 -17.633 131.878 -21.369 V-61.991 Q131.878 -68.048 127.589 -72.427 Q123.301 -76.808 117.422 -76.808 H56.27 L22.922 -37.057 V-6.552 H31.763 V4.434 H11.936 V-41.104 L51.337 -87.833 H117.422 Q127.928 -87.833 135.415 -80.256 Q142.903 -72.679 142.903 -62.03 V-21.369 Q142.903 -12.631 137.766 -5.945 Q132.628 0.74 124.972 3.189 Z M111.003 21.099  102.4 15.354  103.884 13.348 Q105.174 11.574 105.819 9.478 Q106.464 7.382 106.464 5.124 Q106.464 2.261 105.416 -0.419 Q104.367 -3.099 102.271 -5.357 Q98.769 -9.143 96.895 -13.714 Q95.021 -18.287 95.021 -23.38 Q95.021 -27.021 96.089 -30.521 Q97.156 -34.024 99.291 -37.004 L100.775 -39.085 L109.178 -33.34 L107.733 -31.297 Q106.443 -29.562 105.798 -27.527 Q105.153 -25.492 105.153 -23.273 Q105.153 -20.222 106.281 -17.555 Q107.41 -14.888 109.506 -12.631 Q112.97 -8.806 114.883 -4.236 Q116.793 0.332 116.793 5.476 Q116.793 9.125 115.708 12.6 Q114.621 16.075 112.448 19.055 L111.003 21.099 Z M82.837 21.099  74.235 15.354  75.679 13.348 Q77.008 11.613 77.634 9.578 Q78.259 7.543 78.259 5.286 Q78.259 2.261 77.131 -0.419 Q76.002 -3.099 73.906 -5.357 Q70.442 -9.182 68.549 -13.753 Q66.656 -18.326 66.656 -23.418 Q66.656 -27.059 67.723 -30.541 Q68.791 -34.024 70.965 -37.004 L72.446 -39.085 L81.01 -33.34 L79.566 -31.297 Q78.276 -29.562 77.631 -27.527 Q76.986 -25.492 76.986 -23.235 Q76.986 -20.21 78.097 -17.549 Q79.206 -14.888 81.302 -12.631 Q84.798 -8.861 86.694 -4.264 Q88.589 0.332 88.589 5.437 Q88.589 9.125 87.501 12.6 Q86.412 16.075 84.281 19.055 L82.837 21.099 Z M54.67 21.099  46.069 15.354  47.551 13.348 Q48.841 11.652 49.486 9.617 Q50.131 7.582 50.131 5.324 Q50.131 2.261 48.983 -0.4 Q47.835 -3.061 45.777 -5.357 Q42.314 -9.143 40.34 -13.705 Q38.366 -18.266 38.366 -23.388 Q38.366 -27.021 39.453 -30.521 Q40.54 -34.024 42.836 -37.004 L44.442 -39.247 L52.845 -33.34 L51.4 -31.297 Q50.071 -29.523 49.446 -27.5 Q48.82 -25.474 48.82 -23.23 Q48.82 -20.219 49.949 -17.554 Q51.078 -14.888 53.174 -12.631 Q56.633 -8.861 58.527 -4.264 Q60.424 0.332 60.424 5.437 Q60.424 9.125 59.355 12.6 Q58.285 16.075 56.115 19.055 L54.67 21.099 Z"/></g><g id="Regular-L" transform="matrix(1 0 0 1 1378.56 1556)"><path d="M124.163 2.341 V-8.14 Q127.71 -10.075 129.968 -13.622 Q132.225 -17.17 132.225 -21.524 V-61.836 Q132.225 -68.125 127.791 -72.64 Q123.356 -77.155 117.229 -77.155 H56.115 L22.575 -37.326 V-6.205 H32.572 V3.47 H12.9 V-40.874 L51.761 -86.83 H117.229 Q127.388 -86.83 134.644 -79.493 Q141.9 -72.156 141.9 -61.836 V-21.524 Q141.9 -12.977 136.821 -6.447 Q131.741 0.084 124.163 2.341 Z M110.618 19.595  102.555 14.274  103.845 12.5 Q105.135 10.726 105.78 8.63 Q106.425 6.534 106.425 4.276 Q106.425 1.374 105.377 -1.287 Q104.329 -3.947 102.233 -6.205 Q98.846 -9.914 96.992 -14.348 Q95.138 -18.782 95.138 -23.781 Q95.138 -27.329 96.186 -30.715 Q97.234 -34.101 99.33 -37.004 L100.62 -38.777 L108.521 -33.456 L107.231 -31.682 Q105.941 -29.909 105.296 -27.893 Q104.651 -25.877 104.651 -23.62 Q104.651 -20.556 105.78 -17.896 Q106.909 -15.235 109.005 -12.977 Q112.391 -9.269 114.246 -4.834 Q116.1 -0.4 116.1 4.599 Q116.1 8.146 115.052 11.533 Q114.004 14.919 111.907 17.821 L110.618 19.595 Z M82.721 19.595  74.659 14.274  75.949 12.5 Q77.239 10.726 77.884 8.711 Q78.529 6.695 78.529 4.438 Q78.529 1.374 77.4 -1.287 Q76.271 -3.947 74.175 -6.205 Q70.789 -9.914 68.934 -14.348 Q67.08 -18.782 67.08 -23.781 Q67.08 -27.329 68.128 -30.715 Q69.176 -34.101 71.273 -37.004 L72.562 -38.777 L80.625 -33.456 L79.335 -31.682 Q78.045 -29.909 77.4 -27.893 Q76.755 -25.877 76.755 -23.62 Q76.755 -20.556 77.884 -17.896 Q79.013 -15.235 81.109 -12.977 Q84.495 -9.269 86.349 -4.834 Q88.204 -0.4 88.204 4.599 Q88.204 8.146 87.156 11.533 Q86.108 14.919 84.011 17.821 L82.721 19.595 Z M54.825 19.595  46.763 14.274  48.053 12.5 Q49.343 10.726 49.988 8.711 Q50.633 6.695 50.633 4.438 Q50.633 1.374 49.504 -1.287 Q48.375 -3.947 46.279 -6.205 Q42.892 -9.914 40.958 -14.348 Q39.023 -18.782 39.023 -23.781 Q39.023 -27.329 40.071 -30.715 Q41.119 -34.101 43.376 -37.004 L44.828 -38.939 L52.729 -33.456 L51.439 -31.682 Q50.149 -29.909 49.504 -27.893 Q48.859 -25.877 48.859 -23.62 Q48.859 -20.556 49.988 -17.896 Q51.116 -15.235 53.212 -12.977 Q56.599 -9.269 58.453 -4.834 Q60.308 -0.4 60.308 4.599 Q60.308 8.146 59.259 11.533 Q58.211 14.919 56.115 17.821 L54.825 19.595 Z"/></g><g id="Light-L" transform="matrix(1 0 0 1 1082.77 1556)"><path d="M121.805 -0.698 V-8.512 Q125.912 -10.26 128.634 -14.026 Q131.356 -17.791 131.356 -22.578 V-60.845 Q131.356 -67.256 126.799 -71.771 Q122.24 -76.286 115.865 -76.286 H56.363 L23.444 -37.947 V-7.074 H33.937 V0.245 H16.125 V-40.688 L53.064 -83.605 H115.865 Q125.278 -83.605 131.977 -76.92 Q138.675 -70.234 138.675 -60.845 V-22.578 Q138.675 -14.653 133.844 -8.648 Q129.013 -2.645 121.805 -0.698 Z M108.695 16.37  102.431 12.661  103.411 11.136 Q104.453 9.299 105.004 7.266 Q105.556 5.231 105.556 3.098 Q105.556 0.134 104.571 -2.62 Q103.584 -5.375 101.55 -7.693 Q98.598 -11.217 96.898 -15.372 Q95.199 -19.527 95.199 -24.091 Q95.199 -27.143 96.061 -30.064 Q96.924 -32.985 98.709 -35.577 L99.628 -36.98 L105.73 -33.208 L104.688 -31.744 Q103.523 -30.033 102.939 -28.017 Q102.357 -26.002 102.357 -23.868 Q102.357 -20.805 103.485 -18.05 Q104.614 -15.296 106.648 -12.977 Q109.663 -9.578 111.269 -5.486 Q112.875 -1.392 112.875 3.172 Q112.875 6.285 112.043 9.238 Q111.213 12.19 109.613 14.782 L108.695 16.37 Z M81.976 16.37  75.775 12.661  76.694 11.136 Q77.797 9.362 78.348 7.377 Q78.901 5.392 78.901 3.197 Q78.901 0.134 77.834 -2.62 Q76.768 -5.375 74.733 -7.693 Q71.78 -11.217 70.082 -15.372 Q68.383 -19.527 68.383 -24.091 Q68.383 -27.143 69.276 -30.064 Q70.168 -32.985 71.893 -35.577 L72.811 -36.98 L79.013 -33.208 L78.032 -31.744 Q76.866 -30.033 76.252 -28.048 Q75.639 -26.063 75.639 -23.93 Q75.639 -20.866 76.768 -18.081 Q77.897 -15.296 79.993 -12.977 Q83.007 -9.578 84.613 -5.486 Q86.219 -1.392 86.219 3.172 Q86.219 6.285 85.388 9.238 Q84.556 12.19 82.895 14.782 L81.976 16.37 Z M55.259 16.37  49.057 12.661  50.037 11.136 Q51.079 9.362 51.631 7.346 Q52.184 5.331 52.184 3.135 Q52.184 0.071 51.147 -2.651 Q50.112 -5.375 48.077 -7.693 Q45.063 -11.217 43.346 -15.34 Q41.628 -19.465 41.628 -24.03 Q41.628 -27.08 42.489 -30.033 Q43.352 -32.985 45.174 -35.577 L46.255 -37.078 L52.295 -33.208 L51.315 -31.744 Q50.149 -30.033 49.565 -28.048 Q48.983 -26.063 48.983 -23.93 Q48.983 -20.866 50.112 -18.081 Q51.24 -15.296 53.274 -12.977 Q56.289 -9.578 57.895 -5.486 Q59.501 -1.392 59.501 3.172 Q59.501 6.285 58.671 9.238 Q57.839 12.19 56.239 14.782 L55.259 16.37 Z"/></g><g id="Thin-L" transform="matrix(1 0 0 1 787.282 1556)"><path d="M119.449 -3.736 V-8.885 Q124.113 -10.447 127.3 -14.429 Q130.488 -18.41 130.488 -23.633 V-59.851 Q130.488 -66.388 125.806 -70.903 Q121.123 -75.418 114.5 -75.418 H56.612 L24.312 -38.566 V-7.942 H35.301 V-2.98 H19.35 V-40.501 L54.365 -80.38 H114.5 Q123.171 -80.38 129.31 -74.346 Q135.45 -68.31 135.45 -59.851 V-23.633 Q135.45 -16.327 130.867 -10.851 Q126.283 -5.375 119.449 -3.736 Z M106.772 13.145  102.307 11.049  102.977 9.772 Q103.771 7.874 104.229 5.902 Q104.688 3.93 104.688 1.919 Q104.688 -1.106 103.764 -3.954 Q102.84 -6.8 100.868 -9.182 Q98.35 -12.518 96.806 -16.394 Q95.262 -20.271 95.262 -24.402 Q95.262 -26.956 95.937 -29.412 Q96.613 -31.868 98.09 -34.151 L98.635 -35.18 L102.939 -32.96 L102.145 -31.807 Q101.104 -30.157 100.583 -28.141 Q100.062 -26.126 100.062 -24.117 Q100.062 -21.053 101.191 -18.205 Q102.32 -15.359 104.292 -12.977 Q106.933 -9.89 108.292 -6.137 Q109.65 -2.385 109.65 1.746 Q109.65 4.425 109.036 6.943 Q108.421 9.46 107.318 11.744 L106.772 13.145 Z M81.233 13.145  76.892 11.049  77.437 9.772 Q78.355 7.998 78.814 6.044 Q79.274 4.091 79.274 1.957 Q79.274 -1.106 78.268 -3.954 Q77.263 -6.8 75.291 -9.182 Q72.774 -12.518 71.229 -16.394 Q69.684 -20.271 69.684 -24.402 Q69.684 -26.956 70.423 -29.412 Q71.161 -31.868 72.513 -34.151 L73.059 -35.18 L77.4 -32.96 L76.731 -31.807 Q75.688 -30.157 75.105 -28.203 Q74.522 -26.25 74.522 -24.241 Q74.522 -21.177 75.65 -18.268 Q76.779 -15.359 78.875 -12.977 Q81.518 -9.89 82.876 -6.137 Q84.234 -2.385 84.234 1.746 Q84.234 4.425 83.621 6.943 Q83.007 9.46 81.778 11.744 L81.233 13.145 Z M55.693 13.145  51.352 11.049  52.022 9.772 Q52.816 7.998 53.274 5.982 Q53.733 3.967 53.733 1.833 Q53.733 -1.23 52.79 -4.015 Q51.848 -6.8 49.876 -9.182 Q47.233 -12.518 45.734 -16.333 Q44.232 -20.147 44.232 -24.278 Q44.232 -26.832 44.908 -29.351 Q45.584 -31.868 46.974 -34.151 L47.68 -35.217 L51.861 -32.96 L51.19 -31.807 Q50.149 -30.157 49.628 -28.203 Q49.107 -26.25 49.107 -24.241 Q49.107 -21.177 50.236 -18.268 Q51.365 -15.359 53.337 -12.977 Q55.978 -9.89 57.337 -6.137 Q58.695 -2.385 58.695 1.746 Q58.695 4.425 58.081 6.943 Q57.466 9.46 56.363 11.744 L55.693 13.145 Z"/></g><g id="Ultralight-L" transform="matrix(1 0 0 1 491.205 1556)"><path d="M118.035 -5.56 V-9.107 Q123.034 -10.559 126.501 -14.671 Q129.968 -18.782 129.968 -24.265 V-59.256 Q129.968 -65.867 125.211 -70.382 Q120.454 -74.897 113.681 -74.897 H56.76 L24.832 -38.939 V-8.462 H36.12 V-4.915 H21.285 V-40.39 L55.148 -78.445 H113.681 Q121.905 -78.445 127.71 -72.801 Q133.515 -67.157 133.515 -59.256 V-24.265 Q133.515 -17.331 129.081 -12.171 Q124.646 -7.011 118.035 -5.56 Z M105.619 11.21  102.233 10.081  102.716 8.953 Q103.361 7.018 103.764 5.083 Q104.168 3.148 104.168 1.213 Q104.168 -1.851 103.281 -4.754 Q102.394 -7.656 100.459 -10.075 Q98.201 -13.3 96.75 -17.009 Q95.299 -20.717 95.299 -24.587 Q95.299 -26.845 95.863 -29.022 Q96.428 -31.199 97.718 -33.295 L98.04 -34.101 L101.265 -32.811 L100.62 -31.844 Q99.653 -30.231 99.169 -28.216 Q98.685 -26.2 98.685 -24.265 Q98.685 -21.201 99.814 -18.299 Q100.943 -15.396 102.877 -12.977 Q105.296 -10.075 106.506 -6.527 Q107.715 -2.98 107.715 0.89 Q107.715 3.309 107.231 5.566 Q106.748 7.824 105.941 9.92 L105.619 11.21 Z M80.786 11.21  77.561 10.081  77.884 8.953 Q78.69 7.179 79.093 5.244 Q79.496 3.309 79.496 1.213 Q79.496 -1.851 78.529 -4.754 Q77.561 -7.656 75.626 -10.075 Q73.369 -13.3 71.918 -17.009 Q70.466 -20.717 70.466 -24.587 Q70.466 -26.845 71.111 -29.022 Q71.756 -31.199 72.885 -33.295 L73.207 -34.101 L76.433 -32.811 L75.949 -31.844 Q74.981 -30.231 74.417 -28.296 Q73.853 -26.361 73.853 -24.426 Q73.853 -21.362 74.981 -18.379 Q76.11 -15.396 78.206 -12.977 Q80.625 -10.075 81.834 -6.527 Q83.044 -2.98 83.044 0.89 Q83.044 3.309 82.56 5.566 Q82.076 7.824 81.109 9.92 L80.786 11.21 Z M55.954 11.21  52.729 10.081  53.212 8.953 Q53.858 7.179 54.261 5.163 Q54.664 3.148 54.664 1.051 Q54.664 -2.012 53.777 -4.834 Q52.89 -7.656 50.955 -10.075 Q48.536 -13.3 47.166 -16.928 Q45.795 -20.556 45.795 -24.426 Q45.795 -26.684 46.359 -28.941 Q46.924 -31.199 48.053 -33.295 L48.536 -34.101 L51.6 -32.811 L51.116 -31.844 Q50.149 -30.231 49.665 -28.296 Q49.181 -26.361 49.181 -24.426 Q49.181 -21.362 50.31 -18.379 Q51.439 -15.396 53.374 -12.977 Q55.793 -10.075 57.002 -6.527 Q58.211 -2.98 58.211 0.89 Q58.211 3.309 57.727 5.566 Q57.244 7.824 56.438 9.92 L55.954 11.21 Z"/></g><g id="Bold-M" transform="matrix(1 0 0 1 2281.8 1126)"><path d="M98.5 -2.23 V-24.605 Q98.5 -24.605 98.5 -24.605 Q98.5 -24.605 98.5 -24.605 V-55.855 Q98.5 -59.104 96.224 -61.416 Q93.948 -63.73 90.75 -63.73 H45.25 L21.5 -35.355 V-16.73 V-0.98 H5.75 V-41.23 L38.125 -79.48 H90.875 Q100.625 -79.48 107.438 -72.577 Q114.25 -65.674 114.25 -55.98 V-24.48 Q114.25 -16.605 109.812 -10.605 Q105.375 -4.605 98.5 -2.23 Z M86.75 14.02  76.25 6.77  78.625 3.145 Q79.375 2.02 79.75 0.833 Q80.125 -0.355 80.125 -1.73 Q80.125 -3.48 79.5 -5.105 Q78.875 -6.73 77.625 -7.98 Q74.625 -11.105 73.062 -15.051 Q71.5 -18.999 71.5 -23.304 Q71.5 -26.605 72.375 -29.667 Q73.25 -32.73 75 -35.48 L77.375 -39.23 L88 -31.98 L85.5 -28.23 Q84.875 -27.23 84.5 -25.98 Q84.125 -24.73 84.125 -23.48 Q84.125 -21.774 84.75 -20.189 Q85.375 -18.605 86.625 -17.23 Q89.625 -13.98 91.312 -9.98 Q93 -5.98 93 -1.637 Q93 1.691 92 4.73 Q91 7.77 89.25 10.395 L86.75 14.02 Z M64.625 14.02  54 6.77  56.375 3.145 Q57.125 2.02 57.5 0.833 Q57.875 -0.355 57.875 -1.73 Q57.875 -3.48 57.25 -5.105 Q56.625 -6.73 55.375 -7.98 Q52.375 -11.23 50.75 -15.176 Q49.125 -19.124 49.125 -23.429 Q49.125 -26.73 50.062 -29.792 Q51 -32.855 52.75 -35.48 L55.25 -39.23 L65.75 -31.98 L63.375 -28.23 Q62.75 -27.105 62.375 -25.917 Q62 -24.73 62 -23.355 Q62 -21.605 62.562 -20.042 Q63.125 -18.48 64.375 -17.23 Q67.358 -14.156 68.991 -10.13 Q70.625 -6.105 70.625 -1.762 Q70.625 1.566 69.683 4.605 Q68.74 7.645 67 10.395 L64.625 14.02 Z M42.5 14.02  31.875 6.77  34.375 3.145 Q35.125 2.145 35.5 0.958 Q35.875 -0.23 35.875 -1.605 Q35.875 -3.355 35.188 -4.98 Q34.5 -6.605 33.25 -7.98 Q30.375 -11.105 28.75 -15.02 Q27.125 -18.935 27.125 -23.206 Q27.125 -26.48 28.062 -29.605 Q29 -32.73 30.75 -35.48 L33.125 -39.23 L43.75 -31.98 L41.25 -28.23 Q40.5 -27.105 40.125 -25.89 Q39.75 -24.675 39.75 -23.339 Q39.75 -21.639 40.375 -20.059 Q41 -18.48 42.25 -17.23 Q45.233 -14.156 46.866 -10.13 Q48.5 -6.105 48.5 -1.762 Q48.5 1.566 47.557 4.605 Q46.615 7.645 44.875 10.395 L42.5 14.02 Z"/></g><g id="Semibold-M" transform="matrix(1 0 0 1 1985.97 1126)"><path d="M96.979 -3.806 V-21.127 Q97.956 -21.725 98.554 -22.702 Q99.153 -23.681 99.153 -24.876 V-55.584 Q99.153 -59.212 96.589 -61.797 Q94.024 -64.382 90.424 -64.382 H44.979 L20.848 -35.844 V-16.077 H23.021 V-2.827 H7.598 V-40.795 L38.94 -77.632 H90.495 Q99.593 -77.632 105.998 -71.176 Q112.403 -64.72 112.403 -55.654 V-24.806 Q112.403 -17.257 108.046 -11.584 Q103.69 -5.909 96.979 -3.806 Z M86.044 11.194  76.521 4.705  78.571 1.515 Q79.321 0.39 79.696 -0.797 Q80.071 -1.985 80.071 -3.36 Q80.071 -5.11 79.446 -6.735 Q78.821 -8.36 77.571 -9.61 Q74.734 -12.517 73.225 -16.244 Q71.718 -19.969 71.718 -24.032 Q71.718 -27.149 72.565 -30.021 Q73.412 -32.892 75.054 -35.48 L77.104 -38.686 L86.75 -32.197 L84.576 -28.936 Q83.896 -27.882 83.549 -26.659 Q83.201 -25.436 83.201 -24.132 Q83.201 -22.406 83.826 -20.805 Q84.451 -19.202 85.701 -17.882 Q88.537 -14.904 90.118 -11.149 Q91.696 -7.392 91.696 -3.309 Q91.696 -0.176 90.778 2.683 Q89.859 5.543 88.218 8.059 L86.044 11.194 Z M64.407 11.194  54.815 4.705  56.864 1.515 Q57.614 0.39 57.989 -0.797 Q58.364 -1.985 58.364 -3.36 Q58.364 -5.11 57.739 -6.735 Q57.114 -8.36 55.864 -9.61 Q53.028 -12.589 51.484 -16.314 Q49.94 -20.039 49.94 -24.104 Q49.94 -27.219 50.824 -30.091 Q51.706 -32.964 53.347 -35.48 L55.468 -38.686 L65.044 -32.197 L62.94 -28.936 Q62.261 -27.811 61.913 -26.624 Q61.565 -25.436 61.565 -24.061 Q61.565 -22.311 62.155 -20.721 Q62.745 -19.132 63.995 -17.882 Q66.823 -15.004 68.37 -11.234 Q69.919 -7.464 69.919 -3.379 Q69.919 -0.247 69.032 2.613 Q68.146 5.471 66.511 8.059 L64.407 11.194 Z M42.826 11.194  33.179 4.705  35.354 1.515 Q36.104 0.46 36.479 -0.727 Q36.854 -1.915 36.854 -3.29 Q36.854 -5.04 36.166 -6.665 Q35.479 -8.29 34.229 -9.61 Q31.462 -12.517 29.919 -16.225 Q28.375 -19.932 28.375 -23.977 Q28.375 -27.077 29.231 -29.985 Q30.087 -32.892 31.782 -35.48 L33.886 -38.686 L43.532 -32.197 L41.359 -28.936 Q40.609 -27.866 40.234 -26.636 Q39.859 -25.405 39.859 -24.052 Q39.859 -22.33 40.484 -20.731 Q41.109 -19.132 42.359 -17.882 Q45.186 -15.004 46.734 -11.234 Q48.282 -7.464 48.282 -3.379 Q48.282 -0.247 47.396 2.613 Q46.511 5.471 44.875 8.059 L42.826 11.194 Z"/></g><g id="Medium-M" transform="matrix(1 0 0 1 1689.91 1126)"><path d="M95.838 -4.989 V-18.517 Q97.549 -19.564 98.595 -21.276 Q99.641 -22.989 99.641 -25.08 V-55.38 Q99.641 -59.295 96.861 -62.082 Q94.082 -64.871 90.179 -64.871 H44.775 L20.359 -36.211 V-15.589 H24.163 V-4.214 H8.984 V-40.469 L39.551 -76.246 H90.209 Q98.817 -76.246 104.918 -70.125 Q111.016 -64.005 111.016 -55.409 V-25.051 Q111.016 -17.746 106.721 -12.317 Q102.426 -6.887 95.838 -4.989 Z M85.514 9.075  76.725 3.156  78.53 0.291 Q79.28 -0.834 79.655 -2.021 Q80.03 -3.209 80.03 -4.584 Q80.03 -6.334 79.405 -7.959 Q78.78 -9.584 77.53 -10.834 Q74.815 -13.577 73.347 -17.137 Q71.88 -20.696 71.88 -24.579 Q71.88 -27.556 72.707 -30.286 Q73.535 -33.015 75.095 -35.48 L76.9 -38.279 L85.812 -32.36 L83.884 -29.466 Q83.162 -28.371 82.835 -27.169 Q82.509 -25.966 82.509 -24.621 Q82.509 -22.881 83.134 -21.266 Q83.759 -19.651 85.009 -18.371 Q87.722 -15.596 89.22 -12.025 Q90.718 -8.452 90.718 -4.561 Q90.718 -1.577 89.86 1.146 Q89.002 3.87 87.442 6.305 L85.514 9.075 Z M64.245 9.075  55.426 3.156  57.231 0.291 Q57.981 -0.834 58.356 -2.021 Q58.731 -3.209 58.731 -4.584 Q58.731 -6.334 58.106 -7.959 Q57.481 -9.584 56.231 -10.834 Q53.516 -13.607 52.034 -17.167 Q50.551 -20.726 50.551 -24.609 Q50.551 -27.586 51.394 -30.315 Q52.236 -33.045 53.796 -35.48 L55.63 -38.279 L64.514 -32.36 L62.614 -29.466 Q61.894 -28.341 61.566 -27.154 Q61.239 -25.966 61.239 -24.591 Q61.239 -22.841 61.849 -21.231 Q62.459 -19.621 63.709 -18.371 Q66.42 -15.639 67.904 -12.061 Q69.389 -8.482 69.389 -4.591 Q69.389 -1.607 68.545 1.116 Q67.701 3.841 66.144 6.305 L64.245 9.075 Z M43.071 9.075  34.157 3.156  36.087 0.291 Q36.837 -0.804 37.212 -1.991 Q37.587 -3.179 37.587 -4.554 Q37.587 -6.304 36.9 -7.929 Q36.212 -9.554 34.962 -10.834 Q32.278 -13.577 30.795 -17.13 Q29.312 -20.681 29.312 -24.556 Q29.312 -27.526 30.108 -30.271 Q30.902 -33.015 32.557 -35.48 L34.456 -38.279 L43.37 -32.36 L41.44 -29.466 Q40.69 -28.436 40.315 -27.195 Q39.94 -25.954 39.94 -24.587 Q39.94 -22.85 40.565 -21.235 Q41.19 -19.621 42.44 -18.371 Q45.151 -15.639 46.635 -12.061 Q48.12 -8.482 48.12 -4.591 Q48.12 -1.607 47.276 1.116 Q46.432 3.841 44.875 6.305 L43.071 9.075 Z"/></g><g id="Regular-M" transform="matrix(1 0 0 1 1394.06 1126)"><path d="M95 -5.855 V-16.605 Q97.25 -17.98 98.625 -20.23 Q100 -22.48 100 -25.23 V-55.23 Q100 -59.355 97.062 -62.292 Q94.125 -65.23 90 -65.23 H44.625 L20 -36.48 V-15.23 H25 V-5.23 H10 V-40.23 L40 -75.23 H90 Q98.25 -75.23 104.125 -69.355 Q110 -63.48 110 -55.23 V-25.23 Q110 -18.105 105.75 -12.855 Q101.5 -7.605 95 -5.855 Z M85.125 7.52  76.875 2.02  78.5 -0.605 Q79.25 -1.73 79.625 -2.917 Q80 -4.105 80 -5.48 Q80 -7.23 79.375 -8.855 Q78.75 -10.48 77.5 -11.73 Q74.875 -14.355 73.438 -17.792 Q72 -21.23 72 -24.98 Q72 -27.855 72.812 -30.48 Q73.625 -33.105 75.125 -35.48 L76.75 -37.98 L85.125 -32.48 L83.375 -29.855 Q82.625 -28.73 82.312 -27.542 Q82 -26.355 82 -24.98 Q82 -23.23 82.625 -21.605 Q83.25 -19.98 84.5 -18.73 Q87.125 -16.105 88.562 -12.667 Q90 -9.23 90 -5.48 Q90 -2.605 89.188 0.02 Q88.375 2.645 86.875 5.02 L85.125 7.52 Z M64.125 7.52  55.875 2.02  57.5 -0.605 Q58.25 -1.73 58.625 -2.917 Q59 -4.105 59 -5.48 Q59 -7.23 58.375 -8.855 Q57.75 -10.48 56.5 -11.73 Q53.875 -14.355 52.438 -17.792 Q51 -21.23 51 -24.98 Q51 -27.855 51.812 -30.48 Q52.625 -33.105 54.125 -35.48 L55.75 -37.98 L64.125 -32.48 L62.375 -29.855 Q61.625 -28.73 61.312 -27.542 Q61 -26.355 61 -24.98 Q61 -23.23 61.625 -21.605 Q62.25 -19.98 63.5 -18.73 Q66.125 -16.105 67.562 -12.667 Q69 -9.23 69 -5.48 Q69 -2.605 68.188 0.02 Q67.375 2.645 65.875 5.02 L64.125 7.52 Z M43.25 7.52  34.875 2.02  36.625 -0.605 Q37.375 -1.73 37.75 -2.917 Q38.125 -4.105 38.125 -5.48 Q38.125 -7.23 37.438 -8.855 Q36.75 -10.48 35.5 -11.73 Q32.875 -14.355 31.438 -17.792 Q30 -21.23 30 -24.98 Q30 -27.855 30.75 -30.48 Q31.5 -33.105 33.125 -35.48 L34.875 -37.98 L43.25 -32.48 L41.5 -29.855 Q40.75 -28.855 40.375 -27.605 Q40 -26.355 40 -24.98 Q40 -23.23 40.625 -21.605 Q41.25 -19.98 42.5 -18.73 Q45.125 -16.105 46.562 -12.667 Q48 -9.23 48 -5.48 Q48 -2.605 47.188 0.02 Q46.375 2.645 44.875 5.02 L43.25 7.52 Z"/></g><g id="Light-M" transform="matrix(1 0 0 1 1098.18 1126)"><path d="M93.51 -8.259 V-16.269 Q96.336 -17.499 98.169 -20.061 Q100 -22.624 100 -25.855 V-54.605 Q100 -59.019 96.823 -62.124 Q93.644 -65.23 89.183 -65.23 H44.529 L20 -37.057 V-15.23 H26.106 V-7.73 H12.5 V-39.894 L41.057 -72.73 H89.183 Q96.76 -72.73 102.13 -67.431 Q107.5 -62.134 107.5 -54.605 V-25.855 Q107.5 -19.355 103.514 -14.561 Q99.529 -9.769 93.51 -8.259 Z M83.779 4.971  77.5 1.059  78.692 -1.037 Q79.346 -2.259 79.672 -3.519 Q80 -4.779 80 -6.154 Q80 -8.095 79.375 -9.912 Q78.75 -11.73 77.453 -13.172 Q75.164 -15.749 73.846 -18.946 Q72.529 -22.144 72.529 -25.605 Q72.529 -28.047 73.198 -30.311 Q73.865 -32.576 75.125 -34.662 L76.317 -36.586 L82.672 -32.672 L81.355 -30.624 Q80.654 -29.451 80.317 -28.167 Q79.98 -26.884 79.98 -25.509 Q79.98 -23.566 80.677 -21.774 Q81.375 -19.98 82.672 -18.537 Q85.01 -16.057 86.255 -12.884 Q87.5 -9.711 87.5 -6.297 Q87.5 -3.807 86.855 -1.519 Q86.211 0.77 85.047 2.905 L83.779 4.971 Z M63.547 4.971  57.269 1.059  58.461 -1.037 Q59.115 -2.259 59.443 -3.519 Q59.769 -4.779 59.769 -6.154 Q59.769 -8.095 59.144 -9.912 Q58.519 -11.73 57.221 -13.172 Q54.932 -15.749 53.615 -18.946 Q52.299 -22.144 52.299 -25.605 Q52.299 -28.047 52.966 -30.311 Q53.635 -32.576 54.894 -34.662 L56.086 -36.586 L62.443 -32.672 L61.125 -30.624 Q60.422 -29.451 60.086 -28.191 Q59.75 -26.932 59.75 -25.557 Q59.75 -23.615 60.447 -21.797 Q61.144 -19.98 62.443 -18.537 Q64.779 -16.057 66.024 -12.884 Q67.269 -9.711 67.269 -6.297 Q67.269 -3.807 66.625 -1.519 Q65.981 0.77 64.817 2.905 L63.547 4.971 Z M43.394 4.971  37.039 1.059  38.307 -1.037 Q38.961 -2.259 39.289 -3.542 Q39.615 -4.826 39.615 -6.201 Q39.615 -8.144 38.953 -9.936 Q38.289 -11.73 36.99 -13.172 Q34.654 -15.701 33.361 -18.899 Q32.068 -22.095 32.068 -25.557 Q32.068 -27.999 32.697 -30.287 Q33.328 -32.576 34.664 -34.662 L35.932 -36.586 L42.289 -32.672 L40.971 -30.624 Q40.269 -29.529 39.894 -28.23 Q39.519 -26.932 39.519 -25.557 Q39.519 -23.615 40.216 -21.797 Q40.914 -19.98 42.211 -18.537 Q44.547 -16.057 45.794 -12.884 Q47.039 -9.711 47.039 -6.297 Q47.039 -3.807 46.394 -1.519 Q45.75 0.77 44.586 2.905 L43.394 4.971 Z"/></g><g id="Thin-M" transform="matrix(1 0 0 1 802.565 1126)"><path d="M92.019 -10.662 V-15.932 Q95.422 -17.019 97.711 -19.894 Q100 -22.769 100 -26.48 V-53.98 Q100 -58.682 96.581 -61.956 Q93.164 -65.23 88.365 -65.23 H44.432 L20 -37.634 V-15.23 H27.211 V-10.23 H15 V-39.557 L42.115 -70.23 H88.365 Q95.269 -70.23 100.135 -65.509 Q105 -60.787 105 -53.98 V-26.48 Q105 -20.605 101.279 -16.269 Q97.558 -11.932 92.019 -10.662 Z M82.433 2.424  78.125 0.098  78.885 -1.47 Q79.442 -2.787 79.721 -4.12 Q80 -5.451 80 -6.826 Q80 -8.961 79.375 -10.97 Q78.75 -12.98 77.404 -14.615 Q75.453 -17.144 74.255 -20.1 Q73.058 -23.057 73.058 -26.23 Q73.058 -28.24 73.581 -30.144 Q74.106 -32.047 75.125 -33.845 L75.885 -35.191 L80.221 -32.865 L79.336 -31.394 Q78.683 -30.172 78.323 -28.792 Q77.961 -27.412 77.961 -26.037 Q77.961 -23.902 78.731 -21.941 Q79.5 -19.98 80.846 -18.345 Q82.894 -16.009 83.948 -13.1 Q85 -10.191 85 -7.115 Q85 -5.009 84.524 -3.057 Q84.047 -1.105 83.221 0.789 L82.433 2.424 Z M62.971 2.424  58.664 0.098  59.422 -1.47 Q59.981 -2.787 60.26 -4.12 Q60.539 -5.451 60.539 -6.826 Q60.539 -8.961 59.914 -10.97 Q59.289 -12.98 57.943 -14.615 Q55.99 -17.144 54.794 -20.1 Q53.596 -23.057 53.596 -26.23 Q53.596 -28.24 54.12 -30.144 Q54.644 -32.047 55.664 -33.845 L56.422 -35.191 L60.76 -32.865 L59.875 -31.394 Q59.221 -30.172 58.86 -28.84 Q58.5 -27.509 58.5 -26.134 Q58.5 -23.999 59.269 -21.99 Q60.039 -19.98 61.385 -18.345 Q63.432 -16.009 64.485 -13.1 Q65.539 -10.191 65.539 -7.115 Q65.539 -5.009 65.062 -3.057 Q64.586 -1.105 63.76 0.789 L62.971 2.424 Z M43.539 2.424  39.203 0.098  39.99 -1.47 Q40.547 -2.787 40.828 -4.167 Q41.106 -5.547 41.106 -6.922 Q41.106 -9.057 40.466 -11.019 Q39.828 -12.98 38.481 -14.615 Q36.432 -17.047 35.284 -20.004 Q34.135 -22.961 34.135 -26.134 Q34.135 -28.144 34.644 -30.095 Q35.154 -32.047 36.203 -33.845 L36.99 -35.191 L41.328 -32.865 L40.443 -31.394 Q39.789 -30.201 39.414 -28.855 Q39.039 -27.509 39.039 -26.134 Q39.039 -23.999 39.807 -21.99 Q40.578 -19.98 41.922 -18.345 Q43.971 -16.009 45.024 -13.1 Q46.078 -10.191 46.078 -7.115 Q46.078 -5.009 45.601 -3.057 Q45.125 -1.105 44.297 0.789 L43.539 2.424 Z"/></g><g id="Ultralight-M" transform="matrix(1 0 0 1 506.415 1126)"><path d="M91.125 -12.105 V-15.73 Q94.875 -16.73 97.438 -19.792 Q100 -22.855 100 -26.855 V-53.605 Q100 -58.48 96.438 -61.855 Q92.875 -65.23 87.875 -65.23 H44.375 L20 -37.98 V-15.23 H27.875 V-11.73 H16.5 V-39.355 L42.75 -68.73 H87.875 Q94.375 -68.73 98.938 -64.355 Q103.5 -59.98 103.5 -53.605 V-26.855 Q103.5 -21.355 99.938 -17.292 Q96.375 -13.23 91.125 -12.105 Z M81.625 0.895  78.5 -0.48  79 -1.73 Q79.5 -3.105 79.75 -4.48 Q80 -5.855 80 -7.23 Q80 -9.48 79.375 -11.605 Q78.75 -13.73 77.375 -15.48 Q75.625 -17.98 74.5 -20.792 Q73.375 -23.605 73.375 -26.605 Q73.375 -28.355 73.812 -30.042 Q74.25 -31.73 75.125 -33.355 L75.625 -34.355 L78.75 -32.98 L78.125 -31.855 Q77.5 -30.605 77.125 -29.167 Q76.75 -27.73 76.75 -26.355 Q76.75 -24.105 77.562 -22.042 Q78.375 -19.98 79.75 -18.23 Q81.625 -15.98 82.562 -13.23 Q83.5 -10.48 83.5 -7.605 Q83.5 -5.73 83.125 -3.98 Q82.75 -2.23 82.125 -0.48 L81.625 0.895 Z M62.625 0.895  59.5 -0.48  60 -1.73 Q60.5 -3.105 60.75 -4.48 Q61 -5.855 61 -7.23 Q61 -9.48 60.375 -11.605 Q59.75 -13.73 58.375 -15.48 Q56.625 -17.98 55.5 -20.792 Q54.375 -23.605 54.375 -26.605 Q54.375 -28.355 54.812 -30.042 Q55.25 -31.73 56.125 -33.355 L56.625 -34.355 L59.75 -32.98 L59.125 -31.855 Q58.5 -30.605 58.125 -29.23 Q57.75 -27.855 57.75 -26.48 Q57.75 -24.23 58.562 -22.105 Q59.375 -19.98 60.75 -18.23 Q62.625 -15.98 63.562 -13.23 Q64.5 -10.48 64.5 -7.605 Q64.5 -5.73 64.125 -3.98 Q63.75 -2.23 63.125 -0.48 L62.625 0.895 Z M43.625 0.895  40.5 -0.48  41 -1.73 Q41.5 -3.105 41.75 -4.542 Q42 -5.98 42 -7.355 Q42 -9.605 41.375 -11.667 Q40.75 -13.73 39.375 -15.48 Q37.5 -17.855 36.438 -20.667 Q35.375 -23.48 35.375 -26.48 Q35.375 -28.23 35.812 -29.98 Q36.25 -31.73 37.125 -33.355 L37.625 -34.355 L40.75 -32.98 L40.125 -31.855 Q39.5 -30.605 39.125 -29.23 Q38.75 -27.855 38.75 -26.48 Q38.75 -24.23 39.562 -22.105 Q40.375 -19.98 41.75 -18.23 Q43.625 -15.98 44.562 -13.23 Q45.5 -10.48 45.5 -7.605 Q45.5 -5.73 45.125 -3.98 Q44.75 -2.23 44.125 -0.48 L43.625 0.895 Z"/></g><g id="Bold-S" transform="matrix(1 0 0 1 2294.23 696)"><path d="M73.772 -11.067 V-27.34 Q74.955 -26.255 75.941 -26.551 Q76.928 -26.847 76.928 -27.636 V-49.925 Q76.928 -52.163 75.363 -53.756 Q73.799 -55.349 71.602 -55.349 H34.42 L17.753 -36.315 V-22.211 H19.331 V-10.574 H6.115 V-40.654 L29.292 -66.987 H71.7 Q78.801 -66.987 83.683 -62.034 Q88.565 -57.08 88.565 -50.07 V-27.537 Q88.565 -21.028 84.275 -16.294 Q79.985 -11.56 73.772 -11.067 Z M66.375 3.431  58.682 -1.895  60.556 -4.459 Q61.049 -5.248 61.345 -6.136 Q61.641 -7.023 61.641 -7.911 Q61.641 -9.188 61.148 -10.375 Q60.654 -11.56 59.76 -12.443 Q57.584 -14.692 56.457 -17.522 Q55.329 -20.352 55.329 -23.437 Q55.329 -25.803 55.968 -28.002 Q56.607 -30.2 57.893 -32.173 L59.668 -35.033 L67.361 -29.707 L65.595 -27.024 Q65.191 -26.354 64.846 -25.417 Q64.501 -24.48 64.501 -23.691 Q64.501 -22.448 64.994 -21.294 Q65.487 -20.14 66.382 -19.159 Q68.557 -16.811 69.783 -13.939 Q71.01 -11.067 71.01 -7.952 Q71.01 -5.565 70.272 -3.385 Q69.535 -1.204 68.249 0.67 L66.375 3.431 Z M50.693 3.431  42.902 -1.895  44.776 -4.459 Q45.269 -5.284 45.515 -6.153 Q45.762 -7.023 45.762 -7.911 Q45.762 -9.175 45.317 -10.349 Q44.872 -11.523 43.982 -12.425 Q41.817 -14.815 40.634 -17.627 Q39.45 -20.44 39.45 -23.508 Q39.45 -25.861 40.138 -28.073 Q40.827 -30.286 42.113 -32.173 L43.987 -35.033 L51.581 -29.707 L49.914 -27.024 Q49.51 -26.255 49.165 -25.367 Q48.819 -24.48 48.819 -23.592 Q48.819 -22.315 49.263 -21.178 Q49.707 -20.042 50.584 -19.157 Q52.707 -16.946 53.87 -14.051 Q55.033 -11.156 55.033 -8.035 Q55.033 -5.705 54.366 -3.51 Q53.699 -1.316 52.468 0.67 L50.693 3.431 Z M34.815 3.431  27.122 -1.895  28.956 -4.479 Q29.489 -5.149 29.735 -6.037 Q29.982 -6.925 29.982 -7.812 Q29.982 -9.077 29.491 -10.25 Q29.001 -11.424 28.108 -12.425 Q26.037 -14.716 24.903 -17.516 Q23.769 -20.315 23.769 -23.369 Q23.769 -25.711 24.508 -27.955 Q25.248 -30.2 26.431 -32.173 L28.108 -35.033 L35.801 -29.707 L34.026 -27.044 Q33.532 -26.156 33.237 -25.296 Q32.941 -24.436 32.941 -23.579 Q32.941 -22.342 33.434 -21.192 Q33.927 -20.042 34.804 -19.157 Q36.927 -16.946 38.09 -14.051 Q39.253 -11.156 39.253 -8.035 Q39.253 -5.705 38.586 -3.51 Q37.919 -1.316 36.689 0.67 L34.815 3.431 Z"/></g><g id="Semibold-S" transform="matrix(1 0 0 1 1998.1 696)"><path d="M72.571 -12.311 V-24.596 Q74.526 -23.983 75.984 -25.05 Q77.442 -26.118 77.442 -27.85 V-49.711 Q77.442 -52.249 75.651 -54.057 Q73.859 -55.864 71.344 -55.864 H34.206 L17.238 -36.7 V-21.697 H20.531 V-12.031 H7.572 V-40.311 L29.935 -65.53 H71.401 Q77.987 -65.53 82.547 -60.929 Q87.108 -56.328 87.108 -49.813 V-27.795 Q87.108 -21.543 82.881 -17.066 Q78.655 -12.589 72.571 -12.311 Z M65.817 1.201  58.896 -3.524  60.513 -5.745 Q61.006 -6.534 61.302 -7.422 Q61.598 -8.309 61.598 -9.197 Q61.598 -10.474 61.105 -11.661 Q60.612 -12.846 59.716 -13.73 Q57.67 -15.807 56.585 -18.462 Q55.5 -21.118 55.5 -24.012 Q55.5 -26.232 56.118 -28.281 Q56.735 -30.328 57.935 -32.173 L59.454 -34.604 L66.375 -29.879 L64.867 -27.582 Q64.419 -26.869 64.095 -25.952 Q63.772 -25.037 63.772 -24.206 Q63.772 -22.947 64.265 -21.78 Q64.758 -20.612 65.653 -19.673 Q67.699 -17.541 68.84 -14.861 Q69.981 -12.181 69.981 -9.27 Q69.981 -7.038 69.308 -5 Q68.634 -2.962 67.434 -1.174 L65.817 1.201 Z M50.522 1.201  43.545 -3.524  45.161 -5.745 Q45.654 -6.57 45.901 -7.439 Q46.148 -8.309 46.148 -9.197 Q46.148 -10.461 45.703 -11.635 Q45.258 -12.809 44.367 -13.712 Q42.332 -15.887 41.212 -18.525 Q40.093 -21.162 40.093 -24.04 Q40.093 -26.246 40.739 -28.309 Q41.384 -30.372 42.584 -32.173 L44.158 -34.604 L51.024 -29.879 L49.571 -27.582 Q49.124 -26.812 48.8 -25.925 Q48.476 -25.037 48.476 -24.149 Q48.476 -22.872 48.942 -21.714 Q49.407 -20.557 50.284 -19.672 Q52.284 -17.615 53.38 -14.921 Q54.476 -12.228 54.476 -9.31 Q54.476 -7.136 53.853 -5.083 Q53.231 -3.031 52.083 -1.174 L50.522 1.201 Z M35.072 1.201  28.151 -3.524  29.729 -5.765 Q30.261 -6.479 30.508 -7.366 Q30.754 -8.254 30.754 -9.142 Q30.754 -10.405 30.263 -11.58 Q29.772 -12.753 28.88 -13.712 Q26.895 -15.83 25.825 -18.467 Q24.755 -21.102 24.755 -23.978 Q24.755 -26.182 25.43 -28.255 Q26.106 -30.328 27.246 -32.173 L28.709 -34.604 L35.629 -29.879 L34.111 -27.601 Q33.618 -26.757 33.322 -25.885 Q33.027 -25.012 33.027 -24.143 Q33.027 -22.887 33.52 -21.722 Q34.013 -20.557 34.89 -19.672 Q36.89 -17.615 37.985 -14.921 Q39.081 -12.228 39.081 -9.31 Q39.081 -7.136 38.459 -5.083 Q37.837 -3.031 36.689 -1.174 L35.072 1.201 Z"/></g><g id="Medium-S" transform="matrix(1 0 0 1 1701.85 696)"><path d="M71.671 -13.244 V-22.537 Q74.204 -22.278 76.016 -23.925 Q77.828 -25.572 77.828 -28.011 V-49.55 Q77.828 -52.314 75.866 -54.281 Q73.906 -56.25 71.151 -56.25 H34.045 L16.852 -36.99 V-21.311 H21.431 V-13.125 H8.666 V-40.054 L30.417 -64.436 H71.175 Q77.375 -64.436 81.695 -60.099 Q86.014 -55.764 86.014 -49.62 V-27.988 Q86.014 -21.928 81.836 -17.645 Q77.658 -13.361 71.671 -13.244 Z M65.399 -0.471  59.057 -4.746  60.481 -6.711 Q60.974 -7.5 61.27 -8.387 Q61.566 -9.275 61.566 -10.162 Q61.566 -11.44 61.073 -12.625 Q60.579 -13.812 59.685 -14.694 Q57.734 -16.643 56.682 -19.167 Q55.628 -21.692 55.628 -24.444 Q55.628 -26.554 56.23 -28.49 Q56.832 -30.425 57.968 -32.173 L59.293 -34.282 L65.635 -30.007 L64.32 -28 Q63.84 -27.254 63.532 -26.355 Q63.226 -25.455 63.226 -24.591 Q63.226 -23.322 63.719 -22.144 Q64.212 -20.966 65.106 -20.06 Q67.056 -18.087 68.133 -15.552 Q69.209 -13.018 69.209 -10.259 Q69.209 -8.144 68.584 -6.213 Q67.959 -4.281 66.822 -2.558 L65.399 -0.471 Z M50.393 -0.471  44.027 -4.746  45.451 -6.711 Q45.944 -7.534 46.191 -8.404 Q46.438 -9.275 46.438 -10.162 Q46.438 -11.426 45.993 -12.6 Q45.547 -13.774 44.657 -14.677 Q42.717 -16.69 41.646 -19.198 Q40.575 -21.705 40.575 -24.439 Q40.575 -26.536 41.189 -28.486 Q41.802 -30.436 42.938 -32.173 L44.287 -34.282 L50.605 -30.007 L49.313 -28 Q48.834 -27.231 48.526 -26.343 Q48.219 -25.455 48.219 -24.568 Q48.219 -23.29 48.7 -22.117 Q49.181 -20.942 50.058 -20.058 Q51.966 -18.117 53.012 -15.574 Q54.057 -13.031 54.057 -10.267 Q54.057 -8.209 53.469 -6.263 Q52.88 -4.318 51.793 -2.558 L50.393 -0.471 Z M35.265 -0.471  28.923 -4.746  30.307 -6.73 Q30.84 -7.476 31.087 -8.364 Q31.333 -9.251 31.333 -10.139 Q31.333 -11.402 30.842 -12.577 Q30.351 -13.75 29.459 -14.677 Q27.538 -16.667 26.516 -19.18 Q25.495 -21.693 25.495 -24.435 Q25.495 -26.536 26.122 -28.481 Q26.749 -30.425 27.858 -32.173 L29.158 -34.282 L35.501 -30.007 L34.176 -28.02 Q33.682 -27.207 33.387 -26.326 Q33.091 -25.445 33.091 -24.565 Q33.091 -23.297 33.584 -22.12 Q34.077 -20.942 34.954 -20.058 Q36.862 -18.117 37.908 -15.574 Q38.953 -13.031 38.953 -10.267 Q38.953 -8.209 38.364 -6.263 Q37.775 -4.318 36.689 -2.558 L35.265 -0.471 Z"/></g><g id="Regular-S" transform="matrix(1 0 0 1 1405.73 696)"><path d="M71.01 -13.927 V-21.028 Q73.969 -21.028 76.04 -23.099 Q78.111 -25.17 78.111 -28.129 V-49.432 Q78.111 -52.361 76.025 -54.447 Q73.939 -56.533 71.01 -56.533 H33.927 L16.569 -37.202 V-21.028 H22.092 V-13.927 H9.468 V-39.865 L30.771 -63.634 H71.01 Q76.928 -63.634 81.07 -59.492 Q85.212 -55.349 85.212 -49.478 V-28.129 Q85.212 -22.211 81.07 -18.069 Q76.928 -13.927 71.01 -13.927 Z M65.093 -1.697  59.175 -5.642  60.457 -7.418 Q60.95 -8.207 61.246 -9.094 Q61.542 -9.982 61.542 -10.87 Q61.542 -12.147 61.049 -13.333 Q60.556 -14.519 59.661 -15.401 Q57.781 -17.257 56.753 -19.685 Q55.723 -22.113 55.723 -24.76 Q55.723 -26.79 56.313 -28.643 Q56.903 -30.496 57.992 -32.173 L59.175 -34.046 L65.093 -30.101 L63.919 -28.307 Q63.416 -27.537 63.12 -26.65 Q62.824 -25.762 62.824 -24.874 Q62.824 -23.597 63.317 -22.411 Q63.81 -21.225 64.705 -20.343 Q66.585 -18.487 67.613 -16.059 Q68.643 -13.631 68.643 -10.984 Q68.643 -8.954 68.053 -7.101 Q67.463 -5.248 66.375 -3.571 L65.093 -1.697 Z M50.299 -1.697  44.381 -5.642  45.663 -7.418 Q46.157 -8.242 46.403 -9.112 Q46.65 -9.982 46.65 -10.87 Q46.65 -12.134 46.205 -13.308 Q45.76 -14.481 44.869 -15.384 Q43.001 -17.28 41.965 -19.691 Q40.929 -22.102 40.929 -24.732 Q40.929 -26.748 41.519 -28.615 Q42.109 -30.483 43.198 -32.173 L44.381 -34.046 L50.299 -30.101 L49.125 -28.307 Q48.622 -27.537 48.326 -26.65 Q48.03 -25.762 48.03 -24.874 Q48.03 -23.597 48.524 -22.411 Q49.017 -21.225 49.893 -20.341 Q51.735 -18.484 52.743 -16.052 Q53.751 -13.621 53.751 -10.968 Q53.751 -8.996 53.186 -7.129 Q52.622 -5.261 51.581 -3.571 L50.299 -1.697 Z M35.406 -1.697  29.489 -5.642  30.732 -7.437 Q31.264 -8.207 31.511 -9.094 Q31.757 -9.982 31.757 -10.87 Q31.757 -12.134 31.266 -13.308 Q30.776 -14.481 29.883 -15.384 Q28.01 -17.28 27.023 -19.703 Q26.037 -22.126 26.037 -24.769 Q26.037 -26.796 26.629 -28.646 Q27.221 -30.496 28.305 -32.173 L29.489 -34.046 L35.406 -30.101 L34.223 -28.326 Q33.73 -27.537 33.434 -26.65 Q33.138 -25.762 33.138 -24.874 Q33.138 -23.597 33.631 -22.411 Q34.124 -21.225 35.001 -20.341 Q36.842 -18.484 37.85 -16.052 Q38.858 -13.621 38.858 -10.968 Q38.858 -8.996 38.294 -7.129 Q37.73 -5.261 36.689 -3.571 L35.406 -1.697 Z"/></g><g id="Light-S" transform="matrix(1 0 0 1 1109.75 696)"><path d="M69.834 -15.824 V-20.763 Q73.248 -20.648 75.68 -22.966 Q78.111 -25.284 78.111 -28.622 V-48.939 Q78.111 -52.096 75.836 -54.314 Q73.559 -56.533 70.365 -56.533 H33.851 L16.569 -37.658 V-21.028 H22.965 V-15.899 H11.441 V-39.6 L31.605 -61.661 H70.365 Q75.752 -61.661 79.496 -57.974 Q83.24 -54.287 83.24 -48.985 V-28.622 Q83.24 -23.198 79.305 -19.415 Q75.372 -15.634 69.834 -15.824 Z M64.03 -3.708  59.668 -6.401  60.609 -7.759 Q61.026 -8.624 61.284 -9.569 Q61.542 -10.514 61.542 -11.401 Q61.542 -12.829 61.049 -14.168 Q60.556 -15.505 59.623 -16.54 Q58.009 -18.356 57.074 -20.595 Q56.14 -22.834 56.14 -25.253 Q56.14 -26.942 56.617 -28.51 Q57.092 -30.079 57.992 -31.528 L58.834 -32.947 L63.157 -30.253 L62.325 -28.913 Q61.861 -28.106 61.546 -27.143 Q61.23 -26.179 61.23 -25.292 Q61.23 -23.862 61.781 -22.544 Q62.331 -21.225 63.264 -20.191 Q64.916 -18.45 65.793 -16.23 Q66.671 -14.011 66.671 -11.629 Q66.671 -9.903 66.213 -8.315 Q65.756 -6.727 64.933 -5.24 L64.03 -3.708 Z M49.843 -3.708  45.481 -6.401  46.422 -7.759 Q46.839 -8.659 47.048 -9.587 Q47.256 -10.514 47.256 -11.401 Q47.256 -12.816 46.811 -14.142 Q46.367 -15.468 45.439 -16.522 Q43.835 -18.38 42.894 -20.602 Q41.954 -22.823 41.954 -25.225 Q41.954 -26.9 42.429 -28.483 Q42.906 -30.066 43.804 -31.528 L44.647 -32.947 L48.971 -30.253 L48.139 -28.913 Q47.673 -28.106 47.359 -27.161 Q47.044 -26.218 47.044 -25.33 Q47.044 -23.901 47.594 -22.563 Q48.144 -21.225 49.059 -20.19 Q50.673 -18.446 51.529 -16.223 Q52.385 -14 52.385 -11.613 Q52.385 -9.945 51.954 -8.342 Q51.523 -6.74 50.747 -5.24 L49.843 -3.708 Z M35.52 -3.708  31.196 -6.401  32.059 -7.779 Q32.516 -8.624 32.725 -9.587 Q32.933 -10.551 32.933 -11.439 Q32.933 -12.855 32.461 -14.161 Q31.99 -15.468 31.059 -16.522 Q29.413 -18.342 28.541 -20.575 Q27.668 -22.809 27.668 -25.224 Q27.668 -26.909 28.165 -28.494 Q28.662 -30.079 29.519 -31.528 L30.323 -32.947 L34.648 -30.253 L33.806 -28.933 Q33.35 -28.069 33.054 -27.143 Q32.758 -26.218 32.758 -25.33 Q32.758 -23.901 33.309 -22.563 Q33.859 -21.225 34.773 -20.19 Q36.387 -18.446 37.243 -16.223 Q38.1 -14 38.1 -11.613 Q38.1 -9.945 37.668 -8.342 Q37.237 -6.74 36.461 -5.24 L35.52 -3.708 Z"/></g><g id="Thin-S" transform="matrix(1 0 0 1 814.015 696)"><path d="M68.658 -17.72 V-20.497 Q72.527 -20.27 75.319 -22.834 Q78.111 -25.398 78.111 -29.115 V-48.446 Q78.111 -51.831 75.645 -54.182 Q73.181 -56.533 69.72 -56.533 H33.775 L16.569 -38.113 V-21.028 H23.837 V-17.872 H13.413 V-39.335 L32.44 -59.689 H69.72 Q74.575 -59.689 77.922 -56.457 Q81.267 -53.225 81.267 -48.492 V-29.115 Q81.267 -24.184 77.542 -20.763 Q73.817 -17.341 68.658 -17.72 Z M62.968 -5.718  60.161 -7.159  60.761 -8.1 Q61.102 -9.041 61.322 -10.043 Q61.542 -11.044 61.542 -11.932 Q61.542 -13.513 61.049 -15.002 Q60.556 -16.491 59.585 -17.678 Q58.237 -19.456 57.397 -21.505 Q56.557 -23.555 56.557 -25.746 Q56.557 -27.093 56.919 -28.378 Q57.282 -29.662 57.992 -30.883 L58.493 -31.846 L61.223 -30.405 L60.732 -29.521 Q60.305 -28.675 59.972 -27.636 Q59.638 -26.596 59.638 -25.709 Q59.638 -24.128 60.245 -22.677 Q60.852 -21.225 61.822 -20.039 Q63.246 -18.411 63.972 -16.401 Q64.698 -14.39 64.698 -12.273 Q64.698 -10.851 64.374 -9.528 Q64.049 -8.207 63.492 -6.91 L62.968 -5.718 Z M49.388 -5.718  46.582 -7.159  47.18 -8.1 Q47.522 -9.077 47.693 -10.06 Q47.864 -11.044 47.864 -11.932 Q47.864 -13.499 47.419 -14.976 Q46.973 -16.454 46.008 -17.66 Q44.669 -19.481 43.824 -21.512 Q42.978 -23.543 42.978 -25.719 Q42.978 -27.052 43.34 -28.35 Q43.702 -29.649 44.412 -30.883 L44.912 -31.846 L47.644 -30.405 L47.153 -29.521 Q46.726 -28.675 46.391 -27.673 Q46.058 -26.672 46.058 -25.785 Q46.058 -24.204 46.664 -22.714 Q47.272 -21.225 48.225 -20.038 Q49.61 -18.409 50.315 -16.394 Q51.02 -14.38 51.02 -12.258 Q51.02 -10.892 50.721 -9.556 Q50.422 -8.22 49.912 -6.91 L49.388 -5.718 Z M35.634 -5.718  32.903 -7.159  33.387 -8.12 Q33.767 -9.041 33.939 -10.081 Q34.109 -11.12 34.109 -12.008 Q34.109 -13.575 33.656 -15.015 Q33.203 -16.454 32.236 -17.66 Q30.816 -19.405 30.058 -21.448 Q29.3 -23.492 29.3 -25.679 Q29.3 -27.023 29.701 -28.342 Q30.103 -29.662 30.734 -30.883 L31.158 -31.846 L33.89 -30.405 L33.389 -29.54 Q32.971 -28.599 32.675 -27.636 Q32.38 -26.672 32.38 -25.785 Q32.38 -24.204 32.986 -22.714 Q33.594 -21.225 34.545 -20.038 Q35.931 -18.409 36.636 -16.394 Q37.341 -14.38 37.341 -12.258 Q37.341 -10.892 37.043 -9.556 Q36.744 -8.22 36.233 -6.91 L35.634 -5.718 Z"/></g><g id="Ultralight-S" transform="matrix(1 0 0 1 517.792 696)"><path d="M67.953 -18.858 V-20.338 Q72.095 -20.042 75.103 -22.754 Q78.111 -25.466 78.111 -29.411 V-48.15 Q78.111 -51.671 75.532 -54.102 Q72.953 -56.533 69.333 -56.533 H33.73 L16.569 -38.386 V-21.028 H24.36 V-19.055 H14.597 V-39.175 L32.941 -58.505 H69.333 Q73.87 -58.505 76.977 -55.547 Q80.084 -52.588 80.084 -48.196 V-29.411 Q80.084 -24.776 76.484 -21.57 Q72.884 -18.365 67.953 -18.858 Z M62.331 -6.925  60.457 -7.615  60.852 -8.305 Q61.148 -9.292 61.345 -10.327 Q61.542 -11.363 61.542 -12.25 Q61.542 -13.922 61.049 -15.503 Q60.556 -17.083 59.563 -18.36 Q58.373 -20.117 57.591 -22.052 Q56.808 -23.987 56.808 -26.042 Q56.808 -27.184 57.102 -28.298 Q57.396 -29.411 57.992 -30.496 L58.287 -31.186 L60.063 -30.496 L59.777 -29.885 Q59.372 -29.017 59.027 -27.932 Q58.682 -26.847 58.682 -25.959 Q58.682 -24.288 59.323 -22.756 Q59.964 -21.225 60.957 -19.948 Q62.245 -18.389 62.879 -16.503 Q63.515 -14.617 63.515 -12.661 Q63.515 -11.42 63.27 -10.257 Q63.025 -9.094 62.627 -7.911 L62.331 -6.925 Z M49.115 -6.925  47.241 -7.615  47.636 -8.305 Q47.932 -9.327 48.08 -10.345 Q48.228 -11.363 48.228 -12.25 Q48.228 -13.909 47.783 -15.477 Q47.338 -17.046 46.349 -18.342 Q45.17 -20.14 44.381 -22.058 Q43.592 -23.976 43.592 -26.014 Q43.592 -27.143 43.886 -28.27 Q44.18 -29.398 44.776 -30.496 L45.072 -31.186 L46.847 -30.496 L46.561 -29.885 Q46.157 -29.017 45.811 -27.981 Q45.466 -26.945 45.466 -26.058 Q45.466 -24.386 46.107 -22.805 Q46.748 -21.225 47.724 -19.946 Q48.973 -18.386 49.587 -16.496 Q50.2 -14.608 50.2 -12.645 Q50.2 -11.461 49.981 -10.285 Q49.762 -9.107 49.411 -7.911 L49.115 -6.925 Z M35.702 -6.925  33.927 -7.615  34.183 -8.325 Q34.519 -9.292 34.667 -10.376 Q34.815 -11.461 34.815 -12.349 Q34.815 -14.008 34.373 -15.527 Q33.932 -17.046 32.941 -18.342 Q31.659 -20.042 30.968 -21.972 Q30.278 -23.901 30.278 -25.952 Q30.278 -27.091 30.623 -28.251 Q30.968 -29.411 31.461 -30.496 L31.659 -31.186 L33.434 -30.496 L33.138 -29.904 Q32.744 -28.918 32.448 -27.932 Q32.152 -26.945 32.152 -26.058 Q32.152 -24.386 32.793 -22.805 Q33.434 -21.225 34.409 -19.946 Q35.659 -18.386 36.272 -16.496 Q36.886 -14.608 36.886 -12.645 Q36.886 -11.461 36.667 -10.285 Q36.448 -9.107 36.097 -7.911 L35.702 -6.925 Z"/></g></g></svg>