<svg xmlns="http://www.w3.org/2000/svg" height="48" viewBox="0 -960 960 960" width="48"><path d="M244-447h96.5q24.73 0 38.86-15.38 14.14-15.38 14.14-38.12V-548q0-22.74-14.14-38.12-14.13-15.38-38.86-15.38H210.74q-6.24 0-10.49 4.25T196-587.6v205q0 10.07 7.02 17.08 7.03 7.02 17 7.02 9.98 0 16.98-7.02 7-7.01 7-16.88V-447Zm224.98-154.5q-9.98 0-16.98 7.02-7 7.01-7 17.04v194.88q0 10.03 7.02 17.04 7.03 7.02 17 7.02 9.98 0 16.98-7.02 7-7.01 7-17.04v-194.88q0-10.03-7.02-17.04-7.03-7.02-17-7.02ZM596-537l112 167.44q4 5.56 9.1 8.31 5.09 2.75 10.92 2.75h11.66q10.72 0 17.02-6.46 6.3-6.46 6.3-17.15v-198.61q0-8.13-6.25-14.45-6.25-6.33-15-6.33t-15.5 6.25q-6.75 6.25-6.75 14.75v150L603-593q-3-4.5-7.75-6.5t-10.01-2h-9.52q-9.72 0-16.47 6.25-6.75 6.25-6.75 14.75V-380q0 9 6.75 15.25t15.5 6.25q8.75 0 15-6.75T596-381v-156Zm-352 41.5V-553h101.5v57.5H244Zm-101.5 331q-22.97 0-40.23-17.27Q85-199.03 85-222v-516q0-22.97 17.27-40.23 17.26-17.27 40.23-17.27h675q22.97 0 40.23 17.27Q875-760.97 875-738v516q0 22.97-17.27 40.23-17.26 17.27-40.23 17.27h-675Z"/></svg>