<svg xmlns="http://www.w3.org/2000/svg" height="48" viewBox="0 -960 960 960" width="48"><path d="M225.35-200.73V-500.1q0-125.03 87.13-212.54 87.14-87.51 212.12-87.51t212.57 87.31q87.6 87.32 87.6 212.56 0 125.24-87.4 212.4-87.4 87.15-212.75 87.15H225.35Zm30.19-30.19h269.52q111.95 0 190.73-78.6 78.79-78.6 78.79-190.29T715.8-690.73q-78.78-79.23-190.73-79.23-111.95 0-190.74 78.78t-78.79 190.74v269.52ZM524.7-380.73q49.72 0 84.9-34.82 35.17-34.81 35.17-84.54 0-49.72-35.11-84.89-35.12-35.17-84.98-35.17-49.87 0-84.6 35.11t-34.73 84.98q0 49.87 34.81 84.6 34.82 34.73 84.54 34.73Zm.19-30.19q-38.01 0-63.68-25.66-25.67-25.65-25.67-63.4t25.65-63.87q25.66-26.11 63.41-26.11t63.86 25.84q26.12 25.83 26.12 63.84 0 38.01-25.84 63.68-25.84 25.68-63.85 25.68ZM136.12-200.73v-159.42h30.19v159.42h-30.19ZM524.62-500Z"/></svg>