<svg xmlns="http://www.w3.org/2000/svg" height="20" width="20"><path d="M16.75 18.125q-.25.25-.521.25t-.541-.25l-3.021-3.021v1.25q-.084.771-.636 1.292t-1.323.521h-2.27q-.834 0-1.407-.563-.573-.562-.573-1.416V8.896L2.104 4.542q-.208-.23-.208-.511t.229-.531q.25-.229.521-.229t.521.229L16.75 17.083q.208.229.219.511.01.281-.219.531Zm-8.833-7.771v5.834q0 .229.145.374.146.146.376.146h2.27q.209 0 .354-.146.146-.145.146-.374v-2.542Zm4.75.438-1.459-1.459v-.687l1.667-2.521v-.437H7.562L6.104 4.229h6.771v-.458q0-.229-.146-.375t-.354-.146h-6q-.229 0-.365.146-.135.146-.135.375v.208l-.917-.896q.209-.541.688-.916t1.125-.375h5.604q.833 0 1.396.562.562.563.562 1.417v2.812l-1.666 2.5ZM9.562 12Zm.021-4.292Z"/></svg>