<svg xmlns="http://www.w3.org/2000/svg" height="40" viewBox="0 -960 960 960" width="40"><path d="M366.51-406.28h67.59v-189.28h-67.59v189.28Zm-159.76-45.77q-48.65-25.14-78.37-70.45-29.71-45.31-29.71-99.98 0-73.04 48.76-125.95 48.77-52.9 120.51-52.9 13.31 0 25.7 1.27 12.39 1.27 25.23 4.32l7.26 1.59 3.82-6.46q24.31-38.36 63.96-59.54 39.65-21.18 86.09-21.18 46.44 0 86.22 21.18t64.21 59.54l3.83 6.46 6.87-1.59q12.3-3.34 24.26-4.46 11.96-1.13 24.92-1.13 71.27 0 121.15 52.89 49.87 52.89 49.87 126.75 0 54.43-29.62 100-29.62 45.58-78.46 69.55v209.52h-546.5v-209.43Zm319.53 45.77h67.59v-189.28h-67.59v189.28Zm-251.95 95.41h411.34v-183.36L728.33-515q30.13-14.2 48.5-43.11 18.38-28.92 18.38-63.2 0-47.69-35.95-79.36-35.94-31.66-83.59-31.66-7.8 0-15.16.64t-13.97 2.23l-42.18 12.66-22.41-37.07q-16.64-26.87-43.38-43.37-26.74-16.5-58.24-16.5-33.67 0-60.63 18.5t-43.26 46.7l-19.41 31.74-43.18-12.66q-6.37-1.79-13.34-2.33-6.96-.54-14.46-.54-48.82 0-84.84 32.25-36.03 32.24-36.03 79.29 0 34.38 18.49 62.92t49.38 43.54l41.28 20.1v183.36Zm-67.58 68.25h67.58v96.36h411.34v-96.36h67.58v163.95h-546.5v-163.95Zm273.63-68.25Z"/></svg>