<svg xmlns="http://www.w3.org/2000/svg" height="24" width="24"><path d="M8.95 19.25q-3.025 0-5.137-2.113Q1.7 15.025 1.7 12q0-3.025 2.113-5.138Q5.925 4.75 8.95 4.75q3.025 0 5.138 2.112Q16.2 8.975 16.2 12t-2.112 5.137Q11.975 19.25 8.95 19.25Zm7.15-1.5q0-.275.212-.55.213-.275.513-.4 1.5-.55 2.413-1.85.912-1.3.912-2.95 0-1.65-.912-2.95-.913-1.3-2.413-1.85-.3-.125-.513-.388-.212-.262-.212-.587 0-.55.425-.9t1.125-.1q2 .65 3.325 2.512Q22.3 9.6 22.3 12t-1.325 4.275q-1.325 1.875-3.325 2.5-.725.25-1.137-.112-.413-.363-.413-.913Z"/></svg>