<svg xmlns="http://www.w3.org/2000/svg" height="24" viewBox="0 -960 960 960" width="24"><path d="M95-96v-132.5q-20-9.5-32.96-28.71T47-299L10-701h39.38q35.51 0 61.38 23.48 25.87 23.48 28.74 59.02l24.06 258H271q50.94 0 85.97 35.03T392-239.5v23h-39.5V-96H261v-120.5h-74.5V-96H95Zm339.5 0v-346.5H219q0-43 29.53-72t71.47-29h320q41.94 0 71.47 29.53T741-442.5H525.5V-96h-91Zm-176-529v-60.5q0-70.5 45.75-121.25T417.5-865.5h2V-950h120v84.5h1.5q67.5 8 113.5 58.75t46 121.25v60.5h-442Zm349 529v-120.5h-39v-23q0-50.94 35.03-85.97t85.97-35.03h106.56l23.94-258q2.88-35.54 28.87-59.02Q874.86-701 910.49-701H950l-37.53 401.92q-1.97 23.58-14.72 42.83T865-227.5V-96h-91v-120.5h-75V-96h-91.5Z"/></svg>