<svg xmlns="http://www.w3.org/2000/svg" height="40" viewBox="0 -960 960 960" width="40"><path d="M500-565.5ZM223.8-133.32v-642.41h239.23q-2.27 11.49-3.48 23.79-1.2 12.3-1.19 24.09H271.68v243.31h300.84l17.39 82.17h138.41v-81.46q11.96-.8 24.13-2.95 12.18-2.16 23.75-5.98v138.27H549.22l-17.43-82.09H271.68v303.26H223.8Zm455.92-516.77 136.21-137.12-22.97-22.97-113.44 114.17-59.57-59.72-22.98 23.09 82.75 82.55Zm26.59-255.83q72.13 0 122.94 50.77 50.8 50.77 50.8 123.03 0 72.25-50.77 123.06-50.78 50.8-123.03 50.8-72.26 0-123.06-50.76t-50.8-123.17q0-72.12 50.76-122.93 50.76-50.8 123.16-50.8Z"/></svg>