<svg xmlns="http://www.w3.org/2000/svg" height="40" viewBox="0 -960 960 960" width="40"><path d="M150.15-26.64v-67.59h659.7v67.59h-659.7Zm0-839.79v-67.59h659.7v67.59h-659.7Zm329.68 458.2q50.05 0 84.74-34.26 34.69-34.27 34.69-84.42 0-50.04-34.54-84.73-34.54-34.69-84.72-34.69-50.21 0-84.4 34.57-34.19 34.57-34.19 84.79 0 50.25 34.19 84.5 34.19 34.24 84.23 34.24ZM154.77-160q-32.51 0-56.2-23.69-23.7-23.7-23.7-56.21v-479.87q0-35.07 23.7-57.65Q122.26-800 154.77-800H804.9q33.12 0 56.67 23.56 23.56 23.55 23.56 56.67v479.87q0 32.51-23.56 56.21Q838.02-160 804.9-160H154.77Zm72.51-67.59q48.31-58.36 114.98-89.83 66.66-31.48 137.53-31.48 70.88 0 138.29 31.48 67.4 31.47 114.64 89.83h72.51q4.62 0 8.46-3.85 3.85-3.84 3.85-8.46v-480.2q0-4.62-3.85-8.46-3.84-3.85-8.46-3.85H154.77q-4.62 0-8.46 3.85-3.85 3.84-3.85 8.46v480.2q0 4.62 3.85 8.46 3.84 3.85 8.46 3.85h72.51Zm102.87 0h300.77q-30.07-24.87-68.18-39.29-38.1-14.43-82.82-14.43-44.72 0-82.42 14.43-37.69 14.42-67.35 39.29Zm150.17-248.23q-21.55 0-36.23-14.65-14.68-14.66-14.68-36.25t14.36-36.8q14.37-15.22 35.91-15.22 21.55 0 36.56 15.14 15.02 15.14 15.02 36.43 0 21.58-14.85 36.47-14.85 14.88-36.09 14.88ZM480-480Z"/></svg>