<svg xmlns="http://www.w3.org/2000/svg" height="24" viewBox="0 -960 960 960" width="24"><path d="m728.69-419.85-75.92 75.93q-12.31 12.3-29.89 12.5-17.57.19-30.27-12.5-12.69-12.7-12.69-30.08t12.69-30.08L668.54-480l-75.93-75.92q-12.3-12.31-12.49-29.89-.2-17.57 12.49-30.27 12.7-12.69 30.08-12.69 17.39 0 30.08 12.69l75.92 75.93 75.92-75.93q12.31-12.3 29.89-12.5 17.58-.19 30.27 12.5 12.69 12.7 12.69 30.08t-12.69 30.08L788.84-480l75.93 75.92q12.31 12.31 12.5 29.89.19 17.57-12.5 30.27-12.69 12.69-30.08 12.69-17.38 0-30.08-12.69l-75.92-75.93ZM267.62-360H154.31q-20.46 0-34.81-14.35-14.34-14.34-14.34-34.81v-141.68q0-20.47 14.34-34.81Q133.85-600 154.31-600h113.31l124.69-126.69q20.38-21.38 47.61-9.58 27.23 11.81 27.23 40.27v432q0 28.46-27.23 40.27-27.23 11.8-47.61-9.58L267.62-360Zm113.53-234-78 80h-112v68h112l78 80v-228Zm-95 114Z"/></svg>