<svg xmlns="http://www.w3.org/2000/svg" height="40" viewBox="0 -960 960 960" width="40"><path d="m662.62-217.52 107.25-107.92q10.91-10.78 25.95-10.78t25.98 10.78q10.78 10.94 10.66 26.38-.12 15.43-10.9 26.21L688.71-140.16q-11.37 11.52-26.69 11.52-15.32 0-26.67-11.52l-61.48-61.98q-10.94-10.91-10.61-25.95.33-15.04 11.28-25.9 10.94-10.86 25.98-10.75 15.04.12 25.94 10.91l36.16 36.31ZM150.14-113.3q-15.5 0-26.17-10.71-10.67-10.71-10.67-26.27 0-15.55 10.67-26.21 10.67-10.65 26.17-10.65h293.02q15.5 0 26.17 10.73Q480-165.67 480-150.06q0 15.6-10.67 26.18t-26.17 10.58H150.14Zm0-164.93q-15.5 0-26.17-10.71-10.67-10.71-10.67-26.26 0-15.56 10.67-26.22 10.67-10.65 26.17-10.65h293.02q15.5 0 26.17 10.74Q480-330.59 480-314.99q0 15.61-10.67 26.18-10.67 10.58-26.17 10.58H150.14Zm0-164.93q-15.5 0-26.17-10.71-10.67-10.7-10.67-26.26 0-15.56 10.67-26.21Q134.64-517 150.14-517h659.72q15.56 0 26.28 10.74t10.72 26.34q0 15.61-10.72 26.18-10.72 10.58-26.28 10.58H150.14Zm0-164.93q-15.5 0-26.17-10.7-10.67-10.71-10.67-26.27 0-15.56 10.67-26.21 10.67-10.66 26.17-10.66h659.72q15.56 0 26.28 10.74t10.72 26.35q0 15.6-10.72 26.18-10.72 10.57-26.28 10.57H150.14Zm0-164.92q-15.5 0-26.17-10.71-10.67-10.71-10.67-26.27 0-15.55 10.67-26.21t26.17-10.66h659.72q15.56 0 26.28 10.74t10.72 26.35q0 15.6-10.72 26.18t-26.28 10.58H150.14Z"/></svg>