<svg xmlns="http://www.w3.org/2000/svg" height="40" viewBox="0 -960 960 960" width="40"><path d="M506.67-41.83q-21.57 0-36.54-14.97-14.96-14.96-14.96-36.53v-145.33L507-378q7.89-20.79 25.91-33.98 18.01-13.19 40.92-13.19h41.34v96.5l-51.84 51.34 28.5 28.16L655.17-312v-193.17h63.33v193l61.4 62.84 29.27-28-50.67-51.81v-96.03h40.17q22.49 0 40.58 13.17 18.08 13.17 26.25 34l53 139.34v145.33q0 21.57-15.4 36.53-15.39 14.97-36.43 14.97h-80q-21.57 0-36.54-14.97-14.96-14.96-14.96-36.53v-112.5L686.67-254l-48.17 48.17v112.5q0 21.57-15.4 36.53-15.39 14.97-36.43 14.97h-80ZM280-390.83l-52.4-103.14q-4.27-8.03-11.68-12.95-7.41-4.91-15.92-4.91H86.67v-218.84q0-25.62 18.85-44.48Q124.37-794 150-794h660q25.63 0 44.48 18.85 18.85 18.86 18.85 44.48v248.84h-98.16v-80H598.5v80l-43.67 1.66-86.39-173.78q-4.27-8.05-11.92-11.97-7.65-3.91-16.5-3.91t-16.77 3.91q-7.92 3.92-11.92 12.09L280-390.83ZM150-166q-25.63 0-44.48-18.85-18.85-18.86-18.85-44.48V-448.5h93.5l70.5 143.17q5 8.33 12.41 12.58 7.42 4.25 16.9 4.25 8.76 0 16.06-4.25 7.29-4.25 11.63-12.58L440-568.5l54.67 114.33q-14 11.17-24.42 25.25-10.42 14.09-16.92 31.25l-54.83 148.5V-166H150Z"/></svg>