<svg xmlns="http://www.w3.org/2000/svg" height="40" viewBox="0 -960 960 960" width="40"><path d="M113.333-160q-14.166 0-23.75-9.617Q80-179.234 80-193.45q0-14.216 9.583-23.716 9.584-9.5 23.75-9.5h733.334q14.166 0 23.75 9.617Q880-207.432 880-193.216q0 14.216-9.583 23.716-9.584 9.5-23.75 9.5H113.333Zm85.883-160Q185-320 175.5-329.583q-9.5-9.584-9.5-23.75V-604q0-14.167 9.617-23.75t23.833-9.583q14.217 0 23.717 9.583 9.499 9.583 9.499 23.75v250.667q0 14.166-9.616 23.75Q213.433-320 199.216-320Zm159.334 0q-14.217 0-23.717-9.583-9.5-9.584-9.5-23.75v-413.334q0-14.166 9.617-23.75Q344.567-800 358.784-800q14.216 0 23.716 9.583 9.5 9.584 9.5 23.75v413.334q0 14.166-9.617 23.75Q372.766-320 358.55-320Zm159.333 0q-14.216 0-23.716-9.583-9.5-9.584-9.5-23.75v-413.334q0-14.166 9.617-23.75Q503.901-800 518.117-800q14.216 0 23.716 9.583 9.5 9.584 9.5 23.75v413.334q0 14.166-9.617 23.75Q532.099-320 517.883-320Zm271.784-16.667q-12 6.667-25.167 3.5-13.167-3.166-19.833-15.166l-129.334-222q-7.333-12-3.482-25.806 3.852-13.806 15.833-20.5 11.982-6.694 25.816-3.194 13.833 3.5 20.5 15.5l128 222.667q6.666 12 3.166 25.166-3.5 13.167-15.499 19.833Z"/></svg>