<svg xmlns="http://www.w3.org/2000/svg" height="20" viewBox="0 -960 960 960" width="20"><path d="M116.02-186q-18.89 0-32.69-13.75-13.81-13.74-13.81-32.54 0-18.8 13.81-32.75Q97.13-279 116.02-279h728.96q18.89 0 32.69 13.75 13.81 13.74 13.81 32.54 0 18.8-13.81 32.75Q863.87-186 844.98-186H116.02Zm108.21-154q-18.8 0-32.75-13.8-13.96-13.79-13.96-32.66v-211.76q0-18.87 13.75-32.82Q205.01-645 223.81-645q18.8 0 32.75 13.79 13.96 13.8 13.96 32.67v211.76q0 18.87-13.75 32.82Q243.03-340 224.23-340Zm156.96 0q-18.8 0-32.76-13.8-13.95-13.8-13.95-32.67v-353.74q0-18.88 13.74-32.83Q361.97-787 380.77-787q18.79 0 32.75 13.8t13.96 32.67v353.74q0 18.88-13.75 32.83Q399.99-340 381.19-340Zm158.52 0q-18.8 0-32.75-13.8Q493-367.6 493-386.47v-353.74q0-18.88 13.75-32.83Q520.49-787 539.29-787q18.8 0 32.75 13.8Q586-759.4 586-740.53v353.74q0 18.88-13.75 32.83Q558.51-340 539.71-340Zm247.01-18.72q-18.59 7.33-35.93.92-17.33-6.42-25.16-25L649.7-573.87q-7.83-18.59-1.17-35.92 6.67-17.34 25.25-25.17 18.59-7.82 36.43-1.16t25.66 25.25l75.44 191.56q7.82 18.59.91 35.68t-25.5 24.91Z"/></svg>