<svg xmlns="http://www.w3.org/2000/svg" height="24" viewBox="0 -960 960 960" width="24"><path d="M495.38-410.15v-152.16h99.54l-30.77-30.77h-68.77V-792h162.08l87.23 159.08h-57.31l-40.92-76.77H558v30.77h68.85L667-598.15h97.08l65 114.07q-25.77-16.61-55.27-24.65-29.5-8.04-63.5-8.04-65.31 0-121.43 28.73-56.11 28.73-93.5 77.89ZM290.62-190.38l-76.31-138.7h58.31l40.92 78.77H402v-30.77h-68.85l-40.92-78.77h-97.31L129.38-481l67.54-119.15h96.31l39.92-78.77H402v-30.77h-88.46l-39.92 78.77h-57.31L302.54-792h162.08v198.92h-68.77l-30.77 30.77h99.54v125.23h-89.77l-39.39-78h-83.31l-30.77 30.77h93.47l39.38 78h110.39V-354q-17.85 26-27.77 56.85-9.93 30.84-9.93 63.77 0 16.07 2.23 30.38 2.23 14.31 6.16 28.38v6.62H329.69q-11.69 0-22.27-5.96-10.57-5.96-16.8-16.42Zm419.69 61.84 107.54-107.54L794-259.92l-66.31 66.3v-152.61h-34.77v152.61l-66.3-66.3-23.85 23.84 107.54 107.54Zm0 83.16q-77.85 0-132.93-55.08-55.07-55.08-55.07-132.92 0-77.85 55.07-132.93 55.08-55.07 132.93-55.07 77.84 0 132.92 55.07 55.08 55.08 55.08 132.93 0 77.84-55.08 132.92-55.08 55.08-132.92 55.08Z"/></svg>