<svg xmlns="http://www.w3.org/2000/svg" height="40" viewBox="0 -960 960 960" width="40"><path d="M797.13-104.17q-122.45 0-246.24-56.73-123.8-56.72-228.25-161.08-104.45-104.35-161.37-228.41-56.91-124.05-56.91-246.18 0-25.34 16.99-42.49 16.98-17.14 42.08-17.14h147.15q24.48 0 41.21 13.88t21.47 38.2l26.43 120.45q3.75 22.25-.81 38.86-4.55 16.61-17.97 28.71l-101.49 96.09q21.74 36.58 47.94 69.31 26.19 32.73 57.97 64.47 33.22 33.22 66.84 59.85 33.63 26.63 69.89 46.19l97.87-98.55q14.37-14.85 32.77-20.58 18.4-5.72 38.71-.61l112.71 24.97q24.86 6.82 38.47 23.41t13.61 40.54v147.58q0 25.39-17.18 42.32-17.19 16.94-41.89 16.94ZM236.01-599.54l75.44-72.33-20.25-95.81h-97.42q2.25 38.09 11.85 79.18 9.61 41.1 30.38 88.96Zm367.22 363.79q37.32 17.01 80.09 27.78t84.36 13.85v-98.15l-90.58-19.27-73.87 75.79ZM236.01-599.54Zm367.22 363.79Zm107.9-412.08L658-595.7q-13.43 12.58-30.98 12.8-17.54.22-30.76-13.36-13.43-13.06-13.1-30.96.33-17.91 13.1-30.97l52.13-52.94-52.13-52.13q-13.43-12.68-13.43-30.81t13.2-31.22q13.25-13.1 30.98-12.96 17.74.15 31.32 13.06l52.8 52.32 52.13-51.9q12.96-13.2 30.95-13.48 17.99-.29 31.08 12.93 13.1 13.22 13.1 31.13 0 17.91-13.2 30.93l-52.13 52.13L825.33-658q11.97 13.58 12.52 31.06.54 17.48-12.66 30.91-13.2 13.2-30.97 13.28-17.76.07-30.96-13.51l-52.13-51.57Z"/></svg>