<svg xmlns="http://www.w3.org/2000/svg" height="24" viewBox="0 -960 960 960" width="24"><path d="M800-86q-131.1 0-259.05-57Q413-200 307-305.5 201-411 144-539.28T87-799q0-32.14 21.14-53.57Q129.29-874 161-874h161q37 0 60.5 18t30.5 52l25 119q7 31 0 53t-27 39l-103 90q16 26 37.5 52.5T396-396q26 26 50 45.5t48 33.5l101-98q20-19 44.5-26t53.5 0l111 25q35 10 52.5 31t17.5 55v169q0 32.14-21.5 53.57T800-86ZM247-616l65-57-15-75h-82q3 34 10.46 66.94Q232.91-648.12 247-616Zm362 363q33 14 68 23t71 14v-83l-74-17-65 63ZM247-616Zm362 363Zm93-359-40 39q-19 18-44 18t-44-19q-19-19-19-44.5t19-44.5l39-39-39-39q-19-17.5-19-43.75T574-830q18.67-19 44.33-19Q644-849 663-830l39 40 39-39q18-19 44-19.5t45 18.5q19 19 19 44.67 0 25.66-19 44.33l-39 39 39 40q18 19 18.5 44T830-574q-19 19-44.5 19T741-574l-39-38Z"/></svg>