<svg xmlns="http://www.w3.org/2000/svg" height="24" viewBox="0 -960 960 960" width="24"><path d="M722.63-41.2q-83 0-141.5-58.5t-58.5-141.5q0-83 58.5-141.5t141.5-58.5q83 0 141.5 58.5t58.5 141.5q0 83-58.5 141.5t-141.5 58.5Zm-305.26-69.95v-576.26h139.76v-127.18H473.3v-80h174.83v383.96q-90.91 27.09-148.21 100.92-57.29 73.84-57.29 168.51 0 34.87 8.32 67.24 8.31 32.37 25.42 62.81h-59Zm-185.5 0v-576.26h125.5v576.26h-125.5Zm490.79-3.35q11.93 0 20.02-8.13 8.1-8.13 8.1-20.05 0-11.93-8.13-20.03-8.13-8.09-20.05-8.09-11.93 0-20.02 8.13-8.1 8.13-8.1 20.05t8.13 20.02q8.13 8.1 20.05 8.1ZM702.72-196h39.58v-10.48q0-10.52 6-19.26 6-8.74 14-16.26 14.24-12.48 22.72-24.2 8.48-11.71 8.48-32.4 0-29.99-19.8-48.44-19.8-18.46-51.06-18.46-23.97 0-43.54 14.7-19.58 14.69-27.82 38.65l35.59 15.67q3.03-12.57 12.64-22 9.6-9.43 23.23-9.43 14.61 0 22.89 7.32 8.28 7.32 8.28 21.96 0 10.52-6 18.38-6 7.86-14 15.38-5.76 5.52-12.98 12-7.21 6.48-12.21 15.03-3 6.41-4.5 12.66t-1.5 14.59V-196Z"/></svg>