<svg xmlns="http://www.w3.org/2000/svg" height="24" viewBox="0 -960 960 960" width="24"><path d="M480.3-46q-90 0-169.15-34T173-173q-59-59-93-138.08-34-79.09-34-169Q46-570 80-649q34-79 93-138t138.08-93q79.09-34 169-34Q570-914 649-880q79 34 138 93t93 138.15q34 79.15 34 169.15V-46H480.3Zm-.43-126Q608-172 698-262t90-218q0-128-90-218t-218-90q-128 0-218 90t-90 218q0 11 1.5 23.5T177-433l103-103 131 110 100-100h-64v-106h245v245H586v-64L415-280 286-392l-69 69q42 69 110.37 110 68.36 41 152.5 41ZM783-122q25 0 40-17t15-38q0-25-17-40t-38-15q-21 0-38 15t-17 40q0 21 17 38t38 17ZM430-480Z"/></svg>