<svg xmlns="http://www.w3.org/2000/svg" height="48" width="48"><path d="M23.95 42.25q-3.8 0-7.1-1.425t-5.775-3.875Q8.6 34.5 7.175 31.2 5.75 27.9 5.75 24.15q0-3.8 1.425-7.125t3.9-5.875q2.475-2.55 5.8-4Q20.2 5.7 24 5.7q3.85 0 7.175 1.45Q34.5 8.6 36.95 11.125q2.45 2.525 3.9 5.85Q42.3 20.3 42.3 24.15v18.1Zm0-1.9q6.85 0 11.675-4.775Q40.45 30.8 40.45 24q0-6.85-4.775-11.675Q30.9 7.5 24 7.5q-6.85 0-11.65 4.825Q7.55 17.15 7.55 24q0 1.65.275 3.15T8.7 30.1l7.1-7.1 6.65 5.55 9.2-9.2H26.4V17.6h8.25v8.25H32.9v-5.2L22.55 31 16 25.35 9.55 31.8q2 3.85 5.85 6.2 3.85 2.35 8.55 2.35Zm15.35.5q.65 0 1.125-.475t.475-1.125q0-.6-.475-1.075T39.3 37.7q-.65 0-1.1.475-.45.475-.45 1.075 0 .65.45 1.125t1.1.475ZM23.85 23.9Z"/></svg>