<svg xmlns="http://www.w3.org/2000/svg" height="48" width="48"><path d="M18.75 26.05H19.1Q19.25 26.05 19.75 25.8L26.9 18.65L25.35 17.1L18.2 24.2Q18.1 24.3 17.95 24.9V25.3Q17.95 25.65 18.15 25.85Q18.35 26.05 18.75 26.05ZM26.9 15.5 28.5 17.1 29.65 15.95Q29.8 15.8 29.8 15.45Q29.8 15.1 29.65 14.9L29.1 14.35Q28.9 14.2 28.55 14.2Q28.2 14.2 28.05 14.35ZM24 42.9Q23.7 42.9 23.35 42.825Q23 42.75 22.75 42.55Q15.65 36.05 12.175 30.45Q8.7 24.85 8.7 20.4Q8.7 13.2 13.325 8.925Q17.95 4.65 24 4.65Q30.05 4.65 34.7 8.925Q39.35 13.2 39.35 20.4Q39.35 24.85 35.85 30.45Q32.35 36.05 25.25 42.55Q25 42.75 24.675 42.825Q24.35 42.9 24 42.9Z"/></svg>