<svg xmlns="http://www.w3.org/2000/svg" height="48" viewBox="0 -960 960 960" width="48"><path d="M700-618.92h65.31v-65.31H700v65.31ZM726.31-84q-61.42 0-104.9-43.25-43.49-43.26-43.49-104.31 0-62.2 43.32-105.86 43.33-43.66 105.55-43.66 61.21 0 104.33 43.51 43.11 43.5 43.11 105.99 0 61.35-43.25 104.46Q787.72-84 726.31-84Zm-15.69-36.38h30.61V-216h95.62v-30.62h-95.62v-95.61h-30.61v95.61H615V-216h95.62v95.62ZM897-402.92q-30.92-36.62-76.12-58.16t-94.8-21.54q-25.63 0-51.2 5.11-25.57 5.1-50.11 14.2v-79.15L413.08-690.92V-817H897v414.08ZM64-144v-357.38l250.62-178.85L565-501.38v79.84q-43.62 34.54-66.12 84.39-22.5 49.86-22.5 105.23 0 25.95 5.23 45.59 5.22 19.64 15.7 42.33H390.46v-215.08H237.77V-144H64Z"/></svg>