<svg xmlns="http://www.w3.org/2000/svg" height="48" viewBox="0 -960 960 960" width="48"><path d="M145.09-105.87q-32.51 0-55.87-23.35-23.35-23.36-23.35-55.87v-589.82q0-32.74 23.35-56.26 23.36-23.53 55.87-23.53h669.82q32.74 0 56.26 23.53 23.53 23.52 23.53 56.26v589.82q0 32.51-23.53 55.87-23.52 23.35-56.26 23.35H145.09Zm0-79.22h669.82v-589.82H145.09v589.82Zm106.74-103.74h456.91v-60H251.83v60Zm0-163.17h155v-219.74h-155V-452ZM508-452h200.74v-60H508v60Zm0-159.74h200.74v-60H508v60ZM145.09-185.09v-589.82 589.82Z"/></svg>