<svg xmlns="http://www.w3.org/2000/svg" height="20" viewBox="0 96 960 960" width="20"><path d="M481.211 811.307q-16.942 0-29.23-12.078-12.288-12.077-12.288-29.018 0-16.942 12.078-29.23 12.077-12.288 29.018-12.288 16.942 0 29.23 12.078 12.288 12.077 12.288 29.018 0 16.942-12.078 29.23-12.077 12.288-29.018 12.288Zm-39.21-127.614V532.385l77.998 78.999v72.309h-77.998Zm465.764 214.842-229.38-230.766L480.081 338 432 420l-58.384-58.384L480 186.003l427.765 712.532ZM169 856h486.079L351.385 552.306 169 856Zm653.154 167.07-89.076-89.071H30.618l264.384-439.076L28.925 228.846l54.769-54.768 793.228 794.228-54.768 54.764ZM503.232 703.153Zm52.153-159.768Z"/></svg>