<svg xmlns="http://www.w3.org/2000/svg" height="48" viewBox="0 -960 960 960" width="48"><path d="M480.36-64q-85.77 0-162.22-32.52-76.46-32.52-132.78-88.84-56.32-56.32-88.84-132.66T64-480q0-86.07 32.68-161.75 32.69-75.68 89.79-132.28 57.1-56.6 132.28-89.79Q393.93-897 481-897q28.49 0 55.24 4.2Q563-888.6 589-881q15 4 21.5 18.5T612-833q-5 13-7 26.34-2 13.33-2 27.15 0 41.51 17.44 77.1Q637.88-666.82 668-643L422-397l-95-95q-11-10-27.09-10T273-491q-11 11.33-11 26.67Q262-449 273-438l123 124q10.82 11 25.41 11T447-314l294-293q8.69 2.5 18.66 3.25 9.98.75 20.83.75 12.51 0 26.01-2 13.5-2 26.5-7 15-5 29.5 1.5T881-589q8 26 12 53t4 56q0 85.64-33.16 161.98-33.15 76.34-89.7 132.66-56.56 56.32-132.17 88.84Q566.36-64 480.36-64Zm299.52-599q-49.3 0-83.09-33.91Q663-730.82 663-780.12q0-48.3 33.91-82.09Q730.82-896 780.12-896q48.3 0 82.09 33.91Q896-828.18 896-779.88q0 49.3-33.91 83.09Q828.18-663 779.88-663Z"/></svg>