<svg xmlns="http://www.w3.org/2000/svg" height="20" viewBox="0 -960 960 960" width="20"><path d="M479-896q41 50.5 80.25 105.5T634-678l237.5-179v377q0 75.5-31.75 148t-86.5 129.25Q698.5-146 628-112.25T480-78.5q-76.5 0-147.5-33.75t-125.75-90.5Q152-259.5 120.25-332T88.5-480v-377L326-680q35.5-58.5 74.25-112.5T479-896ZM191.5-651v171q0 19.5 4.5 36.75T209-409q-1-6-2.75-12t-1.75-12q10-36.5 31.25-79t41.75-82.5l-86-56.5ZM480-733q-55.5 67-119 175t-63.5 194q0 76 53.25 129.25T480-181.5q76 0 129.25-53.25T662.5-364q0-87-64-194.75T480-733Zm288.5 83-86 58q20.5 39 41.75 81.5T755.5-433q0 6-1.75 12T751-409q8.5-17 13-34.25t4.5-36.75v-170Z"/></svg>