<svg xmlns="http://www.w3.org/2000/svg" height="40" width="40"><path d="m23.417 26.625 3.708-3.708q.167-.167.437-.146.271.021.48.187.166.167.166.459 0 .291-.166.458l-3.959 3.958q-.291.292-.645.292-.355 0-.646-.292l-2.084-2.083q-.166-.167-.187-.438-.021-.27.187-.479.167-.125.459-.125.291 0 .5.125ZM14.542 15.5l1.916 1.917q.167.166.459.145.291-.02.5-.187.125-.167.125-.437 0-.271-.125-.48L15.5 14.625l1.917-1.917q.166-.166.145-.458-.02-.292-.145-.5-.209-.125-.479-.125-.271 0-.438.125l-1.875 1.917-1.875-1.917q-.208-.167-.5-.146-.292.021-.458.146-.167.208-.167.479t.167.438l1.875 1.875-1.917 1.875q-.167.208-.146.5.021.291.188.458.166.167.437.167t.479-.167ZM20 34.875q-3.083 0-5.813-1.146-2.729-1.146-4.729-3.167-2-2.02-3.166-4.75Q5.125 23.083 5.125 20t1.146-5.812q1.146-2.73 3.167-4.75 2.02-2.021 4.749-3.167Q16.917 5.125 20 5.125q3.083 0 5.812 1.146 2.73 1.146 4.75 3.167 2.021 2.02 3.167 4.729 1.146 2.708 1.146 5.833 0 3.083-1.146 5.812-1.146 2.73-3.167 4.73-2.02 2-4.729 3.166-2.708 1.167-5.833 1.167Zm0-1.333q5.667 0 9.604-3.938 3.938-3.937 3.938-9.604 0-2.833-1.063-5.292-1.062-2.458-2.896-4.291L10.417 29.583q1.875 1.834 4.312 2.896 2.438 1.063 5.271 1.063Z"/></svg>