<svg xmlns="http://www.w3.org/2000/svg" height="40" width="40"><path d="m23 33-2.708-2.75q1.916-1.958 3.062-4.583T24.5 20q0-3.042-1.146-5.667t-3.062-4.625L23 7q2.542 2.542 3.979 5.854 1.438 3.313 1.438 7.146 0 3.833-1.438 7.146Q25.542 30.458 23 33Zm-3.625-3.667-2.75-2.708q1.292-1.292 2.021-2.979.729-1.688.729-3.646t-.729-3.646q-.729-1.687-2.021-2.979l2.75-2.75q1.792 1.833 2.833 4.229Q23.25 17.25 23.25 20t-1.042 5.146q-1.041 2.396-2.833 4.187ZM15.75 25.75 13 23q.583-.583.917-1.354.333-.771.333-1.646 0-.875-.333-1.646Q13.583 17.583 13 17l2.75-2.75q1.083 1.125 1.729 2.583.646 1.459.646 3.167 0 1.708-.646 3.167-.646 1.458-1.729 2.583Zm-9.625 8.125V6.083H10V17q1.25 0 2.125.875T13 20q0 1.25-.875 2.104-.875.854-2.125.854v10.917Z"/></svg>