<svg xmlns="http://www.w3.org/2000/svg" height="48" width="48"><path d="M16 9.5q-1.65 0-2.8-1.175T12.05 5.5q0-1.6 1.15-2.775Q14.35 1.55 16 1.55t2.8 1.175Q19.95 3.9 19.95 5.5q0 1.65-1.15 2.825Q17.65 9.5 16 9.5Zm17.95-.1L31.6 7.05l5.25-5.2h4.65ZM3.7 46.65V43H6q1.5 0 3.05-.575Q10.6 41.85 12 40.45q1.35 1.35 3 1.925t3.1.625q1.4 0 2.925-.575T24 40.45q1.4 1.4 2.95 1.975Q28.5 43 30 43q1.55 0 3.025-.55 1.475-.55 2.975-2 1.5 1.45 2.975 2T42 43h2.3v3.65H42q-1.45 0-2.975-.4Q37.5 45.85 36 44.7q-1.5 1.15-3.025 1.55-1.525.4-2.975.4-1.45 0-2.975-.4Q25.5 45.85 24 44.7q-1.4 1.1-2.925 1.525-1.525.425-2.925.425-1.5 0-3.125-.4T12 44.7q-1.5 1.15-3.025 1.55-1.525.4-2.975.4Zm14.3-8.5q-1.4 0-2.725-.575Q13.95 37 13.1 36.2q.75-.7 1.525-1.275.775-.575 1.625-1.175l-4.05-7.8V16q0-1.6 1.125-2.7T16 12.2h6q1.95 0 3.775-.75t3.325-2.1l2.55 2.55q-2 1.85-4.45 2.875T22 15.8h-3v7.4h5.75l3.4 3.75q3-1.25 5.625-2t4.525-.75q1.2 0 2.35.45 1.15.45 1.15 1.9 0 1.95-2.875 5.05-2.875 3.1-7.525 6.2-.35.2-.7.275-.35.075-.7.075-1.65 0-3.2-.825Q25.25 36.5 24 35.1q-1.25 1.4-2.8 2.225-1.55.825-3.2.825Zm1.55-6.7q1.1-.6 2.65-1.475 1.55-.875 2.45-1.375l-1.6-1.8-5.3.25Z"/></svg>