<svg xmlns="http://www.w3.org/2000/svg" height="20" viewBox="0 -960 960 960" width="20"><path d="M758.78-230.77H505.31q-12.3 0-19.88-7.74-7.58-7.74-7.58-19.14v-38.5q0-5.31 8.07-17.08l170.62-174q30.77-29.77 41.92-50.21 11.16-20.45 11.16-41.33 0-28.15-19.89-50.08-19.88-21.92-58.37-21.92-23.74 0-40.55 8.27t-26.7 22.38q-9.83 11.61-23.04 17.82-13.22 6.22-28.26.82-15.5-7.14-23.89-21.29-8.38-14.15.7-29.69 19.61-33.69 55.34-55.23 35.73-21.54 87.02-21.54 74.48 0 116.52 40.35 42.04 40.34 42.04 100.11 0 42.66-20.04 86.41-20.04 43.74-57.09 77.83L585.08-308l1.23 2.23h172.84q15.2 0 26.1 10.9 10.9 10.91 10.9 26.11 0 14.76-11 26.37-11.01 11.62-26.37 11.62ZM345.85-418.31h-172q-16.05 0-27.53-11.42-11.47-11.41-11.47-27.38 0-15.97 11.47-27.58 11.48-11.62 27.53-11.62h172q16.05 0 27.52 11.42 11.48 11.42 11.48 27.39 0 15.96-11.48 27.58-11.47 11.61-27.52 11.61Z"/></svg>