<svg xmlns="http://www.w3.org/2000/svg" height="48" viewBox="0 -960 960 960" width="48"><path d="M571.609-706.218q-15.788 0-26.003-10.654-10.215-10.653-10.215-26.195t10.215-26.129q10.215-10.588 26.003-10.588h288q15.633 0 26.208 10.657t10.575 26.411q0 15.542-10.575 26.02t-26.208 10.478h-288Zm0 166.218q-15.788 0-26.003-10.654t-10.215-26.304q0-15.651 10.215-25.847 10.215-10.196 26.003-10.196h288q15.633 0 26.208 10.266 10.575 10.265 10.575 26.127 0 15.651-10.575 26.13Q875.242-540 859.609-540h-288Zm0 166.218q-15.392 0-25.805-10.429t-10.413-25.845q0-15.417 10.413-25.789 10.413-10.373 25.805-10.373h288q15.633 0 26.208 10.429t10.575 25.845q0 15.417-10.575 25.789-10.575 10.373-26.208 10.373h-288ZM316.442-403q-56.486 0-93.377-37.34-36.892-37.341-36.892-93.827t37.166-93.66q37.166-37.174 93.403-37.174 56.472 0 93.67 37.282 37.197 37.282 37.197 93.685 0 56.639-37.34 93.836Q372.928-403 316.442-403ZM64.173-174.194v-38.805q0-22.087 10.636-42.069 10.637-19.983 28.582-28.671 46.13-33.131 101.238-49.196Q259.738-349 316.521-349q56.783 0 111.479 17.565t102.391 47.696q16.946 11.688 28.082 30.103t11.136 40.637v38.805q0 17.293-11.451 28.744T530-133.999H103.782q-16.706 0-28.158-11.451-11.45-11.451-11.45-28.744Zm67.436-43.805v11h370v-11q-39-26-90-42t-95-16q-44 0-95.5 16t-89.5 42Zm185-258.002q26 0 42-16.282 16-16.283 16-41.718 0-26-16-42t-42-16q-26 0-42 16t-16 42q0 25.435 16 41.718 16 16.282 42 16.282Zm0-58Zm0 327.002Z"/></svg>