<svg xmlns="http://www.w3.org/2000/svg" height="40" viewBox="0 -960 960 960" width="40"><path d="M317.769-154.435q-13.38 0-22.908-9.528-9.528-9.529-9.528-22.908V-362.44q0-75.81 25.032-149.557 25.032-73.746 83.417-145.721l-30 3.077q-32.859 3.628-57.193-16.109-24.333-19.737-24.333-49.814v-41.359q0-31.423 24.527-51.629 24.526-20.205 55.063-17.782l330.821 31.654q11.949 1.564 18.731 11.327 6.782 9.763 6.782 19.16v50.603q0 11.856-7.495 21.189t-19.557 10.068l-33.641 3.23q9.231 38.616 26.411 70.065 17.179 31.448 39.858 53.653 5.065 5.141 6.462 12.315 1.398 7.173-1.436 12.442-4.218 6.205-10.673 7.006-6.455.802-10.583-3.775-30.09-24.693-50.776-65.077-20.686-40.385-31.904-84.129l-106.859 10.667q4.193 59.833 28.109 114.058 23.917 54.224 62.084 115.494 16.115 26.461 24.019 57.019t7.904 60.301v137.193q0 13.379-9.528 22.908-9.528 9.528-22.908 9.528H317.769Zm-2.923-606.579v35.932q0 18.985 13.84 29.444 13.839 10.458 31.519 8.305l325.539-31.744v-48l-325.539-31.821q-17.68-2-31.519 8.45-13.84 10.45-13.84 29.434Z"/></svg>