<svg xmlns="http://www.w3.org/2000/svg" height="24" viewBox="0 -960 960 960" width="24"><path d="M779.07-503.38q-7.38 0-13.16-5.23-5.78-5.22-6.26-13.43-13-100.08-84.4-171.48-71.4-71.4-171.87-84.4-7.76-.96-13.01-6.67-5.25-5.72-5.25-13.29 0-7.58 5.32-13 5.33-5.43 12.94-4.2 116.97 12.46 198.77 94.46 81.81 82 94.66 198.58.84 8.08-4.53 13.37-5.37 5.29-13.21 5.29Zm-162.16 0q-5.83 0-10.91-4.27t-7.12-10.58q-10.3-35.92-36.65-63.04-26.35-27.11-62.27-36.65-6.66-2.12-10.75-7.12-4.09-4.99-4.09-11.31 0-9.41 6.11-14.8 6.12-5.39 14.73-2.93 47.98 11.45 82.78 46.28 34.8 34.83 47.07 83.57 2.07 8.56-3.92 14.7-6 6.15-14.98 6.15Zm134.78 337.23q-98.07 0-202.15-49.98-104.08-49.99-193.69-140.29-90.12-89.81-139.91-193.5-49.79-103.7-49.79-201.96 0-17.81 11.83-29.89 11.82-12.08 29.56-12.08h94.61q16.31 0 28.1 9.72 11.79 9.71 16.21 26.28l19.85 92.93q2.77 15.04-1.27 27.42-4.04 12.39-13.14 20.46l-85.94 80.73q24.73 44.69 54.14 82.91t62.63 71.67q34.23 34.61 73.94 64.38 39.71 29.77 88.1 56.89l86.19-87.08q9.23-10.04 19.58-12.96 10.34-2.92 24.38-1.04l82.2 16.57q16.42 3.55 26.57 16.12 10.16 12.58 10.16 28.85v92.46q0 17.74-12.05 29.56-12.04 11.83-30.11 11.83ZM248.42-570.77l76.77-70.61q3.46-3.08 4.62-8.47 1.15-5.38 0-10l-18.27-84.77q-1.54-6.15-5.39-9.23-3.84-3.07-10-3.07h-81.57q-5 0-7.89 3.07-2.88 3.08-2.88 7.7.54 40.38 12.34 85.3 11.81 44.93 32.27 90.08Zm331.85 327.23q39.65 20.08 85.67 29.69 46.01 9.62 80.21 10.31 4.62 0 7.7-3.08 3.07-3.07 3.07-7.69v-80.31q0-6.15-3.07-10-3.08-3.84-9.23-5.38l-72.77-15.65q-4.62-1.16-8.08 0-3.46 1.15-7.31 4.61l-76.19 77.5ZM248.42-570.77Zm331.85 327.23Z"/></svg>