<svg xmlns="http://www.w3.org/2000/svg" height="24" width="24"><path d="M4.15 20.25Q3.125 20.25 2.413 19.538Q1.7 18.825 1.7 17.8V6.175Q1.7 5.15 2.413 4.437Q3.125 3.725 4.15 3.725H8.55V5.875H4.15Q4.05 5.875 3.95 5.975Q3.85 6.075 3.85 6.175V17.8Q3.85 17.9 3.95 18Q4.05 18.1 4.15 18.1H19.875Q19.975 18.1 20.075 18Q20.175 17.9 20.175 17.8V6.175Q20.175 6.075 20.075 5.975Q19.975 5.875 19.875 5.875H15.45V3.725H19.875Q20.9 3.725 21.613 4.437Q22.325 5.15 22.325 6.175V17.8Q22.325 18.825 21.613 19.538Q20.9 20.25 19.875 20.25ZM12.025 15.5 6.85 10.35 8.35 8.85 10.925 11.425V3.725H13.075V11.425L15.675 8.85L17.175 10.35Z"/></svg>