<svg xmlns="http://www.w3.org/2000/svg" height="20" viewBox="0 -960 960 960" width="20"><path d="M171.22-195.08q-13.17 0-21.88-8.71-8.72-8.7-8.72-21.75v-543.42q0-13.05 8.71-21.74 8.71-8.68 21.76-8.68H438.8q13.05 0 21.76 8.7 8.71 8.71 8.71 21.76v107.38h319.66q13.04 0 21.75 8.71 8.7 8.71 8.7 21.75v264.34q0 6.16-4.26 10.45-4.27 4.29-9.82 4.29-5.99 0-10.42-4.29-4.42-4.29-4.42-10.45v-265.88H469.23v116.93h84.31v28.92h-84.31v116.92h84.31v28.93h-84.31V-224h176q5.51 0 9.83 4.27t4.32 9.82q0 5.99-4.32 10.41t-9.94 4.42h-473.9ZM169.54-224h108.92v-108.92H169.54V-224Zm0-145.85h108.92v-108.92H169.54v108.92Zm0-145.84h108.92v-108.93H169.54v108.93Zm0-145.85h108.92v-108.92H169.54v108.92ZM331.38-224h108.93v-108.92H331.38V-224Zm0-145.85h108.93v-108.92H331.38v108.92Zm0-145.84h108.93v-108.93H331.38v108.93Zm0-145.85h108.93v-108.92H331.38v108.92ZM805.3-123.69q-5.99 0-10.3-4.29-4.31-4.3-4.31-10.37v-56.73h-56.84q-6.12 0-10.45-4.3-4.32-4.3-4.32-10.19 0-5.88 4.32-10.16 4.33-4.27 10.45-4.27h56.84v-57.12q0-5.62 4.34-9.94 4.33-4.32 10.13-4.32 5.8 0 10.01 4.32t4.21 9.94V-224h56.91q5.54 0 10.01 4.27t4.47 9.82q0 5.99-4.32 10.26t-9.95 4.27h-57.12v56.73q0 6.07-4.26 10.52-4.27 4.44-9.82 4.44ZM661.85-486.77v-28.92h28.92v28.92h-28.92Zm0 145.85v-28.93h28.92v28.93h-28.92Z"/></svg>