<svg xmlns="http://www.w3.org/2000/svg" height="20" width="20"><path d="M12.354 13.312q.188.188.458.188.271 0 .48-.208.229-.23.229-.48 0-.25-.229-.479l-2.625-2.604V6.521q0-.25-.188-.448-.187-.198-.479-.198-.271 0-.469.198-.198.198-.198.469v3.396q0 .145.052.281.053.135.177.26ZM10 17.917q-1.646 0-3.094-.625t-2.51-1.688q-1.063-1.062-1.688-2.51-.625-1.448-.625-3.094t.625-3.094q.625-1.448 1.688-2.51 1.062-1.063 2.51-1.688Q8.354 2.083 10 2.083t3.094.625q1.448.625 2.51 1.688 1.063 1.062 1.688 2.51.625 1.448.625 3.094t-.625 3.094q-.625 1.448-1.688 2.51-1.062 1.063-2.51 1.688-1.448.625-3.094.625Z"/></svg>