<svg xmlns="http://www.w3.org/2000/svg" height="48" viewBox="0 -960 960 960" width="48"><path d="M231.5-130q-38.72 0-65.11-26.39T140-221.5v-320l-44 34q-12.85 10.5-29.9 7.69-17.06-2.82-26.58-16.25-9.52-12.44-7.71-29.37 1.8-16.93 15.69-26.07l378-286.5q14.2-8.5 27.5-14.5 13.31-6 27.69-6 15.39 0 28.85 6.25T536-857.5l340 258q13.5 11 17.5 28t-6.75 31.5q-8.75 13.5-24.25 16t-32-2l-32-25v56.5q-20-6-41.5-9.5t-42.5-3.5q-109.14 0-188.57 80.93-79.43 80.93-79.43 189.07 0 13.5.75 26.37Q448-198.27 452-185q3.5 20.6-8.51 37.8Q431.47-130 411-130H231.5ZM563-34.5q-17 0-28-11.5t-11-28.5q0-16 11-27.5t28-11.5h6q-22-28-33.5-61t-11.5-70q0-66 36.5-118.5t95.5-76.5q14-5 26 2.5t18 21.5q5 14-.5 29.5T674-360.5q-32 17-51.5 48t-19.5 68q0 19 5.5 36.5t15.5 31.5v-7q0-12 10-21t29-9q17 0 28.5 11.5t11.5 27.31v94.19q0 19.25-13.41 32.62Q676.17-34.5 657.5-34.5H563Zm230.5-15q-14 6-26.5-1.5t-17.5-21.5q-6-14-.5-29.5t25.5-26.5q32-16 51.5-47t19.5-69q0-18-5.5-35.5t-14.5-32.5v7q0 13-10.5 22t-29.5 9q-17 0-28.5-11.5t-11.5-28.37V-408q0-18.67 13.38-32.09 13.37-13.41 32.62-13.41h94q17 0 28.5 11.5t11.5 28.5q0 16-11.5 27.5t-27.5 11.5h-7q22 28 34 61t12 69q0 67-37 119t-95 76Z"/></svg>