<svg xmlns="http://www.w3.org/2000/svg" version="1.1" width="3300" height="2000"><g id="Notes"><style>
    text {
      font-family: monospace;
      text-anchor: middle;
    }
    text.emphasis {
      font-weight:bold;
    }
    text.lanchor {
      text-anchor: start;
    }
  </style><rect height="2200" id="artboard" fill="white" width="3300" x="0" y="0"/><line id="" style="fill:none;stroke:black;stroke-width:0.5;" x1="263" x2="3036" y1="292" y2="292"/><text class="lanchor emphasis" transform="matrix(1 0 0 1 263 322)">Weight/Scale Variations</text><text transform="matrix(1 0 0 1 559.711 322)">Ultralight</text><text transform="matrix(1 0 0 1 856.422 322)">Thin</text><text transform="matrix(1 0 0 1 1153.13 322)">Light</text><text transform="matrix(1 0 0 1 1449.84 322)">Regular</text><text transform="matrix(1 0 0 1 1746.56 322)">Medium</text><text transform="matrix(1 0 0 1 2043.27 322)">Semibold</text><text transform="matrix(1 0 0 1 2339.98 322)">Bold</text><text transform="matrix(1 0 0 1 2636.69 322)">Heavy</text><text transform="matrix(1 0 0 1 2933.4 322)">Black</text><text id="template-version" style="text-anchor: end;" transform="matrix(1 0 0 1 3036 1933)">Template v.1.0</text><text class="lanchor" transform="matrix(1 0 0 1 263 726)">Small</text><text class="lanchor" transform="matrix(1 0 0 1 263 1156)">Medium</text><text class="lanchor" transform="matrix(1 0 0 1 263 1586)">Large</text></g><g id="Guides"><g id="H-reference" style="fill:#27AAE1;stroke:none;" transform="matrix(1 0 0 1 339 696)"><path d="M 54.9316 0 L 57.666 0 L 30.5664 -70.459 L 28.0762 -70.459 L 0.976562 0 L 3.66211 0 L 12.9395 -24.4629 L 45.7031 -24.4629 Z M 29.1992 -67.0898 L 29.4434 -67.0898 L 44.8242 -26.709 L 13.8184 -26.709 Z"/></g><line id="Baseline-S" style="fill:none;stroke:#27AAE1;opacity:1;stroke-width:0.577;" x1="263" x2="3036" y1="696" y2="696"/><line id="Capline-S" style="fill:none;stroke:#27AAE1;opacity:1;stroke-width:0.577;" x1="263" x2="3036" y1="625.541" y2="625.541"/><g id="H-reference" style="fill:#27AAE1;stroke:none;" transform="matrix(1 0 0 1 339 1126)"><path d="M 54.9316 0 L 57.666 0 L 30.5664 -70.459 L 28.0762 -70.459 L 0.976562 0 L 3.66211 0 L 12.9395 -24.4629 L 45.7031 -24.4629 Z M 29.1992 -67.0898 L 29.4434 -67.0898 L 44.8242 -26.709 L 13.8184 -26.709 Z"/></g><line id="Baseline-M" style="fill:none;stroke:#27AAE1;opacity:1;stroke-width:0.577;" x1="263" x2="3036" y1="1126" y2="1126"/><line id="Capline-M" style="fill:none;stroke:#27AAE1;opacity:1;stroke-width:0.577;" x1="263" x2="3036" y1="1055.54" y2="1055.54"/><g id="H-reference" style="fill:#27AAE1;stroke:none;" transform="matrix(1 0 0 1 339 1556)"><path d="M 54.9316 0 L 57.666 0 L 30.5664 -70.459 L 28.0762 -70.459 L 0.976562 0 L 3.66211 0 L 12.9395 -24.4629 L 45.7031 -24.4629 Z M 29.1992 -67.0898 L 29.4434 -67.0898 L 44.8242 -26.709 L 13.8184 -26.709 Z"/></g><line id="Baseline-L" style="fill:none;stroke:#27AAE1;opacity:1;stroke-width:0.577;" x1="263" x2="3036" y1="1556" y2="1556"/><line id="Capline-L" style="fill:none;stroke:#27AAE1;opacity:1;stroke-width:0.577;" x1="263" x2="3036" y1="1485.54" y2="1485.54"/><rect height="119.336" id="left-margin" style="fill:darkred;stroke:none;opacity:0.4;" width="12.4512" x="1394.06" y="1030.79"/><rect height="119.336" id="right-margin" style="fill:darkgreen;stroke:none;opacity:0.4;" width="12.4512" x="1502.5112" y="1030.79"/><rect x="1406.5112" y="1045" width="96" height="96" fill="none" stroke="blue" stroke-dasharray="5"/><rect x="1394.06" y="1030.79" width="120.9024" height="119.336" fill="none" stroke="blue"/></g><g id="Symbols"><g id="Bold-L" transform="matrix(1 0 0 1 2266 1556)"><path d="M77.419 32.495 Q63.386 32.495 51.015 27.169 Q38.644 21.844 29.399 12.605 Q20.156 3.367 14.916 -8.978 Q9.675 -21.324 9.675 -35.485 Q9.675 -49.446 14.917 -61.812 Q20.161 -74.178 29.43 -83.286 Q38.7 -92.393 51.045 -97.755 Q63.392 -103.116 77.429 -103.116 Q80.544 -103.116 83.689 -102.713 Q86.833 -102.31 89.978 -101.551 V-87.152 Q86.833 -87.797 83.487 -88.201 Q80.141 -88.604 77.274 -88.604 Q70.729 -82.981 67.614 -74.827 Q64.5 -66.674 62.484 -58.369 H96.589 V-49.42 H60.757 Q60.209 -45.926 59.977 -42.433 Q59.743 -38.939 59.743 -35.552 Q59.743 -32.045 59.975 -28.377 Q60.208 -24.708 60.751 -21.201 H94.175 Q94.734 -24.749 94.815 -28.377 Q94.896 -32.005 94.896 -35.472 Q94.896 -38.623 94.694 -41.774 Q94.493 -44.926 94.251 -48.13 H103.764 Q103.845 -44.905 104.006 -41.761 Q104.168 -38.616 104.168 -35.552 Q104.168 -32.058 103.926 -28.485 Q103.684 -24.91 103.523 -21.201 H128.347 Q129.26 -24.716 129.734 -28.272 Q130.209 -31.828 130.209 -35.544 Q130.209 -38.697 129.806 -41.828 Q129.403 -44.958 128.597 -48.13 H144.077 Q144.561 -44.905 144.923 -41.788 Q145.286 -38.669 145.286 -35.544 Q145.286 -21.277 139.971 -8.94 Q134.657 3.399 125.378 12.585 Q116.1 21.772 103.769 27.133 Q91.438 32.495 77.419 32.495 Z M26.343 -21.201 H51.116 Q50.636 -24.708 50.557 -28.377 Q50.478 -32.045 50.478 -35.552 Q50.478 -38.939 50.678 -42.433 Q50.878 -45.926 51.278 -49.42 H26.401 Q25.379 -45.981 24.905 -42.539 Q24.429 -39.1 24.429 -35.504 Q24.429 -31.908 24.868 -28.34 Q25.305 -24.77 26.343 -21.201 Z M64.5 16.451 Q59.904 10.001 57.173 2.69 Q54.443 -4.62 52.88 -12.413 H29.267 Q34.953 -1.553 44.042 5.555 Q53.132 12.661 64.5 16.451 Z M29.267 -58.369 H53.096 Q54.583 -65.948 57.244 -73.204 Q59.904 -80.461 64.339 -86.749 Q52.748 -84.008 43.587 -76.55 Q34.427 -69.092 29.267 -58.369 Z M77.239 18.466 Q83.124 12.097 86.793 4.115 Q90.461 -3.867 92.558 -12.413 H62.484 Q64.258 -4.028 67.86 3.984 Q71.464 11.995 77.239 18.466 Z M90.139 16.289 Q101.346 12.903 110.618 5.526 Q119.889 -1.851 125.453 -12.413 H102.137 Q100.136 -4.834 97.435 2.583 Q94.734 10.001 90.139 16.289 Z M104.571 -62.401 V-103.116 H145.286 V-62.401 H104.571 Z M124.969 -82.799 H137.627 V-95.457 H124.969 V-82.799 Z"/></g><g id="Semibold-L" transform="matrix(1 0 0 1 1970.27 1556)"><path d="M77.415 30.742 Q63.737 30.742 51.685 25.54 Q39.634 20.338 30.667 11.362 Q21.698 2.385 16.564 -9.673 Q11.428 -21.733 11.428 -35.514 Q11.428 -49.096 16.565 -61.146 Q21.703 -73.198 30.692 -82.059 Q39.682 -90.921 51.706 -96.107 Q63.729 -101.294 77.402 -101.294 Q80.754 -101.294 84.074 -100.891 Q87.394 -100.488 90.748 -99.707 V-87.643 Q87.394 -88.359 83.955 -88.762 Q80.515 -89.165 77.344 -89.165 Q70.684 -83.497 67.486 -75.296 Q64.29 -67.095 62.204 -58.65 H95.186 V-49.56 H60.491 Q59.937 -46.043 59.7 -42.527 Q59.463 -39.008 59.463 -35.552 Q59.463 -31.976 59.7 -28.308 Q59.935 -24.639 60.488 -21.061 H94.459 Q95.015 -24.679 95.165 -28.308 Q95.316 -31.936 95.316 -35.472 Q95.316 -38.787 95.097 -42.101 Q94.878 -45.416 94.531 -48.76 H104.045 Q104.23 -45.395 104.409 -42.088 Q104.588 -38.779 104.588 -35.552 Q104.588 -31.989 104.311 -28.378 Q104.034 -24.77 103.803 -21.061 H129.032 Q129.961 -24.647 130.435 -28.254 Q130.911 -31.863 130.911 -35.562 Q130.911 -38.906 130.472 -42.178 Q130.034 -45.45 129.158 -48.76 H142.184 Q142.772 -45.395 143.119 -42.138 Q143.464 -38.881 143.464 -35.532 Q143.464 -21.69 138.285 -9.635 Q133.107 2.419 124.113 11.36 Q115.118 20.3 103.1 25.521 Q91.08 30.742 77.415 30.742 Z M25.737 -21.061 H50.836 Q50.426 -24.639 50.312 -28.308 Q50.199 -31.976 50.199 -35.552 Q50.199 -39.008 50.397 -42.527 Q50.597 -46.043 50.997 -49.56 H25.769 Q24.749 -46.097 24.273 -42.633 Q23.799 -39.169 23.799 -35.54 Q23.799 -31.908 24.242 -28.293 Q24.687 -24.676 25.737 -21.061 Z M64.36 17.012 Q59.835 10.421 57.033 3.077 Q54.232 -4.27 52.571 -12.063 H28.706 Q34.374 -1.227 43.647 5.963 Q52.922 13.151 64.36 17.012 Z M28.706 -58.65 H52.796 Q54.303 -66.298 57.068 -73.59 Q59.835 -80.881 64.198 -87.311 Q52.493 -84.498 43.215 -76.971 Q33.937 -69.442 28.706 -58.65 Z M77.308 19.027 Q83.334 12.658 87.038 4.605 Q90.742 -3.446 92.838 -12.063 H62.204 Q64.049 -3.538 67.714 4.497 Q71.381 12.531 77.308 19.027 Z M90.419 16.851 Q101.766 13.393 111.108 5.982 Q120.451 -1.43 126.083 -12.063 H102.449 Q100.486 -4.414 97.716 3.004 Q94.944 10.421 90.419 16.851 Z M105.201 -63.031 V-101.294 H143.464 V-63.031 H105.201 Z M123.566 -81.396 H137.907 V-95.737 H123.566 V-81.396 Z"/></g><g id="Medium-L" transform="matrix(1 0 0 1 1674.31 1556)"><path d="M77.413 29.428 Q64 29.428 52.189 24.318 Q40.377 19.21 31.616 10.43 Q22.856 1.649 17.799 -10.196 Q12.742 -22.04 12.742 -35.536 Q12.742 -48.833 17.8 -60.646 Q22.86 -72.461 31.639 -81.139 Q40.417 -89.816 52.2 -94.872 Q63.984 -99.927 77.381 -99.927 Q80.912 -99.927 84.363 -99.524 Q87.815 -99.12 91.327 -98.326 V-88.012 Q87.815 -88.78 84.305 -89.183 Q80.796 -89.586 77.397 -89.586 Q70.652 -83.886 67.391 -75.647 Q64.132 -67.411 61.994 -58.86 H94.135 V-49.665 H60.293 Q59.732 -46.13 59.492 -42.596 Q59.253 -39.061 59.253 -35.552 Q59.253 -31.923 59.492 -28.254 Q59.732 -24.586 60.291 -20.956 H94.671 Q95.225 -24.626 95.428 -28.254 Q95.633 -31.882 95.633 -35.472 Q95.633 -38.91 95.4 -42.346 Q95.167 -45.784 94.741 -49.235 H104.255 Q104.519 -45.764 104.713 -42.333 Q104.904 -38.903 104.904 -35.552 Q104.904 -31.936 104.6 -28.301 Q104.296 -24.665 104.013 -20.956 H129.548 Q130.487 -24.594 130.961 -28.241 Q131.436 -31.889 131.436 -35.575 Q131.436 -39.065 130.972 -42.441 Q130.508 -45.818 129.579 -49.235 H140.765 Q141.432 -45.764 141.765 -42.401 Q142.097 -39.039 142.097 -35.522 Q142.097 -21.999 137.021 -10.157 Q131.944 1.685 123.163 10.439 Q114.383 19.195 102.597 24.312 Q90.813 29.428 77.413 29.428 Z M25.281 -20.956 H50.626 Q50.268 -24.586 50.128 -28.254 Q49.988 -31.923 49.988 -35.552 Q49.988 -39.061 50.187 -42.596 Q50.387 -46.13 50.787 -49.665 H25.297 Q24.275 -46.184 23.8 -42.704 Q23.325 -39.223 23.325 -35.565 Q23.325 -31.908 23.773 -28.258 Q24.223 -24.607 25.281 -20.956 Z M64.255 17.433 Q59.782 10.738 56.928 3.365 Q54.074 -4.007 52.339 -11.8 H28.285 Q33.94 -0.982 43.352 6.269 Q52.764 13.521 64.255 17.433 Z M28.285 -58.86 H52.571 Q54.093 -66.561 56.937 -73.878 Q59.782 -81.198 64.094 -87.731 Q52.303 -84.868 42.936 -77.287 Q33.567 -69.705 28.285 -58.86 Z M77.361 19.448 Q83.492 13.079 87.222 4.974 Q90.951 -3.13 93.048 -11.8 H61.994 Q63.89 -3.169 67.604 4.881 Q71.318 12.932 77.361 19.448 Z M90.629 17.271 Q102.083 13.763 111.477 6.324 Q120.871 -1.114 126.557 -11.8 H102.681 Q100.749 -4.097 97.926 3.32 Q95.102 10.738 90.629 17.271 Z M105.675 -63.505 V-99.927 H142.097 V-63.505 H105.675 Z M122.515 -80.345 H138.117 V-95.947 H122.515 V-80.345 Z"/></g><g id="Regular-L" transform="matrix(1 0 0 1 1378.56 1556)"><path d="M77.41 28.464 Q64.192 28.464 52.556 23.423 Q40.922 18.381 32.313 9.746 Q23.704 1.109 18.705 -10.578 Q13.706 -22.264 13.706 -35.552 Q13.706 -48.64 18.707 -60.28 Q23.709 -71.921 32.332 -80.464 Q40.958 -89.007 52.563 -93.965 Q64.169 -98.924 77.365 -98.924 Q81.028 -98.924 84.576 -98.521 Q88.123 -98.117 91.751 -97.311 V-88.281 Q88.123 -89.087 84.563 -89.491 Q81.001 -89.894 77.435 -89.894 Q70.627 -84.169 67.322 -75.905 Q64.016 -67.641 61.839 -59.014 H93.364 V-49.742 H60.146 Q59.582 -46.195 59.34 -42.647 Q59.098 -39.1 59.098 -35.552 Q59.098 -31.884 59.34 -28.216 Q59.582 -24.547 60.146 -20.879 H94.828 Q95.379 -24.587 95.621 -28.216 Q95.863 -31.844 95.863 -35.472 Q95.863 -39 95.621 -42.527 Q95.379 -46.055 94.896 -49.581 H104.409 Q104.732 -46.034 104.933 -42.514 Q105.135 -38.992 105.135 -35.552 Q105.135 -31.897 104.812 -28.243 Q104.49 -24.587 104.168 -20.879 H129.926 Q130.872 -24.555 131.346 -28.232 Q131.822 -31.908 131.822 -35.585 Q131.822 -39.181 131.338 -42.635 Q130.854 -46.087 129.887 -49.581 H139.723 Q140.449 -46.034 140.771 -42.594 Q141.094 -39.153 141.094 -35.514 Q141.094 -22.227 136.093 -10.541 Q131.091 1.145 122.468 9.765 Q113.843 18.386 102.229 23.425 Q90.614 28.464 77.41 28.464 Z M24.947 -20.879 H50.471 Q50.152 -24.547 49.992 -28.216 Q49.833 -31.884 49.833 -35.552 Q49.833 -39.1 50.033 -42.647 Q50.233 -46.195 50.633 -49.742 H24.95 Q23.928 -46.248 23.454 -42.756 Q22.978 -39.261 22.978 -35.585 Q22.978 -31.908 23.43 -28.232 Q23.883 -24.555 24.947 -20.879 Z M64.177 17.741 Q59.743 10.968 56.85 3.576 Q53.959 -3.814 52.168 -11.607 H27.977 Q33.621 -0.803 43.134 6.493 Q52.648 13.79 64.177 17.741 Z M27.977 -59.014 H52.406 Q53.938 -66.754 56.841 -74.091 Q59.743 -81.428 64.016 -88.039 Q52.164 -85.137 42.731 -77.518 Q33.298 -69.899 27.977 -59.014 Z M77.4 19.756 Q83.608 13.387 87.357 5.244 Q91.106 -2.899 93.203 -11.607 H61.839 Q63.774 -2.899 67.523 5.163 Q71.273 13.226 77.4 19.756 Z M90.784 17.579 Q102.313 14.032 111.746 6.574 Q121.179 -0.884 126.904 -11.607 H102.852 Q100.943 -3.867 98.08 3.551 Q95.218 10.968 90.784 17.579 Z M106.022 -63.852 V-98.924 H141.094 V-63.852 H106.022 Z M121.744 -79.574 H138.272 V-96.102 H121.744 V-79.574 Z"/></g><g id="Light-L" transform="matrix(1 0 0 1 1082.77 1556)"><path d="M77.421 25.548 Q64.806 25.548 53.696 20.74 Q42.585 15.93 34.366 7.692 Q26.145 -0.547 21.383 -11.639 Q16.622 -22.732 16.622 -35.475 Q16.622 -47.895 21.391 -59.03 Q26.161 -70.166 34.39 -78.335 Q42.618 -86.504 53.69 -91.256 Q64.761 -96.008 77.35 -96.008 Q80.615 -96.008 83.779 -95.652 Q86.944 -95.296 90.169 -94.644 V-87.847 Q86.944 -88.499 83.766 -88.855 Q80.588 -89.212 77.435 -89.212 Q70.627 -83.084 67.085 -74.694 Q63.542 -66.303 61.219 -57.495 H91.906 V-50.425 H59.867 Q59.272 -46.692 58.953 -42.957 Q58.634 -39.224 58.634 -35.491 Q58.634 -31.636 58.953 -27.782 Q59.272 -23.926 59.867 -20.134 H95.094 Q95.689 -23.984 95.978 -27.796 Q96.266 -31.607 96.266 -35.419 Q96.266 -38.529 96.071 -41.672 Q95.876 -44.813 95.484 -47.999 H102.797 Q102.995 -44.824 103.166 -41.675 Q103.337 -38.528 103.337 -35.498 Q103.337 -31.665 103.015 -27.832 Q102.692 -23.999 102.183 -20.134 H128.973 Q130.05 -23.934 130.579 -27.798 Q131.109 -31.66 131.109 -35.523 Q131.109 -38.623 130.703 -41.719 Q130.296 -44.816 129.484 -47.999 H137.056 Q137.658 -44.794 137.919 -41.695 Q138.178 -38.595 138.178 -35.436 Q138.178 -22.694 133.417 -11.605 Q128.655 -0.514 120.423 7.709 Q112.19 15.933 101.107 20.741 Q90.023 25.548 77.421 25.548 Z M25.934 -20.134 H52.518 Q52.013 -23.97 51.792 -27.811 Q51.569 -31.652 51.569 -35.493 Q51.569 -39.214 51.832 -42.936 Q52.093 -46.659 52.617 -50.425 H25.913 Q24.734 -46.745 24.213 -43.018 Q23.691 -39.292 23.691 -35.477 Q23.691 -31.66 24.205 -27.798 Q24.72 -23.934 25.934 -20.134 Z M67.465 17.71 Q62.255 10.907 58.99 3.081 Q55.726 -4.744 53.783 -13.065 H28.162 Q33.993 -1.176 44.328 6.711 Q54.664 14.596 67.465 17.71 Z M28.162 -57.495 H53.988 Q55.736 -65.73 59.085 -73.482 Q62.434 -81.231 67.304 -88.07 Q54.365 -85.601 44.049 -77.502 Q33.732 -69.402 28.162 -57.495 Z M77.4 18.95 Q83.692 12.294 87.647 4.046 Q91.603 -4.202 93.791 -13.065 H61.219 Q63.278 -4.202 67.214 4.031 Q71.148 12.265 77.4 18.95 Z M87.496 17.61 Q100.217 14.848 110.511 6.797 Q120.807 -1.256 126.749 -13.065 H101.202 Q98.901 -4.862 95.683 2.954 Q92.464 10.771 87.496 17.61 Z M105.309 -63.139 V-96.008 H138.178 V-63.139 H105.309 Z M121.062 -78.892 H135.078 V-92.908 H121.062 V-78.892 Z"/></g><g id="Thin-L" transform="matrix(1 0 0 1 787.282 1556)"><path d="M77.432 22.635 Q65.419 22.635 54.835 18.057 Q44.249 13.479 36.417 5.639 Q28.585 -2.203 24.06 -12.7 Q19.535 -23.198 19.535 -35.399 Q19.535 -47.151 24.075 -57.781 Q28.614 -68.412 36.446 -76.207 Q44.278 -84.002 54.815 -88.547 Q65.353 -93.095 77.336 -93.095 Q80.201 -93.095 82.984 -92.783 Q85.766 -92.474 88.588 -91.977 V-87.414 Q85.766 -87.909 82.97 -88.22 Q80.175 -88.53 77.435 -88.53 Q70.627 -81.999 66.848 -73.482 Q63.068 -64.964 60.599 -55.975 H90.448 V-51.107 H59.59 Q58.961 -47.187 58.564 -43.268 Q58.168 -39.348 58.168 -35.428 Q58.168 -31.387 58.564 -27.348 Q58.961 -23.307 59.588 -19.39 H95.36 Q96 -23.383 96.334 -27.377 Q96.669 -31.371 96.669 -35.365 Q96.669 -38.06 96.521 -40.817 Q96.371 -43.573 96.074 -46.418 H101.184 Q101.259 -43.615 101.399 -40.838 Q101.538 -38.062 101.538 -35.444 Q101.538 -31.433 101.215 -27.421 Q100.893 -23.409 100.198 -19.39 H128.02 Q129.229 -23.315 129.813 -27.364 Q130.395 -31.412 130.395 -35.461 Q130.395 -38.065 130.067 -40.804 Q129.739 -43.544 129.081 -46.418 H134.389 Q134.866 -43.554 135.066 -40.795 Q135.265 -38.037 135.265 -35.359 Q135.265 -23.164 130.742 -12.67 Q126.22 -2.175 118.378 5.653 Q110.538 13.48 99.985 18.057 Q89.431 22.635 77.432 22.635 Z M26.921 -19.39 H54.564 Q53.874 -23.394 53.59 -27.408 Q53.306 -31.421 53.306 -35.435 Q53.306 -39.327 53.63 -43.226 Q53.954 -47.125 54.602 -51.107 H26.874 Q25.54 -47.242 24.973 -43.283 Q24.405 -39.323 24.405 -35.367 Q24.405 -31.412 24.981 -27.364 Q25.557 -23.315 26.921 -19.39 Z M70.752 17.679 Q64.766 10.844 61.13 2.585 Q57.494 -5.674 55.401 -14.522 H28.349 Q34.366 -1.548 45.522 6.927 Q56.679 15.403 70.752 17.679 Z M28.349 -55.975 H55.57 Q57.536 -64.708 61.331 -72.871 Q65.126 -81.035 70.59 -88.101 Q56.568 -86.067 45.368 -77.487 Q34.166 -68.907 28.349 -55.975 Z M77.4 18.144 Q83.774 11.199 87.936 2.848 Q92.098 -5.504 94.381 -14.522 H60.599 Q62.783 -5.504 66.903 2.899 Q71.024 11.304 77.4 18.144 Z M84.21 17.641 Q98.119 15.665 109.278 7.019 Q120.434 -1.629 126.594 -14.522 H99.554 Q96.861 -5.857 93.286 2.359 Q89.711 10.575 84.21 17.641 Z M104.595 -62.425 V-93.095 H135.265 V-62.425 H104.595 Z M120.38 -78.21 H131.883 V-89.713 H120.38 V-78.21 Z"/></g><g id="Ultralight-L" transform="matrix(1 0 0 1 491.205 1556)"><path d="M77.439 20.885 Q65.788 20.885 55.517 16.447 Q45.247 12.008 37.649 4.407 Q30.049 -3.196 25.668 -13.337 Q21.285 -23.478 21.285 -35.353 Q21.285 -46.705 25.686 -57.031 Q30.084 -67.359 37.679 -74.93 Q45.274 -82.5 55.491 -86.922 Q65.709 -91.345 77.326 -91.345 Q79.953 -91.345 82.507 -91.063 Q85.059 -90.781 87.639 -90.377 V-87.152 Q85.059 -87.556 82.492 -87.838 Q79.927 -88.12 77.435 -88.12 Q70.627 -81.347 66.706 -72.754 Q62.784 -64.163 60.227 -55.064 H89.574 V-51.516 H59.422 Q58.776 -47.485 58.332 -43.454 Q57.889 -39.422 57.889 -35.391 Q57.889 -31.239 58.332 -27.087 Q58.776 -22.935 59.421 -18.944 H95.52 Q96.186 -23.022 96.548 -27.126 Q96.911 -31.229 96.911 -35.333 Q96.911 -37.778 96.79 -40.303 Q96.669 -42.83 96.428 -45.469 H100.217 Q100.217 -42.889 100.338 -40.337 Q100.459 -37.783 100.459 -35.412 Q100.459 -31.292 100.136 -27.174 Q99.814 -23.056 99.008 -18.944 H127.449 Q128.736 -22.943 129.352 -27.103 Q129.968 -31.263 129.968 -35.423 Q129.968 -37.729 129.685 -40.256 Q129.403 -42.781 128.839 -45.469 H132.789 Q133.192 -42.809 133.354 -40.256 Q133.515 -37.702 133.515 -35.314 Q133.515 -23.444 129.137 -13.308 Q124.758 -3.172 117.153 4.418 Q109.547 12.008 99.312 16.447 Q89.076 20.885 77.439 20.885 Z M27.514 -18.944 H55.793 Q54.989 -23.048 54.669 -27.164 Q54.348 -31.283 54.348 -35.399 Q54.348 -39.395 54.709 -43.401 Q55.07 -47.404 55.793 -51.516 H27.453 Q26.024 -47.538 25.429 -43.441 Q24.832 -39.342 24.832 -35.303 Q24.832 -31.263 25.445 -27.103 Q26.06 -22.943 27.514 -18.944 Z M72.724 17.66 Q66.274 10.807 62.413 2.286 Q58.555 -6.232 56.37 -15.396 H28.461 Q34.588 -1.771 46.238 7.058 Q57.889 15.886 72.724 17.66 Z M28.461 -55.064 H56.518 Q58.614 -64.094 62.678 -72.505 Q66.741 -80.915 72.562 -88.12 Q57.889 -86.346 46.158 -77.477 Q34.427 -68.609 28.461 -55.064 Z M77.4 17.66 Q83.824 10.542 88.11 2.128 Q92.396 -6.286 94.734 -15.396 H60.227 Q62.484 -6.286 66.717 2.22 Q70.95 10.726 77.4 17.66 Z M82.237 17.66 Q96.861 16.154 108.537 7.151 Q120.212 -1.851 126.501 -15.396 H98.566 Q95.636 -6.453 91.848 2.001 Q88.059 10.455 82.237 17.66 Z M104.168 -61.997 V-91.345 H133.515 V-61.997 H104.168 Z M119.97 -77.8 H129.968 V-87.797 H119.97 V-77.8 Z"/></g><g id="Bold-M" transform="matrix(1 0 0 1 2281.8 1126)"><path d="M59.99 17.77 Q49.011 17.77 39.366 13.613 Q29.723 9.454 22.517 2.238 Q15.312 -4.98 11.156 -14.626 Q7 -24.272 7 -35.24 Q7 -46.219 11.158 -55.864 Q15.316 -65.507 22.532 -72.712 Q29.75 -79.917 39.394 -84.074 Q49.038 -88.23 60.002 -88.23 Q62.062 -88.23 63.906 -88.042 Q65.75 -87.855 67.812 -87.48 V-72.605 Q65.75 -72.98 63.75 -73.167 Q61.75 -73.355 59.75 -73.355 Q56.792 -68.886 54.615 -64.059 Q52.438 -59.23 50.938 -53.98 H70.438 V-44.855 H48.812 Q48.375 -42.48 48.188 -40.105 Q48 -37.73 48 -35.23 Q48 -32.73 48.176 -30.355 Q48.354 -27.98 48.77 -25.605 H71.062 Q71.469 -27.98 71.547 -30.355 Q71.625 -32.73 71.625 -35.23 Q71.625 -37.277 71.531 -39.324 Q71.438 -41.371 71.25 -43.417 H80.688 Q80.875 -41.355 80.938 -39.314 Q81 -37.271 81 -35.23 Q81 -32.73 80.875 -30.417 Q80.75 -28.105 80.5 -25.605 H96.355 Q96.938 -27.98 97.281 -30.355 Q97.625 -32.73 97.625 -35.23 Q97.625 -37.292 97.406 -39.355 Q97.188 -41.417 96.75 -43.417 H112.312 Q112.562 -41.355 112.781 -39.314 Q113 -37.271 113 -35.23 Q113 -24.256 108.843 -14.604 Q104.684 -4.952 97.468 2.253 Q90.25 9.458 80.604 13.614 Q70.957 17.77 59.99 17.77 Z M23.378 -25.605 H39.375 Q39.004 -27.98 38.819 -30.355 Q38.634 -32.73 38.634 -35.23 Q38.634 -37.73 38.819 -40.105 Q39.004 -42.48 39.375 -44.855 H23.431 Q22.812 -42.48 22.469 -40.105 Q22.125 -37.73 22.125 -35.23 Q22.125 -32.73 22.439 -30.355 Q22.751 -27.98 23.378 -25.605 Z M48.125 0.77 Q45.562 -3.292 44 -7.667 Q42.438 -12.042 41.356 -16.605 H27.188 Q30.595 -10.311 35.922 -5.864 Q41.25 -1.417 48.125 0.77 Z M27.188 -53.98 H41.366 Q42.438 -58.417 44 -62.855 Q45.562 -67.292 48.125 -71.23 Q41.375 -69.042 35.969 -64.574 Q30.562 -60.105 27.188 -53.98 Z M59.75 2.895 Q62.688 -1.73 65.062 -6.48 Q67.438 -11.23 68.938 -16.605 H50.938 Q52.312 -11.355 54.562 -6.48 Q56.812 -1.605 59.75 2.895 Z M71.5 0.77 Q78.375 -1.417 83.844 -5.886 Q89.312 -10.355 92.688 -16.605 H78.509 Q77.438 -12.042 75.75 -7.667 Q74.062 -3.292 71.5 0.77 Z M77.875 -53.105 V-88.23 H113 V-53.105 H77.875 Z M97 -72.23 H103.75 V-78.98 H97 V-72.23 Z"/></g><g id="Semibold-M" transform="matrix(1 0 0 1 1985.97 1126)"><path d="M59.994 15.923 Q49.392 15.923 40.074 11.9 Q30.755 7.879 23.821 0.933 Q16.889 -6.012 12.867 -15.329 Q8.848 -24.644 8.848 -35.236 Q8.848 -45.837 12.87 -55.156 Q16.891 -64.475 23.837 -71.409 Q30.782 -78.341 40.097 -82.362 Q49.413 -86.382 60.002 -86.382 Q62.225 -86.382 64.314 -86.167 Q66.403 -85.952 68.627 -85.577 V-73.149 Q66.403 -73.524 64.221 -73.737 Q62.04 -73.952 59.859 -73.952 Q56.748 -69.416 54.456 -64.514 Q52.166 -59.61 50.666 -54.251 H69.025 V-45.017 H48.541 Q48.104 -42.589 47.916 -40.159 Q47.729 -37.73 47.729 -35.23 Q47.729 -32.73 47.91 -30.301 Q48.091 -27.871 48.516 -25.442 H71.389 Q71.795 -27.871 71.927 -30.301 Q72.06 -32.73 72.06 -35.23 Q72.06 -37.44 71.925 -39.65 Q71.791 -41.86 71.521 -44.07 H80.959 Q81.229 -41.844 81.331 -39.64 Q81.435 -37.435 81.435 -35.23 Q81.435 -32.73 81.282 -30.336 Q81.13 -27.942 80.826 -25.442 H97.1 Q97.699 -27.871 98.043 -30.301 Q98.386 -32.73 98.386 -35.23 Q98.386 -37.455 98.126 -39.681 Q97.866 -41.906 97.347 -44.07 H110.356 Q110.715 -41.844 110.934 -39.64 Q111.153 -37.435 111.153 -35.23 Q111.153 -24.63 107.13 -15.307 Q103.109 -5.985 96.162 0.949 Q89.218 7.881 79.901 11.903 Q70.586 15.923 59.994 15.923 Z M22.751 -25.442 H39.104 Q38.733 -27.871 38.547 -30.301 Q38.361 -32.73 38.361 -35.23 Q38.361 -37.73 38.547 -40.159 Q38.733 -42.589 39.104 -45.017 H22.779 Q22.16 -42.589 21.816 -40.159 Q21.473 -37.73 21.473 -35.23 Q21.473 -32.73 21.793 -30.301 Q22.113 -27.871 22.751 -25.442 Z M47.962 1.368 Q45.509 -2.804 43.837 -7.232 Q42.166 -11.662 41.062 -16.279 H26.59 Q30.093 -9.895 35.562 -5.385 Q41.032 -0.874 47.962 1.368 Z M26.59 -54.251 H41.071 Q42.166 -58.797 43.837 -63.262 Q45.509 -67.727 47.962 -71.827 Q41.104 -69.586 35.589 -65.062 Q30.074 -60.54 26.59 -54.251 Z M59.859 3.493 Q62.959 -1.132 65.361 -5.991 Q67.764 -10.85 69.264 -16.279 H50.666 Q52.095 -10.92 54.426 -5.991 Q56.759 -1.061 59.859 3.493 Z M71.826 1.368 Q78.755 -0.874 84.306 -5.397 Q89.856 -9.92 93.34 -16.279 H78.859 Q77.764 -11.662 76.021 -7.232 Q74.28 -2.804 71.826 1.368 Z M78.528 -53.757 V-86.382 H111.153 V-53.757 H78.528 Z M95.588 -70.817 H104.021 V-79.251 H95.588 V-70.817 Z"/></g><g id="Medium-M" transform="matrix(1 0 0 1 1689.91 1126)"><path d="M59.998 14.536 Q49.678 14.536 40.604 10.616 Q31.529 6.696 24.8 -0.045 Q18.071 -6.787 14.152 -15.855 Q10.234 -24.922 10.234 -35.232 Q10.234 -45.552 14.154 -54.626 Q18.074 -63.701 24.815 -70.43 Q31.558 -77.159 40.625 -81.077 Q49.693 -84.996 60.002 -84.996 Q62.347 -84.996 64.62 -84.761 Q66.891 -84.526 69.239 -84.151 V-73.556 Q66.891 -73.931 64.574 -74.166 Q62.258 -74.401 59.94 -74.401 Q56.712 -69.814 54.337 -64.855 Q51.962 -59.896 50.462 -54.455 H67.965 V-45.14 H48.337 Q47.9 -42.67 47.712 -40.2 Q47.525 -37.73 47.525 -35.23 Q47.525 -32.73 47.71 -30.26 Q47.894 -27.79 48.326 -25.32 H71.634 Q72.04 -27.79 72.213 -30.26 Q72.386 -32.73 72.386 -35.23 Q72.386 -37.562 72.221 -39.895 Q72.056 -42.226 71.725 -44.559 H81.162 Q81.494 -42.211 81.627 -39.884 Q81.761 -37.557 81.761 -35.23 Q81.761 -32.73 81.589 -30.275 Q81.416 -27.82 81.071 -25.32 H97.66 Q98.269 -27.79 98.612 -30.26 Q98.956 -32.73 98.956 -35.23 Q98.956 -37.577 98.666 -39.926 Q98.376 -42.274 97.796 -44.559 H108.889 Q109.329 -42.211 109.547 -39.884 Q109.766 -37.557 109.766 -35.23 Q109.766 -24.911 105.846 -15.835 Q101.926 -6.759 95.185 -0.03 Q88.442 6.699 79.375 10.618 Q70.308 14.536 59.998 14.536 Z M22.281 -25.32 H38.9 Q38.529 -27.79 38.344 -30.26 Q38.157 -32.73 38.157 -35.23 Q38.157 -37.73 38.344 -40.2 Q38.529 -42.67 38.9 -45.14 H22.29 Q21.671 -42.67 21.328 -40.2 Q20.984 -37.73 20.984 -35.23 Q20.984 -32.73 21.309 -30.26 Q21.633 -27.79 22.281 -25.32 Z M47.84 1.816 Q45.468 -2.436 43.715 -6.906 Q41.962 -11.376 40.841 -16.034 H26.141 Q29.715 -9.584 35.292 -5.025 Q40.87 -0.466 47.84 1.816 Z M26.141 -54.455 H40.85 Q41.962 -59.084 43.715 -63.569 Q45.468 -68.054 47.84 -72.276 Q40.9 -69.994 35.303 -65.43 Q29.706 -60.866 26.141 -54.455 Z M59.94 3.941 Q63.163 -0.684 65.585 -5.624 Q68.009 -10.564 69.509 -16.034 H50.462 Q51.932 -10.594 54.325 -5.624 Q56.718 -0.654 59.94 3.941 Z M72.071 1.816 Q79.041 -0.466 84.653 -5.03 Q90.264 -9.594 93.829 -16.034 H79.12 Q78.009 -11.376 76.225 -6.906 Q74.442 -2.436 72.071 1.816 Z M79.016 -54.246 V-84.996 H109.766 V-54.246 H79.016 Z M94.528 -69.757 H104.225 V-79.455 H94.528 V-69.757 Z"/></g><g id="Regular-M" transform="matrix(1 0 0 1 1394.06 1126)"><path d="M60 13.52 Q49.886 13.52 40.991 9.675 Q32.097 5.829 25.517 -0.762 Q18.938 -7.355 15.094 -16.241 Q11.25 -25.126 11.25 -35.23 Q11.25 -45.344 15.095 -54.239 Q18.941 -63.132 25.532 -69.712 Q32.125 -76.292 41.011 -80.136 Q49.899 -83.98 60.002 -83.98 Q62.438 -83.98 64.844 -83.73 Q67.25 -83.48 69.688 -83.105 V-73.855 Q67.25 -74.23 64.834 -74.48 Q62.416 -74.73 60 -74.73 Q56.688 -70.105 54.25 -65.105 Q51.812 -60.105 50.312 -54.605 H67.188 V-45.23 H48.188 Q47.75 -42.73 47.562 -40.23 Q47.375 -37.73 47.375 -35.23 Q47.375 -32.73 47.562 -30.23 Q47.75 -27.73 48.188 -25.23 H71.812 Q72.219 -27.73 72.422 -30.23 Q72.625 -32.73 72.625 -35.23 Q72.625 -37.652 72.438 -40.074 Q72.25 -42.496 71.875 -44.917 H81.312 Q81.688 -42.48 81.844 -40.064 Q82 -37.646 82 -35.23 Q82 -32.73 81.812 -30.23 Q81.625 -27.73 81.25 -25.23 H98.07 Q98.688 -27.73 99.031 -30.23 Q99.375 -32.73 99.375 -35.23 Q99.375 -37.667 99.062 -40.105 Q98.75 -42.542 98.125 -44.917 H107.812 Q108.312 -42.48 108.531 -40.064 Q108.75 -37.646 108.75 -35.23 Q108.75 -25.116 104.905 -16.221 Q101.059 -7.327 94.468 -0.747 Q87.875 5.833 78.989 9.676 Q70.104 13.52 60 13.52 Z M21.938 -25.23 H38.75 Q38.379 -27.73 38.194 -30.23 Q38.009 -32.73 38.009 -35.23 Q38.009 -37.73 38.194 -40.23 Q38.379 -42.73 38.75 -45.23 H21.931 Q21.312 -42.73 20.969 -40.23 Q20.625 -37.73 20.625 -35.23 Q20.625 -32.73 20.954 -30.23 Q21.281 -27.73 21.938 -25.23 Z M47.75 2.145 Q45.438 -2.167 43.625 -6.667 Q41.812 -11.167 40.679 -15.855 H25.812 Q29.438 -9.355 35.094 -4.761 Q40.75 -0.167 47.75 2.145 Z M25.812 -54.605 H40.688 Q41.812 -59.292 43.625 -63.792 Q45.438 -68.292 47.75 -72.605 Q40.75 -70.292 35.094 -65.699 Q29.438 -61.105 25.812 -54.605 Z M60 4.27 Q63.312 -0.355 65.75 -5.355 Q68.188 -10.355 69.688 -15.855 H50.312 Q51.812 -10.355 54.25 -5.355 Q56.688 -0.355 60 4.27 Z M72.25 2.145 Q79.25 -0.167 84.906 -4.761 Q90.562 -9.355 94.188 -15.855 H79.312 Q78.188 -11.167 76.375 -6.667 Q74.562 -2.167 72.25 2.145 Z M79.375 -54.605 V-83.98 H108.75 V-54.605 H79.375 Z M93.75 -68.98 H104.375 V-79.605 H93.75 V-68.98 Z"/></g><g id="Light-M" transform="matrix(1 0 0 1 1098.18 1126)"><path d="M60.009 11.26 Q50.362 11.26 41.875 7.595 Q33.386 3.929 27.109 -2.355 Q20.83 -8.639 17.17 -17.111 Q13.51 -25.585 13.51 -35.219 Q13.51 -44.862 17.176 -53.351 Q20.843 -61.841 27.128 -68.121 Q33.413 -74.4 41.885 -78.06 Q50.358 -81.72 59.991 -81.72 Q62.197 -81.72 64.388 -81.506 Q66.576 -81.292 68.797 -80.941 V-74.144 Q66.576 -74.495 64.376 -74.709 Q62.176 -74.922 60 -74.922 Q56.159 -70.032 53.489 -64.55 Q50.82 -59.067 49.159 -53.09 H67.74 V-46.095 H47.539 Q47.029 -43.404 46.805 -40.675 Q46.581 -37.946 46.581 -35.217 Q46.581 -32.49 46.805 -29.774 Q47.029 -27.056 47.539 -24.365 H72.486 Q72.94 -27.056 73.179 -29.781 Q73.419 -32.505 73.419 -35.23 Q73.419 -37.411 73.267 -39.617 Q73.115 -41.822 72.812 -44.027 H79.87 Q80.149 -41.806 80.281 -39.606 Q80.414 -37.406 80.414 -35.236 Q80.414 -32.517 80.201 -29.799 Q79.99 -27.081 79.519 -24.365 H97.974 Q98.724 -27.056 99.11 -29.781 Q99.495 -32.505 99.495 -35.23 Q99.495 -37.427 99.231 -39.636 Q98.966 -41.845 98.438 -44.027 H105.698 Q106.125 -41.806 106.308 -39.606 Q106.49 -37.406 106.49 -35.219 Q106.49 -25.576 102.83 -17.095 Q99.17 -8.614 92.882 -2.341 Q86.594 3.931 78.119 7.596 Q69.644 11.26 60.009 11.26 Z M22.059 -24.365 H40.481 Q40.014 -27.081 39.805 -29.801 Q39.595 -32.521 39.595 -35.242 Q39.595 -37.962 39.805 -40.671 Q40.014 -43.379 40.481 -46.095 H22.052 Q21.289 -43.404 20.896 -40.675 Q20.505 -37.946 20.505 -35.217 Q20.505 -32.49 20.881 -29.774 Q21.258 -27.056 22.059 -24.365 Z M50.924 3.083 Q47.721 -1.59 45.476 -6.74 Q43.231 -11.889 41.931 -17.37 H24.899 Q28.812 -9.499 35.61 -4.16 Q42.409 1.179 50.924 3.083 Z M24.899 -53.09 H41.961 Q43.303 -58.547 45.581 -63.68 Q47.861 -68.812 50.924 -73.542 Q42.456 -71.566 35.635 -66.24 Q28.812 -60.912 24.899 -53.09 Z M60 4.463 Q63.761 -0.53 66.504 -5.947 Q69.245 -11.365 70.865 -17.37 H49.159 Q50.755 -11.365 53.481 -5.896 Q56.206 -0.427 60 4.463 Z M69.076 3.083 Q77.591 1.226 84.39 -4.136 Q91.188 -9.499 95.125 -17.37 H78.061 Q76.552 -11.961 74.346 -6.804 Q72.139 -1.647 69.076 3.083 Z M79.495 -54.725 V-81.72 H106.49 V-54.725 H79.495 Z M93.221 -68.451 H102.573 V-77.802 H93.221 V-68.451 Z"/></g><g id="Thin-M" transform="matrix(1 0 0 1 802.565 1126)"><path d="M60.016 9.001 Q50.837 9.001 42.758 5.515 Q34.676 2.029 28.699 -3.946 Q22.721 -9.922 19.245 -17.982 Q15.769 -26.042 15.769 -35.207 Q15.769 -44.381 19.256 -52.465 Q22.744 -60.549 28.721 -66.529 Q34.699 -72.509 42.758 -75.985 Q50.816 -79.461 59.98 -79.461 Q61.956 -79.461 63.93 -79.282 Q65.904 -79.105 67.909 -78.777 V-74.432 Q65.904 -74.759 63.92 -74.936 Q61.936 -75.115 60 -75.115 Q55.63 -69.961 52.729 -63.996 Q49.828 -58.03 48.005 -51.576 H68.294 V-46.961 H46.89 Q46.307 -44.076 46.047 -41.12 Q45.789 -38.162 45.789 -35.206 Q45.789 -32.249 46.047 -29.316 Q46.307 -26.384 46.89 -23.499 H73.159 Q73.661 -26.384 73.936 -29.332 Q74.211 -32.281 74.211 -35.23 Q74.211 -37.171 74.096 -39.16 Q73.981 -41.15 73.75 -43.139 H78.427 Q78.61 -41.134 78.719 -39.15 Q78.828 -37.166 78.828 -35.242 Q78.828 -32.305 78.591 -29.369 Q78.356 -26.432 77.789 -23.499 H97.877 Q98.76 -26.384 99.188 -29.332 Q99.615 -32.281 99.615 -35.23 Q99.615 -37.186 99.399 -39.167 Q99.183 -41.149 98.75 -43.139 H103.581 Q103.938 -41.134 104.084 -39.15 Q104.231 -37.166 104.231 -35.206 Q104.231 -26.035 100.756 -17.967 Q97.282 -9.901 91.297 -3.935 Q85.314 2.03 77.25 5.515 Q69.185 9.001 60.016 9.001 Z M22.18 -23.499 H42.211 Q41.649 -26.432 41.415 -29.372 Q41.181 -32.314 41.181 -35.254 Q41.181 -38.195 41.415 -41.111 Q41.649 -44.027 42.211 -46.961 H22.172 Q21.265 -44.076 20.825 -41.12 Q20.385 -38.162 20.385 -35.206 Q20.385 -32.249 20.809 -29.316 Q21.234 -26.384 22.18 -23.499 Z M54.096 4.02 Q50.005 -1.014 47.328 -6.811 Q44.649 -12.61 43.185 -18.884 H23.985 Q28.188 -9.644 36.127 -3.559 Q44.068 2.525 54.096 4.02 Z M23.985 -51.576 H43.235 Q44.794 -57.802 47.539 -63.567 Q50.284 -69.334 54.096 -74.48 Q44.164 -72.84 36.175 -66.78 Q28.188 -60.72 23.985 -51.576 Z M60 4.655 Q64.211 -0.705 67.257 -6.54 Q70.302 -12.374 72.044 -18.884 H48.005 Q49.697 -12.374 52.711 -6.436 Q55.726 -0.499 60 4.655 Z M65.904 4.02 Q75.933 2.621 83.873 -3.511 Q91.812 -9.644 96.062 -18.884 H76.809 Q74.919 -12.754 72.317 -6.94 Q69.716 -1.126 65.904 4.02 Z M79.615 -54.845 V-79.461 H104.231 V-54.845 H79.615 Z M92.692 -67.922 H100.769 V-75.999 H92.692 V-67.922 Z"/></g><g id="Ultralight-M" transform="matrix(1 0 0 1 506.415 1126)"><path d="M60.021 7.645 Q51.124 7.645 43.286 4.268 Q35.45 0.889 29.654 -4.901 Q23.856 -10.692 20.491 -18.505 Q17.125 -26.317 17.125 -35.2 Q17.125 -44.094 20.505 -51.934 Q23.884 -59.774 29.677 -65.574 Q35.471 -71.374 43.281 -74.739 Q51.093 -78.105 59.972 -78.105 Q61.812 -78.105 63.656 -77.949 Q65.5 -77.792 67.375 -77.48 V-74.605 Q65.5 -74.917 63.646 -75.074 Q61.791 -75.23 60 -75.23 Q55.312 -69.917 52.273 -63.662 Q49.233 -57.409 47.312 -50.667 H68.625 V-47.48 H46.5 Q45.875 -44.48 45.594 -41.386 Q45.312 -38.292 45.312 -35.199 Q45.312 -32.105 45.594 -29.042 Q45.875 -25.98 46.5 -22.98 H73.562 Q74.094 -25.98 74.391 -29.064 Q74.688 -32.146 74.688 -35.23 Q74.688 -37.027 74.594 -38.886 Q74.5 -40.746 74.312 -42.605 H77.562 Q77.688 -40.73 77.781 -38.876 Q77.875 -37.021 77.875 -35.246 Q77.875 -32.177 77.625 -29.11 Q77.375 -26.042 76.75 -22.98 H97.82 Q98.781 -25.98 99.235 -29.064 Q99.688 -32.146 99.688 -35.23 Q99.688 -37.042 99.5 -38.886 Q99.312 -40.73 98.938 -42.605 H102.312 Q102.625 -40.73 102.75 -38.876 Q102.875 -37.021 102.875 -35.2 Q102.875 -26.31 99.513 -18.491 Q96.149 -10.674 90.347 -4.892 Q84.545 0.889 76.728 4.268 Q68.91 7.645 60.021 7.645 Z M22.253 -22.98 H43.25 Q42.629 -26.042 42.381 -29.115 Q42.134 -32.189 42.134 -35.261 Q42.134 -38.334 42.381 -41.376 Q42.629 -44.417 43.25 -47.48 H22.245 Q21.25 -44.48 20.781 -41.386 Q20.312 -38.292 20.312 -35.199 Q20.312 -32.105 20.766 -29.042 Q21.219 -25.98 22.253 -22.98 Z M56 4.583 Q51.375 -0.667 48.438 -6.855 Q45.5 -13.042 43.936 -19.792 H23.438 Q27.812 -9.73 36.438 -3.199 Q45.062 3.333 56 4.583 Z M23.438 -50.667 H44 Q45.688 -57.355 48.712 -63.5 Q51.737 -69.645 56 -75.042 Q45.188 -73.605 36.5 -67.105 Q27.812 -60.605 23.438 -50.667 Z M60 4.77 Q64.48 -0.81 67.709 -6.895 Q70.938 -12.98 72.75 -19.792 H47.312 Q49.062 -12.98 52.25 -6.761 Q55.438 -0.542 60 4.77 Z M64 4.583 Q74.938 3.458 83.562 -3.136 Q92.188 -9.73 96.625 -19.792 H76.058 Q73.938 -13.23 71.1 -7.022 Q68.263 -0.815 64 4.583 Z M79.688 -54.917 V-78.105 H102.875 V-54.917 H79.688 Z M92.375 -67.605 H99.688 V-74.917 H92.375 V-67.605 Z"/></g><g id="Bold-S" transform="matrix(1 0 0 1 2294.23 696)"><path d="M47.359 5.009 Q39.064 5.009 31.75 1.877 Q24.437 -1.257 18.9 -6.802 Q13.364 -12.349 10.232 -19.66 Q7.101 -26.971 7.101 -35.283 Q7.101 -43.604 10.233 -50.869 Q13.367 -58.133 18.912 -63.67 Q24.459 -69.206 31.753 -72.338 Q39.049 -75.469 47.342 -75.469 Q48.803 -75.469 50.094 -75.469 Q51.384 -75.469 52.715 -74.877 V-63.93 Q51.384 -64.522 49.97 -64.62 Q48.556 -64.719 47.143 -64.719 Q45.007 -60.996 43.782 -56.891 Q42.557 -52.785 41.768 -48.446 H53.997 V-42.035 H40.987 Q40.732 -40.358 40.683 -38.682 Q40.634 -37.005 40.634 -35.23 Q40.634 -33.455 40.699 -31.778 Q40.765 -30.101 40.945 -28.425 H53.583 Q53.825 -30.003 53.788 -31.613 Q53.751 -33.225 53.751 -34.934 Q53.751 -36.417 53.726 -37.901 Q53.701 -39.385 53.751 -40.901 H60.506 Q60.457 -39.372 60.457 -37.959 Q60.457 -36.545 60.457 -35.033 Q60.457 -33.356 60.457 -31.729 Q60.457 -30.101 60.358 -28.425 H75.334 Q75.695 -30.101 75.966 -31.778 Q76.237 -33.455 76.237 -35.23 Q76.237 -36.66 76.065 -38.09 Q75.892 -39.52 75.645 -40.901 H87.115 Q87.273 -39.471 87.426 -38.058 Q87.579 -36.643 87.579 -35.23 Q87.579 -26.929 84.447 -19.628 Q81.313 -12.327 75.768 -6.79 Q70.221 -1.254 62.933 1.878 Q55.645 5.009 47.359 5.009 Z M19.135 -28.425 H34.223 Q34.029 -30.2 33.981 -31.877 Q33.934 -33.553 33.934 -35.427 Q33.934 -37.104 33.981 -38.78 Q34.029 -40.457 34.223 -42.035 H19.178 Q18.788 -40.358 18.517 -38.682 Q18.246 -37.005 18.246 -35.23 Q18.246 -33.455 18.493 -31.778 Q18.74 -30.101 19.135 -28.425 Z M39.253 -7.122 Q37.428 -10.623 36.541 -14.42 Q35.653 -18.217 35.096 -22.113 H21.451 Q24.139 -16.555 28.737 -12.701 Q33.335 -8.848 39.253 -7.122 Z M21.451 -48.446 H35.104 Q35.678 -52.285 36.504 -56.11 Q37.33 -59.936 39.351 -63.338 Q33.434 -61.612 28.774 -57.741 Q24.114 -53.87 21.451 -48.446 Z M47.143 -6.037 Q49.362 -9.785 50.693 -13.779 Q52.025 -17.773 52.814 -22.113 H41.768 Q42.557 -17.872 43.74 -13.779 Q44.924 -9.686 47.143 -6.037 Z M55.131 -7.122 Q61.049 -8.848 65.758 -12.719 Q70.468 -16.59 73.13 -22.113 H59.478 Q58.928 -18.217 57.942 -14.42 Q56.956 -10.623 55.131 -7.122 Z M59.865 -47.755 V-75.469 H87.579 V-47.755 H59.865 Z M74.955 -62.845 H79.492 V-67.382 H74.955 V-62.845 Z"/></g><g id="Semibold-S" transform="matrix(1 0 0 1 1998.1 696)"><path d="M47.363 3.551 Q39.365 3.551 32.309 0.526 Q25.252 -2.499 19.929 -7.832 Q14.607 -13.164 11.583 -20.213 Q8.559 -27.264 8.559 -35.28 Q8.559 -43.303 11.584 -50.311 Q14.609 -57.318 19.942 -62.641 Q25.274 -67.963 32.309 -70.987 Q39.343 -74.011 47.342 -74.011 Q48.932 -74.011 50.415 -73.99 Q51.898 -73.968 53.358 -73.376 V-64.359 Q51.898 -64.951 50.341 -65.07 Q48.785 -65.19 47.229 -65.19 Q44.971 -61.414 43.656 -57.25 Q42.343 -53.085 41.554 -48.66 H52.883 V-42.163 H40.773 Q40.518 -40.444 40.469 -38.724 Q40.419 -37.005 40.419 -35.23 Q40.419 -33.455 40.489 -31.736 Q40.558 -30.016 40.745 -28.297 H53.84 Q54.082 -29.917 54.088 -31.571 Q54.094 -33.225 54.094 -34.934 Q54.094 -36.547 54.037 -38.158 Q53.98 -39.771 53.965 -41.416 H60.72 Q60.736 -39.758 60.768 -38.216 Q60.8 -36.674 60.8 -35.033 Q60.8 -33.356 60.779 -31.665 Q60.757 -29.973 60.616 -28.297 H75.922 Q76.295 -30.016 76.567 -31.736 Q76.838 -33.455 76.838 -35.23 Q76.838 -36.788 76.633 -38.348 Q76.427 -39.906 76.117 -41.416 H85.572 Q85.816 -39.856 85.968 -38.315 Q86.121 -36.772 86.121 -35.23 Q86.121 -27.225 83.096 -20.183 Q80.071 -13.142 74.738 -7.819 Q69.406 -2.497 62.379 0.527 Q55.352 3.551 47.363 3.551 Z M18.641 -28.297 H34.009 Q33.815 -30.114 33.767 -31.834 Q33.719 -33.553 33.719 -35.427 Q33.719 -37.104 33.767 -38.823 Q33.815 -40.543 34.009 -42.163 H18.663 Q18.273 -40.444 18.002 -38.724 Q17.731 -37.005 17.731 -35.23 Q17.731 -33.455 17.983 -31.736 Q18.236 -30.016 18.641 -28.297 Z M39.125 -6.65 Q37.386 -10.237 36.412 -14.077 Q35.439 -17.917 34.864 -21.855 H20.98 Q23.743 -16.227 28.453 -12.323 Q33.164 -8.419 39.125 -6.65 Z M20.98 -48.66 H34.871 Q35.464 -52.585 36.375 -56.431 Q37.287 -60.279 39.223 -63.81 Q33.22 -62.041 28.474 -58.127 Q23.728 -54.213 20.98 -48.66 Z M47.229 -5.566 Q49.576 -9.313 50.929 -13.393 Q52.282 -17.474 53.071 -21.855 H41.554 Q42.385 -17.529 43.633 -13.393 Q44.881 -9.257 47.229 -5.566 Z M55.389 -6.65 Q61.349 -8.419 66.123 -12.333 Q70.897 -16.247 73.645 -21.855 H59.754 Q59.186 -17.917 58.156 -14.077 Q57.128 -10.237 55.389 -6.65 Z M60.38 -48.27 V-74.011 H86.121 V-48.27 H60.38 Z M73.841 -61.731 H79.706 V-67.596 H73.841 V-61.731 Z"/></g><g id="Medium-S" transform="matrix(1 0 0 1 1701.85 696)"><path d="M47.366 2.458 Q39.59 2.458 32.727 -0.487 Q25.862 -3.432 20.701 -8.603 Q15.54 -13.775 12.596 -20.63 Q9.652 -27.484 9.652 -35.277 Q9.652 -43.079 12.597 -49.893 Q15.542 -56.708 20.713 -61.869 Q25.885 -67.03 32.725 -69.974 Q39.565 -72.918 47.342 -72.918 Q49.028 -72.918 50.656 -72.88 Q52.284 -72.843 53.84 -72.251 V-64.68 Q52.284 -65.272 50.62 -65.408 Q48.956 -65.544 47.293 -65.544 Q44.943 -61.728 43.563 -57.519 Q42.182 -53.311 41.393 -48.821 H52.046 V-42.26 H40.612 Q40.357 -40.508 40.308 -38.757 Q40.259 -37.005 40.259 -35.23 Q40.259 -33.455 40.331 -31.703 Q40.402 -29.952 40.595 -28.2 H54.034 Q54.275 -29.853 54.313 -31.538 Q54.351 -33.225 54.351 -34.934 Q54.351 -36.642 54.27 -38.351 Q54.19 -40.06 54.125 -41.801 H60.881 Q60.945 -40.048 61.002 -38.409 Q61.058 -36.771 61.058 -35.033 Q61.058 -33.356 61.02 -31.616 Q60.983 -29.877 60.809 -28.2 H76.363 Q76.745 -29.952 77.016 -31.703 Q77.287 -33.455 77.287 -35.23 Q77.287 -36.885 77.059 -38.541 Q76.83 -40.196 76.471 -41.801 H84.414 Q84.722 -40.146 84.875 -38.507 Q85.028 -36.869 85.028 -35.23 Q85.028 -27.446 82.083 -20.599 Q79.138 -13.752 73.967 -8.591 Q68.795 -3.43 61.964 -0.486 Q55.132 2.458 47.366 2.458 Z M18.27 -28.2 H33.848 Q33.654 -30.05 33.606 -31.802 Q33.558 -33.553 33.558 -35.427 Q33.558 -37.104 33.606 -38.855 Q33.654 -40.607 33.848 -42.26 H18.277 Q17.888 -40.508 17.616 -38.757 Q17.345 -37.005 17.345 -35.23 Q17.345 -33.455 17.602 -31.703 Q17.857 -29.952 18.27 -28.2 Z M39.028 -6.296 Q37.353 -9.947 36.316 -13.819 Q35.278 -17.692 34.689 -21.662 H20.625 Q23.445 -15.981 28.24 -12.039 Q33.035 -8.097 39.028 -6.296 Z M20.625 -48.821 H34.696 Q35.303 -52.81 36.278 -56.673 Q37.255 -60.536 39.127 -64.164 Q33.059 -62.363 28.248 -58.417 Q23.438 -54.471 20.625 -48.821 Z M47.293 -5.212 Q49.737 -8.959 51.106 -13.103 Q52.475 -17.248 53.264 -21.662 H41.393 Q42.257 -17.271 43.553 -13.103 Q44.849 -8.936 47.293 -5.212 Z M55.582 -6.296 Q61.575 -8.097 66.396 -12.043 Q71.218 -15.989 74.031 -21.662 H59.96 Q59.379 -17.692 58.317 -13.819 Q57.256 -9.947 55.582 -6.296 Z M60.766 -48.656 V-72.918 H85.028 V-48.656 H60.766 Z M73.004 -60.894 H79.867 V-67.757 H73.004 V-60.894 Z"/></g><g id="Regular-S" transform="matrix(1 0 0 1 1405.73 696)"><path d="M47.368 1.656 Q39.755 1.656 33.032 -1.23 Q26.311 -4.117 21.267 -9.169 Q16.224 -14.223 13.339 -20.934 Q10.454 -27.645 10.454 -35.275 Q10.454 -42.914 13.34 -49.587 Q16.227 -56.259 21.279 -61.303 Q26.333 -66.346 33.03 -69.231 Q39.727 -72.116 47.342 -72.116 Q49.098 -72.116 50.833 -72.066 Q52.567 -72.017 54.194 -71.425 V-64.916 Q52.567 -65.508 50.824 -65.656 Q49.083 -65.804 47.34 -65.804 Q44.924 -61.957 43.494 -57.716 Q42.064 -53.476 41.275 -48.939 H51.433 V-42.331 H40.493 Q40.239 -40.556 40.19 -38.78 Q40.14 -37.005 40.14 -35.23 Q40.14 -33.455 40.214 -31.679 Q40.288 -29.904 40.486 -28.129 H54.175 Q54.416 -29.806 54.478 -31.515 Q54.54 -33.225 54.54 -34.934 Q54.54 -36.713 54.441 -38.493 Q54.342 -40.273 54.244 -42.084 H61 Q61.098 -40.26 61.172 -38.551 Q61.246 -36.841 61.246 -35.033 Q61.246 -33.356 61.197 -31.581 Q61.148 -29.806 60.95 -28.129 H76.687 Q77.075 -29.904 77.347 -31.679 Q77.618 -33.455 77.618 -35.23 Q77.618 -36.956 77.371 -38.682 Q77.125 -40.408 76.73 -42.084 H83.565 Q83.92 -40.358 84.073 -38.649 Q84.226 -36.939 84.226 -35.23 Q84.226 -27.608 81.34 -20.905 Q78.453 -14.201 73.401 -9.157 Q68.347 -4.114 61.659 -1.229 Q54.972 1.656 47.368 1.656 Z M17.999 -28.129 H33.73 Q33.535 -30.003 33.488 -31.778 Q33.441 -33.553 33.441 -35.427 Q33.441 -37.104 33.488 -38.879 Q33.535 -40.654 33.73 -42.331 H17.994 Q17.605 -40.556 17.333 -38.78 Q17.062 -37.005 17.062 -35.23 Q17.062 -33.455 17.322 -31.679 Q17.58 -29.904 17.999 -28.129 Z M38.957 -6.037 Q37.33 -9.735 36.245 -13.631 Q35.16 -17.527 34.561 -21.521 H20.366 Q23.226 -15.801 28.083 -11.831 Q32.941 -7.862 38.957 -6.037 Z M20.366 -48.939 H34.568 Q35.184 -52.976 36.208 -56.85 Q37.231 -60.725 39.056 -64.423 Q32.941 -62.598 28.083 -58.629 Q23.226 -54.659 20.366 -48.939 Z M47.34 -4.952 Q49.855 -8.7 51.236 -12.891 Q52.616 -17.083 53.405 -21.521 H41.275 Q42.162 -17.083 43.494 -12.891 Q44.825 -8.7 47.34 -4.952 Z M55.723 -6.037 Q61.739 -7.862 66.597 -11.831 Q71.454 -15.801 74.314 -21.521 H60.112 Q59.52 -17.527 58.435 -13.631 Q57.35 -9.735 55.723 -6.037 Z M61.049 -48.939 V-72.116 H84.226 V-48.939 H61.049 Z M72.391 -60.281 H79.985 V-67.875 H72.391 V-60.281 Z"/></g><g id="Light-S" transform="matrix(1 0 0 1 1109.75 696)"><path d="M47.374 -0.127 Q40.131 -0.127 33.73 -2.871 Q27.328 -5.616 22.523 -10.426 Q17.717 -15.236 14.977 -21.621 Q12.237 -28.006 12.237 -35.266 Q12.237 -42.534 14.982 -48.887 Q17.727 -55.24 22.538 -60.047 Q27.349 -64.853 33.719 -67.593 Q40.09 -70.333 47.333 -70.333 Q48.909 -70.333 50.472 -70.312 Q52.036 -70.291 53.492 -69.718 V-65.144 Q52.036 -65.717 50.464 -65.836 Q48.892 -65.956 47.34 -65.956 Q44.507 -61.9 42.893 -57.279 Q41.28 -52.657 40.364 -47.744 H51.869 V-43.013 H39.982 Q39.67 -41.087 39.592 -39.132 Q39.514 -37.176 39.514 -35.22 Q39.514 -33.265 39.617 -31.32 Q39.719 -29.373 39.974 -27.447 H54.706 Q54.985 -29.274 55.075 -31.161 Q55.166 -33.047 55.166 -34.934 Q55.166 -36.524 55.096 -38.133 Q55.025 -39.741 54.983 -41.382 H59.861 Q59.884 -39.728 59.939 -38.19 Q59.995 -36.651 59.995 -35.038 Q59.995 -33.188 59.926 -31.241 Q59.857 -29.294 59.584 -27.447 H76.611 Q77.104 -29.373 77.409 -31.325 Q77.713 -33.277 77.713 -35.23 Q77.713 -36.767 77.504 -38.312 Q77.295 -39.857 76.977 -41.382 H81.896 Q82.194 -39.827 82.318 -38.288 Q82.443 -36.75 82.443 -35.221 Q82.443 -27.97 79.703 -21.593 Q76.963 -15.216 72.15 -10.415 Q67.336 -5.614 60.973 -2.87 Q54.61 -0.127 47.374 -0.127 Z M18.095 -27.447 H35.096 Q34.825 -29.491 34.759 -31.44 Q34.692 -33.389 34.692 -35.437 Q34.692 -37.287 34.759 -39.227 Q34.825 -41.166 35.096 -43.013 H18.09 Q17.586 -41.087 17.276 -39.132 Q16.967 -37.176 16.967 -35.22 Q16.967 -33.265 17.264 -31.32 Q17.561 -29.373 18.095 -27.447 Z M41.461 -5.297 Q39.131 -9.28 37.705 -13.688 Q36.279 -18.096 35.549 -22.716 H19.645 Q22.733 -15.914 28.491 -11.357 Q34.25 -6.799 41.461 -5.297 Z M19.645 -47.744 H35.573 Q36.36 -52.387 37.752 -56.761 Q39.143 -61.135 41.56 -65.163 Q34.287 -63.603 28.511 -59.056 Q22.733 -54.507 19.645 -47.744 Z M47.34 -4.8 Q50.209 -8.838 51.83 -13.359 Q53.451 -17.88 54.334 -22.716 H40.364 Q41.328 -17.88 42.887 -13.318 Q44.445 -8.757 47.34 -4.8 Z M53.219 -5.297 Q60.43 -6.762 66.189 -11.338 Q71.947 -15.914 75.054 -22.716 H59.125 Q58.23 -18.153 56.835 -13.739 Q55.438 -9.325 53.219 -5.297 Z M61.144 -49.034 V-70.333 H82.443 V-49.034 H61.144 Z M71.974 -59.864 H78.563 V-66.453 H71.974 V-59.864 Z"/></g><g id="Thin-S" transform="matrix(1 0 0 1 814.015 696)"><path d="M47.38 -1.91 Q40.505 -1.91 34.426 -4.512 Q28.346 -7.115 23.778 -11.681 Q19.209 -16.249 16.614 -22.308 Q14.02 -28.368 14.02 -35.258 Q14.02 -42.154 16.623 -48.187 Q19.227 -54.22 23.795 -58.791 Q28.364 -63.361 34.408 -65.956 Q40.452 -68.55 47.324 -68.55 Q48.72 -68.55 50.112 -68.557 Q51.505 -68.565 52.791 -68.011 V-65.372 Q51.505 -65.925 50.104 -66.016 Q48.703 -66.108 47.34 -66.108 Q44.089 -61.844 42.293 -56.842 Q40.497 -51.838 39.454 -46.549 H52.306 V-43.697 H39.47 Q39.101 -41.618 38.994 -39.483 Q38.889 -37.346 38.889 -35.211 Q38.889 -33.075 39.019 -30.959 Q39.15 -28.842 39.462 -26.763 H55.237 Q55.554 -28.743 55.673 -30.807 Q55.791 -32.871 55.791 -34.934 Q55.791 -36.335 55.75 -37.773 Q55.708 -39.211 55.723 -40.681 H58.723 Q58.67 -39.198 58.707 -37.83 Q58.743 -36.462 58.743 -35.043 Q58.743 -33.021 58.655 -30.901 Q58.568 -28.782 58.219 -26.763 H76.535 Q77.133 -28.842 77.47 -30.971 Q77.807 -33.101 77.807 -35.23 Q77.807 -36.576 77.637 -37.942 Q77.466 -39.308 77.223 -40.681 H80.227 Q80.468 -39.296 80.564 -37.928 Q80.66 -36.56 80.66 -35.211 Q80.66 -28.332 78.067 -22.283 Q75.474 -16.232 70.9 -11.672 Q66.326 -7.114 60.287 -4.512 Q54.248 -1.91 47.38 -1.91 Z M18.19 -26.763 H36.461 Q36.115 -28.979 36.03 -31.102 Q35.944 -33.225 35.944 -35.446 Q35.944 -37.471 36.03 -39.574 Q36.115 -41.678 36.461 -43.697 H18.184 Q17.567 -41.618 17.22 -39.483 Q16.873 -37.346 16.873 -35.211 Q16.873 -33.075 17.207 -30.959 Q17.542 -28.842 18.19 -26.763 Z M43.964 -4.558 Q40.933 -8.825 39.166 -13.745 Q37.398 -18.665 36.539 -23.911 H18.924 Q22.24 -16.029 28.899 -10.882 Q35.558 -5.737 43.964 -4.558 Z M18.924 -46.549 H36.578 Q37.537 -51.799 39.295 -56.672 Q41.055 -61.546 44.063 -65.902 Q35.634 -64.608 28.937 -59.482 Q22.24 -54.355 18.924 -46.549 Z M47.34 -4.648 Q50.564 -8.976 52.425 -13.826 Q54.285 -18.676 55.265 -23.911 H39.454 Q40.493 -18.676 42.28 -13.745 Q44.067 -8.813 47.34 -4.648 Z M50.716 -4.558 Q59.122 -5.661 65.781 -10.845 Q72.44 -16.029 75.793 -23.911 H58.136 Q56.941 -18.778 55.234 -13.846 Q53.527 -8.914 50.716 -4.558 Z M61.238 -49.128 V-68.55 H80.66 V-49.128 H61.238 Z M71.556 -59.446 H77.14 V-65.03 H71.556 V-59.446 Z"/></g><g id="Ultralight-S" transform="matrix(1 0 0 1 517.792 696)"><path d="M47.384 -2.98 Q40.731 -2.98 34.843 -5.497 Q28.956 -8.014 24.531 -12.435 Q20.105 -16.856 17.598 -22.72 Q15.09 -28.585 15.09 -35.252 Q15.09 -41.928 17.609 -47.768 Q20.126 -53.609 24.55 -58.037 Q28.973 -62.465 34.822 -64.972 Q40.669 -67.48 47.318 -67.48 Q48.605 -67.48 49.896 -67.505 Q51.186 -67.53 52.37 -66.987 V-65.508 Q51.186 -66.05 49.887 -66.124 Q48.59 -66.198 47.34 -66.198 Q43.839 -61.809 41.933 -56.578 Q40.028 -51.348 38.908 -45.832 H52.567 V-44.106 H39.162 Q38.76 -41.936 38.636 -39.693 Q38.513 -37.449 38.513 -35.205 Q38.513 -32.962 38.661 -30.743 Q38.809 -28.523 39.154 -26.354 H55.555 Q55.896 -28.425 56.032 -30.595 Q56.167 -32.764 56.167 -34.934 Q56.167 -36.22 56.142 -37.556 Q56.118 -38.892 56.167 -40.26 H58.041 Q57.942 -38.879 57.967 -37.614 Q57.992 -36.347 57.992 -35.046 Q57.992 -32.92 57.893 -30.697 Q57.794 -28.474 57.4 -26.354 H76.49 Q77.149 -28.523 77.507 -30.759 Q77.864 -32.994 77.864 -35.23 Q77.864 -36.463 77.716 -37.72 Q77.569 -38.978 77.371 -40.26 H79.225 Q79.433 -38.978 79.511 -37.712 Q79.59 -36.446 79.59 -35.206 Q79.59 -28.55 77.085 -22.696 Q74.579 -16.841 70.15 -12.428 Q65.72 -8.014 59.875 -5.497 Q54.03 -2.98 47.384 -2.98 Z M18.248 -26.354 H37.28 Q36.889 -28.671 36.792 -30.898 Q36.695 -33.126 36.695 -35.452 Q36.695 -37.58 36.792 -39.784 Q36.889 -41.986 37.28 -44.106 H18.242 Q17.555 -41.936 17.185 -39.693 Q16.816 -37.449 16.816 -35.205 Q16.816 -32.962 17.174 -30.743 Q17.531 -28.523 18.248 -26.354 Z M45.466 -4.114 Q42.014 -8.552 40.042 -13.779 Q38.069 -19.006 37.131 -24.628 H18.492 Q21.944 -16.097 29.144 -10.598 Q36.343 -5.1 45.466 -4.114 Z M18.492 -45.832 H37.182 Q38.242 -51.447 40.222 -56.619 Q42.202 -61.792 45.565 -66.346 Q36.442 -65.212 29.193 -59.738 Q21.944 -54.265 18.492 -45.832 Z M47.34 -4.558 Q50.776 -9.059 52.781 -14.106 Q54.786 -19.154 55.822 -24.628 H38.908 Q39.992 -19.154 41.916 -14.001 Q43.839 -8.848 47.34 -4.558 Z M49.214 -4.114 Q58.337 -5.001 65.536 -10.549 Q72.736 -16.097 76.237 -24.628 H57.544 Q56.167 -19.154 54.273 -13.911 Q52.38 -8.668 49.214 -4.114 Z M61.295 -49.185 V-67.48 H79.59 V-49.185 H61.295 Z M71.306 -59.196 H76.286 V-64.176 H71.306 V-59.196 Z"/></g></g></svg>