<svg xmlns="http://www.w3.org/2000/svg" height="40" width="40"><path d="M17.417 19.208h3.916q.625 0 1.146-.52Q23 18.167 23 17.5v-2.375q0-.625-.521-1.125t-1.146-.5h-3.375v-2.125H23V9.167h-5.583q-.584 0-1.125.521-.542.52-.542 1.145V17.5q0 .667.542 1.188.541.52 1.125.52Zm.541-1.5v-2.75h2.834v2.75ZM9.75 30.875h2.208v-7.583h2.084v5.083h2.166v-5.083H18.5v7.583h2.208v-8.167q0-.583-.5-1.125-.5-.541-1.125-.541h-7.666q-.625 0-1.146.541-.521.542-.521 1.125Zm13.208 0h2.25v-2.542h3.334q.625 0 1.166-.521.542-.52.542-1.145v-3.959q0-.583-.542-1.125-.541-.541-1.166-.541h-5.584Zm2.25-4.75v-2.833H28v2.833ZM8 36q-1.625 0-2.812-1.188Q4 33.625 4 32V8q0-1.625 1.188-2.812Q6.375 4 8 4h24q1.625 0 2.812 1.188Q36 6.375 36 8v24q0 1.625-1.188 2.812Q33.625 36 32 36Z"/></svg>