<svg xmlns="http://www.w3.org/2000/svg" height="48" width="48"><path d="M3 28q-1.2 0-2.1-.9Q0 26.2 0 25V11.5q0-.5.15-.9t.55-.85L10.45 0l1.25 1.4q.25.25.4.525.15.275.15.625v.4L10.7 10h10.8q1.05 0 1.775.725Q24 11.45 24 12.5v1.95q0 .35-.05.625t-.1.375l-4.65 11q-.3.75-.975 1.15-.675.4-1.725.4Zm34.55 20-1.25-1.4q-.25-.25-.4-.525-.15-.275-.15-.625v-.4L37.3 38H26.5q-1.05 0-1.775-.725Q24 36.55 24 35.5v-1.95q0-.35.05-.625t.1-.375l4.65-11q.3-.75.975-1.15.675-.4 1.725-.4H45q1.2 0 2.1.9.9.9.9 2.1v13.5q0 .5-.15.9t-.55.85Z"/></svg>