<svg xmlns="http://www.w3.org/2000/svg" height="40" width="40"><path d="M3.125 22.625Q2.083 22.625 1.354 21.896Q0.625 21.167 0.625 20.125V9.667Q0.625 9.333 0.729 9.042Q0.833 8.75 1.125 8.417L8.958 0.583L9.792 1.458Q9.958 1.667 10.083 1.896Q10.208 2.125 10.208 2.333V2.625L8.833 8.667H17.375Q18.292 8.667 18.938 9.292Q19.583 9.917 19.583 10.875V11.917Q19.583 12.208 19.542 12.396Q19.5 12.583 19.417 12.75L15.667 21.5Q15.417 22.042 14.958 22.333Q14.5 22.625 13.792 22.625ZM13.833 20.667 17.583 11.958V11.167Q17.583 10.958 17.438 10.813Q17.292 10.667 17.042 10.667H6.375L7.625 4.75L2.625 9.792V20.125Q2.625 20.375 2.771 20.521Q2.917 20.667 3.125 20.667ZM31.042 39.375 30.208 38.5Q30.042 38.292 29.917 38.083Q29.792 37.875 29.792 37.625V37.333L31.167 31.292H22.625Q21.708 31.292 21.062 30.667Q20.417 30.042 20.417 29.083V28.042Q20.417 27.792 20.458 27.583Q20.5 27.375 20.583 27.208L24.333 18.458Q24.542 17.917 25.021 17.625Q25.5 17.333 26.208 17.333H36.875Q37.917 17.333 38.646 18.062Q39.375 18.792 39.375 19.833V30.292Q39.375 30.667 39.271 30.958Q39.167 31.25 38.875 31.542ZM26.167 19.292 22.417 27.958V28.792Q22.417 29 22.562 29.146Q22.708 29.292 22.958 29.292H33.625L32.375 35.208L37.375 30.167V19.833Q37.375 19.625 37.229 19.458Q37.083 19.292 36.875 19.292ZM2.625 19.875V9.792V10.667Q2.625 10.667 2.625 10.813Q2.625 10.958 2.625 11.167V11.833V20.417Q2.625 20.417 2.625 20.271Q2.625 20.125 2.625 19.875ZM37.375 20.083V30.167V29.292Q37.375 29.292 37.375 29.146Q37.375 29 37.375 28.792V28.125V19.542Q37.375 19.542 37.375 19.688Q37.375 19.833 37.375 20.083Z"/></svg>