<svg xmlns="http://www.w3.org/2000/svg" height="24" width="24"><path d="M6.1 20.825q-1.375 0-2.35-.938-.975-.937-1-2.312H.25V6q0-1.175.837-2 .838-.825 2.013-.825h14.325v4.2h3.325l3 3.925v6.275h-2.375q-.025 1.375-.987 2.312-.963.938-2.338.938-1.35 0-2.312-.938-.963-.937-.988-2.312H9.425q-.025 1.35-1 2.3-.975.95-2.325.95Zm0-2.65q.275 0 .488-.2.212-.2.212-.5t-.212-.5q-.213-.2-.488-.2-.3 0-.5.2t-.2.5q0 .3.2.5t.5.2Zm-3-3.425H4q.55-.325 1.037-.475.488-.15 1.063-.15t1.05.162q.475.163 1.025.463H14.6V6H3.1Zm14.95 3.425q.3 0 .5-.2t.2-.5q0-.3-.2-.5t-.5-.2q-.3 0-.5.2t-.2.5q0 .3.2.5t.5.2Zm-.625-5.4H21.3l-1.95-2.55h-1.925Zm-8.575-2.4Z"/></svg>