<svg xmlns="http://www.w3.org/2000/svg" height="24" viewBox="0 -960 960 960" width="24"><path d="M320.96-398.2q17.17 0 29.49-12.31 12.31-12.32 12.31-29.49 0-17.17-12.31-29.49-12.32-12.31-29.49-12.31-17.18 0-29.49 12.31-12.32 12.32-12.32 29.49 0 17.17 12.32 29.49 12.31 12.31 29.49 12.31Zm159.04 0q17.17 0 29.49-12.31Q521.8-422.83 521.8-440q0-17.17-12.31-29.49Q497.17-481.8 480-481.8q-17.17 0-29.49 12.31Q438.2-457.17 438.2-440q0 17.17 12.31 29.49Q462.83-398.2 480-398.2Zm159.04 0q17.18 0 29.49-12.31 12.32-12.32 12.32-29.49 0-17.17-12.32-29.49-12.31-12.31-29.49-12.31-17.17 0-29.49 12.31-12.31 12.32-12.31 29.49 0 17.17 12.31 29.49 12.32 12.31 29.49 12.31ZM480-81.37q-74.43 0-139.74-28.35-65.3-28.35-114-77.04-48.69-48.7-77.04-114-28.35-65.31-28.35-139.74t28.35-139.74q28.35-65.3 77.04-114 48.7-48.69 114-77.04 65.31-28.35 139.74-28.35t139.74 28.35q65.3 28.35 114 77.04 48.69 48.7 77.04 114 28.35 65.31 28.35 139.74t-28.35 139.74q-28.35 65.3-77.04 114-48.7 48.69-114 77.04Q554.43-81.37 480-81.37Zm0-359.13ZM224.91-866.54l55.37 55.13-171.69 171.69-55.13-55.37 171.45-171.45Zm510.18 0 171.45 171.45-55.13 55.37-171.69-171.69 55.37-55.13ZM480-167.37q113.8 0 193.47-79.67 79.66-79.66 79.66-193.46 0-113.8-79.67-193.47Q593.8-713.63 480-713.63q-113.8 0-193.47 79.67-79.66 79.66-79.66 193.46 0 113.8 79.67 193.47Q366.2-167.37 480-167.37Z"/></svg>