<svg xmlns="http://www.w3.org/2000/svg" height="48" width="48"><path d="M16.7 38.55Q16.25 38.1 16.25 37.5Q16.25 36.9 16.7 36.4L19.45 33.65Q12.55 32.85 8.25 30.275Q3.95 27.7 3.95 23.7Q3.95 19.6 9.775 16.85Q15.6 14.1 24 14.1Q32.4 14.1 38.225 16.85Q44.05 19.6 44.05 23.7Q44.05 26.4 41.525 28.525Q39 30.65 34.65 31.9Q33.7 32.2 32.975 31.75Q32.25 31.3 32.25 30.25Q32.25 29.7 32.6 29.275Q32.95 28.85 33.45 28.7Q36.85 27.75 38.8 26.3Q40.75 24.85 40.75 23.7Q40.75 22.1 36.7 19.75Q32.65 17.4 24 17.4Q15.4 17.4 11.325 19.75Q7.25 22.1 7.25 23.7Q7.25 25.95 10.025 27.575Q12.8 29.2 19.95 30.55L16.75 27.35Q16.3 26.95 16.325 26.275Q16.35 25.6 16.75 25.2Q17.2 24.75 17.8 24.75Q18.4 24.75 18.9 25.2L24.4 30.7Q24.65 30.95 24.8 31.225Q24.95 31.5 24.95 31.85Q24.95 32.2 24.8 32.475Q24.65 32.75 24.4 33L18.9 38.55Q18.4 39 17.775 39Q17.15 39 16.7 38.55Z"/></svg>