<svg xmlns="http://www.w3.org/2000/svg" height="20" width="20"><path d="M6.812 16.333q-.312-.312-.312-.687 0-.375.312-.688l.313-.291q-3-.396-4.479-1.646t-1.479-3q0-2.25 2.531-3.49Q6.229 5.292 10 5.292q3.792 0 6.312 1.229 2.521 1.229 2.521 3.5 0 1.291-.927 2.302-.927 1.01-2.51 1.615-.813.312-1.479.01-.667-.302-.667-1.177 0-.417.271-.75t.687-.459q1.063-.333 1.542-.739.479-.406.479-.802 0-.646-1.562-1.386-1.563-.739-4.667-.739t-4.667.739q-1.562.74-1.562 1.386 0 .562.823 1.198.823.635 2.844.969l-.626-.646q-.312-.313-.312-.688 0-.375.312-.687.313-.313.698-.323.386-.011.698.302l2.167 2.187q.208.188.302.427.094.24.094.49 0 .229-.094.469-.094.239-.302.448l-2.187 2.166q-.313.313-.688.313-.375 0-.688-.313Z"/></svg>