<svg xmlns="http://www.w3.org/2000/svg" height="24" width="24"><path d="M12.1 21.125Q9.8 21.125 8.075 19.675Q6.35 18.225 6.05 15.975Q4.2 15.625 2.988 14.212Q1.775 12.8 1.775 10.925Q1.775 8.8 3.275 7.325Q4.775 5.85 6.875 5.85H9.375Q9.625 5.85 9.775 5.7Q9.925 5.55 9.925 5.325Q9.925 5.075 9.775 4.925Q9.625 4.775 9.375 4.775H7.875Q7.45 4.775 7.138 4.462Q6.825 4.15 6.825 3.725Q6.825 3.3 7.138 2.987Q7.45 2.675 7.875 2.675H9.375Q10.475 2.675 11.25 3.45Q12.025 4.225 12.025 5.325Q12.025 6.4 11.25 7.175Q10.475 7.95 9.375 7.95H6.875Q5.65 7.95 4.775 8.812Q3.9 9.675 3.9 10.9Q3.9 11.925 4.513 12.737Q5.125 13.55 6.1 13.825Q6.5 11.675 8.175 10.275Q9.85 8.875 12.05 8.875Q12.55 8.875 13.038 8.95Q13.525 9.025 13.95 9.15Q14.15 9.1 14.338 9.037Q14.525 8.975 14.738 8.938Q14.95 8.9 15.175 8.887Q15.4 8.875 15.65 8.875Q17.475 8.875 18.838 10.175Q20.2 11.475 20.2 13.375Q20.2 13.575 20.175 13.75Q20.15 13.925 20.1 14.05L21.025 14.9Q21.6 15.425 21.9 16.1Q22.2 16.775 22.2 17.525Q22.2 19.025 21.15 20.075Q20.1 21.125 18.625 21.125ZM12.1 19.025H18.625Q19.225 19.025 19.663 18.575Q20.1 18.125 20.1 17.525Q20.1 17.2 19.975 16.913Q19.85 16.625 19.625 16.425L17.775 14.75Q17.95 14.45 18.025 14.125Q18.1 13.8 18.1 13.45Q18.1 12.425 17.388 11.7Q16.675 10.975 15.65 10.975Q14.6 10.975 13.888 11.7Q13.175 12.425 13.175 13.475Q13.175 13.725 13.225 14Q13.275 14.275 13.375 14.525Q13.525 14.925 13.425 15.312Q13.325 15.7 12.975 15.9Q12.55 16.1 12.125 15.963Q11.7 15.825 11.525 15.4Q11.275 14.95 11.175 14.45Q11.075 13.95 11.075 13.425Q11.075 12.775 11.25 12.162Q11.425 11.55 11.775 11.025Q11.75 11.025 11.725 11.025Q11.7 11.025 11.675 11.025Q10.225 11.075 9.15 12.25Q8.075 13.425 8.075 15Q8.075 15.825 8.388 16.562Q8.7 17.3 9.25 17.837Q9.8 18.375 10.538 18.7Q11.275 19.025 12.1 19.025ZM16.95 17.975Q16.525 17.975 16.225 17.663Q15.925 17.35 15.925 16.925Q15.925 16.5 16.225 16.2Q16.525 15.9 16.95 15.9Q17.375 15.9 17.675 16.2Q17.975 16.5 17.975 16.925Q17.975 17.35 17.675 17.663Q17.375 17.975 16.95 17.975ZM14.1 13.95Q14.1 13.95 14.1 13.95Q14.1 13.95 14.1 13.95Q14.1 13.95 14.1 13.95Q14.1 13.95 14.1 13.95Q14.1 13.95 14.1 13.95Q14.1 13.95 14.1 13.95Q14.1 13.95 14.1 13.95Q14.1 13.95 14.1 13.95Q14.1 13.95 14.1 13.95Q14.1 13.95 14.1 13.95Q14.1 13.95 14.1 13.95Q14.1 13.95 14.1 13.95Q14.1 13.95 14.1 13.95Q14.1 13.95 14.1 13.95Q14.1 13.95 14.1 13.95Q14.1 13.95 14.1 13.95Q14.1 13.95 14.1 13.95Q14.1 13.95 14.1 13.95Z"/></svg>