<svg xmlns="http://www.w3.org/2000/svg" height="24" width="24"><path d="M11.825 14.85h2.6q.975 0 1.625-.65t.65-1.625v-1.2q0-.6-.4-1.013-.4-.412-.95-.412.55 0 .95-.413.4-.412.4-1.012v-1.2q0-.975-.65-1.625t-1.625-.65H11.8q-.325 0-.562.237-.238.238-.238.588t.238.587q.237.238.587.238h2.6q.275 0 .45.175t.175.45v1.2q0 .275-.175.45t-.45.175h-1.05q-.325 0-.563.237-.237.238-.237.588t.237.587q.238.238.588.238h1.025q.275 0 .45.175t.175.45v1.15q0 .275-.175.45t-.45.175H11.8q-.325 0-.562.238-.238.237-.238.587t.238.588q.237.237.587.237Zm-3.475 2.9q-.975 0-1.625-.65t-.65-1.625V4.525q0-.975.65-1.625t1.625-.65H19.3q.975 0 1.625.65t.65 1.625v10.95q0 .975-.65 1.625t-1.625.65ZM4.7 21.4q-.975 0-1.625-.65t-.65-1.625v-11.8q0-.325.238-.563.237-.237.587-.237t.588.237q.237.238.237.588v11.775q0 .275.175.45t.45.175h11.8q.325 0 .562.238.238.237.238.587t-.238.588q-.237.237-.587.237Z"/></svg>