<svg xmlns="http://www.w3.org/2000/svg" height="40" viewBox="0 -960 960 960" width="40"><path d="M159.63-107.33q-39.05 0-65.59-26.58Q67.5-160.5 67.5-199.54q0-39.04 26.58-65.58 26.58-26.55 65.63-26.55 39.04 0 65.58 26.58 26.54 26.59 26.54 65.63 0 39.04-26.58 65.59-26.58 26.54-65.62 26.54Zm.37-23.17q29.17 0 48.92-20.08 19.75-20.09 19.75-49.25 0-29.17-19.84-48.92Q189-268.5 159.67-268.5q-28.84 0-48.92 19.83-20.08 19.84-20.08 49.17 0 28.83 20.08 48.92Q130.83-130.5 160-130.5Zm140.17 23q4.13-6.09 7.12-12.45 2.99-6.37 6.32-10.72h111.06v-309.5q0-44.25-31.96-76.21-31.96-31.95-76.21-31.95H131.17v183q-4.84.83-11.84 2.91-7 2.09-11.33 2.92v-212h120.5v-165.33q0-65.46 45.17-110.65 45.17-45.19 110.73-45.19 47.81 0 86.46 25.5 38.64 25.5 56.47 69.34l282.04 667.16h83.3v23.17h-224v-23.17h116L506-787.5q-16.5-38-48.83-60-32.34-22-72.42-22-55.75 0-94.42 38.67-38.66 38.66-38.66 94v165.33h64.68q55 0 93.24 38.11 38.24 38.11 38.24 93.32v332.57H300.17ZM278-339.83Z"/></svg>