<svg xmlns="http://www.w3.org/2000/svg" height="40" viewBox="0 -960 960 960" width="40"><path d="M403.16-466.17q-77.83 0-128.08-50.58-50.25-50.58-50.25-128.22 0-77.3 50.12-127.58 50.11-50.28 127.75-50.28 77.3 0 128.05 50.28 50.75 50.28 50.75 127.58 0 77.64-49.92 128.22t-128.42 50.58Zm-342.33 265v-22.33q0-47.76 25.59-80.63Q112-337 141.78-351.78q50.39-25.05 122.55-43.47 72.17-18.42 138.5-18.42 66 0 137.84 17.75 71.83 17.75 123.22 42.14 29.44 15.45 55.53 48.98 26.08 33.54 26.08 81.3v22.33q0 43.58-29.38 72.79-29.37 29.21-72.62 29.21H162.17q-42.61 0-71.97-29.21-29.37-29.21-29.37-72.79Zm877.33-342q-14.66 0-23.24-5.83-8.59-5.83-16.92-17.17-19.83-29.66-31.75-61.69-11.92-32.03-11.92-66.59 0-34.22 13.92-74.63 13.92-40.42 39.42-65.92 5.66-5.67 14.17-9.42t16.84-3.75q18.15 0 30.74 13 12.58 13 12.58 31.81 0 8.64-4 16.08-4 7.45-8.67 14.45-13.66 16-19.83 36.83-6.17 20.83-6.17 41.17 0 20.66 5.89 40.48 5.89 19.81 19.11 35.85 6.34 8.33 9.5 15.84 3.17 7.51 3.17 13.96 0 21.37-13.66 33.45-13.66 12.08-29.18 12.08ZM789.92-396.5q-10.42 0-20.17-4.83-9.75-4.84-16.17-12.5-52.91-59.34-80.58-130.94t-27.67-150.58q0-78.65 31.08-152.43 31.07-73.77 83.88-133.22 6.38-6.33 14.05-9.58 7.68-3.25 16.65-3.25 18.38 0 30.86 12.66t12.48 30.73q0 8.77-3.75 16.61-3.75 7.83-8.91 14.16-41.63 47.17-64.48 104.5-22.86 57.34-22.86 120.05 0 63.05 21.75 120t64.31 103.4q5.44 6.39 9.19 13.97 3.75 7.58 3.75 16.92 0 18.59-12.49 31.46-12.5 12.87-30.92 12.87Z"/></svg>