<svg xmlns="http://www.w3.org/2000/svg" height="40" viewBox="0 -960 960 960" width="40"><path d="M480-443.526 304.628-267.218q-4.795 4.795-11.647 4.878-6.853.084-11.609-4.878-5.565-4.846-5.565-11.269t5.565-11.987l175.32-175.321Q466.91-476.013 480-476.013t23.821 10.218l175.525 175.321q4.077 4.795 4.417 11.647.34 6.853-4.417 11.609-5.564 5.564-11.987 5.564t-11.269-5.564L480-443.526Zm0-239.82L304.628-507.038q-4.795 4.794-11.647 5.134-6.853.34-11.609-5.134-5.565-4.847-5.565-11.27 0-6.423 5.565-11.987l175.32-175.321Q466.91-715.834 480-715.834t23.821 10.218l175.525 175.321q4.077 4.795 4.417 11.648.34 6.852-4.417 11.609-5.564 5.564-11.987 5.564t-11.269-5.564L480-683.346Z"/></svg>