<svg xmlns="http://www.w3.org/2000/svg" height="20" viewBox="0 -960 960 960" width="20"><path d="M159-158q-49.7 0-83.85-34.16Q41-226.32 41-276.04v-408.24Q41-734 75.15-768T159-802h642q49.7 0 83.85 34.16Q919-733.68 919-683.96v408.24Q919-226 884.85-192T801-158H159Zm0-118h642v-408H159v408Zm0 0v-408 408Zm86-108h48v-48h48v48h48v-168q0-10.2-6.9-17.1-6.9-6.9-17.1-6.9h-96q-10.2 0-17.1 6.9-6.9 6.9-6.9 17.1v168Zm48-96v-48h48v48h-48Zm196 96h48l60-192h-48l-36 116-36-116h-48l60 192Zm178 0h48v-192h-96v48h48v144Z"/></svg>