<svg xmlns="http://www.w3.org/2000/svg" height="40" viewBox="0 -960 960 960" width="40"><path d="M118.69-240q-33.75 0-57.57-23.06-23.81-23.06-23.81-56.84v-480.2q0-33.61 23.14-56.75Q83.6-880 117.21-880h642.87q33.6 0 56.75 23.15 23.14 23.14 23.14 56.75v178.08q0 14.34-9.93 24.23t-23.87 9.89q-13.95 0-23.87-9.89-9.92-9.89-9.92-24.23V-745.8L459.79-546.36q-5.2 3.23-9.97 4.56-4.77 1.34-11.18 1.34t-11.18-1.34q-4.77-1.33-9.72-4.56L104.9-745.8v425.9q0 5.39 3.46 8.85t8.85 3.46H528.1q13.7 0 23.58 9.93 9.89 9.93 9.89 23.88 0 13.94-9.89 23.86Q541.8-240 528.1-240H118.69Zm319.95-363.38 332.92-209.03H105.72l332.92 209.03ZM104.9-745.8v6.75-48.51.3-25.15 25.15-.58 48.79-6.75 438.21V-745.8ZM778-78.1q-61.69 0-103.94-43.01-42.24-43-42.24-105.4v-202.72q0-37.34 26.25-63.64 26.26-26.31 64.21-26.31 37.39 0 63.41 26.31 26.03 26.3 26.03 63.64v171.56q0 14.35-9.93 24.24-9.93 9.89-23.88 9.89t-23.86-9.89q-9.92-9.89-9.92-24.24V-430.6q0-10.61-6-18.44-6-7.83-15.95-7.83t-16.36 7.83q-6.41 7.83-6.41 18.32v205.39q0 34.11 22.57 59.11 22.58 24.99 56.54 24.99 32.63 0 54.61-24.25 21.97-24.25 21.97-58.06v-145.87q0-13.7 10.06-23.58 10.05-9.88 23.99-9.88 13.95 0 23.75 9.88 9.79 9.88 9.79 23.58v145.87q0 60.03-42.17 102.73Q838.36-78.1 778-78.1Z"/></svg>