<svg xmlns="http://www.w3.org/2000/svg" height="24" viewBox="0 -960 960 960" width="24"><path d="M428.065-305.174q-18.435 18.674-45.587 24.055-27.152 5.38-60.391.38-6.087-1.522-11.413-2.663-5.326-1.141-9.13 2.663-4.566 4.565-3.044 11.033 1.522 6.467 1.522 12.554 6.522 32.761 1.761 59.511t-22.957 45.185q-19.196 19.956-43.978 24.739-24.783 4.782-56.261.021-20.761-3.521-32.076 3.196-11.315 6.718-29.511 27.391l-63.652-60.174q35.826-39.456 56.369-51.076 20.544-11.619 53.044-9.706 21.304 0 31.956 3.804 10.653 3.804 16.739-1.522 4.566-3.804 3.044-10.652-1.522-6.848-3.044-12.935-3.478-34.521 1.403-61.652 4.88-27.13 22.315-44.804 17.674-18.435 45.087-23.815 27.413-5.381 59.652-.381 6.087 1.522 11.793 3.044 5.707 1.521 9.511-2.283 4.565-4.565 3.044-11.413-1.522-6.848-3.044-12.935-5-34.282-.358-61.413 4.641-27.13 22.076-44.804 17.674-18.435 45.206-23.815 27.533-5.381 59.772-.381 6.087 1.522 11.793 3.044 5.707 1.521 9.511-2.283 4.565-4.565 3.044-11.413-1.522-6.848-3.044-12.935-5-33.521.142-60.652 5.141-27.13 22.576-45.565 17.674-18.435 44.445-24.196 26.772-5.761 55.207-.761 9.891 1.522 16.359 3.424 6.467 1.902 10.271-1.902 4.565-4.565 3.044-11.413-1.522-6.848-3.044-12.935-6.521-32.761-1.761-59.511 4.761-26.75 22.957-45.184 19.196-19.957 43.598-24.74 24.402-4.782 55.88-.021 20.761 3.521 32.457-3.196 11.695-6.717 29.891-27.391l62.892 60.174q-35.827 39.456-56.37 51.076-20.544 11.62-53.044 9.706-21.304 0-31.956-3.804-10.652-3.804-16.739 1.522-4.565 3.804-2.663 10.652 1.902 6.848 3.424 12.935 5 33.521-.142 60.652-5.141 27.13-22.576 45.565-17.674 18.435-44.445 24.576-26.772 6.142-54.446 1.142-10.652-2.283-16.739-4.185-6.087-1.902-9.891 1.902-4.566 4.565-3.424 11.413 1.141 6.848 2.663 12.935 5 34.282.358 61.293-4.641 27.011-22.315 44.924-18.435 18.435-45.467 24.315-27.033 5.881-55.468.881-8.369-1.522-14.456-3.044-6.087-1.521-9.891 2.283-4.566 4.565-3.424 11.033 1.141 6.467 2.663 12.554 5 34.282-.022 61.293-5.022 27.011-21.696 44.685ZM240-515.217q-84.913 0-144.848-59.935Q35.217-635.087 35.217-720q0-85.152 59.555-144.967Q154.326-924.783 240-924.783q85.913 0 145.348 59.435Q444.783-805.913 444.783-720q0 85.674-59.816 145.228Q325.152-515.217 240-515.217Zm0-91.001q47.37 0 80.576-32.945 33.206-32.946 33.206-80.837 0-48.13-32.826-80.956T240-833.782q-47.891 0-80.837 33.206Q126.218-767.37 126.218-720q0 47.13 33.326 80.456T240-606.218Zm315.217 571v-369.565h369.566v369.566H555.217Zm91.001-91h187.564v-187.564H646.218v187.564ZM740-220ZM240-720Z"/></svg>