<svg xmlns="http://www.w3.org/2000/svg" height="24" width="24"><path d="M6.375 21.3Q5.675 21.3 5.175 20.8Q4.675 20.3 4.675 19.6V4.4Q4.675 3.7 5.175 3.2Q5.675 2.7 6.4 2.7H14.725L19.325 7.325V19.6Q19.325 20.3 18.825 20.8Q18.325 21.3 17.625 21.3ZM14 8.025H17.925L14 4.1ZM12 18.45Q13.45 18.45 14.438 17.425Q15.425 16.4 15.425 14.95V10.475H14.025V14.95Q14.025 15.8 13.438 16.425Q12.85 17.05 12 17.05Q11.15 17.05 10.562 16.425Q9.975 15.8 9.975 14.95V9.375Q9.975 9.075 10.163 8.862Q10.35 8.65 10.65 8.65Q10.95 8.65 11.125 8.862Q11.3 9.075 11.3 9.375V14.95H12.7V9.375Q12.7 8.525 12.1 7.9Q11.5 7.275 10.65 7.275Q9.775 7.275 9.175 7.9Q8.575 8.525 8.575 9.375V14.95Q8.575 16.4 9.575 17.425Q10.575 18.45 12 18.45Z"/></svg>