<svg xmlns="http://www.w3.org/2000/svg" height="24" viewBox="0 -960 960 960" width="24"><path d="M479.91-469.04q37.57 0 64.31-26.65 26.74-26.65 26.74-64.22t-26.65-64.31q-26.65-26.74-64.22-26.74t-64.31 26.65q-26.74 26.65-26.74 64.22t26.65 64.31q26.65 26.74 64.22 26.74ZM480-43.65Q298.8-193.37 211.73-316.63q-87.08-123.26-87.08-238.85 0-152.52 104.5-256.69 104.49-104.18 250.86-104.18 22.51 0 44.25 2.88 21.73 2.88 43.59 8.4v212.14h121.76v121.76h145.22q-.24 3.8.14 7.76t.38 7.93q0 115.59-87.08 238.85Q661.2-193.37 480-43.65Zm249.61-567.52v-121.76H607.85v-109.59h121.76v-121.76H839.2v121.76h121.52v109.59H839.2v121.76H729.61Z"/></svg>