<svg xmlns="http://www.w3.org/2000/svg" height="20" width="20"><path d="M12.25 12.188q.104 0 .198-.094.094-.094.094-.219v-1.75l2 2.021q.041.042.083.042h.083q.23 0 .302-.167.073-.167-.072-.333l-1.73-1.73 1.771-1.666q.146-.146.083-.323-.062-.177-.312-.177-.062 0-.115.031l-.052.031-2.041 1.979V8.062q0-.104-.084-.187-.083-.083-.208-.083-.125 0-.219.093-.093.094-.093.198v3.813q0 .125.083.208.083.084.229.084ZM6.396 8.417v3.479q0 .125.083.208.083.084.229.084.125 0 .219-.094t.094-.219V8.396q0-.229-.188-.417-.187-.187-.416-.187H4.958q-.125 0-.208.083-.083.083-.083.229 0 .125.093.219.094.094.219.094Zm2 3.771h2q.271 0 .437-.167.167-.167.167-.417V8.396q0-.25-.167-.427-.166-.177-.416-.177h-2q-.271 0-.438.177-.167.177-.167.427v3.208q0 .25.167.417.167.167.417.167Zm.021-.605V8.417h1.979v3.166Zm-3.5 5.375q-.792 0-1.334-.541-.541-.542-.541-1.334V4.917q0-.792.541-1.334.542-.541 1.334-.541h10.166q.792 0 1.334.541.541.542.541 1.334v10.166q0 .792-.541 1.334-.542.541-1.334.541Zm0-1.208h10.166q.292 0 .479-.188.188-.187.188-.479V4.917q0-.292-.188-.479-.187-.188-.479-.188H4.917q-.292 0-.479.188-.188.187-.188.479v10.166q0 .292.188.479.187.188.479.188ZM4.25 4.25v11.5-11.5Z"/></svg>