<svg xmlns="http://www.w3.org/2000/svg" height="24" width="24"><path d="M3 6V3.625q0-.7.463-1.163Q3.925 2 4.625 2H7v1H4.625q-.25 0-.437.188Q4 3.375 4 3.625V6Zm4 14H4.625q-.7 0-1.162-.462Q3 19.075 3 18.375V16h1v2.375q0 .25.188.437.187.188.437.188H7ZM20 6V3.625q0-.25-.188-.437Q19.625 3 19.375 3H17V2h2.375q.7 0 1.163.462.462.463.462 1.163V6Zm-6.5 2.2q-.7 0-1.2-.5t-.5-1.2q0-.7.5-1.2t1.2-.5q.7 0 1.2.5t.5 1.2q0 .7-.5 1.2t-1.2.5Zm-1.075 8.175h-3l1.025-5.325-2.95 1.225V15.5h-1v-3.9l4-1.65q.625-.275.938-.363Q11.75 9.5 12 9.5q.4 0 .725.212.325.213.55.563l1 1.6q.25.35.525.7t.65.625l-.525.85q-.45-.375-.875-.85t-.8-1.075Zm2.2 4.55q-.15 0-.262-.075-.113-.075-.163-.2-.075-.1-.075-.237 0-.138.05-.263l4-6.975q.075-.125.2-.2.125-.075.275-.075.125 0 .238.075.112.075.187.175l4 7q.075.125.063.263-.013.137-.063.237-.075.125-.2.2-.125.075-.25.075Zm4-.625q.15 0 .263-.112.112-.113.112-.263 0-.175-.112-.275-.113-.1-.263-.1-.175 0-.288.1-.112.1-.112.275 0 .15.112.263.113.112.288.112Zm-.4-2H19v-3.75h-.775Z"/></svg>