<svg xmlns="http://www.w3.org/2000/svg" height="24" viewBox="0 -960 960 960" width="24"><path d="M520.63-309 626-415.13q13.72-13.72 6.24-30.91-7.48-17.2-26.67-17.2H354.43q-19.19 0-26.67 17.2-7.48 17.19 6.24 30.91L439.37-309q16.96 17.2 40.63 17.2t40.63-17.2ZM197.83-84.65q-47.87 0-80.53-32.65-32.65-32.66-32.65-80.53v-564.34q0-47.87 32.65-80.53 32.66-32.65 80.53-32.65h564.34q47.87 0 80.53 32.65 32.65 32.66 32.65 80.53v564.34q0 47.87-32.65 80.53-32.66 32.65-80.53 32.65H197.83Zm0-449.13v335.95h564.34v-335.95H197.83Z"/></svg>