<svg xmlns="http://www.w3.org/2000/svg" version="1.1" width="3300" height="2000"><g id="Notes"><style>
    text {
      font-family: monospace;
      text-anchor: middle;
    }
    text.emphasis {
      font-weight:bold;
    }
    text.lanchor {
      text-anchor: start;
    }
  </style><rect height="2200" id="artboard" fill="white" width="3300" x="0" y="0"/><line id="" style="fill:none;stroke:black;stroke-width:0.5;" x1="263" x2="3036" y1="292" y2="292"/><text class="lanchor emphasis" transform="matrix(1 0 0 1 263 322)">Weight/Scale Variations</text><text transform="matrix(1 0 0 1 559.711 322)">Ultralight</text><text transform="matrix(1 0 0 1 856.422 322)">Thin</text><text transform="matrix(1 0 0 1 1153.13 322)">Light</text><text transform="matrix(1 0 0 1 1449.84 322)">Regular</text><text transform="matrix(1 0 0 1 1746.56 322)">Medium</text><text transform="matrix(1 0 0 1 2043.27 322)">Semibold</text><text transform="matrix(1 0 0 1 2339.98 322)">Bold</text><text transform="matrix(1 0 0 1 2636.69 322)">Heavy</text><text transform="matrix(1 0 0 1 2933.4 322)">Black</text><text id="template-version" style="text-anchor: end;" transform="matrix(1 0 0 1 3036 1933)">Template v.1.0</text><text class="lanchor" transform="matrix(1 0 0 1 263 726)">Small</text><text class="lanchor" transform="matrix(1 0 0 1 263 1156)">Medium</text><text class="lanchor" transform="matrix(1 0 0 1 263 1586)">Large</text></g><g id="Guides"><g id="H-reference" style="fill:#27AAE1;stroke:none;" transform="matrix(1 0 0 1 339 696)"><path d="M 54.9316 0 L 57.666 0 L 30.5664 -70.459 L 28.0762 -70.459 L 0.976562 0 L 3.66211 0 L 12.9395 -24.4629 L 45.7031 -24.4629 Z M 29.1992 -67.0898 L 29.4434 -67.0898 L 44.8242 -26.709 L 13.8184 -26.709 Z"/></g><line id="Baseline-S" style="fill:none;stroke:#27AAE1;opacity:1;stroke-width:0.577;" x1="263" x2="3036" y1="696" y2="696"/><line id="Capline-S" style="fill:none;stroke:#27AAE1;opacity:1;stroke-width:0.577;" x1="263" x2="3036" y1="625.541" y2="625.541"/><g id="H-reference" style="fill:#27AAE1;stroke:none;" transform="matrix(1 0 0 1 339 1126)"><path d="M 54.9316 0 L 57.666 0 L 30.5664 -70.459 L 28.0762 -70.459 L 0.976562 0 L 3.66211 0 L 12.9395 -24.4629 L 45.7031 -24.4629 Z M 29.1992 -67.0898 L 29.4434 -67.0898 L 44.8242 -26.709 L 13.8184 -26.709 Z"/></g><line id="Baseline-M" style="fill:none;stroke:#27AAE1;opacity:1;stroke-width:0.577;" x1="263" x2="3036" y1="1126" y2="1126"/><line id="Capline-M" style="fill:none;stroke:#27AAE1;opacity:1;stroke-width:0.577;" x1="263" x2="3036" y1="1055.54" y2="1055.54"/><g id="H-reference" style="fill:#27AAE1;stroke:none;" transform="matrix(1 0 0 1 339 1556)"><path d="M 54.9316 0 L 57.666 0 L 30.5664 -70.459 L 28.0762 -70.459 L 0.976562 0 L 3.66211 0 L 12.9395 -24.4629 L 45.7031 -24.4629 Z M 29.1992 -67.0898 L 29.4434 -67.0898 L 44.8242 -26.709 L 13.8184 -26.709 Z"/></g><line id="Baseline-L" style="fill:none;stroke:#27AAE1;opacity:1;stroke-width:0.577;" x1="263" x2="3036" y1="1556" y2="1556"/><line id="Capline-L" style="fill:none;stroke:#27AAE1;opacity:1;stroke-width:0.577;" x1="263" x2="3036" y1="1485.54" y2="1485.54"/><rect height="119.336" id="left-margin" style="fill:darkred;stroke:none;opacity:0.4;" width="12.4512" x="1394.06" y="1030.79"/><rect height="119.336" id="right-margin" style="fill:darkgreen;stroke:none;opacity:0.4;" width="12.4512" x="1502.5112" y="1030.79"/><rect x="1406.5112" y="1045" width="96" height="96" fill="none" stroke="blue" stroke-dasharray="5"/><rect x="1394.06" y="1030.79" width="120.9024" height="119.336" fill="none" stroke="blue"/></g><g id="Symbols"><g id="Bold-L" transform="matrix(1 0 0 1 2266 1556)"><path d="M646.6125000000001 2507.6825 V980.6450000000001 Q646.6125000000001 919.37 689.34375 876.6387500000001 Q732.075 833.9075 794.9625 833.9075 Q856.2375000000001 833.9075 898.96875 876.6387500000001 Q941.7 919.37 941.7 980.6450000000001 V2507.6825 Q941.7 2570.57 898.96875 2613.30125 Q856.2375000000001 2656.0325 794.9625 2656.0325 Q732.075 2656.0325 689.34375 2613.30125 Q646.6125000000001 2570.57 646.6125000000001 2507.6825 Z M1523.8125 2520.5825 Q1448.025 2565.7325 1374.65625 2525.42 Q1301.2875000000001 2485.1075 1301.2875000000001 2399.645 V1090.295 Q1301.2875000000001 1004.8325000000001 1374.65625 964.5200000000001 Q1448.025 924.2075000000001 1523.8125 967.745 L2609.025 1615.9700000000003 Q2681.5875 1659.5075000000002 2681.5875 1744.9700000000003 Q2681.5875 1830.4325 2609.025 1873.9700000000003 L1523.8125 2520.5825 Z"/></g><g id="Semibold-L" transform="matrix(1 0 0 1 1970.27 1556)"><path d="M712.508925 2465.618825 V1022.708675 Q712.508925 971.24735 748.23225 935.52725 Q783.95235 899.803925 837.0261750000001 899.803925 Q888.4842750000001 899.803925 924.2076000000001 935.52725 Q959.9277 971.24735 959.9277 1022.708675 V2465.618825 Q959.9277 2518.69265 924.2076000000001 2554.41275 Q888.4842750000001 2590.136075 837.0261750000001 2590.136075 Q783.95235 2590.136075 748.23225 2554.41275 Q712.508925 2518.69265 712.508925 2465.618825 Z M1506.987675 2474.313425 Q1443.8196 2512.452275 1381.6674 2479.150925 Q1319.5152 2445.8495749999997 1319.5152 2373.0065 V1116.9335 Q1319.5152 1044.0904249999999 1381.6674 1010.789075 Q1443.8196 977.4877250000001 1506.987675 1014.0140749999999 L2534.71455 1638.4031 Q2594.657625 1674.92945 2594.657625 1744.9700000000003 Q2594.657625 1815.01055 2534.71455 1851.5369 L1506.987675 2474.313425 Z"/></g><g id="Medium-L" transform="matrix(1 0 0 1 1674.31 1556)"><path d="M761.941725 2434.0686499999997 V1054.2588500000002 Q761.941725 1010.1601999999999 792.40185 979.6968500000002 Q822.8652 949.2367250000001 868.57635 949.2367250000001 Q912.6750000000001 949.2367250000001 943.1383500000001 979.6968500000002 Q973.5984750000001 1010.1601999999999 973.5984750000001 1054.2588500000002 V2434.0686499999997 Q973.5984750000001 2479.7798 943.1383500000001 2510.24315 Q912.6750000000001 2540.703275 868.57635 2540.703275 Q822.8652 2540.703275 792.40185 2510.24315 Q761.941725 2479.7798 761.941725 2434.0686499999997 Z M1494.36825 2439.605975 Q1440.662325 2472.4880749999998 1386.92415 2444.443475 Q1333.185975 2416.4021000000002 1333.185975 2353.0244 V1136.9156000000003 Q1333.185975 1073.5378999999998 1386.92415 1045.496525 Q1440.662325 1017.451925 1494.36825 1048.721525 L2478.97365 1655.23115 Q2529.4513500000003 1686.5007500000002 2529.4513500000003 1744.9700000000003 Q2529.4513500000003 1803.43925 2478.97365 1834.70885 L1494.36825 2439.605975 Z"/></g><g id="Regular-L" transform="matrix(1 0 0 1 1378.56 1556)"><path d="M798.1875 2410.9325 V1077.395 Q798.1875 1038.6950000000002 824.79375 1012.08875 Q851.4 985.4825 891.7125 985.4825 Q930.4125 985.4825 957.0187500000001 1012.08875 Q983.625 1038.6950000000002 983.625 1077.395 V2410.9325 Q983.625 2451.245 957.0187500000001 2477.85125 Q930.4125 2504.4575 891.7125 2504.4575 Q851.4 2504.4575 824.79375 2477.85125 Q798.1875 2451.245 798.1875 2410.9325 Z M1485.1125 2414.1575 Q1438.3500000000001 2443.1825 1390.78125 2418.995 Q1343.2125 2394.8075 1343.2125 2338.37 V1151.5700000000002 Q1343.2125 1095.1325000000002 1390.78125 1070.9450000000002 Q1438.3500000000001 1046.7575000000002 1485.1125 1074.17 L2438.1 1667.5700000000002 Q2481.6375000000003 1694.9825 2481.6375000000003 1744.9700000000003 Q2481.6375000000003 1794.9575 2438.1 1822.37 L1485.1125 2414.1575 Z"/></g><g id="Light-L" transform="matrix(1 0 0 1 1082.77 1556)"><path d="M868.2732000000001 2348.9093000000003 V1138.799 Q868.2732000000001 1109.49665 888.432675 1089.3533000000002 Q908.59215 1069.2131750000003 940.1552250000001 1069.2131750000003 Q969.4866 1069.2131750000003 989.5815749999999 1089.3533000000002 Q1009.6765499999999 1109.49665 1009.6765499999999 1138.799 V2348.9093000000003 Q1009.6765499999999 2380.446575 989.517075 2400.5867 Q969.3576 2420.726825 940.026225 2420.726825 Q908.46315 2420.726825 888.3681750000001 2400.5867 Q868.2732000000001 2380.446575 868.2732000000001 2348.9093000000003 Z M1505.581575 2333.52605 Q1458.8190749999999 2361.93185 1413.11115 2338.3829 Q1367.403225 2314.8371749999997 1367.403225 2258.980175 V1230.959825 Q1367.403225 1175.102825 1413.11115 1151.5571 Q1458.8190749999999 1128.0081500000001 1505.581575 1154.1822499999998 L2337.6219 1668.8116249999998 Q2379.917775 1695.424325 2379.917775 1745.192525 Q2379.917775 1794.9575 2337.6219 1821.1283750000002 L1505.581575 2333.52605 Z"/></g><g id="Thin-L" transform="matrix(1 0 0 1 787.282 1556)"><path d="M938.349225 2286.895775 V1200.1933250000002 Q938.349225 1180.2854000000002 952.0619250000001 1166.6081750000003 Q965.7746249999999 1152.9341749999999 988.5915000000001 1152.9341749999999 Q1008.557475 1152.9341749999999 1022.13795 1166.6081750000003 Q1035.72165 1180.2854000000002 1035.72165 1200.1933250000002 V2286.895775 Q1035.72165 2309.6546 1022.00895 2323.3318249999998 Q1008.29625 2337.0058249999997 988.330275 2337.0058249999997 Q965.5134 2337.0058249999997 951.9329250000001 2323.3318249999998 Q938.349225 2309.6546 938.349225 2286.895775 Z M1526.0442 2252.9075 Q1479.2817 2280.6940999999997 1435.4346 2257.786925 Q1391.5875 2234.876525 1391.5875 2179.60325 V1310.33675 Q1391.5875 1255.063475 1435.4346 1232.1530750000002 Q1479.2817 1209.2459 1526.0442 1234.178375 L2237.159925 1670.050025 Q2278.214175 1695.8693749999998 2278.214175 1745.4118249999997 Q2278.214175 1794.9575 2237.159925 1819.889975 L1526.0442 2252.9075 Z"/></g><g id="Ultralight-L" transform="matrix(1 0 0 1 491.205 1556)"><path d="M980.4 2249.6825 V1237.0325000000003 Q980.4 1222.7618750000001 990.245925 1212.964325 Q1000.0886250000001 1203.17 1017.658425 1203.17 Q1032.0 1203.17 1041.675 1212.964325 Q1051.3500000000001 1222.7618750000001 1051.3500000000001 1237.0325000000003 V2249.6825 Q1051.3500000000001 2267.178125 1041.504075 2276.9756749999997 Q1031.661375 2286.77 1017.3165750000001 2286.77 Q999.75 2286.77 990.075 2276.9756749999997 Q980.4 2267.178125 980.4 2249.6825 Z M1538.325 2204.5325 Q1491.5625 2231.945 1448.83125 2209.4215999999997 Q1406.1000000000001 2186.8982 1406.1000000000001 2131.97 V1357.9700000000003 Q1406.1000000000001 1303.0418 1448.83125 1280.5184 Q1491.5625 1257.995 1538.325 1282.1825 L2176.875 1670.795 Q2217.1875 1696.133825 2217.1875 1745.547275 Q2217.1875 1794.9575 2176.875 1819.145 L1538.325 2204.5325 Z"/></g><g id="Bold-M" transform="matrix(1 0 0 1 2281.8 1126)"><path d="M960.0 3952.27 V1617.27 Q960.0 1494.77 1050.0 1404.77 Q1140.0 1314.77 1262.5 1314.77 Q1385.0 1314.77 1475.0 1404.77 Q1565.0 1494.77 1565.0 1617.27 V3952.27 Q1565.0 4074.77 1475.0 4164.77 Q1385.0 4254.77 1262.5 4254.77 Q1140.0 4254.77 1050.0 4164.77 Q960.0 4074.77 960.0 3952.27 Z M2390.0 3992.27 Q2237.5 4079.77 2088.75 3993.52 Q1940.0 3907.27 1940.0 3734.77 V1834.77 Q1940.0 1662.27 2088.75 1576.02 Q2237.5 1489.77 2390.0 1577.27 L4045.0 2519.77 Q4197.5 2607.27 4197.5 2784.77 Q4197.5 2962.27 4045.0 3049.77 L2390.0 3992.27 Z"/></g><g id="Semibold-M" transform="matrix(1 0 0 1 1985.97 1126)"><path d="M1096.9450000000002 3865.32 V1704.2199999999998 Q1096.9450000000002 1601.2849999999999 1171.73 1526.5 Q1246.5149999999999 1451.7150000000001 1349.4499999999998 1451.7150000000001 Q1452.3849999999998 1451.7150000000001 1527.17 1526.5 Q1601.9550000000002 1601.2849999999999 1601.9550000000002 1704.2199999999998 V3865.32 Q1601.9550000000002 3968.255 1527.17 4043.0400000000004 Q1452.3849999999998 4117.825000000001 1349.4499999999998 4117.825000000001 Q1246.5149999999999 4117.825000000001 1171.73 4043.0400000000004 Q1096.9450000000002 3968.255 1096.9450000000002 3865.32 Z M2355.22 3896.625 Q2228.8050000000003 3971.0799999999995 2102.88 3897.875 Q1976.9550000000002 3824.6650000000004 1976.9550000000002 3680.4249999999997 V1889.1150000000002 Q1976.9550000000002 1744.875 2102.88 1671.665 Q2228.8050000000003 1598.46 2355.22 1672.915 L3892.835 2565.42 Q4019.25 2639.8749999999995 4019.25 2784.77 Q4019.25 2929.6650000000004 3892.835 3004.12 L2355.22 3896.625 Z"/></g><g id="Medium-M" transform="matrix(1 0 0 1 1689.91 1126)"><path d="M1199.67 3800.0950000000003 V1769.445 Q1199.67 1681.1799999999998 1263.04 1617.81 Q1326.4099999999999 1554.44 1414.675 1554.44 Q1502.935 1554.44 1566.305 1617.81 Q1629.675 1681.1799999999998 1629.675 1769.445 V3800.0950000000003 Q1629.675 3888.3599999999997 1566.305 3951.73 Q1502.935 4015.1 1414.675 4015.1 Q1326.4099999999999 4015.1 1263.04 3951.73 Q1199.67 3888.3599999999997 1199.67 3800.0950000000003 Z M2329.13 3824.88 Q2222.285 3889.555 2113.48 3826.13 Q2004.675 3762.705 2004.675 3639.66 V1929.8799999999999 Q2004.675 1806.835 2113.48 1743.41 Q2222.285 1679.9850000000001 2329.13 1744.66 L3778.7 2599.66 Q3885.545 2664.335 3885.545 2784.77 Q3885.545 2905.205 3778.7 2969.88 L2329.13 3824.88 Z"/></g><g id="Regular-M" transform="matrix(1 0 0 1 1394.06 1126)"><path d="M1275.0 3752.27 V1817.27 Q1275.0 1739.77 1330.0 1684.77 Q1385.0 1629.77 1462.5 1629.77 Q1540.0 1629.77 1595.0 1684.77 Q1650.0 1739.77 1650.0 1817.27 V3752.27 Q1650.0 3829.77 1595.0 3884.77 Q1540.0 3939.77 1462.5 3939.77 Q1385.0 3939.77 1330.0 3884.77 Q1275.0 3829.77 1275.0 3752.27 Z M2310.0 3772.27 Q2217.5 3829.77 2121.25 3773.52 Q2025.0 3717.27 2025.0 3609.77 V1959.77 Q2025.0 1852.27 2121.25 1796.02 Q2217.5 1739.77 2310.0 1797.27 L3695.0 2624.77 Q3787.5 2682.27 3787.5 2784.77 Q3787.5 2887.27 3695.0 2944.77 L2310.0 3772.27 Z"/></g><g id="Light-M" transform="matrix(1 0 0 1 1098.18 1126)"><path d="M1383.66 3669.57 V1899.0049999999999 Q1383.66 1841.7949999999998 1424.7849999999999 1800.69 Q1465.91 1759.585 1524.1100000000001 1759.585 Q1581.35 1759.585 1622.405 1800.69 Q1663.465 1841.7949999999998 1663.465 1899.0049999999999 V3669.57 Q1663.465 3727.7450000000003 1622.3400000000001 3768.85 Q1581.215 3809.9550000000004 1523.9750000000001 3809.9550000000004 Q1465.7749999999999 3809.9550000000004 1424.72 3768.85 Q1383.66 3727.7450000000003 1383.66 3669.57 Z M2339.81 3656.8750000000005 Q2255.005 3709.57 2168.37 3658.73 Q2081.7349999999997 3607.89 2081.7349999999997 3509.765 V2059.775 Q2081.7349999999997 1961.65 2168.37 1910.8100000000002 Q2255.005 1859.97 2339.81 1911.7 L3558.4500000000003 2638.235 Q3641.335 2690.375 3641.335 2784.9750000000004 Q3641.335 2879.5750000000003 3558.4500000000003 2931.305 L2339.81 3656.8750000000005 Z"/></g><g id="Thin-M" transform="matrix(1 0 0 1 802.565 1126)"><path d="M1492.305 3586.8849999999998 V1980.73 Q1492.305 1943.805 1519.555 1916.595 Q1546.8049999999998 1889.385 1585.71 1889.385 Q1622.69 1889.385 1649.805 1916.595 Q1676.925 1943.805 1676.925 1980.73 V3586.8849999999998 Q1676.925 3625.735 1649.67 3652.945 Q1622.4199999999998 3680.155 1585.44 3680.155 Q1546.535 3680.155 1519.42 3652.945 Q1492.305 3625.735 1492.305 3586.8849999999998 Z M2369.615 3541.5 Q2292.5 3589.3849999999998 2215.48 3543.9599999999996 Q2138.46 3498.5299999999997 2138.46 3409.77 V2159.77 Q2138.46 2071.0099999999998 2215.48 2025.58 Q2292.5 1980.1550000000002 2369.615 2026.1150000000002 L3421.925 2651.695 Q3495.1949999999997 2698.48 3495.1949999999997 2785.18 Q3495.1949999999997 2871.8849999999998 3421.925 2917.845 L2369.615 3541.5 Z"/></g><g id="Ultralight-M" transform="matrix(1 0 0 1 506.415 1126)"><path d="M1557.5 3537.27 V2029.77 Q1557.5 2005.02 1576.4250000000002 1986.145 Q1595.35 1967.27 1622.6750000000002 1967.27 Q1647.5 1967.27 1666.25 1986.145 Q1685.0 2005.02 1685.0 2029.77 V3537.27 Q1685.0 3564.52 1666.0749999999998 3583.395 Q1647.15 3602.27 1622.3249999999998 3602.27 Q1595.0 3602.27 1576.25 3583.395 Q1557.5 3564.52 1557.5 3537.27 Z M2387.5 3472.27 Q2315.0 3517.27 2243.75 3475.0899999999997 Q2172.5 3432.9100000000003 2172.5 3349.77 V2219.77 Q2172.5 2136.63 2243.75 2094.45 Q2315.0 2052.27 2387.5 2094.77 L3340.0 2659.77 Q3407.5 2703.34 3407.5 2785.305 Q3407.5 2867.27 3340.0 2909.77 L2387.5 3472.27 Z"/></g><g id="Bold-S" transform="matrix(1 0 0 1 2294.23 696)"><path d="M908.928 3768.5389999999998 V1519.8890000000001 Q908.928 1411.9538 988.407126 1332.1859000000002 Q1067.890986 1252.4180000000001 1175.400126 1252.4180000000001 Q1282.914 1252.4180000000001 1363.392 1332.1859000000002 Q1443.87 1411.9538 1443.87 1519.8890000000001 V3768.5389999999998 Q1443.87 3876.4741999999997 1364.3908740000002 3956.2421 Q1284.907014 4036.0099999999998 1177.397874 4036.0099999999998 Q1069.884 4036.0099999999998 989.406 3956.2421 Q908.928 3876.4741999999997 908.928 3768.5389999999998 Z M2158.704 3796.9429999999998 Q2023.785 3875.0539999999996 1892.4165 3799.437818 Q1761.048 3723.816902 1761.048 3572.078 V1716.3500000000001 Q1761.048 1564.611098 1892.4165 1488.9901820000002 Q2023.785 1413.374 2158.704 1491.4850000000001 L3716.19 2407.5139999999997 Q3846.375 2485.288886 3846.375 2644.043576 Q3846.375 2802.803 3716.19 2880.9139999999998 L2158.704 3796.9429999999998 Z"/></g><g id="Semibold-S" transform="matrix(1 0 0 1 1998.1 696)"><path d="M1038.587526 3686.21474 V1602.21326 Q1038.587526 1512.802202 1103.665824 1447.4398640000002 Q1168.739388 1382.077526 1257.72912 1382.077526 Q1346.7141179999999 1382.077526 1412.786556 1447.4398640000002 Q1478.8589940000002 1512.802202 1478.8589940000002 1602.21326 V3686.21474 Q1478.8589940000002 3775.6257979999996 1413.78543 3840.9881359999995 Q1348.707132 3906.350474 1259.722134 3906.350474 Q1170.732402 3906.350474 1104.659964 3840.9881359999995 Q1038.587526 3775.6257979999996 1038.587526 3686.21474 Z M2125.774296 3706.386314 Q2015.552574 3772.1463079999994 1905.7947840000002 3708.876398 Q1796.036994 3645.611222 1796.036994 3520.6241539999996 V1767.8038460000002 Q1796.036994 1642.8167779999999 1905.7947840000002 1579.551602 Q2015.552574 1516.281692 2125.774296 1582.0416860000003 L3572.120178 2450.73542 Q3677.6079 2516.1593000000003 3677.6079 2644.043576 Q3677.6079 2771.932586 3572.120178 2837.69258 L2125.774296 3706.386314 Z"/></g><g id="Medium-S" transform="matrix(1 0 0 1 1701.85 696)"><path d="M1135.847556 3624.45971 V1663.96829 Q1135.847556 1588.4467880000002 1190.118132 1533.892172 Q1244.3839739999999 1479.3375560000002 1319.479416 1479.3375560000002 Q1394.574858 1479.3375560000002 1449.839574 1533.892172 Q1505.10429 1588.4467880000002 1505.10429 1663.96829 V3624.45971 Q1505.10429 3699.981212 1450.833714 3754.535828 Q1396.5678719999999 3809.090444 1321.4724299999998 3809.090444 Q1246.376988 3809.090444 1191.112272 3754.535828 Q1135.847556 3699.981212 1135.847556 3624.45971 Z M2101.0722840000003 3638.458148 Q2009.379438 3694.9584379999997 1915.830864 3640.952966 Q1822.28229 3586.94276 1822.28229 3482.0278519999997 V1806.400148 Q1822.28229 1701.4852400000002 1915.830864 1647.475034 Q2009.379438 1593.469562 2101.0722840000003 1649.9698520000002 L3464.05716 2483.1538519999995 Q3551.0160060000003 2539.3180279999997 3551.0160060000003 2644.043576 Q3551.0160060000003 2748.7738579999996 3464.05716 2805.274148 L2101.0722840000003 3638.458148 Z"/></g><g id="Regular-S" transform="matrix(1 0 0 1 1405.73 696)"><path d="M1207.17 3579.1789999999996 V1709.249 Q1207.17 1643.9198 1253.5111259999999 1597.2899000000002 Q1299.856986 1550.66 1364.760126 1550.66 Q1429.668 1550.66 1477.008 1597.2899000000002 Q1524.348 1643.9198 1524.348 1709.249 V3579.1789999999996 Q1524.348 3644.5081999999998 1478.0068740000002 3691.1380999999997 Q1431.661014 3737.768 1366.7578740000001 3737.768 Q1301.85 3737.768 1254.51 3691.1380999999997 Q1207.17 3644.5081999999998 1207.17 3579.1789999999996 Z M2082.96 3588.647 Q2004.849 3638.354 1923.1875 3591.141818 Q1841.526 3543.9249019999997 1841.526 3453.7279999999996 V1834.7 Q1841.526 1744.5030980000001 1923.1875 1697.286182 Q2004.849 1650.074 2082.96 1699.781 L3384.81 2506.928 Q3458.187 2556.2988859999996 3458.187 2644.043576 Q3458.187 2731.7929999999997 3384.81 2781.5 L2082.96 3588.647 Z"/></g><g id="Light-S" transform="matrix(1 0 0 1 1109.75 696)"><path d="M1310.0492880000002 3500.87864 V1786.635698 Q1310.0492880000002 1740.51707 1343.258298 1707.042956 Q1376.4625740000001 1673.5688420000001 1423.0972080000001 1673.5688420000001 Q1468.81818 1673.5688420000001 1502.955054 1707.042956 Q1537.096662 1740.51707 1537.096662 1786.635698 V3500.87864 Q1537.096662 3547.9109299999996 1503.887652 3581.3850439999997 Q1470.683376 3614.859158 1424.9624039999999 3614.859158 Q1378.3277699999999 3614.859158 1344.190896 3581.3850439999997 Q1310.0492880000002 3547.9109299999996 1310.0492880000002 3500.87864 Z M2111.184108 3479.3910140000003 Q2040.358734 3524.54864 1967.800716 3482.4586459999996 Q1895.2426979999998 3440.3686519999997 1895.2426979999998 3359.043266 V1929.384734 Q1895.2426979999998 1848.059348 1967.800716 1805.969354 Q2040.358734 1763.8793600000001 2111.184108 1808.1233240000001 L3255.52446 2519.676662 Q3319.797978 2563.9727 3319.797978 2644.23767 Q3319.797978 2724.507374 3255.52446 2768.751338 L2111.184108 3479.3910140000003 Z"/></g><g id="Thin-S" transform="matrix(1 0 0 1 814.015 696)"><path d="M1412.914374 3422.592482 V1864.012928 Q1412.914374 1837.100138 1432.9865340000001 1816.78181 Q1453.05396 1796.463482 1481.420088 1796.463482 Q1507.958892 1796.463482 1528.8973740000001 1816.78181 Q1549.84059 1837.100138 1549.84059 1864.012928 V3422.592482 Q1549.84059 3451.327862 1529.7684299999999 3471.6461899999995 Q1509.69627 3491.9645179999998 1483.1574659999999 3491.9645179999998 Q1454.791338 3491.9645179999998 1433.852856 3471.6461899999995 Q1412.914374 3451.327862 1412.914374 3422.592482 Z M2139.403482 3370.1539639999996 Q2075.859 3410.757482 2012.404464 3373.789676 Q1948.949928 3336.826604 1948.949928 3264.368 V2024.0600000000002 Q1948.949928 1951.6061300000001 2012.404464 1914.6383240000002 Q2075.859 1877.6705180000001 2139.403482 1916.451446 L3126.26259 2532.4205899999997 Q3181.432626 2571.6417799999995 3181.432626 2644.436498 Q3181.432626 2717.226482 3126.26259 2756.0074099999997 L2139.403482 3370.1539639999996 Z"/></g><g id="Ultralight-S" transform="matrix(1 0 0 1 517.792 696)"><path d="M1474.641 3375.6169999999997 V1910.444 Q1474.641 1895.0585 1486.83105 1882.63175 Q1499.016366 1870.2050000000002 1516.4185499999999 1870.2050000000002 Q1531.449 1870.2050000000002 1544.4675 1882.63175 Q1557.486 1895.0585 1557.486 1910.444 V3375.6169999999997 Q1557.486 3393.3695 1545.29595 3405.79625 Q1533.110634 3418.223 1518.07545 3418.223 Q1500.6779999999999 3418.223 1487.6595 3405.79625 Q1474.641 3393.3695 1474.641 3375.6169999999997 Z M2156.337 3304.607 Q2097.162 3342.479 2039.1705 3308.58356 Q1981.179 3274.692854 1981.179 3207.56 V2080.868 Q1981.179 2013.7351460000002 2039.1705 1979.84444 Q2097.162 1945.949 2156.337 1981.454 L3048.696 2540.066 Q3098.403 2576.247962 3098.403 2644.550114 Q3098.403 2712.857 3048.696 2748.3619999999996 L2156.337 3304.607 Z"/></g></g></svg>