<svg xmlns="http://www.w3.org/2000/svg" height="48" viewBox="0 -960 960 960" width="48"><path d="M479.81-197q-51.45 0-86.63-35.32Q358-267.64 358-319H191q-13.05 0-24.02-10.98Q156-340.95 156-354q0-130 88-226t219-102v-93q0-6.95 5.04-11.97 5.03-5.03 12-5.03 6.96 0 12.46 5.03 5.5 5.02 5.5 11.97v93q130 6 218 102t88 226q0 13.05-10.97 24.02Q782.05-319 769-319H602q0 52-35.38 87-35.37 35-86.81 35ZM191-354h578q0-123-84.03-208t-205-85Q359-647 275-562.09 191-477.17 191-354Zm289.25 122Q517-232 542-257.17q25-25.18 25-61.83H393q0 37 25.25 62t62 25Zm-.25-87Z"/></svg>