<svg xmlns="http://www.w3.org/2000/svg" height="40" viewBox="0 -960 960 960" width="40"><path d="M228-172q-22.58 0-39.29-16.71T172-228v-403.33q0-4.45 3.5-8.23 3.49-3.77 8.66-3.77t8.51 3.77q3.33 3.78 3.33 8.23V-228q0 14 9 23t23 9h403.33q4.45 0 8.23 3.5 3.77 3.49 3.77 8.66t-3.77 8.51q-3.78 3.33-8.23 3.33H228Zm251.87-145.33q-7.7 0-12.79-4.87-5.08-4.87-5.08-12.92t5.21-13.13q5.21-5.08 12.92-5.08 7.7 0 12.79 5.21 5.08 5.2 5.08 12.9 0 8.39-5.21 13.14t-12.92 4.75ZM335.22-752q-8.39 0-13.14-5.21t-4.75-12.92q0-7.7 4.87-12.79 4.87-5.08 12.92-5.08t13.13 5.21q5.08 5.21 5.08 12.92 0 7.7-5.21 12.79-5.2 5.08-12.9 5.08Zm144.65 0q-7.7 0-12.79-5.21-5.08-5.21-5.08-12.92 0-7.7 5.21-12.79 5.21-5.08 12.92-5.08 7.7 0 12.79 5.21 5.08 5.21 5.08 12.92 0 7.7-5.21 12.79-5.21 5.08-12.92 5.08Zm145.35 0q-8.39 0-13.14-5.21t-4.75-12.92q0-7.7 4.87-12.79 4.87-5.08 12.92-5.08t13.13 5.21q5.08 5.21 5.08 12.92 0 7.7-5.21 12.79-5.2 5.08-12.9 5.08Zm144.65 0q-7.7 0-12.79-5.21-5.08-5.21-5.08-12.92 0-7.7 5.21-12.79 5.21-5.08 12.92-5.08 7.7 0 12.79 5.21 5.08 5.21 5.08 12.92 0 7.7-5.21 12.79-5.21 5.08-12.92 5.08ZM335.22-607.33q-8.39 0-13.14-4.87t-4.75-12.92q0-8.05 4.87-13.13t12.92-5.08q8.05 0 13.13 5.21 5.08 5.2 5.08 12.9 0 8.39-5.21 13.14-5.2 4.75-12.9 4.75Zm0 145.33q-8.39 0-13.14-5.21t-4.75-12.92q0-7.7 4.87-12.79 4.87-5.08 12.92-5.08t13.13 5.21q5.08 5.21 5.08 12.92 0 7.7-5.21 12.79-5.2 5.08-12.9 5.08Zm0 144.67q-8.39 0-13.14-4.87t-4.75-12.92q0-8.05 4.87-13.13t12.92-5.08q8.05 0 13.13 5.21 5.08 5.2 5.08 12.9 0 8.39-5.21 13.14-5.2 4.75-12.9 4.75Zm290 0q-8.39 0-13.14-4.87t-4.75-12.92q0-8.05 4.87-13.13t12.92-5.08q8.05 0 13.13 5.21 5.08 5.2 5.08 12.9 0 8.39-5.21 13.14-5.2 4.75-12.9 4.75Zm144.65-290q-7.7 0-12.79-4.87-5.08-4.87-5.08-12.92t5.21-13.13q5.21-5.08 12.92-5.08 7.7 0 12.79 5.21 5.08 5.2 5.08 12.9 0 8.39-5.21 13.14t-12.92 4.75Zm0 145.33q-7.7 0-12.79-5.21-5.08-5.21-5.08-12.92 0-7.7 5.21-12.79 5.21-5.08 12.92-5.08 7.7 0 12.79 5.21 5.08 5.21 5.08 12.92 0 7.7-5.21 12.79-5.21 5.08-12.92 5.08Zm0 144.67q-7.7 0-12.79-4.87-5.08-4.87-5.08-12.92t5.21-13.13q5.21-5.08 12.92-5.08 7.7 0 12.79 5.21 5.08 5.2 5.08 12.9 0 8.39-5.21 13.14t-12.92 4.75Z"/></svg>