<svg xmlns="http://www.w3.org/2000/svg" height="20" viewBox="0 -960 960 960" width="20"><path d="M169.21-288q-24.21 0-41.71-17.35T110-347v-266q0-24.3 17.35-41.65Q144.7-672 169-672h202q24.3 0 41.65 17.29Q430-637.42 430-613.21t-17.35 41.71Q395.3-554 371-554H228v61h100q22.3 0 38.15 15.79 15.85 15.79 15.85 38T366.15-401Q350.3-385 328-385H228v37.74q0 24.26-17.29 41.76-17.29 17.5-41.5 17.5Zm396 0q-24.21 0-41.71-17.35T506-347v-266q0-24.3 17.35-41.65Q540.7-672 565-672h223q25.8 0 43.9 18.1Q850-635.8 850-610v151q0 16.95-13.5 27.97Q823-420 804-418h-37l37.91 41.43Q824-349 808-318.5T758-288q-15.48 0-29.24-7.5Q715-303 707-316l-63-89h-20v57.74q0 24.26-17.29 41.76-17.29 17.5-41.5 17.5ZM624-493h114v-61H624v61Z"/></svg>