<svg xmlns="http://www.w3.org/2000/svg" height="24" width="24"><path d="M5.675 18.85V20q0 .35-.275.6t-.65.25H4q-.375 0-.638-.25-.262-.25-.262-.6v-7.975L5.25 6q.125-.4.463-.625.337-.225.762-.225H9.2V3.275h5.625V5.15h2.75q.4 0 .725.237.325.238.45.613l2.15 6.025V20q0 .35-.262.6-.263.25-.638.25h-.75q-.375 0-.65-.25t-.275-.6v-1.15Zm-.125-8.575h12.9L17.225 6.9H6.775Zm-.7 1.75V17.1Zm2.575 3.925q.55 0 .975-.425.425-.425.425-1 0-.55-.425-.975-.425-.425-1-.425-.55 0-.975.425-.425.425-.425 1 0 .55.425.975.425.425 1 .425Zm9.175 0q.55 0 .975-.425.425-.425.425-1 0-.55-.425-.975-.425-.425-1-.425-.55 0-.975.425-.425.425-.425 1 0 .55.425.975.425.425 1 .425ZM4.85 17.1h14.3v-5.075H4.85Z"/></svg>