<svg xmlns="http://www.w3.org/2000/svg" height="48" viewBox="0 -960 960 960" width="48"><path d="M215.66-161.04q-22.23 0-38.42-16.2-16.2-16.19-16.2-38.42v-528.68q0-22.23 16.2-38.42 16.19-16.2 38.42-16.2h528.68q22.23 0 38.42 16.2 16.2 16.19 16.2 38.42v528.68q0 22.23-16.2 38.42-16.19 16.2-38.42 16.2H215.66Zm.19-30.19h528.3q9.23 0 16.93-7.69 7.69-7.7 7.69-16.93v-528.3q0-9.23-7.69-16.93-7.7-7.69-16.93-7.69h-528.3q-9.23 0-16.93 7.69-7.69 7.7-7.69 16.93v528.3q0 9.23 7.69 16.93 7.7 7.69 16.93 7.69Zm-24.62-577.54v577.54-577.54Zm124.08 107.39q-6.93 0-10.69 4.34-3.77 4.35-3.77 11.19v331.58q0 6.85 3.95 10.75 3.96 3.9 10.89 3.9 6.93 0 11.14-3.9 4.21-3.9 4.21-10.75v-331.58q0-6.84-4.4-11.19-4.4-4.34-11.33-4.34Zm329 0q-6.93 0-10.69 4.34-3.77 4.35-3.77 11.19v251.58q0 6.85 3.95 10.75 3.96 3.9 10.89 3.9 6.93 0 11.14-3.9 4.21-3.9 4.21-10.75v-251.58q0-6.84-4.4-11.19-4.4-4.34-11.33-4.34Zm-164.5 0q-6.93 0-10.69 4.34-3.77 4.35-3.77 11.19v131.58q0 6.85 3.95 10.75 3.96 3.9 10.89 3.9 6.93 0 11.14-3.9 4.21-3.9 4.21-10.75v-131.58q0-6.84-4.4-11.19-4.4-4.34-11.33-4.34Z"/></svg>