<svg xmlns="http://www.w3.org/2000/svg" height="48" width="48"><path d="M10.6 24.05q1.35-4.65 5.15-9 3.8-4.35 7.35-7.55.35-.35.9-.35t.95.35q3.5 3.2 7.3 7.55t5.2 9h-1.6q-1.1-3.3-4.05-7.175Q28.85 13 24 8.7q-4.8 4.3-7.775 8.175-2.975 3.875-4.075 7.175Zm27.45 2.6q.15.45.3.85.15.4.45 1.05l-14.35 14.3q-.55-.2-1.025-.425Q22.95 42.2 22.6 42Zm-10 .95h2.15L17.3 40.5q-.4-.25-.725-.475-.325-.225-.625-.475Zm-9.15 0h2.2l-8.55 8.5q-.25-.3-.45-.65-.2-.35-.35-.7Zm-8.85 0h2l-1.9 1.95q-.1-.45-.1-.95v-1ZM24 24.05Z"/></svg>