<svg xmlns="http://www.w3.org/2000/svg" height="40" viewBox="0 -960 960 960" width="40"><path d="M188-172q-23.85 0-39.93-16.07Q132-204.15 132-228v-422.67q0-24 16.07-40 16.08-16 39.93-16h120l57.33-63.66q7.34-8.34 18.01-13 10.67-4.67 23.33-4.67h146.66q12.66 0 23.33 4.67 10.67 4.66 18.01 13L652-706.67h120q24 0 40 16t16 40V-228q0 23.85-16 39.93Q796-172 772-172H188Zm0-24h584q14 0 23-9t9-23v-422.67q0-13.33-9-22.66-9-9.34-23-9.34H641.33l-74-81.33H392.67l-74 81.33H188q-14 0-23 9.34-9 9.33-9 22.66V-228q0 14 9 23t23 9Zm292-243.33ZM348.67-296h272q8.66 0 12.5-7.67 3.83-7.66-1.17-15l-72.67-97q-4.33-5.33-11-5.33-6.66 0-11 5.33l-90 111.67L394-364q-4.33-5-10.83-4.67-6.5.34-10.84 5.67l-34 44.33q-5.33 7.34-1.66 15 3.66 7.67 12 7.67Z"/></svg>