<svg xmlns="http://www.w3.org/2000/svg" height="40" viewBox="0 -960 960 960" width="40"><path d="M308.43-604.78q1.79-8.51 2.26-16.03.47-7.53.47-15.28 0-24.43-8.5-46.42-8.5-22-27.9-48.92-22.72-31.95-32.84-58.8-10.12-26.86-10.12-58.39 0-8.94.73-18.09.72-9.15 2.17-20.15h71.91q-1.52 8.5-1.86 16.35-.34 7.84-.34 14.46 0 24.8 8.13 46.05 8.14 21.25 27.35 48.07 22.75 31.28 32.87 58.49 10.13 27.21 10.13 58.95 0 9.42-.34 19.25-.34 9.84-2.36 20.46h-71.76Zm170.66 0q1.78-8.51 2.25-16.03.47-7.53.47-15.28 0-24.43-8.5-46.42-8.5-22-27.89-48.92-22.8-31.95-32.84-58.8-10.03-26.86-10.03-58.39 0-8.94 1.06-18.26 1.05-9.32 2.5-19.98h71.91q-1.52 8.5-2.24 16.35-.72 7.84-.72 14.46 0 24.8 8.16 46.09 8.17 21.28 27.58 48.03 22.82 31.27 32.78 58.49 9.96 27.21 9.96 58.95 0 9.42-.34 19.25-.34 9.84-2.36 20.46h-71.75Zm172.91 0q1.78-8.51 2.25-16.03.48-7.53.48-15.28 0-24.43-8.5-46.42-8.5-22-27.9-48.92-22.8-31.95-32.83-58.8-10.04-26.86-10.04-58.39 0-8.94 1.06-18.26 1.05-9.32 2.51-19.98h71.9q-1.52 8.5-2.24 16.35-.72 7.84-.72 14.46 0 24.8 8.17 46.09 8.16 21.28 27.57 48.03 22.82 31.27 32.78 58.49 9.97 27.21 9.97 58.95 0 9.42-.34 19.25-.34 9.84-2.37 20.46H652ZM364.54-242.39v-286.06h522.45v286.06H364.54Zm72.97-213.34v140.61-140.61Zm-365 342.43v-75.76h815.14v75.76H72.51Zm125.84-129.09q-52.57 0-89.21-36.77-36.63-36.77-36.63-89.29 0-52.45 36.73-89.29 36.73-36.85 89.2-36.85 52.58 0 89.34 36.85 36.76 36.85 36.76 89.38 0 52.54-36.8 89.25-36.81 36.72-89.39 36.72Zm.06-72.73q22.66 0 38-15.33 15.33-15.33 15.33-38 0-22.51-15.33-37.92-15.34-15.41-38-15.41-22.67 0-38 15.41-15.34 15.41-15.34 37.92 0 22.67 15.34 38 15.33 15.33 38 15.33Zm239.1 0h376.75v-140.61H437.51v140.61Zm-239.1-53.33Z"/></svg>