<svg xmlns="http://www.w3.org/2000/svg" version="1.1" width="3300" height="2000"><g id="Notes"><style>
    text {
      font-family: monospace;
      text-anchor: middle;
    }
    text.emphasis {
      font-weight:bold;
    }
    text.lanchor {
      text-anchor: start;
    }
  </style><rect height="2200" id="artboard" fill="white" width="3300" x="0" y="0"/><line id="" style="fill:none;stroke:black;stroke-width:0.5;" x1="263" x2="3036" y1="292" y2="292"/><text class="lanchor emphasis" transform="matrix(1 0 0 1 263 322)">Weight/Scale Variations</text><text transform="matrix(1 0 0 1 559.711 322)">Ultralight</text><text transform="matrix(1 0 0 1 856.422 322)">Thin</text><text transform="matrix(1 0 0 1 1153.13 322)">Light</text><text transform="matrix(1 0 0 1 1449.84 322)">Regular</text><text transform="matrix(1 0 0 1 1746.56 322)">Medium</text><text transform="matrix(1 0 0 1 2043.27 322)">Semibold</text><text transform="matrix(1 0 0 1 2339.98 322)">Bold</text><text transform="matrix(1 0 0 1 2636.69 322)">Heavy</text><text transform="matrix(1 0 0 1 2933.4 322)">Black</text><text id="template-version" style="text-anchor: end;" transform="matrix(1 0 0 1 3036 1933)">Template v.1.0</text><text class="lanchor" transform="matrix(1 0 0 1 263 726)">Small</text><text class="lanchor" transform="matrix(1 0 0 1 263 1156)">Medium</text><text class="lanchor" transform="matrix(1 0 0 1 263 1586)">Large</text></g><g id="Guides"><g id="H-reference" style="fill:#27AAE1;stroke:none;" transform="matrix(1 0 0 1 339 696)"><path d="M 54.9316 0 L 57.666 0 L 30.5664 -70.459 L 28.0762 -70.459 L 0.976562 0 L 3.66211 0 L 12.9395 -24.4629 L 45.7031 -24.4629 Z M 29.1992 -67.0898 L 29.4434 -67.0898 L 44.8242 -26.709 L 13.8184 -26.709 Z"/></g><line id="Baseline-S" style="fill:none;stroke:#27AAE1;opacity:1;stroke-width:0.577;" x1="263" x2="3036" y1="696" y2="696"/><line id="Capline-S" style="fill:none;stroke:#27AAE1;opacity:1;stroke-width:0.577;" x1="263" x2="3036" y1="625.541" y2="625.541"/><g id="H-reference" style="fill:#27AAE1;stroke:none;" transform="matrix(1 0 0 1 339 1126)"><path d="M 54.9316 0 L 57.666 0 L 30.5664 -70.459 L 28.0762 -70.459 L 0.976562 0 L 3.66211 0 L 12.9395 -24.4629 L 45.7031 -24.4629 Z M 29.1992 -67.0898 L 29.4434 -67.0898 L 44.8242 -26.709 L 13.8184 -26.709 Z"/></g><line id="Baseline-M" style="fill:none;stroke:#27AAE1;opacity:1;stroke-width:0.577;" x1="263" x2="3036" y1="1126" y2="1126"/><line id="Capline-M" style="fill:none;stroke:#27AAE1;opacity:1;stroke-width:0.577;" x1="263" x2="3036" y1="1055.54" y2="1055.54"/><g id="H-reference" style="fill:#27AAE1;stroke:none;" transform="matrix(1 0 0 1 339 1556)"><path d="M 54.9316 0 L 57.666 0 L 30.5664 -70.459 L 28.0762 -70.459 L 0.976562 0 L 3.66211 0 L 12.9395 -24.4629 L 45.7031 -24.4629 Z M 29.1992 -67.0898 L 29.4434 -67.0898 L 44.8242 -26.709 L 13.8184 -26.709 Z"/></g><line id="Baseline-L" style="fill:none;stroke:#27AAE1;opacity:1;stroke-width:0.577;" x1="263" x2="3036" y1="1556" y2="1556"/><line id="Capline-L" style="fill:none;stroke:#27AAE1;opacity:1;stroke-width:0.577;" x1="263" x2="3036" y1="1485.54" y2="1485.54"/><rect height="119.336" id="left-margin" style="fill:darkred;stroke:none;opacity:0.4;" width="12.4512" x="1394.06" y="1030.79"/><rect height="119.336" id="right-margin" style="fill:darkgreen;stroke:none;opacity:0.4;" width="12.4512" x="1502.5112" y="1030.79"/><rect x="1406.5112" y="1045" width="96" height="96" fill="none" stroke="blue" stroke-dasharray="5"/><rect x="1394.06" y="1030.79" width="120.9024" height="119.336" fill="none" stroke="blue"/></g><g id="Symbols"><g id="Bold-L" transform="matrix(1 0 0 1 2266 1556)"><path d="M31.041 28.061 Q27.859 28.061 25.782 25.982 Q23.704 23.904 23.704 20.563 V13.306 H17.976 Q11.852 13.306 7.538 8.99 Q3.225 4.675 3.225 -1.448 V-75.381 Q3.225 -81.504 7.542 -85.9 Q11.857 -90.297 17.979 -90.297 H136.821 Q142.943 -90.297 147.339 -85.9 Q151.736 -81.504 151.736 -75.381 V-1.448 Q151.736 4.675 147.339 8.99 Q142.943 13.306 136.821 13.306 H131.257 V20.563 Q131.257 23.904 129.098 25.982 Q126.939 28.061 123.759 28.061 H31.041 Z M43.618 -17.734 H111.414 Q113.722 -17.734 114.67 -19.765 Q115.616 -21.796 114.407 -23.701 L94.744 -49.572 Q93.501 -50.952 91.677 -51.032 Q89.853 -51.113 88.768 -49.742 L71.595 -27.49 L60.227 -41.116 Q59.017 -42.406 57.244 -42.486 Q55.47 -42.567 54.412 -41.182 L40.635 -23.701 Q39.184 -21.846 40.258 -19.79 Q41.33 -17.734 43.618 -17.734 Z"/></g><g id="Semibold-L" transform="matrix(1 0 0 1 1970.27 1556)"><path d="M30.76 25.466 Q28.07 25.466 26.343 23.739 Q24.615 22.012 24.615 19.231 V11.553 H17.346 Q12.273 11.553 8.625 7.904 Q4.978 4.254 4.978 -0.818 V-76.012 Q4.978 -81.083 8.627 -84.779 Q12.278 -88.475 17.349 -88.475 H137.451 Q142.522 -88.475 146.218 -84.779 Q149.914 -81.083 149.914 -76.012 V-0.818 Q149.914 4.254 146.218 7.904 Q142.522 11.553 137.451 11.553 H130.275 V19.231 Q130.275 22.012 128.503 23.739 Q126.73 25.466 124.04 25.466 H30.76 Z M42.356 -17.734 H112.675 Q114.563 -17.734 115.37 -19.415 Q116.177 -21.095 115.178 -22.719 L95.025 -49.431 Q93.991 -50.602 92.483 -50.647 Q90.976 -50.692 90.031 -49.533 L71.314 -25.387 L58.685 -40.554 Q57.686 -41.635 56.228 -41.68 Q54.769 -41.725 53.853 -40.551 L39.864 -22.719 Q38.623 -21.145 39.521 -19.44 Q40.419 -17.734 42.356 -17.734 Z"/></g><g id="Medium-L" transform="matrix(1 0 0 1 1674.31 1556)"><path d="M30.55 23.521 Q28.228 23.521 26.763 22.056 Q25.299 20.592 25.299 18.231 V10.239 H16.872 Q12.589 10.239 9.44 7.088 Q6.292 3.938 6.292 -0.344 V-76.486 Q6.292 -80.767 9.443 -83.937 Q12.594 -87.107 16.875 -87.107 H137.925 Q142.206 -87.107 145.377 -83.937 Q148.547 -80.767 148.547 -76.486 V-0.344 Q148.547 3.938 145.377 7.088 Q142.206 10.239 137.925 10.239 H129.54 V18.231 Q129.54 20.592 128.057 22.056 Q126.572 23.521 124.25 23.521 H30.55 Z M41.409 -17.734 H113.622 Q115.194 -17.734 115.895 -19.152 Q116.598 -20.569 115.757 -21.983 L95.236 -49.326 Q94.359 -50.339 93.088 -50.358 Q91.816 -50.376 90.977 -49.375 L71.105 -23.809 L57.528 -40.134 Q56.686 -41.056 55.465 -41.075 Q54.243 -41.095 53.432 -40.077 L39.285 -21.983 Q38.202 -20.619 38.969 -19.178 Q39.735 -17.734 41.409 -17.734 Z"/></g><g id="Regular-L" transform="matrix(1 0 0 1 1378.56 1556)"><path d="M30.396 22.094 Q28.343 22.094 27.072 20.822 Q25.8 19.551 25.8 17.499 V9.275 H16.525 Q12.819 9.275 10.038 6.49 Q7.256 3.707 7.256 0.003 V-76.832 Q7.256 -80.536 10.041 -83.32 Q12.824 -86.104 16.528 -86.104 H138.272 Q141.976 -86.104 144.759 -83.32 Q147.544 -80.536 147.544 -76.832 V0.003 Q147.544 3.707 144.759 6.49 Q141.976 9.275 138.272 9.275 H129 V17.499 Q129 19.551 127.728 20.822 Q126.455 22.094 124.404 22.094 H30.396 Z M40.716 -17.734 H114.317 Q115.657 -17.734 116.282 -18.958 Q116.906 -20.184 116.181 -21.443 L95.389 -49.249 Q94.63 -50.146 93.531 -50.146 Q92.433 -50.146 91.671 -49.259 L70.95 -22.652 L56.679 -39.826 Q55.954 -40.632 54.906 -40.632 Q53.858 -40.632 53.122 -39.73 L38.861 -21.443 Q37.894 -20.234 38.565 -18.984 Q39.234 -17.734 40.716 -17.734 Z"/></g><g id="Light-L" transform="matrix(1 0 0 1 1082.77 1556)"><path d="M31.544 17.288 Q29.491 17.288 28.266 16.062 Q27.04 14.837 27.04 12.785 V6.298 H19.223 Q15.548 6.298 12.86 3.607 Q10.172 0.916 10.172 -2.757 V-74.104 Q10.172 -77.776 12.863 -80.467 Q15.554 -83.158 19.226 -83.158 H135.574 Q139.246 -83.158 141.937 -80.467 Q144.628 -77.776 144.628 -74.104 V-2.757 Q144.628 0.916 141.937 3.607 Q139.246 6.298 135.574 6.298 H127.76 V12.785 Q127.76 14.837 126.534 16.062 Q125.309 17.288 123.256 17.288 H31.544 Z M44.128 -18.85 H110.998 Q112.277 -18.85 112.886 -20.06 Q113.494 -21.269 112.831 -22.498 L94.118 -47.482 Q93.42 -48.315 92.291 -48.348 Q91.163 -48.378 90.461 -47.553 L70.95 -22.404 L57.952 -38.182 Q57.287 -38.956 56.178 -38.942 Q55.067 -38.926 54.394 -38.087 L42.304 -22.498 Q41.367 -21.319 42.006 -20.085 Q42.646 -18.85 44.128 -18.85 Z"/></g><g id="Thin-L" transform="matrix(1 0 0 1 787.282 1556)"><path d="M32.69 12.481 Q30.639 12.481 29.46 11.302 Q28.28 10.123 28.28 8.072 V3.322 H21.92 Q18.278 3.322 15.682 0.724 Q13.085 -1.875 13.085 -5.516 V-71.374 Q13.085 -75.017 15.685 -77.615 Q18.283 -80.212 21.924 -80.212 H132.876 Q136.517 -80.212 139.115 -77.615 Q141.715 -75.017 141.715 -71.374 V-5.516 Q141.715 -1.875 139.115 0.724 Q136.517 3.322 132.876 3.322 H126.52 V8.072 Q126.52 10.123 125.34 11.302 Q124.161 12.481 122.11 12.481 H32.69 Z M47.538 -19.968 H107.681 Q108.897 -19.968 109.49 -21.161 Q110.084 -22.354 109.482 -23.552 L92.846 -45.714 Q92.211 -46.487 91.05 -46.548 Q89.89 -46.611 89.252 -45.848 L70.95 -22.156 L59.222 -36.539 Q58.621 -37.283 57.449 -37.252 Q56.276 -37.221 55.665 -36.444 L45.745 -23.552 Q44.84 -22.404 45.448 -21.185 Q46.056 -19.968 47.538 -19.968 Z"/></g><g id="Ultralight-L" transform="matrix(1 0 0 1 491.205 1556)"><path d="M33.379 9.598 Q31.326 9.598 30.176 8.446 Q29.025 7.296 29.025 5.244 V1.535 H23.539 Q19.914 1.535 17.375 -1.008 Q14.835 -3.549 14.835 -7.172 V-69.737 Q14.835 -73.361 17.378 -75.902 Q19.919 -78.445 23.543 -78.445 H131.257 Q134.881 -78.445 137.422 -75.902 Q139.965 -73.361 139.965 -69.737 V-7.172 Q139.965 -3.549 137.422 -1.008 Q134.881 1.535 131.257 1.535 H125.775 V5.244 Q125.775 7.296 124.624 8.446 Q123.472 9.598 121.421 9.598 H33.379 Z M49.584 -20.637 H105.69 Q106.868 -20.637 107.454 -21.82 Q108.038 -23.006 107.473 -24.184 L92.083 -44.653 Q91.485 -45.389 90.306 -45.469 Q89.128 -45.55 88.526 -44.824 L70.95 -22.007 L59.985 -35.552 Q59.421 -36.278 58.211 -36.238 Q57.002 -36.197 56.428 -35.457 L47.811 -24.184 Q46.924 -23.056 47.514 -21.846 Q48.102 -20.637 49.584 -20.637 Z"/></g><g id="Bold-M" transform="matrix(1 0 0 1 2281.8 1126)"><path d="M30.25 14.77 Q27.159 14.77 24.955 12.565 Q22.75 10.36 22.75 7.27 V3.02 H17.12 Q10.75 3.02 6.375 -1.359 Q2 -5.737 2 -12.105 V-63.23 Q2 -69.597 6.379 -73.976 Q10.758 -78.355 17.125 -78.355 H102.875 Q109.243 -78.355 113.621 -73.976 Q118 -69.597 118 -63.23 V-12.105 Q118 -5.737 113.621 -1.359 Q109.243 3.02 102.875 3.02 H97.25 V7.27 Q97.25 10.36 95.045 12.565 Q92.84 14.77 89.75 14.77 H30.25 Z M33.438 -20.542 H86.688 Q89.094 -20.542 90.11 -22.636 Q91.125 -24.73 89.688 -26.667 L73.625 -47.667 Q72.419 -49.105 70.615 -49.167 Q68.812 -49.23 67.625 -47.792 L55.625 -32.23 L48 -41.355 Q46.812 -42.667 45 -42.761 Q43.188 -42.855 42.125 -41.417 L30.438 -26.667 Q29 -24.792 30.02 -22.667 Q31.039 -20.542 33.438 -20.542 Z"/></g><g id="Semibold-M" transform="matrix(1 0 0 1 1985.97 1126)"><path d="M29.979 12.108 Q27.376 12.108 25.552 10.283 Q23.729 8.459 23.729 5.858 V1.173 H16.468 Q11.185 1.173 7.516 -2.5 Q3.848 -6.172 3.848 -11.452 V-63.882 Q3.848 -69.162 7.52 -72.835 Q11.193 -76.507 16.473 -76.507 H103.528 Q108.808 -76.507 112.48 -72.835 Q116.153 -69.162 116.153 -63.882 V-11.452 Q116.153 -6.172 112.48 -2.5 Q108.808 1.173 103.528 1.173 H96.271 V5.858 Q96.271 8.459 94.448 10.283 Q92.624 12.108 90.021 12.108 H29.979 Z M32.134 -20.542 H87.991 Q89.964 -20.542 90.843 -22.282 Q91.722 -24.024 90.502 -25.635 L73.951 -47.505 Q72.961 -48.725 71.43 -48.76 Q69.9 -48.795 68.929 -47.575 L55.354 -30.056 L46.424 -40.757 Q45.454 -41.906 43.94 -41.946 Q42.426 -41.985 41.528 -40.765 L29.622 -25.635 Q28.402 -24.086 29.259 -22.314 Q30.115 -20.542 32.134 -20.542 Z"/></g><g id="Medium-M" transform="matrix(1 0 0 1 1689.91 1126)"><path d="M29.775 10.11 Q27.54 10.11 26.001 8.571 Q24.462 7.031 24.462 4.798 V-0.214 H15.979 Q11.511 -0.214 8.373 -3.356 Q5.234 -6.499 5.234 -10.964 V-64.371 Q5.234 -68.836 8.376 -71.979 Q11.519 -75.121 15.984 -75.121 H104.016 Q108.481 -75.121 111.624 -71.979 Q114.766 -68.836 114.766 -64.371 V-10.964 Q114.766 -6.499 111.624 -3.356 Q108.481 -0.214 104.016 -0.214 H95.537 V4.798 Q95.537 7.031 93.999 8.571 Q92.46 10.11 90.225 10.11 H29.775 Z M31.155 -20.542 H88.97 Q90.615 -20.542 91.394 -22.017 Q92.171 -23.494 91.114 -24.86 L74.196 -47.382 Q73.369 -48.439 72.043 -48.454 Q70.715 -48.469 69.907 -47.412 L55.15 -28.426 L45.241 -40.309 Q44.435 -41.336 43.145 -41.335 Q41.856 -41.334 41.079 -40.276 L29.011 -24.86 Q27.954 -23.556 28.688 -22.049 Q29.422 -20.542 31.155 -20.542 Z"/></g><g id="Regular-M" transform="matrix(1 0 0 1 1394.06 1126)"><path d="M29.625 8.645 Q27.659 8.645 26.33 7.315 Q25 5.986 25 4.02 V-1.23 H15.62 Q11.75 -1.23 9 -3.984 Q6.25 -6.737 6.25 -10.605 V-64.73 Q6.25 -68.597 9.004 -71.351 Q11.758 -74.105 15.625 -74.105 H104.375 Q108.243 -74.105 110.996 -71.351 Q113.75 -68.597 113.75 -64.73 V-10.605 Q113.75 -6.737 110.996 -3.984 Q108.243 -1.23 104.375 -1.23 H95 V4.02 Q95 5.986 93.67 7.315 Q92.34 8.645 90.375 8.645 H29.625 Z M30.438 -20.542 H89.688 Q91.094 -20.542 91.797 -21.824 Q92.5 -23.105 91.562 -24.292 L74.375 -47.292 Q73.669 -48.23 72.49 -48.23 Q71.312 -48.23 70.625 -47.292 L55 -27.23 L44.375 -39.98 Q43.688 -40.917 42.562 -40.886 Q41.438 -40.855 40.75 -39.917 L28.562 -24.292 Q27.625 -23.167 28.27 -21.855 Q28.914 -20.542 30.438 -20.542 Z"/></g><g id="Light-M" transform="matrix(1 0 0 1 1098.18 1126)"><path d="M28.831 4.919 Q27.01 4.919 25.812 3.721 Q24.615 2.524 24.615 0.703 V-3.537 H17.038 Q13.481 -3.537 10.995 -6.027 Q8.51 -8.516 8.51 -12.071 V-63.287 Q8.51 -66.842 10.999 -69.331 Q13.489 -71.821 17.044 -71.821 H102.956 Q106.511 -71.821 109.001 -69.331 Q111.49 -66.842 111.49 -63.287 V-12.071 Q111.49 -8.516 109.001 -6.027 Q106.511 -3.537 102.956 -3.537 H95.385 V0.703 Q95.385 2.524 94.188 3.721 Q92.99 4.919 91.169 4.919 H28.831 Z M33.419 -21.745 H86.779 Q88.041 -21.745 88.66 -22.894 Q89.279 -24.042 88.485 -25.157 L73.245 -45.537 Q72.586 -46.379 71.529 -46.402 Q70.471 -46.427 69.831 -45.586 L55 -26.509 L45.216 -38.321 Q44.578 -39.139 43.549 -39.119 Q42.519 -39.1 41.88 -38.259 L31.711 -25.157 Q30.846 -24.105 31.442 -22.925 Q32.039 -21.745 33.419 -21.745 Z"/></g><g id="Thin-M" transform="matrix(1 0 0 1 802.565 1126)"><path d="M28.039 1.193 Q26.361 1.193 25.296 0.128 Q24.231 -0.937 24.231 -2.615 V-5.845 H18.456 Q15.211 -5.845 12.99 -8.07 Q10.769 -10.295 10.769 -13.537 V-61.845 Q10.769 -65.087 12.994 -67.312 Q15.219 -69.537 18.461 -69.537 H101.539 Q104.781 -69.537 107.006 -67.312 Q109.231 -65.087 109.231 -61.845 V-13.537 Q109.231 -10.295 107.006 -8.07 Q104.781 -5.845 101.539 -5.845 H95.769 V-2.615 Q95.769 -0.937 94.704 0.128 Q93.639 1.193 91.961 1.193 H28.039 Z M36.399 -22.946 H83.87 Q84.987 -22.946 85.522 -23.964 Q86.058 -24.98 85.409 -26.024 L72.115 -43.782 Q71.505 -44.527 70.567 -44.576 Q69.63 -44.624 69.039 -43.879 L55 -25.787 L46.057 -36.662 Q45.466 -37.36 44.534 -37.352 Q43.601 -37.345 43.01 -36.6 L34.86 -26.024 Q34.068 -25.042 34.616 -23.995 Q35.164 -22.946 36.399 -22.946 Z"/></g><g id="Ultralight-M" transform="matrix(1 0 0 1 506.415 1126)"><path d="M27.562 -1.042 Q25.971 -1.042 24.986 -2.029 Q24 -3.014 24 -4.605 V-7.23 H19.308 Q16.25 -7.23 14.188 -9.296 Q12.125 -11.362 12.125 -14.417 V-60.98 Q12.125 -64.035 14.191 -66.101 Q16.258 -68.167 19.312 -68.167 H100.688 Q103.743 -68.167 105.809 -66.101 Q107.875 -64.035 107.875 -60.98 V-14.417 Q107.875 -11.362 105.809 -9.296 Q103.743 -7.23 100.688 -7.23 H96 V-4.605 Q96 -3.014 95.014 -2.029 Q94.028 -1.042 92.438 -1.042 H27.562 Z M38.188 -23.667 H82.125 Q83.156 -23.667 83.641 -24.605 Q84.125 -25.542 83.562 -26.542 L71.438 -42.73 Q70.856 -43.417 69.99 -43.48 Q69.125 -43.542 68.562 -42.855 L55 -25.355 L46.562 -35.667 Q46 -36.292 45.125 -36.292 Q44.25 -36.292 43.688 -35.605 L36.75 -26.542 Q36 -25.605 36.52 -24.636 Q37.039 -23.667 38.188 -23.667 Z"/></g><g id="Bold-S" transform="matrix(1 0 0 1 2294.23 696)"><path d="M26.234 -2.881 Q24.466 -2.881 23.181 -4.167 Q21.895 -5.452 21.895 -7.22 V-8.996 H15.875 Q12.151 -8.996 9.626 -11.524 Q7.101 -14.051 7.101 -17.773 V-57.322 Q7.101 -61.044 9.629 -63.572 Q12.157 -66.1 15.879 -66.1 H78.801 Q82.523 -66.1 85.051 -63.572 Q87.579 -61.044 87.579 -57.322 V-17.773 Q87.579 -14.051 85.051 -11.524 Q82.523 -8.996 78.801 -8.996 H72.785 V-7.234 Q72.785 -5.472 71.499 -4.177 Q70.213 -2.881 68.446 -2.881 H26.234 Z M29.933 -26.206 H64.846 Q66.597 -26.206 67.324 -27.759 Q68.051 -29.312 67.016 -30.743 L56.517 -44.379 Q55.659 -45.388 54.35 -45.438 Q53.042 -45.487 52.173 -44.451 L44.48 -34.54 L39.66 -40.277 Q38.809 -41.197 37.428 -41.271 Q36.047 -41.345 35.31 -40.338 L27.763 -30.743 Q26.727 -29.362 27.464 -27.784 Q28.201 -26.206 29.933 -26.206 Z"/></g><g id="Semibold-S" transform="matrix(1 0 0 1 1998.1 696)"><path d="M26.02 -4.982 Q24.638 -4.982 23.652 -5.968 Q22.667 -6.953 22.667 -8.335 V-10.453 H15.36 Q12.494 -10.453 10.526 -12.424 Q8.559 -14.394 8.559 -17.259 V-57.837 Q8.559 -60.701 10.529 -62.671 Q12.5 -64.642 15.364 -64.642 H79.316 Q82.18 -64.642 84.151 -62.671 Q86.121 -60.701 86.121 -57.837 V-17.259 Q86.121 -14.394 84.151 -12.424 Q82.18 -10.453 79.316 -10.453 H72.013 V-8.349 Q72.013 -6.973 71.028 -5.978 Q70.042 -4.982 68.66 -4.982 H26.02 Z M28.904 -26.206 H65.875 Q67.283 -26.206 67.902 -27.48 Q68.523 -28.755 67.659 -29.928 L56.774 -44.251 Q56.087 -45.089 54.993 -45.116 Q53.899 -45.144 53.201 -44.28 L44.266 -32.825 L38.417 -39.805 Q37.737 -40.596 36.592 -40.628 Q35.447 -40.658 34.838 -39.824 L27.12 -29.928 Q26.256 -28.805 26.863 -27.505 Q27.472 -26.206 28.904 -26.206 Z"/></g><g id="Medium-S" transform="matrix(1 0 0 1 1701.85 696)"><path d="M25.859 -6.558 Q24.767 -6.558 24.006 -7.318 Q23.246 -8.08 23.246 -9.171 V-11.547 H14.974 Q12.751 -11.547 11.202 -13.1 Q9.652 -14.652 9.652 -16.873 V-58.222 Q9.652 -60.443 11.205 -61.996 Q12.757 -63.548 14.978 -63.548 H79.702 Q81.923 -63.548 83.475 -61.996 Q85.028 -60.443 85.028 -58.222 V-16.873 Q85.028 -14.652 83.475 -13.1 Q81.923 -11.547 79.702 -11.547 H71.434 V-9.185 Q71.434 -8.099 70.674 -7.328 Q69.913 -6.558 68.821 -6.558 H25.859 Z M28.132 -26.206 H66.647 Q67.797 -26.206 68.337 -27.271 Q68.877 -28.337 68.141 -29.316 L56.968 -44.155 Q56.409 -44.863 55.476 -44.875 Q54.542 -44.886 53.974 -44.152 L44.105 -31.538 L37.484 -39.451 Q36.933 -40.146 35.965 -40.145 Q34.997 -40.144 34.484 -39.437 L26.638 -29.316 Q25.902 -28.386 26.414 -27.296 Q26.925 -26.206 28.132 -26.206 Z"/></g><g id="Regular-S" transform="matrix(1 0 0 1 1405.73 696)"><path d="M25.741 -7.714 Q24.86 -7.714 24.266 -8.309 Q23.67 -8.904 23.67 -9.785 V-12.349 H14.691 Q12.94 -12.349 11.697 -13.595 Q10.454 -14.84 10.454 -16.59 V-58.505 Q10.454 -60.255 11.7 -61.501 Q12.946 -62.746 14.695 -62.746 H79.985 Q81.734 -62.746 82.98 -61.501 Q84.226 -60.255 84.226 -58.505 V-16.59 Q84.226 -14.84 82.98 -13.595 Q81.734 -12.349 79.985 -12.349 H71.01 V-9.799 Q71.01 -8.924 70.414 -8.319 Q69.819 -7.714 68.939 -7.714 H25.741 Z M27.566 -26.206 H67.213 Q68.175 -26.206 68.656 -27.118 Q69.136 -28.03 68.495 -28.869 L57.109 -44.084 Q56.645 -44.698 55.83 -44.698 Q55.014 -44.698 54.54 -44.057 L43.987 -30.595 L36.8 -39.192 Q36.343 -39.816 35.505 -39.791 Q34.667 -39.767 34.225 -39.154 L26.284 -28.869 Q25.643 -28.08 26.083 -27.143 Q26.524 -26.206 27.566 -26.206 Z"/></g><g id="Light-S" transform="matrix(1 0 0 1 1109.75 696)"><path d="M25.115 -10.654 Q24.349 -10.654 23.857 -11.145 Q23.366 -11.636 23.366 -12.402 V-14.17 H15.81 Q14.306 -14.17 13.271 -15.207 Q12.237 -16.244 12.237 -17.747 V-57.367 Q12.237 -58.87 13.274 -59.907 Q14.311 -60.944 15.815 -60.944 H78.865 Q80.369 -60.944 81.406 -59.907 Q82.443 -58.87 82.443 -57.367 V-17.747 Q82.443 -16.244 81.406 -15.207 Q80.369 -14.17 78.865 -14.17 H71.314 V-12.416 Q71.314 -11.656 70.823 -11.155 Q70.331 -10.654 69.565 -10.654 H25.115 Z M29.918 -27.155 H64.918 Q65.766 -27.155 66.18 -27.962 Q66.595 -28.77 66.067 -29.551 L56.218 -42.699 Q55.791 -43.237 55.07 -43.256 Q54.35 -43.276 53.913 -42.711 L43.987 -30.026 L37.464 -37.883 Q37.046 -38.413 36.283 -38.397 Q35.52 -38.382 35.116 -37.846 L28.768 -29.551 Q28.184 -28.819 28.587 -27.987 Q28.99 -27.155 29.918 -27.155 Z"/></g><g id="Thin-S" transform="matrix(1 0 0 1 814.015 696)"><path d="M24.49 -13.594 Q23.837 -13.594 23.45 -13.98 Q23.063 -14.367 23.063 -15.02 V-15.99 H16.929 Q15.671 -15.99 14.845 -16.819 Q14.02 -17.647 14.02 -18.904 V-56.229 Q14.02 -57.486 14.848 -58.314 Q15.676 -59.143 16.933 -59.143 H77.747 Q79.004 -59.143 79.832 -58.314 Q80.66 -57.486 80.66 -56.229 V-18.904 Q80.66 -17.647 79.832 -16.819 Q79.004 -15.99 77.747 -15.99 H71.617 V-15.034 Q71.617 -14.387 71.23 -13.99 Q70.843 -13.594 70.19 -13.594 H24.49 Z M32.269 -28.102 H62.623 Q63.357 -28.102 63.705 -28.807 Q64.053 -29.51 63.64 -30.235 L55.327 -41.315 Q54.938 -41.777 54.312 -41.815 Q53.687 -41.853 53.288 -41.363 L43.987 -29.456 L38.127 -36.575 Q37.747 -37.009 37.06 -37.003 Q36.374 -36.997 36.008 -36.538 L31.252 -30.235 Q30.726 -29.559 31.091 -28.831 Q31.455 -28.102 32.269 -28.102 Z"/></g><g id="Ultralight-S" transform="matrix(1 0 0 1 517.792 696)"><path d="M24.114 -15.357 Q23.529 -15.357 23.205 -15.682 Q22.881 -16.006 22.881 -16.59 V-17.083 H17.601 Q16.49 -17.083 15.79 -17.786 Q15.09 -18.489 15.09 -19.598 V-55.547 Q15.09 -56.655 15.793 -57.358 Q16.496 -58.062 17.605 -58.062 H77.075 Q78.184 -58.062 78.887 -57.358 Q79.59 -56.655 79.59 -55.547 V-19.598 Q79.59 -18.489 78.887 -17.786 Q78.184 -17.083 77.075 -17.083 H71.799 V-16.604 Q71.799 -16.025 71.475 -15.691 Q71.15 -15.357 70.566 -15.357 H24.114 Z M33.68 -28.671 H61.246 Q61.912 -28.671 62.221 -29.312 Q62.528 -29.954 62.183 -30.644 L54.791 -40.484 Q54.426 -40.901 53.857 -40.95 Q53.288 -41 52.912 -40.556 L43.987 -29.115 L38.526 -35.789 Q38.168 -36.167 37.527 -36.167 Q36.886 -36.167 36.543 -35.752 L32.744 -30.644 Q32.25 -30.003 32.593 -29.337 Q32.935 -28.671 33.68 -28.671 Z"/></g></g></svg>