<svg xmlns="http://www.w3.org/2000/svg" height="40" width="40"><path d="M7.458 33.333Q6.917 32.792 6.896 32.021Q6.875 31.25 7.458 30.708L14.417 23.792L19.083 28.458H14.917L10 33.333Q9.5 33.875 8.729 33.875Q7.958 33.875 7.458 33.333ZM25.167 7.667Q23.708 7.667 22.667 6.604Q21.625 5.542 21.625 4.083Q21.625 2.667 22.667 1.604Q23.708 0.542 25.167 0.542Q26.625 0.542 27.667 1.583Q28.708 2.625 28.708 4.083Q28.708 5.542 27.667 6.604Q26.625 7.667 25.167 7.667ZM26.958 27.417 20.917 21.375V16.833Q20.042 17.583 18.917 18.167Q17.792 18.75 16.792 19.167L27.958 30.333H29.833Q30.167 30.333 30.5 30.479Q30.833 30.625 31.125 30.875L34.417 34.167Q34.667 34.458 34.812 34.792Q34.958 35.125 34.958 35.5Q34.958 35.833 34.812 36.167Q34.667 36.5 34.417 36.75L31.833 39.375Q31.542 39.667 31.208 39.792Q30.875 39.917 30.5 39.917Q30.167 39.917 29.812 39.792Q29.458 39.667 29.208 39.375L25.875 36.042Q25.583 35.75 25.438 35.438Q25.292 35.125 25.292 34.75V32.958L12.375 19.958Q12.083 20 11.812 20.021Q11.542 20.042 11.292 20.042Q10.583 20 10.125 19.562Q9.667 19.125 9.667 18.417Q9.667 17.75 10.125 17.271Q10.583 16.792 11.292 16.833Q13.417 16.875 15.771 15.917Q18.125 14.958 19.5 13.458L21.917 10.708Q22.583 10 23.25 9.688Q23.917 9.375 24.875 9.375Q26.458 9.375 27.604 10.521Q28.75 11.667 28.75 13.25V23.333Q28.75 24.583 28.25 25.729Q27.75 26.875 26.958 27.417Z"/></svg>