<svg xmlns="http://www.w3.org/2000/svg" height="40" viewBox="0 -960 960 960" width="40"><path d="m253.51-78.67-34.46-34.13v-165.41H78.67v-73.71l60.54-114.13v-100.69H78.67v-67.59h349.02v67.59h-59.61v100.69l59.61 114.13v73.71H286.64v165.41l-33.13 34.13ZM152.72-345.79h200.77l-53-97.52v-110.43h-93.7v110.43l-54.07 97.52Zm100.79 0Zm474.31-307.95q-47.57 0-80.82-33.24-33.26-33.23-33.26-80.7 0-47.48 33.24-80.57 33.23-33.08 80.7-33.08 47.48 0 80.57 33.11 33.08 33.1 33.08 80.4 0 47.57-33.11 80.82-33.1 33.26-80.4 33.26Zm-189.97-81H78.67q0-27.58 19.52-47.09 19.51-19.5 47.73-19.5h390.93q-1.31 7.84-2.21 15.93-.9 8.1-.9 16.78 0 8.68 1.4 17.14 1.4 8.45 2.71 16.74Zm263.58 576.07H508.8v-67.59h293.63q5.39 0 8.85-3.46t3.46-8.85v-359.46q19.71-7.98 36.65-21.59 16.94-13.6 29.94-30.89v411.94q0 32.52-23.69 56.21-23.69 23.69-56.21 23.69Z"/></svg>