<svg xmlns="http://www.w3.org/2000/svg" height="40" width="40"><path d="M6.542 21.708V25.125Q6.542 25.125 6.542 25.125Q6.542 25.125 6.542 25.125H33.458Q33.458 25.125 33.458 25.125Q33.458 25.125 33.458 25.125V21.708ZM15.958 36.75Q14.875 37.333 13.812 36.708Q12.75 36.083 12.75 34.75V29.542H6.542Q4.667 29.542 3.396 28.25Q2.125 26.958 2.125 25.125V6.5Q2.125 4.625 3.396 3.354Q4.667 2.083 6.542 2.083H33.458Q35.333 2.083 36.625 3.354Q37.917 4.625 37.917 6.5V25.125Q37.917 26.958 36.625 28.25Q35.333 29.542 33.458 29.542H27.292V34.75Q27.292 36.083 26.208 36.708Q25.125 37.333 24.042 36.75L20 34.75ZM6.542 15.875H33.458V6.5Q33.458 6.5 33.458 6.5Q33.458 6.5 33.458 6.5H6.542Q6.542 6.5 6.542 6.5Q6.542 6.5 6.542 6.5ZM6.542 25.125V6.5Q6.542 6.5 6.542 6.5Q6.542 6.5 6.542 6.5Q6.542 6.5 6.542 6.5Q6.542 6.5 6.542 6.5V25.125Q6.542 25.125 6.542 25.125Q6.542 25.125 6.542 25.125Q6.542 25.125 6.542 25.125Q6.542 25.125 6.542 25.125Z"/></svg>