<svg xmlns="http://www.w3.org/2000/svg" height="48" viewBox="0 -960 960 960" width="48"><path d="M265.35-141.17q-34.96 0-59.07-24.11t-24.11-59.07V-525l-78.39 60.52q-14.69 9.57-31.45 8.13-16.76-1.43-26.9-15.69-11.13-13.7-9.13-31.24 2-17.55 17.27-27.11L429.78-820.3q22.26-17.83 50.22-17.83 27.96 0 50.22 17.83l378.21 290.47q13.7 10.57 14.42 27.05.72 16.48-8.85 30.74-9.57 14.26-26.83 16.48-17.26 2.21-31.52-8.92l-77.26-61.08v301.21q0 34.96-24.39 59.07t-59.35 24.11h-429.3ZM480-318.91q34.83 0 58.46-23.13 23.63-23.13 23.63-57.96 0-28.13-13.07-54.04-13.06-25.92-69.02-105.57-55.96 79.65-68.52 105.57-12.57 25.91-12.57 54.04 0 34.83 23.13 57.96 23.13 23.13 57.96 23.13Z"/></svg>