<svg xmlns="http://www.w3.org/2000/svg" height="20" viewBox="0 -960 960 960" width="20"><path d="M406.74-357.74q-20.09 0-34.54-14.46-14.46-14.45-14.46-34.54v-146.52q0-20.09 14.46-34.54 14.45-14.46 34.54-14.46h146.52q20.09 0 34.54 14.46 14.46 14.45 14.46 34.54v146.52q0 20.09-14.46 34.54-14.45 14.46-34.54 14.46H406.74Zm-279.96 142v47.44q0 20.08-14.45 34.54-14.46 14.46-34.55 14.46-20.08 0-34.54-14.46T28.78-168.3v-169.57q0-20.09 14.46-34.54 14.46-14.46 34.54-14.46h169.57q20.09 0 34.54 14.46 14.46 14.45 14.46 34.54t-14.46 34.54q-14.45 14.46-34.54 14.46h-52.83q49.31 72.35 123.72 113.39 74.41 41.04 161.76 41.04 103.74 0 188.76-55.71 85.02-55.72 128.33-148.59 10.26-21.65 27.5-33.48 17.24-11.82 38.76-5.56 21.09 6.26 29.19 25 8.11 18.74-.02 39.69-51 125.92-162.87 201.29Q617.78-36.43 480-36.43q-105.04 0-197.28-47.76-92.24-47.77-155.94-131.55ZM78.65-522.52q-22.22 0-34.04-14.96-11.83-14.96-7.13-36.04 7.87-44.48 23.24-81.52 15.37-37.05 40.97-74.66 12.27-18.52 32.35-21.08 20.09-2.57 35.05 12.39 15.39 15.39 16.74 36.54 1.34 21.15-9.79 40.24-14.34 21.65-23.45 43.24-9.11 21.59-14.42 46.98-5.82 22.65-21.06 35.76-15.24 13.11-38.46 13.11Zm361.96-361.39q0 22.65-13.11 37.67-13.11 15.02-35.2 22.41-25.95 6.87-47.54 15.98t-44.8 21.89q-19.66 10.13-41.09 8-21.44-2.13-35.83-16.52-15.52-15.52-12.95-35.11 2.56-19.59 20.65-30.85 37.17-26.17 75.35-41.76 38.17-15.58 82.65-24.02 21.52-4.69 36.69 7.7 15.18 12.39 15.18 34.61Zm295.65 90q-15.96 15.95-37.61 16.74-21.65.78-42.87-10.92-21.65-12.78-42.45-21.95-20.81-9.18-46.2-14.92-22.65-6.82-35.76-21.28t-13.11-37.67q0-22.22 15.46-34.11 15.45-11.89 36.54-8.2 43.91 8 81.52 22.81Q689.39-888.61 727-863q19.65 12.82 22.22 32.69 2.56 19.87-12.96 36.4Zm145.52 271.95q-22.65 0-38.95-14.11-16.31-14.1-22.57-36.76-6.3-24.39-14.41-44.97-8.11-20.59-20.89-41.68-11.13-19.65-10.35-41.3.78-21.65 16.17-37.05 14.96-15.52 35.33-14.02 20.37 1.5 32.07 20.59 26.17 37.61 41.26 74.72 15.08 37.1 24.08 81.02 4.7 22.65-7.41 38.11-12.11 15.45-34.33 15.45Z"/></svg>