<svg xmlns="http://www.w3.org/2000/svg" height="40" width="40"><path d="M11.875 35.292Q10.833 35.292 10.104 34.562Q9.375 33.833 9.375 32.75Q9.375 31.708 10.104 30.979Q10.833 30.25 11.875 30.25Q12.958 30.25 13.688 30.979Q14.417 31.708 14.417 32.792Q14.417 33.875 13.688 34.583Q12.958 35.292 11.875 35.292ZM27.875 35.292Q26.833 35.292 26.104 34.562Q25.375 33.833 25.375 32.75Q25.375 31.708 26.104 30.979Q26.833 30.25 27.875 30.25Q28.958 30.25 29.688 30.979Q30.417 31.708 30.417 32.792Q30.417 33.875 29.688 34.583Q28.958 35.292 27.875 35.292ZM9.458 8.708 14.042 18.292H25.167Q25.542 18.292 25.833 18.104Q26.125 17.917 26.333 17.583L30.583 9.875Q30.833 9.417 30.625 9.063Q30.417 8.708 29.917 8.708ZM8.625 6.958H30.958Q32.167 6.958 32.688 7.854Q33.208 8.75 32.625 9.708L27.708 18.625Q27.333 19.292 26.729 19.667Q26.125 20.042 25.417 20.042H13.292L11.417 23.375Q11.125 23.875 11.417 24.458Q11.708 25.042 12.333 25.042H30.458V26.792H11.792Q10.292 26.792 9.625 25.583Q8.958 24.375 9.625 23.125L12.167 18.458L5.958 5.375H2.875V3.625H7.042ZM14.042 18.292 9.458 8.708H29.917Q30.417 8.708 30.625 9.063Q30.833 9.417 30.583 9.875L25.958 18.292Z"/></svg>