<svg xmlns="http://www.w3.org/2000/svg" height="40" width="40"><path d="M29 23.333Q29.333 23.333 29.562 23.083Q29.792 22.833 29.792 22.5V20.833H31.5Q31.833 20.833 32.083 20.583Q32.333 20.333 32.333 20Q32.333 19.667 32.083 19.417Q31.833 19.167 31.5 19.167H29.833V17.458Q29.833 17.125 29.583 16.896Q29.333 16.667 29 16.667Q28.667 16.667 28.417 16.917Q28.167 17.167 28.167 17.5V19.167H26.5Q26.167 19.167 25.917 19.417Q25.667 19.667 25.667 20Q25.667 20.333 25.896 20.583Q26.125 20.833 26.542 20.833H28.167V22.5Q28.167 22.875 28.417 23.104Q28.667 23.333 29 23.333ZM19.375 25.042Q19.833 25.042 20.146 24.729Q20.458 24.417 20.458 23.917V21.25L23.458 24.667Q23.625 24.875 23.833 24.958Q24.042 25.042 24.25 25.042Q24.958 25.042 25.25 24.396Q25.542 23.75 25.042 23.25L22.208 20L25.125 16.708Q25.542 16.25 25.25 15.604Q24.958 14.958 24.292 14.958Q24.042 14.958 23.833 15.063Q23.625 15.167 23.5 15.333L20.458 18.75V16.042Q20.458 15.583 20.125 15.271Q19.792 14.958 19.333 14.958Q18.875 14.958 18.562 15.271Q18.25 15.583 18.25 16.083V23.958Q18.25 24.417 18.562 24.729Q18.875 25.042 19.375 25.042ZM12.667 17.208V23.958Q12.667 24.417 12.979 24.729Q13.292 25.042 13.792 25.042Q14.25 25.042 14.583 24.708Q14.917 24.375 14.917 23.875V16.083Q14.917 15.583 14.583 15.271Q14.25 14.958 13.792 14.958H11.167Q10.708 14.958 10.396 15.271Q10.083 15.583 10.083 16.083Q10.083 16.583 10.396 16.896Q10.708 17.208 11.167 17.208ZM8 36Q6.375 36 5.188 34.812Q4 33.625 4 32V8Q4 6.375 5.188 5.188Q6.375 4 8 4H32Q33.625 4 34.812 5.188Q36 6.375 36 8V32Q36 33.625 34.812 34.812Q33.625 36 32 36Z"/></svg>