<svg xmlns="http://www.w3.org/2000/svg" height="40" width="40"><path d="M34.292 33.375 24.542 23.583Q23.25 24.667 21.604 25.25Q19.958 25.833 18.25 25.833Q16.25 25.833 14.521 25.125Q12.792 24.417 11.5 23.208L13 21.708Q14 22.667 15.333 23.208Q16.667 23.75 18.208 23.75Q21.583 23.75 23.896 21.417Q26.208 19.083 26.208 15.708Q26.208 12.375 23.896 10.042Q21.583 7.708 18.208 7.708Q14.875 7.708 12.542 10.021Q10.208 12.333 10.208 15.625L12.75 13L14.25 14.458L9.208 19.542L4.167 14.458L5.667 13L8.125 15.458Q8.208 11.333 11.125 8.479Q14.042 5.625 18.208 5.625Q22.417 5.625 25.354 8.562Q28.292 11.5 28.292 15.708Q28.292 17.458 27.708 19.125Q27.125 20.792 26.042 22.083L35.833 31.833Z"/></svg>