<svg xmlns="http://www.w3.org/2000/svg" height="48" viewBox="0 -960 960 960" width="48"><path d="M480-484q68.85 0 140.93-9.5Q693-503 756-521q21.36-8 39.18 5T813-480.57V-173q0 20.52-10.5 36.76t-28.22 22.88Q709-87 630.5-74.5T480-62q-72 0-150.63-12.53Q250.74-87.05 187-113q-19-7-29.5-23.24T147-173v-307.57Q147-503 165.14-516q18.13-13 39.86-5 62 18 134.07 27.5Q411.15-484 480-484Zm0-414q70.46 0 117.73 47.27Q645-803.46 645-733q0 70.46-47.27 117.73Q550.46-568 480-568q-70.46 0-117.73-47.27Q315-662.54 315-733q0-70.46 47.27-117.73Q409.54-898 480-898Z"/></svg>