<svg xmlns="http://www.w3.org/2000/svg" height="20" viewBox="0 -960 960 960" width="20"><path d="M480-459.5q53 0 102.475-4.144Q631.95-467.788 685.5-481.5q15-3.5 26.75 5.58T724-450.865V-219q0 7.447-4.077 12.603-4.077 5.157-10.923 6.897-62.5 22-118.25 30.25T480-161q-55 0-110.75-8.25T251.5-199.5q-7.346-1.74-11.423-6.897Q236-211.553 236-219v-231.865q0-15.975 11.75-25.055t26.75-5.58q53.55 13.712 103.025 17.856Q427-459.5 480-459.5Zm0-339.5q42.5 0 72 29.5t29.5 72q0 42.5-29.5 72T480-596q-42.5 0-72-29.5t-29.5-72q0-42.5 29.5-72t72-29.5Z"/></svg>