<svg xmlns="http://www.w3.org/2000/svg" height="20" width="20"><path d="M4.75 3.333H15.25Q16.062 3.333 16.479 4.052Q16.896 4.771 16.5 5.479L11.25 14.542Q10.854 15.25 10 15.25Q9.146 15.25 8.75 14.542L3.5 5.479Q3.104 4.771 3.521 4.052Q3.938 3.333 4.75 3.333ZM4.333 5.021 5.5 7.042H14.5L15.667 5.021Q15.812 4.771 15.677 4.51Q15.542 4.25 15.25 4.25H4.75Q4.458 4.25 4.323 4.51Q4.188 4.771 4.333 5.021ZM6.021 7.958 7.917 11.208H12.083L13.979 7.958ZM8.417 12.125 9.542 14.062Q9.688 14.312 10 14.312Q10.312 14.312 10.458 14.062L11.583 12.125Z"/></svg>