<svg xmlns="http://www.w3.org/2000/svg" height="40" viewBox="0 -960 960 960" width="40"><path d="M192.32-104.17q-36.44 0-62.29-25.86-25.86-25.85-25.86-62.29v-575.36q0-36.6 25.86-62.56 25.85-25.96 62.29-25.96h575.36q36.6 0 62.56 25.96t25.96 62.56v575.36q0 36.44-25.96 62.29-25.96 25.86-62.56 25.86H192.32Zm0-88.15h575.36v-575.36H192.32v575.36Zm0-575.36h570.84v575.36H192.32v-575.36Zm206.71 489.01H530q32.09 0 52.86-20.77 20.78-20.78 20.78-52.86v-256.06q0-32.09-20.78-52.86Q562.09-682 530-682H430q-32.09 0-52.86 20.78-20.78 20.77-20.78 52.86v91.26q0 32.09 20.78 53.14Q397.91-442.9 430-442.9h100v90.6H399.03v73.63ZM530-517.1H430v-91.26h100v91.26Z"/></svg>