<svg xmlns="http://www.w3.org/2000/svg" height="24" width="24"><path d="M2 4.225V2H4.225Q4.225 2.95 3.575 3.587Q2.925 4.225 2 4.225ZM2 14.35V11.5Q3.95 11.5 5.688 10.762Q7.425 10.025 8.725 8.725Q10.025 7.425 10.762 5.688Q11.5 3.95 11.5 2H14.35Q14.35 4.55 13.375 6.787Q12.4 9.025 10.713 10.712Q9.025 12.4 6.787 13.375Q4.55 14.35 2 14.35ZM2 9.275V6.425Q3.85 6.425 5.138 5.137Q6.425 3.85 6.425 2H9.275Q9.275 5.05 7.163 7.162Q5.05 9.275 2 9.275ZM9.65 22Q9.65 19.45 10.625 17.2Q11.6 14.95 13.275 13.275Q14.95 11.6 17.2 10.625Q19.45 9.65 22 9.65V12.5Q20.05 12.5 18.312 13.238Q16.575 13.975 15.275 15.275Q13.975 16.575 13.238 18.312Q12.5 20.05 12.5 22ZM19.775 22Q19.775 21.075 20.425 20.425Q21.075 19.775 22 19.775V22ZM14.725 22Q14.725 18.95 16.837 16.837Q18.95 14.725 22 14.725V17.575Q20.15 17.575 18.863 18.862Q17.575 20.15 17.575 22Z"/></svg>