<svg xmlns="http://www.w3.org/2000/svg" height="48" width="48"><path d="M24 44.7Q19.7 44.7 15.925 43.075Q12.15 41.45 9.35 38.625Q6.55 35.8 4.925 32.05Q3.3 28.3 3.3 24Q3.3 19.7 4.925 15.925Q6.55 12.15 9.35 9.35Q12.15 6.55 15.925 4.9Q19.7 3.25 24 3.25Q28.3 3.25 32.05 4.875Q35.8 6.5 38.625 9.3Q41.45 12.1 43.1 15.875Q44.75 19.65 44.75 24Q44.75 28.3 43.1 32.075Q41.45 35.85 38.625 38.65Q35.8 41.45 32.05 43.075Q28.3 44.7 24 44.7ZM17.15 23.5Q18.25 23.5 19.075 22.825Q19.9 22.15 20 21.1Q20.35 21.15 20.65 20.95Q20.95 20.75 21.15 20.45Q21.4 20.05 21.275 19.6Q21.15 19.15 20.75 18.9L16.15 16.35Q15.7 16.05 15.25 16.2Q14.8 16.35 14.55 16.75Q14.35 17.2 14.425 17.625Q14.5 18.05 14.95 18.3L15.3 18.45Q14.8 18.85 14.55 19.425Q14.3 20 14.3 20.65Q14.3 21.85 15.125 22.675Q15.95 23.5 17.15 23.5ZM30.8 23.5Q32.05 23.5 32.875 22.675Q33.7 21.85 33.7 20.65Q33.7 20 33.45 19.425Q33.2 18.85 32.7 18.45L33.05 18.3Q33.5 18 33.575 17.575Q33.65 17.15 33.4 16.75Q33.15 16.3 32.7 16.175Q32.25 16.05 31.8 16.35L27.25 18.9Q26.85 19.15 26.75 19.575Q26.65 20 26.85 20.45Q27.05 20.75 27.35 20.95Q27.65 21.15 28 21.1Q28.1 22.15 28.925 22.825Q29.75 23.5 30.8 23.5ZM15.85 33.75H32.15Q33 33.75 33.35 33.25Q33.7 32.75 33.3 31.95Q31.9 28.8 29.375 27.35Q26.85 25.9 24 25.9Q21.2 25.9 18.675 27.375Q16.15 28.85 14.75 31.95Q14.35 32.75 14.675 33.25Q15 33.75 15.85 33.75Z"/></svg>