<svg xmlns="http://www.w3.org/2000/svg" height="48" width="48"><path d="M10.6 19H11.9V13.9H17V12.6H10.6ZM31 31.4H37.4V25H36.1V30.1H31ZM18.25 40V36H8.75Q7.65 36 6.825 35.175Q6 34.35 6 33.25V10.75Q6 9.65 6.825 8.825Q7.65 8 8.75 8H39.25Q40.35 8 41.175 8.825Q42 9.65 42 10.75V33.25Q42 34.35 41.175 35.175Q40.35 36 39.25 36H29.75V40ZM8.75 34.45H39.25Q39.75 34.45 40.1 34.1Q40.45 33.75 40.45 33.25V10.75Q40.45 10.25 40.1 9.9Q39.75 9.55 39.25 9.55H8.75Q8.25 9.55 7.9 9.9Q7.55 10.25 7.55 10.75V33.25Q7.55 33.75 7.9 34.1Q8.25 34.45 8.75 34.45ZM7.55 34.45Q7.55 34.45 7.55 34.1Q7.55 33.75 7.55 33.25V10.75Q7.55 10.25 7.55 9.9Q7.55 9.55 7.55 9.55Q7.55 9.55 7.55 9.9Q7.55 10.25 7.55 10.75V33.25Q7.55 33.75 7.55 34.1Q7.55 34.45 7.55 34.45Z"/></svg>