<svg xmlns="http://www.w3.org/2000/svg" height="20" viewBox="0 -960 960 960" width="20"><path d="M174.8-132q-41.52 0-66.16-24.64Q84-181.28 84-222.31v-515.38q0-41.03 24.64-65.67T174.8-828h185.55q41.53 0 66.17 24.64 24.63 24.64 24.63 65.67v515.38q0 41.03-24.63 65.67Q401.88-132 360.35-132H174.8Zm426.85 0q-41.53 0-66.17-24.64-24.63-24.64-24.63-65.67v-515.38q0-41.03 24.63-65.67Q560.12-828 601.65-828H785.2q41.52 0 66.16 24.64Q876-778.72 876-737.69v515.38q0 41.03-24.64 65.67T785.2-132H601.65ZM205.69-321.31h123v-78h-123v78Zm427.62 0h121v-78h-121v78ZM205.69-463.46h123v-78h-123v78Zm427.62 0h121v-78h-121v78ZM205.69-606h123v-78h-123v78Zm427.62 0h121v-78h-121v78Z"/></svg>