<svg xmlns="http://www.w3.org/2000/svg" height="20" viewBox="0 -960 960 960" width="20"><path d="M740.63-408h-30.77q-18.43 0-31.51-13.05-13.09-13.05-13.09-31.43t13.09-31.43q13.08-13.05 31.51-13.05h30.77v-30.65q0-18.04 13.01-31.26 13.02-13.22 31.2-13.22 18.19 0 31.35 13.22t13.16 31.26v30.65h29.87q18.29 0 31.49 12.99t13.2 31.28q0 18.29-13.05 31.37-13.05 13.09-31.42 13.09h-30.09v30.77q0 18.08-13.1 31.34-13.09 13.25-31.54 13.25-18.14 0-31.11-13.22-12.97-13.22-12.97-31.26V-408ZM510.52-688.82q-38.22 43.17-57.91 97-19.7 53.83-19.7 112.52 0 80.43 37.24 149.69 37.24 69.26 103.42 115.13 19.82 13.49 27.45 35.49 7.63 22-4.06 43.1-12.73 21.91-37.61 26.92-24.87 5.01-46.13-9.01-91.7-60.37-143.48-156.11-51.78-95.75-51.78-205.78 0-86.61 33.89-167.06 33.89-80.46 95.8-142.03h-79.08q-23.47 0-40.48-16.94-17-16.95-17-40.32 0-24.17 17-40.93 17.01-16.76 40.48-16.76H568q23.47 0 40.47 16.61 17.01 16.61 17.01 40.87v198.86q0 23.47-16.95 40.48-16.94 17-40.32 17-24.17 0-40.93-17-16.76-17.01-16.76-40.48v-41.25Z"/></svg>