<svg xmlns="http://www.w3.org/2000/svg" height="24" width="24"><path d="M17.825 12V4.95q0-.475.325-.8.325-.325.8-.325.475 0 .813.325.337.325.337.8V12q0 .475-.337.812-.338.338-.813.338-.475 0-.8-.338-.325-.337-.325-.812ZM3.45 19.05V4.95q0-.475.325-.8.325-.325.8-.325.5 0 .825.325.325.325.325.8v14.1q0 .475-.325.8-.325.325-.825.325-.475 0-.8-.325-.325-.325-.325-.8Zm7.175-12.2v-1.9q0-.475.338-.8.337-.325.812-.325.475 0 .8.325.325.325.325.8v1.9q0 .5-.325.825-.325.325-.8.325-.475 0-.812-.325-.338-.325-.338-.825Zm0 6.1v-1.9q0-.475.338-.813.337-.337.812-.337.475 0 .8.337.325.338.325.813v1.9q0 .475-.325.812-.325.338-.8.338-.475 0-.812-.338-.338-.337-.338-.812Zm0 6.1v-1.9q0-.5.338-.825.337-.325.812-.325.475 0 .8.325.325.325.325.825v1.9q0 .475-.325.8-.325.325-.8.325-.475 0-.812-.325-.338-.325-.338-.8Zm8.3 1.075-1.25 1.225q-.325.35-.787.35-.463 0-.788-.35-.35-.35-.35-.812 0-.463.35-.813l1.2-1.2-1.2-1.225q-.35-.35-.35-.8 0-.45.35-.8.325-.35.8-.35.475 0 .8.35l1.225 1.225L20.15 15.7q.325-.35.8-.35.475 0 .825.35.3.35.3.813 0 .462-.3.787l-1.25 1.25 1.225 1.2q.3.325.3.788 0 .462-.3.812-.325.35-.8.35-.475 0-.8-.325Z"/></svg>