<svg xmlns="http://www.w3.org/2000/svg" height="24" width="24"><path d="M4.15 19.85q-.8 0-1.362-.575-.563-.575-.563-1.375t.563-1.362q.562-.563 1.362-.563h15.7q.8 0 1.375.575t.575 1.375q0 .775-.575 1.35-.575.575-1.375.575Zm.95-1h1.875v-1.875H5.1Zm-.95-10.8q-.8 0-1.362-.575Q2.225 6.9 2.225 6.1t.563-1.363q.562-.562 1.362-.562h15.7q.8 0 1.375.575t.575 1.375q0 .775-.575 1.35-.575.575-1.375.575Zm.95-1h1.875V5.175H5.1Zm-.975 6.875q-.8 0-1.35-.563-.55-.562-.55-1.337 0-.8.55-1.363.55-.562 1.35-.562h15.75q.8 0 1.363.562.562.563.562 1.338 0 .8-.562 1.362-.563.563-1.363.563Zm.975-.975h1.875v-1.875H5.1Z"/></svg>