<svg xmlns="http://www.w3.org/2000/svg" height="20" width="20"><path d="M16.625 8.167q-.25 0-.437-.188Q16 7.792 16 7.542t.188-.438q.187-.187.437-.187t.437.187q.188.188.188.438t-.188.437q-.187.188-.437.188Zm-8.042 9.916v-3.291l-2.375 2.375-.875-.875 3.25-3.25v-1.625H6.958l-3.25 3.25-.875-.875 2.375-2.375H1.917v-1.25h3.291L2.833 7.792l.875-.875 3.25 3.25h1.625V8.542l-3.25-3.25.875-.875 2.375 2.375V3.5h1.25v3.292l2.375-2.375.875.875-3.25 3.25v1.625H16.5v1.25h-3.292l2.375 2.375-.875.875-3.25-3.25H9.833v1.625l3.25 3.25-.875.875-2.375-2.375v3.291ZM16 5.75V1.917h1.25V5.75Z"/></svg>