<svg xmlns="http://www.w3.org/2000/svg" height="20" width="20"><path d="M7.5 10.833Q7.146 10.833 6.896 10.583Q6.646 10.333 6.646 9.979Q6.646 9.625 6.896 9.375Q7.146 9.125 7.5 9.125Q7.875 9.125 8.115 9.375Q8.354 9.625 8.354 9.979Q8.354 10.333 8.115 10.583Q7.875 10.833 7.5 10.833ZM12.521 10.833Q12.146 10.833 11.906 10.583Q11.667 10.333 11.667 9.979Q11.667 9.625 11.906 9.375Q12.146 9.125 12.521 9.125Q12.875 9.125 13.125 9.375Q13.375 9.625 13.375 9.979Q13.375 10.333 13.125 10.583Q12.875 10.833 12.521 10.833ZM2.188 17.667V15.688H3.146V2.333H16.854V15.688H17.812V17.667ZM5.125 15.688H9.125V4.312H5.125ZM10.875 15.688H14.875V4.312H10.875ZM10 9Z"/></svg>