<svg xmlns="http://www.w3.org/2000/svg" height="40" viewBox="0 -960 960 960" width="40"><path d="M407.63-192.07v-161.88l-139.9 80.72q-27.01 15.45-55.75 8.06-28.75-7.39-44.2-33.73-15.21-26.34-7.32-55.42 7.9-29.08 34.24-44.53L334.75-480 195.6-561.31q-26.34-14.55-34.68-43.34-8.35-28.79 6.86-55.13 15.61-26.18 44.4-33.77 28.78-7.59 55.79 7.35l139.66 81.15v-163.04q0-29.92 21.14-51.4 21.14-21.47 51.23-21.47 30.09 0 51.56 21.47 21.48 21.48 21.48 51.4v163.04l139.89-81.39q26.35-14.78 54.92-7.27 28.58 7.51 43.79 33.85 14.79 26.18 7.32 55.09-7.47 28.91-33.66 43.46L625.41-480l139.89 81.15q26.34 15.61 34.24 44.61 7.89 29-7.56 55.1-15.45 26.34-44.08 33.85-28.62 7.51-54.97-7.94l-139.89-80.72v161.88q0 30.08-21.48 51.23Q510.09-119.7 480-119.7q-30.09 0-51.23-21.14-21.14-21.15-21.14-51.23Z"/></svg>