<svg xmlns="http://www.w3.org/2000/svg" height="20" viewBox="0 -960 960 960" width="20"><path d="M545.95-117q-19.01 0-35.23-7-16.22-7-29.72-21L289.5-334l14.5-13.5q4.5-4.5 9.75-5.25T326-352l140 33.5v-328q0-3.17 2.57-5.84 2.58-2.66 6-2.66 3.43 0 6.18 2.66 2.75 2.67 2.75 5.84v266H576v-152.74q0-3.14 2.32-5.95 2.33-2.81 6-2.81 3.68 0 6.43 2.66 2.75 2.67 2.75 5.84v153h93v-105q0-3.17 2.57-5.84 2.58-2.66 6-2.66 3.43 0 6.18 2.66 2.75 2.67 2.75 5.84v105h92.5v-57q0-3.17 2.32-5.84 2.33-2.66 6-2.66 3.68 0 6.43 2.66 2.75 2.67 2.75 5.84v179.71q0 59.79-40.75 100.29Q732.5-117 673.2-117H545.95ZM82.5-529.5V-687H96v134l125.5-125.5 10 10.5-125 125H240v13.5H82.5Zm209.5-199L282-739l125-125H273.5v-13.5H431V-720h-13.5v-134L292-728.5Z"/></svg>