<svg xmlns="http://www.w3.org/2000/svg" height="40" width="40"><path d="M.542 23.5v-8.917h3.125v3.667l4.625-4.667L10.5 15.75l-4.667 4.667H9.5V23.5Zm11.291-9.167-2.125-2.125 4.667-4.666h-3.708V4.458h8.958v8.917H16.5V9.708ZM24.25 37.458q-.833 0-1.583-.291-.75-.292-1.334-.834l-9.125-9.166 3-3.042q.667-.708 1.625-.979.959-.271 1.917-.021l2.25.542V10.75q0-2 1.396-3.438 1.396-1.437 3.437-1.437 2 0 3.417 1.437 1.417 1.438 1.417 3.438v6.708h.583q.25 0 .542.084.291.083.583.208l6.5 3.125q1 .458 1.479 1.437.479.98.313 2.063l-1.625 9.792q-.292 1.458-1.417 2.375-1.125.916-2.625.916ZM24.042 34H35.5l1.75-10-7.5-3.708h-2.542V10.75q0-.625-.375-1.021-.375-.396-1-.396t-1 .396q-.375.396-.375 1.021v17.167l-6.75-1.5-.625.666Z"/></svg>