<svg xmlns="http://www.w3.org/2000/svg" height="40" width="40"><path d="M14.667 38.042q-1.584 0-2.688-1.125t-1.104-2.709v-2.083h18.25v2.083q0 1.584-1.104 2.709t-2.646 1.125Zm-3.792-7.334v-9.75h18.25v9.75Zm.083-11.166q.5-2.209 1.896-4 1.396-1.792 3.479-2.709-.375-.333-.729-.771-.354-.437-.562-.895L8.708 9.75q-.375-.083-.604-.417Q7.875 9 7.875 8.5q0-.5.229-.833.229-.334.604-.417l6.542-1.458q.667-1.25 1.938-2 1.27-.75 2.812-.75.917 0 1.75.271.833.27 1.5.77l3.708-.75q.875-.166 1.521.396.646.563.646 1.438v6.666q0 .875-.646 1.417t-1.521.417L24 13.042h.021H24q2.042.833 3.333 2.583 1.292 1.75 1.709 3.917ZM20 10.875q.917 0 1.562-.646.646-.646.646-1.604.042-.917-.625-1.562-.666-.646-1.583-.646-.917 0-1.562.646-.646.645-.646 1.562 0 .958.646 1.604.645.646 1.562.646Z"/></svg>