<svg xmlns="http://www.w3.org/2000/svg" height="40" viewBox="0 -960 960 960" width="40"><path d="M345.28-158.67H238.57q-33.71 0-56.81-23.09-23.09-23.1-23.09-56.81V-344.9l-77.82-79.25q-12.18-12.07-17.58-26.56-5.4-14.49-5.4-29.34 0-14.84 5.4-29.29 5.4-14.44 17.58-26.51l77.82-79.25v-106.33q0-33.71 23.09-56.81 23.1-23.09 56.81-23.09H344.9l79.25-78.75q12.03-11.15 26.83-16.6 14.8-5.45 29.68-5.45 14.88 0 29.24 5.79 14.36 5.78 26.36 16.93l78.61 78.08h106.56q33.71 0 56.81 23.09 23.09 23.1 23.09 56.81v106.33l78.75 79.25q11.15 12.03 16.6 26.55 5.45 14.52 5.45 29.4 0 14.87-5.45 29.3-5.45 14.42-16.6 26.45l-78.75 79.25v106.33q0 33.71-23.09 56.81-23.1 23.09-56.81 23.09H614.87l-78.61 77q-12.09 11.85-26.57 17.29-14.48 5.43-29.32 5.43-14.92 0-29.2-5.43-14.29-5.44-26.35-17.29l-79.54-77Zm28.18-67.59 98.1 95.87q3.47 3.47 8.85 3.47 5.39 0 8.85-3.47l96.61-96.1H721.2q5.38 0 8.85-3.46 3.46-3.47 3.46-8.85v-135.13l97.18-97.22q3.46-3.46 3.46-8.85t-3.46-8.85l-96.99-97.32v-135.26q0-5.39-3.46-8.85t-8.85-3.46H586.13l-96.87-96.95q-3.46-3.46-8.85-3.46-5.38 0-8.85 3.46l-97.59 97.18H238.84q-5.38 0-8.84 3.46-3.47 3.47-3.47 8.85v135.13l-97.22 97.22q-3.46 3.46-3.46 8.85t3.46 8.85l96.95 97.32v135.26q0 5.39 3.46 8.85t8.85 3.46h134.89Zm106.95-254.15Z"/></svg>