<svg xmlns="http://www.w3.org/2000/svg" height="48" viewBox="0 -960 960 960" width="48"><path d="M480.333-100.001q-78.955 0-147.897-29.92t-120.755-81.71q-51.814-51.791-81.747-120.777t-29.933-148.025q0-78.655 29.92-147.864t81.71-120.522q51.791-51.314 120.777-81.247t148.025-29.933q78.655 0 147.864 29.92t120.522 81.21q51.314 51.291 81.247 120.629 29.933 69.337 29.933 147.907 0 78.955-29.92 147.897t-81.21 120.571q-51.291 51.629-120.629 81.746-69.337 30.118-147.907 30.118ZM480-145.385q140.067 0 237.341-97.769T814.615-480v-8.731q0-3.962-.385-8.5-4.461 25.615-24.328 42.731-19.867 17.115-47.517 17.115h-90.77q-30.846 0-52.346-21.484-21.5-21.485-21.5-52.309v-36.896H430.078v-73.793q0-30.44 21.499-52.209 21.5-21.769 52.346-21.769h36.923v-31.231q0-21.001 16.385-42.885 16.385-21.885 38-24.192-26.923-9.923-55.621-15.193-28.699-5.269-59.61-5.269-139.077 0-236.846 97.274T145.385-480v5.77q0 2.692.385 5.769h153.077q61.384 0 104.538 43.154 43.153 43.153 43.153 104.364v37.097H335.77v105.769q32.846 15.846 69.199 24.269 36.354 8.423 75.031 8.423Z"/></svg>