<svg xmlns="http://www.w3.org/2000/svg" height="40" width="40"><path d="M6.125 36.042V30.792H11.417L7.125 15.875Q5.792 15.208 5.042 14.021Q4.292 12.833 4.292 11.167Q4.292 9 5.833 7.438Q7.375 5.875 9.542 5.875Q11.333 5.875 12.667 6.854Q14 7.833 14.5 9.375H20.125V7.542Q20.125 6.792 20.604 6.292Q21.083 5.792 21.833 5.792Q22.375 5.792 22.708 6.042Q23.042 6.292 23.208 6.708L26.25 3.75Q26.667 3.417 27.208 3.313Q27.75 3.208 28.333 3.458L35.042 6.625Q35.5 6.833 35.708 7.354Q35.917 7.875 35.625 8.375Q35.375 8.875 34.875 9Q34.375 9.125 33.875 8.917L27.625 5.958L23.625 10V12.167L27.625 16.333L33.875 13.375Q34.375 13.125 34.854 13.292Q35.333 13.458 35.625 13.958Q35.875 14.458 35.688 14.979Q35.5 15.5 35.042 15.75L28.458 18.875Q27.833 19.167 27.25 19.125Q26.667 19.083 26.25 18.625L23.208 15.667Q23.042 16.125 22.688 16.333Q22.333 16.542 21.833 16.542Q21.083 16.542 20.604 16.062Q20.125 15.583 20.125 14.833V12.875H14.458Q14.458 13.25 14.25 13.646Q14.042 14.042 13.792 14.292L22.458 30.792H28.75V36.042ZM9.542 12.958Q10.292 12.958 10.812 12.458Q11.333 11.958 11.333 11.167Q11.333 10.375 10.812 9.875Q10.292 9.375 9.542 9.375Q8.792 9.375 8.292 9.875Q7.792 10.375 7.792 11.167Q7.792 11.958 8.292 12.458Q8.792 12.958 9.542 12.958Z"/></svg>