<svg xmlns="http://www.w3.org/2000/svg" height="48" width="48"><path d="M6.75 38q-1.15 0-1.95-.8T4 35.25v-22.5q0-1.15.8-1.95t1.95-.8h34.5q1.15 0 1.95.8t.8 1.95v22.5q0 1.15-.8 1.95t-1.95.8Zm24-8.55h1.55v-4.2h3.4l1.7 4.2H39l-1.7-4.35q1 0 1.575-.675t.575-1.325v-2.4q0-.85-.65-1.5t-1.5-.65h-6.55Zm1.55-5.75v-3.6h5q.2 0 .4.175t.2.425v2.4q0 .2-.2.4t-.4.2Zm-9.15 5.75h1.8l3.55-10.9H27l-2.85 9.35-3.05-9.35h-1.3Zm-14.25 0h6.55q.85 0 1.5-.65t.65-1.5v-6.6q0-.85-.65-1.5t-1.5-.65H8.9Zm1.55-1.55v-7.8h5q.25 0 .425.175t.175.425v6.6q0 .25-.175.425t-.425.175Z"/></svg>