<svg xmlns="http://www.w3.org/2000/svg" height="48" viewBox="0 -960 960 960" width="48"><path d="M206.77-222.42q-36.46-45.2-56.06-100.45-19.59-55.25-19.59-117.13 0-145.65 101.61-247.31Q334.35-788.96 480-788.96q16.1 0 29.12.75t27.5.86l-86.89-86.88 30.19-30.88L625.04-760 479.92-615.58l-31.38-31.38 95.31-95.31q-16.43-1.23-33.04-2.04-16.62-.81-30.81-.81-126.8 0-215.92 89.14-89.12 89.14-89.12 216.04 0 50.17 15.79 99.54 15.79 49.36 48.29 86.78l-32.27 31.2Zm241.35 2.46q-3.31-25.23-17.64-47.08-14.33-21.85-30.72-43.98-16.4-22.14-29.6-45.32-13.2-23.19-13.2-51.31 0-50.89 36.12-87.33t86.94-36.44q50.83 0 87.27 36.43 36.44 36.44 36.44 87.35 0 27.75-13.49 51.12-13.49 23.37-29.94 45.5-16.45 22.13-30.78 43.98-14.33 21.85-16.94 47.08h-64.46Zm-.85 92.69v-43.46h66.15v43.46h-66.15Zm305.96-95.15L722.65-253q28.47-36.31 45.77-83.97 17.31-47.65 17.31-103.03 0-65.3-26-123.65-26-58.35-77.15-103.27l31.8-32.5q53.54 48.6 84.37 115.2 30.83 66.6 30.83 144.22 0 61.88-19.95 117.13-19.94 55.25-56.4 100.45Z"/></svg>