<svg xmlns="http://www.w3.org/2000/svg" height="24" viewBox="0 -960 960 960" width="24"><path d="M456.5-180.19q-18.3-18.33-18.3-44.68v-189.48L84.15-768.39q-11.98-11.98-11.98-27.95 0-15.96 11.98-27.94t27.95-11.98q15.97 0 27.94 11.98l683.74 683.74q11.98 11.79 11.98 27.6 0 15.81-11.98 27.79-11.98 11.98-27.94 11.98-15.97 0-27.95-11.98L564.2-288.35v63.48q0 26.35-18.34 44.68-18.33 18.32-44.69 18.32-26.37 0-44.67-18.32Zm278.63-186.94q-23.41-1-43.21-16.82-19.79-15.81-19.79-45.94v-305.24q0-26.35 18.33-44.68 18.34-18.32 44.7-18.32 26.36 0 44.67 18.32 18.3 18.33 18.3 44.68v305.24q0 31.62-19.4 47.69-19.41 16.07-43.6 15.07Zm-423.17 11.24q18.3 18.32 18.3 44.67v86.35q0 26.35-18.33 44.68-18.34 18.32-44.7 18.32-26.36 0-44.66-18.32-18.31-18.33-18.31-44.68v-86.35q0-26.35 18.33-44.67 18.34-18.33 44.7-18.33 26.36 0 44.67 18.33Z"/></svg>