<svg xmlns="http://www.w3.org/2000/svg" height="24" width="24"><path d="M6.425 11.775h4.55v-1.5h-3.05V9.25H9.95q.45 0 .738-.3.287-.3.287-.725V6.7q0-.425-.3-.713-.3-.287-.725-.287H6.425v1.5h3.05v1.05h-2.05q-.4 0-.7.287-.3.288-.3.713Zm6.575 0h4.525v-1.5H14.5V9.25h2.025q.425 0 .713-.3.287-.3.287-.7V6.7q0-.425-.287-.713-.288-.287-.713-.287H13v1.5h3.05v1.05H14q-.425 0-.712.287Q13 8.825 13 9.25Zm-7.075 6.55h1.5v-4.35h1.05V16.9H9.95v-2.925H11v4.35h1.5v-4.9q0-.4-.287-.7-.288-.3-.713-.3H6.925q-.4 0-.7.3-.3.3-.3.7Zm7.6 0h1.5V16.85h2.05q.4 0 .7-.288.3-.287.3-.712v-2.425q0-.4-.3-.7-.3-.3-.7-.3h-3.55Zm1.5-2.975v-1.375h1.55v1.375Zm-9.85 6.55q-1.3 0-2.188-.888-.887-.887-.887-2.187V5.175q0-1.3.887-2.188.888-.887 2.188-.887h13.65q1.3 0 2.188.887.887.888.887 2.188v13.65q0 1.3-.887 2.187-.888.888-2.188.888Zm0-3.075h13.65V5.175H5.175v13.65Zm0-13.65v13.65-13.65Z"/></svg>