<svg xmlns="http://www.w3.org/2000/svg" height="20" width="20"><path d="M16.729 16.312q-.541 0-.948-.406-.406-.406-.406-.948v-2.396q0-.833-.573-1.406t-1.406-.573H7.083l1.542 1.542q.396.396.385.937-.01.542-.406.938-.396.396-.958.396-.563 0-.958-.396l-3.813-3.812q-.208-.209-.302-.459t-.094-.5q0-.25.094-.5t.302-.458l3.833-3.833q.396-.396.959-.396.562 0 .958.396.396.395.396.947 0 .553-.396.948L7.083 7.875h6.313q1.958 0 3.323 1.365 1.364 1.364 1.364 3.322v2.396q0 .542-.406.948-.406.406-.948.406Z"/></svg>