<svg xmlns="http://www.w3.org/2000/svg" height="40" width="40"><path d="M30.542 30.292Q29.958 30.292 29.562 29.896Q29.167 29.5 29.167 28.917Q29.167 28.333 29.562 27.938Q29.958 27.542 30.542 27.542Q31.125 27.542 31.5 27.938Q31.875 28.333 31.875 28.917Q31.875 29.5 31.5 29.896Q31.125 30.292 30.542 30.292ZM18.167 27.333Q17.833 27.333 17.542 27.562Q17.25 27.792 16.625 28.542Q16 29.417 15.562 29.667Q15.125 29.917 14.667 29.917Q14.208 29.917 13.708 29.542Q13.208 29.167 13.208 28.667Q13.208 28.542 14.042 27.375Q14.5 26.833 14.729 26.333Q14.958 25.833 14.958 25.292Q14.958 24.5 14.667 24.146Q14.375 23.792 13.417 23.792Q12.917 23.792 12.292 23.771Q11.667 23.75 11.292 23.417Q11 23.208 10.896 22.833Q10.792 22.458 10.792 22.125Q10.792 21.667 11.083 21.396Q11.375 21.125 12.042 20.875Q12.625 20.667 12.958 20.458Q13.292 20.25 13.292 19.875Q13.292 19.667 12.792 18.708Q12.542 18.292 12.458 18.083Q12.375 17.875 12.375 17.625Q12.375 17.167 12.812 16.75Q13.25 16.333 13.833 16.333Q14.333 16.333 14.646 16.542Q14.958 16.75 15.708 17.5Q16.417 18.208 16.833 18.438Q17.25 18.667 17.667 18.667Q18.083 18.667 18.479 18.396Q18.875 18.125 18.875 17.75Q18.875 17.458 18.729 17.167Q18.583 16.875 18.208 16.208Q17.833 15.708 17.625 15.292Q17.417 14.875 17.417 14.542Q17.417 14.167 17.896 13.875Q18.375 13.583 19.083 13.583Q19.625 13.583 20.042 14.021Q20.458 14.458 20.917 15.583Q21.458 16.792 22 17.292Q22.542 17.792 23.208 17.792Q23.833 17.792 24.458 17.354Q25.083 16.917 25.917 15.667Q27.042 14 27.583 13.479Q28.125 12.958 28.667 12.958Q29.292 12.958 29.979 13.771Q30.667 14.583 30.667 15.333Q30.667 15.958 30.083 16.521Q29.5 17.083 27.958 17.792Q26.417 18.5 25.833 18.979Q25.25 19.458 25.25 20.042Q25.25 20.458 25.458 20.708Q25.667 20.958 26 20.958Q26.208 20.958 26.479 20.875Q26.75 20.792 27.208 20.583Q27.667 20.375 28 20.292Q28.333 20.208 28.667 20.208Q29.25 20.208 29.646 20.729Q30.042 21.25 30.042 21.958Q30.042 22.667 29.333 22.938Q28.625 23.208 27.375 23.292Q25.917 23.333 25.396 23.5Q24.875 23.667 24.875 24.042Q24.875 24.375 25.188 24.625Q25.5 24.875 26.25 25.125Q27.083 25.458 27.479 25.792Q27.875 26.125 27.875 26.667Q27.875 27.333 27.354 27.979Q26.833 28.625 26.042 28.625Q25.708 28.625 25.167 28.438Q24.625 28.25 23.875 27.792Q23.25 27.458 22.854 27.312Q22.458 27.167 22.083 27.167Q21.667 27.167 21.354 27.542Q21.042 27.917 21.042 28.625Q21.042 29.417 21.292 30.083Q21.542 30.75 21.542 31.542Q21.542 32.167 21.167 32.583Q20.792 33 20.167 33Q19.5 33 19.146 32.583Q18.792 32.167 18.792 31.542Q18.792 30.833 18.958 30.208Q19.125 29.583 19.125 28.875Q19.125 28.167 18.854 27.75Q18.583 27.333 18.167 27.333ZM6.25 34.75Q5.167 34.75 4.396 33.958Q3.625 33.167 3.625 32.125V11.375Q3.625 10.333 4.396 9.542Q5.167 8.75 6.25 8.75H12.083L14.292 6.125Q14.667 5.708 15.188 5.479Q15.708 5.25 16.292 5.25H23.708Q24.292 5.25 24.812 5.479Q25.333 5.708 25.708 6.125L27.917 8.75H33.75Q34.792 8.75 35.583 9.542Q36.375 10.333 36.375 11.375V32.125Q36.375 33.167 35.583 33.958Q34.792 34.75 33.75 34.75ZM6.25 32.125H18.792H21.542H33.75Q33.75 32.125 33.75 32.125Q33.75 32.125 33.75 32.125V11.375Q33.75 11.375 33.75 11.375Q33.75 11.375 33.75 11.375H6.25Q6.25 11.375 6.25 11.375Q6.25 11.375 6.25 11.375V32.125Q6.25 32.125 6.25 32.125Q6.25 32.125 6.25 32.125ZM20 21.75Q20 21.75 20 21.75Q20 21.75 20 21.75Q20 21.75 20 21.75Q20 21.75 20 21.75Q20 21.75 20 21.75Q20 21.75 20 21.75Q20 21.75 20 21.75Q20 21.75 20 21.75Z"/></svg>