<svg xmlns="http://www.w3.org/2000/svg" height="40" viewBox="0 -960 960 960" width="40"><path d="M243.28-491.28h66.28v-66.28h-66.28v66.28Zm163.33 0h66.28v-66.28h-66.28v66.28Zm162 166.67h66.28v-66.28h-66.28v66.28Zm0-166.67h66.28v-66.28h-66.28v66.28ZM152.39-159.3q-29.62 0-51.02-21.41-21.4-21.4-21.4-51.01v-496.56q0-29.68 21.4-51.13 21.4-21.45 51.02-21.45h655.22q29.68 0 51.13 21.45 21.45 21.45 21.45 51.13v496.56q0 29.61-21.45 51.01-21.45 21.41-51.13 21.41H152.39Zm0-72.42h655.22v-496.56H152.39v496.56Zm0 0v-496.56 496.56Z"/></svg>