<svg xmlns="http://www.w3.org/2000/svg" version="1.1" width="3300" height="2000"><g id="Notes"><style>
    text {
      font-family: monospace;
      text-anchor: middle;
    }
    text.emphasis {
      font-weight:bold;
    }
    text.lanchor {
      text-anchor: start;
    }
  </style><rect height="2200" id="artboard" fill="white" width="3300" x="0" y="0"/><line id="" style="fill:none;stroke:black;stroke-width:0.5;" x1="263" x2="3036" y1="292" y2="292"/><text class="lanchor emphasis" transform="matrix(1 0 0 1 263 322)">Weight/Scale Variations</text><text transform="matrix(1 0 0 1 559.711 322)">Ultralight</text><text transform="matrix(1 0 0 1 856.422 322)">Thin</text><text transform="matrix(1 0 0 1 1153.13 322)">Light</text><text transform="matrix(1 0 0 1 1449.84 322)">Regular</text><text transform="matrix(1 0 0 1 1746.56 322)">Medium</text><text transform="matrix(1 0 0 1 2043.27 322)">Semibold</text><text transform="matrix(1 0 0 1 2339.98 322)">Bold</text><text transform="matrix(1 0 0 1 2636.69 322)">Heavy</text><text transform="matrix(1 0 0 1 2933.4 322)">Black</text><text id="template-version" style="text-anchor: end;" transform="matrix(1 0 0 1 3036 1933)">Template v.1.0</text><text class="lanchor" transform="matrix(1 0 0 1 263 726)">Small</text><text class="lanchor" transform="matrix(1 0 0 1 263 1156)">Medium</text><text class="lanchor" transform="matrix(1 0 0 1 263 1586)">Large</text></g><g id="Guides"><g id="H-reference" style="fill:#27AAE1;stroke:none;" transform="matrix(1 0 0 1 339 696)"><path d="M 54.9316 0 L 57.666 0 L 30.5664 -70.459 L 28.0762 -70.459 L 0.976562 0 L 3.66211 0 L 12.9395 -24.4629 L 45.7031 -24.4629 Z M 29.1992 -67.0898 L 29.4434 -67.0898 L 44.8242 -26.709 L 13.8184 -26.709 Z"/></g><line id="Baseline-S" style="fill:none;stroke:#27AAE1;opacity:1;stroke-width:0.577;" x1="263" x2="3036" y1="696" y2="696"/><line id="Capline-S" style="fill:none;stroke:#27AAE1;opacity:1;stroke-width:0.577;" x1="263" x2="3036" y1="625.541" y2="625.541"/><g id="H-reference" style="fill:#27AAE1;stroke:none;" transform="matrix(1 0 0 1 339 1126)"><path d="M 54.9316 0 L 57.666 0 L 30.5664 -70.459 L 28.0762 -70.459 L 0.976562 0 L 3.66211 0 L 12.9395 -24.4629 L 45.7031 -24.4629 Z M 29.1992 -67.0898 L 29.4434 -67.0898 L 44.8242 -26.709 L 13.8184 -26.709 Z"/></g><line id="Baseline-M" style="fill:none;stroke:#27AAE1;opacity:1;stroke-width:0.577;" x1="263" x2="3036" y1="1126" y2="1126"/><line id="Capline-M" style="fill:none;stroke:#27AAE1;opacity:1;stroke-width:0.577;" x1="263" x2="3036" y1="1055.54" y2="1055.54"/><g id="H-reference" style="fill:#27AAE1;stroke:none;" transform="matrix(1 0 0 1 339 1556)"><path d="M 54.9316 0 L 57.666 0 L 30.5664 -70.459 L 28.0762 -70.459 L 0.976562 0 L 3.66211 0 L 12.9395 -24.4629 L 45.7031 -24.4629 Z M 29.1992 -67.0898 L 29.4434 -67.0898 L 44.8242 -26.709 L 13.8184 -26.709 Z"/></g><line id="Baseline-L" style="fill:none;stroke:#27AAE1;opacity:1;stroke-width:0.577;" x1="263" x2="3036" y1="1556" y2="1556"/><line id="Capline-L" style="fill:none;stroke:#27AAE1;opacity:1;stroke-width:0.577;" x1="263" x2="3036" y1="1485.54" y2="1485.54"/><rect height="119.336" id="left-margin" style="fill:darkred;stroke:none;opacity:0.4;" width="12.4512" x="1394.06" y="1030.79"/><rect height="119.336" id="right-margin" style="fill:darkgreen;stroke:none;opacity:0.4;" width="12.4512" x="1502.5112" y="1030.79"/><rect x="1406.5112" y="1045" width="96" height="96" fill="none" stroke="blue" stroke-dasharray="5"/><rect x="1394.06" y="1030.79" width="120.9024" height="119.336" fill="none" stroke="blue"/></g><g id="Symbols"><g id="Bold-L" transform="matrix(1 0 0 1 2266 1556)"><path d="M77.392 -58.208 Q67.478 -58.208 60.466 -65.228 Q53.454 -72.248 53.454 -82.268 Q53.454 -92.287 60.475 -99.274 Q67.495 -106.261 77.408 -106.261 Q87.322 -106.261 94.334 -99.266 Q101.346 -92.271 101.346 -82.251 Q101.346 -72.232 94.325 -65.22 Q87.305 -58.208 77.392 -58.208 Z M77.4 35.639  36.12 -5.479 Q32.814 -8.946 30.799 -13.925 Q28.783 -18.903 28.783 -25.296 Q28.783 -35.714 36.241 -43.172 Q43.699 -50.629 54.214 -50.629 Q59.098 -50.629 63.371 -48.493 Q67.644 -46.356 71.192 -42.809 L77.4 -36.601 L83.608 -42.809 Q86.994 -46.195 91.348 -48.412 Q95.702 -50.629 100.586 -50.629 Q111.101 -50.629 118.64 -43.172 Q126.178 -35.714 126.178 -25.255 Q126.178 -18.923 124.082 -13.935 Q121.986 -8.946 118.68 -5.479 L77.4 35.639 Z"/></g><g id="Semibold-L" transform="matrix(1 0 0 1 1970.27 1556)"><path d="M77.392 -57.437 Q67.936 -57.437 61.291 -64.09 Q54.646 -70.743 54.646 -80.259 Q54.646 -89.774 61.299 -96.405 Q67.953 -103.036 77.408 -103.036 Q86.864 -103.036 93.509 -96.397 Q100.154 -89.758 100.154 -80.243 Q100.154 -70.727 93.501 -64.082 Q86.847 -57.437 77.392 -57.437 Z M77.4 32.415  37.452 -7.442 Q34.357 -10.629 32.446 -15.292 Q30.536 -19.955 30.536 -25.97 Q30.536 -35.714 37.468 -42.646 Q44.4 -49.578 54.21 -49.578 Q58.748 -49.578 62.705 -47.546 Q66.663 -45.515 69.86 -42.318 L77.4 -34.778 L84.94 -42.318 Q88.046 -45.424 92.049 -47.501 Q96.052 -49.578 100.59 -49.578 Q110.4 -49.578 117.378 -42.646 Q124.355 -35.714 124.355 -25.946 Q124.355 -19.966 122.399 -15.297 Q120.443 -10.629 117.348 -7.442 L77.4 32.415 Z"/></g><g id="Medium-L" transform="matrix(1 0 0 1 1674.31 1556)"><path d="M77.392 -56.858 Q68.28 -56.858 61.91 -63.236 Q55.54 -69.614 55.54 -78.752 Q55.54 -87.89 61.918 -94.253 Q68.296 -100.617 77.408 -100.617 Q86.52 -100.617 92.89 -94.245 Q99.26 -87.873 99.26 -78.736 Q99.26 -69.598 92.882 -63.228 Q86.504 -56.858 77.392 -56.858 Z M77.4 29.996  38.451 -8.915 Q35.514 -11.891 33.682 -16.317 Q31.85 -20.744 31.85 -26.475 Q31.85 -35.714 38.388 -42.251 Q44.926 -48.789 54.207 -48.789 Q58.485 -48.789 62.206 -46.836 Q65.927 -44.884 68.861 -41.95 L77.4 -33.411 L85.939 -41.95 Q88.835 -44.845 92.575 -46.817 Q96.315 -48.789 100.593 -48.789 Q109.874 -48.789 116.431 -42.251 Q122.988 -35.714 122.988 -26.465 Q122.988 -20.748 121.137 -16.32 Q119.286 -11.891 116.349 -8.915 L77.4 29.996 Z"/></g><g id="Regular-L" transform="matrix(1 0 0 1 1378.56 1556)"><path d="M77.392 -56.434 Q68.531 -56.434 62.363 -62.61 Q56.196 -68.786 56.196 -77.647 Q56.196 -86.507 62.372 -92.675 Q68.548 -98.843 77.408 -98.843 Q86.269 -98.843 92.437 -92.667 Q98.604 -86.491 98.604 -77.631 Q98.604 -68.77 92.428 -62.602 Q86.252 -56.434 77.392 -56.434 Z M77.4 28.222  39.184 -9.994 Q36.362 -12.816 34.588 -17.069 Q32.814 -21.322 32.814 -26.845 Q32.814 -35.714 39.063 -41.962 Q45.311 -48.211 54.205 -48.211 Q58.292 -48.211 61.839 -46.316 Q65.387 -44.421 68.128 -41.68 L77.4 -32.408 L86.672 -41.68 Q89.413 -44.421 92.961 -46.316 Q96.508 -48.211 100.595 -48.211 Q109.489 -48.211 115.737 -41.962 Q121.986 -35.714 121.986 -26.845 Q121.986 -21.322 120.212 -17.069 Q118.438 -12.816 115.616 -9.994 L77.4 28.222 Z"/></g><g id="Light-L" transform="matrix(1 0 0 1 1082.77 1556)"><path d="M77.392 -56.341 Q69.4 -56.341 63.836 -61.913 Q58.273 -67.484 58.273 -75.476 Q58.273 -83.468 63.845 -89.031 Q69.416 -94.595 77.408 -94.595 Q85.4 -94.595 90.964 -89.023 Q96.527 -83.452 96.527 -75.46 Q96.527 -67.467 90.955 -61.904 Q85.384 -56.341 77.392 -56.341 Z M77.4 23.043  40.734 -13.623 Q38.192 -16.166 36.635 -19.984 Q35.078 -23.803 35.078 -28.582 Q35.078 -36.613 40.675 -42.21 Q46.273 -47.807 54.391 -47.807 Q58.013 -47.807 61.235 -46.192 Q64.456 -44.576 67.105 -41.99 L77.4 -31.633 L87.757 -41.99 Q90.219 -44.514 93.503 -46.161 Q96.787 -47.807 100.471 -47.807 Q108.527 -47.807 114.125 -42.21 Q119.722 -36.613 119.722 -28.582 Q119.722 -23.803 118.165 -19.984 Q116.608 -16.166 114.066 -13.623 L77.4 23.043 Z"/></g><g id="Thin-L" transform="matrix(1 0 0 1 787.282 1556)"><path d="M77.392 -56.248 Q70.268 -56.248 65.309 -61.215 Q60.351 -66.181 60.351 -73.306 Q60.351 -80.43 65.318 -85.388 Q70.284 -90.347 77.408 -90.347 Q84.532 -90.347 89.491 -85.38 Q94.449 -80.413 94.449 -73.289 Q94.449 -66.165 89.482 -61.207 Q84.516 -56.248 77.392 -56.248 Z M77.4 17.865  42.285 -17.251 Q40.021 -19.514 38.681 -22.899 Q37.342 -26.284 37.342 -30.318 Q37.342 -37.512 42.288 -42.458 Q47.234 -47.404 54.577 -47.404 Q57.734 -47.404 60.63 -46.068 Q63.526 -44.731 66.082 -42.3 L77.4 -30.858 L88.842 -42.3 Q91.026 -44.607 94.046 -46.006 Q97.066 -47.404 100.347 -47.404 Q107.566 -47.404 112.512 -42.458 Q117.458 -37.512 117.458 -30.318 Q117.458 -26.284 116.119 -22.899 Q114.779 -19.514 112.515 -17.251 L77.4 17.865 Z"/></g><g id="Ultralight-L" transform="matrix(1 0 0 1 491.205 1556)"><path d="M77.392 -56.192 Q70.789 -56.192 66.193 -60.796 Q61.598 -65.4 61.598 -72.003 Q61.598 -78.606 66.201 -83.202 Q70.805 -87.797 77.408 -87.797 Q84.011 -87.797 88.607 -83.194 Q93.203 -78.59 93.203 -71.987 Q93.203 -65.384 88.599 -60.788 Q83.995 -56.192 77.392 -56.192 Z M77.4 14.758  43.215 -19.427 Q41.119 -21.524 39.909 -24.648 Q38.7 -27.772 38.7 -31.36 Q38.7 -38.052 43.255 -42.607 Q47.811 -47.162 54.688 -47.162 Q57.566 -47.162 60.267 -45.993 Q62.968 -44.824 65.468 -42.486 L77.4 -30.392 L89.494 -42.486 Q91.509 -44.663 94.372 -45.913 Q97.234 -47.162 100.273 -47.162 Q106.989 -47.162 111.545 -42.607 Q116.1 -38.052 116.1 -31.36 Q116.1 -27.772 114.891 -24.648 Q113.681 -21.524 111.585 -19.427 L77.4 14.758 Z"/></g><g id="Bold-M" transform="matrix(1 0 0 1 2281.8 1126)"><path d="M59.994 -51.98 Q51.809 -51.98 46.029 -57.766 Q40.25 -63.551 40.25 -71.736 Q40.25 -79.921 46.036 -85.7 Q51.822 -91.48 60.006 -91.48 Q68.191 -91.48 73.971 -85.694 Q79.75 -79.908 79.75 -71.724 Q79.75 -63.539 73.964 -57.759 Q68.178 -51.98 59.994 -51.98 Z M60 20.77  27.625 -11.48 Q24.75 -14.355 23.188 -18.144 Q21.625 -21.933 21.625 -26.48 Q21.625 -35.167 27.844 -41.386 Q34.062 -47.605 42.736 -47.605 Q47 -47.605 50.812 -45.917 Q54.625 -44.23 57.75 -41.105 L60 -38.855 L62.25 -41.105 Q65.125 -43.98 69.062 -45.792 Q73 -47.605 77.263 -47.605 Q85.938 -47.605 92.156 -41.386 Q98.375 -35.167 98.375 -26.448 Q98.375 -21.949 96.812 -18.152 Q95.25 -14.355 92.375 -11.48 L60 20.77 Z"/></g><g id="Semibold-M" transform="matrix(1 0 0 1 1985.97 1126)"><path d="M59.994 -51.165 Q52.327 -51.165 46.913 -56.585 Q41.5 -62.004 41.5 -69.671 Q41.5 -77.338 46.92 -82.752 Q52.339 -88.165 60.006 -88.165 Q67.673 -88.165 73.087 -82.745 Q78.5 -77.325 78.5 -69.659 Q78.5 -61.992 73.08 -56.578 Q67.661 -51.165 59.994 -51.165 Z M60 17.455  28.984 -13.491 Q26.326 -16.148 24.899 -19.615 Q23.473 -23.081 23.473 -27.241 Q23.473 -35.222 29.121 -40.87 Q34.769 -46.518 42.751 -46.518 Q46.674 -46.518 50.133 -44.966 Q53.593 -43.415 56.391 -40.616 L60 -37.007 L63.609 -40.616 Q66.266 -43.273 69.796 -44.896 Q73.326 -46.518 77.249 -46.518 Q85.231 -46.518 90.879 -40.87 Q96.527 -35.222 96.527 -27.222 Q96.527 -23.09 95.101 -19.619 Q93.674 -16.148 91.016 -13.491 L60 17.455 Z"/></g><g id="Medium-M" transform="matrix(1 0 0 1 1689.91 1126)"><path d="M59.994 -50.553 Q52.715 -50.553 47.576 -55.698 Q42.438 -60.844 42.438 -68.122 Q42.438 -75.401 47.583 -80.54 Q52.728 -85.678 60.006 -85.678 Q67.285 -85.678 72.424 -80.533 Q77.562 -75.388 77.562 -68.11 Q77.562 -60.831 72.417 -55.692 Q67.272 -50.553 59.994 -50.553 Z M60 14.968  30.003 -14.999 Q27.508 -17.494 26.183 -20.718 Q24.859 -23.942 24.859 -27.811 Q24.859 -35.263 30.079 -40.483 Q35.299 -45.703 42.761 -45.703 Q46.429 -45.703 49.624 -44.253 Q52.818 -42.803 55.372 -40.249 L60 -35.621 L64.628 -40.249 Q67.122 -42.744 70.347 -44.223 Q73.571 -45.703 77.239 -45.703 Q84.701 -45.703 89.921 -40.483 Q95.141 -35.263 95.141 -27.804 Q95.141 -23.946 93.817 -20.72 Q92.492 -17.494 89.997 -14.999 L60 14.968 Z"/></g><g id="Regular-M" transform="matrix(1 0 0 1 1394.06 1126)"><path d="M59.994 -50.105 Q53 -50.105 48.062 -55.049 Q43.125 -59.993 43.125 -66.986 Q43.125 -73.98 48.069 -78.917 Q53.013 -83.855 60.006 -83.855 Q67 -83.855 71.938 -78.911 Q76.875 -73.967 76.875 -66.974 Q76.875 -59.98 71.931 -55.042 Q66.987 -50.105 59.994 -50.105 Z M60 13.145  30.75 -16.105 Q28.375 -18.48 27.125 -21.527 Q25.875 -24.574 25.875 -28.23 Q25.875 -35.292 30.781 -40.199 Q35.688 -45.105 42.769 -45.105 Q46.25 -45.105 49.25 -43.73 Q52.25 -42.355 54.625 -39.98 L60 -34.605 L65.375 -39.98 Q67.75 -42.355 70.75 -43.73 Q73.75 -45.105 77.231 -45.105 Q84.312 -45.105 89.219 -40.199 Q94.125 -35.292 94.125 -28.23 Q94.125 -24.574 92.875 -21.527 Q91.625 -18.48 89.25 -16.105 L60 13.145 Z"/></g><g id="Light-M" transform="matrix(1 0 0 1 1098.18 1126)"><path d="M59.994 -50.417 Q53.721 -50.417 49.325 -54.82 Q44.928 -59.223 44.928 -65.496 Q44.928 -71.768 49.331 -76.165 Q53.734 -80.561 60.006 -80.561 Q66.279 -80.561 70.675 -76.159 Q75.072 -71.756 75.072 -65.483 Q75.072 -59.211 70.669 -54.814 Q66.266 -50.417 59.994 -50.417 Z M60 9.13  31.952 -18.918 Q29.841 -21.028 28.736 -23.787 Q27.63 -26.545 27.63 -29.769 Q27.63 -36.086 32.007 -40.463 Q36.385 -44.84 42.721 -44.84 Q45.793 -44.84 48.469 -43.634 Q51.144 -42.427 53.303 -40.268 L60 -33.571 L66.697 -40.268 Q68.808 -42.379 71.507 -43.61 Q74.207 -44.84 77.279 -44.84 Q83.615 -44.84 87.993 -40.463 Q92.37 -36.086 92.37 -29.769 Q92.37 -26.545 91.264 -23.787 Q90.159 -21.028 88.048 -18.918 L60 9.13 Z"/></g><g id="Thin-M" transform="matrix(1 0 0 1 802.565 1126)"><path d="M59.994 -50.73 Q54.442 -50.73 50.587 -54.592 Q46.731 -58.454 46.731 -64.005 Q46.731 -69.557 50.593 -73.413 Q54.455 -77.268 60.006 -77.268 Q65.558 -77.268 69.413 -73.406 Q73.269 -69.544 73.269 -63.993 Q73.269 -58.441 69.407 -54.586 Q65.545 -50.73 59.994 -50.73 Z M60 5.116  33.154 -21.73 Q31.308 -23.576 30.346 -26.046 Q29.385 -28.516 29.385 -31.307 Q29.385 -36.879 33.233 -40.728 Q37.082 -44.576 42.673 -44.576 Q45.337 -44.576 47.688 -43.538 Q50.038 -42.499 51.981 -40.557 L60 -32.538 L68.019 -40.557 Q69.865 -42.403 72.264 -43.49 Q74.663 -44.576 77.327 -44.576 Q82.918 -44.576 86.767 -40.728 Q90.615 -36.879 90.615 -31.307 Q90.615 -28.516 89.654 -26.046 Q88.692 -23.576 86.846 -21.73 L60 5.116 Z"/></g><g id="Ultralight-M" transform="matrix(1 0 0 1 506.415 1126)"><path d="M59.994 -50.917 Q54.875 -50.917 51.344 -54.455 Q47.812 -57.993 47.812 -63.111 Q47.812 -68.23 51.35 -71.761 Q54.888 -75.292 60.006 -75.292 Q65.125 -75.292 68.656 -71.755 Q72.188 -68.217 72.188 -63.099 Q72.188 -57.98 68.65 -54.449 Q65.112 -50.917 59.994 -50.917 Z M60 2.708  33.875 -23.417 Q32.188 -25.105 31.312 -27.402 Q30.438 -29.699 30.438 -32.23 Q30.438 -37.355 33.969 -40.886 Q37.5 -44.417 42.644 -44.417 Q45.062 -44.417 47.219 -43.48 Q49.375 -42.542 51.188 -40.73 L60 -31.917 L68.812 -40.73 Q70.5 -42.417 72.719 -43.417 Q74.938 -44.417 77.356 -44.417 Q82.5 -44.417 86.031 -40.886 Q89.562 -37.355 89.562 -32.23 Q89.562 -29.699 88.688 -27.402 Q87.812 -25.105 86.125 -23.417 L60 2.708 Z"/></g><g id="Bold-S" transform="matrix(1 0 0 1 2294.23 696)"><path d="M47.313 -48.446 Q41.173 -48.446 36.86 -52.786 Q32.546 -57.126 32.546 -63.266 Q32.546 -69.406 36.887 -73.72 Q41.227 -78.033 47.367 -78.033 Q53.507 -78.033 57.82 -73.693 Q62.134 -69.353 62.134 -63.213 Q62.134 -57.073 57.793 -52.759 Q53.453 -48.446 47.313 -48.446 Z M47.34 7.376  23.162 -16.886 Q21.007 -19.055 19.824 -22.045 Q18.64 -25.035 18.64 -28.228 Q18.64 -34.688 23.349 -39.446 Q28.059 -44.205 34.508 -44.205 Q37.576 -44.205 40.584 -42.972 Q43.592 -41.739 45.899 -39.369 L47.34 -37.794 L48.781 -39.369 Q50.891 -41.542 53.997 -42.873 Q57.104 -44.205 60.172 -44.205 Q66.621 -44.205 71.331 -39.446 Q76.04 -34.688 76.04 -28.202 Q76.04 -25.047 74.856 -22.051 Q73.673 -19.055 71.518 -16.886 L47.34 7.376 Z"/></g><g id="Semibold-S" transform="matrix(1 0 0 1 1998.1 696)"><path d="M47.313 -47.803 Q41.582 -47.803 37.557 -51.854 Q33.532 -55.906 33.532 -61.637 Q33.532 -67.368 37.584 -71.393 Q41.635 -75.418 47.367 -75.418 Q53.098 -75.418 57.123 -71.366 Q61.148 -67.315 61.148 -61.583 Q61.148 -55.852 57.096 -51.827 Q53.045 -47.803 47.313 -47.803 Z M47.34 4.76  24.234 -18.472 Q22.251 -20.47 21.174 -23.205 Q20.098 -25.94 20.098 -28.828 Q20.098 -34.73 24.357 -39.039 Q28.616 -43.347 34.519 -43.347 Q37.319 -43.347 40.048 -42.222 Q42.778 -41.096 44.827 -38.983 L47.34 -36.336 L49.853 -38.983 Q51.791 -40.985 54.576 -42.166 Q57.361 -43.347 60.161 -43.347 Q66.064 -43.347 70.323 -39.039 Q74.582 -34.73 74.582 -28.813 Q74.582 -25.947 73.506 -23.209 Q72.429 -20.47 70.446 -18.472 L47.34 4.76 Z"/></g><g id="Medium-S" transform="matrix(1 0 0 1 1701.85 696)"><path d="M47.313 -47.32 Q41.888 -47.32 38.08 -51.155 Q34.272 -54.99 34.272 -60.415 Q34.272 -65.84 38.107 -69.648 Q41.942 -73.456 47.367 -73.456 Q52.792 -73.456 56.6 -69.621 Q60.408 -65.786 60.408 -60.361 Q60.408 -54.936 56.573 -51.128 Q52.738 -47.32 47.313 -47.32 Z M47.34 2.799  25.038 -19.662 Q23.183 -21.532 22.187 -24.076 Q21.191 -26.62 21.191 -29.278 Q21.191 -34.763 25.113 -38.733 Q29.034 -42.704 34.528 -42.704 Q37.126 -42.704 39.646 -41.659 Q42.167 -40.614 44.023 -38.694 L47.34 -35.243 L50.657 -38.694 Q52.466 -40.567 55.01 -41.635 Q57.554 -42.704 60.152 -42.704 Q65.646 -42.704 69.567 -38.733 Q73.489 -34.763 73.489 -29.272 Q73.489 -26.623 72.493 -24.077 Q71.497 -21.532 69.642 -19.662 L47.34 2.799 Z"/></g><g id="Regular-S" transform="matrix(1 0 0 1 1405.73 696)"><path d="M47.313 -46.966 Q42.113 -46.966 38.464 -50.642 Q34.815 -54.318 34.815 -59.519 Q34.815 -64.719 38.491 -68.368 Q42.167 -72.017 47.367 -72.017 Q52.567 -72.017 56.216 -68.341 Q59.865 -64.665 59.865 -59.465 Q59.865 -54.265 56.189 -50.615 Q52.513 -46.966 47.313 -46.966 Z M47.34 1.36  25.627 -20.535 Q23.867 -22.31 22.93 -24.714 Q21.993 -27.118 21.993 -29.608 Q21.993 -34.786 25.667 -38.509 Q29.341 -42.232 34.534 -42.232 Q36.984 -42.232 39.351 -41.246 Q41.718 -40.26 43.433 -38.481 L47.34 -34.441 L51.247 -38.481 Q52.962 -40.26 55.329 -41.246 Q57.696 -42.232 60.146 -42.232 Q65.339 -42.232 69.013 -38.509 Q72.687 -34.786 72.687 -29.608 Q72.687 -27.118 71.75 -24.714 Q70.813 -22.31 69.053 -20.535 L47.34 1.36 Z"/></g><g id="Light-S" transform="matrix(1 0 0 1 1109.75 696)"><path d="M47.313 -47.213 Q42.682 -47.213 39.46 -50.462 Q36.237 -53.711 36.237 -58.343 Q36.237 -62.974 39.486 -66.196 Q42.736 -69.419 47.367 -69.419 Q51.998 -69.419 55.22 -66.169 Q58.443 -62.92 58.443 -58.289 Q58.443 -53.658 55.194 -50.435 Q51.944 -47.213 47.313 -47.213 Z M47.34 -1.808  26.576 -22.754 Q25.024 -24.321 24.201 -26.497 Q23.378 -28.673 23.378 -30.822 Q23.378 -35.412 26.634 -38.718 Q29.891 -42.024 34.496 -42.024 Q36.624 -42.024 38.735 -41.17 Q40.846 -40.317 42.39 -38.709 L47.34 -33.625 L52.29 -38.709 Q53.796 -40.279 55.926 -41.151 Q58.056 -42.024 60.184 -42.024 Q64.789 -42.024 68.046 -38.718 Q71.302 -35.412 71.302 -30.822 Q71.302 -28.673 70.479 -26.497 Q69.656 -24.321 68.104 -22.754 L47.34 -1.808 Z"/></g><g id="Thin-S" transform="matrix(1 0 0 1 814.015 696)"><path d="M47.313 -47.459 Q43.251 -47.459 40.455 -50.282 Q37.66 -53.105 37.66 -57.167 Q37.66 -61.229 40.482 -64.025 Q43.305 -66.82 47.367 -66.82 Q51.429 -66.82 54.225 -63.998 Q57.02 -61.175 57.02 -57.113 Q57.02 -53.051 54.198 -50.255 Q51.375 -47.459 47.313 -47.459 Z M47.34 -4.975  27.524 -24.973 Q26.181 -26.331 25.472 -28.28 Q24.762 -30.229 24.762 -32.036 Q24.762 -36.038 27.602 -38.927 Q30.441 -41.815 34.458 -41.815 Q36.264 -41.815 38.119 -41.094 Q39.974 -40.374 41.347 -38.937 L47.34 -32.81 L53.333 -38.937 Q54.631 -40.298 56.523 -41.056 Q58.416 -41.815 60.222 -41.815 Q64.239 -41.815 67.078 -38.927 Q69.918 -36.038 69.918 -32.036 Q69.918 -30.229 69.208 -28.28 Q68.499 -26.331 67.156 -24.973 L47.34 -4.975 Z"/></g><g id="Ultralight-S" transform="matrix(1 0 0 1 517.792 696)"><path d="M47.313 -47.607 Q43.592 -47.607 41.053 -50.174 Q38.513 -52.74 38.513 -56.461 Q38.513 -60.182 41.08 -62.722 Q43.646 -65.261 47.367 -65.261 Q51.088 -65.261 53.627 -62.695 Q56.167 -60.128 56.167 -56.407 Q56.167 -52.687 53.6 -50.147 Q51.034 -47.607 47.313 -47.607 Z M47.34 -6.875  28.093 -26.304 Q26.875 -27.537 26.234 -29.349 Q25.593 -31.162 25.593 -32.764 Q25.593 -36.413 28.182 -39.052 Q30.771 -41.69 34.435 -41.69 Q36.047 -41.69 37.749 -41.049 Q39.45 -40.408 40.721 -39.073 L47.34 -32.321 L53.959 -39.073 Q55.131 -40.309 56.882 -41 Q58.633 -41.69 60.245 -41.69 Q63.909 -41.69 66.498 -39.052 Q69.087 -36.413 69.087 -32.764 Q69.087 -31.162 68.446 -29.349 Q67.805 -27.537 66.587 -26.304 L47.34 -6.875 Z"/></g></g></svg>