<svg xmlns="http://www.w3.org/2000/svg" height="40" width="40"><path d="M0 35v-5q0-1.667.792-2.958Q1.583 25.75 3 25.083q3-1.375 5.667-2.041 2.666-.667 5.5-.667 2.791 0 5.458.667 2.667.666 5.667 2.041 1.416.667 2.229 1.959.812 1.291.812 2.958v5Zm31.25 0v-5.208q0-2.334-1.188-4.271-1.187-1.938-3.354-3.229 2.959.333 5.563 1.02Q34.875 24 36.708 25q1.584.875 2.459 2.125t.875 2.667V35ZM14.167 19.75q-3.125 0-5.146-2.021T7 12.625q0-3.083 2.021-5.146 2.021-2.062 5.104-2.062t5.146 2.062q2.062 2.063 2.062 5.104 0 3.125-2.062 5.146-2.063 2.021-5.104 2.021Zm10.708 0q-.583 0-1.437-.104-.855-.104-1.396-.313 1.083-1.291 1.625-3 .541-1.708.541-3.708 0-2.042-.541-3.687-.542-1.646-1.625-3.105.625-.166 1.396-.291.77-.125 1.437-.125 3.083 0 5.125 2.062 2.042 2.063 2.042 5.104 0 3.125-2.042 5.146t-5.125 2.021Z"/></svg>