<svg xmlns="http://www.w3.org/2000/svg" height="20" viewBox="0 -960 960 960" width="20"><path d="m750.891-107.869-57.413-56.653h27.457q0 12.109-8.181 20.381t-20.381 8.272q-12.199 0-20.471-8.207t-8.272-20.446v-29.609L526.304-331.456h-52.087q-38 0-59.5-31.5t-6.5-67.5l4.87-14.218-306.935-306.935q-11.478-11.145-11.478-26.529T106.152-805q11.478-11.479 26.862-11.479 15.384 0 26.529 11.479l644.659 644.658q11.559 11.56 11.559 26.459t-11.478 26.014q-11.145 11.478-26.529 11.478t-26.863-11.478Zm-10.717-223.283-77.326-77.326h11.782q25.874 1.913 44.753 20.791 18.878 18.878 20.791 44.752v11.783ZM600.63-470.696 396.457-674.87H573.13q41.631 0 63.49 33.718 21.858 33.717 3.663 71.869l-39.653 98.587ZM330.991-87.869q-81.209 0-138.285-57.303-57.076-57.302-57.076-138.511 0-81.447 57.236-138.404 57.236-56.956 138.351-56.956v79.174q-48.565 0-82.489 33.924-33.924 33.923-33.924 82.489 0 48.326 34.044 82.369 34.043 34.044 82.369 34.044 48.565 0 82.489-34.044 33.924-34.043 33.924-82.369h79.174q0 81.434-57.182 138.511-57.183 57.076-138.631 57.076Zm330.674-597.327q-36.426 0-61.882-25.704-25.457-25.704-25.457-62.131 0-36.426 25.704-61.882 25.705-25.457 62.131-25.457t61.883 25.705q25.456 25.704 25.456 62.13t-25.704 61.883q-25.705 25.456-62.131 25.456Z"/></svg>