<svg xmlns="http://www.w3.org/2000/svg" height="40" viewBox="0 -960 960 960" width="40"><path d="M199.33-553.83v364.5h561.34v-364.5H199.33Zm280.44 286q-29.27 0-49.6-20.59-20.34-20.58-20.34-50.75 0-25 16.34-55.83 16.33-30.83 53.66-83 37.04 52.15 53.52 82.93 16.48 30.78 16.48 55.9 0 30.17-20.55 50.75-20.54 20.59-49.51 20.59Zm208.9-389.5q13 0 22.5-9.17t9.5-22.17q0-13-9.53-22.5-9.52-9.5-21.97-9.5-13.5 0-22.67 9.53-9.17 9.52-9.17 21.97 0 13.5 9.17 22.67 9.17 9.17 22.17 9.17ZM98-98v-764.67h764.67V-98H98Z"/></svg>