<svg xmlns="http://www.w3.org/2000/svg" height="40" viewBox="0 -960 960 960" width="40"><path d="M463.99-506.78v106.65q0 7.13 4.41 11.5 4.41 4.36 11.6 4.36 7.19 0 11.81-4.36 4.61-4.37 4.61-11.5v-106.65h105.94q7.13 0 11.85-4.41 4.73-4.41 4.73-11.6 0-7.2-4.73-11.81-4.72-4.62-11.85-4.62H496.42v-105.93q0-7.13-4.77-11.86-4.76-4.72-11.96-4.72-7.19 0-11.45 4.72-4.25 4.73-4.25 11.86v105.93H357.33q-7.13 0-11.49 4.77-4.37 4.77-4.37 11.96 0 7.2 4.37 11.45 4.36 4.26 11.49 4.26h106.66Zm415.69 268.73L770.44-347.29q-4.31-4.19-4.5-11.11-.2-6.92 4.47-12.51 5.44-4.36 12.19-4.36 6.76 0 11.45 4.36L906.62-258.5q8.73 9.03 8.73 20.5 0 11.46-8.73 19.68L794.05-105.76q-4.9 4.82-11.65 5.21-6.76.38-11.71-5.33-4.95-4.99-4.95-11.54 0-6.55 4.7-12.11l109.24-108.52Zm-485.84 75.51q-12.74 0-20.9-8.26-8.17-8.26-8.17-20.62v-50.84h-184.9q-23.63 0-40.34-16.71-16.71-16.71-16.71-40.34v-441.1q0-23.63 16.71-40.34 16.71-16.71 40.34-16.71h600.26q23.63 0 40.34 16.71 16.71 16.71 16.71 40.34v243.14q0 7.13-4.72 11.85-4.73 4.73-11.14 4.73h-82.67q-24.27 0-40.66 16.95-16.39 16.95-16.39 40.1v164.81q0 7.13-4.72 11.85-4.73 4.72-11.85 4.72h-65.66v50.84q0 12.36-8.26 20.62-8.26 8.26-20.62 8.26H393.84Z"/></svg>