<svg xmlns="http://www.w3.org/2000/svg" height="48" viewBox="0 -960 960 960" width="48"><path d="M140.77-480q0 62.46 21.31 120.5t63.07 103.65q6.47 6.46 6.97 15.04.5 8.58-5.97 15.04-6.46 6.46-15.23 5.46-8.76-1-15.23-7.84-46-52.24-70.65-115.89-24.65-63.65-24.65-135.96t24.65-135.96q24.65-63.65 70.65-116.27 6.47-6.46 15.23-7.46 8.77-1 15.23 5.46 6.47 6.46 5.97 15.04-.5 8.58-6.97 15.04-41.76 45.61-63.07 103.65-21.31 58.04-21.31 120.5Zm108.08 0q0 40.54 14.19 79.31t40.19 68.38q5.85 6.46 6.66 14.73.8 8.27-5.66 14.73-6.46 6.46-15.23 5.66-8.77-.81-14.61-7.66-30.62-37.23-48.27-81.46-17.66-44.23-17.66-93.69t17.66-93.69q17.65-44.23 48.27-81.46 5.84-6.85 14.11-7.16 8.27-.3 14.73 6.16 6.46 6.46 6.16 14.23-.31 7.77-6.16 14.23-26 29.61-40.19 68.38-14.19 38.77-14.19 79.31ZM447-306.15q-2.31-25.24-16.73-47.43t-30.77-44.23q-16.35-22.04-30-45.61Q355.85-467 355.85-495q0-51.15 36.5-87.65 36.5-36.5 87.65-36.5 51.15 0 87.65 36.5 36.5 36.5 36.5 87.65 0 27.61-13.65 51.38-13.65 23.77-30 45.81-16.35 22.04-30.77 44.23-14.42 22.19-16.73 47.43h-66Zm-.85 58.84v-11.15h67.7v11.15q0 14.31-9.77 24.08-9.77 9.77-24.08 9.77-14.31 0-24.08-9.77-9.77-9.77-9.77-24.08ZM711.92-480q0-40.54-14.19-79.31t-40.19-68.38q-5.85-6.46-6.66-14.73-.8-8.27 5.66-14.73 6.46-6.46 15.23-5.66 8.77.81 14.61 7.66 30.62 37.23 48.27 81.46 17.66 44.23 17.66 93.69t-17.66 93.69q-17.65 44.23-48.27 81.46-5.84 6.85-14.11 7.16-8.27.3-14.73-6.16-6.46-6.46-6.16-14.23.31-7.77 6.16-14.23 26-29.61 40.19-68.38 14.19-38.77 14.19-79.31ZM820-480q0-62.46-21.31-120.5T736-704.15q-6.85-6.46-7.35-15.04-.5-8.58 5.96-15.04 6.47-6.46 15.24-5.46 8.76 1 15.23 7.46 46 52.62 70.65 116.27 24.65 63.65 24.65 135.96t-24.65 135.96q-24.65 63.65-70.65 115.89-6.47 6.84-15.23 7.84-8.77 1-15.24-5.46-6.46-6.46-5.96-15.04.5-8.58 7.35-15.04 41.38-45.61 62.69-103.65Q820-417.54 820-480Z"/></svg>