<svg xmlns="http://www.w3.org/2000/svg" height="24" viewBox="0 -960 960 960" width="24"><path d="m672.41-127.59-11.24-58.19q-12.04-4.52-22.56-10.15-10.52-5.64-20.81-13.42l-55.19 17.48-40.87-69.26 43.96-37.72q-2.5-12.54-2.5-25.56t2.5-25.57l-43.96-37.72 40.87-69.02 55.19 17.24q10.29-7.78 20.81-13.29 10.52-5.51 22.56-10.03l11.24-58.2h80.98l11.48 58.2q12.04 4.52 22.56 9.53 10.53 5.01 20.81 13.79l54.96-17.24 41.1 69.02-44.19 37.72q2.5 12.55 2.5 25.57t-2.5 25.56l44.19 37.72-41.1 69.26-54.96-17.48q-10.28 7.78-20.81 13.42-10.52 5.63-22.56 10.15l-11.48 58.19h-80.98Zm-551.54-33.28v-718.26h718.26v303.93q-20.15-10.41-41.4-17.22-21.25-6.82-44.6-10.06v-190.65H206.87v352.7H368q9.76 24.28 27.68 42.18 17.93 17.9 39.97 27.38-9.41 54.13 2.57 109.99 11.98 55.86 45.63 100.01H120.87Zm592.15-85.22q32.05 0 55.07-23.14 23.02-23.14 23.02-55.18 0-32.05-23.02-55.07-23.02-23.02-55.07-23.02-32.04 0-55.18 23.02t-23.14 55.07q0 32.04 23.14 55.18t55.18 23.14Z"/></svg>