<svg xmlns="http://www.w3.org/2000/svg" height="24" width="24"><path d="M11.1 19.575q-.325 0-.512-.2-.188-.2-.188-.525V16.6H8.05q-.3 0-.462-.187-.163-.188-.163-.463V12.7H6.75q-.4 0-.587-.375-.188-.375.037-.75L7.525 9.2q.2-2.2 1.838-3.5Q11 4.4 13 4.4q2.325 0 3.963 1.612Q18.6 7.625 18.6 9.95q0 1.75-1.1 3.225t-2.85 2.25v3.425q0 .325-.2.525t-.525.2Zm1.925-6.75H13q.15 0 .25-.1t.125-.25l.025-.325q.45-.075.763-.25.312-.175.537-.45l.25.1q.125.05.263.037.137-.012.237-.137l-.025.025q.075-.125.038-.275-.038-.15-.163-.25l-.225-.125q.15-.425.15-.825 0-.4-.15-.825l.225-.15q.125-.1.175-.25.05-.15-.05-.275l.025.05q-.1-.125-.237-.163-.138-.037-.263.038l-.25.1q-.225-.25-.55-.438-.325-.187-.75-.237l-.025-.325q-.025-.15-.125-.263-.1-.112-.25-.112h.025q-.15 0-.25.112-.1.113-.1.263l-.025.325q-.45.05-.775.237-.325.188-.55.438l-.25-.1q-.125-.05-.25-.025t-.225.15V8.5q-.05.125-.012.275.037.15.162.25l.225.15q-.15.425-.15.825 0 .4.15.825l-.225.125q-.125.1-.175.25-.05.15.025.275v-.025q.1.125.225.15.125.025.25-.05l.25-.1q.225.275.55.45.325.175.775.25l.025.325q.025.15.113.25.087.1.237.1Zm0-1.275q-.65 0-1.1-.45-.45-.45-.45-1.1 0-.65.45-1.1.45-.45 1.1-.45.65 0 1.1.45.45.45.45 1.1 0 .65-.45 1.1-.45.45-1.1.45Z"/></svg>