<svg xmlns="http://www.w3.org/2000/svg" height="24" width="24"><path d="M10.325 14.1h3.95v-1.4h-3.95Zm0-3.4h6.9V9.3h-6.9Zm0-3.4h6.9V5.9h-6.9ZM8.35 17.75q-.975 0-1.625-.65t-.65-1.625V4.525q0-.975.65-1.625t1.625-.65H19.3q.975 0 1.625.65t.65 1.625v10.95q0 .975-.65 1.625t-1.625.65Zm0-1.65H19.3q.25 0 .438-.187.187-.188.187-.438V4.525q0-.25-.187-.438Q19.55 3.9 19.3 3.9H8.35q-.25 0-.438.187-.187.188-.187.438v10.95q0 .25.187.438.188.187.438.187ZM4.7 21.4q-.975 0-1.625-.65t-.65-1.625v-12.6h1.65v12.6q0 .25.188.437.187.188.437.188h12.6v1.65ZM7.725 3.9v12.2V3.9Z"/></svg>