<svg xmlns="http://www.w3.org/2000/svg" height="40" width="40"><path d="M15.125 18.458H30.833V15.583H15.125ZM15.125 22.75H23.75V19.875H15.125ZM15.125 14.208H30.833V11.333H15.125ZM11.958 31.208Q10.667 31.208 9.729 30.271Q8.792 29.333 8.792 28.042V6.042Q8.792 4.708 9.729 3.792Q10.667 2.875 11.958 2.875H33.958Q35.292 2.875 36.208 3.792Q37.125 4.708 37.125 6.042V28.042Q37.125 29.333 36.208 30.271Q35.292 31.208 33.958 31.208ZM6.042 37.125Q4.708 37.125 3.792 36.208Q2.875 35.292 2.875 33.958V8.792H6.042V33.958Q6.042 33.958 6.042 33.958Q6.042 33.958 6.042 33.958H31.208V37.125Z"/></svg>