<svg xmlns="http://www.w3.org/2000/svg" height="48" viewBox="0 -960 960 960" width="48"><path d="M208.85-180q-12.26 0-20.56-8.29-8.29-8.3-8.29-20.56v-388.07q0-12.26 8.29-20.55 8.3-8.3 20.56-8.3h67.69q12.26 0 20.55 8.3 8.3 8.29 8.3 20.55v388.07q0 12.26-8.3 20.56-8.29 8.29-20.55 8.29h-67.69Zm195 0q-12.26 0-20.56-8.3-8.29-8.3-8.29-20.56v-195.46q0-12.27 8.29-20.51 8.3-8.25 20.56-8.25h67.69q12.26 0 20.55 8.3 8.29 8.3 8.29 20.56v195.46q0 12.27-8.29 20.51-8.29 8.25-20.55 8.25h-67.69Zm279.61 0q-12.26 0-20.55-8.29-8.3-8.3-8.3-20.56v-542.3q0-12.26 8.3-20.56 8.29-8.29 20.55-8.29h67.69q12.26 0 20.56 8.29 8.29 8.3 8.29 20.56v542.3q0 12.26-8.29 20.56-8.3 8.29-20.56 8.29h-67.69Z"/></svg>