<svg xmlns="http://www.w3.org/2000/svg" height="24" width="24"><path d="M3 22.5Q2.4 22.5 1.95 22.05Q1.5 21.6 1.5 21V3Q1.5 2.375 1.95 1.925Q2.4 1.475 3 1.475Q3.625 1.475 4.075 1.925Q4.525 2.375 4.525 3V21Q4.525 21.6 4.075 22.05Q3.625 22.5 3 22.5ZM12 17.5Q11.15 17.5 10.575 16.925Q10 16.35 10 15.5V8.5Q10 7.65 10.575 7.062Q11.15 6.475 12 6.475Q12.85 6.475 13.438 7.062Q14.025 7.65 14.025 8.5V15.5Q14.025 16.35 13.438 16.925Q12.85 17.5 12 17.5ZM21 22.5Q20.4 22.5 19.95 22.05Q19.5 21.6 19.5 21V3Q19.5 2.375 19.95 1.925Q20.4 1.475 21 1.475Q21.625 1.475 22.075 1.925Q22.525 2.375 22.525 3V21Q22.525 21.6 22.075 22.05Q21.625 22.5 21 22.5Z"/></svg>