<svg xmlns="http://www.w3.org/2000/svg" height="24" width="24"><path d="M12 20.8q-1.575 0-2.887-.775Q7.8 19.25 7.025 17.95h-2.85V16.3H6.45q-.15-.575-.175-1.112-.025-.538-.025-1.338H4.175V12.2H6.25q0-.875.025-1.413.025-.537.175-.987H4.175V8.15h2.85q.35-.6.913-1.138.562-.537 1.137-.912L7.3 4.35l1.15-1.1 2.175 2.15q.575-.175 1.4-.175t1.4.175l2.15-2.15 1.125 1.1-1.75 1.75q.575.375 1.125.912.55.538.9 1.138h2.85V9.8H17.55q.15.55.175 1.037.025.488.025 1.363h2.075v1.65H17.75q0 .8-.025 1.338-.025.537-.175 1.112h2.275v1.65h-2.85q-.775 1.3-2.088 2.075-1.312.775-2.887.775Zm-1.95-9h3.9v-1.65h-3.9Zm0 4.1h3.9v-1.65h-3.9Z"/></svg>