<svg xmlns="http://www.w3.org/2000/svg" height="24" width="24"><path d="M21.55 17.925 20.15 16.525V8.95Q20.15 8.6 19.925 8.375Q19.7 8.15 19.35 8.15H12.325L10.9 6.725Q10.775 6.6 10.65 6.55Q10.525 6.5 10.35 6.5H10.125L8.775 5.15H9.45Q9.9 5.15 10.3 5.325Q10.7 5.5 11 5.8L12 6.8H19.35Q20.275 6.8 20.888 7.412Q21.5 8.025 21.5 8.95V17.575Q21.5 17.75 21.513 17.812Q21.525 17.875 21.55 17.925ZM21.15 22.3 18.575 19.7H4.65Q3.725 19.7 3.112 19.087Q2.5 18.475 2.5 17.55V7.3Q2.5 6.65 2.925 6.125Q3.35 5.6 4 5.6H4.5L3.425 4.525Q3.35 4.325 3.388 4.137Q3.425 3.95 3.6 3.775Q3.875 3.5 4.113 3.512Q4.35 3.525 4.6 3.775L22.125 21.3Q22.325 21.5 22.325 21.775Q22.325 22.05 22.125 22.275Q21.925 22.5 21.65 22.512Q21.375 22.525 21.15 22.3ZM4.65 18.35H17.2L5.825 6.975H4.65Q4.3 6.975 4.075 7.2Q3.85 7.425 3.85 7.775V17.55Q3.85 17.9 4.075 18.125Q4.3 18.35 4.65 18.35ZM11.525 12.675Q11.525 12.675 11.525 12.675Q11.525 12.675 11.525 12.675Q11.525 12.675 11.525 12.675Q11.525 12.675 11.525 12.675ZM15.1 11.475Q15.1 11.475 15.1 11.475Q15.1 11.475 15.1 11.475Q15.1 11.475 15.1 11.475Q15.1 11.475 15.1 11.475Z"/></svg>