<svg xmlns="http://www.w3.org/2000/svg" height="40" viewBox="0 -960 960 960" width="40"><path d="m780.33-290-427-428q-9-9-4.5-19.5t16.5-10.5q3.67 0 6.5 1.33 2.84 1.34 5.5 3.34L448.67-672H772q24 0 40 16t16 40v306q0 18.67-17.17 26-17.16 7.33-30.5-6ZM188-212q-24 0-40-16t-16-40v-424q0-24 16-40t40-16h26.67l56 56h-34L138-790q-3.33-3.33-3.5-8.17-.17-4.83 3.5-9.16 4.33-4.34 8.67-4.34 4.33 0 8.66 4.34l698 697.33q2.67 3.33 3.17 8.17.5 4.83-3.17 9.16-4.33 4.34-8.66 4.34-4.34 0-8.67-4.34L716.67-212H188Z"/></svg>