<svg xmlns="http://www.w3.org/2000/svg" version="1.1" width="3300" height="2000"><g id="Notes"><style>
    text {
      font-family: monospace;
      text-anchor: middle;
    }
    text.emphasis {
      font-weight:bold;
    }
    text.lanchor {
      text-anchor: start;
    }
  </style><rect height="2200" id="artboard" fill="white" width="3300" x="0" y="0"/><line id="" style="fill:none;stroke:black;stroke-width:0.5;" x1="263" x2="3036" y1="292" y2="292"/><text class="lanchor emphasis" transform="matrix(1 0 0 1 263 322)">Weight/Scale Variations</text><text transform="matrix(1 0 0 1 559.711 322)">Ultralight</text><text transform="matrix(1 0 0 1 856.422 322)">Thin</text><text transform="matrix(1 0 0 1 1153.13 322)">Light</text><text transform="matrix(1 0 0 1 1449.84 322)">Regular</text><text transform="matrix(1 0 0 1 1746.56 322)">Medium</text><text transform="matrix(1 0 0 1 2043.27 322)">Semibold</text><text transform="matrix(1 0 0 1 2339.98 322)">Bold</text><text transform="matrix(1 0 0 1 2636.69 322)">Heavy</text><text transform="matrix(1 0 0 1 2933.4 322)">Black</text><text id="template-version" style="text-anchor: end;" transform="matrix(1 0 0 1 3036 1933)">Template v.1.0</text><text class="lanchor" transform="matrix(1 0 0 1 263 726)">Small</text><text class="lanchor" transform="matrix(1 0 0 1 263 1156)">Medium</text><text class="lanchor" transform="matrix(1 0 0 1 263 1586)">Large</text></g><g id="Guides"><g id="H-reference" style="fill:#27AAE1;stroke:none;" transform="matrix(1 0 0 1 339 696)"><path d="M 54.9316 0 L 57.666 0 L 30.5664 -70.459 L 28.0762 -70.459 L 0.976562 0 L 3.66211 0 L 12.9395 -24.4629 L 45.7031 -24.4629 Z M 29.1992 -67.0898 L 29.4434 -67.0898 L 44.8242 -26.709 L 13.8184 -26.709 Z"/></g><line id="Baseline-S" style="fill:none;stroke:#27AAE1;opacity:1;stroke-width:0.577;" x1="263" x2="3036" y1="696" y2="696"/><line id="Capline-S" style="fill:none;stroke:#27AAE1;opacity:1;stroke-width:0.577;" x1="263" x2="3036" y1="625.541" y2="625.541"/><g id="H-reference" style="fill:#27AAE1;stroke:none;" transform="matrix(1 0 0 1 339 1126)"><path d="M 54.9316 0 L 57.666 0 L 30.5664 -70.459 L 28.0762 -70.459 L 0.976562 0 L 3.66211 0 L 12.9395 -24.4629 L 45.7031 -24.4629 Z M 29.1992 -67.0898 L 29.4434 -67.0898 L 44.8242 -26.709 L 13.8184 -26.709 Z"/></g><line id="Baseline-M" style="fill:none;stroke:#27AAE1;opacity:1;stroke-width:0.577;" x1="263" x2="3036" y1="1126" y2="1126"/><line id="Capline-M" style="fill:none;stroke:#27AAE1;opacity:1;stroke-width:0.577;" x1="263" x2="3036" y1="1055.54" y2="1055.54"/><g id="H-reference" style="fill:#27AAE1;stroke:none;" transform="matrix(1 0 0 1 339 1556)"><path d="M 54.9316 0 L 57.666 0 L 30.5664 -70.459 L 28.0762 -70.459 L 0.976562 0 L 3.66211 0 L 12.9395 -24.4629 L 45.7031 -24.4629 Z M 29.1992 -67.0898 L 29.4434 -67.0898 L 44.8242 -26.709 L 13.8184 -26.709 Z"/></g><line id="Baseline-L" style="fill:none;stroke:#27AAE1;opacity:1;stroke-width:0.577;" x1="263" x2="3036" y1="1556" y2="1556"/><line id="Capline-L" style="fill:none;stroke:#27AAE1;opacity:1;stroke-width:0.577;" x1="263" x2="3036" y1="1485.54" y2="1485.54"/><rect height="119.336" id="left-margin" style="fill:darkred;stroke:none;opacity:0.4;" width="12.4512" x="1394.06" y="1030.79"/><rect height="119.336" id="right-margin" style="fill:darkgreen;stroke:none;opacity:0.4;" width="12.4512" x="1502.5112" y="1030.79"/><rect x="1406.5112" y="1045" width="96" height="96" fill="none" stroke="blue" stroke-dasharray="5"/><rect x="1394.06" y="1030.79" width="120.9024" height="119.336" fill="none" stroke="blue"/></g><g id="Symbols"><g id="Bold-L" transform="matrix(1 0 0 1 2266 1556)"><path d="M77.4 -96.263  92.719 -111.421 Q94.896 -113.597 97.879 -113.597 Q100.862 -113.597 103.119 -111.421 Q105.296 -109.163 105.296 -106.301 Q105.296 -103.439 103.119 -101.02 L82.641 -80.702 Q80.383 -78.526 77.4 -78.526 Q74.417 -78.526 72.24 -80.702 L62.081 -90.861 Q59.904 -93.038 59.783 -95.941 Q59.663 -98.843 61.86 -101.101 Q64.15 -103.277 67.262 -103.277 Q70.374 -103.277 72.562 -101.101 L77.4 -96.263 Z M16.044 36.768 V-13.461 Q16.044 -14.429 16.206 -15.638 Q16.367 -16.847 16.849 -17.963 L29.106 -54.822 Q30.476 -59.337 34.266 -61.997 Q38.055 -64.658 42.812 -64.658 H111.988 Q116.745 -64.658 120.534 -61.997 Q124.324 -59.337 125.936 -54.822 L137.951 -17.963 Q138.433 -16.847 138.675 -15.638 Q138.917 -14.429 138.917 -13.461 V36.929 Q138.917 40.303 136.438 42.728 Q133.96 45.153 130.513 45.153 Q127.146 45.153 124.566 42.56 Q121.986 39.966 121.986 36.607 V31.769 H32.653 V36.929 Q32.653 40.303 30.212 42.728 Q27.769 45.153 24.373 45.153 Q20.882 45.153 18.463 42.607 Q16.044 40.061 16.044 36.768 Z M34.669 -24.426 H120.293 L111.827 -49.904 Q111.827 -49.904 111.827 -49.904 Q111.827 -49.904 111.827 -49.904 H42.973 Q42.973 -49.904 42.973 -49.904 Q42.973 -49.904 42.973 -49.904 L34.669 -24.426 Z M47.029 9.678 Q50.552 9.678 53.092 7.198 Q55.631 4.718 55.631 1.151 Q55.631 -2.63 53.071 -5.184 Q50.51 -7.737 47.104 -7.737 Q43.162 -7.737 40.688 -5.213 Q38.216 -2.691 38.216 1.075 Q38.216 4.76 40.659 7.219 Q43.101 9.678 47.029 9.678 Z M108.018 9.678 Q111.799 9.678 114.354 7.198 Q116.906 4.718 116.906 1.151 Q116.906 -2.63 114.383 -5.184 Q111.861 -7.737 108.094 -7.737 Q104.409 -7.737 101.95 -5.213 Q99.491 -2.691 99.491 1.075 Q99.491 4.76 101.971 7.219 Q104.451 9.678 108.018 9.678 Z"/></g><g id="Semibold-L" transform="matrix(1 0 0 1 1970.27 1556)"><path d="M77.4 -92.758  95.173 -110.439 Q96.998 -112.266 99.491 -112.266 Q101.984 -112.266 103.89 -110.439 Q105.717 -108.533 105.717 -106.125 Q105.717 -103.719 103.89 -101.721 L81.799 -79.72 Q79.906 -77.895 77.406 -77.895 Q74.907 -77.895 73.082 -79.72 L62.852 -89.879 Q61.027 -91.706 60.94 -94.152 Q60.854 -96.6 62.702 -98.506 Q64.618 -100.333 67.215 -100.333 Q69.815 -100.333 71.651 -98.506 L77.4 -92.758 Z M17.797 36.138 V-13.392 Q17.797 -14.219 17.923 -15.217 Q18.049 -16.217 18.462 -17.193 L30.858 -54.472 Q32.018 -58.286 35.212 -60.525 Q38.405 -62.765 42.391 -62.765 H112.409 Q116.395 -62.765 119.588 -60.525 Q122.782 -58.286 124.114 -54.472 L136.338 -17.193 Q136.751 -16.217 136.922 -15.217 Q137.095 -14.219 137.095 -13.392 V36.228 Q137.095 39.221 134.897 41.381 Q132.701 43.541 129.655 43.541 Q126.655 43.541 124.39 41.265 Q122.126 38.99 122.126 35.976 V30.157 H32.513 V36.228 Q32.513 39.221 30.336 41.381 Q28.161 43.541 25.144 43.541 Q22.074 43.541 19.935 41.312 Q17.797 39.085 17.797 36.138 Z M33.898 -24.286 H120.994 L112.317 -50.394 Q112.317 -50.394 112.317 -50.394 Q112.317 -50.394 112.317 -50.394 H42.483 Q42.483 -50.394 42.483 -50.394 Q42.483 -50.394 42.483 -50.394 L33.898 -24.286 Z M46.677 10.099 Q50.271 10.099 52.776 7.619 Q55.281 5.137 55.281 1.572 Q55.281 -2.209 52.755 -4.763 Q50.229 -7.316 46.753 -7.316 Q42.881 -7.316 40.374 -4.792 Q37.866 -2.27 37.866 1.496 Q37.866 5.181 40.343 7.64 Q42.822 10.099 46.677 10.099 Z M108.299 10.099 Q112.08 10.099 114.634 7.619 Q117.187 5.137 117.187 1.572 Q117.187 -2.209 114.663 -4.763 Q112.14 -7.316 108.375 -7.316 Q104.69 -7.316 102.231 -4.792 Q99.772 -2.27 99.772 1.496 Q99.772 5.181 102.252 7.64 Q104.732 10.099 108.299 10.099 Z"/></g><g id="Medium-L" transform="matrix(1 0 0 1 1674.31 1556)"><path d="M77.4 -90.129  97.013 -109.703 Q98.577 -111.266 100.701 -111.266 Q102.824 -111.266 104.469 -109.703 Q106.033 -108.059 106.033 -105.995 Q106.033 -103.929 104.469 -102.247 L81.168 -78.985 Q79.546 -77.421 77.411 -77.421 Q75.276 -77.421 73.712 -78.985 L63.431 -89.144 Q61.867 -90.706 61.807 -92.812 Q61.747 -94.917 63.333 -96.561 Q64.969 -98.124 67.182 -98.124 Q69.394 -98.124 70.968 -96.561 L77.4 -90.129 Z M19.111 35.664 V-13.339 Q19.111 -14.061 19.211 -14.901 Q19.311 -15.743 19.671 -16.614 L32.173 -54.209 Q33.176 -57.497 35.922 -59.421 Q38.668 -61.346 42.075 -61.346 H112.725 Q116.132 -61.346 118.878 -59.421 Q121.624 -57.497 122.747 -54.209 L135.129 -16.614 Q135.489 -15.743 135.608 -14.901 Q135.727 -14.061 135.727 -13.339 V35.702 Q135.727 38.411 133.741 40.37 Q131.756 42.331 129.011 42.331 Q126.286 42.331 124.259 40.295 Q122.231 38.258 122.231 35.502 V28.948 H32.408 V35.702 Q32.408 38.411 30.431 40.37 Q28.454 42.331 25.723 42.331 Q22.967 42.331 21.04 40.341 Q19.111 38.353 19.111 35.664 Z M33.319 -24.181 H121.52 L112.686 -50.763 Q112.686 -50.763 112.686 -50.763 Q112.686 -50.763 112.686 -50.763 H42.114 Q42.114 -50.763 42.114 -50.763 Q42.114 -50.763 42.114 -50.763 L33.319 -24.181 Z M46.414 10.415 Q50.062 10.415 52.54 7.933 Q55.019 5.453 55.019 1.887 Q55.019 -1.895 52.518 -4.447 Q50.018 -7 46.49 -7 Q42.67 -7 40.137 -4.478 Q37.603 -1.954 37.603 1.811 Q37.603 5.497 40.106 7.956 Q42.61 10.415 46.414 10.415 Z M108.51 10.415 Q112.291 10.415 114.844 7.933 Q117.396 5.453 117.396 1.887 Q117.396 -1.895 114.874 -4.447 Q112.351 -7 108.586 -7 Q104.9 -7 102.441 -4.478 Q99.981 -1.954 99.981 1.811 Q99.981 5.497 102.463 7.956 Q104.943 10.415 108.51 10.415 Z"/></g><g id="Regular-L" transform="matrix(1 0 0 1 1378.56 1556)"><path d="M77.4 -88.201  98.362 -109.163 Q99.733 -110.534 101.588 -110.534 Q103.442 -110.534 104.893 -109.163 Q106.264 -107.712 106.264 -105.898 Q106.264 -104.084 104.893 -102.632 L80.706 -78.445 Q79.283 -77.074 77.415 -77.074 Q75.546 -77.074 74.175 -78.445 L63.855 -88.604 Q62.484 -89.974 62.444 -91.829 Q62.404 -93.683 63.795 -95.134 Q65.226 -96.505 67.156 -96.505 Q69.084 -96.505 70.466 -95.134 L77.4 -88.201 Z M20.076 35.317 V-13.3 Q20.076 -13.945 20.156 -14.671 Q20.237 -15.396 20.558 -16.19 L33.137 -54.016 Q34.024 -56.918 36.443 -58.611 Q38.861 -60.304 41.844 -60.304 H112.956 Q115.939 -60.304 118.358 -58.611 Q120.776 -56.918 121.744 -54.016 L134.242 -16.19 Q134.563 -15.396 134.644 -14.671 Q134.724 -13.945 134.724 -13.3 V35.317 Q134.724 37.816 132.894 39.63 Q131.062 41.444 128.54 41.444 Q126.017 41.444 124.163 39.584 Q122.308 37.723 122.308 35.156 V28.061 H32.331 V35.317 Q32.331 37.816 30.5 39.63 Q28.669 41.444 26.147 41.444 Q23.623 41.444 21.849 39.63 Q20.076 37.816 20.076 35.317 Z M32.895 -24.104 H121.905 L112.956 -51.032 Q112.956 -51.032 112.956 -51.032 Q112.956 -51.032 112.956 -51.032 H41.844 Q41.844 -51.032 41.844 -51.032 Q41.844 -51.032 41.844 -51.032 L32.895 -24.104 Z M46.222 10.646 Q49.907 10.646 52.366 8.166 Q54.825 5.686 54.825 2.119 Q54.825 -1.663 52.345 -4.217 Q49.865 -6.769 46.298 -6.769 Q42.517 -6.769 39.963 -4.246 Q37.41 -1.724 37.41 2.043 Q37.41 5.728 39.934 8.187 Q42.456 10.646 46.222 10.646 Z M108.663 10.646 Q112.444 10.646 114.999 8.166 Q117.551 5.686 117.551 2.119 Q117.551 -1.663 115.028 -4.217 Q112.506 -6.769 108.739 -6.769 Q105.054 -6.769 102.595 -4.246 Q100.136 -1.724 100.136 2.043 Q100.136 5.728 102.616 8.187 Q105.096 10.646 108.663 10.646 Z"/></g><g id="Light-L" transform="matrix(1 0 0 1 1082.77 1556)"><path d="M77.4 -86.403  98.864 -107.804 Q99.836 -108.797 101.267 -108.781 Q102.697 -108.766 103.777 -107.799 Q104.745 -106.72 104.745 -105.283 Q104.745 -103.847 103.777 -102.818 L80.644 -79.685 Q79.258 -78.377 77.418 -78.377 Q75.576 -78.377 74.264 -79.685 L64.976 -88.852 Q63.973 -89.85 63.903 -91.285 Q63.832 -92.72 64.881 -93.831 Q65.938 -94.799 67.449 -94.815 Q68.96 -94.83 69.97 -93.831 L77.4 -86.403 Z M23.022 34.232 V-13.115 Q23.022 -13.776 23.102 -14.517 Q23.183 -15.259 23.489 -16.017 L35.431 -51.255 Q36.218 -54.02 38.621 -55.689 Q41.022 -57.358 43.86 -57.358 H110.94 Q113.778 -57.358 116.179 -55.689 Q118.582 -54.02 119.48 -51.255 L131.311 -16.02 Q131.617 -15.272 131.698 -14.525 Q131.778 -13.779 131.778 -13.115 V34.232 Q131.778 35.965 130.492 37.233 Q129.205 38.498 127.441 38.498 Q125.675 38.498 124.411 37.186 Q123.145 35.872 123.145 34.132 V25.239 H31.555 V34.232 Q31.555 35.965 30.268 37.233 Q28.981 38.498 27.217 38.498 Q25.453 38.498 24.237 37.233 Q23.022 35.965 23.022 34.232 Z M32.834 -21.685 H121.966 L112.738 -48.986 Q112.491 -49.605 111.964 -49.947 Q111.437 -50.288 110.816 -50.288 H43.984 Q43.363 -50.288 42.836 -49.947 Q42.309 -49.605 42.062 -48.986 L32.834 -21.685 Z M46.55 9.498 Q49.813 9.498 52.01 7.263 Q54.204 5.028 54.204 1.883 Q54.204 -1.538 51.969 -3.767 Q49.734 -5.994 46.59 -5.994 Q43.23 -5.994 40.97 -3.778 Q38.713 -1.563 38.713 1.843 Q38.713 5.107 40.959 7.303 Q43.205 9.498 46.55 9.498 Z M108.371 9.498 Q111.732 9.498 113.959 7.263 Q116.187 5.028 116.187 1.883 Q116.187 -1.538 113.971 -3.767 Q111.756 -5.994 108.412 -5.994 Q105.148 -5.994 102.921 -3.778 Q100.694 -1.563 100.694 1.843 Q100.694 5.107 102.96 7.303 Q105.227 9.498 108.371 9.498 Z"/></g><g id="Thin-L" transform="matrix(1 0 0 1 787.282 1556)"><path d="M77.4 -84.603  99.365 -106.444 Q99.94 -107.06 100.947 -107.03 Q101.954 -106.999 102.66 -106.435 Q103.224 -105.727 103.224 -104.667 Q103.224 -103.608 102.66 -103.005 L80.581 -80.925 Q79.233 -79.679 77.421 -79.679 Q75.607 -79.679 74.352 -80.925 L66.096 -89.1 Q65.461 -89.726 65.361 -90.742 Q65.261 -91.756 65.966 -92.53 Q66.653 -93.095 67.744 -93.125 Q68.836 -93.156 69.475 -92.53 L77.4 -84.603 Z M25.968 33.146 V-12.928 Q25.968 -13.605 26.048 -14.363 Q26.129 -15.121 26.421 -15.846 L37.726 -48.496 Q38.415 -51.123 40.798 -52.768 Q43.183 -54.412 45.876 -54.412 H108.924 Q111.617 -54.412 114.002 -52.768 Q116.385 -51.123 117.216 -48.496 L128.379 -15.851 Q128.671 -15.148 128.752 -14.382 Q128.832 -13.614 128.832 -12.928 V33.146 Q128.832 34.116 128.089 34.835 Q127.346 35.552 126.339 35.552 Q125.335 35.552 124.659 34.786 Q123.982 34.022 123.982 33.109 V22.417 H30.779 V33.146 Q30.779 34.116 30.036 34.835 Q29.293 35.552 28.288 35.552 Q27.282 35.552 26.626 34.835 Q25.968 34.116 25.968 33.146 Z M32.771 -19.266 H122.029 L112.522 -46.94 Q112.025 -48.18 110.971 -48.862 Q109.916 -49.544 108.676 -49.544 H46.124 Q44.884 -49.544 43.829 -48.862 Q42.775 -48.18 42.278 -46.94 L32.771 -19.266 Z M46.879 8.351 Q49.721 8.351 51.653 6.361 Q53.585 4.371 53.585 1.648 Q53.585 -1.414 51.595 -3.317 Q49.605 -5.218 46.882 -5.218 Q43.942 -5.218 41.978 -3.311 Q40.014 -1.401 40.014 1.645 Q40.014 4.487 41.985 6.419 Q43.955 8.351 46.879 8.351 Z M108.079 8.351 Q111.019 8.351 112.92 6.361 Q114.823 4.371 114.823 1.648 Q114.823 -1.414 112.914 -3.317 Q111.006 -5.218 108.083 -5.218 Q105.24 -5.218 103.247 -3.311 Q101.252 -1.401 101.252 1.645 Q101.252 4.487 103.305 6.419 Q105.356 8.351 108.079 8.351 Z"/></g><g id="Ultralight-L" transform="matrix(1 0 0 1 491.205 1556)"><path d="M77.4 -83.524  99.667 -105.63 Q100.002 -106.019 100.754 -105.978 Q101.507 -105.938 101.991 -105.616 Q102.313 -105.132 102.313 -104.298 Q102.313 -103.466 101.991 -103.116 L80.544 -81.67 Q79.217 -80.461 77.423 -80.461 Q75.626 -80.461 74.406 -81.67 L66.769 -89.249 Q66.354 -89.652 66.237 -90.415 Q66.119 -91.179 66.617 -91.748 Q67.08 -92.071 67.922 -92.111 Q68.762 -92.151 69.176 -91.748 L77.4 -83.524 Z M27.735 32.495 V-12.816 Q27.735 -13.503 27.816 -14.271 Q27.896 -15.038 28.178 -15.743 L39.103 -46.84 Q39.73 -49.385 42.106 -51.015 Q44.479 -52.645 47.085 -52.645 H107.715 Q110.321 -52.645 112.694 -51.015 Q115.07 -49.385 115.858 -46.84 L126.622 -15.749 Q126.904 -15.074 126.984 -14.295 Q127.065 -13.514 127.065 -12.816 V32.495 Q127.065 33.006 126.647 33.395 Q126.23 33.785 125.68 33.785 Q125.13 33.785 124.808 33.348 Q124.485 32.911 124.485 32.495 V20.724 H30.315 V32.495 Q30.315 33.006 29.897 33.395 Q29.48 33.785 28.93 33.785 Q28.38 33.785 28.058 33.395 Q27.735 33.006 27.735 32.495 Z M32.734 -17.815 H122.066 L112.391 -45.711 Q111.746 -47.324 110.376 -48.211 Q109.005 -49.097 107.392 -49.097 H47.407 Q45.795 -49.097 44.424 -48.211 Q43.054 -47.324 42.409 -45.711 L32.734 -17.815 Z M47.075 7.663 Q49.665 7.663 51.439 5.819 Q53.212 3.978 53.212 1.506 Q53.212 -1.34 51.369 -3.048 Q49.528 -4.754 47.056 -4.754 Q44.371 -4.754 42.583 -3.03 Q40.796 -1.306 40.796 1.525 Q40.796 4.115 42.601 5.889 Q44.405 7.663 47.075 7.663 Z M107.905 7.663 Q110.59 7.663 112.298 5.819 Q114.004 3.978 114.004 1.506 Q114.004 -1.34 112.28 -3.048 Q110.556 -4.754 107.886 -4.754 Q105.296 -4.754 103.442 -3.03 Q101.588 -1.306 101.588 1.525 Q101.588 4.115 103.511 5.889 Q105.433 7.663 107.905 7.663 Z"/></g><g id="Bold-M" transform="matrix(1 0 0 1 2281.8 1126)"><path d="M60 -85.292  68.625 -93.917 Q70.812 -96.105 73.875 -96.136 Q76.938 -96.167 79.25 -93.917 Q81.562 -91.667 81.562 -88.699 Q81.562 -85.73 79.188 -83.355 L65.312 -69.48 Q63.045 -67.292 60.023 -67.292 Q57 -67.292 54.688 -69.48 L47.75 -76.48 Q45.562 -78.667 45.469 -81.699 Q45.375 -84.73 47.565 -86.917 Q49.866 -89.23 52.965 -89.23 Q56.062 -89.23 58.375 -86.917 L60 -85.292 Z M11.875 18.145 V-18.605 Q11.875 -19.896 12.062 -21.064 Q12.25 -22.23 12.749 -23.47 L21.688 -48.605 Q23.438 -53.167 27.125 -55.886 Q30.812 -58.605 35.75 -58.605 H84.25 Q89.188 -58.605 92.875 -55.886 Q96.562 -53.167 98.312 -48.605 L107.251 -23.47 Q107.75 -22.23 107.938 -21.064 Q108.125 -19.896 108.125 -18.605 V18.27 Q108.125 22.124 105.422 24.823 Q102.72 27.52 98.86 27.52 Q95.062 27.52 92.281 24.729 Q89.5 21.936 89.5 18.145 V17.77 H30.5 V18.27 Q30.5 22.124 27.797 24.823 Q25.095 27.52 21.235 27.52 Q17.438 27.52 14.656 24.729 Q11.875 21.936 11.875 18.145 Z M31 -29.73 H89 L84.25 -43.48 Q84.25 -43.48 84.25 -43.48 Q84.25 -43.48 84.25 -43.48 H35.75 Q35.75 -43.48 35.75 -43.48 Q35.75 -43.48 35.75 -43.48 L31 -29.73 Z M38.485 -1.605 Q41.5 -1.605 43.625 -3.715 Q45.75 -5.825 45.75 -8.84 Q45.75 -11.855 43.64 -13.98 Q41.53 -16.105 38.515 -16.105 Q35.5 -16.105 33.375 -13.995 Q31.25 -11.885 31.25 -8.87 Q31.25 -5.855 33.36 -3.73 Q35.47 -1.605 38.485 -1.605 Z M81.485 -1.605 Q84.5 -1.605 86.625 -3.715 Q88.75 -5.825 88.75 -8.84 Q88.75 -11.855 86.64 -13.98 Q84.53 -16.105 81.515 -16.105 Q78.5 -16.105 76.375 -13.995 Q74.25 -11.885 74.25 -8.87 Q74.25 -5.855 76.36 -3.73 Q78.47 -1.605 81.485 -1.605 Z"/></g><g id="Semibold-M" transform="matrix(1 0 0 1 1985.97 1126)"><path d="M60 -81.706  71.179 -92.885 Q72.986 -94.692 75.56 -94.724 Q78.132 -94.755 80.037 -92.885 Q81.942 -91.015 81.942 -88.509 Q81.942 -86.001 80.002 -84.061 L64.442 -68.501 Q62.546 -66.64 60.017 -66.64 Q57.489 -66.64 55.557 -68.501 L48.565 -75.501 Q46.704 -77.309 46.664 -79.851 Q46.625 -82.394 48.435 -84.255 Q50.36 -86.186 52.939 -86.186 Q55.519 -86.186 57.451 -84.255 L60 -81.706 Z M13.723 17.493 V-18.551 Q13.723 -19.625 13.883 -20.629 Q14.044 -21.632 14.432 -22.655 L23.535 -48.279 Q24.959 -52.08 28.076 -54.365 Q31.192 -56.649 35.315 -56.649 H84.685 Q88.808 -56.649 91.924 -54.365 Q95.041 -52.08 96.465 -48.279 L105.567 -22.655 Q105.956 -21.632 106.118 -20.629 Q106.278 -19.625 106.278 -18.551 V17.564 Q106.278 21.01 103.86 23.423 Q101.444 25.835 97.991 25.835 Q94.574 25.835 92.119 23.37 Q89.662 20.904 89.662 17.493 V16.085 H30.337 V17.564 Q30.337 21.01 27.92 23.423 Q25.504 25.835 22.05 25.835 Q18.633 25.835 16.177 23.37 Q13.723 20.904 13.723 17.493 Z M30.239 -29.621 H89.761 L84.739 -44.024 Q84.739 -44.024 84.739 -44.024 Q84.739 -44.024 84.739 -44.024 H35.261 Q35.261 -44.024 35.261 -44.024 Q35.261 -44.024 35.261 -44.024 L30.239 -29.621 Z M38.159 -1.17 Q41.174 -1.17 43.299 -3.28 Q45.424 -5.391 45.424 -8.405 Q45.424 -11.42 43.314 -13.545 Q41.204 -15.67 38.189 -15.67 Q35.174 -15.67 33.049 -13.56 Q30.924 -11.45 30.924 -8.435 Q30.924 -5.42 33.034 -3.295 Q35.145 -1.17 38.159 -1.17 Z M81.811 -1.17 Q84.826 -1.17 86.951 -3.28 Q89.076 -5.391 89.076 -8.405 Q89.076 -11.42 86.966 -13.545 Q84.855 -15.67 81.841 -15.67 Q78.826 -15.67 76.701 -13.56 Q74.576 -11.45 74.576 -8.435 Q74.576 -5.42 76.686 -3.295 Q78.796 -1.17 81.811 -1.17 Z"/></g><g id="Medium-M" transform="matrix(1 0 0 1 1689.91 1126)"><path d="M60 -79.015  73.095 -92.11 Q74.616 -93.632 76.824 -93.664 Q79.03 -93.695 80.629 -92.11 Q82.229 -90.526 82.229 -88.366 Q82.229 -86.205 80.614 -84.591 L63.791 -67.767 Q62.172 -66.151 60.014 -66.151 Q57.856 -66.151 56.209 -67.767 L49.176 -74.767 Q47.56 -76.29 47.561 -78.465 Q47.562 -80.64 49.087 -82.257 Q50.729 -83.904 52.92 -83.904 Q55.111 -83.904 56.759 -82.257 L60 -79.015 Z M15.109 17.004 V-18.51 Q15.109 -19.421 15.249 -20.302 Q15.389 -21.184 15.696 -22.042 L24.921 -48.034 Q26.1 -51.265 28.79 -53.224 Q31.479 -55.181 34.989 -55.181 H85.011 Q88.521 -55.181 91.21 -53.224 Q93.9 -51.265 95.079 -48.034 L104.304 -22.042 Q104.611 -21.184 104.751 -20.302 Q104.891 -19.421 104.891 -18.51 V17.034 Q104.891 20.175 102.689 22.373 Q100.485 24.571 97.339 24.571 Q94.206 24.571 91.996 22.351 Q89.785 20.13 89.785 17.004 V14.821 H30.215 V17.034 Q30.215 20.175 28.011 22.373 Q25.809 24.571 22.663 24.571 Q19.53 24.571 17.319 22.351 Q15.109 20.13 15.109 17.004 Z M29.669 -29.54 H90.331 L85.106 -44.431 Q85.106 -44.431 85.106 -44.431 Q85.106 -44.431 85.106 -44.431 H34.894 Q34.894 -44.431 34.894 -44.431 Q34.894 -44.431 34.894 -44.431 L29.669 -29.54 Z M37.915 -0.844 Q40.929 -0.844 43.054 -2.955 Q45.179 -5.065 45.179 -8.08 Q45.179 -11.094 43.069 -13.219 Q40.959 -15.344 37.944 -15.344 Q34.929 -15.344 32.804 -13.234 Q30.679 -11.124 30.679 -8.109 Q30.679 -5.094 32.79 -2.969 Q34.9 -0.844 37.915 -0.844 Z M82.056 -0.844 Q85.071 -0.844 87.196 -2.955 Q89.321 -5.065 89.321 -8.08 Q89.321 -11.094 87.21 -13.219 Q85.1 -15.344 82.085 -15.344 Q79.071 -15.344 76.946 -13.234 Q74.821 -11.124 74.821 -8.109 Q74.821 -5.094 76.931 -2.969 Q79.041 -0.844 82.056 -0.844 Z"/></g><g id="Regular-M" transform="matrix(1 0 0 1 1394.06 1126)"><path d="M60 -77.042  74.5 -91.542 Q75.812 -92.855 77.75 -92.886 Q79.688 -92.917 81.062 -91.542 Q82.438 -90.167 82.438 -88.261 Q82.438 -86.355 81.062 -84.98 L63.312 -67.23 Q61.898 -65.792 60.011 -65.792 Q58.125 -65.792 56.688 -67.23 L49.625 -74.23 Q48.188 -75.542 48.219 -77.449 Q48.25 -79.355 49.565 -80.792 Q51 -82.23 52.906 -82.23 Q54.812 -82.23 56.25 -80.792 L60 -77.042 Z M16.125 16.645 V-18.48 Q16.125 -19.271 16.25 -20.064 Q16.375 -20.855 16.624 -21.595 L25.938 -47.855 Q26.938 -50.667 29.312 -52.386 Q31.688 -54.105 34.75 -54.105 H85.25 Q88.312 -54.105 90.688 -52.386 Q93.062 -50.667 94.062 -47.855 L103.376 -21.595 Q103.625 -20.855 103.75 -20.064 Q103.875 -19.271 103.875 -18.48 V16.645 Q103.875 19.561 101.829 21.604 Q99.782 23.645 96.86 23.645 Q93.938 23.645 91.906 21.604 Q89.875 19.561 89.875 16.645 V13.895 H30.125 V16.645 Q30.125 19.561 28.079 21.604 Q26.032 23.645 23.11 23.645 Q20.188 23.645 18.156 21.604 Q16.125 19.561 16.125 16.645 Z M29.25 -29.48 H90.75 L85.375 -44.73 Q85.375 -44.73 85.375 -44.73 Q85.375 -44.73 85.375 -44.73 H34.625 Q34.625 -44.73 34.625 -44.73 Q34.625 -44.73 34.625 -44.73 L29.25 -29.48 Z M37.735 -0.605 Q40.75 -0.605 42.875 -2.715 Q45 -4.825 45 -7.84 Q45 -10.855 42.89 -12.98 Q40.78 -15.105 37.765 -15.105 Q34.75 -15.105 32.625 -12.995 Q30.5 -10.885 30.5 -7.87 Q30.5 -4.855 32.61 -2.73 Q34.72 -0.605 37.735 -0.605 Z M82.235 -0.605 Q85.25 -0.605 87.375 -2.715 Q89.5 -4.825 89.5 -7.84 Q89.5 -10.855 87.39 -12.98 Q85.28 -15.105 82.265 -15.105 Q79.25 -15.105 77.125 -12.995 Q75 -10.885 75 -7.87 Q75 -4.855 77.11 -2.73 Q79.22 -0.605 82.235 -0.605 Z"/></g><g id="Light-M" transform="matrix(1 0 0 1 1098.18 1126)"><path d="M60 -75.36  75.37 -90.729 Q76.325 -91.701 77.766 -91.72 Q79.206 -91.74 80.245 -90.725 Q81.26 -89.686 81.26 -88.265 Q81.26 -86.844 80.245 -85.845 L63.024 -68.624 Q61.734 -67.331 60.014 -67.331 Q58.294 -67.331 56.996 -68.624 L50.494 -75.095 Q49.438 -76.071 49.421 -77.484 Q49.406 -78.896 50.406 -79.975 Q51.456 -81.052 52.894 -81.04 Q54.331 -81.027 55.385 -79.975 L60 -75.36 Z M18.409 16.476 V-18.287 Q18.409 -18.996 18.51 -19.704 Q18.611 -20.411 18.848 -21.125 L27.765 -46.149 Q28.639 -48.71 30.809 -50.265 Q32.977 -51.821 35.736 -51.821 H84.264 Q87.022 -51.821 89.191 -50.265 Q91.361 -48.71 92.26 -46.149 L101.153 -21.127 Q101.389 -20.422 101.49 -19.711 Q101.591 -18.999 101.591 -18.287 V16.476 Q101.591 18.513 100.159 19.936 Q98.726 21.361 96.681 21.361 Q94.635 21.361 93.229 19.936 Q91.823 18.513 91.823 16.476 V11.563 H28.177 V16.476 Q28.177 18.513 26.745 19.936 Q25.314 21.361 23.267 21.361 Q21.221 21.361 19.815 19.936 Q18.409 18.513 18.409 16.476 Z M28.24 -26.74 H91.76 L85.735 -43.816 Q85.544 -44.297 85.159 -44.561 Q84.774 -44.826 84.245 -44.826 H35.755 Q35.226 -44.826 34.841 -44.561 Q34.456 -44.297 34.265 -43.816 L28.24 -26.74 Z M37.509 -1.302 Q40.149 -1.302 41.998 -3.15 Q43.846 -4.997 43.846 -7.637 Q43.846 -10.277 41.998 -12.126 Q40.15 -13.975 37.51 -13.975 Q34.87 -13.975 33.021 -12.127 Q31.174 -10.279 31.174 -7.639 Q31.174 -4.999 33.021 -3.151 Q34.869 -1.302 37.509 -1.302 Z M82.49 -1.302 Q85.13 -1.302 86.979 -3.15 Q88.826 -4.997 88.826 -7.637 Q88.826 -10.277 86.979 -12.126 Q85.131 -13.975 82.491 -13.975 Q79.851 -13.975 78.002 -12.127 Q76.154 -10.279 76.154 -7.639 Q76.154 -4.999 78.002 -3.151 Q79.85 -1.302 82.49 -1.302 Z"/></g><g id="Thin-M" transform="matrix(1 0 0 1 802.565 1126)"><path d="M60 -73.677  76.239 -89.916 Q76.839 -90.547 77.782 -90.555 Q78.726 -90.561 79.427 -89.907 Q80.081 -89.206 80.081 -88.269 Q80.081 -87.332 79.427 -86.711 L62.735 -70.019 Q61.57 -68.87 60.016 -68.87 Q58.461 -68.87 57.305 -70.019 L51.362 -75.961 Q50.688 -76.6 50.625 -77.519 Q50.561 -78.439 51.248 -79.157 Q51.914 -79.874 52.883 -79.85 Q53.851 -79.826 54.519 -79.157 L60 -73.677 Z M20.692 16.309 V-18.095 Q20.692 -18.72 20.769 -19.344 Q20.846 -19.969 21.073 -20.655 L29.591 -44.441 Q30.341 -46.752 32.305 -48.145 Q34.269 -49.537 36.721 -49.537 H83.279 Q85.731 -49.537 87.695 -48.145 Q89.659 -46.752 90.456 -44.441 L98.927 -20.66 Q99.154 -19.99 99.231 -19.359 Q99.308 -18.726 99.308 -18.095 V16.309 Q99.308 17.463 98.489 18.27 Q97.67 19.078 96.501 19.078 Q95.331 19.078 94.55 18.27 Q93.769 17.463 93.769 16.309 V9.231 H26.231 V16.309 Q26.231 17.463 25.413 18.27 Q24.594 19.078 23.424 19.078 Q22.255 19.078 21.474 18.27 Q20.692 17.463 20.692 16.309 Z M27.231 -23.999 H92.769 L86.096 -42.902 Q85.711 -43.865 84.942 -44.394 Q84.172 -44.922 83.115 -44.922 H36.885 Q35.828 -44.922 35.057 -44.394 Q34.289 -43.865 33.904 -42.902 L27.231 -23.999 Z M37.282 -1.999 Q39.547 -1.999 41.12 -3.585 Q42.693 -5.17 42.693 -7.436 Q42.693 -9.701 41.106 -11.274 Q39.521 -12.845 37.256 -12.845 Q34.99 -12.845 33.419 -11.26 Q31.846 -9.674 31.846 -7.409 Q31.846 -5.144 33.431 -3.571 Q35.017 -1.999 37.282 -1.999 Z M82.744 -1.999 Q85.01 -1.999 86.581 -3.585 Q88.154 -5.17 88.154 -7.436 Q88.154 -9.701 86.569 -11.274 Q84.983 -12.845 82.718 -12.845 Q80.453 -12.845 78.88 -11.26 Q77.308 -9.674 77.308 -7.409 Q77.308 -5.144 78.894 -3.571 Q80.479 -1.999 82.744 -1.999 Z"/></g><g id="Ultralight-M" transform="matrix(1 0 0 1 506.415 1126)"><path d="M60 -72.667  76.761 -89.429 Q77.146 -89.855 77.791 -89.855 Q78.438 -89.855 78.938 -89.417 Q79.375 -88.917 79.375 -88.271 Q79.375 -87.626 78.938 -87.23 L62.562 -70.855 Q61.471 -69.792 60.017 -69.792 Q58.562 -69.792 57.491 -70.855 L51.884 -76.48 Q51.438 -76.917 51.346 -77.54 Q51.255 -78.164 51.752 -78.667 Q52.188 -79.167 52.875 -79.136 Q53.562 -79.105 54 -78.667 L60 -72.667 Z M22.062 16.208 V-17.98 Q22.062 -18.554 22.125 -19.129 Q22.188 -19.702 22.406 -20.374 L30.688 -43.417 Q31.361 -45.577 33.203 -46.872 Q35.042 -48.167 37.312 -48.167 H82.688 Q84.957 -48.167 86.797 -46.872 Q88.639 -45.577 89.375 -43.417 L97.594 -20.379 Q97.812 -19.73 97.875 -19.146 Q97.938 -18.564 97.938 -17.98 V16.208 Q97.938 16.833 97.487 17.27 Q97.036 17.708 96.394 17.708 Q95.75 17.708 95.344 17.27 Q94.938 16.833 94.938 16.208 V7.833 H25.062 V16.208 Q25.062 16.833 24.613 17.27 Q24.161 17.708 23.519 17.708 Q22.875 17.708 22.469 17.27 Q22.062 16.833 22.062 16.208 Z M26.625 -22.355 H93.375 L86.312 -42.355 Q85.812 -43.605 84.812 -44.292 Q83.812 -44.98 82.438 -44.98 H37.562 Q36.188 -44.98 35.188 -44.292 Q34.188 -43.605 33.688 -42.355 L26.625 -22.355 Z M37.148 -2.417 Q39.188 -2.417 40.594 -3.846 Q42 -5.274 42 -7.315 Q42 -9.355 40.571 -10.761 Q39.144 -12.167 37.102 -12.167 Q35.062 -12.167 33.656 -10.739 Q32.25 -9.311 32.25 -7.27 Q32.25 -5.23 33.679 -3.824 Q35.106 -2.417 37.148 -2.417 Z M82.897 -2.417 Q84.938 -2.417 86.344 -3.846 Q87.75 -5.274 87.75 -7.315 Q87.75 -9.355 86.321 -10.761 Q84.894 -12.167 82.853 -12.167 Q80.812 -12.167 79.406 -10.739 Q78 -9.311 78 -7.27 Q78 -5.23 79.429 -3.824 Q80.856 -2.417 82.897 -2.417 Z"/></g><g id="Bold-S" transform="matrix(1 0 0 1 2294.23 696)"><path d="M44.48 -69.897  49.312 -74.729 Q51.038 -76.455 53.208 -76.48 Q55.378 -76.505 57.203 -74.729 Q59.027 -72.954 59.027 -70.858 Q59.027 -68.762 57.153 -66.889 L48.376 -58.111 Q46.722 -56.484 44.515 -56.484 Q42.31 -56.484 40.588 -58.123 L35.604 -63.239 Q33.976 -64.965 33.902 -67.177 Q33.828 -69.387 35.556 -70.982 Q37.241 -72.707 39.504 -72.707 Q41.768 -72.707 43.474 -70.972 L44.48 -69.897 Z M11.736 5.699 V-22.102 Q11.736 -23.092 11.934 -23.983 Q12.131 -24.874 12.524 -25.951 L19.399 -42.68 Q20.761 -45.931 23.423 -47.829 Q26.086 -49.728 29.588 -49.728 H65.093 Q68.594 -49.728 71.257 -47.829 Q73.919 -45.931 75.281 -42.68 L82.156 -25.951 Q82.549 -24.874 82.746 -23.983 Q82.944 -23.092 82.944 -22.102 V5.798 Q82.944 8.345 81.157 10.13 Q79.369 11.913 76.817 11.913 Q74.314 11.913 72.465 10.056 Q70.615 8.198 70.615 5.699 V5.009 H24.065 V5.798 Q24.065 8.345 22.277 10.13 Q20.49 11.913 17.938 11.913 Q15.435 11.913 13.586 10.056 Q11.736 8.198 11.736 5.699 Z M25.347 -27.734 H69.333 L64.994 -38.583 Q64.994 -38.583 64.994 -38.583 Q64.994 -38.583 64.994 -38.583 H29.686 Q29.686 -38.583 29.686 -38.583 Q29.686 -38.583 29.686 -38.583 L25.347 -27.734 Z M31.548 -9.094 Q33.434 -9.094 34.765 -10.414 Q36.097 -11.734 36.097 -13.619 Q36.097 -15.505 34.777 -16.836 Q33.458 -18.168 31.572 -18.168 Q29.686 -18.168 28.355 -16.848 Q27.023 -15.529 27.023 -13.643 Q27.023 -11.757 28.343 -10.426 Q29.662 -9.094 31.548 -9.094 Z M63.108 -9.094 Q64.994 -9.094 66.325 -10.414 Q67.657 -11.734 67.657 -13.619 Q67.657 -15.505 66.337 -16.836 Q65.018 -18.168 63.132 -18.168 Q61.246 -18.168 59.915 -16.848 Q58.583 -15.529 58.583 -13.643 Q58.583 -11.757 59.903 -10.426 Q61.222 -9.094 63.108 -9.094 Z"/></g><g id="Semibold-S" transform="matrix(1 0 0 1 1998.1 696)"><path d="M44.48 -67.067  51.327 -73.915 Q52.754 -75.341 54.538 -75.365 Q56.321 -75.39 57.824 -73.915 Q59.327 -72.439 59.327 -70.708 Q59.327 -68.977 57.796 -67.446 L47.689 -57.339 Q46.328 -55.969 44.511 -55.969 Q42.696 -55.969 41.275 -57.351 L36.247 -62.467 Q34.877 -63.893 34.845 -65.719 Q34.815 -67.543 36.243 -68.881 Q37.629 -70.306 39.485 -70.306 Q41.339 -70.306 42.745 -68.871 L44.48 -67.067 Z M13.194 5.185 V-22.059 Q13.194 -22.877 13.37 -23.641 Q13.546 -24.403 13.853 -25.308 L20.856 -42.424 Q21.961 -45.073 24.174 -46.629 Q26.386 -48.184 29.244 -48.184 H65.436 Q68.294 -48.184 70.506 -46.629 Q72.719 -45.073 73.824 -42.424 L80.827 -25.308 Q81.134 -24.403 81.31 -23.641 Q81.486 -22.877 81.486 -22.059 V5.241 Q81.486 7.467 79.924 9.025 Q78.362 10.583 76.132 10.583 Q73.928 10.583 72.337 8.984 Q70.744 7.383 70.744 5.185 V3.68 H23.936 V5.241 Q23.936 7.467 22.374 9.025 Q20.813 10.583 18.581 10.583 Q16.378 10.583 14.786 8.984 Q13.194 7.383 13.194 5.185 Z M24.746 -27.649 H69.934 L65.379 -39.012 Q65.379 -39.012 65.379 -39.012 Q65.379 -39.012 65.379 -39.012 H29.301 Q29.301 -39.012 29.301 -39.012 Q29.301 -39.012 29.301 -39.012 L24.746 -27.649 Z M31.291 -8.751 Q33.176 -8.751 34.508 -10.071 Q35.839 -11.391 35.839 -13.276 Q35.839 -15.162 34.52 -16.493 Q33.2 -17.825 31.314 -17.825 Q29.429 -17.825 28.097 -16.505 Q26.766 -15.185 26.766 -13.3 Q26.766 -11.414 28.085 -10.083 Q29.406 -8.751 31.291 -8.751 Z M63.366 -8.751 Q65.251 -8.751 66.583 -10.071 Q67.914 -11.391 67.914 -13.276 Q67.914 -15.162 66.595 -16.493 Q65.274 -17.825 63.389 -17.825 Q61.504 -17.825 60.172 -16.505 Q58.841 -15.185 58.841 -13.3 Q58.841 -11.414 60.16 -10.083 Q61.48 -8.751 63.366 -8.751 Z"/></g><g id="Medium-S" transform="matrix(1 0 0 1 1701.85 696)"><path d="M44.48 -64.944  52.839 -73.303 Q54.04 -74.504 55.535 -74.529 Q57.029 -74.554 58.29 -73.303 Q59.553 -72.054 59.553 -70.596 Q59.553 -69.137 58.278 -67.864 L47.175 -56.76 Q46.032 -55.583 44.508 -55.583 Q42.986 -55.583 41.789 -56.772 L36.729 -61.888 Q35.552 -63.09 35.553 -64.625 Q35.554 -66.161 36.758 -67.305 Q37.921 -68.505 39.469 -68.505 Q41.017 -68.505 42.199 -67.295 L44.48 -64.944 Z M14.288 4.799 V-22.027 Q14.288 -22.716 14.448 -23.383 Q14.607 -24.049 14.85 -24.825 L21.95 -42.23 Q22.861 -44.43 24.737 -45.729 Q26.612 -47.027 28.987 -47.027 H65.693 Q68.068 -47.027 69.943 -45.729 Q71.819 -44.43 72.73 -42.23 L79.83 -24.825 Q80.073 -24.049 80.232 -23.383 Q80.392 -22.716 80.392 -22.027 V4.823 Q80.392 6.808 79 8.197 Q77.606 9.586 75.617 9.586 Q73.638 9.586 72.24 8.18 Q70.84 6.772 70.84 4.799 V2.682 H23.84 V4.823 Q23.84 6.808 22.446 8.197 Q21.053 9.586 19.064 9.586 Q17.086 9.586 15.686 8.18 Q14.288 6.772 14.288 4.799 Z M24.296 -27.585 H70.384 L65.669 -39.334 Q65.669 -39.334 65.669 -39.334 Q65.669 -39.334 65.669 -39.334 H29.011 Q29.011 -39.334 29.011 -39.334 Q29.011 -39.334 29.011 -39.334 L24.296 -27.585 Z M31.098 -8.494 Q32.983 -8.494 34.315 -9.814 Q35.646 -11.134 35.646 -13.02 Q35.646 -14.904 34.326 -16.236 Q33.007 -17.567 31.121 -17.567 Q29.235 -17.567 27.904 -16.248 Q26.573 -14.928 26.573 -13.042 Q26.573 -11.157 27.893 -9.825 Q29.213 -8.494 31.098 -8.494 Z M63.559 -8.494 Q65.445 -8.494 66.776 -9.814 Q68.107 -11.134 68.107 -13.02 Q68.107 -14.904 66.787 -16.236 Q65.467 -17.567 63.582 -17.567 Q61.697 -17.567 60.365 -16.248 Q59.034 -14.928 59.034 -13.042 Q59.034 -11.157 60.354 -9.825 Q61.673 -8.494 63.559 -8.494 Z"/></g><g id="Regular-S" transform="matrix(1 0 0 1 1405.73 696)"><path d="M44.48 -63.387  53.948 -72.855 Q54.983 -73.891 56.266 -73.916 Q57.548 -73.94 58.633 -72.855 Q59.717 -71.771 59.717 -70.513 Q59.717 -69.256 58.633 -68.171 L46.798 -56.336 Q45.816 -55.3 44.507 -55.3 Q43.198 -55.3 42.166 -56.348 L37.083 -61.464 Q36.047 -62.5 36.072 -63.823 Q36.097 -65.146 37.134 -66.149 Q38.135 -67.184 39.458 -67.184 Q40.781 -67.184 41.797 -66.139 L44.48 -63.387 Z M15.09 4.516 V-22.003 Q15.09 -22.599 15.238 -23.194 Q15.386 -23.789 15.582 -24.472 L22.752 -42.088 Q23.522 -43.958 25.149 -45.068 Q26.777 -46.177 28.799 -46.177 H65.882 Q67.903 -46.177 69.531 -45.068 Q71.158 -43.958 71.928 -42.088 L79.098 -24.472 Q79.294 -23.789 79.442 -23.194 Q79.59 -22.599 79.59 -22.003 V4.516 Q79.59 6.324 78.321 7.59 Q77.052 8.855 75.239 8.855 Q73.426 8.855 72.169 7.59 Q70.911 6.324 70.911 4.516 V1.952 H23.769 V4.516 Q23.769 6.324 22.499 7.59 Q21.23 8.855 19.417 8.855 Q17.605 8.855 16.347 7.59 Q15.09 6.324 15.09 4.516 Z M23.966 -27.537 H70.714 L65.882 -39.569 Q65.882 -39.569 65.882 -39.569 Q65.882 -39.569 65.882 -39.569 H28.799 Q28.799 -39.569 28.799 -39.569 Q28.799 -39.569 28.799 -39.569 L23.966 -27.537 Z M30.956 -8.305 Q32.842 -8.305 34.174 -9.625 Q35.505 -10.945 35.505 -12.83 Q35.505 -14.716 34.185 -16.047 Q32.866 -17.379 30.98 -17.379 Q29.094 -17.379 27.763 -16.059 Q26.431 -14.74 26.431 -12.854 Q26.431 -10.968 27.751 -9.637 Q29.071 -8.305 30.956 -8.305 Z M63.7 -8.305 Q65.586 -8.305 66.917 -9.625 Q68.249 -10.945 68.249 -12.83 Q68.249 -14.716 66.929 -16.047 Q65.609 -17.379 63.724 -17.379 Q61.838 -17.379 60.506 -16.059 Q59.175 -14.74 59.175 -12.854 Q59.175 -10.968 60.495 -9.637 Q61.814 -8.305 63.7 -8.305 Z"/></g><g id="Light-S" transform="matrix(1 0 0 1 1109.75 696)"><path d="M44.48 -62.06  54.634 -72.213 Q55.388 -72.981 56.278 -72.995 Q57.168 -73.011 57.988 -72.21 Q58.788 -71.391 58.788 -70.516 Q58.788 -69.641 57.988 -68.853 L46.57 -57.435 Q45.686 -56.514 44.508 -56.514 Q43.331 -56.514 42.411 -57.447 L37.768 -62.147 Q37.034 -62.917 37.021 -63.851 Q37.009 -64.785 37.798 -65.504 Q38.495 -66.255 39.449 -66.246 Q40.402 -66.236 41.115 -65.494 L44.48 -62.06 Z M16.892 4.383 V-21.852 Q16.892 -22.381 17.021 -22.911 Q17.15 -23.439 17.336 -24.101 L24.194 -40.742 Q24.864 -42.414 26.33 -43.394 Q27.794 -44.375 29.577 -44.375 H65.103 Q66.886 -44.375 68.35 -43.394 Q69.816 -42.414 70.505 -40.742 L77.344 -24.103 Q77.53 -23.448 77.659 -22.916 Q77.788 -22.384 77.788 -21.852 V4.383 Q77.788 5.496 77.003 6.274 Q76.218 7.053 75.098 7.053 Q73.977 7.053 73.212 6.274 Q72.448 5.496 72.448 4.383 V0.111 H22.232 V4.383 Q22.232 5.496 21.447 6.274 Q20.663 7.053 19.542 7.053 Q18.42 7.053 17.656 6.274 Q16.892 5.496 16.892 4.383 Z M23.169 -25.375 H71.511 L66.166 -38.849 Q66.015 -39.228 65.711 -39.436 Q65.407 -39.645 64.99 -39.645 H29.69 Q29.273 -39.645 28.969 -39.436 Q28.665 -39.228 28.514 -38.849 L23.169 -25.375 Z M30.778 -8.856 Q32.368 -8.856 33.481 -9.968 Q34.595 -11.081 34.595 -12.671 Q34.595 -14.26 33.481 -15.374 Q32.369 -16.487 30.779 -16.487 Q29.189 -16.487 28.076 -15.375 Q26.963 -14.261 26.963 -12.672 Q26.963 -11.082 28.076 -9.969 Q29.188 -8.856 30.778 -8.856 Z M63.901 -8.856 Q65.491 -8.856 66.604 -9.968 Q67.717 -11.081 67.717 -12.671 Q67.717 -14.26 66.604 -15.374 Q65.492 -16.487 63.902 -16.487 Q62.312 -16.487 61.199 -15.375 Q60.085 -14.261 60.085 -12.672 Q60.085 -11.082 61.199 -9.969 Q62.311 -8.856 63.901 -8.856 Z"/></g><g id="Thin-S" transform="matrix(1 0 0 1 814.015 696)"><path d="M44.48 -60.732  55.32 -71.572 Q55.793 -72.07 56.291 -72.076 Q56.789 -72.081 57.343 -71.565 Q57.858 -71.012 57.858 -70.519 Q57.858 -70.027 57.343 -69.537 L46.342 -58.536 Q45.557 -57.728 44.51 -57.728 Q43.463 -57.728 42.654 -58.548 L38.454 -62.83 Q38.02 -63.334 37.971 -63.879 Q37.92 -64.423 38.462 -64.859 Q38.855 -65.325 39.439 -65.307 Q40.023 -65.288 40.431 -64.849 L44.48 -60.732 Z M18.693 4.251 V-21.7 Q18.693 -22.163 18.803 -22.627 Q18.913 -23.09 19.092 -23.73 L25.635 -39.396 Q26.208 -40.869 27.51 -41.721 Q28.813 -42.574 30.354 -42.574 H64.326 Q65.867 -42.574 67.17 -41.721 Q68.472 -40.869 69.083 -39.396 L75.588 -23.734 Q75.767 -23.107 75.877 -22.638 Q75.987 -22.169 75.987 -21.7 V4.251 Q75.987 4.668 75.686 4.96 Q75.385 5.252 74.956 5.252 Q74.526 5.252 74.255 4.96 Q73.984 4.668 73.984 4.251 V-1.728 H20.696 V4.251 Q20.696 4.668 20.396 4.96 Q20.095 5.252 19.665 5.252 Q19.236 5.252 18.965 4.96 Q18.693 4.668 18.693 4.251 Z M22.373 -23.213 H72.307 L66.451 -38.128 Q66.147 -38.887 65.54 -39.304 Q64.933 -39.721 64.098 -39.721 H30.582 Q29.747 -39.721 29.14 -39.304 Q28.533 -38.887 28.229 -38.128 L22.373 -23.213 Z M30.599 -9.405 Q31.893 -9.405 32.789 -10.311 Q33.684 -11.217 33.684 -12.512 Q33.684 -13.806 32.778 -14.701 Q31.873 -15.596 30.579 -15.596 Q29.284 -15.596 28.389 -14.69 Q27.494 -13.784 27.494 -12.49 Q27.494 -11.196 28.399 -10.301 Q29.305 -9.405 30.599 -9.405 Z M64.101 -9.405 Q65.396 -9.405 66.291 -10.311 Q67.186 -11.217 67.186 -12.512 Q67.186 -13.806 66.281 -14.701 Q65.375 -15.596 64.081 -15.596 Q62.787 -15.596 61.891 -14.69 Q60.996 -13.784 60.996 -12.49 Q60.996 -11.196 61.902 -10.301 Q62.807 -9.405 64.101 -9.405 Z"/></g><g id="Ultralight-S" transform="matrix(1 0 0 1 517.792 696)"><path d="M44.48 -59.936  55.732 -71.188 Q56.036 -71.524 56.298 -71.524 Q56.561 -71.524 56.956 -71.179 Q57.301 -70.784 57.301 -70.521 Q57.301 -70.259 56.956 -69.946 L46.206 -59.196 Q45.48 -58.456 44.511 -58.456 Q43.543 -58.456 42.8 -59.208 L38.865 -63.239 Q38.612 -63.585 38.54 -63.895 Q38.468 -64.206 38.86 -64.472 Q39.072 -64.768 39.433 -64.744 Q39.795 -64.719 40.022 -64.462 L44.48 -59.936 Z M19.774 4.171 V-21.609 Q19.774 -22.033 19.873 -22.456 Q19.972 -22.88 20.144 -23.508 L26.5 -38.587 Q27.012 -39.942 28.219 -40.717 Q29.424 -41.493 30.82 -41.493 H63.86 Q65.256 -41.493 66.461 -40.717 Q67.668 -39.942 68.23 -38.587 L74.536 -23.512 Q74.708 -22.902 74.807 -22.471 Q74.906 -22.04 74.906 -21.609 V4.171 Q74.906 4.171 74.896 4.171 Q74.885 4.171 74.871 4.171 Q74.856 4.171 74.881 4.171 Q74.906 4.171 74.906 4.171 V-2.832 H19.774 V4.171 Q19.774 4.171 19.764 4.171 Q19.754 4.171 19.74 4.171 Q19.725 4.171 19.75 4.171 Q19.774 4.171 19.774 4.171 Z M21.895 -21.916 H72.785 L66.621 -37.696 Q66.227 -38.682 65.438 -39.224 Q64.649 -39.767 63.564 -39.767 H31.116 Q30.031 -39.767 29.242 -39.224 Q28.453 -38.682 28.059 -37.696 L21.895 -21.916 Z M30.493 -9.735 Q31.609 -9.735 32.374 -10.518 Q33.138 -11.299 33.138 -12.416 Q33.138 -13.532 32.356 -14.297 Q31.575 -15.061 30.457 -15.061 Q29.341 -15.061 28.577 -14.279 Q27.812 -13.498 27.812 -12.381 Q27.812 -11.264 28.594 -10.5 Q29.375 -9.735 30.493 -9.735 Z M64.223 -9.735 Q65.339 -9.735 66.103 -10.518 Q66.868 -11.299 66.868 -12.416 Q66.868 -13.532 66.086 -14.297 Q65.305 -15.061 64.187 -15.061 Q63.071 -15.061 62.306 -14.279 Q61.542 -13.498 61.542 -12.381 Q61.542 -11.264 62.324 -10.5 Q63.105 -9.735 64.223 -9.735 Z"/></g></g></svg>