<svg xmlns="http://www.w3.org/2000/svg" height="48" width="48"><path d="M7.75 22.25Q6.65 22.25 5.825 21.4Q5 20.55 5 19.45V11.75Q5 10.65 5.825 9.825Q6.65 9 7.75 9H26.45V22.25ZM7.75 39Q6.65 39 5.825 38.175Q5 37.35 5 36.25V28.55Q5 27.45 5.825 26.6Q6.65 25.75 7.75 25.75H30.45V39ZM35.4 35.75Q35.15 36.3 34.575 36.175Q34 36.05 34 35.45V22.25H30.75Q30.4 22.25 30.2 22.025Q30 21.8 30 21.45V9.75Q30 9.4 30.2 9.2Q30.4 9 30.75 9H41.5Q41.85 9 42.075 9.325Q42.3 9.65 42.15 10L38.55 19.7H41.35Q41.7 19.7 41.925 20Q42.15 20.3 42 20.7ZM11.65 33.85Q12.25 33.85 12.7 33.425Q13.15 33 13.15 32.35Q13.15 31.75 12.725 31.3Q12.3 30.85 11.6 30.85Q11 30.85 10.575 31.3Q10.15 31.75 10.15 32.35Q10.15 33 10.575 33.425Q11 33.85 11.65 33.85ZM11.65 17.1Q12.3 17.1 12.725 16.675Q13.15 16.25 13.15 15.6Q13.15 15 12.7 14.55Q12.25 14.1 11.65 14.1Q11 14.1 10.575 14.55Q10.15 15 10.15 15.6Q10.15 16.25 10.575 16.675Q11 17.1 11.65 17.1Z"/></svg>