<svg xmlns="http://www.w3.org/2000/svg" height="24" viewBox="0 -960 960 960" width="24"><path d="M462.48-71.91q-81.57-3.39-152.85-36.69-71.28-33.29-124.3-88.2-53.02-54.91-83.5-127.71-30.48-72.8-30.48-155.57 0-84.81 32.16-159.24 32.16-74.42 87.65-129.98 55.48-55.57 130.09-87.74 74.61-32.18 159.44-32.18 150.29 0 262.15 94.54 111.86 94.53 139.44 237.11h-103q-18.05-70.21-65.79-125.24-47.74-55.03-117.19-82.97v14.87q0 31.89-23.2 54.59-23.21 22.71-54.97 22.71h-76v76.14q0 16.6-11.5 28.1t-28.1 11.5h-77.14v76.74H405v116.17h-39.74L180.35-549.87q-3 17.19-5.5 34.37-2.5 17.18-2.5 34.37 0 122.72 83.15 211.61 83.15 88.89 206.98 96.61v101Zm382.91-10.48L718.83-209.52q-20.94 11.3-43.53 17.92-22.58 6.62-46.93 6.62-77.3 0-131.87-54.6-54.57-54.61-54.57-132.07t54.61-131.66q54.61-54.19 132.07-54.19t131.65 54.21q54.2 54.21 54.2 131.66 0 24.35-6.62 47.47-6.62 23.12-17.93 44.05l127.13 126.07-71.65 71.65ZM628.44-285.98q35.68 0 60.35-24.8 24.67-24.79 24.67-60.71 0-35.67-24.64-60.34t-60.31-24.67q-35.68 0-60.63 24.64-24.94 24.63-24.94 60.31 0 35.68 24.79 60.63 24.8 24.94 60.71 24.94Z"/></svg>