<svg xmlns="http://www.w3.org/2000/svg" height="20" width="20"><path d="M4.375 14.333Q3.5 14.333 2.875 13.708Q2.25 13.083 2.25 12.208V7.792Q2.25 6.917 2.875 6.292Q3.5 5.667 4.375 5.667H15.625Q16.5 5.667 17.125 6.292Q17.75 6.917 17.75 7.792V12.208Q17.75 13.083 17.125 13.708Q16.5 14.333 15.625 14.333ZM4.375 12.458H15.625Q15.708 12.458 15.792 12.375Q15.875 12.292 15.875 12.208V7.792Q15.875 7.708 15.792 7.625Q15.708 7.542 15.625 7.542H4.375Q4.292 7.542 4.208 7.625Q4.125 7.708 4.125 7.792V12.208Q4.125 12.292 4.208 12.375Q4.292 12.458 4.375 12.458ZM4.125 12.458Q4.125 12.458 4.125 12.375Q4.125 12.292 4.125 12.208V7.792Q4.125 7.708 4.125 7.625Q4.125 7.542 4.125 7.542Q4.125 7.542 4.125 7.625Q4.125 7.708 4.125 7.792V12.208Q4.125 12.292 4.125 12.375Q4.125 12.458 4.125 12.458Z"/></svg>